<svg xmlns="http://www.w3.org/2000/svg" xmlns:xlink="http://www.w3.org/1999/xlink" width="128.493" height="127.15" version="1.0"><defs><linearGradient id="b"><stop style="stop-color:#722e00" offset="0"/><stop style="stop-color:#722e00" offset=".5"/><stop style="stop-color:#722e00;stop-opacity:0" offset="1"/></linearGradient><linearGradient id="a"><stop style="stop-color:#dcdcdc" offset="0"/><stop style="stop-color:white" offset="1"/></linearGradient><linearGradient id="d" y2="273.73" xlink:href="#a" gradientUnits="userSpaceOnUse" x2="-746.71" gradientTransform="translate(123.92 444.08) scale(.42762)" y1="401.66" x1="-746.71"/><linearGradient xlink:href="#a" id="c" gradientUnits="userSpaceOnUse" gradientTransform="translate(123.92 444.08) scale(.42762)" x1="-746.71" y1="401.66" x2="-746.71" y2="273.73"/><radialGradient id="e" xlink:href="#b" gradientUnits="userSpaceOnUse" gradientTransform="matrix(1 0 0 1.2 0 -52.03)" cx="-601.8" cy="260.15" r="2.525"/></defs><g transform="rotate(-45 -660.87 54.697)"><path style="color:#000;fill:#ad4700" d="M-154.88 526.72c42.6-.91 78.679 29.96 78.589 47.48-.087 17.1-33.639 46.68-77.239 46.68-43.29 0-79.84-31.66-80.42-47.48-.59-15.83 36.47-45.77 79.07-46.68z"/><path style="color:#000;fill:none;stroke:#722e00;stroke-width:.85522997;stroke-linecap:round;stroke-linejoin:round" d="M-154.98 545.09c38.76-1.61 78.158 12.55 78.689 29.11.531 16.56-43.129 31.1-78.989 29.84-36.29-1.25-78.66-20.64-78.67-30.64-.02-10.02 40.22-26.7 78.97-28.31z"/><path style="color:#000;fill:url(#c)" d="M-206.65 541.97c5.32 10.96 9.03 36.91.07 63.21 4.36 2.78 9.13 5.22 14.11 7.47 14.02-27.44 7.75-69.76.31-77.92-5.11 2.08-9.83 4.44-14.49 7.24z"/><path style="color:#000;fill:url(#d)" d="M-117.95 614.55c6.06-2.57 11.74-5.57 16.85-8.82 12.412-19.53 9.17-45.89.94-62.72a98.987 98.987 0 0 0-17.26-9.23c8.58 13.88 13.21 56.97-.53 80.77z"/><path style="fill:none;stroke:#ececec;stroke-width:4.27619982;stroke-linecap:round" d="M-176.45 547.45c12.95-2.91 34.65-3.21 48.11-1.05"/><path style="fill:none;stroke:#722e00;stroke-width:.47038001;stroke-linecap:round" d="M-176.45 547.45c12.95-2.91 34.65-3.21 48.11-1.05"/><ellipse style="color:#000;fill:url(#e)" transform="rotate(-89.707 -147.715 228.163) scale(.78396)" cx="-601.798" cy="260.15" rx="2.525" ry="3.03"/><ellipse style="color:#000;fill:url(#e)" transform="rotate(-89.707 -153.036 223.63) scale(.78396)" cx="-601.798" cy="260.15" rx="2.525" ry="3.03"/><ellipse style="color:#000;fill:url(#e)" transform="rotate(-89.707 -150.67 220.412) scale(.78396)" cx="-601.798" cy="260.15" rx="2.525" ry="3.03"/><ellipse style="color:#000;fill:url(#e)" transform="rotate(-89.707 -144.974 224.41) scale(.78396)" cx="-601.798" cy="260.15" rx="2.525" ry="3.03"/><ellipse style="color:#000;fill:url(#e)" transform="rotate(-89.707 -141.714 220.843) scale(.78396)" cx="-601.798" cy="260.15" rx="2.525" ry="3.03"/><ellipse style="color:#000;fill:url(#e)" transform="rotate(-89.707 -147.335 216.77) scale(.78396)" cx="-601.798" cy="260.15" rx="2.525" ry="3.03"/><ellipse style="color:#000;fill:url(#e)" transform="rotate(-89.707 -144.024 212.935) scale(.78396)" cx="-601.798" cy="260.15" rx="2.525" ry="3.03"/><ellipse style="color:#000;fill:url(#e)" transform="rotate(-89.707 -138.622 217.119) scale(.78396)" cx="-601.798" cy="260.15" rx="2.525" ry="3.03"/><ellipse style="color:#000;fill:url(#e)" transform="rotate(-89.707 -135.066 213.797) scale(.78396)" cx="-601.798" cy="260.15" rx="2.525" ry="3.03"/><ellipse style="color:#000;fill:url(#e)" transform="rotate(-89.707 -140.306 209.344) scale(.78396)" cx="-601.798" cy="260.15" rx="2.525" ry="3.03"/><ellipse style="color:#000;fill:url(#e)" transform="rotate(-89.707 -140.335 209.265) scale(.78396)" cx="-601.798" cy="260.15" rx="2.525" ry="3.03"/><ellipse style="color:#000;fill:url(#e)" transform="rotate(-89.707 -136.451 205.779) scale(.78396)" cx="-601.798" cy="260.15" rx="2.525" ry="3.03"/><ellipse style="color:#000;fill:url(#e)" transform="rotate(-89.707 -131.62 210.584) scale(.78396)" cx="-601.798" cy="260.15" rx="2.525" ry="3.03"/><ellipse style="color:#000;fill:url(#e)" transform="rotate(-89.707 -127.631 206.993) scale(.78396)" cx="-601.798" cy="260.15" rx="2.525" ry="3.03"/><ellipse style="color:#000;fill:url(#e)" transform="rotate(-89.707 -132.385 202.544) scale(.78396)" cx="-601.798" cy="260.15" rx="2.525" ry="3.03"/><path style="color:#000;fill:none;stroke:#fff;stroke-width:5.3434;stroke-linecap:round;stroke-linejoin:round" d="M-572.316 276.193a14.268 4.293 0 0 1-4.163 4.958 14.268 4.293 0 0 1-16.977.242 14.268 4.293 0 0 1-5.702-4.817" transform="matrix(-.03687 -.35978 .42761 .00218 -314.06 335.72)"/><path style="color:#000;fill:none;stroke:#fff;stroke-width:5.3434;stroke-linecap:round;stroke-linejoin:round" d="M-572.316 276.193a14.268 4.293 0 0 1-4.163 4.958 14.268 4.293 0 0 1-16.977.242 14.268 4.293 0 0 1-5.702-4.817" transform="matrix(-.06199 -.35991 .42761 .00218 -322.5 335.02)"/><path style="color:#000;fill:none;stroke:#fff;stroke-width:5.3434;stroke-linecap:round;stroke-linejoin:round" d="M-572.316 276.193a14.268 4.293 0 0 1-4.163 4.958 14.268 4.293 0 0 1-16.977.242 14.268 4.293 0 0 1-5.702-4.817" transform="matrix(-.06199 -.35991 .42761 .00218 -315.91 334.52)"/><path style="color:#000;fill:none;stroke:#fff;stroke-width:5.3434;stroke-linecap:round;stroke-linejoin:round" d="M-572.316 276.193a14.268 4.293 0 0 1-4.163 4.958 14.268 4.293 0 0 1-16.977.242 14.268 4.293 0 0 1-5.702-4.817" transform="matrix(-.03687 -.35978 .42761 .00218 -294.29 334.2)"/><path style="color:#000;fill:none;stroke:#fff;stroke-width:5.3434;stroke-linecap:round;stroke-linejoin:round" d="M-572.316 276.193a14.268 4.293 0 0 1-4.163 4.958 14.268 4.293 0 0 1-16.977.242 14.268 4.293 0 0 1-5.702-4.817" transform="matrix(-.01804 -.35969 .42761 .00218 -276.14 334.18)"/><path style="color:#000;fill:none;stroke:#fff;stroke-width:5.3434;stroke-linecap:round;stroke-linejoin:round" d="M-572.316 276.193a14.268 4.293 0 0 1-4.163 4.958 14.268 4.293 0 0 1-16.977.242 14.268 4.293 0 0 1-5.702-4.817" transform="matrix(.00707 -.35956 .42761 .00218 -254.41 334.72)"/><path style="color:#000;fill:none;stroke:#fff;stroke-width:5.3434;stroke-linecap:round;stroke-linejoin:round" d="M-572.316 276.193a14.268 4.293 0 0 1-4.163 4.958 14.268 4.293 0 0 1-16.977.242 14.268 4.293 0 0 1-5.702-4.817" transform="matrix(.00707 -.35956 .42761 .00218 -247.07 335.19)"/><path style="color:#000;fill:#000" d="M-154.94 524.72c-21.75.46-41.97 8.29-56.78 18.06-7.4 4.89-13.46 10.27-17.69 15.53-4.22 5.26-6.7 10.4-6.53 15.16.18 4.7 2.82 9.89 7.16 15.28 4.34 5.39 10.45 10.92 17.9 15.97 14.92 10.09 35.21 18.15 57.35 18.16 22.25 0 41.9-7.54 56.061-17.29 14.166-9.75 23.137-21.52 23.188-31.37.026-5.07-2.458-10.6-6.657-16.16-4.198-5.56-10.177-11.15-17.5-16.15-14.642-10.01-34.702-17.66-56.502-17.19zm.1 4c20.8-.44 40.1 6.89 54.12 16.47 7.012 4.79 12.722 10.15 16.595 15.28 3.873 5.13 5.863 10.03 5.844 13.72-.037 7.24-7.905 18.81-21.438 28.12-13.531 9.32-32.461 16.57-53.811 16.57-21.16-.01-40.76-7.78-55.09-17.47-7.17-4.85-13.01-10.16-17.04-15.16-4.03-5-6.19-9.72-6.31-12.94-.12-3.15 1.8-7.66 5.69-12.5 3.89-4.83 9.67-9.99 16.78-14.69 14.23-9.38 33.81-16.96 54.66-17.4z"/></g></svg>