<svg xmlns="http://www.w3.org/2000/svg" id="Layer_1" width="292.2" height="300.284" data-name="Layer 1" version="1.1"><defs id="defs4"><clipPath id="clipPath1847" clipPathUnits="userSpaceOnUse"><path id="path1849" d="M-122.016 154.217c.988.807 1.987 1.6 2.971 2.414l-19.557 23.658c.102.063.205.124.307.188.915.567 1.821 1.147 2.727 1.73.96.618 1.904 1.261 2.843 1.91.921.638 1.83 1.292 2.729 1.96a63.62 63.62 0 0 1 2.894 2.32 180.72 180.72 0 0 1 2.338 2.03c.696.617 1.388 1.237 2.084 1.852a60.677 60.677 0 0 0 3.6 2.928 159.45 159.45 0 0 0 2.043 1.527c.675.495 1.356.982 2.039 1.465.61.433 1.23.854 1.855 1.266.576.377 1.164.734 1.754 1.088.612.362 1.232.712 1.854 1.056.474.263.959.505 1.45.735.277.116.315.11.495.164.39.1.782.19 1.174.277.363.082.73.14 1.098.19-.187-.01.291-.007.416-.006.18-.01.246-.026.41-.045-.141.016.11-.04.28-.08.286-.084.573-.173.858-.262.485-.155.968-.319 1.45-.48l9.078 27.017c-.685.23-1.371.459-2.06.676a45.04 45.04 0 0 1-2.83.799c-1.215.281-2.438.525-3.679.662-1.277.136-2.561.227-3.847.213-1.338-.02-2.677-.083-4.004-.266a42.483 42.483 0 0 1-3.44-.615c-1.161-.263-2.32-.543-3.459-.895-1.399-.445-2.778-.949-4.107-1.576a53.995 53.995 0 0 1-3.088-1.574 102.79 102.79 0 0 1-2.701-1.543 79.107 79.107 0 0 1-5.426-3.54 176.32 176.32 0 0 1-2.474-1.78c-.83-.611-1.655-1.225-2.473-1.85a106.917 106.917 0 0 1-2.604-2.043 90.464 90.464 0 0 1-2.543-2.158c-.679-.6-1.355-1.203-2.033-1.805-.618-.544-1.237-1.09-1.863-1.625-.062-.052-.126-.1-.188-.152.047.127.095.253.141.38.323.894.635 1.792.943 2.69a137.696 137.696 0 0 1 1.772 5.576c.28.95.545 1.906.799 2.864a62.218 62.218 0 0 1 1.355 6.525c.153 1.007.28 2.018.4 3.03a72.75 72.75 0 0 1 .3 3.023c.1 1.24.122 2.486.109 3.73a31.332 31.332 0 0 1-.38 4.363c-.324 2.12-1.044 4.135-1.954 6.067-.518 1.057-1.123 2.067-1.733 3.072-.262.43-.526.86-.79 1.29l-5.667-3.5-.052.12a41.287 41.287 0 0 1-.924 1.918c-.403.798-.853 1.57-1.32 2.33a54.644 54.644 0 0 1-1.348 2.026l-23.496-16.131.127-.184c.177-.258.352-.517.523-.78-.086.158.101-.156.137-.233.104-.189.19-.384.281-.577.083-.183.164-.363.215-.49a.284.284 0 0 1 .023-.053c0 .002-.007.026.018-.048.075-.229.126-.465.193-.696.086-.321.171-.644.254-.966.103-.397.207-.792.313-1.188l.285-1.068c.094-.351.186-.703.281-1.053l.26-.965c.139-.512.281-1.024.451-1.527.129-.365.26-.727.402-1.086h-.002a1.506 1.506 0 0 0 .002 0l4.524 1.79c-.106-.48-.21-.962-.338-1.439a91.038 91.038 0 0 0-1.258-4.3c-.233-.73-.47-1.46-.719-2.186-.182-.53-.37-1.059-.556-1.588L-191.68 244.5a298.366 298.366 0 0 0-4.716-3.844 167.53 167.53 0 0 0-4.43-3.404 254.727 254.727 0 0 0-5.11-3.674 527.817 527.817 0 0 0-5.365-3.726c-1.931-1.316-3.86-2.636-5.79-3.952a799.543 799.543 0 0 0-5.614-3.757c-1.83-1.213-3.655-2.435-5.496-3.631-.091-.06-.183-.117-.274-.176v77.478H-40.93V154.217Z" style="fill:red;fill-opacity:1;fill-rule:nonzero;stroke:none"/></clipPath><clipPath id="clipPath1953" clipPathUnits="userSpaceOnUse"><path id="path1955" d="M-201.898 157.582a118.8 118.8 0 0 1 3.015 3.244 151.402 151.402 0 0 1 2.961 3.42 93.823 93.823 0 0 1 2.92 3.652 83.724 83.724 0 0 1 2.695 3.782 112.89 112.89 0 0 1 2.295 3.564 290.43 290.43 0 0 1 1.955 3.197c.562.92 1.103 1.851 1.678 2.762.363.574.746 1.14 1.176 1.666.41.517.86.998 1.314 1.475a84.222 84.222 0 0 1 3.94 1.56 101.74 101.74 0 0 1 4.437 2.051c1.32.645 2.63 1.313 3.936 1.986 1.227.635 2.452 1.275 3.672 1.924.132.07.255.153.386.223a56.48 56.48 0 0 1-1.015-2.121 67.94 67.94 0 0 1-1.602-3.852 119.495 119.495 0 0 1-1.258-3.5c-.37-1.09-.736-2.182-1.093-3.277-.338-1.038-.679-2.075-1.018-3.113a333.095 333.095 0 0 0-.994-3.006 132.51 132.51 0 0 0-.979-2.8c-.35-.956-.704-1.91-1.064-2.864-.351-.926-.705-1.851-1.068-2.772a93.12 93.12 0 0 0-2.024-4.728 59.737 59.737 0 0 0-.924-1.907c-.097-.19-.198-.377-.297-.566zm54.056 0c.382 1.014.759 2.031 1.131 3.049.414 1.133.809 2.272 1.197 3.414.374 1.107.737 2.218 1.1 3.328.342 1.047.686 2.093 1.027 3.14.32.977.646 1.952.977 2.925a89.2 89.2 0 0 0 .955 2.654c.284.757.609 1.499.94 2.236.34.745.715 1.472 1.095 2.197.447.828.914 1.645 1.38 2.461.503.881 1.015 1.755 1.534 2.625a49.44 49.44 0 0 0 1.4 2.198c.51.757 1.04 1.5 1.577 2.238.567.773 1.152 1.534 1.74 2.29.622.798 1.253 1.587 1.887 2.374a67.72 67.72 0 0 0 1.722 2.059c.295.341.623.649.953.955-.017-.012-.007-.005.094.048-.015-.012-.065-.044-.047-.037.397.155.784.353 1.176.52.675.281 1.355.544 2.041.797.345.126.702.207 1.059.29.28.062.562.087.845.116.265-.004.045-.009.377-.027.443-.053.891-.105 1.336-.159.73-.091 1.459-.19 2.188-.289.798-.11 1.594-.227 2.392-.341a49.777 49.777 0 0 1 3.483-.356c.943-.063 1.887-.109 2.832-.152.848-.039 1.696-.076 2.545-.11a98.947 98.947 0 0 1 5.787-.088c.9.012 1.798.034 2.697.051l.617.002-.078 28.5c-.694-.002-.334.001-1.08-.006-.828-.015-1.656-.035-2.484-.047a70.264 70.264 0 0 0-4.325.065c-.788.031-1.577.065-2.365.101-.707.033-1.414.067-2.12.112a20.98 20.98 0 0 0-1.472.14c-.858.123-1.715.249-2.574.368-.887.12-1.774.24-2.662.35-1.162.138-2.325.275-3.494.331-1.562.063-3.126.055-4.682-.113-1.488-.166-2.971-.387-4.43-.736-1.448-.352-2.885-.755-4.285-1.274a80.928 80.928 0 0 1-3.308-1.3c-.362-.155-.72-.321-1.08-.481l.103.521c.043.198.082.395.127.592.06.255.122.51.184.766.107.449.207.899.306 1.35.076.337.156.674.233 1.011a61.116 61.116 0 0 0 .435 1.756c.052.186.11.37.168.555.087.258.176.514.266.771a11.379 11.379 0 0 0 .432 1.063c.11.242.14.292.275.554.057.11.122.214.184.32.011.013.02.025.056.065l.065.068c.02.02.035.03.054.051-.09-.085.006.005.043.053a17.9 17.9 0 0 0-.097-.104c-.035-.035-.064-.058-.098-.09l-.002-.001c-.088-.083-.181-.175-.254-.237-.497-.39-1.049-.7-1.615-.976l-11.815 25.937c-1.3-.608-2.555-1.31-3.7-2.182a25.063 25.063 0 0 1-2.438-2.072 30.885 30.885 0 0 1-1.733-1.842 29.039 29.039 0 0 1-1.656-2.086 28.913 28.913 0 0 1-1.4-2.17c-.278-.48-.548-.965-.807-1.456l-14.355-3.088.166-.768c.06-.283.125-.565.17-.851.052-.316.098-.632.134-.95.027-.21.049-.414.059-.615.017-.557.002-1.114.016-1.672.061-1.803.24-3.607.736-5.35.397-1.34.837-2.667 1.426-3.939.073-.17.15-.343.234-.535a30.275 30.275 0 0 0-.273-2.986 5.62 5.62 0 0 0-.11-.639c.087.203-.1-.366-.187-.527-.17-.477-.48-.898-.703-1.348-.37-.647-.77-1.276-1.172-1.902a27.137 27.137 0 0 0-1.096-1.588 7.572 7.572 0 0 0-.555-.688c.21.15-.013-.005-.06-.07-.022-.03.121.08.093.057-.18-.159-.343-.26-.548-.397-.752-.503-1.566-.905-2.356-1.344l-.025-.013-5.78 4.877-.343-.407c-.679-.801-1.36-1.599-2.053-2.388-.673-.77-1.345-1.542-2.037-2.295a87.003 87.003 0 0 0-2.098-2.192 132.84 132.84 0 0 0-2.295-2.271 356.56 356.56 0 0 0-2.523-2.414l-.617-.586c-.956-.295-1.912-.59-2.868-.883a195.616 195.616 0 0 1-4.322-1.379 160.66 160.66 0 0 1-4.207-1.463 213.888 213.888 0 0 1-3.94-1.484c-.351-.136-.702-.276-1.054-.412v88.365h157.877v-134.49Zm20.621 40.15c.054.05.1.106.155.155-.04-.054.008-.014.054.025a1.59 1.59 0 0 1-.129-.11c-.021-.02.102.065.078.046-.066-.055-.126-.094-.158-.116zm-17.369 22.594c.042.243.094.485.133.729.053.343.08.689.125 1.033l2.018-.201a30.258 30.258 0 0 1-2.276-1.56zm-27.738 8.688c-.002.019-.008.037-.01.056-.001.017.007-.032.01-.049v-.008zm36.826 4.297c.012.016.007.012.025.039.23.364-.016-.027.02.04l-.045-.08z" style="fill:red;fill-opacity:1;fill-rule:nonzero;stroke:none"/></clipPath><style id="style2">.cls-1{fill:#f15d24}.cls-2{fill:#5e4c9b}.cls-3{fill:#f2ea1e}.cls-4{fill:#231f20}.cls-5{fill:#d08f2a}.cls-6{fill:#f6dd93}.cls-7{fill:#fff}</style></defs><g id="SlHar6" transform="translate(-104.42 -286.276)"><path id="path6" d="M150.51 369.93a31.64 31.64 0 0 1-3.84-2.66c-1.6-1.15-1.59-1.18-3.19 0-1.29.91-2.57 1.85-3.89 2.81-.17-.33 0-.57.08-.8.53-1.65 1.06-3.3 1.63-4.94a.88.88 0 0 0-.37-1.17c-1.48-1-2.92-2.13-4.38-3.2-.13-.1-.25-.22-.53-.47h2.33c1.32 0 2.65 0 4-.07a.7.7 0 0 0 .75-.59c.61-2 1.26-3.89 2-6 .55 1.66 1.07 3.13 1.52 4.62.61 2 .59 2.05 2.75 2.05h4.84l-2.44 1.79c-.89.66-1.76 1.33-2.66 2a.72.72 0 0 0-.3 1c.57 1.67 1.1 3.34 1.63 5 .07.23.11.47.16.71z" class="cls-1" style="fill:#f15d24"/><path id="path8" d="m150.53 369.91.06.08-.08-.06z" class="cls-1" style="fill:#f15d24"/></g><circle id="circle179" cx="-117.008" cy="177.274" r="142.45" class="cls-4" style="fill:#231f20" transform="rotate(-76.72)"/><path id="path181" d="M145.66 300.284C65.34 300.284 0 234.944 0 154.624S65.34 8.964 145.66 8.964s145.66 65.34 145.66 145.66-65.35 145.66-145.66 145.66zm0-284.91c-76.79 0-139.25 62.47-139.25 139.25s62.46 139.25 139.25 139.25c76.79 0 139.25-62.47 139.25-139.25s-62.47-139.25-139.25-139.25z" class="cls-6" style="fill:#f6dd93"/><path id="path183" d="M145.66 241.494a86.87 86.87 0 1 1 86.92-86.87 87 87 0 0 1-86.92 86.87z" class="cls-2" style="fill:#5e4c9b"/><path id="path185" d="M145.66 244.584a90 90 0 1 1 90-90 90.05 90.05 0 0 1-90 90zm0-173.74a83.79 83.79 0 1 0 83.78 83.78 83.88 83.88 0 0 0-83.78-83.78z" class="cls-2" style="fill:#5e4c9b"/><path id="path187" d="m102.42 105.644-13.17.82s-7 1.65-7 10.3v12.76" class="cls-6" style="fill:#f6dd93"/><path id="path189" d="M82.25 132.724a3.2 3.2 0 0 1-3.2-3.2v-12.8c0-8.85 6.19-12.65 9.47-13.42a3.07 3.07 0 0 1 .53-.07l13.17-.83a3.21 3.21 0 1 1 .4 6.4l-12.82.8c-.92.31-4.35 1.82-4.35 7.12v12.8a3.2 3.2 0 0 1-3.2 3.2z" class="cls-6" style="fill:#f6dd93"/><path id="path191" d="m83.15 132.974-10.57 7.88s-5 5.2-.25 12.45l7 10.69" class="cls-6" style="fill:#f6dd93"/><path id="path193" d="M79.28 167.204a3.21 3.21 0 0 1-2.7-1.48l-7-10.7c-4.82-7.41-1.7-14 .62-16.4a3.52 3.52 0 0 1 .41-.36l10.59-7.88a3.202 3.202 0 0 1 3.82 5.14l-10.31 7.67c-.6.76-2.65 3.9.24 8.34l7 10.69a3.22 3.22 0 0 1-.94 4.44 3.18 3.18 0 0 1-1.73.54z" class="cls-6" style="fill:#f6dd93"/><path id="path195" d="m80.99 164.264-6.93 11.23s-2.69 6.67 4.37 11.66l10.42 7.36" class="cls-6" style="fill:#f6dd93"/><path id="path197" d="M88.85 197.724a3.18 3.18 0 0 1-1.85-.59l-10.42-7.36c-7.23-5.11-6.75-12.36-5.49-15.48a4.3 4.3 0 0 1 .24-.48l6.93-11.23a3.21 3.21 0 1 1 5.46 3.36l-6.75 10.94c-.28.92-1 4.6 3.3 7.65l10.43 7.37a3.2 3.2 0 0 1-1.85 5.82z" class="cls-6" style="fill:#f6dd93"/><path id="path199" d="m89.39 195.194 2.06 13s2.3 6.81 10.91 6l12.7-1.2" class="cls-6" style="fill:#f6dd93"/><path id="path201" d="M100.98 217.504a13 13 0 0 1-12.57-8.25 3 3 0 0 1-.12-.52l-2.07-13a3.204 3.204 0 0 1 6.33-1l2 12.7c.39.88 2.21 4.15 7.49 3.65l12.71-1.2a3.204 3.204 0 1 1 .6 6.38l-12.7 1.2c-.57.01-1.13.04-1.67.04z" class="cls-6" style="fill:#f6dd93"/><path id="path203" d="m116.75 215.084 6.49 11.5s4.54 5.57 12.32 1.8l11.48-5.58" class="cls-6" style="fill:#f6dd93"/><path id="path205" d="M130.32 232.884a12.66 12.66 0 0 1-9.56-4.28 2.77 2.77 0 0 1-.31-.45l-6.49-11.49a3.204 3.204 0 0 1 5.58-3.15l6.32 11.21c.68.68 3.53 3.11 8.3.79l11.48-5.57a3.202 3.202 0 0 1 2.8 5.76l-11.48 5.58a15.17 15.17 0 0 1-6.64 1.6z" class="cls-6" style="fill:#f6dd93"/><path id="path207" d="m152.93 221.464 11.7 6.12s6.84 2.21 11.31-5.18l6.64-10.92" class="cls-6" style="fill:#f6dd93"/><path id="path209" d="M166.95 231.104a11.24 11.24 0 0 1-3.31-.47 4.4 4.4 0 0 1-.5-.21l-11.7-6.12a3.212 3.212 0 0 1 3-5.68l11.39 6c.94.21 4.66.69 7.4-3.84l6.61-10.92a3.204 3.204 0 1 1 5.48 3.32l-6.61 10.92c-3.38 5.5-8.13 7-11.76 7z" class="cls-6" style="fill:#f6dd93"/><path id="path211" d="m185.74 209.564 13.19-.43s7-1.44 7.3-10.08l.38-12.76" class="cls-6" style="fill:#f6dd93"/><path id="path213" d="M185.73 212.774a3.21 3.21 0 0 1-.1-6.41l12.85-.42c.92-.28 4.39-1.69 4.55-7l.38-12.76a3.201 3.201 0 1 1 6.4.19l-.38 12.75c-.26 8.85-6.56 12.46-9.86 13.13a2.39 2.39 0 0 1-.53.06l-13.2.44z" class="cls-6" style="fill:#f6dd93"/><circle id="circle215" cx="145.66" cy="154.624" r="68.35" class="cls-6" style="fill:#f6dd93"/><path id="path217" d="M145.66 226.174a71.55 71.55 0 1 1 71.55-71.55 71.63 71.63 0 0 1-71.55 71.55zm0-136.69a65.14 65.14 0 1 0 65.14 65.14 65.21 65.21 0 0 0-65.14-65.14z" class="cls-6" style="fill:#f6dd93"/><path id="path219" d="M172.4 211.724c-25.62 0-53.06-10.45-70.35-27.87-11.82-11.9-24.47-32.29-17.62-61.8l6 1.4c-6.21 26.76 5.27 45.25 16 56.05 20.15 20.3 55.15 30.49 83.15 24.22l1.36 6a84.78 84.78 0 0 1-18.54 2z" class="cls-5" style="fill:#d08f2a"/><path id="path227" d="M145.66 226.174a71.55 71.55 0 1 1 71.55-71.55 71.63 71.63 0 0 1-71.55 71.55zm0-136.69a65.14 65.14 0 1 0 65.14 65.14 65.21 65.21 0 0 0-65.14-65.14z" class="cls-6" style="fill:#f6dd93"/><path id="path229" d="M130.29 236.304c-5.45 0-10.44-2.41-13.08-6.44a23.09 23.09 0 0 1-2.15-4.56c-.67-1.78-1.25-3.32-2.28-4.22-1.63-1.42-4.11-1.22-8-.72-3.28.41-7 .89-10.48-.45-4.56-1.76-7.79-6.21-9.62-13.24l-.54-2.18c-.88-3.67-1.72-7.13-3.86-9.49a22.74 22.74 0 0 0-4.3-3.35c-3-2-6.32-4.21-7.71-8.22-1.51-4.38.11-8.5 1.54-12.13 1-2.63 2-5.11 1.71-7.31-.29-2.2-1.77-4.21-3.35-6.42-2.17-3-4.63-6.47-4.42-10.88.25-5.27 4.2-9 7.37-12l.34-.31c3.63-3.41 4.34-6.38 4.49-11.36v-3.09c-.07-4.49-.14-9.58 3.13-13.92 4.69-6.24 13.2-6.81 20-7.27 1.5-.1 2.91-.19 4.19-.34l.7 6.14c-1.42.16-2.91.26-4.48.36-5.87.4-12.53.84-15.52 4.82-2 2.65-1.94 6.28-1.89 10.12v3.36c-.18 6.12-1.32 10.88-6.43 15.68l-.34.32c-2.61 2.44-5.3 5-5.43 7.73-.11 2.27 1.46 4.46 3.27 7s4 5.56 4.46 9.22c.46 3.66-.88 7.27-2.1 10.36-1.22 3.09-2.21 5.64-1.44 7.86.71 2 2.83 3.46 5.29 5.1a27.54 27.54 0 0 1 5.46 4.35c3.19 3.52 4.3 8.12 5.29 12.17.17.7.33 1.4.51 2.09 1.3 5 3.27 8 5.86 9 2 .79 4.67.45 7.47.09 4.23-.54 9-1.15 12.86 2.21 2.18 1.91 3.14 4.44 4 6.67a18.9 18.9 0 0 0 1.53 3.37c1.94 2.94 6 3.91 9.25 3.57 4.05-.44 7.87-2.52 11.38-4.7l.28-.17a17.86 17.86 0 0 1 6.14-2.78c4.57-.86 8.54 1.32 12 3.24 2.85 1.57 5.55 3.05 7.94 2.58 2.58-.51 4.36-3.08 6.42-6.06a28.28 28.28 0 0 1 5.75-6.69c3.63-2.8 8.11-3.6 12-4.13l1-.13c3.26-.43 6.33-.84 8.85-2.19 2.52-1.35 2.95-2.81 3.9-6.31.14-.52.28-1 .44-1.59l5.93 1.71c-.15.51-.28 1-.41 1.49-1 3.68-2 7.49-6.93 10.13-3.52 1.9-7.31 2.4-11 2.88l-.94.13c-3.11.42-6.64 1-9.07 2.9a23.27 23.27 0 0 0-4.44 5.31c-2.47 3.57-5.27 7.61-10.31 8.61-4.59.9-8.58-1.29-12.11-3.22-2.84-1.56-5.53-3-7.92-2.59a13.36 13.36 0 0 0-4 2l-.28.18c-3.94 2.44-8.68 5-14 5.59a19.11 19.11 0 0 1-1.92.12z" class="cls-5" style="fill:#d08f2a"/><path id="path231" d="M91.24 244.724c.09-.23.23-.28.45-.16l2 1.17a.35.35 0 0 1 .16.5l-1.2 2.55 1.4.79 1.57-2.34a.37.37 0 0 1 .52-.12l2.06 1.17c.21.12.24.27.09.47l-10.31 14.23a.39.39 0 0 1-.55.12l-3-1.7a.38.38 0 0 1-.18-.52zm.21 6.7-3.05 6.37.18.1 3.91-5.88z" class="cls-7" style="fill:#fff"/><path id="path233" d="m53.88 235.724 1.7-1.58a.32.32 0 0 1 .51 0l1.26 1.35 10.84-10.06a.31.31 0 0 1 .51 0l1.58 1.69a.37.37 0 0 1 .09.25.33.33 0 0 1-.11.27l-10.84 10.08 1.24 1.34a.32.32 0 0 1 0 .51l-1.7 1.57a.32.32 0 0 1-.51 0l-4.57-4.92a.32.32 0 0 1 0-.5z" class="cls-7" style="fill:#fff"/><path id="path235" d="m47.19 196.834 2.1-1a.31.31 0 0 1 .48.17l1.48 3.19 1 2.1a.32.32 0 0 1-.18.48l-15.85 7.36a.32.32 0 0 1-.48-.18l-1-2.1a.31.31 0 0 1 .17-.48l13.42-6.23-1.36-2.93a.32.32 0 0 1 .22-.38z" class="cls-7" style="fill:#fff"/><path id="path237" d="M41.17 163.124a.27.27 0 0 1 .4.26l.29 2.35a.37.37 0 0 1-.32.43l-2.76.55.2 1.6 2.81-.14a.37.37 0 0 1 .41.35l.29 2.34c0 .24-.08.36-.32.36l-17.58.21a.38.38 0 0 1-.41-.37l-.42-3.41a.37.37 0 0 1 .31-.45zm-5.25 4.16-6.94 1.35v.21l7-.38z" class="cls-7" style="fill:#fff"/><path id="path239" d="m26.74 125.374 17.12 3.51a.32.32 0 0 1 .28.43l-.33 1.63a.5.5 0 0 1-.16.27.61.61 0 0 1-.27.15l-9 1 8.41 1.72a.32.32 0 0 1 .28.43l-.49 2.21a.32.32 0 0 1-.43.28l-17.12-3.51a.32.32 0 0 1-.28-.43l.34-1.68a.54.54 0 0 1 .16-.27.61.61 0 0 1 .27-.15l8.72-1-8.15-1.67a.32.32 0 0 1-.28-.43l.46-2.27a.33.33 0 0 1 .47-.22z" class="cls-7" style="fill:#fff"/><path id="path241" d="m41.81 89.234 2 1.16a.32.32 0 0 1 .14.49l-.92 1.6 12.81 7.39a.33.33 0 0 1 .14.5l-1.16 2a.32.32 0 0 1-.21.16.33.33 0 0 1-.29 0l-12.81-7.39-.93 1.58a.32.32 0 0 1-.5.13l-2-1.16a.31.31 0 0 1-.14-.49l3.35-5.81a.32.32 0 0 1 .52-.16z" class="cls-7" style="fill:#fff"/><path id="path243" d="M78.5 72.994a.28.28 0 0 1 0 .48l-1.74 1.6a.36.36 0 0 1-.53 0l-2-1.93-1.19 1.09 1.74 2.21a.37.37 0 0 1 0 .53l-1.75 1.6a.27.27 0 0 1-.47-.06l-10.36-14.2a.38.38 0 0 1 .06-.55l2.53-2.32a.39.39 0 0 1 .56 0zm-6.43-1.87-5.12-4.86-.16.14 4.4 5.53z" class="cls-7" style="fill:#fff"/><path id="path245" d="M145.25 271.984a118.63 118.63 0 0 1-13.08-.73l.68-6.13a113.8 113.8 0 0 0 12.4.68 110.54 110.54 0 0 0 102.88-69.32l5.72 2.32a116.7 116.7 0 0 1-108.6 73.18z" class="cls-7" style="fill:#fff"/><path id="path247" d="M288.87 152.804v45.28h-68.58c-34.95-2.64-40.88-33-40.88-33-78.47 0-77.81-58-77.81-58v-39.59c3.3-54.07 39.56-56 39.56-56h27.67s46.84-5.28 50.79 35.61h20.45c45.5-.66 48.8 34.28 48.8 34.28v71.47z" class="cls-5" style="fill:#d08f2a"/><path id="path249" d="M292.16 201.374h-72.12c-30.74-2.32-40.63-25.12-43.14-33-26.95-.43-47.6-7.71-61.4-21.67a59.81 59.81 0 0 1-17.2-39.68v-39.73c1-16.11 5.65-38 22.3-50.72 10.17-7.78 20-8.4 20.37-8.42h27.67c2.49-.25 24.68-2.07 40.11 10.44 7.54 6.13 12.17 14.55 13.83 25.13h17.54c47.91-.7 52 36.89 52.08 37.27v120.38zm-71.74-6.59h65.16V81.514c-.29-2.5-4.56-31.18-44.24-31.18h-24.7l-.29-3c-1-10.17-4.92-18.12-11.71-23.64-13.84-11.24-35.22-9-35.44-9h-27.93c-2.13.16-33.31 3.36-36.37 52.86v39.49a54 54 0 0 0 15.37 35.09c12.94 13 32.84 19.64 59.14 19.64h2.71l.52 2.66c.23 1.17 5.94 27.88 37.78 30.35z" class="cls-5" style="fill:#d08f2a"/><path id="path251" d="M288.87 144.884v45.28h-68.58c-34.95-2.64-40.88-33-40.88-33-78.47 0-77.81-58-77.81-58v-39.59c3.3-54.07 39.56-56.05 39.56-56.05h27.67s46.84-5.28 50.79 35.61h20.45c45.5-.66 48.8 34.28 48.8 34.28z" class="cls-4" style="fill:#231f20"/><path id="path253" d="M292.16 193.464h-72.12c-30.74-2.32-40.63-25.13-43.14-33-26.95-.43-47.6-7.71-61.4-21.67a59.81 59.81 0 0 1-17.2-39.68v-39.74c1-16.11 5.65-38 22.3-50.72 10.17-7.78 20-8.4 20.37-8.42h27.67c2.49-.25 24.68-2.07 40.11 10.44 7.53 6.11 12.16 14.56 13.77 25.17h17.54c47.91-.7 52 36.9 52.08 37.27v120.35zm-71.74-6.6h65.16V73.594c-.29-2.5-4.56-31.18-44.24-31.18h-24.7l-.29-3c-1-10.17-4.92-18.12-11.71-23.64-13.84-11.24-35.22-9-35.44-9h-27.93c-2.13.15-33.31 3.35-36.37 52.85v39.49a54 54 0 0 0 15.37 35.09c12.94 13 32.84 19.64 59.14 19.64h2.71l.52 2.67c.23 1.21 5.94 27.88 37.78 30.35z" class="cls-6" style="fill:#f6dd93"/><path id="path255" d="M170.85 87.254c-17.36-1.44-28-12.55-27.87-29 .08-8.89 2.47-17 6.71-22.91 5-6.94 12.39-10.65 21.35-10.74l.05 5.28c-10.91.1-22.63 7.62-22.84 28.42-.13 13.61 8.48 22.46 23 23.68z" class="cls-3" style="fill:#f2ea1e"/><path id="path257" d="M179.3 87.264h-21.65c-17.35-1.44-28-12.55-27.87-29 .09-8.89 2.47-17 6.72-22.91 4.89-6.78 12.05-10.48 20.73-10.73h23.07c4.32 0 7.64 1.29 9.86 3.82a12.18 12.18 0 0 1 2.67 8.86v11.06h-17.81v-11.87a4.53 4.53 0 0 0-1.83-3.64c-2.57-2.17-6.79-2.84-7.57-2.95h-7.75c-10.88.1-22.61 7.62-22.82 28.42-.13 13.58 8.44 22.42 22.93 23.67h16v-12.2h5.28zm1-44.18h7.28v-6.28a7 7 0 0 0-1.4-4.91c-1.18-1.32-3.15-2-5.87-2h-2.58a9.61 9.61 0 0 1 2.58 6.59z" class="cls-3" style="fill:#f2ea1e"/><path id="path259" d="M243.44 122.894c-17.35-1.45-28-12.55-27.87-29 .2-20.41 8.75-30.84 25.42-31v5.27c-13.61.13-20 8.32-20.2 25.78-.13 13.62 8.48 22.47 23 23.68z" class="cls-3" style="fill:#f2ea1e"/><path id="path261" d="M250.58 122.904h-20.34c-17.35-1.45-28-12.55-27.87-29 .19-19 10.43-30.56 27.45-31h20.43c4.32 0 7.64 1.28 9.86 3.82a12.06 12.06 0 0 1 2.67 8.85v11.06h-17.81v-11.86a4.55 4.55 0 0 0-1.82-3.65 15.24 15.24 0 0 0-5.12-2.95h-7.57c-20.36.2-22.74 18.1-22.82 25.78-.13 13.58 8.44 22.43 22.93 23.67h14.73v-9.58h17.76v13.85h-5.28v-8.57h-7.2zm-.32-41.54h7.25v-6.28a7.09 7.09 0 0 0-1.41-4.92c-1.18-1.32-3.15-2-5.87-2h-2.58a9.64 9.64 0 0 1 2.58 6.6z" class="cls-3" style="fill:#f2ea1e"/><path id="path263" d="M195.46 70.124h-40.22v-16.49h40.22zm-34.95-5.28h29.67v-5.93h-29.67z" class="cls-3" style="fill:#f2ea1e"/><path id="rect265" d="M186.56 69.134h5.28v32.65h-5.28z" class="cls-3" style="fill:#f2ea1e"/><path id="path267" d="M267.77 147.924h-44.84c-26.85 0-31.55-24.89-31.6-25.15l6.5-1.14-3.25.57 3.24-.58c.15.8 3.87 19.7 25.11 19.7h44.84z" class="cls-2" style="fill:#5e4c9b"/><path id="path269" d="M267.77 169.044h-44.84c-26.85 0-31.55-24.9-31.6-25.15l-.05-.28v-28.21h6.6v27.6c.51 2.38 4.87 19.44 25.05 19.44h44.84z" class="cls-2" style="fill:#5e4c9b"/><path id="path271" d="M176.7 113.604h-22.4c-26.85 0-31.56-24.89-31.6-25.14l6.49-1.15-3.24.58 3.24-.59c.15.81 3.87 19.71 25.11 19.71h22.4z" class="cls-2" style="fill:#5e4c9b"/><path id="path273" d="M176.7 134.724h-22.4c-26.85 0-31.56-24.89-31.6-25.14l-.05-.29v-28.21h6.59v27.64c.51 2.38 4.88 19.45 25.06 19.45h22.4z" class="cls-2" style="fill:#5e4c9b"/><path id="rect275" d="M261.25 146.394h6.59v9.47h-6.59z" class="cls-2" style="fill:#5e4c9b"/><path id="rect277" d="M241.35 146.394h6.59v9.47h-6.59z" class="cls-2" style="fill:#5e4c9b"/><path id="rect279" d="M220.5 146.394h6.59v9.47h-6.59z" class="cls-2" style="fill:#5e4c9b"/><path id="rect281" d="M169.71 111.984h6.59v8.52h-6.59z" class="cls-2" style="fill:#5e4c9b"/><path id="rect283" d="M149.81 111.984h6.59v8.52h-6.59z" class="cls-2" style="fill:#5e4c9b"/><path id="path2150" d="M179.503 200.134a20.462 20.462 0 0 0-7.7 7.571 20.462 20.462 0 0 0-2.74 10.446c.008.762.06 1.523.155 2.28" style="fill:none;stroke:#d08f2a;stroke-width:5;stroke-linecap:butt;stroke-linejoin:miter;stroke-miterlimit:4;stroke-dasharray:none;stroke-opacity:1"/><path id="path2234" d="M164.01 198.524a20.462 20.462 0 0 0-7.845 7.421 20.462 20.462 0 0 0-2.942 10.39c-.006.763.032 1.525.112 2.283" style="fill:none;stroke:#d08f2a;stroke-width:5;stroke-linecap:butt;stroke-linejoin:miter;stroke-miterlimit:4;stroke-dasharray:none;stroke-opacity:1"/><path id="path2240" d="M147.124 194.164a20.462 20.462 0 0 0-7.469 7.8 20.462 20.462 0 0 0-2.424 10.523c.032.762.107 1.521.224 2.274" style="fill:none;stroke:#d08f2a;stroke-width:5;stroke-linecap:butt;stroke-linejoin:miter;stroke-miterlimit:4;stroke-dasharray:none;stroke-opacity:1"/><path id="path2246" d="M132.476 188.025a20.463 20.463 0 0 0-8.323 6.88 20.463 20.463 0 0 0-3.63 10.171 20.36 20.36 0 0 0-.04 2.284" style="fill:none;stroke:#d08f2a;stroke-width:5;stroke-linecap:butt;stroke-linejoin:miter;stroke-miterlimit:4;stroke-dasharray:none;stroke-opacity:1"/><path id="path2252" d="M119.176 180.064a20.463 20.463 0 0 0-9.314 5.464 20.463 20.463 0 0 0-5.206 9.462 20.35 20.35 0 0 0-.405 2.248" style="fill:none;stroke:#d08f2a;stroke-width:5;stroke-linecap:butt;stroke-linejoin:miter;stroke-miterlimit:4;stroke-dasharray:none;stroke-opacity:1"/><path id="path2338" d="M107.976 168.868a20.462 20.462 0 0 0-9.279 5.526 20.462 20.462 0 0 0-5.143 9.495 20.349 20.349 0 0 0-.39 2.251" style="fill:none;stroke:#d08f2a;stroke-width:5;stroke-linecap:butt;stroke-linejoin:miter;stroke-miterlimit:4;stroke-dasharray:none;stroke-opacity:1"/><path id="path2344" d="M100.52 155.048a20.462 20.462 0 0 0-9.572 4.998 20.462 20.462 0 0 0-5.667 9.193 20.349 20.349 0 0 0-.515 2.226" style="fill:none;stroke:#d08f2a;stroke-width:5;stroke-linecap:butt;stroke-linejoin:miter;stroke-miterlimit:4;stroke-dasharray:none;stroke-opacity:1"/><path id="path2350" d="M96.087 141.033a20.462 20.462 0 0 0-10.113 3.788 20.462 20.462 0 0 0-6.749 8.43c-.3.7-.563 1.417-.784 2.146" style="fill:none;stroke:#d08f2a;stroke-width:5;stroke-linecap:butt;stroke-linejoin:miter;stroke-miterlimit:4;stroke-dasharray:none;stroke-opacity:1"/></svg>