<svg xmlns="http://www.w3.org/2000/svg" xml:space="preserve" width="907.6" height="1321.6" viewBox="0 0 240.1 349.7"><path fill="#fff" stroke="#000" stroke-width=".3" d="m80.7 158.6 10 96.6-35.7-6.7-11.8-7.1 9.6 55.2 11.6 8.6 25.9 6.2 40.7 3 39.4-3.5L200 301l6.6-7.9 8.2-51.2-11.4 5.6-32.8 6.7 10.4-95.6-58 2.7z"/><path fill="#929ba7" d="M128.7 90.1a515.6 515.6 0 0 0-20.6.4 83 83 0 0 0-8.2.6l-4.2.4a199 199 0 0 1-4.4.4l-1.9.2-3.3.4A129.6 129.6 0 0 0 69.6 95a79 79 0 0 0-4 .8l-3.8.8a32 32 0 0 0-3.3.8 47.5 47.5 0 0 1-3.6 1 81.2 81.2 0 0 0-23.6 9c-3.8 1.9-8.3 6-10 9.3-1.2 2.4-1.3 3.2-1.4 9.3 0 9 .2 11 2 13.3a43.6 43.6 0 0 1 13-2.2 408.7 408.7 0 0 1 6.3-2.4c9.2-3.3 18.4-6.6 28-9 7.6-1.7 15.3-3 23-4.6 7-1.7 14-3.8 21.1-5.3l17-2.8c5.7-1 11.4-1.8 17.2-2a129.4 129.4 0 0 1 3 0 117.4 117.4 0 0 1 16.9 1.2 42.5 42.5 0 0 1 7.8-.4 78.5 78.5 0 0 1 14.4 1.7l4.2 1.3 1.5.5c0 .1-.3 0-.4 0 2.1.6 5.1 1.5 6.6 2.2 19 9.6 26.4 21 24 29.6 2.6.5 5 1.4 7.3 2.7.5-3 1-5.8 1.3-6.7.1-.6.6-1.5 1-2 2.1-2.3 3-4.6 2.6-6.6-.1-.6 0-1.1.1-1.5.3-.4.3-2.4.3-7 0-6.3 0-6.4-.8-8.4a11 11 0 0 0-2.6-4.1l-3-3a61.6 61.6 0 0 1-2-1.5 78.9 78.9 0 0 0-24.1-10.1c-3-1-7.5-2-10.4-2.6a67 67 0 0 1-3.4-.7 24 24 0 0 0-2.9-.5 148 148 0 0 0-14.3-2.2 235.9 235.9 0 0 1-5.1-.6 279 279 0 0 0-20-1.7 531.8 531.8 0 0 1-5.7-.3h-15zm37.2 67.7-4.8.6-4.8.3h.3-.2c-.6.3-1.2.3-1.9.4-3.6.7-7.2.8-10.8 1l-8.2.3a26 26 0 0 0-4.8.4l-4.2 1-5.3 1.6-2 .5a379.8 379.8 0 0 0 55.5-2.5 39.3 39.3 0 0 0-8.8-3.6zm-30.4 11h-4.4l-9.2.4a41 41 0 0 0-11.2 3.8c-7.7 3.8-8.2 4-11.7 4.2-2.7.1-3 .2-3.2.7a2 2 0 0 0-.2 1.2c.2.9 3 3.5 4.1 3.9 1.1.4 1.3.7.4 1a3 3 0 0 0-1.3.6c-1 .7-3 1-4.4.9-1.2-.1-1.4-.1-1.7.5l-.5.8 1.3 1.6c1.3 1.5 3.1 2.5 4.5 2.5 1 0 1 .3.4.9-.5.4-1.6 2.8-2.4 5.1a175.8 175.8 0 0 1-3.2 9l.5 1 .6.5-.8 2.8c-2.2 7.6-2.3 8-1.3 8.7.5.3 1 .4 1.8.3.7-.2 1.8 0 3.9.6 2.6.8 3 1 4.5 2.4 1.5 1.3 1.7 1.6 1.4 2-1 1.6-1.6 3-1.6 3.7 0 .9.6 2.4 1.5 3.8a107.5 107.5 0 0 1 4.8 8 43.7 43.7 0 0 0-3.4 12.8c.1 1.3.1 1.3 1.4 1.8 2 .7 5 .5 6.9-.6 1.6-1 1.6-1 2.6 1.6.5 1.3.7 2.2.7 3.6 0 2.3.2 2.8 1.8 4.8 1 1.2 1.3 1.8 1.5 2.8 0 .6.6 2.1 1 3.2a21 21 0 0 1 1.3 3.1c.1.6.6 1.9 1 2.9 1 1.9 1.7 2.4 2.7 1.8.8-.5 1-.4 1.8 1.4l1.5 2.5c.5.7.9.8 1.7.8 1.3 0 1.8-.5 3.3-3.6.3-.8.7-1.4.8-1.4l.8.3c1.3.6 1.8.2 2.9-2.3l1-2.6c0-.2.4-1.4 1-2.7a17 17 0 0 0 1.2-3.5c.2-.9.5-1.5 1.5-2.7 1.5-1.9 1.8-2.6 1.8-5 0-1 .1-2.2.4-2.7a178.5 178.5 0 0 0 1.3-3.1l1.8.8c1.5.8 1.8.9 4 .9 3.2 0 4-.4 4-2 .2-2.1-2-10-3-11.7l-.6-.7.5-.7c.3-.4.6-.8.6-1l1-1.8 1.1-1.8 1.7-3c1.9-3.2 2.1-4.2 1.3-5.7-.4-.8-.3-1 1.4-3.2a6.1 6.1 0 0 1 5.2-2c2.2.2 3-1 3.4-5.3.5-7 .6-7.6.9-7.6.2 0 .5-.2.8-.5.4-.5.4-.7.2-2.2-.7-3.7-3-9.5-5.8-15.1a37 37 0 0 0-7.6-12c-6-5.9-8.9-7.9-12.4-8.5-5-.8-6.1-1-9.6-1zm11.7 4.2c.4 0 2.3 1.5 5 4 4.3 4 6 5.7 7 7.6 4 7.4 6.2 12.1 7.3 15.6 1.4 4.4 1.6 5.3 1.3 5.3-.2 0-.6.2-.8.5-.4.5-.5 1.2-.7 4l-.4 5.8-.2 2.1h-1.3a9.5 9.5 0 0 0-4.7 1.5c-1 .9-1 .7 1.1-1.9 1.2-1.4 1.6-2.3 2.2-4a35.5 35.5 0 0 0 1.2-13.2c0-1.9-.7-4-2.5-6.8a41.6 41.6 0 0 1-2.1-4c-.5-1-1-2-1.2-2l-1.5-1.9a91.8 91.8 0 0 0-7.6-9.6c-2.2-2.4-2.6-3-2-3zm-64.4 3a9.1 9.1 0 0 0-.4.3l.4-.3zm32 10c3.6 0 6.8 2 10.1 6.1 2.1 2.6 2.4 2.9 4.2 3l2 .2c1 .2 2-.5 3.7-3.2a10 10 0 0 1 6.3-4.4c3.2-.8 4.3-.7 7.2.8 3.5 1.7 4.8 3.2 7.2 8.3 1 1.9 2.6 6.4 2.6 7 0 .2-.3.1-1.2-.3-1.4-.7-1.7-.7-4 0l-2.8.7c-.9.1-2 .5-2.7.7l-2.4 1c-3.3 1.5-4.5 2-5.3 2.7-1 .8-1.3.8-2.3 0a3 3 0 0 0-1-.7l-1.4-.3c-.8-.2-1-.4-1.1-1.4-.3-1.6-.8-2.5-1.6-2.7-.6-.2-.8 0-1.2.4l-.5.6-.5-.6c-1-1-2.2-.4-2.7 1.7-.4 1.7-.6 2-1.9 2.2-.5 0-1.3.4-1.8.8-1 .8-1.2.7-2.4-.2-1.4-1-8.4-4-10.3-4.3a35.7 35.7 0 0 1-3.2-.7c-2-.7-2.1-.7-3.4 0l-1 .5.5-2c.8-3 1.5-4.9 2.4-6.4l3.5-6a14.5 14.5 0 0 0 1-1.5c.6-1.4 1.4-1.9 3.3-2h.7zm27 11c-.3 0-.7 0-1.6.3-3.8 1.2-6.2 2.7-6.2 4l.2.9c.4.3 1.5 0 2.5-.6.7-.5 2.2-1.2 3.6-1.6 3-1.1 3.7-2 2.4-2.8-.3-.2-.5-.3-.8-.3zm-24.2 1c-1.3 0-1.7 0-2 .5-.8 1-.1 1.7 2.4 2.1 2.7.5 4 1 5.8 2l1.6.8c.3 0 1.2-1 1.2-1.3 0-1.4-5.8-4-9-4zm13 7.7c.1 0 .3.5.4 1.3 0 .7.3 1.5.4 1.7.3.6 2.3 1.8 3.5 2.1l1 .5c0 .3-.1.4-.4 0-.7-.5-2.6-.8-5.5-.7h-3l1.3-.7c1.3-.8 1.7-1.3 2-3.2 0-.8.2-1 .3-1zm-24.7.6 1.9.4a42 42 0 0 1 7.6 2.5l.8.4-2.1.3a10 10 0 0 0-6.5 2.7l-2.9 2.4-.8.6-.3-.8c-.7-1.6-1-3.7-1-5.3v-1.8l.7.1c.6.1 1 0 1.7-.7zm49 0c.5 0 .7.3 1.3.8 1 .8 1.4 1 2.2.5.6-.3.6-.3.4 2-.1 1.3-.4 3.1-.7 4-.3 1-.7 1.7-.8 1.8a15 15 0 0 1-3-2.1c-3-2.5-4.8-3.3-7.1-3.3l-1.7-.2c-.6-.2-.6-.2.1-.6 1-.7 6-2.3 8-2.6l1.3-.2zm-28.5 4.5c.2 0 .2.1-.2.3-.7.3-1.1.3-.6 0 .2-.2.5-.3.8-.3zm-6.7 1.6.8.1-1.4 3.2a17.2 17.2 0 0 0-1.8 4.6c-.2.2-1.3.3-3.3.3h-3l.7-1.8c.7-2 2.5-5.5 3-6a38 38 0 0 1 5-.4zm26 .3c1.9 0 5 1.2 5 1.9l-2 3-1.9 2.9h-1.3c-1 0-4.1-.7-4.5-1-.5-.5 3.8-6.9 4.6-6.8zm27 .2a144.6 144.6 0 0 0-.6 5.6l-.2 2 .8-2.5v-5.1zm-42.1 2.5c2 0 2 0 3.5 1.1.8.6 1.6 1.2 2 1.2.2 0 .5.4.6 1 .4 1.2 2 3 3.7 3.7 2.3 1 9.8 1.8 11 1.1a17 17 0 0 0 2.4-2.8c1-1.4 1.8-2.4 2-2.3s-.1 1.3-.6 2.6l-.8 2.8c0 .3.3.8.7 1.2l1.1 2c.6 1.2.5 1.6-.5 2.7l-1.3 2.1-1.2 2-1.2 2c-.4.8-1 1.5-1 1.5l-.9-.5a27 27 0 0 0-6.4-3c-.9-.3-1.3-.6-1.2-.8.5-1.7.3-2.5-.7-3.7-1.4-1.7-3.5-2.6-4.3-1.8-.6.6-.3 1.4 1 2.8l1.4 1.4-1.7 1.7a9.6 9.6 0 0 1-5 3c-3.4 1.2-7.5 0-10.3-3.2l-1.5-1.7 1.3-1.3c1-1 1.3-1.4 1.2-2 0-.7-.2-.9-.8-1-1.1 0-2.1.4-3.5 1.9-1.2 1.3-1.2 1.3-1.1 2.8v1.5l-1.4.4c-1.5.5-5 2.1-6.1 3-1 .6-.9.6-1.3-.2-.3-.8-2-3.5-4-6.4l-1-2c0-.7 1-2.7 1.5-3.2.8-.7.7-1.5-.2-4.2a9.7 9.7 0 0 1-.6-2.3c.2-.2 1.5 1.4 2.8 3.3a7 7 0 0 0 1.5 1.8c.5.3 4.1.2 6.7 0 3.3-.4 5.2-1.2 6.8-3a6 6 0 0 0 1.4-2c0-.3.4-.7 1-1l2-1.4c.9-.7 1.1-.8 3-.8zm3.3 3.3c-1.3 0-1.4.8-1.8 7.5-.2 5.1-.2 6.3 0 6.7.4.4 1.3.5 1.9.2.6-.5.9-2.1 1-7.8.2-6.2.1-6.6-1.1-6.6zm-6.7 0c-.5 0-.8.2-1 .4a88 88 0 0 0 .1 11.2 8 8 0 0 0 .6 2.6c.4.5 1.7.5 2.1 0 .5-.6-.1-13-.7-13.7-.3-.3-.7-.4-1.1-.5zm15.7 18c1 .2 5.2 2.5 6 3.3a25 25 0 0 1 2.9 5l.6 2.5.8 3.3c.2 1 .2 1-.4 1-.6 0-.8-.2-1-1.2-.2-.7-.8-2.3-1.5-3.5-.6-1.3-1.3-2.8-1.4-3.4-.4-1.4-3-4.4-4.6-5.1-1-.6-2-1.7-1.6-1.8a.3.3 0 0 1 .2 0zm-17 8c.6 0 1.2.3 2.3.7 1 .5 2 .8 2.4.8a8 8 0 0 0 2.4-.8c1.5-.6 2-.7 2.8-.6 2 .4 4.9 2 5.8 3.3l1.3 1.7.8 1-.6 1.6a20 20 0 0 0-1.5 6 7 7 0 0 1-.3 2c-.3.4-.4.3-1-.7a37 37 0 0 0-2-2.6l-1.9-2.4-1.2-1.4-.7-.5.8-.5c1.2-.7 1.5-1.2 1.2-2-.4-.8-1-.8-3 0-1.9.6-4 .6-6.2-.2-1.6-.6-1.7-.6-2.3-.2-.8.7-.5 1.7.6 2.3l.8.6-.8.9a51.3 51.3 0 0 0-5.5 6.6s-.4-1.1-.5-2.5c-.2-1.5-.7-3.3-1.2-4.6l-.8-2.2.7-1 1.2-1.8c.8-1.2 3.9-3 5.9-3.4h.5zm-33.7 3a17 17 0 0 1-1 4.4 29.5 29.5 0 0 1-2.5 4.6l1.9.3c1 .1 1.1 0 1.3-.4l.6-1.5c.3-.6.5-1.5.4-2l-.7-5.3zm42.2 9.3c.2 0 .5.4 1 1 2.8 4 3.2 4.8 3.3 6.9.2 1.8.1 2-.5 3l-1 2a29.4 29.4 0 0 1-1.7 3.9c-.5 0 0-3.3.8-5.4.6-1.5.5-3.8-.4-7a29 29 0 0 0-1.5-4.4z"/><path fill="#778595" d="M128.2 90.2a327.7 327.7 0 0 0-22.2.6 155 155 0 0 0-5.6.4 301.2 301.2 0 0 0-35 4.6 51 51 0 0 1-3 .7 52.9 52.9 0 0 0-2.6.6l-5.1 1.3a134.1 134.1 0 0 0-16.3 5.4c-1.7.7-3.4 1.5-7 3.5-3 1.6-6.7 4.6-8.7 7.3-.6.8-1.5 2.4-1.9 3.6-.7 1.8-.8 2.4-1 6.9a69.9 69.9 0 0 0 0 4c3.7 1.8 7.6 4.3 11.5 7.7a165.2 165.2 0 0 0 9 7.2l.1.2 5.5.5c2.9.4 5.7 1.2 8.5 2 1.3.3 2.5.8 3.8 1.3 2-.3 3.9-.4 6-.2 2.4.6 5.2.4 7.2 1.9a49 49 0 0 1 11.7 11.5l.1.2c1.2 0 5.2.3 9.3.8a169.4 169.4 0 0 0 21.4 1.5 471.1 471.1 0 0 0 43.2-.7 308.3 308.3 0 0 0 19.6-1.9c2-.1 2-.3 1.5 2.7a72.1 72.1 0 0 0-.4 3.9c0 1-.3 2.6-.4 3.4l-.6 5.2A445.3 445.3 0 0 0 174 201v.7c.8-2.5 1.6-5 2.7-7.4l2.2-5a63.4 63.4 0 0 0 3-12.5 43 43 0 0 1 2.5-15c.7-1.3 1.3-2.8 2.2-4.2a27 27 0 0 1 12.6-10.3 52 52 0 0 1 10.1-3c2.4-.3 4.7-.8 7-1.3 1.9-.4 3.7-1.2 5.6-1.8 3.2-1 6.2-2.3 9.3-3.2 2.2-.8 4.4-1.5 6.4-2.4v-.1c0-.4-.1-.6-.3-.6-.5 0-.6.1.1-1.6.6-1.4.6-1.8.6-7.6v-6l-.9-2.2a19 19 0 0 0-7.7-8.5 18 18 0 0 0-2.7-1.8 148.8 148.8 0 0 1-3-1.6c-1-.6-2.2-1.1-5.8-2.6a100.2 100.2 0 0 0-11.8-4 117.6 117.6 0 0 0-14-3.3 205 205 0 0 0-16.8-2.6L167 92a117.3 117.3 0 0 0-15.9-1.2 417 417 0 0 0-23-.6zm-2 4.8a350.9 350.9 0 0 1 52.7 3.3 131.8 131.8 0 0 1 12.6 2.2 89.6 89.6 0 0 1 13.3 3.1l2.3.7 4.6 1.6c4.6 1.5 5.6 1.9 9.3 3.7 7.8 3.8 12 7.9 12.7 12 .1 1.2 0 1.6-.7 3-1.2 2.6-3.7 5-8 7.4-1.5 1-1.8 1-1.8-.1 0-1-1.7-4.1-3.1-5.5-3.2-3.1-7-5.5-12.5-7.8-2.5-1-7.5-2.7-9-3a125.4 125.4 0 0 1-3.3-1 118 118 0 0 0-4.2-1l-4.2-1c-2.7-.6-3.5-.8-13.4-2.3a263 263 0 0 0-22.1-2.3 330.7 330.7 0 0 0-73.7 3.5 59.5 59.5 0 0 1-3.2.6l-3.3.7a309.5 309.5 0 0 1-10.3 2.6 72.3 72.3 0 0 1-5.2 1.6 62.9 62.9 0 0 0-7.5 3 37.1 37.1 0 0 0-6.6 4.1 15.4 15.4 0 0 0-5.8 7.8l-.5 1.4a35 35 0 0 1-5.9-3.8 19 19 0 0 1-4.5-5.4c-1-2-.8-3.7.6-6a21 21 0 0 1 6.8-6.1 54.8 54.8 0 0 1 13.4-6.1l2.3-.8a128.9 128.9 0 0 1 19-4.8l4-.7A149.7 149.7 0 0 1 88.8 97a222.8 222.8 0 0 0 11.6-1l6.2-.6c2.6-.2 4.2-.3 19.7-.4zm9.8 74h-4.6a37.1 37.1 0 0 0-20.4 4 234.8 234.8 0 0 1-5.5 2.6 12.3 12.3 0 0 1-6.3 1.7c-3.2.1-3.5.3-3.5 1.5 0 1.1 2.2 3.4 4.3 4.3l.7.5-1.8 1.1c-1.5.8-2 1-3.8 1l-2.3.1c-.7.5-.3 1.7 1 3 1.3 1.4 2.2 2 3.9 2.2.6 0 1.1.2 1.1.2l-.6 1a28 28 0 0 0-2.5 5.7 219.8 219.8 0 0 1-3 8.1c0 .2.3.6.6 1l.6.4-.8 3c-2.1 7.6-2.2 7.9-1.5 8.4.3.3 1 .4 2 .4s2.2.2 4 .7c3 .9 3 .9 4.8 2.7l1.4 1.3-.9 1.3c-1.5 2.3-1.5 3.5.1 6l1.3 2 .8 1.5 1.9 3.2 1.4 2.4-.6.8c-.6 1.1-1.2 3-2.3 7.3-1.3 5-1.2 5.5 1.4 6.1 2.2.6 4.6.2 7-1.3.5-.3.6-.3.9.2a12 12 0 0 1 1.6 5.7c.2 2.6.3 3 1.9 4.8.8 1 1.2 1.7 1.3 2.6 0 .6.6 2.1 1.1 3.3l1.3 3.3c.5 1.5 1.5 3.8 2 4.3.4.5 1.4.5 1.8 0 .3-.3.4-.3.8 0l.7 1.1c.2.9 1.9 3.5 2.3 3.7.7.2 1.8.1 2.3-.3.3-.3 1-1.3 1.5-2.3 1.3-2.6 1.4-2.7 2-2.2.5.6 1.4.5 1.9 0 .5-.7 1.7-3.5 2-4.6 0-.5.5-1.7 1-2.7.5-1 1-2.4 1.2-3.3a6 6 0 0 1 1.4-2.9c1.6-1.9 1.7-2.2 1.8-4.8 0-1.3.3-2.7.5-3.1l.6-1.5c0-.3.3-.8.5-1.1.4-.5.4-.5 2 .3 2.8 1.4 6.2 1.4 7.8.1.6-.6.5-1.7-.5-5.8-1-4.2-1.5-5.6-2.3-6.8l-.5-.9 1-1.7a976.9 976.9 0 0 0 2.4-4.2l2.2-3.7c1-1.7 1.2-2.9.6-4.2-.4-1-.4-1 0-1.7 1.7-2.6 3.4-3.6 6.4-3.8l2.1-.2.6-1.3c.6-1 .7-2 1-5l.4-6c0-.1.2-.3.5-.4 1-.3 1.1-1 .8-2.7-.3-1.7-1.2-4.4-1.7-5.9l-1-2.8a103.3 103.3 0 0 0-7.9-15.1c0-.4-3.5-4-6.8-7-2.8-2.5-6-4.5-7.4-4.5a7 7 0 0 1-1.6-.2c-1.9-.6-4.4-.9-8.4-1zm0 3c4.1 0 5.4.2 8.4 1 1.4.3 2 .4 2.3.1.4-.2.7-.2 1.7.6a56 56 0 0 1 10.8 10.8l1 2c.4.5 1.5 2.8 2.6 5a448.6 448.6 0 0 0 2.3 4.6c.4.8 2 5.5 2.7 7.8.4 1.4.4 1.6 0 1.8-.8.4-1.2 1-1.2 1.6l-.7 9.5-.1 1.4h-1.6c-1.6 0-2.8.4-4.1 1.3-1.2.8-1.5 1-1.5.7a32 32 0 0 0 2.7-6.2c1.2-3.4 1-5.5-.8-12.4a35.2 35.2 0 0 0-4.5-9.8c-1.8-2.8-3-3.7-6.8-5.7-2.8-1.4-5-1.7-7.8-1-2.4.5-5.5 2-6.6 3.1-.8.8-2.5 3.1-3.1 4.1-.2.3-.4.3-1 0l-.6-.3v-3.8c0-4-.5-6.7-1.4-8.2-1-1.6-4.7-2.7-9.6-3-3.2 0-2.4-.2-9.5 2.5-1.8.6-2.4.7-3.8.6a7 7 0 0 1-2-.3c-.2-.2 1.5-1 3.4-1.7 1-.3 2.8-1.2 6.5-3 .6-.4 2.7-1.2 4.6-1.8l3.4-1.1 8.8-.1h5.4zm-51.5 5.3a31.5 31.5 0 0 1-.7 2.5c-.4 1.2-1 2.3-1.5 3.5l-.3.7 1 5 .7 3.7c.2.8.2 1.6.5 2.4a79.5 79.5 0 0 1 2.9 21.4l.1 8.8v1c0 .8.2 1.5.3 2.2.2 1.3-.1 1.5.2 1.2l1.6 6.5c.4 1.5 1 2.8 1.5 4.2l.8 2.7a14.2 14.2 0 0 1-.2-1.9c0-.9 0-2.2-.2-3a230.2 230.2 0 0 0-2.5-22.2l-.8-7.6a691.5 691.5 0 0 1-2.3-21l-.2-2.4-.4-3.8a71.3 71.3 0 0 1-.5-4zm30 8.7c4.2 0 7 1.7 10.7 6.3 2 2.5 2.7 3 3.9 2.6.3 0 .9 0 1.3.3.8.4.9.4 1.7 0 .5-.3 1.5-1.4 2.4-2.7 1.3-2 2-2.6 4-4 1.3-.6 5.3-1.4 6.7-1.2 1.9.3 5.6 2.3 6.8 3.7a39 39 0 0 1 6.3 12.9l.1 1-.6-.5c-1.4-1.3-2.5-1.5-4.4-.8l-2.4.5a13 13 0 0 0-3.9 1.2l-3.1 1.3c-1.4.5-3.3 1.5-4 2-1.5 1-2 1-2.8 0a4 4 0 0 0-1.6-.6c-1.4-.4-1.6-.6-2-2.1-.2-1.3-.8-2.2-1.5-2.2-1 0-1.3.7-1.2 2.1.4 2.5.7 3.2 2 4 .7.5 1.6.9 2.1 1 .9.1 1.3.5 1 .8l-1.6-.4a16 16 0 0 0-7.9 0c-1.2.6-1.5.6-1.4.2 0-.2.4-.4.8-.5a8.9 8.9 0 0 0 3.5-2c.2-.3.5-1.4.7-2.4.4-2.1.1-2.8-1-2.8-.7 0-1.3.9-1.6 2.2-.3 1.4-.5 1.7-1.8 2a6 6 0 0 0-2 1l-1 .7-1.4-.9a15 15 0 0 0-2.3-1.3l-3.2-1.4c-3-1.3-4-1.6-6-2-.8 0-1.9-.3-2.3-.5a3.7 3.7 0 0 0-3.3.2c-.5.3-.9.5-.9.3a35.8 35.8 0 0 1 4.9-12l2.3-3.8c1-2 1.6-2.2 4-2.2zm112 1h-.5l-.3 1.6.4.2a45 45 0 0 0 .3-1.8zM142 197a7 7 0 0 0-2.5.5c-4 1.3-6.4 3.3-5.2 4.4.3.4 1.1.4 1.4 0 .2-.3 2.9-1.6 4.8-2.3 2.2-.8 2.5-1 2.4-1.8 0-.5-.3-.8-.9-.8zm-24.7 1c-1.3 0-1.9.3-1.9 1 0 .8.6 1.1 2.4 1.4 2.1.3 4.3 1 5.8 2 1.3.7 1.9.8 2.3.3 1-.9 0-1.9-2.5-3-2.2-1-4.5-1.7-6.1-1.7zm37.4 8.2c.6 0 .8.2 1.4.6.8.7 1.9 1 2.4.4.4-.4.6 1.7.3 2.6l-.3 1.6c0 .6-.2 1.7-.5 2.5l-.5 1.5h-.3c-.5 0-1.5-.7-3.8-2.7a10.2 10.2 0 0 0-5.6-2.7l-2.4-.3-1.3-.1 1-.5c2-1 6.6-2.5 8.8-2.8a8 8 0 0 1 .8 0zm-48.2 0 .8.1c1.7.3 7.2 2 8.4 2.8l.8.5-.8.1-2.4.3c-2.2.3-3.8 1-5.8 2.7a45.6 45.6 0 0 1-3.7 2.8c-.5 0-1.2-2.7-1.5-5.3-.2-2.5 0-2.9 1-2.7.5 0 1-.1 1.6-.6.6-.5 1-.6 1.6-.6zm13.2 6 .9.1-1 2.4a40.7 40.7 0 0 0-2.4 5.7c-.1 0-1.5.2-3.2.2-2.4 0-3 0-3-.3 0-.5 1.3-4 2.3-6 .6-1 1-1.6 1.5-1.8.6-.2 3.4-.4 4.9-.3zm23 .2c5.4 0 6.6.4 8.9 2.6l1.7 1.6-1.4 1.6c-.7.9-1.3 1.8-1.3 2 0 .2-.4.3-1.8.3H146c-.6.1-1.3.1-1.6 0-2.4-.5-3.4-1-4.2-1.7-.9-.8-1-1-1.4-3.4-.3-1.4-.4-2.7-.3-2.8.1 0 2-.2 4.2-.2zm-12.3 2.6c1.2 0 2.4.5 3.7 1.4 1 .7 1.8 1.2 2 1.2.3 0 .6.4.7 1 .2.7.8 1.4 1.6 2.2 1.6 1.5 3.7 2.2 8 2.6 3.8.4 5.3.1 5.8-1 .6-1 2.3-3.4 2.9-3.9.6-.5 1.2-.3 1 .4-1.5 3.4-1.8 5.2-1 6 .2.2.7 1 1 1.8l.7 1.5-1.3 1.8c-.6 1-1.3 2-1.4 2.5a2 2 0 0 1-.6.8l-1.3 2.1-1.2 2-1-.6c-1.2-.9-5-2.7-6.6-3-1.3-.4-1.3-.5-1.1-1.3.2-.9.2-.8.1-1.6 0-1.1-2.9-3.8-4-3.8-.5 0-1.3.7-1.3 1 0 .2.6 1 1.3 1.8a9 9 0 0 1 1.4 1.6c0 .3-2.8 3.1-3.7 3.7-1 .6-4.8 2-5.6 2a20 20 0 0 1-5.7-2.1 15 15 0 0 1-3.6-3.7l1.1-1.3c1.4-1.3 1.7-1.8 1.3-2.5-.5-1-2-.5-4 1.5-1 1-1.1 1.3-1.1 2.2 0 .5 0 1.2.2 1.5.2.5 0 .6-1.2.9a28 28 0 0 0-7.5 3.7l-1.2-1.9a69 69 0 0 0-3.4-5.5l-1.2-1.8.6-1.5c.3-.8.8-1.6 1.1-1.9.5-.4.5-.7.4-1.8l-.8-3c-.5-1-.6-1.6-.4-1.8.4-.3 1.4.8 3 3.4 1.3 1.9 1.7 2 4.1 2a32 32 0 0 0 8.1-1.3 7.7 7.7 0 0 0 3.9-3.6c.2-.6.6-1.1.8-1.1.2 0 1-.5 1.9-1.2 1.2-1 2.3-1.4 3.5-1.4zm-3.4 3.7c-.3 0-.6.2-.7.5-.4.6-.2 9.9.2 12 .1.7.4 1.4.7 1.6.7.5.8.5 1.5-.2.5-.5.5-.7.3-3l-.3-6.4c-.2-3.3-.3-3.9-.7-4.2-.4-.3-.7-.4-1-.3zm6.7 0c-.4 0-.8.4-1 1-.2.5-.4 2.4-.5 4.2l-.3 5.9c-.2 2.4-.1 2.5.5 3l.8.4c.5 0 1.3-1.1 1.3-2l.1-1.9.2-5.4c0-3.6 0-4.4-.4-4.8-.2-.3-.4-.4-.7-.4zm6.4 17.3.8.2 1.3.3c.3-.1 1.3.2 2.4.8l2.2 1c.4 0 2 1.5 2.9 2.7 1.7 2.6 2 3.2 2.7 6.3 1 3.6 1 4.3.4 4.5l-.4.1-2.2-.7a9.9 9.9 0 0 1-5-3.7c-1.8-3-7.7-6-10.7-5.7-1.3.2-3 1-3.3 1.4-.4.5-.7.3-.7-.4l-.4-1.7-.3-1h1c2 0 6.5-1.8 8-3.3.8-.6 1-.8 1.3-.8zm-14.2 8.6c.5 0 1.5.3 2.3.7 1.7.8 3 .8 4.6 0a5 5 0 0 1 2.4-.7c1.7 0 5.5 2 6.4 3.2l1.3 1.9.8 1.2-.7 1.6c-.8 2.2-1.4 4.6-1.4 6.1 0 1-.6 2.4-.9 2.1a47.4 47.4 0 0 1-1-1.5 50.4 50.4 0 0 0-5.2-6.5l.9-.7c1-.6 1.2-1.5.6-2.1-.4-.4-1-.4-2 .1-.7.3-1.8.5-3.3.6-1.9 0-2.5 0-3.6-.5-1.6-.7-2.2-.5-2.4.6 0 .6.1.8.9 1.3l1 .6-.9 1-2.2 2.6c-.8 1-1.9 2.3-2.3 3.1a5 5 0 0 1-1 1.4c-.4 0-.8-1-.8-2 0-1.5-.7-4.3-1.4-6.2l-.7-1.6.8-1.2a78.2 78.2 0 0 0 1.3-1.9c.9-1.3 4.8-3.2 6.5-3.2zm43.3.1c0 1-.2 1.9-.3 2.8-.5 4-.5 4.5-.1 6 .2 1 .6 2 .9 2.4.5.6 1 .6 3.7 0l1.9-.2-1.2-1a16.5 16.5 0 0 1-4.9-10zm-77 3.4a32 32 0 0 1-1.3 8.6c.8 0 .9-.4 1.2-1.2.5-1.1.6-1.6.5-3.5l-.4-4zm39.2 5.5c.2 0 .8.5 1.2 1.3a24.7 24.7 0 0 1 6 8.3c.5 2.9.5 3-.6 5.2l-1.7 3.8c-.6 1.4-.7 1.5-1.3 1.3-1-.2-2 .5-3 2.2l-.8 1.4-.5-2.4c-.6-3.4-1-13.9-.5-17 .4-3 .8-4.1 1.2-4.1z"/><path fill="#62768d" d="M125.8 90.2a220.8 220.8 0 0 0-19.4.6 289.6 289.6 0 0 0-59 9.6 79 79 0 0 0-19.5 9.2c-1 .5-3.8 3.2-4.9 4.6a16 16 0 0 0-2.6 5 56.6 56.6 0 0 0 .4 18.1 20 20 0 0 0 2.3 3l.5 1 .3 1.9a80.7 80.7 0 0 1 25.8 4.7c5 1.9 10.2 3.4 15.3 5.2 2 .7 4 1.5 6 2 1.6.4 2.9.5 4.5.7l2.4.4c5.5.6 11.1.8 16.7.8s11.1 0 16.7-.2a81.9 81.9 0 0 0 21.4-3.2c2.8-.5 4.2-.8 7-1 3.8 0 7.5.3 11.1.9 4.5.8 8.8 1.9 13.1 3.2 3.8 1.1 7.5 2.3 11.3 3.3l2.3.4 2-.2a32.3 32.3 0 0 1 4.2-2.5l3.1-1.4c3.7-1.5 7.4-2.6 11.1-4 3.5-1.2 7-2.6 10.5-4.1 4.7-2.3 9.5-4.2 14.5-6a78 78 0 0 1 14-3.7c.3-.6.5-1.1.6-1.8.3-1.2.3-1.5-.1-1.7-.4-.3-.4-.5 0-1.7.7-1.7 1-5 .6-10.5-.2-4-.6-5.6-2-7.7a29.6 29.6 0 0 0-9.2-7.8 309.2 309.2 0 0 1-3-1.6 98 98 0 0 0-12.4-5l-5.1-1.7c-3-.9-6-1.6-10-2.4a106.3 106.3 0 0 1-3.8-.8 56.4 56.4 0 0 0-7.4-1.3 91.3 91.3 0 0 0-13-1.8 142.7 142.7 0 0 0-19.3-1.8c-7.8-.5-18.3-.7-27-.7zm2.8 4.6a549.4 549.4 0 0 1 26.2.9 231.8 231.8 0 0 1 29.8 3.5 147.7 147.7 0 0 1 6.5 1.1 132.6 132.6 0 0 1 25.7 7.3 79 79 0 0 1 9.5 4.9c2 1 5.5 4.4 6.5 6.3.4.8.8 2 .9 2.9.1 1.2 0 1.7-.5 3a19.4 19.4 0 0 1-8.2 7.5c-1.7 1-1.8 1-1.8.4 0-.8-.9-3-1.7-4a22.2 22.2 0 0 0-5.8-5.5 50 50 0 0 0-11.2-5.4 102.2 102.2 0 0 0-17.3-4.8c-1-.3-2.7-.7-3.7-.8a226 226 0 0 1-8.7-1.4 75.9 75.9 0 0 0-4.8-.7 223.1 223.1 0 0 1-4.2-.6 352.6 352.6 0 0 0-55.2-1.4 213.4 213.4 0 0 0-32 3.6 278.3 278.3 0 0 1-7.7 1.5l-4.6 1.1a76.3 76.3 0 0 0-16.9 5.6l-1.4.5-2.9 1.7a20 20 0 0 0-8.3 8c-.5 1-1 2.1-1 2.5 0 1-.5 1-2.7-.4-4.2-2.6-6-4.3-8-7.3-1-1.6-1-1.7-.8-3.5.2-2.7 1.5-4.5 5-7.4 3.8-3 9.7-5.9 17.3-8.3l3.4-1.2 3.3-1 4.1-1a104.6 104.6 0 0 1 12.7-2.7 42.5 42.5 0 0 1 7.6-1.4l3.6-.5a53.5 53.5 0 0 0 3.2-.5l1.6-.2c.1.1 1.8 0 3.8-.2 6.8-.7 9.4-1 11.3-1a72 72 0 0 0 4.1-.5 392 392 0 0 1 23.3-.6z"/><path fill="#5e728b" d="M125.8 90.2a225.2 225.2 0 0 0-19.4.6 283 283 0 0 0-28.9 3 50.1 50.1 0 0 1-3.3.4 38.4 38.4 0 0 0-6.4 1.2 219.9 219.9 0 0 0-25.2 6.8l-1 .4c-1.1 0-10.8 4.7-12.8 6.3-5.1 4-7.2 6.5-8.3 10.2a55.3 55.3 0 0 0-.2 15.4c0 1.4.6 3 1.8 4.6l1.5 2.2c3 .2 6 .9 9 1.7a156 156 0 0 0 15.2 3.8c5.5 1.4 11 3 16.5 4.6a122.9 122.9 0 0 0 28.8 4.7H106a1254.8 1254.8 0 0 0 23.4-.3 341 341 0 0 1 10.8 0 887.5 887.5 0 0 0 17.5-.4l9.3-.7c4-.3 7.8-.4 11.8-.3h11c2.7-2 5.8-3.4 9.2-4.1 1.3-.4 2.7-.5 4-.7a44 44 0 0 1 8.4 0c2.4-1.9 5-3.5 7.5-5 2.2-1.2 4.3-2.4 6.4-3.4.7-.3 1.3-.7 2-.9l5.7-1.6h3.7c.5-.8.8-1.6 1-2.4 0-.9 0-1.2-.3-1.4-.4-.2-.4-.3 0-1.6.7-1.7 1-5 .6-10.5-.2-4-.6-5.6-2-7.7a28.8 28.8 0 0 0-9-7.7l-2.2-1.2a99 99 0 0 0-19.6-7.4c-3.2-1-6.6-1.8-9.5-2.3a59.1 59.1 0 0 1-3.2-.7 55.1 55.1 0 0 0-7.4-1.3 88.7 88.7 0 0 0-13-1.8 104.3 104.3 0 0 0-12.5-1.4l-6.8-.4c-7.7-.4-18.2-.7-27-.7zm-.5 4.6a434.4 434.4 0 0 1 31.5 1 230.5 230.5 0 0 1 31 3.9 451.5 451.5 0 0 0 9 1.8 107.3 107.3 0 0 0 5.1 1.2 103.9 103.9 0 0 0 5 1.5 280.8 280.8 0 0 0 9.5 3.2 77 77 0 0 1 9.4 4.7c3.2 2 6.1 4.8 7.1 6.8a8.7 8.7 0 0 1 .8 3c0 1.5 0 1.9-.6 3-.4.8-1.4 2-2.1 2.9a33.8 33.8 0 0 1-6.7 4.8c-1 .5-1.7.5-1.5.1 0-.1-.1-.2-.4-.2-.5 0-.6 0-.3-.3.4-.2.4-.2 0-.4-.6-.2-1.4.4-1.5 1 0 .5 0 .5.6.4 1-.3 1 .2-.1.8l-1 .6v-.6c0-2.8-3-6.3-7.4-8.8a73.8 73.8 0 0 0-13-5.6 48.5 48.5 0 0 1-2.4-.8 56.2 56.2 0 0 0-8.6-2.2 27 27 0 0 0-2.5-.5 105.6 105.6 0 0 1-3-.6c-2.2-.5-5.6-1-10.1-1.7-5-.7-4.7-.7-10.9-1.3a207 207 0 0 0-11.4-1.2c.2-.2-9.5-.4-21.8-.4a297.3 297.3 0 0 0-59.2 5.8l-4.6 1.2c-8.9 2.3-15 4.8-20.4 8.3-3.6 2.4-5.5 4.9-5.6 7.5v1.2l-.4-.3c-.2-.1-.3-.3-.2-.5.3-.5-.3-1-.9-.9-.3 0-.4.2-.4.4.1 0-.3.1-.8 0-1-.1-3.8-1.6-6-3a23.7 23.7 0 0 1-5.5-6c-.8-1.4-.8-1.6-.7-3.3.1-1.4.3-2 1-3.3a33 33 0 0 1 15.2-10.3l8-2.9a230.5 230.5 0 0 1 25.3-6 158 158 0 0 0 3.7-.5 84.7 84.7 0 0 1 3.7-.5 12 12 0 0 0 2.3-.4l2.8-.3c1.4 0 3-.2 3.6-.4.6-.1 1.1-.2 1.3 0l7.2-.8a63.4 63.4 0 0 1 4.1-.3 441 441 0 0 1 22.8-.8zm3 12.8-.5.5c-.4.3-.5.3-.7 0-.1-.3-.6-.4-1.8-.4h-1.7v.8c.1 2 0 2 3 2 1.7 0 3-.2 3-.3 0-.1 0-.2.2 0 .1 0 .3 0 .3-.2 0-.4.6-.3 1 .1.3.3.4.3 1.2 0 .9-.4 1-.3 1.4 0 .3.3.5.4.6.2.2-.3 1.3-.3 1.3 0l.6.2c.3 0 .4-.1.3-.2 0-.2.1-.2.6 0h1c.1-.2.4-.2.6-.1.3.1.4 0 .2-.2 0-.2 0-.2.4 0 .3.3.6.5.8.4.2-.1.3 0 .3.2s0 .2.2 0c.1-.2.3-.3.4-.2.3.5 2.6.4 3-.1.3-.3.3-.4.3 0 0 .1.1.2.2.1.1 0 .4 0 .6.2.3.3.4.2.2-.2-.1-.4-.1-.4.5 0 .5.5 1 .6 2 .6 1.2 0 1.3 0 1.4-1 .3-1.6 0-1.9-1.6-1.8-1.2 0-1.6.1-2 .6-.2.3-.4.4-.4.2l.3-.6c.2-.3.2-.3-.5-.1l-1-.1c-.2-.3-4.1-.3-4.6 0h-.3a.3.3 0 0 0-.3-.3c-.2 0-.2.1-.1.3.1.2 0 .2-.2 0-.3-.2-.8-.3-1.1-.3-.4.1-.7 0-.8 0-.1-.4-1.2 0-1.2.4 0 .2-.2.4-.3.4-.2 0-.2 0-.2.3 0 .4-.7.8-1.2.6-.3 0-.5-.4-.5-.7 0-.3-.3-.7-.9-1-.8-.4-1-.4-1.2 0-.4.4-1.7.9-1.4.5 0-.1-.2-.3-.6-.5l-.8-.3zm-20.4 1c-.2 0-.5.1-.5.6l-.4 1c-.2.2 0 .4.5.7l1.3.4c.7 0 .7-.7 0-2-.2-.5-.6-.8-.9-.8zm24.7 0h.1c.2 0 .3.3.3.5s-.1.4-.3.5c-.1 0-.3-.1-.3-.5l.2-.6zm-29.5 0-.8.2c-.3 0-.5.4-.6.6 0 .4 0 .4-.3 0-.2-.3-.7-.5-1-.5-.7 0-.8.1-.8 1l.2 1.5c0 .2.4.3.8.2l2.7-.2c2.2 0 2.8-.2 2.6-.6v-.3c.6 0 .4-.7-.2-1.1-.6-.4-.6-.4-.1-.3.4.1.4 0 .2-.1-.3-.2-1.7-.4-2.7-.3zm27.3.2h.1v.6c-.1 0-.2 0-.1-.4v-.2zm26.2 0c-.4 0-.7.2-1 .5-.3.5-.2 1.4.3 1.9.4.4.7.5 1.6.2.3 0 .5-.3.5-.4-.1-.1 0-.2.3-.2s.8-.2 1.1-.5c.6-.4.6-.5.2-.7-.2 0-.5 0-.7.3-.4.4-1.2.5-1 0 .2 0 0-.4-.2-.7-.3-.3-.7-.4-1-.4zm5.9.7c-.7.1-1 1.6-.2 2.4.4.5.7.6.5.2-.1-.1 0-.3.2-.5.5-.4.5-1.5 0-1.9l-.5-.2zm-69.7.1c-.1.3-.3.5-.5.5-.1 0-.2.1-.1.3 0 .1 0 .1-.2 0-.5-.5-1.8 0-2 .7-.1.3 0 .8.1 1.2l.4.6c.4 0 2-.9 2.1-1.1.2-.7.4-2 .2-2.2zm72.1.2c-.9 0-.9 0-.9 1.1 0 1 .1 1 1 1.4.8.2 1.2.3 1.6 0 .4-.2.6-.2.8 0 .2.2.7.2 1.1.1.5 0 .7 0 .6.2-.2.4.8.6 1.8.4.5-.1.7 0 .6.1-.1.2 0 .3.2.3s.5-.1.6-.3h.5c.2.3.5.3.6.2l-.1-.1c-.2 0-.2-.6-.2-1.3v-1h-.5a5 5 0 0 0-1.3-.6c-.9-.2-1.1-.2-1.5.2-.7.7-2.1.7-2.7 0l-.5-.4c0 .1-.2 0-.4 0-.2-.3-.8-.4-1.3-.3zm-80.3 1c-.6 0-1 .2-1.1.4-.3.3-.2.4.6.4.5 0 1.3 0 1.6.2.6.2.7.2.7-.2 0-.2.2 0 .4.4.5 1.1.5 1.1.6.1 0-1 0-1-2-1.2a11.4 11.4 0 0 0-.8 0zm3.8.2c-.5 0-.7.2-.7.6 0 .3 0 .5.2.5l.6-.5.6-.6zm63.4 0a1 1 0 0 0-.4.1c-.2.1 0 .2.4.2.3 0 .5 0 .3-.2a1 1 0 0 0-.3 0zm23.6.2c-1 0-1 0-1.1 1-.1 1.1.4 1.5 2 1.6.6 0 1.2.2 1.4.3.2.1.3 0 .2 0-.1-.3 0-.3.3-.2.3 0 .5.2.4.4-.1.1 0 .2 0 .1l.8.1c.7.3 2 .3 2 0 0-.2-.7-1.1-1-1-.4 0-.6-.2-.7-.9-.2-.6-.3-.8-1-.8-.4 0-.7 0-.7-.2.2-.2-.9-.3-2.6-.4zm9.3 1.5c-1 0-1.2 0-1.2.6 0 .5.2.8.6.9.3.1.7.2.9.1l1-.2c1.5-.3.4-1.5-1.3-1.4zm-105.3.8c-.2 0-.3 0-.4.2v.6c.6.3.8.2.8-.2 0-.3-.2-.6-.4-.6zM66 116.1c-.2 0-.3 0-.3.2v.3l.4-.3-.1-.2zm.7 0a.3.3 0 0 0-.2.2.3.3 0 0 0 .5 0 .3.3 0 0 0-.3-.2zm.8 0c-.2 0-.2 0-.1.2 0 .2.3.2.4.2h.3c0 .4.2.4.7.1.4-.2.4-.3 0-.3l-1-.1a2.3 2.3 0 0 0-.3-.1zm-9 .2c-.3 0-.6.2-1 .6-.3.2-.6.4-.7.3-.1-.1-.1 0 0 .1a.5.5 0 0 0 .5.2c.6-.2.8 1.5.3 2-.5.3-.5.3 0 .3 1 0 1.1-.4 1.2-2 .1-1 0-1.5-.4-1.5zm144.7 1.2a.3.3 0 0 0-.2 0c-.4.2 0 1 .4 1 .2 0 .3 0 .3.2v.3c.3 0 .3.1.2.3-.2.3-.1.3.2 0 .5-.4.9 0 .6.5-.2.3-.1.3.2 0 .7-.5.4-1.4-.9-2l-.8-.3zm-151.8 1.8a1.8 1.8 0 0 0-.4.1c-.5.2-.6 1.6 0 2.1.5.6.6.5.7-1 0-1 0-1.2-.3-1.2zm158.3.8c-.2 0-.3.1-.5.4-.2.2-.3.3-.2.1 0-.2 0-.3-.1-.2-.2.1-.3.4-.2.6.2.3.1.4-.2.2-.2-.1-.3 0-.1.3.1.4 0 .4-.7.3-1.3-.3-.6.3 1.7 1.4 2.6 1.2 2.3 1.1 2.3.8 0-.1-.2-.3-.4-.3-.4 0-.4 0-.1-.2.2-.2.3-.3.1-.3l.1-.2c.2-.1.4-.6.4-1.1 0-.8 0-1-1-1.4l-1.1-.4zm-160.7.2a2 2 0 0 0-1.5.7c-.3.3-.6.8-.6 1 0 .2 0 .2-.3 0-.1-.4-.2-.3-.4.1v.8c.1.2 0 .3-.1.3s-.4-.1-.4-.4c-.1-.2-.4-.3-.7-.2-.4.1-.5.3-.5 1 0 .4.2 1 .3 1.1.1.2.5.2.9.2.5-.1.6-.3.6-.7 0-.5 0-.6 1-.5.5 0 1 0 1-.2s0-.3.2-.3c.8.1 1.3 0 1.2-.2-.1-.1 0-.3.4-.4.5-.1.5-.7 0-1.7-.2-.4-.7-.6-1.1-.6zm164.1 3.5v.5c0 .4.2.8.5 1 .3.2.5.2.4 0-.1-.1 0-.2.2-.2.3 0 .3.1.2.5 0 .4 0 .5.3.5s.5-.1.5-.4c0-.2 0-.4.2-.5.2-.1.2 0 0 .5-.1.5-.1.7.2 1 .3.2.4.2.4-.2 0-.3.1-.2.4.4.3.8.8 1.2.5.4l.1-.4c.2 0 .3.2.3.4 0 .7.1.8.4 1.2.3.6.5-.1.1-.8-.2-.4-.2-.6.3-.9l.6-.4-.6-.2c-.4-.2-.5-.3-.3-.4l.3-.5c0-.1-.1-.2-.3-.1a.9.9 0 0 1-.6-.4c-.4-.6-1.5-.9-1.8-.5 0 .2-.6.3-1.1.4-.8.1-1 .1-1-.5l-.2-.4zm-166 .2c-.3 0-.5.1-.5.3 0 .1.2.2.4 0l.4-.2H47zm171.4 1.6.1.4.4.4v-.4c-.1-.2-.3-.4-.5-.4zm-177.8 0c-.3 0-.5.2-.7.5-.4.9-.3 1.3.6 1.7.8.4.9.4 1.7-.3 1-.7 1.1-1.2.5-1.5-.2 0-.4 0-.4.2l-.7-.2c-.4-.3-.7-.4-1-.4zM219 127l-.5.4c-.4.5-.4.5.1.1.3-.2.6-.4.5-.5h-.1zm-179.3.8c-.1 0-.5.2-.8.6-.5.6-.5 1.5 0 2.3.1.2.3.3.4.3.3 0 1.6-2 1.6-2.3 0-.3-.5-.5-1.1-.4-.2 0-.2 0 0-.2v-.3zm180 .4c-.1 0-.4.2-.6.5-.7.6-.7.7-.4 1.1.4.4.4.4.5-.4 0-.4.2-.8.3-.8s.3-.1.3-.3zm1.1 1c-1 0-1.8 1.2-1.3 2.2.4.6.8.2.7-.9 0-1.2.7-1.5 1-.5.1.5.3.7.5.6.7-.3 0-1.5-.9-1.5zm-182 .5.3.3.1.6s-.2 0-.3-.3v-.6zm141.5 107.7-2.3.2.3.6c.4 1 .6 2 .9 3.1.9-1.2 1.8-2.5 2.9-3.7a9.7 9.7 0 0 0-1.8-.2z"/><path fill="#e62229" d="M125.8 90.2a225.2 225.2 0 0 0-19.4.6 283 283 0 0 0-28.9 3 50.1 50.1 0 0 1-3.3.4 38.4 38.4 0 0 0-6.4 1.2l-1.4.3 1 .2c2.6.8 5.1 1.6 7.6 2.8l2.4-.4c.8 0 2.2-.3 3-.4a34 34 0 0 0 3.2-.5c1-.2 2.4-.3 3.4-.3s2.3-.2 2.9-.3c.5-.2 1.1-.3 1.2-.2.3.1 3.6-.2 7.2-.7a57.9 57.9 0 0 1 4.1-.3l8.2-.4a520.7 520.7 0 0 1 39.7.1l6.5.5a377 377 0 0 1 17.3 1.7A350.8 350.8 0 0 1 189 100l2.4-.5 4.3-.9 1.2-.5.7-.3-.4.2.2-.1 1.4-.7a73.3 73.3 0 0 0-3-.6 59.1 59.1 0 0 1-3.2-.7 55.1 55.1 0 0 0-7.4-1.3 88.7 88.7 0 0 0-13-1.8 104.3 104.3 0 0 0-12.5-1.4l-6.8-.4c-7.7-.4-18.2-.7-27-.7zm112.3 35-.5.5a61.5 61.5 0 0 1-10.6 7.5l-1.6.8-5.3 2.7a76.6 76.6 0 0 1-6 2.8l.3-.1-1.4.7a46 46 0 0 1-6.6 2.2c-1.7.4-3.5.5-5.2 1-2.2.5-4.3 1-6.5 1.3a63.3 63.3 0 0 1-11 .7l-1.1.2-1.3.2c-.8 0-1.5.2-2.3.3h-.9l-3.3.7a45 45 0 0 1-10.3 1l-1 .1-.4.1-.8.1a47.6 47.6 0 0 1-13.3.9l-4.2-.3H140a27 27 0 0 1-10.6 2.9c-1.5.1-3 0-4.4-.1l-4.8-.4-6.4-.7c-1-.2-2.2-.2-3.3-.3a84 84 0 0 1-5-.3c-2.7-.3-5.3-.9-7.9-1.5H97c-2.2-.1-4.4-.4-6.6-.7a38 38 0 0 0-3-.2c-2.4 0-4.8-.3-7.3-.7-1.6-.2-3.3-.7-5-1l-5-1.2-5.6-1.5-1.1-.4h-.1a50.1 50.1 0 0 1-9.1-2.2l-3.5-1c-.7 0-1.8-.4-2.3-.7a9 9 0 0 0-2-.7c-.5 0-1.2-.3-1.7-.5l-1.2-.3-2.7-.4c-3.1-.4-6.1-1.2-9-2.2a85.7 85.7 0 0 1-12-5.3l.2 2.6.3 2.7c0 1.4.6 3 1.8 4.6l1.5 2.2a151.3 151.3 0 0 1 2.5 14.4l.5 2.9c.3 1 1.4 7 1.9 10.4a423.8 423.8 0 0 0 2.9 17 38.6 38.6 0 0 0 1 5.9l.7 3.7.7 4a737.6 737.6 0 0 0 5.6 33.3l.8 4.7a88.2 88.2 0 0 0 1.7 9.6l1.2 7.2 3.7-1.4v-.1l-.8-3.5-.5-3.3-.2-.7 1.4.8a34 34 0 0 0 6.9 3.2 76.2 76.2 0 0 1 6 2l2.2.5 7.3 1.8c3.9.9 14.3 2.4 20.8 3l1.7.2.6-1.3c.3-.6.6-1.7.6-2.2a105.7 105.7 0 0 0-1.4-12.5c0-1 0-2-.2-2.6-.2-.5-.4-2.6-.6-4.6-.2-3.2-1-9.5-1.4-12.8l-.5-5-.8-7.5a554.7 554.7 0 0 1-2.3-21 12.4 12.4 0 0 1-.2-2.4l-.4-3.8a86.9 86.9 0 0 1-.6-4.8 62 62 0 0 0-.5-4.5 48 48 0 0 1-.5-4 70 70 0 0 0-.6-6.5c.2-.2 4.9.2 9.7.8a137.8 137.8 0 0 0 16.1 1.2 468.9 468.9 0 0 0 48.5-.4 254.8 254.8 0 0 0 20.7-2c.8.1.8.3.4 3a54.1 54.1 0 0 0-.4 3.7c0 1-.3 3-.5 4.3a71 71 0 0 0-.5 4.4 129.5 129.5 0 0 1-.6 5l-.3 3.3a7 7 0 0 1-.2 2l-.5 3.7a319.1 319.1 0 0 1-1 10.6 400.4 400.4 0 0 1-.9 7.5l-.6 6-1.3 11.5a206.6 206.6 0 0 0-.8 7.7 53.4 53.4 0 0 1-.8 7.1l-.4 3.9c-.5 2.6-.9 6.4-.8 7.3.2 1.6.7 3.5 1.1 4 .4.4.7.4 2 .3a392.2 392.2 0 0 1 9.4-1.4 477 477 0 0 1 9.7-1.8 75.3 75.3 0 0 1 5.9-1.6l1.9-.5 1.4-.4 3.6-1.2c2.6-.8 3.7-1.3 7.3-3.2 1.6-1 1.7-1 1.6-.5l-1.2 6.6-.3 1.6a23.4 23.4 0 0 1 3.7.3c.5-2.2 1-5.8 1.3-7.7a200.5 200.5 0 0 1 2.2-12.2 125.1 125.1 0 0 0 2.5-14.8l.4-2a101.6 101.6 0 0 1 2-11 38.7 38.7 0 0 1 .4-2.8 78.6 78.6 0 0 0 1.2-7.5 373.4 373.4 0 0 0 2-11 44.5 44.5 0 0 1 1-6 261.2 261.2 0 0 1 1.8-11 203 203 0 0 1 2.5-13.4 238 238 0 0 1 1.7-10.6c.3-1.8.6-2.3 1.6-3.6 1.4-1.7 2-2.9 2.3-4.3.2-.9.1-1.2-.2-1.4-.4-.2-.4-.3 0-1.6.6-1.4.9-4 .7-8.1zM132 169c-4.2 0-8.6 0-10 .3a38.2 38.2 0 0 0-11.6 4l-5.5 2.5c-2.5 1.1-3 1.2-5.5 1.3-3 .2-3.7.5-3.7 1.6 0 1 2.4 3.6 4.2 4.3l.8.5c0 .1-.7.6-1.7 1.1-1.4.8-1.9 1-3.8 1-1.1 0-2.2 0-2.4.2-.2 0-.3.5-.3.9 0 .5.4 1 1.5 2.2 1.4 1.3 1.8 1.5 3.2 1.8 1 .2 1.6.4 1.6.5l-.6 1a188.8 188.8 0 0 0-5.4 13.7l.5.8.6.6-.6 2.2a161.9 161.9 0 0 0-1 3.7 46.5 46.5 0 0 1-.7 2.7c-.9 2.5-.4 3.3 1.9 3.2 1.4-.1 5.5.9 6.8 1.6.4.1 1.3 1 2.1 1.7 1.3 1.3 1.5 1.5 1.1 1.8-.8 1-1.7 3-1.7 3.7 0 .4.4 1.4.8 2.3l4.8 8.3 1 1.7-.5.9c-1 1.6-3.3 10-3.2 11.6.1 1.3 1.6 1.9 4.4 1.9 1.9 0 2.3-.2 3.6-1 .9-.4 1.7-.7 1.9-.6.2 0 .7 1 1 2.2.7 1.6.9 2.5 1 4.1 0 2.3 0 2.6 1.9 4.7.5.7 1 1.5 1 1.8 0 .6 1.2 4.1 1.8 5l.7 2c.5 1.8 1.7 4.4 2.3 4.8.4.2.6.2 2-.6.2 0 .8 1 1.4 2.2a9.6 9.6 0 0 0 1.7 2.7c.7.5 1.8.4 2.5-.1.3-.3 1-1.4 1.6-2.6l1.2-2.2.8.3c1.3 1 2 0 3.7-4.6a90.2 90.2 0 0 1 1.6-4c.5-1.2.9-2.5.9-2.8 0-.4.5-1.2 1-1.9 1.8-2.1 2-2.4 2-4.7 0-1.6.2-2.5.8-4.1.4-1.2 1-2.2 1.1-2.3.2 0 .8.2 1.3.5 2 1.2 5 1.6 6.8 1 1.4-.4 1.8-1 1.8-2 0-1.6-2-9-2.9-10.7l-.8-1.6.7-1.2c.4-.7.8-1.4 1-1.5a71.6 71.6 0 0 0 4.2-7.4c.8-1.5 1-2.4.3-3.7-.4-1-.4-1 .3-2 1.8-2.6 2.9-3.2 6-3.4l2.2-.2.6-1.2c.5-1 .7-2 1-5.2l.2-5c0-.7.2-1 .8-1.3 1-.5 1-1 .6-3-.9-4-2.7-8.7-5.5-14.4-4.3-8.7-5.3-10-11.7-16-3.3-3-5.7-4.3-8.6-4.8l-3.5-.6a75 75 0 0 0-9.4-.2zm3.6 2.7c3.7 0 4.5.1 6.9.6 1.8.4 3.7.6 4.1.5 1-.2 1.8.4 5.7 4 5 4.7 6 5.7 8.6 10.7a70.3 70.3 0 0 1 6.9 16.2l.4 1.6-.8.7c-.8.7-.8.9-.8 2.8a75 75 0 0 1-.7 8.4c-.2 1-.2 1-.8.9-1.1-.3-3.4.3-4.8 1.3-1.8 1.2-2 1.2-2 1 0-.2.2-.4.3-.4l1.3-3.2a146 146 0 0 1 1.5-3.8c.3-.6.4-1.8.4-3.3 0-2-.2-3.2-1-6.3a34.2 34.2 0 0 0-5.1-11.8c-1.7-2.6-2.5-3.3-6.2-5.3-3.6-2-6.4-2-10.6-.4a11 11 0 0 0-5.4 4 56.3 56.3 0 0 1-1.5 2c-.5.7-.5.7-3.4 0-.2 0-1-1-1.8-2.1a17 17 0 0 0-5.7-5 72.5 72.5 0 0 1-2.1-1.1c-1.6-.8-4.1-1-7-.7-2.4.3-4.3 1-5.7 2.1-1.3 1-4.4 2.6-5.5 2.8h-1.3c-.4-.3 0-.6 2.9-2 1.6-.9 3.6-2.4 3.6-2.8.1-1.3-.4-2-1.7-2l-2.1-.4c-1.4-.5-1.4-.6-.6-.7l3-1c1.1-.6 2.3-1 2.7-1.2.4 0 2.4-1 4.5-2.1a33.5 33.5 0 0 1 19-4h4.8zm-21.2 14.1c3.6-.1 7.5 2 10 5.3 2.5 3.4 2.8 3.6 4.2 3.7.8 0 1.8.2 2.3.3 1 .1 1.2 0 1.8-.6l2-2.6c1.6-2.3 3.5-3.6 6.8-4.4 2.9-.7 3.8-.6 7 1 2.8 1.3 3.6 2.1 5.4 5 1.9 3 4.5 9.3 4.5 10.7 0 .5 0 .5-.8-.1-1.1-1-2.4-1.1-4-.6l-2.5.5a60.7 60.7 0 0 0-11.3 4.6c-1.3 1-1.6 1-2.2.3a6 6 0 0 0-2-1 19 19 0 0 1-1.5-.4l-.5-1.6c-.5-1.8-.7-2.3-1.5-2.3-1.1 0-1.4.7-1 2.6.5 2.5.7 3 2.5 3.8l2 .9c.6.1.7.7.3.7l-1.4-.4a18.2 18.2 0 0 0-9.2.4c-.4 0-.3-.6.2-.7 1.4-.5 3.2-1.4 3.7-2 .7-.7 1.3-4 .9-4.7-.4-.6-1.4-.7-1.8-.2-.2.2-.5 1-.7 1.9l-.5 1.6-1.6.5c-.8.2-1.6.6-2 1-.6.7-.8.6-2.2-.4a15 15 0 0 0-2.8-1.5l-2.6-1a25.4 25.4 0 0 0-5.8-2 18.5 18.5 0 0 1-2.6-.6c-1.5-.5-2.7-.3-3.7.4l-.7.4 1-3.3a31.1 31.1 0 0 1 4.7-10.2c.5-1.1 2.8-4.3 3.3-4.6a6 6 0 0 1 2.3-.4zm-7.4 2.8-.7 1.2-1.5 2.7c-2 3.4-2.7 5.5-4 10.9-.8 3.3-1 4.2-1 7 0 3.5.2 4.2 1 5.7l.6 1.5c.2.7 0 .7-1 .2a7 7 0 0 0-2-.5 11 11 0 0 1-2.2-.6c-.5-.2-1-.4-1.4-.4-.2 0-.5 0-.5-.2l1.1-4 1.5-5.4c.3-1.7.3-1.9-.1-2.6-.4-.7-.4-.8 0-2l1.5-4c1-3 2.5-5.6 3.5-6.6l3-1.7zm35 8.5a16 16 0 0 0-7.4 3.3c-.6.5-.6.7-.3 1.3.3.8.6.8 2.2-.2 1.5-1 2-1.1 4.4-2 1.9-.6 2.4-1.1 2-1.9a1 1 0 0 0-1-.5zm-24.6 1c-1.2 0-1.9.3-1.9 1 0 .8.5 1 2.4 1.3a18 18 0 0 1 5.9 2c1.2.8 1.8.9 2.2.4.9-.8 0-2-2.4-3a17.4 17.4 0 0 0-6.2-1.7zm37.8 8 1 .8c1 .8 1.4.9 2.2.5.4-.3.5-.2.6.7.2 1-.4 4.5-1 6.3-.2.5-.5 1-.8 1.1-.2 0-1.6-1-3.1-2.1a16.7 16.7 0 0 0-4.1-2.7c-1-.3-4.8-1-5.9-1l1.3-.7c2-.9 5.8-2.1 8-2.6zm-48.8.2.9.1a32 32 0 0 1 8.3 2.6l1.4.7-1 .1-2.2.3c-2.4.3-3.9 1-6 2.7L105 215c-1 .6-1.4.7-1.5.2-.8-2.1-1-3-1.1-5.3l-.2-2.5 1 .1c.8.2 1 0 1.7-.5.6-.6.8-.7 1.5-.7zm35.9 6c2.2 0 4.8.3 6.4.7 1 .3 1.9.9 3 2 1 .7 1.7 1.5 1.7 1.7 0 .2-.6 1-1.2 1.7-.7.8-1.3 1.6-1.3 1.9-.2.4-.5.4-3.2.4-3.6 0-6.2-.5-7.5-1.6-1-.8-1-1-1.4-3.3l-.5-3c0-.4 1.8-.6 4-.5zm-24.1 0c1.3 0 3 0 3.5.2l1 .2-.1 1.4c-.6 4.3-.8 4.7-2.7 5.4l-1.7.7c-.7.3-2 .5-4.2.5l-3.2.1-.4-.7a16 16 0 0 0-1.5-2c-.6-.7-1-1.4-1-1.5 0-.3 1.8-2 2.9-2.5 1.8-1.1 4.7-1.8 7.4-1.8zm12.4 2.9c1.7 0 1.9 0 3.6 1.2l2.1 1.3c.2 0 .5.4.7 1 .5 1.6 2.4 3.2 4.6 4 1 .3 2.2.5 2.8.5l2.6.3c1 .2 2.3.2 3.1.1 1.5-.2 1.3 0 4.2-4 1-1.3 1.5-1.7 1.8-1.2 0 .1-.2 1.2-.7 2.4-.8 2.6-1 3.5-.3 4 .5.5 1.7 2.8 1.7 3.4 0 .2-.3.8-.7 1.3l-1.5 2.3c-2.4 4-3.4 5.7-3.6 5.7l-.8-.5a33 33 0 0 0-6.6-3c-1.6-.6-1.9-.8-1.4-1.1.2-.1.3-.7.3-1.4 0-1-.2-1.3-1-2.2-1.8-2-4-2.6-4-1.1 0 .5.4 1.1 1.3 2l1.4 1.4-1.7 1.7c-2 2-2.9 2.6-5.4 3.4-2.4.7-2.8.7-5 0-2.5-.8-3.6-1.5-5.4-3.4l-1.6-1.7 1.3-1.4c1-.9 1.3-1.5 1.3-2 0-1.5-2.2-1-4 1-.8 1-1 1.4-1 2.2l.2 1.6c.3.4 0 .5-1.4.9a27.8 27.8 0 0 0-7.3 3.6c-.2 0-1.2-1.6-3.6-5.7l-1.5-2.3c-.4-.5-.7-1-.7-1.3a7 7 0 0 1 1.6-3.2c.7-.7.7-1.5-.3-4.2a10 10 0 0 1-.6-2.4c.4-.6 1.3.3 3.4 3.5l1 1.4c1 .7 6.8.3 10.1-.7 1.5-.4 2.1-.8 3.2-1.9.9-.8 1.4-1.6 1.5-2.2.1-.4.3-.8.5-.8s1.2-.6 2.2-1.3c1.7-1.2 1.9-1.2 3.6-1.2zm-3.3 3.6c-.2 0-.5 0-.7.3a56 56 0 0 0 .3 13.5c.2.2.6.4 1 .4 1.4 0 1.4 0 .9-8.7-.2-3.7-.4-4.6-.7-5-.3-.4-.6-.5-.8-.5zm6.3 0c-.5.1-.9 1-1 2.7a43 43 0 0 0-.4 11c.4.7 1.7.7 2.1 0 .2-.4.4-3 .5-6.9l.1-6.3-.6-.3a1 1 0 0 0-.7-.2zm6.6 17.2 1.2.2c2 .4 5.7 2 7 3.1l1.8 2.4 1.2 1.9c.2.2.4.9.6 1.5l1 3.8c.5 2.2.6 2.8.3 3-.5.3-1 .2-2.9-.5a10 10 0 0 1-5.8-4.4c-.7-1.5-3.7-3.4-7-4.5-2.4-.8-4-.6-6 .8l-1 .6-.6-.5c-2.1-2-5.8-1.8-10 .6-2.5 1.4-3 1.9-3.6 3.1-1 2-2.7 3.2-5.7 4.2-2 .6-2.9.6-2.9.2l.8-3.1.8-3.2c0-.8 2.7-5 3.7-5.8a29 29 0 0 1 6.6-3c1.5-.5 1.5-.5 2.2.2 2.7 2.4 8 4 11 3s4.8-1.8 6.2-3.1c.4-.3.6-.5.9-.5h.2zm-14.3 8.7c.6 0 1.8.3 2.5.6 1.8.9 2.7.9 4.3 0 1.9-1 3.3-.9 5.7.3 1 .5 2.3 1.2 2.7 1.7 1.2 1.2 2.8 3.5 2.6 4l-1 2.6c-.4 1.3-.8 3.2-.9 4.3a8 8 0 0 1-.5 2.4c-.3.4-.5.3-1.8-1.6-2-2.6-3.4-4.5-4.3-5.4-.8-.8-.8-1.1.2-1.5.9-.4 1.3-1.4.7-2-.3-.5-.7-.5-2.9.4a7 7 0 0 1-5.7-.2c-2-.8-2.6-.6-2.6.5 0 .4.3.8.9 1.1 1 .6 1 1 .3 1.5a49.8 49.8 0 0 0-6 7.7c-.3 0-.6-1.2-.7-3-.1-1.2-.6-3-1.1-4.6l-1-2.6.8-1 1.3-1.8a11 11 0 0 1 6.5-3.4zm5.6 8.8c.6 0 .8.3 1.3 1.2.5.6 1 1.4 1.3 1.6.6.4 2 2.4 3.6 4.8a7.5 7.5 0 0 1 1.3 3.6c.1 1.7 0 1.9-.8 3.6a50.3 50.3 0 0 0-1.7 3.8c-.7 1.8-.7 1.9-1.4 1.7-1.1-.2-1.8.4-3.2 2.7l-1.3 2s-.6-.8-1-1.7c-1.2-2.1-2.4-3.3-3.5-3.3-.5 0-.8-.1-.8-.4 0-.4-1-2.9-2-4.7-.5-1-.6-1.6-.6-3.4 0-2 0-2.2 1-3.7 1.5-2.4 2.4-3.6 3.8-5.2l1.6-2c.1-.5.5-.6 1.6-.6a9 9 0 0 1 .8 0z"/><path fill="#595e64" d="m182 162.5-3.7 1v.5a54.1 54.1 0 0 0-.5 3.7c0 1-.3 3-.5 4.3a71 71 0 0 0-.5 4.4 129.5 129.5 0 0 1-.6 5 19 19 0 0 0-.3 3.3 7 7 0 0 1-.2 2 300.8 300.8 0 0 1-1.6 14.2 400.4 400.4 0 0 1-.8 7.6l-.6 6-1.3 11.5a206.6 206.6 0 0 0-.8 7.7 53.3 53.3 0 0 1-.8 7.1l-.4 3.9c-.5 2.6-.9 6.4-.8 7.3.2 1.6.7 3.5 1.1 4 .4.4.7.4 2 .3a368.7 368.7 0 0 1 7.4-1 21.1 21.1 0 0 1-.7-1.1 51.9 51.9 0 0 1-1.4-2.3c-1.7.4-3.5.7-4 .7-1 0-1-.2-.5-3.8l.4-3.9.4-3.8.1-.5a29.9 29.9 0 0 1 0-3.3c0-2 .2-3.8.5-5.7v-1l.2-1.7v-.6 1a47.4 47.4 0 0 0 .1 4.2l1-9.2a54 54 0 0 1-.4-10 262.5 262.5 0 0 1 1-14.3c.2-2.2.3-4.4.7-6.5.4-2.8 1-5.5 1.6-8.1.6-2.4 1.3-4.8 1.7-7.3.3-1.8.4-3.7.6-5.6.2-2.4.6-4.8 1.2-7.1l.4-3zm-39.8 6.8c-3.7.2-7.4.3-11.2.3h-11a52.4 52.4 0 0 0-9.6 3.7l-5.5 2.5c-2.5 1.1-3 1.2-5.5 1.3-3 .2-3.7.5-3.7 1.6 0 1 2.4 3.6 4.2 4.3l.8.5c0 .1-.7.6-1.7 1.1-1.4.8-1.9 1-3.8 1-1.1 0-2.2 0-2.4.2-.2 0-.3.5-.3.9 0 .5.4 1.1 1.5 2.2 1.4 1.3 1.8 1.5 3.2 1.8 1 .2 1.6.4 1.6.5l-.6 1a188.8 188.8 0 0 0-5.4 13.7l.5.8.6.6-.6 2.2a161.9 161.9 0 0 0-1 3.7 47 47 0 0 1-.6 2.2l.2 3.5 1.6.2c1.4-.1 5.5.9 6.8 1.6.3.1 1.3 1 2.1 1.7 1.3 1.3 1.5 1.5 1.1 1.9-.8 1-1.7 2.9-1.7 3.6 0 .4.4 1.4.8 2.3l4.8 8.3 1 1.7-.5.9c-1 1.6-3.3 10-3.2 11.6.1 1.3 1.6 1.9 4.4 1.9 1.9 0 2.3-.2 3.6-1 .9-.4 1.7-.7 1.9-.6.2 0 .7 1 1 2.2.7 1.6.9 2.5 1 4.1 0 2.3 0 2.6 1.9 4.7.5.7 1 1.5 1 1.8 0 .6 1.2 4.1 1.8 5l.7 2c.5 1.8 1.7 4.4 2.3 4.8.4.2.6.2 2-.6.2 0 .8 1 1.4 2.2a9.6 9.6 0 0 0 1.7 2.7c.7.5 1.8.4 2.5-.1.3-.3 1-1.4 1.6-2.6l1.2-2.2.8.3c1.3 1 2 0 3.7-4.6a90.2 90.2 0 0 1 1.6-4c.5-1.2.9-2.5.9-2.8 0-.4.5-1.2 1-1.9 1.8-2.1 2-2.4 2-4.7 0-1.6.2-2.5.8-4.1.4-1.2 1-2.2 1.1-2.3.2 0 .8.2 1.3.5 2 1.2 5 1.6 6.8 1 1.4-.4 1.8-1 1.8-2 0-1.6-2-9-2.9-10.7l-.8-1.6.7-1.2c.4-.7.8-1.4 1-1.5a71.6 71.6 0 0 0 4.2-7.4c.8-1.5 1-2.4.3-3.7-.4-1-.4-1 .3-2 1.8-2.6 2.9-3.2 6-3.4l2.2-.2.6-1.2c.5-1 .7-2 1-5.2l.2-5c0-.7.2-1 .8-1.3 1-.5 1-1 .6-3-.9-4-2.7-8.7-5.5-14.4-4.3-8.7-5.3-10-11.7-16-3.3-3-5.7-4.3-8.6-4.8l-2.7-.5zm-6.6 2.4c3.7 0 4.5.1 6.9.6 1.8.4 3.7.6 4.1.5 1-.1 1.8.4 5.7 4 5 4.7 6 5.7 8.6 10.7a70.3 70.3 0 0 1 6.9 16.2l.4 1.6-.8.7c-.8.7-.8.9-.8 2.8a75 75 0 0 1-.7 8.4c-.2 1-.2 1-.8.9-1.1-.3-3.4.3-4.8 1.3-1.8 1.2-2 1.2-2 1 0-.2.2-.4.3-.4l1.3-3.2a146 146 0 0 1 1.5-3.8c.3-.6.4-1.8.4-3.3 0-2-.2-3.2-1-6.3a34.2 34.2 0 0 0-5.1-11.8c-1.7-2.6-2.5-3.3-6.2-5.3-3.6-2-6.4-2-10.6-.4a11 11 0 0 0-5.4 4 56.3 56.3 0 0 1-1.5 2c-.5.7-.5.7-3.4 0-.2 0-1-1-1.8-2.1a17 17 0 0 0-5.7-5 72.5 72.5 0 0 1-2.1-1.1c-1.6-.8-4.1-1-7-.7-2.4.3-4.3 1-5.7 2.1-1.3 1-4.4 2.6-5.5 2.8h-1.3c-.4-.3 0-.6 2.9-2 1.6-.9 3.6-2.4 3.6-2.8.1-1.3-.4-2-1.7-2l-2.1-.4c-1.4-.5-1.4-.5-.6-.7l3-1c1.1-.6 2.3-1 2.7-1.2.4 0 2.4-1 4.5-2.1a33.5 33.5 0 0 1 19-4h4.8zm-21.2 14.1c3.6-.1 7.5 2 10 5.3 2.5 3.4 2.8 3.6 4.2 3.7.8 0 1.8.2 2.3.3 1 .1 1.2 0 1.8-.6l2-2.6c1.6-2.3 3.5-3.6 6.8-4.4 2.9-.7 3.8-.6 7 1 2.8 1.3 3.6 2.1 5.4 5 1.9 3 4.5 9.3 4.5 10.7 0 .5 0 .5-.8-.1-1.1-1-2.4-1.1-4-.6l-2.5.5a60.7 60.7 0 0 0-11.3 4.6c-1.3 1-1.6 1-2.2.3a6 6 0 0 0-2-1 19 19 0 0 1-1.5-.4l-.5-1.6c-.5-1.8-.7-2.3-1.5-2.3-1.1 0-1.4.7-1 2.6.5 2.5.7 3 2.5 3.8l2 .9c.6.1.7.7.3.7l-1.4-.4a18.2 18.2 0 0 0-9.2.4c-.4 0-.3-.6.2-.7 1.4-.5 3.2-1.4 3.7-2 .7-.7 1.3-4 .9-4.7-.4-.6-1.4-.7-1.8-.2-.2.2-.5 1-.7 1.9l-.5 1.6-1.6.5c-.8.2-1.6.6-2 1-.6.7-.8.6-2.2-.4a15 15 0 0 0-2.8-1.5l-2.6-1a25.4 25.4 0 0 0-5.8-2 18.5 18.5 0 0 1-2.6-.6c-1.5-.5-2.7-.3-3.7.4l-.7.5 1-3.4a31.1 31.1 0 0 1 4.7-10.2c.5-1.1 2.8-4.3 3.3-4.6a6 6 0 0 1 2.3-.4zm-7.4 2.8-.7 1.2-1.5 2.7c-2 3.4-2.7 5.5-4 10.9-.8 3.3-1 4.2-1 7 0 3.5.2 4.3 1 5.7l.6 1.5c.2.7 0 .7-1 .2a7 7 0 0 0-2-.5 11 11 0 0 1-2.2-.6c-.5-.2-1-.4-1.4-.4-.2 0-.5 0-.5-.2l1.1-4 1.5-5.4c.3-1.7.3-1.9-.1-2.6-.4-.7-.4-.8 0-2l1.5-4c1-3 2.5-5.6 3.5-6.6l3-1.7zm35 8.5a16 16 0 0 0-7.4 3.3c-.6.5-.6.7-.3 1.3.3.8.6.8 2.2-.2 1.5-1 2-1.1 4.4-2 1.9-.6 2.4-1.1 2-1.9a1 1 0 0 0-1-.5zm-24.6 1c-1.2 0-1.9.3-1.9 1 0 .8.5 1 2.4 1.3a18 18 0 0 1 5.9 2c1.2.8 1.8.9 2.2.4.9-.8 0-2-2.4-3a17.4 17.4 0 0 0-6.2-1.7zm37.8 8 1 .8c1 .8 1.4.9 2.2.5.4-.3.5-.2.6.7.2 1-.4 4.5-1 6.3-.2.5-.5 1-.8 1.1-.2 0-1.6-1-3.1-2.1a16.7 16.7 0 0 0-4.1-2.7c-1-.3-4.8-1-5.9-1l1.3-.7c2-.9 5.8-2.1 8-2.6zm-48.8.2.9.1a32 32 0 0 1 8.3 2.6l1.4.7-1 .1-2.2.3c-2.4.3-3.9 1-6 2.7L105 215c-1 .6-1.4.7-1.5.2-.8-2.1-1-3-1.1-5.3l-.2-2.5 1 .1c.8.2 1 0 1.7-.5.6-.6.8-.7 1.5-.7zm35.9 6c2.2 0 4.8.3 6.4.7 1 .3 1.9.9 3 2 1 .7 1.6 1.5 1.6 1.7 0 .2-.5 1-1.1 1.7-.7.8-1.3 1.6-1.3 1.9-.2.4-.5.4-3.2.4-3.6 0-6.2-.5-7.5-1.6-1-.8-1-1-1.4-3.3l-.5-3c0-.4 1.8-.6 4-.5zm-24.1 0c1.3 0 3 0 3.5.2l1 .2-.1 1.4c-.6 4.3-.8 4.7-2.7 5.4l-1.7.7c-.7.3-2 .5-4.2.5l-3.2.1-.4-.7a16 16 0 0 0-1.5-2c-.6-.7-1-1.4-1-1.5 0-.3 1.8-2 2.9-2.5 1.8-1.1 4.7-1.8 7.4-1.8zm12.4 2.9c1.7 0 1.9 0 3.6 1.2l2.1 1.3c.2 0 .5.4.7 1 .5 1.6 2.4 3.2 4.6 4 1 .3 2.2.5 2.8.5l2.6.3c1 .2 2.3.2 3.1.1 1.5-.2 1.3 0 4.2-4 1-1.3 1.5-1.7 1.8-1.2 0 .1-.2 1.2-.7 2.4-.8 2.6-1 3.5-.3 4 .5.5 1.7 2.8 1.7 3.4 0 .2-.3.8-.7 1.3l-1.5 2.3c-2.4 4-3.5 5.7-3.6 5.7l-.8-.5a33 33 0 0 0-6.6-3c-1.6-.6-1.9-.8-1.4-1.1.2-.1.3-.7.3-1.4 0-1-.2-1.3-1-2.2-1.8-2-4-2.6-4-1.1 0 .5.4 1.1 1.3 2l1.4 1.4-1.7 1.7c-2 2-2.9 2.6-5.4 3.4-2.4.7-2.8.7-5 0-2.5-.8-3.6-1.5-5.4-3.4l-1.6-1.7 1.3-1.4c1-.9 1.3-1.5 1.3-2 0-1.5-2.2-1-4 1.1-.8.9-1 1.3-1 2.1l.2 1.6c.2.4 0 .5-1.4.9a27.8 27.8 0 0 0-7.3 3.6c-.2 0-1.2-1.6-3.6-5.7l-1.5-2.3c-.4-.5-.7-1-.7-1.3a7 7 0 0 1 1.6-3.2c.7-.7.7-1.5-.3-4.2a10 10 0 0 1-.6-2.4c.4-.6 1.3.3 3.4 3.5l1 1.4c1 .7 6.8.3 10.1-.7 1.5-.4 2.1-.8 3.2-1.9.9-.8 1.4-1.6 1.5-2.2.1-.4.3-.8.5-.8s1.2-.6 2.2-1.3c1.7-1.2 1.9-1.2 3.6-1.2zm-3.3 3.6c-.2 0-.5 0-.7.3a56 56 0 0 0 .3 13.5c.2.2.6.4 1 .4 1.4 0 1.4 0 .9-8.7-.2-3.7-.4-4.6-.7-5-.3-.4-.6-.5-.8-.5zm6.3 0c-.5.1-.9 1-1 2.7a43 43 0 0 0-.4 11c.4.7 1.7.7 2.1 0 .2-.4.4-3 .5-6.9l.1-6.3-.6-.3a1 1 0 0 0-.7-.2zm6.6 17.2 1.2.2c2 .4 5.7 2 7 3.1l1.8 2.4 1.2 2c.2.1.4.8.6 1.4l1 3.8c.5 2.2.6 2.8.3 3-.5.3-1 .2-2.9-.5a10 10 0 0 1-5.8-4.4c-.7-1.5-3.7-3.4-7-4.5-2.4-.8-4-.6-6 .8l-1 .6-.6-.5c-2.1-2-5.8-1.8-10 .6-2.5 1.4-3 1.9-3.6 3.1-1 2-2.8 3.2-5.7 4.2-2 .6-2.9.6-2.9.2l.8-3.1.8-3.2c0-.8 2.7-5 3.7-5.8a29 29 0 0 1 6.6-3c1.5-.5 1.5-.5 2.2.2 2.7 2.4 8 4 11 3s4.8-1.8 6.2-3.1c.4-.3.6-.5.9-.5h.2zm-14.3 8.7c.6 0 1.8.3 2.5.6 1.8.9 2.7.9 4.3 0 1.9-1 3.3-.9 5.7.3 1 .5 2.3 1.2 2.7 1.7 1.2 1.2 2.8 3.5 2.6 4l-1 2.6c-.4 1.3-.8 3.2-.9 4.3a8 8 0 0 1-.5 2.4c-.3.4-.5.3-1.8-1.6-2-2.6-3.4-4.5-4.3-5.4-.8-.8-.8-1.1.2-1.5.9-.4 1.3-1.4.7-2-.3-.5-.7-.5-2.9.4a7 7 0 0 1-5.7-.2c-2-.8-2.6-.6-2.6.5 0 .4.3.8.9 1.1 1 .6 1 1 .3 1.5a61.8 61.8 0 0 0-6 7.7c-.3 0-.6-1.2-.7-3-.1-1.2-.6-3-1.1-4.6l-1-2.6.8-1 1.3-1.8a11 11 0 0 1 6.5-3.4zm5.6 8.8c.6 0 .8.3 1.3 1.2.5.6 1 1.4 1.3 1.6.6.4 2 2.4 3.6 4.8a7.5 7.5 0 0 1 1.3 3.6c.1 1.7 0 1.9-.8 3.6a50.3 50.3 0 0 0-1.7 3.8c-.7 1.8-.7 1.9-1.4 1.7-1.1-.2-1.8.4-3.2 2.7l-1.3 2s-.6-.8-1-1.7c-1.2-2.1-2.4-3.3-3.5-3.3-.5 0-.8-.1-.8-.4 0-.4-1-2.9-2-4.7-.5-1-.6-1.6-.6-3.4 0-2 0-2.2 1-3.7 1.5-2.4 2.4-3.6 3.8-5.2l1.6-2c.1-.5.5-.6 1.6-.6a9 9 0 0 1 .8 0z"/><path fill="#020202" d="m119 315.5-13.4-.7a188.3 188.3 0 0 1-30.4-5.2 83 83 0 0 1-12-3.9 36.8 36.8 0 0 1-11-7.6c-1.6-2-2.2-3.5-2.6-6.2 0-.9-.4-3-.7-4.8a448.3 448.3 0 0 1-.9-5l-.5-2.8a25.6 25.6 0 0 1-.4-2.2l-1.4-8a111.5 111.5 0 0 1-.6-3.5l-1.4-8.6a475 475 0 0 1-1.7-10l-1.4-7.1-.6-4a215.2 215.2 0 0 0-1-6.6l-1.2-6.2a1120.4 1120.4 0 0 0-2.5-14.7 212.4 212.4 0 0 1-2.5-14.5 394.7 394.7 0 0 1-1.3-7.8 62.7 62.7 0 0 0-1.2-6.3l-1.3-8.2a47.3 47.3 0 0 1-.5-3l-1.8-9.7a83.8 83.8 0 0 1-1.4-8.8l-.8-4.3c-.7-4.1-1-5-2.1-6.5-1.4-1.7-1.9-2.8-1.9-4.1a78.8 78.8 0 0 1-.3-14.8c.8-4.2 3.3-7.5 8.6-11.3l2.5-1.6 1.5-.9 2.7-1.4 4-1.7a71.5 71.5 0 0 1 12-4.1c.6-.3 3.6-1 5.6-1.4l1.9-.6 3.2-.8 4.1-.8c3.3-.7 7.4-1.5 9.2-1.7a860.8 860.8 0 0 0 8-1 273.5 273.5 0 0 1 16.5-1.8 31.6 31.6 0 0 0 2.7-.2l4.7-.3 8-.4a681 681 0 0 1 29.6.1 267.1 267.1 0 0 1 29.8 2.6c1 0 2 0 2.4.2A56.2 56.2 0 0 1 188 95l3.8.7 3.9.8a78.6 78.6 0 0 1 10.7 2.7l2.6.7a91.2 91.2 0 0 1 17.8 7.4c4.7 2.5 9 6.8 10.3 10 1 2.5 1 3 1 8.8 0 4.7 0 5.4-.5 6.9-.5 1.4-.5 1.8-.3 2.3.7 1.2-.2 3.4-2.2 5.6-.8 1-1.4 2.7-1.7 5.2a47 47 0 0 1-.7 3.6 35.3 35.3 0 0 0-.5 3.5l-.7 4.3a99.8 99.8 0 0 0-1 5 33 33 0 0 1-.6 3.4c-.1.4-.3 1.2-.2 1.7l-.4 2.7a152 152 0 0 0-1.9 10.6l-.8 4.4-1 6.2a1200.6 1200.6 0 0 0-7.7 44.8 141.7 141.7 0 0 1-1 5.5 120.9 120.9 0 0 0-.7 4.2 149.8 149.8 0 0 1-2.2 12.6l-.5 3.4-.5 2.6a141.8 141.8 0 0 1-1.9 10.9 37 37 0 0 1-1 5.8 436.6 436.6 0 0 1-.8 4.9l-.8 5.2a13 13 0 0 1-2.1 6 18 18 0 0 1-6 5.3l-2.2 1.4-2.2 1-3.1 1.4a45.5 45.5 0 0 1-7.6 2.6 65.5 65.5 0 0 1-9.5 2.2 49 49 0 0 1-3.3.7 63 63 0 0 0-2.4.4 115 115 0 0 1-9.9 1.4c-8.4 1.4-30.6 2.3-41.1 1.7zm23.1-3.8a168.4 168.4 0 0 0 25.4-2.5 96.4 96.4 0 0 0 3.2-.5 90.4 90.4 0 0 0 17.4-4.5c1.4-.4 2.8-1 3.2-1a44 44 0 0 0 8.5-4.5c2-1.4 3.6-3 4-4 .2-.3.5-1.3.6-2.2a138 138 0 0 1 1.5-8.3 207.3 207.3 0 0 1 1.7-10 81.7 81.7 0 0 0 1.7-10.2 984.3 984.3 0 0 0 3.2-18.7l-2.8 1.4a35.8 35.8 0 0 1-7.5 3.2l-2.2.7-1.5.4a74.7 74.7 0 0 1-27 5.1h-1.6l-.5-1c-.5-.9-.6-1.5-.5-4.2 0-1.7.2-4.5.4-6.2l1.4-12.2a356.3 356.3 0 0 0 2.7-24.9 273 273 0 0 0 1.6-15.2 76.8 76.8 0 0 1 1-7.8l.2-3.2a751.6 751.6 0 0 0 1.5-11.9c.7-6 .8-8.2.6-8.5-.3-.2-.8-.2-2 0a235.4 235.4 0 0 1-29.2 2.6 474.5 474.5 0 0 1-49.4-1c-1.5 0-5-.3-10.1-1l-3.4-.3h-1.6l.2 1.4a185.5 185.5 0 0 1 1 8.5l.5 4.3a216.8 216.8 0 0 0 1 9.1c-.2.2 0 1.1.1 2.2.3 1 .6 3.4.7 5.3a192.4 192.4 0 0 0 1 9.2 267.5 267.5 0 0 0 1.6 14.7 356.2 356.2 0 0 0 1.8 16.2l1.3 12.6c1.1 7.4 1.2 9.1.4 10.8-.6 1.4-.3 1.4-5 .8a162.6 162.6 0 0 1-31.9-6.4 33.8 33.8 0 0 1-7.2-3.1 12 12 0 0 0-2.6-1.3l.1 1.6a158 158 0 0 1 1.5 8.4c.1 1.3.7 4.7 1.6 9.4a211.6 211.6 0 0 1 1.9 10.8l.4 2.3a102 102 0 0 1 1.5 8.6 40 40 0 0 0 1.6 7.6 16 16 0 0 0 4.4 4.8 81.3 81.3 0 0 0 31.8 10.1c.4.2 1.1.3 1.6.3l3.4.4c2.5.4 5.3.7 11 1.2a134 134 0 0 0 16.5 1 107.3 107.3 0 0 0 19.2-.3zm-12.4-29.6c-.5-.2-2.1-2.8-2.4-3.9-.3-1.1-.8-1.4-1.7-1-.4.3-.9.4-1.2.3-.5 0-1.8-2.7-2.3-4.6l-.9-2.3c-.7-1.4-1.7-4.4-1.7-5.1 0-.3-.5-1.1-1.2-1.9-1.6-1.9-1.7-2.2-1.7-4.6 0-1.6-.2-2.4-.8-3.9-.9-2.2-1.3-2.6-2.3-1.9a7 7 0 0 1-4.2 1.3c-2.3 0-4-.5-4.4-1.3-.4-1 1.5-9 2.8-11.7l.7-1.4-.6-1a34 34 0 0 0-1.3-2.3c-.4-.5-.9-1.4-1.1-2l-1.2-2-1.5-2.5c-1.2-2-1-3 1-6.1.3-.4.1-.6-1.1-1.8l-2-1.7a24 24 0 0 0-7-1.7c-1.8 0-2.5-.5-2.3-1.6 0-.6.8-3.5 2-7.8l.6-2.2-.6-.7-.6-.8.8-2.1 1.4-3.9a601.7 601.7 0 0 0 1.6-4l1.6-3.6c.9-1.3.7-1.6-.7-1.6-1 0-2.2-.7-3.6-2.1-1.3-1.2-1.5-1.9-1-2.6 0-.2 1-.4 2.4-.4a8 8 0 0 0 3-.5 841.7 841.7 0 0 1 1.7-1c1-.5 1-.7-.3-1.2-1.3-.6-4-3.4-4-4.2 0-1.2.8-1.4 4-1.6 3.1 0 3.2-.1 10.8-3.7a37 37 0 0 1 21.3-4.5 45.2 45.2 0 0 1 14 1.1c1.7 0 4.6 1.9 7.9 4.9l3.2 2.8c.3 0 3.2 3.5 3.8 4.5a122.5 122.5 0 0 1 8.3 17c1 2.9 1.7 4.9 1.8 6.5.2 1.5.2 1.6-.6 2.1-.9.6-.9.7-1.3 8.5 0 1.8-.6 3.4-1.3 4.1-.3.3-1 .4-2.4.4-2.5 0-3.6.6-5.2 2.6-1.4 1.8-1.5 2.1-.9 3.3.6 1 .3 2.3-.9 4.2-1.3 2-5.3 9-5.3 9.3l.5 1c.7.9 1.2 2.4 2.3 6.9 1.3 5.3 1.3 5.4-1 6.2-1.6.6-4.5.2-6.5-1-.8-.4-1.5-.6-1.6-.5-.2.1-.6 1-1 2.2a8.7 8.7 0 0 0-.9 4c0 2.3-.1 2.7-1.7 4.5-.8 1-1.2 1.8-1.5 3.2-.3 1-.8 2.5-1.2 3.3-.5.8-1 2.2-1.3 3-.6 2.2-1.6 4.1-2.2 4.5-.5.2-.7.2-1.2-.1l-.8-.5-1.2 2.2c-1.5 2.8-2.2 3.4-3.8 3zm2-4.8c1.2-2.4 2.4-3.6 3.2-3.4l.8.2c.1 0 .7-1.1 1.3-2.6l1.6-3.7c.5-.8.5-1.3.4-3a6.7 6.7 0 0 0-1.3-3.9 28.4 28.4 0 0 0-3.8-5.1l-1.5-2c-.2-.5-.5-.6-1.8-.6-1.5 0-1.5 0-2 1a15 15 0 0 1-1.9 2.4c-.8.9-2 2.6-2.8 4l-1.5 2.2v2.2c0 1.8.1 2.4.8 3.7a47.3 47.3 0 0 1 1.5 3.4c.6 1.8.7 1.9 1.4 1.8 1-.2 1.8.5 3.2 3l1.3 2.2 1-1.8zm-10.1-18 2.4-3.2 2-2.4.9-1.2-1-.5c-.7-.4-.9-.6-.8-1.2.1-1 .7-1 2.3-.3 1.8.7 4.4.7 6.5-.1 1.6-.7 2.1-.7 2.4 0 .2.6-.1 1-1.1 1.7l-1 .5 1 1 4.6 6 1.2 1.7.5-.7a4 4 0 0 0 .5-2.2c0-1.6.4-3.2 1.4-5.8l.6-1.8-1.1-1.5-1.2-1.7c0-.3-2.3-1.7-3.7-2.4-2-1-3.2-1-5.2 0l-2.2.8a9 9 0 0 1-2.3-.8c-2-1-2.8-1-5.2 0a9.4 9.4 0 0 0-4.3 3.3c-1.6 2.3-1.6 2.2-.6 5 .5 1.4.9 3.2 1 4.4 0 1.7.6 3.4 1 3.4l1.4-2zm-10.9-7.8c2.8-.8 5.3-2.6 5.7-4 .4-1.4 4.3-4 7.5-5 2-.6 3.8-.3 5.4.7 1.3.8 1.4.8 2.7 0 1.3-1 3.7-1.2 5.6-.5 3.2 1 6.2 3 7 4.6a11.3 11.3 0 0 0 8.2 4.8c1 0 1-.3 0-4.5a14 14 0 0 0-2.7-6.2 3 3 0 0 1-.5-1c0-.9-4.8-3.5-8-4.3l-1.8-.5-1 1a14.5 14.5 0 0 1-8.2 3.1c-2.5 0-6.2-1.4-8.2-3-.8-.8-1.3-1-1.7-.9l-1.7.5c-1.6.5-5.6 2.4-6.4 3.1a25 25 0 0 0-3.4 5.8l-.9 3.2c-.4 1.6-.7 3-.6 3.3.2.5 1 .5 3-.2zm.3-14.4a33 33 0 0 1 6.7-3.2c1.2-.3 1.5-.5 1.4-.9l-.4-1.4c0-1 0-1.1 1.4-2.4 1.4-1.4 2.4-2 3.2-1.6.7.2.4 1-1 2.4-.6.7-1.2 1.4-1.2 1.6 0 .4 3.4 3.8 4.3 4.2 1.8.8 4 1.5 5.2 1.5 1.3 0 4.2-1 5.6-1.8 1-.6 4-3.5 4-4l-1.4-1.5c-1.3-1.3-1.7-2.2-1-2.4.8-.3 1.8.1 3.1 1.4 1.5 1.3 1.8 2.3 1.3 3.6-.3.9-.2 1 1.5 1.5a40 40 0 0 1 6.6 3l.8.7.5-.6.4-.8c0-.2 1.3-2.3 3.8-6.2l1.3-2-.7-1.5c-.4-.8-1-1.7-1.3-2-.5-.6-.5-.7-.2-2l1-2.7c.6-1.5.6-1.5 0-1.8-.4-.3-1.2.5-3.2 3.4-.5.8-1.2 1.6-1.4 1.7-.7.3-3.7.2-6.2 0-4.3-.6-6.8-2-7.9-4.4-.3-.7-.9-1.3-1.4-1.6a35.3 35.3 0 0 1-2-1.3c-1-.7-1.5-.8-3-1-1.8 0-2 0-3.2.9a44.4 44.4 0 0 1-2.3 1.4 2 2 0 0 0-1.1 1.3c-.3 1.3-2.5 3.2-4.3 3.8-2.5.9-8.7 1.4-10 .9-.2-.1-.9-.9-1.4-1.7a47 47 0 0 0-1.9-2.5c-.8-1-1-1.1-1.4-.9-.5.3-.5.3 0 1.7a25.2 25.2 0 0 1 1.2 3.5c.1.3 0 .8-.6 1.5l-1.3 2.2-.4 1.2 1 1.5 1.5 2.4 1 1.5 1.3 2.1 1 1.8c.1.2.5 0 1.1-.5zm16.2-4.4c-.5-.6-.9-5.9-.8-9.9v-3.7h.8c.5-.1.8 0 1 .4.4.8 1 12.7.5 13.1a1 1 0 0 1-1.5 0zm5.3 0c-.3-.4-.3-1.7 0-6.6.1-3.4.4-6.4.5-6.6a1 1 0 0 1 1.5-.2c.6.8.2 12.5-.5 13.4a1 1 0 0 1-1.5 0zm-14-12.4c2.7-.9 3.5-1.7 4-4.2l.4-2.8v-.8l-2-.3c-2.9-.4-6.7 0-9.5 1.2-1 .4-3.8 2.8-3.8 3.2l1.3 1.9c.7.9 1.3 1.8 1.3 2 0 .5.4.5 3.6.4 2 0 3.5-.3 4.8-.6zm32.5.1c0-.2.4-.9 1-1.5 1.8-2.1 1.8-2.2.5-3.5-2-2.2-3.6-2.8-8-3.2h-4.2l-2 .2v1c0 1.3.7 4.8 1 5.3a8 8 0 0 0 3.2 1.7c1 .3 7.5.7 8.1.5a.5.5 0 0 0 .4-.5zm10.6-1.6a11 11 0 0 1 2.6-.6l1.7-.1.2-1.8.4-5.6c.2-3.2.3-4 .7-4.4.3-.3.7-.5.9-.5.5 0 .3-.8-1.1-5.2-2-6-7-15.8-9.7-19a85.3 85.3 0 0 0-8.4-8c-1-.8-1.3-1-2.2-.8-.5 0-1.5 0-2.2-.2-3.2-1-5.3-1-14.2-.9l-8.8.1-3.3 1.1c-1.9.6-4.8 1.9-6.7 2.8a47.5 47.5 0 0 1-9.5 4c-.7.1-1.3.4-1.2.5 0 .4 2.5 1.2 3.5 1.2s1.4.4 1.4 1.4c0 .6-.3.9-1.6 1.7a49.5 49.5 0 0 1-5.5 3.3c0 .3 1.8.5 2.8.2a21 21 0 0 0 5.3-2.9c2.2-2 9.2-2.7 12.3-1.2.6.4 1.6.8 2.1 1 1.4.7 4 3 5.6 5.1 1.6 2.2 1.7 2.3 2.6 2.3l1.5.3c.6.3.7.3 1-.2a27 27 0 0 1 4.2-5 20 20 0 0 1 6.4-2.3 10 10 0 0 1 7 1.3c3.5 1.9 4.4 2.6 6 5.1 2.6 3.9 4 7 5.2 11.7 1.5 6 1.5 8.2-.3 12.2l-2.2 5.5c0 .1.6-.2 1.3-.8.7-.5 1.6-1.1 2.2-1.3zm-59.7-.7-.9-1.9c-.5-1-.7-2-.9-4.6l-.2-3.3 1-4.1a41 41 0 0 1 5.8-14.5c.7-1 1.1-2 1-2l-1 .6c-.6.5-2 1.3-3 1.8-2.6 1.2-4 3.2-5.6 8a171.6 171.6 0 0 1-1.5 4c-.5 1.2-.5 1.3 0 2 .5 1 .3 2-1.4 8l-1.1 4c0 .2 3.1 1.2 4.6 1.4.6.1 1.5.4 2 .7 1.2.7 1.4.7 1.2 0zm3-2.8 3-2.4c2.3-2 3.5-2.4 7-2.8 1.2 0 2.2-.2 2.3-.3.4-.3-4-2-7.5-3-3-.9-3.6-.9-4.9 0-1 .8-1.2.8-1.7.6-.3-.2-.7-.3-.8-.2-.3.4 0 5 .4 6.4.5 1.5.9 2.2 1 2.2l1.2-.5zm53.4-1.2c.7-1.9 1.1-6.9.6-7.3-.2-.3-.3-.3-.3 0 0 .1-.2.4-.5.6-.5.2-.8.1-1.7-.6-1-.7-1.3-.8-2.3-.6a40.5 40.5 0 0 0-10.5 3.5l2.8.5c3.4.3 4.8.9 7 2.8 2 1.7 3.7 2.9 4 2.7.2 0 .6-.8.9-1.6zm-31.3-3c1.7-.4 6-.4 7.7.2 1 .4 1.3.5 1.5.2.2-.4-.4-1-1-1-1 0-3.2-1.5-3.5-2.4-.6-1.2-.5-4 0-4.3.7-.4 1.5.5 1.8 2.1.3 1.6.6 1.9 2 2.1.5.1 1.3.5 1.7.8 1 .9 1.5.8 2.8-.1l4-2 4.2-1.7c.7-.3 2-.7 2.9-.8l3-.6c1.5-.5 2.4-.2 3.7 1l.9.8-.2-1c-.4-2.3-2.4-7.2-4.1-10.3-2-3.5-2.8-4.2-5.9-5.8-2.3-1.1-3-1.3-4.2-1.3a13 13 0 0 0-8.3 3.1l-1.9 2.5c-1.6 2.3-2.4 2.8-3.6 2.4a6 6 0 0 0-2-.3c-1 0-2-.8-3.8-3.4a12.8 12.8 0 0 0-10-5.6c-2.3 0-3 .2-3.8 1.6a86.6 86.6 0 0 1-1.5 2.2l-.8 1.3-.7 1.3c-2 2.9-3.3 6-4.3 9.8a163 163 0 0 1-.7 2.7c-.1.4 0 .4.7-.3 1-1 2.6-1.1 4.4-.6a17.3 17.3 0 0 0 2.6.6c1.1.1 2.8.7 5.3 1.9a38.9 38.9 0 0 0 2.3.9l2.8 1.4c1.5 1.1 2 1.2 3 .3a5 5 0 0 1 1.8-.8c1.3-.3 1.5-.5 2-2.1.3-1.7 1-2.5 1.7-2 .6.3.5 3.3 0 4.4-.4.8-1.8 1.6-4 2.5-.5.2-.7.4-.6.7.1.2.4.3.6.2l1.5-.5zm-3.4-9c-1.3-.7-3.8-1.5-5.8-1.8-2.2-.2-2.9-1-1.6-1.8.9-.6 3-.3 6.1 1 2.6.9 3.9 1.8 3.7 2.7 0 .8-1.1.8-2.4 0zm10.9-.2c-.4-.4-.1-1.4.5-1.9 1.8-1.3 6.4-3 7.3-2.8.6.2.8.9.4 1.3-.1.2-.7.5-1.2.7a28 28 0 0 0-5.1 2.2c-1 .7-1.6.8-2 .5zM89 251.5l-1-9.4a61.8 61.8 0 0 1-.4-4c0-1.2-.2-2.3-.3-2.4l-.3-2.5-.6-4.5a218.9 218.9 0 0 1-1-10.9c-.2-.7-.5-3.9-.8-7a224 224 0 0 0-1.4-11.6 8043.4 8043.4 0 0 0-.5-4.8 512.3 512.3 0 0 1-1-10 612.8 612.8 0 0 1-1.8-16.2c-.4-4.4-.9-7.7-1-7.7-.9 0-6.6-.9-8.1-1.3L65 158c-6-1-10.6-2.3-18.1-4.6a75.7 75.7 0 0 1-18.9-8.6s0 1 .3 2a135.6 135.6 0 0 1 2 11 330 330 0 0 0 2.8 16.3l.8 5a135.5 135.5 0 0 0 1.8 10.5l.6 3.5a159 159 0 0 1 1.3 7.4l1.3 7.5 1.5 8.9 1.7 9.5a98.1 98.1 0 0 0 2.5 13.3 17.5 17.5 0 0 0 8.2 5.5 48.1 48.1 0 0 1 4.7 1.8l2.5.7a96.5 96.5 0 0 0 14.6 3.3 287.3 287.3 0 0 0 13.8 2.1h.7l-.1-1.6zm87.4.6 5.1-1a217.5 217.5 0 0 0 17.3-3.8c.5 0 2.5-.8 6.8-2.6 4-1.7 7-4 7.8-5.9.2-.3.5-1.6.7-2.9l.8-4.2a367.4 367.4 0 0 0 1.8-10.9 438.2 438.2 0 0 0 3.7-21.4 130 130 0 0 0 1.6-9.5l.8-4.5a105 105 0 0 0 1.4-8.3 377.2 377.2 0 0 0 2-10.6 372.8 372.8 0 0 0 3-17.6c.1-1.4.4-2.7.5-3 .2-.6-.1-.6-1.4.3a69.4 69.4 0 0 1-18.9 8c-.8.3-3 1-5.1 1.5a219.5 219.5 0 0 0-8.8 2.2 839.9 839.9 0 0 0-12.7 2.2c-.5.1-.6.4-.8 2.2a184.7 184.7 0 0 0-1.1 9.7l-.6 5.5A311 311 0 0 0 179 191l-.6 4.4a368.9 368.9 0 0 1-1.7 15.4c-.3 3-.6 6.2-.8 7a44 44 0 0 0-.4 3.3c-.5 6.8-.6 8-1.4 13.7a63 63 0 0 0-.4 4c0 1-.3 2.4-.4 3l-.3 2.6-.4 4.1c-.6 3.8-.5 4 .5 4l3.4-.5zm-36.1-92.6a134.5 134.5 0 0 0 16-1 229.3 229.3 0 0 0 25.8-2.9 92.7 92.7 0 0 1 4.2-.6c2-.3 3.7-.6 6.2-1.2a726.3 726.3 0 0 1 9.5-2.3 187.6 187.6 0 0 1 3-.8c3-.7 13-4.4 14.8-5.3 4.3-2.4 5.6-3.1 7.3-4.3a23 23 0 0 0 5.7-5.5c.6-.9 1.5-4.5 1.2-4.8a52.5 52.5 0 0 1-21.2 11.6 5 5 0 0 1-1.6.5l-2.6.8a89 89 0 0 1-11.1 3l-2.8.6a2087.4 2087.4 0 0 1-17.1 2.9 304.6 304.6 0 0 1-37.5 3 442.4 442.4 0 0 1-38-.6 347.7 347.7 0 0 0-5.8-.5l-5.5-.6a221.6 221.6 0 0 0-5.7-.6 152 152 0 0 1-15-2.3 92.2 92.2 0 0 0-4.5-.9c-3.6-.6-11.6-2.5-13.3-3a131 131 0 0 0-2.7-.9 110 110 0 0 1-10.7-3.7 228 228 0 0 0-4-1.8 39 39 0 0 1-8.2-5 324.9 324.9 0 0 0-2-1.7l-.7-.7v.9c0 1.2.6 3.7 1 4.4.9 1.3 3 3.4 4.5 4.6a58.8 58.8 0 0 0 18.4 8.7l2.5.8 3.7 1c4.3 1.2 4.9 1.3 6.7 1.7a244 244 0 0 1 10.2 2l3.7.6 3.5.6a90.3 90.3 0 0 0 8.2 1l6.1.7a384.3 384.3 0 0 0 47.8 1.6zm10.2-11a85.5 85.5 0 0 1 10.1-.7 188.6 188.6 0 0 1 11.4-1.2l5.8-.8a126.2 126.2 0 0 0 5.1-.8 70.2 70.2 0 0 1 4.3-.6c1.8-.2 3-.4 7.4-1.5l3.5-.7a98.3 98.3 0 0 0 4.3-1.1l3.5-1a145 145 0 0 0 13.9-5c2-1 6.8-3.7 8.3-4.7 2.1-1.5 4.2-3.6 5-5.3 1.6-3.1.6-6.5-2.9-9.7a27.5 27.5 0 0 0-5-3.8 81.2 81.2 0 0 0-22-8.6 38 38 0 0 1-2.6-.8l-1.5-.4-4-.8c-4.8-1-6-1.3-9.6-1.9a1075.6 1075.6 0 0 0-16.8-2.3l-2.5-.3a124 124 0 0 0-15.6-1.2 509 509 0 0 0-38.5-.3 196.5 196.5 0 0 0-18.8 1.4A74.2 74.2 0 0 0 81 97.8a104 104 0 0 0-14 2.3 50 50 0 0 0-7.3 1.6 137.1 137.1 0 0 0-19.5 6 48.4 48.4 0 0 0-9.6 5c-.5 0-4.6 3.9-5.3 5a8 8 0 0 0-1.3 5 12 12 0 0 0 3.4 5.3c3.1 3.2 7.2 5.6 14.2 8.4a474.8 474.8 0 0 1 4.8 1.8c.5 0 1.3.4 1.9.7a48.3 48.3 0 0 1 5.8 1.7 50.9 50.9 0 0 0 9 2.2 116.6 116.6 0 0 0 13.7 2.5 187 187 0 0 0 19.2 2.2l5.4.6a345.3 345.3 0 0 0 49 .4z"/><path fill="#e9242b" d="m209.8 256.4-6.6 1.7v.7a.8.8 0 0 1 .7.4c.2.2.3.4.3.8 0 .3 0 1-.4 2l-2.5 9.2-3.7-7.6-.6-1.7c0-.8.2-1.4.7-1.7v-.7l-6.3 1.6-7 1.2v.7c.5.1.8.4.8.8 0 .3-.1.7-.4 1.3l-6.5 11.8-.6-11c0-.5 0-.9.2-1.1 0-.3.3-.6.6-.8v-.7l-5.4 1v.7c.3 0 .6.2.7.5l.2 1 1.3 26.8v1.1l-.7.7v.8l5.4-1v-.7a.8.8 0 0 1-.7-.5l-.2-1-.5-8.5 2.4-4.3 5.6 10.6c.5.8.7 1.3.7 1.6 0 .4-.2.7-.6 1v.7l6.7-1.1v-.8a1.7 1.7 0 0 1-1.1-.6l-1.5-2.4-7.3-13.5 5.4-9.7.9-1.6 1-1.8.4-.3c.3 0 .6.2.8.5.3.3.8 1 1.3 2.2l6.6 12.9.8 10.7-.1 1.2-.6.7v.8l5.4-1.4v-.7c-.4-.1-.6-.3-.8-.5l-.2-1-.8-10.8L208 261c.4-1.3.7-2.3 1-2.7.2-.5.5-.9.8-1zm-155 1-.1.7.6.7v1.1l-1.6 26.8-.2 1a1 1 0 0 1-.7.5v.7l5.3 1.2v-.8a1.6 1.6 0 0 1-.6-.7 3 3 0 0 1 0-1.1l.5-8.5 2.7-3.3 4.4 12.5a8 8 0 0 1 .5 1.8c0 .5-.3.7-.8.8v.7l6.6 1.4v-.7a3 3 0 0 1-.9-1 27 27 0 0 1-1.1-2.9l-5.7-16 6.3-7.4 1-1.3 1.3-1.3c.1-.2.3-.2.6-.3v-.7l-6.9-1.5v.7c.4.3.7.7.6 1.1 0 .3-.2.7-.5 1l-7.7 9.2.7-11 .2-1c.2-.3.4-.5.7-.6v-.7zm19.8 4v.8l.6.7.1 1.1-1.1 26.8c0 .5-.1.9-.3 1.1 0 .2-.3.4-.6.5v.8l15.5 2.3a.7.7 0 0 1 .5.4l.3 1.2h.4l.4-8.1-.4-.1a3 3 0 0 1-.4 1.1.6.6 0 0 1-.6.3l-11-1.7.4-8.7 7 1 .5.5.2 1.2h.4l.4-8h-.4c-.1.5-.2.9-.4 1a.6.6 0 0 1-.6.3l-6.9-1 .3-7.5 10.7 1.6a.7.7 0 0 1 .6.4l.2 1.2h.4l.4-8.2h-.4c-.1.5-.2.9-.4 1.1a.6.6 0 0 1-.6.3zm19 2.9v.7l.5.7c.2.2.2.6.2 1l-.7 27-.2 1c-.1.3-.4.4-.7.6v.7l5 .5v-.8l-.5-.6c-.2-.3-.2-.7-.2-1.2l.5-19.2 9.1 19.2c.4.8.6 1.4.6 1.7 0 .5-.2.8-.6 1v.7l5.4.5v-.8l-.6-.6-.1-1.2.7-26.8c0-.5 0-.9.2-1 .1-.3.3-.5.6-.6v-.8l-5-.4v.7c.3.2.5.4.6.7l.2 1-.5 18.9-9-19-.3-1.3c0-.6.2-1 .6-1v-.8zm20.5.3-.1 8.2h.4c0-.6.2-1 .3-1.1a.6.6 0 0 1 .6-.3l5.3.1-.2 24.1c0 .5 0 .9-.2 1.1-.1.3-.3.5-.6.6v.7l5.3.2v-.7l-.6-.6-.2-1.1.2-18.6a5.3 5.3 0 0 1-.3-.4 3.3 3.3 0 0 1-.4-.6l-.2-.4-.3-.6-.3-.6a5.1 5.1 0 0 1-.3-.6 7.6 7.6 0 0 1-.2-.6 5.6 5.6 0 0 1-.2-.7l-.1-.7a5.1 5.1 0 0 0 0-.4.1.1 0 0 1-.1-.2v-.2a4 4 0 0 0-.4-.7c0-.3-.2-.5-.4-.8l-.4-.7-.3-.8-.4-.9-.4-.8v-.1a.4.4 0 0 1 0-.1l-4.2-.2a.7.7 0 0 1-.6-.3 4 4 0 0 1-.3-1.2zm49 0a9.6 9.6 0 0 0-.9.1c-3.7.4-6.4 2.8-8 7.2-1.2 3-1.7 6.3-1.6 10.2a22.4 22.4 0 0 0 3.7 12.6c1.8 2.2 4 3.1 6.8 2.9 1.3-.1 2.5-.5 3.4-1.1a18 18 0 0 0 3.6-3.5c.7-.8 1-1.2 1.2-1.2.2 0 .4.2.6.5l.3-.4-2.5-6.4-.4.5v.6c.1.4 0 .9-.2 1.3l-1 1.5c-1.5 1.7-3 2.6-4.7 2.8a5 5 0 0 1-4.8-2.3c-1.4-2-2.1-4.7-2.2-8.2a16 16 0 0 1 1.8-8.5c1.1-1.9 2.6-3 4.6-3.1 1.7-.2 3.2.4 4.8 1.9l1.1 1.3c.2.4.4.8.4 1.2v.7l.3.3 2.2-6.8-.3-.4-.6.7-1.3-1a14.8 14.8 0 0 0-3.7-2.8c-.7-.3-1.6-.5-2.5-.5zm-32.1 1zm19.4.7-5 .1v.7l.6.6c.2.3.2.6.2 1.1l.1 15.9-.1 4a7 7 0 0 1-.6 2.3c-.8 1.6-2.2 2.4-4.1 2.4-2 0-3.3-.7-4.1-2.3-.3-.5-.6-1.3-.7-2.1l-.2-4.1v-7.2a.2.2 0 0 1-.1 0l-1-.8a3.5 3.5 0 0 0-.8-.7l-.4.5-.1.9c-.1.4-.3.9-.6 1.3l-.4.8a1 1 0 0 1-.3.4v6.8c0 2.3.2 4.2.5 5.8a8 8 0 0 0 1.8 3.8 7.8 7.8 0 0 0 6.3 2.3c3.8 0 6.2-1.6 7.4-4.7.7-1.6 1-4.2 1-7.5l-.1-17.8.1-1.1c.1-.3.4-.5.7-.7zm-25 .3zm11.7 0zm0 0v.1zm-7.7 0zm0 0zm-7 .6zm6.7.7zm-3 .2zm1.5 0zm-6.3.2zm0 0zm14.5 0v.2a.5.5 0 0 0 0-.1zm-.5.1zm0 0v.1zm-6.9 0zm-1 .8zm-1 .5zm4.1.7zm-2 .1zm-6.3.7zm6.3.1zm.3.5zm1.7.3v.2a1 1 0 0 0 0-.2zm0 .3v.1-.1zm0 .5zm0 .3zm5.6.8zm-12.9.2zm13.2 0zm-1.3 0zm-11 1.3zm0 0zm10.3.7z" font-size="30.1"/><g fill="#e9242b" stroke-width=".3" aria-label="BUCKETS" font-family="Copperplate Gothic Bold" font-size="44.1" style="-inkscape-font-specification:&quot;Copperplate Gothic Bold, &quot;"><path d="M49.6 318.2q3.5 4 1.3 8.4-1.9 3.6-5.5 4.4-1.8.3-3.8 0-1.9-.5-4.4-1.8l-18-9.1.3-.6h1.3q.4-.2.7-.8l11.2-22.2q.3-.6.2-1 0-.5-.7-1l.3-.6 17.8 9q2.6 1.3 4 2.4 1.3 1.2 2 2.7 1.4 3-.4 6.5-2 3.8-6.3 3.7zm-15.4-10.4 10 5.1q2.3 1.2 3.6 1 1.4-.3 2.2-1.9.9-1.6.2-2.8-.6-1.2-2.8-2.4l-10.1-5zm-5.8 11.5 9.7 5q2.7 1.3 4.3 1.2 1.8-.2 2.8-2.2 1-2 0-3.5-.7-1.3-3.5-2.7l-9.7-5zm59.4-1L83 334q-1.3 4.5-3.6 6.3-4.2 3-13.5.3-6.8-2-9.7-5.3-1.7-1.9-1.8-4.3-.2-2.4.7-5.3l4.8-15.8q.2-.7 0-1-.2-.5-1-1l.3-.6 8.8 2.6-.2.7q-.8 0-1.2.2-.4.3-.6 1l-4.2 14q-.7 2.4-.8 3.7-.1 1.2.4 2.2 1.4 2.7 6.1 4.2 4.9 1.4 7.5-.1 1-.6 1.5-1.7.7-1 1.4-3.5l4.2-14q.2-.7 0-1.1-.2-.4-.9-.9l.2-.6 8.3 2.5-.2.6q-.8 0-1.1.3-.4.2-.6.8zm27.7 20.8 3.3 6.6-.6.3q-.5-.6-1-.7-.3 0-2.2.8-4 1.7-6.6 2.1-2.6.4-6 0-7-.9-11-4.7-2.3-2.2-3.5-5.2-1.3-3.5-.8-7.4.6-5.3 4.2-8.8 5.4-5.3 14.9-4.1 3.4.4 5.8 1.4 2.4 1 5.9 3.7 1.6 1.2 2 1.2.4 0 1-.4l.6.5-4.9 5.5-.5-.4.1-.6q.1-.6-.4-1.2-.4-.6-1.7-1.6-3.5-2.6-7.8-3.1-5-.6-8.3 1.5-3.8 2.5-4.4 7.2-.6 4.8 2.5 8.1 2.7 2.9 7.7 3.5 4.2.5 8.3-1.1 1.5-.6 2-1 .7-.6.7-1.2v-.6z"/><path d="m134 335.4-4.3 3.8.4 7.9q0 .6.3 1 .4.3 1.1.5v.7l-9.1.4v-.7q.7-.3 1-.6.3-.4.3-1l-1.1-25q0-.6-.4-1-.3-.3-1-.4l-.1-.7 9.2-.4v.7q-.8.2-1 .6-.3.3-.3 1l.4 10.3 11.7-10.5q.8-.7.8-1.1 0-.6-1.3-.8v-.7l12-.5v.7l-1 .4q-.4.2-1.8 1.5l-1.6 1.5-9.7 8.4 12 13.2q1.6 1.8 2.3 2.3.7.5 1.8.7v.6l-11.4.5v-.6q1-.3 1-1 0-.2-1-1.5z"/><path d="m162.8 333.4 1.6 7.9 18.6-3.8q.6-.1.9-.5.3-.3.3-1.2h.7l1.5 7.4-.7.1q-.3-.7-.7-1-.4-.2-1 0l-26.3 5.3v-.7q.6-.3.9-.7.2-.4 0-1.1l-5-24.4q0-.7-.4-1l-1.2-.3-.1-.6 25.7-5.3q.6-.1.9-.5.2-.3.3-1.2h.7l1.5 7.4-.7.1q-.3-.7-.7-1h-1l-18.1 3.7 1.4 6.8 11.7-2.4q.6-.1.9-.5t.3-1.1l.7-.2 1.5 7.3-.7.1q-.3-.7-.7-.9-.4-.2-1-.1z"/><path d="m197 312 7.4 21.1q.2.7.6.9.4.2 1.2.2l.2.6-8.7 3-.2-.6q.7-.5.8-.9.2-.4 0-1l-7.4-21.1-8.6 3q-.6.2-.8.6-.3.4-.2 1.2l-.7.3-2.5-7.2.7-.3q.4.7.8.9.5.2 1 0l23.4-8.2q.6-.2.8-.6.3-.4.2-1.3l.6-.2 2.6 7.2-.7.2q-.4-.6-.9-.8-.4-.2-1 0zm34.4-18.1-.1 7.7h-.7l-.1-.3q-.4-.7-1.9-.9-4.6-.7-9.2 1.6-2 1-3.4 2.3-1 1-1.3 2-.3 1.2.2 2 .7 1.6 2.8 1.2 1-.2 4.2-1.4l3.2-1.2q2.9-1 4.8-1.3 2-.3 3.6 0 1.8.2 3.3 1.4 1.6 1.2 2.5 3 1.3 2.7.6 5.8-.7 2.7-3.6 5.4-2.2 2-5.1 3.4-5.3 2.6-11.6 2.6l-1.6.1q-.2.1-.5.8h-.7l-.4-7.9h.7l.1.3q.5.8 1.7 1.2 1.8.5 4.8 0t5.4-1.7q2.6-1.2 4-3 .7-1 1-2 .1-1.2-.3-2-.7-1.4-2.3-1.2-1.2 0-4.4 1.2l-3.1 1.2q-3.2 1.2-4.5 1.5-1.4.3-3 .3-2.1 0-4-1.2-1.7-1.2-2.7-3.2-1.6-3.3-.4-6.7 1.6-4.3 7.6-7.3 2.6-1.2 5-1.8 2.4-.6 6.4-.8l1.6-.2q.4-.2.7-1z"/></g><path fill="#fff" stroke="#000" stroke-width=".3" d="m29 16.2 12.7-7.7 19.8-6.2 16.1-.5L93 5l17.4 7.4 12 10.6 11.8 14.6 5.9 14.9 3.3 17-1 15.6L137 104l-8.8 11.5-17.4 6.2-23.4.9-19.6-3.1-15.6-8.3-20.7-19-15-18.5L14 54.9 18.3 27z"/><path fill="#f39e9e" d="M71 14h-.8a58.5 58.5 0 0 0-5.4.6c-1 1.4-1.9 3-2 3.7 0 .5.6 1 1.2 1 .3-.1.7-.6 1.5-1.8l1.2-1.7c.4 0 .5 2 .1 2.5-1 1.3-2.8 4.7-2.7 5.2.3 1.3 1.6.8 2.7-1.2l1-1.3c.1 0 .4.3.5.8.4.7 0 1.8-2 6.1-.5 1.2 1 1.9 1.8.8.3-.2.7-1.1 1-1.8l.9-1.4.4.8c.3.6.2 1.2-.8 3.4-1.3 3.3-1.4 4-.6 4.5.5.4.7.3 1.2-.3.3-.4.8-1.5 1-2.3.3-.9.7-1.6.8-1.6l.5.7c.2.5.2 1-.3 2-2 4.2-2.2 5-1.7 5.5.9.7 1.4.3 2.5-2l1-2 .2.5c.6.9.5 1.4-.5 3.6-.6 1.2-1 2.6-1.2 3.2-.3 1.8 1.4 2.5 2 .7a24.4 24.4 0 0 1 1.5-3.8c.1-.3.3-.4.4-.3.2.1-.1 1.8-.6 3.8-.5 2-.8 3.7-.7 3.9.3.5 1.3.6 1.7.2.2-.3.6-1.3.8-2.3.9-3.3.7-3 1.6-2 1 1 1 1.3.4 3.7-.7 2.4-.5 4.3.2 4.8.8.5 1.4-.2 1.5-1.7 0-.7.2-1.7.4-2.3l.3-1 .6.5c.9.7.9.7.7 3.7-.2 2.8 0 3.6 1.2 3.5 1 0 1-.3 1-2.1 0-1 .1-1.7.2-1.8 0-.1.7.2 1.3.7l1.2 1-.3 1.6c-.7 3.3-.5 4.4.8 4.2.5 0 .6-.4 1-2l.6-2c.1-.1.4 0 .7.3.4.3.6.8.5 1.8 0 2 .4 3.8 1 4 1 .1 1.3-.7 1.3-2.5v-1.7l.8.7c.7.5.8.9 1 3 0 2.3.4 3 1.3 3 .7-.1 1-.7 1-2.2 0-1.6 0-1.7.6-1.3.2.2.5 1.4.7 2.7.3 2.3.7 3.1 1.6 3 .9 0 1-.7.8-2.2-.1-.9-.1-1.6 0-1.6.2 0 .7.2 1.1.5.8.4.9.6 1 2v2.4c0 .7.6 1.5 1.3 1.4.8 0 1.2-1 1.2-2.6-.1-1.4 0-1.6.4-1.4l.7.2.3 1a23 23 0 0 0 1.7 4.8c1 .7 2.1-.4 1.7-1.6-1-3-1-3.2 0-2.8.6.3 1.2 1.5 2 4 .4 1.5 1.2 2.3 2 2.2.6-.1.8-.8.5-1.6l-.7-2-.4-1.5.7.2c.6.2.9.6 1.8 2.8 1 2.6 1.5 3.1 2.3 2.7.7-.5.7-1 0-2.9-.5-1-.8-1.8-.7-1.9l1 .2c.6.2.8.3.9.8.1 1 1 2.7 1.6 3.5.4.6.7.8 1.1.7 1-.2 1-.9.2-2.8-.9-1.8-.9-2.1 0-2.1.4 0 .7.4 1.5 2 1.2 2.2 2.3 3.4 3 3.1 1-.2.9-1-.2-2.7-1.4-2.2-1.4-2.4 0-2.4l1.2.1.8 1.7c1.3 2.7 3 4 3.7 2.8.2-.4 0-.8-1-2.5-1.2-1.7-1.2-2.2 0-2 .7 0 .8 0 1.3 1.2 1 2 1.8 2.8 2.5 2.7l.7-.2c.4-.4.1-1.3-.6-2.5-.7-1-.7-1.2-.2-1.4.4-.2.7-.1.9.3l.7 1a52.1 52.1 0 0 0-.7-3.7l-.3-1.4c-.2.3-.3.5-.6.5-.8.2-1 0-.4-1l.6-1.3a42.4 42.4 0 0 0-.6-2.1 1.2 1.2 0 0 0-.6 0c-.5.2-.7.5-1.5 2.4-.7 2-1 2.3-1.4 2.3-.4 0-.4 0 .1-1 .7-1.1.7-2.8 0-3.2-.4-.3-.6-.2-1.1.5l-1.6 2.4c-.8 1.5-.8 1.5-1.8 1.5-.7 0-1 0-.8-.3l1-1.4c.7-1.3.6-2.4-.4-2.6-.7-.2-1.1.2-2.4 2.5-.8 1.4-1 1.6-1.4 1.5-.7 0-.7-.3.3-1.8 1.1-1.6 1.3-2.6.7-3.2-.9-.7-1.4-.4-2.5 1.3-1.8 3.2-2 3.4-2.7 3.5-.8 0-.8 0 .2-1.8.6-1 .7-2 .3-2.4-.1-.1-.6-.2-1-.1-.5 0-.7.2-1.7 1.8-.8 1.5-1 1.8-1.4 1.7-1.2-.1-1-.6.7-2.5.7-.8.8-1 .6-1.7-.1-.6-.3-.8-.8-.9-.8-.1-1.4.3-2.6 2.3-1 1.4-1.2 1.6-1.6 1.5-.8-.2-.8-.2.1-1 1-.8 1.4-1.5 1.4-2.4 0-1.4-1.2-1.3-3 .4-1.8 1.7-2 2-2.7 1.6a10.8 10.8 0 0 0-1-.4c-.3 0 0-.3 1.2-1.6 1.7-1.6 2-2.2 1-2.9-.6-.6-1.5-.1-3.2 1.5-1.6 1.6-1.8 1.7-2.6 1.3-.6-.3-.6-.3.8-1.6 1.4-1.4 1.6-2 .8-2.7-.6-.5-1.6-.2-3 1.2-.6.7-1.2 1.2-1.4 1.3-.2 0-.7-.2-1-.5-.7-.6-.7-.6-.2-1 1.9-1.2 2.5-2.4 1.3-3.1-.4-.3-.7-.2-1.5.3-2.4 1.5-3.1 2-3.4 1.7-.2-.2.1-.4 1.2-.9 1.2-.5 1.5-.8 1.8-1.4.2-.5.1-.8-.4-1.2-.5-.4-.7-.4-1.3 0-1 .6-4.5 1.3-5 1-.8-.5-.5-.7 1.4-1 2.2-.3 2.7-.6 2.8-1.7 0-1.3-1-1.5-4.2-.5-2.3.7-3 .8-3.3.5-.7-.6-.5-.7 1.2-1 1.3-.3 1.6-.5 2.1-1.2.6-.8.6-1 .2-1.4-.5-.4-.9-.4-3.3.3l-3.2.7-1-1-.6-.8 1.9-.2c1.9-.3 2.5-.7 2.3-1.6-.1-.9-1.2-1-3.7-.6-1.4.2-2.6.3-2.7.2l-.4-.5c-.3-.2.1-.3 1.3-.6 1.7-.3 2.4-.7 2.3-1.5 0-.9-.9-1-3.4-.7-2 .2-2.6.2-2.9-.2-.2-.5 0-.5 1.7-.7 2-.2 2.9-.6 2.8-1.6 0-.8-.6-1-2.7-.8-3 .3-4 .1-4.3-.7-.4-.9-.4-1 .8-1a9 9 0 0 0 2.1-.5c1-.4 1.3-.6 1.4-1 .2-1.2-.6-1.4-3.2-1-2.3.2-2.4.2-2.7-.5l-.4-.8h1.7c2 0 2.6-.2 2.8-1 .2-1-.5-1.3-2.6-1.3-2.7 0-3-.2-3.6-1.3-.3-.5-.4-1-.2-1.1h1.8c2.8.3 3 .3 3.3-.1.4-.5.3-1.2-.2-1.6-.6-.5-2.9-.8-4.9-.7-1.6 0-1.7 0-2-.7l-.3-.7 1 .2c1.6.4 3.9.3 4.2 0 .8-1 0-2-1.7-2.1-1.7-.2-3.8-.5-4-.8-.2 0-.3-.4-.3-.7 0-.4.1-.5.5-.3l2 .6c1.2.3 1.5.3 1.8-.1.7-.9.2-1.6-1.5-2.2A8.3 8.3 0 0 1 71 14zm50 10.3a58.4 58.4 0 0 1 6 6.8c0-.2 0 0 0 0l.2.2c-.4-1.1-1-2.2-1.8-3.2-.7-.8-1.4-1.6-2.3-2.3l-2-1.5zM19 30.7c0 .3-.2.5-.5 1-.8 1.5-1.4 3-2.1 4.6-.8 1.6-1.5 3.3-2 5-.6 2.6-1 5.2-1.5 7.9l-1.8 11-.4 2.4-.3 5c-.1 2.7-.2 5.5-.7 8.2l-1.2 5.8a50 50 0 0 0-.7 4.5c0 2 0 3.8-.2 5.7l-.4 3 .2 2.4a51.4 51.4 0 0 0 7.6 13.7l2 2c1.6 1.6 3.5 3 5.5 4.1 5.3 3.4 10.6 6.8 15.7 10.6 4.3 3.1 8.6 6.5 13.6 8.8l1.4.6c3.5 1.2 7.4 1.4 11 1.8l6.4.5H73l1.2-.2 4.3-1.5c4.2-1.6 8.4-3.3 12.8-4.4a127 127 0 0 1 10.6-2.2c1.6-.3 3.3-.5 4.7-1.4 1.3-.8 2.5-1.7 3.5-3 1.6-2.2 3-4.5 4.4-6.8l.8-1.4-1.8.7-4.2 1a184.5 184.5 0 0 0-7.6 1l-7 .2h-3c-1.6 0-6.7-.5-9.7-1-2.2-.3-2.4-.4-2.5-1 0-.3-.2-.7-.4-.9-.4-.3-1.6 0-2 .4-.3.5-1 .5-1.8 0-.8-.4-1-.2 1.7-2 1.7-1.2 2.1-2.2 1.3-2.8-.6-.6-1-.5-2.7.7-.7.6-1.4 1-1.6 1 0 0-.4-.3-.7-.8l-.5-1 1.5-1.6c1.6-1.7 1.8-2.6 1-3.4-.8-.6-1.8-.3-2.7 1-.8 1.1-1.1 1.2-1.6.5-.2-.4.2-1.4 1.2-2.6 1-1.1 1.4-3.2.8-3.8-1-1-2-.2-3.5 2.7-.3.6-.3.7-.5.3l-.5-.6s0-.5.4-1l1-2.9c.6-2.2.4-3-.9-3-.9-.2-1.2.2-1.9 2.3-.5 1.5-.8 1.6-1.3.7-.4-.6-.3-1 .6-2.8 1.1-2.4 1.3-3.3.5-4-.8-.7-2.1.3-2.7 2a5 5 0 0 1-.6 1.4c-.3.4-.4.3-1-.3-.6-.8-.6-.8.3-2.3 1-1.9 1.2-2.6.9-3.6-.2-.6-.4-.8-1-1-.8-.2-1.3.4-1.8 2-.5 2.1-1.1 2.5-1.8 1.3-.2-.4.2-2.2.8-2.8a5 5 0 0 0 .5-3c-.1-.4-.4-.7-.9-.8-1-.4-1.5 0-2 2.3a8 8 0 0 1-.6 2l-.8-.8c-.7-.8-.7-1-.3-2.2l.7-2c.2-.3.2-1 0-1.3-.1-.7-.2-.8-1-.8-.9-.2-1.4.5-2 2.3l-.3 1-.7-.5c-.6-.4-.8-.6-.7-1 .5-1 1-3.4.8-4.3-.2-1.2-1-1.6-2-1-.5.2-.6.5-.7 1.2-.1 1.7-.4 2.7-.8 2.6-.6 0-.7-.2-.5-2.4.1-2.5-.3-3.5-1.3-3.5s-1.3.5-1.5 2.2c0 .8-.2 1.5-.3 1.5-.6 0-1-.8-1.3-3.3-.3-1.5-.5-2.9-.7-3l-.7-.3c-1-.2-1.5.8-1.4 2.7.2 1.7.1 1.8-1 1.3-.5-.2-.7-.8-1-2.3-.3-2.6-.5-3-1.2-3.2-1-.1-1.4.7-1.4 2.4v1.6l-.9-.3c-.8-.3-1-.5-1.1-1.1-.1-.5-.2-1.3 0-1.8l-.1-1.6c-.3-.7-1-1-1.7-.7-.4.3-1 2.3-1 3.6v.8l-1-.3c-.7-.2-1-.4-1-.6.1-.6-.8-4.6-1-4.8-.4-.3-1.4-.2-1.7.1-.3.4-.4 2.9-.1 3.6l.2.6-.8-.2c-.7-.2-.8-.3-1.2-1.5l-.7-2.3c0-.7-.3-1-.7-1.3-1.3-.6-2 .5-1.5 2.6.3 1.2.3 1.5-.1 1.3a21 21 0 0 1-3.3-6.2l-.6-2a52.2 52.2 0 0 1-.6-28.2c.2-.2.2-.7.2-1.1-.2-.9.2-4 .8-7v-.7zm7.2 49h.2c.2.2.2.5 0 .9-.4.7-.9.9-1.2.3-.2-.4.4-1.2 1-1.2zm3.7 1.2c.2 0 .5 0 .8.2.7.3.6.4-1.5 1.7-1 .7-1.7 1-1.9.8-.2-.2 0-.5 1-1.5.8-.8 1.2-1.2 1.6-1.2zm5 1.1.8.1.8.3-.7.6-1.2.9c-.2 0-.8.6-1.4 1-.9.9-1 1-.8 1.6.3.7.8.8 1.8.4 1-.5 3-1.8 4.2-2.8.4-.3.8-.5 1-.4l.8.4.5.3-1.7 1.2c-2 1.3-2.2 2-1.1 2.6.5.4.8.2 3-1 1.5-.8 2.5-1.2 2.7-1 .2.2.2.4 0 .5-2.2 1.5-2.8 2-2.8 2.5 0 1.4 1.3 1.4 3.5 0 2-1.1 2.3-1.2 3-.7.3.4.3.5 0 .7-2.7 1.7-3 2.2-1.9 3 .7.4.8.4 2.6-.6s2-1 2.5-.6c.7.6.4 1-1.2 1.5-1.4.5-1.7 1-1.2 1.9.6.7 1.2.6 3.6-.2 1.9-.7 2-.7 2.6.3l.4.5-1.6.6c-.9.4-1.8 1-2 1.3-.6.6-.6 1.5 0 1.7.4.1 4.3-1 5.3-1.4.4-.3 1.1.1 1.2.6 0 .1-.8.6-1.9 1-2 1-2.8 1.6-2.5 2.3.3.7 1 .9 2 .6 1-.2 3-1 3.3-1.4.1-.2.4-.3.6-.3.4 0 1.7 1.6 1.6 1.8l-2 .5c-1 .2-2 .6-2.2.8-.4.5-.4 1.5 0 1.8.2.2 4.4-.2 5.5-.6.8-.3 2 .3 1.8 1 0 .1-.8.5-1.8.8-1 .2-2 .6-2.2.7-.6.4-.8 1.3-.3 1.7.4.3 1 .3 4.4-.4 1.4-.3 1.7-.2 2 .2.9 1 .9 1-2.5 2.4-.7.3-.9.4-.9.8 0 1.4 1.8 1.5 4.3.5l1-.4.5.9.3.8-2 .8c-1 .3-1.9.8-2 1 0 .2-.3.2-.8 0a41.5 41.5 0 0 0-1.5-.8 26 26 0 0 1-2.3-1.2 389.1 389.1 0 0 0-4.1-2.5c-3-1.7-9.2-6.3-11.2-8.1a103.8 103.8 0 0 1-11.5-12 45 45 0 0 1-3.9-4.7s.7-.7 1.7-1.3a115.9 115.9 0 0 0 4-2.5zm35 33.6h.1l.3.6c.4.8.1 1-1.2.8-1.2 0-1.9-.4-1.6-.7l2.4-.7z"/><path fill="#b4b4b4" d="M71.3 0a77.2 77.2 0 0 0-22.5 3.8c.4 1.2.7 2.4.8 3.7l6-1.7a81 81 0 0 1 9.5-1.6c1.6-.2 1.7-.1 1.8.5.1 1 0 1-2 2-1.7.7-2.5 1.4-2.4 2 .2.5 1 .6 2.2.2l1.2-.5-1 1-1.9 1.4c-.9.6-1 1.4-.4 1.9.4.4 1.8-.1 2.4-.8a5.8 5.8 0 0 1 1-.8l.4-.4.1 1c0 .7 0 1-.7 1.8-.5.5-1.3 1.7-1.9 2.7-1 1.8-1.1 2.7-.1 2.8.6 0 .7 0 2-2.2l1-1.4.2 1.1c.2 1.1.2 1.3-1.3 3.8-1.6 2.7-1.8 3.2-1.2 3.7.6.4 1.4-.3 2.3-2a6 6 0 0 1 1-1.4s.4.4.6 1c.4.9.4 1.1-.6 3.4l-1.3 2.9c-.2.3-.1.6.2 1 .7.7 1.3.2 2.3-2l1-1.8.5 1c.3.8.3 1-.7 3.6-1.3 3-1.4 4.3-.4 4.5.7.2.8.1 1.4-1.8.6-1.9 1-3 1.3-2.8l.5 1.1c.2.7.2 1.2-.2 2-2.2 4.6-2.5 5.8-1.2 5.7.8 0 .7 0 1.7-2.2l1-2c.1 0 .4.3.6.8.4.7.3 1-.4 2.6-1.7 3.8-2 5.2-1 5.5.7.2 1-.2 1.6-1.8l1-2.5c1-1.5 1.2-.5.6 1.8-1 3.7-1.3 5-.8 5.3.7.6 1.3 0 1.8-1.7L78 42c0-.5.5-1.4.7-1.3l.9 1.3c.7 1.1.8 1.2.3 3.4-.8 3.3-.7 4.7.3 4.9.9.2 1-.2 1-1.5 0-1.1.7-3.6 1-3.6 0 0 .5.3.9.8.6.7.7 1 .5 2.8-.3 2.5-.2 3.6.5 4 .9.5 1.4-.3 1.4-2.2l.1-1.8c.1 0 .8.4 1.5 1l1.3 1.3-.4 1.7c-.4 2.1-.3 3.5.3 3.7.6.2 1-.4 1.5-2.4.4-1.8.7-2.1 1.4-1.5.4.3.5 1.1.6 2.7 0 2.4.3 3.2 1.1 3.2s1-.4.9-2.1v-1.7l.9.4c.6.4.7.7 1 2.8.2 2.5.8 3.6 1.6 3 .6-.2.6-.2.5-2 0-1.7 0-1.7.8-1.3.4.2.6.7.8 2.7.3 2.6.4 2.8 1.1 3 .8.3 1.2-.7 1-2.4-.1-1.6 0-1.7.5-1.4 1.6.7 1.9 1.2 2 3.4 0 2.3.5 3 1.4 2.7.7-.3.9-.8.7-2.6v-1.4c0-.1.4 0 1 .3.6.4.8.6.8 1.3.2 1.3 1.3 4.1 1.8 4.5.5.5 1.4 0 1.4-.7l-.4-1.5a6 6 0 0 1-.4-1.7c0-.7 0-.7.7-.4.9.3 1 .6 2.4 4.7.5 1.4 1.4 2 2 1.2.3-.3.4-.7.2-1l-.7-2c-.4-1.5-.4-1.6.1-1.6.9 0 1 .3 2.1 3 1.2 2.6 1.7 3.1 2.3 2.1.3-.5.3-1-.3-2.5-.5-1-.8-1.9-.7-2l1 .2c1 .2 1 .3 1.2 1 .3 1.3 1.2 3 1.8 3.6.6.5 1.5.4 1.6-.2 0-.2-.3-1.2-.8-2.1a6 6 0 0 1-.7-2h1c.7 0 .7 0 1 1 .6 1.4 1.9 3.3 2.7 3.8.6.4.8.4 1.1 0 .4-.4.3-.7-.2-1.4-1.2-2-1.7-3-1.5-3.3.3-.4 2.2-.2 2.5.3l1 2c.6 1 1.2 1.8 1.7 2.1.7.5.8.5 1.3.1.4-.4.4-.6 0-1.1l-1.8-3c0-.5 1.3-.7 1.8-.3l1 1.6c.4.7 1 1.5 1.5 1.8.5.3.7.3 1 0 .4-.5.3-.8-.4-2.1-.8-1.4-.8-1.6-.3-1.7.5-.2.7-.1 1.3.6a16 16 0 0 0 1.6 1.6c.8.7 1 .7 1.4.3.5-.5.5-.6-.2-1.5-1.1-1.6-1.1-1.6 0-1.7l1.2-.1.2 4c.2 2.3.3 4.3.2 6.2l.9-.8 3-2.8a91.3 91.3 0 0 0-3.2-19h-2.8a25.4 25.4 0 0 1-1.2-.2 46.4 46.4 0 0 1 1.7 6.4l.7 2.8-.8.2-.7.2V61c.1-1.6-1.6-2-1.9-.5-.3 1.6-.6 2-1.4 2h-.8l.7-1.6c.7-1.7.6-2.6-.3-2.7-.7 0-1.1.5-1.9 2.5-.6 1.7-1.3 2.5-1.8 2-.2 0-.2-.4.2-.8.6-.8 1-2.5.7-3-.2-.3-.5-.4-.9-.4-.5 0-.6.2-1.2 1.5-1 2.3-1.7 2.9-2.9 3-.9 0-1 0-.9-.4 0-.2.4-.8.8-1.2.8-1 .9-2.2.1-2.5-.7-.3-1.2 0-1.8 1.2-.8 1.7-1.8 2.7-2.5 2.6-.5-.1-.4-.2.3-1.3 1.2-1.9 1.6-3 1.2-3.5a1 1 0 0 0-.8-.4c-.5 0-.8.3-2.1 2.4-1.7 2.5-2.2 3-3 2.5-.2-.1-.2-.5.3-1.3 1.2-1.8 1.2-2.3.5-2.7-.5-.4-.6-.4-1.4.6l-1.4 2c-.5 1-.6 1-1.4.6-1-.3-1-.4.6-2.3.8-1.2 1-1.6 1-2-.2-.4-.4-.6-.8-.6s-.8.2-2.2 1.9c-1.6 1.9-1.7 2-2.3 1.8-.6-.3-.6-.3.5-1.3 1.3-1.2 1.6-2.4.8-2.9-.5-.2-.7-.1-2.3 1.3-2 1.8-2.3 1.9-3.4 1.3l-.8-.4 1.5-1.6c1.4-1.5 1.8-2.3 1.2-2.7-.6-.5-1.2-.3-3 1.4-2 1.8-2.4 2-3.2 1.3-.4-.4-.4-.5 1.6-2.2.5-.5.7-1.8.3-2.1-.5-.4-1.5.1-2.7 1.2l-1.6 1.4a3 3 0 0 1-1.2-.6c-.9-.5-1-.6-.6-.8l1.4-1c1-.7 1.2-1.4.4-2-.5-.5-.7-.4-2.9 1-.8.6-1.5.9-2 .8-.8-.2-.7-.4.7-1C98 51 99 50 98.7 49.3c0-.7-.8-.8-1.8-.2-.4.2-1.5.6-2.5.8-1.5.3-2 .3-2.5 0l-.5-.6 2.1-.5c2.2-.5 2.8-.8 2.6-1.7-.2-1-1-1.1-3.9-.2-2.1.6-3 .7-3.5.4-1-.5-.8-.7.6-1 2-.6 2.7-1 3-1.5.5-1-.4-1.8-1.5-1.3l-2.7.8c-2 .5-2.2.5-3-.2-1.3-1-1.2-1.4.4-1.6 2.2-.2 2.8-.5 2.8-1 0-1.3-1.6-1.5-5.2-.7-.6 0-1.1 0-1.4-.3-.7-.5-.6-1 .1-1s3-.5 3.2-.7c.2-.2 0-1.3-.2-1.5-.1-.1-1.4 0-2.9.1a8 8 0 0 1-2.8 0c-.8-1-.8-1 1-1 1.7 0 2.5-.3 3-1.2.4-.8-.4-1.1-2.7-1-3 .2-3.5.1-4.1-1-.6-.9-.5-1 .5-1 1.2-.1 3.2-.7 3.6-1 .1-.3.2-.7 0-1-.2-.5-.5-.6-2.8-.4L75 30l-.3-.9-.3-.9h.7c2.4.1 3.2 0 3.5-.4.6-1.2 0-1.5-2.7-1.6l-2.7-.1-.6-1.3-.7-1.2h4c1.2.2 2-.3 1.7-1.1-.3-.7-2.3-1.1-5-1.1-1.6 0-1.8 0-2.1-.7-.4-.8-.2-1 1-.7 2.7.6 4.2.2 3.9-1-.2-.6-1.1-1-2.5-1-.5 0-1.4 0-2.1-.2l-1.2-.3-.3-1-.3-1 1.1.6 2.1.7c.8.2 1 .1 1.4-.4.4-.7-.2-1.5-1.5-1.8-.5-.1-1.5-.7-2.2-1.2-1.2-.8-1.3-1-1.4-2V10c.1-.1.7.2 1.3.5 2.1 1.4 4 1.5 4 .1 0-.5-.2-.6-1-1-1.8-.6-4.1-2-4-2.4 0-.5.3-.4 2 .2 1 .5 1.4.5 1.8.2 1-.9.2-1.7-2.2-2.4-1.2-.3-1.6-.5-1.7-.9 0-.3.5-.4 1.9-.5a29.9 29.9 0 0 1 6.6.2h.6A14.6 14.6 0 0 1 76.6.2h-2.2a494.5 494.5 0 0 1-3-.2zm-52 22.8c-2.4 2.7-5 5.6-6.1 7.3A69.7 69.7 0 0 0 2.9 51.3L1.1 59A54.2 54.2 0 0 0 0 70a61.5 61.5 0 0 0 1.2 15.4 52 52 0 0 0 3.5 12.2 19 19 0 0 0 1.1 2.7c.2 0 .3.3.3.5-.1.4 1 2.6 2.3 5a90.1 90.1 0 0 1 1.6 2.9 45 45 0 0 0 3.6 5.5l.5.4a27 27 0 0 1 5.2 4.3l1 1.1-.3-.2.2.2v.1s-.1-.1 0-.1l.5.5h-.1c.2 0 .8.6.6.4h-.1a20 20 0 0 1 4 3 75.1 75.1 0 0 1 1.7 1.8l1.9 2.3 2.1 1.7c1 .8 2.2 1.5 3.1 2.4l.3.2.7.1c2 .4 4 1 5.8 2l2.6 1.5 2.1 1.2 2 1.2a22.2 22.2 0 0 1 9.2 2.2l1.8.8 2.9.4a26.6 26.6 0 0 1 7.3 2.6h.7l3.3-.2c.6 0 1.2 0 1.8-.2l2.8-.5c.7-.2 1.2-.2 1.9-.5l2.9-1c2.1-.8 4.3-1.3 6.5-1.6l4.6-.3a9.2 9.2 0 0 0 1.6-.2l1.1-.3.4-.2.3-.1.7-.5.1-.1a21 21 0 0 1 7.7-4.1l.6-.2.5-.2-.2.1 1.9-.8 3-1.3h.4-.3l1.3-.7 2-1.2 2.9-1.7 3-1.7.2-.1s-.1.1 0 0l1-.7.6-.4s-.1.1 0 0l.1-.1 1.1-1.6.4-.6.3-.7v.2l1.2-2.7.1-.3.4-.8.2-.2s-.6 1.2 0-.2l2-3.4 1-1.1c.5-.6 1-1.3 1.7-1.8 1.3-1 2-1.3 3-1.7-.8-.1-1.7-.2-2.6-.5-2.2 3.4-2 3.2-4.4 4.1a85.7 85.7 0 0 0-4.5 1.8 62.7 62.7 0 0 1-4.5 1.7 122.4 122.4 0 0 0-4 1.5l-4.2 1a179.6 179.6 0 0 0-7.7 1l-6.3.2a401 401 0 0 0-3.7 0c-1.4 0-7-.6-10.3-1.1-1.1-.2-1.8-.1-2 .2-.4.4-.4.4-.2-.2.5-1-.3-2.2-1.2-1.7l-.8.5-.6.5c0 .2-.1.2-.1 0 0-.1-.5-.4-1-.5-.5-.2-.9-.4-.8-.6l1.5-1.1c1.8-1.2 2.6-2.2 2.4-2.9-.3-.6-1.5-.8-2-.3 0 .2-.7.8-1.3 1.2-1.1.8-1.2.9-1.6.3-1.1-1.5-1-1.7.5-3.6 1.3-1.6 1.5-1.9 1.3-2.4-.2-.6-.3-.7-.9-.7-.6 0-.9.1-1.8 1.2-1.1 1.4-1.3 1.4-1.8.3-.3-.5-.2-.8.5-1.6 1.2-1.4 2-3.4 1.7-4.3-.2-.7-.3-.8-1-.7-.7 0-.8.2-1.7 1.7a7 7 0 0 1-1.3 1.7c-.5 0-.7-1.3-.3-2 .2-.4.7-1.6 1-2.7.3-1.4.3-2 0-2.4-.7-1-2-.4-2.4 1.2a8.3 8.3 0 0 1-.5 1.5c-.3.7-.3.7-1 0l-.6-1 1-2.1c1-2.2 1.2-3.7.4-4-.7-.3-1.6.4-2.1 1.6l-.8 1.8c-.3.7-.4.7-.7.2a5.5 5.5 0 0 0-.8-.9c-.3-.3-.3-.6.6-2.2 1.1-2.2 1.2-3.4.1-4-.8-.3-1.4.1-1.7 1.3-.5 2.4-1.3 3-2.2 1.8-.3-.5-.2-.9.3-2 1.3-3 1.4-4 .3-4.5-1-.5-1.6.2-2 2a8 8 0 0 1-.5 2s-.5 0-.9-.4c-.8-.7-1.1-1.3-1-1.6a44.8 44.8 0 0 1 1-2.8c.5-1.1.3-1.7-.4-2-.9-.5-1.5 0-1.9 1.5-.5 1.8-.7 2-1.6 1.2-.8-.6-.8-.7-.4-1.6.5-1.2.8-3.8.5-4.3-.2-.3-.6-.5-.9-.6-.7-.2-1.6.8-1.5 1.6a5 5 0 0 1-.6 2.5c0 .1-.4 0-.6-.2-.3-.2-.4-.9-.4-1.8.1-2.4 0-3.3-.5-3.7-1-.8-1.8.1-2 2 0 1.2-.1 1.5-.5 1.4-.8 0-1-.4-1.3-3.2-.4-2.8-.9-3.6-1.8-3.3-.8.4-.8.3-.7 2.5.1 1 0 1.9-.1 1.9l-1-.5c-.8-.5-1-.7-1.2-2.7-.4-2.4-.8-3-1.6-2.6-.6.2-.8.8-.7 2.5l-.1 1.2-1.1-.3c-1-.3-1-.4-1.1-1.2l-.1-2c0-1 0-1.4-.4-1.7-1-.8-1.8.3-2 2.7v1.5l-1-.3-1.1-.2-.5-2.5c-.5-2.7-1-3.4-2-2.5-.4.4-.5.9-.4 2.3l.2 1.9-.7-.2c-1-.3-1.1-.4-2.1-4-.3-1.1-1.1-1.6-1.8-1-.4.4-.4.9-.1 2.2.3 1.5.2 1.7-.2 1.6-.3 0-.7-.5-1.3-1.8a36.2 36.2 0 0 1-2.7-6.6 52.2 52.2 0 0 1-.6-28.2c.2-.2.2-.7.2-1-.2-1 .2-4 .8-7.2.2-1.2.4-2.3.3-2.5-.1-.4 1.7-2.4 4-4.7a19.6 19.6 0 0 1-1.1-.3l-1.6-.5a24.6 24.6 0 0 1-1.3-.5zM9.8 76.4h.3c.1.1-.1.2-.7.2-.5 0-.5 0 0-.2h.4zM5 77.8c.1 0 .1 0 0 .2-.2.2-.2.6-.1.9v.3c-.4-.3-.4-1.2 0-1.4a.5.5 0 0 1 .1 0zm9.1 0h.2c.2.2 0 .3-.6.3-.5 0-.5 0 0-.2h.4zm4.1 0a.5.5 0 0 1 .3.2c.2 0 .2.2.1.3h-.4c-.2-.2-.2-.4 0-.4zm-1 .2c.2 0 .1.1 0 .4-.3.2-.4.2-.3 0 0-.2.2-.4.3-.4zm-4 .4-.2.3c-.2.2-.3.2-.2 0 0-.2.2-.3.3-.3zm-3 0h.2v.3H10v-.3a1 1 0 0 1 .3 0zm16 1.2a1 1 0 0 1 .7.2c.2.1 0 .5-.5 1.1l-.8 1-.3-.9c-.3-.6-.2-.8.2-1.1.2-.2.5-.3.7-.3zm-10.6.8-.1.4c-.2.2-.3.2-.3 0l.4-.4zm6.5 0s0 .3-.2.5c-.3.3-.5.4-.4.2l.6-.6zm-2.5.1s0 .2-.3.5c-.3.4-.5.5-.4.3l.6-.7h.1zm10.5.3.5.1.9.4c0 .1-2.4 1.8-3.2 2.2-.4.2-.8.2-1 0-.4-.3-.4-.4.6-1.3 1.2-1.1 1.6-1.4 2.2-1.4zm-18.6.3-.1.4c-.2.2-.3.2-.2 0 0-.2.2-.4.3-.4zm23.6.9c.6 0 1.3.1 1.4.4 0 .2-.6.7-1.3 1.2a12 12 0 0 0-2 1.8c-.7.8-.7 1-.4 1.3.3.4.6.4 1.2.1.9-.3 4.1-2.6 4.6-3.1.2-.2.5-.2 1.1.1l.9.7-1.3 1c-1.7 1.2-2.1 1.8-1.8 2.3.5.8 1 .6 3.5-.7 1.7-1 2.2-1.2 2.5-1 .4.3.3.5-.5 1.1l-1.4 1.4c-.5.6-.6.8-.3 1.2.5.5 1.3.3 3.4-1 1.5-.8 1.6-.8 2.4-.3l.8.5-1.5 1c-1.5.9-1.8 1.5-1 2.1.4.4 1 .3 2.8-.7 1.5-.9 1.6-.9 2.3-.4 1 .7.9.9-1 1.6-1.5.5-1.8 1.1-1 1.8.5.4 2.2.2 4-.6.7-.4 1-.3 1.5.1.4.3.7.7.7.9 0 .2-.9.7-1.8 1-2 1-2.7 1.8-2 2.4.4.4 1.8.1 4.3-.8 1.2-.4 1.6-.4 2 0 .4.2.6.5.4.6l-2.2 1.1c-2.1 1-2.6 1.6-1.7 2.3.6.5 3 0 4.4-1l.9-.6 1 .9c.7.5 1.1 1 1 1.1l-1.6.5c-1.9.3-3 .8-3.1 1.5 0 .3 0 .7.2.8.4.4 2.7.2 5-.3 1.2-.3 1.4-.3 2 .3l.5.8-2 .8c-2.4.6-3 1.3-2.2 2.1.4.5.7.5 2.2 0 2.7-.7 3.6-.7 4 .1.6 1 .2 1.5-1.4 2-1.6.4-2 .8-1.9 1.5.1.4.3.5 1 .6.6.1 3-.5 3.7-1 .2 0 .5.2 1 .9l.4 1c0 .2-1 .5-2 .8-1.8.5-2.3.8-2.3 1.6 0 .5 0 .5 0 0-.2-.3-.5-.6-1.7-1.2a41 41 0 0 1-2.8-1.5 561.7 561.7 0 0 0-4.1-2.5c-3-1.7-9.2-6.3-11.2-8.1a104 104 0 0 1-11.5-12 67.2 67.2 0 0 1-2.6-3c-1.1-1.4-1.5-1.7-2-1.7-.4 0-.3 0 .4-.4.7-.3 4-2.3 5-3.1a2 2 0 0 1 1-.3zm-9.5 2.4h.2c.2.1 0 .2-.7.2-.5 0-.5 0 0-.2a3.7 3.7 0 0 1 .5 0zm44 31.2c.4 0 .5.1.7.5.3.3.4.8.3.9-.1.4-1.8.2-2.9-.3l-.9-.4.8-.2c1.1-.4 1.7-.5 2-.5zm60.3 1-.3.5.3-.6zm.6 0a7.7 7.7 0 0 0-.4.9l.4-.9zm-63 .5h.2c.2.2 0 .3-.6.2-.6 0-.6 0 0-.1h.4zm2.4 2h.3c.1.2-.1.3-.7.3-.5 0-.5 0 0-.2h.4zm5.8 3.5c.1 0 .2.2 0 .5 0 .4-.1.4-.1 0l.1-.5zm46.3 2.9-.2.2h.1c0-.1.1-.1 0-.1l.1-.1zm-48.4 1.7v.6c.2.9.2 1-.3.8-.2 0-.2 0 0 0l.2-.8v-.6zm-45.3.2a.6.6 0 0 0 0 .1zm53.2.7c.2 0 .1.2 0 .4-.3.2-.4.2-.3 0 0-.2.2-.3.3-.4zm-7.4 3v.4c.2.6.2.8 0 .7V131zm-40.3 1h.3-.3zm0 0h.3-.4zm46.2 3.1h.2c.2.1 0 .2-.6.2s-.6 0 0-.1l.4-.1zm-33 2.9h.2s-.2 0 0 0H47zm.1 0h.2-.2zm27.1 1 .1.5v.6l-.1-.6v-.4zm22.2.1-.1.2.1-.1zM58 141.1h.4a2 2 0 0 0-.4 0z"/><path fill="#f65d5d" d="M69.5.2H69l-2.4.1-1.1 1.3L63 4.3h.5c3.3-.4 3.3-.4 3.4.4.1 1 0 1-2 2-1.7.7-2.5 1.4-2.4 2 .2.5 1 .6 2.2.2l1.2-.5-1 1-1.9 1.4c-.9.6-1 1.4-.4 1.9.4.3 1.8-.1 2.4-.8a5.8 5.8 0 0 1 1-.9l.4-.3.1 1c0 .7 0 1-.7 1.8-.5.5-1.3 1.7-1.9 2.7-1 1.8-1.1 2.7-.1 2.8.6 0 .7 0 2-2.2l1-1.4.2 1.1c.2 1.1.2 1.3-1.3 3.8-1.6 2.7-1.8 3.2-1.2 3.7.6.4 1.4-.3 2.3-2a6 6 0 0 1 1-1.4s.4.4.6 1c.4.9.4 1.1-.6 3.4l-1.3 2.9c-.2.3-.1.6.2 1 .7.7 1.3.2 2.3-2l1-1.8.5 1c.3.8.3 1-.7 3.6-1.3 3-1.4 4.3-.4 4.5.7.2.8.1 1.4-1.8.6-1.9 1-3 1.3-2.8l.5 1.1c.2.7.2 1.2-.2 2-2.2 4.6-2.5 5.8-1.2 5.7.8 0 .7 0 1.7-2.2l1-2c.1 0 .4.3.6.8.4.7.3 1-.4 2.6-1.7 3.8-2 5.2-1 5.5.7.2 1-.2 1.6-1.8l1-2.5c1-1.5 1.2-.5.6 1.8-1 3.7-1.3 5-.8 5.3.7.6 1.3 0 1.8-1.7L78 42c0-.5.5-1.4.7-1.3l.9 1.3c.7 1.1.8 1.2.3 3.4-.8 3.3-.7 4.7.3 4.9.9.2 1-.2 1-1.5 0-1.1.7-3.6 1-3.6 0 0 .5.3.9.8.6.7.7 1 .5 2.8-.3 2.5-.2 3.6.5 4 .9.5 1.4-.3 1.4-2.2l.1-1.8c.1 0 .8.4 1.5 1l1.3 1.3-.4 1.7c-.4 2.1-.3 3.5.3 3.7.6.2 1-.4 1.5-2.4.4-1.8.7-2.1 1.4-1.5.4.3.5 1.1.6 2.7 0 2.4.3 3.2 1.1 3.2s1-.4.9-2.1v-1.7l.9.4c.6.4.7.7 1 2.8.2 2.5.8 3.6 1.6 3 .6-.2.6-.2.5-2 0-1.7 0-1.7.8-1.3.4.2.6.7.8 2.7.3 2.6.4 2.8 1.1 3 .8.3 1.2-.7 1-2.4-.1-1.6 0-1.7.5-1.4 1.6.7 1.9 1.2 2 3.4 0 2.3.5 3 1.4 2.7.7-.3.9-.8.7-2.6v-1.4c0-.1.4 0 1 .3.6.4.8.6.8 1.3.2 1.3 1.3 4.1 1.8 4.5.5.5 1.4 0 1.4-.7l-.4-1.5a6 6 0 0 1-.4-1.7c0-.7 0-.7.7-.4.9.3 1 .6 2.4 4.7.5 1.4 1.4 2 2 1.2.3-.3.4-.7.2-1l-.7-2c-.4-1.5-.4-1.6.1-1.6.9 0 1 .3 2.1 3 1.2 2.6 1.7 3.1 2.3 2.1.3-.5.3-1-.3-2.5-.5-1-.8-1.9-.7-2l1 .2c1 .2 1 .3 1.2 1 .3 1.3 1.2 3 1.8 3.6.6.5 1.5.4 1.6-.2 0-.2-.3-1.2-.8-2.1a6 6 0 0 1-.7-2h1c.7 0 .7 0 1 1 .6 1.4 1.9 3.3 2.7 3.8.6.4.8.4 1.1 0 .4-.4.3-.7-.2-1.4-1.2-2-1.7-3-1.5-3.3.3-.4 2.2-.2 2.5.3l1 2c.6 1 1.2 1.8 1.7 2.1.7.5.8.5 1.3.1.4-.4.4-.6 0-1.1l-1.8-3c0-.5 1.3-.7 1.8-.3l1 1.6c.4.7 1 1.5 1.5 1.8.5.3.7.3 1 0 .4-.5.3-.8-.4-2.1-.8-1.4-.8-1.6-.3-1.7.5-.2.7-.1 1.3.6a16 16 0 0 0 1.6 1.6c.8.7 1 .7 1.4.3.5-.5.5-.6-.2-1.5-1.2-1.6-1.2-1.6.1-1.7l1.3-.1V66l.3 5.3v.6a26.6 26.6 0 0 1 1.5-1.3 20.1 20.1 0 0 1 2.1-1.4 23.1 23.1 0 0 0-.2-2 241.8 241.8 0 0 1-.4-3c-.7-5-1.6-9.4-2.2-11a25.7 25.7 0 0 1-.3-1 24 24 0 0 1-4.2-1.7l-.2-.2a67.8 67.8 0 0 1 2.4 8.3c.6 2.4.6 2.6-.3 2.8l-.7.2V61c.1-1.6-1.6-2-1.9-.5-.3 1.6-.6 2-1.4 2h-.8l.7-1.6c.7-1.7.6-2.6-.3-2.7-.7 0-1.1.5-1.9 2.5-.6 1.7-1.3 2.5-1.8 2-.2 0-.2-.4.2-.8.6-.8 1-2.5.7-3-.2-.3-.5-.4-.9-.4-.5 0-.6.2-1.2 1.5-1 2.3-1.7 2.9-2.9 3-.9 0-1 0-.9-.4 0-.2.4-.8.8-1.2.8-1 .9-2.2.1-2.5-.7-.3-1.2 0-1.8 1.2-.8 1.7-1.8 2.7-2.5 2.6-.5-.1-.4-.2.3-1.3 1.2-1.9 1.6-3 1.2-3.5a1 1 0 0 0-.8-.4c-.5 0-.8.3-2.1 2.4-1.7 2.5-2.2 3-3 2.5-.2-.1-.2-.5.3-1.3 1.2-1.8 1.2-2.3.5-2.7-.5-.4-.6-.4-1.4.6l-1.4 2c-.5 1-.6 1-1.4.6-1-.3-1-.4.6-2.3.8-1.2 1-1.6 1-2-.2-.4-.4-.6-.8-.6s-.8.2-2.2 1.9c-1.6 1.9-1.7 2-2.3 1.8-.6-.3-.6-.3.5-1.3 1.3-1.2 1.6-2.4.8-2.9-.5-.2-.7-.1-2.3 1.3-2 1.8-2.3 1.9-3.4 1.3l-.8-.4 1.5-1.6c1.4-1.5 1.8-2.3 1.2-2.7-.6-.5-1.2-.3-3 1.4-2 1.8-2.4 2-3.2 1.3-.4-.4-.4-.5 1.6-2.2.5-.5.7-1.8.3-2.1-.5-.4-1.5.1-2.7 1.2-.7.7-1.4 1.3-1.6 1.3-.1.1-.7-.1-1.2-.5-.9-.5-1-.6-.6-.8l1.4-1c1-.7 1.2-1.4.4-2-.5-.5-.7-.4-2.9 1-.8.6-1.5.9-2 .8-.8-.2-.7-.4.7-1C98 51 99 50 98.7 49.3c0-.7-.8-.8-1.8-.2-.4.2-1.5.6-2.5.8-1.5.3-2 .3-2.5 0l-.5-.6 2.1-.5c2.2-.5 2.8-.8 2.6-1.7-.2-1-1-1.1-3.9-.2-2.1.6-3 .7-3.5.4-1-.5-.8-.7.6-1 2-.6 2.7-1 3-1.5.5-1-.4-1.8-1.5-1.3l-2.7.8c-2 .5-2.2.5-3-.2-1.3-1-1.2-1.4.4-1.6 2.2-.2 2.8-.5 2.8-1 0-1.3-1.6-1.5-5.2-.7-.6 0-1.1 0-1.4-.3-.7-.5-.6-1 .1-1s3-.5 3.2-.7c.2-.2 0-1.3-.2-1.5-.1-.1-1.4 0-2.9.1a8 8 0 0 1-2.8 0c-.8-1-.8-1 1-1 1.7 0 2.5-.3 3-1.2.4-.8-.4-1.1-2.7-1-3 .2-3.5.1-4.1-1-.6-.9-.5-1 .5-1 1.2-.1 3.2-.7 3.6-1 .1-.3.2-.7 0-1-.2-.5-.5-.6-2.8-.4L75 30l-.3-.9-.3-.8h.7c2.4 0 3.2 0 3.5-.5.6-1.2 0-1.5-2.7-1.6l-2.7-.1-.6-1.3-.7-1.2h4c1.2.2 2-.3 1.7-1.1-.3-.7-2.3-1.1-5-1.1-1.6 0-1.8 0-2.1-.7-.4-.8-.2-1 1-.7 2.7.6 4.2.2 3.9-1-.2-.6-1.1-1-2.5-1-.5 0-1.4 0-2.1-.2l-1.2-.3-.3-1-.3-1 1.1.6 2.1.7c.8.2 1 .1 1.4-.4.4-.7-.2-1.5-1.5-1.8a6 6 0 0 1-2.2-1.2c-1.2-.8-1.3-1-1.4-2V10c.1-.1.7.2 1.3.5 2.1 1.4 4 1.5 4 .1 0-.5-.2-.6-1-1-1.8-.6-4.1-2-4-2.4 0-.5.3-.4 2 .2 1 .5 1.4.5 1.8.2 1-.9.2-1.7-2.2-2.4-1.4-.4-1.6-.5-1.7-1 0-.4.4-.5 3-.5a93 93 0 0 1 3.4 0l-1-1-1.7-1.3-.5-.4h-.1a39.2 39.2 0 0 1-2.3-1zM3.8 72.1a17.5 17.5 0 0 1-3.6 3v1.7a84 84 0 0 0 1.2 8c1.3.6 2.7 1.2 4 2a43.9 43.9 0 0 0-.5-2.2c-.6-1.9-1-7.6-1-12.5zm19.6 0a1 1 0 0 0-.5.3c-.4.3-.4.8-.1 2.1l.3 1.8-1-.3c-1-.3-1-.3-1.8-2-1-1.8-1.8-2.2-2.5-1.3-.4.5-.3 2 .2 2.4.4.3.1.6-.5.6-.4 0-.7-.3-1.3-1.3-1-1.5-1.8-1.8-2.5-1-.3.4-.3.7 0 1.5.4 1 .4 1-.3 1s-.7 0-1.5-1.2c-.8-1.4-1.6-1.7-2.3-1-.4.6-.2 1.7.4 2.2.4.4.2.7-.7.7-.6 0-.8 0-1.2-.8-.7-1.2-1.4-1.7-2.1-1.4-.7.2-1 1.5-.4 2l.5.8c0 .3 0 .4-.3.4-1.1.1-1.3 1.7-.3 1.9.6 0 .4.6-.3 1.5-1 1.2.3 2.4 1.5 1.4.4-.3 1-1.3 1.5-2.1.8-1.5 1-1.6 1.6-1.8.7-.1.7-.1 0 1.3-1 1.6-1.1 2.6-.6 3.1.6.5 1 .1 2.6-2.5 1.3-2.2 1.5-2.5 2-2.5.6 0 .6 0 .3.6l-.7 1.3c-.4.8-.4 1.4 0 1.8.7.5 1.3 0 2.5-1.8 1-1.6 1.2-1.8 1.8-1.9 1.1-.1 1.1.1 0 1.5-.8 1-1.1 1.5-1.1 2 0 .6.3.8 1 .7.4 0 1-.5 2.2-2l1.5-1.8 1 .1 1 .3s-.6 1-1.5 2l-1.5 2 .5.5c.7.8 1.9.1 3.7-2 1.3-1.7 1.7-2 2.4-1.4.2.2 0 .6-1.2 2-1.3 1.4-1.5 1.7-1.4 2.1.1.5.3.5.9.5.6 0 1-.4 2.1-1.5 1.7-1.9 2.4-2.4 3-2.1l.8.3c.6.2.4.3-2 2-1.4.8-1.6 1-1.6 1.5 0 .7.8 1.2 1.6.8.7-.3 4-2.4 5-3.1.5-.5 2.3-.4 2.4.1 0 .2-.6.7-1.3 1.2a12 12 0 0 0-2 1.8c-.7.8-.7 1-.4 1.3.3.4.6.4 1.2.1.9-.3 4.1-2.6 4.6-3.1.2-.2.5-.2 1.1.1l.9.7-1.3 1c-1.7 1.2-2.1 1.8-1.8 2.3.5.8 1 .6 3.5-.7 1.7-1 2.2-1.2 2.5-1 .4.3.3.5-.5 1.1l-1.4 1.4c-.5.6-.6.8-.3 1.2.5.5 1.3.3 3.4-1 1.5-.8 1.6-.9 2.4-.3l.8.5-1.5 1c-1.5.9-1.8 1.5-1 2.1.4.4 1 .3 2.8-.7 1.5-.9 1.6-.9 2.3-.4 1 .7.9.9-1 1.6-1.5.5-1.8 1.1-1 1.8.5.4 2.2.2 4-.6.7-.4 1-.3 1.5.1.4.3.7.7.7.9 0 .2-.9.7-1.8 1-2 1-2.7 1.8-2 2.4.4.4 1.8.1 4.3-.8 1.2-.4 1.6-.4 2 0 .4.2.5.5.4.6l-2.2 1.1c-2.1 1-2.6 1.6-1.7 2.3.6.5 3 0 4.4-1l.9-.6 1 .9c.7.5 1.1 1 1 1.1l-1.6.5c-1.9.3-3 .8-3.1 1.5 0 .3 0 .7.2.8.4.4 2.7.2 5-.3 1.2-.3 1.4-.3 2 .3l.5.8-2 .8c-2.4.7-3 1.3-2.2 2.1.4.5.7.5 2.2 0 2.7-.7 3.6-.7 4 .1.6 1 .2 1.5-1.4 2-1.6.4-2 .8-1.9 1.5.1.4.3.5 1 .6.6.1 3-.5 3.7-1 .2 0 .5.2 1 .9l.5 1-2 .7c-2 .6-2.4 1-2.3 1.7 0 1 .7 1 3 .3 2.2-.7 2.7-.6 3 .5.1.5 0 .6-2 .7-2 0-2.6.3-2.5 1.2 0 .8.6 1 3 .8h2.4l.3.9.2.8-1.9-.1c-1.9-.1-2.4 0-2.6.7-.4.9 1 1.5 3.5 1.5 1.6 0 1.8.1 1.8.8 0 .3-.4.5-1.8.5-2 .1-2.4.5-2 1.6.1.6.2.7 1.4.5 2.5-.3 3.3.2 3.3 1.7 0 .4-.2.5-1.5.2-1.2-.3-1.5-.3-1.8.2-.6.9 0 1.5 2 2 1.4.4 1.7.5 1.8 1 .1.6-.3 1.1-.7.8l-1.3-.6c-1-.3-1.2-.3-1.6.2-.7.8-.2 1.5 1.5 2.2 2 .8 2.4 1 2.5 1.5.1.9-.4 1-1.8.5-1.8-.5-2.4-.5-2.7.2-.3.8.7 1.5 2.6 2l1.5.4.2 1 .4 1.2c.4.3-.7.4-3.5.3a67.2 67.2 0 0 1-5-.3 7.2 7.2 0 0 1-1.6 3.5 74.2 74.2 0 0 0 17.5-.1 9 9 0 0 1-.3-3.5l-2 .2c-2.6.2-2.8.2-2.6-.4l.3-1.5v-1l1.4-.2c1-.2 1.6-.5 2-1 .6-.6.6-.8.2-1.2-.4-.4-.8-.5-2-.3s-1.6.2-1.6-.1c-.1-.3.3-.6 1.6-1.2 1.4-.7 1.8-1 2-1.5.6-1.5-.8-1.9-2.6-.8-1 .6-1.1.5-1.5-.3-.3-.7-.1-.9 1.7-1.7 1.8-.9 2.9-1.8 2.8-2.5-.2-.9-1.2-.8-3.2 0l-1.8.9-.2-.8c-.2-.7-.2-.8.8-1.2 1.4-.6 2.8-2 2.7-2.7-.2-1-1-1.2-2.3-.4-1.5.8-1.8.9-2 .2 0-.6 0-.6 1.4-1.6 1.8-1 2.5-2 2.3-2.7-.3-.8-1-.8-2.7.3l-1.4.9-.3-1-.4-1 1.5-1c2-1.2 2.7-2.2 2.5-2.9-.3-.6-1.5-.8-2-.3 0 .2-.7.8-1.3 1.2-1.1.8-1.2.9-1.6.3-1.1-1.5-1-1.7.5-3.6 1.3-1.6 1.5-1.9 1.3-2.4-.2-.6-.3-.7-.9-.7-.6 0-.9.1-1.8 1.2-1.1 1.4-1.3 1.4-1.8.3-.3-.5-.2-.8.5-1.6 1.2-1.4 2-3.4 1.7-4.3-.2-.7-.3-.8-1-.7-.7 0-.8.2-1.7 1.7a7 7 0 0 1-1.3 1.7c-.5 0-.7-1.3-.3-2 .2-.4.7-1.6 1-2.7.3-1.4.3-2 0-2.4-.7-1-2-.4-2.4 1.2a8.3 8.3 0 0 1-.5 1.5c-.3.7-.3.7-1 0l-.6-1 1-2.2c1-2.1 1.2-3.6.4-4-.7-.2-1.6.5-2.1 1.7l-.8 1.8c-.3.7-.4.7-.7.2a5.5 5.5 0 0 0-.8-.9c-.3-.3-.3-.6.6-2.2 1.1-2.2 1.2-3.4.1-4-.8-.3-1.4.1-1.7 1.3-.5 2.4-1.3 3-2.2 1.8-.3-.5-.2-.9.3-2 1.3-3 1.4-4 .3-4.5-1-.5-1.6.2-2 2a8 8 0 0 1-.5 2s-.5 0-.9-.4c-.8-.7-1.1-1.3-1-1.6a44.2 44.2 0 0 1 1-2.8c.5-1.1.3-1.7-.4-2-.9-.5-1.5 0-1.9 1.5-.5 1.8-.7 2-1.6 1.2-.8-.6-.8-.7-.4-1.6.5-1.2.8-3.8.5-4.3-.2-.3-.6-.5-.9-.6-.7-.2-1.6.8-1.5 1.6a5 5 0 0 1-.6 2.5c0 .1-.4 0-.6-.2-.3-.2-.4-.9-.4-1.8.1-2.4 0-3.3-.5-3.7-1-.8-1.8.1-2 2 0 1.2-.1 1.5-.5 1.4-.8 0-1-.4-1.3-3.2-.4-2.8-.9-3.6-1.8-3.3-.8.4-.8.3-.7 2.5.1 1 0 1.9-.1 1.9l-1-.5c-.8-.5-1-.7-1.2-2.7-.4-2.4-.8-3-1.6-2.6-.6.2-.8.8-.7 2.5l-.1 1.2-1.1-.3c-1-.3-1-.4-1.1-1.2l-.1-2c0-1 0-1.4-.4-1.7-1-.8-1.8.3-2 2.7v1.5l-1-.3-1.1-.2-.5-2.5c-.5-2.7-1-3.4-2-2.5-.4.4-.5.9-.4 2.3l.2 1.9-.7-.2c-1-.3-1.1-.4-2.1-4-.3-.8-.7-1.3-1.3-1.2z"/><path fill="#fb2b2b" d="M69.5.2H69l-2.4.1-1.1 1.3L63 4.3a109.6 109.6 0 0 0-.1 0h.3l3.6-.4v.8c0 1-.2 1.2-2.2 2.1-1.9.9-2.4 1.4-2 2 .3.5.9.4 2.5-.3 1.6-.6 1.4-.3-.8 1.4-2.1 1.6-2.2 1.8-2 2.3.2.9 1.3.6 2.6-.5.5-.5 1.1-1 1.3-1l.2 1.2c0 .9-.1 1.2-1.2 2.5-.7.8-1.5 2-1.8 2.7-.5 1-.5 1.3 0 1.6.4.4.4.4 1.8-1.4.8-1 1.5-1.8 1.6-1.7l.2 1.1c.1 1 0 1.4-1.4 3.8C64 23.4 64 24.1 65 24c.5 0 .7-.3 1.4-1.6 1.4-2.3 1.4-2.3 1.9-.8.5 1.2.4 1.2-.6 3.6-1.4 3-1.4 3.2-1 3.7.6.4 1.4-.5 2.3-2.3l1-1.6.6 1c.4 1 .4 1.2-.6 3.7-1.2 2.9-1.3 4-.6 4.3.6.2 1-.4 1.8-2.8.3-.9.7-1.6.8-1.7.2 0 .5.4.7.9.4 1 .5.9-1.3 4.8-1 2-1 2.7-.3 3 .5.1 1-.5 2-2.6.4-1 .8-1.7.9-1.7.3 0 1 1.8 1 2.3l-1 2.2c-1.1 2.4-1.5 3.8-1 4.3l.7.2c.2 0 .8-1.3 1.4-2.7l1.2-2.6c.6 0 .6 1.3-.2 4-.8 3.4-.9 4-.2 4.3.7.3 1.2-.6 1.8-3 .3-1.4.7-2.5.8-2.5.2 0 1.7 2 1.8 2.6l-.4 2.5c-.6 2.3-.6 4 .1 4.3.6.4 1.2-.2 1.2-1.1 0-.8.6-3.9.9-3.9l.9.9c.7.8.8 1 .6 3.4-.2 2.6 0 3.5 1 3.5.7 0 .8-.3.8-2 0-1 .1-1.8.2-1.9l1.4.8c1.5 1.1 1.6 1.3 1.1 3.2-.4 2-.4 3 0 3.3.7.6 1 0 1.6-2 .3-1.2.6-2 .7-2 .1-.1.5.1.8.4.5.4.7.9.6 2 0 2.2.3 3.6.8 3.8.7.2 1.1-.6 1.1-2.3v-1.7l.8.5c1 .6 1.2 1 1.4 3.5 0 1.5.2 2.1.6 2.3.8.6 1.3-.2 1.2-2l-.1-1.6.8.3c.7.4.8.6 1 2.8.3 1.8.6 2.5 1 2.8 1 .6 1.3-.1 1-2.1l-.3-1.9.7.4c2 1 2.2 1.4 2.2 3.6 0 1.1 0 2.1.2 2.2 1.1 1 2 0 1.8-2v-1.6c.1-.1.5 0 1 .3.6.3.9.6 1 1.2 1.2 4.5 1.8 5.5 2.8 4.4.3-.4.3-.8-.2-1.8l-.5-2c0-.8 0-.8 1-.4.9.4 1 .5 1.8 3 .6 1.7 1 2.6 1.5 3 .9.5 1.3-.2.9-1.5a58.7 58.7 0 0 1-.8-2.2c-.3-1-.3-1 .3-1 1 0 1.4.6 2.5 3.1.9 2.2 1 2.5 1.6 2.4.8 0 .8-.8 0-2.8-.3-.9-.6-1.7-.5-1.9h1c1 .4 1 .4 1.6 2 .9 2.5 2 3.6 2.7 2.8.2-.3 0-1-.6-2.5l-1-2h1c.6 0 1 0 1.1.2 1.8 3.7 2.9 5 3.7 5 .8-.2.7-1-.3-2.5-.5-.7-1-1.6-1-2l-.3-.7h2.7l.8 1.7c.5.9 1.1 2 1.4 2.3.6.8 1.6 1.1 2 .7.3-.4 0-1.2-.5-1.7-.6-.4-1.7-2.8-1.4-3h1.2c1 .2 1 .2 1.4 1.3.7 1.6 2 2.9 2.4 2.6.7-.4.7-.9-.1-2.2-.5-.7-.8-1.4-.8-1.5l.8-.4c.7-.1.7-.1 1.4 1 1 1.5 1.5 2 2.2 1.8.8-.2.8-1 0-2l-.8-1c0-.2.5-.3 1.1-.5l1.2-.2.1 1.5.3 6a26.5 26.5 0 0 1 3.6-2.7 23.1 23.1 0 0 0-.2-2l-.4-3c-.7-5-1.6-9.4-2.2-11l-.3-1a24 24 0 0 1-4.2-1.7l-.2-.2a68.4 68.4 0 0 1 2.8 10l.2 1.2H139l.1-.8c0-.5 0-.9-.4-1-.6-.5-1.3.2-1.7 1.6-.3 1-.3 1-1.1 1-1 0-1.1-.3-.7-.9.6-.7 1-2.5.8-3-.7-1-1.2-.5-2.5 2.5-.5 1.2-.9 1.6-1.2 1.8-1 .2-1 0-.5-1 .7-1.1.9-2.5.4-3-.4-.7-1-.3-1.6 1-.3.8-.9 1.7-1.3 2.2-.6.8-.8 1-1.7 1l-1.1-.2c-.1 0 .1-.5.5-1 1-1.1 1.2-2.2.6-2.7-.5-.4-.6-.3-1.2.4l-1.4 2c-.7 1.2-.9 1.3-1.5 1.2-.3 0-.6-.2-.7-.3l1-1.7c1.2-2 1.3-2.5.7-3-.6-.5-1.4 0-1.8.8a27 27 0 0 1-1.2 2.2c-1 1.4-1.2 1.6-1.7 1.7-1 .1-1.3-.2-1-.9l.8-1.4c.7-1.2.5-2-.4-2-.6.1-.7.3-1.7 1.9-1 1.9-1.3 2-2.3 1.5l-.7-.4 1.3-1.5c1-1.1 1.2-1.7 1.2-2.1 0-.7-.2-.9-1-.8-.5 0-.8.3-2 2l-1.4 1.8-.7-.2-.7-.4 1-.9c1-.9 1.5-2 1.2-2.5-.4-.7-1.1-.4-2.4.8-1.7 1.7-2.4 2-3.6 1.5l-1-.5 1.3-1.3c1.7-1.5 2.1-2.3 1.4-2.8-.6-.6-1.1-.3-2.8 1.2-1.8 1.8-2.3 2-3 1.4l-.6-.5 1.3-1.5c1.4-1.5 1.4-1.5.9-2-.6-.7-1.1-.5-2.7 1a6 6 0 0 1-1.6 1.3l-1.2-.6c-1-.7-1-.7.7-1.9 1-.5 1.3-1.5.8-2-.6-.4-1-.2-2.9 1-1.5 1-2 1.1-2.7.6-.2-.2.2-.4 1.2-.9 1.9-.7 2.6-1.6 2-2.3-.5-.4-.7-.4-1.8.1-1.7.8-4 1.1-5 .7-.9-.5-.4-.9 1.4-1.2 2.2-.3 2.8-.6 3-1.3a2 2 0 0 0-.3-1c-.5-.3-3 .2-5.2 1-1.3.5-1.4.5-2.1-.1l-.7-.8 1.8-.5c1.4-.2 1.8-.4 2.2-1 .4-.6.5-1 .2-1.2-.2-.3-1-.2-3 .4l-2.8.8-1-.8c-1.7-1.4-1.6-1.6.6-1.8 1.9-.2 2.8-.8 2.4-1.5-.4-.6-1.5-.7-3.8-.3-1.6.3-2.3.3-2.7 0-.8-.7-.6-1 1.1-1.2 1.8-.4 2.6-1 2-1.8-.3-.3-1.2-.3-3 0-2.3.2-2.6.1-3-.4l-.5-.7 2-.3c1.8 0 2.2-.2 2.6-.7.7-1 0-1.6-1.8-1.3-1.5.3-3.8.2-4.3-.2l-.7-1.1-.4-.9 1.7-.2c2.2-.2 2.8-.4 3-1.1.1-1-.6-1.1-3-.8L75 30l-.4-1-.4-1h1.3c1.7.2 3 0 3.2-.7.2-.7-.6-1-2.6-1.1-2.8 0-3-.1-3.7-1.6l-.6-1.3h1.4l2.4.1c.7.2 1.3.2 1.5 0 .5-.2.5-1 0-1.4-.4-.4-3.7-.7-5.1-.6-1.1.1-1.1.1-1.5-.8-.3-.5-.4-1-.3-1l1 .1c1.7.4 3.6.4 3.9 0 .5-.5 0-1.3-.8-1.5-4.8-.6-5-.7-5.1-2.1 0-.7 0-.7 1-.2 1.3.7 3 1 3.3.5l.2-.7c-.1-.4-.5-.7-1.7-1.2-1-.3-2-1-2.6-1.4-.9-.7-1-1-1-2l.2-1.2 1.1.6c1.6 1 3.2 1.3 3.8.6.4-.5.4-.5-.4-1-.5-.3-1.6-1-2.6-1.4-1.7-.9-2.2-1.3-1.8-1.8.2-.2.8-.1 1.6.2 2 1 3 .7 2.5-.5-.2-.5-.7-.7-3.1-1.5-.8-.3-1-.4-1-.8 0-.5.4-.6 3-.6a103.5 103.5 0 0 1 3.4 0l-1-1-1.7-1.3-.5-.4h-.1a39.2 39.2 0 0 1-2.3-1zM3.8 72a17.4 17.4 0 0 1-3.6 3v1.7a84 84 0 0 0 1.2 8c1.3.6 2.7 1.2 4 2a43.8 43.8 0 0 0-.5-2.2c-.6-1.9-1-7.6-1-12.5zm19.6 0c-.8.1-1 1-.5 3l.3 1h-2l-1-1.7c-.9-1.8-1.4-2.3-2-1.7-.6.5-.6 1.5 0 2.3.4.7.2.9-.7.7-.6-.1-.9-.4-1.3-1-.8-1.2-1.3-1.7-1.9-1.6-.6.2-.8.9-.4 1.8l.3.9h-.8c-.7.1-.8 0-1.5-.9-1-1.4-1.2-1.5-1.8-1.3-.8.3-.9 1-.2 2l.6.9-.9.1-1 .2-.8-1.2c-.6-1-.8-1.2-1.3-1.2-1.1 0-1.3 1.2-.3 2.7.3.4.3.5-.3.5-1.2.2-1.3.9-.4 1.6.7.6.7.7.2 1.3-.7.8-.7 1.7-.2 2 .6.4 1.8-.8 2.7-2.5.6-1 .8-1.3 1.4-1.5 1-.2 1-.2-.2 2.2-.6 1.5-.6 2.1.3 2.2.6 0 .7-.1 1.7-2 1.5-2.6 1.9-3 2.7-3 .6 0 .6 0-.1 1.2-1 1.5-1 2.3-.2 2.5.6 0 .7 0 2-1.9 1.5-2 1.5-2 2.3-1.9h.8L18 79c-1.2 1.5-1.5 2.2-1 2.8.6.6 1.5 0 3-2l1.2-1.7 1 .1c1.7.3 1.7.4 0 2.4a10 10 0 0 0-1.6 2c-.1.7.4 1 1.3.7.7-.2 1.1-.6 2.3-2 1.2-1.7 1.4-1.9 2-1.8 1.1.3 1.1.5-.4 2-1.7 1.8-1.8 2-1.2 2.6.6.5 1.5.1 2.6-1.2 1.6-2 2.2-2.3 3.5-2l1.2.2-.8.7-2 1.4c-1.4.9-1.7 1.5-1.1 2 .5.4 1 .3 2.3-.7.6-.4 1.4-.9 1.8-1a8 8 0 0 0 1.5-1.1c.7-.6 1-.7 1.7-.6 1.5.4 1.6.6.6 1.5l-1.2 1c-.3 0-.8.4-1.3.8-.6.6-.8.9-.7 1.3 0 .5.2.5.8.4a18 18 0 0 0 4.6-2.8c.7-.6.9-.6 1.7-.2l1 .6c0 .1-.6.6-1.4 1.1-1.7 1.2-2 1.5-1.9 2.1.1.7 1 .9 1.8.4 2-1.3 3.8-2.2 4.3-2 .3.1.5.3.5.4 0 .1-.6.7-1.4 1.2-1.7 1.3-2 1.8-1.3 2.2.6.4 1.2.2 3.4-1.1 1.3-.8 1.5-.9 2.2-.5 1 .6 1 1-.3 1.6-1.3.8-1.8 1.5-1.6 2 .4.6 1.4.4 3.1-.6l1.6-.9.8.8.9.7-1 .5c-.5.2-1.2.5-1.6.5-.7.2-1 1-.4 1.6.4.4 2 .1 4-.7.7-.3 1-.3 1.6.3l.8.9-2 1.1c-1.6.7-2 1-2 1.4-.2 1 .4 1.2 2.7.4 3.5-1.1 3.6-1.1 4-.3l.3.6-2.2 1c-2.2 1-2.6 1.4-2.2 2 .3.8 1.2.7 3-.2 2.6-1.1 2.6-1.1 2.7-1l1 1c.7.5 1 .8.7 1a6 6 0 0 1-2 .6 7 7 0 0 0-2.2.7c-.3.5-.4 1.2-.1 1.5.2.2 2.8 0 4.7-.5 1.5-.3 1.7-.3 2.1.3.3.3.6.7.6.9 0 .2-.9.6-2 .9-2.2.6-2.4.7-2.5 1.4-.1.9.8 1 3.3.4s2.6-.6 3.2 0l.6 1.1c0 .4-1 1-2.7 1.5-1.2.4-1.5 1-.8 1.5.5.5 1.5.3 3.8-.5l1-.3.4 1 .5 1-2 .8c-2.2.8-2.2.8-2.1 1.6 0 .8.6.9 2.9.2 2.2-.7 2.7-.6 3 .6.1.6 0 .6-2 .8-1.4 0-2.2.3-2.3.5l-.2.5c-.2.3 1 1 1.8.8h2.3l1.5-.1.3 1 .2 1h-1a61.2 61.2 0 0 1-2 0c-1.1-.1-1.8.3-1.6 1 .1.5 1.2.8 3 .9 1.7 0 2.4.3 2.4 1.1 0 .4-.4.5-1.7.5-1.9 0-2.5.4-2.2 1.4.2.5.4.5 1.3.4a10 10 0 0 1 2.1 0h1l.2 1.2c0 .7 0 1.2-.2 1.2-1-.4-2.7-.5-3-.3-.2.2-.3.6-.1.9.2.5.5.6 2 1l1.8.5v1.8l-1.6-.6c-1.3-.4-1.5-.5-2 0-.5.6 0 1.2 2 2.1 1.6.7 2.3 1.4 2 2.1 0 .5-.5.5-2.2 0-1.2-.4-2-.3-2.2.4-.2.6 1 1.2 2.8 1.7l1.2.3.2 1c.1.7.3 1.2.4 1.3.4.3-.7.4-3.5.3a67.2 67.2 0 0 1-5-.3 7.2 7.2 0 0 1-1.6 3.5c3.3.4 9.3.6 13 .4a83.7 83.7 0 0 0 4.5-.5 9 9 0 0 1-.3-3.5l-2 .2-2.8.2.3-.8c.1-.4.2-1 .1-1.3-.1-.7 0-.9 2-1.5 1.6-.5 2.1-1 1.7-1.8-.2-.3-1.6-.6-1.8-.4l-1.1.3-1 .2.1-.6c.2-.6.4-.8 1.6-1.3 1.5-.6 2.3-1.4 2.2-2.2-.1-.7-1-.8-2.1-.1-1.3.9-1.8.8-2-.3l-.2-1 2-.9c2.8-1.3 3.3-2 2-2.6-.4-.2-1 0-2.4.6-1.9.8-2 .8-2.2-.4-.1-.6 0-.6.7-1 .5-.2 1.3-.7 1.8-1.3.8-.7 1-1 .9-1.5-.2-.8-.9-.8-2.3 0-1.2.8-1.9.7-1.9-.2 0-.4.4-.7 1.8-1.7 1.4-.9 1.8-1.3 2-1.8 0-.4 0-.8-.2-1-.4-.3-1.4-.2-1.7.3-.3.3-2 1.4-2.3 1.4l-.4-1.2-.2-1.1 1.3-.8c2-1.4 2.5-1.8 2.5-2.5 0-1-.8-1-2.5.3a7 7 0 0 1-1.7 1c-.2 0-.5-.5-.9-1.1l-.6-1.2 1.3-1.5c1.6-1.7 1.9-2.5 1.2-3.1-.7-.6-1.5-.2-2.5 1.2-.7 1.2-.8 1.2-1.2.8-1-.7-.9-1.4.3-3.1 1.3-2 1.6-3 1.2-3.7-.6-1-2-.1-2.9 2-.5 1.2-.9 1.3-1.4.4-.3-.5-.3-1 .1-1.7.7-1.5 1.4-4.2 1.2-4.6-.3-.4-1.5-.5-1.8 0-.2.1-.5.9-.8 1.6l-.7 1.4c-.3 0-1.3-1.2-1.3-1.7 0-.2.3-1.2.8-2.1 1.1-2.4 1.3-3.3.7-3.6-.8-.6-1.4-.2-2.2 1.6l-1 1.8c-.2.3-1.7-1-1.7-1.5 0-.2.3-.9.7-1.5 1-1.5 1.3-3 .8-3.6-.9-1.2-1.6-.8-2.2 1.2a6 6 0 0 1-.7 1.7c-.3.4-.5.4-1-.1-.9-.7-.9-1.1 0-2.9 1.1-2.4 1-3.8-.1-4-.6-.1-1.3.7-1.4 1.6l-.4 1.7-.4 1-1-.8-1-.9.5-1.6c.8-3 .8-3 .2-3.5-.5-.4-.7-.4-1.2 0-.3.3-.5.8-.6 1.2 0 .4-.2 1-.4 1.4-.3.7-.4.7-1.3-.2-.8-.8-.8-1-.5-1.6.6-1.2.7-3.8.3-4.3-.8-.9-2.1-.4-2 .7.2.4-.4 2.8-.6 3.1l-.7-.5c-.5-.5-.6-1-.5-2.5.1-2.2-.2-3.2-1-3.2s-1 .5-1.2 2.3l-.2 1.6-.7-.3c-.8-.4-.8-.4-1.5-4-.3-1.9-.4-2.2-.9-2.3-.9-.2-1.2.4-1 2.4v2l-1.3-.7c-1-.6-1-.7-1.3-2.6-.3-1.5-.5-2.2-.9-2.4-.8-.5-1.3.2-1.1 1.9v1.6s-.7 0-1.4-.3l-1.2-.4-.1-2.2c0-2.4-.2-2.7-1-2.5-.5 0-.6.3-.9 1.1-.2.6-.3 1.5-.2 2v1h-1.3l-1.2-.3-.5-2.6c-.5-2.4-.8-3-1.6-2.5-.5.2-.7 2.4-.4 3.3.4.8.2 1-.5.9-1-.2-1.4-.8-2.1-3-.5-1.7-.8-2.1-1.1-2.2a1.8 1.8 0 0 0-.4 0z"/><path fill="#fd0909" d="M71 .2a90 90 0 0 0-10.9 1 89.3 89.3 0 0 0-15 4.2c0 1.3 0 2.5.2 3.5a52 52 0 0 1 9.4-3 92 92 0 0 1 10.6-2l1.7-.1v.8c0 1.2-.6 1.7-2.4 2.4-1.8.7-2.1 1-1.8 1.6.3.5 1.4.4 2.7-.3l1.2-.7-.9 1.2c-.8 1.3-.8 1.8.1 1.7.5 0 .6 0 .6 1.4 0 1 0 1.5-.4 1.7-.7.6-.6 1.4.3 1.6.9.2 1.2 2.3.5 3.6-.8 1.3-.5 2.2.4 1.6.6-.3.7-.1 1.2 1.5.3.9.3 1.4-.1 2.3l-.8 1.8-.3.8.8-.1c.6-.1 1-.4 1.3-1 .3-.5.5-.7.7-.5.5.4 1.1 2.7 1 3.6 0 1.1.2 1.5.5.8.3-.6.4-.5 1 .8s.5 1.7-.3 3c-1 1.5-1.7 3.8-1.4 4.1.4.6.9.1 1.8-1.6 1.2-2.5 1.2-2.5 2.2-.3l1.1 1.8c.6.5 1.1 1.6 1 1.8a15 15 0 0 0-1 3.2c-.6 2.3-.7 3-.4 3.3.8.6 1.2 0 1.8-2.5l.8-2.6c.1-.2.4 0 .8.5 1.3 1.5 1.5 2 1 3.8-.6 2.4-.7 3.9-.3 4.5.6.8 1.2.5 1.3-.8 0-1.2.7-3.7 1-3.7l1 1c.8.8.8 1 .7 2.4-.3 2.3-.2 3.7.3 4.1.8.6 1.2-.1 1.2-2 0-2.3.2-2.4 1.5-1.3 2.1 2 2.4 2.4 2 3-.6.5-1 2.3-.9 3.3.1.7.2.8.7.7.4 0 .6-.3 1-2l.7-2.3 1 .7c.5.5.8.9.7 1-.2.3.2 4.3.5 4.6.7.5 1-.2 1-2 0-.9.2-1.7.4-1.7l1 .5c.7.6.8 1 1 2.8.1 1.7.3 2 .7 2 .7 0 1-.4 1-1.6-.1-.9 0-1 .4-1 1 .1 1.4.9 1.7 3.2.3 2.4.5 2.8 1.3 2.6.5 0 .5-.3.4-2L101 59l1.5.7 1.3.7.1 2.4c0 1.3.2 2.4.3 2.4h.6c.8 0 1-.6.8-2.6 0-.7 0-1.4.2-1.4l1.2.6c.5.4 1.7.8 2.6 1 1 .3 2 .7 2.4 1.1.6.5 1 .6 1.5.6.5-.1 1.2 0 1.7.1.8.3 1 .4 1.8 2.7 1 2.5 1.4 2.9 1.9 2.6.6-.3.5-.9-.3-2.7-.4-1-.7-2-.5-2 .2 0 .9 0 1.6.2.8.2 2 .2 2.7.2.7-.1 1.4 0 1.6 0l1 1.8c.8 1.7 2.2 3.3 2.7 3.1.6-.1.4-.9-.5-2.3-1.3-1.9-1.4-2.5-.7-2.6h2.5l.6 1.5c.9 1.9 1.7 2.9 2.4 2.9.9 0 1-.5.3-1.3-.7-1-1.5-2.8-1.3-3 .2-.3 1.8-.2 2.2 0l.7 1.4c.2.6.8 1.3 1.2 1.7.7.7.8.7 1.1.3.4-.5.3-.7-.4-1.9-.4-.7-.8-1.4-.7-1.5 0-.1.5-.3 1-.3.6-.2.7-.1 1.4 1l1 1.4c.4.4 1.5.4 1.6-.2.1-.2-.1-.7-.5-1.1-1-1.3-1-1.5.3-1.8l1.2-.3.3 4.5a95 95 0 0 1 0 10.6c1 1 2 2.1 3 3.4a75.2 75.2 0 0 0-1.6-27.1 27.1 27.1 0 0 1-1.3-.3l-2.3-.4a79 79 0 0 0 1.3 5.6l.2.8-1 .2-1 .1.2-.8c0-.8-.3-1.2-1-1.1-.3 0-.5.4-.9 1.3-.4 1.2-.4 1.2-1.1 1.3-1.1.2-1.2-.2-.6-1.6.5-1 .5-1.4.2-1.8-.6-.6-1-.2-1.9 1.7-.7 1.6-.8 1.8-1.4 2-1 .3-1.2 0-.6-1 1-1.8 1-3.2 0-3-.4 0-.6.4-1 1.4-1.2 2.5-1.7 2.9-4 2.8-.7 0-1-1.4-.4-1.5.3 0 .4-.4.4-1.1v-1l-.4.5-1.1 1.6c-.8 1.3-1 1.3-3.1 1.1l-2.6-.1c-.8 0-1 0-1-.5 0-.3 0-.8.3-1.1.6-.6.6-1.6.1-2-.2-.2-.5 0-1.5 1.4-1.3 1.5-1.3 1.6-2 1.3-.4-.2-.7-.4-.7-.6l1-1.7c1.3-1.5 1.5-2 .8-2.4-.4-.2-.7 0-2.2 1.8-1.5 1.8-1.7 2-2.2 1.8-1.1-.4-1.1-.6 0-1.7 1-.8 1.2-1.2 1.1-1.7 0-.3-.2-.6-.4-.7-.4-.1-.8.1-2.5 1.7-.5.5-1.2 1-1.4 1-.3.2-2.5-.6-2.6-.9l1.4-1.3c1-1 1.5-1.5 1.6-1.9.3-1.3-1.3-1.3-2.5 0-.7 1-2.4 2.4-2.6 2.4l-1-.6c-.8-.4-.9-.5-.4-.8l1.4-1.3 1-.9-.7-.3c-1-.5-1.7-.3-2.3.5l-1.2 1c-.6.4-.8.3-1.7-.4l-1-.9.8-.5a7.6 7.6 0 0 0 1.4-1.1c.5-.6.5-.8.1-1.2-.4-.5-.6-.5-1.4.1-2.2 1.6-3.1 1.9-3.9 1.2-.3-.3-.2-.4 1.3-1 1.4-.6 1.7-.8 1.9-1.4.2-1-.3-1.3-1.4-.7-.4.2-1.6.6-2.6.8-1.4.4-2 .4-2.6 0-.4-.2-.8-.5-.8-.7 0-.2 1.2-.6 3-.8 1.6-.3 2.2-1 1.5-1.8-.5-.4-.9-.4-3.4.4-2.9.8-3 .8-3.7.2l-.7-.8 1.9-.6c1.8-.4 2.6-1 2.3-1.7-.3-.4-1.7-.3-4.2.4l-1.6.4-1.2-1c-1.3-1-1.4-1.6-.4-1.7.3 0 .7-.2.9-.4.1-.2.5-.2.8 0 .4.2.5.1.4-.2 0-.3-.2-.5-.4-.5v-.3h-2c-1.6 0-2.2 0-2.7-.4-.4-.3-.6-.7-.6-.9 0-.1.1-.2.2-.1.3.2 3.4-.7 3.6-1 .3-1-.3-1.2-2.9-.9-2.5.3-2.6.3-3.2-.4l-.6-1c0-.3-.5-1-1-1.6-1-1.1-1.5-2.7-1.3-3h1c.7.3 2.5 0 2.8-.4l-.1-.7c-.2-.6-.4-.6-2.2-.4-1 .2-2 .2-2.2 0-.3-.2-1-1.8-.9-2h1c1 .2 2.9 0 2.9 0l-.5-.8c-.3-.4-.8-.6-2.3-.8-1 0-2-.3-2.2-.4l-1-1.8c-.3-1-.9-2-1.2-2.5l-.7-1.4c-.2-.6-.1-.6.5-.7a1.7 1.7 0 0 0 1.1-.7l.4-.6L71 18l-1.4-.3-.3-1.1-.3-1.2 1.6.6c3.2 1.2 3.3.4 0-2l-2.1-1.5v-1.3l.2-1.3 1 .5c1.4 1 2.7 1.1 3.4.5.6-.5.5-.6-1-1.2a11 11 0 0 1-2.3-1.3c-1-.8-1.1-1-.8-1.3.2-.3.6-.3 1.5 0 .7.4 1.3.5 1.5.4.4-.2-.5-.7-1-.5-.1 0-.2-.2-.2-.7 0-.7 0-.7-.9-.9-.9-.2-1-.3-1.2-1l-.2-.8h2.4A34 34 0 0 1 77 4c-1.7-1.4-2.3-2.6-2-3.5a167.4 167.4 0 0 0-4-.2zm-7.5 10.9c-.3 0-.7.1-1 .4-.3.4-.2.6.1.9l.7.3c.4 0 1-.9 1-1.2-.1-.3-.4-.4-.8-.4zm1.7 4-.4.3c-.4.4 0 .9.5.9s.5 0 .4-.6c-.1-.3-.3-.5-.5-.5zm.9 6.4c-.3 0-.8.3-1.1.7-.5.6-.5 1.7 0 1.7.4 0 1.5-1.5 1.6-2 0-.3-.2-.5-.5-.4zm7.2 1.2c-.5 0-.7.3-.1.4.1 0 .4 0 .5-.2 0 0 0-.2-.4-.2zM82.2 34h-.3l-1.6.4c-1.7.2-2 .3-1.6 1 .1.5.4.6 1.3.5l1.4.1.7-.1c.8-.4 1-.7 1-1.2-.1-.4-.6-.7-.9-.7zm-7.5 6a3 3 0 0 0-.3 0c-1.2 0-2.2 2.6-1.2 3 .6.1.9-.2 1-1.4.2-.6.3-1.2.5-1.4.2-.2.2-.2 0-.2zm49.1 18c-.4 0-.8.4-1.4 1.3-.6 1.2-.5 2 .2 2.2.4.2.6 0 1-.6.9-1.4 1-2.3.6-2.7a.8.8 0 0 0-.4-.2zm-2.3 8.6c-.6 0-.7.3-.2.4.2 0 .4 0 .5-.2.1-.1 0-.2-.3-.2zm.8.9c-.2 0-.4 0-.6.3-.4.5.3 2 1 2.3.7.3 1-.6.6-1.5-.4-.7-.7-1-1-1.1zm-118.5.8A13 13 0 0 1 .3 71c-.2 2 0 7 .6 10a27 27 0 0 1 2.4 1.8l1 .8.4.5a90 90 0 0 1-1-15.8zM18.7 73c-.7 0-.9.7-.5 1.8l.4 1h-1c-.8 0-1-.2-1.7-1.3-.7-1-1-1.1-1.4-1-.7 0-.9.4-.4 1.4l.3.9-1 .1c-.5 0-1 0-1.1-.2-.8-1.4-2-2.3-2.6-1.7-.2.4 0 1.4.5 1.8.6.5.5.6-.6.8-1 .3-1.5 0-2-1-.3-.6-.5-.7-.7-.6-.1.1-.3 0-.4-.2-.2-.2-.4-.2-.6 0-.4.6-.3 1.1.3 2 .5.6.4.9-.4.8-.6 0-1.2.7-1 1.2.2.2.6.5 1 .6.5.1.6.2.4.7-.4.9.8.6 2-.5 1.1-1.1 1.8-1.4 3.3-1.3.6.1 1.2 0 1.3-.1.2-.3 4.3-.5 6.1-.3a20.1 20.1 0 0 0 2.2.1 7 7 0 0 1 1.8.2c.7.2.7.3.5.9v1c.2.2 0 .4-1 1-1.8 1.2-2 1.5-1.5 1.9.9.5 1.8 0 3.1-1.9 1.4-1.8 2-2 3-1.3.5.3.5.4.1.9-.3.3-.3.6 0 1 .3.3.6.2 1.4-.4 1.1-.8 1.3-.8 2.7-.3l3 .6c1.1.2 2.3.6 2.5.7l2.4 1.1 1.9 1c0 .2-.8.8-1.8 1.4-1.8 1.2-2 1.6-1.4 2 .5.5.9.4 3.1-1 2-1.1 2.4-1.2 3-.6.5.3.5.4-.6 1.2-.7.5-1.4 1-1.6 1-.5.3-.5 1 0 1.3.3.2 1 0 2.4-.8 2-1 2.5-1.1 3.5-.4.5.5.2 1-1.3 1.7-1.2.7-1.3 1.2-.3 1.5.5.2 1 0 1.9-.4 1.8-1 2-1 2.7-.4.4.4.8.8.8 1l-1.5.8c-1.5.6-1.9 1-1.2 1.6.4.3 1.4.2 3.2-.6 1.3-.5 1.3-.5 2.3.3.5.5.9 1 .9 1.2 0 .2.3.6 1.2 1.2 1 .7 1.4 1 1.7 1.8.2.4.7 1.2 1.1 1.5l1.5 1.4c.4.4.7.8.6.9l-1.7.4-2.2.5c-.7.3-1 1.2-.6 1.6.4.3 4.5-.2 5.5-.6.5-.3.7-.2 1.3.5l.7 1c0 .2-.8.6-2 .9-1.9.5-2.8 1.1-2.4 1.4.6.6 1.7.6 3.4.2 1-.3 2-.5 2.2-.4.2 0 .5.5.8 1 .4.6.4.8 0 1.2-.3.3-1 .7-1.6.9-1.4.4-1.9.8-1.5 1.4.3.6 1.6.5 3.3-.2 1.4-.6 1.4-.6 2.3 1.1l.4.7-2 .6c-1.7.6-1.9.7-2 1.3-.2 1 .1 1 2 .5 3.2-.9 3.1-.9 3.8 1.3a6 6 0 0 0 1 2c.7.6.8.9.5 1.7-.3 1 .2 2.5 1 2.8.4.2.4.2 0 .5-.3.2-.4.6 0 1.6l.3 2.1c0 .8 0 .8-.9.8a3 3 0 0 0-1.5.5c-.5.4-.5.5 0 .7l1.7.5 1.1.2.1 1c.2 1.1-.1 1.3-1.2.7-.5-.3-1.2-.5-1.7-.5-.7 0-.8 0-.7.6 0 .8 1.2 1.5 2 1h1.1c.6.6 1.3 2.7 1 3.1-.4.4-.7 1.7-.5 1.9l.4 1.3c0 .7.3 1.3.4 1.4a52 52 0 0 1-18.3-2c-1 0-2-.3-3-.6l2 4 .4.2a8 8 0 0 0 2.2.5l1.2.1c.3.3 5.3 1 9 1.3 6.3.6 16.5-.4 23.5-2.2l-2.2-3c-4.2 1-8.2 1.7-11.5 1.7H77l.3-.7a4.8 4.8 0 0 0 .2-1.6c0-.8 0-.8.8-1 1.8-.5 2.7-1 2.7-1.5 0-.8-.4-1-2-.6-.7.2-1.4.3-1.5.2-.1 0-.1-.4 0-.8.1-.5.5-.7 1.7-1.3 1.8-.9 2.1-1.3 1.5-2-.5-.5-.7-.5-1.7 0l-1.4.7c-.3 0-.9-1.7-.6-2 .2-.3 1.6-1 2.9-1.6.8-.3 1.6-1.2 1.5-1.6-.2-.6-1.3-.5-3 .3-.9.5-1.7.7-1.8.6-.2 0-.3-.5-.3-1 0-.8 0-.8 1.3-1.6 1.7-1 2.1-1.5 1.8-2.2-.3-.8-.7-.7-2.1.2-1.3.7-2 .5-1.9-.6.1-.5.3-.8 1.4-1.4.7-.5 1.5-1 1.7-1.3.9-1-1-1.3-2.3-.4l-1.2.6c-.1 0-.4-.9-.6-2-.1-1-.5-2.3-.8-2.8-.4-.5-.8-1.5-1-2.2a8 8 0 0 0-1-2c-1.4-1.6-1.4-1.8-.3-3.2.8-.9 1-1.3.9-1.6-.4-.5-2-.4-2.5.3-.6.7-.7.6-1.4-.9-.3-.6-1.2-1.8-2-2.7-1.3-1.6-1.3-1.6-1-2.8.1-.8 0-1.3-.3-1.7-.5-.5-.6-.4-1 .2l-.7.7-.8-1c-.7-.7-.8-1-.6-1.3l.8-1.6.5-1-1 .1a4 4 0 0 0-1.5.7c-.7.5-.7.5-1.6-.5l-2.4-2.5c-1.3-1.2-1.6-1.6-1.7-2.4-.2-1.2-.6-1.6-1.2-1.2-.4.3-.7.2-1.4-.5-1-.8-1-.8-.6-1.8l.5-2v-1.1l-1 .4c-.7.4-1 .6-1 1.2-.4 1.2-.7 1.3-1.5.7-.6-.5-.7-.8-.6-2.2.2-1.9 0-3-.5-2.2-.1.3-.3.4-.4.3-.4-.3-1 .3-1 1.4l-.1 1-.6-.2c-1-.4-1.3-.9-1.5-2-.2-1.4-.8-2-1.6-1.7-.4.1-.5.3-.5.9 0 .6 0 .7-.3.6a333.9 333.9 0 0 0-2.6-1.3 6 6 0 0 0-2.2-.8l-2-.6c-.2-.2-.4-1.3-.5-2.4 0-1.4-.2-2-.5-2.2-.3-.1-.5 0-.8.5-.4.9-.5 2.8-.2 3 .6.5-.3.7-1.5.4l-3.5-1-2.3-.6-.4-1c-.2-.7-.4-1-.7-1-.3 0-.4-.1-.5-.7a2 2 0 0 0-.3-1c-.6-.5-1 .4-.6 1.7l.3 1.3h-1c-1.3 0-1.6-.4-2.6-2.6-.2-.5-.5-.7-.8-.7a1.2 1.2 0 0 0-.4 0zm9.5.5a.5.5 0 0 0-.1 0c-.6.2-.6.3-.6 1.4v1l.5-.6c.7-.8.7-1.8.2-1.8zm-13.6 5v.1a.7.7 0 0 0-.2.5l-.6.9c-.8.7-.6 1.4.3 1.4l.6-.1c.3-.4.4-1 .2-1.2l-.2-1c0-.3 0-.6-.1-.5zM10.9 80c-.4 0-.9.4-1.3 1-.7 1.1-.5 1.9.3 1.7.6-.2 1.8-2.2 1.4-2.5a.6.6 0 0 0-.4-.2zm8 .9h-1c-.9 0-1.2.6-.4 1 .3 0 .6-.2.9-.5zm7.5.8c-.4 0-1 .5-1.5 1.1-.7 1-.5 1.4.4 1.3 1 0 2.1-1.8 1.5-2.3a.5.5 0 0 0-.4-.1zm28.7 4.7-.3.2c-.2.3-.5.8-.5 1.2 0 .6 0 .6.5 0 .4-.4.5-.7.3-.8-.1 0-.2-.2 0-.4v-.2zm-21.3 0a.6.6 0 0 0-.5.3c0 .1 0 .2.3 0 .6-.1.6-.2.2-.2zm25.6 3c-.1 0-.3 0-.5.2-.5.4-.4 1 .2 1.8.5.7.8.6 1-.7.2-.8-.2-1.4-.7-1.3zm-5 6.2a5 5 0 0 0-1.3.4c-1.8.7-2.5 1.5-1.8 2 .2.2 1 .2 1.9-.1 1.7-.5 2-.8 1.7-1.8-.1-.3-.2-.5-.4-.5zm1.4 3.7c-.4-.1-2.1.9-2.3 1.3-.2.7.7 1.1 1.7.8 1-.4 1-.4.9-1.2l-.2-1zm12.5 18.2h-.6c-1 0-1.7.8-1.2 1.3.2.2.6.3 1 .3 1-.2 1-.2 1.1-1 0-.5 0-.6-.3-.6zm.9 3.6a1 1 0 0 0-.9.4c-.4.5-.2.9.7 1.1.5.1.8 0 1-.3.4-.6-.2-1.1-.8-1.2zm1.4 15.5h-.2c0 .2 0 .5.3.6.2.2.4.3.4 0 0 0 0-.3-.2-.5a.5.5 0 0 0-.3 0z"/><path fill="#010101" d="M125.6 122.5a96.4 96.4 0 0 1-11 9.5l-3 2a74.7 74.7 0 0 1-18.2 8.1c-7 2-18.2 3.2-24.9 2.6a59.4 59.4 0 0 1-10.2-1.4 8 8 0 0 1-2.2-.5 51 51 0 0 0-3-1l-2-.6-1-.3a5 5 0 0 1-1.4-.3l-2.8-1.2a81 81 0 0 1-15.3-8.5 78.9 78.9 0 0 1-14-13.3 85.9 85.9 0 0 0-1.9-2.4c-.9-1.1-2.6-3.7-3.5-5a62.9 62.9 0 0 1-7-15 72.1 72.1 0 0 1 .7-49l1.5-3.5A69.2 69.2 0 0 1 50 3.7C51.6 3 54 2.4 60 1a68.9 68.9 0 0 1 28.4 1.2 68.8 68.8 0 0 1 25.2 11c2.1 1.4 10.5 8.7 11.9 10.4l3 3.7c2.2 2.4 4.3 5.5 6.2 8.7a57.2 57.2 0 0 1 4.8 9.8c.9 2 1.3 3.2 2.5 6.8a93 93 0 0 1 3 22.8 69.7 69.7 0 0 1-4.8 24 6 6 0 0 1-.6 1.5l-1.6 3.4a43.5 43.5 0 0 1-5.2 9c-1.3 2-5.3 7-7.3 9.1zm4.3-10.4 1.3-2.1a95.4 95.4 0 0 0 6-12.2c.5-1 1-2.7 1.4-3.8a108 108 0 0 1 1.8-6.6 97 97 0 0 0 .8-24.2c-.1-.9-1-4.4-1.6-6.6a33.2 33.2 0 0 1-.5-2c-.1-.8-.3-1.5-.4-1.5l-.2-.7a70.6 70.6 0 0 0-6.6-14.8 70.9 70.9 0 0 0-30.5-27.3 286.8 286.8 0 0 1-3.7-1.7 80.8 80.8 0 0 0-11.4-3.5 22.9 22.9 0 0 0-2.2-.3l-4-.5a57.8 57.8 0 0 0-25.4 1.5l-3.6 1a61.9 61.9 0 0 0-12.8 5.6 68 68 0 0 0-27.8 29.5 140.7 140.7 0 0 1-1.4 2.8A77.3 77.3 0 0 0 4 65.3c-.6 5.2 0 15.5 1 20.2a76.4 76.4 0 0 0 6 17.4 75.2 75.2 0 0 0 13 17.8 68.9 68.9 0 0 0 62.2 19.6 79.2 79.2 0 0 0 19-6.5 74 74 0 0 0 18.4-13.8c.3 0 5.8-7 6.3-7.9z"/></svg>