<svg xmlns="http://www.w3.org/2000/svg" xmlns:xlink="http://www.w3.org/1999/xlink" id="Layer_1" width="400.399" height="373.871" data-name="Layer 1"><defs id="defs51"><linearGradient id="linearGradient19502"><stop id="stop19500" offset="0" style="stop-color:#4edd61;stop-opacity:1"/></linearGradient><linearGradient id="linear-gradient" x1="360.06" x2="360.06" y1="482.48" y2="361.69" gradientUnits="userSpaceOnUse"><stop id="stop4" offset="0" stop-color="#0abcb7" stop-opacity=".5"/><stop id="stop6" offset=".42" stop-color="#0abcb7"/><stop id="stop8" offset="1" stop-color="#69efe6"/></linearGradient><linearGradient xlink:href="#linear-gradient" id="linear-gradient-2" x1="529.67" x2="529.67" y1="507.73" y2="354.16" gradientTransform="translate(-293.4 -169.66)"/><linearGradient id="linear-gradient-3" x1="558.2" x2="630.29" y1="479.45" y2="479.45" gradientTransform="rotate(-.08 -120657.81 215462)" gradientUnits="userSpaceOnUse"><stop id="stop15" offset="0" stop-color="#abd243"/><stop id="stop17" offset="1" stop-color="#fcf100"/></linearGradient><linearGradient id="linear-gradient-4" x1="479" x2="652.41" y1="327.63" y2="327.63" gradientTransform="translate(-293.4 -169.66)" gradientUnits="userSpaceOnUse"><stop id="stop20" offset="0" stop-color="#016f3f" stop-opacity="0"/><stop id="stop22" offset="0" stop-color="#016f3f" stop-opacity=".01"/><stop id="stop24" offset=".11" stop-color="#016f3f" stop-opacity=".32"/><stop id="stop26" offset=".22" stop-color="#016f3f" stop-opacity=".56"/><stop id="stop28" offset=".34" stop-color="#016f3f" stop-opacity=".76"/><stop id="stop30" offset=".47" stop-color="#016f3f" stop-opacity=".89"/><stop id="stop32" offset=".62" stop-color="#016f3f" stop-opacity=".98"/><stop id="stop34" offset=".85" stop-color="#016f3f"/></linearGradient><linearGradient id="linear-gradient-5" x1="624.46" x2="670.45" y1="321.72" y2="321.72" gradientUnits="userSpaceOnUse"><stop id="stop37" offset=".09" stop-color="#226271"/><stop id="stop39" offset="1" stop-color="#226271" stop-opacity="0"/></linearGradient><linearGradient id="linear-gradient-6" x1="7644.01" x2="7788.75" y1="919.85" y2="919.85" gradientTransform="matrix(-1 0 0 1 7969.04 0)" gradientUnits="userSpaceOnUse"><stop id="stop42" offset="0" stop-color="#fcf100"/><stop id="stop44" offset=".34" stop-color="#dce51a"/><stop id="stop46" offset=".77" stop-color="#b9d738"/><stop id="stop48" offset="1" stop-color="#abd243"/></linearGradient><linearGradient xlink:href="#linear-gradient" id="linearGradient1261" x1="360.06" x2="360.06" y1="482.48" y2="361.69" gradientTransform="translate(-293.4 -169.66)" gradientUnits="userSpaceOnUse"/><clipPath id="clip-path"><path id="path12" d="M682.43 414.33c-3.78-6.07-5.66-9.06-9.42-14.94a88 88 0 0 0-7.79-10.29c-.64-.74-1.15-1.32-1.5-1.77-6.12-7.72-9.17-11.45-15.25-18.69l-.06-.57.53.14c-.26-3.14-.51-6.28-.77-9.42-38.72 51.91-121.69 96.84-183 71.4-54.16-22.48-110.68 5.6-143.87 28.26q.6 8.74 1.21 17.5c.62 8.55.93 12.82 1.54 21.37a161 161 0 0 0 22 6.3 97 97 0 0 0 16.74 2.05c3.4.16 6.79.2 10.12.15 3 0 6-.16 8.92-.29a33.6 33.6 0 0 0 19.82-7.53 32.36 32.36 0 0 0 22.84 3.27 38.7 38.7 0 0 0 11.4-4.42 35.2 35.2 0 0 0 14.72-1.19 40 40 0 0 0 4.76-1.64c-.54 12.3 3.39 26.5 13.84 33.42 8.12 5.37 18.74 6.15 30.08 2.35 14.36-4.83 26.44-14.85 32.72-28.63 5.09-11.18 4.92-22.39 4.16-31.69 0-.69-.11-1.35-.18-2a67 67 0 0 0 12.69-2.17c11.22-3 22.3-8.46 30.16-17.28 6.65 4.17 15.09 5.73 24.08 4.8a54.3 54.3 0 0 0 13.4-3.15 42 42 0 0 0 15 3.12c8.27.22 16.42-1.79 22.34-5.79l.26-.18a76 76 0 0 0 21.65-22.36c2.76-4.18 4.13-6.19 6.86-10.13" style="fill:none"/></clipPath><clipPath id="clipPath34555" clipPathUnits="userSpaceOnUse"><path id="path34557" d="M0 46.594V373.87h207.787l.707-.305.897-.386.908-.397.922-.4q.465-.205.931-.408l.942-.41.916-.4q.47-.21.943-.411l.938-.406q.512-.222 1.027-.44.543-.23 1.088-.455l1.088-.451 1.086-.45q.538-.222 1.076-.448.546-.23 1.094-.458.535-.223 1.07-.449l1.062-.449 1.08-.459 1.135-.486.01-.004-.049-.096c-.187.044-.373.094-.562.129q-.434.082-.87.148-.37.054-.741.104-.3.04-.598.084-.244.038-.488.066l-.229-2.117c-.062.016-.153.039-.094.023l-.707-3.08q-.314.128-.626.258-.494.205-.979.426-.43.197-.86.398l-1.683-3.597q.453-.214.91-.422.538-.244 1.082-.47.375-.157.75-.31l-.017-.048-.067.035-.066.031-.059.031-.052.026-.043.021-.041.022-.038.02q-.019.007-.037.017l-.035.02-.031.017-.025.014-.006.002.006-.004-.135-.14a.2.2 0 0 1 .039-.027l.025-.015.033-.02.037-.019.038-.02.021-.01-.025-.044c-.006.003.003-.003.004-.004l.02-.01.02-.014.014-.008-.025.008-.033.008-.028.008-.008.002.004-.006a.1.1 0 0 0 .028-.04l-.186-.058a.1.1 0 0 1 .033-.049.2.2 0 0 1 .036-.021l.008-.004-.038-.033.012-.012.016-.012.017-.01.018-.011.023-.012.024-.014s.003 0 .004-.002l.008-.006.008-.006.025-.015.024-.016.025-.016.023-.015.024-.012.02-.014.02-.011.018-.012.022-.014.02-.011.019-.012.02-.012.019-.011.014-.006-.832-2.336c.07-.025.035-.016.105-.041l.336-.12.316-.11.315-.116.299-.111.31-.118.283-.11.291-.116a21 21 0 0 0 .713-.314q.105-.048.207-.098t.203-.102l.211-.11q.102-.053.204-.109l.212-.113.38-.203.158-.088.115-.064.027-.014a1.5 1.5 0 0 0-.184.137l.206.244.433-.203a57 57 0 0 0 .865-.412l.409-.205.418-.215.412-.215.431-.223.412-.209.405-.201.398-.197.742-.364.348-.171c.103-.052.207-.101.309-.155a7 7 0 0 0 .252-.138l.238-.139q.112-.067.22-.135l.174-.113q.067-.044.135-.092c.049-.034-.054.04-.06.049l.642.76.09-.063a35 35 0 0 0 .729-.531 15 15 0 0 0 .601-.479q.155-.13.309-.263l.3-.258.292-.256.27-.236q.136-.123.274-.244a10 10 0 0 1 .295-.25l.106-.084.068-.258q-.449-.113-.902-.205a14 14 0 0 0-1.572-.201 6 6 0 0 0-.405-.016q-.056 0-.111-.002c.159-.008-.014 0-.049.002-.02 0 .316-.026.074-.012a7 7 0 0 0 .295-.033c.155-.023.31-.044.463-.074.133-.022.277-.054.371-.076.13-.04.037 0 .254-.073.027-.009-.053.015-.08.022.155-.052.636-.21.418-.145a24 24 0 0 0 1.617-.715q.66-.315 1.31-.644c.524-.262 1.044-.533 1.565-.799q.855-.433 1.705-.873l1.871-.963c.693-.356 1.392-.704 2.088-1.053.625-.313 1.25-.624 1.871-.943q.974-.5 1.944-1.006a156 156 0 0 0 3.908-2.092q1.081-.596 2.156-1.203 1.212-.684 2.42-1.37a635 635 0 0 0 4.828-2.753c.82-.47 1.636-.949 2.453-1.424q1.242-.72 2.479-1.443c.83-.486 1.655-.978 2.482-1.467q1.246-.736 2.489-1.478a453 453 0 0 0 4.937-3.002q1.287-.798 2.572-1.598a616 616 0 0 0 5.14-3.25q1.308-.836 2.612-1.676c.862-.55 1.717-1.114 2.573-1.673q1.32-.864 2.638-1.73c.882-.58 1.761-1.166 2.641-1.749l2.69-1.78c.897-.588 1.792-1.18 2.69-1.767q1.36-.887 2.72-1.77c.905-.586 1.808-1.177 2.712-1.765a511 511 0 0 1 8.84-5.621l2.893-1.797 2.894-1.799a678 678 0 0 1 5.938-3.664q1.477-.903 2.957-1.803a311 311 0 0 1 6.215-3.673 217 217 0 0 1 3.256-1.832 195 195 0 0 1 3.334-1.807 68 68 0 0 1 4.144-2.016 182 182 0 0 1 3.781-1.62 383 383 0 0 1 7.063-2.866q1.745-.689 3.494-1.37c1.13-.44 2.26-.878 3.387-1.323a214 214 0 0 0 3.18-1.284 96 96 0 0 0 2.927-1.275c1.007-.457 2.005-.933 2.998-1.418 1.053-.513 2.099-1.04 3.143-1.57a481 481 0 0 0 5.928-3.078l14.79 28.127q-1.42.747-2.843 1.49a536 536 0 0 1-3.201 1.65l5.109 6.535-.387.301c-.793.621-1.584 1.247-2.377 1.87a239 239 0 0 0-2.298 1.825c-.711.575-1.418 1.152-2.114 1.745a47 47 0 0 0-1.78 1.584 55 55 0 0 0-1.765 1.734 92 92 0 0 0-1.83 1.916c-.183.199-.36.403-.54.603l4.304 3.446-1.76 2.2q-1.085 1.36-2.166 2.724a1009 1009 0 0 0-4.351 5.523q-1.102 1.41-2.21 2.814-1.102 1.397-2.206 2.791l-2.22 2.795a705 705 0 0 1-2.234 2.801q-1.113 1.385-2.24 2.76-1.084 1.328-2.172 2.654-1.139 1.39-2.285 2.774-1.14 1.369-2.293 2.73a230 230 0 0 1-2.271 2.654q-1.066 1.222-2.149 2.428-.983 1.094-1.97 2.186-1.001 1.107-2.014 2.203-1.023 1.106-2.068 2.191a119 119 0 0 1-4.16 4.112 137 137 0 0 1-4.01 3.632c-.628.546-1.256 1.09-1.893 1.623q-.816.687-1.637 1.37-.825.687-1.664 1.359l-.092.072H400.4V46.594Zm326.008 321.129q-.536.472-1.078.937a86 86 0 0 1-1.287 1.074 57 57 0 0 1-2.148 1.678q-.49.366-.993.713c-.344.236-.69.469-1.045.688a18 18 0 0 1-1.855 1l-.123.058h12.888zm-11.444.738-1.093 1.053a1935 1935 0 0 0-4.5 4.357h8.494l.066-.035z" style="fill:red;fill-opacity:1;fill-rule:nonzero;stroke:none"/></clipPath><clipPath id="clipPath16452" clipPathUnits="userSpaceOnUse"><path id="path16454" d="M0 46.594V164.24c1.155-.546 2.328-1.052 3.553-1.424 1.321-.406 2.658-.767 4.025-.986a38 38 0 0 1 3.693-.398c.887-.06 1.774-.112 2.66-.166a1241 1241 0 0 0 5.178-.332q1.328-.09 2.657-.176l2.646-.172 2.744-.182a817 817 0 0 1 5.721-.35 158 158 0 0 1 9.227-.297 88 88 0 0 1 6.277.21 206 206 0 0 1 5.713.465 294 294 0 0 1 5.207.54l2.426.278 2.312.266q1.106.129 2.213.255l2.158.245 2.166.252c.711.083 1.42.17 2.131.253a259 259 0 0 0 1.963.223q.83.095 1.66.178.59.057 1.18.096.3.023.603.021c.243.001.486-.011.729-.025a84 84 0 0 0 2.201-.166q.392-.036.783-.08a8 8 0 0 0 .356-.053c-.103.025.211-.04.226-.047q.251-.064.5-.135.356-.102.711-.209l.768-.228.738-.223q.418-.124.838-.242c.3-.084.599-.17.9-.246q.346-.087.694-.166l.396-.096.692-.17c.186-.047.761-.186.228-.056l3.31 13.002.073-.075.271-.283q.12-.123.237-.248l.234-.25.209-.223.201-.212.17-.182.17-.184q.086-.093.174-.185.092-.097.185-.192a11 11 0 0 1 .375-.363q.094-.088.192-.174c.05-.043.052-.043.103-.088q.123-.106.254-.2l1.96 2.702.116-.045a3 3 0 0 0-.14-.308l-.041-.073-.018-.029.086.123.076.114c.03.043.02.025.037.048l.038.05.056.065.069.075.037.037.006.006q.044.04.087.082.051.048.104.093l.121.102a10 10 0 0 0 .455.356l.188.14.166.121.152.106.158.105.166.106.188.115.058.037-.515.855.056.079c-.06.047.097-.075.133-.106.04-.034-.052.046-.064.057l-.034.029-.06.059-.006.006-.098.096-.117.122-.049.053-.675 1.12 1.578 3.46q-.07.03-.139.063l-.162.074-.137.066-.144.073-.192.095-.158.08-.168.086-.168.088-.164.086-.2.104-.173.09q-.112.056-.227.11-.113.056-.228.108a7 7 0 0 1-.277.115q-.13.052-.262.098a7 7 0 0 1-.52.154l-.23.053-.168.035-.176.033c-.046.008-.015.004-.066.014a4 4 0 0 1-.426.057l-.139-1.975-.068-.025a6 6 0 0 1-.543-.254l-.02-.01-.199.146-.06.043 1.15 4.52c-.122.03-.163.039-.213.05q-.016.006-.033.01l-.41.102-.502.123-.557.133q-.168.038-.336.08l-.05.014c.324-.084-.147.041-.2.056-.156.047-.313.088-.469.137l-.708.215-.817.242a78 78 0 0 1-.94.275 43 43 0 0 1-1.269.342 30 30 0 0 1-3.52.658c-.539.069-1.081.123-1.622.174a110 110 0 0 1-3.014.23c-.657.044-1.315.061-1.973.071a34 34 0 0 1-2.326-.06 60 60 0 0 1-2.121-.168 283 283 0 0 1-4.164-.457l-2.145-.254q-1.05-.125-2.101-.247l-2.13-.24-2.243-.26q-1.157-.132-2.315-.267a336 336 0 0 0-4.71-.523q-1.224-.128-2.448-.245a167 167 0 0 0-5-.406 75 75 0 0 0-2.314-.117 62 62 0 0 0-2.295-.035 130 130 0 0 0-5.102.117c-.894.037-1.787.087-2.68.139a704 704 0 0 0-5.54.337l-2.715.18-2.676.176q-1.312.085-2.623.172a1166 1166 0 0 1-5.281.338l-1.69.107c.015.178.019.357.037.535.065.64.154 1.277.254 1.912a31 31 0 0 0 .838 3.727q.299 1.029.65 2.04c.21.623.455 1.234.715 1.837.301.707.625 1.405.961 2.096.36.739.74 1.467 1.125 2.193a70 70 0 0 0 1.203 2.172c.39.681.805 1.347 1.225 2.01.477.75.962 1.497 1.447 2.242a70 70 0 0 0 2.73 3.906q.7.937 1.436 1.846a48 48 0 0 0 1.465 1.73 73 73 0 0 0 1.629 1.772 138 138 0 0 0 3.533 3.59 71 71 0 0 0 1.697 1.61 56 56 0 0 0 1.737 1.524c.659.557 1.33 1.1 2.004 1.639a114 114 0 0 0 4.496 3.426c.809.59 1.628 1.165 2.449 1.738q.6.423 1.209.836l-7.955 11.637c.049.265.103.53.148.795a149 149 0 0 1 .625 4.003q.139.973.272 1.946.137.993.27 1.986a102 102 0 0 1 .476 4.352c.06.723.118 1.447.16 2.172a134 134 0 0 1 .176 3.968l.06 1.8.06 1.784a857 857 0 0 0 .2 5.057l.067 1.62.06 1.536q.027.707.057 1.414l.06 1.403.06 1.42.065 1.398q.035.728.067 1.455.032.71.06 1.42.027.67.051 1.34l.045 1.199q.02.585.033 1.17l.026.95.019.794a18.5 18.5 0 0 1-.166 2.942l-2.537-.374.04.475q.093 1.005.202 2.01a185 185 0 0 0 .455 3.844c.087.673.177 1.347.26 2.021.084.691.17 1.382.244 2.074q.109 1.016.2 2.033.085.942.161 1.883a126 126 0 0 1 .247 3.715q.048.874.091 1.748.039.846.073 1.692.031.795.058 1.591.027.768.049 1.536l.045 1.386q.017.516.039 1.032c.267.06.533.126.8.183a223 223 0 0 1 4.136.943c.813.197 1.625.398 2.431.622.852.238 1.7.489 2.54.765q1.084.358 2.163.738.976.344 1.948.692a122 122 0 0 0 3.5 1.2q.886.285 1.78.548c.642.188 1.284.374 1.929.55q.974.267 1.957.503c.663.16 1.328.316 1.996.457.611.128 1.224.255 1.841.355a42 42 0 0 0 1.936.272 68 68 0 0 0 2.143.216c.793.066 1.588.132 2.382.184q1.253.087 2.506.166 1.249.078 2.498.143c.762.038 1.525.076 2.287.097.7.016 1.4.029 2.1.018a32 32 0 0 0 1.844-.076c.444-.038.888-.08 1.328-.15.41-.077.82-.158 1.22-.276a41 41 0 0 0 1.86-.6 232 232 0 0 0 4.502-1.609 157 157 0 0 0 2.107-.791c.621-.24 1.241-.482 1.856-.736q.964-.398 1.924-.809 1.001-.427 2.002-.857c.725-.312 1.45-.626 2.18-.932q1.154-.48 2.316-.936c.939-.361 1.883-.71 2.843-1.013a40 40 0 0 1 3.12-.86 38 38 0 0 1 3.26-.607 36 36 0 0 1 3.286-.297 35 35 0 0 1 3.333.02c1.092.07 2.18.171 3.261.35.869.142 1.736.301 2.596.49q1.033.222 2.064.455l1.944.433a73 73 0 0 0 3.63.727q.789.134 1.579.26c.226-.34.44-.688.693-1.01a25 25 0 0 1 1.89-2.166 30 30 0 0 1 1.987-1.858c.854-.71 1.739-1.384 2.684-1.97 1.044-.644 2.119-1.238 3.254-1.71 1.265-.515 2.561-.955 3.902-1.23 1.293-.257 2.6-.442 3.92-.476 1.39-.032 2.784.01 4.16.23 1.794.306 3.556.776 5.203 1.568 1.722.852 3.348 1.879 4.74 3.213 1.09 1.058 2.102 2.193 2.944 3.461.63.949 1.222 1.923 1.726 2.945.463.938.897 1.888 1.258 2.87.364.995.695 2.002.945 3.033.227.937.429 1.88.569 2.834.117.804.219 1.61.289 2.42.066.764.125 1.528.158 2.295q.044 1.064.047 2.129.005.945 0 1.892c-.007.616-.013 1.232-.028 1.848q-.02.9-.052 1.799-.028.733-.049 1.466-.017.684-.023 1.368a40 40 0 0 0 .027 2.03c.252.127.502.255.764.36.448.175.899.345 1.361.48.56.163 1.12.314 1.69.438.607.13 1.215.253 1.83.346a48 48 0 0 0 4.357.44c.708.032 1.416.06 2.125.056.7-.007 1.4-.021 2.098-.063a52 52 0 0 0 2.134-.177c.664-.078 1.326-.16 1.985-.274a32 32 0 0 0 1.861-.384 87 87 0 0 0 2.36-.637l2.693-.766q1.357-.388 2.71-.783c.811-.238 1.62-.477 2.425-.732a60 60 0 0 0 2.056-.694 46 46 0 0 0 3.569-1.465c.62-.283 1.24-.568 1.855-.863a531 531 0 0 1 4.223-2.002q1.06-.494 2.12-.98a226 226 0 0 1 4.075-1.803q.95-.413 1.904-.818l1.674-.715q.76-.328 1.516-.66.646-.287 1.285-.588l.08-.04a31 31 0 0 1 .357-1.28c.07-.233.145-.465.217-.696a76 76 0 0 1 .428-1.332q.117-.35.236-.697a46 46 0 0 1 .55-1.512q.145-.38.294-.76a98 98 0 0 1 .604-1.504 52 52 0 0 1 .68-1.582q.172-.383.349-.765l.33-.71q.172-.368.348-.736.172-.36.35-.72c.135-.278.279-.553.423-.827q.187-.352.377-.703a16 16 0 0 0 .982-2.152 11 11 0 0 0 .316-1.004 18 18 0 0 0 .272-1.184q.055-.284.1-.57.051-.341.096-.683.044-.342.082-.684a23 23 0 0 0 .14-1.973 19 19 0 0 0 .014-1.328 13.6 13.6 0 0 0-.25-2.414 36 36 0 0 0-.149-.752 93 93 0 0 0-.353-1.637l-.2-.898a32 32 0 0 1-.218-1.06 17 17 0 0 1-.2-1.43 12 12 0 0 1-.025-1.856c.036-.688.165-1.366.325-2.035.174-.722.46-1.408.777-2.078.352-.732.826-1.389 1.338-2.016.44-.528.949-.993 1.474-1.435a13 13 0 0 1 1.45-1.035 15.4 15.4 0 0 1 2.908-1.4c.44-.162.89-.303 1.34-.436.41-.121.825-.228 1.24-.332a56 56 0 0 1 2.389-.545q.586-.12 1.173-.238a35 35 0 0 0 2.12-.473 65 65 0 0 0 2.318-.627 123 123 0 0 0 2.42-.719 77 77 0 0 0 2.33-.765q.579-.202 1.154-.413.574-.208 1.147-.423a50 50 0 0 0 2.186-.88q.578-.25 1.155-.505l1.188-.527 1.187-.53a166 166 0 0 1 2.506-1.088l1.246-.525 1.25-.523q.633-.267 1.266-.53a158 158 0 0 1 2.623-1.054q.668-.261 1.34-.512a62 62 0 0 1 4.408-1.46 64 64 0 0 1 3.223-.822 67 67 0 0 1 1.677-.355 134 134 0 0 1 4.953-.871 117 117 0 0 1 5.128-.686 168 168 0 0 1 6.746-.645 209 209 0 0 1 3.285-.208 225 225 0 0 1 3.209-.147 89 89 0 0 1 3.209-.066c.516-.003 1.034.002 1.55.006a110 110 0 0 1 4.406.117 49 49 0 0 1 5.553.541q.654.097 1.303.215.609.112 1.213.234.566.115 1.131.237a172 172 0 0 1 2.158.484q.548.127 1.092.264.592.148 1.178.316.651.188 1.29.41c.507.174.998.387 1.485.61.247.113.484.246.725.37l.353-.21q.797-.47 1.596-.936.85-.497 1.703-.992c.578-.334 1.15-.672 1.727-1.01q.883-.516 1.761-1.039.863-.513 1.715-1.043a176 176 0 0 0 1.805-1.132q.872-.554 1.732-1.125a67 67 0 0 0 4.85-3.541 80 80 0 0 0 1.625-1.34q.851-.719 1.687-1.453a199 199 0 0 0 1.748-1.551 366 366 0 0 0 3.487-3.17q.83-.768 1.652-1.547a94 94 0 0 0 1.524-1.47c.41-.407.814-.818 1.203-1.247q.527-.578 1.02-1.19.438-.538.835-1.11.444-.635.856-1.29.454-.717.886-1.447c.19-.325.383-.648.543-.988.175-.356.333-.72.489-1.084.136-.343.298-.68.41-1.031.044-.122.073-.248.105-.373a5 5 0 0 0-.107-.424 9 9 0 0 0-.236-.711 18 18 0 0 0-.78-1.832 48 48 0 0 0-.558-1.112c-.153-.275-.28-.565-.45-.832a6 6 0 0 0-.314-.48 17 17 0 0 0-.54-.719c-.232-.296-.478-.583-.722-.87a46 46 0 0 0-.851-.983c-.32-.358-.648-.712-.973-1.065l-1.113-1.205a131 131 0 0 0-1.051-1.13q-.609-.645-1.213-1.294-.637-.69-1.264-1.388-.555-.619-1.11-1.235-.532-.588-1.071-1.168-.517-.555-1.047-1.097c-.352-.362-.715-.715-1.076-1.067a243 243 0 0 1-1.366-1.334l-.224-.22 6.09-6.174q-.083-.085-.162-.17a17 17 0 0 1-.528-.608 11 11 0 0 1-1.002-1.406 5 5 0 0 1-.357-.3 6 6 0 0 1-.406-.428 17 17 0 0 1-.873-1.129q-.142-.202-.282-.405l-.287-.42-.287-.43-.299-.44-.316-.464-.332-.482-.33-.469a68 68 0 0 0-.664-.918 31 31 0 0 0-.69-.88 31 31 0 0 0-.773-.91q-.205-.231-.414-.456a38 38 0 0 0-.444-.47q-.243-.252-.488-.502l-.17-.176.77-.742a12 12 0 0 1-1.9-1.855 16 16 0 0 1-.48-.606 22 22 0 0 1-1.595-2.448 27 27 0 0 1-.36-.658q-.165-.318-.327-.638l-.104-.206 2.72-1.367v-.002l-.068-.424-.07-.433-.01-.07 2.904-.457.108-.055.017.035 3.145-.496.01.068.066.409.065.402.066.398a31 31 0 0 1 .123.791l.043.276.024.144-.014-.039a1.3 1.3 0 0 0-.152-.3l-.014-.02q-.053-.065-.11-.127l-1.529 1.38.04.056q.136.182.28.359.141.169.29.332.125.136.26.266a6 6 0 0 0 .537.447 11 11 0 0 0 .64.433 26 26 0 0 0 .629.385q.084.048.17.094l.074.037c.057.023.04.015-.002.004.025.008-.024-.007-.043-.01.02.004-.093-.017-.035-.006l-.318 1.723q.18.195.357.394a37 37 0 0 1 .82.963l1.823-1.682.306.332a32 32 0 0 1 1.237 1.434q.27.336.529.678l.445.584a30 30 0 0 0 .826 1.045 21 21 0 0 0 .801.912 17 17 0 0 0 1.297 1.244 80 80 0 0 0 .992.838l.526.433.222.186 4.54-4.604.202.202q.633.62 1.27 1.238c.522.508 1.043 1.02 1.55 1.543a91 91 0 0 1 2.725 2.912q.587.648 1.17 1.299.501.559 1.01 1.11.55.59 1.106 1.179.615.653 1.222 1.314l1.112 1.205c.415.451.831.9 1.24 1.358q.643.722 1.267 1.46c.458.542.914 1.085 1.35 1.643.477.614.946 1.234 1.389 1.873.492.717.971 1.443 1.404 2.198q.545.945 1.043 1.918.447.866.871 1.744a44 44 0 0 1 1.773 4.21c.289.812.562 1.63.79 2.462.245.9.471 1.805.636 2.724.17.962.303 1.93.37 2.905V46.594Zm0 172.13v155.147h400.398V246.076c-.025.428-.04.856-.1 1.281-.149 1.073-.333 2.14-.61 3.188-.25.966-.525 1.927-.868 2.865-.299.819-.613 1.63-.96 2.43a46 46 0 0 1-1.118 2.431 40 40 0 0 1-1.392 2.541 83 83 0 0 1-1.3 2.116 58 58 0 0 1-1.54 2.306 45 45 0 0 1-1.848 2.444 53 53 0 0 1-1.98 2.299c-.67.726-1.352 1.44-2.057 2.132q-.941.929-1.902 1.836a273 273 0 0 1-3.752 3.473 269 269 0 0 1-3.856 3.449 138 138 0 0 1-2.047 1.764q-1.056.892-2.136 1.758a92 92 0 0 1-4.414 3.324 99 99 0 0 1-2.207 1.508q-1.072.712-2.157 1.402a211 211 0 0 1-2.054 1.287q-1.027.637-2.065 1.256-.956.57-1.918 1.133c-.603.353-1.205.709-1.81 1.058l-1.65.961q-.754.439-1.505.881-.674.399-1.347.801-.678.406-1.358.809l-1.21.712-1.151.672q-.536.31-1.074.616l-.922.517q-.219.121-.297.168c-.103.061.343-.218-.031.02l-3.192-5c-.248.283-.491.57-.755.84a17 17 0 0 1-2.809 2.285 20 20 0 0 1-1.672.976c-.564.297-1.143.562-1.727.817a35 35 0 0 1-3.48 1.289 60 60 0 0 1-1.725.511 82 82 0 0 1-1.691.46q-.843.218-1.69.425l-1.68.41q-.865.21-1.73.426-.932.232-1.863.477-1 .262-1.994.543a78 78 0 0 0-2.04.607 70 70 0 0 0-6.133 2.21 58 58 0 0 0-3.915 1.786 89 89 0 0 0-1.937 1.004 175 175 0 0 0-3.838 2.107 137 137 0 0 0-3.608 2.12 161 161 0 0 0-3.455 2.173 273 273 0 0 0-3.353 2.206l-1.631 1.093q-.784.529-1.565 1.06l-1.552 1.06q-.753.513-1.504 1.03l-1.473 1.014-.111.077.883-.06a268 268 0 0 0 2.527-.192 48 48 0 0 0 1.088-.108 124 124 0 0 0 2.217-.263 184 184 0 0 1 2.113-.254l.7-.084q.217-.028.433-.059l.168-.027 2.136 12.316a24 24 0 0 1-1.138.166l-.85.104-.959.113-1.05.129a173 173 0 0 1-2.405.285q-.683.075-1.365.135-.683.056-1.367.107-.682.053-1.364.102-.68.047-1.363.092-.652.043-1.303.091-.688.05-1.377.098l-1.449.1-1.543.097a414 414 0 0 1-3.244.192l-1.654.09q-.84.044-1.682.085-.847.042-1.693.08l-1.664.077-1.702.072-.21.008-.002.008q-.042.19-.08.38l-.079.401-.07.358c-.01.05-.026.141-.041.21l-5.3-1.097-.95.053a121 121 0 0 0-3.059.215q-.495.04-.99.085l4.692 5.14a14 14 0 0 1-1.616 1.265c-.072.05-.194.129-.238.158l-.012.01q-.143.106-.285.217l-.58.443q-.363.274-.728.543a51 51 0 0 1-1.627 1.178 40 40 0 0 1-2.532 1.597c-.41.24-.826.47-1.242.7q-.603.33-1.21.654a192 192 0 0 0-2.208 1.191q-.637.347-1.277.69a77 77 0 0 1-1.592.826 71 71 0 0 1-1.742.844q-.88.416-1.77.81-.885.391-1.775.774l-1.805.771a272 272 0 0 0-3.613 1.565q-.924.41-1.846.828-.95.436-1.896.877-.974.454-1.943.916-1.007.479-2.012.96-1.137.543-2.283 1.063-1.234.56-2.485 1.082a71 71 0 0 1-5.842 2.123c-1.012.324-2.03.627-3.05.926q-1.431.418-2.864.826-1.382.396-2.765.787-1.495.428-3 .81a56 56 0 0 1-3.55.753 61 61 0 0 1-3.532.508 74 74 0 0 1-3.41.295 66 66 0 0 1-3.489.115 66 66 0 0 1-3.525-.08 77 77 0 0 1-3.426-.256 73 73 0 0 1-3.361-.412 55 55 0 0 1-3.485-.64 51 51 0 0 1-3.41-.87 42 42 0 0 1-3.44-1.18 38 38 0 0 1-3.353-1.521c-1.173-.6-2.29-1.303-3.373-2.051-1.077-.753-2.074-1.611-3.03-2.512-1.032-.98-1.936-2.08-2.77-3.23-.794-1.107-1.443-2.304-2.022-3.533-.502-1.081-.89-2.208-1.225-3.35-.296-1.04-.5-2.105-.664-3.174a31 31 0 0 1-.263-2.629 52 52 0 0 1-.073-2.08c-.008-.416-.006-.833-.006-1.25-2.027.769-4.108 1.007-6.27.926a55 55 0 0 1-2.51-.195q-1.151-.111-2.3-.239a130 130 0 0 1-5.094-.662c-.822-.123-1.641-.256-2.462-.388q-1.184-.187-2.366-.39a98 98 0 0 1-4.789-.952l-2.045-.457q-.941-.212-1.884-.416c-.449-.1-.9-.179-1.354-.252-.26-.043-.522-.055-.785-.07-.278-.012-.556 0-.834.011-.32.014-.636.057-.953.1-.342.053-.68.13-1.018.207-.39.088-.77.21-1.152.33-.447.145-.886.315-1.324.484q-.878.346-1.748.707-.936.398-1.87.801-1.029.444-2.06.885-1.088.464-2.182.916c-.803.333-1.613.65-2.424.963-.805.31-1.614.61-2.423.91a287 287 0 0 1-4.983 1.783 67 67 0 0 1-2.886.932 38 38 0 0 1-3.696.879c-1.273.237-2.56.386-3.85.5a56 56 0 0 1-3.45.164c-1.07.02-2.14.006-3.21-.018a119 119 0 0 1-3.005-.123q-1.38-.072-2.76-.158-1.338-.085-2.674-.178a163 163 0 0 1-2.746-.209 94 94 0 0 1-2.932-.295 68 68 0 0 1-3.045-.426 65 65 0 0 1-3.013-.57 94 94 0 0 1-2.73-.623 95 95 0 0 1-5.055-1.367 97 97 0 0 1-2.383-.733 138 138 0 0 1-4.285-1.466c-.617-.222-1.235-.438-1.852-.657a84 84 0 0 0-1.68-.572c-.47-.154-.945-.291-1.422-.424a50 50 0 0 0-1.566-.398q-.918-.216-1.838-.428-.885-.2-1.773-.394a85 85 0 0 1-2.108-.485 41 41 0 0 1-2.37-.656c-.96-.295-1.892-.66-2.81-1.062a23 23 0 0 1-2.75-1.477 25 25 0 0 1-2.228-1.59 26 26 0 0 1-1.88-1.674 23 23 0 0 1-1.845-2.062 20.5 20.5 0 0 1-1.7-2.533c-.54-.937-.973-1.928-1.354-2.938-.394-1.06-.662-2.157-.871-3.266a29 29 0 0 1-.303-2.246 53 53 0 0 1-.135-1.74 126 126 0 0 1-.137-3.064l-.046-1.465a232 232 0 0 0-.047-1.451q-.025-.753-.055-1.504l-.062-1.487q-.04-.764-.083-1.527-.044-.804-.093-1.61-.05-.748-.112-1.495-.066-.81-.14-1.62-.072-.81-.158-1.62c-.063-.571-.134-1.14-.204-1.71q-.116-.924-.236-1.847a211 211 0 0 1-.512-4.314q-.133-1.21-.244-2.42-.106-1.207-.205-2.415-.095-1.188-.183-2.377-.091-1.178-.174-2.355-.083-1.234-.155-2.469c-.048-.82-.087-1.642-.128-2.463q-.063-1.226-.12-2.453l-.103-2.398q-.05-1.207-.094-2.412-.041-1.177-.086-2.354a862 862 0 0 0-.193-4.6q-.048-1.1-.104-2.199l-.115-2.191-.039-.754 3.23-.162-.013-.375q-.036-.816-.084-1.631a58 58 0 0 0-.27-3.102 75 75 0 0 0-.2-1.662q-.124-.923-.25-1.845-.123-.899-.25-1.795a114 114 0 0 0-.519-3.309 112 112 0 0 0-.607-3.12c-.11-.512-.218-1.025-.334-1.536a72 72 0 0 0-.342-1.432l-.064-.262 4.836-1.197a97 97 0 0 1-2.121-2.014 163 163 0 0 1-4.227-4.297 98 98 0 0 1-2.203-2.4 75 75 0 0 1-2.182-2.582 97 97 0 0 1-5.637-7.778Q.646 219.734 0 218.725Zm39.465 97.723c-.03-.009.057.02.084.035.015.01-.065-.022-.049-.015.028.011.16.05.082.033l.05.014c-.046-.023-.115-.06-.099-.045.106.05.004-.001-.068-.022m138.16 27.758c.023.023.271.259.096.125.027.02.062.042.088.06-.047-.046-.09-.103-.184-.185" style="fill:red;fill-opacity:1;fill-rule:nonzero;stroke:none"/></clipPath><style id="style2">.cls-5{fill:#4edd61}.cls-18{fill:#0e3e33}.cls-7{fill:url(#linear-gradient)}.cls-8{fill:url(#linear-gradient-2)}.cls-11{fill:#00988e}.cls-13{fill:#016f3f}.cls-16{fill:#2b6876}.cls-21{fill:#078e50}.cls-22{fill:#226271}</style></defs><g id="g8896" style="stroke:#4edd61;stroke-opacity:1;fill:#4edd61;fill-opacity:1;opacity:1;stroke-width:61.8;stroke-miterlimit:4;stroke-dasharray:none"><path id="path1853" d="M89.36 255.23a19.44 19.44 0 0 0 5.85-10.22 71.4 71.4 0 0 0 1.13-20c-.61-7.72-2.5-15.86-6.76-22.06-4.64-6.73-16.46-6.85-28.16-7.22-5.47-.18-11-.4-15.69-1-5.45-.7-10.89-1.66-16-2.72a82 82 0 0 0 .08 8.61c.15 1.9.47 4 .77 5.9 3.24.68 8.34 2 15.39 3q3.09 50.71 6.59 101.39a97 97 0 0 0 15.76 1.79c7 .31 13.94.08 20.43-.28 5.13-.28 10.24-2.69 12.79-8.7 1.91-4.47 2.31-11.85 1.95-19.2-.43-9.49-4.69-24.31-14.13-29.29m-27.32-44.2c5.75-.09 14.33-.88 16.53 5.9a63.4 63.4 0 0 1 2.8 14.2c.49 6.12-.11 12.17-2.46 16.63-1.71 3.25-10.24 2.6-14 2.61-1.22-13.12-2.23-26.18-2.87-39.34m21 86.71c-4 1.16-9.7 1.9-14.22.29-.71-11.4-2.15-22.73-3-34.12 8.76-.4 15.86-.6 19 10.51a109 109 0 0 1 1.67 11.32c.45 5.54-.11 9.84-3.43 12z" class="cls-7" style="fill:#4edd61;stroke:#4edd61;stroke-opacity:1;stroke-width:61.8;stroke-miterlimit:4;stroke-dasharray:none;opacity:1;stroke-linecap:round;stroke-linejoin:round;fill-opacity:1"/><path id="path1855" d="M353.58 229.59c-6.23 9.45-15.27 21.62-17 12.44-3.47-18.78-4.12-38.18-6.32-57.19a64 64 0 0 0-6.51-.34 53 53 0 0 0-7.32.52c1.51 16.74 3.5 33.43 5.26 50.15-2.09 6.65-12.8 16.26-14.32 6.54-3.57-18.48-4.79-37.59-6.5-56.32-1.62.05-3.1.22-4.46.39a81 81 0 0 0-9.33 1.82c.3 3.19.58 6.17.86 8.95a41 41 0 0 1-7.09 3.67c-4 1.46-7 3.24-9.27 2.59-1.35-12.19-12.29-11.78-20.11-9.73-2.93.77-5.24 1.67-6.69 2.18-8 2.81-14.63 7.28-14.5 15.1.15 9.6.42 19 .79 28.7.09 2.38.2 5.15.34 8-6.74 10.71-12 18.23-15.76 23.73-2.7-20.92-3.61-42-6.28-63a69 69 0 0 0-7.07 2c-2.07.66-4.26 1.37-6.32 2.16q2 24.44 5 48.73c-4.88 7.55-13.23 17.3-14.28 8.52-2.08-17.37-4.17-34.85-5.68-52.33a43 43 0 0 0-6.61 1.56 73 73 0 0 0-7 2.55c1.52 12.39 2.72 25 4.1 37.22.28 2.39.69 5.06 1.05 7.8-6.84 13.69-10.1 16.22-13.2 19.62-1.37 1.52-5 2-5-.62-.6-20.63-.75-41.41-1.22-62.11-3.94.6-6.87 1.4-11.77 2.53-.17 2.58-.33 5.27-.47 8.22-3.56-4-8.12-4.81-12.53-3.83a20.7 20.7 0 0 0-8.87 4.51c-7.11 6.16-7.9 13.5-7.89 27.68 0 7.91.25 15.53.78 22.22.7 8.68 2 15.71 4.46 19.86 2.36 4 7.64 5.07 12.3 4.1a16.5 16.5 0 0 0 5-1.94c3-1.75 6.6-6.32 8.53-11.85 2.51 9.49 5.8 10.09 12.63 8.22 4.8-1.31 10.62-4.48 19.3-20.64v.18c.57 5.4 4.34 8.81 7.31 8.79 8.92-.07 16.21-9.48 21.13-16.53.6 4.38 1.09 7.4 1.48 10.71-2.54 2.47-8.13 10.63-11 14.74-2.14 2.84-6.67 10.13-8.09 15.78-2.08 8.27.94 18 4.74 20.36 3.27 2 7.46 2.84 13.79.8 14.07-4.54 17.25-16.77 16.05-30.08-.63-7-1.58-13.47-2.47-19.92 4.18-5.39 9.16-14 15.11-24a45 45 0 0 0 .88 5.53c1.67 6.59 12.82 5.94 19.9 4 9.65-2.61 15.93-6.6 18.52-13.33 1.33-3.45 1.42-12.06 1.22-23.73-.06-3.36 0-9.13-.21-15.08-.06-2.12-.33-4.21-.36-6.1a45 45 0 0 0 13.25-4.3c1.13-.56 2.27-1.17 3.38-1.81.74 7 1.44 12.46 1.95 16.89 1.18 10.37.52 26 7.24 32.92 1.87 1.94 5.69 2.51 9.28 2.14 6.68-.68 14-4.65 17.1-10.8 1.39 8 6.46 10.67 11.34 10.81a13.1 13.1 0 0 0 8-2.32c7.38-5.77 11.6-10.92 16.78-19.55-2.58-3.62-4.86-5.57-7.35-8.48m-212.58 51c-3.87 7.78-7.73 10.92-10.67 11.55a4.43 4.43 0 0 1-3.67-.62c-.66-.49-1.27-4.91-1.73-10.73-.82-10.29-1.06-25.26.25-31.17.75-3.38 3.18-7 6.49-7.73 2.57-.59 5.77.41 9 4.66.48 11.33.38 22.71.35 34.04zm66.92 33.51c0 3.17.55 8.77-5.85 11.17-2.64 1-5.78-3.17-5.51-8.15.23-4.24 6.5-12.26 10-18.1.26 4.26 1.39 9.24 1.38 15.08zm52.36-59.53c-.6 5.22-12.68 7.31-13.7 4.94-4.82-11.28-2.84-31.07-3.57-46.26-.22-4.48 2.58-8.26 9.84-9.52a10.49 10.49 0 0 0-.87 9.47c1.35 2.81 3.18 3.83 7.34 4.44 1.01 12.18 2.32 25.19.98 36.93z" class="cls-8" style="opacity:1;fill:#4edd61;fill-opacity:1;stroke:#4edd61;stroke-width:61.8;stroke-linecap:round;stroke-linejoin:round;stroke-miterlimit:4;stroke-dasharray:none;stroke-opacity:1"/></g><g id="g907" style="stroke:#0e3e33;stroke-opacity:1;fill:#4edd61;fill-opacity:1;opacity:1;stroke-width:49.50000076;stroke-miterlimit:4;stroke-dasharray:none"><path id="path903" d="M89.36 255.23a19.44 19.44 0 0 0 5.85-10.22 71.4 71.4 0 0 0 1.13-20c-.61-7.72-2.5-15.86-6.76-22.06-4.64-6.73-16.46-6.85-28.16-7.22-5.47-.18-11-.4-15.69-1-5.45-.7-10.89-1.66-16-2.72a82 82 0 0 0 .08 8.61c.15 1.9.47 4 .77 5.9 3.24.68 8.34 2 15.39 3q3.09 50.71 6.59 101.39a97 97 0 0 0 15.76 1.79c7 .31 13.94.08 20.43-.28 5.13-.28 10.24-2.69 12.79-8.7 1.91-4.47 2.31-11.85 1.95-19.2-.43-9.49-4.69-24.31-14.13-29.29m-27.32-44.2c5.75-.09 14.33-.88 16.53 5.9a63.4 63.4 0 0 1 2.8 14.2c.49 6.12-.11 12.17-2.46 16.63-1.71 3.25-10.24 2.6-14 2.61-1.22-13.12-2.23-26.18-2.87-39.34m21 86.71c-4 1.16-9.7 1.9-14.22.29-.71-11.4-2.15-22.73-3-34.12 8.76-.4 15.86-.6 19 10.51a109 109 0 0 1 1.67 11.32c.45 5.54-.11 9.84-3.43 12z" class="cls-7" style="fill:#4edd61;stroke:#0e3e33;stroke-opacity:1;stroke-width:49.50000076;stroke-miterlimit:4;stroke-dasharray:none;opacity:1;stroke-linecap:round;stroke-linejoin:round;fill-opacity:1"/><path id="path905" d="M353.58 229.59c-6.23 9.45-15.27 21.62-17 12.44-3.47-18.78-4.12-38.18-6.32-57.19a64 64 0 0 0-6.51-.34 53 53 0 0 0-7.32.52c1.51 16.74 3.5 33.43 5.26 50.15-2.09 6.65-12.8 16.26-14.32 6.54-3.57-18.48-4.79-37.59-6.5-56.32-1.62.05-3.1.22-4.46.39a81 81 0 0 0-9.33 1.82c.3 3.19.58 6.17.86 8.95a41 41 0 0 1-7.09 3.67c-4 1.46-7 3.24-9.27 2.59-1.35-12.19-12.29-11.78-20.11-9.73-2.93.77-5.24 1.67-6.69 2.18-8 2.81-14.63 7.28-14.5 15.1.15 9.6.42 19 .79 28.7.09 2.38.2 5.15.34 8-6.74 10.71-12 18.23-15.76 23.73-2.7-20.92-3.61-42-6.28-63a69 69 0 0 0-7.07 2c-2.07.66-4.26 1.37-6.32 2.16q2 24.44 5 48.73c-4.88 7.55-13.23 17.3-14.28 8.52-2.08-17.37-4.17-34.85-5.68-52.33a43 43 0 0 0-6.61 1.56 73 73 0 0 0-7 2.55c1.52 12.39 2.72 25 4.1 37.22.28 2.39.69 5.06 1.05 7.8-6.84 13.69-10.1 16.22-13.2 19.62-1.37 1.52-5 2-5-.62-.6-20.63-.75-41.41-1.22-62.11-3.94.6-6.87 1.4-11.77 2.53-.17 2.58-.33 5.27-.47 8.22-3.56-4-8.12-4.81-12.53-3.83a20.7 20.7 0 0 0-8.87 4.51c-7.11 6.16-7.9 13.5-7.89 27.68 0 7.91.25 15.53.78 22.22.7 8.68 2 15.71 4.46 19.86 2.36 4 7.64 5.07 12.3 4.1a16.5 16.5 0 0 0 5-1.94c3-1.75 6.6-6.32 8.53-11.85 2.51 9.49 5.8 10.09 12.63 8.22 4.8-1.31 10.62-4.48 19.3-20.64v.18c.57 5.4 4.34 8.81 7.31 8.79 8.92-.07 16.21-9.48 21.13-16.53.6 4.38 1.09 7.4 1.48 10.71-2.54 2.47-8.13 10.63-11 14.74-2.14 2.84-6.67 10.13-8.09 15.78-2.08 8.27.94 18 4.74 20.36 3.27 2 7.46 2.84 13.79.8 14.07-4.54 17.25-16.77 16.05-30.08-.63-7-1.58-13.47-2.47-19.92 4.18-5.39 9.16-14 15.11-24a45 45 0 0 0 .88 5.53c1.67 6.59 12.82 5.94 19.9 4 9.65-2.61 15.93-6.6 18.52-13.33 1.33-3.45 1.42-12.06 1.22-23.73-.06-3.36 0-9.13-.21-15.08-.06-2.12-.33-4.21-.36-6.1a45 45 0 0 0 13.25-4.3c1.13-.56 2.27-1.17 3.38-1.81.74 7 1.44 12.46 1.95 16.89 1.18 10.37.52 26 7.24 32.92 1.87 1.94 5.69 2.51 9.28 2.14 6.68-.68 14-4.65 17.1-10.8 1.39 8 6.46 10.67 11.34 10.81a13.1 13.1 0 0 0 8-2.32c7.38-5.77 11.6-10.92 16.78-19.55-2.58-3.62-4.86-5.57-7.35-8.48m-212.58 51c-3.87 7.78-7.73 10.92-10.67 11.55a4.43 4.43 0 0 1-3.67-.62c-.66-.49-1.27-4.91-1.73-10.73-.82-10.29-1.06-25.26.25-31.17.75-3.38 3.18-7 6.49-7.73 2.57-.59 5.77.41 9 4.66.48 11.33.38 22.71.35 34.04zm66.92 33.51c0 3.17.55 8.77-5.85 11.17-2.64 1-5.78-3.17-5.51-8.15.23-4.24 6.5-12.26 10-18.1.26 4.26 1.39 9.24 1.38 15.08zm52.36-59.53c-.6 5.22-12.68 7.31-13.7 4.94-4.82-11.28-2.84-31.07-3.57-46.26-.22-4.48 2.58-8.26 9.84-9.52a10.49 10.49 0 0 0-.87 9.47c1.35 2.81 3.18 3.83 7.34 4.44 1.01 12.18 2.32 25.19.98 36.93z" class="cls-8" style="opacity:1;fill:#4edd61;fill-opacity:1;stroke:#0e3e33;stroke-width:49.50000076;stroke-linecap:round;stroke-linejoin:round;stroke-miterlimit:4;stroke-dasharray:none;stroke-opacity:1"/></g><g id="g34641" clip-path="url(#clipPath16452)" style="opacity:1"><path id="path243" d="M13.89 169.74a148 148 0 0 0 15.51 3.81c4.63.93 9.9 1.85 15.18 2.51 1.9.24 4 .39 6.13.53 2.66.18 5.41.3 8.17.41 2.15.08 4.88.14 8 .3a294 294 0 0 0 37.66-4c29.84-45 63.55-85.61 114.36-107.37 39.76-17 88.48-22 129.62-6.56 14.52 5.45 28.05 14.56 36.49 27.58 11.54 17.8 12.5 53.68 11.6 74.26l-33.96 37.13c-4.78 3.06 16.41 27.89 17.79 30 1.1 1.68 9.39 15.53 8.63 16.62-2.74 3.93-4.1 5.94-6.83 10a82 82 0 0 1-11.14 13.74c-2.54 22.14-13.72 82.27-60.92 96.43-50.45 15.13-82.06-6.5-89.54-12.49a58.6 58.6 0 0 1-14.87 7.42c-11.34 3.79-22 3-30.07-2.39-10.44-6.93-14.35-21.14-13.8-33.43a42 42 0 0 1-4.76 1.63 35.2 35.2 0 0 1-14.72 1.17 39 39 0 0 1-11.4 4.41 32.4 32.4 0 0 1-22.84-3.31 33.7 33.7 0 0 1-19.82 7.56c-2.89.12-5.88.23-8.93.27-3.32 0-6.71 0-10.11-.16a98 98 0 0 1-16.72-2.06 160 160 0 0 1-22-6.34c-.6-8.55-.91-12.82-1.51-21.37q-2.6-37.21-5-74.45c-4.89-1.29-7.34-2-12.27-3.7-.38-.13-2.33-8.29-2.76-9.34-4.6-11.33-7.29-24.76-4.29-36.87.29-1.18 1.37-7.83 2.26-8.3z" clip-path="url(#clipPath34555)" style="fill:#0e3e33;stroke:#4edd61;stroke-width:6.98;stroke-miterlimit:10;stroke-dasharray:none;stroke-linejoin:round;stroke-linecap:round"/><path id="rect1203" d="M26.156 415.818h178.702v.587H26.156z" style="fill:#4edd61;fill-opacity:1;stroke:#4edd61;stroke-width:6.87597;stroke-linecap:round;stroke-linejoin:round;stroke-miterlimit:10;stroke-dasharray:none;stroke-opacity:1" transform="matrix(.8682 -.4962 .47203 .88158 0 0)"/></g><path id="path223" d="m111.41 124.94-3.67 4.9-23.56-17.93 3.28-4.37c2.95.47 11 2.81 17.17 4.18l-12.83-9.83 3.63-4.48c2.67 2 5.14 3.82 7.56 5.63 5.15 3.87 10 7.61 15.69 12.1-.52.75-.89 1.32-1.24 1.78-.7.93-1.23 1.51-2.1 2.67-2.29-.54-10.13-2-15.85-3.39 3.96 2.85 9.87 7.08 11.92 8.74" class="cls-5" style="fill:#4edd61"/><path id="path225" d="M116.34 88.65c1.22-1.3 2.62-3.08 4.16-4.7a23 23 0 0 1 4.46 4.13l-4.18 4.61c1.3 1 2.64 2.36 3.92 3.27 2-2.05 3.84-4.55 5.34-6 .31.26.58.52.84.74 1.14.95 2 1.57 3 2.36.31.26.66.55 1 .86-1 1.34-1.9 2.5-2.85 3.65-1.22 1.46-2.43 2.86-3.78 4.47-.66.8-1.37 1.64-2.11 2.59-4.06-3.39-8.11-6.85-12.44-10.5-3.07-2.6-6.25-5.47-9.35-8.09 3.15-4.25 4.84-6.5 8.07-11 1.11.93 1.72 1.48 2.55 2.17.57.48 1.23 1 2.24 1.79l-4.61 6.43z" class="cls-5" style="fill:#4edd61"/><path id="path227" d="M138.9 53.83c.57.27 3.83 3.63 7.47 7 1 .93 4.12 4.11 5.09 5-1.23-1.87-3.45-6.22-4-7.41-2-4.23-3.26-6.83-4.44-9.92l5.74-2.19c3.29 7.61 8.29 19.22 11.41 26.49-.57.48-1 .83-1.4 1.11-1 .75-1.43 1-2.95 2.16a71 71 0 0 1-6.59-6c-.95-.92-3.48-3.48-5.8-5.93 1.81 2.84 3.55 5.77 4.23 7.08 2.05 4 3.34 6.45 4 8a12 12 0 0 0-1.3.86c-.83.63-1.38 1.24-2.2 1.87-.21.15-.44.33-.69.48-7.87-6-15-11.74-23-17.88l3.84-5.32a95 95 0 0 1 9.25 7.36c1.23 1.08 4.92 4.68 5.89 5.58-1.06-1.77-3.1-5.08-3.85-6.43-2.24-4.05-4.66-7.64-4.82-8.65z" class="cls-5" style="fill:#4edd61"/><path id="path229" d="M201.5 50.34c-.4.22-.78.4-1.13.56-5.28 2.45-7.77-.05-10.73-5.28-1.32-2.31-3.09-5.51-4-7.4-.77-1.66-1.49-3.58-2.28-5.68-.94-2.48-1-4.54.36-6.28a13.75 13.75 0 0 1 4.58-3.36 8.67 8.67 0 0 1 5.29-.9 7.49 7.49 0 0 1 5 3.94c.86 1.69 2.26 4.41 3.64 7.38.31.68.61 1.4.93 2.08 1.68 3.77 3.13 7.21 2.71 9.21a7.4 7.4 0 0 1-2.44 4.66zm-8.4-20.79c-.84-1.41-1.77-1.35-2.65-.86a2.49 2.49 0 0 0-.85 2.65 115 115 0 0 0 6.24 12.29c.7 1.28 2.06 1.51 2.67.9 1-.6.59-2.49.16-3.4a112 112 0 0 0-5.57-11.56z" class="cls-5" style="fill:#4edd61"/><path id="path231" d="M230.41 39.84c-3.83-4.79-5.08-6.46-7.42-9.5l-1.31.38s2.7 9.19 2.85 9.65c-.52.17-.91.34-1.25.44-1.48.48-1.59.36-3.75.94-2.16-6.27-3.6-10.74-5.64-16.62-.74-2.07-1.53-4.4-2.28-6.74-.44-1.34-.83-2.66-1.24-3.94a31 31 0 0 1 3.81-1.58c.4-.13.81-.23 1.3-.39 2.26-.69 5.16-1.27 6.53-.42 2.68 1.68 2.68 2.5 4.6 7.83.08.25.19.49.28.73a14.5 14.5 0 0 1 .66 3.94l-.65 3.06 7 8.38zm-8.43-15.75c-.64-2.73-1.38-5.12-2.25-6.13s-2.41.12-2.5.15 1.85 5.19 2.77 7.52c2.24-.14 1.98-1.54 1.98-1.54" class="cls-5" style="fill:#4edd61"/><path id="path233" d="m239.25 5.44 6.36-1 5 22.07c1.81-.36 3.37-.48 6-1.07.37 1.56.57 2.54.8 3.71.16.81.32 1.65.62 2.8l-10.78 2.21-1.81.2-5.1-23.82z" class="cls-5" style="fill:#4edd61"/><path id="path235" d="M273.45 12.34c1.78 0 4-.27 6.27-.3a22.4 22.4 0 0 1 .15 6.08l-6.21.22c.19 1.63.14 3.54.39 5.09 2.89 0 5.94-.43 8-.36 0 .4 0 .78.06 1.11.11 1.49.29 2.56.39 3.78 0 .41.06.86.07 1.3-1.64.24-3.12.39-4.6.51-1.91.15-3.75.25-5.85.41-1 .09-2.12.17-3.32.3-.41-5.27-.75-10.59-1.16-16.23-.28-4-.45-8.29-.73-12.34 5.23-.71 8-1.07 13.51-1.91.12 1.45.15 2.27.23 3.34.06.75.12 1.6.29 2.86l-7.77 1.14z" class="cls-5" style="fill:#4edd61"/><path id="path237" d="M305.24.34c.48 0 1.07.06 1.81.07 2.17 8.9 3 18.16 4.9 29.95l-6.46-.34c-.26-2.29-.25-2.37-.61-4.51-1.33 0-3.49-.17-4.73-.2l-1.22 4.33c-2.62-.15-3.49-.2-6.49-.41l7.47-27.55.39-1.59c.71 0 1.62 0 2.94.1.48.02 1.03.09 2 .15m-.95 19.09s-.15-3-.3-4.79c-.19-2.37-.69-6-.69-6-.75 3.35-2.05 10.62-2.11 10.62a29 29 0 0 0 3.1.16z" class="cls-5" style="fill:#4edd61"/><path id="path239" d="m328.18 32.97-6-1.14 4-17.26 2.52-11.53 4.91 1c.61 3 2.06 11.24 3.2 17.31l3.93-15.38 5.88 1c-2.53 10-4.81 18.26-7.46 28.59-1.37-.24-2.2-.39-3-.56s-1.44-.37-2.48-.61c-.25-1.39-1-4.41-1.41-7.95-.34-2.45-.78-4-1.24-6.36-.94 4.77-2.17 10.33-2.85 12.89" class="cls-5" style="fill:#4edd61"/><path id="path241" d="M366.41 36.68a10.34 10.34 0 0 1-5 5c-2.85.93-4.71.18-9.27-1.76l-1.54-.58 2.47-5.63c.64.23 1.19.42 2 .74 1.51.57 3.27 1.48 4.69.14a5 5 0 0 0 .61-1c.91-2.12 0-4.24-.58-6.23s-.9-3.75-.25-5.62c.18-.49.37-1 .6-1.56.92-2.16 2.51-4.56 5.75-5.25 1.73-.35 4-.07 8.18 1.34l-1.57 6.07c-1.16-.33-2-.4-2.51-.54a3 3 0 0 0-2.06.21 4.4 4.4 0 0 0-1.34 1.74 2.92 2.92 0 0 0-.22 1.77 35 35 0 0 1 .75 4.93 12.8 12.8 0 0 1-.71 6.23" class="cls-5" style="fill:#4edd61"/><path id="path245" d="M89.36 255.23a19.44 19.44 0 0 0 5.85-10.22 71.4 71.4 0 0 0 1.13-20c-.61-7.72-2.5-15.86-6.76-22.06-4.64-6.73-16.46-6.85-28.16-7.22-5.47-.18-11-.4-15.69-1-5.45-.7-10.89-1.66-16-2.72a82 82 0 0 0 .08 8.61c.15 1.9.47 4 .77 5.9 3.24.68 8.34 2 15.39 3q3.09 50.71 6.59 101.39a97 97 0 0 0 15.76 1.79c7 .31 13.94.08 20.43-.28 5.13-.28 10.24-2.69 12.79-8.7 1.91-4.47 2.31-11.85 1.95-19.2-.43-9.49-4.69-24.31-14.13-29.29m-27.32-44.2c5.75-.09 14.33-.88 16.53 5.9a63.4 63.4 0 0 1 2.8 14.2c.49 6.12-.11 12.17-2.46 16.63-1.71 3.25-10.24 2.6-14 2.61-1.22-13.12-2.23-26.18-2.87-39.34m21 86.71c-4 1.16-9.7 1.9-14.22.29-.71-11.4-2.15-22.73-3-34.12 8.76-.4 15.86-.6 19 10.51a109 109 0 0 1 1.67 11.32c.45 5.54-.11 9.84-3.43 12z" class="cls-7" style="fill:url(#linearGradient1261)"/><path id="path247" d="M353.6 229.59c-6.23 9.45-15.27 21.62-17 12.44-3.47-18.78-4.12-38.18-6.32-57.19a64 64 0 0 0-6.51-.34 53 53 0 0 0-7.32.52c1.51 16.74 3.5 33.43 5.26 50.15-2.09 6.65-12.8 16.26-14.32 6.54-3.57-18.48-4.79-37.59-6.5-56.32-1.62.05-3.1.22-4.46.39a81 81 0 0 0-9.33 1.82c.3 3.19.58 6.17.86 8.95a41 41 0 0 1-7.09 3.67c-4 1.46-7 3.24-9.27 2.59-1.35-12.19-12.29-11.78-20.11-9.73-2.93.77-5.24 1.67-6.69 2.18-8 2.81-14.63 7.28-14.5 15.1.15 9.6.42 19 .79 28.7.09 2.38.2 5.15.34 8-6.74 10.71-12 18.23-15.76 23.73-2.7-20.92-3.61-42-6.28-63a69 69 0 0 0-7.07 2c-2.07.66-4.26 1.37-6.32 2.16q2 24.44 5 48.73c-4.88 7.55-13.23 17.3-14.28 8.52-2.08-17.37-4.17-34.85-5.68-52.33a43 43 0 0 0-6.61 1.56 73 73 0 0 0-7 2.55c1.52 12.39 2.72 25 4.1 37.22.28 2.39.69 5.06 1.05 7.8-6.84 13.69-10.1 16.22-13.2 19.62-1.37 1.52-5 2-5-.62-.6-20.63-.75-41.41-1.22-62.11-3.94.6-6.87 1.4-11.77 2.53-.17 2.58-.33 5.27-.47 8.22-3.56-4-8.12-4.81-12.53-3.83a20.7 20.7 0 0 0-8.87 4.51c-7.11 6.16-7.9 13.5-7.89 27.68 0 7.91.25 15.53.78 22.22.7 8.68 2 15.71 4.46 19.86 2.36 4 7.64 5.07 12.3 4.1a16.5 16.5 0 0 0 5-1.94c3-1.75 6.6-6.32 8.53-11.85 2.51 9.49 5.8 10.09 12.63 8.22 4.8-1.31 10.62-4.48 19.3-20.64v.18c.57 5.4 4.34 8.81 7.31 8.79 8.92-.07 16.21-9.48 21.13-16.53.6 4.38 1.09 7.4 1.48 10.71-2.54 2.47-8.13 10.63-11 14.74-2.14 2.84-6.67 10.13-8.09 15.78-2.08 8.27.94 18 4.74 20.36 3.27 2 7.46 2.84 13.79.8 14.07-4.54 17.25-16.77 16.05-30.08-.63-7-1.58-13.47-2.47-19.92 4.18-5.39 9.16-14 15.11-24a45 45 0 0 0 .88 5.53c1.67 6.59 12.82 5.94 19.9 4 9.65-2.61 15.93-6.6 18.52-13.33 1.33-3.45 1.42-12.06 1.22-23.73-.06-3.36 0-9.13-.21-15.08-.06-2.12-.33-4.21-.36-6.1a45 45 0 0 0 13.25-4.3c1.13-.56 2.27-1.17 3.38-1.81.74 7 1.44 12.46 1.95 16.89 1.18 10.37.52 26 7.24 32.92 1.87 1.94 5.69 2.51 9.28 2.14 6.68-.68 14-4.65 17.1-10.8 1.39 8 6.46 10.67 11.34 10.81a13.1 13.1 0 0 0 8-2.32c7.38-5.77 11.6-10.92 16.78-19.55-2.58-3.62-4.86-5.57-7.35-8.48m-212.58 51c-3.87 7.78-7.73 10.92-10.67 11.55a4.43 4.43 0 0 1-3.67-.62c-.66-.49-1.27-4.91-1.73-10.73-.82-10.29-1.06-25.26.25-31.17.75-3.38 3.18-7 6.49-7.73 2.57-.59 5.77.41 9 4.66.48 11.33.38 22.71.35 34.04zm66.92 33.51c0 3.17.55 8.77-5.85 11.17-2.64 1-5.78-3.17-5.51-8.15.23-4.24 6.5-12.26 10-18.1.26 4.26 1.39 9.24 1.38 15.08zm52.36-59.53c-.6 5.22-12.68 7.31-13.7 4.94-4.82-11.28-2.84-31.07-3.57-46.26-.22-4.48 2.58-8.26 9.84-9.52a10.49 10.49 0 0 0-.87 9.47c1.35 2.81 3.18 3.83 7.34 4.44 1.01 12.18 2.32 25.19.98 36.93z" class="cls-8" style="fill:url(#linear-gradient-2)"/><g id="g255" style="opacity:.5" transform="translate(-293.4 -169.66)"><g id="g253" clip-path="url(#clip-path)" style="clip-path:url(#clip-path)"><path id="path249" d="M382.73 425.06a19.5 19.5 0 0 0 5.84-10.23 71.6 71.6 0 0 0 1.1-20c-.62-7.72-2.52-15.86-6.79-22.05-4.65-6.73-16.47-6.83-28.17-7.19-5.47-.16-11-.38-15.69-1-5.46-.69-10.89-1.64-16-2.69a85 85 0 0 0 .09 8.61c.16 1.9.48 4 .79 5.89 3.23.68 8.34 2 15.39 2.95q3.15 50.7 6.73 101.37a96 96 0 0 0 15.76 1.77c7 .3 13.95.06 20.43-.3 5.13-.29 10.23-2.71 12.78-8.72 1.9-4.47 2.29-11.85 1.92-19.21-.45-9.43-4.73-24.26-14.18-29.2m-27.38-44.17c5.75-.09 14.32-.89 16.54 5.88a64 64 0 0 1 2.82 14.2c.5 6.12-.09 12.17-2.43 16.63-1.71 3.25-10.25 2.61-14 2.63-1.28-13.12-2.28-26.18-2.93-39.34m21.14 86.68c-4 1.17-9.69 1.92-14.22.31-.73-11.4-2.18-22.72-3.08-34.11 8.76-.41 15.87-.63 19 10.48a109 109 0 0 1 1.68 11.32c.49 5.54-.07 9.84-3.38 12" class="cls-11" style="fill:#00988e"/><path id="path251" d="M647 399.05c-6.21 9.45-15.24 21.64-17 12.46-3.5-18.78-4.17-38.18-6.4-57.18a64 64 0 0 0-6.51-.33 53 53 0 0 0-7.31.53c1.53 16.74 3.54 33.43 5.32 50.14-2.08 6.66-12.77 16.28-14.31 6.56-3.6-18.48-4.84-37.58-6.57-56.3a44 44 0 0 0-4.46.39 81 81 0 0 0-9.33 1.83q.45 4.78.87 9a41 41 0 0 1-7.08 3.68c-4 1.47-7 3.24-9.27 2.6-1.37-12.19-12.31-11.76-20.13-9.7-2.93.77-5.24 1.68-6.68 2.19-8 2.82-14.62 7.3-14.49 15.12.17 9.6.46 18.95.84 28.7.1 2.38.21 5.15.35 8-6.73 10.71-12 18.25-15.73 23.75-2.72-20.92-3.66-42-6.36-62.94a70 70 0 0 0-7.08 2c-2.06.67-4.25 1.38-6.31 2.17q2.06 24.42 5.09 48.72c-4.87 7.55-13.21 17.32-14.27 8.54-2.1-17.37-4.21-34.85-5.76-52.33a44 44 0 0 0-6.6 1.58 73 73 0 0 0-7 2.55c1.53 12.4 2.75 25.05 4.15 37.22.28 2.39.69 5.06 1.06 7.8-6.82 13.7-10.08 16.24-13.17 19.64-1.38 1.52-5 2-5-.61-.64-20.64-.82-41.41-1.31-62.12-4 .61-6.87 1.42-11.77 2.56-.17 2.57-.32 5.27-.46 8.21-3.57-4-8.12-4.8-12.53-3.81a20.7 20.7 0 0 0-8.86 4.52c-7.11 6.17-7.89 13.52-7.85 27.7 0 7.91.26 15.52.8 22.22.71 8.67 2 15.7 4.49 19.85 2.37 4 7.65 5.06 12.31 4.08a16.4 16.4 0 0 0 4.95-2c3-1.75 6.6-6.33 8.52-11.86 2.52 9.49 5.81 10.08 12.64 8.2 4.79-1.31 10.61-4.49 19.27-20.66v.18c.58 5.4 4.35 8.8 7.33 8.78 8.91-.09 16.19-9.5 21.1-16.57.61 4.39 1.1 7.41 1.5 10.71-2.55 2.48-8.12 10.64-11 14.76-2.14 2.85-6.66 10.14-8.07 15.79-2.07 8.28 1 18 4.78 20.35 3.27 2 7.46 2.83 13.78.79 14.06-4.56 17.23-16.8 16-30.1-.64-7-1.59-13.48-2.49-19.93 4.17-5.39 9.14-14 15.07-24a47 47 0 0 0 .89 5.53c1.68 6.58 12.83 5.92 19.91 4 9.64-2.63 15.91-6.63 18.5-13.36 1.32-3.45 1.4-12.06 1.19-23.73-.07-3.36-.05-9.13-.23-15.08-.07-2.11-.35-4.21-.37-6.1a45.2 45.2 0 0 0 13.24-4.32c1.13-.56 2.27-1.17 3.37-1.81.76 7 1.46 12.46 2 16.89 1.19 10.37.56 26 7.29 32.91 1.87 1.93 5.69 2.49 9.28 2.12 6.68-.69 14-4.66 17.08-10.82 1.4 8 6.48 10.66 11.35 10.79a13.15 13.15 0 0 0 8-2.33c7.36-5.78 11.58-10.94 16.74-19.57-2.59-3.7-4.87-5.6-7.3-8.55m-212.5 51.3c-3.86 7.78-7.72 10.92-10.66 11.56a4.43 4.43 0 0 1-3.67-.61c-.66-.5-1.27-4.91-1.74-10.74-.84-10.28-1.1-25.25.2-31.16.75-3.38 3.18-7 6.48-7.74 2.58-.59 5.77.4 9 4.65.44 11.32.35 22.69.34 34.04zm67 33.41c0 3.17.56 8.77-5.83 11.18-2.64 1-5.79-3.17-5.52-8.14.22-4.24 6.48-12.27 10-18.12.13 4.26 1.26 9.24 1.26 15.08zm52.28-59.61c-.59 5.23-12.67 7.33-13.69 5-4.84-11.27-2.89-31.07-3.64-46.26-.22-4.48 2.57-8.26 9.83-9.53a10.48 10.48 0 0 0-.85 9.47c1.35 2.8 3.18 3.83 7.34 4.43.92 12.15 2.23 25.15.92 36.89z" class="cls-11" style="fill:#00988e"/></g></g><path id="path271" d="M268.6 133.18c41.14-1.22 70.81-4.62 106.85 1l-8.74-36.84c-32.46-52.32-131.17-19.67-131.17-19.67-61 21.06-86.42 69.84-86.42 69.84" style="fill:#195869"/><ellipse id="ellipse273" cx="292.461" cy="114.16" class="cls-16" rx="55.94" ry="5.43" style="fill:#2b6876"/><path id="path275" d="M158.26 133.71h7.21c30.9 0 55.94-2.43 55.94-5.43s-24.09-5.33-54.17-5.42a169 169 0 0 0-8.98 10.85" class="cls-16" style="fill:#2b6876"/><path id="path277" d="M271.47 95.48a9.17 9.17 0 0 1-5.46-16.53 10.69 10.69 0 1 0 10.34 15.11 9.05 9.05 0 0 1-4.88 1.42" style="fill:#fcf100"/><path id="polygon279" d="m524.23 263.71 7.92-4.75-10.3 2.77-6.34-2.77 1.19 4.75-5.54 4.75 8.71-1.98 5.55 4.36z" class="cls-11" style="fill:#00988e" transform="translate(-293.4 -169.66)"/><path id="polygon281" d="m597.07 258.66 2.77-3.57h-5.94l-5.15-7.92 1.19 7.92-4.36 5.15 6.34-.79 8.71 6.34z" class="cls-11" style="fill:#00988e" transform="translate(-293.4 -169.66)"/><path id="polygon283" d="m469 269.09 26.63-8.74v56.78H469z" class="cls-18" style="fill:#0e3e33" transform="translate(-293.4 -169.66)"/><path id="rect285" d="M351.151 77.59h16.59v60.27h-16.59z" class="cls-18" style="fill:#0e3e33"/><path id="rect287" d="M316.211 67.55h26.2v70.31h-26.2z" class="cls-18" style="fill:#0e3e33"/><path id="polygon289" d="m490.39 266.47 5.24-3.06v53.43l-5.24 3.78z" class="cls-13" style="fill:#016f3f" transform="translate(-293.4 -169.66)"/><path id="polygon291" d="m631.45 243.32 5.24 2.62v62.45l-5.24-3.3z" class="cls-13" style="fill:#016f3f" transform="translate(-293.4 -169.66)"/><path id="polygon293" d="m655.9 256.86 5.25 13.1v38.87l-5.25-3.31z" class="cls-13" style="fill:#016f3f" transform="translate(-293.4 -169.66)"/><path id="path295" d="M206.6 143.53s38.87-27.94 76.43-7.86" class="cls-18" style="fill:#0e3e33"/><path id="path297" d="m185.6 176.47 173.41-12.78-3.25-.84-40.28-8.2c-18.16-6.91-14-15.45-24.25-14.52a30.5 30.5 0 0 0-13.69 5.13 31.4 31.4 0 0 0-12-4.81c-16.78-3.07-38.58 1.12-51.85 12.31z" style="fill:url(#linear-gradient-4)"/><path id="path299" d="m235.41 146.78 34.49 5.88s-5.43 11.55-20.73 11.25-20.57-8.99-13.76-17.13" class="cls-18" style="fill:#0e3e33"/><path id="path301" d="m241.5 153.41 6.79 1 2.15 7.48 7.81-5.76 7.19 1.06s-2.19 6.27-13.47 5.65c0 .02-9.67-.45-10.47-9.43" style="fill:#4de8dd"/><path id="path303" d="M325.86 166.13c1.61-1.54.72-3.74-5.28-6.87l-10.74 8.08z" class="cls-21" style="fill:#078e50"/><path id="path305" d="M291.23 140.13a30.5 30.5 0 0 0-13.69 5.13l-.15-.09v.11l37.21 9.06c-17.15-6.87-13.25-15.13-23.37-14.21" class="cls-21" style="fill:#078e50"/><path id="path309" d="M175.6 162.75s-21.84 18.34-11.36 21.4 84.29 0 84.29 0-162.02 31-72.93-21.4" class="cls-22" style="fill:#226271"/><path id="path311" d="m146.18 213.61 40.15-11.21c-26 .39-51.65.21-58.51-1.8-15.12-4.4 16.38-30.86 16.38-30.86-63.02 37.07-38.93 45.2 1.98 43.87" class="cls-22" style="fill:#226271"/><path id="polygon313" d="m668.74 322.66 1.71-6.38h-45.99l37.56 10.89z" style="fill:url(#linear-gradient-5)" transform="translate(-293.4 -169.66)"/><path id="path315" d="m297.87 155.34-14 10.48s33.22-.48 14-10.48" class="cls-21" style="fill:#078e50"/><path id="path897" d="M353.6 229.59c-6.23 9.45-15.27 21.62-17 12.44-3.47-18.78-4.12-38.18-6.32-57.19a64 64 0 0 0-6.51-.34 53 53 0 0 0-7.32.52c1.51 16.74 3.5 33.43 5.26 50.15-2.09 6.65-12.8 16.26-14.32 6.54-3.57-18.48-4.79-37.59-6.5-56.32-1.62.05-3.1.22-4.46.39a81 81 0 0 0-9.33 1.82c.3 3.19.58 6.17.86 8.95a41 41 0 0 1-7.09 3.67c-4 1.46-7 3.24-9.27 2.59-1.35-12.19-12.29-11.78-20.11-9.73-2.93.77-5.24 1.67-6.69 2.18-8 2.81-14.63 7.28-14.5 15.1.15 9.6.42 19 .79 28.7.09 2.38.2 5.15.34 8-6.74 10.71-12 18.23-15.76 23.73-2.7-20.92-3.61-42-6.28-63a69 69 0 0 0-7.07 2c-2.07.66-4.26 1.37-6.32 2.16q2 24.44 5 48.73c-4.88 7.55-13.23 17.3-14.28 8.52-2.08-17.37-4.17-34.85-5.68-52.33a43 43 0 0 0-6.61 1.56 73 73 0 0 0-7 2.55c1.52 12.39 2.72 25 4.1 37.22.28 2.39.69 5.06 1.05 7.8-6.84 13.69-10.1 16.22-13.2 19.62-1.37 1.52-5 2-5-.62-.6-20.63-.75-41.41-1.22-62.11-3.94.6-6.87 1.4-11.77 2.53-.17 2.58-.33 5.27-.47 8.22-3.56-4-8.12-4.81-12.53-3.83a20.7 20.7 0 0 0-8.87 4.51c-7.11 6.16-7.9 13.5-7.89 27.68 0 7.91.25 15.53.78 22.22.7 8.68 2 15.71 4.46 19.86 2.36 4 7.64 5.07 12.3 4.1a16.5 16.5 0 0 0 5-1.94c3-1.75 6.6-6.32 8.53-11.85 2.51 9.49 5.8 10.09 12.63 8.22 4.8-1.31 10.62-4.48 19.3-20.64v.18c.57 5.4 4.34 8.81 7.31 8.79 8.92-.07 16.21-9.48 21.13-16.53.6 4.38 1.09 7.4 1.48 10.71-2.54 2.47-8.13 10.63-11 14.74-2.14 2.84-6.67 10.13-8.09 15.78-2.08 8.27.94 18 4.74 20.36 3.27 2 7.46 2.84 13.79.8 14.07-4.54 17.25-16.77 16.05-30.08-.63-7-1.58-13.47-2.47-19.92 4.18-5.39 9.16-14 15.11-24a45 45 0 0 0 .88 5.53c1.67 6.59 12.82 5.94 19.9 4 9.65-2.61 15.93-6.6 18.52-13.33 1.33-3.45 1.42-12.06 1.22-23.73-.06-3.36 0-9.13-.21-15.08-.06-2.12-.33-4.21-.36-6.1a45 45 0 0 0 13.25-4.3c1.13-.56 2.27-1.17 3.38-1.81.74 7 1.44 12.46 1.95 16.89 1.18 10.37.52 26 7.24 32.92 1.87 1.94 5.69 2.51 9.28 2.14 6.68-.68 14-4.65 17.1-10.8 1.39 8 6.46 10.67 11.34 10.81a13.1 13.1 0 0 0 8-2.32c7.38-5.77 11.6-10.92 16.78-19.55-2.58-3.62-4.86-5.57-7.35-8.48zm-212.58 51c-3.87 7.78-7.73 10.92-10.67 11.55a4.43 4.43 0 0 1-3.67-.62c-.66-.49-1.27-4.91-1.73-10.73-.82-10.29-1.06-25.26.25-31.17.75-3.38 3.18-7 6.49-7.73 2.57-.59 5.77.41 9 4.66.48 11.33.38 22.71.35 34.04zm66.92 33.51c0 3.17.55 8.77-5.85 11.17-2.64 1-5.78-3.17-5.51-8.15.23-4.24 6.5-12.26 10-18.1.26 4.26 1.39 9.24 1.38 15.08zm52.36-59.53c-.6 5.22-12.68 7.31-13.7 4.94-4.82-11.28-2.84-31.07-3.57-46.26-.22-4.48 2.58-8.26 9.84-9.52a10.49 10.49 0 0 0-.87 9.47c1.35 2.81 3.18 3.83 7.34 4.44 1.01 12.18 2.32 25.19.98 36.93z" class="cls-8" style="fill:url(#linear-gradient-2);stroke:#000;stroke-opacity:1;stroke-width:1;stroke-miterlimit:4;stroke-dasharray:none;opacity:.32371795"/></svg>