<svg xmlns="http://www.w3.org/2000/svg" xmlns:xlink="http://www.w3.org/1999/xlink" id="Layer_1" width="400.399" height="373.871" data-name="Layer 1" version="1.1"><defs id="defs51"><linearGradient id="linearGradient19502"><stop id="stop19500" offset="0" style="stop-color:#4edd61;stop-opacity:1"/></linearGradient><linearGradient id="linear-gradient" x1="360.06" x2="360.06" y1="482.48" y2="361.69" gradientUnits="userSpaceOnUse"><stop id="stop4" offset="0" stop-color="#0abcb7" stop-opacity=".5"/><stop id="stop6" offset=".42" stop-color="#0abcb7"/><stop id="stop8" offset="1" stop-color="#69efe6"/></linearGradient><linearGradient xlink:href="#linear-gradient" id="linear-gradient-2" x1="529.67" x2="529.67" y1="507.73" y2="354.16" gradientTransform="translate(-293.4 -169.66)"/><linearGradient id="linear-gradient-3" x1="558.2" x2="630.29" y1="479.45" y2="479.45" gradientTransform="rotate(-.08 -120657.81 215462)" gradientUnits="userSpaceOnUse"><stop id="stop15" offset="0" stop-color="#abd243"/><stop id="stop17" offset="1" stop-color="#fcf100"/></linearGradient><linearGradient id="linear-gradient-4" x1="479" x2="652.41" y1="327.63" y2="327.63" gradientTransform="translate(-293.4 -169.66)" gradientUnits="userSpaceOnUse"><stop id="stop20" offset="0" stop-color="#016f3f" stop-opacity="0"/><stop id="stop22" offset="0" stop-color="#016f3f" stop-opacity=".01"/><stop id="stop24" offset=".11" stop-color="#016f3f" stop-opacity=".32"/><stop id="stop26" offset=".22" stop-color="#016f3f" stop-opacity=".56"/><stop id="stop28" offset=".34" stop-color="#016f3f" stop-opacity=".76"/><stop id="stop30" offset=".47" stop-color="#016f3f" stop-opacity=".89"/><stop id="stop32" offset=".62" stop-color="#016f3f" stop-opacity=".98"/><stop id="stop34" offset=".85" stop-color="#016f3f"/></linearGradient><linearGradient id="linear-gradient-5" x1="624.46" x2="670.45" y1="321.72" y2="321.72" gradientUnits="userSpaceOnUse"><stop id="stop37" offset=".09" stop-color="#226271"/><stop id="stop39" offset="1" stop-color="#226271" stop-opacity="0"/></linearGradient><linearGradient id="linear-gradient-6" x1="7644.01" x2="7788.75" y1="919.85" y2="919.85" gradientTransform="matrix(-1 0 0 1 7969.04 0)" gradientUnits="userSpaceOnUse"><stop id="stop42" offset="0" stop-color="#fcf100"/><stop id="stop44" offset=".34" stop-color="#dce51a"/><stop id="stop46" offset=".77" stop-color="#b9d738"/><stop id="stop48" offset="1" stop-color="#abd243"/></linearGradient><linearGradient xlink:href="#linear-gradient" id="linearGradient1261" x1="360.06" x2="360.06" y1="482.48" y2="361.69" gradientTransform="translate(-293.4 -169.66)" gradientUnits="userSpaceOnUse"/><clipPath id="clip-path"><path id="path12" d="M682.43 414.33c-3.78-6.07-5.66-9.06-9.42-14.94a87.72 87.72 0 0 0-7.79-10.29c-.64-.74-1.15-1.32-1.5-1.77-6.12-7.72-9.17-11.45-15.25-18.69l-.06-.57.53.14c-.26-3.14-.51-6.28-.77-9.42-38.72 51.91-121.69 96.84-183 71.4-54.16-22.48-110.68 5.6-143.87 28.26q.6 8.74 1.21 17.5c.62 8.55.93 12.82 1.54 21.37a160.67 160.67 0 0 0 22 6.3 97 97 0 0 0 16.74 2.05c3.4.16 6.79.2 10.12.15 3 0 6-.16 8.92-.29a33.59 33.59 0 0 0 19.82-7.53 32.36 32.36 0 0 0 22.84 3.27 38.73 38.73 0 0 0 11.4-4.42 35.24 35.24 0 0 0 14.72-1.19 39.85 39.85 0 0 0 4.76-1.64c-.54 12.3 3.39 26.5 13.84 33.42 8.12 5.37 18.74 6.15 30.08 2.35 14.36-4.83 26.44-14.85 32.72-28.63 5.09-11.18 4.92-22.39 4.16-31.69 0-.69-.11-1.35-.18-2a67.13 67.13 0 0 0 12.69-2.17c11.22-3 22.3-8.46 30.16-17.28 6.65 4.17 15.09 5.73 24.08 4.8a54.32 54.32 0 0 0 13.4-3.15 42 42 0 0 0 15 3.12c8.27.22 16.42-1.79 22.34-5.79l.26-.18a76 76 0 0 0 21.65-22.36c2.76-4.18 4.13-6.19 6.86-10.13z" style="fill:none"/></clipPath><clipPath id="clipPath34555" clipPathUnits="userSpaceOnUse"><path id="path34557" d="M0 46.594V373.87h207.787l.707-.305.897-.386.908-.397c.307-.132.615-.267.922-.4.31-.137.62-.272.931-.408.314-.138.628-.274.942-.41l.916-.4c.313-.14.628-.276.943-.411l.938-.406c.341-.149.684-.294 1.027-.44.362-.154.725-.304 1.088-.455l1.088-.451 1.086-.45c.359-.147.717-.298 1.076-.448.364-.154.729-.305 1.094-.458.357-.148.713-.299 1.07-.449l1.062-.449 1.08-.459 1.135-.486.01-.004-.049-.096c-.187.044-.373.094-.562.129-.289.054-.579.105-.87.148-.246.037-.494.07-.741.104-.2.027-.4.055-.598.084-.163.024-.325.048-.488.066l-.229-2.117c-.062.016-.153.039-.094.023l-.707-3.08c-.209.086-.418.171-.626.258-.33.136-.655.28-.979.426-.288.13-.573.265-.86.398l-1.683-3.597c.303-.142.605-.284.91-.422.359-.162.719-.32 1.082-.47.25-.105.5-.207.75-.31l-.017-.048-.067.035-.066.031c-.02.01-.039.022-.059.031-.017.01-.035.017-.052.026l-.043.021-.041.022c-.013.007-.025.012-.038.02-.012.005-.025.01-.037.017l-.035.02-.031.017-.025.014c-.002 0-.004 0-.006.002l.006-.004-.135-.14a.155.155 0 0 1 .039-.027l.025-.015.033-.02.037-.019c.013-.007.025-.012.038-.02.007-.003.014-.005.021-.01l-.025-.044c-.006.003.003-.003.004-.004l.02-.01.02-.014a.07.07 0 0 1 .014-.008.203.203 0 0 1-.025.008l-.033.008-.028.008c-.003.001-.005 0-.008.002l.004-.006a.093.093 0 0 0 .028-.04l-.186-.058a.107.107 0 0 1 .033-.049.156.156 0 0 1 .036-.021l.008-.004-.038-.033.012-.012.016-.012.017-.01.018-.011.023-.012.024-.014s.003 0 .004-.002l.008-.006.008-.006.025-.015.024-.016.025-.016.023-.015c.007-.005.017-.007.024-.012.007-.004.012-.01.02-.014a.758.758 0 0 1 .02-.011l.018-.012.022-.014c.007-.004.012-.008.02-.011l.019-.012.02-.012.019-.011.014-.006-.832-2.336c.07-.025.035-.016.105-.041l.336-.12.316-.11.315-.116c.1-.037.2-.073.299-.111l.31-.118.283-.11c.097-.04.195-.077.291-.116a21.377 21.377 0 0 0 .713-.314c.07-.033.139-.064.207-.098.068-.033.136-.068.203-.102l.211-.11c.068-.035.136-.072.204-.109l.212-.113a58.836 58.836 0 0 1 .38-.203l.158-.088.115-.064a.435.435 0 0 0 .027-.014 1.514 1.514 0 0 0-.184.137l.206.244.433-.203a57.172 57.172 0 0 0 .865-.412l.409-.205.418-.215.412-.215.431-.223.412-.209.405-.201.398-.197a141.045 141.045 0 0 1 .742-.364l.348-.171c.103-.052.207-.101.309-.155a6.9 6.9 0 0 0 .252-.138c.08-.046.16-.092.238-.139.074-.045.148-.089.22-.135l.174-.113c.045-.03.09-.06.135-.092.049-.034-.054.04-.06.049l.642.76.09-.063a34.455 34.455 0 0 0 .729-.531 14.966 14.966 0 0 0 .601-.479c.104-.087.206-.175.309-.263l.3-.258.292-.256c.09-.079.18-.156.27-.236.091-.082.182-.164.274-.244a9.76 9.76 0 0 1 .295-.25l.106-.084.068-.258c-.3-.076-.599-.143-.902-.205a13.798 13.798 0 0 0-1.572-.201 5.731 5.731 0 0 0-.405-.016c-.037 0-.074 0-.111-.002.159-.008-.014 0-.049.002-.02 0 .316-.026.074-.012a7.28 7.28 0 0 0 .295-.033c.155-.023.31-.044.463-.074.133-.022.277-.054.371-.076.13-.04.037 0 .254-.073.027-.009-.053.015-.08.022.155-.052.636-.21.418-.145a23.962 23.962 0 0 0 1.617-.715c.44-.21.876-.425 1.31-.644.524-.262 1.044-.533 1.565-.799.57-.288 1.138-.58 1.705-.873.625-.32 1.247-.643 1.871-.963.693-.356 1.392-.704 2.088-1.053.625-.313 1.25-.624 1.871-.943.65-.333 1.297-.669 1.944-1.006a156.104 156.104 0 0 0 3.908-2.092c.72-.398 1.44-.798 2.156-1.203.808-.455 1.614-.914 2.42-1.37a634.937 634.937 0 0 0 4.828-2.753c.82-.47 1.636-.949 2.453-1.424.828-.48 1.654-.96 2.479-1.443.83-.486 1.655-.978 2.482-1.467.831-.49 1.66-.984 2.489-1.478a453.131 453.131 0 0 0 4.937-3.002c.857-.533 1.717-1.064 2.572-1.598a616.16 616.16 0 0 0 5.14-3.25c.873-.557 1.742-1.116 2.612-1.676.862-.55 1.717-1.114 2.573-1.673.88-.576 1.76-1.153 2.638-1.73.882-.58 1.761-1.166 2.641-1.749.897-.593 1.792-1.188 2.69-1.78.897-.588 1.792-1.18 2.69-1.767.906-.592 1.813-1.18 2.72-1.77.905-.586 1.808-1.177 2.712-1.765a511.26 511.26 0 0 1 8.84-5.621c.965-.599 1.929-1.197 2.893-1.797l2.894-1.799a677.468 677.468 0 0 1 5.938-3.664c.985-.601 1.97-1.204 2.957-1.803a310.445 310.445 0 0 1 6.215-3.673 217.237 217.237 0 0 1 3.256-1.832 195.41 195.41 0 0 1 3.334-1.807 67.848 67.848 0 0 1 4.144-2.016 182.01 182.01 0 0 1 3.781-1.62 383.047 383.047 0 0 1 7.063-2.866c1.163-.46 2.329-.915 3.494-1.37 1.13-.44 2.26-.878 3.387-1.323a214.02 214.02 0 0 0 3.18-1.284 95.923 95.923 0 0 0 2.927-1.275c1.007-.457 2.005-.933 2.998-1.418 1.053-.513 2.099-1.04 3.143-1.57a481.061 481.061 0 0 0 5.928-3.078l14.79 28.127c-.946.497-1.894.996-2.843 1.49a536.305 536.305 0 0 1-3.201 1.65l5.109 6.535-.387.301c-.793.621-1.584 1.247-2.377 1.87a238.75 238.75 0 0 0-2.298 1.825c-.711.575-1.418 1.152-2.114 1.745a46.71 46.71 0 0 0-1.78 1.584 55.376 55.376 0 0 0-1.765 1.734 92.137 92.137 0 0 0-1.83 1.916c-.183.199-.36.403-.54.603l4.304 3.446c-.587.733-1.175 1.466-1.76 2.2-.723.908-1.446 1.814-2.166 2.724a1009.054 1009.054 0 0 0-4.351 5.523c-.736.94-1.47 1.879-2.21 2.814-.735.931-1.47 1.862-2.206 2.791l-2.22 2.795a705.06 705.06 0 0 1-2.234 2.801c-.742.923-1.488 1.844-2.24 2.76-.724.885-1.446 1.77-2.172 2.654-.76.926-1.52 1.852-2.285 2.774-.76.913-1.525 1.822-2.293 2.73a230.05 230.05 0 0 1-2.271 2.654c-.71.815-1.427 1.624-2.149 2.428-.655.73-1.312 1.457-1.97 2.186-.668.737-1.338 1.473-2.014 2.203-.683.736-1.371 1.469-2.068 2.191a118.78 118.78 0 0 1-4.16 4.112 137.244 137.244 0 0 1-4.01 3.632c-.628.546-1.256 1.09-1.893 1.623-.544.458-1.09.915-1.637 1.37-.55.457-1.104.912-1.664 1.359l-.092.072H400.4V46.594Zm326.008 321.129c-.358.314-.716.628-1.078.937a86.31 86.31 0 0 1-1.287 1.074 57.035 57.035 0 0 1-2.148 1.678c-.328.243-.657.482-.993.713-.344.236-.69.469-1.045.688a18.101 18.101 0 0 1-1.855 1l-.123.058h12.888zm-11.444.738-1.093 1.053a1935.167 1935.167 0 0 0-4.5 4.357h8.494l.066-.035z" style="fill:red;fill-opacity:1;fill-rule:nonzero;stroke:none"/></clipPath><clipPath id="clipPath16452" clipPathUnits="userSpaceOnUse"><path id="path16454" d="M0 46.594V164.24c1.155-.546 2.328-1.052 3.553-1.424 1.321-.406 2.658-.767 4.025-.986a38.147 38.147 0 0 1 3.693-.398c.887-.06 1.774-.112 2.66-.166a1240.727 1240.727 0 0 0 5.178-.332c.886-.059 1.771-.12 2.657-.176l2.646-.172 2.744-.182a817.394 817.394 0 0 1 5.721-.35 157.812 157.812 0 0 1 9.227-.297 88.03 88.03 0 0 1 6.277.21 206.049 206.049 0 0 1 5.713.465 293.942 293.942 0 0 1 5.207.54c.809.091 1.617.185 2.426.278l2.312.266c.738.085 1.475.172 2.213.255.719.082 1.44.162 2.158.245l2.166.252c.711.083 1.42.17 2.131.253a258.5 258.5 0 0 0 1.963.223c.553.062 1.106.124 1.66.178.393.038.786.07 1.18.096.2.015.402.022.603.021.243.001.486-.011.729-.025a83.592 83.592 0 0 0 2.201-.166c.261-.025.522-.05.783-.08a7.47 7.47 0 0 0 .356-.053c-.103.025.211-.04.226-.047.167-.043.335-.087.5-.135.238-.068.474-.138.711-.209l.768-.228.738-.223c.279-.083.558-.163.838-.242.3-.084.599-.17.9-.246.23-.058.462-.114.694-.166l.396-.096a97.667 97.667 0 0 0 .692-.17c.186-.047.761-.186.228-.056l3.31 13.002.073-.075.271-.283c.08-.082.158-.165.237-.248l.234-.25.209-.223.201-.212.17-.182.17-.184c.058-.062.115-.124.174-.185.061-.065.123-.128.185-.192a11.15 11.15 0 0 1 .375-.363c.063-.058.127-.117.192-.174.05-.043.052-.043.103-.088.083-.07.166-.138.254-.2l1.96 2.702.116-.045a2.765 2.765 0 0 0-.14-.308l-.041-.073-.018-.029.086.123c.026.037.05.076.076.114.03.043.02.025.037.048l.038.05.056.065.069.075.037.037.006.006c.03.026.058.055.087.082.034.032.069.063.104.093l.121.102a10.203 10.203 0 0 0 .455.356l.188.14.166.121.152.106.158.105.166.106.188.115.058.037-.515.855.056.079c-.06.047.097-.075.133-.106.04-.034-.052.046-.064.057a1.133 1.133 0 0 0-.034.029l-.06.059-.006.006a5.635 5.635 0 0 0-.098.096l-.117.122-.049.053-.675 1.12 1.578 3.46c-.046.021-.093.041-.139.063l-.162.074-.137.066-.144.073-.192.095-.158.08-.168.086-.168.088-.164.086-.2.104-.173.09c-.075.037-.15.075-.227.11-.076.037-.151.074-.228.108a6.99 6.99 0 0 1-.277.115c-.088.034-.173.068-.262.098a6.847 6.847 0 0 1-.52.154 6.715 6.715 0 0 1-.23.053l-.168.035a8.704 8.704 0 0 1-.176.033c-.046.008-.015.004-.066.014a3.55 3.55 0 0 1-.426.057l-.139-1.975-.068-.025a6.164 6.164 0 0 1-.543-.254l-.02-.01-.199.146-.06.043 1.15 4.52c-.122.03-.163.039-.213.05-.011.004-.022.008-.033.01l-.41.102-.502.123-.557.133c-.112.027-.224.051-.336.08a.665.665 0 0 0-.05.014c.324-.084-.147.041-.2.056-.156.047-.313.088-.469.137l-.708.215c-.272.082-.545.161-.817.242a77.61 77.61 0 0 1-.94.275 42.53 42.53 0 0 1-1.269.342 29.452 29.452 0 0 1-3.52.658c-.539.069-1.081.123-1.622.174a110.312 110.312 0 0 1-3.014.23c-.657.044-1.315.061-1.973.071a33.611 33.611 0 0 1-2.326-.06 60.18 60.18 0 0 1-2.121-.168 282.703 282.703 0 0 1-4.164-.457l-2.145-.254c-.7-.083-1.4-.166-2.101-.247l-2.13-.24c-.748-.085-1.495-.173-2.243-.26-.772-.087-1.543-.178-2.315-.267a335.504 335.504 0 0 0-4.71-.523c-.816-.086-1.632-.166-2.448-.245a167.054 167.054 0 0 0-5-.406 75.091 75.091 0 0 0-2.314-.117 62.046 62.046 0 0 0-2.295-.035 129.47 129.47 0 0 0-5.102.117c-.894.037-1.787.087-2.68.139a704.015 704.015 0 0 0-5.54.337l-2.715.18-2.676.176c-.874.056-1.75.114-2.623.172a1166.257 1166.257 0 0 1-5.281.338l-1.69.107c.015.178.019.357.037.535.065.64.154 1.277.254 1.912a30.73 30.73 0 0 0 .838 3.727c.198.686.417 1.366.65 2.04.21.623.455 1.234.715 1.837.301.707.625 1.405.961 2.096.36.739.74 1.467 1.125 2.193a69.6 69.6 0 0 0 1.203 2.172c.39.681.805 1.347 1.225 2.01.477.75.962 1.497 1.447 2.242a70.151 70.151 0 0 0 2.73 3.906c.466.625.947 1.239 1.436 1.846a48.1 48.1 0 0 0 1.465 1.73 72.853 72.853 0 0 0 1.629 1.772 138.036 138.036 0 0 0 3.533 3.59 71.355 71.355 0 0 0 1.697 1.61 55.594 55.594 0 0 0 1.737 1.524c.659.557 1.33 1.1 2.004 1.639a114.411 114.411 0 0 0 4.496 3.426c.809.59 1.628 1.165 2.449 1.738.4.282.804.56 1.209.836l-7.955 11.637c.049.265.103.53.148.795a149.206 149.206 0 0 1 .625 4.003c.093.649.183 1.297.272 1.946.09.662.182 1.324.27 1.986a101.59 101.59 0 0 1 .476 4.352c.06.723.118 1.447.16 2.172a133.539 133.539 0 0 1 .176 3.968l.06 1.8.06 1.784a857.278 857.278 0 0 0 .2 5.057l.067 1.62.06 1.536c.018.471.037.943.057 1.414l.06 1.403.06 1.42.065 1.398c.023.485.046.97.067 1.455.02.473.042.947.06 1.42.018.447.035.893.051 1.34.014.4.03.8.045 1.199.014.39.023.78.033 1.17.009.317.019.633.026.95l.019.794a18.485 18.485 0 0 1-.166 2.942l-2.537-.374.04.475c.063.67.128 1.34.202 2.01a185.207 185.207 0 0 0 .455 3.844c.087.673.177 1.347.26 2.021.084.691.17 1.382.244 2.074.072.677.14 1.355.2 2.033.056.628.111 1.255.161 1.883a125.483 125.483 0 0 1 .247 3.715c.031.583.064 1.165.091 1.748.026.564.05 1.128.073 1.692.02.53.041 1.06.058 1.591.018.513.034 1.023.049 1.536l.045 1.386c.012.344.024.688.039 1.032.267.06.533.126.8.183a222.663 222.663 0 0 1 4.136.943c.813.197 1.625.398 2.431.622.852.238 1.7.489 2.54.765.723.24 1.444.484 2.163.738.65.23 1.3.46 1.948.692a122.003 122.003 0 0 0 3.5 1.2c.59.189 1.185.374 1.78.548.642.188 1.284.374 1.929.55.65.177 1.301.346 1.957.503.663.16 1.328.316 1.996.457.611.128 1.224.255 1.841.355a41.63 41.63 0 0 0 1.936.272 68.36 68.36 0 0 0 2.143.216c.793.066 1.588.132 2.382.184.836.057 1.67.114 2.506.166.833.051 1.665.1 2.498.143.762.038 1.525.076 2.287.097.7.016 1.4.029 2.1.018a31.77 31.77 0 0 0 1.844-.076c.444-.038.888-.08 1.328-.15.41-.077.82-.158 1.22-.276a40.71 40.71 0 0 0 1.86-.6 231.542 231.542 0 0 0 4.502-1.609 156.8 156.8 0 0 0 2.107-.791c.621-.24 1.241-.482 1.856-.736.643-.266 1.284-.534 1.924-.809.667-.285 1.335-.57 2.002-.857.725-.312 1.45-.626 2.18-.932.77-.319 1.54-.633 2.316-.936.939-.361 1.883-.71 2.843-1.013a39.605 39.605 0 0 1 3.12-.86 37.855 37.855 0 0 1 3.26-.607 35.885 35.885 0 0 1 3.286-.297 34.51 34.51 0 0 1 3.333.02c1.092.07 2.18.171 3.261.35.869.142 1.736.301 2.596.49.689.148 1.376.3 2.064.455l1.944.433a72.946 72.946 0 0 0 3.63.727c.526.09 1.052.175 1.579.26.226-.34.44-.688.693-1.01a25.084 25.084 0 0 1 1.89-2.166 29.895 29.895 0 0 1 1.987-1.858c.854-.71 1.739-1.384 2.684-1.97 1.044-.644 2.119-1.238 3.254-1.71 1.265-.515 2.561-.955 3.902-1.23 1.293-.257 2.6-.442 3.92-.476 1.39-.032 2.784.01 4.16.23 1.794.306 3.556.776 5.203 1.568 1.722.852 3.348 1.879 4.74 3.213 1.09 1.058 2.102 2.193 2.944 3.461.63.949 1.222 1.923 1.726 2.945.463.938.897 1.888 1.258 2.87.364.995.695 2.002.945 3.033.227.937.429 1.88.569 2.834.117.804.219 1.61.289 2.42.066.764.125 1.528.158 2.295.028.709.046 1.419.047 2.129.003.63.004 1.261 0 1.892-.007.616-.013 1.232-.028 1.848-.014.6-.03 1.2-.052 1.799-.017.489-.036.977-.049 1.466-.011.456-.02.912-.023 1.368a40.242 40.242 0 0 0 .027 2.03c.252.127.502.255.764.36.448.175.899.345 1.361.48.56.163 1.12.314 1.69.438.607.13 1.215.253 1.83.346a48.248 48.248 0 0 0 4.357.44c.708.032 1.416.06 2.125.056.7-.007 1.4-.021 2.098-.063a52.207 52.207 0 0 0 2.134-.177c.664-.078 1.326-.16 1.985-.274a31.647 31.647 0 0 0 1.861-.384 87.35 87.35 0 0 0 2.36-.637c.898-.255 1.795-.509 2.693-.766.904-.259 1.808-.519 2.71-.783.811-.238 1.62-.477 2.425-.732a59.555 59.555 0 0 0 2.056-.694 45.739 45.739 0 0 0 3.569-1.465c.62-.283 1.24-.568 1.855-.863a531.074 531.074 0 0 1 4.223-2.002c.706-.328 1.413-.657 2.12-.98a226.176 226.176 0 0 1 4.075-1.803c.634-.275 1.268-.548 1.904-.818l1.674-.715c.506-.219 1.012-.438 1.516-.66.43-.192.86-.386 1.285-.588l.08-.04a31.158 31.158 0 0 1 .357-1.28c.07-.233.145-.465.217-.696a76.44 76.44 0 0 1 .428-1.332c.077-.233.157-.466.236-.697a45.79 45.79 0 0 1 .55-1.512c.096-.254.195-.507.294-.76a98.378 98.378 0 0 1 .604-1.504 51.797 51.797 0 0 1 .68-1.582c.114-.256.231-.51.349-.765l.33-.71c.115-.245.23-.491.348-.736.115-.24.231-.48.35-.72.135-.278.279-.553.423-.827.124-.235.251-.468.377-.703a15.916 15.916 0 0 0 .982-2.152 11.054 11.054 0 0 0 .316-1.004 18.147 18.147 0 0 0 .272-1.184c.037-.19.07-.379.1-.57.035-.227.065-.456.096-.683.03-.228.056-.456.082-.684a23.045 23.045 0 0 0 .14-1.973 18.843 18.843 0 0 0 .014-1.328 13.579 13.579 0 0 0-.25-2.414 35.906 35.906 0 0 0-.149-.752 93.27 93.27 0 0 0-.353-1.637l-.2-.898a31.648 31.648 0 0 1-.218-1.06 17.25 17.25 0 0 1-.2-1.43 12.023 12.023 0 0 1-.025-1.856c.036-.688.165-1.366.325-2.035.174-.722.46-1.408.777-2.078.352-.732.826-1.389 1.338-2.016.44-.528.949-.993 1.474-1.435a13.42 13.42 0 0 1 1.45-1.035 15.417 15.417 0 0 1 2.908-1.4c.44-.162.89-.303 1.34-.436.41-.121.825-.228 1.24-.332a55.511 55.511 0 0 1 2.389-.545c.39-.08.782-.16 1.173-.238a35.436 35.436 0 0 0 2.12-.473 65.284 65.284 0 0 0 2.318-.627 122.893 122.893 0 0 0 2.42-.719 76.828 76.828 0 0 0 2.33-.765c.386-.134.77-.273 1.154-.413.383-.138.765-.28 1.147-.423a49.795 49.795 0 0 0 2.186-.88c.386-.167.77-.335 1.155-.505l1.188-.527 1.187-.53a165.451 165.451 0 0 1 2.506-1.088l1.246-.525 1.25-.523c.422-.177.844-.355 1.266-.53a157.894 157.894 0 0 1 2.623-1.054c.445-.174.892-.345 1.34-.512a61.772 61.772 0 0 1 4.408-1.46 63.886 63.886 0 0 1 3.223-.822 67.216 67.216 0 0 1 1.677-.355 134.004 134.004 0 0 1 4.953-.871 116.964 116.964 0 0 1 5.128-.686 167.74 167.74 0 0 1 6.746-.645 208.792 208.792 0 0 1 3.285-.208 225.134 225.134 0 0 1 3.209-.147 88.568 88.568 0 0 1 3.209-.066c.516-.003 1.034.002 1.55.006a109.86 109.86 0 0 1 4.406.117 48.82 48.82 0 0 1 5.553.541c.436.064.87.137 1.303.215.406.074.81.153 1.213.234.377.076.755.157 1.131.237a171.491 171.491 0 0 1 2.158.484c.365.085.729.173 1.092.264.395.098.787.204 1.178.316.434.124.864.263 1.29.41.507.174.998.387 1.485.61.247.113.484.246.725.37.118-.069.235-.14.353-.21.531-.314 1.064-.625 1.596-.936.566-.332 1.135-.662 1.703-.992.578-.334 1.15-.672 1.727-1.01.588-.344 1.176-.69 1.761-1.039.575-.342 1.147-.69 1.715-1.043a176.22 176.22 0 0 0 1.805-1.132c.58-.37 1.16-.744 1.732-1.125a66.93 66.93 0 0 0 4.85-3.541 79.716 79.716 0 0 0 1.625-1.34c.568-.479 1.129-.964 1.687-1.453a199.3 199.3 0 0 0 1.748-1.551 366.37 366.37 0 0 0 3.487-3.17c.554-.512 1.104-1.028 1.652-1.547a94.183 94.183 0 0 0 1.524-1.47c.41-.407.814-.818 1.203-1.247.351-.385.692-.783 1.02-1.19.293-.358.569-.73.835-1.11.297-.423.58-.854.856-1.29.302-.478.598-.96.886-1.447.19-.325.383-.648.543-.988.175-.356.333-.72.489-1.084.136-.343.298-.68.41-1.031.044-.122.073-.248.105-.373a5.236 5.236 0 0 0-.107-.424 9.312 9.312 0 0 0-.236-.711 18.175 18.175 0 0 0-.78-1.832 48.08 48.08 0 0 0-.558-1.112c-.153-.275-.28-.565-.45-.832a5.624 5.624 0 0 0-.314-.48 16.655 16.655 0 0 0-.54-.719c-.232-.296-.478-.583-.722-.87a45.95 45.95 0 0 0-.851-.983c-.32-.358-.648-.712-.973-1.065l-1.113-1.205a131.3 131.3 0 0 0-1.051-1.13c-.405-.43-.811-.861-1.213-1.294-.426-.459-.845-.923-1.264-1.388-.37-.412-.74-.825-1.11-1.235-.355-.391-.711-.782-1.071-1.168-.345-.37-.694-.735-1.047-1.097-.352-.362-.715-.715-1.076-1.067a243.25 243.25 0 0 1-1.366-1.334l-.224-.22 6.09-6.174c-.054-.057-.11-.113-.162-.17a17.313 17.313 0 0 1-.528-.608 10.983 10.983 0 0 1-1.002-1.406 5.082 5.082 0 0 1-.357-.3 5.93 5.93 0 0 1-.406-.428 17.185 17.185 0 0 1-.873-1.129c-.096-.134-.188-.27-.282-.405-.096-.14-.192-.279-.287-.42-.096-.142-.191-.286-.287-.43l-.299-.44a95.17 95.17 0 0 0-.316-.464l-.332-.482-.33-.469a67.524 67.524 0 0 0-.664-.918 31.281 31.281 0 0 0-.69-.88 30.899 30.899 0 0 0-.773-.91c-.136-.155-.275-.305-.414-.456a37.53 37.53 0 0 0-.444-.47c-.161-.168-.325-.335-.488-.502l-.17-.176.77-.742a11.938 11.938 0 0 1-1.9-1.855 16.256 16.256 0 0 1-.48-.606 21.679 21.679 0 0 1-1.595-2.448 26.53 26.53 0 0 1-.36-.658c-.11-.212-.219-.425-.327-.638l-.104-.206 2.72-1.367v-.002l-.068-.424-.07-.433-.01-.07 2.904-.457.108-.055.017.035 3.145-.496.01.068c.021.137.044.272.066.409.022.133.042.268.065.402l.066.398a30.88 30.88 0 0 1 .123.791l.043.276.024.144-.014-.039a1.249 1.249 0 0 0-.152-.3l-.014-.02c-.035-.044-.073-.085-.11-.127l-1.529 1.38.04.056c.091.12.184.242.28.359.095.112.19.224.29.332.084.09.17.18.26.266a5.676 5.676 0 0 0 .537.447 10.477 10.477 0 0 0 .64.433 26.078 26.078 0 0 0 .629.385c.056.032.113.064.17.094l.074.037c.057.023.04.015-.002.004.025.008-.024-.007-.043-.01.02.004-.093-.017-.035-.006l-.318 1.723c.12.13.24.261.357.394a37.4 37.4 0 0 1 .82.963l1.823-1.682.306.332a31.737 31.737 0 0 1 1.237 1.434c.18.224.356.45.529.678l.445.584a30.011 30.011 0 0 0 .826 1.045 20.716 20.716 0 0 0 .801.912 17.143 17.143 0 0 0 1.297 1.244 79.484 79.484 0 0 0 .992.838l.526.433.222.186 4.54-4.604.202.202c.422.414.845.826 1.27 1.238.522.508 1.043 1.02 1.55 1.543a90.829 90.829 0 0 1 2.725 2.912c.391.431.781.866 1.17 1.299.335.372.67.743 1.01 1.11.366.394.737.786 1.106 1.179.41.436.817.873 1.222 1.314l1.112 1.205c.415.451.831.9 1.24 1.358.429.481.851.968 1.267 1.46.458.542.914 1.085 1.35 1.643.477.614.946 1.234 1.389 1.873.492.717.971 1.443 1.404 2.198.362.631.712 1.269 1.043 1.918.297.578.59 1.158.871 1.744a44.153 44.153 0 0 1 1.773 4.21c.289.812.562 1.63.79 2.462.245.9.471 1.805.636 2.724.17.962.303 1.93.37 2.905V46.594Zm0 172.13v155.147h400.398V246.076c-.025.428-.04.856-.1 1.281-.149 1.073-.333 2.14-.61 3.188-.25.966-.525 1.927-.868 2.865-.299.819-.613 1.63-.96 2.43a45.972 45.972 0 0 1-1.118 2.431 40.036 40.036 0 0 1-1.392 2.541 83.243 83.243 0 0 1-1.3 2.116 58.201 58.201 0 0 1-1.54 2.306 45.2 45.2 0 0 1-1.848 2.444 52.57 52.57 0 0 1-1.98 2.299c-.67.726-1.352 1.44-2.057 2.132-.627.619-1.262 1.231-1.902 1.836a272.918 272.918 0 0 1-3.752 3.473 268.637 268.637 0 0 1-3.856 3.449 137.66 137.66 0 0 1-2.047 1.764c-.705.594-1.415 1.182-2.136 1.758a92.238 92.238 0 0 1-4.414 3.324 99.115 99.115 0 0 1-2.207 1.508c-.715.474-1.433.943-2.157 1.402a211 211 0 0 1-2.054 1.287c-.686.424-1.372.844-2.065 1.256-.637.38-1.277.758-1.918 1.133-.603.353-1.205.709-1.81 1.058-.551.32-1.101.64-1.65.961-.502.293-1.005.586-1.505.881-.45.266-.898.533-1.347.801-.452.27-.905.541-1.358.809l-1.21.712-1.151.672c-.357.207-.716.411-1.074.616l-.922.517c-.146.082-.245.136-.297.168-.103.061.343-.218-.031.02l-3.192-5c-.248.283-.491.57-.755.84a17.11 17.11 0 0 1-2.809 2.285 20.27 20.27 0 0 1-1.672.976c-.564.297-1.143.562-1.727.817a35.346 35.346 0 0 1-3.48 1.289 59.93 59.93 0 0 1-1.725.511 82.42 82.42 0 0 1-1.691.46c-.562.147-1.126.286-1.69.425-.56.138-1.12.274-1.68.41-.577.141-1.153.282-1.73.426-.621.155-1.243.314-1.863.477-.667.174-1.33.356-1.994.543a77.6 77.6 0 0 0-2.04.607 70.413 70.413 0 0 0-6.133 2.21 58.312 58.312 0 0 0-3.915 1.786 88.71 88.71 0 0 0-1.937 1.004 175.058 175.058 0 0 0-3.838 2.107 137.253 137.253 0 0 0-3.608 2.12 161.178 161.178 0 0 0-3.455 2.173 273.207 273.207 0 0 0-3.353 2.206l-1.631 1.093c-.523.352-1.044.706-1.565 1.06-.517.353-1.036.706-1.552 1.06-.502.342-1.003.686-1.504 1.03l-1.473 1.014-.111.077c.294-.02.588-.038.883-.06a267.834 267.834 0 0 0 2.527-.192 47.66 47.66 0 0 0 1.088-.108 123.683 123.683 0 0 0 2.217-.263 183.845 183.845 0 0 1 2.113-.254l.7-.084c.144-.019.289-.038.433-.059l.168-.027 2.136 12.316a23.91 23.91 0 0 1-1.138.166c-.283.036-.567.07-.85.104l-.959.113-1.05.129a173.31 173.31 0 0 1-2.405.285c-.455.05-.91.095-1.365.135-.455.039-.912.072-1.367.107-.455.035-.909.07-1.364.102-.454.032-.908.061-1.363.092-.434.028-.869.06-1.303.091-.459.034-.917.066-1.377.098-.482.033-.966.068-1.449.1l-1.543.097a413.965 413.965 0 0 1-3.244.192l-1.654.09c-.561.03-1.12.057-1.682.085-.564.029-1.13.054-1.693.08l-1.664.077c-.567.025-1.135.049-1.702.072l-.21.008c-.001.003 0 .005-.002.008-.028.127-.055.253-.08.38l-.079.401-.07.358c-.01.05-.026.141-.041.21l-5.3-1.097-.95.053a120.709 120.709 0 0 0-3.059.215c-.33.026-.66.056-.99.085l4.692 5.14a14.31 14.31 0 0 1-1.616 1.265c-.072.05-.194.129-.238.158l-.012.01c-.095.07-.19.144-.285.217l-.58.443c-.242.183-.485.363-.728.543a51.144 51.144 0 0 1-1.627 1.178 39.625 39.625 0 0 1-2.532 1.597c-.41.24-.826.47-1.242.7-.402.22-.806.438-1.21.654a192.041 192.041 0 0 0-2.208 1.191c-.425.232-.85.46-1.277.69a77.28 77.28 0 0 1-1.592.826 71.32 71.32 0 0 1-1.742.844c-.586.278-1.177.546-1.77.81-.59.262-1.182.518-1.775.774-.601.257-1.203.515-1.805.771a271.745 271.745 0 0 0-3.613 1.565c-.617.272-1.231.55-1.846.828-.633.29-1.265.584-1.896.877-.65.302-1.296.609-1.943.916-.672.318-1.342.64-2.012.96-.757.363-1.52.715-2.283 1.063-.822.375-1.652.733-2.485 1.082a70.607 70.607 0 0 1-5.842 2.123c-1.012.324-2.03.627-3.05.926-.953.28-1.91.553-2.864.826-.921.264-1.843.526-2.765.787-.996.285-1.997.555-3 .81a55.587 55.587 0 0 1-3.55.753 60.67 60.67 0 0 1-3.532.508 74.117 74.117 0 0 1-3.41.295 66.105 66.105 0 0 1-3.489.115 65.58 65.58 0 0 1-3.525-.08 76.75 76.75 0 0 1-3.426-.256 73.247 73.247 0 0 1-3.361-.412 55.14 55.14 0 0 1-3.485-.64 51.275 51.275 0 0 1-3.41-.87 42.348 42.348 0 0 1-3.44-1.18 37.7 37.7 0 0 1-3.353-1.521c-1.173-.6-2.29-1.303-3.373-2.051-1.077-.753-2.074-1.611-3.03-2.512-1.032-.98-1.936-2.08-2.77-3.23-.794-1.107-1.443-2.304-2.022-3.533-.502-1.081-.89-2.208-1.225-3.35-.296-1.04-.5-2.105-.664-3.174a31.32 31.32 0 0 1-.263-2.629 51.728 51.728 0 0 1-.073-2.08c-.008-.416-.006-.833-.006-1.25-2.027.769-4.108 1.007-6.27.926a54.946 54.946 0 0 1-2.51-.195c-.768-.073-1.534-.155-2.3-.239a130.266 130.266 0 0 1-5.094-.662c-.822-.123-1.641-.256-2.462-.388-.79-.125-1.578-.255-2.366-.39a98.315 98.315 0 0 1-4.789-.952l-2.045-.457c-.627-.141-1.256-.28-1.884-.416-.449-.1-.9-.179-1.354-.252-.26-.043-.522-.055-.785-.07-.278-.012-.556 0-.834.011-.32.014-.636.057-.953.1-.342.053-.68.13-1.018.207-.39.088-.77.21-1.152.33-.447.145-.886.315-1.324.484-.585.23-1.168.467-1.748.707-.625.264-1.247.533-1.87.801-.686.296-1.372.591-2.06.885-.725.31-1.453.614-2.182.916-.803.333-1.613.65-2.424.963-.805.31-1.614.61-2.423.91a286.72 286.72 0 0 1-4.983 1.783 67.07 67.07 0 0 1-2.886.932 38.024 38.024 0 0 1-3.696.879c-1.273.237-2.56.386-3.85.5a55.97 55.97 0 0 1-3.45.164c-1.07.02-2.14.006-3.21-.018a119.385 119.385 0 0 1-3.005-.123c-.92-.047-1.84-.102-2.76-.158-.892-.055-1.783-.117-2.674-.178a162.65 162.65 0 0 1-2.746-.209 94.347 94.347 0 0 1-2.932-.295 67.832 67.832 0 0 1-3.045-.426 65.417 65.417 0 0 1-3.013-.57 93.87 93.87 0 0 1-2.73-.623 94.894 94.894 0 0 1-5.055-1.367 96.487 96.487 0 0 1-2.383-.733 138.252 138.252 0 0 1-4.285-1.466c-.617-.222-1.235-.438-1.852-.657a83.704 83.704 0 0 0-1.68-.572c-.47-.154-.945-.291-1.422-.424a49.97 49.97 0 0 0-1.566-.398c-.612-.145-1.225-.286-1.838-.428-.59-.134-1.181-.265-1.773-.394a84.957 84.957 0 0 1-2.108-.485 40.951 40.951 0 0 1-2.37-.656c-.96-.295-1.892-.66-2.81-1.062a22.973 22.973 0 0 1-2.75-1.477 24.731 24.731 0 0 1-2.228-1.59 25.653 25.653 0 0 1-1.88-1.674 22.627 22.627 0 0 1-1.845-2.062 20.54 20.54 0 0 1-1.7-2.533c-.54-.937-.973-1.928-1.354-2.938-.394-1.06-.662-2.157-.871-3.266a29.23 29.23 0 0 1-.303-2.246 53.166 53.166 0 0 1-.135-1.74 125.77 125.77 0 0 1-.137-3.064l-.046-1.465a231.8 231.8 0 0 0-.047-1.451c-.016-.502-.036-1.003-.055-1.504-.02-.496-.04-.991-.062-1.487-.025-.509-.055-1.018-.083-1.527-.03-.536-.06-1.073-.093-1.61-.033-.499-.072-.996-.112-1.495-.043-.54-.092-1.08-.14-1.62-.048-.54-.1-1.08-.158-1.62-.063-.571-.134-1.14-.204-1.71-.076-.615-.157-1.232-.236-1.847a210.848 210.848 0 0 1-.512-4.314c-.089-.806-.169-1.614-.244-2.42-.072-.805-.138-1.61-.205-2.415-.064-.791-.123-1.585-.183-2.377-.06-.785-.12-1.57-.174-2.355-.056-.823-.107-1.645-.155-2.469-.048-.82-.087-1.642-.128-2.463-.041-.818-.083-1.635-.12-2.453l-.103-2.398c-.033-.805-.064-1.608-.094-2.412-.029-.784-.055-1.57-.086-2.354a862.17 862.17 0 0 0-.193-4.6c-.033-.733-.066-1.466-.104-2.199l-.115-2.191-.039-.754 3.23-.162-.013-.375c-.024-.544-.052-1.088-.084-1.631a58.011 58.011 0 0 0-.27-3.102 74.995 74.995 0 0 0-.2-1.662c-.082-.615-.167-1.23-.25-1.845-.082-.6-.166-1.197-.25-1.795a113.897 113.897 0 0 0-.519-3.309 111.828 111.828 0 0 0-.607-3.12c-.11-.512-.218-1.025-.334-1.536a72.185 72.185 0 0 0-.342-1.432l-.064-.262 4.836-1.197a97.001 97.001 0 0 1-2.121-2.014 162.86 162.86 0 0 1-4.227-4.297 97.516 97.516 0 0 1-2.203-2.4 74.495 74.495 0 0 1-2.182-2.582 96.93 96.93 0 0 1-5.637-7.778c-.435-.669-.867-1.34-1.298-2.013Zm39.465 97.723c-.03-.009.057.02.084.035.015.01-.065-.022-.049-.015.028.011.16.05.082.033l.05.014c-.046-.023-.115-.06-.099-.045.106.05.004-.001-.068-.022zm138.16 27.758c.023.023.271.259.096.125.027.02.062.042.088.06-.047-.046-.09-.103-.184-.185z" style="fill:red;fill-opacity:1;fill-rule:nonzero;stroke:none"/></clipPath><style id="style2">.cls-5{fill:#4edd61}.cls-18{fill:#0e3e33}.cls-7{fill:url(#linear-gradient)}.cls-8{fill:url(#linear-gradient-2)}.cls-11{fill:#00988e}.cls-13{fill:#016f3f}.cls-16{fill:#2b6876}.cls-21{fill:#078e50}.cls-22{fill:#226271}</style></defs><g id="g8896" style="stroke:#4edd61;stroke-opacity:1;fill:#4edd61;fill-opacity:1;opacity:1;stroke-width:61.8;stroke-miterlimit:4;stroke-dasharray:none"><path id="path1853" d="M89.36 255.23a19.44 19.44 0 0 0 5.85-10.22 71.43 71.43 0 0 0 1.13-20c-.61-7.72-2.5-15.86-6.76-22.06-4.64-6.73-16.46-6.85-28.16-7.22-5.47-.18-11-.4-15.69-1-5.45-.7-10.89-1.66-16-2.72a82.23 82.23 0 0 0 .08 8.61c.15 1.9.47 4 .77 5.9 3.24.68 8.34 2 15.39 3q3.09 50.71 6.59 101.39a96.81 96.81 0 0 0 15.76 1.79c7 .31 13.94.08 20.43-.28 5.13-.28 10.24-2.69 12.79-8.7 1.91-4.47 2.31-11.85 1.95-19.2-.43-9.49-4.69-24.31-14.13-29.29zm-27.32-44.2c5.75-.09 14.33-.88 16.53 5.9a63.37 63.37 0 0 1 2.8 14.2c.49 6.12-.11 12.17-2.46 16.63-1.71 3.25-10.24 2.6-14 2.61-1.22-13.12-2.23-26.18-2.87-39.34zm21 86.71c-4 1.16-9.7 1.9-14.22.29-.71-11.4-2.15-22.73-3-34.12 8.76-.4 15.86-.6 19 10.51a108.72 108.72 0 0 1 1.67 11.32c.45 5.54-.11 9.84-3.43 12z" class="cls-7" style="fill:#4edd61;stroke:#4edd61;stroke-opacity:1;stroke-width:61.8;stroke-miterlimit:4;stroke-dasharray:none;opacity:1;stroke-linecap:round;stroke-linejoin:round;fill-opacity:1"/><path id="path1855" d="M353.58 229.59c-6.23 9.45-15.27 21.62-17 12.44-3.47-18.78-4.12-38.18-6.32-57.19a63.67 63.67 0 0 0-6.51-.34 52.88 52.88 0 0 0-7.32.52c1.51 16.74 3.5 33.43 5.26 50.15-2.09 6.65-12.8 16.26-14.32 6.54-3.57-18.48-4.79-37.59-6.5-56.32-1.62.05-3.1.22-4.46.39a81 81 0 0 0-9.33 1.82c.3 3.19.58 6.17.86 8.95a41.18 41.18 0 0 1-7.09 3.67c-4 1.46-7 3.24-9.27 2.59-1.35-12.19-12.29-11.78-20.11-9.73-2.93.77-5.24 1.67-6.69 2.18-8 2.81-14.63 7.28-14.5 15.1.15 9.6.42 19 .79 28.7.09 2.38.2 5.15.34 8-6.74 10.71-12 18.23-15.76 23.73-2.7-20.92-3.61-42-6.28-63a68.61 68.61 0 0 0-7.07 2c-2.07.66-4.26 1.37-6.32 2.16q2 24.44 5 48.73c-4.88 7.55-13.23 17.3-14.28 8.52-2.08-17.37-4.17-34.85-5.68-52.33a43.1 43.1 0 0 0-6.61 1.56 72.85 72.85 0 0 0-7 2.55c1.52 12.39 2.72 25 4.1 37.22.28 2.39.69 5.06 1.05 7.8-6.84 13.69-10.1 16.22-13.2 19.62-1.37 1.52-5 2-5-.62-.6-20.63-.75-41.41-1.22-62.11-3.94.6-6.87 1.4-11.77 2.53-.17 2.58-.33 5.27-.47 8.22-3.56-4-8.12-4.81-12.53-3.83a20.68 20.68 0 0 0-8.87 4.51c-7.11 6.16-7.9 13.5-7.89 27.68 0 7.91.25 15.53.78 22.22.7 8.68 2 15.71 4.46 19.86 2.36 4 7.64 5.07 12.3 4.1a16.51 16.51 0 0 0 5-1.94c3-1.75 6.6-6.32 8.53-11.85 2.51 9.49 5.8 10.09 12.63 8.22 4.8-1.31 10.62-4.48 19.3-20.64v.18c.57 5.4 4.34 8.81 7.31 8.79 8.92-.07 16.21-9.48 21.13-16.53.6 4.38 1.09 7.4 1.48 10.71-2.54 2.47-8.13 10.63-11 14.74-2.14 2.84-6.67 10.13-8.09 15.78-2.08 8.27.94 18 4.74 20.36 3.27 2 7.46 2.84 13.79.8 14.07-4.54 17.25-16.77 16.05-30.08-.63-7-1.58-13.47-2.47-19.92 4.18-5.39 9.16-14 15.11-24a44.8 44.8 0 0 0 .88 5.53c1.67 6.59 12.82 5.94 19.9 4 9.65-2.61 15.93-6.6 18.52-13.33 1.33-3.45 1.42-12.06 1.22-23.73-.06-3.36 0-9.13-.21-15.08-.06-2.12-.33-4.21-.36-6.1a45 45 0 0 0 13.25-4.3c1.13-.56 2.27-1.17 3.38-1.81.74 7 1.44 12.46 1.95 16.89 1.18 10.37.52 26 7.24 32.92 1.87 1.94 5.69 2.51 9.28 2.14 6.68-.68 14-4.65 17.1-10.8 1.39 8 6.46 10.67 11.34 10.81a13.09 13.09 0 0 0 8-2.32c7.38-5.77 11.6-10.92 16.78-19.55-2.58-3.62-4.86-5.57-7.35-8.48zm-212.58 51c-3.87 7.78-7.73 10.92-10.67 11.55a4.43 4.43 0 0 1-3.67-.62c-.66-.49-1.27-4.91-1.73-10.73-.82-10.29-1.06-25.26.25-31.17.75-3.38 3.18-7 6.49-7.73 2.57-.59 5.77.41 9 4.66.48 11.33.38 22.71.35 34.04zm66.92 33.51c0 3.17.55 8.77-5.85 11.17-2.64 1-5.78-3.17-5.51-8.15.23-4.24 6.5-12.26 10-18.1.26 4.26 1.39 9.24 1.38 15.08zm52.36-59.53c-.6 5.22-12.68 7.31-13.7 4.94-4.82-11.28-2.84-31.07-3.57-46.26-.22-4.48 2.58-8.26 9.84-9.52a10.49 10.49 0 0 0-.87 9.47c1.35 2.81 3.18 3.83 7.34 4.44 1.01 12.18 2.32 25.19.98 36.93z" class="cls-8" style="opacity:1;fill:#4edd61;fill-opacity:1;stroke:#4edd61;stroke-width:61.8;stroke-linecap:round;stroke-linejoin:round;stroke-miterlimit:4;stroke-dasharray:none;stroke-opacity:1"/></g><g id="g907" style="stroke:#0e3e33;stroke-opacity:1;fill:#4edd61;fill-opacity:1;opacity:1;stroke-width:49.50000076;stroke-miterlimit:4;stroke-dasharray:none"><path id="path903" d="M89.36 255.23a19.44 19.44 0 0 0 5.85-10.22 71.43 71.43 0 0 0 1.13-20c-.61-7.72-2.5-15.86-6.76-22.06-4.64-6.73-16.46-6.85-28.16-7.22-5.47-.18-11-.4-15.69-1-5.45-.7-10.89-1.66-16-2.72a82.23 82.23 0 0 0 .08 8.61c.15 1.9.47 4 .77 5.9 3.24.68 8.34 2 15.39 3q3.09 50.71 6.59 101.39a96.81 96.81 0 0 0 15.76 1.79c7 .31 13.94.08 20.43-.28 5.13-.28 10.24-2.69 12.79-8.7 1.91-4.47 2.31-11.85 1.95-19.2-.43-9.49-4.69-24.31-14.13-29.29zm-27.32-44.2c5.75-.09 14.33-.88 16.53 5.9a63.37 63.37 0 0 1 2.8 14.2c.49 6.12-.11 12.17-2.46 16.63-1.71 3.25-10.24 2.6-14 2.61-1.22-13.12-2.23-26.18-2.87-39.34zm21 86.71c-4 1.16-9.7 1.9-14.22.29-.71-11.4-2.15-22.73-3-34.12 8.76-.4 15.86-.6 19 10.51a108.72 108.72 0 0 1 1.67 11.32c.45 5.54-.11 9.84-3.43 12z" class="cls-7" style="fill:#4edd61;stroke:#0e3e33;stroke-opacity:1;stroke-width:49.50000076;stroke-miterlimit:4;stroke-dasharray:none;opacity:1;stroke-linecap:round;stroke-linejoin:round;fill-opacity:1"/><path id="path905" d="M353.58 229.59c-6.23 9.45-15.27 21.62-17 12.44-3.47-18.78-4.12-38.18-6.32-57.19a63.67 63.67 0 0 0-6.51-.34 52.88 52.88 0 0 0-7.32.52c1.51 16.74 3.5 33.43 5.26 50.15-2.09 6.65-12.8 16.26-14.32 6.54-3.57-18.48-4.79-37.59-6.5-56.32-1.62.05-3.1.22-4.46.39a81 81 0 0 0-9.33 1.82c.3 3.19.58 6.17.86 8.95a41.18 41.18 0 0 1-7.09 3.67c-4 1.46-7 3.24-9.27 2.59-1.35-12.19-12.29-11.78-20.11-9.73-2.93.77-5.24 1.67-6.69 2.18-8 2.81-14.63 7.28-14.5 15.1.15 9.6.42 19 .79 28.7.09 2.38.2 5.15.34 8-6.74 10.71-12 18.23-15.76 23.73-2.7-20.92-3.61-42-6.28-63a68.61 68.61 0 0 0-7.07 2c-2.07.66-4.26 1.37-6.32 2.16q2 24.44 5 48.73c-4.88 7.55-13.23 17.3-14.28 8.52-2.08-17.37-4.17-34.85-5.68-52.33a43.1 43.1 0 0 0-6.61 1.56 72.85 72.85 0 0 0-7 2.55c1.52 12.39 2.72 25 4.1 37.22.28 2.39.69 5.06 1.05 7.8-6.84 13.69-10.1 16.22-13.2 19.62-1.37 1.52-5 2-5-.62-.6-20.63-.75-41.41-1.22-62.11-3.94.6-6.87 1.4-11.77 2.53-.17 2.58-.33 5.27-.47 8.22-3.56-4-8.12-4.81-12.53-3.83a20.68 20.68 0 0 0-8.87 4.51c-7.11 6.16-7.9 13.5-7.89 27.68 0 7.91.25 15.53.78 22.22.7 8.68 2 15.71 4.46 19.86 2.36 4 7.64 5.07 12.3 4.1a16.51 16.51 0 0 0 5-1.94c3-1.75 6.6-6.32 8.53-11.85 2.51 9.49 5.8 10.09 12.63 8.22 4.8-1.31 10.62-4.48 19.3-20.64v.18c.57 5.4 4.34 8.81 7.31 8.79 8.92-.07 16.21-9.48 21.13-16.53.6 4.38 1.09 7.4 1.48 10.71-2.54 2.47-8.13 10.63-11 14.74-2.14 2.84-6.67 10.13-8.09 15.78-2.08 8.27.94 18 4.74 20.36 3.27 2 7.46 2.84 13.79.8 14.07-4.54 17.25-16.77 16.05-30.08-.63-7-1.58-13.47-2.47-19.92 4.18-5.39 9.16-14 15.11-24a44.8 44.8 0 0 0 .88 5.53c1.67 6.59 12.82 5.94 19.9 4 9.65-2.61 15.93-6.6 18.52-13.33 1.33-3.45 1.42-12.06 1.22-23.73-.06-3.36 0-9.13-.21-15.08-.06-2.12-.33-4.21-.36-6.1a45 45 0 0 0 13.25-4.3c1.13-.56 2.27-1.17 3.38-1.81.74 7 1.44 12.46 1.95 16.89 1.18 10.37.52 26 7.24 32.92 1.87 1.94 5.69 2.51 9.28 2.14 6.68-.68 14-4.65 17.1-10.8 1.39 8 6.46 10.67 11.34 10.81a13.09 13.09 0 0 0 8-2.32c7.38-5.77 11.6-10.92 16.78-19.55-2.58-3.62-4.86-5.57-7.35-8.48zm-212.58 51c-3.87 7.78-7.73 10.92-10.67 11.55a4.43 4.43 0 0 1-3.67-.62c-.66-.49-1.27-4.91-1.73-10.73-.82-10.29-1.06-25.26.25-31.17.75-3.38 3.18-7 6.49-7.73 2.57-.59 5.77.41 9 4.66.48 11.33.38 22.71.35 34.04zm66.92 33.51c0 3.17.55 8.77-5.85 11.17-2.64 1-5.78-3.17-5.51-8.15.23-4.24 6.5-12.26 10-18.1.26 4.26 1.39 9.24 1.38 15.08zm52.36-59.53c-.6 5.22-12.68 7.31-13.7 4.94-4.82-11.28-2.84-31.07-3.57-46.26-.22-4.48 2.58-8.26 9.84-9.52a10.49 10.49 0 0 0-.87 9.47c1.35 2.81 3.18 3.83 7.34 4.44 1.01 12.18 2.32 25.19.98 36.93z" class="cls-8" style="opacity:1;fill:#4edd61;fill-opacity:1;stroke:#0e3e33;stroke-width:49.50000076;stroke-linecap:round;stroke-linejoin:round;stroke-miterlimit:4;stroke-dasharray:none;stroke-opacity:1"/></g><g id="g34641" clip-path="url(#clipPath16452)" style="opacity:1"><path id="path243" d="M13.89 169.74a147.54 147.54 0 0 0 15.51 3.81c4.63.93 9.9 1.85 15.18 2.51 1.9.24 4 .39 6.13.53 2.66.18 5.41.3 8.17.41 2.15.08 4.88.14 8 .3a294 294 0 0 0 37.66-4c29.84-45 63.55-85.61 114.36-107.37 39.76-17 88.48-22 129.62-6.56 14.52 5.45 28.05 14.56 36.49 27.58 11.54 17.8 12.5 53.68 11.6 74.26l-33.96 37.13c-4.78 3.06 16.41 27.89 17.79 30 1.1 1.68 9.39 15.53 8.63 16.62-2.74 3.93-4.1 5.94-6.83 10a82 82 0 0 1-11.14 13.74c-2.54 22.14-13.72 82.27-60.92 96.43-50.45 15.13-82.06-6.5-89.54-12.49a58.61 58.61 0 0 1-14.87 7.42c-11.34 3.79-22 3-30.07-2.39-10.44-6.93-14.35-21.14-13.8-33.43a41.67 41.67 0 0 1-4.76 1.63 35.21 35.21 0 0 1-14.72 1.17 39.08 39.08 0 0 1-11.4 4.41 32.4 32.4 0 0 1-22.84-3.31 33.69 33.69 0 0 1-19.82 7.56c-2.89.12-5.88.23-8.93.27-3.32 0-6.71 0-10.11-.16a98.14 98.14 0 0 1-16.72-2.06 160.39 160.39 0 0 1-22-6.34c-.6-8.55-.91-12.82-1.51-21.37q-2.6-37.21-5-74.45c-4.89-1.29-7.34-2-12.27-3.7-.38-.13-2.33-8.29-2.76-9.34-4.6-11.33-7.29-24.76-4.29-36.87.29-1.18 1.37-7.83 2.26-8.3z" clip-path="url(#clipPath34555)" style="fill:#0e3e33;stroke:#4edd61;stroke-width:6.98;stroke-miterlimit:10;stroke-dasharray:none;stroke-linejoin:round;stroke-linecap:round"/><path id="rect1203" d="M26.156 415.818h178.702v.587H26.156z" style="fill:#4edd61;fill-opacity:1;stroke:#4edd61;stroke-width:6.87597;stroke-linecap:round;stroke-linejoin:round;stroke-miterlimit:10;stroke-dasharray:none;stroke-opacity:1" transform="matrix(.8682 -.4962 .47203 .88158 0 0)"/></g><path id="path223" d="m111.41 124.94-3.67 4.9-23.56-17.93 3.28-4.37c2.95.47 11 2.81 17.17 4.18l-12.83-9.83 3.63-4.48c2.67 2 5.14 3.82 7.56 5.63 5.15 3.87 10 7.61 15.69 12.1-.52.75-.89 1.32-1.24 1.78-.7.93-1.23 1.51-2.1 2.67-2.29-.54-10.13-2-15.85-3.39 3.96 2.85 9.87 7.08 11.92 8.74z" class="cls-5" style="fill:#4edd61"/><path id="path225" d="M116.34 88.65c1.22-1.3 2.62-3.08 4.16-4.7a23.06 23.06 0 0 1 4.46 4.13l-4.18 4.61c1.3 1 2.64 2.36 3.92 3.27 2-2.05 3.84-4.55 5.34-6 .31.26.58.52.84.74 1.14.95 2 1.57 3 2.36.31.26.66.55 1 .86-1 1.34-1.9 2.5-2.85 3.65-1.22 1.46-2.43 2.86-3.78 4.47-.66.8-1.37 1.64-2.11 2.59-4.06-3.39-8.11-6.85-12.44-10.5-3.07-2.6-6.25-5.47-9.35-8.09 3.15-4.25 4.84-6.5 8.07-11 1.11.93 1.72 1.48 2.55 2.17.57.48 1.23 1 2.24 1.79l-4.61 6.43z" class="cls-5" style="fill:#4edd61"/><path id="path227" d="M138.9 53.83c.57.27 3.83 3.63 7.47 7 1 .93 4.12 4.11 5.09 5-1.23-1.87-3.45-6.22-4-7.41-2-4.23-3.26-6.83-4.44-9.92l5.74-2.19c3.29 7.61 8.29 19.22 11.41 26.49-.57.48-1 .83-1.4 1.11-1 .75-1.43 1-2.95 2.16a71 71 0 0 1-6.59-6c-.95-.92-3.48-3.48-5.8-5.93 1.81 2.84 3.55 5.77 4.23 7.08 2.05 4 3.34 6.45 4 8a12.22 12.22 0 0 0-1.3.86c-.83.63-1.38 1.24-2.2 1.87-.21.15-.44.33-.69.48-7.87-6-15-11.74-23-17.88l3.84-5.32a94.49 94.49 0 0 1 9.25 7.36c1.23 1.08 4.92 4.68 5.89 5.58-1.06-1.77-3.1-5.08-3.85-6.43-2.24-4.05-4.66-7.64-4.82-8.65z" class="cls-5" style="fill:#4edd61"/><path id="path229" d="M201.5 50.34c-.4.22-.78.4-1.13.56-5.28 2.45-7.77-.05-10.73-5.28-1.32-2.31-3.09-5.51-4-7.4-.77-1.66-1.49-3.58-2.28-5.68-.94-2.48-1-4.54.36-6.28a13.75 13.75 0 0 1 4.58-3.36 8.67 8.67 0 0 1 5.29-.9 7.49 7.49 0 0 1 5 3.94c.86 1.69 2.26 4.41 3.64 7.38.31.68.61 1.4.93 2.08 1.68 3.77 3.13 7.21 2.71 9.21a7.41 7.41 0 0 1-2.44 4.66zm-8.4-20.79c-.84-1.41-1.77-1.35-2.65-.86a2.49 2.49 0 0 0-.85 2.65 114.89 114.89 0 0 0 6.24 12.29c.7 1.28 2.06 1.51 2.67.9 1-.6.59-2.49.16-3.4a111.94 111.94 0 0 0-5.57-11.56z" class="cls-5" style="fill:#4edd61"/><path id="path231" d="M230.41 39.84c-3.83-4.79-5.08-6.46-7.42-9.5l-1.31.38s2.7 9.19 2.85 9.65c-.52.17-.91.34-1.25.44-1.48.48-1.59.36-3.75.94-2.16-6.27-3.6-10.74-5.64-16.62-.74-2.07-1.53-4.4-2.28-6.74-.44-1.34-.83-2.66-1.24-3.94a30.72 30.72 0 0 1 3.81-1.58c.4-.13.81-.23 1.3-.39 2.26-.69 5.16-1.27 6.53-.42 2.68 1.68 2.68 2.5 4.6 7.83.08.25.19.49.28.73a14.45 14.45 0 0 1 .66 3.94l-.65 3.06 7 8.38zm-8.43-15.75c-.64-2.73-1.38-5.12-2.25-6.13-.87-1.01-2.41.12-2.5.15-.09.03 1.85 5.19 2.77 7.52 2.24-.14 1.98-1.54 1.98-1.54z" class="cls-5" style="fill:#4edd61"/><path id="path233" d="m239.25 5.44 6.36-1 5 22.07c1.81-.36 3.37-.48 6-1.07.37 1.56.57 2.54.8 3.71.16.81.32 1.65.62 2.8l-10.78 2.21-1.81.2-5.1-23.82z" class="cls-5" style="fill:#4edd61"/><path id="path235" d="M273.45 12.34c1.78 0 4-.27 6.27-.3a22.37 22.37 0 0 1 .15 6.08l-6.21.22c.19 1.63.14 3.54.39 5.09 2.89 0 5.94-.43 8-.36 0 .4 0 .78.06 1.11.11 1.49.29 2.56.39 3.78 0 .41.06.86.07 1.3-1.64.24-3.12.39-4.6.51-1.91.15-3.75.25-5.85.41-1 .09-2.12.17-3.32.3-.41-5.27-.75-10.59-1.16-16.23-.28-4-.45-8.29-.73-12.34 5.23-.71 8-1.07 13.51-1.91.12 1.45.15 2.27.23 3.34.06.75.12 1.6.29 2.86l-7.77 1.14z" class="cls-5" style="fill:#4edd61"/><path id="path237" d="M305.24.34c.48 0 1.07.06 1.81.07 2.17 8.9 3 18.16 4.9 29.95l-6.46-.34c-.26-2.29-.25-2.37-.61-4.51-1.33 0-3.49-.17-4.73-.2l-1.22 4.33c-2.62-.15-3.49-.2-6.49-.41l7.47-27.55.39-1.59c.71 0 1.62 0 2.94.1.48.02 1.03.09 2 .15zm-.95 19.09s-.15-3-.3-4.79c-.19-2.37-.69-6-.69-6-.75 3.35-2.05 10.62-2.11 10.62a29.41 29.41 0 0 0 3.1.16z" class="cls-5" style="fill:#4edd61"/><path id="path239" d="m328.18 32.97-6-1.14 4-17.26 2.52-11.53 4.91 1c.61 3 2.06 11.24 3.2 17.31l3.93-15.38 5.88 1c-2.53 10-4.81 18.26-7.46 28.59-1.37-.24-2.2-.39-3-.56-.8-.17-1.44-.37-2.48-.61-.25-1.39-1-4.41-1.41-7.95-.34-2.45-.78-4-1.24-6.36-.94 4.77-2.17 10.33-2.85 12.89z" class="cls-5" style="fill:#4edd61"/><path id="path241" d="M366.41 36.68a10.34 10.34 0 0 1-5 5c-2.85.93-4.71.18-9.27-1.76l-1.54-.58 2.47-5.63c.64.23 1.19.42 2 .74 1.51.57 3.27 1.48 4.69.14a4.86 4.86 0 0 0 .61-1c.91-2.12 0-4.24-.58-6.23-.58-1.99-.9-3.75-.25-5.62.18-.49.37-1 .6-1.56.92-2.16 2.51-4.56 5.75-5.25 1.73-.35 4-.07 8.18 1.34l-1.57 6.07c-1.16-.33-2-.4-2.51-.54a3 3 0 0 0-2.06.21 4.42 4.42 0 0 0-1.34 1.74 2.92 2.92 0 0 0-.22 1.77 35.2 35.2 0 0 1 .75 4.93 12.8 12.8 0 0 1-.71 6.23z" class="cls-5" style="fill:#4edd61"/><path id="path245" d="M89.36 255.23a19.44 19.44 0 0 0 5.85-10.22 71.43 71.43 0 0 0 1.13-20c-.61-7.72-2.5-15.86-6.76-22.06-4.64-6.73-16.46-6.85-28.16-7.22-5.47-.18-11-.4-15.69-1-5.45-.7-10.89-1.66-16-2.72a82.23 82.23 0 0 0 .08 8.61c.15 1.9.47 4 .77 5.9 3.24.68 8.34 2 15.39 3q3.09 50.71 6.59 101.39a96.81 96.81 0 0 0 15.76 1.79c7 .31 13.94.08 20.43-.28 5.13-.28 10.24-2.69 12.79-8.7 1.91-4.47 2.31-11.85 1.95-19.2-.43-9.49-4.69-24.31-14.13-29.29zm-27.32-44.2c5.75-.09 14.33-.88 16.53 5.9a63.37 63.37 0 0 1 2.8 14.2c.49 6.12-.11 12.17-2.46 16.63-1.71 3.25-10.24 2.6-14 2.61-1.22-13.12-2.23-26.18-2.87-39.34zm21 86.71c-4 1.16-9.7 1.9-14.22.29-.71-11.4-2.15-22.73-3-34.12 8.76-.4 15.86-.6 19 10.51a108.72 108.72 0 0 1 1.67 11.32c.45 5.54-.11 9.84-3.43 12z" class="cls-7" style="fill:url(#linearGradient1261)"/><path id="path247" d="M353.6 229.59c-6.23 9.45-15.27 21.62-17 12.44-3.47-18.78-4.12-38.18-6.32-57.19a63.67 63.67 0 0 0-6.51-.34 52.88 52.88 0 0 0-7.32.52c1.51 16.74 3.5 33.43 5.26 50.15-2.09 6.65-12.8 16.26-14.32 6.54-3.57-18.48-4.79-37.59-6.5-56.32-1.62.05-3.1.22-4.46.39a81 81 0 0 0-9.33 1.82c.3 3.19.58 6.17.86 8.95a41.18 41.18 0 0 1-7.09 3.67c-4 1.46-7 3.24-9.27 2.59-1.35-12.19-12.29-11.78-20.11-9.73-2.93.77-5.24 1.67-6.69 2.18-8 2.81-14.63 7.28-14.5 15.1.15 9.6.42 19 .79 28.7.09 2.38.2 5.15.34 8-6.74 10.71-12 18.23-15.76 23.73-2.7-20.92-3.61-42-6.28-63a68.61 68.61 0 0 0-7.07 2c-2.07.66-4.26 1.37-6.32 2.16q2 24.44 5 48.73c-4.88 7.55-13.23 17.3-14.28 8.52-2.08-17.37-4.17-34.85-5.68-52.33a43.1 43.1 0 0 0-6.61 1.56 72.85 72.85 0 0 0-7 2.55c1.52 12.39 2.72 25 4.1 37.22.28 2.39.69 5.06 1.05 7.8-6.84 13.69-10.1 16.22-13.2 19.62-1.37 1.52-5 2-5-.62-.6-20.63-.75-41.41-1.22-62.11-3.94.6-6.87 1.4-11.77 2.53-.17 2.58-.33 5.27-.47 8.22-3.56-4-8.12-4.81-12.53-3.83a20.68 20.68 0 0 0-8.87 4.51c-7.11 6.16-7.9 13.5-7.89 27.68 0 7.91.25 15.53.78 22.22.7 8.68 2 15.71 4.46 19.86 2.36 4 7.64 5.07 12.3 4.1a16.51 16.51 0 0 0 5-1.94c3-1.75 6.6-6.32 8.53-11.85 2.51 9.49 5.8 10.09 12.63 8.22 4.8-1.31 10.62-4.48 19.3-20.64v.18c.57 5.4 4.34 8.81 7.31 8.79 8.92-.07 16.21-9.48 21.13-16.53.6 4.38 1.09 7.4 1.48 10.71-2.54 2.47-8.13 10.63-11 14.74-2.14 2.84-6.67 10.13-8.09 15.78-2.08 8.27.94 18 4.74 20.36 3.27 2 7.46 2.84 13.79.8 14.07-4.54 17.25-16.77 16.05-30.08-.63-7-1.58-13.47-2.47-19.92 4.18-5.39 9.16-14 15.11-24a44.8 44.8 0 0 0 .88 5.53c1.67 6.59 12.82 5.94 19.9 4 9.65-2.61 15.93-6.6 18.52-13.33 1.33-3.45 1.42-12.06 1.22-23.73-.06-3.36 0-9.13-.21-15.08-.06-2.12-.33-4.21-.36-6.1a45 45 0 0 0 13.25-4.3c1.13-.56 2.27-1.17 3.38-1.81.74 7 1.44 12.46 1.95 16.89 1.18 10.37.52 26 7.24 32.92 1.87 1.94 5.69 2.51 9.28 2.14 6.68-.68 14-4.65 17.1-10.8 1.39 8 6.46 10.67 11.34 10.81a13.09 13.09 0 0 0 8-2.32c7.38-5.77 11.6-10.92 16.78-19.55-2.58-3.62-4.86-5.57-7.35-8.48zm-212.58 51c-3.87 7.78-7.73 10.92-10.67 11.55a4.43 4.43 0 0 1-3.67-.62c-.66-.49-1.27-4.91-1.73-10.73-.82-10.29-1.06-25.26.25-31.17.75-3.38 3.18-7 6.49-7.73 2.57-.59 5.77.41 9 4.66.48 11.33.38 22.71.35 34.04zm66.92 33.51c0 3.17.55 8.77-5.85 11.17-2.64 1-5.78-3.17-5.51-8.15.23-4.24 6.5-12.26 10-18.1.26 4.26 1.39 9.24 1.38 15.08zm52.36-59.53c-.6 5.22-12.68 7.31-13.7 4.94-4.82-11.28-2.84-31.07-3.57-46.26-.22-4.48 2.58-8.26 9.84-9.52a10.49 10.49 0 0 0-.87 9.47c1.35 2.81 3.18 3.83 7.34 4.44 1.01 12.18 2.32 25.19.98 36.93z" class="cls-8" style="fill:url(#linear-gradient-2)"/><g id="g255" style="opacity:.5" transform="translate(-293.4 -169.66)"><g id="g253" clip-path="url(#clip-path)" style="clip-path:url(#clip-path)"><path id="path249" d="M382.73 425.06a19.48 19.48 0 0 0 5.84-10.23 71.62 71.62 0 0 0 1.1-20c-.62-7.72-2.52-15.86-6.79-22.05-4.65-6.73-16.47-6.83-28.17-7.19-5.47-.16-11-.38-15.69-1-5.46-.69-10.89-1.64-16-2.69a85 85 0 0 0 .09 8.61c.16 1.9.48 4 .79 5.89 3.23.68 8.34 2 15.39 2.95q3.15 50.7 6.73 101.37a95.91 95.91 0 0 0 15.76 1.77c7 .3 13.95.06 20.43-.3 5.13-.29 10.23-2.71 12.78-8.72 1.9-4.47 2.29-11.85 1.92-19.21-.45-9.43-4.73-24.26-14.18-29.2zm-27.38-44.17c5.75-.09 14.32-.89 16.54 5.88a63.94 63.94 0 0 1 2.82 14.2c.5 6.12-.09 12.17-2.43 16.63-1.71 3.25-10.25 2.61-14 2.63-1.28-13.12-2.28-26.18-2.93-39.34Zm21.14 86.68c-4 1.17-9.69 1.92-14.22.31-.73-11.4-2.18-22.72-3.08-34.11 8.76-.41 15.87-.63 19 10.48a109 109 0 0 1 1.68 11.32c.49 5.54-.07 9.84-3.38 12z" class="cls-11" style="fill:#00988e"/><path id="path251" d="M647 399.05c-6.21 9.45-15.24 21.64-17 12.46-3.5-18.78-4.17-38.18-6.4-57.18a63.93 63.93 0 0 0-6.51-.33 52.72 52.72 0 0 0-7.31.53c1.53 16.74 3.54 33.43 5.32 50.14-2.08 6.66-12.77 16.28-14.31 6.56-3.6-18.48-4.84-37.58-6.57-56.3a43.61 43.61 0 0 0-4.46.39 80.58 80.58 0 0 0-9.33 1.83q.45 4.78.87 9a41 41 0 0 1-7.08 3.68c-4 1.47-7 3.24-9.27 2.6-1.37-12.19-12.31-11.76-20.13-9.7-2.93.77-5.24 1.68-6.68 2.19-8 2.82-14.62 7.3-14.49 15.12.17 9.6.46 18.95.84 28.7.1 2.38.21 5.15.35 8-6.73 10.71-12 18.25-15.73 23.75-2.72-20.92-3.66-42-6.36-62.94a69.67 69.67 0 0 0-7.08 2c-2.06.67-4.25 1.38-6.31 2.17q2.06 24.42 5.09 48.72c-4.87 7.55-13.21 17.32-14.27 8.54-2.1-17.37-4.21-34.85-5.76-52.33a44.26 44.26 0 0 0-6.6 1.58 72.57 72.57 0 0 0-7 2.55c1.53 12.4 2.75 25.05 4.15 37.22.28 2.39.69 5.06 1.06 7.8-6.82 13.7-10.08 16.24-13.17 19.64-1.38 1.52-5 2-5-.61-.64-20.64-.82-41.41-1.31-62.12-4 .61-6.87 1.42-11.77 2.56-.17 2.57-.32 5.27-.46 8.21-3.57-4-8.12-4.8-12.53-3.81a20.71 20.71 0 0 0-8.86 4.52c-7.11 6.17-7.89 13.52-7.85 27.7 0 7.91.26 15.52.8 22.22.71 8.67 2 15.7 4.49 19.85 2.37 4 7.65 5.06 12.31 4.08a16.36 16.36 0 0 0 4.95-2c3-1.75 6.6-6.33 8.52-11.86 2.52 9.49 5.81 10.08 12.64 8.2 4.79-1.31 10.61-4.49 19.27-20.66v.18c.58 5.4 4.35 8.8 7.33 8.78 8.91-.09 16.19-9.5 21.1-16.57.61 4.39 1.1 7.41 1.5 10.71-2.55 2.48-8.12 10.64-11 14.76-2.14 2.85-6.66 10.14-8.07 15.79-2.07 8.28 1 18 4.78 20.35 3.27 2 7.46 2.83 13.78.79 14.06-4.56 17.23-16.8 16-30.1-.64-7-1.59-13.48-2.49-19.93 4.17-5.39 9.14-14 15.07-24a46.48 46.48 0 0 0 .89 5.53c1.68 6.58 12.83 5.92 19.91 4 9.64-2.63 15.91-6.63 18.5-13.36 1.32-3.45 1.4-12.06 1.19-23.73-.07-3.36-.05-9.13-.23-15.08-.07-2.11-.35-4.21-.37-6.1a45.16 45.16 0 0 0 13.24-4.32c1.13-.56 2.27-1.17 3.37-1.81.76 7 1.46 12.46 2 16.89 1.19 10.37.56 26 7.29 32.91 1.87 1.93 5.69 2.49 9.28 2.12 6.68-.69 14-4.66 17.08-10.82 1.4 8 6.48 10.66 11.35 10.79a13.15 13.15 0 0 0 8-2.33c7.36-5.78 11.58-10.94 16.74-19.57-2.59-3.7-4.87-5.6-7.3-8.55zm-212.5 51.3c-3.86 7.78-7.72 10.92-10.66 11.56a4.43 4.43 0 0 1-3.67-.61c-.66-.5-1.27-4.91-1.74-10.74-.84-10.28-1.1-25.25.2-31.16.75-3.38 3.18-7 6.48-7.74 2.58-.59 5.77.4 9 4.65.44 11.32.35 22.69.34 34.04zm67 33.41c0 3.17.56 8.77-5.83 11.18-2.64 1-5.79-3.17-5.52-8.14.22-4.24 6.48-12.27 10-18.12.13 4.26 1.26 9.24 1.26 15.08zm52.28-59.61c-.59 5.23-12.67 7.33-13.69 5-4.84-11.27-2.89-31.07-3.64-46.26-.22-4.48 2.57-8.26 9.83-9.53a10.48 10.48 0 0 0-.85 9.47c1.35 2.8 3.18 3.83 7.34 4.43.92 12.15 2.23 25.15.92 36.89z" class="cls-11" style="fill:#00988e"/></g></g><path id="path271" d="M268.6 133.18c41.14-1.22 70.81-4.62 106.85 1l-8.74-36.84c-32.46-52.32-131.17-19.67-131.17-19.67-61 21.06-86.42 69.84-86.42 69.84" style="fill:#195869"/><ellipse id="ellipse273" cx="292.461" cy="114.16" class="cls-16" rx="55.94" ry="5.43" style="fill:#2b6876"/><path id="path275" d="M158.26 133.71h7.21c30.9 0 55.94-2.43 55.94-5.43 0-3-24.09-5.33-54.17-5.42a169.19 169.19 0 0 0-8.98 10.85z" class="cls-16" style="fill:#2b6876"/><path id="path277" d="M271.47 95.48a9.17 9.17 0 0 1-5.46-16.53 10.69 10.69 0 1 0 10.34 15.11 9.05 9.05 0 0 1-4.88 1.42z" style="fill:#fcf100"/><path id="polygon279" d="m524.23 263.71 7.92-4.75-10.3 2.77-6.34-2.77 1.19 4.75-5.54 4.75 8.71-1.98 5.55 4.36z" class="cls-11" style="fill:#00988e" transform="translate(-293.4 -169.66)"/><path id="polygon281" d="m597.07 258.66 2.77-3.57h-5.94l-5.15-7.92 1.19 7.92-4.36 5.15 6.34-.79 8.71 6.34z" class="cls-11" style="fill:#00988e" transform="translate(-293.4 -169.66)"/><path id="polygon283" d="m469 269.09 26.63-8.74v56.78H469z" class="cls-18" style="fill:#0e3e33" transform="translate(-293.4 -169.66)"/><path id="rect285" d="M351.151 77.59h16.59v60.27h-16.59z" class="cls-18" style="fill:#0e3e33"/><path id="rect287" d="M316.211 67.55h26.2v70.31h-26.2z" class="cls-18" style="fill:#0e3e33"/><path id="polygon289" d="m490.39 266.47 5.24-3.06v53.43l-5.24 3.78z" class="cls-13" style="fill:#016f3f" transform="translate(-293.4 -169.66)"/><path id="polygon291" d="m631.45 243.32 5.24 2.62v62.45l-5.24-3.3z" class="cls-13" style="fill:#016f3f" transform="translate(-293.4 -169.66)"/><path id="polygon293" d="m655.9 256.86 5.25 13.1v38.87l-5.25-3.31z" class="cls-13" style="fill:#016f3f" transform="translate(-293.4 -169.66)"/><path id="path295" d="M206.6 143.53s38.87-27.94 76.43-7.86" class="cls-18" style="fill:#0e3e33"/><path id="path297" d="m185.6 176.47 173.41-12.78-3.25-.84-40.28-8.2c-18.16-6.91-14-15.45-24.25-14.52a30.47 30.47 0 0 0-13.69 5.13 31.43 31.43 0 0 0-12-4.81c-16.78-3.07-38.58 1.12-51.85 12.31z" style="fill:url(#linear-gradient-4)"/><path id="path299" d="m235.41 146.78 34.49 5.88s-5.43 11.55-20.73 11.25c-15.3-.3-20.57-8.99-13.76-17.13z" class="cls-18" style="fill:#0e3e33"/><path id="path301" d="m241.5 153.41 6.79 1 2.15 7.48 7.81-5.76 7.19 1.06s-2.19 6.27-13.47 5.65c0 .02-9.67-.45-10.47-9.43z" style="fill:#4de8dd"/><path id="path303" d="M325.86 166.13c1.61-1.54.72-3.74-5.28-6.87l-10.74 8.08z" class="cls-21" style="fill:#078e50"/><path id="path305" d="M291.23 140.13a30.47 30.47 0 0 0-13.69 5.13l-.15-.09v.11l37.21 9.06c-17.15-6.87-13.25-15.13-23.37-14.21z" class="cls-21" style="fill:#078e50"/><path id="path309" d="M175.6 162.75s-21.84 18.34-11.36 21.4c10.48 3.06 84.29 0 84.29 0s-162.02 31-72.93-21.4z" class="cls-22" style="fill:#226271"/><path id="path311" d="m146.18 213.61 40.15-11.21c-26 .39-51.65.21-58.51-1.8-15.12-4.4 16.38-30.86 16.38-30.86-63.02 37.07-38.93 45.2 1.98 43.87z" class="cls-22" style="fill:#226271"/><path id="polygon313" d="m668.74 322.66 1.71-6.38h-45.99l37.56 10.89z" style="fill:url(#linear-gradient-5)" transform="translate(-293.4 -169.66)"/><path id="path315" d="m297.87 155.34-14 10.48s33.22-.48 14-10.48z" class="cls-21" style="fill:#078e50"/><path id="path897" d="M353.6 229.59c-6.23 9.45-15.27 21.62-17 12.44-3.47-18.78-4.12-38.18-6.32-57.19a63.67 63.67 0 0 0-6.51-.34 52.88 52.88 0 0 0-7.32.52c1.51 16.74 3.5 33.43 5.26 50.15-2.09 6.65-12.8 16.26-14.32 6.54-3.57-18.48-4.79-37.59-6.5-56.32-1.62.05-3.1.22-4.46.39a81 81 0 0 0-9.33 1.82c.3 3.19.58 6.17.86 8.95a41.18 41.18 0 0 1-7.09 3.67c-4 1.46-7 3.24-9.27 2.59-1.35-12.19-12.29-11.78-20.11-9.73-2.93.77-5.24 1.67-6.69 2.18-8 2.81-14.63 7.28-14.5 15.1.15 9.6.42 19 .79 28.7.09 2.38.2 5.15.34 8-6.74 10.71-12 18.23-15.76 23.73-2.7-20.92-3.61-42-6.28-63a68.61 68.61 0 0 0-7.07 2c-2.07.66-4.26 1.37-6.32 2.16q2 24.44 5 48.73c-4.88 7.55-13.23 17.3-14.28 8.52-2.08-17.37-4.17-34.85-5.68-52.33a43.1 43.1 0 0 0-6.61 1.56 72.85 72.85 0 0 0-7 2.55c1.52 12.39 2.72 25 4.1 37.22.28 2.39.69 5.06 1.05 7.8-6.84 13.69-10.1 16.22-13.2 19.62-1.37 1.52-5 2-5-.62-.6-20.63-.75-41.41-1.22-62.11-3.94.6-6.87 1.4-11.77 2.53-.17 2.58-.33 5.27-.47 8.22-3.56-4-8.12-4.81-12.53-3.83a20.68 20.68 0 0 0-8.87 4.51c-7.11 6.16-7.9 13.5-7.89 27.68 0 7.91.25 15.53.78 22.22.7 8.68 2 15.71 4.46 19.86 2.36 4 7.64 5.07 12.3 4.1a16.51 16.51 0 0 0 5-1.94c3-1.75 6.6-6.32 8.53-11.85 2.51 9.49 5.8 10.09 12.63 8.22 4.8-1.31 10.62-4.48 19.3-20.64v.18c.57 5.4 4.34 8.81 7.31 8.79 8.92-.07 16.21-9.48 21.13-16.53.6 4.38 1.09 7.4 1.48 10.71-2.54 2.47-8.13 10.63-11 14.74-2.14 2.84-6.67 10.13-8.09 15.78-2.08 8.27.94 18 4.74 20.36 3.27 2 7.46 2.84 13.79.8 14.07-4.54 17.25-16.77 16.05-30.08-.63-7-1.58-13.47-2.47-19.92 4.18-5.39 9.16-14 15.11-24a44.8 44.8 0 0 0 .88 5.53c1.67 6.59 12.82 5.94 19.9 4 9.65-2.61 15.93-6.6 18.52-13.33 1.33-3.45 1.42-12.06 1.22-23.73-.06-3.36 0-9.13-.21-15.08-.06-2.12-.33-4.21-.36-6.1a45 45 0 0 0 13.25-4.3c1.13-.56 2.27-1.17 3.38-1.81.74 7 1.44 12.46 1.95 16.89 1.18 10.37.52 26 7.24 32.92 1.87 1.94 5.69 2.51 9.28 2.14 6.68-.68 14-4.65 17.1-10.8 1.39 8 6.46 10.67 11.34 10.81a13.09 13.09 0 0 0 8-2.32c7.38-5.77 11.6-10.92 16.78-19.55-2.58-3.62-4.86-5.57-7.35-8.48zm-212.58 51c-3.87 7.78-7.73 10.92-10.67 11.55a4.43 4.43 0 0 1-3.67-.62c-.66-.49-1.27-4.91-1.73-10.73-.82-10.29-1.06-25.26.25-31.17.75-3.38 3.18-7 6.49-7.73 2.57-.59 5.77.41 9 4.66.48 11.33.38 22.71.35 34.04zm66.92 33.51c0 3.17.55 8.77-5.85 11.17-2.64 1-5.78-3.17-5.51-8.15.23-4.24 6.5-12.26 10-18.1.26 4.26 1.39 9.24 1.38 15.08zm52.36-59.53c-.6 5.22-12.68 7.31-13.7 4.94-4.82-11.28-2.84-31.07-3.57-46.26-.22-4.48 2.58-8.26 9.84-9.52a10.49 10.49 0 0 0-.87 9.47c1.35 2.81 3.18 3.83 7.34 4.44 1.01 12.18 2.32 25.19.98 36.93z" class="cls-8" style="fill:url(#linear-gradient-2);stroke:#000;stroke-opacity:1;stroke-width:1;stroke-miterlimit:4;stroke-dasharray:none;opacity:.32371795"/></svg>