<svg xmlns="http://www.w3.org/2000/svg" id="Layer_1" width="365.086" height="388.013" data-name="Layer 1" version="1.1"><defs id="defs4"><clipPath id="clipPath21614" clipPathUnits="userSpaceOnUse"><path id="path21616" d="M415.996 275.689a191.79 85.964 0 0 1-190.936 85.963 191.79 85.964 0 0 1-192.637-85.198 191.79 85.964 0 0 1 189.22-86.722 191.79 85.964 0 0 1 194.322 84.425l-191.76 1.532z" style="fill:#871324;fill-opacity:1"/></clipPath><style id="style2">.cls-3{fill:#fff}.cls-4{fill:#871324}.cls-11,.cls-12,.cls-13,.cls-14,.cls-15,.cls-8{stroke:#000;stroke-linecap:round;stroke-linejoin:round}.cls-8{stroke-width:8.72px}.cls-11{fill-rule:evenodd}.cls-11,.cls-13{fill:#a0a0a0}.cls-14{fill:#c6c6c6}.cls-11,.cls-13{stroke-width:5.79px}.cls-12{fill:#595959;stroke-width:5.13px}.cls-14{stroke-width:5.2px}.cls-15{fill:#f4ba14;stroke-width:3.76px}</style></defs><path id="path28967" d="M209.076 47.332A153.894 155.712 0 0 0 55.182 203.045a153.894 155.712 0 0 0 102.66 146.43v-.298l.283.002.246.002c.173-.025.347-.051.518-.027l.15.023c.204-.064.445-.096.678-.094.536.005 1.03.188.947.563l-.016.06.516.26a9.26 9.26 0 0 1-.17.254c.082.118.204.31.387.59a153.894 155.712 0 0 0 .266.102l.183-.263.002-.006c-.186-.13-.38-.252-.56-.392-.297-.23.795-.893.56.392l.002.002-.004.004a3.23 3.23 0 0 1-.05.227 1.09 1.09 0 0 0-.02.077 153.894 155.712 0 0 0 47.316 7.803 153.894 155.712 0 0 0 153.895-155.711A153.894 155.712 0 0 0 209.076 47.332ZM160.994 350.22c-.137-.198-.199-.222-.357-.235l.287.337.07-.102zm-.07.102-.18.249a153.894 155.712 0 0 0 .602.227 14.821 14.821 0 0 1-.422-.476z" style="fill:#871324;fill-opacity:1;stroke-width:1.05383"/><path id="path21508" d="m154.525-.309-.115.036a12.06 12.06 0 0 0-7.092 2.632c-.11.086-.209.178-.326.276l-.377.342-.394.39c-.095.102-.183.19-.252.274-.07.083-.257.296-.395.463l-.23.277a13 13 0 0 0-.844 1.295l-.182.336a7.9 7.9 0 0 0-.279.564l-.139.303a11.23 11.23 0 0 0-.527 1.484l-.103.354-.065.27-.023.132a195.86 195.86 0 0 0-54.893 10.156 11.87 11.87 0 0 0-7.723 12.354 11.61 11.61 0 0 0 .282 1.637 109.564 109.564 0 0 0-6.526 2.996l-.556.271c-.437.214-.862.434-1.28.643-.417.208-.625.313-.902.469l-.994.515c-.46.242-.9.48-1.367.735l-.567.304C54.572 46.9 43.42 56.477 36.41 66.893l-.19.275c-.295.443-.58.883-.876 1.357l-.256.4-.73 1.263-.06.113-.2.342a59.28 59.28 0 0 0-.92 1.671 11.87 11.87 0 0 0 2.783 14.397c.385.344.785.673 1.19 1.012l.372.306.877.698.022.068.351.27 1.157.865.375.273.129.086.082.06a11.87 11.87 0 0 0 11.295 15.92l34.05-.374a155.52 155.52 0 0 0-33.297 80.25 152.443 152.443 0 0 0-.748 9.367A55.49 55.49 0 0 0 83.41 297.047a149.853 149.853 0 0 0 3.73 4.687 155.14 155.14 0 0 0 75.286 49.381l-.002-1.539h2.09c.774 0 1.548-.008 2.322.006l.424.004c.087 0 .31-.073.261 0-.009.014-.034.022-.054.031a2.58 2.58 0 0 1 .261-.043c.664-.066.698-.035 1.342.016.788.16.666.13.658.125.63-.024.656-.02 1.377-.016.395.025.792.041 1.186.075.91.076-.335.056.928.12.758.04 1.522-.027 2.28-.001 1.776 0 3.552.01 5.327 0 .363-.002.727 0 1.09 0 .371-.072.74-.157 1.115-.211 6.67-.975-1.202.225 3.506-.37.561-.07 1.116-.182 1.674-.273 3.134-.562 6.256-1.18 9.38-1.793.46-.089.926-.151 1.38-.267 2.18-.56.638-.263 2.295-.784 1.578-.496 3.175-.845 4.789-1.203 1.243-.21 2.428-.65 3.607-1.082.22-.08.436-.177.66-.248.482-.151.97-.277 1.455-.416 1.106-.202 2.15-.629 3.19-1.039.213-.084.42-.195.64-.258.591-.168 1.194-.29 1.791-.435.368-.05.738-.079 1.102-.149.312-.06 1.16-.322 1.496-.42.907-.262 1.813-.508 2.711-.8.133-.048.264-.103.398-.143.732-.219.788-.227 1.495-.336.075-.012.152-.02.228-.03.54-.16 1.078-.335 1.63-.443.323-.062.657-.009.985-.021.592-.023.198-.038.764-.065.362-.017.724-.023 1.086-.035.694.04 1.381-.075 2.068-.152l.74 6.566.438-.017c.619-.026 1.236-.083 1.854-.127.588-.107 1.176-.218 1.765-.319 1.343-.228 1.866-.256 3.277-.564.42-.091.828-.222 1.243-.334 1.436-.382 2.876-.754 4.31-1.144.14-.038.275-.132.418-.116.058.007-.005.193.047.168.195-.094.327-.283.49-.426.428-.36.967-.854 1.444-1.177.017-.012-.01.04-.014.06l.223-.156c.179-.223.317-.476.476-.715l4.25 2.832c.23-.031.458-.072.688-.101.685-.097 1.404-.173 2.082-.334.537-.128 1.063-.302 1.595-.45l.875-.238 1.178 4.322 2.156.83a155.14 155.14 0 0 0 44.467-24.955l.01-.002A154.93 154.93 0 0 0 280.23 66.625a157.06 157.06 0 0 0-21.664-9.615l-.054-.182-.121-.402-.077-.26-.166-.555-.132-.441-.1-.336-.143-.479-.17-.564-.203-.682-.613-2.048-.789-2.635-.586-1.787-.117-.393c-.19-.632-.434-1.239-.67-1.889l-.11-.363-.601-1.562-.115-.383a47.403 47.403 0 0 0-.697-1.67l-.178-.418-.031-.106-.59-1.304-.037-.125-.106-.356-.699-1.43-.35-.677-.502-.945c-.197-.38-.403-.757-.617-1.122l-.394-.695-.518-.889-.201-.326-.025-.086a56.278 56.278 0 0 0-1.05-1.617l-.195-.306a48.835 48.835 0 0 0-2.064-2.819l-.121-.16a45.104 45.104 0 0 0-2.233-2.611l-.396-.424-.457-.479-.723-.703-.232-.222-.635-.582-.445-.41-.576-.495-.75-.623-.696-.543-.66-.502-.557-.396-.605-.414-.09-.057-.39-.26-.26-.172c-.425-.269-.86-.535-1.281-.794l-.278-.159c-.426-.238-.802-.45-1.16-.634l-.44-.213-.113-.06-.888-.423-.83-.367-.58-.234c-.37-.151-.739-.3-1.124-.436l-.255-.092a35.59 35.59 0 0 0-17.172-1.574C185.69-.737 157.692-.4 154.525-.309Zm70.153 339.99-.084.016c-.054.02-.218.074-.162.059.082-.022.164-.05.246-.074zm-55.373 10.02c-.058.005-.098.018-.108.041-.06.133.284-.014.434-.023a1.836 1.836 0 0 0-.326-.018z" class="cls-4" clip-path="url(#clipPath21614)" style="fill:#871324"/><path id="path174" d="M205.03 47.854A154.93 154.93 0 0 0 100.536 93.22a157.06 157.06 0 0 0-15.42 18h-8.959l-1.88.048h-.41c-.66 0-1.31.06-2 .1h-.38l-1.67.131h-.4c-.61.05-1.22.12-1.8.19l-.45.05h-.11l-1.42.19h-.5l-1.57.26-.75.14-1.05.21c-.42.08-.84.17-1.25.27l-.78.18-1 .24-.37.1h-.09c-.62.17-1.24.35-1.85.54l-.35.1c-1.13.36-2.24.75-3.29 1.17l-.19.07c-1.08.43-2.141.9-3.141 1.39l-.52.26-.59.3-.88.49-.28.16-.74.44-.52.31-.64.41-.808.54-.721.51-.67.49-.541.42-.568.46-.08.07-.362.3-.24.2c-.38.33-.759.67-1.129 1l-.23.22c-.35.34-.66.64-.94.93l-.33.36-.09.09-.66.73-.59.69-.39.49c-.25.31-.5.62-.74.95l-.16.22a35.59 35.59 0 0 0-6.43 16c-20.7 20.85-28.4 47.77-29.22 50.83v.12a12.06 12.06 0 0 0 .489 7.55c.05.13.11.25.17.39l.22.46.26.49c.07.12.13.23.19.32s.21.33.33.51l.201.3a13 13 0 0 0 1 1.18l.27.27c.17.17.33.32.46.43l.25.22a11.23 11.23 0 0 0 1.27.93l.31.2.239.14.121.06a195.86 195.86 0 0 0-6 55.5 11.87 11.87 0 0 0 9.62 10.94 11.61 11.61 0 0 0 1.65.2c.26 2.4.59 4.77 1 7.11l.1.61c.08.48.17.95.25 1.41.08.46.12.69.19 1l.21 1.1c.1.51.2 1 .31 1.52l.129.63c3.34 15.7 9.321 29.13 17.291 38.83l.209.26c.34.41.68.81 1.05 1.23l.311.36 1 1.06.09.09.27.29c.48.5.91.939 1.34 1.359A11.87 11.87 0 0 0 49.777 333c.44-.27.87-.56 1.31-.85l.4-.27.92-.64h.07l.36-.26 1.16-.86.37-.28.12-.1.08-.06a11.87 11.87 0 0 0 18.49-6.26l9.399-32.73a155.52 155.52 0 0 0 67.34 54.9c1.727.732 3.496 1.374 5.256 2.039l-.381-1.14c1.12-.374.96-.362 2.41-.583.327-.05.656-.08.986-.088.341-.008.572-.009.744-.006.517.01.503.065 1.329.131.235.02.471.023.707.033 1.14.005 2.275.196 3.392.41.872.168.28.086 1.04.172 1.019.059 1.985.424 2.898.854.614.29.354.372.646.248.054.004.107.004.16.012.307.045.612.11.918.154.23.033.463.034.69.08.29.059.575.136.863.203l.147.053.015.002c.123.03.478.174.358.133-.126-.043-.25-.09-.373-.135-.12-.024-1.065-.093-.883.074.647.597 1.366 1.106 2.093 1.606-.017.01-.146.024.407.052.758.039 1.522-.027 2.281-.002 1.775.001 3.551.01 5.326 0 .363-.002.727.001 1.09 0 .371-.071.741-.156 1.115-.21 6.67-.975-1.202.224 3.506-.37.561-.07 1.116-.182 1.674-.273 3.134-.563 6.256-1.18 9.38-1.793.46-.089.926-.151 1.38-.268 2.18-.559.638-.262 2.295-.783 1.579-.497 3.176-.845 4.789-1.203 1.243-.211 2.428-.65 3.607-1.082.22-.081.436-.178.66-.248.482-.151.97-.277 1.455-.416 1.106-.202 2.15-.63 3.19-1.04.213-.083.42-.194.64-.257.591-.168 1.194-.29 1.791-.436.368-.05.738-.078 1.102-.148.312-.06 1.16-.322 1.496-.42.907-.262 1.813-.508 2.711-.8.133-.048.264-.103.398-.143.732-.22.788-.227 1.495-.336.075-.012.152-.02.228-.03.54-.161 1.078-.336 1.63-.443.323-.062.657-.009.985-.021.592-.023.198-.038.764-.065.362-.017.724-.023 1.086-.035.694.04 1.381-.075 2.068-.152l.74 6.566.438-.017c.619-.026 1.236-.083 1.854-.127.588-.107 1.176-.218 1.765-.319 1.343-.228 1.866-.256 3.278-.564.419-.092.827-.222 1.242-.334 1.436-.382 2.876-.754 4.31-1.145.14-.038.275-.131.418-.115.058.007-.005.193.047.168.195-.094.327-.284.49-.426.428-.36.967-.854 1.444-1.178.017-.011-.01.04-.014.061l.223-.156c.179-.224.317-.477.476-.715l4.25 2.832c.23-.031.458-.073.688-.102.685-.096 1.404-.172 2.082-.334.537-.128 1.063-.302 1.595-.449l.875-.238.54 1.978a49.492 49.492 0 0 0 2.337-.896c1.977-.798 3.933-1.63 5.96-2.3.673-.224 1.36-.404 2.042-.597 3.034-.854 2.341-.667 4.844-1.265.941-.21 1.879-.43 2.822-.627.615-.13 1.235-.233 1.852-.354l.303-.06-.76-1.045c.76-.553.73-.572 1.734-1.065.244-.12.495-.235.758-.304 1.278-.34 2.428-.369 3.734-.416a60.89 60.89 0 0 0 3.75-.176c.44-.269.861-.566 1.245-.918l.632.773c.023-.003.046-.004.069-.008.302-.047.6-.12.9-.18.58-.15 1.164-.322 1.717-.562a155.14 155.14 0 0 0 1.383-.877s0-.003.002-.004c.032-.034.063-.1.096-.12.434-.272.87-.54 1.304-.81a155.14 155.14 0 0 0 58.082-190.015v-.01A154.93 154.93 0 0 0 205.03 47.854Zm19.648 291.828-.084.015c-.054.02-.218.074-.162.059.082-.022.164-.05.246-.074z" class="cls-4" style="fill:#871324"/><path id="path30313" d="M357.837 204.886a149.087 146.12 0 0 1-148.414 146.12 149.087 146.12 0 0 1-149.755-144.8A149.087 146.12 0 0 1 206.728 58.78a149.087 146.12 0 0 1 151.084 143.465l-149.063 2.641z" style="fill:#000;fill-opacity:1"/><path id="path176" d="M41.528 121.77Z" class="cls-4" style="fill:#871324"/><path id="rect178" d="M128.748 46.09h22.21v26.63h-22.21z" class="cls-4" style="fill:#871324"/><path id="rect180" d="M128.748 53.31h41.01v19.42h-41.01z" class="cls-4" style="fill:#871324"/><path id="rect182" d="M104.088 67.01h19.4v22.37h-19.4z" class="cls-4" style="fill:#871324"/><path id="polygon184" d="M444.32 238.48h14.42v-36.47l-14.42-3.81z" class="cls-4" style="fill:#871324" transform="translate(-286.762 -174)"/><path id="rect186" d="M244.738 39.34h14.42v36.47h-14.42z" class="cls-4" style="fill:#871324"/><path id="rect188" d="M282.188 54.49h26.17v36.47h-26.17z" class="cls-4" style="fill:#871324"/><path id="rect190" d="M-324.958-98.58h9.75v16.45h-9.75z" class="cls-4" style="fill:#871324" transform="scale(-1)"/><path id="rect192" d="M282.188 49.38h18.36v5.11h-18.36z" class="cls-4" style="fill:#871324"/><path id="polygon194" d="M553.64 198.25v52.19h17.84v-52.19l-8.92-7.62z" class="cls-4" style="fill:#871324" transform="translate(-286.762 -174)"/><path id="circle196" d="M216.822 60.297a142.66 142.66 0 0 0-133.545 77.207 142.66 142.66 0 0 0 61.543 192.135 142.66 142.66 0 0 0 60.026 15.629c.403-.092.804-.186 1.209-.276 1.243-.211 2.428-.65 3.607-1.082.22-.08.436-.177.66-.248.482-.151.97-.277 1.455-.416 1.106-.202 2.15-.629 3.19-1.039.214-.084.42-.195.64-.258.591-.168 1.194-.29 1.791-.435.368-.05.738-.079 1.102-.149.312-.06 1.16-.322 1.496-.42.907-.262 1.813-.508 2.711-.8.133-.048.264-.103.398-.143.732-.219.788-.227 1.495-.336.075-.012.152-.02.228-.03.54-.16 1.078-.335 1.631-.443.322-.062.656-.009.984-.021.592-.023.198-.038.764-.065.362-.017.724-.023 1.086-.035.694.04 1.381-.075 2.068-.152l.508 4.516a142.66 142.66 0 0 0 105.088-75.34A142.66 142.66 0 0 0 275.414 75.96a142.66 142.66 0 0 0-58.592-15.664Zm7.856 279.385-.084.015c-.054.02-.218.074-.162.059.082-.022.164-.05.246-.074z" style="stroke:#000;stroke-width:9.6px;stroke-linecap:round;stroke-linejoin:round"/><path id="path198" d="m144.518 276-9.52 9.77 3.93 3.83-5.17 5.3-14-13.63 5.17-5.3 3.93 3.83 9.52-9.76z" class="cls-3" style="fill:#fff"/><path id="path200" d="M124.028 248.79c3.26 6.15 1.93 11.62-4.55 15.06-6.06 3.22-11.87 1.47-15.14-4.69-3.27-6.16-1.94-11.62 4.54-15.06 6.07-3.22 11.88-1.47 15.15 4.69zm-10.92 3.13c-1.87 1-3 2.28-2.2 3.83.8 1.55 2.47 1.28 4.29.32 1.82-.96 3.07-2.32 2.25-3.87-.82-1.55-2.53-1.2-4.34-.28z" class="cls-3" style="fill:#fff"/><path id="path202" d="m113.038 217.67-5.12 3.33.16.76 5.51-.95 1.46 8.42-20.73 3.59-2-11.47c-1-5.71 1.31-9 5.82-9.79a6.72 6.72 0 0 1 6.49 2.15l6.8-5.28zm-11 3.55c-.29-1.11-.9-1.49-2.13-1.27-1.23.22-1.52.91-1.28 2.27l.23 1.29 3.51-.61z" class="cls-3" style="fill:#fff"/><path id="path204" d="M113.538 188.56c-1 6.89-5.34 10.5-12.59 9.43-6.79-1-10.43-5.87-9.41-12.76 1.02-6.89 5.34-10.51 12.6-9.43 6.79 1.01 10.42 5.87 9.4 12.76zm-10.64-4c-2.1-.31-3.79 0-4 1.78-.21 1.78 1.23 2.5 3.26 2.8 2.03.3 3.85 0 4.11-1.77.26-1.77-1.34-2.47-3.37-2.77z" class="cls-3" style="fill:#fff"/><path id="path206" d="M123.528 157h-6.91a3.55 3.55 0 0 1-1.7-.38l-.15.3 6.79 3.49-3.7 7.21-18.72-9.61 4.26-8.29h6.91a3.55 3.55 0 0 1 1.7.38l.15-.3-7-3.58 3.7-7.22 18.9 9.7z" class="cls-3" style="fill:#fff"/><path id="path208" d="m137.508 136.52-9.68-9.6-3.86 3.89-5.26-5.21 13.75-13.86 5.26 5.22-3.86 3.89 9.67 9.6z" class="cls-3" style="fill:#fff"/><path id="path210" d="M164.898 116.3c-6.18 3.21-11.64 1.84-15-4.68-3.17-6.09-1.36-11.88 4.82-15.09 6.18-3.21 11.64-1.84 15 4.67 3.17 6.09 1.37 11.89-4.82 15.1zm-3-10.94c-1-1.89-2.26-3-3.81-2.23-1.55.77-1.3 2.46-.36 4.28.94 1.82 2.3 3.09 3.85 2.29 1.55-.8 1.24-2.52.29-4.34z" class="cls-3" style="fill:#fff"/><path id="path212" d="m257.748 116.92.5-6.1-.7-.34-2.62 4.93-7.55-4 9.86-18.58 10.28 5.46c5.11 2.72 6.31 6.56 4.16 10.61a6.74 6.74 0 0 1-5.68 3.8v8.61zm3.93-10.84c1.06.45 1.73.2 2.31-.9.58-1.1.21-1.76-1-2.41l-1.15-.61-1.68 3.15z" class="cls-3" style="fill:#fff"/><path id="path214" d="m280.808 134.52 1-1.54-3.47-3.38-1.51 1.07-6.8-6.67 19.21-10.61 8.49 8.28-10.14 19.5zm7.53-11.14a10.86 10.86 0 0 1 1.19-1.52l-.24-.23a10.5 10.5 0 0 1-1.48 1.23l-4.4 2.91 2.12 2.07z" class="cls-3" style="fill:#fff"/><path id="path216" d="M299.528 160.29a24 24 0 0 1-4.19-5.19c-3.78-6.36-2.85-12.17 3.4-15.88 5.88-3.5 11.91-1.91 15.86 4.74a20.42 20.42 0 0 1 2.41 5.89l-7 2.37a11.85 11.85 0 0 0-1.52-4.07 3.43 3.43 0 0 0-5.08-1.37c-2 1.18-2.62 3-1.31 5.17a11.16 11.16 0 0 0 2.82 3.3z" class="cls-3" style="fill:#fff"/><path id="path218" d="M307.048 182.82a23.83 23.83 0 0 1-2.83-6c-2.17-7.09.11-12.51 7.07-14.63 6.53-2 12 1 14.28 8.37a20.84 20.84 0 0 1 .95 6.3l-7.38.63a11.91 11.91 0 0 0-.51-4.31 3.723 3.723 0 1 0-7.12 2.18 11.64 11.64 0 0 0 2 3.87z" class="cls-3" style="fill:#fff"/><path id="path220" d="M307.678 199.1c-.27-7 3.29-11.31 10.63-11.6 6.86-.27 11.33 3.83 11.61 10.79.28 6.96-3.29 11.32-10.63 11.61-6.86.27-11.33-3.83-11.61-10.8zm11.19 1.9c2.12-.08 3.71-.75 3.64-2.5-.07-1.75-1.67-2.23-3.72-2.15-2.05.08-3.77.76-3.71 2.51.06 1.75 1.74 2.24 3.79 2.14z" class="cls-3" style="fill:#fff"/><path id="path222" d="M304.658 227.2c1.75-6.75 6.43-9.88 13.53-8 6.65 1.72 9.74 6.95 8 13.69-1.74 6.74-6.43 9.88-13.53 8-6.66-1.73-9.75-6.95-8-13.69zm10.16 5.07c2 .54 3.77.36 4.21-1.34.44-1.7-1-2.61-2.94-3.13s-3.84-.37-4.28 1.33c-.44 1.7 1.02 2.63 3.01 3.14z" class="cls-3" style="fill:#fff"/><path id="path224" d="m293.458 254.37 6.9.48a3.58 3.58 0 0 1 1.66.49l.18-.29-6.56-3.93 4.17-7 18 10.82-4.79 8-6.9-.48a3.62 3.62 0 0 1-1.67-.49l-.17.29 6.73 4-4.17 7-18.22-10.91z" class="cls-3" style="fill:#fff"/><path id="path226" d="M289.578 274.09a17 17 0 0 0-6.83 3.76c-.44.42-.54.85-.33 1.07.21.22.61.15 1-.08 4.45-2.84 8.26-4.06 11.38-.8 3.12 3.26 2.32 7.46-1.65 11.25-2.83 2.7-5.61 4.7-8.08 5.52l-4-5.76a17.81 17.81 0 0 0 6.45-3.77c.43-.42.49-.8.3-1-.19-.2-.61-.16-1.05.12-4.88 3.31-8.16 4.07-11.14 1-3.44-3.6-2.43-7.77 2-12 2.24-2.13 5.1-4.26 7.95-5z" class="cls-3" style="fill:#fff"/><path id="path228" d="M80.738 122.84c-31.6-.86-39.18 13.35-39.64 26.22-21.51 19.58-29.18 48.48-29.18 48.48a19.65 19.65 0 0 1 11.89-5c-14 33.94-11.76 70.21-11.76 70.21a11.16 11.16 0 0 1 10.35-6.67c-.25 29.05 7.89 54 21.07 66.93 18.32-11.5 33.4-40.69 37.22-76.14 1.78-16.59.3-33.57-2.35-50.38-1-6.2-2.12-12.38-3.31-18.51-.31-1.63-1-5-2-8.63 20.88-18.22 45.65-45.48 7.71-46.51z" style="fill:#828282"/><path id="path230" d="M43.468 327.35a4.37 4.37 0 0 1-3.06-1.25c-13.33-13.06-21.51-36.81-22.31-64.28a7.19 7.19 0 0 0-2.1 2.75 4.36 4.36 0 0 1-8.3-1.59c-.09-1.39-1.8-31.94 8.89-63.6a11.46 11.46 0 0 0-1.67 1.33 4.36 4.36 0 0 1-7.21-4.29c.32-1.21 7.94-29.22 29.14-49.37.68-8.13 3.89-14.71 9.55-19.56 7.47-6.4 19.06-9.43 34.45-9 13.23.36 20.84 3.81 23.26 10.56 2.12 5.91-.33 13.27-7.5 22.49a150.92 150.92 0 0 1-18.69 19.27c.7 2.73 1.15 5.05 1.4 6.32 1.41 7.27 2.47 13.21 3.33 18.67 3.21 20.37 4 36.74 2.37 51.51-3.78 35.69-19.23 66.81-39.24 79.37a4.3 4.3 0 0 1-2.31.67zm-21.07-75.66a4.37 4.37 0 0 1 4.36 4.4c-.22 25.35 6.36 48.32 17.32 61.17 7.31-5.53 14-14.2 19.53-25.31 6.55-13.18 10.95-28.94 12.74-45.58 1.51-14 .77-29.63-2.32-49.23-.84-5.35-1.89-11.19-3.28-18.36-.3-1.54-.92-4.75-1.94-8.24a4.36 4.36 0 0 1 1.32-4.51c27.55-24 26.3-32.56 25.77-34-1-2.81-6.58-4.56-15.28-4.79-13.16-.36-22.77 2-28.54 6.91-4.16 3.57-6.39 8.65-6.62 15.1a4.33 4.33 0 0 1-1.42 3.07c-12.68 11.54-20.39 26.69-24.4 36.48a28.08 28.08 0 0 1 3.78-.59 4.36 4.36 0 0 1 4.42 6c-9.19 22.31-11.16 45.93-11.49 58.71a16.57 16.57 0 0 1 6-1.19z"/><path id="path232" d="M23.378 274.22c2.52 21.1 9.75 38.64 20.09 48.76a55 55 0 0 0 12.77-11.44v0l5.45 8.58 10.89-37.9c-18.18-11.22-37.92-10.07-49.2-8z" style="fill-rule:evenodd;stroke:#000;stroke-width:8.72000027px;stroke-linecap:round;stroke-linejoin:round"/><path id="path234" d="M81.458 230.77a228.88 228.88 0 0 0-3.12-34.31c-.26-1.61-.52-3.22-.8-4.83a266.09 266.09 0 0 0-61.45-5.73 99.76 99.76 0 0 0-4.17 11.64 19.65 19.65 0 0 1 11.89-5 152.08 152.08 0 0 0-8.57 29.26c18.47-1.8 49-2.56 66.22 8.97z" class="cls-8" style="stroke:#000;stroke-width:8.72000027px;stroke-linecap:round;stroke-linejoin:round"/><path id="path236" d="M88.048 154.87c14.22-15.5 21.36-31.26-7.31-32-24.27-.66-34.37 7.57-38 17.25 12.5.23 30.09 3.08 45.31 14.75z" class="cls-8" style="stroke:#000;stroke-width:8.72000027px;stroke-linecap:round;stroke-linejoin:round"/><path id="path244" d="m161.968 184.36 6.18 113c0 4.25 19 7.7 42.55 7.7 23.55 0 42.56-3.45 42.56-7.7l6.18-113z" style="fill:#c6c6c6;fill-rule:evenodd;stroke:#000;stroke-width:5.78999996px;stroke-linecap:round;stroke-linejoin:round"/><path id="path246" d="m161.968 180.5 6.18 113c0 4.26 19 7.7 42.55 7.7 23.55 0 42.56-3.44 42.56-7.7l6.18-113z" class="cls-11" style="fill:#a0a0a0;fill-rule:evenodd;stroke:#000;stroke-width:5.78999996px;stroke-linecap:round;stroke-linejoin:round"/><rect id="rect248" width="9.68" height="89.38" x="195.668" y="193.58" class="cls-12" rx="3.92" style="fill:#595959;stroke:#000;stroke-width:5.13000011px;stroke-linecap:round;stroke-linejoin:round"/><rect id="rect250" width="9.68" height="89.38" x="215.128" y="193.58" class="cls-12" rx="3.92" style="fill:#595959;stroke:#000;stroke-width:5.13000011px;stroke-linecap:round;stroke-linejoin:round"/><rect id="rect252" width="9.23" height="85.24" x="176.218" y="193.58" class="cls-12" rx="3.73" style="fill:#595959;stroke:#000;stroke-width:5.13000011px;stroke-linecap:round;stroke-linejoin:round"/><rect id="rect254" width="9.23" height="85.24" x="234.578" y="193.58" class="cls-12" rx="3.73" style="fill:#595959;stroke:#000;stroke-width:5.13000011px;stroke-linecap:round;stroke-linejoin:round"/><path id="path256" d="M224.788 132.13h-26.37a8.72 8.72 0 0 0-8.69 8.7v7.85a8.72 8.72 0 0 0 8.69 8.7h4.82v-14.16h16.65v14.16h4.86a8.73 8.73 0 0 0 8.7-8.7v-7.85a8.73 8.73 0 0 0-8.66-8.7z" class="cls-11" style="fill:#a0a0a0;fill-rule:evenodd;stroke:#000;stroke-width:5.78999996px;stroke-linecap:round;stroke-linejoin:round"/><path id="path258" d="M144.158 201.21v19.22a9.07 9.07 0 0 0 9 9h13.22a9.07 9.07 0 0 0 9-9v-7h-19.69v-11.07h7.31v-1.15c0-5-1.34-9-6.32-9h-3.44a9.07 9.07 0 0 0-9.08 9z" class="cls-11" style="fill:#a0a0a0;fill-rule:evenodd;stroke:#000;stroke-width:5.78999996px;stroke-linecap:round;stroke-linejoin:round"/><rect id="rect260" width="106.85" height="12.35" x="157.938" y="180.97" class="cls-13" rx="4.25" style="fill:#a0a0a0;stroke:#000;stroke-width:5.78999996px;stroke-linecap:round;stroke-linejoin:round"/><rect id="rect262" width="5.15" height="5.15" x="163.558" y="218.81" rx="2.58"/><path id="path264" d="M277.078 201.21v19.22a9.07 9.07 0 0 1-9 9h-13.26a9.07 9.07 0 0 1-9-9v-7h19.77v-11.07h-7.35v-1.15c0-5 1.34-9 6.32-9h3.48a9.07 9.07 0 0 1 9.04 9z" class="cls-11" style="fill:#a0a0a0;fill-rule:evenodd;stroke:#000;stroke-width:5.78999996px;stroke-linecap:round;stroke-linejoin:round"/><rect id="rect266" width="5.15" height="5.15" x="-257.678" y="-223.97" rx="2.58" transform="scale(-1)"/><path id="line268" d="M203.278 143.22h-5.59" class="cls-14" style="fill:#c6c6c6;stroke:#000;stroke-width:5.19999981px;stroke-linecap:round;stroke-linejoin:round"/><path id="line270" d="M219.928 143.22h5.33" class="cls-14" style="fill:#c6c6c6;stroke:#000;stroke-width:5.19999981px;stroke-linecap:round;stroke-linejoin:round"/><ellipse id="ellipse272" cx="-126.278" cy="221.296" class="cls-15" rx="5.34" ry="9.9" style="fill:#f4ba14;stroke:#000;stroke-width:3.75999999px;stroke-linecap:round;stroke-linejoin:round" transform="rotate(-76.8)"/><ellipse id="ellipse274" cx="188.866" cy="225.186" class="cls-15" rx="9.9" ry="5.34" style="fill:#f4ba14;stroke:#000;stroke-width:3.75999999px;stroke-linecap:round;stroke-linejoin:round" transform="rotate(-13.83)"/><path id="path276" d="M265.808 148.83h-11.85a4.5 4.5 0 0 0-4.49 4.5v.07h-75.46v-.07a4.5 4.5 0 0 0-4.49-4.5h-11.85a4.5 4.5 0 0 0-4.49 4.5v9a4.51 4.51 0 0 0 4.49 4.5h108.14a4.51 4.51 0 0 0 4.49-4.5v-9a4.5 4.5 0 0 0-4.49-4.5z" class="cls-13" style="fill:#a0a0a0;stroke:#000;stroke-width:5.78999996px;stroke-linecap:round;stroke-linejoin:round"/><path id="path284" d="M169.148 331.1s43.19-22.07 84 0" style="fill:none;stroke:#000;stroke-width:7.51000023px;stroke-linecap:round;stroke-linejoin:round"/><path id="path286" d="M178.978 315.62s-4.22 8.62 6.47 5.67l-10.6 4.91-3.49-9.61"/><path id="path288" d="M244.618 315.62s4.22 8.62-6.46 5.67l10.59 4.91 3.5-9.61"/><path id="path290" d="M209.548 111.31a86.71 86.71 0 0 1 24.41 3.5l4.47-114-29.07-.81-27.55.76 4.43 113.75a86 86 0 0 1 23.31-3.2z" class="cls-4" style="fill:#871324"/><ellipse id="ellipse292" cx="210.588" cy="67.01" class="cls-3" rx="15.87" ry="2.97" style="fill:#fff"/><ellipse id="ellipse294" cx="210.588" cy="57.57" class="cls-3" rx="19.95" ry="3.73" style="fill:#fff"/><ellipse id="ellipse296" cx="210.588" cy="74.51" class="cls-3" rx="9.56" ry="1.79" style="fill:#fff"/><ellipse id="ellipse298" cx="210.588" cy="49.38" class="cls-3" rx="9.56" ry="1.79" style="fill:#fff"/><ellipse id="ellipse300" cx="210.588" cy="33.17" class="cls-3" rx="4.07" ry="1.29" style="fill:#fff"/><path id="polygon302" d="M494.96 222.68h4.77l-2.04-39.32h-.68z" class="cls-3" style="fill:#fff" transform="translate(-286.762 -174)"/><path id="polygon304" d="m488.9 296.04 5.56-41.55v41.55z" class="cls-3" style="fill:#fff" transform="translate(-286.762 -174)"/><path id="polygon306" d="m508.18 296.04-5.56-41.55v41.55z" class="cls-3" style="fill:#fff" transform="translate(-286.762 -174)"/><path id="path1880" d="m253.44 341.258-2.762 1.097.496.33a49.113 49.113 0 0 1 2.265-1.427z" style="fill:#000;fill-opacity:1"/><path id="path1882" d="m247.807 340.438-5.97 3.378c1.052-.276 2.103-.55 3.151-.836.14-.037.275-.131.418-.115.058.007-.005.193.047.168.195-.094.327-.283.49-.426.428-.36.967-.854 1.444-1.177.017-.012-.01.04-.014.06l.223-.156a4.66 4.66 0 0 0 .31-.453c-.033-.148-.065-.296-.1-.444z" style="fill:#000;fill-opacity:1"/><path id="path1884" d="m243.963 338.725-10.713 5.98.5.682c.208-.016.415-.028.623-.043.595-.11 1.19-.22 1.785-.32 1.343-.23 1.866-.257 3.278-.565.419-.092.827-.222 1.242-.334 1.374-.365 2.752-.723 4.125-1.096-.273-1.062-.418-1.843-.647-2.976l-.193-1.328z" style="fill:#000;fill-opacity:1"/><path id="path1886" d="m230.924 337.78-2.285 1.314.654-.022c.608.036 1.21-.047 1.81-.12-.068-.39-.127-.78-.18-1.173zm.672 3.22.506 4.486.437-.017c.151-.006.302-.022.453-.031a50.198 50.198 0 0 1-.717-2.075 47.11 47.11 0 0 1-.68-2.363z" style="fill:#000;fill-opacity:1"/><path id="path1888" d="m222.775 338.705-4.964 2.754c.23-.027.461-.05.689-.094.312-.06 1.16-.322 1.496-.42.907-.262 1.813-.508 2.711-.8l.14-.051a49.511 49.511 0 0 1-.072-1.389z" style="fill:#000;fill-opacity:1"/><path id="path1892" d="m211.064 338.455-10.712 5.248c.304 1.645.19.955.412 2.668.13-.05.225-.089.502-.176 1.579-.496 3.176-.845 4.789-1.203 1.086-.184 2.127-.547 3.16-.924.14-.575.305-1.193.517-2.037.861-2.538.409-1.35 1.332-3.576z" style="fill:#000;fill-opacity:1"/><path id="path1894" d="m204.268 336.934-12.344 6.41c.316.645.152.295.484 1.052.427.989.858 1.977 1.24 2.983.076.198.145.397.217.596 1.242-.242 2.485-.485 3.727-.729.46-.089.925-.151 1.379-.267 2.18-.56.638-.263 2.295-.784a35.78 35.78 0 0 1 2.289-.63 47.238 47.238 0 0 1 .164-4.977c.088-.998.143-1.31.275-2.254.172-.995.077-.53.274-1.4z" style="fill:#000;fill-opacity:1"/><path id="path1896" d="m201.055 340.805-11.522 5.795c.073.28.155.559.219.841.119.524.187.89.248 1.264 2.534-.47 5.063-.963 7.592-1.459.46-.089.925-.151 1.379-.267.44-.114.652-.174.845-.23.074-.524.16-1.053.282-1.85.268-1.432.28-1.648.634-2.993.098-.37.216-.734.323-1.101z" style="fill:#000;fill-opacity:1"/><circle id="path1904" cx="204.492" cy="328.31" r=".113" style="fill:#000;stroke:#000"/><circle id="path1906" cx="204.492" cy="328.31" r=".113" style="fill:#000;stroke:#000"/><path id="path1908" d="M215.166 328.602c-.567.033-.854.948-1.475.859-1.597.776-3.367 1.644-5.197 1.533-.17-.01-.333-.066-.5-.1l-12.209 8.46c2.31.295 4.563-.292 6.72-1.061.782-.317.627-.245 1.315-.557.248-.112.475-.29.742-.341.772-.147 1.934.201 2.686.394a25.19 25.19 0 0 0 3.272.873c.936.21 1.883.359 2.828.527.207.029.38.027.562.145.584.378.764 1.517.91 2.117.057.25.108.5.159.75.209-.083.412-.19.628-.252.591-.168 1.194-.29 1.791-.435.368-.05.738-.079 1.102-.149.312-.06 1.16-.322 1.496-.42.907-.262 1.813-.508 2.711-.8.133-.048.264-.103.398-.143.732-.219.788-.227 1.495-.336.075-.012.152-.02.228-.03.54-.16 1.078-.335 1.631-.443.322-.062.656-.009.984-.021.372-.014.41-.026.487-.04a406.734 406.734 0 0 0-.448-4.46c-.263-1.508-.51-3.168-2.013-3.932-.953-.204-1.931-.29-2.889-.474-1.155-.255-2.329-.41-3.484-.668-.97-.218-1.94-.43-2.899-.692-.345-.094-.673-.325-1.031-.304zm9.512 11.08-.084.015c-.054.02-.218.074-.162.059.082-.022.164-.05.246-.074zm-16.28 4.453-1.134.578c.377-.105.748-.227 1.119-.354.006-.075.009-.15.015-.224z" style="fill:#000;fill-opacity:1"/><path id="path1910" d="m193.988 347.645-1.398.576.978-.188c.14-.129.278-.262.42-.388z" style="fill:#000;fill-opacity:1"/><path id="path1912" d="M173.775 330.121c2.472 2.274 5.56 3.486 8.69 4.55 5.038 1.47 10.27 2.09 15.434 2.964 4.346.738 8.697 1.444 13.056 2.097 2.692.423 5.4.677 8.123.76 2.805-.068 5.61-.213 8.412-.372 2.949-.14 5.856-.669 8.72-1.361 1.094-.31 2.207-.558 3.274-.959.42-.158 1.273-.533 1.68-.766 4.45-2.54 8.883-5.11 13.324-7.665.095-.14.246-.254.287-.418.173-.696-.503-1.495-1.042-1.826-.263-.162-.817-.204-1.091-.242-3.106.38-6.176-.289-9.218-.842-3.571-.692-7.124-1.527-10.744-1.924l-.9-.065-12.02 8.692.924-.023c3.695.054 7.323.783 10.926 1.563.867.178 3.357.69 4.27.876 1.531.312 3.117.76 4.69.555.14-.04.277-.09.418-.12.103-.022.238.038.313-.034.267-.26-.333-1.327-.727-.836 4.056-2.328 8.115-4.65 12.168-6.984.257-.148-.522.282-.78.428-.72.404-1.031.63-1.811.941-.698.278-1.563.49-2.28.685-2.778.868-5.654 1.442-8.563 1.61-2.752.236-5.517.268-8.273.442-2.754-.04-5.508-.143-8.245-.472-4.408-.536-8.77-1.358-13.169-1.967-5.086-.817-10.238-1.425-15.202-2.841-2.85-.955-5.813-1.975-7.895-4.258l-12.75 7.812z" style="fill:#000;fill-opacity:1"/><path id="path30311" d="M223.817 319.49a31.797 17.36 0 0 1-31.653 17.36 31.797 17.36 0 0 1-31.94-17.203 31.797 17.36 0 0 1 31.365-17.515 31.797 17.36 0 0 1 32.223 17.044l-31.792.314z" style="fill:#000;fill-opacity:1"/></svg>