<svg xmlns="http://www.w3.org/2000/svg" id="Layer_1" width="297.45" height="347.89" data-name="Layer 1" version="1.1"><defs id="defs7"><clipPath id="clip-path"><ellipse id="ellipse4" cx="498.65" cy="366.22" rx="111.17" ry="136.39" style="fill:none"/></clipPath><clipPath id="clipPath7807" clipPathUnits="userSpaceOnUse"><path id="path7809" d="M189.52 153.71v136.01h106.16V153.71Zm57.459 58.25 5.353 1.704c-.07.207-.128.418-.207.621-.335.86-.745 1.688-1.178 2.504 1.012.196 2.009.426 2.907.908.21.113.018.72-.198 1.283.153.053.306.106.46.155l-.561.097c-.084.205-.191.488-.221.56-.208.435-.402.876-.623 1.304-.01.018-.058.098-.072.125.247.07.495.14.742.215.04.012-.08.036-.106.07-.213.279-.413.568-.605.861-1.083 1.652-.928 1.451-1.842 3.16-.457.83-1.63 3.01-2.236 3.953a39.545 39.545 0 0 1-1.537 2.254c-.192.258-.447.46-.662.698-.298.328-.6.655-.877 1-.2.247-.37.516-.555.775-.233.34-.473.674-.697 1.02-.147.226-.274.465-.414.695-.656 1.077-1.33 2.157-2.204 3.076l-.513-.455c-.109.101-.22.2-.338.295l-.027-.03-.106.085-.135.101-.04.031h-.003l-.07.06-.025.024-.022.028c-.03.04-.022.032-.047.064l-.033-.025c-.04.028-.066.045-.11.08l-.027.025-.056.049-.094-.11a.074.074 0 0 1-.02.016l-3.332-4.283-.101-.059.023-.04-.039-.051c.036-.029.074-.055.112-.082.363-.64.715-1.293 1.046-1.953.04-.093.114-.256.495-1.14.14-.347.296-.687.468-1.019.41-.97.82-1.94 1.223-2.91l.268-.648.45-1.635c.387-1.357.568-2.722 1.538-3.846l.224.168c.253-.6.502-1.203.758-1.802.235-.549.455-1.105.71-1.645.329-.7.692-1.383 1.038-2.074.75-1.348.655-1.152 1.389-2.582.275-.536.577-1.086.728-1.674zm3.492 5.702-.096.174c.183.05.366.104.547.162zm2.29 1.711-.327.057c.25.084.451.144.728.242z" style="fill:red;fill-opacity:1;fill-rule:nonzero;stroke:none"/></clipPath><style id="style2">.cls-17,.cls-20,.cls-25{fill:none}.cls-12,.cls-26,.cls-4{fill:#fff}.cls-24{fill:#efac14}.cls-29{stroke:#cc761f}.cls-12,.cls-13,.cls-14,.cls-15,.cls-17,.cls-19,.cls-20,.cls-25,.cls-26,.cls-27,.cls-29{stroke-miterlimit:10}.cls-29{stroke-width:5.98px}.cls-12,.cls-13,.cls-14,.cls-15,.cls-17,.cls-19,.cls-20,.cls-26,.cls-27{stroke:#594330}.cls-12,.cls-13,.cls-14,.cls-15,.cls-17,.cls-19,.cls-20,.cls-25,.cls-26,.cls-27{stroke-width:3.59px}.cls-13,.cls-21,.cls-27{fill:#594330}.cls-13,.cls-20,.cls-26{opacity:.3}.cls-14{fill:#99927f}.cls-15{fill:#b29e6d}.cls-19{fill:#d3b19b}.cls-23{fill:#9c4732}.cls-25{stroke:#8c705d}.cls-29{fill:#ed9b2f}.cls-38{fill:#cc761f}</style></defs><rect id="rect193" width="336.61" height="286.17" x="-342.25" y="5.64" rx="5.64" ry="5.64" style="fill:#efac14;stroke:#cc761f;stroke-width:11.28px;stroke-miterlimit:10" transform="rotate(-90)"/><path id="rect195" d="M21.6 21.6h254.26v304.69H21.6z" style="fill:#ea9e42;stroke:#cc761f;stroke-width:5.98px;stroke-miterlimit:10"/><ellipse id="ellipse197" cx="148.73" cy="173.95" rx="127.13" ry="152.35" style="fill:#f9b973;stroke:#cc761f;stroke-width:5.98px;stroke-miterlimit:10"/><ellipse id="ellipse199" cx="148.73" cy="173.95" rx="111.17" ry="136.39" style="fill:#5da3c1"/><path id="path201" d="M148.73 310.34c38.73 0 72.89-24.43 92.8-61.38H55.93c19.91 36.95 54.07 61.38 92.8 61.38z" style="fill:#f9b973"/><path id="path203" d="M38.08 161.41h221.4c-5.18-69.35-52.85-123.85-110.7-123.85S43.21 92.06 38.08 161.41z" style="fill:#8bbfd1"/><g id="g335" clip-path="url(#clip-path)" style="clip-path:url(#clip-path)" transform="translate(-349.92 -192.27)"><path id="path205" d="M549.81 342.45a43.13 43.13 0 0 0-2.55-9.32l.23-.23-2.33-4.2-.51-.89c-.27-.45-.53-.88-.8-1.3l-.1-.15v-.06a8.16 8.16 0 0 0 2.17-4.95c.5-4.7-2-11.55-8.49-15.53a16.83 16.83 0 0 0 3.58-9.64c0-.23-1.26-21.1-11-28.16-1.45-5.09-4.93-14.56-11.63-19-1.5-1-2.91-2.14-4.4-3.33-4.86-3.9-10.31-8.31-19.56-8.1-10.63.26-25.67 8-30.52 14.13-.44.56-.92 1.14-1.41 1.75-3.69 4.5-8.74 10.67-8.74 18.19 0 .46-1.51 1.92-2.23 2.63-2 2-5.29 5.11-5 9.75-.24.3-.53.64-.77.93-2.1 2.47-6.1 7.17-4.88 14l-.07.09-.13.18c-.14.19-.28.38-.39.55l-.25.36c-.13.2-.27.4-.35.54l-.26.4-.43.71-.24.43-.36.66-.13.25a34.41 34.41 0 0 0-1.48 3.3l-.13.34-.27.77-1.91 5.88.43.21c-1 6.85-.46 16.08 4.53 27.63-4.85 1.8-9.44 3.63-13.68 5.47-12.58 5.46-18.1 9.24-18.33 9.4l-.79.54-21.06 26.81-5.86 32.51 9.62 11.19 2.32 22.32 10.85-14.85 31.16-19 22.93 45.85-20.74 42.16 76.11 6 24.52-3.8 18-14.69-18.43-57.28-2.2-25.51 4.84-15.94c3.94-9.52 6.81-15.13 9.51-22.57l8.87-8.56 6.38-15.38z" class="cls-4" style="fill:#fff"/><path id="polygon207" d="m429.13 430.1 13.33 30.85-21.69 41.49 37.83 3 15.56-68.94-23.86-46.48-63.21 15.66 4.56 43.8 17.23-7z" class="cls-4" style="fill:#fff"/><path id="path209" d="m463.18 348.19-7.65 10.21 1.35 1 7.88-10c-.54-.4-1.07-.83-1.58-1.21z" class="cls-4" style="fill:#fff"/><path id="path211" d="m468.12 352.16-8.31 9.69 1.61 1.41 8.52-9.5z" class="cls-4" style="fill:#fff"/><path id="path213" d="m460.35 346.15-1.48-1-.35-.21-6.63 10.89 1.21.8.11.08 7.23-10.52z" class="cls-4" style="fill:#fff"/><path id="path215" d="M461.1 346.68h-.05l-7.33 10.45 1.13.81 7.53-10.3z" class="cls-4" style="fill:#fff"/><path id="path217" d="m465.31 349.83-8 10c.62.49 1.26 1 1.92 1.58l8.23-9.75c-.71-.66-1.46-1.26-2.15-1.83Z" class="cls-4" style="fill:#fff"/><path id="path219" d="M550.69 360.19c-2.72 7.36-7.62 19.35-11.33 28.32l-7 16.78-.67 25.52 15 50.22-15.59 12.75-19.61 3-70.49-5.54 15.57-29.77L435 411.54l-31.9 19.51-.53.22-1-9.4-8.28-9.63 4.15-23.43 17.82-22.69a128 128 0 0 1 15.42-7.72c4.58-2 9.6-4 15-5.91.34.14.74.31 1.2.53l.6-1.18.25-.09-.08-.23 2.37-4.6 5-2.93c-9.09-15.6-8.73-26-6.83-31.92l.17-.5.11-.34.1-.25a19.4 19.4 0 0 1 .9-2l.68-1.2 1.56-2.11-4.71-4.24 4.87 4.13-4.61-4.42 4.71 4.31.2-.2 3.58-3.14-2-4.32c-.67-1.44-.79-1.7 1.66-4.58 1.67-2 4.11-4.83 3.93-8.76.32-.33.72-.72 1-1 2.29-2.21 6.12-5.92 6.12-11.79 0-3 3.24-6.92 5.85-10.11.55-.66 1.07-1.31 1.56-1.92 2.27-2.87 13.57-9.11 20.81-9.28 4.35-.11 6.84 1.74 11.27 5.29 1.63 1.32 3.33 2.68 5.3 4 3.11 2.08 6 9.62 7 14.06l.8 3.71 3.5 1c2.2 1.53 4.91 10.54 5.55 15.78l-5.26 4.52.66 3.63 4.26-.76.12.13-4.36.79.09.46a27.06 27.06 0 0 1-.46 5.42l-1 6.06 3.17.67-.38 4.13-.5 6.17 3.3 2.09.57.41.41.34.84.75c.19.18.39.37.59.58l.3.32.5.55.39.45c.18.21.35.43.54.67l.32.42c.24.32.47.65.69 1l.28.44c.19.28.37.58.54.86l.35.62a30.29 30.29 0 0 1 3.58 13l.27 4.65 12.85 3.3z" class="cls-4" style="fill:#fff"/><path id="path221" d="m500.81 390.12 2.16 1.11 5.77-11.38-2.05-1.06z" class="cls-4" style="fill:#fff"/><path id="path223" d="m502.45 376.55-6.08 11.22 2.54 1.36 6-11.28z" class="cls-4" style="fill:#fff"/><path id="path225" d="m497.64 373.87-.15-.09h-.13l-.43-.25-.16-.09-1.31-.76c-1.78-1-3.52-2.09-5.15-3.11l-2.38-1.57-6.93 10.7 2.5 1.6.17.1.11.07.18.11c1.58 1 3.23 2 4.93 3l2.53 1.45 6.39-11.03z" class="cls-4" style="fill:#fff"/><path id="path227" d="M473.14 356.72c-.86-.82-1.69-1.59-2.5-2.33l-8.59 9.44c.73.67 1.48 1.36 2.25 2.09a102.78 102.78 0 0 0 12.9 10.26l7.22-10.52a90.24 90.24 0 0 1-11.28-8.94z" class="cls-4" style="fill:#fff"/><path id="path229" d="M531 322.05s11.88 7.21 12.93 25.48L526.54 354l-12.66-16 5.47-10.65" class="cls-12" style="fill:#fff;stroke:#594330;stroke-width:3.59px;stroke-miterlimit:10"/><path id="path231" d="m531 322.05-9.48 4.31 5.12 15.56s7.17.11 12.93-10.13a27.48 27.48 0 0 0-8.57-9.74Z" class="cls-13" style="opacity:.3;fill:#594330;stroke:#594330;stroke-width:3.59px;stroke-miterlimit:10"/><path id="path233" d="M445.59 345.74c-24.84 8.82-34.59 15.59-34.59 15.59l-19.48 24.79 5.64 54.26 8.88-3.61 26.08-15.95 17.45 40.39-18.63 35.63 80.83 6.4 22.06-3.42L554 483.28 538.08 430l.61-23.29s13.48-31.86 18.38-45.35V350.9L537 345.74s-7.63 31.41-25.29 42.65c0 0-28.51-13.18-43-27.07-14.49-13.89-23.12-15.58-23.12-15.58z" class="cls-14" style="fill:#99927f;stroke:#594330;stroke-width:3.59px;stroke-miterlimit:10"/><path id="path235" d="m406 436.77 36.48-22.31s13.46-15.94 3.19-35.06C435.4 360.28 411 361.33 411 361.33l-19.48 24.79-5 28z" class="cls-15" style="fill:#b29e6d;stroke:#594330;stroke-width:3.59px;stroke-miterlimit:10"/><path id="path237" d="M468.72 361.32c14.45 13.89 43 27.07 43 27.07 17.62-11.24 25.28-42.65 25.28-42.65l-10.32-3.82h-41.19c-14.41.77-30.09 8.6-30.09 8.6a91.13 91.13 0 0 1 13.32 10.8z" class="cls-14" style="fill:#99927f;stroke:#594330;stroke-width:3.59px;stroke-miterlimit:10"/><path id="path239" d="m537 345.74-10.32-3.82h-7.56l-14 10.63L515 386c15.3-12.81 22-40.26 22-40.26z" style="fill:#827a65;stroke:#594330;stroke-width:3.59px;stroke-miterlimit:10"/><path id="path241" d="M447.91 300.46s-17.19 14.47 1.61 46.74l5.88 3.32s15-7.15 24.85-7.06l-1.49-39.66" class="cls-12" style="fill:#fff;stroke:#594330;stroke-width:3.59px;stroke-miterlimit:10"/><path id="path243" d="M511.68 388.39s3.57 48.23 4.23 58.19c.66 9.96 10.63 52.94 10.63 52.94" class="cls-17" style="fill:none;stroke:#594330;stroke-width:3.59px;stroke-miterlimit:10"/><path id="path245" d="M447.91 300.46s-2.41 5.4 1.61 7.65c4.02 2.25 17.08 5.89 17.08 5.89s1.58 23.7 10.81 27.95c0 0 13.27 7.4 19.13 9 0 0 10.23.23 15.14 0s17.74-11.7 17.74-11.7l1.8-19.37s5.48 2.25 7.47 2.25c1.99 0 1.31-10.35-9.27-12.6 0 0 .9-5.18.45-7.66l.45 2.48s4.28-4.06 4.28-8.11-3.16-21.84-10.14-23.86c0 0-2.92-13.51-9.68-18s-11-10.58-20.26-10.35c-9.26.23-22.29 7.43-25.67 11.7-3.38 4.27-8.78 9.91-8.78 16s-8.1 8.33-7.2 12.61c.9 4.28-9.01 7.34-4.96 16.12z" style="fill:#6b594d;stroke:#594330;stroke-width:3.59px;stroke-miterlimit:10"/><path id="path247" d="M523.37 276.37s-2.26-16.53-12-19.49c0 0-4.18.87-6.09 2.61-1.91 1.74-12.18.52-16.53.7-4.35.18-9.58-.7-10.1 7.65-.52 8.35-3.53 19.84-4.38 26.28-.85 6.44 5.43 11.49 9.25 11.83 3.82.34 2.27 4.88 2.27 4.88s11.13 1 16 1c4.87 0 15-.7 19.66-2.61s6.93-15 4-25.95c-2.93-10.95-2.08-6.9-2.08-6.9z" class="cls-19" style="fill:#d3b19b;stroke:#594330;stroke-width:3.59px;stroke-miterlimit:10"/><path id="path249" d="M500.49 304s-4 2.84-.87 6.25 7.67-1.56 7.67-1.56A4.92 4.92 0 0 0 513 310c3.55-1.42.14-7-.86-11.8-1-4.8-2.41-7.67-1.42-10.23 0 0 5.18-5.82 15.24-2.62" class="cls-17" style="fill:none;stroke:#594330;stroke-width:3.59px;stroke-miterlimit:10"/><ellipse id="ellipse251" cx="493.13" cy="292.86" class="cls-17" rx="6" ry="3.19" style="fill:none;stroke:#594330;stroke-width:3.59px;stroke-miterlimit:10"/><ellipse id="ellipse253" cx="517.07" cy="292.86" class="cls-17" rx="6" ry="3.19" style="fill:none;stroke:#594330;stroke-width:3.59px;stroke-miterlimit:10"/><path id="path255" d="M482 287.89s4.4-5.84 10.45-3.51c6.05 2.33 7.72 4.08 9.74 1.48l1.49-1.49" class="cls-17" style="fill:none;stroke:#594330;stroke-width:3.59px;stroke-miterlimit:10"/><path id="path257" d="M488.63 276.31a71.5 71.5 0 0 1 15.37 1.55c6.72 1.68 6.1-1.22 13.31-1.55" class="cls-20" style="opacity:.3;fill:none;stroke:#594330;stroke-width:3.59px;stroke-miterlimit:10"/><path id="path259" d="M490.67 269.13a53 53 0 0 1 12.57 1.55c6.72 1.68 3.42-.93 10.64-1.27" class="cls-20" style="opacity:.3;fill:none;stroke:#594330;stroke-width:3.59px;stroke-miterlimit:10"/><path id="path261" d="M496.19 319.69s8.12 12.18 20.88-.54" class="cls-19" style="fill:#d3b19b;stroke:#594330;stroke-width:3.59px;stroke-miterlimit:10"/><path id="path263" d="M507.49 311.87v6.21a75.66 75.66 0 0 0 11.33 1.08c4.3-.12 12.4.26 12.4.26" class="cls-17" style="fill:none;stroke:#594330;stroke-width:3.59px;stroke-miterlimit:10"/><path id="path265" d="M485.79 310.83s-11.05-1.32-13.11 5.82c0 0 10.3 5.75 34.81 1.43" class="cls-17" style="fill:none;stroke:#594330;stroke-width:3.59px;stroke-miterlimit:10"/><circle id="circle267" cx="490.85" cy="292.96" r="2.36" class="cls-21" style="fill:#594330"/><circle id="circle269" cx="514.71" cy="292.86" r="2.36" class="cls-21" style="fill:#594330"/><path id="line271" d="m458.69 393.21 23.68 81.29" style="fill:none;stroke:#9c4732;stroke-width:3.59px;stroke-miterlimit:10"/><path id="path273" d="M517.39 499.23c-.09-.3-9-30.51-11.53-59.63-2.51-28.84-7.56-55.74-7.61-56l3.93 1.93c.05.26 4.73 24.75 7.25 53.77 2.5 28.75 11.31 58.62 11.4 58.92z" class="cls-23" style="fill:#9c4732"/><path id="path275" d="M546.73 348.24s4.38 23.17-.48 40.15" class="cls-15" style="fill:#b29e6d;stroke:#594330;stroke-width:3.59px;stroke-miterlimit:10"/><path id="path277" d="M515.56 500.77c-6.82-7.19-19-13.17-38.74-20.63-15.26-5.77-29.8-10.34-29.94-10.37l4.81-9a289.51 289.51 0 0 1 28.84 9.23c21.58 8.16 34.85 14.86 42.91 23.36l1.54 5.89z" class="cls-23" style="fill:#9c4732"/><circle id="circle279" cx="520.63" cy="394.66" r="3.37" class="cls-24" style="fill:#efac14"/><circle id="circle281" cx="521.27" cy="407.17" r="3.37" class="cls-24" style="fill:#efac14"/><circle id="circle283" cx="522.13" cy="420.32" r="3.37" class="cls-24" style="fill:#efac14"/><circle id="circle285" cx="523.04" cy="433.57" r="3.37" class="cls-24" style="fill:#efac14"/><circle id="circle287" cx="524" cy="448.38" r="3.37" class="cls-24" style="fill:#efac14"/><circle id="circle289" cx="527.1" cy="462.06" r="3.37" class="cls-24" style="fill:#efac14"/><circle id="circle291" cx="530.55" cy="476.59" r="3.37" class="cls-24" style="fill:#efac14"/><circle id="circle293" cx="534.88" cy="488.88" r="3.37" class="cls-24" style="fill:#efac14"/><path id="path295" d="M453.75 297.91s-2.18 5.2 1.65 4.95 7-4.26 8.71.86" class="cls-17" style="fill:none;stroke:#594330;stroke-width:3.59px;stroke-miterlimit:10"/><path id="path297" d="M458.69 294.19s11.39.11 8.11-4.52c-3.28-4.63-8.69-7.44-3.76-9.55" class="cls-17" style="fill:none;stroke:#594330;stroke-width:3.59px;stroke-miterlimit:10"/><path id="path299" d="M484.25 337.48s-.63-3.64 4.17-6.7 4.43-4.59 4.43-4.59" class="cls-25" style="fill:none;stroke:#8c705d;stroke-width:3.59px;stroke-miterlimit:10"/><path id="path301" d="M518.27 341.53s-2.5-2.71-.15-7.89 1.23-6.27 1.23-6.27" class="cls-25" style="fill:none;stroke:#8c705d;stroke-width:3.59px;stroke-miterlimit:10"/><path id="path303" d="M491.81 341.78s4 1.58 4.38-4.3c.38-5.88 3.08-7.47 5.57-7.93" class="cls-25" style="fill:none;stroke:#8c705d;stroke-width:3.59px;stroke-miterlimit:10"/><path id="path305" d="M508.55 343.81s-4.08-1.81-1.92-4.75 4.84-4.3 2.93-8.37" class="cls-25" style="fill:none;stroke:#8c705d;stroke-width:3.59px;stroke-miterlimit:10"/><path id="path307" d="M467.39 276.31s1.79.15 2.23-5.07c.44-5.22 2.4-10.24 6.1-12.42" class="cls-17" style="fill:none;stroke:#594330;stroke-width:3.59px;stroke-miterlimit:10"/><path id="path309" d="M497 255.41s1.34-4.4-2.93-3c-4.27 1.4-6.78 3.53-9 1.36 0 0-1.52-1.73 1.42-3.12" class="cls-25" style="fill:none;stroke:#8c705d;stroke-width:3.59px;stroke-miterlimit:10"/><path id="polygon311" d="m417.46 363.18 4.52 1.05-28.26 31.6-2.71-2.35z" class="cls-23" style="fill:#9c4732"/><path id="path313" d="M428.18 352.55s33.14 10 30.34 52c0 0-2.55 10.43-14 10.18" class="cls-17" style="fill:none;stroke:#594330;stroke-width:3.59px;stroke-miterlimit:10"/><path id="path315" d="m511.68 350.89 5.66 17.43s6.53-.78 16.88-23.25l2.75.67s-5.82 30.47-22 40.21l-9.87-33.4" class="cls-21" style="fill:#594330"/><path id="line317" d="m517.34 348.47 8.6 12.85" class="cls-15" style="fill:#b29e6d;stroke:#594330;stroke-width:3.59px;stroke-miterlimit:10"/><path id="line319" d="m522.48 345.74 9.54 5.92" class="cls-15" style="fill:#b29e6d;stroke:#594330;stroke-width:3.59px;stroke-miterlimit:10"/><path id="line321" d="m496.54 350.89.25 29.02" class="cls-26" style="opacity:.3;fill:#fff;stroke:#594330;stroke-width:3.59px;stroke-miterlimit:10"/><path id="line323" d="m487.13 346.98-6.88 21.34" class="cls-26" style="opacity:.3;fill:#fff;stroke:#594330;stroke-width:3.59px;stroke-miterlimit:10"/><path id="path325" d="M479.18 315.14c-1.71-4.27-3.56-8.4-5.19-11.85l-26.08-2.83a22 22 0 0 0-5.78 9.66c7.83 11.13 21.79 28.33 35.28 31.8a9.88 9.88 0 0 0 2.79.35z" class="cls-13" style="opacity:.3;fill:#594330;stroke:#594330;stroke-width:3.59px;stroke-miterlimit:10"/><path id="path327" d="M526.38 287.89s-.32 16.9-4.92 21.37c0 0 1.74 4.49 8 .21-.04 0 1.54-19.27-3.08-21.58z" class="cls-21" style="fill:#594330"/><path id="polyline329" d="m517.07 318.75 13.56 7.04.38-4.14" class="cls-27" style="fill:#594330;stroke:#594330;stroke-width:3.59px;stroke-miterlimit:10"/><path id="path331" d="M554 483.28 538.08 430l.61-23.29s3.83-9.06 8.15-19.56l-.59-3.46-11.94 19.26L532 430.2l15.33 58.52z" class="cls-27" style="fill:#594330;stroke:#594330;stroke-width:3.59px;stroke-miterlimit:10"/><path id="path333" d="M433.94 428.5s12.12-7.28 17.11-15c0 0-6.6.73-6.91-1.41l-4 3.77-8.09 4.95" class="cls-27" style="fill:#594330;stroke:#594330;stroke-width:3.59px;stroke-miterlimit:10"/></g><path id="line339" d="M5.64 5.65 21.6 21.6" class="cls-29" style="fill:#ed9b2f;stroke:#cc761f;stroke-width:5.98px;stroke-miterlimit:10"/><path id="line341" d="M291.82 5.65 275.86 21.6" class="cls-29" style="fill:#ed9b2f;stroke:#cc761f;stroke-width:5.98px;stroke-miterlimit:10"/><path id="line343" d="m5.64 342.25 15.96-15.96" class="cls-29" style="fill:#ed9b2f;stroke:#cc761f;stroke-width:5.98px;stroke-miterlimit:10"/><path id="line345" d="m291.82 342.25-15.96-15.96" class="cls-29" style="fill:#ed9b2f;stroke:#cc761f;stroke-width:5.98px;stroke-miterlimit:10"/><path id="line347" d="M40.35 21.6V5.65" class="cls-29" style="fill:#ed9b2f;stroke:#cc761f;stroke-width:5.98px;stroke-miterlimit:10"/><path id="line349" d="M64.29 21.6V5.65" class="cls-29" style="fill:#ed9b2f;stroke:#cc761f;stroke-width:5.98px;stroke-miterlimit:10"/><path id="line351" d="M88.22 21.6V5.65" class="cls-29" style="fill:#ed9b2f;stroke:#cc761f;stroke-width:5.98px;stroke-miterlimit:10"/><path id="line353" d="M112.16 21.6V5.65" class="cls-29" style="fill:#ed9b2f;stroke:#cc761f;stroke-width:5.98px;stroke-miterlimit:10"/><path id="line355" d="M136.09 21.6V5.65" class="cls-29" style="fill:#ed9b2f;stroke:#cc761f;stroke-width:5.98px;stroke-miterlimit:10"/><path id="line357" d="M160.03 21.6V5.65" class="cls-29" style="fill:#ed9b2f;stroke:#cc761f;stroke-width:5.98px;stroke-miterlimit:10"/><path id="line359" d="M160.03 21.6V5.65" class="cls-29" style="fill:#ed9b2f;stroke:#cc761f;stroke-width:5.98px;stroke-miterlimit:10"/><path id="line361" d="M183.96 21.6V5.65" class="cls-29" style="fill:#ed9b2f;stroke:#cc761f;stroke-width:5.98px;stroke-miterlimit:10"/><path id="line363" d="M207.9 21.6V5.65" class="cls-29" style="fill:#ed9b2f;stroke:#cc761f;stroke-width:5.98px;stroke-miterlimit:10"/><path id="line365" d="M231.84 21.6V5.65" class="cls-29" style="fill:#ed9b2f;stroke:#cc761f;stroke-width:5.98px;stroke-miterlimit:10"/><path id="line367" d="M255.77 21.6V5.65" class="cls-29" style="fill:#ed9b2f;stroke:#cc761f;stroke-width:5.98px;stroke-miterlimit:10"/><path id="line369" d="M257.11 326.29v15.96" class="cls-29" style="fill:#ed9b2f;stroke:#cc761f;stroke-width:5.98px;stroke-miterlimit:10"/><path id="line371" d="M233.17 326.29v15.96" class="cls-29" style="fill:#ed9b2f;stroke:#cc761f;stroke-width:5.98px;stroke-miterlimit:10"/><path id="line373" d="M209.24 326.29v15.96" class="cls-29" style="fill:#ed9b2f;stroke:#cc761f;stroke-width:5.98px;stroke-miterlimit:10"/><path id="line375" d="M185.3 326.29v15.96" class="cls-29" style="fill:#ed9b2f;stroke:#cc761f;stroke-width:5.98px;stroke-miterlimit:10"/><path id="line377" d="M161.37 326.29v15.96" class="cls-29" style="fill:#ed9b2f;stroke:#cc761f;stroke-width:5.98px;stroke-miterlimit:10"/><path id="line379" d="M137.43 326.29v15.96" class="cls-29" style="fill:#ed9b2f;stroke:#cc761f;stroke-width:5.98px;stroke-miterlimit:10"/><path id="line381" d="M137.43 326.29v15.96" class="cls-29" style="fill:#ed9b2f;stroke:#cc761f;stroke-width:5.98px;stroke-miterlimit:10"/><path id="line383" d="M113.49 326.29v15.96" class="cls-29" style="fill:#ed9b2f;stroke:#cc761f;stroke-width:5.98px;stroke-miterlimit:10"/><path id="line385" d="M89.56 326.29v15.96" class="cls-29" style="fill:#ed9b2f;stroke:#cc761f;stroke-width:5.98px;stroke-miterlimit:10"/><path id="line387" d="M65.62 326.29v15.96" class="cls-29" style="fill:#ed9b2f;stroke:#cc761f;stroke-width:5.98px;stroke-miterlimit:10"/><path id="line389" d="M41.69 326.29v15.96" class="cls-29" style="fill:#ed9b2f;stroke:#cc761f;stroke-width:5.98px;stroke-miterlimit:10"/><path id="line391" d="M275.86 89.6h15.96" class="cls-29" style="fill:#ed9b2f;stroke:#cc761f;stroke-width:5.98px;stroke-miterlimit:10"/><path id="line393" d="M275.86 113.54h15.96" class="cls-29" style="fill:#ed9b2f;stroke:#cc761f;stroke-width:5.98px;stroke-miterlimit:10"/><path id="line395" d="M275.86 41.73h15.96" class="cls-29" style="fill:#ed9b2f;stroke:#cc761f;stroke-width:5.98px;stroke-miterlimit:10"/><path id="line397" d="M275.86 65.67h15.96" class="cls-29" style="fill:#ed9b2f;stroke:#cc761f;stroke-width:5.98px;stroke-miterlimit:10"/><path id="line399" d="M275.86 137.48h15.96" class="cls-29" style="fill:#ed9b2f;stroke:#cc761f;stroke-width:5.98px;stroke-miterlimit:10"/><path id="line401" d="M275.86 161.41h15.96" class="cls-29" style="fill:#ed9b2f;stroke:#cc761f;stroke-width:5.98px;stroke-miterlimit:10"/><path id="line403" d="M275.86 185.35h15.96" class="cls-29" style="fill:#ed9b2f;stroke:#cc761f;stroke-width:5.98px;stroke-miterlimit:10"/><path id="line405" d="M275.86 209.28h15.96" class="cls-29" style="fill:#ed9b2f;stroke:#cc761f;stroke-width:5.98px;stroke-miterlimit:10"/><path id="line407" d="M275.86 209.28h15.96" class="cls-29" style="fill:#ed9b2f;stroke:#cc761f;stroke-width:5.98px;stroke-miterlimit:10"/><path id="line409" d="M275.86 233.22h15.96" class="cls-29" style="fill:#ed9b2f;stroke:#cc761f;stroke-width:5.98px;stroke-miterlimit:10"/><path id="line411" d="M275.86 257.15h15.96" class="cls-29" style="fill:#ed9b2f;stroke:#cc761f;stroke-width:5.98px;stroke-miterlimit:10"/><path id="line413" d="M275.86 281.09h15.96" class="cls-29" style="fill:#ed9b2f;stroke:#cc761f;stroke-width:5.98px;stroke-miterlimit:10"/><path id="line415" d="M275.86 305.03h15.96" class="cls-29" style="fill:#ed9b2f;stroke:#cc761f;stroke-width:5.98px;stroke-miterlimit:10"/><path id="line417" d="M21.6 258.29H5.64" class="cls-29" style="fill:#ed9b2f;stroke:#cc761f;stroke-width:5.98px;stroke-miterlimit:10"/><path id="line419" d="M21.6 234.36H5.64" class="cls-29" style="fill:#ed9b2f;stroke:#cc761f;stroke-width:5.98px;stroke-miterlimit:10"/><path id="line421" d="M21.6 306.17H5.64" class="cls-29" style="fill:#ed9b2f;stroke:#cc761f;stroke-width:5.98px;stroke-miterlimit:10"/><path id="line423" d="M21.6 282.23H5.64" class="cls-29" style="fill:#ed9b2f;stroke:#cc761f;stroke-width:5.98px;stroke-miterlimit:10"/><path id="line425" d="M21.6 210.42H5.64" class="cls-29" style="fill:#ed9b2f;stroke:#cc761f;stroke-width:5.98px;stroke-miterlimit:10"/><path id="line427" d="M21.6 186.49H5.64" class="cls-29" style="fill:#ed9b2f;stroke:#cc761f;stroke-width:5.98px;stroke-miterlimit:10"/><path id="line429" d="M21.6 162.55H5.64" class="cls-29" style="fill:#ed9b2f;stroke:#cc761f;stroke-width:5.98px;stroke-miterlimit:10"/><path id="line431" d="M21.6 138.62H5.64" class="cls-29" style="fill:#ed9b2f;stroke:#cc761f;stroke-width:5.98px;stroke-miterlimit:10"/><path id="line433" d="M21.6 138.62H5.64" class="cls-29" style="fill:#ed9b2f;stroke:#cc761f;stroke-width:5.98px;stroke-miterlimit:10"/><path id="line435" d="M21.6 114.68H5.64" class="cls-29" style="fill:#ed9b2f;stroke:#cc761f;stroke-width:5.98px;stroke-miterlimit:10"/><path id="line437" d="M21.6 90.74H5.64" class="cls-29" style="fill:#ed9b2f;stroke:#cc761f;stroke-width:5.98px;stroke-miterlimit:10"/><path id="line439" d="M21.6 66.81H5.64" class="cls-29" style="fill:#ed9b2f;stroke:#cc761f;stroke-width:5.98px;stroke-miterlimit:10"/><path id="line441" d="M21.6 42.87H5.64" class="cls-29" style="fill:#ed9b2f;stroke:#cc761f;stroke-width:5.98px;stroke-miterlimit:10"/><path id="path443" d="m213.54 153.71-5.46 12.6-18.56 66.91 1.18 6.61 6.22 20.9 13.88 28.17 2.108.82c.44-.89.952-1.744 1.516-2.56l.039-.055-.137-.107c.562-.75 1.137-1.483 1.776-2.15a15.353 15.353 0 0 1 1.918-2.368c.03-.03.899-.817 1.04-.945.082-.075.158-.156.245-.224a33.3 33.3 0 0 1 .562-.438c.136-.19.407-.508.608-.76.152-.17.31-.333.457-.508.008-.009-.017.004-.034.012-.023.023-.044.048-.068.07-.021.021.04-.044.059-.066.003 0 .005-.002.01-.004.573-.565 1.072-1.221 1.736-1.674.593-.404 1.321-.557 1.982-.836l.01.04c.247-.185.465-.347 1.03-.72.596-.392 1.06-.467 1.508-.937 1.19-.958 2.261-2.028 3.32-3.125.173-.18.361-.345.52-.539.211-.259.337-.581.542-.846.344-.442.695-.88 1.065-1.3.311-.355.653-.682.972-1.03.035-.09.098-.228.131-.295.204-.403.421-.799.631-1.199.562-.914 1.279-1.717 1.955-2.545.13-.159.245-.33.389-.476.41-.417.85-.806 1.273-1.21.088-.062.175-.127.264-.189.31-.332.613-.67.941-.982.078-.11.16-.218.235-.33.372-.555.367-.548.853-1.203l.106-.14a.919.919 0 0 1 .086-.17c.377-.919.574-1.255 1.011-1.677.167-.46.353-.91.606-1.336.196-.33.425-.64.64-.957-.143.058.702-1.412.811-1.597.36-.613.476-.773.53-.828a.617.617 0 0 1 .15-.223c.02-.018-.021.05-.031.074-.17.362-.029.054-.12.149a1.7 1.7 0 0 0-.095.334 23.408 23.408 0 0 0-.276 1.826c-.011.095-.008.378.024.287.465-1.351.884-2.718 1.312-4.082l.004-.074c-.476.922-.532 1.358-.146-.309.205-.55.259-.705.293-.797.009-.145.016-.29.027-.435.075-.27.162-.535.225-.807-.063.212-.124.424-.186.637-.006.01-.019.038-.018.027.113-.898.134-1.162.178-1.385-.08-1.194.273-1.946.633-3.41l.064-.105c.035-.108.067-.217.102-.325.005-.024.011-.067.016-.085.048-.201.149-.476.193-.588.053-.251.104-.503.178-.748.25-.833.98-1.598 1.459-2.233l.996-.816.867 1.281c-.046-1.517.542-2.953.709-4.441.18-1.597.42-3.185.629-4.778.029-.232.072-.464.088-.697.01-.152-.052-.303-.037-.455.074-.777.143-1.555.254-2.328.111-.78.35-1.591.554-2.352.052-.152.097-.237.137-.355l.01-.137c-.06.147-.116.296-.18.441-.066.154-.178.284-.265.426-.19.309-.444.744-.621 1.02.008-.07.044-.273.023-.207-.555 1.73-.032.503-.818 2.275v.004c-.261 1.945-1.204 3.15-2.52 4.652l-2.467-2.115-.064.117c-.376 1-.317.915-.35.524-.036-.426-.223-1.118-1.324-.867-.02.055-.04.115-.05.138l.038-.134h-.006c-.013.043-.028.086-.039.13-.005.022-.002.022.004.01a4.211 4.211 0 0 1-.164.461l-.035.133c-.012.013-.027.034-.04.049l-.001.012c-.002.006-.01.013-.012.02l1.088.82c-.1.107-.188.227-.303.32-.38.308-.445.306-.838.457-.278-.075-.716-.12-1.164-.162-.103.08-.285.242-.316.258-.563.277-2.332.628-1.87.205.308-.282.682-.454 1.079-.592-.491-.083-.768-.204-.447-.438.88-.642 1.581-1.07 2.144-1.342l-.996-.75-2.215.801-1.75 3.719-.68-.82c-1.14-1.56-2.079-2.751-2.779-3.551l-.101-.16c-2.12-4.82-11.09-33.32-20.42-64.88zm29.18 79.071.262.198.045-.336c-.097.04-.199.086-.306.138zm.716.26.148-.584-.041.05c-.015.062-.029.122-.047.182l-.008.018c-.014.078-.033.176-.04.227l-.04.062a4.45 4.45 0 0 1-.035.17l.017-.027c.015-.026.03-.064.045-.098zm-.028-.045.031-.187a1.57 1.57 0 0 1-.113.16l-.06.222.013.012.13-.207zm.031-.187a.575.575 0 0 0 .05-.102l.03-.172-.043.051-.037.223zm.037-.223.01-.057-.058.063-.022.076.07-.082zm.01-.057.041-.043.004-.02a.492.492 0 0 0-.035.01l-.01.054zm.041-.043-.008.05.024-.028.012-.047-.008.002a.39.39 0 0 1-.02.023zm2.868 11.739-.008.035c.022-.075.048-.148.07-.223.018-.063-.048.152-.063.188zm-.008.035a40.45 40.45 0 0 1-.202.639c-.013.063-.025.139-.039.22l.069-.113c.055-.25.12-.496.172-.746zm-1.373 7.547c.013-.027.03-.057.044-.084l.041-.13c.014-.187.03-.374.041-.562-.037.132-.082.262-.105.397-.014.083-.014.242-.021.379zm.044-.084-.048.158c-.016.385-.015.78.015.549.034-.256.05-.515.069-.772l-.036.065zm-4.61 8.187-.056.133c.079-.097.159-.194.227-.299.034-.052-.09.085-.135.127-.008-.006-.023.02-.037.04zm-.056.133-.03.04c-.044.108-.074.206-.052.151.037-.09.05-.111.082-.19zm48.24-99.539c0 .02-.002.04-.003.059 0-.005.003-.01.004-.014v-.045zm-.189 2.133c-.005.026-.007.052-.011.078l.027-.072-.016-.006zm-.324.681c-.005-.002.005.051.01.086.007-.01.012-.022.02-.033-.006-.01-.027-.052-.03-.053zm-4.828.14c-.027.16-.047.322-.072.483-.018.12.067-.256.074-.386.002-.033-.003-.05-.002-.098zm-21.213 5.423c-.024.017-.046.043-.07.06 0 .15.008.29.07-.06zm-.086.074c-1.875 1.402-3.508 4.112-5.187 9.328l4.56-.46c.041-.528.107-1.054.203-1.589.047-.26.152-.51.196-.771.018-.112-.08.212-.12.318-.044-.09-.065-.971-.07-1.142-.016-.558-.068-1.118-.02-1.674.049-.55.135-1.095.202-1.643.084-.335.192-.665.252-1.006.021-.121-.073.238-.137.344-.015.026-.02-.056-.018-.086.124-1.565.135-1.675.14-1.619zm-.775 14.184-.07.168c-.253 1.375-.352 2.792-.903 4.095-.148-.156-.044-.072-.117.383-.176 1.092-.326 2.201-.697 3.248-.237.63.03-.123-.262 1.08-.105.433-.223.864-.348 1.291-.077.263-.079-.137-.164.3-.057.291-.07.589-.105.884-.204 1.351-.475 2.688-.672 4.041a62.61 62.61 0 0 1-.49 2.785c-.01.042-.018.085-.043.12-.013.016-.058-.002-.06.019-.022.148-.005.3-.007.449.003.686.05 1.363.072 2.049.011.354.058.71.02 1.062-.081.748-.25 1.485-.377 2.227-.003.015.003-.032.004-.047-.061.041-.05.052-.106-.03l.008.464c.063-.106.167-.295.225-.385.014-.103.026-.206.049-.307.272-1.204.514-1.872 1.092-2.969.014-.026.024-.04.039-.066-.06-.191.413-1.6.512-1.969.155-.855.634-1.59.98-2.369.04-.09-.11.164-.158.25-.023.04-.026.165-.055.129-.041-.052-.002-.133-.002-.2.154-1.382.436-2.748.701-4.112.033-.161.094-.32.098-.483 0-.046-.068.146-.09.106-.05-.093-.025-.21-.021-.315.02-.53.047-1.058.095-1.586.1-1.077.27-1.442.588-2.617.112-.312.265-.613.336-.938l-.23.454c-.015.03-.045.126-.045.091 0-.977.108-1.942.13-2.918.009-.925-.022-1.848-.029-2.773-.002-.186-.015-.373-.002-.559.026-.351.066-.702.104-1.052zm-2.666 20.437c.058-.094.05-.081-.112.156.04-.418-.082.266-.129.256.09-.163.191-.332.24-.412zm36.918 21.127-.092.051c.314-.05.445-.047.092-.05zm-32.547 4.96-.09.298c.01-.022.005-.002.015-.025.043-.09.055-.178.075-.274zm-19.463 2.823-.002.008.006-.008h-.004zm31.113 5.356-.031.064c-.016.07-.02.093-.047.207.01-.021.018-.043.027-.064l.051-.207zm-28.596 8.656c-.01.019-.024.036-.035.055-.12.204-.042.942-.02.707.026-.254.037-.508.055-.762zm-.289 1.16-.171.596-.004.035c.047-.165.06-.227.175-.63zm1.987 1.766c-.033-.038-1.33.548-1.98 1.303.669-.41 1.355-.796 1.966-1.286.012-.009.016-.014.014-.017zm-6.37 9.264c-.122.244-.218.651-.163.478.05-.162.11-.318.164-.478zm-2.404 3.564c.182-.141-.388.246-.57.387-.03.022-.036.034-.078.078.218-.152.438-.302.648-.465zm-4.98 6.016c.029-.044-.086.061-.117.103a1.386 1.386 0 0 0-.092.145c.07-.082.15-.158.209-.248z" class="cls-4" clip-path="url(#clipPath7807)" style="fill:#fff"/><path id="path449" d="m207.18 169.05-12.75 31.89-5.63 13.46v14.15l27 54.86 2.655 1.031c.082-.02.176-.026.266-.039l.043-.035.127-.785c.415-1.065.331-1.107 1.515-2.1.108-.09.232-.156.362-.214.004-.289.03-.57.152-.827.016-.033.086-.11.182-.209.011-.03.032-.078.04-.101l.053-.047c.148-.316.322-.625.483-.729.357-.23.716-.472 1.1-.656l.074-.148c.243-.428.456-.874.73-1.283 1.541-2.306 1.022-1.345 2.416-3.123.375-.48.73-.974 1.086-1.467.233-.324.432-.67.68-.983.491-.62 1.023-1.21 1.535-1.814a29.747 29.747 0 0 1 5.353-4.711l.112-.35c.45-1.534.339-1.105.8-2.97.104-.42.17-.848.3-1.26.21-.675.458-1.336.716-1.994.162-.413.332-.826.543-1.215.305-.562.668-1.088 1.002-1.633.787-1.067.722-1.033 1.623-1.977a2.72 2.72 0 0 1 .588-.634l.045-.158a3.375 3.375 0 0 1 1.19-1.797c.34-1.702.81-3.38 1.349-5.026.218-.53.378-1.081.523-1.635.051-.194.054-.402.131-.587.154-.372.316-.74.477-1.108.11-.878.756-2 1.017-2.596.2-.284.407-.561.598-.851.011-.018-.002-.045.006-.065.263-.667.822-1.178 1.285-1.726.556-.66 1.073-.895.559-.639.018-.079.037-.065-.03-.062-.018.03-.072.126-.056.093.314-.666.647-1.435 1.066-2.066.244-.368.513-.719.77-1.078.17-.205.35-.402.51-.615.057-.078.314-.693.33-.729.28-.648.198-.45.619-1.351.49-1.12 1.17-2.137 1.869-3.135.267-.781.523-1.567.87-2.315.036-.075.101-.162.16-.246.152-.504.335-.978.546-1.508.064-.115.13-.23.193-.345.001-.038-.003-.077-.002-.116.059-.136.119-.272.176-.41l.072-.78c.505-1.461.417-1.487 1.14-2.515.13-.719.77-1.93 1.087-2.572l.053-.074.17-.64c.127-.306.255-.612.38-.919.031-.075.108-.307.086-.228-.03.11-.237.75-.412 1.47l.147-.203.013-.03c.008-.018.021-.032.032-.048l.287-.965c.089-.299.204-.59.27-.896a25.76 25.76 0 0 0 .263-2.049c.023-.37.02-.74.031-1.11-.005-.117-.004-.235-.006-.353l-.709-.244-18.57 39.41s-7.81-11.73-10.17-14.09c-2.36-2.36-21.52-67.18-21.52-67.18zm50.08 47.555c-.05.106-.126.283-.197.448-.074.323-.127.64-.163.935.025-.103.05-.205.073-.308.186-.652.248-.869.324-1.127l-.037.052zm-36.065 63.479-.048.105c.643-.652 2.298-2.108.048-.105zm-.048.105c-.014.014-.033.03-.045.043-.12.31-.375.906-.246.686 0-.001.123-.355.29-.729zm33.33-56.488-.002.008c-.034.101-.038.422-.028.317l.03-.325zm-.112.123c-.144.324-.27.651-.31 1-.002.02-.002.06-.004.082l.033-.049c.169-.157.098-.09-.033.053-.046.484-.032 1.385.02 1.98l.109-.189.091-.17.028-.07c-.01.023-.015.043-.024.066l.05-.091c.021-.041.029-.063.066-.124v-.01c-.027.052-.058.099-.086.149.03-.082.058-.136.088-.213.04-.799-.024-1.61-.028-2.414zm-.09 2.703c0 .002-.003.002-.004.004a17.49 17.49 0 0 0-.062.166c.024-.063.044-.11.066-.17zm-.224-1.617v-.004l-.01.014.01-.01zm-13.508 27.988c-.046.064-.08.122-.113.18.029-.02.058-.035.088-.053l.025-.025c.023-.025.02-.129 0-.102zm-18.234 26.73c-.275.125-.547.25-.809.392l-.123 1.554.13-.035c.06-.216.053-.37.349-1.01.14-.305.3-.601.453-.9zm-.909 1.34c-.065.017-.31.117-.404.165a.447.447 0 0 0-.123.09c.177-.074.358-.14.522-.237.03-.018.026-.023.006-.017zm-.574.23-.025.056.017-.008.008-.049zm-.06.136a1.068 1.068 0 0 0-.084.281c-.03.238-.007.951.04.717.066-.321.043-.664.044-.998z" class="cls-15" style="fill:#b29e6d;stroke:#594330;stroke-width:3.59px;stroke-miterlimit:10"/><path id="polygon453" d="m587.06 452.41-20.96-14.45-16.23-53.79 2.14-5.34 17.22 57.09 16.93 10.87z" class="cls-23" style="fill:#9c4732" transform="translate(-349.92 -192.27)"/><path id="path489" d="M228.67 236.23s2.9 17.89 7.62 20.92l2.55-6.83" class="cls-27" style="fill:#594330;stroke:#594330;stroke-width:3.59px;stroke-miterlimit:10"/><path id="path491" d="m58.79 33.89-3.12 1.89-10.1 24.06h-1.82l-10.8-24.06-2.77-1.89h14.34l-3.12 1.89 6.91 15.89 4.7-15.89-4.18-1.89z" class="cls-38" style="fill:#cc761f"/><path id="path493" d="M57.08 307.59c0 4.14-4.35 6.8-10.73 6.8H32.24v-.56h2.84v-22.79l-3.12-1.9h12.66c6.91 0 11 1.9 11 5.79 0 3-2.24 4.95-7.75 5.93 5.49.35 9.21 2.77 9.21 6.73zm-14.31-17.86v10.94h.63c2.84 0 4.13-1.9 4.13-5.47 0-3-.94-5.47-4.2-5.47zm6.2 18c0-4.35-2.28-6.49-5.22-6.49h-1v12.59h.73c3.91 0 5.49-2.03 5.49-6.1z" class="cls-38" style="fill:#cc761f"/><path id="line495" d="M233.76 305.95h26.14" class="cls-29" style="fill:#ed9b2f;stroke:#cc761f;stroke-width:5.98px;stroke-miterlimit:10"/><path id="line497" d="M233.76 41.87h26.14" class="cls-29" style="fill:#ed9b2f;stroke:#cc761f;stroke-width:5.98px;stroke-miterlimit:10"/><path id="polyline499" d="m559.16 474.11-5.05 3.75-9.63-32.77" class="cls-4" style="fill:#fff" transform="translate(-349.92 -192.27)"/><ellipse id="ellipse337" cx="148.73" cy="173.95" rx="111.17" ry="136.39" style="fill:none;stroke:#cc761f;stroke-width:10.72px;stroke-miterlimit:10"/></svg>