<svg id="Layer_1" data-name="Layer 1" version="1.1" width="201.33" height="196.32" xmlns="http://www.w3.org/2000/svg"><defs id="defs10"><clipPath id="clip-path"><path class="cls-1" d="M499.29 535.21a173.07 173.07 0 0 0 66.16-13 170.87 170.87 0 0 0 54.34-35.68 167.16 167.16 0 0 0 37-53.46 165.73 165.73 0 0 0 0-132 167.32 167.32 0 0 0-37-53.46 170.56 170.56 0 0 0-54.34-35.67 174.23 174.23 0 0 0-132.32 0 170.71 170.71 0 0 0-54.35 35.67 167.48 167.48 0 0 0-37 53.46 165.73 165.73 0 0 0 0 132 167.48 167.48 0 0 0 37 53.46 170.74 170.74 0 0 0 54.35 35.68 173 173 0 0 0 66.16 13z" id="path4" style="fill:none"/></clipPath><clipPath id="clip-path-2"><path class="cls-1" id="polygon7" style="fill:none" d="M184.26 1006.07V834.76H162.9v-44.02h119.04v259.35H162.9v-44.02z"/></clipPath><style id="style2">.cls-1{fill:none}.cls-11{fill:#b78254}.cls-13{fill:#034757}.cls-14{fill:#e5b38b}.cls-17{fill:#eee4d3}</style></defs><path d="M193.38 59.89A97.66 97.66 0 0 0 171.8 28.7a100.66 100.66 0 0 0-32-21 103.28 103.28 0 0 0-78.26 0 100.55 100.55 0 0 0-32 21A97.69 97.69 0 0 0 7.95 59.89a96.09 96.09 0 0 0 0 76.54 97.76 97.76 0 0 0 21.59 31.18 100.38 100.38 0 0 0 32 21 103.15 103.15 0 0 0 78.26 0 100.5 100.5 0 0 0 32-21 97.73 97.73 0 0 0 21.58-31.18 96.09 96.09 0 0 0 0-76.54z" id="path698" style="fill:#fff6e7"/><path d="M97.76 182.74a84.63 84.63 0 1 1 33-6.68 84.22 84.22 0 0 1-33 6.68z" id="path700" style="fill:none;stroke:#034757;stroke-width:12.5px;stroke-miterlimit:10"/><path class="cls-11" d="M103.16 183.69a85.35 85.35 0 1 1 33.31-6.74 85 85 0 0 1-33.31 6.74zm0-113.6a28.07 28.07 0 1 0 28.07 28.06 28.1 28.1 0 0 0-28.07-28.06z" id="path702" style="fill:#b78254"/><path style="fill:none;stroke:#0b6776;stroke-width:3;stroke-linecap:round;stroke-linejoin:miter;stroke-miterlimit:4;stroke-dasharray:none;stroke-opacity:1" d="M92.536 86.068h21.46" id="path36158"/><path d="M181.96 64.86a85.47 85.47 0 0 0-68-51.56l-1 5.87c7-2 14.51 2 19.65 7.18 5.14 5.18 8.89 11.71 14.27 16.7 2.62 2.42 5.63 4.5 7.64 7.46a26.24 26.24 0 0 1 3.17 7.67 161.41 161.41 0 0 1 6.18 41.78 6 6 0 0 1-.46 2.93 9.64 9.64 0 0 1-1.86 2.08c-5.54 5.66-1.24 15.77-5 22.73-2.32 4.25-7.53 7.09-7.87 11.92-.16 2.3.88 4.68.11 6.85-1.25 3.54-6 3.92-9.19 6-2.42 1.58-3.91 4.25-6 6.21-3.61 3.32-8.71 4.32-13.17 6.36-4.46 2.04-8.8 6.31-7.88 11.12-5.57.22-11.55 2.86-14.36 7.39 1.67.1 3.35.16 5 .16a85.57 85.57 0 0 0 78.79-118.83z" id="path704" style="fill:#9b6a43"/><path class="cls-13" d="M103.16 189.99a91.63 91.63 0 1 1 35.76-7.23 91.22 91.22 0 0 1-35.76 7.23zm0-171.06a79 79 0 1 0 30.85 6.22 78.7 78.7 0 0 0-30.85-6.22z" id="path706" style="fill:#034757"/><path class="cls-14" d="M103.17 126.22a28.07 28.07 0 1 1 6.21-55.43l-1.35-6.54a7.88 7.88 0 0 0-7.27-8.77c-3.13-.07-6.1 1.8-9.22 1.51a28.48 28.48 0 0 1-4.81-1.35c-6.33-1.74-13.21 1.64-17.38 6.71-4.17 5.07-6.16 11.56-7.83 17.91s-3.14 12.89-6.58 18.51a8.56 8.56 0 0 1-2.33 2.74 18.23 18.23 0 0 0-2.31 1.44 5.85 5.85 0 0 0-1.49 2.81 24.83 24.83 0 0 0 9.76 26.77c2.34 1.56 5.27 3.17 5.55 6a4.86 4.86 0 0 0 .28 1.87 3 3 0 0 0 1.91 1.21 42.89 42.89 0 0 0 18.57 1.37c4.89.94 8.7 5.4 13.66 5.74 3.95.28 7.58-2.15 10.41-4.91a38.5 38.5 0 0 0 11.08-21.33l-.34-1.63a27.92 27.92 0 0 1-16.52 5.37z" id="path708" style="fill:#e5b38b"/><g id="g36219" transform="translate(-81.058 -80.47)"><path style="fill:none;stroke:#0b6776;stroke-width:3;stroke-linecap:round;stroke-linejoin:miter;stroke-miterlimit:4;stroke-dasharray:none;stroke-opacity:1" d="m184.217 150.559.52 50.78" id="path1174"/><path style="fill:none;stroke:#0b6776;stroke-width:3;stroke-linecap:round;stroke-linejoin:miter;stroke-miterlimit:4;stroke-dasharray:none;stroke-opacity:1" d="M173.593 158.537h21.46" id="path18297"/><path style="fill:none;stroke:#0b6776;stroke-width:3;stroke-linecap:round;stroke-linejoin:miter;stroke-miterlimit:4;stroke-dasharray:none;stroke-opacity:1" d="M173.593 166.537h21.46" id="path36164"/><path style="fill:none;stroke:#0b6776;stroke-width:3;stroke-linecap:round;stroke-linejoin:miter;stroke-miterlimit:4;stroke-dasharray:none;stroke-opacity:1" d="M173.593 174.537h21.46" id="path36176"/><path style="fill:none;stroke:#0b6776;stroke-width:3;stroke-linecap:round;stroke-linejoin:miter;stroke-miterlimit:4;stroke-dasharray:none;stroke-opacity:1" d="M173.593 182.537h21.46" id="path36188"/><path style="fill:none;stroke:#0b6776;stroke-width:3;stroke-linecap:round;stroke-linejoin:miter;stroke-miterlimit:4;stroke-dasharray:none;stroke-opacity:1" d="M173.593 190.537h21.46" id="path36200"/><path style="fill:none;stroke:#0b6776;stroke-width:3;stroke-linecap:round;stroke-linejoin:miter;stroke-miterlimit:4;stroke-dasharray:none;stroke-opacity:1" d="M173.593 198.537h21.46" id="path36206"/></g><circle cx="103.16" cy="98.16" id="circle710" style="fill:none;stroke:#034757;stroke-width:12.61px;stroke-miterlimit:10" r="28.07"/><rect class="cls-17" x="-194.894" y="-18.564" width="2.62" height="8.8" rx="1.31" transform="rotate(-135)" id="rect720" style="fill:#eee4d3" ry="1.31"/><rect class="cls-14" x="-4.39" y="-203.924" width="2.62" height="8.8" rx="1.31" transform="rotate(135)" id="rect722" style="fill:#e5b38b" ry="1.31"/><rect class="cls-17" x="35.143" y="-194.112" width="2.62" height="8.8" rx="1.31" transform="rotate(135)" id="rect724" style="fill:#eee4d3" ry="1.31"/><rect class="cls-14" x="-187.162" y="-1.926" width="2.62" height="8.8" rx="1.31" transform="rotate(-135)" id="rect726" style="fill:#e5b38b" ry="1.31"/><rect class="cls-17" x="-25.488" y="-192.339" width="2.62" height="8.8" rx="1.31" transform="rotate(135)" id="rect728" style="fill:#eee4d3" ry="1.31"/><rect class="cls-11" x="-205.888" y="16.805" width="2.62" height="8.8" rx="1.31" transform="rotate(-135)" id="rect730" style="fill:#b78254" ry="1.31"/><rect class="cls-11" x="-215.1" y="-15.587" width="2.62" height="8.8" rx="1.31" transform="rotate(-135)" id="rect732" style="fill:#b78254" ry="1.31"/><rect class="cls-11" x="-40.052" y="-206.899" width="2.62" height="8.8" rx="1.31" transform="rotate(135)" id="rect734" style="fill:#b78254" ry="1.31"/><rect class="cls-11" x="-63.535" y="-183.41" width="2.62" height="8.8" rx="1.31" transform="rotate(135)" id="rect736" style="fill:#b78254" ry="1.31"/><rect class="cls-14" x="-141.695" y="65.554" width="2.62" height="8.8" rx="1.31" transform="rotate(-135)" id="rect738" style="fill:#e5b38b" ry="1.31"/><rect class="cls-17" x="-136.929" y="48.313" width="2.62" height="8.8" rx="1.31" transform="rotate(-135)" id="rect740" style="fill:#eee4d3" ry="1.31"/><rect class="cls-17" x="-59.671" y="-156.365" width="2.62" height="8.8" rx="1.31" transform="rotate(135)" id="rect742" style="fill:#eee4d3" ry="1.31"/><rect class="cls-14" x="-164.278" y="41.782" width="2.62" height="8.8" rx="1.31" transform="rotate(-135)" id="rect744" style="fill:#e5b38b" ry="1.31"/><rect class="cls-11" x="-192.804" y="41.771" width="2.62" height="8.8" rx="1.31" transform="rotate(-135)" id="rect746" style="fill:#b78254" ry="1.31"/><rect class="cls-17" x="-175.578" y="33.456" width="2.62" height="8.8" rx="1.31" transform="rotate(-135)" id="rect748" style="fill:#eee4d3" ry="1.31"/><path class="cls-13" d="M163.38 37.93a47.81 47.81 0 0 1 7.41 11.64 46.09 46.09 0 0 1 3.23 10.27c.52 2.74.79 5.53 1.42 8.24.7 3.06 1.86 6 2.84 9a79.53 79.53 0 0 1-5.56 61.88 50.32 50.32 0 0 1-10.42 13.75c-4.94 4.41-11 7.4-16.9 10.33-7.27 3.59-14.59 7.2-22.4 9.39-7.32 2-14.92 2.79-22.49 3.54-9 .88-18.42 1.71-26.81-1.68a44.84 44.84 0 0 1-12.07-7.85 108.92 108.92 0 0 1-12.52-12.62c-3.37-4-6.45-8.27-9.52-12.52a168.34 168.34 0 0 1-10.21-15.26c-9.22-16.19-12.66-37-3.84-53.39 3.49-6.49 8.62-11.85 13.19-17.56 5-6.26 7.53-13.48 11.94-20 3.1-4.6 6.31-6.06 11.59-6.84 7.21-1.07 14.15-3.29 21.35-4.55 12.05-2.11 24.2-4.17 36.43-3.83 9.78.27 19.7 2.18 28.4 6.53l-28.38-13.08-31.18.52-30.39 11.41-26.9 14.67-11.38 25.23-5.46 15.69-1.48 24 .21 28.85 22.37 20.33 25.53 21.58 36.73 7.93 45.24-7 27.32-21.44 18.07-32.78-.29-30.42-3.07-28.45-17.21-27.29" id="path750" style="fill:#034757"/></svg>