<svg xmlns="http://www.w3.org/2000/svg" id="Layer_1" width="358.649" height="229.456" data-name="Layer 1" version="1.1"><defs id="defs22"><linearGradient id="linear-gradient" x1="81.41" x2="426.82" y1="924.43" y2="924.43" gradientTransform="translate(-75.928 -809.653)" gradientUnits="userSpaceOnUse"><stop id="stop4" offset="0" stop-color="#3f3f3f"/><stop id="stop6" offset=".2" stop-color="#343536"/><stop id="stop8" offset=".5" stop-color="#2c2e2f"/><stop id="stop10" offset="1" stop-color="#292c2d"/></linearGradient><linearGradient id="linear-gradient-2" x1="699.63" x2="912" y1="944.15" y2="944.15" gradientUnits="userSpaceOnUse"><stop id="stop13" offset="0" stop-color="#292c2d"/><stop id="stop15" offset=".2" stop-color="#333435"/><stop id="stop17" offset=".54" stop-color="#3c3c3d"/><stop id="stop19" offset="1" stop-color="#3f3f3f"/></linearGradient><clipPath id="clipPath17481" clipPathUnits="userSpaceOnUse"><path id="path17483" d="M0 0v229.49h354.672v-85.263c-.893-.015-1.787-.032-2.674-.14-.405-.048-.807-.123-1.21-.183l-32.472 36.86a40.303 40.303 0 0 1-1.968-1.866 81.333 81.333 0 0 1-1.508-1.548c-.619-.654-1.212-1.331-1.807-2.006-.37-.423-.74-.847-1.115-1.266-.432-.479-.86-.963-1.293-1.441-.437-.483-.882-.958-1.324-1.436-.532-.577-1.072-1.149-1.61-1.72a214.326 214.326 0 0 1-1.59-1.71c-.09.056-.181.113-.273.168-.567.346-1.139.687-1.709 1.028-.556.333-1.113.666-1.672.996-.614.364-1.237.715-1.861 1.062a163.7 163.7 0 0 1-1.746.954c-.281.151-.564.3-.846.45l-2.273-4.275c-.307.07-.614.137-.92.205-.336.075-.67.152-1.006.229-.333.076-.664.155-.996.234-.337.081-.675.164-1.012.244-.337.081-.674.16-1.012.24a335.583 335.583 0 0 1-1.957.458 107.204 107.204 0 0 1-1.955.425 67.243 67.243 0 0 1-1.895.377c-.127.024-.254.046-.382.069l.14 3.066h-.015a1.088 1.088 0 0 1-.08.006l-.256.01-.229.01c-.039.001-.04 0-.103.004l-.148-2.972a45.26 45.26 0 0 1-1.662.264 52.102 52.102 0 0 1-2.586.268 29.85 29.85 0 0 1-1.592.075l-.235.004-.177-11.234.154-.002c.154-.004.307-.01.46-.016.175-.009.35-.017.524-.031a39.351 39.351 0 0 0 1.274-.12c.207-.022.414-.045.62-.073a33.452 33.452 0 0 0 1.438-.229l.813-.146.783-.15c.283-.058.567-.115.85-.175a102.497 102.497 0 0 0 1.738-.379c.31-.07.62-.142.93-.214l.955-.227.982-.232 1.031-.248.06-.014-2.812-5.291c.247-.131.495-.262.74-.395.498-.267.993-.537 1.487-.81.458-.255.916-.512 1.367-.78.487-.286.97-.576 1.455-.867-.466-.832-.93-1.667-1.38-2.508a199.488 199.488 0 0 1-1.528-2.93 66.97 66.97 0 0 0-.936-1.798c-.213-.404-.445-.8-.683-1.19a61.8 61.8 0 0 0-1.074-1.69 129.867 129.867 0 0 0-1.545-2.313 74.363 74.363 0 0 0-1.563-2.225 70.188 70.188 0 0 0-1.752-2.268 173.2 173.2 0 0 0-2.428-2.97 167.452 167.452 0 0 0-2.642-3.094 170.313 170.313 0 0 0-2.733-3.063 106.69 106.69 0 0 0-2.66-2.808c-1.054-1.08-2.126-2.144-3.193-3.211-1.136-1.134-2.271-2.269-3.408-3.402l-3.407-3.391a287.05 287.05 0 0 1-7.549-7.78 290.408 290.408 0 0 1-3.769-4.1 210.426 210.426 0 0 1-3.83-4.362 231.171 231.171 0 0 1-3.672-4.414 200.444 200.444 0 0 1-7.049-9.207 162.093 162.093 0 0 1-3.398-4.893 154.608 154.608 0 0 1-3.133-4.922 116.062 116.062 0 0 1-3.064-5.283c-1.236-2.232-2.29-4.556-3.276-6.906-.89-2.144-1.633-4.342-2.322-6.557-.756-2.4-1.298-4.858-1.766-7.328a114.293 114.293 0 0 1-.67-4.3l5.342-.757a159.069 159.069 0 0 1-5.043-3.113 126.276 126.276 0 0 1-5.297-3.613c-1.71-1.245-3.404-2.515-5.045-3.852a146.687 146.687 0 0 1-8.215-7.22 138.25 138.25 0 0 1-3.542-3.5 126.152 126.152 0 0 1-3.291-3.5 164.555 164.555 0 0 1-2.842-3.24 91.246 91.246 0 0 1-3.172-3.93 86.71 86.71 0 0 1-2.853-3.995A100.692 100.692 0 0 1 181.852.6l-.364-.6Zm335.008 0 .04.07c.851 1.524 1.69 3.054 2.52 4.588l2.354 4.336c.812 1.491 1.628 2.978 2.44 4.469.82 1.506 1.64 3.013 2.462 4.517.847 1.546 1.695 3.09 2.545 4.633.888 1.615 1.772 3.232 2.652 4.85.51.935 1.018 1.873 1.528 2.808.558.31 1.12.612 1.676.928.488.28.962.586 1.447.871V0Z" style="fill:red;fill-opacity:1;fill-rule:nonzero;stroke:none"/></clipPath><style id="style2">.cls-7{fill:#878787}.cls-8{fill:#646666}.cls-10{fill:#bababa}</style></defs><path id="path54792" d="M209.905 144.564c18.62 5.57 38.791 6.78 57.52 1.589 15.997-4.434 30.725-13.57 41.473-26.219 13.931-16.394 20.691-37.804 23.676-59.11.343-2.446.641-4.919.457-7.382-.185-2.463-.883-4.941-2.364-6.919-1.53-2.043-3.78-3.417-6.038-4.608-11.292-5.955-24.115-8.545-36.864-9.216-14.308-.753-28.931.89-42.108 6.515-8.516 3.636-16.314 8.892-23.04 15.254a86.731 86.731 0 0 0-13.189 15.89c-7.2 11.13-11.825 23.743-15.254 36.547-1.56 5.821-2.891 11.77-2.86 17.796.013 2.594.29 5.227 1.27 7.627 1.386 3.388 4.106 6.104 7.213 8.038 3.107 1.933 6.602 3.149 10.108 4.198z" style="fill:#7fccea;fill-opacity:1;stroke:#7fccea;stroke-width:51.1;stroke-linecap:butt;stroke-linejoin:miter;stroke-miterlimit:4;stroke-dasharray:none;stroke-opacity:1"/><path id="path294" d="M107.322 190.243c.88 5.06 5 17.66 5.46 18.63 12.78 26.34 50.59 17.6 68.26 2.18a62.87 62.87 0 0 0 9.78-10.83c.81-1.13 6.45-12.08 6.8-12.07 0 0 38.68 1.19 76.94-21.42 25.5-16.951 52.674-17.577 66.135-41.905a81.56 81.56 0 0 0-65.36-120.826c-27.728-2.047-46.327 12.397-63.003 34.645-37.11 1.59-60.012 17.566-60.012 17.566-114.1.82-146.82 56-146.82 56l38.51 15.44-18.57 22.39 47 42.13 33.29-3.86s.99-.87 1.59 1.93z" clip-path="url(#clipPath17481)" style="fill:url(#linear-gradient);stroke:#7fccea;stroke-width:7.56px;stroke-miterlimit:10" transform="translate(0 -.034)"/><path id="path33958" d="M209.905 144.564c18.62 5.57 38.791 6.78 57.52 1.589 15.997-4.434 30.725-13.57 41.473-26.219 13.931-16.394 20.691-37.804 23.676-59.11.343-2.446.641-4.919.457-7.382-.185-2.463-.883-4.941-2.364-6.919-1.53-2.043-3.78-3.417-6.038-4.608-11.292-5.955-24.115-8.545-36.864-9.216-14.308-.753-28.931.89-42.108 6.515-8.516 3.636-16.314 8.892-23.04 15.254a86.731 86.731 0 0 0-13.189 15.89c-7.2 11.13-11.825 23.743-15.254 36.547-1.56 5.821-2.891 11.77-2.86 17.796.013 2.594.29 5.227 1.27 7.627 1.386 3.388 4.106 6.104 7.213 8.038 3.107 1.933 6.602 3.149 10.108 4.198z" style="fill:#2c2e2f;fill-opacity:1;stroke:#2c2e2f;stroke-width:33.3;stroke-linecap:butt;stroke-linejoin:miter;stroke-miterlimit:4;stroke-dasharray:none;stroke-opacity:1"/><path id="path26573" d="M209.905 144.564c18.62 5.57 38.791 6.78 57.52 1.589 15.997-4.434 30.725-13.57 41.473-26.219 13.931-16.394 20.691-37.804 23.676-59.11.343-2.446.641-4.919.457-7.382-.185-2.463-.883-4.941-2.364-6.919-1.53-2.043-3.78-3.417-6.038-4.608-11.292-5.955-24.115-8.545-36.864-9.216-14.308-.753-28.931.89-42.108 6.515-8.516 3.636-16.314 8.892-23.04 15.254a86.731 86.731 0 0 0-13.189 15.89c-7.2 11.13-11.825 23.743-15.254 36.547-1.56 5.821-2.891 11.77-2.86 17.796.013 2.594.29 5.227 1.27 7.627 1.386 3.388 4.106 6.104 7.213 8.038 3.107 1.933 6.602 3.149 10.108 4.198z" style="fill:none;stroke:#e8cf1f;stroke-width:5.1;stroke-linecap:butt;stroke-linejoin:miter;stroke-miterlimit:4;stroke-dasharray:none;stroke-opacity:1"/><path id="path298" d="M215.362 73.909c14.26-3.36 32.33-2.07 41.48 11 11.94 17 3.65 38.43-8.2 52.8l-15 5.86-24.37-52" style="fill:#292c2d"/><path id="path26861" d="m298.093 67.18-70.868 46.24" style="fill:none;stroke:#e8cf1f;stroke-width:4.4;stroke-linecap:round;stroke-linejoin:miter;stroke-miterlimit:4;stroke-dasharray:none;stroke-opacity:1"/><path id="path26898" d="m293.816 82.662-11.235-17.416" style="fill:none;stroke:#e8cf1f;stroke-width:4.2;stroke-linecap:round;stroke-linejoin:miter;stroke-miterlimit:4;stroke-dasharray:none;stroke-opacity:1"/><path id="path308" d="M169.252 175.909c-5.93-12.36-22.79-20.63-31.81-23.63-9.78-3.19-20.67-4.07-32.37-2.61a103.47 103.47 0 0 0-32.49 9.6l9.92 6.9a94.31 94.31 0 0 1 23.85-6.21c10.17-1.27 19.55-.53 27.87 2.18 10 3.26 22 10.56 25.68 18.22 1.61 3.34.85 6.51-2.24 9.43-4 3.8-10.69 5.41-14.26 3.43-3.72-2.06-3.32-8.07-2.63-11.85l.43-.94a10.71 10.71 0 0 0-10.56-1.29c-2.83 14.83 3.62 20.87 7.74 23.15a18.23 18.23 0 0 0 8.9 2.15 26.11 26.11 0 0 0 17.5-7.1c6.37-5.97 8.04-14 4.47-21.43z" class="cls-7" style="fill:#878787"/><path id="path310" d="M250.302 143.779c-15.73 9.12-34.43 12.83-51.8 10-11.16-1.84-21.46-6.94-32.37-12.34-9-4.47-18.39-9.09-28.31-11.7a105.08 105.08 0 0 0-45.07-2c-15.58 2.81-30 9-40.53 17.46l8.95 6.23c9-6.44 20.71-11.19 33.41-13.48a94.7 94.7 0 0 1 40.6 1.86c8.9 2.34 17.38 6.53 26.35 11 11.11 5.5 22.6 11.18 35.28 13.27a82.75 82.75 0 0 0 13.36 1.08 91.23 91.23 0 0 0 52.35-16.88 38.24 38.24 0 0 1-12.22-4.5z" class="cls-7" style="fill:#878787"/><path id="path26935" d="m283.255 89.29-11.236-17.415" style="fill:none;stroke:#e8cf1f;stroke-width:4.2;stroke-linecap:round;stroke-linejoin:miter;stroke-miterlimit:4;stroke-dasharray:none;stroke-opacity:1"/><path id="path312" d="M203.232 63.179c-5.1-3.56-11.55-4.31-16.45-1.9-2.69 1.33-7.27 4.8-7.64 13.07v.35l.11 1.22c2.67 2.05 6.33 2.63 9.15 2.72l1.49-.13-.36-4c.11-1.49.53-3.26 1.85-3.91 1.48-.73 4-.27 5.92 1.09a6.79 6.79 0 0 1 3.06 6.43c-.4 3.71-1.8 6.33-4.41 8.24-10.09 7.39-34.49 2.49-49.07-.44-3.45-.69-6.43-1.29-8.86-1.67-18.93-3-36-3.42-50.84-1.4-19.9 2.71-35.68 9.94-46.9 21.47l.31.29 9.81 4.38c22-19.53 58.6-18.76 86-14.49 2.2.34 5.08.92 8.41 1.59 17.3 3.47 43.46 8.73 57.24-1.36 5-3.65 7.87-8.87 8.59-15.5a17.12 17.12 0 0 0-7.41-16.05z" class="cls-7" style="fill:#878787"/><path id="path27021" d="m273.03 96.482-11.236-17.416" style="fill:none;stroke:#e8cf1f;stroke-width:4.2;stroke-linecap:round;stroke-linejoin:miter;stroke-miterlimit:4;stroke-dasharray:none;stroke-opacity:1"/><path id="path314" d="M252.012 99.419c-.84-7.41-5.88-12.73-13.47-14.24-9-1.78-19 2.25-22.79 9.18-5 9 1.66 17.54 4.77 20.84l.54.57a21.21 21.21 0 0 0 8-6.67l-1-1c-2.31-2.44-4.74-5.94-3.22-8.68 1.66-3 7.23-4.92 11.69-4 4.71.94 5.08 4.18 5.2 5.24.86 7.57-3.05 17.83-8.37 22-16.6 12.9-37.54 4.63-57.79-3.37-5.47-2.16-10.64-4.2-15.71-5.83-35.22-11.26-63.57-12.07-89.23-2.54l12.13 7c21.21-5.63 45-3.86 73.94 5.4 4.74 1.52 9.75 3.5 15.06 5.59 10.8 4.27 22 8.68 33.35 10.24a59.16 59.16 0 0 0 8 .57 41.86 41.86 0 0 0 26.57-8.89c9.15-7.18 13.45-21.55 12.33-31.41z" class="cls-7" style="fill:#878787"/><path id="path27027" d="m262.244 103.11-11.236-17.415" style="fill:none;stroke:#e8cf1f;stroke-width:4.2;stroke-linecap:round;stroke-linejoin:miter;stroke-miterlimit:4;stroke-dasharray:none;stroke-opacity:1"/><path id="path316" d="M198.502 153.749a62.5 62.5 0 0 1-6.07-1.33 23.53 23.53 0 0 1 2.5 11.21c.62.13 1.25.25 1.88.35a82.75 82.75 0 0 0 13.36 1.08 91.23 91.23 0 0 0 52.35-16.78 38.24 38.24 0 0 1-12.22-4.45c-15.73 9.07-34.43 12.78-51.8 9.92z" class="cls-10" style="fill:#bababa"/><path id="path27033" d="M251.794 109.628 240.56 92.212" style="fill:none;stroke:#e8cf1f;stroke-width:4.2;stroke-linecap:round;stroke-linejoin:miter;stroke-miterlimit:4;stroke-dasharray:none;stroke-opacity:1"/><path id="path27039" d="m241.57 116.594-11.236-17.416" style="fill:none;stroke:#e8cf1f;stroke-width:4.2;stroke-linecap:round;stroke-linejoin:miter;stroke-miterlimit:4;stroke-dasharray:none;stroke-opacity:1"/><path id="path318" d="M238.542 85.179c-9-1.78-19 2.25-22.79 9.18-5 9 1.66 17.54 4.77 20.84l.54.57a21.21 21.21 0 0 0 8-6.67l-1-1c-2.31-2.44-4.74-5.94-3.22-8.68 1.66-3 7.23-4.92 11.69-4 4.71.94 5.08 4.18 5.2 5.24.86 7.57-3.05 17.83-8.37 22-15.66 12.16-35.18 5.5-54.34-2a45 45 0 0 1 .43 11.28c8.39 3.19 17 6.05 25.66 7.24a59.16 59.16 0 0 0 8 .57 41.86 41.86 0 0 0 26.57-8.89c9.13-7.1 13.43-21.51 12.31-31.33-.82-7.52-5.86-12.84-13.45-14.35z" class="cls-10" style="fill:#bababa"/><path id="path320" d="M202.072 94.719c5-3.65 7.87-8.87 8.59-15.5a17.12 17.12 0 0 0-7.43-16c-5.1-3.56-11.55-4.31-16.45-1.9-2.69 1.33-7.27 4.8-7.64 13.07v.35l.11 1.22c2.67 2.05 6.33 2.63 9.15 2.72l1.49-.13-.36-4c.11-1.49.53-3.26 1.85-3.91 1.48-.73 4-.27 5.92 1.09a6.79 6.79 0 0 1 3.06 6.43c-.4 3.71-1.8 6.33-4.41 8.24-8.11 5.95-25.48 3.94-39.55 1.4a65.69 65.69 0 0 1 13.29 12.37c12.19 1.11 24.38.41 32.38-5.45z" class="cls-10" style="fill:#bababa"/><path id="path322" d="M119.182 149.109a83.59 83.59 0 0 0-14.11.6 103.47 103.47 0 0 0-32.49 9.6l9.92 6.9a94.31 94.31 0 0 1 23.85-6.21 74.06 74.06 0 0 1 12.51-.53 24.8 24.8 0 0 0 .32-10.36z" class="cls-8" style="fill:#646666"/><path id="path324" d="M113.782 136.559a57.43 57.43 0 0 0-9.23-10.28 95.75 95.75 0 0 0-11.8 1.38c-15.57 2.8-30 9-40.53 17.45l8.95 6.23c9-6.44 20.71-11.19 33.41-13.48a90.59 90.59 0 0 1 19.2-1.3z" class="cls-8" style="fill:#646666"/><path id="path326" d="M82.742 117.839a91 91 0 0 1 10-2.07 26.14 26.14 0 0 0 2-10.75 103.84 103.84 0 0 0-24.09 5.8z" class="cls-8" style="fill:#646666"/><path id="path328" d="M91.072 92.839a43.28 43.28 0 0 0-7.41-9.47c-18.26 3-32.86 10.09-43.42 20.94l.31.29 9.81 4.38c10.95-9.7 25.5-14.4 40.71-16.14z" class="cls-8" style="fill:#646666"/></svg>