<svg xmlns="http://www.w3.org/2000/svg" id="Layer_1" width="254.535" height="265.277" data-name="Layer 1" version="1.1"><defs id="defs4"><clipPath id="clipPath1636" clipPathUnits="userSpaceOnUse"><path id="path1638" d="M0 0v285.277h31.957c.294-.152.495-.251.98-.502 1.207-.659 2.4-1.34 3.592-2.027a330.696 330.696 0 0 0 6.463-3.853 1150.04 1150.04 0 0 0 8.424-5.165 1615.25 1615.25 0 0 1 9.69-5.964c.156-.096.315-.188.472-.284l-1.514-.392c.629-2.462 1.706-4.769 3.051-6.914.11-.166.287-.443.385-.596 0-.003.023-.044.11-.201.2-.37.398-.741.595-1.113.22-.42.428-.842.64-1.264.378-.742.76-1.483 1.15-2.219.483-.906.988-1.802 1.503-2.691a99.96 99.96 0 0 1 1.549-2.569c.524-.847 1.062-1.686 1.601-2.523.466-.723.931-1.445 1.391-2.172.482-.768.96-1.539 1.44-2.308a780.518 780.518 0 0 0 2.664-4.321l-3.479-4.969-3.348-2.828.092-.109c.097-.113.199-.222.301-.33a58.343 58.343 0 0 0 .34-.354l.224-.232c.08-.084.164-.165.245-.248l.23-.236c.07-.072.14-.146.209-.22.082-.086.161-.173.242-.26.09-.098.18-.194.268-.292l.29-.322.352-.387.354-.387a117.039 117.039 0 0 1 1.25-1.332 55.178 55.178 0 0 1 1.992-1.974l.508-.471.5-.46c.166-.154.33-.31.494-.464.166-.155.331-.312.496-.469l.54-.511.528-.5.518-.49c.173-.165.344-.33.516-.497l.535-.517.543-.522.527-.51.563-.538.523-.504a125.377 125.377 0 0 1 1.133-1.084c.195-.185.391-.368.588-.551.197-.184.394-.368.594-.55.199-.184.4-.365.601-.546l.568-.51c.198-.178.395-.354.594-.53.197-.176.396-.35.594-.524l.59-.52c.205-.18.409-.357.615-.535l.191-.164.332-.377c.217-.244.434-.488.653-.73a37.327 37.327 0 0 1 1.492-1.564c.123-.123.248-.245.373-.366l1.326 1.365c.415-.172.83-.346 1.252-.498a30.25 30.25 0 0 1 1.838-.568l.588 2.07a71.829 71.829 0 0 1 3.527-2.693c2.272-1.607 4.683-3 7.125-4.327 2.464-1.319 5.01-2.47 7.576-3.572 2.547-1.08 5.144-2.034 7.75-2.957 2.655-.933 5.347-1.754 8.047-2.545 2.665-.776 5.352-1.467 8.045-2.135 2.733-.673 5.489-1.25 8.25-1.794 2.906-.57 5.835-.997 8.774-1.35 3.01-.351 6.037-.502 9.066-.57.966-.019 1.93.014 2.895.037.015-.015.031-.027.047-.041l-9.832-1.807-.038.217c-.01.073.019-.112.036-.217h-.002a5.47 5.47 0 0 0 .015-.086l-.013.086h.002c.056-.35.116-.696.18-1.047.206-1.114.513-2.206.835-3.29.344-1.137.755-2.25 1.184-3.356a95.082 95.082 0 0 1 1.326-3.178 184.61 184.61 0 0 1 1.621-3.586 195.855 195.855 0 0 1 2.027-4.244c.746-1.525 1.51-3.04 2.287-4.549.82-1.583 1.663-3.154 2.506-4.725.823-1.53 1.654-3.059 2.48-4.587.833-1.535 1.66-3.072 2.487-4.61.861-1.605 1.72-3.21 2.586-4.812a599.93 599.93 0 0 1 2.693-4.92c.965-1.76 1.957-3.505 2.975-5.235a148.812 148.812 0 0 1 3.426-5.504c1.317-2.05 2.736-4.029 4.207-5.97 1.572-2.063 3.278-4.018 5.02-5.938 1.742-1.93 3.604-3.746 5.511-5.513.018-.614.043-1.226.055-1.84.022-1.156.03-2.313.021-3.469a171.43 171.43 0 0 0-.218-7.225 60.832 60.832 0 0 0-.223-3.07 43.387 43.387 0 0 0-.334-2.746 38.44 38.44 0 0 0-.49-2.543 70.257 70.257 0 0 0-.701-2.941 85.545 85.545 0 0 0-.838-2.885 86.617 86.617 0 0 0-.94-2.897c-.36-1.057-.727-2.11-1.1-3.164-.382-1.083-.769-2.165-1.152-3.248-.42-1.182-.827-2.368-1.219-3.56a119.542 119.542 0 0 1-1.977-6.871c-.208-.814-.41-1.628-.624-2.44a13.705 13.705 0 0 0-.315-1.054c-.125-.383-.272-.759-.416-1.135-.708-1.746-1.182-3.565-1.605-5.397-.505-2.307-.624-4.664-.594-7.017.028-.943.103-1.884.176-2.825.024-.298.04-.595.057-.894l-.03-.582c-.086-1.607.016-3.213.192-4.81l.072-.544 43.746 6.135c-.017-.047-.032-.11-.049-.152l.045.115.014.04.752.105.025-.204c.088-.865.15-1.737.106-2.607.048.599.043 1.202.08 1.8a42.034 42.034 0 0 1-.069 3.054l-.02.296c.079.227.169.45.243.678.388 1.2.757 2.407 1.07 3.629.226.865.445 1.73.666 2.596.179.693.362 1.386.561 2.074.196.686.395 1.37.613 2.049.275.852.577 1.696.873 2.54l.381 1.073c1.816-3.674 3.611-7.357 5.465-11.012 4.067-8.051 8.58-15.859 13.299-23.543 5.465-8.785 11.602-17.115 17.92-25.298C275.912.767 276.094.556 276.535 0Zm39.592 283.063c-1.807.428-3.577.976-5.348 1.53-.281.089-1.117.378-.84.278-.153.027-.496.174-1.08.406h7.822z" style="fill:red;fill-opacity:1;fill-rule:nonzero;stroke:none"/></clipPath><style id="style2">.cls-24,.cls-25,.cls-26{stroke:#18403f;stroke-linecap:round;stroke-linejoin:round}.cls-24{fill:none}.cls-26{fill:#2a9e8c}.cls-25{fill:#a5d672}.cls-24,.cls-25,.cls-26{stroke-width:11.61px}</style></defs><path id="path1438" d="M150.344 173.457s28.27 39.62-2.54 75.37l-22.79-52.8" class="cls-25" style="fill:#e7e2b1;fill-opacity:1;stroke:#e7e2b1;stroke-width:30.61;stroke-linecap:round;stroke-linejoin:round;stroke-miterlimit:4;stroke-dasharray:none;stroke-opacity:1"/><path id="path1440" d="m153.374 78.667 31.43-14.12s43.64 4.77 53.72 50.73l-53.75-10.79" class="cls-25" style="fill:#e7e2b1;fill-opacity:1;stroke:#e7e2b1;stroke-width:30.61;stroke-linecap:round;stroke-linejoin:round;stroke-miterlimit:4;stroke-dasharray:none;stroke-opacity:1"/><path id="path1442" d="m133.354 62.207-63.78 19.15s-17.27 69.42 34.46 126.73c69.84-32.9 80.71-103.6 80.71-103.6z" class="cls-26" style="fill:#e7e2b1;fill-opacity:1;stroke:#e7e2b1;stroke-width:30.61;stroke-linecap:round;stroke-linejoin:round;stroke-miterlimit:4;stroke-dasharray:none;stroke-opacity:1"/><path id="path298" d="M268.144 126.697a17.53 17.53 0 0 0-.89-1.79 111 111 0 0 0-16.29-23.75 77.81 77.81 0 0 0-35.22-42.26 81.7 81.7 0 0 0-29.17-10.12 16 16 0 0 0-8.22 1.3l-7.14 3.21a77.48 77.48 0 0 0 .73-8.72c0-.21.1-.41.14-.62a15.77 15.77 0 0 0-.41-7.84 57.11 57.11 0 0 0-2.37-12c-4.08-12.8-12.66-21.39-23.53-23.57-14.21-2.86-28.52 5.85-37.61 22.79a15.7 15.7 0 0 0-3.39 7.06c0 .17-.07.35-.1.53a76.43 76.43 0 0 0-2.71 8.41l-5.39-5.66a15.79 15.79 0 0 0-7.08-4.37 81.5 81.5 0 0 0-30.85-1.95c-15.88 1.95-38.45 9.44-55.76 34.1a15.86 15.86 0 0 0 9.86 24.67l38.94 7.82a169.86 169.86 0 0 0 0 30.68 166 166 0 0 0 4.83 27.8 91 91 0 0 0-13.53 15.11c-14.16 20-17.62 42.87-10 66.17a15.79 15.79 0 0 0 11.24 10.48 16.08 16.08 0 0 0 3.84.47 15.8 15.8 0 0 0 11-4.44l12.87-12.41a110.57 110.57 0 0 0 47.46 45.77 15.82 15.82 0 0 0 1.75.87 110.4 110.4 0 0 0 91 2 16.21 16.21 0 0 0 1.55-.68 110.92 110.92 0 0 0 45.09-36.92 16.38 16.38 0 0 0 1.35-1.94 110.3 110.3 0 0 0 8.06-110.17z" clip-path="url(#clipPath1636)" style="fill:#e7e2b1"/><path id="path310" d="M150.344 173.457s28.27 39.62-2.54 75.37l-22.79-52.8" class="cls-25" style="fill:#a5d672;stroke:#18403f;stroke-width:11.61px;stroke-linecap:round;stroke-linejoin:round"/><path id="path312" d="M74.734 158.267s-41.37 25.64-26.75 70.52l41.41-39.92" class="cls-25" style="fill:#a5d672;stroke:#18403f;stroke-width:11.61px;stroke-linecap:round;stroke-linejoin:round"/><path id="path314" d="M147.374 73.727a56.38 56.38 0 0 0 7.49-19.18c3.83-19.09-1.66-36.28-12.26-38.41-10.6-2.13-22.3 11.62-26.13 30.7a56.18 56.18 0 0 0-.5 20.57" class="cls-25" style="fill:#a5d672;stroke:#18403f;stroke-width:11.61px;stroke-linecap:round;stroke-linejoin:round"/><path id="path316" d="m153.374 78.667 31.43-14.12s43.64 4.77 53.72 50.73l-53.75-10.79" class="cls-25" style="fill:#a5d672;stroke:#18403f;stroke-width:11.61px;stroke-linecap:round;stroke-linejoin:round"/><path id="path318" d="m108.574 69.667-23.55-25.16s-42.13-12.48-69.17 26.06l53.72 10.79" class="cls-25" style="fill:#a5d672;stroke:#18403f;stroke-width:11.61px;stroke-linecap:round;stroke-linejoin:round"/><path id="path320" d="m133.354 62.207-63.78 19.15s-17.27 69.42 34.46 126.73c69.84-32.9 80.71-103.6 80.71-103.6z" class="cls-26" style="fill:#2a9e8c;stroke:#18403f;stroke-width:11.61px;stroke-linecap:round;stroke-linejoin:round"/><path id="line322" d="m149.894 39.507 6.58 1.32" class="cls-24" style="fill:none;stroke:#18403f;stroke-width:11.61px;stroke-linecap:round;stroke-linejoin:round"/><path id="line324" d="m126.864 34.877-6.59-1.32" class="cls-24" style="fill:none;stroke:#18403f;stroke-width:11.61px;stroke-linecap:round;stroke-linejoin:round"/><path id="polygon326" d="m707.72 872.49 30.71 6.16 9.96 29.96-20.75 23.79-30.72-6.17-9.96-29.95z" class="cls-24" style="fill:none;stroke:#18403f;stroke-width:11.61px;stroke-linecap:round;stroke-linejoin:round" transform="translate(-597.426 -774.973)"/><path id="polyline328" d="m770.92 913.13-22.53-4.52-9.96-29.96 17.87-20.49" class="cls-24" style="fill:none;stroke:#18403f;stroke-width:11.61px;stroke-linecap:round;stroke-linejoin:round" transform="translate(-597.426 -774.973)"/><path id="polyline330" d="m664.43 891.75 22.53 4.53 20.76-23.79-8.58-25.8" class="cls-24" style="fill:none;stroke:#18403f;stroke-width:11.61px;stroke-linecap:round;stroke-linejoin:round" transform="translate(-597.426 -774.973)"/><path id="polyline332" d="m678.04 947.88 18.88-21.65 30.72 6.17 9.07 27.3" class="cls-24" style="fill:none;stroke:#18403f;stroke-width:11.61px;stroke-linecap:round;stroke-linejoin:round" transform="translate(-597.426 -774.973)"/></svg>