<svg xmlns="http://www.w3.org/2000/svg" id="Layer_1" width="222.807" height="189.934" data-name="Layer 1" version="1.1"><defs id="defs4"><clipPath id="clipPath14823" clipPathUnits="userSpaceOnUse"><path id="path14825" d="M173.033 4.89v189.17h180.35V17.708l-5.363 5.229c-.01-.009-.01-.01-.043-.047l-.067-.053a25.643 25.643 0 0 0-.201-.158c-.08-.063-.16-.122-.24-.184l-.319-.246a25.213 25.213 0 0 1-2.02-1.736l-.476-.451-.488-.461a53.7 53.7 0 0 0-.916-.854c-.163-.146-.329-.288-.494-.432a25.388 25.388 0 0 0-.508-.43c-.187-.153-.373-.307-.562-.458a39.778 39.778 0 0 0-1.168-.897 18.53 18.53 0 0 0-.545-.386 25.795 25.795 0 0 0-1.303-.82c-.255-.151-.51-.3-.768-.446a24.912 24.912 0 0 0-1.512-.793c-.287-.14-.577-.275-.867-.408a98.74 98.74 0 0 0-.935-.424c-.327-.146-.654-.291-.98-.438l-.97-.433c-.329-.148-.658-.3-.986-.451a163.571 163.571 0 0 1-2.848-1.355l-.902-.442c-.332-.162-.662-.33-.99-.5a16.86 16.86 0 0 1-1.166-.666 8.384 8.384 0 0 1-1.289-.996 3.253 3.253 0 0 1-.316-.325c-.252-.31-.482-.636-.723-.955-.438-.81-.56-.988-.744-1.8Zm171.131 0 .52.301a37.604 37.604 0 0 1 1.953 1.239c.301.207.6.416.892.634a50.198 50.198 0 0 1 3.586 2.915 64.656 64.656 0 0 1 1.164 1.08l.485.457c.148.14.294.282.443.421l.176.163V4.89Z" style="fill:red;fill-opacity:1;fill-rule:nonzero;stroke:none"/></clipPath><clipPath id="clipPath15857" clipPathUnits="userSpaceOnUse"><path id="path15859" d="M0 0v351.04h427.684V152.86a220.396 220.396 0 0 1-2.541 3.645c-1.583 2.262-3.409 4.327-5.325 6.308-2.478 2.572-5.413 4.577-8.48 6.368-3.288 1.869-6.902 2.903-10.592 3.595-1.943.323-3.911.436-5.877.506-1.24.045-2.48.054-3.72.047a58.675 58.675 0 0 1-4.358-.195c-.384-.028-.758-.122-1.137-.182l-2.101 3.149-.166-.11a83.656 83.656 0 0 0-.506-.332c-.171-.111-.341-.222-.514-.332a138.29 138.29 0 0 1-.56-.357c-.21-.135-.421-.27-.627-.41a15.42 15.42 0 0 1-.64-.463 31.713 31.713 0 0 1-1.122-.893 17.523 17.523 0 0 1-.586-.51 36.929 36.929 0 0 1-.967-.912c-.16-.156-.318-.313-.474-.472l-.317-.323a53.008 53.008 0 0 1-2.205-.863c-1.778-.77-3.448-1.751-5.078-2.791-1.071-.69-2.023-1.537-2.998-2.354a4.532 4.532 0 0 1-.193-.074l.023-.058c-.42-.356-.888-.652-1.299-1.02-1.51-1.351-2.82-2.894-4.07-4.482-1.316-1.694-2.373-3.557-3.34-5.465-.909-1.808-1.561-3.721-2.133-5.656-.616-2.124-.897-4.316-1.06-6.514-.125-1.835-.014-3.67.162-5.496.078-.729.197-1.452.32-2.174l32.606 5.695c.084-.217.164-.435.25-.652a129.11 129.11 0 0 1 2.294-5.47 173.37 173.37 0 0 1 2.495-5.364c.219-.454.446-.904.67-1.355-.39-.147-.78-.298-1.182-.407-1.293.319-2.564.727-3.717 1.414-.786.49-1.487 1.002-2.152 1.633-.082.104-.157.215-.244.313-.042.046.164-.18.107-.155-.033.015-.608.684.098-.125.012-.012.026-.02.039-.033.155-.197.312-.395.46-.594.846-1.154 1.633-2.35 2.452-3.523a178.004 178.004 0 0 0 2.43-3.652 119.63 119.63 0 0 0 2.15-3.44c.485-.813.966-1.63 1.385-2.48a13.8 13.8 0 0 0 .74-1.703c.292-.57.328-1.262.506-1.868.186-.832.287-1.682.361-2.53.107-1.216.16-2.437.176-3.657a58.524 58.524 0 0 0-.05-3.815 38.815 38.815 0 0 0-.29-3.31c-.125-.982-.3-1.96-.52-2.924-.165-.744-.344-1.485-.595-2.205-.276-.892-.681-1.742-1.041-2.602a120.718 120.718 0 0 0-1.682-3.615 228.513 228.513 0 0 0-1.877-3.842 251.053 251.053 0 0 0-1.933-3.783 109.975 109.975 0 0 0-1.846-3.388 110.739 110.739 0 0 0-1.9-3.235 91.174 91.174 0 0 0-1.932-3.023 116.652 116.652 0 0 0-2.092-3.04 173.605 173.605 0 0 0-2.246-3.093 117.917 117.917 0 0 0-2.219-2.883 100.848 100.848 0 0 0-2.164-2.639 50.863 50.863 0 0 0-3.895-4.107 28.183 28.183 0 0 0-1.693-1.49 41.318 41.318 0 0 0-1.992-1.516 53.611 53.611 0 0 0-2.057-1.418c-.698-.46-1.416-.892-2.132-1.324a182.726 182.726 0 0 0-5.002-2.877c-.724-.4-1.457-.781-2.192-1.16-.894-.461-1.795-.91-2.687-1.375-.96-.498-1.92-.994-2.87-1.51a256.376 256.376 0 0 1-7.6-4.314c-.666-.39-1.33-.78-1.999-1.164a82.868 82.868 0 0 0-1.746-.973c-.688-.38-1.374-.766-2.063-1.147a57.638 57.638 0 0 1-3.052-1.826c-1.399-.922-2.77-1.891-4.037-2.99-1.016-.885-2.014-1.791-2.946-2.766a57.867 57.867 0 0 1-2.068-2.248 58.749 58.749 0 0 1-3.137-3.941 54.806 54.806 0 0 1-1.353-1.934 63.41 63.41 0 0 1-1.127-1.742 64.646 64.646 0 0 1-1.075-1.795 36.987 36.987 0 0 1-1.261-2.392 35.957 35.957 0 0 1-1.818-4.47c-.498-1.63-.928-3.281-1.135-4.978a41.645 41.645 0 0 1-.258-2.523c-.016-.237-.018-.474-.031-.711Zm410.723 0c-.311.715-.62 1.431-.934 2.145a344.808 344.808 0 0 1-1.594 3.54c-.537 1.177-1.09 2.348-1.64 3.518-.524 1.11-1.047 2.218-1.575 3.326-.505 1.061-1.014 2.121-1.521 3.182-.537 1.127-1.089 2.248-1.637 3.37l-.011.023c.387.35.798.673 1.181 1.029a99.63 99.63 0 0 1 7.51 7.875c1.117 1.306 2.2 2.639 3.271 3.982a168.767 168.767 0 0 1 3.077 3.992c.985 1.32 1.95 2.655 2.906 3.997.988 1.385 1.949 2.79 2.894 4.205a141.32 141.32 0 0 1 2.871 4.49 147.289 147.289 0 0 1 2.163 3.668V0Z" style="fill:red;fill-opacity:1;fill-rule:nonzero;stroke:none"/></clipPath><style id="style2">.cls-10,.cls-8,.cls-9{fill:none}.cls-10,.cls-7,.cls-8,.cls-9{stroke-linecap:round;stroke-linejoin:round}.cls-7,.cls-8{stroke:#f65d32;stroke-width:4.41px}.cls-9{stroke:#f2d425;stroke-width:4.47px}.cls-10{stroke:#00aedc;stroke-width:4.44px}</style></defs><path id="path13565" d="M162.754 189.465c19.001-8.339 35.267-22.782 45.794-40.663 10.528-17.881 15.265-39.112 13.338-59.772-1.985-21.281-11.043-41.842-25.406-57.67C182.117 15.534 162.53 4.528 141.54.492" style="fill:#000;fill-opacity:1;stroke:#000;stroke-width:1px;stroke-linecap:butt;stroke-linejoin:miter;stroke-opacity:1"/><rect id="rect174" width="180.35" height="189.17" x="173.033" y="4.89" clip-path="url(#clipPath14823)" rx="22.05" ry="22.05" style="stroke:#000" transform="translate(-173.033 -4.37)"/><path id="path14637" d="M135.31 35.478c-7.077 4.462-13.51 10.01-18.633 16.625-4.364 5.635-7.747 12-10.239 18.678-4.373 11.723-5.985 24.687-3.108 36.864 3.945 16.697 15.731 30.316 27.725 42.583 1.602 1.639 3.221 3.273 5.047 4.658 1.826 1.384 3.877 2.52 6.107 3.046 3.55.838 7.333.069 10.628-1.494 4.14-1.964 7.596-5.101 10.867-8.31 11.426-11.207 21.72-24.489 25.043-40.144 1.937-9.123 1.393-18.674-.842-27.728-2.956-11.973-8.911-23.25-17.456-32.142-4.996-5.2-10.819-9.553-16.937-13.37-1.554-.97-3.15-1.917-4.904-2.443a11.791 11.791 0 0 0-5.08-.353c-2.973.434-5.677 1.928-8.218 3.53z" style="fill:#000;stroke:#000;stroke-width:63.2;stroke-linecap:butt;stroke-linejoin:miter;stroke-miterlimit:4;stroke-dasharray:none;stroke-opacity:1"/><path id="line236" d="M110.67 153.28H13.643" class="cls-7" style="stroke:#f65d32;stroke-width:4.41px;stroke-linecap:round;stroke-linejoin:round"/><path id="line238" d="M85.21 174.7H13.643" class="cls-8" style="fill:none;stroke:#f65d32;stroke-width:4.41px;stroke-linecap:round;stroke-linejoin:round"/><path id="line240" d="M158.3 174.7H85.21" class="cls-8" style="fill:none;stroke:#f65d32;stroke-width:4.41px;stroke-linecap:round;stroke-linejoin:round"/><path id="line242" d="M93.04 131.86H13.643" class="cls-7" style="stroke:#f65d32;stroke-width:4.41001px;stroke-linecap:round;stroke-linejoin:round"/><path id="line244" d="M84.22 110.44H13.643" class="cls-7" style="stroke:#f65d32;stroke-width:4.41001px;stroke-linecap:round;stroke-linejoin:round"/><path id="line246" d="M59.08 89.03H42.77" class="cls-7" style="stroke:#f65d32;stroke-width:4.41px;stroke-linecap:round;stroke-linejoin:round"/><path id="line248" d="M91.621 67.61H13.643" class="cls-7" style="stroke:#f65d32;stroke-width:4.41001px;stroke-linecap:round;stroke-linejoin:round"/><path id="line250" d="M102.99 46.19H13.642" class="cls-7" style="stroke:#f65d32;stroke-width:4.41001px;stroke-linecap:round;stroke-linejoin:round"/><path id="line268" d="M136.66 109.03h17.73" class="cls-9" style="fill:none;stroke:#f2d425;stroke-width:4.47px;stroke-linecap:round;stroke-linejoin:round"/><path id="line270" d="M145.609 53.528v61.492" class="cls-9" style="fill:none;stroke:#f2d425;stroke-width:4.47px;stroke-linecap:round;stroke-linejoin:round"/><path id="path274" d="M149.418 125.928h-10.334l-.682-5.246h13.33l.387 3.056.714 4.348 1.709 11.86v1.688a2.217 2.261 0 0 1-.775 1.186c-1.21.95-3.198.396-4.439-1.26-1.24-1.657-1.263-3.749-.054-4.697a2.372 2.42 0 0 1 1.938-.396" class="cls-10" style="fill:none;stroke:#00aedc;stroke-width:2.44;stroke-linecap:round;stroke-linejoin:round;stroke-miterlimit:4;stroke-dasharray:none"/><path id="path276" d="m139.685 128.806 1.705 11.86v1.652a2.264 2.309 0 0 1-.775 1.186c-1.213.949-3.198.396-4.438-1.265-1.24-1.66-1.26-3.767-.058-4.704a2.384 2.431 0 0 1 1.938-.396" class="cls-10" style="fill:none;stroke:#00aedc;stroke-width:2.44;stroke-linecap:round;stroke-linejoin:round;stroke-miterlimit:4;stroke-dasharray:none"/><path id="path1769" d="M135.31 35.707c-7.135 4.807-13.56 10.721-18.633 17.67-4.406 6.034-7.76 12.802-10.239 19.85-4.405 12.523-6.05 26.234-3.108 39.179 3.966 17.45 15.727 31.98 27.725 45.256 1.57 1.739 3.16 3.475 4.98 4.95 1.822 1.473 3.897 2.686 6.174 3.238 3.554.862 7.355.043 10.628-1.588 4.2-2.093 7.633-5.432 10.867-8.831 11.52-12.11 21.732-26.284 25.043-42.665 1.962-9.707 1.4-19.824-.842-29.469-2.927-12.59-8.775-24.583-17.456-34.16-4.962-5.475-10.787-10.115-16.937-14.21-1.545-1.029-3.135-2.036-4.904-2.596a11.258 11.258 0 0 0-5.08-.376c-3.002.46-5.7 2.056-8.218 3.752z" style="fill:none;stroke:#00aedc;stroke-width:4.39999;stroke-linecap:butt;stroke-linejoin:miter;stroke-miterlimit:4;stroke-dasharray:none;stroke-opacity:1"/><path id="path2431" d="M136.66 99.03h17.73" class="cls-9" style="fill:none;stroke:#f2d425;stroke-width:4.47px;stroke-linecap:round;stroke-linejoin:round"/><path id="path2433" d="M136.66 89.03h17.73" class="cls-9" style="fill:none;stroke:#f2d425;stroke-width:4.47px;stroke-linecap:round;stroke-linejoin:round"/><path id="path2435" d="M136.66 79.03h17.73" class="cls-9" style="fill:none;stroke:#f2d425;stroke-width:4.47px;stroke-linecap:round;stroke-linejoin:round"/><path id="path2437" d="M136.66 69.03h17.73" class="cls-9" style="fill:none;stroke:#f2d425;stroke-width:4.47px;stroke-linecap:round;stroke-linejoin:round"/><path id="path2439" d="M136.66 59.03h17.73" class="cls-9" style="fill:none;stroke:#f2d425;stroke-width:4.47px;stroke-linecap:round;stroke-linejoin:round"/><path id="path2554" d="M156.449 24.7H13.643" class="cls-8" style="fill:none;stroke:#f65d32;stroke-width:4.41001px;stroke-linecap:round;stroke-linejoin:round"/><path id="path2556" d="M84.22 89.03H13.643" class="cls-7" style="stroke:#f65d32;stroke-width:4.41001px;stroke-linecap:round;stroke-linejoin:round"/></svg>