<svg xmlns="http://www.w3.org/2000/svg" id="Layer_1" width="285.67" height="285.67" data-name="Layer 1" version="1.1"><defs id="defs19"><linearGradient id="linear-gradient" x1="251.02" x2="251.02" y1="532.25" y2="520.23" gradientUnits="userSpaceOnUse"><stop id="stop4" offset="0" stop-color="#6e7070" stop-opacity="0"/><stop id="stop6" offset=".06" stop-color="#6e7070" stop-opacity=".11"/><stop id="stop8" offset=".24" stop-color="#6e7070" stop-opacity=".43"/><stop id="stop10" offset=".43" stop-color="#6d7070" stop-opacity=".68"/><stop id="stop12" offset=".62" stop-color="#6d7070" stop-opacity=".86"/><stop id="stop14" offset=".81" stop-color="#6d7070" stop-opacity=".96"/><stop id="stop16" offset="1" stop-color="#6d7070"/></linearGradient><style id="style2">.cls-1{fill:#dcdbdb}.cls-4{fill:#fff}.cls-5{fill:#8accdc}.cls-17{fill:#55a8b4}</style></defs><path id="path179" d="M197.625 212.095c-1.17.27-2.69.51-3.63 0-3.49-1.92-6.81-4.17-10.61-6.55l12.91-6.78c-.23-.79-.37-1.34-.56-1.87-1.58-4.43-1.58-4.42-6-3.2-5.11 1.4-10.2 2.84-15.32 4.19-.94.25-2.22.56-2.93.14-3.24-1.89-6.43-3.88-9.69-5.92h-33c-3.25 2.09-6.22 4-9.32 5.75a7.82 7.82 0 0 1-5.06.79c-6.38-1.44-12.68-3.25-19.21-5-.78 2.12-1.52 4.1-2.29 6.15l13.15 6.71c-3.43 2.18-6.35 4.25-9.49 5.91a8 8 0 0 1-4.75.68c-3.36-.54-6.66-1.53-10.26-2.4-1.69 6.56-3.29 12.76-4.95 19.24l19.49 4.9c1-3.79 1.91-7.22 2.89-10.64.25-.84.56-2 1.21-2.33 3.6-2.11 7.32-4 11.27-6.17v14.45a14.86 14.86 0 0 1 2.17.43c3 1.06 4.54.38 5.17-3.09 1-5.32 2.47-10.53 3.8-15.78.21-.87.42-2.09 1-2.44 4.8-2.76 9.71-5.35 15.08-8.25 0 4.83-.35 8.91.11 12.9.33 2.95-.61 4.71-2.7 6.53-4.68 4.06-9.19 8.33-14 12.67l4.14 5.17 13-7.54c0 4-.15 7.29.05 10.58a6 6 0 0 1-2.4 5.36c-2.51 2.14-4.84 4.49-7.48 7l14.57 13.88 14.77-13.93c-3-2.69-5.73-5-8.27-7.51a5 5 0 0 1-1.45-3.22c.07-3.75.46-7.5.73-11.27a3.23 3.23 0 0 1 .88.12c2.24 1.42 4.49 2.84 6.71 4.29 5.24 3.42 5.24 3.43 9-2.13-4.63-4.59-9.31-9.22-14-13.88-.71-.72-1.81-1.63-1.78-2.42.18-5.45.61-10.89 1-16.76a95 95 0 0 0 8.91 4.56c4.38 1.7 6.62 4.54 7.37 9.28.84 5.27 2.59 10.4 4 15.66l6.28-1.08v-14.43c3.42 1.8 6.57 3.21 9.42 5.07a8.68 8.68 0 0 1 3.1 4c1.2 3.18 1.94 6.54 2.88 9.88l19.48-5.12-5.22-19.24c-3.71.99-6.88 1.92-10.17 2.66z" class="cls-4" style="fill:#fff"/><path id="rect181" d="M128.275 173.935h33.97v21.16h-33.97z" class="cls-4" style="fill:#fff"/><circle id="circle183" cx="142.835" cy="142.835" r="136.99" style="fill:#36296d"/><circle id="circle185" cx="142.835" cy="142.835" r="136.99" style="fill:none;stroke:#dcdbdb;stroke-width:11.68999958px;stroke-miterlimit:10"/><path id="path187" d="M238.035 145.245v-2.41a95.23 95.23 0 1 0-190.45 0v2.41z" class="cls-4" style="fill:#fff"/><path id="path189" d="M198.675 185.105c-1.25.28-2.89.54-3.89 0-3.75-2.07-7.31-4.48-11.39-7l13.86-7.28c-.25-.85-.4-1.43-.6-2-1.7-4.75-1.7-4.75-6.44-3.44-5.48 1.51-10.95 3-16.45 4.5-1 .27-2.37.6-3.14.15-3.47-2-6.9-4.17-10.4-6.36h-35.43c-3.49 2.25-6.68 4.35-10 6.18a8.43 8.43 0 0 1-5.43.85c-6.85-1.55-13.62-3.49-20.62-5.34-.85 2.27-1.64 4.4-2.46 6.61l14.12 7.2c-3.69 2.33-6.82 4.56-10.19 6.34a8.65 8.65 0 0 1-5.1.73c-3.61-.58-7.15-1.64-11-2.58l-5.31 20.66 20.93 5.26c1.09-4.07 2.05-7.76 3.1-11.42.26-.9.6-2.11 1.29-2.51 3.87-2.27 7.86-4.33 12.11-6.62v15.49a17 17 0 0 1 2.32.46c3.22 1.14 4.88.41 5.55-3.32 1-5.7 2.65-11.3 4.08-16.93.23-.93.45-2.24 1.11-2.62 5.16-3 10.43-5.74 16.19-8.86 0 5.18-.37 9.57.12 13.85.36 3.16-.65 5.06-2.89 7-5 4.37-9.88 8.95-15 13.61l4.44 5.55 13.92-8.09c0 4.26-.16 7.82.06 11.35a6.43 6.43 0 0 1-2.57 5.76c-2.7 2.29-5.21 4.82-8 7.47l15.65 14.91 15.85-15c-3.21-2.88-6.15-5.36-8.87-8.06a5.29 5.29 0 0 1-1.56-3.45c.07-4 .49-8.06.78-12.11a3.42 3.42 0 0 1 .94.14c2.41 1.52 4.82 3 7.21 4.6 5.63 3.68 5.62 3.68 9.61-2.28-5-4.94-10-9.9-15-14.9-.76-.77-1.94-1.75-1.91-2.6.19-5.85.66-11.69 1.06-18 3.63 1.89 6.48 3.7 9.56 4.89 4.71 1.83 7.11 4.87 7.92 10 .9 5.65 2.78 11.16 4.25 16.81l6.74-1.17v-15.52c3.67 1.94 7 3.45 10.11 5.45a9.22 9.22 0 0 1 3.33 4.32c1.29 3.42 2.08 7 3.09 10.61l20.91-5.5c-1.93-7.11-3.75-13.84-5.6-20.65-4.03 1.06-7.47 2.06-10.96 2.86z" class="cls-4" style="fill:#fff"/><path id="rect191" d="M124.225 144.135h36.47v22.72h-36.47z" class="cls-4" style="fill:#fff"/><ellipse id="ellipse193" cx="149.74" cy="134.153" class="cls-1" rx="36.34" ry="10.02" style="fill:#dcdbdb"/><path id="path207" d="M171.285 121.265c-1.45-.48-3-.93-4.72-1.33a34 34 0 0 1-21.46 8.12h-.71a34 34 0 0 1-21.8-7.86c-1.69.43-3.26.91-4.69 1.43a38.17 38.17 0 0 0 26.49 10.61h.79a38.16 38.16 0 0 0 26.1-10.97z" class="cls-1" style="fill:#dcdbdb"/><path id="path1650" d="M146.907 79.94c-7.01-.118-13.914 2.085-20.075 5.335-6.627 3.514-12.57 8.318-17.335 14.118a22.34 22.34 0 0 0-4.195 6.663c-.638 2.66 1.045 5.149 2.611 7.135 1.423 1.748 2.68 3.615 4.438 5.06 3.87 3.777 8.058 7.256 12.797 9.897 6.48 3.806 13.846 6.343 21.425 6.264 4.229.114 8.49-.21 12.536-1.517 8.676-2.496 16.734-7.123 23.092-13.551 2.917-3.08 6.131-6.262 7.378-10.432.62-1.947-.117-3.897-.788-5.704-.487-.958-1.332-1.804-1.874-2.773-2.328-3.109-5.224-5.75-8.054-8.389-5.302-4.419-11.37-7.962-17.93-10.14-3.97-1.097-8.021-2.09-12.175-1.96a126.9 126.9 0 0 0-1.851-.005zm10.67 21.286c1.133.068.84 1.655.984 2.43.143.684-.205 2.317.987 2.084 1.197-.064 2.485.006 3.618-.251.29-1.27-.06-2.832.69-3.954.824-.418 1.28.603 1.18 1.28.19.8-.257 2.07.535 2.596 1.7.35 3.464.196 5.19.316-.158.64.392 2.13-.671 2.142-1.576.314-3.332-.004-4.834.581-.453 1.15.274 2.72-.685 3.64-.574.297-1.186-.128-1.082-.79-.317-1.03.17-2.473-.699-3.255-1.322-.326-2.73-.034-4.081-.136-.392 1.331.32 3.222-.798 4.333-1.127.454-1.418-1.174-1.505-1.947-.268-.688.122-1.757-.434-2.266-1.193-.13-2.534-.311-3.674.126-.83 1.128-.11 2.853-1.032 3.993-.75.71-1.386-.562-1.384-1.2-.316-.928.157-2.284-.693-2.952-1.094-.12-2.328-.247-3.373.154-.752.956-.28 2.35-.782 3.436-.09.764-1.083 1.102-1.348.252-.704-1.152-.064-2.73-.862-3.787-1.256-.345-2.66-.075-3.94.105-.835.41-.385 1.675-.544 2.41.114.748-.313 1.953-1.285 1.541-.75-1.128-.132-2.766-.811-3.945-.987-.541-2.264-.136-3.352-.151-1.377.197-.971 1.996-1.248 2.956.029.624-.37 1.507-1.12 1.126-.885-.876-.231-2.373-.64-3.46-.254-1.18-1.857-.543-2.67-.724-.853-.177-2.692.585-2.217-.895-.02-.717.311-1.556 1.192-1.322 1.132-.16 2.457.283 3.489-.273.764-1.155-.112-2.859.845-3.893.585-.344 1.269.101 1.126.814.22 1.022.003 2.255.533 3.167 1.374.293 2.908.127 4.244-.019.276-1.291-.047-2.824.609-3.993.768-.37 1.409.42 1.29 1.152.177.938-.41 2.644.89 2.956 1.216.05 2.61.303 3.734-.222.564-1.267-.087-2.946.83-4.056 1.124-.394 1.566 1.08 1.545 1.923.293.811-.409 2.674.89 2.43 1.059-.224 2.7.307 3.405-.386.328-1.272.037-2.952 1.04-3.958 1.047-.313 1.217 1.208 1.248 1.922.076.811-.31 2.4.962 2.4 1.03-.045 2.272.235 3.191-.235.447-1.328.056-3.12 1.197-4.123a.699.699 0 0 1 .32-.072z" style="font-variation-settings:normal;opacity:1;fill:#8f4248;fill-opacity:1;stroke:#8f4248;stroke-width:1.825;stroke-linecap:butt;stroke-linejoin:miter;stroke-miterlimit:4;stroke-dasharray:none;stroke-dashoffset:0;stroke-opacity:1;stop-color:#000;stop-opacity:1"/><path id="path209" d="M75.915 121.845v8h1.84v6.91h-12.09v-6.91h1.83v-16.88h-1.83v-6.88h9.85l7.09 11.84 7.09-11.84h9.85v6.88h-1.83v16.88h1.83v6.91h-12.09v-6.91h1.84v-8l-6.69 11.1z" class="cls-5" style="fill:#8accdc"/><path id="path211" d="m220.725 131.845-4.88 4.89h-18.93v-6.89h1.84v-16.88h-1.84v-6.88h19l4.88 4.89v7.87l-2 2 2 2zm-9.4-18.85h-4.19v4.44h4.19l1-1v-2.46zm0 11.32h-4.19v5.53h4.19l1-1v-3.56z" class="cls-5" style="fill:#8accdc"/><path id="polygon213" d="M674.75 465.24v6.88h1.83v7.95h30.22v-7.95h1.83v-6.88h-9.85l-7.09 11.84-7.09-11.84z" class="cls-17" style="fill:#55a8b4" transform="translate(-609.085 -359.155)"/><path id="path215" d="M196.915 106.085v6.88h1.84v7.95h20.08l-.09-.09 2-2v-7.83l-4.88-4.89zm15.44 10.33-1 1h-4.19v-4.44h4.19l1 1z" class="cls-17" style="fill:#55a8b4"/><path id="polyline217" d="m676.58 472.12 4.25 9.45h-4.33" class="cls-5" style="fill:#8accdc" transform="translate(-609.085 -359.155)"/><path id="polyline219" d="m807.92 472.28 4.25 9.46h-4.34" class="cls-5" style="fill:#8accdc" transform="translate(-609.085 -359.155)"/><path id="path1201" d="M103.86 106.265c.163-.178.465-.834.673-1.457.692-2.072 3.58-5.97 7.196-9.712 8.038-8.32 17.854-13.895 28.392-16.127 3.777-.8 11.572-.791 15.664.018 8.272 1.636 17.03 5.84 23.893 11.468 6.351 5.21 11.4 11.983 11.953 16.04.474 3.468-2.415 8.363-8.52 14.439-4.665 4.644-8.93 7.684-14.501 10.34-7.647 3.643-13.123 4.95-20.773 4.957-5.952.005-8.812-.475-14.464-2.431-11.723-4.057-24.343-14.304-28.5-23.142-1.319-2.8-1.55-3.803-1.012-4.393zm3.284 4.103c1.965 4.07 7.466 9.743 13.937 14.37 5.8 4.148 10.839 6.599 16.788 8.167 4.496 1.185 12.398 1.482 16.95.636 4.143-.77 9.142-2.476 13.427-4.585 10.416-5.124 21.122-16.1 21.122-21.653 0-5.548-10.705-16.404-21.544-21.847-6.501-3.265-13.155-4.885-20.063-4.885-11.456 0-23.664 5.428-33.229 14.775-5.042 4.928-8.83 10.55-8.4 12.468.105.468.56 1.618 1.012 2.554zm20.925-4.597h2.368l.101-2.129c.096-2.016.147-2.128.953-2.128.807 0 .857.112.953 2.128l.101 2.129h4.362l.102-2.129c.096-2.016.146-2.128.952-2.128.807 0 .857.112.953 2.128l.101 2.129h4.395v-1.675c0-2.07.246-2.752.99-2.752.993 0 1.394.754 1.394 2.622v1.805h4.052l.102-1.923c.072-1.344.274-2.03.67-2.279 1-.627 1.646.303 1.646 2.37v1.832h4.087v-1.555c0-1.856.473-2.872 1.337-2.872.8 0 1.046.646 1.046 2.752v1.675h4.395l.101-2.129c.096-2.016.146-2.128.953-2.128.806 0 .857.112.953 2.128l.101 2.129h5.416v2.384h-5.416l-.101 2.128c-.096 2.016-.147 2.128-.953 2.128-.807 0-.857-.112-.953-2.128l-.101-2.128h-4.395v1.674c0 2.106-.245 2.753-1.046 2.753-.864 0-1.337-1.017-1.337-2.873v-1.554h-4.053l-.102 1.922c-.071 1.344-.273 2.03-.67 2.28-1 .627-1.646-.304-1.646-2.371v-1.831h-4.086v1.83c0 2.068-.647 2.999-1.646 2.371-.397-.248-.599-.935-.67-2.279l-.102-1.922h-4.36l-.102 2.128c-.096 2.016-.146 2.128-.953 2.128-.806 0-.856-.112-.952-2.128l-.102-2.128h-4.362l-.101 2.128c-.096 2.016-.146 2.128-.953 2.128-.806 0-.857-.112-.953-2.128l-.101-2.128h-4.735v-2.384z" style="fill:#fff;fill-opacity:1;stroke-width:1"/></svg>