<svg xmlns="http://www.w3.org/2000/svg" xmlns:xlink="http://www.w3.org/1999/xlink" id="Layer_1" width="300.49" height="357.96" data-name="Layer 1" version="1.1"><defs id="defs13"><linearGradient id="linear-gradient" x1="723.26" x2="723.26" y1="499.55" y2="457.25" gradientUnits="userSpaceOnUse"><stop id="stop4" offset="0" stop-color="#ff8500"/><stop id="stop6" offset="1" stop-color="#ff8500" stop-opacity="0"/></linearGradient><linearGradient xlink:href="#linear-gradient" id="linear-gradient-2" x1="761.06" x2="761.06" y1="499.55" y2="457.25"/><linearGradient xlink:href="#linear-gradient" id="linear-gradient-3" x1="730.82" x2="730.82" y1="443.6" y2="423.98"/><linearGradient xlink:href="#linear-gradient" id="linear-gradient-4" x1="753.5" x2="753.5" y1="443.6" y2="423.98"/><linearGradient xlink:href="#linear-gradient" id="linear-gradient-5" x1="744.25" x2="744.25" y1="395.16" y2="354.24"/><clipPath id="clipPath24967" clipPathUnits="userSpaceOnUse"><path id="path24969" d="M47.008-23.441v60.004l.015-.026a452.684 452.684 0 0 1 3.963-6.207 393.16 393.16 0 0 1 4.22-6.367 304.855 304.855 0 0 1 4.507-6.451 260.792 260.792 0 0 1 4.836-6.528c1.723-2.223 3.469-4.43 5.297-6.568a217.561 217.561 0 0 1 5.289-5.98 231.455 231.455 0 0 1 5.383-5.66 308.584 308.584 0 0 1 5.363-5.303c1.889-1.81 3.786-3.612 5.736-5.356 2.026-1.803 4.07-3.587 6.178-5.295.112-.09.228-.173.34-.263zm248.111 0c1.429.843 2.873 1.662 4.26 2.574 2.146 1.419 4.269 2.874 6.332 4.412a177.148 177.148 0 0 1 5.79 4.5 567.22 567.22 0 0 1 5.093 4.2 263.054 263.054 0 0 1 5.427 4.632c1.826 1.622 3.636 3.262 5.383 4.969a156.062 156.062 0 0 1 4.707 4.785c1.284 1.37 2.569 2.741 3.836 4.127a268.794 268.794 0 0 1 4 4.463 221.359 221.359 0 0 1 3.989 4.68 239.951 239.951 0 0 1 3.91 4.86c1.383 1.787 2.748 3.588 4.05 5.434 1.29 1.84 2.564 3.69 3.774 5.584 1.26 1.978 2.503 3.968 3.66 6.008.617 1.1 1.146 2.245 1.729 3.363v-68.59ZM184.36 2.107c-1.6.006-3.192.119-4.785.254-1.811.178-3.613.433-5.414.696-1.97.293-3.93.64-5.889 1-1.836.337-3.66.729-5.48 1.148-1.664.389-3.31.843-4.95 1.322-1.46.437-2.893.962-4.32 1.498-1.317.514-2.596 1.114-3.87 1.723-1.447.708-2.861 1.478-4.268 2.26-1.407.787-2.773 1.644-4.131 2.512-1.376.887-2.71 1.835-4.033 2.796-1.41 1.033-2.778 2.121-4.137 3.22-1.4 1.14-2.754 2.332-4.102 3.532-1.435 1.29-2.83 2.622-4.222 3.957a252.395 252.395 0 0 0-4.315 4.272 174.06 174.06 0 0 0-4.027 4.242 159.681 159.681 0 0 0-3.885 4.402c-1.231 1.445-2.403 2.937-3.564 4.438a211.126 211.126 0 0 0-3.697 5.008 248.22 248.22 0 0 0-3.68 5.27 395.912 395.912 0 0 0-6.998 10.77 320.354 320.354 0 0 0-3.238 5.284 214.966 214.966 0 0 0-2.899 5.006 125.459 125.459 0 0 0-2.518 4.736 127.08 127.08 0 0 0-2.246 4.752 128.452 128.452 0 0 0-2.029 4.873 183.85 183.85 0 0 0-1.965 5.252 170.522 170.522 0 0 0-1.765 5.244 150.646 150.646 0 0 0-1.52 5.14 81.02 81.02 0 0 0-1.125 4.655 103.302 103.302 0 0 0-.892 4.906 90.78 90.78 0 0 0-.608 4.86c-.166 1.663-.256 3.334-.334 5.004-.066 1.64-.05 3.28-.025 4.922.029 1.61.145 3.218.273 4.824.14 1.629.351 3.248.58 4.867.254 1.718.569 3.425.895 5.13.326 1.7.717 3.386 1.123 5.067a100.61 100.61 0 0 0 1.353 4.932c.462 1.537.998 3.05 1.555 4.555.588 1.58 1.253 3.13 1.934 4.673.727 1.622 1.523 3.212 2.326 4.797a218.337 218.337 0 0 0 2.78 5.215 194.226 194.226 0 0 0 2.888 5.014 283.016 283.016 0 0 0 3.1 5.021 344.232 344.232 0 0 0 3.236 5.006 330.485 330.485 0 0 0 3.289 4.856 154.405 154.405 0 0 0 3.177 4.418 238.664 238.664 0 0 0 7.008 8.979 177.736 177.736 0 0 0 3.522 4.167 123.742 123.742 0 0 0 3.383 3.719 150.34 150.34 0 0 0 3.507 3.556 92.392 92.392 0 0 0 3.243 3.012 78.975 78.975 0 0 0 3.17 2.623 93.202 93.202 0 0 0 3.421 2.533c1.332.944 2.684 1.859 4.036 2.774a166.83 166.83 0 0 0 3.962 2.586c1.41.898 2.83 1.78 4.256 2.652 1.441.88 2.89 1.747 4.342 2.61 1.317.787 2.652 1.545 3.992 2.292 1.327.734 2.67 1.438 4.016 2.135 1.333.687 2.683 1.339 4.037 1.983a261.1 261.1 0 0 0 4.363 2c1.4.625 2.806 1.237 4.22 1.832.87.36.421.176 1.339.552l-16.932 41.217h94.147l-1.803-19.822c-.419.032-.834.097-1.246.172-.045.008-.088.035-.133.027-.014-.002.027-.007.041-.01a18.04 18.04 0 0 0 .992-.242c.148-.041.295-.086.442-.13.276-.083.55-.174.826-.26.24-.078.481-.154.72-.237a33.029 33.029 0 0 0 1.742-.648 76.432 76.432 0 0 0 2.434-1.028 65.72 65.72 0 0 0 1.327-.603c.556-.26 1.111-.528 1.666-.793a485.59 485.59 0 0 0 1.878-.91c.619-.303 1.23-.616 1.844-.928.66-.336 1.318-.68 1.975-1.024a515.278 515.278 0 0 0 4.42-2.337l2.199-1.186c.718-.386 1.434-.78 2.148-1.174.708-.39 1.41-.786 2.114-1.183a571.244 571.244 0 0 0 4.148-2.385 81.893 81.893 0 0 0 1.77-1.057c.52-.324 1.03-.663 1.539-1.006a75.72 75.72 0 0 0 1.629-1.156 98.87 98.87 0 0 0 1.736-1.308c.623-.474 1.24-.955 1.853-1.442a88.324 88.324 0 0 0 1.801-1.473c.66-.552 1.307-1.12 1.955-1.687a412.06 412.06 0 0 0 4.617-4.12 439.24 439.24 0 0 0 2.497-2.275 535.45 535.45 0 0 0 2.603-2.416c.878-.818 1.747-1.65 2.61-2.484a136.7 136.7 0 0 0 2.583-2.582 95.684 95.684 0 0 0 2.5-2.686c.561-.625 1.095-1.273 1.635-1.916l-2.455-3.966a26.116 26.116 0 0 0-3.52 2.601c-.483.448.102-.11.182-.187.275-.264.55-.528.819-.797.33-.334.655-.674.98-1.014.416-.43.82-.87 1.225-1.312a178.1 178.1 0 0 0 1.342-1.524c.48-.548.942-1.11 1.404-1.674.504-.624.99-1.26 1.48-1.896a59.27 59.27 0 0 0 1.344-1.854c.347-.505.665-1.027.982-1.55.356-.605.677-1.228.997-1.852.425-.845.812-1.707 1.195-2.572.45-1.024.853-2.066 1.252-3.11a79.44 79.44 0 0 0 1.207-3.466c.34-1.044.608-2.11.87-3.174a69.73 69.73 0 0 0 .78-3.785c.236-1.344.412-2.696.58-4.05.2-1.645.365-3.296.522-4.946.16-1.757.298-3.515.431-5.274.143-1.832.262-3.668.381-5.502.12-1.854.221-3.709.323-5.564.106-1.915.2-3.83.293-5.746.096-1.943.178-3.887.261-5.83.085-1.993.167-3.985.248-5.977.082-2.027.16-4.054.244-6.08.085-2.045.17-4.092.258-6.137a740.3 740.3 0 0 1 .307-6.32c.115-2.093.24-4.185.367-6.278.127-2.015.257-4.03.387-6.044.121-1.88.243-3.76.351-5.641.1-1.631.167-3.263.21-4.897a51.47 51.47 0 0 0-.057-3.771c-.078-1.38-.212-2.753-.348-4.127a181.995 181.995 0 0 0-.566-4.754c-.206-1.533-.44-3.061-.688-4.588a260.632 260.632 0 0 0-.846-4.875 408.163 408.163 0 0 0-.93-4.91 102.54 102.54 0 0 0-.89-4.092c-.321-1.314-.68-2.618-1.047-3.92a53.998 53.998 0 0 0-1.07-3.334c-.33-.914-.721-1.8-1.121-2.685-.405-.875-.88-1.714-1.354-2.553a93.112 93.112 0 0 0-2.072-3.36 102.261 102.261 0 0 0-2.375-3.493c-.8-1.125-1.64-2.22-2.486-3.311a192.358 192.358 0 0 0-2.877-3.566 166.994 166.994 0 0 0-2.967-3.475 214.326 214.326 0 0 0-3.1-3.453 412.7 412.7 0 0 0-3.375-3.629 98.2 98.2 0 0 0-3.025-3.064c-1.093-1.062-2.23-2.077-3.37-3.088a216.633 216.633 0 0 0-4.132-3.52 540.577 540.577 0 0 0-4.586-3.781 118.768 118.768 0 0 0-3.922-3.041 80.067 80.067 0 0 0-3.652-2.528c-1.186-.77-2.41-1.474-3.64-2.171a138.52 138.52 0 0 0-4.415-2.327 206.604 206.604 0 0 0-4.88-2.378 255.363 255.363 0 0 0-5.026-2.28 310.448 310.448 0 0 0-5.24-2.248 201.638 201.638 0 0 0-5.098-2.043 192.8 192.8 0 0 0-5.185-1.9 146.75 146.75 0 0 0-5.135-1.694 131.143 131.143 0 0 0-5.127-1.468c-1.764-.475-3.543-.886-5.324-1.29a177.717 177.717 0 0 0-5.614-1.134c-1.926-.356-3.86-.666-5.797-.963a210.297 210.297 0 0 0-6.056-.834c-1.998-.25-4-.454-6.004-.639a169.66 169.66 0 0 0-6.004-.42c-1.838-.097-3.678-.118-5.518-.117zM47.008 218.67v71.988h76.633c-.406-.22-.82-.428-1.223-.652-1.793-1-3.577-2.018-5.34-3.07a474.473 474.473 0 0 1-4.978-2.993 340.03 340.03 0 0 1-5.077-3.166 224.514 224.514 0 0 1-5.3-3.465 272.96 272.96 0 0 1-5.194-3.58c-1.928-1.378-3.842-2.779-5.7-4.25-1.925-1.53-3.825-3.088-5.663-4.722a149.47 149.47 0 0 1-5.314-4.961 203.706 203.706 0 0 1-4.932-5.018 181.229 181.229 0 0 1-4.928-5.427 236.209 236.209 0 0 1-4.556-5.4 297.241 297.241 0 0 1-8.659-11.102 211.577 211.577 0 0 1-4.318-6.018 377.13 377.13 0 0 1-3.94-5.822c-.51-.777-1.005-1.563-1.511-2.342zm314.05 15.498c-.734 1.638-1.48 3.271-2.298 4.87-.93 1.803-1.893 3.593-2.946 5.33a86.62 86.62 0 0 1-3.082 4.75 112.388 112.388 0 0 1-2.757 3.769 140.773 140.773 0 0 1-2.541 3.228c-.81.986-1.624 1.97-2.463 2.93-.755.866-1.513 1.728-2.285 2.578-.69.751-1.384 1.5-2.09 2.234-.62.648-1.24 1.295-1.875 1.928-.508.506-1.02 1.006-1.537 1.502a68.36 68.36 0 0 1-1.506 1.418c-1.414 1.27-2.91 2.449-4.532 3.443l-11.748-18.976a152.72 152.72 0 0 1-2.554 2.549c-.984.951-1.974 1.898-2.975 2.832-.92.86-1.845 1.717-2.771 2.57a468.77 468.77 0 0 1-7.621 6.852c-.8.698-1.599 1.397-2.413 2.078-.78.653-1.567 1.3-2.365 1.933a138.94 138.94 0 0 1-2.232 1.739c-.777.595-1.559 1.185-2.35 1.761a95.386 95.386 0 0 1-2.424 1.713c-.83.559-1.668 1.11-2.52 1.637-.773.475-1.552.94-2.337 1.396a549.819 549.819 0 0 1-4.477 2.572c-.784.443-1.568.887-2.357 1.321-.78.43-1.561.86-2.346 1.281-.772.418-1.545.832-2.318 1.248a544.66 544.66 0 0 1-4.652 2.46c-.75.393-1.499.787-2.252 1.17-.249.125-.498.248-.746.374h93.37z" style="fill:red;fill-opacity:1;fill-rule:nonzero;stroke:none"/></clipPath><style id="style2">.cls-20{fill:#2074bb}.cls-18,.cls-20{stroke:#ff8500}.cls-18,.cls-3{fill:#ff8500}.cls-18,.cls-20{stroke-miterlimit:10}.cls-25{fill:#125e91}.cls-7{fill:#0b4f75}.cls-8{fill:#073e51}.cls-18{stroke-width:17px}.cls-20{stroke-width:6.37px}.cls-21{fill:#ddad92}.cls-22{fill:#fff}.cls-23{fill:#edc4a9}.cls-27{fill:#c69379}.cls-29{fill:#827a87}</style></defs><circle id="circle205" cx="45.965" cy="288.545" r="29.37" class="cls-18" style="fill:#ff8500;stroke:#ff8500;stroke-width:17px;stroke-miterlimit:10"/><circle id="circle207" cx="254.765" cy="286.635" r="29.37" class="cls-18" style="fill:#ff8500;stroke:#ff8500;stroke-width:17px;stroke-miterlimit:10"/><circle id="circle209" cx="150.245" cy="207.715" r="146" style="fill:#2074bb;stroke:#ff8500;stroke-width:8.49px;stroke-miterlimit:10"/><path id="path211" d="M252.845 46.395a145.49 145.49 0 0 0-102.56-42.15c-41.37 0-77.75 17.21-104.31 44.85v257.3h206.87Z" style="fill:#125e91;stroke:#ff8500;stroke-width:8.49px;stroke-linecap:round;stroke-linejoin:round"/><path id="line213" d="M47.245 102.065v211.29" class="cls-20" style="fill:#2074bb;stroke:#ff8500;stroke-width:6.37px;stroke-miterlimit:10"/><path id="line215" d="M22.405 141.875v135.92" class="cls-20" style="fill:#2074bb;stroke:#ff8500;stroke-width:6.37px;stroke-miterlimit:10"/><path id="line217" d="M278.085 141.875v131.13" class="cls-20" style="fill:#2074bb;stroke:#ff8500;stroke-width:6.37px;stroke-miterlimit:10"/><path id="line219" d="M253.245 107.165v205.34" class="cls-20" style="fill:#2074bb;stroke:#ff8500;stroke-width:6.37px;stroke-miterlimit:10"/><path id="rect221" d="M89.065 163.395h19.16v137.92h-19.16z" class="cls-7" style="fill:#0b4f75"/><path id="rect223" d="M117.795 163.395h19.16v137.92h-19.16z" class="cls-7" style="fill:#0b4f75"/><path id="polygon225" d="M310.56 501.7v137.93H291.4V501.7l10.22-11.49z" class="cls-7" style="fill:#0b4f75" transform="translate(-125.715 -338.305)"/><path id="rect227" d="M203.995 170.035h19.16v131.29h-19.16z" class="cls-7" style="fill:#0b4f75"/><path id="rect229" d="M66.075 225.975h26.18v75.84h-26.18z" class="cls-7" style="fill:#0b4f75"/><path id="rect231" d="M106.945 195.965h20.43v40.23h-20.43z" class="cls-7" style="fill:#0b4f75"/><path id="rect233" d="M147.805 182.555h26.82v80.46h-26.82z" class="cls-7" style="fill:#0b4f75"/><path id="rect235" d="M219.325 179.995h21.07v121.32h-21.07z" class="cls-7" style="fill:#0b4f75"/><path id="rect237" d="M97.555 211.285h114.1v90.67h-114.1z" class="cls-7" style="fill:#0b4f75"/><path id="line239" d="M79.325 307.985v23.95" class="cls-20" style="fill:#2074bb;stroke:#ff8500;stroke-width:6.37px;stroke-miterlimit:10"/><path id="line241" d="M108.065 307.985v42.15" class="cls-20" style="fill:#2074bb;stroke:#ff8500;stroke-width:6.37px;stroke-miterlimit:10"/><path id="line243" d="M136.795 307.985v42.15" class="cls-20" style="fill:#2074bb;stroke:#ff8500;stroke-width:6.37px;stroke-miterlimit:10"/><path id="line245" d="M165.535 307.985v42.15" class="cls-20" style="fill:#2074bb;stroke:#ff8500;stroke-width:6.37px;stroke-miterlimit:10"/><path id="line247" d="M194.265 307.985v42.15" class="cls-20" style="fill:#2074bb;stroke:#ff8500;stroke-width:6.37px;stroke-miterlimit:10"/><path id="line249" d="M223.005 307.985v22.99" class="cls-20" style="fill:#2074bb;stroke:#ff8500;stroke-width:6.37px;stroke-miterlimit:10"/><ellipse id="ellipse251" cx="153.335" cy="81.615" class="cls-21" rx="42.04" ry="39.44" style="fill:#ddad92"/><path id="polygon253" d="M327.66 495.07H226.41l5.89 145.53h89.47z" class="cls-22" style="fill:#fff" transform="translate(-125.715 -338.305)"/><path id="path255" d="m99.815 153.235-49.79 20.32-25.93 93.14s-6.48 25.92 4.72 34.17 13.55 17.09 41.83 1.18h42.42z" class="cls-8" style="fill:#073e51"/><path id="path257" d="m201.855 153.235 49.79 20.32 25.93 93.14s6.48 25.92-4.72 34.17-13.55 17.09-41.83 1.18h-42.42z" class="cls-8" style="fill:#073e51"/><path id="path259" d="M99.035 122.415s.32 23.86 1.26 30.5c.94 6.64 18.67 33.53 51.25 36.55 0 0 36.06-2.11 50-35.94 0 0 2.85-22.05 2.85-30.21 0 0 11.7-12.08 13.28-16.61 1.58-4.53 2.22-15.41-12.33-18.43 0 0-4.11-21.74-18.67-23.25 0 0-14.23-19.64-33.21-18.73a45.83 45.83 0 0 0-38 19s-15.82 2.72-18.35 23.86c0 0-15.5 1.51-12 16.31 0 .03 10.44 16.95 13.92 16.95z" class="cls-23" style="fill:#edc4a9"/><path id="path261" d="M78.285 237.785s.29 25.92 12.08 39.47l6.48-4.12-.88-16.79-12.38-21.51z" class="cls-22" style="fill:#fff"/><path id="path263" d="m78.595 243.695-47.13 28.87s2.94-9.43 13.55-16.2l33.58-21.51z" class="cls-7" style="fill:#0b4f75"/><path id="path265" d="M24.095 266.695s27.11-43.31 26.22-77.78l-.29-15.32" class="cls-7" style="fill:#0b4f75"/><path id="path267" d="M205.285 88.275s-4.11-21.74-18.67-23.25a56.87 56.87 0 0 0-16.26-14.33 60.85 60.85 0 0 0-6.62-.85c-15.9-1.18-15.32 8.25-15.32 8.25l-15.9 4.13 15.32.59-2.36 10c-8 2.87-1.64 9.44-3.89 13.58-3.76 6.89-12.47 11.23-12.47 11.23l14 14.67 11.17 24.73v52.12c8.69-1.28 35.62-7.46 47.21-35.62 0 0 2.85-22.05 2.85-30.21 0 0 11.7-12.08 13.28-16.61 1.58-4.53 2.25-15.41-12.34-18.43z" class="cls-21" style="fill:#ddad92"/><path id="polygon269" d="m224.94 591.7 6.77 50.67-10.01-47.72-15.32-40.95 7.95-9.43-12.08-2.36 22.1-47.43-14.73 45.96 14.73 1.18-14.14 13.26z" class="cls-7" style="fill:#0b4f75" transform="translate(-125.715 -338.305)"/><path id="polyline273" d="m272.07 548.69-14.73 91.62h39.77l-12.66-92.8" style="fill:#2074bb" transform="translate(-125.715 -338.305)"/><circle id="circle275" cx="68.875" cy="292.185" r="4.52" class="cls-25" style="fill:#125e91"/><circle id="circle277" cx="79.485" cy="283.345" r="4.52" class="cls-25" style="fill:#125e91"/><path id="path279" d="M48.385 179.435c5.4-3.48 16.32-9.42 29.72-10.79 19.25-2 21.71-15.41 21.71-15.41l-49.79 20.32z" class="cls-7" style="fill:#0b4f75"/><path id="path281" d="M223.365 237.785s-.29 25.91-12.08 39.47l-6.48-4.12.88-16.79 12.38-21.51z" class="cls-22" style="fill:#fff"/><path id="path283" d="m223.075 243.695 47.13 28.87s-2.94-9.43-13.55-16.2l-33.58-21.51z" class="cls-7" style="fill:#0b4f75"/><path id="path285" d="M277.575 266.695s-27.11-43.31-26.22-77.78l.29-15.32" class="cls-7" style="fill:#0b4f75"/><path id="path2548" d="M148.512 249.525c-13.814-.975-28.074-6.114-37.947-13.674-7.488-5.734-12.766-11.365-13.044-13.915-.045-.418-.137-.891-.204-1.052-.883-2.116-.902-4.951-.042-6.253 1.746-2.642 10.378-10.777 14.745-13.897 27.512-19.652 67.054-15.417 89.829 9.62 3.78 4.156 4.458 5.552 3.887 8.008-.12.512-.217 1.16-.217 1.439 0 .284-.114.79-.26 1.15-.142.353-.32.92-.394 1.258-.661 3.007-7.357 10.056-14.008 14.748-12.445 8.78-28.503 13.546-42.345 12.568zm-18.034-51.744c.04-.061.213-.114.382-.116.342-.005.805-1.808.49-1.907-.137-.044-.18-.348-.044-.316.211.052 3.03-.782 3.265-.965.187-.146.263.004.263.514 0 .878.567 1.67.962 1.342a.588.588 0 0 1 .403-.123c.12.019.254-.022.3-.09.063-.095.083-.094.084.005.003.202.189.153.25-.065.029-.107-.018-.582-.103-1.055-.15-.827-.137-1.169.044-1.124.248.063 2.602-.344 3.418-.59.168-.05.208.026.274.528.146 1.108.706 1.938 1.045 1.55.075-.086.316-.154.547-.154.554 0 .654-.832.229-1.895-.155-.388-.03-.467.863-.546.452-.04 1.141-.119 1.532-.176 1.272-.187 1.97-.197 1.97-.03 0 .082-.074.15-.164.15-.278 0-.21.858.116 1.45.294.535.594.759.597.445 0-.101.036-.134.082-.075.044.058.165.11.268.118.103.008.31.044.46.08.38.09.508-.182.55-1.166l.047-1.092c.013-.283.031-.291.588-.278.316.007 1.177-.003 1.915-.021.737-.02 1.342-.035 1.344-.034.002 0 .046.445.098.989.138 1.452.182 1.513 1.105 1.526.924.014.917.026.813-1.488-.072-1.043-.065-1.097.128-1.042.113.033.55.087.97.12.422.034 1.013.087 1.313.12.301.031.831.064 1.177.072.63.015.63.015.606.848-.037 1.309.145 1.756.687 1.687.291-.037.407-.018.357.057-.044.07-.008.088.097.05a.31.31 0 0 1 .292.056c.306.292.474-.17.49-1.345.012-.948.041-1.123.179-1.09.22.054 1.82.304 2.298.36 1.636.19 1.5.064 1.553 1.453.031.847.09 1.27.177 1.298.072.022.111.072.086.11-.024.038.11.074.3.08.345.01.623.067.962.195.285.108.468-.813.376-1.894-.076-.884-.076-.884.779-.83 1.027.063 1.217.094 2.035.321.348.097.675.151.727.12.052-.03.122.015.157.1.034.086.015.156-.044.156-.058 0-.106.096-.106.214 0 .206-.011.205-.355-.043-.312-.224-.554-.31-1.56-.547-.12-.029.2.183.712.47.653.365 1.003.503 1.176.462.24-.056.247-.035.255.76.015 1.462.12 1.626 1.068 1.65.977.026 1.061-.087.96-1.283-.037-.42-.02-.845.037-.945.069-.122.047-.386-.064-.793a5.821 5.821 0 0 1-.18-1.151c-.017-.665-1.33-1.235-1.747-.758-.222.252-.3.248-2.403-.125-1.325-.235-1.392-.26-1.423-.51-.032-.264-.026-.26-1.523-.76-.038-.012-.198.108-.355.268-.25.254-.339.282-.689.22a51.902 51.902 0 0 0-1.832-.24c-1.267-.15-1.434-.193-1.469-.376-.057-.301-.132-.349-.733-.463a14.374 14.374 0 0 1-.786-.169c-.19-.051-.271-.008-.373.206-.153.32-.53.345-2.417.163a1419.5 1419.5 0 0 0-1.676-.161c-.514-.049-.55-.071-.547-.334.004-.278-.006-.282-.8-.312-.88-.034-1.111.062-1.111.46 0 .247 0 .247-1.505.249-.827.002-1.608.028-1.736.06-.186.048-.247.002-.31-.234-.134-.51-1.758-.719-1.888-.244-.032.114-.123.208-.203.208-.08 0-.186.068-.235.15-.068.117-3.399.683-4.017.683-.125 0-.06-.296.074-.339.239-.077-.13-.394-.396-.34-.128.025-.48.073-.78.106-.594.063-.93.323-.93.715 0 .203-.152.255-1.693.578-1.838.387-1.88.387-1.83.018.077-.56-1.88-.135-1.97.428-.039.242-.328.343-2.16.755-1.25.281-1.25.281-1.44.041-.191-.24-.191-.24-.993.004-.956.292-.962.3-.964 1.132-.001.425-.064.744-.179.91-.097.142-.127.257-.066.257.156 0 .225.215.402 1.255.235 1.383.662 1.909 1.065 1.312z" style="fill:#ff8500;fill-opacity:1;stroke:#125e91;stroke-width:1;stroke-miterlimit:4;stroke-dasharray:none;stroke-opacity:1"/><path id="path25386" d="M96.965 219.542c35.041 11.327 73.689 11.186 108.646-.397l.596-.199" style="opacity:.37587;fill:none;fill-opacity:1;stroke:#125e91;stroke-width:1px;stroke-linecap:butt;stroke-linejoin:miter;stroke-opacity:1"/><path id="polygon287" d="m328.16 591.7-6.77 50.67 10.01-47.72 15.32-40.95-7.95-9.43 12.08-2.36-22.1-47.43 14.73 45.96-14.73 1.18 14.14 13.26z" class="cls-7" style="fill:#0b4f75" transform="translate(-125.715 -338.305)"/><circle id="circle289" cx="232.795" cy="292.185" r="4.52" class="cls-25" style="fill:#125e91"/><circle id="circle291" cx="222.185" cy="283.345" r="4.52" class="cls-25" style="fill:#125e91"/><path id="path293" d="M223.565 168.695c13.4 1.37 24.32 7.31 29.72 10.79l-1.64-5.88-49.79-20.32s2.43 13.41 21.71 15.41z" class="cls-7" style="fill:#0b4f75"/><path id="path295" d="M101.875 102.855s10 5.3 21.8-2.36l-13 12.38 1.17 16.49z" class="cls-21" style="fill:#ddad92"/><path id="path297" d="M93.285 90.125c-4.34 1.54-10.46 5.5-8.14 15.37 0 0 6.89 11.16 11.34 15.35l2.58 1.57-2.17-31.34z" class="cls-21" style="fill:#ddad92"/><path id="path299" d="M97.455 104.915s-3.24-5.59-8.54-2.65c0 0 1.47-7.07 8.83-3.53" style="fill:#cc9b83"/><path id="path301" d="M202.035 102.855s-10 5.3-21.8-2.36l13 12.38-1.17 16.49z" class="cls-27" style="fill:#c69379"/><path id="path303" d="M148.765 104.695c-8.06 0-15.2-2.79-19.65-7.1a10.76 10.76 0 0 0-.14 1.71c0 8.13 9.23 14.73 20.62 14.73s20.63-6.6 20.63-14.73a10.67 10.67 0 0 0-.48-3.14c-4.25 5.13-12.05 8.53-20.98 8.53z" class="cls-27" style="fill:#c69379"/><path id="path305" d="M131.925 154.695a48.68 48.68 0 0 0 37.12 0s-15.91 22.4-37.12 0z" class="cls-21" style="fill:#ddad92"/><rect id="rect307" width="16.5" height="6.68" x="143.705" y="142.925" class="cls-21" rx="3.34" ry="3.34" style="fill:#ddad92"/><path id="polyline309" d="m278.46 489.48 10.6 1.96-11.39 1.18" class="cls-23" style="fill:#edc4a9" transform="translate(-125.715 -338.305)"/><path id="path311" d="M117.385 113.955s32.58 22.05 66.43 0c0 0-5.38 25.07-32.59 24.77 0 0-23.09 1.81-34.16-22z" class="cls-8" style="fill:#073e51"/><path id="path313" d="M170.415 126.815h-36.92c-4.26 0-5.75 1.85-6.22 3.54a36.09 36.09 0 0 0 23.95 8.34c10.34.11 17.52-3.44 22.46-7.88a7.64 7.64 0 0 0-3.27-4z" class="cls-22" style="fill:#fff"/><path id="path315" d="M172.285 129.205a6.73 6.73 0 0 0-1.89-1.8h-36.9a6.83 6.83 0 0 0-4.83 1.51c2 1.71 4.37 2.25 7.21 2.92 7.46 1.75 27.48 4.51 36.41-2.63z" style="fill:#e0e0e0"/><path id="path317" d="M176.575 118.025c-22.15 10.63-42.77 4.06-52.81-.61.65.3 2.1 5.84 2.78 6.79 2.48 3.43 5.44 4 9.33 4.87 9.54 2 39.62 5.56 40.83-10.11a2.41 2.41 0 0 0-.13-.94z" class="cls-22" style="fill:#fff"/><path id="path319" d="M119.765 60.205s-9.94 10-11.31 23.73l-9.32 23.49a59.68 59.68 0 0 1-2-20.75c.81-11.83 6-30.73 22.63-26.47z" class="cls-8" style="fill:#073e51"/><path id="path321" d="M184.665 60.205s9.93 10 11.31 23.73l9.31 23.49a59.68 59.68 0 0 0 2.06-20.73c-.86-11.85-6.06-30.75-22.68-26.49z" class="cls-8" style="fill:#073e51"/><path id="path323" d="M138.485 75.625s-5.17-3.76-10.38-4.24c-5.21-.48-8.91-1.88-7.91-6.23a21.39 21.39 0 0 0 6.43 3.14c3.13.73 10.92.33 11.86 7.33z" class="cls-29" style="fill:#827a87"/><path id="path325" d="M163.045 75.625s5.18-3.76 10.38-4.24c5.2-.48 8.92-1.88 7.91-6.23a21.28 21.28 0 0 1-6.42 3.14c-3.13.73-10.92.33-11.87 7.33z" class="cls-29" style="fill:#827a87"/><path id="polyline327" d="M301.24 416.41h13.26l-10.9 3.83" class="cls-27" style="fill:#c69379" transform="translate(-125.715 -338.305)"/><path id="polyline329" d="m274.92 393.83 11.2-.59-11.2-2.16" class="cls-23" style="fill:#edc4a9" transform="translate(-125.715 -338.305)"/><path id="path331" d="M161.085 82.385s1.92 14.14 22.1 6.33c0 0 2.65-2.95.14-2.95s-3.83 1-5.74 1c-1.91 0-11.05 2.07-13.4-3.38-2.35-5.45.44-2.36.44-2.36l-3.24-.44" class="cls-27" style="fill:#c69379"/><path id="path333" d="M141.985 82.385s-1.92 14.14-22.1 6.33c0 0-2.65-2.95-.14-2.95s3.83 1 5.74 1c1.91 0 11.05 2.07 13.41-3.38 2.36-5.45-.45-2.36-.45-2.36l3.24-.44" class="cls-21" style="fill:#ddad92"/><ellipse id="ellipse335" cx="171.395" cy="80.615" class="cls-22" rx="10.02" ry="3.39" style="fill:#fff"/><circle id="circle337" cx="172.185" cy="81.055" r="2.95" class="cls-3" style="fill:#ff8500"/><path id="polyline339" d="m251.75 415.82-9.14 2.07 7.37 2.35" class="cls-21" style="fill:#ddad92" transform="translate(-125.715 -338.305)"/><ellipse id="ellipse341" cx="131.925" cy="80.615" class="cls-22" rx="10.02" ry="3.39" style="fill:#fff"/><circle id="circle343" cx="132.115" cy="81.055" r="2.95" class="cls-3" style="fill:#ff8500"/><path id="path357" d="M222.135 245.995a43.18 43.18 0 0 1-8.56 18.87s-1.82 1.28-5.09.16c-3.27-1.12-14.91-15.85-16.2-16.21 0 0-8.21-1.06-12.83-1.35-4.62-.29-11.46.76-13.53-1.07-2.07-1.83-2.13-4.52-1.76-5.12.37-.6 5.32-1.45 8.36-1.31 3.04.14 15.46-2.18 16.11-2.86.65-.68 2-1 .21-3.43s-8.43-8.83-8.43-8.83-8.66-3-9.49-4.36c-.83-1.36-1.2-5.95-1.2-5.95s.44-4.72 4.05-1.81c0 0 6.65 3.85 10.42 4.39 3.77.54 7.33.77 7.33.77s1.49-5.37-5.82-8.5c-5.33-2.28-10.49-5.47-11.54-8.59-1.05-3.12-.83-6.54.66-6.68 0 0 1.4-1.88 7.39 2.65 0 0-6-3.19-6.78-7.6 0 0-1.88-5.14 3.46-4.45l2.33.41 3.71 3.86 4.18 4.21s6.28 2.18 10.94 10.48c4.66 8.3 9 16.26 9.73 19.46.73 3.2 12.35 22.86 12.35 22.86z" class="cls-21" style="fill:#ddad92"/><path id="path359" d="m179.345 194.775 9.71 5.49-13.6-11.1c.43 2.29 2.24 4.25 3.89 5.61z" class="cls-27" style="fill:#c69379"/><path id="path361" d="M194.465 218.075c.45-10.37-10.37-14-14.87-15.33-3.25-1-5.21-3.82-6.05-5.33a12.48 12.48 0 0 0 .64 3.38c1.05 3.12 6.21 6.31 11.54 8.59 7.31 3.13 5.82 8.5 5.82 8.5z" class="cls-27" style="fill:#c69379"/><path id="path363" d="m188.715 237.045 8.23-1.62c-2-7.89-15.32-13.3-19.16-13.75-3.84-.45-7.52-3.92-7.65-4a10.06 10.06 0 0 0 .81 2.85c.83 1.35 9.49 4.36 9.49 4.36s6.6 6.37 8.43 8.83.53 2.69-.15 3.33z" class="cls-27" style="fill:#c69379"/><path id="path365" d="M193.345 244.215s-20.21 2.13-28.39 1a5.92 5.92 0 0 0 1 1.17c2.07 1.83 8.92.78 13.53 1.07 4.61.29 12.8 1.36 12.8 1.36a2.81 2.81 0 0 1 .77.61c3.07-.76 6.89-1.83 7-2.5.23-1.13-6.71-2.71-6.71-2.71z" class="cls-27" style="fill:#c69379"/><path id="path367" d="M80.885 244.945a43.43 43.43 0 0 0 8.6 19s1.83 1.28 5.12.16 15-15.92 16.25-16.28c0 0 8.25-1.07 12.88-1.36 4.63-.29 11.52.76 13.61-1.08s2.14-4.53 1.76-5.14c-.38-.61-5.35-1.45-8.4-1.31-3.05.14-15.53-2.2-16.19-2.88-.66-.68-2-1-.21-3.45s8.47-8.87 8.47-8.87 8.7-3 9.53-4.37c.83-1.37 1.22-6 1.22-6s-.45-4.74-4.08-1.82c0 0-6.67 3.87-10.46 4.41-3.79.54-7.36.77-7.36.77s-1.51-5.39 5.84-8.54c5.35-2.29 10.54-5.49 11.59-8.62 1.05-3.13.84-6.58-.66-6.72 0 0-1.41-1.89-7.43 2.67 0 0 6-3.21 6.81-7.65 0 0 1.9-5.15-3.47-4.47l-2.34.42-3.68 3.88-4.2 4.23s-6.3 2.19-11 10.52-9 16.34-9.78 19.56c-.78 3.22-12.42 22.94-12.42 22.94z" class="cls-23" style="fill:#edc4a9"/><path id="path369" d="m123.875 193.485-9.76 5.52 13.66-11.16c-.42 2.31-2.24 4.28-3.9 5.64z" class="cls-21" style="fill:#ddad92"/><path id="path371" d="M108.685 216.895c-.46-10.42 10.41-14 14.94-15.4 3.27-1 5.23-3.83 6.08-5.36a12.79 12.79 0 0 1-.65 3.41c-1.05 3.13-6.24 6.33-11.59 8.62-7.35 3.15-5.84 8.54-5.84 8.54z" class="cls-21" style="fill:#ddad92"/><path id="path373" d="m114.455 235.955-8.27-1.62c2-7.93 15.4-13.37 19.25-13.82 3.85-.45 7.56-3.94 7.69-4.06a9.87 9.87 0 0 1-.82 2.87c-.83 1.35-9.53 4.37-9.53 4.37s-6.63 6.4-8.47 8.87c-1.84 2.47-.52 2.74.15 3.39z" class="cls-21" style="fill:#ddad92"/><path id="path375" d="M109.815 243.165s20.3 2.13 28.51 1a5.3 5.3 0 0 1-1 1.17c-2.09 1.84-9 .79-13.61 1.08-4.61.29-12.88 1.36-12.88 1.36a3 3 0 0 0-.78.61c-3.08-.76-6.92-1.84-7.06-2.52-.2-1.12 6.82-2.7 6.82-2.7z" class="cls-21" style="fill:#ddad92"/><path id="path457" d="M116.135 58.695c-8.84 1.34-15.17 7-18.33 16.46a43.54 43.54 0 0 0-2.12 12.8c-4.82.88-8.31 2.94-10.39 6.13-3.42 5.25-1.64 11.55-1.56 11.81l.05.14c5.48 13.48 11.22 16.76 13.84 17.56l.72 28.68-49.49 20.21-9.57 30.5-14.67 53.33c-4.68 17-5.33 30.11-2 40.17 1.4 4.2 6.93 8.52 12.35 11.9a28.24 28.24 0 0 0 10.06 2.3c-6.67-3.34-17.94-9.89-19.68-15.11-3.17-9.5-2.5-22.09 2-38.5l14.64-53.28 9.21-29.16 50.09-20.45-.8-31.81-.07-1.31-1.31-.09c-.06 0-6.36-.6-12.62-15.94-.15-.6-1.3-5.51 1.24-9.4 1.78-2.72 5-4.41 9.61-5l1.31-.17-.06-1.31c0-.26-.9-25.2 18.56-27.67l.64-.08.37-.54c.12-.19 12.9-18.66 35.1-17.23l.19-2.87c-21.93-1.46-34.93 14.69-37.31 17.93z" class="cls-22" style="fill:#fff"/><path id="path459" d="M187.215 58.695c8.71 1.34 14.95 7 18.06 16.46a44.19 44.19 0 0 1 2.08 12.8c4.75.88 8.19 2.94 10.24 6.13 3.37 5.25 1.61 11.55 1.54 11.81l-.05.14c-5.4 13.48-11.05 16.76-13.64 17.56l-.71 28.68 48.75 20.21 9.48 30.5 14.45 53.33c4.61 17 5.25 30.11 1.94 40.17-1.37 4.2-6.81 8.52-12.15 11.9a27.51 27.51 0 0 1-9.92 2.31c6.57-3.34 17.68-9.89 19.39-15.11 3.12-9.5 2.47-22.09-2-38.5l-14.39-53.29-9.07-29.16-49.33-20.45.79-31.81.07-1.31 1.29-.09c.06 0 6.26-.6 12.42-15.94.16-.6 1.29-5.51-1.21-9.4-1.76-2.72-4.94-4.41-9.47-5l-1.28-.17.05-1.31c0-.26.89-25.2-18.28-27.67l-.63-.08-.36-.54c-.13-.19-12.71-18.66-34.58-17.23l-.21-2.94c21.59-1.39 34.39 14.76 36.73 18z" class="cls-8" style="fill:#073e51"/></svg>