<svg xmlns="http://www.w3.org/2000/svg" id="Layer_1" width="89.967" height="162.559" data-name="Layer 1" version="1.1"><defs id="defs4"><clipPath id="clipPath1550" clipPathUnits="userSpaceOnUse"><path id="path1552" d="M121.863 284.652c-.01.167-.022.334-.03.5a43.692 43.692 0 0 0-.047 1.717c-.003.332-.003.664-.003.996l.002 1.069a192.33 192.33 0 0 0 .012 2.144l.012 1.076c.004.358.009.715.012 1.073a70.803 70.803 0 0 1-.018 2.238l-.021 1.072c-.006.345-.012.69-.016 1.035a53.62 53.62 0 0 0 .098 3.873l.01.162-6.61.375v101.514h91.858V301.582l-2.358.008v-.305c0-.123 0-.245-.002-.369 0-.124 0-.249-.002-.373 0-.123-.002-.248-.004-.37a15.149 15.149 0 0 0-.01-.37l-.015-.395-.016-.41-.016-.43c-.005-.144-.01-.288-.013-.433l-.014-.43c-.005-.137-.009-.275-.016-.412a10.852 10.852 0 0 0-.07-.803 29.476 29.476 0 0 0-.117-.892c-.022-.154-.044-.308-.069-.461a20.766 20.766 0 0 0-.168-.932 35.103 35.103 0 0 0-.298-1.384 17.312 17.312 0 0 0-.225-.823 13.212 13.212 0 0 0-.404-1.127l-.153-.38c-.051-.129-.105-.257-.156-.385l-.154-.391c-.051-.13-.101-.258-.15-.389l-.137-.359-.123-.324-.117-.3c-.037-.093-.072-.188-.108-.282l-.098-.26c-.029-.08-.058-.16-.085-.24-.028-.08-.057-.16-.08-.24a2.994 2.994 0 0 1-.06-.235 1.868 1.868 0 0 1-.038-.297l2.957-.115a1.147 1.147 0 0 0-.022-.186v-.002c.001.003-.004-.012-.002-.01a2.418 2.418 0 0 0 .037.115c.022.064.046.124.069.186l.088.237.101.265.117.3.13.337.134.358.14.36.15.374.15.377c.051.128.104.255.156.383.056.14.109.28.162.422a16.332 16.332 0 0 1 .32.925 20.068 20.068 0 0 1 .39 1.502c.038.168.073.336.108.504l.09.438v-8.907z" style="fill:red;fill-opacity:1;fill-rule:nonzero;stroke:none"/></clipPath><style id="style2">.cls-4{fill:#e4dfcf}.cls-8{fill:#610000}</style></defs><path id="path1346" d="M45.32 17.555a9.813 9.813 0 0 0-2.441.047c-2.756.399-5.222 1.956-7.29 3.818-3.347 3.013-5.836 6.844-8.165 10.696-3.867 6.394-7.454 13.103-8.985 20.416a42.345 42.345 0 0 0-.6 3.693c-.613 5.167-.347 10.413.46 15.553.821 5.217 2.209 10.37 4.47 15.142 2.198 4.638 5.185 8.85 8.11 13.066 1.49 2.147 2.977 4.312 4.785 6.198 1.808 1.886 3.97 3.497 6.458 4.299 2.455.791 5.219.736 7.545-.38 2.379-1.14 4.122-3.249 5.818-5.269 3.602-4.29 7.376-8.503 10.08-13.409 1.95-3.539 3.304-7.376 4.424-11.258.972-3.368 1.775-6.793 2.173-10.276.267-2.337.351-4.694.281-7.045-.192-6.429-1.545-12.815-3.904-18.798a58.17 58.17 0 0 0-4.184-8.5c-2.813-4.705-6.296-9.016-10.356-12.7-2.208-2.005-4.632-3.85-7.428-4.889a15.055 15.055 0 0 0-1.251-.404z" style="fill:#e4dfcf;fill-opacity:1;stroke:#e4dfcf;stroke-width:35;stroke-linecap:round;stroke-linejoin:round;stroke-miterlimit:4;stroke-dasharray:none;stroke-opacity:1"/><path id="polyline200" d="m117.492 284.668-1.387 70.595 45.43 47.027 44.743-47.005-1.362-66.115" clip-path="url(#clipPath1550)" style="fill:#e4dfcf;stroke:#e4dfcf;stroke-width:1.67px;stroke-miterlimit:10" transform="translate(-116.178 -241.407)"/><path id="polygon208" d="m22.739 120.28-1.34-26.78-8.68-4.99-1.35 31.77 5.68 7.4z" class="cls-8" style="fill:#610000"/><path id="path28014" d="M45.32 17.555a9.813 9.813 0 0 0-2.441.047c-2.756.399-5.222 1.956-7.29 3.818-3.347 3.013-5.836 6.844-8.165 10.696-3.867 6.394-7.454 13.103-8.985 20.416a42.345 42.345 0 0 0-.6 3.693c-.613 5.167-.347 10.413.46 15.553.821 5.217 2.209 10.37 4.47 15.142 2.198 4.638 5.185 8.85 8.11 13.066 1.49 2.147 2.977 4.312 4.785 6.198 1.808 1.886 3.97 3.497 6.458 4.299 2.455.791 5.219.736 7.545-.38 2.379-1.14 4.122-3.249 5.818-5.269 3.602-4.29 7.376-8.503 10.08-13.409 1.95-3.539 3.304-7.376 4.424-11.258.972-3.368 1.775-6.793 2.173-10.276.267-2.337.351-4.694.281-7.045-.192-6.429-1.545-12.815-3.904-18.798a58.17 58.17 0 0 0-4.184-8.5c-2.813-4.705-6.296-9.016-10.356-12.7-2.208-2.005-4.632-3.85-7.428-4.889a15.055 15.055 0 0 0-1.251-.404z" style="fill:#610000;fill-opacity:1;stroke:#610000;stroke-width:20.5;stroke-linecap:round;stroke-linejoin:round;stroke-miterlimit:4;stroke-dasharray:none;stroke-opacity:1"/><path id="polygon210" d="M16.399 96.7h-1.94v16.15l2.6-6.64 2.59 6.64.01-16.15h-1.74l-.86-3.85z" class="cls-4" style="fill:#e4dfcf"/><path id="polygon212" d="m36.552 133.693-1.34-26.77-8.68-5-1.35 31.77 5.68 7.4z" class="cls-8" style="fill:#610000"/><path id="polygon214" d="M30.212 110.113h-1.94v16.15l2.6-6.63 2.59 6.63v-16.15h-1.73l-.86-3.84z" class="cls-4" style="fill:#e4dfcf"/><path id="polygon216" d="m50.522 141.683-1.33-26.77-8.69-5-1.35 31.77 5.69 9.54z" class="cls-8" style="fill:#610000"/><path id="polygon218" d="M44.192 118.103h-1.94l-.01 16.15 2.6-6.63 2.6 6.63v-16.15h-1.73l-.86-3.84z" class="cls-4" style="fill:#e4dfcf"/><path id="polygon220" d="m64.512 134.203-1.34-26.78-8.68-4.99-1.35 31.77 5.68 7.4z" class="cls-8" style="fill:#610000"/><path id="polygon222" d="M58.172 110.623h-1.94l-.01 16.15 2.6-6.64 2.6 6.64v-16.15h-1.73l-.86-3.85z" class="cls-4" style="fill:#e4dfcf"/><path id="polygon224" d="m77.003 120.59-1.34-26.77-8.68-5-1.35 31.77 5.68 7.4z" class="cls-8" style="fill:#610000"/><path id="polygon226" d="M70.663 97.01h-1.94v16.15l2.6-6.63 2.59 6.63.01-16.15h-1.74l-.86-3.84z" class="cls-4" style="fill:#e4dfcf"/><path id="path908" d="M45.32 17.555a9.813 9.813 0 0 0-2.441.047c-2.756.399-5.222 1.956-7.29 3.818-3.347 3.013-5.836 6.844-8.165 10.696-3.867 6.394-7.454 13.103-8.985 20.416a42.345 42.345 0 0 0-.6 3.693c-.613 5.167-.347 10.413.46 15.553.821 5.217 2.209 10.37 4.47 15.142 2.198 4.638 5.185 8.85 8.11 13.066 1.49 2.147 2.977 4.312 4.785 6.198 1.808 1.886 3.97 3.497 6.458 4.299 2.455.791 5.219.736 7.545-.38 2.379-1.14 4.122-3.249 5.818-5.269 3.602-4.29 7.376-8.503 10.08-13.409 1.95-3.539 3.304-7.376 4.424-11.258.972-3.368 1.775-6.793 2.173-10.276.267-2.337.351-4.694.281-7.045-.192-6.429-1.545-12.815-3.904-18.798a58.17 58.17 0 0 0-4.184-8.5c-2.813-4.705-6.296-9.016-10.356-12.7-2.208-2.005-4.632-3.85-7.428-4.889a15.055 15.055 0 0 0-1.251-.404z" style="fill:none;stroke:#e4dfcf;stroke-width:7;stroke-linecap:round;stroke-linejoin:round;stroke-miterlimit:4;stroke-dasharray:none;stroke-opacity:1"/><path id="path3420" d="m44.458 46.288.024 33.308" style="fill:none;stroke:#e4dfcf;stroke-width:2.5;stroke-linecap:round;stroke-linejoin:miter;stroke-miterlimit:4;stroke-dasharray:none;stroke-opacity:1"/><path id="path3601" d="m40.566 45.326 8.045-.02" style="fill:none;stroke:#e4dfcf;stroke-width:2.5;stroke-linecap:round;stroke-linejoin:miter;stroke-miterlimit:4;stroke-dasharray:none;stroke-opacity:1"/><path id="path3893" d="m40.566 51.326 8.045-.02" style="fill:none;stroke:#e4dfcf;stroke-width:2.5;stroke-linecap:round;stroke-linejoin:miter;stroke-miterlimit:4;stroke-dasharray:none;stroke-opacity:1"/><path id="path3897" d="m40.566 57.326 8.045-.02" style="fill:none;stroke:#e4dfcf;stroke-width:2.5;stroke-linecap:round;stroke-linejoin:miter;stroke-miterlimit:4;stroke-dasharray:none;stroke-opacity:1"/><path id="path3901" d="m40.566 63.326 8.045-.02" style="fill:none;stroke:#e4dfcf;stroke-width:2.5;stroke-linecap:round;stroke-linejoin:miter;stroke-miterlimit:4;stroke-dasharray:none;stroke-opacity:1"/><path id="path3905" d="m40.566 69.326 8.045-.02" style="fill:none;stroke:#e4dfcf;stroke-width:2.5;stroke-linecap:round;stroke-linejoin:miter;stroke-miterlimit:4;stroke-dasharray:none;stroke-opacity:1"/><path id="path3909" d="m40.566 75.326 8.045-.02" style="fill:none;stroke:#e4dfcf;stroke-width:2.5;stroke-linecap:round;stroke-linejoin:miter;stroke-miterlimit:4;stroke-dasharray:none;stroke-opacity:1"/><path id="path3913" d="m40.566 81.326 8.045-.02" style="fill:none;stroke:#e4dfcf;stroke-width:2.5;stroke-linecap:round;stroke-linejoin:miter;stroke-miterlimit:4;stroke-dasharray:none;stroke-opacity:1"/><path id="path23597" d="M45.32 17.555a9.813 9.813 0 0 0-2.441.047c-2.756.399-5.222 1.956-7.29 3.818-3.347 3.013-5.836 6.844-8.165 10.696-3.867 6.394-7.454 13.103-8.985 20.416a42.345 42.345 0 0 0-.6 3.693c-.613 5.167-.347 10.413.46 15.553.821 5.217 2.209 10.37 4.47 15.142 2.198 4.638 5.185 8.85 8.11 13.066 1.49 2.147 2.977 4.312 4.785 6.198 1.808 1.886 3.97 3.497 6.458 4.299 2.455.791 5.219.736 7.545-.38 2.379-1.14 4.122-3.249 5.818-5.269 3.602-4.29 7.376-8.503 10.08-13.409 1.95-3.539 3.304-7.376 4.424-11.258.972-3.368 1.775-6.793 2.173-10.276.267-2.337.351-4.694.281-7.045-.192-6.429-1.545-12.815-3.904-18.798a58.17 58.17 0 0 0-4.184-8.5c-2.813-4.705-6.296-9.016-10.356-12.7-2.208-2.005-4.632-3.85-7.428-4.889a15.055 15.055 0 0 0-1.251-.404z" style="fill:none;stroke:#e4dfcf;stroke-width:7.1;stroke-linecap:round;stroke-linejoin:round;stroke-miterlimit:4;stroke-dasharray:none;stroke-opacity:1"/></svg>