<svg xmlns="http://www.w3.org/2000/svg" id="Layer_1" width="261.73" height="285.369" data-name="Layer 1" version="1.1"><defs id="defs4"><style id="style2">.cls-1{fill:#fbee28}.cls-2,.cls-9{fill:#231f20}.cls-10,.cls-9{stroke:#231f20;stroke-linecap:round;stroke-linejoin:round}.cls-10{fill:none}.cls-9{stroke-width:2px}.cls-10{stroke-width:8.39px}</style></defs><path id="rect196" d="M12.02 44.7h237.12v125.88H12.02z" class="cls-2" style="fill:#231f20"/><path id="path198" d="M12.318 45.098v125.88a118.56 118.56 0 0 0 237 0V45.098z" class="cls-2" style="fill:#231f20"/><path id="path200" d="M218.4 162.22a11.19 11.19 0 0 1-.52 3.28 13.21 13.21 0 0 1-1.59 3.4 17.11 17.11 0 0 1-2.74 3.23 18.48 18.48 0 0 1-4 2.79 26.55 26.55 0 0 1-5.33 2.06 33.32 33.32 0 0 1-6.72 1.06 11.91 11.91 0 0 1 3.8 2.17 13.23 13.23 0 0 1 2.55 3 16 16 0 0 1 1.62 3.46c.41 1.21.75 2.4 1 3.57s.53 2.29.76 3.36a19.26 19.26 0 0 0 .81 2.82 5.44 5.44 0 0 0 1.19 2 2.52 2.52 0 0 0 1.91.73 8.86 8.86 0 0 0 2.42-.37 15.53 15.53 0 0 0 2.7-1.06 21.06 21.06 0 0 0 5.24-3.7l3.77 6.37a3.47 3.47 0 0 0-.62.4c-.41.29-1 .66-1.72 1.11-.72.45-1.61.93-2.62 1.46a27.78 27.78 0 0 1-3.32 1.47 28.27 28.27 0 0 1-3.85 1.14 19 19 0 0 1-4.14.46 6.86 6.86 0 0 1-4-1.17 10.08 10.08 0 0 1-2.84-3.09 19.83 19.83 0 0 1-1.95-4.36c-.52-1.64-1-3.31-1.36-5-.36-1.69-.76-3.38-1.09-5a42.82 42.82 0 0 0-1.12-4.36 11.13 11.13 0 0 0-1.46-3.09 2.53 2.53 0 0 0-2.11-1.17h-2.05q-.64 7.11-1.62 12.75a46.57 46.57 0 0 1-2.58 9.56 15.41 15.41 0 0 1-4 6 8.75 8.75 0 0 1-5.92 2.08 11.27 11.27 0 0 1-4.76-1 13.48 13.48 0 0 1-3.9-2.71 18.43 18.43 0 0 1-3-4 26.66 26.66 0 0 1-2.16-5 34.89 34.89 0 0 1-1.3-5.47 36.76 36.76 0 0 1-.44-5.61 39.32 39.32 0 0 1 4.86-19 38.91 38.91 0 0 1 5.69-7.88 37.69 37.69 0 0 1 7.52-6.2 36.62 36.62 0 0 1 9.09-4.07 36.18 36.18 0 0 1 10.41-1.46 26.15 26.15 0 0 1 4.83.45 25.23 25.23 0 0 1 4.58 1.33 20.36 20.36 0 0 1 4 2.18 15.27 15.27 0 0 1 3.22 3 13.66 13.66 0 0 1 2.12 3.72 12.33 12.33 0 0 1 .74 4.36zm-20.16-7.82a28.59 28.59 0 0 0-9.56 1.49 25.52 25.52 0 0 0-7.39 4 26.09 26.09 0 0 0-5.42 5.88 34.82 34.82 0 0 0-3.63 7 38.12 38.12 0 0 0-2 7.43 42.6 42.6 0 0 0-.64 7.18 30.35 30.35 0 0 0 .46 5.27 18.82 18.82 0 0 0 1.43 4.76 9.69 9.69 0 0 0 2.51 3.42 5.54 5.54 0 0 0 3.72 1.32 2.66 2.66 0 0 0 1.95-.86 7.75 7.75 0 0 0 1.49-2.31 21.29 21.29 0 0 0 1.14-3.34c.32-1.27.59-2.58.81-3.94.22-1.36.39-2.74.52-4.13.13-1.39.23-2.68.31-3.89.08-1.21.12-2.29.14-3.23.02-.94 0-1.66 0-2.16a20.9 20.9 0 0 1-3.85-2.24 3 3 0 0 1-1.32-2.41v-.77a3.21 3.21 0 0 1 .21-.85 1.85 1.85 0 0 1 .47-.66 1.19 1.19 0 0 1 .83-.28c.15 0 .46 0 .91.08s.93.12 1.43.2l1.38.19a6.76 6.76 0 0 0 .83.08v-.68c0-.35.06-.82.11-1.43s.15-1.25.28-2a13.84 13.84 0 0 1 .57-2.09 7.92 7.92 0 0 1 1-1.92 5.15 5.15 0 0 1 1.48-1.39 3.85 3.85 0 0 1 2.09-.54 2.59 2.59 0 0 1 2.16.73 3.13 3.13 0 0 1 .53 1.87v.29a23.58 23.58 0 0 1-.37 3.26 78.22 78.22 0 0 0-.63 4.7 35.89 35.89 0 0 0 8.73-1.06 17.18 17.18 0 0 0 5.46-2.42 8.45 8.45 0 0 0 2.82-3.2 7.88 7.88 0 0 0 .81-3.36 6.5 6.5 0 0 0-.76-3 7.72 7.72 0 0 0-2.26-2.58 11.59 11.59 0 0 0-3.7-1.78 17.58 17.58 0 0 0-5.05-.63z" class="cls-1" style="fill:#fbee28"/><path id="path204" d="M138.04 163.82c36.82-51.73 67.48-61.83 111.6-58.83V94.47c-46.68-3-80.92 8.11-120.2 63.28-36.12 50.75-73.41 35.32-75 34.61a5.42 5.42 0 0 0-1.7-.41c-26-20.13-37.46-63.23-41.18-80.85v37.39q.48 1.26 1 2.52c12.9 32.18 31.33 52.78 53.29 59.55 10.38 3.2 21.46 5.93 32.17 8.57 39.42 9.7 76.79 18.91 92.15 51q4.61-2.64 8.93-5.68c-17.77-35.58-58.78-45.7-98.55-55.49-6-1.49-12.19-3-18.24-4.61 25.66-5 44.39-24.6 55.73-40.53z" class="cls-1" style="fill:#fbee28"/><path id="path206" d="M248.58 21.92a25 25 0 0 1-12.13.19c-3-.6-6-1.76-7.74-4.4-1.74-2.64-1.49-6.92 1-9 1.11-.92 4-2.79 5-1.36-8.38-11.17-23.12-3.57-30.1 5.75a24.34 24.34 0 0 1-16.29 9.17c-5.44.75-13.42.19-16.74-4.92-1.66-2.56-1.49-6.92 1-9 1.11-.92 4-2.79 5-1.36-8.38-11.17-23.12-3.57-30.1 5.75a24.55 24.55 0 0 1-16.25 9.25c-5.46.82-13.42.33-16.78-4.84-1.66-2.55-1.48-6.91 1-8.94 1.11-.92 4-2.79 5-1.36-8.38-11.17-23.13-3.57-30.11 5.74a24.29 24.29 0 0 1-16.28 9.18c-5.45.74-13.42.19-16.75-4.93-1.66-2.55-1.48-6.92 1-8.94 1.12-.92 4-2.79 5.06-1.36-8.38-11.17-23.13-3.57-30.11 5.74S15.1 21.59 15.1 21.59h-1V46.7h234.48Z" class="cls-9" style="fill:#231f20;stroke:#231f20;stroke-width:2px;stroke-linecap:round;stroke-linejoin:round"/><path id="polyline208" d="m622.97 401.58-11.55 30.4h26.23" class="cls-9" style="fill:#231f20;stroke:#231f20;stroke-width:2px;stroke-linecap:round;stroke-linejoin:round" transform="translate(-610.42 -380.01)"/><path id="polyline210" d="M845.92 433h25.23l-11.54-30.39" class="cls-9" style="fill:#231f20;stroke:#231f20;stroke-width:2px;stroke-linecap:round;stroke-linejoin:round" transform="translate(-610.42 -380.01)"/><path id="line212" d="M81.97 62.16v82.18" class="cls-10" style="fill:none;stroke:#231f20;stroke-width:8.39000034px;stroke-linecap:round;stroke-linejoin:round"/><path id="path216" d="M49.09 70.55s26.58 37.07 0 66.45" class="cls-10" style="fill:none;stroke:#231f20;stroke-width:8.39000034px;stroke-linecap:round;stroke-linejoin:round"/><path id="path1237" d="M82.864 61.727c-1.043-.063-2.09.114-3.09.421-1.526.469-2.946 1.235-4.283 2.107-3.735 2.436-6.864 5.71-9.55 9.27-4.2 5.56-7.375 11.851-9.762 18.398-1.32 3.622-2.414 7.382-2.528 11.236-.097 3.289.522 6.555 1.264 9.76 1.352 5.84 3.162 11.664 6.39 16.714 1.573 2.46 3.462 4.704 5.408 6.882 2.806 3.142 5.76 6.18 9.129 8.708 1.8 1.351 3.728 2.559 5.828 3.37.34.132.69.254 1.054.281.606.046 1.199-.175 1.755-.42 2.931-1.296 5.453-3.361 7.795-5.549 6.636-6.198 12.194-13.687 15.38-22.19 2.3-6.142 3.333-12.77 2.878-19.312-.501-7.212-2.809-14.265-6.46-20.505-3.018-5.158-6.937-9.764-11.377-13.764-2.09-1.883-4.34-3.661-6.952-4.705-.921-.368-1.889-.643-2.879-.702z" style="fill:#fbee28;stroke:#fbee28;stroke-width:1px;stroke-linecap:butt;stroke-linejoin:miter;stroke-opacity:1;fill-opacity:1"/><path id="path1307" d="m82.169 124.592-.436-42.102" style="fill:#231f20;stroke:#231f20;stroke-width:3;stroke-linecap:round;stroke-linejoin:miter;stroke-miterlimit:4;stroke-dasharray:none;stroke-opacity:1;fill-opacity:1"/><path id="path1443" d="m87.29 88.597-10.607-.02" style="fill:#231f20;stroke:#231f20;stroke-width:3;stroke-linecap:round;stroke-linejoin:miter;stroke-miterlimit:4;stroke-dasharray:none;stroke-opacity:1;fill-opacity:1"/><path id="path1765" d="m87.29 94.597-10.607-.02" style="fill:#231f20;stroke:#231f20;stroke-width:3;stroke-linecap:round;stroke-linejoin:miter;stroke-miterlimit:4;stroke-dasharray:none;stroke-opacity:1;fill-opacity:1"/><path id="path1771" d="m122.545 82.597-70.193-.02" style="fill:#231f20;fill-opacity:1;stroke:#231f20;stroke-width:1.7;stroke-linecap:round;stroke-linejoin:miter;stroke-miterlimit:4;stroke-dasharray:none;stroke-opacity:1"/><path id="path1777" d="m87.29 100.597-10.607-.02" style="fill:#231f20;stroke:#231f20;stroke-width:3;stroke-linecap:round;stroke-linejoin:miter;stroke-miterlimit:4;stroke-dasharray:none;stroke-opacity:1;fill-opacity:1"/><path id="path1783" d="m87.29 106.597-10.607-.02" style="fill:#231f20;stroke:#231f20;stroke-width:3;stroke-linecap:round;stroke-linejoin:miter;stroke-miterlimit:4;stroke-dasharray:none;stroke-opacity:1;fill-opacity:1"/><path id="path1789" d="m87.29 112.597-10.607-.02" style="fill:#231f20;stroke:#231f20;stroke-width:3;stroke-linecap:round;stroke-linejoin:miter;stroke-miterlimit:4;stroke-dasharray:none;stroke-opacity:1;fill-opacity:1"/><path id="path1795" d="m87.29 118.597-10.607-.02" style="fill:#231f20;stroke:#231f20;stroke-width:3;stroke-linecap:round;stroke-linejoin:miter;stroke-miterlimit:4;stroke-dasharray:none;stroke-opacity:1;fill-opacity:1"/><path id="path1801" d="m118.815 126.597-73.57-.02" style="fill:#231f20;fill-opacity:1;stroke:#231f20;stroke-width:5.9;stroke-linecap:round;stroke-linejoin:miter;stroke-miterlimit:4;stroke-dasharray:none;stroke-opacity:1"/><path id="path10909" d="m118.815 80.597-73.57-.02" style="fill:#231f20;fill-opacity:1;stroke:#231f20;stroke-width:5.9;stroke-linecap:round;stroke-linejoin:miter;stroke-miterlimit:4;stroke-dasharray:none;stroke-opacity:1"/></svg>