<svg xmlns="http://www.w3.org/2000/svg" width="978" height="1974" fill="none" viewBox="0 0 978 1974"><path fill="#fff" fill-rule="evenodd" d="M435.998.468c-.825.194-4.875.892-9 1.552-16.471 2.637-36.789 10.794-52.5 21.077-4.444 2.909-12.947 10.163-19.13 16.32-20.253 20.167-31.761 42.155-38.512 73.583-1.967 9.156-2.262 13.508-2.307 34-.053 24.634.51 29.993 5.092 48.391 6.913 27.759 21.075 53.04 41.554 74.18l10.803 11.151v184.363l-3.841 5.208c-6.066 8.222-14.524 22.918-17.628 30.629l-2.844 7.065-11.093 7.169c-29.336 18.96-36.732 24.205-44.788 31.763-19.823 18.598-31.527 38.35-37.047 62.522-2.627 11.506-2.841 32.517-.439 43.198 8.862 39.406 36.487 69.787 75.93 83.507l6.75 2.347v161.489l-9.918 4.977c-63.765 31.999-128.14 83.563-176.464 141.351-81.788 97.8-131.302 225.37-145.04 373.69-3.565 38.5-4.826 99.56-2.521 122.14 6.138 60.16 41.392 111.13 95.59 138.21 19.657 9.82 79.067 26.16 127.353 35.02 32.54 5.97 74.666 11 102.641 12.25l15.141.68.619 4.6c2.037 15.15 13.417 55.12 22.092 77.6 27.707 71.8 74.826 128.28 129.007 154.63 15.157 7.38 22.409 8.87 43.048 8.87 15.5 0 18.111-.26 26.028-2.55 16.787-4.87 34.738-16.06 45.768-28.54 10.261-11.61 18.414-27.69 22.255-43.91 1.633-6.9 1.805-16.37 2.133-117.77l.358-110.26 12.847-6.44c17.885-8.96 36.854-19.99 55.063-32.01 146.089-96.48 236.572-247.89 264.437-442.52 6.197-43.28 8.028-70.93 8.047-121.5.015-40.33-.124-43.77-2.239-55.4-4.354-23.958-13.769-47.245-27.39-67.75-5.217-7.854-10.955-14.598-20.781-24.424-21.007-21.007-40.837-33.18-68.97-42.34-45.68-14.874-105.852-27.858-157.604-34.009-16.938-2.013-48.912-4.577-57.079-4.577h-6.421l.042-118.25.043-118.25 12.665-8c32.519-20.541 47.661-35.741 59.77-60 12.619-25.281 14.99-55.001 6.441-80.711-11.083-33.328-36.961-59.246-71.211-71.317l-7.75-2.731v-99.138c0-57.994-.433-105.77-1.044-115.12-2.356-36.074-8.439-61.925-19.743-83.898-17.454-33.93-45.87-53.825-103.477-72.452C486.252 2.216 478.633.857 456.498.459c-10.45-.188-19.675-.184-20.5.009m-1.5 37.055c-34.053 6.279-60.959 27.108-74.056 57.331-15.186 35.043-13.486 82.083 4.25 117.603 8.617 17.258 21.142 32.661 36.208 44.527l8.098 6.379v214.843l-4.633 5.147c-9.668 10.739-18.626 26.079-23.874 40.884l-2.743 7.736-25.792 16.573c-14.185 9.115-29.096 19.392-33.134 22.838-13.587 11.592-23.95 27.825-28.008 43.871-3.772 14.916-1.594 34.335 5.41 48.238 11.209 22.251 35.791 38.297 67.524 44.076l9.25 1.685v213.558l-17.395 8.482c-39.791 19.404-76.356 43.169-111.605 72.536-14.933 12.44-51.95 49.47-64.143 64.17-71.02 85.6-115.487 190.41-133.22 314-8.894 61.99-11.277 142.76-5.074 172 8.615 40.62 36.62 76.26 73.767 93.9 22.191 10.53 86.122 26.91 136.751 35.03 34.614 5.56 74.961 9.07 104.169 9.07 10.313 0 18.752.34 18.755.75.027 3.7 4.789 31.99 7.533 44.75 11.655 54.21 34.579 104.87 63.889 141.18 23.26 28.82 57.671 54.25 79.764 58.96 25.531 5.44 53.524-8 64.868-31.14 7.365-15.03 6.941-6.52 6.941-139.24v-119.32l6.25-2.68c22.848-9.79 55.15-27.47 78.596-43.01 32.515-21.56 55.225-40.22 84.205-69.2 22.064-22.06 33.792-35.43 49.631-56.55 63.596-84.82 103.793-192.17 117.761-314.5 6.337-55.5 7.105-124.67 1.654-149-5.859-26.153-17.62-47.563-36.564-66.563-19.191-19.248-35.425-27.968-71.533-38.421-70.702-20.468-145.938-31.976-209.25-32.006l-20.75-.01V584.297l19.25-12.298c31.725-20.268 39.756-26.637 49.175-38.999 13.302-17.459 19.002-39.144 15.245-58-6.712-33.696-32.822-55.951-74.61-63.597l-8.988-1.644-.341-126.629c-.309-114.501-.508-127.665-2.082-137.433-3.909-24.259-9.715-41.18-18.781-54.733-9.865-14.748-21.714-23.764-44.734-34.036-12.813-5.717-43.045-16-54.134-18.413-10.662-2.32-33.474-2.84-43.5-.992m6.605 60.06c-14.865 3.997-23.574 13.071-28.757 29.96-2.687 8.758-2.455 32.032.426 42.587 4.304 15.767 13.461 30.084 25.529 39.911 6.787 5.528 21.714 13.496 27.215 14.528l3.482.654-.026 140.638-.026 140.639-5.011 3.4c-8.143 5.524-19.147 17.975-23.206 26.258-4.006 8.174-6.724 17.64-6.745 23.486-.007 2.121-.275 4.83-.594 6.02-.4 1.494-11.007 8.889-34.236 23.871-40.123 25.877-42.946 27.922-47.01 34.059-7.251 10.947-2.09 18.37 16.354 23.522 10.505 2.934 24.413 3.169 29.5.498 9.905-5.201 13.724-13.257 12.571-26.518-.81-9.314.578-16.362 4.413-22.41 3.018-4.759 9.441-9.221 14.822-10.297l3.169-.634.304 546.375c.281 506.32.427 547.21 1.99 557.87 8.653 59.01 26.648 107.5 52.778 142.23 10.186 13.54 26.951 29.7 39.453 38.01l10 6.66.274-663.7.274-663.7 32.654-21c17.959-11.55 34.261-22.056 36.226-23.346 10.035-6.59 16.858-16.3 15.57-22.161-1.428-6.502-11.794-11.978-27.921-14.748-15.468-2.658-26.144.99-31.26 10.681-2.098 3.974-2.326 5.657-2.23 16.5.127 14.365-1.79 20.93-7.831 26.816-3.88 3.781-9.693 6.758-13.196 6.758-1.997 0-2.006-.656-2.374-185.75-.27-136.199-.682-187.484-1.541-192.25-1.956-10.849-4.068-18.19-7.112-24.72-2.407-5.163-3.836-6.818-8.411-9.745-10.337-6.613-37.279-16.969-54.622-20.996-8.075-1.875-17.823-1.858-24.895.044m196.483 845.505c.598.776 50.091 65.942 109.983 144.822l108.895 143.4 1.178-4.07c2.194-7.57 8.355-43.64 10.804-63.24 4.422-35.39 5.043-46.59 5.048-91 .004-41.77-.036-42.63-2.338-50-4.948-15.85-13.871-28.413-26.649-37.531-8.139-5.807-12.933-7.876-30.509-13.164-52.723-15.861-115.957-27.37-164.5-29.941-11.115-.589-12.842-.484-11.912.724M120.651 1338.64c-1.607 5.41-6.966 35.62-9.567 53.93-5.238 36.89-6.293 51.82-6.82 96.57-.568 48.26-.151 52.16 7.19 67.36 7.022 14.54 19.54 26.63 34.349 33.18 7.86 3.47 46.097 14.3 67.703 19.17 39.36 8.86 80.14 14.78 115.492 16.77 10.685.6 12.34.5 11.397-.71-.607-.77-49.602-65.31-108.877-143.41-59.276-78.1-108.345-142.61-109.044-143.36-1.063-1.14-1.361-1.06-1.823.5" clip-rule="evenodd"/><path fill="#005430" fill-rule="evenodd" d="M434.497 37.523c-34.053 6.279-60.959 27.108-74.056 57.331-15.186 35.043-13.486 82.083 4.25 117.603 8.617 17.258 21.142 32.661 36.208 44.527l8.098 6.379v214.843l-4.633 5.147c-9.668 10.739-18.626 26.079-23.874 40.884l-2.743 7.736-25.792 16.573c-14.185 9.115-29.096 19.392-33.134 22.838-13.587 11.592-23.95 27.825-28.008 43.871-3.772 14.916-1.594 34.335 5.41 48.238 11.209 22.251 35.791 38.297 67.524 44.076l9.25 1.685v213.558l-17.395 8.482c-39.791 19.404-76.356 43.169-111.605 72.536-14.933 12.44-51.95 49.47-64.143 64.17-71.02 85.6-115.487 190.41-133.22 314-8.894 61.99-11.277 142.76-5.074 172 8.615 40.62 36.62 76.26 73.767 93.9 22.191 10.53 86.122 26.91 136.751 35.03 34.614 5.56 74.961 9.07 104.169 9.07 10.313 0 18.752.34 18.755.75.027 3.7 4.789 31.99 7.533 44.75 11.655 54.21 34.579 104.87 63.889 141.18 23.26 28.82 57.671 54.25 79.764 58.96 25.531 5.44 53.524-8 64.868-31.14 7.365-15.03 6.941-6.52 6.941-139.24v-119.32l6.25-2.68c22.848-9.79 55.15-27.47 78.596-43.01 32.515-21.56 55.225-40.22 84.205-69.2 22.064-22.06 33.792-35.43 49.631-56.55 63.596-84.82 103.793-192.17 117.761-314.5 6.337-55.5 7.105-124.67 1.654-149-5.859-26.153-17.62-47.563-36.564-66.563-19.191-19.248-35.425-27.968-71.533-38.421-70.702-20.468-145.938-31.976-209.25-32.006l-20.75-.01V584.297l19.25-12.298c31.725-20.268 39.756-26.637 49.175-38.999 13.302-17.459 19.002-39.144 15.245-58-6.712-33.696-32.822-55.951-74.61-63.597l-8.988-1.644-.341-126.629c-.309-114.501-.508-127.665-2.082-137.433-3.909-24.259-9.715-41.18-18.781-54.733C567 76.216 555.151 67.2 532.131 56.928c-12.813-5.717-43.045-16-54.134-18.413-10.662-2.32-33.474-2.84-43.5-.992m6.605 60.06c-14.865 3.997-23.574 13.071-28.757 29.96-2.687 8.758-2.455 32.032.426 42.587 4.304 15.767 13.461 30.084 25.529 39.911 6.787 5.528 21.714 13.496 27.215 14.528l3.482.654-.026 140.638-.026 140.639-5.011 3.4c-8.143 5.524-19.147 17.975-23.206 26.258-4.006 8.174-6.724 17.64-6.745 23.486-.007 2.121-.275 4.83-.594 6.02-.4 1.494-11.007 8.889-34.236 23.871-40.123 25.877-42.946 27.922-47.01 34.059-7.251 10.947-2.09 18.37 16.354 23.522 10.505 2.934 24.413 3.169 29.5.498 9.905-5.201 13.724-13.257 12.571-26.518-.81-9.314.578-16.362 4.413-22.41 3.018-4.759 9.441-9.221 14.822-10.297l3.169-.634.304 546.375c.281 506.32.427 547.21 1.99 557.87 8.653 59.01 26.648 107.5 52.778 142.23 10.186 13.54 26.951 29.7 39.453 38.01l10 6.66.274-663.7.274-663.7 32.654-21c17.959-11.55 34.261-22.056 36.226-23.346 10.035-6.59 16.858-16.3 15.57-22.161-1.428-6.502-11.794-11.978-27.921-14.748-15.468-2.658-26.144.99-31.26 10.681-2.098 3.974-2.326 5.657-2.23 16.5.127 14.365-1.79 20.93-7.831 26.816-3.88 3.781-9.693 6.758-13.196 6.758-1.997 0-2.006-.656-2.374-185.75-.27-136.199-.682-187.484-1.541-192.25-1.956-10.849-4.068-18.19-7.112-24.72-2.407-5.163-3.836-6.818-8.411-9.745-10.337-6.613-37.279-16.969-54.622-20.996-8.075-1.875-17.823-1.858-24.895.044m196.483 845.505c.598.776 50.091 65.942 109.983 144.822l108.895 143.4 1.178-4.07c2.194-7.57 8.355-43.64 10.804-63.24 4.422-35.39 5.043-46.59 5.048-91 .004-41.77-.036-42.63-2.338-50-4.948-15.84-13.871-28.413-26.649-37.531-8.139-5.807-12.933-7.876-30.509-13.164-52.723-15.861-115.957-27.37-164.5-29.941-11.115-.589-12.842-.484-11.912.724M120.65 1338.64c-1.607 5.41-6.966 35.62-9.567 53.93-5.238 36.89-6.293 51.82-6.82 96.57-.568 48.26-.151 52.16 7.19 67.36 7.022 14.54 19.54 26.63 34.349 33.18 7.86 3.47 46.097 14.3 67.703 19.17 39.36 8.86 80.14 14.78 115.492 16.77 10.685.6 12.34.5 11.397-.71-.607-.77-49.602-65.31-108.877-143.41-59.276-78.1-108.345-142.61-109.044-143.36-1.063-1.14-1.361-1.06-1.823.5" clip-rule="evenodd"/></svg>