<svg xmlns="http://www.w3.org/2000/svg" id="Layer_1" width="289.885" height="235.16" data-name="Layer 1" version="1.1"><defs id="defs4"><style id="style2">.cls-4{fill:#c0c5ce}.cls-4,.cls-5{stroke:#5685ef;stroke-linecap:round;stroke-linejoin:round}.cls-4{stroke-width:14.5px}.cls-5,.cls-9{fill:#3a3a3a;stroke-width:8.76px}.cls-9{stroke:#f71ef7;stroke-miterlimit:10}</style></defs><path id="path40348" d="M58.346 139.25H191.14v23.562H76.823A18.483 23.562 0 0 1 58.34 139.25v0z" class="cls-5" style="fill:#3a3a3a;stroke:#5685ef;stroke-width:3;stroke-linecap:round;stroke-linejoin:round;stroke-miterlimit:4;stroke-dasharray:none"/><path id="path40346" d="M45.758 117.25h177.608v23.562H70.47a24.72 23.562 0 0 1-24.72-23.562z" class="cls-5" style="fill:#3a3a3a;stroke:#5685ef;stroke-width:3;stroke-linecap:butt;stroke-linejoin:round;stroke-miterlimit:4;stroke-dasharray:none"/><path id="path40344" d="M26.873 93.25h177.608v23.562H51.586A24.72 23.562 0 0 1 26.865 93.25v0z" class="cls-5" style="fill:#3a3a3a;stroke:#5685ef;stroke-width:3;stroke-linecap:round;stroke-linejoin:round;stroke-miterlimit:4;stroke-dasharray:none"/><path id="path176" d="M7.988 69.25h177.608v23.562H32.701A24.72 23.562 0 0 1 7.98 69.25v0z" class="cls-5" style="fill:#3a3a3a;stroke:#5685ef;stroke-width:3;stroke-linecap:round;stroke-linejoin:round;stroke-miterlimit:4;stroke-dasharray:none"/><path id="line212" d="M105.39 117.039H57.4" class="cls-9" style="fill:#3a3a3a;stroke:#f71ef7;stroke-width:3.39999;stroke-miterlimit:10;stroke-dasharray:none"/><path id="path57995" d="M100.646 140.678H63.214" class="cls-9" style="fill:#3a3a3a;stroke:#f71ef7;stroke-width:3;stroke-miterlimit:10;stroke-dasharray:none"/><path id="path57997" d="M111.99 93.026H48.18" class="cls-9" style="fill:#3a3a3a;stroke:#f71ef7;stroke-width:3.39999;stroke-miterlimit:10;stroke-dasharray:none"/><path id="path174" d="M79.68 227.86h.05c1.81-46.54 7.7-94.69 21.71-139.24 9-28.74 25.95-71.36 61.57-73.39 0 0 78.69-22.8 93.48 212.59h26.37c-.25 0-8.58-53.33-9.33-57-5.78-28.32-13.1-56.52-23.67-83.46-8-20.33-17.84-40.84-32.52-57.25-28.44-31.8-74.48-28.56-104.3-1.94-29.17 26-52.09 105.39-57.56 147.06-2.29 17.45-5.34 35.12-6.75 52.66z" class="cls-4" style="fill:#c0c5ce;stroke:#5685ef;stroke-width:14.5px;stroke-linecap:round;stroke-linejoin:round"/><path id="path218" d="M160.73 7.32c20-.88 40.55 6.67 56.46 20.87 29.17 26 52.09 105.39 57.56 147.06 2.29 17.45 5.34 35.12 6.75 52.66l-30.95-.05h-.05c-1.81-46.54-7.7-94.69-21.71-139.24-9-28.74-25.95-71.36-61.57-73.39a23.34 23.34 0 0 0-6.49-.59z" class="cls-4" style="fill:#c0c5ce;stroke:#5685ef;stroke-width:14.5px;stroke-linecap:round;stroke-linejoin:round"/><path id="path49387" d="M108.364 105.554c6.217-7.911 13.568-14.956 21.889-20.614 7.906-5.375 16.669-9.48 25.845-12.163 22.857-6.68 48.142-4.198 69.554 6.22 7.104 3.457 13.794 7.748 19.971 12.672 5.87 4.679 11.318 9.975 15.535 16.186.745 1.097 1.457 2.235 1.877 3.492a9.06 9.06 0 0 1 .425 3.472c-.138 2.04-.906 3.984-1.792 5.826-3.165 6.578-7.929 12.292-13.312 17.223-5.756 5.275-12.248 9.715-19.086 13.484-10.095 5.564-21.098 9.718-32.557 10.968-7.044.768-14.168.433-21.212-.328-9.982-1.078-19.929-3.029-29.269-6.711a81.405 81.405 0 0 1-21.458-12.523c-5.496-4.469-10.37-9.642-15.538-14.487-.881-.826-1.776-1.648-2.51-2.607-1.232-1.608-1.967-3.543-2.5-5.498-.386-1.416-.677-2.873-.64-4.34.05-1.922.666-3.797 1.552-5.503.886-1.705 2.038-3.257 3.226-4.769z" style="opacity:1;fill:#3a3a3a;fill-opacity:1;stroke:#5685ef;stroke-width:3;stroke-linecap:butt;stroke-linejoin:miter;stroke-miterlimit:4;stroke-dasharray:none;stroke-opacity:1"/><path id="path3785" d="M153.176 82.494c18.431-8.305 40.195-8.902 59.054-1.62.295.113.59.229.883.346" style="fill:none;stroke:#f71ef7;stroke-width:3;stroke-linecap:round;stroke-linejoin:round;stroke-miterlimit:4;stroke-dasharray:none;stroke-opacity:1"/><path id="path3793" d="M152.885 78.732a14.76 14.76 0 0 1-.116 8.16" style="fill:none;stroke:#f71ef7;stroke-width:3;stroke-linecap:round;stroke-linejoin:round;stroke-miterlimit:4;stroke-dasharray:none;stroke-opacity:1"/><path id="path3793-1" d="M160.813 76.73a14.76 14.76 0 0 1-.116 8.16" style="fill:none;stroke:#f71ef7;stroke-width:3;stroke-linecap:round;stroke-linejoin:round;stroke-miterlimit:4;stroke-dasharray:none;stroke-opacity:1"/><path id="path3793-0" d="M168.952 74.646a14.76 14.76 0 0 1-.116 8.16" style="fill:none;stroke:#f71ef7;stroke-width:3;stroke-linecap:round;stroke-linejoin:round;stroke-miterlimit:4;stroke-dasharray:none;stroke-opacity:1"/><path id="path3793-9" d="M178.079 73.546a14.76 14.76 0 0 1-.116 8.16" style="fill:none;stroke:#f71ef7;stroke-width:3;stroke-linecap:round;stroke-linejoin:round;stroke-miterlimit:4;stroke-dasharray:none;stroke-opacity:1"/><path id="path3793-6" d="M186.567 73.43a14.76 14.76 0 0 1-.117 8.16" style="fill:none;stroke:#f71ef7;stroke-width:3;stroke-linecap:round;stroke-linejoin:round;stroke-miterlimit:4;stroke-dasharray:none;stroke-opacity:1"/><path id="path3793-4" d="M195.694 74.067a14.76 14.76 0 0 1-.116 8.16" style="fill:none;stroke:#f71ef7;stroke-width:3;stroke-linecap:round;stroke-linejoin:round;stroke-miterlimit:4;stroke-dasharray:none;stroke-opacity:1"/><path id="path3793-8" d="M204.065 74.935a14.76 14.76 0 0 1-.116 8.16" style="fill:none;stroke:#f71ef7;stroke-width:3;stroke-linecap:round;stroke-linejoin:round;stroke-miterlimit:4;stroke-dasharray:none;stroke-opacity:1"/><path id="path3793-3" d="M212.67 77.424a14.76 14.76 0 0 1-.117 8.16" style="fill:none;stroke:#f71ef7;stroke-width:3;stroke-linecap:round;stroke-linejoin:round;stroke-miterlimit:4;stroke-dasharray:none;stroke-opacity:1"/><path id="path4053" d="M103.185 115.502c21.996 15.471 48.581 24.331 75.461 25.148 26.88.816 53.954-6.413 76.849-20.521a138.486 138.486 0 0 0 7.954-5.288" style="fill:none;stroke:#f71ef7;stroke-width:2.6;stroke-linecap:butt;stroke-linejoin:miter;stroke-miterlimit:4;stroke-dasharray:none;stroke-opacity:1"/><path id="line216" d="M18.438 69.25H1.5" class="cls-5" style="fill:#3a3a3a;stroke:#5685ef;stroke-width:3;stroke-linecap:round;stroke-linejoin:round;stroke-miterlimit:4;stroke-dasharray:none"/><path id="path928" d="M108.364 105.554c6.217-7.911 13.568-14.956 21.889-20.614 7.906-5.375 16.669-9.48 25.845-12.163 22.857-6.68 48.142-4.198 69.554 6.22 7.104 3.457 13.794 7.748 19.971 12.672 5.87 4.679 11.318 9.975 15.535 16.186.745 1.097 1.457 2.235 1.877 3.492a9.06 9.06 0 0 1 .425 3.472c-.138 2.04-.906 3.984-1.792 5.826-3.165 6.578-7.929 12.292-13.312 17.223-5.756 5.275-12.248 9.715-19.086 13.484-10.095 5.564-21.098 9.718-32.557 10.968-7.044.768-14.168.433-21.212-.328-9.982-1.078-19.929-3.029-29.269-6.711a81.405 81.405 0 0 1-21.458-12.523c-5.496-4.469-10.37-9.642-15.538-14.487-.881-.826-1.776-1.648-2.51-2.607-1.232-1.608-1.967-3.543-2.5-5.498-.386-1.416-.677-2.873-.64-4.34.05-1.922.666-3.797 1.552-5.503.886-1.705 2.038-3.257 3.226-4.769z" style="opacity:1;fill:#000;fill-opacity:0;stroke:#5685ef;stroke-width:3;stroke-linecap:butt;stroke-linejoin:miter;stroke-miterlimit:4;stroke-dasharray:none;stroke-opacity:1"/></svg>