<svg xmlns="http://www.w3.org/2000/svg" xml:space="preserve" width="515" height="515"><rect width="100%" height="100%" fill="#ffd404" rx="100"/><path d="M575.7 569.4c0-30.5-10.2-64.7-30.2-91.7 47.4-78 40.4-179.9-27-247.4-30.5-30.1-67.4-47.6-104.6-54.2 10.2 6.7 20.4 13.6 30.2 23.8 54.1 54.2 63.9 132.6 30.2 196.4-30.2-23.8-67.4-44.4-108.1-64.7-30.5-13.6-50.9-44.4-57.6-112-27 0-50.9 6.7-63.9 23.5-16.5 16.8-23.9 37.4-23.9 64.7 71.2 6.7 101.4 27 114.8 58.1 20.4 37.4 40.7 74.5 63.9 108.2-64.2 33.6-145.6 20.3-199.7-30.5-9.9-9.8-16.5-20.3-23.9-30.1 6.7 37.4 27 74.5 54.1 105 67.4 67.9 172 74.5 250.6 27 34.4 9.9 64.9 20.4 95.1 23.9z" style="clip-rule:evenodd;fill:#c80c2c;fill-rule:evenodd" transform="translate(-118.5 -118.5)"/></svg>