<svg xmlns="http://www.w3.org/2000/svg" xmlns:xlink="http://www.w3.org/1999/xlink" id="Layer_1" width="176.03" height="213.09" data-name="Layer 1" viewBox="0 0 176.03 213.09"><defs id="defs14"><pattern id="New_Pattern" width="20" height="20" x="0" y="0" data-name="New Pattern" patternTransform="matrix(.46 0 0 .48 -3040.65 -2589.9)" patternUnits="userSpaceOnUse" viewBox="0 0 20 20"><g id="g8"><path id="rect4" d="M0 0h20v20H0z" style="fill:none"/><circle id="circle6" cx="10" cy="10" r="6.75" class="cls-34"/></g></pattern><pattern xlink:href="#New_Pattern" id="New_Pattern-2" data-name="New Pattern" patternTransform="matrix(.37 0 0 .39 -3721.71 -3331.43)"/><pattern xlink:href="#New_Pattern" id="New_Pattern-3" data-name="New Pattern" patternTransform="matrix(.19 0 0 .19 -5127.85 -4804.47)"/><pattern xlink:href="#New_Pattern" id="New_Pattern-4" data-name="New Pattern" patternTransform="matrix(.45 0 0 .45 -3122.69 -2853.11)"/><style id="style2">.cls-3,.cls-8,.cls-9{fill:none}.cls-11,.cls-24,.cls-25,.cls-3,.cls-8,.cls-9{stroke-miterlimit:10}.cls-11,.cls-24,.cls-25,.cls-3,.cls-8{stroke:#002b51}.cls-24,.cls-3{stroke-width:10.81px}.cls-11{fill:#00af00}.cls-25,.cls-8{stroke-width:11.03px}.cls-11{stroke-width:9.41px}.cls-34{fill:#002b51}.cls-9{stroke-width:6.14px;stroke:#fff}.cls-24,.cls-25{fill:#ff4e33}</style></defs><g id="g144" transform="translate(-168.975 -254.775)"><g id="g58"><circle id="circle44" cx="256.99" cy="342.79" r="82.61" class="cls-3"/><circle id="circle46" cx="256.99" cy="342.79" r="82.61" style="stroke-miterlimit:10;stroke:#002b51;stroke-width:10.81px;fill:#ff55e0"/><path id="path48" d="M256.99 260.18c-24.14 0-45.87 10.36-60.97 26.87 15.1 16.51 36.83 26.87 60.97 26.87s45.87-10.36 60.97-26.87c-15.1-16.51-36.83-26.87-60.97-26.87z" class="cls-24"/><path id="line50" d="M256.99 260.18v165.21" class="cls-24"/><path id="line52" d="M174.39 342.79H339.6" class="cls-24"/><path id="path54" d="M256.99 374.47c-23.45 0-44.61 9.77-59.65 25.46 15.04 15.69 36.2 25.46 59.65 25.46s44.61-9.77 59.65-25.46c-15.04-15.69-36.2-25.46-59.65-25.46z" style="stroke-miterlimit:10;stroke:#002b51;stroke-width:10.81px;fill:#9c0083"/><circle id="circle56" cx="256.99" cy="342.79" r="82.61" class="cls-3"/></g><path id="path60" d="M256.34 257.94v174.04c45.69-.02 82.72-38.97 82.72-87.02s-37.03-87-82.72-87.02" style="fill:url(#New_Pattern)"/><g id="g84"><path id="path62" d="M222.3 340.86c9.03 14.83 24.96 22.88 41.16 22.54 7.74-14.23 7.91-32.08-1.12-46.91s-24.96-22.88-41.16-22.54c-7.74 14.23-7.91 32.08 1.12 46.91z" class="cls-25"/><path id="path64" d="M291.15 340.86c-9.03 14.83-24.96 22.88-41.16 22.54-7.74-14.23-7.91-32.08 1.12-46.91s24.96-22.88 41.16-22.54c7.74 14.23 7.91 32.08-1.12 46.91z" class="cls-25"/><path id="path66" d="M233.91 327.75c0 17.36 9.42 32.53 23.44 40.65 14.01-8.13 23.44-23.29 23.44-40.65s-9.42-32.53-23.44-40.65c-14.01 8.13-23.44 23.29-23.44 40.65z" class="cls-25"/><path id="path68" d="M239.84 327.44s4.89-24.33 19.59-33.81" class="cls-9"/><path id="path70" d="M233.91 327.75c0 17.36 9.42 32.53 23.44 40.65 14.01-8.13 23.44-23.29 23.44-40.65s-9.42-32.53-23.44-40.65c-14.01 8.13-23.44 23.29-23.44 40.65z" class="cls-8"/><g id="g78"><path id="path72" d="M311.24 315.08v32.16c0 30.7-24.92 55.62-55.62 55.62V370.7c0-30.7 24.92-55.62 55.62-55.62z" class="cls-25" transform="rotate(-179.13 283.442 358.959)"/><path id="path74" d="M201.38 314.26c30.7 0 55.62 24.92 55.62 55.62v32.16c-30.7 0-55.62-24.92-55.62-55.62z" class="cls-25" transform="rotate(.87 227.947 356.546)"/><path id="path76" d="m208.69 319.47 1.54 35.02s3.69 34.1 43.32 43.63" class="cls-9"/></g><path id="path80" d="M202.21 315.08c30.7 0 55.62 24.92 55.62 55.62v32.16c-30.7 0-55.62-24.92-55.62-55.62z" class="cls-8" transform="rotate(-.87 229.113 357.382)"/><path id="path82" d="M312.07 314.26v32.16c0 30.7-24.92 55.62-55.62 55.62v-32.16c0-30.7 24.92-55.62 55.62-55.62z" class="cls-8" transform="rotate(179.13 284.252 358.159)"/></g><path id="path90" d="M220.93 459.47c12.99-5.78 21.66-17.27 24.37-30.2-11.85-8.31-27.64-10.38-41.83-4.06-12.99 5.78-21.66 17.27-24.37 30.2 11.85 8.31 27.64 10.38 41.83 4.06z" class="cls-11"/><path id="path92" d="m239.55 425.54-32.42 16.68c-1.64.85-.74 3.34 1.07 2.93l34.26-7.74" class="cls-34"/><path id="path94" d="M291.07 459.47c-12.99-5.78-21.66-17.27-24.37-30.2 11.85-8.31 27.64-10.38 41.83-4.06 12.99 5.78 21.66 17.27 24.37 30.2-11.85 8.31-27.64 10.38-41.83 4.06z" class="cls-11"/><path id="path96" d="m272.45 425.54 32.42 16.68c1.64.85.74 3.34-1.07 2.93l-34.26-7.74" class="cls-34"/><path id="rect112" d="M247.4 400.58h18.75v52.5H247.4z" style="stroke-miterlimit:10;stroke:#002b51;fill:#00af00;stroke-width:8.67px"/><path id="polygon114" d="M222.14 352.38h70.14v28.24h-63.24z" style="fill:#ff4e33"/><g id="g122"><path id="polygon116" d="m252.21 358.94-3.08 3.08 5.08 5.09-5.11 5.11 3.06 3.07 5.12-5.12 5.09 5.09 3.08-3.08-5.09-5.09 5.11-5.11-3.06-3.06-5.12 5.11z" class="cls-34"/><path id="polygon118" d="m275.12 358.94-3.08 3.08 5.09 5.09-5.12 5.11 3.07 3.07 5.11-5.12 5.09 5.09 3.08-3.08-5.09-5.09 5.11-5.11-3.06-3.06-5.11 5.11z" class="cls-34"/><path id="polygon120" d="m229.3 358.94-3.08 3.08 5.08 5.09-5.11 5.11 3.06 3.07 5.12-5.12 5.09 5.09 3.08-3.08-5.09-5.09 5.11-5.11-3.06-3.06-5.12 5.11z" class="cls-34"/></g></g></svg>