<svg xmlns="http://www.w3.org/2000/svg" id="Layer_1" width="472.75" height="500.56" data-name="Layer 1" version="1.1"><defs id="defs4"><style id="style2">.cls-1{fill:none;stroke:orange}.cls-1,.cls-3{stroke-linecap:round;stroke-linejoin:round;stroke-width:7.3px}.cls-4{fill:#d6d6d6;stroke-width:2.72px;stroke:#fff;stroke-miterlimit:10}.cls-3,.cls-8{fill:#fff}.cls-8{stroke-width:0}.cls-3{stroke:#8f8f8f}</style></defs><g id="g77" transform="translate(-63.63 -51.06)"><g id="g71"><circle id="circle8" cx="300" cy="315.24" r="222.75" style="stroke:#fff;stroke-miterlimit:10;fill:#fff;stroke-width:27.25px"/><path id="polygon10" d="m206.38 334.57-9.72-52.75-3.16 70.36 11.03-3.53 15.04 34.65v-55.35z" style="fill:none;stroke:orange;stroke-linecap:round;stroke-linejoin:round;stroke-width:7.18px"/><path id="polygon12" fill="none" stroke="orange" stroke-linecap="round" stroke-linejoin="round" stroke-width="7.3" d="m391.25 334.57 9.72-52.75 3.16 70.36-11.03-3.53-15.04 34.65v-55.35z" class="cls-1"/><g id="_8DObHs" data-name="8DObHs"><g id="g36"><path id="path14" fill="#d6d6d6" stroke="#fff" stroke-miterlimit="10" stroke-width="2.72" d="M527.41 315.21c0 125.54-101.91 227.45-227.45 227.45-125.63 0-227.45-102.01-227.38-227.79.07-125.39 102.18-227.13 227.86-227.04 125.14.09 226.97 102.1 226.97 227.38zm-11.01.1c.39-119.1-96.64-216.51-216.33-216.55-119.69-.04-216.51 97.29-216.55 216.4-.04 119.14 96.75 216.51 216.41 216.55 119.63.04 216.79-97.25 216.48-216.4z" class="cls-4"/><path id="path16" fill="#d6d6d6" stroke="#fff" stroke-miterlimit="10" stroke-width="2.72" d="M445.69 310.5c2.81 80.72-60.47 146.6-138.1 150.39-83.66 4.09-149.6-60.99-153.27-138.19-3.97-83.54 60.97-149.37 138.08-153.13 84.45-4.12 151.32 62.52 153.29 140.93zm-145.6 139.75c74.36-.03 134.88-60.54 134.92-134.89.04-74.52-60.48-135.11-134.97-135.12-74.51-.01-135.06 60.53-135.05 135.03 0 74.49 60.59 135.02 135.1 134.98z" class="cls-4"/><path id="path18" fill="#d6d6d6" stroke="#fff" stroke-miterlimit="10" stroke-width="2.72" d="M122.58 321.42c-8.71 0-17.43-.09-26.14.05-2.55.04-3.58-.64-3.57-3.31.04-22.39 2.93-44.34 9.8-65.71.64-2 1.45-2.52 3.53-1.82 14.54 4.9 29.11 9.72 43.69 14.49 1.97.64 2.58 1.5 1.91 3.55a149.1 149.1 0 0 0-6.39 31.15c-.18 1.72-.96 2.12-2.48 1.99-8.95-.78-17.9-1.53-26.85-2.27-1.51-.12-2.11-.93-1.91-2.35.87-6.02 1.78-12.03 2.65-18.04.2-1.36.92-1.9 2.26-1.62 2.4.51 4.79 1.05 7.19 1.55 1.13.23 1.48.87 1.27 1.97-.39 2.05-.7 4.12-1.1 6.16-.28 1.44.14 2.3 1.68 2.46.18.02.35.09.53.12 8.06.96 6.47 2.25 7.96-5.16.68-3.38 1.35-6.76 2.18-10.11.38-1.53-.15-2.19-1.53-2.56a6919.8 6919.8 0 0 1-24.73-6.61c-1.52-.41-2.27-.07-2.69 1.6a194.04 194.04 0 0 0-4.78 27.06c-.41 3.97-.59 7.96-1.02 11.93-.25 2.26.27 3.27 2.83 3.32 11.53.23 23.05.71 34.57.94 2.65.05 3.41.99 3.36 3.55a146.49 146.49 0 0 0 6.83 47.49c.77 2.42.39 3.5-2.15 4.32a2951.1 2951.1 0 0 0-42.91 14.23c-2.46.84-3.3.17-4.03-2.15-4.27-13.56-6.92-27.44-8.6-41.53-.29-2.46.51-3.38 3.02-3.56 8.05-.57 16.09-1.33 24.13-2.06 3.62-.33 3.72-.17 4.17 3.43.62 4.95 1.37 9.89 2.22 14.8.33 1.88-.3 2.53-2.05 2.97-7.96 1.99-8.03 2.05-9.47-5.77-.44-2.42-1.09-3.35-3.84-2.85-6.23 1.12-6.29.94-5.05 7.21.87 4.36 1.89 8.69 2.73 13.05.33 1.7 1 2.33 2.77 1.85 8.14-2.22 16.3-4.39 24.47-6.54 1.6-.42 2.2-1.11 1.74-2.91a142.84 142.84 0 0 1-4.63-31.72c-.07-2.43-.68-3.84-3.65-3.41-2.58.37-5.26.08-7.89.08v.76z" class="cls-4"/><path id="path20" fill="#d6d6d6" stroke="#fff" stroke-miterlimit="10" stroke-width="2.72" d="M461.87 310.45c-6.16.61-6.22.61-6.79-5.53-.86-9.32-2.04-18.58-4.42-27.65-.51-1.94-.04-2.79 1.91-3.3 8.44-2.18 16.85-4.45 25.25-6.76 1.79-.49 2.72-.04 3.09 1.82 1.1 5.61 2.26 11.21 3.44 16.8.39 1.87-.12 2.7-2.17 3.08-8.07 1.5-8.13 1.6-9.46-6.37-.32-1.93-1.01-2.36-2.85-2.06-6.87 1.11-6.84 1.05-5.75 7.94.49 3.14.86 6.29 1.2 9.45.19 1.75.79 2.54 2.78 2.35 7.94-.77 15.9-1.44 23.86-2.02 2.4-.18 3.47-.72 3.15-3.57a218.7 218.7 0 0 0-7.84-38.08c-.67-2.22-1.57-2.54-3.7-1.81-10.82 3.71-21.72 7.19-32.54 10.91-2.52.87-3.69.48-4.59-2.17a146.15 146.15 0 0 0-22.8-42.23c-1.62-2.11-1.39-3.13.65-4.72 11.89-9.26 23.7-18.63 35.46-28.06 1.79-1.43 2.75-1.58 4.27.41a217.76 217.76 0 0 1 22.58 36.56c.91 1.85.79 2.88-1.22 3.79-8.02 3.64-15.99 7.37-23.95 11.15-1.53.72-2.2.34-2.94-1.1a414.1 414.1 0 0 0-7.74-14.38c-.91-1.61-.85-2.59.81-3.51a69.42 69.42 0 0 0 5.34-3.28c1.41-.96 2.25-.63 3.02.8 1.07 2 2.3 3.92 3.38 5.91.61 1.13 1.34 1.32 2.43.71 1.82-1.03 3.65-2.03 5.5-2.99 1.12-.58 1-1.26.47-2.21a215.86 215.86 0 0 0-9.73-15.76c-.79-1.17-1.48-1.31-2.64-.48a2649.36 2649.36 0 0 1-21.41 15.01c-1.17.81-1.26 1.5-.47 2.65a157.13 157.13 0 0 1 16.16 29.89c.76 1.88 1.81 1.53 3.22.97 10.71-4.28 21.43-8.53 32.15-12.77 3.33-1.32 3.39-1.33 4.66 2.05a204.15 204.15 0 0 1 12.02 49.61c.54 4.87.92 9.75 1.16 14.65.14 2.81-.95 3.66-3.55 3.7-8.35.14-16.7.46-25.05.61-5.44.1-10.89.02-16.33.02z" class="cls-4"/><path id="path22" fill="#d6d6d6" stroke="#fff" stroke-miterlimit="10" stroke-width="2.72" d="M300.62 119.18c-9.21-.1-17.61.63-26.01 1.55-2.08.23-2.61.95-2.31 2.92 1.61 10.77 3.19 21.54 4.68 32.33.89 6.44 1.55 5.19-4.6 6.33a153.3 153.3 0 0 0-43.41 14.78c-2.5 1.31-3.47.81-4.73-1.57a2655.1 2655.1 0 0 0-21.25-39.3c-1.33-2.41-.98-3.48 1.49-4.73a220.02 220.02 0 0 1 39.2-15.5c2.44-.7 3.34-.18 3.95 2.26 2.01 8.1 4.2 16.17 6.45 24.21.59 2.09.35 3.12-1.96 3.7a115.8 115.8 0 0 0-15.25 5.03c-1.5.61-2.41.33-2.92-1.24-.25-.78-.63-1.51-.91-2.27-2.46-6.57-3.56-5.28 3.71-8.06 4.46-1.71 4.49-.6 2.77-5.74-1.73-5.16-1.07-4.99-6.26-3.09-4.68 1.72-9.23 3.8-13.88 5.62-1.57.61-1.83 1.3-1.1 2.84 3.63 7.62 7.2 15.28 10.7 22.96.78 1.7 1.63 2.02 3.36 1.22a147.7 147.7 0 0 1 30.69-10.22c2.58-.55 2.85-1.69 2.38-3.93-2.38-11.19-4.58-22.41-7.02-33.58-.54-2.48.11-3.37 2.53-3.83a208.97 208.97 0 0 1 40.07-3.65c8.88.04 17.77.54 26.6 1.86 2.22.33 2.66 1.25 2.36 3.25-2.2 14.9-4.38 29.8-6.45 44.72-.35 2.56-1.15 3.56-3.95 3.16-10.37-1.49-20.8-1.58-31.24-.8-1.87.14-2.39-.8-2.52-2.37l-1.74-20.89c-.15-1.81-.33-3.61-.5-5.42-.14-1.51.37-2.31 2.05-2.52 5.89-.71 11.79-.45 17.69-.52 1.79-.02 2.47.82 2.32 2.51-.02.18 0 .36 0 .54-.13 2.35.83 5.15-.49 6.93-1.49 2-4.4.53-6.66.66-2.46.13-3.29 1.01-3.24 3.49.13 6.03.02 6 6.08 6.12 3.36.07 6.72.21 10.06.49 2.14.18 2.96-.75 3.12-2.74.69-8.32 1.41-16.63 2.17-24.94.15-1.66-.7-1.98-2.09-2.06-4.89-.29-9.78-.71-13.94-.51z" class="cls-4"/><path id="path24" fill="#d6d6d6" stroke="#fff" stroke-miterlimit="10" stroke-width="2.72" d="M462.01 319.64c13.61.35 27.23.68 40.84 1.04 3.83.1 3.98.21 3.86 4.1-.42 14.12-2.73 27.97-6.05 41.68-.5 2.07-1.49 2.54-3.53 1.97-8.31-2.31-16.65-4.5-25-6.68-1.59-.41-2.27-1.03-1.86-2.85a520.5 520.5 0 0 0 3.39-16.53c.26-1.38.9-1.89 2.22-1.69 2.42.37 4.84.75 7.27 1.09 1.23.17 1.42.96 1.25 1.97l-.93 5.64c-.12.72-.53 1.61-.25 2.13 1.55 2.91 4.77 1.64 7.13 2.63 1.35.56 1.97-.46 2.21-1.67a202.67 202.67 0 0 0 2.61-18.05c.21-2.03-1.31-1.92-2.48-2.04-4.42-.44-8.86-.79-13.29-1.16-3.8-.32-7.6-.54-11.39-.98-1.8-.21-2.52.48-2.68 2.15a158.94 158.94 0 0 1-6.73 32.74c-.68 2.17.57 2.46 2.02 2.94 10.86 3.59 21.72 7.2 32.57 10.81 3.4 1.13 3.44 1.15 2.25 4.57a205.15 205.15 0 0 1-31.68 58.41c-1.26 1.63-2.09 1.67-3.67.42a5090.6 5090.6 0 0 0-36.53-28.91c-1.55-1.22-1.47-2.12-.36-3.55A150.58 150.58 0 0 0 439.81 383c.94-1.95 1.83-2.21 3.75-1.29 7.6 3.67 15.26 7.24 22.95 10.72 2.11.95 2.75 1.94 1.54 4.1-2.77 4.9-5.42 9.87-8.03 14.85-.89 1.7-1.89 2.01-3.41.84-.5-.39-1.08-.67-1.62-1.01q-5.57-3.43-2.18-9.18 1.82-3.09-1.3-4.72c-5.4-2.84-5.35-2.81-8.39 2.42-1.73 2.98-3.6 5.89-5.54 8.74-.89 1.31-.97 2.08.47 3.07a1382.4 1382.4 0 0 1 20.96 14.71c1.55 1.11 2.27.66 3.21-.72a208.4 208.4 0 0 0 18.93-34.91c.97-2.26.2-3.03-1.76-3.79-10.66-4.16-21.25-8.49-31.94-12.57-2.57-.98-2.99-2.01-2.01-4.58a149.17 149.17 0 0 0 9.67-47.27c.1-2.22.8-3.18 3.06-2.96 1.26.12 2.54.02 3.81.02v.16z" class="cls-4"/><path id="path26" fill="#d6d6d6" stroke="#fff" stroke-miterlimit="10" stroke-width="2.72" d="M303.56 511.32c3.64.15 7.25-.31 10.87-.52 1.77-.1 2.36-.68 2.18-2.5-.76-7.85-1.42-15.72-2.07-23.58-.28-3.46-.49-3.88-3.87-3.61-10.73.85-21.4.34-32.04-1.08-2.24-.3-2.61 1.01-2.85 2.65-1.5 10.42-2.93 20.84-4.53 31.25-1.05 6.85.35 6.5-6.91 5.24a208.58 208.58 0 0 1-59.89-20.22c-2.25-1.15-2.87-2.11-1.55-4.5a4635.62 4635.62 0 0 0 21.91-40.49c.83-1.55 1.65-1.83 3.22-1.01a146.53 146.53 0 0 0 29.82 11.81c1.69.46 2.11 1.32 1.65 3-2.32 8.49-4.58 17-6.82 25.52-.42 1.59-1.08 2.29-2.88 1.76a210.34 210.34 0 0 1-16.79-5.59c-1.59-.61-2.19-1.38-1.42-3.06a67.63 67.63 0 0 0 2.35-5.8c.61-1.74 1.6-1.88 3.14-1.23 1.84.77 3.76 1.34 5.63 2.05 1.2.45 1.93.11 2.25-1.13.02-.09.06-.17.09-.26q2.71-6.69-3.97-9.31c-2.95-1.17-5.9-2.36-8.78-3.69-1.55-.72-2.44-.58-3.2 1.08-3.59 7.84-7.24 15.66-10.94 23.44-.77 1.63.1 2.01 1.3 2.55a204.9 204.9 0 0 0 37.91 12.68c2.12.5 2.85-.1 3.26-2.16 2.27-11.48 4.73-22.93 6.95-34.42.45-2.31 1.36-2.75 3.49-2.34a154.77 154.77 0 0 0 47.69 1.56c4.28-.51 4.21-.47 4.82 3.85 2.05 14.46 4.11 28.92 6.31 43.36.39 2.55-.1 3.51-2.82 3.88a214.68 214.68 0 0 1-41.56 1.3c-3.6-.22-3.85-.52-3.57-4.14.67-8.32 1.46-16.63 2.13-24.95.14-1.74.82-2.26 2.58-2.23 5.63.08 11.23.86 16.87.49 1.4-.09 2.01.59 2.03 1.92l.01.27c.79 8.51.79 8.58-7.86 8.59-2.3 0-3.03.83-2.99 3.02.14 7.57-1.12 6.42 6.4 6.55z" class="cls-4"/><path id="path28" fill="#d6d6d6" stroke="#fff" stroke-miterlimit="10" stroke-width="2.72" d="M331.44 468.97c-.21-1.8 1.21-1.77 2.31-2.03 8.5-2 16.85-4.43 24.91-7.82 1.84-.77 3.68-1.55 5.49-2.39 1.23-.57 2.02-.33 2.61.94 3.84 8.23 7.7 16.44 11.58 24.65.63 1.33.33 2.17-1.05 2.81a177.87 177.87 0 0 1-16.95 6.74c-1.44.5-2.21.02-2.65-1.39-.67-2.17-1.41-4.31-2.15-6.46-.44-1.3-.03-2.03 1.28-2.46 2.07-.67 4.09-1.5 6.15-2.19 1.24-.42 1.56-1.12.96-2.26a1.89 1.89 0 0 1-.11-.25q-2.46-6.84-9.38-4.52c-2.84.94-5.69 1.88-8.57 2.68-1.73.48-2.41 1.28-1.9 3.13 2.19 7.96 4.33 15.94 6.42 23.93.51 1.96 1.46 2.36 3.36 1.82a204.02 204.02 0 0 0 36.89-14.67c1.7-.87 1.91-1.67.99-3.36-5.67-10.35-11.18-20.79-16.86-31.14-1.1-2.01-.7-2.95 1.21-4.02a153.75 153.75 0 0 0 38.69-30.66c1.33-1.46 2.19-1.34 3.54-.13 11.29 10.11 22.64 20.17 33.96 30.26 2.74 2.44 2.71 2.51.27 5.09a220.64 220.64 0 0 1-31.52 28c-1.79 1.29-2.78 1.33-4.09-.59-4.87-7.12-9.85-14.16-14.87-21.18-1.05-1.47-1.13-2.41.5-3.53 4.49-3.09 8.74-6.51 12.83-10.11 1.31-1.16 2.09-1.15 3.33.15 5.92 6.19 6.02 6.22-.51 11.6-1.81 1.49-1.73 2.43-.33 4.13 4.29 5.2 4.24 5.28 9.32.83 3.34-2.93 6.59-5.98 9.92-8.93 1.13-1 1.19-1.79.07-2.89a1973.38 1973.38 0 0 1-18.3-18.3c-1.09-1.11-1.81-1.05-2.91-.01a172.04 172.04 0 0 1-26.47 20.89c-1.77 1.12-1.34 2.16-.46 3.57 6.14 9.86 12.18 19.8 18.39 29.62 1.35 2.13 1.06 3.19-1.09 4.45a212.15 212.15 0 0 1-61.77 24.49c-2.04.46-3.12.28-3.6-2.1-3.03-15.13-6.19-30.22-9.31-45.33-.07-.35-.11-.72-.16-1.08z" class="cls-4"/><path id="path30" fill="#d6d6d6" stroke="#fff" stroke-miterlimit="10" stroke-width="2.72" d="M191.08 491.1c-.5-.26-1.09-.51-1.62-.84a206.8 206.8 0 0 1-34.31-27.18c-1.42-1.4-1.19-2.28.1-3.55 6.2-6.13 12.36-12.3 18.48-18.51 1.17-1.18 2.01-1.48 3.35-.17 3.95 3.89 8.05 7.61 12.42 11.03 1.25.98 1.52 1.88.44 3.15a94.9 94.9 0 0 0-4.07 5.11c-1.01 1.37-1.96 1.33-3.15.27-1.69-1.51-3.46-2.94-5.16-4.44-.92-.81-1.71-.97-2.48.14-.1.15-.22.29-.35.42-5.02 5.5-5.05 5.53.77 10.21 3.25 2.62 6.63 5.08 9.9 7.67 1.3 1.03 2.15.87 3.09-.49 4.86-7.02 9.76-14.01 14.72-20.96.98-1.38.75-2.11-.56-3.05a152.72 152.72 0 0 1-24.77-22.05c-1.51-1.68-2.45-1.4-3.93-.06-8.64 7.77-17.39 15.42-26.01 23.22-1.74 1.57-2.77 1.67-4.36-.18a208.84 208.84 0 0 1-35.17-57.02c-.78-1.89-.33-2.75 1.51-3.48 14.36-5.66 28.7-11.37 43.01-17.13 1.83-.74 2.74-.46 3.51 1.44 3.96 9.8 8.99 19.04 14.99 27.74 1.12 1.63 1.04 2.56-.66 3.72-7.19 4.93-14.32 9.95-21.41 15.02-1.54 1.1-2.45.97-3.5-.62a285.35 285.35 0 0 1-9.18-14.82c-.97-1.67-.67-2.65 1.05-3.39 2.41-1.04 4.67-3.63 7.02-3.18 2.32.45 2.89 3.88 4.16 6.03.97 1.64 1.76 1.85 3.4.82 5.91-3.68 5.92-3.61 2.55-9.7a204.8 204.8 0 0 1-4.56-8.68c-.66-1.35-1.32-1.65-2.74-.98-7.71 3.67-15.43 7.3-23.21 10.81-1.98.89-1.61 1.9-.89 3.39a203.02 203.02 0 0 0 21.02 34.01c1.29 1.71 2.14 1.27 3.46.22 9.09-7.25 18.26-14.39 27.29-21.71 2-1.62 3.05-1.63 4.74.45a148.66 148.66 0 0 0 36.28 32.25c1.83 1.16 2.25 2.12 1.02 4.08-8.1 12.93-16.08 25.93-24.13 38.89-.5.8-.77 1.9-2.07 2.07z" class="cls-4"/><path id="path32" fill="#d6d6d6" stroke="#fff" stroke-miterlimit="10" stroke-width="2.72" d="m331.5 161.06 3.69-17.83 5.62-27.47c.69-3.38.74-3.38 4.1-2.63a208.16 208.16 0 0 1 40.24 13.38c2.02.91 2.52 1.72 1.5 3.83a936.62 936.62 0 0 0-10.72 22.95c-.96 2.11-1.95 2.62-4.14 1.54a99.82 99.82 0 0 0-14.16-5.62c-1.96-.62-2.73-1.45-1.84-3.51a32.54 32.54 0 0 0 1.72-5.16c.53-2.17 1.67-2.56 3.58-1.68.82.38 1.7.66 2.58.85 1.7.36 3.71 2.55 4.9 1.13 1.6-1.91 2.18-4.72 3.05-7.19.29-.83-.58-1.22-1.27-1.5a171.01 171.01 0 0 0-17.3-5.75c-1.26-.35-2.08.04-2.44 1.39-2.21 8.33-4.44 16.66-6.69 24.99-.53 1.95.79 2.3 2.17 2.7a167.84 167.84 0 0 1 23.46 8.74c2.23 1.02 4.48 2.02 6.6 3.23 1.8 1.03 2.75.82 3.78-1.12 5.4-10.19 11.01-20.26 16.37-30.47 1.27-2.42 2.23-2.79 4.69-1.4a215.57 215.57 0 0 1 51.89 41.12c1.51 1.62 1.62 2.68-.11 4.2a7257.22 7257.22 0 0 0-34.8 30.96c-1.2 1.07-2.02 1.08-3.15-.16a153.24 153.24 0 0 0-23.96-21.34c-1.51-1.09-1.75-1.98-.64-3.53 5.11-7.17 10.16-14.39 15.16-21.64 1.04-1.51 1.96-1.5 3.33-.5 4.84 3.54 9.56 7.22 14.07 11.18 1.01.89 1.33 1.57.29 2.66a117.55 117.55 0 0 0-4.71 5.28c-.9 1.07-1.71 1.18-2.71.18a16.64 16.64 0 0 0-1.88-1.57c-1.51-1.12-3.07-3.72-4.46-3.1-2.38 1.06-3.63 3.89-5.2 6.09-.56.78.03 1.35.59 1.85 3.81 3.36 7.64 6.7 11.42 10.11.96.86 1.63.82 2.51-.08 6.14-6.19 12.3-12.36 18.5-18.49 1.14-1.12.96-1.88-.11-2.9a214.63 214.63 0 0 0-32.03-25.27c-1.56-1-2.16-.35-2.94.92-6.08 9.9-12.27 19.74-18.28 29.69-1.33 2.21-2.3 2.86-4.79 1.36a152.16 152.16 0 0 0-44.58-17.79c-1.23-.28-3.21.01-2.9-2.63z" class="cls-4"/><path id="path34" fill="#d6d6d6" stroke="#fff" stroke-miterlimit="10" stroke-width="2.72" d="M140.37 218.35c.18-.74-.08-1.12-.47-1.37-2.06-1.32-4.13-2.65-6.23-3.9-.9-.54-1.31.28-1.67.89a221.13 221.13 0 0 0-8.93 16.53c-.58 1.19-.19 1.82.92 2.33 7.99 3.71 15.97 7.43 23.93 11.19 1.25.59 1.78.06 2.29-1a159.6 159.6 0 0 1 17.91-28.89c1.23-1.59.52-2.33-.69-3.28-9.2-7.26-18.32-14.61-27.59-21.77-2.07-1.6-2-2.65-.46-4.51a213.66 213.66 0 0 1 49.68-44.16c1.85-1.18 2.84-1.11 4.05.88 7.99 13.1 16.08 26.14 24.21 39.15 1.16 1.85.79 2.8-.96 3.89a143.48 143.48 0 0 0-24.52 19.39c-1.57 1.53-2.53 1.39-3.98-.09a1435.98 1435.98 0 0 0-18.29-18.32c-1.31-1.29-1.46-2.13-.04-3.51 4.18-4.04 8.54-7.88 12.97-11.64 1.45-1.23 2.47-1.17 3.53.42 1.45 2.17 4.42 3.93 4.37 6.34-.05 2.37-3.34 3.49-5.23 5.12-1.44 1.24-1.64 2.17-.23 3.51 1.63 1.55 2.94 4.15 4.79 4.58 1.88.44 3.33-2.41 5.08-3.68 2.72-1.97 5.32-4.11 8.03-6.09 1.11-.81 1.32-1.49.49-2.66a3162.1 3162.1 0 0 1-15.03-21.4c-.8-1.15-1.57-1.25-2.7-.43a195.94 195.94 0 0 0-30.66 27.31c-1.34 1.49-.26 2.26.69 3.11 6.02 5.39 12.06 10.76 18.09 16.14 2.84 2.54 5.63 5.14 8.54 7.61 1.41 1.19 1.55 2.04.27 3.53a151.2 151.2 0 0 0-25.98 41.96c-.85 2.08-1.77 2.48-3.87 1.63a4174.56 4174.56 0 0 0-42.5-16.94c-2.07-.81-2.61-1.7-1.71-3.83a217.53 217.53 0 0 1 20.58-38.03c1.12-1.64 2.03-1.93 3.7-.73 7.09 5.08 14.23 10.07 21.4 15.03 1.48 1.03 1.83 1.89.68 3.5-3.17 4.43-6 9.1-8.61 13.88-.85 1.55-1.71 1.84-3.23.91a54.55 54.55 0 0 0-5.29-2.81c-1.7-.79-2.06-1.79-1.02-3.41 1.13-1.76 2.12-3.6 3.16-5.41.22-.39.4-.81.51-1.01z" class="cls-4"/></g></g><g id="g69"><path id="path39" d="M477.16 129.64c6.38-17.67 6-33.95 5.94-35.75a14.6 14.6 0 0 0-26.21-8.34 36.67 36.67 0 0 1-13.67 10.83 101.92 101.92 0 0 0 2.55-24.06 14.6 14.6 0 0 0-26.21-8.34c-14.78 19.36-45.01 15.8-45.24 15.77-.65-.09-1.31-.13-1.97-.13h-70.73c-44.12 0-80.02 35.9-80.02 80.02a79.4 79.4 0 0 0 1.94 17.53c8.02 35.72 39.98 62.48 78.08 62.48 21.37 0 41.52-8.64 56.74-24.33a84.2 84.2 0 0 0 5.6-6.39c.35.49.72.97 1.14 1.42 15.53 16.91 36.3 22.82 50.07 22.82.51 0 1 0 1.49-.02 15.13-.49 23.46-8.25 24.98-9.8a14.62 14.62 0 0 0 1.71-18.31 46.99 46.99 0 0 0 10.92-9.65c8-9.64 9.94-19.6 10.25-21.5a14.6 14.6 0 0 0-6.81-14.8c8.48-7.42 15.1-17.34 19.47-29.45z" style="stroke:#fff;stroke-miterlimit:10;stroke-width:14.36px;fill:#fff"/><path id="path41" fill="none" stroke="orange" stroke-linecap="round" stroke-linejoin="round" stroke-width="7.3" d="M301.61 94.21a65.41 65.41 0 1 0 0 130.82c36.12 0 65.41-30.75 65.41-66.87v-20.13" class="cls-1"/><path id="path43" fill="none" stroke="orange" stroke-linecap="round" stroke-linejoin="round" stroke-width="7.3" d="M258.11 159.63a43.54 43.54 0 0 1 43.5-43.5" class="cls-1"/><path id="path45" fill="none" stroke="orange" stroke-linecap="round" stroke-linejoin="round" stroke-width="7.3" d="M280.02 159.63c0-11.9 9.68-21.59 21.59-21.59" class="cls-1"/><path id="path47" fill="none" stroke="orange" stroke-linecap="round" stroke-linejoin="round" stroke-width="7.3" d="M301.61 94.21h70.73s38.51 5.23 58.82-21.38c0 0 2.1 58.98-46.92 65.21h-82.63" class="cls-1"/><path id="path49" fill="none" stroke="orange" stroke-linecap="round" stroke-linejoin="round" stroke-width="7.3" d="M383.5 159.61h38.08c49.02-6.22 46.92-65.21 46.92-65.21-20.31 26.61-58.82 21.38-58.82 21.38H298.71" class="cls-1"/><path id="path51" fill="none" stroke="orange" stroke-linecap="round" stroke-linejoin="round" stroke-width="7.3" d="M301.61 225.04s1.33-46.73 90.8-46.73c0 0 44.14 5.81 57.68-6.77 0 0-4.84 29.79-42.07 26.75 0 0 3.77 16.78 23.16 14.84 0 0-4.97 5.09-15 5.41-11.13.36-27.99-4.64-40.32-18.07" class="cls-1"/><path id="path53" fill="none" stroke="orange" stroke-linecap="round" stroke-linejoin="round" stroke-width="7.3" d="M347.42 159.63c-16.59-.28-33.5 4.86-46.45 15.39-15.04 12.21-18.36 27.72-18.36 46.32" class="cls-1"/><path id="path55" fill="#fff" stroke="#8f8f8f" stroke-linecap="round" stroke-linejoin="round" stroke-width="7.3" d="M246.74 298.19s-4.35-22.6-15.82-34.86c-11.47-12.26-11.07-22.54-11.07-29.66h160.62c0 7.12.4 17.4-11.07 29.66-11.47 12.26-15.82 34.86-15.82 34.86z" class="cls-3"/><path id="polyline57" fill="#fff" stroke="#8f8f8f" stroke-linecap="round" stroke-linejoin="round" stroke-width="7.3" d="M246.74 426.02V298.19H353.8v127.83" class="cls-3"/><path id="path59" fill="#fff" stroke="#8f8f8f" stroke-linecap="round" stroke-linejoin="round" stroke-width="7.3" d="M261.72 412.88v-87.87a5.86 5.86 0 0 1 5.84-5.84h3.6a5.86 5.86 0 0 1 5.84 5.84v87.87" class="cls-3"/><path id="path61" fill="#fff" stroke="#8f8f8f" stroke-linecap="round" stroke-linejoin="round" stroke-width="7.3" d="M292.29 412.88v-87.87a5.86 5.86 0 0 1 5.84-5.84h3.6a5.86 5.86 0 0 1 5.84 5.84v87.87" class="cls-3"/><path id="path63" fill="#fff" stroke="#8f8f8f" stroke-linecap="round" stroke-linejoin="round" stroke-width="7.3" d="M322.86 412.88v-87.87a5.86 5.86 0 0 1 5.84-5.84h3.6a5.86 5.86 0 0 1 5.84 5.84v87.87" class="cls-3"/><path id="path65" fill="none" stroke="orange" stroke-linecap="round" stroke-linejoin="round" stroke-width="7.3" d="M330.5 218.03s-5.64-43.73-61.13-44.05h-31.59" class="cls-1"/><rect id="rect67" width="179.44" height="17.63" x="209.98" y="230.46" fill="#fff" stroke="#8f8f8f" stroke-linecap="round" stroke-linejoin="round" stroke-width="7.3" class="cls-3" rx="6.08" ry="6.08"/></g></g><path id="polygon73" fill="#fff" stroke-width="0" d="m230.72 122.53-5.32-6.4-28.56 17.13 19.51 31.69z" class="cls-8"/><path id="path75" fill="#fff" stroke-width="0" d="M450.73 224.87s21.06-14.25 24.36-32.42L464 188.86l-13.93 13.69v15.47" class="cls-8"/></g></svg>