<svg xmlns="http://www.w3.org/2000/svg" id="Layer_1" data-name="Layer 1" version="1.1" width="273.69" height="273.13"><defs id="defs4"><style id="style2">.cls-8,.cls-9{stroke-miterlimit:10}.cls-9{stroke-width:9.31px}.cls-8,.cls-9{fill:none}.cls-8{stroke:#f2ea1e;stroke-width:7.45px}.cls-9{stroke:#5e4c9b}</style></defs><path d="M269.035 204.555v63.92h-96.81c-49.34-3.73-57.72-46.55-57.72-46.55-110.78 0-109.85-81.92-109.85-81.92v-55.9c4.65-76.34 55.85-79.13 55.85-79.13h39.06s66.13-7.45 71.71 50.27h28.87c64.24-.93 68.89 48.41 68.89 48.41z" id="path129" style="fill:#231f20;stroke:#f6dd93;stroke-width:9.31000042px;stroke-miterlimit:10"/><path class="cls-8" d="M102.725 38.495c-24.72.23-35.71 21.48-35.93 43.81-.22 22.06 14.09 35.36 35.93 37.18" id="path131" style="fill:none;stroke:#f2ea1e;stroke-width:7.44999981px;stroke-miterlimit:10"/><path class="cls-8" d="M110.625 98.535v20.95h-26.53c-21.84-1.82-36.15-15.12-35.93-37.18.22-22.33 11.21-43.58 35.93-43.81h11.18s7.9.88 12.85 5a10.15 10.15 0 0 1 3.91 8v13h17.69v-12.1s1.86-14-14-14h-32.53" id="path133" style="fill:none;stroke:#f2ea1e;stroke-width:7.44999981px;stroke-miterlimit:10"/><path class="cls-8" d="M201.485 92.525c-24.72.24-32 17.76-32.21 40.09-.21 22.06 14.1 35.36 35.93 37.18" id="path135" style="fill:none;stroke:#f2ea1e;stroke-width:7.44999981px;stroke-miterlimit:10"/><path class="cls-8" d="M185.675 92.525h28.84c15.83 0 14 14 14 14v12.1h-17.72v-13a10.15 10.15 0 0 0-3.91-8 23.28 23.28 0 0 0-9.12-5.05h-11.19c-24.72.24-35.71 17.76-35.93 40.09-.22 22.06 14.09 35.36 35.93 37.18h24.67v-13.58h17.63v15.82" id="path137" style="fill:none;stroke:#f2ea1e;stroke-width:7.44999981px;stroke-miterlimit:10"/><path class="cls-8" id="rect139" style="fill:none;stroke:#f2ea1e;stroke-width:7.44999981px;stroke-miterlimit:10" d="M84.105 79.445h49.33v15.83h-49.33z"/><path class="cls-8" id="line141" style="fill:none;stroke:#f2ea1e;stroke-width:7.44999981px;stroke-miterlimit:10" d="M128.315 97.605v46.09"/><path class="cls-9" d="M239.255 233.995h-63.3c-34.45 0-40-31.65-40-31.65v-39.42" id="path143" style="fill:none;stroke:#5e4c9b;stroke-width:9.31000042px;stroke-miterlimit:10"/><path class="cls-9" d="M39.035 124.085s5.59 31.65 40 31.65h31.63" id="path145" style="fill:none;stroke:#5e4c9b;stroke-width:9.31000042px;stroke-miterlimit:10"/><path class="cls-9" d="M110.685 185.555h-31.65c-34.44 0-40-31.66-40-31.66v-39.42" id="path147" style="fill:none;stroke:#5e4c9b;stroke-width:9.31000042px;stroke-miterlimit:10"/><path class="cls-9" d="M135.925 172.535s5.58 31.65 40 31.65h63.3" id="path149" style="fill:none;stroke:#5e4c9b;stroke-width:9.31000042px;stroke-miterlimit:10"/><path class="cls-9" id="line151" style="fill:none;stroke:#5e4c9b;stroke-width:9.31000042px;stroke-miterlimit:10" d="M177.195 206.725v13.44"/><path class="cls-9" id="line153" style="fill:none;stroke:#5e4c9b;stroke-width:9.31000042px;stroke-miterlimit:10" d="M206.005 206.725v13.44"/><path class="cls-9" id="line155" style="fill:none;stroke:#5e4c9b;stroke-width:9.31000042px;stroke-miterlimit:10" d="M234.815 206.725v13.44"/><path class="cls-9" id="line157" style="fill:none;stroke:#5e4c9b;stroke-width:9.31000042px;stroke-miterlimit:10" d="M77.635 155.865v13.92"/><path class="cls-9" id="line159" style="fill:none;stroke:#5e4c9b;stroke-width:9.31000042px;stroke-miterlimit:10" d="M105.485 155.865v13.92"/></svg>