<svg xmlns="http://www.w3.org/2000/svg" id="Layer_1" width="528.904" height="489.14" data-name="Layer 1" version="1.1"><defs id="defs89"><clipPath id="clippath"><path id="path86" d="m434.23 201.01 1.2-50.62c-118.9 37.04-264.97 2.99-264.97 2.99l-.39-.03c1.86 22.96-.45 52.47-3.92 74.06 6.48 6.89 41.58 40.35 100.74 26.81 65.8-15.06 93.32-36.54 167.15-53.15l.18-.05z" style="fill:none;stroke-width:0"/></clipPath><style id="style84">.cls-1{fill:#ae7c00}.cls-1,.cls-2{stroke-width:19.13px}.cls-1,.cls-2,.cls-5{stroke:#291091}.cls-1,.cls-2,.cls-5,.cls-6{stroke-linecap:round;stroke-linejoin:round}.cls-2,.cls-5,.cls-6{fill:none}.cls-10{stroke-width:0;fill:#291091}.cls-5{stroke-width:4.66px}.cls-6{stroke:#ffc0f9;stroke-width:4.28px}</style></defs><g id="g166" transform="translate(-35.532 -55.08)"><g id="g160"><g id="g97"><path id="path93" d="M300.4 535c-13.07 0-25.36-5.09-34.61-14.33L79.73 334.61c-19.08-19.08-19.08-50.13 0-69.21l10.28-10.28h420.77l10.28 10.28c19.08 19.08 19.08 50.13 0 69.21L335 520.67c-9.24 9.24-21.53 14.33-34.61 14.33Z" style="fill:#00d1df;stroke-width:0"/><path id="path95" d="m506.97 264.33 7.58 7.58c15.51 15.51 15.51 40.66 0 56.18L328.49 514.15c-7.76 7.76-17.92 11.63-28.09 11.63-10.17 0-20.33-3.88-28.09-11.63L86.25 328.09c-15.51-15.51-15.51-40.66 0-56.18l7.58-7.58h413.13m7.64-18.43H86.2l-5.4 5.4-7.58 7.58c-22.68 22.68-22.68 59.57 0 82.25l186.06 186.06c10.98 10.98 25.59 17.03 41.12 17.03 15.53 0 30.14-6.05 41.12-17.03l186.06-186.06c22.68-22.68 22.68-59.57 0-82.25L520 251.3Z" style="fill:#ffc0f9;stroke-width:0"/></g><path id="path99" d="M342.65 280.48s93.71-45.5 144.34-37.78c50.63 7.73 27.9 48.94 27.9 48.94s-46.49 10.57-79.44 4.34c-32.95-6.23-63.57-19.76-92.79-15.5z" style="fill:#291091;stroke:#291091;stroke-width:17.44000053px;stroke-linecap:round;stroke-linejoin:round"/><g id="g111"><circle id="circle101" cx="299.67" cy="273.25" r="155.06" class="cls-1" style="fill:#ae7c00;stroke:#291091;stroke-width:19.12999916px;stroke-linecap:round;stroke-linejoin:round"/><ellipse id="ellipse103" cx="296.3" cy="241.82" class="cls-1" rx="132.6" ry="132.8" style="fill:#ae7c00;stroke:#291091;stroke-width:19.12999916px;stroke-linecap:round;stroke-linejoin:round" transform="rotate(-51.38 296.267 241.816)"/><path id="path105" d="M207.97 398.3s48.09-12.72 46.52-58.36c-1.57-45.64-33.58-96.17 7.6-129.56" class="cls-2" style="fill:none;stroke:#291091;stroke-width:19.12999916px;stroke-linecap:round;stroke-linejoin:round"/><path id="path107" d="M391.38 398.3s-48.09-12.72-46.52-58.36c1.57-45.64 33.58-96.17-7.6-129.56" class="cls-2" style="fill:none;stroke:#291091;stroke-width:19.12999916px;stroke-linecap:round;stroke-linejoin:round"/><path id="line109" d="M300 428.32V273.25" class="cls-2" style="fill:none;stroke:#291091;stroke-width:19.12999916px;stroke-linecap:round;stroke-linejoin:round"/></g><g id="g117"><path id="path113" d="M171.52 313.31c-2.22 0-4.47-.02-6.67-.07-57.04-1.15-110.65-41.28-118.71-75.04-3.42-14.32 1.72-26.3 14.09-32.89 7.7-4.1 16.96-6.17 27.53-6.17 25.55 0 54.14 12.11 69.98 19.96 4.79-34.24 5.05-75.58-2.55-89.27-5.31-9.55-6.39-18.14-3.23-25.53 3.85-9 12.48-12.11 14.7-12.77 53.97-17.84 103.3-26.89 146.63-26.89 94.11 0 129.02 42.37 130.46 44.18a9.602 9.602 0 0 1 2.09 6.19l-1.94 81.73c4.04-.42 8.69-.63 13.95-.63 3.31 0 81.33.4 95.09 35.39 5.54 14.07-.52 29.46-18 45.74-2.73 2.54-5.66 5-9.22 7.72a9.567 9.567 0 0 1-5.81 1.97c-1.52 0-3.05-.36-4.45-1.1a9.569 9.569 0 0 1-5.11-8.94c.84-16.99-17.8-19.83-24.82-20.9-4.4-.67-9-1.01-13.68-1.01-23.07 0-45.88 7.93-70.01 16.32-17.1 5.95-34.79 12.09-52.55 15.1-4.39.74-8.77 1.22-13.01 1.69-5.1.56-9.92 1.09-14.62 2.03-9.42 1.89-19 4.08-28.27 6.2-5.45 1.25-11.08 2.53-16.65 3.75-41.78 9.16-74.24 13.24-105.24 13.24z" style="fill:#8231ea;stroke-width:0"/><path id="path115" d="M313.29 74.21c90.59 0 122.99 40.58 122.99 40.58l-2.23 93.92c3.79-1.94 12.65-3.03 23.8-3.03 43.54 0 122.03 16.65 70.57 64.56-2.81 2.62-5.66 4.93-8.51 7.12.6-12.11-4.99-26.56-32.93-30.83-5.06-.77-10.1-1.12-15.12-1.12-42.13 0-83.17 24.61-124.16 31.55-9.21 1.56-18.68 1.92-27.91 3.77-15.09 3.03-30.05 6.69-45.08 9.99-33.96 7.45-68.37 13.02-103.2 13.02-2.16 0-4.31-.02-6.47-.06-73.57-1.49-135.25-71.34-100.32-89.92 6.77-3.6 14.68-5.05 23.04-5.05 34.77 0 77.28 25.12 77.28 25.12 5.94-31.95 9.66-88.57-1.49-108.64-11.15-20.06 5.94-24.52 5.94-24.52 59.07-19.54 106.39-26.46 143.79-26.46m.01-19.13c-44.32 0-94.62 9.2-149.52 27.33-3.89 1.19-15.26 5.63-20.6 18.13-3.02 7.05-4.83 18.66 3.66 33.94.86 1.55 5.15 10.79 4.75 40.31-.13 9.48-.77 19.93-1.8 30.11-17.09-7.39-40.44-15.32-62.02-15.32-12.15 0-22.93 2.45-32.03 7.29-8.34 4.43-14.44 11.09-17.64 19.25-2.92 7.42-3.34 15.6-1.26 24.31 4.52 18.94 20.78 39.04 44.6 55.16 25.1 16.98 54.65 26.65 83.23 27.22 2.26.05 4.57.07 6.86.07 31.72 0 64.81-4.15 107.29-13.46 5.61-1.23 11.27-2.52 16.74-3.77 9.21-2.1 18.73-4.28 28.02-6.15 4.27-.86 8.89-1.37 13.77-1.9 4.37-.48 8.9-.98 13.57-1.77 18.54-3.14 36.62-9.42 54.09-15.5 23.35-8.12 45.41-15.79 66.87-15.79 4.19 0 8.31.3 12.23.9 10.8 1.65 14.42 4.71 15.48 5.96.42.49 1.4 1.64 1.23 5.02a19.139 19.139 0 0 0 10.21 17.88c2.8 1.47 5.85 2.19 8.89 2.19 4.12 0 8.22-1.33 11.62-3.93 3.82-2.92 6.97-5.56 9.93-8.32 9.59-8.93 16.02-17.54 19.63-26.31 4.19-10.17 4.45-20.52.75-29.93-6.08-15.46-22.05-26.91-47.47-34.03-16.83-4.71-37.43-7.42-56.53-7.42-1.44 0-2.82.02-4.14.05l1.69-71.35c.11-4.49-1.37-8.88-4.18-12.39-1.09-1.36-11.26-13.63-33.62-25.31-28.54-14.9-63.64-22.46-104.32-22.46z" class="cls-10" style="fill:#291091;stroke-width:0"/></g><path id="path119" d="m435.44 150.39-1.2 50.62-.18.05c-73.84 16.61-101.35 38.09-167.15 53.15-9.79 2.24-18.92 3.2-27.38 3.2-42.62 0-67.97-24.26-73.37-30.01 3.47-21.58 5.77-51.1 3.92-74.06l.39.03s61.27 14.28 136.77 14.28c41.05 0 86.32-4.23 128.2-17.27m-.01-19.12c-.22 0-.44 0-.66.01-1.9.06-3.72.41-5.44.98-34.86 10.8-75.94 16.28-122.1 16.28-72.2 0-131.84-13.65-132.43-13.79-.88-.21-1.79-.35-2.69-.43l-.39-.03a19.142 19.142 0 0 0-20.71 20.6c1.84 22.72-.87 51.62-3.74 69.48a19.14 19.14 0 0 0 4.95 16.14c7.95 8.45 37.74 36.03 87.31 36.03 10.34 0 20.98-1.24 31.64-3.68 33.06-7.57 57.22-16.84 80.58-25.8 24.4-9.36 49.64-19.04 86.5-27.34.32-.07.62-.15.94-.24l.29-.08c8.05-2.3 13.68-9.57 13.88-17.94l1.2-50.29c.01-.26.02-.52.02-.78 0-10.45-8.38-18.95-18.79-19.13h-.34zm.01 38.26" class="cls-10" style="fill:#291091;stroke-width:0"/><path id="path121" d="M164.31 243.04s-34.95-7.87-51.45-7.87 30.09 61.57 124.74 34.28c0 0-15.53-16.8-73.29-26.41" style="fill:#291091;stroke:#291091;stroke-width:18.14999962px;stroke-linecap:round;stroke-linejoin:round"/><path id="path123" d="m434.23 201.01 1.2-50.62c-118.9 37.04-264.97 2.99-264.97 2.99l-.39-.03c1.86 22.96-.45 52.47-3.92 74.06 6.48 6.89 41.58 40.35 100.74 26.81 65.8-15.06 93.32-36.54 167.15-53.15l.18-.05z" style="fill:#fff;stroke-width:0"/><g id="g150" style="clip-path:url(#clippath)"><g id="_4fl8t3" data-name="4fl8t3"><g id="g147"><path id="path125" d="M113.34 273.11c-1.2-10.59-5.63-20.51-9.41-30.53-3.27-8.68-7.04-17.22-10.67-25.8-.91-2.14-.9-3.99.31-5.87 1.2-1.86 2.16-3.86 3.24-5.79.9-1.62 1.7-1.41 2.59.24 2.56 4.73 5.14 9.45 7.82 14.13.82 1.43 1.91 2.75 2.96 4.06.57.7 1.35 1.29 2.33.97.89-.29.77-1.14.89-1.87 1.71-10.59-.51-20.81-5.7-30.65-1.35-2.56-1.44-4.54 0-6.81 1.78-2.8 3.22-5.81 4.86-8.69.43-.75.57-1.97 1.79-1.86 1.02.09 1.23 1.21 1.66 1.94 4.36 7.35 7.94 15.01 11.41 22.74 10.44 23.24 21.1 46.43 34.48 68.45 5.84 9.61 13.81 17.95 23.79 23.99 6.73 4.08 14.44 5.91 21.95 7.95 7.95 2.16 15.6 4.95 22.77 9.22 6.38 3.8 12.78 7.62 19.75 10.31 2.18.84 4.42 1.31 6.66 1.66 1.67.27 2.33-.69 1.14-2-5.05-5.61-9.85-11.46-15.61-16.45-5.85-5.06-13.24-6.46-20.3-8.56-11.61-3.44-23.24-6.77-34.08-12.51-7.76-4.11-13.74-9.9-18.59-16.96-10.13-14.76-17.07-30.77-23.36-47.04-.45-1.16-.64-2.4-.91-3.61-.22-1.04-.49-2.23.76-2.69 1.27-.47 2.02.65 2.67 1.47 2.52 3.18 5.14 6.31 7.42 9.64 5.68 8.3 11.59 16.45 17.89 24.36 7.62 9.57 17.73 16 28.82 21.11 8.44 3.89 17.35 6.04 26.19 8.6 10.07 2.92 18.8 8.09 24.72 17.28 5.93 9.21 13.59 16.92 23.71 22.28 7.18 3.8 13.97 8.32 20.31 13.44 1.11.9 2.54 2.56 3.8 1.81 1.44-.86.29-2.76-.11-4.18-2.23-7.9-7.83-13.88-13.52-19.78-5.73-5.94-12.22-10.87-19.75-14.51-5.37-2.6-9-6.68-11.66-11.89-2.89-5.64-8.26-9.22-13.5-12.83-9.65-6.64-20.57-10.91-30.63-16.79-10.03-5.86-18.86-12.79-24.88-22.76-3.24-5.36-8.89-8.49-14.07-11.93-9.72-6.47-20.41-11.26-30.35-17.35-11.29-6.91-19.09-16.84-25.83-27.61-.7-1.11-.6-2.16 0-3.21 1.13-2.01 2.24-4.03 3.33-6.06.88-1.65 1.73-1.69 2.88.05 2.71 4.11 5.5 8.17 8.69 11.99 7.98 9.54 17.94 16.27 29.57 20.95 9.79 3.93 19.24 8.64 27.81 14.9 3.9 2.85 7.06 6.47 10.56 9.74 8.72 8.14 18.7 14.38 29.55 19.41 8.38 3.89 16.71 7.92 24.02 13.69 5.36 4.23 9.02 9.5 11.3 15.62 2.73 7.3 7.02 13.68 12.95 19.15 1.58 1.45 3.32 2.65 5.22 3.52 10.57 4.81 17.57 12.86 23.42 22.29 7.95 12.82 15.61 25.69 19.46 40.08 1.36 5.09 2.5 10.22 4.19 15.26.96 2.86-.39 4.15-3.55 3.26-4.38-1.23-8.16-3.8-11.94-6.28-4.01-2.64-6.71-6.52-10.06-9.78-7.52-7.29-16.17-13.09-25.03-18.62-8.78-5.48-18.68-7.56-28.52-9.51-7.24-1.44-14.12-3.65-20.3-7.79-7.63-5.11-16.04-8.21-24.71-10.81-4.86-1.46-9.63-3.27-14.76-4.58 1.64 1.61 3.17 3.34 4.93 4.82 12.91 10.91 26.85 20.34 42.15 27.71 5.11 2.46 10.67 3.46 16.15 4.38 3.99.67 7.82 1.94 11.41 3.62 8.55 4 16.83 8.58 24.8 13.67 12.97 8.29 24.54 18.36 36.74 27.63 4.36 3.32 8.68 6.78 12.24 10.97-56.38-31-112.76-62.01-169.15-93.01-3.25-4.08-6.49-8.16-9.74-12.24-.44-.55-.91-1.12-1.72-.85-.75.25-.83.92-.88 1.58-.16 2.06 1.06 3.82 1.77 5.7l-15.33-8.43c-2.66-9.55-2.8-19.32-5.01-28.91-1.39-6.05-2.93-12.08-5.84-17.78-.34-.66-.66-1.63-1.64-1.39-.79.19-.45 1.09-.45 1.72-.02 6.75-.05 13.5-.06 20.25-.01 6.68 1.36 13.33 1.91 20-6.7-3.68-13.39-7.36-20.09-11.04z" class="cls-10" style="fill:#291091;stroke-width:0"/><path id="path127" d="M391.02 308.97c-2.1-2.68-3.13-5.85-4.85-8.7-4.27-7.07-10.19-12.86-16.2-18.57-6.45-6.12-13.4-11.72-20.43-17.21-3.3-2.58-6.99-4.61-10.14-7.47-4.23-3.84-6.79-8.44-8.97-13.35-4.69-10.57-6.9-21.59-9.06-32.65-3.74-19.14-8.81-38.02-18.2-55.84-4.34-8.22-9.97-15.79-15.21-23.54-6.07-8.98-12.29-17.87-19.44-26.17-3.09-3.58-6.92-6.24-10.73-9.03-13.24-9.74-21.93-22.64-28.68-36.82-5.41-11.35-9.35-23.18-14.62-34.57-2.21-4.78-4.6-9.48-8.02-13.67-1.37-1.68-1.61-3.26-.42-4.92.27-.37.4-.84.68-1.2 1.43-1.84 1.71-5.85 4-5.42 3.7.7 7.68 2.59 9.93 6.15 4.17 6.6 6.97 13.74 9.91 20.81 4.58 11.01 9.3 21.98 13.67 33.05 3.9 9.88 10.93 17.44 18.88 24.66 10.32 9.37 19.11 20.02 26.51 31.6 8.64 13.5 16.62 27.35 26.47 40.18 1.26 1.65 2.66 3.21 4.02 4.79.42.49.7 1.4 1.55 1.12.77-.25.51-1.1.48-1.73-.26-5.57-1.52-11.1-2.01-16.64-.91-10.26-7.41-18.08-13.23-26.23-9.77-13.69-21.84-25.3-35.07-36.04-16.28-13.22-28.09-29.51-35.27-48.53-2.49-6.6-4.75-13.26-7.09-19.91-.34-.98-1.03-2.25-.22-2.94.95-.81 1.99.4 2.89.88 5.13 2.76 10.14 5.78 15.37 8.34 3.17 1.55 4.35 3.61 4.55 6.78.43 6.89 1.62 13.73 4.02 20.42 2.65 7.4 7.23 13.4 14.5 17.36 16.07 8.74 28.48 21.27 39.68 35.07 9.39 11.57 18.05 23.57 24.78 36.67 2.69 5.23 4.58 10.71 6.54 16.16 3.47 9.64 7.19 19.23 11.69 28.5 5.17 10.65 12.45 20.19 20.16 29.45 6.5 7.81 14.04 14.38 23.02 19.38 7.76 4.32 16.17 6.44 24.72 7.99 2.78.5 5.41 1.39 8.02 2.43-1.87 3.4-3.73 6.79-5.6 10.19-1.3-.82-2.74-1.29-4.2-1.57-6.39-1.21-12.53-3.27-18.57-5.76-.8-.33-1.61-.81-2.88-.55 6.97 5.72 14 10.98 21.12 16.12-2.31 4.2-4.62 8.41-6.93 12.61-.93-1.08-2.23-1.68-3.4-2.46-6.88-4.57-13.23-9.76-19.12-15.46-7.42-7.17-13.74-15.17-19.77-23.38-.46-.62-.89-1.43-1.84-1.28-.86.14-1.17.9-1.4 1.6-1.06 3.2-.31 6.28 1.44 9.29 6.06 10.43 14.18 19.43 22.34 28.43 4.77 5.26 10.6 9.42 15.62 14.41-1.78 3.23-3.56 6.47-5.33 9.7-3.08-3.62-6.07-7.32-9.27-10.84-7.34-8.09-14.84-16.06-22.18-24.16-11.64-12.86-18.36-27.58-18.9-43.96-.34-10.15-2.48-19.62-7.76-28.73-1.15-1.98-1.94-4.13-3.19-6.81-1.25 11.61.5 37.49 3.02 48.22 3.49 14.88 9.86 28.3 22.41 38.93 9.65 8.17 18.36 17.17 25.61 27.39 1.87 2.64 3.47 5.49 5.98 7.71-1.78 3.23-3.56 6.47-5.33 9.7z" class="cls-10" style="fill:#291091;stroke-width:0"/><path id="path129" d="M365.62 355.16c-6.89-13.81-14.35-27.32-23.8-39.88-4.95-6.57-11.11-11.82-17.57-16.97-14.77-11.77-26.59-25.57-32.22-43.27-5.19-16.31-13.31-31.3-25.61-44.09-10.99-11.43-23.33-21.17-38.73-26.7-8.93-3.2-17.82-6.57-26.16-11.39-11.04-6.38-20.85-14.24-30.42-22.46-9.01-7.75-17.52-16.07-27.41-22.82-2.4-1.64-2.94-3.13-1.38-5.37 1.26-1.81 2.15-3.86 3.25-5.79 1.42-2.5 2.27-2.71 4.74-.7 4.46 3.62 9.55 6.29 14.31 9.44 4.97 3.28 10.5 5.18 16.21 6.07 14.55 2.26 26.63 9.41 37.84 18.56 8.99 7.34 18.07 14.58 27.08 21.89 2.18 1.76 4.37 3.53 6.37 5.47 4.21 4.08 9.36 6.85 14.18 10.08 9.7 6.51 16.38 15.35 21.77 25.17 7.1 12.96 11.18 26.83 16.11 40.45 1.97 5.45 4.26 10.8 6.75 16.09 2.98 6.35 7.45 11.61 13.29 15.72 9.82 6.92 17.68 15.59 24.84 24.85 8.49 10.97 22.71 33.39 29.13 45.52-2.04 3.72-10.54-3.59-12.58.13z" class="cls-10" style="fill:#291091;stroke-width:0"/><path id="path131" d="M351.22 381.35c-6.66-13.14-13.21-26.33-20.03-39.41-6.05-11.6-12.2-23.17-19.78-34.04-2.96-4.25-6.52-7.79-10.97-10.81-11.04-7.47-19.65-16.66-22.11-29.79-.85-4.53-3.88-8.29-6.97-11.78-10.2-11.53-22.04-21.29-34.73-30.24-5.41-3.82-11.12-6.67-17.07-9.4-6.95-3.19-13.02-7.79-18.75-12.87-7.48-6.63-15.57-12.56-23.63-18.53-7.97-5.9-16.79-10.25-25.37-15.05-7.21-4.03-14.11-8.47-20.45-13.73-.92-.76-1.68-1.7-2.59-2.48-1.86-1.6-1.86-3.18-.7-5.02 1.33-2.1 2.47-4.32 3.62-6.53.92-1.78 1.81-1.86 3.08-.03 2.3 3.32 4.57 6.66 7.75 9.36 4.69 3.98 10.32 6.23 15.89 8.44 12.17 4.81 23.73 10.76 34.92 17.54 3.5 2.12 6.1 5.16 9.08 7.81 5.59 4.96 12.09 8.1 19.21 9.35 9.02 1.59 16.93 5.42 24.24 10.69 9.87 7.11 19.37 14.63 25.91 24.93 6.69 10.54 11.51 21.74 15.15 33.36.88 2.79 1.15 5.58.27 8.34-.83 2.6.5 4.75 2.31 6.77 4.03 4.48 8.9 8.13 13.84 11.46 11.16 7.52 20.3 16.83 28.46 27.13 10.74 13.55 19.8 28.03 27.98 42.98.51.93 1.23 1.77 1.85 2.65-3.47 6.31-6.93 12.61-10.4 18.92z" class="cls-10" style="fill:#291091;stroke-width:0"/><path id="path133" d="M379.22 330.42c-3.93-6.12-7.19-12.56-11.39-18.56-6.63-9.47-15.19-16.92-24.84-23.49-11.47-7.82-21.96-16.71-27.52-29.45-4.62-10.59-8.73-21.34-13.16-32a1306.88 1306.88 0 0 0-17.87-41.14c-4.48-9.83-8.3-19.86-12.18-29.87-4.69-12.1-9.35-24.32-17.04-35.16-7.46-10.54-15.73-20.71-26.35-28.64-5.3-3.95-10.54-7.72-13.68-13.47-1.92-3.51-3.37-7.23-5.19-10.78-5.14-10.04-11.46-19.42-18.88-28.15-1.55-1.83-1.71-3.22-.62-5.07 2.16-3.65 4.11-7.43 6.18-11.13.43-.78.64-2.02 1.71-2 1.29.03 1.54 1.43 2.02 2.32 5.22 9.64 9.64 19.58 14.07 29.52 2.83 6.35 4.8 12.85 6.2 19.5.95 4.5 3.71 7.86 7.75 10.35 13.36 8.22 24.72 18.41 33.65 31.02 1.95 2.76 3.41 5.76 4.59 8.82 4.52 11.72 11.43 22.23 19.83 31.86 5.66 6.48 9.62 13.68 13.1 21.21 6.72 14.55 11.06 29.68 15.54 44.8 3.47 11.7 6.74 23.48 12.71 34.49 3.7 6.82 8.7 12.3 15.84 16.48 18.59 10.89 33.38 25.43 43.52 44-2.67 4.85-5.33 9.7-8 14.55z" class="cls-10" style="fill:#291091;stroke-width:0"/><path id="path135" d="M445.63 209.65c-5.91-5.03-12.43-9.2-19.43-12.56-12.48-5.99-22.68-14.62-31.81-24.68-5.93-6.54-13.3-11.51-20.83-16.15-7.01-4.32-14.67-7.54-21.4-12.35-9.72-6.95-17.69-15.56-25.17-24.6-5.33-6.43-9.46-13.54-13.86-20.53-8.38-13.35-20.02-23.97-33.06-33.26-3.91-2.78-8.19-5.12-11.53-8.62-3.88-4.07-5.94-9.03-7.94-13.96-1.56-3.86-2.7-7.84-4.02-11.77-.24-.71-.73-1.56.03-2.09.75-.52 1.5.2 2.16.56 5.47 2.98 10.92 6.02 16.4 8.99 1.44.78 2.31 1.83 2.63 3.35 2.46 11.73 9.67 20.71 18.97 28.71 11.91 10.25 21.8 22.11 30.03 35.2 5.44 8.65 12.98 15.44 21.61 21.19 9.39 6.26 19.34 11.39 29.72 15.85 9.79 4.21 18.02 10.79 25.94 17.79 9.36 8.27 18.78 16.38 31.06 20.66 7.16 2.49 14 6.08 20.08 10.81l-9.6 17.46z" class="cls-10" style="fill:#291091;stroke-width:0"/><path id="path137" d="M460.03 183.46c-5.95-6.08-12.91-11.04-19.61-16.27-1.57-1.22-3.46-1.97-5.4-2.58-12.74-4.05-24.03-10.56-33.39-20.11-6.67-6.8-14.36-12.38-22.11-17.94-11.61-8.34-24.24-14.98-36.62-22.06-6.23-3.57-10.66-9.01-14.99-14.45-9.45-11.86-19.59-23.19-30.1-34.23-1.97-2.07-4-4.13-5.25-6.75 1.1-.61 1.83.17 2.54.56 4.69 2.53 9.36 5.09 14.01 7.69 4.04 2.27 5.97 6.33 8.75 9.64 8.78 10.44 17.88 20.5 29.44 28.31 3.97 2.68 8.34 4.39 12.61 6.39 10.09 4.71 20.55 8.59 30.27 14.15 4.66 2.66 9.14 5.46 12.89 9.27 7.2 7.32 16.32 10.98 26.02 12.88 10.55 2.06 19.44 7.03 27.73 13.61 4.97 3.95 9.22 8.53 13.63 12.99-3.47 6.31-6.93 12.61-10.4 18.92z" class="cls-10" style="fill:#291091;stroke-width:0"/><path id="path139" d="M430.43 237.29c-3.77-2.08-7.93-2.88-11.99-3.73-19.26-4.03-33.6-14.84-44.77-30.36-8.44-11.73-14.18-24.58-19.73-37.53-1.15-2.67-2.48-5.31-3.07-8.13-.26-1.25-.86-2.8.77-3.48 1.72-.72 2.86.51 3.67 1.77 3.42 5.29 6.64 10.68 10.14 15.93 7.49 11.22 16.03 21.69 27.2 29.83 6.14 4.48 12.92 8.09 20.34 10.3 6.71 1.99 13.36 4.23 20.03 6.37 2.21.71 4.26 1.76 6.2 3.04-2.93 5.34-5.87 10.67-8.8 16.01z" class="cls-10" style="fill:#291091;stroke-width:0"/><path id="path141" d="M83.68 254.45c-.78-4.61-2.12-9.12-3.95-13.52-.81-1.95-.74-3.59.27-5.34 2.58-4.47 4.99-9.04 7.51-13.54.38-.68.53-1.77 1.61-1.68.9.07 1.11 1.05 1.45 1.72 7.14 13.84 12.82 28.11 16.63 42.92.21.82.18 1.68.26 2.53l-23.79-13.08z" class="cls-10" style="fill:#291091;stroke-width:0"/><path id="path143" d="M474.17 157.75c-8.15-7.53-16.71-14.58-25.87-20.94-4.13-2.87-8.91-4.11-13.59-5.54-17.77-5.43-33.39-14.4-46.76-27.32-3.13-3.02-6.76-5.58-10.58-8.69 1.16.51 1.93.78 2.63 1.16 32.32 17.72 64.63 35.45 96.94 53.19.43.24.82.58 1.22.87-1.33 2.43-2.67 4.85-4 7.28z" class="cls-10" style="fill:#291091;stroke-width:0"/><path id="path145" d="M190.88 116.66c-8.48-6.99-14.16-16.26-22.07-23.72-1.56-1.48-3.33-2.56-5.16-3.6-1.77-1.01-2.09-2.13-1.16-3.75 1.98-3.44 3.88-6.92 5.74-10.42.94-1.77 2.01-1.88 3.67-.5 5.33 4.44 9.97 9.49 14.24 14.84 6.6 8.27 12.83 16.83 20.7 24.14 4.73 4.39 10.1 7.85 15.9 10.72 4.71 2.33 9.07 5.17 12.99 8.65.61.55 1.38 1.52 2.27.88.7-.5.09-1.41-.18-2.1-5.12-12.91-13.28-23.45-25.82-31.13-11.35-6.94-20.69-16.09-27.84-27.06-2.11-3.24-4.29-6.38-7.14-9.06-1.38-1.3-1.63-2.49-.74-4.03 2.25-3.92 4.34-7.92 6.56-11.86 1.2-2.12 1.94-2.12 3.48.08 2.61 3.72 5.03 7.58 6.69 11.72 4.64 11.65 12.81 20.71 22.87 28.6 6.3 4.93 12.83 9.63 18.52 15.26 6.59 6.52 10.65 14.42 14.3 22.5 4.73 10.47 8.37 21.24 11.37 32.18 1.02 3.72 3.42 6.99 4.94 10.56.64 1.51 1.34 3.05 1.67 4.61.46 2.21-1.1 3.26-3.16 2.11-1.46-.82-2.84-1.93-3.99-3.13-7.47-7.76-15.32-15.14-23.91-21.75-2.76-2.13-5.93-3.76-8.87-5.66-7.51-4.86-14.49-10.39-21.44-15.97-1.29-1.04-2.65-1.76-4.24-2.15-6.1-1.51-12.2-3.01-18.28-4.6-8.54-2.23-15.72-6.92-22.39-12.52-1.84-1.54-3.68-3.08-5.57-4.57-1.65-1.29-2.25-2.61-1.1-4.4 1.14-1.78 2.11-3.68 3.09-5.56.89-1.7 1.93-1.62 3.45-.35 2.71 2.24 5.16 4.69 7.52 7.26 5.27 5.73 11.65 10.01 18.68 13.41.54.26 1.11.5 1.68.62.76.17 1.54.22 2.31.32l.4-.55z" class="cls-10" style="fill:#291091;stroke-width:0"/></g></g></g><path id="path152" d="M450.47 234.91s75.55-13.42 85.97 34.97" class="cls-5" style="fill:none;stroke:#291091;stroke-width:4.65999985px;stroke-linecap:round;stroke-linejoin:round"/><path id="path154" d="M459.35 222.44s75.55-13.42 85.97 34.97" class="cls-5" style="fill:none;stroke:#291091;stroke-width:4.65999985px;stroke-linecap:round;stroke-linejoin:round"/><path id="path156" d="M177.58 113.33s86.49 14.19 122.82 0c0 0-29.05-13.18-52.37-13.18 0 0 60.11-26.81 124.18-6.08" class="cls-6" style="fill:none;stroke:#ffc0f9;stroke-width:4.28000021px;stroke-linecap:round;stroke-linejoin:round"/><path id="path158" d="M102.79 218.66s-26.73-6.51-33.25 8.57c-6.51 15.08 27.02 50.79 73.69 63.41" class="cls-6" style="fill:none;stroke:#ffc0f9;stroke-width:4.28000021px;stroke-linecap:round;stroke-linejoin:round"/></g><path id="path162" d="M327.49 136.36s77.56-5.82 108.79-19.43" class="cls-5" style="fill:none;stroke:#291091;stroke-width:4.65999985px;stroke-linecap:round;stroke-linejoin:round"/><path id="path164" d="M355.59 118.19s49.19-3.92 64.82-16.81" class="cls-5" style="fill:none;stroke:#291091;stroke-width:4.65999985px;stroke-linecap:round;stroke-linejoin:round"/></g></svg>