<svg xmlns="http://www.w3.org/2000/svg" id="Layer_1" data-name="Layer 1" version="1.1" width="273.66" height="273.129"><defs id="defs4"><style id="style2">.cls-2{fill:#5e4c9b}.cls-3{fill:#f2ea1e}</style></defs><path d="M269 204.559v63.92h-96.81c-49.34-3.73-57.72-46.55-57.72-46.55-110.78 0-109.85-81.92-109.85-81.92v-55.9c4.65-76.34 55.85-79.13 55.85-79.13h39.06s66.13-7.45 71.71 50.27h28.87c64.24-.93 68.89 48.41 68.89 48.41z" id="path145" style="fill:#231f20"/><path d="M273.66 273.129H171.83c-27.24-2.06-42.63-15.57-50.75-26.54a68.34 68.34 0 0 1-10.19-20c-38-.61-67.17-10.89-86.65-30.59C-.11 171.379 0 141.229 0 139.959v-56.13c1.39-22.74 8-53.61 31.49-71.61C45.85 1.219 59.67.369 60.25.329h39.07c3.5-.35 34.83-2.92 56.61 14.73 10.64 8.62 17.17 20.56 19.45 35.54h24.76c19.34-.28 45.88 3.95 62.25 25.71a58 58 0 0 1 11.27 26.91v.44zm-101.3-9.31h92v-159.91c-.42-3.57-6.55-44.83-64.17-44H167l-.41-4.21c-1.39-14.36-7-25.59-16.53-33.37-19.54-15.88-49.73-12.76-50-12.72H60.64c-1.09.09-12.39 1.28-23.95 10.31-16.11 12.59-25.59 34.82-27.42 64.3v55.76A76.38 76.38 0 0 0 31 189.539c18.28 18.41 46.37 27.74 83.5 27.74h3.83l.74 3.76c.29 1.59 8.39 39.34 53.29 42.78z" id="path147" style="fill:#f6dd93"/><path class="cls-3" d="M102.38 123.199c-24.5-2-39.57-17.72-39.34-40.93.12-12.54 3.49-24 9.48-32.33 7.07-9.8 17.49-15 30.14-15.17l.07 7.45c-15.4.15-32 10.77-32.25 40.13-.19 19.22 12 31.71 32.52 33.43z" id="path149" style="fill:#f2ea1e"/><path class="cls-3" d="M114.32 123.209H83.75c-24.5-2-39.58-17.72-39.35-40.93.13-12.54 3.49-24 9.48-32.33 6.91-9.58 17-14.8 29.28-15.15h32.56c6.11 0 10.8 1.82 13.93 5.39 4.23 4.83 3.91 11 3.76 12.51v15.62h-25.13v-16.79a6.39 6.39 0 0 0-2.58-5.15c-3.64-3.06-9.59-4-10.7-4.17H84.06c-15.37.15-31.92 10.77-32.21 40.13-.19 19.17 11.91 31.65 32.36 33.41h22.66v-17.21h7.45zm1.4-62.37H126v-8.87s.46-4.19-2-6.94c-1.66-1.86-4.45-2.81-8.29-2.81h-3.64a13.58 13.58 0 0 1 3.64 9.31z" id="path151" style="fill:#f2ea1e"/><path class="cls-3" d="M204.87 173.509c-24.5-2-39.58-17.72-39.35-40.93.28-28.82 12.36-43.54 35.89-43.77l.07 7.45c-19.21.18-28.27 11.75-28.51 36.4-.19 19.22 12 31.71 32.51 33.43z" id="path153" style="fill:#f2ea1e"/><path class="cls-3" d="M214.94 173.519h-28.71c-24.5-2-39.57-17.72-39.34-40.93.26-26.85 14.73-43.15 38.75-43.75h28.84c6.11 0 10.79 1.81 13.92 5.39 4.23 4.83 3.92 11 3.77 12.51v15.61H207v-16.78a6.39 6.39 0 0 0-2.58-5.14 21.4 21.4 0 0 0-7.21-4.17h-10.7c-28.75.27-32.1 25.54-32.21 36.4-.19 19.17 11.91 31.65 32.37 33.41h20.79v-13.53h25.07v19.55h-7.44v-12.1h-10.15zm-.46-58.64h10.24v-8.87s.46-4.19-2-6.94c-1.66-1.87-4.45-2.81-8.29-2.81h-3.64a13.58 13.58 0 0 1 3.64 9.31z" id="path155" style="fill:#f2ea1e"/><path class="cls-3" d="M137.12 98.999H80.34v-23.27h56.78zm-49.33-7.44h41.89v-8.38H87.79z" id="path157" style="fill:#f2ea1e"/><path class="cls-3" id="rect159" style="fill:#f2ea1e" d="M124.56 97.609h7.45v46.1h-7.45z"/><path class="cls-2" d="M239.22 238.659h-63.3c-37.91 0-44.55-35.15-44.62-35.5l-.07-.4v-39.83h9.31v39c.72 3.37 6.88 27.46 35.38 27.46h63.3z" id="path161" style="fill:#5e4c9b"/><path class="cls-2" d="M110.65 160.379H79c-37.91 0-44.55-35.15-44.61-35.5l9.16-1.63c.21 1.13 5.46 27.82 35.45 27.82h31.63z" id="path163" style="fill:#5e4c9b"/><path class="cls-2" d="M110.65 190.209H79c-37.91 0-44.55-35.14-44.61-35.5l-.07-.4v-39.83h9.31v39c.72 3.36 6.88 27.45 35.37 27.45h31.63z" id="path165" style="fill:#5e4c9b"/><path class="cls-2" d="M239.22 208.839h-63.3c-37.91 0-44.55-35.14-44.62-35.49l9.17-1.64c.21 1.14 5.45 27.82 35.45 27.82h63.3z" id="path167" style="fill:#5e4c9b"/><path class="cls-2" id="rect169" style="fill:#5e4c9b" d="M172.5 206.729h9.31v13.44h-9.31z"/><path class="cls-2" id="rect171" style="fill:#5e4c9b" d="M201.31 206.729h9.31v13.44h-9.31z"/><path class="cls-2" id="rect173" style="fill:#5e4c9b" d="M230.12 206.729h9.31v13.44h-9.31z"/><path class="cls-2" id="rect175" style="fill:#5e4c9b" d="M72.94 155.869h9.31v13.91h-9.31z"/><path class="cls-2" id="rect177" style="fill:#5e4c9b" d="M100.79 155.869h9.31v13.91h-9.31z"/></svg>