<svg xmlns="http://www.w3.org/2000/svg" xmlns:xlink="http://www.w3.org/1999/xlink" id="Layer_1" data-name="Layer 1" version="1.1" width="275.779" height="257.205"><defs id="defs35"><linearGradient id="linear-gradient" x1="501.35" y1="554" x2="501.35" y2="172" gradientUnits="userSpaceOnUse"><stop offset="0" stop-color="#b8b8b8" id="stop4"/><stop offset="1" stop-color="#6b6a6b" id="stop6"/></linearGradient><linearGradient id="linear-gradient-2" x1="482.02" y1="333.72" x2="576.6" y2="333.72" gradientUnits="userSpaceOnUse"><stop offset="0" stop-color="#fff" id="stop9"/><stop offset="1" stop-color="#6b6a6b" id="stop11"/></linearGradient><linearGradient id="linear-gradient-3" x1="420.76" y1="339.34" x2="460.21" y2="339.34" xlink:href="#linear-gradient-2"/><linearGradient id="linear-gradient-4" x1="492.65" y1="427.43" x2="530.07" y2="427.43" xlink:href="#linear-gradient-2"/><linearGradient id="linear-gradient-5" x1="419.98" y1="380.84" x2="466.08" y2="380.84" xlink:href="#linear-gradient-2"/><linearGradient id="linear-gradient-6" x1="436.5" y1="422.47" x2="488.64" y2="422.47" xlink:href="#linear-gradient-2"/><linearGradient id="linear-gradient-7" x1="451.2" y1="326.27" x2="522.09" y2="326.27" xlink:href="#linear-gradient-2"/><linearGradient id="linear-gradient-8" x1="526.51" y1="413.23" x2="562.29" y2="413.23" xlink:href="#linear-gradient-2"/><linearGradient id="linear-gradient-9" x1="549.8" y1="360.68" x2="602.63" y2="360.68" xlink:href="#linear-gradient-2"/><linearGradient id="linear-gradient-10" x1="521.45" y1="364.31" x2="591.65" y2="364.31" xlink:href="#linear-gradient-2"/><linearGradient id="linear-gradient-11" x1="252.77" y1="1061.82" x2="252.77" y2="766" xlink:href="#linear-gradient"/><linearGradient id="linear-gradient-12" x1="302.35" y1="1036.56" x2="302.35" y2="957.53" xlink:href="#linear-gradient-2"/><linearGradient id="linear-gradient-13" x1="253.29" y1="961.22" x2="253.29" y2="788.99" xlink:href="#linear-gradient-2"/><linearGradient id="linear-gradient-14" x1="194.16" y1="861.12" x2="303.4" y2="861.12" xlink:href="#linear-gradient-2"/><linearGradient id="linear-gradient-15" x1="706.54" y1="872.85" x2="821.77" y2="872.85" xlink:href="#linear-gradient-2" gradientTransform="translate(-604.971 -779.335)"/><linearGradient id="linear-gradient-16" x1="631.91" y1="879.69" x2="679.98" y2="879.69" xlink:href="#linear-gradient-2" gradientTransform="translate(-604.971 -779.335)"/><linearGradient id="linear-gradient-17" x1="719.49" y1="987" x2="765.08" y2="987" xlink:href="#linear-gradient-2" gradientTransform="translate(-604.971 -779.335)"/><linearGradient id="linear-gradient-18" x1="630.96" y1="930.25" x2="687.12" y2="930.25" xlink:href="#linear-gradient-2" gradientTransform="translate(-604.971 -779.335)"/><linearGradient id="linear-gradient-19" x1="651.09" y1="980.96" x2="714.61" y2="980.96" xlink:href="#linear-gradient-2" gradientTransform="translate(-604.971 -779.335)"/><linearGradient id="linear-gradient-20" x1="669" y1="863.77" x2="755.36" y2="863.77" xlink:href="#linear-gradient-2" gradientTransform="translate(-604.971 -779.335)"/><linearGradient id="linear-gradient-21" x1="760.75" y1="969.71" x2="804.34" y2="969.71" xlink:href="#linear-gradient-2" gradientTransform="translate(-604.971 -779.335)"/><linearGradient id="linear-gradient-22" x1="789.12" y1="905.69" x2="853.49" y2="905.69" xlink:href="#linear-gradient-2" gradientTransform="translate(-604.971 -779.335)"/><linearGradient id="linear-gradient-23" x1="754.58" y1="910.11" x2="840.1" y2="910.11" xlink:href="#linear-gradient-2" gradientTransform="translate(-604.971 -779.335)"/><style id="style2">.cls-35{fill:none;stroke:#270c54;stroke-miterlimit:10;stroke-width:7.33px}</style></defs><path d="m275.349 60.295-1.32-8.23-8.08-2c-10.6-2.65-22.64.43-32.28 4.34-25.68-38-69-48.67-75.5-50.08-45.3-14-83.84 9.92-93 16.3-30 11.27-44.47 31-51.31 45.68a81.52 81.52 0 0 0-7.64 28.92c-17.15 57.51 5.95 90.14 12.15 97.54a122.27 122.27 0 0 0 27.55 34.61c3.45 3.06 35 29.83 77.93 29.83a100.86 100.86 0 0 0 13.81-1c34.91-4.86 60.15-20.47 75.09-46.41 8.64 1.53 22.38 2.59 34.06-5.57 9.81-6.85 15.89-18.46 18.09-34.49a208.13 208.13 0 0 0-1.82-68.05c15.89-17.44 12.44-40.37 12.27-41.39z" id="path311" style="fill:#bababa"/><path d="m268.519 61.395-.6-3.72-3.65-.91c-11.32-2.83-25.53 2.67-33.26 6.36-24.08-40.61-69.82-51.12-74.59-52.12-44.15-13.84-82.07 11.54-88 15.77-28.38 10.4-41.92 28.78-48.29 42.44a74.75 74.75 0 0 0-7 27.19c-17.22 56.72 6.76 87.53 11 92.41a116 116 0 0 0 26.39 33.35c1.82 1.61 32.46 28.1 73.35 28.1a93.12 93.12 0 0 0 12.86-.89c34.6-4.82 58.93-20.74 72.39-47.36h.24c7 1.54 21.74 4.74 33.5-3.49 8.16-5.7 13.27-15.71 15.2-29.75 4.56-33.34-.34-59.9-2.52-69.31 16.43-15.16 13.13-37.09 12.98-38.07z" id="path313" style="fill:#270c54"/><path d="M216.799 62.275c-9.79-1.06-24-.53-40.28 6.36-9-7.8-21-11.09-28.58-11.72l-4.11-.34-1.61 3.8c-10.09 23.82 1 42.22 6.6 49.45-12.65 25.14-5.18 45.71-4.1 48.4-9.37 5.84-28.52 3.36-35.52 1.77a51.07 51.07 0 0 1-7.63-3.12c.09-.21.19-.41.29-.62 6.71-15.59 9.11-34.1 11.22-50.43.55-4.23 1.06-8.21 1.63-12.06 2-13.6 5.68-24 11.47-32.75 9.87-14.9 24.65-26.33 38.06-35.89 13.33 4.59 36.64 15.27 52.56 37.15z" id="path315" style="fill:url(#linear-gradient-15)"/><path d="M53.409 91.225q5.27 37.44 21.62 58.18a151.63 151.63 0 0 1-30.52-24.8 116.21 116.21 0 0 1-17.57-23.94 76.91 76.91 0 0 1 6.21-17.77c4.18-8.59 11.41-19.8 23.78-31.6-3.25 10.98-5.62 25.02-3.52 39.93z" id="path317" style="fill:url(#linear-gradient-16)"/><path d="M124.899 233.915c-8.65-10.31-11.91-23-9.72-38a75.91 75.91 0 0 1 3.79-14.71c11.09 3.76 36.07 15.16 41.14 30.54a50.89 50.89 0 0 1-2.57 12c-5.51 11.33-26.04 10.69-32.64 10.17z" id="path319" style="fill:url(#linear-gradient-17)"/><path d="M82.149 166.555a41.87 41.87 0 0 1-22.25 13 69.34 69.34 0 0 1-21.87 1.59 66 66 0 0 1-4.64-9.41c-6.7-16.63-7.86-35.93-7.3-51.31a141.33 141.33 0 0 0 9.61 11.5c9.7 10.43 24.71 23.43 46.45 34.63z" id="path321" style="fill:url(#linear-gradient-18)"/><path d="M62.529 190.665c12.64-3 22.67-9.28 30.34-19 4.79 2.11 9.87 4.12 15.24 6a86.69 86.69 0 0 0-4.15 16.2c-2.14 14-.18 26.76 5.68 37.74a109.09 109.09 0 0 1-14-4.45c-21.73-8.49-38.24-22.35-49.49-34.36a80 80 0 0 0 16.38-2.13z" id="path323" style="fill:url(#linear-gradient-19)"/><path d="M150.389 21.125c-12.72 9.56-24.94 20.34-33.72 33.59-6.75 10.18-10.95 22.06-13.24 37.37-.59 4-1.11 8-1.66 12.27-2 15.64-4.19 32.31-9.87 46.11-14-11.82-23.16-32.18-27.19-60.83-3.45-24.47 7.25-47.09 10.47-53.22q3.86-2.7 8.13-5.39c9.72-5.31 26.72-12.63 46.61-12.63a77.1 77.1 0 0 1 20.47 2.73z" id="path325" style="fill:url(#linear-gradient-20)"/><path d="m168.089 228.195.12-.33a24.57 24.57 0 0 0 1.57-5.08c7.11-27.33-5.78-56-12.88-66.7-.84-1.26-1.25-2.4-1.08-3a1.54 1.54 0 0 1 .31-.55 100.46 100.46 0 0 1 43.24 43.47 69.62 69.62 0 0 1-31.28 32.19z" id="path327" style="fill:url(#linear-gradient-21)"/><path d="M246.759 167.275a48.73 48.73 0 0 1-3.09 12.17c-23.23-.13-27.4-25.15-27.57-26.24l-.06-.37-.1-.35c-3.17-11.17-6.77-23.83-14.77-35-1.43-2-3-3.83-4.43-5.59-2.63-3.14-5.12-6.11-6.51-9.55a27.41 27.41 0 0 1-1.56-8.24c-.1-1-.19-2.1-.32-3.19a34.15 34.15 0 0 0-4.2-13 69.42 69.42 0 0 1 28.36-4.5 50.91 50.91 0 0 1 13.52 2.41c2.4 1.71 12.88 9.64 16.57 19.48l1.07 3.72c.08.31 8.36 29.83 3.09 68.25z" id="path329" style="fill:url(#linear-gradient-22)"/><path d="M212.089 173.535a52.82 52.82 0 0 1-7.2-18.23c-3-10.69-6.22-21.72-13-31.24-1.17-1.65-2.49-3.22-3.89-4.89-3.08-3.68-6.27-7.49-8.34-12.6a37.66 37.66 0 0 1-2.34-11.49c-.09-.94-.17-1.9-.29-2.88-1.92-16.35-18-21.64-25.79-23.26-6.41 21.08 8.3 35.9 8.46 36.05l3 3-2 3.75a33.23 33.23 0 0 0-2.29 26.31c8.92 5.09 45.87 27.38 58.22 53.85 5.68 1 12.73 1.41 18.47-1.91-11.58-2.5-18.77-9.87-23.01-16.46zm-21-32a14.58 14.58 0 0 1-18.36-15.81 14.58 14.58 0 0 1 18.3 15.82z" id="path331" style="fill:url(#linear-gradient-23)"/><path class="cls-35" d="M169.339 201.665s17.05 4.79 30-17.43" id="path333" style="fill:none;stroke:#270c54;stroke-width:7.32999992px;stroke-miterlimit:10"/><path class="cls-35" d="M160.109 182.975s17 4.79 30-17.43" id="path335" style="fill:none;stroke:#270c54;stroke-width:7.32999992px;stroke-miterlimit:10"/><path class="cls-35" id="polyline337" style="fill:none;stroke:#270c54;stroke-width:7.32999992px;stroke-miterlimit:10" transform="translate(-604.971 -779.335)" d="m816.27 931.89 27.96 6.16 16.48-7.8"/><path class="cls-35" id="polyline339" style="fill:none;stroke:#270c54;stroke-width:7.32999992px;stroke-miterlimit:10" transform="translate(-604.971 -779.335)" d="m812.19 913.97 27.96 4.53 16.49-7.8"/><path class="cls-35" id="polyline341" style="fill:none;stroke:#270c54;stroke-width:7.32999992px;stroke-miterlimit:10" transform="translate(-604.971 -779.335)" d="m796.44 891.83 39.95 4.97 15.69-9.3"/><path class="cls-35" id="polyline343" style="fill:none;stroke:#270c54;stroke-width:7.32999992px;stroke-miterlimit:10" transform="translate(-604.971 -779.335)" d="m789.12 872.14 41.71 4.02 15.23-10.02"/><path class="cls-35" id="polyline345" style="fill:none;stroke:#270c54;stroke-width:7.32999992px;stroke-miterlimit:10" transform="translate(-604.971 -779.335)" d="m786.01 849.38 28.29 4.41 15.96-8.81"/></svg>