<svg xmlns="http://www.w3.org/2000/svg" id="Layer_1" data-name="Layer 1" version="1.1" width="343.211" height="297.974"><defs id="defs7"><clipPath id="clip-path"><path id="polygon4" style="fill:none" d="M387.69 532.55V285.11H125.8V532.5l133.06 97.71z"/></clipPath><style id="style2">.cls-3{fill:#3a7a91}.cls-5{fill:#7a1319}.cls-6{fill:#89bfd3}.cls-7{fill:#07364f}.cls-10{fill:#fff}.cls-12{fill:#1e546d}</style></defs><path class="cls-6" id="polyline404" style="fill:#89bfd3" transform="translate(-560.588 -301.756)" d="m629.93 515.49 209.85 36.45-.98-84.73"/><path class="cls-6" d="M279.192 262.504a12.61 12.61 0 0 1-2.11-.18l-209.84-36.46a12.31 12.31 0 1 1 4.17-24.26l195.25 33.91-.81-69.91a12.32 12.32 0 0 1 12.17-12.46h.15a12.32 12.32 0 0 1 12.31 12.17l1 84.73a12.33 12.33 0 0 1-12.32 12.46z" id="path406" style="fill:#89bfd3"/><path class="cls-6" id="polyline408" style="fill:#89bfd3" transform="translate(-560.588 -301.756)" d="m629.93 515.49 209.85 36.45-.98-84.73"/><path class="cls-7" d="M279.192 252.644h-.42l-209.85-36.48a2.47 2.47 0 0 1 .84-4.86l206.93 36-.95-81.77a2.47 2.47 0 0 1 2.44-2.49 2.51 2.51 0 0 1 2.49 2.44l1 84.72a2.45 2.45 0 0 1-.86 1.91 2.48 2.48 0 0 1-1.62.53z" id="path410" style="fill:#07364f"/><ellipse class="cls-6" cx="247.742" cy="251.444" rx="64.76" ry="43.83" id="ellipse412" style="fill:#89bfd3"/><path class="cls-7" d="M247.742 297.974c-37.2 0-67.47-20.87-67.47-46.53s30.27-46.54 67.47-46.54 67.47 20.88 67.47 46.54-30.27 46.53-67.47 46.53zm0-87.65c-34.22 0-62.05 18.44-62.05 41.12 0 22.68 27.83 41.12 62.05 41.12s62-18.45 62-41.12c0-22.67-27.78-41.12-62-41.12z" id="path414" style="fill:#07364f"/><path class="cls-7" d="M274.412 235.134a20.33 20.33 0 0 1-9.74-6.62c-5.67 0-13.52-5.58-13.52-5.58l.09-.75c3.69.09 13.15 3.5 13.15 3.5-2.84-4.45-11.45-4.35-11.45-4.35l-1.7-.29a18.42 18.42 0 0 1 16.17 2.08c9.46 1.42 12 6.24 12 6.24l.51 5-5.11 2.27" id="path416" style="fill:#07364f"/><path class="cls-7" d="M220.522 235.134a20.33 20.33 0 0 0 9.74-6.62c5.67 0 13.52-5.58 13.52-5.58l-.09-.75c-3.69.09-13.15 3.5-13.15 3.5 2.84-4.45 11.44-4.35 11.44-4.35l1.71-.29a18.42 18.42 0 0 0-16.17 2.08c-9.46 1.42-12 6.24-12 6.24l-2.11 3.88z" id="path418" style="fill:#07364f"/><rect class="cls-7" x="242.452" y="234.264" width="9.5" height="5.53" rx="2.77" id="rect420" style="fill:#07364f"/><path class="cls-7" d="M225.722 246.244s-8.61-1.9-12.67-6.25c0 0-5.86-5.57 2.46-10.59 0 0 .85 4.54 5 5.77a29.73 29.73 0 0 0 13.9 4.82" id="path422" style="fill:#07364f"/><path class="cls-7" d="M224.412 247.054s-8.7-.19-17.59-7.76c0 0-2.27-1.32-2.84 2.37v.85a30.69 30.69 0 0 0 8.32 4.44v1.23l7 .66 3.31.95" id="path424" style="fill:#07364f"/><path class="cls-7" d="M205.202 239.584s-4.82-4.92-6.81-7.19c0 0 .47 9 5.58 9.27" id="path426" style="fill:#07364f"/><path class="cls-7" d="m204.412 249.324-.94 3.49 7.94.48 7.09 1 11.91 1.46-3.22-3.5a33.3 33.3 0 0 0-9.93.19s-3.27-4.54-12.85-3.12z" id="path428" style="fill:#07364f"/><path class="cls-7" d="M204.632 250.734s-2.74-3.12-9.64-4.82a12 12 0 0 0 8.51 6.9" id="path430" style="fill:#07364f"/><path class="cls-7" d="m235.552 259.064-16.17.66s-3.31 6.81-7.84 7.85l-1.9 8.32s-2.93-6.81-.28-10.5l5-4.16s-.47-3.12 5.49-3.88l12.1-.85" id="path432" style="fill:#07364f"/><path class="cls-7" d="M209.412 265.394a1.94 1.94 0 0 1 2.18 2.18" id="path434" style="fill:#07364f"/><path class="cls-7" d="m246.242 260.244-1.51 2.27-7.85 1.32s-3.88 3.31-7.19 2.08c0 0 2 6-2 10.22 0 0 2.64 7.37-1.42 8.6 0 0-7.1 0-3.79-10.87 0 0-.28-4.16 3.22-5.2 0 0-2.36-5.2 3.21-6.81 0 0 1-2 6.15-.19l2.84-2.55" id="path436" style="fill:#07364f"/><path class="cls-7" d="M269.182 246.244s8.6-1.9 12.67-6.25c0 0 5.86-5.57-2.46-10.59 0 0-.85 4.54-5 5.77a29.79 29.79 0 0 1-13.9 4.82" id="path438" style="fill:#07364f"/><path class="cls-7" d="M270.502 247.054s8.7-.19 17.59-7.76c0 0 2.27-1.32 2.84 2.37v.85a30.69 30.69 0 0 1-8.32 4.44v1.23l-7 .66-3.31.95" id="path440" style="fill:#07364f"/><path class="cls-7" d="M289.702 239.584s4.82-4.92 6.81-7.19c0 0-.48 9-5.58 9.27" id="path442" style="fill:#07364f"/><path class="cls-7" d="m290.412 249.324 1 3.49-7.94.48-7.1 1-11.96 1.46 3.21-3.5a33.31 33.31 0 0 1 9.93.19s3.35-4.54 12.86-3.12z" id="path444" style="fill:#07364f"/><path class="cls-7" d="M290.262 250.734s2.75-3.12 9.65-4.82a12 12 0 0 1-8.51 6.9" id="path446" style="fill:#07364f"/><path class="cls-7" d="m259.342 259.064 16.17.66s3.31 6.81 7.85 7.85l1.89 8.32s2.93-6.81.29-10.5l-5-4.16s.48-3.12-5.48-3.88l-12.1-.85" id="path448" style="fill:#07364f"/><path class="cls-7" d="M285.542 265.394a1.93 1.93 0 0 0-2.18 2.18" id="path450" style="fill:#07364f"/><path class="cls-7" d="m248.662 260.244 1.51 2.27 7.85 1.32s3.88 3.31 7.19 2.08c0 0-2 6 2 10.22 0 0-2.65 7.37 1.42 8.6 0 0 7.09 0 3.78-10.87 0 0 .29-4.16-3.21-5.2 0 0 2.36-5.2-3.22-6.81 0 0-1-2-6.14-.19l-2.84-2.55" id="path452" style="fill:#07364f"/><path class="cls-7" d="M247.412 237.164c-18.1-.58-24.85 12.63-24.85 12.63 7.37 8.08 20.14 11.2 20.14 11.2l4.71-.4 4.71.4s12.76-3.12 20.14-11.2c.04 0-6.71-13.21-24.85-12.63z" id="path454" style="fill:#07364f"/><path class="cls-7" d="M222.502 273.814s1.8-.83 2.22.87c.42 1.7 1 2.08 3 1.4" id="path456" style="fill:#07364f"/><path class="cls-7" d="M272.412 273.814s-1.79-.83-2.21.87c-.42 1.7-1 2.08-3 1.4" id="path458" style="fill:#07364f"/><path class="cls-7" d="M242.302 238.144a7.58 7.58 0 0 1-4.88-7h1a6.47 6.47 0 0 0 4.19 6.07z" id="path460" style="fill:#07364f"/><path class="cls-7" d="m252.262 238.144-.31-.95a6.46 6.46 0 0 0 4.2-6.07h1a7.58 7.58 0 0 1-4.89 7.02z" id="path462" style="fill:#07364f"/><path class="cls-12" d="M263.842 245.244a22.15 22.15 0 0 0-14.49-4.92H247.382a22.13 22.13 0 0 0-14.49 4.92 20 20 0 0 0-3.63 3.9c4.62 4.42 11.24 6.84 14.09 7.73.11-2.84 1.75-14 20.49-11.63z" id="path464" style="fill:#1e546d"/><path class="cls-12" d="M263.762 241.644s7.8-1.71 12-5.39a25.78 25.78 0 0 1-9.5 7.23" id="path466" style="fill:#1e546d"/><path class="cls-12" d="M266.882 228.024s3.54 4.25 8.23 5.53l1.56-.85s-2.13-5.11-9.79-4.68z" id="path468" style="fill:#1e546d"/><path class="cls-12" d="M228.582 242.494s-9.36-.29-13.47-8.8l-.57-1.56-1.28 2.84s-.56 5.53 13.19 9.22" id="path470" style="fill:#1e546d"/><path class="cls-12" d="M217.532 230.724s.52 1.58 1.57 1.84c0 0 6.57-1.18 9.2-5 0 0-.26-2.1-1.18-2.1-.92 0-5.65.27-9.59 5.26z" id="path472" style="fill:#1e546d"/><path class="cls-12" d="M269.152 282.344a4.09 4.09 0 0 1 0-5.39 4.39 4.39 0 0 0-1.8-5.39s3.69-.37 3.88 3.79c0 0 1.42 6.99-2.08 6.99z" id="path474" style="fill:#1e546d"/><path class="cls-12" d="M225.852 282.344a4.09 4.09 0 0 0 0-5.39 4.39 4.39 0 0 1 1.8-5.39s-3.69-.37-3.88 3.79c0 0-1.42 6.99 2.08 6.99z" id="path476" style="fill:#1e546d"/><path class="cls-7" d="M336.602 123.754c4.41-9.13 4.27-19.84-.39-30.15-7.09-15.7-21.33-20.16-29.61-22.19l-6-25.48-38.41-.5-3.37 12.63c-.32 1.23-.65 2.4-1 3.53a33.35 33.35 0 0 0-10.41-8.35 32.77 32.77 0 0 0-10.23-3.22l.63-36.28-50.12 2.2 1.86 42.44-16.7 1.76c-1.89-.18-3.07-.2-3.81-.2h-1.28c-.35-18.82-8.16-35.27-21.77-45.58a54.91 54.91 0 0 0-33.5-10.87 63.61 63.61 0 0 0-7.52.45c-9.79 1.18-19.36 4.47-30.11 10.37a108.63 108.63 0 0 0-26.29 19.61c-8.07 8.32-13.86 17.42-18 24.41-19.19 32.47-28.27 64.75-27 95.94 1 23.25 8.37 41.45 22 54.08a59.59 59.59 0 0 0 40.63 15.74 60.76 60.76 0 0 0 6.77-.38l215.21-45.12s25.29-5.18 34.8-24.17l13.58-30.65" id="path478" style="fill:#07364f"/><path class="cls-6" d="M66.242 227.514a63 63 0 0 1-43-16.66c-14.35-13.27-22.13-32.27-23.12-56.46-1.31-31.87 7.93-64.78 27.46-97.83 4.23-7.16 10.16-16.47 18.49-25.06a112.16 112.16 0 0 1 27.14-20.26c11.15-6.11 21.11-9.53 31.35-10.76a66.17 66.17 0 0 1 7.93-.48 58.32 58.32 0 0 1 35.58 11.57c13.52 10.24 21.79 26.47 23 44.91.51 0 1.1.07 1.77.13l13.13-1.37-1.72-39.21a3.44 3.44 0 0 1 3.29-3.58l50.12-2.2a3.44 3.44 0 0 1 3.59 3.49l-.59 33.37a35.91 35.91 0 0 1 8.32 3 36.94 36.94 0 0 1 7.14 4.81l2.77-10.39a3.43 3.43 0 0 1 3.32-2.56l38.42.49a3.45 3.45 0 0 1 3.3 2.66l5.5 23.45c10 2.69 22.94 8.24 29.87 23.58 5.08 11.24 5.21 23 .38 33l-13.56 30.6a.61.61 0 0 1-.07.14c-10.14 20.26-36.08 25.78-37.18 26l-215.16 45.16a3 3 0 0 1-.32.06 65.34 65.34 0 0 1-7.15.4zm46.25-220.6a58.85 58.85 0 0 0-7.11.43c-9.34 1.12-18.51 4.29-28.87 10a105.62 105.62 0 0 0-25.47 19c-7.83 8.06-13.46 16.94-17.5 23.77-18.85 31.89-27.77 63.53-26.51 94.05.91 22.31 8 39.7 20.92 51.7a56.18 56.18 0 0 0 38.29 14.82 58.34 58.34 0 0 0 6.22-.34l215.05-45.1c.25 0 23.74-5.1 32.4-22.27l13.5-30.62.05-.1c4-8.19 3.81-17.87-.42-27.24-6.12-13.53-17.8-17.94-27.3-20.26a3.45 3.45 0 0 1-2.53-2.56l-5.36-22.86-33.05-.42-2.67 10c-.34 1.26-.68 2.47-1 3.62a3.44 3.44 0 0 1-5.94 1.23 30 30 0 0 0-9.37-7.54 29.12 29.12 0 0 0-9.15-2.88 3.44 3.44 0 0 1-2.95-3.46l.57-32.62-43 1.89 1.71 39a3.43 3.43 0 0 1-3.07 3.57l-16.7 1.76a3.28 3.28 0 0 1-.7 0 32.64 32.64 0 0 0-3.47-.2h-1.11a3.42 3.42 0 0 1-3.6-3.37c-.33-17.69-7.77-33.32-20.42-42.9a51.44 51.44 0 0 0-31.44-10.1zm210.53 147.49z" id="path480" style="fill:#89bfd3"/><path class="cls-7" d="M333.152 94.984c-6.8-15.06-20.58-18.74-29.34-20.74l-5.86-25-33.17-.43-2.69 10.1c-1 3.77-2.06 7.13-3.19 10.16a31 31 0 0 0-13-12.9 29.61 29.61 0 0 0-12.11-3.17l.62-35.76-43.2 1.9 1.85 42.24-20.19 2.13a34.74 34.74 0 0 0-3.81-.23c-.93 0-1.61.05-2.15.1-.84.08-1.68.2-2.51.35.68-19.12-6.79-36.35-20.41-46.68a51.65 51.65 0 0 0-31.48-10.19 61.13 61.13 0 0 0-7.1.38c-9.35 1.13-18.53 4.3-28.9 10a105.51 105.51 0 0 0-25.49 19c-7.83 8.07-13.47 16.95-17.51 23.79-18.86 31.9-27.78 63.56-26.53 94.09.92 22.33 8 39.75 21 51.76a56.25 56.25 0 0 0 38.35 14.84 55.37 55.37 0 0 0 20.79-4 76.61 76.61 0 0 0 26.16-15.48 71.52 71.52 0 0 0 14.22-17.59l102.77-26.61 50-9.31c11.57-1.64 25.89-3.72 38.9-11.06 2.52-1.42 10.19-5.75 14.39-14.42 3.99-8.18 3.85-17.88-.41-27.27z" id="path482" style="fill:#07364f"/><path class="cls-10" d="M135.862 26.034c-7.79-5.9-18.05-8.43-28.88-7.13-7.6.91-15.24 3.59-24.06 8.42a92.18 92.18 0 0 0-22.31 16.58c-6.85 7-11.93 15.07-15.59 21.27-17.52 29.63-25.82 58.81-24.67 86.71.77 18.66 6.37 32.95 16.65 42.46a43.21 43.21 0 0 0 29.24 11.28 42.25 42.25 0 0 0 16.17-3.18 63.05 63.05 0 0 0 21.9-12.82 57.14 57.14 0 0 0 19-39.08l-26.29 4.84c-4.61 17.09-19.9 22.39-22.31 23.12l-.7.18-.9.4a18.31 18.31 0 0 1-19-3.21c-6.51-6-8.27-16.93-8.6-25-.93-22.65 6.39-47.85 21.19-72.88 3-5 7-11.4 12-16.55a67.91 67.91 0 0 1 16.35-12c5.91-3.24 10.66-5 15-5.5s8.2.32 10.69 2.21c3.75 2.83 5.72 9.27 5 16.39l25 2.42c1.56-16.16-4-30.72-14.88-38.93z" id="path484" style="fill:#fff"/><path class="cls-5" d="M66.242 206.874a44.65 44.65 0 0 1-30.09-11.63c-10.54-9.74-16.28-24.32-17.06-43.33-1.15-28.15 7.2-57.55 24.85-87.4 3.69-6.26 8.83-14.35 15.77-21.51a93.41 93.41 0 0 1 22.6-16.76c9-4.92 16.75-7.64 24.52-8.57 11.16-1.34 21.74 1.28 29.79 7.38 11.23 8.5 17 23.45 15.38 40a1.26 1.26 0 0 1-1.37 1.13l-25.05-2.41a1.31 1.31 0 0 1-.85-.46 1.25 1.25 0 0 1-.28-.92c.65-6.7-1.13-12.69-4.54-15.27-2.24-1.7-5.89-2.43-9.78-2-4.14.49-8.75 2.2-14.51 5.35a66.42 66.42 0 0 0-16.05 11.82c-4.91 5.06-8.89 11.37-11.81 16.31-14.67 24.82-21.94 49.78-21 72.19.33 7.85 2 18.42 8.2 24.15a17 17 0 0 0 17.61 3l.91-.4a.6.6 0 0 1 .19-.06l.7-.19c1.67-.5 16.91-5.59 21.41-22.22a1.24 1.24 0 0 1 1-.91l26.3-4.85a1.27 1.27 0 0 1 1.07.3 1.25 1.25 0 0 1 .41 1 58.63 58.63 0 0 1-19.37 39.93 64 64 0 0 1-22.31 13.06 43.24 43.24 0 0 1-16.64 3.27zm46.25-187a44.19 44.19 0 0 0-5.36.33c-7.44.89-14.94 3.52-23.61 8.27a91.34 91.34 0 0 0-22 16.36c-6.75 7-11.78 14.89-15.41 21-17.39 29.42-25.63 58.36-24.49 86 .75 18.32 6.22 32.31 16.25 41.59a42.18 42.18 0 0 0 28.38 10.94 40.81 40.81 0 0 0 15.67-3.12h.1a62 62 0 0 0 21.44-12.55 56 56 0 0 0 18.4-36.62l-23.89 4.41c-5 17-19.95 22.32-22.94 23.23l-.66.17-.81.35a19.61 19.61 0 0 1-20.33-3.43c-6.82-6.31-8.66-17.57-9-25.9-.94-22.89 6.45-48.33 21.36-73.57 3-5.06 7.08-11.53 12.17-16.78a68.76 68.76 0 0 1 16.65-12.31c6-3.32 11-5.12 15.42-5.65 4.42-.53 8.85.37 11.6 2.45 3.86 2.93 6 9.22 5.62 16.27l22.55 2.17c1.11-15.16-4.26-28.73-14.5-36.49a37.17 37.17 0 0 0-22.61-7.17z" id="path486" style="fill:#7a1319"/><path class="cls-10" d="M320.932 98.834c-4.33-9.57-13.24-11.64-21.11-13.47l-1.11-.26a34.72 34.72 0 0 0-5.93-.84l-5.49-23.4-12.24-.16c-3.16 11.86-7.49 23-15.67 32.12-1.93 2.15-4.23 4.46-6.74 5.31-1.62.54-3.58.24-4.21-.64l-.28-.4c.31-1.27.56-2.46.76-3.51.73-3.81 1.43-8.85.32-14-1.27-5.91-4.73-10.7-9.48-13.14-6-3.08-13.86-1.95-19.71 2.57l.69-39.46-15.55.69 3.07 70c-.2 1.5-.43 3-.73 4.38l-9.29 8.52c-.35.31-.9.82-1.18 1a2.13 2.13 0 0 1-1-.66 12.09 12.09 0 0 1-1.89-4.77 67.57 67.57 0 0 1-1.18-18.82c1-5.61 1.65-11.15 2.17-16.29l-10.74-1.7c-.38 1.79-.74 3.72-1.06 5.76a7 7 0 0 0-2.72-1.11c-9.75-1.78-11.69-1.6-12.52-1.52-6.87.62-13.28 5.79-16.33 13.16-2.37 5.72-2.63 11.73-2.7 17.88a39.57 39.57 0 0 0 .93 10.24 45.17 45.17 0 0 0-4.89 3.89c-1.05.92-2 1.79-3 2.52-2 1.43-4.17 2.12-5.17 1.58-1.19-.63-1.83-3.45-1.63-7.17a69.5 69.5 0 0 1 6.63-26l-8.26-6.66-10.12 7.88a63.46 63.46 0 0 1-5.7 4.05 14.36 14.36 0 0 0-3.78-5 12 12 0 0 0-11.22-2.16 9.57 9.57 0 0 0-6.59 6.72 9.82 9.82 0 0 0 1.14 7.54 13.51 13.51 0 0 0 8.27 6 17.88 17.88 0 0 0 3.63.53 44.41 44.41 0 0 1-1.74 14.41c-.81 2.64-1.79 4.34-2.9 5.05-1.93 1.24-5.62.47-8.93-.34l-4.86-3.07-3 12.36 5.29 1.3a35.94 35.94 0 0 0 8.65 1.31 16 16 0 0 0 8.76-2.38c3.39-2.17 5.83-5.78 7.44-11a56.47 56.47 0 0 0 2.12-20 41.12 41.12 0 0 0 6-3.51 80 80 0 0 0-1.74 12.38c-.58 10.79 3.68 15.4 7.37 17.37 4.87 2.62 11.14 1.72 16.76-2.4 1.38-1 2.6-2.09 3.77-3.13a40.74 40.74 0 0 1 3.27-2.68c4 3.29 9 4.05 12.92 4.34.42 0 1 .07 1.62.07a11.23 11.23 0 0 0 4.18-.74 12.35 12.35 0 0 0 5.09-4.2 52.19 52.19 0 0 0 5.66-9.16 16.64 16.64 0 0 0 2.72 4.53c3.36 3.93 8.57 5.47 13 3.84a14.7 14.7 0 0 0 4.84-3.25l7.06-6.47c3.68 1.76 8.29 3.73 13.35 3.73a19.5 19.5 0 0 0 2.15-.12c5.85-.68 11.36-4.23 15.11-9.74.22-.31.42-.62.62-.94a15.54 15.54 0 0 0 12.22.87 22.23 22.23 0 0 0 7.35-4.33c2.5 4.88 8 7.21 16.45 6.94 2.72-.09 7.26-.24 10.8-3.21 4.1-3.43 4.68-8.39 4.36-12.38.39.07.77.15 1.15.24l1.14.26c7.57 1.76 11.62 2.89 13.63 7.33 1.19 2.64 1.45 5.15.69 6.71-.76 1.56-2.91 3-4.44 3.83-9.13 5.15-20.13 6.71-30.76 8.22l-51 9.48-87.39 16.26a112.94 112.94 0 0 1-3.48 18.49l92.72-24 50.76-9.45c11.07-1.57 23.6-3.36 34.48-9.5 2.8-1.59 6.77-4.2 8.9-8.58 2.23-4.53 2.02-10.24-.55-15.94zm-141.31-1.42a41.56 41.56 0 0 1-3.21 11.35 44.33 44.33 0 0 1-5.6 9.72c-.29.38-.48.6-.6.73s-.5 0-.89 0c-2.32-.17-5.19-.54-6.76-1.87-2.34-2-2.61-6.51-2.56-11.1.06-5.24.24-9.9 1.87-13.84 1.25-3 4-6.18 7.17-6.47.27 0 4.63.68 10.59 1.72 1.07.14.11 8.75-.01 9.76zm58.59-5.87c-.92 4.8-2.17 8.25-3.95 10.86-1.94 2.85-4.68 4.73-7.34 5-2.32.26-4.81-.51-7.65-1.75h.14l.14-8v-.13c.24-2.1.47-4.09.78-6 1-5.9 2.65-10.08 5.21-12.79 2.28-2.41 6.36-4 9.23-2.54a8.35 8.35 0 0 1 3.8 5.73c.7 3.18.17 6.81-.36 9.62zm42.52-10.91 1.1 4.68a39.1 39.1 0 0 0-4.46 1.41 87.88 87.88 0 0 0 3.36-6.09zm3 18.88c-.66.55-3 .62-4.15.66a21.32 21.32 0 0 1-4.25-.22c.45-.24.93-.51 1.41-.8a27.29 27.29 0 0 1 7.43-3.18c.24 2.73-.31 3.41-.46 3.54z" id="path488" style="fill:#fff"/><path class="cls-5" d="M134.642 167.564a1.27 1.27 0 0 1-.9-.38 1.24 1.24 0 0 1-.31-1.23 113.21 113.21 0 0 0 3.44-18.28 1.25 1.25 0 0 1 1-1.1l138.37-25.73c10.58-1.51 21.46-3.05 30.38-8.08.8-.45 3.22-1.82 3.93-3.28.59-1.22.32-3.39-.71-5.65-1.76-3.91-5.39-4.91-12.77-6.62l-.67-.16c.06 5.06-1.58 9-4.88 11.78-3.88 3.25-8.69 3.4-11.57 3.49-8.15.27-13.82-1.85-16.83-6.29a22.47 22.47 0 0 1-6.61 3.62 16.92 16.92 0 0 1-12.17-.44c-3.95 5.82-9.79 9.56-16 10.28a21.7 21.7 0 0 1-2.3.13c-4.81 0-9.15-1.64-13.12-3.49l-6.44 5.9a15.72 15.72 0 0 1-5.25 3.5c-4.89 1.82-10.66.13-14.37-4.21a16.53 16.53 0 0 1-1.79-2.54 53.38 53.38 0 0 1-4.66 7.16 13.47 13.47 0 0 1-5.62 4.59 12.11 12.11 0 0 1-4.65.84c-.68 0-1.27 0-1.72-.07-3.86-.29-8.74-1-12.84-4-.8.63-1.62 1.35-2.41 2-1.22 1.07-2.45 2.15-3.87 3.19-6 4.42-12.78 5.35-18.1 2.5-4-2.14-8.65-7.1-8-18.55a78.67 78.67 0 0 1 1.13-9.72c-1 .59-1.93 1.12-2.88 1.6a57.17 57.17 0 0 1-2.22 19.64c-1.7 5.55-4.31 9.38-8 11.72a17.23 17.23 0 0 1-9.44 2.58 37.62 37.62 0 0 1-8.94-1.34l-5.3-1.31a1.25 1.25 0 0 1-.92-1.52l3-12.36a1.26 1.26 0 0 1 .75-.87 1.3 1.3 0 0 1 1.15.1l4.68 3c2.12.52 6.17 1.47 7.75.45.48-.31 1.43-1.29 2.38-4.36a42.31 42.31 0 0 0 1.7-12.87 20.93 20.93 0 0 1-2.7-.48 14.82 14.82 0 0 1-9-6.56 11.09 11.09 0 0 1-1.28-8.51 10.79 10.79 0 0 1 7.43-7.6 13.35 13.35 0 0 1 12.41 2.4 15.32 15.32 0 0 1 3.45 4.19c1.57-1 3.1-2.2 4.44-3.24l10.11-7.88a1.28 1.28 0 0 1 1.57 0l8.26 6.66a1.25 1.25 0 0 1 .35 1.52 68.06 68.06 0 0 0-6.51 25.5c-.22 4.07.63 5.82 1 6 .37.18 1.92-.1 3.83-1.5.94-.69 1.9-1.54 2.92-2.44a52.4 52.4 0 0 1 4.31-3.5 42 42 0 0 1-.77-9.7c.07-6.29.34-12.42 2.8-18.35 3.23-7.8 10-13.27 17.37-13.94 1-.08 2.95-.27 12.87 1.54a8.66 8.66 0 0 1 1.53.43c.24-1.41.51-2.79.79-4.11a1.26 1.26 0 0 1 1.42-1l10.77 1.72a1.26 1.26 0 0 1 1.06 1.37c-.63 6.27-1.32 11.46-2.17 16.3a66.16 66.16 0 0 0 1.11 18.39 12.19 12.19 0 0 0 1.55 4.16l.41-.37 9-8.25c.23-1.16.43-2.4.62-3.78l-3.07-69.86a1.26 1.26 0 0 1 1.2-1.31l15.55-.68a1.33 1.33 0 0 1 .94.35 1.34 1.34 0 0 1 .38.93l-.65 37c6-3.62 13.34-4.18 19-1.28 5.1 2.61 8.79 7.71 10.14 14 1.16 5.37.44 10.57-.31 14.51-.2 1.06-.41 2.05-.64 3a3.52 3.52 0 0 0 2.73.11c2.23-.75 4.39-2.92 6.2-4.95 8.81-9.85 12.85-22.07 15.4-31.61a1.23 1.23 0 0 1 1.23-.93l12.23.16a1.25 1.25 0 0 1 1.21 1l5.28 22.5a34.87 34.87 0 0 1 5.21.81l1.11.26c8.15 1.89 17.38 4 22 14.17 2.74 6.05 2.93 12.09.56 17-2.28 4.7-6.46 7.46-9.41 9.12-11.13 6.28-23.77 8.07-34.92 9.66l-50.71 9.43-92.64 24a1.65 1.65 0 0 1-.37.02zm4.62-18.69a117.89 117.89 0 0 1-2.85 15.67l90.62-23.46 50.85-9.46c11-1.57 23.38-3.32 34.09-9.37 2.66-1.5 6.41-4 8.38-8 2-4.23 1.84-9.52-.58-14.88-4.07-9-12.66-11-20.24-12.75l-1.11-.26a33 33 0 0 0-5.72-.82 1.26 1.26 0 0 1-1.16-1l-5.26-22.44-10.28-.13c-2.63 9.66-6.82 21.76-15.69 31.69-2 2.27-4.49 4.72-7.28 5.66-1.92.65-4.56.41-5.64-1.1l-.28-.4a1.26 1.26 0 0 1-.19-1c.27-1.08.51-2.21.75-3.44a34 34 0 0 0 .32-13.51c-1.19-5.54-4.41-10-8.82-12.28-5.47-2.81-12.85-1.82-18.37 2.44a1.26 1.26 0 0 1-2-1l.67-38.12-13 .57 3 68.71a.83.83 0 0 1 0 .22c-.21 1.65-.46 3.11-.74 4.46a1.16 1.16 0 0 1-.38.67l-9.29 8.53a13.43 13.43 0 0 1-1.34 1.13 1.3 1.3 0 0 1-1 .17 3.44 3.44 0 0 1-1.62-1.06 13 13 0 0 1-2.15-5.3 68.36 68.36 0 0 1-1.22-19.19.68.68 0 0 1 0-.14c.79-4.5 1.44-9.29 2-15l-8.32-1.36q-.43 2.19-.81 4.53a1.22 1.22 0 0 1-.74 1 1.25 1.25 0 0 1-1.21-.12 5.75 5.75 0 0 0-2.24-.9c-9.58-1.75-11.47-1.58-12.18-1.51-6.4.58-12.4 5.45-15.28 12.39-2.28 5.52-2.54 11.39-2.6 17.42a38.39 38.39 0 0 0 .89 9.91 1.26 1.26 0 0 1-.53 1.36 42 42 0 0 0-4.75 3.79c-1.07.94-2.07 1.82-3.1 2.58-2 1.49-4.83 2.59-6.51 1.68-2.41-1.28-2.41-6.27-2.29-8.35a70.68 70.68 0 0 1 6.35-25.59l-6.72-5.41-9.33 7.26a61.88 61.88 0 0 1-5.81 4.13 1.27 1.27 0 0 1-1.8-.54 13 13 0 0 0-3.45-4.6 10.74 10.74 0 0 0-10-1.92 8.3 8.3 0 0 0-5.75 5.83 8.6 8.6 0 0 0 1 6.59 12.27 12.27 0 0 0 7.49 5.41 16.91 16.91 0 0 0 3.38.49 1.26 1.26 0 0 1 1.21 1.22 45.75 45.75 0 0 1-1.8 14.82c-.91 3-2 4.85-3.42 5.74-2.35 1.5-6.19.74-9.91-.18a1.2 1.2 0 0 1-.37-.15l-3.38-2.15-2.34 9.45 4.07 1a35.19 35.19 0 0 0 8.35 1.28 14.54 14.54 0 0 0 8.08-2.19c3.13-2 5.4-5.39 6.92-10.34a55.35 55.35 0 0 0 2.07-19.59 1.25 1.25 0 0 1 .71-1.22 39.46 39.46 0 0 0 5.81-3.41 1.26 1.26 0 0 1 1.94 1.3 79.39 79.39 0 0 0-1.65 12.28c-.54 10.12 3.35 14.4 6.71 16.2 4.44 2.38 10.21 1.51 15.43-2.32 1.32-1 2.51-2 3.66-3a43.46 43.46 0 0 1 3.4-2.79 1.26 1.26 0 0 1 1.53.06c3.69 3.07 8.46 3.78 12.2 4.06.4 0 .92.07 1.53.07a9.82 9.82 0 0 0 3.71-.66 11.23 11.23 0 0 0 4.57-3.8 51.91 51.91 0 0 0 5.52-8.94 1.26 1.26 0 0 1 2.29.07 15.36 15.36 0 0 0 2.52 4.19c3 3.53 7.67 4.93 11.57 3.48a13.25 13.25 0 0 0 4.42-3l7.07-6.48a1.25 1.25 0 0 1 1.39-.21c3.92 1.88 8.19 3.61 12.81 3.61a19 19 0 0 0 2-.11c5.49-.63 10.67-4 14.21-9.2.21-.29.4-.59.59-.9a1.26 1.26 0 0 1 1.66-.44 14.26 14.26 0 0 0 11.23.79 20.78 20.78 0 0 0 6.93-4.09 1.26 1.26 0 0 1 1.94.38c2.26 4.4 7.4 6.51 15.29 6.25 2.55-.08 6.82-.22 10-2.91 3-2.51 4.31-6.32 3.91-11.32a1.26 1.26 0 0 1 1.47-1.34l1.22.25 1.13.27c7.75 1.8 12.25 3.06 14.5 8 1.36 3 1.6 5.84.67 7.77-.93 1.93-3.14 3.35-4.95 4.38-9.33 5.26-20.45 6.84-31.2 8.37zm30.94-28.4-.94-.05c-2.51-.18-5.63-.59-7.49-2.16-2.73-2.32-3.05-7.17-3-12.08.06-5.37.25-10.16 2-14.3 1.39-3.36 4.47-6.9 8.21-7.24h.16c.52 0 6.11.92 10.81 1.74 1 .18 2.26.4 1 11.18a42.17 42.17 0 0 1-3.4 11.68 45.3 45.3 0 0 1-5.75 10c-.34.42-.55.67-.69.82a1.26 1.26 0 0 1-.91.41zm0-1.26zm-1.14-32.06c-2.66.3-5 3.15-6 5.69-1.54 3.73-1.71 8.26-1.77 13.37-.05 4.09.16 8.48 2.11 10.13 1.31 1.11 4.08 1.43 6 1.57h.24l.17-.22a43 43 0 0 0 5.43-9.45 39.7 39.7 0 0 0 3.17-11 49.37 49.37 0 0 0 .46-8.52c-5.46-.93-9.2-1.48-9.81-1.57zm56.93 21.6a18.81 18.81 0 0 1-7.22-1.9 1.28 1.28 0 0 1-.74-1.39 1.7 1.7 0 0 1 .12-.34l.13-7.5a1.1 1.1 0 0 1 0-.18c.25-2.2.47-4.19.79-6.17 1-6.16 2.8-10.55 5.54-13.45 2.56-2.71 7.19-4.61 10.72-2.8a9.63 9.63 0 0 1 4.45 6.58 26.4 26.4 0 0 1-.36 10.17c-.95 5-2.26 8.58-4.14 11.34-2.14 3.14-5.22 5.23-8.24 5.58a9.59 9.59 0 0 1-1.05.06zm-5.32-3.83c2.63 1.07 4.49 1.45 6.1 1.27 2.3-.27 4.71-1.95 6.45-4.5 1.74-2.55 2.87-5.76 3.75-10.39.51-2.69 1-6.16.37-9.17a7.21 7.21 0 0 0-3.14-4.87c-2.32-1.19-5.82.26-7.74 2.29-2.38 2.51-4 6.48-4.88 12.12-.31 1.92-.54 3.88-.77 6zm57.88-3.48a19.37 19.37 0 0 1-3.46-.26 1.24 1.24 0 0 1-1-1 1.27 1.27 0 0 1 .65-1.31c.43-.22.88-.47 1.34-.76a29.29 29.29 0 0 1 7.77-3.32 1.26 1.26 0 0 1 1 .18 1.28 1.28 0 0 1 .54.9c.25 2.38 0 3.94-.88 4.64-.83.69-2.43.88-4.91 1zm5.16-1.93zm-.74-1.88a26.34 26.34 0 0 0-3.18 1.27 11.22 11.22 0 0 0 3-.34 3.07 3.07 0 0 0 .18-.93zm-5.6-9.65a1.26 1.26 0 0 1-1.08-1.91c1.18-1.95 2.29-4 3.32-6a1.24 1.24 0 0 1 1.27-.69 1.27 1.27 0 0 1 1.07 1l1.1 4.69a1.26 1.26 0 0 1-.92 1.51 37.1 37.1 0 0 0-4.31 1.36 1.42 1.42 0 0 1-.41.04zm2.9-3.78-.15.27.2-.06z" id="path490" style="fill:#7a1319"/><path class="cls-3" d="m134.512 177.864 3.65-.85 2.82 5.46 3.14-6.83 3.65-.84-.4 15.86-3.44.79.23-9.11-3.35 6.9h-.07l-3-5.43-.23 9.06-3.39.78z" id="path492" style="fill:#3a7a91"/><path class="cls-3" d="m163.222 171.134 3.34-.77 4.9 14.75-3.71.85-.84-2.62-4.81 1.11-1 3-3.64.83zm2.78 9-1.27-4.19-1.52 4.83z" id="path494" style="fill:#3a7a91"/><path class="cls-3" d="m182.002 166.924 5.9-1.36c1.91-.44 3.21-.11 4 .78a4.63 4.63 0 0 1 1 3.44 6.86 6.86 0 0 1-2.69 5.46l2.83 4.84-4 .92-2.39-4.22-1.49.35-.12 4.8-3.46.79zm5.54 6.29a2.34 2.34 0 0 0 1.91-2.31v-.05c0-1.24-.67-1.71-1.83-1.44l-2.26.52-.1 3.8z" id="path496" style="fill:#3a7a91"/><path class="cls-3" d="m206.642 171.114-4.49-8.87 3.94-.91 2.42 5.18 2.73-6.37 3.87-.89-5 10.95-.15 6-3.47.8z" id="path498" style="fill:#3a7a91"/><path class="cls-3" d="m225.102 156.994 3.46-.8-.31 12 6-1.39-.09 3.85-9.51 2.19z" id="path500" style="fill:#3a7a91"/><path class="cls-3" d="m249.322 151.304 3.33-.77 4.91 14.71-3.71.85-.84-2.62-4.81 1.11-1 3-3.63.83zm2.78 9-1.27-4.19-1.53 4.83z" id="path502" style="fill:#3a7a91"/><path class="cls-3" d="m268.092 147.094 3.23-.75 4.92 7.2.22-8.38 3.42-.79-.41 15.87-3 .7-5.11-7.47-.22 8.7-3.42.78z" id="path504" style="fill:#3a7a91"/><path class="cls-3" d="m291.012 141.814 4.81-1.11c4.46-1 7 1.64 6.85 6.22-.11 4.58-2.82 8.58-7.31 9.61l-4.75 1.1zm4.56 10.84a4.7 4.7 0 0 0 3.55-4.8v-.05c.06-2.54-1.27-3.69-3.34-3.21l-1.41.32-.21 8.06z" id="path506" style="fill:#3a7a91"/></svg>