<svg xmlns="http://www.w3.org/2000/svg" id="Layer_1" data-name="Layer 1" version="1.1" width="343.223" height="297.934"><defs id="defs7"><clipPath id="clip-path"><path id="polygon4" style="fill:none" d="M387.69 532.55V285.11H125.8V532.5l133.06 97.71z"/></clipPath><style id="style2">.cls-22{fill:none}.cls-3{fill:#3a7a91}.cls-7{fill:#07364f}.cls-24{fill:#fff}.cls-12{fill:#1e546d}.cls-22{stroke:#07364f}.cls-24{stroke-linecap:round;stroke-linejoin:round}.cls-22{stroke-miterlimit:10}.cls-24{stroke:#7a1319}.cls-22{stroke-width:.99px}.cls-24{stroke-width:2.52px}</style></defs><path id="polyline376" style="fill:#89bfd3;stroke:#89bfd3;stroke-width:24.62999916px;stroke-linecap:round;stroke-linejoin:round" transform="translate(-560.603 -301.806)" d="m629.93 515.49 209.85 36.45-.98-84.73"/><path id="polyline378" style="fill:#89bfd3;stroke:#07364f;stroke-width:4.92999983px;stroke-linecap:round;stroke-linejoin:round" transform="translate(-560.603 -301.806)" d="m629.93 515.49 209.85 36.45-.98-84.73"/><ellipse cx="247.727" cy="251.394" rx="64.76" ry="43.83" id="ellipse380" style="fill:#89bfd3;stroke:#07364f;stroke-width:5.42000008px;stroke-linecap:round;stroke-linejoin:round"/><path class="cls-7" d="M274.397 235.084a20.33 20.33 0 0 1-9.74-6.62c-5.67 0-13.52-5.58-13.52-5.58l.09-.75c3.69.09 13.15 3.5 13.15 3.5-2.84-4.45-11.45-4.35-11.45-4.35l-1.7-.29a18.42 18.42 0 0 1 16.17 2.08c9.46 1.42 12 6.24 12 6.24l.51 5-5.11 2.27" id="path382" style="fill:#07364f"/><path class="cls-7" d="M220.507 235.084a20.33 20.33 0 0 0 9.74-6.62c5.67 0 13.52-5.58 13.52-5.58l-.09-.75c-3.69.09-13.15 3.5-13.15 3.5 2.84-4.45 11.44-4.35 11.44-4.35l1.71-.29a18.42 18.42 0 0 0-16.17 2.08c-9.46 1.42-12 6.24-12 6.24l-2.11 3.88z" id="path384" style="fill:#07364f"/><rect class="cls-7" x="242.437" y="234.214" width="9.5" height="5.53" rx="2.77" id="rect386" style="fill:#07364f"/><path class="cls-7" d="M225.707 246.194s-8.61-1.9-12.67-6.25c0 0-5.86-5.57 2.46-10.59 0 0 .85 4.54 5 5.77a29.73 29.73 0 0 0 13.9 4.82" id="path388" style="fill:#07364f"/><path class="cls-7" d="M224.397 247.004s-8.7-.19-17.59-7.76c0 0-2.27-1.32-2.84 2.37v.85a30.69 30.69 0 0 0 8.32 4.44v1.23l7 .66 3.31.95" id="path390" style="fill:#07364f"/><path class="cls-7" d="M205.187 239.534s-4.82-4.92-6.81-7.19c0 0 .47 9 5.58 9.27" id="path392" style="fill:#07364f"/><path class="cls-7" d="m204.397 249.274-.94 3.49 7.94.48 7.09 1 11.91 1.46-3.22-3.5a33.3 33.3 0 0 0-9.93.19s-3.27-4.54-12.85-3.12z" id="path394" style="fill:#07364f"/><path class="cls-7" d="M204.617 250.684s-2.74-3.12-9.64-4.82a12 12 0 0 0 8.51 6.9" id="path396" style="fill:#07364f"/><path class="cls-7" d="m235.537 259.014-16.17.66s-3.31 6.81-7.84 7.85l-1.9 8.32s-2.93-6.81-.28-10.5l5-4.16s-.47-3.12 5.49-3.88l12.1-.85" id="path398" style="fill:#07364f"/><path class="cls-7" d="M209.397 265.344a1.94 1.94 0 0 1 2.18 2.18" id="path400" style="fill:#07364f"/><path class="cls-7" d="m246.227 260.194-1.51 2.27-7.85 1.32s-3.88 3.31-7.19 2.08c0 0 2 6-2 10.22 0 0 2.64 7.37-1.42 8.6 0 0-7.1 0-3.79-10.87 0 0-.28-4.16 3.22-5.2 0 0-2.36-5.2 3.21-6.81 0 0 1-2 6.15-.19l2.84-2.55" id="path402" style="fill:#07364f"/><path class="cls-7" d="M269.167 246.194s8.6-1.9 12.67-6.25c0 0 5.86-5.57-2.46-10.59 0 0-.85 4.54-5 5.77a29.79 29.79 0 0 1-13.9 4.82" id="path404" style="fill:#07364f"/><path class="cls-7" d="M270.487 247.004s8.7-.19 17.59-7.76c0 0 2.27-1.32 2.84 2.37v.85a30.69 30.69 0 0 1-8.32 4.44v1.23l-7 .66-3.31.95" id="path406" style="fill:#07364f"/><path class="cls-7" d="M289.687 239.534s4.82-4.92 6.81-7.19c0 0-.48 9-5.58 9.27" id="path408" style="fill:#07364f"/><path class="cls-7" d="m290.397 249.274 1 3.49-7.94.48-7.1 1-11.96 1.46 3.21-3.5a33.31 33.31 0 0 1 9.93.19s3.35-4.54 12.86-3.12z" id="path410" style="fill:#07364f"/><path class="cls-7" d="M290.247 250.684s2.75-3.12 9.65-4.82a12 12 0 0 1-8.51 6.9" id="path412" style="fill:#07364f"/><path class="cls-7" d="m259.327 259.014 16.17.66s3.31 6.81 7.85 7.85l1.89 8.32s2.93-6.81.29-10.5l-5-4.16s.48-3.12-5.48-3.88l-12.1-.85" id="path414" style="fill:#07364f"/><path class="cls-7" d="M285.527 265.344a1.93 1.93 0 0 0-2.18 2.18" id="path416" style="fill:#07364f"/><path class="cls-7" d="m248.647 260.194 1.51 2.27 7.85 1.32s3.88 3.31 7.19 2.08c0 0-2 6 2 10.22 0 0-2.65 7.37 1.42 8.6 0 0 7.09 0 3.78-10.87 0 0 .29-4.16-3.21-5.2 0 0 2.36-5.2-3.22-6.81 0 0-1-2-6.14-.19l-2.84-2.55" id="path418" style="fill:#07364f"/><path class="cls-7" d="M247.397 237.114c-18.1-.58-24.85 12.63-24.85 12.63 7.37 8.08 20.14 11.2 20.14 11.2l4.71-.4 4.71.4s12.76-3.12 20.14-11.2c.04 0-6.71-13.21-24.85-12.63z" id="path420" style="fill:#07364f"/><path class="cls-7" d="M222.487 273.764s1.8-.83 2.22.87c.42 1.7 1 2.08 3 1.4" id="path422" style="fill:#07364f"/><path class="cls-7" d="M272.397 273.764s-1.79-.83-2.21.87c-.42 1.7-1 2.08-3 1.4" id="path424" style="fill:#07364f"/><path class="cls-22" d="M242.397 237.614a7 7 0 0 1-4.54-6.52" id="path426" style="fill:none;stroke:#07364f;stroke-width:.99000001px;stroke-miterlimit:10"/><path class="cls-22" d="M252.097 237.614a7 7 0 0 0 4.54-6.52" id="path428" style="fill:none;stroke:#07364f;stroke-width:.99000001px;stroke-miterlimit:10"/><path class="cls-12" d="M263.827 245.194a22.15 22.15 0 0 0-14.49-4.92H247.367a22.13 22.13 0 0 0-14.49 4.92 20 20 0 0 0-3.63 3.9c4.62 4.42 11.24 6.84 14.09 7.73.11-2.84 1.75-14 20.49-11.63z" id="path430" style="fill:#1e546d"/><path class="cls-12" d="M263.747 241.594s7.8-1.71 12-5.39a25.78 25.78 0 0 1-9.5 7.23" id="path432" style="fill:#1e546d"/><path class="cls-12" d="M266.867 227.974s3.54 4.25 8.23 5.53l1.56-.85s-2.13-5.11-9.79-4.68z" id="path434" style="fill:#1e546d"/><path class="cls-12" d="M228.567 242.444s-9.36-.29-13.47-8.8l-.57-1.56-1.28 2.84s-.56 5.53 13.19 9.22" id="path436" style="fill:#1e546d"/><path class="cls-12" d="M217.517 230.674s.52 1.58 1.57 1.84c0 0 6.57-1.18 9.2-5 0 0-.26-2.1-1.18-2.1-.92 0-5.65.27-9.59 5.26z" id="path438" style="fill:#1e546d"/><path class="cls-12" d="M269.137 282.294a4.09 4.09 0 0 1 0-5.39 4.39 4.39 0 0 0-1.8-5.39s3.69-.37 3.88 3.79c0 0 1.42 6.99-2.08 6.99z" id="path440" style="fill:#1e546d"/><path class="cls-12" d="M225.837 282.294a4.09 4.09 0 0 0 0-5.39 4.39 4.39 0 0 1 1.8-5.39s-3.69-.37-3.88 3.79c0 0-1.42 6.99 2.08 6.99z" id="path442" style="fill:#1e546d"/><path d="M336.587 123.704c4.41-9.13 4.27-19.84-.39-30.15-7.09-15.7-21.33-20.16-29.61-22.19l-6-25.48-38.41-.5-3.37 12.63c-.32 1.23-.65 2.4-1 3.53a33.35 33.35 0 0 0-10.41-8.35 32.77 32.77 0 0 0-10.23-3.22l.63-36.28-50.12 2.2 1.86 42.44-16.7 1.76c-1.89-.18-3.07-.2-3.81-.2h-1.28c-.35-18.82-8.16-35.27-21.77-45.58a54.91 54.91 0 0 0-33.5-10.87 63.61 63.61 0 0 0-7.52.45c-9.79 1.18-19.36 4.47-30.11 10.37a108.63 108.63 0 0 0-26.29 19.61c-8.07 8.32-13.86 17.42-18 24.41-19.19 32.47-28.27 64.75-27 95.94 1 23.25 8.37 41.45 22 54.08a59.59 59.59 0 0 0 40.63 15.74v0a60.76 60.76 0 0 0 6.77-.38l215.21-45.12s25.29-5.18 34.8-24.17l13.58-30.65" id="path444" style="fill:#07364f;stroke:#89bfd3;stroke-width:6.88000011px;stroke-linecap:round;stroke-linejoin:round"/><path class="cls-7" d="M333.137 94.934c-6.8-15.06-20.58-18.74-29.34-20.74l-5.86-25-33.17-.43-2.69 10.1c-1 3.77-2.06 7.13-3.19 10.16a31 31 0 0 0-13-12.9 29.61 29.61 0 0 0-12.11-3.17l.62-35.76-43.2 1.9 1.85 42.24-20.19 2.13a34.74 34.74 0 0 0-3.81-.23c-.93 0-1.61.05-2.15.1-.84.08-1.68.2-2.51.35.68-19.12-6.79-36.35-20.41-46.68a51.65 51.65 0 0 0-31.48-10.19 61.13 61.13 0 0 0-7.1.38c-9.35 1.13-18.53 4.3-28.9 10a105.51 105.51 0 0 0-25.49 19c-7.83 8.07-13.47 16.95-17.51 23.79-18.86 31.9-27.78 63.56-26.53 94.09.92 22.33 8 39.75 21 51.76a56.25 56.25 0 0 0 38.35 14.84 55.37 55.37 0 0 0 20.79-4 76.61 76.61 0 0 0 26.16-15.48 71.52 71.52 0 0 0 14.22-17.59l102.77-26.61 50-9.31c11.57-1.64 25.89-3.72 38.9-11.06 2.52-1.42 10.19-5.75 14.39-14.42 3.99-8.18 3.85-17.88-.41-27.27z" id="path446" style="fill:#07364f"/><path class="cls-24" d="M135.847 25.984c-7.79-5.9-18.05-8.43-28.88-7.13-7.6.91-15.24 3.59-24.06 8.42a92.18 92.18 0 0 0-22.31 16.58c-6.85 7-11.93 15.07-15.59 21.27-17.52 29.63-25.82 58.81-24.67 86.71.77 18.66 6.37 32.95 16.65 42.46a43.21 43.21 0 0 0 29.24 11.28 42.25 42.25 0 0 0 16.17-3.18 63.05 63.05 0 0 0 21.9-12.82 57.14 57.14 0 0 0 19-39.08l-26.29 4.84c-4.61 17.09-19.9 22.39-22.31 23.12l-.7.18-.9.4a18.31 18.31 0 0 1-19-3.21c-6.51-6-8.27-16.93-8.6-25-.93-22.65 6.39-47.85 21.19-72.88 3-5 7-11.4 12-16.55a67.91 67.91 0 0 1 16.35-12c5.91-3.24 10.66-5 15-5.5s8.2.32 10.69 2.21c3.75 2.83 5.72 9.27 5 16.39l25 2.42c1.56-16.16-4-30.72-14.88-38.93z" id="path448" style="fill:#fff;stroke:#7a1319;stroke-width:2.51999998px;stroke-linecap:round;stroke-linejoin:round"/><path class="cls-24" d="M320.917 98.784c-4.33-9.57-13.24-11.64-21.11-13.47l-1.11-.26a34.72 34.72 0 0 0-5.93-.84l-5.49-23.4-12.24-.16c-3.16 11.86-7.49 23-15.67 32.12-1.93 2.15-4.23 4.46-6.74 5.31-1.62.54-3.58.24-4.21-.64l-.28-.4c.31-1.27.56-2.46.76-3.51.73-3.81 1.43-8.85.32-14-1.27-5.91-4.73-10.7-9.48-13.14-6-3.08-13.86-1.95-19.71 2.57l.69-39.46-15.55.69 3.07 70c-.2 1.5-.43 3-.73 4.38l-9.29 8.52c-.35.31-.9.82-1.18 1a2.13 2.13 0 0 1-1-.66 12.09 12.09 0 0 1-1.89-4.77 67.57 67.57 0 0 1-1.18-18.82c1-5.61 1.65-11.15 2.17-16.29l-10.74-1.7c-.38 1.79-.74 3.72-1.06 5.76a7 7 0 0 0-2.72-1.11c-9.75-1.78-11.69-1.6-12.52-1.52-6.87.62-13.28 5.79-16.33 13.16-2.37 5.72-2.63 11.73-2.7 17.88a39.57 39.57 0 0 0 .93 10.24 45.17 45.17 0 0 0-4.89 3.89c-1.05.92-2 1.79-3 2.52-2 1.43-4.17 2.12-5.17 1.58-1.19-.63-1.83-3.45-1.63-7.17a69.5 69.5 0 0 1 6.63-26l-8.26-6.66-10.12 7.88a63.46 63.46 0 0 1-5.7 4.05 14.36 14.36 0 0 0-3.78-5 12 12 0 0 0-11.22-2.16 9.57 9.57 0 0 0-6.59 6.72 9.82 9.82 0 0 0 1.14 7.54 13.51 13.51 0 0 0 8.27 6 17.88 17.88 0 0 0 3.63.53 44.41 44.41 0 0 1-1.74 14.41c-.81 2.64-1.79 4.34-2.9 5.05-1.93 1.24-5.62.47-8.93-.34l-4.86-3.07-3 12.36 5.29 1.3a35.94 35.94 0 0 0 8.65 1.31 16 16 0 0 0 8.76-2.38c3.39-2.17 5.83-5.78 7.44-11a56.47 56.47 0 0 0 2.12-20 41.12 41.12 0 0 0 6-3.51 80 80 0 0 0-1.74 12.38c-.58 10.79 3.68 15.4 7.37 17.37 4.87 2.62 11.14 1.72 16.76-2.4 1.38-1 2.6-2.09 3.77-3.13a40.74 40.74 0 0 1 3.27-2.68c4 3.29 9 4.05 12.92 4.34.42 0 1 .07 1.62.07a11.23 11.23 0 0 0 4.18-.74 12.35 12.35 0 0 0 5.09-4.2 52.19 52.19 0 0 0 5.66-9.16 16.64 16.64 0 0 0 2.72 4.53c3.36 3.93 8.57 5.47 13 3.84a14.7 14.7 0 0 0 4.84-3.25l7.06-6.47c3.68 1.76 8.29 3.73 13.35 3.73a19.5 19.5 0 0 0 2.15-.12c5.85-.68 11.36-4.23 15.11-9.74.22-.31.42-.62.62-.94a15.54 15.54 0 0 0 12.22.87 22.23 22.23 0 0 0 7.35-4.33c2.5 4.88 8 7.21 16.45 6.94 2.72-.09 7.26-.24 10.8-3.21 4.1-3.43 4.68-8.39 4.36-12.38.39.07.77.15 1.15.24l1.14.26c7.57 1.76 11.62 2.89 13.63 7.33 1.19 2.64 1.45 5.15.69 6.71-.76 1.56-2.91 3-4.44 3.83-9.13 5.15-20.13 6.71-30.76 8.22l-51 9.48-87.39 16.26a112.94 112.94 0 0 1-3.48 18.49l92.72-24 50.76-9.45c11.07-1.57 23.6-3.36 34.48-9.5 2.8-1.59 6.77-4.2 8.9-8.58 2.23-4.53 2.02-10.24-.55-15.94zm-141.31-1.42a41.56 41.56 0 0 1-3.21 11.35 44.33 44.33 0 0 1-5.6 9.72c-.29.38-.48.6-.6.73s-.5 0-.89 0c-2.32-.17-5.19-.54-6.76-1.87-2.34-2-2.61-6.51-2.56-11.1.06-5.24.24-9.9 1.87-13.84 1.25-3 4-6.18 7.17-6.47v0c.27 0 4.63.68 10.59 1.72 1.07.14.11 8.75-.01 9.76zm58.59-5.87c-.92 4.8-2.17 8.25-3.95 10.86-1.94 2.85-4.68 4.73-7.34 5-2.32.26-4.81-.51-7.65-1.75h.14l.14-8v-.13c.24-2.1.47-4.09.78-6 1-5.9 2.65-10.08 5.21-12.79 2.28-2.41 6.36-4 9.23-2.54a8.35 8.35 0 0 1 3.8 5.73c.7 3.18.17 6.81-.36 9.62zm42.52-10.91 1.1 4.68a39.1 39.1 0 0 0-4.46 1.41 87.88 87.88 0 0 0 3.36-6.09zm3 18.88c-.66.55-3 .62-4.15.66a21.32 21.32 0 0 1-4.25-.22c.45-.24.93-.51 1.41-.8a27.29 27.29 0 0 1 7.43-3.18c.24 2.73-.31 3.41-.46 3.54z" id="path450" style="fill:#fff;stroke:#7a1319;stroke-width:2.51999998px;stroke-linecap:round;stroke-linejoin:round"/><path class="cls-3" d="m134.497 177.814 3.65-.85 2.82 5.46 3.14-6.83 3.65-.84-.4 15.86-3.44.79.23-9.11-3.35 6.9h-.07l-3-5.43-.23 9.06-3.39.78z" id="path452" style="fill:#3a7a91"/><path class="cls-3" d="m163.207 171.084 3.34-.77 4.9 14.75-3.71.85-.84-2.62-4.81 1.11-1 3-3.64.83zm2.78 9-1.27-4.19-1.52 4.83z" id="path454" style="fill:#3a7a91"/><path class="cls-3" d="m181.987 166.874 5.9-1.36c1.91-.44 3.21-.11 4 .78a4.63 4.63 0 0 1 1 3.44 6.86 6.86 0 0 1-2.69 5.46l2.83 4.84-4 .92-2.39-4.22-1.49.35-.12 4.8-3.46.79zm5.54 6.29a2.34 2.34 0 0 0 1.91-2.31v-.05c0-1.24-.67-1.71-1.83-1.44l-2.26.52-.1 3.8z" id="path456" style="fill:#3a7a91"/><path class="cls-3" d="m206.627 171.064-4.49-8.87 3.94-.91 2.42 5.18 2.73-6.37 3.87-.89-5 10.95-.15 6-3.47.8z" id="path458" style="fill:#3a7a91"/><path class="cls-3" d="m225.087 156.944 3.46-.8-.31 12 6-1.39-.09 3.85-9.51 2.19z" id="path460" style="fill:#3a7a91"/><path class="cls-3" d="m249.307 151.254 3.33-.77 4.91 14.71-3.71.85-.84-2.62-4.81 1.11-1 3-3.63.83zm2.78 9-1.27-4.19-1.53 4.83z" id="path462" style="fill:#3a7a91"/><path class="cls-3" d="m268.077 147.044 3.23-.75 4.92 7.2.22-8.38 3.42-.79-.41 15.87-3 .7-5.11-7.47-.22 8.7-3.42.78z" id="path464" style="fill:#3a7a91"/><path class="cls-3" d="m290.997 141.764 4.81-1.11c4.46-1 7 1.64 6.85 6.22-.11 4.58-2.82 8.58-7.31 9.61l-4.75 1.1zm4.56 10.84a4.7 4.7 0 0 0 3.55-4.8v-.05c.06-2.54-1.27-3.69-3.34-3.21l-1.41.32-.21 8.06z" id="path466" style="fill:#3a7a91"/></svg>