<svg xmlns="http://www.w3.org/2000/svg" id="Layer_1" data-name="Layer 1" version="1.1" width="340.623" height="291.692"><defs id="defs7"><clipPath id="clip-path"><path id="polygon4" style="fill:none" d="M387.69 592.55V345.11H125.8V592.5l133.06 97.71z"/></clipPath><style id="style2">.cls-19{fill:none}.cls-5{fill:#07364f}.cls-9{fill:#fff}.cls-11{fill:#1e546d}.cls-19{stroke:#07364f}.cls-19,.cls-20{stroke-miterlimit:10}.cls-19{stroke-width:1.18px}.cls-20{fill:#3b7a91;stroke:#3b7a91;stroke-width:.4px}</style></defs><path id="polyline322" style="fill:#89bfd3;stroke:#89bfd3;stroke-width:29.37000084px;stroke-linecap:round;stroke-linejoin:round" transform="translate(-578.351 -359.558)" d="m623.99 550.8 250.23 43.46-1.18-101.03"/><path id="polyline324" style="fill:#89bfd3;stroke:#07364f;stroke-width:5.86999989px;stroke-linecap:round;stroke-linejoin:round" transform="translate(-578.351 -359.558)" d="m623.99 550.8 250.23 43.46-1.18-101.03"/><path d="m322.119 146.322 13.88-48.13a28.55 28.55 0 0 0-5.12-22.49c-5.12-7-13.39-10.24-24.62-9.71l-3-12.51-.28-1.21v-.08l-.66-2.73-1.24-1c-.25-.37-.52-.71-.8-1.05-.28-.34-.59-.65-.92-1a14.6 14.6 0 0 0-1.47-1.24l-.08-.06c-.32-.23-.65-.45-1-.65l-.16-.02a14.92 14.92 0 0 0-1.74-.88 12.68 12.68 0 0 0-1.24-.48 17.61 17.61 0 0 0-2.08-.54c-.33-.07-.82-.16-1.4-.23a20.6 20.6 0 0 0-3.69-.08h-.1c-.39 0-.79.07-1.19.13-.4.06-.81.11-1.21.18-.4.07-1 .19-1.39.29-.65.16-1.19.32-1.57.45-.38.13-.75.24-1.11.37l-.75.23-1.21.55c-.54.24-1.07.51-1.6.8-.53.29-1 .57-1.56.88-.34.21-.85.53-1.47 1l-.1.06c-.61.43-1.22.89-1.85 1.41-.34.27-.83.69-1.42 1.23s-1.22 1.19-1.82 1.85c-.38.41-.73.81-1.07 1.23a28.8 28.8 0 0 0-2.35 3.34c-.31.52-.56 1-.73 1.3-.27.51-.6 1.16-1 2l-1.19 2.91-2.59 3.41a27.7 27.7 0 0 0-1.54-3.59c-4-7.69-11-12.1-19.92-12.72l5.52-26.1c1.16-5.47.08-10.49-3-14.14-3.08-3.65-7.88-5.48-13.45-5.17a20.91 20.91 0 0 0-2.7.32c-10.59 1.89-20.21 11.05-22.38 21.3l-6.13 29a21.19 21.19 0 0 0-3.66 0 23.38 23.38 0 0 0-2.32.3 27.51 27.51 0 0 0-10.7 4.52 29.83 29.83 0 0 0-6.87 4.42c-1.4 0-2.84.12-4.33.29-.53.06-1.43.16-2.53.36a31.71 31.71 0 0 0-6.39 1.86 34.27 34.27 0 0 0-5.25 2.74 27.23 27.23 0 0 0 1.42-3.12c2.24-5.86 2.14-11.63-.29-16.25-6.25-11.87-16.33-22.46-30.3-26.5-15.69-4.61-33.48 1.07-49.75 11.57a157.7 157.7 0 0 0-50.4 53.68c-12.19 21.13-19.32 44.63-20.08 66.19-.78 22 5.55 44.35 17.21 55a33.43 33.43 0 0 0 23.22 9.1 43.88 43.88 0 0 0 6.23-.48l247.46-51.22s18.89-3.44 23.83-20.89z" id="path326" style="fill:#07364f;stroke:#89bfd3;stroke-width:8.19999981px;stroke-linecap:round;stroke-linejoin:round"/><path class="cls-9" d="M316.179 87.302c-4.75-6.48-14.48-5.51-23.53-3.36a27.29 27.29 0 0 0-1.73-5.28l-4.27-17.82a.14.14 0 0 1 0-.06 3.66 3.66 0 0 0-.22-.58l-.12-.2a2.93 2.93 0 0 0-.24-.34l-.19-.2a2.48 2.48 0 0 0-.3-.25l-.22-.15a2.12 2.12 0 0 0-.37-.18 2.18 2.18 0 0 0-.23-.09 2.59 2.59 0 0 0-.48-.12h-.21a3.6 3.6 0 0 0-.74 0h-.13a4.64 4.64 0 0 0-.65.11l-.26.08a3.86 3.86 0 0 0-.54.19h-.12l-.17.1c-.16.07-.31.16-.47.25l-.3.19-.4.31-.26.23a4.44 4.44 0 0 0-.43.44l-.15.16a6.32 6.32 0 0 0-.47.68 1.06 1.06 0 0 0-.11.21 3.68 3.68 0 0 0-.23.44l-2.3 5.41-18.69 24.58a5.82 5.82 0 0 0-.44.66c0 .06-3.09 5.41-7.62 7.11-2.68 1-5.64.56-8.78-1.31 3.57-8.58 4.82-19.32 1.31-26.13-2.92-5.68-8.71-7.73-16.28-5.79a58.82 58.82 0 0 0-8.64 2.78l9.52-45a3 3 0 0 0-3.29-3.86 5.75 5.75 0 0 0-5 4.32l-11.49 54.29a13.55 13.55 0 0 0-.78 3.71l-5.26 24.87a7.11 7.11 0 0 0-.68.55c-9.17 8.76-14 10.12-16.39 9.65l8.42-43.06a3 3 0 0 0-3.37-3.8 5.74 5.74 0 0 0-4.23 2.5 5.73 5.73 0 0 0-5.11 4.21l-1.25 5.26c-3.27-2-7-3.19-13-2.52a12.56 12.56 0 0 0-3.54.81 14.48 14.48 0 0 0-3.93 2.58c-9.19 8-15.47 19-16.79 29.53a22.57 22.57 0 0 0 .32 8.15 5.25 5.25 0 0 0-.76.43 36.41 36.41 0 0 1-12.54 5.37 6.9 6.9 0 0 1-1.57.2c-.6-.81-.94-3.73.61-12.75.15-.88.28-1.64.36-2.23.08-.59.2-1.68.35-3.08.92-8.84 1.8-14.23 2.61-16.05 1.44-1.6 1.8-3.74.77-5.11-1.2-1.58-3.81-1.55-5.82.07-1.82 1.46-3.6 3-5.31 4.58-3.92 3.5-7.62 6.81-11.59 8.51-.53.23-1.08.43-1.63.61.16-3.53-.38-6.88-2.33-8.9-3-3.12-9.19-1.36-13.21 2.05a18.12 18.12 0 0 0-4.8 7.4c-.32.76-.62 1.47-.9 2a3.66 3.66 0 0 0 .1 4.17c2.3 2.69 7.31 3.07 11.22 2.89-.24.77-.49 1.51-.76 2.21q-.63 1.61-1.2 3.09c-2.65 6.94-4.25 11.12-9.58 16.54-1.81 1.84-2.08 4.4-.59 5.72 1.49 1.32 4.16.9 6-.94 7-7.16 9.27-13 12.09-20.39.37-1 .75-2 1.17-3a42.87 42.87 0 0 0 1.43-4.49 31.55 31.55 0 0 0 4.61-1.54 33.22 33.22 0 0 0 4.91-2.65l-1.83 18.86c-.37 1.56-1.16 6.15 1.58 9.19 5.72 6.32 21.81-.85 29.38-6a6.66 6.66 0 0 0 .77-.61 12.37 12.37 0 0 0 1.28 1c4.72 3 11.54 1.88 16 1.14h.22c4.91-.88 8.45-3.89 11.58-6.54l.39-.34a12.88 12.88 0 0 0 5.29 2.87 13.14 13.14 0 0 0 5.46.09q5.9-1.07 13.32-6.72l-.12.57a3 3 0 0 0 3.29 3.86 5.14 5.14 0 0 0 .55-.06 5.81 5.81 0 0 0 4.47-4.27l1-4.64 1.68.17c3.9.43 8.51.93 13.17.09a21.77 21.77 0 0 0 13.37-7.87c.16-.19.32-.39.47-.59a17.13 17.13 0 0 0 14.52.88c7.61-2.91 12.33-10.13 13.43-12l14.88-19.58a79.1 79.1 0 0 1 .24 11.1v.6c-.4 5.88 1.56-3.26-8.19 3.21-4.77 3.17-7.94 10.72-2.64 16.16 7.48 7.67 19.17-1.47 22.94-9.12a18.51 18.51 0 0 0 1.74-6c6.51-1.5 12.74-2.11 15.45 1.07l.67 2.22c-2.22 8.21-11 17.76-23.46 20-1.29.23-133.48 28.56-160 34.23a5.7 5.7 0 0 0-4.39 4.76l-.34 4.3a3.09 3.09 0 0 0 .66 2.25 3.47 3.47 0 0 0-.06.45c-.08 2.15 1.66 3.51 3.92 3.1h.17l103-22.43h.14c1.14-.29 2.93-.69 5.2-1.2 33.8-7.6 73.82-18.55 83.36-35.89 2.1-4.06 3.71-10.34-1.37-17.28zm-223.07 16a13 13 0 0 1 1.81-3.35 6.92 6.92 0 0 1 2.56-1.29c.61.94.83 2.72.75 4.92a26.69 26.69 0 0 1-5.12-.32zm69.9 18.48h-.09c-4.58.76-8.57 1.26-10.95-.26-3.1-2-2.81-7.12-2.55-9.24 1-8.18 5.9-16.75 13-22.92a7.5 7.5 0 0 1 .71-.58 6 6 0 0 1 .83-.11c5.62-.62 7.76.85 11.94 4.11l-2.03 8.66-.06.28s-2.35 13.91-2.36 13.93c-.01.02 0 .27 0 .4-.7.57-1.38 1.15-2.06 1.73-2.74 2.27-4.4 3.6-6.38 3.96zm52.31-42.77c1.64-2 6.5-3.43 9.66-4.25 1.9.39 8.06 2.43 7.54 12.38-.3 5.79-2.6 10.61-6.5 13.58-4.15 3.16-9.8 3.95-15.92 2.23h-.06l3.87-18.3a4.42 4.42 0 0 0 .62-2.42 3.68 3.68 0 0 1 0-.47l.47-2.26a3.85 3.85 0 0 1 .32-.53zm59.82 23a3.5 3.5 0 0 1-3.91-.84 2.45 2.45 0 0 1-.38-.47 11.63 11.63 0 0 1 1.41-1.77c1.61-1.77 2.84-2.4 5.8-3.15-1.29 5.06-2.9 6.16-2.92 6.18z" id="path328" style="fill:#fff"/><path class="cls-9" d="M106.139 152.082c-2.53-1.27-6.23 0-8.27 2.89a4 4 0 0 0-4-3.76 7.88 7.88 0 0 0-7.46 5.29c-2.85 8.5-10.69 14.78-18.82 18.84-8.49 4.24-21.62 10.46-27.1 3.66a30.7 30.7 0 0 1-5.11-9.69 59.86 59.86 0 0 1-2.47-20.81c.59-16.84 6.16-35.2 15.68-51.71 10-17.32 23.6-31.6 39.35-41.28a54.88 54.88 0 0 1 8.86-4.5 28.66 28.66 0 0 1 6.3 0c9.3 1 15.89 6.88 19.57 17.39.72 2.06 2.83 3 5.18 2.6a7.51 7.51 0 0 0 2.14-.75c.56-.3 1.16-3.15 1.63-3.56 1.4.16 2.93 2.26 4.41 1.29 3-1.95 4.35-5.52 3.05-8-5.79-11-12.43-17.75-20.32-20.63-12.79-4.67-28.51 2.32-41.34 11.56a134.31 134.31 0 0 0-11.12 8.39 138.32 138.32 0 0 0-27.65 34.14c-10.61 18.4-16.82 38.86-17.48 57.63-.64 18.11 3.62 31.49 12.67 39.76 9.8 9 25.55 5.28 39.44-2.76 12.07-7 25.53-17 33.72-28.51 2.05-2.85 1.65-6.2-.86-7.48z" id="path330" style="fill:#fff"/><ellipse cx="258.359" cy="236.202" rx="77.22" ry="52.26" id="ellipse332" style="fill:#89bfd3;stroke:#07364f;stroke-width:6.46000004px;stroke-linecap:round;stroke-linejoin:round"/><path class="cls-5" d="M290.129 216.762a24.25 24.25 0 0 1-11.62-7.9c-6.76 0-16.12-6.65-16.12-6.65l.11-.9c4.4.11 15.68 4.17 15.68 4.17-3.39-5.3-13.65-5.18-13.65-5.18l-2-.34a22 22 0 0 1 19.25 2.48c11.28 1.69 14.32 7.44 14.32 7.44l.61 6-6.06 2.71" id="path334" style="fill:#07364f"/><path class="cls-5" d="M225.909 216.762a24.26 24.26 0 0 0 11.61-7.9c6.76 0 16.12-6.65 16.12-6.65l-.11-.9c-4.4.11-15.67 4.17-15.67 4.17 3.38-5.3 13.64-5.18 13.64-5.18l2-.34a22 22 0 0 0-19.25 2.48c-11.28 1.69-14.32 7.44-14.32 7.44l-2.54 4.65z" id="path336" style="fill:#07364f"/><rect class="cls-5" x="252.058" y="215.722" width="11.33" height="6.6" rx="3.3" id="rect338" style="fill:#07364f"/><path class="cls-5" d="M232.109 229.952s-10.26-2.26-15.11-7.44c0 0-7-6.65 2.93-12.63 0 0 1 5.41 6 6.88 0 0 7.55 5.3 16.57 5.75" id="path340" style="fill:#07364f"/><path class="cls-5" d="M230.529 230.962s-10.38-.22-21-9.24c0 0-2.71-1.58-3.39 2.82v1s5.19 3.95 9.93 5.3v1.47l8.34.79 4 1.12" id="path342" style="fill:#07364f"/><path class="cls-5" d="M207.649 222.062s-5.75-5.87-8.12-8.57c0 0 .56 10.71 6.65 11.05" id="path344" style="fill:#07364f"/><path class="cls-5" d="m206.739 233.672-1.09 4.17 9.47.57 8.46 1.24 14.2 1.69-3.83-4.17a39.69 39.69 0 0 0-11.84.22s-3.98-5.41-15.37-3.72z" id="path346" style="fill:#07364f"/><path class="cls-5" d="M206.959 235.362s-3.27-3.72-11.5-5.75c0 0 2.71 6.88 10.15 8.23" id="path348" style="fill:#07364f"/><path class="cls-5" d="m243.829 245.282-19.28.79s-3.94 8.12-9.36 9.36l-2.25 9.92s-3.5-8.11-.34-12.51l6-5s-.57-3.72 6.54-4.62l14.43-1" id="path350" style="fill:#07364f"/><path class="cls-5" d="M212.649 252.842a2.29 2.29 0 0 1 2.59 2.59" id="path352" style="fill:#07364f"/><path class="cls-5" d="m256.569 246.642-1.8 2.7-9.36 1.58s-4.62 3.95-8.57 2.48c0 0 2.37 7.11-2.37 12.18 0 0 3.16 8.8-1.69 10.26 0 0-8.45 0-4.51-13 0 0-.34-5 3.84-6.2 0 0-2.82-6.2 3.83-8.12 0 0 1.24-2.36 7.33-.22l3.38-3" id="path354" style="fill:#07364f"/><path class="cls-5" d="M283.929 229.952s10.26-2.26 15.11-7.44c0 0 7-6.65-2.94-12.63 0 0-1 5.41-6 6.88 0 0-7.56 5.3-16.58 5.75" id="path356" style="fill:#07364f"/><path class="cls-5" d="M285.509 230.962s10.37-.22 21-9.24c0 0 2.7-1.58 3.38 2.82v1s-5.19 3.95-9.92 5.3v1.47l-8.35.79-3.97 1.13" id="path358" style="fill:#07364f"/><path class="cls-5" d="M308.389 222.062s5.75-5.87 8.12-8.57c0 0-.56 10.71-6.65 11.05" id="path360" style="fill:#07364f"/><path class="cls-5" d="m309.299 233.672 1.12 4.17-9.47.57-8.45 1.24-14.21 1.69 3.83-4.17a39.69 39.69 0 0 1 11.84.22s3.95-5.41 15.34-3.72z" id="path362" style="fill:#07364f"/><path class="cls-5" d="M309.069 235.362s3.27-3.72 11.5-5.75c0 0-2.7 6.88-10.15 8.23" id="path364" style="fill:#07364f"/><path class="cls-5" d="m272.199 245.282 19.28.79s3.95 8.12 9.36 9.36l2.25 9.92s3.5-8.11.34-12.51l-6-5s.56-3.72-6.54-4.62l-14.44-1" id="path366" style="fill:#07364f"/><path class="cls-5" d="M303.429 252.842a2.29 2.29 0 0 0-2.59 2.59" id="path368" style="fill:#07364f"/><path class="cls-5" d="m259.459 246.642 1.8 2.7 9.36 1.58s4.62 3.95 8.57 2.48c0 0-2.37 7.11 2.37 12.18 0 0-3.16 8.8 1.69 10.26 0 0 8.46 0 4.51-13 0 0 .34-5-3.83-6.2 0 0 2.82-6.2-3.84-8.12 0 0-1.24-2.36-7.33-.22l-3.38-3" id="path370" style="fill:#07364f"/><path class="cls-5" d="M258.019 219.172c-21.59-.68-29.63 15.06-29.63 15.06 8.79 9.65 24 13.37 24 13.37l5.62-.49 5.61.49s15.22-3.72 24-13.37c.03 0-7.97-15.74-29.6-15.06z" id="path372" style="fill:#07364f"/><path class="cls-5" d="M228.269 262.872s2.14-1 2.65 1.05c.51 2.05 1.19 2.48 3.55 1.66" id="path374" style="fill:#07364f"/><path class="cls-5" d="M287.749 262.872s-2.13-1-2.64 1.05c-.51 2.05-1.2 2.48-3.56 1.66" id="path376" style="fill:#07364f"/><path class="cls-19" d="M252.059 219.772a8.34 8.34 0 0 1-5.41-7.78" id="path378" style="fill:none;stroke:#07364f;stroke-width:1.17999995px;stroke-miterlimit:10"/><path class="cls-19" d="M263.569 219.772a8.36 8.36 0 0 0 5.41-7.78" id="path380" style="fill:none;stroke:#07364f;stroke-width:1.17999995px;stroke-miterlimit:10"/><path class="cls-11" d="M277.559 228.852a26.4 26.4 0 0 0-17.28-5.87H257.929a26.4 26.4 0 0 0-17.28 5.87 23.58 23.58 0 0 0-4.32 4.65c5.5 5.27 13.4 8.15 16.8 9.21.13-3.41 2.09-16.72 24.43-13.86z" id="path382" style="fill:#1e546d"/><path class="cls-11" d="M277.459 224.512s9.31-2 14.38-6.42a30.82 30.82 0 0 1-11.33 8.62" id="path384" style="fill:#1e546d"/><path class="cls-11" d="M281.179 208.282s4.23 5.07 9.81 6.59l1.86-1s-2.53-6.1-11.67-5.59z" id="path386" style="fill:#1e546d"/><path class="cls-11" d="M235.519 225.532s-11.16-.34-16.07-10.49l-.67-1.86-1.53 3.38s-.67 6.6 15.73 11" id="path388" style="fill:#1e546d"/><path class="cls-11" d="M222.339 211.502s.63 1.88 1.88 2.19c0 0 7.83-1.41 11-6 0 0-.31-2.51-1.41-2.51-1.1 0-6.77.37-11.47 6.32z" id="path390" style="fill:#1e546d"/><path class="cls-11" d="M283.889 273.052a4.87 4.87 0 0 1 0-6.42 5.24 5.24 0 0 0-2.14-6.43s4.4-.45 4.62 4.51c0 0 1.69 8.34-2.48 8.34z" id="path392" style="fill:#1e546d"/><path class="cls-11" d="M232.259 273.052a4.87 4.87 0 0 0 0-6.42 5.24 5.24 0 0 1 2.15-6.43s-4.4-.45-4.63 4.51c0 0-1.69 8.34 2.48 8.34z" id="path394" style="fill:#1e546d"/><path class="cls-5" d="M121.849 152.042s-1.47 5.29 3.23 4.7c0 0-5 1.47-2.35 5.58s-4.11 3.53-4.11 3.53l-1.18-13.22" id="path396" style="fill:#07364f"/><path class="cls-20" d="m142.359 183.162-4.82 1.06.27-11.37 4.71-1c2.07-.46 3.32.41 3.27 2.2a3.53 3.53 0 0 1-1.39 2.75 2 2 0 0 1 1.83 2.38c-.05 2.11-1.58 3.48-3.87 3.98zm1.66-3.81c0-.76-.47-1.12-1.62-.87l-2.58.57-.06 2.5 2.65-.58c1-.22 1.59-.74 1.61-1.58zm-.45-4.42c0-.75-.49-1.06-1.44-.85l-2.2.48-.06 2.41 2.06-.45c1-.22 1.62-.71 1.64-1.56z" id="path398" style="fill:#3b7a91;stroke:#3b7a91;stroke-width:.40000001px;stroke-miterlimit:10"/><path class="cls-20" d="m162.789 178.682-.87-2.35-4.28.94-1 2.75-2.28.5 4.63-12.4 2-.45 4.07 10.49zm-2.87-7.78-1.43 4 2.69-.6z" id="path400" style="fill:#3b7a91;stroke:#3b7a91;stroke-width:.40000001px;stroke-miterlimit:10"/><path class="cls-20" d="m173.929 176.232.28-11.37 2.23-.49-.22 9.09 5-1.11v2.28z" id="path402" style="fill:#3b7a91;stroke:#3b7a91;stroke-width:.40000001px;stroke-miterlimit:10"/><path class="cls-20" d="m193.509 162.912-.22 9.07-2.23.49.22-9.07-3.09.68.06-2.3 8.4-1.85-.06 2.31z" id="path404" style="fill:#3b7a91;stroke:#3b7a91;stroke-width:.40000001px;stroke-miterlimit:10"/><path class="cls-20" d="m205.429 169.312.27-11.37 2.24-.49-.29 11.37z" id="path406" style="fill:#3b7a91;stroke:#3b7a91;stroke-width:.40000001px;stroke-miterlimit:10"/><path class="cls-20" d="m225.369 164.942.18-7.43-3 5.49-2.71-4.19-.18 7.38-2.19.48.28-11.37 2.4-.53 2.55 4.22 2.78-5.39 2.41-.53-.31 11.37z" id="path408" style="fill:#3b7a91;stroke:#3b7a91;stroke-width:.40000001px;stroke-miterlimit:10"/><path class="cls-20" d="M242.179 161.442c-3.13.69-5.31-1.44-5.23-4.67a7.52 7.52 0 0 1 5.55-7.07c3.12-.69 5.31 1.44 5.23 4.67a7.53 7.53 0 0 1-5.55 7.07zm3.22-6.56c0-2-1.19-3.29-3-2.9a4.37 4.37 0 0 0-3.13 4.21c0 2 1.19 3.29 3 2.9a4.36 4.36 0 0 0 3.12-4.21z" id="path410" style="fill:#3b7a91;stroke:#3b7a91;stroke-width:.40000001px;stroke-miterlimit:10"/><path class="cls-20" d="m262.979 156.682-2.09-3.16-1.75.38-.09 3.64-2.23.49.28-11.37 4.63-1c2.39-.52 3.79.57 3.74 2.91a4.73 4.73 0 0 1-2.26 4l2.38 3.52zm.22-7.5c0-1.07-.62-1.48-1.71-1.24l-2.22.49-.08 3.26 2.26-.49a2.07 2.07 0 0 0 1.75-2z" id="path412" style="fill:#3b7a91;stroke:#3b7a91;stroke-width:.40000001px;stroke-miterlimit:10"/><path class="cls-20" d="m274.539 154.142.28-11.37 7.65-1.68-.06 2.22-5.43 1.2-.06 2.3 4.78-1.05v2.23l-4.78 1.05-.06 2.39 5.51-1.21-.06 2.22z" id="path414" style="fill:#3b7a91;stroke:#3b7a91;stroke-width:.40000001px;stroke-miterlimit:10"/></svg>