<svg xmlns="http://www.w3.org/2000/svg" xmlns:xlink="http://www.w3.org/1999/xlink" id="Layer_1" width="420.527" height="510.83" data-name="Layer 1" version="1.1"><defs id="defs65"><linearGradient id="linear-gradient" x1="-35.63" x2="232.96" y1="-107.16" y2="-107.16" gradientTransform="rotate(-4.47 4972.238 -1302.5)" gradientUnits="userSpaceOnUse"><stop id="stop4" offset="0" stop-color="#00bfbc"/><stop id="stop6" offset=".3" stop-color="#193b7a"/><stop id="stop8" offset=".47" stop-color="#2b2277"/><stop id="stop10" offset=".66" stop-color="#4a1772"/><stop id="stop12" offset="1" stop-color="#cb00ff"/></linearGradient><linearGradient id="linear-gradient-2" x1="14.86" x2="148.8" y1="-80.06" y2="-80.06" gradientTransform="rotate(-4.47 5588.313 -2428.521)" gradientUnits="userSpaceOnUse"><stop id="stop15" offset="0" stop-color="#381968"/><stop id="stop17" offset=".17" stop-color="#381968" stop-opacity=".95"/><stop id="stop19" offset=".38" stop-color="#381968" stop-opacity=".8"/><stop id="stop21" offset=".62" stop-color="#381968" stop-opacity=".55"/><stop id="stop23" offset=".87" stop-color="#381968" stop-opacity=".2"/><stop id="stop25" offset="1" stop-color="#381968" stop-opacity="0"/></linearGradient><linearGradient id="linear-gradient-3" x1="46.55" x2="201.31" y1="-108.82" y2="-108.82" gradientTransform="rotate(-4.47 4972.238 -1302.5)" gradientUnits="userSpaceOnUse"><stop id="stop28" offset="0" stop-color="#381968" stop-opacity="0"/><stop id="stop30" offset=".17" stop-color="#381968" stop-opacity=".29"/><stop id="stop32" offset=".4" stop-color="#381968" stop-opacity=".6"/><stop id="stop34" offset=".62" stop-color="#381968" stop-opacity=".82"/><stop id="stop36" offset=".82" stop-color="#381968" stop-opacity=".95"/><stop id="stop38" offset="1" stop-color="#381968"/></linearGradient><linearGradient id="linear-gradient-4" x1="4.25" x2="101.51" y1="-53.74" y2="-53.74" gradientTransform="rotate(-4.47 4972.238 -1302.5)" gradientUnits="userSpaceOnUse"><stop id="stop41" offset="0" stop-color="#381968" stop-opacity="0"/><stop id="stop43" offset=".07" stop-color="#381968" stop-opacity=".1"/><stop id="stop45" offset=".35" stop-color="#381968" stop-opacity=".49"/><stop id="stop47" offset=".61" stop-color="#381968" stop-opacity=".77"/><stop id="stop49" offset=".84" stop-color="#381968" stop-opacity=".94"/><stop id="stop51" offset="1" stop-color="#381968"/></linearGradient><linearGradient xlink:href="#linear-gradient-2" id="linear-gradient-5" x1="79.32" x2="221.98" y1="-125.86" y2="-125.86" gradientTransform="translate(-89.633 -44.59)"/><linearGradient id="linear-gradient-6" x1="-155.65" x2="116.07" y1="-216.81" y2="-216.81" gradientTransform="rotate(-6.56 4328.35 -1934.624)" gradientUnits="userSpaceOnUse"><stop id="stop55" offset="0" stop-color="#00bfbc"/><stop id="stop57" offset=".46" stop-color="#00bfbc"/><stop id="stop59" offset="1" stop-color="#cb00ff"/></linearGradient><linearGradient xlink:href="#linear-gradient-2" id="linearGradient986" x1="14.86" x2="148.8" y1="-80.06" y2="-80.06" gradientTransform="rotate(-4.47 4972.238 -1302.5)" gradientUnits="userSpaceOnUse"/><clipPath id="clip-path"><circle id="circle62" cx="920" cy="920" r="261.22" style="fill:none"/></clipPath><style id="style2">.cls-16{fill:none}.cls-5{fill:#fff}.cls-3{fill:#6da8b5}.cls-4{fill:#381968}.cls-12{fill:#10667f}.cls-16{stroke:#1e0a44;stroke-miterlimit:10;stroke-width:11.81px}</style></defs><ellipse id="ellipse69" cx="352.167" cy="215" class="cls-3" rx="68.36" ry="89.24" style="fill:#6da8b5"/><path id="path71" d="M383.437 378.92c2.46-44 4.64-110.64-4.82-182-8.11-61.16-27.37-114.59-42.85-157.51-1.83-5.1-3.62-10-5.33-14.86L321.707 0 3.097 113.46l-1 17.6c-3.91 69.85-2.38 127.69 4.82 182 7.25 54.69 21 110.24 41.94 169.71l9.85 28.06 322-112.65 2.66-18.5z" class="cls-3" style="fill:#6da8b5"/><path id="path73" d="M303.847 35.58v.08l-276.87 99.48-.59.21c-2.84 51.05-3.86 113.72 4.64 178.22 8.69 65.86 25.79 123.23 41.65 168.09l.06.46 282.17-99.48-.07-.54.59-.21c2.87-51.63 4-112.81-4.64-178.22-8.69-65.86-31.08-123.26-46.94-168.09z" class="cls-4" style="fill:#381968"/><path id="path75" d="m257.367 108.24-3.85 50.3q-38.22 5.94-76.44 12c-46.79 7.45-58.55 62.43-62.15 106.5-3.41 41.56.25 97 47.59 85.07q38.34-8.4 76.69-16.42l-3.84 50.3q-38.38 8.6-76.76 17.61c-73.59 18.23-90.95-64.84-87.07-129.48 4-66.89 29.24-155.16 100.68-164.74 25.48-3.63 59.72-7.56 85.15-11.14z" class="cls-5" style="fill:#fff"/><ellipse id="ellipse77" cx="357.207" cy="278.67" class="cls-4" rx="12.18" ry="10.96" style="fill:#381968"/><path id="path79" d="M300.067 169.79c-68.16 15-108.41 42.19-108.41 42.19l19.71 6.26-88.29 75.17 23.51 1.59-37.53 37.63c-6.5 6.52-30.07 23.47-22.79 34.76 4.18 6.48 18.16-1.5 23.3-3.15l150.44-55.95-21.64-12.42 97.2-29.2" style="fill:#1e0a44;stroke:url(#linear-gradient);stroke-width:11.14999962px;stroke-linecap:round;stroke-linejoin:round"/><path id="path81" d="m127.817 293.77 18.77 1.27-4.11 4.12c19.62 6.5 44.49 12.24 71 16.34 6.73 1.05 13.39 2 19.92 2.73l26.62-9.9-17.16-9.92c-8.54-.89-17.35-2-26.22-3.4-25-3.87-48.92-9.36-67.39-15.45-2.56-.85-4.9-1.66-7-2.45l-17.88 15.21c1.17.5 2.31.98 3.45 1.45z" style="fill:url(#linearGradient986)"/><path id="path83" d="M300.997 270.83c-20.49-7.46-48.08-14.09-77.71-18.68-15.9-2.46-31.41-4.19-45.75-5.12l-23.33 19.89c18.94 0 42.19 2 65.91 5.68a478.36 478.36 0 0 1 55.92 11.95l34-10.21c-3.01-1.26-6.06-2.43-9.04-3.51z" style="fill:url(#linear-gradient-3)"/><path id="path85" d="M140.847 316.41a84.94 84.94 0 0 1-10.59-5l-13.89 14a98 98 0 0 0 17.47 8.87 154 154 0 0 0 33.24 8.67l46.86-17.43c-27.36 1.89-53.26-1.27-73.09-9.11z" style="fill:url(#linear-gradient-4)"/><path id="path87" d="M289.757 228.69c-21.75-8.59-49.55-12.29-78.68-10.53l.24.08-26.29 22.41a215.89 215.89 0 0 1 23.34-3.11c27.82-2.17 54.23 1 74.37 9 17.62 7 28.19 16.85 29 27.13a1.28 1.28 0 0 1 0 .19l18.57-5.57c-3.1-16.47-17.31-30.41-40.55-39.6z" style="fill:url(#linear-gradient-5)"/><path id="path89" d="M300.067 169.79c-68.16 15-108.41 42.19-108.41 42.19l19.71 6.26-88.29 75.17 23.51 1.59-37.53 37.63c-6.5 6.52-30.17 22.2-22.88 33.49 4.22 6.56 13.46 1.79 18.82-.38 21-8.49 42-16.88 63.25-24.52l85.42-30.66 6.34-2.27-21.64-12.42 97.2-29.2" style="fill:none;stroke:url(#linear-gradient-6);stroke-width:11.68999958px;stroke-linecap:round;stroke-linejoin:round"/><path id="polygon91" d="m335.27 286.01 4.11-14.38 5.04 12.73 13.48 3.22-12.19 4.59-2.32 14.37-7.53-13.64-11.93-1.81z" class="cls-5" style="fill:#fff" transform="translate(-89.633 -44.59)"/><path id="polygon93" d="m390.77 347.9 13.47-11.5-3.36 15.86 11.2 12-15.03-3.45-11.69 12.66 1.49-18.39-10.59-9.59z" class="cls-12" style="fill:#10667f" transform="translate(-89.633 -44.59)"/><path id="polygon95" d="m269 348.89-1.53-9.83 6.6 6.29 9.05-1.81-6.09 6.16 2.6 9.34-8.36-6.15-7.71 2.24z" style="fill:#953da5" transform="translate(-89.633 -44.59)"/><circle id="circle97" cx="233.457" cy="275.52" r="4.47" class="cls-12" style="fill:#10667f"/><circle id="circle99" cx="89.017" cy="308.35" r="9.9" class="cls-12" style="fill:#10667f"/><circle id="circle101" cx="274.427" cy="329.07" r="4.79" class="cls-3" style="fill:#6da8b5"/><circle id="circle103" cx="106.407" cy="276.9" r="4.79" class="cls-3" style="fill:#6da8b5"/><circle id="circle105" cx="182.527" cy="268.52" r="5.11" style="fill:#163f7a"/><circle id="circle107" cx="151.587" cy="326.38" r="4.79" class="cls-5" style="fill:#fff"/><circle id="circle109" cx="255.107" cy="203.95" r="4.15" style="fill:#552089"/><circle id="circle111" cx="336.897" cy="212.64" r="56.51" class="cls-3" style="fill:#6da8b5"/><ellipse id="ellipse113" cx="286.524" cy="288.205" class="cls-12" rx="38.89" ry="48.15" style="fill:#10667f" transform="rotate(-14.62)"/><circle id="circle115" cx="336.897" cy="212.64" r="56.51" class="cls-16" style="fill:none;stroke:#1e0a44;stroke-width:11.81000042px;stroke-miterlimit:10"/><path id="path117" d="M370.367 166.92s-6.51 19.8-37.43 16.13c-25.8-3.06-43.22 5.86-51.26 17.48" class="cls-16" style="fill:none;stroke:#1e0a44;stroke-width:11.81000042px;stroke-miterlimit:10"/><path id="path119" d="M298.017 253.64c15.39 2.81 34.48-.42 47.09-9.11 12.85-8.85 18.84-21.76 32.87-29a52 52 0 0 1 15.56-5" class="cls-16" style="fill:none;stroke:#1e0a44;stroke-width:11.81000042px;stroke-miterlimit:10"/><path id="path121" d="M392.517 185.58a745.33 745.33 0 0 1-70.1 31.71l-38.59 14.78" class="cls-16" style="fill:none;stroke:#1e0a44;stroke-width:11.81000042px;stroke-miterlimit:10"/><path id="path123" d="M377.717 260.08c-1.67-14.77-5.83-29.28-10.77-43.26q-3.65-10.29-8.05-20.3c-9.53-21.67-21-41.05-32.19-54.58-5.71-6.87-12.31-14.15-20.87-17.41-7.09-2.71-16.41-1.72-21.54 4.46-7.28 8.77-5.89 28.13-4.21 39.23l11.36-2.17c-2.69-18.72 2.47-28.35 3.54-28.82 1.47-.65 8.15 2 18.31 14.28 10.45 12.59 21.19 30.84 30.23 51.41 9.04 20.57 15.26 40.82 17.48 57 2.16 15.75-.36 22.49-1.85 23.14-.54.24-3.15 0-7.92-3.78a52.07 52.07 0 0 1-15.26 3.94l-.11.11c9.2 9.55 17.43 13.95 24.53 13.13a14.12 14.12 0 0 0 4.16-1.13c2.6-1.14 5.18-2 7.21-4.09 3.7-3.76 5.39-8.47 6.1-13.61a71.82 71.82 0 0 0-.15-17.55z" class="cls-12" style="fill:#10667f"/><path id="path125" d="M157.297 203c-3.44 1.87-4.36 5.8-6 9.09l-4.35 8.87-9.81 20-1.87 3.81 11.68-10.13 16.73-14.5c2.14-1.86 4.67-3.23 5.85-5.95a8.87 8.87 0 0 0-.35-7.69 8.78 8.78 0 0 0-11.88-3.5z" class="cls-12" style="fill:#10667f"/></svg>