<svg xmlns="http://www.w3.org/2000/svg" width="539.5" height="406.9"><path fill="#8d8066" stroke="#8d8066" stroke-linecap="round" stroke-linejoin="round" stroke-width="24.9" d="M415.8 17.2c-7 .1-63 2.7-88.3 48.3l-9.6 17.3L12.5 208.3l40.5 1.1 195 16.7v50.1l-51.5 118.2 192-176.3c39.7-23 63.6-44.9 72.7-66.8l1.6-1.5-1.2.6.7-1.8c11.4-31.4-3.3-49.6-11.1-59.4l-1.7-2.2 19.7-24.4 7.4-6.6L527 12.5l-111.2 4.7zM267.3 232.9"/><path fill="#141a3e" d="M415.8 17.2c-7 .1-63 2.7-88.3 48.3l-9.6 17.3L12.5 208.3l261 7.4-8.6 21.6-68.4 157.1 192-176.3c39.7-23 63.6-44.9 72.7-66.8l1.6-1.5-1.2.6.7-1.8c11.4-31.4-3.3-49.6-11.1-59.4l-1.7-2.2 19.8-24.4 7.3-6.6L527 12.5l-111.2 4.7z"/><path fill="#766047" d="m261.5 303.2 82-75.2-61 26.9z"/><path fill="#8d8066" d="m452.3 46.7 9.2-8.2L424 40l-25.4 12.8 2.1-10.7c-16 3-40.3 11.5-53 34.6l80.1-19-28.2 13L340.5 98l-207.6 95.2 38.7-.2L407.4 84.8a99 99 0 0 1-5.6 13.6L196 193l40.6-.2L385 124.6a227.3 227.3 0 0 1-16.7 18.7l-107.2 49.2 45.6-.2-17 46.7s133.1-49.6 150.7-98.3c12.9-35.4-23.6-37.3-14-62l25.9-32z"/><path fill="#345cb8" d="M248 226v51.6l27.6-63.9L41 209.1z"/></svg>