<svg xmlns="http://www.w3.org/2000/svg" id="Layer_1" width="504.2" height="497.5" version="1.1"><defs id="defs27"><style id="style25">.cls-1{fill:#012304}.cls-4{fill:#247127}</style></defs><g id="g63" transform="translate(-48 -51.2)"><g id="g35"><path id="path31" fill="#012304" d="M193.6 538.7V61.3h233C490.4 61.3 542 113 542 176.6v19.8c0 27.1-9.7 53.5-27.3 74.3a116.4 116.4 0 0 1-37.6 29.3A115.2 115.2 0 0 1 542 403.6v19.7c0 63.6-51.7 115.4-115.3 115.4h-233Z" class="cls-1"/><path id="path33" fill="#247127" d="M426.7 71.3c57.9 0 105.3 47.4 105.3 105.3v19.8c0 51.6-37.6 94.8-86.7 103.6 49 8.8 86.7 52 86.7 103.6v19.8c0 57.9-47.4 105.3-105.3 105.3h-223V71.3h223m0-20H183.6v497.5h243c33.5 0 65-13.1 88.7-36.9a124.5 124.5 0 0 0 36.8-88.5v-19.8c0-29.5-10.6-58.2-29.7-80.8A126.4 126.4 0 0 0 497 300a125.3 125.3 0 0 0 55-103.6v-19.8a124 124 0 0 0-36.8-88.5 124.5 124.5 0 0 0-88.6-36.9z" class="cls-4"/></g><rect id="rect37" width="115.2" height="88.3" x="313.3" y="369.4" fill="#247127" class="cls-4" rx="40.4" ry="40.4"/><rect id="rect39" width="115.2" height="88.3" x="313.3" y="144.7" fill="#247127" class="cls-4" rx="40.4" ry="40.4"/><g id="g61"><g id="g45"><path id="path41" fill="#012304" d="M204 463.1h-.4c-1-.2-26.3-4-57.6-23.6-28.8-18-68.3-53.1-92.8-119l-.2-.4v-.6c-.3-2.3-6.1-55.6 26.3-112.8-7.4-7.9-25.6-32.4-2.7-62a33.1 33.1 0 0 1 27-14c19.4 0 38 16.5 43.8 22 8.3-1.5 36-6.7 56.8-7.3h25.3c20.8.6 48.5 5.7 56.8 7.4 5.7-5.6 24.3-22.2 43.8-22.2 10.6 0 19.7 4.8 27 14.2 22.9 29.5 4.6 54-2.7 62a200.2 200.2 0 0 1 26.3 112.7v.6l-.3.5c-24.5 65.8-64 101-92.7 119A164.6 164.6 0 0 1 230 463h-26z" class="cls-1"/><path id="path43" fill="#247127" d="M330.1 135.1c8.2 0 16.3 3.3 23.4 12.4 25.5 33-4.8 58.5-4.8 58.5 34 57.7 27.5 113 27.5 113-46.6 125.1-146.8 139.6-146.8 139.6h-25.1S104 444.1 57.4 319c0 0-6.5-55.3 27.5-113 0 0-30.3-25.6-4.7-58.5 7-9 15.2-12.4 23.3-12.4 21.4 0 42.4 22.6 42.4 22.6s34.2-7.1 58.4-7.8h25c24.2.7 58.5 7.8 58.5 7.8s21-22.6 42.3-22.6m0-9v9-9c-19.4 0-37.6 14.8-45.2 21.9-10.4-2-35.7-6.5-55.3-7h-25.5c-19.6.5-45 5-55.3 7-7.6-7-25.8-21.9-45.3-21.9a37.9 37.9 0 0 0-30.4 16c-15.9 20.3-13.3 38.7-8.4 50.5a57.7 57.7 0 0 0 9.1 14.8A204.8 204.8 0 0 0 48.5 320l.1 1 .4 1c11 29.5 25.9 55.5 44.2 77.3a214 214 0 0 0 50.4 44c32.1 20 58.3 24 59.4 24.1l.7.1h27c1-.2 27.3-4.2 59.4-24.3a214.2 214.2 0 0 0 50.4-44 260.4 260.4 0 0 0 44.2-77.2l.4-1v-1c.3-2.4 6.1-55.3-25.2-112.7 3-3.5 6.5-8.5 9.1-14.8 5-11.8 7.5-30.2-8.4-50.6a37.9 37.9 0 0 0-30.5-15.9z" class="cls-4"/></g><path id="path47" fill="#247127" d="M259.8 349.3c31.7-71-27-107.6-27-107.6l49.2-3.5c65.8 51.7 22.8 141.4 22.8 141.4S364.5 347 327 190.3c0 0 22.1-8 15.1-33.3-7-25.3-37.3-2-42.4 15.1 0 0-36.1-7-70.6-11l-12.3 44.2-12.2-44.1c-34.5 4-70.7 11-70.7 11-5-17.2-35.4-40.5-42.4-15.2a26.2 26.2 0 0 0 15.1 33.3C69.2 347 128.8 379.7 128.8 379.7s-43-89.8 22.9-141.5l49 3.5s-58.6 36.7-26.9 107.6l43-8.8 43 8.8z" class="cls-4"/><path id="path49" fill="#012304" d="M234.4 286.2c-5.8-1.3-11.9-1.6-17.1-2.2l-1.4.1-1.4-.1c-5.3.6-11.3.9-17.1 2.2-8.1 2-11.8 7.7-10 15.7 1.4 5.6 3.7 11 6.4 16 1.3 2.6 4.3 4.4 6.8 6 4.1 2.4 8.5 4.4 12.9 6.4.6.3 1.5.3 2.4.2.8.1 1.7 0 2.4-.2 4.4-2 8.7-4 12.8-6.4a18 18 0 0 0 6.8-6c2.7-5 5-10.4 6.4-16 1.9-8-1.8-13.7-10-15.7z" class="cls-1"/><path id="rect51" fill="#012304" d="M207.3 319.9h15.9v27.6h-15.9z" class="cls-1"/><path id="path53" fill="#247127" d="M228.8 416.4c37.6-2.3 39.7-23.4 39.7-23.4l3.8-28.6-10-2.3-3.7 25s-3.3 16.4-29.8 17.5h-21.2c-26.6-1.1-29.8-17.5-29.8-17.5l-3.8-25-10 2.3 3.8 28.6s2.2 21.1 39.8 23.4z" class="cls-4"/><path id="polyline55" fill="#012304" d="m200.8 241.7-78.8-5.3 17.3 20.4" class="cls-1"/><path id="polyline57" fill="#012304" d="m232.9 241.7 78.7-5.3-17.3 20.4" class="cls-1"/><path id="path59" fill="#fff" d="M233.3 379h-32.2l-12.5-15.6 2.5 22.2s32 10.4 51.5 0l2.5-22.2z"/></g></g></svg>