<svg xmlns="http://www.w3.org/2000/svg" id="Layer_1" data-name="Layer 1" version="1.1" width="273.86" height="267.07"><defs id="defs10"><clipPath id="clip-path"><path class="cls-1" d="M499.29 535.21a173.07 173.07 0 0 0 66.16-13 170.87 170.87 0 0 0 54.34-35.68 167.16 167.16 0 0 0 37-53.46 165.73 165.73 0 0 0 0-132 167.32 167.32 0 0 0-37-53.46 170.56 170.56 0 0 0-54.34-35.67 174.23 174.23 0 0 0-132.32 0 170.71 170.71 0 0 0-54.35 35.67 167.48 167.48 0 0 0-37 53.46 165.73 165.73 0 0 0 0 132 167.48 167.48 0 0 0 37 53.46 170.74 170.74 0 0 0 54.35 35.68 173 173 0 0 0 66.16 13z" id="path4" style="fill:none"/></clipPath><clipPath id="clip-path-2"><path class="cls-1" id="polygon7" style="fill:none" d="M162.9 1006.07h21.36V834.76H162.9v-44.02h119.04v259.35H162.9z"/></clipPath><style id="style2">.cls-1,.cls-29{fill:none}.cls-29{stroke-miterlimit:10;stroke:#034757}.cls-11{fill:#b78254}.cls-13{fill:#034757}.cls-14{fill:#e5b38b}.cls-17{fill:#eee4d3}.cls-29{stroke-width:8.58px}</style></defs><path d="M263 81.46a132.75 132.75 0 0 0-29.37-42.43 136.47 136.47 0 0 0-43.5-28.54 140.35 140.35 0 0 0-106.48 0 136.53 136.53 0 0 0-43.5 28.54 132.75 132.75 0 0 0-29.33 42.43 130.72 130.72 0 0 0 0 104.15 132.75 132.75 0 0 0 29.37 42.43 136.64 136.64 0 0 0 43.5 28.54 140.35 140.35 0 0 0 106.48 0 136.64 136.64 0 0 0 43.5-28.54 132.79 132.79 0 0 0 29.37-42.44 130.7 130.7 0 0 0 0-104.14z" id="path1418" style="fill:#f7e0b7"/><path d="M132.93 248.62a115.11 115.11 0 1 1 44.9-9.08 114.7 114.7 0 0 1-44.9 9.08z" id="path1420" style="fill:none;stroke:#034757;stroke-width:17px;stroke-miterlimit:10"/><path class="cls-11" d="M140.29 249.91a116.1 116.1 0 1 1 45.31-9.16 115.63 115.63 0 0 1-45.31 9.16zm0-154.57a38.19 38.19 0 1 0 38.19 38.19 38.24 38.24 0 0 0-38.19-38.19z" id="path1422" style="fill:#b78254"/><path d="M247.5 88.27a116.34 116.34 0 0 0-92.57-70.15l-1.32 8c9.58-2.79 19.75 2.66 26.74 9.76 6.99 7.1 12.1 16 19.42 22.73 3.56 3.3 7.66 6.13 10.39 10.15a35.89 35.89 0 0 1 4.32 10.44 220 220 0 0 1 8.4 56.84 8.31 8.31 0 0 1-.61 4 13.09 13.09 0 0 1-2.54 2.83c-7.53 7.7-1.69 21.45-6.84 30.92-3.14 5.79-10.24 9.66-10.7 16.23-.22 3.12 1.19 6.36.15 9.31-1.7 4.82-8.21 5.34-12.5 8.14-3.3 2.15-5.32 5.79-8.23 8.45-4.91 4.52-11.85 5.87-17.91 8.66-6.06 2.79-12 8.57-10.72 15.13-7.58.29-15.72 3.89-19.54 10 2.27.13 4.55.21 6.85.21A116.42 116.42 0 0 0 247.5 88.27z" id="path1424" style="fill:#9b6a43"/><path class="cls-13" d="M140.29 258.49a124.7 124.7 0 1 1 48.65-9.84 124.24 124.24 0 0 1-48.65 9.84zm0-232.75a107.5 107.5 0 1 0 42 8.48 107.14 107.14 0 0 0-42-8.48z" id="path1426" style="fill:#034757"/><path class="cls-14" d="M140.29 171.72a38.19 38.19 0 1 1 8.43-75.45l-1.84-8.89c1-5.78-4-11.8-9.89-11.93-4.26-.1-8.31 2.44-12.55 2-2.26-.21-4.35-1.23-6.54-1.84-8.62-2.37-18 2.23-23.65 9.13-5.65 6.9-8.39 15.73-10.65 24.38-2.26 8.65-4.29 17.53-8.92 25.18a11.9 11.9 0 0 1-3.18 3.72 29.68 29.68 0 0 0-3.15 2 8.14 8.14 0 0 0-2 3.83c-3.83 13.28 1.8 28.73 13.29 36.42 3.19 2.13 7.17 4.31 7.55 8.13a7 7 0 0 0 .38 2.55 4 4 0 0 0 2.6 1.64 58.53 58.53 0 0 0 25.27 1.87c6.65 1.27 11.83 7.34 18.59 7.81 5.37.37 10.3-2.93 14.16-6.69a52.33 52.33 0 0 0 15.07-29l-.46-2.21a38 38 0 0 1-22.51 7.35z" id="path1428" style="fill:#e5b38b"/><circle cx="140.29" cy="133.53" r="38.19" id="circle1430" style="fill:#fff6e7;stroke:#034757;stroke-width:17.15999985px;stroke-miterlimit:10"/><path class="cls-29" id="line1432" style="fill:none;stroke:#034757;stroke-width:8.57999992px;stroke-miterlimit:10" d="M102.05 134.05h76.07"/><ellipse class="cls-29" cx="140.29" cy="107.8" rx="28.19" ry="12.45" id="ellipse1434" style="fill:none;stroke:#034757;stroke-width:8.57999992px;stroke-miterlimit:10"/><ellipse class="cls-29" cx="140.29" cy="160.13" rx="27.37" ry="11.6" id="ellipse1436" style="fill:none;stroke:#034757;stroke-width:8.57999992px;stroke-miterlimit:10"/><path class="cls-29" id="line1438" style="fill:none;stroke:#034757;stroke-width:8.57999992px;stroke-miterlimit:10" d="M140.08 95.45v76.07"/><rect class="cls-17" x="-265.104" y="-25.305" width="3.57" height="11.97" rx="1.79" transform="rotate(-135)" id="rect1440" style="fill:#eee4d3"/><rect class="cls-14" x="-5.92" y="-277.39" width="3.57" height="11.97" rx="1.79" transform="rotate(135)" id="rect1442" style="fill:#e5b38b"/><rect class="cls-17" x="47.857" y="-264.05" width="3.57" height="11.97" rx="1.79" transform="rotate(135)" id="rect1444" style="fill:#eee4d3"/><rect class="cls-14" x="-254.587" y="-2.651" width="3.57" height="11.97" rx="1.79" transform="rotate(-135)" id="rect1446" style="fill:#e5b38b"/><rect class="cls-17" x="-34.636" y="-261.623" width="3.57" height="11.97" rx="1.79" transform="rotate(135)" id="rect1448" style="fill:#eee4d3"/><rect class="cls-11" x="-280.068" y="22.826" width="3.57" height="11.97" rx="1.79" transform="rotate(-135)" id="rect1450" style="fill:#b78254"/><rect class="cls-11" x="-292.596" y="-21.261" width="3.57" height="11.97" rx="1.79" transform="rotate(-135)" id="rect1452" style="fill:#b78254"/><rect class="cls-11" x="-54.459" y="-281.436" width="3.57" height="11.97" rx="1.79" transform="rotate(135)" id="rect1454" style="fill:#b78254"/><rect class="cls-11" x="-86.406" y="-249.485" width="3.57" height="11.97" rx="1.79" transform="rotate(135)" id="rect1456" style="fill:#b78254"/><rect class="cls-14" x="-192.711" y="89.144" width="3.57" height="11.97" rx="1.79" transform="rotate(-135)" id="rect1458" style="fill:#e5b38b"/><rect class="cls-17" x="-186.245" y="65.692" width="3.57" height="11.97" rx="1.79" transform="rotate(-135)" id="rect1460" style="fill:#eee4d3"/><rect class="cls-17" x="-81.144" y="-212.695" width="3.57" height="11.97" rx="1.79" transform="rotate(135)" id="rect1462" style="fill:#eee4d3"/><rect class="cls-14" x="-223.451" y="56.792" width="3.57" height="11.97" rx="1.79" transform="rotate(-135)" id="rect1464" style="fill:#e5b38b"/><rect class="cls-11" x="-262.271" y="56.792" width="3.57" height="11.97" rx="1.79" transform="rotate(-135)" id="rect1466" style="fill:#b78254"/><rect class="cls-17" x="-238.813" y="45.462" width="3.57" height="11.97" rx="1.79" transform="rotate(-135)" id="rect1468" style="fill:#eee4d3"/><path class="cls-13" d="M222.17 51.59a64.4 64.4 0 0 1 10.09 15.83 62.92 62.92 0 0 1 4.4 14c.7 3.73 1.06 7.52 1.92 11.22 1 4.15 2.54 8.13 3.87 12.19a108.14 108.14 0 0 1-7.56 84.18 68.49 68.49 0 0 1-14.18 18.72c-6.73 6-14.92 10.06-23 14.06-9.89 4.88-19.85 9.8-30.47 12.76-10 2.79-20.31 3.81-30.6 4.82-12.25 1.21-25.07 2.34-36.49-2.27-6.08-2.46-11.43-6.43-16.41-10.69a147.06 147.06 0 0 1-17-17.18c-4.59-5.46-8.78-11.24-13-17a227.39 227.39 0 0 1-13.92-20.76c-12.56-22-17.23-50.31-5.23-72.64 4.75-8.84 11.72-16.12 18-23.9 6.82-8.51 10.24-18.34 16.23-27.23 4.22-6.27 8.6-8.25 15.78-9.31 9.81-1.45 19.26-4.48 29.05-6.2 16.39-2.87 32.93-5.66 49.57-5.2 13.3.37 26.8 3 38.65 8.88l-38.63-17.8-42.42.71-41.36 15.49-36.64 20-15.44 34.31-7.43 21.35-2 32.62.28 39.26 30.43 27.67 34.77 29.43 50 10.79 61.55-9.55 37.17-29.17 24.6-44.61-.41-41.39-4.16-38.71-23.45-37.18" id="path1470" style="fill:#034757"/></svg>