<svg xmlns="http://www.w3.org/2000/svg" id="Layer_1" width="390.293" height="287.553" data-name="Layer 1" viewBox="0 0 390.293 287.553"><defs id="defs16"><clipPath id="clippath"><path id="path4" d="M168.82 254.79h182.19v146.74c0 50.28-40.82 91.1-91.1 91.1s-91.1-40.82-91.1-91.1V254.79z" class="cls-2"/></clipPath><clipPath id="clippath-1"><path id="rect7" d="M168.82 350.31h183.67v153.63H168.82z" class="cls-2"/></clipPath><clipPath id="clippath-2"><circle id="circle10" cx="259.17" cy="514.55" r="90.83" class="cls-2"/></clipPath><clipPath id="clippath-3"><path id="path13" d="M734.93 1005.05c-6.98 0-12.68-5.71-12.68-12.68l3.34-174.74a9.34 9.34 0 0 1 9.34-9.16 9.34 9.34 0 0 1 9.34 9.16l3.34 174.74c0 6.98-5.71 12.68-12.68 12.68" class="cls-2"/></clipPath><style id="style2">.cls-2{fill:none}.cls-27{fill:#6b727b}.cls-28{fill:#a6abb2}.cls-30{fill:#fb7ca0}.cls-35{fill:#72cf8e}.cls-54{fill:#000d00}.cls-72{fill:#fff}</style></defs><g id="g618" transform="translate(-544.72 -220.63)"><path id="path546" d="m658.43 406.61-1.76-62.29 69.38-103.06-117.28-14.31 16.88 36c-39.1-3.72-71.05-42.32-71.05-42.32 7.22 54.17 27.56 95.31 27.56 95.31-18.49-8.52-37.44-44.06-37.44-44.06 5.47 144.24 92.32 136.43 92.32 136.43" class="cls-27"/><g id="g612"><g id="g588"><path id="path548" d="M930.74 370.1c-5.13-17-14.21-28.71-26.28-33.88-9.42-4.04-18.86-6.08-28.05-6.08-7.81 0-14 1.46-18.31 2.96l-9.73-4.46c-1.52-12.57-6.46-26.98-19.77-36.35-5.96-4.19-12.3-6.41-17.85-7.56l-.68-.83c-.37-18.4-12.22-28.12-19.97-30.97-.2-.07-.4-.14-.6-.2-4.47-1.4-8.74-2.29-12.76-2.69-23.17-1.29-29.7 19.82-29.83 20.26-1.16-2.05-1.91-5.35-2.23-8.92-.9-10.21-8.48-18.57-18.62-20.09-.66-.1-1.34-.2-2.05-.31-7.56-1.15-15.16-1.76-22.73-1.83-59.8-.62-111.89 40.5-126.67 98.45-10.25 40.18 22.24 71.99 83.8 69.05v.01c-19.54 9.85-42.48 10.55-62.5 1.74-12.11-5.33-20.42-10.81-20.79-11.05v.01c8.29 16.47 16.35 26.39 22.98 32.36-11.01 2.77-16 16.26-8.25 25.35 22.46 26.35 55.25 45.41 93.64 51.27 25.49 3.89 50.36 1.49 72.78-5.96 11.66 4.75 26.41 7.15 43.97 7.15 21.4 0 39.58-3.58 40.34-3.73.23-.05.45-.1.68-.16 27.28-7.03 46.84-17.31 58.15-30.56q.945-1.11 1.77-2.19c2.41-3.15.96-7.73-2.85-8.84l-4.23-1.24v-.01c11.52-2.43 21.71-5.67 24.79-8.12 1.05-.9 1.8-1.62 2.18-2 .61-.61 1.16-1.29 1.64-2.01 8.13-12.41 10.94-27.47 11.86-37.92 1.23-13.95-.12-28.38-3.82-40.63z" class="cls-27"/><path id="path550" d="M868.61 365.89s10.1-2.61 14.62 3.71l5.31 19.99 12.74-2.83-5.42-21.67-16.25-9.93-11.74.9" class="cls-30"/><path id="path552" d="m773.26 318.29 33.23 1.66s9.03 0 7.22 15.35.24 1.57.24 1.57l10.93 4.75 2.89-23.32-18.57-11.89-33.4.9" class="cls-28"/><path id="path554" d="M857.55 366.44c-1.56-1.49-42.41-13.56-39.47 23.14 0 0-.5 5.99 10.65 3.39l10.04-3.39L852.53 403l9.03 4.41 17.45-4.94c6.59-.56 1.95-23.11-11.89-33.59" class="cls-54"/><path id="path556" d="M681 310.01s20.76-18.26 37.02 15.25c0 0 .9-26.99-19.86-29.69 0 0-18.06-1.81-17.15 14.45z" class="cls-30"/><path id="path558" d="M599.26 346.1s45.62-92.26 171.11-37.99l-26.82-32.77-72.21-3.46-33.69 11.05-16.87 21.89" class="cls-28"/><path id="path560" d="M861.28 444.07c-15.54 3.19-27.17 2.55-35.46.72-9.36-2.07-16.74-9.22-19.48-18.41-5.24-17.53-13.01-34.26-13.01-34.26l-4.45 13.93 4.45 34.78 9.54 17.25 31.6 3.61s64.1-25.28 26.81-17.61z" class="cls-35"/><path id="path562" d="M899.48 347.83c-25.28-10.83-41.53-.9-41.53-.9L836.28 337c-.9-46.04-40.63-40.63-40.63-40.63 7.22-25.28-9.93-31.6-9.93-31.6-28.89-9.03-32.5 10.83-32.5 10.83-27.99-17.15-57.78-18.06-57.78-18.06-76.74 1.81-93.89 50.56-101.12 90.28-1.36 7.49-1.92 13.82-1.93 19.16-24.65-7.45-40.85-42.19-40.85-42.19 7.55 36.82 25.56 57.06 38.32 67.19 5.64 4.48 13.97.44 13.97-6.77v-12.5c8.29-75.36 49.74-89.21 49.74-89.21 70.09-20.97 116.8 24.58 116.8 24.58-27.99-11.74-46.04 0-46.04 0-1.81-26.18-43.34-36.11-51.46-6.32-8.13 29.79 15.73 34.31 15.73 34.31-5.94 9.93-7.6 18.96-7.6 18.96 9.03-16.25 27.99-18.96 27.99-18.96 0-8.13-15.35-9.93-15.35-9.93-13.54-4.51-18.96-28.89 2.71-29.79s21.67 28.89 21.67 28.89 1.81-10.83 21.67-13.54 28.89 7.22 28.89 7.22l38.82-5.42c23.47 1.81 7.22 28.89 7.22 28.89l26.61 15.84c5.24 3.12 10.64 5.98 16.32 8.19 13.89 5.41 17.55 19.31 17.55 19.31 0-7.53-1.43-12.64-3.14-16.07-2.07-4.13.96-8.94 5.58-8.91 11.98.08 21.03 8.67 21.03 20.46 0 15.35-11.74 21.67-11.74 21.67 11.74-1.81 15.35-10.83 15.35-10.83 5.42 27.99-3.61 45.14-3.61 45.14-42.43 0-51.46 21.67-79.45 15.35s-18.96-20.76-23.47-51.46-35.21-31.6-35.21-31.6c11.74 6.32 27.08 26.18 19.86 45.14s-27.08 18.96-27.08 18.96c24.38 0 33.4 22.57 51.46 32.5s64.1-5.42 64.1-5.42c-27.08 21.67-69.52 14.45-91.18 11.74s-27.08-20.76-27.08-20.76c-62.29-11.74-66.81-68.61-66.81-68.61-13.54 67.71 46.95 74.03 46.95 74.03-27.99 11.74-42.88-4.25-42.88-4.25-31.6-27.08-23.02-86.93-23.02-86.93-12.64 12.64-10.83 24.38-10.83 24.38-9.03-10.83-3.61-43.34-3.61-43.34-32.5 73.13 20.76 106.53 20.76 106.53-23.47 12.64-54.17-6.32-54.17-6.32C682.82 508.52 757.39 487 757.39 487c29.43 14.6 80.71 4.36 80.71 4.36 59.59-15.35 58.68-41.53 58.68-41.53 8.13-.9 15.35-8.13 15.35-8.13 17.15-26.18 12.64-83.06-12.64-93.89z" class="cls-54"/><path id="path564" d="M820.48 336.55s-12.64-10.83-31.6-11.74l25.73 17.6" class="cls-54"/><path id="path566" d="m762.25 293.61 6.37 3.18s3.18-9.55 7.43-10.61 4.25 8.49 3.18 13.8c0 0 7.43-4.25 4.25-16.98-3.18-12.74-20.17-11.68-21.23 10.61" class="cls-27"/><path id="path568" d="M692.85 305.6c-2.92 1.69-4.67 5.75-2.82 8.83 2.71 4.51 14.66 9.48 14.66 9.48l-3.83-10.38s7.22 4.51 9.03 13.54c0 0 1.81-9.93-3.61-16.25-2.38-2.78-6.28-5.52-9.98-5.97-1.23-.15-2.41.15-3.45.75" class="cls-54"/><path id="path570" d="M735.17 331.58s1.81-5.42 14.45-2.71 10.83 14.45 16.25 19.86c5.42 5.42 9.93 9.93 12.64 15.35 0 0-7.22-5.42-15.35-5.42s-24.38 0-18.96-23.47z" class="cls-54"/><path id="path572" d="M822.96 388.03c-.85 3.38 2.53 6.22 5.77 4.94 2.58-1.02 5.59-1.43 8.45 0 7.22 3.61 8.13 12.64 24.38 14.45l-12.64-12.64c-5.42-5.42-9.03-9.03-19.86-8.13 0 0 6.32-6.32 19.86-2.71s18.06 18.96 18.06 18.96l5.42-1.81s0-25.28-23.47-28.89c-17.1-2.63-23.66 6.72-25.96 15.83z" class="cls-30"/><path id="path574" d="M872.4 401.1s0-25.28-23.47-28.89c-1.55-.24-3-.37-4.38-.43.06.04 11.25 7.79 17.29 21.29 3.7 4.92 5.15 9.83 5.15 9.83l5.42-1.81z" class="cls-28"/><path id="path576" d="M879.62 392.97s5.42-10.83-.9-27.08c0 0 18.96 8.13 9.93 28.89 0 0-6.32 5.42-9.03-1.81" class="cls-54"/><path id="path578" d="M739.68 311.72c-18.38 2.51-21.3 11.96-21.63 13.36l-.04.18v9.63s9.48-15.5 31.15-15.5 32.5 30.7 32.5 36.11c0 0 3.61-22.57-13.09-36.56 0 0-9.03-9.93-28.89-7.22" class="cls-30"/><path id="path580" d="M768.57 318.94s-5.32-5.84-16.77-7.34c3.32 2.35 10.35 7.83 13.44 14.16 10.94 9.29 16.41 25.89 16.41 29.74 0 0 3.61-22.57-13.09-36.56z" class="cls-28"/><path id="path582" d="M751.05 345.68c-.44-.96-.67-1.95-.73-2.92-.02 0-.05 0-.07-.01-1.98-.38-3.69 1.5-3.16 3.44 2.21 8.21 6.41 8.97 9.39 8.28 1.94-.44 2.88-2.68 1.89-4.4l-.02-.03c-2.83.46-5.89-1.27-7.31-4.36z" class="cls-35"/><circle id="circle584" cx="752.32" cy="340.71" r="3.61" class="cls-35"/><path id="path586" d="M749.61 366.89c-16.76-1.28-24.99-7.89-26.97-14.99-.85 7.69.92 16.28 11.16 17.6 5.76.74 11.29.87 15.81.77z" class="cls-28"/></g><g id="g608"><path id="path590" d="m850.76 416.58 2.58 1.59c1.04.65 1.92 1.53 2.57 2.57l1.59 2.58 1.69-2.69a7.9 7.9 0 0 1 2.59-2.55l2.46-1.49-2.58-1.59a8.1 8.1 0 0 1-2.57-2.57l-1.59-2.58-1.59 2.58a8.1 8.1 0 0 1-2.57 2.57l-2.58 1.59z" class="cls-72"/><path id="path592" d="m884.45 416.58 3.16 1.96c1.28.79 2.36 1.87 3.15 3.15l1.96 3.16 2.08-3.3a9.6 9.6 0 0 1 3.18-3.13l3.01-1.83-3.16-1.96a9.7 9.7 0 0 1-3.15-3.15l-1.96-3.16-1.96 3.16a9.7 9.7 0 0 1-3.15 3.15l-3.16 1.96z" class="cls-72"/><path id="path594" d="m873.55 411.63 2.02 1.25a6.1 6.1 0 0 1 2.01 2.01l1.25 2.02 1.33-2.11c.51-.81 1.21-1.5 2.03-2l1.92-1.17-2.02-1.25a6.1 6.1 0 0 1-2.01-2.01l-1.25-2.02-1.25 2.02a6.1 6.1 0 0 1-2.01 2.01z" class="cls-72"/><path id="path596" d="m864.21 410.79 1.11.69c.45.28.83.66 1.11 1.11l.69 1.11.73-1.16c.28-.45.67-.83 1.12-1.1l1.06-.65-1.11-.69c-.45-.28-.83-.66-1.11-1.11l-.69-1.11-.69 1.11c-.28.45-.66.83-1.11 1.11z" class="cls-72"/><path id="path598" d="m876.1 423.67 1.11.69c.45.28.83.66 1.11 1.11l.69 1.11.73-1.16c.28-.45.67-.83 1.12-1.1l1.06-.65-1.11-.69c-.45-.28-.83-.66-1.11-1.11l-.69-1.11-.69 1.11c-.28.45-.66.83-1.11 1.11z" class="cls-72"/><path id="path600" d="m884.02 428.63 1.57.97c.64.39 1.17.93 1.56 1.56l.97 1.57 1.03-1.64c.4-.63.94-1.17 1.58-1.55l1.49-.91-1.57-.97c-.64-.39-1.17-.93-1.56-1.56l-.97-1.57-.97 1.57c-.39.64-.93 1.17-1.56 1.56z" class="cls-72"/><path id="path602" d="m894.92 404.85 1.57.97c.64.39 1.17.93 1.56 1.56l.97 1.57 1.03-1.64c.4-.63.94-1.17 1.58-1.55l1.49-.91-1.57-.97c-.64-.39-1.17-.93-1.56-1.56l-.97-1.57-.97 1.57c-.39.64-.93 1.17-1.56 1.56z" class="cls-72"/><path id="path604" d="m872.13 400.88 1.11.69c.45.28.83.66 1.11 1.11l.69 1.11.73-1.16c.28-.45.67-.83 1.12-1.1l1.06-.65-1.11-.69c-.45-.28-.83-.66-1.11-1.11l-.69-1.11-.69 1.11c-.28.45-.66.83-1.11 1.11z" class="cls-72"/><path id="path606" d="m863.7 422.24 1.58.98c.64.4 1.18.94 1.58 1.58l.98 1.58 1.04-1.65c.4-.64.95-1.17 1.59-1.57l1.51-.92-1.58-.98c-.64-.4-1.18-.94-1.58-1.58l-.98-1.58-.98 1.58c-.4.64-.94 1.18-1.58 1.58z" class="cls-72"/></g><path id="path610" d="M746.99 426.91s40.54-2.72 15.26-43.1c0 0 10.11 32.7-15.26 43.1" class="cls-28"/></g><path id="path614" d="M652.59 430.31s-12.38 4.47-27.56 0c0 0 11.7 13.25 34.31 10.81" class="cls-54"/><path id="path616" d="M664.75 365.89s-6.32 90.18 65.91 91.18c0 0-71.32 34.21-65.91-91.18" class="cls-28"/></g></svg>