<svg xmlns="http://www.w3.org/2000/svg" id="Layer_1" width="338.94" height="283.18" data-name="Layer 1" viewBox="0 0 338.94 283.18"><defs id="defs4"><style id="style2">.cls-1{fill:#7f96b2}.cls-2{fill:#c3d3e6}.cls-11{fill:#031532}.cls-12{fill:#ce9858}.cls-13{fill:#0480ff}</style></defs><g id="g98" transform="translate(-580.06 -205.16)"><path id="polygon6" d="m872.56 480.67-281.5-149.8L850 243.8z" class="cls-11"/><path id="path8" d="M846.18 249.69 867.45 473l-265.4-141.23 244.12-82.08m7.65-11.78-10.43 3.51-244.12 82.08-19.21 6.46 17.89 9.52 265.4 141.23 14.33 7.63-1.54-16.16-21.27-223.31-1.04-10.95z" class="cls-13"/><path id="polygon10" d="m870.69 414.95-8.34 4.52 5.1 53.53-183.78-97.79-11.32 3.86 191 101.64 14.33 7.62-1.54-16.16z" class="cls-2"/><g id="g96"><circle id="circle12" cx="806.8" cy="439.41" r="33.83" class="cls-2"/><path id="polyline14" d="m703.65 240.9 13.79-21.44 11.74 27.57v19.04" class="cls-2"/><path id="path16" d="M916.45 332.97c-.29-.76-1.96-4.78-6.85-8.87-5.53-4.62-12.85-7.5-21.8-8.58-1.42-1.98-3.7-4.55-7.21-7.08-8.35-6.02-19.69-9.07-33.71-9.07h-.26l-.26.02-42.38 3.57-6.69.56c-2.02-2.29-4.09-4.76-6.19-7.4-8.52-10.74-15.73-22.23-21.44-34.14-7.11-14.83-11.9-30.39-14.24-46.23l-1.72-10.59s-13.16 8.12-18.5 16.49c-4.87 7.62-7.75 17.93-8.62 30.77a39 39 0 0 1-5.67-10.3l-5.25-14.32-6.11 13.98c-.05.12-.5 1.15-1.08 2.78-2.77-5.48-5.89-13.6-7.14-24.03l-1.23-15.35-10.21 11.75c-.76.76-15.63 17.12-9.54 47.96-6.56-2.87-27.24-21.92-27.24-21.92s1.91 27.34 6.78 35.65c1.35 2.3 2.66 4.43 3.93 6.41l-10.34-4.26 2.03 11.05c.2 1.11 4.35 22.63 21.59 38.72l-6.96.63 8.31 9.11c.53.58 10.1 10.94 24.45 17.74l-8.61 3.92 11.49 5.74c.41.2 6.1 3.02 13.71 5.42l-11.89 5.94 16.34 3.92c.23.06 3.08.73 6.9 1.41-8.24 6.75-20.06 15.66-31.24 21.4-21.19 10.85-61.77 41.91-63.49 43.23l-7.23 5.54 7.85 4.61c1.22.71 30.1 17.47 58.46 17.47 12.51 0 23.14-3.27 31.59-9.71l.51-.39.42-.49 14.95-17.73 5.92 5.52 49.55-29.17c.87.02 2.48.17 3.71.89.53.31 1.78 1.03 1.9 4.08l.42 10.16 8.79-5.13c.16-.09.32-.19.49-.3v6.72l10.23-9.2c.75-.67 7.25-6.86 6.62-17.62-.02-.53-.13-2.57-.6-4.91 8.66-2 21.4-6.87 28.54-18.69 7.07-11.69 7.86-13.32 10.4-19.12.88-2 1.97-4.49 3.73-8.28 3.1-6.67 6.21-10.41 11.12-13.34 5.66-3.39 14.16-6 28.4-8.75l7.12-1.37-2.55-6.79Z" class="cls-2"/><path id="path18" d="M677.09 330.52s-36.25-29.36-31.14-98.3l34.39 32.64" class="cls-2"/><circle id="circle20" cx="807.82" cy="437.88" r="28.21" class="cls-11"/><circle id="circle22" cx="808.33" cy="436.99" r="22.47" class="cls-1"/><circle id="circle24" cx="812.67" cy="430.61" r="15.06" class="cls-2"/><path id="path26" d="M639.82 453.84s53.11 31.15 83.23 8.17l27.57-32.17 1.53 10.72 44.43-22.03s12.77-1.46 13.28 10.79c0 0 6.13-3.57 5.62-12.26 0 0 4.09 1.02 4.09 10.21 0 0 5.11-4.6 4.6-12.77 0 0-.26-8.43-3.83-9.96 0 0 22.92-1.02 32.65-17.11s7.18-12.51 13.82-26.81 14.81-19.91 43.91-25.53c0 0-4.6-12.26-26.55-13.79 0 0-6.64-15.83-37.28-15.83l-42.38 3.57s16.85 10.72 28.09 10.72c0 0-13.28 5.11-16.85 9.7 0 0-55.66-40.34-66.38-112.85 0 0-18.38 5.62-16.85 49.53 0 0-11.49-12-17.11-27.32 0 0-3.83 13.53-3.83 21.19 0 0-13.28-13.28-16.34-38.81 0 0-18.38 18.38-5.62 54.13 0 0-14.55-4.34-26.3-11.49 0 0 7.4 25.28 18.13 32.43 0 0-11.23-2.04-19.91-5.62 0 0 5.62 30.64 32.68 44.43l-11.23 1.02s15.83 17.36 36.77 20.94l-11.23 5.11s16.34 8.17 30.13 8.17l-13.28 6.64s12.77 3.06 20.43 2.55c0 0-22.47 20.94-43.4 31.66-20.94 10.72-62.55 42.64-62.55 42.64z" class="cls-11"/><path id="path28" d="M760.08 405.58s7.15-5.11 30.13-4.09 40.34-5.11 49.02-21.96c0 0 2.04 5.11-2.55 11.74 0 0 20.43-14.81 19.91-43.4 0 0 6.64-7.66 16.85-11.23h-8.68l5.62-5.11s-7.66 2.04-14.3-2.04c-6.64-4.09-22.98-4.09-29.62 5.62 0 0 4.6-1.53 9.19-2.55 0 0-5.11 3.57-6.64 8.17 0 0 6.13-5.11 11.23-5.62 0 0-5.62 5.62-5.62 12.77v8.17s-2.04 9.19-10.72 14.3c0 0 9.7-14.3 1.02-21.45 0 0 1.53 8.68-3.06 14.81 0 0-.51-19.44-25.28-31.16-24.77-11.73-78.38-56.67-86.04-89.35l-3.32 11.33s20.68 45.35 38.56 57.09c0 0-36.26-21.96-49.53-54.13 0 0-2.04 15.83 7.15 28.6s52.6 37.28 66.89 45.96c14.3 8.68 34.72 27.57 34.72 27.57s-38.81-6.13-46.98 22.47c0 0 9.7-11.54 20.94-13.43 0 0-15.83 10.87-21.45 26.7 0 0 7.15-8.68 23.49-12.77 0 0-16.34 12.77-20.94 22.98z" class="cls-13"/><path id="path30" d="M746.3 322.76c-35.26-9.52-58.48-30.8-58.48-30.8 8.4 25.21 46.28 34.43 62.27 37.23a115 115 0 0 1-3.79-6.44z" class="cls-13"/><path id="path32" d="M752.46 332.79c-12.52-1.74-41.26-6.26-56.4-12.96 0 0 17.72 21.29 61.03 19.2-1.69-2.1-3.24-4.22-4.63-6.24" class="cls-13"/><path id="path34" d="M759.76 342.2c-9.26.83-31.39 2.31-49.57-.44 0 0 19.11 12.99 54.33 5.34a73 73 0 0 1-4.76-4.9" class="cls-13"/><path id="path36" d="M768.5 350.48c-15.78 6.59-38.04 6.59-38.04 6.59 20.75 8.39 37.69-1.17 41.89-3.9-1.32-.82-2.61-1.72-3.85-2.69" class="cls-13"/><path id="path38" d="m861.25 324.33.5-2.78c-1.52.47-2.61 1.74-2.61 3.23 0 1.9 1.75 3.44 3.92 3.44s3.92-1.54 3.92-3.44c0-.57-.16-1.11-.44-1.58l-1.67 1.58c-1.57 2.14-4.09 2.33-3.62-.46z" class="cls-2"/><path id="path40" d="M875.99 341.24s12.77-7.15 27.06-8.17c0 0-11.23-1.53-21.96 2.04l-5.11 6.13z" class="cls-12"/><path id="path42" d="M876.5 330.52s14.3-2.04 24-.51c0 0-6.1-3.86-17.86-4.74 0 0-2.06 3.72-6.14 5.25" class="cls-12"/><path id="path44" d="m664.08 450.52 77.62-55.66-10.47 13.02 8.82-2.3-62.96 44.52a11.8 11.8 0 0 1-13 .41z" class="cls-13"/><path id="path46" d="m679.91 457.16 60.26-45.45-39.57 40.86a18.83 18.83 0 0 1-17.78 5.25l-2.9-.67z" class="cls-13"/><path id="path48" d="m703.86 460.22 38.86-41.36-17.9 27.76a29.3 29.3 0 0 1-16.21 12.18z" class="cls-13"/><path id="path50" d="M776.16 408.39s-12.26-3.06-15.83 4.6c0 0-2.55 8.68 1.53 14.81l32.68-14.81s8.68 1.02 16.85 7.66c0 0 0-8.68-7.15-11.23 0 0 11.17-.26 16.57 7.28 0 0-1.74-16.98-21.92-11.11l-27.33 11.49s-1.28-4.85 4.6-8.68z" class="cls-12"/><path id="path52" d="M831.57 314.18s7.15 2.55 16.85 2.55c8.25 0 17.24 2.59 23.52 5.56 2.24 1.06 4.69 1.59 7.17 1.59h.39s-8.1-11.23-20.86-12.77-19.91-.51-25.02-1.02l10.72 3.06-12.77 1.02z" class="cls-13"/><path id="path54" d="M845.35 363.2c-2.04 6.13-14.81 13.28-14.81 13.28 5.62-8.68 4.09-20.43 4.09-20.43s-2.04 9.19-10.72 14.3c0 0 .19-.28.49-.77-9.25 7.91-20.66 12.26-20.66 12.26l7.15-10.72c-16.85 7.15-50.81 34.47-50.81 34.47s7.15-5.11 30.13-4.09 40.34-5.11 49.02-21.96c0 0 2.04 5.11-2.55 11.74 0 0 4.77-3.46 9.65-10.27 1.73-9.12-.97-17.82-.97-17.82z" class="cls-2"/><path id="path56" d="M766.62 319.83c29.97 22.69 44.78 21.16 55.25 43.88 0 0-.51-19.44-25.28-31.16-24.77-11.73-78.38-56.67-86.04-89.35l-3.32 11.33s29.43 42.61 59.39 65.3" class="cls-2"/><g id="g62"><path id="path58" d="M838.53 380.83c-18.14 14.18-38.5 18.98-51.79 20.57 1.12.02 2.26.05 3.46.11 22.38.99 39.43-4.8 48.33-20.67z" class="cls-1"/><path id="path60" d="M772.35 402.08h.01-.02z" class="cls-1"/></g><path id="path64" d="M790.69 456.27s5.9-14.6 41.39-32.01" style="stroke-miterlimit:10;stroke-width:4.09px;fill:none;stroke:#031532"/><path id="path66" d="M785.66 428.68c2.21 2.85 5.81 2.82 9.06 2.41 3.63-.46 6.99-.97 10.63-.35 4.34.74 7.93 3.3 9.67 8.63 4.08 12.52-4.54 14.27-7.95 21.88" style="stroke-miterlimit:10;fill:none;stroke:#031532;stroke-width:3.43px"/><path id="path68" d="M810.36 423.24s14.31 3.59 18.14 27.28" style="stroke-miterlimit:10;fill:none;stroke:#031532;stroke-width:3.71px"/><path id="path70" d="M870.37 331.54s-7.66 2.04-14.3-2.04c-5.42-3.34-17.32-3.95-25.11 1.23q.285-.09.6-.21c10.47-3.83 30.38 4.85 30.38 4.85-4.09 3.57-5.36 12.51-5.36 12.51s6.64-7.66 16.85-11.23h-8.68z" class="cls-2"/><path id="path72" d="M858.63 311.12c-4.81-.58-8.82-.79-12.22-.86 6.07 2.77 16.28 6.71 28.01 8.3-3.63-3.13-9.06-6.63-15.78-7.44z" class="cls-2"/><path id="path74" d="M881.2 327.22c4.2.48 12.55 1.51 19.3 2.79 0 0-6.1-3.86-17.86-4.74 0 0-.49.87-1.45 1.95z" class="cls-1"/><path id="polygon76" d="m685.76 443.97 54.28-38.39-8.81 2.3-51.32 36.09z" class="cls-2"/><path id="polygon78" d="m740.16 411.71-33.95 30.39h4.53z" class="cls-2"/><path id="polygon80" d="m742.72 418.86-16.66 20.68 3.18.22z" class="cls-2"/><path id="path82" d="M732.67 302.24c-11.75-9.37-28.34-25.16-36.42-44.74 0 0 5.7 32.04 36.42 44.74" class="cls-2"/><path id="path84" d="M746.94 323.91c-.22-.4-.44-.78-.64-1.15-35.26-9.52-58.48-30.8-58.48-30.8s18.93 27.44 59.12 31.94z" class="cls-2"/><path id="path86" d="m761.86 427.8 32.68-14.81s8.68 1.02 16.85 7.66c-5.62-10.21-15.51-10.04-15.51-10.04l-35.36 14.23c-.02.4.53 1.73 1.34 2.96" class="cls-1"/><path id="path88" d="M753.39 334.12c-.32-.45-.63-.89-.93-1.33-12.52-1.74-41.26-6.26-56.4-12.96 0 0 29.99 16.35 57.33 14.29" class="cls-2"/><path id="path90" d="M761.73 344.33c-.67-.7-1.33-1.41-1.97-2.13-9.26.83-31.39 2.31-49.57-.44 0 0 27.22 6.14 51.54 2.57" class="cls-2"/><path id="path92" d="M769.21 351.02c-.24-.18-.48-.35-.71-.54-15.78 6.59-38.04 6.59-38.04 6.59s24.09 3.35 38.75-6.06z" class="cls-2"/><path id="path94" d="m752.16 440.56 44.43-22.03s12.26-1.97 13.28 10.79c0 0-4.85-8.94-13.02-7.4l-23.87 17.49" class="cls-2"/></g></g></svg>