<svg xmlns="http://www.w3.org/2000/svg" id="Layer_1" width="491.54" height="493.8" data-name="Layer 1" version="1.1"><defs id="defs178"><clipPath id="clippath"><circle id="circle175" cx="299.25" cy="294.35" r="167.16" style="fill:none;stroke-width:0"/></clipPath><style id="style173">.cls-1,.cls-2{stroke:#00328c;stroke-linecap:round;stroke-linejoin:round;stroke-width:20.61px}.cls-1{fill:#fff}.cls-2{fill:none}.cls-6{stroke-width:0;fill:#fc0000}</style></defs><g id="g226" transform="translate(-54.23 -53.1)"><g id="g222"><circle id="circle182" cx="299.25" cy="294.35" r="167.16" class="cls-1" style="fill:#fff;stroke:#00328c;stroke-width:20.61000061px;stroke-linecap:round;stroke-linejoin:round"/><path id="line184" d="M300 229.01V127.19" class="cls-1" style="fill:#fff;stroke:#00328c;stroke-width:20.61000061px;stroke-linecap:round;stroke-linejoin:round"/><path id="line186" d="M298.5 359.69v101.82" class="cls-1" style="fill:#fff;stroke:#00328c;stroke-width:20.61000061px;stroke-linecap:round;stroke-linejoin:round"/><path id="path188" d="M269.32 428.57c-1.04-.76-2.36-.82-3.74.54-2.66 2.63-4.5 6.89-5.05 10.56-1.39 9.19 10.54-.73 10.89-6.09.12-1.82-.75-4.02-2.1-5.01" class="cls-6" style="fill:#fc0000;stroke-width:0"/><path id="path190" d="M342.42 240.97c1.75-.38 2.65-3 2.82-6.06.29-5.22-1.54-11.72-4.89-10.63-4.09 1.32-1.85 10.61-.9 13.21.4 1.1 1.34 3.82 2.96 3.48z" class="cls-6" style="fill:#fc0000;stroke-width:0"/><path id="path192" d="M270.24 258.38c1.61.99 6.71 4.08 8.55 2.98.15-.09.26-.2.34-.32.97-1.51-2.87-5.37-3.83-6.08-1.62-1.2-6.6-3.05-8.27-.97-1.45 1.81 2 3.64 3.21 4.39" class="cls-6" style="fill:#fc0000;stroke-width:0"/><path id="path194" d="M231.43 350.67c2.45-.8 8.45-3.72 6.2-7.24-1.56-2.44-4.58-1.82-6.8-.76-1.02.49-1.9 1.19-2.91 1.69-1.2.59-2.56.76-3.6 1.68-1.36 1.21-1.8 2.92-.31 4.22 1.92 1.69 5.25 1.12 7.42.41" class="cls-6" style="fill:#fc0000;stroke-width:0"/><path id="path196" d="M265.96 377.72c1.3-1.02 5.19-4.55 3.15-6.34-1.91-1.68-5.89 2.06-7.37 3.13-1.11.8-4.4 3.21-2.18 4.59 2.04 1.27 4.74-.08 6.4-1.39z" class="cls-6" style="fill:#fc0000;stroke-width:0"/><path id="path198" d="M224.15 392.98c-1.08.83-2.12 1.88-2.84 3.04-.66 1.07-.63 1.61-.24 1.82.81.43 3.12-.52 4.03-1.13 1.3-.87 5.39-4.4 4.68-6.2-.7-1.76-4.82 1.86-5.63 2.48z" class="cls-6" style="fill:#fc0000;stroke-width:0"/><path id="path200" d="M403.01 241.05c-.17 8.74 11.71.27 11.93-4.96.09-2.01-.18-6.37-2.26-7.44-2.17-1.12-3.94 2.49-4.85 3.86-1.77 2.69-4.76 5.09-4.83 8.54z" class="cls-6" style="fill:#fc0000;stroke-width:0"/><path id="path202" d="M376.86 200.63c4.52.73 7.33-7.49 3.29-9.65-5.12-2.75-9.29 8.68-3.29 9.65" class="cls-6" style="fill:#fc0000;stroke-width:0"/><path id="path204" d="M319.39 389.21c-1.03 1.02-1.74 2.67-1.95 4.09-.54 3.56 4.08-.28 4.21-2.36.05-.7-.29-1.55-.81-1.94-.4-.3-.91-.32-1.45.21" class="cls-6" style="fill:#fc0000;stroke-width:0"/><path id="path206" d="M367.83 435.72c-1.66 1.16-4.42 6.46-2.7 8.33 3.12 3.41 5.37-5.63 5.14-7.88-.12-1.15-.8-1.59-2.44-.45" class="cls-6" style="fill:#fc0000;stroke-width:0"/><path id="path208" d="M361.11 413.65c-3.94 1.5-3.02 6.42 1.33 6.03.6-.05 1.11-.21 1.54-.44 3.12-1.67 1.54-7.27-2.86-5.59z" class="cls-6" style="fill:#fc0000;stroke-width:0"/><path id="line210" d="M132.09 294.35h334.32" class="cls-1" style="fill:#fff;stroke:#00328c;stroke-width:20.61000061px;stroke-linecap:round;stroke-linejoin:round"/><path id="path212" d="M132.09 294.35c0 39.86 13.98 76.45 37.27 105.18 23.29-28.73 37.28-65.31 37.28-105.18 0-39.87-13.98-76.45-37.28-105.18-23.29 28.73-37.27 65.31-37.27 105.18" class="cls-2" style="fill:none;stroke:#00328c;stroke-width:20.61000061px;stroke-linecap:round;stroke-linejoin:round"/><path id="path214" d="M391.86 294.35c0 39.87 13.98 76.45 37.28 105.18 23.29-28.73 37.27-65.31 37.27-105.18 0-39.87-13.98-76.45-37.27-105.18-23.29 28.73-37.28 65.31-37.28 105.18" class="cls-2" style="fill:none;stroke:#00328c;stroke-width:20.61000061px;stroke-linecap:round;stroke-linejoin:round"/><g id="g218" style="clip-path:url(#clippath)"><path id="path216" d="M552.23 316.7c-.51-3.14-3.16-4.44-5.75-5.05-9.21-2.15-18.59 2.78-28.04 2.71-8.12-.06-16.12-4.08-21.02-10.56-1.22-1.62-2.3-3.51-2.2-5.53.08-1.8 1.09-3.43 2.23-4.83 5.73-7.02 15.02-9.97 22.28-15.32 1.35-.99 2.29-2.5 2.33-4.17.08-3.54-3.43-4.42-5.92-3.47-1.85.71-3.29 2.17-4.73 3.54a73.37 73.37 0 0 1-13.55 10.23c-3.22 1.89-6.69 3.57-10.41 3.88-3.72.31-7.76-.99-9.9-4.05-2.28-3.26-2.02-7.76-4.67-10.92-.85-1.02-2.03-1.72-3.34-1.93-3.03-.48-3.88 1.73-5.4 3.15-2.47 2.31-6.26 2.24-9.64 2.04-3.67-.22-7.33-.45-11-.67-1.95-.12-3.97-.25-5.73-1.11-2.09-1.01-3.64-2.95-5.78-3.84-6.02-2.49-7.34 2.08-10.86 5.49-4.96 4.8-6.2 3.59-13.22 5.13-2.62.58-10.46 4.52-12.57.79-3.5-6.19 2.38-10.37 7.35-12.92 5.84-2.99 12.55-4.77 17.64-9.04 4.18-3.51 8.94-7.36 11.2-12.52.91-2.07 1.06-4-1.27-4.97-3.86-1.6-5.79.86-7.8 3.61a82.347 82.347 0 0 1-4.3 5.38c-2.92 3.34-6.15 6.4-9.67 9.11-3.8 2.92-7.94 5.38-12.28 7.39-3.82 1.78-15.99 8.88-15.16.02.56-6.01 3.81-11.96 5.97-17.5 1.07-2.75 2.13-5.52 2.86-8.38.63-2.5.3-5.16.76-7.71.5-2.74 1.37-5.4 2.46-7.96 3.18-7.48 8.33-13.84 11.98-21.07.82-1.63 1.57-3.3 2.18-5.02.45-1.26 1-2.53 1.34-3.83.67-2.55-2.55-3.65-4.49-2.6-1.99 1.08-3.12 3.62-3.89 5.64-1.24 3.27-1.94 7-3.71 10.03-1.83 3.13-4.86 5.37-7.04 8.24-2.15 2.83-3.86 5.98-5.37 9.2-3.21 6.83-5.48 14.05-7.92 21.17-1.27 3.7-2.26 7.48-4.06 10.97-1.26 2.44-3.91 6.82-7.31 5.05-3.36-1.74-2.12-9.71-1.8-12.74.47-4.46 1.61-8.83 2.82-13.14 2.3-8.18 5.52-16.85 4.5-25.5-.25-2.14-.89-4.07-1.59-6.1-1.24-3.64-5.27.54-6.1 2.18-1.23 2.42-1.65 5.09-1.83 7.76-.55 8.27-1.39 16.82-4.12 24.71-1.32 3.83-3.35 8.5-7.28 10.31-7.66 3.52-15.38-6.58-19.11-11.78-3.29-4.58-6.08-9.51-8.58-14.56-2.47-4.98-4.93-10.01-6.61-15.33-1.08-3.4-1.82-6.69-3.4-9.91-.84-1.71-4.95-10.67-7.79-9.81-2.7.82.3 10.16.67 11.58 2.91 11.44 33.32 54.95 16.01 63.47-10.5 5.16-14.27-7.91-17.91-14.73-4.9-9.19-10.5-17.7-18.1-24.88-1.18-1.12-3.81-1.83-4.47.21-.45 1.38.81 3.35 1.46 4.47 2.49 4.33 6.23 7.97 8.45 12.44 2.25 4.52 3.06 9.7 4.4 14.54 1.86 6.75 5.5 10.8 8.61 16.78 3.4 6.54-11.4 2.63-13.65 2.03-4.79-1.28-9.67-2.79-14.24-4.76-8-3.44-16.09-7.33-24.94-7.78-2.49-.13-8.28-.49-9.48 2.53-1.03 2.59 1.65 5.3 3.97 5.98 5.34 1.56 11.13.3 16.57 1.28 6.25 1.12 12.92 2.13 18.78 4.79 7.43 3.37 18.17 13.28 8.89 20.68-5.46 4.36-13.79 7.21-20.23 9.83-5.77 2.35-10.65 1.18-16.5.13-8.53-1.53-16.34-2.31-23.93 2.39-1.04.64-2.07 1.5-2.36 2.68-.7 2.8 2.39 2.75 4.15 2.63 5.47-.38 10.41-3.24 15.91-3.51 10.21-.49 20.66 2.51 30.96 3.55 3.71.37 11.69-1.35 14.61 1.42 2.91 2.76.08 5.19-2.91 6.49-7.84 3.42-16.97 6.26-25.61 5.65-2.65-.18-6.76.05-8.89 1.94-6.47 5.74 3.7 7.46 9.93 5.8 4.04-1.07 9.99-4.68 14.22-6.16 3.25-1.14 15.12-4.26 16.47-.15 1.6 4.9-7.73 12.52-10.96 14.34-15.95 8.98-32.76 16.28-49.63 23.34-8.35 3.49-16.64 7.21-25.07 10.49-3.19 1.24-16.04 4.72-13.63 10.24 3.38 7.72 17.56-3.16 21.28-5.73 9.52-6.59 20.1-11.47 30.74-15.94 9.99-4.2 19.84-8.7 29.68-13.21 8.01-3.67 15.95-8.3 24.2-11.35 2.66-.98 6.78 1.03 3.78 3.83-3.79 3.54-8.17 6.49-12.47 9.38-2.48 1.67-5.13 3.79-6.35 6.61-.89 2.06-1.47 6.11 1.12 7.16 3.57 1.44 8.32-4.49 10.23-6.63 5.38-6.01 9.19-.35 8.91 3.98-.91 14.19-30.53 31.13-29.27 45.28 2.79 11.33 14.27-7.42 16.42-10.52 3.88-5.58 7.62-11.33 12.03-16.51 5.18-6.08 10.73-10.28 18.33-12.46 3.24-.93 8.04-.86 10.55 2.05 4.05 4.69-.65 9.4-1.79 14.12-.8 3.29-1.62 6.65-1.77 10.04-.07 1.59-.25 3.79.53 5.26 3.46 6.53 5.56-5.36 6.3-7.61.47-1.41.81-3.21 1.89-4.29 3.84-3.84 5.79 6.2 6.23 8.22 1.52 7.04.16 14.36-.54 21.42-.44 4.45-1.38 10.11.55 14.35 1.56 3.44 7.24 7.02 10.83 4.52 4.53-3.17 1.98-11.1.57-15.25-2.28-6.75-9.42-24.18-3.76-30.24 2.6 1.37 1.85 4.14 3.05 6.51 2.15 4.25 9.55 2.85 12.01 6.93 1.3 2.16 2.44 4.76 2.02 7.46-.47 2.95-3.13 5.17-2.74 8.28.18 1.39 1.02 2.63 2.45 2.91 3.23.63 4.38-2.24 5.36-4.78.26-.68.51-1.34.79-1.89 1.85-3.75 6.12-6.41 10.37-6.03 4.38.39 7 4.03 10.39 6.34 3.17 2.16 4.95-1.17 6.79-3.25 1.24-1.39 2.8-2.28 4.52-2.76 4.21-1.18 9.41.03 13.3 2.05 1.1.57 2.34.84 3.56.68 2.64-.37 3.1-2.28 3.52-4.18.15-.67 1.03-.83 1.4-.25 1.16 1.82 2.3 3.68 3.41 5.63 1.18 2.07 3.59 5.58 6.33 5.67 2.94.09 4.08-2.25 4-4.59-.03-.95-.26-1.9-.66-2.69-1.21-2.43-3.33-4.52-5.27-6.58-.51-.54-.02-1.44.71-1.28 2.64.58 5.23 1.53 7.05 2.15 5.81 2 18.09 16.56 20.59 3.01.95-5.18-2.43-9.4-5.91-12.78-2.6-2.53-5.39-4.84-8.32-6.97-.72-.92-1.19-1.93-.74-3.22 1.7-4.85 8.48-1.8 11.58-.44 3.17 1.38 7.27 4.57 10.99 5.15 1.09.17 1.8-1.17 1.08-2-3.14-3.61-10.18-6.21-13.25-9.61-2.42-2.69-3.89-8.18 1.67-8.59h.07c3.99-.29 5.19-5.57 1.72-7.57-2.56-1.47-5.91-2.45-6.37-5.7-.11-.75 0-1.51.24-2.23.1-.02.19-.05.29-.06 2.21-.22 4.24 1.27 6.45 1.44 3.38.26 6.23-2.62 7.73-5.66 1.51-3.04 2.23-6.48 4.18-9.26 4.64-6.62 15.19-6.93 21.61-2.03 4.4 3.36 7.11 8.41 10.72 12.6 2.86 3.31 7.42 6.96 12.09 6.68 3.81-.22 7.81-4.09 6.95-8.18-.67-3.15-3.49-5.44-6.48-6.61-3-1.17-6.25-1.48-9.37-2.25-10.99-2.7-20.9-12.98-18.69-24.46.28-1.46.82-2.89 1.68-4.1 3.61-5.07 9.34-3.88 14.28-2.6l23.7 6.15c4.56 1.18 9.51 2.35 13.78 0 2.61-1.44 4.33-4.2 3.85-7.14z" class="cls-6" style="fill:#fc0000;stroke-width:0"/></g><circle id="circle220" cx="299.25" cy="294.35" r="167.16" class="cls-2" style="fill:none;stroke:#00328c;stroke-width:20.61000061px;stroke-linecap:round;stroke-linejoin:round"/></g><path id="path224" d="m403.42 137.04-9.73-20.55-22.55 2.91 16.53-15.61-9.73-20.55 19.95 10.9 16.53-15.61-4.2 22.34 19.95 10.9-22.55 2.91-4.2 22.34zm80.71 51.74 21.5 7.41-13.04-18.63 13.69-18.15-21.74 6.64-13.04-18.63-.4 22.73-21.74 6.64 21.5 7.41-.4 22.73 13.69-18.15zm28.56 99.31 15.79 16.36-3.15-22.52 20.44-9.96-22.39-3.96-3.15-22.52-10.68 20.07-22.39-3.96 15.79 16.36-10.68 20.07 20.44-9.96zm-14.95 100.49 6.08 21.91 7.96-21.3 22.71.99-17.8-14.15 7.96-21.3-18.96 12.55-17.8-14.15 6.08 21.91-18.96 12.55 22.71.99zm-60.95 85.53-4.66 22.25 16.85-15.27 19.73 11.31-9.31-20.74 16.85-15.27-22.6 2.45-9.31-20.74-4.66 22.25-22.6 2.45 19.73 11.31zm-95.84 41.25-14.42 17.58 22-5.74 12.26 19.15 1.34-22.7 22-5.74-21.17-8.29 1.34-22.7-14.42 17.58-21.17-8.29 12.26 19.15zM239.4 510.2l-21.07 8.54 22.07 5.48 1.61 22.68 12.03-19.29 22.07 5.48-14.63-17.4 12.03-19.29-21.07 8.54-14.63-17.4 1.61 22.68zm-91.09-49.66-22.63-2.19 17.02 15.07-9.07 20.85 19.59-11.53 17.02 15.07-4.91-22.2 19.59-11.53-22.63-2.19-4.91-22.2zm-53.17-90.98-19.1-12.33 8.21 21.2-17.63 14.36 22.7-1.26 8.21 21.2 5.82-21.98 22.7-1.26-19.1-12.33 5.82-21.98-17.63 14.36zM90.36 267.5l-10.99-19.9-2.81 22.56-22.33 4.3 20.59 9.64-2.81 22.56 15.53-16.6 20.59 9.64-10.99-19.9 15.53-16.6-22.33 4.3zm36.88-96.18-.84-22.72-12.67 18.88-21.87-6.22 14.04 17.89-12.67 18.88 21.35-7.82 14.04 17.89-.84-22.72 21.35-7.82-21.87-6.22zm81.87-67.42 9.51-20.65-19.83 11.12-16.7-15.43 4.44 22.3-19.83 11.12 22.58 2.66 4.44 22.3 9.51-20.65 22.58 2.66zm119.02-29.19-22.72.01h-.01l-7.04-21.62-7.01 21.63h-22.74v.01l18.4 13.35-7.01 21.63 18.39-13.37 18.4 13.35-7.04-21.62 18.39-13.37z" style="fill:#00328c;stroke-width:0"/></g></svg>