<svg xmlns="http://www.w3.org/2000/svg" xmlns:xlink="http://www.w3.org/1999/xlink" id="Layer_1" width="325.932" height="318.94" data-name="Layer 1" viewBox="0 0 325.932 318.94"><defs id="defs8167"><linearGradient id="linear-gradient" x1="262.58" x2="262.58" y1="471.58" y2="413.99" gradientUnits="userSpaceOnUse"><stop id="stop8143" offset=".05" stop-color="#7500e3"/><stop id="stop8145" offset=".35" stop-color="#7500e3" stop-opacity=".99"/><stop id="stop8147" offset=".48" stop-color="#7500e3" stop-opacity=".96"/><stop id="stop8149" offset=".58" stop-color="#7500e3" stop-opacity=".9"/><stop id="stop8151" offset=".67" stop-color="#7500e3" stop-opacity=".82"/><stop id="stop8153" offset=".74" stop-color="#7500e3" stop-opacity=".72"/><stop id="stop8155" offset=".81" stop-color="#7500e3" stop-opacity=".59"/><stop id="stop8157" offset=".87" stop-color="#7500e3" stop-opacity=".44"/><stop id="stop8159" offset=".93" stop-color="#7500e3" stop-opacity=".26"/><stop id="stop8161" offset=".98" stop-color="#7500e3" stop-opacity=".07"/><stop id="stop8163" offset="1" stop-color="#7500e3" stop-opacity="0"/></linearGradient><linearGradient xlink:href="#linear-gradient" id="linear-gradient-2" x1="740.72" x2="740.72" y1="503.56" y2="426.38"/><style id="style8141">.cls-1,.cls-12,.cls-8{stroke:#000}.cls-1,.cls-16{stroke-miterlimit:10}.cls-1,.cls-22,.cls-8{fill:#ff8f0d}.cls-1,.cls-12{stroke-width:3px}.cls-12,.cls-8{stroke-linecap:round;stroke-linejoin:round}.cls-16{stroke-width:3.73px;stroke:#fff;fill:none}.cls-12,.cls-23{fill:#ab5000}.cls-8{stroke-width:4.58px}.cls-26{fill:#fff}.cls-28{fill:#fdfff9}</style></defs><g id="g8723" transform="translate(-577.144 -211.3)"><path id="path8545" d="M878.13 322.97c11-11.17 27.63-28.05 21.73-58.01-.04-.19-.08-.38-.13-.56-.37-1.3-4.15-12.77-22.82-15.7-13.16-2.07-28.66-10.25-38.58-20.35-7.37-7.51-17.79-11.99-27.85-11.99-5.76 0-11.28 1.4-16.41 4.15-4.01 2.16-7.72 5.13-11.05 8.86-5.29-2-14.09-4.59-24.92-4.93-.08-.09-.17-.17-.25-.25-9.58-9-21.04-10.89-28.97-10.89-4.34 0-7.3.59-7.63.65-1.94.4-3.62 1.61-4.62 3.33s-1.22 3.77-.61 5.66l.6 1.86c-8.31.86-15.06 2.91-19.43 4.56-3.34-3.73-7.04-6.7-11.05-8.86-5.12-2.76-10.64-4.15-16.4-4.15-10.07 0-20.48 4.48-27.85 11.99-9.92 10.1-25.42 18.28-38.58 20.35-18.67 2.94-22.45 14.41-22.82 15.7-.05.19-.1.37-.13.56-5.9 29.96 10.72 46.84 21.73 58.01 3.48 3.53 6.77 6.87 7.98 9.32 1.63 3.3 2.1 6.31 1.39 8.95-.45 1.71-1.29 2.79-1.51 3.05-1.91 1.72-2.59 4.24-1.97 6.75.63 2.54 2.76 4.38 5.3 4.99 2.89.69 5.7 1.04 8.35 1.04 4.22 0 7.74-.85 10.65-2.14-1.04 12.31-4.72 16.44-5.1 16.84a6.99 6.99 0 0 0-1.51 9.11 7 7 0 0 0 5.5 3.28c1.11 15.76 4.61 25.34 6.71 29.84-4.71 15.58-15.32 21.38-16.13 21.81-2.63 1.24-4.16 3.95-3.93 6.84.23 2.91 2.3 5.34 5.1 6.14 3.31.95 6.87 1.43 10.59 1.43s6.97-.45 9.69-1.01c1.08 2.42 2.25 4.3 3.33 6.05 1.02 1.65 1.99 3.21 2.88 5.23 10.65 24.12 31.34 42.82 56.86 51.44 1.35 3.31 4.26 5.81 7.82 6.6v.77a6.99 6.99 0 0 0 6.99 6.99h5.63c.48 0 .95-.05 1.41-.14 3.78 1.4 7.75 2.1 11.8 2.1s8.01-.71 11.8-2.1c.46.09.93.14 1.41.14h5.63a6.99 6.99 0 0 0 6.99-6.99v-.78c2.96-.66 5.49-2.53 7.03-5.06 1.36-.45 2.71-.93 4.02-1.43 22.59-8.59 40.84-24.88 51.36-45.89 1.09-2.18 2.17-3.96 3.21-5.67 1.78-2.94 3.61-5.94 5.24-10.47 2.28.28 5.02.5 7.96.5 4.82 0 9.28-.58 13.27-1.72 2.87-.82 4.96-3.36 5.11-6.34.15-2.97-1.54-5.69-4.3-6.81-.32-.15-3.65-1.72-7.39-5.27-4.53-4.29-7.79-9.6-9.73-15.81.95-1.89 2.17-4.65 3.35-8.31 2.14-6.61 3.53-14.01 4.16-22.09a6.987 6.987 0 0 0 4.02-12.39c-.38-.39-4.05-4.52-5.1-16.84 2.91 1.28 6.43 2.14 10.65 2.14 2.65 0 5.46-.35 8.35-1.04 2.54-.61 4.67-2.45 5.3-4.99.62-2.51-.06-5.03-1.97-6.75-.22-.27-1.05-1.35-1.51-3.05-.7-2.64-.24-5.65 1.39-8.95 1.21-2.45 4.5-5.79 7.98-9.32z" style="stroke-miterlimit:10;fill:#ff8f0d;stroke:#ff8f0d;stroke-width:4px"/><path id="path8547" d="M821.89 463.02c3.88-7.75 7.18-10.25 9.78-20.95 0 0 12.84 3.26 24.22 0 0 0-16.64-6.99-21.89-28.42 0 0 8.41-12.25 8.41-39.73l6.2 3.26s-10.2-7.45-7.48-39.36c0 0 4.62 16.07 24.19 11.41 0 0-7.64-7.45-1.43-20.03 6.2-12.58 36.27-26.55 29.11-62.89 0 0-2.39-8.39-17.18-10.71-14.8-2.33-31.5-11.18-42.48-22.36s-32.93-16.77-48.21 4.66c0 0-12.89-6.92-31.02-6.49l-1.05-2.13c-12.89-12.11-30.39-8.48-30.39-8.48l3.43 10.61c-18.14-.43-31.02 6.49-31.02 6.49-15.27-21.43-37.23-15.84-48.21-4.66s-27.68 20.03-42.48 22.36-17.18 10.71-17.18 10.71c-7.16 36.34 22.91 50.31 29.11 62.89s-1.43 20.03-1.43 20.03c19.57 4.66 24.19-11.41 24.19-11.41 2.71 31.91-7.48 39.36-7.48 39.36l6.2-3.26c0 27.49 7.54 39.27 7.54 39.27-5.25 21.43-20.5 28.88-20.5 28.88 11.39 3.26 22.83-1.4 22.83-1.4 2.02 8.33 5.25 10.47 8.13 16.99 10.04 22.73 29.62 40.14 53.68 47.96l4.15 1.35c19.78 6.43 41.24 5.91 60.66-1.47v0c20.73-7.88 37.82-22.98 47.6-42.49z" style="stroke:#000;stroke-width:2.8px;stroke-linecap:round;stroke-linejoin:round"/><g id="g8563"><ellipse id="ellipse8549" cx="687.33" cy="337.55" class="cls-16" rx="17" ry="18.05"/><g id="g8555"><path id="path8551" d="M687.33 350.95c-6.81 0-12.34-6.01-12.34-13.39s5.54-13.39 12.34-13.39 12.34 6.01 12.34 13.39-5.54 13.39-12.34 13.39"/><path id="path8553" d="M687.33 352.34c-7.58 0-13.74-6.64-13.74-14.79s6.16-14.79 13.74-14.79 13.74 6.64 13.74 14.79-6.16 14.79-13.74 14.79m0-26.78c-6.04 0-10.95 5.38-10.95 12s4.91 12 10.95 12 10.95-5.38 10.95-12-4.91-12-10.95-12"/></g><ellipse id="ellipse8557" cx="687.33" cy="337.2" rx="9.55" ry="10.02"/><path id="path8559" d="m660.24 338.18 24.27-9.76c9.25-3.72 19.69 1.36 22.49 10.93.04.15.09.31.13.46h11.18l-2.17-26.32-45.82-5.92-14.27 24.56"/><circle id="circle8561" cx="687.33" cy="336.01" r="4.19" class="cls-22"/></g><g id="g8579"><ellipse id="ellipse8565" cx="793.64" cy="337.55" class="cls-16" rx="17" ry="18.05"/><g id="g8571"><path id="path8567" d="M793.64 350.95c6.81 0 12.34-6.01 12.34-13.39 0-7.39-5.54-13.39-12.34-13.39-6.81 0-12.34 6.01-12.34 13.39 0 7.39 5.54 13.39 12.34 13.39"/><path id="path8569" d="M793.64 352.34c-7.58 0-13.74-6.64-13.74-14.79s6.16-14.79 13.74-14.79 13.74 6.64 13.74 14.79-6.16 14.79-13.74 14.79m0-26.78c-6.04 0-10.95 5.38-10.95 12s4.91 12 10.95 12 10.95-5.38 10.95-12-4.91-12-10.95-12"/></g><ellipse id="ellipse8573" cx="793.64" cy="337.2" rx="9.55" ry="10.02"/><path id="path8575" d="m820.73 338.18-24.27-9.76c-9.25-3.72-19.69 1.36-22.49 10.93-.04.15-.09.31-.13.46h-11.18l2.17-26.32 45.82-5.92 14.27 24.56"/><circle id="circle8577" cx="793.64" cy="336.01" r="4.19" class="cls-22"/></g><path id="path8581" d="M657.45 416.91s3.26-33.08 30.28-54.97c0 0-20.96 6.52-27.49-23.76l-11.65 10.25s-2.1 16.54-5.36 20.73l5.59-3.73s-6.06 15.37-1.86 29.81c0 0-2.33-14.91 14.44-27.02 0 0-9.32 12.58-8.39 27.49s4.43 21.2 4.43 21.2z" class="cls-1"/><path id="path8583" d="M648.49 338.18s2.22-9.32 8.49-18.63l-8.92 6.43s4.58-26 37.85-29.73c0 0-17.36-4.66-29.41 4.66 0 0 .48-8.85 23.62-21.43 0 0-9.64-1.86-17.84 2.33 0 0 3.86-10.71 22.18-18.63h-15.14s25.74-23.29 56.12-22.36c0 0 3.46 0 8.25 3.24l11.55-10.66-3.08 16.27c7.71-8.85 14.46-8.85 14.46-8.85 30.37-.93 56.12 22.36 56.12 22.36H797.6c18.32 7.92 22.18 18.63 22.18 18.63-8.2-4.19-17.84-2.33-17.84-2.33 23.14 12.58 23.62 21.43 23.62 21.43-12.05-9.32-29.41-4.66-29.41-4.66 33.27 3.73 37.85 29.73 37.85 29.73l-8.92-6.43c6.27 9.32 8.49 18.63 8.49 18.63l.43 4.43s-17.84-17.7-45.32-20.96l9.64-4.66s-27.48-8.39-31.34 22.36c0 0-8.94-1.51-13.39-10.07s-1.08-20.67 12.42-32.32l-1.93 8.85s7.23-16.77 34.23-16.77c0 0-10.12-4.19-27.48-1.86s-23.62 25.62-23.62 33.54c0 0-1.93-14.44 1.45-23.29 0 0-9.64 6.06-6.75 28.42 0 0-1.93-19.57-12.54-27.49 0 0 4.82 14.44.96 22.83 0 0-1.45-19.57-10.61-25.62-9.16-6.06-28.93-9.32-38.57-6.52 0 0 23.14.47 33.75 17.24l-1.45-9.32s9.81 6.77 11.21 22.61c.66 7.46-2.89 14.73-9.43 18.74a38 38 0 0 1-4.68 2.44s-2.51-30.52-35-26.21l13.31 6.64s-15.91-.93-40.98 20.03l.59-3.03z" class="cls-1"/><path id="path8585" d="M628.33 339.81s12.11-13.72 19.1-48.09 18.17-51.14 33.08-37.16l7.22-4.93s.43-7.6-7.52-12.89c-3.8-2.53-8.38-3.62-12.94-3.29l-8.19.61 6.52 4.66s-26.55 14.91-43.79 23.29c-17.24 8.39-30.75 6.99-17.24 35.4 0 0-.47-15.37 3.73-23.29 0 0 .93 15.84 3.73 20.5 0 0 .93-11.65 6.99-19.1 0 0-2.8 18.63 3.73 32.14 0 0-.47-25.16 14.91-40.06 0 0-1.4 8.85-3.26 20.96s-6.06 51.24-6.06 51.24z" class="cls-12"/><path id="path8587" d="M850.86 339.81s-12.11-13.72-19.1-48.09-18.17-51.14-33.08-37.16l-7.22-4.93s-.43-7.6 7.52-12.89c3.8-2.53 8.38-3.62 12.94-3.29l8.19.61-6.52 4.66s26.55 14.91 43.79 23.29c17.24 8.39 30.75 6.99 17.24 35.4 0 0 .47-15.37-3.73-23.29 0 0-.93 15.84-3.73 20.5 0 0-.93-11.65-6.99-19.1 0 0 2.8 18.63-3.73 32.14 0 0 .47-25.16-14.91-40.06 0 0 1.4 8.85 3.26 20.96s6.06 51.24 6.06 51.24z" class="cls-12"/><path id="path8589" d="M739.13 455c-10.81-5-22.83-27.14-22.83-27.14.48 13.51 12.01 25.16 12.01 25.16-10.57-.93-18.26-14.91-18.26-14.91l5.29 13.51c-23.07-19.1-4.86-39.13-4.86-39.13h-5.71l16.82-13.04c5.77 4.66 16.34 6.52 16.34 6.52h2.64s10.57-1.86 16.34-6.52l16.82 13.04h-5.71s18.2 20.03-4.86 39.13l5.29-13.51s-7.69 13.98-18.26 14.91c0 0 11.53-11.65 12.01-25.16 0 0-12.01 22.15-22.83 27.14" style="stroke:#000;stroke-miterlimit:10;fill:#ab5000;stroke-width:2px"/><path id="path8591" d="M739.13 455c-10.81-5-22.83-27.14-22.83-27.14.48 13.51 12.01 25.16 12.01 25.16-10.57-.93-18.26-14.91-18.26-14.91l5.29 13.51c-23.07-19.1-4.86-39.13-4.86-39.13h-5.71l16.82-13.04c5.77 4.66 16.34 6.52 16.34 6.52h2.64s10.57-1.86 16.34-6.52l16.82 13.04h-5.71s18.2 20.03-4.86 39.13l5.29-13.51s-7.69 13.98-18.26 14.91c0 0 11.53-11.65 12.01-25.16 0 0-12.01 22.15-22.83 27.14" class="cls-1"/><path id="path8593" d="M823.52 416.91s-3.26-33.08-30.28-54.97c0 0 20.96 6.52 27.49-23.76l11.65 10.25s2.1 16.54 5.36 20.73l-5.59-3.73s6.06 15.37 1.86 29.81c0 0 2.33-14.91-14.44-27.02 0 0 9.32 12.58 8.39 27.49s-4.43 21.2-4.43 21.2z" class="cls-1"/><g id="g8599"><path id="path8595" d="M777.87 449.99s19.1-22.72 0-54.45v5.41s-9.32.13-17.24-6.86-12.11-12.11-17.7-14.44v-6.04s11.65-3.28 16.77-13.06l18.63-.93s31.91 10.28 37.15 55.68c0 0-1.75 15.13-10.6 25.37 0 0 4.68-10.71.01-23.76 0 0-2.81 20.96-9.79 28.42l.93-16.77s-8.39 19.1-18.17 21.43z" class="cls-1"/><path id="path8597" d="M703.1 449.99s-19.1-22.72 0-54.45v5.41s9.32.13 17.24-6.86 12.11-12.11 17.7-14.44v-6.04s-11.65-3.28-16.77-13.06l-18.63-.93s-31.91 10.28-37.15 55.68c0 0 1.75 15.13 10.6 25.37 0 0-4.68-10.71-.01-23.76 0 0 2.81 20.96 9.79 28.42l-.93-16.77s8.39 19.1 18.17 21.43z" class="cls-1"/></g><path id="path8601" d="M700.07 253.63s17.24 4.66 26.55 13.04l-1.4-5.59s12.58 4.19 14.44 13.98c0 0 4.66-10.71 12.11-14.44v8.54s13.04-14.6 34.01-15.99c0 0-17.87-4.66-27.8 0 0 0 1.25-4.19 5.91-6.99 0 0-15.37 2.33-23.76 17.7 0 0-5.59-13.51-22.83-19.1l8.39 8.85s-10.71-6.06-25.62 0" class="cls-28"/><path id="path8603" d="M740.86 369.86c5.6-2.4 14.01-10.81 14.01-10.81s-.4-1.2-2-1.2c0 0-3.6 1.2-5.6-.8s-1.6-5.2-1.6-5.2l.13-1.03a2.48 2.48 0 0 1 2.46-2.17c1.42 0 2.55 1.19 2.48 2.61l-.26 5h4.8s2.4-1.2 2.8-2.8-.8-7.21-10.81-9.21h-13.55c-10.01 2-11.21 7.61-10.81 9.21s2.8 2.8 2.8 2.8h4.8l-.26-5a2.485 2.485 0 0 1 2.48-2.61c1.25 0 2.31.93 2.46 2.17l.13 1.03s.4 3.2-1.6 5.2-5.6.8-5.6.8c-1.6 0-2 1.2-2 1.2s8.41 8.41 14.01 10.81h.74z" style="stroke:#000;stroke-miterlimit:10;fill:#7500e3;stroke-width:1.86px"/><path id="path8605" d="M744.42 399c3.08-.39 6.39-1.89 8.62-3.08 1.24-.66 1.3-2.41.11-3.15l-4.59-2.87a4.55 4.55 0 0 0-5.99 1.06l-2.13 2.74h-1.03l-2.13-2.74a4.53 4.53 0 0 0-5.99-1.06l-4.59 2.87c-1.19.74-1.12 2.49.11 3.15 2.23 1.19 5.53 2.7 8.62 3.08z" style="fill:#7500e3"/><path id="path8607" d="M811.81 438.71c-11.88 25.82-39.23 43.89-71.09 43.89s-59.21-18.07-71.09-43.89c-4.98-3.74-9.72-7.86-14.19-12.33 7.27 43.88 42.68 77.18 85.28 77.18s78.01-33.3 85.28-77.18c-4.47 4.47-9.22 8.59-14.19 12.33" style="fill:url(#linear-gradient-2)"/><path id="path8609" d="M705.43 364.27s-29.68 13.98-32.31 39.83c0 0 10.37-14.21 24.83-21.89 0 0-13.82 19.11-12.02 35.06 0 0 13.47-35.76 32.09-45.54 0 0-16.38-4.19-29.86 10.48" class="cls-26"/><path id="path8611" d="M775.54 364.27s29.68 13.98 32.31 39.83c0 0-10.37-14.21-24.83-21.89 0 0 13.82 19.11 12.02 35.06 0 0-13.47-35.76-32.09-45.54 0 0 16.38-4.19 29.86 10.48" class="cls-26"/><path id="path8613" d="m747.06 413.94 5.84 9.96 2.21-12.41 6.37 7.74-2.35-14.97-3.1-4.17c-1.68 1.19-3.65 2.18-5.62 2.98-3.29 2.5-8.74 4.74-17.21 3.29l-1.96-2.13c-2.65-.86-5.65-2.08-8.13-3.69l-7.85 7.45h5.86l-2.22 9.22 5.91-2 11.18 23.29 11.05-24.57z" class="cls-26"/><g id="g8619"><path id="path8615" d="M741.86 325.37c.02.16.03.31.05.47 0 0-.02-.17-.05-.47" class="cls-23"/><path id="path8617" d="M770.84 287.17c5.05-.68 9.49-.8 13.25-.64-10.32-6.93-32.28 1.47-32.28 1.47 7.25-11.98 30.89-22.03 30.89-22.03-20.1 0-42.77 20.63-42.77 20.63-20.01-20.36-44.36-10.4-44.36-10.4 22.28-1.89 31.97 12.83 31.97 12.83-16.09-9.55-46.38 0-46.38 0 9.64-2.8 29.41.47 38.57 6.52 9.16 6.06 10.61 25.62 10.61 25.62 3.86-8.39-.96-22.83-.96-22.83 9.64 7.2 12.11 24 12.48 27.02-2.7-21.97 6.8-27.95 6.8-27.95-3.37 8.85-1.45 23.29-1.45 23.29 0-7.92 6.27-31.21 23.62-33.54z" class="cls-23"/></g><path id="path8621" d="M685.9 296.26c-33.27 3.73-37.85 29.73-37.85 29.73s18.85-27.69 50.22-27.54c0 0-5.45-1.6-12.53-2.22.09.02.15.04.15.04z"/><path id="path8623" d="M685.9 296.26c-33.27 3.73-37.85 29.73-37.85 29.73s18.85-27.69 50.22-27.54c0 0-5.45-1.6-12.53-2.22.09.02.15.04.15.04z" class="cls-28"/><path id="path8625" d="m796.16 296.26-12.06 1.32s29.41-1.03 49.91 28.41c0 0-4.58-26-37.85-29.73" class="cls-28"/><path id="path8627" d="m701.76 304.64 1.89 10.87c-10.63-8.23-36.84-4.41-36.84-4.41l6.31 9.47c-16.21 6.91-22.52 14.2-24.94 19.21l-.28 1.44c25.07-20.96 40.98-20.03 40.98-20.03l-13.31-6.64c32.5-4.31 35 26.21 35 26.21 9.8-23.99-8.81-36.11-8.81-36.11z" class="cls-23"/><path id="path8629" d="m809.05 319.5 5.93-4.75c-18.1-8.53-28.02-5.92-28.02-5.92l2.5-4.2c-27.32 5.12-22.46 34.71-22.46 34.71 3.86-30.75 31.34-22.36 31.34-22.36l-9.64 4.66c27.48 3.26 45.32 20.96 45.32 20.96-4.66-11.88-24.96-23.11-24.96-23.11z" class="cls-23"/><g id="g8719"><g id="g8635"><path id="path8631" d="M739.9 525.26c-17.17 0-31.13-13.97-31.13-31.13S722.74 463 739.9 463s31.13 13.97 31.13 31.13-13.97 31.13-31.13 31.13" class="cls-22"/><path id="path8633" d="M739.9 466.99c14.99 0 27.13 12.15 27.13 27.13s-12.15 27.13-27.13 27.13-27.13-12.15-27.13-27.13 12.15-27.13 27.13-27.13m0-8c-19.37 0-35.13 15.76-35.13 35.13s15.76 35.13 35.13 35.13 35.13-15.76 35.13-35.13-15.76-35.13-35.13-35.13"/></g><path id="line8637" d="M712.77 494.13h54.27" class="cls-8"/><path id="line8639" d="M739.9 521.26v-54.27" class="cls-8"/><g id="g8657"><path id="rect8641" d="M729.7 484.25h5.63v5.63h-5.63z"/><path id="rect8643" d="M721.07 484.25h5.63v5.63h-5.63z"/><path id="rect8645" d="M712.44 484.25h5.63v5.63h-5.63z"/><path id="rect8647" d="M729.7 476.75h5.63v5.63h-5.63z"/><path id="rect8649" d="M721.07 476.75h5.63v5.63h-5.63z"/><path id="path8651" d="M716.46 476.75h1.6v5.63h-5.63v-1.6c0-2.22 1.8-4.02 4.02-4.02z"/><path id="rect8653" d="M729.7 469.24h5.63v5.63h-5.63z"/><path id="rect8655" d="M721.07 469.24h5.63v5.63h-5.63z"/></g><g id="g8675"><path id="rect8659" d="M761.74 484.25h5.63v5.63h-5.63z"/><path id="rect8661" d="M753.11 484.25h5.63v5.63h-5.63z"/><path id="rect8663" d="M744.48 484.25h5.63v5.63h-5.63z"/><path id="path8665" d="M761.74 476.75h1.6c2.22 0 4.02 1.8 4.02 4.02v1.6h-5.63v-5.63z"/><path id="rect8667" d="M753.11 476.75h5.63v5.63h-5.63z"/><path id="rect8669" d="M744.48 476.75h5.63v5.63h-5.63z"/><path id="rect8671" d="M753.11 469.24h5.63v5.63h-5.63z"/><path id="rect8673" d="M744.48 469.24h5.63v5.63h-5.63z"/></g><g id="g8693"><path id="rect8677" d="M729.7 513.67h5.63v5.63h-5.63z"/><path id="rect8679" d="M721.07 513.67h5.63v5.63h-5.63z"/><path id="rect8681" d="M729.7 506.17h5.63v5.63h-5.63z"/><path id="rect8683" d="M721.07 506.17h5.63v5.63h-5.63z"/><path id="path8685" d="M712.44 506.17h5.63v5.63h-1.6a4.02 4.02 0 0 1-4.02-4.02v-1.6z"/><path id="rect8687" d="M729.7 498.67h5.63v5.63h-5.63z"/><path id="rect8689" d="M721.07 498.67h5.63v5.63h-5.63z"/><path id="rect8691" d="M712.44 498.67h5.63v5.63h-5.63z"/></g><g id="g8711"><path id="rect8695" d="M753.11 513.67h5.63v5.63h-5.63z"/><path id="rect8697" d="M744.48 513.67h5.63v5.63h-5.63z"/><path id="path8699" d="M761.74 506.17h5.63v1.6c0 2.22-1.8 4.02-4.02 4.02h-1.6v-5.63z"/><path id="rect8701" d="M753.11 506.17h5.63v5.63h-5.63z"/><path id="rect8703" d="M744.48 506.17h5.63v5.63h-5.63z"/><path id="rect8705" d="M761.74 498.67h5.63v5.63h-5.63z"/><path id="rect8707" d="M753.11 498.67h5.63v5.63h-5.63z"/><path id="rect8709" d="M744.48 498.67h5.63v5.63h-5.63z"/></g><g id="g8717"><path id="path8713" d="M739.9 504.41c-.38 0-.77-.15-1.06-.44l-8.78-8.78c-.58-.59-.58-1.53 0-2.12l8.78-8.78a1.5 1.5 0 0 1 2.12 0l8.79 8.78a1.5 1.5 0 0 1 0 2.12l-8.79 8.78c-.29.29-.68.44-1.06.44" class="cls-26"/><path id="path8715" d="m739.9 485.34 8.78 8.78-8.78 8.78-8.78-8.78zm0-3c-.8 0-1.56.32-2.12.88L729 492c-.56.56-.88 1.33-.88 2.12s.32 1.56.88 2.12l8.78 8.78c.59.59 1.35.88 2.12.88s1.53-.29 2.12-.88l8.78-8.78a3 3 0 0 0 0-4.24l-8.78-8.78c-.56-.56-1.33-.88-2.12-.88"/></g></g><path id="path8721" d="M739.13 455c-10.81-5-22.83-27.14-22.83-27.14.48 13.51 12.01 25.16 12.01 25.16-10.57-.93-18.26-14.91-18.26-14.91l5.29 13.51c-23.07-19.1-4.86-39.13-4.86-39.13h-5.71l16.82-13.04c5.77 4.66 16.34 6.52 16.34 6.52h2.64s10.57-1.86 16.34-6.52l16.82 13.04h-5.71s18.2 20.03-4.86 39.13l5.29-13.51s-7.69 13.98-18.26 14.91c0 0 11.53-11.65 12.01-25.16 0 0-12.01 22.15-22.83 27.14" style="stroke:#000;stroke-miterlimit:10;fill:none;stroke-width:2px"/></g></svg>