<svg xmlns="http://www.w3.org/2000/svg" id="Layer_1" width="510.54" height="506.72" version="1.1"><defs id="defs4"><style id="style2">.cls-1{fill:#fbbe49}.cls-2{fill:#fff}.cls-4{fill:#74aadc}</style></defs><g id="g70" transform="translate(-44.73 -46.63)"><path id="path8" d="M493.51 300.76c36.74-19.83 61.76-58.69 61.76-103.28 0-61.2-47.12-111.59-106.98-116.82V46.64l-22.56 1.37c-32.84 1.99-62.83 14.5-86.5 34.42-5.1-17.01-20.88-29.46-39.53-29.46-18.65 0-34.2 12.24-39.42 29.05-23.59-19.68-53.39-32.04-86.01-34.02l-22.56-1.37v34.02C91.85 85.87 44.73 136.27 44.73 197.47c0 44.59 25.02 83.45 61.76 103.28-36.74 19.83-61.76 58.69-61.76 103.28 0 61.2 47.12 111.59 106.98 116.82v32.5l22.56-1.37c32.36-1.96 62.04-14.25 85.62-33.8 4.73 17.58 20.76 30.57 39.81 30.57s35.33-13.19 39.92-30.98c23.65 19.79 53.52 32.24 86.11 34.21l22.56 1.37v-32.5c59.86-5.22 106.98-55.62 106.98-116.82 0-44.59-25.02-83.45-61.76-103.28zM299.82 466.21c.06-.13.12-.25.18-.38.06.13.13.26.19.4-.13 0-.25-.02-.37-.02z" class="cls-2" style="fill:#fff"/><g id="g68"><g id="g62"><path id="path10" d="M161.99 262.49c-35.84 0-65.01-29.16-65.01-65.01 0-35.85 29.16-65.01 65.01-65.01 35.85 0 65.01 29.16 65.01 65.01 0 35.85-29.16 65.01-65.01 65.01zm0-114.52c-27.3 0-49.51 22.21-49.51 49.51 0 27.3 22.21 49.51 49.51 49.51 27.3 0 49.51-22.21 49.51-49.51 0-27.3-22.21-49.51-49.51-49.51z" class="cls-4" style="fill:#74aadc"/><path id="path12" d="M161.99 469.05c-35.84 0-65.01-29.16-65.01-65.01 0-35.85 29.16-65.01 65.01-65.01 35.85 0 65.01 29.16 65.01 65.01 0 35.85-29.16 65.01-65.01 65.01zm0-114.52c-27.3 0-49.51 22.21-49.51 49.51 0 27.3 22.21 49.51 49.51 49.51 27.3 0 49.51-22.21 49.51-49.51 0-27.3-22.21-49.51-49.51-49.51z" class="cls-4" style="fill:#74aadc"/><path id="path14" d="M438.01 262.49c-35.84 0-65.01-29.16-65.01-65.01 0-35.85 29.16-65.01 65.01-65.01 35.85 0 65.01 29.16 65.01 65.01 0 35.85-29.16 65.01-65.01 65.01zm0-114.52c-27.3 0-49.51 22.21-49.51 49.51 0 27.3 22.21 49.51 49.51 49.51 27.3 0 49.51-22.21 49.51-49.51 0-27.3-22.21-49.51-49.51-49.51z" class="cls-4" style="fill:#74aadc"/><path id="path16" d="M438.01 469.05c-35.84 0-65.01-29.16-65.01-65.01 0-35.85 29.16-65.01 65.01-65.01 35.85 0 65.01 29.16 65.01 65.01 0 35.85-29.16 65.01-65.01 65.01zm0-114.52c-27.3 0-49.51 22.21-49.51 49.51 0 27.3 22.21 49.51 49.51 49.51 27.3 0 49.51-22.21 49.51-49.51 0-27.3-22.21-49.51-49.51-49.51z" class="cls-4" style="fill:#74aadc"/><circle id="circle18" cx="299.25" cy="300.97" r="120.38" class="cls-2" style="fill:#fff"/><path id="path20" d="M299.7 396.75c-52.93 0-95.99-43.06-95.99-95.99 0-52.93 43.06-95.99 95.99-95.99 52.93 0 95.99 43.06 95.99 95.99 0 52.93-43.06 95.99-95.99 95.99zm0-176.49c-44.39 0-80.5 36.11-80.5 80.5s36.11 80.5 80.5 80.5 80.5-36.11 80.5-80.5-36.11-80.5-80.5-80.5z" class="cls-4" style="fill:#74aadc"/><path id="path22" d="M161.99 293.47c-52.93 0-95.99-43.06-95.99-95.99 0-52.93 43.06-95.99 95.99-95.99 49.67 0 91.69 38.75 95.68 88.22l-15.44 1.24c-3.34-41.48-38.59-73.97-80.24-73.97-44.39 0-80.5 36.11-80.5 80.5s36.11 80.5 80.5 80.5c5.72 0 11.44-.61 16.98-1.8l3.27 15.14a96.054 96.054 0 0 1-20.25 2.15z" class="cls-4" style="fill:#74aadc"/><path id="path24" d="M161.99 500.03c-52.93 0-95.99-43.06-95.99-95.99 0-52.93 43.06-95.99 95.99-95.99 5.86 0 11.74.54 17.46 1.59l-2.81 15.23c-4.8-.89-9.73-1.33-14.65-1.33-44.39 0-80.5 36.11-80.5 80.5s36.11 80.5 80.5 80.5c41.67 0 76.92-32.51 80.24-74.01l15.44 1.24c-3.96 49.49-45.99 88.27-95.68 88.27z" class="cls-4" style="fill:#74aadc"/><path id="path26" d="M299.7 365.77c-35.84 0-65.01-29.16-65.01-65.01 0-35.85 29.16-65.01 65.01-65.01 35.85 0 65.01 29.16 65.01 65.01 0 35.85-29.16 65.01-65.01 65.01zm0-114.52c-27.3 0-49.51 22.21-49.51 49.51 0 27.3 22.21 49.51 49.51 49.51 27.3 0 49.51-22.21 49.51-49.51 0-27.3-22.21-49.51-49.51-49.51z" class="cls-4" style="fill:#74aadc"/><path id="path28" d="M161.99 223.76c-14.49 0-26.28-11.79-26.28-26.28 0-14.49 11.79-26.28 26.28-26.28 14.49 0 26.28 11.79 26.28 26.28 0 14.49-11.79 26.28-26.28 26.28z" class="cls-1" style="fill:#fbbe49"/><path id="path30" d="M437.4 223.76c-14.49 0-26.28-11.79-26.28-26.28 0-14.49 11.79-26.28 26.28-26.28 14.49 0 26.28 11.79 26.28 26.28 0 14.49-11.79 26.28-26.28 26.28z" class="cls-1" style="fill:#fbbe49"/><path id="path32" d="M299.7 114.25c-11.03 0-20-8.97-20-20s8.97-20 20-20 20 8.97 20 20-8.97 20-20 20z" class="cls-4" style="fill:#74aadc"/><path id="path34" d="M299.7 527.48c-11.03 0-20-8.97-20-20s8.97-20 20-20 20 8.97 20 20-8.97 20-20 20z" class="cls-4" style="fill:#74aadc"/><path id="path36" d="M437.4 430.32c-14.49 0-26.28-11.79-26.28-26.28 0-14.49 11.79-26.28 26.28-26.28 14.49 0 26.28 11.79 26.28 26.28 0 14.49-11.79 26.28-26.28 26.28z" class="cls-1" style="fill:#fbbe49"/><path id="path38" d="M161.99 430.32c-14.49 0-26.28-11.79-26.28-26.28 0-14.49 11.79-26.28 26.28-26.28 14.49 0 26.28 11.79 26.28 26.28 0 14.49-11.79 26.28-26.28 26.28z" class="cls-1" style="fill:#fbbe49"/><g id="g44"><path id="path40" d="M299.7 295.19c-21.36 0-40.62-11.85-50.25-30.94l13.83-6.98c6.99 13.83 20.94 22.43 36.43 22.43 15.49 0 28.52-8.08 35.71-21.07l13.56 7.5c-9.92 17.93-28.8 29.07-49.27 29.07z" class="cls-4" style="fill:#74aadc"/><path id="path42" d="m265.12 344.68-13.13-8.23c10.37-16.54 28.2-26.42 47.71-26.42s36.16 9.27 46.66 24.8l-12.84 8.67a40.774 40.774 0 0 0-33.82-17.98c-13.57 0-27.06 7.16-34.58 19.16z" class="cls-4" style="fill:#74aadc"/></g><path id="rect46" d="M291.95 243.5h15.49v114.52h-15.49z" class="cls-4" style="fill:#74aadc"/><path id="path48" d="M438.01 293.47c-6.83 0-13.65-.73-20.27-2.16l3.27-15.14a80.59 80.59 0 0 0 17 1.81c44.39 0 80.5-36.11 80.5-80.5s-36.11-80.5-80.5-80.5-78.17 33.5-80.39 76.27l-15.47-.8c2.65-51.01 44.75-90.96 95.86-90.96S534 144.55 534 197.48c0 52.93-43.06 95.99-95.99 95.99z" class="cls-4" style="fill:#74aadc"/><path id="path50" d="M438.01 500.03c-49.37 0-91.38-38.5-95.63-87.65l15.43-1.33c3.57 41.21 38.79 73.49 80.2 73.49 44.39 0 80.5-36.11 80.5-80.5s-36.11-80.5-80.5-80.5c-6.76 0-13.47.84-19.95 2.5l-3.84-15.01a96.04 96.04 0 0 1 23.79-2.99c52.93 0 95.99 43.06 95.99 95.99 0 52.93-43.06 95.99-95.99 95.99z" class="cls-4" style="fill:#74aadc"/><g id="g60"><path id="path52" d="M290.29 174.19c-9.93-57.18-58.2-101.37-117.3-104.94v15.53c51.25 3.54 93.04 41.86 101.93 91.48-55.72 11.07-98.42 58.7-101.93 116.76h16.13c3.82-55.3 47.09-99.54 102.4-103.36 0 0-.67-15.51-1.23-15.47z" class="cls-4" style="fill:#74aadc"/><path id="path54" d="M290.85 411.79c-54.51-4.6-97.96-48.55-101.73-103.28h-16.13c3.51 57.97 46.07 105.54 101.66 116.71-9.45 48.9-50.91 86.5-101.66 90v15.53c58.58-3.55 106.53-46.99 117.03-103.44.65.05 1.21-15.49 1.21-15.49-1.5-.14-.17-.02-.38-.03 0-.03 0 0 0 0z" class="cls-4" style="fill:#74aadc"/><path id="path56" d="M309.98 427.31c10.51 56.45 58.45 99.9 117.03 103.44v-15.53c-50.74-3.5-92.21-41.11-101.66-90 55.59-11.17 98.15-58.75 101.66-116.71h-16.13c-3.78 54.73-47.93 98.59-102.43 103.19l1.54 15.62z" class="cls-4" style="fill:#74aadc"/><path id="path58" d="M309.71 174.19c-.56-.04-.99 15.49-.99 15.49 55.31 3.82 98.34 48.04 102.16 103.34h16.13c-3.51-58.06-46.21-105.69-101.93-116.76 8.89-49.61 50.68-87.94 101.93-91.48V69.25c-59.1 3.58-107.37 47.76-117.3 104.94z" class="cls-4" style="fill:#74aadc"/></g></g><path id="path64" d="M140.68 166.12h17.43c14.92 0 22.3 5.56 22.3 17.13 0 5.41-2.36 9.44-5.78 11.65 5.48 2.28 8.68 7.54 8.68 13.86 0 12.41-7.92 20.1-24.97 20.1h-17.66v-62.73zm17.74 24.67c4.8 0 7.69-1.52 7.69-5.71 0-4.57-2.82-6.01-7.69-6.01h-3.35v11.72zm-.53 24.13c6.55 0 9.9-1.52 9.9-6.47 0-4.95-3.35-6.7-9.36-6.7h-3.35v13.17h2.82z"/><path id="path66" d="M449.7 427.6h-24.21l-2.59 7.77h-16.06l22.84-62.65h15.83l22.46 62.65h-15.68zm-3.96-11.95-8.14-24.74-8.14 24.74h16.29z"/></g></g></svg>