<svg xmlns="http://www.w3.org/2000/svg" id="Layer_1" width="196.689" height="263.54" data-name="Layer 1" version="1.1"><defs id="defs4"><style id="style2">.cls-22,.cls-23{stroke-linecap:round;stroke-linejoin:round;fill:none;stroke-width:11.85px;stroke:#08295e}.cls-23{fill:#c93627}</style></defs><path id="path262" d="M66.403 64.255c-5.3 27.11-23 38.9-43.61 60.7-20.61 21.8-16.5 53.63-16.5 53.63 6.49-9.43 14.74-10.61 14.74-10.61-2.36 44.79 13 57.16 13 57.16 1.18-18.27 15.91-30 15.91-30 3 46.55 41.46 60.11 41.46 60.11s-4.92-24.75 12.17-22.4c17.09 2.35 14.73 25.34 60.7 24.76 0 0-.59-19.45-20.63-31.24l-1.46-32.62-9-42.91 20.48-23.12s7.41-41.88-34.77-56.34l-39.89-7.07" style="fill:#f7f3eb"/><path id="path264" d="M66.403 64.255c-5.3 27.11-23 38.9-43.61 60.7-20.61 21.8-16.5 53.63-16.5 53.63 6.49-9.43 14.74-10.61 14.74-10.61-2.36 44.79 13 57.16 13 57.16 1.18-18.27 15.91-30 15.91-30 3 46.55 41.46 60.11 41.46 60.11s-4.92-24.75 12.17-22.4c17.09 2.35 14.73 25.34 60.7 24.76 0 0-.59-19.45-20.63-31.24" class="cls-22" style="fill:none;stroke:#08295e;stroke-width:11.85000038px;stroke-linecap:round;stroke-linejoin:round"/><path id="path266" d="M44.173 35.535c13.07 42 35.37 19 74.68 35.8 40.08 17.09 34.77 46.56 34.77 46.56 12.38-1.77 27.11-5.9 35.36-30.65 7-20.89-7.91-32.54-12.71-35.67l-1.44 1.31a3.39 3.39 0 0 0 0 .94c3.16 12.55-5.84 15.13-15.93 14.57-8.18-.46-12.26-14.87-15-20.78-4.43-9.7-10.43-14.23-17.56-21.76a62.33 62.33 0 0 1-8.74-11.68c-5.89 8.84-5.3 22.39-5.3 22.39-10-2.94-21-30.64-21-30.64-21 11.2-26.13 33-26.13 33-5.85-.39-13.5-2.84-18-4.46z" class="cls-23" style="fill:#c93627;stroke:#08295e;stroke-width:11.85000038px;stroke-linecap:round;stroke-linejoin:round"/><path id="path268" d="M153.623 117.885s-19.14 1.39-28.34 22.27 2.12 25.48 11.68 24.38c9.56-1.1 24.77-17 35.74 2.83 0 0 8.14-8.49 6.72-23-1.42-14.51-25.8-26.48-25.8-26.48z" style="fill:#e8882a;stroke:#08295e;stroke-width:11.85000038px;stroke-linecap:round;stroke-linejoin:round"/><path id="path270" d="M122.193 149.815s48.67-16.28 50.51 17.59" class="cls-22" style="fill:none;stroke:#08295e;stroke-width:11.85000038px;stroke-linecap:round;stroke-linejoin:round"/><path id="path272" d="M152.453 214.465s3.82 10.7 17.81 2.31c13.99-8.39 5.56-33.48-39.64-49.37" class="cls-23" style="fill:#c93627;stroke:#08295e;stroke-width:11.85000038px;stroke-linecap:round;stroke-linejoin:round"/><path id="path274" d="M103.133 106.855s-3.24 10.08 0 18 13 10.94 32.42-6.78" style="fill:#08295e;stroke:#3caa3f;stroke-width:7.80999994px;stroke-miterlimit:10"/><path id="path276" d="M122.533 160.345s-18 35.53-5.41 54.12c12.59 18.59 31.14 11.62 35.33 0 4.19-11.62-2.2-31.55-29.92-54.12z" class="cls-23" style="fill:#c93627;stroke:#08295e;stroke-width:11.85000038px;stroke-linecap:round;stroke-linejoin:round"/><path id="path278" d="M87.563 105.665s5.18-10.36 16.36-3.82c11.18 6.54 14 17.9 46.81 16" class="cls-22" style="fill:none;stroke:#08295e;stroke-width:11.85000038px;stroke-linecap:round;stroke-linejoin:round"/><path id="path280" d="M162.933 95.535a20.65 20.65 0 0 0 12.19-16.47" style="fill:none;stroke:#ea5f28;stroke-width:10.42000008px;stroke-linecap:round;stroke-linejoin:round"/></svg>