<svg xmlns="http://www.w3.org/2000/svg" id="Layer_1" data-name="Layer 1" version="1.1" width="308.663" height="309.052"><defs id="defs4"><style id="style2">.cls-33,.cls-9{fill:#08295e}.cls-31{stroke:#ea5f28}.cls-28,.cls-30,.cls-31,.cls-32,.cls-33,.cls-34{stroke-linecap:round;stroke-linejoin:round}.cls-28,.cls-34{fill:#e8882a;stroke:#e8882a}.cls-30,.cls-31,.cls-32{fill:none}.cls-32{stroke:#f7f3eb}.cls-30,.cls-33{stroke:#c93627}.cls-28{stroke-width:6.73px}.cls-30,.cls-31,.cls-33{stroke-width:6.8px}.cls-32{stroke-width:7.69px}.cls-34{stroke-width:3.06px}</style></defs><path d="M259.073 191.945c22.71-11.37 44.28-39.82 47.32-71.12.61-6.31-3.58-12.61-4.84-18.88-.71-3.53-1.83-7-2.32-10.54a31.69 31.69 0 0 1 7.8-25.23c-6.56-1.38-13.88 2.09-16.74 7.94-1.6 3.28-1.89 7.06-3.62 10.27-1.73 3.21-5.94 5.8-9.19 4a7.45 7.45 0 0 1-2.89-3.47c-2.43-5-2.78-10.58-3.21-16-.43-5.42-1-11.11-3.81-15.88-2.81-4.77-8.4-8.45-14-7.44 8.89 9.54 9.74 25.14 1.93 35.52-1.41 1.87-5.51 3.65-7.83 4.26-3.81 1-7.88-1.63-9.54-5.09-1.66-3.46-1.45-7.46-.91-11.24 1.58-10.9 5.58-22.45.87-32.49-1.91-4.08-5.17-7.57-6.38-11.89-2.42-8.65 4.1-17.27 11.32-22.92a28.65 28.65 0 0 0-21.85 7.35 26.38 26.38 0 0 0-8.33 20.71c.24 3.6 1.24 7.15 1 10.75-.24 3.6-2.12 7.46-5.68 8.57-5 1.56-10-3.34-10.46-8.34a22.83 22.83 0 0 1 2.94-14c-9.31 2.49-14.67 10.94-15.42 20.21-1 13.05 9.48 25.81 5.75 38.4-.75 2.55-2.18 6.39-4.51 7.81-2.33 1.42-7.07.15-9.08-1.67-2.45-2.22-4.86-6-4.24-9.19 1-4.89 2-10 .71-14.78-1.29-4.78-5.75-9.25-10.91-8.84 3 5.9.83 13-2.39 18.82s-7.5 11.21-9 17.62c-2 8.71-3.07 17.65.91 25.71 0 0 5.88 40.81 45.6 70.55.04-.05 31.11 15.49 61 .52z" id="path282" style="fill:#ea5f28;stroke:#ea5f28;stroke-width:3.25999999px;stroke-linecap:round;stroke-linejoin:round"/><path class="cls-28" d="M222.623 95.765s-12.16-17.37-3.46-38.57c0 0-20.06 4.81-21.72 25.78" id="path284" style="fill:#e8882a;stroke:#e8882a;stroke-width:6.73000002px;stroke-linecap:round;stroke-linejoin:round"/><path class="cls-28" d="M237.263 147.875s35.58-17.62 37.9-36.16c0 0 7.07 25.76-25.14 62.67" id="path286" style="fill:#e8882a;stroke:#e8882a;stroke-width:6.73000002px;stroke-linecap:round;stroke-linejoin:round"/><path d="M254.123 219.555a129.92 129.92 0 0 0-173.63-161.2l-1.89.82h-47.36a27.92 27.92 0 0 0-27.88 27.88v26.72a27.76 27.76 0 0 0 6.4 17.75 129.93 129.93 0 0 0 171.86 166.12c3.59-1.52 7.17-3.23 10.67-5.1h40.89a27.91 27.91 0 0 0 27.88-27.9v-26.72a27.67 27.67 0 0 0-6.94-18.37z" id="path288" style="fill:#ea5f28;stroke:#ea5f28;stroke-width:2.38000011px;stroke-linecap:round;stroke-linejoin:round"/><path class="cls-9" d="M228.793 136.715a106.38 106.38 0 1 0 8.34 41.29 105.76 105.76 0 0 0-8.34-41.29z" id="path290" style="fill:#08295e"/><path class="cls-9" d="M246.233 221.415a123.12 123.12 0 0 0-163.09-156.77c-1 .44-2.06.89-3.08 1.36h-48.82a21.11 21.11 0 0 0-21.08 21.08v26.72a21.05 21.05 0 0 0 7.57 16.17l-.06.14a123.06 123.06 0 0 0 172.89 155.67h42.62a21.1 21.1 0 0 0 21.08-21.14v-26.72a21 21 0 0 0-8.03-16.51z" id="path292" style="fill:#08295e"/><path class="cls-30" d="M115.993 173.775s-7.58 37-38.37 51.1c0 0-11.92 6.13.32 6.13s63.75-3.94 80.2-55.86" id="path294" style="fill:none;stroke:#c93627;stroke-width:6.80000019px;stroke-linecap:round;stroke-linejoin:round"/><path class="cls-30" d="M161.973 108.645s-21.1-.38-19.81 17.31" id="path296" style="fill:none;stroke:#c93627;stroke-width:6.80000019px;stroke-linecap:round;stroke-linejoin:round"/><path class="cls-31" d="M120.593 155.955s0-23.58 16.9-26.53c0 0 25.41-4.86 25.08 22.88l.33 4.73" id="path298" style="fill:none;stroke:#ea5f28;stroke-width:6.80000019px;stroke-linecap:round;stroke-linejoin:round"/><path class="cls-31" d="M115.083 156.245s10.27 6.25 17.86-.93 7.17-6.81 10.8-2.65c3.63 4.16 13.81 14.44 23.64 6.73" id="path300" style="fill:none;stroke:#ea5f28;stroke-width:6.80000019px;stroke-linecap:round;stroke-linejoin:round"/><path class="cls-32" id="line302" style="fill:none;stroke:#f7f3eb;stroke-width:7.69000006px;stroke-linecap:round;stroke-linejoin:round" d="M171.823 178.005h62.87"/><path class="cls-32" id="line304" style="fill:none;stroke:#f7f3eb;stroke-width:7.69000006px;stroke-linecap:round;stroke-linejoin:round" d="M27.653 178.005h73.16"/><path class="cls-32" d="M214.983 113.115v5.59a37.52 37.52 0 0 1-22.88 34.45l-10.14 1.77" id="path306" style="fill:none;stroke:#f7f3eb;stroke-width:7.69000006px;stroke-linecap:round;stroke-linejoin:round"/><path class="cls-32" d="M99.413 156.105h-15.67a37.54 37.54 0 0 1-34.1-22.08" id="path308" style="fill:none;stroke:#f7f3eb;stroke-width:7.69000006px;stroke-linecap:round;stroke-linejoin:round"/><path class="cls-32" d="M46.343 239.225c0-20.56 18.75-37.39 39.32-37.39" id="path310" style="fill:none;stroke:#f7f3eb;stroke-width:7.69000006px;stroke-linecap:round;stroke-linejoin:round"/><path class="cls-32" d="M161.973 201.835h15.61a37.47 37.47 0 0 1 32 18" id="path312" style="fill:none;stroke:#f7f3eb;stroke-width:7.69000006px;stroke-linecap:round;stroke-linejoin:round"/><rect class="cls-33" x="157.623" y="233.875" width="79.64" height="34.88" rx="4.08" id="rect314" style="fill:#08295e;stroke:#c93627;stroke-width:6.80000019px;stroke-linecap:round;stroke-linejoin:round"/><path class="cls-34" d="M174.713 242.645v6.52h7.53v-6.52h2v15.57h-2v-7.3h-7.53v7.3h-2v-15.57z" id="path316" style="fill:#e8882a;stroke:#e8882a;stroke-width:3.05999994px;stroke-linecap:round;stroke-linejoin:round"/><path class="cls-34" d="M207.993 250.255c0 5.36-3.26 8.2-7.23 8.2-3.97 0-7-3.19-7-7.9 0-4.95 3.07-8.18 7.23-8.18s7 3.27 7 7.88zm-12.08.25c0 3.33 1.8 6.31 5 6.31s5-2.94 5-6.47c0-3.1-1.62-6.33-5-6.33s-5 3.07-5 6.49z" id="path318" style="fill:#e8882a;stroke:#e8882a;stroke-width:3.05999994px;stroke-linecap:round;stroke-linejoin:round"/><path class="cls-34" d="M219.913 244.335h-4.74v-1.69h11.53v1.71h-4.76v13.86h-2z" id="path320" style="fill:#e8882a;stroke:#e8882a;stroke-width:3.05999994px;stroke-linecap:round;stroke-linejoin:round"/><rect class="cls-33" x="27.163" y="82.975" width="79.64" height="34.88" rx="4.08" id="rect322" style="fill:#08295e;stroke:#c93627;stroke-width:6.80000019px;stroke-linecap:round;stroke-linejoin:round"/><path class="cls-34" d="M41.783 91.545a20.8 20.8 0 0 1 3.86-.32c2.15 0 3.53.39 4.5 1.27a3.85 3.85 0 0 1 1.23 3 4.09 4.09 0 0 1-2.94 4v.07c1.21.41 1.92 1.52 2.29 3.14a25.27 25.27 0 0 0 1.2 4.27h-2.07a19.85 19.85 0 0 1-1-3.72c-.47-2.14-1.3-2.95-3.12-3h-1.9v6.74h-2zm2 7.09h2.07c2.15 0 3.51-1.17 3.51-3 0-2-1.46-2.89-3.58-2.91a8.49 8.49 0 0 0-2 .18z" id="path324" style="fill:#e8882a;stroke:#e8882a;stroke-width:3.05999994px;stroke-linecap:round;stroke-linejoin:round"/><path class="cls-34" d="M69.203 99.645h-6.05v5.62h6.7v1.68h-8.75v-15.61h8.41v1.69h-6.4v4.92h6.05z" id="path326" style="fill:#e8882a;stroke:#e8882a;stroke-width:3.05999994px;stroke-linecap:round;stroke-linejoin:round"/><path class="cls-34" d="M79.433 91.545a29.43 29.43 0 0 1 4.27-.32c2.89 0 4.95.67 6.31 1.94a7.16 7.16 0 0 1 2.2 5.59 8.25 8.25 0 0 1-2.24 6c-1.46 1.46-3.86 2.24-6.89 2.24a34 34 0 0 1-3.65-.18zm2 13.77a12.93 12.93 0 0 0 2 .12c4.3 0 6.63-2.41 6.63-6.61 0-3.67-2-6-6.3-6a11.11 11.11 0 0 0-2.36.21z" id="path328" style="fill:#e8882a;stroke:#e8882a;stroke-width:3.05999994px;stroke-linecap:round;stroke-linejoin:round"/><path class="cls-32" id="line330" style="fill:none;stroke:#f7f3eb;stroke-width:7.69000006px;stroke-linecap:round;stroke-linejoin:round" d="M131.063 284.075v-53.07"/><path id="line332" style="fill:none;stroke:#fff;stroke-width:6.80000019px;stroke-linecap:round;stroke-linejoin:round" d="M135.543 100.415v-28.48"/></svg>