<svg xmlns="http://www.w3.org/2000/svg" id="Layer_1" width="546.44" height="546.43" version="1.1"><defs id="defs147"><style id="style145">.cls-1{fill:#eab744}.cls-2{fill:#08416b}</style></defs><g id="g591" transform="translate(-26.78 -26.78)"><g id="g571"><g id="g155"><path id="path151" d="M300 567.16c-28.73 0-55.69-11.13-75.9-31.34L64.18 375.9c-20.21-20.21-31.34-47.17-31.34-75.9 0-28.73 11.13-55.69 31.34-75.9L224.1 64.18c20.21-20.21 47.17-31.34 75.9-31.34 28.73 0 55.69 11.13 75.9 31.34L535.82 224.1c20.21 20.21 31.34 47.17 31.34 75.9 0 28.73-11.13 55.69-31.34 75.9L375.9 535.82c-20.21 20.21-47.17 31.34-75.9 31.34z"/><path id="path153" d="M300 38.9c27.11 0 52.55 10.5 71.61 29.57l159.92 159.92c19.07 19.07 29.57 44.5 29.57 71.61s-10.5 52.55-29.57 71.61L371.61 531.53c-19.07 19.07-44.5 29.57-71.61 29.57s-52.55-10.5-71.61-29.57L68.47 371.61C49.4 352.54 38.9 327.11 38.9 300s10.5-52.55 29.57-71.61L228.38 68.47c19.07-19.07 44.5-29.57 71.61-29.57m0-12.12c-30.35 0-58.83 11.76-80.18 33.12L59.9 219.81c-21.36 21.36-33.12 49.83-33.12 80.18 0 30.35 11.76 58.83 33.12 80.18l159.92 159.92c21.36 21.36 49.83 33.12 80.18 33.12 30.35 0 58.83-11.76 80.18-33.12L540.1 380.17c21.36-21.36 33.12-49.83 33.12-80.18 0-30.35-11.76-58.83-33.12-80.18L380.18 59.9C358.82 38.54 330.35 26.78 300 26.78z" class="cls-1" style="fill:#eab744"/></g><g id="g563" style="opacity:.3"><g id="g217"><g id="g161"><circle id="circle157" cx="196.73" cy="430.35" r="3.19"/><path id="path159" d="M196.74 436.84c-1.66 0-3.32-.63-4.59-1.9a6.427 6.427 0 0 1-1.9-4.59c0-1.74.67-3.36 1.9-4.59a6.488 6.488 0 0 1 9.17 0 6.427 6.427 0 0 1 1.9 4.59c0 1.74-.67 3.36-1.9 4.59a6.49 6.49 0 0 1-4.59 1.9zm0-6.6s-.06 0-.08.03c-.04.04-.04.13 0 .17.04.04.13.04.17 0 .04-.04.04-.13 0-.17a.114.114 0 0 0-.08-.03z" class="cls-1" style="fill:#eab744"/></g><g id="g167"><circle id="circle163" cx="179.61" cy="447.48" r="3.19"/><path id="path165" d="M179.61 453.96c-1.66 0-3.32-.63-4.59-1.9a6.5 6.5 0 0 1 0-9.18 6.5 6.5 0 0 1 9.18 0 6.5 6.5 0 0 1 0 9.18 6.49 6.49 0 0 1-4.59 1.9zm.08-6.57-.17.17s.12.04.16 0c.05-.05.05-.12 0-.17zm-.08-.03s-.06.01-.08.03c-.05.05-.05.12 0 .17l.17-.17s-.05-.03-.08-.03z" class="cls-1" style="fill:#eab744"/></g><g id="g173"><path id="line169" d="m193.49 471.02 28.45-28.44"/><path id="rect171" d="M187.6 453.5h40.23v6.6H187.6z" class="cls-1" style="fill:#eab744" transform="rotate(-44.99 207.747 456.831)"/></g><g id="g179"><path id="line175" d="m209.06 486.59 28.44-28.45"/><path id="rect177" d="M203.17 469.06h40.23v6.6h-40.23z" class="cls-1" style="fill:#eab744" transform="rotate(-44.99 223.321 472.404)"/></g><g id="g185"><path id="line181" d="m224.63 502.16 28.44-28.45"/><path id="rect183" d="M218.74 484.63h40.23v6.6h-40.23z" class="cls-1" style="fill:#eab744" transform="rotate(-44.99 238.883 487.972)"/></g><g id="g191"><path id="line187" d="m240.2 517.72 28.44-28.44"/><path id="rect189" d="M234.31 500.2h40.23v6.6h-40.23z" class="cls-1" style="fill:#eab744" transform="rotate(-44.99 254.463 503.532)"/></g><g id="g197"><path id="polygon193" d="m123.66 382.95 16.72-.28.11 6.61-10.72.18-.92 11.65-6.59-.52z" class="cls-1" style="fill:#eab744"/><path id="polygon195" d="m136.12 370.5 16.71-.28.11 6.6-10.71.18-.93 11.66-6.58-.52z" class="cls-1" style="fill:#eab744"/></g><g id="g203"><path id="polygon199" d="m106.54 365.83 16.71-.28.11 6.6-10.71.18-.93 11.66-6.58-.53z" class="cls-1" style="fill:#eab744"/><path id="polygon201" d="m118.99 353.37 16.72-.28.11 6.61-10.72.18-.92 11.65-6.59-.52z" class="cls-1" style="fill:#eab744"/></g><g id="g209"><path id="polygon205" d="m89.41 348.7 16.72-.28.11 6.61-10.72.18-.92 11.65-6.59-.52z" class="cls-1" style="fill:#eab744"/><path id="polygon207" d="m101.87 336.25 16.71-.28.11 6.6-10.71.18-.93 11.66-6.58-.53z" class="cls-1" style="fill:#eab744"/></g><path id="path211" d="M80.28 334.37c-4.79 0-9.29-1.86-12.65-5.22l4.67-4.67c2.12 2.12 4.96 3.29 7.98 3.29 3.02 0 5.86-1.17 7.98-3.29l8.41-8.41 4.67 4.67-8.41 8.41c-3.37 3.37-7.86 5.22-12.65 5.22z" class="cls-1" style="fill:#eab744"/><path id="path213" d="M74.9 313.22c-4.58 0-9.17-1.74-12.65-5.23l4.67-4.67c4.4 4.4 11.57 4.4 15.97 0l8.41-8.41 4.67 4.67-8.41 8.41c-3.49 3.49-8.07 5.23-12.65 5.23z" class="cls-1" style="fill:#eab744"/><path id="path215" d="M73.78 290.42c-4.79 0-9.29-1.85-12.65-5.22l4.67-4.67c2.12 2.12 4.96 3.29 7.98 3.29 3.02 0 5.86-1.17 7.98-3.29l8.41-8.41 4.67 4.67-8.41 8.41c-3.37 3.37-7.86 5.22-12.65 5.22z" class="cls-1" style="fill:#eab744"/></g><g id="g303"><g id="g223"><circle id="circle219" cx="196.73" cy="430.35" r="3.19"/><path id="path221" d="M196.74 436.84c-1.66 0-3.32-.63-4.59-1.9a6.427 6.427 0 0 1-1.9-4.59c0-1.74.67-3.36 1.9-4.59a6.488 6.488 0 0 1 9.17 0 6.427 6.427 0 0 1 1.9 4.59c0 1.74-.67 3.36-1.9 4.59a6.49 6.49 0 0 1-4.59 1.9zm0-6.6s-.06 0-.08.03c-.04.04-.04.13 0 .17.04.04.13.04.17 0 .04-.04.04-.13 0-.17a.114.114 0 0 0-.08-.03z" class="cls-1" style="fill:#eab744"/></g><g id="g229"><circle id="circle225" cx="179.61" cy="447.48" r="3.19"/><path id="path227" d="M179.61 453.96c-1.66 0-3.32-.63-4.59-1.9a6.5 6.5 0 0 1 0-9.18 6.5 6.5 0 0 1 9.18 0 6.5 6.5 0 0 1 0 9.18 6.49 6.49 0 0 1-4.59 1.9zm.08-6.57-.17.17s.12.04.16 0c.05-.05.05-.12 0-.17zm-.08-.03s-.06.01-.08.03c-.05.05-.05.12 0 .17l.17-.17s-.05-.03-.08-.03z" class="cls-1" style="fill:#eab744"/></g><g id="g235"><path id="line231" d="m193.49 471.02 28.45-28.44"/><path id="rect233" d="M187.6 453.5h40.23v6.6H187.6z" class="cls-1" style="fill:#eab744" transform="rotate(-44.99 207.747 456.831)"/></g><g id="g241"><path id="line237" d="m209.06 486.59 28.44-28.45"/><path id="rect239" d="M203.17 469.06h40.23v6.6h-40.23z" class="cls-1" style="fill:#eab744" transform="rotate(-44.99 223.321 472.404)"/></g><g id="g247"><path id="line243" d="m224.63 502.16 28.44-28.45"/><path id="rect245" d="M218.74 484.63h40.23v6.6h-40.23z" class="cls-1" style="fill:#eab744" transform="rotate(-44.99 238.883 487.972)"/></g><g id="g253"><path id="line249" d="m240.2 517.72 28.44-28.44"/><path id="rect251" d="M234.31 500.2h40.23v6.6h-40.23z" class="cls-1" style="fill:#eab744" transform="rotate(-44.99 254.463 503.532)"/></g><g id="g259"><path id="polygon255" d="m123.66 382.95 16.72-.28.11 6.61-10.72.18-.92 11.65-6.59-.52z" class="cls-1" style="fill:#eab744"/><path id="polygon257" d="m136.12 370.5 16.71-.28.11 6.6-10.71.18-.93 11.66-6.58-.52z" class="cls-1" style="fill:#eab744"/></g><g id="g265"><path id="polygon261" d="m106.54 365.83 16.71-.28.11 6.6-10.71.18-.93 11.66-6.58-.53z" class="cls-1" style="fill:#eab744"/><path id="polygon263" d="m118.99 353.37 16.72-.28.11 6.61-10.72.18-.92 11.65-6.59-.52z" class="cls-1" style="fill:#eab744"/></g><g id="g271"><path id="polygon267" d="m89.41 348.7 16.72-.28.11 6.61-10.72.18-.92 11.65-6.59-.52z" class="cls-1" style="fill:#eab744"/><path id="polygon269" d="m101.87 336.25 16.71-.28.11 6.6-10.71.18-.93 11.66-6.58-.53z" class="cls-1" style="fill:#eab744"/></g><path id="path273" d="M80.28 334.37c-4.79 0-9.29-1.86-12.65-5.22l4.67-4.67c2.12 2.12 4.96 3.29 7.98 3.29 3.02 0 5.86-1.17 7.98-3.29l8.41-8.41 4.67 4.67-8.41 8.41c-3.37 3.37-7.86 5.22-12.65 5.22z" class="cls-1" style="fill:#eab744"/><path id="path275" d="M74.9 313.22c-4.58 0-9.17-1.74-12.65-5.23l4.67-4.67c4.4 4.4 11.57 4.4 15.97 0l8.41-8.41 4.67 4.67-8.41 8.41c-3.49 3.49-8.07 5.23-12.65 5.23z" class="cls-1" style="fill:#eab744"/><path id="path277" d="M73.78 290.42c-4.79 0-9.29-1.85-12.65-5.22l4.67-4.67c2.12 2.12 4.96 3.29 7.98 3.29 3.02 0 5.86-1.17 7.98-3.29l8.41-8.41 4.67 4.67-8.41 8.41c-3.37 3.37-7.86 5.22-12.65 5.22z" class="cls-1" style="fill:#eab744"/><g id="g283"><circle id="circle279" cx="165.6" cy="399.22" r="3.19"/><path id="path281" d="M165.6 405.7c-1.66 0-3.32-.63-4.59-1.9a6.427 6.427 0 0 1-1.9-4.59c0-1.74.67-3.36 1.9-4.59 2.53-2.53 6.65-2.53 9.17 0a6.427 6.427 0 0 1 1.9 4.59c0 1.74-.67 3.36-1.9 4.59a6.49 6.49 0 0 1-4.59 1.9zm0-6.6s-.06 0-.08.03c-.04.04-.04.13 0 .17.04.04.13.04.17 0 .04-.04.04-.13 0-.17a.114.114 0 0 0-.08-.03z" class="cls-1" style="fill:#eab744"/></g><g id="g289"><circle id="circle285" cx="181.17" cy="414.78" r="3.19"/><path id="path287" d="M181.17 421.27c-1.66 0-3.32-.63-4.59-1.9a6.427 6.427 0 0 1-1.9-4.59c0-1.74.67-3.36 1.9-4.59a6.488 6.488 0 0 1 9.17 0 6.427 6.427 0 0 1 1.9 4.59c0 1.74-.67 3.36-1.9 4.59a6.49 6.49 0 0 1-4.59 1.9zm0-6.6s-.06 0-.08.03c-.04.04-.04.13 0 .17.04.04.13.04.17 0 .04-.04.04-.13 0-.17a.114.114 0 0 0-.08-.03z" class="cls-1" style="fill:#eab744"/></g><g id="g295"><circle id="circle291" cx="148.47" cy="416.34" r="3.19"/><path id="path293" d="M148.47 422.83c-1.66 0-3.32-.63-4.59-1.9a6.5 6.5 0 0 1 0-9.18 6.5 6.5 0 0 1 9.18 0 6.5 6.5 0 0 1 0 9.18 6.49 6.49 0 0 1-4.59 1.9zm.08-6.57-.17.17s.12.04.16 0c.05-.05.05-.12 0-.17zm-.08-.03s-.06.01-.08.03c-.05.05-.05.12 0 .17l.17-.17s-.05-.03-.08-.03z" class="cls-1" style="fill:#eab744"/></g><g id="g301"><circle id="circle297" cx="164.04" cy="431.91" r="3.19"/><path id="path299" d="M164.04 438.39c-1.66 0-3.32-.63-4.59-1.9a6.5 6.5 0 0 1 0-9.18 6.5 6.5 0 0 1 9.18 0 6.5 6.5 0 0 1 0 9.18 6.49 6.49 0 0 1-4.59 1.9zm.08-6.57-.17.17s.12.04.16 0c.05-.05.05-.12 0-.17zm-.08-.03s-.06.01-.08.03c-.05.05-.05.12 0 .17l.17-.17s-.05-.03-.08-.03z" class="cls-1" style="fill:#eab744"/></g></g><g id="g389"><g id="g309"><circle id="circle305" cx="430.35" cy="403.26" r="3.19"/><path id="path307" d="M430.35 409.75c-1.73 0-3.36-.68-4.59-1.9a6.5 6.5 0 0 1 0-9.18 6.41 6.41 0 0 1 4.59-1.9c1.74 0 3.36.67 4.59 1.9a6.5 6.5 0 0 1 0 9.18 6.427 6.427 0 0 1-4.59 1.9zm0-6.6s-.06 0-.08.03c-.05.05-.05.12 0 .17.04.04.13.04.17 0 .04-.04.04-.13 0-.17a.114.114 0 0 0-.08-.03z" class="cls-1" style="fill:#eab744"/></g><g id="g315"><circle id="circle311" cx="447.48" cy="420.39" r="3.19"/><path id="path313" d="M447.48 426.87c-1.66 0-3.32-.63-4.59-1.9s-1.9-2.85-1.9-4.59c0-1.74.67-3.36 1.9-4.59a6.488 6.488 0 0 1 9.17 0 6.427 6.427 0 0 1 1.9 4.59c0 1.74-.67 3.36-1.9 4.59a6.566 6.566 0 0 1-4.59 1.9zm0-6.6s-.06 0-.08.03c-.04.04-.04.13 0 .17.04.04.13.04.17 0 .04-.04.04-.13 0-.17a.114.114 0 0 0-.08-.03z" class="cls-1" style="fill:#eab744"/></g><g id="g321"><path id="line317" d="m471.02 406.51-28.44-28.45"/><path id="rect319" d="M453.5 372.17h6.6v40.23h-6.6z" class="cls-1" style="fill:#eab744" transform="rotate(-45 456.785 392.273)"/></g><g id="g327"><path id="line323" d="m486.59 390.94-28.45-28.45"/><path id="rect325" d="M469.06 356.6h6.6v40.23h-6.6z" class="cls-1" style="fill:#eab744" transform="rotate(-45 472.35 376.716)"/></g><g id="g333"><path id="line329" d="m502.16 375.37-28.45-28.44"/><path id="rect331" d="M484.63 341.04h6.6v40.23h-6.6z" class="cls-1" style="fill:#eab744" transform="rotate(-45 487.922 361.146)"/></g><g id="g339"><path id="line335" d="m517.73 359.8-28.45-28.44"/><path id="rect337" d="M500.2 325.47h6.6v40.23h-6.6z" class="cls-1" style="fill:#eab744" transform="rotate(-45 503.493 345.577)"/></g><g id="g345"><path id="polygon341" d="m382.67 459.62 6.61-.11.18 10.72 11.65.92-.52 6.59-17.63-1.4z" class="cls-1" style="fill:#eab744"/><path id="polygon343" d="m370.22 447.17 6.6-.11.18 10.71 11.66.93-.52 6.58-17.64-1.4z" class="cls-1" style="fill:#eab744"/></g><g id="g351"><path id="polygon347" d="m365.55 476.75 6.6-.11.18 10.71 11.66.93-.53 6.58-17.63-1.4z" class="cls-1" style="fill:#eab744"/><path id="polygon349" d="m353.09 464.29 6.61-.11.18 10.72 11.65.92-.52 6.59-17.63-1.4z" class="cls-1" style="fill:#eab744"/></g><g id="g357"><path id="polygon353" d="m348.42 493.87 6.61-.11.18 10.72 11.65.92-.52 6.59-17.63-1.4z" class="cls-1" style="fill:#eab744"/><path id="polygon355" d="m335.97 481.42 6.6-.11.18 10.71 11.66.93-.52 6.58-17.64-1.4z" class="cls-1" style="fill:#eab744"/></g><path id="path359" d="m329.14 532.38-4.67-4.67c2.12-2.12 3.29-4.96 3.29-7.98 0-3.02-1.17-5.86-3.29-7.98l-8.41-8.41 4.67-4.67 8.41 8.41c3.37 3.37 5.22 7.86 5.22 12.65s-1.86 9.29-5.22 12.65z" class="cls-1" style="fill:#eab744"/><path id="path361" d="m307.99 537.75-4.67-4.67c2.12-2.12 3.29-4.96 3.29-7.98 0-3.02-1.17-5.86-3.29-7.98l-8.41-8.41 4.67-4.67 8.41 8.41c3.37 3.37 5.22 7.86 5.22 12.65s-1.86 9.29-5.22 12.65z" class="cls-1" style="fill:#eab744"/><path id="path363" d="m285.19 538.87-4.67-4.67c2.12-2.12 3.29-4.96 3.29-7.98 0-3.02-1.17-5.86-3.29-7.98l-8.41-8.41 4.67-4.67 8.41 8.41c3.37 3.37 5.22 7.86 5.22 12.65s-1.86 9.29-5.22 12.65z" class="cls-1" style="fill:#eab744"/><g id="g369"><circle id="circle365" cx="399.22" cy="434.4" r="3.19"/><path id="path367" d="M399.22 440.89a6.486 6.486 0 0 1-4.59-11.07 6.41 6.41 0 0 1 4.59-1.9c1.74 0 3.36.68 4.59 1.9a6.5 6.5 0 0 1 0 9.18 6.427 6.427 0 0 1-4.59 1.9zm0-6.6s-.06 0-.08.03c-.05.05-.05.12 0 .17.04.04.13.04.17 0 .04-.04.04-.13 0-.17a.114.114 0 0 0-.08-.03zm.08.19z" class="cls-1" style="fill:#eab744"/></g><g id="g375"><circle id="circle371" cx="414.78" cy="418.83" r="3.19"/><path id="path373" d="M414.78 425.32a6.486 6.486 0 0 1-4.59-11.07 6.41 6.41 0 0 1 4.59-1.9c1.74 0 3.36.68 4.59 1.9a6.5 6.5 0 0 1 0 9.18 6.427 6.427 0 0 1-4.59 1.9zm0-6.6s-.06 0-.08.03c-.05.05-.05.12 0 .17.04.04.13.04.17 0 .04-.04.04-.13 0-.17a.114.114 0 0 0-.08-.03zm.08.19z" class="cls-1" style="fill:#eab744"/></g><g id="g381"><circle id="circle377" cx="416.34" cy="451.53" r="3.19"/><path id="path379" d="M416.34 458.01c-1.66 0-3.32-.63-4.59-1.9s-1.9-2.85-1.9-4.59c0-1.74.67-3.36 1.9-4.59a6.488 6.488 0 0 1 9.17 0 6.427 6.427 0 0 1 1.9 4.59c0 1.74-.67 3.36-1.9 4.59a6.566 6.566 0 0 1-4.59 1.9zm0-6.6s-.06 0-.08.03c-.04.04-.04.13 0 .17.04.04.13.04.17 0 .04-.04.04-.13 0-.17a.114.114 0 0 0-.08-.03z" class="cls-1" style="fill:#eab744"/></g><g id="g387"><circle id="circle383" cx="431.91" cy="435.96" r="3.19"/><path id="path385" d="M431.91 442.44c-1.66 0-3.32-.63-4.59-1.9s-1.9-2.85-1.9-4.59c0-1.74.67-3.36 1.9-4.59 2.53-2.53 6.65-2.53 9.17 0a6.427 6.427 0 0 1 1.9 4.59c0 1.74-.67 3.36-1.9 4.59a6.566 6.566 0 0 1-4.59 1.9zm0-6.6s-.06 0-.08.03c-.04.04-.04.13 0 .17.04.04.13.04.17 0 .04-.04.04-.13 0-.17a.114.114 0 0 0-.08-.03z" class="cls-1" style="fill:#eab744"/></g></g><g id="g475"><g id="g395"><circle id="circle391" cx="403.27" cy="169.65" r="3.19"/><path id="path393" d="M403.27 176.13c-1.66 0-3.32-.63-4.59-1.9s-1.9-2.85-1.9-4.59c0-1.74.67-3.36 1.9-4.59 2.53-2.53 6.65-2.53 9.17 0a6.427 6.427 0 0 1 1.9 4.59c0 1.74-.67 3.36-1.9 4.59a6.566 6.566 0 0 1-4.59 1.9zm0-6.6s-.06 0-.08.03c-.04.04-.04.13 0 .17.04.04.13.04.17 0 .04-.04.04-.13 0-.17a.114.114 0 0 0-.08-.03z" class="cls-1" style="fill:#eab744"/></g><g id="g401"><circle id="circle397" cx="420.39" cy="152.52" r="3.19"/><path id="path399" d="M420.39 159.01c-1.66 0-3.32-.63-4.59-1.9a6.5 6.5 0 0 1 0-9.18 6.488 6.488 0 0 1 9.17 0 6.5 6.5 0 0 1 0 9.18 6.49 6.49 0 0 1-4.59 1.9zm-.08-6.4s.13.04.17 0c.04-.04.04-.13 0-.17zm.08-.2s-.06.01-.08.03c-.05.05-.05.12 0 .17l.17-.17s-.05-.03-.08-.03z" class="cls-1" style="fill:#eab744"/></g><g id="g407"><path id="line403" d="m406.51 128.98-28.45 28.44"/><path id="rect405" d="M372.17 139.9h40.23v6.6h-40.23z" class="cls-1" style="fill:#eab744" transform="rotate(-44.99 392.322 143.2)"/></g><g id="g413"><path id="line409" d="m390.94 113.41-28.44 28.44"/><path id="rect411" d="M356.6 124.33h40.23v6.6H356.6z" class="cls-1" style="fill:#eab744" transform="rotate(-44.99 376.748 127.627)"/></g><g id="g419"><path id="line415" d="m375.37 97.84-28.44 28.45"/><path id="rect417" d="M341.04 108.76h40.23v6.6h-40.23z" class="cls-1" style="fill:#eab744" transform="rotate(-44.99 361.186 112.06)"/></g><g id="g425"><path id="line421" d="m359.8 82.27-28.44 28.45"/><path id="rect423" d="M325.47 93.19h40.23v6.6h-40.23z" class="cls-1" style="fill:#eab744" transform="rotate(-44.99 345.611 96.487)"/></g><g id="g431"><path id="polygon427" d="m470.23 210.54.92-11.65 6.59.52-1.4 17.63-16.72.29-.11-6.61z" class="cls-1" style="fill:#eab744"/><path id="polygon429" d="m457.77 223 .93-11.66 6.58.52-1.4 17.64-16.71.28-.11-6.6z" class="cls-1" style="fill:#eab744"/></g><g id="g437"><path id="polygon433" d="m487.35 227.67.93-11.66 6.58.52-1.4 17.64-16.71.28-.11-6.6z" class="cls-1" style="fill:#eab744"/><path id="polygon435" d="m474.9 240.12.92-11.65 6.59.52-1.4 17.63-16.72.29-.11-6.61z" class="cls-1" style="fill:#eab744"/></g><g id="g443"><path id="polygon439" d="m504.48 244.79.92-11.65 6.59.52-1.4 17.63-16.72.29-.11-6.61z" class="cls-1" style="fill:#eab744"/><path id="polygon441" d="m492.02 257.25.93-11.66 6.58.52-1.4 17.64-16.71.28-.11-6.6z" class="cls-1" style="fill:#eab744"/></g><path id="path445" d="m503.33 283.93-4.67-4.67 8.41-8.41c6.98-6.98 18.33-6.98 25.31 0l-4.67 4.67c-4.4-4.4-11.57-4.4-15.97 0z" class="cls-1" style="fill:#eab744"/><path id="path447" d="m508.71 305.09-4.67-4.67 8.41-8.41c3.37-3.37 7.86-5.22 12.65-5.22s9.29 1.85 12.65 5.22l-4.67 4.67a11.215 11.215 0 0 0-7.98-3.29c-3.02 0-5.86 1.17-7.98 3.29z" class="cls-1" style="fill:#eab744"/><path id="path449" d="m509.83 327.88-4.67-4.67 8.41-8.41c6.98-6.98 18.33-6.98 25.31 0l-4.67 4.67c-4.4-4.4-11.57-4.4-15.97 0z" class="cls-1" style="fill:#eab744"/><g id="g455"><circle id="circle451" cx="434.4" cy="200.78" r="3.19"/><path id="path453" d="M434.4 207.27c-1.66 0-3.32-.63-4.59-1.9s-1.9-2.85-1.9-4.59c0-1.74.67-3.36 1.9-4.59 2.53-2.53 6.65-2.53 9.17 0a6.427 6.427 0 0 1 1.9 4.59c0 1.74-.67 3.36-1.9 4.59a6.566 6.566 0 0 1-4.59 1.9zm0-6.6s-.06 0-.08.03c-.04.04-.04.13 0 .17.04.04.13.04.17 0 .04-.04.04-.13 0-.17a.114.114 0 0 0-.08-.03z" class="cls-1" style="fill:#eab744"/></g><g id="g461"><circle id="circle457" cx="418.83" cy="185.21" r="3.19"/><path id="path459" d="M418.83 191.7c-1.66 0-3.32-.63-4.59-1.9s-1.9-2.85-1.9-4.59c0-1.74.67-3.36 1.9-4.59 2.53-2.53 6.65-2.53 9.17 0a6.427 6.427 0 0 1 1.9 4.59c0 1.74-.67 3.36-1.9 4.59a6.566 6.566 0 0 1-4.59 1.9zm0-6.6s-.06 0-.08.03c-.04.04-.04.13 0 .17.04.04.13.04.17 0 .04-.04.04-.13 0-.17a.114.114 0 0 0-.08-.03z" class="cls-1" style="fill:#eab744"/></g><g id="g467"><circle id="circle463" cx="451.53" cy="183.66" r="3.19"/><path id="path465" d="M451.53 190.14c-1.66 0-3.32-.63-4.59-1.9a6.5 6.5 0 0 1 0-9.18c2.53-2.53 6.65-2.53 9.17 0a6.5 6.5 0 0 1 0 9.18 6.49 6.49 0 0 1-4.59 1.9zm-.08-6.4s.13.04.17 0c.04-.04.04-.13 0-.17zm.08-.2s-.06.01-.08.03c-.05.05-.05.12 0 .17l.17-.17s-.05-.03-.08-.03z" class="cls-1" style="fill:#eab744"/></g><g id="g473"><circle id="circle469" cx="435.96" cy="168.09" r="3.19"/><path id="path471" d="M435.96 174.57c-1.66 0-3.32-.63-4.59-1.9a6.5 6.5 0 0 1 0-9.18 6.488 6.488 0 0 1 9.17 0 6.5 6.5 0 0 1 0 9.18 6.49 6.49 0 0 1-4.59 1.9zm-.08-6.4s.13.04.17 0c.04-.04.04-.13 0-.17zm.08-.2s-.06.01-.08.03c-.05.05-.05.12 0 .17l.17-.17s-.05-.03-.08-.03z" class="cls-1" style="fill:#eab744"/></g></g><g id="g561"><g id="g481"><circle id="circle477" cx="169.65" cy="196.73" r="3.19"/><path id="path479" d="M169.65 203.22c-1.66 0-3.32-.63-4.59-1.9a6.5 6.5 0 0 1 0-9.18 6.488 6.488 0 0 1 9.17 0 6.5 6.5 0 0 1 0 9.18 6.49 6.49 0 0 1-4.59 1.9zm-.08-6.57s-.05.12 0 .17c.04.04.13.04.17 0zm.08-.03s-.06.01-.08.03l.17.17s.04-.13 0-.17a.114.114 0 0 0-.08-.03z" class="cls-1" style="fill:#eab744"/></g><g id="g487"><circle id="circle483" cx="152.52" cy="179.61" r="3.19"/><path id="path485" d="M152.52 186.09c-1.66 0-3.32-.63-4.59-1.9a6.5 6.5 0 0 1 0-9.18c2.53-2.53 6.65-2.53 9.17 0a6.5 6.5 0 0 1 0 9.18 6.49 6.49 0 0 1-4.59 1.9zm0-6.6s-.06 0-.08.03c-.05.05-.05.12 0 .17.04.04.13.04.17 0 .04-.04.04-.13 0-.17a.114.114 0 0 0-.08-.03z" class="cls-1" style="fill:#eab744"/></g><g id="g493"><path id="line489" d="m128.98 193.49 28.44 28.45"/><path id="rect491" d="M139.9 187.6h6.6v40.23h-6.6z" class="cls-1" style="fill:#eab744" transform="rotate(-45 143.207 207.712)"/></g><g id="g499"><path id="line495" d="m113.41 209.06 28.45 28.44"/><path id="rect497" d="M124.33 203.17h6.6v40.23h-6.6z" class="cls-1" style="fill:#eab744" transform="rotate(-45 127.636 223.281)"/></g><g id="g505"><path id="line501" d="m97.84 224.63 28.45 28.44"/><path id="rect503" d="M108.76 218.74h6.6v40.23h-6.6z" class="cls-1" style="fill:#eab744" transform="rotate(-45 112.065 238.851)"/></g><g id="g511"><path id="line507" d="m82.27 240.2 28.45 28.44"/><path id="rect509" d="M93.19 234.31h6.6v40.23h-6.6z" class="cls-1" style="fill:#eab744" transform="rotate(-45 96.494 254.42)"/></g><g id="g517"><path id="polygon513" d="m198.89 128.85.52-6.59 17.63 1.4.29 16.72-6.61.11-.18-10.72z" class="cls-1" style="fill:#eab744"/><path id="polygon515" d="m211.34 141.3.52-6.58 17.64 1.4.28 16.71-6.6.11-.18-10.71z" class="cls-1" style="fill:#eab744"/></g><g id="g523"><path id="polygon519" d="m216.01 111.72.52-6.58 17.64 1.4.28 16.71-6.6.11-.18-10.71z" class="cls-1" style="fill:#eab744"/><path id="polygon521" d="m228.47 124.18.52-6.59 17.63 1.4.29 16.71-6.61.12-.18-10.72z" class="cls-1" style="fill:#eab744"/></g><g id="g529"><path id="polygon525" d="m233.14 94.6.52-6.59 17.63 1.4.29 16.72-6.61.11-.18-10.72z" class="cls-1" style="fill:#eab744"/><path id="polygon527" d="m245.59 107.05.52-6.58 17.64 1.4.28 16.71-6.6.11-.18-10.71z" class="cls-1" style="fill:#eab744"/></g><path id="path531" d="m279.26 101.34-8.41-8.41c-3.37-3.37-5.22-7.86-5.22-12.65s1.86-9.29 5.22-12.65l4.67 4.67a11.215 11.215 0 0 0-3.29 7.98c0 3.02 1.17 5.86 3.29 7.98l8.41 8.41z" class="cls-1" style="fill:#eab744"/><path id="path533" d="m300.42 95.96-8.41-8.41c-3.37-3.37-5.22-7.86-5.22-12.65s1.86-9.29 5.22-12.65l4.67 4.67a11.215 11.215 0 0 0-3.29 7.98c0 3.02 1.17 5.86 3.29 7.98l8.41 8.41z" class="cls-1" style="fill:#eab744"/><path id="path535" d="m323.22 94.84-8.41-8.41c-3.37-3.37-5.22-7.86-5.22-12.65s1.86-9.29 5.22-12.65l4.67 4.67a11.215 11.215 0 0 0-3.29 7.98c0 3.02 1.17 5.86 3.29 7.98l8.41 8.41z" class="cls-1" style="fill:#eab744"/><g id="g541"><circle id="circle537" cx="200.78" cy="165.6" r="3.19"/><path id="path539" d="M200.78 172.08c-1.66 0-3.32-.63-4.59-1.9a6.5 6.5 0 0 1 0-9.18 6.488 6.488 0 0 1 9.17 0 6.5 6.5 0 0 1 0 9.18 6.49 6.49 0 0 1-4.59 1.9zm-.08-6.57s-.05.12 0 .17c.04.04.13.04.17 0zm.08-.03s-.06.01-.08.03l.17.17s.04-.13 0-.17a.114.114 0 0 0-.08-.03z" class="cls-1" style="fill:#eab744"/></g><g id="g547"><circle id="circle543" cx="185.21" cy="181.17" r="3.19"/><path id="path545" d="M185.21 187.65c-1.66 0-3.32-.63-4.59-1.9a6.5 6.5 0 0 1 0-9.18 6.488 6.488 0 0 1 9.17 0 6.5 6.5 0 0 1 0 9.18 6.49 6.49 0 0 1-4.59 1.9zm-.08-6.57s-.05.12 0 .17c.04.04.13.04.17 0zm.08-.03s-.06.01-.08.03l.17.17s.04-.13 0-.17a.114.114 0 0 0-.08-.03z" class="cls-1" style="fill:#eab744"/></g><g id="g553"><circle id="circle549" cx="183.66" cy="148.47" r="3.19"/><path id="path551" d="M183.66 154.96c-1.66 0-3.32-.63-4.59-1.9a6.427 6.427 0 0 1-1.9-4.59c0-1.74.67-3.36 1.9-4.59a6.488 6.488 0 0 1 9.17 0 6.427 6.427 0 0 1 1.9 4.59c0 1.74-.67 3.36-1.9 4.59a6.49 6.49 0 0 1-4.59 1.9zm-.08-6.57s-.04.13 0 .17c.04.04.13.04.17 0 .04-.04.04-.13 0-.17-.04-.04-.13-.04-.17 0z" class="cls-1" style="fill:#eab744"/></g><g id="g559"><circle id="circle555" cx="168.09" cy="164.04" r="3.19"/><path id="path557" d="M168.09 170.52c-1.66 0-3.32-.63-4.59-1.9a6.5 6.5 0 0 1 0-9.18 6.488 6.488 0 0 1 9.17 0 6.5 6.5 0 0 1 0 9.18 6.49 6.49 0 0 1-4.59 1.9zm0-6.6s-.06 0-.08.03c-.05.05-.05.12 0 .17.04.04.13.04.17 0 .04-.04.04-.13 0-.17a.114.114 0 0 0-.08-.03z" class="cls-1" style="fill:#eab744"/></g></g></g><g id="g569"><rect id="rect565" width="274.69" height="274.69" x="162.66" y="162.65" rx="40.66" ry="40.66" transform="rotate(45 299.995 300.002)"/><path id="path567" d="M300 480.51c-11.21 0-22.43-4.27-30.97-12.81L132.3 330.97c-17.08-17.08-17.08-44.86 0-61.94L269.03 132.3c17.08-17.08 44.86-17.08 61.94 0L467.7 269.03c17.08 17.08 17.08 44.86 0 61.94L330.97 467.7l-2.22-2.22 2.22 2.22c-8.54 8.54-19.75 12.81-30.97 12.81zm0-354.75c-9.61 0-19.22 3.66-26.53 10.97L136.74 273.46c-14.63 14.63-14.63 38.44 0 53.07l136.73 136.73c14.63 14.63 38.44 14.63 53.07 0l136.73-136.73c14.63-14.63 14.63-38.44 0-53.06L326.54 136.74c-7.31-7.31-16.92-10.97-26.53-10.97z" class="cls-1" style="fill:#eab744"/></g></g><g id="g577"><circle id="circle573" cx="299.36" cy="297.33" r="156.52" class="cls-1" style="fill:#eab744" transform="rotate(-45 299.355 297.323)"/><path id="path575" d="M299.36 145.86c83.65 0 151.47 67.81 151.47 151.47S383.02 448.8 299.36 448.8s-151.47-67.81-151.47-151.47 67.81-151.47 151.47-151.47m0-10.1c-43.16 0-83.73 16.81-114.24 47.32-30.52 30.52-47.32 71.09-47.32 114.24 0 43.15 16.81 83.73 47.32 114.24 30.52 30.52 71.09 47.32 114.24 47.32 43.15 0 83.73-16.81 114.24-47.32 30.52-30.52 47.32-71.09 47.32-114.24 0-43.15-16.81-83.73-47.32-114.24-30.52-30.52-71.09-47.32-114.24-47.32z"/></g><g id="g587"><path id="path579" d="m318.08 427.41-28.15-2.67c3.06-32.32-8.3-63.97-31.16-86.84-22.5-22.5-53.67-33.9-85.51-31.28l-2.32-28.18c40.13-3.3 79.44 11.08 107.83 39.46 28.84 28.84 43.17 68.75 39.32 109.5z" class="cls-2" style="fill:#08416b"/><path id="path581" d="M416.38 316.67c-36.11 0-70.68-14.18-96.44-39.93-28.39-28.39-42.77-67.69-39.46-107.83l28.18 2.32c-2.62 31.84 8.78 63.01 31.28 85.51 22.86 22.86 54.52 34.22 86.84 31.16l2.66 28.15c-4.37.41-8.73.62-13.06.62z" class="cls-2" style="fill:#08416b"/><path id="rect583" d="M176.98 283.19h244.76v28.28H176.98z" class="cls-2" style="fill:#08416b" transform="rotate(-45 299.355 297.323)"/><path id="rect585" d="M285.22 174.95h28.28v244.76h-28.28z" class="cls-2" style="fill:#08416b" transform="rotate(-45 299.355 297.323)"/></g><path id="path589" d="M299.36 175c31.34 0 62.68 11.93 86.53 35.79 47.72 47.72 47.72 125.35 0 173.07-23.86 23.86-55.2 35.79-86.53 35.79s-62.68-11.93-86.53-35.79c-47.72-47.72-47.72-125.35 0-173.07 23.86-23.86 55.2-35.79 86.53-35.79m0-14.14c-36.5 0-70.78 14.18-96.53 39.93s-39.93 60.03-39.93 96.53 14.18 70.78 39.93 96.53 60.03 39.93 96.53 39.93 70.78-14.18 96.53-39.93c53.23-53.23 53.23-139.84 0-193.07-25.75-25.75-60.03-39.93-96.53-39.93z"/></g></svg>