<svg xmlns="http://www.w3.org/2000/svg" id="Layer_1" data-name="Layer 1" version="1.1" width="301.187" height="244.28"><defs id="defs4"><style id="style2">.cls-17{fill:#ed1d3d}.cls-6{fill:#f2b316}.cls-8{fill:#231f20}.cls-17{stroke:#231f20}.cls-10{fill:#7f4d1b}.cls-17{stroke-linecap:round;stroke-linejoin:round;stroke-width:15px}</style></defs><path d="M301.098 188.76a21.64 21.64 0 0 0-3.8-10.51c-8.4-12.1-23.43-18.29-36.17-22.05a116.44 116.44 0 0 0-10.94-101.6 17.74 17.74 0 0 0-1.38-2.14 116.49 116.49 0 0 0-194.78.23 19.79 19.79 0 0 0-1.1 1.71 116.53 116.53 0 0 0-11.14 101.61c-26.35 8.18-36.37 18.8-40 26.71-2.09 4.48-2 7.57-1.46 9.48 4 19.09 19.78 42.61 72 47.76 2.65.26 44.79 4.32 89.94 4.32 23.5 0 47.82-1.1 67.81-4.41 1.63-.27 3.25-.49 4.83-.66l.48-.07c13.48-2.14 24.81-5.31 34.64-9.69 8-3.54 13.82-7.29 18.43-11.81 10.34-10.15 13.31-21.57 12.64-28.88z" id="path278" style="fill:#fff"/><circle class="cls-17" cx="151.498" cy="116.56" r="98.94" id="circle280" style="fill:#ed1d3d;stroke:#231f20;stroke-width:15px;stroke-linecap:round;stroke-linejoin:round"/><path class="cls-17" id="line282" style="fill:#ed1d3d;stroke:#231f20;stroke-width:15px;stroke-linecap:round;stroke-linejoin:round" d="M151.498 116.26V20.62"/><path class="cls-17" d="M68.238 63.09s57.44 24.55 34.27 94.45" id="path284" style="fill:#ed1d3d;stroke:#231f20;stroke-width:15px;stroke-linecap:round;stroke-linejoin:round"/><path class="cls-17" d="M234.758 63.09s-57.44 24.55-34.27 94.45" id="path286" style="fill:#ed1d3d;stroke:#231f20;stroke-width:15px;stroke-linecap:round;stroke-linejoin:round"/><path class="cls-6" d="M228.398 229.88q2.78-.45 5.37-.74c14-2.22 50.67-10 54.82-31.22 0 0-1.58-24.27-83.16-32.59l.4-19.4s-2-24.55-48.31-25.34h-13.35c-46.33.79-48.31 25.34-48.31 25.34l.39 19.4c-81.57 8.32-83.16 32.59-83.16 32.59 5.15 26.25 60.19 32 60.19 32s97.17 9.55 155.12-.04z" id="path288" style="fill:#f2b316"/><path class="cls-8" d="M230.098 222.28q2.82-.46 5.48-.76c14.28-2.27 51.77-10.24 56-31.9 0 0-1.62-24.8-85-33.3l.4-19.83s-2-25.08-49.37-25.89h-13.59c-47.34.81-49.36 25.89-49.36 25.89l.4 19.83c-83.36 8.5-85 33.3-85 33.3 5.29 26.83 61.51 32.66 61.51 32.66s99.31 9.81 158.53 0z" id="path290" style="fill:#231f20"/><path class="cls-10" d="M168.328 184.64c29.13.47 25.9-14.21 25.9-14.21l-2.66-34.59c-3.56-12.5-28-15-39.73-15.25-11.73-.25-41.16 3.16-44.6 15.25l-2.7 34.59s-3.23 14.68 25.9 14.21z" id="path292" style="fill:#7f4d1b"/><path class="cls-8" d="M150.838 143.11s-5.72 35.31 17.49 41.53c23.21 6.22 36.52-15.36 36.52-15.36l-7.61-42.87-35.55-8.87" id="path294" style="fill:#231f20"/><path d="M204.628 177.28s-1.61 16.16-30.75 16.65h-50.76c-29.14-.49-30.76-16.65-30.76-16.65-3.23 26.4 30.21 26.4 30.21 26.4h51.84s33.46 0 30.22-26.4z" id="path296" style="fill:#494949"/><path class="cls-10" d="M76.298 174.54s-22.5 37 65.16 39.93a298.77 298.77 0 0 1-40.68-1.83c-18.76-1.92-37.27-6.12-55.83-9.7-6.09-1.17-22.29-5.78-15.87-14.92 2.93-4.18 8.85-6.29 13.44-7.83a95.29 95.29 0 0 1 13.76-3.28c2.78-.49 19.03-.73 20.02-2.37z" id="path298" style="fill:#7f4d1b"/><ellipse class="cls-8" cx="150.708" cy="134.12" rx="19.83" ry="16.55" id="ellipse300" style="fill:#231f20"/><path d="M220.348 212.28s70.32-13.83 46-31z" id="path302" style="fill:#ed1d3d"/><path class="cls-6" id="polygon304" style="fill:#f2b316" transform="translate(-106.432 -781.72)" d="m307.24 843.01-16.46-9.73-16.46 9.73v-11.5l16.46-9.73 16.46 9.73z"/><path class="cls-6" id="polygon306" style="fill:#f2b316" transform="translate(-106.432 -781.72)" d="m307.24 862.41-16.46-9.73-16.46 9.73v-11.5l16.46-9.73 16.46 9.73z"/><path class="cls-6" id="polygon308" style="fill:#f2b316" transform="translate(-106.432 -781.72)" d="m241.23 843.01-16.45-9.73-16.47 9.73v-11.5l16.47-9.73 16.45 9.73z"/><path class="cls-6" id="polygon310" style="fill:#f2b316" transform="translate(-106.432 -781.72)" d="m241.23 862.41-16.45-9.73-16.47 9.73v-11.5l16.47-9.73 16.45 9.73z"/><path class="cls-8" id="polygon312" style="fill:#231f20" transform="translate(-106.432 -781.72)" d="m202.73 930.2-21.06-12.45-21.05 12.45v-14.71l21.05-12.45 21.06 12.45z"/><path class="cls-8" id="polygon314" style="fill:#231f20" transform="translate(-106.432 -781.72)" d="m351.99 930.2-21.05-12.45-21.06 12.45v-14.71l21.06-12.45 21.05 12.45z"/></svg>