<svg xmlns="http://www.w3.org/2000/svg" id="Layer_1" data-name="Layer 1" version="1.1" width="354.671" height="229.491"><defs id="defs22"><linearGradient id="linear-gradient" x1="81.41" y1="924.43" x2="426.82" y2="924.43" gradientUnits="userSpaceOnUse" gradientTransform="translate(-75.928 -809.687)"><stop offset="0" stop-color="#3f3f3f" id="stop4"/><stop offset=".2" stop-color="#343536" id="stop6"/><stop offset=".5" stop-color="#2c2e2f" id="stop8"/><stop offset="1" stop-color="#292c2d" id="stop10"/></linearGradient><linearGradient id="linear-gradient-2" x1="699.63" y1="944.15" x2="912" y2="944.15" gradientUnits="userSpaceOnUse"><stop offset="0" stop-color="#292c2d" id="stop13"/><stop offset=".2" stop-color="#333435" id="stop15"/><stop offset=".54" stop-color="#3c3c3d" id="stop17"/><stop offset="1" stop-color="#3f3f3f" id="stop19"/></linearGradient><style id="style2">.cls-7{fill:#878787}.cls-8{fill:#646666}.cls-10{fill:#bababa}.cls-13{fill:#ed310c}.cls-21{fill:none;stroke-miterlimit:10;stroke:#e8cf1f;stroke-width:4.04px}</style></defs><path d="M107.322 190.243c.88 5.06 5 17.66 5.46 18.63 12.78 26.34 50.59 17.6 68.26 2.18a62.87 62.87 0 0 0 9.78-10.83c.81-1.13 6.45-12.08 6.8-12.07 0 0 38.68 1.19 76.94-21.42a81.56 81.56 0 1 0-70.49-130.31c-37.11 1.59-51.75 19.79-51.75 19.79-114.1.82-146.82 56-146.82 56l38.51 15.44-18.57 22.39 47 42.13 33.29-3.86s.99-.87 1.59 1.93z" id="path294" style="fill:url(#linear-gradient);stroke:#7fccea;stroke-width:7.55999994px;stroke-miterlimit:10"/><circle cx="274.302" cy="81.863" r="51.51" id="circle296" style="fill:#292c2d;stroke:#e8cf1f;stroke-width:4.03999996px;stroke-miterlimit:10"/><path d="M215.362 73.943c14.26-3.36 32.33-2.07 41.48 11 11.94 17 3.65 38.43-8.2 52.8l-15 5.86-24.37-52" id="path298" style="fill:#292c2d"/><path class="cls-21" d="M250.242 36.313s71.26 11.34 63.63 78.52" id="path300" style="fill:none;stroke:#e8cf1f;stroke-width:4.03999996px;stroke-miterlimit:10"/><path class="cls-21" d="M242.622 71.043s1.11-13.61 23.78-15.65c22.67-2.04 26-21.78 26-21.78" id="path302" style="fill:none;stroke:#e8cf1f;stroke-width:4.03999996px;stroke-miterlimit:10"/><path class="cls-21" d="M325.812 81.863s-29.07-8.78-30.8 12.41c-1.73 21.19-10.55 24.65-28.61 22.49" id="path304" style="fill:none;stroke:#e8cf1f;stroke-width:4.03999996px;stroke-miterlimit:10"/><path class="cls-21" id="line306" style="fill:none;stroke:#e8cf1f;stroke-width:4.03999996px;stroke-miterlimit:10" d="m291.992 67.213 22.45-17.63"/><path class="cls-7" d="M169.252 175.943c-5.93-12.36-22.79-20.63-31.81-23.63-9.78-3.19-20.67-4.07-32.37-2.61a103.47 103.47 0 0 0-32.49 9.6l9.92 6.9a94.31 94.31 0 0 1 23.85-6.21c10.17-1.27 19.55-.53 27.87 2.18 10 3.26 22 10.56 25.68 18.22 1.61 3.34.85 6.51-2.24 9.43-4 3.8-10.69 5.41-14.26 3.43-3.72-2.06-3.32-8.07-2.63-11.85l.43-.94a10.71 10.71 0 0 0-10.56-1.29c-2.83 14.83 3.62 20.87 7.74 23.15a18.23 18.23 0 0 0 8.9 2.15 26.11 26.11 0 0 0 17.5-7.1c6.37-5.97 8.04-14 4.47-21.43z" id="path308" style="fill:#878787"/><path class="cls-7" d="M250.302 143.813c-15.73 9.12-34.43 12.83-51.8 10-11.16-1.84-21.46-6.94-32.37-12.34-9-4.47-18.39-9.09-28.31-11.7a105.08 105.08 0 0 0-45.07-2c-15.58 2.81-30 9-40.53 17.46l8.95 6.23c9-6.44 20.71-11.19 33.41-13.48a94.7 94.7 0 0 1 40.6 1.86c8.9 2.34 17.38 6.53 26.35 11 11.11 5.5 22.6 11.18 35.28 13.27a82.75 82.75 0 0 0 13.36 1.08 91.23 91.23 0 0 0 52.35-16.88 38.24 38.24 0 0 1-12.22-4.5z" id="path310" style="fill:#878787"/><path class="cls-7" d="M203.232 63.213c-5.1-3.56-11.55-4.31-16.45-1.9-2.69 1.33-7.27 4.8-7.64 13.07v.35l.11 1.22c2.67 2.05 6.33 2.63 9.15 2.72l1.49-.13-.36-4c.11-1.49.53-3.26 1.85-3.91 1.48-.73 4-.27 5.92 1.09a6.79 6.79 0 0 1 3.06 6.43c-.4 3.71-1.8 6.33-4.41 8.24-10.09 7.39-34.49 2.49-49.07-.44-3.45-.69-6.43-1.29-8.86-1.67-18.93-3-36-3.42-50.84-1.4-19.9 2.71-35.68 9.94-46.9 21.47l.31.29 9.81 4.38c22-19.53 58.6-18.76 86-14.49 2.2.34 5.08.92 8.41 1.59 17.3 3.47 43.46 8.73 57.24-1.36 5-3.65 7.87-8.87 8.59-15.5a17.12 17.12 0 0 0-7.41-16.05z" id="path312" style="fill:#878787"/><path class="cls-7" d="M252.012 99.453c-.84-7.41-5.88-12.73-13.47-14.24-9-1.78-19 2.25-22.79 9.18-5 9 1.66 17.54 4.77 20.84l.54.57a21.21 21.21 0 0 0 8-6.67l-1-1c-2.31-2.44-4.74-5.94-3.22-8.68 1.66-3 7.23-4.92 11.69-4 4.71.94 5.08 4.18 5.2 5.24.86 7.57-3.05 17.83-8.37 22-16.6 12.9-37.54 4.63-57.79-3.37-5.47-2.16-10.64-4.2-15.71-5.83-35.22-11.26-63.57-12.07-89.23-2.54l12.13 7c21.21-5.63 45-3.86 73.94 5.4 4.74 1.52 9.75 3.5 15.06 5.59 10.8 4.27 22 8.68 33.35 10.24a59.16 59.16 0 0 0 8 .57 41.86 41.86 0 0 0 26.57-8.89c9.15-7.18 13.45-21.55 12.33-31.41z" id="path314" style="fill:#878787"/><path class="cls-10" d="M198.502 153.783a62.5 62.5 0 0 1-6.07-1.33 23.53 23.53 0 0 1 2.5 11.21c.62.13 1.25.25 1.88.35a82.75 82.75 0 0 0 13.36 1.08 91.23 91.23 0 0 0 52.35-16.78 38.24 38.24 0 0 1-12.22-4.45c-15.73 9.07-34.43 12.78-51.8 9.92z" id="path316" style="fill:#bababa"/><path class="cls-10" d="M238.542 85.213c-9-1.78-19 2.25-22.79 9.18-5 9 1.66 17.54 4.77 20.84l.54.57a21.21 21.21 0 0 0 8-6.67l-1-1c-2.31-2.44-4.74-5.94-3.22-8.68 1.66-3 7.23-4.92 11.69-4 4.71.94 5.08 4.18 5.2 5.24.86 7.57-3.05 17.83-8.37 22-15.66 12.16-35.18 5.5-54.34-2a45 45 0 0 1 .43 11.28c8.39 3.19 17 6.05 25.66 7.24a59.16 59.16 0 0 0 8 .57 41.86 41.86 0 0 0 26.57-8.89c9.13-7.1 13.43-21.51 12.31-31.33-.82-7.52-5.86-12.84-13.45-14.35z" id="path318" style="fill:#bababa"/><path class="cls-10" d="M202.072 94.753c5-3.65 7.87-8.87 8.59-15.5a17.12 17.12 0 0 0-7.43-16c-5.1-3.56-11.55-4.31-16.45-1.9-2.69 1.33-7.27 4.8-7.64 13.07v.35l.11 1.22c2.67 2.05 6.33 2.63 9.15 2.72l1.49-.13-.36-4c.11-1.49.53-3.26 1.85-3.91 1.48-.73 4-.27 5.92 1.09a6.79 6.79 0 0 1 3.06 6.43c-.4 3.71-1.8 6.33-4.41 8.24-8.11 5.95-25.48 3.94-39.55 1.4a65.69 65.69 0 0 1 13.29 12.37c12.19 1.11 24.38.41 32.38-5.45z" id="path320" style="fill:#bababa"/><path class="cls-8" d="M119.182 149.143a83.59 83.59 0 0 0-14.11.6 103.47 103.47 0 0 0-32.49 9.6l9.92 6.9a94.31 94.31 0 0 1 23.85-6.21 74.06 74.06 0 0 1 12.51-.53 24.8 24.8 0 0 0 .32-10.36z" id="path322" style="fill:#646666"/><path class="cls-8" d="M113.782 136.593a57.43 57.43 0 0 0-9.23-10.28 95.75 95.75 0 0 0-11.8 1.38c-15.57 2.8-30 9-40.53 17.45l8.95 6.23c9-6.44 20.71-11.19 33.41-13.48a90.59 90.59 0 0 1 19.2-1.3z" id="path324" style="fill:#646666"/><path class="cls-8" d="M82.742 117.873a91 91 0 0 1 10-2.07 26.14 26.14 0 0 0 2-10.75 103.84 103.84 0 0 0-24.09 5.8z" id="path326" style="fill:#646666"/><path class="cls-8" d="M91.072 92.873a43.28 43.28 0 0 0-7.41-9.47c-18.26 3-32.86 10.09-43.42 20.94l.31.29 9.81 4.38c10.95-9.7 25.5-14.4 40.71-16.14z" id="path328" style="fill:#646666"/><path class="cls-13" id="polygon330" style="fill:#ed310c" transform="translate(-75.928 -809.687)" d="m339.51 883.58 10.62 2.77 10.95-2.77-7.35 7.35-3.6 11.11-2.61-10.95z"/><path class="cls-13" id="polygon332" style="fill:#ed310c" transform="translate(-75.928 -809.687)" d="m339.51 895.92 10.62-2.78 10.95 2.78-7.35-7.36-3.6-11.11-2.61 10.95z"/></svg>