<svg xmlns="http://www.w3.org/2000/svg" id="Layer_1" width="250.01" height="273.33" data-name="Layer 1" viewBox="0 0 250.01 273.33"><defs id="defs10945"><clipPath id="clippath"><path id="path10942" d="M815.97 985.14c-19.1 18.81-45.25 30.56-74.05 30.56-57.88 0-104.9-46.72-104.9-104.6s47.01-104.9 104.9-104.9c28.8 0 54.95 11.75 74.05 30.56l-28.21 28.21c-11.75-11.75-27.92-19.1-45.84-19.1-36.14 0-65.23 29.09-65.23 65.23s29.09 64.94 65.23 64.94c17.92 0 34.09-7.35 45.84-19.1l28.21 28.21z" style="fill:none"/></clipPath><style id="style10940">.cls-13{fill:#527890}</style></defs><g id="g11153" transform="translate(-605.11 -774.27)"><g id="g11133"><path id="path11129" d="M741.92 1040.28c-71.39 0-129.48-57.95-129.48-129.18s58.08-129.48 129.48-129.48c34.23 0 66.65 13.36 91.29 37.62l12.39 12.19a7.35 7.35 0 0 1 2.19 5.2c0 1.95-.77 3.83-2.15 5.21l-52.69 52.7a7.32 7.32 0 0 1-5.18 2.15c-1.94 0-3.81-.77-5.18-2.15l-12.2-12.2c-7.67-7.67-17.78-11.9-28.46-11.9s-21.14 4.21-28.79 11.86-11.86 17.87-11.86 28.79c0 22.25 18.24 40.36 40.65 40.36 10.68 0 20.79-4.23 28.46-11.9l12.2-12.19a7.317 7.317 0 0 1 10.36 0l52.69 52.7a7.37 7.37 0 0 1 2.15 5.21c0 1.95-.8 3.82-2.19 5.2l-12.39 12.2c-24.64 24.26-57.06 37.62-91.29 37.62z" style="fill:#111"/><path id="path11131" d="M741.92 788.95c32.29 0 62.89 12.61 86.15 35.52l12.39 12.19-52.69 52.7-12.2-12.2c-9.06-9.06-21.01-14.05-33.64-14.05s-24.94 4.98-33.97 14.01c-9.04 9.04-14.01 21.1-14.01 33.97 0 26.3 21.52 47.69 47.98 47.69 12.64 0 24.59-4.99 33.65-14.05l12.2-12.19 52.69 52.7-12.39 12.2c-23.26 22.9-53.85 35.52-86.15 35.52-67.35 0-122.15-54.66-122.15-121.85s54.79-122.15 122.15-122.15m-.01-14.68c-75.44 0-136.81 61.37-136.81 136.81s61.37 136.51 136.81 136.51c36.17 0 70.41-14.11 96.43-39.73l12.39-12.19c2.78-2.74 4.36-6.48 4.38-10.39s-1.53-7.66-4.29-10.42l-52.69-52.7a14.63 14.63 0 0 0-10.37-4.29c-3.75 0-7.5 1.43-10.37 4.29l-12.2 12.19c-6.29 6.29-14.56 9.76-23.28 9.76-18.37 0-33.32-14.82-33.32-33.03 0-8.96 3.45-17.34 9.72-23.61 6.27-6.26 14.65-9.72 23.6-9.72s16.99 3.46 23.28 9.75l12.2 12.2a14.66 14.66 0 0 0 10.37 4.29c3.89 0 7.62-1.54 10.37-4.29l52.69-52.7a14.657 14.657 0 0 0-.09-20.81L838.35 814c-26.02-25.62-60.27-39.73-96.43-39.73z" style="fill:#bc8053"/></g><path id="path11135" d="M815.97 985.14c-19.1 18.81-45.25 30.56-74.05 30.56-57.88 0-104.9-46.72-104.9-104.6s47.01-104.9 104.9-104.9c28.8 0 54.95 11.75 74.05 30.56l-28.21 28.21c-11.75-11.75-27.92-19.1-45.84-19.1-36.14 0-65.23 29.09-65.23 65.23s29.09 64.94 65.23 64.94c17.92 0 34.09-7.35 45.84-19.1l28.21 28.21z" style="fill:#33607a"/><g id="g11151" style="clip-path:url(#clippath)"><g id="g11149"><path id="rect11137" d="M651.82 720.75h5.17v384.64h-5.17z" class="cls-13"/><path id="rect11139" d="M677.69 720.75h5.17v384.64h-5.17z" class="cls-13"/><path id="rect11141" d="M703.57 720.75h5.17v384.64h-5.17z" class="cls-13"/><path id="rect11143" d="M729.44 720.75h5.17v384.64h-5.17z" class="cls-13"/><path id="rect11145" d="M755.31 720.75h5.17v384.64h-5.17z" class="cls-13"/><path id="rect11147" d="M781.18 720.75h5.17v384.64h-5.17z" class="cls-13"/></g></g></g></svg>