<svg xmlns="http://www.w3.org/2000/svg" id="Layer_1" data-name="Layer 1" version="1.1" width="290.822" height="299.85"><defs id="defs4"><style id="style2">.cls-2{stroke:#2966ef;stroke-miterlimit:10;fill:none;stroke-width:9.08px}.cls-4{fill:#c11616}</style></defs><circle class="cls-2" cx="171.99" cy="234.81" r="60.5" id="circle42" style="fill:none;stroke:#2966ef;stroke-width:9.07999992px;stroke-miterlimit:10"/><path class="cls-2" d="M34.07 290.04s7.7-10.45 18.7-1.65c11 8.8 18.15.55 18.15.55" id="path44" style="fill:none;stroke:#2966ef;stroke-width:9.07999992px;stroke-miterlimit:10"/><path class="cls-2" d="M68.49 290.86s7.7-10.45 18.7-1.65c11 8.8 18.15.55 18.15.55" id="path46" style="fill:none;stroke:#2966ef;stroke-width:9.07999992px;stroke-miterlimit:10"/><path class="cls-2" d="M105.03 290.04s7.7-10.45 18.7-1.65c11 8.8 18.15.55 18.15.55" id="path48" style="fill:none;stroke:#2966ef;stroke-width:9.07999992px;stroke-miterlimit:10"/><path class="cls-2" d="M231.07 228.48c11 8.81 18.15.55 18.15.55" id="path50" style="fill:none;stroke:#2966ef;stroke-width:9.07999992px;stroke-miterlimit:10"/><path class="cls-2" d="M247.57 230.96s7.69-10.44 18.68-1.66c8.17 6.52 15.69 4.46 20.74-3.49" id="path52" style="fill:none;stroke:#2966ef;stroke-width:9.07999992px;stroke-miterlimit:10"/><path class="cls-2" id="line54" style="fill:none;stroke:#2966ef;stroke-width:9.07999992px;stroke-miterlimit:10" d="m176.49 239.98 28.67 40"/><path class="cls-2" d="M149.82 289.31s31.34-20.67 10.67-46.67" id="path56" style="fill:none;stroke:#2966ef;stroke-width:9.07999992px;stroke-miterlimit:10"/><path class="cls-2" d="m183.16 215.98 11.33 17.33s20 24.67 38.67 8" id="path58" style="fill:none;stroke:#2966ef;stroke-width:9.07999992px;stroke-miterlimit:10"/><path class="cls-2" id="line60" style="fill:none;stroke:#2966ef;stroke-width:9.07999992px;stroke-miterlimit:10" d="m119.16 266.64 100.66-64"/><path d="M177.67 50.84 86.49 37.43 24.66 236.65l159 12.46 12.83-58.53-8.06-41 22.38-24.23s10.61-58.49-33.14-74.51z" id="path62" style="fill:#020202"/><path id="polyline278" style="fill:#2966ef" transform="translate(-584.51 -349.69)" d="m609.26 585.34 158.91 13.46-183.66 2.59 86.45-214.27"/><path d="M173.24 190.57c-2.88-17-5.77-34.71-8.61-52.65l-.19-1.18 1.45-.67c9.12-4.19 20.61-14.19 23-28.54a36.7 36.7 0 0 0-7.72-28.7c-7.27-9.14-18.83-15.2-32.55-17.06h-.27c-2.32-.45-42-5.69-42.22-4.35l-29.09 133.2 4.46.1c11.13.24 16.56.39 27.62.75l3.5.11 11.48-52.27 6.25.61.2 1.79c1.79 16.26 3.68 32.47 5.6 48.2l.32 2.62 3.3.15c11.76.53 17.5.82 29.24 1.48l4.88.27zm-25.85-75.38c-2.15 1.58-4.69 2.14-13.3 1.08l-4.81-.59 5.56-25.37-11.68-7.78 13.08 1.42 4.58.79c7.94 1.36 10.15 2.56 11.63 4.43 1.78 2.25 2.94 7.39 1.53 13.8-1.15 5.27-3.8 10.17-6.59 12.22z" id="path280" style="fill:#fff;stroke:#c11616;stroke-width:3.95000005px;stroke-miterlimit:10"/><path class="cls-4" id="polygon282" style="fill:#c11616" transform="translate(-584.51 -349.69)" d="m753.45 577.67-121.32-9.25 17.86-54.46-8.22 41.7L758.53 560z"/><path class="cls-4" id="polyline284" style="fill:#c11616" transform="translate(-584.51 -349.69)" d="m704.8 562.62 4.8-31.4 3.69 33.36"/><path id="polygon286" transform="translate(-584.51 -349.69)" d="m736.5 480-8.5 2.5 16 49.5z"/><path id="polygon292" transform="translate(-584.51 -349.69)" d="m703.61 373.05-76.17-23.36 34.82 21.99-19.8 5.1 34.28 24.45 38.99-2.47-12.07-4.84 16.89-.29-43.82-13.84z"/><path id="polyline294" transform="translate(-584.51 -349.69)" d="M676.73 379.79 767 402.33 693 399"/></svg>