<svg xmlns="http://www.w3.org/2000/svg" id="Layer_1" width="487.787" height="499.651" data-name="Layer 1" version="1.1"><defs id="defs235"><style id="style233">.cls-6{fill:#3a3839;stroke-width:0}</style></defs><g id="g259" transform="translate(-55.79 -50.189)"><path id="path239" d="m536.79 254.27-85.32-60.33c-2.1-1.49-4.53-2.45-7.09-2.8l-20.6-2.83v-74.09c0-5.23-2.54-10.13-6.82-13.14a16.05 16.05 0 0 0-14.67-1.98l-61.12 21.97-265.2-70.34c-7.21-1.92-14.78 1.39-18.29 7.97s-2.03 14.71 3.58 19.62l83.29 73.1-10.86 5.13a16.064 16.064 0 0 0-2.59 27.51l65.99 48-49.51 63.38c-3.12 4-4.17 9.23-2.83 14.13l41.13 150.3a16.058 16.058 0 0 0 26.34 7.6l35.66-32.7 91.74 109.33a16.077 16.077 0 0 0 16.17 5.27 16.058 16.058 0 0 0 11.83-12.21l46.76-217.5 117.93-36.92a16.06 16.06 0 0 0 4.48-28.44z" style="fill:#fff;stroke-width:0"/><g id="g257"><path id="polygon241" d="m407.72 114.23-104.1 37.42-94.29-44.17h-86.65l95.95 48.54 189.09 147.57z" class="cls-6" style="fill:#3a3839;stroke-width:0"/><path id="polygon243" d="M210.5 204.55h8.13v-19.41h-20.26z" style="fill:#ffad00;stroke-width:0"/><g id="g255"><path id="polygon245" d="M352.35 140.67 71.85 66.25l101.68 89.23-32.98 15.59 79.43 57.77-59.75 76.48 41.13 150.29 48.03-44.04 102.53 122.18 48.73-226.65 126.87-39.71-85.32-60.34-40.53-5.56z" class="cls-6" style="fill:#3a3839;stroke-width:0"/><path id="polygon247" d="m184.59 304.89 62.38-79.84-54.89-39.92 43.24-4.15-81.5-65.7 187.95 42.41 49.9 61.54 42.42 5.82 41.58 35.76-91.48 31.61-39.09 203.75z" style="fill:#e9001e;stroke:#3a3839;stroke-width:18.93000031px;stroke-miterlimit:10"/><path id="polygon249" d="m314.75 260.08 22.08 81.18 40.77-14.48 6.59-34.36 91.48-31.61-41.58-35.76-42.42-5.82-107.38-22.16 38.66 22.5 10.81 32.59z" style="fill:#3a3839;stroke:#3a3839;stroke-width:18.93000031px;stroke-miterlimit:10"/><path id="path251" d="m434.09 225.05-9.04-1.24s-59.41 17.58-61.49 76.44l20.63-7.84 100.95-31.6z" style="fill:#fff;stroke:#3a3839;stroke-width:18.93000031px;stroke-miterlimit:10"/><path id="path253" d="M338.29 214.6v.02l.91 5c8.75 37.72 35.94 14.04 40.78 9.45z" style="fill:#009adf;stroke-width:0"/></g></g></g></svg>