<svg xmlns="http://www.w3.org/2000/svg" id="Layer_1" width="344.155" height="353.73" data-name="Layer 1" viewBox="0 0 344.155 353.73"><defs id="defs4"><style id="style2">.cls-2{fill:#c1102e}.cls-7{fill:#f9edd0}.cls-8{fill:#b36473}</style></defs><g id="g26" transform="translate(-547.84 -182.85)"><path id="polyline6" d="M689.5 271.72h-90.07l81.62 22.3" class="cls-2"/><path id="polyline8" d="M708.94 306.02h-161.1l145.98 40.82" class="cls-2"/><g id="g24"><path id="path10" d="m667.67 502.43 56.93-18.12c13.62 18.16 29.22 26.36 39.84 26.36 1.49 0 2.88-.16 4.16-.48 10.35-2.59 23.29-25.88 23.29-25.88h10.35v-18.12h23.29v-44l2.59-12.94 19.41 1.29c12.94-10.35 20.7-41.41 18.12-69.87-2.59-28.47-49.17-59.52-49.17-59.52 21.73 27.66 26.88 63.58 28.09 79.03.13.4.25.8.38 1.2 0 0 0 3.59-.38-1.2-10.71-33.3-41.22-68.8-56.56-79.03-15.53-10.35-49.17-23.29-49.17-23.29 10.35 23.29 36.23 38.82 36.23 38.82 41.41 31.06 46.58 75.05 46.58 75.05-20.7-56.93-69.87-67.29-85.4-77.64s-41.41-49.17-41.41-49.17c0 67.29 75.05 100.93 75.05 100.93-59.52-18.12-85.4-46.58-85.4-46.58-3.62 15.93-4.4 28-3.65 37.14l14 27.56-10.35 31.06-.23.04-5.32 15.63-66.91 17.98 54.35 28.47 1.29 45.29z"/><path id="path12" d="m732.09 410.49-2.59-23.29 10.35-2.59v-9.9c0-4.34-2.13-8.4-5.71-10.85-2.97-2.04-6.64-2.78-10.16-2.04l-1.49.31a13.19 13.19 0 0 0-10.23 10.31l-3.47 17.35s0 23.29 23.29 20.7z" class="cls-7"/><path id="path14" d="m812.32 405.32 2.59-7.76-17.1-12.44a18.04 18.04 0 0 0-22.16.73l-9.29 7.74c-6.43 5.36-8.33 14.44-4.59 21.92l6.55 13.1s-20.7 23.29-25.88 41.41c0 0 5.18 15.53 18.12 20.7 0 0 7.76-7.76 12.94-15.53v-10.35l15.53-2.59 2.59-18.12h15.53v-31.06s-10.35 5.18-18.12-5.18c-7.76-10.35-2.59-18.12 10.35-10.35l12.94 7.76z" class="cls-7"/><path id="path16" d="m727.25 379.98 2.25 7.22 10.35-2.59v-9.5c0-2.74-.68-5.48-2.23-7.74-3.13-4.59-8.54-6.62-13.65-5.55l-1.51.32a13.19 13.19 0 0 0-10.21 10.31l-1.2 5.98.06-.12c3.55-6.88 13.81-5.71 16.12 1.68z" class="cls-8"/><path id="path18" d="m752 485.02 28.92-48.83-13.89-29.58L792 382.34c-5.58-1.54-11.71-.37-16.35 3.5l-9.29 7.74c-6.43 5.36-8.33 14.44-4.59 21.92l6.55 13.1s-20.7 23.29-25.88 41.41c0 0 2.84 8.49 9.55 15.01z" class="cls-8"/><path id="path20" d="m847.53 410.56-19.41-1.29-2.59 12.94v44h-23.29v18.12h-10.35s-12.94 23.29-23.29 25.88c-1.27.32-2.67.48-4.16.48-10.62 0-26.22-8.2-39.84-26.36l-56.93 18.12 33.29 16.57 15.48-4.93c14.91 14.31 32.04 22.49 48 22.49 3.6 0 7.11-.42 10.44-1.25 12.59-3.15 23.2-13.78 31.28-25.11h21.96V492.1h23.29v-55.32l4.43.3 7.85-6.28c23.14-18.51 30.59-60.88 27.72-92.43-3.53-38.83-51.09-72.38-60.59-78.71l-41.09-11.19a280.7 280.7 0 0 1-93.3-45.26l-27.48-20.36v62.11q0 1.965.06 3.9l-9.77 44.71c-2.25 9.88-3.64 19.1-4.21 27.68-.24 26.71 7.22 52.28 34.2 59.55l5.6-16.79c14.76-5.62-11.67-12.19-10.35-64.7 0 0 25.88 28.47 85.4 46.58 0 0-75.05-33.64-75.05-100.93 0 0 25.88 38.82 41.41 49.17s64.7 20.7 85.4 77.64c0 0-5.18-44-46.58-75.05 0 0-25.88-15.53-36.23-38.82 0 0 33.64 12.94 49.17 23.29 15.34 10.23 45.85 45.73 56.56 79.03-1.22-15.44-6.36-51.37-28.09-79.03 0 0 46.58 31.06 49.17 59.52 2.59 28.47-5.18 59.52-18.12 69.87z" class="cls-2"/><path id="path22" d="m661.55 357.46 17.38 53.23 22.18-49.15s-10.23-19.55-13.43-30.55c-3.2-11.01-3.2 14.87-3.2 14.87" class="cls-2"/></g></g></svg>