<svg xmlns="http://www.w3.org/2000/svg" id="Layer_1" data-name="Layer 1" version="1.1" width="278.18" height="279.099"><defs id="defs4"><style id="style2">.cls-2{fill:#2b2e81}.cls-6{fill:#fff}.cls-10,.cls-11,.cls-12{stroke-miterlimit:10;fill:none;stroke:#fff}.cls-10{stroke-width:6.44px}.cls-11{stroke-width:3px}.cls-12{stroke-width:2.49px}</style></defs><path d="M278.07 128.97a139.39 139.39 0 0 0-278 0z" id="path180" style="fill:#be2026"/><path class="cls-2" d="M0 148.99a139.4 139.4 0 0 0 278.18 0z" id="path182" style="fill:#2b2e81"/><path id="rect184" style="fill:#be2026;stroke:#fff;stroke-width:6.44000006px;stroke-miterlimit:10" d="M34.72 42.08h93.3v55.78h-93.3z"/><path class="cls-10" id="line186" style="fill:none;stroke:#fff;stroke-width:6.44000006px;stroke-miterlimit:10" d="m62.97 98.93 9.3 34.33"/><path class="cls-10" id="line188" style="fill:none;stroke:#fff;stroke-width:6.44000006px;stroke-miterlimit:10" d="m98.03 98.93-9.3 34.33"/><path class="cls-6" id="rect190" style="fill:#fff" d="M62.09 56.36h37.97V88.7H62.09z"/><path class="cls-11" d="M83.9 57.09c3.2-7.46 4.44-18.69 7.7-26.14 3-6.92 9.07-12.19 15.43-16 21.48-12.87 46.21-9.09 69.11 6.75 31.68 21.92 44.61 65.52 52.9 102.12 5 22.23 4.88 44 5.57 66.7v74.88" id="path192" style="fill:none;stroke:#fff;stroke-width:3px;stroke-miterlimit:10"/><path class="cls-11" d="M84.15 62.31c3-7.13 3.87-15 6.88-22.08 2.79-6.6 8.34-11.63 14.2-15.28 19.78-12.29 42.54-8.68 63.63 6.45 29.15 20.94 41.06 62.57 48.69 97.53 4.63 21.24 4.5 42.07 5.13 63.71v82.52" id="path194" style="fill:none;stroke:#fff;stroke-width:3px;stroke-miterlimit:10"/><path class="cls-11" d="M81.15 67.83c2.76-6.66 3.61-14 6.42-20.63a29.51 29.51 0 0 1 11.78-14.28c10.3-6.4 22.79-10.42 35-8.68 20.56 2.93 39.85 25 49.62 42 11.26 19.59 17.11 41.89 21.93 63.82 4.34 19.84 4.21 39.3 4.8 59.51v81.1" id="path196" style="fill:none;stroke:#fff;stroke-width:3px;stroke-miterlimit:10"/><path class="cls-11" d="M81.15 71.69c2.47-6.68 3.23-14 5.75-20.69 2.33-6.19 7-10.91 11.89-14.32 16.55-11.53 35.6-8.14 53.25 6 24.4 19.62 34.36 58.64 40.75 91.41 3.88 19.89 3.76 39.42 4.29 59.69v81.34" id="path198" style="fill:none;stroke:#fff;stroke-width:3px;stroke-miterlimit:10"/><path d="M92.9 72.52a11.86 11.86 0 1 1-11.86-11.85 11.69 11.69 0 0 1 3.42.5 11.87 11.87 0 0 1 8.44 11.35z" id="path200" style="fill:#d5a833"/><path class="cls-6" d="m93.95 173.67-.87.63c-2.06 1.51-4.11 3-6.18 4.53a.75.75 0 0 0-.33 1c.87 2.59 1.69 5.19 2.52 7.79l.15.46c-.2 0-.29-.09-.4-.17-2.28-1.64-4.57-3.28-6.84-4.94a.54.54 0 0 0-.76 0c-2.27 1.64-4.55 3.26-6.82 4.89l-.54.38.58-1.87c.72-2.21 1.42-4.43 2.15-6.63a.61.61 0 0 0-.26-.81c-2.26-1.64-4.51-3.31-6.76-5-.13-.09-.29-.14-.37-.39h8.98a.51.51 0 0 0 .61-.44c.85-2.66 1.72-5.32 2.59-8a.72.72 0 0 1 .27-.49l1.29 3.94c.49 1.51 1 3 1.46 4.54.11.36.28.43.62.43h8.45c.11.05.28-.01.46.15z" id="path202" style="fill:#fff"/><path class="cls-12" id="line204" style="fill:none;stroke:#fff;stroke-width:2.49000001px;stroke-miterlimit:10" d="M64.89 107.92H80.9"/><path class="cls-12" id="line206" style="fill:none;stroke:#fff;stroke-width:2.49000001px;stroke-miterlimit:10" d="M64.89 116.19H80.9"/><path class="cls-12" id="line208" style="fill:none;stroke:#fff;stroke-width:2.49000001px;stroke-miterlimit:10" d="M70.9 124.46h10"/><path class="cls-6" d="M85.02 204.71h24.09v-36.88h23.59v15.64s15.12 10.76 32 4.1c0 0 2.3 4.36 9 3.08l1.79 13.07 3.59 6.15-.51 11 1.28 3.33s-9.23 3.34-10.77 6.41c0 0-21 4.36-12.3 25.63l-4.61 3.08-11.54-5.13-4.6-5.36v-4.61l-3.59-1.54s-4.36-8.2-5.9-12.3l-2.56-.77-2.56-4.1h-6.15l-4.11 8.2h-3.33l-7.93-6.18-2.82-7.44-8.72-9.48-3.59-3.33z" id="path210" style="fill:#fff"/><path class="cls-2" d="M137.9 198.67a62.61 62.61 0 0 1 9.38-.71c6.34 0 10.85 1.47 13.84 4.26s4.82 6.74 4.82 12.27c0 5.53-1.72 10.14-4.92 13.28-3.2 3.14-8.47 4.92-15.11 4.92a72.21 72.21 0 0 1-8-.4zm4.41 30.22a28.28 28.28 0 0 0 4.46.25c9.43 0 14.55-5.27 14.55-14.5.06-8.06-4.51-13.18-13.84-13.18a24.59 24.59 0 0 0-5.17.46z" id="path268" style="fill:#2b2e81"/></svg>