<svg xmlns="http://www.w3.org/2000/svg" id="Layer_1" width="509.275" height="488.77" data-name="Layer 1" version="1.1"><defs id="defs268"><style id="style266">.cls-1,.cls-4,.cls-5,.cls-6{stroke-width:0}.cls-4{fill:#e08200}.cls-5{fill:red}.cls-6{fill:#0050d4}</style></defs><g id="g320" transform="translate(-45.01 -55.59)"><g id="g276"><path id="path272" d="M401.1 538.41c-.63 0-1.27-.1-1.88-.31l-73.2-24.4a5.94 5.94 0 0 1-3.5-3.11l-65.17-137.86h-63.73l-9.08 29.98a5.955 5.955 0 0 1-3.46 3.79c-.72.29-1.48.44-2.24.44-1 0-2-.25-2.89-.75l-65.16-36.16a6.013 6.013 0 0 1-2.07-1.91l-56.75-85.37a5.937 5.937 0 0 1-.29-6.11 5.942 5.942 0 0 1 5.25-3.14h122.54l2.5-206.02c.04-3.26 2.7-5.89 5.96-5.89h105.31c3.29 0 5.96 2.67 5.96 5.96v74.15l144.42 51.84 46.89-14.81c.58-.18 1.19-.28 1.79-.28.73 0 1.46.13 2.15.4l39.81 15.41c2.46.95 4 3.41 3.79 6.04l-6.3 76.85 16.1 37.16c.44 1.02.59 2.14.43 3.23l-7.71 52.65a5.97 5.97 0 0 1-2.63 4.12l-134.55 88.02 3.67 69.78c.1 1.97-.77 3.86-2.34 5.05-1.05.8-2.32 1.22-3.61 1.22z" style="fill:#436431;stroke-width:0"/><path id="path274" d="M293.22 67.55v78.34l150.26 53.94 48.8-15.41 39.81 15.41-6.42 78.34 16.7 38.53-7.71 52.66-137.42 89.9 3.85 73.2-73.2-24.4-66.78-141.27h-71.92L178.82 401l-65.16-36.16-56.75-85.37h128.43l2.57-211.9h105.31m0-11.94H187.91c-6.52 0-11.84 5.25-11.92 11.77l-2.43 200.13H56.92c-4.39 0-8.43 2.42-10.5 6.29-2.07 3.87-1.85 8.57.58 12.23l56.75 85.37c1.05 1.59 2.47 2.9 4.14 3.82l65.16 36.16c1.79.99 3.78 1.5 5.78 1.5 1.52 0 3.03-.29 4.47-.87a11.89 11.89 0 0 0 6.93-7.59l7.8-25.75h55.53l63.56 134.45c1.39 2.94 3.92 5.18 7 6.21l73.2 24.4c1.23.41 2.5.61 3.77.61 2.57 0 5.12-.83 7.22-2.44a11.9 11.9 0 0 0 4.68-10.11l-3.49-66.36 131.68-86.15c2.86-1.87 4.77-4.87 5.27-8.25l7.71-52.66c.32-2.19.02-4.43-.86-6.46l-15.51-35.79 6.18-75.37c.43-5.26-2.65-10.18-7.57-12.09l-39.81-15.41c-1.38-.53-2.84-.8-4.3-.8-1.21 0-2.42.18-3.59.55l-44.97 14.2-138.59-49.75V67.51c0-6.58-5.34-11.92-11.92-11.92z" class="cls-4" style="fill:#e08200;stroke-width:0"/></g><g id="g318"><g id="g282"><path id="rect278" d="M291.62 145.97h145.59v249.4H291.62z" class="cls-1" style="stroke-width:0"/><path id="path280" d="M430.25 112.95c14.17 0 26.47 5.12 36.56 15.2 10.09 10.09 15.2 22.39 15.2 36.56v214.17c0 14.16-5.11 26.46-15.21 36.56-10.1 10.09-22.4 15.21-36.56 15.21H216.95v-81.43h28.13V194.78h-28.13v-81.83h213.29zm-103.34 81.83v154.44h73.68V194.78Z" class="cls-1" style="stroke-width:0"/></g><g id="g288"><path id="path284" d="M320.95 354.78h85.59V188.42h-85.59zm11.92-154.44h61.76v142.53h-61.76z" class="cls-4" style="fill:#e08200;stroke-width:0"/><path id="path286" d="M471.02 123.95C459.76 112.7 446.05 107 430.25 107H211v93.34h28.13v142.53H211v93.74h219.25c15.81 0 29.52-5.7 40.77-16.95 11.25-11.25 16.95-24.96 16.95-40.77V164.72c0-15.8-5.7-29.51-16.95-40.77M222.91 354.78h28.13V188.42h-28.13v-28.93h57.46v224.62h-57.46zm253.15 24.11c0 12.59-4.49 23.37-13.46 32.35-8.98 8.98-19.76 13.46-32.35 13.46H222.91v-29.33h207.34c4.55 0 8.44-1.61 11.65-4.82 3.21-3.21 4.82-7.1 4.82-11.65V164.73c0-4.55-1.61-8.44-4.82-11.65-3.21-3.21-7.1-4.82-11.65-4.82H222.91v-29.33h207.34c12.59 0 23.37 4.49 32.35 13.46 8.97 8.98 13.46 19.76 13.46 32.35v214.17zm-184.44 5.22V159.49h138.63c3.75 0 5.63 1.75 5.63 5.22v214.17c0 3.48-1.88 5.22-5.63 5.22H291.62Z" class="cls-4" style="fill:#e08200;stroke-width:0"/></g><path id="path290" d="M280.37 159.5v194.17h11.25V159.5h138.63c3.75 0 5.63 1.75 5.63 5.22v188.95h10.85V164.72c0-4.55-1.61-8.44-4.82-11.65-3.21-3.21-7.1-4.82-11.65-4.82H222.92v11.25h57.46z" class="cls-6" style="fill:#0050d4;stroke-width:0"/><path id="path292" d="M280.37 384.11V189.94h11.25v194.17h138.63c3.75 0 5.63-1.75 5.63-5.22V189.94h10.85v188.95c0 4.55-1.61 8.44-4.82 11.65-3.21 3.21-7.1 4.82-11.65 4.82H222.92v-11.25h57.46z" class="cls-6" style="fill:#0050d4;stroke-width:0"/><g id="g316"><g id="g298"><path id="path294" d="M363.38 228.92c-24.14 0-43.78 19.64-43.78 43.78s19.64 43.78 43.78 43.78 43.78-19.64 43.78-43.78-19.64-43.78-43.78-43.78" class="cls-1" style="stroke-width:0"/><path id="path296" d="M363.38 310.53c-20.89 0-37.83-16.94-37.83-37.83 0-20.89 16.93-37.83 37.83-37.83s37.83 16.94 37.83 37.83c0 20.89-16.94 37.83-37.83 37.83m0 11.91c27.43 0 49.74-22.31 49.74-49.74 0-27.43-22.31-49.74-49.74-49.74-27.43 0-49.74 22.31-49.74 49.74 0 27.43 22.31 49.74 49.74 49.74" class="cls-5" style="fill:red;stroke-width:0"/></g><path id="path300" d="M363.38 294.04c-3.29 0-5.96 2.67-5.96 5.96v31.41c0 3.29 2.67 5.96 5.96 5.96s5.96-2.67 5.96-5.96V300c0-3.29-2.67-5.96-5.96-5.96" class="cls-5" style="fill:red;stroke-width:0"/><path id="path302" d="M363.38 206.69c-3.29 0-5.96 2.67-5.96 5.96v31.41c0 3.29 2.67 5.96 5.96 5.96s5.96-2.67 5.96-5.96v-31.41c0-3.29-2.67-5.96-5.96-5.96" class="cls-5" style="fill:red;stroke-width:0"/><g id="g308"><path id="line304" d="M304 272.02h31.41" class="cls-1" style="stroke-width:0"/><path id="path306" d="M335.41 266.07H304c-3.29 0-5.96 2.67-5.96 5.96s2.67 5.96 5.96 5.96h31.41c3.29 0 5.96-2.67 5.96-5.96s-2.67-5.96-5.96-5.96" class="cls-5" style="fill:red;stroke-width:0"/></g><g id="g314"><path id="line310" d="M391.36 272.02h31.4" class="cls-1" style="stroke-width:0"/><path id="path312" d="M422.76 266.07h-31.41c-3.29 0-5.96 2.67-5.96 5.96s2.67 5.96 5.96 5.96h31.41c3.29 0 5.96-2.67 5.96-5.96s-2.67-5.96-5.96-5.96" class="cls-5" style="fill:red;stroke-width:0"/></g></g></g></g></svg>