<svg xmlns="http://www.w3.org/2000/svg" id="Layer_1" data-name="Layer 1" version="1.1" width="278.18" height="279.099"><defs id="defs4"><style id="style2">.cls-1{fill:#be2026}.cls-2{fill:#2b2e81}.cls-3{fill:#fff}</style></defs><path class="cls-1" d="M278.07 128.97a139.39 139.39 0 0 0-278 0z" id="path182" style="fill:#be2026"/><path class="cls-2" d="M0 148.99a139.4 139.4 0 0 0 278.18 0z" id="path184" style="fill:#2b2e81"/><path class="cls-1" id="rect186" style="fill:#be2026" d="M34.72 42.08h93.3v55.78h-93.3z"/><path class="cls-3" d="M131.24 101.08H31.5V38.83h99.74zM37.9 94.64h86.87V45.3H37.9z" id="path188" style="fill:#fff"/><path class="cls-3" transform="rotate(-15.005)" id="rect190" style="fill:#fff;stroke-width:1.00424099" d="M33.729 115.31h6.467v35.711h-6.467z"/><path class="cls-3" transform="rotate(-74.85)" id="rect192" style="fill:#fff" d="M-105.423 117.237h35.56v6.44h-35.56z"/><path class="cls-3" id="rect194" style="fill:#fff" d="M62.09 56.36h37.97V88.7H62.09z"/><path class="cls-3" d="M236.14 265.4h-3v-74.88c-.09-3-.17-6.12-.25-9.17-.5-19.61-1-38.14-5.29-57.2-8.63-38.13-21.59-80-52.28-101.21-23.55-16.29-47.51-18.67-67.49-6.7-7.3 4.37-12.29 9.53-14.83 15.31a82.69 82.69 0 0 0-3.82 13 85.74 85.74 0 0 1-3.87 13.18l-2.76-1.19a83.59 83.59 0 0 0 3.7-12.71 84 84 0 0 1 4-13.46c2.79-6.37 8.19-12 16-16.69 21-12.61 46.17-10.19 70.74 6.81 31.54 21.82 44.74 64.32 53.5 103 4.39 19.35 4.86 38 5.37 57.78q.1 4.57.24 9.2z" id="path196" style="fill:#fff"/><path class="cls-3" d="M224.09 275.16h-2.82v-82.53c-.08-2.9-.16-5.84-.23-8.76-.46-18.73-.89-36.43-4.87-54.64-7.95-36.42-19.88-76.4-48.13-96.68-21.66-15.55-43.7-17.82-62.06-6.4-6.73 4.18-11.32 9.1-13.66 14.63a79.74 79.74 0 0 0-3.42 11 83.92 83.92 0 0 1-3.45 11.05l-2.6-1.08a81.55 81.55 0 0 0 3.32-10.72 81.92 81.92 0 0 1 3.56-11.36c2.57-6.08 7.53-11.44 14.76-15.93 19.39-12.06 42.55-9.75 65.19 6.5 29 20.84 41.18 61.42 49.25 98.37 4 18.48 4.47 36.3 4.93 55.17.07 2.92.14 5.85.23 8.79z" id="path198" style="fill:#fff"/><path class="cls-3" d="M211.98 270.67h-2.64v-81.1c-.08-2.71-.14-5.45-.21-8.18-.43-17.51-.84-34-4.55-51.05-4.69-21.46-10.57-44-21.75-63.48-10.71-18.65-29.91-38.67-48.67-41.34-10.72-1.52-22.84 1.5-34.11 8.5-5.08 3.15-8.65 7.5-11.27 13.68a76.07 76.07 0 0 0-3.2 10.25 77.35 77.35 0 0 1-3.22 10.36l-2.43-1a76.35 76.35 0 0 0 3.1-10 77.1 77.1 0 0 1 3.33-10.62c2.83-6.7 6.74-11.43 12.3-14.88 11.79-7.34 24.54-10.48 35.87-8.87 21 3 40.36 24.83 50.58 42.63 11.36 19.78 17.31 42.56 22 64.23 3.77 17.26 4.18 33.91 4.61 51.54q.1 4.1.22 8.22z" id="path200" style="fill:#fff"/><path class="cls-3" d="M198.33 275.16h-2.49v-81.33c-.08-2.73-.14-5.47-.2-8.21-.38-17.57-.75-34.16-4.07-51.25-6.67-34.17-16.67-71.66-40.32-90.67-18.06-14.53-36.44-16.66-51.75-6-5.63 3.92-9.47 8.54-11.43 13.74a80.71 80.71 0 0 0-2.88 10.31 87.25 87.25 0 0 1-2.87 10.37l-2.34-.86a84.72 84.72 0 0 0 2.78-10.07 84 84 0 0 1 3-10.63c2.14-5.68 6.3-10.7 12.34-14.91 16.3-11.34 35.74-9.18 54.75 6.1 24.28 19.52 34.45 57.53 41.19 92.14 3.37 17.29 3.74 34 4.13 51.66.06 2.74.12 5.48.19 8.24z" id="path202" style="fill:#fff"/><path d="M92.9 72.52a11.86 11.86 0 1 1-11.86-11.85 11.69 11.69 0 0 1 3.42.5 11.87 11.87 0 0 1 8.44 11.35z" id="path204" style="fill:#d5a833"/><path class="cls-3" d="m93.95 173.67-.87.63c-2.06 1.51-4.11 3-6.18 4.53a.75.75 0 0 0-.33 1c.87 2.59 1.69 5.19 2.52 7.79l.15.46c-.2.05-.29-.09-.4-.17-2.28-1.64-4.57-3.28-6.84-4.94a.54.54 0 0 0-.76 0c-2.27 1.64-4.55 3.26-6.82 4.89l-.54.38.58-1.87c.72-2.21 1.42-4.43 2.15-6.63a.61.61 0 0 0-.26-.81c-2.26-1.64-4.51-3.31-6.76-5-.13-.09-.29-.14-.37-.39h8.98a.51.51 0 0 0 .61-.44c.85-2.66 1.72-5.32 2.59-8a.72.72 0 0 1 .27-.49l1.29 3.94c.49 1.51 1 3 1.46 4.54.11.36.28.43.62.43h8.45c.11.05.28-.01.46.15z" id="path206" style="fill:#fff"/><path class="cls-3" id="rect208" style="fill:#fff" d="M64.89 106.67H80.9v2.5H64.89z"/><path class="cls-3" id="rect210" style="fill:#fff" d="M64.89 114.94H80.9v2.5H64.89z"/><path class="cls-3" id="rect212" style="fill:#fff" d="M70.9 123.21h10v2.5h-10z"/><path class="cls-3" d="M85.02 204.71h24.09v-36.88h23.59v15.64s15.12 10.76 32 4.1c0 0 2.3 4.36 9 3.08l1.79 13.07 3.59 6.15-.51 11 1.28 3.33s-9.23 3.34-10.77 6.41c0 0-21 4.36-12.3 25.63l-4.61 3.08-11.54-5.13-4.6-5.36v-4.61l-3.59-1.54s-4.36-8.2-5.9-12.3l-2.56-.77-2.56-4.1h-6.15l-4.11 8.2h-3.33l-7.93-6.18-2.82-7.44-8.72-9.48-3.59-3.33z" id="path214" style="fill:#fff"/><path class="cls-2" d="M158.14 227.67a2.09 2.09 0 0 1 0 .46 1.81 1.81 0 0 1-.51.86l-2.89 2.84a1.82 1.82 0 0 1-.91.51 1.92 1.92 0 0 1-.41 0H137.3a.63.63 0 0 1-.71-.71v-34a.63.63 0 0 1 .71-.71h16.12a2.16 2.16 0 0 1 .46.05 2 2 0 0 1 .86.51l2.84 2.84a1.91 1.91 0 0 1 .51.86 2.16 2.16 0 0 1 0 .46zm-14.1-23.27v20.54h5.78l.71-.71a.66.66 0 0 0 .15-.36v-18.2a.12.12 0 0 0 0-.1.76.76 0 0 1-.1-.15l-.86-.86a.38.38 0 0 0-.35-.16z" id="path272" style="fill:#2b2e81"/></svg>