<svg xmlns="http://www.w3.org/2000/svg" id="Layer_1" width="496.6" height="486.7" data-name="Layer 1" version="1.1"><defs id="defs4"><style id="style2">.cls-2,.cls-5,.cls-7{stroke-width:0}.cls-2{fill:#fb9534}.cls-5{fill:#a0c3d7}.cls-7{fill:#00672a}</style></defs><g id="g88" transform="translate(-49.7 -55.6)"><path id="path8" d="M546 291.7c-1.1-6.8-4.8-13.1-22.8-30.5-9-8.6-18.9-17.4-23-20.6a198 198 0 0 0-24.7-16.6 166.2 166.2 0 0 0 5.7-64c-1.4-20-4.4-33.7-15.2-40.2-4.8-2.9-11.4-4.5-32.2-5a163.6 163.6 0 0 0-61.6 7.3 169 169 0 0 0-25.6-34.2l-.5-.6c-12.1-13-34.7-37.3-58.3-30.5-3.8 1.2-9.7 2.9-32.4 27a254.8 254.8 0 0 0-27.3 33.5l-2.1 3.9a208.8 208.8 0 0 0-61.1-6.7c-19 .9-37.6 3.6-45.5 17.7-7.1 12.8-6.3 40.4-5.2 55.7 1 14.2 3 26 5.6 35.7-20 11-42.2 31.3-66 61a18.7 18.7 0 0 0-.5 22.6c15.2 20.9 38.1 47.6 66.1 64.3a174.2 174.2 0 0 0-5 54c1 20 2.1 32.8 10.3 42.2 9.2 10.6 22.1 11.1 37 11.8h.6c14.3.6 40-.3 61.4-6 1.2 2.5 2.4 5 3.9 7.4 4.8 8.3 16.5 23.4 29.5 36.3 17.3 17 31.6 25 44.5 25 1.7 0 3.3 0 5-.3 6-1 13.3-4 35-27.2a310 310 0 0 0 24.8-30c1.2-1.8 4-6.7 6.8-12.1 12.1 3.5 24.8 5.7 37.2 6.4 22.6 1.2 47.5.5 61-14.6 5.7-6.5 8.5-16.5 9.8-34.8.7-10.7.7-22 .3-28-.6-10-2.3-20.2-5-30.4a111 111 0 0 0 8.3-4.4c7-4.3 21.4-15.6 34.6-28.3 20.7-19.9 28.7-34 26.6-46.8" style="stroke-width:0;fill:#575353"/><g id="g86"><path id="path10" fill="#fb9534" stroke-width="0" d="M273.5 399.3a121.7 121.7 0 0 1-20.9 34.7c5.5 27.2 24.7 49.2 46.2 66 22-20.2 36.5-36.2 46.1-65 .1-1.2-10.4-15-12-17.7-3.2-5.8-5.3-13.2-8.8-18 1.8-4.9 3-9.3 3.6-7.9 3.2 23.7 18.1 43.5 35 59.5a194 194 0 0 1-12 23.8c-5.9 9.2-39.4 47.4-47.2 48.7-17.1 3-51.6-37.9-59.8-51.9-3.9-6.7-6.5-14.1-9.9-21.1 18.2-15.6 34.3-36.1 37-60.5 1 3 1.7 6.3 2.7 9.4" class="cls-2"/><g id="g84"><path id="path12" fill="#fb9534" stroke-width="0" d="M233.3 144.2c-.3 26.4 1.4 43.5 14.6 66.7-1 .8-4.6-2-5.7-2.6a116 116 0 0 1-11-39.9c-22.2-13.8-50-15.1-75.1-10.4-3 28-1 45.9 9.4 72 15.3 3 28.8 5.8 42.8 13.3.8 2 2 4.3 3 6.2-16.7-12.1-46.7-20-66.7-16.1-12.8-14.2-15.6-80.1-8.9-92.1 3.9-6.9 22.6-7.8 30-8 18.7-1 51.2 1.7 67.6 10.9" class="cls-2"/><path id="path14" fill="#fb9534" stroke-width="0" d="M362.2 145.7c-2.2 1.4-13.9 14-16.2 17-10.4 12.9-18.5 26.6-19.8 43.5-1.2-1.3-1.6-4.9-2.6-8.3a110.5 110.5 0 0 1 20.3-36.3c-5.8-27.5-25.2-44.6-45.1-62.8-2.5-.5-26.7 26.6-29.5 30.5-4.4 6-17 27.9-14.6 34.4.7 1.8 14.8 18.4 18.8 33.1-1 2.7-1.1 5.9-2.6 8.4 1-16.5-22.2-51-35.5-60 3.2-5.5 5.4-12.6 8.9-18.5 7.3-12.7 42.4-50 48.7-52 12.8-3.6 31.7 17 40 25.9a124 124 0 0 1 29.2 45.1" class="cls-2"/><path id="path16" fill="#fb9534" stroke-width="0" d="M212 347.6c-1.5 2.4-3.8 5.4-4.8 7.9a149.5 149.5 0 0 1-43.8 10.1 151.7 151.7 0 0 0-6.5 73.8c27.2.7 48-1.5 73.5-11.4 1.2-1 3-17 4-20.6 1.6-6.6 5-12.6 6.7-19l7.3-3.7c-13.6 22.7-15.4 39.6-15.6 65.7-17.6 8.8-50.1 11.3-69.7 10.4-26.1-1-28.4-.9-30-36.2-1-21 .7-43 9.4-62.4 28.6.2 43.8-1.4 69.4-14.6z" class="cls-2"/><path id="path18" fill="#fb9534" stroke-width="0" d="M144 233.9c14.4 16.2 37.5 34.8 59.6 37 2.8.8-2.3 1.5-7.9 3.7-1.6-2.3-8.2-3.7-11.2-5.2-9.3-4.7-17.4-12.5-26-17.3-27.9 8.5-43.3 23.3-62.4 44.1 18.7 22 31.5 36.8 59.2 47.8 2 .2 15.6-9.7 19.3-11.5 7.2-3.5 15.3-5.4 22.7-8.4l4.2 1.6c-27.6 6-41.1 16.7-60.6 36-28.7-12.7-54.2-40.3-72.5-65.5 17.4-21.6 48.1-55.8 75.7-62.3z" class="cls-2"/><path id="path20" fill="#fb9534" stroke-width="0" d="M453 232.8c-25-.8-46 2.3-66.8 16.7-1-.5 2.1-4.5 3.6-7.8 13-4 25.7-9.2 39.4-9.9l1.3-1.3c9.1-23 13.3-48.3 8.6-72.8-28.2-2.1-46.6-3-72.5 10-1.7 1.6-4.5 28.9-12.3 40.6-1.6.7-5.4 2.4-6.7 3.2 15.2-19 17.5-43.4 16.7-66.8 14-5.6 29-9.7 44-11 7.6-.6 43.3-.8 48 2.1 7.3 4.4 7.1 45.5 6.6 54-.9 13.6-5 30.3-10 43z" class="cls-2"/><g id="g26"><path id="path22" fill="#fb9534" stroke-width="0" d="M454.5 360.7a98.4 98.4 0 0 0-58.4-36l6.2-2.1a99 99 0 0 1 36.3 19.8c26.3-6 47.2-25.5 64.4-45.6-23.3-19.4-33-36.1-63.9-45.2-11.7 9.3-23 18-37.8 22-4-1.4-10.1-1.7-10-3.2 24.2-2.2 47.6-18 62.2-37a206.2 206.2 0 0 1 35.2 21.9c6.5 5.2 37.9 33.4 38.9 39.4 2.1 13.3-41 49-52.5 56-6.5 4-13.7 6.8-20.6 10" class="cls-2"/><path id="path24" fill="#fb9534" stroke-width="0" d="M453.5 360.7c5.2 13.3 8.5 27.7 9.4 42 .5 9.4.4 42.7-5.5 49.3-8.8 9.9-33.3 9-46 8.3-16.4-.9-33-4.7-48.2-11 4.8-19.6-2.7-47.4-14-64.1l4.6 2a141.7 141.7 0 0 1 12.8 40.8c24.4 10 47.5 11.3 73.6 10.4 2.2-25.3 1-51.1-8.6-74.9-14.2-2.2-28-5.5-41.8-9.6l-3.1-6.3c22 12.2 41.9 14.2 66.8 13z" class="cls-2"/></g><g id="g82"><path id="path28" fill="#00672a" stroke-width="0" d="M347.6 211.5c-2 1.1-4 2.6-6 3.6-23.4 22.3-13.8 26.2-15.4-8.9a78.6 78.6 0 0 1 19.8-43.5 202 202 0 0 1 16.2-17s.8.1 2-1c1 23.4-1.4 47.9-16.6 66.8" class="cls-7"/><path id="path30" fill="#00672a" stroke-width="0" d="M212 347.6c-25.6 13.2-40.9 14.8-69.5 14.6l-1.6-.5c19.5-19.3 33-30 60.6-36 9.7 2 20 1.2 29.7-.2 0 .5.1.8-.2 1.3-2.2 2.6-9 3.2-19 20.8" class="cls-7"/><path id="path32" fill="#00672a" stroke-width="0" d="M235.4 145.2c13.3 9 36.4 43.5 35.5 60-.1 2 .7 3.1-1.6 3.4v15.6c1.7-.8 3 8.7 2.4 9.2a81.1 81.1 0 0 0-23.8-22.5c-13.2-23.2-15-40.3-14.6-66.7.7.3 1.5.6 2 1z" class="cls-7"/><path id="path34" fill="#00672a" stroke-width="0" d="M211.4 249.6a73 73 0 0 0 19.3 21c-8.8-.1-18.4 1.2-27.1.3-22.1-2.2-45.2-20.8-59.5-37 0 0-.2-.4.5-.5 20-4 50 4 66.8 16.1z" class="cls-7"/><path id="path36" fill="#00672a" stroke-width="0" d="m453 232.8.5.6c-14.6 19-38 34.8-62.1 37-5 .5-10.4-.4-15.4 0-.6 0-8.3 2.6-11.2 1.8 8.4-6.2 16-13.6 21.4-22.7 20.8-14.4 41.8-17.5 66.7-16.7z" class="cls-7"/><path id="path38" fill="#00672a" stroke-width="0" d="M396 324.7a98.4 98.4 0 0 1 58.5 36h-1c-24.9 1.1-44.8-.9-66.8-13a81.6 81.6 0 0 0-20.4-22.2c1-1.2 10.7 3.7 29.8-.8z" class="cls-7"/><path id="path40" fill="#00672a" stroke-width="0" d="M270.9 389.9c-2.8 24.4-19 45-37 60.5h-1.1c.2-26.1 2-43 15.6-65.7 9.9-5.4 14.5-11.7 22.2-19.3 1 .7-2.6 13.8.3 24.5" class="cls-7"/><path id="path42" fill="#00672a" stroke-width="0" d="M349.1 385.2c11.4 16.7 18.9 44.5 14.1 64.2 0 .4-.3 1-.5 1.5-16.8-16-31.8-35.8-35-59.4-.3-4.2.7-10.3 0-17.5 0-1.2-3-8.5-.7-8.6a79.5 79.5 0 0 0 22.1 19.8" class="cls-7"/><g id="g80"><path id="path44" d="M323.6 197.9c1 3.4 1.4 7 2.6 8.3 1.6 35.1-8 31.2 15.4 9 2-1.1 4-2.6 6-3.7a93 93 0 0 1 35.7-10c5-23.3 26-35.5 48.5-38 2.1 21.7-13 46-35.7 49.3-.4 10-2.2 19.8-6.3 29-1.5 3.2-4.7 7.2-3.6 7.8-5.4 9-13 16.4-21.4 22.7 3 .7 10.6-1.8 11.2-1.9 5-.4 10.4.5 15.4 0-.2 1.5 6 1.8 9.9 3.2a83 83 0 0 1 25.3 15c19.9-13.6 44-8.5 61.8 6a48.6 48.6 0 0 1-60.2 11.3 61.7 61.7 0 0 1-25.9 16.7l-6.2 2.1c-19.1 4.5-28.9-.4-29.8.8a82 82 0 0 1 20.4 22.1l3.1 6.3a79 79 0 0 1 6.3 26.9c24 4.9 37.6 26.6 37.3 50.3-23.7-1.7-43.8-13.5-50.1-37.5-10-1.5-20.1-2.6-29.5-6.3l-4.7-2a79.2 79.2 0 0 1-22.2-20c-2.1.2.7 7.6.8 8.7.7 7.3-.3 13.3 0 17.5-.6-1.5-1.8 3-3.6 7.8a80 80 0 0 1-15.7 26.9c12 22 6 44.2-11.2 61.3-15.7-15.5-21.3-42.5-8.1-61.3a78.6 78.6 0 0 1-15.6-26.9c-1-3.1-1.6-6.3-2.7-9.4-2.9-10.7.8-23.7-.2-24.5-7.7 7.6-12.3 14-22.2 19.3l-7.3 3.7c-8.8 3.4-18.6 4.6-27.9 5.7-6 23.7-26 34.9-49 37.6a47.5 47.5 0 0 1 37.3-51c.6-8.3 2.4-17.4 5.7-25.2 1-2.5 3.3-5.4 4.7-7.8 10.2-17.7 17-18.3 19-21 .4-.4.3-.7.3-1.2-9.8 1.4-20 2.3-29.7.2-.3 0-3-1.1-4.2-1.5a70 70 0 0 1-29-18.3c-19.6 11.6-44.2 4.3-59.7-10.7 17.5-16.7 41.8-20.3 62.3-6.5a86 86 0 0 1 24.8-14.1c5.6-2.2 10.7-3 7.9-3.6 8.7.8 18.3-.5 27-.3a73.3 73.3 0 0 1-22.3-27.4 90.5 90.5 0 0 1-6.8-30c-24.7-4.6-37.2-25.6-38.1-49.6 22.9.3 45.4 14.8 49.3 38.4a103 103 0 0 1 29.5 6.3c1.1.4 4.7 3.4 5.7 2.6a80.4 80.4 0 0 1 23.7 22.4c.7-.5-.6-10-2.3-9.1v-15.7c2.3-.2 1.4-1.4 1.6-3.4 1.5-2.5 1.6-5.7 2.6-8.3a76.1 76.1 0 0 1 16.1-26.4 48 48 0 0 1 10.2-61.3 51.6 51.6 0 0 1 8.1 62.4 59.5 59.5 0 0 1 15.7 26.3" style="stroke-width:0;fill:#bf6148"/><g id="g78"><path id="path46" fill="#a0c3d7" stroke-width="0" d="M372 248.5c-4.1 0-10.8.3-14.8 1-4.7.9-14.1 5.3-14.3 3.4 6-7.8 6.4-17.9 6.7-27.4a76.2 76.2 0 0 1 34.5-11.7 65.8 65.8 0 0 1-12 34.7z" class="cls-5"/><path id="path48" fill="#a0c3d7" stroke-width="0" d="M314.2 210.4a48.2 48.2 0 0 0-15.4 27.1c-1.6.1-1.6-15.2-16.4-26.6a61 61 0 0 1 16.4-32.3 63.6 63.6 0 0 1 15.4 31.8" class="cls-5"/><path id="path50" fill="#a0c3d7" stroke-width="0" d="M372.6 348.7a57.8 57.8 0 0 1 11.2 33.4 71.1 71.1 0 0 1-33.6-11.5c-.2-3.6-.5-10.8-1-13.8-1-4.7-6.3-15.2-4.5-15.4 8.4 5.2 18.3 6.2 28 7.3z" class="cls-5"/><path id="path52" fill="#a0c3d7" stroke-width="0" d="M248 370a72.8 72.8 0 0 1-34.5 12.3 68.2 68.2 0 0 1 12.5-34.7c4.5-.3 14-1.2 18-2 1-.3 8.9-4.4 9.1-2.4-5.2 7.6-5.3 18-5.2 26.9z" class="cls-5"/><path id="path54" fill="#a0c3d7" stroke-width="0" d="M210.3 283c6.8 9.2 13.3 10.8 23 15.3-8.4 3-18 9.4-23.5 16.5a64.4 64.4 0 0 1-31.8-16.5 77.4 77.4 0 0 1 32.3-15.4z" class="cls-5"/><path id="path56" fill="#a0c3d7" stroke-width="0" d="M386.2 314.2c-4.7-8.4-13.5-12.6-22-16.4 8.4-3.2 17.7-7.2 22-15.4 10.6 1.4 25 8 31.8 16.5-9 7.9-19.7 14-31.8 15.3" class="cls-5"/><path id="path58" fill="#a0c3d7" stroke-width="0" d="M246.9 226a65 65 0 0 0 6.2 26.4l-.7.8c-9.6-5.7-17.2-4.3-27.4-5.2-7.4-9.6-9.5-21.8-11.3-33.4A67 67 0 0 1 247 226z" class="cls-5"/><g id="g76"><path id="path60" fill="#a0c3d7" stroke-width="0" d="M315.7 387.3a71.8 71.8 0 0 1-17 31.8 76 76 0 0 1-16.4-31.8 72 72 0 0 0 15.4-29.8c1.3-.4 5.3 12.6 6.6 15 2 3.9 8 11.3 11.4 14.8" class="cls-5"/><g id="g74"><path id="path62" fill="#fb9534" stroke-width="0" d="M349.6 225.6c-.3 9.4-.7 19.5-6.7 27.3.2 1.9 9.7-2.5 14.3-3.4 4-.7 10.7-1 14.9-1a56.6 56.6 0 0 1-29.7 19c-.6 1.1 7.6 13 8.3 22.5 11.9-4.7 22.5-9.3 35.5-7.6-4.3 8.2-13.6 12.2-22 15.4 8.5 3.8 17.3 8 22 16.4a69.4 69.4 0 0 1-35.2-7.8c-10.7 32.6-14.5 14.9 6.7 28.2 4.8 3 11.4 9.5 15 14-9.7-1-19.6-2-28-7.2-1.8.2 3.5 10.7 4.4 15.4.6 3 1 10.2 1 13.8a73.4 73.4 0 0 1-21-30.8c-6.5 5-14 8.4-21.7 10.7a50.3 50.3 0 0 1 8.3 36.8c-3.4-3.5-9.3-11-11.4-14.9-1.3-2.3-5.3-15.3-6.6-14.9a73.2 73.2 0 0 1-15.3 29.8c-2.2-12.3-1.7-25.8 5.7-36.3-6.9-3.2-14.2-5.7-20.1-10.7-1.8.2-3.5 17.6-20 29.8-.2-8.9-.1-19.4 5.1-27-.2-1.9-8.2 2.2-9.1 2.4-4 .9-13.4 1.8-18 2.1 8.4-10.5 18-14.6 30.3-19.5a55.8 55.8 0 0 1-9.4-21.4c-1.8-1.9-13.9 11.3-37 8 5.4-7 15-13.4 23.4-16.4-9.7-4.5-16.2-6-23-15.4a66.5 66.5 0 0 1 35.8 7.4l.8-.8c1.1-8 4.8-15.2 8.8-22-.6-1.7-18.8-3.8-30.7-19.5 10.2 1 17.8-.5 27.4 5.2l.7-.8a64.5 64.5 0 0 1-6.2-26.3c16.6 12 19.8 29.2 21.6 29.2 6.3-4.5 13.5-7 20.6-9.6a60.9 60.9 0 0 1-6.7-34.7c14.9 11.4 14.8 26.7 16.4 26.6a48.2 48.2 0 0 1 15.4-27.2c1.6 12.2 0 24.6-6.3 35.3a77.5 77.5 0 0 1 20.6 9.1c2.2-.3 6.5-18.7 21.2-29.2z" class="cls-2"/><g id="g72"><path id="path64" fill="#00672a" stroke-width="0" d="M293 258.4a40 40 0 0 1 36.8 65 40 40 0 0 1-66.2-5.8c-12.6-23.9 1.4-56.3 29.4-59.2" class="cls-7"/><g id="g70"><path id="path66" d="M296.7 267.8a30.1 30.1 0 0 1 25.3 48.8c-19.6 24.8-59.3 6.3-52.7-25.6a32.3 32.3 0 0 1 27.4-23.2" style="stroke-width:0;fill:#e5e5e7"/><path id="path68" fill="#00672a" stroke-width="0" d="M296.7 286.6c16.4-2.3 17.5 22.3 3.1 23.5-15.3 1.2-16.6-21.6-3.1-23.5" class="cls-7"/></g></g></g></g></g></g></g></g></g></g></svg>