<svg xmlns="http://www.w3.org/2000/svg" id="Layer_1" data-name="Layer 1" version="1.1" width="251.14" height="317.09"><defs id="defs4"><style id="style2"></style></defs><path style="fill:#216935" d="M120.89 0 96.98 106.17l7.168 33.7h36.885l8.067-35.07L120.89 0zM32.75 54.86l9.79 70.52 64.15 83.007v-4.076L69.97 96 32.75 54.86zm182.01 0L177.53 96l-15.696 46.31c8.385 2.32 15.524 6.193 21.418 11.165l21.709-28.094 9.799-70.522zM0 171.56l34.57 38.2 72.12 13.418v-3.026L38.2 173.381 0 171.56zm251.14 0-38.2 1.82-11.657 7.962c3.026 9.928 3.681 20.63 1.975 30.896l13.322-2.478 34.56-38.2zm-144.45 61.881-42 1.79-12.73 17.279 29.1-.91 25.63-17.672v-.487zm10.75 28.729v54.92h12.73v-54.92h-12.73z" id="polygon34"/><path d="M164.49 262.17h-36.43v-122.3h36.43c81.41 0 81.41 122.3 0 122.3zm-12-97.84v73.38h12c47.56 0 47.56-73.38 0-73.38z" id="path40" style="fill:#a1d297"/></svg>