<svg xmlns="http://www.w3.org/2000/svg" id="Layer_1" width="544.866" height="327.24" data-name="Layer 1" version="1.1"><defs id="defs486"><linearGradient id="linear-gradient" x1="280.07" x2="480.44" y1="201.8" y2="201.8" gradientUnits="userSpaceOnUse"><stop id="stop476" offset="0" stop-color="#999"/><stop id="stop478" offset="1" stop-color="#999" stop-opacity="0"/></linearGradient><linearGradient id="linear-gradient-2" x1="285.26" x2="487.84" y1="219" y2="219" gradientUnits="userSpaceOnUse"><stop id="stop481" offset=".01" stop-color="#2b2b2b"/><stop id="stop483" offset="1" stop-color="#2b2b2b" stop-opacity="0"/></linearGradient><style id="style474">.cls-2,.cls-6{fill:#2b2b2b;stroke-width:0}.cls-6{fill:#d6d6d6}</style></defs><g id="g531" transform="translate(-27.302 -136.38)"><g id="g494"><path id="path490" d="M167.91 304.99s-.03-.01-.04-.02c-.02 0-.03-.01-.05-.02z" class="cls-2" style="fill:#2b2b2b;stroke-width:0"/><path id="path492" d="M571.61 237.58c-.2-1.69-.56-3.33-1.06-4.9a77.668 77.668 0 0 0-6.8-20.68c-12.36-25.05-37.75-41.23-71.5-45.55l-1.25-.16c-1.09-.14-2.18-.21-3.27-.21H274.81c-3.6 0-7.09.79-10.29 2.2-5.3-7.36-11.73-13.68-19.22-18.81-12.47-8.54-26.83-13.06-41.51-13.06-18.17 0-36.24 6.94-50.87 19.53-2.71 2.29-4.58 4.82-5.8 7.4-2.17-1.32-5.87-3.07-10.71-3.07-4 0-7.86 1.2-11.18 3.47-3.33 2.27-6.48 6-7.87 10.82-10.66 3.23-20.1 10.13-28.18 20.62-3.92 4.93-5.09 10.06-4.69 14.63-1.36-.63-2.74-1.37-4.15-2.22-3.86-3.26-8.18-4.9-12.9-4.9-4.01 0-7.88 1.24-11.2 3.58-6.76 4.77-11.25 14.53-6.06 25.56l.03.07c9.04 20.26 25.48 33.93 47.58 39.56-.63 1.65-1.03 3.36-1.21 5.04-.71 6.83 2.29 16.36 13.1 20.72 7.85 3.19 15.12 4.72 22.28 4.72 3.77 0 7.55-.44 11.21-1.3 4.94-1.16 9.55-2.8 13.85-4.59 2.09 3.66 5.57 6.98 10.84 8.93 12.54 4.93 24.71 7.43 36.18 7.43 16.58 0 32.1-5.12 46.13-15.21 13.33-9.59 22.56-22.91 27.41-39.6.5-1.44.85-2.85 1.06-4.21 4.16 2.8 9.12 4.39 14.34 4.39h7.36c-.14.52-.29 1.05-.4 1.58l-35.93 173.36a25.685 25.685 0 0 0 25.14 30.89h119.52c22.47 0 44.02-6.03 62.34-17.44 13.3-8.29 24.95-19.57 32.24-31.17 1.25-1.56 2.35-3.26 3.21-5.09l37.58-79.77 14.3-30.06c4.43-8.27 16.56-33.99 13.27-62.49zm-320.58-4.81a27.631 27.631 0 0 0-6.49-6.59c4.41-4.26 7.63-9.9 9.15-16.48.12-.51.22-1.06.32-1.6l10.58 23.5c-1.68-.47-3.41-.73-5.18-.73-2.06 0-5.13.35-8.38 1.92zm225.39 26.02-51.04 107.34c-2.02 1.96-7.18 5.78-16.71 5.78h-38.41l21.17-102.12c.83-4.03.65-8.13-.41-12h85.94c-.18.34-.37.67-.53 1.01z" class="cls-2" style="fill:#2b2b2b;stroke-width:0"/></g><g id="g500"><path id="path496" d="M277.22 262.65c-24.77 0-44.92-17.96-44.92-40.04s20.15-40.04 44.92-40.04c24.77 0 44.92 17.96 44.92 40.04s-20.15 40.04-44.92 40.04" class="cls-2" style="fill:#2b2b2b;stroke-width:0"/><path id="path498" d="M277.22 191.75c19.74 0 35.75 13.82 35.75 30.87s-16.01 30.87-35.75 30.87-35.75-13.82-35.75-30.87 16.01-30.87 35.75-30.87m0-18.34c-13.95 0-27.18 4.79-37.27 13.5-10.69 9.23-16.83 22.25-16.83 35.71s6.13 26.48 16.83 35.71c10.08 8.71 23.32 13.5 37.27 13.5 13.95 0 27.18-4.79 37.27-13.5 10.69-9.23 16.83-22.25 16.83-35.71s-6.13-26.48-16.83-35.71c-10.08-8.71-23.32-13.5-37.27-13.5" class="cls-2" style="fill:#2b2b2b;stroke-width:0"/></g><path id="path502" d="M563.75 211.99c-12.36-25.05-37.75-41.23-71.5-45.55l-1.25-.16c-1.09-.14-2.18-.21-3.27-.21H274.81c-8.71 0-16.83 4.42-21.56 11.74a25.67 25.67 0 0 0-1.85 24.48l18.17 40.35a25.675 25.675 0 0 0 23.41 15.13h184.17c-.24.44-.47.89-.68 1.35l-52.56 111.57c-6.01 12.76-.6 27.99 12.12 34.09l36.1 17.33a25.674 25.674 0 0 0 19.71 1.05 25.674 25.674 0 0 0 14.63-13.25l51.66-109.66c6.48-12.16 23.95-51.11 5.63-88.25z" class="cls-2" style="fill:#2b2b2b;stroke-width:0"/><g id="g508"><path id="path504" d="M289.14 450.77c-3.86 0-7.52-1.74-9.96-4.73-2.44-2.99-3.4-6.93-2.61-10.71l35.93-173.36a12.843 12.843 0 0 1 12.57-10.23h41.21c3.86 0 7.52 1.74 9.96 4.73 2.44 2.99 3.4 6.93 2.61 10.71l-24.37 117.57h54.18c16.62 0 24.96-8.31 27.49-11.4l51.86-109.04c.14-.29.29-.58.45-.87l.34-.6c2.68-4.84 4.99-13.17 4.5-16.14a12.845 12.845 0 0 1 11.26-19.02h41.53c6.52 0 12.01 4.89 12.75 11.37 2.9 25.18-8.18 48.22-11.98 55.22l-52.69 110.79c-.17.35-.35.7-.55 1.04l-.47.8c-9.68 16.3-38.36 43.88-84.5 43.88H289.13Z" class="cls-6" style="fill:#d6d6d6;stroke-width:0"/><path id="path506" d="M546.1 240.51c2.54 22.1-7.93 42.95-10.66 47.92L482.6 399.54l-.47.8c-8.29 13.96-33.09 37.59-73.46 37.59H289.15l35.93-173.36h41.21l-27.57 133.01h69.95c24.47 0 36.18-14.29 38.51-17.5l52.44-110.26.38-.67c3.1-5.56 8.73-20.5 4.89-28.1-.09-.18-.21-.35-.32-.53h41.53m0-25.68h-41.53c-9.27 0-17.82 4.99-22.37 13.07a25.651 25.651 0 0 0-1.9 21.01c-.49 2.34-1.75 5.91-2.68 7.62l-.29.5c-.33.57-.63 1.15-.92 1.75l-51.04 107.33c-2.04 1.99-7.2 5.79-16.71 5.79h-38.41l21.17-102.12a25.685 25.685 0 0 0-25.14-30.89h-41.21c-12.17 0-22.67 8.55-25.14 20.47L264 432.73a25.685 25.685 0 0 0 25.14 30.89h119.52c22.47 0 44.02-6.03 62.34-17.44 13.89-8.66 25.99-20.58 33.2-32.72l.48-.8c.4-.67.77-1.37 1.11-2.07l52.55-110.5c4.43-8.27 16.55-33.99 13.27-62.49-1.49-12.96-12.46-22.74-25.51-22.74z" class="cls-2" style="fill:#2b2b2b;stroke-width:0"/></g><path id="path510" d="m483.23 398.96-36.1-17.33 52.56-111.57.38-.67c3.08-5.56 8.65-20.5 4.85-28.1-2.92-5.84-13.18-8.24-19.79-9.2H292.98l-18.17-40.35h212.92l1.25.16c17.64 2.26 40.94 9.55 51.74 31.44 13.55 27.47-2.13 59.05-5.54 65.33l-51.95 110.27z" class="cls-6" style="fill:#d6d6d6;stroke-width:0"/><g id="g516"><path id="polygon512" d="M280.07 198.51h197.98l2.39 6.58H282.47z" style="fill:url(#linear-gradient);stroke-width:0"/><path id="polygon514" d="M285.26 212.67h197.98l4.6 12.66H289.87z" style="fill:url(#linear-gradient-2);stroke-width:0"/></g><ellipse id="ellipse518" cx="282.38" cy="212.72" rx="6.19" ry="20.16" style="fill:#2b2b2b;stroke:#2b2b2b;stroke-width:6.59000015px;stroke-linecap:round;stroke-linejoin:round" transform="rotate(-22.21 282.325 212.69)"/><g id="_993ydq" data-name="993ydq"><g id="g524"><path id="path520" d="M183.43 303.23c-10.33 0-21.39-2.29-32.87-6.81-6.71-2.47-7.53-7.73-7.57-9.88-.02-.73.05-2.18.63-3.81l-1.18.55c-6.85 3.21-13.93 6.54-21.98 8.43-2.98.7-6.05 1.06-9.12 1.06-5.96 0-12.09-1.31-18.75-4.02-7.74-3.12-7.7-9.45-7.5-11.32.15-1.45 1.35-8.75 10.33-9.54 4.43-.57 7.76-2.03 10.52-4.58l-.77.07c-4.01.37-8.15.76-12.43.76-4.66 0-8.83-.47-12.73-1.43-19.87-4.9-34.02-16.54-42.06-34.61l-.09-.19c-4.03-8.57 1.84-13.3 3.06-14.16 1.75-1.24 3.79-1.89 5.9-1.89 3.87 0 6.42 2.18 7.45 3.14 7.08 4.44 13.82 6.59 20.58 6.59 2.83 0 5.74-.39 8.64-1.16 1.24-.33 2.44-.96 3.63-1.91a3.25 3.25 0 0 0-.51-.04c-.16 0-.33.01-.5.03-.6.09-1.39.2-2.34.2-3.77 0-7.07-1.77-9.07-4.85-.97-1.5-3.78-6.89 1.06-12.98 8.42-10.93 18.36-17.23 29.67-18.86-1.19-6.51 3.35-10.02 4.38-10.72a10.58 10.58 0 0 1 6-1.86c3.55 0 6.01 1.74 7.06 2.48 3.45 2.45 7.18 4.51 11.09 6.15 1.03.43 2 .81 2.93 1.13a10.581 10.581 0 0 1-2.5-4.01c-.73-2.1-1.82-7.47 3.81-12.22 13.07-11.25 29.01-17.4 44.99-17.4 12.83 0 25.39 3.96 36.33 11.45 8.27 5.66 15.1 12.95 20.31 21.66.9 1.51 1.59 2.96 2.16 4.21 3.14 6.81-.67 11.27-1.91 12.48-1.95 1.89-4.47 2.93-7.1 2.93-3.5 0-5.88-1.83-6.72-2.48-.74-.49-1.46-.95-2.19-1.39 1.06 4.35 1.09 8.77.07 13.2-2.48 10.81-11.32 18.07-21.99 18.07-2.94 0-5.9-.55-8.78-1.65-4.07-1.54-7.26-3.86-10.07-5.9l-.3-.22c1.51 2.96 2.12 6.23 1.71 9.5-.32 2.58-1.26 5.01-2.72 7.14l.51-.18c.9-.31 1.79-.64 2.69-.96 5.36-1.94 11.43-4.14 18.41-4.14 1.03 0 2.08.05 3.09.15 13.12 1.25 17.57 9.63 19.06 14.51.44 1.44.77 3.06.87 4.82 1.09-1.11 2.11-2.27 3.06-3.49 2.44-3.5 5.5-5.26 9.12-5.26 1.52 0 3 .33 4.4.99 3.18 1.49 7.83 6.06 5.06 13.69l.02-.07c-4.24 14.86-12.34 26.68-24.07 35.11-12.43 8.94-26.15 13.48-40.77 13.48z" style="fill:#ffa400;stroke-width:0"/><path id="path522" d="M183.17 154.74c10.65 0 21.37 3.15 31.15 9.85 7.29 4.99 13.11 11.26 17.62 18.8.64 1.07 1.18 2.21 1.7 3.34.3.66.64 1.47.04 2.06-.25.25-.49.34-.72.34-.53 0-1-.52-1.46-.82-8.3-5.52-17.17-9.49-27.28-10.15-.56-.04-1.13-.15-1.72-.15-.67 0-1.35.15-2.05.74 4.21 2.38 7.84 5.25 10.56 9.13 3.75 5.35 5.68 11.14 4.17 17.71-1.57 6.82-6.83 10.95-13.06 10.95-1.78 0-3.65-.34-5.53-1.05-3.07-1.16-5.67-3.11-8.29-5-2.31-1.67-4.83-2.92-7.45-3.96a12.29 12.29 0 0 0-4.58-.89c-5.56 0-10.59 3.77-14.66 7.62-1.38 1.3-.29 1.65.97 1.8 3.71.42 7.07 1.59 9.94 4.15 4.68 4.19 4.06 10.21-1.58 13.16-2.4 1.26-4.92 1.94-7.57 1.94-1 0-2.02-.1-3.06-.3-5.02-.99-10.03-2.11-15.1-2.64-.81-.08-1.61-.13-2.39-.13-4.88 0-9.25 1.69-12.56 5.84.31.62.68.78 1.05.78.25 0 .5-.07.73-.12 1.88-.41 3.72-.6 5.52-.6 5.57 0 10.78 1.84 15.74 4.79 4.86 2.89 9.71 5.7 15.47 5.7.68 0 1.38-.04 2.08-.12 5.14-.61 9.83-2.76 14.65-4.44 5.91-2.06 11.7-4.59 18.08-4.59.73 0 1.47.03 2.22.1 5.34.51 9.51 2.65 11.16 8.06 1.57 5.16-.78 9.17-4.42 12.54-3.3 3.05-7.38 4.66-11.65 5.83-1.01.27-2.05.46-3 .86-1.14.48-1.15 1.2 0 1.68.76.31 1.61.46 2.44.56 1.47.17 2.91.25 4.34.25 7.09 0 13.68-2.08 19.8-6.07 4.76-3.1 8.93-6.86 12.43-11.36.51-.65 1.04-1.72 1.88-1.72.16 0 .32.04.5.12 1.21.57.42 1.89.16 2.81-3.52 12.34-10.16 22.67-20.61 30.18-11.4 8.2-23.26 11.75-35.42 11.75-9.66 0-19.52-2.24-29.52-6.17-.76-.3-1.74-.52-1.76-1.54-.03-1.22 1.12-1.37 1.95-1.72 1.15-.5 2.36-.85 3.5-1.37 4.05-1.88 6.11-5.11 5.33-8.23-.88-3.48-4.13-5.77-8.17-5.77-.36 0-.73.02-1.1.06-4.35.43-8.18 2.44-12.06 4.24-7.57 3.51-15.01 7.3-23.23 9.23-2.38.56-4.71.81-7.01.81-5.24 0-10.3-1.31-15.3-3.34-.85-.35-1.95-.74-1.83-1.87.14-1.39 1.48-1.27 2.46-1.4 5.96-.77 11.27-2.95 15.69-7.12 3.9-3.69 5.04-7.38 3.36-11.15-1.32-2.95-4.34-4.66-8.57-4.66-.51 0-1.03.03-1.57.07-4.29.39-8.56.83-12.84.83-3.51 0-7.02-.3-10.53-1.16-16.66-4.11-28.85-13.63-35.88-29.44-.45-1.01-1.26-2.31-.11-3.13.21-.15.41-.21.61-.21.75 0 1.36.96 2.02 1.38 8.21 5.25 16.82 8.35 26.01 8.35 3.57 0 7.23-.47 10.98-1.46 3.73-.99 6.84-3.13 9.47-5.89 3.28-3.44 2.56-9.13-1.39-11.78-2.25-1.5-4.67-2.32-7.31-2.32-.53 0-1.07.03-1.62.1-.39.05-.82.13-1.23.13-.53 0-1.03-.14-1.38-.67-.63-.98.16-1.79.72-2.51 7.38-9.59 16.46-15.6 28.37-15.6 1.38 0 2.79.08 4.25.24.48.05 1.03.23 1.52.23.43 0 .82-.13 1.08-.59.53-.93-.47-1.71-.82-2.55-.92-2.21-1.87-4.42-2.73-6.66-.33-.85-.79-1.88.21-2.57.28-.19.56-.27.83-.27.63 0 1.24.42 1.76.8 4.02 2.85 8.29 5.22 12.84 7.12 4.9 2.05 9.85 3.54 15.1 3.54 1.24 0 2.5-.08 3.77-.26 5.5-.77 8.59-3.71 8.46-8.55-.11-4.2-4.72-8.29-9.46-8.36h-.12c-.9 0-1.79.13-2.69.15-.29 0-.61.03-.92.03-.64 0-1.25-.13-1.51-.9-.38-1.08.54-1.73 1.24-2.33 11.35-9.77 25.07-15.09 38.91-15.09m-.02-18.35c-18.17 0-36.24 6.94-50.87 19.53-2.71 2.29-4.58 4.82-5.8 7.4-2.17-1.32-5.87-3.07-10.71-3.07-4 0-7.86 1.2-11.18 3.47-3.33 2.27-6.48 6-7.87 10.82-10.66 3.23-20.1 10.13-28.18 20.62-3.92 4.93-5.09 10.06-4.69 14.63-1.36-.63-2.74-1.37-4.15-2.22-3.86-3.26-8.18-4.9-12.9-4.9-4.01 0-7.88 1.24-11.2 3.58-6.76 4.77-11.25 14.53-6.06 25.56l.03.07c9.04 20.26 25.48 33.93 47.58 39.56-.63 1.65-1.03 3.36-1.21 5.04-.71 6.83 2.29 16.36 13.1 20.72 7.85 3.19 15.12 4.72 22.28 4.72 3.77 0 7.55-.44 11.21-1.3 4.94-1.16 9.55-2.8 13.85-4.59 2.1 3.67 5.58 7 10.89 8.95l-.09-.04c12.56 4.94 24.75 7.44 36.23 7.44 16.58 0 32.1-5.12 46.13-15.21 13.33-9.59 22.56-22.91 27.41-39.6 4.17-11.97-2.16-21.26-9.87-24.88a19.453 19.453 0 0 0-8.3-1.86c-2.06 0-5.13.35-8.38 1.92a27.631 27.631 0 0 0-6.49-6.59c4.41-4.26 7.63-9.9 9.15-16.48.16-.71.31-1.45.44-2.22 4.83-.14 9.41-2.08 12.94-5.51 4.81-4.66 8.35-13.12 3.85-22.89-.73-1.59-1.55-3.29-2.62-5.09-5.89-9.86-13.63-18.11-23-24.53-12.47-8.54-26.83-13.06-41.51-13.06z" class="cls-2" style="fill:#2b2b2b;stroke-width:0"/></g></g><path id="path527" d="M141.27 251.23c-3.87-4.95-6.99-9.08-8.92-13.56-.12.02-.24.03-.36.06-.56.12-1.26.38-1.78-.66.42-.53.87-1.01 1.33-1.46-2.68-7.89-1.69-17.35 5.17-34.32 1.62-3.99 2.23-8.02 2.13-11.99-2.88-.63-5.71-1.61-8.51-2.78-4.55-1.9-8.82-4.27-12.84-7.12-.75-.53-1.65-1.16-2.59-.53-1 .68-.54 1.72-.21 2.57.87 2.24 1.81 4.44 2.73 6.66.35.84 1.35 1.62.82 2.55-.57.99-1.71.46-2.6.36-14.03-1.59-24.38 4.66-32.61 15.35-.56.72-1.35 1.53-.72 2.51.61.94 1.71.65 2.61.54 3.27-.4 6.23.41 8.93 2.22 3.95 2.65 4.68 8.33 1.39 11.77-2.63 2.75-5.74 4.9-9.47 5.89-13.41 3.55-25.59.4-37-6.89-.83-.53-1.58-1.91-2.63-1.17-1.15.81-.34 2.11.11 3.13 7.03 15.8 19.22 25.33 35.88 29.44 7.78 1.92 15.56 1.05 23.37.33 5.05-.46 8.67 1.27 10.14 4.58 1.68 3.76.54 7.46-3.36 11.15-4.42 4.17-9.72 6.35-15.69 7.12-.98.13-2.32 0-2.46 1.4-.12 1.13.98 1.52 1.83 1.87 7.2 2.92 14.54 4.36 22.32 2.53 8.22-1.93 15.66-5.72 23.23-9.23 0 0 10.79-8.16-.26-22.32z" style="fill:#ff2f00;stroke-width:0"/><ellipse id="ellipse529" cx="266.1" cy="214.07" rx="9.43" ry="19.04" style="fill:none;stroke:#999;stroke-width:5.26000023px;stroke-miterlimit:10" transform="rotate(-23.59 266.168 214.106)"/></g></svg>