<svg xmlns="http://www.w3.org/2000/svg" id="Layer_1" width="256.052" height="254.519" data-name="Layer 1" version="1.1"><defs id="defs4"><style id="style2">.cls-2{fill:#f7eedf}.cls-3{fill:#1a66d6}.cls-8{stroke-linejoin:round;fill:none;stroke:#1a66d6;stroke-linecap:round;stroke-width:7.68px}.cls-9{fill:#efc997}</style></defs><path id="path48" d="M224.783 183.78a13.44 13.44 0 0 0-16.76-8.92l-32.62 10a13.43 13.43 0 0 0-1.63 25.08l25.33 11.51a13.44 13.44 0 0 0 16-20.65l.75-.23a13.43 13.43 0 0 0 8.93-16.79z" class="cls-2" style="fill:#f7eedf"/><path id="path50" d="m80.653 184.84-32.62-10a13.433 13.433 0 0 0-7.86 25.69l.75.23a13.43 13.43 0 0 0 16 20.65l25.33-11.51a13.43 13.43 0 0 0-1.63-25.08z" class="cls-2" style="fill:#f7eedf"/><path id="path52" d="M254.953 49.33c-2.75-16.68-11.27-30.21-24.64-39.1-11.47-7.63-25.87-11.17-40.57-10a66 66 0 0 0-39.52 17 57.62 57.62 0 0 0-15.86 25h-12.68a57.62 57.62 0 0 0-15.86-25 66 66 0 0 0-39.52-17c-14.69-1.2-29.1 2.34-40.57 10-13.37 8.89-21.89 22.42-24.64 39.1a100.65 100.65 0 0 0-.89 21.19c.81 12.74 4.14 21.88 10.15 28l7.27 7.33 10.23 10.32v17.19c0 24.24 12 39.39 13.41 41l.37.45 67.64 71.66.59.62.63.56a28.86 28.86 0 0 0 10.22 5.69 26.23 26.23 0 0 0 7.7 1.18 25.2 25.2 0 0 0 18.17-7.86l67.44-71.45.76-.86c1.38-1.65 13.42-16.8 13.42-41v-17.23l14.1-14.23 3.39-3.41c6-6.07 9.35-15.22 10.16-28a100.58 100.58 0 0 0-.9-21.15z" class="cls-2" style="fill:#f7eedf"/><path id="path54" d="M245.483 50.89c-2.3-14-9.38-25.29-20.48-32.67-9.68-6.44-21.93-9.42-34.48-8.39a56.32 56.32 0 0 0-33.77 14.45 47.92 47.92 0 0 0-14.84 27.61h-27.78a47.92 47.92 0 0 0-14.84-27.61 56.32 56.32 0 0 0-33.77-14.45c-12.55-1-24.8 2-34.48 8.39-11.1 7.38-18.18 18.68-20.48 32.67a91.64 91.64 0 0 0-.79 19c.66 10.33 3.09 17.47 7.4 21.82l20.27 20.45v21.14c0 21.22 10.74 34.35 11.2 34.89l.18.22 67.43 71.45.29.3.3.27a19.17 19.17 0 0 0 6.71 3.71 16.6 16.6 0 0 0 4.86.75 15.56 15.56 0 0 0 11.29-4.91l67.32-71.36.37-.42c.46-.54 11.2-13.67 11.2-34.89v-21.14l20.26-20.44c4.32-4.36 6.74-11.5 7.41-21.83a91.64 91.64 0 0 0-.78-19.01zm-17.32 17.36c-.39 7-1.73 10.09-2.23 10.71l-22.91 23.07-2.64 2.66v28.62c0 13.4-5.86 21.77-6.89 23.14l-42.44 45h-46.1l-42.44-45c-1-1.37-6.89-9.74-6.89-23.14v-28.62l-2.6-2.66-22.91-23.05c-.5-.63-1.84-3.71-2.23-10.71a74.24 74.24 0 0 1 .61-14.4c1.48-9 5.73-15.92 12.62-20.5 6.29-4.18 14.43-6.1 22.93-5.41a38.15 38.15 0 0 1 22.88 9.65c6.39 5.94 9.77 14 9.77 23.39v9.08h62.66v-9.1c0-9.36 3.38-17.45 9.77-23.39a38.15 38.15 0 0 1 22.9-9.61c8.5-.69 16.64 1.23 22.93 5.41 6.89 4.58 11.14 11.48 12.62 20.5a74.24 74.24 0 0 1 .59 14.36z" class="cls-3" style="fill:#1a66d6"/><path id="path56" d="M82.883 61.16a20.54 20.54 0 1 0-38 10.74c2.51 4.08 6.83 7.24 10.2 10.61l7.33 7.33c.71.38 9.69-9.67 10.51-10.51 5.24-5.35 9.96-9.94 9.96-18.17z" class="cls-3" style="fill:#1a66d6"/><ellipse id="ellipse58" cx="87.603" cy="131.489" class="cls-3" rx="11.99" ry="17.08" style="fill:#1a66d6"/><ellipse id="ellipse60" cx="168.663" cy="131.489" class="cls-3" rx="11.99" ry="17.08" style="fill:#1a66d6"/><path id="path62" d="M214.523 61.16a20.54 20.54 0 1 0-38 10.74c2.51 4.08 6.84 7.24 10.21 10.61l7.33 7.33c.71.38 9.68-9.67 10.5-10.51 5.24-5.35 9.96-9.94 9.96-18.17z" class="cls-3" style="fill:#1a66d6"/><path id="polyline64" d="m383.92 372.73-32.62 9.98 25.33 11.51" class="cls-8" style="fill:none;stroke:#1a66d6;stroke-width:7.67999983px;stroke-linecap:round;stroke-linejoin:round" transform="translate(-171.977 -185.02)"/><path id="polyline66" d="m216.08 372.73 32.63 9.98-25.34 11.51" class="cls-8" style="fill:none;stroke:#1a66d6;stroke-width:7.67999983px;stroke-linecap:round;stroke-linejoin:round" transform="translate(-171.977 -185.02)"/><path id="path86" d="M110.083 142.42v-7.79c0-.78-.2-1.79.59-2.2.79-.41 1.4.46 1.95 1 2.48 2.47 5 4.91 7.4 7.44a13 13 0 0 1 3.76 8.91c.09 4.7 0 9.4.06 14.09 0 2.6-1.07 2.91-3.16 1.89-6-3-9.73-7.61-10.38-14.35-.29-3-.05-6-.05-9z" class="cls-9" style="fill:#efc997"/><path id="path88" d="M145.843 143.36c-.13 2.79.3 6.2-.4 9.57-1.28 6.14-4.94 10.32-10.54 12.95-1.9.89-2.84.48-2.82-1.72 0-4.8 0-9.59.09-14.39a11.08 11.08 0 0 1 3-7.36c2.7-2.94 5.56-5.73 8.37-8.57.47-.47.93-1.21 1.75-.77.82.44.56 1.23.57 1.9-.01 2.6-.02 5.2-.02 8.39z" class="cls-9" style="fill:#efc997"/><path id="path90" d="M110.103 108.82v-6a1.89 1.89 0 0 1 .5-1.32c.61-.44 1.1.13 1.51.54 2.95 3 5.95 5.94 8.8 9a11 11 0 0 1 2.81 7.13c.18 3.79.08 7.6.07 11.4 0 .67.16 1.51-.66 1.83-.82.32-1.26-.43-1.73-.9-2.63-2.6-5.31-5.16-7.82-7.87-2.99-3.24-3.51-5.65-3.48-13.81z" class="cls-9" style="fill:#efc997"/><path id="path92" d="M132.093 124.52c-2.29-10.55 5.62-15.67 11.64-21.77 1.16-1.17 2.06-.75 2.06.86 0 4.39.37 8.78-.27 13.15a11.65 11.65 0 0 1-3.08 6.37c-2.58 2.77-5.3 5.42-8 8.1-.47.46-.93 1.2-1.74.84-.81-.36-.6-1.19-.61-1.86-.02-1.9 0-3.79 0-5.69z" class="cls-9" style="fill:#efc997"/><path id="path94" d="M132.093 90.53v-8.39c0-1.66.5-2.66 2.39-2.63 3 .07 6 .06 9 0 1.64 0 2.34.72 2.38 2.33.1 3.84-.67 7.39-3.36 10.26s-5.3 5.43-8 8.12c-.47.48-1 1.19-1.74.85-.74-.34-.66-1.17-.66-1.86-.02-2.88-.01-5.78-.01-8.68z" class="cls-9" style="fill:#efc997"/><path id="path96" d="M116.923 79.53c7.75.14 6.84-1.21 6.91 7.09v12c0 .67.13 1.51-.66 1.85-.79.34-1.26-.38-1.73-.85-2.69-2.67-5.42-5.31-8-8.07a13.35 13.35 0 0 1-3.34-9.06c-.07-2.18.72-3.15 2.95-3 1.27.13 2.57.03 3.87.04z" class="cls-9" style="fill:#efc997"/><path id="rect98" d="M121.673 176.309h12.01v25.22h-12.01z" class="cls-9" style="fill:#efc997"/></svg>