<svg xmlns="http://www.w3.org/2000/svg" id="Layer_1" data-name="Layer 1" version="1.1" width="279.243" height="285.278"><defs id="defs4"><style id="style2">.cls-23,.cls-24,.cls-25{stroke:#18403f;stroke-linecap:round;stroke-linejoin:round}.cls-23,.cls-24{fill:none}.cls-23{fill-rule:evenodd}.cls-25{fill:#a5d672}.cls-23,.cls-24,.cls-25{stroke-width:11.61px}</style></defs><path d="M268.144 126.697a17.53 17.53 0 0 0-.89-1.79 111 111 0 0 0-16.29-23.75 77.81 77.81 0 0 0-35.22-42.26 81.7 81.7 0 0 0-29.17-10.12 16 16 0 0 0-8.22 1.3l-7.14 3.21a77.48 77.48 0 0 0 .73-8.72c0-.21.1-.41.14-.62a15.77 15.77 0 0 0-.41-7.84 57.11 57.11 0 0 0-2.37-12c-4.08-12.8-12.66-21.39-23.53-23.57-14.21-2.86-28.52 5.85-37.61 22.79a15.7 15.7 0 0 0-3.39 7.06c0 .17-.07.35-.1.53a76.43 76.43 0 0 0-2.71 8.41l-5.39-5.66a15.79 15.79 0 0 0-7.08-4.37 81.5 81.5 0 0 0-30.85-1.95c-15.88 1.95-38.45 9.44-55.76 34.1a15.86 15.86 0 0 0 9.86 24.67l38.94 7.82a169.86 169.86 0 0 0 0 30.68 166 166 0 0 0 4.83 27.8 91 91 0 0 0-13.53 15.11c-14.16 20-17.62 42.87-10 66.17a15.79 15.79 0 0 0 11.24 10.48 16.08 16.08 0 0 0 3.84.47 15.8 15.8 0 0 0 11-4.44l12.87-12.41a110.57 110.57 0 0 0 47.46 45.77 15.82 15.82 0 0 0 1.75.87 110.4 110.4 0 0 0 91 2 16.21 16.21 0 0 0 1.55-.68 110.92 110.92 0 0 0 45.09-36.92 16.38 16.38 0 0 0 1.35-1.94 110.3 110.3 0 0 0 8.06-110.17z" id="path298" style="fill:#e7e2b1"/><circle cx="168.764" cy="174.827" r="94.58" id="circle300" style="fill:#24685d;stroke:#18403f;stroke-width:11.60999966px;stroke-linecap:round;stroke-linejoin:round"/><path class="cls-23" d="M127.184 259.797s88.56-11.93 126.39-126.93" id="path302" style="fill:none;fill-rule:evenodd;stroke:#18403f;stroke-width:11.60999966px;stroke-linecap:round;stroke-linejoin:round"/><path class="cls-24" id="line304" style="fill:none;stroke:#18403f;stroke-width:11.60999966px;stroke-linecap:round;stroke-linejoin:round" d="m162.624 157.427 83.81 71.36"/><path class="cls-23" d="M263.334 174.827s-42 48.06-78.56-70.34" id="path306" style="fill:none;fill-rule:evenodd;stroke:#18403f;stroke-width:11.60999966px;stroke-linecap:round;stroke-linejoin:round"/><path class="cls-23" d="M206.574 261.547s29-38.42-81.56-65.52" id="path308" style="fill:none;fill-rule:evenodd;stroke:#18403f;stroke-width:11.60999966px;stroke-linecap:round;stroke-linejoin:round"/><path class="cls-25" d="M150.344 173.457s28.27 39.62-2.54 75.37l-22.79-52.8" id="path310" style="fill:#a5d672;stroke:#18403f;stroke-width:11.60999966px;stroke-linecap:round;stroke-linejoin:round"/><path class="cls-25" d="M74.734 158.267s-41.37 25.64-26.75 70.52l41.41-39.92" id="path312" style="fill:#a5d672;stroke:#18403f;stroke-width:11.60999966px;stroke-linecap:round;stroke-linejoin:round"/><path class="cls-25" d="M147.374 73.727a56.38 56.38 0 0 0 7.49-19.18c3.83-19.09-1.66-36.28-12.26-38.41-10.6-2.13-22.3 11.62-26.13 30.7a56.18 56.18 0 0 0-.5 20.57" id="path314" style="fill:#a5d672;stroke:#18403f;stroke-width:11.60999966px;stroke-linecap:round;stroke-linejoin:round"/><path class="cls-25" d="m153.374 78.667 31.43-14.12s43.64 4.77 53.72 50.73l-53.75-10.79" id="path316" style="fill:#a5d672;stroke:#18403f;stroke-width:11.60999966px;stroke-linecap:round;stroke-linejoin:round"/><path class="cls-25" d="m108.574 69.667-23.55-25.16s-42.13-12.48-69.17 26.06l53.72 10.79" id="path318" style="fill:#a5d672;stroke:#18403f;stroke-width:11.60999966px;stroke-linecap:round;stroke-linejoin:round"/><path d="m133.354 62.207-63.78 19.15s-17.27 69.42 34.46 126.73c69.84-32.9 80.71-103.6 80.71-103.6z" id="path320" style="fill:#2a9e8c;stroke:#18403f;stroke-width:11.60999966px;stroke-linecap:round;stroke-linejoin:round"/><path class="cls-24" id="line322" style="fill:none;stroke:#18403f;stroke-width:11.60999966px;stroke-linecap:round;stroke-linejoin:round" d="m149.894 39.507 6.58 1.32"/><path class="cls-24" id="line324" style="fill:none;stroke:#18403f;stroke-width:11.60999966px;stroke-linecap:round;stroke-linejoin:round" d="m126.864 34.877-6.59-1.32"/><path class="cls-24" id="polygon326" style="fill:none;stroke:#18403f;stroke-width:11.60999966px;stroke-linecap:round;stroke-linejoin:round" transform="translate(-597.426 -774.973)" d="m707.72 872.49 30.71 6.16 9.96 29.96-20.75 23.79-30.72-6.17-9.96-29.95z"/><path class="cls-24" id="polyline328" style="fill:none;stroke:#18403f;stroke-width:11.60999966px;stroke-linecap:round;stroke-linejoin:round" transform="translate(-597.426 -774.973)" d="m770.92 913.13-22.53-4.52-9.96-29.96 17.87-20.49"/><path class="cls-24" id="polyline330" style="fill:none;stroke:#18403f;stroke-width:11.60999966px;stroke-linecap:round;stroke-linejoin:round" transform="translate(-597.426 -774.973)" d="m664.43 891.75 22.53 4.53 20.76-23.79-8.58-25.8"/><path class="cls-24" id="polyline332" style="fill:none;stroke:#18403f;stroke-width:11.60999966px;stroke-linecap:round;stroke-linejoin:round" transform="translate(-597.426 -774.973)" d="m678.04 947.88 18.88-21.65 30.72 6.17 9.07 27.3"/></svg>