<svg xmlns="http://www.w3.org/2000/svg" xmlns:xlink="http://www.w3.org/1999/xlink" id="Layer_1" data-name="Layer 1" version="1.1" width="253.21" height="199.55"><defs id="defs27"><linearGradient id="linear-gradient" x1="536.83" y1="202.52" x2="629.09" y2="202.52" gradientTransform="translate(-370.32 427.84)" gradientUnits="userSpaceOnUse"><stop offset="0" stop-color="#fff" id="stop4"/><stop offset=".16" stop-color="#faf7f2" id="stop6"/><stop offset=".44" stop-color="#ebe3cf" id="stop8"/><stop offset=".83" stop-color="#d4c296" id="stop10"/><stop offset="1" stop-color="#c9b37c" id="stop12"/></linearGradient><linearGradient id="linear-gradient-2" x1="5251.19" y1="1087.89" x2="5343.45" y2="1087.89" gradientTransform="matrix(0 -1 -1 0 1429.56 5927.68)" xlink:href="#linear-gradient"/><linearGradient id="linear-gradient-3" x1="274.89" y1="673.08" x2="274.89" y2="367.31" gradientUnits="userSpaceOnUse"><stop offset="0" stop-color="#c9b37c" id="stop16"/><stop offset=".14" stop-color="#cdb987" id="stop18"/><stop offset=".4" stop-color="#dacaa4" id="stop20"/><stop offset=".73" stop-color="#ede5d3" id="stop22"/><stop offset="1" stop-color="#fff" id="stop24"/></linearGradient><style id="style2">.cls-1{fill:#4c91c2}.cls-9{fill:#fff}</style></defs><path d="M132.39 199.55h-11.5l-97.91-19.36-20.23-4.85L6 162.11c5.59-22.76 11.46-57.06 7.72-91.26-2.16-19.74-6.6-30.52-6.92-31.26L0 25.1l15.51-4.16 7.54-2.1L124.39 0h4.52l101.3 18.87 23 6.39-6.74 14.33c-.31.74-4.76 11.52-6.91 31.26-2.07 18.87-2.4 50 7.72 91.26l3.25 13.23-20.76 5zm-8.85-27.11h6.2l88.14-17.42c-11.07-53.78-6-91.48-1.1-111.07l-90.14-16.79-90.17 16.78c4.85 19.59 10 57.29-1.11 111.07z" id="path189" style="fill:#c4c4c3"/><path class="cls-1" d="m131.03 185.99 96.08-19 7-1.67c-20.92-85.22 0-131.31 0-131.31l-7-1.94-99.49-18.53h-2L26.13 32.07l-7 1.94s20.91 46.09 0 131.31l7 1.67 96.07 19z" id="path191" style="fill:#4c91c2"/><path class="cls-1" d="M131.22 187.94h-9.23l-96.33-19-8.87-2.12.47-1.89c5.91-24.08 12.06-60.4 7.83-96.7-2.54-21.75-7.7-33.29-7.7-33.4l-.93-2.06 9.32-2.58 99.61-18.57h2.55l99.57 18.56 9.24 2.56-.94 2.06c-.05.11-5.17 11.65-7.71 33.35-2.34 20-2.88 53.08 7.83 96.7l.47 1.89-8.92 2.2zm-8.83-3.88h8.47l95.85-18.94 5.05-1.21c-5.85-24.44-11.67-60.4-7.43-96.41 2-17.11 5.55-27.9 7.16-32.18l-4.8-1.34-99.23-18.48h-1.66L26.55 33.94l-4.8 1.34c1.61 4.28 5.14 15.07 7.16 32.18 2.37 20.1 3 53-7.43 96.41l5 1.21z" id="path193" style="fill:#4c91c2"/><path class="cls-9" d="M196.39 64.99q1.66-7.49 4-14.82c-11.54-1.82-25-3.26-36.67-4.31-.77 5.35-1.45 10.69-2 16.06 3.06.19 4.6.3 7.66.54a364.386 364.386 0 0 0-2.47 30.62q-40.41-.72-80.83 0c-.39-10.27-1.22-20.43-2.47-30.62 3.07-.24 4.6-.35 7.67-.54-.6-5.37-1.29-10.71-2-16.06-11.64 1.05-25.14 2.49-36.68 4.31q2.29 7.32 4 14.82c3.06-.38 4.6-.56 7.66-.89a212.25 212.25 0 0 1 0 76c-3.06-.34-4.6-.52-7.66-.89q-1.68 7.49-4 14.82c11.54 1.82 25 3.25 36.68 4.3q1.14-8 2-16c-3.07-.2-4.6-.31-7.67-.54 1.24-10.11 2.06-20.17 2.46-30.34q40.42.72 80.85 0c.4 10.17 1.22 20.23 2.46 30.34-3.06.23-4.6.34-7.66.54q.9 8 2 16c11.63-1 25.13-2.48 36.67-4.3q-2.28-7.32-4-14.82c-3.07.37-4.6.55-7.67.89a212.25 212.25 0 0 1 0-76c3.08.33 4.61.51 7.67.89z" id="path195" style="fill:#fff"/><path class="cls-9" d="m162.03 160.41-.26-1.82a525.4 525.4 0 0 1-2.06-16.11l-.23-2 2-.13c2.32-.15 3.74-.25 5.63-.39-1-8.84-1.77-17.76-2.16-26.59-25.6.44-51.53.44-77.13 0-.4 8.83-1.12 17.75-2.16 26.59 1.88.14 3.31.24 5.63.39l2 .13-.23 2c-.6 5.35-1.29 10.77-2.06 16.11l-.26 1.82-1.83-.17c-14.57-1.31-27-2.76-36.8-4.32l-2.21-.35.66-2.14c1.52-4.85 2.84-9.78 3.92-14.67l.39-1.71 1.74.21c2.41.3 3.85.47 5.84.69a208.69 208.69 0 0 0 0-71.73c-2 .22-3.44.4-5.84.69l-1.74.22-.38-1.72c-1.09-4.88-2.41-9.81-3.93-14.67l-.66-2.14 2.21-.35c9.86-1.55 22.24-3 36.8-4.31l1.83-.17.26 1.82c.77 5.34 1.46 10.76 2.06 16.11l.23 2-2 .13c-2.32.15-3.75.25-5.63.39a368.34 368.34 0 0 1 2.17 26.87c25.59-.43 51.52-.43 77.11 0 .39-8.93 1.12-17.95 2.17-26.87-1.89-.15-3.31-.24-5.63-.39l-2-.13.23-2a525.4 525.4 0 0 1 2.06-16.11l.26-1.82 1.83.17c14.57 1.31 26.95 2.76 36.8 4.31l2.22.35-.67 2.14c-1.51 4.85-2.83 9.79-3.92 14.67l-.38 1.72-1.75-.22c-2.4-.29-3.85-.47-5.84-.69a208.69 208.69 0 0 0 0 71.73c2-.22 3.43-.39 5.84-.69l1.75-.21.38 1.71c1.09 4.89 2.41 9.82 3.92 14.67l.67 2.15-2.22.34c-9.85 1.56-22.23 3-36.8 4.32zm1.76-16.35c.47 4 1 8.11 1.56 12.16 12.63-1.17 23.55-2.43 32.51-3.78-1.11-3.69-2.1-7.41-3-11.12-2 .25-3.51.42-6 .68l-1.8.2-.32-1.78a212.89 212.89 0 0 1 0-76.67l.32-1.78 1.8.2c2.46.27 3.92.44 6 .69.86-3.71 1.85-7.43 3-11.12-9-1.35-19.88-2.62-32.51-3.78-.57 4-1.09 8.12-1.56 12.16 1.89.12 3.33.23 5.66.41l2 .16-.25 2c-1.24 10.1-2.07 20.35-2.45 30.45l-.07 1.9h-1.9c-26.8-.47-54-.47-80.77 0h-1.9l-.07-1.9c-.38-10.1-1.21-20.35-2.46-30.45l-.24-2 2-.16c2.33-.18 3.77-.29 5.66-.41-.47-4.05-1-8.12-1.55-12.16-12.63 1.16-23.55 2.43-32.51 3.78 1.1 3.69 2.09 7.41 3 11.12 2-.25 3.49-.42 6-.69l1.8-.19.32 1.77a212.89 212.89 0 0 1 0 76.67l-.32 1.78-1.8-.2c-2.45-.26-3.91-.43-6-.68-.87 3.7-1.86 7.43-3 11.12 9 1.35 19.87 2.61 32.51 3.78.56-4 1.08-8.11 1.55-12.16-1.89-.13-3.33-.23-5.66-.41l-2-.16.24-2c1.24-10 2.06-20.17 2.45-30.18l.08-1.89H86c26.81.48 54 .48 80.79 0h1.89l.08 1.89c.39 10 1.21 20.16 2.44 30.18l.25 2-2 .16c-2.33.18-3.77.29-5.66.41z" id="path197" style="fill:#fff"/></svg>