<svg xmlns="http://www.w3.org/2000/svg" id="Layer_1" data-name="Layer 1" version="1.1" width="199.76" height="319.99"><defs id="defs4"><style id="style2">.cls-4{fill:#e79f02}.cls-5{fill:#00246d}</style></defs><path id="polygon262" style="fill:none;stroke:#00246d;stroke-width:18.13999939px;stroke-miterlimit:10" transform="translate(-159.2 -756.95)" d="M238.02 1001.05h43.24l-9.07 66.82h-25.1z"/><path class="cls-4" id="rect264" style="fill:#e79f02" d="M0 93.37h199.76v147.81H0z"/><path class="cls-5" id="polygon266" style="fill:#00246d" transform="translate(-159.2 -756.95)" d="M202 818.29v64.19h24.99v83.49H202v64.18h114.17v-64.18h-24.99v-83.49h24.99v-64.19z"/><path id="polygon268" style="fill:#fff" transform="translate(-159.2 -756.95)" d="M222.74 839.03v22.72h24.99V986.7h-24.99v22.72h72.7V986.7h-25V861.75h25v-22.72z"/><path class="cls-5" id="polygon270" style="fill:#00246d" transform="translate(-159.2 -756.95)" d="m172.42 916.04 10.43 8.55-3.41 13.05 11.35-7.28 11.36 7.28-3.42-13.05 10.43-8.55-13.46-.78-4.91-12.57-4.91 12.57z"/><path class="cls-5" id="polygon272" style="fill:#00246d" transform="translate(-159.2 -756.95)" d="m309.01 916.04 10.43 8.55-3.41 13.05 11.35-7.28 11.36 7.28-3.42-13.05 10.44-8.55-13.47-.78-4.91-12.57-4.9 12.57z"/><path id="rect274" style="fill:none;stroke:#00246d;stroke-width:9.06999969px;stroke-miterlimit:10" d="M77.91 157.31h44.45v18.14H77.91z"/><path class="cls-4" d="M92.8 7.14c2.13 4.67 4.78 8.46 5.39 13.86 5.58-13.47 15.54-19.89 29.23-21 .45 1-.48 1.21-.91 1.55-7.9 6.38-10.2 14.48-7.63 24.19a89.5 89.5 0 0 1 2.92 13.54c.87 8.17-2.09 14.95-7.24 21a3.22 3.22 0 0 1-2.85 1.08c-5.3 0-10.6-.06-15.9 0a3.12 3.12 0 0 1-3.08-1.74c-7.08-12.35-10.68-25-4-38.84A39.83 39.83 0 0 0 92.8 7.14z" id="path276" style="fill:#e79f02"/><path class="cls-4" d="M140.8 11.43a8.76 8.76 0 0 1-1.32 6.47 12.25 12.25 0 0 0-1.24 9.37c.73 3 .23 5.95-.51 9.76l5.09-5.66c.55-.62 1.22-1.19 2-.66.78.53.2 1.24.07 1.88-.69 3.46-1.44 6.9-2.07 10.37-1.38 7.58-5.71 13.27-11.7 17.72-2.5 1.87-5.63.44-9 .8 1.35-1.91 2.37-3.31 3.34-4.74 5.55-8.25 6.16-17.31 4.59-26.83-1.57-9.52 2.1-15.71 10.75-18.48z" id="path278" style="fill:#e79f02"/><path class="cls-4" d="M72.13 14.78a33.34 33.34 0 0 1 4.25 18.62 81.86 81.86 0 0 0-.05 10.27c.48 5.59 3.35 10.14 6.94 14.29.88 1 1.8 2 3.06 3.42H72.39c-1.08 0-1.49-.82-2-1.51-6.59-8.82-8.59-18.22-3.66-28.59 2.4-5.02 4.76-10.1 5.4-16.5z" id="path280" style="fill:#e79f02"/></svg>