<svg xmlns="http://www.w3.org/2000/svg" id="Layer_1" width="462.326" height="487.01" data-name="Layer 1" version="1.1"><defs id="defs540"><style id="style538">.cls-1,.cls-3,.cls-4,.cls-5,.cls-6,.cls-8{stroke-width:0}.cls-8{fill:#fff}.cls-3{fill:#46644a}.cls-4{fill:#1f3a23}.cls-5{fill:#ccc}.cls-6{fill:#b50000}</style></defs><g id="g628" transform="translate(-68.854 -56.35)"><g id="g548"><path id="path544" d="M431.27 543.35c-11.73 0-23.97-3.53-33.56-9.68-12.49-8-20.4-19.93-22.25-33.57-2.74-20.16 5.07-38.03 20.7-48.69l-7.75 1.75c-2.02.46-4.08.69-6.14.69-4.77 0-9.47-1.26-13.6-3.59a173.96 173.96 0 0 1-23.16 20.64c-18.18 13.49-38.57 23.15-60.6 28.73-1.46.37-2.93.72-4.36 1.05l-.44.09c-1.11.25-2.34.51-3.58.76l-1.14.22c-1.03.2-2.08.4-3.14.59l-.85.15c-9.71 1.67-19.59 2.52-29.37 2.52-25.33 0-49.92-5.49-73.09-16.32l-5.59-2.61c-1.14-.53-2.23-1.17-3.24-1.91-44.21-23.83-75.88-65.47-86.93-114.31-6.06-26.77-5.75-53.78.91-80.28 6.06-24.12 17.53-47.16 33.17-66.65.72-1.24 1.58-2.4 2.56-3.46l5.04-5.47c19.64-21.31 44.51-37.46 71.93-46.69l.31-.1c2.64-.88 5.34-1.72 8.02-2.47l.8-.22c1.03-.29 2.1-.57 3.17-.85l.93-.24c2.81-.71 5.49-1.31 8.21-1.86.27-.06 1.25-.24 1.25-.24.93-.18 1.92-.37 2.91-.54.4-.07.8-.14 1.21-.2l.6-.1c.79-.13 1.59-.26 2.38-.38.48-.07.98-.14 1.48-.21l.47-.07c.75-.1 1.49-.21 2.23-.3.64-.08 1.27-.15 1.9-.22.75-.09 1.52-.17 2.28-.25.66-.07 1.3-.13 1.93-.18.76-.07 1.54-.13 2.31-.19.63-.05 1.24-.09 1.85-.13.81-.05 1.65-.1 2.49-.14.5-.03 1.06-.05 1.62-.08.92-.04 1.85-.07 2.78-.09l1.29-.03c.92-.02 1.8-.02 2.68-.02h1.35c29.92.16 59.44 8.13 85.41 23.06l6.45 3.71c1.26.72 2.43 1.58 3.48 2.54.63.42 1.26.85 1.88 1.28-3.24-6.95-7.38-15.03-12.44-23.41-16.76-27.77-35.91-46.65-56.93-56.14-11.87-5.36-18.34-18.01-15.73-30.77 2.61-12.77 13.53-21.86 26.56-22.12h.93c5.53 0 34.71.66 66.45 13.71 33.07 13.59 75.53 43.24 90.03 107.29l38.34 169.39 13.37-3.03c2.02-.46 4.09-.69 6.14-.69 5.2 0 10.29 1.48 14.73 4.28 6.26 3.95 10.6 10.09 12.23 17.29l6.35 28.06c1.63 7.2.35 14.61-3.59 20.87-3.94 6.26-10.09 10.6-17.29 12.23l-12.16 2.75.51 2.1c3.98 16.53 5.63 23.37 4.24 44.4-1 15.19-5.01 27.58-12.26 37.86-10.1 14.32-25.9 24.8-43.36 28.75a71.03 71.03 0 0 1-13.64 1.73c-.55.01-1.1.02-1.65.02z" class="cls-6" style="fill:#b50000;stroke-width:0"/></g><g id="g554"><path id="path550" d="M435.82 474.54c.22-.05-21.4-114.31-23.88-125.84 12.94-2.93 20.04-4.54 32.98-7.48 7.57 31.47 18.06 62.29 25.64 93.76 4.06 16.85 5 20.16 3.86 37.46-.55 8.36-2.44 16.89-7.27 23.74-7.94 11.26-21.38 18.38-35.15 18.76-11.88.33-27.48-6.04-29.28-19.29-1.48-10.89 3.06-20.09 13.33-24.54 10.22-4.44 18.8-2.03 21.33 9.11l.81 2.06" class="cls-4" style="fill:#1f3a23;stroke-width:0"/><path id="path552" d="M431.09 522.8c-7.4 0-15.15-2.02-21.42-5.6-8.36-4.78-13.6-12.06-14.74-20.5-2.01-14.78 4.71-27.04 17.98-32.8 4.85-2.11 9.02-2.82 12.48-2.75-5.74-30.79-19.01-100.89-21.14-110.8a7.843 7.843 0 0 1 5.94-9.31l32.98-7.48a7.851 7.851 0 0 1 9.37 5.82c3.74 15.56 8.31 31.31 12.73 46.54 4.46 15.39 9.08 31.31 12.91 47.22l.33 1.37c3.88 16.11 4.92 20.43 3.73 38.45-.76 11.45-3.6 20.53-8.69 27.74-9.29 13.17-25.13 21.64-41.35 22.09-.37.01-.74.02-1.12.02zm-6.12-45.94c-1.58 0-3.61.5-5.8 1.45-8.5 3.69-9.4 10.89-8.67 16.28 1.16 8.51 13.1 12.75 21.28 12.5 11.36-.32 22.45-6.23 28.95-15.44 3.38-4.79 5.29-11.24 5.85-19.73 1.03-15.62.37-18.39-3.33-33.73l-.33-1.37c-3.74-15.56-8.31-31.3-12.72-46.52-3.76-12.97-7.63-26.32-11.05-39.72l-18 4.08c2.56 13.03 7.42 38.49 11.46 59.8 2.84 15.01 5.61 29.67 7.64 40.57 1.02 5.46 1.86 9.99 2.43 13.14.29 1.6.52 2.86.67 3.71.12.68.19 1.31.21 1.9.51 1.23.95 2.58 1.32 4.06l.61 1.54c1.59 4.04-.4 8.59-4.44 10.18-4.04 1.59-8.59-.4-10.18-4.44l-.81-2.06a7.51 7.51 0 0 1-.35-1.14c-.39-1.71-1.16-3.92-2.65-4.67-.55-.28-1.25-.41-2.08-.41z" class="cls-1" style="stroke-width:0"/></g><path id="path556" d="M446.95 481.34s9.1-29.76 1.37-50.59l-13.43-4.76s5.71 44.24 12.06 55.35" class="cls-3" style="fill:#46644a;stroke-width:0"/><path id="path558" d="M418.39 479.76c-5.9 6.46.47 14.12 6.21 17.87 7.88 5.15 17.76 5.57 26.84 4.49 14.56-1.73-10.87 10.5-10.87 10.5h-22.18l-14.18-11.9-1.27-13.94 8.2-10.2" class="cls-3" style="fill:#46644a;stroke-width:0"/><path id="path560" d="M431.09 522.8c-7.4 0-15.15-2.02-21.42-5.6-8.36-4.78-13.6-12.06-14.74-20.5-2.01-14.78 4.71-27.04 17.98-32.8 4.85-2.11 9.02-2.82 12.48-2.75-5.74-30.79-19.01-100.89-21.14-110.8a7.843 7.843 0 0 1 5.94-9.31l32.98-7.48a7.851 7.851 0 0 1 9.37 5.82c3.74 15.56 8.31 31.31 12.73 46.54 4.46 15.39 9.08 31.31 12.91 47.22l.33 1.37c3.88 16.11 4.92 20.43 3.73 38.45-.76 11.45-3.6 20.53-8.69 27.74-9.29 13.17-25.13 21.64-41.35 22.09-.37.01-.74.02-1.12.02zm-6.12-45.94c-1.58 0-3.61.5-5.8 1.45-8.5 3.69-9.4 10.89-8.67 16.28 1.16 8.51 13.1 12.75 21.28 12.5 11.36-.32 22.45-6.23 28.95-15.44 3.38-4.79 5.29-11.24 5.85-19.73 1.03-15.62.37-18.39-3.33-33.73l-.33-1.37c-3.74-15.56-8.31-31.3-12.72-46.52-3.76-12.97-7.63-26.32-11.05-39.72l-18 4.08c2.56 13.03 7.42 38.49 11.46 59.8 2.84 15.01 5.61 29.67 7.64 40.57 1.02 5.46 1.86 9.99 2.43 13.14.29 1.6.52 2.86.67 3.71.12.68.19 1.31.21 1.9.51 1.23.95 2.58 1.32 4.06l.61 1.54c1.59 4.04-.4 8.59-4.44 10.18-4.04 1.59-8.59-.4-10.18-4.44l-.81-2.06a7.51 7.51 0 0 1-.35-1.14c-.39-1.71-1.16-3.92-2.65-4.67-.55-.28-1.25-.41-2.08-.41z" class="cls-1" style="stroke-width:0"/><g id="g566"><path id="path562" d="m417.57 386.91-41.89-185.05s-27.87-89.01-93.4-118.59c0 0 106.88-2.14 129.87 99.44l44.23 195.41-38.82 8.79z" style="fill:#999;stroke-width:0"/><path id="path564" d="M417.57 394.77c-3.59 0-6.83-2.47-7.65-6.12l-41.81-184.7c-1.75-5.33-29.3-86.54-89.05-113.51a7.842 7.842 0 0 1-4.46-8.73c.74-3.6 3.87-6.2 7.54-6.28 1.16-.02 28.71-.42 59.46 12.22 28.72 11.8 65.61 37.58 78.23 93.34l44.23 195.41a7.85 7.85 0 0 1-1.02 5.92 7.865 7.865 0 0 1-4.91 3.47l-38.82 8.79c-.58.13-1.17.2-1.74.2zM316.34 95.82c16.24 13.67 31.14 31.85 44.01 53.88 15.43 26.41 22.54 48.88 22.84 49.82.06.2.12.41.16.61l40.15 177.39 23.5-5.32-42.5-187.75c-8.9-39.3-31.9-66.91-68.39-82.07-6.84-2.84-13.55-4.97-19.78-6.56z" class="cls-1" style="stroke-width:0"/></g><path id="path568" d="M442.2 374.41c-4.23.96-8.44-1.7-9.39-5.93l-38.72-171.06c-8.12-35.89-33.46-62.52-53.28-78.53-21.89-17.69-42.15-26.76-42.35-26.85a7.862 7.862 0 0 1-4-10.36 7.852 7.852 0 0 1 10.35-4.01c.89.39 22.05 9.84 45.52 28.72 31.4 25.27 51.83 55.55 59.08 87.56l38.72 171.06c.96 4.23-1.7 8.44-5.93 9.39z" class="cls-5" style="fill:#ccc;stroke-width:0"/><path id="path570" d="M417.57 394.77c-3.59 0-6.83-2.47-7.65-6.12l-41.81-184.7c-1.75-5.33-29.3-86.54-89.05-113.51a7.842 7.842 0 0 1-4.46-8.73c.74-3.6 3.87-6.2 7.54-6.28 1.16-.02 28.71-.42 59.46 12.22 28.72 11.8 65.61 37.58 78.23 93.34l44.23 195.41a7.85 7.85 0 0 1-1.02 5.92 7.865 7.865 0 0 1-4.91 3.47l-38.82 8.79c-.58.13-1.17.2-1.74.2zM316.34 95.82c16.24 13.67 31.14 31.85 44.01 53.88 15.43 26.41 22.54 48.88 22.84 49.82.06.2.12.41.16.61l40.15 177.39 23.5-5.32-42.5-187.75c-8.9-39.3-31.9-66.91-68.39-82.07-6.84-2.84-13.55-4.97-19.78-6.56z" class="cls-1" style="stroke-width:0"/><g id="g576"><circle id="circle572" cx="242.1" cy="330.85" r="145.71" class="cls-8" style="fill:#fff;stroke-width:0"/><path id="path574" d="M242.08 484.42c-70.14 0-133.63-48.45-149.75-119.67-9.06-40-1.99-81.14 19.89-115.83s55.97-58.78 95.97-67.84c40-9.05 81.14-1.99 115.83 19.89s58.78 55.97 67.84 95.97c18.69 82.58-33.28 164.98-115.87 183.67a153.662 153.662 0 0 1-33.92 3.81zm.28-291.48c-10.21 0-20.5 1.14-30.7 3.45-35.91 8.13-66.51 29.76-86.16 60.9-19.65 31.14-25.99 68.07-17.86 103.99 16.78 74.14 90.76 120.8 164.89 104.02 74.14-16.78 120.8-90.75 104.02-164.88-8.13-35.91-29.76-66.51-60.9-86.16-22.29-14.06-47.56-21.31-73.28-21.31z" class="cls-1" style="stroke-width:0"/></g><circle id="circle578" cx="261.23" cy="329.74" r="126.8" class="cls-5" style="fill:#ccc;stroke-width:0"/><g id="g584"><circle id="circle580" cx="275.42" cy="323.3" r="111.54" class="cls-6" style="fill:#b50000;stroke-width:0"/><path id="path582" d="M275.18 442.74c-22.29 0-44.16-6.28-63.47-18.46-26.97-17.02-45.7-43.52-52.74-74.62-14.53-64.21 25.88-128.27 90.09-142.81 31.1-7.04 63.09-1.55 90.06 15.47s45.7 43.52 52.74 74.62c7.04 31.1 1.55 63.09-15.47 90.06s-43.52 45.7-74.62 52.75c-8.83 2-17.75 2.99-26.59 2.99m.44-223.16c-7.68 0-15.42.86-23.09 2.6-55.76 12.62-90.86 68.26-78.24 124.02 6.11 27.01 22.38 50.03 45.81 64.81 23.43 14.78 51.2 19.55 78.21 13.43 27.01-6.11 50.03-22.38 64.81-45.81 14.78-23.42 19.55-51.2 13.43-78.21-6.11-27.01-22.38-50.03-45.81-64.81-16.77-10.58-35.77-16.03-55.12-16.03" class="cls-1" style="stroke-width:0"/></g><path id="path586" d="M214.71 273.77c-31.82 0-62.43-12.73-85.32-36.27l-5.18-5.33 5.04-5.47c21.14-22.94 48.44-38.72 78.95-45.62 37.69-8.53 76.9-2.63 110.39 16.63l6.45 3.71-3.35 6.64c-16.13 31.96-45.38 54.82-80.27 62.72-8.9 2.01-17.85 3-26.71 3zm-68.54-41.94c25.01 22.28 58.77 31.09 91.79 23.62 27.8-6.29 51.49-23.53 66.02-47.78-28.51-14.35-60.99-18.36-92.31-11.27-24.87 5.63-47.37 17.82-65.49 35.43z" class="cls-1" style="stroke-width:0"/><path id="path588" d="M241.79 484.47c-22.18 0-44.08-4.86-64.64-14.48l-5.59-2.61 1.22-6.05c9.27-46.1 44.88-82.59 90.73-92.97 39.5-8.94 80.46 2.58 109.57 30.82l4.44 4.3-3.14 5.32c-21.73 36.86-56.67 62.37-98.38 71.81-11.38 2.57-22.83 3.85-34.2 3.85zm-52.19-26.15c26.34 10.91 54.88 13.33 82.93 6.98 35.37-8.01 65.33-28.89 84.98-59.08-24.89-21.43-58.27-29.84-90.53-22.54-37.77 8.55-67.54 37.51-77.38 74.64" class="cls-1" style="stroke-width:0"/><path id="path590" d="m111.8 388.25-8.98-12.89c5.31-3.7 10.6-7.45 15.89-11.19 22.37-15.84 45.51-32.22 70.48-45.24 31.35-16.34 65.31-22.94 98.15-29.32 5.82-1.13 11.85-2.3 17.76-3.51 25.72-5.25 53.09-3.26 78.84-.33l-1.78 15.6c-24.46-2.79-50.34-4.7-73.92.11-5.98 1.22-12.04 2.4-17.9 3.54-33.2 6.45-64.56 12.55-93.89 27.83-24.02 12.52-46.72 28.59-68.66 44.13-5.32 3.77-10.64 7.54-15.99 11.26z" class="cls-1" style="stroke-width:0"/><g id="g596"><path id="polygon592" d="m378.85 367.38-56.33-34.29-38.96 38.78 9.99-51.27-51.52-13.71 57.07-16.36 13.81-44 16.21 37.68 55.11-.19-35.69 29.81z" class="cls-8" style="fill:#fff;stroke-width:0"/><path id="path594" d="M283.56 379.73c-1.26 0-2.53-.3-3.69-.92a7.851 7.851 0 0 1-4.01-8.43l8.59-44.07-44.43-11.82a7.847 7.847 0 0 1-5.83-7.51 7.846 7.846 0 0 1 5.69-7.62l53-15.2 12.55-39.96a7.853 7.853 0 0 1 7.09-5.49c3.3-.16 6.32 1.72 7.61 4.74l14.15 32.91 49.93-.17h.03a7.849 7.849 0 0 1 5.03 13.88l-30.67 25.61 27.08 47.85a7.855 7.855 0 0 1-10.92 10.58l-51.07-31.09-34.6 34.44a7.854 7.854 0 0 1-5.54 2.29zm-12.06-73.12 24.07 6.4a7.856 7.856 0 0 1 5.69 9.09l-5.09 26.14 20.81-20.72a7.85 7.85 0 0 1 9.62-1.14l30.54 18.59-15.44-27.28a7.844 7.844 0 0 1 1.8-9.89l18.98-15.85-33.35.11h-.03c-3.14 0-5.97-1.87-7.21-4.75l-7.84-18.23-7.48 23.8a7.82 7.82 0 0 1-5.33 5.19l-29.76 8.54zm27.6-16.08h.01z" class="cls-1" style="stroke-width:0"/></g><g id="g602"><path id="polygon598" d="m382.13 425.45-6.35-28.06 42.01-9.51 14.37-22.8 24.45 14.01 40.36-9.13 6.35 28.06-39.38 8.91L448.36 426l-24.97-9.89z" style="fill:#eac56b;stroke-width:0"/><path id="path600" d="M448.36 431.27c-.65 0-1.31-.12-1.94-.37l-23.46-9.29-39.67 8.98c-1.36.31-2.79.06-3.98-.68a5.292 5.292 0 0 1-2.33-3.3l-6.35-28.06a5.283 5.283 0 0 1 3.98-6.31l39.88-9.03 13.21-20.95a5.266 5.266 0 0 1 7.08-1.76l22.66 12.99 38.35-8.68a5.3 5.3 0 0 1 3.98.68c1.18.75 2.02 1.93 2.33 3.3l6.35 28.06c.31 1.36.06 2.79-.68 3.98a5.292 5.292 0 0 1-3.3 2.33l-37.61 8.51-14.43 17.66a5.274 5.274 0 0 1-4.09 1.94zm-24.97-20.43c.66 0 1.32.12 1.94.37l21.39 8.47 13.14-16.08c.74-.91 1.77-1.55 2.92-1.81l34.24-7.75-4.02-17.77-35.21 7.97c-1.29.29-2.64.09-3.79-.57l-20.06-11.5-11.68 18.52a5.292 5.292 0 0 1-3.3 2.33l-36.87 8.35 4.02 17.77 36.12-8.17c.38-.09.77-.13 1.16-.13" class="cls-1" style="stroke-width:0"/></g><g id="g608"><path id="line604" d="m432.81 368.48-13.42-59.28" class="cls-4" style="fill:#1f3a23;stroke-width:0"/><path id="path606" d="M432.81 371.5c-1.38 0-2.62-.95-2.94-2.35l-13.42-59.28c-.37-1.62.65-3.24 2.27-3.6a3 3 0 0 1 3.6 2.27l13.42 59.28c.37 1.62-.65 3.24-2.27 3.6-.22.05-.45.07-.67.07z" class="cls-1" style="stroke-width:0"/></g><g id="g614"><path id="line610" d="m448.33 374.6-15.52 42.07" class="cls-4" style="fill:#1f3a23;stroke-width:0"/><path id="path612" d="M432.81 419.68c-.35 0-.7-.06-1.04-.19a3.011 3.011 0 0 1-1.78-3.87l15.51-42.07a3.011 3.011 0 1 1 5.65 2.09l-15.51 42.07a3.01 3.01 0 0 1-2.83 1.97" class="cls-1" style="stroke-width:0"/></g><g id="g620"><path id="line616" d="m467.22 377.98-15.52 42.07" class="cls-4" style="fill:#1f3a23;stroke-width:0"/><path id="path618" d="M451.7 423.07c-.35 0-.7-.06-1.04-.19a3.011 3.011 0 0 1-1.78-3.87l15.51-42.07a3.011 3.011 0 1 1 5.65 2.09l-15.51 42.07a3.01 3.01 0 0 1-2.83 1.97" class="cls-1" style="stroke-width:0"/></g><g id="g626"><path id="line622" d="m429.02 373.24-15.51 42.07" class="cls-4" style="fill:#1f3a23;stroke-width:0"/><path id="path624" d="M413.51 418.33c-.35 0-.7-.06-1.04-.19a3.011 3.011 0 0 1-1.78-3.87l15.51-42.07a3.011 3.011 0 1 1 5.65 2.09l-15.51 42.07a3.01 3.01 0 0 1-2.83 1.97" class="cls-1" style="stroke-width:0"/></g></g></svg>