<svg xmlns="http://www.w3.org/2000/svg" id="Layer_1" data-name="Layer 1" version="1.1" width="281.16" height="293.05"><defs id="defs7"><clipPath id="clip-path"><path d="M618.16 282.82H374.7l-.36 163.73a73.54 73.54 0 0 0 73.52 73.52h96.43a73.54 73.54 0 0 0 73.52-73.52z" id="path4" style="fill:none"/></clipPath><style id="style2">.cls-24{fill:none}.cls-5{fill:#2e3147}.cls-23,.cls-8{fill:#f47c06}.cls-13{fill:#28c628}.cls-14{fill:#108910}.cls-15{fill:#90e260}.cls-23,.cls-24{stroke:#2e3147;stroke-linecap:round;stroke-linejoin:round;stroke-width:5.06px}</style></defs><path class="cls-5" d="M252.16 61V0l-81 18.2v36.38l-3.1-3.5-30.41 12.43-1.58 1.36c-3.38 2.79-14.57 6.75-23 8.73l-22.64 4.19a37.57 37.57 0 0 0-23.27 11.34 49.66 49.66 0 0 0-7.94 10.63l-20.1 9a35.59 35.59 0 0 0-6.55-.62 30.62 30.62 0 0 0-12.27 2.49c-8.41 3.66-14.49 10.72-18.08 21a35.82 35.82 0 0 0 5.58 34.73 46.93 46.93 0 0 0 9.3 9 36.53 36.53 0 0 0 7.25 11.67c6.31 6.9 15.24 11.89 26.55 14.83l.78.18a500.29 500.29 0 0 1 63.77 18.52 440.29 440.29 0 0 1 57.57 25.31c21.36 11.39 39.6 23.9 54.21 37.18l10.95 10 19.12-24.27v-74.26l23.86 2.88V61z" id="path331" style="fill:#2e3147"/><path class="cls-13" d="M242.59 68.32V9.71l-61.84 13.9v36.92l-11.26 4.34-4.07-4.6-22.77 9.31-.5.41c-6.11 5-21.53 9.42-27.07 10.71L91.8 85c-15.71 1.41-23.34 15-25.6 19.86l-26.13 11.77c-3.09-.94-9.52-2.23-15.95.57-5.86 2.55-10.19 7.72-12.86 15.37a26.2 26.2 0 0 0 4.12 25.73 39.17 39.17 0 0 0 9.87 8.87c1.08 4.65 6 17.52 28.07 23.25l.24.06a503.1 503.1 0 0 1 65.15 18.89 450.92 450.92 0 0 1 58.81 25.83c22.06 11.76 40.95 24.73 56.15 38.55l3.35 3 10.72-13.61v-81.66l23.86 2.88v-116z" id="path333" style="fill:#28c628"/><path class="cls-5" d="M29.16 165.12s1.22 15 25.22 21.21c0 0 114.29 22.61 182.12 84.29l7-8.91v-85l23.86 2.88V72.53h-29V14.98l-53.41 12V68.2" id="path335" style="fill:#2e3147"/><path class="cls-5" d="M189.49 158.32s-36.23 11.66-66 12.94c0 0-45.37-6.22-64.08 1.47 0 0-18.1 8.06-29.21-7.61 0 0-22.15-10.55-14.94-31.17 7.21-20.62 25-12.8 25-12.8l29.17-13.13s6.44-17.49 22.93-18.84l23.58-4.31s20.62-4.76 28.9-11.59l19.4-7.93 4 4.55 29.19-11.22-.69 97.72z" id="path337" style="fill:#2e3147"/><path class="cls-13" d="M43.05 166.92s-4.48-.73-4.44-4.88l.61-4.34s-6.17.15-10.14-3.14c-3.97-3.29-9.81-9.22-7.28-17.57 2.53-8.35 17.91-7.23 35.53-6.3l-10.25-6s18.32-7.68 38.26-14.79l-7.37-1s4.34-12.71 20.07-11.7l-2.41 11.1s6.94-14.22 33.42-8.3l-9.46-6.79s5.93-3.14 21-6.26l18.53-9.4 3.16 7.22 20-10.25 3.6 7.81.58 35s-12.78 13.08-6.23 31.47l-7.3-9.93 1.69 12.14-11.06 4.54-1.11-16.32-6.93 17.81s-20.29 5.25-29.28 4.25c0 0 18.38 1 32-31.25 0 0-22.45 30-57.52 29 0 0-23.05-3-34.69.1z" id="path339" style="fill:#28c628"/><path class="cls-14" d="M93.55 116.97s23.6 20 37.44-11.88" id="path341" style="fill:#108910"/><ellipse class="cls-5" cx="-135.714" cy="56.651" rx="3.68" ry="5.66" transform="rotate(-82.04)" id="ellipse343" style="fill:#2e3147"/><path class="cls-5" d="m33.82 160.71-1.26-4.16c.11 0 10.78-3.27 15.19-5.7l1.23-.68 2.55 1.93 1.69-12.06 7.56 7 9.08-3.17.92 1.31 1.4-10 7.74 9.5 1.89-2.75 5.71-1.14 1.64-11.61 7.11 10.14 5.84-15 6.67 9.26a31.27 31.27 0 0 0 18.88-6.27c9.46-7.37 15.94-11.68 26.16-9.64l-.85 4.26c-7.71-1.55-12.42.84-22.64 8.8a35 35 0 0 1-22.9 7.14l-1-.09-3.19-4.44-5.89 15.09-5.44-7.75-.52 3.72-7 1.39-4.18 6.08-5.11-6.27-1.55 11.07-5.39-7.63-8.45 3-3.34-3.17-1.56 11.14-6.24-4.71a131 131 0 0 1-14.75 5.41z" id="path345" style="fill:#2e3147"/><path class="cls-8" d="M106.87 118.87s8.75 2.73 10.71-5.85l2.58-7.35s-16.38 3.2-19.49 9.45" id="path347" style="fill:#f47c06"/><path class="cls-5" d="m93.55 116.97 13.32 1.9s-4-2.54-3.72-4.76l6.58-3.6 3.42 4.86.86-6.1 4.2-.69-.63 4.44 13.41-7.89s-24-5.37-37.44 11.84z" id="path349" style="fill:#2e3147"/><path class="cls-15" d="M57.33 130.69c-17.62-.93-33-2.05-35.53 6.3-2.53 8.35 3.3 14.28 7.28 17.57a11.61 11.61 0 0 0 2.77 1.67s-8.84-11.79-1.09-20.8z" id="path351" style="fill:#90e260"/><path class="cls-15" id="polygon353" style="fill:#90e260" transform="translate(-112.84 -767.13)" d="m159.92 891.78 6.99 4.27 31.27-19.06z"/><path class="cls-5" id="polyline355" style="fill:#2e3147" transform="translate(-112.84 -767.13)" d="m238.37 900.96 27.42-11.89-5.2-1.65-7.55.76-9.29 6.9"/><path class="cls-14" id="polygon357" style="fill:#108910" transform="translate(-112.84 -767.13)" d="m271.93 844.61-18.53 9.4 21.69-2.18z"/><path class="cls-14" id="polygon359" style="fill:#108910" transform="translate(-112.84 -767.13)" d="m295.04 841.58-19.95 10.25 23.55-2.44z"/><path class="cls-14" id="polygon361" style="fill:#108910" transform="translate(-112.84 -767.13)" d="m267.98 862.75-18.52 9.4 21.68-2.18z"/><path class="cls-14" id="polygon363" style="fill:#108910" transform="translate(-112.84 -767.13)" d="m291.09 859.72-19.95 10.25 23.55-2.44z"/><path class="cls-15" d="m184.68 119.34-26.42 10.7c-13.64 32.25-32 31.25-32 31.25 9 1 29.28-4.25 29.28-4.25l6.93-17.81 1.11 16.32 11.06-4.54-1.71-12.14 7.22 9.88a31.28 31.28 0 0 1 4.53-29.41z" id="path365" style="fill:#90e260"/><path id="polyline367" style="fill:#2e3147;stroke:#f47c06;stroke-width:4.21999979px;stroke-miterlimit:10" transform="translate(-112.84 -767.13)" d="m367.25 931.52-31.37-3.68v48.73l5.74 32.88-28.67-14.01V803.65l22.93-2.8v83l32.8 2.11"/><path class="cls-23" id="polygon369" style="fill:#f47c06;stroke:#2e3147;stroke-width:5.05999994px;stroke-linecap:round;stroke-linejoin:round" transform="translate(-112.84 -767.13)" d="M330.26 807.21v168.92l3.68 23.31-15.37-7.51v-183.3z"/><path d="M56.06 173.79s90.6-10.08 129.74 7.12v39.74s-37.33-33.21-129.74-46.86z" id="path371" style="fill:#3784d1"/><path d="M120.93 179.95c33.5 3.48 64.87 22.52 64.87 22.52v-7c-27.05-14.01-64.87-15.52-64.87-15.52z" id="path373" style="fill:#93c6f9"/><path class="cls-24" id="polyline375" style="fill:none;stroke:#2e3147;stroke-width:5.05999994px;stroke-linecap:round;stroke-linejoin:round" transform="translate(-112.84 -767.13)" d="M330.26 841.58h-11.93l11.93 23.27h-11.69l11.69 19h-11.93l11.93 22.22h-11.93l11.93 21.77h-11.93l11.93 16.54-10.26.09"/><path class="cls-23" id="line377" style="fill:#f47c06;stroke:#2e3147;stroke-width:5.05999994px;stroke-linecap:round;stroke-linejoin:round" d="m217.42 209-11.93-4.69"/><path class="cls-8" id="polygon379" style="fill:#f47c06" transform="translate(-112.84 -767.13)" d="M356.1 919.48v-22.76l-19.56-1.68v21.48z"/><path class="cls-24" id="line381" style="fill:none;stroke:#2e3147;stroke-width:5.05999994px;stroke-linecap:round;stroke-linejoin:round" d="m223.7 127.91 19.56 24.43"/><path id="polyline383" style="fill:none;stroke:#f47c06;stroke-width:4.21999979px;stroke-miterlimit:10" transform="translate(-112.84 -767.13)" d="m372.38 936.21-6.56-6.01 6.56-6.65-6.56-5.75 5.62-6.26-5.62-8.22 5.62-6.27-8.86-6.76 8.86-5.1-5.62-7.42 6.56-3.53"/><path class="cls-8" id="polygon385" style="fill:#f47c06" transform="translate(-112.84 -767.13)" d="m352.8 869.97-1.66 6.32 12.65-4.98z"/><path class="cls-8" id="polygon387" style="fill:#f47c06" transform="translate(-112.84 -767.13)" d="m364.87 941.93 2.61-2.51-1.68-.77-7.91-1.74z"/><path class="cls-13" id="polyline389" style="fill:#28c628" transform="translate(-112.84 -767.13)" d="m382.31 887.42-6.81 3.13 6.81 4.49v5.92l-5.64 2.36 4.86 4.19.78 7.94h-5.25l4.47 4.03.78 9.78h-6.81l6.81 5.64"/></svg>