<svg xmlns="http://www.w3.org/2000/svg" id="Layer_1" width="577.5" height="307" version="1.1"><defs id="defs7"><clipPath id="clippath"><path id="path4" fill="none" d="M242.2 279.6s58.8 5.6 88.2 56.8c0 0 115.7 15.4 168-47.4 0 0 29.8-30.1 64.6-33.8 0 0-154-86.3-280.5-80.7 0 0-38.8 17-90 21.2l-49.8 28.7S96 249 119 262a973 973 0 0 0 43.3 22.6c11.5 5.7 47.7 2.9 47.7 2.9l32-8z"/></clipPath><style id="style2">.cls-2{fill:none}.cls-8{fill:#443619}.cls-10,.cls-2{stroke:#443619;stroke-linecap:round;stroke-linejoin:round}.cls-12{fill:#c4ce65}.cls-10{fill:#e2a554}.cls-15{fill:#717a1a}.cls-16{fill:#96a53d}.cls-10{stroke-width:17.79px}.cls-2{stroke-width:8.89px}</style></defs><g id="g201" transform="translate(-11.2 -146.5)"><path id="path11" fill="#dadd9e" d="m580.9 244-8.8-5c-.3-.1-33.8-18.8-83.2-38.6a173.6 173.6 0 0 0-27.8-20.9A225 225 0 0 0 370 149a199.8 199.8 0 0 0-79.3 3.2c-14.1 2.9-27.8 7-40.7 12.2-8.6-.4-22.1-.3-28.5 2.9a22.7 22.7 0 0 0-7.9 7.1 278.6 278.6 0 0 1-22.6 2.8h-.7c-2.2.2-4.5 1-6.4 2l-50.1 29c-12 6.3-39.3 23.1-39.6 44.6-.1 4 .8 13 9.2 20.6l-1.2.7-.6.4-2.3 1.4-.7.4a229 229 0 0 0-5.9 3.7l-.9.5-2.1 1.5-1 .6a208.8 208.8 0 0 0-5.9 4.2l-.9.6-2.1 1.6-1 .7-2.7 2.3-.1.1-2.8 2.3-.9.8-2 1.8-.8.8-1.7 1.5c-6 2.9-8.2 3-8.7 3-6.4-1.6-9.2-11.2-6.8-23.8.5-2.5-.2-5-1.8-7a8.6 8.6 0 0 0-6.6-3.2h-1.6a8.5 8.5 0 0 0-7 3.4 72.4 72.4 0 0 0-6.6 10.4c-.4-.4-.9-.8-1.4-1a8.7 8.7 0 0 0-8-.7l-1.3.5a8.7 8.7 0 0 0-5.1 6c-2 8.7-4 25.4 5.5 39.8a34.1 34.1 0 0 0 27.4 17c19.5.6 33.5-11.7 45.8-22.6a229 229 0 0 1 13.4-11l1.3-1 .6-.4a194 194 0 0 1 8.8-5.9l.8-.5 2-1.2.8-.5.7-.4 7.7-4.3 1.2-.6 4.4-2.2 1-.5 1.5-.7 11.2 5.7v7.2c0 40.7 20.8 78.7 58.6 106.8 36.2 27 84 42 134.8 42 50.7 0 98.6-15 134.9-42 37.7-28.1 58.5-66 58.5-106.8v-4.4a109.7 109.7 0 0 0-.4-15 78.7 78.7 0 0 1 31.5-11.7l10-1c6.7-.8 12.1-5.7 13.5-12.2a15.3 15.3 0 0 0-7.5-16.5z"/><g id="g199"><g id="g23"><ellipse id="ellipse13" cx="340.4" cy="304.8" fill="#e2a554" stroke="#443619" stroke-linecap="round" stroke-linejoin="round" stroke-width="17.8" class="cls-10" rx="175.9" ry="131.1"/><ellipse id="ellipse15" cx="340.4" cy="295.9" fill="#e2a554" stroke="#443619" stroke-linecap="round" stroke-linejoin="round" stroke-width="17.8" class="cls-10" rx="175.9" ry="131.1"/><path id="path17" fill="#e2a554" stroke="#443619" stroke-linecap="round" stroke-linejoin="round" stroke-width="17.8" d="M340.4 164.8c-97.1 0-175.8 58.7-175.8 131.1 0 4.8.3 9.5 1 14 38.4 41.3 102.4 68.3 174.8 68.3s136.4-27 174.9-68.2a98.8 98.8 0 0 0 1-14c0-72.5-78.7-131.2-175.9-131.2z" class="cls-10"/><path id="path19" fill="none" stroke="#443619" stroke-linecap="round" stroke-linejoin="round" stroke-width="17.8" d="m337.4 167.9.1 121.6c0 18.5 0 37 1.6 55.4 2.2 27 7.5 53.7 15.9 79.5"/><path id="path21" fill="none" stroke="#443619" stroke-linecap="round" stroke-linejoin="round" stroke-width="18.7" d="M273.9 415.8c9.5-3.9 19.6-8.3 24.9-17 7.3-12.1 3-27.9-3.6-40.4-10.8-20.4-27-37.5-43.5-53.7-9-8.7-18.2-17.4-24.3-28.2a65.7 65.7 0 0 1 5.3-70.6 93.3 93.3 0 0 1 35.6-26.7s51-27.3 121.3-7.6c21.9 6.2 38.2 27.5 46 49.4 12 33.8 2 74.5-24.3 98.6-8.7 8-19.4 15-23.2 26.2-5 15 .5 35.9 14 44.6 6.6 4.3 14.5 4.4 22 4 7.4-.5 15.4-.7 23-2 8-1.4 14.8-5 22.3-8.1"/></g><path id="path25" fill="#443619" stroke="#443619" stroke-linecap="round" stroke-linejoin="round" stroke-width="13.3" d="M361.6 341.3c-18.7 0-31.1-1.7-31.6-1.7l-1.6-.2-.8-1.4c-26.8-46.6-79.4-54.5-85.2-55.2l-31.8 7.9h-.2c-.4 0-9.2.7-19.5.7v0c-14.6 0-24.7-1.3-29.9-4a1003 1003 0 0 1-43.5-22.6c-6.7-3.8-8-8.5-8-11.8.2-14.4 28.5-29.8 31.7-31.5l50.3-29h.8c50-4 88.6-20.8 89-21l.5-.2h.6l12-.3c123.4 0 268.8 80.6 270.2 81.4l8.8 5-10 1c-32.4 3.4-60.9 31-62.7 32.8-36.4 43.5-102.7 50-139 50z"/><path id="path27" fill="#96a53d" d="M242.2 279.6s58.8 5.6 88.2 56.8c0 0 115.7 15.4 168-47.4 0 0 29.8-30.1 64.6-33.8 0 0-154-86.3-280.5-80.7 0 0-38.8 17-90 21.2l-49.8 28.7S96 249 119 262a973 973 0 0 0 43.3 22.6c11.5 5.7 47.7 2.9 47.7 2.9l32-8z" class="cls-16"/><path id="path29" fill="#717a1a" d="M396.8 333.3a173.2 173.2 0 0 0-112.1-63l-20.8 14.3a117 117 0 0 1 66.5 51.8s31 4.1 68.2-.6l-1.8-2.5z" class="cls-15"/><g id="g145" clip-path="url(#clippath)"><g id="g109"><path id="path31" fill="#717a1a" d="M373.1 311.8c.6-.7 1.3-1.6 2-1.8.7-.2 1.5 0 2.1 0 4 .5 7.4 1.4 12.4 2.5 1 .3 1.9.9 2.5 1.6.6.6 4 6.9 5.3 9.3.4.6.7 1.2.7 1.8 0 .8-.3 1.4-.6 2l-8 15.4c-.3.6-.6 1.1-1.1 1.6-1 .8-2.4.8-3.7.8a570 570 0 0 1-19.8-.9c-.6 0-1.3 0-1.8-.5-.4-.3-.5-.8-.7-1.3a60 60 0 0 1-2.8-9.6c.2-1 2.7-4.7 4-6.8 3.6-5.5 5.8-9.1 9.5-14.1z" class="cls-15"/><path id="path33" fill="#717a1a" d="M399.2 328.6a6 6 0 0 1 1.6-2.2l1.9-.7a46 46 0 0 1 7.4-.8c.7.2 1.2.8 1.7 1.3l3.6 3.9c.2.1.4.3.4.5v.7c-.3 2.4-.8 4.7-1.3 7.5-.4 2.2-.8 4.9-1.4 7-.6 2.7-.8 5-2 7.5-.5 1-4.9 1.4-6.8 1.5-1.6 0-2.7-1.3-4-2.2-3-2.2-4.8-3.8-7.6-6.2-.7-.6-1.8-1.1-1.7-2 0-.8 1.2-2.3 1.6-3l3.1-6.1 3.5-6.7z" class="cls-15"/><path id="path35" fill="#717a1a" d="m395.6 315.4-.4-.5a6 6 0 0 1-.8-2.2c-.1-1.2.6-2.4 1.3-3.4l6.1-9.2c.4-.6.8-1.1 1.3-1.5l1.5-.5 4.2-.8c.6-.2 1.2-.3 1.6 0 .5.3.7.8.9 1.3l4 10.4c.1.5.3.9.2 1.3 0 .3-.2.6-.4 1-1.7 3.5-3.4 6.9-5.3 10l-.5.8-1.1.4c-2 .6-4 .7-5.6 1-1 .2-2 .6-2.7-.5l-4.3-7.6z" class="cls-15"/><path id="path37" fill="#717a1a" d="m416.7 312 .6-1a5 5 0 0 1 1.1-1 22.2 22.2 0 0 1 7.1-3.1c.6 0 1 .2 1.5.5l3 2 4.3 3.3c.5.3 1 .8 1.2 1.4.1.5 0 1.1-.3 1.6a104.6 104.6 0 0 1-5.6 12.2A239.3 239.3 0 0 1 417 329c-.4 0-.7-.4-1-.7a148 148 0 0 1-3-3.5c-1.5-1.6-1.5-1.8-.6-3.7l4.3-9z" class="cls-15"/><path id="path39" fill="#717a1a" d="m430.6 333 .5 1.1 2.4 4.6c.6 1.3 1.7 3 1.2 4.5-.8 2.7-1.5 5.4-2.5 8.1l-1.2 2.9c-.3.7-.6 2.2-1.4 2.4-1.9.4-4.9-.1-7.2-.4-2.5-.2-4.2-.3-7-1-2-.7-1-3.6-.9-5 .4-2.8 1-5.6 1.5-8.3l1.1-5.5c.4-1.8.4-3 .9-4.6.3-1 1.5-.9 2.3-1 2.3 0 4.5-.3 6.7-.4.8 0 1.8-.1 2.4.6.5.5.8 1.2 1.2 2z" class="cls-15"/><path id="path41" fill="#717a1a" d="m409.1 359.3 1-1.4c.5-1 .6-1.5-.6-2h-1l-2.3.1c-.7 0-1.4 0-2 .3l-1.7.8-15.4 9c-.3.1-.6.3-.8.6-.1.3 0 .6 0 .8l.3 10.3c0 .4 0 .9.3 1.2.9.9 2.9.3 3.9.1l4.8-.8 1-.4c1.6-1 2.5-3 3.5-4.5l3.5-5.4a586.2 586.2 0 0 0 5.5-8.7z" class="cls-15"/><path id="path43" fill="#717a1a" d="M413.6 357.7a2 2 0 0 1 1.1-.3l4 .3 7.7 1.2c.4 0 .9 0 1.2.4 1.5 1.4-7.5 8.8-8.7 10-2.4 2.3-4.6 4.8-7.7 6.2a68 68 0 0 1-8.9 3.4c-.8.3-2 .7-2.2-.4-.2-1.4 2-3.5 2.6-4.6l6.3-9.3 3-4.6c.6-.8 1-1.8 1.6-2.3z" class="cls-15"/><path id="path45" fill="#717a1a" d="m429 362.3 1.1-.5c1.2-.3 2.8 1.8 3.5 2.6 1.3 1.2 2.5 2.5 3.5 4 .4.5 1.2 1.3 1.3 2 .4.9-1.5 2.8-2.7 3.9l-3.7 3.8c-1.5 1.4-1.8 1.2-3.2 1.4-2.5 0-5.4 0-6.6-.4a20 20 0 0 1-5.2-4c-.3-1.6 2-2.8 2.8-3.7 2.8-3 5.8-5.5 8.6-8.4l.7-.7z" class="cls-15"/><path id="path47" fill="#717a1a" d="M432.2 359.8c-1.3-1.7.9-5.4 1.5-7.2a167.6 167.6 0 0 1 3.8-9c.9-.7 4.2 0 5.3.1 1.4.1 3.3-.3 3.2 1.6l-.6 14c0 .6 0 1.2-.2 1.8l-.8 1.5c-1 1.5-3.6 7.2-5.7 4.8l-6.5-7.6z" class="cls-15"/><path id="path49" fill="#717a1a" d="M400 355.7v-.5c-.4-1-2.4-2-3.2-2.7l-2.9-2.2c-1-.8-2.1-2.3-3.3-2.8-1.1-.5-1.7.4-2.5 1.2l-6.8 6.7-5.7 5.3-.3.4v.6c.2 1.3.6 5 2 5.4h1c3.4-1.2 6.2-1.8 7.6-2.5 2.3-1.2 6.1-3.7 8.5-4.8 1.3-.7 4.5-2.9 5.4-3.4.2-.1.2-.4.3-.6z" class="cls-15"/><path id="path51" fill="#717a1a" d="M443 341.6c1.4 0 2 0 2.7-1 1-1.3 1.7-2.8 2.4-4.2 1.1-1.9 2.1-3.9 3-5.9.9-1.6 2-3.5.5-5.1-3.8-3.7-9-6.3-13.6-9h-.5l-.2.2a45.3 45.3 0 0 0-3.5 8c-.7 1.9-2.4 4-2.1 6.2 0 .4.3.9.5 1.3l4.2 7.9c.9 1.6 1.2 1.4 3 1.5h3.7z" class="cls-15"/><path id="path53" fill="#717a1a" d="M449 320.5c.8.7 2.8 2.4 4 2 1-.4 1.8-4 2.2-5a9.2 9.2 0 0 0 1-4.2c-1.3-1.8-3.7-6.2-5-8l-.8-.6-4-2c-.8-.5-1.7-1-2.6-1-1.3.1-2 2.5-2.5 4l-2.5 7c-.5 1.5 1.4 1.9 4.3 3.9 2 1 4 2.6 5.9 4z" class="cls-15"/><path id="path55" fill="#717a1a" d="M415.4 377c-.4-.2-.7-.5-1.2-.6-.4 0-.7.2-1 .3l-8.7 3.8c-.7.3-1.4.6-1.9 1.2-.4.6-.6 1.3-.7 2l-1.7 9.6v1c.2.5.6.8 1 1 3.2 1.9 6.6 3.4 10 4.6 2.6 1 7.7 4.4 9.8 2 1.9-2 3.1-5 4.5-7.4 1.3-2.2 3-4 4.3-6.3l.4-1c0-.3 0-.8-.2-1.2-.6-2.2-.5-4.2-3-4.5-2.2-.3-4.5.1-6.7-.7-1.8-.8-3.3-2.6-4.9-3.8z" class="cls-15"/><path id="path57" fill="#717a1a" d="M358.7 357.9v.1c.5.8 3.1 1.3 4 1.5 1.8.6 3.6 1 5.5 1.2 1 .2 2.2.3 3.2-.1a317 317 0 0 0 11.6-9.9c1-1 2.8-1.9 1.3-3-.7-.5-2-.2-2.9-.3l-5-.1c-3-.1-6.1-.6-9.2-.4-2.7 0-4.5 2.3-5.7 4.5-.7 1.3-3.4 4.9-2.8 6.5z" class="cls-15"/><path id="path59" fill="#717a1a" d="M373.6 304.3c.4.8.8 1.8 1.6 2.4 1.1 1.1 2.8 1.3 4.3 1.5l11.5 1.3h1c.4-.2.7-.6 1-1a135 135 0 0 0 7.8-11.4c.2-.3.4-.5.4-.9 0-.3-.2-.6-.4-.9l-8.4-13a3 3 0 0 0-.8-1c-.5-.2-1-.3-1.6-.3l-9.5-.5c-.6 0-1.1 0-1.6.2s-.8.7-1.1 1a81 81 0 0 0-7.2 11c-1.2 2-.7 2.8.2 5l2.8 6.5z" class="cls-15"/><path id="path61" fill="#717a1a" d="m412.9 296.3-.3-1.4c.1-.4.3-.8.6-1.1l7.8-11.6.5-.6c.3-.2.8-.1 1.2 0 1.9.2 8.6 0 9.6 1.7.4.7-.7 3-.8 3.7l-1.2 4.8-2.3 8.7c-.4 1.4-.7 2.2-2 2.9l-7.4 3.7c-1.9 1-3.3-4.1-3.7-5.2-.5-1.6-2-4-2-5.7z" class="cls-15"/><path id="path63" fill="#717a1a" d="M436 310.2c1.2.7 4.3-8 4.3-9.7 0-.5-.2-1-.3-1.4-1.7-5-2.2-7.7-3.9-12.6-.2-.6-.7-1.3-1.2-1-.3.1-.4.4-.5.7l-2.8 9.6c-.7 2.5-1.4 5-1.9 7.5-.2 1 0 1.4.2 2.4.6 2.2 4.2 3.5 6 4.5z" class="cls-15"/><path id="path65" fill="#717a1a" d="M398.3 271.7c.4-.7.8-1.5 1.5-2.1a9 9 0 0 1 2.4-1.6l7-3.4c.4-.3.9-.5 1.4-.5.7 0 1.5.3 1.9.9 2.7 4.2 5 9.5 7.4 13.5.2.3.2.7.2 1l-.5 1c-3 4-5.8 8.1-8.7 12.1-.2.4-.5.7-.9 1l-1.4.4-4 .5a3 3 0 0 1-1.5 0c-.5-.3-.9-.7-1.2-1.2a116.2 116.2 0 0 1-6.6-10.7c-1.2-2.2-1.6-2.6-.4-4.8l3.4-6z" class="cls-15"/><path id="path67" fill="#717a1a" d="m371.5 308.2-.3-1.5c-.7-2.7-1.7-9-4.7-10-2.7-1-5.5 1.7-7.8 2.7l-8.2 3.9c-.5.2-1 .4-1.3.8-.3.4-.4 1-.5 1.4-1 6.1-1.8 12.8-3 18.9 0 .7-.1 1.5.3 2 .3.4.8.5 1.2.6 2.9 1 5.5 1.3 8.5 1.9 3 .6 3.7-1.8 5.2-4.2l6.2-9.3c1.2-2 2.7-3.8 3.9-5.7.2-.4.4-.7.4-1v-.5z" class="cls-15"/><path id="path69" fill="#717a1a" d="M360.2 347.2a8 8 0 0 0-.5-3.5l-3-9.2a3.4 3.4 0 0 0-2.3-2.8 33 33 0 0 0-7.2-2.3c-.5 0-1-.2-1.5 0l-.9.7c-4.2 4.2-7.6 8.9-11.6 13.3-.2.3-.5.6-.6 1l.3 1.2c1.5 3.4 2.5 6.3 4.3 9.5 1 1.9 2.7 5.6 4.4 6.1 1.9-.4 4-1.5 5.7-2.3l6.6-3a61 61 0 0 0 6.3-8.7z" class="cls-15"/><path id="path71" fill="#717a1a" d="M375.1 370a348.3 348.3 0 0 0-9.8 14.6c-.3.4-.6 1-.6 1.5 0 .6.2 1 .5 1.6 1.4 2.7 3 5.3 4.8 7.8 1 1.3 1.7 2.8 2.9 3.9 3 2.7 5.2-3.7 6.2-5.7 2-4 3.5-8.2 5.1-12.4.2-.7.5-1.3.6-2v-2c-.3-2.2.2-7.4-2.1-8.6-2.1-1-5.7 0-7.5 1.2z" class="cls-15"/><path id="path73" fill="#717a1a" d="m394.9 380.5-5.7 1.3c-.6.1-1.2.2-1.6.6l-.7 1-7.4 15.1a3 3 0 0 0-.4 1.4c0 2 1.6 2.9 3 4 1.8 1.5 3.7 2.7 5.5 4 2 1.4 4.1 3.7 5.2.7 1.2-3.5 2-5.2 3.1-8.8 1-2.8 2-5.8 2.4-8.7l1.2-5.7c.2-1.3.9-2.8.3-4-1-2-3.4-1-5-.9z" class="cls-15"/><path id="path75" fill="#717a1a" d="m371.6 370.4.5-1.1-.1-1.4-.6-2.6-.4-.8c-.2-.4-.6-.5-1-.6l-10.9-3.3a13 13 0 0 0-3.2-.7c-.7 0-1.5 0-2.3.2a47.3 47.3 0 0 0-11.5 3.6c-.6.5-1 1.1-1.4 1.7l-9 14.1c-.3.4-.5.8-.4 1.2 0 .3.3.6.5.9l2.3 2.3c.4.4 1 1 1.5 1.2l1.8.3c6.4.5 13 .9 19.4 1 5 0 6.5-2.4 8.9-6.5 1.9-3.2 3.8-6.4 5.9-9.5z" class="cls-15"/><path id="path77" fill="#717a1a" d="M364.6 290.6c.8.4 1.7.8 2.6.6 1.6-.5 2.6-3.2 3.5-4.4l4-6c.5-.6 1-1.3 1-2s-.1-1.2-.3-1.8a52.7 52.7 0 0 0-7.8-14.3h-.9c-3.5.2-7 .6-10.6 1.2-1.9.3-6.7.2-7 2.9-.3 2.8-.4 5.7-.5 8.6 0 1.1-.8 4-.3 5 .4.8 2 1.7 2.6 2.2 4.2 3.3 9 5.5 13.7 8z" class="cls-15"/><path id="path79" fill="#717a1a" d="M349 284.9c-.8-.5-1.7-.8-2.5-1.2-.5-.2-1-.4-1.4-.4-.5 0-.8.2-1.2.4-4.5 2.2-8.6 4.7-13 7-.5.3-1 .6-1.4 1.2-.2.3-.3.8-.3 1.2.4 2.8 0 7.2.8 8 .6.6 1.9.1 2.8.3l4.3.8 6 1.2c.8.2 1.6.4 2.5.2.8-.1 1.5-.6 2.2-1 2.9-1.7 5.7-3.4 8.8-4.9 1-.5 5.8-2.4 5.5-4-.1-.3-.5-.7-.8-1l-2.2-1.4L349 285z" class="cls-15"/><path id="path81" fill="#717a1a" d="M341.5 328.9a4.3 4.3 0 0 0 .9-2.3l1.2-8 .9-6c.1-1.2 1-3.5.7-4.6-.5-2.2-5-2.7-7-3-2.6-.6-5.3-.9-8-1.4h-.9c-.3.1-.6.4-.8.7l-10.3 13.1c-1.3 1.6-.1 4.2.2 6l2 9.4c.6 1.5 3.5 3.8 7.9 7.8 2.5 2.3 4.8-1.7 6.5-3.6 2.2-2.5 4.4-5 6.4-7.8l.3-.3z" class="cls-15"/><path id="path83" fill="#717a1a" d="M337.1 365c.3-.4.4-.9.5-1.3 0-.5-.2-1-.5-1.3l-3.7-7.1c-1.4-2.5-2.7-6-6.3-5.5l-8.2 1.6c-2.2.5-6.1.6-7 3l-5.1 13.8c-.2.4-.3.8-.2 1.2 0 .4.4.8.7 1a86.2 86.2 0 0 0 9.6 9c.6.4 1.3 1 2 1 2 0 3.8-.3 5.7-.6l2.6-.6c1-.1 2-.4 2.5-1.3l2.1-3.7c1.6-2.7 3.3-5.4 4.7-8.2l.6-1z" class="cls-15"/><path id="path85" fill="#717a1a" d="M346 267.3a4 4 0 0 0-.2-2 4 4 0 0 0-1.4-1.4l-9.8-6.6c-1.3-.9-2.7-1.8-4.3-2.2h-1a489 489 0 0 0-8.7 10 340 340 0 0 0-3.8 4.7c-.6.8-3 2.7-3 3.8 0 1.2 2 2.9 2.6 3.7a213 213 0 0 0 11 12.6c.4.2.9-.1 1.3-.3l14.2-8.4c.9-.5 2-.8 2.4-1.7.4-1 .2-2.9.3-4l.5-8.2z" class="cls-15"/><path id="path87" fill="#717a1a" d="M390.5 260.9a2 2 0 0 1-.3-.7v-1c.6-2.2 4.2-12 5.6-12.9 1.2-.3 7.1 2.7 9.9 4 2 1 4.3 1.5 6 2.8 2.8 2 .4 4.7-.8 7.3l-.7 1.2c-.4.4-1 .7-1.4.9-2.2 1-3 1.7-5.3 3-1.6.8-3.7 2.4-5.6 1.7-1.8-.7-6-4.4-7.1-6l-.3-.3z" class="cls-15"/><path id="path89" fill="#717a1a" d="M395.8 269.3c-.6-.8-1.7-1.4-2.3-1.9l-9-7c-3.3-2.5-6.4-5.1-9.7-7.5-3.3-2.4-3.9 2-5 4.8-.2.6-.4 1.3-.3 2 0 .5.3 1 .5 1.4 2.6 5 5.4 10 8.3 15 .3.6.7 1.3 1.3 1.7.7.5 1.6.5 2.5.6 2.5 0 8 1.2 10-.4 1.3-1 2.1-3.4 2.8-4.8.4-.7 1.4-2.2 1.3-3 0-.3-.2-.6-.4-.9z" class="cls-15"/><path id="path91" fill="#717a1a" d="M371.4 402c.2.5.5.9.5 1.4.1.5 0 1-.1 1.5l-1.6 5.4c0 .3-.2.6-.4.8-.2.3-.7.4-1.1.4-4.3.6-10.3 1.5-14.5 1.9a7 7 0 0 1-2 0c-.8-.1-1.5-.5-2.1-.8-5.1-2.8-8.6-5.6-13.7-8.4-.4-.2-.9-.4-1-.9a2 2 0 0 1 0-1l1.2-14.3c0-.2 0-.4.2-.6l.7-.1 23 1c2 .2 3 .4 4.8 3.6l6 10.2z" class="cls-15"/><path id="path93" fill="#717a1a" d="M332.6 386.2c.4.4.7.9.8 1.4.2.7.1 1.3 0 2-.6 4-.8 8-1.4 12-.1.7-.2 1.4-.5 2-.3.8-1 1.6-1.6 2.3-2 2.2-4.1 5.4-6 7.7a160 160 0 0 1-6.4 8c-2.3 2.5-3.4-.3-5.3-1.7-1.8-1.4-4.2-6.2-6-7.5a2.9 2.9 0 0 1-.8-3.6l11.8-23.7c.8-1.5 1.6-1.2 3.1-1.6a68 68 0 0 1 8.3-1.1c1.6.3 3 2.5 4 3.8z" class="cls-15"/><path id="path95" fill="#717a1a" d="M318.5 335.2c-1.9-1.2-2.2-1.6-4.4-2-2.5-.4-6.3-1.8-8.8-2.1H304c-.6.3-1 .8-1.2 1.4a67.4 67.4 0 0 0-5.7 12.4v.6a59.8 59.8 0 0 0 12.2 4.6c3 .8 4.9-.4 8-.5 3 0 5.6-.9 9.1-1.3.6 0 2.4-.7 3-1 .2-1.3.3-2-.3-3a6 6 0 0 0-1.6-1.7c-2.8-2.2-5.7-5.3-8.9-7.4z" class="cls-15"/><path id="path97" fill="#717a1a" d="M417 268c-1.5-2.7-3.7-6.2-3.5-7.5 0-1.5 2.9-5.4 4.4-7.6l8.8-14.1c.5-.7 1.4-1 2-.6 7.1 4.8 14.4 9.3 20.4 15.1.4.5.5 1.2.2 1.7-4.3 8.2-10.4 15.4-15.6 23a4 4 0 0 1-1.4 1.5c-.6.2-1.4.1-2 0-2.5-.4-6.6-.2-8.5-2.2-1.3-2.3-3.2-6.4-4.8-9.3z" class="cls-15"/><path id="path99" fill="#717a1a" d="M449.6 260c.5-.5 1.2-1.2 2-1 .3 0 .6.3.9.6l8 7.9c.5.5 1.1 1 1.2 1.8 0 .6-.2 1.2-.4 1.7-4.2 10-11.2 19.2-17.4 28-.1.2-.3.5-.6.4-.2 0-.3-.2-.4-.4-2.8-5-3.8-11-6.1-16.2-1.2-2.6-1.4-3.5.6-6.3a478.2 478.2 0 0 1 12.2-16.4z" class="cls-15"/><path id="path101" fill="#717a1a" d="M448 346.4c0-.3 0-.8.3-1 .5-.7 1.4-.3 2.2-.1 3.5.8 5.9 1.9 9.1 2.6.7.1 1.4.3 1.6 1 .1.3 0 .7-.1 1l-3.4 9.3a9.2 9.2 0 0 1-2.5 4c-2.2.2-6.8-1.9-7.1-2.8-.5-1.7-.4-5.4-.3-7.1l.2-6.9z" class="cls-15"/><path id="path103" fill="#717a1a" d="M432.8 382.1c0-.4.3-.8.6-1.1l12.5-15.5c.2-.3.5-.6.9-.8.4-.3 1-.3 1.5-.3 2.5 0 5 1.2 7 2.7 2 1.5 4 3.4 5.7 5.3 1.6 2 3.3 3.2 4.9 5 .3.4.5.7.6 1.2 0 .4-.2.8-.3 1.1l-10 20c-.3.6-.7 1.2-1.3 1.4-.5.1-1.1-.2-1.6-.5-4.7-3-9.5-6.3-14-9.8-2.6-2-7.5-4.4-6.6-8.7z" class="cls-15"/><path id="path105" fill="#717a1a" d="M325 304c.9-2.2.6-4.8.3-7.3-.1-1.5-.3-3-1-4.3-.4-1.1-1.2-2-1.9-3l-8.7-11a2 2 0 0 0-.9-.7c-1-.3-1.8.8-2.2 1.8a83.1 83.1 0 0 1-9.4 16.2 37.5 37.5 0 0 0-4.2 6c-.3.7-.6 1.4-.4 2 .2.6.8 1.7 1.4 2 4 2.1 8 9.7 9.3 10.7 1.5 1.2 6 1.3 7.7.2 2-1.2 2.5-3 3.8-4.7 2-2.5 4.9-4.9 6.1-7.9z" class="cls-15"/><path id="path107" fill="#717a1a" d="m314.6 320.4-.4-.8c-.2-.2-.5-.2-.8-.3a28.4 28.4 0 0 0-5-.3c-.3 0-.8 0-1 .4-.3.2-.3.4-.4.7l-1.7 6c-.2.8-.4 1.6.1 2.2.3.4.8.5 1.2.6 2 .6 8.5 3.4 10 1.5 1.5-2-1.4-8-2-10z" class="cls-15"/></g><g id="g143"><path id="path111" fill="#96a53d" d="M304.5 306.9c.6-.8 1.2-1.6 2-1.8.6-.2 1.4 0 2.1 0 3.9.5 7.4 1.3 12.4 2.5 1 .2 1.8.9 2.5 1.6.6.6 4 6.9 5.3 9.3.3.6.6 1.2.7 1.8 0 .7-.4 1.4-.7 2l-8 15.4c-.3.5-.6 1.1-1 1.5-1 .9-2.5.9-3.7.9a570 570 0 0 1-19.9-.9c-.6 0-1.3 0-1.7-.5a60 60 0 0 1-3.5-11 216.4 216.4 0 0 1 13.5-20.8z" class="cls-16"/><path id="path113" fill="#96a53d" d="M330.5 323.7c.4-.8 1-1.7 1.7-2.2.5-.4 1.2-.5 1.8-.7a46 46 0 0 1 7.4-.9c.7.3 1.3.8 1.8 1.4l3.6 3.8.4.6v.6c-.3 2.5-.8 4.8-1.3 7.6l-1.4 7c-.6 2.7-.9 5-2 7.5-.6 1-5 1.4-6.8 1.5-1.6 0-2.8-1.3-4-2.2-3-2.2-4.9-3.9-7.7-6.2-.6-.6-1.7-1.1-1.7-2 0-.8 1.2-2.3 1.6-3l3.2-6.2 3.4-6.6z" class="cls-16"/><path id="path115" fill="#96a53d" d="m327 310.5-.4-.6a6 6 0 0 1-.9-2.1 6 6 0 0 1 1.3-3.4l6.2-9.2c.4-.6.7-1.1 1.3-1.5.4-.3 1-.4 1.5-.5l4.2-.9c.5 0 1.1-.2 1.6 0 .5.3.7.9.9 1.4l4 10.4.2 1.3c0 .3-.3.6-.4.9-1.8 3.5-3.4 7-5.3 10-.2.3-.3.7-.6.9l-1 .4c-2 .5-4 .7-5.6 1-1 .2-2 .6-2.7-.6-1.6-2.4-3-5-4.3-7.5z" class="cls-16"/><path id="path117" fill="#96a53d" d="m348 307.1.7-1a5 5 0 0 1 1-1 22.2 22.2 0 0 1 7.2-3.1c.5 0 1 .2 1.5.5 1 .5 2 1.3 3 2l4.2 3.2c.5.4 1 .9 1.2 1.5.2.5 0 1.1-.2 1.6a104.6 104.6 0 0 1-5.7 12.2 239.3 239.3 0 0 1-12.6 1.1c-.3 0-.6-.4-.9-.7a148 148 0 0 1-3.1-3.5c-1.4-1.6-1.4-1.8-.5-3.7l4.3-9z" class="cls-16"/><path id="path119" fill="#96a53d" d="m362 328 .5 1.2 2.4 4.6c.6 1.3 1.7 3 1.2 4.4a59.7 59.7 0 0 1-3.7 11c-.3.8-.7 2.3-1.5 2.5-1.8.4-4.8-.2-7.2-.4-2.4-.2-4-.3-7-1-1.8-.7-1-3.6-.8-5 .4-2.8 1-5.6 1.5-8.3l1-5.6c.5-1.7.4-3 1-4.5.3-1 1.5-.9 2.3-1 2.2 0 4.5-.3 6.7-.4.8 0 1.8-.1 2.4.5l1.1 2z" class="cls-16"/><path id="path121" fill="#96a53d" d="m340.5 354.4.9-1.4c.6-1 .7-1.6-.6-2h-3.2l-2 .4c-.7.2-1.2.5-1.8.8l-15.3 9c-.3 0-.7.3-.8.6l-.1.8.3 10.3c0 .4 0 .9.4 1.2.8.8 2.8.2 3.9.1l4.8-.9a2 2 0 0 0 1-.3c1.6-1 2.5-3 3.4-4.5l3.6-5.4a586.2 586.2 0 0 0 5.5-8.7z" class="cls-16"/><path id="path123" fill="#96a53d" d="M345 352.8c.2-.2.6-.4 1.1-.3l3.9.3 7.7 1.1c.5.1 1 .2 1.2.5 1.6 1.4-7.4 8.8-8.6 10-2.5 2.2-4.7 4.8-7.8 6.2a68 68 0 0 1-8.8 3.4c-.8.3-2 .7-2.2-.4-.3-1.4 1.9-3.6 2.6-4.6l6.2-9.3 3.1-4.6c.6-.9.9-1.8 1.6-2.3z" class="cls-16"/><path id="path125" fill="#96a53d" d="M363.6 354.9c-1.3-1.7.8-5.4 1.5-7.2a167.6 167.6 0 0 1 3.7-9c1-.7 4.2 0 5.4.1 1.4.1 3.3-.4 3.2 1.6l-.6 14c0 .6 0 1.2-.3 1.8-.1.5-.4 1-.7 1.5-1 1.5-3.7 7.2-5.8 4.7l-6.5-7.5z" class="cls-16"/><path id="path127" fill="#96a53d" d="M331.4 350.8v-.6c-.4-.9-2.4-2-3.2-2.6l-3-2.2c-1-.8-2-2.3-3.3-2.8-1-.5-1.6.4-2.4 1.2l-6.8 6.7-5.7 5.2c-.1.2-.3.3-.3.5v.6c.2 1.2.6 5 2 5.4l.9-.1c3.4-1.1 6.2-1.7 7.7-2.4 2.2-1.3 6.1-3.7 8.4-4.9 1.4-.7 4.6-2.8 5.5-3.3.2-.2.2-.4.2-.7z" class="cls-16"/><path id="path129" fill="#96a53d" d="M374.4 336.6c1.3 0 1.9.1 2.6-1 1-1.2 1.7-2.7 2.5-4l3-6c.8-1.7 2-3.6.4-5.1-3.8-3.7-9-6.3-13.5-9h-.5l-.2.2a45.3 45.3 0 0 0-3.6 8c-.6 1.9-2.4 4-2 6.2 0 .4.2.8.4 1.2l4.3 8c.9 1.5 1.1 1.4 3 1.4l3.6.1z" class="cls-16"/><path id="path131" fill="#96a53d" d="m290 353 .1.1c.4.8 3 1.3 4 1.5 1.7.6 3.6 1 5.5 1.2a7 7 0 0 0 3.2-.2 317 317 0 0 0 11.6-9.9c1-.8 2.8-1.8 1.3-2.9-.7-.5-2.1-.3-3-.3l-5-.1c-3-.2-6-.6-9.1-.5-2.7.2-4.5 2.4-5.8 4.6-.7 1.3-3.4 4.8-2.7 6.5z" class="cls-16"/><path id="path133" fill="#96a53d" d="M305 299.3c.4 1 .8 1.9 1.5 2.5 1.2 1 2.8 1.3 4.4 1.5l11.4 1.2h1a135 135 0 0 0 8.8-12.3c.3-.3.4-.6.4-.9l-.3-1-8.4-12.9a3 3 0 0 0-.8-1c-.5-.2-1-.3-1.6-.3l-9.6-.5c-.5 0-1 0-1.5.2s-.8.6-1.1 1a81 81 0 0 0-7.2 11c-1.2 2-.8 2.8.2 5l2.8 6.5z" class="cls-16"/><path id="path135" fill="#96a53d" d="M302.8 303.3c0-.5 0-1-.2-1.5-.8-2.7-1.8-9-4.8-10-2.7-1-5.5 1.6-7.8 2.7l-8.2 3.8c-.5.3-1 .5-1.2 1-.3.3-.4.8-.5 1.3-1.1 6.1-1.9 12.7-3 18.9 0 .6-.2 1.4.2 2 .3.3.8.5 1.3.6 2.8 1 5.4 1.2 8.4 1.8 3.2.7 3.7-1.7 5.3-4.1l6.1-9.4c1.3-1.9 2.8-3.7 4-5.7l.4-1v-.4z" class="cls-16"/><path id="path137" fill="#96a53d" d="M291.6 342.3a8 8 0 0 0-.6-3.5l-2.9-9.3c-.2-.6-.4-1.3-.9-1.8l-1.4-1a33 33 0 0 0-7.3-2.2c-.5 0-1-.2-1.4 0-.4.1-.7.4-1 .7-4.1 4.2-7.5 8.9-11.5 13.3-.3.3-.6.6-.6 1s0 .8.2 1.2c1.6 3.3 2.6 6.2 4.3 9.5 1 1.9 2.8 5.6 4.5 6 1.8-.3 3.9-1.4 5.7-2.3l6.6-3c1.3-1.3 5.2-6.5 6.3-8.6z" class="cls-16"/><path id="path139" fill="#96a53d" d="m303 365.5.5-1.2c0-.4 0-.9-.2-1.4l-.6-2.6-.3-.8c-.2-.3-.7-.4-1-.5l-11-3.4a13 13 0 0 0-3.1-.7l-2.3.2a47.3 47.3 0 0 0-11.5 3.7c-.6.4-1 1-1.4 1.7l-9 14c-.3.4-.6.9-.5 1.3 0 .3.3.6.6.8l2.2 2.3c.5.5 1 1 1.6 1.3a273.4 273.4 0 0 0 21.1 1.2c5 0 6.5-2.3 9-6.4a245 245 0 0 1 5.8-9.6z" class="cls-16"/><path id="path141" fill="#96a53d" d="M379.4 341.5c0-.4 0-.8.3-1 .5-.7 1.4-.3 2.2-.1 3.5.8 5.9 1.8 9.1 2.6.6.1 1.4.3 1.6.9a171 171 0 0 1-3.6 10.3c-.5 1.7-1.4 3.4-2.5 4-2.1.3-6.7-1.8-7-2.7-.5-1.7-.4-5.4-.4-7.1l.3-6.9z" class="cls-16"/></g></g><path id="path147" fill="#c4ce65" d="m187 217.3 10.4-6c44-4 78.5-16.8 88.6-21h1.1c85.3-2.3 184.1 38.2 234.6 62l-.7.4 19.5 8.4c7-2.9 14.7-5 22.5-5.9 0 0-154-86.2-280.5-80.7 0 0-38.8 17-90 21.2l-49.8 28.7s-37.5 19.8-28.6 33.2l72.9-40.3z" class="cls-12"/><path id="path149" fill="#c4ce65" d="m187 217.3 10.4-6c44-4 78.5-16.8 88.6-21h1.1c85.3-2.3 184.1 38.2 234.6 62l-.7.4 19.5 8.4c7-2.9 14.7-5 22.5-5.9 0 0-154-86.2-280.5-80.7 0 0-38.8 17-90 21.2l-49.8 28.7s-37.5 19.8-28.6 33.2l72.9-40.3z" class="cls-12"/><path id="polygon151" fill="#443619" stroke="#443619" stroke-miterlimit="10" stroke-width="8.9" d="m298.8 261.4-1.5.3-39.1 20.5-15-3z"/><path id="path153" fill="#96a53d" d="M471.9 306a240 240 0 0 0-69.2-25.6l-28.4-5.4 23.2 17.3c.1 0 18.6 14 38.8 35.5a147.1 147.1 0 0 0 40.5-19.2l-5-2.7z" class="cls-16"/><path id="path155" fill="#96a53d" stroke="#443619" stroke-miterlimit="10" stroke-width="9.4" d="M401.4 286.9s19 14.2 40 36.6c9.4-2.8 18.7-6.5 27.3-11.7a234.5 234.5 0 0 0-67.3-24.9z"/><path id="path157" fill="none" stroke="#443619" stroke-miterlimit="10" stroke-width="8" d="M320.5 175.7s31.8 6.4 33.5 36.7"/><path id="path159" fill="#443619" d="m373.7 199.7 8.7 2a39 39 0 0 0-8.5-18.4l-15.9-3a34.3 34.3 0 0 1 15.7 19.4z" class="cls-8"/><path id="path161" fill="#443619" d="m404.8 207.5 8.4 2.5a39.8 39.8 0 0 0-6.4-18.6l-14.2-3.7a32.5 32.5 0 0 1 12.2 19.8z" class="cls-8"/><path id="path163" fill="#717a1a" d="m308 252.7-.4-.6a6 6 0 0 1-.9-2.2c-.1-1.2.6-2.3 1.3-3.4l6.2-9.2c.3-.5.7-1 1.3-1.4.4-.3 1-.4 1.4-.5l4.3-.9c.5-.1 1-.2 1.6 0 .4.3.6.9.8 1.4l4 10.4c.1.4.3.8.2 1.2 0 .4-.2.7-.4 1-1.7 3.5-3.4 7-5.2 10l-.6.8c-.3.3-.7.3-1.1.4-1.9.6-4 .8-5.5 1-1 .3-2 .7-2.8-.5l-4.3-7.5z" class="cls-15"/><path id="path165" fill="#c4ce65" d="M180.5 216c-1 .3-1.9 1.2-2.5 1.7l-9.1 6.9c-3.3 2.4-6.6 4.8-9.7 7.3-3.3 2.6 1 4.3 3.2 6 .6.4 1.2.9 1.9 1 .5 0 1 0 1.5-.2a397.5 397.5 0 0 0 16.7-4c.6-.2 1.3-.4 1.9-.9.6-.5 1-1.4 1.2-2.3.8-2.4 3.3-7.3 2.2-9.7-.6-1.5-2.6-3-3.8-4-.6-.5-1.8-1.9-2.6-2-.3 0-.6 0-1 .2z" class="cls-12"/><path id="path167" fill="#c4ce65" d="M151.7 228c-.9.5-1.8 1.3-2.4 1.8l-9.2 6.9-9.7 7.3c-3.2 2.6 1 4.3 3.3 6 .5.4 1.1.9 1.8 1 .5 0 1 0 1.5-.2a397.5 397.5 0 0 0 16.7-4c.7-.2 1.4-.4 1.9-.9.7-.5 1-1.4 1.3-2.3.7-2.3 3.2-7.3 2.2-9.7-.7-1.5-2.7-3-3.9-4-.6-.5-1.8-1.9-2.6-2-.3 0-.6 0-1 .2z" class="cls-12"/><path id="path169" fill="#443619" d="M150 232.2c-.5.3-1 .8-1.5 1l-5.8 4.5-6.1 4.6c-2 1.7.6 2.7 2 3.8.4.3.8.6 1.2.6h1a236.2 236.2 0 0 0 11.7-3.2c.5-.3.7-.9.8-1.4.5-1.5 2-4.7 1.4-6.2-.3-1-1.6-1.9-2.4-2.5-.4-.3-1.1-1.2-1.6-1.3l-.6.1z" class="cls-8"/><path id="path171" fill="#c4ce65" d="m191.3 229.3.5-.9 1-.9a19.7 19.7 0 0 1 6.4-2.8c.4 0 .9.3 1.3.5a12 12 0 0 1 2.6 1.8l3.9 2.9c.4.3 1 .7 1 1.3.2.5 0 1-.2 1.4a91.3 91.3 0 0 1-4.5 10.2l-.5.7c-.3.2-.6.2-1 .3a232.8 232.8 0 0 1-10.2.7c-.4-.1-.6-.4-.9-.6l-2.8-3.2c-1.2-1.4-1.2-1.6-.4-3.3l3.8-8z" class="cls-12"/><path id="path173" fill="#443619" d="m306.8 213.3-.2 8.6-14.3 6.3c-26.2 11.8-62.2 27.9-88 28.2a296 296 0 0 0-73 12.6l-.5.2c-1.6.7-36.4 15.9-57.9 37.3-6.2 3.2-12 5.1-15.6 4.3-11.4-2.7-16.8-15.9-13.5-33.9h-1.6c-4.6 6.1-14.2 21.1-8 32 0 0-10.7-3.7-11.5-20.5l-1.3.5a43.7 43.7 0 0 0 4.3 33.1c4.7 7.3 11.5 12.7 20.4 13 20.1.7 34.1-16.2 48.3-27.7a189.1 189.1 0 0 1 114.4-40.7c25.8-.3 57.6-15.6 83.1-28 8-3.8 15.5-7.4 21.6-10l2.8-1.1-1.1-15.7-8.4 1.4z" class="cls-8"/><path id="path175" fill="#443619" d="M119.8 274.4a195.2 195.2 0 0 0-46.9 32c-6.2 3.3-12 5.2-15.6 4.4-11.4-2.7-16.8-15.9-13.5-33.9h-1.6c-4.6 6.1-14.2 21.1-8 32 0 0-10.7-3.7-11.5-20.6l-1.3.6a43.7 43.7 0 0 0 4.3 33.1c4.7 7.3 11.5 12.7 20.4 13 20.1.7 34-16.2 48.3-27.7a181 181 0 0 1 41.3-24.8l-15.8-8.1z" class="cls-8"/><path id="path177" fill="#96a53d" d="m525.7 263.9-4.3-1.8c-30.3-13-90.8-34-155.6-31l-2 .2-.6 12.8 2 .3c.8.1 78.8 11 127.5 46.3l5.5-6.1s11-11.1 27.5-20.7z" class="cls-16"/><path id="path179" fill="#443619" d="M520.5 264.1c-30.1-12.8-90.2-34-154.6-30.7l-.4 8.8c.8.1 79.8 11 129.1 47.1l3.3 2.4 3-3.4.6-.7c1-1 8.6-8.3 19.8-15.7l6.9-4.5-7.7-3.3z" class="cls-8"/><path id="path181" fill="none" stroke="#443619" stroke-linecap="round" stroke-linejoin="round" stroke-width="8.9" d="M242.2 279.6s58.8 5.6 88.2 56.8c0 0 115.7 15.4 168-47.4 0 0 29.8-30.1 64.6-33.8 0 0-154-86.3-280.5-80.7 0 0-38.8 17-90 21.2l-49.8 28.7S96 249 119 262a973 973 0 0 0 43.3 22.6c11.5 5.7 47.7 2.9 47.7 2.9l32-8z" class="cls-2"/><g id="g193"><g id="g187"><path id="path183" fill="#96a53d" d="M191.2 219.1a43 43 0 0 0 11.7-6c3.2-2.3 6-5 8.2-8.3 3.2-4.7 11.8-23.6 16.2-25.8 6-3 38.7-1.6 45.1 1.7 7 3.6 26 8.6 29.7 15.4" class="cls-16"/><path id="path185" fill="#443619" d="m197.1 221.6-8.2-5.4a49.9 49.9 0 0 0 18.5-13.8c.9-1.3 2.4-4.2 4-7.2 5.8-10.9 9.9-18.1 14-20.2 7.7-3.8 41.7-2 49 1.8 1.9.9 4.9 2 8 3.2 9.5 3.6 25.5 11 29 17.2l-13.2 1c-1.8-3.4-12.5-7.4-18.9-9.9a89.5 89.5 0 0 1-8.9-3.6c-5.3-2.7-36.4-4-41-1.7a87.7 87.7 0 0 0-10.2 16.4c-1.8 3.5-3.3 6.2-4.4 7.9a37 37 0 0 1-9.3 9.4c-4 3-4 3.4-8.4 4.8z" class="cls-8"/></g><path id="path189" fill="#443619" d="M223.2 213.6s8.4-18.4 23-19.2c14.6-.8 31.6 10.2 31.6 10.2l11.4 4.6-58.4 12.7s-5.7 3.5-7.6-8.3z" class="cls-8"/><path id="polyline191" fill="#443619" d="m267.4 207.6 7.6 15.1-21.7-5.3" class="cls-8"/></g><path id="path195" fill="#e2a554" d="M260.5 205.3a38.3 38.3 0 0 0-13.1-2c-2 0-3.8.5-5.4 1.2 5.6 1.6 9.5 5.1 9.6 9.3v.1c5.2-.8 9.1-4 9-7.8l-.1-.8z"/><path id="path197" fill="none" stroke="#443619" stroke-linecap="round" stroke-linejoin="round" stroke-width="8.9" d="M563 253s-143-88.8-269.5-83.3l-11 4.8" class="cls-2"/></g></g></svg>