<svg xmlns="http://www.w3.org/2000/svg" id="Layer_1" width="318.34" height="318.34" data-name="Layer 1" viewBox="0 0 318.34 318.34"><defs id="defs3891"><clipPath id="clippath"><path id="path3885" d="M187.29 179.63s2.96 32.37 27.96 46.61l6.75-.49s-58.25 48.35-69.07 101.89c0 0-15.87-22.94-51.95-22.22 0 0 5.19-63.98 86.3-125.8z" class="cls-2"/></clipPath><clipPath id="clippath-1"><path id="path3888" d="M261.98 487.43s26.62 17.15 21.57 49.63l4.3 1.04c5.43-2.66 10.63-5.81 15.47-9.46 28.99-21.82 51.94-47.27 68.21-75.63 6.19-10.8 11.33-21.85 15.39-33.12l-60.98 4.75s-35.75 48.53-63.97 62.8z" class="cls-2"/></clipPath><style id="style3883">.cls-11,.cls-15,.cls-2,.cls-5{fill:none}.cls-11,.cls-15,.cls-5{stroke-linecap:round;stroke-linejoin:round}.cls-5{stroke:#00a661}.cls-11,.cls-15,.cls-5{stroke-width:9.27px}.cls-11{stroke:#f33226}.cls-15{stroke:#cbcbcb}</style></defs><g id="g3981" transform="translate(-575.48 -199.47)"><g id="g3925"><path id="path3921" d="M734.65 513.56c-85.42 0-154.92-69.5-154.92-154.92s69.49-154.92 154.92-154.92 154.92 69.49 154.92 154.92-69.49 154.92-154.92 154.92"/><path id="path3923" d="M734.65 207.99c83.07 0 150.66 67.58 150.66 150.66s-67.58 150.66-150.66 150.66-150.66-67.58-150.66-150.66 67.58-150.66 150.66-150.66m0-8.52c-87.77 0-159.17 71.41-159.17 159.17s71.41 159.17 159.17 159.17 159.17-71.41 159.17-159.17-71.41-159.17-159.17-159.17" style="fill:#7a5b39"/></g><g id="g3957"><path id="path3927" d="M728.45 386.54c-.78-2.43-2.06-4.82-2.87-6.42-.87-1.72-7.96-9.36-7.91-10.32l.26-5.41c.75-15.64-26.16-7.08-35.06-7.13-8.03-.04-19.94-11.14-22.21-18.73-2.57-8.65-.89-16.34 2.83-23.42" class="cls-15"/><path id="path3929" d="M726.35 412.18c-2.36-4.71-4.16-9.54-.7-14.83 0 0 2.58-3.94 2.7-4.12 1.17-1.79.88-4.27.1-6.7" class="cls-15"/><path id="path3931" d="M734.19 435.72c-1.16-2.69-2.11-4.89-2.35-5.4-1.46-3.05-.76-6.47-1.63-9.62-.79-2.84-2.42-5.66-3.86-8.52" class="cls-15"/><path id="path3933" d="M742.52 448.15c-1.09 0-2.14 0-3.06.05.03 0-1.06-2.61-2.43-5.84-.91-2.13-1.93-4.54-2.84-6.64" class="cls-15"/><path id="path3935" d="M765.83 435.31c-4.83 6.68-7.05 9.58-14.55 12.13-2.4.82-5.78.73-8.76.71" class="cls-15"/><path id="path3937" d="M782.02 407.81c-1.22 1.02-8.19 6.56-8.88 6.45 2.31.36 3.47 3.26 2.82 5.51-.99 3.43-4.49 4.72-6.25 7.57-.88 1.43-1.16 3.15-1.84 4.69-.53 1.18-1.29 2.24-2.04 3.29" class="cls-15"/><path id="path3939" d="M787.97 398.85c-.82 3.79-3.05 6.54-5.95 8.97" class="cls-15"/><path id="path3941" d="M786 382.58c.67 4.89 3.42 9.61 1.98 16.27" class="cls-15"/><path id="path3943" d="M794.09 343.3c4.14 3.62 11.11-.91 15.13-2.72l2.32 1.03-1.16 6.57c-.41 2.32-5.65 6.24-7.18 7.95-4.47 4.97-8.85 10.03-13.25 15.06-3.84 4.38-4.42 7.93-3.94 11.39" class="cls-15"/><path id="path3945" d="M780.09 324.23c2.32 5.96 4.63 11.68 5.01 11.61 2.01-.37 3.95 1.01 5.23 2.61s2.21 3.5 3.76 4.85" class="cls-15"/><path id="path3947" d="M754.17 292.7c5.48 1.12 11.12 2.62 14.6 6.09 3.01 3 4.64 8.6 6.3 12.38.39.9 2.71 7.1 5.03 13.06" class="cls-15"/><path id="path3949" d="M727.3 292.42c4.87 2.11 11.66 3.87 13.55 4.24l2.45-1.42 2.06-4.38c2.6.67 5.68 1.18 8.82 1.82" class="cls-15"/><path id="path3951" d="M711.02 280.2c1.04-.3 2.06-.57 3.05-.79l2.2.65c4.25 1.23 3.84-1.46 5.62 2.55.62 1.41.12 4.22.17 5.81.04 1.31 2.29 2.72 5.25 4" class="cls-15"/><path id="path3953" d="M673.48 300.02c1.74-2.75 3.35-5.57 4.73-8.55 1.62-3.5 4.98-6.95 7.73-9.49.27.27 1.61 2.72 1.73 2.71 0 0 7.01-.38 7.08-.39 5.08-.28 10.93-2.57 16.26-4.1" class="cls-15"/><path id="path3955" d="M663.5 315.12c1.27-2.41 2.78-4.76 4.44-7.05 1.92-2.64 3.79-5.31 5.54-8.05" class="cls-15"/></g><path id="path3959" d="M613.12 340.77c7.97-54.1 51.53-96.61 106.14-102.98" style="fill:none;stroke-linecap:round;stroke-linejoin:round;stroke-width:9.27px;stroke:#ffd801"/><path id="path3961" d="M719.1 479.49c-56.11-6.61-100.53-51.4-106.59-107.68" class="cls-5"/><path id="path3963" d="M854.47 371.89c-5.96 55.04-48.62 99.08-103.01 107.13" style="fill:none;stroke-linecap:round;stroke-linejoin:round;stroke-width:9.27px;stroke:#0084fa"/><path id="path3965" d="M747.92 237.81c56.05 6.62 100.43 51.33 106.54 107.53" class="cls-11"/><path id="polygon3967" d="m754.85 401.42-2.81-9.6-2.79 9.38-9.38 2.79 9.62 1.97 2.91 11.07 2.37-10.47 9.44-2.93z" style="stroke-linecap:round;stroke-linejoin:round;stroke-width:3.48px;fill:#fff;stroke:#fff"/><path id="line3969" d="m646.59 442.75 58.93-58.5" class="cls-5"/><path id="line3971" d="m818.46 275.61-30.96 26.66" class="cls-11"/><path id="path3973" d="M822.12 328.79c8.42-2.04 17.08-3.45 25.92-4.19" class="cls-11"/><path id="path3975" d="M694.34 468.9c2.38-16.71 7.21-32.61 14.12-47.34" class="cls-5"/><path id="path3977" d="M754.18 274.55c3.01-10.46 5.41-21.9 7.06-34.41" class="cls-11"/><path id="path3979" d="M617.27 386.47c9.15-.38 30.41-2.42 53.97-12.71" class="cls-5"/></g></svg>