<svg xmlns="http://www.w3.org/2000/svg" id="Layer_1" width="483.4" height="472.9" version="1.1"><defs id="defs4"><style id="style2">.cls-1{fill:#023d00}.cls-3{fill:#fff}.cls-6{fill:#fcb701}.cls-9{fill:#89efab}</style></defs><g id="g58" transform="translate(-58.3 -63.5)"><path id="path8" fill="#fff" stroke="#023d00" stroke-miterlimit="10" stroke-width="15.3" d="M294.3 528.8a199 199 0 0 1-141.6-58.6 199.5 199.5 0 0 1-58.6-141.5V91h419.7v237.6a199 199 0 0 1-58.6 141.5 199.5 199.5 0 0 1-141.6 58.6h-19.3z"/><path id="path10" fill="#023d00" stroke="#023d00" stroke-miterlimit="10" stroke-width="14.2" d="M117.3 114.1h373.3v215c0 97.5-79.2 176.7-176.8 176.7h-19.7a176.8 176.8 0 0 1-176.8-176.7z"/><path id="rect12" fill="#fcb701" stroke="#023d00" stroke-miterlimit="10" stroke-width="14.2" d="M117.3 114.1h373.3v107.2H117.3z"/><path id="path14" fill="#961a1a" stroke="#023d00" stroke-miterlimit="10" stroke-width="14.2" d="M117.3 328.4v.7c0 97.6 79.1 176.7 176.8 176.7h19.7c97.6 0 176.8-79.1 176.8-176.7v-.7z"/><g id="g50"><g id="g30"><path id="path16" fill="#023d00" d="m439.1 322.8-12.4.4-18.5.5 2 13.4a31 31 0 0 1 .8 11.4c-.6 1.8-3.3 4.8-7.5 9.1l-.4.4-259-253.7c-17.6-16.7-50-44.1-68.8-40.4l-17-.4.4 17c-3.7 18.9 23.7 51.2 40.5 69l254 259.2-5.2 5.3-.7.7c-1 1-2 2-2.8 2.6-1.6 1-4 2-8.8 1-2.6-.5-8.1-1.6-13.1 2.3-5 4-5.1 9.6-5.2 12.3V445c.1 11 5.5 16.5 16.3 17.2a55 55 0 0 0 26.3-5.5 137.5 137.5 0 0 0 37.8-24.9c1 3.3 2.9 6.5 5.7 9.2 10.8 10.5 28.4 28.2 42.6 42.5l12 12 .9.8.4.5c-2 2.2-5 6-4.6 11.4.4 6.3 4.8 9.7 7.2 11.5a35 35 0 0 0 46.2-3.6c2.2-2.3 4.3-4.8 6.3-7.8 8.3-12.4 7-31-3-41.4-1.2-1.3-5-5.2-11-5.3-3.9 0-7.4 1.5-10.5 4.5l-4-3.8-12.6-12.5-46.8-47.2h-.1c4.7-6 9.2-12 13.2-18.4a99.6 99.6 0 0 0 14.1-30 48 48 0 0 0 1.5-17c-1-8.7-7.6-14.6-16.1-14.4z" class="cls-1"/><path id="path18" fill="#fcb701" d="m422 335.3 17.4-.5c2.5 0 3.7 1.4 4 3.7.5 4.4-.2 8.6-1.2 12.8a87.8 87.8 0 0 1-12.5 26.5 212 212 0 0 1-48.8 52.6c-8 6.2-16.6 11.4-25.8 15.5a44 44 0 0 1-20.7 4.4c-4.5-.3-5-.7-5-5.4v-11.8c0-3.5.3-3.8 4-3 6.3 1.2 12.2.8 17.7-2.9 2-1.3 3.7-3.1 5.4-4.8L412 366c11.7-12 12.6-14.5 10-30.7z" class="cls-6"/><path id="path20" fill="#fcb701" d="M483.6 476.6c-3 5.1-7.9 8.4-11.7 12.7-1.1 1.2-2.2 1-3.3-.2l-2-2c-14.1-14-40.5-40.6-54.8-54.6-2.9-2.8-3.4-5.4-2-8.9 1.8-4.8 3.2-9.8 8.3-12.5l46.8 47.2 18.7 18.3z" class="cls-6"/><path id="path22" fill="#fcb701" d="m483 490.1 15-15c1.9-2 3-1.9 4.9.1 6.4 6.7 6.5 19.3 1.6 26.6-4.6 7-10.6 12.3-19.6 13-5.8.6-11-1-15.6-4.5-3.4-2.6-3.4-3-.5-6l14.2-14.2z" class="cls-6"/><path id="path24" fill="#89efab" d="M373 371.6s9.9 7.9 12.5 5.5c0 0 6-5.2 9.4-10.4l-259-253.8S93.1 72.5 77.5 75.6l295.4 296z" class="cls-9"/><path id="path26" fill="#fff" d="M366.4 378.2s7.9 10 5.5 12.5c0 0-5.2 6.1-10.4 9.4L107.7 141S67.3 98.3 70.4 82.7z" class="cls-3"/><path id="path28" fill="#023d00" d="M422.8 411.1s-7.2 22.5 8 47.5l-16.1-10.8-16.9-15.9 6.1-17.3 12.6-8.6" class="cls-1"/></g><g id="g46"><path id="path32" fill="#023d00" d="m160.8 322.8 12.4.4 18.6.5-2 13.4a31 31 0 0 0-.8 11.4c.6 1.8 3.3 4.8 7.5 9.1l.4.4 259-253.7c17.6-16.7 50-44.1 68.8-40.4l17-.4-.4 17c3.7 18.9-23.7 51.2-40.5 69l-254 259.2 5.2 5.3.6.7 2.8 2.6c1.7 1 4 2 8.9 1 2.6-.5 8.1-1.6 13.1 2.3 5 4 5.1 9.6 5.2 12.3V445c-.1 11-5.5 16.5-16.3 17.2a55 55 0 0 1-26.3-5.5 137.5 137.5 0 0 1-28.2-17 242 242 0 0 1-9.6-7.9 21 21 0 0 1-5.7 9.2 4162.2 4162.2 0 0 0-42.6 42.5l-12 12-.9.8-.4.5c2 2.2 5 6 4.6 11.4-.4 6.3-4.9 9.7-7.2 11.5-7 5.4-15.3 7.8-24 7a35.2 35.2 0 0 1-22.2-10.6 50.8 50.8 0 0 1-6.3-7.7c-8.3-12.5-7-31 3-41.5 1.2-1.3 5-5.2 11-5.3 3.9 0 7.4 1.6 10.5 4.5l4-3.8 12.6-12.5 46.8-47.1.1-.2c-4.7-5.9-9.2-12-13.2-18.3a99.6 99.6 0 0 1-14.1-30 48 48 0 0 1-1.5-17c1-8.7 7.6-14.6 16.1-14.4z" class="cls-1"/><path id="path34" fill="#fcb701" d="m178 335.3-17.4-.5c-2.5 0-3.7 1.4-4 3.7-.5 4.4.2 8.6 1.2 12.8a87.8 87.8 0 0 0 12.5 26.5 212 212 0 0 0 48.8 52.6c8 6.2 16.6 11.4 25.8 15.5a44 44 0 0 0 20.7 4.4c4.5-.3 5-.7 5-5.4v-11.8c0-3.5-.3-3.8-4-3-6.3 1.2-12.2.8-17.7-2.9-2-1.3-3.7-3.1-5.4-4.8L188 366c-11.7-12-12.6-14.5-10-30.7z" class="cls-6"/><path id="path36" fill="#fcb701" d="M116.4 476.6c3 5.1 7.9 8.4 11.7 12.7 1.1 1.2 2.2 1 3.3-.2l2-2c14.1-14 40.4-40.6 54.8-54.6 2.9-2.8 3.4-5.4 2-8.9-1.8-4.8-3.2-9.8-8.3-12.5l-46.8 47.2-18.7 18.3z" class="cls-6"/><path id="path38" fill="#fcb701" d="m117 490.1-15-15c-1.9-2-3-1.9-4.9.1-6.4 6.7-6.5 19.3-1.6 26.6 4.6 7 10.6 12.3 19.6 13 5.8.6 11-1 15.6-4.5 3.4-2.6 3.4-3 .5-6L117 490.2z" class="cls-6"/><path id="path40" fill="#fff" d="M227 371.6s-9.9 7.9-12.5 5.5c0 0-6-5.2-9.4-10.4l259-253.8s42.7-40.4 58.3-37.3z" class="cls-3"/><path id="path42" fill="#89efab" d="M233.6 378.2s-7.9 10-5.5 12.5c0 0 5.2 6.1 10.4 9.4l253.8-259s40.4-42.7 37.3-58.3z" class="cls-9"/><path id="path44" fill="#023d00" d="M177.2 411.1s7.2 22.5-8 47.5l16.1-10.8 16.8-15.9-6-17.3-12.6-8.6" class="cls-1"/></g><path id="polygon48" fill="#023d00" d="m304 350.3 36.9-44.6 15.7 13.2-35.5 51z" class="cls-1"/></g><g id="g56"><path id="path52" fill="#fff" d="M338 178.4v-22.5a6.6 6.6 0 0 0-10.9-5c-.5.4-1.5 1-2 1h-10V147a4 4 0 0 1 1-1.9 6.6 6.6 0 0 0 1-7 6.6 6.6 0 0 0-6-4h-22.6a6.6 6.6 0 0 0-5 11 5 5 0 0 1 1 1.9v4.8h-10.1c-.4 0-1.4-.6-2-1a6.6 6.6 0 0 0-7-1 6.6 6.6 0 0 0-3.9 6v22.5a6.6 6.6 0 0 0 5.4 6.5l-1.5.5a6.6 6.6 0 0 0-4 6V214a6.6 6.6 0 0 0 11 5c.3-.3 1.4-1 1.9-1h10.2v5.4c0 .4-.6 1.4-1 2a6.6 6.6 0 0 0-1 7 6.6 6.6 0 0 0 6 3.8H311a6.6 6.6 0 0 0 5-10.9c-.3-.3-1-1.4-1-1.9V218h10.2a4 4 0 0 1 1.9 1 6.6 6.6 0 0 0 7 1 6.6 6.6 0 0 0 4-6v-22.6c0-2.5-1.6-5-4-6a6.8 6.8 0 0 0-1.5-.5c.5 0 1-.2 1.5-.5a6.6 6.6 0 0 0 4-6zm-65.6 5c.6-.4 1.5-1 1.9-1h10.2v5h-10.2a5 5 0 0 1-1.9-1 6.6 6.6 0 0 0-3.1-1.5c1.1-.2 2.2-.7 3-1.5zm54.7 3c-.6.5-1.5 1-1.9 1H315v-5h10.2a7 7 0 0 1 1.9 1c.9.8 2 1.3 3 1.5a7 7 0 0 0-3 1.5z" class="cls-3"/><path id="path54" fill="#fcb701" stroke="#023d00" stroke-linecap="round" stroke-linejoin="round" stroke-width="5.4" d="M325.2 158.5h-16.8V147v0c0-3.2 2.6-6.2 2.6-6.2h-22.5s2.6 3 2.6 6.2v11.4h-16.8v0c-3.2 0-6.2-2.6-6.2-2.6v22.5s3-2.6 6.2-2.6h16.8V194h-16.8v0c-3.2 0-6.2-2.6-6.2-2.6V214s3-2.6 6.2-2.6H291v12.1c0 3.2-2.6 6.2-2.6 6.2H311s-2.6-3-2.6-6.2v-12h16.8v0c3.2 0 6.2 2.5 6.2 2.5v-22.5s-3 2.6-6.2 2.6h-16.8v-18.2h16.8v0c3.2 0 6.2 2.6 6.2 2.6V156s-3 2.6-6.2 2.6z"/></g></g></svg>