<svg xmlns="http://www.w3.org/2000/svg" id="Layer_1" data-name="Layer 1" version="1.1" width="152.59" height="285.76"><defs id="defs4"><style id="style2">.cls-1{fill:#912200}.cls-2{fill:#ffb600}.cls-10{fill:#fff}.cls-9{fill:#6b1400}.cls-11{fill:#c14721}</style></defs><path d="M152.58 155.76c-.34-12.53-7.12-22.41-12.57-30.35-1.66-2.42-3.23-4.7-4.2-6.48l-1.53-2.81c-6.92-12.69-14.77-27.06-15.15-38.88V53.28l2.37-4a17.42 17.42 0 0 0 3.54-10.52V24.41l.41-22.23V0H26.7v2.18l.31 22.23v14.35a17.5 17.5 0 0 0 4.16 11.31l2.27 3.79V77.2c-.38 11.82-8.23 26.19-15.15 38.88l-1.52 2.82c-1 1.78-2.54 4.06-4.19 6.48C7.12 133.32.34 143.2 0 155.73v100.28a17.57 17.57 0 0 0 .71 5 31.47 31.47 0 0 0 30.72 24.75h89.71a31.47 31.47 0 0 0 30.74-24.8 17.57 17.57 0 0 0 .71-5V156.2c0-.15 0-.31-.01-.44z" id="path164"/><path class="cls-1" d="M120.46 125.02c-8-14.74-18.36-32.64-18.8-49.79v-30l6.54-8.65V17.86s1.88-6.74-8.24-6.74H53.77c-12.55 0-10.23 6.74-10.23 6.74v18.69l7.38 8.68v30c-.44 17.15-10.8 35-18.8 49.79-.44.81-.93 1.63-1.44 2.46-2.76 4.44-6.42 9.15-9.19 14.08a37.81 37.81 0 0 0-2.64 5.64 21.46 21.46 0 0 0-1.39 6.78v54.78h117.66v-54.78c-.28-10.49-9.95-20.3-14.66-28.96z" id="path168" style="fill:#912200"/><path class="cls-9" d="M120.46 125.02c-8-14.74-18.36-32.64-18.8-49.79v-30l6.54-8.65V17.86s1.88-6.74-8.24-6.74H53.77c-12.55 0-10.23 6.74-10.23 6.74v18.69l7.38 8.68v30c-.44 17.15-10.8 35-18.8 49.79-.44.81-.93 1.63-1.44 2.46-2.76 4.44-6.42 9.15-9.19 14.08a37.81 37.81 0 0 0-2.64 5.64 21.46 21.46 0 0 0-1.39 6.78v54.78h60l26.46-38c8.43-9.23-2.28-31.11-2.28-31.11-13.93-19.62-14.57-63.62-14.57-63.62l12.29-2.67v1.79c.38 17.15 9.44 35 16.44 49.79 4.11 8.66 12.57 18.47 12.81 29v54.82h6.49v-54.78c-.26-10.49-9.93-20.3-14.64-28.96z" id="path170" style="fill:#6b1400"/><path class="cls-10" d="M101.7 76.11h-2.29c.66 16.88 9.53 34.42 16.41 48.91 4.11 8.66 12.57 18.47 12.81 29v54.74h6.49v-54.78c-.28-10.49-10-20.3-14.66-29-7.86-14.45-18-31.99-18.76-48.87z" id="path172" style="fill:#fff"/><path class="cls-1" d="M115.82 125.02c-7-14.74-16.06-32.64-16.44-49.79v-30l5.72-8.65V17.86s1.63-6.74-7.21-6.74h-40.4c-11 0-8.94 6.74-8.94 6.74v18.69L55 45.23v30c-.38 17.15-9.44 35-16.44 49.79-.38.81-.81 1.63-1.26 2.46-2.41 4.44-5.61 9.15-8 14.08a41.34 41.34 0 0 0-2.32 5.64 24.73 24.73 0 0 0-1.21 6.78v54.78h102.86v-54.78c-.24-10.49-8.7-20.3-12.81-28.96z" id="path174" style="fill:#912200"/><path class="cls-11" d="M128.63 153.98c-.24-10.49-8.7-20.3-12.81-29-7-14.74-16.06-32.64-16.44-49.79V73.4l-12.29 2.67s.64 44 14.57 63.62c0 0 10.71 21.88 2.28 31.11l-26.46 38h51.15z" id="path176" style="fill:#c14721"/><path d="M103.94 170.84a32.74 32.74 0 0 1-55.78 0H17.45v81h118v-81z" id="path178"/><path class="cls-9" d="M17.45 251.88h117.67v.21a14 14 0 0 1-14 14H31.43a14 14 0 0 1-14-14v-.21z" id="path180" style="fill:#6b1400"/><path class="cls-1" d="M25.64 251.88h109.48v.71a13.48 13.48 0 0 1-13.48 13.48H39.13a13.48 13.48 0 0 1-13.48-13.48v-.71z" id="path182" style="fill:#912200"/><path d="M99.96 11.12H53.77c-12.55 0-10.23 6.74-10.23 6.74v18.69l7.38 8.68v30.88h50.75V45.2l6.54-8.65V17.86s1.87-6.74-8.25-6.74z" id="path184"/><path class="cls-2" id="rect186" style="fill:#ffb600" d="M50.91 63.14h50.75v4.8H50.91z"/><path class="cls-2" id="rect188" style="fill:#ffb600" d="M17.77 238.17h117.67v5.12H17.77z"/><path class="cls-11" d="M77.48 261.55h43.66c7.72 0 14-4.26 14-9.52v-.15H77.48z" id="path190" style="fill:#c14721"/><path class="cls-10" d="M121.14 266.07a14 14 0 0 0 14-14v-.21h-6.49s.64 12.51-7.51 14.21z" id="path192" style="fill:#fff"/><path class="cls-10" id="rect208" style="fill:#fff" d="M39.3 10.42h72.36v4.48H39.3z"/><path class="cls-10" id="polyline210" style="fill:#fff" transform="translate(-176.23 -268.24)" d="m282.6 281.87 4.36 25.8.93-27.41"/><path class="cls-10" d="M45.77 200.06v17.63l-1.16 1.88 1.16 2.13v7.2h5v-10.26h5v10.26h5v-35h-8.79a6.18 6.18 0 0 0-6.21 6.16zm10 13.59h-5v-13.59a1.2 1.2 0 0 1 1.18-1.19h3.82z" id="path212" style="fill:#fff"/><path class="cls-10" d="M79.77 223.64h-3.79a1.2 1.2 0 0 1-1.21-1.18v-25.28h-5v20.19l-1.36 2.2 1.36 2.5v.39a6.18 6.18 0 0 0 6.18 6.18h8.82v-31.46h-5z" id="path214" style="fill:#fff"/><path class="cls-10" d="M93.63 200v17.37l-1.36 2.2 1.36 2.5v.39a6.18 6.18 0 0 0 6.18 6.18h8.66v-8.17h-5v3.17h-3.7a1.2 1.2 0 0 1-1.19-1.18V200a1.21 1.21 0 0 1 1.19-1.19h3.66v3.95h5v-8.95h-8.66a6.19 6.19 0 0 0-6.14 6.19z" id="path216" style="fill:#fff"/><path class="cls-10" d="m136.42 219.57-1.3-2.11v-3h-5v9.3h-5.35a2.11 2.11 0 0 1-2.11-2.12v-13.19h7.57v-5h-7.57v-9.69a2.1 2.1 0 0 1 2.11-2.11h5.76v5.56h5v-10.59h-10.76a7.12 7.12 0 0 0-7.11 7.11v2.9l-1.16 1.88 1.16 2.13v20.95a7.12 7.12 0 0 0 7.11 7.11h10.37v-6.74z" id="path218" style="fill:#fff"/><path class="cls-10" d="M36.09 217.46v-6.81a7.14 7.14 0 0 0-2.43-5.35l-.23-.2-9.33-4.8c-.19-.18-.4-.36-.48-.46a.62.62 0 0 1 0-.16v-5.92a2.11 2.11 0 0 1 2.11-2.11h5.37v5.37h5v-5.34a4.8 4.8 0 0 0-1-3.5 4.48 4.48 0 0 0-3.59-1.53h-5.74a7.12 7.12 0 0 0-7.11 7.11v3.67l-1.16 1.88 1.39 2.56v-.4a6.15 6.15 0 0 0 2 2.71l.35.31 9.27 4.77a2.09 2.09 0 0 1 .55 1.42v10.94a2.12 2.12 0 0 1-2.11 2.12h-5.37v-9.22h-5v14.21h10.37a7.12 7.12 0 0 0 7.1-6.72l1.31-2.41z" id="path220" style="fill:#fff"/><path class="cls-1" d="M92.27 76.11s-.24 33.9 12 54 13.43 23.6 13 40.75h-13.33l-24-59.55 2.65-28.59-2.65-6.59" id="path222" style="fill:#912200"/><path class="cls-11" d="M99.3 153.43v-3a6.73 6.73 0 0 0-6.72-6.72h-2.92v-5.47a6.54 6.54 0 0 0-2.2-5.21 8.18 8.18 0 0 0-6-1.62h-2.47l8.86-16.78-5.08-2.69-10.29 19.47H65.9v-18.13h-5.76v40.15h5.76v-16.26h16.21a2.77 2.77 0 0 1 1.63.26 1.3 1.3 0 0 1 .19.84v5.49h-5.84a6.73 6.73 0 0 0-6.72 6.72v17.28a6.72 6.72 0 0 0 6.72 6.72h14.52a6.73 6.73 0 0 0 6.72-6.72v-5h-5.76v5a1 1 0 0 1-1 1H78.06a1 1 0 0 1-1-1v-17.33a1 1 0 0 1 1-1h5.84v4h5.76v-4h2.92a1 1 0 0 1 1 1v3z" id="path224" style="fill:#c14721"/><path class="cls-9" d="M94.82 151.83v-3a6.74 6.74 0 0 0-6.73-6.72h-2.91v-5.47a6.54 6.54 0 0 0-2.2-5.21 8.18 8.18 0 0 0-6-1.62h-2.47l8.86-16.78-5.09-2.69-10.29 19.47h-6.58v-18.13h-5.76v40.15h5.76v-16.26h16.21a2.85 2.85 0 0 1 1.63.27 1.3 1.3 0 0 1 .19.84v5.47H73.6a6.74 6.74 0 0 0-6.73 6.72v17.35a6.73 6.73 0 0 0 6.73 6.72h14.51a6.73 6.73 0 0 0 6.73-6.72v-5h-5.76v5a1 1 0 0 1-1 1h-14.5a1 1 0 0 1-1-1v-17.39a1 1 0 0 1 1-1h5.84v4h5.76v-4h2.91a1 1 0 0 1 1 1v3z" id="path226" style="fill:#6b1400"/><path class="cls-1" d="M97.06 151.83v-3a6.73 6.73 0 0 0-6.72-6.72h-2.92v-5.47a6.54 6.54 0 0 0-2.2-5.21 8.18 8.18 0 0 0-6-1.62h-2.45l8.86-16.78-5.09-2.69-10.29 19.47h-6.58v-18.13h-5.76v40.15h5.76v-16.26h16.21a2.85 2.85 0 0 1 1.63.27 1.3 1.3 0 0 1 .19.84v5.47h-5.84a6.73 6.73 0 0 0-6.72 6.72v17.35a6.72 6.72 0 0 0 6.72 6.72h14.52a6.73 6.73 0 0 0 6.72-6.72v-5h-5.76v5a1 1 0 0 1-1 1H75.82a1 1 0 0 1-1-1v-17.39a1 1 0 0 1 1-1h5.84v4h5.76v-4h2.92a1 1 0 0 1 1 1v3z" id="path228" style="fill:#912200"/><path class="cls-9" id="polyline230" style="fill:#6b1400" transform="translate(-176.23 -268.24)" d="m231.97 401.95-2.48 4.34 2.48 4.22"/><path class="cls-11" id="polyline232" style="fill:#c14721" transform="translate(-176.23 -268.24)" d="m252.67 422.6 2.49 4.33-2.49 4.22"/><path class="cls-11" d="M77.36 55.42s-16.18 1.21-16.18-17.47l3.67.54a21.41 21.41 0 0 1 3.75-6.45 12.2 12.2 0 0 0 3.34-8.61l6.69 11.63 2.06 10" id="path234" style="fill:#c14721"/><path class="cls-2" d="M77.36 55.42s-13.63-2.44-12.44-13.38l3.55 2.58a17.44 17.44 0 0 1 2.92-11.49c3.85-5.82.55-9.7.55-9.7s9.27 2.91 8.74 10.94c0 0 2.43-.55 2.67-4.15 0 0 4.4 9.55 0 15.78l4.38-2.37s-.41 10.13-10.37 11.79z" id="path236" style="fill:#ffb600"/></svg>