<svg xmlns="http://www.w3.org/2000/svg" xml:space="preserve" width="825.1" height="852.6" viewBox="0 0 218.3 225.6"><path fill="#fff" stroke="#000" stroke-width=".3" d="M60.8 68.5 71 165l-35.7-6.7-11.8-7.1 9.6 55.2 11.6 8.6 25.8 6.2 40.7 3 39.5-3.5 29.5-9.9 6.7-7.9 8.1-51.2-11.3 5.6-32.8 6.7 10.3-95.6-57.9 2.7z"/><path fill="#929ba7" d="M108.9 0a515.6 515.6 0 0 0-20.6.4A83 83 0 0 0 80 1l-4.3.3a199 199 0 0 1-4.3.4l-1.9.3-3.3.4a129.6 129.6 0 0 0-16.5 2.4 79 79 0 0 0-4 .8l-3.8.8a32 32 0 0 0-3.3.8 47.5 47.5 0 0 1-3.6 1 81.2 81.2 0 0 0-23.6 9c-3.9 1.9-8.4 6-10 9.3C.3 28.9 0 29.7 0 35.8c-.1 9 .1 11 2 13.3L5.4 48c3.2-.8 6.4-1 9.6-1.2a408.7 408.7 0 0 1 6.3-2.3c9.2-3.3 18.5-6.6 28-9 7.6-1.7 15.3-3 23-4.7 7-1.6 14-3.7 21.2-5.2l17-2.8c5.6-1 11.4-1.8 17.2-2a129.4 129.4 0 0 1 3 0 117.4 117.4 0 0 1 16.8 1.2 42.5 42.5 0 0 1 7.9-.4 78.5 78.5 0 0 1 14.4 1.7l4.2 1.3 1.4.5h-.3c2 .5 5 1.5 6.5 2.2 19.1 9.6 26.4 21 24 29.6 2.6.5 5 1.4 7.4 2.7l1.2-6.7c.2-.6.6-1.5 1-2 2.2-2.3 3.1-4.7 2.7-6.6v-1.5c.3-.4.4-2.4.4-7 0-6.3 0-6.4-.8-8.4a11 11 0 0 0-2.7-4.1c-1-1.2-2.4-2.6-3-3a61.6 61.6 0 0 1-2-1.5 78.9 78.9 0 0 0-24.1-10.1c-3-1-7.4-2-10.4-2.6a67 67 0 0 1-3.3-.7 24 24 0 0 0-2.9-.5 148 148 0 0 0-14.3-2.2 235.9 235.9 0 0 1-5.2-.6 279 279 0 0 0-20-1.7 531.8 531.8 0 0 1-5.6-.3L108.9 0zM146 67.7l-4.7.6c-1.6.2-3.3.2-4.9.3a2.1 2.1 0 0 0 .1 0h.3-.2c-.6.3-1.3.3-2 .4-3.5.7-7.1.8-10.8 1l-8.1.3a26 26 0 0 0-4.8.4l-4.3 1-5.2 1.6-2 .5a379.8 379.8 0 0 0 55.5-2.5 39.3 39.3 0 0 0-8.8-3.6zm-30.3 11h-4.4l-9.3.4c-2.7.3-6.9 1.8-11.1 3.8C83 86.7 82.6 87 79 87c-2.7.2-2.9.3-3.2.8a2 2 0 0 0-.1 1.2c.2.9 3 3.5 4 3.9 1.2.4 1.3.7.5 1-.4 0-1 .3-1.3.6-1 .7-3 1-4.5.9-1.1-.2-1.3-.1-1.7.4l-.4.9 1.2 1.6c1.3 1.5 3.2 2.5 4.5 2.5 1 0 1.1.3.5.9a18 18 0 0 0-2.5 5.1 175.8 175.8 0 0 1-3.2 9c0 .2.3.6.6 1l.5.5-.8 2.8c-2.1 7.5-2.2 8-1.2 8.7.5.3 1 .4 1.7.3.8-.2 1.8 0 4 .6 2.5.8 2.9 1 4.5 2.4 1.5 1.3 1.7 1.6 1.4 2a8.5 8.5 0 0 0-1.7 3.7c0 .9.7 2.4 1.6 3.8a107.5 107.5 0 0 1 4.8 8 43.7 43.7 0 0 0-3.4 12.8c0 1.3 0 1.3 1.4 1.8 2 .7 5 .5 6.8-.6 1.7-1 1.7-1 2.7 1.6.5 1.3.7 2.2.7 3.6 0 2.3.2 2.8 1.8 4.8 1 1.2 1.3 1.8 1.4 2.8.1.6.6 2 1.1 3.2l1.2 3.1 1.1 2.9c1 1.9 1.7 2.4 2.7 1.8.8-.5 1-.4 1.8 1.4.4 1 1 2 1.5 2.5.5.7.9.8 1.6.8 1.4 0 1.9-.5 3.3-3.6l.8-1.4.8.3c1.3.6 1.9.2 3-2.3l.9-2.6 1-2.7a17 17 0 0 0 1.3-3.5c.1-.9.5-1.6 1.5-2.7 1.5-1.9 1.7-2.6 1.7-5 0-1 .2-2.2.4-2.7a178.5 178.5 0 0 0 1.4-3.1l1.7.8c1.5.8 1.9.9 4 .9 3.3 0 4-.4 4.1-2 .2-2.1-2-10-3.1-11.7l-.6-.7.6-.7.5-1 1-1.8 1.2-1.8c0-.1.7-1.5 1.7-3 1.8-3.2 2-4.2 1.3-5.7-.4-.8-.3-1 1.4-3.2a6.1 6.1 0 0 1 5.1-2c2.3.2 3.1-1 3.4-5.3.6-7 .6-7.6 1-7.6.1 0 .5-.2.7-.5.5-.5.5-.7.2-2.2-.7-3.7-2.9-9.5-5.7-15.1a37 37 0 0 0-7.7-12c-5.9-5.9-8.8-7.9-12.3-8.5-5-.8-6.2-1-9.6-1zm11.7 4.2c.4 0 2.3 1.5 5 4 4.3 4 5.9 5.7 6.9 7.6 4 7.4 6.3 12.1 7.4 15.6 1.4 4.4 1.6 5.3 1.2 5.3l-.8.5c-.4.4-.5 1.2-.6 4l-.4 5.7-.2 2.2h-1.3a9.5 9.5 0 0 0-4.7 1.5c-1 .9-1 .7 1-1.9a9.3 9.3 0 0 0 2.2-4 35.5 35.5 0 0 0 1.3-13.2c0-1.9-.8-4-2.6-6.8a41.6 41.6 0 0 1-2-4c-.5-1-1-2-1.2-2-.2 0-.9-1-1.6-2-3-4.2-5.4-7.2-7.5-9.5-2.2-2.4-2.6-3-2.1-3zm-64.4 3a9.1 9.1 0 0 0-.5.3l.5-.3zm32 10c3.5 0 6.8 2 10.1 6.1 2 2.6 2.4 2.8 4.2 3l1.9.2c1 .2 2-.6 3.7-3.2a10 10 0 0 1 6.3-4.4c3.3-.8 4.3-.7 7.3.8 3.5 1.7 4.7 3.2 7.2 8.3.9 1.9 2.6 6.4 2.6 7 0 .2-.4.1-1.3-.3-1.3-.7-1.6-.7-4 0l-2.8.6c-.8.2-2 .5-2.6.8l-2.4 1c-3.3 1.5-4.6 2-5.4 2.6-1 .9-1.2.9-2.2 0a3 3 0 0 0-1.1-.6l-1.3-.3c-.9-.2-1-.4-1.1-1.4-.3-1.6-.9-2.5-1.7-2.7-.5-.2-.8 0-1.1.4l-.5.6-.6-.6c-1-1-2.2-.4-2.6 1.7-.4 1.7-.6 2-1.9 2.1-.6.1-1.4.5-1.8.9-1 .8-1.2.7-2.5-.2-1.3-1-8.4-4-10.2-4.3a35.7 35.7 0 0 1-3.2-.7c-2.1-.7-2.2-.7-3.4 0l-1 .5.5-2c.8-3 1.5-4.9 2.4-6.5l3.5-6a14.5 14.5 0 0 0 .9-1.4c.7-1.4 1.4-1.9 3.4-2h.7zm27 11c-.3 0-.8 0-1.6.3-3.8 1.2-6.2 2.7-6.2 4 0 .4 0 .7.2.8.4.4 1.4.2 2.5-.5.6-.5 2.2-1.2 3.5-1.6 3-1.1 3.8-2 2.4-2.8-.3-.2-.4-.3-.8-.3zm-24.2 1c-1.3 0-1.7 0-2 .5-.8 1-.2 1.7 2.4 2.1 2.7.5 4 1 5.7 2l1.6.8c.3 0 1.3-1 1.3-1.4 0-1.3-5.8-4-9-4zm13 7.7.3 1.3c.2.7.3 1.5.5 1.7.3.6 2.3 1.8 3.5 2.1l1 .5c0 .3-.1.3-.5 0-.7-.5-2.5-.8-5.4-.7h-3l1.2-.7c1.4-.8 1.7-1.3 2-3.3.1-.7.2-1 .4-1zm-24.7.6 1.8.4a42 42 0 0 1 7.6 2.5l.8.4-2 .3a10 10 0 0 0-6.5 2.7l-3 2.4-.8.6-.3-.8c-.6-1.6-1-3.7-1-5.3v-1.8l.8.1c.6.1 1 0 1.7-.7zm49 0c.4 0 .6.3 1.2.8 1 .8 1.4 1 2.3.5.5-.3.5-.3.3 2a15 15 0 0 1-.7 4l-.7 1.8a15 15 0 0 1-3.1-2.1c-3-2.5-4.8-3.3-7-3.3l-1.8-.2c-.6-.2-.6-.2.2-.6 1-.7 6-2.3 8-2.6l1.2-.2zm-28.6 4.5c.3 0 .2.1-.1.3-.7.3-1.2.3-.7 0 .2-.2.6-.3.8-.3zm-6.7 1.6.9.1-1.5 3.2a17.2 17.2 0 0 0-1.7 4.6c-.2.2-1.4.3-3.3.3h-3l.6-1.8c.8-2 2.5-5.6 3-6a38 38 0 0 1 5-.4zm26 .2c2 0 5 1.2 5 2 0 .1-.8 1.5-1.9 3l-1.9 2.8h-1.3a11 11 0 0 1-4.5-1c-.5-.4 3.8-6.8 4.6-6.8zm27.1.3a144.6 144.6 0 0 0-.6 5.6l-.2 1.9.7-2.4.1-.3v-4.8zm-42.1 2.5c2 0 2 0 3.4 1.1.8.6 1.7 1.2 2 1.2.3 0 .6.4.7.9.3 1.3 2 3 3.6 3.8 2.4 1 9.8 1.8 11.1 1.1a17 17 0 0 0 2.3-2.8c1-1.4 2-2.4 2-2.3s0 1.3-.5 2.6l-.8 2.8c0 .3.3.8.6 1.2.4.4.9 1.3 1.2 2 .5 1.2.4 1.6-.5 2.7-.3.3-.9 1.2-1.3 2.1l-1.2 2-1.2 2-1 1.4-.9-.4c-1-.8-5-2.7-6.5-3-.8-.3-1.2-.6-1.2-.8.5-1.7.4-2.5-.6-3.7-1.5-1.7-3.5-2.6-4.3-1.8-.6.6-.3 1.4 1 2.8l1.4 1.3-1.7 1.8a9.6 9.6 0 0 1-5 3c-3.5 1.2-7.5 0-10.4-3.2l-1.5-1.7 1.3-1.3c1.1-1 1.3-1.4 1.3-2 0-.7-.2-.9-.8-1-1.2 0-2.2.4-3.5 1.9-1.2 1.3-1.3 1.3-1.2 2.8l.1 1.5-1.4.4c-1.6.5-5 2.1-6.2 3-.9.6-.8.6-1.2-.3a67 67 0 0 0-4-6.3l-1-2c0-.7.9-2.7 1.5-3.2.7-.7.7-1.5-.2-4.2a9.7 9.7 0 0 1-.7-2.3c.2-.2 1.6 1.4 2.8 3.3a7 7 0 0 0 1.5 1.8c.6.2 4.2.2 6.8 0 3.3-.4 5.2-1.2 6.7-3 .7-.7 1.4-1.6 1.4-2 0-.3.5-.7 1-1l2-1.4c1-.7 1.2-.8 3-.8zm3.2 3.3c-1.2 0-1.4.8-1.7 7.5-.3 5.1-.3 6.3 0 6.7.4.4 1.3.5 1.8.2.7-.5 1-2.2 1-7.8.2-6.2.2-6.6-1-6.6zm-6.7 0c-.4 0-.8.2-.9.4a88 88 0 0 0 .1 11.2 8 8 0 0 0 .5 2.6c.5.5 1.7.5 2.2 0 .5-.6-.2-13-.7-13.7-.3-.3-.8-.5-1.2-.5zm15.7 18c1 .2 5.3 2.5 6 3.3.9 1 3 4.5 3 5l.6 2.5.8 3.3c.2 1 .1 1-.5 1s-.7-.2-1-1.2c-.1-.7-.8-2.3-1.4-3.5-.7-1.3-1.3-2.8-1.5-3.5-.3-1.3-3-4.3-4.5-5-1-.6-2-1.7-1.6-1.8a.3.3 0 0 1 .1 0zm-17 8c.7 0 1.3.3 2.3.7 1 .5 2.1.8 2.5.8a8 8 0 0 0 2.4-.8c1.4-.6 2-.7 2.8-.6 2 .4 4.8 2 5.7 3.3l1.3 1.7.8 1-.6 1.6a20 20 0 0 0-1.4 6 7 7 0 0 1-.4 2c-.2.4-.3.3-1-.7a37 37 0 0 0-2-2.6l-1.8-2.4-1.3-1.4-.6-.5.7-.5c1.3-.7 1.6-1.2 1.2-2-.3-.8-1-.8-2.9 0-1.9.6-4 .6-6.2-.2-1.7-.6-1.8-.6-2.3-.2-.8.6-.5 1.7.5 2.3.5.2.8.5.8.6l-.7.8a51.3 51.3 0 0 0-5.5 6.7 8 8 0 0 1-.6-2.5c-.2-1.5-.6-3.3-1.1-4.6l-.9-2.2.8-1 1.2-1.8c.8-1.3 3.9-3 5.8-3.4h.6zm-33.6 3a17 17 0 0 1-1 4.4 29.5 29.5 0 0 1-2.5 4.6l1.8.3c1 0 1.2 0 1.3-.4l.7-1.5c.3-.6.4-1.5.3-2l-.6-5.3zm42.2 9.3 1 1c2.8 4 3.1 4.8 3.3 6.9.1 1.8 0 2-.5 3-.4.5-.8 1.4-1 2a29.4 29.4 0 0 1-1.8 3.9c-.5 0 0-3.3.8-5.4.7-1.6.5-3.8-.3-7a29 29 0 0 0-1.5-4.4z"/><path fill="#778595" d="M108.4 0A327.7 327.7 0 0 0 86 .8a155 155 0 0 0-5.5.4 301.2 301.2 0 0 0-35 4.6 51 51 0 0 1-3 .7 52.9 52.9 0 0 0-2.6.5l-5.2 1.3a134.1 134.1 0 0 0-16.3 5.5c-1.6.6-3.4 1.5-7 3.4-3 1.7-6.6 4.7-8.6 7.4-.7.8-1.5 2.4-2 3.5-.6 1.9-.7 2.5-.9 7a69.9 69.9 0 0 0 0 4 52 52 0 0 1 11.4 7.7 165.2 165.2 0 0 0 9 7.2l.2.1 5.5.6c2.8.4 5.6 1.2 8.4 2 1.3.3 2.6.8 3.9 1.3 1.9-.3 3.8-.4 6-.2 2.3.6 5.1.4 7.2 1.9A49 49 0 0 1 63.3 71v.1c1.3 0 5.3.4 9.4 1A169.4 169.4 0 0 0 94 73.5a471.1 471.1 0 0 0 43.1-.7A308.3 308.3 0 0 0 157 71c2-.2 1.9-.4 1.5 2.7a72.1 72.1 0 0 0-.4 3.9l-.4 3.4-.7 5.2a445.3 445.3 0 0 0-2.7 24.7v.6c.8-2.4 1.6-4.9 2.7-7.3.8-1.6 1.6-3.2 2.2-5a63.4 63.4 0 0 0 3-12.5c.3-5 .5-10.2 2.5-15 .8-1.4 1.3-2.9 2.2-4.2a28 28 0 0 1 12.6-10.3 52 52 0 0 1 10.2-3c2.3-.3 4.6-.8 7-1.3 1.9-.4 3.7-1.3 5.6-1.8 3.1-1 6.1-2.3 9.3-3.3 2.2-.7 4.3-1.4 6.4-2.3v-.2c0-.3-.2-.5-.4-.5-.5 0-.5 0 .2-1.6.6-1.4.6-1.8.5-7.6v-6.1l-.8-2.1a19 19 0 0 0-7.7-8.5 18 18 0 0 0-2.8-1.8 148.8 148.8 0 0 1-3-1.6c-1-.6-2.2-1.1-5.7-2.6a100.2 100.2 0 0 0-11.8-4 117.6 117.6 0 0 0-14.1-3.3A205 205 0 0 0 155.6 3l-8.3-1.1a117.3 117.3 0 0 0-16-1.2 417 417 0 0 0-23-.6zm-2 5A350.9 350.9 0 0 1 159 8.1a131.8 131.8 0 0 1 12.6 2.2 89.6 89.6 0 0 1 13.4 3.1 290.9 290.9 0 0 0 6.9 2.2c4.6 1.6 5.5 2 9.2 3.8 7.9 3.8 12.1 7.8 12.7 12 .2 1.1 0 1.6-.6 3-1.2 2.6-3.7 5-8 7.4-1.6 1-1.8 1-1.8-.1s-1.8-4.1-3.2-5.5c-3.1-3.1-7-5.5-12.5-7.8-2.4-1-7.4-2.7-9-3a125.4 125.4 0 0 1-3.3-1 118 118 0 0 0-4.2-1l-4.1-1c-2.7-.6-3.6-.8-13.5-2.3a263 263 0 0 0-22-2.3 330.7 330.7 0 0 0-73.8 3.5 59.5 59.5 0 0 1-3.1.6l-3.3.7A309.5 309.5 0 0 1 41 25.3a72.3 72.3 0 0 1-5.1 1.6l-2.4 1-5.2 2.1a37.1 37.1 0 0 0-6.6 4 15.4 15.4 0 0 0-5.7 7.8l-.5 1.4a35 35 0 0 1-6-3.9C8.4 38.6 6 35.8 5.2 34c-1-2-.9-3.7.5-6a21 21 0 0 1 6.9-6.2 54.8 54.8 0 0 1 13.3-6l2.4-.8a128.9 128.9 0 0 1 19-4.8l4-.7a149.7 149.7 0 0 1 17.6-2.6 222.8 222.8 0 0 0 11.7-1l6.2-.6c2.5-.3 4.1-.3 19.7-.4zm9.7 73.8h-4.6a37.1 37.1 0 0 0-20.3 4 234.8 234.8 0 0 1-5.6 2.6 12.3 12.3 0 0 1-6.3 1.7c-3.1.1-3.5.3-3.5 1.5 0 1.1 2.3 3.4 4.3 4.3l.8.5-1.8 1.1c-1.6.8-2 1-3.8 1l-2.3.1c-.7.5-.4 1.6.9 3 1.4 1.4 2.3 2 4 2.2.6 0 1.1.2 1.1.2l-.7 1a28 28 0 0 0-2.5 5.7 219.8 219.8 0 0 1-2.9 8.1c0 .2.3.6.6.9l.6.5-.9 3c-2 7.6-2.1 7.9-1.5 8.4.3.3 1 .4 2 .4s2.3.2 4 .7c3 .8 3 .9 5 2.7l1.3 1.3-1 1.3c-1.5 2.3-1.4 3.4.2 6l1.3 2 .8 1.5c.3.5 1 2 1.8 3.2l1.4 2.3-.5 1c-.6 1-1.3 3-2.4 7.2-1.2 4.9-1.1 5.5 1.4 6.1 2.2.6 4.6.2 7-1.3.6-.3.7-.3 1 .2a12 12 0 0 1 1.6 5.7c.1 2.6.3 3 1.9 4.8.8 1 1.1 1.7 1.2 2.5.1.7.6 2.2 1.2 3.4l1.3 3.3c.4 1.5 1.5 3.7 2 4.3.4.5 1.4.5 1.8 0 .3-.3.4-.3.8 0 .3.3.5.8.6 1.1.2.8 2 3.5 2.4 3.6.7.3 1.7.2 2.2-.2.3-.3 1-1.3 1.5-2.4 1.3-2.5 1.5-2.6 2-2 .6.5 1.4.4 2-.1.4-.7 1.7-3.5 1.9-4.6 0-.5.6-1.7 1-2.7l1.3-3.3a5 5 0 0 1 1.4-2.9c1.5-1.9 1.7-2.2 1.8-4.8 0-1.4.3-2.7.5-3.1l.5-1.5c.1-.3.3-.9.6-1.1.3-.5.4-.5 2 .3 2.7 1.4 6.2 1.4 7.7.1.7-.6.6-1.8-.4-5.8-1-4.2-1.6-5.6-2.3-6.8l-.5-.9 1-1.7a976.9 976.9 0 0 0 2.3-4.2l2.3-3.7c1-1.7 1.2-2.9.6-4.2-.4-1-.4-1 0-1.7 1.7-2.6 3.3-3.6 6.3-3.8l2.2-.2.6-1.3c.5-1 .7-2 .9-5l.4-6 .6-.4c.9-.3 1.1-1 .8-2.7-.4-1.7-1.2-4.4-1.8-5.9l-1-2.8a103.3 103.3 0 0 0-7.8-15.1c0-.4-3.6-4-6.9-7-2.8-2.5-6-4.5-7.4-4.5a7 7 0 0 1-1.6-.2 30 30 0 0 0-8.4-1zm0 3c4.2 0 5.5.2 8.5 1 1.4.3 1.9.4 2.3.1.4-.2.7-.2 1.7.6a56 56 0 0 1 10.7 10.8l1 2c.4.5 1.6 2.8 2.6 5a448.6 448.6 0 0 0 2.4 4.6c.4.7 2 5.5 2.6 7.8.4 1.4.4 1.5 0 1.7-.7.5-1.2 1-1.2 1.7l-.6 9.5-.2 1.4h-1.5c-1.6 0-2.9.4-4.1 1.3-1.2.8-1.5 1-1.5.7l.2-.4a32 32 0 0 0 2.5-5.9c1.2-3.3 1-5.4-.8-12.3a35.2 35.2 0 0 0-4.5-9.8c-1.9-2.8-3-3.7-6.8-5.7-2.9-1.4-5-1.7-7.9-1-2.3.5-5.5 2-6.6 3.1-.7.8-2.5 3.1-3 4.1-.2.3-.4.3-1 0l-.7-.3V98c0-4-.4-6.7-1.3-8.2-1-1.6-4.8-2.7-9.7-3-3.1 0-2.3-.2-9.5 2.4-1.7.7-2.4.8-3.7.7-1 0-1.8-.2-2-.3-.3-.2 1.4-1 3.3-1.7 1-.3 2.9-1.2 6.5-3 .7-.4 2.8-1.2 4.6-1.8L102 82l8.8-.2h5.4zm-51.4 5.3a31.5 31.5 0 0 1-.8 2.5L62.5 93l-.4.6 1.1 5.2.7 3.6.4 2.3c1.1 3.6 1.7 7.3 2.2 11 .5 3.4.6 7 .7 10.5l.2 8.8v1c0 .8.2 1.5.3 2.2.1 1.3-.2 1.5.2 1.2l1.6 6.5c.3 1.5 1 2.8 1.5 4.2l.7 2.7a14.2 14.2 0 0 1-.1-1.9 107.3 107.3 0 0 1-1-9 230.2 230.2 0 0 0-1.8-16.3l-.8-7.5a691.5 691.5 0 0 1-2.2-21c-.2-.6-.3-1.7-.3-2.4l-.4-3.8a71.3 71.3 0 0 1-.4-4zm30 8.7c4.2 0 7 1.6 10.6 6.3 2 2.4 2.7 3 4 2.6.2 0 .8 0 1.3.3.7.4.9.4 1.7 0 .5-.4 1.4-1.4 2.3-2.7 1.4-2 2-2.6 4.1-4 1.2-.7 5.2-1.4 6.7-1.2 1.8.3 5.6 2.3 6.8 3.7a39 39 0 0 1 6.2 12.9l.2 1-.6-.5c-1.4-1.3-2.6-1.5-4.4-.8l-2.4.5a13 13 0 0 0-4 1.2c-.2.2-1.6.8-3 1.3s-3.3 1.5-4.1 2c-1.4 1-1.9 1-2.7 0a4 4 0 0 0-1.6-.6c-1.4-.4-1.7-.6-2-2.1-.2-1.3-.8-2.2-1.6-2.2-1 0-1.3.7-1.1 2.1.3 2.5.7 3.2 2 4 .6.5 1.6.9 2 1 1 .1 1.4.5 1.1.8l-1.6-.4a16 16 0 0 0-8 0c-1.1.6-1.5.6-1.3.2 0-.2.4-.4.7-.5a8.9 8.9 0 0 0 3.6-2c.2-.3.5-1.4.7-2.4.3-2.1.1-2.8-1-2.8-.8 0-1.4.9-1.6 2.2-.3 1.4-.6 1.7-1.9 2a6 6 0 0 0-2 1c-.4.4-.8.7-1 .7 0 0-.7-.4-1.3-1a15 15 0 0 0-2.3-1.2l-3.3-1.4c-3-1.3-4-1.6-6-2a9 9 0 0 1-2.2-.5 3.7 3.7 0 0 0-3.3.2c-.5.3-.9.4-.9.3a35.8 35.8 0 0 1 4.9-12l2.2-3.8c1.1-2 1.6-2.2 4-2.2zm111.9 1h-.5c0 .6-.2 1.1-.3 1.6l.5.2a45 45 0 0 0 .3-1.9zM122.3 107a7 7 0 0 0-2.5.5c-4.1 1.3-6.4 3.3-5.3 4.4.4.4 1.2.4 1.4 0 .3-.3 3-1.6 5-2.3 2-.8 2.3-1 2.2-1.9 0-.4-.3-.7-.8-.7zm-24.8 1c-1.3 0-1.8.3-1.8 1 0 .8.6 1.1 2.4 1.4 2 .3 4.2 1 5.8 2 1.3.7 1.8.8 2.3.3.9-.9 0-1.9-2.6-3.1-2.1-1-4.5-1.6-6-1.6zm37.4 8.2c.6 0 .9.2 1.4.6.9.7 2 1 2.4.4.4-.4.7 1.7.4 2.6-.2.3-.3 1.1-.3 1.6 0 .6-.2 1.7-.5 2.5l-.6 1.5h-.3c-.4 0-1.5-.8-3.7-2.7a10.2 10.2 0 0 0-5.6-2.7l-2.5-.3-1.2-.1 1-.5c2-1 6.5-2.5 8.8-2.8a8 8 0 0 1 .7 0zm-48.2 0 .8.1c1.8.3 7.2 2 8.4 2.7l1 .6-1 .1-2.3.3a10 10 0 0 0-5.8 2.7 45.6 45.6 0 0 1-3.7 2.8c-.5 0-1.3-2.7-1.5-5.3-.2-2.5-.1-2.9.9-2.7.5 0 1-.1 1.7-.6.6-.5.9-.7 1.5-.6zm13.2 6 1 .1-1 2.4a40.7 40.7 0 0 0-2.5 5.7s-1.5.2-3.2.2c-2.4 0-3 0-3-.3 0-.5 1.4-4 2.4-6 .5-1 1-1.6 1.5-1.8.6-.2 3.4-.4 4.8-.3zm23.1.2c5.4 0 6.6.4 8.8 2.6l1.7 1.6-1.3 1.6c-.7.9-1.3 1.8-1.3 2 0 .2-.5.3-1.8.3h-2.9c-.6.1-1.3.1-1.6 0-2.4-.6-3.4-1-4.2-1.7-.8-.8-1-1-1.3-3.4-.3-1.4-.4-2.7-.3-2.8 0 0 2-.2 4.2-.2zm-12.3 2.6c1.1 0 2.3.5 3.7 1.4.9.6 1.8 1.2 2 1.2.3 0 .5.4.7 1 .2.7.7 1.4 1.5 2.2 1.7 1.5 3.7 2.2 8 2.6 3.8.4 5.3.1 5.9-1 .6-1 2.3-3.4 2.8-3.9.6-.5 1.2-.3 1 .4-1.5 3.4-1.8 5.2-1 5.9.3.3.8 1.1 1.1 2l.6 1.4-1.2 1.8-1.5 2.5a2 2 0 0 1-.5.8c-.2.1-.8 1-1.4 2.1l-1.2 2-1-.6c-1.1-.9-5-2.7-6.6-3.1-1.2-.3-1.2-.4-1-1.2.1-.9.1-.8 0-1.6 0-1.1-2.8-3.8-4-3.8-.4 0-1.2.7-1.2 1 0 .2.6 1 1.3 1.7a9 9 0 0 1 1.3 1.6c0 .4-2.7 3.2-3.7 3.8-1 .6-4.8 2-5.5 2a20 20 0 0 1-5.8-2.1c-1.1-.8-3.5-3.3-3.5-3.7l1-1.3c1.5-1.3 1.7-1.8 1.4-2.5-.6-1-2-.5-4 1.5-1 1-1.2 1.3-1.1 2.2 0 .5 0 1.2.2 1.5.1.5 0 .6-1.3.9a28 28 0 0 0-7.4 3.7l-1.2-2a69 69 0 0 0-3.4-5.5l-1.2-1.7.6-1.5c.3-.8.8-1.6 1-1.9.5-.4.6-.7.5-1.8-.1-.7-.5-2-.9-3s-.5-1.6-.3-1.8c.3-.3 1.3.8 3 3.4 1.3 1.9 1.6 2 4 2a32 32 0 0 0 8.2-1.3 7.7 7.7 0 0 0 3.8-3.6c.3-.6.7-1.1.9-1.1.2 0 1-.6 1.8-1.2 1.3-1 2.4-1.4 3.6-1.4zm-3.5 3.6c-.3 0-.5.2-.7.6-.3.6-.1 9.9.2 12 .2.7.5 1.4.8 1.6.6.5.8.5 1.4-.2.6-.5.6-.7.4-3.1l-.4-6.4c-.2-3.2-.2-3.8-.7-4.1-.3-.3-.7-.4-1-.4zm6.8 0c-.5.1-.9.5-1 1.2-.2.4-.4 2.3-.5 4.1l-.3 5.9c-.2 2.4-.2 2.5.4 3l.9.4c.5 0 1.2-1.2 1.2-2l.2-1.9.2-5.4c0-3.6 0-4.4-.4-4.8a.9.9 0 0 0-.7-.4zm6.4 17.4.8.2 1.3.3c.2-.1 1.3.2 2.4.8l2.1.9c.5 0 2.1 1.6 3 2.8a17 17 0 0 1 2.7 6.3c1 3.6 1 4.3.4 4.5l-.5.1-2.1-.7a9.9 9.9 0 0 1-5-3.7c-1.8-3-7.7-6-10.8-5.7a8 8 0 0 0-3.3 1.4c-.3.5-.6.3-.7-.4l-.3-1.8-.4-1h1a18.5 18.5 0 0 0 9.4-4zm-14.3 8.6c.5 0 1.6.3 2.3.6 1.7 1 3 1 4.7 0a6 6 0 0 1 2.4-.6c1.6 0 5.5 2 6.3 3.2l1.3 1.9.9 1.1-.7 1.7a18 18 0 0 0-1.4 6c0 1.2-.6 2.5-.9 2.2a47.4 47.4 0 0 1-1-1.5 50.4 50.4 0 0 0-5.3-6.5l1-.7c1-.6 1.2-1.5.6-2.1-.5-.4-1-.4-2.1.1-.6.3-1.7.5-3.2.6-2 0-2.5 0-3.7-.5-1.6-.7-2.2-.5-2.3.6 0 .6 0 .8.8 1.3l1 .5-.8 1-2.3 2.7-2.3 3.1a5 5 0 0 1-1 1.4c-.4 0-.8-1-.8-2 0-1.5-.6-4.3-1.4-6.2l-.7-1.7.9-1.1a78.2 78.2 0 0 0 1.3-1.9c.8-1.3 4.7-3.2 6.4-3.2zm43.4 0-.3 2.9c-.5 4-.6 4.4-.2 6 .2 1 .6 2 1 2.4.5.6 1 .6 3.6 0l2-.2-1.3-1a16.5 16.5 0 0 1-4.8-10zm-77 3.5a32 32 0 0 1-1.3 8.6c.7-.1.8-.4 1.2-1.2.5-1.1.5-1.6.4-3.5l-.3-4zm39.2 5.4c.2 0 .7.6 1.2 1.3.4.8 1 1.4 1.3 1.5.7.1 4.5 5.7 4.6 6.8.5 3 .5 3-.6 5.3l-1.6 3.7c-.6 1.5-.7 1.6-1.4 1.4-1-.2-1.9.5-2.9 2.2l-.9 1.4-.5-2.5c-.6-3.4-.9-13.8-.4-17 .4-3 .7-4 1.2-4z"/><path fill="#62768d" d="M106 0a220.8 220.8 0 0 0-19.5.7 289.6 289.6 0 0 0-58.9 9.6 79 79 0 0 0-19.5 9.2c-1 .5-3.8 3.2-4.9 4.6a14 14 0 0 0-2.6 5A56.6 56.6 0 0 0 1 47c.3.7 1.7 2.5 2.3 3.2l.4.9.4 1.9a80.7 80.7 0 0 1 25.8 4.7c5 1.9 10.2 3.4 15.3 5.2 2 .7 4 1.5 6 2 1.6.4 2.8.5 4.4.7l2.4.4c5.6.6 11.2.8 16.8.8 5.5 0 11 0 16.6-.3a81.9 81.9 0 0 0 21.5-3c2.8-.6 4.1-.9 7-1 3.7-.2 7.4.2 11.1.8 4.4.8 8.8 1.9 13 3.2l11.4 3.3 2.2.4 2.1-.2a32.3 32.3 0 0 1 4.1-2.5l3.2-1.4c3.6-1.5 7.4-2.7 11-4 3.6-1.2 7-2.6 10.5-4.1 4.8-2.3 9.6-4.2 14.5-6a78 78 0 0 1 14-3.7l.7-1.8c.2-1.2.2-1.5-.2-1.7-.4-.3-.4-.5.1-1.7.7-1.7.9-5.1.6-10.5-.3-4-.7-5.6-2-7.7A29.6 29.6 0 0 0 207 17a309.2 309.2 0 0 1-3-1.5 98 98 0 0 0-12.4-5l-5.2-1.7c-3-.9-6-1.6-10-2.4a106.3 106.3 0 0 1-3.7-.8 56.4 56.4 0 0 0-7.4-1.3 91.3 91.3 0 0 0-13-1.8A142.7 142.7 0 0 0 133 .8c-7.8-.5-18.3-.7-27-.7zm2.8 4.7a549.4 549.4 0 0 1 26.2.9A231.8 231.8 0 0 1 164.7 9a147.7 147.7 0 0 1 6.6 1.1 132.6 132.6 0 0 1 25.6 7.3 79 79 0 0 1 9.5 4.8c2.1 1.1 5.6 4.5 6.6 6.4.3.8.7 2 .8 2.9.2 1.2.1 1.7-.5 3a19.4 19.4 0 0 1-8.1 7.5c-1.7 1-1.8 1-1.8.4 0-.8-1-3-1.7-4.1a22.2 22.2 0 0 0-5.8-5.4 50 50 0 0 0-11.2-5.4 102.2 102.2 0 0 0-17.3-4.8l-3.7-.8a226 226 0 0 1-8.8-1.4 75.9 75.9 0 0 0-4.7-.8 223.1 223.1 0 0 1-4.3-.5A352.6 352.6 0 0 0 90.8 18a213.4 213.4 0 0 0-32 3.6 278.3 278.3 0 0 1-7.7 1.4c-.7.3-2.8.8-4.6 1.2a76.3 76.3 0 0 0-17 5.6 76 76 0 0 1-4.3 2.2c-3.5 1.9-6.8 5-8.2 8-.6 1-1 2-1 2.5 0 1-.5 1-2.8-.4-4.1-2.6-6-4.3-7.9-7.3-1-1.6-1-1.7-.8-3.5.2-2.7 1.4-4.5 5-7.4 3.8-3 9.6-6 17.2-8.3 1.6-.5 3.2-1 3.4-1.2l3.3-1 4.2-1a104.6 104.6 0 0 1 12.6-2.8 42.5 42.5 0 0 1 7.6-1.3l3.6-.5a53.5 53.5 0 0 0 3.3-.5l1.6-.2 3.7-.2c6.8-.8 9.4-1 11.4-1.1a72 72 0 0 0 4-.4 392 392 0 0 1 23.4-.6z"/><path fill="#5e728b" d="M106 0a225.2 225.2 0 0 0-19.5.7 283 283 0 0 0-28.8 3 50.1 50.1 0 0 1-3.3.4 38.4 38.4 0 0 0-6.5 1.2 219.9 219.9 0 0 0-25.2 6.8A65.4 65.4 0 0 0 9 18.8C4 22.8 1.8 25.3.6 29a55.3 55.3 0 0 0-.2 15.4c0 1.4.7 3 1.9 4.6.7 1 1.4 1.9 1.4 2.2 3 .2 6 .9 9 1.7a156 156 0 0 0 15.2 3.8c5.6 1.4 11 3 16.6 4.6A122.9 122.9 0 0 0 73.3 66c4.2.1 8.5 0 12.8 0a1254.8 1254.8 0 0 0 23.4-.3 341 341 0 0 1 10.9-.1 887.5 887.5 0 0 0 17.4-.3l9.4-.7c3.9-.3 7.8-.4 11.7-.3h11c2.8-2 5.9-3.4 9.2-4.2l4.1-.6a44 44 0 0 1 8.4 0c2.4-1.9 5-3.5 7.5-5 2.1-1.2 4.2-2.4 6.4-3.4.6-.3 1.3-.7 2-.9l5.7-1.6h3.6c.5-.8.8-1.6 1-2.4.1-1 0-1.2-.3-1.4-.4-.2-.4-.3.1-1.6.7-1.7.9-5 .6-10.5-.3-4-.7-5.6-2-7.7a28.8 28.8 0 0 0-9-7.7l-2.3-1.2a99 99 0 0 0-19.5-7.4 74 74 0 0 0-9.6-2.3 59.1 59.1 0 0 1-3.1-.7 55.1 55.1 0 0 0-7.5-1.3 88.7 88.7 0 0 0-13-1.8 104.3 104.3 0 0 0-12.5-1.4L133 .8c-7.8-.5-18.2-.7-27-.7zm-.5 4.7a434.4 434.4 0 0 1 31.4 1 230.5 230.5 0 0 1 31 3.9 451.5 451.5 0 0 0 9 1.8 107.3 107.3 0 0 0 5.2 1.2 103.9 103.9 0 0 0 5 1.5 280.8 280.8 0 0 0 9.5 3.2 77 77 0 0 1 9.3 4.7c3.2 2 6.2 4.8 7.2 6.8a8.7 8.7 0 0 1 .8 3c0 1.5 0 1.9-.7 3-.4.8-1.3 2-2 2.9a33.8 33.8 0 0 1-6.7 4.8c-1 .5-1.8.5-1.5.1 0-.1-.1-.2-.5-.2-.5 0-.5 0-.2-.3.3-.2.3-.3 0-.4-.6-.2-1.4.4-1.5 1-.1.4 0 .5.5.4 1.1-.3 1 .2 0 .8l-1.1.6v-.7c0-2.7-3-6.2-7.3-8.7a73.8 73.8 0 0 0-13-5.6 48.5 48.5 0 0 1-2.5-.8 56.2 56.2 0 0 0-8.6-2.2 27 27 0 0 0-2.5-.5 105.6 105.6 0 0 1-2.9-.6c-2.2-.5-5.7-1-10.2-1.7-5-.7-4.6-.7-10.8-1.3a207 207 0 0 0-11.4-1.2c.1-.2-9.5-.4-21.8-.4a297.3 297.3 0 0 0-59.3 5.8l-4.5 1.2c-9 2.3-15.1 4.8-20.4 8.3-3.7 2.4-5.5 4.9-5.6 7.5v1.1l-.4-.2c-.2-.1-.3-.4-.2-.5.3-.5-.3-1-1-1-.2.2-.4.3-.3.4 0 .2-.3.2-.9.1-1-.1-3.8-1.6-5.9-3a23.7 23.7 0 0 1-5.5-6c-.8-1.4-.9-1.6-.7-3.3 0-1.4.3-2 1-3.3a33 33 0 0 1 15.2-10.3l7.9-2.9a230.5 230.5 0 0 1 25.4-6 158 158 0 0 0 3.7-.5 84.7 84.7 0 0 1 3.6-.5 12 12 0 0 0 2.3-.4l2.9-.3c1.4 0 3-.2 3.6-.4a42.6 42.6 0 0 0 8.6-.8 63.4 63.4 0 0 1 4-.3 441 441 0 0 1 22.8-.8zm3 12.8c-.2 0-.3.2-.5.4-.4.4-.5.4-.7 0-.2-.2-.7-.3-1.9-.3h-1.7v.8c.2 2 0 2 3.1 1.9 1.6 0 2.9-.1 2.9-.2 0-.2.1-.2.3 0 .1 0 .2 0 .2-.2 0-.4.7-.3 1 0 .3.4.5.4 1.3 0 .8-.3 1-.3 1.3.1.3.3.5.3.6.2.2-.3 1.4-.3 1.4 0 0 .1.2.2.5.2s.5-.1.4-.3h.6c.4.2.8.2 1 0h.6c.3 0 .3 0 .2-.2-.1-.2 0-.2.3 0 .3.3.7.5.9.4.1-.1.2 0 .2.2s.1.2.3 0c.1-.3.3-.3.4-.2.2.5 2.6.4 3-.1.2-.4.3-.4.3 0 0 .1 0 .2.2.1l.6.2c.3.3.3.2.2-.2-.2-.4-.1-.4.5 0 .5.4 1 .6 2 .6 1.2 0 1.2 0 1.4-1 .3-1.6 0-1.9-1.7-1.8-1.1 0-1.6.1-2 .6-.2.3-.4.4-.4.2l.3-.6c.3-.3.2-.3-.5-.2h-1c-.1-.3-4-.3-4.6 0h-.3a.3.3 0 0 0-.3-.3c-.1 0-.2.1 0 .3 0 .2 0 .2-.3 0-.2-.2-.7-.3-1-.3h-.8c-.1-.4-1.3 0-1.3.4l-.2.4c-.2 0-.3 0-.2.2 0 .5-.8 1-1.3.7-.2 0-.4-.4-.4-.7 0-.3-.3-.7-1-1-.8-.4-.9-.4-1.2 0-.3.4-1.6.9-1.4.5l-.5-.5-.8-.3zm-20.4 1c-.3-.1-.5.1-.6.6 0 .4-.2.8-.3 1-.2.2 0 .4.4.7.5.2 1 .4 1.4.4.7 0 .7-.7 0-2-.3-.5-.6-.8-.9-.8zm24.7 0c0-.1 0-.1 0 0 .2 0 .3.3.3.5s0 .4-.2.5c-.2 0-.3-.2-.3-.5s0-.5.2-.6zm-29.6 0-.8.2c-.3 0-.5.4-.5.6 0 .4 0 .4-.4 0-.1-.3-.6-.5-1-.5-.6 0-.7.1-.7 1l.1 1.5c.1.2.4.3.9.2l2.7-.2c2.2 0 2.8-.2 2.5-.6l.1-.3c.5 0 .3-.7-.3-1.1-.5-.4-.5-.4 0-.3.3 0 .4 0 .1-.1-.3-.2-1.7-.4-2.7-.3zm27.4.2v.6s-.1 0 0-.4v-.2zm26.2 0c-.4 0-.8.2-1 .5-.3.5-.2 1.4.2 1.9.5.4.8.4 1.7.2.3 0 .5-.3.4-.4 0-.1.1-.2.4-.2.3 0 .8-.2 1.1-.5.5-.4.5-.5.2-.7-.2 0-.6 0-.7.3-.4.4-1.2.5-1 0 .1 0 0-.5-.3-.7-.2-.3-.6-.4-1-.4zm5.9.7c-.7.1-1 1.6-.3 2.4.5.5.8.6.5.2 0-.1 0-.4.3-.5.5-.5.5-1.5 0-1.9l-.5-.2zm-69.7.1-.5.5c-.1 0-.2.1-.2.3 0 .1 0 .1-.2 0-.4-.5-1.8 0-2 .7 0 .3 0 .8.2 1.2l.4.6c.4 0 2-.9 2-1.1.3-.7.4-2 .3-2.2zm72 .2c-.8 0-.8 0-.8 1s0 1.2 1 1.5c.8.2 1.2.2 1.6 0 .4-.2.6-.2.8 0 .1.2.6.2 1 .1.6 0 .8 0 .7.2-.3.4.7.6 1.7.4.6-.1.8 0 .6.1 0 .2 0 .3.3.3.2 0 .4-.1.5-.3h.6c.2.3.4.3.5.2.1 0 0-.1 0-.1-.2 0-.3-.6-.3-1.3v-1l-.5-.1a5 5 0 0 0-1.3-.5c-.8-.2-1-.2-1.4.2-.8.7-2.1.7-2.7 0l-.6-.4-.3-.1c-.2-.2-.8-.3-1.3-.2zm-80.2 1c-.7 0-1 .2-1.2.4-.2.3-.1.4.7.4.5 0 1.2 0 1.6.2.6.2.7.2.7-.2 0-.2.2 0 .4.4.4 1 .5 1.1.6.1 0-1 0-1-2-1.2a11.4 11.4 0 0 0-.8 0zm3.8.2c-.5 0-.7.2-.7.6l.1.5.7-.5.5-.6zm63.3 0a1 1 0 0 0-.3.1c-.2.1 0 .2.3.2.4 0 .5-.1.3-.2a1 1 0 0 0-.3 0zm23.7.2c-1 0-1 0-1.1 1-.1 1.1.3 1.5 1.9 1.6.6 0 1.3.2 1.5.3.2.1.2 0 .1 0 0-.3 0-.3.4-.2.3 0 .4.2.3.4 0 .1 0 .2.1.1h.8c.7.4 2 .4 2 .1 0-.2-.8-1.1-1-1.1-.5 0-.6 0-.8-.8-.1-.6-.3-.8-1-.8-.4 0-.7 0-.6-.2.1-.2-.9-.3-2.6-.4zm9.2 1.5c-1 0-1.1 0-1.1.6 0 .4.2.7.6.9.3.1.7.2.8.1l1-.2c1.5-.3.5-1.5-1.3-1.4zm-105.3.8c-.1 0-.3 0-.4.2l.1.6c.5.3.8.2.8-.2 0-.3-.3-.6-.5-.6zM46.2 26c-.1 0-.3 0-.3.2l.1.3.3-.3c.1-.1 0-.2 0-.2zm.8 0a.3.3 0 0 0-.3.2.3.3 0 0 0 .6 0 .3.3 0 0 0-.3-.2zm.8 0c-.2 0-.3 0-.2.2.1.2.3.2.5.2.1-.1.2 0 .2 0 0 .4.3.4.8.1.4-.2.4-.3 0-.3l-1-.1a2.3 2.3 0 0 0-.3-.1zm-9.1.2-.9.5c-.3.3-.6.5-.7.4-.2-.1-.2 0 0 .1a.5.5 0 0 0 .5.2c.6-.2.8 1.5.2 2-.4.2-.4.3 0 .3 1 0 1.2-.4 1.3-2 0-1 0-1.5-.4-1.5zm144.7 1.2a.3.3 0 0 0-.1 0c-.4.2 0 1 .4 1 .2 0 .3 0 .2.2l.1.3c.2 0 .3.1.1.3-.1.3 0 .3.3 0 .4-.4.9 0 .5.5-.1.3 0 .3.3 0 .7-.6.3-1.4-1-2-.2-.2-.6-.3-.8-.3zM31.7 29.2a1.8 1.8 0 0 0-.4.1c-.5.2-.6 1.6-.1 2 .5.7.7.6.7-.8.1-1 .1-1.4-.2-1.3zm158.2.8c-.2 0-.3.1-.5.4-.2.2-.3.3-.2 0 .1-.1.1-.2 0-.1-.2.1-.3.4-.2.6.1.3 0 .4-.2.2-.3-.1-.3 0-.2.3.2.4.1.4-.6.3-1.3-.3-.7.3 1.7 1.4 2.5 1.2 2.3 1.1 2.3.8 0-.1-.2-.3-.5-.3-.4 0-.4 0 0-.2.2-.2.2-.3 0-.3l.2-.2c.2-.1.4-.6.4-1.1 0-.8 0-1-1.1-1.4l-1-.4zm-160.7.2a2 2 0 0 0-1.4.6l-.7 1c0 .3 0 .3-.2 0s-.3-.2-.4.2c-.1.3-.1.7 0 .8l-.1.3-.5-.4c0-.2-.3-.3-.6-.2-.4.1-.6.3-.5 1 0 .4.2 1 .3 1 .1.3.5.3.8.3.5-.1.7-.3.6-.7 0-.5.1-.6 1-.5.6 0 1 0 1-.2s.1-.3.3-.3c.7.1 1.3 0 1.1-.2 0-.2.1-.3.4-.4.6-.1.6-.7 0-1.8-.2-.3-.6-.5-1-.5zm164.2 3.5v.5c0 .4.1.8.5 1 .3.2.4.2.3 0 0-.1 0-.2.3-.2.2 0 .3.1.2.5 0 .4 0 .5.3.5.2 0 .4-.2.4-.4s.1-.4.3-.5c.2-.1.2 0 0 .5s-.2.7.1 1c.3.2.4.2.4-.2 0-.3.2-.2.4.3.4.9.9 1.3.6.5-.1-.2 0-.4 0-.4.2 0 .4.2.4.4 0 .6 0 .8.3 1.2.4.6.5-.1.2-.8-.2-.4-.2-.6.3-.9l.6-.4-.7-.2c-.4-.2-.5-.3-.3-.4l.3-.5c0-.2 0-.2-.2-.1-.2 0-.4-.1-.7-.4-.4-.6-1.5-.9-1.7-.5l-1.1.4c-.9.1-1 0-1.1-.5l-.1-.4zm-166.1.2c-.2 0-.4.1-.4.3 0 .1.2.1.4 0l.4-.2-.4-.1zm171.5 1.6c-.2 0-.1.2 0 .4l.5.4v-.4l-.5-.4zm-177.9 0c-.2 0-.5.2-.6.5-.5.9-.3 1.3.5 1.7.8.4 1 .4 1.8-.3 1-.7 1-1.2.4-1.5-.2 0-.4 0-.4.2l-.6-.2c-.4-.3-.8-.4-1-.4zm178.3 1.3c-.2 0-.4.2-.5.4-.5.4-.5.5 0 .1.4-.2.6-.4.5-.5zm-179.3.8c-.2 0-.5.2-.9.6-.5.6-.5 1.5 0 2.3.2.2.3.3.5.3s1.6-2 1.6-2.3c0-.3-.6-.5-1.2-.4-.1 0-.1 0 0-.2v-.3zm180 .4-.7.5c-.6.6-.7.7-.3 1.1.3.4.4.4.4-.4 0-.4.2-.8.4-.8s.2-.1.2-.3zm1 1c-1 0-1.7 1.2-1.2 2.1.4.7.8.3.7-.8-.1-1.2.7-1.6 1-.5 0 .5.2.6.5.6.7-.3 0-1.5-1-1.5zm-182 .5.3.3c.2.3.3.5.2.6 0 0-.2 0-.3-.3-.2-.4-.2-.6-.1-.6zm141.5 107.7-2.2.2.2.6 1 3.1c.8-1.2 1.8-2.5 2.9-3.7a9.7 9.7 0 0 0-1.9-.2z"/><path fill="#e62229" d="M106 0a225.2 225.2 0 0 0-19.5.7 283 283 0 0 0-28.8 3 50.1 50.1 0 0 1-3.3.4 38.4 38.4 0 0 0-6.5 1.2l-1.3.3.9.2c2.6.7 5.2 1.6 7.7 2.8l2.4-.4c.8 0 2.1-.3 3-.4a34 34 0 0 0 3.2-.5l3.4-.4c1 0 2.2 0 2.8-.3a48.4 48.4 0 0 0 8.5-.8 57.9 57.9 0 0 1 4-.3l8.3-.4a520.7 520.7 0 0 1 39.7.1l6.4.5c5.4.4 13.7 1.2 17.4 1.7A350.8 350.8 0 0 1 169 9.8l2.4-.5 4.3-.9L177 8l.6-.3c.2 0-.2 0-.3.2l.2-.1 1.3-.7a73.3 73.3 0 0 0-3-.6 59.1 59.1 0 0 1-3.1-.7 55.1 55.1 0 0 0-7.5-1.3 88.7 88.7 0 0 0-13-1.8 104.3 104.3 0 0 0-12.5-1.4L133 .8c-7.8-.5-18.2-.7-27-.7zm112.3 35-.6.6a61.5 61.5 0 0 1-10.5 7.5l-1.6.8-5.3 2.7a76.6 76.6 0 0 1-6 2.8l.3-.1h-.1l-1.4.7a46 46 0 0 1-6.5 2.2c-1.7.4-3.5.5-5.2 1l-6.5 1.3a63.3 63.3 0 0 1-11 .7l-1.2.2-1.3.2c-.8 0-1.5.2-2.3.3h-.8l-3.4.7a45 45 0 0 1-10.3 1h-1v.1h-.4l-.8.2a47.6 47.6 0 0 1-13.3.9l-4.1-.3h-4.8a27 27 0 0 1-10.7 2.9c-1.4.1-3 0-4.4-.1l-4.7-.4-6.4-.7a84 84 0 0 1-8.4-.7c-2.7-.2-5.2-.8-7.8-1.4h-.6c-2.3-.1-4.5-.4-6.7-.7a38 38 0 0 0-2.9-.2c-2.4 0-4.9-.3-7.3-.7-1.7-.2-3.3-.7-5-1l-5-1.3-5.7-1.4-1-.4h-.2a50.1 50.1 0 0 1-9.1-2.2l-3.4-1c-.8 0-1.8-.4-2.4-.7a9 9 0 0 0-2-.7c-.5 0-1.1-.3-1.7-.5l-1.2-.3-2.7-.4c-3-.4-6-1.2-9-2.2A90 90 0 0 1 0 39.1l.2 2.5c.1 1.2.3 2.5.2 2.8 0 1.4.7 3 1.9 4.6.7 1 1.4 1.9 1.4 2.2a151.3 151.3 0 0 1 2.5 14.4l.6 2.9 1.8 10.4a423.8 423.8 0 0 0 3 17 38.6 38.6 0 0 0 1 5.9l.6 3.7.7 4a737.6 737.6 0 0 0 5.7 33.3l.8 4.7a88.2 88.2 0 0 0 1.7 9.6l1.2 7.2 3.6-1.4v-.1l-.7-3.5-.6-3.3-.1-.7 1.4.8a34 34 0 0 0 6.9 3.2 76.2 76.2 0 0 1 6 2l2.2.5 7.2 1.8c4 .9 14.3 2.4 20.8 3l1.8.2.6-1.3c.3-.7.5-1.7.5-2.2a105.7 105.7 0 0 0-1.3-12.6 44.5 44.5 0 0 1-.8-7.2c-.2-3.1-1-9.4-1.5-12.7l-.5-5a554.7 554.7 0 0 1-3-28.5 12.4 12.4 0 0 1-.3-2.4l-.4-3.8a86.9 86.9 0 0 1-.5-4.8 62 62 0 0 0-.6-4.5 48 48 0 0 1-.4-4 70 70 0 0 0-.6-6.5c.1-.2 4.8.2 9.7.8a137.8 137.8 0 0 0 16 1.2 468.9 468.9 0 0 0 48.5-.4 254.8 254.8 0 0 0 20.8-2c.7.1.8.3.4 3a54.1 54.1 0 0 0-.4 3.7c0 1-.3 3-.5 4.3a71 71 0 0 0-.6 4.4 129.5 129.5 0 0 1-.5 5c-.3 1.6-.4 3.1-.3 3.3a7 7 0 0 1-.2 2 319.1 319.1 0 0 1-1.6 14.2 400.4 400.4 0 0 1-.8 7.6l-.7 6-1.3 11.5a206.6 206.6 0 0 0-.8 7.7 53.4 53.4 0 0 1-.8 7.1l-.4 3.9c-.4 2.6-.8 6.4-.7 7.3a10 10 0 0 0 1 4c.5.4.8.4 2 .3a392.2 392.2 0 0 1 9.5-1.4 477 477 0 0 1 9.6-1.8 75.3 75.3 0 0 1 6-1.6c.7-.3 1.6-.5 1.9-.5l1.3-.4 3.6-1.2c2.7-.9 3.8-1.3 7.3-3.3 1.6-.8 1.8-.9 1.6-.4l-1.1 6.6-.3 1.6a23.4 23.4 0 0 1 3.7.3l1.3-7.7a200.5 200.5 0 0 1 2.1-12.2l.4-2.4a125.1 125.1 0 0 0 2.2-12.4l.3-2a101.6 101.6 0 0 1 2-11 38.7 38.7 0 0 1 .4-2.9 78.6 78.6 0 0 0 1.2-7.4 373.4 373.4 0 0 0 2-11 44.5 44.5 0 0 1 1-6 261.2 261.2 0 0 1 1.9-11 203 203 0 0 1 2.4-13.4 238 238 0 0 1 1.7-10.6c.4-1.9.6-2.3 1.6-3.6a9 9 0 0 0 2.4-4.3c.1-1 0-1.2-.3-1.4-.4-.2-.4-.3.1-1.6.6-1.4.8-4 .7-8.1zM112.2 79c-4.3 0-8.6 0-10 .3a38.2 38.2 0 0 0-11.7 4l-5.4 2.5c-2.6 1.1-3 1.2-5.6 1.3-3 .2-3.7.5-3.7 1.5 0 1.1 2.5 3.7 4.3 4.4l.8.5-1.7 1.1a7 7 0 0 1-3.8 1c-1.2 0-2.3 0-2.4.2-.2 0-.3.5-.3.9 0 .5.3 1 1.5 2.2 1.3 1.3 1.7 1.5 3.2 1.8l1.6.5-.7 1a188.8 188.8 0 0 0-5.4 13.7l.6.8.6.6-.6 2.2a161.9 161.9 0 0 0-1 3.7 46.5 46.5 0 0 1-.8 2.6c-.8 2.6-.4 3.4 2 3.3a21 21 0 0 1 6.8 1.6c.3.1 1.2 1 2 1.7 1.4 1.2 1.5 1.5 1.2 1.8-.8 1-1.8 3-1.8 3.7 0 .4.4 1.4.9 2.3l4.8 8.3 1 1.7-.6.8c-1 1.7-3.3 10.2-3.1 11.7.1 1.3 1.6 1.9 4.3 1.9 2 0 2.3-.2 3.7-1l1.8-.7a10.8 10.8 0 0 1 2 6.4c0 2.3.1 2.6 2 4.7.5.7 1 1.5 1 1.8 0 .6 1.2 4.1 1.7 5 .2.2.5 1.2.7 2 .5 1.8 1.8 4.4 2.3 4.8.5.2.7.1 2.2-.6l1.3 2.2c.6 1.3 1.4 2.4 1.6 2.7.8.5 1.9.4 2.5-.1l1.7-2.6 1.1-2.2c.1 0 .4 0 .8.3 1.4 1 2.1 0 3.8-4.6a90.2 90.2 0 0 1 1.5-4c.5-1.2 1-2.5 1-2.8 0-.4.4-1.2 1-1.9 1.8-2.1 1.9-2.4 2-4.7 0-1.6.1-2.5.8-4.2.4-1.1 1-2 1.1-2.2.2 0 .8.2 1.3.5 1.9 1.2 5 1.6 6.8 1 1.3-.5 1.8-1 1.8-2 0-1.6-2-9-3-10.7l-.7-1.6.7-1.2a71.6 71.6 0 0 0 5.2-9c.8-1.5.9-2.3.3-3.6-.5-1-.5-1 .2-2 1.9-2.6 3-3.2 6-3.4l2.3-.2.6-1.2c.5-1 .7-2 .9-5.2l.3-5c0-.7.2-1 .7-1.3 1-.5 1-1 .6-3-.8-4-2.6-8.7-5.4-14.5-4.3-8.6-5.3-10-11.8-15.9-3.3-3-5.6-4.3-8.6-4.8l-3.4-.6a75 75 0 0 0-9.4-.2zm3.6 2.7c3.6 0 4.5.1 6.9.6 1.8.4 3.6.6 4 .5 1-.2 1.9.4 5.7 4 5.1 4.7 6 5.7 8.7 10.7a70.3 70.3 0 0 1 6.8 16.2l.4 1.6-.8.7c-.7.7-.8.9-.8 2.8 0 2.1-.3 6.5-.6 8.4-.2 1-.3 1-.9.9-1-.3-3.4.3-4.7 1.3-1.8 1.2-2 1.2-2 1l.2-.5c.2 0 .8-1.4 1.4-3a146 146 0 0 1 1.5-4c.2-.5.4-1.7.4-3.2 0-2-.2-3.2-1-6.3a34.2 34.2 0 0 0-5.2-11.8c-1.6-2.6-2.4-3.3-6.1-5.3-3.6-2-6.5-2-10.7-.4a10 10 0 0 0-5.3 4 56.3 56.3 0 0 1-1.6 2c-.5.7-.4.7-3.4 0-.1 0-1-1-1.8-2.1-1.5-2.1-4-4.4-5.7-5.1a72.5 72.5 0 0 1-2-1c-1.6-.8-4.2-1-7-.7-2.5.3-4.3 1-5.8 2.1-1.3 1-4.4 2.6-5.4 2.8h-1.3c-.5-.3 0-.6 2.8-2 1.7-.9 3.6-2.4 3.7-2.9 0-1.3-.5-1.8-1.8-1.8-.4 0-1.4-.3-2-.6-1.4-.5-1.4-.5-.6-.6l2.9-1 2.8-1.2c.3 0 2.4-1 4.5-2.1a33.5 33.5 0 0 1 19-4h4.8zm-21.2 14c3.5 0 7.5 2 10 5.4 2.5 3.4 2.8 3.6 4.2 3.7l2.3.3c.9.1 1.1 0 1.8-.6l2-2.6a10 10 0 0 1 6.7-4.4c3-.7 3.9-.6 7 1 2.9 1.3 3.7 2 5.4 5 2 3 4.5 9.3 4.5 10.7 0 .5 0 .5-.8-.1-1-1-2.3-1.1-3.9-.6l-2.5.5a60.7 60.7 0 0 0-11.3 4.6c-1.3 1-1.6 1-2.2.3-.3-.3-1.2-.7-2-1a19 19 0 0 1-1.5-.4l-.5-1.6c-.5-1.8-.8-2.3-1.6-2.3-1 0-1.3.7-1 2.6.5 2.5.8 3 2.6 3.8l2 .9c.5.1.7.7.3.7l-1.4-.4a18.2 18.2 0 0 0-9.3.4c-.4 0-.2-.6.3-.7a9.8 9.8 0 0 0 3.6-2c.7-.7 1.4-4 1-4.7-.4-.6-1.4-.7-1.9-.2-.1.2-.5 1-.7 1.9l-.4 1.6-1.6.5c-.8.2-1.7.6-2 1-.6.6-.8.6-2.3-.4a15 15 0 0 0-2.8-1.5l-2.5-1a25.4 25.4 0 0 0-5.9-2 18.5 18.5 0 0 1-2.5-.6 4.1 4.1 0 0 0-3.8.4l-.7.4 1-3.3a31.1 31.1 0 0 1 4.8-10.2c.5-1.2 2.7-4.3 3.3-4.6.3-.2 1.3-.4 2.3-.4zm-7.4 2.9-.7 1.2-1.5 2.7c-2 3.4-2.7 5.5-4 10.9-.9 3.3-1 4.2-1 7 0 3.5.2 4.2.9 5.7l.6 1.5c.2.7 0 .7-1 .2a7 7 0 0 0-1.9-.5 11 11 0 0 1-2.2-.6l-1.4-.4c-.3 0-.5 0-.5-.2l1-4 1.5-5.4c.4-1.7.3-1.9 0-2.6-.5-.7-.5-.8 0-2l1.5-4c1-3 2.4-5.6 3.5-6.6.3-.3 1.6-1 2.9-1.7zm34.9 8.5c-.4 0-1 .1-2 .5a16 16 0 0 0-5.4 2.8c-.5.5-.6.7-.3 1.3.4.8.6.8 2.2-.2 1.5-1 2-1.1 4.5-2 1.8-.6 2.4-1.1 2-1.9a1 1 0 0 0-1-.5zm-24.6 1c-1.1 0-1.8.3-1.8 1s.4 1 2.4 1.3a18 18 0 0 1 5.8 2c1.3.8 1.8.9 2.3.4.9-.9 0-2-2.4-3a17.4 17.4 0 0 0-6.3-1.7zm37.9 8 1 .8c1 .8 1.4.9 2.1.4.5-.2.5 0 .7.8.2 1-.4 4.5-1 6.3-.2.5-.6 1-.8 1.1-.2 0-1.7-1-3.2-2.2a16.7 16.7 0 0 0-4-2.6c-1-.3-4.9-1-6-1l1.4-.7c2-.9 5.8-2.1 8-2.6zm-48.9.2 1 .1c1.8.2 6.4 1.6 8.3 2.6l1.3.7-.9.1-2.2.3c-2.4.3-4 1-6 2.7l-2.8 2.2c-1 .6-1.4.7-1.6.2-.7-2.1-1-3-1-5.3l-.2-2.5 1 .1c.8.2 1 0 1.7-.5.5-.6.7-.7 1.4-.7zm36 6c2.1 0 4.7.3 6.4.7 1 .3 1.8.9 3 1.9.9.8 1.6 1.6 1.6 1.8 0 .2-.5 1-1.2 1.7l-1.3 1.9c-.1.4-.5.4-3.1.4-3.6 0-6.2-.5-7.6-1.6-.9-.8-1-1-1.4-3.3l-.5-3c0-.4 1.8-.6 4-.5zm-24.2 0c1.4 0 3 0 3.6.2l1 .2-.2 1.4c-.5 4.3-.7 4.7-2.7 5.4l-1.7.7c-.6.3-2 .5-4.1.5l-3.3.1-.4-.7a16 16 0 0 0-1.4-2l-1.1-1.5a9 9 0 0 1 3-2.5c1.8-1.1 4.6-1.8 7.3-1.8zm12.5 2.9c1.7 0 1.8 0 3.6 1.2l2 1.3c.3 0 .5.4.7 1 .6 1.6 2.5 3.2 4.6 4 1 .3 2.3.5 2.8.5l2.6.3c1 .2 2.4.2 3.2.1 1.5-.2 1.2 0 4.1-4 1-1.3 1.6-1.7 1.8-1.2.1.1-.2 1.2-.6 2.4-.9 2.6-1 3.5-.4 4s1.7 2.8 1.7 3.3c0 .3-.3.9-.6 1.4l-1.6 2.3-3.5 5.7-.8-.5a33 33 0 0 0-6.6-3c-1.6-.6-2-.8-1.4-1.1.1-.1.3-.7.3-1.4 0-1-.2-1.3-1-2.2-1.9-2-4-2.7-4-1.1 0 .5.3 1.1 1.3 2l1.3 1.4-1.7 1.7c-2 2-2.8 2.6-5.4 3.4-2.3.7-2.7.7-4.9 0-2.5-.8-3.6-1.5-5.4-3.4l-1.6-1.7 1.3-1.4c.9-.9 1.3-1.5 1.3-2 0-1.5-2.2-1-4 1-.9 1-1 1.4-1 2.2 0 .6 0 1.3.2 1.6.2.4 0 .5-1.4.9a27.8 27.8 0 0 0-7.4 3.6c-.1 0-1.1-1.6-3.5-5.7l-1.6-2.3c-.3-.5-.6-1-.6-1.3a7 7 0 0 1 1.5-3.2c.8-.7.7-1.5-.2-4.2a10 10 0 0 1-.6-2.4c.3-.6 1.3.3 3.3 3.5l1 1.4c1.1.7 6.9.3 10.2-.7a7 7 0 0 0 3.2-1.9c.8-.8 1.4-1.6 1.5-2.2 0-.4.3-.8.5-.8s1.1-.6 2.1-1.3c1.8-1.2 2-1.2 3.7-1.2zm-3.3 3.5c-.3 0-.5.2-.7.4-.6.7-.3 12.3.3 13.4.1.3.5.5 1 .5 1.3 0 1.3 0 .8-8.7-.2-3.7-.3-4.6-.7-5-.3-.4-.5-.5-.7-.6zm6.3.1c-.6.1-1 1-1 2.7a43 43 0 0 0-.5 11c.4.7 1.8.7 2.2 0 .2-.4.3-3 .4-6.9l.2-6.3-.6-.3a1 1 0 0 0-.7-.2zm6.5 17.2a22 22 0 0 1 8.1 3.3c.6.5 1.5 1.6 2 2.4l1.1 1.9.7 1.5c0 .5.5 2.2.9 3.8.6 2.2.6 2.8.4 3-.5.3-1 .2-3-.5-2.6-.9-4.8-2.5-5.7-4.4-.8-1.5-3.7-3.4-7-4.5-2.5-.8-4-.6-6 .8l-1 .6-.7-.5c-2-2-5.7-1.8-9.9.6-2.6 1.4-3.1 1.9-3.7 3.1-.9 2-2.7 3.2-5.6 4.2-2 .6-2.9.6-2.9.2l.8-3.1.8-3.2c0-.8 2.7-5 3.6-5.8a26 26 0 0 1 6.7-3c1.4-.5 1.5-.5 2.1.1 2.7 2.5 8.1 4 11 3.1a16 16 0 0 0 6.3-3.1c.3-.3.5-.5.8-.5h.3zm-14.2 8.7a9 9 0 0 1 2.5.6c1.8.8 2.6.8 4.3 0 1.8-1 3.2-.9 5.6.3a9 9 0 0 1 2.7 1.7c1.3 1.2 2.8 3.5 2.7 4l-1 2.6-1 4.3a8 8 0 0 1-.4 2.4c-.3.4-.5.3-1.9-1.6l-4.2-5.4c-.9-.8-.9-1.1.1-1.5 1-.4 1.3-1.4.8-2-.4-.5-.7-.5-2.9.3-2 .8-3.7.7-5.8 0-1.9-.9-2.5-.7-2.5.4 0 .4.2.8.8 1.1 1 .6 1 1 .4 1.5-.6.4-2.7 3-4.5 5.7l-1.5 2c-.3 0-.6-1.2-.8-3 0-1.2-.5-3-1-4.6l-1-2.6.8-1 1.2-1.8a11 11 0 0 1 6.6-3.4zm5.5 8.8c.7 0 .8.2 1.4 1.2a35.2 35.2 0 0 1 4.8 6.5c1 1.4 1.2 2 1.3 3.5.2 1.7.1 1.9-.7 3.6a50.3 50.3 0 0 0-1.7 3.8c-.7 1.8-.8 1.9-1.5 1.7-1-.2-1.8.4-3.1 2.7l-1.3 2-1.1-1.7c-1.1-2.1-2.4-3.3-3.5-3.3-.4 0-.7-.1-.7-.4 0-.4-1-2.9-2-4.7-.6-1-.7-1.6-.7-3.4 0-2 0-2.2 1-3.7 1.6-2.4 2.4-3.6 3.9-5.2l1.5-2c.2-.5.5-.6 1.6-.6a9 9 0 0 1 .8 0z"/><path fill="#595e64" d="m162.1 72.3-3.7 1v.6a54.1 54.1 0 0 0-.4 3.7c0 1-.3 3-.5 4.3a71 71 0 0 0-.6 4.4 129.5 129.5 0 0 1-.5 5 19 19 0 0 0-.3 3.3 7 7 0 0 1-.2 2 300.8 300.8 0 0 1-1.6 14.2 400.4 400.4 0 0 1-.8 7.6l-.7 6-1.3 11.5a206.6 206.6 0 0 0-.8 7.7 53.3 53.3 0 0 1-.8 7.1l-.4 3.9c-.4 2.6-.8 6.4-.7 7.3a10 10 0 0 0 1 4c.5.4.8.4 2 .3a368.7 368.7 0 0 1 7.5-1 21.1 21.1 0 0 1-.8-1.1 51.9 51.9 0 0 1-1.3-2.3l-4 .7c-1 0-1.1-.2-.5-3.8l.4-3.9.4-3.8v-.5a29.9 29.9 0 0 1 0-3.3l.5-5.8.1-.8.1-1.8v-.6 1a47.4 47.4 0 0 0 .2 4.2l1-9.3a46 46 0 0 1-.4-10 262.5 262.5 0 0 1 .9-14.2c.2-2.2.4-4.4.8-6.5.4-2.8 1-5.5 1.6-8.1.6-2.4 1.2-4.8 1.6-7.3a60.5 60.5 0 0 1 1.9-12.8l.3-2.9zm-39.8 7-11.1.2h-11a52.4 52.4 0 0 0-9.7 3.7l-5.4 2.5c-2.6 1.1-3 1.2-5.6 1.3-3 .2-3.7.5-3.7 1.5 0 1.1 2.5 3.7 4.3 4.4l.8.5-1.7 1.1a7 7 0 0 1-3.8 1c-1.2 0-2.3 0-2.4.2-.2 0-.3.5-.3.9 0 .5.3 1 1.5 2.2 1.3 1.3 1.7 1.5 3.2 1.8l1.6.5-.7 1a188.8 188.8 0 0 0-5.4 13.7l.6.8.6.6-.6 2.2a161.9 161.9 0 0 0-1 3.7 47 47 0 0 1-.6 2.2l.1 3.5 1.6.2a21 21 0 0 1 6.9 1.6c.3.1 1.2 1 2 1.7 1.4 1.2 1.5 1.5 1.2 1.8-.8 1-1.8 3-1.8 3.7 0 .4.4 1.4.9 2.3l4.8 8.3 1 1.7-.6.8c-1 1.7-3.3 10.2-3.1 11.7.1 1.3 1.6 1.9 4.3 1.9 2 0 2.3-.2 3.7-1l1.8-.7a10.8 10.8 0 0 1 2 6.4c0 2.3.1 2.6 2 4.7.5.7 1 1.5 1 1.8 0 .6 1.2 4.1 1.7 5 .2.2.5 1.2.7 2 .5 1.8 1.8 4.4 2.3 4.8.5.2.7.1 2.2-.6l1.3 2.2c.6 1.3 1.4 2.4 1.6 2.7.8.5 1.9.4 2.5-.1l1.7-2.6 1.1-2.2c.1 0 .4 0 .8.3 1.4 1 2.1 0 3.8-4.6a90.2 90.2 0 0 1 1.5-4c.5-1.2 1-2.5 1-2.8 0-.4.4-1.2 1-1.9 1.8-2.1 1.9-2.4 2-4.7 0-1.6.1-2.5.8-4.2.4-1.1 1-2 1.1-2.2.2 0 .8.2 1.3.5 1.9 1.2 5 1.6 6.8 1 1.3-.5 1.8-1 1.8-2 0-1.6-2-9-3-10.7l-.7-1.6.7-1.2a71.6 71.6 0 0 0 5.2-9c.8-1.5.9-2.3.3-3.6-.5-1-.5-1 .2-2 1.9-2.6 3-3.2 6-3.4l2.3-.2.6-1.2c.5-1 .7-2 .9-5.2l.3-5c0-.7.2-1 .7-1.3 1-.5 1-1 .6-3-.8-4-2.6-8.7-5.4-14.5-4.3-8.6-5.3-10-11.8-15.8-3.3-3-5.6-4.4-8.6-4.9l-2.7-.5zm-6.5 2.3c3.6 0 4.5.1 6.9.6 1.8.4 3.6.6 4 .5 1-.2 1.9.4 5.7 4 5.1 4.7 6 5.7 8.7 10.7a70.3 70.3 0 0 1 6.8 16.2l.4 1.6-.8.7c-.7.7-.8.9-.8 2.8 0 2.1-.3 6.5-.6 8.4-.2 1-.3 1-.9.9-1-.3-3.4.3-4.7 1.3-1.8 1.2-2 1.2-2 1l.2-.5c.2 0 .8-1.4 1.4-3a146 146 0 0 1 1.5-4c.2-.5.4-1.7.4-3.2 0-2-.2-3.2-1-6.3a34.2 34.2 0 0 0-5.2-11.8c-1.6-2.6-2.4-3.3-6.1-5.3-3.6-2-6.5-2-10.7-.4a10 10 0 0 0-5.3 4 56.3 56.3 0 0 1-1.6 2c-.5.7-.4.7-3.4 0-.1 0-1-1-1.8-2.1-1.5-2.1-4-4.4-5.7-5.1a72.5 72.5 0 0 1-2-1c-1.6-.8-4.2-1-7-.7-2.5.3-4.3 1-5.8 2.1-1.3 1-4.4 2.6-5.4 2.8h-1.3c-.5-.3 0-.6 2.8-2 1.7-.9 3.6-2.4 3.7-2.9 0-1.3-.5-1.8-1.8-1.8-.4 0-1.4-.3-2-.6-1.4-.5-1.4-.5-.6-.6l2.9-1 2.8-1.2c.3 0 2.4-1 4.5-2.1a33.5 33.5 0 0 1 19-4h4.8zm-21.2 14c3.5 0 7.5 2 10 5.4 2.5 3.4 2.8 3.6 4.2 3.7l2.3.3c.9.1 1.1 0 1.8-.6l2-2.6c1.6-2.3 3.5-3.6 6.7-4.4 3-.7 3.9-.6 7 1 2.9 1.3 3.7 2 5.4 5 2 3 4.5 9.3 4.5 10.7 0 .5 0 .5-.8-.1-1-1-2.3-1.1-3.9-.6l-2.5.5a60.7 60.7 0 0 0-11.3 4.6c-1.3 1-1.6 1-2.2.3-.3-.3-1.2-.7-2-1a19 19 0 0 1-1.5-.4l-.5-1.6c-.5-1.8-.8-2.3-1.6-2.3-1 0-1.3.7-1 2.6.5 2.5.8 3 2.6 3.8l2 .9c.5.1.7.7.3.7l-1.4-.4a18.2 18.2 0 0 0-9.3.4c-.4 0-.2-.6.3-.7a9.8 9.8 0 0 0 3.6-2c.7-.7 1.4-4 1-4.7-.4-.6-1.4-.7-1.9-.2-.1.2-.5 1-.7 1.9l-.4 1.6-1.6.5c-.8.2-1.7.6-2 1-.6.6-.8.6-2.3-.4a15 15 0 0 0-2.8-1.5l-2.5-1a25.4 25.4 0 0 0-5.9-2 18.5 18.5 0 0 1-2.5-.6 4.1 4.1 0 0 0-3.8.4l-.7.4 1-3.3a31.1 31.1 0 0 1 4.8-10.2c.5-1.1 2.7-4.3 3.3-4.6.3-.2 1.3-.4 2.3-.4zm-7.4 2.9-.7 1.2-1.5 2.7c-2 3.4-2.7 5.5-4 10.9-.9 3.3-1 4.2-1 7 0 3.5.2 4.2.9 5.7l.6 1.5c.2.7 0 .7-1 .2a7 7 0 0 0-1.9-.5 11 11 0 0 1-2.2-.6l-1.4-.4c-.3 0-.5 0-.5-.2l1-4 1.5-5.4c.4-1.7.3-1.9 0-2.6-.5-.7-.5-.8 0-2l1.5-4c1-3 2.4-5.6 3.5-6.6.3-.3 1.6-1 2.9-1.7zm34.9 8.5c-.4 0-1 .1-2 .5a16 16 0 0 0-5.4 2.8c-.5.5-.6.7-.3 1.3.4.8.6.8 2.2-.2 1.5-1 2-1.1 4.5-2 1.8-.6 2.4-1.1 2-1.9a1 1 0 0 0-1-.5zm-24.6 1c-1.1 0-1.8.3-1.8 1s.4 1 2.4 1.3a18 18 0 0 1 5.8 2c1.3.8 1.8.9 2.3.4.9-.9 0-2-2.4-3a17.4 17.4 0 0 0-6.3-1.7zm37.9 8 1 .8c1 .8 1.4.9 2.1.5.5-.3.5-.2.7.7.2 1-.4 4.5-1 6.3-.2.5-.6 1-.8 1.1-.2 0-1.7-1-3.2-2.2a16.7 16.7 0 0 0-4-2.6c-1-.3-4.9-1-6-1l1.4-.7c2-.9 5.8-2.1 8-2.6zm-48.9.2 1 .1c1.8.2 6.4 1.6 8.3 2.6l1.3.7-.9.1-2.2.3c-2.4.3-4 1-6 2.7l-2.8 2.2c-1 .6-1.4.7-1.6.2-.7-2.1-1-3-1-5.3l-.2-2.5 1 .1c.8.2 1 0 1.7-.5.5-.6.7-.7 1.4-.7zm36 6c2.1 0 4.7.3 6.4.7 1 .3 1.8.9 3 1.9.9.8 1.6 1.6 1.6 1.8 0 .2-.5 1-1.2 1.7l-1.3 1.9c-.1.4-.5.4-3.1.4-3.6 0-6.2-.5-7.6-1.6-.9-.8-1-1-1.4-3.3l-.5-3c0-.4 1.8-.6 4-.5zm-24.2 0c1.4 0 3 0 3.6.2l1 .2-.2 1.4c-.5 4.3-.7 4.7-2.7 5.4l-1.7.7c-.6.3-2 .5-4.1.5l-3.3.1-.4-.7a16 16 0 0 0-1.4-2l-1.1-1.5a9 9 0 0 1 3-2.5c1.8-1.1 4.6-1.8 7.3-1.8zm12.5 2.9c1.7 0 1.8 0 3.6 1.2l2 1.3c.3 0 .5.4.7 1 .6 1.6 2.5 3.2 4.6 4 1 .3 2.3.5 2.8.5l2.6.3c1 .2 2.4.2 3.2.1 1.5-.2 1.2 0 4.1-4 1-1.3 1.6-1.7 1.8-1.2.1.1-.2 1.2-.6 2.4-.9 2.6-1 3.5-.4 4s1.7 2.8 1.7 3.3c0 .3-.3.9-.6 1.4l-1.6 2.3-3.5 5.7-.8-.5a33 33 0 0 0-6.6-3c-1.6-.6-2-.8-1.4-1.1.1-.1.3-.7.3-1.4 0-1-.2-1.3-1-2.2-1.9-2-4-2.6-4-1.1 0 .5.3 1.1 1.3 2l1.3 1.4-1.7 1.7c-2 2-2.8 2.6-5.4 3.4-2.3.7-2.7.7-4.9 0-2.5-.8-3.6-1.5-5.4-3.4l-1.6-1.7 1.3-1.4c.9-.9 1.3-1.5 1.3-2 0-1.5-2.2-1-4 1-.9 1-1 1.4-1 2.2 0 .6 0 1.3.2 1.6.2.4 0 .5-1.4.9a27.8 27.8 0 0 0-7.4 3.6c-.1 0-1.1-1.6-3.5-5.7l-1.6-2.3c-.3-.5-.6-1-.6-1.3a7 7 0 0 1 1.5-3.2c.8-.7.7-1.5-.2-4.2a10 10 0 0 1-.6-2.4c.3-.6 1.3.3 3.3 3.5l1 1.4c1.1.7 6.9.3 10.2-.7a7 7 0 0 0 3.2-1.9c.8-.8 1.4-1.6 1.5-2.2 0-.4.3-.8.5-.8s1.1-.6 2.1-1.3c1.8-1.2 2-1.2 3.7-1.2zm-3.3 3.5c-.3 0-.5.2-.7.4-.6.7-.3 12.3.3 13.4.1.3.5.5 1 .5 1.3 0 1.3 0 .8-8.7-.2-3.7-.3-4.6-.7-5-.3-.4-.5-.5-.7-.6zm6.3.1c-.6.1-1 1-1 2.7a43 43 0 0 0-.5 11c.4.7 1.8.7 2.2 0 .2-.4.3-3 .4-6.9l.2-6.3-.6-.3a1 1 0 0 0-.7-.2zm6.5 17.2a22 22 0 0 1 8.1 3.3c.6.5 1.5 1.6 2 2.4l1.1 1.9.7 1.5c0 .5.5 2.2.9 3.8.6 2.2.6 2.8.4 3-.5.3-1 .2-3-.5-2.6-.9-4.8-2.5-5.7-4.4-.8-1.5-3.7-3.4-7-4.5-2.5-.8-4-.6-6 .8l-1 .6-.7-.5c-2-2-5.7-1.8-9.9.6-2.6 1.4-3.1 1.9-3.7 3.1-.9 2-2.7 3.2-5.6 4.2-2 .6-2.9.6-2.9.2l.8-3.1.8-3.2c0-.8 2.7-5 3.6-5.8a26 26 0 0 1 6.7-3c1.4-.5 1.5-.5 2.1.1 2.7 2.5 8.1 4 11 3.1a16 16 0 0 0 6.3-3.1c.3-.3.5-.5.8-.5h.3zm-14.2 8.7a9 9 0 0 1 2.5.6c1.8.8 2.6.8 4.3 0 1.8-1 3.2-.9 5.6.3a9 9 0 0 1 2.7 1.7c1.3 1.2 2.8 3.5 2.7 4l-1 2.6-1 4.3a8 8 0 0 1-.4 2.4c-.3.4-.5.3-1.9-1.6l-4.2-5.4c-.9-.8-.9-1.1.1-1.5 1-.4 1.3-1.4.8-2-.4-.5-.7-.5-2.9.3-2 .8-3.7.7-5.8 0-1.9-.9-2.5-.7-2.5.4 0 .4.2.8.8 1.1 1 .6 1 1 .4 1.5-.6.4-2.7 3-4.5 5.7l-1.5 2c-.3 0-.6-1.2-.8-3 0-1.2-.5-3-1-4.6l-1-2.6.8-1 1.2-1.8a11 11 0 0 1 6.6-3.4zm5.5 8.8c.7 0 .8.2 1.4 1.2a35.2 35.2 0 0 1 4.8 6.5c1 1.4 1.2 2 1.3 3.5.2 1.7.1 1.9-.7 3.6a50.3 50.3 0 0 0-1.7 3.8c-.7 1.8-.8 1.9-1.5 1.7-1-.2-1.8.4-3.1 2.7l-1.3 2-1.1-1.7c-1.1-2.1-2.4-3.3-3.5-3.3-.4 0-.7-.1-.7-.4 0-.4-1-2.9-2-4.7-.6-1-.7-1.6-.7-3.4 0-2 0-2.2 1-3.7 1.6-2.4 2.4-3.6 3.9-5.2l1.5-2c.2-.5.5-.6 1.6-.6a9 9 0 0 1 .8 0z"/><path fill="#020202" d="m99.1 225.4-13.4-.7a188.3 188.3 0 0 1-30.4-5.2 83 83 0 0 1-11.9-3.9 36.8 36.8 0 0 1-11-7.6c-1.6-2-2.2-3.5-2.6-6.2L29 197a448.3 448.3 0 0 1-.8-5l-.5-2.8a25.6 25.6 0 0 1-.4-2.2l-1.4-8a111.5 111.5 0 0 1-.6-3.5l-1.5-8.6a475 475 0 0 1-1.7-10.1l-1.3-7-.7-4a215.2 215.2 0 0 0-1-6.6L18 133a1120.4 1120.4 0 0 0-2.5-14.7 212.4 212.4 0 0 1-2.5-14.5 394.7 394.7 0 0 1-1.3-7.8 62.7 62.7 0 0 0-1.2-6.3c-.4-2.7-1-6.6-1.4-8.2a47.3 47.3 0 0 1-.5-3c-.2-1.6-.5-3.6-1.7-9.7A83.8 83.8 0 0 1 5.4 60l-.7-4.3c-.7-4.1-1-5-2.2-6.5C1.2 47.5.7 46.4.7 45.1a78.8 78.8 0 0 1-.3-14.8c.8-4.2 3.3-7.5 8.5-11.3.7-.5 1.9-1.3 2.6-1.6.7-.4 1.4-.8 1.5-1l2.7-1.3 3.9-1.7a71.5 71.5 0 0 1 12-4.1c.6-.3 3.7-1 5.7-1.4l1.8-.6 3.3-.8 4-.8c3.4-.7 7.4-1.5 9.2-1.7a860.8 860.8 0 0 0 8-1 273.5 273.5 0 0 1 16.6-1.8 31.6 31.6 0 0 0 2.6-.2l4.8-.3 8-.4a681 681 0 0 1 29.6.1A267.1 267.1 0 0 1 155 3c1 0 2 .2 2.4.3A56.2 56.2 0 0 1 168 4.9l3.8.7 3.8.8A78.6 78.6 0 0 1 186.4 9l2.7.7a91.2 91.2 0 0 1 17.7 7.4c4.7 2.5 9.1 6.8 10.4 10 1 2.5 1 3 1 8.8 0 4.7 0 5.4-.5 6.9-.5 1.4-.6 1.8-.3 2.3.6 1.2-.3 3.4-2.3 5.6-.8.9-1.4 2.7-1.7 5.2a47 47 0 0 1-.6 3.6 35.3 35.3 0 0 0-.6 3.5c0 1-.4 3-.7 4.3a99.8 99.8 0 0 0-.9 5 33 33 0 0 1-.6 3.4c-.2.4-.3 1.2-.3 1.7l-.4 2.7a152 152 0 0 0-1.8 10.6 182.4 182.4 0 0 1-1.9 10.6 1200.6 1200.6 0 0 0-7.7 44.8 141.7 141.7 0 0 1-1 5.4 120.9 120.9 0 0 0-.7 4.3 149.8 149.8 0 0 1-2.1 12.5l-.6 3.5-.5 2.6a141.8 141.8 0 0 1-1.8 10.9 37 37 0 0 1-1 5.8 436.6 436.6 0 0 1-.9 4.9l-.8 5.2c-.3 2.7-.8 4.1-2 6a18 18 0 0 1-6 5.3l-2.3 1.4-2.1 1-3.2 1.3a45.5 45.5 0 0 1-7.6 2.7 65.5 65.5 0 0 1-9.4 2.2 49 49 0 0 1-3.3.7 63 63 0 0 0-2.4.4 115 115 0 0 1-10 1.4c-8.3 1.4-30.5 2.3-41 1.7zm23.2-3.8a168.4 168.4 0 0 0 25.4-2.5 96.4 96.4 0 0 0 3.1-.5 90.4 90.4 0 0 0 17.5-4.5 42.7 42.7 0 0 0 11.6-5.5c2-1.4 3.6-3 4.1-4 .2-.3.4-1.3.6-2.2a138 138 0 0 1 1.4-8.3 207.3 207.3 0 0 1 1.7-10 81.7 81.7 0 0 0 1.8-10.2 984.3 984.3 0 0 0 3.2-18.7l-2.8 1.4a35.8 35.8 0 0 1-7.6 3.2l-2.2.7c-.4.2-1.1.4-1.5.4a74.7 74.7 0 0 1-27 5.1H150l-.5-1c-.4-.9-.5-1.5-.5-4.2 0-1.7.3-4.5.5-6.2.6-4.4 1.2-9.6 1.3-12.2l.9-7.4a356.3 356.3 0 0 0 1.9-17.5 273 273 0 0 0 1.6-15.2 76.8 76.8 0 0 1 1-7.8 751.6 751.6 0 0 0 1.7-15.1c.6-6 .8-8.2.5-8.5-.2-.2-.7-.2-2 0a235.4 235.4 0 0 1-29.1 2.6 474.5 474.5 0 0 1-49.4-1c-1.5 0-5-.3-10.1-1-1-.2-2.6-.3-3.5-.3h-1.5l.2 1.4a185.5 185.5 0 0 1 1 8.5l.4 4.3a216.8 216.8 0 0 0 1 9.1 60.3 60.3 0 0 1 1 7.5 192.4 192.4 0 0 0 .8 9.2 267.5 267.5 0 0 0 1.6 14.6 356.2 356.2 0 0 0 1.9 16.3l1.3 12.6c1 7.4 1.1 9.1.4 10.8-.7 1.4-.4 1.4-5 .8a162.6 162.6 0 0 1-32-6.4 33.8 33.8 0 0 1-7.1-3.1 12 12 0 0 0-2.7-1.3l.2 1.6a158 158 0 0 1 1.5 8.4c0 1.3.7 4.7 1.6 9.4a211.6 211.6 0 0 1 1.8 10.8l.4 2.3.3 1.8 1.2 6.8a40 40 0 0 0 1.6 7.6 16 16 0 0 0 4.5 4.8 81.3 81.3 0 0 0 31.8 10.1c.3.2 1 .3 1.6.3l3.4.4c2.4.4 5.2.7 11 1.2a134 134 0 0 0 16.5 1 107.3 107.3 0 0 0 19.2-.3zM109.9 192c-.5 0-2.2-2.7-2.5-3.8-.2-1.1-.8-1.4-1.6-1-.4.3-1 .4-1.2.3-.5 0-1.8-2.7-2.3-4.6-.2-.6-.6-1.7-1-2.3-.7-1.4-1.7-4.4-1.7-5.1 0-.3-.5-1.1-1.1-1.9-1.6-2-1.8-2.2-1.8-4.6 0-1.6-.1-2.4-.7-3.9-1-2.2-1.4-2.6-2.4-1.9a7 7 0 0 1-4.2 1.3c-2.2 0-4-.5-4.3-1.3-.4-1 1.4-9 2.8-11.7l.7-1.4-.6-1.1a34 34 0 0 0-1.3-2.2c-.4-.5-1-1.4-1.2-2l-1.1-2-1.5-2.5c-1.3-2-1.1-3 1-6.1.2-.4 0-.7-1.2-1.8l-2-1.7c-.8-.6-5.4-1.7-7-1.7-1.8 0-2.5-.5-2.3-1.6l2-7.8.7-2.2-.6-.7-.6-.8.8-2.1 1.4-3.9a601.7 601.7 0 0 0 1.5-4c.5-1.3 1.3-2.9 1.7-3.6.8-1.3.7-1.6-.7-1.6-1 0-2.2-.7-3.7-2.1-1.2-1.2-1.5-1.9-1-2.6.1-.2 1-.4 2.4-.4a8 8 0 0 0 3.1-.6 841.7 841.7 0 0 1 1.7-.8c1-.6 1-.9-.3-1.4-1.3-.5-4-3.3-4-4.1 0-1.2.7-1.4 3.9-1.6 3.2-.1 3.3-.1 10.8-3.7a37 37 0 0 1 21.3-4.5A45.2 45.2 0 0 1 126 80c1.6 0 4.6 1.9 7.8 4.9l3.3 2.8c.2 0 3.2 3.5 3.8 4.5a122.5 122.5 0 0 1 8.3 17c1 2.9 1.6 4.9 1.8 6.5.1 1.5.1 1.6-.7 2.1-.8.6-.8.7-1.2 8.5-.1 1.8-.6 3.4-1.3 4.1-.4.3-1 .4-2.4.4-2.6 0-3.6.6-5.3 2.6-1.3 1.8-1.4 2.1-.8 3.3.6 1 .3 2.3-1 4.1-1.3 2.1-5.2 9.1-5.2 9.4l.5 1c.6.9 1.1 2.4 2.3 6.9 1.3 5.3 1.3 5.4-1 6.2-1.6.6-4.6.1-6.6-1-.7-.4-1.5-.7-1.6-.5-.1 0-.6 1-1 2.2a8.7 8.7 0 0 0-.8 4c0 2.3-.2 2.7-1.7 4.5-.8 1-1.2 1.8-1.5 3.2l-1.3 3.3c-.4.8-1 2.2-1.2 3-.6 2.2-1.6 4.1-2.3 4.5-.4.2-.7.2-1.2-.2l-.7-.4-1.3 2.2c-1.5 2.8-2.2 3.3-3.7 3zm2-4.7c1.2-2.4 2.3-3.6 3.1-3.4l.9.2 1.2-2.6 1.6-3.7c.5-.9.6-1.3.4-3a6.7 6.7 0 0 0-1.2-3.9 28.4 28.4 0 0 0-3.8-5.1l-1.5-2c-.3-.5-.5-.6-1.8-.6-1.5 0-1.6 0-2 1a36 36 0 0 0-4.7 6.4l-1.5 2.2v2.2c0 1.8 0 2.3.7 3.7a47.3 47.3 0 0 1 1.5 3.4c.7 1.8.8 1.9 1.4 1.8 1-.2 1.9.5 3.2 3l1.4 2.1 1-1.7zm-10.2-18 2.4-3.2 2-2.4 1-1.2-1-.6c-.8-.3-1-.5-.9-1.1.2-1 .8-1 2.4-.3 1.8.7 4.4.7 6.4-.1 1.6-.7 2.2-.7 2.4 0 .2.6 0 1-1 1.7l-1 .5.9 1a123 123 0 0 1 4.7 6l1.2 1.7.4-.7a4 4 0 0 0 .5-2.2c0-1.6.4-3.2 1.4-5.8l.7-1.8-1.2-1.5-1.1-1.8a19 19 0 0 0-3.7-2.3c-2-1-3.2-1-5.2 0l-2.3.8a9 9 0 0 1-2.2-.9c-2-.9-2.8-.9-5.2.2a9.4 9.4 0 0 0-4.3 3.2c-1.7 2.3-1.6 2.2-.7 5 .5 1.4 1 3.2 1 4.4.1 1.7.6 3.4 1 3.4l1.4-2zM91 161.5c2.7-.8 5.2-2.6 5.7-4 .4-1.5 4.2-4 7.4-5 2-.6 3.9-.4 5.5.7 1.2.8 1.4.8 2.7 0 1.3-1 3.7-1.2 5.6-.5 3.2 1 6.2 3 7 4.6.8 1.6 3.3 3.5 5.5 4.2 1 .3 2.2.6 2.7.6 1 0 1-.3 0-4.5-.8-3.1-1.1-3.8-2.7-6.2a3 3 0 0 1-.5-1c0-.9-4.8-3.5-8-4.3l-1.8-.5-1 1a14.5 14.5 0 0 1-8.2 3.1c-2.5 0-6.2-1.4-8.2-3-.9-.8-1.3-1-1.8-.9l-1.7.5c-1.6.5-5.5 2.4-6.4 3.1-.7.6-3.4 5.2-3.4 5.7l-.8 3.3-.7 3.3c.2.5 1 .5 3-.2zm.3-14.4a33 33 0 0 1 6.6-3.2c1.3-.3 1.6-.5 1.4-.9l-.3-1.4c-.1-1 0-1.1 1.3-2.4 1.4-1.4 2.5-2 3.3-1.6.7.2.4 1-1 2.4l-1.3 1.5c0 .5 3.4 3.9 4.3 4.3a17 17 0 0 0 5.2 1.4 13 13 0 0 0 5.6-1.7c1-.6 4-3.5 4-4L119 140c-1.4-1.3-1.7-2.2-1-2.4.8-.3 1.8.1 3 1.4 1.5 1.3 1.9 2.3 1.4 3.6-.3.9-.2 1 1.4 1.5 1.5.4 5.6 2.3 6.6 3l.8.7.5-.6.5-.8c0-.2 1.3-2.3 3.8-6.2l1.2-2-.6-1.5c-.4-.8-1-1.8-1.3-2-.5-.6-.5-.7-.2-2l1-2.7c.5-1.5.5-1.6 0-1.8-.5-.3-1.3.5-3.2 3.4-.6.8-1.2 1.6-1.5 1.7-.6.2-3.7.2-6.1 0-4.3-.6-6.9-2-8-4.4a3 3 0 0 0-1.3-1.6 35.3 35.3 0 0 1-2-1.4c-1-.6-1.5-.8-3-.8-1.8-.1-2 0-3.3.8a44.4 44.4 0 0 1-2.2 1.4 2 2 0 0 0-1.1 1.3c-.4 1.3-2.5 3.2-4.4 3.8-2.5.9-8.6 1.4-10 .9l-1.4-1.7a47 47 0 0 0-1.8-2.5c-.8-1-1-1.1-1.5-.9-.5.3-.5.3 0 1.7a25.2 25.2 0 0 1 1.2 3.5c.2.3 0 .8-.6 1.5-.4.5-1 1.5-1.2 2.2l-.5 1.2 1 1.5c.7.8 1.3 2 1.6 2.4l1 1.5 1.2 2 1 1.9c.2.2.5 0 1.2-.5zm16.2-4.4a32 32 0 0 1-.8-9.9V129h.8c.5-.1.8 0 1 .4.4.8.9 12.7.5 13.1-.4.5-1.2.5-1.5 0zm5.2 0c-.3-.4-.3-1.8 0-6.6.2-3.4.4-6.4.6-6.6a1 1 0 0 1 1.5-.2c.6.8.2 12.5-.5 13.4a1 1 0 0 1-1.6 0zm-14-12.7c2.7-.8 3.5-1.6 4-4l.4-2.9v-.8l-2-.3c-3-.4-6.8 0-9.5 1.2-1 .4-3.9 2.8-3.9 3.2 0 .1.6 1 1.4 1.9.7.9 1.3 1.8 1.3 2 0 .5.4.5 3.5.4 2 0 3.5-.3 4.8-.7zm32.4.2c0-.2.5-.9 1-1.5 1.9-2.1 1.9-2.2.6-3.5-2.1-2.2-3.7-2.8-8.1-3.2h-4.2l-2 .2v1c0 1.3.8 4.8 1.1 5.2a8 8 0 0 0 3.1 1.8c1 .3 7.6.7 8.2.5a.5.5 0 0 0 .3-.5zm10.6-1.6a11 11 0 0 1 2.7-.6l1.7-.1.2-1.8.4-5.6c.2-3.2.3-4 .7-4.4.3-.3.6-.5.9-.5.4 0 .3-.8-1.2-5.2-2-6-7-15.8-9.7-19a85.3 85.3 0 0 0-8.3-8c-1.1-.8-1.4-1-2.2-.8-.6 0-1.6 0-2.3-.2-3.2-1-5.2-1-14.2-1l-8.8.2-3.3 1.1a62 62 0 0 0-6.6 2.8 47.5 47.5 0 0 1-9.6 4c-.7 0-1.2.3-1.2.5.2.4 2.5 1.2 3.5 1.2s1.5.4 1.5 1.4c0 .5-.3.9-1.7 1.7a49.5 49.5 0 0 1-5.5 3.3c0 .3 1.9.5 2.9.2s4.4-2.1 5.2-2.9c2.2-2 9.3-2.7 12.3-1.2l2.2 1c1.4.7 4 3 5.5 5.1 1.6 2.2 1.7 2.3 2.7 2.3.4 0 1 .1 1.4.3.6.3.8.3 1-.2.9-1.4 3.4-4.3 4.3-5a20 20 0 0 1 6.3-2.3c2.6-.5 4.3-.1 7 1.3 3.6 1.9 4.5 2.6 6.1 5 2.6 4 4 7.1 5.2 11.8 1.5 6 1.4 8.2-.3 12.2l-2.2 5.5c0 .1.5-.2 1.2-.8l2.2-1.3zM82 128c0-.3-.4-1.2-.8-1.9-.5-1-.7-2-1-4.6l-.2-3.3 1-4.1c1.4-6.2 2.6-9.2 5.9-14.5l1-2c0-.2-.6.2-1.1.6-.6.5-1.9 1.3-3 1.7-2.5 1.3-4 3.3-5.6 8a171.6 171.6 0 0 1-1.5 4.1c-.4 1.2-.4 1.3 0 2 .5 1 .3 2-1.4 8l-1 4c0 .2 3 1.2 4.6 1.4a8 8 0 0 1 2 .7c1.2.7 1.3.6 1.1 0zm3-2.9c.5-.3 1.9-1.3 3-2.3 2.4-2 3.6-2.5 7.1-2.8 1.1 0 2.1-.2 2.2-.3.5-.3-4-2-7.4-3-3-.9-3.7-.9-5 0-1 .7-1.2.8-1.7.6-.3-.2-.6-.3-.7-.2-.3.3 0 5 .4 6.4.5 1.5.8 2.2 1 2.2a3 3 0 0 0 1.1-.6zm53.4-1.1c.7-1.9 1.2-6.9.7-7.4-.2-.2-.3-.2-.3 0s-.3.5-.6.7c-.4.2-.7.1-1.7-.6s-1.3-.8-2.3-.6a40.5 40.5 0 0 0-10.5 3.5l2.9.5c3.4.3 4.8.9 7 2.8 2 1.7 3.6 2.8 4 2.7.2 0 .5-.8.8-1.6zm-31.2-3c1.7-.5 6-.4 7.6.2 1 .4 1.4.5 1.6.2.2-.4-.5-1-1.1-1-1 0-3.1-1.5-3.5-2.4-.5-1.2-.5-4 0-4.3.8-.4 1.5.5 1.9 2.1.3 1.6.5 1.9 1.9 2.1.6.1 1.3.5 1.8.8 1 .9 1.5.8 2.8-.1.5-.4 2.3-1.3 4-2l4.1-1.7c.7-.3 2-.7 3-.8l2.9-.6c1.6-.5 2.5-.2 3.8 1l.8.8-.1-1c-.4-2.3-2.4-7.2-4.2-10.3-2-3.5-2.7-4.2-5.8-5.8-2.3-1.1-3-1.3-4.2-1.3a13 13 0 0 0-8.3 3.1l-2 2.5c-1.5 2.3-2.3 2.8-3.5 2.4-.5-.2-1.4-.4-2-.4-1.1 0-2-.7-3.9-3.3a12.8 12.8 0 0 0-10-5.6c-2.3 0-3 .2-3.8 1.6a86.6 86.6 0 0 1-1.5 2.2l-.7 1.3a30.4 30.4 0 0 0-5 11.1 163 163 0 0 1-.7 2.7c-.2.4 0 .4.6-.3 1-1 2.7-1.1 4.5-.6a17.3 17.3 0 0 0 2.5.6c1.2.1 2.9.7 5.4 1.9a38.9 38.9 0 0 0 2.2.9c.9.3 2.1 1 2.8 1.4 1.6 1.1 2 1.2 3 .3.5-.3 1.3-.7 1.8-.8 1.4-.3 1.6-.5 2-2.1.3-1.7 1-2.5 1.7-2 .6.3.6 3.3 0 4.4-.4.8-1.8 1.6-4 2.5-.4.2-.6.4-.5.7.1.2.3.3.6.2l1.5-.5zm-3.5-9c-1.3-.7-3.7-1.5-5.7-1.8-2.2-.2-3-1-1.7-1.8 1-.6 3.1-.3 6.2.9 2.5 1 3.8 2 3.7 2.8-.1.8-1.2.8-2.5 0zm11-.2c-.5-.4-.2-1.4.5-1.9 1.8-1.3 6.4-3.1 7.2-2.8.6.2.9.9.5 1.3-.2.2-.7.5-1.3.7a28 28 0 0 0-5 2.2c-1 .7-1.6.8-2 .5zM69 161.4l-1-9.4a61.8 61.8 0 0 1-.3-4l-.3-2.4-.4-2.5-.5-4.6a218.9 218.9 0 0 1-1-10.8c-.2-.7-.6-3.9-.9-7a224 224 0 0 0-1.3-11.7 8043.4 8043.4 0 0 0-.5-4.7 512.3 512.3 0 0 1-1.1-10A612.8 612.8 0 0 1 60 78.2l-1-7.7c-1 0-6.7-1-8.1-1.3L45 68c-6-1-10.5-2.3-18-4.6a75.7 75.7 0 0 1-19-8.6l.4 2a135.6 135.6 0 0 1 2 11A330 330 0 0 0 13.1 84l.9 5a135.5 135.5 0 0 0 1.8 10.5l.5 3.5a159 159 0 0 1 1.4 7.4 209.2 209.2 0 0 0 2.8 16.4l1.6 9.5a98.1 98.1 0 0 0 2.6 13.3 17.5 17.5 0 0 0 8.2 5.5 48.1 48.1 0 0 1 4.6 1.8l2.5.7a96.5 96.5 0 0 0 14.7 3.3 287.3 287.3 0 0 0 13.7 2.1h.8l-.2-1.6zm87.4.6 5.2-1a217.5 217.5 0 0 0 17.2-3.8c.5 0 2.5-.8 6.8-2.6 4-1.7 7.1-4 7.9-5.9.1-.3.5-1.6.7-2.9l.7-4.2a367.4 367.4 0 0 0 1.9-10.9 438.2 438.2 0 0 0 3.7-21.4 130 130 0 0 0 1.6-9.5 105 105 0 0 0 2.2-12.8 377.2 377.2 0 0 0 1.9-10.6 372.8 372.8 0 0 0 3-17.6l.6-3c.2-.7-.2-.6-1.5.3a69.4 69.4 0 0 1-18.8 8 219.5 219.5 0 0 0-13.9 3.7A839.9 839.9 0 0 0 163 70c-.5.1-.6.4-.9 2.2a184.7 184.7 0 0 0-1 9.7l-.6 5.4A311 311 0 0 0 159 101l-.5 4.4a368.9 368.9 0 0 1-1.7 15.4l-.8 7a44 44 0 0 0-.4 3.3c-.5 6.8-.7 8-1.5 13.7a63 63 0 0 0-.4 4l-.3 3c-.2.6-.3 1.7-.3 2.6l-.4 4.1c-.6 3.8-.6 4 .5 4l3.3-.5zm-36-92.6a134.5 134.5 0 0 0 16-1 229.3 229.3 0 0 0 25.7-2.9 92.7 92.7 0 0 1 4.2-.6c2.1-.3 3.8-.6 6.3-1.2a726.3 726.3 0 0 1 9.5-2.3 187.6 187.6 0 0 1 3-.8c2.9-.8 13-4.4 14.7-5.3 4.4-2.4 5.6-3.1 7.4-4.3 2-1.3 4.4-3.7 5.6-5.5.6-.9 1.6-4.5 1.3-4.9l-2 1.6a52.5 52.5 0 0 1-19.3 10c-.3.3-1 .5-1.6.6l-2.5.7a89 89 0 0 1-11.2 3l-2.7.7a2087.4 2087.4 0 0 1-17.2 2.9 304.6 304.6 0 0 1-37.5 3 442.4 442.4 0 0 1-38-.6 347.7 347.7 0 0 0-5.7-.5l-5.6-.6a221.6 221.6 0 0 0-5.7-.6c-4.6-.5-12.2-1.6-14.9-2.3a92.2 92.2 0 0 0-4.5-1c-3.6-.6-11.6-2.4-13.4-3a131 131 0 0 0-2.6-.8A110 110 0 0 1 19 50a228 228 0 0 0-4.1-1.8 39 39 0 0 1-8.1-5 324.9 324.9 0 0 0-2-1.7l-.8-.7v.9c0 1.2.7 3.7 1.1 4.4.8 1.2 3 3.4 4.4 4.5A58.8 58.8 0 0 0 28 59.4l2.5.8 3.7 1c4.2 1.2 4.8 1.3 6.7 1.7a244 244 0 0 1 10.2 2l3.7.6c1 .2 2.5.5 3.5.5l2.9.5 5.3.6 6 .7a384.3 384.3 0 0 0 47.8 1.6zm10.2-11a85.5 85.5 0 0 1 10-.7 188.6 188.6 0 0 1 11.5-1.2l5.7-.8a126.2 126.2 0 0 0 5.2-.8 70.2 70.2 0 0 1 4.3-.6c1.8-.2 3-.4 7.4-1.5l3.4-.7a98.3 98.3 0 0 0 4.4-1.1l3.4-1c3.4-1 11.8-3.9 14-5 2-1 6.8-3.7 8.3-4.7 2.1-1.5 4.1-3.6 5-5.3 1.6-3.1.6-6.5-2.9-9.7a27.5 27.5 0 0 0-5-3.8 81.2 81.2 0 0 0-22-8.6 38 38 0 0 1-2.6-.8 41.6 41.6 0 0 1-5.6-1.1c-4.8-1.1-5.9-1.4-9.5-2a1075.6 1075.6 0 0 0-16.8-2.3l-2.5-.3a124 124 0 0 0-15.6-1.2 511 511 0 0 0-38.6-.3 196.5 196.5 0 0 0-18.8 1.4 74.2 74.2 0 0 0-12.1 1.4 104 104 0 0 0-14 2.2 50 50 0 0 0-7.3 1.7 137.1 137.1 0 0 0-19.5 6 48.4 48.4 0 0 0-9.6 5c-.5 0-4.6 3.9-5.4 5a8 8 0 0 0-1.2 5c.3 1.5 1.6 3.5 3.3 5.3 3.2 3.2 7.2 5.6 14.3 8.4a474.8 474.8 0 0 1 4.7 1.8 6 6 0 0 1 2 .7c.5.2 1.5.6 2.3.7l3.4 1a50.9 50.9 0 0 0 9.1 2.2A116.6 116.6 0 0 0 57 55.2a187 187 0 0 0 19.2 2.2l5.4.6a345.3 345.3 0 0 0 49.1.4z"/><path fill="#e9242b" d="m190 166.3-6.6 1.7v.7a.8.8 0 0 1 .7.4c.2.2.3.4.3.8l-.4 2-2.5 9.2-3.7-7.6-.6-1.7c-.1-.8.1-1.4.7-1.7v-.7l-6.4 1.6-7 1.2v.7c.6.1.8.4.9.8 0 .3-.2.7-.5 1.3l-6.5 11.8-.5-11 .1-1.1c.1-.3.3-.6.6-.8v-.7l-5.4 1v.7c.4 0 .6.2.7.4.2.3.2.6.3 1l1.3 26.9-.1 1.1c-.1.3-.3.5-.6.7v.8l5.3-1v-.7c-.3 0-.5-.2-.6-.5-.2-.2-.3-.6-.3-1l-.4-8.5 2.4-4.3 5.6 10.5.7 1.7c0 .4-.2.7-.7 1v.7l6.7-1.1v-.8a1.7 1.7 0 0 1-1-.6l-1.5-2.4-7.3-13.5 5.4-9.7.8-1.6 1-1.8.5-.4c.3 0 .6.3.8.6.3.3.7 1 1.3 2.2l6.5 12.9.8 10.7v1.2l-.7.7.1.8 5.3-1.4v-.7c-.3-.1-.6-.3-.7-.5l-.3-1-.8-10.8 4.5-15.7c.3-1.3.7-2.3.9-2.7.2-.5.5-.9.9-1zm-155.1 1v.7l.5.7c.1.3.2.7.1 1.1L34 196.6c0 .5-.1.8-.3 1a1 1 0 0 1-.6.5v.7l5.2 1.2v-.8a1.6 1.6 0 0 1-.5-.7 3 3 0 0 1-.1-1.1l.5-8.5 2.8-3.3 4.3 12.5a8 8 0 0 1 .5 1.8c0 .5-.3.7-.7.8v.7l6.6 1.4v-.7c-.4-.2-.7-.5-1-1a27 27 0 0 1-1-2.9l-5.7-16 6.3-7.4 1-1.3 1.2-1.4.7-.2v-.7l-7-1.5v.7c.5.3.7.7.7 1.1 0 .3-.2.7-.6 1l-7.6 9.2.6-11c0-.5.2-.9.3-1 .1-.3.3-.5.6-.6v-.7zm19.9 4v.8l.6.7v1.1l-1 26.8-.3 1.1c-.1.2-.3.4-.7.5v.8l15.5 2.3a.7.7 0 0 1 .6.4l.3 1.2h.4l.3-8.1-.4-.1a3 3 0 0 1-.4 1.1.6.6 0 0 1-.6.2l-11-1.6.4-8.7 7 1c.2.1.4.2.5.5.2.2.2.6.3 1.2h.4l.4-8h-.4l-.4 1a.6.6 0 0 1-.6.3l-7-1 .4-7.5 10.7 1.6a.7.7 0 0 1 .5.4c.2.2.2.6.3 1.2h.4l.4-8.2H71l-.4 1.1a.6.6 0 0 1-.6.2zm19 2.9-.1.7c.3.2.5.4.6.7l.2 1-.8 27c0 .4 0 .8-.2 1 0 .2-.3.4-.6.6v.7l5 .5v-.8l-.6-.6-.1-1.2.5-19.3 9 19.3c.5.8.7 1.4.6 1.7 0 .5-.2.8-.5 1v.7l5.4.5v-.8c-.3-.2-.5-.4-.6-.7l-.2-1 .7-27 .2-1 .7-.5v-.8l-5-.4v.7c.2.2.5.4.6.7l.1 1-.5 18.9-9-19-.3-1.3c0-.6.2-1 .6-1v-.8zm20.4.2v8.3h.3c.1-.6.2-1 .4-1.1a.6.6 0 0 1 .6-.4l5.3.2-.3 24.1c0 .5 0 .9-.2 1.1 0 .3-.3.5-.6.6v.7l5.3.2v-.7l-.6-.6-.1-1.1.2-18.6a5.3 5.3 0 0 1-.4-.4 3.3 3.3 0 0 1-.4-.6l-.1-.4-.3-.6-.4-.7a5.1 5.1 0 0 1-.3-.6 7.6 7.6 0 0 1-.2-.5 5.6 5.6 0 0 1-.1-.7l-.2-.7a5.1 5.1 0 0 0 0-.4.1.1 0 0 1 0-.2l-.1-.2a4 4 0 0 0-.3-.7l-.4-.8-.4-.7-.4-.8-.4-.9-.4-.8v-.1a.4.4 0 0 1 0-.1l-4.2-.2a.7.7 0 0 1-.6-.3 4 4 0 0 1-.3-1.2zm49.1.2a9.6 9.6 0 0 0-1 0c-3.6.4-6.3 2.8-8 7.2-1.2 3-1.7 6.3-1.6 10.2 0 2.8.5 5.3 1.2 7.6.7 2 1.5 3.7 2.6 5 1.8 2.2 4 3.1 6.7 2.9 1.4-.1 2.5-.5 3.5-1.1a18 18 0 0 0 3.5-3.5c.7-.8 1.1-1.2 1.3-1.2l.6.5.3-.4-2.6-6.4-.3.5v.6c0 .4 0 .8-.2 1.3l-1.1 1.5c-1.4 1.7-3 2.6-4.6 2.7a5 5 0 0 1-4.8-2.2 15 15 0 0 1-2.3-8.2c0-3.4.5-6.2 1.9-8.5 1-2 2.6-3 4.6-3.1 1.6-.2 3.2.4 4.7 1.8.6.6 1 1 1.2 1.4l.3 1.2v.6l.4.4 2.2-6.8-.4-.4-.5.7c-.2 0-.6-.4-1.3-1a14.8 14.8 0 0 0-3.7-2.8 7 7 0 0 0-2.6-.5zm-32.2 1zm19.5.6-5 .1v.7l.6.6.2 1.1v19.9a7 7 0 0 1-.6 2.3c-.8 1.6-2.2 2.4-4.2 2.4-1.9 0-3.3-.7-4-2.3-.4-.5-.6-1.3-.7-2.1l-.2-4.1v-7.2a.2.2 0 0 1-.2 0c-.4-.2-.7-.6-1-.9a3.5 3.5 0 0 0-.8-.6l-.3.5-.2.9c0 .4-.3.9-.5 1.3l-.4.8a1 1 0 0 1-.4.4v6.8c0 2.3.3 4.2.6 5.8a8 8 0 0 0 1.8 3.8c1.4 1.6 3.5 2.4 6.2 2.3 3.8 0 6.3-1.6 7.5-4.7.6-1.6 1-4.2 1-7.5l-.2-17.9c0-.4 0-.8.2-1 .1-.3.3-.5.6-.7zm-25.1.3zm11.7 0zm0 0c.1 0 .1.1.1 0zm-7.6 0zm0 0zm-7 .6zm6.6.7zm-2.9.2zm1.5 0zm-6.4.2zm0 0zm14.5 0v.2a.5.5 0 0 0 0-.1zm-.4.1zm0 0v.1zm-7 0h.1zm-1 .8h.1zm-1 .5zm4.2.7zm-2 .1zm-6.4.7zm6.3.1zm.3.5h.1zm1.7.3v.2a1 1 0 0 0 0-.2zm0 .3v.1-.1zm0 .5zm0 .2h.1zm5.6.9zm-12.8.1v.2-.1zm13.1 0v.1zm-1.2.1zm-11 1.3zm0 0zm10.3.6z" font-size="30.1"/></svg>