<svg xmlns="http://www.w3.org/2000/svg" id="Layer_1" width="274.13" height="358.98" data-name="Layer 1" viewBox="0 0 274.13 358.98"><defs id="defs4"><style id="style2">.cls-1{fill:#d4dde5}.cls-2{fill:#cfac00}.cls-4{fill:#fff}.cls-7{fill:#0480e4}.cls-8{fill:#0f2739}.cls-9{fill:#fdd900}</style></defs><g id="g122" transform="translate(-603.69 -744.28)"><path id="path72" d="M625.38 816.9s109.07-11.73 229.86 4.69c0 0-116.1-63.33-229.86-4.69" class="cls-1"/><path id="path74" d="M648.39 782.83s87.23-9.38 183.84 3.75c0 0-92.86-50.65-183.84-3.75" class="cls-1"/><g id="g120"><g id="g80"><path id="path76" d="m734.42 1097.61-38.52-54.53h-44.76l1.99-7.16c15.81-56.92 10.86-92.61 7.96-105.42-8.56 2.58-16.14 3.19-21.37 3.19-3.39 0-5.46-.26-5.69-.29l-6.33-.84 1.61-6.18c12.38-47.58-8.24-76.55-8.45-76.83l-6.01-8.23 10.15-.76c2.33-.17 4.69-.25 7.02-.25 18.68 0 32.61 5.39 38.25 8 25.03-13.48 46.35-72.14 52.61-94.25l1.16-4.11h33.34l1.16 4.11c6.26 22.12 27.58 80.77 52.61 94.25 5.64-2.61 19.57-8 38.25-8 2.33 0 4.69.08 7.02.25l10.26.75-6.13 8.26c-.2.27-20.82 29.23-8.44 76.82l1.61 6.18-6.33.84c-.23.03-2.3.29-5.69.29-5.23 0-12.81-.61-21.37-3.19-2.9 12.8-7.86 48.49 7.96 105.42l1.99 7.16h-44.76L747 1097.62h-12.56z" class="cls-8"/><path id="path78" d="M753.1 755.58s23.88 84.48 58.09 99c0 0 15.3-8.63 38.2-8.63 2.14 0 4.34.08 6.61.24 0 0-22.66 30.53-9.37 81.61 0 0-1.83.24-4.95.24-5.46 0-14.85-.75-25.22-4.86 0 0-14.6 38.82 6.36 114.25h-40.25l-38.52 54.53h-6.7l-38.52-54.53h-40.25c20.95-75.43 6.36-114.25 6.36-114.25-10.36 4.11-19.76 4.86-25.22 4.86-3.11 0-4.95-.24-4.95-.24 13.29-51.08-9.37-81.61-9.37-81.61 2.26-.16 4.47-.24 6.61-.24 22.91 0 38.2 8.63 38.2 8.63 34.21-14.52 58.09-99 58.09-99h24.79m.01-11.3h-33.34l-2.33 8.23c-.06.2-5.94 20.81-15.77 42.76-13.35 29.81-24.67 41.85-31.85 46.69-7.27-2.99-20.73-7.31-37.8-7.31-2.47 0-4.97.09-7.43.27l-20.89 1.52 12.61 16.45c.38.54 4.99 7.32 8.2 19.11 4.44 16.36 4.22 34.18-.66 52.95l-3.22 12.37 12.67 1.68c.43.06 2.76.34 6.43.34 4.37 0 10.27-.39 17-1.87.71 4.25 1.37 9.78 1.68 16.56.74 16.4-.51 43.66-10.71 80.38l-3.98 14.32h49.27l35.14 49.75 3.38 4.78h18.41l3.38-4.78 35.14-49.75h49.27l-3.98-14.32c-10.2-36.72-11.45-63.98-10.71-80.38.31-6.78.97-12.31 1.68-16.56a79.6 79.6 0 0 0 17 1.87c3.67 0 6-.28 6.43-.34l12.67-1.68-3.22-12.37c-4.89-18.78-5.11-36.59-.66-52.95 3.2-11.79 7.82-18.56 8.2-19.11l12.71-16.59-20.99-1.38c-2.46-.18-4.96-.27-7.43-.27-17.08 0-30.53 4.31-37.8 7.31-7.17-4.84-18.5-16.88-31.85-46.69-9.83-21.95-15.71-42.55-15.77-42.76l-2.33-8.22h-8.54z" class="cls-1"/></g><path id="path82" d="M803.3 1022.37c-26.11-83.68 12.05-135.23 12.05-135.23 1.34 17.41 12.05 20.08 12.05 20.08-6.02-33.47 10.04-47.53 10.04-47.53s-40.17 6.69-54.22 49.54c0 0 12.05-12.72 22.09-17.41 0 0-33.47 37.49-20.08 115.81h-88.64c13.39-78.32-20.08-115.81-20.08-115.81 10.04 4.69 22.09 17.41 22.09 17.41-14.06-42.84-54.22-49.54-54.22-49.54s16.07 14.06 10.04 47.53c0 0 10.71-2.68 12.05-20.08 0 0 38.16 51.55 12.05 135.23h124.79z" class="cls-9"/><path id="rect84" d="M696.53 1007.31h89.03v6.69h-89.03z" class="cls-4" transform="rotate(180 741.045 1010.655)"/><path id="path86" d="M722.03 989.57c-9.37 13.39-17.41 30.12-2.01 47.53s18.74 28.12 18.74 28.12l2.14 6.86 2.14-6.86s3.35-10.71 18.74-28.12c15.4-17.41 7.36-34.14-2.01-47.53l-6.02 8.7s15.4 20.75-5.36 38.16l-.67-32.13-2.01-6.02s6.69-12.72 20.08-22.76c0 0-17.41-14.73-17.41-51.55v-89.7s14.06 8.03 24.77 12.05c0 0-26.89-38.54-32.27-72.03-5.37 33.48-32.26 72.03-32.26 72.03 10.71-4.02 24.77-12.05 24.77-12.05v89.7c0 36.82-17.41 51.55-17.41 51.55 13.39 10.04 20.08 22.76 20.08 22.76l-2.01 6.02-.67 32.13c-20.75-17.41-5.36-38.16-5.36-38.16l-6.02-8.7zm6.69-14.73c10.71-8.03 11.65-28.5 11.65-28.5s.27-5.8.53-11.61c.27 5.8.53 11.61.53 11.61s.94 20.47 11.65 28.5c0 0-7.41 8.23-12.18 16.48-4.78-8.25-12.19-16.48-12.19-16.48z" class="cls-9"/><path id="path88" d="M805.31 891.83c-10.04 4.69-22.09 17.41-22.09 17.41 14.06-42.84 54.22-49.54 54.22-49.54s-16.07 14.06-10.04 47.53c0 0-10.71-2.68-12.05-20.08 0 0-12.1 16.35-18.01 45.58-3.86 1.89-7.83 3.6-11.9 5.1 6.44-30.94 19.87-45.99 19.87-45.99z" class="cls-7"/><path id="path90" d="M644.37 859.7s40.17 6.69 54.22 49.54c0 0-12.05-12.72-22.09-17.41 0 0 13.4 15.01 19.85 45.88-4.07-1.51-8.04-3.23-11.91-5.14-5.92-29.13-17.98-45.43-17.98-45.43-1.34 17.41-12.05 20.08-12.05 20.08 6.02-33.47-10.04-47.53-10.04-47.53z" class="cls-7"/><path id="path92" d="M698 908.62c.38.39.6.62.6.62-14.06-42.84-54.22-49.54-54.22-49.54s34.68 14.48 53.63 48.92z" class="cls-4"/><path id="path94" d="M748.41 834.26v89.7c0 8.21.87 15.31 2.21 21.4-3.04.22-6.11.34-9.21.35-.08-1.64-.29-6.31-.5-10.98-.21 4.67-.43 9.33-.5 10.98-3.09-.02-6.16-.13-9.2-.36 1.34-6.09 2.21-13.19 2.21-21.38v-89.7s-14.06 8.03-24.77 12.05c0 0 26.89-38.55 32.26-72.03 5.38 33.48 32.27 72.03 32.27 72.03-10.71-4.02-24.77-12.05-24.77-12.05z" class="cls-7"/><path id="path96" d="M748.41 923.97c0 28.28 10.26 43.52 15.02 49.07l.38 4.04c-.65.53-1.28 1.06-1.9 1.59-5.45-5.27-19.18-23.01-21.27-69.32v-69.39l7.76 10.5v73.51z" class="cls-4"/><path id="path98" d="M740.9 774.29c5.38 33.48 32.27 72.03 32.27 72.03-.44 1.87-37.71-26.58-32.27-72.03" class="cls-4"/><path id="path100" d="M722.03 989.57s-20.92 26.33-3.46 45.8c-2.27 1.16-16.11-5.56-9.92-34.12" class="cls-8"/><path id="path102" d="M753.76 998.27s15.73 21.76-5.36 38.16c-.45-.03 9.85-15.84 2.26-34.41" class="cls-8"/><path id="path104" d="M684.45 932.57s14.56 47.24 1.25 89.8h-7.18c11.43-36.63 10.54-67.11 5.93-89.8" class="cls-2"/><path id="path106" d="M720.02 1037.1c-2.27-2.57-4.02-5.12-5.34-7.64 15.4 7.42 25.62 20.92 31.06 29.88-2.04 3.8-2.69 5.88-2.69 5.88l-2.14 6.86-2.14-6.86s-3.35-10.71-18.74-28.12z" class="cls-2"/><path id="path108" d="m759.79 989.57-4.07 5.88s11.31 5.66 12.28 32.24c6.22-13.97-.55-27.16-8.21-38.11z" class="cls-4"/><path id="path110" d="M800.59 919.65c-23.31 65.72 2.71 102.72 2.71 102.72-13.77-44.13-9.66-79.31-2.71-102.72" class="cls-4"/><path id="path112" d="M837.44 859.7s-29.16 16.28-10.04 47.53c-6.02-33.47 10.04-47.53 10.04-47.53" class="cls-4"/><path id="path114" d="m767.2 914.85 15.77-5.45-13.61 31.64s-19.98-35.07-4-83.44l7.01 14.1s11.11-11.23 22.97-6.96c0 0-23.19 10.06-28.15 50.11z" class="cls-1"/><path id="path116" d="m714.2 914.85-15.77-5.45 13.61 31.64s19.98-35.07 4-83.44l-7.01 14.1s-11.11-11.23-22.97-6.96c0 0 23.19 10.06 28.15 50.11z" class="cls-1"/><path id="polyline118" d="m734.08 1004.3-.56 26.89-4.68-1.73-1.48-25.16" class="cls-8"/></g></g></svg>