<svg xmlns="http://www.w3.org/2000/svg" xmlns:xlink="http://www.w3.org/1999/xlink" id="Layer_1" width="302.523" height="308.06" data-name="Layer 1" version="1.1"><defs id="defs30"><linearGradient id="linear-gradient" x1="394.34" x2="600.58" y1="300.98" y2="300.98" gradientUnits="userSpaceOnUse"><stop id="stop4" offset="0" stop-color="#ffaf28"/><stop id="stop6" offset=".18" stop-color="#ffaf28" stop-opacity=".99"/><stop id="stop8" offset=".31" stop-color="#ffaf28" stop-opacity=".95"/><stop id="stop10" offset=".43" stop-color="#ffaf28" stop-opacity=".89"/><stop id="stop12" offset=".54" stop-color="#ffaf28" stop-opacity=".8"/><stop id="stop14" offset=".64" stop-color="#ffaf28" stop-opacity=".68"/><stop id="stop16" offset=".74" stop-color="#ffaf28" stop-opacity=".54"/><stop id="stop18" offset=".83" stop-color="#ffaf28" stop-opacity=".37"/><stop id="stop20" offset=".92" stop-color="#ffaf28" stop-opacity=".18"/><stop id="stop22" offset="1" stop-color="#ffaf28" stop-opacity="0"/></linearGradient><linearGradient xlink:href="#linear-gradient" id="linear-gradient-2" x1="321.48" x2="648.66" y1="339.85" y2="339.85"/><linearGradient xlink:href="#linear-gradient" id="linear-gradient-3" x1="471.82" x2="523.32" y1="479.81" y2="479.81"/><linearGradient xlink:href="#linear-gradient" id="linear-gradient-4" x1="254.5" x2="371.41" y1="837.54" y2="837.54" gradientTransform="translate(-104.464 -762.09)"/><linearGradient xlink:href="#linear-gradient" id="linear-gradient-5" x1="140.04" x2="220.13" y1="994.64" y2="994.64" gradientTransform="translate(-104.464 -762.09)"/><linearGradient xlink:href="#linear-gradient" id="linear-gradient-6" x1="672.15" x2="805.96" y1="929.73" y2="929.73"/><style id="style2">.cls-3{fill:#fff}.cls-8{fill:#00008b}.cls-20{stroke-miterlimit:10}.cls-6{fill:#ff24ee}.cls-20{fill:none;stroke:#00008b;stroke-width:7.52px}</style></defs><path id="path326" d="M87.716 4.91h149.73c47.45 0 71.91 38.47 54.64 85.91l-77.28 212.33H65.076c-47.45 0-71.91-38.47-54.64-85.91z" style="fill:#00008b;stroke:#ff24ee;stroke-width:9.81999969px;stroke-miterlimit:10"/><path id="path328" d="m145.676 138.55-15.63 23.36c-1.63-.94-4.93-1.31-13-1.31h-52.37l1-2.62c4.42 0 7.76-2.43 9.47-7.1l40.49-111.38c1.7-4.68.8-6.92-4.36-6.92l.95-2.61h37.59l-.95 2.61c-5.41 0-7.7 2.24-9.4 6.92l-38.3 105.22h26.29a16.21 16.21 0 0 0 14.13-7.1z" class="cls-3" style="fill:#fff"/><path id="path330" d="M197.336 271.21h-36.61l.95-2.62c4.18 0 5.6-1.87 6.35-3.92.06-.19.64-2.43 1.07-4.3l2.07-11.78a43.35 43.35 0 0 1-13.28 2.06 34.18 34.18 0 0 1-12.27-2.06l-6.32 12c-.86 1.69-2.12 4.49-2.26 4.86-.81 2.25-.17 3.18 4 3.18l-1 2.62h-34.1l.95-2.62c3.44 0 6.16-2 8.05-5.23l62.37-112a40.84 40.84 0 0 0 2.19-4.67c.75-2.05-.43-3.55-3.37-3.55l1-2.61h43.41l-1 2.61a6 6 0 0 0-5.85 3.93 57.62 57.62 0 0 0-1.55 5.6l-18.33 110.46c-.65 4.49.73 5.42 4.41 5.42zm-7.92-104.48h-1l-34.14 66.18c2.05 1.12 5.47 1.87 9.64 1.87a30 30 0 0 0 10.76-1.87z" class="cls-3" style="fill:#fff"/><path id="path332" d="M237.446 35.57h-57.62l-29.79 79.77h100.5l12.75-35c5.12-14.08 4.9-26.66-.6-34.53-5.94-8.47-17-10.24-25.24-10.24z" class="cls-6" style="fill:#ff24ee"/><path id="path334" d="M237.446 35.57h-57.62l-29.79 79.77h100.5l12.75-35c5.12-14.08 4.9-26.66-.6-34.53-5.94-8.47-17-10.24-25.24-10.24z" style="fill:url(#linear-gradient-4)"/><path id="path336" d="M65.076 272.44h20.8l29.79-79.78h-63.64l-12.76 35c-5.12 14.08-4.9 26.66.6 34.53 5.91 8.47 16.97 10.25 25.21 10.25z" class="cls-6" style="fill:#ff24ee"/><path id="path338" d="M65.076 272.44h20.8l29.79-79.78h-63.64l-12.76 35c-5.12 14.08-4.9 26.66.6 34.53 5.91 8.47 16.97 10.25 25.21 10.25z" style="fill:url(#linear-gradient-5)"/><path id="path340" d="M235.536 66.54s22.31-1.48 24 8c0 0 8-16-10.58-18.85 0 0 8.64-5.81 22.57-2.2 0 0-9.2-16.68-34.92 2.21-12-18.84-33.33-2.13-33.33-2.13 16.56-3.65 21 2.15 21 2.15-20.65 2.93-24.27 18.89-24.27 18.89 8.51-9.44 29.76-8 29.76-8l-24.56 53.71h18.15z" class="cls-8" style="fill:#00008b"/><path id="path342" d="M190.156 92.96s16.19-1.05 17.38 5.77c0 0 5.78-11.59-7.67-13.68 0 0 6.26-4.21 16.37-1.6 0 0-6.67-12.09-25.33 1.61-8.73-13.67-24.18-1.55-24.18-1.55 12-2.64 15.23 1.56 15.23 1.56-15 2.13-17.61 13.71-17.61 13.71 6.17-6.85 21.59-5.82 21.59-5.82l-17.82 39h13.17z" class="cls-8" style="fill:#00008b"/><path id="line344" d="m38.346 271.21 82.23-83.46" class="cls-20" style="fill:none;stroke:#00008b;stroke-width:7.51999998px;stroke-miterlimit:10"/><path id="path346" d="M32.216 251.57s54-34.36 25.77-72.41" class="cls-20" style="fill:none;stroke:#00008b;stroke-width:7.51999998px;stroke-miterlimit:10"/><path id="path348" d="M64.126 274.91s20.86-45.41 60.14-43" class="cls-20" style="fill:none;stroke:#00008b;stroke-width:7.51999998px;stroke-miterlimit:10"/><path id="path350" d="M43.256 202.48s-8.59 63.82 57.69 54" class="cls-20" style="fill:none;stroke:#00008b;stroke-width:7.51999998px;stroke-miterlimit:10"/><path id="polyline352" d="m214.99 827.26-24.61 12.67 12.87 9.68" class="cls-3" style="fill:#fff" transform="translate(-104.464 -762.09)"/><path id="polyline354" d="m272.4 930.6-24.61 12.66 12.87 9.69" class="cls-3" style="fill:#fff" transform="translate(-104.464 -762.09)"/></svg>