<svg xmlns="http://www.w3.org/2000/svg" id="Layer_1" width="289.918" height="336.98" data-name="Layer 1" viewBox="0 0 289.918 336.98"><defs id="defs4"><style id="style2">.cls-1{fill:#003022}.cls-3{fill:#00c765}.cls-6{fill:#d2ac4f}</style></defs><g id="g214" transform="translate(-600.61 -755)"><g id="g210"><path id="path190" d="M890.27 880.36c-1.35-13.28-7.62-25.89-17.64-35.51-9.72-9.33-21.96-14.77-34.75-15.51-3.74-6.03-9.29-11.4-16.52-16-18.61-11.83-38.61-17.39-62.97-17.49h-.87c-27.8 0-49.41 5.41-66.04 16.54-9.47 6.33-17.79 14.61-24.73 24.6-6.47 9.31-11.46 19.67-14.83 30.8l-26.6 84.28a318 318 0 0 0-11.24 43.55l-6.77 36.89-6.7 36.51 28.28-24.04 27.08-23.02 2.63 28.11 3.46 36.96 20.7-30.82 13.29-19.79 7.35 20.6 12.47 34.96 12.45-34.97 3.8-10.66 3.8 10.67 12.47 34.96 12.45-34.97 7.23-20.32 13.1 19.51 20.7 30.82 3.46-36.96 2.63-28.11 27.08 23.02 28.28 24.04-6.7-36.51-6.77-36.89c-2.6-14.17-6.2-28.28-10.71-41.97l3.39-1.71c7.58-3.82 9.56-4.81 10.13-5.1 11.26-5.67 21.34-15.51 28.38-27.71 7.22-12.51 10.49-26.28 9.22-38.78z" class="cls-3"/><path id="path192" d="M637.9 956.17c-4.59 13.67-8.2 27.66-10.81 41.85l-6.77 36.89 28.2-23.97c6.78-5.76 13.3-11.82 19.54-18.15-.18 8.96.14 17.93.98 26.86l2.73 29.2 16.14-24.03c4.31-6.42 8.3-13.06 11.97-19.87a238 238 0 0 0 6.25 20.38l9.73 27.26 9.84-27.63c2.47-6.94 4.61-14 6.43-21.13a238 238 0 0 0 6.53 21.5l9.73 27.26 9.84-27.63c2.3-6.46 4.31-13.01 6.04-19.63 3.61 6.68 7.53 13.19 11.77 19.49l16.14 24.03 2.73-29.2c.84-8.93 1.16-17.9.98-26.86 6.24 6.33 12.76 12.39 19.54 18.15l28.2 23.97-6.77-36.89c-2.6-14.19-6.22-28.17-10.81-41.85l-9.11-27.14-3.2-13.16 14.57 6.79c6.67 2.97 10.19 10.39 8.29 17.48l10.13-5.1c18.4-9.26 32.46-32.96 30.38-53.33-2.22-21.83-22.55-41.56-46.4-38.98-.42.05-.84.09-1.27.15.28-.03-2.12-5.4-2.27-5.66-3.01-5.31-7.83-9.47-12.9-12.69-17.52-11.14-35.43-15.34-55.92-15.42-20.29-.08-42.31 2.8-59.51 14.31-16.68 11.16-28.49 29.15-34.28 48.3l-26.66 84.47z" class="cls-1"/><path id="path194" d="M792.93 846.16c4.47 2.17 9.36 3.32 14.34 3.32l6.4-5.5c-19.16-17.59-70.99-24.18-102.11 0 0 0-10.01 5.58-23.53 23.16-9.41 12.24-12.36 20.18-12.36 20.18l31.44-8.16-15.54 16.53c-13.18 14.02-22.66 31.15-27.38 49.81-.35 1.39-.62 2.56-.78 3.43l-3.3 17.96 13.74-11.68c3.95-3.36 7.72-6.92 11.3-10.68l-.04.49c-.63 6.98-.76 14-.39 21l.97 18.29 10.65-14.55c3.57-4.87 6.83-9.96 9.78-15.23l.08.6c.97 7.41 2.47 14.75 4.48 21.94l5.23 18.72 7.68-17.58c2.99-6.84 5.49-13.88 7.48-21.08l.74-2.67.74 2.67c1.99 7.19 4.49 14.23 7.48 21.07l7.69 17.58 5.22-18.69a156.6 156.6 0 0 0 4.49-21.98l.08-.6c2.94 5.27 6.21 10.36 9.78 15.23l10.65 14.55.96-18.21c.37-7.03.24-14.07-.38-21.08l-.04-.49a150 150 0 0 0 11.3 10.68l13.74 11.68-3.3-17.97c-1.27-6.91-3.03-13.72-5.26-20.38l-3.11-9.26a48 48 0 0 0-3.31-7.63l-.35-.66-.54-.89c-17.7 2.42-26.04 25.11-26.04 25.11 0-17.59 11.11-32.98 11.11-32.98-26.67 10.99-37.36 23.69-37.36 23.69 11.54-35.67 46.26-39.08 46.26-39.08-15.56-2.2-17.78-8.79-17.78-8.79 35.56-4.4 35.56-17.59 35.56-17.59s-17.78 10.99-26.67 4.4c-8.89-6.6-8.89-15.39-8.89-15.39-20 0-40.01 4.4-40.01 4.4s20-13.19 42.23-13.19c12.94 0 21.78 2.98 26.91 5.47z" style="fill:#e0e2c1"/><path id="path196" d="M859.22 878.92c-2.68-18.74-16.06-24.1-29.45-21.42 0 0-11.5 2.31-15.31 13.31l9.96-.97s-22.76 18.45-38.83 23.81l49.53 20.08s2.68-8.03-10.71-13.39l-18.74-8.03s10.71-8.03 24.1-8.03h2.92c11.34 0 20.84 8.93 21.16 20.27.01.38.02.76.02 1.15 0 0 8.03-8.03 5.35-26.77z" class="cls-6"/><path id="path198" d="M789.09 852.33c-.86 2.69-3.93 3.98-6.57 3.82-1.31-.08-2.79-.45-3.53-1.62-.27-.43-.92-4.55-.73-4.5-2.77-.72-4.61-1.29-4.61-1.29-.01 8.29 3.54 11.92 11.22 11.12 7.68-.81 9.49-6.94 9.49-6.94-1.69-.1-3.48-.31-5.28-.59z" class="cls-3"/><path id="polygon200" d="m847.14 866.62-5.6 4.08 2.14 6.59-5.61-4.08-5.61 4.08 2.15-6.59-5.61-4.08h6.93l2.14-6.59 2.14 6.59z" class="cls-1"/><g id="g208"><path id="path202" d="M667.75 934.09c-1.38 3.73-2.58 7.53-3.56 11.41-.35 1.39-.62 2.56-.78 3.43l-3.3 17.96 13.74-11.68c3.95-3.36 7.72-6.92 11.3-10.68l-4.73-11.91z" class="cls-3"/><path id="path204" d="m707.28 952.19-8.55-12.56-13.58 4.9-.04.49c-.63 6.98-.76 14-.39 21l.97 18.29 10.65-14.55c3.57-4.87 6.83-9.96 9.78-15.23l.08.6c.97 7.41 2.47 14.75 4.48 21.94l5.23 18.72 7.68-17.58c2.99-6.84 5.49-13.88 7.48-21.08l.74-2.67-12.09-10.53-12.43 8.24z" class="cls-3"/><path id="path206" d="m757.42 955.14.08-.6c2.94 5.27 6.21 10.36 9.78 15.23l10.65 14.55.96-18.21c.37-7.03.24-14.07-.38-21.08l-.04-.49a150 150 0 0 0 11.3 10.68l13.74 11.68-3.3-17.97c-.78-4.26-1.75-8.49-2.91-12.66l-13.46-2.55-5.86 11.38-14.22-5.65-8.7 12.19-10.58-7.7-12.65 10.56.74 2.67c1.99 7.19 4.49 14.23 7.48 21.07l7.69 17.58 5.22-18.69a156.6 156.6 0 0 0 4.49-21.98z" class="cls-3"/></g></g><path id="polygon212" d="m771.93 755-27.44 23.54L717.05 755l-27.45 23.54-27.16-23.3v28.88h162.91v-27.86l-25.97 22.28z" class="cls-6"/></g></svg>