<svg xmlns="http://www.w3.org/2000/svg" id="Layer_1" width="305.857" height="287.734" data-name="Layer 1" viewBox="0 0 305.857 287.734"><defs id="defs16"><clipPath id="clippath-1"><path id="path4" d="M196.04 322.27c-.1 1.87-.13 3.76-.08 5.67 1.09 34.81 30.31 62.3 65.23 61.38 34.88-.91 60.67-29.88 57.64-64.69-.17-1.91-.42-3.8-.74-5.66l-39.17-3.46c-14.77-1.31-29.58-.91-44.17 1.19l-38.72 5.56z" class="cls-1"/></clipPath><clipPath id="clippath-3"><path id="path7" d="M447.43 898.4c2.71-9.9 3.57-29.24-14.15-58.15l-2.93-4.79-5.6.44-185.8 14.5 6.07-13.64 6.2-13.92-15.2 1.04-95.78 6.54-2.25.15-1.92 1.18-25.21 15.47-2.48 1.52-1.15 2.68-46.98 109.6c-4.44 10.37-3.4 22.17 2.8 31.57 6.22 9.44 16.63 15.07 27.83 15.07 1.32 0 2.66-.08 3.99-.23l308.31-35.96c2.56-.3 6.59-1.36 22.15-10.29 6.77-3.88 12.92-7.64 14.46-8.59 9.64-4.89 16.3-14.27 17.87-25.18 1.56-10.9-2.16-21.45-10.22-29.02z" class="cls-1"/></clipPath><clipPath id="clippath-5"><path id="path10" d="M705.04 322.27c-.1 1.87-.13 3.76-.08 5.67 1.09 34.81 30.31 62.3 65.23 61.38 34.88-.91 60.67-29.88 57.64-64.69-.17-1.91-.42-3.8-.74-5.66l-39.17-3.46c-14.77-1.31-29.58-.91-44.17 1.19l-38.72 5.56z" class="cls-1"/></clipPath><clipPath id="clippath-7"><path id="path13" d="M655.71 1059.54c-20.85 3.14-39.49-2.73-51.13-16.09-10.5-12.04-13.84-28.52-9.18-45.23l38.36-157.77.8-.14.17-.71.8-.14.17-.71.79-.14.17-.71.81-.15.17-.71.8-.14.17-.71.8-.14.17-.71.8-.14.17-.71.8-.14.17-.69.81-.15.17-.71.8-.15.17-.71.8-.15.17-.71.8-.15.17-.71.8-.15.17-.71.8-.15.17-.71.8-.15.17-.71.8-.15.17-.71.8-.15.17-.71.8-.15.18-.72.79-.14.17-.71.8-.14.17-.71.8-.14.17-.71.8-.14.17-.71.8-.14.17-.71.8-.14.17-.71.8-.14.17-.71.8-.14.17-.71.8-.14.17-.71.8-.14.17-.71.8-.14.17-.71.8-.14.17-.71.8-.14.17-.71.81-.15.17-.69.8-.15.17-.71.8-.15.17-.71.8-.15.17-.71.8-.15.17-.71.79-.14.17-.71.81-.15.17-.71.8-.15.17-.71.8-.15.17-.71.8-.15.17-.71.79-.14.17-.71.81-.15.17-.71.8-.15.17-.71.8-.15.18-.72.79-.14.17-.71.8-.14.17-.71.8-.14.17-.71.8-.14.17-.71.8-.14.17-.71.8-.14.17-.7 96.99-17.57 21.64-4.77c56.74-12.49 107.48 37.72 95.57 94.59l-2.27 10.83-27.61 93.86-.79.21-.19.65-.78.2-.19.66-.78.2-.19.65-.78.2-.19.65-.78.2-.19.65-.79.21-.19.65-.78.2-.19.65-.78.2-.19.65-.79.2-.19.63-.78.21-.19.65-.78.2-.19.65-.78.2-.19.65-.78.2-.19.65-.77.2-.19.65-.78.21-.19.65-.78.2-.19.65-.79.21-.19.65-.78.2-.19.65-.78.2-.19.65-.78.21-.19.65-.78.21-.19.65-.78.21-.19.65-.79.21-.19.65-.78.21-.19.65-.78.2-.19.65-.78.21-.2.66-.77.2-.19.65-.78.2-.19.65-.78.2-.19.65-.78.2-.19.65-.77.2-.19.65-.78.2-.19.65-.79.2-.19.63-.79.21-.19.65-.78.2-.19.65-.78.2-.19.65-.78.21-.19.65-.78.21-.19.65-.78.21-.19.65-.79.21-.19.65-.78.2-.19.65-.78.2-.19.65-.78.2-.19.65-.78.2-.19.65-.78.2-.19.65-.78.21-.19.65-.78.2-.19.65-.77.2-.19.65-.78.21-.19.65-.78.21-.19.65-.79.21-.19.65-158.88 41.54-1.14.2c-.75.14-1.55.27-2.34.39z" class="cls-1"/></clipPath><style id="style2">.cls-1,.cls-6{fill:none}.cls-6{stroke-miterlimit:10;stroke:#3d001f}.cls-21{fill:#006e3f}.cls-24{fill:#ffb200}.cls-6{stroke-width:6.61px}</style></defs><g id="g596" transform="translate(-593.343 -772.635)"><g id="g580"><path id="path562" d="M655.71 1059.54c-20.85 3.14-39.49-2.73-51.13-16.09-10.5-12.04-13.84-28.52-9.18-45.23l38.36-157.77.8-.14.17-.71.8-.14.17-.71.79-.14.17-.71.81-.15.17-.71.8-.14.17-.71.8-.14.17-.71.8-.14.17-.71.8-.14.17-.69.81-.15.17-.71.8-.15.17-.71.8-.15.17-.71.8-.15.17-.71.8-.15.17-.71.8-.15.17-.71.8-.15.17-.71.8-.15.17-.71.8-.15.17-.71.8-.15.18-.72.79-.14.17-.71.8-.14.17-.71.8-.14.17-.71.8-.14.17-.71.8-.14.17-.71.8-.14.17-.71.8-.14.17-.71.8-.14.17-.71.8-.14.17-.71.8-.14.17-.71.8-.14.17-.71.8-.14.17-.71.8-.14.17-.71.81-.15.17-.69.8-.15.17-.71.8-.15.17-.71.8-.15.17-.71.8-.15.17-.71.79-.14.17-.71.81-.15.17-.71.8-.15.17-.71.8-.15.17-.71.8-.15.17-.71.79-.14.17-.71.81-.15.17-.71.8-.15.17-.71.8-.15.18-.72.79-.14.17-.71.8-.14.17-.71.8-.14.17-.71.8-.14.17-.71.8-.14.17-.71.8-.14.17-.7 96.99-17.57 21.64-4.77c56.74-12.49 107.48 37.72 95.57 94.59l-2.27 10.83-27.61 93.86-.79.21-.19.65-.78.2-.19.66-.78.2-.19.65-.78.2-.19.65-.78.2-.19.65-.79.21-.19.65-.78.2-.19.65-.78.2-.19.65-.79.2-.19.63-.78.21-.19.65-.78.2-.19.65-.78.2-.19.65-.78.2-.19.65-.77.2-.19.65-.78.21-.19.65-.78.2-.19.65-.79.21-.19.65-.78.2-.19.65-.78.2-.19.65-.78.21-.19.65-.78.21-.19.65-.78.21-.19.65-.79.21-.19.65-.78.21-.19.65-.78.2-.19.65-.78.21-.2.66-.77.2-.19.65-.78.2-.19.65-.78.2-.19.65-.78.2-.19.65-.77.2-.19.65-.78.2-.19.65-.79.2-.19.63-.79.21-.19.65-.78.2-.19.65-.78.2-.19.65-.78.21-.19.65-.78.21-.19.65-.78.21-.19.65-.79.21-.19.65-.78.2-.19.65-.78.2-.19.65-.78.2-.19.65-.78.2-.19.65-.78.2-.19.65-.78.21-.19.65-.78.2-.19.65-.77.2-.19.65-.78.21-.19.65-.78.21-.19.65-.79.21-.19.65-158.88 41.54-1.14.2c-.75.14-1.55.27-2.34.39z" style="fill:#bf213c"/><g id="g574" style="clip-path:url(#clippath-7)"><g id="g572"><path id="rect564" d="M588.53 743.56h104.31v380.51H588.53z" class="cls-21" transform="rotate(12.71 640.582 933.672)"/><path id="rect566" d="M691.35 756.89h16.85v380.51h-16.85z" class="cls-24" transform="rotate(-167.29 699.791 947.131)"/><path id="rect568" d="M764.47 748.99h53.14v380.51h-53.14z" class="cls-21" transform="rotate(12.71 790.944 939.06)"/><path id="rect570" d="M816.76 756.68h16.85v380.51h-16.85z" class="cls-24" transform="rotate(-167.29 825.2 946.928)"/></g></g><path id="path576" d="m847.65 907.4-120.53 31.87 28.64-118.56 5.65-23.39-23.68 4.29-32.63 5.91-10.03 1.82-.17.71-.8.15-.17.71-.8.15-.17.71-.8.15-.17.71-.8.15-.17.71-.8.15-.17.71-.8.15-.17.71-.8.15-.17.71-.8.15-.17.71-.8.15-.17.71-.8.15-.17.71-.8.15-.17.71-.8.15-.17.71-.8.15-.17.71-.8.15-.17.71-.8.15-.17.71-.8.15-.17.71-.8.15-.17.71-.8.15-.17.71-.8.15-.17.71-.8.15-.17.71-.8.15-.17.71-.8.15-.17.71-.8.15-.17.71-.8.15-.17.71-.8.15-.17.71-.8.15-.17.71-.8.15-.17.71-.8.15-.17.71-.8.15-.17.71-.8.15-.17.71-.8.15-.17.71-.8.15-.17.71-.8.15-.17.71-.8.15-.17.71-.8.15-.17.71-.8.15-.17.71-.8.15-.17.71-.8.15-.17.71-.8.15-.17.71-.8.15-.17.71-.8.15-.17.71-.8.15-.17.71-.8.15-.17.71-.8.15-.17.71-.8.15-.17.71-.8.15-.17.71-.8.15-.17.71-.8.15-.17.71-.8.15-.17.71-.8.15-.17.71-.8.15-2.41 9.9-33.83 139.1c-3.44 12.09-1.21 23.83 6.13 32.25 8.38 9.62 22.33 13.76 38.27 11.36.64-.1 1.29-.2 1.95-.32l.59-.11.58-.15 141.4-36.97 8.57-2.24.19-.65.78-.2.19-.65.78-.2.19-.65.78-.2.19-.65.78-.2.19-.65.78-.2.19-.65.78-.2.19-.65.78-.2.19-.65.78-.2.19-.65.78-.2.19-.65.78-.2.19-.65.78-.2.19-.65.78-.2.19-.65.78-.2.19-.65.78-.2.19-.65.78-.2.19-.65.78-.2.19-.65.78-.2.19-.65.78-.2.19-.65.78-.2.19-.65.78-.2.19-.65.78-.2.19-.65.78-.2.19-.65.78-.2.19-.65.78-.2.19-.65.78-.2.19-.65.78-.2.19-.65.78-.2.19-.65.78-.2.19-.65.78-.2.19-.65.78-.2.19-.65.78-.2.19-.65.78-.2.19-.65.78-.2.19-.65.78-.2.19-.65.78-.2.19-.65.78-.2.19-.65.78-.2.19-.65.78-.2.19-.65.78-.2.19-.65.78-.2.19-.65.78-.2.19-.65.78-.2.19-.65.78-.2.19-.65.78-.2.19-.65.78-.2.19-.65.78-.2.19-.65.78-.2.19-.65.78-.2.19-.65.78-.2.19-.65.78-.2.19-.65.78-.2 2.5-8.5 7.85-26.68 7.85-26.69-26.9 7.11z" style="fill:#40182c"/><path id="path578" d="m740.53 817.03-32.69 135.31c-1.29 4.39 1.97 7.26 7.43 6.27l136.39-36.06-7.85 26.68-141.4 36.97c-20.71 3.75-33.38-6.93-28.41-23.84l33.9-139.42z" class="cls-24"/></g><ellipse id="ellipse582" cx="809.76" cy="892.27" rx="53.78" ry="15.5" style="fill:#3d001f" transform="rotate(-12.28 809.447 892.006)"/><g id="g594"><circle id="circle584" cx="813" cy="846" r="50" style="stroke-miterlimit:10;stroke:#3d001f;stroke-width:8.26px;fill:#fbe2d9"/><path id="path586" d="M813 796s-28.51 51.24 0 100" class="cls-6"/><path id="path588" d="M763 842.69s56.2 11.2 100-5.76" class="cls-6"/><path id="path590" d="M782.1 808.58s-3.94 22.5 18.23 23.7c0 0 7.96 1.58 16.94-8.63 4.37-4.97 11.31-7.38 18.17-6.35l21.16 3.18" class="cls-6"/><path id="path592" d="M782.1 883.42s-3.94-23.28 18.23-24.52c0 0 7.96-1.63 16.94 8.93 4.37 5.14 11.31 7.64 18.17 6.57l21.16-3.29" class="cls-6"/></g></g></svg>