<svg xmlns="http://www.w3.org/2000/svg" id="Layer_1" width="520.3" height="502.69" data-name="Layer 1" version="1.1"><defs id="defs640"><clipPath id="clippath"><path id="path637" fill="none" stroke-width="0" d="M290.73 423.09c-61.19-4.29-109.67-55.44-109.67-117.7 0-62.26 48.48-113.41 109.67-117.7v-27.7c-76.72 4.32-137.61 67.89-137.61 145.69s60.89 141.38 137.61 145.69v-28.29z"/></clipPath><style id="style635">.cls-3,.cls-4{fill:none}.cls-10,.cls-11,.cls-12,.cls-7,.cls-8{stroke-width:0}.cls-15,.cls-4{stroke:#002d55}.cls-4{stroke-width:19.61px;stroke-miterlimit:10}.cls-15{stroke-width:9.15px}.cls-15,.cls-3{stroke-linecap:round;stroke-linejoin:round}.cls-10,.cls-15{fill:#002d55}.cls-3{stroke:#8a5a45;stroke-width:10.46px}.cls-7{fill:#2dcaee}.cls-8{fill:#ab7e5e}.cls-11{fill:#0091c9}.cls-12{fill:#007125}</style></defs><g id="g773" transform="translate(-39.72 -49.14)"><path id="path644" fill="#0091c9" stroke-width="0" d="M551.66 284.84c-8.96-11.65-22.36-17.7-37.54-16.76-3.93.25-7.92.84-11.89 1.76a37.7 37.7 0 0 0-12-2.63 57.16 57.16 0 0 0-3-.08c-.59-2.64-1.24-5.28-1.95-7.89l38.27-24.16a18.24 18.24 0 0 0 7.08-22.62 18.22 18.22 0 0 0-21.18-10.64l-43.74 10.64a192.49 192.49 0 0 0-3.58-5.88l1.03-1.05a38.2 38.2 0 0 0 7.71-11.58c.71-.45 1.43-.91 2.14-1.38 5.92-3.93 14.35-10.49 19.2-22 5.01-11.88 4.45-25.03-1.55-36.1a39.55 39.55 0 0 0-27.89-20.17 44.77 44.77 0 0 0-7.89-.71c-12.77 0-24.61 5.66-33.34 15.95a75.23 75.23 0 0 0-6.4 8.75 37.12 37.12 0 0 0-8.15 4.8 50.15 50.15 0 0 0-4.49 3.92 194.7 194.7 0 0 0-6.9-4.18l9.99-44.18a18.22 18.22 0 0 0-10.97-20.99 18.22 18.22 0 0 0-22.52 7.44l-23.42 38.47c-2.21-.58-4.43-1.13-6.64-1.63 0-.63-.01-1.22-.03-1.82a38.31 38.31 0 0 0-2.75-13.29c.55-2.39 1-4.82 1.34-7.25 2.44-17.4-4.1-29.27-10.01-36.16-7.9-9.21-18.69-14.28-30.39-14.28-1.4 0-2.82.07-4.21.22-21.25 2.22-37.29 20.35-37.32 42.16 0 5.14.59 10.19 1.82 15.41a37.6 37.6 0 0 0-2.39 9.02c-.28 2-.43 4.01-.46 6-2.6.59-5.19 1.23-7.75 1.92l-24.18-38.3a18.26 18.26 0 0 0-22.62-7.09 18.23 18.23 0 0 0-10.64 21.18l10.65 43.78a194.46 194.46 0 0 0-5.86 3.56l-.42-.41-.35-.34a37.97 37.97 0 0 0-11.89-7.98 96.72 96.72 0 0 0-2.94-4.42c-7.42-10.49-17-17.02-28.48-19.4a42.93 42.93 0 0 0-8.66-.89c-20.43 0-37.21 14.76-39.9 35.1-2 15.12 4.02 29.61 16.52 39.75a79.4 79.4 0 0 0 7.81 5.58 37.87 37.87 0 0 0 7.39 11.29l1.29 1.34a200.1 200.1 0 0 0-4.17 6.89l-44.21-10a18.27 18.27 0 0 0-20.98 10.99A18.23 18.23 0 0 0 75.7 237l38.48 23.42c-.58 2.22-1.13 4.46-1.63 6.69h-1.25c-4.86.04-9.53.96-13.9 2.74a94.44 94.44 0 0 0-6.07-1.19c-12.07-1.98-23.5.32-33.05 6.65-10.87 7.2-17.61 18.53-18.47 31.1-.86 12.54 4.23 24.66 13.98 33.25a43 43 0 0 0 28.84 10.86c1.54 0 3.1-.08 4.64-.23 3.43-.34 6.86-.9 10.21-1.67a37.75 37.75 0 0 0 14.19 2.7h.86c.59 2.64 1.25 5.28 1.95 7.9l-38.3 24.18a18.23 18.23 0 0 0-7.08 22.62 18.27 18.27 0 0 0 16.85 11.16c1.46 0 2.91-.17 4.33-.52l43.78-10.65c1.14 1.95 2.33 3.91 3.55 5.84l-1.16 1.2a37.62 37.62 0 0 0-7.55 11.48l-1.69 1.08c-6.62 4.32-15.95 11.58-20.57 24.63a41.67 41.67 0 0 0 2.71 34.25 39.8 39.8 0 0 0 26.45 19.45c3.03.65 6.11.98 9.14.98 11.14 0 21.38-4.21 29.63-12.18a64.63 64.63 0 0 0 10.12-12.58 37.57 37.57 0 0 0 10.96-7.18 60.8 60.8 0 0 0 1.57-1.53c2.27 1.44 4.57 2.83 6.9 4.18l-10 44.23a18.22 18.22 0 0 0 10.97 20.99c2.2.89 4.51 1.34 6.88 1.34 6.34 0 12.34-3.37 15.64-8.79l23.42-38.48c2.19.57 4.4 1.11 6.61 1.61 0 .6.02 1.22.05 1.85a38.92 38.92 0 0 0 2.82 13.22 90.53 90.53 0 0 0-1.46 7.98c-1.23 8.98-.03 4.39 3.57 12.14 6.86 14.77 20.26-2.21 35.84-1.62.52.02 1.03.03 1.55.03 14.45 0 27.18 18.72 34.94 5.77 5.26-8.78 7.17-5.75 5.67-16.8-.34-2.5-.8-5.01-1.37-7.48a36.63 36.63 0 0 0 1.44-4.37 44.87 44.87 0 0 0 1.44-10.72c2.57-.58 5.15-1.22 7.72-1.91l24.17 38.3a18.22 18.22 0 0 0 22.62 7.09 18.23 18.23 0 0 0 10.64-21.18l-10.64-43.75a176.1 176.1 0 0 0 5.86-3.57c.62.61 1.16 1.12 1.6 1.52a37.94 37.94 0 0 0 11.09 7.19 96.54 96.54 0 0 0 3.07 4.59c5.86 8.24 12.88 13.87 21.46 17.21a42.6 42.6 0 0 0 15.46 2.93c11.4 0 22.3-4.77 29.9-13.09a40.23 40.23 0 0 0 10.32-31.17c-1.11-12.2-7.01-22.87-17.06-30.86a81.5 81.5 0 0 0-7.44-5.28 38.23 38.23 0 0 0-8.8-12.69c1.43-2.26 2.82-4.56 4.16-6.88l44.21 9.99a18.22 18.22 0 0 0 21-10.99 18.23 18.23 0 0 0-7.45-22.5l-38.46-23.41a194.4 194.4 0 0 0 1.63-6.74h.86c4.99 0 9.77-.91 14.24-2.72 3.15.73 6.37 1.27 9.57 1.62 12.33 1.33 23.85-2.06 33.29-9.79a39.99 39.99 0 0 0 6.49-55.6z" class="cls-11"/><g id="g757"><g id="g674"><g id="g658"><g id="g650"><path id="polygon646" fill="#002d55" stroke="#002d55" stroke-linecap="round" stroke-linejoin="round" stroke-width="9.15" d="m271.57 190.38-62.15-98.46 27.44 112.84z" class="cls-15"/><path id="polygon648" fill="#002d55" stroke="#002d55" stroke-linecap="round" stroke-linejoin="round" stroke-width="9.15" d="m326.55 421.27 62.15 98.46-27.45-112.84z" class="cls-15"/></g><g id="g656"><path id="polygon652" fill="#002d55" stroke="#002d55" stroke-linecap="round" stroke-linejoin="round" stroke-width="9.15" d="m183.62 333.31-98.47 62.16 112.84-27.45z" class="cls-15"/><path id="polygon654" fill="#002d55" stroke="#002d55" stroke-linecap="round" stroke-linejoin="round" stroke-width="9.15" d="m414.5 278.34 98.47-62.15-112.85 27.44z" class="cls-15"/></g></g><g id="g672"><g id="g664"><path id="polygon660" fill="#002d55" stroke="#002d55" stroke-linecap="round" stroke-linejoin="round" stroke-width="9.15" d="M197.99 243.63 84.42 217.96l99.2 60.38z" class="cls-15"/><path id="polygon662" fill="#002d55" stroke="#002d55" stroke-linecap="round" stroke-linejoin="round" stroke-width="9.15" d="M400.13 368.02 513.7 393.7l-99.2-60.39z" class="cls-15"/></g><g id="g670"><path id="polygon666" fill="#002d55" stroke="#002d55" stroke-linecap="round" stroke-linejoin="round" stroke-width="9.15" d="m236.86 406.89-25.67 113.58 60.38-99.2z" class="cls-15"/><path id="polygon668" fill="#002d55" stroke="#002d55" stroke-linecap="round" stroke-linejoin="round" stroke-width="9.15" d="m361.25 204.76 25.68-113.57-60.39 99.19z" class="cls-15"/></g></g></g><g id="fAhqwU"><g id="g680"><path id="path676" fill="#8a5a45" stroke-width="0" d="M309.37 525.75c-6.19 0-8.22-5.82-10.58-12.57l-.38-1.09-.32.87c-2.23 6.09-4.15 11.35-10.09 11.36-3.1 0-5.8-1.81-7.2-4.83a23.94 23.94 0 0 1-1.81-13.55c.21-1.49.57-2.72 1.03-3.73a17.33 17.33 0 0 1-2.21-8.05 38.96 38.96 0 0 1 0-3.42c.26-5.4 2.54-9.8 6.51-12.67v-1.81A170.85 170.85 0 0 1 189 436.74l-1.3 1.29c.82 5.17-.89 10.17-4.92 14.08l-.79.79c-.47.47-.93.94-1.42 1.4a15.57 15.57 0 0 1-10.76 4.42c-2.87 6.42-6.28 11.44-10.56 15.58-4.27 4.12-9.49 6.3-15.1 6.3a22.9 22.9 0 0 1-4.77-.51 18.64 18.64 0 0 1-12.56-9.21 20.76 20.76 0 0 1-1.24-17.05c2.46-6.95 7.59-11.02 12.28-14.08a64.58 64.58 0 0 1 8.37-4.68c0-4.03 1.55-7.8 4.57-10.96a55 55 0 0 1 2.86-2.82 15.85 15.85 0 0 1 13.2-4.07l1.31-1.31a167.67 167.67 0 0 1-16.87-23.92 170.05 170.05 0 0 1-22.65-71.34h-1.84c-3.04 4.14-7.55 6.37-13 6.37h-2.91c-4.53 0-8.4-1.55-11.31-4.45a59.63 59.63 0 0 1-15.18 3.53c-.86.09-1.72.13-2.56.13a22.38 22.38 0 0 1-15.01-5.63c-4.82-4.25-7.35-10.13-6.94-16.12.42-6.02 3.75-11.52 9.15-15.1a23.37 23.37 0 0 1 13.14-3.87c1.59 0 3.27.14 4.97.42 4.52.74 8.62 1.8 12.42 3.21a15.42 15.42 0 0 1 11.1-4.47l2.02-.02c.66 0 1.33 0 1.99.04 5.03.23 9.31 2.5 12.09 6.33l1.87-.01a170.87 170.87 0 0 1 19.56-65.8 170 170 0 0 1 19.96-29.43l-1.33-1.33a15.91 15.91 0 0 1-13.61-4.44 64.38 64.38 0 0 1-2.48-2.48 15.7 15.7 0 0 1-4.52-10.92 58.58 58.58 0 0 1-12.72-7.84c-8.74-7.09-9.7-15.2-8.96-20.76 1.32-9.97 9.2-16.93 19.17-16.93 1.46 0 2.94.15 4.41.46 6.2 1.28 11.32 4.88 15.64 10.99a64.81 64.81 0 0 1 6.09 10.44c4.12.02 7.98 1.68 11.17 4.81l.38.37c.7.68 1.39 1.36 2.05 2.08 3.57 3.83 5.06 8.59 4.28 13.42l1.3 1.27a170.9 170.9 0 0 1 95.33-39.51v-1.77a15.6 15.6 0 0 1-6.24-10.25 25.78 25.78 0 0 1-.09-7.95c.5-3.63 2.01-6.74 4.37-9.11-2.45-6.45-3.6-12.31-3.6-18.17.01-11.08 8-20.27 18.57-21.38.68-.07 1.37-.11 2.04-.11 5.58 0 10.6 2.41 14.52 6.98 4.52 5.26 6.26 11.87 5.17 19.63a62.68 62.68 0 0 1-3.29 13.08 16 16 0 0 1 4.51 10.98c.04 1.29.02 2.54 0 3.49-.11 5.41-2.4 9.87-6.52 12.82v1.77a170.32 170.32 0 0 1 95.36 39.53l1.29-1.3c-.77-4.78.71-9.52 4.27-13.41a33.53 33.53 0 0 1 4.27-4 15.31 15.31 0 0 1 9.37-3.3 56.32 56.32 0 0 1 8.34-13.27c4.75-5.6 10.77-8.57 17.39-8.57 1.37 0 2.77.13 4.17.38a18.75 18.75 0 0 1 13.22 9.55 20.76 20.76 0 0 1 .67 18.01c-2.62 6.2-7.29 9.91-11.51 12.71a62.33 62.33 0 0 1-8.63 4.86c0 3.99-1.6 7.79-4.71 11.02-.64.66-1.29 1.31-1.95 1.96l-.28.27a15.78 15.78 0 0 1-13.74 4.59l-1.31 1.32a170.01 170.01 0 0 1 38.55 86.68c.35 2.6.72 5.51.99 8.57h1.84c3.04-4.14 7.54-6.38 12.98-6.38h2.04c.62 0 1.25 0 1.87.04 4.09.22 7.66 1.79 10.32 4.44a54.84 54.84 0 0 1 16.03-3.58c.58-.04 1.15-.05 1.71-.05 7.36 0 13.56 3.01 17.94 8.7a19.17 19.17 0 0 1-3.15 26.65 23.02 23.02 0 0 1-14.94 5.34c-.94 0-1.91-.05-2.88-.16a61.06 61.06 0 0 1-14.71-3.48c-2.94 2.92-6.82 4.47-11.33 4.47h-3.24a15.5 15.5 0 0 1-12.64-6.36l-1.9.01c-2.96 33.86-15.28 64.74-36.67 91.85-.92 1.17-1.87 2.31-2.82 3.42l1.29 1.3c.85-.13 1.7-.2 2.53-.2 4.36 0 8.39 1.8 11.67 5.2l.74.74c.44.44.89.88 1.31 1.33a15.84 15.84 0 0 1 4.46 10.8 59.72 59.72 0 0 1 12.52 7.69c5.55 4.41 8.66 9.92 9.24 16.38a19.57 19.57 0 0 1-4.93 15.17 19.55 19.55 0 0 1-14.45 6.27c-2.65 0-5.3-.51-7.88-1.51-4.65-1.81-8.57-5.02-11.99-9.83a63.82 63.82 0 0 1-6.18-10.57 15.82 15.82 0 0 1-10.81-4.43 42.3 42.3 0 0 1-2.93-2.95c-3.51-3.94-4.93-8.56-4.16-13.29l-1.28-1.27a169.57 169.57 0 0 1-32.98 21.82 168.57 168.57 0 0 1-62.4 17.65v.33c.01.41.02.89 0 1.44 2.84 1.71 4.94 4.72 5.9 8.5a24.15 24.15 0 0 1 0 12.06 15.32 15.32 0 0 1-1.42 3.55c.38.92.68 2.01.86 3.31.85 6.31-.09 11.65-2.89 16.32a8 8 0 0 1-6.83 4.02zm-75.29-130.67a110.94 110.94 0 0 0 21.35 12.18c8.46 3.65 17.34 6.2 26.48 7.61a98.68 98.68 0 0 1 .82-35.07c-.5-.8-.94-1.66-1.3-2.6a71.89 71.89 0 0 1-20.35-8.44c-.9.38-1.82.69-2.75.92a98.87 98.87 0 0 1-24.24 25.39zm83.27 4.83c.1 4.01-.16 8.34-.75 12.88-.09.67-.18 1.37-.29 2.08l1-.16a109.51 109.51 0 0 0 46.77-19.64 99.88 99.88 0 0 1-24.24-25.36c-.94-.24-1.86-.55-2.76-.93a72.41 72.41 0 0 1-20.36 8.44c-.36.9-.78 1.74-1.26 2.55a89.32 89.32 0 0 1 1.89 20.15zm45.6-53.33a98.14 98.14 0 0 1 25.38 24.23 108.09 108.09 0 0 0 19.81-47.83 94.03 94.03 0 0 1-15.09 1.22c-6.54 0-13.25-.68-19.96-2.03-.83.51-1.71.95-2.63 1.32a71.1 71.1 0 0 1-8.44 20.33c.37.88.68 1.8.93 2.76m-172.94-23.57a110.09 110.09 0 0 0 19.82 47.8 99.17 99.17 0 0 1 25.38-24.23c.23-.95.54-1.87.92-2.77a71.8 71.8 0 0 1-8.46-20.39c-.89-.36-1.73-.77-2.54-1.23a98.72 98.72 0 0 1-16.19 1.88 94.98 94.98 0 0 1-18.92-1.07zm15.23-35.58c6.56 0 13.23.69 19.85 2.04.83-.5 1.69-.93 2.58-1.29a72.9 72.9 0 0 1 8.45-20.37c-.39-.9-.69-1.82-.92-2.75a100.02 100.02 0 0 1-25.38-24.24 108.05 108.05 0 0 0-19.8 47.83 96.18 96.18 0 0 1 15.21-1.22zm165.24.74c.89.36 1.74.78 2.55 1.27a90.1 90.1 0 0 1 19.03-2h.59c5.55 0 10.68.37 15.49 1.13a110.39 110.39 0 0 0-19.81-47.77 98.65 98.65 0 0 1-25.38 24.25c-.25.94-.56 1.86-.94 2.75a72.56 72.56 0 0 1 8.46 20.35zm-112.16-46.23c.94.24 1.86.55 2.76.94a72.57 72.57 0 0 1 20.36-8.45c.36-.9.79-1.77 1.29-2.6a97.62 97.62 0 0 1-.82-35.06 110.55 110.55 0 0 0-37.49 13.1c-3.51 2-6.98 4.24-10.35 6.71a98.62 98.62 0 0 1 24.25 25.37zm58.4-7.51a71.35 71.35 0 0 1 20.34 8.44c.91-.39 1.84-.7 2.79-.93a99.03 99.03 0 0 1 24.25-25.37 111.79 111.79 0 0 0-21.83-12.38 109.51 109.51 0 0 0-26.03-7.43 99.45 99.45 0 0 1-.8 35.08c.49.83.92 1.69 1.28 2.59"/><path id="path678" fill="#002d55" stroke-width="0" d="M299.39 73.83c3.61 0 6.64 1.65 9.06 4.47 3.48 4.05 4.22 8.84 3.51 13.95a54.52 54.52 0 0 1-4.4 15.16c-.49 1.07-.58 1.61.7 2.25 3.18 1.57 4.74 4.31 4.85 7.85.03 1.04.02 2.09 0 3.14-.07 3.7-1.78 6.43-5.09 8.04-1.13.55-1.5 1.2-1.47 2.4.07 2.86.02 5.72.02 8.58 0 2.38.08 2.47 2.48 2.6 7.21.37 14.35 1.28 21.43 2.68a162.51 162.51 0 0 1 76.19 37.31c1.4 1.22 2.1 1.84 2.77 1.84.67 0 1.33-.65 2.65-1.97 1.83-1.83 3.64-3.68 5.5-5.48.66-.64.9-1.18.51-2.15-1.41-3.53-.62-6.7 1.9-9.45a27.1 27.1 0 0 1 3.36-3.16 8.11 8.11 0 0 1 7.8-1.32c.4.14.72.21.99.21.61 0 .93-.38 1.26-1.27a49.57 49.57 0 0 1 8.76-15.23c3.23-3.8 7.19-6.03 11.9-6.03.93 0 1.9.09 2.89.27 7.86 1.42 11.83 9.88 8.53 17.69-1.8 4.27-5.16 7.06-8.86 9.51a50.93 50.93 0 0 1-11.28 5.78c-1.2.42-1.49.91-1.07 2.16 1.15 3.4.26 6.39-2.2 8.94-.69.71-1.39 1.41-2.1 2.1a8.59 8.59 0 0 1-6.17 2.72c-1.09 0-2.22-.21-3.39-.62a2.7 2.7 0 0 0-.9-.18c-.46 0-.84.19-1.27.63-2.34 2.41-4.7 4.8-7.13 7.11-.86.83-.72 1.32 0 2.13a164.17 164.17 0 0 1 20.26 28.04 161.93 161.93 0 0 1 20.02 58.85c.6 4.42 1.11 8.84 1.26 13.29.04 1.13.5 1.52 1.57 1.52h.05a379.64 379.64 0 0 1 9.91 0h.04c.91 0 1.45-.32 1.88-1.19 1.67-3.44 4.42-5.21 8.24-5.21h2.04c.49 0 .98 0 1.47.03 3.29.18 5.82 1.7 7.27 4.65.41.83.76 1.17 1.27 1.17.32 0 .7-.13 1.19-.36a49.23 49.23 0 0 1 17.46-4.6c.43-.03.85-.04 1.27-.04 4.87 0 9.11 1.83 12.24 5.89a11.91 11.91 0 0 1-2.01 16.7 15.95 15.95 0 0 1-10.39 3.72c-.69 0-1.39-.04-2.1-.12a54.1 54.1 0 0 1-16.78-4.65 2.16 2.16 0 0 0-.87-.25c-.42 0-.73.26-1.05.89a8.56 8.56 0 0 1-8.11 4.95h-3.15a8.3 8.3 0 0 1-7.81-4.88c-.57-1.15-1.25-1.53-2.42-1.53h-.13c-1.55.04-3.09.05-4.64.05-1.55 0-3.18-.02-4.77-.04h-.07c-1.16 0-1.53.49-1.6 1.64-2.04 34.73-13.99 65.7-35.52 92.98-1.97 2.5-4.09 4.9-6.2 7.29-.59.67-.68 1.1 0 1.77 2.48 2.42 4.93 4.88 7.36 7.35.38.39.74.6 1.18.6.21 0 .44-.05.7-.14 1.25-.46 2.46-.69 3.61-.69 2.39 0 4.55.99 6.49 3 .65.67 1.34 1.31 1.97 1.99 2.28 2.45 3.14 5.34 2.1 8.53-.53 1.63.02 2.06 1.37 2.56a51.63 51.63 0 0 1 14.29 8.12c3.68 2.93 6.13 6.64 6.56 11.41.72 7.87-5.06 13.6-12.22 13.6-1.7 0-3.48-.32-5.27-1.02-3.75-1.46-6.46-4.1-8.73-7.29a53.28 53.28 0 0 1-7.04-13.21c-.27-.75-.55-1.08-1.08-1.08-.23 0-.49.06-.83.17a9.6 9.6 0 0 1-3.04.53 8.63 8.63 0 0 1-5.97-2.52 35.4 35.4 0 0 1-2.45-2.45c-2.43-2.73-3.23-5.84-1.89-9.32.35-.91.31-1.48-.4-2.17-2.41-2.33-4.79-4.7-7.12-7.12-.4-.41-.73-.61-1.07-.61-.34 0-.68.2-1.1.58a162 162 0 0 1-35.45 24.26 160.45 160.45 0 0 1-52.76 16.17c-3.98.5-7.98.84-11.98 1.16-1.31.1-1.69.65-1.63 1.87.08 1.59.02 3.19.02 4.79 0 .61.04 1.21 0 1.82-.2 2.53-.17 4.75 2.88 5.91 1.74.66 2.77 2.53 3.24 4.39.71 2.81.74 5.69 0 8.49a8.02 8.02 0 0 1-4.59 5.33c-1 .47-1.08.95-.64 1.91.59 1.29 1.14 1.7 1.63 1.7.86 0 1.56-1.27 2.09-1.27.32 0 .59.47.79 1.97.55 4.06.25 8.02-1.93 11.66-.21.36-.44.52-.67.52-2.53 0-6.04-19.79-10.68-19.96h-.07c-4.93 0-8.36 18.54-10.62 18.54-.24 0-.47-.21-.68-.67a16.82 16.82 0 0 1-1.21-9.53c.22-1.62.51-2.11.85-2.11.51 0 1.16 1.05 1.98 1.05.52 0 1.11-.43 1.76-1.82.49-1.05.29-1.51-.73-2.01-3.32-1.67-4.84-4.5-4.98-8.14-.04-.93-.04-1.87 0-2.81.18-3.71 1.76-6.56 5.21-8.15 1.01-.47 1.37-1.08 1.35-2.15-.05-3.08-.08-6.16 0-9.24.04-1.37-.35-1.97-1.8-2.07-6.15-.4-12.27-1.04-18.35-2.09a162.99 162.99 0 0 1-81.8-39.62c-.36-.31-.66-.47-.95-.47-.32 0-.63.18-.98.55-2.34 2.4-4.72 4.77-7.12 7.12-.68.66-.84 1.27-.5 2.19 1.38 3.74.57 7.02-2.29 9.79-.71.69-1.39 1.42-2.11 2.09a8.44 8.44 0 0 1-8.86 1.97 2.9 2.9 0 0 0-.88-.18c-.55 0-.82.35-1.12 1.14-2.41 6.39-5.59 12.35-10.55 17.15-2.91 2.81-6.33 4.29-10.11 4.29-1.06 0-2.16-.12-3.27-.36-7.41-1.58-11.2-9.26-8.52-16.84 1.7-4.81 5.37-7.81 9.43-10.46a50.72 50.72 0 0 1 11.16-5.66c1.16-.4 1.32-.87.96-2.04a8.59 8.59 0 0 1 2.09-9c.8-.84 1.61-1.66 2.46-2.44a8.64 8.64 0 0 1 9.2-1.8c.34.12.64.19.91.19.52 0 .94-.23 1.4-.71 2.1-2.18 4.27-4.29 6.41-6.43 1.62-1.62 1.63-1.63.09-3.36a159.6 159.6 0 0 1-18.97-26.14 162 162 0 0 1-20.88-60.95c-.54-4.09-.93-8.2-1.18-12.31-.08-1.27-.54-1.69-1.72-1.69h-.09a413.37 413.37 0 0 1-9.57.01h-.05c-.97 0-1.54.34-1.99 1.27a8.56 8.56 0 0 1-8.22 5.13h-2.94a8.41 8.41 0 0 1-8.05-5c-.31-.63-.59-.91-.99-.91-.23 0-.51.09-.86.26a51.73 51.73 0 0 1-17.26 4.76c-.62.06-1.24.09-1.85.09-3.8 0-7.29-1.22-10.26-3.84-6.6-5.82-5.93-14.96 1.43-19.83a16.19 16.19 0 0 1 9.18-2.67c1.25 0 2.52.12 3.81.33a55.51 55.51 0 0 1 14.97 4.49c.35.16.62.25.85.25.42 0 .69-.29 1.01-.92 1.62-3.21 4.25-4.96 7.92-4.99l1.96-.02a31 31 0 0 1 1.67.03c3.36.15 5.92 1.71 7.4 4.71.62 1.26 1.38 1.67 2.65 1.67h.17a162.86 162.86 0 0 1 9.07-.01h.09c1.2 0 1.62-.47 1.69-1.71a163.34 163.34 0 0 1 40.96-99.26c1.62-1.82 1.63-1.8-.04-3.48-2.14-2.14-4.31-4.25-6.41-6.43-.46-.47-.87-.68-1.36-.68-.28 0-.59.07-.95.19-1.14.4-2.24.6-3.3.6a8.76 8.76 0 0 1-6.14-2.65 58.1 58.1 0 0 1-2.22-2.22 8.56 8.56 0 0 1-2.06-9.01c.4-1.23.09-1.6-1-2a51.84 51.84 0 0 1-14.88-8.4c-4.5-3.65-7.15-8.3-6.37-14.24.86-6.52 5.87-10.68 12.04-10.68.96 0 1.95.1 2.95.31 4.96 1.03 8.41 4.12 11.22 8.1a53.65 53.65 0 0 1 6.96 13.07c.27.76.54 1.1 1.08 1.1.22 0 .48-.06.8-.16a9.65 9.65 0 0 1 3.05-.53c2.28 0 4.35.94 6.19 2.75.75.73 1.5 1.46 2.21 2.22 2.48 2.65 3.21 5.75 1.97 9.15-.44 1.22-.17 1.91.68 2.73 2.14 2.06 4.31 4.1 6.28 6.32.58.65 1.07.93 1.55.93.53 0 1.04-.34 1.66-.91 5.66-5.17 11.74-9.8 18.12-14.03a163.07 163.07 0 0 1 68.75-25.91c3.98-.55 7.97-.93 11.99-1.11 2.21-.1 2.35-.24 2.35-2.39 0-2.97-.03-5.94.02-8.91.02-1.12-.3-1.77-1.41-2.27a8.37 8.37 0 0 1-4.96-6.56 18.48 18.48 0 0 1-.05-5.75 8.3 8.3 0 0 1 4.75-6.71c1.23-.59 1.23-1.16.73-2.28-2.73-6.13-4.65-12.5-4.64-19.27 0-7.35 5.28-13.52 12.13-14.24.44-.05.87-.07 1.29-.07m37.48 177.15c.35 0 .7-.14 1.1-.42a10.4 10.4 0 0 1 4.73-1.83c1.19-.14 1.8-.74 2.41-1.68 7.81-11.98 17.68-21.85 30.07-29.11 1.06-.62 1.05-.92.14-1.69a118.01 118.01 0 0 0-30.21-18.67 117.54 117.54 0 0 0-35.75-8.91l-.84-.02c-1.24 0-1.28.27-.96 1.53 3.52 13.96 3.5 27.97.47 42-.18.82-.11 1.48.42 2.15a11.73 11.73 0 0 1 2.24 4.92c.22 1.07.79 1.4 1.76 1.6a64.15 64.15 0 0 1 23.3 9.72c.41.27.76.41 1.11.41m-75.54-.04c.35 0 .71-.13 1.11-.4a65.44 65.44 0 0 1 23.31-9.7c1.1-.22 1.59-.76 1.8-1.79a11.1 11.1 0 0 1 2.12-4.61c.61-.78.67-1.52.47-2.44a90 90 0 0 1 .4-41.51c.38-1.56.38-1.83-.99-1.83l-.7.01c-.19.01-.58.03-.96.07a117.94 117.94 0 0 0-47 14.87 118.37 118.37 0 0 0-17.69 12.37c-.79.66-1.45 1.18-.04 2.02 12.49 7.4 22.47 17.38 30.27 29.58.38.6.81.97 1.55 1.05 1.89.2 3.64.88 5.22 1.91a2 2 0 0 0 1.12.4m-79.03 46.66c.27 0 .62-.11.96-.2a89.22 89.22 0 0 1 41.98-.55c.34.07.65.12.95.12.52 0 1-.14 1.5-.54 1.4-1.1 3.01-1.83 4.76-2.19 1.02-.21 1.47-.79 1.67-1.76a65.34 65.34 0 0 1 9.71-23.3c.54-.8.51-1.46 0-2.26a11.2 11.2 0 0 1-1.78-4.58c-.18-1.27-.86-1.98-1.9-2.67-11.71-7.69-21.4-17.36-28.64-29.41-.53-.89-.8-1.33-1.11-1.33-.31 0-.64.4-1.3 1.2-16.01 19.28-25.07 41.42-27.22 66.54-.13.72.08.92.44.92m189.76-.62c.29 0 .59-.04.92-.12a81.69 81.69 0 0 1 19.13-2.2h.56c7.47 0 14.89.71 22.13 2.73.35.1.66.16.92.16.52 0 .79-.27.63-1.06-.26-2.42-.43-4.61-.75-6.79a117.3 117.3 0 0 0-26.76-59.9c-.43-.51-.73-.76-1.01-.76-.3 0-.57.3-.93.9-7.34 12.38-17.24 22.3-29.32 30.08-.68.44-1.15.9-1.28 1.78a13.05 13.05 0 0 1-2.04 5.36c-.47.7-.41 1.26.05 1.95a65.12 65.12 0 0 1 9.77 23.45c.19.98.65 1.51 1.68 1.71 1.68.34 3.27 1.03 4.62 2.1.55.44 1.08.62 1.67.62m21.02 20.03c-6.57 0-13.15-.73-19.74-2.14a5.59 5.59 0 0 0-1.12-.13c-.73 0-1.4.21-2.09.76a9.76 9.76 0 0 1-4.19 1.87c-1.15.22-1.66.81-1.88 1.93a63.88 63.88 0 0 1-9.57 23.01c-.55.83-.72 1.5-.11 2.38a12.52 12.52 0 0 1 1.96 5.21c.13.79.49 1.26 1.14 1.67 12.23 7.85 22.26 17.86 29.61 30.46.28.47.51.69.75.69s.49-.22.78-.61c.74-.96 1.55-1.86 2.3-2.81 14.87-18.69 23.27-39.96 25.42-63.92.18-.83 0-1.27-.7-1.27-.22 0-.48.04-.8.12a86.63 86.63 0 0 1-21.76 2.77m-182.73 65.65c.35 0 .66-.51 1.3-1.57a90.91 90.91 0 0 1 28.48-29.11c1.05-.68 1.7-1.42 1.89-2.68.24-1.59.83-3.1 1.7-4.44.59-.91.61-1.62 0-2.54a64.28 64.28 0 0 1-9.58-23c-.21-1.03-.67-1.65-1.74-1.91a12.5 12.5 0 0 1-5.03-2.38 1.57 1.57 0 0 0-1.05-.38c-.2 0-.41.03-.64.08a88.2 88.2 0 0 1-16.99 2.17 86.27 86.27 0 0 1-24.54-2.4 8.37 8.37 0 0 0-1.65-.33c-.66 0-.63.52-.54 2.1l.38 3.27c.13 1.09.23 2.19.39 3.27a117.05 117.05 0 0 0 26.24 58.56c.69.84 1.05 1.26 1.37 1.26M308.49 423l.34-.01a116.62 116.62 0 0 0 64.76-26.17c2.81-2.28 2.79-2.2-.27-4.14a92.11 92.11 0 0 1-28.21-28.03c-.52-.81-.99-1.53-2.08-1.66-1.89-.21-3.64-.9-5.19-1.98a1.64 1.64 0 0 0-.96-.36 2 2 0 0 0-1.1.42 64.93 64.93 0 0 1-23.62 9.79c-.92.18-1.28.61-1.46 1.48a11.38 11.38 0 0 1-2.14 4.78c-.65.82-.72 1.61-.48 2.6a82 82 0 0 1 2.08 20.23c.1 3.81-.16 7.87-.69 11.9a58.28 58.28 0 0 1-1.91 9.53c-.35 1.14-.1 1.63.94 1.63m-18.9-.04c1.27 0 1.3-.28.9-1.89a90.37 90.37 0 0 1-.56-40.7c.29-1.38.37-2.48-.59-3.66a10.04 10.04 0 0 1-1.88-4.36c-.19-.93-.69-1.36-1.64-1.55a64.53 64.53 0 0 1-23.46-9.75c-.39-.26-.74-.4-1.09-.4-.31 0-.63.11-.99.36a11.15 11.15 0 0 1-4.72 1.88c-1.21.18-1.92.76-2.57 1.77a91.04 91.04 0 0 1-28.64 28.27c-2.61 1.63-2.62 1.56-.27 3.5a117.97 117.97 0 0 0 28.48 17.41 115.65 115.65 0 0 0 36.49 9.1l.53.01m9.8-363.51c-.92 0-1.86.05-2.79.15-14.25 1.49-25 13.75-25.02 28.52 0 5.46.89 11.03 2.72 16.84a23.68 23.68 0 0 0-3.43 9.45 33.2 33.2 0 0 0 .12 10.16c.3 1.74.77 3.4 1.4 4.97a177.92 177.92 0 0 0-79.09 32.76 24.49 24.49 0 0 0-4.64-7.01c-.82-.88-1.6-1.64-2.3-2.32l-.35-.35a23.36 23.36 0 0 0-11.5-6.36 77.22 77.22 0 0 0-4.92-7.91c-5.34-7.56-12.09-12.23-20.05-13.88-1.95-.4-3.92-.61-5.87-.61a26.34 26.34 0 0 0-26.29 23.18c-1.38 10.43 2.73 20.12 11.56 27.29a65.09 65.09 0 0 0 10.57 6.98 23.4 23.4 0 0 0 5.98 11.13c.84.89 1.74 1.79 2.75 2.75a24.42 24.42 0 0 0 7.33 4.87 177.25 177.25 0 0 0-32.77 79.06 23.86 23.86 0 0 0-7.82-1.64c-.71-.03-1.45-.05-2.31-.05h-2.08c-4.63.04-8.87 1.3-12.46 3.61a78 78 0 0 0-9.84-2.25 38.46 38.46 0 0 0-6.14-.52c-6.28 0-12.04 1.7-17.11 5.06-7.28 4.82-11.79 12.33-12.36 20.6-.57 8.24 2.84 16.27 9.36 22.01a29.46 29.46 0 0 0 19.77 7.43c1.08 0 2.18-.06 3.28-.16a67.38 67.38 0 0 0 13.08-2.62 23.2 23.2 0 0 0 12.66 3.58h2.94c3.23 0 6.26-.57 9.01-1.67a177.35 177.35 0 0 0 22.25 63.07 174.15 174.15 0 0 0 10.52 15.99 24.08 24.08 0 0 0-6.75 4.35 62.2 62.2 0 0 0-3.24 3.19 23.32 23.32 0 0 0-6.05 11.23 77.4 77.4 0 0 0-5.61 3.35c-5.37 3.5-11.94 8.68-15.13 17.71a27.95 27.95 0 0 0 1.74 22.96 26.07 26.07 0 0 0 17.34 12.73c2.09.45 4.2.67 6.27.67 7.51 0 14.46-2.88 20.1-8.32a53 53 0 0 0 10.33-14.07c4-.87 7.71-2.85 10.91-5.85.63-.59 1.16-1.13 1.63-1.6l.67-.67a24.32 24.32 0 0 0 5.53-7.98 177.53 177.53 0 0 0 79.08 32.82 25.43 25.43 0 0 0-1.77 8.3 45.33 45.33 0 0 0 0 4.04c.11 2.93.68 5.69 1.67 8.22a23.8 23.8 0 0 0-.43 2.31c-.87 6.33-.05 12.23 2.42 17.55 2.58 5.54 7.84 8.99 13.72 8.99 2.49 0 6.42-.62 9.97-3.83a14.88 14.88 0 0 0 11.4 5.26c5.32 0 10.18-2.81 13-7.51 3.62-6.04 4.91-13.1 3.84-20.98-.09-.63-.19-1.24-.32-1.82.27-.73.51-1.48.71-2.25a31.57 31.57 0 0 0 .03-15.63c-.23-.92-.51-1.81-.84-2.67a176.03 176.03 0 0 0 53.61-17.07c8.9-4.49 17.41-9.73 25.45-15.68a25.24 25.24 0 0 0 4.37 6.79 50.7 50.7 0 0 0 3.41 3.44 23.3 23.3 0 0 0 10.99 5.84 77.32 77.32 0 0 0 5.02 8.05c4.26 5.99 9.24 10.03 15.24 12.37 3.41 1.32 6.94 2 10.48 2 7.56 0 14.76-3.14 19.76-8.62a26.63 26.63 0 0 0 6.78-20.66c-.76-8.37-4.89-15.76-11.93-21.36a66.87 66.87 0 0 0-10.29-6.77 23.58 23.58 0 0 0-5.9-10.99 47.8 47.8 0 0 0-1.53-1.56l-.61-.61a24.28 24.28 0 0 0-8.12-5.66c17.49-23.83 28.48-50.34 32.77-79.04a23.66 23.66 0 0 0 8.62 1.66h3.33c4.73 0 9.07-1.26 12.72-3.61a68.2 68.2 0 0 0 12.55 2.58c1.22.13 2.45.2 3.65.2 7.18 0 13.92-2.41 19.49-6.97a26.33 26.33 0 0 0 4.3-36.6c-5.71-7.42-14.1-11.5-23.64-11.5-.71 0-1.44.02-2.16.07a60.2 60.2 0 0 0-14.19 2.67 23.2 23.2 0 0 0-11.31-3.53c-.88-.05-1.67-.05-2.26-.05h-2.04c-3.23 0-6.26.58-9.02 1.68a177.1 177.1 0 0 0-32.78-79.05 24.14 24.14 0 0 0 7.55-5.11l.29-.29c.66-.65 1.34-1.33 2.06-2.07a23.62 23.62 0 0 0 6.21-11.3 75.81 75.81 0 0 0 5.93-3.57c4.81-3.2 10.77-7.9 14.15-15.9a27.87 27.87 0 0 0-.97-24.23 25.86 25.86 0 0 0-18.26-13.2 30.7 30.7 0 0 0-5.45-.5c-8.8 0-16.71 3.84-22.87 11.1a62.74 62.74 0 0 0-7.6 11.25 22.84 22.84 0 0 0-9.03 4.28 41.3 41.3 0 0 0-5.17 4.83 25.17 25.17 0 0 0-4.59 7 177.15 177.15 0 0 0-79.03-32.81 24.39 24.39 0 0 0 1.7-8.6c.03-1.52.03-2.7 0-3.85-.13-4.55-1.4-8.7-3.63-12.19a70.27 70.27 0 0 0 2.35-10.66c1.73-12.33-2.76-20.57-6.84-25.32-5.25-6.12-12.34-9.49-19.97-9.49zm23.89 169.35a107.18 107.18 0 0 0 1.16-23.04c5.16 1.3 10.17 2.98 15.01 5.05 4.31 1.84 8.47 3.96 12.47 6.34a107 107 0 0 0-15.47 17.12 78.84 78.84 0 0 0-13.16-5.46zm-77.04-11.67 1.74-1.01a102.7 102.7 0 0 1 25.72-10.33c-.46 7.63-.06 15.32 1.18 23.02a80.28 80.28 0 0 0-13.14 5.46 106.11 106.11 0 0 0-15.49-17.13zm124.4 51.35c6.36-4.62 12.09-9.8 17.15-15.51a100.58 100.58 0 0 1 11.34 27.45c-2.11-.11-4.26-.17-6.49-.17h-.63c-5.63.03-10.89.45-15.94 1.28a80.46 80.46 0 0 0-5.44-13.06zm-171.62 11.95a99.46 99.46 0 0 1 11.37-27.45 107.88 107.88 0 0 0 17.12 15.48 79.6 79.6 0 0 0-5.46 13.15 105.27 105.27 0 0 0-16.81-1.37c-2.07 0-4.15.06-6.22.19m171.63 62.75a77.87 77.87 0 0 0 5.46-13.16 107.55 107.55 0 0 0 23.03 1.19 99.68 99.68 0 0 1-11.36 27.44 106.6 106.6 0 0 0-17.13-15.47m-165.74-11.84a111.89 111.89 0 0 0 17.15-1.28 77.7 77.7 0 0 0 5.45 13.12 106.86 106.86 0 0 0-17.13 15.48 100.17 100.17 0 0 1-11.37-27.49c1.95.11 3.92.16 5.9.16zm118.44 51.48a79.1 79.1 0 0 0 13.08-5.43 106.74 106.74 0 0 0 15.51 17.12 99.81 99.81 0 0 1-27.49 11.37c.1-2.06.14-4.07.09-6.01a98.4 98.4 0 0 0-1.19-17.05m-77.1 11.69c5.73-5.08 10.9-10.8 15.47-17.11a79.05 79.05 0 0 0 13.15 5.45 106.52 106.52 0 0 0-1.17 23.04 101.54 101.54 0 0 1-27.46-11.38z" class="cls-10"/></g></g><g id="g693"><circle id="circle683" cx="299.06" cy="305.83" r="83.61" fill="#daceae" stroke="#002d55" stroke-miterlimit="10" stroke-width="19.61"/><path id="path685" fill="#8a5a45" stroke="#8a5a45" stroke-miterlimit="10" stroke-width="19.61" d="M248.1 306.21a50.66 50.66 0 0 0 50.66 50.66V255.54a50.66 50.66 0 0 0-50.66 50.66z" opacity=".6"/><path id="path687" fill="none" stroke="#002d55" stroke-miterlimit="10" stroke-width="19.61" d="M240.23 246.42a83.34 83.34 0 0 1 24.78 59.41 83.34 83.34 0 0 1-24.49 59.12" class="cls-4"/><path id="path689" fill="none" stroke="#002d55" stroke-miterlimit="10" stroke-width="19.61" d="M357.89 246.42a83.34 83.34 0 0 0-24.78 59.41 83.08 83.08 0 0 0 24.49 59.12" class="cls-4"/><path id="line691" fill="#8a5a45" stroke="#002d55" stroke-miterlimit="10" stroke-width="19.61" d="M299.06 222.22v167.22"/></g><path id="line695" fill="#8a5a45" stroke="#002d55" stroke-miterlimit="10" stroke-width="13.07" d="M206.16 305.83h185.8"/><path id="path697" fill="#002d55" stroke-width="0" d="m306.65 136.71.52 29.07c74.38 4.22 133.61 66.06 133.61 141.47s-59.2 137.23-133.56 141.47l-.64 29.07c91.23-3.44 164.14-78.47 164.14-170.55 0-92.08-72.87-167.06-164.06-170.55z" class="cls-10"/><g id="g737" clip-path="url(#clippath)"><g id="g735"><g id="g717"><path id="rect699" fill="#ab7e5e" stroke-width="0" d="M98.81 139.29h664.02v10.51H98.81z" class="cls-8"/><path id="rect701" fill="#ab7e5e" stroke-width="0" d="M98.81 160.7h664.02v10.51H98.81z" class="cls-8"/><path id="rect703" fill="#ab7e5e" stroke-width="0" d="M98.81 182.11h664.02v10.51H98.81z" class="cls-8"/><path id="rect705" fill="#ab7e5e" stroke-width="0" d="M98.81 203.53h664.02v10.51H98.81z" class="cls-8"/><path id="rect707" fill="#ab7e5e" stroke-width="0" d="M98.81 224.94h664.02v10.51H98.81z" class="cls-8"/><path id="rect709" fill="#ab7e5e" stroke-width="0" d="M98.81 246.35h664.02v10.51H98.81z" class="cls-8"/><path id="rect711" fill="#ab7e5e" stroke-width="0" d="M98.81 267.76h664.02v10.51H98.81z" class="cls-8"/><path id="rect713" fill="#ab7e5e" stroke-width="0" d="M98.81 289.18h664.02v10.51H98.81z" class="cls-8"/><path id="rect715" fill="#ab7e5e" stroke-width="0" d="M98.81 310.59h664.02v10.51H98.81z" class="cls-8"/></g><path id="rect719" fill="#ab7e5e" stroke-width="0" d="M98.81 332h664.02v10.51H98.81z" class="cls-8"/><path id="rect721" fill="#ab7e5e" stroke-width="0" d="M98.81 353.42h664.02v10.51H98.81z" class="cls-8"/><path id="rect723" fill="#ab7e5e" stroke-width="0" d="M98.81 374.83h664.02v10.51H98.81z" class="cls-8"/><path id="rect725" fill="#ab7e5e" stroke-width="0" d="M98.81 396.24h664.02v10.51H98.81z" class="cls-8"/><path id="rect727" fill="#ab7e5e" stroke-width="0" d="M98.81 417.66h664.02v10.51H98.81z" class="cls-8"/><path id="rect729" fill="#ab7e5e" stroke-width="0" d="M98.81 439.07h664.02v10.51H98.81z" class="cls-8"/><path id="rect731" fill="#ab7e5e" stroke-width="0" d="M98.81 460.48h664.02v10.51H98.81z" class="cls-8"/><path id="rect733" fill="#ab7e5e" stroke-width="0" d="M98.81 481.89h664.02v10.51H98.81z" class="cls-8"/></g></g><path id="path739" fill="#d00000" stroke-width="0" d="M205.22 280.38c-2.07 0-4.15.06-6.22.19a99.46 99.46 0 0 1 11.37-27.45c2.25 2.53 4.66 4.95 7.17 7.27a92.8 92.8 0 0 0-8.35 20.07c-1.33-.05-2.65-.08-3.97-.08m68.47 125.64a101.54 101.54 0 0 1-27.46-11.38c2.54-2.26 4.95-4.66 7.27-7.16a92.44 92.44 0 0 0 20.09 8.34c-.13 3.41-.11 6.81.09 10.19zm50.73-200.13c5.16 1.3 10.17 2.98 15.01 5.05 4.31 1.84 8.47 3.96 12.47 6.34a107.21 107.21 0 0 0-7.29 7.18 92.84 92.84 0 0 0-20.1-8.35c.13-3.42.11-6.83-.09-10.21zm68.61 125.64c2.03 0 4.06-.06 6.09-.18a99.68 99.68 0 0 1-11.36 27.44 105.14 105.14 0 0 0-7.19-7.29 92.88 92.88 0 0 0 8.33-20.05c1.38.06 2.76.08 4.13.08"/><g id="g749"><path id="path741" fill="#007125" stroke-width="0" d="m246.23 217.26 1.74-1.01a102.7 102.7 0 0 1 25.72-10.33c-.2 3.39-.23 6.78-.1 10.18a92.07 92.07 0 0 0-20.07 8.34 104.84 104.84 0 0 0-7.29-7.17z" class="cls-12"/><path id="path743" fill="#007125" stroke-width="0" d="M210.36 358.8a100.17 100.17 0 0 1-11.37-27.49 104.85 104.85 0 0 0 10.18.08 92.82 92.82 0 0 0 8.36 20.13 102.54 102.54 0 0 0-7.17 7.28" class="cls-12"/><path id="path745" fill="#007125" stroke-width="0" d="M351.92 394.65a99.81 99.81 0 0 1-27.49 11.37c.1-2.06.14-4.07.09-6.01a116 116 0 0 0-.03-4.18 93.03 93.03 0 0 0 20.12-8.36c2.33 2.51 4.75 4.92 7.3 7.18z" class="cls-12"/><path id="path747" fill="#007125" stroke-width="0" d="M388.89 280.46a92.9 92.9 0 0 0-8.32-20.03c2.53-2.34 4.95-4.77 7.21-7.32a100.58 100.58 0 0 1 11.34 27.45 124.5 124.5 0 0 0-6.49-.17h-.62c-1.06 0-2.09.04-3.12.07" class="cls-12"/></g><path id="line751" fill="none" stroke="#8a5a45" stroke-linecap="round" stroke-linejoin="round" stroke-width="10.46" d="m401.43 187.04 18.87 18.85" class="cls-3"/><path id="line753" fill="none" stroke="#8a5a45" stroke-linecap="round" stroke-linejoin="round" stroke-width="10.46" d="m456.63 318.31-.01-26.67" class="cls-3"/><path id="line755" fill="none" stroke="#8a5a45" stroke-linecap="round" stroke-linejoin="round" stroke-width="10.46" d="m418.98 409.29-18.85 18.86" class="cls-3"/></g><path id="path759" fill="#0091c9" stroke-width="0" d="M188.96 464.45c21.21-14.96 48.65-23.66 76.43-24.24 3.02-.06 6.14-.05 8.93-1 2.86-.98 5.1-2.86 7.43-4.55 11.73-8.48 27.34-12.53 42.82-13.51 11.67-.74 25.77 1.43 30.31 10.42 2.74 5.43 1 11.62-.79 17.32 6.21 1.99 13.27.02 18.92-2.91 5.65-2.92 10.61-6.79 16.65-9.12 6.04-2.33 13.85-2.75 18.79.97-2.21 19.03 7.76 38.74 25.65 50.7 4.19 2.8 9.33 6.25 8.36 10.66-.69 3.1-4.23 5.11-7.5 6.71-62.78 30.79-139 45.5-209.87 31.44-14.95-2.97-29.88-7.31-41.88-15.32-8.13-5.42-14.62-12.32-21.04-19.15l-12.06-12.84" class="cls-11"/><path id="path761" fill="#0091c9" stroke-width="0" d="M169.95 481.53c-14.9 11.24-38.1 9.21-50.02 23.58a26.29 26.29 0 0 0-5.57 21.09 14.07 14.07 0 0 0 2.35 6.02c1.81 2.43 4.64 3.86 7.46 4.96 11.81 4.62 24.85 4.87 37.51 4.07 6.18-.39 12.44-1.02 18.54.06 6.9 1.22 13.15 4.52 19.62 7.04 16.91 6.59 34.66 2.6 51.49-2.03 13.92-3.83 28.48-6.77 42.98-6.24 10.24.37 20.19 3.64 30.2 5.49 19.7 3.63 38.93 3.89 56.99-5.76a34.64 34.64 0 0 1 25.14-2.9c20.06 5.07 42.25 11.26 60.56 1.62 6.73-3.55 12.79-10.15 12.22-17.74-.42-5.48-4.24-10.18-8.7-13.41-17.69-12.8-45.18-7.48-60.34-23.2" class="cls-11"/><g id="g771"><path id="path763" fill="#002d55" stroke-width="0" d="M137.37 513.87s36.89 15.24 62.39-14.09c1.1-1.26 3.27-.48 3.14 1.15-.77 9.67 2.4 24.98 36.28 21.66 29.74-2.91 38.04-23.78 44-36.05.83-1.7 3.52-1.15 3.5.72-.08 10.08 5.61 25.69 41.35 26.4 25.82.51 38.51-10.11 44.29-17.75 1.74-2.31 5.51-2.06 6.69.55 4.66 10.31 18.17 26.79 56.94 26.94 0 0-35.61 8.31-60.55-9.53 0 0-20.81 15.3-49.46 15.16-11.37-.06-26.56-2.57-41.67-17.62 0 0-21.05 28.71-56.05 24.86-28.78-3.17-30.28-22.39-30.28-22.39s-23.5 20.49-60.55 0z" class="cls-10"/><path id="path765" fill="#2dcaee" stroke-width="0" d="M426.23 512.77c-35.05-13.44-32.36-39.43-29.95-49.14.55-2.23-1.07-4.42-3.47-4.76-27.65-4-27.7 31.29-59.39 31.29-36.88 0-11.77-37.22-2.82-49.1 1.32-1.75.19-4.18-2.06-4.47-10.14-1.29-34.09-1.63-52.67 19.19-13.98 15.66-19.09 44.5-41.49 44.33-24.56-.18-5.46-24.04 2.86-33.28 1.49-1.66.42-4.21-1.87-4.43-8.58-.81-26.02-.09-39.43 15.86-10.18 12.12-14.97 31.57-47.56 28.66 0 0 28.18 12.88 49.06-14.05 1.56-2.01 3.04-3.8 4.45-5.39 3.71-4.19 10.9-.83 9.53 4.47-2.84 11.03-1.1 23.09 20.91 21.84 39.81-2.26 40.1-34.06 57.2-52.93l.32-.36c4.5-4.87 12.85-.16 10.52 5.91-5.97 15.49-7.21 36.31 29.45 35.95 20.27-.2 31.82-8.19 39.4-16.05 4.92-5.1 13.78-3.1 15.95 3.49 3.74 11.35 14.01 23.58 41.06 22.97" class="cls-7"/><path id="path767" fill="#2dcaee" stroke-width="0" d="M322.65 470.76c.44-5.4 4.25-16.38 9.84-22.14 3.17-3.27 8.29-5.17 10.53-2.93 5.35 5.37-9.58 7.89-20.36 25.07z" class="cls-7"/><path id="path769" fill="#2dcaee" stroke-width="0" d="M237.77 475.09c1.54-3.45 6.57-9.86 11.56-12.48 2.83-1.49 6.63-1.68 7.57.24 2.26 4.62-8.1 3.2-19.14 12.24z" class="cls-7"/></g></g></svg>