<svg xmlns="http://www.w3.org/2000/svg" id="Layer_1" data-name="Layer 1" version="1.1" width="230.44" height="230.44"><defs id="defs4"><style id="style2">.cls-6{fill:#fff}.cls-4{fill:#c9202a}</style></defs><circle cx="-85.649" cy="138.591" r="112.14" transform="rotate(-76.72)" id="circle52" style="fill:#10143d"/><path d="M115.23 6.14A109.08 109.08 0 1 1 6.15 115.21 109.2 109.2 0 0 1 115.23 6.14m0-6.14a115.22 115.22 0 1 0 115.21 115.21A115.35 115.35 0 0 0 115.23 0Z" id="path54" style="fill:#ddb46b"/><circle cx="115.62" cy="115.21" r="87.35" id="circle68" style="fill:#2b3d83"/><path class="cls-6" d="M187.88 164.35a95.45 95.45 0 0 0-144.47 0 88 88 0 0 0 18.61 19.82 68.48 68.48 0 0 1 107.25 0 88.26 88.26 0 0 0 18.61-19.82z" id="path70" style="fill:#fff"/><path class="cls-4" d="M115.62 144.44a88.58 88.58 0 0 0-60 23.11 82.32 82.32 0 0 0 6.75 6.85 74.58 74.58 0 0 1 106.4 0 80.18 80.18 0 0 0 6-6.05c-16.12-14.78-36.95-23.91-59.15-23.91z" id="path72" style="fill:#c9202a"/><path class="cls-6" d="M43.39 66.08a95.45 95.45 0 0 0 144.47 0 88.05 88.05 0 0 0-18.61-19.82 68.48 68.48 0 0 1-107.25 0 87.83 87.83 0 0 0-18.61 19.82Z" id="path74" style="fill:#fff"/><path class="cls-4" d="M115.62 85.99a88.61 88.61 0 0 0 60-23.11 80.91 80.91 0 0 0-6.76-6.85 74.61 74.61 0 0 1-106.4 0 82.08 82.08 0 0 0-6 6.05c16.14 14.74 36.97 23.91 59.16 23.91z" id="path76" style="fill:#c9202a"/><path class="cls-4" d="M130.47 29.12a88.14 88.14 0 0 0-29.7 0v71.24H29.53a88.14 88.14 0 0 0 0 29.7h71.24v71.24a87.45 87.45 0 0 0 29.7 0v-71.24h71.24a87.45 87.45 0 0 0 0-29.7h-71.24z" id="path78" style="fill:#c9202a"/><path class="cls-6" d="M28.88 104.62H105V28.5c-2.89.35-5.72.84-8.51 1.46v66.15H30.37q-.93 4.19-1.49 8.51z" id="path80" style="fill:#fff"/><path class="cls-6" d="M202.33 125.82h-76.11v76.12q4.32-.53 8.51-1.46v-66.16h66.15a85.38 85.38 0 0 0 1.45-8.5z" id="path82" style="fill:#fff"/><path class="cls-6" d="M96.52 200.47c2.79.62 5.62 1.11 8.51 1.46v-76.11H28.88q.53 4.32 1.46 8.51h66.15z" id="path84" style="fill:#fff"/><path class="cls-6" d="M134.73 29.96q-4.19-.93-8.51-1.46v76.12h76.11a85.38 85.38 0 0 0-1.45-8.51h-66.15z" id="path86" style="fill:#fff"/></svg>