<svg xmlns="http://www.w3.org/2000/svg" xmlns:xlink="http://www.w3.org/1999/xlink" id="Layer_1" data-name="Layer 1" version="1.1" width="199.15" height="207.923"><defs id="defs12"><linearGradient id="linear-gradient" x1="168.33" y1="445.13" x2="168.33" y2="412.07" gradientUnits="userSpaceOnUse"><stop offset="0" stop-color="#fff" id="stop4"/><stop offset=".87" stop-color="#dcdbdb" id="stop6"/><stop offset="1" stop-color="#dcdbdb" id="stop8"/></linearGradient><linearGradient id="linear-gradient-2" x1="344.29" y1="445.13" x2="344.29" y2="412.07" xlink:href="#linear-gradient" gradientTransform="translate(-156.74 -311.647)"/><linearGradient xlink:href="#linear-gradient" id="linearGradient1170" gradientUnits="userSpaceOnUse" x1="168.33" y1="445.13" x2="168.33" y2="412.07" gradientTransform="translate(-156.74 -311.647)"/><style id="style2">.cls-6{fill:#fff}.cls-14{stroke-miterlimit:10}.cls-2{fill:#1c73bb}.cls-15{fill:#dd3736}.cls-14{fill:#ffd600}.cls-9{fill:#dcdbdb}.cls-14{stroke:#ffd600;stroke-width:1.84px}.cls-15{stroke:#dd3736;stroke-linecap:round;stroke-linejoin:round;stroke-width:2.75px}</style></defs><ellipse cx="99.57" cy="111.243" rx="98.02" ry="96.63" id="ellipse62" style="fill:#64b1e2"/><ellipse class="cls-2" cx="99.57" cy="117.363" rx="98.02" ry="89.1" id="ellipse64" style="fill:#1c73bb"/><ellipse class="cls-2" cx="99.57" cy="117.243" rx="98.02" ry="90.68" id="ellipse66" style="fill:#1c73bb"/><path d="M98.79 182.353c-36.65 0-66.47-26.78-66.47-59.7s29.82-59.69 66.47-59.69 66.47 26.76 66.47 59.67-29.82 59.72-66.47 59.72zm0-112.09c-32.62 0-59.16 23.51-59.16 52.39s26.54 52.39 59.16 52.39 59.16-23.5 59.16-52.39-26.54-52.41-59.16-52.41z" id="path68" style="fill:#0c5983"/><ellipse cx="99.57" cy="117.363" rx="62.81" ry="57.1" id="ellipse70" style="fill:none;stroke:#1c73bb;stroke-width:7.38000011px;stroke-miterlimit:10"/><path class="cls-6" d="M99.52 177.043a72.47 72.47 0 0 1-8.84-.55l.64-5.13a66 66 0 0 0 13.92.27h.1l.45 5.15h-.1c-2.05.17-4.13.26-6.17.26zm21-3.14-1.52-4.94a62 62 0 0 0 12.74-5.53l2.58 4.48a68.34 68.34 0 0 1-13.8 5.99zm-44.46-.86a67.74 67.74 0 0 1-13.55-6.54l2.75-4.37a62.59 62.59 0 0 0 12.52 6zm70.36-14.08-3.53-3.77a56 56 0 0 0 8.84-10.61l4.35 2.78a61.51 61.51 0 0 1-9.66 11.6zm-95.65-1.9a59.93 59.93 0 0 1-9.14-12l4.48-2.58a55 55 0 0 0 8.35 11zm111.71-23.41-4.93-1.54a49.14 49.14 0 0 0 2.24-13.54l5.16.13a54.4 54.4 0 0 1-2.47 14.95zm-126.57-2.63a54.42 54.42 0 0 1-1.74-13.67v-1.35l5.16.13v1.22a49.28 49.28 0 0 0 .26 5.14 51.17 51.17 0 0 0 1.31 7.28zm122.35-26.09a50.88 50.88 0 0 0-5.21-12.72l4.47-2.58a56.26 56.26 0 0 1 5.74 14zm-116.66-2.38-4.93-1.54a57.06 57.06 0 0 1 6.42-13.66l4.35 2.79a52 52 0 0 0-5.84 12.41zm103-21.32a59 59 0 0 0-10.81-8.68l2.75-4.37a64.55 64.55 0 0 1 11.75 9.43zm-88.34-1.75-3.54-3.76a65.48 65.48 0 0 1 12.12-8.95l2.57 4.48a60.29 60.29 0 0 0-11.15 8.23zm65-13a65.54 65.54 0 0 0-13.49-3.13l.64-5.13a70.69 70.69 0 0 1 14.62 3.44zm-41.12-.79-1.52-4.93a70.7 70.7 0 0 1 14.73-2.86l.45 5.15a65.76 65.76 0 0 0-13.61 2.68z" id="path72" style="fill:#fff"/><path d="M1.61 133.483h21.34a64.09 64.09 0 0 1 .22-33.06H1.78a81.5 81.5 0 0 0-.17 33.06z" id="path74" style="fill:url(#linearGradient1170)"/><path d="M178.26 117.353a64.28 64.28 0 0 1-2.06 16.12h21.34a81.5 81.5 0 0 0-.17-33.06h-21.4a64.29 64.29 0 0 1 2.29 16.94z" id="path76" style="fill:url(#linear-gradient-2)"/><path class="cls-6" d="M36.69 186.423a101 101 0 0 0 31.71 16.19l10.72-16.88a79.36 79.36 0 0 1-31.79-16.07z" id="path78" style="fill:#fff"/><path class="cls-6" d="M154.06 167.713a79 79 0 0 1-31.06 17.22l10.64 16.75a100.35 100.35 0 0 0 31.14-17.09z" id="path80" style="fill:#fff"/><path class="cls-6" d="m36.83 37.063.2 9 31.8-16.33.43-10.38a98.45 98.45 0 0 0-32.43 17.71z" id="path82" style="fill:#fff"/><path class="cls-9" d="M47.67 63.073a79.08 79.08 0 0 1 31.89-16.18l-10.73-17.19a100.7 100.7 0 0 0-31.8 16.33z" id="path84" style="fill:#dcdbdb"/><path class="cls-6" d="m132.9 20.353.32 10.27 5.11 13.89 26.11 3.36.36-8.71a98.52 98.52 0 0 0-31.9-18.81z" id="path86" style="fill:#fff"/><path class="cls-9" d="m133.26 30.643-10.65 17a78.76 78.76 0 0 1 31.16 17.36l10.71-17.16a99.74 99.74 0 0 0-31.22-17.2z" id="path88" style="fill:#dcdbdb"/><path class="cls-14" d="M63.62 136.923v-48.25l7.58-5v45.86h25v7.39z" id="path100" style="fill:#ffd600;stroke:#ffd600;stroke-width:1.84000003px;stroke-miterlimit:10"/><path class="cls-14" d="m140.76 105.953-15.82 50.62-7.24 4-20-54.63h8.09l14.22 38.28 12.76-38.28z" id="path102" style="fill:#ffd600;stroke:#ffd600;stroke-width:1.84000003px;stroke-miterlimit:10"/><path class="cls-15" id="polygon104" style="fill:#dd3736;stroke:#dd3736;stroke-width:2.75px;stroke-linecap:round;stroke-linejoin:round" transform="translate(-156.74 -311.647)" d="m192.75 346.66 2.35-33.64 2.36 33.64-2.36 41.54z"/><path class="cls-15" id="polygon106" style="fill:#dd3736;stroke:#dd3736;stroke-width:2.75px;stroke-linecap:round;stroke-linejoin:round" transform="translate(-156.74 -311.647)" d="m193.15 351.3-33.64-2.35 33.64-2.35 41.54 2.35z"/><path class="cls-15" id="polygon108" style="fill:#dd3736;stroke:#dd3736;stroke-width:2.75px;stroke-linecap:round;stroke-linejoin:round" transform="translate(-156.74 -311.647)" d="m192.51 349.14-16.58-19.08L195 346.64l20.76 23.26z"/><path class="cls-15" id="polygon110" style="fill:#dd3736;stroke:#dd3736;stroke-width:2.75px;stroke-linecap:round;stroke-linejoin:round" transform="translate(-156.74 -311.647)" d="m195.18 351.38-19.08 16.58 16.58-19.07 23.26-20.77z"/></svg>