<svg xmlns="http://www.w3.org/2000/svg" id="Layer_1" width="248.9" height="248.9" version="1.1"><defs id="defs4"><style id="style2">.cls-3{fill:#c19c74}.cls-4{fill:#e23737}</style></defs><g id="g194" transform="translate(-176 -175.6)"><g id="g192"><circle id="circle24" cx="300.4" cy="300" r="124.5"/><g id="g32"><path id="path26" fill="#fff" d="M199.7 260.6c-2.4-17.1 7.5-21.8 14-23.3 5.1-1 2.5 1.6 2.5 1.6-5.5 4-5.2 10.5-5.2 10.5.8 19 19.2 20.8 19.2 20.8l40.2 4h2.3l28.2 59.4 28.3-59.5h2.2l40.2-4s18.4-1.8 19.2-20.7c0 0 .3-6.6-5.2-10.6 0 0-2.6-2.6 2.4-1.6 6.6 1.6 16.5 6.3 14 23.3-1.3 5.5-5.7 27.9-29.7 33.6l-17.2 2.3s15.8 5.9 20.8 21.7l6.4 43.6a61 61 0 0 0 12.5 29h-44.9v-.1l-5.1-68.9-30 49.5H287l-29.9-49.5-5.2 69H207s9.8-10.5 13-32.2l6-40.8a37.2 37.2 0 0 1 20.7-21.3l-17.2-2.3c-24-5.7-28.4-28-29.8-33.6z"/><path id="path28" fill="#e23737" d="M205.6 268.2c3.1-.2-2-6.4.6-6.9s2.7 3 4.3 1.9c1.7-1.2 1.3-2.5 1-9.5a26.7 26.7 0 0 1-.5-4.3s-.3-6.6 5.2-10.5c0 0 2.6-2.7-2.4-1.6-6.6 1.5-16.5 6.2-14 23.2l.7 3.2s2 4.8 5.1 4.5z" class="cls-4"/><path id="path30" fill="#e23737" d="M396.2 268.2c-3.1-.2 2-6.4-.6-6.9s-2.7 3-4.3 1.9c-1.6-1.2-1.3-2.5-1-9.5l.5-4.3s.3-6.6-5.2-10.5c0 0-2.6-2.7 2.4-1.6 6.6 1.5 16.5 6.2 14.1 23.2l-.8 3.2s-2 4.8-5.1 4.5z" class="cls-4"/></g><g id="g84"><path id="rect34" fill="#c19c74" d="M253.3 246.3h97.5v9.5h-97.5z" class="cls-3"/><path id="rect36" fill="#c19c74" d="M253.3 237h97.5v3.9h-97.5z" class="cls-3"/><g id="g82"><g id="g58"><g id="g42"><path id="rect38" fill="#c19c74" d="M277 209.2h3.7v14.6H277z" class="cls-3"/><path id="rect40" fill="#c19c74" d="M273 212.8h11.6v3.8H273z" class="cls-3"/></g><path id="path44" fill="#c19c74" d="M263 231.8h-1c-6.2 0-8.1-6-8.3-9.2v-13h3.7v12.9c0 .7.6 5.5 4.6 5.5h1.6c1 0 1.8-.9 1.8-1.9v-2.3h3.8v2.3c0 3-2.5 5.5-5.5 5.6h-.7z" class="cls-3"/><path id="path46" fill="#c19c74" d="M286.4 231.8h-1c-6.2 0-8.1-6-8.3-9.2v-13h3.7v12.9c0 .7.6 5.5 4.6 5.5h1.6a2 2 0 0 0 1.9-1.9v-2.3h3.7v2.3c0 3-2.5 5.5-5.5 5.6h-.7z" class="cls-3"/><path id="path48" fill="#c19c74" d="m271.6 231.8-.7-.1c-3 0-5.4-2.5-5.4-5.6v-2.3h3.7v2.3c0 1 .8 1.9 1.8 1.9h4.1c1 0 1.9-.8 1.9-1.9v-2.3h3.7v2.3c0 3.1-2.5 5.6-5.6 5.6h-3.5z" class="cls-3"/><g id="g54"><path id="rect50" fill="#c19c74" d="M300.4 209.2h3.7v14.6h-3.7z" class="cls-3"/><path id="rect52" fill="#c19c74" d="M296.5 212.8H308v3.8h-11.5z" class="cls-3"/></g><path id="path56" fill="#c19c74" d="m295 231.8-.7-.1c-3 0-5.4-2.5-5.4-5.6v-2.3h3.7v2.3c0 1 .8 1.9 1.8 1.9h4.1c1 0 1.9-.8 1.9-1.9v-2.3h3.7v2.3c0 3.1-2.5 5.6-5.6 5.6H295z" class="cls-3"/></g><g id="g80"><g id="g64"><path id="rect60" fill="#c19c74" d="M323.8 209.2h3.7v14.6h-3.7z" class="cls-3"/><path id="rect62" fill="#c19c74" d="M319.9 212.8h11.5v3.8h-11.5z" class="cls-3"/></g><path id="path66" fill="#c19c74" d="M342.5 231.8h-1.2l-.6-.1c-3 0-5.4-2.5-5.4-5.6v-2.3h3.7v2.3c0 1 .8 1.9 1.8 1.9h1.7c4 0 4.5-4.8 4.5-5.5v-12.8h3.7v12.9c-.1 3.2-2.1 9.2-8.2 9.2z" class="cls-3"/><path id="path68" fill="#c19c74" d="M319 231.8h-1l-.7-.1c-3 0-5.4-2.5-5.4-5.6v-2.3h3.7v2.3c0 1 .8 1.9 1.8 1.9h1.7c4 0 4.5-4.8 4.5-5.5v-12.8h3.7v12.9c-.1 3.2-2.1 9.2-8.2 9.2z" class="cls-3"/><path id="path70" fill="#c19c74" d="m332.8 231.8-3.5-.1c-3 0-5.5-2.5-5.5-5.6v-2.3h3.7v2.3c0 1 .8 1.9 1.8 1.9h4.1c1 0 1.9-.8 1.9-1.9v-2.3h3.7v2.3c0 3-2.5 5.5-5.5 5.6h-.7z" class="cls-3"/><g id="g76"><path id="rect72" fill="#c19c74" d="M300.4 209.2h3.7v14.6h-3.7z" class="cls-3"/><path id="rect74" fill="#c19c74" d="M296.4 212.8H308v3.8h-11.6z" class="cls-3"/></g><path id="path78" fill="#c19c74" d="m309.4 231.8-3.5-.1c-3 0-5.5-2.5-5.5-5.6v-2.3h3.7v2.3c0 1 .8 1.9 1.8 1.9h4.1c1 0 1.9-.8 1.9-1.9v-2.3h3.7v2.3c0 3-2.5 5.5-5.5 5.6h-.7z" class="cls-3"/></g></g></g><path id="polygon86" d="M251.9 390.7h-49.2l-4 7.7H252z"/><path id="polygon88" d="M348.8 390.7H398l4 7.7h-53.2z"/></g></g></svg>