<svg xmlns="http://www.w3.org/2000/svg" xmlns:xlink="http://www.w3.org/1999/xlink" id="Layer_1" width="333.168" height="393.718" data-name="Layer 1" viewBox="0 0 333.168 393.718"><defs id="defs4519"><clipPath id="clippath"><path id="path4500" d="M840.08 298.9c-27.76 4.11-53.83-16.13-58.13-45.13s14.79-55.93 42.55-60.04 53.83 16.13 58.13 45.13-14.79 55.93-42.55 60.04" class="cls-1"/></clipPath><clipPath id="clippath-1"><path id="polygon4503" d="m274.79 459.61-20.18 4.13-20.18-4.13-.34-.1-148.8-45.19 14.36 31.21-17.37 32.46 172.33 56.39 172.33-56.39-17.37-32.46 14.36-31.21z" class="cls-1"/></clipPath><clipPath id="clippath-2"><path id="rect4506" d="M32.19 271.35h425.73v283.82H32.19z" class="cls-1"/></clipPath><clipPath id="clippath-3"><path id="path4510" d="M344.4 301.48c-22.94 3.4-44.49-13.33-48.04-37.3-3.55-23.96 12.22-46.23 35.16-49.62 22.94-3.4 44.49 13.33 48.04 37.3 3.55 23.96-12.22 46.23-35.16 49.62" class="cls-1"/></clipPath><clipPath id="clippath-4"><path id="path4513" d="M809.28 947.74c-45.41 6.73-88.08-26.4-95.11-73.84s24.2-91.51 69.61-98.24 88.08 26.4 95.11 73.84-24.2 91.51-69.61 98.24" class="cls-1"/></clipPath><clipPath id="clippath-5"><path id="path4516" d="M641.08 1061.05c-26.22 0-47.93-20.51-49.43-46.7l-1.19-20.84c-.39-6.85.47-13.63 2.56-20.17l34.25-107.19c6.69-20.95 25.96-35.02 47.95-35.02h20.19c24.86 0 46.28 18.55 49.82 43.16l9.42 66.24h-39.99l-10.94-51.95c-1.31-6.8-7.28-11.74-14.2-11.74h-.4l-13.28.37c-6.35.17-11.79 4.4-13.52 10.52l-12.09 42.68h36.78v46.55h-49.97l-1.42 5a41.7 41.7 0 0 0-.47 20.91l.16.7c2.02 8.6 9.61 14.61 18.44 14.61.42 0 .85-.01 1.27-.04l101.59-6.73v46.67l-114.23 2.95c-.43.01-.86.02-1.3.02" class="cls-1"/></clipPath><linearGradient id="linear-gradient" x1="740.46" x2="740.46" y1="565.39" y2="171.66" gradientUnits="userSpaceOnUse"><stop id="stop4493" offset="0" stop-color="#fff"/><stop id="stop4495" offset=".63" stop-color="#e0e8ea"/><stop id="stop4497" offset="1" stop-color="#d4e0e3"/></linearGradient><linearGradient xlink:href="#linear-gradient" id="linear-gradient-2" x1="262.06" x2="262.06" y1="509.31" y2="198.88"/><linearGradient xlink:href="#linear-gradient" id="linearGradient11353" x1="740.46" x2="740.46" y1="565.39" y2="171.66" gradientUnits="userSpaceOnUse"/><style id="style4491">.cls-1{fill:none}.cls-4{fill:#121a34}.cls-11{fill:#434c67}.cls-12{fill:#fff}.cls-13{fill:#d4e0e3}</style></defs><g id="g4583" transform="translate(-573.876 -171.662)"><path id="path4521" d="M906.27 231.07c-2.75-18.39-12.58-34.61-27.66-45.69s-33.62-15.68-52.21-12.95c-18.58 2.72-34.98 12.45-46.17 27.37-9.25 12.34-14.02 27.01-13.85 42.11l-3.8 83.08c-12.91.79-27.38-1.5-37.75-12.31-2.08-3.06-9.98-14.19-19.56-21.58 1.18-7.71 7.98-26.25 45.04-38.2l5.49-1.77.44-5.7c.11-1.38.37-8.57-5.09-14.48-2.73-2.96-7.84-6.51-16.71-6.63-5.46-.08-11.08 1.27-16.17 3.9-9.17 4.74-16.85 8.03-20.54 8.81-2.05.43-4.4-.02-7.37-.58-2.25-.43-4.8-.92-7.6-1.05-11.81-.57-20.4 5.08-27.99 10.07l-1.27.83c-6.93 4.53-12.37 10.54-16.19 17.86-7.06 13.55-9.12 28.93-10.28 42.63-3.89 5.2-12.11 18.34-14.03 38.57-3.37.81-3.72.91-4.14 1.04-15.96 5.14-27.55 15.43-32.62 28.97-4.39 11.72-2.61 24.1 4.88 33.96 2.93 3.86 7.76 5.82 12.6 5.12 4.88-.7 8.96-3.97 10.67-8.54 1.14-3.03 3.43-6.72 10.27-7.22 1.93 13.39 8.32 41.96 29.17 69.09-3.42 4.42-7.26 10.93-8.12 18.54-24.48 8.38-39.64 19.99-39.64 32.82 0 25.54 60.04 46.24 134.1 46.24s134.1-20.7 134.1-46.24c0-11.33-11.83-21.71-31.44-29.75l-1.95-4.91c-.78-1.96-8.53-19.91-40.77-46.18-17.18-14-28.58-34.71-35.03-49.29 6.19 1.46 13.24 2.17 20.14.8 7.06-1.4 15.28-7.1 27.71-15.73 16.62-11.54 39.39-27.34 65.57-35.63 6.38-2.02 10.61-7.83 10.53-14.46-.08-6.65-4.48-12.38-10.93-14.26-2.96-.86-6.22-1.64-9.75-2.27 32.1-10.25 53.03-42.32 47.93-76.42z" style="fill:url(#linearGradient11353)"/><path id="path4523" d="M771.68 529.71c-.17 4.81-.86 7.95-.86 7.95-8.35.17-10.71-6.2-10.71-6.2-.76 6.24.17 17.29.17 17.29-6.05-1.42-10.46-8.51-10.46-8.51l-1.79 8.79c-7.2-5.12-9.39-12.56-10.06-16.53-30.38 3.47-52.24 8.82-51.91 13.23.4 5.43 34.22 7.4 75.54 4.38 41.32-3.01 74.5-9.86 74.11-15.29-.36-4.92-28.11-6.99-64.02-5.11z" class="cls-4"/><g id="g4581"><path id="path4525" d="M596.3 408.45c2.52-6.8 9.08-15.13 26.17-12.48 0 0 1.85 41.93 32.68 78.3 0 0-23.43 20.96-1.85 38.23l.62-11.71s2.47 8.02 12.95 9.86l-1.85-10.48s4.32-3.08 7.4-7.4c0 0 20.96 28.98 38.84 27.13s19.11-3.08 25.28-16.65l4.32 1.85s-7.4 12.33-7.4 24.66c0 0 1.23-1.85 3.7-4.32 0 0 0 12.95 8.63 17.26 0 0 .62-8.02 1.85-12.95 0 0 2.47 6.78 9.25 9.86 0 0-.62-9.25 2.47-16.65 0 0 3.08 3.7 6.17 4.93 0 0 3.7-7.4 1.23-20.35 0 0 5.55-2.47 6.78-11.71 0 0 3.08 3.08 14.8 3.08l34.53-4.93s-6.78-17.26-38.23-43.16c-31.44-25.9-44.39-71.52-44.39-71.52s17.88 10.48 33.29 7.4c13.64-2.73 47.55-37.31 92.34-51.65 6.15-1.97 6-10.7-.2-12.51-15.67-4.59-40.34-6.84-69.62 8.06 0 0-50.26 22.2-78.01-8.02 0 0-10.48-16.03-21.58-22.81 0 0-3.7-33.29 51.17-51.17 0 0 .91-11.84-13.31-12.04-4.2-.06-8.33 1.02-12.06 2.96-5.73 2.99-16.57 8.37-22.72 9.69-5.99 1.28-11.32-1.19-17.19-1.47-9.52-.46-16.53 4.6-24.08 9.59-5.71 3.77-10.14 8.71-13.28 14.8-6.65 12.88-8.44 28.2-9.56 42.43 0 0-13.56 14.8-14.18 42.54 0 .02-9.14 2.2-9.71 2.38-12.1 3.94-22.69 11.91-27.19 24.07-3.5 9.45-1.86 18.75 3.68 26.13 2.25 3 6.97 2.26 8.28-1.26z" class="cls-4"/><path id="path4527" d="M663.16 263.42s5.55-4.93 10.48-3.7 9.86 2.47 11.71-1.85c0 0-4.32 3.08-7.4.62-3.08-2.47-12.33-3.7-14.8 4.93z" class="cls-12"/><path id="path4529" d="m680.29 272.05 8.2-4.93h6.89s17.72-12.95 44.23-21.58c0 0-4.82-1.23-11.97 0s-37 11.1-47.35 26.51" class="cls-12"/><path id="path4531" d="M658.85 296.71s7.4-4 4.32-14.64-11.1-9.4-13.56-4.47c-2.47 4.93-8.02 12.95-1.85 20.96 0 0 4.93 4.32 17.26 3.7 0 0-25.9 1.23-34.53 52.41-8.63 51.17 22.81 116.53 68.44 145.51 0 0 14.18 8.63 27.74-1.85 0 0-14.18-17.26-19.73-31.44 0 0 32.68 31.44 48.09 31.44s4.32-43.78-12.95-66.59c-17.26-22.81-32.68-33.91-37.61-72.75s-4.32-49.32-17.88-55.49c0 0-14.18-1.85-27.74-6.78z" class="cls-12"/><path id="path4533" d="M720.81 336.48s29.59 18 65.97 5.48c0 0-38.23 22.69-65.97-5.48" class="cls-11"/><path id="path4535" d="M704.47 358.99c-4.93-38.84-4.32-49.32-17.88-55.49 0 0-5.21-.68-12.33-2.31 15.58 4.22 20.8 8.73 21.45 62.98.65 54.26 30.68 66.58 30.68 66.58h-23.31c41.43 19.27 46.42 52.85 46.62 66.62 1.93.61 3.73.96 5.33.96 15.41 0 4.32-43.78-12.95-66.59-17.26-22.81-32.68-33.91-37.61-72.75" class="cls-11"/><path id="path4537" d="m677.21 264.46-1.43-.57c-.34 2.35-1.69 4.1-3.31 4.1s-3.09-1.92-3.35-4.42c-.47.26-.94.53-1.36.79-.24.76-.3 1.6-.12 2.47.38 1.93 1.94 3.47 3.86 3.84 3.15.6 5.9-1.8 5.9-4.84 0-.48-.07-.94-.2-1.37z" class="cls-12"/><path id="path4539" d="M673.78 263.09c-.71-.28-1.46-.39-2.21-.34 0 .1-.02.21-.02.31 0 1.36.55 2.47 1.23 2.47s1.19-1.04 1.23-2.35l-.24-.09z" class="cls-12"/><path id="path4541" d="M739.62 245.54c-22.03 1.6-51.13 21.58-51.13 21.58h6.89s17.72-12.95 44.23-21.58z" class="cls-13"/><path id="path4543" d="m687.21 353.41-3.71-25.75c-1.01-7-7-12.19-14.07-12.19h-6.63c-6.19 0-11.66 4-13.54 9.89l-11.25 35.21c-.6 1.87-.85 3.83-.73 5.79l.39 6.85c.43 7.52 6.76 13.34 14.29 13.15l35.27-.91v-10.59l-30.9 2.05c-4.17.28-7.93-2.5-8.89-6.57l-.05-.23c-.62-2.65-.56-5.41.18-8.03l8.77-30.96a7.07 7.07 0 0 1 6.61-5.14l4.36-.12c3.46-.1 6.49 2.33 7.14 5.74l4.19 21.83h8.58z" class="cls-11"/><path id="rect4545" d="M647.08 348.08h19.98v10.65h-19.98z" class="cls-11"/><path id="path4547" d="M643.8 395.74c2.3 11.44 6.23 23.17 11.71 34.73 11.76 24.84 29.82 46.32 49.6 59.02-3.63-5.64-7.28-12.05-9.65-18.12l9.26-6.18c-5.85-4.77-23.8-21.28-60.91-69.46z" class="cls-13"/><path id="path4549" d="M784.46 313.73v-64.24h-3.08v65.46c.96-.43 1.99-.84 3.08-1.22" class="cls-11"/><path id="path4551" d="M778.3 316.51v-67.02h-3.08v69.03c.92-.68 1.95-1.36 3.08-2z" class="cls-11"/><path id="path4553" d="M821.45 311.89v-62.41h-3.08v62.01c1.01.12 2.04.25 3.08.4" class="cls-11"/><path id="path4555" d="M812.21 249.49v61.42c1.01.07 2.03.15 3.08.25v-61.67z" class="cls-11"/><path id="path4557" d="M809.12 310.73v-61.25h-3.08v61.17c1 0 2.03.03 3.08.07z" class="cls-11"/><path id="path4559" d="M802.96 310.68v-61.2h-3.08v61.33c1-.06 2.03-.11 3.08-.13" class="cls-11"/><path id="path4561" d="M796.79 311.07v-61.58h-3.08v61.98c.99-.15 2.02-.29 3.08-.4" class="cls-11"/><path id="path4563" d="M790.63 312.03v-62.54h-3.08v63.28c.98-.27 2.01-.52 3.08-.74" class="cls-11"/><circle id="circle4565" cx="836.71" cy="245.08" r="61.69" class="cls-4"/><path id="path4567" d="M840.08 298.9c-27.76 4.11-53.83-16.13-58.13-45.13s14.79-55.93 42.55-60.04 53.83 16.13 58.13 45.13-14.79 55.93-42.55 60.04" class="cls-12"/><path id="path4569" d="M882.63 238.85c-4.3-29-30.37-49.24-58.13-45.13-.61.09-1.21.21-1.81.32l2.47 5.51 26.51 5.55-3.7 10.48 18.5-1.23-4.32 14.8 14.18 3.08-3.08 16.65 9.59 4.59c.56-4.74.53-9.64-.21-14.61z" class="cls-13"/><g id="g4579" style="clip-path:url(#clippath)"><path id="path4571" d="M875.37 285.5c-6.66-21.24-15.45-38.47-26.13-51.2-8.41-10.02-18.01-17.28-28.53-21.59-17.91-7.34-32.65-3.55-32.79-3.51l-2.28-8.39c.69-.19 17.28-4.57 37.81 3.63 11.94 4.77 22.76 12.83 32.17 23.94 11.56 13.65 21 31.99 28.05 54.52l-8.29 2.6z" class="cls-4"/><path id="path4573" d="M840.33 262.84c-.08.22-.15.44-.23.66-2.62 7.76-4.56 22.63 13.9 31.75-5.89-8.72-12.72-24.4.22-39.1l40.61-30.96-5.17-6.78-41.25 31.45-.27.3c-3.53 3.93-6.12 8.13-7.75 12.53-.02.05-.03.09-.05.14z" class="cls-4"/><path id="path4575" d="M847.26 179.54c-1.5 23.43-9.72 27.05-29.6 35.77-8.44 3.71-17 7.13-23.95 13.38 0 0-15.65 10.27-10.1 32.3 1.17-9.22 5.91-22.86 22.71-31.1 5.39-2.65 10.37-4.83 14.77-6.77 20.48-8.99 32.85-14.42 34.68-43.03l-8.51-.54z" class="cls-4"/><path id="path4577" d="M816.96 247.17c-4.87 5.31-18.82 22.78-8.87 38.89 1.78-15.51 9.45-29.66 21.75-39.1l54.97-42.2-5.19-6.76-54.97 42.2a64 64 0 0 0-7.68 6.98z" class="cls-4"/></g></g></g></svg>