<svg xmlns="http://www.w3.org/2000/svg" id="Layer_1" data-name="Layer 1" version="1.1" width="289.481" height="207.83"><defs id="defs4"><style id="style2">.cls-20,.cls-21{fill:none}.cls-18,.cls-20,.cls-21{stroke-linecap:round;stroke-linejoin:round}.cls-18{stroke:#f65d32}.cls-20{stroke:#f2d425}.cls-21{stroke:#00aedc}.cls-18,.cls-20{stroke-width:5.22px}.cls-21{stroke-width:5.17px}</style></defs><path d="M186.62 0c-1.67 0-3.32.05-5 .12H26.1A26.1 26.1 0 0 0 0 26.22v155.51a26.1 26.1 0 0 0 26.1 26.1h155.52v-.2c1.65.07 3.3.12 5 .12a103.88 103.88 0 0 0 0-207.75z" id="path336"/><path class="cls-18" id="line338" style="stroke:#f65d32;stroke-width:5.21999979px;stroke-linecap:round;stroke-linejoin:round" d="M127.48 180.31H24.53"/><path class="cls-18" id="line340" style="stroke:#f65d32;stroke-width:5.21999979px;stroke-linecap:round;stroke-linejoin:round" d="M106.6 154.95H24.53"/><path class="cls-18" id="line342" style="stroke:#f65d32;stroke-width:5.21999979px;stroke-linecap:round;stroke-linejoin:round" d="M96.16 129.6H24.53"/><path class="cls-18" id="line344" style="stroke:#f65d32;stroke-width:5.21999979px;stroke-linecap:round;stroke-linejoin:round" d="M51.27 104.25H24.53"/><path class="cls-18" id="line346" style="stroke:#f65d32;stroke-width:5.21999979px;stroke-linecap:round;stroke-linejoin:round" d="M96.16 78.89H24.53"/><path class="cls-18" id="line348" style="stroke:#f65d32;stroke-width:5.21999979px;stroke-linecap:round;stroke-linejoin:round" d="M106.6 53.54H24.53"/><path id="polyline350" style="fill:none;stroke:#f65d32;stroke-width:5.21999979px;stroke-linecap:round;stroke-linejoin:round" transform="translate(-600.38 -814.43)" d="M624.91 842.62h108.17"/><path class="cls-20" d="M230.62 103.88c.18-9.44-.73-15.24-3.5-25.87l-5.15-.7c-15.77-3.46-26.61-16.48-41.47-21.94a114 114 0 0 0-26-5.82" id="path352" style="fill:none;stroke:#f2d425;stroke-width:5.21999979px;stroke-linecap:round;stroke-linejoin:round"/><path class="cls-20" d="m253.74 140.68-10.12-7.22a31.39 31.39 0 0 0-6.41-2.78l-8.83-1.31a98.76 98.76 0 0 0 1.88-12.36" id="path354" style="fill:none;stroke:#f2d425;stroke-width:5.21999979px;stroke-linecap:round;stroke-linejoin:round"/><path class="cls-20" d="M154.51 157.92a113.41 113.41 0 0 0 26-5.81c14.86-5.46 25.7-18.48 41.47-21.94a17.23 17.23 0 0 1 5.83-.73" id="path356" style="fill:none;stroke:#f2d425;stroke-width:5.21999979px;stroke-linecap:round;stroke-linejoin:round"/><path class="cls-20" d="m256.91 66.94-13.29 7.08a31.6 31.6 0 0 1-5.12 2.36l-11.41 1.63a106.58 106.58 0 0 0-13.17-30.22" id="path358" style="fill:none;stroke:#f2d425;stroke-width:5.21999979px;stroke-linecap:round;stroke-linejoin:round"/><path class="cls-20" d="M228.42 129.37c-3.23 17-8.81 28.09-8.81 28.09" id="path360" style="fill:none;stroke:#f2d425;stroke-width:5.21999979px;stroke-linecap:round;stroke-linejoin:round"/><path class="cls-20" id="line362" style="fill:none;stroke:#f2d425;stroke-width:5.21999979px;stroke-linecap:round;stroke-linejoin:round" d="M231.3 104.23h32.73"/><path class="cls-20" id="line364" style="fill:none;stroke:#f2d425;stroke-width:5.21999979px;stroke-linecap:round;stroke-linejoin:round" d="M194.6 104.23h37.3"/><path class="cls-20" id="line366" style="fill:none;stroke:#f2d425;stroke-width:5.21999979px;stroke-linecap:round;stroke-linejoin:round" d="M155.27 104.23h21.04"/><path class="cls-20" id="line368" style="fill:none;stroke:#f2d425;stroke-width:5.21999979px;stroke-linecap:round;stroke-linejoin:round" d="M67.82 104.23h69.03"/><path class="cls-21" d="M107.34 117.11a79.83 79.83 0 1 0 .19-27.48l-.41 3.1" id="path370" style="fill:none;stroke:#00aedc;stroke-width:5.17000008px;stroke-linecap:round;stroke-linejoin:round"/><path class="cls-21" d="M173.29 85.83h-30.67l-2-15.24h39.64l1.19 8.9 2.11 12.7 5.08 34.56v4.82a6.68 6.68 0 0 1-2.31 3.45c-3.6 2.76-9.5 1.12-13.19-3.68-3.69-4.8-3.76-10.93-.16-13.7a7.11 7.11 0 0 1 5.75-1.19" id="path372" style="fill:none;stroke:#00aedc;stroke-width:5.17000008px;stroke-linecap:round;stroke-linejoin:round"/><path class="cls-21" d="m144.35 94.22 5.08 34.56v4.79a6.72 6.72 0 0 1-2.3 3.45c-3.6 2.77-9.51 1.12-13.2-3.68-3.69-4.8-3.76-10.93-.16-13.7a7.12 7.12 0 0 1 5.75-1.18" id="path374" style="fill:none;stroke:#00aedc;stroke-width:5.17000008px;stroke-linecap:round;stroke-linejoin:round"/></svg>