<svg xmlns="http://www.w3.org/2000/svg" id="Layer_1" data-name="Layer 1" version="1.1" width="263.393" height="330.273"><defs id="defs12"><linearGradient id="linear-gradient" x1="117.1" y1="592.28" x2="263.69" y2="592.28" gradientUnits="userSpaceOnUse"><stop offset="0" stop-color="#d8519d" id="stop7"/><stop offset="1" stop-color="#d8519d" stop-opacity="0" id="stop9"/></linearGradient><clipPath id="clip-path"><path id="rect4" style="fill:none" d="M-404.47 323.11h226.4v216.6h-226.4z"/></clipPath><style id="style2">.cls-12{fill:#4ac1c0}.cls-14{fill:#210f11}.cls-15{fill:#e873ac}.cls-16{fill:#afdfe3}.cls-19{fill:#72cbcd}</style></defs><circle cx="127.747" cy="189.633" r="83.58" id="circle500" style="fill:#f15949"/><path class="cls-19" d="M170.677 213.993a47.68 47.68 0 0 1-7.44 9.27 48.35 48.35 0 0 1-9.52 7.18 47.68 47.68 0 0 1-11.23 4.63 47 47 0 0 1-12.4 1.63 46.1 46.1 0 0 1-18.6-3.78 48.14 48.14 0 0 1-15.14-10.32 49.54 49.54 0 0 1-10.25-15.2 47.65 47.65 0 0 1 0-37.2 49.59 49.59 0 0 1 10.25-15.21 48.28 48.28 0 0 1 15.14-10.3 46.1 46.1 0 0 1 18.6-3.78 47 47 0 0 1 12.4 1.63 47.68 47.68 0 0 1 11.23 4.63 47.13 47.13 0 0 1 9.52 7.24 49.34 49.34 0 0 1 7.44 9.34l-14.61 14.62a29.33 29.33 0 0 0-4.12-7.18 26.37 26.37 0 0 0-5.94-5.61 28 28 0 0 0-7.44-3.66 28 28 0 0 0-19.38.91 28 28 0 0 0-8.91 6.06 29.54 29.54 0 0 0-6 8.94 28.31 28.31 0 0 0 0 21.93 29.29 29.29 0 0 0 6 8.94 28 28 0 0 0 28.32 7 28 28 0 0 0 7.44-3.66 27.22 27.22 0 0 0 5.94-5.54 28.41 28.41 0 0 0 4.12-7.12z" id="path502" style="fill:#72cbcd"/><path class="cls-16" d="M111.997 61.623s-49.82-4.74-71.49 50.14c0 0-7.38-86.56 71.49-50.14z" id="path504" style="fill:#afdfe3"/><path class="cls-19" d="M121.807 55.993s-61.85-37.56-101.62 11L.277 79.183s-7.73-50.81 58.54-54.12c.03 0 44.95-10.68 62.99 30.93z" id="path506" style="fill:#72cbcd"/><path class="cls-12" d="M124.097 39.903s-14.13-54.41-66.42-36.16l-6.9 5.83-2.24 3.26s39.89-11.42 75.56 27.07z" id="path508" style="fill:#4ac1c0"/><path class="cls-16" d="M151.427 61.623s49.82-4.74 71.49 50.14c0 0 7.36-86.56-71.49-50.14z" id="path510" style="fill:#afdfe3"/><path class="cls-19" d="M141.607 55.993s61.86-37.56 101.62 11l19.89 12.15s7.73-50.81-58.55-54.12c0 .04-44.91-10.64-62.96 30.97z" id="path512" style="fill:#72cbcd"/><path class="cls-12" d="M139.327 39.903s14.13-54.41 66.42-36.16l6.89 5.83 2.25 3.26s-39.89-11.42-75.56 27.07z" id="path514" style="fill:#4ac1c0"/><path class="cls-14" id="rect516" style="fill:#210f11" d="M126.247 50.933h7.86v20.62h-7.86z"/><path class="cls-14" d="M126.277 97.943a83.81 83.81 0 0 1 15.8 1.5v-33.88h-24.3v32.81a82.41 82.41 0 0 1 8.5-.43z" id="path518" style="fill:#210f11"/><path class="cls-14" d="M127.747 287.953a83.68 83.68 0 0 1-19.06-2.19l-6 44.51h47.14l-5.95-43.88a84 84 0 0 1-16.13 1.56z" id="path520" style="fill:#210f11"/><path class="cls-15" id="polygon522" style="fill:#e873ac" transform="translate(-601.723 -340.307)" d="M722.72 660.83h27.5l-.59-4.36h-26.91z"/><path class="cls-15" id="polygon524" style="fill:#e873ac" transform="translate(-601.723 -340.307)" d="M722.72 645.91h25.48l-.59-4.36h-24.89z"/><path class="cls-15" id="rect526" style="fill:#e873ac" d="M132.717 80.683h9.35v4.36h-9.35z"/></svg>