<svg xmlns="http://www.w3.org/2000/svg" id="Layer_1" data-name="Layer 1" version="1.1" width="290.555" height="313.452"><defs id="defs4"><style id="style2">.cls-5{fill:#003600}.cls-6{fill:#fc882c}.cls-7{fill:#f06b17}</style></defs><path class="cls-5" d="M243.561 309.972h-133.72s-23.77-18.34-25.38-45.64c-1.61-27.3-.81-44.41-22.56-60.3s-55.59-48.09-55.59-48.09l4.43-44.41s-12.89-11.82-4.43-27.3 17.72-3.26 19.33-44c0 0 2.82-18.33 24.17-21.19 21.35-2.86 47.14-15.07 47.14-15.07l8.86 5.7-8.46 20 22.15.81 75.74 39.93s33.84-9.37 51.16 20.38c0 0 9.87 17.72-.2 45-10.07 27.28-8.06 38.67-8.06 38.67l43.91-57.45 4.43 4.48-29.81 75-16.51 60.3z" id="path302" style="fill:#003600"/><path d="M169.101 261.562h-8.54l-15.93-45.34v66.46h-16.47v-98.46h20.47l16.2 46.51 16.19-46.51h20.47v98.46h-16.45v-66.46z" id="path304" style="fill:#fff"/><path d="m119.501 30.462-22.15-.81 8.46-20-8.86-5.7s-25.79 12.22-47.14 15.07c-21.35 2.85-24.17 21.19-24.17 21.19-1.61 40.75-10.87 28.53-19.33 44-8.46 15.47 4.43 27.3 4.43 27.3l-4.43 44.41s3.59 3.42 9.18 8.58l108.8-131.55z" id="path306" style="fill:#007800"/><path d="M243.561 309.972h-133.72s-23.77-18.34-25.38-45.64c-1.61-27.3-.81-44.41-22.56-60.3s-55.59-48.09-55.59-48.09l4.43-44.41s-12.89-11.82-4.43-27.3 17.72-3.26 19.33-44c0 0 2.82-18.33 24.17-21.19 21.35-2.86 47.14-15.07 47.14-15.07l8.86 5.7-8.46 20 22.15.81 75.74 39.93s33.84-9.37 51.16 20.38c0 0 9.87 17.72-.2 45-10.07 27.28-8.06 38.67-8.06 38.67l43.91-57.45 4.43 4.48-29.81 75-16.51 60.3z" id="path308" style="fill:none;stroke:#fdc05f;stroke-width:6.96000004px;stroke-miterlimit:10"/><path id="polygon310" style="fill:#fdc05f" transform="translate(-600.439 -757.538)" d="M715.49 848.82h69.7l-59.47 69.69h-69.69z"/><circle class="cls-5" cx="86.801" cy="123.212" r="8.75" id="circle312" style="fill:#003600"/><circle class="cls-5" cx="163.491" cy="85.532" r="8.75" id="circle314" style="fill:#003600"/><path class="cls-6" d="M184.751 91.282s35.33 24.27 16.77 69.72h-76.24z" id="path316" style="fill:#fc882c"/><circle class="cls-6" cx="111.461" cy="142.602" r="7.76" id="circle318" style="fill:#fc882c"/><ellipse class="cls-6" cx="138.731" cy="119.882" rx="10.42" ry="6.25" id="ellipse320" style="fill:#fc882c"/><ellipse class="cls-6" cx="109.371" cy="111.542" rx="3.79" ry="5.87" id="ellipse322" style="fill:#fc882c"/><ellipse class="cls-6" cx="80.781" cy="146.392" rx="5.87" ry="3.98" id="ellipse324" style="fill:#fc882c"/><circle class="cls-7" cx="159.181" cy="144.882" r="6.25" id="circle326" style="fill:#f06b17"/><ellipse class="cls-7" cx="184.751" cy="123.852" rx="7.58" ry="8.33" id="ellipse328" style="fill:#f06b17"/><ellipse class="cls-7" cx="189.291" cy="146.582" rx="3.79" ry="4.17" id="ellipse330" style="fill:#f06b17"/><ellipse class="cls-5" cx="174.921" cy="162.902" rx="6.73" ry="8.07" id="ellipse332" style="fill:#003600"/></svg>