<svg xmlns="http://www.w3.org/2000/svg" id="Layer_1" data-name="Layer 1" version="1.1" width="285.67" height="285.67"><defs id="defs19"><linearGradient id="linear-gradient" x1="251.02" y1="532.25" x2="251.02" y2="520.23" gradientUnits="userSpaceOnUse"><stop offset="0" stop-color="#6e7070" stop-opacity="0" id="stop4"/><stop offset=".06" stop-color="#6e7070" stop-opacity=".11" id="stop6"/><stop offset=".24" stop-color="#6e7070" stop-opacity=".43" id="stop8"/><stop offset=".43" stop-color="#6d7070" stop-opacity=".68" id="stop10"/><stop offset=".62" stop-color="#6d7070" stop-opacity=".86" id="stop12"/><stop offset=".81" stop-color="#6d7070" stop-opacity=".96" id="stop14"/><stop offset="1" stop-color="#6d7070" id="stop16"/></linearGradient><style id="style2">.cls-1{fill:#dcdbdb}.cls-4{fill:#fff}.cls-5{fill:#8accdc}.cls-16{fill:none;stroke-miterlimit:10}.cls-17{fill:#55a8b4}.cls-16{stroke:#898989;stroke-width:6.68px}</style></defs><path class="cls-4" d="M197.625 212.095c-1.17.27-2.69.51-3.63 0-3.49-1.92-6.81-4.17-10.61-6.55l12.91-6.78c-.23-.79-.37-1.34-.56-1.87-1.58-4.43-1.58-4.42-6-3.2-5.11 1.4-10.2 2.84-15.32 4.19-.94.25-2.22.56-2.93.14-3.24-1.89-6.43-3.88-9.69-5.92h-33c-3.25 2.09-6.22 4-9.32 5.75a7.82 7.82 0 0 1-5.06.79c-6.38-1.44-12.68-3.25-19.21-5-.78 2.12-1.52 4.1-2.29 6.15l13.15 6.71c-3.43 2.18-6.35 4.25-9.49 5.91a8 8 0 0 1-4.75.68c-3.36-.54-6.66-1.53-10.26-2.4-1.69 6.56-3.29 12.76-4.95 19.24l19.49 4.9c1-3.79 1.91-7.22 2.89-10.64.25-.84.56-2 1.21-2.33 3.6-2.11 7.32-4 11.27-6.17v14.45a14.86 14.86 0 0 1 2.17.43c3 1.06 4.54.38 5.17-3.09 1-5.32 2.47-10.53 3.8-15.78.21-.87.42-2.09 1-2.44 4.8-2.76 9.71-5.35 15.08-8.25 0 4.83-.35 8.91.11 12.9.33 2.95-.61 4.71-2.7 6.53-4.68 4.06-9.19 8.33-14 12.67l4.14 5.17 13-7.54c0 4-.15 7.29.05 10.58a6 6 0 0 1-2.4 5.36c-2.51 2.14-4.84 4.49-7.48 7l14.57 13.88 14.77-13.93c-3-2.69-5.73-5-8.27-7.51a5 5 0 0 1-1.45-3.22c.07-3.75.46-7.5.73-11.27a3.23 3.23 0 0 1 .88.12c2.24 1.42 4.49 2.84 6.71 4.29 5.24 3.42 5.24 3.43 9-2.13-4.63-4.59-9.31-9.22-14-13.88-.71-.72-1.81-1.63-1.78-2.42.18-5.45.61-10.89 1-16.76a95 95 0 0 0 8.91 4.56c4.38 1.7 6.62 4.54 7.37 9.28.84 5.27 2.59 10.4 4 15.66l6.28-1.08v-14.43c3.42 1.8 6.57 3.21 9.42 5.07a8.68 8.68 0 0 1 3.1 4c1.2 3.18 1.94 6.54 2.88 9.88l19.48-5.12-5.22-19.24c-3.71.99-6.88 1.92-10.17 2.66z" id="path179" style="fill:#fff"/><path class="cls-4" id="rect181" style="fill:#fff" d="M128.275 173.935h33.97v21.16h-33.97z"/><circle cx="142.835" cy="142.835" r="136.99" id="circle183" style="fill:#36296d"/><circle cx="142.835" cy="142.835" r="136.99" id="circle185" style="fill:none;stroke:#dcdbdb;stroke-width:11.68999958px;stroke-miterlimit:10"/><path class="cls-4" d="M238.035 145.245v-2.41a95.23 95.23 0 1 0-190.45 0v2.41z" id="path187" style="fill:#fff"/><path class="cls-4" d="M198.675 185.105c-1.25.28-2.89.54-3.89 0-3.75-2.07-7.31-4.48-11.39-7l13.86-7.28c-.25-.85-.4-1.43-.6-2-1.7-4.75-1.7-4.75-6.44-3.44-5.48 1.51-10.95 3-16.45 4.5-1 .27-2.37.6-3.14.15-3.47-2-6.9-4.17-10.4-6.36h-35.43c-3.49 2.25-6.68 4.35-10 6.18a8.43 8.43 0 0 1-5.43.85c-6.85-1.55-13.62-3.49-20.62-5.34-.85 2.27-1.64 4.4-2.46 6.61l14.12 7.2c-3.69 2.33-6.82 4.56-10.19 6.34a8.65 8.65 0 0 1-5.1.73c-3.61-.58-7.15-1.64-11-2.58l-5.31 20.66 20.93 5.26c1.09-4.07 2.05-7.76 3.1-11.42.26-.9.6-2.11 1.29-2.51 3.87-2.27 7.86-4.33 12.11-6.62v15.49a17 17 0 0 1 2.32.46c3.22 1.14 4.88.41 5.55-3.32 1-5.7 2.65-11.3 4.08-16.93.23-.93.45-2.24 1.11-2.62 5.16-3 10.43-5.74 16.19-8.86 0 5.18-.37 9.57.12 13.85.36 3.16-.65 5.06-2.89 7-5 4.37-9.88 8.95-15 13.61l4.44 5.55 13.92-8.09c0 4.26-.16 7.82.06 11.35a6.43 6.43 0 0 1-2.57 5.76c-2.7 2.29-5.21 4.82-8 7.47l15.65 14.91 15.85-15c-3.21-2.88-6.15-5.36-8.87-8.06a5.29 5.29 0 0 1-1.56-3.45c.07-4 .49-8.06.78-12.11a3.42 3.42 0 0 1 .94.14c2.41 1.52 4.82 3 7.21 4.6 5.63 3.68 5.62 3.68 9.61-2.28-5-4.94-10-9.9-15-14.9-.76-.77-1.94-1.75-1.91-2.6.19-5.85.66-11.69 1.06-18 3.63 1.89 6.48 3.7 9.56 4.89 4.71 1.83 7.11 4.87 7.92 10 .9 5.65 2.78 11.16 4.25 16.81l6.74-1.17v-15.52c3.67 1.94 7 3.45 10.11 5.45a9.22 9.22 0 0 1 3.33 4.32c1.29 3.42 2.08 7 3.09 10.61l20.91-5.5c-1.93-7.11-3.75-13.84-5.6-20.65-4.03 1.06-7.47 2.06-10.96 2.86z" id="path189" style="fill:#fff"/><path class="cls-4" id="rect191" style="fill:#fff" d="M124.225 144.135h36.47v22.72h-36.47z"/><ellipse class="cls-1" cx="145.105" cy="128.535" rx="36.34" ry="10.02" id="ellipse193" style="fill:#dcdbdb"/><circle cx="144.415" cy="93.805" r="36.34" id="circle195" style="fill:#ed9a22"/><path class="cls-16" id="line197" style="fill:none;stroke:#898989;stroke-width:6.67999983px;stroke-miterlimit:10" d="m143.695 57.485 1.45 72.65"/><path class="cls-16" d="M116.795 69.995s27.65 17.82 2.66 49.52" id="path199" style="fill:none;stroke:#898989;stroke-width:6.67999983px;stroke-miterlimit:10"/><path class="cls-16" d="M172.055 68.845s-26.91 18.92-.68 49.59" id="path201" style="fill:none;stroke:#898989;stroke-width:6.67999983px;stroke-miterlimit:10"/><path class="cls-16" d="M108.055 92.845s45.6 10.65 72.66-1.45" id="path203" style="fill:none;stroke:#898989;stroke-width:6.67999983px;stroke-miterlimit:10"/><path class="cls-4" d="M144.395 132.235a38.43 38.43 0 1 1 38.44-39.19 38.42 38.42 0 0 1-37.65 39.18zm0-72.67h-.7a34.25 34.25 0 0 0 .66 68.49h.71a34.25 34.25 0 0 0 33.55-34.93 34.24 34.24 0 0 0-34.22-33.56z" id="path205" style="fill:#fff"/><path class="cls-1" d="M171.285 121.265c-1.45-.48-3-.93-4.72-1.33a34 34 0 0 1-21.46 8.12h-.71a34 34 0 0 1-21.8-7.86c-1.69.43-3.26.91-4.69 1.43a38.17 38.17 0 0 0 26.49 10.61h.79a38.16 38.16 0 0 0 26.1-10.97z" id="path207" style="fill:#dcdbdb"/><path class="cls-5" d="M75.915 121.845v8h1.84v6.91h-12.09v-6.91h1.83v-16.88h-1.83v-6.88h9.85l7.09 11.84 7.09-11.84h9.85v6.88h-1.83v16.88h1.83v6.91h-12.09v-6.91h1.84v-8l-6.69 11.1z" id="path209" style="fill:#8accdc"/><path class="cls-5" d="m220.725 131.845-4.88 4.89h-18.93v-6.89h1.84v-16.88h-1.84v-6.88h19l4.88 4.89v7.87l-2 2 2 2zm-9.4-18.85h-4.19v4.44h4.19l1-1v-2.46zm0 11.32h-4.19v5.53h4.19l1-1v-3.56z" id="path211" style="fill:#8accdc"/><path class="cls-17" id="polygon213" style="fill:#55a8b4" transform="translate(-609.085 -359.155)" d="M674.75 465.24v6.88h1.83v7.95h30.22v-7.95h1.83v-6.88h-9.85l-7.09 11.84-7.09-11.84z"/><path class="cls-17" d="M196.915 106.085v6.88h1.84v7.95h20.08l-.09-.09 2-2v-7.83l-4.88-4.89zm15.44 10.33-1 1h-4.19v-4.44h4.19l1 1z" id="path215" style="fill:#55a8b4"/><path class="cls-5" id="polyline217" style="fill:#8accdc" transform="translate(-609.085 -359.155)" d="m676.58 472.12 4.25 9.45h-4.33"/><path class="cls-5" id="polyline219" style="fill:#8accdc" transform="translate(-609.085 -359.155)" d="m807.92 472.28 4.25 9.46h-4.34"/></svg>