<svg xmlns="http://www.w3.org/2000/svg" id="Layer_1" width="537.374" height="493.331" version="1.1"><defs id="defs910"><style id="style908">.cls-1{fill:#fc7f6f}.cls-3{fill:#92cccc}</style></defs><g id="g941" transform="translate(-31.33 -40.42)"><path id="path914" d="M181.01 102.83c-41.24 19.09-80.96 41-116.61 69.84-27.43 22.18-34.3 62.53-32.9 95.77 0 0 3.08 73.27 3.09 73.48.71 16.85 18.97 39.91 29.74 51.2 48.67 51.06 135.29 17.11 194.47 5.89 0 0 71.7-13.3 90.6 22.95l13.03 48.81s30.15 61.17 88.83 62.98c0 0 50.6 1.56 65.69-89.23l23.13-81.75s55.95-90.32 11.4-163.7L465.41 85.99S407.47 14.18 304.5 50.85c-41.03 17.21-82.99 33.24-123.48 51.98z" class="cls-3" style="fill:#92cccc"/><path id="path916" d="M124.34 209.75s-31.81 4.54-25.75 34.84l12.49 55.57s4.16 20.69 0 30.66c-4.16 9.97-14.77 25.12 15.53 22.09 30.3-3.03 39.39-7.57 39.39-7.57s87.86-30.3 116.65-30.3l46.96 31.81 15.15-13.63s10.6-12.12 16.66 4.54l18.18 40.9s24.24 1.51 36.36 9.09c12.12 7.57 51.51-4.54 65.14-13.63 0 0 7.57-48.48 22.72-59.08 15.15-10.6 7.41-84.83-28.86-105.29 0 0-40.82-52.26-51.43-70.44-10.6-18.18-21.21-57.57-34.84-22.72l-4.54 43.93s-1.51 10.6-21.21 3.03l-31.81-19.69 10.6-31.81s-7.57-4.54-45.45-4.54c0 0-18.18 15.15-33.33 34.84l-30.3-9.09-53.02 48.48-55.29 28.03z" style="fill:#fc7f6f;stroke:#000;stroke-width:20.09000015px;stroke-miterlimit:10"/><path id="path918" d="m353.71 215.6-43.07 18.18c-14.95-58.17 20.49-89.92 20.49-89.92l10.6-31.81s-7.57-4.54-45.45-4.54c0 0-18.18 15.15-33.33 34.84l-30.3-9.09-53.02 48.48-55.29 28.03s-31.81 4.54-25.75 34.84l12.49 55.57s4.16 20.69 0 30.66c-4.16 9.97-14.77 25.12 15.53 22.09 30.3-3.03 39.39-7.57 39.39-7.57s87.86-30.3 116.65-30.3l46.96 31.81 15.15-13.63s8.35-9.53 14.46-.03l4.6-11.67c-26.05-57.82-10.12-105.92-10.12-105.92Z" class="cls-3" style="fill:#92cccc"/><path id="path920" d="M353.71 250.76s-41.14 3.36-47.69 17.75c-6.55 14.39-33.68 26.45-28.66 36.49 5.02 10.04 33.15 34.16 33.15 34.16L340 344.8l52.66-34.4" class="cls-1" style="fill:#fc7f6f"/><path id="path922" d="M311.26 206.52s-26.86 3.05-31.89 20.13c-5.02 17.08-44.52 33.89-45.37 50.6 0 0 6.84 8.13 21.08-.64 14.24-8.77 50.93-36.47 50.93-36.47l39.4-17.87" class="cls-1" style="fill:#fc7f6f"/><path id="path924" d="M320.56 145.27s-38.78 18.94-48.53 59.7l7.53 1.54 26.93-19.05 33.5-11.57" class="cls-1" style="fill:#fc7f6f"/><g id="rWr6By"><g id="g934"><path id="path926" d="M249.54 277.2c10.48-10.51 21.22-19.83 30.19-30.62 12.19-14.66 23.93-28.59 44.99-30.37 6.78-.57 13.26-4.99 19.81-7.8 4.32-1.85 8.26-4.69 9.73-9.15 1.99-6.02 4.93-7.13 10.78-4.99 5.84 2.14 12.04 3.64 17.29-2.36 2.28-2.6 5.94-1.38 8.99-.81 9.92 1.86 19.24 3.59 29.97 1.16 10.05-2.28 21.44 1.13 32.2 2.38 8.17.95 16.28 2.43 24.59 4.82-18.81 3.77-34.74 17.79-55.55 13.97-7.32-1.35-14.87-2.19-18.61 7.32-1.43 3.65-6.04 3.1-9.25 2.43-13.4-2.76-26-2.18-37.39 6.58-1.65 1.27-4.42 1.91-6.51 1.64-14.57-1.89-25.29 6.97-37.37 12.5-18.51 8.47-35.98 18.53-52.81 29.9-2.87 1.94-6.26 3.79-11.07 3.41z"/><path id="path928" d="M266.06 324.92c6.82-11.56 16.31-20.27 28.13-26.39 7.21-3.73 13.73-8.26 18.18-15.18 1.88-2.92 4.78-3.76 7.62-5.1 13.34-6.29 27.92-10.39 38.34-21.87 2.35-2.59 5.75-4.06 9.23-4 11.12.17 20.41-4.09 29.16-10.57 5.39-3.99 10.9-6.43 17.58-.54 4.58 4.04 11.11 2.16 16.29-.46 7.92-4.01 15.73-3.9 24.05-1.61 13.16 3.63 26.46 6.8 39.88 11.36-7.7 1.36-15.44 2.52-23.09 4.14-8.36 1.77-17.08 6.65-24.84 5.37-12.96-2.14-21.69 3.92-31.28 9.79-1.62.99-4.14 2.04-5.62 1.46-8.92-3.44-13.95 2.02-18.79 7.79-2.47 2.94-4.76 3.59-7.97 1.28-6.26-4.49-12.86-3.7-19.55-.99-12.54 5.08-24.56 10.92-32.9 22.2-1.27 1.72-2.81 2.74-5 2.8-21.88.59-40.78 9.73-59.42 20.53z"/><path id="path930" d="M426.12 157.48c-13.36 3.6-24.64 14.09-40.09 10.9-2.25-.47-5.39 0-6.25 1.94-3.58 8.08-10.08 5.58-16.13 5.11-1.98-.15-4.41-.96-5.89-.14-14.68 8.2-31.8 8.43-47.25 15.56-13.22 6.1-25.44 15.74-41.08 18.42 2.4-6.53 8.67-8.2 11.96-12.44 12.97-16.72 30.26-25.36 50.55-29.27 5.18-1 9.51-3.86 11.75-9.07.55-1.28 1.37-3.48 2.63-2.81 10.04 5.37 19.12-3.29 29.59-1.38 11.84 2.16 24.54-2.22 36.98-.05 4.19.73 8.5.76 12.75 1.11l.48 2.1z"/><path id="path932" d="M470.84 295.03c-12.89 1.29-24.15 8.81-37.44 8.43-2.84-.08-4.91 1.07-7.08 2.44-4.96 3.14-9.38 7.85-16.2 5.56-6.88 9.26-16.95 4.06-25.49 5.85-8.08 1.69-16.05 5.2-21.67 11.47-4.24 4.74-9.14 6.17-14.87 7.02-9.29 1.37-18.7 2.33-26.98 7.56-1.74 1.1-4.08 2.18-6.66.8.98-3.48 3.66-5.86 6.35-7.41 13.46-7.71 25.06-18.48 39.74-24.15 6.67-2.58 13.27-5.14 18.48-10.44 1.48-1.51 3.98-2.82 6.02-2.83 8.45-.04 15.4-3.36 21.93-8.36 3.01-2.3 6.36-3.61 10.11-.54 2.56 2.1 6.24 2.51 8.94.78 9.55-6.15 19.24-3.06 29.02-1.24 5.2.97 10.46 1.63 15.7 2.43l.12 2.62z"/></g></g><path id="path937" d="M427.53 400.18c-7.08 0-12.73-1.3-16.89-3.91-8.13-5.08-26.03-7.23-31.66-7.58l-6.08-.38-20.91-47.12c-.09-.25-.18-.48-.26-.69l-.24.18-20.99 18.89-50.77-34.39c-24.53 1.61-86.61 21.45-109.99 29.49-3.23 1.41-14.46 5.46-42.11 8.23-10.18 1.02-22.65 1.07-28.83-7.61-6.08-8.55-1.45-18.58 1.62-25.22.5-1.08.99-2.13 1.4-3.13 2.01-4.81.86-17.54-.56-24.71l-12.51-55.68c-2.88-14.38 1.32-24.18 5.34-29.86 8.31-11.74 21.94-15.53 27.03-16.57l52.77-26.74 56.22-51.4 29.25 8.78c14.52-17.59 29.81-30.4 30.51-30.99l2.79-2.33h3.64c36.69 0 47.62 4.18 50.62 5.98l6.91 4.15-10.64 31.92 24.22 14.99c3.53 1.29 5.79 1.66 7.1 1.73l4.35-42.02.5-1.27c2.13-5.44 7.78-19.89 19.97-20.29 12.74-.42 19.54 13.95 26.68 29.16 2.19 4.66 4.25 9.06 6.23 12.45 9.17 15.71 42.81 59.22 49.51 67.83 11.73 7.25 21.64 19.67 28.74 36.06 6.09 14.06 9.86 30.34 10.61 45.84 1.22 24.98-5.57 35.15-11.48 39.29-7.17 5.02-15.22 31.11-18.56 52.41l-.68 4.36-3.67 2.45c-7.97 5.32-22.22 10.99-36.31 14.46-8.77 2.16-16.4 3.24-22.84 3.24zm-41.14-30.97c8.8 1.02 24.7 3.66 34.89 10.03 1.28.77 8.5 2.1 24.39-1.83 10.91-2.7 20.45-6.49 26.31-9.57 2.62-14.48 10.47-49.93 25.96-60.93 2.04-2.23 4.7-13.73 2.09-31.95-2.85-19.84-12.41-46.53-30-56.44l-1.75-.99-1.24-1.58c-1.68-2.16-41.36-53.01-52.19-71.56-2.43-4.17-4.79-9.19-7.07-14.04-1.93-4.11-5.06-10.77-7.63-14.87-.48.94-1.02 2.11-1.62 3.56l-4.45 42.92c-.52 3.62-2.93 8.57-8.14 11.64-6.54 3.84-15.5 3.62-26.62-.65l-.88-.34-39.37-24.37 9.66-28.98c-5.68-.79-14.73-1.56-28.72-1.67-5.45 4.85-18.19 16.73-29.1 30.91l-4.22 5.49-31.47-9.44-49.83 45.56-58 29.4-1.6.23c-2.94.47-11.35 2.92-15.38 8.69-2.51 3.6-3.17 8.23-2.01 14.13l12.51 55.67c.8 3.96 4.51 24.32-.58 36.51-.53 1.28-1.13 2.57-1.71 3.82-.6 1.29-1.43 3.09-2.02 4.63 1.76.17 4.59.22 8.99-.22 25.5-2.55 34.91-6.17 35.98-6.61l.68-.37.45-.09c9.16-3.16 90.31-30.85 119.92-30.85h3.08l43 29.13 8.95-8.06c2.17-2.29 9.06-8.56 18.09-6.87 4.64.87 10.98 4.14 14.96 14.79l15.66 35.23zM376 156.14Z"/><path id="polygon939" d="M457.19 439.52 482 452.1l-26.74 7.69-4.3 27.48-15.57-23.06-27.47 4.41 17.12-21.94-12.68-24.76 26.15 9.5 19.64-19.71z"/></g></svg>