<svg xmlns="http://www.w3.org/2000/svg" id="Layer_1" width="415.31" height="498.63" data-name="Layer 1" version="1.1"><defs id="defs4"><style id="style2">.cls-2{fill:#351a06;stroke-width:15.31px;stroke:#ddc194;stroke-miterlimit:10}.cls-5{fill:#ffb600}.cls-6{fill:#ddc194}.cls-7{fill:#512c14}</style></defs><path id="polygon8" d="M223.32 58.34v36.14l-75.29 15.05v39.16h305.69v-39.16l-75.29-15.05V58.34z" class="cls-2" style="fill:#351a06;stroke:#ddc194;stroke-width:15.31000042px;stroke-miterlimit:10" transform="translate(-92.345 -50.685)"/><path id="path10" d="M407.655 155.485s1 247.07-196.8 335.49h-6.48c-197.78-88.42-196.72-335.49-196.72-335.49v-60.44h400Z" class="cls-2" style="fill:#351a06;stroke:#ddc194;stroke-width:15.31000042px;stroke-miterlimit:10"/><path id="path12" d="M279.655 193.015s12.81-15.9 35.42-5.11c0 0-28.64-41.37-79.89-28.78l.2-.58-25.3 40.15-25.68-39.73.05.16c-.67-.16-1.33-.28-2-.43l-13.15-1.82c-41.7-2.2-64.74 31-64.74 31 22.61-10.79 35.42 5.11 35.42 5.11-29.4 6.91-38.22 38.55-38.22 38.55l38.18 5.78 68.81 10.8v.32l1-.16 1 .16v-.32l68.9-10.8 38.22-5.72s-8.86-31.67-38.22-38.58z" style="fill:#9a683c"/><path id="polygon14" d="m271.38 370.94 29.8 79.45 33.56-79.45-20.68-23.05-12.88 38.95-10.87-37.01z" style="fill:#575045" transform="translate(-92.345 -50.685)"/><path id="path16" d="m142.175 267.195 37.74 16.67s-30.14 14.21-37.74-16.67z" class="cls-5" style="fill:#ffb600"/><path id="path18" d="m273.385 267.195-37.73 16.67s30.12 14.21 37.73-16.67z" class="cls-5" style="fill:#ffb600"/><path id="path20" d="M339.035 273.555c-11.93-31.23-59.31-34.38-59.31-34.38l-63.72 4.53h-13.8l-63.71-4.7s-47.39 3-59.4 34.24l25.2-2.42s-18.64 23.74-18.64 36.61l25.22-2.94 6.93 25.76a245.12 245.12 0 0 1 30.72-30.94s-33.46-2.27-25.87-47.49l54.52 8 1 .14c14.39 2.22 22 8.81 22 8.81l8.92-12.33 8.11 12.1.32.1c1.09-.88 7.46-5.68 18.59-8v-.59l55.54-8c5.89 35.62-13.6 44.54-22.16 46.73l-.31.39a245 245 0 0 1 31 31.28l7-25.74 25.22 3c0-12.88-18.54-36.67-18.54-36.67z" class="cls-6" style="fill:#ddc194"/><path id="polygon22" d="m272.15 249.4 9.69 49.35 19.29-.21 19.28.21 9.69-49.35-28.97 34.33z" class="cls-6" style="fill:#ddc194" transform="translate(-92.345 -50.685)"/><path id="path24" d="M59.135 202.005s2.49-48.85 50.65-66.46l-66.62-.66z" class="cls-7" style="fill:#512c14"/><path id="path26" d="M353.165 202.005s-2.49-48.85-50.66-66.46l66.63-.66z" class="cls-7" style="fill:#512c14"/><path id="path28" d="m153.895 364.045 29.76 59.59s-35.45-7.06-69.38-59.59l19.69-8.54z" class="cls-7" style="fill:#512c14"/><path id="path30" d="m258.405 364.045-29.75 59.59s35.45-7.06 69.38-59.59l-19.69-8.54z" class="cls-7" style="fill:#512c14"/><circle id="circle32" cx="209.285" cy="51.695" r="13.93" style="fill:#ddc194;stroke:#ddc194;stroke-width:10.10999966px;stroke-miterlimit:10"/></svg>