<svg xmlns="http://www.w3.org/2000/svg" id="Layer_1" width="326.429" height="311.19" data-name="Layer 1" viewBox="0 0 326.429 311.19"><defs id="defs12649"><clipPath id="clippath"><path id="path12637" d="M252.67 232.41c-57.99 0-105.16 45.6-105.16 101.66v13.46c40.28-9.24 125.25-22.96 210.32-.42v-13.05c0-56.05-47.18-101.66-105.16-101.66z" class="cls-1"/></clipPath><clipPath id="clippath-1"><path id="path12640" d="M230.98 252.66s4.46 16.59 22.17 22.54c0 0 10.28 5.24 25.8-2.67l-1.24 7.91s-14.43 8.78-30.14.17c-15.71-8.62-15.84-22.04-16.59-27.95" class="cls-1"/></clipPath><clipPath id="clippath-2"/><clipPath id="clippath-3"/><style id="style12635">.cls-1{fill:none}.cls-3{fill:#7fb1c6}.cls-5{fill:#eff1ec}.cls-9{fill:#2f3c40}.cls-10{fill:#ec6e5f}</style></defs><g id="g13101" transform="translate(-579.389 -199.95)"><path id="path13055" d="m899.51 414.62-60.57-87.07c2.14-3.83 2.69-8.54 1.22-12.98-19.18-57.86-70.41-96.73-127.46-96.73-5.41 0-10.9.36-16.3 1.06-18.04 2.35-35.07 8.43-50.64 18.09-15 9.3-27.99 21.51-38.61 36.27-21.77 30.26-31.22 67.91-26.61 106.02 8.95 73.94 68.63 131.86 135.88 131.86 5.05 0 10.15-.33 15.17-.98 6.63-.86 13.22-2.26 19.61-4.15 4.51-1.34 9.24-2.01 14.08-2.01.44 0 .87 0 1.31.02h.32c.32 0 .64-.01.96-.04l49.95-3.82h.12c8.54 0 16.62-3.35 22.76-9.43 5.14-5.1 8.56-11.72 9.79-18.9l25.95-3.06c11.8-1.39 21.71-8.95 26.51-20.21s3.52-23.95-3.43-33.93z" class="cls-3"/><path id="path13057" d="m899.51 399.78-60.57-87.07c2.14-3.83 2.69-8.54 1.22-12.98C820.98 241.87 769.75 203 712.7 203c-5.41 0-10.9.36-16.3 1.06-18.04 2.35-35.07 8.43-50.64 18.09-15 9.3-27.99 21.51-38.61 36.27-21.77 30.26-31.22 67.91-26.61 106.02 8.95 73.94 68.63 131.86 135.88 131.86 5.05 0 10.15-.33 15.17-.98 6.63-.86 13.22-2.26 19.61-4.15 4.51-1.34 9.24-2.01 14.08-2.01.44 0 .87 0 1.31.02h.32c.32 0 .64-.01.96-.04l49.95-3.82h.12c8.54 0 16.62-3.35 22.76-9.43 5.14-5.1 8.56-11.72 9.79-18.9l25.95-3.06c11.8-1.39 21.71-8.95 26.51-20.21s3.52-23.95-3.43-33.93z" class="cls-10"/><g id="g13063"><path id="path13059" d="M716.42 476.22c-64 0-120.84-53.33-129.38-121.41-9.1-72.48 40.33-138.57 110.18-147.34 5.13-.64 10.34-.97 15.48-.97 54.26 0 103 35.71 121.27 88.86 1.26 3.67-.2 7.84-3.4 9.97l63.63 88.2c5.57 7.72 6.6 17.53 2.75 26.24s-11.8 14.55-21.26 15.63l-28.55 3.25c-1.49.17-2.67 1.32-2.79 2.74-1.22 13.82-12.57 24.24-26.41 24.24h-.33l-50.21 3.71c-.16.01-.32.02-.48.02h-.16c-.49-.01-.98-.02-1.47-.02-5.45 0-10.79.74-15.89 2.19-6.06 1.73-12.32 3.01-18.62 3.8-4.75.6-9.58.9-14.36.9z" class="cls-9"/><path id="path13061" d="m899.51 389.7-54.46-75.48c-1.22-25.6-18.38-49.48-18.38-49.48h-.01c-24.52-39.68-67.29-64.79-113.97-64.79-5.41 0-10.9.34-16.3 1.02-35.67 4.48-67.36 23.09-89.25 52.42-21.77 29.17-31.22 65.48-26.61 102.23 8.95 71.3 68.63 127.14 135.88 127.14 5.05 0 10.15-.32 15.17-.95 6.63-.83 13.22-2.18 19.6-4 4.51-1.29 9.25-1.94 14.08-1.94.44 0 .87 0 1.31.02h.32c.32 0 .64-.01.96-.04l49.95-3.69h.11c8.54 0 16.62-3.23 22.76-9.1 5.14-4.92 8.56-11.3 9.79-18.22l25.95-2.95c11.8-1.34 21.71-8.63 26.51-19.48 4.8-10.86 3.52-23.09-3.43-32.72zm-24.56 39.19-28.55 3.25c-4.54.52-8.17 4.12-8.57 8.67-.86 9.77-8.97 18.27-19.89 18.27h-.51l-50.51 3.73c-.54-.01-1.09-.02-1.63-.02-5.98 0-11.93.8-17.68 2.45-5.7 1.63-11.59 2.84-17.64 3.6-4.55.57-9.06.85-13.54.85-60.98 0-114.82-51.4-122.88-115.68-8.66-69.01 38.12-131.7 104.5-140.03 4.93-.62 9.82-.92 14.67-.92 51.77 0 97.88 34.42 115.08 84.44.31.89-.12 1.99-.94 2.45-3.12 1.75-4.02 5.83-1.93 8.73l63.98 88.69c8.93 12.38 1.23 29.81-13.94 31.53z" style="fill:#7fb1c4"/></g><path id="path13065" d="m784.74 369.43.11-.17c6.97-12.39 12.31-37.26.53-54.48-20.01-29.24-61.28-17.13-74.05 1.01 0 0 28.62-25.5 61.24.45l2.66 2.44 3.66 4.25s16.52 14.81-4.94 54.33l21.05 4.73 6-10-16.26-2.57z" style="fill:#f5b731"/><path id="path13067" d="M796 401s-58.05 44.1-128.62-22.04c0 0-18.39 7.97-31.77-3.9 8.08 1.58 16.61.75 23.59-3.86 7.65-5.05 12.99-13.21 15.57-21.92 5.31-17.91-8.46-48.9-31.2-41.85-3.78 1.17-7.23 3.49-9.45 6.8 5.49-1.49 11.49-.58 16.57 1.98 5.08 2.57 9.26 6.7 12.38 11.46 5.83 8.88 6.57 19.91.58 29.06-6.14 9.37-19.33 17.16-30.49 12.07-11.25-5.12-14.72-21.54-15.14-32.64-.47-12.48 3.91-25.91 14.79-32.99 17.26-11.23 37.23 1.33 37.23 1.33s21.04-43.18 99.59-37.28c0 0-69.97 4.25-85.13 42.13 0 0 58.86-53.05 110.2-25.51 0 0-36.76-54.22-88.01-48.39s-92.68 32.79-94.55 97.9c-1.86 65.1 76.54 110.57 106.98 113.29 23.54 2.1 52.46-4.54 68.09-20.09 6.7-6.67 9.83-16.14 8.79-25.53zm-164.07-30.16c-.08-.02-.15-.03-.23-.05-.18-.24-.38-.44-.56-.69.19.27.49.5.78.73z" class="cls-5"/><path id="path13069" d="M779.2 418.3c-.19.08-18.94 8.34-43.54 8.22-31.11-.15-57.1-12.91-77.33-37.93-15.21 2.75-26.17-2.45-33.44-8.6 23.16 39.31 71.76 64.62 94.23 66.63 1.54.14 3.1.23 4.68.29 23.82-3.96 45.68-13.3 57.54-25.57l6.8-7.04-8.93 3.99z" class="cls-3"/><path id="path13071" d="M623.35 342.26s12.19-6.95 12.56-19.97c0 0 5.89 12.31 21.69 16.07 0 0-9.62 8.51-11.62 23.57-.13.97-5.85-13.65-22.63-19.67" class="cls-5"/><path id="path13073" d="M681.06 319.93s12.07 24.58-5.15 52.5c0 0 38.41 44.08 92.65 32.11 55.06-12.16 45.2-77.59 41.44-84.54-3.96-7.33-15.75-48.17-63.92-31.57 0 0 35.87-7.1 52.63 30.75 16.43 37.12-10.28 73.64-38.52 77.03-29.27 3.51-37.23-1.33-75.34-26.66 0 0 17.84-22.42-3.79-49.63z" class="cls-5"/><circle id="circle13075" cx="732.66" cy="326.03" r="8.2" class="cls-3"/><path id="path13077" d="M662.01 266.48c18.3-2.08 25.25 10.11 25.25 10.11-16.24 9.04-24.49 19.39-27.38 23.58 6.07 1.77 10.16 4.34 10.16 4.34s21.04-43.18 99.59-37.28c-20.59-18.05-41.14-19.42-41.14-19.42l8.78 11.98c-40.52-13.93-75.25 6.71-75.25 6.71z" class="cls-10"/><path id="path13079" d="M642.52 330.53c-4.66-4.17-6.61-8.24-6.61-8.24-.37 13.02-12.56 19.97-12.56 19.97 2.79 1 5.26 2.24 7.47 3.6 3.78-2.54 9.04-7.31 11.71-15.33z" style="fill:#84afc0"/><ellipse id="ellipse13081" cx="640.47" cy="341.73" class="cls-9" rx="6.33" ry="7.72" transform="rotate(-6.49 640.364 341.713)"/><path id="path13083" d="M714.5 432.63c30.67 7.4 57.2-6.59 72.54-17.83l-7.84 3.5c-.19.08-18.94 8.34-43.54 8.22-31.11-.15-57.1-12.91-77.33-37.93 0 0 7.77 32.37 56.18 44.04z" class="cls-9"/><path id="path13085" d="m842.3 400.46-.48 12.16-3.2-11.75a17.83 17.83 0 0 0-14.48-12.93l-7.94-1.22 7.46-2.98a17.83 17.83 0 0 0 11.21-15.86l.48-12.16 3.2 11.75a17.83 17.83 0 0 0 14.48 12.93l7.94 1.22-7.46 2.98a17.83 17.83 0 0 0-11.21 15.86" class="cls-5"/><path id="path13087" d="m821.58 424.37-.26 6.61-1.74-6.38a9.71 9.71 0 0 0-7.87-7.03l-4.31-.66 4.05-1.62a9.69 9.69 0 0 0 6.09-8.61l.26-6.61 1.74 6.38a9.71 9.71 0 0 0 7.87 7.03l4.31.66-4.05 1.62a9.69 9.69 0 0 0-6.09 8.61" class="cls-5"/><g id="g13099" style="clip-path:url(#clippath-3)"><path id="path13089" d="M856.82 248.92c2.52-7.41 10.46-12.58 19.3-12.58 1.76 0 3.51.2 5.21.61 5.44 1.29 9.95 4.57 12.4 8.99m-1.89 11.3c1.11-3.26.79-6.73-.89-9.77-2.01-3.64-5.79-6.35-10.35-7.44a19.3 19.3 0 0 0-4.48-.52c-7.51 0-14.21 4.29-16.3 10.43" class="cls-9"/><g id="g13095"><path id="path13091" d="M868.87 252.43c.92-3.25 4.47-5.09 7.93-4.1 3.45.98 5.5 4.41 4.58 7.66" class="cls-9"/><path id="path13093" d="M868.15 252.23c1.03-3.64 5-5.71 8.85-4.62 3.84 1.09 6.13 4.94 5.09 8.58m-1.43-.4c.81-2.85-1.02-5.87-4.07-6.74-.56-.16-1.12-.23-1.67-.23-2.45 0-4.67 1.5-5.33 3.83" class="cls-9"/></g><path id="path13097" d="M862.86 251.36c1.67-5.07 6.88-8.61 12.68-8.61 1.14 0 2.27.14 3.37.41 3.45.85 6.34 2.99 7.94 5.88m-.92 7.99c.78-2.39.55-4.91-.67-7.11-1.36-2.45-3.83-4.27-6.78-4.99-.96-.23-1.94-.35-2.93-.35-5.02 0-9.52 3.02-10.95 7.35" class="cls-9"/></g></g></svg>