<svg xmlns="http://www.w3.org/2000/svg" id="Layer_1" width="510.158" height="424.41" data-name="Layer 1" version="1.1"><defs id="defs4"><style id="style2">.cls-4{fill:#23c3be}.cls-5{fill:#b3f4e2}</style></defs><path id="path8" d="M507.258 181.65c-1.53-13.42-4.71-41.34-27.39-59.94-15.48-12.69-33.38-15.48-45.49-16.47a187.43 187.43 0 0 0-30.8 0c3.06-14.79 4.25-26.36 3.81-36.1-.93-20.4-9.55-38.72-24.27-51.59A71.62 71.62 0 0 0 336.638 0a66.46 66.46 0 0 0-9.25.64c-10.19 1.45-17.37 3.14-23.3 5.49a47.56 47.56 0 0 0-18.33 12.61c-10.06-3.72-21.79-5.6-35.07-5.6a105.2 105.2 0 0 0-14.23.9 48.85 48.85 0 0 0-32.47 18.6 55.33 55.33 0 0 0-9 17.71l-.08.26c-1.33 3.63-2.47 8.11-6 22-1.42 5.6-3.2 12.63-5.35 20.91h-75.21c-34.56 0-66.39 26.91-72.44 61.27l-34.9 197.87c-3.25 18.48 1.44 36.89 12.88 50.53 11.44 13.64 28.09 21.22 46.76 21.22h205.16c18.47 0 36.76-7.68 50.56-20.9a81.78 81.78 0 0 0 23.59.09c54.79-7.77 93.66-41.54 106.64-92.62 9.15-35.73 15.53-62.62 18.62-83.3l11.07 3.15 33.87-23.65z" style="fill:#134e4c"/><path id="path10" d="M265.818 394.22H60.648c-20 0-33.44-16.26-29.91-36.31l34.9-197.9c3.54-20.06 22.66-36.27 42.71-36.27h205.17c20.05 0 33.44 16.26 29.91 36.32l-34.9 197.9c-3.54 20-22.66 36.26-42.71 36.26z" style="fill:#134e4c;stroke:#000;stroke-width:29.04999924px;stroke-miterlimit:10"/><path id="polyline12" d="m311.66 399.77-49.33 8.62-41.8-16.38-36.07 16.38 69.05 16.6 77.5 13.19" class="cls-4" style="fill:#23c3be" transform="translate(-44.922 -88.26)"/><path id="path14" d="M328.448 376.38c-31.56 0-55.64-25.89-57.26-61.55-.45-9.88 1.19-18.57 2.38-24.91a55.41 55.41 0 0 0 1-6.57c-.87-19.15 13.56-23.28 19.81-24.16a22.62 22.62 0 0 1 3.27-.22c11.35 0 47.55 9.95 48.6 33.09a61.24 61.24 0 0 1-1.56 16.68c2.51-3.81 4.65-9.36 5.56-17.47 2.7-24.13 6.28-54.65 9.5-77-1 0-2 .06-3 .06a59.9 59.9 0 0 1-15-1.76l-2.21 6-.82-.85c-7.22 14.19-15 21.73-26.8 26.36-2.57 1-4.86 1.93-6.93 2.76-8.7 3.48-14.44 5.77-20.8 6.68a21.58 21.58 0 0 1-3 .21c-13 0-27.58-11.32-28.42-29.59-.07-1.67-.28-4.43-.58-8-4.19 21.74-8.87 38.48-25.81 40.88-2.35.34-6 1.31-9.52 2.26a108.22 108.22 0 0 1-12.07 2.77 17.53 17.53 0 0 1-2.41.17c-13.56 0-26.66-16.3-27.47-34.19-.42-9.17 3.71-21.12 10-39.21 4.64-13.44 10.42-30.16 15.88-50.28 6.92-25.52 12.05-45.71 15.44-59.07 3.32-13.06 4.41-17.29 5.22-19.42.13-.36.25-.75.38-1.15 1.32-4.14 4.85-15.16 18.68-17.12a76.47 76.47 0 0 1 10.28-.61c12.76 0 29.89 2.23 39.09 12.85 5.48 6.34 9.89 15.83 13.17 25.65 1.79-10.21 2.9-18.57 2.77-23-.11-.3-.33-.79-.49-1.17a21.51 21.51 0 0 1-2.13-7.89c-.69-15.13 17.39-17.7 28.18-19.23a38 38 0 0 1 5.35-.37c19.79 0 41.5 14.85 42.76 42.38.73 16.17-5.44 41.46-13.42 68.38 3.11-.46 6.23-.89 9.31-1.32 5.93-.82 11.54-1.59 16.75-2.5a159 159 0 0 1 27.21-2.36c4.28 0 8.6.18 12.86.53 9.07.74 20.68 2.57 30 10.21 13.89 11.39 16 30.19 17.3 41.43l2.09 18.35-17.77-5.06a61.86 61.86 0 0 0-17.13-2.26c-2.44 0-4.95.11-7.56.35.1 1.2.18 2.43.23 3.67.87 19.11-6.29 51.36-19.82 104.21-10.46 40.72-39.29 65.55-83.46 71.82a53.57 53.57 0 0 1-7.58.54zm13.95-53.75" class="cls-4" style="fill:#23c3be"/><path id="path16" d="M336.628 40.43c13.46 0 29.46 10 30.4 30.57.81 17.83-8.76 51.53-18.83 83.6 14.54-3.41 31.62-4.92 46-7.42a146.26 146.26 0 0 1 25.07-2.17q5.94 0 11.86.49c8.21.67 16.79 2.22 23.17 7.44 9.44 7.74 11.48 21.14 12.85 33.27a74.27 74.27 0 0 0-20.52-2.74 112.06 112.06 0 0 0-21.69 2.32 74.55 74.55 0 0 1 2 14.63c.85 18.8-8.22 56.71-19.45 100.58-11.41 44.87-45.57 58.68-73.17 62.6a42.8 42.8 0 0 1-5.84.41c-22.79 0-43.5-18.91-44.91-49.74-.63-13.93 3.69-25.6 3.42-31.46-.27-5.86 1.08-10.23 9.18-11.38a11.83 11.83 0 0 1 1.54-.09c9.71 0 35.69 9.06 36.25 21.28.58 12.94-4.39 19.79-3.93 30.05.17 3.64 1.25 6.51 4.06 6.51a5.13 5.13 0 0 0 .65-.05c3.28-.47 24.23-4.29 27.83-36.51 2.87-25.61 8.07-70.34 12-92.68a90 90 0 0 1-17.75 2c-8.53 0-16.52-1.69-22-6.34l-.06.17c-2.76-2.86-5.92-7.66-9-15.67 0 0-5.8 24.1 3.69 28.54-7 15.17-13.37 20.58-22 24-12.78 5-18.83 7.83-25 8.7a8.87 8.87 0 0 1-1.28.09c-6.23 0-15.51-5.7-16.06-17.78-.59-12.94-8.21-83.39-8.21-83.39s-11.62 45.82-16.82 72.85c-5.2 27.03-9.4 30.83-15.53 31.7-6.13.87-15.69 4.19-21.6 5a4.92 4.92 0 0 1-.67 0c-5.92 0-14.57-10.38-15.12-22.38-.56-12.45 13.15-40.45 25.42-85.69 12.27-45.24 18.91-73.72 20.29-77.35 1.38-3.63 2-9.38 9.23-10.4a63.8 63.8 0 0 1 8.55-.5c9.85 0 23.76 1.68 29.74 8.59 8.14 9.41 13.9 29.48 16.06 42.94 2.16 13.46 4 44.17 4 44.17s18.45-74.14 17.57-93.44c-.17-3.66-2.49-6.28-2.6-8.72-.11-2.44 3.54-4.43 17.56-6.42a25.25 25.25 0 0 1 3.61-.25m0-24.74a50.43 50.43 0 0 0-7.08.5c-8.92 1.26-15 2.66-19.73 4.54-10.39 4.12-15.84 11.41-18 18.68-12.22-8.58-28.55-10.58-41.15-10.58a89.15 89.15 0 0 0-12 .74 33.49 33.49 0 0 0-22.28 12.68 40.23 40.23 0 0 0-6.43 12.91c-.07.21-.14.43-.2.63-1 2.77-2 6.67-5.6 20.66-3.39 13.32-8.5 33.45-15.4 58.88-5.35 19.72-11 36.22-15.63 49.48-6.72 19.44-11.15 32.28-10.63 43.82a54.34 54.34 0 0 0 10.27 29.18c7.79 10.74 18.58 16.9 29.59 16.9a30 30 0 0 0 4.14-.29 117.1 117.1 0 0 0 13.55-3.08c2.72-.73 6.44-1.72 8.05-1.95a34 34 0 0 0 24.55-15.66c.5.52 1 1 1.55 1.51a42 42 0 0 0 12.65 8.07 37.39 37.39 0 0 0-4.59 19.87c-.13 1-.51 3-.8 4.54-1.23 6.54-3.1 16.44-2.59 27.76.93 20.42 8.48 39 21.26 52.4a66.48 66.48 0 0 0 48.36 21 67.56 67.56 0 0 0 9.31-.66c48.89-6.94 82.16-35.7 93.67-81 11.94-46.64 19-77.76 20.12-98.68a46.36 46.36 0 0 1 8.79 1.59l13.09 3.68 20.11-14.05-1.85-16.27c-1.39-12.24-4-35-21.75-49.6-12.1-9.91-26.82-12.15-36.83-13-4.59-.37-9.26-.56-13.88-.56a171.3 171.3 0 0 0-29.32 2.53c-2.21.39-4.52.75-6.91 1.11 6.68-25 9.3-41.7 8.74-54-.73-16.09-7.46-30.47-18.93-40.51a55.79 55.79 0 0 0-36.18-13.65zm-13.09 236.6a55.7 55.7 0 0 0 17.12-14.61l3.07 3.2c-.87 6.91-1.73 14-2.55 21a70.66 70.66 0 0 0-11.06-6.65c-2.13-1-4.32-2-6.53-2.87z"/><rect id="rect18" width="34.63" height="34.63" x="317.418" y="227.9" rx="17.31"/><path id="polygon20" d="m268.13 435.03 12-.05-17.8-26.59 9.67-.03-20.7-30.92-20.45 31.07 9.66-.03-17.59 26.72 12-.05-9.65 14.66-19.95-29.79 16.76-.07-24.85-37.12 13.49-.05-28.9-43.16L153.26 383l13.5-.05-13.59 20.63-23.31-34.81 17.87-.07-38.27-57.17-29.59 57.46 9.63-.07-10.79 49.48.44-.14 1.21 46.31 13.08-.24.09 23.67 33.22-.12-.01-.75 126.77-7.72 2.41-6.6 4.73-.02-.05-12.79 24.19-.1z" transform="translate(-44.922 -88.26)"/><path id="path22" d="M225.078 183.37a41 41 0 0 0-14.12-2.41l-10.62 40.34s-6.91 18.93 4.33 28.24c5.93-1.13 14.33-3.94 19.92-4.73 6.13-.87 10.37-4.67 15.53-31.7 1.24-6.51 2.86-14.11 4.6-21.91-6.3-2.63-12.76-5.46-19.64-7.83z" class="cls-5" style="fill:#b3f4e2"/><path id="path24" d="M325.168 182.48c-21.23 16.49-37.7 19.8-52.9 17.53l3.93 19.64s.16 14.2 11.22 20.51c4.82-1.41 10.57-3.9 20-7.58 8.62-3.38 14.94-8.79 22-24-7.71-3.54-5.43-19.84-4.25-26.1z" class="cls-5" style="fill:#b3f4e2"/><path id="path26" d="M375.188 297.4c-9.37 45.62-40.48 31.73-40.48 31.73-3.29.47-4.53-2.55-4.71-6.46-.46-10.26 4.51-17.11 3.93-30.05-.49-10.62-20.15-18.84-31.67-20.82-3.26 23.07-7.28 70.87 11.47 89.47a41 41 0 0 0 20.56 2.33c27.6-3.92 61.76-17.73 73.17-62.6q2.4-9.39 4.65-18.37c-14.66 14.31-27.84 16.11-36.92 14.77z" class="cls-5" style="fill:#b3f4e2"/><path id="path28" d="M195.438 387.65c-80.77-.75-83.73-81.06-128.93-65.29 0 0 12.66.26 24.8 18.89-13.44-8.7-35.68-6.64-51.36 13.43 53.66-24.55 80.43 45.77 155.49 33z" style="fill:#ea4242;fill-rule:evenodd"/></svg>