<svg xmlns="http://www.w3.org/2000/svg" xmlns:xlink="http://www.w3.org/1999/xlink" id="Layer_1" data-name="Layer 1" version="1.1" width="387.575" height="245.203"><defs id="defs51"><linearGradient id="linear-gradient" x1="360.06" y1="482.48" x2="360.06" y2="361.69" gradientUnits="userSpaceOnUse"><stop offset="0" stop-color="#0abcb7" stop-opacity=".5" id="stop4"/><stop offset=".42" stop-color="#0abcb7" id="stop6"/><stop offset="1" stop-color="#69efe6" id="stop8"/></linearGradient><linearGradient id="linear-gradient-2" x1="529.67" y1="507.73" x2="529.67" y2="354.16" xlink:href="#linear-gradient"/><linearGradient id="linear-gradient-3" x1="558.2" y1="479.45" x2="630.29" y2="479.45" gradientTransform="rotate(-.08 998.896 5415.15)" gradientUnits="userSpaceOnUse"><stop offset="0" stop-color="#abd243" id="stop15"/><stop offset="1" stop-color="#fcf100" id="stop17"/></linearGradient><linearGradient id="linear-gradient-4" x1="479" y1="327.63" x2="652.41" y2="327.63" gradientUnits="userSpaceOnUse"><stop offset="0" stop-color="#016f3f" stop-opacity="0" id="stop20"/><stop offset="0" stop-color="#016f3f" stop-opacity=".01" id="stop22"/><stop offset=".11" stop-color="#016f3f" stop-opacity=".32" id="stop24"/><stop offset=".22" stop-color="#016f3f" stop-opacity=".56" id="stop26"/><stop offset=".34" stop-color="#016f3f" stop-opacity=".76" id="stop28"/><stop offset=".47" stop-color="#016f3f" stop-opacity=".89" id="stop30"/><stop offset=".62" stop-color="#016f3f" stop-opacity=".98" id="stop32"/><stop offset=".85" stop-color="#016f3f" id="stop34"/></linearGradient><linearGradient id="linear-gradient-5" x1="624.46" y1="321.72" x2="670.45" y2="321.72" gradientUnits="userSpaceOnUse"><stop offset=".09" stop-color="#226271" id="stop37"/><stop offset="1" stop-color="#226271" stop-opacity="0" id="stop39"/></linearGradient><linearGradient id="linear-gradient-6" x1="7644.01" y1="919.85" x2="7788.75" y2="919.85" gradientTransform="matrix(-1 0 0 1 7969.04 0)" gradientUnits="userSpaceOnUse"><stop offset="0" stop-color="#fcf100" id="stop42"/><stop offset=".34" stop-color="#dce51a" id="stop44"/><stop offset=".77" stop-color="#b9d738" id="stop46"/><stop offset="1" stop-color="#abd243" id="stop48"/></linearGradient><clipPath id="clip-path"><path d="M682.43 414.33c-3.78-6.07-5.66-9.06-9.42-14.94a87.72 87.72 0 0 0-7.79-10.29c-.64-.74-1.15-1.32-1.5-1.77-6.12-7.72-9.17-11.45-15.25-18.69l-.06-.57.53.14c-.26-3.14-.51-6.28-.77-9.42-38.72 51.91-121.69 96.84-183 71.4-54.16-22.48-110.68 5.6-143.87 28.26q.6 8.74 1.21 17.5c.62 8.55.93 12.82 1.54 21.37a160.67 160.67 0 0 0 22 6.3 97 97 0 0 0 16.74 2.05c3.4.16 6.79.2 10.12.15 3 0 6-.16 8.92-.29a33.59 33.59 0 0 0 19.82-7.53 32.36 32.36 0 0 0 22.84 3.27 38.73 38.73 0 0 0 11.4-4.42 35.24 35.24 0 0 0 14.72-1.19 39.85 39.85 0 0 0 4.76-1.64c-.54 12.3 3.39 26.5 13.84 33.42 8.12 5.37 18.74 6.15 30.08 2.35 14.36-4.83 26.44-14.85 32.72-28.63 5.09-11.18 4.92-22.39 4.16-31.69 0-.69-.11-1.35-.18-2a67.13 67.13 0 0 0 12.69-2.17c11.22-3 22.3-8.46 30.16-17.28 6.65 4.17 15.09 5.73 24.08 4.8a54.32 54.32 0 0 0 13.4-3.15 42 42 0 0 0 15 3.12c8.27.22 16.42-1.79 22.34-5.79l.26-.18a76 76 0 0 0 21.65-22.36c2.76-4.18 4.13-6.19 6.86-10.13z" id="path12" style="fill:none"/></clipPath><style id="style2">.cls-32{fill:#4edd61}.cls-18{fill:#0e3e33}.cls-32{stroke-miterlimit:10}.cls-11{fill:#00988e}.cls-13{fill:#016f3f}.cls-32{stroke:#0e3e33}.cls-20{fill:#4de8dd}.cls-21{fill:#078e50}.cls-22{fill:#226271}.cls-32{stroke-width:7.27px}</style></defs><path class="cls-18" id="polygon407" style="fill:#0e3e33" transform="translate(-544.427 -808.31)" d="M924 915.06 688.1 1048.6 550.81 890.63l181.81-78.04z"/><path class="cls-13" d="M99.833 154.08h26.46a5.1 5.1 0 0 0 5.09-5.09v-.78l4.19-9.42 2.65.3a42.19 42.19 0 0 0 20.15-2.86c8.62-3.4 15.68-9.09 19.87-16l.64-1 56.58-22.29 10.16 3 2.49-8 5-2a12.75 12.75 0 0 0 7.19-16.53l-1.79-4.55a4.84 4.84 0 0 0-.88-1.4l-.44-.49-1.43-3.64a3.85 3.85 0 0 0-5-2.15 3.85 3.85 0 0 0-2.41 3.85l.22 2.66-59.7 23.51-1.66-1.37c-4.53-3.75-12.42-4.37-19.62-1.53l-1.44.59-1.16-.3c-7.61-1.94-16.35-1.21-24.62 2.05a42.1 42.1 0 0 0-17 11.95l-1.09 1.31h-9.62l-7.26-3.21-6.52 3.66-6.82-3.19-7.42 3.12-7.07-3.68-7.1 3.29h-19.11z" id="path409" style="fill:#016f3f"/><path id="polygon411" style="fill:#195869" transform="translate(-544.427 -808.31)" d="m718.56 845.9-121.98 48.37 66.64 76h102.52l83.52-48.33z"/><path class="cls-32" d="M264.843 130.13a4.77 4.77 0 0 0-5-4.19l-8.22-5.45-4.85 7-2 .24-7.57-5-4.49 6.42-2.07.24-8.07-5.42-4.77 6.83-2.23.26-7.43-4.93-4.4 6.3-.62.07-8.55-5.65-5 7.22-1.5.18-7.89-5.24-4.68 6.68-29.43 3.41a8.67 8.67 0 0 0-5.23-1.76h-41.44v21.82h41.44a9 9 0 0 0 1.89-.21l96.58-16.47 17.33-2a9.19 9.19 0 0 0 4.35-1.69 9.37 9.37 0 0 0 3.85-8.66z" id="path413" style="fill:#4edd61;stroke:#0e3e33;stroke-width:7.26999998px;stroke-miterlimit:10"/><path class="cls-13" d="m263.683 72.05-1.79-4.55a8.12 8.12 0 0 0-1.56-2.5l-1.19-3a7.48 7.48 0 0 0-9.67-4.21 7.47 7.47 0 0 0-4.69 7.52l-55.21 21.71c-5.42-4.49-14.52-5.57-23.27-2.12l-.37.16a44.33 44.33 0 0 0-26.85 2.18 45.78 45.78 0 0 0-18.41 13h-7.16l-8.32-3.64-6.46 3.64-6.59-3.09-7.34 3.09-7.18-3.7-8 3.7h-26.83l55.5 57.45h28a8.75 8.75 0 0 0 8.73-8.72l2.79-6.28a45.9 45.9 0 0 0 21.89-3.1c9.68-3.81 17.25-10.24 21.66-17.53l54.26-21.37 12.4 3.71 3-9.79 3.39-1.34a16.42 16.42 0 0 0 9.27-21.22z" id="path415" style="fill:#016f3f"/><path class="cls-18" d="M126.293 161.35h-29.55l-62.52-64.74h34.61l8.87-4.11 7.26 3.74 7.27-3 6.35 3 6.41-3.61 9.28 4.06h4.74a49.92 49.92 0 0 1 18.73-12.75 48.39 48.39 0 0 1 27.92-2.61c8.69-3.21 18-2.54 24.44 1.65l51.2-20.16a11.2 11.2 0 0 1 6.84-8.36 11.12 11.12 0 0 1 14.43 6.17l1 2.48a11.89 11.89 0 0 1 1.78 3.06l1.72 4.52a20 20 0 0 1-11.29 26l-1.76.69-3.59 11.57-14.64-4.39-52 20.47c-5.06 7.82-13.1 14.17-22.77 18a50.33 50.33 0 0 1-21 3.55l-1.45 3.27a12.38 12.38 0 0 1-12.28 11.5zm-26.46-7.27h26.46a5.1 5.1 0 0 0 5.09-5.09v-.78l4.19-9.42 2.65.3a42.19 42.19 0 0 0 20.15-2.86c8.62-3.4 15.68-9.09 19.87-16l.64-1 56.58-22.29 10.16 3 2.49-8 5-2a12.75 12.75 0 0 0 7.19-16.53l-1.79-4.55a4.84 4.84 0 0 0-.88-1.4l-.44-.49-1.43-3.64a3.85 3.85 0 0 0-5-2.15 3.85 3.85 0 0 0-2.41 3.85l.22 2.66-59.7 23.51-1.66-1.37c-4.53-3.75-12.42-4.37-19.62-1.53l-1.44.59-1.16-.3c-7.61-1.94-16.35-1.21-24.62 2.05a42.1 42.1 0 0 0-17 11.95l-1.09 1.31h-9.62l-7.26-3.21-6.52 3.66-6.82-3.19-7.42 3.12-7.07-3.68-7.1 3.29h-19.11z" id="path417" style="fill:#0e3e33"/><path class="cls-18" d="M138.843 97.55c2.88 8.67 10.57 14.43 18.77 13.4 8.2-1.03 14.22-8.54 14.86-17.65z" id="path419" style="fill:#0e3e33"/><path class="cls-20" d="m164.403 98.93-4.24 9.36h.31c4.59-.58 8-4.79 8.31-9.9z" id="path421" style="fill:#4de8dd"/><path class="cls-20" d="m155.043 100.11-5.09.64c1.56 4.7 5.63 7.86 10 7.56z" id="path423" style="fill:#4de8dd"/><path class="cls-32" d="M264.843 130.13a4.77 4.77 0 0 0-5-4.19l-8.22-5.45-4.85 7-2 .24-7.57-5-4.49 6.42-2.07.24-8.07-5.42-4.77 6.83-2.23.26-7.43-4.93-4.4 6.3-.62.07-8.55-5.65-5 7.22-1.5.18-7.89-5.24-4.68 8.54-29.43 3.41c-1.46-1.1-3.27-3.61-5.23-3.61h-66.11l24.67 21.82h41.44a9 9 0 0 0 1.89-.21l96.58-16.47 17.33-2a9.19 9.19 0 0 0 4.35-1.69 9.37 9.37 0 0 0 3.85-8.67z" id="path425" style="fill:#4edd61;stroke:#0e3e33;stroke-width:7.26999998px;stroke-miterlimit:10"/><path id="polygon427" style="fill:none;stroke:#4edd61;stroke-width:7.71999979px;stroke-miterlimit:10" transform="translate(-544.427 -808.31)" d="M924 915.06 688.1 1048.6 550.81 890.63l181.81-78.04z"/><path d="M180.273 63.8a7.51 7.51 0 0 1-6-13 8.77 8.77 0 1 0 9.86 11.34 7.52 7.52 0 0 1-3.86 1.66z" id="path429" style="fill:#fcf100"/><path class="cls-21" d="m204.573 98.45.16-.08c4-2 5.88-7.75 4.25-12.75-.16-.48-.35-1.45-.55-1.88l-7.67 3.11z" id="path431" style="fill:#078e50"/><path class="cls-21" d="m217.733 93.19.16-.08c4-2 5.88-7.75 4.26-12.75-.16-.48-.35-1.45-.55-1.88l-7.68 3.11z" id="path433" style="fill:#078e50"/><path class="cls-21" d="m231.493 87.93.16-.08c4-2 5.88-7.75 4.25-12.75a17.87 17.87 0 0 0-.55-1.88l-7.67 3.11z" id="path435" style="fill:#078e50"/><path class="cls-22" d="m113.773 169.98 88.18 2.47s-39.47 6.78-79.55 5.55z" id="path437" style="fill:#226271"/><path class="cls-22" id="polygon439" style="fill:#226271" transform="translate(-544.427 -808.31)" d="m714.93 1007.89-24.67 1.24 8.02 8.01z"/><path class="cls-22" d="M192.083 182.31s-37.61 7.4-59.81 5.55l45.63 4.94 21.58-11.72z" id="path441" style="fill:#226271"/><path class="cls-11" id="polygon443" style="fill:#00988e" transform="translate(-544.427 -808.31)" d="m695.18 873.67-.2-3.76-42.84 16.91z"/><path class="cls-11" id="polygon445" style="fill:#00988e" transform="translate(-544.427 -808.31)" d="m683.09 875.46-6.4-4.31 1.89 6.94 4.55 5.04z"/><path class="cls-11" id="polygon447" style="fill:#00988e" transform="translate(-544.427 -808.31)" d="m811.75 914.16-1.24 3.08 17.89 4.93z"/><path class="cls-18" d="M66.653 99.78s-11.23-15.23 8.08-22.77c19.31-7.54 15.6-15.56 15.6-15.56l-45.63 19.12-4.93 12.33" id="path449" style="fill:#0e3e33"/></svg>