<svg xmlns="http://www.w3.org/2000/svg" id="Layer_1" width="271.435" height="268.852" data-name="Layer 1" viewBox="0 0 271.435 268.852"><defs id="defs15651"><clipPath id="clippath"><path id="path15645" d="M152.05 440.74c0 57.92 46.95 104.87 104.87 104.87s104.87-46.95 104.87-104.87c0-10.31-1.5-20.28-4.27-29.69H156.33c-2.77 9.41-4.27 19.38-4.27 29.69z" class="cls-1"/></clipPath><clipPath id="clippath-1"><path id="path15648" d="M135.13 251.57c0-14.87 12.05-26.92 26.92-26.92h24.61v45.9H154.1c-10.48 0-18.97-8.49-18.97-18.97z" class="cls-1"/></clipPath><style id="style15643">.cls-1{fill:none}.cls-9{fill:#f6c567}.cls-10{fill:#0d1a44}.cls-12{fill:#6bb4e9}</style></defs><g id="g17629" transform="translate(-590 -159.048)"><path id="path17569" d="M858.46 329.38c-.17-3.34-1.95-6.39-4.77-8.19s-6.34-2.11-9.44-.85l-36.94 15.06c-6.84-13.96-17.24-27.16-31.03-39.35-12.72-11.24-26.76-20.28-39.05-27.24.4-.2.79-.41 1.18-.67l6.45-4.25c4.26-2.81 5.75-8.23 3.77-12.75.53-.08 1.05-.18 1.57-.31.8 4.28 3.31 8.23 7.29 10.7 2.02 1.25 4.23 2.02 6.52 2.3.07.79.19 1.58.37 2.36.98 4.17 3.53 7.71 7.17 9.97 2.63 1.63 5.54 2.4 8.43 2.4 5.37 0 10.63-2.69 13.66-7.59.53-.85.93-1.78 1.19-2.74l4-14.8.06-.23.24-.99c.04-.1.07-.2.1-.31l2.15-6.84c1.1-3.51.25-7.35-2.23-10.07l-6.46-7.07 3.68-2.43c4.76-3.14 6.08-9.55 2.93-14.31l-4.25-6.45a10.3 10.3 0 0 0-6.55-4.43c-2.68-.55-5.48-.01-7.76 1.5l-4.67 3.08c-.44-1.25-1.1-2.41-2.01-3.43a10.26 10.26 0 0 0-8.62-3.39c-3.27.26-8.83-.56-10.07-2.45a10.34 10.34 0 0 0-9.94-4.56c-3.91.5-7.2 3.19-8.46 6.93l-1.66 4.91c-.48 1.41-.64 2.9-.49 4.38l1.01 9.72a11.3 11.3 0 0 0-7.71-4.13l-22.76-2.23c-1.06-.99-2.18-1.96-3.33-2.88-.86-.68-1.77-1.36-2.73-2.01-3.22-2.52-20.86-15.21-52.66-17.51-4.84-1.59-26.77-9.45-37.93-24.9a10.33 10.33 0 0 0-11.55-3.78 10.345 10.345 0 0 0-7.16 9.82c0 9.05 3.77 24.5 15.92 36.01-.36.94-.59 1.95-.67 3.01-.49 7.11 3.39 19.98 19.38 28.74-.86 3.16-1.46 6.41-1.78 9.72l-1.29 13.18c-.73 7.49-.76 15.04-.08 22.5-.07.2-.14.4-.2.61-.47 1.56-11.19 38.57 10.79 68.96 13.16 18.2 40.33 39.27 78.46 46.62l.05 17.68c.02 5.7 4.64 10.3 10.33 10.3h.03l9.73-.03c2.74 0 5.36-1.1 7.3-3.05.32-.32.61-.66.89-1.02 1.77 3.16 5.15 5.3 9.02 5.3h.03l9.73-.03c2.74 0 5.36-1.1 7.3-3.05 1.93-1.94 3.01-4.57 3-7.31l-.05-18.47c6.92-1.15 13.92-2.72 20.91-4.68l61.61 4.2c2.95.2 5.84-.87 7.94-2.94a10.27 10.27 0 0 0 3.07-7.89l-2.98-58.38z" style="fill:#ece7d3"/><g id="g17627"><path id="path17595" d="M631.19 286.12s-9.98 33.34 9.26 59.95 71.39 59.94 147.27 37.89c75.87-22.05-85.02-86.56-85.02-86.56" class="cls-12"/><g id="g17611"><g id="g17603"><path id="path17597" d="m851.12 388.28-2.98-58.38-46.36 18.9c-5.78-16.02-16.59-31.08-32.36-45.02-20.95-18.52-46.11-30.98-59.63-37.68-6.25-3.09-10.04-6.82-11.29-11.08 0-.03-.02-.06-.03-.09-1.3-4.61 2.15-9.2 6.93-9.46l10.9-.58-9.52-8.58-1.12-.6c3.76-3.52 10.39-7.87 21.59-10.57 1.1-.27.98-1.88-.15-1.99l-23.77-2.32c-1.68-.16-3.25-.9-4.45-2.08l-.02-.02c-1.02-1-2.12-1.97-3.27-2.88-.8-.64-1.62-1.23-2.46-1.79 0 0-16.02-13.55-48.42-15.59 0 0-29.52-8.51-44.38-29.08 0 0-.03 30.7 31.99 38.72l-16.76 1s-1.01 14.62 22.16 22.48a47.5 47.5 0 0 0-4.58 16.27l-1.29 13.18c-5.85 59.8 37.89 113.02 97.69 118.87l38.75 3.79 19.42.25 63.41 4.32z" style="stroke:#0d1a44;stroke-miterlimit:10;stroke-width:1.93px;fill:#0d1a44"/><path id="path17599" d="M724.33 350.17c-74.64-18.54-65.28-68.22-65.28-68.22 2.06-21.03 18.17-26.09 29.16-27.06-.9-6.14.75-12.86 4.85-19.64 1.82-3.01 1.32-6.83-1.22-9.31-.78-.76-1.62-1.5-2.51-2.21-4.06-3.23-8.87-5.14-13.79-5.62-4-.39-8.07.16-11.87 1.72-3.6 1.47-6.92 3.65-9.87 6.48-6 5.76-9.78 13.76-10.64 22.53l-1.29 13.18c-4.57 46.77 24.44 89.22 67.31 103.36l15.14-15.22z" class="cls-12"/><circle id="circle17601" cx="672.85" cy="232.71" r="6.71" class="cls-10"/></g><g id="g17609"><path id="polygon17605" d="m837.51 345.03-27.66 14.39 28.1-3.33z" class="cls-9"/><path id="polygon17607" d="m768.72 371.28 70.1 6.79-.54-13.51z" style="fill:#ffe576"/></g></g><path id="path17613" d="M670.93 292.85s-4.52 44.09 76.34 49.98l16.76-16.23s-71.55 4.93-93.09-33.75z" class="cls-12"/><path id="rect17615" d="M747.81 364.81h9.73v52.77h-9.73z" class="cls-10" transform="rotate(-.16 772.933 402.15)"/><path id="rect17617" d="M720.84 363.6h9.73v52.77h-9.73z" class="cls-10" transform="rotate(-.16 744.285 402.11)"/><path id="rect17619" d="M781.46 211.91h7.72v7.72h-7.72z" class="cls-9" transform="rotate(-123.42 785.313 215.78)"/><path id="rect17621" d="M729.94 250.3h7.72v7.72h-7.72z" class="cls-10" transform="rotate(-123.42 733.794 254.173)"/><path id="path17623" d="m766.02 209.85.31-1.5s-14.06 1.31-19.58-7.05l-1.66 4.91 1.96 18.82c-4.21-.64-8.22 2.11-9.08 6.33-.89 4.35 1.91 8.6 6.27 9.5 4.35.89 8.6-1.91 9.5-6.27.11-.54.16-1.08.16-1.61l.16.03-2.55-22.81s4.65 6.16 14.53-.36z" class="cls-10"/><path id="path17625" d="m788.85 250.73.48-1.97.04.04 2.15-6.84-16.11-17.63-3.42 5.52-3.31 13.03c-2.65-1.46-6-.61-7.61 1.99-1.66 2.68-.84 6.21 1.85 7.87 2.68 1.66 6.21.84 7.87-1.85l4-14.79.49-2.01s0 .03.03.08l.15-.54 10.46 11.4-3.17 12.48c-2.65-1.46-6-.61-7.61 1.99-1.66 2.68-.84 6.21 1.85 7.87s6.21.84 7.87-1.85l4-14.79z" class="cls-9"/></g></g></svg>