<svg xmlns="http://www.w3.org/2000/svg" xml:space="preserve" id="Layer_1" x="0" y="0" style="enable-background:new 0 0 2000 2000" version="1.1" viewBox="0 0 2000 2000"><style>.st0{fill:#316bac}.st1{fill:none}</style><path d="M1042.7 1195.7h.4c.4-.1.7-.1 1.1-.2 2.2-.4 5-1-1.5.2z" class="st0"/><path d="M976.1 999.4c-9.2-26.3-24.8-45.9-51.6-57.8-40.4-17.9-83.4-19.5-126.4-20.6-36.2-.9-28.9-7.6-30.4 28.3-.8 18.5 5.9 29 22.4 39.2 65.1 40.1 117.1 93.1 156.9 157.2 20.7 33.3 36.2 68.8 53.2 104.4 0-26.1.6-52.4-.2-78.3-1.5-58.2-4.4-116.4-23.9-172.4z" class="st1"/><path d="M1112.3 1104.7c-4.1-55.4-11.4-110.4-34.3-162.2-16.5-37.3-39.8-69.7-80.3-85.2-67.3-26-137-41.9-210.5-36.6-12.2.9-14.7 4.7-15.8 15.3-1.2 12.5 6.5 11.5 14.4 12 15.3.9 30.5 1.9 45.9 2.8 35.6 2.2 71.3 4.5 105.4 16.2 45.2 15.3 86.9 34.9 106.4 82 11.6 28.2 19.5 57.3 24.2 87.2 12.6 80.8 10.7 162.2 9.8 243.6-.6 47.7-.2 95.4-.2 142.4 21.6-17.4 37.9-38.5 32.2-70.2-1.8-10.1.3-20.7.9-31.4 3.9-71.9 7.3-143.8 1.9-215.9zM928.7 751c.5 18.4 17 13.7 26.3 15.5 11 2.2 3.5-9.6 6.5-14-.6-8.8-1.2-16.9-2.1-25.1-6.5-62.4-27.2-119.6-65.7-170.4-2.7-3.6-4.4-9.6-11.1-8-9.8 2.5-16.7 21.9-11.1 30.6 33.5 52.5 55.9 108.7 57.2 171.4z" class="st1"/><path d="M925.7 885.8c-46.6-12.7-94.3-11.7-141.5-15.9-11.9-1.2-15.5 2-16.2 13.7-.8 12.7 3.5 16.3 15.9 16 33.4-.7 66.9.7 99.8 6.9 56.4 10.5 99.8 35.4 116.7 93.8 19.4 67.5 22.1 136.5 22.5 205.8.3 40.1-8.4 80.8-4.2 120 5.4 51.3 12.2 102.4 16.1 154.3 6.9-10.2 16.7-17.9 16.4-31.5-1.5-58.2 2.3-116.5 3.8-174.7 2.3-91.3 2.4-182.3-16.5-272.6-13.4-62.1-50.4-98.7-112.8-115.8zM795.4 756.1c34-2 68.1-4.1 101.9.7 7.8 1 9.6-1.6 9.3-9-2.4-57.5-23.2-108.8-55.5-158.3-32.5 49.7-51.3 102.8-64.8 158.1-2.2 8.5 2.2 9 9.1 8.5zm-256.8 327.3c-68.3-5-130.8 15.2-192 41.1-8.7 3.8-5 8.5-1.7 12.8 28.9 38.8 59.5 76.1 94.6 109.8 5.1 4.8 9.6 6.6 16.5 4.8 30.4-7.4 61.5-9.2 92.8-9.6 84.2-1.2 161 20.3 228.1 71.2 26.2 20 48.1 44.2 69.2 69.1-14.4-70.6-41.5-135.6-90.3-190.5-57.4-64.2-129.1-102.1-217.2-108.7zm396.9-503.3c32.5 57 48 118.3 47.7 183.5 0 10.4 11.9 22.6 20.6 20 10.1-2.9 3.5-12.1 4.5-18.4.9-5.4-.3-10.9-.6-16.5h-1.1c0-7.1.6-14.3-.2-21.4-7.8-74.7-30.7-144-80-203.3-4.7-5.7-8.1-11.8-17-4.1-7.5 6.4-9 11.4-2.3 19.1 11.3 12.5 20.1 26.6 28.4 41.1z" class="st1"/><path d="M338.2 1105.2c31.4-15.2 64.6-26.3 98.9-34.1 110.3-25.5 209.3-1.9 295.2 68.6 84.2 69 123.6 161.8 141.5 264.7 2.9 16.6 3 33.7 10.8 49.6 8.1 16.2 14.3 33.3 21.3 50 .9.1 1.7.3 2.4.4-1.2-14.7-2.4-29.5-3.6-44.2-7.7-88.4-27.7-173.6-72.3-251.9-72.5-127.2-195-179.7-331.5-174.4-62.4 2.3-119.5 22.6-175.1 48.1-4.2 1.9-17.3.1-11.3 11.4 4.8 8.3 8.1 19.2 23.7 11.8zm692.3-335.4c.3 29.3 0 29.3 30.8 41 .8-5.4 1.5-9.2 1.7-13 2.9-66.7-6-131.7-30.2-194.3-15.9-41.3-38.2-79.2-67.6-113.2-10.1-11.7-15.2.3-22.1 3.5-8.1 3.8-6.6 8-1.7 13.9 64 76.3 87.9 165.7 89.1 262.1zm582.2-81.9c-34.4-99.5-101.9-179-167.9-259.2-9.5-11.5-17.1 1.8-24.5 4.7-9.9 3.9 0 9 2.4 12.3 19.2 25.1 39.2 49.6 58.8 74.5 38.2 48.6 73.5 98.9 97.1 155.9 42.4 102.7 38 206.4 6.2 310.4-21.9 71.5-56.1 137.5-98.5 201.7 26 .1 41.8-9 53.5-30.9 18.6-34.4 37.6-68.7 55.2-103.9 59.5-119.5 60.6-241.6 17.7-365.5zm-321.2-191.5c-76.4 44-146.7 95-205.1 160.7-8 9-10.4 17.2-8.4 28.3 7.8 44.2 9.5 88.7 5.7 133.3-.5 6 .8 10.6 5.6 14.6 21.3 17.4 38.2 38.7 54 63.7 28.4-38.9 60-71.8 96.7-99.8 54.3-41.4 118.5-63.9 181.7-87.5 12.6-4.7 14-7.9 8.6-19.3-32.5-69-77.7-130-124-190.3-4.3-5.5-7.1-8.1-14.8-3.7z" class="st1"/><path d="M1380 748.4c-85.5 31.4-158.4 79.1-212.1 152.4-11.3 15.6-14 28.7-1.4 46.2 5.1-6.3 9.6-11.7 14.1-17.1 46.8-56.2 97.6-108.1 161.3-146.6 29.3-17.8 61.6-29.9 93.7-42.2 5.1-2 14.1-2.8 9.6-11.7-3.9-7.7-10.4-1.5-14.6 0-17 5.9-33.6 12.9-50.6 19zm-230.9 225.9c-15.3-63-48.7-113.6-107.3-147.6-78.2-45.3-162.8-56.9-251.8-49.3-11 .9-11.1 7-12 14.1-1.2 10.4 6.9 8.6 12.5 8.2 52.6-4.4 104 2.5 154.2 17.6 31.3 9.3 63.7 16.2 90.8 35.7 49.5 35.6 70.2 87.5 83.4 142.9 18.9 79.5 18.9 160.3 17.4 241.2-.8 41.1-.2 82.3-.2 124.4 8-11.4 27.7-15 25.9-34.1-3-31.2-2.4-62.6-1.4-93.9 2.8-86.6 9.6-173.6-11.5-259.2zm249.6-73.9c-83.3 57.2-148.7 131-207.8 210.6-3.8 5.1-5 10.6-5.1 16.9-1.1 47.3-2.7 94.5-3.5 141.8-.3 14.4-1.5 29.2 2.6 43.6 2.6-.7 3.9-.7 4.7-1.5 60.3-54.1 120.6-108.1 172.4-170.1 55.9-66.7 93.2-141.2 102.5-227.5 1.8-16.2 3-32.5 1.4-50.8-24.7 10.4-46.6 22.8-67.2 37z" class="st1"/><path d="M1184.5 960.6c-9.2 11.4-14.3 22.3-6 36.6 4.8-1.2 6.6-4.7 9-7.7 68.6-87.4 152.6-155.3 259.6-194.6 13.4-5 17-21.3 8.6-33.5-2.9-4.1-5.7-2.2-8.7-1-32.6 12.3-65.5 24.4-95.3 42.7-66.8 41.4-119.1 97.4-167.2 157.5z" class="st1"/><path d="M1374.8 852.5c-70.4 38.4-123.4 95-174.2 154.5-18.8 21.9-18.9 43.9-13.7 71.9 5.9-7.1 10.1-12.3 14.1-17.4 54.1-67.4 113.2-130 185.7-179.4 22.7-15.5 47.2-28.3 72.2-40 13.7-6.3 8.6-17.8 6.2-25.7-2.7-8.5-11-.7-15.2 1-25.5 11.2-50.9 22-75.1 35.1z" class="st1"/><path d="M639.8 1406.9c-47.7-25.7-99.5-27-152.3-17.5-30.5 5.5-60.3 13.7-89.6 23 5.4 5.7 10.4 12 14.7 18.4 27.4-8.5 55.2-15.9 83.7-20.9 95-16.6 178 21.6 223.5 104.3 26.3 48 40 98.6 41.6 153.2 2.9.6 5.6 1.6 8.3 2.8 1.1.3 2.1.6 3.2.9 2.6.6 5 1.5 7.4 2.5 1.4.4 2.7.9 4.1 1.3-1.1-13.4-2.1-27-3.5-40.4-10-96.1-49.5-178.3-141.1-227.6zm-282.2-54.8-.3-.3c-.2-.2-.5-.4-.7-.6.3.3.7.6 1 .9z" class="st0"/><path d="M704.4 1328c-70.4-42.7-148.1-42.6-227.1-27.9-44.6 8.3-87.9 20.9-130.6 35.2 2.1 1.9 3.9 4.1 5.3 6.6 1.2 2.3 2 4.8 2.9 7.3.8.9 1.6 1.8 2.5 2.6.8.7 1.5 1.5 2 2.5 52.9-17.4 106.4-32.2 162.2-38.5 116.5-13.3 206.1 29.6 269.5 123.7 45.9 68.1 70.8 142.6 69.5 225.4-.2 9.3-.3 18.7-.3 28 3.2.3 6.2.9 9 1.9 2.4.3 4.8.7 7.2 1.3 2.9 0 5.7.3 8.4.9-.3-20.3-1.1-40.4-2.7-60.5-10.3-128.2-61.2-237.6-177.8-308.5z" class="st0"/><path d="M1109.6 1697.8h.5" style="fill:none;stroke:#316bac;stroke-width:0;stroke-linecap:round;stroke-linejoin:round"/><path d="M1410 368.3c-.2-.1-.4-.1-.5-.2.1.1.3.1.4.2h.1zm238.7 636.5c33.5-14.1 67.2-24.9 101-32.4 0-7.4.3-14.9.3-22.3v-.1c-33.5 6.4-66.4 16.5-100.1 29.5 1.7-15.6 1.4-27.3 18-34.6 26.5-11.4 53.2-19.8 80.1-25.5-.2-.7 0-1.6 0-2.3-.5-3.1-.6-6.1-1.1-9.2-.5-3.2-1.4-6.4-1.5-9.6-27.4 5.7-54.6 13.7-81.9 23.9-3-17.1-2.1-18.8 13.4-25.8 21.5-9.6 43.1-17.5 64.8-23.5-2.1-6-2.4-13-2.6-18.8-.3-.9-.5-1.8-.5-2.8-25 6.6-49.8 15.3-74.7 26.1.9-29.2-.5-56-3.9-82.6-1.1-7.7 2.9-10.5 9.5-13 15.9-5.8 31.9-11.7 47.7-17.6-.3-.7-.6-1.3-.9-2-3-6-5.7-12.3-6.5-18.8-11.7 4.7-23.3 9-35.2 13.1-5.6 1.9-14.7 13.3-20.7-1-5-11.8.2-16.9 11.9-21.4 11.9-4.5 23.6-9.3 35.3-14.3-1.2-2-2-4.4-3-6.6-1.8-3.8-3.6-7.4-5.1-11.4-.3-.6-.5-1.2-.5-1.8-10.2 4.2-20.3 8.3-30.7 12.1-5.4 1.9-12.3 13-18.8-1-5.9-13-.2-17.1 11.3-20.9 10.2-3.4 20.3-7 30.2-10.9-.9-1.8-1.7-3.6-2.7-5.4-2.4-4.5-5.6-8.3-7.1-13.3-11.1 4.4-22.5 8.5-34.3 12.1-7.5 2.3-9.5.6-12.2-6-3.2-7.7-3.9-13 5.6-16.9 9.9-4.2 19.7-8.8 29.3-13.6-3-3.5-4.8-7.6-7.4-11.4-.6-.9-.9-1.8-1.1-2.8-1.1-1.5-2.1-3.1-3.3-4.5-.5.1-.9.4-1.4.6-11 5.1-21.2 12.4-37 14.6 5.4-16.5 11.6-32.2 18.5-47.4-2.7-3.4-4.7-7.3-7.1-10.9-.9-1.3-1.5-2.8-2.4-4.1-.2 0-.2-.1-.3-.1-.9-.7-1.4-1.6-1.8-2.3-.5-.6-.9-1.2-1.4-1.8-.3-.3-.6-.6-1.1-1-.3-.3-.6-.7-.9-1-6 11.7-11.6 23.8-16.5 36.2-11.3-7.4-10.5-15.9-7.2-26.1 3.2-9.6 6.8-19 10.7-28.2-2-1.8-3.5-4.1-4.8-6.4-1.2-1.5-2.4-3.1-3.6-4.5-2.3-2.6-5.1-5-6.9-7.9l-.2-.1c-5 10.6-9.6 21.6-14.1 32.8-10.7-11.4-15.2-20.4-8.3-35.7 2.4-5.3 4.8-10.4 7.4-15.5-3-2.2-5.1-5.5-7.2-7.9-1.4-1.5-2.6-3.2-3.8-4.8-1.2-.9-2.1-1.9-3-2.9-.6-.6-1.2-1.3-1.5-2.2-4.1 8-8 16-11.7 24.4-17.7-11.8-19.1-16.3-9.9-33.3 1.5-2.9 3.2-5.7 4.7-8.5-1.1-.7-1.8-1.6-2.6-2.5-.9-.9-1.8-1.6-2.6-2.5-.2-.1-.3-.3-.5-.6-.6-.4-1.1-.9-1.7-1.3-1.1-.9-2-1.9-2.9-2.9-2.4-1.9-4.8-3.9-6.3-6.6-3.9 6.6-7.7 13.1-11.4 19.8-17.1-21.1-33.5-40.1-48.7-60.1-3.6-4.7-1.4-7.3 2-9.2-3.3-1.8-6.3-4.1-9.2-6.6-.9-.4-1.7-1-2.4-1.9-.2-.1-.2-.3-.3-.3-1.1-.6-2-1.2-3-2-.6-.6-1.2-1-1.8-1.6l-.2-.1-.2-.1c-.3-.1-.6-.4-.9-.6-.3-.3-.6-.4-.9-.7-.2-.1-.2-.1-.3-.3-29.6 16.3-60 31.4-91.1 45.7-106.4 48.6-202.3 111.7-281.3 197.5-1.4 1.6-3.5 2.6-5.1 3.8-.9-.7-1.4-1-1.5-1.5-14.7-24.4-4.7-41.3 14.7-59.1 67.3-61.8 144.2-109.7 226.8-149.1 37.4-17.8 74.4-35.7 110.6-55.4-1.7-.7-3.2-2-4.1-2.8-.8-.3-1.4-.7-1.8-1.3-.9-.4-1.7-.9-2.4-1.5-.9-.6-1.8-1.3-2.9-1.8.1 0 .1.1.2.1-.7-.4-1.4-.8-2-1.2-2.7-1.6-5.9-2.6-8.1-4.8-74.4 39.2-153 71-223.1 118.1-43.3 29.2-85.5 59.5-121 97.6-1.5 1.6-3.6 2.6-5.9 4.1-1.1-1.5-2.3-2.5-2.9-3.8-15.3-32.8-18.8-21.9 8.7-49.3 59.2-58.9 129.9-102.2 205.7-137.7 34.4-16.2 69.2-31.9 103.1-49-2.7-1.3-5.4-3.1-7.8-4.4-4.4-2.3-9.5-4.2-13.7-6.9-.8-.3-1.4-.6-2-1-21 10.4-42.2 20.4-63.7 29.9-92.2 41-177.5 92.2-248 164.2-5.4 5.5-7.8 6.4-12-.6-15.9-26.5-19.2-18.7 4.7-38.9 63.1-53.7 128.4-105.2 205.8-138.1 25.9-11.1 52.2-21.3 77.9-32.8-.3-.1-.8-.4-1.1-.7-1.4-.3-2.7-.6-4.1-1.2-.6-.3-1.1-.6-1.5-.9-1.7-.3-3.2-1.2-4.2-2.3-1.4-.4-2.7-1-4.1-1.5-2.4-1-4.8-1.8-7.2-2.8-.8-.3-1.7-1-2.7-1.6-1.4-.1-2.4-.6-3.9-1.3-.2 0-.2-.1-.3-.1-.8 0-1.5-.3-2.1-.6-1.7 11.2-14.7 9.3-22.7 12.3-12.9 4.7-8.9-7.4-10.2-13-1.1-4.1-2-8-2.7-12.1h-.8c-3.9-.6-7.8-2-11.6-3.4-2.1-.7-4.2-1.6-6.5-2.2-1.8-.4-3.5-.6-5.1-1.5.9 5.1 1.8 10.4 2.9 15.5 5.3 26.8 5.7 27-18.5 39.2-68.9 34.6-129.6 80.4-187.9 129.4-3.9 3.2-7.7 6.6-11.6 9.8-5.1 4.2-8.9 12.1-17.4 2.8-7.7-8.5-2.1-11.8 3.8-16.8 42.4-36.3 77.6-78.3 107.3-124.9 15.3-23.9 28.7-48.7 40.6-73.9-6.5-.3-12.8-1.9-19.2-2.3-1.2-.1-2.4-.4-3.3-.9-.2 0-.2-.1-.3-.1-39.8 84.3-97.3 158-179.2 216.2-84.6 60.4-132.1 143.5-159.5 239.6-21 74.2-27.8 150.2-27.1 227 0 6.1 6 15.3-3.9 18.5-8.3 2.6-25.6-11.8-26.2-20.9-.9-11.5-1.5-23-1.7-34.6-.6-115.7 18.9-226.5 78.9-328.5 29-49.3 67.2-90.4 113-125.6 71.4-54.8 130.5-119.3 172.9-196.2-3.9 0-7.7-.4-11.6-.9-2-.3-3.8-.4-5.7-.6-.3 0-1.8-.1-3-.3-.5.1-1.1.1-1.7.1-.9 0-1.7-.1-2.4-.1-41.5 72.2-99.7 133.5-169.4 187-81.7 63-132.6 145.9-162.3 241.6-24.8 80.2-33.8 162.5-29.8 246.2.2 4.2 3.5 11.8-5.7 9.8-8.6-1.9-19.4-1.6-20.4-15.2-2.7-35.3-1.2-70.4 1.8-105.5 7.1-82.3 25.6-161.6 62.8-236.4 31.1-62.4 74.6-114.6 130.3-158 62.4-48.4 116.7-104 157.5-170.4-5.6-.3-11.1-.9-16.8-.6-3 .1-5.9 0-8.7-.6-9.6 14.6-20.1 28.9-31.3 42.7-37.8 47.8-83.8 87.8-131.3 126-73.6 59.4-120.1 136.1-149.9 223.3-29.6 87.1-40.1 176.8-37.4 268.3.2 3.8 0 7.6 0 11.5-28.1-3.1-29.3-3.1-29.3-27 0-100.4 7.1-199.5 45.4-294.8 35.8-89.3 95.8-158.4 169.4-219.1 46.9-38.5 91.7-79.3 126.4-129.2-2.6.4-5 .3-7.8.3-3.6 0-6.8.7-10.2.6-4.4.9-8.7 1.3-13.2 1.5-2.1 2.6-4.2 5.1-6.3 7.6.3-2.3.6-4.7.9-7.1-3.9 1-7.8 1.3-11.9 1.6-4.4.3-8.6 1.3-13.1 1.5-2.1 11.1-4.7 22.3-7.8 33.3-2.4 8.5-6 15-12.5 20.7-9.6 8.6-19.1 17.1-28.6 25.8-5 4.5-9.2 10.5-16.7 3.5-6.3-5.8-11.7-10.2-6.3-20.7 9-17.4 16.4-35.4 22.4-54-.6.4-1.2.7-2.1 1-6.8 2.2-14.6 2.3-21.5 4.2-.8.1-1.4.3-2.1.3-3.8 10.2-7.8 20.3-12.3 30.3-5.3 11.7-8 10.2-17 2.6-8.9-7.3-12-13.4-9.8-21.6-2.4.9-4.7 1.5-7.1 1.9-.6.3-1.2.6-1.8.7-2.4 1-5 1.6-7.5 2.3-4.2 1.3-10.1 2.3-13.8 4.4-.5.3-.9.4-1.4.6 19.8 20.4 41 39.8 61.8 59.5 4.7 4.4 10.4 9.3 2.1 14.3-5.9 3.5-8.9 16.5-20.1 6.7-26-22.5-50.8-45.7-73.8-70.4 0 0-.2 0-.2.1-2.3 1.3-4.8 2.6-7.2 3.6-4.2 1.9-8.6 3.5-12.8 5.3-.3.1-.8.3-1.1.3 12.5 13.7 25.6 27 38.9 40 9.9 9.8 21.3 18.2 30.4 28.7 4.2 5 20.1 5.7 8.9 19.1-9.9 11.8-16.5 5.7-24.7-1.2-27.5-23.6-53.8-48.6-78.3-75.1-2.6 2.3-6.3 3.6-9.3 5.1-1.2.6-2.6.9-3.8.9l-2.7 1.8c-1.5 1-3 2-4.4 2.9 24.5 27 51 52.4 79.4 76.3 2.1 1.8 4.2 3.6 6.2 5.7 3.9 3.9 11.6 6.4 4.5 14.1-5.4 5.8-9.8 5-15.9.9-36.5-25.2-70.5-52.5-100.3-83-2.3 1.8-4.8 3.2-7.5 4.4-2.9 1.3-5.9 2.3-7.8 4.8-1.1 1.3-2.7 1.9-4.4 2 30.5 32.5 65.1 60.7 102.1 85.9 6 4.1 11.7 6.4 4.8 16.2-55.8 77-94 161.5-108.5 255.1-.5 3.2-1.4 6.3-2.4 11.5-24.1-12.5-47.4-23.6-69.6-36.6-9.5-5.5-10.7-17.8-13.4-27.7-10.7-38.9-14.6-79.1-17.4-119-2.6-35.7-2.6-71.5-2.7-107.2-1.2 1.3-2.6 2.5-3.9 3.6-5.9 5.1-11.4 10.2-17 15.6-.2.1-.5.3-.6.6v24.4c.2 62.3 4.4 124.1 19.5 184.8.3 1.5-.3 3.1-.6 4.7-23.5-6.1-37.9-15.8-41-43.5-5.3-45.7-9-91.3-12.3-137-4.4 9.2-14.6 14-18.9 23-.5 1-1.1 1.8-1.8 2.3 2.9 39.7 6.5 79.2 12.3 118.6 1.5 9.6-.6 9.3-9.3 7.4-15.3-3.4-21.9-12-25.4-26.1-4.7-19.4-8.3-38.9-11.1-58.6-.3.7-.8 1.5-1.2 2-3.6 4.2-6.8 8.6-9.6 13.3-2.3 3.6-3.3 8.3-6.8 11.1-.3.1-.5.4-.8.6 1.8 10.4 3.9 20.7 6.5 30.9 2.7 11.1 1.2 13.3-10.2 12-8.3-.9-14.6-2.8-19.1-7.3 0 0 0 .1-.2.1v.1c-1.1 3.8-3.5 6.6-5.4 9.9-.3.6-.8 1-1.2 1.5 0 .1-.2.4-.2.6-.3 1-.5 1.9-.9 2.9-.5 1.3-1.1 2.2-1.8 3.2-.6.7-1.2 1.5-1.8 2.2 0 1.9-.8 3.4-1.7 4.4 13.5 0 26.9 1.2 40.4 4.7 31.4 7.9 61.6 18.4 90.5 32.7 42.2 21 83.9 43.3 126.3 63.9 11.7 5.7 7.5 13.6 5.9 20.9-2.4 10.8-10.2 3.5-14.7 2-43-12.8-82.7-33.1-120.1-56.7-46.5-29.3-94.1-40.8-143.3-38.5-.8 4.8-3.6 8.6-5.9 12.7v.3c-.6 2.5-1.5 4.7-2.9 6.7-.3.7-.8 1.6-1.1 2.3 39.2-4.1 78.2 1.2 116.5 21.6 16.8 9 33.2 18.8 49.9 28 34 18.8 69.2 35.3 106.6 46.7 6.3 1.9 13.1 2.6 12.3 12.4-.8 10.6-2.3 15.6-15.5 11.4-51.7-16.9-100.1-40.7-148.4-64.8-42.2-20.9-85.5-35.4-132.3-28.6-.6 4.7-2.9 8.8-4.8 13.3-1.5 3.6-2.6 7.6-4.1 11.2 42.8-8.2 84.6-.7 126.9 21.1 53.5 27.6 107.5 54 165.8 71.2 8.3 2.5 14.9 22.3 8.7 26.8-5.4 4.1-11.9-.6-17.1-2.6-33.4-12.4-65.4-27.7-97-43.8-36.1-18.4-72.6-35.6-113.2-43.6-29.2-5.8-57.1-4.4-84 1.5 0 .6 0 1.2-.2 1.9-.5 3.1-1.8 5.7-2.6 8.8s-1.2 6.1-2.1 9.2c-.2.7-.5 1.3-.8 1.8v.4c0 .6-.2 1.2-.2 1.6 14.7-4.1 29.8-6.9 45.7-7.1 45.6-.7 86.4 14.9 126.1 34.6 44.3 22 87.9 45.1 135.4 60.2 8.4 2.8 13.2 6.9 11 15.5-2.3 8.5-9.3 4.2-14 3.6-81.8-10.6-160.1 2.3-236.2 31.9-26.3 10.2-52.2 21.1-77.3 34-6 3.1-10.2 3.8-13.7-.6 2.6 8.2.5 17.8.8 26.1.5 9.8 1.4 19.5 1.5 29.3v.1c41 78.3 92.8 150.1 154.5 215.3 13.2 13.9 12.2 11.5-5 19.1-21.3 9.5-31.9 1.2-44.5-14.3-32.9-40.4-63.7-82-91.6-125.3.2.9.3 1.8.2 2.6 1.1 3.6 2.4 7.3 3.2 10.8 1.4 5.8 2.6 11.7 3.8 17.5 2.6 6.1 3.2 12.8 5.7 19.1 2 4.7 4.1 9.5 3.8 14.1 13.8 19.3 28.4 38.2 43.3 56.9 5.3 6.4 11.9 12.3 15.6 19.4 2.4 4.7 15 8.5 5.9 15-7.2 5.1-16.8 9.9-26.3-1.6-3.3-3.9-6.6-7.9-9.8-11.8.5 1.2.9 2.2 1.5 3.4.3.4.8.9 1.1 1.3 5 7.7 7.5 16.3 12 24.2 2.4 4.2 5.4 8.3 7.1 12.7 74.7-26.8 150.6-48.4 231.8-45.5 141.2 5.3 240.1 72.3 298.9 195.9 33.8 71 48.3 146.1 46.9 224.3 0 6-.2 12-.2 17.9.2 0 .3.1.3.1 1.2-.4 2.4-.4 3.8-.1.9-.1 2-.1 3 0 3 .4 5.9.9 8.9 1.2.2 0 .5 0 .8-.1.9-.1 1.8 0 2.7.3h.5c.6 0 1.4.1 1.8.3-.2-13.4-.3-26.7-.6-40.1-1.5-76.3 3.9-152.9-6.5-229-15-110.4-43.3-216.2-120.9-302.7-85.7-95.7-197.1-127.8-323.8-118-58.5 4.5-112.6 24.4-164.8 48.9-13.7 6.4-19.7 3.8-25.4-8.9-3.2-7.1-1.1-9.9 4.8-12.7 69.9-34.1 141.6-64.2 221.4-61 160.7 7.4 284.6 77.2 367.3 211.9 53.1 86.6 74.9 182 75.2 282.2.2 43.5.2 86.9.2 130.4 0 33.8-.2 67.7-.2 101.5 1.1-.1 2.1-.1 3.3 0 4.8.9 11.3.3 16.2.4.6 0 1.2.1 1.7.1.3-85.5 2-170.9-.5-256.3-4.1-136.4-46.5-260.6-147.2-358.8-109.7-107.3-244.3-151.2-399.9-123.4-51 9-98 30.2-143.9 53.2-10.5 5.4-15.3 4.5-20-6.3-4.1-9-6.8-14.1 5.6-20 64.3-30.6 130.2-56.3 202.2-64.8 71.1-8.2 139.1 4.2 204.8 29.2 113.2 43 201.6 114.4 259.3 219.2 39.5 71.9 60.7 149.2 66.3 230 6.8 99.5 3.3 199.1 1.2 298.6.5-.1.9-.1 1.4-.1 2.6 0 5.1 0 7.7.1.5-.1 1.1-.1 1.5-.1 3.8.1 7.5-.7 11.3-.4.6 0 1.1.1 1.7.3 0-41.6 0-83-.3-124.6-.5-56.6 28-100.8 62.8-142.2 51.4-61.1 113.3-112 171.7-166.4 61.3-57.2 120.7-116 164.2-187.7 48.9-80.5 64.8-168 58.6-260.2-6.6-99-52.9-182.9-108.7-262.8-16.5-23.6-34.3-46.4-51.6-69.6-3.3-4.5-10.7-9.8-1.4-14.4 6.9-3.4 14.1-14.3 23.2-2.8 50.4 64.8 103.7 127.6 139.8 202 40.1 82.8 47.4 168.6 30.1 257.7-25.9 132.6-100.9 236.7-199 327.9-57.6 53.5-120.1 101.8-175.4 158-57.7 58.6-88.4 125.7-88.5 208.7 0 25.1-.2 50.2-.3 75.4 1.5-.7 3.2-1 5.4-1 .5-.1.8-.1 1.2-.1 5.9-.6 11.7-1.6 17.6-1.3 0-26.5-.2-52.9-.8-79.5-2.1-77 32.5-137.4 85.4-190.8 51.9-52.2 110.3-97.6 164.5-147.5 70.4-64.8 132.6-135.5 171.8-222.4 46.8-103.3 65.5-210.2 35.9-321.6-16.5-62.4-48.4-118.1-86.6-170.4-24.5-33.5-50.8-65.9-75.9-99-2.9-3.8-12.5-9.2-3.5-14.1 8-4.5 18.3-16.6 27.8-4.4 53.5 68.6 112.4 133.6 150.2 212.8 37.1 78 45.9 159.1 31.3 243.1-22.9 130.8-88.7 241.5-169.7 345.8-31.6 40.5-74 67.2-113.5 97.9-60.7 47-114.6 99.6-150.8 167.3-24.1 45.1-37.7 92.8-37.7 144v34.9c.3 0 .5-.1.8-.1h.5c.5-.1 1.1-.3 1.5-.4 1.1-.3 2.1-.6 3.2-.7 2.9-.4 5.6-.6 8.4-.6.8-.6 1.7-1 2.6-1.2 1.5-.3 3-.3 4.4-.4 0-10.1.2-20.1.2-30.2.8-90.1 42.5-163.8 104.5-228 62.5-64.8 135.7-116.8 215.9-158.1 65.4-33.7 138.5-40.1 211.7-38.9 13.1.1 26 .9 38.8 1.9.3-5.5 2.3-10.6 4.5-15.8.8-1.8 1.7-3.6 2.7-5.5-43-3.2-87.3-2.3-132.6 2.8-48 5.5-94 17.2-142.4 38.7 11.9-15.8 20.7-27.4 29.6-39.2 3.3-4.4 7.8-6.3 12.8-7.4 80-18.4 160.4-31.1 243.1-24.9.2-.6.3-1.2.6-1.8 0-.7.2-1.3.5-2.2 1.2-3.1 1.2-6.3 2.3-9.2.9-2.8 2.7-5.1 3.6-7.9-44.3-3.8-89.1-2.3-134.2 3.2-10.8 1.3-25.9 7.7-31.4-.1-4.8-6.7 8.1-17.6 12.8-26.8 11.3-22.2 23.8-43.8 34.7-66.1 3.8-7.4 8.3-12.4 15.9-16 39.8-19.1 81.6-30 124.6-36.5-.2-1.5.2-2.9 1.2-4.5.3-.4.5-.9.6-1.3-.6-1.9-.6-4.1.3-6-.3-2.8-.9-5.5-1.1-7.6 0-.9 0-1.6.3-2.2-40.6 5.7-80 15.8-120.1 31.8 2.3-15.2 4.7-26 19.3-32.1zm-871.8 308.8c-67-50.9-143.9-72.3-228.1-71.2-31.3.4-62.4 2.2-92.8 9.6-6.9 1.8-11.4 0-16.5-4.8-35-33.7-65.7-71-94.6-109.8-3.3-4.4-7.1-9 1.7-12.8 61.2-26 123.7-46.1 192-41.1 88.1 6.6 159.8 44.5 217.1 108.8 48.9 54.8 75.9 119.9 90.3 190.5-21-25-42.9-49.2-69.1-69.2zm-451-231.6c55.6-25.5 112.7-45.8 175.1-48.1 136.5-5.3 259 47.3 331.5 174.4 44.6 78.3 64.6 163.5 72.3 251.9 1.2 14.7 2.4 29.5 3.6 44.2-.8-.1-1.5-.3-2.4-.4-7.1-16.8-13.2-33.8-21.3-50-7.8-15.9-8-33-10.8-49.6-17.9-103-57.3-195.7-141.5-264.7-86-70.4-184.9-94.1-295.2-68.6-34.3 7.9-67.5 19-98.9 34.1-15.6 7.4-18.9-3.5-23.6-11.8-6.1-11.3 7-9.5 11.2-11.4zM943 493.9c6.9-3.2 12-15.2 22.1-3.5 29.5 34 51.7 71.9 67.6 113.2 24.2 62.6 33.1 127.6 30.2 194.3-.2 3.8-.9 7.6-1.7 13-30.8-11.7-30.5-11.7-30.8-41-1.2-96.4-25.1-185.8-89.1-262.1-4.9-5.9-6.4-10.1 1.7-13.9zm-33.5 25.9c8.9-7.7 12.3-1.6 17 4.1 49.3 59.4 72.2 128.6 80 203.3.8 7.1.2 14.3.2 21.4h1.1c.3 5.5 1.5 11.1.6 16.5-1.1 6.3 5.6 15.5-4.5 18.4-8.7 2.6-20.6-9.6-20.6-20 .3-65.2-15.2-126.5-47.7-183.5-8.3-14.4-17.1-28.6-28.3-41.1-6.8-7.7-5.3-12.6 2.2-19.1zM882.6 549c6.8-1.6 8.4 4.4 11.1 8 38.5 50.8 59.2 107.9 65.7 170.4.9 8.2 1.5 16.3 2.1 25.1-3 4.4 4.5 16.2-6.5 14-9.3-1.8-25.9 2.9-26.3-15.5-1.4-62.7-23.8-118.9-57.3-171.4-5.5-8.7 1.4-28.1 11.2-30.6zm-96.2 198.7c13.5-55.3 32.3-108.4 64.8-158.1 32.3 49.4 53.1 100.8 55.5 158.3.3 7.4-1.5 10.1-9.3 9-33.8-4.8-67.9-2.8-101.9-.7-7 .4-11.4-.1-9.1-8.5zm213.9 502.6c-17-35.6-32.5-71.2-53.2-104.4-39.8-64.2-91.9-117.1-156.9-157.2-16.5-10.2-23.2-20.7-22.4-39.2 1.5-35.9-5.9-29.2 30.4-28.3 43 1 86 2.6 126.4 20.6 26.8 11.8 42.4 31.5 51.6 57.8 19.5 56 22.4 114.2 24.1 172.5.6 25.8 0 52.1 0 78.2zm54.7 23.9c-1.5 58.2-5.3 116.5-3.8 174.7.3 13.6-9.5 21.3-16.4 31.5-3.9-51.9-10.7-103-16.1-154.3-4.2-39.2 4.5-79.9 4.2-120-.5-69.3-3.2-138.3-22.5-205.8-16.8-58.3-60.3-83.3-116.7-93.8-32.9-6.1-66.4-7.6-99.8-6.9-12.5.3-16.7-3.4-15.9-16 .8-11.7 4.4-14.9 16.2-13.7 47.2 4.2 94.9 3.2 141.5 15.9 62.4 17.1 99.4 53.7 112.7 115.8 19 90.3 18.9 181.3 16.6 272.6zm54.6 77.8c5.7 31.7-10.5 52.8-32.2 70.2 0-47-.5-94.7.2-142.4.9-81.4 2.9-162.8-9.8-243.6-4.7-29.9-12.6-59.1-24.2-87.2-19.5-47.1-61.2-66.7-106.4-82-34.1-11.7-69.8-14-105.4-16.2-15.3-.9-30.5-1.9-45.9-2.8-8-.4-15.6.6-14.4-12 1.1-10.6 3.6-14.4 15.8-15.3 73.5-5.3 143.1 10.6 210.5 36.6 40.4 15.5 63.7 47.8 80.3 85.2 22.9 51.8 30.2 106.8 34.3 162.2 5.4 72.1 2 144-1.8 215.9-.7 10.6-2.8 21.3-1 31.4zm52.5-24.4c1.8 19.1-17.9 22.8-25.9 34.1 0-42.2-.6-83.3.2-124.4 1.5-81 1.5-161.8-17.4-241.2-13.2-55.4-34-107.4-83.4-142.9-27.1-19.5-59.5-26.4-90.8-35.7-50.2-15.2-101.6-22-154.2-17.6-5.6.4-13.7 2.2-12.5-8.2.9-7.1 1.1-13.3 12-14.1 89-7.6 173.6 3.9 251.8 49.3 58.6 34 92 84.6 107.3 147.6 21 85.6 14.3 172.5 11.6 259.3-1.1 31.2-1.8 62.6 1.3 93.8zm302.4-413.4c-9.3 86.3-46.6 160.9-102.5 227.5-51.9 62-112.1 116-172.4 170.1-.8.7-2.1.7-4.7 1.5-4.1-14.4-2.9-29.2-2.6-43.6.8-47.3 2.4-94.5 3.5-141.8.2-6.3 1.4-11.8 5.1-16.9 59.1-79.6 124.5-153.4 207.8-210.6 20.6-14.1 42.5-26.5 67.2-36.9 1.6 18.2.4 34.5-1.4 50.7zm.5-97.7c2.4 7.9 7.5 19.4-6.2 25.7-25 11.7-49.5 24.5-72.2 40-72.5 49.4-131.5 112-185.7 179.4-4.1 5.1-8.3 10.2-14.1 17.4-5.3-28-5.1-50 13.7-71.9 50.8-59.5 103.9-116.1 174.2-154.5 24.2-13.1 49.6-23.9 75-35 4.3-1.8 12.6-9.5 15.3-1.1zm-9.3-55.1c8.4 12.3 4.8 28.6-8.6 33.5-107 39.2-191.1 107.2-259.6 194.6-2.4 3.1-4.2 6.6-9 7.7-8.3-14.3-3.2-25.2 6-36.6 48.1-60.1 100.4-116.1 167.2-157.5 29.8-18.4 62.7-30.5 95.3-42.7 2.9-1.2 5.8-3.1 8.7 1zm-10.4-31.8c4.5 8.9-4.5 9.6-9.6 11.7-32 12.3-64.3 24.4-93.7 42.2-63.7 38.5-114.6 90.4-161.3 146.6-4.5 5.4-9 10.8-14.1 17.1-12.6-17.5-9.9-30.6 1.4-46.2 53.7-73.4 126.6-121.1 212.1-152.4 17-6.1 33.5-13.1 50.7-18.8 4.1-1.7 10.6-8 14.5-.2zm-15.1-39.1c5.4 11.4 4.1 14.6-8.6 19.3-63.3 23.6-127.5 46.1-181.7 87.5-36.7 28-68.3 60.8-96.7 99.8-15.8-25.1-32.6-46.4-54-63.7-4.8-3.9-6-8.6-5.6-14.6 3.8-44.6 2.1-89.1-5.7-133.3-2-11.1.5-19.3 8.4-28.3 58.3-65.8 128.7-116.7 205.1-160.7 7.7-4.4 10.5-1.8 14.7 3.8 46.4 60.2 91.7 121.2 124.1 190.2zm164.8 362.9c-17.6 35.2-36.5 69.4-55.2 103.9-11.7 21.9-27.5 31.1-53.5 30.9 42.4-64.2 76.5-130.3 98.5-201.7 31.9-104 36.2-207.7-6.2-310.4-23.6-57-58.9-107.4-97.1-155.9-19.5-24.9-39.5-49.4-58.8-74.5-2.4-3.2-12.3-8.3-2.4-12.3 7.4-2.9 15-16.2 24.5-4.7 66 80.2 133.5 159.7 167.9 259.2 42.9 123.9 41.8 246-17.7 365.5z" class="st0"/><path d="M684 1377.9c-55.2-36.5-117.3-47.3-183.4-37.8-44.8 6.4-87.5 19.3-129.7 33.8.5.6.9 1.2 1.2 1.9.3.1.6.4.9.7 2.4 2.5 3.9 5.3 5.1 8.5 0 .1.2.1.2.3 2 2.2 3.9 4.5 5.3 7.1.2.3.2.4.3.7 5.7-2 11.4-4.1 17.3-6.1 40.6-14.1 82.1-25.8 125.5-27.9 97-4.7 170.2 36.8 224 112.7 40.9 57.8 60.3 122.5 60.7 192.5 0 6 0 11.8.2 17.8 3 .4 5.9 1.2 8.9 2.2 3.3.3 6.6 1 9.8 1.5 1.2.1 2.4.6 3.8 1-.6-15.2-1.2-30.3-2.1-45.5-6.8-109.1-52.8-200.4-148-263.4zm536.7 281.7c-.6 5.8-1.4 11.7-2 17.5 7.8-3.4 15.6-7 23.8-9.9.3-.1.5-.1.8-.1 2.9-20.7 6.5-41.3 9.9-61.8 8.1-47.4 35.9-83.4 70.7-115.5 75.6-69.9 162.7-120 267.1-134.3 18-2.5 35.9-3.8 53.8-4.2 1.5-4.4 4.5-7.4 7.1-11.8 2-3.4 3.2-6.7 5.1-9.9-121.9-.7-235.6 44.8-341 136.2-60.6 52.4-86.6 117.8-95.3 193.8z" class="st0"/><path d="M1477.8 1306.3c-83.7 33.3-159.5 78-220.1 144.5-62.1 68.3-94.9 147.5-97.4 238 4.2-1.9 9.8-2.8 14-2.8 2.7-.6 5.3-1.2 7.8-2.2.3-.1.6-.1.9-.3 4.2-113 58.3-201.7 148.1-271 79.4-61.1 168.8-102.7 269.8-117.3 25.7-3.6 51.4-5.1 76.7-4.4 1.2-4.4 3.6-7.9 5.6-11.8 1.5-3.1 2.4-6.1 3.8-9-70.6-3.2-140.4 8.9-209.2 36.3z" class="st0"/></svg>