<svg xmlns="http://www.w3.org/2000/svg" id="Layer_1" data-name="Layer 1" version="1.1" width="247.85" height="321.001"><defs id="defs4"><style id="style2">.cls-4{fill:#e4dfcf}.cls-14,.cls-8{fill:#610000}.cls-14{stroke:#e4dfcf;stroke-linecap:round;stroke-linejoin:round;stroke-width:14.73px}</style></defs><path class="cls-4" d="M208.85 34.651A123.14 123.14 0 0 0 122.66.001a123.14 123.14 0 0 0-86.18 34.61 116.64 116.64 0 0 0 0 168.5 123.11 123.11 0 0 0 86.19 34.65 123.16 123.16 0 0 0 86.18-34.61 116.64 116.64 0 0 0 0-168.5z" id="path260" style="fill:#e4dfcf"/><path class="cls-4" id="polyline262" style="fill:#e4dfcf" transform="translate(-614.99 -749.999)" d="m615.41 872.65-.42 100.41L739.85 1071l122.99-97.89-3.2-99.08"/><ellipse class="cls-8" cx="122.63" cy="118.881" rx="105.4" ry="102.1" id="ellipse264" style="fill:#610000"/><path class="cls-8" id="polygon266" style="fill:#610000" transform="translate(-614.99 -749.999)" d="m657.57 963.36-3.03-60.78-19.72-11.33-3.06 72.11 12.9 15.82z"/><path class="cls-4" id="polygon268" style="fill:#e4dfcf" transform="translate(-614.99 -749.999)" d="M643.19 909.84h-4.41l-.01 36.66 5.9-15.07 5.9 15.07.01-36.66h-3.94l-1.96-8.73z"/><path class="cls-8" id="polygon270" style="fill:#610000" transform="translate(-614.99 -749.999)" d="M687.03 990.57 684 929.79l-19.72-11.34-3.06 72.11 12.9 16.8z"/><path class="cls-4" id="polygon272" style="fill:#e4dfcf" transform="translate(-614.99 -749.999)" d="M672.65 937.04h-4.41l-.01 36.66 5.9-15.06 5.9 15.07v-36.67h-3.93l-1.96-8.72z"/><path class="cls-8" id="polygon274" style="fill:#610000" transform="translate(-614.99 -749.999)" d="m718.76 1008.71-3.03-60.78-19.72-11.34-3.06 72.11 12.9 16.8z"/><path class="cls-4" id="polygon276" style="fill:#e4dfcf" transform="translate(-614.99 -749.999)" d="M704.38 955.18h-4.41l-.01 36.66 5.9-15.06 5.89 15.07.01-36.67h-3.93l-1.96-8.72z"/><path class="cls-8" id="polygon278" style="fill:#610000" transform="translate(-614.99 -749.999)" d="m750.49 1026.85-3.04-60.78-19.71-11.34-3.06 72.11 12.9 21.64z"/><path class="cls-4" id="polygon280" style="fill:#e4dfcf" transform="translate(-614.99 -749.999)" d="M736.11 973.32h-4.41l-.01 36.66 5.9-15.06 5.89 15.07.01-36.67h-3.94l-1.95-8.72z"/><path class="cls-8" id="polygon282" style="fill:#610000" transform="translate(-614.99 -749.999)" d="m782.22 1009.86-3.03-60.78-19.71-11.34-3.07 72.11 12.91 16.8z"/><path class="cls-4" id="polygon284" style="fill:#e4dfcf" transform="translate(-614.99 -749.999)" d="M767.85 956.33h-4.42l-.01 36.66 5.91-15.06 5.89 15.06.01-36.66h-3.94l-1.96-8.73z"/><path class="cls-8" id="polygon286" style="fill:#610000" transform="translate(-614.99 -749.999)" d="m813.96 990.6-3.03-60.78-19.72-11.34-3.06 72.11 12.9 16.8z"/><path class="cls-4" id="polygon288" style="fill:#e4dfcf" transform="translate(-614.99 -749.999)" d="M799.58 937.07h-4.41l-.01 36.66 5.9-15.06 5.9 15.07.01-36.67h-3.94l-1.96-8.72z"/><path class="cls-8" id="polygon290" style="fill:#610000" transform="translate(-614.99 -749.999)" d="m817.62 963.4 3.06-60.78 19.72-11.33 3.03 72.11-12.91 16.8z"/><path class="cls-4" id="polygon292" style="fill:#e4dfcf" transform="translate(-614.99 -749.999)" d="M832.02 909.88h4.42l-.01 36.66-5.9-15.07-5.9 15.07.01-36.66h3.94l1.96-8.73z"/><circle class="cls-14" cx="122.64" cy="113.211" r="70.09" id="circle294" style="fill:#610000;stroke:#e4dfcf;stroke-width:14.72999954px;stroke-linecap:round;stroke-linejoin:round"/><path class="cls-14" d="M52.54 113.201a69.8 69.8 0 0 0 14 42c8.8-11.71 25.36-26.26 25.36-42 0-15.74-16.54-30.3-25.34-42a69.8 69.8 0 0 0-14.02 42z" id="path296" style="fill:#610000;stroke:#e4dfcf;stroke-width:14.72999954px;stroke-linecap:round;stroke-linejoin:round"/><path class="cls-14" d="M192.73 113.231a69.7 69.7 0 0 1-14 42c-8.79-11.71-25.34-26.26-25.34-42 0-15.74 16.56-30.29 25.36-42a69.72 69.72 0 0 1 13.98 42z" id="path298" style="fill:#610000;stroke:#e4dfcf;stroke-width:14.72999954px;stroke-linecap:round;stroke-linejoin:round"/><path class="cls-14" id="line300" style="fill:#610000;stroke:#e4dfcf;stroke-width:14.72999954px;stroke-linecap:round;stroke-linejoin:round" d="m122.03 43.121-.03 138.54"/></svg>