<svg xmlns="http://www.w3.org/2000/svg" id="Layer_1" width="148.949" height="162.75" data-name="Layer 1" viewBox="0 0 148.949 162.75"><defs id="defs10"><clipPath id="clippath"><path id="path4" d="M286.24 859.95s70.16-17.64 110.85-26.13l-23.35-62.07-77.89 13.38-27.93 18 18.32 56.81z" class="cls-1"/></clipPath><clipPath id="clippath-1"><path id="path7" d="M305.08 946.31s34.22-18.06 114.55-24.75l2.12 22.44v78.8l-119.55 16.97h-91.34V980.9Z" class="cls-1"/></clipPath><style id="style2">.cls-1{fill:none}.cls-12{fill:#d5e0e2}</style></defs><g id="g544" transform="translate(-92.133 -230.41)"><g id="g410"><g id="g384"><path id="path380" d="M104.57 390.82c-.85 0-1.67-.47-2.07-1.28-.66-1.3-15.8-32.06-2.81-66.44l-1.72-3.7c-.36-.78-.27-1.69.25-2.37.85-1.14 7.49-10 10.51-13.59-.32-.31-.86-.57-1.76-.57-.46 0-.98.07-1.56.2-.85.19-1.66.29-2.42.29-2.69 0-4.29-1.21-5.15-2.23a3.84 3.84 0 0 1-.61-4 3.84 3.84 0 0 1 3.31-2.34l9.58-.59 1.7-1.99-2.18-4.67a2.32 2.32 0 0 1 1.12-3.08l43.14-20.12c.1-.05.21-.09.32-.12.15-.04.95-.27 2.1-.27 1.03 0 2.07.18 3.05.52l55.87-26.05-.05-.1a2.32 2.32 0 0 1 1.12-3.08l4.24-1.98c.76-.35 1.56-.53 2.39-.53 1.69 0 3.27.76 4.33 2.02l2.28-1.06c.31-.14.65-.22.98-.22.27 0 .54.05.79.14.58.21 1.05.64 1.31 1.2l5.9 12.64c.54 1.16.04 2.54-1.12 3.08l-45.66 21.29c-.94.44-1.77 1.11-2.4 1.93l-.85 1.11a11.04 11.04 0 0 1-4.13 3.32l-15.23 7.1c.08 1.54-.07 3.88-1.12 6.76-.67 1.83-1.56 3.16-2.28 4.23-1.2 1.78-1.69 2.52-1.01 4.63.36 1.11-.17 2.32-1.23 2.82l-2.88 1.34a3.16 3.16 0 0 0-1.53 4.19l1.67 3.59c3.07 6.58.21 14.43-6.37 17.5-2.1.98-4.44 1.5-6.76 1.5-2.12 0-4.19-.41-6.15-1.23l-6.22-2.59c-2.81 3.98-9.67 17.88 9.15 41.28.45.56.61 1.29.45 1.98s-.63 1.28-1.28 1.58l-38.05 17.74c-.32.15-.65.22-.98.22z" style="fill:#1835b6"/><path id="path382" d="M222.95 235.05c1.26 0 2.46.71 3.03 1.93l.36.77 4.21-1.96 5.9 12.64-45.66 21.29c-1.28.6-2.4 1.5-3.26 2.63l-.85 1.11a8.8 8.8 0 0 1-3.26 2.63l-16.78 7.83s.87 2.86-.77 7.34c-1.63 4.49-4.9 5.48-3.32 10.36l-2.88 1.34a5.48 5.48 0 0 0-2.65 7.28l1.67 3.59c2.53 5.43.18 11.89-5.25 14.42a13.67 13.67 0 0 1-11.03.23l-7.82-3.26s-15.78 15.92 8.05 45.55l-38.05 17.74s-15.76-31.3-2.37-65.48l-2.14-4.59s9.47-12.65 11.38-14.55c0 0-.5-3.32-4.48-3.32-.61 0-1.3.08-2.08.26-.71.16-1.34.23-1.9.23-1.69 0-2.74-.65-3.39-1.41-.82-.96-.18-2.44 1.08-2.52l10.56-.66 3.32-3.87-2.81-6.03 43.14-20.12s.56-.17 1.44-.17c.83 0 1.93.15 3.11.73l58.9-27.46-1.03-2.2 4.24-1.98c.46-.21.94-.31 1.41-.31m-.02-4.65c-1.17 0-2.3.25-3.37.75l-4.24 1.98a4.62 4.62 0 0 0-2.4 2.62c-.15.42-.24.87-.27 1.31l-53.48 24.94c-.94-.24-1.9-.36-2.87-.36-1.4 0-2.4.25-2.77.36q-.33.09-.63.24l-43.14 20.12a4.62 4.62 0 0 0-2.4 2.62c-.42 1.16-.37 2.43.16 3.55l1.55 3.32-.09.11-8.6.53a6.14 6.14 0 0 0-5.3 3.75 6.14 6.14 0 0 0 .97 6.41c1.67 1.97 4.13 3.05 6.92 3.05.32 0 .65-.01.99-.04-2.87 3.66-6.24 8.14-7.63 10a4.66 4.66 0 0 0-.49 4.74l1.31 2.82c-12.72 34.94 2.58 66.05 3.25 67.38a4.63 4.63 0 0 0 6.11 2.11l38.05-17.74c1.29-.6 2.24-1.77 2.56-3.16a4.66 4.66 0 0 0-.9-3.96c-15.79-19.64-12.61-31.95-10.01-36.92l4.38 1.82a18.28 18.28 0 0 0 14.78-.31c3.75-1.75 6.6-4.85 8.01-8.74 1.42-3.89 1.23-8.1-.52-11.85l-1.67-3.59a.85.85 0 0 1-.03-.64.8.8 0 0 1 .43-.47l2.88-1.34a4.646 4.646 0 0 0 2.46-5.63q-.34-1.04.73-2.62c.75-1.11 1.77-2.63 2.53-4.73.86-2.37 1.19-4.43 1.26-6.07l13.89-6.48c1.96-.91 3.68-2.3 4.99-4.02l.85-1.11c.4-.53.93-.96 1.54-1.24l45.66-21.29a4.62 4.62 0 0 0 2.4-2.62 4.65 4.65 0 0 0-.15-3.55l-5.9-12.64a4.64 4.64 0 0 0-4.21-2.68c-.66 0-1.32.14-1.96.44l-.87.41a8 8 0 0 0-4.76-1.58" style="fill:#f2bf03"/></g><path id="path386" d="M125.33 363.91s-6.51-11.19-5.72-34.16l-7.07-1.24s-7.38 21.28-.71 41.01" style="fill:#9f2400"/><path id="path388" d="M110.57 317.49s10.99-1.4 18.25 9.18c0 0-2.06-14.4-18.25-9.18" class="cls-12"/><path id="path390" d="m110.26 325.55 6.58-3.07c-1.52-.92-3.03-1.61-4.46-2.11l-5.08 2.37-.28.69c-6.33 15.55-5.84 29.98-4.3 39.35 1.67 10.17 4.81 16.61 4.94 16.88l.82 1.66 22.91-10.71-3.14-2.7-17.92 8.36c-2.41-6.01-9.39-27.11-.07-50.72" class="cls-12"/><path id="path392" d="M108.58 314.23s9.18-4.28 18.1.87c0 0-2.52-4.41-10.04-5.56 0 0 5.92-2.29 12.16 4.11l8.41-3.92s-11.34.63-20.01-6.97z" class="cls-12"/><path id="path394" d="m126.78 304.34-7.02-15.05s-3.09 4.23-.65 9.47c0 0 2.95 5.46 7.67 5.59z" class="cls-12"/><path id="path396" d="M140.22 296.21a3.378 3.378 0 1 1-2.86-6.12l10.33-4.81-3.92-8.41-20.65 9.63 8.02 17.21 20.65-9.63-1.25-2.68-10.33 4.81z" class="cls-12"/><path id="path398" d="m152.05 279.15-2.35-5.05 4.72-2.2c1.82-.85 3.98-.06 4.83 1.76l.7 1.51z" class="cls-12"/><path id="path400" d="m153.96 283.25 4.89 10.48 1.63-.76s-.89-.66 1.74-3.75c0 0-.03-4.73-.24-9.71z" class="cls-12"/><path id="path402" d="M162.17 270.38s1.71 1.35 2.57 2.86l64.02-29.85-1.7-3.64-65.04 30.33.14.3z" class="cls-12"/><path id="path404" d="m166.36 277.47.56 2.11 16.62-7.75a1.075 1.075 0 1 0-.91-1.95z" class="cls-12"/><circle id="circle406" cx="114.99" cy="352.44" r="4.64" class="cls-12"/><path id="path408" d="M144.52 309.77c.14.7.15 1.43.03 2.14-.16.88-.61 1.79-.2 2.67l.93 1.99c1.32 2.82 3.88 2.52 5.1 2.17.41-.12.84.09 1.03.48.21.44.01.97-.43 1.17l-1.55.72c-3.9.3-6.47-1.44-7.69-2.54-.52-.48-.93-1.07-1.19-1.72-.84-2.09-.98-3.78-.88-5.01l-1.64.76a4.573 4.573 0 0 0-2.21 6.08c.7 1.51 1.98 2.67 3.55 3.21l9.04 3.17c1.19.42 2.5.35 3.64-.18 2.6-1.21 3.73-4.3 2.51-6.91l-1.98-4.25a7.17 7.17 0 0 0-8.06-3.97z" class="cls-12"/></g></g></svg>