<svg xmlns="http://www.w3.org/2000/svg" id="Layer_1" width="272.81" height="306.896" data-name="Layer 1" version="1.1"><defs id="defs4"><style id="style2">.cls-3{fill:#fff}.cls-6{fill:#a62b00}.cls-8{fill:#f58e5d}.cls-9{fill:#ffc0a6}.cls-10{fill:#0b7648}.cls-14{fill:#bd3c00}</style></defs><path id="path286" d="M5.61 5.61H267.2v157.11h-.31c.2 2.94.31 5.91.31 8.91a130.8 130.8 0 0 1-261.59 0c0-3 .11-6 .31-8.91h-.31z" style="stroke:#f58e5d;stroke-width:11.22000027px;stroke-miterlimit:10"/><circle id="circle288" cx="135.64" cy="172.09" r="87.66" style="fill:#dc5000;stroke:#dc5000;stroke-width:9.21000004px;stroke-miterlimit:10"/><path id="path290" d="M104.37 167.94a80.62 80.62 0 0 0-20-49.43c-.92.79-1.82 1.61-2.71 2.45a70.09 70.09 0 0 0-22.22 47z" class="cls-6" style="fill:#a62b00"/><path id="path292" d="M59.81 180.22a70.31 70.31 0 0 0 21.87 43c.89.85 1.8 1.66 2.72 2.46a80.36 80.36 0 0 0 19.67-45.45z" class="cls-6" style="fill:#a62b00"/><path id="polyline294" d="M743.41 853.65v-20.91" style="fill:none;stroke:#0b7648;stroke-width:12.27999973px;stroke-linecap:round;stroke-linejoin:round" transform="translate(-607.19 -768.92)"/><path id="path296" d="M130.13 63.44v-.63c0-16.28 14.46-29.48 32.29-29.48s32.28 13.2 32.28 29.48v.63z" class="cls-10" style="fill:#0b7648"/><path id="path298" d="M117.75 62.76v-.39c0-10.07-9-18.24-20-18.24s-20 8.17-20 18.24v.39z" class="cls-10" style="fill:#0b7648"/><path id="path300" d="M181.72 63.08v-.39c0-9.92-8.8-18-19.67-18-10.87 0-19.67 8-19.67 18v.39z" style="fill:#228959"/><ellipse id="ellipse302" cx="181.13" cy="173.93" rx="25.22" ry="42.45" style="fill:#e66a30"/><path id="path304" d="M124.02 243.55c6.68-18.64 10.75-40.23 11.38-63.33h-19a94.34 94.34 0 0 1-22.05 52.69 78 78 0 0 0 29.67 10.64z" class="cls-14" style="fill:#bd3c00"/><path id="path306" d="M116.66 167.94h18.75c-.64-24.67-5.21-47.62-12.69-67.12a78 78 0 0 0-28.36 10.43 92.81 92.81 0 0 1 22.3 56.69z" class="cls-14" style="fill:#bd3c00"/><circle id="circle308" cx="170.79" cy="130.76" r="4" class="cls-8" style="fill:#f58e5d"/><circle id="circle310" cx="190.66" cy="140.54" r="4" class="cls-9" style="fill:#ffc0a6"/><circle id="circle312" cx="170.79" cy="152.99" r="4" class="cls-8" style="fill:#f58e5d"/><circle id="circle314" cx="190.66" cy="162.77" r="4" class="cls-9" style="fill:#ffc0a6"/><circle id="circle316" cx="170.79" cy="175.22" r="4" class="cls-8" style="fill:#f58e5d"/><circle id="circle318" cx="190.66" cy="185" r="4" class="cls-9" style="fill:#ffc0a6"/><circle id="circle320" cx="170.79" cy="197.44" r="4" class="cls-8" style="fill:#f58e5d"/><circle id="circle322" cx="170.79" cy="219.89" r="4" class="cls-8" style="fill:#f58e5d"/><circle id="circle324" cx="210.52" cy="152.99" r="4" class="cls-3" style="fill:#fff"/><circle id="circle326" cx="210.52" cy="175.22" r="4" class="cls-3" style="fill:#fff"/><circle id="circle328" cx="210.52" cy="197.44" r="4" class="cls-3" style="fill:#fff"/><circle id="circle330" cx="190.66" cy="207.22" r="4" class="cls-9" style="fill:#ffc0a6"/><path id="path332" d="M5.61 5.61H267.2v157.11h-.31c.2 2.94.31 5.91.31 8.91a130.8 130.8 0 0 1-261.59 0c0-3 .11-6 .31-8.91h-.31z" style="fill:none;stroke:#f58e5d;stroke-width:11.22000027px;stroke-miterlimit:10"/></svg>