<svg xmlns="http://www.w3.org/2000/svg" id="Layer_1" width="243.977" height="152.41" data-name="Layer 1" version="1.1"><defs id="defs4"><style id="style2">.cls-17{stroke-miterlimit:10}.cls-12{fill:#d50801}.cls-17{stroke:#000;fill:none;stroke-width:11.08px}</style></defs><rect id="rect390" width="45.85" height="70.09" x="99.678" y="54.53" rx="14.5"/><path id="path392" d="M80.048 60.81s-6.56-35.92-41.9-33c-35.34 2.92-32.56 33-32.56 33v90.21" class="cls-17" style="fill:none;stroke:#000;stroke-width:11.07999992px;stroke-miterlimit:10"/><path id="path394" d="M104.588 84.43c0-18.54 7.19-43.58-5.11-59.89-9.84-13.05-24-19-40.32-19-19.76 0-36.12 11.08-32.59 51.51v93.43" class="cls-17" style="fill:none;stroke:#000;stroke-width:11.07999992px;stroke-miterlimit:10"/><path id="path396" d="M105.858 96.81s-8.31-24.67-32.58-22.64c-24.27 2.03-25.57 22.64-25.57 22.64v53.71" class="cls-17" style="fill:none;stroke:#000;stroke-width:11.07999992px;stroke-miterlimit:10"/><path id="path398" d="M104.708 112.98v-39s-2.57-15.17-15.73-15.17-23.5 7.62-21.15 35.38l.61 56.3" class="cls-17" style="fill:none;stroke:#000;stroke-width:11.07999992px;stroke-miterlimit:10"/><path id="path400" d="M164.758 60.81s5.73-35.92 41.07-33c35.34 2.92 32.56 33 32.56 33v90.21" class="cls-17" style="fill:none;stroke:#000;stroke-width:11.07999992px;stroke-miterlimit:10"/><path id="path402" d="M140.218 84.43c0-18.54-7.19-43.58 5.11-59.89 9.84-13.05 24-19 40.32-19 19.76 0 36.12 11.08 32.59 51.51v93.43" class="cls-17" style="fill:none;stroke:#000;stroke-width:11.07999992px;stroke-miterlimit:10"/><path id="path404" d="M138.978 96.81s8.3-24.67 32.57-22.64c24.27 2.03 25.55 22.64 25.55 22.64v53.71" class="cls-17" style="fill:none;stroke:#000;stroke-width:11.07999992px;stroke-miterlimit:10"/><path id="path406" d="M140.108 112.98v-39s2.57-15.17 15.73-15.17 23.51 7.62 21.16 35.38l-.62 56.3" class="cls-17" style="fill:none;stroke:#000;stroke-width:11.07999992px;stroke-miterlimit:10"/><ellipse id="ellipse408" cx="122.608" cy="56.39" rx="11.88" ry="11.32"/><ellipse id="ellipse410" cx="121.118" cy="115.2" rx="35.04" ry="37.21"/><ellipse id="ellipse412" cx="117.158" cy="48.03" rx="6.43" ry="13.21"/><ellipse id="ellipse414" cx="127.638" cy="48.03" rx="6.43" ry="13.21"/><path id="path416" d="M104.728 92.01a16.39 16.39 0 1 0 32.77 0z" class="cls-12" style="fill:#d50801"/><path id="path418" d="M104.728 136.41a16.39 16.39 0 1 1 32.77 0z" class="cls-12" style="fill:#d50801"/></svg>