<svg xmlns="http://www.w3.org/2000/svg" id="Layer_1" data-name="Layer 1" version="1.1" width="243.977" height="152.41"><defs id="defs4"><style id="style2">.cls-17{stroke-miterlimit:10}.cls-12{fill:#d50801}.cls-17{stroke:#000;fill:none;stroke-width:11.08px}</style></defs><rect x="99.678" y="54.53" width="45.85" height="70.09" rx="14.5" id="rect390"/><path class="cls-17" d="M80.048 60.81s-6.56-35.92-41.9-33c-35.34 2.92-32.56 33-32.56 33v90.21" id="path392" style="fill:none;stroke:#000;stroke-width:11.07999992px;stroke-miterlimit:10"/><path class="cls-17" d="M104.588 84.43c0-18.54 7.19-43.58-5.11-59.89-9.84-13.05-24-19-40.32-19-19.76 0-36.12 11.08-32.59 51.51v93.43" id="path394" style="fill:none;stroke:#000;stroke-width:11.07999992px;stroke-miterlimit:10"/><path class="cls-17" d="M105.858 96.81s-8.31-24.67-32.58-22.64c-24.27 2.03-25.57 22.64-25.57 22.64v53.71" id="path396" style="fill:none;stroke:#000;stroke-width:11.07999992px;stroke-miterlimit:10"/><path class="cls-17" d="M104.708 112.98v-39s-2.57-15.17-15.73-15.17-23.5 7.62-21.15 35.38l.61 56.3" id="path398" style="fill:none;stroke:#000;stroke-width:11.07999992px;stroke-miterlimit:10"/><path class="cls-17" d="M164.758 60.81s5.73-35.92 41.07-33c35.34 2.92 32.56 33 32.56 33v90.21" id="path400" style="fill:none;stroke:#000;stroke-width:11.07999992px;stroke-miterlimit:10"/><path class="cls-17" d="M140.218 84.43c0-18.54-7.19-43.58 5.11-59.89 9.84-13.05 24-19 40.32-19 19.76 0 36.12 11.08 32.59 51.51v93.43" id="path402" style="fill:none;stroke:#000;stroke-width:11.07999992px;stroke-miterlimit:10"/><path class="cls-17" d="M138.978 96.81s8.3-24.67 32.57-22.64c24.27 2.03 25.55 22.64 25.55 22.64v53.71" id="path404" style="fill:none;stroke:#000;stroke-width:11.07999992px;stroke-miterlimit:10"/><path class="cls-17" d="M140.108 112.98v-39s2.57-15.17 15.73-15.17 23.51 7.62 21.16 35.38l-.62 56.3" id="path406" style="fill:none;stroke:#000;stroke-width:11.07999992px;stroke-miterlimit:10"/><ellipse cx="122.608" cy="56.39" rx="11.88" ry="11.32" id="ellipse408"/><ellipse cx="121.118" cy="115.2" rx="35.04" ry="37.21" id="ellipse410"/><ellipse cx="117.158" cy="48.03" rx="6.43" ry="13.21" id="ellipse412"/><ellipse cx="127.638" cy="48.03" rx="6.43" ry="13.21" id="ellipse414"/><path class="cls-12" d="M104.728 92.01a16.39 16.39 0 1 0 32.77 0z" id="path416" style="fill:#d50801"/><path class="cls-12" d="M104.728 136.41a16.39 16.39 0 1 1 32.77 0z" id="path418" style="fill:#d50801"/></svg>