<svg xmlns="http://www.w3.org/2000/svg" id="Layer_1" data-name="Layer 1" version="1.1" width="281.387" height="137.19"><defs id="defs4"><clipPath clipPathUnits="userSpaceOnUse" id="clipPath1287"><path style="fill:#fff;fill-opacity:1" id="rect1289" d="M87.983 267.413h397.716v349.666H87.983z"/></clipPath><clipPath clipPathUnits="userSpaceOnUse" id="clipPath1299"><path style="fill:#fff;fill-opacity:1" id="rect1301" d="M-13.222 138.805h448.888v120.763H-13.222z"/></clipPath><style id="style2">.cls-16,.cls-17{stroke-miterlimit:10}.cls-4{fill:#ffe67b}.cls-15,.cls-16,.cls-17{fill:none}.cls-15{stroke-linecap:round;stroke-linejoin:round}.cls-12{fill:#e1bb78}.cls-15{stroke:#752f16;stroke-width:4.75px}.cls-16,.cls-17{stroke:#40a448;stroke-width:6.33px}.cls-17{stroke:#e12e26}</style></defs><g id="g1281" transform="translate(-27.169 -195.404)"><path style="fill:#e1bb78" id="path172" d="M236.55 330.73c12.38-1.86 24.87-5.55 34.58-13.46a47.57 47.57 0 0 0 17.17-38.83c-21-6.41-43.39-6.34-65.36-6.21L85.43 273c-8.27 0-16.7.12-24.54 2.76-5.77 1.94-11.52 5.86-12.89 11.79-1.63 7 3.37 13.77 8.41 18.93 8.75 8.95 19 17 31 20.34 7.22 2 14.8 2.3 22.29 2.57l75.06 2.67c17.28.62 34.69 1.2 51.79-1.33z" class="cls-12"/><path style="fill:#ffe67b" id="path174" d="M214.85 309.52c-.33-1.25-.65-2.5-1-3.75a14.9 14.9 0 0 0-12.59 2.14 17.5 17.5 0 0 0-16.73-3.42l-.81-3.49-5.77 2.12a7.58 7.58 0 0 1 2.25 5.58c-2.58-.76-5.31.4-8 .54-2.69.14-6-1.78-5.37-4.39l-20.6-1.48a7 7 0 0 1-3.27-.78 14.24 14.24 0 0 1-2.43-2.59c-3.27-3.45-10.13-1.81-11.48 2.75a4.46 4.46 0 0 1 .8 8.72c-1.82.54-3.78-.12-5.67.06-1.89.18-3.92 2.1-3 3.75-2 1.34-4.81-.61-5.69-2.89-.88-2.28-.74-4.87-1.69-7.12a8.08 8.08 0 0 0-9.39-4.44 26.27 26.27 0 0 0-2.15 8.16l-6.89-6.73a14.89 14.89 0 0 1-3.22-3.92l-5.81-.08c.71.85.11 2.24-.87 2.75a6 6 0 0 1-3.25.32 65.16 65.16 0 0 0-19.74 1.38c-1.76.4-4 2.07-2.84 3.48-9 2-19-5.22-19.88-14.44a3.52 3.52 0 0 1 .21-1.88c.56-1.16 2-1.46 3.32-1.61 48-5.88 96.39-6.36 144.7-6.83l87.4-.86c6.11-.06 12.41-.08 18 2.26 4.28 1.77 8.4 6.15 6.89 10.52-.9 2.59-3.63 4.64-3.33 7.36-3.93 2.5-8.43-6.51-12.28-3.92.19 1.37-1.29 2.48-2.67 2.52a10.3 10.3 0 0 1-3.95-1.15c-7.08-2.8-15.05-.79-22.67-1.08-5-.19-9.91-1.38-14.88-1.11-4.97.27-10.29 2.47-12.36 7a10.91 10.91 0 0 1-12.34 14.6 30.44 30.44 0 0 1 1.94-8.09z" class="cls-4"/><path style="fill:#a84f25" id="path176" d="M184.93 260.82c36.25 0 72.56-.1 108.64 3.32 3.08.29 6.25.63 9 2.1 5.77 3.12 7.82 11.55 4.14 17-2.63 3.86-7.37 5.84-12 6.38s-9.33-.12-14-.44c-12.53-.85-25.06.82-37.57 2-60.61 5.44-121.71-2.08-182.49 1.12a1 1 0 1 0-1 .09c.22-2-2.9-2.32-4.9-1.81-5.45 1.39-11.26 2.15-16.65.54-5.39-1.61-10.22-6.06-10.86-11.65-.71-6.25 4-12.11 9.67-14.8 5.67-2.69 12.2-2.88 18.49-3 31.19-.64 62.4-.69 93.6-.73z"/><path style="fill:#ed8222" id="path178" d="M205.63 273.83c-5.51.45-9.37 6.71-14.89 6.68-4 0-7.12-3.37-10.59-5.39-3.94-2.28-8.59-2.92-13.1-3.52-7.93-1-17.4-1.5-22.37 4.76a7.42 7.42 0 0 1-1.65 1.79c-1.83 1.18-4.19 0-6.16-1-6-2.86-12.9-2.9-19.55-2.87l-23.28.08-18 .06a82.49 82.49 0 0 1-15.79-1 13.36 13.36 0 0 1-4.47-1.51c-1.33-.8-2.4-2-3.75-2.71-1.88-1-4.31-1.28-5.58-3-1.86-2.54.15-6 2.18-8.44 2.48-3 5.19-5.93 8.77-7.37 3-1.21 6.27-1.24 9.47-1.26 61.74-.32 123.52.16 185.14-3.56 10.68-.65 21.87-1.33 31.6 3.1 2.18 1 4.52 2.71 4.42 5.09-.07 1.48-1.1 2.85-.88 4.31.22 1.46 1.65 2.44 2.36 3.75a4.22 4.22 0 0 1-6.59 5.09 15.39 15.39 0 0 1-12.95 7c-4.57-.06-9-2.19-13.56-1.74-4.14.41-7.85 2.93-12 3.3-8.74.79-17.4-8-25.36-4.28-1.91.89-3.52 2.43-5.56 2.92-2.56.68-5.23-.49-7.86-.28z"/><path style="fill:none;stroke:#3a3a3a;stroke-width:3.31999993px;stroke-miterlimit:10" id="path180" d="M44.84 262.94s1.7 10.11 49.21 11.42c47.51 1.31 53.63.8 61.77-1.75s31.71 4.34 31.71 4.34 16.53-.83 26-2.78c9.47-1.95 30.92 1.36 30.92 1.36 9.14.65 38.76-5.25 43.95-8.32"/><path style="fill:#ffe67b" id="path182" d="M183.04 265.62c-4.62.4-6-6.93-10.35-8.47-1.86-.66-3.92-.12-5.89-.29-5.41-.47-9.49-6.21-14.91-6-6.46.3-10.7 9-17.11 8.1 1.52 2.84-.69 6.52-3.67 7.74-2.98 1.22-6.36.68-9.53.12-.41-3.4-2.31-7-5.61-7.88-3.3-.88-7.35 2.5-6 5.65a26.54 26.54 0 0 0-16.78-3.7c-3.62.42-7.41 1.57-10.79.22a33.27 33.27 0 0 0-3.7-1.7 10.83 10.83 0 0 0-3.64-.14l-16.11 1.25c-5.51.42-12.69-.24-14.15-5.57-.79-2.86.69-6 2.95-7.88 2.26-1.88 5.2-2.83 8.08-3.54 10.43-2.56 21.27-2.86 32-3 58.09-.56 116.34 4.18 174.18-1.21 6.42-.6 13-1.3 19.22.48 6.22 1.78 12 6.75 12.57 13.17-1.71 1.69-3.73 3.51-6.14 3.37-3-.18-5-3.28-7.9-4-3.82-1-7.23 2.32-10.64 4.29-9.64 5.59-21.63.82-32.69-.54a102.68 102.68 0 0 0-17.71-.12l-19.06 1c-3.53.18-7.35.47-10 2.83-2.18 2.05-3.62 5.56-6.62 5.82z" class="cls-4"/><path style="fill:#d18529" id="path184" d="M69.41 218.57c29.93-19.42 66.82-21.5 102-22.84a211.39 211.39 0 0 1 23.48 0c17.66 1.29 34.74 6.95 51.62 12.57 9.3 3.09 18.74 6.26 26.8 12 8.06 5.74 14.69 14.63 15.65 24.84a2.54 2.54 0 0 1-.17 1.5 2.45 2.45 0 0 1-2.14.9q-110.43 6-221.08 4.64c-6.36-.08-13.44-.48-17.86-5.29 2.79-6.56 5.65-13.24 10.19-18.62a51.6 51.6 0 0 1 11.51-9.7z"/><path style="fill:none;stroke:#752f16;stroke-width:4.75px;stroke-linecap:round;stroke-linejoin:round" id="path186" d="M46.57 282.35s12.26-4.75 21-.39 13.45 2.77 16.61 1.58" class="cls-15"/><path style="fill:none;stroke:#752f16;stroke-width:4.75px;stroke-linecap:round;stroke-linejoin:round" id="path188" d="M129.64 284.73s2.77-2.38 7.13.79c4.36 3.17 13.05.79 14.24-2.77" class="cls-15"/><path style="fill:none;stroke:#752f16;stroke-width:4.75px;stroke-linecap:round;stroke-linejoin:round" id="path190" d="M225.38 281.56a14.1 14.1 0 0 0 14.24 3.17c8.7-2.77 15.82-3.57 19-2.38" class="cls-15"/><path transform="translate(-105.96 -273.74)" style="fill:#e1bb78" id="polyline192" class="cls-12" d="M194.75 490 236 506.64l-31.75-24.14"/><path transform="translate(-105.96 -273.74)" style="fill:#e1bb78" id="polyline194" class="cls-12" d="m253.5 476.75 56.87 25.94-40.62-27.94"/><path transform="translate(-105.96 -273.74)" style="fill:#e1bb78" id="polyline196" class="cls-12" d="m319.87 474.2 38.76 32.44-21.36-30.06"/><path style="fill:none;stroke:#40a448;stroke-width:6.32999992px;stroke-miterlimit:10" id="path198" d="M59.93 260.48a29.17 29.17 0 0 0 17.72 9.42c11.49 1.6 28.22 7.66 28.22 7.66" class="cls-16"/><path style="fill:none;stroke:#e12e26;stroke-width:6.32999992px;stroke-miterlimit:10" id="path200" d="M236.35 258.93a29.2 29.2 0 0 0 17 10.61c11.36 2.39 27.63 9.58 27.63 9.58" class="cls-17"/><path style="fill:none;stroke:#e12e26;stroke-width:6.32999992px;stroke-miterlimit:10" id="path202" d="M113.53 264s14.43 5.48 20.26 7.4c5.83 1.92 18.74 7.39 18.74 7.39" class="cls-17"/><path style="fill:none;stroke:#40a448;stroke-width:6.32999992px;stroke-miterlimit:10" id="path204" d="M168.04 266.4a19.75 19.75 0 0 0 19.51 10.55c14.24-1.06 25.85 7.91 25.85 7.91" class="cls-16"/></g></svg>