<svg xmlns="http://www.w3.org/2000/svg" id="Layer_1" data-name="Layer 1" version="1.1" width="329.794" height="279.736"><defs id="defs4"><style id="style2">.cls-1{fill:#c09867}.cls-2{fill:#231f20}.cls-3{fill:#fff}.cls-4{fill:#d17d2a}.cls-6{fill:#101016}.cls-7{fill:#e2ba8f}.cls-9{fill:#bc5a27}</style></defs><circle class="cls-3" cx="272.214" cy="169.026" r="57.03" id="circle10" style="fill:#fff"/><path class="cls-1" d="m311.944 128.516-36.8 31.48v.06l.92.3 47.64-15.72a58.29 58.29 0 0 0-11.76-16.12z" id="path12" style="fill:#c09867"/><path class="cls-1" d="m274.884 159.616 26.87-39a58.12 58.12 0 0 0-20.09-7.56l-4.61 43.3-2.91.94-12.51-44.27a57.9 57.9 0 0 0-15.47 4.93z" id="path14" style="fill:#c09867"/><path class="cls-1" d="M278.364 161.116h-62.76l6.55-18.6 52.21 17.24-42.54-36.07c-12.93 10.7-18.67 28.68-18.67 46.78a58.32 58.32 0 0 0 116.64 0c0-3.2-7.43 1.17-7.92-1.89z" id="path16" style="fill:#c09867"/><path class="cls-4" d="M213.664 162.746a60.2 60.2 0 0 0-.51 7.76 58.32 58.32 0 1 0 116.11-7.76z" id="path18" style="fill:#d17d2a"/><path class="cls-2" d="M264.744 173.516c.32-.91.61-1.76.91-2.61l2.08-6c.3-.86.6-1.72.91-2.58.07-.18 0-.25-.14-.35l-5.45-3.68-4.45-3-.2-.15H270.874a.35.35 0 0 0 .4-.28q1.3-3.86 2.64-7.71c.38-1.11.77-2.22 1.18-3.37 0 .08.06.12.08.17.84 2.42 1.67 4.85 2.5 7.27.43 1.24.87 2.48 1.29 3.73.06.18.17.19.32.19h12.53l-1.14.78-7.8 5.29-1.24.85a.23.23 0 0 0-.11.31c1 2.91 2 5.81 3 8.72.28.8.56 1.61.87 2.48l-10.34-7.06z" id="path20" style="fill:#231f20"/><path class="cls-2" id="polygon22" style="fill:#231f20" transform="translate(-554.946 -362.484)" d="m827.7 533.28 2.46-1.64 2.46 1.64v37.66h-4.92z"/><path d="M232.644 194.136c9.64 0 15.5-2.46 23.06-8.57 5.89-4.77 11.69-8.48 19.51-8.22" id="path24" style="fill:none;stroke:#231f20;stroke-width:4.90999985px;stroke-miterlimit:10"/><path class="cls-2" d="M318.634 196.586c-9.85 0-16.29-2.38-24.6-9.11-6.06-4.9-11.16-7.9-17.88-7.67l-.17-4.91c9.13-.3 15.7 4.36 21.14 8.76 7.41 6 14.85 7.4 23.52 7.4z" id="path26" style="fill:#231f20"/><path class="cls-2" id="polygon28" style="fill:#231f20" transform="translate(-554.946 -362.484)" d="M779.41 528.37h104.82l-.43-4.91H779.41z"/><path class="cls-1" d="M294.864 207.516c-.34.09-25.39 7.77-48.42-8.65-13.5-9.63-21-26.58-22.45-50.38a115.67 115.67 0 0 1 12.64-31.14l.88-1.36.47-1.55c5.13-17 8.3-41.87-5.74-63.65a59 59 0 0 0-18.58-18.37c-25.65-26.38-51.81-32.2-69.29-32.41-19.31-.23-32.4 6-33.82 6.74l-1.5.77-1.21 1.13c-10.9 10.17-20.39 14.6-26.43 16.52a31.21 31.21 0 0 1-9.16 1.71l-19.44-1.62 6.7 14.53c-32.86 7-56.67 27.61-59.21 52.18a50.36 50.36 0 0 0 0 11.05l.11 1 10.68 36.66 13.45-10.26c.55-.41 1-.82 1.54-1.27 8.46-7.37 20.55-10.53 35.93-9.39l.65.05 35.41-1.39a118.33 118.33 0 0 1 11.77 4.06c-3.52 25-7 43-7.61 45.8l-.45 1.21-.07 1.9V172.526a129.43 129.43 0 0 0 .75 18.45c1.18 13.34 4.32 32.82 12.52 50.07 10 21 24.88 33.92 44.33 38.5l.83.19h120.1l9-40.24 32.59-39.71z" id="path30" style="fill:#c09867"/><path class="cls-2" d="M301.814 212.956s-80.68 24.2-85.23-65.12a121.92 121.92 0 0 1 13.86-34.49l.32-.48.16-.55c4.69-15.53 7.64-38.12-4.88-57.53a51.25 51.25 0 0 0-17-16.53c-24.1-25.15-48.51-30.69-64.79-30.88-17.85-.23-29.92 5.7-30.42 5.95l-.53.27-.44.4c-11.9 11.11-22.45 16-29.21 18.16-7.29 2.32-11.84 2-11.86 2l-7-.58 5.45 11.8c-34.22 4.28-60.16 23.59-62.62 47.28a43.13 43.13 0 0 0 0 9.44v.34l7.5 25.76 5-3.78c.34-.25.67-.54 1.13-.94 10-8.7 23.9-12.46 41.31-11.18h.23l36.26-1.36c10.9 3.3 15.8 5.21 18.79 7.59-4 29.73-8.41 51.56-8.48 51.74l-.24.63v1.73a124.07 124.07 0 0 0 .71 17.52c2.37 26.77 12.16 73 51.22 82.16h113.33l8.2-36.43h-.14z" id="path32" style="fill:#231f20"/><path class="cls-1" d="m133.694 90.256-12.69 9 26.6 1.64s-20 50.34-20.87 77.36c0 0-1.64 16.37 13.09 34.79l.41-35.61s7 38.06 32.34 52.8c0 0 22.1.82 23.33-22.1 0 0-18.42-39.3.82-77.77 0 0 26.6-38.47 20.05-66.31l-15.14-15.54s-22.51-42.57-81-26.19c0 0-18.83 14.32-38.07 19.23a24.82 24.82 0 0 1 4.49 19.23s32.33.82 56.07 24.56l-10.64.82 7.36 3.68z" id="path34" style="fill:#c09867"/><path class="cls-6" d="M102.174 44.826s-8.18 3.27-.81 8.18l8.59-.82s1.64 8.19 16 6.14c0 0 20.06-3.68 14.33-22.51 0 0-7-6.55-18.42-1.63z" id="path36" style="fill:#101016"/><path class="cls-7" d="M140.244 35.816v3.27c-.28 21.28-28.65 16.37-28.65 16.37s6.34 10.24 22.3 4.91c0 0 10.84-2.49 10.16-12.93.62-6.37-3.81-11.62-3.81-11.62z" id="path38" style="fill:#e2ba8f"/><path class="cls-4" d="M120.484 62.146c21.61-3 21.42-14.46 21.42-14.46-5.79 11-22.63 12.15-26.43 12.26a16.42 16.42 0 0 0 5.01 2.2z" id="path40" style="fill:#d17d2a"/><path class="cls-4" d="M202.634 96.316c-3.26-20.17-14.88-24.49-14.88-24.49l-40.15 29.07s-20 50.34-20.87 77.36c0 0-1.64 16.37 13.09 34.79l.41-35.61s7 38.06 32.34 52.8c0 0 22.1.82 23.33-22.1 0 0-44.93-28.53 6.73-111.82z" id="path42" style="fill:#d17d2a"/><path d="m93.954 95.156 32.78-14.31c-19.65-13.51-47.07-13.1-47.07-13.1l-.82-14.33c-51.95 5-60.89 30.94-61.16 47.48l1 5.72 12.69-7.87c7.93-3.75 18.6-4.26 28.29-3.59z" id="path44" style="fill:#989282"/><path class="cls-6" d="M18.704 106.616s13.51-32.33 86.37-34c0 0-63 12.28-74.49 36.84" id="path46" style="fill:#101016"/><path class="cls-3" d="M78.844 53.416c-29.47 2.81-45.09 12.39-53.15 23.17 15.58-11.51 48-13.69 53.67-14z" id="path48" style="fill:#fff"/><path class="cls-6" d="M46.404 56.006s9.55 4.09 10.92 13.64c0 0 4.36-10.09-3.82-16.37" id="path50" style="fill:#101016"/><path class="cls-6" d="M58.054 51.206s7.45 7.24 5.31 16.64c0 0 7.69-7.86 2.3-16.65" id="path52" style="fill:#101016"/><path class="cls-7" d="m216.774 64.056-15.14-15.54s-22.51-42.57-81-26.19c0 0 59.52-2.88 70.43 36.42l25.94 6.17c-.1-.29-.16-.57-.23-.86z" id="path54" style="fill:#e2ba8f"/><path class="cls-3" d="M124.174 51.096a13.42 13.42 0 0 0 10.64-13.65l-7.1.28s3.55 9-8.18 13.09" id="path56" style="fill:#fff"/><path class="cls-9" d="m138.364 125.856 29.47-16.34a82.24 82.24 0 0 1-32.2 22.92" id="path58" style="fill:#bc5a27"/><path class="cls-9" d="m133.054 146.736 29.47-16.38a82.13 82.13 0 0 1-32.2 22.92" id="path60" style="fill:#bc5a27"/><path class="cls-9" d="M126.794 176.866a81.12 81.12 0 0 0 25.48-19.9l-24.93 13.85c-.29 2.1-.45 4.13-.55 6.05z" id="path62" style="fill:#bc5a27"/><path class="cls-1" d="m202.384 88.516-24.16 10a82.54 82.54 0 0 1 23.58-13.77" id="path64" style="fill:#c09867"/><path class="cls-1" d="m194.604 114.316-24.16 9.93a83 83 0 0 1 23.61-13.73" id="path66" style="fill:#c09867"/><path class="cls-1" d="m185.594 139.696-24.15 9.93a82.57 82.57 0 0 1 23.61-13.77" id="path68" style="fill:#c09867"/></svg>