<svg xmlns="http://www.w3.org/2000/svg" id="Layer_1" data-name="Layer 1" version="1.1" width="231.817" height="281.807"><defs id="defs4"><style id="style2">.cls-1{fill:#1e1e1e}.cls-7,.cls-8{stroke-miterlimit:10}.cls-3{fill:#e41d34}.cls-8{fill:none}.cls-7{stroke:#56b947;fill:#56b947;stroke-width:5.58px}.cls-8{stroke:#1e1e1e;stroke-width:4.91px}</style></defs><path d="M225.674 89.09a110.44 92.209 0 0 0-220.1 0l-.95 8.457v132.277l111.85 46.964 110.72-46.964V99.426z" id="path10" style="fill:#1e1e1e;stroke:#e7a9cc;stroke-width:9.24704552px;stroke-miterlimit:10"/><path class="cls-3" d="M86.924 55.908v58.4a29.46 29.46 0 0 0 58.92 0v-58.4z" id="path12" style="fill:#e41d34"/><path id="line14" style="fill:none;stroke:#56b947;stroke-width:8.84000015px;stroke-miterlimit:10" d="M116.374 158.328v91.32"/><path d="M98.344 194.008s-16.37-30.11-56.3-9.82c.03 0 13.78 29.45 56.3 9.82z" id="path16" style="fill:#56b947;stroke:#56b947;stroke-width:8.84000015px;stroke-miterlimit:10"/><path d="M133.394 220.778s11.8-21.71 40.59-7.08c0 0-9.91 21.24-40.59 7.08z" id="path18" style="fill:#56b947;stroke:#56b947;stroke-width:6.36999989px;stroke-miterlimit:10"/><path class="cls-7" id="polygon20" style="fill:#56b947;stroke:#56b947;stroke-width:5.57999992px;stroke-miterlimit:10" transform="translate(-138.656 -389.152)" d="m261.94 576.24 7.44-2.89-7.44-4.55z"/><path class="cls-7" id="polygon22" style="fill:#56b947;stroke:#56b947;stroke-width:5.57999992px;stroke-miterlimit:10" transform="translate(-138.656 -389.152)" d="m249.73 616.53-7.44-2.89 7.44-4.55z"/><path class="cls-8" id="line24" style="fill:none;stroke:#1e1e1e;stroke-width:4.90999985px;stroke-miterlimit:10" d="m107.864 197.278-55.96-11.13"/><path class="cls-1" id="polyline26" style="fill:#1e1e1e" transform="translate(-138.656 -389.152)" d="m189.98 577.43-5.64-4.18h6.87"/><path class="cls-8" id="line28" style="fill:none;stroke:#1e1e1e;stroke-width:4.90999985px;stroke-miterlimit:10" d="m125.864 223.138 37.32-6.88"/><path class="cls-1" id="polyline30" style="fill:#1e1e1e" transform="translate(-138.656 -389.152)" d="M300.85 603.45h6.55l-5.89 4.58"/><path class="cls-8" d="M147.144 70.938h-13.09s-25.53-3.92-25.53 22.91v26.19s2 17-17.68 17" id="path32" style="fill:none;stroke:#1e1e1e;stroke-width:4.90999985px;stroke-miterlimit:10"/><path class="cls-3" id="polyline34" style="fill:#e41d34" transform="translate(-138.656 -389.152)" d="M275.98 463.37h21.6l-14.4 25.52"/><path class="cls-3" id="polyline36" style="fill:#e41d34" transform="translate(-138.656 -389.152)" d="M228.53 445.06h-13.75L231.8 483"/><path class="cls-3" id="polyline38" style="fill:#e41d34" transform="translate(-138.656 -389.152)" d="m284.49 457.64 6.87-9.33h-20.62"/><ellipse cx="116.384" cy="51.958" rx="39.6" ry="12.11" id="ellipse40" style="fill:#e41d34;stroke:#1e1e1e;stroke-width:4.90999985px;stroke-miterlimit:10"/><path class="cls-8" d="M139.944 54.158s-31.92-6.83-42.72 1.61c0 0-6.88 2.81 4.91 6.83" id="path42" style="fill:none;stroke:#1e1e1e;stroke-width:4.90999985px;stroke-miterlimit:10"/></svg>