<svg xmlns="http://www.w3.org/2000/svg" id="Layer_1" width="479.9" height="514.7" data-name="Layer 1" version="1.1"><defs id="defs785"><clipPath id="clippath"><path id="path782" fill="none" stroke-width="0" d="M930.2 533.8h-65a151.9 151.9 0 0 1-151.4-151.5V86.2h334.3l33 17.3.5 19.8v259c0 83.3-68.1 151.4-151.4 151.4z"/></clipPath><style id="style780">.cls-1{fill:#ff0}.cls-1,.cls-2,.cls-4,.cls-5,.cls-6,.cls-7{stroke:#000;stroke-linecap:round;stroke-linejoin:round}.cls-1{stroke-width:5.05px}.cls-4,.cls-7{fill:none}.cls-11,.cls-13{stroke-width:0}.cls-2,.cls-5,.cls-6,.cls-7{stroke-width:7.07px}.cls-2{fill:#515364}.cls-4{stroke-width:4.04px}.cls-5{fill:#303443}.cls-6{fill:#fff}.cls-13{fill:#767b8c}</style></defs><g id="g799" clip-path="url(#clippath)" transform="translate(-60.2 -43)"><g id="g797"><path id="path789" fill="#515364" stroke-width="0" d="M1057.5 610.2v-1a209.1 209.1 0 0 0-1.2-11.3v-.3a220 220 0 0 0-1-6.9c-10.4-62.1-46-99.8-74.5-130.1-22.2-23.5-39.7-42-43-65.7-1.3-9.9-1.9-27 9.6-31.5a18.6 18.6 0 0 1 2.1-.7l1-.2.8-.1h.3l.7-.2h1.3l.6-.1h1.9l1.3.1h.6l1.3.3h.5l1.4.4.4.1 1.3.4.5.1 3.7 1.7 2.1 1.5 1.5 1.5a19.5 19.5 0 0 0 2.3 2.7v.1a18.1 18.1 0 0 0 4.1 3 18.7 18.7 0 0 0 6.8 2.4l2.2.2h1.3a19.3 19.3 0 0 0 7-1.4l.9-.4.6-.3a20.6 20.6 0 0 0 6-4.6 20.3 20.3 0 0 0 2.2-3 21 21 0 0 0 2.8-10.2v-1.4l-.3-1.8v-.5c-6.1-32.4-32.7-87.4-93.9-88.2-38-.5-71.1 13.8-92.7 40-15.3 18.5-31.7 51.4-22.7 103v.3l1 5.3v.1a202 202 0 0 0 26 66l1.2 2 3.2 5a381.5 381.5 0 0 0 32 40.3 293.8 293.8 0 0 1 24.6 31l.6 1 1.4 2.3.7 1.1 1 2 .1.2.5.8 1.4 2.9v.1c7.8 16.9 9 26.4 9.2 30.6a16.7 16.7 0 0 1-.3 3.5c-1.6.5-6.1.9-14.4-1l-2.3-1.3c-8.7-5.2-22.4-19.8-37-35.3-9-9.5-19.1-20.3-30.1-31v-.1a462 462 0 0 0-4.4-4.2l-.3-.3-.1-.1-.2-.2C769.5 489 705 438.7 623.7 459.5a51.4 51.4 0 0 0-44.6 32.7 19.8 19.8 0 0 0 2.9 20.5 19.8 19.8 0 0 0 19.5 6.8c2.9-.6 8.3-1.1 13.5-.8l20.6 41.6a19.9 19.9 0 0 0 20.7 10.9c1 0 9-.5 20.6 5.8 13.9 7.6 34.5 26 53.7 70.4 39 89.8 87.1 133.5 147.3 133.5 12.6 0 25.9-2 39.5-5.8 11.7-3.3 22.7-7 33-11l.7-.3 7.2-3 .6-.2 7.2-3.3h.1c17-8 31.7-17.2 43.8-27.5 35.2-29.8 51.1-70 47.5-119.6m-401.1-39h.4z"/><g id="g795"><path id="path791" stroke-width="0" d="M641.8 481.2S610 470.4 597.4 500c0 0 29.7-6.3 42.8 8.7" class="cls-11"/><path id="path793" stroke-width="0" d="M640.2 515a6.2 6.2 0 0 1-4.7-2.2c-8.7-10-29.5-8.2-36.8-6.7-2.3.5-4.6-.4-6-2.1a6.2 6.2 0 0 1-1-6.4c11.8-27.7 39.2-26.7 52.1-22.3a6.2 6.2 0 0 1 3.9 7.8 6.2 6.2 0 0 1-7.9 4c-.1-.1-7.1-2.4-15.2-1.4-6 .7-11 3-15 6.8 11-.2 26.1 1.7 35.3 12.1a6.2 6.2 0 0 1-.6 8.8 6.2 6.2 0 0 1-4.1 1.5z" class="cls-11"/></g></g></g><g id="g911" transform="translate(-60.2 -43)"><g id="g805"><path id="path801" fill="#767b8c" stroke-width="0" d="M532 317.6a74.3 74.3 0 0 0-10.8-31c.8-.4 1.6-1 2.3-1.5 5.6-4 8-5.9 6.8-9-1.2-3-4.1-2.5-7-2-3.3.5-8.7 1.3-12.6-.5-11.6-5.5-14-15-7.7-29 10-21.9 19.8-49.4 5.4-66.8-9.6-11.7-35.3-21.4-55.3-17a36.2 36.2 0 0 0-28.2 28.5 231.7 231.7 0 0 0-6.4 34.5c-.3 3-.7 6-1.1 6.7-.3.1-1.2.3-3.7.3-4.7 0-9.5-6.5-16.2-15.6l-5.5-7.4c2-4.1 3.7-8.1 5.2-12 12.1-32.6 6.1-66-16-89.6A46.4 46.4 0 0 0 358 92.4a67 67 0 0 0-7.6-1.3 30.6 30.6 0 0 1-14.8-4.6c-4.1-3-3.7-6.8-3-8.7 1.2-3.8 5.5-8 12-8.1 5.1-.2 11.2-.8 12.8-5 1-2.4-.1-4.9-1.5-6.2-6-5.8-15.4-7-24.7-3.4-16.3 6.5-22.7 23-23.2 36.4-.8 18.8 12.5 23.2 25.3 27.4 9.9 3.3 20 6.6 26.7 16.1a16.6 16.6 0 0 0-2.3 8.4 17 17 0 0 0 9.6 15.2c0 8.2-3.2 13.6-6.3 17-19-16.1-26.9-18-44-18h-36.4c-19.7 0-27 2.5-53.6 26.5a145 145 0 0 0-4.8 4.6 68 68 0 0 1-17.5-15.6c-13.6-17.4-16.6-39.4-9-65.1 4-13.5 11.4-29.3 23.5-28.4 6.8.4 14.8 6.1 22 15.5 6.5 8.5 11.5 19 12.7 26.8 1 6.6 2.6 9.6 5.4 10.4a5 5 0 0 0 5.1-2c5.5-7.3 7.2-39-4-58.8-8.6-15.4-30.8-24-52.7-20.8-20.2 3-34.7 15.8-38.6 34.2a225.3 225.3 0 0 0-4.2 72A163 163 0 0 0 169 179a35.3 35.3 0 0 0-24.3-18.1c-3.2-.7-6.5-1-9.8-1.1a14.8 14.8 0 0 0-23.6 4.1 51.5 51.5 0 0 0-21.9 13.8c-14.4 17.5-4.7 45 5.3 67 3.5 7.5 4.3 13.7 2.6 18.6a44 44 0 0 0-12.1 11c-3.7.8-8 .2-10.7-.2-2.9-.5-5.8-1-7 2-1.3 3.2 1.2 5 6.7 9l3.1 2c-15 30.6-11.5 68.2-.1 89.2 6.4 11.8 15.3 18.6 25 19.2l4.5.2c20.4 0 31-9.2 36.4-19-1 6.6-2.7 13-4.4 19l-2.6 8.6a153.7 153.7 0 0 0-8.4 39.3c-.2 7 2.3 12 6.9 13.4 4.4 1.5 10.4-.9 13.8-9.4 2.6-6.3 4-13 5.3-19.5 1.6-8 3.2-15.8 6.7-22.4 2 4.4 2.2 9.8 2 14.4 0 8-.8 16-1.5 23.8a173.7 173.7 0 0 0-.5 43.9c.5 3.1 2.5 7.2 5.8 8.7 1.9 1 4 .8 5.8-.3 2.2-1.2 3-3.5 3.5-4.8l10.4-27.9a69.5 69.5 0 0 0 5 29c7.7 19.7 2.5 36.6-.2 45.7-1.6 5.1-2.6 8.5.2 10.6l.1.1.2.1c1 .6 2 .8 3 .6h.1l.8-.2h.3a19.5 19.5 0 0 0 .8-.4 35 35 0 0 0 6-3.6c15.6-10.7 19.6-24.8 19.7-43.8 0-8.6-.8-18.3-1.7-29l-.2-1.8V469l-.1-.3v-.4c2.2-1.8 3.6-4.5 4-6.9l.5-2.3c.3-2.2.7-4.3 1.7-5.1 1-.7 3 0 4.1 1.3 1.5 1.7 2 4.2 2.5 7.4l1 8c1.3 12.3 2.6 25 11.6 34a3.5 3.5 0 0 0 4 .8 3.6 3.6 0 0 0 2-3.3 212 212 0 0 1 3.7-41c.6-3 2.2-5.6 3.3-6.2h.5c.5.2 1.1 1.4 1.4 1.8 5.6 9.5 6.4 21.4 7 33l.3 3.6a323.5 323.5 0 0 0 6.6 46.7c.8 3.4 2.8 7.8 6.2 9.6a7 7 0 0 0 6 .3c4.3-1.8 5-6.9 5.4-8.8a469 469 0 0 0 4.8-56.6c0-2.7.1-5.3 1-7.3.8-1.6 2.3-2.7 3.4-2.5 2.2.3 3.2 4.7 3.4 8.3l.8 14.4c0 2.2.2 5.3 2.4 7.8a8.2 8.2 0 0 0 6 2.8c3.1.2 6.8-1.3 9.4-3.8 6.6-6.3 8.1-16 9.2-23l4-25.4c2.6.3 5.2 2.5 6.4 5 2 3.7 2 8.6 2.2 13.3v.2c.3 16.1 1.3 32.4 3.1 48.5.3 2.4.7 5.8 2.6 8.7 2.5 3.8 7.1 5.4 10.8 3.8 4.5-1.9 5.4-7.1 5.8-9.4l8.8-48.6h1.3c-2.6 31.8-3.3 53.1 18.3 67.9l1 .6c1.2.9 2.4 1.6 3.4 2.2h.1l.6.4.4.2h.1c1.2.5 2.2.9 3.2.9s1.8-.3 2.5-.9c2.9-2 1.8-5.4.3-10.6-2.4-7.7-6.4-21-3-36.8 6.2-2.1 8.4-10 9.1-12.7l5-18.3c.8-3 2.6-5.5 3.7-6h.4c.4.3 1 1.2 1.4 1.8l7.8 12.2c.3.5.7.9 1.3 1.1 1.4.8 3 1 4.6.5 3.2-1.1 4.9-4.6 5.3-5.6a102 102 0 0 0 6-18.4 27.4 27.4 0 0 0 18 6.9h1c11.7-.5 26.3-9.3 28.8-32.8 1.7-15.9 1.2-20-2.4-21.4-3.7-1.3-6.1 2.3-9.5 7.2-2 3-6.2 9.3-8.3 9.5-2.2.2-4.2.8-6 1.4-2.6.8-4.3 1.3-5.2.7-1.5-1-4.3-5.7-6-25.4a166 166 0 0 0-.8-8.1c3.9.6 8 .9 12.5.9 4.7 0 9.8-.4 15.2-1a49.4 49.4 0 0 0 42-32.8 88.6 88.6 0 0 0 4-43.5zm-423.2-106c-1.5-4-1.3-7 .6-9 3.5-3.7 12.2-4.3 21.9-1.6 6.4 1.9 6.3 2.5 5.8 9.8a89 89 0 0 0 6.1 40.4 97.5 97.5 0 0 0 6.5 14.8 92.3 92.3 0 0 0-32-7.9c1.2-12.2-1.7-27.6-8.9-46.5m346 39.6c0-.5.2-.9.3-1.3a16.7 16.7 0 0 0 4.7-17.4 83.3 83.3 0 0 0 1-21.6c-.5-7.4-.6-8 5.8-9.8 9.7-2.8 18.5-2.2 21.9 1.6 1.9 2 2 5 .6 8.9-7.4 19.6-10.3 35.2-8.8 47.7-2.2-.3-4.5-.4-6.8-.3-13 .6-24.9 8.5-35.2 23.2l-.5 1c-.3 1-1 3.4-.6 5.7-2.5-1.1-5-2-7.6-2.4a26.4 26.4 0 0 0-28.9 11.4c-1-2.9-1.8-6.5-.9-10.1 1.2-4.7 5-8.7 11.2-11.8 8.1-4 13.4-2.7 18.1-1.5 10.6 2.8 16.6 1.4 25.6-23.3m-257.5 46.7-.2-.3.4-.1zm272 36.1a51.3 51.3 0 0 0-23.6-40.5c3.2-1 7.3-3.9 12.7-8.7 9.7-8.5 22.3-4.8 30.2.9 10.5 7.6 16 21.8 14.6 38-1.4 16.7-9.7 30.7-21.6 36.6-7.8 3.9-12.7 2.8-18.5-2 4-7.7 6.2-16 6.2-24.3m-341.5 29.1-.8.3c-6 2-11.7 3.8-16.4.7-6.4-4-10.9-16.7-13.3-37.6-2-16.8 1.6-28.6 10.5-35 12.1-8.6 31.7-6 46.8.6a51.7 51.7 0 0 0-25.8 42c0 8.5 2.3 17 6.6 24.8a25.7 25.7 0 0 1-7.6 4.2m64.5-137.4c-2.8 3.2-5.4 5.1-8 5.1-2.5 0-3.4-.2-3.7-.3-.4-.7-.8-3.7-1.1-6.7-.6-5.5-1.6-14.3-4.8-28a110 110 0 0 0 17.7 29.9" class="cls-13"/><path id="path803" fill="#767b8c" stroke-width="0" d="M283.7 557.6c-2.2 0-4.5-.5-6.6-1.6-7-3.7-9.2-12-9.7-14.3a331.8 331.8 0 0 1-6.8-47.7l-.2-3.7c-.2-3.5-.4-7-.8-10.3a204 204 0 0 0-1 22.2 10.6 10.6 0 0 1-18.1 7.6 47.3 47.3 0 0 1-12.3-26.9c.5 6.7.9 12.9.9 18.7 0 30-11.5 42-22.7 49.6-3 2-5.1 3.4-7.3 4.3l-.4.2a13.6 13.6 0 0 1-3 .9h-.4c-2.8.4-5.4-.2-7.7-1.6h-.2l-.5-.5c-6.9-5-4.5-12.7-2.8-18.3 2.7-9 7.2-23.7.4-41.1l-1.3-3.7-1 2.5c-.6 1.8-2.1 5.9-6.5 8.4a13.1 13.1 0 0 1-12.4.7c-6-2.8-9-9.4-9.7-14a146.3 146.3 0 0 1-.6-34.3c-5.5 9-14 11.1-20.4 9-7.7-2.4-12.1-10-11.8-20.3.5-14.5 4.7-28 8.7-41.1v-.1l1.4-4.4a54.4 54.4 0 0 1-29 4.8c-12.2-.8-23.1-8.9-30.8-22.9-11.6-21.2-15.7-58.2-2.6-90-5.3-4-10.5-8.7-7.4-16.2 3.3-8.1 11.5-6.9 14.6-6.4 1.5.3 3.9.6 6 .6 2.9-3.4 6-6.4 9.5-8.7.3-3-.6-6.8-2.7-11.4-11-23.8-21.3-53.8-4.4-74.3 4.8-5.9 13-11.3 22.5-15a21.8 21.8 0 0 1 31.1-5.4 54 54 0 0 1 20.4 5.4v-.6c-3.5-29.4.4-56.6 4.2-74.3a51 51 0 0 1 44.5-39.6c24.7-3.7 49.9 6.5 60 24.3a84 84 0 0 1 9 37.4c.2 4.9.2 21.5-5.6 29.1-3.1 4-7.9 5.7-12.5 4.6-8.5-2.2-10-12-10.7-16.2a59 59 0 0 0-11.2-23.5c-7-9-13.3-12.6-17-12.8-5.6-.4-11.7 8.3-16.1 23.3-7 23.5-4.4 43.3 7.7 58.8 3.7 4.7 7.7 8.3 11.2 11l.8-.8c27.6-25 36.7-28.4 58.4-28.4h36.4a57 57 0 0 1 42.2 14.5l.7-2.7a24 24 0 0 1-8.2-26.2c-5.3-5.5-12.8-8-20.6-10.5-13.2-4.3-31.2-10.3-30.2-34.4.6-15.6 8.2-35 27.6-42.7 12-4.7 24.3-2.9 32.3 5a13 13 0 0 1 3.1 13.8c-3.6 9-14.9 9.3-19.1 9.4-3.7 0-5.3 2.4-5.6 3.2v.3s.1.3.6.6c2.6 2 6.7 2.6 11.5 3.2 2.5.4 5.4.8 8.2 1.4 9.8 2.3 19 7.8 26.7 16 24 25.5 30.5 61.7 17.4 96.8a159 159 0 0 1-3.5 8.7c1 1.5 2 2.9 3 4 2.7 3.9 6 8.3 8.4 10.9.7-6.8 2-17.5 6.4-34.3a43.5 43.5 0 0 1 33.5-33.5c23-5.2 51.3 6 62.3 19.2 16.9 20.6 6.5 50.5-4.4 74.4-3.4 7.3-5.8 14.9 4.2 19.6 2 .9 6.4.2 8.6-.1 3-.5 11.3-1.7 14.6 6.3 2.8 7-1.4 11.4-6.3 15.2 4 7.7 7 17.5 8.4 28 2.4 16.8.9 33.4-4.3 47a56 56 0 0 1-47.7 37.2 128.7 128.7 0 0 1-20.7 1c.8 10 1.9 15.2 2.7 18 1.4-.5 3-1 5-1.3.7-.9 2.2-2.7 4.8-6.6 3.5-5.2 8.9-13.1 17.8-9.9 9.7 3.5 8.5 14.7 7 28.8a46.5 46.5 0 0 1-13.1 29.4 34.4 34.4 0 0 1-37.3 6.7 107 107 0 0 1-4 10.3 17 17 0 0 1-9.5 9.4c-3.5 1.1-7.1.8-10.3-1a10.6 10.6 0 0 1-3.8-3.5l-2.2-3.6-3.3 12c-.8 3-3 11-9.6 15.5-1.9 12.7 1.4 23.4 3.4 30 1.7 5.7 4 13.4-2.8 18.4a11.2 11.2 0 0 1-6.7 2.3 14 14 0 0 1-5.6-1.3h-.2l-.6-.4-.5-.2-.8-.4-.2-.1-3.9-2.5-1-.7a48.3 48.3 0 0 1-18-21.3 17 17 0 0 1-9.5 12.2 16 16 0 0 1-19.4-6.5c-2.9-4.3-3.4-9-3.7-11.8a545.9 545.9 0 0 1-2.7-35.1c-1.4 6.8-4 14.8-10.3 20.9-4 3.8-9.5 6-14.7 5.7-4.3-.2-8.1-2-10.8-5a484 484 0 0 1-3.7 32c-1 7.4-4.3 12.2-9.7 14.4a16 16 0 0 1-5.3 1zm-25-109.7c1 0 2 .3 3 .7 2.3 1 3.7 2.9 4.7 4.6 6.5 11 7.3 23.8 8 36.2l.3 3.6c1 15.3 3.2 30.7 6.5 45.6.5 2.6 1.8 4.5 2.5 4.9 0 0 .7-.3 1-3.3 2.8-18.4 4.4-37.1 4.9-55.7 0-3.2.2-6.8 1.7-10.1 2.1-4.5 6.6-7.2 10.8-6.6 3.2.5 8.8 3 9.4 15l.8 14.4c0 1.2 0 2.9.7 3.6 0 0 .3.3 1 .3 1 0 2.8-.5 4.1-1.8 5-4.7 6.2-12.6 7.2-19l5-32.2 6.8.8c4.8.6 9.4 4 11.8 8.8a37 37 0 0 1 3 16.4v.2c.3 16 1.3 32 3 47.8.3 2 .6 4.2 1.5 5.7.7 1 1.9 1.3 2.2 1.2.6-.3 1.2-1.7 1.6-4.2l9.8-54.6 6 .2 2.2.1 6.5 1-.5 6.6c-2.7 33.6-2.1 49.5 15.3 61.4l.7.5c-2.4-8-6.8-22.7-3-40.1l.8-4 3.8-1.2c1.3-.5 3-2.2 4.6-7.9l5-18.3c1-3.8 3.7-8.9 7.7-10.6a7 7 0 0 1 6.5.2c2 1 3 2.6 4 4.2l6.3 9.8.4-.6a95 95 0 0 0 5.6-17.1l2.6-11.5 9 7.7c3.9 3.4 8.9 5.3 13.9 5 3.2 0 19.5-1.8 22-26.3.5-3.7.8-6.8.9-9.2-5.4 7.9-8.8 11.8-13.3 12.2-1.5.2-3 .7-4.6 1.2-3.3 1-7.4 2.4-11.3-.2-3.5-2.4-7.1-7.8-9-30.7l-.9-7.8-1.2-9.3 9.3 1.4c7.5 1.2 16 1.1 25.8-.1a42.1 42.1 0 0 0 36.3-28.3 81.4 81.4 0 0 0 3.6-40 68.3 68.3 0 0 0-9.6-27.8l-4.5-6.4 4.6-2.6c-2.6-.1-5.3-.6-7.8-1.8-8.8-4-22-14.5-11.1-38.2 9.2-20.1 18.2-45 6.3-59.5-8.1-9.8-31-18.3-48.3-14.5-12 2.7-19.6 10.5-23 23.3-4.2 17-5.4 27.4-6.1 33.6-.6 5.2-.9 7.6-2.1 9.6l-1.2 1.8-2 .9a16 16 0 0 1-6.4 1h-.1c-8.4 0-14-7.8-22-18.6l-5.3-7.3-2.6-3.4 1.8-3.9c2-4 3.5-7.8 5-11.5 11-30 5.7-60.6-14.6-82.2a39.5 39.5 0 0 0-26.5-13 36.6 36.6 0 0 1-18.1-5.9 14.5 14.5 0 0 1-5.5-16.5 20 20 0 0 1 18.7-13c2.2-.1 3.7-.3 4.8-.5-4-2.5-9.7-2.7-15.6-.4-13 5.2-18.2 19-18.7 30-.5 13 6.7 16 20.5 20.5 10.5 3.4 22.3 7.3 30.2 18.8l2.6 3.7-2.2 3.9a9.6 9.6 0 0 0 4.2 13.6l4 2v4.4c0 10.7-4.4 17.7-8.1 21.8l-4.6 5-5.2-4.4c-18.3-15.6-24.5-16.4-39.4-16.4h-36.4c-17.1 0-22.7 1-48.8 24.7l-4.7 4.4-4 4-4.7-3a75 75 0 0 1-19.3-17.3C184.1 158.1 180.7 134 189 106c4.8-15.9 14-34.6 30.8-33.4 9 .6 18.6 7.1 27.1 18.3a74 74 0 0 1 13.9 29.2c1.8-10.4 1.5-31-6.5-45-7.1-12.7-26.6-20.2-45.4-17.3-17.3 2.6-29.5 13.3-32.9 28.6a217.8 217.8 0 0 0-4 69.7 142 142 0 0 0 4 21.2l4.1 16.3 1-.3a106 106 0 0 0 16.5 28l4 4.6-4.1 4.6c-3.2 3.5-7.5 7.5-13.3 7.5h-.1c-3.4-.1-5-.3-6.5-1l-2-.9-1.2-1.8c-1.2-2-1.5-4.4-2-9.6-.7-5.6-1.6-14-4.7-27.2l2.7-.8-7.6-14.3a28.1 28.1 0 0 0-19.6-14.5 37 37 0 0 0-8.3-1H132l-2-2a7.7 7.7 0 0 0-5.4-2.2c-3 0-5.7 1.7-7 4.4l-1.3 2.6-2.7 1A45 45 0 0 0 95 182.1c-12 14.5-3 39.4 6.3 59.5 4.2 9.3 5.1 17 2.8 23.9l-.8 2.5-2.3 1.3a37.2 37.2 0 0 0-10.2 9.2l-1.5 2-2.4.5c-1.4.4-3 .5-4.4.6l4.2 2.3-3 6.1c-14 28.5-10.5 64-.2 82.8 5.2 9.6 12 15.1 19.2 15.6 16.5 1 28-4.1 34.3-15.3l6.7-11.9-4.1 3.2a32.5 32.5 0 0 1-9.8 5.3l-.7.3c-6.7 2.2-15 4.8-22.5 0-8.5-5.4-13.7-19-16.5-42.8-2.3-19.5 2.2-33.5 13.5-41.5 9.9-7 29.2-10.8 53.6-.2l12.5 5.5-11.6 7c-11.1 6.8-22.4 20.5-22.4 36 0 7.3 2 14.5 5.8 21.4l2.7 5 12-21.2-6 38.5a160 160 0 0 1-4.7 20l-2.5 8.5v.1a143.7 143.7 0 0 0-8.1 37.5c-.1 3.4.7 6 2 6.4 1 .4 3.4-1 5-5.2 2.3-5.8 3.7-12.2 5-18.4a85.5 85.5 0 0 1 7.4-24.3l7-12.9L167 403a42.7 42.7 0 0 1 2.6 17.3c0 8.1-.9 16.4-1.6 24.3-1.3 14-2.7 28.3-.5 42a7 7 0 0 0 1.2 3l.3-.6 26.6-71.5L193 464a62.5 62.5 0 0 0 4.7 26 74 74 0 0 1 0 50l.6-.4c12-8.3 16.6-18.5 16.6-38 0-8.3-.8-17.6-1.7-28.4l-.1-2v-.2l-.1-1.5-.3-4.2 2.8-2.3c.9-.7 1.5-2 1.7-2.9l.3-2c.5-3.2 1.2-7.3 4.7-9.8 4.4-3.1 10.5-1.1 13.6 2.5a21 21 0 0 1 4 11l1 8.2c.8 7.3 1.6 14.5 3.9 20.5.4-10.2 1.6-20.5 3.5-30.6.7-3.8 3-9 7-11 1-.6 2.2-1 3.4-1zM127.3 293.1c-6 0-11.4 1.2-15.6 4.2-6.7 4.8-9.3 14.3-7.6 28.3 3 26.2 8.5 31.6 10 32.6 2 1.2 6.1-.1 10.5-1.6l.8-.2.7-.2a57 57 0 0 1-4.5-22.2 56 56 0 0 1 18-39.4c-4.1-1-8.3-1.5-12.3-1.5M473 369.7c-5 0-9.7-2-14.6-6L454 360l2.7-5.1a44.1 44.1 0 0 0 5.4-20.9c0-12.6-8-26.3-20.4-34.6L438 297l-3.7-1.6a33 33 0 0 0-6.2-2c-9.2-1.9-16.7 1-21.6 8.4l-7.8 11.6-4.8-13.1c-1.8-5-2.1-9.8-1-14.2 1.7-6.8 6.7-12.4 14.8-16.4 10.6-5.3 18-3.3 23-2 5 1.3 6.3.7 7.4-.1 2.8-2.2 6.1-8.6 9.9-18.8l.2-.7.8-2.2 1.3-1.2a9.6 9.6 0 0 0 2.7-10l-.5-1.7.3-1.7c1.5-9 1.1-15.4.8-20-.3-4.5-.5-7.7 1.2-10.9 2.3-4 6.4-5.2 9.8-6.1 9.8-2.8 22.6-3.4 29 3.6 2.1 2.3 5.3 7.5 2 16.2-7 18.5-9.7 33-8.4 44.3l1.1 9.2-9-1.3c-2-.3-3.8-.4-5.6-.3-10.6.6-20.5 7.2-29.4 19.8l-.1.6c1.7-.8 4.5-2.6 9.3-6.9 8-7 23-11.1 39 .4 12.5 9 19.1 25.6 17.5 44.3-1.6 19.2-11.4 35.5-25.5 42.5a26 26 0 0 1-11.5 3m-1-14.2c1.7.3 3.5-.1 6.2-1.5 9.8-4.8 16.6-16.7 17.8-31 1.1-13.6-3.3-25.5-11.8-31.6-1.2-1-12.7-8.8-21.3-1.2a104 104 0 0 1-5 4.2 55.7 55.7 0 0 1 18.3 39.7 57 57 0 0 1-4.2 21.4m-10.8-101.8-.2.6c3.8-1.4 7.7-2.1 11.8-2.4.1-12 3.3-26 9.6-42.8l.5-1.8c-1.5-.8-6.5-1.7-14.4.5l-1 .3.2 2.3c.3 4.7.8 11.8-.7 21.8a24 24 0 0 1-5.8 21.6zM199 313.5l-8-12-5.4-8 22.7-6.6-4.6 13.4zm-33.3-33.7-18.6-7.2c-8-3-19-7.3-29.5-7.4h-7.8l.8-7.8c1-11.2-1.7-25.3-8.5-43.3-3.3-8.7-.1-13.9 2-16.2 6.4-7 19.2-6.5 29-3.7 3.4 1 7.5 2.2 9.8 6.2 1.7 3.1 1.5 6.4 1.2 11a82.6 82.6 0 0 0 5.6 37.4c2.2 6 4.2 10.4 6 13.7zM125 251.6c4 .5 8 1.4 11.7 2.4l-.1-.4c-8-21.8-7-35.2-6.5-43.2l.1-2.3-.9-.3c-7.8-2.2-12.9-1.3-14.4-.5l.5 1.8c6.3 16.6 9.4 30.6 9.6 42.5" class="cls-13"/></g><path id="path807" fill="#4f3ad5" stroke="#000" stroke-linecap="round" stroke-linejoin="round" stroke-width="7.1" d="M425.6 366.2a147 147 0 0 0-28.1-26c-3-2.2-6-4.3-9.3-5.8-4.5-2-9.5-2.7-14.4-3.7-18.9-4-36.2-13-54-20.4-17.8-7.3-37.1-13-56.1-9.7-10.2 1.8-19.7 6.1-29.5 9.6a333.4 333.4 0 0 1-44.7 11.8l-26.8 36.3a40.3 40.3 0 0 1 25.5 22L146 349.2c4.2 15.5.8 32-3.7 47.5s-10.2 31-10.8 47c-.1 4 .7 8.7 4.4 10 4.2 1.3 7.8-3.3 9.5-7.4 6.1-15.4 5.2-33.9 15.3-47.1 5 5.4 5.7 13.5 5.5 21-.3 22.4-5.6 44.9-2 67 .5 3.4 3.3 7.7 6.2 6 1-.6 1.6-1.9 2-3l17-45.4a427 427 0 0 1 5-13 133 133 0 0 0 17.1 32.2c.6 1 1.2 1.8 2.2 2.4 3 1.7 6.4-2.2 7-5.6.8-3.5.8-7.6 3.7-9.6 2.7-2 6.7-.7 8.8 1.8a19 19 0 0 1 3.3 9.2c2 14 1.6 30 11.6 40.1-.1-14 1.1-28 3.7-41.8.9-4.6 4.3-10.6 8.6-8.7 1.4.6 2.3 2 3 3.2 6.8 11.3 7 25.1 8 38.2 1 15.5 3.1 31 6.4 46.2.9 3.9 3.7 8.8 7.4 7.4 2.2-1 2.9-3.7 3.2-6 2.7-18.6 4.4-37.4 4.8-56.2.1-3 .2-6 1.4-8.8 1.3-2.7 4.1-5 7-4.5 4.9.7 6.3 6.9 6.5 11.7l.7 14.4c.1 2 .3 4.2 1.6 5.7 2.5 2.9 7.5 1.4 10.3-1.3 5.5-5.2 7-13.4 8.2-21l4.4-28c5-1.6 10.3 1.9 12.6 6.5s2.5 10 2.6 15c.3 16.2 1.3 32.2 3.1 48.2a16 16 0 0 0 2 7.2c1.4 2.1 4.2 3.5 6.5 2.5 2.4-1 3.2-4 3.7-6.7L373 474c6-1.1 12.7 1.8 15.8 7.1 2 3.3 2.6 7.3 4.2 10.8 1.7 3.5 5 6.8 8.8 6.3 4.7-.5 7-6 8.2-10.5l5-18.4c1.2-4.6 5-10.3 9.1-8.1a8 8 0 0 1 2.7 3l7.8 12.1c2 1.1 4.1-1.3 5-3.4a106.2 106.2 0 0 0-13.9-106.8z"/><path id="path809" fill="none" stroke="#000" stroke-linecap="round" stroke-linejoin="round" stroke-width="7.1" d="M177 390.2c-.6 10.9-.4 21.8.4 32.6.1 2 .7 4.4 2.6 4.6 1.1.2 2.1-.4 3-1.1 3.6-2.7 6.6-6.2 10.5-8.5 4-2.3 9-3.3 12.9-.8 1.7 1.1 3 2.8 4.2 4.4A47.8 47.8 0 0 0 257 437c4.2-1 8.3-2.4 12.5-2.4 4.3 0 9 2.2 10.2 6.3.6 2 .3 4.2.7 6.2.3 2 1.5 4.3 3.6 4.6 1.3.2 2.6-.5 3.6-1.4 4.7-4 4.8-12.2 10.1-15.4a9.1 9.1 0 0 1 10.1 1c2.8 2.4 4.2 6 4.2 9.7 0 3.5-.4 8.6 3.2 9 1.4.2 2.8-.6 3.9-1.6 5.7-4.5 10.3-10.5 16.3-14.7 6-4.1 14.5-6.1 20.5-1.9 3.5 2.5 5.5 6.6 8.3 9.9 6.1 7 16.6 9.8 25.6 7.2 9-2.5 16.4-9.8 19.7-18.5 1.7-4.2 3.5-9.7 8-10 1.7 0 3.3.7 4.6 1.7 4 3 6 7.8 7 12.6.3 1 .5 2 1.2 2.6 1.4 1.5 4 .7 5.6-.7 1.5-1.4 2.6-3.3 4.4-4.3" class="cls-7"/><path id="path811" fill="#515364" stroke="#000" stroke-linecap="round" stroke-linejoin="round" stroke-width="7.1" d="M356.8 183.4s23.8-11.3 9.8-43.8-56.2-16.7-55-48c1.3-31.2 30.2-42 42-30.6 0 0 4.8 4.8-8.9 5.1-13.7.3-21.6 15.3-11.1 23.2 6.8 5.2 15.8 4.7 23.7 6.5 8.2 2 15.6 6.7 21.3 12.8 22.1 23.6 26.3 56.4 15.3 85.9-2.2 5.8-4.7 11.4-7.6 16.9" class="cls-2"/><path id="path813" fill="#303443" stroke="#000" stroke-linecap="round" stroke-linejoin="round" stroke-width="7.1" d="M226.1 194.8s-53-22.9-33.6-87.9c19.3-65 61-11.4 65 14.4s15.4-20.8 0-48c-15.4-27.4-76-28.8-84.9 12.3-8.9 41.2-10 101 24.3 140" class="cls-5"/><path id="path815" fill="#303443" stroke="#000" stroke-linecap="round" stroke-linejoin="round" stroke-width="7.1" d="M427.9 363.2s1 34.3 57.7 27.1c56.6-7.2 48.3-83.8 31-103.8-17.1-20-48.2-41.2-75.4-2.3 0 0-4.8 15.3 14.8-2 10.2-9 24.2-6.9 34.6.6 25.3 18.3 19.7 67.2-7.6 80.7-13.2 6.6-20.3 0-29.3-9.3-7.7-8.1-15.3-16.3-22.8-24.5" class="cls-5"/><path id="path817" fill="#303443" stroke="#000" stroke-linecap="round" stroke-linejoin="round" stroke-width="7.1" d="M186.7 267.2s-9.8 7.8-24.6 6.4c-15-1.4-55.3-32.2-79.4 11-24.1 43.2-8.2 105.6 19.8 107.4 28 1.8 39-13.8 42.2-29.4 3.2-15.6-2.7-.4-16 3.9-13 4.2-29.2 10.5-35-39.6-6-50 37.2-50.2 64.8-36.8a51.6 51.6 0 0 0 56.4-5.5" class="cls-5"/><path id="path819" fill="#515364" stroke="#000" stroke-linecap="round" stroke-linejoin="round" stroke-width="7.1" d="M400.6 305.5s-15-20.8 8.8-32.6c24-12 27.5 17.1 42-23 14.5-40-3.8-47 14.3-52.2 18-5.2 32.2.6 26.7 15.2-5.5 14.5-12 35.5-7.4 52s22.3 27.7 36.5 17.4-2-.7-12.3-5.5-18-14.5-9.4-33.6c8.8-19 19.4-46.7 5.9-63.2-13.6-16.4-66.7-31.4-77.4 10.2-10.6 41.5-2.4 44-14.5 44.2-12 .2-19.3-24-45.4-47.6s-32.4-25.6-51.2-25.6h-36.4c-18.9 0-25.1 1.9-51.2 25.6-26.1 23.7-33.4 47.8-45.5 47.6-12-.2-3.8-2.7-14.5-44.2-10.6-41.6-63.8-26.6-77.3-10.2-13.5 16.4-2.9 44.2 5.8 63.2s1 28.8-9.3 33.6-26.5-4.8-12.3 5.5 32-1 36.5-17.5c4.5-16.4-2-37.4-7.4-52-5.5-14.5 8.7-20.3 26.7-15.1 18 5.1-.3 12.2 14.3 52.3 14.5 40 18 11 42 22.9 23.8 11.9 8.7 32.6 8.7 32.6s-12.5-6.1-19.7 0c-7.2 6-32.6-8.3-29.3 25.4 3.3 33.8 15 44.3 43.7 44l64.1 60.1s34.6-69.1 99.6 0l41.1-60s50.8 3.3 52-35.2c1-38.5 1.6-46-48.2-34.3" class="cls-2"/><path id="path821" fill="#303443" stroke="#000" stroke-linecap="round" stroke-linejoin="round" stroke-width="7.1" d="M247.6 203.4s29-16.3 35.7 10.6c6.8 27 63.8 76.5 83.4 57.8 21.9-20.8-18.4-108.7-83.8-89.2a79 79 0 0 0-36.7 22.2" class="cls-5"/><path id="path823" fill="#767b8c" stroke="#767b8c" stroke-linecap="round" stroke-linejoin="round" stroke-width="5.1" d="m419.5 237.5-.5-3.9c-1.1.6-2.7.7-5.2.8-12 .2-19.3-24-45.4-47.6S336 161 317.2 161h-36.4c-18.9 0-25.1 2-51.2 25.7-26.1 23.6-33.4 47.8-45.5 47.6-2.7 0-4.4-.3-5.5-1 1 .8 18 12.8 53.7-26.3 36.9-40.2 42.8-39.7 75-39.2 32.3.5 44.5 23 68.3 48.8 23.8 25.9 43.9 20.8 43.9 20.8z"/><path id="path825" fill="none" stroke="#000" stroke-linecap="round" stroke-linejoin="round" stroke-width="7.1" d="M400.6 305.5s-15-20.8 8.8-32.6c24-12 27.5 17.1 42-23 14.5-40-3.8-47 14.3-52.2 18-5.2 32.2.6 26.7 15.2-5.5 14.5-12 35.5-7.4 52s22.3 27.7 36.5 17.4-2-.7-12.3-5.5-18-14.5-9.4-33.6c8.8-19 19.4-46.7 5.9-63.2-13.6-16.4-66.7-31.4-77.4 10.2-10.6 41.5-2.4 44-14.5 44.2-12 .2-19.3-24-45.4-47.6s-32.4-25.6-51.2-25.6h-36.4c-18.9 0-25.1 1.9-51.2 25.6-26.1 23.7-33.4 47.8-45.5 47.6-12-.2-3.8-2.7-14.5-44.2-10.6-41.6-63.8-26.6-77.3-10.2-13.5 16.4-2.9 44.2 5.8 63.2s1 28.8-9.3 33.6-26.5-4.8-12.3 5.5 32-1 36.5-17.5c4.5-16.4-2-37.4-7.4-52-5.5-14.5 8.7-20.3 26.7-15.1 18 5.1-.3 12.2 14.3 52.3 14.5 40 18 11 42 22.9 23.8 11.9 8.7 32.6 8.7 32.6s-12.5-6.1-19.7 0c-7.2 6-32.6-8.3-29.3 25.4 3.3 33.8 15 44.3 43.7 44l64.1 60.1s34.6-69.1 99.6 0l41.1-60s50.8 3.3 52-35.2c1-38.5 1.6-46-48.2-34.3" class="cls-7"/><path id="path827" fill="#515364" stroke="#000" stroke-linecap="round" stroke-linejoin="round" stroke-width="7.1" d="M439.1 358.1s13.3 5 16.5 44.3 11.3 27.5 21 26.5c9.8-1 20.6-38.1 16.5.8-4.2 39-46 38.3-52 4.7-5.8-33.6-37.7-50-37.7-50" class="cls-2"/><path id="path829" fill="#515364" stroke="#000" stroke-linecap="round" stroke-linejoin="round" stroke-width="7.1" d="M247 345.4c-11.8-8.9-25.6 12.3-43.8 15.3-18.2 3-33 1.4-43.3-20.7-10.4-22.2 10.8-28.6 21.1-22.7 10.4 6-8.2 20.7-8.2 20.7s39.8 3.4 24.5-32.5c-15.3-36-65-5.5-65 28.5s37.9 58.2 61.5 58.2c23.7 0 19.3 22.2 19.3 22.2l6.6 16.4L238 428l22.8-16.9" class="cls-2"/><path id="path831" fill="#515364" stroke="#000" stroke-linecap="round" stroke-linejoin="round" stroke-width="7.1" d="M350.9 345.4c11.8-8.9 25.6 12.3 43.8 15.3 18.2 2.9 33 1.4 43.4-20.7 10.3-22.2-10.9-28.6-21.2-22.7-10.4 6 8.2 20.7 8.2 20.7s-39.7 3.4-24.5-32.5c15.3-36 65-5.5 65 28.5s-37.9 58.2-61.5 58.2c-23.7 0-19.2 22.2-19.2 22.2l1.1 12.5-9.5 8.1-17.5-1.8-22.1-38.2" class="cls-2"/><path id="path833" fill="#515364" stroke="#000" stroke-linecap="round" stroke-linejoin="round" stroke-width="7.1" d="M252.7 368.3c-1.3 34.8-37.9 53.1-37.9 53.1a55 55 0 0 0-20.4 69.8c14.4 37.3-14.4 65.2 6 51.2 20.4-13.9 19.4-33.8 16.4-69.6s9.4-16 39.3-37.8c29.8-21.9 47.2-65.7 29.8-83.6-17.4-17.9-9.4-54.7-9.4-54.7s1.9-16.7 18-17c16.3-.4 25.3 4.1 27 17 0 0 8 36.8-9.5 54.7-17.4 18 0 61.7 29.8 83.6 29.9 21.9 42.3 2 39.3 37.8s-4 55.7 16.4 69.6-8.4-13.9 6-51.2a55 55 0 0 0-20.4-69.8s-36.6-18.3-37.9-53" class="cls-2"/><path id="path835" fill="#303443" stroke="#000" stroke-linecap="round" stroke-linejoin="round" stroke-width="7.1" d="M312 351.4c17.4-17.9 9.4-54.7 9.4-54.7-1.6-12.9-10.7-17.4-26.9-17-16.2.3-18 17-18 17s-8 36.8 9.4 54.7a23 23 0 0 1 5.3 9l1.5 8s-2.4 27-12.4 40.3c0 0 23.8-7.6 36.3-1.7 0 0-9.3-15.9-11.3-40.3.7-6 2.8-11.3 6.7-15.3" class="cls-5"/><g id="g857"><circle id="circle837" cx="244" cy="289.3" r="31.5" fill="#fff" stroke="#000" stroke-linecap="round" stroke-linejoin="round" stroke-width="7.1" class="cls-6"/><circle id="circle839" cx="241.6" cy="286" r="13.6" fill="#ff0" stroke="#000" stroke-linecap="round" stroke-linejoin="round" stroke-width="5.1" class="cls-1"/><path id="path841" fill="none" stroke="#000" stroke-linecap="round" stroke-linejoin="round" stroke-width="4" d="M238.9 289.5a4.8 4.8 0 0 1-1.4-3.4 4.8 4.8 0 0 1 8.2-3.5" class="cls-4"/><path id="polyline843" fill="none" stroke="#000" stroke-linecap="round" stroke-linejoin="round" stroke-width="4" d="m249.2 320.4 1.2-8-2.2-3.4" class="cls-4"/><path id="polyline845" fill="none" stroke="#000" stroke-linecap="round" stroke-linejoin="round" stroke-width="4" d="m226 314.7 2-7.2h4" class="cls-4"/><path id="polyline847" fill="none" stroke="#000" stroke-linecap="round" stroke-linejoin="round" stroke-width="4" d="m275.5 295.8-13.3 3.9-2.9-1.6" class="cls-4"/><path id="line849" fill="none" stroke="#000" stroke-linecap="round" stroke-linejoin="round" stroke-width="4" d="m269 272.4-6 4.6" class="cls-4"/><path id="polyline851" fill="none" stroke="#000" stroke-linecap="round" stroke-linejoin="round" stroke-width="4" d="m240.4 260 2 5.4 3.8.8" class="cls-4"/><path id="polyline853" fill="none" stroke="#000" stroke-linecap="round" stroke-linejoin="round" stroke-width="4" d="m225 268.4 1 5.3-2.1 3.3" class="cls-4"/><path id="line855" fill="none" stroke="#000" stroke-linecap="round" stroke-linejoin="round" stroke-width="4" d="m214 298.8 8-4.2" class="cls-4"/></g><circle id="circle859" cx="375.6" cy="295.8" r="13.3" fill="#515364" stroke="#000" stroke-linecap="round" stroke-linejoin="round" stroke-width="7.1" class="cls-2"/><circle id="circle861" cx="374.6" cy="143.4" r="13.3" fill="#515364" stroke="#000" stroke-linecap="round" stroke-linejoin="round" stroke-width="7.1" class="cls-2"/><circle id="circle863" cx="443.8" cy="237.6" r="13.3" fill="#515364" stroke="#000" stroke-linecap="round" stroke-linejoin="round" stroke-width="7.1" class="cls-2"/><circle id="circle865" cx="216.3" cy="373.5" r="11.3" fill="#515364" stroke="#000" stroke-linecap="round" stroke-linejoin="round" stroke-width="7.1" class="cls-2"/><circle id="circle867" cx="212.5" cy="333.7" r="5.7" stroke-width="0" class="cls-11"/><circle id="circle869" cx="199.3" cy="197.2" r="5.7" stroke-width="0" class="cls-11"/><circle id="circle871" cx="307.3" cy="203.4" r="8.4" stroke-width="0" class="cls-11"/><circle id="circle873" cx="377.5" cy="331" r="8.4" stroke-width="0" class="cls-11"/><circle id="circle875" cx="249.9" cy="419.4" r="8.4" stroke-width="0" class="cls-11"/><circle id="circle877" cx="124.7" cy="170.5" r="11.3" fill="#515364" stroke="#000" stroke-linecap="round" stroke-linejoin="round" stroke-width="7.1" class="cls-2"/><circle id="circle879" cx="344.3" cy="430.8" r="11.3" fill="#515364" stroke="#000" stroke-linecap="round" stroke-linejoin="round" stroke-width="7.1" class="cls-2"/><path id="path881" fill="#303443" stroke="#000" stroke-linecap="round" stroke-linejoin="round" stroke-width="7.1" d="M392.7 480.8C391 459 381.4 449 381.4 449l-4 1.5c3.7 2.8 5 8.2 3.7 22.3-3 35.8-4 55.7 16.5 69.7a32 32 0 0 0 5 3c-21.9-24.3-8.2-45.2-9.9-64.7" class="cls-5"/><path id="path883" fill="#303443" stroke="#000" stroke-linecap="round" stroke-linejoin="round" stroke-width="7.1" d="M216.8 472.8c-.9-10.5-.4-16.2 1.4-19.6v0s-18.9 4.8-16 27.3c3 22.5 8.6 38.3-9.3 65v0c.4 1.3 2.4.4 7.5-3 20.4-14 19.4-33.9 16.4-69.7" class="cls-5"/><path id="path885" fill="none" stroke="#000" stroke-linecap="round" stroke-linejoin="round" stroke-width="7.1" d="M246.2 204.8c-25.4 27.8-21 67-21 67" class="cls-7"/><circle id="circle887" cx="223.9" cy="237.6" r="11.3" fill="#515364" stroke="#000" stroke-linecap="round" stroke-linejoin="round" stroke-width="7.1" class="cls-2"/><g id="g909"><circle id="circle889" cx="358" cy="255.2" r="31.5" fill="#fff" stroke="#000" stroke-linecap="round" stroke-linejoin="round" stroke-width="7.1" class="cls-6"/><circle id="circle891" cx="362.1" cy="254.8" r="13.6" fill="#ff0" stroke="#000" stroke-linecap="round" stroke-linejoin="round" stroke-width="5.1" class="cls-1"/><path id="path893" fill="none" stroke="#000" stroke-linecap="round" stroke-linejoin="round" stroke-width="4" d="M360.5 250.7a4.8 4.8 0 0 1 2.4 9.4" class="cls-4"/><path id="polyline895" fill="none" stroke="#000" stroke-linecap="round" stroke-linejoin="round" stroke-width="4" d="m328.8 243.5 6 5.1h4.2" class="cls-4"/><path id="polyline897" fill="none" stroke="#000" stroke-linecap="round" stroke-linejoin="round" stroke-width="4" d="m345.6 226.6 5.2 5.5-2 3.3" class="cls-4"/><path id="polyline899" fill="none" stroke="#000" stroke-linecap="round" stroke-linejoin="round" stroke-width="4" d="m336.2 278.8 3.5-13.4 2.9-1.7" class="cls-4"/><path id="line901" fill="none" stroke="#000" stroke-linecap="round" stroke-linejoin="round" stroke-width="4" d="m359.5 285.3-.8-7.6" class="cls-4"/><path id="polyline903" fill="none" stroke="#000" stroke-linecap="round" stroke-linejoin="round" stroke-width="4" d="m384.9 267.2-5.6-1-2.7 2.9" class="cls-4"/><path id="polyline905" fill="none" stroke="#000" stroke-linecap="round" stroke-linejoin="round" stroke-width="4" d="m385.7 249.8-5-2-1.8-3.5" class="cls-4"/><path id="line907" fill="none" stroke="#000" stroke-linecap="round" stroke-linejoin="round" stroke-width="4" d="m365.5 224.6-.7 9" class="cls-4"/></g></g></svg>