<svg id="Layer_1" data-name="Layer 1" xmlns="http://www.w3.org/2000/svg" viewBox="0 0 233.38 233.38"><defs><style>.cls-1{fill:#00529f;}.cls-2{fill:#eeb211;}.cls-3{fill:#7b2c18;}.cls-4{fill:none;stroke:#eeb210;stroke-miterlimit:10;stroke-width:4px;}</style></defs><circle class="cls-1" cx="116.69" cy="116.69" r="114.69"/><g id="Boat"><g id="path117"><path class="cls-2" d="M129.1,63l37.25,21.67,3.93-1-40.8-23.83Z" transform="translate(-5.01 -5.23)"/><path class="cls-2" d="M128.94,63.24,166.18,85h0l3.94-1,.77-.19-.67-.39-40.8-23.87-.13-.38v.45l-.39,3.22v.23Zm.38-3.23,40.8,23.87V83.3l-4,1h.26L129.29,62.69l.16.32.39-3.22Z" transform="translate(-5.01 -5.23)"/></g><g id="path119"><path class="cls-2" d="M82.92,101.13l37.5-23.28-.8,3.93-29,17.64Z" transform="translate(-5.01 -5.23)"/><path class="cls-2" d="M83.08,101.29,120.58,78l-.48-.32-.77,4.12v-.19l-29,17.54h0l-7.51,1.58Zm7.54-1.58,29-17.54h0l.77-4.13v-.71l-.61.39L82.33,101l.23.55L90.11,100h0Z" transform="translate(-5.01 -5.23)"/></g><g id="path121"><path class="cls-2" d="M110.46,173.37,94.62,187.79h3.23l13.51-12Z" transform="translate(-5.01 -5.23)"/><path class="cls-2" d="M110.23,173.11l-15.8,14.45-.61.65h4.25l13.52-12h.16V176l-1-2.35-.16-.42Zm1,2.39-13.51,12h-3l.22.54,15.84-14.41h-.52l1,2.39Z" transform="translate(-5.01 -5.23)"/></g><g id="path123"><path class="cls-2" d="M138,177l8.86,4.12,4.52-.8-12.9-5.9Z" transform="translate(-5.01 -5.23)"/><path class="cls-2" d="M137.84,177.27l8.83,4.16h.2l4.54-.8h1l-.93-.42-12.9-5.94h-.36v.39l-.58,2.58v.23Zm.58-2.54,12.9,5.9v-.58l-4.55.77H147l-8.87-4.13.17.36.61-2.58Z" transform="translate(-5.01 -5.23)"/></g><path class="cls-2" d="M119.73,236.72c3.34.14,6.66-.25,10-.4L128,29.6h-7l-1.72,207.13A3,3,0,0,1,119.73,236.72Z" transform="translate(-5.01 -5.23)"/><path class="cls-3" d="M119.55,236.72l1.74-206.89h6.45l1.74,206.5.47,0L128.23,29.57v-.23h-7.42v.23l-1.73,207.16Z" transform="translate(-5.01 -5.23)"/><g id="path255"><path class="cls-3" d="M119.73,236.72h.93L122.38,31h4.28l1.71,205.42c.89-.06,1.79-.1,2.68-.12l-1.76-208h-9.67l-1.74,208.63A7.16,7.16,0,0,1,119.73,236.72Z" transform="translate(-5.01 -5.23)"/><path class="cls-3" d="M120.34,236.72h.52l1.71-205.54h3.77l1.71,205.22.51,0L126.85,31.18h1.7l-.45-.42L126.32,29V30.7h-3.76V29l-1.77,1.77-.45.42h1.69Z" transform="translate(-5.01 -5.23)"/><polygon class="cls-3" points="121.84 24.98 122.32 25.46 121.84 25.46 121.84 24.98"/><polygon class="cls-3" points="116.58 25.46 117.06 24.98 117.05 25.46 116.58 25.46"/><path class="cls-3" d="M118.12,236.83l1.75-208.36h9.2l1.72,207.81.47,0-1.74-208V28h-9.9v.22l-1.89,208.71Z" transform="translate(-5.01 -5.23)"/></g><g id="path267"><path class="cls-2" d="M124.39,18.77c4.29,0,7.74,1.83,7.74,6.61s-3,5.06-7.26,5.06-8.22-.32-8.22-5.06S120.13,18.77,124.39,18.77Z" transform="translate(-5.01 -5.23)"/><path class="cls-3" d="M124.39,19c2.8,0,7.48.84,7.48,6.45,0,4.49-2.77,4.84-7,4.84s-8-.39-8-4.84C116.91,19.86,121.58,19,124.39,19Zm-8,6.45c0,4.94,4,5.32,8.48,5.32s7.65-.61,7.65-5.41c0-4.36-2.94-6.84-8-6.84s-8.13,2.48-8.13,6.84Z" transform="translate(-5.01 -5.23)"/></g><path class="cls-3" d="M124.39,20.12a7.23,7.23,0,0,1,5.09,1.64,4.94,4.94,0,0,1,1.29,3.62c0,3.22-1.32,3.74-5.9,3.74a9.46,9.46,0,0,1-6.06-1.26,3.23,3.23,0,0,1-.81-2.48,5,5,0,0,1,1.29-3.62A7.31,7.31,0,0,1,124.39,20.12Zm-9.1,5.26a5.93,5.93,0,0,0,1.62,4.38,10.94,10.94,0,0,0,8,2.07,9.68,9.68,0,0,0,7-1.78,6.39,6.39,0,0,0,1.58-4.67,7.51,7.51,0,0,0-2.06-5.52,9.69,9.69,0,0,0-7-2.42c-5.68,0-9.1,3.07-9.1,7.94Z" transform="translate(-5.01 -5.23)"/><g id="path283"><path class="cls-2" d="M191.85,86.91a3.22,3.22,0,0,0,.78-6.4,3.26,3.26,0,0,0-1.94.37h0L72.37,103.23h0a3.22,3.22,0,0,0-2.78,3.62v0a3.22,3.22,0,0,0,3.88,2.39h0L191.82,86.91Z" transform="translate(-5.01 -5.23)"/><path class="cls-3" d="M191.89,87.17a3.55,3.55,0,0,0,3-3.94,3.17,3.17,0,0,0-1.35-2,4,4,0,0,0-2.84-.58l.29.26h0v-.32h-.29L72.34,102.94v.48h0v-.51a3.74,3.74,0,0,0-2.42,1.58,2.94,2.94,0,0,0-.52,2.35,3.48,3.48,0,0,0,4.16,2.61v-.51h0v.51L191.89,87.07l-.23-.42-.58.58Zm0-.52L73.56,109v.49h0V109A3,3,0,0,1,70,106.84a2.71,2.71,0,0,1,.45-2,3.23,3.23,0,0,1,2.1-1.32V103h0v.49L190.86,81.1l-.33-.22h0v.32h.33a3.27,3.27,0,0,1,2.45.48,2.52,2.52,0,0,1,1.12,1.68,3,3,0,0,1-2.54,3.23l.22.42.58-.55Z" transform="translate(-5.01 -5.23)"/></g><g id="path285"><path class="cls-3" d="M192.08,88.23a4.42,4.42,0,1,0-1.31-8.74l-.33.07,1.61,1.32V79.23l-1.61.26L72.11,101.87l-5,.94,4.77,1.68.29-2.58a4.41,4.41,0,1,0,1.3,8.73,1.86,1.86,0,0,0,.34-.06l-.32-2.68.26,2.68L192.11,88.23l-1.38-2.09-1.81,2.67Zm-.48-2.68L73.27,107.94l.29,2.67-.22-2.67a1.76,1.76,0,0,1-2.39-.62,1.73,1.73,0,0,1,.62-2.38,1.76,1.76,0,0,1,1.12-.23l5-.93-4.8-1.68-.26,2.61L191,82.33,189.34,81v1.61a12.55,12.55,0,0,0,1.61-.26,1.74,1.74,0,1,1,1.14,3.29,1.71,1.71,0,0,1-.49.1L193,87.81l1.81-2.67Z" transform="translate(-5.01 -5.23)"/><path class="cls-3" d="M192.15,88.49a4.68,4.68,0,0,0-1.75-9.19h-.51l.38.35L191.89,81l.42.35V79h0l-1.81.23L72.18,101.62l-5,1h-.94l.91.33,4.8,1.64h.29v-.29l.26-2.61v-.33h-.32a4.68,4.68,0,0,0,1.74,9.2h.22v-.26l-.29-2.68h-.51l.25,2.68v.55h.3L192.21,88.42h.39l-.23-.32L191,86l-.19-.32-.23.32-1.77,2.68h0l1.84-.2Zm-3,.48,1.77-2.67h-.36L192,88.36l.16-.39L73.79,110.35l.29.23-.23-2.68h-.51l.32,2.68.19-.26a4.19,4.19,0,0,1-2.07-8.12,3.18,3.18,0,0,1,.52-.1l-.29-.26-.25,2.58.32-.19-4.81-1.68V103l5-.93L190.56,79.75l1.55-.26H192v1.45l.42-.19-1.61-1.32v.42A4.19,4.19,0,1,1,192.83,88a3.18,3.18,0,0,1-.52.1l-3.23.58h.26Z" transform="translate(-5.01 -5.23)"/><path class="cls-3" d="M191.56,85.33,73.21,107.58H73v.23l.32,2.67h.49l-.23-2.71v-.19H73.3a2,2,0,0,1-1.45-.26,1.37,1.37,0,0,1-.58-.84,1.68,1.68,0,0,1,1.45-1.77l5-.93h.93l-.9-.33L73,101.78h-.32v.32l-.26,2.58V105h.32L191.05,82.65h.55l-.42-.35L189.57,81l-.42-.36v2.29h0l1.83-.23a2,2,0,0,1,1.42.26,1.34,1.34,0,0,1,.58.84,1.63,1.63,0,0,1-1.48,1.77h-.35l.19.33L192.73,88l.19.33.22-.33L195,85.3h0v-.16c0-.2,0-.2-1.84.16Zm3-.48-1.8,2.67h.42l-1.39-2.09v.38a2.15,2.15,0,0,0,1.87-2.35,1.77,1.77,0,0,0-.77-1.16,2.5,2.5,0,0,0-1.81-.33l-1.55.26h.16V80.78l-.42.2,1.62,1.32v-.45L72.6,104.36l.29.29.25-2.62-.32.23,4.81,1.68v-.49l-5,.94a2.15,2.15,0,0,0-1.87,2.35,1.83,1.83,0,0,0,.77,1.16,2.44,2.44,0,0,0,1.84.36l-.32-.23.25,2.68h.49L73.5,108l-.23.29L191.63,85.94l3.22-.58h-.25v-.29h0Z" transform="translate(-5.01 -5.23)"/></g><g id="path291"><path class="cls-2" d="M202.3,180.08a3.23,3.23,0,1,0,.77-6.41,3.3,3.3,0,0,0-1.67.25h0L68.47,193.27h0a3.52,3.52,0,0,0-3.23,3.64,3.48,3.48,0,0,0,4.19,2.52h0l132.94-19.35Z" transform="translate(-5.01 -5.23)"/><path class="cls-3" d="M202.34,180.34a4.37,4.37,0,0,0,2.87-1.65,3,3,0,0,0,.61-2.26,3.81,3.81,0,0,0-4.48-2.77l.29.32h0v-.35h-.36L68.34,193H67.4l.91.35h0v-.48a4.24,4.24,0,0,0-2.87,1.61,3,3,0,0,0,.5,4.21l.11.08a4.39,4.39,0,0,0,3.22.74V199h0v.48l132.9-19.35-.22-.38-.32.45Zm0-.52L69.4,199.17v.48h0v-.48a3.93,3.93,0,0,1-2.84-.68,2.49,2.49,0,0,1-1-1.64,2.41,2.41,0,0,1,.52-1.9,3.82,3.82,0,0,1,2.55-1.46h.93l-.9-.35h0v.48l132.93-19.35-.29-.32h0v.36h.39a3.22,3.22,0,0,1,3.87,2.32,2.46,2.46,0,0,1-.52,1.9,3.85,3.85,0,0,1-2.54,1.45l.25.39.33-.48Z" transform="translate(-5.01 -5.23)"/></g><g id="path293"><path class="cls-3" d="M202.5,181.43a5.47,5.47,0,0,0,3.58-2.06,4.12,4.12,0,0,0,.84-3.23,4.81,4.81,0,0,0-5.71-3.67l1.51,1.45v-1.71l-1.67.23L68.11,191.79,68,194.66l.29-2.62a5.51,5.51,0,0,0-3.62,2.07,4.05,4.05,0,0,0-.83,3.22A4.2,4.2,0,0,0,65.53,200a5.46,5.46,0,0,0,4.07,1l-.26-2.71V201l132.93-19.35-1.32-2.1-1.68,2.52Zm-.39-2.67L69.18,198.11l.25,2.67v-2.67a2.82,2.82,0,0,1-2-.46,1.38,1.38,0,0,1-.32-2,3,3,0,0,1,1.84-1l.19-2.64-.29,2.61,132.94-19.35-1.55-1.48-.16,1.74,1.71-.23c1.29-.19,2.51.45,2.64,1.39a1.36,1.36,0,0,1-.32,1.06,2.68,2.68,0,0,1-1.81,1l1.32,2.09,1.68-2.55Z" transform="translate(-5.01 -5.23)"/><path class="cls-3" d="M202.53,181.76a5.88,5.88,0,0,0,3.77-2.17,4.51,4.51,0,0,0,.87-3.22,5.12,5.12,0,0,0-6-3.9h-.52l.35.35,1.55,1.49.39.35v-.52l.16-1.7h-1.9L68.27,191.79H68V192l-.23,2.64h.52L68.6,192v-.32h-.33a5.75,5.75,0,0,0-3.77,2.16,4.33,4.33,0,0,0,.74,6.07l.16.12a5.68,5.68,0,0,0,4.23,1h.22v-.26l-.25-2.67h-.49v3h.29l132.9-19.35h.39l-.19-.36-1.33-2.06L201,179l-.19.33-1.71,2.51h0v.2c0,.16,0,.16,1.74,0Zm-2.84.29,1.68-2.52H201l1.32,2.1.2-.39L69.53,200.59l.29.23v-2.68h-.51l.25,2.71.23-.29a5.18,5.18,0,0,1-3.87-.91,3.78,3.78,0,0,1-1-5.25l.15-.2a5.32,5.32,0,0,1,3.45-2l-.29-.25L68,194.56h.52l.19-2.61-.19.22,132.9-19.35,1.65-.19h0v-.19l-.17,1.7h.42l-1.54-1.45v.42a4.57,4.57,0,0,1,5.41,3.49,3.84,3.84,0,0,1-.77,2.9,5.09,5.09,0,0,1-3.42,2l-3,.41.26.17v.25h0Z" transform="translate(-5.01 -5.23)"/><path class="cls-3" d="M202.08,178.53,69.14,197.88h-.22v.26l.26,2.68h.48l-.16-2.71v-.23h-.29a2.5,2.5,0,0,1-1.84-.39,1.37,1.37,0,0,1-.52-.77,1.26,1.26,0,0,1,.26-.9,2.48,2.48,0,0,1,1.68-.91H69v-.25l.23-2.65h-.52l-.26,2.61V195h.33L201.69,175.6h.52l-.39-.36-1.55-1.45-.35-.35V174l-.16,1.71h0l1.9-.16c1.13-.16,2.22.42,2.35,1.19a1.42,1.42,0,0,1-.26.91,2.43,2.43,0,0,1-1.67.9h-.39l.23.32,1.32,2.1.19.32.23-.32,1.68-2.55h.19v-.19c0-.23,0-.23-.74,0h-1Zm2.8-.32-1.67,2.51h.42l-1.33-2.06v.39a3.06,3.06,0,0,0,2-1.13,1.86,1.86,0,0,0,.39-1.26,2.49,2.49,0,0,0-2.94-1.61l-1.64.22h0v.2l.16-1.71-.42.16,1.52,1.45V175L68.4,194.3l.29.26L69,192h-.51l-.2,2.61.2-.23a3.23,3.23,0,0,0-2,1.1,1.63,1.63,0,0,0-.35,1.29,1.57,1.57,0,0,0,.7,1.1,3,3,0,0,0,2.23.51l-.29-.26v2.71h.48l-.22-2.71-.23.26L201.76,179l3-.42-.26-.19v-.29h0Z" transform="translate(-5.01 -5.23)"/></g><g id="path303"><path class="cls-2" d="M124.87,184.4c-15.25,0-13.41-16.41-13.41-16.41h26.86S140.16,184.4,124.87,184.4Z" transform="translate(-5.01 -5.23)"/><path class="cls-3" d="M124.87,184.14a12.49,12.49,0,0,1-9.67-3.8A17.92,17.92,0,0,1,112,168l-.26.22h26.87l-.26-.22a17.86,17.86,0,0,1-3.39,12.32A12.53,12.53,0,0,1,124.87,184.14Zm13.45-16.38H111.23V168a18.27,18.27,0,0,0,3.52,12.74,15,15,0,0,0,20.28,0A18.53,18.53,0,0,0,138.55,168v-.19Z" transform="translate(-5.01 -5.23)"/></g><g id="path305"><path class="cls-3" d="M124.87,183.05a11.51,11.51,0,0,1-8.93-3.42,16.8,16.8,0,0,1-3.23-11.48l-1.35,1.19h26.83l-1.32-1.19a16.75,16.75,0,0,1-3.23,11.48A11.54,11.54,0,0,1,124.87,183.05Zm13.45-16.42H110.26v1.23a19.39,19.39,0,0,0,3.81,13.54,16.11,16.11,0,0,0,22,0,19.11,19.11,0,0,0,3.77-13.54v-1.23Z" transform="translate(-5.01 -5.23)"/><path class="cls-3" d="M124.87,182.79a11.24,11.24,0,0,1-8.74-3.23,16.29,16.29,0,0,1-3.06-11.28h0v-.62l-.45.39-1.36,1.23-.48.41H139l-.49-.41-1.35-1.23-.49-.42v.65a16.35,16.35,0,0,1-3.22,11.28A11.33,11.33,0,0,1,124.87,182.79Zm9.16-3a17.16,17.16,0,0,0,3.23-11.68l-.42.23,1.32,1.19.19-.42H111.49l.19.42,1.32-1.19-.42-.19a16.85,16.85,0,0,0,3.23,11.64,13.62,13.62,0,0,0,18.25,0Z" transform="translate(-5.01 -5.23)"/><path class="cls-3" d="M138.32,166.4H109.94v1.42a19.36,19.36,0,0,0,3.84,13.77,16.29,16.29,0,0,0,22.32,0A19.32,19.32,0,0,0,140,167.82V166.4h-1.64Zm.94.26v1.23a18.88,18.88,0,0,1-3.75,13.35,15.8,15.8,0,0,1-21.57,0,18.92,18.92,0,0,1-3.74-13.35l.16-1.23-.26.23h29.25Z" transform="translate(-5.01 -5.23)"/></g><path class="cls-2" d="M84.14,107.26l100.65-19S138.32,131.48,200.92,174L186,176.08s-25.35-28.44-55.54-28.57c0,0-46.6.61-37.15,42.11l-6.45.88S44.51,148.38,84.14,107.26Z" transform="translate(-5.01 -5.23)"/><path class="cls-3" d="M84.14,107.58l100.65-19-.22-.46a61.91,61.91,0,0,0-8.94,11.45,49.48,49.48,0,0,0-7.61,29c1.29,16.54,12.29,32,32.74,45.83V174l-14.9,2.1h.22a105.85,105.85,0,0,0-16.48-14.29c-9.25-6.45-23.57-14.32-39.25-14.38A57.64,57.64,0,0,0,118,149.28a38.07,38.07,0,0,0-20.48,12.13c-5.64,7.19-7.19,16.77-4.51,28.44l.19-.32-6.45.87H87c-.42-.42-41.64-42.41-2.74-82.88Zm2.74,83.27,6.45-.87h.29v-.26c-2.64-11.51-1.13-20.93,4.42-28,10.51-13.38,32.25-13.8,32.48-13.8,29.73,0,55.08,28.18,55.34,28.47h0l14.9-2.13h.64l-.52-.35c-20.31-13.8-31.25-29-32.5-45.44-1.74-22.74,16.12-39.73,16.38-39.89l.64-.62h-.87L83.88,107h0a57.5,57.5,0,0,0-16.32,30.51,53.87,53.87,0,0,0,2.81,26.8,78.84,78.84,0,0,0,16.12,26.28h0Z" transform="translate(-5.01 -5.23)"/><g id="path313"><path class="cls-3" d="M84.14,108.58l100.65-19-1.19-2.32c-.78.71-18.71,17.71-16.9,41.22,1.29,16.86,12.48,32.57,33.22,46.63l.55-2.45-14.9,2.1,1.19.45c-1-1.2-26.09-29-56.53-29-.94,0-22.74.45-33.74,14.42C90.62,168,89,177.89,91.75,189.91l1.16-1.64-6.45.87,1.13.39c-1.68-1.68-40.83-41.67-2.71-81.34Zm2.65,83.24,6.45-.87,1.45-.2-.33-1.45c-2.54-11.16-1.12-20.28,4.23-27.06,10.16-12.9,31.41-13.38,31.6-13.38,29.22,0,54.28,27.83,54.54,28.12l.48.52h.71l14.9-2.1,3.48-.48-2.9-2c-20-13.55-30.8-28.57-32-44.57-1.71-22.19,15.86-38.7,16.12-39l3.42-3.23-4.58.87L83.69,106h-.42l-.29.29C43,147.89,85.3,191,85.72,191.43l.48.45Z" transform="translate(-5.01 -5.23)"/><path class="cls-3" d="M84.3,108.84,185,89.81h.33l-.17-.29L184,87.2v-.29l-.22.22c-.78.71-18.8,17.77-17,41.38,1.32,17,12.52,32.73,33.32,46.86l.32.19v-.35l.58-2.45v-.39h-.36l-14.89,2.1h-1l.93.35,1.19.42.29-.39c-1.06-1.19-26.15-29-56.72-29-.94,0-22.87.42-33.93,14.51-5.93,7.52-7.55,17.48-4.81,29.57v.55L92,190l1.13-1.64.32-.49h-.58l-6.45.87v.52l1.16.35.26-.38c-1.68-1.68-40.64-41.54-2.71-81l-.32-.39-.71.39Zm.52-.84c-38.28,39.83,1,80,2.71,81.72l.25-.42-1.12-.38v.48l6.45-.87-.23-.39-1.13,1.65h.45c-2.74-11.94-1.16-21.74,4.68-29,10.93-13.9,32.6-14.32,33.54-14.32,30.35,0,55.31,27.77,56.34,29l.29-.39-1.19-.45v.48l14.9-2.09-.26-.33-.58,2.45h.38c-20.67-14-31.79-29.67-33.08-46.47-1.81-23.38,16.12-40.28,16.8-41h-.39L184.82,90v-.36L84.14,108.32v.49l.74-.42Z" transform="translate(-5.01 -5.23)"/><path class="cls-3" d="M87,192.08l6.45-.88,1.45-.19h.29v-.29l-.32-1.42c-2.55-11.09-1.13-20.15,4.16-26.86,9.86-12.55,30.54-13.29,31.41-13.29,29,0,54.08,27.74,54.34,28l.48.54h.71l14.9-2.09,3.48-.52H205l-.55-.38-2.9-2c-19.93-13.51-30.67-28.45-31.9-44.38-1.67-21.73,15.22-38.15,15.93-38.7L189,86.46l.62-.62h-.84l-4.61.88-100.62,19h-.45l-.29.29A58.69,58.69,0,0,0,66.21,137,54.89,54.89,0,0,0,69,164.31a80.73,80.73,0,0,0,16.58,27.22L86,192h0Zm-.52-.33-.45-.48c-.45-.42-42.51-43.41-2.77-84.79l.32-.32h.29l100.62-19,4.61-.83-.23-.46-3.42,3.23c-.74.71-17.83,17.29-16.12,39.25,1.26,16.12,12.06,31.15,32.25,44.76l2.9,2v-.45l-3.48.48-14.9,2.13h-.52l-.48-.52c-.23-.29-25.38-28.09-54.82-28.22a56.8,56.8,0,0,0-12.36,1.91A36.11,36.11,0,0,0,98.52,162c-5.38,6.87-6.8,16.13-4.25,27.29l.32,1.45.23-.32-1.46.19-6.45.87h-.67Z" transform="translate(-5.01 -5.23)"/></g><g id="path469"><path class="cls-3" d="M93.82,104.36c-.39.48-10,11.64-10.26,19.35a1.36,1.36,0,0,0,2.71,0c.22-6.65,9.51-17.45,9.67-17.55a1.35,1.35,0,0,0,0-1.9,1.42,1.42,0,0,0-2,0A.53.53,0,0,0,93.82,104.36Z" transform="translate(-5.01 -5.23)"/><path class="cls-3" d="M93.82,104.36c-1,1.19-10.1,11.9-10.36,19.35A1.59,1.59,0,0,0,85,125.38a1.64,1.64,0,0,0,1.68-1.54c.22-6.45,9.45-17.29,9.67-17.39a1.64,1.64,0,0,0,0-2.29,1.58,1.58,0,0,0-2.22-.18A1.44,1.44,0,0,0,93.82,104.36Zm1.9.22a1.11,1.11,0,0,1,0,1.55s-9.45,11-9.68,17.71a1.09,1.09,0,0,1-1.12,1.06h0a1,1,0,0,1-.77-.36,1,1,0,0,1-.29-.77c.26-7.45,9.68-18.61,10.19-19.09a1.13,1.13,0,0,1,1.59-.15l0,0Z" transform="translate(-5.01 -5.23)"/></g><g id="path471"><path class="cls-3" d="M105.26,102.61c-.38.55-9.9,13.78-11.15,22.58a1.35,1.35,0,1,0,2.65.54.77.77,0,0,0,0-.15c1.2-8,10.61-21.13,10.68-21.26a1.36,1.36,0,0,0-.28-1.89h0A1.4,1.4,0,0,0,105.26,102.61Z" transform="translate(-5.01 -5.23)"/><path class="cls-3" d="M105.07,102.45c-.39.55-9.93,13.81-11.22,22.58a1.73,1.73,0,0,0,.29,1.19,1.41,1.41,0,0,0,1.06.61A1.61,1.61,0,0,0,97,125.48h0c1.16-8,10.55-21,10.64-21.16a1.57,1.57,0,0,0-.36-2.2l0,0A1.61,1.61,0,0,0,105.07,102.45Zm1.94,0a1.1,1.1,0,0,1,.27,1.53l0,0s-9.67,13.26-10.74,21.38a1.17,1.17,0,0,1-.41.74,1.26,1.26,0,0,1-.84.2,1.05,1.05,0,0,1-.71-.42,1.1,1.1,0,0,1-.2-.84c1.26-8.64,10.71-21.77,11.13-22.35a1.1,1.1,0,0,1,1.52-.22Z" transform="translate(-5.01 -5.23)"/></g><g id="path473"><path class="cls-3" d="M114.33,100.84c-.33.74-8.07,18-8.32,27.38a1.39,1.39,0,0,0,1.32,1.39,1.34,1.34,0,0,0,1.38-1.32h0c.26-8.84,8-26.16,8.1-26.32a1.36,1.36,0,1,0-2.48-1.13Z" transform="translate(-5.01 -5.23)"/><path class="cls-3" d="M114.1,100.74c0,.17-8.09,17.9-8.35,27.45a1.72,1.72,0,0,0,.45,1.16,1.64,1.64,0,0,0,1.13.48,1.57,1.57,0,0,0,1.64-1.51v0c.23-8.36,7.26-24.39,8-26.19h0a1.64,1.64,0,0,0,0-1.23,1.52,1.52,0,0,0-.84-.9,1.45,1.45,0,0,0-1.22,0A1.55,1.55,0,0,0,114.1,100.74Zm1.9-.35a1,1,0,0,1,.58.64.89.89,0,0,1,0,.81h0c-.8,1.84-7.87,18-8.09,26.41a1.24,1.24,0,0,1-.32.78,1.26,1.26,0,0,1-.81.29,1.11,1.11,0,0,1-1.06-1.13c.25-9.48,8.22-27.09,8.28-27.25a1.07,1.07,0,0,1,.62-.58.93.93,0,0,1,.8,0Z" transform="translate(-5.01 -5.23)"/></g><g id="path475"><path class="cls-3" d="M123.45,99.33c-.19.77-5,19-4.25,27.54a1.35,1.35,0,0,0,2.7.12,1,1,0,0,0,0-.35c-.71-8.13,4.16-26.44,4.2-26.64a1.36,1.36,0,0,0-2.62-.67Z" transform="translate(-5.01 -5.23)"/><path class="cls-3" d="M123.2,99.26c-.2.77-5,19-4.26,27.64a1.61,1.61,0,0,0,1.74,1.45,1.58,1.58,0,0,0,1.45-1.7v0c-.71-8,4.13-26.35,4.19-26.54a1.61,1.61,0,0,0-1.15-2h0a1.6,1.6,0,0,0-2,1.16Zm1.87-.64a1.05,1.05,0,0,1,.78,1.28v0c0,.19-4.93,18.48-4.19,26.73a1.17,1.17,0,0,1-1,1.2,1.13,1.13,0,0,1-1-.94c-.78-8.61,4-26.7,4.25-27.48a1,1,0,0,1,.52-.67A.91.91,0,0,1,125.07,98.62Z" transform="translate(-5.01 -5.23)"/></g><g id="path477"><path class="cls-3" d="M133.64,97.58c-.22.87-5.54,21.39-2.67,28.67a1.32,1.32,0,0,0,1.69.8l.05,0a1.39,1.39,0,0,0,.77-1.78c-2.09-5.35,1.29-21.28,2.78-27a1.36,1.36,0,0,0-2.62-.68Z" transform="translate(-5.01 -5.23)"/><path class="cls-3" d="M133.39,97.52c-.23.87-5.55,21.45-2.68,28.83a1.55,1.55,0,0,0,.87.87,1.47,1.47,0,0,0,1.23,0,1.58,1.58,0,0,0,.91-2v0c-2.1-5.32,1.32-21.19,2.8-26.87a1.65,1.65,0,0,0-.16-1.19,1.49,1.49,0,0,0-1-.74,1.38,1.38,0,0,0-1.19,0A1.62,1.62,0,0,0,133.39,97.52Zm1.83-.68a1,1,0,0,1,.68,1.36c-1.51,5.7-4.93,21.7-2.77,27.15a1.11,1.11,0,0,1-.64,1.42h0a1,1,0,0,1-.84,0,1.15,1.15,0,0,1-.58-.61c-2.83-7.23,2.49-27.64,2.71-28.51a1,1,0,0,1,.49-.68,1.24,1.24,0,0,1,1-.13Z" transform="translate(-5.01 -5.23)"/></g><g id="path479"><path class="cls-3" d="M145.58,95.07c-.33,1.16-8,28.8-.62,41.57a1.36,1.36,0,0,0,1.84.48,1.39,1.39,0,0,0,.52-1.84c-6.84-11.8.8-39.21.87-39.47a1.37,1.37,0,0,0-.94-1.68,1.36,1.36,0,0,0-1.67.94Z" transform="translate(-5.01 -5.23)"/><path class="cls-3" d="M145.42,95c-.36,1.16-8.07,29-.62,41.74a1.63,1.63,0,0,0,2.2.61,1.6,1.6,0,0,0,.74-1,1.55,1.55,0,0,0,0-1.23c-6.68-11.51.61-38.12.9-39.25a1.61,1.61,0,0,0,0-1.22,1.64,1.64,0,0,0-2.19-.61A1.57,1.57,0,0,0,145.42,95Zm1.83-.61a.91.91,0,0,1,.65.52,1,1,0,0,1,0,.84c-.29,1.12-7.64,27.92-.84,39.63a1.11,1.11,0,0,1,0,.84,1,1,0,0,1-.52.68,1.06,1.06,0,0,1-1.46-.36l0,0c-7.38-12.71.29-40.22.65-41.38a1,1,0,0,1,.51-.64,1,1,0,0,1,1-.1Z" transform="translate(-5.01 -5.23)"/></g><g id="path481"><path class="cls-3" d="M159.8,92.46c-.36.8-8.35,20.44-4.77,32a1.38,1.38,0,0,0,1.7.9,1.36,1.36,0,0,0,.88-1.71h0c-3.23-10.58,4.61-30,4.67-30.15a1.32,1.32,0,0,0-.69-1.74h0a1.37,1.37,0,0,0-1.77.74Z" transform="translate(-5.01 -5.23)"/><path class="cls-3" d="M159.54,92.33c-.32.84-8.35,20.51-4.74,32.25a1.68,1.68,0,0,0,3.22-.94c-3.22-10,3.84-27.93,4.65-30h0a1.66,1.66,0,0,0-1.13-2.22A1.66,1.66,0,0,0,159.54,92.33Zm1.94-.39a1.1,1.1,0,0,1,.58.58,1,1,0,0,1,0,.84h0c-.84,2-7.84,20.09-4.68,30.28a1.11,1.11,0,0,1-2.13.65c-3.55-11.48,4.42-31,4.77-31.83a1.13,1.13,0,0,1,1.51-.52h-.05Z" transform="translate(-5.01 -5.23)"/></g><g id="path639"><path class="cls-2" d="M120.42,48.18s-9.29-1.58-11.83,2l8.86,15.58a11.49,11.49,0,0,1,.2,8.68c-1.78,4.93-4.74,4.54-4.74,4.54l-7.48,1L96,78.52,84,74.59s-11.06-1.58-11.84,0l-4.35,3.22.61,3.55,2.55,2.55,4.55.81,3.74-2.16a16.13,16.13,0,0,1-7.49,8.25l-5.93-.39-4.71-2.74a19,19,0,0,1-4-10.86,14,14,0,0,1,3.22-10.45s4.35-5.13,6.45-4.91c0,0,1.77-1.8,9.84-1.19s16,1.39,16,1.39l6.9-.81L93.2,45.69s5.13-9.48,8.87-11.06,5.13-6.71,18.71-.38Z" transform="translate(-5.01 -5.23)"/><path class="cls-3" d="M120.45,47.92c-.38,0-9.45-1.55-12.06,2.1h0l8.87,15.57a11.14,11.14,0,0,1,.19,8.45c-1.67,4.68-4.35,4.39-4.48,4.39h0l-7.48,1h0L96,78h0l-11.9-3.68h0c-1.87-.25-11.25-1.51-12.09,0h0l-4.36,3.23h0l.58,3.55h0l2.55,2.54h0l4.55.81h0l3.74-2.16L78.75,82a16.1,16.1,0,0,1-7.38,8.16h0l-5.93-.39h0L60.7,87h0a18.5,18.5,0,0,1-3.87-10.68,13.94,13.94,0,0,1,3.22-10.25c1.19-1.42,4.61-5,6.1-4.84h0s1.83-1.68,9.67-1.1,15.9,1.39,16,1.39h0l6.91-.81H99V60.4L92.56,45.24v.23s5.13-9.42,8.74-10.93a14.37,14.37,0,0,0,2.19-1.33c2.68-1.9,5.68-4,16.35.91l-.16-.23-.19,14Zm.26-14c-10.93-5.07-14.06-2.84-16.83-.88a12.43,12.43,0,0,1-2.1,1.26C98,35.92,93,45.11,92.78,45.5h0l6.29,15.16.23-.36-6.9.81h0s-8-.81-16.13-1.39-10,1.2-10,1.26h.2c-2.07-.23-6.07,4.48-6.45,5a14.31,14.31,0,0,0-3.23,10.64,19.11,19.11,0,0,0,4,11h0l4.74,2.77h0l5.93.39h0a16.52,16.52,0,0,0,7.62-8.42l.19-.61-.55.32-3.77,2.16h.19l-4.55-.77h0L68,80.88h0l-.58-3.55v.23l4.32-3.23h0c.48-1,7-.48,11.54,0h0l12,3.94h0l9.45,1.38h0l7.48-1h0s3.23.36,5-4.71a11.36,11.36,0,0,0-.22-8.86L108.17,49.5v.26c2.45-3.23,11.48-1.87,11.57-1.84H120v-.29l.2-14h0Z" transform="translate(-5.01 -5.23)"/></g><g id="path641"><path class="cls-3" d="M121.1,46.11A19.88,19.88,0,0,0,98,59.66l2.55.9a16.92,16.92,0,0,1,19.89-11.8Z" transform="translate(-5.01 -5.23)"/><path class="cls-3" d="M121.13,45.89h0A20,20,0,0,0,97.78,59.56v.26H98l2.55.9h.22v-.26a16.71,16.71,0,0,1,19.61-11.64h.23V48.6l.64-2.65v-.26Zm-.61,2.61a17.23,17.23,0,0,0-20.19,12h.32l-2.55-.9v.32A19.36,19.36,0,0,1,120.87,46.5l-.19-.32-.61,2.64Z" transform="translate(-5.01 -5.23)"/></g><g id="path643"><path class="cls-3" d="M117.52,64.46l-.68-2.29h0L109.3,49.05l-2.36,1.35L115.58,65l.2-1.64a8.42,8.42,0,0,1-7.13,3.22c-4.71-.68-8-6.77-8-6.84L94.17,45.44v.87c3.81-7.94,8.45-12.65,13.84-14a15.89,15.89,0,0,1,12.12,2.39l-.55-1.07V47.47h2.71V33l-.55-.42a18.39,18.39,0,0,0-14.35-2.87c-6.25,1.54-11.51,6.77-15.67,15.48l-.26.58.26.54,6.45,14.42c.22.39,4,7.45,10.09,8.32a11,11,0,0,0,9.48-4l.71-.74-.51-.9-8.68-14.58-2.32,1.35,7.55,13.13V63l.67,2.26Z" transform="translate(-5.01 -5.23)"/><path class="cls-3" d="M117.78,64.4l-.68-2.29V62h0l-7.55-13.13V48.6h-.22L107,50h-.22v.23l8.67,14.61.36.64v-.74L116,63V62.3l-.55.55a8.19,8.19,0,0,1-6.9,3.23c-4.58-.65-7.8-6.62-7.84-6.68l-.45.23v.22h.23c.22,0,0-.32,0-.51l-.23-.46-.71-1.61L97.3,52.34l-3.23-7.16h-.48v1.13h.48c3.78-7.9,8.36-12.55,13.68-13.87a15.56,15.56,0,0,1,11.9,2.32l.35-.29-.38-1.06h-.46V47.5h3.23V32.76h0l-.55-.39a18.61,18.61,0,0,0-14.54-2.93C100.85,31,95.65,36.28,91.46,45.05l-.26.58h0l.26.55,6.45,14.41c0,.33,4,7.55,10.29,8.45A11.09,11.09,0,0,0,117.87,65l.71-.74h0l-.51-.91-8.65-14.6V48.5h-.22l-2.32,1.39h-.23v.19l7.55,13.16.45-.23v-.29l-.45.16.67,2.29v.26h.26l2.58-.77H118Zm-2.62.77-.67-2.29-.49.2v.25l.46-.22L106.91,50v.33L109.23,49h-.32l8.64,14.61.52.9v-.32l-.74.74a10.68,10.68,0,0,1-9.23,3.94C102,68,98.43,61,98.17,60.63s-6.45-14.39-6.45-14.39l-.23-.58v.23l.29-.58C95.91,36.66,101.1,31.5,107.26,30a18.14,18.14,0,0,1,14.13,2.8l.55.42V47.53l.26-.26h-2.71l.25.26V33.7h-.48l.55,1.09.35-.32A16.12,16.12,0,0,0,107.84,32c-5.45,1.39-10.15,6.13-14,14.16h.48V45.05h-.48l6.45,14.32v-.32h.32l-.45.19s3.38,6.45,8.25,7A8.61,8.61,0,0,0,115.75,63l-.42-.23-.2,1.65h.45l-8.64-14.61v.35l2.36-1.38h-.36l7.58,13.16h0l.68,2.29.16-.33-2.58.78Z" transform="translate(-5.01 -5.23)"/></g><g id="path645"><path class="cls-3" d="M116.39,65h0s1.55,6.77-2.45,10.41-11.71,3.23-22.87-.58c-17.41-6-22.57-1.54-23.92.65a5.91,5.91,0,0,0,1,7.35,8.77,8.77,0,0,0,11.19.71l-1.68-1.71s-2.64,6.45-8.13,6.45a9.79,9.79,0,0,1-7.51-2.87,13.85,13.85,0,0,1-3.23-9.09,2.81,2.81,0,0,0,0-.58,15.26,15.26,0,0,1,4-11.26A18.43,18.43,0,0,1,77,60.75c6.45.39,11,.91,14.29,1.29,4.93.59,6.77.78,8-.32A4.8,4.8,0,0,0,100.43,58H97.72a4.42,4.42,0,0,1-.2,1.77h0a19.35,19.35,0,0,1-5.93-.29c-3.22-.38-7.87-.93-14.45-1.32A20.84,20.84,0,0,0,61,62.53a17.65,17.65,0,0,0-4.87,13.22v.45a16.37,16.37,0,0,0,3.9,11.1A12.52,12.52,0,0,0,69.53,91c7.35,0,10.51-7.8,10.64-8.12l1.46-3.68-3.42,2a6.16,6.16,0,0,1-7.87-.23,3.22,3.22,0,0,1-.68-4c1.71-2.64,8-3.9,20.8.49s20.9,4.22,25.54,0c5.2-4.75,3.23-12.71,3.23-12.9Z" transform="translate(-5.01 -5.23)"/><path class="cls-3" d="M116.39,65h0c0,.29,1.45,6.71-2.39,10.19s-11.57,3.23-22.57-.61c-17.58-6.07-22.8-1.49-24.22.74A6.15,6.15,0,0,0,68.27,83a9,9,0,0,0,11.48.71h.33l-.29-.22-2.1-1.68-.29-.22v.32s-2.58,6.25-7.87,6.25a9.65,9.65,0,0,1-7.35-2.74A13.62,13.62,0,0,1,59,76.46a2.81,2.81,0,0,0,0-.58,15,15,0,0,1,3.94-11.06,18.18,18.18,0,0,1,14-3.65c6.45.39,11,.94,14.26,1.33,5,.58,6.87.77,8.25-.42a5,5,0,0,0,1.2-3.94v-.26H97.3v.26a5.1,5.1,0,0,1-.16,1.61l-.33.42h.65l-.32-.38a23.49,23.49,0,0,1-5.68-.33h0c-3.22-.38-7.8-.9-14.45-1.32a21.2,21.2,0,0,0-16.35,4.49A18,18,0,0,0,55.7,76v.45a16.88,16.88,0,0,0,4,11.29,12.85,12.85,0,0,0,9.67,3.77c7.48,0,10.74-8,10.87-8.32l1.42-3.67.29-.68-.65.39-3.22,2a5.94,5.94,0,0,1-7.55-.2,2.94,2.94,0,0,1-.64-3.71c1.61-2.58,7.87-3.77,20.44.55s21.09,4.26,25.8,0c5.32-4.84,3.42-12.9,3.23-13.32v-.22h-.26l-2.61.61h-.1Zm2.61-.61c0,.32,1.94,8.16-3.22,12.9-4.58,4.16-13.1,4.16-25.32,0C77.56,72.85,71.11,74,69.4,76.91a3.41,3.41,0,0,0,.71,4.32,6.44,6.44,0,0,0,8.16.29l3.42-2-.39-.32-1.42,3.68c0,.32-3.22,8-10.41,8a12.2,12.2,0,0,1-9.29-3.58,16.34,16.34,0,0,1-3.87-10.93,1.7,1.7,0,0,0,0-.45A17.45,17.45,0,0,1,61.08,63a20.72,20.72,0,0,1,16-4.39c6.61.42,11.12.94,14.44,1.33h0a16.11,16.11,0,0,0,6,.25l-.35-.38h.19l.2.42s.22-.29.25-1.91l-.25.23h2.71l-.26-.26a4.48,4.48,0,0,1-1,3.55c-1.2,1.06-3,.84-7.84.29-3.23-.39-7.81-.9-14.32-1.32A18.66,18.66,0,0,0,62.5,64.56,15.46,15.46,0,0,0,58.41,76v.58a13.83,13.83,0,0,0,3.22,9.28,10.08,10.08,0,0,0,7.71,2.94c5.67,0,8.32-6.45,8.35-6.45h-.42l2,1.64v-.38a8.58,8.58,0,0,1-10.9-.68,5.65,5.65,0,0,1-1-7c1.36-2.13,6.45-6.45,23.64-.55,11.22,3.87,19.35,4,23.09.52s2.61-10.35,2.55-10.64l-.2.29,2.65-.65Z" transform="translate(-5.01 -5.23)"/></g></g><circle id="INSIDE" class="cls-4" cx="116.69" cy="116.69" r="114.69"/></svg>