<svg xmlns="http://www.w3.org/2000/svg" id="Layer_1" data-name="Layer 1" viewBox="0 0 233 233"><defs><style>.cls-2{fill:#eeb211}.cls-3{fill:#7b2c18}</style></defs><circle cx="116.7" cy="116.7" r="114.7" fill="#00529f"/><g id="Boat"><g id="path117"><path d="m124 58 37 22 4-1-41-24Z" class="cls-2"/><path d="m124 58 37 22 4-1h1l-1-1-41-23v-1 4Zm0-3 41 24v-1l-4 1-37-21 1-3Z" class="cls-2"/></g><g id="path119"><path d="m78 96 37-23v4L86 94Z" class="cls-2"/><path d="m78 96 38-23h-1l-1 4-29 17-7 2Zm8-1 29-18v-5 1L77 96l1 1 7-2Z" class="cls-2"/></g><g id="path121"><path d="m105 168-15 15h3l13-12Z" class="cls-2"/><path d="m105 168-16 15h4l14-12-1-2v-1Zm1 3-13 12h-3l16-14h-1l1 2Z" class="cls-2"/></g><g id="path123"><path d="m133 172 9 4 4-1-13-6Z" class="cls-2"/><path d="m133 172 9 4h5l-1-1-12-6h-1v3Zm0-2 13 6v-1l-4 1-9-4 1-3Z" class="cls-2"/></g><path d="m115 232 10-1-2-206h-7l-2 207a3 3 0 0 1 1 0Z" class="cls-2"/><path d="m115 232 1-207h7l1 206h1l-2-206v-1h-7v1l-2 207Z" class="cls-3"/><g id="path255"><path d="M115 232h1l1-206h5l1 205h3l-2-208h-9l-2 209a7 7 0 0 1 2 0Z" class="cls-3"/><path d="M115 232h1l2-206h3l2 205h1l-2-205h2-1l-2-2v2h-3v-2l-2 2h-1 2ZM122 25zm-5 0z" class="cls-3"/><path d="m113 232 2-209h9l2 208-1-208h-10l-2 209Z" class="cls-3"/></g><g id="path267"><path d="M119 14c5 0 8 2 8 6s-3 5-7 5-8 0-8-5 3-6 7-6Z" class="cls-2"/><path d="M119 14c3 0 8 1 8 6s-3 5-7 5-8 0-8-5 5-6 7-6Zm-8 6c0 5 4 6 9 6s8-1 8-6c0-4-3-6-8-6s-9 2-9 6Z" class="cls-3"/></g><path d="M119 15a7 7 0 0 1 5 2 5 5 0 0 1 2 3c0 4-2 4-6 4a9 9 0 0 1-6-1 3 3 0 0 1-1-3 5 5 0 0 1 1-3 7 7 0 0 1 5-2Zm-9 5a6 6 0 0 0 2 5 11 11 0 0 0 8 2 10 10 0 0 0 7-2 6 6 0 0 0 1-5 8 8 0 0 0-2-5 10 10 0 0 0-7-3c-5 0-9 4-9 8Z" class="cls-3"/><g id="path283"><path d="M187 82a3.041 3.041 0 0 0 1-6 3 3 0 0 0-2 0L67 98a3 3 0 0 0-2 4 3 3 0 0 0 3 2l119-22Z" class="cls-2"/><path d="M187 82a4 4 0 0 0 3-4 3 3 0 0 0-1-2 4 4 0 0 0-3 0L67 98a4 4 0 0 0-2 1 3 3 0 0 0-1 3 3 3 0 0 0 5 2l118-22h-1Zm0 0L69 104a3 3 0 0 1-4-2 3 3 0 0 1 0-2 3 3 0 0 1 3-1v-1l118-22a3 3 0 0 1 2 1 3 3 0 0 1 1 1 3 3 0 0 1-2 4l1-1Z" class="cls-3"/></g><g id="path285"><path d="M187 83a4.528 4.528 0 1 0-1-9l-1 1 2 1v-2h-2L67 97l-5 1 5 1v-2a4.528 4.528 0 1 0 1 9 2 2 0 0 0 1 0l-1-3 1 3 118-23-1-2-2 3Zm0-2L68 103l1 3-1-3a2 2 0 0 1-2-1 2 2 0 0 1 1-2 2 2 0 0 1 1 0l5-1-5-2v3l118-23-2-1v2a13 13 0 0 0 2-1 2.062 2.062 0 1 1 1 4l1 2 2-3Z" class="cls-3"/><path d="M187 83a5 5 0 0 0-2-9v1l2 1v-2h-1L67 97l-5 1h-1 1l5 2v-1l1-2v-1h-1a5.099 5.099 0 0 0 2 10v-3h-1l1 2v1l118-23h1-1l-1-2-2 3 2-1Zm-3 1 2-3 1 2-118 22v1-3h-1l1 3v-1a4.123 4.123 0 0 1-2-8v2l-5-1 5-1 119-22 1-1v2l-1-2v1a4.123 4.123 0 1 1 2 8 3 3 0 0 1-1 0l-3 1Z" class="cls-3"/><path d="M187 80 68 103v2h1v-2h-1a2 2 0 0 1-1-1 1 1 0 0 1-1-1 2 2 0 0 1 2-1l5-1h1l-1-1-5-1-1 3h1l118-22h1l-1-1-1-1h-1v2h2a2 2 0 0 1 1 0 1 1 0 0 1 1 1 2 2 0 0 1-1 2h-1l2 2 2-3h-2Zm3 0-2 3-1-3v1a2 2 0 0 0 2-3 2 2 0 0 0-1-1 3 3 0 0 0-2 0h-1v-1h-1l2 1L68 99v1-3l5 2v-1l-5 1a2 2 0 0 0-2 3 2 2 0 0 0 1 1 2 2 0 0 0 1 0v3h1v-3h-1l119-22 3-1Z" class="cls-3"/></g><g id="path291"><path d="M197 175a3.041 3.041 0 1 0 1-6 3 3 0 0 0-2 0L63 188a4 4 0 0 0-3 4 3 3 0 0 0 4 2l133-19Z" class="cls-2"/><path d="M197 175a4 4 0 0 0 3-1 3 3 0 0 0 1-3 4 4 0 0 0-5-2h1-1L63 188h-1 1a4 4 0 0 0-3 1 3 3 0 0 0 1 5 4 4 0 0 0 3 1v-1l133-19Zm0 0L64 194v1-1a4 4 0 0 1-2-1 2 2 0 0 1-1-1 2 2 0 0 1 0-2 4 4 0 0 1 3-2h1-1v1l133-20h-1 1a3 3 0 0 1 4 3 2 2 0 0 1-1 2 4 4 0 0 1-3 1h1Z" class="cls-3"/></g><g id="path293"><path d="M198 176a5 5 0 0 0 3-2 4 4 0 0 0 1-3 5 5 0 0 0-6-4l2 2v-2h-2L63 187v3-3a6 6 0 0 0-3 2 4 4 0 0 0-1 3 4 4 0 0 0 2 3 5 5 0 0 0 4 1l-1-3v3l133-19-1-2-2 2Zm-1-2L64 193v3-3a3 3 0 0 1-2 0 1 1 0 0 1 0-2 3 3 0 0 1 2-1v-3 3l133-20-2-1v2l2-1 2 2a1 1 0 0 1 0 1 3 3 0 0 1-2 1l2 2 1-3Z" class="cls-3"/><path d="M198 177a6 6 0 0 0 3-2 5 5 0 0 0 1-4 5 5 0 0 0-6-4v1l2 1v1-3h-2L63 187v3l1-3h-1a6 6 0 0 0-4 2 4 4 0 0 0 1 6 6 6 0 0 0 5 1v-3h-1v3l133-19h1l-1-1-1-2-2 3h2Zm-3 0 1-2 1 2 1-1-133 20v-3h-1l1 3a5 5 0 0 1-4-1 4 4 0 0 1-1-6 5 5 0 0 1 4-2h-1v3h1v-3l132-19h2v-1 2l-1-1a5 5 0 0 1 5 4 4 4 0 0 1-1 2 5 5 0 0 1-3 3h-3Z" class="cls-3"/><path d="M197 174 64 193v3h1v-3h-1a3 3 0 0 1-2-1 1 1 0 0 1 0-1 2 2 0 0 1 2-1v-3l-1 3h1l133-19v-1l-2-1v-1 3h2c1-1 2 0 2 1a1 1 0 0 1 0 1 2 2 0 0 1-2 1l1 2h1l1-3h1-2Zm3-1-2 3h1l-2-2a3 3 0 0 0 2-1 2 2 0 0 0 1-1 2 2 0 0 0-3-2h-2v-1l1 1-133 19 1 1v-3h-1v3-1a3 3 0 0 0-2 1 2 2 0 0 0 0 2 2 2 0 0 0 1 1 3 3 0 0 0 2 0v3-3l133-19h3l-1-1Z" class="cls-3"/></g><g id="path303"><path d="M120 179c-15 0-14-16-14-16h27s2 16-13 16Z" class="cls-2"/><path d="M120 179a12 12 0 0 1-10-4 18 18 0 0 1-3-12h27-1a18 18 0 0 1-3 12 13 13 0 0 1-10 4Zm13-16h-27a18 18 0 0 0 4 13 15 15 0 0 0 20 0 19 19 0 0 0 4-13Z" class="cls-3"/></g><g id="path305"><path d="M120 178a12 12 0 0 1-9-3 17 17 0 0 1-3-12l-2 1h27l-1-1a17 17 0 0 1-3 12 12 12 0 0 1-9 3Zm13-16h-28v1a19 19 0 0 0 4 13 16 16 0 0 0 22 0 19 19 0 0 0 4-13v-1Z" class="cls-3"/><path d="M120 178a11 11 0 0 1-9-3 16 16 0 0 1-3-12l-2 1v1h28v-1l-2-1a16 16 0 0 1-4 12 11 11 0 0 1-8 3Zm9-3a17 17 0 0 0 3-12l1 2v-1h-27l1 1 1-2a17 17 0 0 0 3 12 14 14 0 0 0 18 0Z" class="cls-3"/><path d="M133 161h-28v2a19 19 0 0 0 4 14 16 16 0 0 0 22 0 19 19 0 0 0 4-14v-2h-2Zm1 1v1a19 19 0 0 1-3 13 16 16 0 0 1-22 0 19 19 0 0 1-4-13v-1h29Z" class="cls-3"/></g><path d="m79 102 101-19s-47 43 16 86l-15 2s-25-28-56-28c0 0-46 0-37 42l-6 1s-42-43-3-84Z" class="cls-2"/><path d="m79 103 101-19v-1a62 62 0 0 0-9 12 49 49 0 0 0-8 29c1 16 12 32 33 45l-15 2a106 106 0 0 0-16-14c-10-7-24-15-40-15a58 58 0 0 0-12 2 38 38 0 0 0-20 12c-6 8-8 17-5 29h-6s-42-42-3-82Zm3 83 6-1h1c-3-12-2-21 4-28 11-14 32-14 33-14 29 0 55 28 55 28l15-2c-20-14-31-29-33-46-1-22 16-39 17-39v-1L79 102a58 58 0 0 0-16 31 54 54 0 0 0 2 26 79 79 0 0 0 16 27Z" class="cls-3"/><g id="path313"><path d="m79 104 101-19-1-3c-1 1-19 18-17 41 1 17 12 33 33 47v-2l-14 2h1c-1-1-26-29-57-29-1 0-23 1-34 15-5 7-7 17-4 29l1-2-7 1 2 1c-2-2-41-42-3-82Zm3 83 6-1h2l-1-2c-2-11-1-20 5-27 10-13 31-13 31-13 29 0 54 28 55 28v1h1l15-3h3l-3-2c-20-14-30-29-32-45-1-22 16-38 17-39l3-3-5 1-100 19h-1c-40 42 2 85 3 85v1Z" class="cls-3"/><path d="m79 104 101-19-1-3c-1 1-19 18-17 42 1 17 12 32 33 46v1-1l1-2v-1l-15 2h-1l1 1h1c-1-1-26-29-57-29-1 0-22 0-33 14-6 8-8 18-5 30l1-2-7 1 2 1v-1c-2-1-41-41-3-81h-1Zm1-1c-38 40 1 80 3 82v-1h-1 6v-1l-1 2c-3-12-1-22 5-29 11-14 32-15 33-15 31 0 56 28 57 29h-1l15-2h-1v2c-20-14-31-30-33-46-2-24 16-41 17-41l1 2-101 18v1l1-1Z" class="cls-3"/><path d="m82 187 6-1h2v-2c-3-11-1-20 4-27 10-12 31-13 31-13 29 0 55 28 55 28v1h1l15-2 3-1h1-1l-2-2c-20-14-31-29-32-45-2-21 15-38 16-38l3-4h1-1l-5 1-100 19h-1a59 59 0 0 0-17 31 55 55 0 0 0 3 27 81 81 0 0 0 17 28Zm-1 0v-1s-42-43-3-85h1l100-19 5-1-4 3c0 1-17 17-16 39 2 16 12 32 33 45l2 2h-3l-15 2h-1c0-1-25-28-55-28a57 57 0 0 0-12 1 36 36 0 0 0-19 12c-6 7-7 16-5 27l1 2v-1l-2 1h-7Z" class="cls-3"/></g><g id="path469"><path d="M89 99c-1 1-10 12-10 20a1 1 0 0 0 2 0c0-7 10-18 10-18a1 1 0 0 0 0-2 1 1 0 0 0-2 0Z" class="cls-3"/><path d="M89 99c-1 2-10 12-11 20a2 2 0 0 0 2 1 2 2 0 0 0 2-1c0-7 9-17 9-18a2 2 0 0 0 0-2 2 2 0 0 0-2 0Zm2 1a1 1 0 0 1 0 1s-10 11-10 18a1 1 0 0 1-1 1 1 1 0 0 1-1 0 1 1 0 0 1 0-1c0-8 10-19 10-19a1 1 0 0 1 2 0Z" class="cls-3"/></g><g id="path471"><path d="M100 98s-10 13-11 22a1.581 1.581 0 1 0 3 1c1-8 10-22 10-22a1 1 0 0 0 0-2 1.118 1.118 0 0 0-2 1Z" class="cls-3"/><path d="M100 97c0 1-10 14-11 23a2 2 0 0 0 0 1 1 1 0 0 0 1 1 2 2 0 0 0 2-2c1-8 11-21 11-21a2 2 0 0 0-1-2 2 2 0 0 0-2 0Zm2 0a1 1 0 0 1 0 2s-9 13-10 21a1 1 0 0 1-1 1 1 1 0 0 1-1 0 1 1 0 0 1-1-1c2-9 11-22 12-22a1 1 0 0 1 1-1Z" class="cls-3"/></g><g id="path473"><path d="M109 96c0 1-8 18-8 27a1.118 1.118 0 0 0 1 2 1.414 1.414 0 0 0 2-2c0-9 8-26 8-26a1.581 1.581 0 1 0-3-1Z" class="cls-3"/><path d="M109 96s-8 18-8 27a2 2 0 0 0 0 1 2 2 0 0 0 1 1 2 2 0 0 0 2-2c0-8 7-24 8-26a2 2 0 0 0 0-1 2 2 0 0 0-1-1 1 1 0 0 0-1 0 2 2 0 0 0-1 1Zm2-1a1 1 0 0 1 1 1 1 1 0 0 1 0 1c-1 2-8 18-9 26a1 1 0 0 1 0 1 1 1 0 0 1-1 0 1 1 0 0 1-1-1c1-9 9-27 9-27a1 1 0 0 1 0-1 1 1 0 0 1 1 0Z" class="cls-3"/></g><g id="path475"><path d="M118 94c0 1-5 19-4 28a1.5 1.5 0 0 0 3 0c-1-8 4-27 4-27a1.581 1.581 0 0 0-3-1Z" class="cls-3"/><path d="M118 94c0 1-5 19-4 28a2 2 0 0 0 2 1 2 2 0 0 0 1-1c-1-8 4-27 4-27a2 2 0 0 0-1-2 2 2 0 0 0-2 1Zm2 0a1 1 0 0 1 1 1s-5 18-4 27a1 1 0 0 1-1 1 1 1 0 0 1-1-1c-1-9 4-27 4-28a1 1 0 0 1 1 0Z" class="cls-3"/></g><g id="path477"><path d="M129 93c-1 0-6 21-3 28a1.118 1.118 0 0 0 2 1 1 1 0 0 0 0-2c-2-5 2-21 3-27a1 1 0 0 0-2 0Z" class="cls-3"/><path d="M128 93s-5 21-2 28a2 2 0 0 0 1 1 1 1 0 0 0 1 0 2 2 0 0 0 1-2c-2-5 1-21 3-27a2 2 0 0 0-1-1 1 1 0 0 0-1-1 1 1 0 0 0-1 0 2 2 0 0 0-1 2Zm2-1a1 1 0 0 1 1 1c-2 6-5 22-3 27a1.118 1.118 0 0 1-1 2 1 1 0 0 1-1-1c-3-7 3-27 3-28a1 1 0 0 1 0-1 1 1 0 0 1 1 0Z" class="cls-3"/></g><g id="path479"><path d="M141 90c-1 1-8 29-1 42a1 1 0 0 0 2 0 1 1 0 0 0 0-2c-7-12 1-39 1-39a1.118 1.118 0 0 0-1-2 1 1 0 0 0-1 1Z" class="cls-3"/><path d="M140 90c0 1-8 29 0 42a2 2 0 0 0 2 0 2 2 0 0 0 1-1 2 2 0 0 0 0-1c-7-11 0-38 1-39a2 2 0 0 0 0-1 2 2 0 0 0-3-1 2 2 0 0 0-1 1Zm2-1a1 1 0 0 1 1 1 1 1 0 0 1 0 1c0 1-8 28-1 39a1 1 0 0 1 0 1 1 1 0 0 1 0 1 1 1 0 0 1-2 0c-7-13 0-41 1-42a1 1 0 0 1 1-1Z" class="cls-3"/></g><g id="path481"><path d="M155 87c-1 1-9 21-5 32a1.118 1.118 0 0 0 2 1 1 1 0 0 0 1-1c-4-11 4-30 4-30a1 1 0 0 0 0-2 1.118 1.118 0 0 0-2 1Z" class="cls-3"/><path d="M155 87c-1 1-9 21-5 33a2 2 0 0 0 3-1c-3-10 4-28 5-30a2 2 0 0 0-1-3 2 2 0 0 0-2 1Zm1 0a1 1 0 0 1 1 1c-1 2-8 20-5 31a1 1 0 0 1-2 0c-3-11 5-31 5-32a1 1 0 0 1 2 0h-1Z" class="cls-3"/></g><g id="path639"><path d="M115 43s-9-1-11 2l8 16a11 11 0 0 1 1 8c-2 5-5 5-5 5l-8 1-9-1-12-4s-11-2-12 0l-4 3v3l3 3 5 1 3-2a16 16 0 0 1-7 8l-6-1-5-2a19 19 0 0 1-4-11 14 14 0 0 1 3-11s5-5 7-5l10-1 16 2 7-1-7-15s5-10 9-11 5-7 19-1Z" class="cls-2"/><path d="M115 43s-9-2-12 2l9 16a11 11 0 0 1 0 8c-1 5-4 4-4 4l-8 1-9-1-12-4H67l-4 4v3l3 3h4l4-2a16 16 0 0 1-8 8h-6l-4-3a19 19 0 0 1-4-11 14 14 0 0 1 3-10l6-5 10-1 16 2 7-1v-1l-6-15s5-9 8-10a14 14 0 0 0 2-2c3-2 6-4 17 1l-1 14Zm1-14c-11-5-14-3-17-1a12 12 0 0 1-2 1c-4 2-9 11-9 11l6 16v-1l-7 1-16-1-10 1c-2 0-6 4-6 5a14 14 0 0 0-3 11 19 19 0 0 0 4 11l5 2 5 1a17 17 0 0 0 8-9l-4 2-4-1-3-2-1-4v1l5-4h11l12 4 10 2 7-1s3 0 5-5a11 11 0 0 0 0-9l-9-16v1c3-3 12-2 12-2V29Z" class="cls-3"/></g><g id="path641"><path d="M116 41a20 20 0 0 0-23 14l3 1a17 17 0 0 1 19-12Z" class="cls-3"/><path d="M116 41a20 20 0 0 0-23 14l3 1v-1a17 17 0 0 1 19-11h1v-3Zm0 3a17 17 0 0 0-21 12h1l-3-1a19 19 0 0 1 23-13v-1l-1 3Z" class="cls-3"/></g><g id="path643"><path d="m113 59-1-2-8-13-2 1 9 15v-2a8 8 0 0 1-7 4c-5-1-8-7-8-7l-7-15v1c4-8 9-12 14-14a16 16 0 0 1 12 3v-1 13h2V28a18 18 0 0 0-15-3c-6 1-11 6-15 15l-1 1h1l6 15s4 7 10 8a11 11 0 0 0 10-4v-2l-9-14-2 1 7 13 1 2Z" class="cls-3"/><path d="m113 59-1-2-7-13h-1l-2 1 8 15h1v-3l-1 1a8 8 0 0 1-6 3c-5-1-8-7-8-7l-1 1v-3l-3-5-3-7v1c4-8 8-12 14-14a16 16 0 0 1 12 3v-2h-1v15h3V27a19 19 0 0 0-15-3c-6 2-11 7-16 16v1l7 15s4 7 10 8a11 11 0 0 0 10-4l1-1-1-1-9-14v-1l-2 2 7 13h1-1l1 2h3Zm-3 1-1-2-7-13 2-1 9 15v1-1l-1 1a11 11 0 0 1-9 4c-6-1-10-8-10-8l-6-15h-1l1-1c4-8 9-13 15-15a18 18 0 0 1 14 3h1v15-1h-3l1 1V29h-1l1 1v-1a16 16 0 0 0-12-2c-6 1-10 6-14 14v-1l6 14h1-1s4 7 8 7a9 9 0 0 0 8-3h-1v1h1l-9-14 2-1 8 13v2l-2 1Z" class="cls-3"/></g><g id="path645"><path d="M111 60s2 7-2 10-12 4-23 0c-17-6-23-2-24 0a6 6 0 0 0 1 8 9 9 0 0 0 11 1l-1-2s-3 6-8 6a10 10 0 0 1-8-3 14 14 0 0 1-3-9 15 15 0 0 1 4-12 18 18 0 0 1 14-3l14 1h8a5 5 0 0 0 1-4h-2a4 4 0 0 1 0 2 19 19 0 0 1-6-1l-15-1a21 21 0 0 0-16 5 18 18 0 0 0-5 13 16 16 0 0 0 4 11 13 13 0 0 0 10 4c7 0 10-8 10-8l2-4-4 2a6 6 0 0 1-8 0 3 3 0 0 1 0-4c1-3 8-4 20 0s21 5 26 0c5-4 3-12 3-12Z" class="cls-3"/><path d="M111 60s2 7-2 10-12 3-23 0c-17-6-22-2-24 0a6 6 0 0 0 1 8 9 9 0 0 0 12 1v-1l-2-1h-1s-2 6-7 6a10 10 0 0 1-8-3 14 14 0 0 1-3-9 15 15 0 0 1 4-11 18 18 0 0 1 14-4l14 1h8a5 5 0 0 0 2-4h-4a5 5 0 0 1 0 2 23 23 0 0 1-6-1l-14-1a21 21 0 0 0-16 5 18 18 0 0 0-5 13 17 17 0 0 0 4 12 13 13 0 0 0 9 4c8 0 11-8 11-9l2-3v-1h-1l-3 2a6 6 0 0 1-7 0 3 3 0 0 1-1-4c2-2 8-3 20 1s21 4 26 0c5-5 4-13 3-13v-1l-3 1Zm3-1c0 1 2 9-3 13s-13 4-26 0c-12-4-19-3-21 0a3 3 0 0 0 1 4 6 6 0 0 0 8 1l4-2-1-1-1 4s-3 8-11 8a12 12 0 0 1-9-4 16 16 0 0 1-4-11 17 17 0 0 1 5-13 21 21 0 0 1 16-4l15 1a16 16 0 0 0 6 0h-1 1v-2 1h2v-1a4 4 0 0 1-1 4h-8l-14-1a19 19 0 0 0-15 4 15 15 0 0 0-4 11v1a14 14 0 0 0 4 9 10 10 0 0 0 7 3c6 0 9-7 9-7h-1l2 2a9 9 0 0 1-11-1 6 6 0 0 1-1-7c2-2 7-7 24-1 11 4 19 4 23 1s3-10 3-11l-1 1 3-1Z" class="cls-3"/></g></g><circle id="INSIDE" cx="116.7" cy="116.7" r="114.7" fill="none" stroke="#eeb210" stroke-miterlimit="10" stroke-width="4"/></svg>