<svg xmlns="http://www.w3.org/2000/svg" id="Layer_1" width="524.267" height="471.72" data-name="Layer 1" version="1.1"><defs id="defs923"><clipPath id="clippath"><path id="path920" d="M499.23 297.34c24.77-20.66 24.6-24.5 24.29-28.35-8.78-108.62-105.06-189.65-215.05-180.98-31.51 2.48-78.8 15.92-129.09 47.71z" style="fill:none;stroke-width:0"/></clipPath><style id="style918">.cls-3{fill:none;stroke-miterlimit:10}.cls-6,.cls-7,.cls-8{stroke-width:0}.cls-3{stroke:#3b0000;stroke-width:25.09px}.cls-6{fill:#3b0000}.cls-7{fill:#e6a35a}.cls-8{fill:red}</style></defs><g id="g1223" transform="translate(-37.87 -59.46)"><g id="g1159"><g id="g931"><path id="path927" d="M315.97 518.64c-55.97 0-109.56-20.93-150.92-58.94-41.58-38.21-66.95-90.28-71.45-146.61-4.75-59.46 13.95-117.2 52.63-162.6 38.69-45.4 92.74-73.01 152.19-77.76 5.98-.48 12.03-.72 18-.72 55.97 0 109.56 20.93 150.91 58.94 41.58 38.21 66.95 90.28 71.45 146.61 4.75 59.46-13.95 117.2-52.63 162.6-38.68 45.4-92.74 73.01-152.19 77.76-5.98.48-12.03.72-18 .72z" class="cls-8" style="fill:red;stroke-width:0"/><path id="path929" d="M316.44 84.56c108.8 0 201.05 83.67 209.86 194 9.26 116.03-77.29 217.59-193.32 226.85-5.7.45-11.38.68-17 .68-108.8 0-201.05-83.67-209.86-194C96.86 196.06 183.41 94.5 299.44 85.24c5.7-.46 11.38-.68 17-.68m0-25.09v25.09zc-6.31 0-12.7.26-19 .76-31.73 2.53-62.02 11.21-90.04 25.79-27.05 14.08-50.84 33.03-70.7 56.34-19.86 23.31-34.8 49.8-44.41 78.74-9.95 29.98-13.71 61.27-11.18 92.99 4.75 59.49 31.55 114.49 75.46 154.85 43.67 40.14 100.28 62.24 159.4 62.24 6.3 0 12.69-.26 18.99-.76 31.73-2.53 62.02-11.21 90.04-25.79 27.05-14.08 50.84-33.03 70.7-56.34 19.86-23.31 34.8-49.8 44.41-78.74 9.95-29.98 13.71-61.27 11.18-92.99-4.75-59.49-31.55-114.48-75.46-154.85-43.67-40.14-100.28-62.25-159.4-62.25z" class="cls-6" style="fill:#3b0000;stroke-width:0"/></g><ellipse id="ellipse933" cx="326.5" cy="282.82" class="cls-7" rx="197.66" ry="198.24" style="fill:#e6a35a;stroke-width:0"/><path id="path935" d="M500.82 292.89c3.27 41.09-4.67 80.45-21.17 115.17 31.07-38.21 48.1-87.98 43.88-141.01-8.69-109.14-103.94-190.56-212.76-181.84-2.88.23-5.73.55-8.57.9 104.83 12.24 189.9 97.27 198.62 206.78" class="cls-8" style="fill:red;stroke-width:0"/><g id="g1149" style="clip-path:url(#clippath)"><g id="g1041"><g id="g987"><circle id="circle937" cx="321.95" cy="67.01" r="4.6" class="cls-8" style="fill:red;stroke-width:0"/><circle id="circle939" cx="341.99" cy="77.86" r="4.6" class="cls-8" style="fill:red;stroke-width:0"/><circle id="circle941" cx="362.03" cy="88.71" r="4.6" class="cls-8" style="fill:red;stroke-width:0"/><circle id="circle943" cx="382.07" cy="99.56" r="4.6" class="cls-8" style="fill:red;stroke-width:0"/><circle id="circle945" cx="402.11" cy="110.42" r="4.6" class="cls-8" style="fill:red;stroke-width:0"/><circle id="circle947" cx="291.06" cy="76.2" r="4.6" class="cls-8" style="fill:red;stroke-width:0"/><circle id="circle949" cx="311.1" cy="87.05" r="4.6" class="cls-8" style="fill:red;stroke-width:0"/><circle id="circle951" cx="331.14" cy="97.9" r="4.6" class="cls-8" style="fill:red;stroke-width:0"/><circle id="circle953" cx="351.18" cy="108.75" r="4.6" class="cls-8" style="fill:red;stroke-width:0"/><circle id="circle955" cx="371.22" cy="119.6" r="4.6" class="cls-8" style="fill:red;stroke-width:0"/><circle id="circle957" cx="391.26" cy="130.46" r="4.6" class="cls-8" style="fill:red;stroke-width:0"/><circle id="circle959" cx="260.17" cy="85.39" r="4.6" class="cls-8" style="fill:red;stroke-width:0"/><circle id="circle961" cx="280.21" cy="96.24" r="4.6" class="cls-8" style="fill:red;stroke-width:0"/><circle id="circle963" cx="300.24" cy="107.09" r="4.6" class="cls-8" style="fill:red;stroke-width:0"/><circle id="circle965" cx="320.28" cy="117.94" r="4.6" class="cls-8" style="fill:red;stroke-width:0"/><circle id="circle967" cx="340.32" cy="128.79" r="4.6" class="cls-8" style="fill:red;stroke-width:0"/><circle id="circle969" cx="360.36" cy="139.64" r="4.6" class="cls-8" style="fill:red;stroke-width:0"/><circle id="circle971" cx="380.4" cy="150.5" r="4.6" class="cls-8" style="fill:red;stroke-width:0"/><circle id="circle973" cx="249.31" cy="105.43" r="4.6" class="cls-8" style="fill:red;stroke-width:0"/><circle id="circle975" cx="269.35" cy="116.28" r="4.6" class="cls-8" style="fill:red;stroke-width:0"/><circle id="circle977" cx="289.39" cy="127.13" r="4.6" class="cls-8" style="fill:red;stroke-width:0"/><circle id="circle979" cx="309.43" cy="137.98" r="4.6" class="cls-8" style="fill:red;stroke-width:0"/><circle id="circle981" cx="329.47" cy="148.83" r="4.6" class="cls-8" style="fill:red;stroke-width:0"/><circle id="circle983" cx="349.51" cy="159.68" r="4.6" class="cls-8" style="fill:red;stroke-width:0"/><circle id="circle985" cx="369.55" cy="170.54" r="4.6" class="cls-8" style="fill:red;stroke-width:0"/></g><g id="g1039"><circle id="circle989" cx="422.15" cy="121.27" r="4.6" class="cls-8" style="fill:red;stroke-width:0"/><circle id="circle991" cx="442.19" cy="132.12" r="4.6" class="cls-8" style="fill:red;stroke-width:0"/><circle id="circle993" cx="462.23" cy="142.97" r="4.6" class="cls-8" style="fill:red;stroke-width:0"/><circle id="circle995" cx="482.27" cy="153.82" r="4.6" class="cls-8" style="fill:red;stroke-width:0"/><circle id="circle997" cx="502.3" cy="164.67" r="4.6" class="cls-8" style="fill:red;stroke-width:0"/><circle id="circle999" cx="411.29" cy="141.31" r="4.6" class="cls-8" style="fill:red;stroke-width:0"/><circle id="circle1001" cx="431.33" cy="152.16" r="4.6" class="cls-8" style="fill:red;stroke-width:0"/><circle id="circle1003" cx="451.37" cy="163.01" r="4.6" class="cls-8" style="fill:red;stroke-width:0"/><circle id="circle1005" cx="471.41" cy="173.86" r="4.6" class="cls-8" style="fill:red;stroke-width:0"/><circle id="circle1007" cx="491.45" cy="184.71" r="4.6" class="cls-8" style="fill:red;stroke-width:0"/><circle id="circle1009" cx="511.49" cy="195.57" r="4.6" class="cls-8" style="fill:red;stroke-width:0"/><circle id="circle1011" cx="400.44" cy="161.35" r="4.6" class="cls-8" style="fill:red;stroke-width:0"/><circle id="circle1013" cx="420.48" cy="172.2" r="4.6" class="cls-8" style="fill:red;stroke-width:0"/><circle id="circle1015" cx="440.52" cy="183.05" r="4.6" class="cls-8" style="fill:red;stroke-width:0"/><circle id="circle1017" cx="460.56" cy="193.9" r="4.6" class="cls-8" style="fill:red;stroke-width:0"/><circle id="circle1019" cx="480.6" cy="204.75" r="4.6" class="cls-8" style="fill:red;stroke-width:0"/><circle id="circle1021" cx="500.64" cy="215.61" r="4.6" class="cls-8" style="fill:red;stroke-width:0"/><circle id="circle1023" cx="520.68" cy="226.46" r="4.6" class="cls-8" style="fill:red;stroke-width:0"/><circle id="circle1025" cx="389.59" cy="181.39" r="4.6" class="cls-8" style="fill:red;stroke-width:0"/><circle id="circle1027" cx="409.63" cy="192.24" r="4.6" class="cls-8" style="fill:red;stroke-width:0"/><circle id="circle1029" cx="429.67" cy="203.09" r="4.6" class="cls-8" style="fill:red;stroke-width:0"/><circle id="circle1031" cx="449.71" cy="213.94" r="4.6" class="cls-8" style="fill:red;stroke-width:0"/><circle id="circle1033" cx="469.75" cy="224.79" r="4.6" class="cls-8" style="fill:red;stroke-width:0"/><circle id="circle1035" cx="489.79" cy="235.64" r="4.6" class="cls-8" style="fill:red;stroke-width:0"/><circle id="circle1037" cx="509.83" cy="246.5" r="4.6" class="cls-8" style="fill:red;stroke-width:0"/></g></g><g id="g1147"><g id="g1093"><circle id="circle1043" cx="237.72" cy="125.97" r="4.6" class="cls-8" style="fill:red;stroke-width:0"/><circle id="circle1045" cx="257.76" cy="136.82" r="4.6" class="cls-8" style="fill:red;stroke-width:0"/><circle id="circle1047" cx="277.8" cy="147.67" r="4.6" class="cls-8" style="fill:red;stroke-width:0"/><circle id="circle1049" cx="297.84" cy="158.53" r="4.6" class="cls-8" style="fill:red;stroke-width:0"/><circle id="circle1051" cx="317.88" cy="169.38" r="4.6" class="cls-8" style="fill:red;stroke-width:0"/><circle id="circle1053" cx="206.83" cy="135.16" r="4.6" class="cls-8" style="fill:red;stroke-width:0"/><circle id="circle1055" cx="226.87" cy="146.01" r="4.6" class="cls-8" style="fill:red;stroke-width:0"/><circle id="circle1057" cx="246.91" cy="156.86" r="4.6" class="cls-8" style="fill:red;stroke-width:0"/><circle id="circle1059" cx="266.95" cy="167.71" r="4.6" class="cls-8" style="fill:red;stroke-width:0"/><circle id="circle1061" cx="286.99" cy="178.56" r="4.6" class="cls-8" style="fill:red;stroke-width:0"/><circle id="circle1063" cx="307.03" cy="189.42" r="4.6" class="cls-8" style="fill:red;stroke-width:0"/><circle id="circle1065" cx="175.94" cy="144.35" r="4.6" class="cls-8" style="fill:red;stroke-width:0"/><circle id="circle1067" cx="195.98" cy="155.2" r="4.6" class="cls-8" style="fill:red;stroke-width:0"/><circle id="circle1069" cx="216.02" cy="166.05" r="4.6" class="cls-8" style="fill:red;stroke-width:0"/><circle id="circle1071" cx="236.05" cy="176.9" r="4.6" class="cls-8" style="fill:red;stroke-width:0"/><circle id="circle1073" cx="256.09" cy="187.75" r="4.6" class="cls-8" style="fill:red;stroke-width:0"/><circle id="circle1075" cx="276.13" cy="198.6" r="4.6" class="cls-8" style="fill:red;stroke-width:0"/><circle id="circle1077" cx="296.17" cy="209.46" r="4.6" class="cls-8" style="fill:red;stroke-width:0"/><circle id="circle1079" cx="165.08" cy="164.39" r="4.6" class="cls-8" style="fill:red;stroke-width:0"/><circle id="circle1081" cx="185.12" cy="175.24" r="4.6" class="cls-8" style="fill:red;stroke-width:0"/><circle id="circle1083" cx="205.16" cy="186.09" r="4.6" class="cls-8" style="fill:red;stroke-width:0"/><circle id="circle1085" cx="225.2" cy="196.94" r="4.6" class="cls-8" style="fill:red;stroke-width:0"/><circle id="circle1087" cx="245.24" cy="207.79" r="4.6" class="cls-8" style="fill:red;stroke-width:0"/><circle id="circle1089" cx="265.28" cy="218.64" r="4.6" class="cls-8" style="fill:red;stroke-width:0"/><circle id="circle1091" cx="285.32" cy="229.5" r="4.6" class="cls-8" style="fill:red;stroke-width:0"/></g><g id="g1145"><circle id="circle1095" cx="337.92" cy="180.23" r="4.6" class="cls-8" style="fill:red;stroke-width:0"/><circle id="circle1097" cx="357.96" cy="191.08" r="4.6" class="cls-8" style="fill:red;stroke-width:0"/><circle id="circle1099" cx="378" cy="201.93" r="4.6" class="cls-8" style="fill:red;stroke-width:0"/><circle id="circle1101" cx="398.04" cy="212.78" r="4.6" class="cls-8" style="fill:red;stroke-width:0"/><circle id="circle1103" cx="418.08" cy="223.64" r="4.6" class="cls-8" style="fill:red;stroke-width:0"/><circle id="circle1105" cx="327.07" cy="200.27" r="4.6" class="cls-8" style="fill:red;stroke-width:0"/><circle id="circle1107" cx="347.1" cy="211.12" r="4.6" class="cls-8" style="fill:red;stroke-width:0"/><circle id="circle1109" cx="367.14" cy="221.97" r="4.6" class="cls-8" style="fill:red;stroke-width:0"/><circle id="circle1111" cx="387.18" cy="232.82" r="4.6" class="cls-8" style="fill:red;stroke-width:0"/><circle id="circle1113" cx="407.22" cy="243.67" r="4.6" class="cls-8" style="fill:red;stroke-width:0"/><circle id="circle1115" cx="427.26" cy="254.53" r="4.6" class="cls-8" style="fill:red;stroke-width:0"/><circle id="circle1117" cx="316.21" cy="220.31" r="4.6" class="cls-8" style="fill:red;stroke-width:0"/><circle id="circle1119" cx="336.25" cy="231.16" r="4.6" class="cls-8" style="fill:red;stroke-width:0"/><circle id="circle1121" cx="356.29" cy="242.01" r="4.6" class="cls-8" style="fill:red;stroke-width:0"/><circle id="circle1123" cx="376.33" cy="252.86" r="4.6" class="cls-8" style="fill:red;stroke-width:0"/><circle id="circle1125" cx="396.37" cy="263.71" r="4.6" class="cls-8" style="fill:red;stroke-width:0"/><circle id="circle1127" cx="416.41" cy="274.57" r="4.6" class="cls-8" style="fill:red;stroke-width:0"/><circle id="circle1129" cx="436.45" cy="285.42" r="4.6" class="cls-8" style="fill:red;stroke-width:0"/><circle id="circle1131" cx="305.36" cy="240.35" r="4.6" class="cls-8" style="fill:red;stroke-width:0"/><circle id="circle1133" cx="325.4" cy="251.2" r="4.6" class="cls-8" style="fill:red;stroke-width:0"/><circle id="circle1135" cx="345.44" cy="262.05" r="4.6" class="cls-8" style="fill:red;stroke-width:0"/><circle id="circle1137" cx="365.48" cy="272.9" r="4.6" class="cls-8" style="fill:red;stroke-width:0"/><circle id="circle1139" cx="385.52" cy="283.75" r="4.6" class="cls-8" style="fill:red;stroke-width:0"/><circle id="circle1141" cx="405.56" cy="294.61" r="4.6" class="cls-8" style="fill:red;stroke-width:0"/><circle id="circle1143" cx="425.6" cy="305.46" r="4.6" class="cls-8" style="fill:red;stroke-width:0"/></g></g></g><path id="path1151" d="M354.18 516.26s33.06-21.16 31.75-115.23c-.39-27.75-8.58-55.75-9.41-83.86-1.32-44.92 29.21-104.54 75.83-115.97 51.41-12.6 75.09 57.08 87.09 94.67" class="cls-3" style="fill:none;stroke:#3b0000;stroke-width:25.09000015px;stroke-miterlimit:10"/><path id="path1153" d="M157.54 446.47s91.58-266.01 292.6-330.56" class="cls-3" style="fill:none;stroke:#3b0000;stroke-width:25.09000015px;stroke-miterlimit:10"/><path id="path1155" d="M111.16 211.81s196.43 16.66 188.28-126.57" class="cls-3" style="fill:none;stroke:#3b0000;stroke-width:25.09000015px;stroke-miterlimit:10"/><path id="path1157" d="M161.18 134.9s235.65 54.49 319.06 307.53" class="cls-3" style="fill:none;stroke:#3b0000;stroke-width:25.09000015px;stroke-miterlimit:10"/></g><g id="g1221"><path id="path1161" d="m430.27 218.61 115.13 13.18s27.2 16.56 12.25 55.45l-136.6-36.76z" class="cls-8" style="fill:red;stroke-width:0"/><path id="path1163" d="m548.58 251.61-64.73 94.13c-40.83 2.31-129.11 13.05-83.16 24.94 61.77 15.98 122.58 2.52 122.58 2.52l-2.37-45.57 36.76-40.39c9.36-18.89-9.07-35.63-9.07-35.63z" class="cls-8" style="fill:red;stroke-width:0"/><path id="path1165" d="m47.74 237.86 37.89 23.63s-45.2 55.88-47.76 122.47l158.78-3.2s15.74 62.01 114.47 69.42L155.5 228.23l14.05-12.69-21.63 1.88h-23.03l-59.42 2.71-17.73 17.75z" class="cls-8" style="fill:red;stroke-width:0"/><path id="path1167" d="M543.85 286.34c14.23-14.84 4.72-34.73 4.72-34.73l-116.98-12.94s-17.11-39.3-61.76-45.67c0 0 3.26-23.49 26.34-44.76 0 0-43.62 2.1-76.28 24.49 0 0 6.44-32.57 26.27-59.77 0 0-80.77-9.52-131.8 105.96l-4.68 1.34L82.33 239l26.68 20.42c-16.76 17.87-41.18 52.68-51.56 110.89l149.12-5.03s4.36 68.57 104.55 84.91c0 0-22.48-41.38 70.78-82.24l123.63-7.31-.24-36.94s12.28-9.44 38.57-37.36z" class="cls-6" style="fill:#3b0000;stroke-width:0"/><path id="path1169" d="m428.95 262.61-14.01-1.1-5.39-13.12c-1.08-2.28-13.64-27.33-43.12-31.55l-28.58-4.08c-22.86-1.34-37.31 3.66-45.26 7.89l-7.77 5.33 11.44-57.92c.14-.7 1.73-8.55 5.52-19.82-20.68 11.57-45.17 34.65-65.39 80.42l-4.87 11.01-64.83 15.01 50.38 23.38-64.7 20.46s10.95 55.57 118.44 35.66c0 0-60.93 53.73 16.82 85.59.15-.47.31-.94.47-1.41 9.53-27.81 37.83-52.19 84.13-72.48l3.95-1.73 105.11-6.21-.09-14.08v-11.9l9.32-7.29c.15-.11 10.74-8.51 32.74-31.62l-94.32-10.43z" class="cls-8" style="fill:red;stroke-width:0"/><path id="path1171" d="m372.23 345.88 3.95-1.73 105.11-6.21-.09-14.08v-11.9l9.32-7.29c.15-.11 10.74-8.51 32.74-31.62l-46.55-5.15-91.08 18.39-59.05 19.86s-74.28 38.6-38.95 113.62c.15-.47.31-.94.47-1.41 9.53-27.81 37.83-52.19 84.13-72.48" class="cls-7" style="fill:#e6a35a;stroke-width:0"/><path id="polyline1173" d="m416.18 251.41-100.42-12.42L342.15 265l-14.68 19 129.99-22.51" class="cls-6" style="fill:#3b0000;stroke-width:0"/><path id="path1175" d="M537.79 266.91s4.57 26.1-19.98 26.1-17.13-26.1-17.13-26.1z" class="cls-6" style="fill:#3b0000;stroke-width:0"/><path id="path1177" d="m508.06 290.27-104.23 15.34s-11.25 6.03-17.22 16.41l103.22-3.61" class="cls-6" style="fill:#3b0000;stroke-width:0"/><g id="g1183"><circle id="circle1179" cx="450.77" cy="283.19" r="3.23" class="cls-6" style="fill:#3b0000;stroke-width:0"/><circle id="circle1181" cx="458.28" cy="290.46" r="3.23" class="cls-6" style="fill:#3b0000;stroke-width:0"/></g><g id="g1189"><circle id="circle1185" cx="464.74" cy="280.66" r="3.23" class="cls-6" style="fill:#3b0000;stroke-width:0"/><circle id="circle1187" cx="472.25" cy="287.94" r="3.23" class="cls-6" style="fill:#3b0000;stroke-width:0"/></g><g id="g1195"><circle id="circle1191" cx="478.71" cy="278.17" r="3.23" class="cls-6" style="fill:#3b0000;stroke-width:0"/><circle id="circle1193" cx="486.22" cy="285.44" r="3.23" class="cls-6" style="fill:#3b0000;stroke-width:0"/></g><path id="polyline1197" d="m386.61 322.03 85.64 3.87 8.96-13.94" class="cls-6" style="fill:#3b0000;stroke-width:0"/><path id="path1199" d="M358.86 243.12c-.34 1.08-.58 2.21-.58 3.41 0 6.24 5.06 11.3 11.3 11.3 6.24 0 11.3-5.06 11.3-11.3 0-.24-.06-.46-.07-.69" style="fill:none;stroke:red;stroke-width:7.23000002px;stroke-miterlimit:10"/><path id="path1201" d="m289.17 332.04 24.86-1.72c-22.96 20.89-19.9 42.88-18.92 47.6 2.05-2.15 4.26-4.27 6.58-6.37-.21-8.74 2.63-26.7 25.8-42.66l10.88-7.49-49.7 3.45.5 7.21z" class="cls-8" style="fill:red;stroke-width:0"/><path id="path1203" d="M319.89 172.72s36.84-27 82.08-19.03l19.08-9.54s-76.32-18.41-101.16 28.57" class="cls-8" style="fill:red;stroke-width:0"/><path id="path1205" d="M421.05 144.15s-21.21 20.25-23.91 41.81c0 0 39.25 11.07 34.45 52.71 0 0-18.98-38.64-61.76-45.67 0 0 1.69-35.78 29.33-48.36" class="cls-8" style="fill:red;stroke-width:0"/><path id="path1207" d="m47.74 237.86 17.73-17.75s94.46-4.51 126.81-9.9c0 0 57.06-113.67 153.87-97.27 0 0-84.11-2.6-131.8 105.96L75.74 243.11l-28.01-5.26Z" class="cls-8" style="fill:red;stroke-width:0"/><path id="path1209" d="M316.61 414.69s29.32-31.95 77.83-34.65c0 0 74.34 2.48 128.82-6.85l-129.85-5.93-11.51.68s-43.39 5.92-65.29 46.75" class="cls-8" style="fill:red;stroke-width:0"/><path id="path1211" d="M514.59 258.74h18.83s9.28 4.14 3.89 17.62l-10.93 5.05s11.31-18.72-11.79-22.66z" class="cls-8" style="fill:red;stroke-width:0"/><path id="path1213" d="M288.1 418.36s-59.95-10-41.49-80.77l29.24-8.77-8.09 29.65-2.17 23.7 22.51 36.18z" class="cls-8" style="fill:red;stroke-width:0"/><path id="path1215" d="M279.01 324.46c2.82-3.37 6.35-7.09 10.64-10.68-8.88-.1-15.66-.15-17.53-.09-6.01.21-12.45.83-19.26 1.49-27.37 2.64-58.36 5.63-72.34-17.59l-7.1-12.34-9.34 5.38 7.15 12.43c12.08 20.07 32.98 24.67 54.29 24.67 9.63 0 19.35-.94 28.38-1.81 6.65-.64 12.93-1.25 18.6-1.44.88-.03 3.33-.03 6.53 0z" class="cls-6" style="fill:#3b0000;stroke-width:0"/><path id="polyline1217" d="m53.92 349.65 94.49-5.82-86.44-24.9" class="cls-8" style="fill:red;stroke-width:0"/><path id="polyline1219" d="m91.66 282.26 44.02-5.82-40.27-24.9" class="cls-8" style="fill:red;stroke-width:0"/></g></g></svg>