<svg xmlns="http://www.w3.org/2000/svg" id="Layer_1" width="488.7" height="488.7" data-name="Layer 1" version="1.1"><defs id="defs7"><clipPath id="clip-path"><circle id="circle4" cx="300" cy="300" r="244.3" fill="none"/></clipPath><style id="style2">.cls-10{fill:#fff}.cls-4{fill:#2e4254}.cls-5{fill:#2e4255}.cls-6{fill:#3aa6db}.cls-7{fill:#3db064}.cls-8{fill:#f1c31f}.cls-9{fill:#2d4255}.cls-11{fill:#40b265}.cls-12{fill:#3aa7dd}.cls-13{fill:#e28e13}</style></defs><g id="g62" clip-path="url(#clip-path)" transform="translate(-56 -56)"><g id="wX3tca"><path id="path11" fill="#2e4254" d="M932 666h-13l2-7c8-31-10-50-42-41a103 103 0 0 0-42 24 48 48 0 0 1-38 12c-15-1-26-12-27-27s4-28 14-39c10-13 19-27 23-43 7-31-11-48-42-40-16 4-31 12-43 24-10 8-21 12-33 12-21 0-34-14-32-35 1-12 6-22 14-32 12-14 21-30 23-49 4-24-11-38-35-35-20 3-36 13-51 26-9 8-20 11-31 12-20 2-33-11-34-30 0-14 5-25 14-36 11-13 20-27 24-44 6-29-11-47-40-40-18 3-33 13-47 25a47 47 0 0 1-40 11c-13-1-22-12-24-25-1-14 3-27 12-38l13-18c8-12 13-24 13-38 2-17-8-29-23-31a52 52 0 0 0-20 1c-17 5-31 13-44 25-10 9-21 12-33 12-19 0-31-13-31-32 0-13 5-25 14-35 12-15 22-31 24-51 2-24-12-37-36-33-20 2-36 12-50 25a49 49 0 0 1-37 12c-17-1-28-12-28-29-1-14 4-26 13-36 11-13 20-27 24-44 7-30-11-48-41-41-18 4-32 14-46 26-10 9-23 12-36 11-14-1-24-10-27-24-2-15 2-28 11-39 3-4 7-8 8-13h13c1 3 0 5-1 8-2 28 13 42 41 36 18-4 32-13 45-25 10-9 21-12 34-12 19 0 31 12 31 30 1 14-5 26-14 37-13 16-25 35-24 57 0 16 10 26 25 27a57 57 0 0 0 24-3 104 104 0 0 0 38-23c9-9 20-12 32-12 20-1 34 13 33 33-1 13-6 24-14 33a96 96 0 0 0-24 47c-5 26 11 43 37 38 19-4 35-13 49-26 7-6 16-10 25-11 28-5 45 14 39 41-3 13-11 22-19 32a80 80 0 0 0-18 52c0 15 11 25 26 26a53 53 0 0 0 17-2 105 105 0 0 0 43-24c11-10 24-13 38-13 15 1 26 13 27 28s-4 27-14 39a95 95 0 0 0-24 48c-4 24 10 39 35 37 21-3 37-14 53-27 10-10 23-13 36-12 15 2 25 12 27 27s-4 28-13 39c-11 14-21 29-24 47-6 27 11 44 39 38 18-4 33-13 47-25 9-9 21-12 34-12 18 0 30 12 30 30 1 15-5 27-14 38a90 90 0 0 0-24 50c-2 23 11 35 34 33 22-2 39-13 54-27 21-19 49-14 63 9v23c-4 11-10 20-18 29-2 3-5 5-4 9z" class="cls-4"/><path id="path13" fill="#2e4255" d="M703 666h-14v-6c3-28-12-42-39-36-18 4-34 13-47 26-7 6-14 9-22 10-30 7-49-14-41-44a58 58 0 0 1 11-20 157 157 0 0 0 11-15c9-14 16-29 15-46-1-14-10-23-24-25a55 55 0 0 0-24 3 107 107 0 0 0-39 23c-10 9-22 12-34 12-18 0-30-12-31-30 0-14 5-26 14-36 13-15 23-32 25-52 2-23-13-37-36-33-20 3-37 13-52 27a46 46 0 0 1-40 10c-12-2-20-9-23-21-4-18 2-32 13-45 12-14 22-30 24-48 3-27-13-41-39-36-19 4-34 14-48 26-6 6-14 9-22 11-30 6-49-15-40-44a59 59 0 0 1 12-22c11-13 19-28 23-45 6-26-8-42-35-39-19 2-36 12-50 25-8 7-16 10-26 12-25 5-42-11-39-36 1-12 6-22 14-31 11-13 20-28 23-45 6-28-11-44-39-38-18 4-33 13-47 25-9 9-21 12-33 12-19 1-32-12-32-31 0-14 6-26 15-36C-2 15 6 1 10-16c6-29-11-46-40-39-19 4-34 14-48 26-21 19-50 14-62-11v-19c3-12 9-21 17-30 3-4 6-7 7-12h10l-4 20c0 21 11 33 32 32 22-1 40-12 56-26 9-9 20-12 32-12 20-1 33 12 32 32 0 13-6 24-14 34A94 94 0 0 0 4 30C2 51 14 65 35 64a59 59 0 0 0 12-2c17-4 31-13 44-24 9-9 20-12 33-12 19-1 32 13 31 33 0 12-5 23-14 33a94 94 0 0 0-24 51c-2 24 12 37 36 34 20-3 37-13 52-26 11-11 25-14 39-11 14 2 23 12 24 26s-2 26-11 36l-11 15c-9 14-17 29-16 46 1 16 11 27 27 28a56 56 0 0 0 20-3c15-5 29-13 40-24 9-8 20-11 31-12 22-1 36 14 34 35-1 12-6 22-14 31a95 95 0 0 0-24 52c-3 23 11 36 33 34 21-3 38-13 54-27 11-10 24-13 38-11 15 2 25 12 26 28 1 14-5 27-14 38a98 98 0 0 0-24 47c-4 26 11 41 37 37 20-3 36-13 50-25 10-10 23-13 36-12 17 1 27 12 28 28 1 15-4 27-13 38-11 13-20 27-24 43-7 30 11 48 40 41 18-4 33-14 47-26 11-10 24-13 38-11 13 2 22 11 25 24 2 15-2 28-12 40-2 3-6 5-6 10z" class="cls-5"/><path id="path15" fill="#3aa6db" d="M703 666c0-5 4-7 6-10 10-12 14-25 12-40-3-13-12-22-25-24-14-2-27 1-38 11-14 12-29 22-47 26-29 7-47-11-40-40 4-17 13-31 24-44 9-11 14-23 13-38-1-16-11-27-28-28-13-1-26 2-36 12a96 96 0 0 1-50 25c-26 5-41-11-37-37 3-18 12-33 24-47 9-11 15-24 14-38-1-15-11-26-26-28-14-2-27 1-38 11a96 96 0 0 1-54 26c-22 3-36-11-33-33 1-20 12-37 24-52 8-9 13-19 14-31 2-21-12-36-34-35-11 1-22 4-31 12-11 11-25 19-40 24a56 56 0 0 1-20 2c-16 0-26-11-27-27-1-17 7-32 16-46l11-15c8-10 12-22 11-36s-10-25-24-27c-15-2-28 1-39 11a99 99 0 0 1-52 27c-24 3-38-10-36-34 2-20 12-36 24-51 8-10 14-21 14-34 1-19-12-33-31-32-13 0-24 3-34 12a96 96 0 0 1-43 24 59 59 0 0 1-12 2C14 65 2 51 4 30 6 11 16-6 28-21c8-10 14-21 14-34 1-20-12-33-32-33-12 1-23 4-32 12a90 90 0 0 1-56 27c-21 1-32-11-32-32l4-20h26c3 12 10 20 23 22 12 3 24 1 34-6 6-4 14-7 16-16h76c5 17 0 33-8 48a121 121 0 0 1-15 22c-6 7-11 16-13 26-5 25 11 43 36 40 11-1 20-5 28-12 16-14 33-24 54-26s34 10 33 31a56 56 0 0 1-2 15c-5 15-13 28-23 40-9 10-14 22-13 36 0 17 12 29 30 29 13 1 25-3 35-12 15-14 32-24 53-26 23-2 36 13 33 37-3 18-12 33-24 47-6 7-10 15-13 24-7 28 10 47 38 43a46 46 0 0 0 26-12c12-11 26-20 43-24 32-8 50 11 41 43l-1 4c-5 15-13 27-23 39-9 11-13 23-12 36 1 16 13 27 28 28 14 0 26-3 36-12 16-14 33-24 54-26 23-2 36 11 33 34a68 68 0 0 1-2 13c-5 14-13 27-23 39-8 9-13 21-13 34 0 18 12 31 31 31 13 0 24-3 35-12 14-14 31-23 51-26 23-3 37 11 35 34a59 59 0 0 1-2 9c-4 16-12 30-23 42a51 51 0 0 0-13 41c2 13 10 23 23 25 15 2 29-1 41-11 14-13 29-23 48-26 26-5 41 9 39 35a59 59 0 0 1-3 12c-5 14-12 26-22 37-4 6-8 11-10 18z" class="cls-6"/><path id="path17" fill="#3db064" d="M112-101c-1 5-5 9-8 13-9 11-13 24-11 39 3 14 13 23 27 24 13 1 26-2 36-11 14-12 28-22 46-26 30-7 48 11 41 41-4 17-13 31-24 44-9 10-14 22-13 36 0 17 11 28 28 29 14 1 26-2 37-12 14-13 30-23 50-25 24-4 38 9 36 33-2 20-12 36-24 51-9 10-14 22-14 35 0 19 12 32 31 32 12 0 23-3 33-12 13-12 27-20 44-25a52 52 0 0 1 20-1c15 2 25 14 23 31 0 14-5 26-13 38l-13 18c-9 11-13 24-11 37 1 14 10 24 24 26s27-1 39-11c14-12 29-22 47-25 29-7 46 11 40 40-4 17-13 31-24 44-9 11-14 22-14 36 1 19 14 32 34 30 11-1 22-4 31-12 15-13 31-23 51-26 24-3 39 11 36 35-3 19-12 35-24 49-8 10-13 20-14 32-2 21 11 35 32 35 12 0 23-4 33-12 12-12 27-20 43-24 31-8 49 9 42 40-4 16-13 30-23 43a52 52 0 0 0-14 39c1 15 12 26 27 27 14 1 27-2 38-12a103 103 0 0 1 42-24c32-9 51 10 42 41l-2 7h-27c-2-11-10-19-23-21-20-2-36 6-48 21h-77c-3-12-1-24 4-36s12-23 20-33c9-11 14-23 13-38-1-13-8-23-21-26-16-4-30 0-42 10-15 13-33 24-54 27s-34-9-34-30a57 57 0 0 1 2-16c5-15 13-28 23-40 8-10 13-21 13-34 0-19-12-32-31-31-13 0-24 3-34 12a87 87 0 0 1-59 26c-16-1-26-10-28-26l2-16c4-17 13-32 24-45 10-12 15-26 12-42-2-12-10-20-22-22-15-2-29 0-41 11-15 13-31 23-51 26-24 4-39-10-36-34a66 66 0 0 1 3-14c4-14 12-26 21-37a57 57 0 0 0 13-24c4-21-5-39-24-42-14-2-27 1-38 11a99 99 0 0 1-56 27c-21 2-33-10-33-31 1-20 11-36 23-51 7-9 13-19 15-30 4-19-5-35-22-38-15-3-29 0-41 10a98 98 0 0 1-54 27c-24 2-37-13-34-37 3-18 13-33 24-47 4-5 7-9 9-15 7-14 9-30-2-43s-27-11-42-6a39 39 0 0 0-15 8 95 95 0 0 1-41 24C97 5 83 7 71-4c-11-12-8-26-4-40s12-26 21-37c5-6 10-12 11-20z" class="cls-7"/><path id="path19" fill="#f1c31f" d="M954 605a40 40 0 0 0-63-9 97 97 0 0 1-54 27c-23 2-36-10-34-33 2-20 11-36 24-50 9-11 15-23 14-38 0-18-12-30-30-30-13 0-25 3-34 12-14 12-29 21-47 25-28 6-45-11-39-38 3-18 12-33 24-47 9-11 15-24 13-39s-12-25-27-27c-13-1-26 2-36 12a98 98 0 0 1-53 27c-25 2-39-13-35-37 3-19 12-34 24-48 10-12 15-24 14-39s-12-27-27-28c-14 0-27 3-38 13a105 105 0 0 1-43 24 53 53 0 0 1-17 2c-15-1-26-11-26-26-2-20 7-37 18-52 8-10 16-19 19-32 6-27-11-46-39-41-9 1-18 5-25 11a97 97 0 0 1-49 26c-26 5-42-12-37-38 3-18 12-33 24-47 8-9 13-20 14-33 1-20-13-34-33-33-12 0-23 3-32 12a104 104 0 0 1-38 23 57 57 0 0 1-24 3c-15-1-25-11-25-27-1-22 11-40 24-57 9-11 15-22 14-37 0-18-12-30-31-30-13 0-24 3-34 12a96 96 0 0 1-45 25c-28 6-43-8-41-36 1-3 2-5 0-8h33c-2 2 1 4 2 5 7 9 16 12 27 12 14-1 26-6 35-17h84c-1 9-1 18-4 27a115 115 0 0 1-21 36c-9 10-14 21-15 33 0 18 10 31 27 33 13 2 26-1 37-11 12-10 25-19 40-23a64 64 0 0 1 13-3c26-3 39 12 35 38-4 18-13 33-25 47-9 11-14 23-13 38s12 27 27 28c14 0 27-3 38-13 16-14 34-25 57-26 18 0 29 11 29 29a57 57 0 0 1-3 19c-4 14-12 26-21 37-7 9-12 19-14 30-2 20 9 35 28 37 13 1 25-2 36-11 14-13 30-23 50-27 26-5 42 12 37 38-3 17-12 32-23 46-8 9-14 20-15 32-2 18 9 33 25 35 15 2 28-1 39-11s23-18 37-23a69 69 0 0 1 13-4c27-4 43 13 37 40-4 17-13 32-24 45a52 52 0 0 0-13 39c1 15 11 26 27 27 14 1 27-2 38-12 16-14 33-25 55-26 21-1 33 13 31 33s-12 36-24 51c-8 10-13 20-14 32-2 15 5 28 17 33 15 6 31 4 43-6 19-16 38-28 62-31z" class="cls-8"/><path id="path21" fill="#f1c31f" d="M-140-40c12 25 41 30 62 11 14-12 29-22 48-26 29-7 46 10 40 39C6 1-2 15-13 28c-9 10-15 22-15 36 0 19 13 32 32 31 12 0 24-3 33-12 14-12 29-21 47-25 28-6 45 10 39 38-3 17-12 32-23 45-8 9-13 19-14 31-3 25 14 41 39 36 10-2 18-5 26-12 14-13 31-23 50-25 27-3 41 13 35 40-4 17-12 31-23 44a59 59 0 0 0-12 22c-9 29 10 50 40 44 8-2 16-5 22-11 14-12 29-22 48-26 26-5 42 9 39 36-2 18-12 34-24 48-11 13-17 27-13 45 3 12 11 19 23 21 14 3 28 0 40-10 15-14 32-24 52-27 23-4 38 10 36 33-2 20-12 37-25 52-9 10-14 22-14 36 1 18 13 30 31 30 12 0 24-3 34-12a107 107 0 0 1 39-23 55 55 0 0 1 24-3c14 2 23 11 24 25 1 18-6 32-15 46a157 157 0 0 1-11 15 58 58 0 0 0-11 20c-8 30 11 51 41 44 8-1 15-4 22-10 13-12 29-22 47-26 27-6 42 8 39 36v6h-33c0-5-4-7-8-9-15-10-40-6-52 9h-87c1-6 1-13 3-19 4-16 12-30 23-43 8-9 13-21 13-33 1-19-11-32-30-33-12 0-24 3-34 12a92 92 0 0 1-44 25c-31 8-49-10-42-41 4-16 13-30 23-42 6-7 11-15 13-24 5-20-4-38-21-42-15-3-29 0-41 10-13 11-26 20-42 25-13 4-28 6-39-5-11-12-9-26-4-40 4-14 12-27 22-38 8-10 13-22 13-36 0-17-11-28-27-30-14-1-26 2-37 11a90 90 0 0 1-54 27c-16 3-29-5-33-19-2-8-1-16 1-24 4-15 12-29 22-41 8-9 13-19 15-31 2-18-7-32-24-35-14-3-28 0-39 10-15 13-31 24-51 27-28 4-42-12-37-39 4-18 13-33 24-47 10-11 15-24 13-39-1-13-11-24-24-26-14-2-28 1-40 11a94 94 0 0 1-49 26c-24 5-39-8-38-33a52 52 0 0 1 3-13c4-15 13-28 23-40A53 53 0 0 0-18 7c2-16-6-28-19-33-15-5-30-2-42 8-18 15-38 27-61 30z" class="cls-8"/><path id="path23" fill="#2d4255" d="M99-101c-1 9-6 14-11 20-9 11-17 23-21 37s-7 28 4 40c12 11 26 9 39 5 16-4 29-13 41-24a39 39 0 0 1 15-8c15-5 30-7 42 6 11 13 9 29 2 43-2 6-5 10-9 15-11 14-21 29-24 47-3 24 10 39 34 37 22-2 39-14 54-27 12-10 26-13 41-10 17 3 26 19 22 38-2 12-8 21-15 30a87 87 0 0 0-23 51c0 21 12 33 33 31 22-2 40-13 56-27 11-10 24-13 38-11 19 3 28 21 24 42a57 57 0 0 1-13 24c-9 11-17 23-21 37a66 66 0 0 0-3 14c-3 24 12 38 36 34 20-3 36-13 51-26 12-11 26-13 41-11 12 2 20 10 22 22 3 16-2 30-12 42-11 13-20 28-24 45l-2 16c2 16 12 25 28 26 24 0 42-11 59-26 10-9 21-12 34-12 19-1 31 12 31 31 0 13-5 24-13 34-10 12-18 25-23 40a57 57 0 0 0-2 16c0 21 13 33 34 30s39-14 54-27c12-10 26-14 42-10 12 3 20 13 21 26 1 15-4 27-13 38-8 10-15 21-20 33s-7 24-4 36h-29c2-7 6-12 10-18 10-11 17-23 22-37a59 59 0 0 0 3-12c2-26-13-40-39-35-19 3-34 13-48 26a47 47 0 0 1-41 11c-13-2-21-12-23-25-2-15 3-29 13-41 11-12 19-26 23-42a59 59 0 0 0 2-9c2-23-12-37-35-34-20 3-37 12-51 26-11 9-22 12-35 12-19 0-31-13-31-31 0-13 5-24 13-34 10-12 18-24 23-39a68 68 0 0 0 2-13c3-23-10-36-33-34-21 2-38 12-54 26-10 9-22 13-36 12-15-1-27-12-28-28-1-13 3-25 12-36 9-12 18-24 23-39l1-4c9-32-9-51-41-43-17 4-31 13-43 25a46 46 0 0 1-26 11c-28 4-45-15-38-43 3-9 7-16 13-24 12-14 21-29 24-47 3-24-10-39-33-37-21 2-38 12-53 26-10 9-22 13-35 12-18 0-30-12-30-29-1-14 4-26 13-36 10-12 18-25 23-40a56 56 0 0 0 2-15c1-21-12-33-33-31S113 9 97 23c-8 7-17 11-28 12-25 3-41-15-36-40 2-10 7-19 13-26a121 121 0 0 0 15-22c8-15 13-31 8-48z" class="cls-9"/><path id="path25" fill="#2e4254" d="M-140 12c23-3 43-15 61-30 12-10 27-13 42-8 13 5 21 17 19 33a53 53 0 0 1-12 30c-10 12-19 25-23 40a52 52 0 0 0-3 13c-1 25 14 38 38 33 19-3 35-13 49-26 12-10 26-13 40-11 13 2 23 13 24 26 2 15-3 28-13 39-11 14-20 29-24 47-5 27 9 43 36 39 21-3 37-14 52-27 11-10 24-13 39-10 16 2 26 17 24 35-2 12-7 22-15 31-10 12-18 26-22 41-2 8-3 16-1 24 4 14 17 22 33 19 21-2 39-13 54-27 11-9 23-12 36-11 17 2 27 13 28 30 0 14-5 25-13 36a91 91 0 0 0-22 38c-5 14-7 28 4 40 11 11 26 9 39 5 16-5 29-14 42-25 12-10 26-13 41-10 17 4 26 22 21 42-3 9-7 17-13 24-10 12-19 26-23 42-7 31 11 49 42 41 17-4 31-13 44-25 10-9 22-12 34-12 19 1 31 14 30 32 0 13-5 24-13 34a95 95 0 0 0-23 43c-2 6-2 13-3 19h-24c2-6 7-10 11-16 11-13 19-28 21-46 2-23-12-37-35-34-21 2-38 13-53 27-10 9-23 12-36 11-17-2-27-13-28-30 0-14 5-25 14-36 11-13 20-28 24-45 6-29-12-46-40-39-18 4-33 13-47 25a47 47 0 0 1-39 11c-13-1-23-11-24-25-2-14 2-27 11-39l13-17c8-13 14-27 13-43 0-16-10-25-26-26a56 56 0 0 0-18 1c-16 5-30 13-42 24-10 9-21 13-34 13-20 0-32-14-31-34 1-13 6-23 14-33 11-13 20-28 23-46 6-27-10-43-38-38-18 3-34 13-47 25-10 9-21 12-33 12-21 1-33-12-32-32 0-14 6-26 15-36 11-13 19-27 22-44 6-27-10-43-37-39a63 63 0 0 0-8 2c-16 5-29 13-41 24-7 7-16 10-25 12-25 4-41-11-39-36 1-11 5-20 12-28l12-16c7-11 12-23 14-36 3-24-13-39-36-35a88 88 0 0 0-36 14l-19 14z" class="cls-4"/><path id="path27" fill="#2e4255" d="M954 555c-24 3-43 15-62 31a41 41 0 0 1-43 6c-12-5-19-18-17-33 1-12 6-22 14-32 12-15 22-31 24-51s-10-34-31-33c-22 1-39 12-55 26a49 49 0 0 1-39 12c-15-1-25-12-26-27-2-15 3-27 13-39 11-13 20-28 24-45 6-27-10-44-37-40a69 69 0 0 0-13 4c-14 5-26 13-37 23a46 46 0 0 1-39 11c-16-2-27-17-25-35 1-12 7-23 15-32 11-14 20-29 23-46 5-26-11-42-37-38-20 4-36 14-50 27-11 9-23 12-36 11-19-1-30-17-28-37 2-11 7-21 14-30 9-11 17-23 21-36a57 57 0 0 0 3-20c0-18-11-29-29-29-23 1-41 12-57 26a49 49 0 0 1-38 13c-15-1-26-13-27-28s4-27 13-38c12-14 21-29 24-47 5-26-8-41-34-38a64 64 0 0 0-13 3c-15 4-28 13-40 23a43 43 0 0 1-37 11c-17-2-27-15-27-33 1-12 6-23 15-33a115 115 0 0 0 21-36c3-9 3-18 4-27h24c0 6-5 10-8 14a97 97 0 0 0-24 49c-2 25 12 39 37 35 20-3 36-14 51-27 11-9 23-12 37-11 16 2 26 13 27 29 0 13-4 25-13 36a138 138 0 0 0-18 27 86 86 0 0 0-7 19c-6 28 11 46 40 39 18-4 33-13 47-25 11-10 24-13 38-12 15 2 24 13 25 28 2 14-3 26-12 37-10 12-19 25-23 40-4 13-6 27 4 38 11 11 24 10 38 7 16-5 30-13 43-25 10-9 22-12 35-12 17 1 28 13 29 30 1 14-4 26-13 36-11 13-20 27-24 44-7 30 10 47 40 41 18-5 33-14 47-26 14-13 39-15 53-5 12 10 14 32 3 50a112 112 0 0 1-6 9l-9 12c-9 14-17 29-16 47 0 16 10 26 26 27a54 54 0 0 0 17-2c17-4 31-13 44-24 10-9 22-13 35-12 16 0 27 10 29 26s-4 29-14 41a95 95 0 0 0-24 49c-2 24 12 38 35 35 19-2 34-11 48-23 3-1 4-5 8-4z" class="cls-5"/><path id="path29" fill="#3aa6db" d="M954 536c-4-1-5 3-8 4a94 94 0 0 1-48 23c-23 3-38-11-35-35 2-19 12-35 24-49 10-12 16-25 14-41s-13-26-29-26c-13-1-25 3-35 12-13 11-27 20-44 24a54 54 0 0 1-17 2c-16-1-26-11-26-27-1-18 7-33 16-47l9-12a112 112 0 0 0 6-9c11-18 9-40-3-50-14-10-39-8-53 5-14 12-29 21-47 26-30 6-47-11-40-41 4-17 13-31 24-44 8-11 13-22 13-36-1-17-12-29-29-30-13 0-25 3-35 12-13 12-27 20-43 25-14 3-27 4-38-7-10-11-8-25-4-38 4-15 13-28 23-40 9-11 14-23 12-38-1-14-10-25-25-27-14-1-27 2-38 12-14 12-29 21-47 25-29 7-46-11-40-39a86 86 0 0 1 7-19 138 138 0 0 1 18-27c9-11 13-23 13-36-1-16-11-27-27-29-14-1-26 2-37 11-15 13-31 24-51 27-25 4-39-10-37-35 2-19 12-34 24-49 3-4 8-8 8-14h12c-8 11-15 23-15 38-1 15 8 28 22 30 15 3 29 1 41-9 17-15 36-28 60-28 17 0 27 10 28 26a51 51 0 0 1-2 18c-4 16-12 29-22 42a59 59 0 0 0-12 20c-7 20 1 39 18 44 15 4 30 2 42-9 15-12 31-23 50-27 28-5 44 11 39 39-4 17-13 32-24 46-9 10-14 22-14 36 1 18 12 30 30 30 13 0 25-3 35-12 15-14 33-25 54-26 22-2 35 12 32 34-2 19-11 35-23 49-9 11-15 23-15 37 0 16 10 28 24 30 15 3 28 0 40-10 15-13 31-24 51-27 26-4 40 12 36 37-3 18-11 33-23 47-5 6-10 14-13 22-6 21 2 41 21 44 15 3 29 1 40-10 14-11 28-21 45-25 13-3 26-4 36 6 11 11 9 24 6 37a50 50 0 0 1-2 6 113 113 0 0 1-21 34c-9 11-13 22-13 36 0 18 12 30 30 31 12 0 22-4 32-9z" class="cls-6"/><path id="path31" fill="#3db064" d="m-140 32 19-14A88 88 0 0 1-85 4c23-4 39 11 36 35-2 13-7 25-14 36l-12 16c-7 8-11 18-12 28-2 25 14 40 39 36 9-2 18-5 25-12 12-11 25-19 41-24a63 63 0 0 1 8-2c27-4 43 12 37 39-3 17-11 31-22 44-9 10-15 22-15 36-1 20 11 33 32 32 12 0 23-3 33-12 13-12 29-22 47-25 28-5 44 11 38 38-3 18-12 33-23 46-8 10-13 20-14 33-1 20 11 34 31 34 13 0 24-4 34-13 12-11 26-19 42-24a56 56 0 0 1 18-1c16 1 26 10 27 26 0 16-6 30-14 43l-13 18c-9 11-13 24-11 38 1 14 11 24 24 25 15 2 28-1 39-11 13-12 29-21 47-25 28-7 46 10 40 39-4 17-13 32-24 45-9 11-14 22-14 36 1 17 11 28 28 30 13 1 26-2 36-11 15-14 32-24 53-27 23-3 37 11 35 34-2 18-10 33-21 47-4 5-8 9-11 15h-11c6-8 11-16 13-26 6-26-10-44-36-41a49 49 0 0 0-28 12 90 90 0 0 1-53 26c-24 1-37-13-33-37 3-19 13-34 25-49 7-9 12-20 13-32 1-15-7-29-20-32-16-4-30-2-43 9-15 13-31 24-51 27-25 4-40-10-37-35a71 71 0 0 1 2-11c4-15 13-28 23-40 9-11 14-24 12-39-1-13-9-22-22-25-14-3-28 0-40 10-13 11-28 21-46 26-31 8-49-11-41-41l1-5c5-15 13-28 23-40 8-9 13-20 13-33 0-19-12-31-30-31-14 0-25 3-35 12a97 97 0 0 1-50 26c-26 4-41-12-36-37 3-18 11-33 23-47 8-10 13-21 14-34 2-18-9-32-27-33-13-1-26 2-36 11-13 11-27 21-44 25-13 3-26 4-36-6-11-11-9-24-6-38a43 43 0 0 1 1-4c5-14 13-25 23-37 8-10 13-22 12-36-1-16-12-28-28-29-13 0-24 3-34 11z" class="cls-7"/><path id="path33" fill="#2d4255" d="M954 526c-10 5-20 9-32 9-18-1-30-13-30-31 0-14 4-25 13-36a113 113 0 0 0 21-34 50 50 0 0 0 2-6c3-13 5-26-6-37-10-10-23-9-36-6-17 4-31 14-45 25a45 45 0 0 1-40 10c-19-3-27-23-21-44 3-8 8-16 13-22 12-14 20-29 23-47 4-25-10-41-36-37-20 3-36 14-51 27a47 47 0 0 1-40 10c-14-2-24-14-24-30 0-14 6-26 15-37 12-14 21-30 23-49 3-22-10-36-32-34-21 1-39 12-54 26-10 9-22 12-35 12-18 0-29-12-30-30 0-14 5-26 14-36 11-14 20-29 24-46 5-28-11-44-39-39-20 4-35 15-50 27a44 44 0 0 1-42 9c-17-5-25-24-18-44a59 59 0 0 1 11-21c11-12 19-25 23-41a51 51 0 0 0 2-18c-1-16-11-26-28-26-24 0-43 13-60 28a46 46 0 0 1-41 9c-14-2-23-15-22-30 0-15 7-27 15-38h16a18 18 0 0 1 0 3c-3 26 14 40 41 34a92 92 0 0 0 41-21c8-7 17-13 28-16h19c21 10 27 26 20 48-3 8-8 14-13 21a95 95 0 0 0-23 48c-2 22 11 36 34 34a72 72 0 0 0 15-3c15-5 28-13 39-24 11-9 23-12 36-11 16 1 27 13 28 30 0 14-5 26-14 36-11 14-20 29-24 47-5 28 13 44 41 37 17-4 32-13 45-24 11-10 23-13 37-12 16 0 26 11 28 27 1 14-4 27-13 38-12 14-22 30-25 49-4 23 9 38 32 37 22-2 39-13 54-26a50 50 0 0 1 28-12c25-3 41 14 37 38-2 12-8 21-15 30a88 88 0 0 0-23 50c-1 24 13 36 36 33 20-3 37-14 52-27a42 42 0 0 1 13-8c15-6 30-4 43 5v50l-10 12a95 95 0 0 0-21 47c-2 22 10 34 31 34z" class="cls-9"/><path id="path35" fill="#2d4255" d="M-140 43c10-8 21-11 34-11 16 1 27 13 28 29 1 14-4 26-12 36-10 11-18 23-23 37a43 43 0 0 0-1 4c-3 14-5 27 6 38 10 10 23 9 36 6 17-4 31-14 44-25 10-9 23-12 36-11 18 1 29 15 27 33-1 13-6 24-14 34a97 97 0 0 0-23 47c-5 25 10 41 36 37 19-3 35-13 50-26 10-9 21-12 35-12 18 0 30 12 30 31 0 13-5 24-13 33-10 12-18 25-23 40l-1 5c-8 30 10 49 41 41 18-5 33-15 46-26 12-10 26-13 40-10 13 3 21 12 22 26 2 14-3 27-12 38-10 12-19 25-23 40a71 71 0 0 0-2 11c-3 25 12 39 37 35 20-3 36-14 51-27 13-11 27-13 43-9 13 3 21 17 20 32-1 12-6 23-13 32-12 15-22 30-25 49-4 24 9 38 33 37 21-2 38-13 53-26a49 49 0 0 1 28-12c26-3 42 15 36 41-2 10-7 18-13 26h-17c3-35-22-40-45-34-14 4-26 11-38 20-6 5-12 11-19 14h-33c-16-12-21-26-14-45 3-9 8-16 14-22 11-15 21-32 22-51 1-20-11-32-31-32a60 60 0 0 0-17 3c-15 5-28 14-40 24a46 46 0 0 1-37 12c-16-2-26-13-27-29 0-14 4-26 13-37 12-14 22-30 25-49 3-26-12-41-38-36-20 4-36 15-51 27a44 44 0 0 1-43 9c-11-4-17-13-19-24-1-16 4-29 13-40 11-13 20-27 24-44 7-29-10-47-40-41-18 4-33 13-46 25a48 48 0 0 1-38 12c-13-1-22-9-25-21-4-15 0-28 9-41 5-7 11-13 15-21 9-14 15-28 13-45-2-12-10-20-22-23-7-1-14 0-22 2-17 5-32 14-46 26a42 42 0 0 1-54 0v-48l10-13c10-12 18-26 20-43 4-23-7-37-30-37z" class="cls-9"/><path id="path37" fill="#3aa6db" d="M-140 205c15 14 39 14 54 0 14-12 29-21 46-26 8-2 15-3 22-2 12 3 20 11 22 23 2 17-4 31-13 45-4 8-10 14-15 21-9 13-13 26-9 41 3 12 12 20 25 21 14 1 27-2 38-12 13-12 28-21 46-25 30-6 47 12 40 41-4 17-13 31-24 44a51 51 0 0 0-13 40c2 11 8 20 19 24 15 4 30 2 43-9 15-12 31-23 51-27 26-5 41 10 38 36-3 19-13 35-25 49-9 11-13 23-13 37 1 16 11 27 27 29 14 1 26-2 37-12 12-10 25-19 40-24a60 60 0 0 1 17-3c20 0 32 12 31 32-1 19-11 36-22 51-6 6-11 13-14 22-7 19-2 33 14 45h-45a38 38 0 0 1 1-12c4-16 13-30 24-43 9-11 14-22 13-36-1-17-11-29-28-30-14 0-26 3-36 12a97 97 0 0 1-52 26c-24 4-38-10-35-34 2-19 12-35 24-50 8-10 13-20 14-33 1-17-8-31-24-33-15-2-28 0-40 11-13 11-28 21-46 25-29 7-48-10-40-40 3-17 12-31 23-43 9-12 15-25 13-40-1-14-10-24-23-26-15-3-28 0-40 10a99 99 0 0 1-54 27c-22 2-35-11-34-32a65 65 0 0 1 5-21 121 121 0 0 1 20-32 53 53 0 0 0 10-18c5-14 6-27-4-39-10-11-24-11-37-8a45 45 0 0 0-20 10 97 97 0 0 1-51 27z" class="cls-6"/><path id="path39" fill="#3db064" d="M954 360c-13-9-28-11-43-5a42 42 0 0 0-13 8c-15 13-32 24-52 27-23 3-37-9-36-33 1-19 11-35 23-50 7-9 13-18 15-30 4-24-12-41-37-38a50 50 0 0 0-28 12 90 90 0 0 1-53 26c-24 1-37-14-33-37 3-19 13-35 25-49 9-11 14-24 13-38-2-16-12-27-28-27-14-1-26 2-37 12-13 11-28 20-45 24-28 7-46-9-41-37 4-18 13-33 24-47 9-10 14-22 14-36-1-17-12-29-28-30-13-1-25 2-36 11a98 98 0 0 1-39 24 72 72 0 0 1-15 3c-22 2-36-12-34-34 3-18 11-34 23-48 5-7 10-13 13-21 7-22 1-38-20-48h51c0 5 0 10-2 15-4 16-12 29-23 42-8 10-13 22-13 35 0 18 12 30 30 31 13 0 25-4 35-13 15-13 32-24 52-25 24-2 37 12 34 35-2 19-12 35-24 49-8 10-13 20-14 33-1 17 8 30 23 33s29 0 40-10c13-11 26-20 42-25 13-4 27-6 39 6 11 11 9 25 5 39-5 14-12 26-22 38-9 10-14 22-14 37 1 16 11 28 28 29 13 1 25-2 36-11 15-14 32-25 53-27 24-2 37 11 34 35-2 19-12 35-23 49-9 11-15 23-15 38 1 15 11 27 25 29s28-1 39-11c15-13 32-24 52-27z" class="cls-7"/><path id="path41" fill="#2e4254" d="M954 323c-20 3-37 14-52 27a48 48 0 0 1-39 11c-14-2-24-14-25-29 0-15 6-27 15-38 12-14 21-30 23-49 3-24-10-37-34-35-21 2-38 13-53 27-11 9-23 12-36 11-17-1-27-13-28-29 0-15 5-27 14-37 10-12 17-24 22-38 4-14 6-28-5-40s-26-9-39-5c-16 5-29 14-42 25a46 46 0 0 1-40 10c-15-3-24-16-23-33 1-13 6-23 14-33 12-14 21-30 24-49 3-23-10-37-34-35-20 1-37 12-52 25-10 9-22 13-35 13-18-1-30-13-30-31 0-13 5-25 13-35 11-13 19-26 23-42 2-5 2-10 2-15h22l-7 10a93 93 0 0 0-21 42c-6 27 11 44 38 39 19-4 35-14 49-26 11-10 24-13 39-11 12 1 21 9 23 21 5 17-1 31-12 44a96 96 0 0 0-25 53c-1 21 10 33 31 33a54 54 0 0 0 11-2c18-4 32-13 45-25 7-6 15-9 23-11 28-6 45 11 41 38-1 11-6 20-13 28-10 12-19 26-23 42-7 31 9 48 40 42a61 61 0 0 0 8-3c16-5 29-14 41-25s36-13 49-4c12 8 16 25 9 43-2 7-7 13-11 19-12 15-21 30-24 49-3 22 10 36 32 35a65 65 0 0 0 28-8l24-14z" class="cls-4"/><path id="path43" fill="#2e4255" d="M-140 244c20-3 36-14 51-27a45 45 0 0 1 20-10c13-3 27-3 37 8 10 12 9 25 4 39a53 53 0 0 1-10 18 121 121 0 0 0-20 32 65 65 0 0 0-5 21c-1 21 12 34 33 32 22-2 39-13 55-27 12-10 25-13 40-10 13 2 22 12 23 26 2 15-4 28-14 40s-19 26-23 43c-7 30 12 47 41 40 18-4 33-14 46-25 11-11 25-13 39-11 17 2 26 16 25 33-1 13-6 23-14 33a95 95 0 0 0-24 50c-3 24 11 38 35 34 20-2 37-13 52-26 10-9 22-12 36-12 16 1 27 13 28 30 0 14-5 25-13 36-11 13-20 27-24 43a38 38 0 0 0-1 12h-19c-2-4 2-5 4-8 10-13 18-27 21-44 5-25-11-42-37-37-18 3-34 13-48 25-9 8-19 12-31 13-21 2-37-13-35-35 1-12 6-22 14-32 12-14 21-29 24-48 4-26-12-41-39-36-18 4-33 13-47 25a49 49 0 0 1-36 13c-17-1-28-12-29-29-1-14 4-26 13-37 12-15 22-30 25-49 4-25-10-39-35-37-20 3-37 13-52 26-9 9-20 12-31 13-21 1-34-13-33-34 0-13 6-24 14-34 11-13 20-28 23-46 6-25-11-42-37-38-18 4-33 13-46 24z" class="cls-5"/><path id="path45" fill="#f1c31f" d="m954 308-24 14a65 65 0 0 1-28 8c-22 1-35-13-32-35 3-19 12-35 24-49 4-6 9-12 11-19 6-18 3-35-9-43-13-9-37-7-49 4s-25 20-41 25a61 61 0 0 1-8 3c-31 6-47-11-40-42 4-16 13-30 23-42 7-8 12-17 13-28 4-27-14-44-41-38-8 2-16 5-23 11a99 99 0 0 1-45 25 54 54 0 0 1-11 2c-21 0-32-12-31-33 2-21 13-37 25-53 11-13 17-27 13-44-3-12-12-20-24-21-15-2-28 1-39 11-14 12-30 22-49 26-27 5-44-12-38-39 3-16 11-30 21-42l7-10h11c-9 11-12 23-11 37s11 23 24 25c15 2 29-1 40-11 12-11 24-19 39-23 14-5 29-8 41 5 12 12 8 27 4 41-5 14-13 26-22 36a52 52 0 0 0-13 35c0 18 11 30 29 31 13 1 25-2 35-12 15-13 31-23 51-26 25-4 40 12 36 36-3 19-12 34-24 48-8 10-13 21-14 34-1 17 9 30 24 33 15 2 28-1 39-11 15-12 31-23 50-26 28-5 43 11 38 39-4 17-12 31-23 44-6 7-11 15-13 24-8 27 9 46 37 43l17-4z" class="cls-8"/><path id="path47" fill="#f1c31f" d="M-140 261c13-11 28-20 46-24 26-4 43 12 37 38-3 18-12 33-23 46-8 10-14 21-14 34-1 21 12 35 33 34 11-1 22-4 31-13 15-13 32-23 52-26 25-2 39 12 35 37-3 19-13 34-25 49-9 11-14 23-13 37 1 17 12 28 29 29 13 0 26-3 36-13 14-12 29-21 47-25 26-5 43 10 39 36-3 19-12 34-24 48-8 10-13 20-14 32-2 22 14 37 35 35 12-1 22-5 31-13 14-12 29-22 48-25 26-4 42 12 37 37-3 17-11 31-21 44-2 3-6 4-4 8h-12a51 51 0 0 0 7-16c8-28-8-48-37-44-9 1-18 4-25 11a98 98 0 0 1-42 24c-13 4-27 6-38-6-11-11-9-26-4-40 4-13 12-26 21-37 7-8 12-17 14-28 3-21-9-37-29-38-13-1-25 2-35 11a97 97 0 0 1-53 27c-23 3-38-12-35-34 3-19 11-34 23-48 7-9 13-18 15-30 5-25-13-43-38-39a52 52 0 0 0-27 13 90 90 0 0 1-55 25c-20 1-32-11-31-32a70 70 0 0 1 6-22c4-12 11-22 19-32 10-11 15-24 13-39-1-15-12-25-27-26a53 53 0 0 0-28 5z" class="cls-8"/><path id="path49" fill="#2e4255" d="m954 297-18 4c-27 3-44-16-36-43 2-9 7-17 13-24 11-13 19-27 23-44 5-28-10-44-38-39-19 3-35 14-50 26a46 46 0 0 1-39 11c-15-3-25-16-24-33 1-13 6-24 14-34 12-14 21-29 24-48 4-24-11-40-36-36-20 3-36 13-51 27-10 9-22 12-35 11-18-1-29-13-29-31a52 52 0 0 1 13-34c9-11 17-23 22-37 4-14 8-29-4-41-12-13-27-10-41-5-15 4-28 12-39 23a47 47 0 0 1-40 11c-13-2-22-12-24-25-1-14 2-26 11-37h20c-1 20 10 32 30 31 25-1 45-13 62-31h50c13 16 12 33 3 49l-13 18a88 88 0 0 0-19 45c-1 22 12 35 33 33a69 69 0 0 0 10-2c17-4 31-13 44-24 9-9 20-12 32-13 20-1 33 12 33 32 0 13-5 25-14 35a98 98 0 0 0-24 48c-4 26 11 40 37 36 19-3 35-12 49-25 15-13 32-16 51-9v64a81 81 0 0 0-24 56c0 16 9 26 24 28z" class="cls-5"/><path id="path51" fill="#2e4254" d="M-140 271a53 53 0 0 1 28-5c15 1 26 11 27 26 2 15-3 28-13 39-8 10-15 20-19 32a70 70 0 0 0-6 22c-1 21 11 33 31 32 22-1 39-12 55-25a52 52 0 0 1 27-13c25-4 43 14 38 39-2 12-8 21-15 30a95 95 0 0 0-23 48c-2 22 13 37 35 34 21-3 38-13 53-27 10-9 22-12 34-11 21 1 32 16 29 38-1 11-6 20-13 28-9 11-17 23-21 37-5 14-7 29 4 40 11 12 25 10 38 6 16-4 30-13 42-24 7-7 16-10 25-11 29-4 45 16 37 44a51 51 0 0 1-7 16h-23c1-16-8-28-23-29-26-2-48 10-65 29H79c-3-6-6-13-7-20 0-14 5-26 13-37 12-14 22-30 25-49 4-25-11-40-35-36-20 2-37 13-52 26a47 47 0 0 1-40 11c-13-2-22-12-24-25-1-16 4-29 14-41 11-14 21-29 24-47 4-26-11-41-36-37-20 2-36 12-50 25a47 47 0 0 1-51 8v-64c15-15 24-34 24-56 0-15-9-24-24-27z" class="cls-4"/><path id="path53" fill="#3db064" d="M-140 444c18 8 36 5 51-8 14-13 30-23 50-25 25-4 40 11 36 37-3 18-13 33-24 47a52 52 0 0 0-14 41c2 13 11 23 24 25 15 2 29-1 40-11 15-13 32-24 52-26 24-4 39 11 35 36-3 19-13 35-25 49-8 11-13 23-13 37 1 7 4 14 7 20H45c-1-6 2-11 4-16 4-12 12-23 20-33 9-11 14-23 13-37-2-15-11-26-26-28-14-1-27 2-38 11-12 11-26 20-42 25-13 4-27 6-38-6-11-11-9-24-5-38s12-27 22-39c9-11 14-23 14-38-1-16-12-27-29-28-13-1-26 3-36 12a99 99 0 0 1-44 25z" class="cls-7"/><path id="path55" fill="#2d4255" d="M-140 476c17-4 31-13 44-25 10-9 23-13 36-12 17 1 28 12 29 28 0 15-5 27-14 38-10 12-18 24-22 39-4 14-6 27 5 38s25 10 38 6c16-5 30-14 42-25 11-9 24-12 38-11 15 2 24 13 26 28 1 14-4 26-13 37-8 10-16 21-20 33-2 5-5 10-4 16H29l5-7c8-12 14-25 16-40 3-26-13-40-38-35-19 4-34 13-48 25a48 48 0 0 1-37 12c-16 0-27-12-28-28-1-15 5-27 14-38 12-14 21-30 24-50 3-22-10-36-32-35-14 1-26 7-38 14-2 1-4 4-7 2z" class="cls-9"/><path id="path57" fill="#3aa6db" d="M-140 486c3 2 5-1 7-2 12-7 24-13 38-14 23-1 35 13 32 35-3 20-12 36-24 50-9 11-15 23-14 38 1 16 12 28 28 28 14 1 26-2 37-12 14-12 29-21 48-25 25-5 41 9 38 35-2 15-8 28-16 40l-5 7H17l5-19c1-17-8-31-23-34s-29 0-40 10c-15 13-31 23-50 27-26 5-43-12-38-38 3-18 13-34 25-48 9-11 14-23 12-38-1-15-10-24-25-27-8-1-16 1-23 3z" class="cls-6"/><path id="path59" fill="#2e4255" d="M-140 502c7-2 15-4 23-3 15 3 24 12 25 27 2 15-3 27-12 38-12 14-22 30-25 48-5 26 12 43 38 38 19-4 35-14 50-27 11-10 25-13 40-10s24 17 23 34l-5 19h-28c1-3 0-6-2-9-6-11-16-14-28-14-20 2-36 11-51 23h-44c-4 0-5-1-5-4l1-57a78 78 0 0 0 17-38c2-16-2-29-17-36z" class="cls-5"/></g></g><path id="polyline64" fill="#2e4255" d="m152 327 27 30h33l94-15 43-49-19-89-30-19-54 2-54 28-33 36" class="cls-5" transform="translate(-56 -56)"/><path id="path66" fill="#fff" d="M255 401c-11 0-18-9-22-15l-2-2c-16-19-27-40-35-66a120 120 0 0 1-6-37v-1h-2c-2 5-2 11-2 17l-1 11a989 989 0 0 1-11 67c-3 8-9 13-17 13-4 0-9-3-12-7-7-8-7-22-6-32v-6l1-33c7-47 14-89 23-128v-1c2-7 5-22 20-22a17 17 0 0 1 13 6c6 6 6 16 5 22 0 13-2 27-4 40l-2 13c28-8 53-32 61-60 4-13 4-31-9-39-6-4-14-6-24-6-8 0-19 2-30 5-33 9-61 30-74 55-6 11-8 27 0 36l8 3h3c3 0 8 0 11 3a15 15 0 0 1 7 12c0 9-8 16-11 17a37 37 0 0 1-21 7 45 45 0 0 1-32-15 69 69 0 0 1-18-49c2-40 34-74 65-92 27-16 58-26 87-26a120 120 0 0 1 25 3c41 9 65 46 58 89-4 19-13 38-25 55a142 142 0 0 1-20 21 60 60 0 0 1-12 8 48 48 0 0 0-8 4c-1 2 1 10 2 13l1 5c1 8 4 16 7 23l16 37 7 17c3 7 8 17 3 26-1 3-5 7-13 9a20 20 0 0 1-4 0z" class="cls-10"/><path id="path68" fill="#2d4255" d="M218 100a112 112 0 0 1 23 2c37 8 58 42 51 80-3 18-12 36-23 50a134 134 0 0 1-19 21c-6 5-14 7-20 12s-1 18 0 25l8 25 23 54c4 8 10 20-3 23a12 12 0 0 1-3 0c-8 0-13-8-17-13-16-19-26-40-34-63a113 113 0 0 1-5-34v-8c-1-2-1-2-3-2h-2l-7-1a9 9 0 0 0-2 1 7 7 0 0 1-2 0 3 3 0 0 1-1 0l-1 3c-4 9-4 22-5 32l-5 32c-2 11-1 23-5 33-1 4-5 7-9 7-2 0-4-1-6-4-6-7-3-24-3-33l1-31c6-43 13-85 22-127 2-7 3-16 12-16 10 0 10 11 10 18-1 22-6 43-8 64 36-4 69-32 80-67 5-17 3-39-13-49-8-6-18-8-28-8-12 0-24 3-33 5-32 9-64 30-80 60-7 14-10 34 2 46 4 3 8 4 13 5 3 1 8 0 11 2 6 4 0 12-5 15a28 28 0 0 1-16 5 37 37 0 0 1-26-12 60 60 0 0 1-15-43c1-36 31-67 60-85 24-14 54-24 83-24m0-17a180 180 0 0 0-137 67 98 98 0 0 0-24 59 77 77 0 0 0 20 55 54 54 0 0 0 39 18 46 46 0 0 0 21-5l-5 32a222 222 0 0 0-2 39c0 12-1 27 8 38 5 7 12 10 20 10 10 0 20-7 24-18 3-9 4-18 5-26a129 129 0 0 1 3-23 199 199 0 0 0 34 61l2 2c5 6 14 18 29 18a29 29 0 0 0 6-1c12-2 17-9 19-14 6-12 1-25-3-32v-1l-7-16a707 707 0 0 1-23-59l-1-5-1-6 3-2a67 67 0 0 0 13-8 151 151 0 0 0 22-23c13-18 23-38 26-58 4-23 0-45-11-63a82 82 0 0 0-53-37 129 129 0 0 0-27-2zm-32 68a137 137 0 0 1 37-7c9 0 15 1 19 4 2 1 12 9 6 30s-23 39-42 48l4-39c0-6 1-19-7-28a26 26 0 0 0-17-8zm-61 73c-5-5-3-16 1-25 7-13 19-26 34-35l-5 15v1l-10 49c-6-4-11-4-15-4h-1a17 17 0 0 1-4-1z" class="cls-9"/><path id="path70" fill="#fff" d="M330 363c-13 0-20-8-25-17-4 5-9 10-16 13a23 23 0 0 1-8 1c-10 0-19-6-24-16-6-13-12-37-1-77l1-2c3-11 7-26 18-35a20 20 0 0 1 12-4 17 17 0 0 1 13 6 22 22 0 0 1 6 16l-5 28-3 15 3-6c5-10 6-18 6-31-1-29 10-58 28-77 10-10 25-16 38-16 14 0 24 7 30 20 6 15 6 31 3 47a17 17 0 0 1 7-6 16 16 0 0 1 6-1 11 11 0 0 1 10 6c5 9-4 26-4 27a146 146 0 0 1-20 23 96 96 0 0 1-9 8c-3 3-7 6-9 10a83 83 0 0 0-7 13l-4 10-2 2c-7 15-19 38-38 42a29 29 0 0 1-6 1zm9-57v4l2-4h-2zm32-103a56 56 0 0 0-5 6c-8 12-13 28-12 44 0 13 2 15 3 15a3 3 0 0 0 2 0c6-19 12-36 13-54a63 63 0 0 0-1-11z" class="cls-10"/><path id="path72" fill="#2d4255" d="M373 170c9 0 17 4 22 14 10 23 1 51-4 73 5-2 10-7 14-11 3-4 7-14 11-16a7 7 0 0 1 3-1c7 0 0 17-1 20l-19 22c-6 7-14 12-19 19s-8 16-12 24c-7 13-18 36-34 40a20 20 0 0 1-4 0c-14 0-19-16-23-27-5 8-12 20-21 24a14 14 0 0 1-5 1c-7 0-13-6-16-12-10-21-6-50-1-71 3-10 7-25 16-32a12 12 0 0 1 7-2c6 0 10 5 10 12-1 24-13 49-8 72 8-9 14-19 20-30 6-12 7-22 7-36-1-24 8-52 26-69 7-8 20-14 31-14m-16 107c5 0 9-2 10-6 6-19 12-38 13-57 0-5 1-20-5-22a4 4 0 0 0-2 0c-5 0-12 9-14 12a85 85 0 0 0-14 49c0 6 1 18 6 22a10 10 0 0 0 6 2m-25 54c7-5 12-13 17-20 2-4 4-7 2-10-4-3-15-5-20-6-1 12-1 24 1 36m41-179c-15 0-32 8-44 19a106 106 0 0 0-24 39 119 119 0 0 0-3 12 26 26 0 0 0-15-5 29 29 0 0 0-17 6c-14 11-18 28-22 40v2c-7 23-12 56 1 82 7 14 19 22 32 22a31 31 0 0 0 11-2 39 39 0 0 0 12-8c8 10 18 13 26 13a37 37 0 0 0 7-1c24-5 37-30 45-47l1-2 5-11a77 77 0 0 1 6-11l8-8a106 106 0 0 0 9-9l4-4c6-6 12-13 17-21l5-13c3-9 3-16 0-22a20 20 0 0 0-18-11 22 22 0 0 0-3 0c1-11 0-23-5-35-7-15-21-25-38-25z" class="cls-9"/><path id="path74" fill="#fff" d="M300 217c-8 0-14-5-15-12 0-5 1-9 3-12v-2l1-1 3-11c6-16 13-33 27-43a16 16 0 0 1 9-3 18 18 0 0 1 17 14c2 10-4 19-8 25l-4 6-9 13-3 6c-2 5-5 11-9 15a18 18 0 0 1-12 5z" class="cls-10"/><path id="path76" fill="#2d4255" d="M328 141a9 9 0 0 1 9 7c1 7-4 14-7 19l-13 20c-3 5-6 14-11 19a9 9 0 0 1-6 2c-3 0-6-1-6-4-1-3 2-8 3-10l3-13c5-13 12-29 24-38a7 7 0 0 1 4-2m0-17a24 24 0 0 0-15 5c-17 12-25 35-29 47l-4 11v2l-1 1c-1 4-3 9-2 16 1 11 11 20 23 20a26 26 0 0 0 18-8c5-5 9-12 11-18l3-5 8-12 4-6c5-7 12-19 10-32a26 26 0 0 0-26-21z" class="cls-9"/><circle id="circle78" cx="133.7" cy="216.6" r="8.1" fill="#40b265" class="cls-11"/><circle id="circle80" cx="141.4" cy="184.2" r="8.1" fill="#3aa7dd" class="cls-12"/><circle id="circle82" cx="163" cy="161.1" r="8.1" fill="#e28e13" class="cls-13"/><circle id="circle84" cx="195.4" cy="148.8" r="8.1" fill="#40b265" class="cls-11"/><circle id="circle86" cx="227.8" cy="148.8" r="8.1" fill="#3aa7dd" class="cls-12"/><circle id="circle88" cx="241.7" cy="175" r="8.1" fill="#e28e13" class="cls-13"/><circle id="circle90" cx="235.5" cy="199.6" r="8.1" fill="#40b265" class="cls-11"/><circle id="circle92" cx="210.8" cy="219.7" r="8.1" fill="#3aa7dd" class="cls-12"/></svg>