<svg xmlns="http://www.w3.org/2000/svg" id="Layer_1" width="367.1" height="552" version="1.1"><defs id="defs950"><style id="style948">.cls-1{fill:#f9bd53}.cls-4{fill:#4c0010}</style></defs><g id="g971" transform="translate(-116.5 -24)"><path id="path954" fill="#f9bd53" d="M236.8 70.2S115.1 138.3 116.5 378l35.4-30.2-6.4 131.1 44.3-29 183.8 126-98-242" class="cls-1"/><path id="polyline956" fill="#f9bd53" d="m373.6 576 64-65.5 28.8-162.7-13.7-37.8L268 292.3l-9.3 52.4 23.7 66" class="cls-1"/><g id="g969"><path id="path958" fill="#f9bd53" d="m483.2 523.4-1.1-39c-1-30.8-1.8-62.6-2.5-93.9-.3-12.3-.3-24.8-.3-37 0-12.9 0-26.2-.4-39.3v-8.8c-.2-12.6-.3-25.5-3.9-38.2-10.5-37.1-36.8-66.2-82.8-91.6l-.3-.2.3-6.4c.4-10.5.8-20.4 4.2-28.5 8.8-20.6 19.7-41.2 30.1-61.1L440 53.7l2.8-6L450 31l-16.3-2c-56.9-7.2-68.1-7.4-115.4 4.9-79.3 20.7-131.1 65.9-154 134.4-15 44.7-16.3 94.3-4.2 156 1.3 6.6 8.7 12.8 16.3 14a48.1 48.1 0 0 0 1.8 8l14 67.2 29.9-10.8L204 440l169.6 136L363 370.8l-8.8-2.3c-17.7-4.7-54.5-16.7-62.7-36.5l11 2a9733 9733 0 0 0 81.2 15.2c.5 10.6.2 23.2-5.7 30.8l-5.7 7.6 44.9 46.3 9-14.2 4.4-6.9a418 418 0 0 0 4.7-7.3 314.7 314.7 0 0 1-21.3 60.3c-4 8.5-6.3 11-10.8 11.8l-21.6 3.8 14.1 15.3c12 13 55.6 37 73.3 38.6l14.5 1.4-.3-13.3zM178.9 315a31.4 31.4 0 0 1 1.6 0h-1.6zm259.5 29.6-.4 3.1-.5-2.8.9-.3z" class="cls-1"/><g id="KrwZmf"><path id="path960" fill="#4c0010" d="m219.6 436.9 25.6-52.9-1.8-1.7-41.5 15-11.1-53.2c-.6-2.7-1.5-5.4-1.7-8.1-.4-5.7-2.1-9.4-9.7-9.1-2.2 0-14.9-2.7-15.3-4.7-9.8-50.4-4.2-100.7 12.5-150.4 22.3-67 72.9-107.8 145.2-126.6 45.8-12 55.2-11.5 110-4.6-1.2 2.9-2.3 5.6-3.6 8.2-14.8 29-31 57.6-43.8 87.5-5.7 13.3-4.5 29.1-5.8 44-.1 1.6 4.2 3.8 6.9 5.3 36.4 20.1 66 45.8 77 84.5 4 14.1 3.2 29.5 3.5 44.3.6 25.5.1 51 .7 76.4 1 44.2 2.3 88.5 3.6 132.9-13.2-1.2-54.2-23.2-64.8-34.6 11.6-2 16.3-10.1 20.3-18.6 14.6-31 23.7-63.3 28.8-96.6.7-4.7-2-10-2.7-15-.6-4.2-1.6-8.7-.7-12.8 1.4-6.4 4.3-12.6 7.1-20.4-11.2 3.7-21.4 6.7-31.2 10.5-1.8.7-3.3 4.9-3 7.1 2 11.7 4.8 23.2 6.6 35 .7 3.9.6 8.5-1.2 12-4.1 8-9.4 15.4-14.6 23.6l-26.3-27.2c7.9-10.3 8.7-25 7.8-40.1-.3-4.6-1.5-7.3-7.5-8.4-37.1-6.7-74.2-13.8-111.3-20.8-5.4 26 20.9 48.6 73 62.4l8.6 169.1c-48-38.5-94-75.5-139.7-112z" class="cls-4"/></g><path id="path963" fill="#f7a706" d="M365.8 107.7 386.7 64c-1.6 0-6.8 1.6-8.2 1.6-12.3 0-23 1.8-47.6 8.3-64.4 16.7-104.6 51.6-123 106.5l-18 74.7 31-16c9 7.5 21.1 12.1 34.4 12.1h6.2l76.6-6.3-25-33.5-43.6 4s-18.4.5-16-14.6c2.4-14.3 9.2-84 112.3-93.2z"/><path id="path965" fill="#900018" d="m345.8 208 70 102 23.9-8.5s-3.2-76.8-93.9-93.5z"/><path id="polygon967" fill="#4c0010" d="m317.5 396.7-27.4-9V425l-35 9 70.1 52.2z" class="cls-4"/></g></g></svg>