<svg xmlns="http://www.w3.org/2000/svg" width="1032" height="1974" fill="none" viewBox="0 0 1032 1974"><g fill-rule="evenodd" clip-path="url(#a)" clip-rule="evenodd"><path fill="#fff" d="M457.997 1.413c-34.527 6.13-64.803 23.726-84.455 49.087-15.029 19.395-23.928 39.951-28.74 66.389-2.988 16.422-2.985 46.614.008 63.111 6.821 37.593 22.001 67.022 47.865 92.792l8.322 8.293-.008 91.707-.009 91.708-6.106 8.5c-3.359 4.675-9.09 14.593-12.737 22.041l-6.629 13.541-20.585 13.204c-29.923 19.194-43.144 30.923-55.242 49.009-28.598 42.753-23.665 99.227 11.847 135.624 12.446 12.756 32.11 24.969 48.712 30.253l5.743 1.828.007 14.689.007 14.69-8.75 2.663c-20.309 6.182-47.66 17.2-70.75 28.503-71.043 34.774-135.192 87.714-183.524 151.455-59.075 77.91-94.4 171.96-102.035 271.67-2.427 31.69-.398 82.81 4.578 115.33 11.041 72.15 39.067 144.39 79.726 205.5 57.974 87.13 142.023 155.34 237.684 192.9 16.332 6.41 44.635 16.02 51.587 17.51 2.903.62 3.122 1.06 5.833 11.7 6.766 26.55 17.263 54.26 30.27 79.89 16.222 31.97 31.067 52.77 54.32 76.13 26.74 26.86 55.34 45.57 78.267 51.22 10.382 2.55 37.872 2.32 48.326-.42 17.33-4.54 31.803-13.28 45.095-27.24 9.816-10.3 16.142-20.4 20.512-32.75 5.753-16.26 5.858-17.92 5.891-93.3l.031-69.14 11.906-3.84c38.485-12.42 83.109-34.13 119.533-58.17 57.592-38 109.396-89.89 146.746-146.99 55.178-84.35 83.707-180.27 83.737-281.5.03-102.19-30.285-201.27-87.663-286.5-56.581-84.046-139.015-150.872-232.82-188.736-5.5-2.221-16.975-6.454-25.5-9.408l-15.5-5.371-.256-82.348-.255-82.347 18.41-12.09c28.412-18.658 43.858-34.677 54.67-56.7 15.01-30.573 15.536-63.407 1.49-93.123-5.59-11.826-11.15-19.924-20.147-29.341-12.227-12.799-29.933-24.015-47.618-30.166l-6.707-2.333-.357-112.518c-.39-122.647-.261-119.663-6.355-146.94-6.524-29.201-19.797-54.141-37.579-70.609-19.885-18.418-64.097-38.415-105.296-47.625-11.673-2.609-44.147-3.447-55.5-1.432m7.585 35.624c-23.149 3.647-42.735 13.864-58.362 30.444-12.118 12.856-19.612 27.116-24.934 47.445-3.694 14.108-4.378 41.545-1.461 58.574 5.013 29.268 16.647 52.159 36.955 72.718 4.737 4.796 10.989 10.421 13.893 12.5l5.281 3.782.021 107.851.022 107.851-6.035 7.502c-10.619 13.199-18.393 27.153-22.488 40.361l-1.726 5.565-21.625 13.871c-28.312 18.16-33.068 21.537-41.379 29.376-31.96 30.15-35.282 73.986-7.899 104.244 12.717 14.054 32.078 23.735 57.031 28.518l9.121 1.749v86.535l-4.25 1.098c-35.774 9.243-64.202 19.752-96.25 35.578-26.105 12.892-61.988 35.044-76.431 47.183l-3.431 2.884 13.087 13.133C295.606 956.9 341.155 1036.85 361.893 1119l3.912 15.5 2.822-.22c1.552-.12 12.058-1.34 23.346-2.71 19.009-2.31 51.084-5.23 64.024-5.82l5.5-.25.252-268.75.252-268.75h-2.034c-5.991 0-14.569 6.518-18.152 13.794-2.004 4.069-2.386 6.679-2.818 19.282-.476 13.871-.635 14.78-3.29 18.789-5.454 8.235-14.621 11.272-28.131 9.318-15.24-2.203-25.222-6.696-28.911-13.011-1.672-2.864-1.782-3.85-.792-7.152 2.359-7.874 8.248-12.586 46.975-37.586l36.887-23.812.601-7.109c1.621-19.177 11.232-36.125 27.536-48.559l7.125-5.433-.003-140.511-.002-140.51-7.802-2.755c-17.322-6.117-33.563-20.526-41.599-36.905-2.52-5.137-5.302-12.04-6.182-15.34-2.169-8.135-2.977-29.221-1.463-38.196 4.261-25.263 24.043-39.336 49.978-35.556 10.675 1.556 36.081 10.116 49.71 16.75 13.55 6.595 17.008 10.161 20.641 21.293 6.541 20.041 6.688 24.91 6.706 221.084l.016 175.375 3.229-.646c13.116-2.623 20.707-15.206 19.308-32.006-.852-10.22.559-16.182 5.078-21.461 4.683-5.472 10.749-7.662 20.885-7.543 13.402.158 29.863 5.803 33.954 11.644 4.218 6.022-.313 15.698-11.1 23.702-3.38 2.508-20.817 13.974-38.75 25.481l-32.604 20.92V1125.6l18.25 1.21c10.038.66 26.35 2.13 36.25 3.25 9.9 1.13 20.362 2.31 23.25 2.63 4.992.56 5.25.48 5.25-1.73 0-4.41 6.054-31.84 10.024-45.42 15.219-52.05 42.062-99.457 80.136-141.54 16.488-18.225 43.063-41.398 60.437-52.701 4.057-2.639 7.383-5.139 7.39-5.555.019-1.103-20.633-16.277-34.127-25.074-42.021-27.394-91.535-49.509-138.11-61.685l-8.75-2.288v-212.58l10.543-6.809c36.169-23.357 41.225-26.942 49-34.74 9.659-9.689 16.666-20.615 20.762-32.374 3.908-11.217 4.841-26.946 2.282-38.448-6.983-31.389-35.077-53.927-75.787-60.802l-6.7-1.132-.374-124.656c-.338-112.894-.54-125.788-2.145-136.656-4.929-33.385-13.789-54.516-29.251-69.766-7.385-7.283-12.106-10.469-25.83-17.426-17.493-8.868-39.956-17.021-61.5-22.32-9.771-2.403-32.815-3.463-42.415-1.951M149.385 951.235C87.512 1023.73 48.245 1115.82 38.613 1211c-1.742 17.22-3.017 37-2.385 37 .248 0 6.26-3.41 13.36-7.57 26.493-15.52 73.009-37.51 107.409-50.77 32.836-12.65 69.626-24.41 105.211-33.64 10.469-2.71 19.225-5.12 19.459-5.36.545-.54-3.893-18.22-7.822-31.16-7.065-23.27-22.702-58.56-35.94-81.12-12.325-21-29.01-44.307-45.34-63.329-9.801-11.418-26.668-28.562-31.449-31.966l-2.97-2.115zm715.612-.153c-16.696 9.155-37.22 25.052-54.06 41.872-21.506 21.476-38.508 45.226-51.939 72.546-9.019 18.35-13.665 30.43-18.586 48.36-3.072 11.19-7.828 34.19-7.164 34.65.137.09 10.599 2.76 23.249 5.92 69.863 17.49 133.979 41.14 202.406 74.69 16.724 8.19 30.569 14.74 30.766 14.54.641-.64-1.748-29.75-3.719-45.32-7.634-60.28-28.534-122.44-58.958-175.34-13.594-23.637-37.573-57.685-50.479-71.677l-4.016-4.354zm-432 261.468c-12.629 1.14-57.303 6.42-57.613 6.81-.062.08-.638 9.82-1.28 21.64-1.725 31.75-4.435 50.31-11.609 79.5-8.178 33.27-18.562 61.34-34.558 93.41-29.958 60.07-70.157 113.3-127.387 168.69l-19.947 19.31 1.947 2.18c1.071 1.2 7.797 7.34 14.947 13.65 56.019 49.4 123.484 85.2 196.239 104.12l14.71 3.83 2.762 12.4c19.051 85.59 58.808 150.26 114.516 186.3 17.001 11 30.538 15.31 44.886 14.3 24.664-1.74 44.591-17.26 53.118-41.36l2.769-7.83.288-83.11.287-83.11 8.713-2.27c70.276-18.38 141.172-56.76 196.009-106.13l5.133-4.62-13.755-16.51c-52.764-63.34-90.692-120.73-121.769-184.25-23.081-47.18-38.825-92.43-47.832-137.5-2.879-14.41-6.574-41.18-6.574-47.64 0-3.65-.386-4.56-2.25-5.26-4.386-1.66-63.12-8.08-74-8.1h-3.75v333.5c0 267.39-.25 333.5-1.259 333.5-2.053 0-16.634-10.21-25.241-17.67-40.437-35.06-70.231-103.57-77.492-178.19-.644-6.61-1.008-93.48-1.008-240.75V1211l-7.25.12c-3.988.06-13.775.71-21.75 1.43m301.456 28.28c1.585 11.24 6.906 35.09 11.046 49.51 21.392 74.53 67.381 156.27 133.91 238.01 6.649 8.17 12.681 15.59 13.406 16.5 1.195 1.5 1.55 1.37 3.798-1.35 4.664-5.64 23.182-33.99 30.38-46.5 19.728-34.3 36.669-75.52 47.053-114.5 4.251-15.96 9.937-43.83 9.11-44.66-1.615-1.62-36.849-20.24-59.159-31.27-53.189-26.29-110.978-48.55-163.973-63.17-9.09-2.51-18.71-5.16-21.379-5.9l-4.851-1.34zm-467.325 1.73c-86.098 24.23-163.531 59.28-212.313 96.1-5.324 4.02-9.936 7.72-10.247 8.23-.73 1.18 2.513 16.96 7.002 34.06 13.218 50.36 34.574 98.07 63.684 142.26l9.034 13.72 3.104-2.17c5.887-4.12 44.245-43.3 56.897-58.11 60.223-70.5 94.478-142.69 103.233-217.53 1.84-15.73 1.906-22.14.225-22.07-.687.03-9.966 2.51-20.619 5.51"/><path fill="#005430" d="M465.589 37.037c-23.149 3.647-42.735 13.864-58.362 30.444-12.118 12.856-19.612 27.116-24.934 47.445-3.694 14.108-4.378 41.545-1.461 58.574 5.013 29.268 16.647 52.159 36.955 72.718 4.737 4.796 10.989 10.421 13.893 12.5l5.281 3.782.021 107.851.022 107.851-6.035 7.502c-10.619 13.199-18.393 27.153-22.488 40.361l-1.726 5.565-21.625 13.871c-28.312 18.16-33.068 21.537-41.379 29.376-31.96 30.15-35.282 73.986-7.899 104.244 12.717 14.054 32.078 23.735 57.031 28.518l9.121 1.749v86.535l-4.25 1.098c-35.774 9.243-64.202 19.752-96.25 35.578-26.105 12.892-61.988 35.044-76.431 47.183l-3.431 2.884 13.087 13.133C295.613 956.9 341.162 1036.85 361.9 1119l3.912 15.5 2.822-.22c1.552-.12 12.058-1.34 23.346-2.71 19.009-2.31 51.084-5.23 64.024-5.82l5.5-.25.252-268.75.252-268.75h-2.034c-5.991 0-14.569 6.518-18.152 13.794-2.004 4.069-2.386 6.679-2.818 19.282-.476 13.871-.635 14.78-3.29 18.789-5.454 8.235-14.621 11.272-28.131 9.318-15.24-2.203-25.222-6.696-28.911-13.011-1.672-2.864-1.782-3.85-.792-7.152 2.359-7.874 8.248-12.586 46.975-37.586l36.887-23.812.601-7.109c1.621-19.177 11.232-36.125 27.536-48.559l7.125-5.433-.003-140.511-.002-140.51-7.802-2.755c-17.322-6.117-33.563-20.526-41.599-36.905-2.52-5.137-5.302-12.04-6.182-15.34-2.169-8.135-2.977-29.221-1.463-38.196 4.261-25.263 24.043-39.336 49.978-35.556 10.675 1.556 36.081 10.116 49.71 16.75 13.55 6.595 17.008 10.161 20.641 21.293 6.541 20.041 6.688 24.91 6.706 221.084l.016 175.375 3.229-.646c13.116-2.623 20.707-15.206 19.308-32.006-.852-10.22.559-16.182 5.078-21.461 4.683-5.472 10.749-7.662 20.885-7.543 13.402.158 29.863 5.803 33.954 11.644 4.218 6.022-.313 15.698-11.1 23.702-3.38 2.508-20.817 13.974-38.75 25.481l-32.604 20.92V1125.6l18.25 1.21c10.038.66 26.35 2.13 36.25 3.25 9.9 1.13 20.362 2.31 23.25 2.63 4.992.56 5.25.48 5.25-1.73 0-4.41 6.054-31.84 10.024-45.42 15.219-52.05 42.062-99.457 80.136-141.54 16.488-18.225 43.063-41.398 60.437-52.701 4.057-2.639 7.383-5.139 7.39-5.555.019-1.103-20.633-16.277-34.127-25.074-42.021-27.394-91.535-49.509-138.11-61.685l-8.75-2.288v-212.58l10.543-6.809c36.169-23.357 41.225-26.942 49-34.74 9.659-9.689 16.666-20.615 20.762-32.374 3.908-11.217 4.841-26.946 2.282-38.448-6.983-31.389-35.077-53.927-75.787-60.802l-6.7-1.132-.374-124.656c-.338-112.894-.54-125.788-2.145-136.656-4.929-33.385-13.789-54.516-29.251-69.766-7.385-7.283-12.106-10.469-25.83-17.426-17.493-8.868-39.956-17.021-61.5-22.32-9.771-2.403-32.815-3.463-42.415-1.951M149.392 951.235C87.519 1023.73 48.251 1115.82 38.62 1211c-1.742 17.22-3.017 37-2.385 37 .248 0 6.26-3.41 13.36-7.57 26.493-15.52 73.009-37.51 107.409-50.77 32.836-12.65 69.626-24.41 105.211-33.64 10.469-2.71 19.225-5.12 19.459-5.36.545-.54-3.893-18.22-7.822-31.16-7.065-23.27-22.702-58.56-35.94-81.12-12.325-21-29.01-44.307-45.34-63.329-9.801-11.418-26.668-28.562-31.449-31.966l-2.97-2.115zm715.612-.153c-16.696 9.155-37.22 25.052-54.06 41.872-21.506 21.476-38.508 45.226-51.939 72.546-9.019 18.35-13.665 30.43-18.586 48.36-3.072 11.19-7.828 34.19-7.164 34.65.137.09 10.599 2.76 23.249 5.92 69.863 17.49 133.979 41.14 202.406 74.69 16.724 8.19 30.569 14.74 30.766 14.54.641-.64-1.748-29.75-3.719-45.32-7.634-60.28-28.534-122.44-58.958-175.34-13.594-23.637-37.573-57.685-50.479-71.677l-4.016-4.354zm-432 261.468c-12.629 1.14-57.303 6.42-57.613 6.81-.062.08-.638 9.82-1.28 21.64-1.725 31.75-4.435 50.31-11.609 79.5-8.178 33.27-18.562 61.34-34.558 93.41-29.958 60.07-70.157 113.3-127.387 168.69l-19.947 19.31 1.947 2.18c1.071 1.2 7.797 7.34 14.947 13.65 56.019 49.4 123.484 85.2 196.239 104.12l14.71 3.83 2.762 12.4c19.051 85.59 58.808 150.26 114.516 186.3 17.001 11 30.538 15.31 44.886 14.3 24.664-1.74 44.591-17.26 53.118-41.36l2.769-7.83.288-83.11.287-83.11 8.713-2.27c70.276-18.38 141.172-56.76 196.009-106.13l5.133-4.62-13.755-16.51c-52.764-63.34-90.692-120.73-121.769-184.25-23.081-47.18-38.825-92.43-47.832-137.5-2.879-14.41-6.574-41.18-6.574-47.64 0-3.65-.386-4.56-2.25-5.26-4.386-1.66-63.12-8.08-74-8.1h-3.75v333.5c0 267.39-.25 333.5-1.259 333.5-2.053 0-16.634-10.21-25.241-17.67-40.437-35.06-70.231-103.57-77.492-178.19-.644-6.61-1.008-93.48-1.008-240.75V1211l-7.25.12c-3.988.06-13.775.71-21.75 1.43m301.456 28.28c1.585 11.24 6.906 35.09 11.046 49.51 21.392 74.53 67.381 156.27 133.91 238.01 6.649 8.17 12.681 15.59 13.406 16.5 1.195 1.5 1.55 1.37 3.798-1.35 4.664-5.64 23.182-33.99 30.38-46.5 19.728-34.3 36.669-75.52 47.053-114.5 4.251-15.96 9.937-43.83 9.11-44.66-1.615-1.62-36.849-20.24-59.159-31.27-53.189-26.29-110.978-48.55-163.973-63.17-9.09-2.51-18.71-5.16-21.379-5.9l-4.851-1.34zm-467.325 1.73c-86.098 24.23-163.531 59.28-212.313 96.1-5.324 4.02-9.936 7.72-10.247 8.23-.731 1.18 2.513 16.96 7.002 34.06 13.218 50.36 34.574 98.07 63.684 142.26l9.034 13.72 3.104-2.17c5.887-4.12 44.245-43.3 56.897-58.11 60.223-70.5 94.478-142.69 103.233-217.53 1.84-15.73 1.906-22.14.225-22.07-.687.03-9.966 2.51-20.619 5.51"/></g><defs><clipPath id="a"><path fill="#fff" d="M0 0h1032v1974H0z"/></clipPath></defs></svg>