<svg xmlns="http://www.w3.org/2000/svg" id="Layer_1" data-name="Layer 1" version="1.1" width="273.578" height="334.036"><defs id="defs4"><style id="style2">.cls-22{fill:#b59261}.cls-22,.cls-24,.cls-26{stroke:#4c2c11;stroke-linecap:round;stroke-linejoin:round}.cls-24{fill:none}.cls-26{fill:#875f30}.cls-22{stroke-width:6.27px}.cls-24{stroke-width:5.27px}.cls-26{stroke-width:3.76px}</style></defs><path d="M221.35 21.827a13.75 13.75 0 0 0-6.54-13.13l-4.84-2.95a13.75 13.75 0 0 0-14.68.19 21.84 21.84 0 0 0-17.58-4.3l-53.2 12.92a159.85 159.85 0 0 0-99.42 72.46 162.23 162.23 0 0 0-19.57 121.6c.05.26.11.54.2.93l.1.39.15.66c.07.27.14.53.22.79a161.37 161.37 0 0 0 194.34 116.82l53.19-12.89a13.5 13.5 0 0 0 2.25-.75h.08a21.35 21.35 0 0 0 15.67-25.76l-.27-1.12a21.51 21.51 0 0 0-2.77-6.48 21.35 21.35 0 0 0-.51-7l-.27-1.11a21.27 21.27 0 0 0-3.13-7 21.24 21.24 0 0 0-.44-7.69l-.27-1.12a21.24 21.24 0 0 0-2.76-6.48 21.35 21.35 0 0 0-.51-7l-.27-1.11a21.34 21.34 0 0 0-25.74-15.7l-43.26 10.48-12.34 2.88a70.88 70.88 0 1 1-33.26-137.8l12-3 41-9.93a21.91 21.91 0 0 0 13.73-12.07 13.72 13.72 0 0 0 13.13-6.55l3-4.84a13.73 13.73 0 0 0-.19-14.67 13.73 13.73 0 0 0 4.61-13.94l-1.34-5.5a13.74 13.74 0 0 0-10.51-10.23z" id="path228" style="fill:#33d9ff;stroke:#33d9ff;stroke-width:2.50999999px;stroke-miterlimit:10"/><path d="m218.96 28.437-6.06-.43 1.43-5.91a6.87 6.87 0 0 0-3.11-7.54l-4.84-2.95a6.88 6.88 0 0 0-8.11.67l-4.59 4-3.16-5.19a6.88 6.88 0 0 0-7.52-3.11l-1 .24a6.92 6.92 0 0 0-2.68.11l-53.19 12.89a153 153 0 0 0-95.15 69.34 155.33 155.33 0 0 0-18.7 116.65c0 .17.06.36.11.57l.13.48.16.69a5.08 5.08 0 0 0 .15.52 154.46 154.46 0 0 0 186.07 112.09l53.2-12.89a6.76 6.76 0 0 0 1.57-.59l.76-.18a14.44 14.44 0 0 0 10.61-17.42l-.27-1.11a14.42 14.42 0 0 0-3.36-6.34 14.38 14.38 0 0 0 .09-7.17l-.27-1.12a14.37 14.37 0 0 0-3.87-6.86 14.3 14.3 0 0 0 .3-7.87l-.27-1.11a14.44 14.44 0 0 0-3.37-6.34 14.5 14.5 0 0 0 .1-7.17l-.27-1.12a14.45 14.45 0 0 0-17.42-10.71l-43.32 10.5-12.27 2.86a77.78 77.78 0 1 1-36.58-151.19l12.1-3 41-9.94a6.76 6.76 0 0 0 2.54-1.2l.88-.21a6.89 6.89 0 0 0 5.25-6.21l.44-6.06 5.9 1.43a6.87 6.87 0 0 0 7.51-3.11l3-4.84a6.88 6.88 0 0 0-.68-8.1l-4-4.6 5.18-3.16a6.87 6.87 0 0 0 3.12-7.51l-1.34-5.51a6.88 6.88 0 0 0-6.2-5.27z" id="path230" style="fill:#4c2c11;stroke:#4c2c11;stroke-width:2.50999999px;stroke-miterlimit:10"/><path class="cls-22" d="m247.41 246.957-.27-1.11a7.52 7.52 0 0 0-9.08-5.54l-2.38.57-1.79.44-39.17 9.5-12.22 2.84a84.76 84.76 0 0 1-102.23-62.35v0a84.76 84.76 0 0 1 62.35-102.23l12.1-3.06 41-9.94-14.79-61-53.21 12.86C48.91 47.037.35 126.107 19.06 206.127v0c0 .2.1.4.15.6.05.2.09.41.14.62v0a147.58 147.58 0 0 0 177.93 107.46l53.19-12.89v-.2l2.37-.58a7.52 7.52 0 0 0 5.54-9.08l-.27-1.12a7.53 7.53 0 0 0-6.15-5.66 7.53 7.53 0 0 0 2.88-7.85l-.27-1.11a7.53 7.53 0 0 0-9.09-5.54l-2.37.57v-.1l2.38-.58a7.52 7.52 0 0 0 5.54-9.08l-.27-1.12a7.54 7.54 0 0 0-6.15-5.66 7.52 7.52 0 0 0 2.8-7.85z" id="path232" style="fill:#b59261;stroke:#4c2c11;stroke-width:6.26999998px;stroke-linecap:round;stroke-linejoin:round"/><path d="m238.06 240.307-2.38.57-1.79.44-39.17 9.5-12.22 2.84a84.81 84.81 0 0 1-90.6-35.64l22.51 92.87a146.84 146.84 0 0 0 82.91 3.92l53.19-12.89v-.2l2.37-.58a7.52 7.52 0 0 0 5.54-9.08l-.27-1.12a7.53 7.53 0 0 0-6.15-5.66 7.53 7.53 0 0 0 2.88-7.85l-.27-1.11a7.53 7.53 0 0 0-9.09-5.54l-2.37.57v-.1l2.38-.58a7.52 7.52 0 0 0 5.54-9.08l-.27-1.12a7.54 7.54 0 0 0-6.15-5.66 7.52 7.52 0 0 0 2.87-7.85l-.27-1.11a7.52 7.52 0 0 0-9.19-5.54z" id="path234" style="opacity:.5;fill:#724925;stroke:#4c2c11;stroke-width:5.26999998px;stroke-linecap:round;stroke-linejoin:round"/><path class="cls-24" d="m34.54 202.387-3.55-14.63c-8.27-65.93 34.24-129.2 100.32-145.2l38.56-9.34 7.71 31.78-26.52 6.42-12.1 3.05a99.88 99.88 0 0 0-75.8 105.5l3.56 14.59" id="path236" style="fill:none;stroke:#4c2c11;stroke-width:5.26999998px;stroke-linecap:round;stroke-linejoin:round"/><path class="cls-22" id="polygon238" style="fill:#b59261;stroke:#4c2c11;stroke-width:6.26999998px;stroke-linecap:round;stroke-linejoin:round" transform="translate(-588.28 -256.443)" d="m795.9 276.92-4.83-2.95-10.76 9.3-7.4-12.14-5.51 1.34-1.03 14.18-13.82-3.35-2.95 4.84 9.31 10.75-12.14 7.41 1.33 5.51 14.18 1.02-3.35 13.82 4.84 2.95 10.76-9.3 7.4 12.14 5.51-1.34 1.03-14.18 13.82 3.35 2.95-4.84-9.31-10.75 12.14-7.41-1.33-5.51-14.18-1.02z"/><circle cx="189.17" cy="45.477" r="9.68" id="circle240" style="fill:#724925;stroke:#4c2c11;stroke-width:5.26999998px;stroke-linecap:round;stroke-linejoin:round"/><path class="cls-24" id="line242" style="fill:none;stroke:#4c2c11;stroke-width:5.26999998px;stroke-linecap:round;stroke-linejoin:round" d="m66.71 194.587 25.45 105.03"/><path class="cls-24" d="m242.88 254.617-44.79 10.86-12.15 2.83a99.77 99.77 0 0 1-93.08-25.61" id="path244" style="fill:none;stroke:#4c2c11;stroke-width:5.26999998px;stroke-linecap:round;stroke-linejoin:round"/><path class="cls-24" d="M105.54 290.967a131.92 131.92 0 0 0 88.2 9.21l58.07-14.07" id="path246" style="fill:none;stroke:#4c2c11;stroke-width:5.26999998px;stroke-linecap:round;stroke-linejoin:round"/><path class="cls-24" id="line248" style="fill:none;stroke:#4c2c11;stroke-width:5.26999998px;stroke-linecap:round;stroke-linejoin:round" d="m34.54 202.387 15.06 62.16"/><path class="cls-24" d="M187.12 284.837a112.61 112.61 0 0 1-87.69-15.06" id="path250" style="fill:none;stroke:#4c2c11;stroke-width:5.26999998px;stroke-linecap:round;stroke-linejoin:round"/><path class="cls-24" id="line252" style="fill:none;stroke:#4c2c11;stroke-width:5.26999998px;stroke-linecap:round;stroke-linejoin:round" d="m206.4 280.287-19.28 4.55"/><path class="cls-24" id="line254" style="fill:none;stroke:#4c2c11;stroke-width:5.26999998px;stroke-linecap:round;stroke-linejoin:round" d="m242.66 271.497-48.45 11.74"/><path class="cls-24" d="m72.42 288.257-18.21-75.16-3.49-14.62-3.55-14.63-1.06-16.56c1.21-50.41 35.61-95.73 86.34-108.06l11.91-3 11.89-2.89" id="path256" style="fill:none;stroke:#4c2c11;stroke-width:5.26999998px;stroke-linecap:round;stroke-linejoin:round"/><path class="cls-24" d="m79.13 185.997 25.49 105.19s3.4 20.43 23.77 23.8" id="path258" style="fill:none;stroke:#4c2c11;stroke-width:5.26999998px;stroke-linecap:round;stroke-linejoin:round"/><circle class="cls-26" cx="219.31" cy="301.877" r="1.5" id="circle260" style="fill:#875f30;stroke:#4c2c11;stroke-width:3.75999999px;stroke-linecap:round;stroke-linejoin:round"/><circle class="cls-26" cx="153.35" cy="295.927" r="1.5" id="circle262" style="fill:#875f30;stroke:#4c2c11;stroke-width:3.75999999px;stroke-linecap:round;stroke-linejoin:round"/><circle class="cls-26" cx="219.98" cy="251.397" r="1.5" id="circle264" style="fill:#875f30;stroke:#4c2c11;stroke-width:3.75999999px;stroke-linecap:round;stroke-linejoin:round"/><circle class="cls-26" cx="63.33" cy="221.067" r="1.5" id="circle266" style="fill:#875f30;stroke:#4c2c11;stroke-width:3.75999999px;stroke-linecap:round;stroke-linejoin:round"/><circle class="cls-26" cx="56.29" cy="256.907" r="1.5" id="circle268" style="fill:#875f30;stroke:#4c2c11;stroke-width:3.75999999px;stroke-linecap:round;stroke-linejoin:round"/><circle class="cls-26" cx="42.65" cy="135.747" r="1.5" id="circle270" style="fill:#875f30;stroke:#4c2c11;stroke-width:3.75999999px;stroke-linecap:round;stroke-linejoin:round"/><circle class="cls-26" cx="129.53" cy="68.247" r="1.5" id="circle272" style="fill:#875f30;stroke:#4c2c11;stroke-width:3.75999999px;stroke-linecap:round;stroke-linejoin:round"/><circle class="cls-26" cx="134.03" cy="33.597" r="1.5" id="circle274" style="fill:#875f30;stroke:#4c2c11;stroke-width:3.75999999px;stroke-linecap:round;stroke-linejoin:round"/><path d="m105.54 290.967-21-86.54 12.85 19.91 15 61.9c3.41 15.41 15.78 24.2 25 28.74a59.47 59.47 0 0 0 10.79 4.13s-39.04-2.39-42.64-28.14z" id="path276" style="fill:#4c2c11;stroke:#4c2c11;stroke-width:3.75999999px;stroke-linecap:round;stroke-linejoin:round"/></svg>