<svg xmlns="http://www.w3.org/2000/svg" id="Layer_1" data-name="Layer 1" version="1.1" width="273.563" height="334.412"><defs id="defs4"><style id="style2">.cls-3{fill:#33d9ff}.cls-4{fill:#724925}.cls-5{fill:#b59261}.cls-7{fill:#4c2c11}.cls-9{fill:#875f30}</style></defs><path class="cls-3" d="M221.363 22.172a13.75 13.75 0 0 0-6.54-13.13l-4.84-2.95a13.75 13.75 0 0 0-14.68.19 21.84 21.84 0 0 0-17.58-4.3l-53.2 12.92a159.85 159.85 0 0 0-99.42 72.46 162.23 162.23 0 0 0-19.57 121.6c.05.26.11.54.2.93l.1.39.15.66c.07.27.14.53.22.79a161.37 161.37 0 0 0 194.34 116.82l53.19-12.89a13.5 13.5 0 0 0 2.25-.75h.08a21.35 21.35 0 0 0 15.67-25.76l-.27-1.12a21.51 21.51 0 0 0-2.77-6.48 21.35 21.35 0 0 0-.51-7l-.27-1.11a21.27 21.27 0 0 0-3.13-7 21.24 21.24 0 0 0-.44-7.69l-.27-1.12a21.24 21.24 0 0 0-2.76-6.48 21.35 21.35 0 0 0-.51-7l-.27-1.11a21.34 21.34 0 0 0-25.74-15.7l-43.26 10.48-12.34 2.88a70.88 70.88 0 1 1-33.26-137.8l12-3 41-9.93a21.91 21.91 0 0 0 13.73-12.07 13.72 13.72 0 0 0 13.13-6.55l3-4.84a13.73 13.73 0 0 0-.19-14.67 13.73 13.73 0 0 0 4.61-13.94l-1.34-5.5a13.74 13.74 0 0 0-10.51-10.23z" id="path300" style="fill:#33d9ff"/><path class="cls-3" d="M162.263 334.412a162.81 162.81 0 0 1-157.27-122.36c-.08-.24-.15-.52-.22-.82l-.25-1c-.11-.42-.17-.73-.23-1a163.5 163.5 0 0 1 19.74-122.55 161.14 161.14 0 0 1 100.2-73l53.19-12.89a15.09 15.09 0 0 1 3.95-.42 14.91 14.91 0 0 1 14.18 4.33 14.91 14.91 0 0 1 15.09.35l4.83 2.95a14.89 14.89 0 0 1 7.26 13.21 14.91 14.91 0 0 1 10.41 10.91l1.34 5.51a14.9 14.9 0 0 1-4.26 14.46 14.89 14.89 0 0 1-.36 15.08l-3 4.84a14.89 14.89 0 0 1-13.24 7.21 23.91 23.91 0 0 1-14.32 11.83l-41 9.93-12 3a69.638 69.638 0 1 0 32.63 135.4l12.34-2.88 43.25-10.48a22.62 22.62 0 0 1 27.26 16.62l.27 1.12a22.62 22.62 0 0 1 .57 7 22.43 22.43 0 0 1 2.7 6.5l.27 1.11a22.34 22.34 0 0 1 .52 7.68 22.59 22.59 0 0 1 3 7.05l.27 1.12a22.32 22.32 0 0 1 .57 7 22.74 22.74 0 0 1 2.71 6.5l.27 1.11a22.6 22.6 0 0 1-16.6 27.25 14.39 14.39 0 0 1-2.35.78l-53.2 12.89a163.7 163.7 0 0 1-38.52 4.66zm18.7-331.57a12.28 12.28 0 0 0-3 .36l-53.19 12.89a158.59 158.59 0 0 0-98.65 71.9 161 161 0 0 0-19.39 120.69c.05.29.11.55.2.91l.26 1.07c0 .23.12.47.19.71a160.11 160.11 0 0 0 192.84 116l53.2-12.89a12.52 12.52 0 0 0 2-.68l.21-.07a20.1 20.1 0 0 0 14.85-24.25l-.27-1.11a20 20 0 0 0-2.61-6.1l-.23-.37v-.42a20.16 20.16 0 0 0-.47-6.62l-.17-1.16a20 20 0 0 0-3-6.62l-.27-.39.06-.48a20.32 20.32 0 0 0-.41-7.24l-.27-1.11a20.34 20.34 0 0 0-2.61-6.1l-.23-.37v-.42a19.9 19.9 0 0 0-.48-6.62l-.27-1.12a20.09 20.09 0 0 0-24.23-14.77l-43.17 10.44-12.34 2.88a72.134 72.134 0 1 1-33.85-140.24l12-3 41-9.94a12.48 12.48 0 0 0 3.36-1.36l.32-.13a12.43 12.43 0 0 0 9-9.48l.24-1.1 1.12.11a12.37 12.37 0 0 0 12.03-5.94l3-4.84a12.42 12.42 0 0 0-.17-13.34l-.61-.94.78-.68a12.41 12.41 0 0 0 4.23-12.65l-1.33-5.51a12.44 12.44 0 0 0-9.56-9.31l-1.1-.23.12-1.12a12.44 12.44 0 0 0-6-11.94l-4.83-2.95a12.42 12.42 0 0 0-13.34.17l-1 .61-.71-.87a12.44 12.44 0 0 0-12.55-4.25H180.843z" id="path302" style="fill:#33d9ff"/><path class="cls-7" d="m218.973 28.782-6.06-.43 1.43-5.91a6.87 6.87 0 0 0-3.11-7.54l-4.84-2.95a6.88 6.88 0 0 0-8.11.67l-4.59 4-3.16-5.19a6.88 6.88 0 0 0-7.52-3.11l-1 .24a6.92 6.92 0 0 0-2.68.11l-53.19 12.89a153 153 0 0 0-95.15 69.34 155.33 155.33 0 0 0-18.7 116.65c0 .17.06.36.11.57l.13.48.16.69a5.08 5.08 0 0 0 .15.52 154.46 154.46 0 0 0 186.07 112.09l53.2-12.89a6.76 6.76 0 0 0 1.57-.59l.76-.18a14.44 14.44 0 0 0 10.61-17.42l-.27-1.11a14.42 14.42 0 0 0-3.36-6.34 14.38 14.38 0 0 0 .09-7.17l-.27-1.12a14.37 14.37 0 0 0-3.87-6.86 14.3 14.3 0 0 0 .3-7.87l-.27-1.11a14.44 14.44 0 0 0-3.37-6.34 14.5 14.5 0 0 0 .1-7.17l-.27-1.12a14.45 14.45 0 0 0-17.42-10.71l-43.32 10.5-12.27 2.86a77.78 77.78 0 1 1-36.58-151.19l12.1-3 41-9.94a6.76 6.76 0 0 0 2.54-1.2l.88-.21a6.89 6.89 0 0 0 5.25-6.21l.44-6.06 5.9 1.43a6.87 6.87 0 0 0 7.51-3.11l3-4.84a6.88 6.88 0 0 0-.68-8.1l-4-4.6 5.18-3.16a6.87 6.87 0 0 0 3.12-7.51l-1.34-5.51a6.88 6.88 0 0 0-6.2-5.27z" id="path304" style="fill:#4c2c11"/><path class="cls-7" d="M162.273 327.512a155.91 155.91 0 0 1-150.65-117.36c0-.12-.1-.33-.15-.54l-.28-1.15c-.06-.26-.11-.47-.14-.67a156.61 156.61 0 0 1 18.86-117.51 154.28 154.28 0 0 1 95.94-69.92l53.2-12.9a7.87 7.87 0 0 1 2.9-.16l.77-.19a8.13 8.13 0 0 1 8.88 3.68l2.39 3.92 3.47-3a8.11 8.11 0 0 1 9.58-.79l4.84 2.95a8.12 8.12 0 0 1 3.68 8.88l-1.08 4.46 4.58.33a8.13 8.13 0 0 1 7.33 6.21l1.34 5.51a8.15 8.15 0 0 1-3.68 8.88l-3.92 2.39 3 3.48a8.12 8.12 0 0 1 .8 9.57l-3 4.84a8.12 8.12 0 0 1-8.88 3.68l-4.46-1.08-.33 4.58a8.12 8.12 0 0 1-6.21 7.34l-.63.15a8.14 8.14 0 0 1-2.78 1.26l-41 9.94-12.09 3.05a76.522 76.522 0 0 0 36 148.75l12.29-2.86 43.31-10.5a15.68 15.68 0 0 1 18.92 11.55l.28 1.11a15.94 15.94 0 0 1 .06 7.14 15.75 15.75 0 0 1 3.21 6.37l.27 1.12a15.57 15.57 0 0 1-.11 7.82 15.66 15.66 0 0 1 3.68 6.91l.27 1.15a15.66 15.66 0 0 1 .06 7.14 15.62 15.62 0 0 1 3.21 6.37l.27 1.12a15.68 15.68 0 0 1-11.54 18.87l-.61.15a8.55 8.55 0 0 1-1.71.63l-53.2 12.89a156.71 156.71 0 0 1-36.94 4.44zm18.69-317.77a5.88 5.88 0 0 0-1.32.16l-53.2 12.89a151.76 151.76 0 0 0-94.38 68.79 154.14 154.14 0 0 0-18.55 115.71c0 .22.07.38.11.56l.29 1.18a3.71 3.71 0 0 0 .12.41 153.23 153.23 0 0 0 184.59 111.19l53.19-12.89a5.7 5.7 0 0 0 1.29-.48l.28-.11.76-.18a13.19 13.19 0 0 0 9.7-15.9l-.27-1.12a13.3 13.3 0 0 0-3.08-5.78l-.46-.51.18-.67a13.32 13.32 0 0 0 .08-6.55l-.27-1.11a13.09 13.09 0 0 0-3.53-6.26l-.56-.55.25-.74a13.07 13.07 0 0 0 .27-7.18l-.27-1.12a13.18 13.18 0 0 0-3.07-5.78l-.47-.51.18-.67a13.21 13.21 0 0 0 .09-6.55l-.27-1.11a13.19 13.19 0 0 0-15.9-9.7l-43.32 10.5-12.29 2.86a79.024 79.024 0 0 1-37.15-153.62l12.09-3 41-9.95a5.56 5.56 0 0 0 2.07-1l.21-.16 1.13-.27a5.62 5.62 0 0 0 4.3-5.08l.54-7.53 7.34 1.77a5.61 5.61 0 0 0 6.15-2.54l2.95-4.84a5.6 5.6 0 0 0-.55-6.63l-4.92-5.77 6.45-3.93a5.63 5.63 0 0 0 2.55-6.15l-1.34-5.51a5.63 5.63 0 0 0-5.08-4.3l-7.53-.54 1.78-7.34a5.62 5.62 0 0 0-2.55-6.15l-4.83-3a5.61 5.61 0 0 0-6.63.55l-5.72 4.94-3.93-6.45a5.64 5.64 0 0 0-6.15-2.54l-1.24.3h-.25a4.91 4.91 0 0 0-.86-.04z" id="path306" style="fill:#4c2c11"/><path class="cls-5" d="m247.423 247.302-.27-1.11a7.52 7.52 0 0 0-9.08-5.54l-2.38.57-1.79.44-39.17 9.5-12.22 2.84a84.76 84.76 0 0 1-102.23-62.35 84.76 84.76 0 0 1 62.35-102.23l12.1-3.06 41-9.94-14.79-61-53.21 12.86c-78.81 19.1-127.37 98.17-108.66 178.19 0 .2.1.4.15.6.05.2.09.41.14.62a147.58 147.58 0 0 0 177.93 107.46l53.19-12.89v-.2l2.37-.58a7.52 7.52 0 0 0 5.54-9.08l-.27-1.12a7.53 7.53 0 0 0-6.15-5.66 7.53 7.53 0 0 0 2.88-7.85l-.27-1.11a7.53 7.53 0 0 0-9.09-5.54l-2.37.57v-.1l2.38-.58a7.52 7.52 0 0 0 5.54-9.08l-.27-1.12a7.54 7.54 0 0 0-6.15-5.66 7.52 7.52 0 0 0 2.8-7.85z" id="path308" style="fill:#b59261"/><path class="cls-7" d="M162.273 322.492a150.88 150.88 0 0 1-145.83-113.73c0-.11-.07-.22-.1-.33l-.29-1.22a1.91 1.91 0 0 1-.06-.33 151.63 151.63 0 0 1 18.2-114 149.33 149.33 0 0 1 92.84-67.66l53.2-12.89a3.13 3.13 0 0 1 3.78 2.31l14.79 61a3.08 3.08 0 0 1-.37 2.37 3.16 3.16 0 0 1-1.93 1.42l-41 9.93-12.14 3.06a81.559 81.559 0 0 0 38.37 158.54l12.25-2.85 43.35-10.51a10.66 10.66 0 0 1 12.87 7.85l.27 1.12a10.7 10.7 0 0 1-.86 7.36 10.55 10.55 0 0 1 4.13 6.14l.27 1.12a10.55 10.55 0 0 1-1.25 8.06 10.58 10.58 0 0 1 4.86 6.62l.27 1.11a10.62 10.62 0 0 1-.86 7.37 10.61 10.61 0 0 1 4.14 6.14l.27 1.12a10.66 10.66 0 0 1-7.85 12.87l-1.29.31a3.06 3.06 0 0 1-1 .46l-53.27 12.94a151.44 151.44 0 0 1-35.76 4.3zm-139.9-115.81a2.25 2.25 0 0 1 .08.24 144.44 144.44 0 0 0 174.1 105.18l52.11-12.63a3.15 3.15 0 0 1 1-.46l2.37-.57a4.37 4.37 0 0 0 3.23-5.3l-.27-1.12a4.36 4.36 0 0 0-3.59-3.3 3.14 3.14 0 0 1-1.36-5.63 4.38 4.38 0 0 0 1.68-4.58l-.27-1.11a4.39 4.39 0 0 0-5.3-3.24l-2.37.58a3.14 3.14 0 0 1-3.79-2.33v-.1a3.15 3.15 0 0 1 2.31-3.77l2.38-.57a4.39 4.39 0 0 0 3.23-5.3l-.27-1.12a4.37 4.37 0 0 0-3.59-3.3 3.14 3.14 0 0 1-1.36-5.63 4.39 4.39 0 0 0 1.68-4.58l-.26-1.12a4.4 4.4 0 0 0-5.3-3.23l-43.38 10.52-12.25 2.85a87.811 87.811 0 0 1-41.33-170.69l12.13-3.05 38-9.21-13.31-54.94-50.15 12.15a143 143 0 0 0-89 64.84 145.38 145.38 0 0 0-17.39 109.59c0 .09 0 .17.05.25z" id="path310" style="fill:#4c2c11"/><g id="g316" style="opacity:.5" transform="translate(-588.267 -256.098)"><path class="cls-4" d="m826.34 496.75-2.38.57-1.79.44-39.17 9.5-12.22 2.84a84.81 84.81 0 0 1-90.6-35.64l22.51 92.87a146.84 146.84 0 0 0 82.91 3.92l53.19-12.89v-.2l2.37-.58a7.52 7.52 0 0 0 5.54-9.08l-.27-1.12a7.53 7.53 0 0 0-6.15-5.66 7.53 7.53 0 0 0 2.88-7.85l-.27-1.11a7.53 7.53 0 0 0-9.09-5.54l-2.37.57v-.1l2.38-.58a7.52 7.52 0 0 0 5.54-9.08l-.27-1.12a7.54 7.54 0 0 0-6.15-5.66 7.52 7.52 0 0 0 2.87-7.85l-.27-1.11a7.52 7.52 0 0 0-9.19-5.54z" id="path312" style="fill:#724925"/><path class="cls-7" d="M750.7 578.06a149.32 149.32 0 0 1-48.91-8.24 2.63 2.63 0 0 1-1.7-1.87l-22.51-92.87a2.64 2.64 0 0 1 4.76-2.08 82.28 82.28 0 0 0 87.78 34.54l12.24-2.85 43.36-10.5a10.16 10.16 0 0 1 12.28 7.48l.27 1.11a10.08 10.08 0 0 1-1 7.4 10.17 10.17 0 0 1 4.31 6.11l.27 1.12a10.19 10.19 0 0 1-1.52 8.16 10.16 10.16 0 0 1 5.09 6.57l.27 1.11a10.18 10.18 0 0 1-1 7.4 10.16 10.16 0 0 1 4.3 6.11l.27 1.12a10.17 10.17 0 0 1-7.48 12.26l-1.38.34a2.8 2.8 0 0 1-.94.44l-53.2 12.89a151 151 0 0 1-35.56 4.25zm-45.83-12.75a144.52 144.52 0 0 0 80.07 3.38L837.15 556a2.4 2.4 0 0 1 .94-.44l2.37-.58a4.89 4.89 0 0 0 3.6-5.9l-.27-1.12a4.9 4.9 0 0 0-4-3.68 2.63 2.63 0 0 1-1.14-4.72 4.91 4.91 0 0 0 1.87-5.11l-.27-1.11a4.88 4.88 0 0 0-5.91-3.6l-2.37.57a2.65 2.65 0 0 1-2-.31 2.68 2.68 0 0 1-1.19-1.64v-.11a2.63 2.63 0 0 1 1.94-3.16l2.38-.58a4.89 4.89 0 0 0 3.6-5.9l-.27-1.12a4.9 4.9 0 0 0-4-3.68 2.63 2.63 0 0 1-1.15-4.72 4.88 4.88 0 0 0 1.87-5.11l-.27-1.11a4.89 4.89 0 0 0-5.9-3.6l-43.38 10.51-12.24 2.85a87.63 87.63 0 0 1-85.73-26.81zm121.47-68.56z" id="path314" style="fill:#4c2c11"/></g><path class="cls-7" d="M34.543 205.362a2.63 2.63 0 0 1-2.55-2l-3.55-14.63a2.93 2.93 0 0 1-.05-.29 135.38 135.38 0 0 1 102.34-148.1l38.57-9.34a2.59 2.59 0 0 1 2 .31 2.62 2.62 0 0 1 1.18 1.63l7.71 31.78a2.63 2.63 0 0 1-1.94 3.18l-26.52 6.42-12.07 3.05a97.23 97.23 0 0 0-73.88 102.53l3.49 14.43a2.63 2.63 0 1 1-5.11 1.24l-3.55-14.67a2.57 2.57 0 0 1-.06-.4 102.52 102.52 0 0 1 77.8-108.28l12.08-3 24-5.81-6.46-26.66-36 8.72a130.09 130.09 0 0 0-98.34 142.17l3.51 14.48a2.64 2.64 0 0 1-1.94 3.18 2.7 2.7 0 0 1-.66.06z" id="path318" style="fill:#4c2c11"/><path class="cls-5" id="polygon320" style="fill:#b59261" transform="translate(-588.267 -256.098)" d="m795.9 276.92-4.83-2.95-10.76 9.3-7.4-12.14-5.51 1.34-1.03 14.18-13.82-3.35-2.95 4.84 9.31 10.75-12.14 7.41 1.33 5.51 14.18 1.02-3.35 13.82 4.84 2.95 10.76-9.3 7.4 12.14 5.51-1.34 1.03-14.18 13.82 3.35 2.95-4.84-9.31-10.75 12.14-7.41-1.33-5.51-14.18-1.02z"/><path class="cls-7" d="M193.663 79.472a3.14 3.14 0 0 1-2.68-1.5l-5.47-9-7.95 6.93a3.13 3.13 0 0 1-3.69.31l-4.84-2.95a3.14 3.14 0 0 1-1.41-3.42l2.48-10.22-10.49-.76a3.14 3.14 0 0 1-2.83-2.39l-1.33-5.5a3.14 3.14 0 0 1 1.41-3.42l9-5.48-6.88-7.95a3.13 3.13 0 0 1-.3-3.68l3-4.84a3.12 3.12 0 0 1 3.41-1.42l10.22 2.48.76-10.49a3.13 3.13 0 0 1 2.39-2.82l5.51-1.34a3.14 3.14 0 0 1 3.41 1.42l5.48 9 8-6.88a3.13 3.13 0 0 1 3.69-.31l4.84 2.95a3.14 3.14 0 0 1 1.41 3.42l-2.48 10.22 10.49.76a3.14 3.14 0 0 1 2.83 2.39l1.33 5.5a3.14 3.14 0 0 1-1.41 3.42l-9 5.48 6.88 7.95a3.13 3.13 0 0 1 .3 3.68l-3.01 4.79a3.13 3.13 0 0 1-3.41 1.42l-10.22-2.48-.76 10.49a3.14 3.14 0 0 1-2.39 2.82l-5.51 1.34a3.72 3.72 0 0 1-.78.08zm-7.4-18.41a3.88 3.88 0 0 1 .48 0 3.16 3.16 0 0 1 2.2 1.47l6.21 10.18 1.06-.25.86-11.9a3.13 3.13 0 0 1 1.28-2.31 3.16 3.16 0 0 1 2.58-.52l11.6 2.81.57-.93-7.81-9a3.15 3.15 0 0 1 .74-4.73l10.19-6.21-.26-1.06-11.9-.86a3.18 3.18 0 0 1-2.31-1.28 3.14 3.14 0 0 1-.51-2.59l2.81-11.6-.93-.56-9 7.8a3.1 3.1 0 0 1-2.53.73 3.16 3.16 0 0 1-2.2-1.47l-6.21-10.18-1.06.25-.86 11.91a3.13 3.13 0 0 1-1.28 2.3 3.09 3.09 0 0 1-2.58.52l-11.67-2.79-.57.93 7.81 9a3.15 3.15 0 0 1-.74 4.73l-10.19 6.21.26 1.06 11.9.86a3.18 3.18 0 0 1 2.31 1.28 3.14 3.14 0 0 1 .51 2.59l-2.81 11.6.93.56 9-7.8a3.11 3.11 0 0 1 2.12-.75z" id="path322" style="fill:#4c2c11"/><circle class="cls-4" cx="189.183" cy="45.823" r="9.68" id="circle324" style="fill:#724925"/><path class="cls-7" d="M189.183 58.132a12.31 12.31 0 1 1 12-15.22 12.34 12.34 0 0 1-9.07 14.88 12.55 12.55 0 0 1-2.93.34zm0-19.36a7.29 7.29 0 0 0-1.66.19 7.06 7.06 0 1 0 8.51 5.19 7.05 7.05 0 0 0-6.85-5.38z" id="path326" style="fill:#4c2c11"/><path class="cls-7" d="M92.173 302.602a2.63 2.63 0 0 1-2.56-2l-25.45-105a2.63 2.63 0 1 1 5.11-1.24l25.46 105a2.63 2.63 0 0 1-1.94 3.18 2.7 2.7 0 0 1-.62.06z" id="path328" style="fill:#4c2c11"/><path class="cls-7" d="M162.373 274.102a102 102 0 0 1-71.33-29.2 2.63 2.63 0 1 1 3.67-3.77 96.74 96.74 0 0 0 90.62 24.94l12.17-2.84 44.77-10.85a2.64 2.64 0 0 1 1.25 5.12l-44.79 10.88-12.18 2.83a102.89 102.89 0 0 1-24.18 2.89z" id="path330" style="fill:#4c2c11"/><path class="cls-7" d="M162.733 306.902a135.35 135.35 0 0 1-58.27-13.16 2.673 2.673 0 0 1 2.27-4.84 130.06 130.06 0 0 0 86.45 9l58.02-14a2.634 2.634 0 1 1 1.24 5.12l-58.07 14.07a134.29 134.29 0 0 1-31.64 3.81z" id="path332" style="fill:#4c2c11"/><path class="cls-7" d="M49.613 267.522a2.64 2.64 0 0 1-2.56-2l-15.06-62.16a2.634 2.634 0 1 1 5.12-1.24l15.06 62.16a2.64 2.64 0 0 1-1.94 3.18 2.68 2.68 0 0 1-.62.06z" id="path334" style="fill:#4c2c11"/><path class="cls-7" d="M160.613 290.992a115.05 115.05 0 0 1-62.6-18.66 2.634 2.634 0 1 1 2.85-4.43 109.39 109.39 0 0 0 85.66 14.72 2.633 2.633 0 0 1 1.23 5.12 115.86 115.86 0 0 1-27.14 3.25z" id="path336" style="fill:#4c2c11"/><path class="cls-7" d="M187.133 287.822a2.64 2.64 0 0 1-.6-5.2l19.28-4.56a2.64 2.64 0 0 1 1.21 5.13l-19.29 4.56a3.17 3.17 0 0 1-.6.07z" id="path338" style="fill:#4c2c11"/><path class="cls-7" d="M194.223 286.212a2.63 2.63 0 0 1-.62-5.19l48.45-11.74a2.634 2.634 0 0 1 1.24 5.12l-48.45 11.74a2.62 2.62 0 0 1-.62.07z" id="path340" style="fill:#4c2c11"/><path class="cls-7" d="M72.433 291.232a2.63 2.63 0 0 1-2.55-2l-25.31-104.42a3.47 3.47 0 0 1-.06-.45l-1.07-16.56a1.93 1.93 0 0 1 0-.24c1.32-52.73 37.68-98.19 88.41-110.55l11.89-3 11.91-2.89a2.634 2.634 0 1 1 1.24 5.12l-11.89 2.88-11.89 3c-48.38 11.78-83.1 55.15-84.38 105.45l1 16.22 25.24 104.19a2.63 2.63 0 0 1-1.93 3.18 2.7 2.7 0 0 1-.61.07z" id="path342" style="fill:#4c2c11"/><path class="cls-7" d="M128.403 317.962h-.43c-21.1-3.49-25.56-24-25.92-25.84l-25.47-105.16a2.634 2.634 0 0 1 5.12-1.24l25.49 105.18a1.29 1.29 0 0 0 0 .19c.12.75 3.4 18.62 21.6 21.63a2.63 2.63 0 0 1-.43 5.23z" id="path344" style="fill:#4c2c11"/><circle class="cls-9" cx="219.323" cy="302.223" r="1.5" id="circle346" style="fill:#875f30"/><path class="cls-7" d="M219.323 305.602a3.38 3.38 0 1 1 1.76-6.26 3.34 3.34 0 0 1 1.52 2.09 3.38 3.38 0 0 1-2.49 4.08 3.55 3.55 0 0 1-.79.09zm.37-3.47-.74.18a.35.35 0 0 0 .17.24.37.37 0 0 0 .29 0 .38.38 0 0 0 .28-.46zm-.37-.29h-.09a.38.38 0 0 0-.28.46l.74-.18a.38.38 0 0 0-.37-.28z" id="path348" style="fill:#4c2c11"/><circle class="cls-9" cx="153.363" cy="296.272" r="1.5" id="circle350" style="fill:#875f30"/><path class="cls-7" d="M153.353 299.652a3.38 3.38 0 0 1-2.88-5.14 3.34 3.34 0 0 1 2.09-1.52 3.29 3.29 0 0 1 2.56.4 3.34 3.34 0 0 1 1.52 2.08 3.39 3.39 0 0 1-2.49 4.09 3.57 3.57 0 0 1-.8.09zm-.36-3.29a.37.37 0 0 0 .17.24.41.41 0 0 0 .29 0 .38.38 0 0 0 .28-.46.41.41 0 0 0-.17-.24.37.37 0 0 0-.29 0 .38.38 0 0 0-.24.17.37.37 0 0 0-.04.29zm0 0z" id="path352" style="fill:#4c2c11"/><circle class="cls-9" cx="219.993" cy="251.742" r="1.5" id="circle354" style="fill:#875f30"/><path class="cls-7" d="M219.983 255.122a3.34 3.34 0 0 1-1.75-.5 3.38 3.38 0 1 1 3.5-5.72 3.34 3.34 0 0 1 1.52 2.09 3.38 3.38 0 0 1-2.49 4.08 3.58 3.58 0 0 1-.78.05zm.38-3.47-.74.18a.36.36 0 0 0 .17.23.42.42 0 0 0 .29 0 .39.39 0 0 0 .28-.46zm-.37-.3h-.09a.38.38 0 0 0-.28.46l.74-.17a.43.43 0 0 0-.17-.24.36.36 0 0 0-.2-.05z" id="path356" style="fill:#4c2c11"/><circle class="cls-9" cx="63.343" cy="221.413" r="1.5" id="circle358" style="fill:#875f30"/><path class="cls-7" d="M63.343 224.792a3.38 3.38 0 1 1 3.28-4.18 3.36 3.36 0 0 1-2.48 4.08 3.19 3.19 0 0 1-.8.1zm-.37-3.29a.39.39 0 0 0 .46.28.37.37 0 0 0 .28-.46.37.37 0 0 0-.46-.28.35.35 0 0 0-.24.17.36.36 0 0 0-.04.29zm0 0zm0 0z" id="path360" style="fill:#4c2c11"/><circle class="cls-9" cx="56.303" cy="257.252" r="1.5" id="circle362" style="fill:#875f30"/><path class="cls-7" d="M56.293 260.632a3.38 3.38 0 0 1-2.88-5.14 3.38 3.38 0 1 1 3.69 5.05 3.72 3.72 0 0 1-.81.09zm0-3.76h-.09a.38.38 0 0 0-.24.17.37.37 0 0 0 0 .29.37.37 0 0 0 .17.24.37.37 0 0 0 .29 0 .37.37 0 0 0 .24-.17.4.4 0 0 0-.13-.53.46.46 0 0 0-.23.03z" id="path364" style="fill:#4c2c11"/><circle class="cls-9" cx="42.663" cy="136.093" r="1.5" id="circle366" style="fill:#875f30"/><path class="cls-7" d="M42.663 139.472a3.36 3.36 0 0 1-3.28-2.58 3.38 3.38 0 0 1 .4-2.56 3.38 3.38 0 0 1 5.77 3.52 3.39 3.39 0 0 1-2.09 1.53 3.7 3.7 0 0 1-.8.09zm0-3.76h-.09a.39.39 0 0 0-.23.17.42.42 0 0 0-.05.29.38.38 0 0 0 .46.28.35.35 0 0 0 .24-.17.42.42 0 0 0 0-.29.38.38 0 0 0-.18-.23.36.36 0 0 0-.15-.05z" id="path368" style="fill:#4c2c11"/><circle class="cls-9" cx="129.543" cy="68.592" r="1.5" id="circle370" style="fill:#875f30"/><path class="cls-7" d="M129.533 71.972a3.38 3.38 0 1 1 1.77-6.27 3.34 3.34 0 0 1 1.52 2.09 3.38 3.38 0 0 1-.4 2.56 3.34 3.34 0 0 1-2.09 1.55 3.13 3.13 0 0 1-.8.07zm-.37-3.29a.41.41 0 0 0 .47.28.44.44 0 0 0 .23-.17.43.43 0 0 0 0-.29.4.4 0 0 0-.18-.24.39.39 0 0 0-.57.42zm0 0zm0 0z" id="path372" style="fill:#4c2c11"/><circle class="cls-9" cx="134.043" cy="33.942" r="1.5" id="circle374" style="fill:#875f30"/><path class="cls-7" d="M134.043 37.322a3.36 3.36 0 0 1-3.28-2.58 3.38 3.38 0 0 1 .4-2.56 3.38 3.38 0 1 1 3.68 5.05 3.7 3.7 0 0 1-.8.09zm-.37-3.29a.4.4 0 0 0 .18.24.39.39 0 0 0 .28.05.4.4 0 0 0 .24-.18.39.39 0 0 0-.42-.57.44.44 0 0 0-.23.17.43.43 0 0 0-.05.29zm0 0zm0 0z" id="path376" style="fill:#4c2c11"/><path class="cls-7" d="m105.553 291.312-21-86.54 12.85 19.91 15 61.9c3.41 15.41 15.78 24.2 25 28.74a59.47 59.47 0 0 0 10.79 4.13s-39.04-2.39-42.64-28.14z" id="path378" style="fill:#4c2c11"/><path class="cls-7" d="M148.243 321.332h-.11a78.94 78.94 0 0 1-20.54-4.52c-14-5.24-22.29-13.93-23.89-25.14l-21-86.45a1.88 1.88 0 0 1 3.4-1.46l12.85 19.91a1.92 1.92 0 0 1 .24.57l15 61.91c3.23 14.56 14.85 23 24 27.49a57.34 57.34 0 0 0 10.41 4 1.88 1.88 0 0 1-.45 3.71zm-59.22-106.2 18.35 75.77a1.16 1.16 0 0 1 0 .18c1.81 12.92 13.47 19.61 23.89 23-8.68-5.32-17.79-13.88-20.72-27.1l-14.92-61.56z" id="path380" style="fill:#4c2c11"/></svg>