<svg xmlns="http://www.w3.org/2000/svg" id="Layer_1" data-name="Layer 1" version="1.1" width="312.001" height="312"><defs id="defs4"><style id="style2">.cls-1{fill:#f15d24}.cls-15,.cls-17,.cls-2,.cls-20,.cls-7,.cls-8{fill:#231f20}.cls-13,.cls-18,.cls-6{fill:#fff}.cls-13,.cls-14,.cls-15,.cls-20,.cls-7{stroke:#231f20}.cls-12,.cls-13,.cls-14,.cls-15,.cls-17,.cls-18,.cls-20,.cls-7,.cls-8,.cls-9{stroke-miterlimit:10}.cls-4{fill:#b2b3b3}.cls-14{fill:#ed184a}.cls-7{stroke-width:2.18px}.cls-17,.cls-18,.cls-8,.cls-9{stroke:#fff}.cls-8,.cls-9{stroke-width:11.52px}.cls-12,.cls-16,.cls-9{fill:none}.cls-12,.cls-16{stroke:#b2b3b3}.cls-12,.cls-13,.cls-14,.cls-18{stroke-width:3.58px}.cls-15{stroke-width:1.77px}.cls-16{stroke-linecap:round;stroke-linejoin:round;stroke-width:1.92px}.cls-17{stroke-width:2.38px}.cls-20{stroke-width:1.44px}</style></defs><g id="SlHar6" transform="translate(-110.68 -312.847)"><path class="cls-1" d="M150.51 429.93a31.64 31.64 0 0 1-3.84-2.66c-1.6-1.15-1.59-1.18-3.19 0-1.29.91-2.57 1.85-3.89 2.81-.17-.33 0-.57.08-.8.53-1.65 1.06-3.3 1.63-4.94a.88.88 0 0 0-.37-1.17c-1.48-1-2.92-2.13-4.38-3.2-.13-.1-.25-.22-.53-.47h2.33c1.32 0 2.65 0 4-.07a.7.7 0 0 0 .75-.59c.61-2 1.26-3.89 2-6 .55 1.66 1.07 3.13 1.52 4.62.61 2 .59 2.05 2.75 2.05h4.84l-2.44 1.79c-.89.66-1.76 1.33-2.66 2a.72.72 0 0 0-.3 1c.57 1.67 1.1 3.34 1.63 5 .07.23.11.47.16.71z" id="path6" style="fill:#f15d24"/><path class="cls-1" d="m150.53 429.91.06.08-.08-.06z" id="path8" style="fill:#f15d24"/></g><path class="cls-6" d="M266.32 45.703a156 156 0 1 0 45.68 110.3 155 155 0 0 0-45.68-110.3z" id="path129" style="fill:#fff"/><circle class="cls-7" cx="156.06" cy="156.003" r="143.99" id="circle131" style="fill:#231f20;stroke:#231f20;stroke-width:2.18000007px;stroke-miterlimit:10"/><path class="cls-8" id="line133" style="fill:#231f20;stroke:#fff;stroke-width:11.52000046px;stroke-miterlimit:10" d="M157.11 302.743V8.083"/><path class="cls-9" d="M54.9 48.873s102.69 107.5 0 224.6" id="path135" style="fill:none;stroke:#fff;stroke-width:11.52000046px;stroke-miterlimit:10"/><path class="cls-9" d="M257.22 48.873s-102.69 107.5 0 224.6" id="path137" style="fill:none;stroke:#fff;stroke-width:11.52000046px;stroke-miterlimit:10"/><path class="cls-8" id="line139" style="fill:#231f20;stroke:#fff;stroke-width:11.52000046px;stroke-miterlimit:10" d="M9.78 155.413h294.66"/><path d="M235.41 123.933a24.64 24.64 0 0 0 7.55-17.53 33.06 33.06 0 0 0-9.57-23.32 34 34 0 0 0-19.8-10.3 25.44 25.44 0 0 0-21 6.39c-.52.49-1 1-1.49 1.54-20.57-11.94-40.42-10.58-54.33-6.81a88.35 88.35 0 0 0-16.8 6.54c-.4-.44-.81-.86-1.24-1.27a25.44 25.44 0 0 0-21-6.39 34 34 0 0 0-19.8 10.3 33.06 33.06 0 0 0-9.61 23.32 24.64 24.64 0 0 0 7.55 17.53 23.51 23.51 0 0 0 3.59 2.79c-6.87 22.18-13.59 46.73-9.28 70.33 1.18 6.44 2.79 15.26 9.05 22 4.1 4.45 9.34 7 13.17 8.83 9.86 4.76 19.67 5.87 29.32 5.87h2.75a19.24 19.24 0 0 0 17.27 10.81h28.74a19.23 19.23 0 0 0 17.26-10.79c10.22.13 20.65-.8 31.13-5.86 3.82-1.85 9.06-4.38 13.16-8.83 6.26-6.78 7.87-15.6 9-22 4.31-23.6-2.41-48.15-9.28-70.33a23.51 23.51 0 0 0 3.66-2.82z" id="path141" style="fill:#fff;stroke:#231f20;stroke-width:9.60000038px;stroke-miterlimit:10"/><path d="M235.41 123.933a24.64 24.64 0 0 0 7.55-17.53 33.06 33.06 0 0 0-9.57-23.32 34 34 0 0 0-19.8-10.3 25.44 25.44 0 0 0-21 6.39c-.52.49-1 1-1.49 1.54-20.57-11.94-40.42-10.58-54.33-6.81a88.35 88.35 0 0 0-16.8 6.54c-.4-.44-.81-.86-1.24-1.27a25.44 25.44 0 0 0-21-6.39 34 34 0 0 0-19.8 10.3 33.06 33.06 0 0 0-9.61 23.32 24.64 24.64 0 0 0 7.55 17.53 23.51 23.51 0 0 0 3.59 2.79c-6.87 22.18-13.59 46.73-9.28 70.33 1.18 6.44 2.79 15.26 9.05 22 4.1 4.45 9.34 7 13.17 8.83 9.86 4.76 19.67 5.87 29.32 5.87h2.75a19.24 19.24 0 0 0 17.27 10.81h28.74a19.23 19.23 0 0 0 17.26-10.79c10.22.13 20.65-.8 31.13-5.86 3.82-1.85 9.06-4.38 13.16-8.83 6.26-6.78 7.87-15.6 9-22 4.31-23.6-2.41-48.15-9.28-70.33a23.51 23.51 0 0 0 3.66-2.82z" id="path143" style="fill:#fff;stroke:#231f20;stroke-width:4.32000017px;stroke-miterlimit:10"/><path class="cls-12" d="M124.23 89.033a77.13 77.13 0 0 1 19-6.81c4.28-.9 8.89 8.16 13.72 8.2 4.83.04 9.84-8.93 15-7.5a61.81 61.81 0 0 1 15.79 7" id="path145" style="fill:none;stroke:#b2b3b3;stroke-width:3.57999992px;stroke-miterlimit:10"/><path class="cls-12" d="M125.26 224.153c-9.82.25-19.38-.38-28.67-4.86-3.71-1.79-1-9.31-3.74-12.34-4.24-4.6-12.08-5.46-13.21-11.61-3.92-21.48 2.54-44.91 9.1-66.06" id="path147" style="fill:none;stroke:#b2b3b3;stroke-width:3.57999992px;stroke-miterlimit:10"/><path class="cls-12" d="M185.99 224.153c9.82.25 19.38-.38 28.67-4.86 3.71-1.79 1-9.31 3.74-12.34 4.24-4.6 12.08-5.46 13.21-11.61 3.92-21.48-2.54-44.91-9.1-66.06" id="path149" style="fill:none;stroke:#b2b3b3;stroke-width:3.57999992px;stroke-miterlimit:10"/><ellipse class="cls-7" cx="-3.774" cy="140.615" rx="21.38" ry="17.18" transform="rotate(-45.3)" id="ellipse151" style="fill:#231f20;stroke:#231f20;stroke-width:2.18000007px;stroke-miterlimit:10"/><ellipse class="cls-7" cx="80.713" cy="222.679" rx="17.18" ry="21.38" transform="rotate(-44.7)" id="ellipse153" style="fill:#231f20;stroke:#231f20;stroke-width:2.18000007px;stroke-miterlimit:10"/><rect class="cls-13" x="132.16" y="206.763" width="47.94" height="28.21" rx="14.11" id="rect155" style="fill:#fff;stroke:#231f20;stroke-width:3.57999992px;stroke-miterlimit:10"/><path class="cls-14" d="m158.64 203.243-2.4-3.12-2.41 3.12-14 11.83c0 4.6.7 6.42 4.37 8.65h24.05c3.67-2.23 4.38-4.05 4.37-8.65z" id="path157" style="fill:#ed184a;stroke:#231f20;stroke-width:3.57999992px;stroke-miterlimit:10"/><path class="cls-14" d="m158.64 201.323-2.4-3.12-2.41 3.12-14 11.83c0 4.6.7 6.41 4.37 8.65h24.05c3.67-2.24 4.38-4 4.37-8.65z" id="path159" style="fill:#ed184a;stroke:#231f20;stroke-width:3.57999992px;stroke-miterlimit:10"/><path class="cls-6" id="polygon161" style="fill:#fff" transform="translate(-110.68 -312.847)" d="m272.83 532.69-17.39.24 1.92-6.6 2.4 4.32h13.07z"/><path class="cls-6" id="polygon163" style="fill:#fff" transform="translate(-110.68 -312.847)" d="m261.2 532.69 17.4.24-1.92-6.6-2.4 4.32H261.2z"/><path class="cls-13" d="M174.87 147.093c20.16 22.32 14.84 52.42 14.84 52.42l-3.64 9.73-7.84 4.24-8.16-.07-13.91-5.41-13.44 5.15-8.16-.07-8.64-4.16-4-9.41s-5.92-33 14.24-55.29" id="path165" style="fill:#fff;stroke:#231f20;stroke-width:3.57999992px;stroke-miterlimit:10"/><path class="cls-15" d="m126.32 171.523 10.7-19.47c2.62-3.85 1.05-9.83-3.52-13.34s-11.33-4.29-14-.43l-2.18 2.64-11.87 14.23a6.55 6.55 0 0 0-.67.81c-2.62 3.86.68 11.48 6.21 15.75s12.16 4.59 14.78.74a5.7 5.7 0 0 0 .55-.93z" id="path167" style="fill:#231f20;stroke:#231f20;stroke-width:1.76999998px;stroke-miterlimit:10"/><path class="cls-16" d="M128.65 154.813a5.89 5.89 0 0 1-4.48 2c-3.38-.08-6-3.17-6-6.89a7.09 7.09 0 0 1 1.65-4.44" id="path169" style="fill:none;stroke:#b2b3b3;stroke-width:1.91999996px;stroke-linecap:round;stroke-linejoin:round"/><ellipse class="cls-17" cx="-143.128" cy="130" rx="1.28" ry="1.2" transform="rotate(-88.63)" id="ellipse171" style="fill:#231f20;stroke:#fff;stroke-width:2.38000011px;stroke-miterlimit:10"/><path class="cls-15" d="m184.99 171.523-10.67-19.47c-2.62-3.85-1-9.83 3.52-13.34s11.33-4.29 14-.43l2.2 2.64 11.78 14.23a6.55 6.55 0 0 1 .67.81c2.62 3.86-.67 11.48-6.21 15.75s-12.16 4.59-14.78.74a5.7 5.7 0 0 1-.51-.93z" id="path173" style="fill:#231f20;stroke:#231f20;stroke-width:1.76999998px;stroke-miterlimit:10"/><path class="cls-16" d="M182.63 154.813a5.86 5.86 0 0 0 4.47 2c3.38-.08 6.05-3.17 6-6.89a7.15 7.15 0 0 0-1.66-4.44" id="path175" style="fill:none;stroke:#b2b3b3;stroke-width:1.91999996px;stroke-linecap:round;stroke-linejoin:round"/><ellipse class="cls-17" cx="181.203" cy="150.564" rx="1.2" ry="1.28" transform="rotate(-1.37)" id="ellipse177" style="fill:#231f20;stroke:#fff;stroke-width:2.38000011px;stroke-miterlimit:10"/><path class="cls-18" d="M96.69 127.523s4.32-28.79 32.39-27.35" id="path179" style="fill:#fff;stroke:#fff;stroke-width:3.57999992px;stroke-miterlimit:10"/><path class="cls-18" d="M212.17 127.523s-4.32-28.79-32.39-27.35" id="path181" style="fill:#fff;stroke:#fff;stroke-width:3.57999992px;stroke-miterlimit:10"/><path d="M174.39 192.513c0-1.11-1-2.15-2.66-3h-32.41c-1.69.89-2.66 1.93-2.66 3 0 2.28 4.1 4.26 10.1 5.25l9.4 4.44 8-4.42c6.08-.99 10.23-2.98 10.23-5.27z" id="path183" style="fill:#231f20;stroke:#231f20;stroke-width:2.0999999px;stroke-miterlimit:10"/><path class="cls-12" id="polyline185" style="fill:none;stroke:#b2b3b3;stroke-width:3.57999992px;stroke-miterlimit:10" transform="translate(-110.68 -312.847)" d="m258.04 457.06 7.67 4.48 7.36-4.48"/><path class="cls-2" d="M117.93 173.793s-4.8 15.36 1.92 22.56l2.4 5.28s-.48-23 1-29.28" id="path187" style="fill:#231f20"/><path class="cls-2" id="polyline189" style="fill:#231f20" transform="translate(-110.68 -312.847)" d="m229.57 454.01-2.4-8.64 10.56 2.88"/><path class="cls-4" d="m81.46 196.833 3.6.24-.48-4.56s9.59 7.44 10.07 15.6c.48 8.16-1.68-4.32-9.59-7" id="path191" style="fill:#b2b3b3"/><path class="cls-4" id="polygon193" style="fill:#b2b3b3" transform="translate(-110.68 -312.847)" d="m272.92 399.14-5.44 10.88-4.48-10.88z"/><path class="cls-20" d="m102.73 108.373 1.59 5.78s1.6-5.12 6.72-12.16c5.12-7.04-13.12-4.8-13.12-4.8l-3.84 12.48" id="path195" style="fill:#231f20;stroke:#231f20;stroke-width:1.44000006px;stroke-miterlimit:10"/><path class="cls-20" d="M123.21 198.593s-1.6-14.4 7.36-34.55l-11.2 9.59" id="path197" style="fill:#231f20;stroke:#231f20;stroke-width:1.44000006px;stroke-miterlimit:10"/><path class="cls-4" id="polyline199" style="fill:#b2b3b3" transform="translate(-110.68 -312.847)" d="m257.4 458.57-3.36 1.2 10.32 2.64"/><path class="cls-2" d="M193.09 173.793s4.8 15.36-1.92 22.56l-2.39 5.28s.48-23-1-29.28" id="path201" style="fill:#231f20"/><path class="cls-2" id="polyline203" style="fill:#231f20" transform="translate(-110.68 -312.847)" d="m302.81 454.01 2.4-8.64-10.55 2.88"/><path class="cls-4" d="m229.57 196.833-3.6.24.48-4.56s-9.6 7.44-10.08 15.6c-.48 8.16 1.68-4.32 9.6-7" id="path205" style="fill:#b2b3b3"/><path class="cls-20" d="m206.85 108.373-1.6 5.76s-1.6-5.12-6.72-12.16c-5.12-7.04 13.12-4.8 13.12-4.8l3.84 12.48" id="path207" style="fill:#231f20;stroke:#231f20;stroke-width:1.44000006px;stroke-miterlimit:10"/><path class="cls-20" d="M188.32 198.593s1.6-14.4-7.36-34.55l11.2 9.59" id="path209" style="fill:#231f20;stroke:#231f20;stroke-width:1.44000006px;stroke-miterlimit:10"/><path class="cls-4" id="polyline211" style="fill:#b2b3b3" transform="translate(-110.68 -312.847)" d="m273.54 458.57 3.36 1.2-10.32 2.64"/><path class="cls-4" id="polygon213" style="fill:#b2b3b3" transform="translate(-110.68 -312.847)" d="m229.09 432.41 37.43 15.36 34.55-16.32-34.55 10.56z"/></svg>