<svg xmlns="http://www.w3.org/2000/svg" id="Layer_1" data-name="Layer 1" version="1.1" width="265.66" height="332.085"><defs id="defs4"><style id="style2">.cls-3{fill:#fff}.cls-4{fill:#142f5e}.cls-5{fill:#4aff4a}.cls-15{fill:none;stroke:#fff;stroke-miterlimit:10;stroke-width:7.95px}</style></defs><path class="cls-5" d="M89.081 41.15a132.83 132.83 0 1 0 101.5 5.8 132 132 0 0 0-101.5-5.8z" id="path498" style="fill:#4aff4a"/><circle class="cls-15" cx="132.771" cy="166.45" r="119" id="circle500" style="fill:none;stroke:#fff;stroke-width:7.94999981px;stroke-miterlimit:10"/><circle class="cls-15" cx="114.837" cy="179.286" r="103.09" transform="rotate(-5.95)" id="circle502" style="fill:none;stroke:#fff;stroke-width:7.94999981px;stroke-miterlimit:10"/><circle class="cls-15" cx="114.837" cy="179.286" r="87.19" transform="rotate(-5.95)" id="circle504" style="fill:none;stroke:#fff;stroke-width:7.94999981px;stroke-miterlimit:10"/><path class="cls-5" d="M199.811 314.53c79.07-30.88 46.14-84.22 38.28-94.63-7.86-10.41-2.82-21.56-2.82-21.56l-7-5.64-15.3-6.7-.54-28.44s-13.54-10.93-14.93-32.85c-1.39-21.92-33.85-32.88-68.34-31.23l-1.06.37-8.29-18s15.28-4.63 7.3-24.71l-6.3-18.21s-.6-10.34-13.81-8.55L103.341 13s-12.56-2.31-13.22-13l-27.31 9.54c6.12 8.77-2.28 18.38-2.28 18.38l4.25 11.18c-11.45 6.82-5.48 15.28-5.48 15.28l6.34 18.19c6.25 20.69 21.08 14.81 21.08 14.81l4.71 19.26-1.05.37c-28 20.15-46.63 48.93-34.09 67s8.74 35 8.74 35l17.27 22.61-7.83 14.78-2 8.77s10.87 5.6 11.2 18.64c.33 13.04 7.71 75.29 88.83 50.28z" id="path506" style="fill:#4aff4a"/><path class="cls-3" id="polygon508" style="fill:#fff" transform="translate(-606.189 -751)" d="m683.08 780.92 15.78-5.5 74.55 189.54-30.82 10.76z"/><path class="cls-4" d="m163.201 312.16-.57-2.46c.19.85-20.64 0-21.81-.18-6.33-1-13.89-2.3-19.44-5.56a36.22 36.22 0 0 1-13.21-14c-4.15-7.65-5.13-15.78-5.88-24.28-.1-1.08-1.77-15.14-1.36-15.25 0 0 20.89-5.59 10.8-38.18 0 0-4.84-13.19-22.88-15.6 0 0 .53-8.16-7.3-20.65-7.83-12.49-.74-34.46 9.73-45l-.83-2.41s-22.57 12.06-19.71 39c0 0 .6 8.66 4.71 14.87 4.11 6.21 6.59 15.65 3.39 21.32l6.58 5.42s5.1-5.29 12.49-.88c7.39 4.41 11.47 26.18 2.15 31.85 0 0-5.54 1.71-9.23 2.58l-4.26 7.14s7.16 3.47 7.92 9.32c.7 5.36.31 10.89.58 16.29.81 16.13 8 30.37 23.73 35.69 14.09 4.81 30.01 3.32 44.4.97z" id="path510" style="fill:#142f5e"/><path class="cls-3" d="m199.431 299.53-1.08-2.29c.37.79 16.16-12.85 17-13.71 4.37-4.68 9.45-10.44 11.77-16.44a36.11 36.11 0 0 0 1.61-19.21c-1.51-8.56-5.79-15.54-10.49-22.67-.59-.9-8-13-8.42-12.78 0 0-19.84 8.61-32.2-23.18 0 0-4.42-13.34 8.21-26.45 0 0-5.49-6.06-7.13-20.71-1.64-14.65-20.89-27.42-35.6-29.09l-.85-2.4s25.17-4.6 39.72 18.3c0 0 4.92 7.16 5.55 14.57.63 7.41 4.58 16.36 10.61 18.81l-1.78 8.33s-7.29-1-10.33 7.08 7.31 27.64 18.13 26.28c0 0 5.4-2.11 8.82-3.72l7.79 2.94s-3.46 7.17-.41 12.22c2.79 4.63 6.53 8.73 9.68 13.12 9.4 13.13 12.63 28.75 3.61 42.71-8.06 12.46-21.49 21.18-34.21 28.29z" id="path512" style="fill:#fff"/><path class="cls-4" d="m171.141 246.18-4.42 1.54-4.27 1.49-2 .7-2.41.84 1.84-.64-4.26 1.48-4.43 1.55c-1.07.47 3.15 8.44 3.51 9.17a121.72 121.72 0 0 0 7.83 12.88c3.61 5.5 4.84 12.27 7 18.41l5.68 16.4 1.81-.64 2.61-.91.73-.25 2.15-.75.73-.26 2.61-.91 1.81-.63-5.7-16.34c-2.14-6.15-5.38-12.21-6-18.77a124.8 124.8 0 0 0-1.88-15c-.15-.8-1.81-9.66-2.94-9.36z" id="path514" style="fill:#142f5e"/><path class="cls-4" d="M137.541 222.16a6 6 0 0 0-5.87-1.73c-2.78.65-5.19 2.94-6.77 6.45a19.88 19.88 0 0 0-1.73 8.24c.17 4.92 2.13 9.74 6.15 15.17 1 1.41 2.14 2.76 3.2 4.08a56.79 56.79 0 0 1 5.37 7.37c1.32 2.29 2.52 5.58 2 7.4a1.62 1.62 0 0 1-.85 1.06 2.71 2.71 0 0 1-.93.32 8.71 8.71 0 0 0-1.26-2.9c-1.73-2.58-4.35-3.76-5.87-2.63a2.2 2.2 0 0 0-.54.6 3.15 3.15 0 0 0-1 2.33 8.62 8.62 0 0 0 4.09 7.44 7.94 7.94 0 0 0 8.15.09h.06a7.77 7.77 0 0 0 3.68-4.78c.43-1.55 1-5.83-2.59-12.1a64.21 64.21 0 0 0-5.9-8.14c-1-1.26-2.07-2.56-3-3.85-3.28-4.43-4.87-8.19-5-11.81a13.29 13.29 0 0 1 1.09-5.22 7.46 7.46 0 0 1 1.69-2.61 8.86 8.86 0 0 0 1.06 4.68c1.46 2.88 3.83 4.53 5.28 3.69l.19-.13a3.06 3.06 0 0 0 2-2.32c.62-3.25-.2-8.13-2.7-10.7z" id="path516" style="fill:#142f5e"/><path class="cls-4" d="M162.581 213.43a6 6 0 0 1 3.52-5c2.58-1.22 5.89-.92 9.31.84a19.8 19.8 0 0 1 6.48 5.37c2.93 4 4.4 9 4.63 15.71v5.19a58.06 58.06 0 0 0 .38 9.11c.39 2.61 1.5 5.93 3 7a1.6 1.6 0 0 0 1.32.31 2.72 2.72 0 0 0 .92-.33 8.67 8.67 0 0 1-.81-3c-.25-3.1 1.07-5.66 3-5.71a2.2 2.2 0 0 1 .8.13 3.14 3.14 0 0 1 2.25 1.18 8.62 8.62 0 0 1 1.43 8.37 8 8 0 0 1-6.33 5.14h-.06a7.74 7.74 0 0 1-5.86-1.45c-1.3-.95-4.43-3.93-5.49-11.08a63.36 63.36 0 0 1-.45-10.05v-4.9c-.19-5.51-1.28-9.44-3.44-12.36a13.45 13.45 0 0 0-4.09-3.41 7.71 7.71 0 0 0-2.94-1 8.91 8.91 0 0 1 2.07 4.33c.65 3.16-.18 5.92-1.84 6.17a.82.82 0 0 1-.22 0 3.08 3.08 0 0 1-3-.56c-2.55-2.11-4.93-6.43-4.58-10z" id="path518" style="fill:#142f5e"/><path class="cls-4" d="M80.091 33.75s-3-4.19-9-2.12l-2.38-6.83s8.1-2.42 5.44-11.58l9.19-3.21c3.61 8.83 11.46 5.69 11.46 5.69l2.38 6.82c-5.91 2.07-5.7 7.25-5.7 7.25" id="path520" style="fill:#142f5e"/><path class="cls-4" d="M104.041 36.69a4.47 4.47 0 0 1 2.78-3.42c2.45-.85 5.29.89 6.34 3.89 1.05 3-.09 6.13-2.54 7a4.55 4.55 0 0 1-4.56-1.15l-10.72 3.74-2.18-6.25z" id="path522" style="fill:#142f5e"/><path class="cls-4" d="M113.141 51.38c2.45-.85 5.29.89 6.33 3.89s-.09 6.13-2.54 7a4.53 4.53 0 0 1-4.55-1.15l-10.72 3.74-2.18-6.25 10.87-3.79a4.5 4.5 0 0 1 2.79-3.44z" id="path524" style="fill:#142f5e"/><path class="cls-4" d="M75.861 46.52a4.48 4.48 0 0 0-4.3-.95c-2.45.86-3.59 4-2.55 7s3.89 4.74 6.34 3.89a4.55 4.55 0 0 0 2.85-3.74L88.921 49l-2.18-6.25z" id="path526" style="fill:#142f5e"/><path class="cls-4" d="M77.871 63.68c-2.45.86-3.58 4-2.54 7s3.89 4.74 6.34 3.89a4.59 4.59 0 0 0 2.85-3.74l10.72-3.74-2.18-6.25-10.88 3.8a4.49 4.49 0 0 0-4.31-.96z" id="path528" style="fill:#142f5e"/><path class="cls-4" d="m91.461 29.79-11.48 4 54.83 173.55 3.81-1.32L95.001 71c-.83-4.79 1.49-.52 1.49-.52l47.18 133.83 4.19-1.46-46.3-134.14s-.84-4.79 1.48-.52l49.83 132.91 4.29-1.5z" id="path530" style="fill:#142f5e"/><path class="cls-4" d="M138.661 206s1.64 5 .24 6.72c-1.4 1.72-4.05-5.4-4.05-5.4" id="path532" style="fill:#142f5e"/><path class="cls-4" d="M152.941 201s1.83 4.94 4.19 5.35c2.36.41 0-6.82 0-6.82" id="path534" style="fill:#142f5e"/><path class="cls-4" d="m147.811 202.81-1.34-.09-.27-.79-.79.72-1.06-.08.27.79-1 .91s.39 2.08 1.85 1.57l1.85-.65c1.49-.51.49-2.38.49-2.38z" id="path536" style="fill:#142f5e"/><path class="cls-4" d="M52.321 159.38s.8-24.78 38-52.37l-3.66-19.63s-15.21-.84-18.14-7.82l-9.28-25.18s-4.32-11.11 5.48-15.28l-4.25-11.18s9.09-7.41 2.28-18.38c0 0-3.65 13.44-11.22 19.5l3.28 8.51s-7.27 5.5-2.1 20.23l7.22 23.76s4.72 15.38 20.27 12.81l1.3 8.43s-33.18 22.72-29.18 56.6z" id="path538" style="fill:#142f5e"/><path class="cls-4" d="M82.271 231.59s-7.66 14-9.8 23.55c0 0 11.39 1.9 10.45 8.32 0 0 0 22.36 5.22 33s15.75 38.91 65.44 32.17c0 0-57.36 19.52-74.88-34.23a159.23 159.23 0 0 1-2.74-24.94s1.87-6.43-12.46-9.23c0-.03 4.47-20.83 18.77-28.64z" id="path540" style="fill:#142f5e"/></svg>