<svg xmlns="http://www.w3.org/2000/svg" id="Layer_1" width="525.653" height="467.453" data-name="Layer 1" version="1.1"><defs id="defs1232"><style id="style1230">.cls-1{stroke-miterlimit:10;stroke-width:7.15px}.cls-1,.cls-12,.cls-4,.cls-5,.cls-7{stroke:#11054f}.cls-1,.cls-12{fill:none}.cls-12,.cls-4,.cls-5,.cls-7{stroke-linecap:round;stroke-linejoin:round}.cls-18{fill:#11054f}.cls-4,.cls-5{stroke-width:5.02px}.cls-4{fill:#f163ff}.cls-5{fill:#c8006b}.cls-12,.cls-7{stroke-width:5.13px}.cls-20,.cls-7{fill:#d4d4f6}.cls-18,.cls-20{stroke-width:0}</style></defs><g id="g1351" transform="translate(-36.557 -66.137)"><path id="path1236" d="M506 197.66h-14.61c-13.55-16.02-29.48-29.79-47.46-41.03L348.69 97.1c-95.41-59.63-221.54-30.52-281.17 64.88C7.89 257.39 37 383.52 132.4 443.15l95.24 59.53c32.36 20.22 69.52 30.91 107.46 30.91 15.53 0 31.18-1.79 46.52-5.33 53.24-12.29 98.41-44.41 127.19-90.47 15.19-24.3 24.89-50.79 28.87-78.82 15.87-18.26 24.53-41.33 24.53-65.71v-39.38c0-31-25.22-56.22-56.22-56.22z" class="cls-20" style="fill:#d4d4f6;stroke-width:0"/><g id="g1242"><rect id="rect1238" width="460.82" height="348.51" x="57.75" y="125.64" rx="174.25" ry="174.25" style="fill:#ffa3fd;stroke-width:0" transform="rotate(32.01 288.13 299.833)"/><path id="path1240" d="M335.1 513.47c-34.03 0-67.36-9.46-96.79-27.85l-95.24-59.53c-41.5-25.93-70.45-66.65-81.52-114.65-11.08-48-2.89-97.29 23.04-138.78 25.93-41.5 66.65-70.45 114.65-81.52 48-11.08 97.29-2.9 138.78 23.04l95.24 59.53c41.5 25.93 70.45 66.65 81.52 114.65 11.08 48 2.89 97.29-23.04 138.78-25.93 41.49-66.65 70.45-114.65 81.52-13.96 3.22-28.04 4.81-41.99 4.81m-93.91-407.83c-12.5 0-25.1 1.43-37.61 4.31-42.97 9.92-79.41 35.82-102.61 72.94-23.2 37.12-30.51 81.23-20.6 124.2 9.92 42.97 35.82 79.41 72.94 102.61l95.24 59.53c37.12 23.2 81.23 30.51 124.2 20.6 42.97-9.92 79.41-35.82 102.61-72.94 23.2-37.12 30.51-81.23 20.6-124.2-9.92-42.97-35.82-79.41-72.94-102.61l-95.24-59.53c-26.31-16.45-56.14-24.91-86.59-24.91" class="cls-18" style="fill:#11054f;stroke-width:0"/></g><path id="path1244" d="M442.45 363.91c3.2-3.61 3.77-8.87 1.42-13.08-2.35-4.21-7.12-6.49-11.85-5.66-5.58.94-21.07 2.09-31.69-2.39-1.47-8.1-1.8-17.07-.99-26.73l.09-1.05c9.05-8.26 14.16-19.76 14.16-32.11v-25.57c0-4.29-1-8.48-2.91-12.29.18-3.67.27-7.35.27-10.99 0-43.03-12.08-89.3-38.57-90.76-31.77-42.93-106.77-18.68-156.98-2.45l-.29.09c-5.89 1.9-11.46 3.7-16.43 5.22-38.36 11.67-54.69 2.25-55.64 1.66-3.38-2.44-7.93-2.84-11.68-.98-3.87 1.91-6.36 5.92-6.35 10.23 0 2.3.45 19.53 12 31.41-3.66 4.22-8.24 9.7-13.29 16.19-2.54 3.26-5.25 7.28-8.12 11.53-3.77 5.6-12.51 18.55-16.43 20.75-3.98.62-7.32 3.28-8.81 7.07-1.57 4-.77 8.49 2.09 11.71 1.13 1.27 10.41 11.13 26.28 11.4 4.43 11.93 11.84 36.35 12.11 66.94v1.1c0 1.23 0 2.37-.01 3.43-.02 1.06-.03 2.13-.07 3.2-.25 7.9-3.17 17.39-6.25 27.45-2.04 6.65-4.16 13.52-5.6 20.38-.71 3.35.12 6.81 2.27 9.49a11.29 11.29 0 0 0 8.44 4.22c3.04.17 9.97-.41 18.03-3.03l.09.35c1.15 4.27 4.72 7.5 9.07 8.23.51.09 12.6 2.11 27.95 2.11.71.04 1.44 0 2.16-.01.17.62.39 1.22.67 1.81 1.86 3.98 5.9 6.55 10.37 6.55 1.92-.01 19.33-.26 38.47-4.95 2.33-.57 4.65-1.21 6.92-1.9.98.17 1.96.33 2.95.47v.09h-.1l-.39.05c-.29.02-.6.05-.96.1-.13.02-.26.04-.4.07l-12.1 3.51c-5.05 1.5-8.4 6.22-8.15 11.48 1.18 25.06 9.05 42.47 23.4 51.74 7.39 4.77 16.33 7.19 26.6 7.19 11.21 0 24.28-2.92 38.86-8.69 32.19-12.75 40.31-50.11 40.64-51.69.7-3.38-.14-6.85-2.32-9.53-1.22-1.5-2.76-2.64-4.49-3.35 4.07-3.02 8.26-6.62 12.25-10.87l.15.14c.43.41.88.82 1.36 1.23l.33.29c.58.49 1.21.98 1.91 1.5l.55.4c.54.39 1.11.77 1.71 1.16l.62.39c.77.48 1.59.95 2.47 1.41.17.09.34.18.54.27.72.37 1.48.72 2.25 1.06.28.12.55.24.83.36 2.04.85 4.22 1.56 6.47 2.13l.78.19.17.04c.98.23 2 .43 3.13.62.21.04.41.08.63.11 1.26.2 2.59.35 3.92.46.25.02.5.04.75.05h.2c1.12.09 2.28.13 3.34.14.26.01.52.03.8.03l1.48-.02c.99-.02 2-.07 3.04-.13l.65-.05c1.05-.08 2.11-.18 3.16-.3l.34-.04c1.09-.13 2.21-.3 3.33-.48l.74-.12c1.12-.19 2.28-.42 3.42-.66l.84-.18c1.19-.27 2.4-.55 3.65-.88l.56-.15c1.19-.32 2.4-.67 3.63-1.04l.56-.17c1.3-.4 2.64-.85 4.01-1.32l.83-.29c1.35-.48 2.72-.99 4.12-1.54l.76-.3c1.48-.59 2.97-1.2 4.51-1.88 1.07-.47 2.06-1.09 2.94-1.86 2.63-2.3 4.07-5.76 3.85-9.23-.25-4.18-2.85-7.92-6.64-9.64-.25-.12-.49-.23-.74-.33l-1.5-.62h-.13c-.57-.24-1.33-.58-2.25-1.05l-.13-.07c-.22-.11-.45-.24-.72-.38l-.19-.11c-.32-.18-.65-.37-1-.57-.24-.14-.47-.28-.69-.41l-.36-.22c-.47-.3-.98-.63-1.52-1 7.17-3.85 13.83-9.22 19.89-16.06z" class="cls-18" style="fill:#11054f;stroke-width:0"/><g id="g1324"><path id="polygon1246" d="m270.3 377.04-14.87 24.73 4.73 29.39-13.31 13.17 5.79 23.31h45.25l26.88-21.94 7.32-16.34-10.37-7.93h0l-2.54-8.56 18.59-11.68 4.05-60.82z" class="cls-7" style="fill:#d4d4f6;stroke:#11054f;stroke-width:5.13000011px;stroke-linecap:round;stroke-linejoin:round"/><path id="path1248" d="M293.32 377.85s-16.12 4.67-27.86 8.25l-5.9 11.9-2.59 13.8 2.59-.27s41.63-5.94 43.63-28.31l-1.75-12.34-8.12 6.96z" style="fill:#11054f;stroke:#11054f;stroke-width:4.63000011px;stroke-linecap:round;stroke-linejoin:round"/><path id="path1250" d="M153.55 249.87s2.79 57.54 8.38 76.53c5.59 18.99-7.26 21.79 10.61 34.08 17.88 12.29 47.48 41.34 85.47 41.34s67.04-40.22 83.8-61.45c16.76-21.23 3.91-124.02 3.91-124.02s-19.55-51.39-97.76-45.81c-78.21 5.59-96.17 52.39-94.41 79.33" class="cls-7" style="fill:#d4d4f6;stroke:#11054f;stroke-width:5.13000011px;stroke-linecap:round;stroke-linejoin:round"/><g id="g1264"><path id="path1252" d="m204.23 296.22 2.73-11.8-.9-10.35c-.21-2.39.34-7.35-1.81-8.96-1.23-.92-2.81-1.36-4.21-1.96-2.42-1.03-4.96-1.8-7.56-2.24-7.14-1.19-14.32.45-20.27 4.58-1.13.79-2.21 1.65-3.24 2.56 0 0-6.61 14.6 0 26.77 0 0-8.99-7.2-6.33-24.97s45-20.7 46.33 2.47c0 0 1.42 18.75-4.75 23.89" style="fill:#11054f;stroke:#11054f;stroke-width:4.19000006px;stroke-linecap:round;stroke-linejoin:round"/><g id="g1260"><ellipse id="ellipse1254" cx="192.46" cy="284.42" rx="13.14" ry="21.21" style="fill:#11054f;stroke:#11054f;stroke-width:5.44999981px;stroke-linecap:round;stroke-linejoin:round"/><path id="path1256" d="M180.04 291.31c1.77 8.33 6.66 14.32 12.41 14.32 5.27 0 9.8-5.02 11.89-12.25-1.61-4.43-4.33-7.3-7.49-4.14-4.26 4.26-3.35 4.56-8.22-3.04-2.81-4.39-6.22.33-8.61 5.11z" style="fill:#e6a4ff;stroke:#11054f;stroke-width:4.34000015px;stroke-linecap:round;stroke-linejoin:round"/><ellipse id="ellipse1258" cx="200.01" cy="277.71" class="cls-20" rx="2.99" ry="4.81" style="fill:#d4d4f6;stroke-width:0"/></g><path id="path1262" d="m166.35 272.69-9.39-11.3h7.92l-5.9-10.12 21.07 6.8s-13.56 8.46-13.69 14.62z" style="fill:#11054f;stroke:#11054f;stroke-width:3.57999992px;stroke-linecap:round;stroke-linejoin:round"/></g><g id="g1278"><g id="g1272"><ellipse id="ellipse1266" cx="288.65" cy="276.33" rx="16.2" ry="23.34" style="fill:#11054f;stroke:#11054f;stroke-width:6.3499999px;stroke-linecap:round;stroke-linejoin:round"/><path id="path1268" d="M273.34 283.91c2.19 9.16 8.21 15.76 15.31 15.76 6.5 0 12.09-5.52 14.67-13.48-1.98-4.87-5.33-8.04-9.23-4.56-5.25 4.69-4.13 5.02-10.13-3.35-3.46-4.83-7.67.36-10.61 5.63z" style="fill:#e6a4ff;stroke:#11054f;stroke-width:5.05999994px;stroke-linecap:round;stroke-linejoin:round"/><ellipse id="ellipse1270" cx="298.02" cy="270.45" class="cls-20" rx="3.63" ry="5.2" style="fill:#d4d4f6;stroke-width:0"/></g><path id="path1274" d="M268.4 255.87s24.2-9.68 41.32-5.46c0 0 6.94 13.69 7.82 24.18 0 0 1.89-16.64 1.01-28.01 0 0-38.43-5.77-50.15 9.29" style="fill:#11054f;stroke:#11054f;stroke-width:4.88000011px;stroke-linecap:round;stroke-linejoin:round"/><path id="polyline1276" d="m304.85 244.59 17.84-7.35-4.13 9.34h9.17l-8.94 6.41" style="fill:#11054f;stroke:#11054f;stroke-width:4.17000008px;stroke-linecap:round;stroke-linejoin:round"/></g><path id="path1280" d="M160.58 230.93s34.02-6.13 50.12 13.8" class="cls-12" style="fill:none;stroke:#11054f;stroke-width:5.13000011px;stroke-linecap:round;stroke-linejoin:round"/><path id="path1282" d="M334.58 216.35c-27.19-6.51-69.88 13.8-69.88 13.8l-12.76 21.12" class="cls-12" style="fill:none;stroke:#11054f;stroke-width:5.13000011px;stroke-linecap:round;stroke-linejoin:round"/><path id="path1284" d="M387.28 314.46c.65-7.79 1.35-14.97 2.01-21.7 5.86-14.55 9.56-35.74 9.56-59.34 0-43.87-12.76-79.43-28.5-79.43-1.47 0-2.92.31-4.33.91-27.08-49.32-118.09-12.71-164.75 1.49-47.12 14.33-65.61 0-65.61 0s.06 22.98 17.89 29.33c0 0-9.22 9.42-21.58 25.28-8.74 11.22-21.88 35.59-31.75 36.53 0 0 9.24 10.38 25.11 6.83 0 0 17.65 36.94 16.07 87.15-.48 15.25-8.58 33.18-12.1 49.82 0 0 33.29.2 43.24-30.86 0 0-10.47-6.9-9.19-26.59 0 0-7.66-38-9.81-84.02 0 0 33.4-36.94 79.52-48.88v24.26s9.47-9.26 29.77-17.83c8.63-3.64 16.58-9.8 30.89-10.77h25.45s13.99 75.46 12.12 123.21c-1.87 47.75-12.12 95.5-12.12 95.5s25.78-9.08 39.57-32.07l3.95 6.56s14.11 26.23 63.67 4.59c0 0-44.68-13.34-39.09-79.97z" class="cls-4" style="fill:#f163ff;stroke:#11054f;stroke-width:5.01999998px;stroke-linecap:round;stroke-linejoin:round"/><path id="path1286" d="m360.36 348.59-28.9-38.05c0 3.2-.05 6.31-.17 9.31-1.87 47.75-12.59 96.26-12.59 96.26s2.16 8.11 6.18 6.85c12.7-3.99 27.42-23.37 33.87-39.68l3.95 6.56s2.71 5.03 9.91 8.87l-12.25-50.11Z" class="cls-4" style="fill:#f163ff;stroke:#11054f;stroke-width:5.01999998px;stroke-linecap:round;stroke-linejoin:round"/><path id="path1288" d="M426.37 394.43s-19.87-5.97-31.45-29.7c-17.22-8.4-27.29-16.13-27.29-16.13l-18.33 41.75c5.03-4.41 5.51-.49 9.46-7.07l3.95 6.56s14.11 26.23 63.67 4.59z" class="cls-4" style="fill:#f163ff;stroke:#11054f;stroke-width:5.01999998px;stroke-linecap:round;stroke-linejoin:round"/><path id="path1290" d="M360.36 381.67c4.02-6.69 7.02-14.56 8.07-23.73V245.9s.37-20.94-5.85-44.6" style="fill:none;stroke:#11054f;stroke-width:5.01999998px;stroke-linecap:round;stroke-linejoin:round"/><path id="path1292" d="M368.63 240.6h22.81c5.52 0 10 4.48 10 10v43.87c0 11.04-8.96 20-20 20h-12.81c-.55 0-1-.45-1-1V241.6c0-.55.45-1 1-1" class="cls-7" style="fill:#d4d4f6;stroke:#11054f;stroke-width:5.13000011px;stroke-linecap:round;stroke-linejoin:round"/><path id="path1294" d="M252.36 193.1s13.48-11.33 35.96-13.43l.32 30.43 30.53-13.45 26.55 19.71L323.08 154" class="cls-4" style="fill:#f163ff;stroke:#11054f;stroke-width:5.01999998px;stroke-linecap:round;stroke-linejoin:round"/><path id="path1296" d="m153.55 249.87-11.85 12.11s3.22-26.8 15.25-49.2" class="cls-4" style="fill:#f163ff;stroke:#11054f;stroke-width:5.01999998px;stroke-linecap:round;stroke-linejoin:round"/><path id="path1298" d="m368.43 319.73 1.61 50.04c-3.26 47.92-19.49 47.93-19.49 47.93s-12.45-32.54-3.91-54.79c5.16-13.45 2.2-51.63 1.35-65.66-.12-1.94.66-9.81-.69-11.28l20.33 22.06.81 11.7z" class="cls-4" style="fill:#f163ff;stroke:#11054f;stroke-width:5.01999998px;stroke-linecap:round;stroke-linejoin:round"/><path id="line1300" d="m144.3 179.67 17.85 11.98" class="cls-5" style="fill:#c8006b;stroke:#11054f;stroke-width:5.01999998px;stroke-linecap:round;stroke-linejoin:round"/><path id="path1302" d="M237.94 353.33s30.78 2.27 56.28-23.26l-10.75-1.65" class="cls-12" style="fill:none;stroke:#11054f;stroke-width:5.13000011px;stroke-linecap:round;stroke-linejoin:round"/><path id="path1304" d="M367.63 254.86s25.43-4.23 33.81 7.81" class="cls-7" style="fill:#d4d4f6;stroke:#11054f;stroke-width:5.13000011px;stroke-linecap:round;stroke-linejoin:round"/><path id="path1306" d="M367.63 308.03c.95.38 1.94.59 2.96.59 7.7 0 13.95-11.51 13.95-25.71 0-14.2-6.24-25.71-13.95-25.71-1.02 0-2 .21-2.96.59v50.25z" class="cls-7" style="fill:#d4d4f6;stroke:#11054f;stroke-width:5.13000011px;stroke-linecap:round;stroke-linejoin:round"/><path id="path1308" d="m234.87 427.1 10.91-3.24s2.23 29.36 14.39 33.01c12.16 3.65 57.24 8.33 64.49-33.01h17.11s-6.81 32.77-33.67 43.4c-26.85 10.63-70.4 20.39-73.24-40.15z" style="fill:#ffa3fd;stroke:#11054f;stroke-width:5.13000011px;stroke-linecap:round;stroke-linejoin:round"/><path id="path1310" d="M141.49 334.5s6.25-18.71 16.49-34.83" class="cls-5" style="fill:#c8006b;stroke:#11054f;stroke-width:5.01999998px;stroke-linecap:round;stroke-linejoin:round"/><path id="polygon1312" d="m259.09 424.53-13.31-.67 5.3 16.29 9.08-8.99z" class="cls-7" style="fill:#d4d4f6;stroke:#11054f;stroke-width:5.13000011px;stroke-linecap:round;stroke-linejoin:round"/><path id="line1314" d="m260.16 431.16 3.14 11.35" class="cls-7" style="fill:#d4d4f6;stroke:#11054f;stroke-width:5.13000011px;stroke-linecap:round;stroke-linejoin:round"/><path id="path1316" d="M259.09 424.53c-4.75.26 30.26 21.6 62.63-3.1" class="cls-7" style="fill:#d4d4f6;stroke:#11054f;stroke-width:5.13000011px;stroke-linecap:round;stroke-linejoin:round"/><path id="path1318" d="M172.55 360.48c5.15 3.17 19.87 16.43 34.67 24.83 18.64 10.58 37.42 16.3 37.42 16.3l3.22 14.49-45.08 8.05c-22.58 16.11-25.31 15.56-25.31 15.56-12.93-11.67-10.62-23.61-10.62-23.61 2.71-28.98 1.66-46.49 1.66-46.49l4.05-9.14z" class="cls-4" style="fill:#f163ff;stroke:#11054f;stroke-width:5.01999998px;stroke-linecap:round;stroke-linejoin:round"/><path id="path1320" d="M184.92 372.56c-3.92 34.92 25.65 49.52 25.65 49.52l17.1 11.26s-12.33-29.94-7.34-41.3c0 0-21.87-6.66-30.98-16.25z" class="cls-4" style="fill:#f163ff;stroke:#11054f;stroke-width:5.01999998px;stroke-linecap:round;stroke-linejoin:round"/><path id="path1322" d="M237.73 314.96c-6.99 0-12.43-1.42-18.9-3.92 0 0 11.12-13.02 9.45-24.57" style="fill:none;stroke:#11054f;stroke-width:4.94999981px;stroke-linecap:round;stroke-linejoin:round"/></g><g id="g1335"><g id="g1330"><path id="path1326" d="M472.96 224.41h42.5c11.04 0 20 8.96 20 20v42.5c0 44.15-35.85 80-80 80h-42.5c-11.04 0-20-8.96-20-20v-42.5c0-44.15 35.85-80 80-80" style="fill:#f163ff;stroke-width:0"/><path id="path1328" d="M461.8 373.54h-39.39c-19.9 0-36.09-16.19-36.09-36.09v-39.39c0-44.27 36.01-80.28 80.28-80.28h39.39c19.9 0 36.09 16.19 36.09 36.09v39.39c0 44.27-36.01 80.28-80.28 80.28m4.81-142.5c-36.96 0-67.02 30.07-67.02 67.02v39.39c0 12.59 10.24 22.83 22.83 22.83h39.39c36.96 0 67.02-30.07 67.02-67.02v-39.39c0-12.59-10.24-22.83-22.83-22.83z" class="cls-18" style="fill:#11054f;stroke-width:0"/></g><g id="JIPMdN"><path id="path1332" d="M507.18 280.66v36.89c0 11.76-7.51 19.74-19.33 20.58-5.16.37-10.04-.4-14.48-3.27-8.58-5.54-9.34-16.37-1.47-22.96 6.46-5.41 13.88-7.32 22.1-5.18 2.36.61 2.89.05 2.87-2.26-.09-10.19-.08-20.39-.01-30.58.01-2.19-.47-3.31-3-3.12-13.78 1.05-27.31 3.23-40.34 8.07-2.3.86-3.01 2.03-3 4.37.08 15.13.04 30.27.04 45.4 0 11.02-4.99 17.3-15.78 19.91-5.87 1.42-11.44.79-16.77-2.12-9.6-5.23-10.83-16.4-2.53-23.53 6.08-5.22 13.17-6.71 20.93-5.37 3.82.66 3.82.76 3.82-3.16 0-20.18.07-40.36-.06-60.54-.02-3.28 1.02-4.84 4.18-5.88 19.07-6.29 38.56-10.2 58.65-11 4.17-.17 4.19-.19 4.19 4.03.01 13.24 0 26.48 0 39.73z" class="cls-18" style="fill:#11054f;stroke-width:0"/></g></g><g id="g1349"><path id="line1337" d="m364.61 428.82 27.01 7.66" class="cls-1" style="fill:none;stroke:#11054f;stroke-width:7.1500001px;stroke-miterlimit:10"/><path id="line1339" d="m360.05 444.88 27.01 7.66" class="cls-1" style="fill:none;stroke:#11054f;stroke-width:7.1500001px;stroke-miterlimit:10"/><path id="line1341" d="m355.5 460.94 27.01 7.66" class="cls-1" style="fill:none;stroke:#11054f;stroke-width:7.1500001px;stroke-miterlimit:10"/><path id="line1343" d="m385.92 434.87 40.72 11.54" class="cls-1" style="fill:none;stroke:#11054f;stroke-width:7.1500001px;stroke-miterlimit:10"/><path id="line1345" d="m395.07 454.81 27.01 7.66" class="cls-1" style="fill:none;stroke:#11054f;stroke-width:7.1500001px;stroke-miterlimit:10"/><path id="line1347" d="m375.29 466.55 42.24 11.98" class="cls-1" style="fill:none;stroke:#11054f;stroke-width:7.1500001px;stroke-miterlimit:10"/></g></g></svg>