<svg xmlns="http://www.w3.org/2000/svg" id="Layer_1" data-name="Layer 1" version="1.1" width="251.518" height="258.918"><defs id="defs4"><style id="style2">.cls-3{fill:#fff}.cls-4{fill:#d8d8d8}.cls-5{fill:#f16567}.cls-6{fill:#f3b857}.cls-7{fill:#45dfef}.cls-21{fill:#6c72ef}.cls-20,.cls-21{stroke-linecap:round;stroke-linejoin:round}.cls-20{fill:none;stroke:#000}.cls-21{stroke:#6c72ef}.cls-20{stroke-width:9.5px}.cls-21{stroke-width:3.86px}</style></defs><path d="m242.543 244.273-17.69-141.33c-.18-1.3-.37-2.59-.59-3.87l-.07-.45a.14.14 0 0 0 0-.06 108.34 108.34 0 0 0-165.5-72.25l-2-2.1a2.7 2.7 0 0 0-.65-.52c-1.38-.79-4.83-2.42-7.13-.35-2.47 2.23-.8 6-.17 7.41.26.6.58 1.29.93 2.06a109.12 109.12 0 0 0-24 26.82 4.34 4.34 0 0 0-.53.85 108.2 108.2 0 0 0-9.53 94.22 4.29 4.29 0 0 0 .19.5 108.71 108.71 0 0 0 85.39 69.34l135.51 25.32a4.56 4.56 0 0 0 .9.08 4.93 4.93 0 0 0 4.88-5.67z" id="path358" style="stroke:#d8d8d8;stroke-width:17.95000076px;stroke-linecap:round;stroke-linejoin:round"/><path d="m236.433 241.423-16.45-108a104.54 104.54 0 0 0-103.27-120.3 103.85 103.85 0 0 0-56.63 16.72l-1.89-2a2.72 2.72 0 0 0-.63-.5c-1.33-.77-4.66-2.33-6.88-.34-2.38 2.15-.77 5.78-.16 7.15.25.57.56 1.24.9 2a104.46 104.46 0 0 0 77.74 185.23z" id="path360" style="stroke:#000;stroke-width:8.72000027px;stroke-miterlimit:10"/><path id="polyline362" style="stroke:#000;stroke-width:9.5px;stroke-linecap:round;stroke-linejoin:round" transform="translate(-127.457 -780.877)" d="m226.07 1000.81 138.62 24.66-17.55-141.15"/><circle class="cls-5" cx="115.123" cy="116.023" r="99.73" id="circle364" style="fill:#f16567"/><circle class="cls-6" cx="105.963" cy="106.863" r="90.57" id="circle366" style="fill:#f3b857"/><circle class="cls-7" cx="100.873" cy="102.713" r="83.83" id="circle368" style="fill:#45dfef"/><ellipse cx="95.193" cy="99.133" rx="76.66" ry="73.94" id="ellipse370" style="fill:#6c72ef"/><path d="M115.123 220.503a104.48 104.48 0 1 1 104.48-104.48 104.6 104.6 0 0 1-104.48 104.48zm0-199.45a95 95 0 1 0 95 95 95.07 95.07 0 0 0-95-95z" id="path372"/><path class="cls-20" d="M21.543 150.473s-2.67-116.75 130.69-125.11" id="path374" style="fill:none;stroke:#000;stroke-width:9.5px;stroke-linecap:round;stroke-linejoin:round"/><path class="cls-3" d="M120.033 142.363s8.73 7.3 2.77 21.67c-5.96 14.37-13.19 28.72-7.29 49l11.75-.47 72.14 13-10.81-79.44s-2.69-65.89-50.19-70.75" id="path376" style="fill:#fff"/><path class="cls-4" d="M158.283 178.223s32.83-5.11 26.92 13.36c0 0 20.18 6.8 7.3 21 0 0-5-17.78-17.57-19.39 0 .04 11.29-8.17-16.65-14.97z" id="path378" style="fill:#d8d8d8"/><path d="M199.403 230.443a4.24 4.24 0 0 1-.86-.08l-71.62-12.88-11.22.45a4.87 4.87 0 0 1-4.87-3.5c-5.93-20.44.47-35.63 6.12-49 .46-1.08.91-2.16 1.36-3.24 4.35-10.48-.86-15.57-1.46-16.12a4.82 4.82 0 0 1-.58-6.82 4.89 4.89 0 0 1 6.88-.59c.47.39 11.39 9.79 4.15 27.26l-1.38 3.29c-5.11 12.12-9.95 23.61-6.67 38.87l7.82-.31a4.64 4.64 0 0 1 1.05.07l65.56 11.79-9.91-72.84a3.42 3.42 0 0 1 0-.45c0-.62-3.11-61.74-45.82-66.11a4.87 4.87 0 1 1 1-9.68c21.36 2.19 37.59 16.11 46.95 40.28a122 122 0 0 1 7.59 34.86l10.78 79.26a4.86 4.86 0 0 1-4.82 5.52z" id="path380"/><path class="cls-4" d="M147.543 107.843s35.1 12.15 22.33 30.08c0 0 17.9 18.87-.37 28.11 0 0 1.49-23.11-10.64-31.86.01 0 14.46-3.21-11.32-26.33z" id="path382" style="fill:#d8d8d8"/><path class="cls-3" d="m137.323 125.483-8.19 13-48.33 23.44s-12.95 1.31-20.33-9.55c0 0-7.16-15.2 9.88-28.66l44.08-42.36s-1-23.64 17.68-28l5.21 35.1" id="path384" style="fill:#fff"/><path d="M79.543 166.863c-4.39 0-15.83-1.09-23.06-11.72a5.51 5.51 0 0 1-.38-.67c-3-6.44-4.59-21.88 11.08-34.39l42.36-40.76c.28-10.06 4.9-26.81 21.46-30.66a4.86 4.86 0 0 1 5.91 4l5.21 35.09a4.863 4.863 0 1 1-9.62 1.43l-4.31-29c-3.33 2.14-5.78 5.58-7.3 10.3a35.12 35.12 0 0 0-1.61 10.66 4.89 4.89 0 0 1-1.49 3.71l-44.08 42.36c-.11.11-.23.21-.35.31-12.56 9.93-9.5 20.23-8.62 22.48 4.8 6.67 12.41 7.14 14.81 7.1l46.19-22.4 7.45-11.85a4.895 4.895 0 0 1 8.25 5.27l-8.19 13a4.77 4.77 0 0 1-2 1.79l-48.34 23.45a4.73 4.73 0 0 1-1.64.46 16.39 16.39 0 0 1-1.73.04z" id="path386"/><path class="cls-4" id="polyline388" style="fill:#d8d8d8" transform="translate(-127.457 -780.877)" d="m196.32 912.74 10.46 2.37 3.34 8.84v-13.22l-8.94-2.6"/><path class="cls-20" d="M30.473 63.293c14 6.15 27.17 16.54 29.73 34 0 0-16.31 91.23 31.2 115.17" id="path390" style="fill:none;stroke:#000;stroke-width:9.5px;stroke-linecap:round;stroke-linejoin:round"/><path class="cls-20" d="M82.663 25.363c1.36 6 6.14 12.16 17.95 16.49 31.5 11.55 79.8-8.65 114.24 80.4" id="path392" style="fill:none;stroke:#000;stroke-width:9.5px;stroke-linecap:round;stroke-linejoin:round"/><path class="cls-4" d="m85.393 98.683 2.23 7.44 21.71-19.75s-4-14.25-14.79-14.15" id="path394" style="fill:#d8d8d8"/><path class="cls-6" d="M92.043 79.533a41.59 41.59 0 0 1 7.5 15.78l9.82-8.94s-2.61-9.28-9.29-12.8l-1.4-.11-2.69.21-.08-1.38c-.42 0-.85-.07-1.29-.07z" id="path396" style="fill:#f3b857"/><path d="M87.623 108.833a3 3 0 0 1-.72-.1 2.71 2.71 0 0 1-1.87-1.83l-2.23-7.44a2.7 2.7 0 1 1 5.17-1.56l1 3.33 17.22-15.65c-1.28-3.28-4.89-10.65-11.53-10.65h-.12a2.71 2.71 0 0 1 0-5.41h.1c12.6 0 17.08 15.46 17.27 16.12a2.7 2.7 0 0 1-.78 2.73l-21.69 19.75a2.72 2.72 0 0 1-1.82.71z" id="path398"/><path class="cls-4" d="M79.133 86.373s-9.07-9.11-5.34-21.5c3.73-12.39 1.75-16.56 1.75-16.56s8 .88 9.92 11.23-5.27 15.43-6.33 26.83z" id="path400" style="fill:#d8d8d8"/><path class="cls-6" d="m85.123 58.203-1.33-3.57a12.05 12.05 0 0 0-5.41-5.38l-2 16.4a40.83 40.83 0 0 1 7.65 5.36 19.83 19.83 0 0 0 1.41-11.47c-.09-.48-.2-.91-.32-1.34z" id="path402" style="fill:#f3b857"/><path d="M79.133 89.123a2.71 2.71 0 0 1-1.92-.8c-.42-.42-10.16-10.41-6-24.19 3-10.09 2-14.15 1.85-14.66a2.52 2.52 0 0 1 .14-2.69 2.72 2.72 0 0 1 2.62-1.12c.41 0 10 1.25 12.27 13.43 1.23 6.63-.85 11.43-2.86 16.09a35.9 35.9 0 0 0-3.41 11.49 2.71 2.71 0 0 1-1.78 2.29 2.65 2.65 0 0 1-.91.16zm-.37-36.41a48.62 48.62 0 0 1-2.38 13 18.69 18.69 0 0 0 1.34 14 62.26 62.26 0 0 1 2.55-6.63c1.92-4.44 3.44-8 2.51-13a11.67 11.67 0 0 0-4.02-7.41z" id="path404"/><path class="cls-4" d="M85.393 98.683s-8.21-10.16-3.14-22.29c5.07-12.13 3.49-16.56 3.49-16.56s8 1.74 8.84 12.39c.84 10.65-6.93 15.05-9.19 26.46z" id="path406" style="fill:#d8d8d8"/><path class="cls-6" d="M94.543 72.223a15.15 15.15 0 0 0-3.13-8.54l-4.29-2.36-.43-1.15a8.45 8.45 0 0 0-.94-.31s1.12 3.2-1.62 11.55a46.74 46.74 0 0 1 9 9.69 18.82 18.82 0 0 0 1.41-8.88z" id="path408" style="fill:#f3b857"/><path d="M85.393 101.383a2.72 2.72 0 0 1-2.11-1c-.37-.47-9.15-11.57-3.52-25 4.14-9.91 3.51-14.12 3.41-14.64a2.54 2.54 0 0 1 .42-2.67 2.72 2.72 0 0 1 2.72-.84c.4.09 10 2.31 11 14.82.55 6.81-2.06 11.45-4.57 15.93a36.57 36.57 0 0 0-4.66 11.27 2.72 2.72 0 0 1-2 2.09 2.34 2.34 0 0 1-.69.04zm3.15-36.89a49.38 49.38 0 0 1-3.77 12.94 19 19 0 0 0-.06 14.37 59.51 59.51 0 0 1 3.29-6.5c2.41-4.3 4.32-7.69 3.9-12.86-.36-4.05-1.86-6.5-3.36-7.95z" id="path410"/><path class="cls-6" d="m67.443 41.853-12.82-13.73s-6.32-3.64-3.22 3.38 13.66 28 13.66 28" id="path412" style="fill:#f3b857"/><path d="M65.063 62.203a2.68 2.68 0 0 1-2.41-1.49c-.44-.86-10.62-21.18-13.72-28.17-.6-1.37-2.21-5 .17-7.14 2.21-2 5.54-.43 6.87.33a2.78 2.78 0 0 1 .63.5l12.82 13.78a2.7 2.7 0 1 1-3.95 3.68l-10.81-11.57c3.75 8.1 12.72 26 12.82 26.21a2.69 2.69 0 0 1-1.21 3.62 2.63 2.63 0 0 1-1.21.25z" id="path414"/><path class="cls-4" d="M72.123 74.323s-8.08-7.3-5.44-18.16c2.64-10.86.76-14.31.76-14.31s6.83.3 8.9 9.07c2.07 8.77-3.8 13.55-4.22 23.4z" id="path416" style="fill:#d8d8d8"/><path class="cls-6" d="M74.203 64.843c1.64-4.55 3.42-8.46 2.14-13.92-2.07-8.77-8.9-9.07-8.9-9.07s1.88 3.46-.76 14.31a81.92 81.92 0 0 0 7.52 8.68z" id="path418" style="fill:#f3b857"/><path d="M72.123 77.023a2.73 2.73 0 0 1-1.81-.69c-.38-.35-9.24-8.53-6.25-20.81 2.07-8.53 1.14-11.94 1-12.44a2.52 2.52 0 0 1 0-2.66 2.7 2.7 0 0 1 2.48-1.3c.37 0 8.9.51 11.41 11.15 1.35 5.73-.23 10-1.76 14.18a31.73 31.73 0 0 0-2.39 9.95 2.69 2.69 0 0 1-1.65 2.38 2.77 2.77 0 0 1-1.03.24zm-1.33-30.84a45 45 0 0 1-1.48 10.62 15.61 15.61 0 0 0 1.2 10.69c.49-1.77 1.08-3.37 1.63-4.88 1.42-3.87 2.54-6.92 1.57-11.07a10.09 10.09 0 0 0-2.92-5.36z" id="path420"/><path d="M128.123 207.813h47.19s17.1 2.43 13.87-21.26c-3.23-23.69 7.35 2.26 7.35 2.26l2.87 36.77-23.28.75" id="path422"/><path class="cls-21" id="polygon424" style="fill:#6c72ef;stroke:#6c72ef;stroke-width:3.8599999px;stroke-linecap:round;stroke-linejoin:round" transform="translate(-127.457 -780.877)" d="m345.37 997.23-3.01-8.84-1.02 9.73 2.37 8.1z"/><path class="cls-21" id="polygon426" style="fill:#6c72ef;stroke:#6c72ef;stroke-width:3.8599999px;stroke-linecap:round;stroke-linejoin:round" transform="translate(-127.457 -780.877)" d="m343.28 995.3-8.84 3.01 9.73 1.02 8.1-2.38z"/><circle class="cls-5" cx="215.283" cy="188.183" r="5.96" id="circle428" style="fill:#f16567"/><circle class="cls-7" cx="187.683" cy="218.453" r="2.99" id="circle430" style="fill:#45dfef"/><circle cx="113.323" cy="108.913" r="6.14" id="circle432" style="fill:#f3b857;stroke:#000;stroke-width:6.34000015px;stroke-linecap:round;stroke-linejoin:round"/><path id="polyline434" style="fill:none;stroke:#000;stroke-width:6.34000015px;stroke-linecap:round;stroke-linejoin:round" transform="translate(-127.457 -780.877)" d="m247.24 875.28-20.9 19.67-.75-7.99-4.51-4.7"/></svg>