<svg xmlns="http://www.w3.org/2000/svg" id="Layer_1" width="336.275" height="247.87" data-name="Layer 1" viewBox="0 0 336.275 247.87"><defs id="defs4"><style id="style2">.cls-1{fill:#009aae}.cls-17{fill:#2e0003}.cls-18{fill:#ff5760}.cls-20{fill:#f7f6f4}.cls-21{fill:#ff982a}</style></defs><g id="g68" transform="translate(-562.965 -219.9)"><g id="g12"><path id="path8" d="M766.78 456.87c-.35-.47-29.37-38.36-82.45-38.36-7.35 0-14.93.73-22.53 2.16l-4.72.89-4.32-55.6v-.23c.21-7.35-2.74-14.48-8.09-19.55a25.9 25.9 0 0 0-17.9-7.13c-.69 0-1.39.03-2.08.08l-1.63.13c-11.35.92-21.55 7.82-26.61 18.02l-5.16 10.4-4.15-3.17c-18.27-13.92-20.92-26.33-19.56-45.76 1.37-19.53 12.3-37.33 28.54-46.44 22.68-12.74 42.18-14.64 51.78-14.64.78 0 1.49.01 2.12.03 2.75-3.73 8.29-10 17.78-16.15 12.21-7.91 34.05-17.34 68.73-17.34 1.26 0 2.54.01 3.83.04 33.72.66 62.67 8.45 81.51 21.93 1.51 1.08 37.06 26.7 45.07 45.92l3.38 8.11-28.93-7.82c11.34 10.56 26.53 27.68 38.83 52.06l3.16 6.25h-23.79c9.39 13.46 28.29 45.5 33.47 91.26l.97 8.58-7.44-4.38c-.24-.14-25.08-14.5-54.62-14.5-23.05 0-42.75 8.6-58.55 25.55l-3.53 3.78-3.08-4.15z" class="cls-17"/><path id="path10" d="M736.51 228.53c1.23 0 2.48.01 3.75.04 35.7.7 62.54 9.29 79.08 21.13 0 0 35.96 25.76 43.59 44.07l-40.27-10.88s31.73 20.03 53.68 63.52h-21.81l-3.58.06s31.03 36.3 37.79 96c0 0-25.66-15.09-56.81-15.09-20.09 0-42.46 6.28-61.71 26.92 0 0-29.8-40.1-85.91-40.1-7.33 0-15.11.68-23.33 2.23l-.8-10.29-3.13-40.29a30.307 30.307 0 0 0-30.3-31.12c-.81 0-1.62.03-2.43.1l-1.63.13a36.96 36.96 0 0 0-30.13 20.4l-2.84 5.72c-16.08-12.26-19.22-22.81-17.87-42.03 1.27-18.1 11.36-34.57 26.35-42.98 21.98-12.34 40.79-14.09 49.67-14.09 1.92 0 3.37.08 4.3.16 1.66-2.6 6.93-9.83 17.95-16.97 11.86-7.68 32.88-16.65 66.39-16.65m0-8.61c-35.73 0-58.37 9.81-71.07 18.03-8.65 5.6-14.24 11.37-17.52 15.43h-.04c-10.02 0-30.35 1.97-53.89 15.19-17.49 9.82-29.26 28.94-30.73 49.9-.83 11.88.07 20.09 3 27.42 3.24 8.11 8.87 14.91 18.25 22.06l8.31 6.33 4.64-9.35 2.84-5.72c4.4-8.85 13.25-14.85 23.1-15.64l1.63-.13c.57-.05 1.16-.07 1.74-.07 5.58 0 10.88 2.11 14.93 5.95a21.7 21.7 0 0 1 6.75 16.31v.46l.02.45 3.13 40.29.8 10.29.75 9.58 9.45-1.78c7.34-1.38 14.65-2.08 21.73-2.08 21.25 0 40.94 6.1 58.54 18.14 13.32 9.11 20.39 18.4 20.46 18.5l6.17 8.3 7.04-7.59c14.96-16.04 33.6-24.18 55.4-24.18 28.28 0 52.21 13.77 52.45 13.91l14.85 8.67-1.92-17.08c-4.55-40.18-19.53-70.09-29.77-86.47h22.81l-6.31-12.51a192.4 192.4 0 0 0-28.55-41.83l5.19 1.4 16.97 4.59-6.76-16.23c-8.33-20-42.65-44.98-46.53-47.77-19.55-13.99-49.36-22.06-83.94-22.74-1.31-.03-2.62-.04-3.92-.04z" class="cls-21"/></g><path id="path14" d="M585.93 340.02s1.84-28.37 39.06-33.52l89.71-1.15s-13-9.06-35.07-11.76c0 0 4.64-14.59-5.9-20.75-10.53-6.16-24.62 3.45-24.62 3.45s-73.05-7.84-63.18 63.73" class="cls-21"/><path id="path16" d="M681.59 268.93s12.88 4.56 40.75-7.84 53.79-6.69 65.09-5.04c0 0-21.74-22.6-66.45-15.5s-53.99 23.75-53.99 23.75l14.59 4.64z" class="cls-1"/><path id="path18" d="M671.94 268.49s3.38-11.8 34.42-18.94c0 0-19.45 9.91-24.43 21.93" class="cls-17"/><path id="path20" d="m682.12 315.53-57.87 1.86s63.06 9.06 90.55 10.31l-7.34-4.83c-7.75-5.1-16.48-7.63-25.34-7.34" class="cls-21"/><path id="path22" d="M740.86 286.44s19.58-2.48 32.29 6.06c0 0-4.65-10.45-14.18-13.72 0 0 16.56-1.42 28.89 15.58 0 0-3.91-26.98-35.71-28.41 0 0 1.93 14.77-11.29 20.49" class="cls-1"/><path id="path24" d="M720.99 240.54c-44.7 7.1-53.99 23.75-53.99 23.75l6.99 2.22c19.85-14.37 57.38-30.54 113.44-10.47 0 0-21.74-22.6-66.45-15.5z" class="cls-20"/><path id="path26" d="M657.13 282.27s3.69-5.03 11.15-11.31c-9.37-1.36-19.17 5.32-19.17 5.32s-73.05-7.84-63.18 63.73c0 0-5.41-62.33 71.2-57.75z" class="cls-20"/><path id="path28" d="M657.13 282.27s14.12-11.06 16.26 11.38c0 0-5.9-9.21-12.69-6.1s-3.57-5.28-3.57-5.28" class="cls-17"/><path id="path30" d="m714.66 274.44 24.21-6.88s-3.49 25.62-24.21 6.88" class="cls-21"/><path id="path32" d="M763.71 303.73c-18.15-13.92-39.51-7.14-59.69-26.51 0 0-6.95 2.67-11.41.68 0 0 6.04 11.29 17.26 14.77s44.38 12.71 39.04 42.85c-7.84-13.2-20.8-17.83-31.26-19.25 11.54 7.34 24.29 21.68 10.19 46 0 0 34.01-5.8 33.83-45.32 0 0 8.18 14.86 10.34 30.24 0 0 9.86-29.54-8.29-43.46z" class="cls-1"/><path id="path34" d="M727.83 362.27s30.28-10.16 33.83-45.32c0 0 9.27 47.71-33.83 45.32" class="cls-18"/><path id="path36" d="M667.75 337.3s25.73 12.47 21.6 41c0 0 27.54-42.5-21.6-41" class="cls-1"/><g id="g42"><path id="polygon38" d="m814.96 295.01.04.03.02-.04z" class="cls-18"/><path id="path40" d="m840.04 355.8-19.82-23.19 30.86-.53c-17.45-24.91-35.89-36.93-36.12-37.07l13.2 26.6-40.3 3.42s13.55 8.34 21.52 30.66c5.52 15.46-8.48 30.86-24.44 27.02l-22.44-5.39c-37.88-8.36-64.97 18.74-64.97 18.74 83.28-29.88 115.71 18.59 115.71 18.59 6.05-1.11 12.3-1.67 18.7-1.67 14.19 0 27.31 2.75 37.94 6.04-10.03-39.36-29.63-62.98-29.84-63.23z" class="cls-18"/></g><path id="path66" d="M856.96 417.79s-14.41-50.79-33.32-58.32c0 0 17.76 28.76 8.67 56.88" class="cls-17"/></g></svg>