<svg xmlns="http://www.w3.org/2000/svg" xmlns:xlink="http://www.w3.org/1999/xlink" id="Layer_1" width="542.21" height="542.21" version="1.1"><defs id="defs1020"><linearGradient id="linear-gradient" x1="300" x2="300" y1="300.23" y2="89.81" gradientUnits="userSpaceOnUse"><stop id="stop983" offset="0" stop-color="#f2e9d2"/><stop id="stop985" offset=".08" stop-color="#cacfc3"/><stop id="stop987" offset=".22" stop-color="#8faaad"/><stop id="stop989" offset=".34" stop-color="#608c9c"/><stop id="stop991" offset=".46" stop-color="#3e7790"/><stop id="stop993" offset=".55" stop-color="#2a6a88"/><stop id="stop995" offset=".61" stop-color="#236686"/><stop id="stop997" offset="1" stop-color="#226586"/></linearGradient><linearGradient id="linear-gradient-2" x1="315.85" x2="315.85" y1="303.56" y2="177.76" gradientUnits="userSpaceOnUse"><stop id="stop1000" offset="0" stop-color="#f2e9d2"/><stop id="stop1002" offset=".06" stop-color="#dfddcb"/><stop id="stop1004" offset=".24" stop-color="#a6b8b6"/><stop id="stop1006" offset=".42" stop-color="#769aa5"/><stop id="stop1008" offset=".59" stop-color="#528397"/><stop id="stop1010" offset=".75" stop-color="#37728d"/><stop id="stop1012" offset=".89" stop-color="#276888"/><stop id="stop1014" offset="1" stop-color="#226586"/></linearGradient><linearGradient xlink:href="#linear-gradient-2" id="linear-gradient-3" x1="214.64" x2="214.64" y2="213.74"/><linearGradient xlink:href="#linear-gradient-2" id="linear-gradient-4" x1="406.08" x2="406.08" y2="237.75"/><linearGradient xlink:href="#linear-gradient-2" id="linear-gradient-5" x1="466.91" x2="466.91" y2="202.8"/><linearGradient xlink:href="#linear-gradient-2" id="linearGradient7404" x1="315.85" x2="315.85" y1="303.56" y2="177.76" gradientUnits="userSpaceOnUse"/><clipPath id="clippath"><path id="path980" d="M300 504.2c116.08 0 210.19-94.1 210.19-210.19v-.24H89.81v.24c0 116.08 94.1 210.19 210.19 210.19z" style="fill:none"/></clipPath><style id="style978">.cls-2,.cls-3{fill:none;stroke-linecap:round;stroke-linejoin:round}.cls-3{stroke:#f2e9d2}.cls-2{stroke:#216586;stroke-width:19.71px}.cls-3{stroke-width:17.02px}</style></defs><g id="g1076" transform="translate(-28.895 -28.895)"><circle id="circle1024" cx="300" cy="300" r="263.95" style="fill:#043d5d;stroke:#f2e9d2;stroke-width:14.31000042px;stroke-miterlimit:10"/><circle id="circle1026" cx="300" cy="300" r="210.19" style="fill:#04a99b;stroke:#f2e9d2;stroke-width:12.53999996px;stroke-linecap:round;stroke-linejoin:round"/><g id="g1044" clip-path="url(#clippath)" style="clip-path:url(#clippath)"><g id="g1042"><path id="path1028" d="M73.04 396.68c29.22 17.7 63.59 29.18 97.48 32.83 29.89 3.22 60.4-.33 87.96-12.7 40.91-18.36 75.5-58.63 120.68-68.77 48.78-10.94 97.72 14.62 131.02 48.64" class="cls-2" style="fill:none;stroke:#216586;stroke-width:19.70999908px;stroke-linecap:round;stroke-linejoin:round"/><path id="path1030" d="M73.04 349.54c29.22 17.7 63.59 29.18 97.48 32.83 29.89 3.22 60.4-.33 87.96-12.7 40.91-18.36 75.5-58.63 120.68-68.77 48.78-10.94 97.72 14.62 131.02 48.64" class="cls-2" style="fill:none;stroke:#216586;stroke-width:19.70999908px;stroke-linecap:round;stroke-linejoin:round"/><path id="path1032" d="M73.04 302.4c29.22 17.7 63.59 29.18 97.48 32.83 29.89 3.22 60.4-.33 87.96-12.7 40.91-18.36 75.5-58.63 120.68-68.77 48.78-10.94 97.72 14.62 131.02 48.64" class="cls-2" style="fill:none;stroke:#216586;stroke-width:19.70999908px;stroke-linecap:round;stroke-linejoin:round"/><path id="path1034" d="M73.04 443.81c29.22 17.7 63.59 29.18 97.48 32.83 29.89 3.22 60.4-.33 87.96-12.7 40.91-18.36 75.5-58.63 120.68-68.77 48.78-10.94 97.72 14.62 131.02 48.64" class="cls-2" style="fill:none;stroke:#216586;stroke-width:19.70999908px;stroke-linecap:round;stroke-linejoin:round"/><path id="path1036" d="M73.04 490.95c29.22 17.7 63.59 29.18 97.48 32.83 29.89 3.22 60.4-.33 87.96-12.7 40.91-18.36 75.5-58.63 120.68-68.77 48.78-10.94 97.72 14.62 131.02 48.64" class="cls-2" style="fill:none;stroke:#216586;stroke-width:19.70999908px;stroke-linecap:round;stroke-linejoin:round"/><path id="path1038" d="M73.04 538.09c29.22 17.7 63.59 29.18 97.48 32.83 29.89 3.22 60.4-.33 87.96-12.7 40.91-18.36 75.5-58.63 120.68-68.77 48.78-10.94 97.72 14.62 131.02 48.64" class="cls-2" style="fill:none;stroke:#216586;stroke-width:19.70999908px;stroke-linecap:round;stroke-linejoin:round"/><path id="path1040" d="M73.04 585.22c29.22 17.7 63.59 29.18 97.48 32.83 29.89 3.22 60.4-.33 87.96-12.7 40.91-18.36 75.5-58.63 120.68-68.77 48.78-10.94 97.72 14.62 131.02 48.64" class="cls-2" style="fill:none;stroke:#216586;stroke-width:19.70999908px;stroke-linecap:round;stroke-linejoin:round"/></g></g><path id="path1046" d="M300 89.81c-116.08 0-210.19 94.1-210.19 210.19v.24h420.37V300c0-116.08-94.1-210.19-210.19-210.19z" style="fill:url(#linear-gradient);stroke:#f2e9d2;stroke-width:6.1500001px;stroke-linecap:round;stroke-linejoin:round"/><path id="path1048" d="M440.66 148.8c-39.57 38.22-64.18 91.84-64.18 151.2" class="cls-3" style="fill:none;stroke:#f2e9d2;stroke-width:17.02000046px;stroke-linecap:round;stroke-linejoin:round"/><path id="path1050" d="M159.34 148.8c39.57 38.22 64.18 91.84 64.18 151.2" class="cls-3" style="fill:none;stroke:#f2e9d2;stroke-width:17.02000046px;stroke-linecap:round;stroke-linejoin:round"/><path id="line1052" d="M300 300.23V89.81" class="cls-3" style="fill:none;stroke:#f2e9d2;stroke-width:17.02000046px;stroke-linecap:round;stroke-linejoin:round"/><g id="g1064"><path id="path1054" d="M457.9 253.22h-10.99v24.05h-30.96v-45.09h-13.04V210.8h-30.13v49.48h-28.33v-38.26h-20.56v-49.57l-8.93-13.05h-28.84l-9.61 16.48v67.29h-51.12v-35.39h-30.97v67.3h-34.73v-41.74h-11.44V194.2h-29.88c-18.14 31.08-28.55 67.23-28.55 105.81v.24h420.37v-.24c0-38.2-10.2-74.02-28.01-104.9h-24.27v58.12z" style="fill:#043d5d;stroke:#043d5d;stroke-width:8.22000027px;stroke-linecap:round;stroke-linejoin:round"/><path id="line1056" d="M315.85 181.29v118.74" style="fill:#f2e9d2;stroke:url(#linearGradient7404);stroke-width:7.05000019px;stroke-linecap:round;stroke-linejoin:round"/><path id="line1058" d="M214.64 217.27v82.76" style="fill:#f2e9d2;stroke:url(#linear-gradient-3);stroke-width:7.05000019px;stroke-linecap:round;stroke-linejoin:round"/><path id="line1060" d="M406.08 241.28v58.75" style="fill:#f2e9d2;stroke:url(#linear-gradient-4);stroke-width:7.05000019px;stroke-linecap:round;stroke-linejoin:round"/><path id="line1062" d="M466.91 206.33v93.7" style="fill:#f2e9d2;stroke:url(#linear-gradient-5);stroke-width:7.05000019px;stroke-linecap:round;stroke-linejoin:round"/></g><path id="line1066" d="M89.81 300h420.38" class="cls-3" style="fill:none;stroke:#f2e9d2;stroke-width:17.02000046px;stroke-linecap:round;stroke-linejoin:round"/><path id="path1068" d="M440.66 451.2c-39.57-38.22-64.18-91.84-64.18-151.2" class="cls-3" style="fill:none;stroke:#f2e9d2;stroke-width:17.02000046px;stroke-linecap:round;stroke-linejoin:round"/><path id="path1070" d="M159.34 451.2c39.57-38.22 64.18-91.84 64.18-151.2" class="cls-3" style="fill:none;stroke:#f2e9d2;stroke-width:17.02000046px;stroke-linecap:round;stroke-linejoin:round"/><circle id="circle1072" cx="300" cy="300" r="210.19" class="cls-3" style="fill:none;stroke:#f2e9d2;stroke-width:17.02000046px;stroke-linecap:round;stroke-linejoin:round"/><path id="line1074" d="M300 299.76v210.43" class="cls-3" style="fill:none;stroke:#f2e9d2;stroke-width:17.02000046px;stroke-linecap:round;stroke-linejoin:round"/></g></svg>