<svg xmlns="http://www.w3.org/2000/svg" id="Layer_1" data-name="Layer 1" version="1.1" width="303.23" height="318.296"><defs id="defs7"><clipPath id="clip-path"><path id="rect4" style="fill:none" d="M463.23 489.85h72.87v40.86h-72.87z"/></clipPath><style id="style2">.cls-6{fill:#0e442e}.cls-10,.cls-6,.cls-8{stroke:#221f1f;stroke-linecap:round;stroke-linejoin:round;stroke-width:6.35px}.cls-8{fill:#d75f27}.cls-9{fill:#d59829}.cls-10{fill:#36715b}.cls-14{fill:#64a882}.cls-16{fill:#221f1f}</style></defs><path class="cls-6" d="M207.505 284.382a251.86 251.86 0 0 1-75.28-33.41c21-54.07 37.4-109.51 46.48-166.87a328.65 328.65 0 0 1 121.35 53.86c-36.39 45.21-66.5 94.58-92.55 146.42z" id="path211" style="fill:#0e442e;stroke:#221f1f;stroke-width:6.3499999px;stroke-linecap:round;stroke-linejoin:round"/><path class="cls-10" d="M147.505 240.232c16.85-45.14 31-91.12 40.45-138.4a323.55 323.55 0 0 1 90.63 40.21c-28.7 38.75-53.32 80.07-75.49 122.85a268.38 268.38 0 0 1-55.59-24.66z" id="path213" style="fill:#36715b;stroke:#221f1f;stroke-width:6.3499999px;stroke-linecap:round;stroke-linejoin:round"/><path class="cls-6" d="M95.725 284.382a252 252 0 0 0 75.28-33.41c-21-54.07-37.41-109.51-46.48-166.87a328.65 328.65 0 0 0-121.35 53.86c36.43 45.21 66.54 94.58 92.55 146.42z" id="path215" style="fill:#0e442e;stroke:#221f1f;stroke-width:6.3499999px;stroke-linecap:round;stroke-linejoin:round"/><path class="cls-10" d="M155.805 240.232c-16.85-45.14-31-91.12-40.45-138.4a323.55 323.55 0 0 0-90.67 40.21c28.7 38.75 53.32 80.07 75.49 122.85a268.38 268.38 0 0 0 55.63-24.66z" id="path217" style="fill:#36715b;stroke:#221f1f;stroke-width:6.3499999px;stroke-linecap:round;stroke-linejoin:round"/><path class="cls-6" d="M205.755 310.672a329.93 329.93 0 0 1-108 0c-3.61-76-13.42-159.56-33-233.12a431 431 0 0 1 174.07 0c-19.65 73.56-29.46 157.16-33.07 233.12z" id="path219" style="fill:#0e442e;stroke:#221f1f;stroke-width:6.3499999px;stroke-linecap:round;stroke-linejoin:round"/><path class="cls-10" d="M108.555 299.152c-4.13-68.29-12.28-144.52-27.21-211.33a459.34 459.34 0 0 1 140.84 0c-14.92 66.81-23.08 143-27.21 211.33a380.72 380.72 0 0 1-86.42 0z" id="path221" style="fill:#36715b;stroke:#221f1f;stroke-width:6.3499999px;stroke-linecap:round;stroke-linejoin:round"/><path d="M188.315 173.942c-1 19-8.95 69.59-37.1 69.54-28.15-.05-36.18-50.5-37.18-69.52-1.19-22.35 4.49-70.52 37.06-70.55 32.57-.03 38.41 48.16 37.22 70.53z" id="path223" style="fill:#64a882;stroke:#221f1f;stroke-width:6.3499999px;stroke-linecap:round;stroke-linejoin:round"/><path class="cls-8" d="M117.755 84.532c-10.49-12.49 19.29-30.49 16.37-44.2 1.85 8.62 5.82 19.48 4.76 28.9-1 8.57-10.54 26.79-20.74 15.75z" id="path225" style="fill:#d75f27;stroke:#221f1f;stroke-width:6.3499999px;stroke-linecap:round;stroke-linejoin:round"/><path class="cls-14" d="M78.005 195.092c-9.25-17.18-26.44-39.92-34.24-48.08l-3.26-3.38 26.25-10.59 2.38 5.89-17.63 7.11c7.34 8.53 15.26 20.65 23.59 36.12z" id="path245" style="fill:#64a882"/><path class="cls-14" d="M225.585 195.092c9.25-17.18 26.44-39.92 34.24-48.08l3.24-3.38-26.22-10.59-2.34 5.85 17.62 7.15c-7.34 8.53-15.26 20.65-23.59 36.12z" id="path247" style="fill:#64a882"/><path class="cls-14" d="M197.735 119.272c-4.09 0-7.42-4.08-7.42-9.1 0-2 5-4.82 7.1-6 2.91-1.66 5.21-3 4.67-5.71-.23-1.19-1.1-2.68-3.93-3.06-29.82-4-83.66-1-85.94-.9l-7.12.4 5.07 5a10 10 0 0 1 2.77 7.09c0 5-3.33 9.1-7.41 9.1h-3.28l1 34.62 5.51-28.7c6-1.65 10.51-7.76 10.51-15a17.17 17.17 0 0 0-1.24-6.44c13.36-.6 48.33-1.84 72.44.36-3.32 2.22-6.52 5.19-6.52 9.26 0 7.32 4.56 13.47 10.65 15.06l4.91 25.79 2-.05-.7-31.7z" id="path249" style="fill:#64a882"/><path class="cls-8" d="M114.785 93.932c21.56-25.76-39.63-62.69-33.64-90.8-3.78 17.7-11.94 40-9.77 59.37 2 17.6 21.66 55 42.6 32.35.28-.31.53-.61.81-.92z" id="path251" style="fill:#d75f27;stroke:#221f1f;stroke-width:6.3499999px;stroke-linecap:round;stroke-linejoin:round"/><path class="cls-9" d="M83.725 40.482s-2.48 15.8 11 23.94l.67-7.33s11.7 12.83 12.08 20.76c.38 7.93-2.65 17.74-9.06 13.58-6.41-4.16-11.7-12.07-14-20.75-2.3-8.68-2.91-14.73-.69-30.2z" id="path253" style="fill:#d59829"/><path class="cls-9" d="M122.895 78.392s7.31-3.81 7.31-12.39c0 .04 1.3 17.16-7.31 12.39z" id="path255" style="fill:#d59829"/><path d="M159.835 223.182a21.51 21.51 0 0 1-2.27-.11h-31.56l-6-15.8h38.8l.42.09c.45 0 3.12.19 4.74-1.24 1.23-1.09 2-3.3 2.14-6.31-.34-6.5-3.5-7.81-18.14-8.77-6.92-.45-14.06-.91-20.13-3.85-5.59-2.7-12.26-8.6-12.26-21.32v-2.47c0-10.77 4.22-16.63 7.77-19.65 6.32-5.39 14-5.15 16.6-4.89h22.23l7.91 15.8h-31.38l-.42-.08c-.45 0-3.12-.2-4.74 1.23-1.4 1.24-2.17 3.94-2.17 7.59v2.47c0 6.69 1.62 8.36 17.62 9.41 7 .46 14.32.93 20.52 4 5.27 2.59 11.47 8 12.32 19.27h.1v2.66h-.09c-.63 9.1-4.44 14.24-7.68 17a22.05 22.05 0 0 1-14.33 4.97z" id="path257" style="fill:#64a882;stroke:#221f1f;stroke-width:6.3499999px;stroke-miterlimit:10"/><path class="cls-16" id="polygon259" style="fill:#221f1f" transform="translate(-348.495 -238.958)" d="m499.5 385.98-.51-16.6-7.41-.13.68 16.73z"/><path class="cls-16" id="polygon261" style="fill:#221f1f" transform="translate(-348.495 -238.958)" d="m500.6 422.22-.88-28.8-7.16.07 1.15 28.42z"/><path class="cls-16" id="polygon263" style="fill:#221f1f" transform="translate(-348.495 -238.958)" d="m501.38 447.83-.53-17.5-6.8-.17.71 17.67z"/><path class="cls-16" id="polygon265" style="fill:#221f1f" transform="translate(-348.495 -238.958)" d="m495.01 453.97.8 19.78 6.36-.16-.6-19.62z"/><path class="cls-14" id="rect267" style="fill:#64a882" d="M159.945 168.862h13.92v31.17h-13.92z"/><path class="cls-16" d="M166.265 202.042c-7.05 0-9.73-6.25-10.17-9.61v-8.27l6.35.84v6.77c.17.93.94 3.92 3.88 3.92h3v-30.8h6.35v37.15h-9.43z" id="path269" style="fill:#221f1f"/><path class="cls-16" id="polyline271" style="fill:#221f1f" transform="translate(-348.495 -238.958)" d="M524.19 403.85h-11.37l5.69 8.44"/><g clip-path="url(#clip-path)" id="g335" transform="translate(-348.495 -238.958)" style="clip-path:url(#clip-path)"><path class="cls-14" d="M521.88 552.56a7.57 7.57 0 0 0-15.14 0 7.42 7.42 0 0 0 1.07 3.85l-11.33 8.88a7.6 7.6 0 0 1-3.88 1.34h-21.71a1.25 1.25 0 0 1-1.25-1.25v-21.19a4 4 0 0 1 1.59-2.89l8.08-5.14a7.56 7.56 0 1 0-2.31-5.46 7.58 7.58 0 0 0 .7 3.17l-7.95 5.06a6.71 6.71 0 0 0-2.89 5.26v21.19a4.06 4.06 0 0 0 4.06 4.06h21.68a10.3 10.3 0 0 0 5.61-1.93l11.46-9a7.56 7.56 0 0 0 12.21-6zM484.54 526a4.76 4.76 0 1 1-4.76 4.75 4.75 4.75 0 0 1 4.76-4.75zm25 26.61a4.76 4.76 0 1 1 4.76 4.76 4.76 4.76 0 0 1-4.75-4.81z" id="path305" style="fill:#64a882"/><path class="cls-14" d="M498 522.11v17.19a4.39 4.39 0 0 1-1.57 3l-6.68 4.77a7.56 7.56 0 1 0 2.33 5.45 7.42 7.42 0 0 0-.7-3.16l6.68-4.77a7.12 7.12 0 0 0 2.75-5.33v-17.15a4.43 4.43 0 0 1 1.57-3.05l6.68-4.76a7.66 7.66 0 1 0-1.63-2.29l-6.68 4.76a7.14 7.14 0 0 0-2.75 5.34zm-13.48 35.21a4.76 4.76 0 1 1 4.75-4.76 4.76 4.76 0 0 1-4.73 4.76zm29.77-53.23a4.76 4.76 0 1 1-3.63 7.82 1.47 1.47 0 0 0-.17-.36 1.48 1.48 0 0 0-.28-.28 4.67 4.67 0 0 1-.68-2.43 4.76 4.76 0 0 1 4.78-4.75z" id="path307" style="fill:#64a882"/><path class="cls-14" d="M532.42 496a4.06 4.06 0 0 0-4.06-4.06h-21.71a10.31 10.31 0 0 0-5.65 1.96l-11.62 9.1a7.54 7.54 0 1 0 1.79 2.17l11.61-9.1a7.53 7.53 0 0 1 3.87-1.33h21.71a1.25 1.25 0 0 1 1.25 1.24v21.2a4 4 0 0 1-1.59 2.89l-8.32 5.29a7.53 7.53 0 1 0 1.57 2.33l8.26-5.25a6.74 6.74 0 0 0 2.89-5.26zm-47.88 17.6a4.76 4.76 0 1 1 4.75-4.76 4.76 4.76 0 0 1-4.75 4.76zm29.77 21.86a4.76 4.76 0 1 1 4.76-4.76 4.76 4.76 0 0 1-4.76 4.76z" id="path309" style="fill:#64a882"/><path class="cls-14" d="M469.64 496a1.25 1.25 0 0 1 1.25-1.24h12.52V492h-12.52a4.06 4.06 0 0 0-4.06 4.06v21.09h2.81z" id="path311" style="fill:#64a882"/><path class="cls-14" d="M532.42 565.38V543h-2.81v22.37a1.25 1.25 0 0 1-1.25 1.25h-12.81v2.81h12.81a4.06 4.06 0 0 0 4.06-4.05z" id="path313" style="fill:#64a882"/><path class="cls-14" id="rect315" style="fill:#64a882" d="M466.83 520.1h2.81v3.17h-2.81z"/><path class="cls-14" id="rect317" style="fill:#64a882" d="M466.83 525.36h2.81v3.17h-2.81z"/><path class="cls-14" id="rect319" style="fill:#64a882" d="M466.83 530.62h2.81v3.17h-2.81z"/><path class="cls-14" id="rect321" style="fill:#64a882" d="M486.96 491.96h3.17v2.81h-3.17z"/><path class="cls-14" id="rect323" style="fill:#64a882" d="M492.22 491.96h3.17v2.81h-3.17z"/><path class="cls-14" id="rect325" style="fill:#64a882" d="M503.95 566.63h3.17v2.81h-3.17z"/><path class="cls-14" id="rect327" style="fill:#64a882" d="M509.21 566.63h3.17v2.81h-3.17z"/><path class="cls-14" id="rect329" style="fill:#64a882" d="M529.61 526.3h2.81v3.17h-2.81z"/><path class="cls-14" id="rect331" style="fill:#64a882" d="M529.61 531.55h2.81v3.17h-2.81z"/><path class="cls-14" id="rect333" style="fill:#64a882" d="M529.61 536.81h2.81v3.17h-2.81z"/></g></svg>