<svg xmlns="http://www.w3.org/2000/svg" id="Layer_1" data-name="Layer 1" version="1.1" width="339.795" height="236.669"><defs id="defs4"><style id="style2">.cls-14{fill:#c0c5ce}.cls-14,.cls-15,.cls-16{stroke:#5685ef;stroke-linecap:round;stroke-linejoin:round}.cls-15,.cls-17{fill:#3a3a3a}.cls-16{fill:none}.cls-7{fill:#133cd1}.cls-17{stroke:#f71ef7;stroke-miterlimit:10}.cls-14{stroke-width:14.6px}.cls-15,.cls-16,.cls-17{stroke-width:8.81px}</style></defs><path class="cls-14" d="M128.108 229.29h.06c1.82-46.83 7.74-95.28 21.83-140.11 9.1-28.92 26.12-71.81 62-73.85 0 0 79.18-23 94.07 213.93h26.53c-.25 0-8.64-53.67-9.39-57.34-5.81-28.5-13.18-56.88-23.82-84-8-20.46-17.95-41.09-32.72-57.61-28.62-32-74.95-28.74-105-2-29.36 26.21-52.42 106-57.92 148-2.3 17.57-5.37 35.35-6.8 53z" id="path258" style="fill:#c0c5ce;stroke:#5685ef;stroke-width:14.60000038px;stroke-linecap:round;stroke-linejoin:round"/><path class="cls-15" d="M28.698 63.45h218.12v30.36H59.058a30.36 30.36 0 0 1-30.36-30.36z" id="path260" style="fill:#3a3a3a;stroke:#5685ef;stroke-width:8.81000042px;stroke-linecap:round;stroke-linejoin:round"/><path class="cls-15" d="M56.738 93.81h218.13v30.36H87.058a30.36 30.36 0 0 1-30.36-30.36v0z" id="path262" style="fill:#3a3a3a;stroke:#5685ef;stroke-width:8.81000042px;stroke-linecap:round;stroke-linejoin:round"/><path class="cls-15" d="M84.788 124.16h198.09v30.36h-167.74a30.36 30.36 0 0 1-30.36-30.36v0z" id="path264" style="fill:#3a3a3a;stroke:#5685ef;stroke-width:8.81000042px;stroke-linecap:round;stroke-linejoin:round"/><path class="cls-15" d="M112.828 153.95h139.58v30.36h-109.22a30.36 30.36 0 0 1-30.36-30.36z" id="path266" style="fill:#3a3a3a;stroke:#5685ef;stroke-width:8.81000042px;stroke-linecap:round;stroke-linejoin:round"/><circle class="cls-15" cx="251.058" cy="123.579" r="59.65" id="circle268" style="fill:#3a3a3a;stroke:#5685ef;stroke-width:8.81000042px;stroke-linecap:round;stroke-linejoin:round"/><path class="cls-16" id="polyline270" style="fill:none;stroke:#5685ef;stroke-width:8.81000042px;stroke-linecap:round;stroke-linejoin:round" transform="translate(-84.942 -790.26)" d="M395.65 913.84H276.34h0"/><path class="cls-16" id="line272" style="fill:none;stroke:#5685ef;stroke-width:8.81000042px;stroke-linecap:round;stroke-linejoin:round" d="M251.058 63.919v119.31"/><path class="cls-16" d="M288.258 76.95s-20.09 19.17-52.85 17.22h-37.09" id="path274" style="fill:none;stroke:#5685ef;stroke-width:8.81000042px;stroke-linecap:round;stroke-linejoin:round"/><path class="cls-16" d="M288.258 170.2s-20.09-19.17-52.85-17.21h-37.09" id="path276" style="fill:none;stroke:#5685ef;stroke-width:8.81000042px;stroke-linecap:round;stroke-linejoin:round"/><circle class="cls-7" cx="251.058" cy="123.579" r="59.65" id="circle278" style="fill:#133cd1"/><path class="cls-7" d="M226.218 68.03c-20.39 8.71-34.82 30.29-34.82 55.55 0 25.84 15.12 47.84 36.26 56.13 20.38-8.71 34.82-30.29 34.82-55.55 0-25.84-15.12-47.84-36.26-56.13z" id="path280" style="fill:#133cd1"/><path d="M241.568 68.03c-29.37 8.71-50.17 30.29-50.17 55.55 0 25.84 21.78 47.84 52.24 56.13 29.37-8.71 50.16-30.29 50.16-55.55 0-25.84-21.74-47.84-52.23-56.13z" id="path282" style="fill:#3a3a3a"/><path class="cls-16" id="polyline284" style="fill:none;stroke:#5685ef;stroke-width:8.81000042px;stroke-linecap:round;stroke-linejoin:round" transform="translate(-84.942 -790.26)" d="M395.65 913.84H276.34h0"/><path class="cls-17" id="line286" style="fill:#3a3a3a;stroke:#f71ef7;stroke-width:8.81000042px;stroke-miterlimit:10" d="M162.118 124.159h112.75"/><path class="cls-16" id="line288" style="fill:none;stroke:#5685ef;stroke-width:8.81000042px;stroke-linecap:round;stroke-linejoin:round" d="M251.058 63.919v119.31"/><path class="cls-16" d="M288.258 76.95s-20.09 19.17-52.85 17.22h-37.09" id="path290" style="fill:none;stroke:#5685ef;stroke-width:8.81000042px;stroke-linecap:round;stroke-linejoin:round"/><path class="cls-16" d="M288.258 170.2s-20.09-19.17-52.85-17.21h-37.09" id="path292" style="fill:none;stroke:#5685ef;stroke-width:8.81000042px;stroke-linecap:round;stroke-linejoin:round"/><circle class="cls-16" cx="251.058" cy="123.579" r="59.65" id="circle294" style="fill:none;stroke:#5685ef;stroke-width:8.81000042px;stroke-linecap:round;stroke-linejoin:round"/><path class="cls-17" id="line296" style="fill:#3a3a3a;stroke:#f71ef7;stroke-width:8.81000042px;stroke-miterlimit:10" d="M223.618 94.169H87.898"/><path class="cls-17" id="line298" style="fill:#3a3a3a;stroke:#f71ef7;stroke-width:8.81000042px;stroke-miterlimit:10" d="M133.558 153.949h25.52"/><path class="cls-15" id="line300" style="fill:#3a3a3a;stroke:#5685ef;stroke-width:8.81000042px;stroke-linecap:round;stroke-linejoin:round" d="M28.698 63.449H4.468"/><path class="cls-14" d="M218.488 7.37c-20.13-.88-40.79 6.71-56.81 21-29.36 26.21-52.42 106-57.92 148-2.3 17.57-5.37 35.35-6.8 53l31.15-.06h.06c1.82-46.83 7.74-95.28 21.83-140.11 9.1-28.92 26.12-71.81 62-73.85a23.26 23.26 0 0 1 6.52-.6z" id="path302" style="fill:#c0c5ce;stroke:#5685ef;stroke-width:14.60000038px;stroke-linecap:round;stroke-linejoin:round"/><path d="M162.628 216.36s9.93 10.91 24 0a27.34 27.34 0 0 1 10.64-5.47c9.74-2.18 14.38 5.58 21.41 10.34 7.03 4.76 15.25 3 21.64-1.94 0 0 15.1-13.33 26.33 0" id="path304" style="fill:none;stroke:#5685ef;stroke-width:10.07999992px;stroke-linecap:round;stroke-linejoin:round"/></svg>