<svg xmlns="http://www.w3.org/2000/svg" id="Layer_1" width="339.795" height="236.669" data-name="Layer 1" version="1.1"><defs id="defs4"><style id="style2">.cls-14{fill:#c0c5ce}.cls-14,.cls-15,.cls-16{stroke:#5685ef;stroke-linecap:round;stroke-linejoin:round}.cls-15,.cls-17{fill:#3a3a3a}.cls-16{fill:none}.cls-7{fill:#133cd1}.cls-17{stroke:#f71ef7;stroke-miterlimit:10}.cls-14{stroke-width:14.6px}.cls-15,.cls-16,.cls-17{stroke-width:8.81px}</style></defs><path id="path258" d="M128.108 229.29h.06c1.82-46.83 7.74-95.28 21.83-140.11 9.1-28.92 26.12-71.81 62-73.85 0 0 79.18-23 94.07 213.93h26.53c-.25 0-8.64-53.67-9.39-57.34-5.81-28.5-13.18-56.88-23.82-84-8-20.46-17.95-41.09-32.72-57.61-28.62-32-74.95-28.74-105-2-29.36 26.21-52.42 106-57.92 148-2.3 17.57-5.37 35.35-6.8 53z" class="cls-14" style="fill:#c0c5ce;stroke:#5685ef;stroke-width:14.60000038px;stroke-linecap:round;stroke-linejoin:round"/><path id="path260" d="M28.698 63.45h218.12v30.36H59.058a30.36 30.36 0 0 1-30.36-30.36z" class="cls-15" style="fill:#3a3a3a;stroke:#5685ef;stroke-width:8.81000042px;stroke-linecap:round;stroke-linejoin:round"/><path id="path262" d="M56.738 93.81h218.13v30.36H87.058a30.36 30.36 0 0 1-30.36-30.36v0z" class="cls-15" style="fill:#3a3a3a;stroke:#5685ef;stroke-width:8.81000042px;stroke-linecap:round;stroke-linejoin:round"/><path id="path264" d="M84.788 124.16h198.09v30.36h-167.74a30.36 30.36 0 0 1-30.36-30.36v0z" class="cls-15" style="fill:#3a3a3a;stroke:#5685ef;stroke-width:8.81000042px;stroke-linecap:round;stroke-linejoin:round"/><path id="path266" d="M112.828 153.95h139.58v30.36h-109.22a30.36 30.36 0 0 1-30.36-30.36z" class="cls-15" style="fill:#3a3a3a;stroke:#5685ef;stroke-width:8.81000042px;stroke-linecap:round;stroke-linejoin:round"/><circle id="circle268" cx="251.058" cy="123.579" r="59.65" class="cls-15" style="fill:#3a3a3a;stroke:#5685ef;stroke-width:8.81000042px;stroke-linecap:round;stroke-linejoin:round"/><path id="polyline270" d="M395.65 913.84H276.34h0" class="cls-16" style="fill:none;stroke:#5685ef;stroke-width:8.81000042px;stroke-linecap:round;stroke-linejoin:round" transform="translate(-84.942 -790.26)"/><path id="line272" d="M251.058 63.919v119.31" class="cls-16" style="fill:none;stroke:#5685ef;stroke-width:8.81000042px;stroke-linecap:round;stroke-linejoin:round"/><path id="path274" d="M288.258 76.95s-20.09 19.17-52.85 17.22h-37.09" class="cls-16" style="fill:none;stroke:#5685ef;stroke-width:8.81000042px;stroke-linecap:round;stroke-linejoin:round"/><path id="path276" d="M288.258 170.2s-20.09-19.17-52.85-17.21h-37.09" class="cls-16" style="fill:none;stroke:#5685ef;stroke-width:8.81000042px;stroke-linecap:round;stroke-linejoin:round"/><circle id="circle278" cx="251.058" cy="123.579" r="59.65" class="cls-7" style="fill:#133cd1"/><path id="path280" d="M226.218 68.03c-20.39 8.71-34.82 30.29-34.82 55.55 0 25.84 15.12 47.84 36.26 56.13 20.38-8.71 34.82-30.29 34.82-55.55 0-25.84-15.12-47.84-36.26-56.13z" class="cls-7" style="fill:#133cd1"/><path id="path282" d="M241.568 68.03c-29.37 8.71-50.17 30.29-50.17 55.55 0 25.84 21.78 47.84 52.24 56.13 29.37-8.71 50.16-30.29 50.16-55.55 0-25.84-21.74-47.84-52.23-56.13z" style="fill:#3a3a3a"/><path id="polyline284" d="M395.65 913.84H276.34h0" class="cls-16" style="fill:none;stroke:#5685ef;stroke-width:8.81000042px;stroke-linecap:round;stroke-linejoin:round" transform="translate(-84.942 -790.26)"/><path id="line286" d="M162.118 124.159h112.75" class="cls-17" style="fill:#3a3a3a;stroke:#f71ef7;stroke-width:8.81000042px;stroke-miterlimit:10"/><path id="line288" d="M251.058 63.919v119.31" class="cls-16" style="fill:none;stroke:#5685ef;stroke-width:8.81000042px;stroke-linecap:round;stroke-linejoin:round"/><path id="path290" d="M288.258 76.95s-20.09 19.17-52.85 17.22h-37.09" class="cls-16" style="fill:none;stroke:#5685ef;stroke-width:8.81000042px;stroke-linecap:round;stroke-linejoin:round"/><path id="path292" d="M288.258 170.2s-20.09-19.17-52.85-17.21h-37.09" class="cls-16" style="fill:none;stroke:#5685ef;stroke-width:8.81000042px;stroke-linecap:round;stroke-linejoin:round"/><circle id="circle294" cx="251.058" cy="123.579" r="59.65" class="cls-16" style="fill:none;stroke:#5685ef;stroke-width:8.81000042px;stroke-linecap:round;stroke-linejoin:round"/><path id="line296" d="M223.618 94.169H87.898" class="cls-17" style="fill:#3a3a3a;stroke:#f71ef7;stroke-width:8.81000042px;stroke-miterlimit:10"/><path id="line298" d="M133.558 153.949h25.52" class="cls-17" style="fill:#3a3a3a;stroke:#f71ef7;stroke-width:8.81000042px;stroke-miterlimit:10"/><path id="line300" d="M28.698 63.449H4.468" class="cls-15" style="fill:#3a3a3a;stroke:#5685ef;stroke-width:8.81000042px;stroke-linecap:round;stroke-linejoin:round"/><path id="path302" d="M218.488 7.37c-20.13-.88-40.79 6.71-56.81 21-29.36 26.21-52.42 106-57.92 148-2.3 17.57-5.37 35.35-6.8 53l31.15-.06h.06c1.82-46.83 7.74-95.28 21.83-140.11 9.1-28.92 26.12-71.81 62-73.85a23.26 23.26 0 0 1 6.52-.6z" class="cls-14" style="fill:#c0c5ce;stroke:#5685ef;stroke-width:14.60000038px;stroke-linecap:round;stroke-linejoin:round"/><path id="path304" d="M162.628 216.36s9.93 10.91 24 0a27.34 27.34 0 0 1 10.64-5.47c9.74-2.18 14.38 5.58 21.41 10.34 7.03 4.76 15.25 3 21.64-1.94 0 0 15.1-13.33 26.33 0" style="fill:none;stroke:#5685ef;stroke-width:10.07999992px;stroke-linecap:round;stroke-linejoin:round"/></svg>