<svg xmlns="http://www.w3.org/2000/svg" id="Layer_1" width="313.73" height="307.192" data-name="Layer 1" viewBox="0 0 313.73 307.192"><defs id="defs16"><clipPath id="clippath"><path id="polygon4" d="m410.5 151.46-71.04 128.42 27.77 13.42 41.79-54.56 33.96-1.17 18.29-86.11z" class="cls-1"/></clipPath><clipPath id="clippath-1"><path id="path7" d="M629.08 902.21v84.85h225.68v-84.85zM725 985.06l-1 1h-44.29l-1-1v-4.42l1-1H724l1 1z" class="cls-1"/></clipPath><clipPath id="clippath-2"><path id="path10" d="M667.91 723.38v369.55h136.88V723.38Zm56.46 276.38h-45.04v-33.83h45.07zm23.68-199.35.03-33.83h45.37c-.08 2.66-.13 5.33-.17 8.27l-.05 3.04-.02 16.07c0 2.75.26 4.91.79 6.44h-45.95z" class="cls-1"/></clipPath><clipPath id="clippath-3"><path id="path13" d="M693.64 930.8v138.44h96V930.8Zm19.3 69.58-1 1h-13.63l-1-1v-35.06l1.01-1h13.65l1 1z" class="cls-1"/></clipPath><style id="style2">.cls-1{fill:none}.cls-6{fill:#ee4011}.cls-7{fill:#725c59}</style></defs><g id="g286" transform="translate(-580.586 -214.019)"><g id="g86" transform="translate(502.309 24.37)"><g id="g22"><path id="path18" d="M275.82 269.36c-2.73 0-5.1-1.44-6.2-3.77-1.02-2.16-1.08-4.51-.18-6.61.69-1.59 2.5-3.44 4.33-3.81.9-.18 1.58-.26 2.23-.26 1.46 0 2.74.43 3.91 1.31 2.99 2.23 3.78 6.71 1.76 9.99-1.22 1.97-3.41 3.14-5.86 3.14z" class="cls-6"/></g><g id="g28"><path id="path24" d="M168.17 296.27c-.93 0-1.86-.21-2.77-.62-1.29-.59-3.21-3.07-3.54-4.31a6.79 6.79 0 0 1 1.18-5.89c1.27-1.64 3.2-2.62 5.18-2.62 1.57 0 3.05.6 4.28 1.72 2.07 1.9 2.71 4.73 1.67 7.4-1.02 2.62-3.38 4.32-6.01 4.32z" class="cls-6"/></g><g id="g84"><g id="g34"><path id="path30" d="M287.99 494.76c-.37 0-.76-.02-1.15-.07-10.53-1.23-12.47-12.23-13.89-20.26-.29-1.65-.57-3.22-.89-4.61-2.28-9.84-6.41-23.04-11.04-35.31-3.39-8.99-10.25-22.41-14.89-24.11-.47-.17-.92-.26-1.32-.26-.34 0-1.39 0-2.54 1.55-1.33 1.78-1.47 4.15-1.63 6.66-.12 1.97-.25 4.02-.94 5.99-.62 1.75-1.59 2.64-2.89 2.64-1.77 0-2.67-1.69-3.39-3.05l-.05-.1c-.1-.18-.24-.49-.42-.89-.65-1.46-1.13-2.36-1.48-2.9-.45 1.31-.9 3.6-1.13 4.72-.18.89-.33 1.67-.47 2.22-.31 1.2-.63 2.4-.95 3.59-1.03 3.86-2.09 7.86-2.8 11.84-.22 1.23-.44 2.88-.68 4.62-.84 6.12-1.88 13.74-4.23 17.29-1.09 1.65-2.29 2-3.1 2-.6 0-2.62-.24-3.27-3.35-.72-3.42-.21-9.25.37-14.94l.08-.74c.29-2.89.8-5.97 1.29-8.95.68-4.16 1.39-8.46 1.52-12.29.03-.97.08-5.85-2.46-6.08-.16-.01-.32-.02-.49-.02-1.44 0-3.09.5-4.84 1.03-1.96.59-3.99 1.21-6.05 1.21-1.02 0-1.99-.16-2.87-.47-2.17-.76-3.68-3.82-4-5.29-1.07-4.86.39-9.07 1.68-12.79 1.4-4.04 2.61-7.53.93-11.54-1.39-3.31-4.07-5.21-7.36-5.21-.58 0-1.18.06-1.79.18-3.91.75-6.31 4.73-8.86 8.95-2.74 4.54-5.84 9.68-11.47 11.44-1.1.35-2.24.52-3.37.52-3.66 0-6.98-1.86-8.47-4.74-1.41-2.72-1.01-5.97 1.08-8.91 2.87-4.04 6.92-7.04 10.84-9.94 2.47-1.83 4.81-3.56 6.81-5.5 5.12-4.97 4.45-10.87-2-17.55-2.65-2.75-6.21-5.13-9.35-7.1l-.03-.02c-2.93-.86-6-1.25-9.25-1.66-2.36-.3-4.8-.61-7.19-1.12l-.59-.13c-1.99.13-3.99.3-5.95.47-2 .17-3.88.34-5.59.44-.58.03-1.28.08-2.07.14-2.58.18-6.12.43-9.71.43-8.27 0-13.15-1.31-15.35-4.11-1.18-1.5-1.61-3.02-1.3-4.52.5-2.39 2.76-3.86 4.42-4.75 4.31-2.33 9.1-3.46 14.63-3.46 4.77 0 9.54.82 14.17 1.61 4.57.79 8.88 1.53 13.13 1.53 3.31 0 6.2-.47 8.83-1.42 1.11-.41 1.73-1.07 1.83-1.52.06-.29-.11-.65-.52-1.05-.18-.18-.62-.41-1-.62-.98-.52-2.32-1.24-2.63-2.78-.2-1 .12-2.04.95-3.07 1.24-1.54 3.92-2.6 7.57-3.92 1.2-.44 2.34-.85 3.04-1.19 2.37-1.15 3.9-2.45 4.09-3.48.1-.54-.19-1.19-.87-1.93-.58-.63-1.33-.99-2.19-1.42-1.53-.74-3.43-1.67-4.64-4.25-.22-.47-.37-1.01-.54-1.57-.1-.35-.27-.93-.38-1.17-.56-.61-3.2-2.95-4.5-4.06-12.07-10.27-26.14-15.44-41.04-20.91-10.66-3.92-21.69-7.97-31.78-14.05-6.1-3.68-9.33-7.5-9.86-11.7-.31-2.48.18-4.47 1.46-5.92 1.35-1.53 3.43-2.3 6.19-2.3s5.48.78 6.86 1.25c2.61.89 4.97 2.26 7.24 3.58 1.17.68 2.27 1.32 3.4 1.89 2.13 1.09 4.31 2.16 6.51 3.23 5.09 2.49 10.36 5.06 15.27 8.06 3.95 2.41 7.63 5.23 11.19 7.96 4.01 3.07 8.16 6.25 12.59 8.74 7.54 4.24 14.63 6.62 22.83 9.39l2.01.68c.78.26 1.58.6 2.43.95 1.85.76 3.94 1.63 5.66 1.63 1.08 0 1.89-.33 2.61-1.07.52-.54 1.03-1.76 1.08-2.62.34-5.87-6.87-15.96-13.72-22.85-.25-.25-.73-.66-1.25-1.1-2.41-2.05-4.01-3.51-4.19-5.13-.13-1.18.25-2.34 1.07-3.25.86-.95 2.06-1.5 3.31-1.5.77 0 1.53.22 2.18.63l.23.16c5.85 4.17 11.89 8.48 18.38 11.47.32.15.55.35.71.54.85.3 1.64.46 2.3.46.46 0 1.08-.08 1.39-.45.38-.45.48-1.43.26-2.68-.12-.7-.58-2.1-2.06-4.76l-.15-.26c-1.32-2.33-3-4.88-4.32-6.84-.68-.9-1.32-1.65-1.96-2.31-.59-.6-1.22-1.17-1.88-1.77-.67-.6-1.36-1.23-2.02-1.9-1.35-1.38-2.51-2.88-3.63-4.33-.5-.65-1.12-1.45-1.48-2.48-.28-.79-.35-1.58-.41-2.21l-.56-6.25c-.06-.63-.15-1.68.38-2.69.39-.75.98-1.21 1.39-1.49 1.27-.87 2.82-1.33 4.47-1.33 1.99 0 3.99.66 5.63 1.84 2.36 1.71 4.09 4.39 5.13 7.96.55 1.86.86 3.75 1.16 5.57.15.92.3 1.85.49 2.77.07.34.14.68.23 1.02 1.28 2.3 3.26 5.13 5.74 8.21 5.51 6.85 8.9 8.29 10.76 8.29.53 0 1.02-.12 1.48-.36 1.83-.95 1.26-5.46 1.05-7.16-.43-3.39-1.33-6.93-2.2-10.35-.53-2.06-1.07-4.2-1.5-6.28l-.11-.52c-.71-3.35-1.13-5.66-1.07-6.8.04-.59.32-1.81.93-2.57l.37-.46.56-.18c.37-.12.76-.18 1.15-.18 2.97 0 5.01 3.51 5.68 4.66.27.46.62 1.23 1.21 2.55.48 1.06 1.36 3.03 2.12 4.47q.225-.795.45-1.95l.03-.17c1.22-6.32-.34-12.85-1.85-19.16-1.47-6.16-3-12.54-1.92-18.73.67-3.85 4-7.83 8.42-7.83.18 0 .37 0 .55.02 3.18.24 5.02 4.15 5.55 6.18 2.09 8.01 1.29 16.43.51 24.58-.87 9.19-1.77 18.69 1.55 27.45.78 2.07 1.87 3.46 2.71 3.46.09 0 .18-.01.28-.04 1.16-.28 3.38-4.3 4.22-5.81.45-.8.83-1.5 1.18-2.05l.28-.44c2.66-4.18 4.68-6.97 6.54-7.93.8-.41 1.61-.62 2.42-.62 2.16 0 3.82 1.5 4.24 3.82.35 1.97.45 4.61.53 6.93.02.68.05 1.34.08 1.93.09 1.81.11 3.66.14 5.63.08 5.68.16 11.55 1.81 16.34.65 1.89 1.13 1.98 1.99 1.98.15 0 .32 0 .49-.02 3.72-.35 8.83-4.26 13.65-10.45 9.28-11.91 17.28-24.7 26.44-40.25 1.2-2.03 2.38-4.12 3.57-6.23 5.57-9.86 11.32-20.06 20.2-27.19 1.1-.88 4.96-3.77 8.24-3.77 2.56 0 4.29 1.7 4.64 4.54.73 6-5.66 15.55-7.63 18.34-5.59 7.88-12.37 15.22-18.93 22.32-5.09 5.51-10.36 11.21-14.95 17.05-9.28 11.81-16.09 21.81-20.79 30.57l-.36.67c-.94 1.73-3.79 6.99-4 8.54-.09.63-.02 1.43.09 1.78.23.12.47.17.77.17 1.26 0 3.03-.95 4.73-1.88 2.09-1.13 4.25-2.3 6.44-2.3.23 0 .45.01.68.04 1.82.21 2.42 1.89 2.75 2.8.08.21.19.53.28.71h.05c.85-1.32 1.5-2.73 1.92-4.19.35-1.23.57-2.51.79-3.87.24-1.45.49-2.95.93-4.44 1.62-5.5 5.79-10.06 10.88-11.9 1.69-.61 3.47-.92 5.31-.92 4.04 0 7.9 1.52 10.58 4.18 2.06 2.05 2.88 4.45 2.24 6.59-.58 1.95-2.16 3.11-3.62 3.99a37 37 0 0 1-6.41 3.07c-.59.22-1.18.42-1.78.62-1.49.5-2.91.98-4.16 1.68-.78 1.24-1.96 2.5-3.1 3.73-1.04 1.12-2.12 2.28-2.69 3.21-.97 1.6-1.8 4.2-1.69 5.18 1.36-.12 2.13-1.18 3.25-2.89.56-.84 1.13-1.72 1.86-2.46 2.03-2.08 8.48-6.07 11.96-6.07.15 0 .29 0 .42.02 1.4.12 2.54.78 3.27 1.89 1.62 2.44.58 6.06.35 6.76-1.45 4.51-6.14 5.82-10.27 6.99-2.81.79-5.72 1.61-7.04 3.28-1.19 1.51-2.31 3.84-.88 6.42 1.73 3.12 12 8.82 16.54 10.11 3.24.92 7.72 1.43 12.61 1.43 7.16 0 14.55-1.09 19.28-2.84 1.9-.71 3.69-1.58 5.59-2.5 3.56-1.73 7.24-3.53 11.62-4.07 1.06-.13 2.29-.2 3.57-.2 3.44 0 11.84.51 15.41 5.23 1.07 1.42 2.14 3.85 1.14 7.38-.44 1.57-3.52 9.38-20.52 9.38-.29 0-.58 0-.85-.01-2.97-.08-5.79-.64-8.52-1.18-1.51-.3-2.94-.58-4.39-.79-1.63-.23-3.46-.35-5.43-.35-7 0-14.77 1.46-20.77 2.74-.36.08-.76.16-1.18.24-3 .6-9.24 1.86-10.12 4.36-.1.29-.14.72-.17 1.17-.08 1.05-.2 2.49-1.35 3.63-.85.84-1.81 1.18-2.57 1.46-.31.11-.6.22-.81.33-6.9 3.87-10.08 13.57-6.66 20.35 2.41 4.8 8.32 7.35 14.04 9.81 2.6 1.12 5.06 2.19 7.24 3.46 2.41 1.42 4.54 3.11 6.33 5.03.86.54 1.63 1.1 2.34 1.7 3.55 3 5.6 7.16 5.47 11.12-.05 1.49-.39 3.04-1.02 4.6-1.51 3.75-4.33 6.31-7.55 6.86-.45.08-.9.11-1.36.11-2.69 0-5.55-1.34-8.27-3.88-.48-.45-.97-.94-1.52-1.54-1.05-.77-1.99-1.56-2.49-2.08-2.91-3.09-5.07-6.89-7.15-10.57-2.95-5.22-5.74-10.15-10.46-13.04-2.08-1.27-4.33-2.24-6.41-2.78-.15.11-.31.21-.47.3-1.27.77-2.63 1.26-3.94 1.74-1.88.68-3.51 1.27-4.44 2.49-1.12 1.48-1.03 3.71-.93 6.08.04.96.08 1.95.04 2.93-.09 2.39-.76 4.26-1.98 5.58-1.12 1.21-2.77 1.9-4.52 1.9-1.55 0-3-.54-4.09-1.52-.92-.83-1.48-1.83-1.93-2.67l-.25-.32c-.47-.61-.95-1.23-1.26-1.51-.38-.33-.77-.6-1.17-.79-.11-.01-.23-.02-.36-.02-.52 0-1.13.1-1.81.29-.23.34-.41.82-.53 1.4-.38 1.97.1 3.23.76 4.98.26.69.56 1.48.81 2.36 1 3.45 1.17 4.58 1.11 5.3-.24 3.23-3.27 3.53-4.74 3.67-.44.04-1.15.11-1.42.23-.1.3-.32 1.11-.37 1.39-1.16 7.14 3.97 16.62 8.09 24.25 1.33 2.45 2.58 4.77 3.57 6.89.73 1.55 1.34 3.15 1.94 4.7.57 1.47 1.1 2.87 1.73 4.23 1.06 2.29 2.53 5.06 4.1 7.99 4.77 8.95 10.18 19.1 10.16 26.77-.02 4.38-2.35 6.99-6.25 6.99z" class="cls-6"/></g><g id="g40"><path id="path36" d="M135.84 434.1c-1.97 0-3.78-.42-5.38-1.23-3.88-1.98-5.71-6.64-4.45-11.33 1.62-6.05 8.84-11.17 15.76-11.17 2.87 0 5.42.91 7.37 2.62 3.81 3.35 3.4 8.84 1.41 12.54-2.63 4.88-8.96 8.57-14.71 8.57" class="cls-6"/></g><g id="g46"><path id="path42" d="M347.81 288.14c-2.2 0-4.34-.96-5.89-2.63-1.7-1.83-2.55-4.38-2.35-6.98.33-4.24 4.09-7.68 8.37-7.68 1.4 0 2.78.38 4 1.1 2.41 1.42 3.96 4.27 4.05 7.41.08 3.07-1.24 5.81-3.53 7.33-1.44.95-3.05 1.46-4.65 1.46z" class="cls-6"/></g><g id="g52"><path id="path48" d="M187.45 435.36c-2.56 0-4.85-1.21-6.13-3.25-1.54-2.43-1.67-5.19-.36-7.55 1.31-2.38 3.88-3.91 6.55-3.91 1.67 0 3.27.59 4.62 1.71 3.07 2.54 3.54 7.06 1.07 10.28-1.33 1.73-3.42 2.73-5.74 2.73z" class="cls-6"/></g><g id="g58"><path id="path54" d="M242.98 450.24c-1.05 0-2.09-.29-3.09-.87-1.66-.95-2.78-2.72-2.99-4.75-.2-1.9.46-3.67 1.79-4.86 1.24-1.1 2.69-1.68 4.2-1.68 1.32 0 2.62.45 3.77 1.31 2.01 1.5 2.78 4.07 1.95 6.54-.85 2.57-3.12 4.29-5.63 4.29z" class="cls-6"/></g><g id="g64"><path id="path60" d="M152.44 332.31c-2.05 0-3.88-1.07-4.89-2.87-1.13-2-1.06-4.5.16-6.53.94-1.56 2.82-2.53 4.89-2.53 1.5 0 2.85.52 3.81 1.46 1.61 1.59 2.21 4.09 1.51 6.39-.64 2.1-2.25 3.59-4.3 3.97-.39.07-.79.11-1.18.11" class="cls-6"/></g><g id="g70"><path id="path66" d="M286.73 409.31c-.95 0-2.38-.3-3.87-1.69-.39-.23-.84-.59-1.19-1.33-.94-2.01-.81-4.28.34-6.09 1-1.58 2.67-2.52 4.45-2.52.88 0 1.75.22 2.6.65 2.38 1.21 3.51 3.74 2.86 6.44-.64 2.67-2.77 4.54-5.18 4.54z" class="cls-6"/></g><g id="g76"><path id="path72" d="M312.6 437.64c-2.33 0-4.67-1.08-6.78-3.11-.02-.02-.06-.03-.1-.05-.55-.31-1.18-.74-1.71-1.89-1.64-3.51-1.43-7.48.57-10.62 1.72-2.7 4.44-4.25 7.46-4.25 1.48 0 2.97.38 4.43 1.12 4.05 2.06 5.95 6.38 4.84 11-1.1 4.6-4.68 7.81-8.71 7.81z" class="cls-6"/></g><g id="g82"><path id="path78" d="M145.58 314.3c-.68 0-1.36-.18-2.02-.54-1.69-.93-2.48-2.71-2.01-4.53.49-1.92 2.19-3.32 4.03-3.32.98 0 1.89.38 2.65 1.11 1.25 1.2 1.63 3.06.96 4.73-.62 1.55-2.04 2.56-3.6 2.56z" class="cls-6"/></g></g></g></g><g id="g640" transform="translate(-564.896 -288.362)"><g id="g638" transform="translate(0 16)"><path id="path548" d="m925.48 156.3-27.55 15.26-1.01.56-.41 1.07c-7.41 19.42-38.14 59.02-40.01 61.42l-7.45 7.91-97.84 103.27h-.18l-.97 1.22h-.01l-.24.26-4.87 5.14.79.02-40.3 50.5-1.94 2.43 2.42 1.97 25.41 20.7 2.35 1.91 2-2.27 66.14-75.07.08-.09.07-.09 66.53-87.82.28.24 1.95-2.96c4.36-6.61 9.94-11.4 16.58-14.26 5.8-2.49 11.33-3.01 14.95-3.01 3.27 0 5.38.42 5.4.43l3.03.64.67-3.02 18.72-82.91 1.55-6.85z" class="cls-7"/><g id="g586"><g id="g576"><path id="path572" d="M730.33 549.59c-1.8 0-3.29-1.29-3.54-3.08-3.5-25.11-19.78-81.34-31.17-89.85-2-1.49-3.97-2.22-6.04-2.22-7.31 0-14.33 9.55-16.41 13.23l-.62 1.1-1.25.16c-35.08 4.5-82.38 20.5-91.51 23.66l-.4.14h-.51c-1.16.01-2.2-.72-2.59-1.82-.39-1.09-.05-2.32.86-3.06L740.5 354.89l29.78-.65-1.21 3.43c-11.67 33.2-.72 43.24-.6 43.33l1.16 1.01-.34 1.52-35.49 143.34a3.514 3.514 0 0 1-3.46 2.71z"/><path id="path574" d="M766.7 356.84c-12.56 35.74.15 46.09.15 46.09l-35.49 143.34c-.13.54-.58.8-1.02.8-.48 0-.96-.31-1.04-.91-3.42-24.48-19.62-82.15-32.15-91.52-2.59-1.93-5.13-2.72-7.55-2.72-10.41 0-18.6 14.51-18.6 14.51-35.49 4.55-83.62 20.87-92.01 23.78-.03 0-.06.01-.08.01-.2 0-.33-.28-.14-.42l162.68-132.41 25.28-.56m7.13-5.18-7.27.16-25.28.56-1.73.04-1.34 1.09-162.68 132.41a5.27 5.27 0 0 0-1.64 5.85c.75 2.1 2.74 3.51 4.96 3.51.59 0 1.17-.1 1.73-.29 9.09-3.15 56.2-19.08 91.01-23.55l2.5-.32 1.24-2.2c1.76-3.09 8.17-11.95 14.22-11.95 1.51 0 2.99.56 4.54 1.72 3.53 2.64 10.04 13.9 17.72 37.61 5.67 17.51 10.68 37.83 12.46 50.57.42 3.04 2.96 5.24 6.03 5.24 2.8 0 5.23-1.9 5.9-4.62l35.49-143.34.83-3.34-2.47-1.73c-.39-.41-2.37-2.67-3.35-8.06-1.05-5.73-1.08-16.02 4.71-32.51l2.41-6.86z" class="cls-7"/></g><path id="rect578" d="M698.17 416.19h7.84v39.92h-7.84z" class="cls-7" transform="rotate(-50.83 702.164 436.156)"/><circle id="circle580" cx="738.24" cy="440.31" r="4.99" class="cls-7"/><circle id="circle582" cx="745.17" cy="423.89" r="4.99" class="cls-7"/><path id="path584" d="M899.45 174.31c-7.87 20.61-40.56 62.35-40.56 62.35l-7.55 8.02-98.81 104.3h-.02l-.09.12-.33.35h.05l-44.26 55.46 25.41 20.7 66.14-75.07 68.54-90.46.11.1c15.42-23.39 40.2-18.19 40.2-18.19L927 159.08l-27.55 15.26Z"/></g><g id="g634"><path id="polygon626" d="m875.69 223.77-.93-.8-114.77 127.48-57.31 69.17 1.51 1.23 53.33-64.76z" class="cls-6"/><path id="polygon628" d="m878.79 226.45-.93-.81-112.05 127.83-58.11 70.25 1.51 1.22 53.19-64.64z" class="cls-6"/><path id="polygon630" d="m881.89 229.12-.93-.8-109.52 128.33-58.71 71.16 1.51 1.23 53.04-64.53z" class="cls-6"/><path id="polygon632" d="M884.06 230.99 777.02 359.84l-59.27 72.06 1.51 1.23 52.9-64.4L884.99 231.8z" class="cls-6"/></g></g></g></svg>