<svg xmlns="http://www.w3.org/2000/svg" id="Layer_1" width="480.8" height="563.3" version="1.1"><defs id="defs1088"><clipPath id="clippath"><path id="path1085" fill="none" d="M300-116c116 0 210-94 210-210H90c0 116 94 210 210 210z"/></clipPath><style id="style1083">.cls-4{fill:#f65e00}.cls-8{fill:#b1a092}.cls-9{fill:#1d2605}.cls-10{fill:#5a5734}.cls-11{fill:#817e5d}</style></defs><g id="g1092" clip-path="url(#clippath)" transform="translate(-60 -18)"><path id="path1090" fill="none" stroke="#216586" stroke-linecap="round" stroke-linejoin="round" stroke-width="19.7" d="M73-35c29 18 64 29 98 33 29 3 60 0 87-13 41-18 76-58 121-68 49-11 98 14 131 48"/></g><g id="g1162" transform="translate(-60 -18)"><path id="path1096" fill="#ffe468" d="M532 164c-23-31-88-33-101-33-2-2-9-11-14-43-5-36-21-62-44-68-13-4-27 0-36 11l-11 13c-9 11-16 21-26 27-10-6-17-16-26-27l-11-13c-9-11-23-15-36-11-23 6-39 32-44 68-5 32-12 41-14 43-13 0-78 2-101 33-6 8-12 22-6 41 8 24 28 44 61 59 21 10 43 16 60 20l1 14c0 14 2 27 4 39a41 41 0 0 0-11 9 41 41 0 0 0-7 48l93 167a41 41 0 0 0 70 0l68-124a51 51 0 0 0 29 8h20c19 0 33-14 33-33v-6c0-8-1-15-4-21 13-12 21-30 21-48v-10c0-20-16-37-37-37h-30c-8 0-16 2-23 5v-9c16-4 38-9 60-19 37-16 60-37 68-62 6-19 0-33-6-41z"/><g id="g1160"><g id="g1150"><g id="g1102"><path id="path1098" fill="#f65e00" d="M430 422c-15 0-28-12-28-28v-7c0-5 4-10 10-10h20c16 0 28 13 28 29v6c0 6-4 10-10 10z" class="cls-4"/><path id="path1100" fill="#1d2605" d="M432 387c10 0 18 9 18 19v6h-20c-10 0-18-8-18-18v-7h20m0-19h-20c-11 0-20 8-20 19v7c0 21 17 38 38 38h20c11 0 20-9 20-20v-6c0-21-17-38-38-38z" class="cls-9"/></g><g id="g1134"><path id="path1104" fill="#1d2605" d="M389 276s118-16 136-75c19-58-96-57-96-57s-17 3-25-54c-8-58-43-68-57-51-15 17-25 36-44 45h-6c-19-9-29-28-44-45s-49-7-57 51c-8 57-25 54-25 54s-115-1-96 57c18 59 136 75 136 75" class="cls-9"/><path id="path1106" fill="#5a5734" d="M167 246h14c0-14-14-29-14-43l-37-3c20-12 43-18 67-19s47 2 70 7a97 97 0 0 0-45-20c-16-4-33-5-50-4-15 0-30 1-44 5-12 3-29 8-33 19-3 6 1 13 5 19 15 20 41 31 67 39z" class="cls-10"/><path id="path1108" fill="#5a5734" d="m198 146 43 7c17 4 51 15 78 8s58-8 58-8l-38-31s20-14 20-30-7-30-7-30-43 50-82 51l27-29s-27-3-46-15-25-11-32 16c-6 27-21 61-21 61z" class="cls-10"/><path id="path1110" fill="#817e5d" d="m222 150 20-86c-12-5-17-1-23 21-6 27-21 61-21 61l24 4z" class="cls-11"/><g id="g1126"><path id="polygon1112" fill="#817161" d="m222 332 75 37 94-40-6-81 20-49-112-9-101 14 20 69z"/><g id="g1124"><path id="path1114" fill="#1d2605" d="m297 294-9 1-7-1-5-2c-2 0-2 1-1 2l7 7 7 2h15l7-2 8-7c1-1 0-2-1-2l-6 2a16 16 0 0 1-7 1l-8-1z" class="cls-9"/><g id="g1122"><path id="path1116" fill="#1d2605" d="m422 182-3-1a1600 1600 0 0 1-247 1c-4 11 6 34 7 40 1 10 6 23 16 24l2 52c2 74 36 111 100 112 63-1 98-38 99-112l2-52c10-1 15-14 17-24 1-6 11-29 7-40zm-90 129c-6 14-21 15-26 1-1-3-4-4-7-4h-5c-3 0-6 1-7 4-5 14-20 13-26-1-5-13-2-21 3-27a169 169 0 0 0 65 0c5 6 8 14 3 27zm-64-30c14-13 20-6 29-6 8 0 14-7 28 6l-16-4c-4-1-9 2-12 2-4 0-9-3-13-2l-16 4zm100-27c-5 19 7 30-3 55l-5-20c-7-22-26-34-46-38 8-2 12-4 11-11-2-5-3-5-3 0l-1 2c0 2-2 2-3 1-1-3-7-5-14 1-2 2-5 3-7 3-3 0-6-1-8-3-6-6-12-4-14-1-1 1-3 1-3-1v-2c0-5-2-5-3 0-2 7 3 9 11 11-21 4-39 16-47 38-2 6-4 13-4 20-11-25 1-36-3-55-4-16-19-15-24-41 24-8 33 9 59 2l7-4c8-4 17 2 15 11l-4 8c-1 2 0 4 2 4 3 0 5 1 8 4-1-9-1-25 3-38l5-1c21 1 21 11 35 16 26 7 35-10 59-2-5 26-20 25-23 41z" class="cls-9"/><path id="path1118" fill="#1d2605" d="M172 181v1l2-1z" class="cls-9"/><path id="path1120" fill="#1d2605" d="m421 181 1 1-3-1z" class="cls-9"/></g></g></g><ellipse id="ellipse1128" cx="295" cy="220.1" fill="#b1a092" class="cls-8" rx="6.7" ry="20.6"/><path id="polygon1130" fill="#1d2605" d="m221 122 13-8-8-14 15 6 4-16 5 15 15-5-9 14 14 8-16 1 2 17-11-12-11 12 2-16z" class="cls-9"/><path id="path1132" fill="#817e5d" d="M172 164c-15 0-30 1-44 5-12 3-29 8-33 19-3 6 1 13 5 19 6 7 13 14 21 19 0 0-36-51 51-62z" class="cls-11"/></g><g id="g1140"><path id="path1136" fill="#f65e00" d="M298 555c-5 0-10-3-12-7l-92-167a14 14 0 0 1 2-16 14 14 0 0 1 9-4l7 1s33 17 83 17a244 244 0 0 0 94-18 14 14 0 0 1 12 20l-91 167a14 14 0 0 1-12 7z" class="cls-4"/><path id="path1138" fill="#1d2605" d="m389 374-91 167-93-167s35 19 90 19c27 0 59-5 94-19m-184-27a27 27 0 0 0-23 40l92 167a27 27 0 0 0 24 14c10 0 19-5 24-14l91-166c2-4 3-9 3-14 0-14-11-26-26-27a26 26 0 0 0-3 0l-8 2c-28 11-56 16-84 16-37 0-66-10-77-15-4-2-8-3-13-3zm184 54z" class="cls-9"/></g><g id="g1146"><path id="path1142" fill="#f65e00" d="M407 376c-7 0-12-6-12-12v-10c0-22 17-39 38-39h30c7 0 12 6 12 12v10c0 21-17 39-38 39z" class="cls-4"/><path id="path1144" fill="#1d2605" d="M463 327v10c0 15-12 27-26 27h-30v-10c0-15 12-27 26-27h30m0-24h-30c-27 0-50 23-50 51v10c0 13 11 23 24 23h30c27 0 50-22 50-50v-10c0-13-11-24-24-24z" class="cls-9"/></g><path id="path1148" fill="#fd9d6b" d="M245 387c-25-5-40-13-40-13l90 162-15-61 17-38-52-50z"/></g><path id="path1152" fill="#1d2605" d="M205 376s23 53 62 62l-22 21" class="cls-9"/><path id="polyline1154" fill="#1d2605" d="M299 552v-54l68-52" class="cls-9"/><path id="path1156" fill="#b1a092" d="M221 213s29 10 47 0c0 0-20 39-47 0z" class="cls-8"/><path id="path1158" fill="#b1a092" d="M322 213s30 10 48 0c0 0-21 39-48 0z" class="cls-8"/></g></g></svg>