<svg xmlns="http://www.w3.org/2000/svg" id="Layer_1" width="317.08" height="317.08" data-name="Layer 1" viewBox="0 0 317.08 317.08"><defs id="defs5046"><linearGradient id="linear-gradient" x1="255.78" x2="255.78" y1="554.75" y2="182.92" gradientUnits="userSpaceOnUse"><stop id="stop5002" offset="0" stop-color="#d96e00"/><stop id="stop5004" offset=".02" stop-color="#db7810"/><stop id="stop5006" offset=".06" stop-color="#e29239"/><stop id="stop5008" offset=".11" stop-color="#e8aa5e"/><stop id="stop5010" offset=".17" stop-color="#edbe7f"/><stop id="stop5012" offset=".23" stop-color="#f2d09a"/><stop id="stop5014" offset=".3" stop-color="#f5deb0"/><stop id="stop5016" offset=".38" stop-color="#f8e8c1"/><stop id="stop5018" offset=".47" stop-color="#faf0cd"/><stop id="stop5020" offset=".61" stop-color="#fbf4d4"/><stop id="stop5022" offset="1" stop-color="#fcf6d6"/></linearGradient><linearGradient id="linear-gradient-2" x1="741.44" x2="741.44" y1="1089.58" y2="752" gradientUnits="userSpaceOnUse"><stop id="stop5025" offset="0" stop-color="#d96e00"/><stop id="stop5027" offset=".06" stop-color="#e08a2c"/><stop id="stop5029" offset=".12" stop-color="#e6a353"/><stop id="stop5031" offset=".19" stop-color="#ecb977"/><stop id="stop5033" offset=".27" stop-color="#f1cc94"/><stop id="stop5035" offset=".35" stop-color="#f5dbac"/><stop id="stop5037" offset=".45" stop-color="#f8e7bf"/><stop id="stop5039" offset=".56" stop-color="#faefcc"/><stop id="stop5041" offset=".7" stop-color="#fbf4d3"/><stop id="stop5043" offset="1" stop-color="#fcf6d6"/></linearGradient><style id="style5000">.cls-8{fill:#07002c}.cls-10{fill:#8b181f}.cls-12{fill:#6f7ca5}.cls-13{fill:#fcf6d6}.cls-14{fill:#d96e00}</style></defs><g id="g5542" transform="translate(-587.64 -207)"><g id="g5360"><path id="rect5344" d="M737.07 207h18.21v317.08h-18.21z" class="cls-14"/><path id="rect5346" d="M737.07 207h18.21v317.08h-18.21z" class="cls-14" transform="rotate(-90 746.18 365.54)"/><path id="rect5348" d="M737.07 207h18.21v317.08h-18.21z" class="cls-14" transform="rotate(-45 746.174 365.545)"/><path id="rect5350" d="M737.07 207h18.21v317.08h-18.21z" class="cls-14" transform="rotate(-135 746.18 365.543)"/><path id="rect5352" d="M737.07 207h18.21v317.08h-18.21z" class="cls-14" transform="rotate(-67.5 746.175 365.541)"/><path id="rect5354" d="M737.07 207h18.21v317.08h-18.21z" class="cls-14" transform="rotate(-157.5 746.178 365.543)"/><path id="rect5356" d="M737.07 207h18.21v317.08h-18.21z" class="cls-14" transform="rotate(-112.5 746.178 365.544)"/><path id="rect5358" d="M737.07 207h18.21v317.08h-18.21z" class="cls-14" transform="rotate(157.5 746.176 365.542)"/></g><g id="g5378"><path id="rect5362" d="M737.96 222.46h16.43v286.17h-16.43z" class="cls-14" transform="rotate(-11.25 746.197 365.564)"/><path id="rect5364" d="M737.96 222.46h16.43v286.17h-16.43z" class="cls-14" transform="rotate(-101.25 746.179 365.545)"/><path id="rect5366" d="M737.96 222.46h16.43v286.17h-16.43z" class="cls-14" transform="rotate(-56.25 746.178 365.538)"/><path id="rect5368" d="M737.96 222.46h16.43v286.17h-16.43z" class="cls-14" transform="rotate(-146.25 746.178 365.54)"/><path id="rect5370" d="M737.96 222.46h16.43v286.17h-16.43z" class="cls-14" transform="rotate(-78.75 746.18 365.541)"/><path id="rect5372" d="M737.96 222.46h16.43v286.17h-16.43z" class="cls-14" transform="rotate(-168.75 746.18 365.54)"/><path id="rect5374" d="M737.96 222.46h16.43v286.17h-16.43z" class="cls-14" transform="rotate(-123.75 746.18 365.54)"/><path id="rect5376" d="M737.96 222.46h16.43v286.17h-16.43z" class="cls-14" transform="rotate(146.25 746.18 365.54)"/></g><g id="g5540"><path id="path5380" d="M744.5 504.53s-37.95-10.14-47.04-36.97c0 0-40.25-8.22-51.51-40.69 0 0-33.76-38.09-4.76-83.97l-11.76-12.76s19.98-3.25 22.15-23.16c2.16-19.91 4.76-31.6 17.75-36.36 0 0 6.49-18.18 26.4-22.07 0 0 18.34-26.48 48.77-9.35h1.79c30.43-17.14 48.77 9.35 48.77 9.35 19.91 3.9 26.4 22.07 26.4 22.07 12.99 4.76 15.58 16.45 17.75 36.36 2.16 19.91 22.15 23.16 22.15 23.16L849.6 342.9c29 45.88-4.76 83.97-4.76 83.97-11.25 32.46-51.51 40.69-51.51 40.69-9.09 26.84-47.04 36.97-47.04 36.97z" class="cls-8"/><path id="path5382" d="M728.19 486.6s-21.45-22.24-15.6-49.11c0 0-5.36 9.27-5.36 14.83 0 0-4.87-16.22 1.46-31.51 0 0-26.32 41.24 19.5 65.79" class="cls-12"/><path id="path5384" d="M683.39 451.76s-16.45-24.24 15.15-50.21c0 0-12.12 1.3-18.18 7.36 0 0 3.46-12.99 16.88-21.21 0 0-12.55 0-21.21 9.09s-18.61 41.55 7.36 54.97" class="cls-12"/><path id="path5386" d="M661.32 430.98s-7.79-25.1 15.58-48.05c0 0-35.49 11.69-15.58 48.05" class="cls-12"/><path id="path5388" d="M701.16 417.77s-13.01 21.01-6.09 40.05c0 0-18.56-24.7 6.09-40.05" class="cls-12"/><path id="path5390" d="M647.03 412.76s1.95-32.64 27.49-39.57c0 0-8.06-3.25-15.5.97 0 0 4.88-11.07 23.61-14.03 0 0-21.07-.47-30.17 9.54s-13.43 25.95-5.42 43.08z" class="cls-12"/><path id="path5392" d="M637.94 377.31s14.72-25.35 38.96-25.44c0 0-8-2.45-14.17-2.57 0 0 20.25-13.57 25.65-20.26 0 0-10.18 4.13-23.6 6.72-13.42 2.6-26.84 19.05-26.84 41.55" class="cls-12"/><path id="path5394" d="m658.29 331.43 24.34-6.3s5.96-2.35 7.26-9.28l-15.8 3.46s-12.77 3.46-15.8 12.12" class="cls-13"/><path id="path5396" d="M652.51 329.03s11.83-10.57 13.57-24.65c1.73-14.08 2.6-22.3 11.69-25.76 0 0-11.03-1.89-14.6 9.23s-2.14 28.83-10.65 41.18z" class="cls-12"/><path id="path5398" d="M741.85 491.8s-11.66-16.66-13-32.9c0 0-6.67 18.83 13 32.9" class="cls-12"/><path id="path5400" d="m678.63 311.95 5.63-4.76s-8.03-6.01-1.63-13.39 12.45-1.32 16.78 6.03l5.19-4.33s-4.76-15.15-19.05-13.42-16.45 21.64-6.93 29.87z" class="cls-14"/><path id="path5402" d="M676.9 273.13s19.05 1.59 37.22 11.98c0 0-13.85-20.06-37.22-11.98" class="cls-12"/><path id="path5404" d="M684.26 264.34s23.96-2.44 39.9 17.61l9.88 1.44-5.87-9.57 16.26 12.17s-2.6-23.37-21.64-30.73c-19.05-7.36-35.49 3.03-38.52 9.09z" class="cls-12"/><path id="path5406" d="M742.69 379.47c-2.6-.43-3.9-3.46-6.49-3.03s-6.49 2.16-7.36-1.73 1.46-5.03 1.46-5.03l-1.9-1.89c-2.6 1.73-4.33 4.76-2.6 12.12s8.52 7.79 8.52 7.79l2.34-3.05 5.59 6.95c.87 12.12-5.63 22.07-16.61 24.21s-22.78-6.46-15.32-25.62c7.46-19.15 10.21-33.12 10.21-33.12l-12.58 10.09-3.36-13.98c-7.36 18.71-3.44 27.96-3.44 27.96s-9.55-8.15-7.82-25.9c0 0-3.19 4.06-4.63 8.96 0 0-7.06-28.44 22.37-57.44 0 0-11.25 4.33-14.72 7.79 0 0 1.11-13.56 18.3-17.6s21.95 4.18 21.95 4.18l-4.76-8.22s8.22 1.24 12.55 7.54h1.95c4.33-6.31 12.55-7.54 12.55-7.54l-4.76 8.22s4.76-8.22 21.95-4.18 18.3 17.6 18.3 17.6c-3.46-3.46-14.72-7.79-14.72-7.79 29.43 29 22.37 57.44 22.37 57.44-1.43-4.89-4.63-8.96-4.63-8.96 1.73 17.75-7.82 25.9-7.82 25.9s3.92-9.25-3.44-27.96l-3.36 13.98-12.58-10.09s2.75 13.97 10.21 33.12-4.33 27.75-15.32 25.62c-10.98-2.14-17.48-12.09-16.61-24.21l5.59-6.95 2.34 3.05s6.79-.43 8.52-7.79 0-10.39-2.6-12.12l-1.9 1.89s2.33 1.14 1.46 5.03-4.76 2.16-7.36 1.73-3.9 2.6-6.49 3.03h-5.42z" class="cls-14"/><g id="g5412"><path id="path5408" d="M740.83 402.63h-5.28l-23.98 8.94c3.43 3.83 8.84 5.25 14.07 4.23 7.38-1.43 12.72-6.4 15.18-13.17z" class="cls-13"/><path id="path5410" d="m779.96 410.68-24.57-8.05h-5.42c2.46 6.77 7.8 11.74 15.18 13.17 5.62 1.09 11.45-.63 14.81-5.13z" class="cls-13"/></g><path id="path5414" d="M716.94 310.5s-2.11-7.06 12.8-8.54c0 0-18.85-8.57-31.19 6.22-1.93 3.5-2.17 6.37-2.17 6.37 3.46-3.46 14.72-7.79 14.72-7.79-4.7 4.63-8.47 9.25-11.49 13.74 5.75-4.08 15.59-8.59 29.02-5.9z" class="cls-10"/><path id="path5416" d="M773.86 310.5s2.11-7.06-12.8-8.54c0 0 18.85-8.57 31.19 6.22 1.93 3.5 2.17 6.37 2.17 6.37-3.46-3.46-14.72-7.79-14.72-7.79 4.7 4.63 8.47 9.25 11.49 13.74-5.75-4.08-15.59-8.59-29.02-5.9z" class="cls-10"/><path id="path5418" d="M699.19 329.91s-1.73-5.19 5.41-6.28c7.14-1.08 10.9-1.95 21.14 6.93l12.41 7.57-16 6.29" class="cls-10"/><path id="path5420" d="M791.61 329.91s1.73-5.19-5.41-6.28-10.9-1.95-21.14 6.93l-12.41 7.57 16 6.29" class="cls-10"/><path id="path5422" d="m730.3 369.68 7.84-31.54-9.52 5.81-13.42.25s15.13 7.53 7.57 23.89l6.86-7.37z" class="cls-10"/><path id="path5424" d="m760.49 369.68-7.84-31.54 9.52 5.81 13.42.25s-15.13 7.53-7.57 23.89l-6.86-7.37z" class="cls-10"/><path id="path5426" d="m713.04 347.66 5.63-5.19-3.25-3.97s-3.68-3.39-8.87-3.39-6.06 3.9-3.03 8.66 9.52 3.9 9.52 3.9z" class="cls-13"/><path id="path5428" d="m777.76 347.66-5.63-5.19 3.25-3.97s3.68-3.39 8.87-3.39 6.06 3.9 3.03 8.66-9.52 3.9-9.52 3.9z" class="cls-13"/><path id="path5430" d="M760.53 386.3c-2.09 1.27-4.07 1.4-4.07 1.4l-2.34-3.05-5.59 6.95c-.87 12.12 5.63 22.07 16.61 24.21 2.72.53 5.49.4 8.01-.39.87-2.4 1.34-4.95 1.34-7.59 0-9.14-5.6-17.14-13.97-21.53z" class="cls-13"/><path id="path5432" d="M716.94 407.82c0 2.72.5 5.34 1.42 7.8 2.32.6 4.82.66 7.29.18 10.98-2.14 17.48-12.09 16.61-24.21l-5.59-6.95-2.34 3.05s-1.79-.12-3.76-1.22c-8.18 4.43-13.64 12.33-13.64 21.35z" class="cls-13"/><path id="path5434" d="M741.26 401.34c-7.74 11.73-22.59 7.59-22.59 7.59l-1.66.57c-7.38 2.35-6.77 4.4 1.35 6.13 2.32.6 4.82.66 7.29.18 7.84-1.52 13.39-7.03 15.61-14.47" class="cls-12"/><path id="path5436" d="M749.54 401.34c7.74 11.73 22.59 7.59 22.59 7.59l1.66.57c7.38 2.35 6.77 4.4-1.35 6.13-2.32.6-4.82.66-7.29.18-7.84-1.52-13.39-7.03-15.61-14.47" class="cls-12"/><path id="path5438" d="M728.19 359.13s-1.73-9.74-9.09-13.64c0 0-2.16 1.73-6.06 2.16l2.16-3.46s-3.46-.43-8.66-9.09c0 0-4.76-2.6-7.36-5.19 0 0 2.16-5.19 12.12-3.9 9.96 1.3 12.55 13.85 26.84 12.12l-7.36 6.06s-.87 9.96-2.6 14.93z" class="cls-8"/><path id="path5440" d="M714.55 333.16s.87 3.9 2.6 4.76c1.73.87 4.33-1.3 4.33-1.3l1.29 1.5s-1.72 2.84-4.1 2.83-7.57-1.31-6.71-8.67c0 0 .87-1.3 2.6.87z" class="cls-14"/><path id="path5442" d="M702.44 321.91s13.85-7.36 30.73 8.66c0 0-3.05-5.8-10.4-12.21s-16.87-4.24-20.34 3.55z" class="cls-13"/><path id="path5444" d="M762.61 486.6s21.45-22.24 15.6-49.11c0 0 5.36 9.27 5.36 14.83 0 0 4.87-16.22-1.46-31.51 0 0 26.32 41.24-19.5 65.79" class="cls-12"/><path id="path5446" d="M807.41 451.76s16.45-24.24-15.15-50.21c0 0 12.12 1.3 18.18 7.36 0 0-3.46-12.99-16.88-21.21 0 0 12.55 0 21.21 9.09s18.61 41.55-7.36 54.97" class="cls-12"/><path id="path5448" d="M829.48 430.98s7.79-25.1-15.58-48.05c0 0 35.49 11.69 15.58 48.05" class="cls-12"/><path id="path5450" d="M789.63 417.77s13.01 21.01 6.09 40.05c0 0 18.56-24.7-6.09-40.05" class="cls-12"/><path id="path5452" d="M843.76 412.76s-1.95-32.64-27.49-39.57c0 0 8.06-3.25 15.5.97 0 0-4.88-11.07-23.61-14.03 0 0 21.07-.47 30.17 9.54s13.43 25.95 5.42 43.08z" class="cls-12"/><path id="path5454" d="M852.85 377.31s-14.72-25.35-38.96-25.44c0 0 8-2.45 14.17-2.57 0 0-20.25-13.57-25.65-20.26 0 0 10.18 4.13 23.6 6.72 13.42 2.6 26.84 19.05 26.84 41.55" class="cls-12"/><path id="path5456" d="m832.51 331.43-24.34-6.3s-5.96-2.35-7.26-9.28l15.8 3.46s12.77 3.46 15.8 12.12" class="cls-12"/><path id="path5458" d="M838.29 329.03s-11.83-10.57-13.57-24.65c-1.73-14.08-2.6-22.3-11.69-25.76 0 0 11.03-1.89 14.6 9.23s2.14 28.83 10.65 41.18z" class="cls-12"/><path id="path5460" d="M750.19 491.8s11.66-16.66 13-32.9c0 0 6.67 18.83-13 32.9" class="cls-12"/><path id="path5462" d="m812.17 311.95-5.63-4.76s8.03-6.01 1.63-13.39-12.45-1.32-16.78 6.03l-5.19-4.33s4.76-15.15 19.05-13.42c14.28 1.73 16.45 21.64 6.93 29.87z" class="cls-14"/><path id="path5464" d="M813.9 273.13s-19.05 1.59-37.22 11.98c0 0 13.85-20.06 37.22-11.98" class="cls-12"/><path id="path5466" d="M806.54 264.34s-23.96-2.44-39.9 17.61l-9.88 1.44 5.87-9.57-16.26 12.17s2.6-23.37 21.64-30.73c19.05-7.36 35.49 3.03 38.52 9.09z" class="cls-12"/><path id="path5468" d="M745.4 262.44c-13.47-15.77-33.01-16.29-33.01-16.29s18.09-9.83 33.01 3.26c14.92-13.09 33.01-3.26 33.01-3.26s-19.54.52-33.01 16.29" class="cls-12"/><path id="path5470" d="M762.61 359.13s1.73-9.74 9.09-13.64c0 0 2.16 1.73 6.06 2.16l-2.16-3.46s3.46-.43 8.66-9.09c0 0 4.76-2.6 7.36-5.19 0 0-2.16-5.19-12.12-3.9-9.96 1.3-12.55 13.85-26.84 12.12l7.36 6.06s.87 9.96 2.6 14.93z" class="cls-8"/><path id="path5472" d="M776.24 333.16s-.87 3.9-2.6 4.76c-1.73.87-4.33-1.3-4.33-1.3l-1.29 1.5s1.72 2.84 4.1 2.83 7.57-1.31 6.71-8.67c0 0-.87-1.3-2.6.87z" class="cls-14"/><path id="path5474" d="M788.36 321.91s-13.85-7.36-30.73 8.66c0 0 3.05-5.8 10.4-12.21s16.87-4.24 20.34 3.55z" class="cls-13"/><g id="g5488"><path id="path5476" d="M705.9 394.19s12.55-3.46 19.05-3.46v-1.88l-17.47-1.15" class="cls-8"/><path id="path5478" d="M706.33 402.63s14.69-4.5 22.29-4.5v-2.45L706.33 397" class="cls-8"/><path id="path5480" d="M710.04 414.44s14.96-8.09 23.23-10.01l-.55-2.38-23.94 6.92" class="cls-8"/><path id="path5482" d="M784.9 394.19s-12.55-3.46-19.05-3.46v-1.88l17.47-1.15" class="cls-8"/><path id="path5484" d="M784.46 402.63s-14.69-4.5-22.29-4.5v-2.45l22.29 1.32" class="cls-8"/><path id="path5486" d="M780.76 414.44s-14.96-8.09-23.23-10.01l.55-2.38 23.94 6.92" class="cls-8"/></g><path id="path5490" d="M722.78 255.25c-19.05-7.36-35.49 3.03-38.52 9.09h.05c1.12-.29 20.57-10.28 40.63 6.88 0 0-3.25-10.56-11.9-14.02 0 0 14.28-1.3 31.38 28.78 0 0-2.6-23.37-21.64-30.73" class="cls-13"/><path id="path5492" d="M745.4 249.42c-14.92-13.09-33.01-3.26-33.01-3.26s21.65-4.11 33.01 9.53c0 0 7.48-11.47 33.01-9.53 0 0-18.09-9.83-33.01 3.26" class="cls-13"/><path id="path5494" d="M637.94 377.31c5.41-23.59 20.34-31.87 20.34-31.87l30.09-16.4s-10.18 4.13-23.6 6.72c-13.42 2.6-26.84 19.05-26.84 41.55z" class="cls-13"/><path id="path5496" d="M664.06 368.04c3.58-3.08 9.42-6.46 18.57-7.9 0 0-21.07-.47-30.17 9.54s-13.43 25.95-5.42 43.08c-2.41-33.25 10.3-42.27 17.03-44.72z" class="cls-13"/><path id="path5498" d="M676.03 396.79c-8.64 9.07-18.56 41.39 7.17 54.87-1.62-.91-13.32-8.35-11.61-31.93 1.84-25.32 25.65-32.03 25.65-32.03s-12.55 0-21.21 9.09" class="cls-13"/><path id="path5500" d="m760.19 308.17-15.23-1.2-15.23 1.2v2l5.74 1.36c4.08.97 7.11 4.4 7.56 8.57l.92 8.51h2l.92-8.51c.45-4.17 3.48-7.6 7.56-8.57l5.74-1.36v-2z" class="cls-10"/><path id="polyline5502" d="M738.14 338.14h14.51l2.38 5.19-9.63-4.2-9.69 5.3" class="cls-10"/><path id="path5504" d="M759.68 368.2c-9.66 2.04-18.7 2.04-28.36 0v-4.1c9.66 2.04 18.7 2.04 28.36 0z" class="cls-13"/><path id="path5506" d="M682.62 290.34c-10.94 7.17-2.69 19.65-2.69 19.65l1.17-.14 3.15-2.67s-8.03-6.01-1.63-13.39c6.39-7.38 12.45-1.32 16.78 6.03l3.03-2.52s-8.87-14.14-19.81-6.97z" class="cls-10"/><path id="path5508" d="M697.46 285.11c-2.89-2.17-6.76-3.64-11.81-3.03-11.26 1.36-15.05 13.85-11.55 23.16 0 0-4.29-25.11 23.36-20.13" class="cls-13"/><path id="path5510" d="m832.51 331.43-24.34-6.3s-5.96-2.35-7.26-9.28l15.8 3.46s12.77 3.46 15.8 12.12" class="cls-13"/><path id="path5512" d="M768.02 255.25c19.05-7.36 35.49 3.03 38.52 9.09h-.05c-1.12-.29-20.57-10.28-40.63 6.88 0 0 3.25-10.56 11.9-14.02 0 0-14.28-1.3-31.38 28.78 0 0 2.6-23.37 21.64-30.73" class="cls-13"/><path id="path5514" d="M852.85 377.31c-5.41-23.59-20.34-31.87-20.34-31.87l-30.09-16.4s10.18 4.13 23.6 6.72 26.84 19.05 26.84 41.55z" class="cls-13"/><path id="path5516" d="M826.74 368.04c-3.58-3.08-9.42-6.46-18.57-7.9 0 0 21.07-.47 30.17 9.54s13.43 25.95 5.42 43.08c2.41-33.25-10.3-42.27-17.03-44.72z" class="cls-13"/><path id="path5518" d="M814.76 396.79c8.64 9.07 18.56 41.39-7.17 54.87 1.62-.91 13.32-8.35 11.61-31.93-1.84-25.32-25.65-32.03-25.65-32.03s12.55 0 21.21 9.09" class="cls-13"/><path id="path5520" d="M808.17 290.34c10.94 7.17 2.69 19.65 2.69 19.65l-1.17-.14-3.15-2.67s8.03-6.01 1.63-13.39c-6.39-7.38-12.45-1.32-16.78 6.03l-3.03-2.52s8.87-14.14 19.81-6.97z" class="cls-10"/><path id="path5522" d="M793.34 285.11c2.89-2.17 6.76-3.64 11.81-3.03 11.26 1.36 15.05 13.85 11.55 23.16 0 0 4.29-25.11-23.36-20.13" class="cls-13"/><path id="path5524" d="M688.72 364.19c1.43-4.89 4.63-8.96 4.63-8.96-1.73 17.75 7.82 25.9 7.82 25.9s-3.92-9.25 3.44-27.96l3.36 13.98 3.91-17.03s-11.18 5.32-21.96-8.45c-3.46 13.3-1.18 22.52-1.18 22.52z" class="cls-10"/><path id="path5526" d="M703.52 348.96s-6.06 9.52-6.06 15.15c0 0-2.16-8.16-1.95-16.85 0 0-4.2 5.54-4.8 6.65s4.17-14.04 4.17-14.04" class="cls-14"/><path id="path5528" d="M802.08 364.19c-1.43-4.89-4.63-8.96-4.63-8.96 1.73 17.75-7.82 25.9-7.82 25.9s3.92-9.25-3.44-27.96l-3.36 13.98-3.91-17.03s11.18 5.32 21.96-8.45c3.46 13.3 1.18 22.52 1.18 22.52z" class="cls-10"/><path id="path5530" d="M787.28 348.96s6.06 9.52 6.06 15.15c0 0 2.16-8.16 1.95-16.85 0 0 4.2 5.54 4.8 6.65s-4.17-14.04-4.17-14.04" class="cls-14"/><path id="path5532" d="M743.85 453.49s-9.52-8.22-9.09-23.37c0 0-5.63 8.22.87 21.64 0 0-11.25-5.63-7.36-23.37 0 0-4.76 4.33-4.76 14.28 0 0-5.63-6.06-1.73-19.48 0 0 12.55 3.82 22.94-10.43h1.66c10.39 14.24 22.94 10.43 22.94 10.43 3.9 13.42-1.73 19.48-1.73 19.48 0-9.96-4.76-14.28-4.76-14.28 3.9 17.75-7.36 23.37-7.36 23.37 6.49-13.42.87-21.64.87-21.64.43 15.15-9.96 23.37-9.96 23.37h-2.52z" style="fill:#fcf7d9"/><path id="path5534" d="m745.4 420.81-7.25 24.83c2.59 5.15 5.71 7.85 5.71 7.85h2.52s3.43-2.72 6.26-7.9z" class="cls-12"/><path id="path5536" d="m688.48 319.75-8.43 1.89c-3.96.89-7.78 2.31-11.36 4.22l-10.41 5.57 24.34-6.3s3.64-1.44 5.85-5.38z" class="cls-12"/><path id="path5538" d="m802.32 319.75 8.43 1.89c3.96.89 7.78 2.31 11.36 4.22l10.41 5.57-24.34-6.3s-3.64-1.44-5.85-5.38z" class="cls-12"/></g></g></svg>