<svg xmlns="http://www.w3.org/2000/svg" id="Layer_1" width="282.02" height="282.02" data-name="Layer 1" viewBox="0 0 282.02 282.02"><defs id="defs8199"><clipPath id="clippath"><path id="path8193" d="m387.14 363.88-62.41-9.82c-8.55-1.35-17.19-2.14-25.84-2.38l-71.28-1.78v-19.53h159.53v33.5z" class="cls-1"/></clipPath><clipPath id="clippath-1"><path id="path8196" d="M584.27 854.87v141.58h313.26V854.87Zm175.33 41.34c-3.58-.8-6.64-.97-8.6-.97-1.47 0-2.35.1-2.38.1l-1.2.16h-13.15l-1.15-.16c-.01 0-.88-.09-2.32-.09-1.96 0-5.01.18-8.59.97v-39.83c2.97-.33 5.91-.51 8.76-.51 2.54 0 4.52.13 5.73.24h8.51c1.13-.11 3.11-.24 5.63-.24 2.85 0 5.8.18 8.77.51v39.83z" class="cls-1"/></clipPath><linearGradient id="linear-gradient" x1="307.38" x2="307.38" y1="363.88" y2="330.37" gradientUnits="userSpaceOnUse"><stop id="stop8176" offset="0" stop-color="#008900"/><stop id="stop8178" offset=".07" stop-color="#00901a"/><stop id="stop8180" offset=".25" stop-color="#00a155"/><stop id="stop8182" offset=".42" stop-color="#00af85"/><stop id="stop8184" offset=".58" stop-color="#00b9ab"/><stop id="stop8186" offset=".73" stop-color="#00c1c6"/><stop id="stop8188" offset=".86" stop-color="#00c6d7"/><stop id="stop8190" offset=".96" stop-color="#00c8dd"/></linearGradient><style id="style8174">.cls-1,.cls-3{fill:none}.cls-3{stroke:#0a3ee4;stroke-miterlimit:10;stroke-width:8.63px}.cls-9{fill:#0a3ee4}</style></defs><g id="g8355" transform="translate(-591.98 -233.8)"><path id="path8329" d="M732.99 233.8c-77.75 0-141.01 63.26-141.01 141.01s63.26 141.01 141.01 141.01S874 452.56 874 374.81 810.74 233.8 732.99 233.8" style="fill:#fff"/><g id="g8335"><path id="path8331" d="m732.99 338.76 32.14 55.66h-64.27L733 338.76m-.01-17.26-7.47 12.94-32.14 55.66-7.47 12.94h94.17l-7.47-12.94-32.14-55.66L733 321.5z" class="cls-9"/><path id="path8333" d="m765.13 357.32-32.14 55.66-32.14-55.66h64.27m14.95-8.63H685.9l7.47 12.94 32.14 55.66 7.47 12.94 7.47-12.94 32.14-55.66 7.47-12.94z" class="cls-9"/></g><path id="path8337" d="M732.99 502.04c70.15 0 127.23-57.07 127.23-127.23s-57.07-127.23-127.23-127.23-127.23 57.07-127.23 127.23 57.07 127.23 127.23 127.23m-91.25-65.41h66.24c-17.23 3.41-33.5 10.37-48.07 20.63-6.87-6.1-12.99-13.01-18.17-20.63m32.53 31.45c17.54-11.1 37.63-16.93 58.72-16.93s41.17 5.83 58.73 16.93c-17.02 10.76-37.15 17-58.73 17s-41.71-6.24-58.72-17m131.79-10.81c-14.56-10.25-30.83-17.22-48.04-20.64h66.22c-5.18 7.62-11.31 14.54-18.18 20.64m18.62-143.62h-70.24c18.55-3.12 36.05-10.32 51.61-21.29 7.07 6.27 13.35 13.41 18.62 21.29zm-32.96-32.11c-17.54 11.1-37.64 16.94-58.73 16.94s-41.17-5.83-58.74-16.93c17.02-10.76 37.16-17 58.74-17s41.71 6.24 58.73 16.99m-131.79 10.81c15.59 10.97 33.14 18.17 51.7 21.29H641.3c5.27-7.88 11.56-15.02 18.63-21.29m174.05 38.26a109.6 109.6 0 0 1 9.28 44.2c0 15.71-3.44 31.15-9.58 44.86H632.3c-6.13-13.72-9.58-28.89-9.58-44.86s3.33-30.66 9.28-44.2h201.97z" class="cls-9"/><path id="line8339" d="M665.14 323.92v99.66" class="cls-3"/><path id="line8341" d="M652.41 323.92v99.66" class="cls-3"/><path id="line8343" d="M639.69 323.92v99.66" class="cls-3"/><path id="line8345" d="M626.97 323.92v99.66" class="cls-3"/><path id="line8347" d="M800.84 425.7v-99.66" class="cls-3"/><path id="line8349" d="M813.57 425.7v-99.66" class="cls-3"/><path id="line8351" d="M826.29 425.7v-99.66" class="cls-3"/><path id="line8353" d="M839.01 425.7v-99.66" class="cls-3"/></g></svg>