<svg xmlns="http://www.w3.org/2000/svg" id="Layer_1" width="495.895" height="329.275" data-name="Layer 1" version="1.1"><defs id="defs7"><clipPath id="clip-path"><circle id="circle4" cx="300" cy="-320" r="244.35" style="fill:none"/></clipPath><style id="style2">.cls-2{clip-path:url(#clip-path)}.cls-3{fill:#2e4254}.cls-4{fill:#2e4255}.cls-5{fill:#3aa6db}.cls-6{fill:#3db064}.cls-7{fill:#f1c31f}.cls-8{fill:#2d4255}.cls-10{fill:#fff}</style></defs><circle id="circle62" cx="357.215" cy="138.68" r="138.68" style="fill:#e23122"/><path id="path64" d="M61.855 170.33a231.26 231.26 0 0 1-5.23 45.85l-12.79-3.57a216.48 216.48 0 0 0 5.67-43.26zm21.22-32.41v149.22h-15.39V137.92zm23.82 57.36-12.15 3.24a219.64 219.64 0 0 0-8.91-29.81l11.34-3.57a234.5 234.5 0 0 1 9.72 30.14zm76.15-52.34v13.61a89.84 89.84 0 0 1-25.92 36 147.44 147.44 0 0 0 13.28 6.81 193.5 193.5 0 0 0 25.28 8.75l-8.59 13a188 188 0 0 1-28-11.18 118.5 118.5 0 0 1-14.25-8.26c-13 8.42-28.52 15.23-46.83 20.57l-5.83-13.61c15.55-4.37 28.84-9.88 40.18-16.69a72.57 72.57 0 0 1-14.58-17 57.56 57.56 0 0 1-7.94-17.33h-8.43v-14.67zm-31.11 71.94v15.72h33.06v14.74h-33.06v22.85h42.29v14.9H94.095v-14.9h42.45v-22.85h-33.7V230.6h33.7v-15.72zm-19.6-43.1a80.67 80.67 0 0 0 11.83 11.83 91.66 91.66 0 0 0 22.35-26.08h-42.12a42.36 42.36 0 0 0 7.94 14.25z"/><path id="path66" d="M290.625 219.09v13.29h-84.25v-13.29zm-56.55-62.7-12.45 6.32a115.24 115.24 0 0 0-11.83-16.36l12.15-6a160.61 160.61 0 0 1 12.13 16.04zm24 7.29a168.14 168.14 0 0 0 13.77-25.6l14.42 5a147.5 147.5 0 0 1-12.64 20.6h10.85v49.58h-71.78v-49.58zm24.31 122.65h-14.44v-7.13h-39.7v7.13h-14.42V238.7h68.54zm-40.53-103.53v-7.45h-14.91v7.45zm0 11.18h-14.91v7.62h14.91zm26.09 71.29v-12.64h-39.7v12.64zm-10.05-109.69-12.27 6.16a148.8 148.8 0 0 0-11-17.5l12.15-5.83a155.77 155.77 0 0 1 11.12 17.17zm-2.43 27.22h14.91v-7.45h-14.91zm14.91 11.2h-14.91v7.62h14.91zm57.35-14.26h24.47v14.75h-23.82q7.29 52.74 28.84 81.66l-10.37 11.66c-11.67-17.5-19.77-38.88-24.47-63.84-5.67 25.28-14.42 46.34-26.41 63.52l-10.2-11.34q22.85-35.49 26.57-81.66h-23v-14.77h23.66c.16-18.14.32-31.92.32-41.64h14.91c-.01 11.35-.17 25.28-.5 41.64zm28.36-11-10.21 7.12a258.54 258.54 0 0 0-15.39-25.92l9.88-6.32a200.45 200.45 0 0 1 15.72 25.09z"/><path id="rect68" d="M7.635 104.08h388.05v217.56H7.635z" style="fill:none;stroke:#000;stroke-width:15.27000046px;stroke-miterlimit:10"/></svg>