<svg xmlns="http://www.w3.org/2000/svg" id="Layer_1" data-name="Layer 1" version="1.1" width="304.835" height="249.189"><defs id="defs4"><style id="style2">.cls-3{fill:#fff}.cls-21,.cls-23{stroke:#000;stroke-linecap:round;stroke-linejoin:round}.cls-21{fill:none}.cls-18{fill:#c9c9c9}.cls-21{stroke-width:7.15px}.cls-23{stroke-width:6.06px}</style></defs><path d="M100.7 227.19a21.72 21.72 0 0 0 10.25-6.38l.57-.59 26.81-45.9 8.57 10.42a186.81 186.81 0 0 0 16.75 20.36l2.41-2.28-2.42 2.31c21.45 22.54 45.73 36.46 72.16 41.37a51.71 51.71 0 0 0 26.48 1.71c5.69-.56 10-2 13.06-4.38a52.5 52.5 0 0 0-2.38-95.47l-.48-.19a50.51 50.51 0 0 0-6.09-3.09 52.12 52.12 0 0 0-40.23-.46 51.77 51.77 0 0 0-4.11 1.85 62.83 62.83 0 0 1-13.61-9.32 124.72 124.72 0 0 0 17.74-9.39c19.5-12.45 33-29.15 39-48.3 5.52-17.59 3.52-34-5.8-47.49C246.77 13.72 220.95 1.78 190.32.03h-.09a173 173 0 0 0-44.39 4.95c-31.81 7.87-54.3 24.23-65 47.34-4.51 9.69-6.24 18.81-5.2 27.19a26.24 26.24 0 0 0-11.58 8.2c-19.75 5.57-33.81 19.15-35.43 20.77l-.1.1a9.55 9.55 0 0 0-1.82 2.59 9.84 9.84 0 0 0-.16 8.32A137.92 137.92 0 0 0 4.24 150.4a9.86 9.86 0 0 0 2.39 11.86q-1.06 2.52-2 5l-.13.36c-.3.87-.59 1.71-.84 2.5l-.17.55c-.21.64-.4 1.29-.59 1.93l-.27 1q-.24.87-.45 1.71c-.1.39-.2.78-.29 1.17l-.3 1.3c-.14.62-.26 1.24-.38 1.86-.05.21-.08.43-.12.63-.17.87-.31 1.76-.44 2.63l-.06.36c-.21 1.54-.38 3.08-.49 4.56v.46c-.05.8-.08 1.61-.1 2.4v4.64c0 .31.07.93.11 1.41.04.48.06.65.1 1 .06.56.13 1.12.22 1.68v.11c0 .17 0 .35.08.51.11.67.24 1.35.38 2l.1.45c.18.79.35 1.49.53 2.14a9.56 9.56 0 0 0 .65 1.68 6.29 6.29 0 0 0 .35.63 9.19 9.19 0 0 0 .58.89c.15.2.31.39.5.61a7.62 7.62 0 0 0 .68.7 8.14 8.14 0 0 0 .63.54 5.39 5.39 0 0 0 .54.4 7 7 0 0 0 .66.43c.18.1.36.2.54.28h.08a9.71 9.71 0 0 0 1.22.49l.26.09a10.88 10.88 0 0 0 1.16.27l.41.06a8.11 8.11 0 0 0 1.09.08h.54c.55 0 1.11-.06 1.69-.11h.38l1-.1a9.87 9.87 0 0 0 4.83 4.12 9.83 9.83 0 0 0 10.53-2.08l19.76-18.98h.06a110 110 0 0 0 13.13-13.21l12.39 28.93.08.17c.71 1.54 7.28 15.1 18.71 17a16.37 16.37 0 0 0 3.52.2m.14 2.18.26 1.16" id="path308" style="fill:#871324"/><path d="m233.18 188.88-11.09-3.26 12.11-27.34s-22.72-4.58-37.71-24c0 0 48.63-13.87 62.14-56.89 13.51-43.02-24.84-68-68.71-70.54 0 0-78.89-3.41-102.9 48.33-14.05 30.26 5.09 46.14 23.4 54.1l-51.59 45.38 22.65 52.96s10.6 23 24.53 8.48l31.37-53.69 15 18.21a179.77 179.77 0 0 0 16.28 19.8c17.45 18.34 43.16 37.1 77.11 40.61 69.73 7.19-12.59-52.15-12.59-52.15z" id="path310"/><path class="cls-3" d="M177.5 126.47c21.84-4.53 40.88-14.05 53.9-32.83 20.32-29.31 7.71-63.65-26.85-70.79-33.9-7-64.33 1.82-90.11 25.29-6.43 5.85-11.34 12.82-13.8 21.3-3.57 12.28 10.34 27.07 22.52 24.66.56-6.64.07-13.42 1.86-19.54 4.75-16.24 16.09-27.29 30.81-34.94a55.65 55.65 0 0 1 29.13-6.27c21.76 1.17 33.09 17.08 26.62 37.85-6.08 19.54-19.78 31.83-38.36 39.11-7 2.74-14.31 4.52-22.87 3.5 12.16-19.62 24.83-38.14 34.84-58.4 0 0-22.74-12.18-33.36 12.38a52.25 52.25 0 0 0-5.06 8.29c-15 29.43-33.13 56.61-62.21 74.51-1.25.77-2.13 3.71-1.75 5.3 2.75 11.53 5.86 23 8.93 34.42a13.14 13.14 0 0 0 1.59 2.84c1-.67 2.33-1.12 3-2q20.63-29.27 41.21-58.53c.76-1.09 1.66-2.09 2.5-3.14.63.56.81.65.86.78.78 2 1.52 4 2.32 6 6.15 15.25 13.68 29.64 26.4 40.58 16.11 13.84 34.23 15.62 53.69 8.55 1.12-.41 2-1.43 4.11-3a46.6 46.6 0 0 0-4.68-1.06 49.27 49.27 0 0 1-28.78-12.93c-10.06-9-16.66-20.26-21.43-32.74-3.02-7.8-3.02-7.53 4.97-9.19z" id="path312" style="fill:#fff"/><path class="cls-3" d="M169.96 125.41s11.49 29.86 81 47.66l-46.06 27.32c-50.71-20.67-64.77-71-64.77-71l21.89-5.2" id="path314" style="fill:#fff"/><path d="M202.88 186.35c-.17-.08-17.24-8.57-23.36-14.6a2.23 2.23 0 0 0-.69-.47c0 .65.17 5.91 4.05 9.31.87.58 1.77 1.16 2.67 1.73a12.48 12.48 0 0 1 1.23.76c6.68 4.1 13.46 7.47 13.91 7.69a2.43 2.43 0 0 0 1.1.26 2.47 2.47 0 0 0 1.09-4.68z" id="path316"/><path d="m210.79 164.83-6.53-3.73c-9.08-3.46-13.38-3.26-15-2.94a2.55 2.55 0 0 0 .48.37l18.57 10.58a2.42 2.42 0 0 0 1.21.33 2.47 2.47 0 0 0 1.23-4.61z" id="path318"/><path class="cls-18" d="M228.05 56.88a30.88 30.88 0 0 0-11.71-14.26c7.34 11.77 9.81 22.92 7.33 33.22-3.25 13.51-14.93 25.4-34.74 35.34-2.79 1.4-27.87 10.87-32.54 10.68-2.75 3.51-1.16 7.85-.28 9.66 18.44 34.4 34.34 41.2 36.21 41.9l12.07 5.66a2.42 2.42 0 0 0 1 .23 2.47 2.47 0 0 0 1-4.7l-12.17-5.71-.24-.09c-.16-.06-16.3-6.14-35-42.31a108.56 108.56 0 0 0 15.27-4.48c7.59-2.63 15.57-5.79 16.85-6.43 21.16-10.63 33.72-23.61 37.32-38.6a40.64 40.64 0 0 0-.37-20.11z" id="path320" style="fill:#c9c9c9"/><circle cx="252.31" cy="196.649" r="40.28" id="circle322" style="fill:#fff;stroke:#000;stroke-width:10.72999954px;stroke-linecap:round;stroke-linejoin:round"/><circle class="cls-3" cx="245.73" cy="193.359" r="40.28" id="circle324" style="fill:#fff"/><path d="M259.34 155.45a40.28 40.28 0 0 0-31.17 74.17c.25-19 5.36-49.25 31.17-74.17z" id="path326" style="fill:#a0a0a0"/><path d="M245.67 239a45.64 45.64 0 1 1 18-87.62 45.64 45.64 0 0 1-18 87.62zm.11-80.56a34.92 34.92 0 1 0 13.66 2.8 35 35 0 0 0-13.66-2.8z" id="path328"/><path id="polyline330" style="fill:#f4ba14;stroke:#000;stroke-width:7.1500001px;stroke-linecap:round;stroke-linejoin:round" transform="translate(-108.04 -787.38)" d="m388.23 996.32-56.29-24.02-15.54-6.63"/><path class="cls-21" d="M254.44 232.69c1.25-22.5-35-34.52-35-34.52l-9.9-4.23" id="path332" style="fill:none;stroke:#000;stroke-width:7.1500001px;stroke-linecap:round;stroke-linejoin:round"/><path class="cls-21" d="M279.82 173.22c-15.38 16.46-49.11-1.37-49.11-1.37l-14.37-6.14" id="path334" style="fill:none;stroke:#000;stroke-width:7.1500001px;stroke-linecap:round;stroke-linejoin:round"/><path class="cls-21" d="M228.65 229.93s-3.18-46 31.4-73.55" id="path336" style="fill:none;stroke:#000;stroke-width:7.1500001px;stroke-linecap:round;stroke-linejoin:round"/><path class="cls-18" d="M123.96 57.62c-.18.12 0-.14.71-1l.74-1c3-4.4.59-7.55.59-7.55a62 62 0 0 0-6 7.38c-19 17.56-8.36 26.3-8.36 26.3a2.23 2.23 0 0 0 1.71.81h.06a2.24 2.24 0 0 0 2.17-2.28 31.76 31.76 0 0 1 1.58-9 49 49 0 0 1 6.8-13.66z" id="path338" style="fill:#c9c9c9"/><path class="cls-18" d="M140.04 129.43s-6.7-15.62 10.3-15.62c0 0-25.86-3.85-14.8 21.6" id="path340" style="fill:#c9c9c9"/><path d="M102.87 94.38c-18.73-11.46-28.22-5.53-32.95 2.06-19.73 4.34-34.36 19.09-34.36 19.09a13.62 13.62 0 0 1 8.89 1.09c-20.17 15.59-31.39 38.2-31.39 38.2a7.76 7.76 0 0 1 8.54-.43c-10.22 17.41-14 35.27-10.5 47.6 15-.58 34.21-12.93 48.79-33 6.82-9.37 11.81-20.11 16-31.14 1.56-4.08 3-8.2 4.43-12.3.37-1.09 1.13-3.32 1.76-5.9 18.88-3.67 43.28-11.51 20.79-25.27z" id="path342" style="fill:#828282"/><path d="M9.59 204.62a3 3 0 0 1-1.41-1.81c-3.5-12.48-.2-29.61 8.83-46.43a5 5 0 0 0-2.22.93 3 3 0 0 1-4.44-3.84 128.49 128.49 0 0 1 27.38-35.22 9.68 9.68 0 0 0-1.47.22 3 3 0 0 1-2.85-5.08c.61-.61 14.9-14.84 34.64-19.63a19.32 19.32 0 0 1 12.53-8.47c6.72-1.27 14.75.92 23.87 6.51 7.84 4.79 11.23 9.51 10.35 14.41-.78 4.3-4.8 7.88-12.31 10.95a104.74 104.74 0 0 1-17.93 5.12c-.53 1.89-1.06 3.44-1.35 4.29-1.67 4.88-3.09 8.81-4.46 12.4-5.12 13.38-10.34 23.5-16.41 31.85-14.66 20.14-34.73 33.57-51.12 34.2a3 3 0 0 1-1.63-.4zm13.52-52.86a3 3 0 0 1 1.41 1.82 3 3 0 0 1-.31 2.34c-8.91 15.2-12.91 31.31-10.75 42.84 6.31-.8 13.35-3.7 20.52-8.48a94.47 94.47 0 0 0 23.46-23c5.75-7.9 10.73-17.58 15.65-30.45 1.35-3.51 2.74-7.39 4.39-12.19.35-1 1.09-3.18 1.68-5.63a3 3 0 0 1 2.37-2.26c24.88-4.89 27.11-10.5 27.3-11.58.37-2-2.38-5-7.54-8.18-7.81-4.77-14.39-6.69-19.58-5.72-3.74.71-6.84 3-9.22 6.8a3 3 0 0 1-1.92 1.36c-11.63 2.56-21.52 9-27.33 13.52a18.07 18.07 0 0 1 2.49 1 3 3 0 0 1 .58 5.14c-13.26 10.26-22.63 23.79-27.26 31.38a11.47 11.47 0 0 1 4 1.34z" id="path344"/><path d="M15.9 165.67c-5.8 13.58-7.52 26.65-4.8 36.32a38.09 38.09 0 0 0 11.63-2.48v0l.31 7.06 19.68-19.06c-7.03-13.03-19.31-19.18-26.82-21.84z" id="path346" style="fill-rule:evenodd;stroke:#000;stroke-width:6.05999994px;stroke-linecap:round;stroke-linejoin:round"/><path class="cls-23" d="M65.96 159.62a159.87 159.87 0 0 0 10-21.74c.41-1.06.81-2.12 1.2-3.19a185.09 185.09 0 0 0-35-24.74 68.52 68.52 0 0 0-6.54 5.57 13.62 13.62 0 0 1 8.89 1.09 105.57 105.57 0 0 0-15.28 14.67c11.67 5.34 30.31 15.44 36.73 28.34z" id="path348" style="stroke:#000;stroke-width:6.05999994px;stroke-linecap:round;stroke-linejoin:round"/><path class="cls-23" d="M96.18 116.2c13.93-4.41 23.68-11.42 6.69-21.82-14.39-8.8-23.32-7.34-28.83-2.76 7.41 4.47 17.01 12.28 22.14 24.58z" id="path350" style="stroke:#000;stroke-width:6.05999994px;stroke-linecap:round;stroke-linejoin:round"/><path d="M220.38 217.37s4.62 5.39 5.37-2.38 3.81-1.75 3.81-1.75v13.28l-6.8 1.76" id="path352"/><path d="M245.73 165.71s6.79-7.94.05-7.27c-6.74.67 7.54-3.85 7.54-3.85l2.25 3.41-1.1 7.71" id="path354"/></svg>