<svg xmlns="http://www.w3.org/2000/svg" id="Layer_1" data-name="Layer 1" version="1.1" width="285.97" height="372.17"><defs id="defs4"><style id="style2">.cls-1{fill:#ed8721}.cls-2{fill:#19ce22}.cls-37{fill:#043d04}.cls-12{fill:#096609}.cls-33,.cls-37{stroke:#043d04}.cls-31,.cls-33,.cls-37{stroke-linecap:round;stroke-linejoin:round}.cls-31{fill:#fff7d7}.cls-33,.cls-36{fill:none}.cls-18{fill:#ffb164}.cls-36{stroke-miterlimit:10}.cls-31{stroke:#f7e494}.cls-36{stroke:#fff}.cls-31,.cls-33{stroke-width:8.01px}.cls-36{stroke-width:4px}.cls-37{stroke-width:2.53px}</style></defs><rect x="0" y="0" width="285.97" height="310.29" rx="73.32" id="rect345" style="fill:#f7e494"/><ellipse cx="140.93" cy="295.88" rx="100.93" ry="26.62" id="ellipse347" style="fill:#ed8721;stroke:#cc6c15;stroke-width:7.55000019px;stroke-miterlimit:10"/><rect x="25.64" y="25.63" width="234.71" height="259.02" rx="40" id="rect349" style="fill:none;stroke:#043d04;stroke-width:35.77000046px;stroke-linecap:round;stroke-linejoin:round"/><rect x="25.64" y="25.63" width="234.71" height="259.02" rx="40" id="rect351" style="fill:#19ce22;stroke:#0ea812;stroke-width:10.56999969px;stroke-miterlimit:10"/><path id="polyline353" style="fill:#0ea812" transform="translate(-598.13 -303.5)" d="M737.95 330.19v257.96h-71.89l-25.38-8.45-19.03-24.32V359.79l15.86-22.2 28.55-8.46"/><path d="m224.87 128.37-9.56-30.18c-2.44-26-35.39-46.22-75.33-46.22s-72.8 20.21-75.32 46.11l-11.44 30.68a4 4 0 0 0 3.75 5.4h7.66c-.08 2.16.07 8.95 4.47 13.72a14.73 14.73 0 0 0 11.17 4.51h122c5.9 0 9-2.56 10.49-4.7 3.42-4.8 2.1-11.43 1.37-14.06h6.91a4 4 0 0 0 3.22-1.64 4 4 0 0 0 .61-3.62zm-18.83 5.26v.21h-5.54v-.19zm-41.43.15v.06h-16.82zm8 0 19.88-.07v.16h-19.84z" id="path355" style="fill:#fff"/><path class="cls-31" d="M210.07 126.63s1.16 14.53-11.63 14.53H80.32c-12.78 0-11.62-14.53-11.62-14.53" id="path357" style="fill:#fff7d7;stroke:#f7e494;stroke-width:8.01000023px;stroke-linecap:round;stroke-linejoin:round"/><path class="cls-31" d="M210.07 126.63s5 14.53-7.75 14.53h-122c-12.78 0-11.62-14.53-11.62-14.53" id="path359" style="fill:#fff7d7;stroke:#f7e494;stroke-width:8.01000023px;stroke-linecap:round;stroke-linejoin:round"/><path class="cls-31" id="line361" style="fill:#fff7d7;stroke:#f7e494;stroke-width:8.01000023px;stroke-linecap:round;stroke-linejoin:round" d="M112.86 140.38v-23.24"/><path class="cls-31" id="line363" style="fill:#fff7d7;stroke:#f7e494;stroke-width:8.01000023px;stroke-linecap:round;stroke-linejoin:round" d="M140.76 140.38v-23.24"/><path class="cls-31" id="line365" style="fill:#fff7d7;stroke:#f7e494;stroke-width:8.01000023px;stroke-linecap:round;stroke-linejoin:round" d="M168.65 140.38v-23.24"/><path class="cls-31" id="line367" style="fill:#fff7d7;stroke:#f7e494;stroke-width:8.01000023px;stroke-linecap:round;stroke-linejoin:round" d="M196.54 140.38v-23.24"/><path d="M210.07 126.63s1.16 14.53-11.63 14.53H80.32c-12.78 0-11.62-14.53-11.62-14.53" id="path369" style="fill:none;stroke:#f7e494;stroke-width:8.01000023px;stroke-linecap:round;stroke-linejoin:round"/><path class="cls-31" id="line371" style="fill:#fff7d7;stroke:#f7e494;stroke-width:8.01000023px;stroke-linecap:round;stroke-linejoin:round" d="M84.97 140.38v-23.24"/><path class="cls-12" d="m221.08 122.37-9.69-30.61c-1.9-23.95-33.13-43-71.38-43-38.25 0-69.48 19.05-71.38 43L57 122.95z" id="path373" style="fill:#096609"/><path class="cls-12" d="m182.63 122.5 38.45-.13-10.81-31.46c-1.13-13-11.36-24.57-27-32.62h-1.2z" id="path375" style="fill:#096609"/><path class="cls-12" d="m94.39 122.5-38.45-.13 10.82-31.45c1.12-13 11.35-24.57 27-32.62h1.19z" id="path377" style="fill:#096609"/><path class="cls-33" id="line379" style="fill:none;stroke:#043d04;stroke-width:8.01000023px;stroke-linecap:round;stroke-linejoin:round" d="M65.82 103h147.8"/><path class="cls-33" id="line381" style="fill:none;stroke:#043d04;stroke-width:8.01000023px;stroke-linecap:round;stroke-linejoin:round" d="M76.67 102.81v17.43"/><path class="cls-33" id="line383" style="fill:none;stroke:#043d04;stroke-width:8.01000023px;stroke-linecap:round;stroke-linejoin:round" d="M90.61 102.81v17.43"/><path class="cls-33" id="line385" style="fill:none;stroke:#043d04;stroke-width:8.01000023px;stroke-linecap:round;stroke-linejoin:round" d="M104.56 102.81v17.43"/><path class="cls-33" id="line387" style="fill:none;stroke:#043d04;stroke-width:8.01000023px;stroke-linecap:round;stroke-linejoin:round" d="M118.5 102.81v17.43"/><path class="cls-33" id="line389" style="fill:none;stroke:#043d04;stroke-width:8.01000023px;stroke-linecap:round;stroke-linejoin:round" d="M132.45 102.81v17.43"/><path class="cls-33" id="line391" style="fill:none;stroke:#043d04;stroke-width:8.01000023px;stroke-linecap:round;stroke-linejoin:round" d="M146.4 102.81v17.43"/><path class="cls-33" id="line393" style="fill:none;stroke:#043d04;stroke-width:8.01000023px;stroke-linecap:round;stroke-linejoin:round" d="M160.34 102.81v17.43"/><path class="cls-33" id="line395" style="fill:none;stroke:#043d04;stroke-width:8.01000023px;stroke-linecap:round;stroke-linejoin:round" d="M174.29 102.81v17.43"/><path class="cls-33" id="line397" style="fill:none;stroke:#043d04;stroke-width:8.01000023px;stroke-linecap:round;stroke-linejoin:round" d="M188.23 102.81v17.43"/><path class="cls-33" id="line399" style="fill:none;stroke:#043d04;stroke-width:8.01000023px;stroke-linecap:round;stroke-linejoin:round" d="M202.18 102.81v17.43"/><path class="cls-33" id="polyline401" style="fill:none;stroke:#043d04;stroke-width:8.01000023px;stroke-linecap:round;stroke-linejoin:round" transform="translate(-598.13 -303.5)" d="M760.03 354.59v20.47l-22.66 9.44-22.67-9.44v-19.31"/><path class="cls-33" id="polyline403" style="fill:none;stroke:#043d04;stroke-width:8.01000023px;stroke-linecap:round;stroke-linejoin:round" transform="translate(-598.13 -303.5)" d="m714.7 375.06-23.63 12.07-12.79-10.46"/><path class="cls-33" id="polyline405" style="fill:none;stroke:#043d04;stroke-width:8.01000023px;stroke-linecap:round;stroke-linejoin:round" transform="translate(-598.13 -303.5)" d="m760.22 375.64 23.63 12.07 12.79-10.46"/><path class="cls-33" id="line407" style="fill:none;stroke:#043d04;stroke-width:8.01000023px;stroke-linecap:round;stroke-linejoin:round" d="M92.94 83.63V99.9"/><path class="cls-33" id="line409" style="fill:none;stroke:#043d04;stroke-width:8.01000023px;stroke-linecap:round;stroke-linejoin:round" d="M139.24 81v21.22"/><path class="cls-33" id="line411" style="fill:none;stroke:#043d04;stroke-width:8.01000023px;stroke-linecap:round;stroke-linejoin:round" d="M185.72 84.21v13.95"/><path class="cls-33" d="m221.08 122.37-9.69-30.61c-1.9-23.95-33.13-43-71.38-43-38.25 0-69.48 19.05-71.38 43L57 122.95z" id="path413" style="fill:none;stroke:#043d04;stroke-width:8.01000023px;stroke-linecap:round;stroke-linejoin:round"/><circle cx="141.23" cy="220.23" r="36.39" id="circle415" style="fill:#ed8721;stroke:#fff;stroke-width:8.01000023px;stroke-miterlimit:10"/><circle cx="141.23" cy="213.83" r="36.39" id="circle417" style="fill:#ed8721;stroke:#cc6c15;stroke-width:8.01000023px;stroke-miterlimit:10"/><path class="cls-36" id="line419" style="fill:none;stroke:#fff;stroke-width:4px;stroke-miterlimit:10" d="M141.23 258.23v-23.15"/><path class="cls-36" d="M105.71 236.95s37.36-27.76 69.38 0" id="path421" style="fill:none;stroke:#fff;stroke-width:4px;stroke-miterlimit:10"/><path class="cls-36" d="M173.49 190.96s-35.64 27.75-66.18 0" id="path423" style="fill:none;stroke:#fff;stroke-width:4px;stroke-miterlimit:10"/><path class="cls-36" id="line425" style="fill:none;stroke:#fff;stroke-width:4px;stroke-miterlimit:10" d="M140.8 173.43v19.62"/><circle class="cls-37" cx="43.56" cy="270.03" r="34.57" id="circle427" style="fill:#043d04;stroke:#043d04;stroke-width:2.52999997px;stroke-linecap:round;stroke-linejoin:round"/><circle class="cls-37" cx="239.08" cy="270.03" r="34.57" id="circle429" style="fill:#043d04;stroke:#043d04;stroke-width:2.52999997px;stroke-linecap:round;stroke-linejoin:round"/><path class="cls-2" d="M58.87 250.73a2.84 2.84 0 0 0-2.22-1.08H29.87a2.82 2.82 0 0 0-2 .84l-.28.29a2.81 2.81 0 0 0-.83 2v4a2.83 2.83 0 0 0 .83 2l.29.29a2.83 2.83 0 0 0 2 .83h7.78v30.83a2.83 2.83 0 0 0 .83 2l.29.29a2.83 2.83 0 0 0 2 .83h4.23a2.86 2.86 0 0 0 2-.82l.29-.29a2.86 2.86 0 0 0 .84-2v-30.85h7.37a2.85 2.85 0 0 0 1.81-.65l.34-.29a2.73 2.73 0 0 0 .94-1.48l1-4a2.85 2.85 0 0 0-.52-2.47z" id="path431" style="fill:#19ce22"/><path class="cls-2" d="M252.92 268.91a11.53 11.53 0 0 0 2.89-7.86c0-11-9.61-12.59-15.34-12.59h-10.38a2.85 2.85 0 0 0-2 .83l-.28.29a2.83 2.83 0 0 0-.83 2v37.92a2.82 2.82 0 0 0 .84 2l.28.28a2.83 2.83 0 0 0 2 .83h11.41c7.63 0 15.33-4.39 15.33-14.19a12.56 12.56 0 0 0-3.92-9.51zm-7.58-7.57c0 1.14 0 2.87-4.81 2.87h-3.1v-5.71h3.1c4.81 0 4.81 1.45 4.81 2.84zm-7.91 21.24v-8.31h3.44c2.48 0 5.44.73 5.44 4.19 0 2.73-1.83 4.12-5.44 4.12z" id="path433" style="fill:#19ce22"/><path class="cls-1" id="polyline435" style="fill:#ed8721" transform="translate(-598.13 -303.5)" d="M653.21 608.9v48.49l23.05-45.31"/><path class="cls-18" id="polyline437" style="fill:#ffb164" transform="translate(-598.13 -303.5)" d="m676.94 630.07-3.3 32.73 10.6-29.83"/><path class="cls-18" id="polyline439" style="fill:#ffb164" transform="translate(-598.13 -303.5)" d="m716.1 637.45-.59 32.9 8.1-30.61"/><path class="cls-18" id="polyline441" style="fill:#ffb164" transform="translate(-598.13 -303.5)" d="m800.19 630.07 3.3 32.73-10.6-29.83"/><path class="cls-18" id="polyline443" style="fill:#ffb164" transform="translate(-598.13 -303.5)" d="m761.02 637.45.6 32.9-8.11-30.61"/><path class="cls-1" id="line445" style="fill:#ed8721" d="m55.08 353.89 23.05-45.31"/><path class="cls-1" id="polyline447" style="fill:#ed8721" transform="translate(-598.13 -303.5)" d="m693.75 608.9 4.77 48.49 18.28-45.31"/><path class="cls-1" id="polyline449" style="fill:#ed8721" transform="translate(-598.13 -303.5)" d="M824.1 608.9v48.49l-27.82-45.31"/><path class="cls-1" id="polyline451" style="fill:#ed8721" transform="translate(-598.13 -303.5)" d="m760.51 612.08 18.28 45.31 4.77-48.49"/><path class="cls-1" id="polyline453" style="fill:#ed8721" transform="translate(-598.13 -303.5)" d="m729.91 616.06 11.92 59.61 5.57-58.82"/><path class="cls-18" id="polygon455" style="fill:#ffb164" transform="translate(-598.13 -303.5)" d="m640.89 618.24 7.16 3.78-13.91 15.1z"/><path class="cls-18" id="polygon457" style="fill:#ffb164" transform="translate(-598.13 -303.5)" d="m836.81 618.24-7.15 3.78 13.91 15.1z"/></svg>