<svg xmlns="http://www.w3.org/2000/svg" xmlns:xlink="http://www.w3.org/1999/xlink" id="Layer_1" width="109.484" height="285.058" data-name="Layer 1" viewBox="0 0 109.484 285.058"><defs id="defs10509"><linearGradient id="linear-gradient" x1="410.62" x2="410.62" y1="626.69" y2="486.1" gradientTransform="rotate(-7.07 -841.587 1672.147)" gradientUnits="userSpaceOnUse"><stop id="stop10476" offset=".09" stop-color="#795d68" stop-opacity="0"/><stop id="stop10478" offset=".66" stop-color="#795d68"/><stop id="stop10480" offset="1" stop-color="#e46d5c"/></linearGradient><linearGradient id="linear-gradient-2" x1="434.98" x2="434.98" y1="620.17" y2="548.27" gradientTransform="rotate(-7.07 -841.587 1672.147)" gradientUnits="userSpaceOnUse"><stop id="stop10486" offset="0" stop-color="#e46d5c" stop-opacity="0"/><stop id="stop10488" offset=".05" stop-color="#e46d5c" stop-opacity=".11"/><stop id="stop10490" offset=".17" stop-color="#e46d5c" stop-opacity=".34"/><stop id="stop10492" offset=".3" stop-color="#e46d5c" stop-opacity=".54"/><stop id="stop10494" offset=".42" stop-color="#e46d5c" stop-opacity=".71"/><stop id="stop10496" offset=".55" stop-color="#e46d5c" stop-opacity=".84"/><stop id="stop10498" offset=".67" stop-color="#e46d5c" stop-opacity=".93"/><stop id="stop10500" offset=".79" stop-color="#e46d5c" stop-opacity=".98"/><stop id="stop10502" offset=".9" stop-color="#e46d5c"/></linearGradient><linearGradient xlink:href="#linear-gradient-2" id="linear-gradient-3" x1="387.66" x2="387.66" y1="620.17" y2="548.27"/><linearGradient xlink:href="#linear-gradient" id="linear-gradient-4" x1="797.51" x2="1024.01" y1="481.83" y2="481.83" gradientTransform="rotate(-5.03 -356.256 1650.347)"/><linearGradient xlink:href="#linear-gradient-2" id="linear-gradient-5" x1="793.33" x2="793.33" y1="579.34" y2="503.6" gradientTransform="rotate(-5.03 -356.256 1650.347)"/><linearGradient xlink:href="#linear-gradient-2" id="linear-gradient-6" x1="743.49" x2="743.49" y1="579.34" y2="503.6" gradientTransform="rotate(-5.03 -356.256 1650.347)"/><clipPath id="clippath"><circle id="circle10483" cx="258.88" cy="371.01" r="110.31" style="fill:none"/></clipPath><style id="style10474">.cls-13{fill:#003445}.cls-16{fill:#d8d6c5}.cls-17{fill:#007593}</style></defs><g id="g10869" transform="translate(-614.175 -214.632)"><g id="g10867"><path id="path10823" d="m722.96 474.43-15.71-55.93c-.53-1.88-1.6-3.55-3.03-4.82l2.05-12.26c.76-4.56-1.66-9.04-5.89-10.89l-.07-.03 1.95-11.65c.68-4.07-1.17-8.07-4.59-10.21l1.98-11.81c.73-4.36-1.45-8.65-5.35-10.63l2.01-12c.68-4.07-1.17-8.07-4.59-10.21l1.98-11.81c.72-4.3-1.4-8.53-5.19-10.55l1.91-11.41c.76-4.56-1.66-9.04-5.89-10.89l-13.43-5.89.21-7.91a9.78 9.78 0 0 0-3.05-7.34l.31-3.81a9.68 9.68 0 0 0-5.07-9.35l-.35-3.97a9.72 9.72 0 0 0-3.27-6.46l-1.46-1.29-.86-9.79c-.47-5.35-5.21-9.32-10.56-8.85-.22.02-.44.05-.67.08-.23 0-.45.01-.67.03-5.35.47-9.32 5.21-8.85 10.56l.86 9.79-1.22 1.52a9.68 9.68 0 0 0-2.09 6.93l.35 3.97a9.69 9.69 0 0 0-3.36 10.09l.97 3.7a9.74 9.74 0 0 0-1.72 7.76l1.45 7.07-13.39 8.94a10.06 10.06 0 0 0-4.21 10.71l1.74 14.72a10.07 10.07 0 0 0-.83 8.52l2.75 7.73.51 4.31c-2.42 2.7-3.24 6.55-1.98 10.09l4.07 11.46a10.06 10.06 0 0 0-3.41 11.4l4.01 11.29c-2.99 2.7-4.12 6.96-2.74 10.85l3.96 11.13-.06.04c-3.84 2.57-5.45 7.4-3.9 11.75l4.16 11.71c-1.19 1.5-1.95 3.34-2.14 5.28l-5.7 57.82c-.06.62-.06 1.25 0 1.87l.34 3.86c.27 3.11 1.94 5.87 4.56 7.57 2.57 1.66 5.86 2.07 8.77 1.06l9.42-3.26 24.97 4.67 31.68-8.18 6.35-2.33 11.03 1.75c3.03.48 6.21-.5 8.44-2.58 2.29-2.13 3.44-5.14 3.17-8.25l-.34-3.86c-.05-.62-.17-1.24-.34-1.84z" class="cls-16"/><path id="path10825" d="M626.59 491.71c-.59.05-1.19-.09-1.7-.42a2.72 2.72 0 0 1-1.22-2.02l-.34-3.86a4 4 0 0 1 0-.5l5.7-57.81c.08-.84.55-1.58 1.27-2.02l28.14-17.31c.84-.52 1.91-.53 2.77-.03s1.37 1.43 1.33 2.43l-2.75 68.34c-.04 1.1-.76 2.07-1.81 2.43l-30.75 10.65c-.21.07-.43.12-.64.14z" class="cls-13"/><path id="path10827" d="m714.25 483.92-32.14-5.11c-1.09-.17-1.97-1-2.2-2.08l-14.65-66.81c-.21-.97.13-1.98.88-2.62.76-.64 1.81-.82 2.73-.45l30.74 12.13c.78.31 1.37.96 1.6 1.77l15.71 55.93c.05.16.08.32.09.49l.34 3.86c.07.82-.24 1.64-.84 2.2-.44.41-1.01.66-1.6.71-.22.02-.44.01-.66-.02" class="cls-13"/><g id="g10865"><path id="polyline10829" d="m642.14 278.68-1.01-11.47 1.36-2.16-.95-10.84 3.37-3.65-.62-7.01 4.74-7.52 3.47 4.43 1.28 11.34 4.41 3.74v8.01l2.97 3.11-.45 9.36" class="cls-16"/><path id="polygon10831" d="m690.59 417.79-18.92-134.65-22.14-9.73-27.79 20.99 15.15 128.12-8.5 63.22 34.32 6.42 29.74-7.68 18.17-6.65z" class="cls-13"/><path id="polygon10833" d="m715.08 480.89-.34-3.86-15.71-55.93-30.73-12.13 14.64 66.81z" style="fill:url(#linear-gradient-5)"/><path id="polygon10835" d="m625.28 488.8-.34-3.87 5.7-57.81 28.15-17.31-2.75 68.34z" style="fill:url(#linear-gradient-6)"/><g id="g10861"><path id="polygon10837" d="m634.83 400.77-6.43-18.29 5.52-4.67-6.37-19.43 3.78-3.85-4.93-17.73 5.61-5.21-6.76-16.65 6.5-5.46-8.97-18.21 18.68-9.39 8.45 133.38-14.65 10.69-7.11-19.51z" class="cls-17"/><path id="polygon10839" d="m688.82 396.01 3.14-19.13-6.26-3.63 2.89-20.25-4.4-3.12 1.76-18.32-6.44-4.15 3.75-17.58-7.35-4.23 5.64-19.51-20.02-5.98 14.97 132.81 16.3 7.97 3.59-20.46z" class="cls-17"/><path id="polygon10841" d="m678.56 396.92.24-18.88-2.69-3.95.08-20-1.92-3.34-.27-18.14-2.79-4.47.57-17.3-3.16-4.6 1.22-19.12-8.31-7.01 12.53 127.64 6.93 8.79.83-14.83z" style="fill:#e46d5c"/><path id="path10843" d="m625.56 406.67 6.27 17.65a2.7 2.7 0 0 0 2.77 1.78c.22-.02.45-.07.67-.15a2.68 2.68 0 0 0 1.63-3.43l-5.57-15.68 24.43-16.32 10.67-.94 26.91 11.8-2.75 16.41c-.25 1.46.74 2.85 2.21 3.09 1.46.25 2.85-.74 3.09-2.21l3.09-18.48a2.68 2.68 0 0 0-1.57-2.9l-5.34-2.34 2.9-17.33a2.68 2.68 0 0 0-1.57-2.9l-3.95-1.73 2.91-17.38a2.68 2.68 0 0 0-1.57-2.9l-4.73-2.07 2.96-17.65a2.68 2.68 0 0 0-1.57-2.9l-3.95-1.73 2.91-17.38a2.68 2.68 0 0 0-1.57-2.9l-4.57-2 2.86-17.06a2.68 2.68 0 0 0-1.57-2.9l-17.98-7.88.34-12.88a2.37 2.37 0 0 0-1.32-2.18l-2.08-1.01.68-8.36c.08-1.02-.51-1.98-1.46-2.37l-3.21-1.3-.74-8.4c-.05-.6-.34-1.16-.79-1.56l-3.68-3.24-1.12-12.73a2.355 2.355 0 0 0-2.55-2.14c-.23.02-.45.08-.66.17-.22-.05-.44-.07-.68-.05a2.355 2.355 0 0 0-2.14 2.55l1.12 12.73-3.06 3.83c-.38.47-.56 1.07-.5 1.67l.74 8.4-2.94 1.85c-.87.55-1.28 1.59-1.02 2.59l2.13 8.11-1.87 1.36a2.33 2.33 0 0 0-.92 2.37l2.45 11.94-17.52 11.7a2.69 2.69 0 0 0-1.04 3.13l5.79 16.29-4.15 2.77a2.69 2.69 0 0 0-1.04 3.13l5.9 16.61-3.59 2.4a2.69 2.69 0 0 0-1.04 3.13l5.99 16.87-4.29 2.87a2.69 2.69 0 0 0-1.04 3.13l5.9 16.61-3.59 2.4a2.69 2.69 0 0 0-1.04 3.13l5.88 16.55-4.85 3.24a2.69 2.69 0 0 0-1.04 3.13zm33.37-130.5-6.83-2.99c-.84-.37-1.81-.28-2.57.23l-5 3.34-1.76-8.58 1.94-1.41a2.35 2.35 0 0 0 .89-2.5l-2.1-8 2.69-1.69c.75-.47 1.17-1.32 1.09-2.2l-.78-8.9 2.13-2.66 2.56 2.25.78 8.9c.08.88.64 1.64 1.46 1.97l2.95 1.2-.67 8.24c-.08.97.44 1.88 1.31 2.3l2.16 1.05zm16.26 27.66-19.81-8.69c-.41-.18-.86-.26-1.31-.22l-2.68.24c-.45.04-.88.19-1.26.44l-17.99 12.02-4.64-13.04 23.78-15.88 26.19 11.48-2.29 13.65zm3.23 22.29-20.43-8.96c-.41-.18-.86-.26-1.31-.22l-4.01.35c-.45.04-.88.19-1.26.44l-18.55 12.39-4.75-13.36 24.43-16.32 1.31-.12 26.91 11.8-2.34 13.98zm2.57 22.29-19.65-8.62c-.41-.18-.86-.26-1.31-.22l-6.69.59c-.45.04-.88.19-1.26.44l-17.85 11.92-4.84-13.62 24.43-16.32 2.64-.23 26.91 11.8-2.39 14.25zm3.39 22.36-20.43-8.96c-.41-.18-.86-.26-1.31-.22l-8.03.71c-.45.04-.88.19-1.26.44l-18.55 12.39-4.75-13.36 24.43-16.32 5.32-.47 26.91 11.8-2.34 13.98zm-31.04 14.9-17.29 11.55-4.73-13.3 24.43-16.32 6.66-.59 26.91 11.8-2.33 13.92-19.04-8.35c-.41-.18-.86-.26-1.31-.22l-12.04 1.06c-.45.04-.88.19-1.26.44z" class="cls-13"/><path id="path10845" d="M713.84 483.7c-.22.02-.44.01-.66-.02l-32.14-5.11c-1.09-.17-1.97-1-2.2-2.08l-14.65-66.81c-.21-.97.13-1.98.88-2.62.76-.64 1.81-.82 2.73-.45l30.74 12.13c.78.31 1.37.96 1.6 1.77l15.71 55.93c.05.16.08.32.09.49l.34 3.86c.07.82-.24 1.64-.84 2.2-.44.41-1.01.66-1.6.71m-30.15-10.15 26.93 4.28-.02-.18-15.28-54.4-24.81-9.79 13.17 60.1z" class="cls-13"/><path id="path10847" d="M625.52 491.47c-.59.05-1.19-.09-1.7-.42a2.72 2.72 0 0 1-1.22-2.02l-.34-3.86a4 4 0 0 1 0-.5l5.7-57.81c.08-.84.55-1.58 1.27-2.02l28.14-17.31c.84-.52 1.91-.53 2.77-.03s1.37 1.43 1.33 2.43l-2.75 68.34c-.04 1.1-.76 2.07-1.81 2.43l-30.75 10.65c-.21.07-.43.12-.64.14zm2.12-6.52.02.18 25.77-8.92 2.47-61.47-22.71 13.97-5.54 56.24z" class="cls-13"/><g id="g10853"><ellipse id="ellipse10849" cx="642.45" cy="440.03" class="cls-16" rx="6.97" ry="5.23" transform="rotate(-80.18 642.464 440.027)"/><path id="path10851" d="M642.48 449.25c-.54.05-1.08.03-1.62-.07-2.08-.36-3.89-1.77-4.97-3.88-.98-1.91-1.29-4.24-.89-6.57s1.48-4.42 3.05-5.89c1.72-1.62 3.9-2.34 5.98-1.98s3.89 1.77 4.97 3.88c.98 1.91 1.29 4.24.89 6.57s-1.48 4.42-3.05 5.89c-1.27 1.2-2.8 1.91-4.36 2.05m.33-13.82c-.68.06-1.25.5-1.57.8-.82.77-1.42 1.98-1.65 3.3s-.07 2.66.45 3.67c.24.46.76 1.26 1.62 1.41s1.62-.43 2-.78c.82-.77 1.42-1.98 1.65-3.3s.07-2.66-.45-3.67c-.24-.46-.76-1.26-1.62-1.41a1.6 1.6 0 0 0-.43-.02" class="cls-13"/></g><g id="g10859"><ellipse id="ellipse10855" cx="688.18" cy="436" class="cls-16" rx="5.23" ry="6.97" transform="rotate(-19.88 688.212 436)"/><path id="path10857" d="M689.76 445.09c-1.56.14-3.19-.29-4.65-1.25-1.79-1.18-3.22-3.05-4.03-5.27-.8-2.22-.9-4.57-.27-6.63.69-2.26 2.23-3.96 4.21-4.68 1.99-.72 4.26-.39 6.23.9 1.79 1.18 3.22 3.05 4.03 5.27.8 2.22.9 4.57.27 6.63-.69 2.26-2.23 3.96-4.21 4.68-.51.19-1.04.3-1.58.35m-2.74-13.55q-.21.015-.42.09c-.82.3-1.2 1.17-1.35 1.67-.33 1.08-.26 2.42.2 3.69.46 1.26 1.26 2.34 2.21 2.96.43.28 1.29.72 2.11.42s1.2-1.17 1.35-1.67c.33-1.08.26-2.42-.2-3.69-.46-1.26-1.26-2.34-2.21-2.96-.36-.24-1.01-.57-1.68-.51z" class="cls-13"/></g></g><path id="path10863" d="m648.49 275.86.92-16.68c.05-.98 1.45-1.1 1.67-.15l4.1 17.47" class="cls-13"/></g></g></g></svg>