<svg xmlns="http://www.w3.org/2000/svg" id="Layer_1" data-name="Layer 1" version="1.1" width="228" height="307.04"><defs id="defs7"><clipPath id="clip-path"><ellipse cx="498.65" cy="366.22" rx="111.17" ry="136.39" id="ellipse4" style="fill:none"/></clipPath><style id="style2">.cls-40,.cls-45{fill:none}.cls-43,.cls-45{stroke:#cc761f}.cls-40,.cls-43,.cls-45{stroke-miterlimit:10}.cls-43{fill:#ea9e42}.cls-9{fill:#f9b973}.cls-40{stroke:#efac14;stroke-width:5.59px}.cls-43,.cls-45{stroke-width:4.77px}</style></defs><ellipse cx="114" cy="136.09" rx="111.38" ry="133.47" id="ellipse503" style="fill:#f9b973;stroke:#cc761f;stroke-width:5.23999977px;stroke-miterlimit:10"/><ellipse cx="114" cy="136.09" rx="97.4" ry="119.49" id="ellipse505" style="fill:#8bbfd1"/><path class="cls-40" id="line507" style="fill:none;stroke:#efac14;stroke-width:5.59000015px;stroke-miterlimit:10" d="m72.92 63.69 133.13 58.79"/><path class="cls-40" id="line509" style="fill:none;stroke:#efac14;stroke-width:5.59000015px;stroke-miterlimit:10" d="M63.66 63.69v70.53"/><path class="cls-40" id="line511" style="fill:none;stroke:#efac14;stroke-width:5.59000015px;stroke-miterlimit:10" d="M80.69 56.51h102.29"/><circle cx="63.66" cy="56.51" r="17.04" id="circle513" style="fill:#efac14"/><path class="cls-40" id="line515" style="fill:none;stroke:#efac14;stroke-width:5.59000015px;stroke-miterlimit:10" d="M57.07 65.55 21.3 136.09"/><path class="cls-40" id="line517" style="fill:none;stroke:#efac14;stroke-width:5.59000015px;stroke-miterlimit:10" d="m66.64 69.97 45.13 66.49"/><path class="cls-40" id="line519" style="fill:none;stroke:#efac14;stroke-width:5.59000015px;stroke-miterlimit:10" d="m65.52 51.55 77.26-29.06"/><path d="M17.33 133.87c5.87 75.82 47 121.71 96.67 121.71s90.81-45.89 96.68-121.71z" id="path521" style="fill:#5da3c1"/><path class="cls-9" d="M210.54 151.76c-70.41 7.35-117.22 49-117.22 49L24.8 184.13c15.1 42 49.39 71.46 89.17 71.46 49.42-.01 90.34-45.35 96.57-103.83z" id="path523" style="fill:#f9b973"/><rect x="100.53" y="53.16" width="27" height="41.48" rx="13.42" id="rect525" style="fill:#fff;stroke:#cc761f;stroke-width:4.76999998px;stroke-miterlimit:10"/><ellipse cx="113.9" cy="69.91" rx="9.34" ry="9.49" id="ellipse527" style="fill:#fc7e15"/><path d="M100.54 65.55h26.9a13.45 13.45 0 0 0-13.37-12.39h-.16a13.45 13.45 0 0 0-13.37 12.39z" id="path529" style="fill:#b29e6d;stroke:#7c6a41;stroke-width:5.19999981px;stroke-miterlimit:10"/><path class="cls-43" id="polygon531" style="fill:#ea9e42;stroke:#cc761f;stroke-width:4.76999998px;stroke-miterlimit:10" transform="translate(-144.46 -765.24)" d="m251.44 852.56-10.56 4.65-13.34 141.8 20.8-1.37 10.61.49 10.62-.49 18.57-12.11-11.11-128.32-10.56-4.65z"/><path class="cls-9" id="polyline533" style="fill:#f9b973" transform="translate(-144.46 -765.24)" d="m251.44 859.04-1.55 132.82-22.35 7.15 13.34-141.8 8.06-3.3"/><path id="polyline535" style="fill:#d88a35" transform="translate(-144.46 -765.24)" d="m265.38 855.28 4.19 130.45 18.57-.2-11.11-128.32"/><path class="cls-45" id="polygon537" style="fill:none;stroke:#cc761f;stroke-width:4.76999998px;stroke-miterlimit:10" transform="translate(-144.46 -765.24)" d="m251.44 863.81-10.56 4.64-13.34 130.56 20.8-1.37v.99l10.61-.5 10.62.5v-.99l18.57-.86-11.11-128.33-10.56-4.64z"/><path class="cls-43" id="line539" style="fill:#ea9e42;stroke:#cc761f;stroke-width:4.76999998px;stroke-miterlimit:10" d="m106.98 87.32-3.1 146.07"/><path class="cls-43" id="line541" style="fill:#ea9e42;stroke:#cc761f;stroke-width:4.76999998px;stroke-miterlimit:10" d="m122.01 87.32 3.1 146.07"/><path class="cls-45" id="polygon543" style="fill:none;stroke:#cc761f;stroke-width:4.76999998px;stroke-miterlimit:10" transform="translate(-144.46 -765.24)" d="m251.44 849.21-10.56 4.64-13.34 141.81 20.8-1.37 10.61.49 10.62-.49 18.57-12.11-11.11-128.33-10.56-4.64z"/><path class="cls-45" id="polygon545" style="fill:none;stroke:#cc761f;stroke-width:4.76999998px;stroke-miterlimit:10" transform="translate(-144.46 -765.24)" d="m251.44 852.56-10.56 4.65-13.34 141.8 20.8-1.37 10.61.49 10.62-.49 18.57-12.11-11.11-128.32-10.56-4.65z"/><path d="M61.23 232.47s45.87-44.05 131.31-23.71c0 0-28.17 43.15-78.5 45.42-50.33 2.27-52.81-21.71-52.81-21.71z" id="path547" style="fill:#ea9e42"/><path d="M114 260.27c-56.29 0-102.09-55.71-102.09-124.18S57.71 11.91 114 11.91c56.29 0 102.09 55.71 102.09 124.18S170.3 260.27 114 260.27zm0-239c-51.11 0-92.7 51.49-92.7 114.79 0 63.3 41.59 114.79 92.7 114.79s92.7-51.49 92.7-114.79c0-63.3-41.58-114.76-92.7-114.76z" id="path549" style="fill:#cc761f"/><rect x="88.16" y="239.47" width="54.24" height="63.41" rx="12.48" id="rect551" style="fill:#efac14;stroke:#cc761f;stroke-width:8.31999969px;stroke-miterlimit:10"/><g id="_9qhwKn" data-name="9qhwKn" transform="translate(-144.46 -765.24)"><path d="M261.36 1025.66h4.75a.44.44 0 0 0 .4-.19 2.12 2.12 0 1 1 0 2.61.49.49 0 0 0-.32-.19h-4.71v.36q.22 8.85.43 17.7a4.8 4.8 0 0 0 .38 1.83 3 3 0 0 0 2.13 1.83 6.63 6.63 0 0 0 5.91-1.25 9.51 9.51 0 0 0 2-2.31c.16-.24.31-.49.5-.79a12.73 12.73 0 0 0-2.63.46 15.33 15.33 0 0 1 4.68-7.19c1.2 1.25 2.53 6.61 2.09 8.38l-2-1.34c-.25.79-.45 1.53-.72 2.25a11.29 11.29 0 0 1-5.79 6.28c-1.14.56-2.28 1.11-3.47 1.56a10.25 10.25 0 0 0-5.2 4.23l-.11-.13a9.83 9.83 0 0 0-4.85-4 27.81 27.81 0 0 1-5.41-2.68 10.73 10.73 0 0 1-4-5c-.33-.79-.57-1.62-.87-2.5l-2 1.37a16.31 16.31 0 0 1 2.07-8.48 15.37 15.37 0 0 1 4.74 7.21l-2.55-.47-.05.09c.25.38.48.77.74 1.14a7.46 7.46 0 0 0 3.46 2.94 6.81 6.81 0 0 0 4.16.23 3.2 3.2 0 0 0 2.42-2.73 6.78 6.78 0 0 0 .1-1q.18-7.19.34-14.37l.09-3.3v-.31h-4.63a.43.43 0 0 0-.4.19 2.12 2.12 0 1 1 0-2.61c.07.08.18.19.27.19h4.79a1.2 1.2 0 0 0 0-.24c0-.84 0-1.68.06-2.52a.3.3 0 0 0-.22-.35 5 5 0 1 1 6.78-4.46 4.82 4.82 0 0 1-3.15 4.45.33.33 0 0 0-.23.35c.02.9.02 1.81.02 2.76zm-1.6-10.4a2.66 2.66 0 1 0 2.67 2.67 2.66 2.66 0 0 0-2.67-2.67z" id="path553" style="fill:#594330;stroke:#594330;stroke-width:1.03999996px;stroke-miterlimit:10"/></g></svg>