<svg xmlns="http://www.w3.org/2000/svg" id="Layer_1" data-name="Layer 1" version="1.1" width="229.12" height="229.377"><defs id="defs4"><style id="style2">.cls-2{fill:#c6af6f}.cls-6,.cls-7{fill:#fff}.cls-10,.cls-7{stroke-miterlimit:10}.cls-5{fill:#9e813b}.cls-10,.cls-7{stroke:#fff}.cls-7{stroke-width:1.58px}.cls-10{fill:none;stroke-width:4.6px}</style></defs><circle cx="114.56" cy="114.56" r="114.56" id="circle128" style="fill:#223266"/><path class="cls-6" d="M92.99 227.61a115.63 115.63 0 0 0 41-.13L122.66 48.99l-9-12.49-8 13z" id="path130" style="fill:#fff"/><path class="cls-6" id="line132" style="fill:#fff" d="m143.29 126.98-3.78-107.1"/><path class="cls-7" d="m76.13 132.4-10.19 37.79h-4.56l-9.48-34.77-9.48 34.77h-4.68L27.56 132.4h-5.39v-3.67h15.46v3.67h-5.57L40 164.74l9.83-36h4.14l9.84 36 7.93-32.34h-5.57v-3.67h15.32v3.67z" id="path134" style="fill:#fff;stroke:#fff;stroke-width:1.58000004px;stroke-miterlimit:10"/><path class="cls-7" d="M193.23 99.93h5.92v3.67h-16.66v-3.67h6.64V68.48l-13.15 29.73h-3.89l-13.15-29.73v31.45h6.63v3.67h-16.58v-3.67h5.92V65.81h-5.92v-3.68h11.25l13.8 30.92 13.86-30.92h11.25v3.67h-5.92z" id="path136" style="fill:#fff;stroke:#fff;stroke-width:1.58000004px;stroke-miterlimit:10"/><circle class="cls-2" cx="92.13" cy="76.42" r="24.98" id="circle192" style="fill:#c6af6f"/><path class="cls-10" id="line194" style="fill:none;stroke:#fff;stroke-width:4.5999999px;stroke-miterlimit:10" d="M104.49 77.8H80.75"/><path class="cls-10" id="line196" style="fill:none;stroke:#fff;stroke-width:4.5999999px;stroke-miterlimit:10" d="M92.46 51.27v50.1"/><path class="cls-6" d="M111.8 91.79a25 25 0 0 0 .24-30.45c-9.62 10.51-4.26 23.62-.24 30.45z" id="path198" style="fill:#fff"/><path class="cls-5" d="M109.96 58.94c-3.09 4-12.18 18.13-.06 35a25.1 25.1 0 0 0 3-3.71c-8.7-13.09-2.85-23.76 0-27.66a24.73 24.73 0 0 0-2.94-3.63z" id="path200" style="fill:#9e813b"/><path class="cls-5" d="M74.29 58.94c3.09 4 12.18 18.13.06 35a25.1 25.1 0 0 1-3-3.71c8.7-13.09 2.85-23.76 0-27.66a24.73 24.73 0 0 1 2.94-3.63z" id="path202" style="fill:#9e813b"/><path id="line204" style="fill:none;stroke:#9e813b;stroke-width:4.5999999px;stroke-miterlimit:10" d="M78.29 77.26H67.15"/><path class="cls-6" d="m185.55 164.96-.76-.56q-2.7-2-5.43-4a.65.65 0 0 1-.28-.88c.75-2.27 1.48-4.56 2.21-6.84l.12-.41c-.17 0-.25.09-.34.15-2 1.45-4 2.89-6 4.35a.47.47 0 0 1-.66 0l-6-4.29-.48-.34c.2.62.36 1.14.52 1.65.63 1.94 1.25 3.89 1.89 5.82a.53.53 0 0 1-.23.71c-2 1.45-4 2.91-5.94 4.37-.11.08-.26.12-.32.34h7.85a.47.47 0 0 1 .54.39q1.13 3.51 2.27 7c.05.14.05.31.24.44.38-1.17.76-2.32 1.13-3.47.44-1.33.88-2.66 1.29-4 .09-.31.25-.38.54-.38h7.43c.11.04.26.12.41-.05z" id="path234" style="fill:#fff"/><path class="cls-6" d="m202.9 131.95-.76.56-5.44 4a.65.65 0 0 0-.28.88c.76 2.27 1.48 4.56 2.21 6.84 0 .13.08.27.13.41-.18 0-.26-.08-.35-.15-2-1.45-4-2.89-6-4.35a.47.47 0 0 0-.66 0c-2 1.44-4 2.86-6 4.29l-.47.34.51-1.65c.63-1.94 1.25-3.88 1.89-5.82a.53.53 0 0 0-.22-.71q-3-2.18-5.95-4.37c-.11-.08-.26-.12-.32-.34h7.83a.46.46 0 0 0 .54-.39c.75-2.34 1.51-4.67 2.27-7 .05-.14.05-.31.24-.43.38 1.16.76 2.31 1.13 3.46.44 1.33.88 2.66 1.29 4a.47.47 0 0 0 .55.38h7.42a.53.53 0 0 1 .44.05z" id="path236" style="fill:#fff"/><path class="cls-6" d="m169.9 131.95-.76.56-5.44 4a.65.65 0 0 0-.28.88c.76 2.27 1.48 4.56 2.21 6.84 0 .13.08.27.13.41-.18 0-.26-.08-.35-.15-2-1.45-4-2.89-6-4.35a.47.47 0 0 0-.66 0c-2 1.44-4 2.86-6 4.29l-.47.34.51-1.65c.63-1.94 1.25-3.88 1.89-5.82a.53.53 0 0 0-.22-.71q-3-2.18-5.95-4.37c-.11-.08-.26-.12-.32-.34h7.83a.46.46 0 0 0 .54-.39c.75-2.34 1.51-4.67 2.27-7 .05-.14.05-.31.24-.43.38 1.16.76 2.31 1.13 3.46.44 1.33.88 2.66 1.29 4a.47.47 0 0 0 .55.38h7.42a.53.53 0 0 1 .44.05z" id="path238" style="fill:#fff"/></svg>