<svg xmlns="http://www.w3.org/2000/svg" id="Layer_1" width="315.64" height="350.585" data-name="Layer 1" viewBox="0 0 315.64 350.585"><defs id="defs4"><style id="style2">.cls-1{fill:#f60a00}.cls-2{fill:#cba45a}.cls-3{fill:#fff}.cls-4{fill:#0e1a31}</style></defs><g id="g324" transform="translate(-582.67 -194.825)"><path id="path272" d="M582.67 255h311.98l3.66-20.81C663.72 134.78 582.67 255 582.67 255" class="cls-3"/><path id="path274" d="M750.76 204.21h-24.2C610.79 213.6 582.67 255 582.67 255l11.64 79.31c10.99 74.9 53.54 144.05 120.18 194.37 12.48 9.42 21.46 14.93 23.86 16.35v.38s.1-.07.31-.19l.33.19v-.38c2.38-1.43 11.36-6.93 23.84-16.35 66.64-50.31 109.19-119.47 120.18-194.37L894.65 255s-28.12-41.41-143.89-50.79" class="cls-4"/><path id="path276" d="M762.83 528.68c66.64-50.31 109.19-119.47 120.18-194.37L894.65 255s-5.97-8.79-23.72-19.18c-2.99 26.23-10.73 89.46-20.17 129.69 0 0-4.53 70.9-110.85 178.96 3.33-2.03 11.71-7.33 22.91-15.78z" class="cls-2"/><path id="path278" d="m863.25 370.3 21-125.47-6.8-4.94c-1.97-1.32-4.14-2.68-6.52-4.08-2.99 26.23-10.73 89.46-20.17 129.69 0 0-4.53 70.9-110.85 178.96 57.31-40.1 98.87-115.4 114.39-146.63a98.2 98.2 0 0 0 8.94-27.53z" class="cls-3"/><path id="path280" d="M891.84 251.69c-9.48-10-45.26-39.71-141.08-47.48h-24.2C610.79 213.6 582.67 255 582.67 255l3.81 25.94c28.7-18.76 128.71-73.47 272.45-36.08 12.82 3.33 23.72 5.56 32.92 6.83z" class="cls-2"/><g id="g308"><g id="g286"><path id="path282" d="M726.08 509.62c-11.99-10.45-24.51-13.56-30.92-14.49a5.77 5.77 0 0 1-4.02-2.57 5.9 5.9 0 0 1-.89-4.01c-9.7 1.11-17.33 6.71-21.1 10.03a8.56 8.56 0 0 1-5.68 2.15c-1.76 0-3.45-.54-4.89-1.55-4.35-3.07-7.93-7.1-10.17-9.94a8.295 8.295 0 0 1-.5-9.53l2.03-3.24-.13-.13c-1.95-1.92-3.1-4.49-3.25-7.22l-.19-3.69-5.33.29c-.13 0-.25.01-.38.01-2.03 0-3.95-.89-5.26-2.45a6.81 6.81 0 0 1-1.52-5.53c1.26-7.42 4.58-15.62 7.15-21.18.72-1.56.41-3.38-.79-4.63l-5.37-5.62c-2.01-2.11-2.3-5.28-.68-7.71 9.3-14.03 17.65-27.88 21.79-34.88 1.98-3.35 3.2-7.01 3.61-10.88l1.22-11.47.02-.1c.66-3.86 3.99-6.79 7.9-6.97l4.61-.21c8.22-4.21 14.97-5.05 18.25-5.18l16.05-21.55 20.72 21.67c23.1 6.1 29.07 31.04 32.66 46.02.4 1.69.78 3.26 1.15 4.67 3.14 11.99 17.92 16.92 18.07 16.96l2.62.85-.49 2.72c-.6 3.33-1.92 6.05-3.27 8.1l15.94 3.22c2.27.46 3.98 2.24 4.35 4.53.37 2.28-.69 4.5-2.69 5.65-53.2 30.45-65.43 66.09-65.55 66.44l-1.49 4.52-3.59-3.12z" class="cls-4"/><path id="path284" d="m707.94 332.26 18.77 19.63c24.5 5.83 28.78 34.78 32.41 48.65s20.15 19.17 20.15 19.17c-1.25 6.87-6.04 10.7-6.04 10.7l21.2 4.28c2.12.43 2.6 3.27.72 4.34-55.08 31.52-66.98 68.2-66.98 68.2-12.79-11.15-26.29-14.33-32.54-15.23-1.61-.23-2.59-1.83-2.15-3.4.87-3.09-1.45-3.31-2.14-3.31h-.19c-11.12.84-19.85 7.2-24.07 10.92-1.02.9-2.31 1.36-3.6 1.36a5.3 5.3 0 0 1-3.07-.97c-4.08-2.88-7.45-6.7-9.5-9.31a5.13 5.13 0 0 1-.31-5.9l2.57-4.1c.47-.75.36-1.74-.28-2.36l-.86-.84a7.8 7.8 0 0 1-2.31-5.14l-.36-6.85-8.49.46h-.21c-2.26 0-4.05-2.03-3.66-4.29 1.23-7.27 4.64-15.47 6.9-20.39 1.26-2.73.71-5.96-1.37-8.13l-5.37-5.62a3.05 3.05 0 0 1-.33-3.79c9.23-13.93 17.48-27.59 21.88-35.01 2.2-3.72 3.57-7.86 4.03-12.16l1.21-11.37a5.24 5.24 0 0 1 4.93-4.35l5.3-.24c9.03-4.77 16.26-5.16 18.37-5.16.41 0 .63.01.63.01l14.76-19.82m-.6-9.74-4.46 6-12.94 17.38c-3.8.32-10.05 1.45-17.41 5.11l-3.93.18c-5.38.25-9.95 4.28-10.87 9.59l-.03.2-.02.2-1.21 11.37c-.36 3.42-1.44 6.66-3.19 9.61-4.13 6.98-12.45 20.77-21.71 34.75-2.43 3.67-2.01 8.46 1.03 11.64l5.37 5.62c.29.3.37.76.2 1.12-2.65 5.74-6.08 14.21-7.39 21.98-.49 2.89.32 5.84 2.22 8.09 1.91 2.27 4.71 3.57 7.67 3.57.18 0 .37 0 .55-.01l2.17-.12.03.53c.14 2.72 1.06 5.3 2.62 7.48l-.79 1.26c-2.57 4.09-2.29 9.37.69 13.16 2.36 3 6.16 7.27 10.83 10.57 1.97 1.39 4.29 2.13 6.71 2.13 2.86 0 5.62-1.04 7.77-2.94 3.07-2.71 8.9-7.05 16.26-8.73a8.93 8.93 0 0 0 7.2 6.03c6.06.87 17.91 3.82 29.29 13.74l7.21 6.28 2.95-9.1c.02-.06 2.99-8.76 12.32-21.01 8.63-11.33 24.62-28.1 51.8-43.66 3.16-1.81 4.82-5.3 4.24-8.9s-3.27-6.4-6.85-7.12l-11.77-2.38c.67-1.57 1.23-3.33 1.59-5.28l.99-5.45-5.28-1.69c-.11-.04-13.28-4.48-15.97-14.75-.36-1.37-.73-2.94-1.13-4.61-1.81-7.56-4.29-17.92-9.31-27.13-5.94-10.9-14.26-17.94-24.74-20.97l-17.54-18.34Z" class="cls-2"/></g><path id="path288" d="M662.92 483.95c-.27-.22-.56-.47-.86-.73a3.79 3.79 0 0 1-.33-5.37l2.42-2.7c.68-.75.66-1.9-.04-2.63l-3.74-3.91c-.73-.77-.27-2.04.78-2.16 1.31-.15 2.96-.31 4.58-.39.95-.05 1.27-1.32.44-1.8-1.18-.69-2.74-1.32-4.52-1.36-3.94-.09-4.88-2.08-3.85-4.03l3-1.9c3-1.9 1.1-4.9.15-6.89s-2.06 3.89-2.06 3.89l-11.27.61a.934.934 0 0 1-.9-1.33l8.84-19.15c.46-.99 1.75-1.26 2.55-.52.97.89 2.24 2.26 3.55 4.22.35.53.97.81 1.6.76 1.18-.1 3.1-.3 4.58-.68.61-.16.81-.92.38-1.37-.95-1-.6-2.64.68-3.16l11.25-4.52-3.31-2.89a5.73 5.73 0 0 0-5.61-1.1l-15.74 5.4-1.38-1.93c-.76-1.06-.3-2.57.93-3.01 3.87-1.4 11.89-3.95 20.37-4.47 11.84-.72 17.66 3.35 19.52 8.32 1.72 4.61-5.95 12.39-14.24 18.06-1.19.82-1.9 2.16-1.89 3.61.04 3.79-.2 11.39-2.46 16.34l9.18-8.77c.23-.22.6.02.49.31l-4.28 12.57a13.55 13.55 0 0 1-5.96 7.31c-2.8 1.64-6.37 3.8-8.75 5.51-1.24.89-2.92.83-4.1-.14" class="cls-3"/><path id="path290" d="M724.55 448.05s4.33 26.7 7.08 35.63l10.18-14.55z" class="cls-2"/><path id="path292" d="m740.51 439.54 1.55 6.86c1.16 5.13 4.14 9.66 8.39 12.75l.44.32s7.11-9.69 19.02-13.37l-10.68-7.14s-14.84 2.62-18.73.57z" class="cls-2"/><path id="path294" d="M687.54 472.83s4.36-.99 7.81-1.47a5.7 5.7 0 0 0 4.44-3.4c3.5-8.14 12.65-30.35 15.43-46.38 0 0-5.81-1.46-9.71-3.51 0 0-5.59 29.43-17.98 54.77z" class="cls-3"/><path id="path296" d="M648.93 420.09s21.31-10.7 45.84-6.21l2.06-3.89s-18.21-6.32-40.19-.9c0 0-5.06 7.46-7.71 11.01z" class="cls-2"/><path id="path298" d="M660.58 401.29s22.72-2.45 37.35 3.79c0 0 2.23-11.77 12.24-18.45l6.26-4.18c2.23-1.49 2.98-4.45 1.67-6.79-1.02-1.84-2.32-3.78-3.64-4.7 0 0 15.82-2.6 22.41 11.34 0 0 6.76 25.45 10.81 33.09 0 0 3.1 5.63 7.98 7.72 0 0-7.1 3.46-27.06-3.58-1.55-.55-3.26.22-3.86 1.76l-.82 2.1s25.66 11.41 41.61.93c0 0-9.8-4.16-18.29-21.1l-6.41-21.82s-3.56-16.83-21.29-17.23l-19.7 1.43c-.63.05-1.24-.24-1.61-.76a3.68 3.68 0 0 0-4.06-1.4l-17.03 5.08a3.826 3.826 0 0 0-2.69 4.23c.44 2.89 1.02 7.23 1.19 11.13.05 1.06-1.24 1.6-1.97.84l-.9-.94c-.94-.98-2.55-.75-3.19.44l-9 17.04z" class="cls-2"/><path id="path300" d="M708.59 413.21s-.76-9.87 9.19-14.57c0 0 2.7 5.45-2.4 16.43 0 0 5.92 2.37 8.09-6.45s-3.59-15.84-3.48-20.77c0 0-5.03 4.81-9.04 7.68s-10.13 12.58-2.37 17.68z" class="cls-3"/><path id="path302" d="M698.22 364.86a3.68 3.68 0 0 0-4.06-1.4l-17.03 5.08a3.826 3.826 0 0 0-2.69 4.23c.44 2.89 1.02 7.23 1.19 11.13.05 1.06-1.24 1.6-1.97.84l-.9-.94c-.94-.98-2.55-.75-3.19.44l-5.8 10.98c6.8-.49 15.84-.4 25.46 1.76 0 0-5.78-16.29 10.59-31.36-.63.05-1.24-.24-1.61-.76z" class="cls-3"/><path id="path304" d="M694.93 429.16c-1.86-4.97-7.68-9.04-19.52-8.32-1.37.08-2.72.22-4.05.4l5.18 4.47c.1.08.2.14.3.23l3.31 2.89s7.79-2.87 9.42.21c1.63 3.09-12.48 12.86-16.4 15.89 0 0 2.19 11.09-1.5 23.89 0 0 1.71.8 5.23-3.08 1.73-4.89 1.93-11.47 1.89-14.92a4.3 4.3 0 0 1 1.89-3.61c8.3-5.66 15.97-13.45 14.24-18.06z" class="cls-2"/><path id="polygon306" d="M719.3 358.23h-16.23l5.9-9.74z" class="cls-2"/></g><path id="path310" d="M636.02 381.58c-10.13-17.68-22.85-47.01-33.04-93.47 0 0 6.4 66.18 25.73 104.83z" class="cls-1"/><path id="path312" d="m644.59 363 1.58-16.8c-8.26-15.1-17.64-37.53-25.41-70.02 0 0 5.82 55.2 23.4 87.43z" class="cls-1"/><path id="path314" d="M653.45 307.73c-4.14-10.45-8.35-23.77-12.04-40.61 0 0 4.1 42.41 16.49 67.17h9.59l-14.04-26.57z" class="cls-1"/><path id="path316" d="M797.18 418.74s13.37-17.77 8.62-49.25c-4.74-31.48 9.34-50.93 30.33-59.32 0 0-3.16-11.84 2.01-19.6 0 0-33.31 12.73-45.12 35.26-11.81 22.52 11.48 45.99 4.15 92.9z" class="cls-2"/><path id="path318" d="M793.03 325.83c-5.26 10.04-3.55 20.27-.69 32.67-1.55-10.46-.33-36.6 42.86-57.68.14-3.39.87-7.14 2.94-10.24 0 0-33.31 12.73-45.12 35.26z" class="cls-3"/><path id="path320" d="m776.74 421.48-6.25 8.47 10.53 1.49 13.37 2.07c.07.01.16.02.22.17s.02.22-.03.28l-16.96 23.92 16.68-10.99 5.59-9.35c2.74-4.07.33-9.6-4.52-10.36l-11.07-2.3s6.69-12.64 2.02-38.34c-4.68-25.7-34.77-73.49 53.58-109.97 0 0-2.75-22.73 25.14-44.03-1.99-1.05-4.09-2.1-6.33-3.15-3.65 2.98-6.95 6.12-9.87 9.42-12.11 13.67-14.81 26.66-15.3 33.52-32.94 14.27-52.38 31.57-59.38 52.81-6.28 19.05-1.19 36.76 2.9 51 1.22 4.23 2.37 8.23 2.97 11.57 2.13 11.72 1.11 20.3-.13 25.44-1.25 5.19-2.96 8-3.17 8.34z" class="cls-2"/><path id="path322" d="m671.17 488.81 8.81 9.92 27.97 5.46 24.86 15.72s-1.75-16.67 6.16-31.93l-18.64 1.95-31.85-10.29-17.29 6.73" class="cls-4"/></g></svg>