<svg xmlns="http://www.w3.org/2000/svg" id="Layer_1" width="522.4" height="522.4" data-name="Layer 1" version="1.1"><defs id="defs13"><clipPath id="clip-path"><circle id="circle4" cx="-320" cy="300" r="261.4" fill="none" class="cls-1"/></clipPath><clipPath id="clip-path-2"><circle id="circle7" cx="-319.8" cy="300" r="115.1" fill="none" class="cls-1"/></clipPath><clipPath id="clip-path-3"><circle id="circle10" cx="300" cy="300" r="261.2" fill="none" class="cls-1"/></clipPath><style id="style2">.cls-1,.cls-13{fill:none}.cls-4{fill:#e7e8e8}.cls-5{fill:#7d8b95}.cls-6{fill:#b3bfc8}.cls-8{fill:#808d96}.cls-9{fill:#b4c0c8}.cls-13{stroke:#122075;stroke-linecap:round;stroke-linejoin:round;stroke-width:22.13px}</style></defs><g id="g1014" clip-path="url(#clip-path-3)" transform="translate(-39 -39)"><g id="IHzMk3.tif-3" data-name="IHzMk3.tif"><path id="path549" fill="#e7e8e8" d="M592-78h54v8c0 4 1 6 6 6s5-2 5-6l-1-7 2-1h46l1 1c0 2 0 3-2 3-7-2-8 3-7 9a35 35 0 0 1 0 4c-6-1-7 2-7 7a49 49 0 0 1 0 6c0 2-1 4-3 4-7-1-7 3-7 8 1 4-1 5-5 5-5 0-4-4-4-7 1-4-1-7-6-6a91 91 0 0 1-10 0c-14 0-14 0-13-13a29 29 0 0 0 5-1v-2c-2-2-8 0-9 3-5-1-7 0-7 6v10h-8c-2 0-3-1-4 1-3 7 0 12 7 12 4 0 6-1 5-5v-8c3 0 7-1 7 3 0 3-1 7 1 9 3 2 7 1 10 1h7c2 0 5-1 5 3 0 3 2 7-4 7-2 0-3 2-3 4v8c0 4 2 4 5 4s5 0 5-4c1-9 1-9 10-9a24 24 0 0 1 4 0c4 0 6-2 6-6-1-5 1-8 6-7v7c0 1 0 3 2 3 1 0 3 0 4-2 0-3 2-6-2-8v-10c0-1 0-3 2-3 5 0 5-3 4-6l1-10c1 0 3-1 3-3-2-8 4-8 9-7h10c2 0 4 0 3 3-1 7 4 7 9 7h8c1 0 3 0 3-2s-2-2-3-2c-8 2-7-3-7-8l1-7v-2h2v2c3 4 7 3 11 2 5-1 6 1 6 5 0 8 0 8 9 8h2c9 0 9 1 8-8 0-4 2-6 6-5 2 0 4 0 5-2v-2h4l2 2c0 1 0 2 2 2 4 0 4 2 4 6 0 6 4 4 7 4s7 1 7-5c-1-3 1-5 4-5 4 0 5 2 5 5s-1 6 2 8 2 4 0 7c-4 3-2 8-2 11 1 4 4 2 7 3 3 5-2 9 0 14a2 2 0 0 0-3 3c0 3 1 6-3 9s-1 12 3 12c1 2 2 3 4 3a4 4 0 0 0 3 2v3l-1 1c-4 0-4 2-5 6 0 2 1 4-2 4s-2-3-2-5c0-5 2-12-8-10a1 1 0 0 1-1-1c-4-5-9-2-14-3-2 0-4 1-4 4s1 3 4 3h12c3 0 4 1 4 4a33 33 0 0 0 2 11c1 4 4 10-4 12l-1 2v7h-7c-2 0-4-1-3-3 1-7-3-7-8-7h-10c-4-2-1-7-2-10-2-3-3-7-7-6-4 0-3 3-3 6 0 7 2 14-3 20h-4c-5 0-10-1-9 7 0 2-2 3-4 2-2 0-5 2-6-2 0-2-1-3-4-3-2 0-2 1-3 3-1 4-4 2-6 2-2 1-3 0-3-2 0-3 1-4 3-4 3 0 3-2 3-4 1-12 1-12-11-12h-2v-7a30 30 0 0 0 5 0c3-1 2-3 2-5-1-4 3-11-2-14s-11-1-17 0l-1 3c-4 0-4 2-3 4 0 3-1 6 3 6v13h-6l-1-6c0-2-1-4-3-4-3 0-3 2-3 4v6c-5-1-3-5-3-7 0-4-1-6-6-6h-4c-5 0-12-2-15 1-4 4-1 10-1 15-1 12 0 12 11 13h1c1 0 3-1 3 2l-3 1h-15c-2 0-4 0-4-2 0-3-2-4-5-4l-2-1c1-7-5-13-3-20v-5a73 73 0 0 1 8 0c4 0 5-1 5-5s-1-6-5-5h-4c-3 0-4-1-4-4v-13c0-4 0-7-5-7s-6 3-5 7v5c0 5-2 6-6 5-3 0-8 2-7-4 0-3 1-6-3-6-5 0-4 3-4 6 0 2 0 5-3 4-6-1-7 2-6 7-5-1-8 1-7 6 0 2 0 4-2 4-5 0-5 3-4 6 0 6-2 7-7 7-2 0-5-1-6 1a25 25 0 0 0 0 13c1 3 5 1 7 2 3 0 5-1 5 3 1 4-2 3-5 3h-21c-5 0-7 1-6 6 0 4-1 5-5 5h-5c0-11 2-11-6-10-4-1-6-5-10-4-2 1-4 0-4-3s1-4 4-4c2 0 4 1 6-1-6-2-11-1-16-1 1-6-1-8-7-7a31 31 0 0 1-4 0c-10 0-9 1-9-8 0-2 1-5-3-5-3 0-3 2-4 5 0 8 0 8-8 8h-3c-3 0-5-1-5-4 1-6-2-6-7-6-3 0-6 1-6-4 0-3-3-2-5-2-2-1-4-1-4 2 0 4-3 4-6 4-6 1-12-5-19-3l-1-2c0-5-3-4-6-4h-10c-2 0-5 0-5 3s-2 3-4 3h-17c-3 0-5 1-5 4 0 4 1 6 6 6 2 0 7-3 7 3 1 3 2 4 5 3 4 0 6 2 6 6-1 2-1 5 3 4 3 0 4-2 3-4 0-4 1-6 6-6h5c4 1 9-2 9 6l2 1c5 0 4 3 4 6-3 0-3 3-3 5 1 4-1 5-5 5h-26c-4 0-6-1-5-5s-1-5-5-5h-13c-3 0-5-1-5-4 1-3 0-5-3-5h-26c-3 0-3 1-4 4 0 8 0 8 9 8h8c2 0 3 2 3 4h-16c-2 0-4 0-4 3h-10c-5 0-7 2-7 7h-5c1-7-3-7-8-7-2 0-5 1-6-2 0-2 0-3 2-5 3-3 2-7 1-11-1-2-4-1-6-1h-15c-3 0-5-1-4-4 0-4-1-7-5-7-3 0-2-2-2-4 0-5-2-7-7-5-3 1-7-3-9 2v14c0 3 1 4 3 4 6-1 6 2 6 6v6l-3 1a60 60 0 0 0-17 0 14 14 0 0 0-6 0c-2 0-5-2-6 1-1 4-2 9 0 11 4 4 2 7 2 11-3 0-7 0-6 5 0 2 0 4-3 4-4 0-3-2-3-4s1-5-2-5c-6 0-5-5-5-9 0-12 0-12-12-11h-2c-2 0-2 2-2 3 0 2 0 3 2 4h4c5 0 4 3 3 5 0 3 2 8-3 7-6 0-6 3-6 8a19 19 0 0 1 0 3c0 2-2 3-4 3s-3-1-3-3v-8c0-2-1-2-3-3-2 0-3 1-3 3v4c0 3-2 3-4 3-2 1-3-1-3-3v-7a40 40 0 0 0 0-6c-1-5 1-7 6-6 3 0 4-2 4-5a40 40 0 0 1 0-6c0-4-1-6-5-5l-12-10a8 8 0 0 1 0-1c-1-10-1-10-11-10a48 48 0 0 1-6 0c-3 0-5 1-6 4h-5c-1-3-3-4-5-4-7 1-14 0-21 3-9 3-19 1-26-7-1-1-1-2-3-2a2 2 0 0 0-1 2c3 6 4 11 4 17l2 1c1 0 3 0 3 2l-3 1a23 23 0 0 1-4 0c-4 0-6 1-5 5 0 3-1 4-4 5-3 0-3-2-3-5 0-2 0-3-2-4-5-3-12 0-12 7v1c0 12-1 11 11 11 5-1 7 1 6 6 0 3 0 6 4 7 4 0 3 4 3 7s-2 2-5 2H71a26 26 0 0 1 0-4c1-5-2-6-6-6-5 0-4 4-4 7H36c-8 0-8 0-8 8v4c-4 4-9 1-13 1-2 1-6 1-6-2 1-7-5-12-4-19 1-4-1-5-4-5h-15v-3c0-10 0-10 10-10 5 0 6-2 6-6 0-6-2-8-7-7h-5c-3 0-5-1-4-3 1-6-2-8-7-7a28 28 0 0 1-6 0c-5-1-8 1-7 6 0 3-1 4-4 4l-2 2c0 4-2 4-6 4h-9c-4-1-2-5-2-8 0-4-2-5-5-5s-5 2-4 5v8c0 2-1 3-3 3-4 0-4 3-4 5v9h-10c-2 0-4 0-4 3l1 7-1 3h-6c-10 0-10 0-10 10v2c0 2 1 4-2 4-3 1-5-1-4-4 0-1-1-2-3-2-5 0-4-3-4-7 0-2 1-5-2-6-6 0-5-4-5-8 0-3 1-6-4-6s-5 3-5 6c0 4 1 8-5 8-2 1-2 3-2 5 0 8 0 8-8 8a22 22 0 0 1-3 0c-4-1-5 1-5 5s1 5 5 5c7-1 9 2 8 8 0 2 0 5 3 4 7-1 8 3 7 8-1 4 0 6 5 6 7 0 7 0 7 8v4c0 3 2 4 5 4 4 0 6-1 6-6a42 42 0 0 1 0-7c0-4 3-3 5-3 2 1 1 4 1 5 1 11 1 11 11 11 3 0 6 0 5 4l2 2 3-1c-1-4 3-7 2-10 0-2 0-4 3-5 0 5 4 4 7 4 2 0 3-1 3-3 1-3-1-4-3-5v-9c0-1 0-3 2-3 4 0 4-3 4-6V97l27-1 7 1c5 0 6-2 6-6V67h10v13c-5-1-8 1-7 7a46 46 0 0 1 0 6c0 4 1 7-5 8l-9 2c-2 0-3 1-3 3l1 20h-19c-4 0-5 1-5 5 1 4 1 7-3 10-3 3-6 6-10 5l-2 1c-4 3-3 10-10 10a8 8 0 0 0-1 2v6h-9c-4 0-7 0-7-6 1-4-5-3-5-3 0 7-7 9-8 14v7c0 2-1 5 3 5s4-3 4-5c0-3-1-5 3-5 1 2-2 7 3 6l1 3c-1 3 0 4 3 4h9c-1 5 1 8 7 7a20 20 0 0 1 3 0v6c0 1 0 3 2 3s1-2 1-3v-7l1-9c2 0 2 2 2 4l1 1 2-1c0-5 3-4 6-4h16c4-1 6 1 5 5v11c0 2 1 3 3 3 3 0 4-1 4-3a77 77 0 0 0 0-10c-1-5 1-7 6-6-1 5 1 7 6 7a17 17 0 0 1 4 0c-1 6 2 6 7 6 0 10 0 10-10 10v-9c0-2 0-4-2-4s-2 2-2 3v33c0 4 0 6 5 6s6-2 5-6c0-2-1-6 2-6 6-1 5-5 5-9s2-5 5-5H5c2 0 4 0 4-3h30c4-1 5 1 5 5v18c0 5 2 6 6 6h14c0 2 0 3 2 3 5 0 5 3 5 7 0 7 0 6 7 6 6 0 6-3 5-6v-6c0-4 3-4 6-4 4 0 5 1 5 4v13c-1 4 1 6 5 6h14v10c-2 0-3 1-3 4-1 3 2 7-2 9H92c-8 0-8 0-8-8-1-2 0-5-3-5-6 1-7-2-7-7 1-5-1-7-6-7a16 16 0 0 1-4 0c-5 0-7 2-7 6 0 11 0 11 10 11 2 0 4 1 4 3 0 3 1 7-3 7-4 1-4 3-4 6 0 2 1 6-1 6-4 0-2-4-2-6-1-2 1-4-2-5-8-3-12 0-11 8 0 3 0 4-3 4v-9c0-2 0-3-2-3H30a2 2 0 0 0-2 2c1 6-2 7-7 7-4-1-6 0-6 5 0 4 2 5 6 5a67 67 0 0 1 7 0c2 0 3-1 3-3 0-4 3-4 5-4h9c-2 7 3 13 2 20 0 2 2 3 3 3 7-1 8 2 7 8 0 3 1 5 5 5 5 0 6-1 6-5-1-8 0-8 8-8a22 22 0 0 1 2 0c4 0 6-1 6-5-1-9-1-8 7-8 3 0 6 1 6-3 1-7 6-3 9-3 4-1 4 2 4 5s0 4 4 5c9 0 9 0 9 10v2a9 9 0 0 1-2 1c-2 0-5 0-5 3 1 4 3 3 5 3h15c0 5-5 3-7 3-2 1-5-1-6 3-2 10 0 13 11 13h3c2 1 2 2 2 4h-9l-3 1c-3 6 0 12 7 12 4 0 6-1 5-5v-8h12c3 2 1 7 2 10 0 2 0 3 3 3 2 0 3-1 3-4v-26l-1-3c-2-1-2-3-2-5 1-2 4-1 5-1h25c2 0 4 0 5-2 3-6 0-11-6-11-4 0-6-1-6-5 0-2 1-5-3-5-5 0-4 3-4 5s1 5-2 4l-11 1c-11 0-10 2-10-10 5-1 11 2 11-6l4-1h8c2 0 3 0 3-2 0-6 4-5 7-4 7 0 9-9 16-8a1 1 0 0 0 0-1c0-5 3-5 6-4h10c2 0 4-1 4-4s-2-3-4-3h-24a7 7 0 0 1-7-5c-1-3-2-6-6-5-2 0-6-1-8 1-2 4-5 2-8 2-3-1-2-4-2-6 0-4 1-7-4-7-2 0-2-1-2-3v-7c6-1 2-6 3-10a2 2 0 0 0-2-2l-1 2v10h-8c-4 0-6 1-6 5 0 5 2 6 6 5 4 0 4 2 4 5 0 4-1 5-4 5h-32v-5c0-3-1-5-4-5-2 0-5 1-5-3 0-2-2-6 4-7 1 0 2-1 2-3v-9c0-3-3-4-5-4-2 1-5 0-5 4v5c0 1 1 4-1 4-3 0-2-3-2-4a8 8 0 0 1 0-3c1-4-1-6-6-6-3 1-7-1-10 1-2 2-1 6-1 9 0 2-1 3-3 3s-3-1-3-3v-10c3-2 7-5 6-10 0-3 2-3 4-3 5 1 7-1 6-6-1-6 2-8 8-8a13 13 0 0 0 3 0l-1 13c0 3 1 4 4 4h13c5 0 7 1 6 6-1 6 1 7 7 7 10 0 9 1 9-9v-4c4 0 3 3 4 5 0 4-2 8 4 8 7 0 5-4 6-8v-3c5-4 3-9 3-13a57 57 0 0 0 0-10c0-4 4-6 4-10 0-3 4-1 6-2 2 0 3-1 3-3v-8c0-3-1-5-5-5-3 1-5-1-5-4 0-7-3-11-9-12-1-1-4 0-4-2 0-3 3-2 4-2h30l4 1c3 4 8 2 12 3h14c8 0 12 4 12 11 0 4-1 5-6 6-4 0-5-3-4-6v-5c0-2-1-3-4-3-2 0-3 1-3 3v12c0 3 1 5 5 5 3 0 8-2 11 0 5 5 10 3 15 2 4-1 1-7 2-10a60 60 0 0 0 0-8c0-2 0-3-2-4l-5 1c0 1 0 3-2 2a6 6 0 0 1-1-1c-1-4 1-10-6-9l-1-2c0-4-3-4-6-4h-8c-12 0-12 0-12-12 0-2 0-4-3-4s-3 2-3 4 0 5-2 5c-5 1-10 2-13 0-4-3-8-2-12-3h-13c-2 0-3-1-3-2 0-2 0-4 2-4 5 0 5-3 5-7v-6c3-2 3-4 3-7 5 1 7-1 7-6a67 67 0 0 1 0-9c0-2-1-3 1-4 6-3 11 1 16 3 3 1 2 3 2 5 0 4 2 5 5 5l13-1c3 0 4 1 5 4 1 4 4 7 4 11-1 2 1 2 2 2h6c14 0 14 0 14 13 0 12 0 12 12 13 3 0 4 1 4 4 1 12 1 12 13 12h2c3 1 6 1 5-4 0-2 2-2 3-2 4 0 4-2 4-5v-16c0-5-6-8-9-5-5 5-10 2-15 3a2 2 0 0 1-2-1c0-2 1-2 2-2 7 1 8-3 7-8 0-4 1-6 5-5 3 0 4-2 6-3 4-1 1-6 4-7 8-1 6-8 8-12 1-2 0-4 2-4s1 2 1 4a5 5 0 0 1 0 1c0 2 0 4 3 4 4 0 4-2 4-4V73a39 39 0 0 0 5 0c9-1 16 2 24 4-1 6 5 11 4 18a1 1 0 0 0 1 1 2 2 0 0 0 2-1 15 15 0 0 0 0-4c0-3 1-5 4-4s8-3 9 3c0 5 4 4 6 3 3-4 7-4 9-2a8 8 0 0 1 5 9c0 2-1 5 2 7 2 1 1 3 1 5s0 4 3 4 3-2 3-4V95a6 6 0 0 1 3-5c4-4 10-4 16-6 3-2 7-1 10-1 2 0 4 1 4-1-1-7 6-11 4-18h10c0 3-2 8 1 8 3 1 2-5 2-8 3 0 6-1 9 1 2 3 0 11-3 12-4 3-2 8-2 11s4 2 6 2c5-1 2-5 3-8 0-3 0-5 3-5 4 0 3 2 4 5 0 8 0 8 8 8h3c8 0 8 0 8 8 0 4 1 5 5 5 2 0 5 0 5 3 0 4 2 4 5 3h9c4 0 6 2 5 6 0 8 0 8 8 8 3 0 6 0 6 4-1 4 1 5 5 5s4-2 4-5v-7a25 25 0 0 0 4 0c5-1 7 1 6 6v2c0 4 1 5 5 5h14c7 0 7 0 7-7 0-3-1-6 4-7l15 1c3 0 4 1 4 4 1 2-1 7 2 7s1-5 1-8c0-4 3-3 6-3s5 0 5 4v14l1 1c3 0 7-1 10 1s1 6 1 10c0 2 2 2 4 2h15c2 0 5 1 5-3-1-2 1-7-4-7-3 0-3-1-3-3-1-5 3-9 3-13 0-6 3-7 8-6a24 24 0 0 0 5 0c5-1 7 1 7 6 0 2-2 6 2 6 2 0 1-4 1-7 1-2-1-5 3-5s4-3 4-5c0-4-2-9 4-8l2-3c-1-4 2-4 5-4 4 1 5-1 5-5a43 43 0 0 1 0-6c0-2 1-2 3-2s3 0 3 2a22 22 0 0 1 0 5c0 5 2 6 7 6 4 0 7 0 6-6-1-5 1-8 7-7 4 0 3-3 3-5s0-5-3-4c-6 1-7-3-7-8v-6c3 0 4-1 4-3v-7c-1-2 0-4 3-3 3 0 3 1 3 3v7l2 3c6 0 5 4 5 7 0 4 0 6 5 6 4-1 4 1 4 5 0 3 0 5-4 5-4-1-5 1-5 5 0 3 0 6-2 9a10 10 0 0 0 0 12c3 3 2 6 2 9-1 2-4 1-6 1l-1-6c0-8-1-9-9-6l-8-1c-3 0-6-1-6 4s2 6 6 6h7c1 1 1 3 4 3-1 10-1 10 6 10v6c0 3-1 8 5 7 4-1 1-5 2-7 5-2 3-6 3-9 0-5 1-7 7-7a101 101 0 0 0 17 0c6-1 6 3 6 7 0 5-3 6-6 6h-4c-4 0-8 1-7 6v11c0 2 1 3 3 3h10v12c0 3 2 4 4 4 6 1 6-2 6-6h5c2 0 5 0 5-3s2-7-3-7c-1-2 0-4 2-3 4 0 4-3 4-6 0-8-1-8 8-8h2c0 10 0 10 9 10 3 0 4 1 4 4v12c0 3 1 4 4 4a33 33 0 0 1 6 0c5 1 7-2 7-7s-2-7-7-6a21 21 0 0 1-4 0c-2-1-3-2-3-4s1-3 3-3h11c2 0 2 1 3 3 0 3-2 7 3 7 3 0 4 5 8 4 5-2 6 1 5 5-9 1-9 1-10 10 0 3-1 4-4 4-2 0-3 2-3 4v9c-2 0-6-1-6 3 1 5 4 3 6 3v4c1 10 1 10-9 10v-10c0-2 0-4-3-3l-4-1c0-2 0-3-2-3h-14c-3 0-3 1-3 3v9c0 3-1 5-5 5-4-1-6 2-5 6a26 26 0 0 1 0 5c-1 3 1 5 5 5 4-1 5 1 5 5 0 8-1 9 7 8 5 0 6 2 6 6-1 5-5 3-7 3-3 1-6 0-6 5 0 4 1 6 6 6a71 71 0 0 1 8 0c10 0 9-1 9 8-1 5 2 6 6 5 5 0 3-4 3-6 0-4-1-7 5-7h30c2 0 4-1 4 2 1 2 2 7-1 7-6 1-4 6-4 10 0 7 0 7-8 7-12 0-12 0-12-12-1-4-2-4-5-4-4 0-6 0-6 4s2 9-4 9l-1 1v13c0 3 3 2 4 3l1 3v8c0 2 1 4-1 4-6 0-5 4-4 7 0 6-2 7-8 7-5 0-7-2-6-7s-1-8-7-7c-3 1-6 0-6-5 1-4-1-4-4-4h-23c-4 0-6 0-6 5 1 2 0 4-3 4-10 1-10 1-10 11v3c-10 0-9-1-9 9v1c0 4 1 10-6 10l-1 2h-25c-3 0-5 0-4-3 1-6-3-7-8-7a51 51 0 0 1-6 0c-9 0-9 0-9-9l-1-1a2 2 0 0 0-2-2c-1 0-2 1-1 2 1 7-4 13-3 20-4 0-6-4-11-3s-7-1-6-6l7-1c2 0 3 0 3-2 0-1 1-3-1-3h-10c-3 0-1 3-2 5h-12c-2 0-4 1-4 3 0 4-3 4-6 4s-5 0-5-4c1-2-1-3-3-3h-7c-4 0-5 2-5 6-1 5 3 4 6 4s6 0 6 5c0 4-1 6-5 6-3 0-7-2-7 3h-16c-7 0-7 0-7 7 0 4-1 6-5 6s-6-2-5-6a62 62 0 0 0 0-7c0-1 0-3-2-3h-4c-3 3-5 6-4 10 0 3 0 6-5 6-4 0-5-2-5-6v-5c1-4-1-6-5-6-2 1-4 1-5-3-1-10-1-10-11-10h-5c-13 0-13 0-13 12 0 4-1 5-5 5-4-1-5 1-5 5 1 2 1 4-3 4-3 0-3 2-3 5v6c0 5-2 6-6 6h-26c-4 0-4 1-4 5 0 3 0 5 4 4h21c2 0 4 0 4 3 0 5 3 4 5 4 3-1 8 3 8-4 0-2 2-3 4-3 6 1 6-2 6-7 0-3 0-6 4-6 4 1 9 2 11-1 3-2 1-7 1-11 1-1 0-3 2-4a4 4 0 0 1 4 1c3 2 6 14 4 18l-3 1c-5 0-3 4-4 6 0 4 3 3 5 3h14c2 0 4 0 4 2 0 6 4 5 8 5h13c4 0 6 1 6 6v3c-1 3 1 5 4 5l19-1c1 6 5 4 8 4 5 0 7 4 5 7s-5 2-7 2c-6 0-7 1-6 8l1 3c-2 7-2 8 5 8l4 3v14h-10v-12c0-2 0-3-2-3-4-1-5-2-5-5 0-2-2-2-3-2h-10l-3 1c0 7-4 5-8 5-11 0-11 0-11 12-1 2 0 4-3 4s-9 2-10-1c-2-4-2-9 0-14 0-1 3-1 2-4-1-2-3 0-5 0-3 0-6 1-9-2l-3-1h-15c-2 0-4 0-4 3s-1 4-4 3c-3 0-6 1-6-3 0-2-1-4-3-3-6 1-6-3-6-7 0-2 1-6-2-6-6-1-5-5-5-8 0-4-1-6-5-5a12 12 0 0 1-4 0c-5-1-8 1-7 7 0 1 1 5-2 5-6 0-5 4-4 8 2 7-10 5-8 12a9 9 0 0 1-2 0 2 2 0 0 1-1 0c-5 0-6 2-6 6v7h-5a2 2 0 0 0-2 3c0 2-1 5 1 7h5c2-2 1-5 1-7 9 1 10 1 10-7 0-3 0-6 4-6 2 0 2-2 2-3 1-3 2-3 4-3s3 1 3 3c0 3 2 3 5 3 8 0 7 0 8 8 0 2-1 5 1 5 7 0 6 4 5 8 0 4 1 7 6 6 4-1 5 2 5 5s-1 4-5 4h-17c-4 0-6-1-5-5 0-4-2-4-5-4h-15c-4 0-6 1-6 5 0 2 1 4-1 4-3-1-2-3-2-4v-5c0-2 0-3-2-3-5 0-5-3-5-6s1-6-1-7c-5-2-10-2-14-1-3 1-2 5-2 7 0 4 0 7-5 7-4-1-4 2-4 5 1 2-2 7 4 7 5 0 6 3 5 7 0 5 2 7 7 7s8-2 7-7a30 30 0 0 1 0-4c0-2 1-3 3-3 3 0 4 1 4 4v8c-1 4 1 5 4 5 4 0 5-1 5-5 0-12 0-12 13-12h3c3 0 5 2 4 5s3 7-3 8c-3 1-4 2-4 5 0 2 0 5 4 5s3 3 3 6c0 2 0 4-3 4s-4 2-4 4v8c0 2 0 4-2 4-3 0-5-1-4-4v-12c5-1 3-5 3-7-1-4-4-2-7-3-3 0-3 3-3 5v14c0 4-1 7 5 8 4 1 1 6 2 9 0 3-2 3-4 3-5 1-7 0-7-6 1-4 0-7-5-6h-21c0-5-4-3-6-4-3 0-3 2-3 4v9h-12c-3 0-5 1-5 3 1 8-3 7-8 7h-8c0-7-1-8-7-7-2 1-3 2-3 4s1 3 3 3h7a55 55 0 0 1 0 7c0 5 1 7 7 7h13v9c-9 0-9 0-10 9 0 3-1 4-4 4h-24c-3 0-5-1-5-4 1-2 1-5-2-5-5-1-4-4-4-7v-13c-1-6 1-8 7-7 4 1 6-2 5-6 0-5-3-4-6-4s-7 1-6-4c0-9 1-9-10-9-2 0-4 1-4 4-1 11-1 11 10 12h1c1 0 2 0 2 2l-2 2h-37c-2 0-3-1-3-2a2 2 0 0 1 2-2c5 1 5-2 5-5v-11h-1c11 0 11 0 11-6-1-6 1-8 7-7 2 0 6 1 5-4 0-5 2-6 6-6h39c5 0 11 7 10 11-5 4-11 2-16 2s-6 1-6 6c0 4 2 5 5 4a56 56 0 0 1 9 0c5 1 7 0 6-5 0-2 0-4 3-5h15c4 1 5-1 5-5 0-3-2-6 2-8 2 0 4 1 4-2v-3c1-5 1-9-7-8-2 0-3-1-2-3 1-7-3-7-8-7h-8l-1-7v-8c0-8 0-8-7-8-4 0-6 0-6-5 0-4 2-5 5-5h7c9 0 8 1 8-8 0-2-1-4 2-5 3 0 8-8 8-10-1-2-2-3-4-3h-9c-5 0-8 0-7 7 0 1-1 3-3 3s-6 1-6-1c0-5-4-9-4-14a76 76 0 0 1 0-9c0-4-1-6-6-5h-3c-2 0-4-1-4 2-1 3 0 4 3 4 5 1 3 4 3 7s-3 3-5 3-5 0-4-4c1-6-3-6-7-6-4 1-7 1-7-5 0-2-3-2-4-1-3 0-7-2-9 1-1 5-4 9-3 15a4 4 0 0 0-3 4v8c0 3-2 4-4 4-3 0-3-2-3-4v-12c6-1 7-1 6-9 0-2 0-4-2-4-3 0-4 1-4 3h-28c-2 0-3 0-4 2-3 6 0 11 6 11 10 0 10 0 10 10-1 5 1 8 7 7 2 0 5-1 5 2 1 5 4 4 7 4 1 4-2 3-5 3-9 0-8-1-8 8v15c0 10 0 10 10 10 0 9 0 9-7 10-4 1-3 3-3 5 0 4 2 9-4 9-2 0-2 2-2 3 1 5-2 6-6 6h-5c-4-1-6 1-6 5 1 4-1 5-5 5h-21c-5-1-7 1-7 7 1 5-1 7-6 6h-4c-4 0-6 1-6 6 1 1 1 4-2 4-5-1-5 3-4 6 0 6-2 8-7 7v-17c3 0 7 1 7-5l3-1c3 0 4-2 4-5v-8h10c3 0 3-2 3-4s1-5-3-6c-7-2-11 0-11 8l1 2a62 62 0 0 0-8 0c-5 1-7-1-6-6 0-3-2-4-5-4h-20c-4 0-5-1-5-5v-4c1-5-1-8-7-7-1 0-5 1-5-2 0-6-4-5-7-5v-9c0-2-1-3-3-3s-4-1-6 1a7 7 0 0 0 6 11h3l3 12c3 7-4 13-3 20l-3 1c-6 1-7 0-7-6 0-2 1-5-2-6-7-2-10 0-11 7 0 2 1 6-3 5-7-1-7 3-7 8 0 2 1 4-2 4-5 1-10 0-11 7h-1c-7 0-5 4-5 8 0 2 1 5-2 6-7 2-12-1-12-8v-1c0-2 0-5-2-4-4 0-8-2-10 1v10c1 3 4 2 6 2 3 0 4 2 4 5s-1 4-4 4l-6 1H36c-2 0-5 0-5 3h-8c-9 0-8 0-8-8 0-4-1-5-5-5s-5 1-5 5c0 8 1 8-8 8a56 56 0 0 0-5 0c-3 0-6-2-6 3 0 4 3 3 5 3h7c2 0 4 1 4 3-1 4 2 8-2 10h-9c-3-1-2-4-2-6s-1-3-3-3c-3 0-4 1-4 4v9h-26c0-3-1-7 5-7l1-1c0-7 6-6 10-5 6 0 8-2 7-7 0-3-1-6 3-6 5 0 3-4 4-7 0-4-3-3-5-3a9 9 0 0 1-6-2c-4-4-2-8-3-12 0-2 0-3-2-3-3 0-4 1-4 3v7c0 4-3 3-5 3-3 0-5 1-5-3 0-3 2-8-1-9-3-2-7-1-10-1a9 9 0 0 0-1 0c-4 0-5-1-4-4 0-5-3-6-6-5-5-1-9 1-14-1 0-13 0-13-12-13a11 11 0 0 1-2 0c-4 0-6 1-5 6 0 3 1 8-6 8a2 2 0 0 0-1 1c0 8-7 4-10 5-2 0-3-1-3-3 0-4 0-7-5-7l-1-3-1-7c3 0 6 2 6-3 4 0 4-2 4-5 0-2 0-5-4-4 1-2 0-4-2-4 0-10 0-10-7-10-1-5 1-7 7-7h4c4 1 6-1 5-5a13 13 0 0 1 0-4c1-6-1-7-6-7v-7l-2-2-2 1v8c-9 0-9 0-9 7 0 2 1 5-2 5s-2-3-1-5c0-6-2-7-7-7h-20c-5 1-7-1-6-6a41 41 0 0 0 0-7c5 0 3-4 3-6 1-3-2-6 3-7 4 0 4-2 4-5v-12c4 0 7 2 6 7s2 8 7 7a21 21 0 0 1 6 0c2 0 4-1 4-4-1-6 2-7 6-6a56 56 0 0 0 7 0c1 0 2 0 2-2 0-4 4-6 6-8 2-3 2-6-2-6-3-1-3-3-3-5v-18c0-5-1-8-7-7a11 11 0 0 1-2 0c-7 0-7 0-8-8l1-8c0-3-1-4-4-4v-12l3-1c5 0 8 1 7 7 0 2 0 4 2 6 2-3 1-6 1-9 0-2 0-4 3-4 4 1 4-2 4-4v-9c0-2 0-3 2-3 4 0 5-2 4-5 0-4 2-5 6-5h14c1 0 3 0 3-2l-3-1h-18c-8 0-8 0-8-8-1-3 1-8-2-8s-2 5-2 8c0 5 1 8-6 8-6 0-7-2-7-7 0-4 3-10-5-10-2 0-1-2-1-4-1-9-1-9-10-9h-3c-2 0-4 1-3 4 0 2-2 6 2 6s4 2 4 5c0 12 0 12-11 12-10 0-9 0-9-9 0-2 1-5-2-5-5 1-4-2-5-5 0-3 3-6-2-7v-9c0-4 1-5 5-5h18c4 0 6-1 6-5l-1-4c4-2 7 0 10 0 3-1 5 1 4 4-1 4 2 6 6 5h5c4-1 6 2 5 6 0 2-1 7 2 7s1-5 1-7c1-4 1-6 6-6 4 0 5 2 5 6-1 1-1 4 1 4 3 0 2-3 2-4 0-3-1-6 3-6h20c2 0 3 1 3 3v10c0 3-1 3-4 3h-13c-2 0-3 1-2 4 0 1 0 3 2 3a26 26 0 0 0 4 0c5-1 7 1 6 7a42 42 0 0 0 0 4c0 3 0 6 5 6a2 2 0 0 1 2 2c0 4 2 5 5 4 3 0 5 1 5 5 0 2-2 7 2 7 3 0 1-5 1-7 0-4 2-6 5-4 6 4 12 1 18 2v1c3 4 15 3 16-1 1-2 2-3 4-3 6 1 7-2 7-7-1-2-2-5 1-5s1 3 2 6a10 10 0 0 1 0 2c-1 3 1 5 4 4 14 0 11 2 12-10 0-6-2-7-7-7-3 1-6 1-6-4 0-8 0-8-8-8h-5a3 3 0 0 0 0-1c-1-3 1-9-2-8-4 0-1 5-1 9l-1 3c-10-1-10-1-10-11v-1c0-3 0-5 4-5 4 1 4-3 3-5-3-3-7-1-10-1-2 0-3 1-3 3 0 3-1 3-4 3h-20c-2 0-4 1-5-1v-7c4-3 3-6 3-9 0-4 1-6 5-5 2 0 5 0 4-4 0-6 2-7 7-6a15 15 0 0 0 4 0c5-1 7 1 6 6 0 7 0 7 8 7 4 0 6-1 5-5-1-3 3-9-5-8-4 0-5-1-5-5 1-5-1-6-5-5h-16c-4-1-6 1-5 5 0 4-2 5-5 5-5 0-5-3-5-6 0-10 0-10 10-11 3 0 5-3 3-5s-3-5-3-7 1-4-2-4c-2 0-1 3-1 4 0 3 1 6-4 6-3 0-6 0-6 5 0 2-3 2-4 1-5 0-9 5-14 4-2-1-2 2-1 3 1 6-3 7-8 6h-6c-2 0-3 1-3 4-1 10-1 10-11 10h-6c-2 0-2-1-3-3-2-12 0-14 12-14 3 0 5-1 5-5s-2-5-6-5a41 41 0 0 1-9 0c-4 0-5 1-5 5 1 4-1 5-5 5h-18a15 15 0 0 1 0-3c1-5 0-8-6-7a3 3 0 0 1-4-2c-2-5-5-6-9-2-3 2-3 1-3-2a73 73 0 0 1 0-10c0-5-2-7-7-7h-14v-1c0-15 0-15-14-15-9 0-9 0-8 8 0 5-2 6-6 6a23 23 0 0 0-4 0v-47h4c3 0 6 0 6-5s-3-5-6-5a27 27 0 0 1-4 0V90c9 0 9 0 10 9 0 3 1 5 4 4h5c5 0 8 1 7 7-1 2-2 6 1 6 4 0 3-4 2-7 0-4 1-6 6-6 2 1 5 0 4-3-1-7 4-7 9-7a32 32 0 0 0 6 0c2 0 5 2 5-2 0-5-3-5-5-4-4 0-5-2-5-5v-4c1-4-1-5-4-5s-6 0-6 4 0 6-5 6c-4 0-5-2-5-5 0-2 1-4-2-4-2 0-1 2-1 4a8 8 0 0 0 0 2c0 3-2 3-5 3s-5 0-5-4c0-9-1-9-9-9l-7 1V57h9c3 0 4-1 4-4-1-5 2-7 7-6a55 55 0 0 0 7 0l-1 4c0 2 1 3 3 3s4-1 3-3v-4a9 9 0 0 0 2 0c3-1 7 2 8-3 2-6 0-11-4-13-2-1-2-1-2-3-2-4-6-6-9-2-4 3-10 3-12 1-5-4-10-2-15-3V-77l2-1h17l1 1c-1 4-4 2-6 3-3 0-5 1-4 4 0 4-3 9 2 12l1 1c5 0 8-1 7-6s0-7 5-7c4 0 5-3 5-6v-2h9v1c0 2-2 3-3 3-2 0-4 1-4 3v11c0 2 2 3 4 3 1 0 3-1 3-3a41 41 0 0 0 0-5c0-5 2-6 6-6 3 0 7 1 10-1 7-2 7-2 7 5a35 35 0 0 1 0 4c-1 4 0 6 5 6s5-2 5-6a48 48 0 0 1 0-6c0-4-1-5-5-5-1 0-4 0-4-2v-2h41l1 1c0 3 2 3 3 3h9c1 3-1 7 4 6v9a1 1 0 0 0 2 1 1 1 0 0 0 1-1v-9l3-1c0-5 3-4 6-4h22c3 0 5 0 5-3v-2h9l2 1c0 2 1 3 3 3a2 2 0 0 1 2 3c-1 7 3 7 9 7 9 0 8-1 8 8 0 4 1 6 5 5h18v8l1 2c2 0 2-1 2-2v-8c7-3 3-9 3-13 1-4-3-3-6-4v-9l1-1h17l1 2v7c1 4-1 5-4 5-4-1-6 1-6 5 0 5 3 6 6 5 7-2 3 6 6 7l1 1c-3 3-2 11-10 8-3-1-6 0-6 5 1 4 2 6 6 5a77 77 0 0 1 8 0c12 0 12 0 13-12 0-2-1-4 2-4 5 0 5-3 5-6-1-3 1-4 4-4h21c3 0 4-1 4-4v-11c0-3 1-5 5-5h13c2 0 5 1 5-3l1-1h7l1 1c0 5 1 7 6 7a39 39 0 0 1 9 0c5 0 6-2 5-7l2-1h109l1 1a14 14 0 0 0 0 3c0 5-2 7-7 6h-10c-3 0-7 0-6 5a2 2 0 0 1-2 2c-6 0-5 4-5 8 1 4-1 6-6 6-7 0-8 0-7-7 0-5-1-7-7-7h-12c-2 0-4 0-4-2 0-6-3-5-7-5h-12c-1 0-3 0-3 2 0 7-5 5-9 5-8 0-8 0-8 8 0 4-1 6-6 6H84c-4-1-7 0-6 5 0 2-1 4-3 4-4 0-4 2-4 5v8c0 2 0 4 3 4l1 10c3-3 2-7 2-10 4-1 3-3 3-6 0-2 0-4 2-4h13a2 2 0 0 1 2 2c-2 7 4 11 3 18 0 2 1 2 3 2s3-1 3-3a46 46 0 0 1 1-7l4-2c2 0 2 1 2 3v7c0 3 0 6 5 6s5-2 5-6v-6c0-3 1-4 4-4 4 0 9 2 11-1s1-8 1-11c0-2 0-5 3-5 4 0 4-2 4-5s1-4 5-4c9 0 9-1 9 8v4c-6-1-8 2-7 8 0 4-1 7-6 6-3-1-5 1-4 5 0 13-2 11 10 11h4c11 0 11 0 12-11 0-3 0-5 3-5 10-1 10-2 10-12v-1l7-1 1 3c6 0 5 5 5 8v6c0 1 0 3 2 3 6-1 4 4 4 7 1 4-3 3-5 3h-5c-1 0-2 1-2 3s0 3 3 4h6c2 0 4 1 3 3-1 7 3 7 9 7a49 49 0 0 1 9 0c4 0 6-1 5-6 0-2 0-4 3-4 4 0 4-3 4-5s-1-6 3-6c3 1 7-1 7 5 0 1 1 2 3 2 1 0 3 0 3-2 0-5 4-5 7-5h12c3 1 5 0 5-4-1-4 1-6 5-6l19 1c3 0 6-1 5-5-1-5 2-5 6-5 1 4-3 10 5 11 2 0 2 1 2 2 0 2 0 3 2 3 7-1 15 2 22-2 3-1 5-1 5 4v4c0 2 0 4 3 4s4 0 4-3c0-5 3-4 6-2 5 3 9 3 14 0 2-2 5-2 8-1s1 3 1 5c0 4 2 4 5 5 5 0 6-3 6-7h9v5c-1 12-1 12 9 12 4 0 5-2 4-5v-22l-1-3c-7 0-6-4-5-8 0-4-2-6-6-5a26 26 0 0 1-4 0c0-4-4-8 3-9 10-2 10-2 10-12v-5c2-1 6 1 7-4 0-2-1-3-4-3-5 0-2 4-3 7l-61-1c-3 0-8-2-8 4-1 9-1 9-10 9h-5c-8 0-8 0-8 8 0 2 1 6-3 6 0-10 0-10-10-10h-2c-9 0-8-1-8 7 0 4 0 6-5 6-4 0-5-2-5-6v-7c0-1 1-3-1-3s-2 2-2 3c0 3-2 3-4 3s-5 1-5-2c-1-8-6-4-11-4h-21c-2 0-5 1-5-3 1-2-2-7 4-7 1 0 3 0 2-2 0-2-1-1-2-1h-16c-2 0-4-1-4-4 0-2 2-3 4-3h9c1 0 3 0 3-2 0-6 4-5 8-5 6 1 11-2 15-6l1-1h55v2c0 10-1 8 9 8h10c3 1 4-1 3-4v-5l1-1h6v2c-1 4 1 5 6 5h25c4 0 6-1 5-5v-2h42l2 1c6 3 5 8 5 14l2 2c6-1 10 5 17 4h4c6-1 7 1 7 7v7c4 4 3 8 3 12-5 0-3 4-3 7 0 5 4 2 6 3 1 3 3 2 5 2l5 2c1 7 5 5 9 5h14l3-1c2-6 6-11 4-17-2-3 0-6 1-9 0-2 1-2 3-2l2 2c-2 7 4 12 3 19 0 4 2 5 5 5h15v10c0 2 1 3 3 3 3 0 4-1 4-3v-10a56 56 0 0 0 6 0c5-1 8 0 7 6 0 3 2 4 5 4 3-1 2-4 2-5 0-2-1-5 3-5 3 0 3 3 3 5-1 3 1 5 4 5 2 0 6 1 6-3-1-3 3-8-3-10-5-1-4-4-4-6 0-4 3-4 5-4s5 1 5-3c5 1 8-1 7-7a25 25 0 0 1 0-3c4 0 6-2 6-6-1-3-1-7 4-7 3 0 2-3 2-5s1-5-2-5c-4 0-5-3-4-6v-7zM244 257c3 0 7 1 6-4 0-4-3-2-5-2l-1-5c0-2-1-2-3-2-1 0-2 0-3 2a7 7 0 0 0 6 11zm357-66c1-4-1-6-6-6a24 24 0 0 1-4 0c-2 0-3 1-3 3-1 3 1 3 3 3h10v11c0 2 2 3 4 2s5 2 6-2c2-7 0-11-8-11h-2ZM68 539v10c0 2 1 3 3 3 2-1 5 1 6-2 3-5 0-11-6-11h-3v-3h18c3-1 5 0 4 4v9c0 2 1 3 3 3s4 0 4-3a75 75 0 0 0 0-8c-1-4 1-6 6-5 4 0 4-2 4-5 0-4-1-6-5-5H88c-7 0-7 0-7-8 0-2 1-5-2-5-4 0-6-3-8-5s-3-2-3 0c0 3-2 5-5 5-2 0-2 1-2 3v6c-4 1-4 4-4 6 1 13-1 11 11 11zM-152-18c0 6 2 7 7 6 2 0 3-1 3-3s-1-3-3-3h-6v-10c0-4-1-7-6-7s-5 3-5 7c0 10 0 10 10 10zm626 354v10c0 2 1 3 3 3 2-1 4 0 6-2 3-5-1-11-7-11h-2v-17c2 0 5-1 6 4 0 10 0 10 10 10h4c8 0 8 0 8-8 0-5 2-11-1-14s-8-1-13-1c-4 0-5-1-5-5s-1-6-5-5-4-3-4-6c0-2 0-5 3-4 3 0 9-3 9 3 0 7 3 7 8 7l8-1 1 1c1 3-1 8 1 8 7 2 5 6 5 9 0 4 1 5 5 6 5 0 5-3 5-7 0-3-1-6 5-6 3 0 8 1 8-5l2-2a62 62 0 0 1 9 0c3 1 2 3 2 5 1 2 2 2 3 2 4 0 4-3 4-5 0-3 0-5 4-5 3 0 6 0 6 4-1 6 3 6 7 6s6 1 6 5v4c-1 5 3 4 6 4s6 1 6-4v-12l10-1c1 0 3 0 3 2 1 1 0 1-1 2-3 2-2 5-1 8 0 2 3 1 5 1h7c2 0 5 0 4-3 0-3 2-7-3-7s-3-4-3-6c-1-4 2-3 4-3 5-1 8 3 12 5 1 0 2 2 3 0s2-2 3 0c2 2 3 1 4 0 1-3 3-2 5-1 4 4 8 3 11-1 2 0 4 1 6-1 5 1 3-3 4-6 0-2-1-6 1-6 8 1 13-4 20-4 2 1 5 1 5-3 0-2 2-6-4-6-4 0-3-3-2-5 3-5 6-10 6-16l1-2c4 0 6-1 6-5 0-2 2-2 3-2h14c2 0 6 2 5-3 0-5-3-3-5-3h-6c-9 0-8 0-8-8 0-3 1-6-4-5-4 0-3 3-3 5 0 8 0 8-8 8-2 0-5-1-5 2 0 5-3 4-6 4-2 1-6-1-6 2-1 3-2 6 1 8 2 1 2 4 1 5 0 2-2 2-4 2-9 0-9 0-9-9a5 5 0 0 0 0-1c0-3 2-6-3-7-5 0-3 4-3 7l-1 9v3c-2 1-2 0-3-1-2-2-5-2-8-1-2 1-1 3-1 5 0 4-2 5-5 5a72 72 0 0 0-10 0c-4 0-5-1-5-5 1-3 0-6-4-5-3 0-2-2-2-4-1-1 0-3-2-3s-2 2-2 3c1 3-2 4-4 4h-28c-3 0-4 0-4 4 1 5-2 6-6 6a59 59 0 0 0-7 0h-6c-2 0-4 0-4 3h-19c0-1 0-3-2-3-5 0-5-3-5-7v-5c0-2 0-5-3-5-4 0-4 3-4 5 1 4-1 5-5 5h-19c-10 0-9 1-8-8 0-4-2-6-6-6h-13c-3 0-4 2-4 5-1 6 3 6 7 6 10-1 10 0 10 9v1h-7c-9 0-9 0-10 9 0 2-1 3-3 3s-4 0-4-2c0-4-3-4-5-4l-11 1c-1-3 2-7-2-7-5-1-5-3-5-7 1-5-1-8-7-7l1-11c1-2 1-5-3-5-3 0-3 2-3 5s-1 5-5 5c-2 0-2 2-2 4v8c0 2 0 4-3 4-4 0-4-2-4-4v-6c0-2-1-3-3-3-1-2 1-6-3-6-4-1-4 3-4 6h-9c-1 0-3 0-3-2-1-5-4-4-7-4-4 0-9 1-11-1-4-2-2-8-2-12 0-3-1-4-4-4h-15c-4 0-5 2-5 5v9c0 2 0 3-2 3s-3-1-3-3l-1-11v-9c0-3-1-4-3-3-5-1-8 1-7 6a16 16 0 0 1 0 4c0 5 2 11-1 15-3 3-10 0-15 1-3 0-6-1-7 4 0 2-1 2-3 2h-7c-4-1-6 1-6 5 0 5 3 5 6 5 10 1 20-3 30 3 2 1 4 2 3 5a46 46 0 0 0 0 7c1 2-1 7 2 7s1-5 2-7a5 5 0 0 0 0-1c0-1-1-3 1-3 3-1 2 2 2 3a9 9 0 0 1 0 3c0 4 1 6 6 6 1-1 3 0 3 2 0 4 3 5 6 4 4 0 5 2 4 5v5c0 2 0 4 3 4 3-1 8 0 7-4 0-6 3-7 8-6a50 50 0 0 0 7 0c4-1 5 1 5 4 0 2-1 5 3 6 4 0 4 3 4 6-4-1-8 2-11-3-1-1-3 1-3 2v8c0 2-1 3-3 3s-3-1-3-3v-7c0-3-2-3-4-3s-3 1-3 3v7c0 1 0 3-2 3s-4 0-4-3c0-4-2-4-5-4h-17c-10 0-10 0-11-9 0-2 0-3-2-3s-8 5-8 7c0 4-1 5-5 5s-5-2-5-5v-4c1-3 0-4-3-4-2 0-3 1-3 4v8c0 3-1 4-4 5-5 0-7-2-6-6a67 67 0 0 0 0-7c0-2 0-3-3-4-5-1-7-4-7-9 1-7-1-8-7-7a22 22 0 0 1-3 0 19 19 0 0 0 0-3c0-2 2-5-1-6s-1 3-2 4l-1 1c-8 0-6 5-6 10 0 4 2 10-5 12l-1 1-37 1c-6 0-9 2-9 8v13c0 11 0 11-11 11-2 0-5-1-5 2 0 6-5 5-8 5-4-1-6 1-5 5a9 9 0 0 1 0 2c-1 4 0 6 5 6a110 110 0 0 1 15 0c2 0 5-2 6 3 0 5-3 4-6 4s-4 0-4 3c0 5 1 6 6 6 14 0 14 0 14-13-1-6 1-7 6-6 4 0 8 0 7-6-1-4 3-7 4-7 7-1 5-5 5-9a51 51 0 0 0 0-6c0-4 2-5 6-5h19c12 0 12 0 12 11-1 5 1 6 5 5 4 0 5 2 5 5v4c0 3 0 5 3 4 3 0 8 3 9-3 1-3 2-3 5-3a56 56 0 0 0 9 0c5-1 7 1 6 6 0 2-1 6 2 6s1-4 1-6c0-4 0-6 5-6 6-1 6 2 5 6a23 23 0 0 0 0 3c0 2 0 4 2 4s2-3 2-4v-8c5-4 2-8 3-13 1-2-3-8 3-8 5 1 3 5 3 8s0 6 4 6h26c2 0 4-1 3-4-1-6 3-7 8-6 4 0 6-2 5-6 0-2 0-4 3-4a7 7 0 0 1 1 4c-1 4 1 6 5 6s4-3 4-6v-7c0-10 0-10 10-10h4c2 0 3-1 3-3v-7c0-3 1-4 4-4 3 1 2 3 3 5 0 2-2 5 2 5 5 1 3-3 3-5 1-5 4-7 8-8h11c4 0 5 1 5 5 0 2-1 4 1 5 5 0 10 1 14-1 1 0 1-2 3-2 2 1 1 3 1 4 0 5 2 7 6 6s5 1 5 5a43 43 0 0 0 0 4c-12 0-11-2-11 10 1 7 1 7 11 7zm-255-40c-1 7 1 8 7 6a3 3 0 0 0 2-3c0-1-1-2-3-2l-7-1c0-10 2-10-10-10h-6c-4 0-4 2-4 5s0 6 4 5h17zM15 539v7l2 2 1-2v-7l1-8c0-9-1-10-10-9-3 0-4 1-4 4-1 13-1 13 10 13ZM-152 64c1 2-1 5 2 6h7c2-2 1-5 0-7 0-4-3-2-5-2a28 28 0 0 0-4-1 44 44 0 0 1 0-6c1-6-1-7-6-7s-8 1-7 6a43 43 0 0 1 0 7c-3 0-4-2-3-4v-8c0-3-1-5-5-4-4 0-5-2-5-6a23 23 0 0 0 0-4c0-1 0-3-2-3s-2 2-2 3v23c0 2 1 4 3 3 4 0 4 3 4 6s1 4 5 5c5 0 5-3 5-7zm579 173h7c10 1 10 1 10-9h3c13-1 13-1 13-13 0-3 1-4 4-4 4 0 7 1 6 6a92 92 0 0 0 0 10c-3 2-5 12-2 13 3 2 6 1 9 1 2 0 3-2 2-3-1-7 4-8 9-7h11c2 0 4 1 3 3-1 7 3 7 8 7 6 0 6-3 6-7s0-7-6-7c-2 0-6 2-7-2 13 0 13 0 13-12 0-4 1-5 5-5h11c2 0 4 0 4-2-1-5 2-5 6-5 4 1 3-2 3-5 0-2 1-5-3-5s-9 2-12 0c-3-3-1-8-1-12 0-3-1-4-3-4-3 0-4 1-4 4v8c1 3-1 5-4 4-8-2-13 4-20 4a2 2 0 0 0-1 1c-2 4-6 1-8 2-4 1-7-1-6-5l-1-1c-6 0-5-4-5-8l-2-2-2 2a24 24 0 0 0 0 3c0 3 0 4-3 4s-3-1-3-3v-3c0-3-2-3-4-3s-3 1-3 3c1 6-2 7-7 6h-5c-3 0-5 1-4 5 0 5-3 7-7 5s-6-1-9 0h-17a7 7 0 0 1-6-6 39 39 0 0 1 0-6c0-3-1-4-4-4-2 0-3 1-3 4v6c0 2-1 3-3 3s-3 0-3-2v-6c0-2 0-5-4-5-3 0-3 3-3 5-1 4 1 9-3 13-1 2-1 5 3 5 3 0 6-1 6 3 0 5-3 4-6 4-2 0-3 1-3 3v6c0 2 1 4 3 4s3-1 3-3c1-5 4-5 6-3 3 5 8 2 11 3a2 2 0 0 0 3-3c0-2 0-4 3-4 4 0 4 2 4 4 0 3 1 3 3 3s3-1 3-3c0-3 2-8-4-7l-2-2 2-2c7-2 10 1 10 8v7l-1 2c-3 4-3 8 1 9zm63 174c-3 0-4 1-4 3 1 5-1 9 2 13l1 1c12 2 15-1 14-13 0-2-1-4-3-4 0-4-3-3-5-3s-6-2-5 3zm219-137v12c0 2 1 3 3 4 16 2 18 0 17-17v-2c1-6-1-8-7-8a105 105 0 0 1-15 1c-4-1-5 0-5 4-1 5 2 6 7 6zm-822 36c-2 0-3 1-3 3s1 3 3 3c0 2 1 5-2 7s-2 5-1 8 4 2 6 2h13c4 0 4-2 4-5 0-4 0-5-4-6-9 0-9 0-9-10v-1c0-2 0-4-3-4-2-1-4 0-4 3zm547 42c-1-5-5-3-7-3-4 0-3 2-3 4a51 51 0 0 0 0 7c0 4-1 6-5 5-5 0-5 3-4 6 0 3-2 8 4 8 4-1 5 1 5 5v3c0 4 2 5 5 5s5 0 5-5v-15c4 0 10-3 10 5l4 1h7c4 1 5-1 5-5 0-5-3-4-6-4-4 0-7 1-8-5 0-12 0-12-12-12zM-2 254h-6c-3 0-7 0-6-5 0-2-2-2-4-2l-3 2c0 3-1 5-4 5-2-1-3 1-3 3 1 2-1 6 2 6 6 1 5 4 5 7-1 6 2 8 7 7 0 2 1 3 3 4 0 15-1 12 9 12 0 5 1 7 7 7 6-1 3-5 3-8 1-11 1-11 12-11 3-1 5-1 5-5v-15c0-2 2-8-5-8-4 1-9-1-8 7 0 1 0 3-2 3s-2-2-1-4c0-4-2-6-6-6l-5 1zm354 124v-2c0-7 0-7-7-7h-11c-3 0-4 1-4 4s0 5 4 5h18v21c0 4 1 6 5 5h17c3 0 4 1 5 5 0 4-2 9 1 11 3 3 8 1 12 1a7 7 0 0 0 2 0c6-1 8 2 7 7-1 6 4 6 7 6 4 1 3-3 3-5v-6c1-4-1-6-5-5-3 0-5 0-5-4s-3-3-5-3-5-1-5 3c0 2 0 4-3 4-3-1-3-3-3-5v-4c0-4 1-5 5-5a23 23 0 0 0 3 0c2 0 5 1 5-2 0-4-3-3-5-3l-11-1c0-11 1-9-9-10h-1v-6c0-2-1-4-3-4l-1-9c0-2-1-3-3-3s-3 1-3 3v9zM5-5h-8c-4 0-8-2-8 5 0 2-3 2-4 2h-20c-2 0-5-1-5 3s3 3 6 3a95 95 0 0 0 11 0c4 0 6 1 5 6 0 2 1 3 3 4a3 3 0 0 0 4-4c0-6 3-6 7-6h9c0 3 1 4 4 4h9c1 0 3 0 3 2 1 4 7 6 9 4 3-4 7-3 10-3 10 0 10 0 11 9 0 2 0 4 3 4s4-2 3-4l1-3c-1-5 1-7 6-6a10 10 0 0 0 3 0c2-1 6 1 7-2 2-4-2-5-4-7 0-2-3-1-4-1-3 0-6 0-5-4 0-2-1-3-3-3H44l-3 2c0 4-1 7-4 2H19c-5 0-8-1-7-7 0-1 0-3-3-4-2 0-4 1-4 4Zm311 161v-8c0-1 0-2-2-2l-1 2v8c-9 0-9 0-10-9a12 12 0 0 0 0-2c0-2-2-3-4-3s-2 2-2 3v7c0 2-1 4-4 4s-3-2-3-4v-9c0-2 0-4 4-4s4-3 2-5c-3-3-7-2-10-2s-3 3-3 5v18c0 8 0 7 8 8 5 0 12-4 14 5h1c3 1 4 3 3 6 0 4 2 5 6 5 8-1 8-1 8 8a22 22 0 0 1 0 3c-1 3 1 4 5 5 7 1 13-4 19-3 2 0 5 0 5-2s-3-1-4-1c-5 0-6-2-6-6s2-5 6-5h10c3 0 5 0 5-3-1-3-2-3-5-3h-12c-1 0-4 0-4-3s-1-4-4-4-6 0-6 4c0 2-1 3-3 3h-10c-2 0-3-2-3-4v-12zm331 23h-4v-15c0-3 0-5-5-5-4 0-4 2-4 6v26c-1 6 1 6 6 7 7 1 12-5 18-4 4 1 5-1 5-4s-1-5 1-7l17-1c1 6 4 9 8 12-1 9 5 7 10 7a99 99 0 0 1 11 0c4 1 5-1 6-6 0-5-2-7-7-6h-7c-4 0-7-1-6-6 0-3-1-5-4-5-6 1-7-2-6-6v-6c0-3-2-5-5-4h-17c-3 0-4 1-4 4 0 4 1 9-1 11-3 3-8 1-11 2zM116 467v6c1 3-1 7 4 7s7-1 7-6c-1-3 1-4 3-4 4 0 9 2 12-1s0-8 0-12v-3c2 0 4 0 4 2-1 7 2 8 8 7 2 0 5 2 5-2 1-3-1-4-4-4-4-1-2-4-2-6-1-2 0-4 2-4 3 0 4 1 4 4 0 2 1 3 3 3 7-2 7 3 7 8 0 3 0 5 3 5h26c2 0 3-1 4-3 0-9 2-10 11-10h9c1 0 2 0 2-2l-2-1-9-1h-10c-3-2-1-6-1-10-1-2-2-3-4-3s-3 1-3 3v6c0 3 0 5-3 4-3 0-3-1-3-3-1-4 2-10-2-12-3-3-8-1-12-1a14 14 0 0 0-2 0c-5 0-8 0-7-6 0-2-1-4-3-4s-4 1-4 4v3c0 2-1 3-3 3s-3-1-3-4c-1-2 1-4-2-6-2-1-5-3-4-5 1-3 4-1 7-1a8 8 0 0 1 1 0c2 0 5 0 4-3 0-3 3-7-3-7-1-3 3-8-3-9-3-1-4-3-4-6 1-3-1-5-5-5s-5 1-5 5c0 2 1 5-2 5-7 2-11 0-10-7 0-5-2-6-7-6H80v-7c0-2-1-3-3-2h-9c-5-1-13 0-11-9 2-6-3-5-6-5s-7-1-7 5c0 8 0 8-8 8h-5c-2 0-3-1-3-3v-11c0-2 2-2 4-2h6c2 0 3-1 3-3 2-8 0-11-8-11h-3c-4 0-5 2-5 5 0 9-1 9-9 9-9 0-7-1-7 7 0 3 0 6-4 6-6-1-7 2-6 7a43 43 0 0 1 0 5c0 14 0 14 14 14 4 1 9-2 13 3 1 1 2 0 2-2 0-4 2-4 5-4 6 0 12-1 17 3 1 2 2 3 4 3h9c2 0 4 1 4 3 0 4 2 4 5 4s5-1 5-4c0-2 2-3 4-3h19c2 0 3 0 3 2s-2 1-3 1H86c-4 0-6 2-6 7 0 2 1 6-1 6-6 1-5 6-5 9 0 4-1 6-4 5-5 0-6 2-6 6a19 19 0 0 1 0 4c0 1 0 3-2 3l-1-3a16 16 0 0 1 0-4c1-5-2-6-7-6-6 1-3 5-3 8-1 2 0 5-3 5s-3-2-3-4a12 12 0 0 1-1-3c0-5-2-6-6-5-5 0-8-2-7-7 1-6-1-8-6-7-4 1-7-1-7-5a39 39 0 0 1 0-5c1-3 0-6-4-6s-6 1-5 5v6c0 4-2 5-5 5h-19c-13 0-13 0-13-12v-4c0-2 0-3-2-3-5 0-4-4-4-7v-9c0-4-2-5-5-5h-22c-3 0-8-1-10 1-4 2-2 6-2 10 0 2-1 3-3 3-3 0-4-1-4-3v-7c0-2-1-4-3-4v-5c0-1 0-4-2-4-3 1-2 3-2 4a47 47 0 0 0 1 6l-1 9c0 2 0 4-3 4v-7c0-2 0-3-2-3-8-2-11 0-11 8v2c-13 0-13 0-13 13v6c0 2 0 4 3 3 4 0 4 3 4 6 0 8 0 8 8 8h3c3 0 8-1 10 1 3 2 1 6 1 9 1 2 2 3 4 3s3-1 3-4v-6c0-2 1-3 3-3 3 0 4 1 4 3v4c0 3 0 6 4 6 1 0 3 1 2 2-4 3-3 6-3 9 0 9 0 9-8 9h-2a8 8 0 0 0-2-1c-7 1-9-2-8-8a11 11 0 0 0 0-1c1-4-2-4-5-4s-5 1-4 4v18c-1 4 1 5 4 5h15v5c0 3 2 8-5 9-3 0-1 6-2 9 0 3 3 2 4 3 5 0 7-2 7-6-1-2-1-4 1-4s2 2 2 4c-1 5 1 6 6 6h22c4 0 5-1 5-5-1-4 1-5 5-5h12c3 0 6 0 5-3s3-10-5-10c-2 0-4 1-5-3v-8a2 2 0 0 1 3-3c6 1 7-2 7-7a17 17 0 0 1 0-4 1 1 0 0 1 1-1l2 1c-1 4 2 9-1 12-2 4-1 7-1 10 0 2 2 3 4 3 3-1 2-2 2-4-1-5 0-7 5-6H4c9 0 8 0 8-8 0-2-1-4 2-4 2 0 1 2 1 4 0 9 0 8 8 8 9 0 9-1 8 8 0 4 2 6 6 5 8 0 8-1 8 8 0 3 1 5 5 5s4-2 4-5c0-8 0-8 8-8h2c10 0 10 0 10-9 1-2 1-5 4-4 5 1 6-2 6-7-1-3-1-6 4-6s6 2 6 6a7 7 0 0 0 11 6c3-2 1-5 1-8 1-2 0-4-3-4-6 1-6-2-6-7 0-13 0-13 13-13a50 50 0 0 1 0 5c0 4 2 9-5 9l-1 1a1 1 0 0 0 1 2c6-1 5 4 5 7 0 5 1 8 6 9zm298-347c-7-2-6 3-6 7 0 8 0 8-8 8-12 0-12 0-12-11 0-2 0-4-3-4-3-1-3 2-3 4v12c0 7-3 10-10 10l-23-1a26 26 0 0 0 0-5c-1-2 2-7-3-8-6 0-4 6-4 8 0 5-1 6-5 6-4-1-5 1-5 4 1 13-2 12 12 12h5c9 2 19-2 29 3 3 1 7-1 9 1 3 2 1 6 2 10 0 1 0 2 2 2 1 0 3 1 3-1 0-4 2-6 6-5 3 0 6-2 8 2 2 2 6 3 7-2 0-2 0-4 3-4 3 1 3 3 3 5v18c1 2 1 3 4 3 2 0 2-1 2-3v-6c0-2 1-3 3-3 7 1 8-3 7-9v-6c0-6 2-9 8-8 4 1 5-1 5-5v-20c0-2 0-4-3-4s-3 2-3 4c0 8 0 8-8 8a43 43 0 0 0-6 0c-7 1-8-9-15-8v-8c3 0 7 1 6-4 0-6 2-6 6-6h4c2 0 3-1 3-3 0-3-1-4-3-4h-27c-2 0-3 2-3 4s1 3 4 3h6c2 0 3 1 3 4zm-154 73c5-2 9-1 13-1 3 0 4-1 4-4 0-16 2-12-12-13-3 0-5 1-4 5 0 4-2 5-6 5h-17c-2 0-4 0-4 3s2 4 4 4h11c4-1 5 1 5 5 0 2 0 3 2 5 2 1 2 12 0 12h-10c-3-1-1-4-2-7 0-2 2-5-1-5-3-1-6-2-9 1-2 3-6 2-6-2 0-3-3-4-4-6-1-1-3-2-2-5 0-4-2-5-6-5h-5c-4 1-7-1-6-6 0-2 0-4-3-4h-11c-2 0-3 1-3 3s1 4 3 4h4c2 0 3 0 3 3 0 2-1 3-3 3h-10l-3-2c1-6-2-12 3-18 2-3 1-7 0-11 0-2-3-1-5-1s-4-1-4 1c0 6-6 11-4 17v7c0 2 0 4-3 4-4 0-4 2-4 5a70 70 0 0 1 0 9c0 4 1 6 6 6h16c1 0 4-1 4 1 0 3-3 2-5 2a48 48 0 0 1-5 0c-2 0-2 1-2 3s0 3 2 3a13 13 0 0 1 4 1c5 1 13-5 14 5a1 1 0 0 0 0 1c5 0 10 0 10 7 5-1 8 3 13 3h20c3 0 6 0 6-4 0-3 3-2 4-2h30c1 0 4 0 4-2 0-7 6-5 9-5 2 0 5 1 5-2 0-6 4-5 8-5 4 1 5-1 5-5s-1-5-5-5h-6c-4 1-6-1-5-5 0-9 1-8-9-8h-3c-4-1-5 1-5 5 0 8 0 8-9 8h-5c-1 0-2 0-2-2 0-3-1-4-4-6zm-20 215 22-3c8-3 8-1 9-9v-1c0-2 1-3 3-3s2 1 2 3v8c0 4 2 5 5 5s6 0 5-5c0-4 2-5 6-5 2 1 4 1 4-2 0-5 4-4 7-4h11c3 0 6-1 6-5s-3-6-6-5h-8c-3 0-6 0-6-5 0-2-2-2-4-2-1 0-3 0-3 2 1 5-2 5-5 5h-8c-3 0-4-2-3-5v-11c0-1 1-3-1-3-2-1-2 1-2 2 0 2-1 4-3 4-4 0-4 2-4 5v7c0 2-1 4-3 4-8-1-8 3-7 8 0 3-1 5-4 5-3 1-7 1-8-2-1-5-4-4-7-4-3-1-4 1-4 4 0 2-2 2-3 2h-7c-3 0-3 3-3 5 0 3 0 5 3 5h16zm-424-243a64 64 0 0 1 0 7c-1 5 0 7 5 7 3-1 4 0 4 3 0 5 4 3 7 3s3-3 3-5v-10c0-1-1-3 2-4 2 0 1 2 1 4a67 67 0 0 1 0 7c0 4 1 5 5 5 3 0 5-1 5-5 0-11 0-11 12-12 2 0 3 0 4-2 3-5 0-11-6-11h-9c-7 0-7 0-7-7 0-10 0-10-9-10-10 0-10 0-11 11 0 2 1 6-2 6-4 0-4 3-4 6v7zm85-206h-12c-4-1-6 1-5 5 0 2 0 5-4 5-3 0-3 2-3 4 1 5 1 10-7 9a2 2 0 0 0-2 2l1 1c7 0 14 2 20 0 5-3 9-3 13-3 8 0 8 0 9-8 0-2-1-5 2-5 6 0 4-5 4-7 0-4-3-3-6-3h-10zm44 0h-11c-2 0-5 0-4 3 0 3-2 7 3 7 3 0 3 2 3 4 1 4-2 9 1 11 4 3 9 1 13 1h5c3 1 5-1 5-4v-10c2-4 7-2 10-2 1-1 2-1 2-3 0-1 1-4-1-4-6 1-11-2-17-3h-9zm-58 55h-10l-3 3c-2 7 0 11 8 11h3c3-1 6 0 6 4-1 2 2 2 3 2 2 0 6 1 6-1 0-6 4-6 7-5 3 0 4-2 4-4-1-2 1-6-3-6-8 1-14-6-21-4zm-36 174h-10c-2 0-3 2-3 4 1 2-1 5 2 5 6 1 5 5 5 9 0 2-1 4 2 5 6 3 11 0 11-7 0-2-1-6 3-6 5 0 3-3 3-6 1-4-2-4-5-4h-8zM234 26c0 12 0 12 11 12h4c2 0 4 0 4-2 1-3 2-7 0-8-7-1-5-6-5-10 0-1 0-3-3-4-8-1-11 2-11 10v2zM-57 216v7c0 3 1 5 4 5h9c2 0 4-1 4-3-1-2 1-6-2-6-7-1-5-6-5-9 0-4-1-6-5-5-4 0-6 1-5 5a54 54 0 0 1 0 6zM-77 5a17 17 0 0 0-3 0c-2 0-6-2-6 2-1 4-2 8 4 8 2 0 2 2 2 4v6c0 2 1 3 3 3s4-1 4-3v-7c0-2 0-3 2-3 6 0 4-4 4-7 0-4-3-3-5-3h-5zm282 239h-14c-2 0-3 1-3 3s1 4 3 4h4c3 0 7-1 7 4 0 2 2 3 4 3s2-2 2-3c0-4 2-4 5-4h5c3 0 4-2 4-4 0-3-2-3-4-3h-13zm432-5c0-12 0-12-12-12a20 20 0 0 1-2 0c-5 0-6 2-6 6s2 5 6 5c10 0 10 0 11 10l1 3c2-1 2-2 2-3v-9zm89-254v5c0 9 0 9 8 8 2 0 4 1 4-2v-12a2 2 0 0 0-2-2c-5 0-8-2-7-7 0-2-1-3-2-3l-1 3v10zM588 164v-6c1-3 0-6-5-6s-5 3-5 7v10c0 4 0 6 5 6s6-2 5-6v-5zM179 489c-2 2-7-1-7 4s4 3 7 3 7 0 7 5c0 2 1 2 3 2 1 0 2-1 2-3 0-3 2-4 5-4 2 0 5 1 5-3s-3-3-5-4c-6 0-11 3-17 0zm403-274c-2 1-5-2-7 1-3 6 0 11 7 11a15 15 0 0 1 2 0c5 1 7-1 7-6 0-7-4-7-9-6zm-793-79v-3c1-4 1-7-5-7-5 0-5 3-5 7a64 64 0 0 1 0 7c0 4 1 6 6 6 4 0 5-2 5-6l-1-4zm461 341v-5c1-3 0-6-4-6-5 0-5 3-5 6a101 101 0 0 1 0 10c0 4 1 5 5 5 3 0 5-1 4-5v-5zm194-305c-2 6 1 6 6 7 6 0 7-2 7-8 0-5-2-6-7-6s-8 1-6 7zM330 37c0 10 0 11 9 10 2 0 3-1 3-3s1-5-1-6c-5 0-6-3-6-7 0-2 0-3-2-3-3 0-3 1-3 3v6zm107-73v-2c1-4 0-7-5-7s-5 3-5 7a29 29 0 0 1 0 4c0 5 2 6 6 6 7 0 3-5 4-8zm305 259v-1c-1-4 1-8-6-7-6 0-4 3-5 7a27 27 0 0 1 0 3c0 5 2 6 6 6 7 0 4-5 5-8zm-65-8c-5-1-8 0-7 6 0 4 0 7 6 7 4-1 7-1 7-6-1-5 0-9-6-7zM131 506h-2c-3 0-6 0-6 5s3 4 6 4h6c1 0 3 1 4-1 0-2 1-5-1-7-1-2-5 0-7-1zM714-31c5 0 8 1 8-5s-3-6-6-5c-4 0-7-2-7 4s2 6 5 6zm-55 164c4 0 8 1 8-5s-4-5-7-5-7-1-7 5 3 5 6 5zm2 108c2 0 6 1 6-5s-3-5-7-5c-3 0-7-1-7 5s3 5 8 5zM604-25c0-3 1-7-5-6-5 0-5 3-5 6 0 4 0 7 5 7 6 1 5-3 5-7zM35 234c-3 0-7-1-7 5 0 5 2 5 6 5s7 1 7-5-3-5-6-5zM362 5c-3 0-7-1-7 5 0 5 3 5 7 5s7 1 7-5-3-5-7-5Zm174 236c3 0 6 0 6-5 0-6-3-5-6-5-4 0-8-1-8 5 0 5 4 5 8 5zM427 2c0-3 2-7-5-7-5 0-4 3-4 6 0 4-1 8 5 7 5 0 4-3 4-6zm262 265c2 2-2 6 3 7 4 0 4-2 4-5 0-4-2-9 5-9a1 1 0 0 0 1-1c0-2-1-2-2-2-5-1-11 5-11 10zM460 147v-4c0-2 0-4-3-4s-4 2-4 4v9c0 3 1 4 4 4 2 0 3-1 3-4v-5zm-138-22c3 2-2 8 4 8s3-6 3-9c0-2 3-8-3-8s-2 6-4 9zm168 62c-1 4 1 5 5 5s5-1 5-5-1-6-5-6-6 2-5 6zM-4 363c1-4-2-4-6-4-3 0-5 0-5 5 0 4 2 5 6 5s5-2 5-6zm-45 183c4 0 5-1 5-5s0-6-5-5c-3 0-5 0-5 4s0 7 5 6zm61-320c1-5-2-5-5-5-4 0-5 1-5 5s1 5 5 5 6-1 5-5zM-198 64v-2c0-3 1-5-3-5-3 0-4 2-4 4v6c0 2 1 4 4 4 2 0 3-1 3-4v-3zm72-118c-2 0-4-1-6 1-1 1-1 4 1 5a16 16 0 0 0 11 0c2-1 2-3 1-5-2-2-5-1-7-1zm645 275c1 3-1 6 4 6 4 0 3-3 3-6 0-2 1-6-4-6s-2 4-3 6zm213-27c-2 1-6-1-6 4 0 4 3 3 6 3 2 0 6 2 6-3s-4-3-6-4zM149 521c1-3 0-5-4-5s-5 1-5 5c0 3 1 5 5 5 3 0 5-1 4-5zM-30 213c-1-3 0-5-4-5s-4 2-4 5c0 2 0 5 4 5s3-3 4-5zm140 141c0-3 1-5-3-5s-4 2-4 4c0 3 0 6 4 6s3-3 3-5zm138 150c0-2 0-5-4-5s-3 3-4 6c0 2 1 5 4 4 4 0 4-2 4-5zm-380-193c0 2-2 5 3 5 4 0 3-2 3-5 0-2 1-5-3-5s-3 3-3 5zm104-26c0 2 0 5 4 5s3-3 3-5c0-3 1-5-3-5s-4 3-4 5zm-19 221h8l2-1a2 2 0 0 0-2-2h-16a1 1 0 0 0-2 2 2 2 0 0 0 2 1h8zm399-290c0-2 1-5-3-5s-3 3-3 5c0 3-1 5 3 5s3-2 3-5zm-478-10c0-2 1-5-3-5s-3 3-3 5-1 5 3 5 3-2 3-5zm701-25c0-4 0-6-4-6s-3 3-3 5c0 3 0 5 4 5s3-3 3-4zM-147-38c2 0 5 1 5-3s-3-4-5-4c-3 0-5 0-5 4s2 3 5 3zm699 61c0-3 0-5-4-5s-3 3-3 5 0 5 4 5c4-1 3-3 3-5zm-703 221c3-1 8 2 8-2 1-2-5-2-8-1-2 1-7-3-7 1s5 1 7 2zm-20-272c-1-2 1-6-2-6s-2 4-2 6-1 6 1 6c4 0 2-4 3-6zm160 550c0-2-1-3-3-3-3 0-4 1-4 3 0 3 1 4 3 4 3 0 4-1 4-4zm596-321c3 1 3-1 3-3s-1-3-3-3c-3 0-4 0-4 3s2 3 4 3zm30 20c-2-2 1-6-3-6-2 0-1 4-1 6 0 3-2 6 2 6 3 0 0-4 2-6zm-383 69c2 0 2-1 2-3 0-3-1-4-3-4-3 0-3 1-3 4 0 2 1 3 4 3zm382-42v-4c0-2 0-3-2-3s-2 2-2 3l1 7 1 3c2 0 2-2 2-3v-3zm-173-60c0-2-1-3-4-3s-3 1-3 3c0 3 1 4 4 4 2 0 3-1 3-4zM185 519c1-2 0-3-3-3-2 0-3 0-3 3 0 2 0 4 3 4 2 0 4-1 3-4zm376-373c3 0 4 0 4-3s0-4-3-4c-2 0-4 0-4 3 0 2 1 4 3 4zm-254 95c0-3-1-4-4-4-2 0-3 1-3 3-1 3 1 4 3 4 3 0 4-1 4-3zm294 6c-1-2 1-6-2-6s-1 4-1 6c0 3-2 6 1 6 4 1 1-4 2-6zM-155 79c-1-2 1-5-2-5s-2 3-2 5c0 1-1 4 2 4s2-2 2-4zm596 49c-1-2 1-5-3-5-2 0-1 3-1 4 0 2-1 5 2 5 3 1 1-2 2-4zm88 121c-1-1 2-5-2-5-3 0-2 3-2 5 0 1-1 4 2 5 3 0 2-3 2-5zm-289 26c1 2-1 5 3 5 2 0 1-3 1-5 0-1 1-4-2-4-2 0-1 3-2 4zm190 44c2 2-1 6 2 6s2-4 2-6 2-6-2-6c-3 0-1 4-2 6zm196-62c-2 0-5-1-5 2-1 2 2 2 4 2 2-1 5 1 5-2s-2-2-4-2zM342 116c-2 0-3 1-3 3 0 3 1 4 3 4s4-1 4-3-1-4-4-4zm79 421c0-1 1-4-2-4s-2 3-1 4c0 2-2 5 2 5 2 0 1-3 1-5zm216-211c-1-2 2-6-2-6-2 0-1 4-1 6s-2 6 2 6c2 0 0-4 1-6zm-108 34c0-1 1-4-2-4s-2 3-2 5c0 1-1 4 2 4s2-3 2-5zM36 41c2 0 5 1 5-2s-3-2-5-2-4-1-4 2 3 2 4 2zM-83 347c0-2 1-5-2-5-3 1-2 3-2 5s-1 5 2 5 2-3 2-5zm570-174c-1-1 1-4-2-4s-2 3-2 4c0 2-1 5 2 5s1-3 2-5zM-73 360c-1-1 1-4-2-4s-2 3-2 4c0 2-1 5 2 5s1-3 2-5zM788 21c-2 0-4 1-4 3 1 2 0 4 3 5 2 0 3-2 4-4 0-2 0-4-3-4zM368 356c0-2 0-4-2-4-3 0-4 1-4 3 1 2 1 4 3 4 3 0 3-1 3-3zM231 462c-1-2 1-5-2-5-2 0-1 3-1 5s-1 5 1 5c3 0 1-3 2-5zm319-195c2-1 5 1 5-2 0-2-3-1-4-1-2 0-5-2-5 1s3 2 4 2zM-77-49c0-2 1-5-1-5-3 0-2 3-2 5 0 1-1 4 2 4 2 1 1-2 1-4zm-26 573c0-1 1-4-1-5-3 0-2 3-2 5 0 1-1 4 2 5 2 0 1-3 1-5zM752-49c-1-2 1-5-2-5-3 1-2 3-2 5s-1 5 2 4c3 0 1-3 2-4zm-861 560c-1-2 1-5-2-4-3 0-2 3-2 4 0 2-1 5 2 5s1-3 2-5zm-26-537c-1-2 1-5-2-5s-2 3-2 5c0 1-1 4 2 4 2 0 1-3 2-4zm25 95c1 1-1 4 2 4 3 1 2-2 2-4 0-1 1-4-1-5-4 0-2 3-3 5zm1 468c-1-1 1-4-2-4s-2 3-2 5c0 1-1 4 2 4s1-3 2-5zM2 350c1 2-2 5 2 5 2 0 1-3 1-4 0-2 1-5-1-5-3 0-2 3-2 4zM88-5c2-1 5 1 5-2 0-2-3-1-4-1-2 0-5-1-5 1 0 3 3 1 4 2zm-223-61c-1-1 0-4-2-4-3 0-2 2-2 4s-1 5 2 5c2 0 1-3 2-5zm252 410c-1-2-2-2-4-2-1 0-3 0-3 2s2 2 3 2 3 0 4-2zm-236-150c0-1 0-3-2-3-2 1-2 2-2 3 0 2 0 4 2 4s2-2 2-4zm57-173c-2 1-2 2-2 4 0 1 0 3 2 3 3 0 2-2 2-4 0-1 0-3-2-3zM71 369c0-2 0-3-2-4-2 0-2 2-2 3 0 2 0 4 2 4s2-2 2-3zM-72 38c2-1 2-2 2-3 0-2 0-4-2-4s-2 1-2 3c0 1 0 3 2 4zm280 483c0-2 1-4-1-4-3 0-2 3-2 4 0 2-1 5 2 4 2 0 1-3 1-4zm75-341c0-2 1-4-2-4-2 0-1 2-1 4s-1 5 1 5c3 0 2-3 2-5zM12 340c-1-2-2-2-4-2s-3 1-3 3 2 2 4 2 3 0 3-3zm583-14c-1-1 0-3-2-3s-2 2-2 3 0 3 2 3 2-2 2-3zm106-50c-3 5-1 8-2 12a2 2 0 0 0 2 1l1-2c0-3 1-6-1-11zm51-88c0-1 0-3-2-3s-2 2-2 4c0 1 0 3 2 3 2-1 1-3 2-4zm-191 72c2 0 4 1 4-1s-2-2-3-2-3 0-3 2c-1 2 1 1 2 1zm-242 40c1 1 0 3 2 3s2-2 2-3 0-3-2-3-1 2-2 3zM750-2l-2 3c0 1 0 3 2 4l2-3c-1-1 0-3-2-4zM519 349l-3 1c0 2 2 2 3 2s3 1 3-2c0-2-2-1-3-1zm-536-56c-2 0-3 0-4 2l3 1c1 0 3 1 3-1s-1-2-2-2zm540 125c-1-2 0-3-2-3s-2 1-2 3c0 1 0 3 2 3s1-2 1-3z" class="cls-4"/><path id="path551" fill="#b4c0c8" d="M431 529v12c-1 3 1 4 4 4 2 0 2-2 2-4v-8c0-2 1-4 4-4s3-2 3-4c0-3 1-6-3-6-3 0-4-2-4-5s1-4 4-5c6-1 2-5 3-8s-1-5-4-5h-3c-13 0-13 0-13 12 0 4-1 5-4 5-4 0-6-1-5-5v-8c0-3-1-4-4-4-2 0-3 1-3 3a30 30 0 0 0 0 4c1 5-2 7-7 7s-7-2-7-7c1-4 0-7-5-7-6 0-3-5-4-7 0-3 0-6 4-5 5 0 6-3 5-7 0-2-1-6 2-7 5-1 10-1 14 1 2 1 1 4 1 7s0 6 5 6c2 0 2 1 2 3v5c0 1 0 3 2 4 2 0 2-2 1-4 0-4 2-5 6-5h15c3 0 5 0 5 4-1 4 1 5 5 5h17c4 0 5-1 5-4s-1-6-5-5-6-2-6-6c1-4 2-8-4-8-3 0-2-3-2-5 0-8 0-8-8-8-3 0-5 0-5-3 0-2-1-3-3-3s-3 0-4 3c0 1 0 3-2 3-4 0-4 3-4 6 0 8 0 8-10 7l1-3-1-7c0-4 1-6 6-6a2 2 0 0 0 1 0 9 9 0 0 0 2 0c-2-7 10-5 8-12-1-4-2-8 4-8 3 0 2-4 2-5-1-6 2-8 7-7a12 12 0 0 0 4 0c4-1 6 1 5 5 0 3-1 7 5 8 3 0 2 4 2 6 0 4 0 8 6 7 2-1 3 1 3 3 0 4 3 3 6 3 3 1 4 0 4-3s2-3 4-3h15l3 1c3 3 6 2 9 2 2 0 4-2 5 0 1 3-2 3-2 4-2 5-2 10 0 14 2 3 7 1 10 1s3-2 3-4c0-12 0-12 12-12 3 0 8 2 7-5l3-1h10c1 0 3 0 3 2 0 3 1 5 5 5a861 861 0 0 0 2 16v-1c-6 0-8 2-7 7a80 80 0 0 1 0 12c0 4 1 6 5 5 4 0 6 2 5 6v6c0 3-1 4-3 4-8 1-15 3-22 2-4 0-4 2-5 5-1 9 5 16 4 25h1l1-1c0-2 1-4 3-4 3 0 1 2 2 4a18 18 0 0 1 2 9 3 3 0 0 0 3 3c4 0 4 2 4 5v8c-5-1-8 1-7 6a19 19 0 0 1 0 4l-2 2c-4 0-4 2-4 5 0 2 1 5-3 5h-26c-5 0-8 1-7 7a63 63 0 0 1 0 6c-2 2-7-1-7 4h-9v-3c6 1 6-3 7-7 0-2-1-3-3-3-3 0-5 0-5 3v6a81 81 0 0 1-16 0c0-3 1-6-1-9a2 2 0 0 0-1 0c-2 3-1 6-1 9-2 2-7-1-7 4h-91v-14c0-1 0-2-2-2-2-1-2 1-2 3v9h-11c-4 0-5 1-5 4h-78c0-2 0-4-4-4-3 0-3 2-3 4h-16v-7h8c4 1 5-1 6-5 0-4-2-5-6-5-8 0-8 0-8 9v1a32 32 0 0 0-5 0c-4 1-7-2-11-3-6-2-3-6-3-9-1-3-2-5-5-4-3 0-2 2-2 4 0 5-3 11-6 11-5 2-4 5-4 8h-10c1-6-1-7-7-7a182 182 0 0 1-22 0c-6 0-8 2-7 7h-7c1-4 0-7-6-7-5 1-3 4-4 7h-2c-1-2 2-6-3-6-6-1-4 3-4 6h-17v-3c0-7 0-7-7-7H94c-10 0-10 0-11 10H57c1-2 0-3-2-3l-4-3c0-4-3-4-6-4-14 0-14 0-14-13 1-3 3-3 5-3h35l6-1c3 0 4-1 4-4s-1-5-4-5c-2 0-5 1-6-2v-10c2-3 7-1 10-2 3 0 2 3 2 5v1c0 7 5 10 12 8 3-1 2-4 2-6 0-4-1-8 5-8h1c1-7 7-6 11-7 3 0 3-2 2-4 0-5 0-9 7-8 4 1 4-3 4-5 0-7 3-9 10-7 3 1 2 4 2 6 0 6 2 7 7 6l3-1c-1-7 7-13 3-20l-3-12c4 0 7-1 7 5 0 3 4 2 6 2 6-1 8 2 7 7v4c-1 4 1 5 4 5h21c3 0 5 1 4 4-1 5 2 7 7 6a62 62 0 0 1 7 0v8c0 3-1 5-4 5l-3 1c1 6-3 5-7 5 1-5-1-7-6-6a17 17 0 0 1-3 0c-3 0-4 0-4 3s1 3 4 3h9v17c-7 0-7 1-7 9 1 3 1 4 4 4s3-2 3-4v-9c6 1 8-1 7-7 0-3-1-7 5-6 2 0 2-3 2-4-1-5 1-6 5-6h4c5 1 8-1 7-6-1-6 1-8 7-7h20c4 0 6-1 6-5-1-4 1-6 5-5h5c5 0 8-1 7-6l1-3c7 0 4-5 4-9 1-2 0-4 3-5 8-1 8-1 7-10h10c2 0 3 1 3 3-1 6 2 8 7 7h10v13h-7c-4 0-7 1-7 6 1 5-3 4-5 4-6-1-8 1-7 7 0 6 0 6-10 6v-13c6 0 8-1 7-7-1-3-2-3-4-3s-3 0-3 3v7c-6-1-7 1-7 7s1 7 7 6v11c0 3 0 6-5 5a2 2 0 0 0-2 2c1 2 2 2 3 2h37l3-2-3-2c-11-1-11-1-10-12 0-3 1-4 4-4 10 0 10 0 9 9 0 5 3 4 6 4s7-1 7 4-1 7-6 6c-6-1-8 2-7 7v13c0 3-1 6 5 7 2 0 2 3 2 5-1 3 1 5 5 4h23c3 0 5-1 5-4 0-9 0-9 9-9 5 2 7 1 7-5l1-5c9 1 9 1 8-8 0-1-1-4 1-4 8-1 5-7 6-11h14c5 1 7-1 6-6a26 26 0 0 1 0-3c6-1 6 2 6 6-1 6 2 7 6 6 2 0 4 0 4-3-1-3 2-8-2-9-5-1-5-4-5-8l1-9zm-41 59h13c3 0 5 0 5-5 0-4-2-5-5-4h-7c-8 0-8 0-7 8zm71-75h-10c-2 0-4-1-4 1s2 2 4 2a61 61 0 0 0 9 0c5 0 8 2 7 7 0 3-1 6 3 6 9 1 9 1 10 10v3c0 3 1 4 3 4h16c4 0 4-3 4-6 0-2 0-4-4-4-9-1-9-1-9-11a29 29 0 0 0 0-3c-1-4 1-6 5-6h17l3-1c1-2-1-2-2-2-4 0-4-3-4-5v-7c0-15 0-15-14-14-4 0-5 1-5 5 0 7-1 7-8 7-3 0-6 1-6 4-1 10-1 10-11 10zm67 52h14c2 0 3-1 3-3s-1-4-3-4h-6l-3-1c-3-6 0-11 6-11 4 0 6 0 6-5 1-5-2-6-6-5a78 78 0 0 1-9 0c-3-1-4 1-4 4 0 2 1 5-2 5-6 1-5 4-5 7s1 7-4 7c-3-1-3 2-3 3a2 2 0 0 0 3 3zm-78 33h10c2 0 4 1 4-1 1-3-2-2-3-2-2-1-2-2-2-4a3 3 0 0 1 3-3 31 31 0 0 1 5 0c3 0 5-1 5-4-1-5-4-7-10-6-2 0-6 2-7-2a1 1 0 0 0-2-1l-1 2v11c0 3-1 3-4 3-2 0-3-1-3-3v-9c0-2 0-4-3-4-2 0-3 1-3 3 0 3 0 5-2 7-3 3-2 8-1 11 1 4 5 2 7 2a55 55 0 0 0 7 0zm40-40h-9c-3 0-5 1-5 4s2 3 4 3h12c9 0 9 0 10 10a10 10 0 0 0 0 1l4 3c2 0 3-2 3-3-1-4 3-10-5-11l-1-3c0-3-2-4-5-4h-8zm6 33c4 0 7 1 7-4 0-6-3-6-7-6s-7 0-7 5c0 6 4 5 7 5zm-46-140c4 0 7 0 7-5 0-6-3-6-6-6-4 1-8-1-8 5s3 6 7 6zM269 555c4 0 8 1 8-5 0-5-3-4-7-4-3 0-6-1-6 4s2 5 5 5zm-111 3c1 0 4 1 5-2 0-2-1-4-3-4-6 0-8-1-7-7a2 2 0 0 0-2-2 2 2 0 0 0-1 1c-3 5 1 8 3 12 1 3 3 2 5 2zm99 14c-1-2 1-5-1-6a4 4 0 0 0-5 0v12a4 4 0 0 0 5 0c2-1 1-4 1-6zm210-105c0 2-1 4 1 6a4 4 0 0 0 5 0v-12a4 4 0 0 0-5-1c-2 2-1 4-1 7zm-332 85c3 0 4-1 4-5 0-3 0-5-4-5s-5 1-5 5c0 3 1 5 5 5zm317 12c0-3 1-6-3-6s-4 3-4 6c0 2 0 5 4 5s3-3 3-6zm-49-71c2-1 5 1 5-3s-3-3-5-3-5-1-5 3c0 3 3 3 5 3zm-280 65c2 1 4 0 4-3 0-2-1-3-4-3-2 0-3 1-3 3s1 4 3 3zm184-45c0-2-1-3-3-3-3 0-4 0-4 3 0 2 0 3 3 3 2 0 4 0 4-3zm209 73c-1-1 1-4-2-4s-2 2-2 4-1 5 2 5 1-3 2-5z" class="cls-9"/><path id="path553" fill="#7d8b95" d="m559 581 2-2c6 0 8-2 7-8a20 20 0 0 1 0-2c3-1 4 1 3 3 0 6 2 7 7 6a26 26 0 0 1 5 0c4 1 5-1 5-4 0-9 1-9 9-9a9 9 0 0 1 3 0c6 2 3-9 10-7a10 10 0 0 0 1-2 12 12 0 0 0 0-2 43 43 0 0 1 0-6c1-5-1-6-6-6-4 1-4-2-4-5 0-4 1-5 5-5h26c4 0 5 2 5 6 0 2-1 6 1 7 4 2 9 1 13 0 4 0 2-4 2-7 1-2-1-5 2-5 6 0 5-5 5-8s-1-6 4-6c3 1 6 0 6-4a2 2 0 0 1 2-2c4 1 10-4 11 5a2 2 0 0 0 1 1h8c2-3 1-7 0-11 0-2-2-2-4-2-5 1-6-2-5-6 0-2 0-4-3-4-4 0-8-1-12 1-3 1-1 6-1 9a7 7 0 0 0-1 1c0 2-1 2-3 2s-3 0-3-3v-6c0-2 0-4-3-4-5 0-4-3-4-6s2-3 5-3h17c9 0 8 0 8-8-1-4 0-6 5-6 6 1 4-3 5-7 0-3 0-6-5-6h-28c-5 0-8 1-7 7 0 3 1 7-4 6-3 0-3 3-2 4 1 6-3 7-7 6h-5c-4 0-5 2-5 5 1 4-1 5-5 5a59 59 0 0 0-6 0c-11 0-11 0-11 11 0 4-1 6-6 6-4 0-5-2-5-6s2-8-4-8c-2 0-2-2-2-4-3-8-3-8-12-9-3 0-5 0-4-4v-6h35c3 1 4-1 4-4 1-5-3-12 5-13a1 1 0 0 0 1-1c0-6 5-4 8-4h19c11-1 9 1 9-10h31c9 0 9 0 9 8 0 3 0 5 4 5s6-1 5-5l1-5c-1-5 1-7 6-7v36a32 32 0 0 1-5 0c-4 0-6 1-5 6a33 33 0 0 1 0 5c0 2 1 3 3 3 6 0 7 0 7-6v-8h12c4 1 5-1 5-4v-24c0-2 0-5 3-5a26 26 0 0 0 4 0c4 0 6 1 5 5 0 4 3 9-4 9-3 0-4 0-5 3-2 15-1 16 13 16h3c3 1 3-1 3-3l1-7h3v7c0 3 1 4 3 3h10v9c-1 4 1 5 5 5h13c2 0 5 0 4 2-1 8 4 7 9 7h10c3 0 5 0 5-3 0-2 1-3 2-3 2 0 4 0 4 2-1 6 4 4 7 4v17c-7 0-12 5-19 4-1-1-1 2-1 3h-6c-1-2 0-4-2-4s-2 2-2 4v20c0 1 1 3-1 4-5 4-8-2-13-2-2 0-2-2-2-3v-7c0-2-1-3-3-3h-11c-9 0-9 0-10-9l1-2c-3-4-7-1-11-2-3 0-2 3-2 5s1 7-1 7c-7 1-6 6-6 10 0 1 1 4-1 4-3 0-2-3-2-4-1-9-1-9-9-9h-3c-8 0-8 0-8-7 1-5-1-6-5-6-6 0-8 1-8 7v6c1 2 0 3-3 3h-5c-3 0-5 1-5 5 1 4-1 6-5 5-4 0-5 1-5 4 0 9 0 9-9 9a25 25 0 0 1-4 0c-5-1-7 1-6 6v3c0 2-1 4 2 4 1 1 4 1 5-2l1-1h13c1 4-1 9 2 13 6 0 7 3 6 9-3 0-8-2-8 4h-13l-1-1-1-11c1-3-1-4-4-4-5 1-6-2-6-6 0-3 1-6-1-7h-13c-3 1-2 5-2 7 1 5-1 6-6 6h-13c-5-1-8 1-7 6 0 4 1 8-3 12v10c0 2 3 1 4 2 3 0 2 2 3 3h-24c1-5-1-8-6-7h-5c-4 1-6-1-5-5s-1-5-5-5a31 31 0 0 1-5 0c-10 0-10 3-9-10Z" class="cls-5"/><path id="path555" fill="#7d8b95" d="M31 585c0 13 0 13 14 13 3 0 6 0 6 4l4 3c2 0 3 1 2 3h-75v-9c0-3 1-4 4-4 2 0 3 1 3 3s-1 5 2 6h9c4-2 1-6 2-10 0-2-2-3-4-3h-7c-2 0-5 1-5-3 0-5 3-3 6-3a56 56 0 0 1 5 0c9 0 8 0 8-8 0-4 1-5 5-5s5 1 5 5c0 8-1 8 8 8h8z" class="cls-5"/><path id="path557" fill="#e7e8e8" d="M559 581c-1 13-1 10 10 10a31 31 0 0 0 4 0c4 0 6 1 5 5 0 4 1 6 5 5h5c5-1 7 2 6 7h-23c0-2 0-4-3-4s-3 2-3 4h-36c1-2 0-4-3-4v-13h6v5c1 9 1 9 9 9 11 0 11 0 11-11v-3c4 0 3-3 3-5 0-3 0-5 4-5z" class="cls-4"/><path id="path559" fill="#e7e8e8" d="M228 608c0-3-1-6 4-8 3-1 6-6 6-11 0-2-1-4 3-4 2-1 3 1 4 4 0 3-3 7 3 9 4 1 7 4 11 3a32 32 0 0 1 5 0v7z" class="cls-4"/><path id="path561" fill="#e7e8e8" d="M100 598h32c7 0 7 0 7 7v3h-12c0-5-4-4-7-4s-4 2-4 4h-16z" class="cls-4"/><path id="path563" fill="#7d8b95" d="M100 598v10H83c1-10 1-10 11-10h6z" class="cls-5"/><path id="path565" fill="#b3bfc8" d="M830 340v15c-5 0-3 4-3 7-1 3 1 7-5 7-3 0-2 4-2 6 0 5-1 7-6 6v-8l-1-3a18 18 0 0 0-11-1c-2 1-1 4-1 6-1 5 1 7 5 7a69 69 0 0 1 8-1v27h-14c-5 0-7-2-6-6 0-3 1-7-4-8-3 0-2-3-2-5 0-7-6-10-12-7l-1 1c0 5-2 11 2 15 2 3 0 6 1 10v-1l-23 1c-5 0-7-1-7-7a19 19 0 0 0 0-4c0-1-1-2-3-2s-3 0-3 3v6c0 1 0 3-2 3-6 0-5 5-5 9-1 5 0 9 7 9 4-1 3 2 3 4s0 4 2 4l1-3c1-4 5-2 7-2 3 0 4 2 4 4-1 7 4 5 7 5 4 1 5-1 5-5 0-3-2-7 4-8 5 0 7 1 6 6a35 35 0 0 0 0 6c0 3 0 5-3 4-6-1-7 3-7 8a41 41 0 0 1 0 5v1a40 40 0 0 1-6 0c-5-1-7 1-6 7v2h-7c-2 0-4 1-4 3v7h-2c-14 0-16-1-14-16 1-3 3-3 5-3 7 0 4-5 5-9 0-4-2-5-6-5a26 26 0 0 1-4 0 12 12 0 0 0 0-2c0-5 3-11-5-12-2 0-1-2-1-3-1-12-1-12-13-12h-1c0-3-1-4-4-3-5 0-10-2-15 1v2c0 3-3 3-5 3-3 0-6 1-5-3 0-4-3-4-5-3-5 0-11-3-14 2-2 2-2 5-6 5-2 0-2 2-2 4v22c0 11 2 9-9 10h-19c-3 0-8-2-8 4a1 1 0 0 1 0 1c-9 1-5 8-6 12 0 4-1 5-4 5h-25v-14c2 0 5-3 6 0 1 2-2 3-3 5-1 0-2 1-1 2a3 3 0 0 0 3 1c2 0 7-6 6-9s-3-5-7-5l-4 1c-1 0-3 1-4-1s1-3 2-4 3-2 1-3c-1-2-3-1-4 0l-4 2-1-4c-1-6 0-7 6-7 2 0 5 1 7-2s0-7-5-7c-3-1-7 2-8-4v-5c0-9-1-8 8-8 2 0 5 1 5-1 0-7 4-6 8-6 4 1 5-1 5-5v-4h9c3 0 4 1 4 3 0 3 2 9-1 9-5 0-9 4-14 4-9 0-9 0-8 9 0 3 1 5 4 5l18-1c3 0 5 0 4-4-1-8 1-9 9-9h24c1 0 2 0 3-2a2 2 0 0 0-2-1c-5 0-5-3-5-7 0-2 2-5-2-6-3-1-4-3-4-6 0-8 0-8-7-8h-3c-9 0-9 0-10 9v1c0 2-1 3-3 3s-3-1-3-2l1-9c3-4 1-9 2-13 0-3-1-5-5-5h-16c-8 0-8 0-8 8 0 2 1 4-1 5-15 0-12 1-12-9 0-6 4-3 7-3 4 0 5-2 5-6 0-6-3-5-6-5s-6 1-6-4c0-4 1-6 5-6h8c1 0 3 1 3 3-1 4 2 4 5 4 2 0 5 0 5-4 0-3 2-3 5-3h11l3 1c-1 4 1 7 6 6s7 3 11 3v6c0 3 1 5 3 5h38c9 0 8-1 8 7 0 4 1 6 5 6h5c1 4-2 11 6 9h4c5 1 7-1 6-6a12 12 0 0 1 0-3h7c4 0 7 0 7-6 0-5-3-5-7-5h-7v-9c0-3-1-4-4-4-2 0-3 2-3 4v9c-11 0-9 0-9-9v-4l1-3c8 0 6-5 6-9v-1c0-11-1-9 9-9v9c0 11-1 10 10 10 3 0 6-1 7 3v8c1 3 1 3 4 2 2 0 3-1 2-4a49 49 0 0 1 0-6v-3c0-4 0-8-6-7-3 0-3-1-3-4-1-8-1-8-10-8h-4v-3c0-10 0-10 10-11 3 0 4-2 4-5-1-4 1-5 5-4h23c3 0 5 0 4 4 0 5 3 6 6 5 6-1 8 2 7 7s1 7 6 7c6 0 8-2 8-7-1-3-2-7 4-7 2 0 1-2 1-4v-8l-1-3c-1-1-4 0-4-3v-13l1-1c6-1 4-5 4-9s3-4 6-4 4 0 5 4c0 12 0 12 12 12 8 0 8 0 8-8 0-3-2-8 5-9 2-1 1-5 0-7 0-3-2-2-4-2l-30-1c-6 0-5 4-5 7s2 7-3 7c-4 0-7 0-6-5 0-9 1-8-9-8a71 71 0 0 0-8 0c-5 0-6-2-6-6 0-5 3-4 6-5 3 0 6 2 7-3 0-4-1-6-5-6-9 0-8 0-8-8 0-4-1-6-5-5-4 0-5-2-5-5a26 26 0 0 0 0-5c-1-5 1-7 5-6 4 0 5-2 5-5v-9h23v10c0 3 1 4 3 4 10 0 10 0 9-11v-3h4c2 0 3-1 3-3s0-4-3-4h-4v-8c0-3 1-4 3-4 3 0 4-2 4-4 1-9 1-9 10-10 2 2 5 1 7 1v7l1 5c7 1 5 6 5 10 0 2 0 4 3 4 2 0 4-1 4-4v-34c0-3-1-5-5-5-2 0-4 0-5-3 0-10 0-10-10-10h-6c-2 0-4-1-4-4 0-2 0-3-3-3-2 0-4 1-4 3 0 3-1 4-4 4h-7c-3 0-5-1-5-4 1-2-1-3-3-3s-3 1-3 3c0 3-2 4-5 4h-6c-10 0-9-1-9 8 0 3 0 6-4 5-2 0-2 2-2 3-6 0-8 2-7 8a14 14 0 0 1 0 3c0 3 0 6-5 6-3-1-5-1-4-4v-12a21 21 0 0 0 2 0c1-1 4 0 4-2s-3-2-4-2l-16 1v-11c-1-6 2-7 7-6h4c3 0 6-1 6-6 0-4 0-8-6-7a101 101 0 0 1-17 0c-6-1-7 1-7 6 0 4 2 8-3 10h-7v-16h1c2 0 5 1 6-2 0-2 1-5-2-8a10 10 0 0 1 0-12c2-3 2-6 2-9 0-4 1-6 5-5 4 0 4-2 4-5 0-4 0-6-4-6-5 1-5-2-5-5 0-4 1-8-5-7l-2-3v-7c0-2 0-4-3-4s-4 2-4 4v6c1 3 0 4-3 4h-17c-4-1-6 1-6 6 0 2 1 6-1 6-7 0-5 5-5 9s-1 5-5 5h-4c-6-1-8 1-7 7 0 5-2 7-8 6h-46c-2 0-5-1-5 2-1 5-3 4-6 4l-11 1h-11c-6-2-12 0-18-1-1-3 2-7-2-9-6-3-11 1-11 8v1c-6 0-8 2-7 7a18 18 0 0 1 0 3v8c0 3 0 5-5 5-3 0-5-1-4-5 0-4-3-4-6-4-8 0-8 0-8-8 0-4-1-6-5-6h-9c-3 0-5 0-5-3s-3-4-5-3c-4 0-5-2-5-6 0-7-1-7-8-7h-3c-8 0-8 0-9-8 0-3 0-5-3-5-3-1-3 2-4 5 0 2 3 7-3 8-2 0-5 1-5-2-1-3-3-8 2-11 3-2 5-9 3-12-3-3-6-1-9-1h-23c-9 0-9 0-10-9 0-2 0-5-3-4-2 0-7-3-7 3 0 1 0 3-2 3s-1-2-1-3c0-2-1-4-4-4h-7c-9 0-9 0-9-8 0-3 1-4 4-4h25c4 0 4 2 4 5s1 4 5 4h13c4 0 6 1 5 5s1 5 5 5h26c4 0 6-1 5-5 0-2-1-5 3-5 5 0 10 4 16 3 3 0 4 2 4 5v5c0 1-1 3 1 4 2 0 2-2 2-4a42 42 0 0 0 0-6c0-3 2-4 5-4 2 1 5 1 4 4 0 6 2 7 7 7v9c0 3 1 6-5 7-3 0-1 5-1 7-1 3 2 3 3 3 3 0 3-3 3-5 0-4 2-5 5-5a36 36 0 0 0 5 0c4 0 8 2 11 0 4-3 2-8 2-12 0-3 1-5 5-4h11c1 0 3 0 4-2a20 20 0 0 0 0-10c-1-3-4-1-7-2 0-9 0-9 7-9 5 0 10-1 16 1-2 2-4 1-6 1-3 0-4 1-4 4s2 3 4 3c4-1 6 3 10 4-1 10-1 10 6 10h5c3 0 5-2 4-5 0-5 2-6 7-6h21c3 0 5 1 5-3s-3-3-5-3c-2-1-6 1-7-2a25 25 0 0 1 0-13c1-2 4-2 5-1 6 0 8-2 7-7 0-3 0-6 5-6 2 0 2-2 2-4-1-5 2-7 7-6h23c4 0 7 1 6 6 0 3 2 4 5 4a45 45 0 0 1 5 0v5c-2 7 4 13 3 19l2 2c3 0 5 1 5 4 0 2 2 2 4 2h15l3-1c0-3-2-2-3-2h-1c-11-1-11-1-11-13 0-5-3-12 1-15 3-3 10-1 15-1h4c5 0 6 1 6 6 0 2-2 6 3 7 0 1 0 3 3 3s3-1 4-3h3l-1 9c0 3 1 4 4 4 13 0 13 0 13-13h2c12 0 12 0 11 12 0 2 0 3-3 3-2 1-3 2-3 5 0 1 1 2 3 2s5 2 6-2c1-2 1-3 3-3 3-1 4 1 4 3 1 4 4 2 6 2 2 1 4 0 4-2-1-8 4-7 9-7h4v3c2 7 8 6 13 6h41c2 0 4 1 4-2s-2-4-4-4h-11V34l1-3c8-1 5-7 4-11a33 33 0 0 1-2-11c0-3-1-4-4-4h-12c-3 0-4-1-4-4 0-2 2-3 4-3 5 1 10-2 14 3a1 1 0 0 0 1 0c10-1 8 6 8 11 0 2-1 5 2 5s2-3 2-4c0-4 1-6 5-6-2 5 1 10 0 15v16c-3 0-3 1-3 3s0 5 3 5v37h-3c-1-4-4-4-7-2-2 3-4 3-6 0-3-2-7-2-9 0-3 3-6 2-10 2h-17c0-3-2-3-5-3-2 0-2 2-2 4-1 6 3 6 7 6 3 0 6 0 6 5-1 4 2 5 5 5 8 0 8-1 8 8 0 2-1 4 3 5 2 0 4-1 4-4a2 2 0 0 1 2-2 1 1 0 0 1 1 2c0 5 4 3 6 4-1 7 3 7 7 7 2 0 6-2 6 2 1 3-2 3-4 3-2 1-2 3-2 5 0 3 2 3 4 2 5-1 6 1 6 6v178c-2 0-3 1-3 3v17c0 2 1 4 3 4zm-15-135h-7c-4-1-4 1-4 4s-1 6 3 6c6-1 7 3 7 7v6c0 2 1 3 3 3 3 0 4-1 4-4v-9c0-1 0-3 2-3 6-1 4-5 3-8 0-4-3-2-5-2a56 56 0 0 0-6 0zm-60 129v-8c0-2-1-3-3-3s-4 0-4 3c1 4 0 7-5 7l-1 2c-2 8 0 10 7 10 5 0 7-1 6-5a48 48 0 0 1 0-6zM601 83c1-6-2-6-7-7-6 0-7 3-7 8 0 6 3 6 8 6 6 1 7-2 6-7zm121 321h3c4 0 7 1 7-4 0-6-3-5-7-5h-8c-3 0-5 1-5 4 0 4 1 6 5 5a48 48 0 0 1 5 0zM540 90h-5c-3 0-3 2-3 4s-1 6 2 6a100 100 0 0 0 12 0c2 0 2-1 3-3 1-6 0-7-9-7Zm261 270v-1c0-4 0-7-6-7s-5 4-5 7l1 7c0 3 2 3 5 3 6 0 4-5 5-9zm-79-257h-7c-2 0-3 1-3 3s1 3 3 3l14 1c2 0 3-1 3-4 0-2-1-3-3-3zm20-29c0-4 0-7-5-7-6 0-6 3-6 7 0 3 0 6 5 6 6 0 6-3 6-6zm59 114c-1 4-1 7 5 7 5 0 5-3 5-7s-1-6-6-6-5 3-4 6zm-33-70c0-4-1-5-5-5s-6 1-6 5c1 3 1 5 5 5s6-1 6-5zm52-48v-4c0-2-2-2-3-2-5 1-3 4-3 6 0 3-1 6 3 6 1 1 3 0 3-2v-4zM464 81c-1 3-1 6 3 6s3-3 3-6c0-2 1-5-3-4-4 0-3 2-3 4zm238-31c3 1 4 0 4-3 0-2-1-3-4-3-2 0-3 1-3 3 0 3 1 4 3 3zm92 246c0 2-1 6 1 6 4 0 2-4 2-6s1-6-1-6c-4 0-1 4-2 6zM660 400c0-2 1-4-2-5-2 0-2 3-1 4 0 2-1 5 1 5 3 0 2-3 2-4z" class="cls-6"/><path id="path567" fill="#b4c0c8" d="M156 100c0 3 0 5-3 7v6c0 4 0 7-5 7-2 0-2 2-2 4 0 1 1 2 3 2h13c4 0 8 0 12 3 3 2 8 1 13 0 2 0 2-3 2-5s-1-4 3-4c3 0 3 2 3 4 0 12 0 12 12 12h8c3 0 6 0 6 4l1 2c7-1 5 5 6 9a6 6 0 0 0 1 1c2 1 2-1 2-2 1-2 3-1 5-1s2 2 2 4a60 60 0 0 1 0 8c-1 3 2 9-2 10-5 1-10 3-15-2-3-2-8-1-11-1-4 1-5-1-5-5v-11c0-2 1-3 3-3 3 0 4 1 4 3v5c-1 3 0 6 4 6 5-1 6-2 6-6 0-7-4-11-12-11l-14-1c-4 0-9 2-12-2l-4-1h-30c-1 0-4-1-4 2 0 2 3 1 4 2 6 1 9 5 9 12 0 3 2 5 5 4 4 0 5 2 5 5v8c0 2-1 3-3 3-2 1-6-1-6 2s-4 6-4 10a57 57 0 0 1 0 10c0 4 2 9-3 13v3c-1 4 1 8-6 8-6 0-4-4-4-8-1-2 0-5-4-5a68 68 0 0 1 0-7c1-5-1-6-6-6-6-1-7 2-7 7s2 7 7 6a42 42 0 0 1 6 0v4c0 10 1 8-9 9-6 0-8-2-7-7s-1-6-6-6h-13c-3 0-4-1-4-4v-13c0-2-1-3-3-3-4 0-9-1-13 1-5 0-4 3-4 5l-5 1c-4 0-4-2-4-4 0-3-1-5 3-6 8 0 8-2 6-10l-1-2c-6-1-5-6-5-10v-12c0-3 0-6 5-5a2 2 0 0 0 2-2 1 1 0 0 0-1-1c-7 0-5-5-6-9 0-2 0-4 3-4s3 2 3 4c0 4 2 5 5 5h25c5 0 7-1 6-6 0-5 2-7 7-7a23 23 0 0 0 3 0c13 0 13 0 13-13 5 1 8-1 7-7a18 18 0 0 1 0-3c0-2-1-4-3-4-2 1-4 2-4 4v10h-5c-10 0-10 0-11-9 0-2 0-4-3-4s-4 2-3 4v3c0 3 0 6-5 6-4 0-6-1-6-6 0-1 1-2-1-2l-1 3c0 2 0 5-3 5-2 0-4 0-4-2 0-3-1-7 2-8 6 0 5-4 5-8 0-2-1-5 3-5 2 0 4-1 4-3-1-3-2-3-4-4-2 0-4 1-4 3 0 3-1 4-4 4-5-1-6 2-5 7 0 5-2 7-7 6s-7 1-7 7c0 2 1 6-1 6-7 0-5 4-6 8 0 3 1 5-3 5-5-1-6 2-6 6 1 7-1 8-7 7a16 16 0 0 0-2 0l-1-3v-18c0-2 1-4-1-4-3 0-2 2-2 4 0 5-2 6-6 6H25a53 53 0 0 0-23 0h-20c-6-1-7-4-6-10a10 10 0 0 0 0-3c-1-3 1-5 5-4H2c2 0 4-1 3-4 0-2 2-6-2-6-5-1-5-3-5-6 1-3-1-4-3-4h-9V67H1c3 0 5 1 4 4-1 8 5 13 4 20 0 3 4 3 6 2 4 0 9 3 13-2v-3c0-8 0-8 8-8h25v8c-1 3 0 6 5 6s5-2 5-6a38 38 0 0 1 0-5h28c2 0 5 0 5-3 0-2 1-6-3-7-5 0-4-3-4-6 1-5-1-7-7-7-11 1-10 2-10-10v-2c0-6 6-10 12-7 2 1 2 3 2 5s0 4 3 4 4-2 3-4c0-4 2-5 6-5a23 23 0 0 0 3 0c2 0 3 0 4-2l-3-1-2-1c0-6-1-12-4-17a2 2 0 0 1 1-2l2 2c8 8 18 10 26 7s15-2 22-3c2 0 4 1 4 4l-1 5c0 2 1 4 4 4 2 0 3-1 3-4v-5c1-3 3-4 6-4a48 48 0 0 0 6 0c10 0 10 0 11 10a8 8 0 0 0 0 1l12 10c4-1 5 1 5 5a40 40 0 0 0 0 6c0 3-1 5-4 5-5-1-7 1-6 6a40 40 0 0 1 0 6h-44c-2 0-5-1-5 2a40 40 0 0 0 0 10c0 2 3 1 5 2 1 0 2 1 1 2-1 4 3 7 4 11zm-20-37c0 4-1 8 5 8 5 0 5-3 5-7 0-3 1-7-5-7s-6 3-5 6z" class="cls-9"/><path id="path569" fill="#b4c0c8" d="M68 376h9v7c0 2 1 3 3 2h40c5 0 7 1 7 6-1 7 3 9 10 7 3 0 2-3 2-5 0-4 1-5 5-5s6 2 5 5c0 3 1 5 4 6 6 1 2 6 3 9h-16c-14 0-14 0-13 13h-5c-12 0-12 0-12 13-13 0-13 0-13 13 0 4 0 8 6 7 2 0 3 1 3 3 0 3 2 7-1 9a7 7 0 0 1-11-6c0-4-1-6-6-6s-5 2-4 6c0 4-1 7-6 7-3-1-4 1-4 4 0 9 0 9-10 9h-2c-8 0-8 0-8 8 0 3-1 5-5 5s-4-2-4-5c0-9 0-8-8-8-5 0-6-1-6-6 1-8 1-7-8-7-8-1-8 0-8-8 0-2 1-5-1-5-3 0-2 3-2 5 0 8 1 8-9 8h-9c-5-1-7 1-5 6 0 1 1 3-2 4-2 0-4-1-4-3 0-3-2-7 1-10s0-8 0-12l-1-1a1 1 0 0 0-1 1 17 17 0 0 0-1 4c1 5 0 8-6 7a2 2 0 0 0-3 3v8c0 3 3 3 5 3 8 0 4 6 5 10 1 3-2 3-5 3h-12c-4 0-6 1-5 5 0 3-2 5-5 4h-22c-5 1-7-1-6-5 0-2 0-4-2-4s-2 2-2 3c1 5-1 7-6 6-2 0-4 0-4-2 1-4-2-9 2-10 7-1 5-5 5-9v-17h2c8 0 8 0 8-9 0-3-1-6 3-9 1-1-1-2-2-2-4 0-4-3-4-6v-4c0-2-2-3-4-3s-3 1-3 3v6c0 3-1 3-4 3-2 0-3-1-3-3 0-3 2-6-1-8-3-3-7-1-10-1h-3c-8 0-8 0-8-8 0-3 0-6-4-6-3 0-3-1-3-3v-6c0-13 0-13 13-13h13c3 0 3-2 3-4l1-9a3 3 0 0 0 3-1c2 0 3 1 3 4v6c0 3 1 4 4 4 2 0 3-1 3-3 0-4-2-8 2-10 2-2 7-1 10-1h22c3 0 5 1 5 4v10c0 3-1 7 4 7 2 0 2 1 2 3v4c0 12 0 12 13 12H4c3 0 5-1 5-5v-6c-1-4 1-5 5-5s5 2 4 5a39 39 0 0 0 0 6c0 4 3 5 7 5 5-1 7 1 6 7-1 5 2 7 7 6 4 0 6 1 6 6a12 12 0 0 0 0 3c1 2 1 4 4 4 3-1 2-3 3-5 0-3-3-7 3-8 5 0 8 1 7 6a16 16 0 0 0 0 4l1 2c2 1 2-1 2-2a19 19 0 0 0 0-4c0-4 1-6 6-6 3 1 4-1 4-5 0-3-1-8 5-9 2 0 1-4 1-7 0-4 1-6 6-6h14l3-1c0-2-1-2-3-2H81c-2 0-4 1-4 3 0 3-2 4-5 4s-5-1-5-4-2-3-4-3h-9c-2 0-3-1-4-3a20 20 0 0 0 1-4c1-9 1-9 10-9 5 0 7-1 7-6a18 18 0 0 1 0-3zm-125 52h8c3 0 5-1 5-5 0-5-2-5-5-5-8 0-8 0-8 8v2c-7 0-8 0-7 9 0 2 1 3 4 3 2 0 3-1 3-3v-9zm10 59c3 0 7 1 7-5s-3-5-7-5-7-1-7 5c0 5 3 5 7 5zm121-94c0-2 1-5-3-5s-3 3-3 5c-1 3-1 5 3 5s3-2 3-5zm36 20c-1-2 1-5-4-5-3 0-2 2-2 4s-1 6 3 6c3 0 2-3 3-5zm-29 37c0-2-1-3-3-3-3 0-5 0-5 3s1 4 4 4c2 0 4-1 4-4z" class="cls-9"/><path id="path571" fill="#b4c0c8" d="m329 237 1 11c0 2 1 3 3 3s2-1 2-3v-9c0-3 2-5 5-5h15c3 0 4 2 4 5 1 4-2 9 2 11 2 2 7 1 11 1 3 0 6-1 7 4 0 2 2 2 3 2h16c2 0 3 1 3 3v6c0 2 0 4 4 4 3 0 3-2 3-4v-8c0-2 0-4 2-4 4 0 5-2 5-5s0-5 3-5c4 0 4 3 3 5v11c-7 0-11 8-6 12l12 8h18c2 0 5 0 5 4 0 2 2 2 4 2s3-1 3-3c1-9 1-9 10-9v9c0 2 0 4 3 4s4-2 4-4v-10c0-9 0-10-10-9-4 0-8 0-7-6 0-3 1-5 4-5h13c4 0 6 2 6 6-1 9-2 8 8 8h19c4 0 6-1 5-5 0-2 0-5 4-5 3 0 3 3 3 5v5c0 4 0 7 5 7 2 0 2 2 2 3 0 11-1 9 9 9h1c10 0 9 2 9-9 0-3 1-3 4-3h6a18 18 0 0 1 0 4c-1 5 1 6 6 6 6-1 8 2 7 8-1 3 1 5 5 4 4 0 6 2 5 6 0 4 2 5 5 5a28 28 0 0 1 4 0v12c1 5-3 4-6 4s-6 1-6-4v-4c0-4-2-5-6-5s-8 0-7-6c0-4-3-4-6-4-4 0-4 2-4 5 0 2 0 5-4 5-1 0-2 0-3-2 0-2 1-4-2-5a62 62 0 0 0-9 0l-2 2c0 6-4 5-8 5-6 0-5 3-5 6 0 4 0 7-5 7-4-1-5-2-5-6 0-3 2-7-4-9-3 0-1-5-2-8h3c4 0 3-3 3-5 0-3 0-5 3-5 4 0 4-2 4-5v-7c0-3-1-4-4-4h-16c-5-1-6 1-6 6 0 4 0 7 6 6 3 0 7-1 7 4l-1 9-7 1c-6 0-9 0-9-7 0-6-5-3-8-3-4-1-4 2-4 4 0 3 0 6 4 6 4-1 5 1 5 5s2 5 5 5c5 0 11-2 14 1 2 3 0 9 0 14 0 8 0 8-8 8h-4c-10 0-10 0-10-10 0-5-3-4-6-4a43 43 0 0 1 0-4c0-4-1-6-5-5-4 0-6-1-5-6 0-1 0-3-2-4-1-1-1 2-2 2-5 2-10 1-14 1-3-1-2-4-2-5 0-4-1-5-4-5h-12c-4 0-7 3-7 8-1 2 1 6-4 5-4 0-2-3-2-5s0-4-3-5c-2 0-4 1-4 4-3-1-3 1-3 3v6l-4 1c-10 0-10 0-10 10v7c0 3 0 6-4 6s-6-2-5-6a7 7 0 0 0-1-4c2-2 1-5 1-7 0-3 1-6-4-6-3-1-3-4-3-6 0-3-1-5-4-4a50 50 0 0 1-8 0c-4-1-8 0-7 6 0 4-5 3-7 4-3 0-3-2-3-4v-5c0-3-1-5-5-5-3 1-6 0-6-4 0-2-1-3-3-2-5 0-6-2-6-6a9 9 0 0 0 0-3c0-1 1-4-2-3-2 0-1 2-1 3a5 5 0 0 1 0 1c-1 2 2 7-2 7-3 0-1-5-1-7a46 46 0 0 1 0-7c0-3-2-4-4-5-10-6-20-2-30-3-3 0-6 0-6-5 0-4 2-6 6-5h7c2 0 3 0 4-2 0-5 3-4 6-4 6-1 12 2 16-2 3-3 0-9 1-14a16 16 0 0 0 0-4c-1-5 1-7 6-6v9c0 2 0 4 3 3zm220 58c-1-1 1-5-2-5-2 0-2 3-2 4 0 2-1 5 2 5 2 0 1-2 2-4z" class="cls-9"/><path id="path573" fill="#b4c0c8" d="M212-77h45c-4 4-9 7-15 6-3 0-8-1-8 5 0 2-2 2-3 2h-9c-2 0-4 0-4 3s2 4 4 4h16c1 0 2-1 2 1 1 2-1 2-2 2-6 0-3 4-3 7-1 4 2 3 4 3h21v8c0 4 2 5 5 5 12 0 12 0 11 12-4 0-6 2-5 6 0 4-2 4-5 4h-12c-3 0-7 0-7 5 0 2-2 2-3 2-2 0-3-1-3-2 1-6-4-5-7-5-4 0-3 3-3 6 0 2 0 5-4 5-3-1-3 2-3 4 1 5-1 6-5 6a49 49 0 0 0-9 0c-6 0-10 0-9-7 1-3-1-3-3-3l-6-1c-3 0-3-1-3-3s1-3 3-3h4c2 0 6 1 5-3 0-3 2-8-4-7-2 0-2-2-2-3v-6c0-4 1-8-5-8l-1-3v-4c0-2 1-6-4-6s-3 4-4 7a5 5 0 0 0 1 3v2c0 10 0 11-10 12-3 0-3 2-3 4-1 12-1 12-12 12h-4c-12-1-10 2-10-12-1-3 1-5 4-4 5 1 6-2 6-6-1-6 1-9 7-8v11c0 1 0 2 2 3 1 0 3 0 4-2a16 16 0 0 0 0-10c-1-3-4-1-6-2v-4c0-9 0-9-9-8-4 0-5 1-5 4s0 5-4 5c-3 0-3 2-3 5s2 8-1 11c-2 2-7 1-10 1-4 0-5 1-5 4v6c1 4 0 6-5 6s-5-3-5-6v-7c0-2 0-3-2-3s-4 0-4 2a46 46 0 0 0-1 7c0 2 0 3-3 3-2 0-3-1-2-2 0-7-6-11-4-18a2 2 0 0 0-2-2H82c-2 0-2 2-2 4s1 5-3 6h-3c-3 0-3-2-3-4v-8c0-3 0-5 4-5 2 0 3-2 3-4-1-5 2-5 6-5h17c5 0 6-1 6-6 0-8 0-8 8-8 4 0 9 2 9-5 0-2 2-1 3-2h12c4 0 7 0 7 5 0 3 2 2 4 2h12c6 0 7 2 7 7-1 7 0 7 7 7 5 0 7-1 6-6 0-4-1-8 5-8a2 2 0 0 0 2-2c-1-5 3-4 6-4h10c5 0 7-2 7-7a14 14 0 0 1 0-3zm-10 25v-5c0-4-3-4-6-4s-5 0-5 4v9c0 3 1 4 4 4 6 1 7 0 6-8zm26 26c0 2-1 5 3 5 3 0 3-2 3-5 0-2 1-5-3-5-3 0-4 2-3 5zM110-41v4c0 1 0 3 2 3s2-2 1-4v-5c0-2 1-4-2-4-2-1-1 2-1 4v2zm6 13c1 2-1 6 2 6s2-4 2-6 1-6-2-6-1 4-2 6z" class="cls-9"/><path id="path575" fill="#7d8b95" d="M2 130a53 53 0 0 1 23 0c0 2 4 3 3 6-1 7 3 7 8 6 2 0 5-1 5 3s3 4 5 4c4 0 5-1 5-4-1-3 1-3 3-3l1 4c-1 2 1 3 3 3 6-1 7 2 6 7 0 2-1 6 1 6 8 0 6 6 6 10-1 5 1 7 6 6a19 19 0 0 1 3 0c2 8 2 10-6 11-4 0-3 2-3 5 0 2 0 4 4 4h5c6 0 3-4 4-6 4-2 9-1 13-1 2 0 3 2 3 3a13 13 0 0 1-2 1c-6-1-9 1-8 7 1 5-1 7-6 6-2 0-4 0-4 3 1 5-3 8-6 10h-3l2-4c3-4 2-7-1-11-3-3-6-4-10-1a7 7 0 0 1-4 2 93 93 0 0 1 0-11c0-3-2-5-5-5l-2-1c-1-2 1-5-3-5-5 0-3-4-3-6-1-4 2-4 5-4 1 0 3 1 4-1v-10c-1-3-4-6-8-5h-9c-12 0-12 0-12 13-13 0-13 0-13 13-6-1-8 2-7 7h-15c-2 0-4 0-4 3-5 0-8 0-7-6v-15c0-3 0-6-4-6s-6 2-6 6v8c-5-1-7 1-6 6a77 77 0 0 1 0 10c0 2-1 3-4 3-2 0-3-1-3-3v-11c1-4-1-5-5-5h-15c-3 0-7-1-7 4l-1 1-2-1c0-2 0-4-2-4a17 17 0 0 0-4 0c-5 1-7-1-7-7a86 86 0 0 0 0-10v-6a8 8 0 0 1 1-2c7 0 6-7 10-10l2-1c4 1 7-2 10-5 4-3 4-6 3-10 0-4 1-5 5-5h19v10c0 2 1 3 3 3s5 1 6-2c3-7 0-11-7-11h-2l-1-20c0-2 1-3 3-3l9-2c6-1 5-4 5-8a46 46 0 0 0 0-6c-1-6 1-8 7-7v13c-1 3 1 4 4 4h8c0 3 0 6 5 6 4 0 2 4 2 6 1 3-1 4-3 4h-21c-4 0-6 1-5 5a10 10 0 0 1 0 2c-1 6 0 9 6 10v3c0 7 3 9 10 9 10 0 10 0 10-9v-3z" class="cls-5"/><path id="path577" fill="#7d8b95" d="M382 316c0 2 1 5-1 7-3 0-3 2-3 4 1 4-1 6-5 6-5-1-9 0-7 6 0 3-2 4-4 4h-26c-4 0-3-3-4-6 0-2 2-7-3-7-6-1-2 5-3 7-1 5 2 9-3 13v8c0 1 0 4-2 4s-1-2-2-4a23 23 0 0 1 0-3c1-4 1-7-5-6-4 0-4 2-5 6 0 2 2 6-1 6s-2-4-2-6c1-5-1-7-6-6a56 56 0 0 1-9 0c-2 0-4 0-5 3-1 6-6 3-9 3-3 1-3-1-3-4v-4c0-3-1-5-4-4-5 0-6-1-6-6 0-11 0-11-12-11h-19c-4 0-6 1-5 5a51 51 0 0 1 0 6c0 4 1 8-6 9-1 0-5 3-4 7 1 6-2 6-7 6-5-1-6 1-6 6 0 13 0 13-14 13-5 0-6-1-6-6 0-3 2-3 4-3 3 0 6 1 6-4 0-4-4-3-6-3a110 110 0 0 0-15 0c-5 1-6-2-5-6a9 9 0 0 0 0-2c-1-4 1-6 5-5 4 0 8 1 8-5 0-3 3-2 5-2 11 0 11 0 11-11v-13c0-6 3-8 9-8l37-1 12 1c3 0 5-1 5-5l-1-15a22 22 0 0 0 3 0c6-1 8 0 8 7-1 5 1 8 7 9 2 1 2 2 2 4a67 67 0 0 1 0 7c-1 5 1 6 6 6 3-1 4-2 4-5v-8c0-3 1-4 3-4 3 0 4 1 4 4v4c-1 3 0 5 4 5s6-1 5-5c0-2 6-7 8-7 3 0 2 1 2 3 1 9 1 9 11 9h17c3 0 5 0 5 4 0 3 2 3 4 3s3-2 3-3v-7c0-2 0-3 3-3 2 0 3 0 3 3v7c0 2 1 3 3 3s3-1 3-3l1-8c0-1 1-3 2-2 3 5 7 2 11 3z" class="cls-5"/><path id="path579" fill="#7d8b95" d="M323 519v-13c5 0 11 0 16-3 3-2 3-4 3-6 1-4-2-3-4-3-3 0-6-1-6 3 0 3-2 2-4 2h-22c0-2-1-3-3-3h-10c-10 0-10 0-10-10v-14c0-10 0-9 8-9 3 0 6 1 6-3a16 16 0 0 0 2-1c0-6 4-8 8-12 5 3 1 7 2 10 1 2-1 5 1 6 3 1 7 2 8 0 3-4 6-3 9-3s6 1 6-4c0-4-1-6-6-5-3 0-4-1-4-4-1-5 2-10-2-12-3-2-8-1-13-1a6 6 0 0 0-1 0h-4c-1-6 2-10 3-15 2-3 6-1 9-1 1 0 4-1 4 2 0 5 3 5 7 4 4 0 8 1 7 6-1 4 2 4 4 4s5 1 5-3c0-2 2-6-3-7-3 0-4-1-3-4 0-3 2-2 4-2h3c5-1 6 1 6 5a76 76 0 0 0 0 9c0 5 5 9 4 14 0 2 4 1 6 1s3-1 3-3c-1-6 2-7 7-7h9c2 0 3 1 4 3 0 2-5 10-7 11-4 0-3 3-3 5 0 8 1 7-8 7h-7c-3 0-5 1-5 5 0 5 2 6 6 6 7-1 7 0 7 7v8l-8 1c-1 1-3 1-4-1-1-1 0-2 1-3 1-2 3-2 2-4-2-2-4 0-5 1-1 2-3 3-3 5-1 6 3 8 11 6 1-1 3-2 4 0s0 3-1 4-4 2-1 4c1 1 2-1 4-2a4 4 0 0 0 1-3l8-1c5 0 9 1 8 7-1 2 0 4 3 3 7-1 7 3 6 8v4c-1 0-3-1-3 1-5 2-3 6-3 8 0 4-1 6-5 6l-15-1-1-2c1-4-5-10-10-10l-31-1z" class="cls-5"/><path id="path581" fill="#7d8b95" d="M575 369c0 10-3 9 12 9l1 3c0 13 0 13 13 14v4c0 4-1 6-5 5-4 0-8-1-8 6 0 2-3 1-5 1-9 0-8-1-8 8v5h-18c-4 1-6-1-5-5v-2c1-5-1-6-6-6h-13c-4 0-8 1-8-5 1-2-2-2-4-2h-14c-2 0-5 1-4-3 0-2-2-6 3-6l3-1c2-4-1-16-4-18a4 4 0 0 0-4-1c-2 1-1 2-1 4-1 4 1 9-1 11-3 3-8 2-12 1-4 0-4 3-4 6 0 4 0 8-6 7-2 0-3 1-3 3-1 7-6 3-8 4-3 0-6 1-6-4 0-3-2-3-4-3h-21c-4 1-4-1-4-4 0-4 0-5 4-5h26c5 0 6-1 6-6v-6c0-3 0-5 4-5 3 0 3-2 3-4-1-4 1-6 5-5 3 0 4-1 4-5 0-12 0-12 13-12h5c10 0 11 0 11 10 1 4 3 4 6 3 4 0 5 2 5 6l-1 5c0 4 1 6 5 6 5 0 5-3 5-6-1-4 1-7 4-10h5l1 3a62 62 0 0 1 0 7c0 3 0 6 5 6s5-2 5-6c0-7 0-7 7-7z" class="cls-5"/><path id="path583" fill="#7d8b95" d="M587 307a28 28 0 0 0-4 0c-3 0-5-1-5-5 1-4-1-6-5-6-4 1-6-1-5-4 1-7-1-9-8-8-4 0-6-1-5-6a18 18 0 0 0 0-4 59 59 0 0 1 7 0c4 0 7-1 6-6 0-4 1-4 4-4h28c2 0 5-1 4-4 0-1 0-3 2-3s1 2 2 3c0 2-1 4 2 4 4-1 5 2 4 5 0 4 1 5 5 5a72 72 0 0 1 10 0c3 0 5-1 5-5 0-2-1-4 1-5 3-1 6-1 8 1 1 1 1 2 3 1v-3l1-9c0-3-2-7 3-7 5 1 3 4 3 7a5 5 0 0 1 0 1c0 9 0 9 9 9 2 0 4 0 4-2 1-1 1-4-1-5-3-2-2-5-1-8 0-3 3-1 6-2 3 0 6 1 6-4 0-3 3-2 5-2 8 0 8 0 8-8 0-2-1-5 3-5 5-1 4 2 4 5 0 8-1 8 8 8h6c2 0 5-2 6 3 0 4-4 3-6 3h-14c-1 0-3 0-3 2 0 4-2 5-6 5l-1 2c0 6-3 11-6 15-1 2-2 6 2 6 6 0 4 4 4 6 0 4-3 4-5 3-7 0-12 5-19 4-3 0-2 4-2 6-1 3 1 7-4 6v-4c0-4 2-9-5-9l-1-3a67 67 0 0 1 0-8c0-3-1-5-5-5s-5 2-5 5v8c0 1 0 3 2 3 5 0 4 4 4 7 1 3-1 7 4 7-3 4-7 5-11 1-2-2-4-2-5 0s-2 3-4 1c-1-2-2-2-3-1-1 3-2 1-3 1-4-2-7-6-12-5-2 0-5-1-4 3 0 2-2 6 3 6s3 4 3 7c1 3-2 3-4 3h-7c-2 0-5 1-5-2-1-2-2-5 1-7 1-1 2-1 1-2 0-2-1-2-3-2l-10 1z" class="cls-5"/><path id="path585" fill="#7d8b95" d="M156 100c-1-4-5-6-4-11 1-1 0-2-1-2-2-1-5 1-5-2a40 40 0 0 1 0-10c0-3 3-2 5-2h43l1 7c-1 2 0 3 3 3 2 0 4 0 3-3l1-4c-1-2 1-3 3-3s3 1 3 3v8c0 2 1 3 3 3s4-1 4-3a19 19 0 0 0 0-3c-1-5 0-8 6-8 5 1 3-4 3-7 0-2 1-5-3-5h-4c-2-1-2-2-2-4 0-1 0-3 2-3h2c12-1 12-1 12 11 0 4-2 9 5 9 2 0 1 3 2 5 0 2-1 4 3 4 3 0 3-2 3-4-1-5 2-5 6-5 9 0 18 1 26-1 5-3 9-3 14-2v15c0 2 0 4-4 4-3 0-3-2-3-4a5 5 0 0 0 0-1c0-2 1-4-1-4-3 0-2 2-2 4-2 4 0 11-8 12-3 1-1 5-4 7l-6 3c-4-1-5 1-5 5 1 5 0 9-7 8-1-1-2 0-2 1a2 2 0 0 0 2 2c5-1 10 2 15-3 3-3 9 0 9 5v16c0 3-1 5-4 5-1 0-3 0-3 2 1 5-2 4-5 4h-2c-12 0-12 0-13-12 0-3-1-4-4-4-12-1-12-1-12-13 0-13 0-13-14-13h-6c-1 0-3-1-2-2 0-4-2-7-4-11-1-3-2-4-5-4h-13c-3 1-5 0-5-4 0-2 1-4-2-5-5-2-10-6-16-3-2 1-1 2-1 3a67 67 0 0 0 0 9c0 6-2 8-7 7z" class="cls-5"/><path id="path587" fill="#808d96" d="M260 193c3 2 4 3 4 6 0 2 1 2 2 2h5c9 0 9 0 9-8 0-4 1-5 5-5h3c10 0 9 0 9 9-1 3 1 5 5 4h6c4 0 5 1 5 5s-1 6-5 5c-4 0-8-1-8 5 0 3-3 2-5 2-3 0-9-2-9 5 0 2-3 2-4 2h-30c-1 0-4-1-4 2 0 4-3 4-6 4h-20c-5 0-8-4-13-3 0-7-5-7-10-7-1-11-9-5-14-6a13 13 0 0 0-4 0c-2-1-2-2-2-4s0-3 2-3a48 48 0 0 0 5 0c2 0 5 1 5-2 0-2-3-1-4-1h-16c-5 0-6-2-6-6a70 70 0 0 0 0-9c0-3 0-5 4-5 3 0 3-2 3-4v-6c-2-7 4-12 4-18 0-2 2-1 4-1s4-1 5 1c1 4 2 8-1 11-4 6-1 12-2 18l3 2h10c2 0 3-1 3-3 0-3-1-3-3-3h-4c-2 0-3-2-3-4s1-3 3-3h11c3 0 3 2 3 4-1 6 2 7 6 6h5c4 0 6 1 6 5-1 3 1 4 2 6 1 1 4 2 4 5 0 4 4 5 6 2 3-3 6-2 9-1 3 0 1 4 1 6 1 2-1 5 2 6h10c2 0 2-11 0-12-2-2-2-3-2-5 0-4-1-5-5-5h-11c-2 0-4-1-4-4s2-3 4-3h17c4 0 6-1 5-5 0-4 2-5 5-5 14 1 12-3 12 13 0 3-1 4-4 4-4 0-8-1-13 1z" class="cls-8"/><path id="path589" fill="#b4c0c8" d="M45 293c3 0 3-1 3-4-1-8 3-11 11-8 3 0 1 3 2 5 0 2-2 6 2 6 2 0 1-4 1-6 0-3 0-5 4-6 4 0 3-4 3-7 0-2-2-3-4-3-10 0-10 0-10-11 0-4 2-6 7-6a16 16 0 0 0 4 0c5 0 7 2 6 7 0 5 1 8 7 7 3 0 2 3 3 5 0 8 0 8 8 8h16c4-2 1-6 2-9 0-3 1-4 3-4 0 5 4 3 7 3v6c0 4-1 8 5 8 1 0 2 2 1 3 0 6 3 7 7 6a43 43 0 0 1 6 0c1 3-2 7 4 7h6c0 12-1 10 10 10l11-1c3 1 2-2 2-4s-1-5 4-5c4 0 3 3 3 5 0 4 2 5 6 5 6 0 9 5 6 11-1 2-3 2-5 2h-25c-1 0-4-1-5 1 0 2-1 4 2 5l1 3v26c0 3-1 4-4 4-2 0-2-1-2-3-1-3 1-8-2-10h-12c0-2 0-3-2-4h-3c-11 0-13-3-11-13 1-4 4-2 6-3 2 0 7 2 7-3 1-6 1-7-5-7h-8v-2c0-10 0-10-9-10-4-1-5-2-4-5 0-3 0-6-4-5-3 0-8-4-9 3 0 4-3 3-6 3-8 0-8-1-8 8 1 4-1 5-5 5a22 22 0 0 0-2 0c-8 0-9 0-8 8 0 4-1 5-6 6-4 0-5-3-5-6 1-6 0-9-7-8-1 0-3-1-3-3 1-7-4-13-2-20zm6 5c0 2-1 5 3 5s3-3 3-5 1-5-3-5-3 3-3 5zm29-10c0-2 1-5-3-5-2 0-4 1-3 3s-2 6 3 7c3 0 3-2 3-5zm-19 21c1 2-2 6 2 6 2 0 1-4 1-6a12 12 0 0 0 0-3c0-1 0-3-2-3l-1 3v3zm52-21c-1-1 1-4-2-4-2 0-1 2-1 4s-1 4 1 4c3 1 2-2 2-4zm-42 12c1 0 3 0 3-2s-2-2-3-2-3 0-3 2 2 2 3 2z" class="cls-9"/><path id="path591" fill="#808d96" d="M427 226v-7c0-8-3-10-10-8l-2 2 2 2c6-1 4 4 4 7 0 2-1 3-3 3s-3 0-3-3c0-2-1-4-4-4s-3 2-3 4a2 2 0 0 1-3 3c-4-1-8 1-11-3-2-2-5-2-6 3 0 2-1 3-3 3s-3-2-3-4v-6c0-2 1-3 3-3 2-1 6 1 6-4 0-4-3-3-6-3-4 0-4-3-3-5 4-4 2-9 2-13 1-3 1-5 4-5 4 0 4 3 4 5v5c0 2 1 3 3 3s3-1 3-3v-6c0-2 1-4 3-4 3 0 4 1 4 3a39 39 0 0 0 0 7 7 7 0 0 0 6 6h17c3-1 5-2 9 0 3 2 7 0 6-6 0-3 2-4 5-4h5c5 1 8 0 7-6 0-2 1-3 3-3s4 0 4 3v3c0 2 0 3 3 3s3-2 3-4a24 24 0 0 1 0-3l2-2 2 2c0 4-1 8 5 8l1 1c-1 4 2 6 6 5 2-1 6 1 8-2a2 2 0 0 1 1-1c7 0 12-6 20-4 3 1 5-1 4-5v-8c0-2 1-3 4-3 2 0 3 1 3 4 0 4-2 9 1 11 3 3 8 1 12 1s3 3 3 5c0 3 1 6-3 5-4 0-7 0-7 5 1 2-2 2-3 2h-11c-4 0-5 1-5 5 0 12 0 12-13 11a6 6 0 0 1-1-4c1-4-1-6-6-5h-11c-9 0-8-1-8 8 0 5-1 6-7 4a92 92 0 0 1 0-10c1-5-2-6-6-6-3 0-4 1-4 4-1 12-1 12-13 12l-3 1c-1-3 1-6-3-6-2-1-6-2-7 1-1 6-3 4-7 3z" class="cls-8"/><path id="path593" fill="#b3bfc8" d="M389-5c0 4-1 7-6 7-3-1-5-1-5-5 0-2 1-4-1-5-3-1-6-1-8 1-5 3-9 3-14 0-3-2-6-3-6 2 0 3-1 3-4 3s-3-2-3-4v-4c0-5-2-5-5-4-7 4-15 1-22 2-2 0-2-1-2-3 0-1 0-2-2-2-8-1-4-7-5-11 0-5 4-3 7-3 4 0 3-4 3-6 0-8 0-8 8-8h5c9 0 9 0 10-9 0-6 5-4 8-4l61 1v5c0 11 0 10-10 12-7 1-3 5-3 9l-1 3c-9 0-9-2-9 9v10c0 3 1 4 4 4zm-50-31c-1-2 1-5-2-5-2 0-2 3-2 4 1 2 0 5 2 5 3 0 1-3 2-4z" class="cls-6"/><path id="path595" fill="#7d8b95" d="m558 110 11-1c3 0 6 1 6-4 0-2 3-1 5-1h47c5 0 8-2 7-7-1-6 1-8 7-7h4c4 0 5-1 5-5s-2-8 5-9c3 0 2-4 1-6 0-5 2-6 7-6h17l-1 6c0 5 1 9 7 8 3-1 4 1 3 4 0 2 1 5-3 5-6-1-7 2-7 7 1 6-2 6-6 6-5 0-7-1-6-6a22 22 0 0 0 0-5c-1-2-2-2-4-2s-3 0-3 2a43 43 0 0 0 0 6c1 4-1 5-5 5-3 0-6 0-5 4l-1 2c-7 0-5 5-5 8s0 6-4 6-2 3-3 5c0 2 1 7-1 7-4 0-2-4-2-6 1-6-2-7-6-6a24 24 0 0 1-6 0c-5-1-8 0-8 6 0 4-4 8-3 12 0 2 0 4 3 4 5 0 3 5 4 7 0 4-3 3-5 3h-15c-2 0-3 0-4-2 0-4 2-8-1-10s-7-1-10-1l-1-1v-14c0-4-2-5-5-4-3 0-5-1-5 3 0 3 1 8-2 8s-1-5-1-7c-1-3-2-5-5-4l-15-1a25 25 0 0 0-1-9h3c3 4 5 4 7 0z" class="cls-5"/><path id="path597" fill="#b4c0c8" d="M415 126v8c7-1 8 9 15 8a43 43 0 0 1 6 0c8 0 8 0 8-8 0-2 0-4 3-4s3 2 3 4v20c0 4-1 6-5 5-6-1-8 2-8 8v6c1 6 0 10-7 9-2 0-3 1-3 3v6c0 2 0 3-2 3-3 1-4-1-3-3v-18c0-2-1-4-4-5-3 0-3 2-3 4-1 5-5 4-7 2-2-4-5-2-8-2-4-1-6 1-6 5 0 2-2 1-3 1-2 0-2-1-2-2-1-4 1-8-2-10-2-2-6 0-9-1-10-5-20-1-29-3v-16h23c7 0 10-3 10-10v-12c0-2 0-4 3-4s3 2 3 4c0 11 0 11 12 11 8 0 8 0 8-8 0-4-1-9 6-7l1 6z" class="cls-9"/><path id="path599" fill="#7d8b95" d="M529 38c-6 0-6 0-6 9h-23c-13 0-13 0-14 13-5 1-7 0-7-6 1-3-2-4-4-4-3 0-5 1-5 4a42 42 0 0 1 0 6c0 1 1 4-2 3-2 0-1-2-1-3v-5c0-3-1-5-4-5-6 0-10-3-16-3 0-3 1-7-4-6l-2-1c0-8-5-5-9-6h-5c-5 0-6 1-6 6 1 2 0 4-3 4s-4-2-3-4c0-4-2-6-6-6-3 1-4 0-5-3 0-6-5-3-7-3-5 0-6-2-6-6 0-3 2-4 5-4h17c2 0 4 0 4-3s3-4 5-3h10c3-1 6-1 6 4-1 1 0 2 1 1 7-1 13 5 19 4 3 0 6 0 6-4 0-3 2-3 4-3 2 1 5-1 5 3 0 5 3 4 6 4 5 0 8 0 7 6 0 3 2 4 5 4h3c8 0 8 0 8-8 1-3 0-5 4-5s3 2 3 5c0 9-1 8 9 8a31 31 0 0 0 4 0c6-1 8 1 7 7z" class="cls-5"/><path id="path601" fill="#7d8b95" d="M143 408h13c6 0 3 4 3 7s-2 3-4 3a8 8 0 0 0-1 0c-3 0-7-2-8 1 0 2 3 4 5 5 3 2 1 4 2 6 0 3 0 4 3 4 2 0 3-1 3-3v-3c0-3 1-4 4-4 2 0 3 2 3 4-1 6 2 6 7 6a14 14 0 0 1 2 0c4 0 9-2 12 1 4 2 1 7 2 12 0 2 0 3 2 3 3 1 4-1 4-4v-6c0-2 1-3 3-3s3 1 4 3c0 4-3 8 1 10h10a267 267 0 0 1 11 2c0 2-1 2-2 2h-10c-8 0-10 1-11 10 0 2-1 3-3 3h-26c-3 0-3-2-3-5 0-5 0-10-7-8-2 0-3-1-3-3 0-3-1-4-4-4-2 0-3 2-2 4 0 2-2 5 2 6 3 0 5 1 4 4 0 4-3 2-5 2-6 1-9 0-8-7 0-2-2-2-4-2 1-3-1-3-3-3h-11c-4-1-5 1-5 4 0 5 1 10-6 10l-1 2c-5-1-7-4-6-9 0-4 1-8-5-8a1 1 0 0 1-1-1l1-1c7 0 4-6 5-9a50 50 0 0 0 0-5h3c13 0 13 0 14-13a52 52 0 0 0 6 0c2 0 4 0 7-2 4-4 2-8 3-11z" class="cls-5"/><path id="path603" fill="#7d8b95" d="M149 300h-6c-1-2 2-7-4-7a43 43 0 0 0-6 0c-4 1-7 0-7-6 1-1 0-3-1-3-6 0-5-4-5-8v-6c0-5-5-2-7-3v-10h32c3 0 4-1 4-5 0-3 0-5-4-5-4 1-6-1-6-5s2-5 6-5l8 1v-1 7l1 3c6 0 5 3 5 7 0 2-1 5 2 6 2 1 6 2 8-2 2-2 6-1 8-1 4-1 4 2 5 5a7 7 0 0 0 8 5h24c2 0 4 0 4 3 0 4-2 4-4 4h-10c-3-1-6-1-6 4a1 1 0 0 1 0 1c-7-1-9 8-16 8-3-1-7-2-7 4 0 2-1 2-3 2h-8l-4 1c0 8-6 5-11 6z" class="cls-5"/><path id="path605" fill="#7d8b95" d="M395 64h9c3 7-4 11-3 18 0 2-2 1-4 1-3 0-7-1-10 1-6 2-12 2-16 6a6 6 0 0 0-3 5v17c0 2 1 4-3 4s-3-2-3-4 1-4-1-5c-3-2-2-4-2-7a8 8 0 0 0-5-9c-2-2-6-2-9 2-2 1-6 2-6-3-1-6-6-2-9-3s-4 1-4 4a15 15 0 0 1 0 4 2 2 0 0 1-2 1 1 1 0 0 1-1-1c1-7-5-12-4-18 1-13 1-13 11-13h5c1 2 0 3-3 3-2 1-4 5-1 6 3 2 6 1 10 1 2-1 1-4 1-6 0-3 1-5 4-4 6 1 7-2 6-7 0-3 2-3 4-3h16l1 3 2-3c3 0 7-2 7 4 0 4-2 10 5 10 1 0 3 3 6 2s1-4 2-6z" class="cls-5"/><path id="path607" fill="#808d96" d="M68 376a18 18 0 0 0 0 3c0 5-2 6-6 6-10 0-10 0-10 9a20 20 0 0 1-1 4c-6-4-12-3-18-3-3 0-5 0-5 4 0 2-1 3-2 2-4-5-9-3-13-3-14 0-14 0-14-14a43 43 0 0 0 0-5c-1-5 0-8 6-7 4 0 4-3 4-6 0-8-2-7 7-7 8 0 9 0 9-9 0-3 1-5 5-5h3c8 0 10 3 8 11 0 2-1 3-3 3h-6c-2 0-4 0-4 2v11c0 2 1 3 3 3h5c8 0 8 0 8-8 0-6 4-5 7-5s8-1 7 5c-3 9 4 8 10 9z" class="cls-8"/><path id="path609" fill="#b4c0c8" d="M-14 67h-10a49 49 0 0 1 0-6c0-6-2-8-7-7h-3c-3 0-7-1-6 4 0 5-2 10 5 9a41 41 0 0 1 0 6c0 6 2 8 7 7h4v11c0 4-1 6-6 6l-7-1V84c0-1 0-4-2-4-6 0-5-4-5-7 1-5-1-6-5-6a23 23 0 0 1-4 0c-3 0-5 1-4 4 1 5-3 6-7 5s-2-4-2-7c-1-2 0-5-4-5h-3v-9c0-2 0-5 4-5 2 0 3-1 3-3v-8c-1-3 1-5 4-5s5 1 5 5c0 2-2 7 2 8h9c4 0 6 0 6-4l2-2c3 0 4-1 3-4 0-5 3-7 7-6a28 28 0 0 0 7 0c5-1 8 0 7 6-1 3 1 4 3 4h6c5-1 7 1 7 7 0 4-1 6-6 6-10 0-10 0-10 10v3zm-50-10a25 25 0 0 0 0 2c0 2-1 4 2 5 2 0 2-3 2-5a10 10 0 0 0 0-2c0-2 2-6-2-6-3 0-1 4-2 6z" class="cls-9"/><path id="path611" fill="#b4c0c8" d="M330 64c-10 0-10 0-11 13-8-2-15-5-24-4a39 39 0 0 1-5 0v-2c0-5 2-11-6-11l-1-3c0-3 3-7-3-7v-6c0-4 0-7-6-6-2 0-4-1-3-4V19c2-4 6 0 9-1 5-2 7 0 7 5-1 2-1 4 1 4 5 0 6 3 5 7 0 3 1 4 5 4h15c2 0 5-1 6 1 1 4 2 8-1 11-2 2-2 3-2 5 1 3 4 2 6 2 5 0 8 0 8 7z" class="cls-9"/><path id="path613" fill="#b4c0c8" d="M240 408h-15c-4 0-4-2-4-5 0-2 0-5 3-5h7c1 0 3 0 3-2 0-3 1-5 4-4 3 0 6-1 7 4 1 3 5 2 8 2 4 0 4-2 4-5 0-5 0-9 7-8 3 0 3-2 3-4v-7c0-3 0-5 4-5 2 0 3-2 3-4 0-1 0-3 2-2 2 0 1 2 1 3v11c-1 3 0 5 4 5h7c3 0 6 0 5-5 0-2 2-2 3-2 2 0 4 0 4 2 0 5 3 5 6 5l8-1c4 0 6 1 6 6 0 4-2 5-6 5h-11c-3 0-6-1-7 4 0 3-2 3-4 2-4 0-6 1-5 5 0 5-3 5-6 5s-5-1-5-5v-8c0-2 0-3-2-3s-3 1-3 3v1c-1 8-1 6-9 9l-22 3z" class="cls-9"/><path id="path615" fill="#b4c0c8" d="M316 156v12c0 2 1 4 3 4h10c2 0 3-1 3-3 0-4 3-4 6-4s4 1 4 4 2 3 4 3h12c3 0 4 0 4 3 1 3-1 3-4 3h-10c-4 0-6 1-6 5 0 5 1 6 6 6 1 0 4-1 4 1s-3 2-5 2c-6-1-12 4-19 3-4-1-6-2-5-5a22 22 0 0 0 0-3c0-9 0-9-8-8-4 0-6-1-6-5 1-3 0-5-3-5l-2-1c-1-9-8-5-13-5-8-1-8 0-8-8v-18c0-2 0-4 3-5 3 0 7-1 10 2 2 2 1 5-2 5-4 0-4 2-4 4v9c0 2 0 4 3 4s4-2 4-4v-7c0-1 0-3 2-3s4 1 4 3a12 12 0 0 1 0 2c1 9 1 9 10 9z" class="cls-9"/><path id="path617" fill="#808d96" d="M58 207a7 7 0 0 0 4-2c4-3 7-2 10 1 3 4 4 7 1 11l-2 4c-6 0-8 2-7 8a37 37 0 0 1 0 5H50c-4 0-6-1-6-6v-18c0-4-1-6-5-5H9v-10c5-1 2-5 3-7 3 0 7-1 10 1-1 4 1 6 6 6a59 59 0 0 1 8 0c12 0 12 0 12 12 0 2 0 5 4 4 3 0 6 1 6-4z" class="cls-8"/><path id="path619" fill="#808d96" d="M5-5c0-3 2-4 4-3 3 0 3 2 3 3-1 6 2 7 7 7h18c3 5 4 2 4-2l3-2h14c2 0 3 1 3 3-1 4 2 4 5 4 1 0 4-1 4 1 2 2 6 3 4 7-1 3-5 1-7 2a10 10 0 0 1-3 0c-5-1-7 1-7 6v3c1 2 0 4-3 4s-3-2-3-4c-1-9-1-9-11-9-3 0-7-1-10 3-2 2-8 0-9-4 0-2-2-2-3-2H9c-3 0-4-1-4-4V-5Z" class="cls-8"/><path id="path621" fill="#b4c0c8" d="M382 397c3 2 7 1 11 1 2 0 5 0 5 3 0 4-3 3-5 3a23 23 0 0 1-3 0c-4 0-5 1-5 5v4c0 2 0 4 2 5 3 0 4-2 4-4 0-4 3-3 5-3s5-1 5 3 2 4 5 4c4-1 6 1 5 5v5c0 3 1 7-3 6-3 0-8 0-7-6 1-5-1-8-7-7a7 7 0 0 1-2 0c-4 0-9 2-12-1-4-2-1-8-2-12 0-3-1-4-4-4h-17c-4 0-5-1-5-5v-21h17c2 0 3 2 3 4v6a30 30 0 0 1 0 5c-1 5 2 6 6 5a34 34 0 0 0 4-1z" class="cls-9"/><path id="path623" fill="#b3bfc8" d="M-11 281c-3-1-3-2-3-4v-4c0-9 0-9 8-9 4 0 5-2 4-5v-5l5-1c4 0 6 1 6 6-1 2-1 4 1 4s2-2 2-3c-1-8 4-7 8-7 7 0 5 6 5 8v15c0 3-2 4-5 4-11 1-11 1-12 12 0 3 3 7-3 8-6 0-7-2-7-7v-3c0-10 3-10-9-9zm20-9c-1-2 0-5-4-5s-3 3-3 5-1 5 3 5 4-3 4-5z" class="cls-6"/><path id="path625" fill="#b4c0c8" d="M64 234a37 37 0 0 0 0-5c-1-6 1-8 7-8h3v10c0 2 1 3 3 3s3-1 3-3c0-3-1-7 1-9 3-2 7 0 10-1 5 0 7 2 6 6a8 8 0 0 0 0 3c0 1-1 4 2 4 2 0 1-3 1-4v-5c0-4 3-3 5-3 2-1 5 0 5 3v9c0 2-1 3-3 3-5 1-3 5-3 8s3 3 5 3c3 0 4 1 4 4v5H99c-5 0-6-2-5-6v-13c0-3-1-4-5-4-3 0-6 0-6 4v6c1 3 1 6-5 6-7 0-7 1-7-6 0-4 0-7-5-7-2 0-2-1-2-3z" class="cls-9"/><path id="path627" fill="#b4c0c8" d="M-44 342c0-3 0-6 4-6s3-4 3-6c0-5 0-9 6-8 2 1 3 0 3-3v-6l1-3h8c8 0 8 0 8 8 0 5 3 5 6 4 5 0 7 1 7 7-1 12 2 10-12 10-3 1-5-1-4-4a10 10 0 0 0 0-2c0-2 1-6-2-6s-2 3-1 5c0 5-1 8-7 7-2 0-3 1-4 3-1 4-13 5-16 1v-1z" class="cls-9"/><path id="path629" fill="#b4c0c8" d="M303 434h4v13c-4 4-8 6-8 12a16 16 0 0 1-2 1c-3 0-7 1-7-4-1-3-4-2-6-2-5 1-7-2-7-7 0-10 0-10-9-10-7 0-10-5-7-11 1-2 3-1 4-1h22c0 10 0 10 6 10v11c0 2 0 5 3 4 2 0 4-1 4-4v-8a4 4 0 0 1 3-4z" class="cls-9"/><path id="path631" fill="#808d96" d="M61 522v-6c0-1 0-3 2-3 3 0 5-2 5-5 0-2 1-2 3 0s4 5 8 5c3 0 2 3 2 5 0 8 0 8 7 8h14c4-1 5 1 5 5 0 3 0 5-5 5-4-1-6 1-5 5a75 75 0 0 1 0 8c0 3-2 3-4 3s-3-1-3-3v-9c0-3-1-4-4-4H68c-1-6 3-13-7-14z" class="cls-8"/><path id="path633" fill="#b4c0c8" d="M9 195v10c0 3-2 3-4 3H-6c-3 0-5 1-5 5s1 8-5 9c-3 0-2 4-1 6 0 4-1 6-6 6s-5-2-5-6l1-24 3 1c10 0 10 0 10-10 0-3 2-3 4-3H5c2 0 4 0 4 3z" class="cls-9"/><path id="path635" fill="#808d96" d="M548 110a25 25 0 0 1 1 9c-5 0-4 4-4 7 0 7 0 7-7 7h-14c-4 0-5-1-5-5v-2c1-5-1-7-6-7a25 25 0 0 1-4 0 18 18 0 0 0 0-3c-1-5 1-7 7-7h13c6 1 13-1 19 1z" class="cls-8"/><path id="path637" fill="#b4c0c8" d="M470 227c6 2 7 1 7-4 0-9-1-8 8-8h11c5-1 7 1 6 5a6 6 0 0 0 1 5c1 4 5 2 7 2 6 0 6 3 6 7s0 7-6 7c-5 0-9 0-8-7 1-2-1-3-3-3h-11c-5-1-10 0-9 7 1 1 0 3-2 3-3 0-6 1-9-1-3-1-1-11 2-13z" class="cls-9"/><path id="path639" fill="#b3bfc8" d="M276 73c-8 2-17 1-26 1 0-4 1-7-2-11-3-2-2-7-1-11 2-3 5-1 7-1v6c0 3 1 4 3 4s4-1 3-3v-7a60 60 0 0 1 17 0l-1 6z" class="cls-6"/><path id="path641" fill="#808d96" d="M434 371v16c0 5-2 5-5 5s-5-1-5-5v-3c0-4-1-6-5-5-6 0-4-5-4-8-1-3-1-6 4-6 4 1 5-1 5-5a51 51 0 0 1 0-7c0-2-1-4 3-4 2 0 6-2 7 3z" class="cls-8"/><path id="path643" fill="#b3bfc8" d="m116 467 1-2c7 0 6-5 6-10 0-3 1-5 5-4h11c2 0 4 0 3 3v3c0 4 2 9 0 12-3 3-8 1-12 1-3 0-4 1-3 4 0 4-2 6-7 6s-3-4-4-7v-6z" class="cls-6"/><path id="path645" fill="#b4c0c8" d="M352 565h8c5 1 10 1 8-7 0-2 2-3 5-3h12a22 22 0 0 0 0 5c1 4-1 6-5 5-4 1-3 4-2 6 0 4-1 7-6 8h-13c-6 0-7-2-7-7a55 55 0 0 0 0-7z" class="cls-9"/><path id="path647" fill="#b4c0c8" d="M5-5V8h-9c-4 0-7 0-7 6a3 3 0 0 1-4 3c-2 0-3-1-3-3 1-5-1-6-5-6a95 95 0 0 1-11 0c-3 0-6 1-6-3s3-3 5-3h20c1 0 4 0 4-2 0-7 4-5 8-5h8z" class="cls-9"/><path id="path649" fill="#b4c0c8" d="M434 371v-19c12 0 12 0 13 12 0 6 3 5 7 5 3 0 6-1 6 4 0 4-1 6-5 5h-7l-3-1c-1-8-7-5-11-6z" class="cls-9"/><path id="path651" fill="#808d96" d="M349 145v17h-5c-14 0-11 1-12-12 0-3 1-5 5-4 4 0 5-1 5-6 0-2-2-8 4-7 5 0 2 5 3 7a26 26 0 0 1 0 5z" class="cls-8"/><path id="path653" fill="#b4c0c8" d="M234 26v-2c0-8 3-11 11-10 3 1 3 3 3 5 0 3-2 8 5 10 2 0 1 4 0 7 0 2-2 2-4 2h-4c-11 0-11 0-11-12z" class="cls-9"/><path id="path655" fill="#b4c0c8" d="M45 293h-9c-3 0-5 0-5 4 0 2-1 3-3 3a67 67 0 0 0-7 0c-4 0-6-1-6-5 0-5 2-6 6-5 5 0 8-1 7-7a2 2 0 0 1 2-2h13c2 0 2 1 2 3v9z" class="cls-9"/><path id="path657" fill="#808d96" d="m415 126-1-6c0-3-1-4-3-4h-6c-3 0-4-1-4-3s1-3 3-3h27c2 0 3 1 3 3s-1 3-3 3h-4c-4 0-6 1-6 6 1 5-3 4-6 4z" class="cls-8"/><path id="path659" fill="#b4c0c8" d="M500 411c2 0 3 2 3 4 1 12-2 15-14 13l-1-1c-3-4-1-8-2-13 0-2 1-3 4-3z" class="cls-9"/><path id="path661" fill="#b3bfc8" d="m260 290 1 15c0 4-2 5-5 5l-12-1 1-1c7-2 5-8 5-12 1-4-2-10 6-10l1-1c1-1-1-5 2-4s1 4 1 6a19 19 0 0 1 0 3z" class="cls-6"/><path id="path663" fill="#b4c0c8" d="M205 244h13c2 0 4 0 4 3s-1 4-4 4h-5c-3 0-5 1-5 4 0 1 0 3-2 3s-4-1-4-3c0-5-4-4-7-4h-4c-2 0-3-2-3-4s1-3 3-3h14z" class="cls-9"/><path id="path665" fill="#808d96" d="m434 281-7-1-12-8c-5-4-1-12 6-12 5-1 7 2 6 7 0 4 0 6 5 7 4 0 1 4 2 7z" class="cls-8"/><path id="path667" fill="#b3bfc8" d="M427 226c4 1 6 3 7-3 1-3 5-1 7-1 5 0 3 3 3 6 0 10 0 10-10 9h-7c0-3 1-6-1-9z" class="cls-6"/><path id="path669" fill="#b4c0c8" d="M588 164v5c1 4 0 6-5 6s-5-2-5-6v-10c0-4 0-7 5-7s5 3 5 6v6z" class="cls-9"/><path id="path671" fill="#b4c0c8" d="M15 539c-11 0-11 0-10-13 0-3 1-4 4-4 9-1 10 0 10 9l-1 8z" class="cls-9"/><path id="path673" fill="#b4c0c8" d="M179 489c6 3 11 0 17 0 2 1 5 0 5 4s-3 3-5 3c-3 0-5 1-5 4 0 2-1 3-2 3-2 0-3-1-3-2 0-5-4-5-7-5s-7 2-7-3 5-2 7-4z" class="cls-9"/><path id="path675" fill="#b3bfc8" d="M352 57c1 5 0 8-6 7-3-1-4 1-4 4 0 2 1 5-1 6-4 0-7 1-10-1-3-1-1-5 1-5 2-1 4-2 3-4 0-5 2-7 7-7h10z" class="cls-6"/><path id="path677" fill="#808d96" d="m364 530 1 2c-3 1-3 3-3 5 1 5-1 6-5 5a56 56 0 0 0-9 0c-4 1-6 0-6-4 0-5 2-6 6-6 5 0 11 2 16-2z" class="cls-8"/><path id="path679" fill="#b4c0c8" d="M219 296h-17c-4 1-4-2-4-5s0-5 4-5h6c12 0 10 0 10 10z" class="cls-9"/><path id="path681" fill="#808d96" d="M71 83a38 38 0 0 0 0 5c0 4-1 6-5 6-5 0-6-2-5-6v-8c0-3-1-7 4-7 4 0 7 1 6 6a26 26 0 0 0 0 4Z" class="cls-8"/><path id="path683" fill="#b4c0c8" d="M352 378h-18c-4 0-4-2-4-5s1-4 4-4h11c7 0 7 0 7 7v2z" class="cls-9"/><path id="path685" fill="#b4c0c8" d="M582 215c5-1 9-1 9 6 0 5-2 7-7 6a15 15 0 0 0-2 0c-7 0-10-5-7-11 2-3 5 0 7-1z" class="cls-9"/><path id="path687" fill="#808d96" d="M415 546a26 26 0 0 0 0 3c0 5-1 7-6 6h-15v-9z" class="cls-8"/><path id="path689" fill="#b4c0c8" d="M250 477v5c1 4-1 5-4 5-4 0-5-1-5-5a101 101 0 0 0 0-10c0-3 0-6 5-6s4 3 4 6v5z" class="cls-9"/><path id="path691" fill="#b3bfc8" d="m407-4 4-1V7c1 3 0 5-4 5-10 0-10 0-9-12 4 0 8 1 9-4z" class="cls-6"/><path id="path693" fill="#808d96" d="M444 172c-2-6 1-7 6-7s7 1 7 6c0 6-1 8-7 8-5-1-8-1-6-7z" class="cls-8"/><path id="path695" fill="#7d8b95" d="M545 277c0 11 1 9-9 9h-1c-10 0-9 2-9-9z" class="cls-5"/><path id="path697" fill="#b4c0c8" d="M474 319v17c-10 0-10 0-10-7 0-12-2-10 10-10z" class="cls-9"/><path id="path699" fill="#b4c0c8" d="M330 37v-6c0-2 0-3 3-3 2 0 2 1 2 3 0 4 0 7 6 7 2 1 1 4 1 6 0 3-1 3-3 3-9 1-9 0-9-10z" class="cls-9"/><path id="path701" fill="#b4c0c8" d="m576 448 4-2c1-1 3-2 4 0 2 1 0 2-1 3s-3 2-2 4 3 1 4 1l4-1c4 0 6 2 7 5s-4 9-6 9a3 3 0 0 1-3-1c-1-1 0-2 1-2 1-2 4-3 3-5-1-3-4 0-6 0-1-2-2-3-4-3-7 0-7-1-5-8z" class="cls-9"/><path id="path703" fill="#808d96" d="M139 349v7c1 5-1 6-5 6-7 0-10-6-7-12l3-1h9z" class="cls-8"/><path id="path705" fill="#b3bfc8" d="M61 522c10 1 6 8 7 14v3c-12 0-10 2-11-10 0-3 0-6 4-7z" class="cls-6"/><path id="path707" fill="#808d96" d="M366 496a4 4 0 0 1-1 4c-2 1-3 3-4 2-3-2 0-3 1-4s2-2 1-4-3-1-4 0c-8 2-12 0-11-6 0-2 2-3 3-5 2-1 3-3 5-1 1 1-1 2-2 4-1 1-2 2-1 3 1 2 3 1 4 1l8-1z" class="cls-8"/><path id="path709" fill="#b4c0c8" d="M131 506c2 1 6-1 7 1 2 2 1 5 1 7-1 2-3 1-4 1h-6c-3 0-6 1-6-4s3-5 6-5h2z" class="cls-9"/><path id="path711" fill="#7d8b95" d="M35 234c3 0 6-1 6 5s-3 5-7 5-6 0-6-5c0-6 4-5 7-5z" class="cls-5"/><path id="path713" fill="#808d96" d="M362 5c4 0 7-1 7 5s-3 5-7 5-7 0-7-5c0-6 4-5 7-5z" class="cls-8"/><path id="path715" fill="#808d96" d="M536 241c-4 0-8 0-8-5 0-6 4-5 8-5 3 0 6-1 6 5 0 5-3 5-6 5z" class="cls-8"/><path id="path717" fill="#808d96" d="M212 539v-2c-1-8 3-10 11-8 3 1 2 4 2 6s0 4-3 4h-10z" class="cls-8"/><path id="path719" fill="#808d96" d="M123 319h8c6 0 6 1 5 7h-15c-2 0-4 0-5-3 0-3 2-3 5-3a9 9 0 0 0 2-1z" class="cls-8"/><path id="path721" fill="#b4c0c8" d="M68 539h3c6 0 9 6 6 11-1 3-4 1-6 2-2 0-3-1-3-3v-10z" class="cls-9"/><path id="path723" fill="#b4c0c8" d="M427 2c0 3 1 6-4 6-6 1-5-3-5-7 0-3-1-6 4-6 7 0 5 4 5 7z" class="cls-9"/><path id="path725" fill="#b4c0c8" d="M460 147v5c0 3-1 4-3 4-3 0-4-1-4-4v-9c0-2 1-4 4-4s3 2 3 4v4z" class="cls-9"/><path id="path727" fill="#b4c0c8" d="M322 125c2-3-2-9 4-9s3 6 3 8c0 3 3 9-3 9s-1-6-4-8z" class="cls-9"/><path id="path729" fill="#b4c0c8" d="M149 506h-3a7 7 0 0 1-6-11c2-2 4-1 7-1 2 0 2 1 2 3v9z" class="cls-9"/><path id="path731" fill="#b3bfc8" d="M474 336h2c6 0 10 6 7 11-2 2-4 1-6 2-2 0-3-1-3-3v-10z" class="cls-6"/><path id="path733" fill="#808d96" d="M490 187c-1-4 1-6 5-6s5 2 5 6-1 5-5 5-6-1-5-5z" class="cls-8"/><path id="path735" fill="#b4c0c8" d="M394 546v9h-9v-9c0-2 1-4 3-3 3 0 6-2 6 3z" class="cls-9"/><path id="path737" fill="#808d96" d="M372 579c5-1 6-4 6-8-1-2-2-5 2-6v13c-2 2-2 4-2 5 1 6-2 7-6 5z" class="cls-8"/><path id="path739" fill="#808d96" d="M382 397a34 34 0 0 1-4 1c-4 1-7 0-6-5a30 30 0 0 0 0-5h1c10 0 9-1 9 9z" class="cls-8"/><path id="path741" fill="#808d96" d="M12 226c1 4-1 5-5 5s-5-1-5-5 1-5 5-5c3 0 6 0 5 5z" class="cls-8"/><path id="path743" fill="#7d8b95" d="M431 529h-7v-5c0-2 0-5 3-4 3 0 6-2 7 2 0 2 2 7-3 7z" class="cls-5"/><path id="path745" fill="#808d96" d="M474 274v9c0 3-1 4-4 4s-3-1-3-4v-9z" class="cls-8"/><path id="path747" fill="#b4c0c8" d="M519 221c1-2-2-6 3-6s4 4 4 6c0 3 1 6-3 6-5 0-3-3-4-6z" class="cls-9"/><path id="path749" fill="#b3bfc8" d="M244 257a7 7 0 0 1-6-11c1-2 2-2 3-2 2 0 3 0 3 2l1 5-1 6z" class="cls-6"/><path id="path751" fill="#b4c0c8" d="M149 521c1 4-1 5-4 5-4 0-5-2-5-5 0-4 2-5 5-5s5 2 4 5z" class="cls-9"/><path id="path753" fill="#808d96" d="M422 470v3c-1 2 1 5-2 7-2 0-4 1-5-1-2-1-1-4-1-7a2 2 0 0 1 3-2z" class="cls-8"/><path id="path755" fill="#7d8b95" d="M601 191h-10c-2 0-4 0-3-3 0-2 1-3 3-3a24 24 0 0 0 4 0c5 0 7 2 6 6z" class="cls-5"/><path id="path757" fill="#808d96" d="M110 354c0 2 1 5-3 5s-4-3-4-5c0-3 0-5 4-5s3 2 3 5z" class="cls-8"/><path id="path759" fill="#808d96" d="M248 504c0 3 0 5-4 6-3 0-4-2-4-5 1-3 0-6 4-6s4 3 4 5z" class="cls-8"/><path id="path761" fill="#7d8b95" d="M369 378h-7v-9c0-3 1-3 3-3s3 0 3 3l1 9z" class="cls-5"/><path id="path763" fill="#b4c0c8" d="M293 424c0-2 1-3 4-3 2 0 2 2 2 4 1 8 0 8-6 9v-10z" class="cls-9"/><path id="path765" fill="#808d96" d="M293 424v11c-7 0-7 0-6-10z" class="cls-8"/><path id="path767" fill="#808d96" d="M352 216c0 3 1 5-3 5s-3-2-3-5c0-2-1-5 3-5s3 3 3 5z" class="cls-8"/><path id="path769" fill="#808d96" d="M555 61c-7 0-7 0-6-10 8-1 6-1 6 10z" class="cls-8"/><path id="path771" fill="#b4c0c8" d="M352 565h-7c-2 0-3-1-3-3s1-3 3-4c6-1 7 0 7 7z" class="cls-9"/><path id="path773" fill="#808d96" d="M260 51v7c1 2-1 3-3 3s-3-1-3-4v-6a14 14 0 0 1 6 0z" class="cls-8"/><path id="path775" fill="#b4c0c8" d="M575 181c0 1 1 4-3 4s-4-2-4-5c0-2-1-5 3-5s4 2 4 6z" class="cls-9"/><path id="path777" fill="#b4c0c8" d="M552 23c0 2 1 5-3 5s-4-3-4-5-1-5 3-5 4 2 4 5z" class="cls-9"/><path id="path779" fill="#7d8b95" d="M165 28v5c0 3-1 4-3 4-3 0-4-2-4-4l1-5z" class="cls-5"/><path id="path781" fill="#b4c0c8" d="m218 296 7 1c2 0 2 1 3 2a3 3 0 0 1-2 3c-7 2-8 1-7-6z" class="cls-9"/><path id="path783" fill="#808d96" d="M585 201c-2 0-4 0-4-3s1-3 4-3c2 0 3 1 3 3s0 4-3 3z" class="cls-8"/><path id="path785" fill="#808d96" d="M232 290c-3 0-4-1-4-3 0-3 0-4 3-4 2 0 4 1 3 4 0 2 0 3-2 3z" class="cls-8"/><path id="path787" fill="#808d96" d="M441 188c0 3-1 4-3 4-3 0-4-1-4-4 0-2 1-3 3-3 3 0 4 1 4 3z" class="cls-8"/><path id="path789" fill="#808d96" d="M185 519c1 3-1 4-3 4-3 0-3-2-3-4 0-3 1-3 3-3 3 0 4 1 3 3z" class="cls-8"/><path id="path791" fill="#808d96" d="M561 146c-2 0-3-2-3-4 0-3 2-3 4-3 3 0 3 1 3 4s-1 3-4 3z" class="cls-8"/><path id="path793" fill="#808d96" d="M307 241c0 2-1 3-4 3-2 0-4-1-3-3 0-3 1-4 3-4 3 0 4 1 4 4z" class="cls-8"/><path id="path795" fill="#808d96" d="m276 57 1-6 3-1c6 0 3 4 3 7z" class="cls-8"/><path id="path797" fill="#808d96" d="M601 247c-1 2 2 7-2 7-3 0-1-5-1-7s-2-6 2-6c2 0 0 4 1 6z" class="cls-8"/><path id="path799" fill="#808d96" d="M441 128c-1 2 1 5-2 4-3 0-2-3-2-5 0-1-1-4 1-4 4 0 2 3 3 5z" class="cls-8"/><path id="path801" fill="#808d96" d="M529 249c0 2 1 5-2 5-3-1-2-4-2-5 0-2 0-5 2-5 4 0 1 4 2 5z" class="cls-8"/><path id="path803" fill="#808d96" d="M240 275c1-1 0-4 2-4 3 0 2 3 2 4 0 2 1 5-1 5-4 0-2-3-3-5z" class="cls-8"/><path id="path805" fill="#808d96" d="M430 319c1-2-1-6 2-6 4 0 2 4 2 6s1 6-1 6c-4 0-1-4-3-6z" class="cls-8"/><path id="path807" fill="#b4c0c8" d="M342 116c3 0 4 1 4 4 0 2-2 3-4 3s-3-1-3-4c0-2 1-3 3-3z" class="cls-9"/><path id="path809" fill="#808d96" d="M421 537c0 2 1 5-1 5-4 0-2-3-2-5 0-1-1-4 1-4 3 0 2 3 2 4z" class="cls-8"/><path id="path811" fill="#808d96" d="M529 360c0 2 1 5-2 5s-2-3-2-4c0-2-1-5 2-5s2 3 2 4z" class="cls-8"/><path id="path813" fill="#808d96" d="M36 41c-1 0-4 1-4-2s3-2 4-2c2 0 5-1 5 2s-3 2-5 2z" class="cls-8"/><path id="path815" fill="#808d96" d="M487 173c-1 2 1 5-2 5s-2-3-2-5c0-1-1-4 2-4s1 3 2 4z" class="cls-8"/><path id="path817" fill="#7d8b95" d="M329 237c-3 1-3-1-3-3v-9c2-1 3 0 3 3v9z" class="cls-5"/><path id="path819" fill="#b4c0c8" d="M153 238v-11l1-2a2 2 0 0 1 2 2c-1 4 3 9-3 10z" class="cls-9"/><path id="path821" fill="#b4c0c8" d="M407-4c-1 5-5 4-9 4v-5z" class="cls-9"/><path id="path823" fill="#b4c0c8" d="M368 356c0 2-1 3-3 3s-3-2-3-4 1-3 4-3c2 0 2 2 2 4z" class="cls-9"/><path id="path825" fill="#808d96" d="M231 462c-1 2 1 5-2 5-2 0-1-3-1-5s-1-5 1-5c3 0 1 3 2 5z" class="cls-8"/><path id="path827" fill="#7d8b95" d="M398 257h-7c0-3 0-6 4-6 5 0 2 4 3 6z" class="cls-5"/><path id="path829" fill="#808d96" d="M550 267c-1 0-4 1-4-2s3-1 5-1c1 0 4-1 4 1 0 3-3 1-5 2z" class="cls-8"/><path id="path831" fill="#808d96" d="M405 310v-7c-1-2 0-3 3-3v7c0 2-1 3-3 3z" class="cls-8"/><path id="path833" fill="#808d96" d="M2 350c0-1-1-4 2-4 2 0 1 3 1 5 0 1 1 4-1 4-4 0-1-3-2-5z" class="cls-8"/><path id="path835" fill="#808d96" d="M500 411h-10c-1-5 3-3 5-3 3 0 5-1 5 3z" class="cls-8"/><path id="path837" fill="#808d96" d="M316 156h-3v-8l1-2c2 0 2 1 2 2v8z" class="cls-8"/><path id="path839" fill="#808d96" d="M506 300h-4l1-10c5 2 2 7 3 10z" class="cls-8"/><path id="path841" fill="#808d96" d="M117 344c-1 2-2 2-4 2-1 0-3 0-3-2s2-2 3-2c2 0 3 0 4 2z" class="cls-8"/><path id="path843" fill="#808d96" d="M80 385c-2 1-3 0-3-2v-7c2-1 3 0 3 2v7z" class="cls-8"/><path id="path845" fill="#808d96" d="M71 369c0 1 0 3-2 3s-2-2-2-4c0-1 0-3 2-3 2 1 2 2 2 4z" class="cls-8"/><path id="path847" fill="#7d8b95" d="m244 257 1-6c2 0 5-2 5 2 1 5-3 4-6 4z" class="cls-5"/><path id="path849" fill="#808d96" d="M208 521c0 1 1 4-1 4-3 0-2-2-2-4 0-1-1-4 2-4 2 0 1 2 1 4z" class="cls-8"/><path id="path851" fill="#7d8b95" d="M283 180c0 2 1 5-2 5-2 0-1-3-1-5s-1-4 1-4c3 0 2 2 2 4z" class="cls-5"/><path id="path853" fill="#b3bfc8" d="M12 340c0 3-1 3-3 3s-4 0-4-2 2-3 3-3c2 0 3 0 4 2z" class="cls-6"/><path id="path855" fill="#808d96" d="M426 228c2 3 1 6 1 9-4-1-4-5-1-9z" class="cls-8"/><path id="path857" fill="#808d96" d="M595 326c0 1 0 3-2 3s-2-2-2-3 0-3 2-3 1 2 2 3z" class="cls-8"/><path id="path859" fill="#7d8b95" d="M415 64h3c0 3 1 9-2 8-3 0-1-5-1-8z" class="cls-5"/><path id="path861" fill="#808d96" d="M561 260c-1 0-3 1-2-1 0-2 2-2 3-2s3 0 3 2-2 1-4 1z" class="cls-8"/><path id="path863" fill="#808d96" d="M319 300c1-1 0-3 2-3s2 2 2 3 0 3-2 3-1-2-2-3z" class="cls-8"/><path id="path865" fill="#808d96" d="M519 349c1 0 3-1 3 1 0 3-2 2-3 2s-3 0-3-2 2-1 3-1z" class="cls-8"/><path id="path867" fill="#808d96" d="M522 418c0 1 1 3-1 3s-2-2-2-3c0-2 0-3 2-3s1 1 1 3z" class="cls-8"/><path id="path869" fill="#7d8b95" d="M15 539h3v7l-1 2-2-2v-7z" class="cls-5"/><path id="path871" fill="#808d96" d="M388 519c0-2 2-1 3-1 0 2-2 2-3 1z" class="cls-8"/><path id="path873" fill="#808d96" d="m582 138 1 1z" class="cls-8"/><path id="path875" fill="#e7e8e8" d="M575 473v6c-1 4 1 4 4 4 9 1 10 1 12 9 0 2 0 4 2 4 6 0 5 4 5 8-1 4 0 6 5 6 4 0 5-2 5-6 0-11 0-11 11-11a59 59 0 0 1 6 0c4 0 6-1 5-5 0-3 1-5 5-5h5c4 1 8 0 7-6-1-1-1-4 2-4 5 1 5-3 4-6-1-6 2-7 7-7h28c5 0 5 3 5 6 0 4 1 8-5 7-5 0-5 2-5 6 0 8 1 8-8 8h-17c-3 0-5 0-5 3 1 3-1 6 4 6 3 0 3 2 3 4v6c0 2 1 3 3 3s3 0 4-2a7 7 0 0 1 0-1c0-3-2-8 1-9 4-2 8-1 12-1 3 0 3 2 3 4-1 4 1 7 6 6 1 0 3 0 4 2 0 4 1 8-1 11h-8a2 2 0 0 1-1-1c0-9-7-4-11-5a2 2 0 0 0-2 2c1 4-3 5-6 4-5 0-4 3-4 6s1 8-5 8c-3 0-1 3-2 5 0 3 2 7-2 7-4 1-9 2-13 0-2-1-1-5-1-7 0-4-1-6-5-6h-26c-4 0-5 1-5 5 0 3 0 6 4 5 5 0 7 1 6 6a43 43 0 0 0 0 6 12 12 0 0 1 0 2 10 10 0 0 1-1 2c-7-2-4 9-10 7a9 9 0 0 0-3 0c-8 0-9 0-9 9 0 3-1 5-5 4a26 26 0 0 0-5 0c-4 1-7 0-6-6 0-2-1-4-4-3v-8c0-2 0-5-4-5a3 3 0 0 1-3-3 18 18 0 0 0-2-10c-1-1 1-4-2-3-2 0-3 2-3 4v1h-1c0-9-6-16-4-25 0-3 0-5 4-5 7 1 14-1 22-2 2-1 3-1 3-4v-6c1-4-1-7-5-6-4 0-5-2-5-5a80 80 0 0 0 0-12c-1-5 1-8 7-7zm0 46a65 65 0 0 1-8 0c-4-1-6 1-6 6 0 6 4 4 7 4 10 0 10 0 10 9 0 3 1 4 4 5 5 0 7-3 6-7-1-5 1-8 7-7 2 0 6 2 6-3 0-3 2-7-5-7-2 0-2-2-2-3 0-3-1-3-3-3s-3 0-3 2c0 4-3 4-6 4h-7z" class="cls-4"/><path id="path877" fill="#e7e8e8" d="M461 513h4c10 0 10 0 11-10 0-3 3-4 6-4 7 0 8 0 8-7 0-4 1-5 5-5 14-1 14-1 14 14v7c0 2 0 5 4 5 1 0 3 0 2 2l-3 1h-17c-4 0-6 2-5 6a29 29 0 0 1 0 3c0 10 0 10 9 11 4 0 4 2 4 4 0 3 0 6-4 6h-16c-2 0-3-1-3-4v-3c-1-9-1-9-10-10-4 0-3-3-3-6 1-5-2-7-7-7a61 61 0 0 1-9 0c-2 0-4 0-4-2s2-1 4-1h10z" class="cls-4"/><path id="path879" fill="#e7e8e8" d="M528 565h-13a2 2 0 0 1-3-3c0-1 0-4 3-3 5 0 4-4 4-7s-1-6 5-7c3 0 2-3 2-5 0-3 1-5 4-4a78 78 0 0 0 9 0c4-1 7 0 6 5 0 5-2 5-6 5-6 0-9 5-6 11l3 1h6c2 0 3 1 3 4s-1 3-3 3h-14z" class="cls-4"/><path id="path881" fill="#e7e8e8" d="M450 598a55 55 0 0 1-7 0c-2 0-6 2-7-2-1-3-2-8 1-11 2-2 2-4 2-7 0-2 1-3 3-3 3 0 3 1 3 3v10c0 2 1 3 3 3s4 0 4-3v-11l1-2a1 1 0 0 1 2 1c1 4 4 2 7 2 6-1 9 1 9 6 1 3-1 4-4 4a31 31 0 0 0-5 0 3 3 0 0 0-3 3c0 2 0 3 2 4 1 0 4-1 3 2 0 2-2 1-4 1h-10z" class="cls-4"/><path id="path883" fill="#e7e8e8" d="M306 499h22c2 0 4 1 4-2 0-4 3-3 6-3 2 0 5-1 4 3 0 2 0 4-3 6-5 3-11 3-16 3h-10c-6 1-8-1-7-7z" class="cls-4"/><path id="path885" fill="#e7e8e8" d="M490 558h8c3 0 5 1 5 4l1 3c8 1 4 7 5 11 0 1-1 3-3 3s-3-1-4-3a10 10 0 0 1 0-1c-1-10-1-10-10-10h-12c-2 0-4 0-4-3s2-4 5-4h9z" class="cls-4"/><path id="path887" fill="#7d8b95" d="M552 591v3c0 11 0 11-11 11-8 0-8 0-9-9v-5z" class="cls-5"/><path id="path889" fill="#7d8b95" d="M380 578v-13c4 1 6-1 5-5a22 22 0 0 1 0-5h9c0 4 3 10-5 11-2 0-1 3-1 4 1 9 1 9-8 8z" class="cls-5"/><path id="path891" fill="#7d8b95" d="M389 587c-1-8-1-8 7-8h7c3-1 5 0 5 4 0 5-2 5-5 5h-13z" class="cls-5"/><path id="path893" fill="#808d96" d="M496 591c-3 0-7 1-7-5 0-5 3-5 7-5s7 0 7 6c0 5-3 4-7 4z" class="cls-8"/><path id="path895" fill="#e7e8e8" d="M264 601v-1c0-9 0-9 8-9 4 0 6 1 6 5-1 4-1 6-6 5h-8z" class="cls-4"/><path id="path897" fill="#e7e8e8" d="M450 451c-4 0-7 0-7-6s4-4 8-5c3 0 6 0 6 6 0 5-3 5-7 5z" class="cls-4"/><path id="path899" fill="#e7e8e8" d="M269 555c-3 0-5 0-5-5s3-4 6-4 7-1 7 4c0 6-4 5-8 5z" class="cls-4"/><path id="path901" fill="#e7e8e8" d="M158 558c-2 0-4 1-5-2-2-4-6-7-3-12a2 2 0 0 1 1-1 2 2 0 0 1 2 2c-1 6 1 7 7 7 2 0 3 2 3 4-1 3-4 2-6 2z" class="cls-4"/><path id="path903" fill="#e7e8e8" d="M287 542c-6 1-7-1-7-6s1-8 7-7v14z" class="cls-4"/><path id="path905" fill="#e7e8e8" d="M257 572c0 2 1 5-1 6a4 4 0 0 1-5 0v-12a4 4 0 0 1 5 0c2 1 1 4 1 6z" class="cls-4"/><path id="path907" fill="#e7e8e8" d="M467 467c0-3-1-5 1-7a4 4 0 0 1 5 1v12a4 4 0 0 1-5 0c-2-2-1-4-1-6z" class="cls-4"/><path id="path909" fill="#7d8b95" d="m526 604-1 1-6-1a63 63 0 0 0 0-6c-1-6 2-8 7-7v13z" class="cls-5"/><path id="path911" fill="#e7e8e8" d="M198 558h-9c-3 0-5 0-4-3 0-2 1-3 4-3a17 17 0 0 0 2 0c6-1 8 1 7 6z" class="cls-4"/><path id="path913" fill="#e7e8e8" d="M198 575v9c0 2-1 4-3 4-3 0-4-1-4-4 0-8 0-9 7-9z" class="cls-4"/><path id="path915" fill="#e7e8e8" d="M135 552c-4 0-5-1-5-5s1-5 5-5 4 2 4 5c0 4-1 5-4 5z" class="cls-4"/><path id="path917" fill="#808d96" d="M503 605a5 5 0 0 1-1-1v-6c0-3 2-3 5-3 2 0 3 1 3 3-1 4-1 8-7 7z" class="cls-8"/><path id="path919" fill="#e7e8e8" d="M287 529v-7c0-3 1-3 3-3s3 0 3 3c1 6 0 7-7 7z" class="cls-4"/><path id="path921" fill="#808d96" d="M452 563c0 3 1 6-3 6s-4-3-4-6 0-5 4-5 3 3 3 5z" class="cls-8"/><path id="path923" fill="#e7e8e8" d="M568 569a20 20 0 0 0 0 2c1 6-1 8-7 8a19 19 0 0 0 0-4c-1-5 2-7 7-6z" class="cls-4"/><path id="path925" fill="#7d8b95" d="M403 493c-2 0-5 0-5-3 0-4 3-3 5-3s5-1 5 3-3 2-5 3z" class="cls-5"/><path id="path927" fill="#808d96" d="M385 604h-4v-9c0-2 0-4 2-3 2 0 2 1 2 2v10z" class="cls-8"/><path id="path929" fill="#e7e8e8" d="M123 558c-2 1-3-1-3-3s1-3 3-3c3 0 4 1 4 3s-2 4-4 3z" class="cls-4"/><path id="path931" fill="#e7e8e8" d="M307 513c0 3-2 3-4 3-3 0-3-1-3-3 0-3 1-3 4-3 2 0 3 1 3 3z" class="cls-4"/><path id="path933" fill="#808d96" d="M486 604h-3c0-3-1-6 1-9a2 2 0 0 1 1 0c2 3 1 6 1 9z" class="cls-8"/><path id="path935" fill="#808d96" d="M516 586c-1 2 1 5-2 5s-2-3-2-5-1-4 2-4 1 3 2 4z" class="cls-8"/><path id="path937" fill="#808d96" d="m389 587 1 1z" class="cls-8"/><path id="path939" fill="#e7e8e8" d="M601 395c-13-1-13-1-13-14l-1-3c2-1 1-3 1-5 0-8 0-7 8-7h16c4-1 5 1 5 4-1 5 1 9-2 13l-1 9c0 1 1 2 3 2s3-1 3-2v-2c1-8 1-8 10-8h3c7 0 7 0 7 7 0 3 0 5 4 6s2 4 2 6c0 4 0 7 5 7a2 2 0 0 1 2 1c-1 2-2 2-3 2h-24c-8 0-10 1-9 9 1 4-1 5-4 5h-18c-3 0-4-2-4-5-1-9-1-9 8-9 5 0 8-4 14-4 3 0 1-6 1-9 0-2-1-3-4-3z" class="cls-4"/><path id="path941" fill="#e7e8e8" d="M486 60c1-13 1-13 14-13h23c2 1 5-1 6 2a20 20 0 0 1 0 10c-1 2-2 2-4 2h-11c-3-1-5 1-5 4 0 4 2 9-2 12-2 2-7 0-11 0a36 36 0 0 1-5 0c-3 0-5 1-5 5 0 2 1 5-3 5-1 0-3 0-3-3 0-2-2-7 1-7 6-1 5-4 5-7V60z" class="cls-4"/><path id="path943" fill="#e7e8e8" d="M601 83c1 5 0 8-6 7-5 0-8 0-8-6 0-5 1-8 7-8 5 1 8 1 7 7z" class="cls-4"/><path id="path945" fill="#e7e8e8" d="M540 90c9 0 10 1 9 7-1 2-1 3-3 3a100 100 0 0 1-12 0c-3 0-2-4-2-6s0-4 3-4h5z" class="cls-4"/><path id="path947" fill="#e7e8e8" d="M395 64c-1 2 1 5-2 6s-5-2-6-2c-7 0-5-6-5-10 0-5-4-4-7-4 0-6 5-3 7-3 3-1 3 2 3 4 1 9 1 9 10 9z" class="cls-4"/><path id="path949" fill="#e7e8e8" d="M529 109h-13v-1c0-7 5-11 12-8 3 2 1 6 1 9z" class="cls-4"/><path id="path951" fill="#e7e8e8" d="M464 81c0-2-1-4 3-5 4 0 3 3 3 5 0 3 1 6-3 6s-4-3-3-6z" class="cls-4"/><path id="path953" fill="#808d96" d="M558 110c-2 4-4 4-7 0h7z" class="cls-8"/><path id="path955" fill="#e7e8e8" d="M80 178a19 19 0 0 0-3 0c-5 1-7-1-6-6 0-4 3-10-6-10-2 0-1-4-1-6 1-5 0-8-6-7-2 0-4-1-3-3a16 16 0 0 1 2 0c5 0 8-1 7-7-1-5 1-8 6-7 3 0 3-2 3-5s-1-8 5-8c3 0 2-4 2-6-1-6 2-8 7-7s7-1 7-6c-1-4 0-7 5-7 3 1 4-1 4-3 0-3 1-3 4-3 2 0 3 0 3 3 1 2-1 3-3 3-4 0-3 3-3 6s1 7-5 7c-3 1-2 5-2 8 0 2 2 2 4 2 3 0 3-2 3-4l1-4c2 0 1 2 1 3 0 4 2 5 6 5 5 0 4-3 4-6v-3c0-2 1-4 4-3 2 0 3 1 3 3 1 9 1 9 10 9h6c0 14 0 14-13 14a23 23 0 0 1-3 0c-5-1-7 1-7 6 1 5-1 7-6 6H85c-3 1-5-1-5-5 0-2 0-4-3-4s-3 2-3 4c1 4-1 9 6 9a1 1 0 0 1 1 2 2 2 0 0 1-2 1c-5 0-5 2-5 5v12c0 4-1 9 5 10l1 2z" class="cls-4"/><path id="path957" fill="#e7e8e8" d="M54 142c-2 0-4 0-3 3 0 3-1 4-5 4-2 0-5 0-5-4s-3-3-5-3c-5 1-9 1-8-6 1-3-3-4-3-6h20c4 0 6-1 6-6 0-2-1-4 2-4 2 0 1 2 1 4v18z" class="cls-4"/><path id="path959" fill="#e7e8e8" d="M2 130v3c0 9 0 9-10 9-7 0-10-2-10-9v-3z" class="cls-4"/><path id="path961" fill="#e7e8e8" d="M139 211a42 42 0 0 0-6 0c-5 1-7-1-7-6s1-8 7-7c5 0 7 1 6 6a68 68 0 0 0 0 7z" class="cls-4"/><path id="path963" fill="#808d96" d="M136 63c-1-3-1-6 5-6s5 4 5 7c0 4 0 7-5 7-6 0-5-4-5-8z" class="cls-8"/><path id="path965" fill="#e7e8e8" d="M139 116v-10c0-2 1-3 4-3 2 0 3 1 3 3a18 18 0 0 0 0 4c1 5-2 7-7 6z" class="cls-4"/><path id="path967" fill="#e7e8e8" d="M84 192c-1 2 2 6-4 6 0-3-1-6 4-6z" class="cls-4"/><path id="path969" fill="#e7e8e8" d="M127 421c-1 13-1 13-14 13h-3c0-13 0-13 12-13z" class="cls-4"/><path id="path971" fill="#e7e8e8" d="M143 408c-1 3 1 7-3 11-3 2-5 2-7 2a52 52 0 0 1-6 0c-1-13-1-13 13-13z" class="cls-4"/><path id="path973" fill="#808d96" d="M74 393c0 3 1 5-3 5s-4-2-3-5c0-2-1-5 3-5s3 3 3 5z" class="cls-8"/><path id="path975" fill="#e7e8e8" d="M110 413c-1 2 0 5-3 5-4 0-3-4-3-6s-1-4 2-4c5 0 3 3 4 5z" class="cls-4"/><path id="path977" fill="#e7e8e8" d="M81 450c0 3-2 4-4 4-3 0-4-1-4-4s2-3 5-3c2 0 3 1 3 3z" class="cls-4"/><path id="path979" fill="#e7e8e8" d="M506 300c-1-3 2-8-3-10-1-5-5-4-7-4-6 1-7-1-7-6s1-7 6-6h17c3 0 4 1 4 4v7c0 3-1 5-4 5-4 0-3 2-3 5 0 2 1 5-3 5z" class="cls-4"/><path id="path981" fill="#e7e8e8" d="M549 295c-1 2 0 4-2 4-3 0-1-3-2-5 0-1 0-4 2-4 3 0 1 4 2 5z" class="cls-4"/><path id="path983" fill="#e7e8e8" d="M58 207c0 5-3 4-6 4-4 1-4-2-4-4 0-12 0-12-12-12a59 59 0 0 0-8 0c-5 0-7-2-6-6 10-1 9 1 9-10a6 6 0 0 1 0-1c1-5-1-7-6-6-1-13-1-13 12-13h9c4-1 6 2 8 5v10c-1 2-3 1-5 1s-5 0-4 4c0 2-2 6 3 6 4 0 2 3 3 5a1 1 0 0 0 2 1c3 0 5 2 5 5a93 93 0 0 0 0 11z" class="cls-4"/><path id="path985" fill="#b3bfc8" d="M25 172c5-1 7 1 6 6a6 6 0 0 0 0 1c0 11 1 9-9 10-3-2-7-1-10-1v-3c0-13 0-13 13-13Z" class="cls-6"/><path id="path987" fill="#e7e8e8" d="M12 185v3c-1 2 2 6-3 7 0-3-2-3-4-3-1-5 1-8 7-7z" class="cls-4"/><path id="path989" fill="#808d96" d="M53 191a1 1 0 0 1-2-1z" class="cls-8"/><path id="path991" fill="#e7e8e8" d="M307 447v-13a6 6 0 0 1 1 0c5 0 10-1 13 1 4 2 2 7 2 12 0 3 2 4 4 4 5-1 6 1 6 5 0 5-3 4-6 4s-6-1-8 3h-9c-2-1 0-4-1-6-1-3 3-7-2-10z" class="cls-4"/><path id="path993" fill="#e7e8e8" d="M276 57h7l1 3c8 0 6 6 6 10-5 0-9 0-14 3z" class="cls-4"/><path id="path995" fill="#e7e8e8" d="M51 298c0-2-1-5 3-5s3 3 3 5c0 3 1 5-3 5s-3-3-3-5z" class="cls-4"/><path id="path997" fill="#e7e8e8" d="M80 288c0 3 0 5-3 5-5-1-2-5-3-7s1-3 3-3c4 0 3 3 3 5z" class="cls-4"/><path id="path999" fill="#e7e8e8" d="M61 309v-3l1-2c2-1 2 1 2 2a12 12 0 0 1 0 3c0 2 1 6-1 6-4 0-1-4-2-6z" class="cls-4"/><path id="path1001" fill="#e7e8e8" d="M113 288c0 2 1 5-2 4-2 0-1-2-1-4s-1-4 1-4c3 0 1 3 2 4z" class="cls-4"/><path id="path1003" fill="#e7e8e8" d="M71 300c-1 0-3 0-3-2s2-2 3-2 3 0 3 2-2 2-3 2z" class="cls-4"/><path id="path1005" fill="#e7e8e8" d="M139 293c6 0 3 5 4 7-6 0-4-4-4-7z" class="cls-4"/><path id="path1007" fill="#e7e8e8" d="M113 267c2 1 7-2 7 3-3 0-7 2-7-3z" class="cls-4"/><path id="path1009" fill="#808d96" d="M9 272c0 2 0 5-4 5s-3-3-3-5-1-5 3-5 3 3 4 5z" class="cls-8"/><path id="path1011" fill="#808d96" d="M575 519h7c3 0 6 0 6-4 0-2 1-2 3-2s3 0 3 3c0 1 0 3 2 3 7 0 5 4 5 7 0 5-4 3-6 3-6-1-8 2-7 7 1 4 0 7-6 6-3 0-4-1-4-4 0-9 0-9-10-9-3 0-7 2-7-4 0-5 2-7 6-6a65 65 0 0 0 8 0z" class="cls-8"/></g></g><rect id="rect1016" width="368.6" height="368.6" x="-184" y="185" fill="#fff" rx="184.3" transform="rotate(-45)"/><path id="polyline1018" fill="none" stroke="#122075" stroke-linecap="round" stroke-linejoin="round" stroke-width="22.1" d="M261 130v50l-43 39-51-48" class="cls-13"/><path id="polyline1020" fill="none" stroke="#122075" stroke-linecap="round" stroke-linejoin="round" stroke-width="22.1" d="M261 130v50l44 39 51-48" class="cls-13"/><path id="polyline1022" fill="none" stroke="#122075" stroke-linecap="round" stroke-linejoin="round" stroke-width="22.1" d="M261 392v-50l44-38 51 48" class="cls-13"/><path id="polyline1024" fill="none" stroke="#122075" stroke-linecap="round" stroke-linejoin="round" stroke-width="22.1" d="M261 392v-50l-43-38-51 48" class="cls-13"/><path id="line1026" fill="none" stroke="#122075" stroke-linecap="round" stroke-linejoin="round" stroke-width="22.1" d="M131 262h261" class="cls-13"/><rect id="rect1028" width="451.2" height="451.2" x="-226" y="144" fill="none" stroke="#122075" stroke-miterlimit="10" stroke-width="15.3" rx="225.6" transform="rotate(-45)"/></svg>