<svg xmlns="http://www.w3.org/2000/svg" id="Layer_1" width="379.66" height="368.18" data-name="Layer 1" version="1.1"><defs id="defs4"><style id="style2">.cls-3{fill:#fff}.cls-4{fill:#541f3e}.cls-5{fill:#009e87}</style></defs><path id="path194" d="M130.17 142.41h112.69a57.89 57.89 0 0 1 57.89 57.89v76.79H72.28v-76.8a57.89 57.89 0 0 1 57.89-57.88z" class="cls-5" style="fill:#009e87"/><path id="path196" d="M314.28 290.61H58.78v-90.32a71.48 71.48 0 0 1 71.39-71.39h112.69a71.48 71.48 0 0 1 71.42 71.39zm-228.49-27h201.49v-63.32a44.56 44.56 0 0 0-44.38-44.38H130.17a44.56 44.56 0 0 0-44.38 44.38z" class="cls-4" style="fill:#541f3e"/><path id="rect198" d="M140.35 136.35h92.33v63.22h-92.33z" class="cls-4" style="fill:#541f3e"/><path id="path10542" d="M194.898 78.613c-2.353-.982-4.844-1.69-7.39-1.809-3.109-.146-6.22.594-9.066 1.854-2.846 1.26-5.443 3.029-7.864 4.985-4.158 3.361-7.827 7.29-11.243 11.403-4.516 5.438-8.639 11.27-11.527 17.721-3.075 6.87-4.706 14.523-3.683 21.978.773 5.642 3.036 11.007 6.025 15.855 2.988 4.848 6.695 9.213 10.55 13.404 4.653 5.06 9.597 9.94 15.403 13.619 3.259 2.064 6.869 3.762 10.716 4.045 3.148.23 6.319-.505 9.202-1.792 2.883-1.286 5.498-3.108 7.943-5.104 5.056-4.127 9.445-9.028 13.327-14.273 5.274-7.126 9.697-15.062 11.553-23.731 1.633-7.632 1.195-15.734-1.507-23.057-2.891-7.835-8.211-14.527-13.871-20.668-5.355-5.81-11.277-11.387-18.568-14.43z" style="fill:#541f3e;fill-opacity:1;stroke:#541f3e;stroke-width:2.90001;stroke-linecap:round;stroke-linejoin:round;stroke-miterlimit:4;stroke-dasharray:none;stroke-opacity:1"/><path id="path206" d="M174.94 132.78h-14.6a34.54 34.54 0 0 0 3.18 10.91c3.76-1.29 9.55-4.33 11.42-10.91z" class="cls-4" style="fill:#541f3e"/><path id="polygon220" d="M543.35 374.91h-92.23l30.87 70.24h30.49z" class="cls-4" style="fill:#541f3e" transform="translate(-310.72 -175.39)"/><path id="path222" d="M310.46 286.69h61.74v-76c-38.36 0-61.74 31.1-61.74 69.46z" class="cls-4" style="fill:#541f3e"/><path id="path224" d="M62.28 286.68H.58v-76c38.36 0 61.74 31.1 61.74 69.46z" class="cls-4" style="fill:#541f3e"/><path id="polygon226" d="m311.3 513.47 27.01 30.1h317.6l27.01-27.84v-57.05H311.3z" class="cls-4" style="fill:#541f3e" transform="translate(-310.72 -175.39)"/><text xml:space="preserve" id="text4339" x="75.165" y="354.822" style="font-style:normal;font-variant:normal;font-weight:400;font-stretch:normal;font-size:23.5563px;line-height:1.25;font-family:&quot;Franklin Gothic Heavy&quot;;-inkscape-font-specification:&quot;Franklin Gothic Heavy, Normal&quot;;font-variant-ligatures:normal;font-variant-caps:normal;font-variant-numeric:normal;font-variant-east-asian:normal;letter-spacing:3.77px;fill:#009e87;fill-opacity:1;stroke-width:.999994"><tspan id="tspan4337" x="75.165" y="354.822" style="font-style:normal;font-variant:normal;font-weight:400;font-stretch:normal;font-size:23.5563px;font-family:&quot;Franklin Gothic Heavy&quot;;-inkscape-font-specification:&quot;Franklin Gothic Heavy, Normal&quot;;font-variant-ligatures:normal;font-variant-caps:normal;font-variant-numeric:normal;font-variant-east-asian:normal;fill:#009e87;fill-opacity:1;stroke-width:.999994">FOOTBALL CLUB</tspan></text><path id="rect228" d="M-356.76-322.65h340.75v39.75h-340.75z" class="cls-5" style="fill:#009e87" transform="scale(-1)"/><path id="rect230" d="M-356.77-322.65h42.45v39.75h-42.45z" class="cls-3" style="fill:#fff" transform="scale(-1)"/><path id="polygon232" d="m530.93 477.34-10.57-15.29-10.57 15.28 10.57 16.87z" class="cls-4" style="fill:#541f3e" transform="translate(-310.72 -175.39)"/><path id="polygon234" d="m573.12 477.34-10.57-15.29-10.57 15.28 10.57 16.87z" class="cls-4" style="fill:#541f3e" transform="translate(-310.72 -175.39)"/><path id="polygon236" d="m615.3 477.34-10.56-15.29-10.57 15.28 10.57 16.87z" class="cls-4" style="fill:#541f3e" transform="translate(-310.72 -175.39)"/><path id="polygon238" d="m657.49 477.34-10.57-15.29-10.56 15.28 10.57 16.87z" class="cls-5" style="fill:#009e87" transform="translate(-310.72 -175.39)"/><path id="polygon240" d="m362.17 477.34-10.57-15.29-10.57 15.28 10.57 16.87z" class="cls-4" style="fill:#541f3e" transform="translate(-310.72 -175.39)"/><path id="polygon242" d="m404.36 477.34-10.57-15.29-10.57 15.28 10.57 16.87z" class="cls-4" style="fill:#541f3e" transform="translate(-310.72 -175.39)"/><path id="polygon244" d="m446.55 477.34-10.57-15.29-10.57 15.28 10.57 16.87z" class="cls-4" style="fill:#541f3e" transform="translate(-310.72 -175.39)"/><path id="polygon246" d="m488.74 477.34-10.57-15.29-10.57 15.28 10.57 16.87z" class="cls-4" style="fill:#541f3e" transform="translate(-310.72 -175.39)"/><path id="path248" d="M232.68 155.91h10.18a44.56 44.56 0 0 1 44.42 44.38v63.32h-21v-66.57s.34-25.52-33.6-41.13z" class="cls-3" style="fill:#fff"/><path id="path250" d="M132.63 155.91h-10.18a44.54 44.54 0 0 0-44.37 44.38v63.32H99v-66.57s-.31-25.52 33.63-41.13z" class="cls-4" style="fill:#541f3e"/><path id="path252" d="m12.71 90.23 40.88 27.62.9 4.9-1.5 2.21.22 1.13 5.22 3.52-3.94 5.84-5.21-3.53-1.13.22-1.49 2.21-4.92 1.06L.86 107.79l-.86-5 7.84-11.6zm-1.43 8.54-3 4.48.22 1.13 33.58 22.69 1.13-.22 3-4.48-.22-1.13-33.58-22.69z" class="cls-5" style="fill:#009e87"/><path id="path254" d="m47.88 53.36 33.26 36.45-.28 5-10.4 9.49-4.92-.23-33.26-36.46-3-2 6.45-5.89 1.69 3.17 30.32 33.22 1.15.05 4.05-3.7v-1.15L42.68 58.1l-3-2 6.52-5.94z" class="cls-5" style="fill:#009e87"/><path id="path256" d="m97.28 82.47-.92-3.48-24.08-43.13-2.44-2.55 18.44-10.29 4.89 6.17-3.57 1.06-8.79 4.92-.32 1.11 7.81 14 1.11.32 2.45-1.37 2.61-2.48 4.3 7.7-3.48.92-2.45 1.37-.32 1.11 7.76 13.87 1.11.31 8.79-4.91 2.78-2.48 2.76 7.53z" class="cls-5" style="fill:#009e87"/><path id="path258" d="m130.6 65.95-.11-3.59-13.74-47.46-1.8-3L135.28 6l3.37 7.13-3.71.22-9.68 2.8-.55 1 4.44 15.37 1 .56 2.71-.78 3.09-1.83 2.46 8.47-3.6.12-2.7.78-.56 1 4.43 15.3 1 .55 9.68-2.8 3.26-1.79 1 8z" class="cls-5" style="fill:#009e87"/><path id="path260" d="m175.41 56.93-8.74.38.74-3.45-2.13-49.36-1-3.44 7.85-.34 10.15 32.63L181 3.82l-1-3.44 8.81-.38-.74 3.51 2.14 49.37 1 3.37-7.93.36-10.16-32.71 1.25 29.71z" class="cls-5" style="fill:#009e87"/><path id="path262" d="m236.96 60.72 17.9-46 4.58-2 13.11 5.11 2 4.51-2.58 6.63-.41 3.49-8.21-3.2 2.13-2.82 1-2.62-.47-1.06-5.11-2-1 .46-14.73 37.83.46 1.06 5.11 2 1.05-.47 1-2.55.34-3.52 8.21 3.19-2.06 2.93-2.61 6.69-4.51 2-13.11-5.1z" class="cls-5" style="fill:#009e87"/><path id="path264" d="m277.88 84.67-7.37-4.7 2.58-2.4 26.57-41.67 1.12-3.41 7.37 4.7-2.62 2.42-26.57 41.67z" class="cls-5" style="fill:#009e87"/><path id="path266" d="m341.92 75.88-2.11-3.16-3.26-3.11h-1.16l-31.11 32.46-1.72 3.08-6.36-6.1 3-1.85 31.08-32.45v-1.16l-3.37-3.23-3.18-1.92 6.39-4.85 16.31 15.64z" class="cls-5" style="fill:#009e87"/><path id="path268" d="m329.05 133.7-2.5 2.58-4.62-7.52 3.48-1 17.8-10.93 20.27-22.78 1.41-2.95 5.39 8.71-2.51.59-12.72 13.28 17.6-5.32 1.58-2.1 5.43 8.84-3.59.11-29.43 7.71z" class="cls-5" style="fill:#009e87"/><path id="path1586" d="M191.265 94.091c-1.412-.7-2.932-1.232-4.505-1.327-1.968-.118-3.936.458-5.669 1.4-1.732.94-3.25 2.235-4.653 3.619-2.572 2.534-4.805 5.394-6.856 8.367-2.805 4.065-5.293 8.378-7.028 13.003-1.924 5.131-2.902 10.687-2.245 16.127.959 7.947 5.287 15.079 10.106 21.47 2.76 3.661 5.749 7.207 9.391 9.993 1.926 1.473 4.118 2.754 6.533 2.968 1.993.176 4.002-.398 5.757-1.358 1.755-.96 3.28-2.29 4.697-3.702 3.136-3.127 5.807-6.7 8.125-10.474 3.297-5.365 5.914-11.217 7.044-17.413 1.023-5.61.794-11.478-.919-16.918-1.747-5.548-4.966-10.514-8.457-15.166-3.13-4.172-6.65-8.268-11.321-10.589z" style="fill:none;stroke:#cd623d;stroke-width:4.6;stroke-linecap:round;stroke-linejoin:round;stroke-miterlimit:4;stroke-dasharray:none;stroke-opacity:1"/><path id="path2062" d="m181.514 115.478 9.05-.034" style="fill:none;stroke:#cd623d;stroke-width:2.9;stroke-linecap:round;stroke-linejoin:miter;stroke-miterlimit:4;stroke-dasharray:none;stroke-opacity:1"/><path id="path2099" d="m181.514 121.273 9.05-.035" style="fill:none;stroke:#cd623d;stroke-width:2.9;stroke-linecap:round;stroke-linejoin:miter;stroke-miterlimit:4;stroke-dasharray:none;stroke-opacity:1"/><path id="path2185" d="m181.514 127.24 9.05-.035" style="fill:none;stroke:#cd623d;stroke-width:2.9;stroke-linecap:round;stroke-linejoin:miter;stroke-miterlimit:4;stroke-dasharray:none;stroke-opacity:1"/><path id="path2191" d="m181.514 133.034 9.05-.034" style="fill:none;stroke:#cd623d;stroke-width:2.9;stroke-linecap:round;stroke-linejoin:miter;stroke-miterlimit:4;stroke-dasharray:none;stroke-opacity:1"/><path id="path2197" d="m181.514 138.76 9.05-.035" style="fill:none;stroke:#cd623d;stroke-width:2.9;stroke-linecap:round;stroke-linejoin:miter;stroke-miterlimit:4;stroke-dasharray:none;stroke-opacity:1"/><path id="path2203" d="m181.514 144.795 9.05-.034" style="fill:none;stroke:#cd623d;stroke-width:2.9;stroke-linecap:round;stroke-linejoin:miter;stroke-miterlimit:4;stroke-dasharray:none;stroke-opacity:1"/><path id="path2242" d="m186.147 115.533.043 29.315" style="fill:none;stroke:#cd623d;stroke-width:2.9;stroke-linecap:butt;stroke-linejoin:miter;stroke-miterlimit:4;stroke-dasharray:none;stroke-opacity:1"/></svg>