<svg xmlns="http://www.w3.org/2000/svg" id="Layer_1" width="291.88" height="369.708" data-name="Layer 1" version="1.1"><defs id="defs7"><clipPath id="clip-path"><path id="path4" d="M618.16 282.82H374.7l-.36 163.73a73.54 73.54 0 0 0 73.52 73.52h96.43a73.54 73.54 0 0 0 73.52-73.52z" style="fill:none"/></clipPath><style id="style2">.cls-6{fill:none}.cls-5{fill:#2e3147}.cls-6{stroke:#28c628}.cls-11,.cls-6{stroke-miterlimit:10}.cls-6{stroke-width:4.23px}.cls-11,.cls-8{fill:#f47c06}.cls-9{fill:#3784d1}.cls-10{fill:#93c6f9}.cls-11{stroke:#f47c06;stroke-width:1.76px}.cls-14{fill:#108910}.cls-15{fill:#90e260}</style></defs><path id="path183" d="M14.11 77.978h277.77v190.53a95.21 95.21 0 0 1-95.21 95.2H95.21A95.21 95.21 0 0 1 0 268.508V77.978Z" class="cls-5" style="fill:#2e3147"/><path id="path185" d="M14.11 83.928h277.77v190.57a95.22 95.22 0 0 1-95.21 95.21H95.21A95.22 95.22 0 0 1 0 274.498V83.928Z" class="cls-5" style="fill:#2e3147"/><path id="path187" d="M148.88 89.538H55.4l-1.83 11.09-8.69-6.16.26 12.35-11.31-8.51 1.92 13.39-11.48-9.3 4.05 18.39-11.3-4.23 3.78 12.25-9.24-.71v141.35a82.71 82.71 0 0 0 82.7 82.7h56" class="cls-6" style="fill:none;stroke:#28c628;stroke-width:4.23000002px;stroke-miterlimit:10"/><g id="g193" clip-path="url(#clip-path)" style="clip-path:url(#clip-path)" transform="translate(-350.12 -180.072)"><path id="path189" d="M295.46 426.13a7.17 7.17 0 0 1-8.25-7.15c.11-4.31 3.61-8.93 8.25-9.43q14.7-2 29.43-3.69v-6.7c-3.66.42-5.49.64-9.14 1.08a4.65 4.65 0 0 1-5.36-4.71 6.25 6.25 0 0 1 5.36-6l5.39-.65q5.06-10.72 10.12-21.46a6.27 6.27 0 0 1 3.84-3.31 772.15 772.15 0 0 1 77-17.74v-54.64a4.2 4.2 0 0 1 3.92-4.14c3.5-.19 5.25-.29 8.74-.46a3.71 3.71 0 0 1 3.93 3.74v52.73c23.3-3.44 46.84-6 70.42-6s47.11 2.53 70.43 6v-52.78a3.71 3.71 0 0 1 3.93-3.74c3.5.17 5.25.27 8.74.46a4.21 4.21 0 0 1 3.93 4.14v54.64a771.13 771.13 0 0 1 77 17.74 6.27 6.27 0 0 1 3.84 3.31q5.07 10.72 10.13 21.46l5.39.65a6.26 6.26 0 0 1 5.36 6 4.65 4.65 0 0 1-5.36 4.71c-3.66-.44-5.49-.66-9.14-1.08v6.7q14.73 1.72 29.43 3.69c4.34.81 8.31 4.84 8.24 9.43a7.21 7.21 0 0 1-8.24 7.15 1534.8 1534.8 0 0 0-407.33.05zm367.19-21.48v-7.22q-38.1-5.9-76.5-9.53v2.45c.64 3.22 1 4.83 1.61 8q37.52 2.32 74.89 6.3zM579.76 398c-.54-2.71-.8-4.06-1.34-6.77l-1.16-.06-1.33 6.63zm-11.83-.59 1.65-8.16v-2.75c-23.43-1.82-46.93-3.15-70.44-3.17-23.51-.02-47 1.35-70.42 3.17v3c.65 3.15 1 4.73 1.61 7.88q68.79-3.02 137.6-.01zm-145.6.39c-.53-2.65-.8-4-1.34-6.63l-1.16.06c-.53 2.71-.8 4.06-1.33 6.77zm-11.83.65 1.65-8.34v-2.21q-38.38 3.68-76.53 9.53v7.22q37.38-3.99 74.88-6.24zm167.82-15.07v-6.1l-.23-.21-.68-.06v6.32zm-157.43 0V377l-.7.07-.21.18v6.13zM645.76 377l-1.42-1.55v1.35zm-293.24 0 1.41-.2v-1.35zm9.25-1.29 1-.13c-.39-.34-.58-.52-1-.87zm274.74 0v-1l-1 .87zm-255.65-2.44L383 373v-3.15zm236.56 0-2.16-3.4V373Zm-226.56-1.16 3.28-.36-3.28-3.87zm216.55 0v-4.23l-3.28 3.87zm-198.64-1.88 3.38-.32V365Zm180.74 0-3.36-5.23v4.9zm-19.93-1.77v-4.34l-2.83 4.11zm-140.86 0 3.24-.26c-1.29-2.2-1.94-3.31-3.24-5.51zm18.28-1.33 3-.19v-5.09zm104.19 0-3-5.28v5.09zm-10.83-.64v-4.87l-2.75 4.73zm-82.53 0 2.75-.14-2.75-4.73zm64.19-.8-2.95-5.93v5.83zm-45.84 0 2.95-.1v-5.83zm10.81-.3 2.85-.05-2.84-5.66zm19.18-.08 5 .08v-8.07a470.23 470.23 0 0 1-4.96 7.99zm123.6 4.41 3-2.74-3-.72zm-261.34 0v-3.46c-1 .23-2 .48-3 .72zm-21.23 2 .11-.12h-.11zm303.8 0v-.09h-.11zm-274.73-5.4 1.39-2.2-1.39.32zm245.65 0v-1.88l-1.38-.31zm-21.25-3.08 2.41-2.85-2.41-.48zm-203.14 0v-3.34l-2.42.48zm165.27-3.47c1.58-2.31 2.38-3.46 4-5.76l-4-.57zm-157.42 1.56c.85-1.34 1.28-2 2.13-3.33l-2.13.39zm187.44 0v-2.94l-2.14-.39Zm-91.25-3.48 5.87-9.34c-2-.05-4-.09-5.87-.1zm-58.27.15c1.35-2.42 2-3.63 3.39-6.05l-3.39.42zm90.39-.63 4-6.95-4-.37zm-98.26.94v-4.87l-2.63.38zm29.16-.94V350l-4 .37zM555 358v-5.63l-3.4-.42zm-82.53-2.27 3.25-6.53-3.25.22zm53.38 0v-6.31l-3.25-.22zm-32.08-.23v-7.06l-3.51.08c1.38 2.78 2.08 4.18 3.49 6.97zm84.55-53.61v-6.7h-.88v6.7zm-157.43 0v-6.7H420v6.7z" class="cls-5" style="fill:#2e3147"/><path id="path191" d="M582.22 289.31a2.32 2.32 0 0 1 2.16 2.28v56.21a771.71 771.71 0 0 1 78.48 18 4.18 4.18 0 0 1 2.58 2.22q5.31 11.25 10.61 22.49l6.48.77a4.2 4.2 0 0 1 3.6 4.06 3.13 3.13 0 0 1-3.6 3.17q-5.44-.66-10.9-1.29v10.23q15.61 1.8 31.19 3.9a7.76 7.76 0 0 1 6.49 7.41 5.55 5.55 0 0 1-6.49 5.63 1534.8 1534.8 0 0 0-407.36 0 5.55 5.55 0 0 1-6.5-5.63 7.76 7.76 0 0 1 6.5-7.41q15.57-2.1 31.19-3.9v-10.26q-5.46.63-10.9 1.29a3.13 3.13 0 0 1-3.61-3.17 4.21 4.21 0 0 1 3.61-4.06l6.47-.77q5.29-11.25 10.61-22.49a4.22 4.22 0 0 1 2.59-2.22 774.64 774.64 0 0 1 78.49-18v-56.2a2.32 2.32 0 0 1 2.16-2.28l8.74-.45a2 2 0 0 1 2.17 2.05v54.74c23.87-3.6 48-6.29 72.18-6.26 24.18.03 48.3 2.65 72.19 6.26v-54.74a2 2 0 0 1 2.16-2.05c3.5.17 5.25.26 8.74.45m-6.58 14.2 4.42.23v-10.21l-4.42-.23v10.23m-157.42.23 4.41-.23v-10.23l-4.41.23v10.23m161.84 7.4v-3.08l-2-.11 2 3.19m-161.84 0 2-3.18-2 .11v3.07m2.36 4.12 2.06-.11v-3.07c-.83 1.27-1.24 1.91-2.06 3.18m155.06-.11 2.06.11c-.82-1.27-1.23-1.91-2.06-3.18v3.07m4.43 7.64v-3.09l-2.06-.1 2.06 3.19m-161.85 0 2-3.17-2 .1v3.07m2.36 4.13 2.06-.11v-3.11c-.82 1.27-1.24 1.91-2.06 3.19m155.07-.11 2.05.11-2.05-3.18v3.07m4.42 7.64v-3.09l-2.06-.11 2.06 3.2m-161.85 0 2-3.18-2 .11v3.07m2.36 4.12 2.06-.1v-3.09l-2.06 3.19m155.07-.1 2.05.1-2.05-3.17v3.07m4.42 7.64V343l-2.06-.11 2.06 3.2m-161.85 0 2-3.18-2 .11V346m81.6 18q5.37-8.58 10.78-17.16c-3.59-.13-7.19-.2-10.78-.21V364m-4.34-1v-16.36c-2.6 0-5.32.1-8.1.2q4.06 8.06 8.1 16.11m-24.83.27 7.95-16c-2.58.15-5.24.33-7.95.53v15.45m56.91 0v-15.43c-2.7-.2-5.36-.38-7.94-.53q4 8 7.94 16m-61.24.74v-15.86c-2.83.24-5.75.51-8.72.82q4.37 7.5 8.72 15m65.57 0 8.73-15c-3-.31-5.89-.58-8.73-.82V364m-90.39.74 8.37-14.92c-2.73.32-5.53.67-8.37 1v13.88m115.22 0v-13.88c-2.84-.37-5.64-.72-8.37-1l8.37 14.92m-119.55.17v-13.5c-2.4.33-4.84.68-7.28 1q3.65 6.19 7.28 12.41m123.87.63 8.82-12.81c-3-.45-5.92-.88-8.82-1.28v14.14M513 367.19v-16L503 367c3.32 0 6.65.08 10 .15m11.94.36q-3.8-7.65-7.61-15.28v15c2.45.07 5 .15 7.61.25m-39.69-.36c2.61-.05 5.12-.1 7.47-.12l-7.47-14.85v15m-11.93.36c2.6-.1 5.16-.18 7.6-.25v-15l-7.6 15.28m106.75-9.85v-3.1l-2.07-.11 2.07 3.21m-161.86 0 2-3.18-2 .11v3.07m-14.57 9.58 7.5-11.69c-2.48.44-5 .9-7.5 1.38v10.31m191 0v-10.33c-2.5-.48-5-.94-7.5-1.38q3.75 5.83 7.5 11.69m-40.29 1.85-7.83-13.94v13.44c2.56.15 5.18.32 7.83.5m-12.16-.75V355l-7.54 13 7.52.39m-86.07 0 7.52-.39q-3.75-6.46-7.52-12.93v13.32m-12.1.71c2.64-.18 5.27-.35 7.83-.5v-13.44q-3.93 7-7.83 13.94m-17 1.26c2.66-.22 5.33-.42 8-.62q-4-6.81-8-13.6v14.22m-27.63-2.22v-10.37c-2.47.49-5 1-7.5 1.51l7.5 8.86m199.62 0 7.5-8.86c-2.53-.52-5-1-7.5-1.51v10.37m-27.61 2.23v-12l-7.83 11.37c2.61.2 5.22.4 7.83.62m-166 2c2.83-.28 5.67-.56 8.53-.82v-12.48l-8.53 13.27m15.2-10.54 2.07-.1v-3.1l-2.07 3.2m172.31 10.54-8.51-13.24v12.42l8.51.82m-17.24-10.64 2.05.1-2.05-3.17v3.07m-201.1 10.59 6.81-10.76c-2.27.5-4.55 1-6.81 1.53v9.23m249.18 0v-9.23c-2.27-.52-4.55-1-6.81-1.53l6.81 10.76m-253.5 1.55v-9.77c-2.82.66-5.66 1.35-8.47 2l8.47 7.73m257.82 0q4.23-3.87 8.47-7.73c-2.81-.69-5.65-1.38-8.47-2v9.77m-18.87.25V363q-4.3 5.07-8.6 10.15c2.9.31 5.78.62 8.6.95m-220.08 0c2.82-.33 5.69-.64 8.6-.95q-4.29-5.15-8.6-10.15v11.1m231.71 1.37q-3.64-5.77-7.31-11.53v10.65l7.31.88m-243.35 0 7.32-.88v-10.68l-7.32 11.54m-32 .7q3.48-3.86 7-7.7c-2.4.63-4.74 1.25-7 1.86v5.84m307.32 0v-5.84c-2.27-.62-4.61-1.24-7-1.85l7 7.69m-311.63-.75v-3.91l-2.34.65 2.34 3.26m315.94 0 2.33-3.26-2.33-.65v3.91m-77-6.06v-3.1l-2.07-.11 2.07 3.21m-161.86 0 2-3.18-2 .11v3.07m232 10.1q-3.81-4.2-7.63-8.39v7.29l7.63 1.1m-11.94-1.69v-7.1c-2.72 2.47-4.08 3.7-6.8 6.19 2.34.3 4.61.61 6.8.91m-278.26 0c2.19-.3 4.45-.61 6.79-.91-2.72-2.49-4.07-3.72-6.79-6.19v7.1m-11.95 1.69 7.63-1.1V371q-3.82 4.19-7.63 8.39m316.14 2.12-2.35-5c-1.19 1.65-1.78 2.48-3 4.13l5.31.83m-330.12 0 5.31-.83c-1.19-1.65-1.78-2.48-3-4.13l-2.35 5m88.23-10.77h.34v-.51l-.34.54m153.66 0c-.13-.2-.2-.3-.32-.5v.47h.32m-149 6.85c24-1.91 48.09-3.3 72.18-3.31 24.09-.01 48.19 1.4 72.2 3.31v-2.92c-24-1.93-48.1-3.32-72.2-3.34-24.1-.02-48.09 1.43-72.09 3.36v2.92m-8.74 7.58 4.44-.23v-9.91l-3.3.29v.06a2.33 2.33 0 0 1-1.09.9v8.89m157.33-.19 4.45.23v-8.88a2.29 2.29 0 0 1-1.11-.91l-.05-.06-3.27-.29V385m-174.15-7.55a2.12 2.12 0 0 1-1.11-.24c-22.91 2.44-45.76 5.4-68.51 9-.58 1.22-.87 1.83-1.44 3.05q41.57-6.6 83.49-10.51v-2.91q-5.6.53-11.18 1.09a2.24 2.24 0 0 1-1.25.49m266.36 11.84c-.58-1.22-.87-1.83-1.44-3.05q-34.14-5.43-68.52-9a2.08 2.08 0 0 1-1.11.24 2.27 2.27 0 0 1-1.25-.49q-5.56-.57-11.15-1.09v2.91q41.89 4 83.47 10.51m-239 9.95q70.23-3.13 140.49 0c.65-3.24 1.31-6.49 2-9.73v-4.63c-24-1.9-48.11-3.29-72.21-3.31-24.1-.02-48.15 1.36-72.15 3.27v4.91l1.93 9.45m-95 7.41q39-4.22 78.09-6.53c.66-3.31 1.31-6.62 2-9.94V386q-40.17 3.79-80.06 10v10.67m252.45-6.53q39.13 2.32 78.1 6.53v-10.73q-39.84-6.22-80-10v4.45c.78 3.86 1.16 5.79 1.93 9.65m-12.53-.67c3.25.16 4.88.25 8.13.43-.72-3.66-1.08-5.49-1.81-9.16v-1.17l-4.45-.23v.89l-1.85 9.24m-157.43.43c3.25-.18 4.88-.27 8.14-.43-.73-3.58-1.09-5.37-1.82-9v-1.17l-4.44.23v.89l-1.85 9.44m165.69-113.98c-3.49-.19-5.24-.28-8.74-.45a5.38 5.38 0 0 0-5.69 5.42v50.82c-22.74-3.3-45.66-5.68-68.66-5.7-23-.02-45.93 2.4-68.65 5.7v-50.82a5.39 5.39 0 0 0-5.7-5.42l-8.74.45a6.11 6.11 0 0 0-5.69 6v53.08a773.12 773.12 0 0 0-75.6 17.5 8.33 8.33 0 0 0-5.09 4.4q-4.83 10.22-9.64 20.44l-4.3.52a8.37 8.37 0 0 0-7.12 8 6.27 6.27 0 0 0 7.12 6.26l7.38-.89v3.18q-13.85 1.63-27.67 3.49c-5.62.6-9.74 6.09-10 11.44.18 5.1 4.6 9.69 10 8.66a1534.8 1534.8 0 0 1 407.36 0c5 .5 10.3-3.15 10-8.66.16-5.65-4.74-10.46-10-11.44q-13.83-1.86-27.68-3.49v-3.18l7.39.89a6.28 6.28 0 0 0 7.12-6.26 8.37 8.37 0 0 0-7.12-8l-4.3-.52q-4.82-10.23-9.64-20.44a8.32 8.32 0 0 0-5.11-4.4c-24.85-7.16-50.13-12.86-75.56-17.5v-53.07a6.12 6.12 0 0 0-5.7-6zm-78.84 65.92v-1.52h.95l-.95 1.51zm6 11.9.09-.15v.15zm-78.9 24.49c22.83-1.75 45.74-3 68.65-3 22.91 0 45.83 1.28 68.67 3v.91c-.53 2.64-.79 4-1.33 6.6q-67.33-2.9-134.7 0c-.52-2.53-.77-3.79-1.29-6.32v-1.14zm-93.11 10.84q36.38-5.58 73-9.1v.17c-.53 2.69-.8 4-1.33 6.73q-35.91 2.19-71.68 6v-3.77zm250.54-8.65v-.44q36.6 3.56 73 9.09v3.77q-35.77-3.78-71.69-6c-.51-2.58-.77-3.87-1.28-6.45z" class="cls-8" style="fill:#f47c06"/></g><path id="path195" d="M45.76 318.458a73 73 0 0 0 52 21.54h65.93v-67.9l-78.34-1s-25.05 3.39-32.56-12.73c-7.51-16.12-28.55-11.27-28.55-11.27v19.42a73 73 0 0 0 21.52 51.94z" class="cls-9" style="fill:#3784d1"/><path id="path197" d="M68.36 292.378c-8.71-.63-20.15-4.88-23.71-14.79-2.14-6-6.25-13.74-13.69-17a16.43 16.43 0 0 0-6.74-1.4v5.28c2.59-.07 10.44.93 15.45 14.89 4.42 12.3 18 17.53 28.31 18.27 1 .07 2 .11 2.91.11 9.74 0 17.79-3.61 20.95-9.56l-4.67-2.48c-2.45 4.63-10.02 7.31-18.81 6.68z" class="cls-10" style="fill:#93c6f9"/><path id="path199" d="M50.31 310.618a64.41 64.41 0 0 1-17.07-8.81 72.52 72.52 0 0 0 6.85 10.3 69.06 69.06 0 0 0 8.37 3.47 53.4 53.4 0 0 0 17 2.91 45.86 45.86 0 0 0 26.46-8.4l-3-4.35c-11.47 7.94-24.47 9.58-38.61 4.88z" class="cls-10" style="fill:#93c6f9"/><path id="path201" d="M77.49 337.178a71.83 71.83 0 0 0 11.8 2.33c.64-.22 1.3-.46 2-.71 10.27-4 17.09-9.45 20.29-16.36l-4.8-2.22c-5.53 11.88-24.42 16.07-29.29 16.96z" class="cls-10" style="fill:#93c6f9"/><path id="path203" d="M246.15 318.458a73 73 0 0 1-52 21.54h-65.91v-67.9l78.34-1s25 3.39 32.56-12.73c7.56-16.12 28.55-11.27 28.55-11.27v19.42a73 73 0 0 1-21.54 51.94z" class="cls-9" style="fill:#3784d1"/><path id="path205" d="M24.26 50.538h10.47v7a11.55 11.55 0 0 1-2.76 1.84 9 9 0 0 1-4 .92 8.06 8.06 0 0 1-4-1 9.4 9.4 0 0 1-3.12-2.85 14.52 14.52 0 0 1-2.09-4.56 22 22 0 0 1-.76-6v-.11a19.93 19.93 0 0 1 .78-5.65 15.47 15.47 0 0 1 2.11-4.54 10.18 10.18 0 0 1 3-2.93 6.61 6.61 0 0 1 3.6-1 8.5 8.5 0 0 1 4.32 1 14.33 14.33 0 0 1 3.4 2.86l1.49 1.67 5.6-6.61-1.55-1.24a34.3 34.3 0 0 0-3.22-2.32 21.89 21.89 0 0 0-3.65-1.79 20.67 20.67 0 0 0-4.18-1.14 28.78 28.78 0 0 0-4.82-.37 21.2 21.2 0 0 0-8.87 1.83 21.48 21.48 0 0 0-6.84 4.9 21.93 21.93 0 0 0-4.38 7.11 23.68 23.68 0 0 0-1.53 8.4v.12a24.39 24.39 0 0 0 1.5 8.54 21.3 21.3 0 0 0 4.36 7.07 20.34 20.34 0 0 0 6.94 4.78 22.92 22.92 0 0 0 9.05 1.74 24 24 0 0 0 9.82-1.95 27.8 27.8 0 0 0 7.25-4.57l.64-.58v-18.46H27.79Z" class="cls-5" style="fill:#2e3147"/><path id="path207" d="m67.95 24.578-20 43.63h8.81l4.59-10.21h19l4.53 10.21h15.81l-20-43.63zm-2.54 24.83 6-12.82 6.05 12.82z" class="cls-5" style="fill:#2e3147"/><path id="polygon209" d="M466.07 248.28h13.97v-35.17h10.9l3.53-7.95h-38.21v7.95h9.81z" class="cls-5" style="fill:#2e3147" transform="translate(-350.12 -180.072)"/><path id="path211" d="M186.47 30.428a21.55 21.55 0 0 0-15.87-6.66 22 22 0 0 0-9 1.8 21.17 21.17 0 0 0-7 4.9 22.27 22.27 0 0 0-4.49 7.09 22.76 22.76 0 0 0-1.6 8.46v.11a23.09 23.09 0 0 0 1.56 8.45 21.35 21.35 0 0 0 4.48 7.06 22.6 22.6 0 0 0 24.82 4.82 21.1 21.1 0 0 0 7-4.89 22.65 22.65 0 0 0 6.09-15.55v-.09a23 23 0 0 0-1.56-8.39 21.89 21.89 0 0 0-4.43-7.11zm-21.17 25.84a14.89 14.89 0 0 1-2.25-4.55 19.21 19.21 0 0 1-.83-5.7v-.09a19.64 19.64 0 0 1 .8-5.68 14.62 14.62 0 0 1 2.22-4.51 10.8 10.8 0 0 1 3.28-2.92 7.88 7.88 0 0 1 4-1 7.71 7.71 0 0 1 3.94 1 11.2 11.2 0 0 1 3.35 3 14.7 14.7 0 0 1 2.27 4.53 19.32 19.32 0 0 1 .83 5.71v.11a19 19 0 0 1-.83 5.68 15 15 0 0 1-2.25 4.52 10.64 10.64 0 0 1-3.28 2.91 7.86 7.86 0 0 1-4 1 7.66 7.66 0 0 1-4-1 10.83 10.83 0 0 1-3.25-3.01z" class="cls-5" style="fill:#2e3147"/><path id="path213" d="M234.16 50.608a14.1 14.1 0 0 0 3.94-2.77 12.74 12.74 0 0 0 2.61-4 13.3 13.3 0 0 0 .95-5.14v-.11a13.36 13.36 0 0 0-.94-5 12.26 12.26 0 0 0-2.67-4.06 14.86 14.86 0 0 0-5.36-3.34 20.33 20.33 0 0 0-7.14-1.18h-24.42v43.11h13.92v-15.19h7.18l11.36 15.26h11.4l-12.64-16.8a16 16 0 0 0 1.81-.78zm-19.11-17.62h10.16c2.72 0 4.8.55 6.2 1.65a4.85 4.85 0 0 1 1.9 4.15v.14a5.55 5.55 0 0 1-.54 2.51 5.38 5.38 0 0 1-1.56 1.9 7.48 7.48 0 0 1-2.54 1.27 12.31 12.31 0 0 1-3.52.46h-10.1z" class="cls-5" style="fill:#2e3147"/><path id="path215" d="M287.17 50.818a12.79 12.79 0 0 0-2.85-3.52 16 16 0 0 0-3.78-2.41 31.51 31.51 0 0 0-3.89-1.52 27.6 27.6 0 0 0-3.66-.92l-2.51-.45-1.94-.5h-.07a10.94 10.94 0 0 1-3.79-1.39 8.42 8.42 0 0 1-1.93-1.71 3.33 3.33 0 0 1-.74-1.51 4.38 4.38 0 0 1 .34-2.23 5.11 5.11 0 0 1 1.53-1.73 7 7 0 0 1 3.68-1 15.24 15.24 0 0 1 5.14.42 22.83 22.83 0 0 1 4.23 1.56 17.56 17.56 0 0 1 3.67 2.42l1.35 1.18 5.3-5.18-1.68-1.37a28.93 28.93 0 0 0-8.55-4.92 29.56 29.56 0 0 0-9.89-1.6 22.76 22.76 0 0 0-6.34.85 16.6 16.6 0 0 0-5.16 2.48 11.94 11.94 0 0 0-3.54 4 11.18 11.18 0 0 0-1.3 5.36v.12a10.08 10.08 0 0 0 4.07 8.46c2.46 1.85 6.11 3.23 11.17 4.22l2.37.56a11.55 11.55 0 0 1 3.73 1.45 8.79 8.79 0 0 1 1.82 1.61 2.86 2.86 0 0 1 .6 1.49 3.72 3.72 0 0 1-.4 2.16 4.48 4.48 0 0 1-.65.85 5.2 5.2 0 0 1-1.11.85 7.13 7.13 0 0 1-1.76.72 15.05 15.05 0 0 1-2.63.47 15.33 15.33 0 0 1-7.22-1.13 14.71 14.71 0 0 1-2.59-1.44 18.39 18.39 0 0 1-2-1.56l-1.31-1.22-5.57 5.1 1.43 1.44a15.35 15.35 0 0 0 3 2.21 33.61 33.61 0 0 0 3.89 2 34.42 34.42 0 0 0 4.36 1.61 20 20 0 0 0 4.1.81 4.2 4.2 0 0 0 .86.07c.61 0 1.49.07 2.7.09h.44a36.41 36.41 0 0 0 3.79-.14 32.11 32.11 0 0 0 4.71-.89 16.94 16.94 0 0 0 4.66-2 11.52 11.52 0 0 0 3.66-3.69 10.6 10.6 0 0 0 1.46-5.67 10.11 10.11 0 0 0-1.2-4.86z" class="cls-5" style="fill:#2e3147"/><path id="path217" d="M7.88 2.158h1.66v8.61c0 3.41-1.68 4.46-3.89 4.46a5.14 5.14 0 0 1-1.77-.3l.25-1.35a4 4 0 0 0 1.39.25c1.49 0 2.36-.67 2.36-3.19z" class="cls-11" style="fill:#f47c06;stroke:#f47c06;stroke-width:1.75999999px;stroke-miterlimit:10"/><path id="path219" d="m25.88 10.978-1.34 4h-1.71l4.36-12.86h2l4.38 12.86h-1.79l-1.37-4zm4.21-1.3-1.26-3.7c-.28-.84-.47-1.6-.66-2.35-.19.77-.4 1.55-.65 2.33l-1.26 3.72z" class="cls-11" style="fill:#f47c06;stroke:#f47c06;stroke-width:1.75999999px;stroke-miterlimit:10"/><path id="path221" d="M55.58 14.598a8.16 8.16 0 0 1-3.4.61c-3.62 0-6.35-2.29-6.35-6.5a6.4 6.4 0 0 1 6.71-6.76 6.77 6.77 0 0 1 3 .58l-.4 1.35a6.07 6.07 0 0 0-2.59-.53c-3 0-5 1.92-5 5.3 0 3.15 1.82 5.17 4.94 5.17a6.5 6.5 0 0 0 2.71-.54z" class="cls-11" style="fill:#f47c06;stroke:#f47c06;stroke-width:1.75999999px;stroke-miterlimit:10"/><path id="path223" d="M69.09 2.158h1.66v6.2h.06c.34-.49.69-1 1-1.37l3.93-4.83h2.06l-4.65 5.46 5 7.4h-2l-4.24-6.31-1.22 1.41v4.9h-1.66z" class="cls-11" style="fill:#f47c06;stroke:#f47c06;stroke-width:1.75999999px;stroke-miterlimit:10"/><path id="path225" d="M90.64 12.998a5.84 5.84 0 0 0 3 .84c1.7 0 2.69-.9 2.69-2.2 0-1.3-.68-1.88-2.42-2.55-2.1-.75-3.39-1.83-3.39-3.65 0-2 1.66-3.49 4.15-3.49a5.91 5.91 0 0 1 2.85.63l-.46 1.36a5.11 5.11 0 0 0-2.44-.61c-1.76 0-2.42 1-2.42 1.92 0 1.21.78 1.8 2.55 2.48 2.18.84 3.28 1.89 3.28 3.78s-1.47 3.7-4.5 3.7a6.63 6.63 0 0 1-3.28-.82z" class="cls-11" style="fill:#f47c06;stroke:#f47c06;stroke-width:1.75999999px;stroke-miterlimit:10"/><path id="path227" d="M122.7 8.458c0 4.42-2.69 6.77-6 6.77s-5.78-2.63-5.78-6.52c0-4.09 2.53-6.76 6-6.76s5.78 2.69 5.78 6.51zm-10 .21c0 2.75 1.49 5.21 4.1 5.21 2.61 0 4.12-2.43 4.12-5.35 0-2.55-1.33-5.22-4.1-5.22-2.77 0-4.1 2.54-4.1 5.36z" class="cls-11" style="fill:#f47c06;stroke:#f47c06;stroke-width:1.75999999px;stroke-miterlimit:10"/><path id="path229" d="M136.29 15.018V2.158h1.81l4.12 6.51a36.9 36.9 0 0 1 2.31 4.18c-.16-1.72-.19-3.28-.19-5.29v-5.38h1.56v12.86h-1.68l-4.08-6.52a38.86 38.86 0 0 1-2.4-4.29h-.06c.09 1.63.13 3.17.13 5.31v5.49z" class="cls-11" style="fill:#f47c06;stroke:#f47c06;stroke-width:1.75999999px;stroke-miterlimit:10"/><path id="path231" d="m163.1 15.018-4.22-12.86h1.79l2 6.34c.55 1.73 1 3.3 1.37 4.8.36-1.48.89-3.11 1.47-4.78l2.17-6.36h1.78l-4.6 12.86z" class="cls-11" style="fill:#f47c06;stroke:#f47c06;stroke-width:1.75999999px;stroke-miterlimit:10"/><path id="path233" d="M184.02 2.158v12.86h-1.66V2.158Z" class="cls-11" style="fill:#f47c06;stroke:#f47c06;stroke-width:1.75999999px;stroke-miterlimit:10"/><path id="path235" d="M198.35 2.158h1.66v11.47h5.5v1.39h-7.16z" class="cls-11" style="fill:#f47c06;stroke:#f47c06;stroke-width:1.75999999px;stroke-miterlimit:10"/><path id="path237" d="M218.8 2.158h1.65v11.47h5.5v1.39h-7.15z" class="cls-11" style="fill:#f47c06;stroke:#f47c06;stroke-width:1.75999999px;stroke-miterlimit:10"/><path id="path239" d="M245.88 8.988h-5v4.64h5.56v1.39h-7.22V2.158h6.94v1.4h-5.28v4.06h5z" class="cls-11" style="fill:#f47c06;stroke:#f47c06;stroke-width:1.75999999px;stroke-miterlimit:10"/><path id="path241" d="M262.12 260.928s-16.61 1.15-21.14 15c-4.53 13.85-28.27 10.8-28.27 10.8" style="fill:none;stroke:#93c6f9;stroke-width:5.28999996px;stroke-miterlimit:10"/><path id="path243" d="M267.88 315.558s-34.72 9.73-63 9.87c0 0-42.73-7.52-60.72-.91 0 0-17.42 7-27.39-8.25 0 0-20.58-10.79-13-30 7.58-19.21 24.16-11.22 24.16-11.22l28.09-11.38s6.72-16.32 22.38-17l22.48-3.34s19.7-3.77 27.78-9.94l18.66-6.81 3.64 4.46 28-13.24-4.15 85.13z" class="cls-5" style="fill:#2e3147"/><path id="path245" d="M128.88 318.438s-4.21-.86-4-4.79l.73-4.09s-5.84-.08-9.49-3.33c-3.65-3.25-8.95-9.09-6.25-16.9 2.7-7.81 17.21-6.2 33.86-4.68l-9.49-6.09s17.64-6.63 36.76-12.63l-6.94-1.24s4.57-11.87 19.42-10.35l-2.67 10.42s7.08-13.22 31.93-6.66l-8.71-6.76s5.73-2.77 20.08-5.17l17.88-8.24 2.73 6.95 19.26-9 3.13 7.51-.72 33.18s-12.57 11.92-7 29.57l-6.51-9.59 1.17 11.55-10.64 3.91-.46-15.5-7.2 16.61s-19.4 4.24-27.87 3c0 0 17.36 1.62 31.43-28.43 0 0-22.33 27.57-55.49 25.37 0 0-21.72-3.63-32.85-1.15z" style="fill:#28c628"/><path id="path247" d="M178.52 272.928s21.62 19.77 35.88-9.9" class="cls-14" style="fill:#108910"/><ellipse id="ellipse249" cx="-268.42" cy="174.377" class="cls-5" rx="3.49" ry="5.36" style="fill:#2e3147" transform="rotate(-79.86)"/><path id="path251" d="m120.4 312.218-1-4c.11 0 10.32-2.71 14.58-4.85l1.19-.6 2.35 1.91 2-11.35 6.91 6.9 8.71-2.69.82 1.27 1.69-9.44 7 9.27 1.89-2.53 5.45-.87 1.94-10.9 6.37 9.85 6.07-14 6 9a29.53 29.53 0 0 0 18.1-5.26c9.22-6.63 15.51-10.48 25.12-8.18l-1 4c-7.25-1.74-11.79.35-21.75 7.52a33.13 33.13 0 0 1-21.96 5.98l-.93-.12-2.87-4.31-6.09 14.11-4.87-7.53-.63 3.5-6.68 1.03-4.17 5.59-4.61-6.12-1.87 10.42-4.79-7.41-8.11 2.5-3.09-3.09-1.87 10.49-5.74-4.68a122.09 122.09 0 0 1-14.16 4.59z" class="cls-5" style="fill:#2e3147"/><path id="path253" d="M191.06 275.198s8.19 2.9 10.36-5.15l2.66-6.83s-15.62 2.43-18.79 8.24" class="cls-8" style="fill:#f47c06"/><path id="path255" d="m178.52 272.928 12.54 2.24s-3.72-2.55-3.35-4.64l6.37-3.18 3.06 4.73 1-5.75 4-.49-.75 4.18 13-7s-22.51-5.87-35.87 9.91z" class="cls-5" style="fill:#2e3147"/><path id="path257" d="M143.74 284.648c-16.65-1.52-31.16-3.13-33.86 4.68-2.7 7.81 2.6 13.64 6.25 16.9a11.26 11.26 0 0 0 2.57 1.68s-7.95-11.48-.29-19.73z" class="cls-15" style="fill:#90e260"/><path id="polygon259" d="m484.38 458.63 6.46 4.29L521.12 446z" class="cls-15" style="fill:#90e260" transform="translate(-350.12 -180.072)"/><path id="polyline261" d="m558.31 470.14 26.39-10.27-4.86-1.75-7.19.45-9.04 6.2" class="cls-5" style="fill:#2e3147" transform="translate(-350.12 -180.072)"/><path id="polygon263" d="m592.11 418-17.88 8.24 20.61-1.29z" class="cls-14" style="fill:#108910" transform="translate(-350.12 -180.072)"/><path id="polygon265" d="m614.1 415.97-19.26 8.98 22.39-1.46z" class="cls-14" style="fill:#108910" transform="translate(-350.12 -180.072)"/><path id="polygon267" d="m587.72 435.03-17.88 8.24 20.61-1.29z" class="cls-14" style="fill:#108910" transform="translate(-350.12 -180.072)"/><path id="polygon269" d="m609.71 433-19.26 8.98 22.39-1.46z" class="cls-14" style="fill:#108910" transform="translate(-350.12 -180.072)"/><path id="path271" d="m264.71 278.478-25.4 9.18c-14.07 30-31.43 28.43-31.43 28.43 8.47 1.27 27.87-3 27.87-3l7.2-16.61.46 15.5 10.64-3.91-1.17-11.52 6.49 9.61a29.59 29.59 0 0 1 5.34-27.68z" class="cls-15" style="fill:#90e260"/><path id="path273" d="M142.99 89.538h93.52l1.83 11.09 8.74-6.16-.26 12.35 11.31-8.51-1.92 13.39 11.48-9.3-4 18.39 11.3-4.23-3.78 12.25 9.24-.71v141.35a82.71 82.71 0 0 1-82.7 82.7h-56" class="cls-6" style="fill:none;stroke:#28c628;stroke-width:4.23000002px;stroke-miterlimit:10"/><path id="path297" d="M85.72 280.848s-13.17 37 38.65 49l-15.23-13.52-10.2-13.09v-19.18" class="cls-9" style="fill:#3784d1"/></svg>