<svg xmlns="http://www.w3.org/2000/svg" id="Layer_1" data-name="Layer 1" viewBox="0 0 256 256"><defs><style>.cls-1{fill:#316bac}</style></defs><circle cx="128" cy="128" r="128" class="cls-1"/><circle cx="128" cy="128" r="122.53" style="fill:#111"/><path d="M154.684 210.289c-2.578 1.986-4.259 1.99-6.782.016a6.813 6.813 0 0 0-8.741-.016c-2.547 1.988-4.283 1.99-6.786.013a6.833 6.833 0 0 0-8.742 0c-2.509 1.982-4.244 1.982-6.786 0a6.836 6.836 0 0 0-8.744 0 6.318 6.318 0 0 1-2.183 1.292 4.849 4.849 0 0 1-4.523-1.226 6.622 6.622 0 0 0-7.964-.613q1.843.783 3.729 1.482a3.693 3.693 0 0 1 2.351.838q3.394 1.154 6.876 2.026l.124-.047c.21-.081.417-.165.619-.258a14.8 14.8 0 0 0 2.753-1.721 4.3 4.3 0 0 1 5.508.24 7.448 7.448 0 0 0 5.053 1.909 7.152 7.152 0 0 0 4.294-1.64c2.373-1.862 4.146-1.854 6.527 0a6.883 6.883 0 0 0 9-.015c2.359-1.839 4.157-1.854 6.526.028a11.013 11.013 0 0 0 2.838 1.5q3.481-.874 6.851-2.019a3.639 3.639 0 0 1 2.359-.841q1.882-.7 3.732-1.483a6.693 6.693 0 0 0-7.89.537Z" class="cls-1"/><path d="m106.511 214.052-.124.047c.042-.015.084-.03.124-.047Z" style="fill:#fefefe"/><path d="M70.807 221.515c-.041-1.612.692-2.36 2.019-2.436a3.025 3.025 0 0 1 2.063.723 4.416 4.416 0 0 0 2.23.928c.308.035.633.117.727-.369.116-.6-.23-.687-.715-.743.364-.056.75.026.863-.46.154-.657-.681-.4-.743-.877.366-.38 1.036-.623.128-1.328-.526-.409-1.167-.178-1.69-.65.24-.081.367-.132.5-.166.29-.074.768.013.729-.421-.056-.624-1.105-.54-1.086-1.383 0-.182-.534.034-.7.348-.09.175-.133.433-.5.26.022-.116.043-.244.071-.371.073-.336.741-.677.013-1.01-.6-.275-.7.235-.883.608a1.427 1.427 0 0 1-.894.85 1.6 1.6 0 0 1 .706-1.1c.369-.351.245-.736-.141-.829a13.524 13.524 0 0 0-2.9-.622 1.1 1.1 0 0 0-.072-.1.914.914 0 0 0-.3-.248.325.325 0 0 0-.082-.026.267.267 0 0 0-.055-.007.176.176 0 0 0-.081.02.2.2 0 0 0-.068.059c-.337.452-.375-.029-.557-.06-.456-.08-1.023-.252-1.3.328-.11.229-.076.363-.379.173-.228-.144-.494.034-.625.259-.155.269.08.47.213.662.691 1 .693 1.106-.119 2.056a3.787 3.787 0 0 1-.314-1.967c-.037-.6-.5-.879-.8-.537-.515.586-1.28.5-1.838.963a1.289 1.289 0 0 0-.459.958c-.4.132-.709-.56-.987-.089a2.725 2.725 0 0 0-.514 1.645c.071.379.847.349 1.343.349a1.594 1.594 0 0 0 .416-.084c.329-.09.553-.03.609.358.064.443-.263.43-.535.472a2.383 2.383 0 0 1-1.794-.517c-.435-.315-.892-.2-.825.265a2.033 2.033 0 0 1-.267 1.083c-.247.743-.266 1.387.764 1.378-.487.07-.677.343-.543.805.163.564.62.261.968.217a.947.947 0 0 0 .4-.124c1.14-.782 2.541-.769 3.783-1.256.941-.369 1.566.123 1.671 1.137.029.282.011.569.016.852.01.541-.174 1.235.789 1.061.7-.127 1.78.532 1.741-1.034Zm-5.35-2.741c-.171.434-.6.3-.948.466-.081-.624.279-.764.656-.816.135-.019.359.182.292.35Zm9.424-2.5h-1.953c.652-.774 1.198-.6 1.953-.002Zm.389 1.8c.064.152.239.3.081.475s-.376.125-.583.034a8.489 8.489 0 0 0-1.083-.428 9.959 9.959 0 0 0-1.127-.183 1.591 1.591 0 0 1 2.712.095Zm-4.709.737c-.245-1.266.525-1.716 1.342-2.369.021 1.18-.659 1.667-1.342 2.358Zm-.418-5.3c.061-.179.108-.365.174-.541a1.349 1.349 0 0 1 .276-.457.1.1 0 0 1 .006-.042l.017.016c-.009.009-.015.018-.023.027-.06.4.288.9-.3 1.168l-.252.064c.034-.078.068-.156.1-.235Zm.825 1.094c.421-.1.753.508.675.764-.176.581-.875.724-1.35 1.031-.252.162-.3-.339-.34-.91-.018-.4.487-.756 1.015-.885Zm-1.476 3.581-1.147-1.286c1.008-.154 1.133-.018 1.147 1.279Zm-3.618-2.08a1.6 1.6 0 0 1 1.261.507c-.421.1-.8.17-1.162.287-.33.1-.445-.04-.5-.328-.067-.342.119-.449.401-.472Zm.519 2.128a.968.968 0 0 1-.222-.28c1.186-.611 2.017-.264 2.273.921l.023.026-.01.017.01-.018c.009 0 .019.006.026.017l.1-.011a.175.175 0 0 1-.01.03c-.038.1-.064.02-.093-.019h-.039c0-.017-.008-.032-.011-.047-.524-.58-1.477-.144-2.05-.64Zm128.2.094c.294-.424 1.083-.66.121-1.371-.527-.39-1.169-.174-1.688-.651.24-.08.366-.131.5-.163.291-.073.773.009.727-.423-.064-.617-1.091-.548-1.089-1.382 0-.19-.531.041-.693.351-.092.175-.136.432-.5.257.022-.116.045-.244.071-.37.069-.337.747-.673.018-1.009-.6-.276-.706.235-.885.607a1.472 1.472 0 0 1-.956.87 2.142 2.142 0 0 1 .762-1.122c.377-.34.252-.733-.136-.826a13.513 13.513 0 0 0-2.9-.623.835.835 0 0 0-.087-.123.776.776 0 0 0-.312-.237.265.265 0 0 0-.064-.017.191.191 0 0 0-.193.074c-.342.461-.384-.037-.564-.064-.459-.072-1.025-.248-1.3.337-.11.236-.08.356-.377.168-.229-.143-.5.035-.627.258-.156.268.082.469.214.659.69.994.69 1.111-.167 2.106a5.663 5.663 0 0 1-.269-2.021c-.015-.611-.508-.872-.8-.534-.513.59-1.277.5-1.836.967a1.326 1.326 0 0 0-.465.989c-.392.069-.705-.587-.979-.121a2.738 2.738 0 0 0-.511 1.65c.069.373.85.34 1.343.345a1.654 1.654 0 0 0 .417-.085c.331-.09.55-.02.6.365.062.45-.277.428-.542.466a2.385 2.385 0 0 1-1.794-.521c-.438-.322-.9-.184-.819.272.082.48-.154.728-.271 1.084-.251.755-.246 1.382.773 1.373-.49.067-.683.341-.548.807.165.564.621.256.97.214a.924.924 0 0 0 .4-.124c1.168-.806 2.62-.753 3.882-1.294.862-.371 1.34.189 1.543.969a4.627 4.627 0 0 1 .042 1.062c.012.544-.166 1.233.793 1.061.7-.125 1.78.53 1.737-1.036-.043-1.618.686-2.356 2.022-2.434a3.029 3.029 0 0 1 2.061.722 4.444 4.444 0 0 0 2.231.928c.312.037.631.111.726-.373.116-.6-.236-.681-.715-.742.365-.054.751.03.865-.457.151-.654-.681-.4-.74-.838Zm-2.447-2.073h-1.909c.689-.711 1.233-.61 1.907-.007Zm-4.669-2.744c.06-.18.107-.365.175-.541a1.351 1.351 0 0 1 .277-.457l.006-.042.017.016c-.009.009-.015.018-.023.027-.058.4.285.9-.3 1.168l-.251.065.1-.236Zm.859 1.095c.391-.072.768.616.643.775a3.413 3.413 0 0 1-1.37 1.029c-.279.113-.28-.381-.309-.829a1.133 1.133 0 0 1 1.034-.981Zm.909 1.81a2.972 2.972 0 0 1-1.35 2.368c-.249-1.243.525-1.69 1.348-2.375Zm-2.39 1.769-1.279-1.368c1.199-.175 1.295.483 1.277 1.361Zm-4.071.644c-.236.369-.616.291-1.132.42.3-.626.51-.922.974-.749.11.04.252.183.158.329Zm.022-2.256c-.065-.334.12-.445.4-.467a1.626 1.626 0 0 1 1.266.507c-.422.1-.8.169-1.164.285-.329.105-.446-.034-.5-.325Zm1.6 1.9a.72.72 0 0 1-.87-.56c1.238-.538 1.979-.212 2.244.978a.173.173 0 0 1 .021.013l-.01.015.011-.015c.009 0 .017.008.025.018l.1-.008c-.046.144-.073.051-.1.008h-.038l-.008-.033a2.206 2.206 0 0 0-1.375-.419Zm8.244.114a.409.409 0 0 1-.5.022 4.56 4.56 0 0 0-2.267-.6c.391-.875 1.127-.675 1.761-.7.551-.022.8.362.979.812.061.157.215.308.024.47Zm-22.125-17.934a7.664 7.664 0 0 1-2.732 1.6c-.771.187-1.095.055-1.078-.83.047-2.381.02-4.762.015-7.144 0-1.5-.114-1.681-1.584-1.991-.748-.158-.5-.681-.5-1.076-.017-4.657-.01-9.314-.01-13.97a1.681 1.681 0 0 0 0-.213c-.087-.632.152-.938.823-.853a5.986 5.986 0 0 0 .746 0h35.3c.334 0 .668.015 1 .026q.792-1.216 1.541-2.46c-3.674-.037-7.347-.1-11.021-.1q-13.746 0-27.494.055c-.7 0-.972-.22-.9-.915a9.727 9.727 0 0 0 .008-1.171.448.448 0 0 1 .511-.521h.852l27.814.016c3.93 0 7.86-.033 11.79-.053q.854-1.535 1.647-3.1a3.669 3.669 0 0 0-.019-.764c-.153-.939.159-1.381 1.034-1.308q.561-1.18 1.085-2.376c-4.8-.015-9.6-.052-14.4-.038-11.058.035-19.7-4.49-25.779-13.733a27.742 27.742 0 0 1-4.5-14.789c-.043-1.647-.257-1.877-1.883-2.047-.5-.053-.574-.286-.571-.691.007-1.066.007-2.133-.012-3.2-.013-.793-.288-1.434-1.205-1.439-.972-.005-1.251.643-1.249 1.5 0 1.031-.023 2.063.011 3.092.018.551-.17.725-.725.76-1.439.089-1.651.276-1.706 1.731a30.024 30.024 0 0 1-3.074 12.516 29.492 29.492 0 0 1-11.553 12.333c-.615.365-.846.322-.839-.461.052-6.076.085-12.151.738-18.206.206-1.911.518-3.8.834-5.69a13.31 13.31 0 0 1 4.427-7.463c4.741-4.508 10.187-7.755 16.737-8.676a30.843 30.843 0 0 1 15.889 2.063c5.824 2.322 10.839 6 15.858 9.652a41.745 41.745 0 0 0 19.547 7.535 1.4 1.4 0 0 0 .274 0q.077-.656.143-1.314a49.721 49.721 0 0 1-9.944-2.415 45.566 45.566 0 0 1-11.23-6.4c-4.3-3.142-8.685-6.183-13.675-8.151q-18.923-7.458-34.077 6.17c-3.794 3.4-5.428 7.622-5.974 12.531-.644 5.8-.817 11.623-.946 17.45-.026 1.207 0 2.418.065 3.624a1.169 1.169 0 0 1-.819 1.29c-.707.317-.909.214-.9-.582.047-3.057.027-6.114.062-9.171.04-3.589.089-7.18.177-10.768.185-7.44 3.591-13.253 9.291-17.779a35.346 35.346 0 0 1 16.906-7.576 28.928 28.928 0 0 1 13.961 1.457 56.353 56.353 0 0 1 15.492 8.768 48.172 48.172 0 0 0 21.806 9.34q.053-.689.092-1.382a49.923 49.923 0 0 1-22.69-10.252 47.967 47.967 0 0 0-15.945-8.327 30.138 30.138 0 0 0-20.441 1.074 36.157 36.157 0 0 0-13.787 9.338 23.572 23.572 0 0 0-6.11 15.829q-.107 10.02-.223 20.039c0 .479.015.9-.576 1.09-.757.247-1.111.237-1.1-.768.041-7.464-.025-14.93.037-22.394.05-5.826 2.669-10.576 6.545-14.719a51.225 51.225 0 0 1 13.53-10.21c4.1-2.174 8.675-2.591 13.265-2.517 8.993.146 16.86 3.317 23.95 8.772a57.245 57.245 0 0 0 22.67 10.576 8.572 8.572 0 0 0 .991.125q.022-.663.034-1.327c-9.108-1.9-17.09-6.1-24.509-11.639a38.645 38.645 0 0 0-28.589-7.593 29.21 29.21 0 0 0-8.916 2.5c.744-1.015 1.3-1.771 1.854-2.533a1.281 1.281 0 0 1 .805-.478 49.745 49.745 0 0 1 15.292-1.613 37.009 37.009 0 0 1 12.9 3.765c6.051 2.84 11.6 6.552 17.272 10.039a41.4 41.4 0 0 0 13.9 5.176q-.006-.707-.021-1.409a45.949 45.949 0 0 1-10.554-3.512c1.006-.7 1.9-1.343 2.812-1.965.342-.234.6.061.867.2a32.321 32.321 0 0 0 6.788 2.89q-.037-.741-.088-1.478A33.825 33.825 0 0 1 202.2 112.8a35.126 35.126 0 0 1-7.224-11.924c-.1-.258-.332-.553-.154-.793.194-.263.526-.029.8-.012.858.051 1.264.454 1.6 1.327a30.673 30.673 0 0 0 16.833 17.402 12.058 12.058 0 0 0 2.324.9 85.77 85.77 0 0 0-.156-1.527c-8.423-3.286-14.5-8.959-17.868-17.656.768.052 1.415.1 2.062.141.351.022.439.269.549.552 2.744 7.094 8.054 11.489 14.914 14.247q-.127-.89-.271-1.773a6.619 6.619 0 0 1-2.859-1.26 22.358 22.358 0 0 1-10.15-10.887c-.1-.225-.176-.456-.267-.689 1.8-.414 1.862-.381 2.81 1.093a26.553 26.553 0 0 0 10.067 9.462q-.361-1.9-.807-3.789l-.22.223a1.311 1.311 0 0 1-2.234-.265c-.223-.337-.03-.531.158-.736.547-.593 1.1-1.178 1.657-1.765q-.2-.756-.417-1.508c-.743.767-1.5 1.516-2.211 2.316-.485.549-.835.348-1.171-.1-.3-.4-1.125-.694-.231-1.369 1.068-.806 2.077-1.693 3.106-2.551q-.21-.682-.432-1.362a33.134 33.134 0 0 0-3.568 2.872c-.432.4-.737.433-1.078-.095-.459-.713-.955-1.4-1.447-2.093-.34-.478-.227-.637.354-.692a42.248 42.248 0 0 0 5.5-.7 81.685 81.685 0 0 0-.444-1.29 62.426 62.426 0 0 1-9.587.783A28.36 28.36 0 0 1 192 97.616c-5.623-2.148-11.386-2.1-17.219-1.317a30.733 30.733 0 0 0-7.793 2.1c.182-.955.331-1.651 1.244-2.047 7.617-3.3 15.342-3.882 23.2-.97A34.875 34.875 0 0 0 210.6 97a3.709 3.709 0 0 0 .518-.156q-.24-.639-.488-1.272a34.677 34.677 0 0 1-19.785-1.865c-4.527-1.756-9.219-1.807-13.965-1.258a33.348 33.348 0 0 0-8.585 2.275c.1-1.009.082-1.766 1.132-2.234 5.373-2.4 10.969-2.718 16.7-1.945a59.539 59.539 0 0 1 8.431 2.212 32.708 32.708 0 0 0 15.375 1.1c-.18-.429-.362-.858-.548-1.283-6.071 1.112-11.868-.248-17.593-2.075a32.988 32.988 0 0 0-22.622.517c-.188-1.1-.131-1.215.84-1.665a26.882 26.882 0 0 1 20.733-.859 40.732 40.732 0 0 0 16.729 2.419c.369-.03.739-.079 1.106-.122q-.306-.666-.626-1.325a41.4 41.4 0 0 1-4.956.152c-.728 0-1-.273-1.025-.987a42.34 42.34 0 0 0-.215-3.281c-.095-.866.258-1.087 1.073-1.079a6.7 6.7 0 0 0 2.3-.16c-.248-.435-.5-.867-.754-1.3a34.972 34.972 0 0 1-17.291-2.39 22.758 22.758 0 0 1-5.2-3.082c-.238-.192-1.036-.26-.541-.847.366-.434.8-1.06 1.575-.451a20.845 20.845 0 0 0 4.784 2.736 33.3 33.3 0 0 0 15.684 2.416 94.788 94.788 0 0 0-.879-1.382 30.219 30.219 0 0 1-7.993-.448 25.727 25.727 0 0 1-10.112-3.986c-.362-.247-1.28-.326-.694-1.178.439-.638.791-.888 1.635-.289 3.972 2.821 8.541 3.882 13.322 4.174a16.044 16.044 0 0 0 2.729.052c-.31-.453-.621-.9-.938-1.351a27.8 27.8 0 0 1-12.256-2.758 21 21 0 0 1-1.826-1.076c-1.029-.673-1.04-1.465-.1-2.281.406-.352.585.054.792.21 3.5 2.653 7.54 3.624 11.828 3.84a.487.487 0 0 0 .054 0q-.523-.694-1.06-1.381c-.681-.022-1.128-.232-.826-1.037q-.5-.617-1.008-1.222a5.231 5.231 0 0 0-.287.942c-.14.892-.687.854-1.366.716-.485-.1-.567-.342-.413-.744.293-.763.595-1.524.895-2.284q-.523-.6-1.057-1.19a18.721 18.721 0 0 0-1.112 2.928c-.194.562-.321.754-.929.493a17.788 17.788 0 0 1-3.953-2.229.857.857 0 0 1-.275-1.312c.764-1.341 1.5-2.7 2.24-4.054q-.52-.507-1.05-1c-1.125 2.039-2.265 4.068-3.364 6.12a19.375 19.375 0 0 1-10.753 9.008c-1.589.6-3.142 1.306-4.747 1.866-.352.122-.926.857-1.3-.063-.308-.761.012-1.095.74-1.382 1.943-.768 3.838-1.653 5.765-2.459 3.884-1.623 6.495-4.593 8.568-8.11 1.237-2.1 2.388-4.244 3.574-6.372q-.531-.476-1.069-.945c-1.377 2.427-2.665 4.9-4.115 7.292a17.907 17.907 0 0 1-9.237 7.647c-1.259.477-2.478 1.061-3.741 1.529-.34.127-.776.842-1.174-.065-.37-.843 0-1.1.709-1.344a35.434 35.434 0 0 0 5.355-2.337c3.586-1.924 5.915-5 7.777-8.5.977-1.837 1.923-3.689 2.882-5.537q-.525-.436-1.056-.865a45 45 0 0 0-2.968 5.6c-2.649 5.558-7.2 8.685-12.862 10.5-.47.152-.6.034-.759-.382-.2-.5-.246-.834.346-1.093a37.394 37.394 0 0 0 5.312-2.9 21.2 21.2 0 0 0 7.839-9.562q.753-1.707 1.5-3.416-.514-.394-1.033-.781a26.52 26.52 0 0 0-1.869 3.9 21.085 21.085 0 0 1-10.73 10.721 7.151 7.151 0 0 1-2.317.942c2.327-7.361 7.089-12.614 13.188-16.821q-.6-.427-1.213-.845a33.746 33.746 0 0 0-12.775 15.572 1.266 1.266 0 0 1-.451-1.689A27 27 0 0 1 174.4 55.5c.75-.586 1.537-1.125 2.31-1.679q-.63-.416-1.27-.82a32.633 32.633 0 0 0-9.338 9.444 30.4 30.4 0 0 0-2.511 5.2 1.856 1.856 0 0 1-.518-2.3 33.634 33.634 0 0 1 10.617-13.424q-.639-.384-1.281-.758a34.253 34.253 0 0 0-10.6 13.592c-1.114-.767-1.195-1.053-.618-2.147a43.362 43.362 0 0 1 9.664-12.326q-.636-.352-1.278-.694a44.893 44.893 0 0 0-9.836 12.712c-1.078-1.361-2.1-2.594-3.052-3.886-.375-.512.265-.626.539-.79a56.56 56.56 0 0 0 7.634-5.39 29.716 29.716 0 0 0 3.468-3.3q-.641-.325-1.285-.643c-4.914 5.025-10.814 8.577-17.126 11.55A53.9 53.9 0 0 0 132.295 72.6a2.125 2.125 0 0 1-.321.247.734.734 0 0 1-.1-.092c-.928-1.571-.294-2.668.918-3.815a56.771 56.771 0 0 1 14.212-9.626c5.583-2.735 11.087-5.58 15.894-9.59a16.688 16.688 0 0 0 2.426-2.251q-.674-.313-1.353-.615a48.532 48.532 0 0 1-10.127 7.34c-5.014 2.867-10.427 5-15.2 8.306a42.837 42.837 0 0 0-7.585 6.306 2.364 2.364 0 0 1-.366.267 1.719 1.719 0 0 1-.176-.245c-.956-2.12-1.179-1.409.546-3.18a44.9 44.9 0 0 1 12.891-8.893c4.759-2.3 9.568-4.484 13.843-7.653 1.364-1.011 2.666-2.094 3.946-3.2-.482-.2-.964-.393-1.451-.584a61.415 61.415 0 0 1-15.35 9.41 49.089 49.089 0 0 0-15.543 10.6c-.34.359-.488.418-.755-.04-1-1.712-1.2-1.2.3-2.513 3.958-3.463 8.043-6.788 12.9-8.919a63.426 63.426 0 0 0 8.714-4.157 61.391 61.391 0 0 0 7.492-5.229q-.705-.255-1.416-.5c-1.3.884-2.612 1.747-3.877 2.674-.689.505-.877.286-.933-.436-.1-1.274-.218-2.546-.33-3.821a86.777 86.777 0 0 0-1.33-.355 24.81 24.81 0 0 0 .407 5.074 1.547 1.547 0 0 1-1.289 1.7c-.479.043-.357-.344-.4-.578a30.02 30.02 0 0 1-.4-6.607q-.675-.16-1.354-.31a32.854 32.854 0 0 0 .419 7.47c.066.428.284.86-.288 1.21-.882.539-1.122.48-1.283-.553a48.109 48.109 0 0 1-.7-8.513q-.651-.13-1.306-.25a38.989 38.989 0 0 0 .786 9.66c.272 1.351-.795 1.119-1.391 1.344-.808.3-.56-.484-.645-.839a35.694 35.694 0 0 1-.592-10.48l-1.3-.2a32.47 32.47 0 0 0 .4 10.435c.334 1.736.362 1.746-1.164 2.535a61.029 61.029 0 0 0-11.771 8.352c-.241.209-.477.424-.72.631-.324.277-.56.782-1.092.183-.481-.543-.131-.766.231-1.087a35.988 35.988 0 0 0 6.728-8.06 46.775 46.775 0 0 0 5.4-12.9 1.582 1.582 0 0 0 .039-.346q-.7-.086-1.408-.161c-2.265 9-6.5 16.789-14.135 22.377-5.336 3.9-8.323 9.272-10.032 15.475a52.783 52.783 0 0 0-1.7 14.661c0 .394.373.988-.248 1.2-.512.172-1.6-.768-1.638-1.348a35.443 35.443 0 0 1-.1-2.234c-.069-7.462 1.154-14.626 4.909-21.2a28.052 28.052 0 0 1 7.079-8.112A39.518 39.518 0 0 0 134.067 44.4a27.366 27.366 0 0 0 1.5-4.845q-.688-.059-1.381-.105c-2.113 8.5-7.14 15.029-13.9 20.375a30.364 30.364 0 0 0-10.185 15.592 47.173 47.173 0 0 0-1.866 15.9c.013.274.216.763-.36.629-.537-.125-1.218-.1-1.282-.979a44.019 44.019 0 0 1 .111-6.813 42.711 42.711 0 0 1 3.936-15.27 29.184 29.184 0 0 1 8.165-10.2 40.2 40.2 0 0 0 10.824-12.7A22.241 22.241 0 0 0 132 39.329a82.133 82.133 0 0 0-1.409-.052 26.738 26.738 0 0 1-5.453 11.078 52.3 52.3 0 0 1-8.236 8.131 30.619 30.619 0 0 0-9.391 14.42 50.159 50.159 0 0 0-2.345 17.321c.007.244 0 .49 0 .74-1.758-.2-1.835-.2-1.835-1.742 0-6.484.439-12.882 2.846-19.038a35.283 35.283 0 0 1 10.61-14.108 40.905 40.905 0 0 0 8.313-8.909 20.459 20.459 0 0 0 3.262-7.931h-.371c-.342 0-.682 0-1.023.006a20.385 20.385 0 0 1-4.609 9.14 52.278 52.278 0 0 0 .482-9c-.454.026-.906.055-1.359.089a40.7 40.7 0 0 1-1.114 10.8 2.694 2.694 0 0 1-.782 1.343q-.9.827-1.793 1.666c-.306.289-.57.679-1.047.231-.4-.374-.737-.657-.4-1.334a25.03 25.03 0 0 0 1.754-4.675 25.035 25.035 0 0 0 .967-7.825c-.439.044-.876.09-1.312.141a27.649 27.649 0 0 1-2.4 11.194c-.332.757-.5.656-1.061.175a1.323 1.323 0 0 1-.343-2.009c1.639-2.817 1.862-5.921 1.661-9.086-.443.061-.882.127-1.323.2a17.987 17.987 0 0 1-1 7.157c-.767 1.924-.7 1.9-2.077.454a1.278 1.278 0 0 1-.238-1.662 12.334 12.334 0 0 0 .608-5.483c-.441.082-.882.168-1.32.257a13.672 13.672 0 0 1-.638 4.91 30.454 30.454 0 0 1-3.023-4.083q-.663.165-1.323.34a39.723 39.723 0 0 0 6.358 8.227c1.256 1.34 2.6 2.6 3.913 3.887.288.284.649.6.133.921-.366.224-.555 1.065-1.261.437a44.118 44.118 0 0 1-10.582-13.08l-1.382.4A42.689 42.689 0 0 0 110.91 54.3c.626.629 1.338 1.179 1.905 1.853.266.316 1.264.367.558 1.232-.621.76-1.04.368-1.546-.08a58.56 58.56 0 0 1-5.687-5.727 47.5 47.5 0 0 1-5.523-8.019c-.442.143-.883.292-1.322.442a48.906 48.906 0 0 0 11.32 14.068c.133.116.263.237.386.366.243.256.729.419.283.917-.338.379-.616.323-.994.055-5.465-3.87-9.967-8.527-12.357-14.926q-.63.228-1.256.465a27.019 27.019 0 0 0 6.076 9.811 38.76 38.76 0 0 0 6.414 5.567c.374.265.737.415.3 1.043a38.46 38.46 0 0 0-6.8 16.472c-.031.2-.081.4-.151.747-1.51-.809-2.969-1.529-4.358-2.365-.6-.36-.672-1.15-.84-1.789a41.271 41.271 0 0 1-1.091-7.69c-.275-3.94-.087-7.889-.254-11.83a32.286 32.286 0 0 0-1.317-9.17c-.41.167-.818.335-1.225.508 1.366 5.4 1.269 10.916 1.28 16.423A50.576 50.576 0 0 0 95.928 74.6a.9.9 0 0 1-.035.3 2.93 2.93 0 0 1-2.577-2.81c-.531-4.766-.824-9.544-1.13-14.323-.226-3.527-.513-7.045-.984-10.545q-.685.313-1.363.638a60.981 60.981 0 0 1 .78 7.408c.45 5.762.584 11.549 1.408 17.281.09.622-.039.607-.586.484a1.947 1.947 0 0 1-1.593-1.686A64.422 64.422 0 0 1 88.5 58.685a75.924 75.924 0 0 0-.583-9.871q-.639.324-1.27.657c.586 5.052.273 10.149.765 15.207a48.367 48.367 0 0 0 1 6.624c.171.713.07.855-.646.778a1.572 1.572 0 0 1-1.635-1.389 75.537 75.537 0 0 1-1.4-10.331c-.249-3.169-.386-6.349-.568-9.523q-.686.388-1.363.792c.068 1.376.141 2.751.195 4.128.013.334.245.8-.1.977-.4.2-.667-.281-.959-.51a17.353 17.353 0 0 1-2.374-2.576c-.361.237-.721.474-1.079.715a11 11 0 0 0 4.127 4.023c.93.511.654 1.351.633 2.031-.014.459-.568.132-.856 0a12.621 12.621 0 0 1-4.912-4.231c-.181-.249-.377-.489-.569-.733q-.546.385-1.088.779a13.856 13.856 0 0 0 7.146 5.913 2.253 2.253 0 0 1 .663 2.116c-.28.339-.594.033-.863-.059a14.753 14.753 0 0 1-8.3-6.959q-.582.44-1.155.89a16.545 16.545 0 0 0 8.659 7.273c.4.143.813.238 1.22.357.573.167 1.244 1.589.949 2.091-.225.384-.577.108-.856.044a17.15 17.15 0 0 1-10.35-6.918c-.389-.537-.769-1.081-1.151-1.622q-.531.435-1.056.878a20.268 20.268 0 0 0 7.167 7.088 21.254 21.254 0 0 0 5.871 2.141 2.452 2.452 0 0 1 1.137 2.17c-.116.243-.352.206-.555.215a23.121 23.121 0 0 0-9.154 2.567c-.707.347-.79.027-.975-.522a102.9 102.9 0 0 0-4.922-12.418q-.549.485-1.091.979a96.853 96.853 0 0 1 4.088 10.105c.264.735.465 1.492.742 2.22.162.423.049.623-.324.85-1.069.648-1.2.594-1.627-.648-1.291-3.781-2.7-7.519-4.339-11.164q-.52.5-1.033 1Q67.976 70.364 70 76c.326.915-.117 1.078-.749 1.36-.895.4-.739-.382-.871-.752Q66.6 71.6 64.544 66.7a2.666 2.666 0 0 0-.257-.444q-.525.541-1.041 1.092c1.512 3.267 2.689 6.666 3.918 10.045.247.678.063.955-.631 1.216-.769.29-.834-.154-1.01-.628a108.35 108.35 0 0 0-3.432-8.228c-.114-.246-.251-.482-.386-.718-.333.373-.661.749-.988 1.129.41.874.822 1.747 1.222 2.625.111.242.312.536.108.771-.177.2-.461.017-.7-.032a17.416 17.416 0 0 1-2.633-.959q-.434.543-.861 1.092a13.887 13.887 0 0 0 4.367 1.484 1.212 1.212 0 0 1 1.1.956 14.7 14.7 0 0 1 .886 2.726 40.1 40.1 0 0 1-7.524-3.627q-.4.544-.8 1.094a50.41 50.41 0 0 0 6.664 3.491 2.98 2.98 0 0 1-2.372.185 33.343 33.343 0 0 1-5.212-2.37q-.386.558-.763 1.122c1.013.708 2.2 1.136 3.524 1.924-1.708-.022-3.172.379-4.53-.391-.356.554-.7 1.114-1.049 1.678a30.922 30.922 0 0 0 12.479-1.173c3.959-1.2 7.485-3.358 11.194-5.112a20.812 20.812 0 0 1 6.748-2.19 16.064 16.064 0 0 1 5.733.072 27.553 27.553 0 0 1 5.666 2.112c2.649 1.354 5.256 2.792 7.912 4.129.733.37.472.88.37 1.344-.151.693-.638.226-.927.136a30.191 30.191 0 0 1-7.528-3.669c-4.606-3-9.424-3.121-14.459-1.346a102.075 102.075 0 0 0-11.1 5.087A29.807 29.807 0 0 1 50.693 84.4q-.361.64-.715 1.286a30.765 30.765 0 0 0 18.578-2.971 98.454 98.454 0 0 1 11.4-5.209c3.9-1.32 7.772-1.667 11.549.41 1.056.581 2.082 1.213 3.129 1.812a33.711 33.711 0 0 0 6.68 3.013c.4.124.818.172.776.8-.044.692-.143 1.011-.967.735a68.26 68.26 0 0 1-9.3-4.178c-3.04-1.558-6.178-2.566-9.622-1.55a40.3 40.3 0 0 0-6.635 2.857 96.464 96.464 0 0 1-12.094 5.5c-4.563 1.558-9.2 1.559-13.9 1.023-.245-.028-.492-.051-.737-.075q-.321.632-.632 1.267a33.645 33.645 0 0 0 21.506-3.2c3.365-1.678 6.722-3.373 10.11-5a11.561 11.561 0 0 1 11.1.29 58.334 58.334 0 0 0 10.393 4.592c.517.157.928 1.438.548 1.729-.342.261-.742-.04-1.076-.168a56.7 56.7 0 0 1-6.072-2.828 26.868 26.868 0 0 0-7.092-2.816c-3.378-.688-6.471.187-9.484 1.6-3.917 1.838-7.659 4.027-11.637 5.75a29.587 29.587 0 0 1-19.063 1.658q-.316.681-.622 1.37a37.724 37.724 0 0 0 10.538.785 31.786 31.786 0 0 0 9.334-2.4c.583-.242.848-.27.969.483a33.48 33.48 0 0 0 2.557 8.309c.306.685-.091.778-.527.966-8.352 3.6-16.4 2.695-24.2-1.665-.348-.193-.7-.378-1.048-.565q-.227.632-.446 1.268c5.83 3.439 12.015 5.343 18.885 4.336a31.428 31.428 0 0 0 7.437-2.147c.872-.36.927.231 1.211.689.39.628-.056.781-.5.988a26.111 26.111 0 0 1-20.564 1.166 53.267 53.267 0 0 1-7.114-3.088c-.141.445-.281.891-.415 1.34 5.484 2.9 11.223 4.876 17.527 4.74 3.9-.083 7.513-1.366 11.062-2.848a1.283 1.283 0 0 1 1.785 1.11c.014.341-.274.367-.481.475-7.433 3.931-15.1 4.182-22.985 1.54a73.892 73.892 0 0 1-7.443-3.155q-.182.66-.355 1.323c5.995 3.136 12.283 5.156 19.145 4.971a29.158 29.158 0 0 0 11.82-3.214c.424-.2.9-.814 1.453-.057.77 1.055.757 1.19-.424 1.782a43.765 43.765 0 0 1-6.032 2.627 17.158 17.158 0 0 1-5.35.759 46.717 46.717 0 0 1-19.988-4.449c-.362-.168-.735-.313-1.1-.465q-.173.73-.332 1.464c1.822.574 3.512 1.471 5.319 2.093a50.046 50.046 0 0 0 8.655 2.179c.788.121.917.361.679 1.089a24.381 24.381 0 0 1-1.79 4.2c-.228.417-.441.623-.995.37a31.732 31.732 0 0 0-8.883-2.484 1.546 1.546 0 0 1-1.389-1.052 10.361 10.361 0 0 0-2.2-3.377q-.159.883-.3 1.771a11.166 11.166 0 0 1 1.247 2.329l-1.577-.079q-.09.671-.17 1.343a38.465 38.465 0 0 1 12.074 2.532c.845.342 1.018.577.412 1.343a1.626 1.626 0 0 1-2.267.651 33.891 33.891 0 0 0-10.424-2.6q-.062.647-.114 1.293a45.607 45.607 0 0 1 9.806 2.469c.9.352.734.552.164 1.062a1.8 1.8 0 0 1-2.3.4 22.589 22.589 0 0 0-7.8-2.116c-.027.445-.049.891-.07 1.339a26.578 26.578 0 0 1 7.541 2.149c-.86.572-1.445 1.167-2.566.668a16.3 16.3 0 0 0-5.032-1.286c-.013.452-.024.9-.029 1.356a15.517 15.517 0 0 1 3.984 1.087 24.178 24.178 0 0 1-3.985 1.159q.008.672.026 1.345c8.967-1.738 15.126-6.744 17.988-15.584.347-1.074.893-1.329 1.94-.925.515.2.228.517.155.78a23.223 23.223 0 0 1-6.915 11.261 26.9 26.9 0 0 1-13.1 6.212c.021.457.044.912.073 1.367 10.216-1.758 18.617-8.252 21.349-18.794.29-1.118.992-.741 1.536-.691.814.074.328.681.225 1.039-2.2 7.666-6.572 13.663-13.639 17.544a29.25 29.25 0 0 1-9.3 3.162c.041.466.085.932.132 1.4a29.418 29.418 0 0 0 24.316-22.435c.117-.518.3-.85.891-.815.526.031 1.029-.281 1.572-.128-2.95 10.546-11.216 23.331-26.5 25.788q.088.672.187 1.345a30.628 30.628 0 0 0 17.522-9.02 1.774 1.774 0 0 1 1.846-.582 25.615 25.615 0 0 0 10.464-.5c5.57-1.207 10.833-3.36 16.163-5.308a60.075 60.075 0 0 1 9.871-2.962 12.639 12.639 0 0 1 14.01 6.734 21.856 21.856 0 0 1 2.608 9.992c.141 6.218.082 12.435.063 18.653v1.129a14.529 14.529 0 0 1-3.495-2.4 29.148 29.148 0 0 1-9.911-16.479 36.467 36.467 0 0 1-.648-5.6c-.074-1.323-.351-1.6-1.692-1.66-.656-.028-.752-.309-.736-.857.029-1.029.012-2.061 0-3.092 0-.821-.33-1.4-1.233-1.4-.845 0-1.188.552-1.208 1.322q-.04 1.651-.02 3.305c.007.488-.156.672-.665.72-1.516.142-1.75.4-1.791 2.027a28.112 28.112 0 0 1-4.375 14.612 28.761 28.761 0 0 1-20.159 13.5 33.4 33.4 0 0 1-5.944.406c-4.479-.033-8.957-.014-13.436-.008a7.549 7.549 0 0 0-.764.056q.531 1.209 1.1 2.4c1.314.136 1.516.542 1.154 2.345q.724 1.416 1.5 2.8 19.856.016 39.708.046c.413 0 1.065-.287 1.2.308a3.965 3.965 0 0 1-.046 2.1c-.084.255-.436.176-.677.176l-27.067-.024c-3.851 0-7.7.059-11.553.092q.751 1.244 1.544 2.463c3.672-.013 7.345-.034 11.019-.037 8.566 0 17.131.015 25.695-.026.962 0 1.175.27 1.165 1.192-.047 4.584-.027 9.169-.015 13.754 0 .68.042 1.224-.938 1.244-.94.021-1.164.785-1.163 1.608 0 2.453-.038 4.906.018 7.356.023.976-.3 1.151-1.182.911a7.643 7.643 0 0 1-2.545-1.5 6.864 6.864 0 0 0-7.71-.383 3.736 3.736 0 0 0-.575.476q1.1.771 2.228 1.508c1.653-.875 3.236-.684 4.977.7a7.345 7.345 0 0 0 4.443 1.807 6.838 6.838 0 0 0 4.555-1.481c2.687-2.1 4.3-2.093 6.956-.007a6.849 6.849 0 0 0 8.57.006c2.708-2.1 4.263-2.1 6.95-.006a6.84 6.84 0 0 0 8.574 0c2.695-2.1 4.253-2.1 6.949 0a6.847 6.847 0 0 0 8.573 0c2.678-2.09 4.253-2.09 6.95 0a6.84 6.84 0 0 0 8.653-.07c2.552-2 4.232-1.994 6.791 0a6.818 6.818 0 0 0 8.82-.068c1.974-1.543 3.511-1.811 5.237-.887q1.127-.738 2.231-1.509a6.7 6.7 0 0 0-8.19-.16Zm33.656-33.773c-.053-.608.045-.975.825-.965.712.011.956.244.865.915a4.327 4.327 0 0 0 0 .492c-.191.382.447 1.209-.655 1.262-.741.035-1.165-.119-1.033-.967a3.132 3.132 0 0 0 0-.737Zm-3.066-.036c-.077-.655.123-.922.855-.93.764-.009.915.315.845.949-.015.139 0 .283 0 .488-.188.368.424 1.149-.594 1.225-.746.056-1.263-.058-1.1-.99a2.672 2.672 0 0 0-.004-.753Zm-2.212-.931c.827 0 .824.433.788 1-.007.105 0 .211 0 .4-.182.35.372 1.034-.434 1.247-.93.245-1.254-.028-1.248-1.01a4.638 4.638 0 0 0 0-.635c-.088-.692.1-1 .9-1Zm-3.92 1.22c.188-.375-.42-1.152.621-1.2.767-.038 1.234.108 1.073 1.01a2.634 2.634 0 0 0-.006.634c.047.648-.065 1.033-.9 1.028s-.836-.418-.794-.994c.017-.155.008-.297.008-.489Zm-3.135-.2c.023-.488-.213-1.082.72-1.045.8.033 1.207.231 1.069 1.087a1.886 1.886 0 0 0 0 .319c-.017.531.178 1.152-.465 1.287a1.686 1.686 0 0 1-.451.022c-.713-.045-.956-.251-.878-.926.03-.245 0-.5.007-.744Zm-2.984.46c-.008-.106 0-.212 0-.317v-.74c0-.388-.066-.84.569-.719.454.086 1.06-.037 1.031.738-.013.353.009.705 0 1.057-.018.556.226 1.2-.805 1.19s-.754-.665-.793-1.209Zm-3.277.572a2.61 2.61 0 0 0 0-.319v-2.63c.6-.006 1.025.37 1.543.284.282-.047.374.141.375.381 0 .817.064 1.64-.012 2.449-.078.849-.772.292-1.174.391s-.81.056-.733-.556Zm-3.2-4.068c1.827.366 1.827.366 1.827 2.083a9.231 9.231 0 0 0 .014 1.479c.186 1.126-.456 1.182-1.29 1.124-.4-.029-.56-.157-.556-.563.013-1.368 0-2.738 0-4.123Zm-2.64-1.216c.485.038 1.248.179 1.272.9.051 1.525.009 3.053-.022 4.579-.012.57-.487.38-.8.411-.4.039-.7-.031-.688-.546.02-.852 0-1.7 0-2.558 0-.639-.031-1.28.012-1.916.021-.306-.227-.9.227-.867Zm-3.31 4.953c.011-.247.017-.494.02-.741.01-.742-.009-1.485-.009-2.227 0-1.026.007-2.052 0-3.078 0-.479.133-.684.619-.406.632.359 1.139.713 1.091 1.616-.087 1.623-.058 3.253-.009 4.879.021.693-.252.813-.865.817-.654 0-.875-.211-.845-.86Zm-3.055-9.076a2.4 2.4 0 0 1 1.725 2.6c-.116 2.223-.053 4.458-.019 6.686.01.667-.308.747-.846.734-.494-.012-.879.01-.873-.7.038-3.078.019-6.151.019-9.33Zm-3.128-2.906c1.1.687 1.76 1.278 1.727 2.524-.081 3.152-.039 6.308-.017 9.462 0 .628-.078.979-.845.963-.709-.015-.885-.261-.88-.938.035-3.937.021-7.863.021-12.021Zm-3.012 11.935q.006-7.875 0-15.749a5.462 5.462 0 0 1 1.758 4.007c-.174 3.9-.086 7.814-.06 11.722 0 .711-.147.972-.911 1.007-.876.04-.778-.453-.778-1ZM199.5 84.325c.512-.005.907.012.855.708-.05.667-.01 1.34-.01 2.009h.077a7.783 7.783 0 0 1 .1 1.372c-.03.319.506.938-.32.939-.514 0-1.191.141-1.25-.741q-.12-1.8-.306-3.587c-.073-.705.355-.7.854-.7Zm-2.567-.068c.323.11.322.313.338.564.073 1.165.135 2.33.237 3.492.046.517-.126.555-.6.5a10.95 10.95 0 0 1-.688-.105c-1.047-.2-1.126-.587-1.178-2.529v-.637c0-1.482.443-1.772 1.888-1.28Zm-4.459-.63c.513.074 1.231-.1 1.193.82-.021.5 0 1 0 1.493h.021a3.639 3.639 0 0 1-.013.849c-.09.358.364 1.034-.264 1.021-.548-.011-1.426-.025-1.39-1.051.027-.78-.032-1.564 0-2.344.011-.311-.262-.893.459-.788Zm-22.922-1.66a78.761 78.761 0 0 0 9.758-4.2c.519-.279.809-.027 1.123.232a26.373 26.373 0 0 0 9.656 4.987c.5.142.582.4.571.839a22.6 22.6 0 0 0 .017 2.343c.054.74-.284.746-.828.573a29.457 29.457 0 0 0-9.564-1.223 27.984 27.984 0 0 0-11.083 2.623 35.107 35.107 0 0 0-.242-5.335c-.062-.5.18-.684.592-.838ZM52.033 167.73c.076.651-.2.853-.839.848-.616 0-.944-.152-.854-.826a5.26 5.26 0 0 0 0-.613c.2-.358-.457-1.191.666-1.224.748-.022 1.156.128 1.023.971a3.18 3.18 0 0 0 .004.844Zm2.653.814c-.921.275-1.278-.021-1.287-1a5.922 5.922 0 0 0-.005-.742c-.095-.71.214-.891.9-.9s.884.249.8.867a4.577 4.577 0 0 0 0 .5c-.176.359.359 1.036-.407 1.266Zm2.862.032c-.749.024-1.164-.13-1.033-.975a2.925 2.925 0 0 0 0-.742c-.061-.622.065-.957.833-.956.742 0 .935.282.854.933a4.553 4.553 0 0 0 0 .488c-.189.385.483 1.217-.654 1.252Zm3.493-1.377a6.051 6.051 0 0 0 0 .632c.056.534-.139.742-.7.747-.593 0-.844-.187-.794-.784a7.515 7.515 0 0 0-.008-.949c-.024-.517-.054-.925.719-.943.828-.02.823.415.785.98-.007.105-.002.212-.002.318Zm2.441 1.383c-.74.013-1.164-.123-1.026-.968a2.354 2.354 0 0 0 0-.633c-.078-.7.047-1.083.924-1.095.945-.013.794.535.791 1.086v.381c-.161.4.418 1.209-.691 1.229Zm3.73-1.518c0 1.244-.076 1.559-.693 1.553a4.293 4.293 0 0 1-.52-.048c-.355-.05-.495-.178-.487-.526.012-.529.031-1.06 0-1.585-.063-.905.627-.77 1.144-.856.757-.126.513.463.556.828a5.361 5.361 0 0 1 .005.634Zm2.229 1.494c-.845.032-.824-.377-.8-.95s.015-1.132 0-1.7c-.01-.363.086-.5.5-.6.529-.13.823-.212.989-.107a.223.223 0 0 1 .063.056.322.322 0 0 1 .048.082 4.889 4.889 0 0 1 .1 1.476c0 .123-.007.249-.009.373a2.4 2.4 0 0 0 .014.37c.085.692-.107.972-.9 1Zm3.944-3.491c0 .1.009.211.01.318.005.318 0 .637 0 .956 0 .425-.021.851 0 1.274.035.591-.008.978-.81.988-.829.009-.924-.353-.889-1.021.044-.811.01-1.627.011-2.441 0-.317-.039-.678.346-.806s.807-.491 1.2-.258c.308.183.117.649.136.99Zm2.922.462h-.035c0 .812-.021 1.625.007 2.436.019.574-.312.61-.745.6-.409-.007-.779.02-.771-.575.02-1.413-.017-2.826.018-4.238.019-.8.766-.839 1.3-1.014.293-.1.221.277.224.458.012.775 0 1.553 0 2.331Zm2.024 2.991c-.6.111-.706-.191-.7-.717.03-1.737.013-3.475.026-5.211 0-.555 1-1.437 1.493-1.339.368.074.241.386.245.6.016.991.007 1.984.007 2.977h.038c0 .993-.021 1.986.006 2.977.026.9-.651.625-1.118.711Zm4.435-.5c0 .9-.7.463-1.1.528-.419.068-.839.091-.834-.594.023-2.555-.03-5.111.007-7.667.016-1.132 1.2-1.222 1.927-2.057.001 3.432.004 6.611 0 9.791Zm2.135.558c-.595.012-.8-.181-.794-.792q.038-5.054 0-10.106c-.008-1.1.773-1.476 1.608-2.012 0 4.149-.013 8.152.014 12.156 0 .656-.285.744-.832.754Zm3.022-.018c-.749-.029-.84-.356-.832-.983q.087-6.54.117-13.082c0-1.127.8-1.8 1.377-2.628v5.057c-.007 3.547-.008 7.092-.036 10.638-.002.41.297 1.038-.626.999Zm2.732.018c-.835-.006-.672-.547-.67-1.014.015-5.866.044-11.732.052-17.6a7.34 7.34 0 0 1 1.05-2.911l.275.067v20.472c0 .5.106.992-.706.985Zm65.623-19.723c.233.18.136.407.136.6.018 6.032.017 12.064.059 18.1 0 .766-.162 1.038-.988 1.047-.9.01-.835-.467-.832-1.065.014-4.649.114-9.3-.029-13.942a7.388 7.388 0 0 1 1.654-4.732Zm-2.991 4.86c0 4.612-.006 9.225.006 13.838 0 .588 0 1-.818.987s-.694-.5-.694-.982c0-3.726.044-7.453-.026-11.176-.024-1.254 1.1-1.738 1.532-2.667Zm-3.143 3.164.26.078v6.136c0 1.527-.031 3.053.014 4.578.019.689-.183.919-.894.912-.689-.006-.821-.275-.816-.888.025-2.876.055-5.751-.01-8.626-.026-1.167.95-1.474 1.446-2.19Zm-4.5 4.463c-.014-1.094.859-1.32 1.7-1.935 0 2.991-.018 5.724.013 8.457.008.706-.377.695-.876.711-.539.019-.854-.048-.842-.726.039-2.169.035-4.338.007-6.507Zm-1.423.514c0 2.015-.025 4.028.012 6.041.015.875-.6.564-1.019.642-.489.09-.707-.078-.7-.613.024-1.626.045-3.254 0-4.88-.034-1.185 1.168-.651 1.709-1.19Zm-4.77 6.01c.048-1.133.043-2.27.014-3.4-.03-1.159 1.066-.778 1.477-1.319l.24.155c0 1.524-.028 3.048.013 4.57.02.707-.371.7-.874.7s-.9 0-.87-.7Zm-3.086-.371a11.607 11.607 0 0 0 .017-1.809c0-.324.013-.584.4-.772 1.282-.63 1.27-.653 1.26.834v.746h-.013a6.3 6.3 0 0 1-.013 1.065c-.064.372.3 1.023-.544.981-.675-.032-1.255-.085-1.1-1.045Zm69.785-49.283a17.391 17.391 0 0 1 1.54 1.173c.159.148-.164.35-.325.458-.733.491-1.466.983-2.224 1.433a2.574 2.574 0 0 1-2.231-.783.248.248 0 0 1 .123-.347 23.2 23.2 0 0 0 2.837-1.845 1.247 1.247 0 0 1 .283-.088Zm-1.517-1.184.112.165c.032.231-.139.3-.288.39-.654.414-1.33.8-1.948 1.261a1.771 1.771 0 0 1-2.435-.055c-.538-.423-.789-.635-.026-1.048a22.047 22.047 0 0 0 1.865-1.193 1.674 1.674 0 0 1 2.72.48Zm-4.015-3.887c1.6 1.4 1.6 1.5-.176 2.693-.644.432-1.32.818-1.985 1.218-.179.107-.372.191-.594.3-.723-.457-1.465-.873-2.141-1.378-.265-.2.09-.33.245-.43 1.275-.827 2.559-1.642 3.83-2.477a.575.575 0 0 1 .821.071Zm-22.161-15.82c.954-.067 1.917-.01 2.876-.01a26.39 26.39 0 0 1 10.938 1.854 1.425 1.425 0 0 1 .981.987 35.951 35.951 0 0 0 5.536 10.722c.479.634.487.955-.215 1.364q-1.977 1.146-3.883 2.412a1.079 1.079 0 0 1-1.338-.005 67.782 67.782 0 0 0-13.25-6.252 34.908 34.908 0 0 0-15.48-1.224c-.679.087-1.621.5-1.972-.008-.3-.434.5-1.135.8-1.729.708-1.43 1.486-2.827 2.18-4.263a2.059 2.059 0 0 1 .993-1.034 30.847 30.847 0 0 1 11.835-2.814Zm-24.536-37.848c.463-.191.946-1.043 1.539-.3 4.135 5.184 8.369 10.318 10.52 16.74 2.683 8 2.621 15.89-1.117 23.6-1.1 2.268-2.288 4.483-3.457 6.712a3.337 3.337 0 0 1-3.352 2 51.452 51.452 0 0 0 6.173-13.034c2-6.718 2.271-13.413-.388-20.045a43.6 43.6 0 0 0-6.085-10.068c-1.224-1.609-2.474-3.2-3.685-4.817-.155-.206-.775-.532-.148-.789Zm-3.073 1.507c.5-.287 1.148-1.072 1.744-.284 3.357 4.43 7.046 8.63 9.409 13.747a26.161 26.161 0 0 1 1.955 15.7c-1.429 8.453-5.559 15.6-10.637 22.334-1.974 2.618-4.632 4.34-7.114 6.32a34.075 34.075 0 0 0-9.448 10.808 19.912 19.912 0 0 0-2.361 9.3q.008 11.411 0 22.818c0 1.032-.582 1.493-1.589 1.3-.578-.11-.338-.551-.341-.843-.021-2.381-.011-4.762-.011-7.143v-6.931h.156c0-3.944.086-7.889-.022-11.83-.137-4.976 2.034-8.877 5.352-12.324 3.25-3.377 6.911-6.3 10.3-9.526 4.406-4.181 8.3-8.748 10.771-14.365 2.93-6.673 4.1-13.575 2.248-20.769a33.555 33.555 0 0 0-5.43-11c-1.539-2.167-3.189-4.255-4.76-6.4-.181-.244-.784-.594-.227-.912Zm-15.82 105.283a1.2 1.2 0 0 1 .02.313c0 .107-.013.214-.013.32v.528a1.1 1.1 0 0 1-1.665 1.122c-.331-.129-.267-.375-.273-.6-.014-.529.04-1.062-.014-1.584-.12-1.169.774-.959 1.407-1.041.848-.113.459.576.538.944ZM148.07 62.347c.433-.221.888-.925 1.455-.175 3.159 4.186 6.5 8.243 8.759 13.042a26.448 26.448 0 0 1 1.881 16.642c-1.62 8.564-6.32 15.292-12.476 21.179-3.612 3.455-7.528 6.58-10.989 10.2a18.755 18.755 0 0 0-5.553 13.482c-.014 8.53-.116 17.062-.106 25.593 0 .638-.028 1.06-.865 1.092-.745.029-.891-.21-.888-.888.023-4.976.013-9.953.013-14.929h.233c0-4.656.024-9.313-.008-13.968-.024-3.651 1.755-6.507 3.941-9.188 3.218-3.949 7.1-7.236 10.761-10.751 3.841-3.693 7.559-7.489 10.286-12.127a28.633 28.633 0 0 0 3.674-16.806c-.418-6.394-3.314-11.813-6.808-16.977-1.033-1.526-2.152-2.994-3.229-4.492-.21-.293-.667-.633-.081-.93Zm-17.651 103.521c1.11-.32 1.255-.149 1.252 1.455-.211.345.441 1.128-.553 1.239-.823.093-1.456-.036-1.165-1.08.149-.54-.5-1.336.466-1.614Zm25.913-79.988a31.83 31.83 0 0 0-4.52 2.585 55.094 55.094 0 0 0-11.63 11.587c-.258.331-.522.659-.89 1.123-.326-1.81-.322-3.228.854-4.646 3.184-3.842 6.507-7.5 10.916-9.976 1.512-.849 3.112-1.547 4.7-2.258.273-.123.792-.628.956-.073.15.507.469 1.247-.383 1.658Zm.362 4.65a27.539 27.539 0 0 1-6.42 14.695 109.5 109.5 0 0 1-10.8 10.986c-.046.043-.13.045-.289.1a9.987 9.987 0 0 1-.16-2.813c.047-3.053.154-6.1.222-9.156a1.837 1.837 0 0 1 .322-1.093 56.577 56.577 0 0 1 13.016-13.6 23.185 23.185 0 0 1 4.213-2.383 18.455 18.455 0 0 1-.104 3.264Zm-1.094-7.708a36.521 36.521 0 0 0-16.268 12.564c-.147.193-.267.427-.567.5a1.939 1.939 0 0 1 .376-2.364 42.366 42.366 0 0 1 10.478-10.17 33.149 33.149 0 0 1 5.973-2.763c.189-.073.368-.2.542.068a1.422 1.422 0 0 1-.534 2.167Zm-.709-3.47a36 36 0 0 0-5.872 2.723 41.3 41.3 0 0 0-10.112 9.469c-.282.349-.561.7-.883 1.1a2.253 2.253 0 0 1 .088-2.988 27.686 27.686 0 0 1 13.29-9.841c1.061-.4 2.1-.851 3.175-1.219.267-.092.669-.5.916 0 .282.583-.282.63-.603.756Zm-21.883-5.436a50.827 50.827 0 0 1 12.847-10.379c.481-.287.657-.115.923.242a68.663 68.663 0 0 1 7.77 12.3c.335.736.252.942-.532 1.244-3.969 1.525-7.984 2.972-11.392 5.652a30.311 30.311 0 0 0-6.054 6.438 16.18 16.18 0 0 0-3.382-4.12 1.011 1.011 0 0 1-.347-.946 34.06 34.06 0 0 0-.361-8.6 2.025 2.025 0 0 1 .528-1.828Zm-9-10.533c.436-.205.757-.975 1.386-.227a24.853 24.853 0 0 1 4.243 7.307 31.61 31.61 0 0 1 1.9 12.545c-.01.246-.057.488-.1.838-1.93-.752-1.912-.752-1.934-2.643-.075-6.232-1.568-12-5.59-16.926-.313-.383-.406-.657.098-.894Zm-2.1 1.675c.558-.5.771-.106 1.066.261a24.23 24.23 0 0 1 5.013 13.129c.046.457.006.923.006 1.385h.061a5.137 5.137 0 0 1 .046 1.067c-.065.4.346 1-.278 1.186-.552.168-1.288-.625-1.287-1.3a23.864 23.864 0 0 0-2.989-11.849 15.651 15.651 0 0 0-1.769-2.651c-.425-.5-.327-.812.136-1.228Zm-1.685 1.887c.423-.106.526.278.7.515a21.851 21.851 0 0 1 4.115 11c.052.528.089 1.06.136 1.619-.183.287.282 1.044-.407.908-.583-.115-1.621.193-1.645-1a21.709 21.709 0 0 0-3.594-11.072 1.593 1.593 0 0 1 .698-1.97ZM114.2 79.769a33.008 33.008 0 0 1 4.057-10.214 20.263 20.263 0 0 1 3.475 10.223c.019.481-.1.652-.581.582a30.322 30.322 0 0 0-6.382-.046c-.441.027-.706.004-.569-.545Zm-.521 2.837c.054-.461.067-.855.749-.915 5.578-.487 10.88.25 15.778 3.184a14.444 14.444 0 0 1 6.73 9.531c1.32 5.534.892 11.148.724 16.75a48.8 48.8 0 0 0 .086 6.07c.116 1.231-1.123 1.469-1.622 2.206 0-2.722-.04-5.377.009-8.032.1-5.228.092-10.448-1.093-15.579-.827-3.582-2.127-6.93-5.223-9.235-1.691-1.261-3.73-1.7-5.687-2.313a24.97 24.97 0 0 0-9.668-1.142c-.354.03-.861.146-.783-.525Zm-.416 2.876c.063-.69.226-.933.985-.989a29.594 29.594 0 0 1 13.192 2.362c2.534 1 4 3.088 5.031 5.5a31.972 31.972 0 0 1 2.149 10.478 114.05 114.05 0 0 1-.112 13.946 9.253 9.253 0 0 0-.053 2.019c.362 2.045-.657 3.41-2.014 4.536 0-3.031-.029-6.113.007-9.195a96.77 96.77 0 0 0-.614-15.736 25.217 25.217 0 0 0-1.52-5.635c-1.221-3.048-3.837-4.3-6.673-5.294a24.211 24.211 0 0 0-6.6-1.042q-1.436-.09-2.871-.177c-.5-.03-.977.033-.9-.775Zm-.223 3.071c.044-.753.273-.959 1.015-.889 2.96.275 5.94.208 8.862 1.028a9.117 9.117 0 0 1 7.059 7.483c1.214 5.827 1.2 11.7 1.058 17.6-.091 3.762-.334 7.523-.238 11.288.022.878-.6 1.377-1.026 2.038-.241-3.35-.672-6.654-1.011-9.964-.26-2.536.283-5.162.266-7.755a50.111 50.111 0 0 0-1.418-13.3c-1.05-3.763-3.778-5.376-7.313-6.057a29.761 29.761 0 0 0-6.259-.446c-.781.021-1.048-.206-1-1.026Zm14.408 77.517c.929-.325 1.166-.049 1.157 1.264-.12.328.236.875-.33 1.135-.74.341-1.285-.01-1.213-.853.044-.523-.423-1.264.386-1.546ZM113.03 92.8c.091-2.317-.368-1.888 1.9-1.83a19.815 19.815 0 0 1 7.923 1.324 5.9 5.9 0 0 1 3.232 3.728 37.406 37.406 0 0 1 1.508 11.142c.046 1.688.008 3.379.008 5.069a70.128 70.128 0 0 0-3.331-6.75 30.293 30.293 0 0 0-9.832-10.15 2.538 2.538 0 0 1-1.408-2.533Zm-5.445.583a30.212 30.212 0 0 1 16.248 14.162 36.254 36.254 0 0 1 4.15 14.856c.586 8.948-.057 17.9.013 26.857.034 4.407-.017 8.814-.038 13.222 0 .458.192 1.009-.668 1-.8-.011-.909-.381-.907-1.056.019-6.469.011-12.939.011-19.408h-.037c0-5.972.141-11.947-.032-17.914-.257-8.808-2.911-16.828-9.226-23.173-6.907-6.939-15.338-9.775-25.089-7.992a32.418 32.418 0 0 0-9.019 3.442c-.662.344-.957.293-1.257-.405-.255-.588-.428-.912.351-1.294a39.456 39.456 0 0 1 12.672-4.18 26.271 26.271 0 0 1 12.828 1.883Zm16.389 73.724c.006-.708-.255-1.594 1.049-1.32.486.1.674.29.638.767a7.868 7.868 0 0 0 0 .959c.029.6.071 1.082-.832 1.08-.872 0-.907-.434-.856-1.059.01-.141.001-.284.001-.427Zm-.679-28.189c-.09-4.929.245-9.873-.406-14.792-.944-7.135-2.713-13.959-7.573-19.548-5.369-6.177-12.351-8.249-20.293-7.625A28.887 28.887 0 0 0 84.7 100.11c-.86.418-1.237.246-1.592-.579-.2-.466-.062-.638.3-.82 4.376-2.2 8.87-4.144 13.879-3.933 10.067.424 17.837 4.924 23.011 13.63a35.183 35.183 0 0 1 4.713 18.23q.013 4.212.009 8.424t0 8.425v9.331q0 4.666-.016 9.33c0 .422.369 1.146-.637 1.1-.823-.04-1.054-.37-1.05-1.188.028-7.715.119-15.431-.017-23.142Zm-.7 28.424c-.013.6.225 1.258-.865 1.258-1.139 0-.763-.731-.823-1.286a.955.955 0 0 1-.006-.106c0-.106.005-.213.005-.32 0-.248-.014-.5 0-.743.027-.387-.161-.942.575-.841.534.075 1.212-.04 1.12.869-.041.386 0 .779-.01 1.169Zm-11.765-62.268a20.082 20.082 0 0 0-18.5-4.425 29.483 29.483 0 0 0-6.2 2.2c-.98.483-1.188-.224-1.476-.759-.392-.725.432-.609.69-.732a28.16 28.16 0 0 1 10.977-3.112c8.548-.34 16.226 3.053 20.771 11.269a39.9 39.9 0 0 1 4.532 16.271c.08.95.15 1.9.226 2.85l-.148-.033c-.439-1.079-.829-2.181-1.334-3.23a11.384 11.384 0 0 1-.68-3.2c-1.114-6.652-3.585-12.642-8.859-17.1Zm7.111 15.719a28.024 28.024 0 0 0-4.337-4.471 21.937 21.937 0 0 0-14.293-4.6 25.1 25.1 0 0 0-5.811.621.975.975 0 0 1-1.035-.311 56.181 56.181 0 0 1-5.924-7.094c-.207-.287-.444-.585.1-.823 3.835-1.677 7.755-2.98 12.029-2.656a19.381 19.381 0 0 1 13.6 7.026 26.038 26.038 0 0 1 5.671 12.308ZM77.818 85c2.268-1.011 4.511-2.1 7.067-2.138a16.656 16.656 0 0 1 7.9 2.231 59.776 59.776 0 0 0 8.488 3.89c.521.171.823.435.682.992s-.579.273-.879.232a28.844 28.844 0 0 0-14.8 2.065 51.676 51.676 0 0 0-4.839 2.192c-.485.256-.767.268-1.023-.334a60.631 60.631 0 0 1-2.852-8.342c-.09-.342-.141-.612.253-.788Zm-1.791 1c.313.066.262.454.335.721a59.832 59.832 0 0 0 2.9 8.211 61.506 61.506 0 0 0 11.14 16.99c.827.9.76.742-.313 1.231-1.342.611-2 .075-2.787-.922a69.73 69.73 0 0 1-10.82-18.2 36.437 36.437 0 0 1-1.824-6.658A1.378 1.378 0 0 1 76.027 86Zm-2.872 1.508c.272.023.185.389.231.63a38.319 38.319 0 0 0 1.93 6.735 67.717 67.717 0 0 0 10.016 17.075 7.99 7.99 0 0 1 .976 1.254c.15.308.943.552.365.968-.452.325-1.053.64-1.65-.1-1.043-1.3-2.122-2.564-3.1-3.912a62.4 62.4 0 0 1-9.4-19.058c-.222-.747-.415-1.5-.6-2.26a1.239 1.239 0 0 1 1.232-1.333Zm-2.4 9.361a36.977 36.977 0 0 1-1.826-6.659c-.187-1.025.657-.955 1.135-1.207.556-.292.514.312.589.6a63.3 63.3 0 0 0 13.125 25.151 2.426 2.426 0 0 1 .217.362c-1.628.931-1.628.931-2.734-.467a67.882 67.882 0 0 1-10.508-17.781Zm-3.372 18.8c.369-1.927 1.452-2.773 3.24-3.321a28.123 28.123 0 0 0 4.593-2.182c.519-.27.791-.36 1.173.225 1.358 2.071 2.878 4.031 4.525 6.078-5.142 1.944-9.894 4.563-15.573 4.532a31.32 31.32 0 0 0 2.042-5.332ZM63.93 123.6c.367-.8.685-1.348 1.844-1.259a18.334 18.334 0 0 0 7.287-1.3c3.824-1.3 7.489-3.008 11.257-4.452 5.149-1.974 10.369-3.7 15.984-3.487 8.842.338 15.044 4.672 18.724 12.655a32.922 32.922 0 0 1 2.944 14.485q-.018 1.2-.023 2.4c-.009 2.4.013 4.8.013 7.2 0 2.985.006 5.97 0 8.956q0 1.493-.015 2.985c0 .327.333 1.011-.412.94-.552-.052-1.294.007-1.281-1.009.047-3.588.017-7.179.017-10.768 0-4.585.289-9.191-.064-13.748-.641-8.267-3.83-15.337-11.131-19.91-4.4-2.758-9.283-2.751-14.229-1.8-5.357 1.034-10.4 3.051-15.486 4.93-3.89 1.438-7.743 3.005-11.876 3.656a13.5 13.5 0 0 1-3.188.124c-.42-.033-.565-.153-.362-.595Zm53.857 43.992c-.011-.387 0-.776 0-1.164h.021a3.56 3.56 0 0 1 .009-.738c.094-.435-.3-1.04.29-1.28.376-.151 1.371.981 1.374 1.473a12.894 12.894 0 0 0 .015 1.692c.12.863-.319.97-1.024 1-.84.035-.671-.514-.682-.983Zm-53.773-42.061c2.956.422 5.782-.4 8.571-1.251 4.852-1.49 9.517-3.507 14.317-5.146a51.982 51.982 0 0 1 10.719-2.674c7.3-.856 12.915 1.916 16.89 7.989A25.389 25.389 0 0 1 118.866 139c-.106 7.249-.02 14.5-.047 21.752 0 .354.39 1.088-.339 1.058-.58-.023-1.335-.158-1.314-1.173.064-2.984.061-5.969.047-8.954-.023-4.727.117-9.464-.158-14.177-.413-7.06-3.293-12.953-9.264-17.019A15.712 15.712 0 0 0 96.3 118.05a57.424 57.424 0 0 0-11.987 3.635c-4.573 1.741-9.1 3.627-13.912 4.633a21.143 21.143 0 0 1-8.271.355 1.449 1.449 0 0 1 1.885-1.142Zm52.4 42.4c.031.66-.38.657-.831.627-.423-.027-.978.186-.968-.6.018-1.592.005-3.185.005-4.813 1.521.178 1.929.952 1.777 2.225a15.613 15.613 0 0 0 .017 2.558Zm-11.39-45.571a13.843 13.843 0 0 0-9.539-1.13 71.256 71.256 0 0 0-11.656 3.662 99.434 99.434 0 0 1-14.581 4.657 25.313 25.313 0 0 1-8.254.58 3.32 3.32 0 0 1-1.317-.3c.413-.543.821-1.069 1.216-1.6.209-.282.481-.249.769-.2 5.036.9 9.828-.268 14.523-1.874 4.661-1.6 9.246-3.414 13.884-5.078a27.3 27.3 0 0 1 7.864-1.8c6.076-.3 10.666 2.378 14.04 7.286a21.664 21.664 0 0 1 3.8 12.431q.054 10.289.042 20.576c0 .342.313 1.059-.271 1.006-.556-.048-1.4-.2-1.4-1.149.007-1.776-.005-3.553 0-5.329.028-5.685.292-11.388-.282-17.046-.631-6.206-3.11-11.51-8.847-14.693Zm6.618 39.423c1.413.215 1.765.95 1.649 2.16a37.638 37.638 0 0 0-.045 3.933c.006.48-.1.755-.652.656-.4-.072-.971.221-.962-.586.024-2.044.01-4.089.01-6.163Zm-3.275-2.491a2.688 2.688 0 0 1 1.957 3.017c-.15 1.864-.054 3.749-.025 5.626.008.54-.221.741-.685.614-.427-.116-1.22.44-1.233-.488-.039-2.89-.014-5.78-.014-8.769Zm-3.2 8.276c.029-3.407.022-6.815.028-10.221v-.976c1.11.869 1.848 1.594 1.774 3.046-.136 2.691-.034 5.393.007 8.09.01.7-.051 1.1-.944 1.089-.85-.005-.872-.382-.866-1.028Zm-2.881-.025v-14.3a2.753 2.753 0 0 1 1.595 2.769c-.09 3.836-.049 7.676-.065 11.515 0 .512.131 1.034-.76 1.034s-.771-.479-.771-1.018Zm-3.058-19.651a8.772 8.772 0 0 1 1.728 5.452c-.139 4.714-.047 9.434-.043 14.152 0 .572.116 1.1-.811 1.1-.841 0-.886-.383-.884-1.036.017-6.482.01-12.964.01-19.666Zm-5.362 31.953v-15.986c0-9.094.014-18.189-.022-27.283 0-.921.189-1.232 1.154-1.189.843.038 1.223.106 1.22 1.138q-.057 27.283-.027 54.566a1.384 1.384 0 0 1-2.1 1.123c-.4-.232-.219-.639-.22-.967-.012-3.8-.008-7.6-.008-11.4Zm4.434 18.932c0 .409-.069.711-.582.639-2.232-.313-4.081.532-5.956 2.157 0-2.289.008-4.294-.007-6.3 0-.464.255-.509.611-.508 1.772 0 3.544.01 5.315 0 .448 0 .632.147.623.614a104.151 104.151 0 0 0 0 3.4Zm59.06-7.688c0 .7.011 1.218-.95 1.237-.859.018-1.158.67-1.15 1.494.017 1.884-.02 3.768.019 5.651a1.656 1.656 0 0 1-.7 1.524c-2.333 1.8-4.215 1.829-6.549 0a6.86 6.86 0 0 0-9-.011c-2.362 1.841-4.2 1.842-6.532 0a6.88 6.88 0 0 0-9 0c-2.329 1.838-4.182 1.836-6.532 0a6.858 6.858 0 0 0-8.994.013c-2.41 1.888-4.642 1.786-6.883-.27a1.218 1.218 0 0 1-.354-1.045c0-1.884-.028-3.768.013-5.651.023-1.067-.337-1.737-1.479-1.759-.552-.01-.625-.312-.623-.759.006-4.869.017-9.739-.011-14.608 0-.775.426-.738.951-.737q6.132.011 12.262 0h37.32q3.519-.006 7.038-.02c.951 0 1.18.26 1.17 1.188-.047 4.586-.029 9.171-.012 13.755Zm-.134-17.561c-.148.3-.589.146-.9.147-2.416.009-4.831 0-7.247 0q-24.567 0-49.134-.01c-.427 0-1.1.273-1.238-.261a4.938 4.938 0 0 1 0-2.1c.074-.388.62-.216.954-.217 3.588-.01 7.176-.006 10.765-.006h17.694q14.068 0 28.137.011c.372 0 .984-.271 1.066.347a3.579 3.579 0 0 1-.096 2.089Zm3.73-38.142c.866.023 1.207.14 1.2 1.147q-.018 3.426-.025 6.853c-.015 6.854 0 13.706 0 20.56v20.32q0 3.386.017 6.772c0 .942-.191 1.275-1.206 1.266-.976-.008-1.156-.318-1.155-1.225q.039-27.255 0-54.507c-.002-.934.22-1.212 1.17-1.186Zm3.28 66.064a21.136 21.136 0 0 0-2.544-1.579 6.288 6.288 0 0 0-3.1-.475c-.609.079-.933-.013-.9-.737.05-1.06.042-2.126 0-3.188-.023-.581.212-.721.745-.713 1.7.025 3.4.011 5.1.009.364 0 .71-.035.705.52-.02 2-.008 4.006-.008 6.163Zm.371-54.055V147a4.973 4.973 0 0 1 1.285 3.3c-.034 5.752.006 11.5.01 17.257 0 .454.2 1.033-.654 1.02s-.636-.6-.636-1.046q-.013-10.07 0-20.134Z" class="cls-1"/><path d="M212.671 163.77a92.223 92.223 0 1 0-19.694 29.209 91.324 91.324 0 0 0 19.694-29.209Zm-33.943 37.03q-1.1.771-2.231 1.51a88.62 88.62 0 0 1-13.926 7.442q-1.845.783-3.732 1.483-1.172.436-2.358.841-3.384 1.148-6.851 2.019a89.033 89.033 0 0 1-43.241 0q-3.479-.871-6.876-2.026-1.184-.4-2.351-.838-1.886-.7-3.729-1.482a88.52 88.52 0 0 1-13.93-7.445q-1.128-.736-2.229-1.508a89.493 89.493 0 0 1-23.769-24.591q-.791-1.22-1.544-2.463-.805-1.335-1.567-2.7-.773-1.387-1.5-2.8-.593-1.162-1.153-2.344t-1.1-2.4a88.029 88.029 0 0 1-6.47-22.582c-.066-.448-.128-.9-.187-1.346q-.249-1.9-.414-3.8-.1-1.125-.168-2.26-.04-.683-.073-1.367c-.027-.58-.05-1.162-.064-1.746q-.032-1.2-.033-2.4 0-.6.008-1.194a86.508 86.508 0 0 1 .157-4.227q.054-.912.129-1.819.053-.648.115-1.293.156-1.639.376-3.271.15-1.13.33-2.251.381-2.406.9-4.789c.106-.49.217-.977.331-1.464q.231-.983.483-1.956.172-.663.355-1.323.258-.936.535-1.863.2-.674.415-1.34.309-.976.642-1.944.218-.636.446-1.268 1.081-3 2.377-5.918c.2-.458.411-.916.622-1.37.25-.537.5-1.069.764-1.6q.847-1.735 1.772-3.433.351-.645.715-1.285 1.192-2.108 2.5-4.149.495-.772 1.006-1.533.377-.562.763-1.122.84-1.211 1.718-2.4.579-.778 1.174-1.546.427-.551.861-1.092.98-1.221 2-2.406.489-.568.987-1.129 1.261-1.416 2.582-2.778.7-.721 1.417-1.427c.342-.336.687-.672 1.034-1q.721-.69 1.46-1.363c.361-.328.724-.656 1.09-.979q.71-.627 1.432-1.24.524-.444 1.055-.878.757-.621 1.528-1.226.573-.452 1.155-.89c.45-.341.9-.679 1.358-1.011q.54-.394 1.088-.779.783-.552 1.576-1.09c.357-.241.718-.479 1.079-.715q1.595-1.042 3.237-2.018.677-.4 1.362-.792 1.231-.7 2.486-1.367a76.11 76.11 0 0 1 1.269-.657q.956-.485 1.923-.948.68-.325 1.364-.638 1.1-.506 2.22-.98.61-.258 1.225-.509 1.008-.411 2.029-.8a89.755 89.755 0 0 1 2.619-.943q.658-.226 1.321-.442.918-.3 1.845-.577.69-.207 1.382-.4c.477-.136.958-.266 1.439-.393q2.475-.654 4.985-1.166.658-.133 1.321-.257 1.346-.253 2.708-.465 2.379-.37 4.774-.609 1.2-.122 2.411-.208.68-.048 1.36-.088 2.05-.119 4.125-.143c.341 0 .681-.006 1.023-.006h.371q1.118 0 2.23.036.707.02 1.409.052c.73.033 1.46.075 2.186.124q.692.048 1.381.106a91.798 91.798 0 0 1 3.301.343q.976.12 1.946.261c.433.063.867.129 1.3.2q1.579.254 3.15.565.931.185 1.856.388.68.148 1.355.31 1.514.357 3.012.77 2.6.714 5.141 1.583c.473.161.946.328 1.415.5q3.007 1.085 5.93 2.386.679.3 1.353.615c.576.267 1.146.541 1.715.821q.645.316 1.285.643 1.274.654 2.526 1.348a84.858 84.858 0 0 1 2.835 1.638q.879.531 1.746 1.081.638.405 1.27.819 1.268.838 2.509 1.716 1.4.992 2.76 2.036.8.615 1.586 1.249.533.429 1.056.865.78.648 1.546 1.314 1.314 1.143 2.585 2.336.528.5 1.05 1 2.081 2.022 4.029 4.175c.356.393.707.789 1.057 1.19q.593.68 1.171 1.371.508.606 1.007 1.223c.278.343.554.69.826 1.037q.537.684 1.061 1.38.77 1.021 1.511 2.067.476.671.938 1.352.565.829 1.113 1.673.446.687.879 1.382.5.8.984 1.618.382.645.754 1.3 1.5 2.628 2.822 5.354.32.66.627 1.324.409.889.8 1.787a96.842 96.842 0 0 1 1.247 3.002q.248.633.487 1.272.31.824.605 1.654c.151.428.3.859.443 1.289a84.307 84.307 0 0 1 .668 2.072q.262.847.506 1.7c.144.5.282 1 .418 1.509q.339 1.264.639 2.543.444 1.878.807 3.788.215 1.136.4 2.281.146.885.272 1.773.192 1.353.342 2.717.084.761.155 1.527.108 1.157.185 2.323.05.738.088 1.478.059 1.188.087 2.386c.01.469.017.94.021 1.409v.7a93.7 93.7 0 0 1-.017 1.679q-.033 1.836-.144 3.67-.041.693-.092 1.382-.084 1.111-.195 2.217-.066.659-.142 1.314a88 88 0 0 1-6.818 25.233q-.525 1.2-1.085 2.376-.495 1.043-1.015 2.071-.793 1.569-1.648 3.1-.756 1.361-1.561 2.692-.752 1.245-1.541 2.461a89.517 89.517 0 0 1-23.762 24.614Z" style="fill:#aaa"/><path d="M32.894 160.828a7.539 7.539 0 0 1-5.885 13.883 7.539 7.539 0 0 1 5.885-13.883Zm1.3 8.684a4.484 4.484 0 0 0-2.4-5.943 4.79 4.79 0 0 0-6.076 2.458 4.484 4.484 0 0 0 2.4 5.943 4.789 4.789 0 0 0 6.076-2.458ZM33.068 155l-16.051-4.082 13.124-10.1.642 3.11-2.312 1.727 1.149 5.567 2.807.671.641 3.107Zm-6.126-4.434-.67-3.25-3.119 2.338 3.789.912Zm2.826-14.332-14.722.446-.091-3.006 7.382-.223-7.549-5.271-.106-3.484 7.612 5.291 7.091-6.379.113 3.754-6.748 6.079 6.926-.211Zm.122-17.229-14.6-1.9.388-2.983 11.644 1.516.76-5.842 2.962.386Zm1.688-12.2-12.2-11.195 16.342-2.681-.906 3.042-2.855.425-1.624 5.447 2.155 1.921Zm-3.3-6.8.949-3.181-3.854.582Zm15.111-22.379-11.9 4.641 7.382 3.79-1.371 2.676-13.251-6.8 11.9-4.641-7.383-3.792 1.374-2.676Zm3.388-5.526-11.623-9.05 3.071-3.945a7.419 7.419 0 0 1 4.987-2.927 7.315 7.315 0 0 1 8.25 6.423 7.416 7.416 0 0 1-1.616 5.552L46.777 72.1Zm-.331-4.068 1.224-1.571a4.293 4.293 0 0 0 .953-3.385 4.877 4.877 0 0 0-5.172-4.028A4.306 4.306 0 0 0 40.4 60.8l-1.224 1.571 7.268 5.658Zm18.078-15.455-8.911-11.726 4.311-3.277a4.237 4.237 0 0 1 3.223-.886 4.079 4.079 0 0 1 2.819 1.637 3.383 3.383 0 0 1 .7 2.805 3.63 3.63 0 0 1 3.843 1.457 4.059 4.059 0 0 1 .819 3.272 4.636 4.636 0 0 1-1.863 2.966l-4.939 3.752Zm-2.863-8.74 1.668-1.268a1.733 1.733 0 0 0 .726-1.138 1.654 1.654 0 0 0-1.42-1.853 1.722 1.722 0 0 0-1.287.38l-1.669 1.268 1.982 2.611Zm3.589 4.723 2.395-1.82a1.836 1.836 0 0 0 .769-1.183 1.59 1.59 0 0 0-.332-1.259 1.619 1.619 0 0 0-1.136-.674 1.837 1.837 0 0 0-1.345.424l-2.4 1.82Zm12.725-5.446-6.969-12.976 2.65-1.424 5.556 10.345 5.19-2.787 1.413 2.628-7.84 4.21ZM99.38 32.172a6.006 6.006 0 0 1-11.2-.8l-2.88-8.35 2.843-.983 2.9 8.392a3.129 3.129 0 0 0 1.51 1.893 3.273 3.273 0 0 0 4.114-1.424 3.13 3.13 0 0 0 .02-2.421l-2.9-8.392 2.843-.983 2.892 8.373a5.876 5.876 0 0 1-.143 4.693Zm8.3-.572-2.424-14.528 8.88-1.482.488 2.926-5.913.987.477 2.865 4.687-.782.479 2.866-4.685.781.491 2.946 5.913-.986.488 2.926-8.886 1.481Zm35.094-3.136a7.53 7.53 0 0 1-12.308-6.508 7.53 7.53 0 1 1 14.995 1.405 7.255 7.255 0 0 1-2.692 5.103Zm-8.307-2.841a4.482 4.482 0 0 0 6.382.6 4.791 4.791 0 0 0 .611-6.528 4.483 4.483 0 0 0-6.382-.6 4.79 4.79 0 0 0-.611 6.527Zm13.388 5.677 11.024-12.36 2.908 16.3-3.055-.865-.465-2.848-5.47-1.549-1.889 2.182Zm6.76-3.391 3.194.9-.637-3.845-2.557 2.936Zm11.4 9.124 6.422-13.255 2.707 1.311-3.22 6.647 8.167-4.25 3.14 1.514-8.213 4.3 2.371 9.238-3.38-1.637-2.263-8.8-3.021 6.235Zm18.094 10.3a6.465 6.465 0 0 1-2.15-2.347 5.106 5.106 0 0 1-.56-2.865l2.938-.246a4.21 4.21 0 0 0 .317 1.792 2.839 2.839 0 0 0 1 1.306q1.419.975 2.148-.085a1.319 1.319 0 0 0 .211-1.076 5.585 5.585 0 0 0-.708-1.532l-.522-.887q-1.97-3.141-.242-5.655a3.763 3.763 0 0 1 2.775-1.692 4.577 4.577 0 0 1 3.223.806 5.858 5.858 0 0 1 1.654 1.641 4.912 4.912 0 0 1 .7 2.22l-2.9.626a4.072 4.072 0 0 0-.305-1.339 2.146 2.146 0 0 0-.742-.825 1.576 1.576 0 0 0-1-.3 1.072 1.072 0 0 0-.853.509 1.29 1.29 0 0 0-.194 1.088 6.857 6.857 0 0 0 .776 1.654l.517.859q1.89 3.035.232 5.447a4.024 4.024 0 0 1-2.846 1.831 4.833 4.833 0 0 1-3.466-.932Zm14.324 11.784 10.91-9.9 5.787 6.383-2.2 1.993-3.763-4.149-2.151 1.952 2.913 3.211-2.152 1.951-2.913-3.211-4.41 4-2.021-2.23Zm17.257 19.519a7.562 7.562 0 1 1 5.68-1 7.253 7.253 0 0 1-5.68 1Zm-2.841-8.308a4.483 4.483 0 0 0 3.434 5.413 4.791 4.791 0 0 0 5.536-3.512 4.483 4.483 0 0 0-3.434-5.413 4.791 4.791 0 0 0-5.536 3.512Zm10.912 26.81a7.563 7.563 0 1 1 5.765.158 7.253 7.253 0 0 1-5.765-.158Zm-1.12-8.707a4.485 4.485 0 0 0 2.282 5.991 4.789 4.789 0 0 0 6.126-2.333 4.483 4.483 0 0 0-2.281-5.99 4.794 4.794 0 0 0-6.127 2.332Zm1.619 18.958 11.539-2.283-.712-3.6 2.909-.575 2.013 10.175-2.909.575-.716-3.622-11.539 2.284Zm1.909 11.889 14.717-.577.213 5.411a4.235 4.235 0 0 1-1.122 3.148 4.084 4.084 0 0 1-2.957 1.373 3.389 3.389 0 0 1-2.7-1.036 3.629 3.629 0 0 1-3.4 2.313 4.059 4.059 0 0 1-3.151-1.2 4.635 4.635 0 0 1-1.362-3.227l-.243-6.2Zm2.874 2.9.118 3.006a1.838 1.838 0 0 0 .528 1.307 1.591 1.591 0 0 0 1.221.45 1.616 1.616 0 0 0 1.2-.545 1.839 1.839 0 0 0 .426-1.345l-.118-3.006-3.378.133Zm5.929-.232.082 2.094a1.734 1.734 0 0 0 .517 1.246 1.654 1.654 0 0 0 2.331-.1 1.719 1.719 0 0 0 .428-1.274l-.082-2.094-3.276.13Zm-8.418 11.593 13.843 9.091-15.697 5.27.407-3.148 2.749-.878.729-5.638-2.435-1.549.408-3.147Zm4.345 6.19-.426 3.292 3.711-1.194-3.285-2.1Zm-7.429 12.649 14.118 4.2-.857 2.884-11.255-3.347-1.679 5.647-2.864-.852Zm-4.536 13.552 13.355 6.21-1.268 2.729-10.646-4.952-2.484 5.343-2.709-1.26ZM82.227 230.593l5.4-13.216 3.784 9.3 9.193-4-5.4 13.217-2.67-1.094 2.856-7-5.438 2.376-2.2-5.5-2.856 6.994Zm23.688 8.281 2.213-14.1 5.822 8.18 8.026-6.006-2.213 14.1-2.848-.448 1.172-7.464-4.745 3.562-3.407-4.842-1.172 7.465-2.848-.447Zm23.227 2.6 4.19-7.331-4.661-6.78 3.336-.178 3.217 4.707 2.721-5.023 3.336-.177-3.917 7.237 4.943 6.846-3.336.177-3.5-4.891-2.988 5.236-3.336.177Zm20.777-1.835 2.718-8-5.867-5.769 3.24-.809 4.056 4.008 1.713-5.448 3.24-.809-2.467 7.85 6.157 5.779-3.241.809-4.372-4.135-1.935 5.709-3.242.811Zm21.114-6.405-5.515-13 2.654-1.126 5.516 12.995Z" style="fill:#ddd"/></svg>