<svg xmlns="http://www.w3.org/2000/svg" id="Layer_1" width="347.81" height="288.99" data-name="Layer 1" version="1.1"><defs id="defs4"><style id="style2">.cls-1{fill:#1e1e1e}.cls-14,.cls-15{stroke-miterlimit:10}.cls-3{fill:#e41d34}.cls-15{fill:none}.cls-14{stroke:#56b947;fill:#56b947}.cls-15{stroke:#1e1e1e}.cls-11{fill:#e7a9cc}.cls-14{stroke-width:6.18px}.cls-15{stroke-width:5.43px}</style></defs><path id="rect6" d="M10.87 41.66h325.16v236.4H10.87z" class="cls-1" style="fill:#1e1e1e"/><g id="text2402" aria-label="FOOTBALL" style="font-size:23.237px;line-height:1.25;font-family:&quot;DEATHE MAACH NCV&quot;;-inkscape-font-specification:&quot;DEATHE MAACH NCV, Normal&quot;;letter-spacing:13.16px;fill:#fff"><path id="path5743" d="M89.255 256.04h1.325v.837h1.812v-3.787H90.58v.836h-1.325v-5.089h1.743v1.882h2.556v-3.903h-8.528v1.37l.372.396v13.36l-.372.396v1.37h4.601v-1.37l-.372-.395z"/><path id="path5745" d="M111.85 249.627c0-.58.348-.93.813-.93.464 0 .813.35.813.93v11.27c0 .581-.349.93-.813.93-.465 0-.814-.349-.814-.93zm5.646 5.624c0-1.743-.093-3.556-.232-5.043-.28-2.602-2.347-3.671-4.601-3.671s-4.322 1.069-4.601 3.671c-.14 1.487-.233 3.3-.233 5.043 0 1.742.093 3.578.233 5.065.279 2.603 2.347 3.672 4.6 3.672 2.255 0 4.323-1.07 4.602-3.672.139-1.487.232-3.323.232-5.065z"/><path id="path5747" d="M136.303 249.627c0-.58.348-.93.813-.93.465 0 .813.35.813.93v11.27c0 .581-.348.93-.813.93-.465 0-.813-.349-.813-.93zm5.646 5.624c0-1.743-.093-3.556-.232-5.043-.28-2.602-2.347-3.671-4.601-3.671s-4.322 1.069-4.601 3.671a56.18 56.18 0 0 0-.232 5.043c0 1.742.092 3.578.232 5.065.279 2.603 2.347 3.672 4.6 3.672 2.255 0 4.323-1.07 4.602-3.672.14-1.487.232-3.323.232-5.065z"/><path id="path5749" d="M156.201 246.816v4.182l1.232.511.86-2.416h.93v12.85l-.373.395v1.37h4.601v-1.37l-.372-.395v-12.85h.93l.86 2.416 1.231-.51v-4.183z"/><path id="path5751" d="M180.654 263.709h6.228c1.626 0 3.114-.906 3.416-2.347.186-.837.209-1.79.209-2.65 0-1.765-.465-3.368-2.138-3.856 1.487-.326 1.813-1.976 1.813-3.649 0-2.486-.28-4.391-4.3-4.391h-5.228v1.37l.372.396v13.36l-.372.396zm4.23-9.83v-5.042h.743c.744 0 .79 1 .79 2.394 0 1.44-.046 2.649-.883 2.649zm0 7.808v-5.786h.79c.673 0 .766.511.766 1.44v3.486c0 1-.999.86-1.556.86z"/><path id="path5753" d="m208.175 256.947.72-7.529h.674l.674 7.529zm-3.323 4.996-.372.395v1.37h3.579v-1.37l-.372-.395.302-2.603h2.44l.209 2.603-.372.395v1.37h4.74v-1.37l-.371-.395-1.604-13.361.372-.395v-1.371h-7.273v1.37l.302.396z"/><path id="path5755" d="M235.533 261.687h-1.976v-13.105l.372-.395v-1.371h-4.6v1.37l.371.396v13.36l-.372.396v1.37h8.854v-4.972h-2.65z"/><path id="path5757" d="M258.94 261.687h-1.975v-13.105l.372-.395v-1.371h-4.601v1.37l.372.396v13.36l-.372.396v1.37h8.853v-4.972h-2.649z"/></g><ellipse id="ellipse8" cx="166.2" cy="43.02" class="cls-1" rx="82.87" ry="43.02" style="fill:#1e1e1e"/><path id="path54" d="M65.64 210.29h-18.8V66.5h30.61q18.79 0 28.6 10.73 9 10.33 9 29.65 0 19.71-9 29.86-9.6 10.92-28.6 10.92H65.64zm0-81.16h11.81q7.8 0 10.6-1.76a16.65 16.65 0 0 0 3.6-2.73q4.4-4.48 4.4-17.76a43.29 43.29 0 0 0-1.2-11.31 15.14 15.14 0 0 0-3.5-6.64 11.44 11.44 0 0 0-5.8-3.12 37.6 37.6 0 0 0-8.1-.78H65.64z" class="cls-11" style="fill:#e7a9cc"/><path id="path56" d="M285.41 139.63a34.28 34.28 0 0 1 8.3 12.1 41.46 41.46 0 0 1 2.91 16v42.53h-19v-42.53q0-18.93-18.8-18.93h-11.83v61.46h-18.8V66.46h30.61q19 0 28.6 10.93 8.8 9.94 8.81 30.05 0 19.89-8.81 30.24c-.26.26-.57.58-.9 1a4.81 4.81 0 0 1-1.09.95zm-26.6-9.37q7.59 0 10.5-1.75a16.22 16.22 0 0 0 3.7-2.73q4.4-5.46 4.4-18.34a45.44 45.44 0 0 0-1.2-11.61 15.93 15.93 0 0 0-3.5-6.83 11.09 11.09 0 0 0-5.8-3.22 37.6 37.6 0 0 0-8.1-.78h-11.82v45.26h11.81z" class="cls-11" style="fill:#e7a9cc"/><path id="path58" d="M134.64 37.67v64.61a32.59 32.59 0 0 0 65.18 0V37.67z" class="cls-3" style="fill:#e41d34"/><path id="rect60" d="M162.34 150.98h9.78v80.19h-9.78z" style="fill:#56b947"/><path id="path62" d="M147.3 190.45s-18.1-33.31-62.31-10.86c0 0 15.24 32.59 62.31 10.86z" style="fill:#56b947;stroke:#56b947;stroke-width:9.77999973px;stroke-miterlimit:10"/><path id="polygon64" d="m760.11 540.61-8.24-5.03v8.23z" class="cls-14" style="fill:#56b947;stroke:#56b947;stroke-width:6.17999983px;stroke-miterlimit:10" transform="translate(-577.01 -361.01)"/><path id="polygon66" d="m730.13 578.84 8.24-5.04v8.24z" class="cls-14" style="fill:#56b947;stroke:#56b947;stroke-width:6.17999983px;stroke-miterlimit:10" transform="translate(-577.01 -361.01)"/><path id="line68" d="m157.81 194.07-61.92-12.31" class="cls-15" style="fill:none;stroke:#1e1e1e;stroke-width:5.42999983px;stroke-miterlimit:10"/><path id="polyline70" d="m672.27 545.12-6.25-4.61h7.61" class="cls-1" style="fill:#1e1e1e" transform="translate(-577.01 -361.01)"/><path id="path72" d="M201.26 54.3h-14.48s-28.25-4.34-28.25 25.35v29s2.18 18.83-19.55 18.83" class="cls-15" style="fill:none;stroke:#1e1e1e;stroke-width:5.42999983px;stroke-miterlimit:10"/><path id="polyline74" d="M767.41 418.94h23.89l-15.93 28.24" class="cls-3" style="fill:#e41d34" transform="translate(-577.01 -361.01)"/><path id="polyline76" d="M714.91 398.68H699.7l18.83 41.98" class="cls-3" style="fill:#e41d34" transform="translate(-577.01 -361.01)"/><path id="polyline78" d="m776.82 412.6 7.6-10.32h-22.81" class="cls-3" style="fill:#e41d34" transform="translate(-577.01 -361.01)"/><ellipse id="ellipse80" cx="167.23" cy="33.3" rx="43.81" ry="13.4" style="fill:#e41d34;stroke:#1e1e1e;stroke-width:5.42999983px;stroke-miterlimit:10"/><path id="path82" d="M193.29 35.74s-35.3-7.55-47.25 1.78c0 0-7.62 3.11 5.43 7.55" class="cls-15" style="fill:none;stroke:#1e1e1e;stroke-width:5.42999983px;stroke-miterlimit:10"/><path id="path84" d="M206.46 196.65s36-4.43 49.23 28.21" class="cls-1" style="fill:#1e1e1e"/><path id="path86" d="M186.05 220.07s13.06-24 44.9-7.83c.04 0-10.96 23.49-44.9 7.83z" style="fill:#56b947;stroke:#56b947;stroke-width:7.05000019px;stroke-miterlimit:10"/><path id="line88" d="m177.72 222.68 41.28-7.61" class="cls-15" style="fill:none;stroke:#1e1e1e;stroke-width:5.42999983px;stroke-miterlimit:10"/><path id="polyline90" d="M794.93 573.91h7.24l-6.52 5.07" class="cls-1" style="fill:#1e1e1e" transform="translate(-577.01 -361.01)"/><path id="polyline92" d="m625.01 459.49-15.4 11.77 19.02 10.87" class="cls-11" style="fill:#e7a9cc" transform="translate(-577.01 -361.01)"/><path id="polyline94" d="m625.01 526.57-15.4 11.77 19.02 10.87" class="cls-11" style="fill:#e7a9cc" transform="translate(-577.01 -361.01)"/><path id="polyline96" d="m872.27 459.49 15.39 11.77-19.02 10.87" class="cls-11" style="fill:#e7a9cc" transform="translate(-577.01 -361.01)"/><path id="polyline98" d="m872.27 526.57 15.39 11.77-19.02 10.87" class="cls-11" style="fill:#e7a9cc" transform="translate(-577.01 -361.01)"/><path id="polyline284" d="m591.5 493.24-14.49 12.68 14.49 11.78" class="cls-1" style="fill:#1e1e1e" transform="translate(-577.01 -361.01)"/><path id="polyline286" d="m910.33 493.24 14.49 12.68-14.49 11.78" class="cls-1" style="fill:#1e1e1e" transform="translate(-577.01 -361.01)"/><path id="polyline288" d="m738 638 12 12 14-13" class="cls-1" style="fill:#1e1e1e" transform="translate(-577.01 -361.01)"/></svg>