<svg xmlns="http://www.w3.org/2000/svg" id="Layer_1" width="412.122" height="380.076" data-name="Layer 1" version="1.1"><defs id="defs4"><style id="style2">.cls-4{fill:#c0c5ce}.cls-12,.cls-4,.cls-5{stroke:#5685ef}.cls-10,.cls-12,.cls-13,.cls-4,.cls-5{stroke-linecap:round;stroke-linejoin:round}.cls-4{stroke-width:14.5px}.cls-10,.cls-12,.cls-5,.cls-9{fill:#3a3a3a}.cls-5,.cls-9{stroke-width:8.76px}.cls-13{fill:none}.cls-9{stroke:#f71ef7;stroke-miterlimit:10}.cls-10{stroke:#3a3a3a;stroke-width:2.12px}.cls-11{fill:#5685ef}.cls-12,.cls-13{stroke-width:6.05px}.cls-13{stroke:#c0c5ce}</style></defs><path id="path40348" d="M105.978 139.25h132.794v23.563H124.455a18.483 23.562 0 0 1-18.483-23.563v0z" class="cls-5" style="fill:#3a3a3a;stroke:#5685ef;stroke-width:3;stroke-linecap:round;stroke-linejoin:round;stroke-miterlimit:4;stroke-dasharray:none"/><path id="path40346" d="M93.39 117.25h177.608v23.563H118.103a24.72 23.562 0 0 1-24.721-23.562z" class="cls-5" style="fill:#3a3a3a;stroke:#5685ef;stroke-width:3;stroke-linecap:butt;stroke-linejoin:round;stroke-miterlimit:4;stroke-dasharray:none"/><path id="path40344" d="M74.505 93.25h177.608v23.563H99.218A24.72 23.562 0 0 1 74.497 93.25v0z" class="cls-5" style="fill:#3a3a3a;stroke:#5685ef;stroke-width:3;stroke-linecap:round;stroke-linejoin:round;stroke-miterlimit:4;stroke-dasharray:none"/><path id="path176" d="M55.62 69.25h177.61v23.563H80.333a24.72 23.562 0 0 1-24.72-23.563v0z" class="cls-5" style="fill:#3a3a3a;stroke:#5685ef;stroke-width:3;stroke-linecap:round;stroke-linejoin:round;stroke-miterlimit:4;stroke-dasharray:none"/><path id="path174" d="M127.312 227.86h.05c1.81-46.54 7.7-94.69 21.71-139.24 9-28.74 25.95-71.36 61.57-73.39 0 0 78.69-22.8 93.48 212.59h26.37c-.25 0-8.58-53.33-9.33-57-5.78-28.32-13.1-56.52-23.67-83.46-8-20.33-17.84-40.84-32.52-57.25-28.44-31.8-74.48-28.56-104.3-1.94-29.17 26-52.09 105.39-57.56 147.06-2.29 17.45-5.34 35.12-6.75 52.66z" class="cls-4" style="fill:#c0c5ce;stroke:#5685ef;stroke-width:14.5px;stroke-linecap:round;stroke-linejoin:round"/><path id="path49387" d="M155.996 105.555c6.217-7.912 13.568-14.957 21.89-20.614 7.905-5.376 16.668-9.482 25.844-12.163 22.857-6.68 48.142-4.199 69.555 6.22 7.103 3.457 13.793 7.747 19.97 12.67 5.87 4.68 11.318 9.977 15.535 16.187.745 1.097 1.457 2.235 1.877 3.493a9.06 9.06 0 0 1 .425 3.472c-.138 2.04-.906 3.983-1.792 5.825-3.165 6.578-7.929 12.292-13.311 17.224-5.757 5.274-12.249 9.714-19.087 13.483-10.095 5.565-21.098 9.718-32.557 10.968-7.044.768-14.167.433-21.212-.328-9.981-1.078-19.928-3.029-29.268-6.711a81.405 81.405 0 0 1-21.459-12.523c-5.496-4.468-10.37-9.642-15.538-14.487-.881-.826-1.776-1.648-2.51-2.607-1.232-1.608-1.966-3.543-2.5-5.498-.386-1.416-.677-2.873-.64-4.34.05-1.922.666-3.797 1.552-5.503.886-1.705 2.038-3.257 3.226-4.768z" style="opacity:1;fill:#3a3a3a;fill-opacity:1;stroke:#5685ef;stroke-width:3;stroke-linecap:butt;stroke-linejoin:miter;stroke-miterlimit:4;stroke-dasharray:none;stroke-opacity:1"/><path id="path3785" d="M200.808 82.494c18.432-8.305 40.195-8.902 59.054-1.62.295.113.59.23.883.347" style="fill:none;stroke:#f71ef7;stroke-width:3;stroke-linecap:round;stroke-linejoin:round;stroke-miterlimit:4;stroke-dasharray:none;stroke-opacity:1"/><path id="path3793" d="M200.517 78.732a14.76 14.76 0 0 1-.116 8.16" style="fill:none;stroke:#f71ef7;stroke-width:3;stroke-linecap:round;stroke-linejoin:round;stroke-miterlimit:4;stroke-dasharray:none;stroke-opacity:1"/><path id="path3793-1" d="M208.445 76.73a14.76 14.76 0 0 1-.116 8.16" style="fill:none;stroke:#f71ef7;stroke-width:3;stroke-linecap:round;stroke-linejoin:round;stroke-miterlimit:4;stroke-dasharray:none;stroke-opacity:1"/><path id="path3793-0" d="M216.584 74.646a14.76 14.76 0 0 1-.116 8.16" style="fill:none;stroke:#f71ef7;stroke-width:3;stroke-linecap:round;stroke-linejoin:round;stroke-miterlimit:4;stroke-dasharray:none;stroke-opacity:1"/><path id="path3793-9" d="M225.711 73.546a14.76 14.76 0 0 1-.116 8.16" style="fill:none;stroke:#f71ef7;stroke-width:3;stroke-linecap:round;stroke-linejoin:round;stroke-miterlimit:4;stroke-dasharray:none;stroke-opacity:1"/><path id="path3793-6" d="M234.199 73.43a14.76 14.76 0 0 1-.116 8.161" style="fill:none;stroke:#f71ef7;stroke-width:3;stroke-linecap:round;stroke-linejoin:round;stroke-miterlimit:4;stroke-dasharray:none;stroke-opacity:1"/><path id="path3793-4" d="M243.326 74.067a14.76 14.76 0 0 1-.116 8.16" style="fill:none;stroke:#f71ef7;stroke-width:3;stroke-linecap:round;stroke-linejoin:round;stroke-miterlimit:4;stroke-dasharray:none;stroke-opacity:1"/><path id="path3793-8" d="M251.698 74.935a14.76 14.76 0 0 1-.117 8.16" style="fill:none;stroke:#f71ef7;stroke-width:3;stroke-linecap:round;stroke-linejoin:round;stroke-miterlimit:4;stroke-dasharray:none;stroke-opacity:1"/><path id="path3793-3" d="M260.302 77.424a14.76 14.76 0 0 1-.117 8.16" style="fill:none;stroke:#f71ef7;stroke-width:3;stroke-linecap:round;stroke-linejoin:round;stroke-miterlimit:4;stroke-dasharray:none;stroke-opacity:1"/><path id="path4053" d="M150.817 115.502c21.996 15.472 48.581 24.331 75.461 25.148 26.88.817 53.954-6.413 76.849-20.52a138.486 138.486 0 0 0 7.954-5.29" style="fill:none;stroke:#f71ef7;stroke-width:2.6;stroke-linecap:butt;stroke-linejoin:miter;stroke-miterlimit:4;stroke-dasharray:none;stroke-opacity:1"/><path id="line216" d="M66.07 69.25H49.132" class="cls-5" style="fill:#3a3a3a;stroke:#5685ef;stroke-width:3;stroke-linecap:round;stroke-linejoin:round;stroke-miterlimit:4;stroke-dasharray:none"/><path id="path220" d="M116.562 263.06v-.16h-23.77v64.77h8.95V310.9h10.57c7.25 0 11-1.94 11.14-2 7.81-3.81 12.28-11.68 12.28-21.6 0-13.89-7.48-23.3-19.17-24.24zm9.95 23.62c0 6.94-3.81 14.65-12.2 15.18h-12.57v-29.92h13.41c9.91 1.32 11.36 9.79 11.36 14.74z" class="cls-10" style="fill:#3a3a3a;stroke:#3a3a3a;stroke-width:2.11999989px;stroke-linecap:round;stroke-linejoin:round"/><path id="rect222" d="M157.432 262.99h9.22v64.68h-9.22z" class="cls-10" style="fill:#3a3a3a;stroke:#3a3a3a;stroke-width:2.11999989px;stroke-linecap:round;stroke-linejoin:round"/><path id="path224" d="M221.952 308.9c7.81-3.81 12.28-11.69 12.28-21.6 0-13.89-7.47-23.26-19.17-24.24v-.16h-23.77v64.77h8.95V310.9h12l11.82 16.5h11.07l-13.22-18.48zm3.24-22.22c0 9.89-6.41 14.8-12.38 15.18h-12.57v-29.92h13.41c10.41 1.39 11.54 10.76 11.54 14.74z" class="cls-10" style="fill:#3a3a3a;stroke:#3a3a3a;stroke-width:2.11999989px;stroke-linecap:round;stroke-linejoin:round"/><path id="rect226" d="M255.952 262.99h9.22v64.68h-9.22z" class="cls-10" style="fill:#3a3a3a;stroke:#3a3a3a;stroke-width:2.11999989px;stroke-linecap:round;stroke-linejoin:round"/><path id="polygon228" d="M592.53 504.67h9.21v-56.44h18.73v-8.33H574.6v8.33h17.93z" class="cls-10" style="fill:#3a3a3a;stroke:#3a3a3a;stroke-width:2.11999989px;stroke-linecap:round;stroke-linejoin:round" transform="translate(-289.938 -177)"/><path id="path230" d="M43.592 277.47c-7.4-.42-13-2.62-16.31-6.37-2.48-2.84-3.55-6.49-3.2-10.92.22-7.84 8.84-13.32 21-13.32 6.38 0 15.17 4.67 17.62 8.34l.44.66 11.77-3.67-.75-1.17c-5.49-8.57-16.1-14.2-28.4-15.08-10.18-.51-19.72 2.71-26.14 8.82a22.45 22.45 0 0 0-7.35 16.24 24.57 24.57 0 0 0 8.87 19.37c5.27 4.46 12.73 7.24 21 7.85a4 4 0 0 0 1.24.14c11.12 0 19.83 6.5 19.83 14.8 0 7.18-6.94 14.42-22.47 14.42-8.85 0-17.67-6.6-19.63-12.49l-.31-.91-11.51 2.61.37 1.11c3.79 11.51 16.26 19.85 31 20.73.9 0 1.79.08 2.67.08 9.87 0 18.76-3.12 24.67-8.71a22 22 0 0 0 7.13-16.34c.04-14.6-12.65-25.14-31.54-26.19z" class="cls-10" style="fill:#3a3a3a;stroke:#3a3a3a;stroke-width:2.11999989px;stroke-linecap:round;stroke-linejoin:round"/><path id="path232" d="M379.442 277.47c-7.4-.42-13-2.62-16.31-6.37-2.48-2.84-3.55-6.49-3.2-10.92.22-7.84 8.84-13.32 21-13.32 6.38 0 15.17 4.67 17.62 8.34l.44.66 11.77-3.67-.75-1.17c-5.49-8.57-16.1-14.2-28.4-15.08-10.19-.51-19.72 2.71-26.14 8.82a22.45 22.45 0 0 0-7.35 16.24 24.57 24.57 0 0 0 8.87 19.37c5.27 4.46 12.73 7.24 21 7.85a4 4 0 0 0 1.24.14c11.12 0 19.83 6.5 19.83 14.8 0 7.18-6.94 14.42-22.47 14.42-8.85 0-17.67-6.6-19.63-12.49l-.31-.91-11.51 2.61.37 1.11c3.79 11.51 16.26 19.85 31 20.73.9 0 1.79.08 2.67.08 9.87 0 18.76-3.12 24.67-8.71a22 22 0 0 0 7.21-16.31c0-14.63-12.73-25.17-31.62-26.22z" class="cls-10" style="fill:#3a3a3a;stroke:#3a3a3a;stroke-width:2.11999989px;stroke-linecap:round;stroke-linejoin:round"/><path id="path234" d="M113.412 378.41v-7.66c1.55 1.55 3.38 2.83 5.66 2.83a3.52 3.52 0 0 0 3.83-3.55c0-7-14.49-8.33-14.49-19.1 0-7.33 6.11-11.43 12.94-11.43 6 0 12.21 3.83 12.21 10.38a8.4 8.4 0 0 1-5.22 7.77l-4.5-4.17c1.45-.66 2.72-1.6 2.72-3.38 0-2.94-2.49-4.44-5.21-4.44-3 0-6.06 2.05-6.06 5.27 0 6.5 14.38 8.77 14.38 19.1 0 6.33-4.49 10-10.6 10a9.35 9.35 0 0 1-5.66-1.62z" class="cls-11" style="fill:#5685ef"/><path id="path236" d="M139.612 372.14v-7.77h-5.22v-6h5.22v-9.93h6.32v9.93h5.39v6h-5.39v6.88c0 1.66.73 3.22 2.56 3.22a5.72 5.72 0 0 0 2.83-1v5.11a6.61 6.61 0 0 1-4.26 1.42c-5 0-7.45-3.09-7.45-7.86z" class="cls-11" style="fill:#5685ef"/><path id="path238" d="M157.922 375.69a4.36 4.36 0 1 1 4.39 4.33 4.36 4.36 0 0 1-4.39-4.33z" class="cls-11" style="fill:#5685ef"/><path id="path240" d="M207.062 379.52h-21.33v-6.16c3.89 0 6.05-2.17 6.05-5.61V352.1c0-7.39 5.27-12.6 12.66-12.6 7.39 0 12.77 4.44 12.77 12.15 0 3.28-2.39 7.83-5.22 9.5l-5-4.28a5.78 5.78 0 0 0 3.28-5.22 5.56 5.56 0 0 0-5.83-5.66c-3.22 0-5.67 3-5.67 6.11v16a6.88 6.88 0 0 1-2.66 5.39h10.49c4.11 0 6.55-.61 9.72-3.28l3.66 4.67c-3.77 4.2-7.55 4.64-12.92 4.64z" class="cls-11" style="fill:#5685ef"/><path id="path242" d="M244.292 369a11 11 0 1 1-11.05-11.1 11.07 11.07 0 0 1 11.05 11.1zm-5.33 0v-.28a4.31 4.31 0 0 1-6.44-3.77 4 4 0 0 1 .34-1.67 5.71 5.71 0 0 0 .38 11.38 5.69 5.69 0 0 0 5.72-5.66z" class="cls-11" style="fill:#5685ef"/><path id="path244" d="M274.062 373.52v5.11a8.15 8.15 0 0 1-4.78 1.39 6.13 6.13 0 0 1-5.44-3.66 6.41 6.41 0 0 1-6.1 3.71 7.5 7.5 0 0 1-7.39-7.77v-13.88h6.33v13.22c0 1.66.89 3.11 2.72 3.11 2.11 0 3.39-1.73 3.78-3.89v-12.44h6.33v14a2 2 0 0 0 2.22 2 3.68 3.68 0 0 0 2.33-.9z" class="cls-11" style="fill:#5685ef"/><path id="path246" d="M276.762 349.71a4.36 4.36 0 1 1 4.39 4.39 4.4 4.4 0 0 1-4.39-4.39zm7.3 30.29c-3.66 0-6.05-3.33-6.05-6.77v-14.81h6.27v14a2 2 0 0 0 2.22 2 3.47 3.47 0 0 0 2.34-.89v5.11a8.17 8.17 0 0 1-4.78 1.36z" class="cls-11" style="fill:#5685ef"/><path id="path248" d="M291.472 379v-5.88a5.18 5.18 0 0 0 2.94 1.5 1.84 1.84 0 0 0 2-1.89c0-2.22-3.5-4.77-3.5-7.88a7.19 7.19 0 0 1 4.55-7l3.56 4.33a2.85 2.85 0 0 0-1.84 2.67c0 2.05 3.5 4.5 3.5 8.55 0 3.72-2.5 6.66-6.27 6.66a10.67 10.67 0 0 1-4.94-1.06z" class="cls-11" style="fill:#5685ef"/><path id="path250" d="M31.402 355s4.28 4.7 10.33 0a11.76 11.76 0 0 1 4.58-2.35c4.19-.94 6.19 2.4 9.21 4.45 3.02 2.05 6.57 1.3 9.32-.84 0 0 6.5-5.74 11.34 0" class="cls-12" style="fill:#3a3a3a;stroke:#5685ef;stroke-width:6.05000019px;stroke-linecap:round;stroke-linejoin:round"/><path id="path252" d="M55.522 373.17c3 2 6.57 1.3 9.32-.83 0 0 6.5-5.74 11.34 0" class="cls-13" style="fill:none;stroke:#c0c5ce;stroke-width:6.05000019px;stroke-linecap:round;stroke-linejoin:round"/><path id="path254" d="M379.472 355s-4.28 4.7-10.32 0a11.76 11.76 0 0 0-4.58-2.35c-4.2-.94-6.19 2.4-9.22 4.45-3.03 2.05-6.56 1.3-9.31-.84 0 0-6.51-5.74-11.34 0" class="cls-12" style="fill:#3a3a3a;stroke:#5685ef;stroke-width:6.05000019px;stroke-linecap:round;stroke-linejoin:round"/><path id="path256" d="M355.352 373.17c-3 2-6.56 1.3-9.31-.83 0 0-6.51-5.74-11.34 0" class="cls-13" style="fill:none;stroke:#c0c5ce;stroke-width:6.05000019px;stroke-linecap:round;stroke-linejoin:round"/><path id="path928" d="M155.996 105.555c6.217-7.912 13.568-14.957 21.89-20.614 7.905-5.376 16.668-9.482 25.844-12.163 22.857-6.68 48.142-4.199 69.555 6.22 7.103 3.457 13.793 7.747 19.97 12.67 5.87 4.68 11.318 9.977 15.535 16.187.745 1.097 1.457 2.235 1.877 3.493a9.06 9.06 0 0 1 .425 3.472c-.138 2.04-.906 3.983-1.792 5.825-3.165 6.578-7.929 12.292-13.311 17.224-5.757 5.274-12.249 9.714-19.087 13.483-10.095 5.565-21.098 9.718-32.557 10.968-7.044.768-14.167.433-21.212-.328-9.981-1.078-19.928-3.029-29.268-6.711a81.405 81.405 0 0 1-21.459-12.523c-5.496-4.468-10.37-9.642-15.538-14.487-.881-.826-1.776-1.648-2.51-2.607-1.232-1.608-1.966-3.543-2.5-5.498-.386-1.416-.677-2.873-.64-4.34.05-1.922.666-3.797 1.552-5.503.886-1.705 2.038-3.257 3.226-4.768z" style="opacity:1;fill:#000;fill-opacity:0;stroke:#5685ef;stroke-width:3;stroke-linecap:butt;stroke-linejoin:miter;stroke-miterlimit:4;stroke-dasharray:none;stroke-opacity:1"/><path id="line212" d="M153.023 117.04h-47.991" class="cls-9" style="fill:#3a3a3a;stroke:#f71ef7;stroke-width:3.39999;stroke-miterlimit:10;stroke-dasharray:none"/><path id="path57995" d="M148.278 140.678h-37.431" class="cls-9" style="fill:#3a3a3a;stroke:#f71ef7;stroke-width:3;stroke-miterlimit:10;stroke-dasharray:none"/><path id="path57997" d="M159.623 93.026h-63.81" class="cls-9" style="fill:#3a3a3a;stroke:#f71ef7;stroke-width:3.39999;stroke-miterlimit:10;stroke-dasharray:none"/><path id="path218" d="M217.132 7.32c-20-.88-40.55 6.67-56.46 20.87-29.17 26-52.09 105.39-57.56 147.06-2.29 17.45-5.34 35.12-6.75 52.66l30.95-.05h.05c1.81-46.54 7.7-94.69 21.71-139.24 9-28.74 25.95-71.36 61.57-73.39a23.34 23.34 0 0 1 6.49-.59z" class="cls-4" style="fill:#c0c5ce;stroke:#5685ef;stroke-width:14.5px;stroke-linecap:round;stroke-linejoin:round"/></svg>