<svg xmlns="http://www.w3.org/2000/svg" id="Layer_1" width="292.2" height="300.284" data-name="Layer 1" version="1.1"><defs id="defs4"><clipPath id="clipPath27597" clipPathUnits="userSpaceOnUse"><path id="path27599" d="m177.672 203.113-.998.065.597 9.13.999-.066zm-3.158.461-.98.2 1.89 9.257.978-.199zm-3.202.649-.976.213 2.068 9.423.977-.213zm-3.738.59-.957.292 2.858 9.293.957-.293zm-16.008.103-2.027 7.674.969.254 2.025-7.674zm13.15.39-.986.16 1.512 9.29.987-.16zm-9.1.07-2.38 8.065.96.284 2.378-8.065zm2.796.13-1.285 8.558.988.149 1.285-8.559zm2.692.078-.07 8.934 1 .008.07-8.934z" style="color:#000;fill:#000;-inkscape-stroke:none"/></clipPath><clipPath id="clipPath28297" clipPathUnits="userSpaceOnUse"><path id="path28299" d="M176.654 203.14c-.725.07-1.443.205-2.162.319-.163.075-.016.27-.017.4.602 2.914 1.182 5.834 1.79 8.746.107.141.3.008.434-.015.217-.087.463-.129.656-.258.001-.427-.055-.86-.074-1.289-.174-2.6-.33-5.203-.517-7.803a.114.114 0 0 0-.11-.1zm-3.162.52c-.72.159-1.445.299-2.162.469-.153.081-.029.279-.027.408.546 2.621 1.131 5.236 1.71 7.85.092.351.14.718.272 1.056.12.1.282-.029.418-.033.576-.137 1.157-.264 1.723-.44.115-.122-.016-.3-.016-.447-.591-2.932-1.191-5.865-1.789-8.794a.131.131 0 0 0-.129-.069zm-3.185.69c-.778.113-1.547.28-2.323.408-.143.04-.31.031-.435.117-.048.168.078.336.105.504.88 2.868 1.753 5.74 2.647 8.603.092.146.287.019.422.02.55-.104 1.104-.192 1.648-.32.12-.118-.009-.295-.014-.438a950.193 950.193 0 0 0-1.94-8.824c-.026-.042-.056-.078-.11-.07zm-3.715.638c-.628.082-1.256.174-1.883.262-.148.102-.013.307-.02.453.465 2.886.935 5.772 1.407 8.656.088.132.277.052.408.07.944-.046 1.89-.1 2.828-.224.157-.01.129-.191.078-.293a1150.29 1150.29 0 0 0-2.713-8.86c-.028-.033-.056-.07-.105-.064zm-14.084.182c-.157.045-.124.262-.184.385-.633 2.378-1.267 4.757-1.873 7.142.025.176.26.136.385.194.793.178 1.586.362 2.387.502.188-.05.173-.3.242-.446.716-2.42 1.43-4.841 2.133-7.265.012-.184-.23-.156-.352-.18-.91-.075-1.811-.209-2.713-.332a.24.24 0 0 0-.025 0zm11.187.203v.002c-.534.036-1.067.08-1.6.143-.161.079-.057.305-.087.45-.015 2.779-.051 5.557-.06 8.335.05.169.27.083.4.117.915.03 1.83.045 2.746.023.141.01.197-.142.144-.257a1221.82 1221.82 0 0 0-1.425-8.735c-.025-.047-.06-.086-.118-.078zm-2.65.217c-.022 0-.044 0-.064.002-.528.024-1.054.038-1.58.062-.183.034-.11.277-.159.407-.392 2.649-.8 5.296-1.183 7.947.04.18.277.1.412.142.85.078 1.703.164 2.556.202.168-.042.074-.265.102-.387.024-2.758.047-5.516.059-8.274-.01-.084-.076-.1-.143-.101zm-4.455.039c-.172.016-.148.245-.21.365-.739 2.492-1.48 4.983-2.193 7.483.018.18.252.126.377.171.84.131 1.681.252 2.524.35.202-.006.172-.26.205-.398.393-2.603.786-5.206 1.16-7.81-.038-.184-.274-.092-.406-.124-.486-.016-.97-.034-1.457-.037z" style="font-variation-settings:normal;opacity:1;vector-effect:none;fill:#f9f9f9;fill-opacity:1;stroke:none;stroke-width:.224716;stroke-linecap:butt;stroke-linejoin:miter;stroke-miterlimit:4;stroke-dasharray:none;stroke-dashoffset:0;stroke-opacity:1;-inkscape-stroke:none;stop-color:#000;stop-opacity:1"/></clipPath><clipPath id="clipPath44226" clipPathUnits="userSpaceOnUse"><path id="path44228" d="m82.932 138.264-1.274 5.517.975.225 1.273-5.518zm2.322 2.302-1.604 5.131.955.297 1.604-5.129zm2.328 2.684-2.494 5.166.9.434 2.494-5.166zm2.629 2.123-3.135 4.951.844.535 3.137-4.95zm2.135 2.281-2.457 5.807.92.39 2.459-5.806zm2.172 2.57-2.067 5.061.926.377 2.066-5.058zm2.7 2.913-3.476 3.93.748.662 3.477-3.93z" style="color:#000;fill:#000;-inkscape-stroke:none"/></clipPath><clipPath id="clipPath44747" clipPathUnits="userSpaceOnUse"><path id="path44749" d="M82.152 138.387c-1.134.05-2.064 1.208-1.894 2.33.045.57.404 1.037.785 1.435.253.265.484.561.773.787.217.033.157-.286.223-.416.292-1.318.637-2.626.879-3.955.009-.222-.293-.159-.436-.181a5.413 5.413 0 0 0-.22 0c-.037-.001-.073-.002-.11 0zm1.643.634a.192.192 0 0 0-.049.006c-.146.161-.118.42-.195.618-.326 1.374-.64 2.752-.96 4.129.072.228.322.368.462.562.252.243.453.55.746.744.23.039.194-.296.273-.431l1.242-3.973c-.05-.224-.303-.356-.433-.543-.354-.358-.664-.763-1.04-1.098a.094.094 0 0 0-.046-.013zm2.219 2.395c-.023.003-.045.022-.069.027-.486 1.464-.926 2.95-1.394 4.422.059.238.306.39.449.586.22.233.428.48.664.697.208.048.216-.26.316-.379.572-1.166 1.129-2.339 1.7-3.505.001-.206-.254-.314-.356-.479-.425-.448-.827-.927-1.267-1.353a.048.048 0 0 0-.043-.016zm2.31 2.547c-.014 0-.029.005-.043.006-.211.267-.312.617-.48.916-.478.986-.952 1.974-1.428 2.96-.001.207.255.313.357.477.325.319.595.703.965.97.205.051.251-.248.366-.358.657-1.036 1.327-2.065 1.955-3.12-.016-.21-.252-.335-.364-.503-.424-.45-.826-.929-1.289-1.338a.057.057 0 0 0-.039-.01zm2.346 2.516a.093.093 0 0 0-.065.021 114.167 114.167 0 0 0-2.226 3.475c-.022.195.214.312.309.464.572.603 1.085 1.242 1.636 1.86.211.106.22-.239.305-.356.522-1.246 1.068-2.487 1.572-3.74-.047-.265-.313-.429-.465-.637-.331-.357-.657-.721-1-1.068a.22.22 0 0 0-.066-.02zm2.225 2.433c-.021-.002-.042.01-.063.014-.218.347-.336.76-.516 1.133-.413.994-.861 1.977-1.244 2.982.049.24.3.383.438.574.372.387.717.806 1.113 1.166.197.023.195-.254.28-.375.525-1.264 1.038-2.535 1.556-3.802-.02-.211-.27-.327-.383-.499-.386-.394-.729-.84-1.16-1.185a.063.063 0 0 0-.021-.008zm2.23 2.426c-.015 0-.03.005-.045.008-.193.275-.272.627-.42.932-.44 1.066-.872 2.136-1.308 3.205.024.208.263.328.382.494.193.164.34.422.58.513.233-.136.376-.4.573-.584.725-.824 1.475-1.637 2.176-2.476.001-.185-.24-.294-.334-.447-.522-.543-.998-1.136-1.561-1.635a.067.067 0 0 0-.043-.01z" style="font-variation-settings:normal;opacity:1;vector-effect:none;fill:#a0a0a0;fill-opacity:1;stroke:none;stroke-width:.224716;stroke-linecap:butt;stroke-linejoin:miter;stroke-miterlimit:4;stroke-dasharray:none;stroke-dashoffset:0;stroke-opacity:1;-inkscape-stroke:none;stop-color:#000;stop-opacity:1"/></clipPath><style id="style2">.cls-1{fill:#f15d24}.cls-2{fill:#5e4c9b}.cls-3{fill:#f2ea1e}.cls-4{fill:#231f20}.cls-5{fill:#d08f2a}.cls-6{fill:#f6dd93}.cls-7{fill:#fff}</style></defs><g id="SlHar6" transform="translate(-104.42 -286.276)"><path id="path6" d="M150.51 369.93a31.64 31.64 0 0 1-3.84-2.66c-1.6-1.15-1.59-1.18-3.19 0-1.29.91-2.57 1.85-3.89 2.81-.17-.33 0-.57.08-.8.53-1.65 1.06-3.3 1.63-4.94a.88.88 0 0 0-.37-1.17c-1.48-1-2.92-2.13-4.38-3.2-.13-.1-.25-.22-.53-.47h2.33c1.32 0 2.65 0 4-.07a.7.7 0 0 0 .75-.59c.61-2 1.26-3.89 2-6 .55 1.66 1.07 3.13 1.52 4.62.61 2 .59 2.05 2.75 2.05h4.84l-2.44 1.79c-.89.66-1.76 1.33-2.66 2a.72.72 0 0 0-.3 1c.57 1.67 1.1 3.34 1.63 5 .07.23.11.47.16.71z" class="cls-1" style="fill:#f15d24"/><path id="path8" d="m150.53 369.91.06.08-.08-.06z" class="cls-1" style="fill:#f15d24"/></g><circle id="circle179" cx="-117.008" cy="177.274" r="142.45" class="cls-4" style="fill:#231f20" transform="rotate(-76.72)"/><path id="path181" d="M145.66 300.284C65.34 300.284 0 234.944 0 154.624S65.34 8.964 145.66 8.964s145.66 65.34 145.66 145.66-65.35 145.66-145.66 145.66zm0-284.91c-76.79 0-139.25 62.47-139.25 139.25s62.46 139.25 139.25 139.25c76.79 0 139.25-62.47 139.25-139.25s-62.47-139.25-139.25-139.25z" class="cls-6" style="fill:#f6dd93"/><path id="path183" d="M145.66 241.494a86.87 86.87 0 1 1 86.92-86.87 87 87 0 0 1-86.92 86.87z" class="cls-2" style="fill:#5e4c9b"/><path id="path185" d="M145.66 244.584a90 90 0 1 1 90-90 90.05 90.05 0 0 1-90 90zm0-173.74a83.79 83.79 0 1 0 83.78 83.78 83.88 83.88 0 0 0-83.78-83.78z" class="cls-2" style="fill:#5e4c9b"/><path id="path187" d="m102.42 105.644-13.17.82s-7 1.65-7 10.3v12.76" class="cls-6" style="fill:#f6dd93"/><path id="path189" d="M82.25 132.724a3.2 3.2 0 0 1-3.2-3.2v-12.8c0-8.85 6.19-12.65 9.47-13.42a3.07 3.07 0 0 1 .53-.07l13.17-.83a3.21 3.21 0 1 1 .4 6.4l-12.82.8c-.92.31-4.35 1.82-4.35 7.12v12.8a3.2 3.2 0 0 1-3.2 3.2z" class="cls-6" style="fill:#f6dd93"/><path id="path191" d="m83.15 132.974-10.57 7.88s-5 5.2-.25 12.45l7 10.69" class="cls-6" style="fill:#f6dd93"/><path id="path193" d="M79.28 167.204a3.21 3.21 0 0 1-2.7-1.48l-7-10.7c-4.82-7.41-1.7-14 .62-16.4a3.52 3.52 0 0 1 .41-.36l10.59-7.88a3.202 3.202 0 0 1 3.82 5.14l-10.31 7.67c-.6.76-2.65 3.9.24 8.34l7 10.69a3.22 3.22 0 0 1-.94 4.44 3.18 3.18 0 0 1-1.73.54z" class="cls-6" style="fill:#f6dd93"/><path id="path195" d="m80.99 164.264-6.93 11.23s-2.69 6.67 4.37 11.66l10.42 7.36" class="cls-6" style="fill:#f6dd93"/><path id="path197" d="M88.85 197.724a3.18 3.18 0 0 1-1.85-.59l-10.42-7.36c-7.23-5.11-6.75-12.36-5.49-15.48a4.3 4.3 0 0 1 .24-.48l6.93-11.23a3.21 3.21 0 1 1 5.46 3.36l-6.75 10.94c-.28.92-1 4.6 3.3 7.65l10.43 7.37a3.2 3.2 0 0 1-1.85 5.82z" class="cls-6" style="fill:#f6dd93"/><path id="path199" d="m89.39 195.194 2.06 13s2.3 6.81 10.91 6l12.7-1.2" class="cls-6" style="fill:#f6dd93"/><path id="path201" d="M100.98 217.504a13 13 0 0 1-12.57-8.25 3 3 0 0 1-.12-.52l-2.07-13a3.204 3.204 0 0 1 6.33-1l2 12.7c.39.88 2.21 4.15 7.49 3.65l12.71-1.2a3.204 3.204 0 1 1 .6 6.38l-12.7 1.2c-.57.01-1.13.04-1.67.04z" class="cls-6" style="fill:#f6dd93"/><path id="path203" d="m116.75 215.084 6.49 11.5s4.54 5.57 12.32 1.8l11.48-5.58" class="cls-6" style="fill:#f6dd93"/><path id="path205" d="M130.32 232.884a12.66 12.66 0 0 1-9.56-4.28 2.77 2.77 0 0 1-.31-.45l-6.49-11.49a3.204 3.204 0 0 1 5.58-3.15l6.32 11.21c.68.68 3.53 3.11 8.3.79l11.48-5.57a3.202 3.202 0 0 1 2.8 5.76l-11.48 5.58a15.17 15.17 0 0 1-6.64 1.6z" class="cls-6" style="fill:#f6dd93"/><path id="path207" d="m152.93 221.464 11.7 6.12s6.84 2.21 11.31-5.18l6.64-10.92" class="cls-6" style="fill:#f6dd93"/><path id="path209" d="M166.95 231.104a11.24 11.24 0 0 1-3.31-.47 4.4 4.4 0 0 1-.5-.21l-11.7-6.12a3.212 3.212 0 0 1 3-5.68l11.39 6c.94.21 4.66.69 7.4-3.84l6.61-10.92a3.204 3.204 0 1 1 5.48 3.32l-6.61 10.92c-3.38 5.5-8.13 7-11.76 7z" class="cls-6" style="fill:#f6dd93"/><path id="path211" d="m185.74 209.564 13.19-.43s7-1.44 7.3-10.08l.38-12.76" class="cls-6" style="fill:#f6dd93"/><path id="path213" d="M185.73 212.774a3.21 3.21 0 0 1-.1-6.41l12.85-.42c.92-.28 4.39-1.69 4.55-7l.38-12.76a3.201 3.201 0 1 1 6.4.19l-.38 12.75c-.26 8.85-6.56 12.46-9.86 13.13a2.39 2.39 0 0 1-.53.06l-13.2.44z" class="cls-6" style="fill:#f6dd93"/><circle id="circle215" cx="145.66" cy="154.624" r="68.35" class="cls-6" style="fill:#f6dd93"/><path id="path217" d="M145.66 226.174a71.55 71.55 0 1 1 71.55-71.55 71.63 71.63 0 0 1-71.55 71.55zm0-136.69a65.14 65.14 0 1 0 65.14 65.14 65.21 65.21 0 0 0-65.14-65.14z" class="cls-6" style="fill:#f6dd93"/><path id="path227" d="M145.66 226.174a71.55 71.55 0 1 1 71.55-71.55 71.63 71.63 0 0 1-71.55 71.55zm0-136.69a65.14 65.14 0 1 0 65.14 65.14 65.21 65.21 0 0 0-65.14-65.14z" class="cls-6" style="fill:#f6dd93"/><path id="path229" d="M130.29 236.304c-5.45 0-10.44-2.41-13.08-6.44a23.09 23.09 0 0 1-2.15-4.56c-.67-1.78-1.25-3.32-2.28-4.22-1.63-1.42-4.11-1.22-8-.72-3.28.41-7 .89-10.48-.45-4.56-1.76-7.79-6.21-9.62-13.24l-.54-2.18c-.88-3.67-1.72-7.13-3.86-9.49a22.74 22.74 0 0 0-4.3-3.35c-3-2-6.32-4.21-7.71-8.22-1.51-4.38.11-8.5 1.54-12.13 1-2.63 2-5.11 1.71-7.31-.29-2.2-1.77-4.21-3.35-6.42-2.17-3-4.63-6.47-4.42-10.88.25-5.27 4.2-9 7.37-12l.34-.31c3.63-3.41 4.34-6.38 4.49-11.36v-3.09c-.07-4.49-.14-9.58 3.13-13.92 4.69-6.24 13.2-6.81 20-7.27 1.5-.1 2.91-.19 4.19-.34l.7 6.14c-1.42.16-2.91.26-4.48.36-5.87.4-12.53.84-15.52 4.82-2 2.65-1.94 6.28-1.89 10.12v3.36c-.18 6.12-1.32 10.88-6.43 15.68l-.34.32c-2.61 2.44-5.3 5-5.43 7.73-.11 2.27 1.46 4.46 3.27 7s4 5.56 4.46 9.22c.46 3.66-.88 7.27-2.1 10.36-1.22 3.09-2.21 5.64-1.44 7.86.71 2 2.83 3.46 5.29 5.1a27.54 27.54 0 0 1 5.46 4.35c3.19 3.52 4.3 8.12 5.29 12.17.17.7.33 1.4.51 2.09 1.3 5 3.27 8 5.86 9 2 .79 4.67.45 7.47.09 4.23-.54 9-1.15 12.86 2.21 2.18 1.91 3.14 4.44 4 6.67a18.9 18.9 0 0 0 1.53 3.37c1.94 2.94 6 3.91 9.25 3.57 4.05-.44 7.87-2.52 11.38-4.7l.28-.17a17.86 17.86 0 0 1 6.14-2.78c4.57-.86 8.54 1.32 12 3.24 2.85 1.57 5.55 3.05 7.94 2.58 2.58-.51 4.36-3.08 6.42-6.06a28.28 28.28 0 0 1 5.75-6.69c3.63-2.8 8.11-3.6 12-4.13l1-.13c3.26-.43 6.33-.84 8.85-2.19 2.52-1.35 2.95-2.81 3.9-6.31.14-.52.28-1 .44-1.59l5.93 1.71c-.15.51-.28 1-.41 1.49-1 3.68-2 7.49-6.93 10.13-3.52 1.9-7.31 2.4-11 2.88l-.94.13c-3.11.42-6.64 1-9.07 2.9a23.27 23.27 0 0 0-4.44 5.31c-2.47 3.57-5.27 7.61-10.31 8.61-4.59.9-8.58-1.29-12.11-3.22-2.84-1.56-5.53-3-7.92-2.59a13.36 13.36 0 0 0-4 2l-.28.18c-3.94 2.44-8.68 5-14 5.59a19.11 19.11 0 0 1-1.92.12z" class="cls-5" style="fill:#d08f2a"/><path id="path231" d="M91.24 244.724c.09-.23.23-.28.45-.16l2 1.17a.35.35 0 0 1 .16.5l-1.2 2.55 1.4.79 1.57-2.34a.37.37 0 0 1 .52-.12l2.06 1.17c.21.12.24.27.09.47l-10.31 14.23a.39.39 0 0 1-.55.12l-3-1.7a.38.38 0 0 1-.18-.52zm.21 6.7-3.05 6.37.18.1 3.91-5.88z" class="cls-7" style="fill:#fff"/><path id="path233" d="m53.88 235.724 1.7-1.58a.32.32 0 0 1 .51 0l1.26 1.35 10.84-10.06a.31.31 0 0 1 .51 0l1.58 1.69a.37.37 0 0 1 .09.25.33.33 0 0 1-.11.27l-10.84 10.08 1.24 1.34a.32.32 0 0 1 0 .51l-1.7 1.57a.32.32 0 0 1-.51 0l-4.57-4.92a.32.32 0 0 1 0-.5z" class="cls-7" style="fill:#fff"/><path id="path235" d="m47.19 196.834 2.1-1a.31.31 0 0 1 .48.17l1.48 3.19 1 2.1a.32.32 0 0 1-.18.48l-15.85 7.36a.32.32 0 0 1-.48-.18l-1-2.1a.31.31 0 0 1 .17-.48l13.42-6.23-1.36-2.93a.32.32 0 0 1 .22-.38z" class="cls-7" style="fill:#fff"/><path id="path237" d="M41.17 163.124a.27.27 0 0 1 .4.26l.29 2.35a.37.37 0 0 1-.32.43l-2.76.55.2 1.6 2.81-.14a.37.37 0 0 1 .41.35l.29 2.34c0 .24-.08.36-.32.36l-17.58.21a.38.38 0 0 1-.41-.37l-.42-3.41a.37.37 0 0 1 .31-.45zm-5.25 4.16-6.94 1.35v.21l7-.38z" class="cls-7" style="fill:#fff"/><path id="path239" d="m26.74 125.374 17.12 3.51a.32.32 0 0 1 .28.43l-.33 1.63a.5.5 0 0 1-.16.27.61.61 0 0 1-.27.15l-9 1 8.41 1.72a.32.32 0 0 1 .28.43l-.49 2.21a.32.32 0 0 1-.43.28l-17.12-3.51a.32.32 0 0 1-.28-.43l.34-1.68a.54.54 0 0 1 .16-.27.61.61 0 0 1 .27-.15l8.72-1-8.15-1.67a.32.32 0 0 1-.28-.43l.46-2.27a.33.33 0 0 1 .47-.22z" class="cls-7" style="fill:#fff"/><path id="path241" d="m41.81 89.234 2 1.16a.32.32 0 0 1 .14.49l-.92 1.6 12.81 7.39a.33.33 0 0 1 .14.5l-1.16 2a.32.32 0 0 1-.21.16.33.33 0 0 1-.29 0l-12.81-7.39-.93 1.58a.32.32 0 0 1-.5.13l-2-1.16a.31.31 0 0 1-.14-.49l3.35-5.81a.32.32 0 0 1 .52-.16z" class="cls-7" style="fill:#fff"/><path id="path243" d="M78.5 72.994a.28.28 0 0 1 0 .48l-1.74 1.6a.36.36 0 0 1-.53 0l-2-1.93-1.19 1.09 1.74 2.21a.37.37 0 0 1 0 .53l-1.75 1.6a.27.27 0 0 1-.47-.06l-10.36-14.2a.38.38 0 0 1 .06-.55l2.53-2.32a.39.39 0 0 1 .56 0zm-6.43-1.87-5.12-4.86-.16.14 4.4 5.53z" class="cls-7" style="fill:#fff"/><path id="path245" d="M145.25 271.984a118.63 118.63 0 0 1-13.08-.73l.68-6.13a113.8 113.8 0 0 0 12.4.68 110.54 110.54 0 0 0 102.88-69.32l5.72 2.32a116.7 116.7 0 0 1-108.6 73.18z" class="cls-7" style="fill:#fff"/><path id="path247" d="M288.87 152.804v45.28h-68.58c-34.95-2.64-40.88-33-40.88-33-78.47 0-77.81-58-77.81-58v-39.59c3.3-54.07 39.56-56 39.56-56h27.67s46.84-5.28 50.79 35.61h20.45c45.5-.66 48.8 34.28 48.8 34.28v71.47z" class="cls-5" style="fill:#d08f2a"/><path id="path249" d="M292.16 201.374h-72.12c-30.74-2.32-40.63-25.12-43.14-33-26.95-.43-47.6-7.71-61.4-21.67a59.81 59.81 0 0 1-17.2-39.68v-39.73c1-16.11 5.65-38 22.3-50.72 10.17-7.78 20-8.4 20.37-8.42h27.67c2.49-.25 24.68-2.07 40.11 10.44 7.54 6.13 12.17 14.55 13.83 25.13h17.54c47.91-.7 52 36.89 52.08 37.27v120.38zm-71.74-6.59h65.16V81.514c-.29-2.5-4.56-31.18-44.24-31.18h-24.7l-.29-3c-1-10.17-4.92-18.12-11.71-23.64-13.84-11.24-35.22-9-35.44-9h-27.93c-2.13.16-33.31 3.36-36.37 52.86v39.49a54 54 0 0 0 15.37 35.09c12.94 13 32.84 19.64 59.14 19.64h2.71l.52 2.66c.23 1.17 5.94 27.88 37.78 30.35z" class="cls-5" style="fill:#d08f2a"/><path id="path251" d="M288.87 144.884v45.28h-68.58c-34.95-2.64-40.88-33-40.88-33-78.47 0-77.81-58-77.81-58v-39.59c3.3-54.07 39.56-56.05 39.56-56.05h27.67s46.84-5.28 50.79 35.61h20.45c45.5-.66 48.8 34.28 48.8 34.28z" class="cls-4" style="fill:#231f20"/><path id="path253" d="M292.16 193.464h-72.12c-30.74-2.32-40.63-25.13-43.14-33-26.95-.43-47.6-7.71-61.4-21.67a59.81 59.81 0 0 1-17.2-39.68v-39.74c1-16.11 5.65-38 22.3-50.72 10.17-7.78 20-8.4 20.37-8.42h27.67c2.49-.25 24.68-2.07 40.11 10.44 7.53 6.11 12.16 14.56 13.77 25.17h17.54c47.91-.7 52 36.9 52.08 37.27v120.35zm-71.74-6.6h65.16V73.594c-.29-2.5-4.56-31.18-44.24-31.18h-24.7l-.29-3c-1-10.17-4.92-18.12-11.71-23.64-13.84-11.24-35.22-9-35.44-9h-27.93c-2.13.15-33.31 3.35-36.37 52.85v39.49a54 54 0 0 0 15.37 35.09c12.94 13 32.84 19.64 59.14 19.64h2.71l.52 2.67c.23 1.21 5.94 27.88 37.78 30.35z" class="cls-6" style="fill:#f6dd93"/><path id="path255" d="M170.85 87.254c-17.36-1.44-28-12.55-27.87-29 .08-8.89 2.47-17 6.71-22.91 5-6.94 12.39-10.65 21.35-10.74l.05 5.28c-10.91.1-22.63 7.62-22.84 28.42-.13 13.61 8.48 22.46 23 23.68z" class="cls-3" style="fill:#f2ea1e"/><path id="path257" d="M179.3 87.264h-21.65c-17.35-1.44-28-12.55-27.87-29 .09-8.89 2.47-17 6.72-22.91 4.89-6.78 12.05-10.48 20.73-10.73h23.07c4.32 0 7.64 1.29 9.86 3.82a12.18 12.18 0 0 1 2.67 8.86v11.06h-17.81v-11.87a4.53 4.53 0 0 0-1.83-3.64c-2.57-2.17-6.79-2.84-7.57-2.95h-7.75c-10.88.1-22.61 7.62-22.82 28.42-.13 13.58 8.44 22.42 22.93 23.67h16v-12.2h5.28zm1-44.18h7.28v-6.28a7 7 0 0 0-1.4-4.91c-1.18-1.32-3.15-2-5.87-2h-2.58a9.61 9.61 0 0 1 2.58 6.59z" class="cls-3" style="fill:#f2ea1e"/><path id="path259" d="M243.44 122.894c-17.35-1.45-28-12.55-27.87-29 .2-20.41 8.75-30.84 25.42-31v5.27c-13.61.13-20 8.32-20.2 25.78-.13 13.62 8.48 22.47 23 23.68z" class="cls-3" style="fill:#f2ea1e"/><path id="path261" d="M250.58 122.904h-20.34c-17.35-1.45-28-12.55-27.87-29 .19-19 10.43-30.56 27.45-31h20.43c4.32 0 7.64 1.28 9.86 3.82a12.06 12.06 0 0 1 2.67 8.85v11.06h-17.81v-11.86a4.55 4.55 0 0 0-1.82-3.65 15.24 15.24 0 0 0-5.12-2.95h-7.57c-20.36.2-22.74 18.1-22.82 25.78-.13 13.58 8.44 22.43 22.93 23.67h14.73v-9.58h17.76v13.85h-5.28v-8.57h-7.2zm-.32-41.54h7.25v-6.28a7.09 7.09 0 0 0-1.41-4.92c-1.18-1.32-3.15-2-5.87-2h-2.58a9.64 9.64 0 0 1 2.58 6.6z" class="cls-3" style="fill:#f2ea1e"/><path id="path263" d="M195.46 70.124h-40.22v-16.49h40.22zm-34.95-5.28h29.67v-5.93h-29.67z" class="cls-3" style="fill:#f2ea1e"/><path id="rect265" d="M186.56 69.134h5.28v32.65h-5.28z" class="cls-3" style="fill:#f2ea1e"/><path id="path267" d="M267.77 147.924h-44.84c-26.85 0-31.55-24.89-31.6-25.15l6.5-1.14-3.25.57 3.24-.58c.15.8 3.87 19.7 25.11 19.7h44.84z" class="cls-2" style="fill:#5e4c9b"/><path id="path269" d="M267.77 169.044h-44.84c-26.85 0-31.55-24.9-31.6-25.15l-.05-.28v-28.21h6.6v27.6c.51 2.38 4.87 19.44 25.05 19.44h44.84z" class="cls-2" style="fill:#5e4c9b"/><path id="path271" d="M176.7 113.604h-22.4c-26.85 0-31.56-24.89-31.6-25.14l6.49-1.15-3.24.58 3.24-.59c.15.81 3.87 19.71 25.11 19.71h22.4z" class="cls-2" style="fill:#5e4c9b"/><path id="path273" d="M176.7 134.724h-22.4c-26.85 0-31.56-24.89-31.6-25.14l-.05-.29v-28.21h6.59v27.64c.51 2.38 4.88 19.45 25.06 19.45h22.4z" class="cls-2" style="fill:#5e4c9b"/><path id="rect275" d="M261.25 146.394h6.59v9.47h-6.59z" class="cls-2" style="fill:#5e4c9b"/><path id="rect277" d="M241.35 146.394h6.59v9.47h-6.59z" class="cls-2" style="fill:#5e4c9b"/><path id="rect279" d="M220.5 146.394h6.59v9.47h-6.59z" class="cls-2" style="fill:#5e4c9b"/><path id="rect281" d="M169.71 111.984h6.59v8.52h-6.59z" class="cls-2" style="fill:#5e4c9b"/><path id="rect283" d="M149.81 111.984h6.59v8.52h-6.59z" class="cls-2" style="fill:#5e4c9b"/><path id="path1282" d="M82.098 138.475a2 2 0 0 0-1.123.517 2 2 0 0 0-.114 2.826l8.698 9.428c.556.716 1.34 1.582 2.51 2.836a115.409 115.409 0 0 0 2.755 2.871l4.055 4.397c.574.686 1.945 2.146 5.695 6.103 2.216 2.338 5.5 5.83 7.297 7.758a854.286 854.286 0 0 0 5.568 5.916c1.266 1.325 2.393 2.557 2.506 2.738.532.854 24.12 25.47 25.815 26.94 2.768 2.4 15.68 4.24 23.38 3.33 1.572-.186 4.187-.694 5.811-1.127 4.067-1.086 6.271-2.435 6.781-4.149.853-2.864-.875-5.465-3.789-5.7-.716-.059-2.95.258-4.963.706-9.02 2.008-15.508 2.396-21.257 1.272-2.442-.478-7.575-2.856-10.518-4.871-1.077-.738-4.242-3.86-7.217-7.118-2.914-3.191-6.559-7.123-8.1-8.738-1.895-1.986-13.217-14.091-22.513-24.03a2 2 0 0 0-.22-.292L83.8 139.105a2 2 0 0 0-1.703-.63z" style="fill:#d08f2a;fill-opacity:1;stroke-width:1"/><path id="path27456" d="M82.098 138.475a2 2 0 0 0-1.123.517 2 2 0 0 0-.114 2.826l8.698 9.428c.556.716 1.34 1.582 2.51 2.836a115.409 115.409 0 0 0 2.755 2.871l4.055 4.397c.574.686 1.945 2.146 5.695 6.103 2.216 2.338 5.5 5.83 7.297 7.758a854.286 854.286 0 0 0 5.568 5.916c1.266 1.325 2.393 2.557 2.506 2.738.532.854 24.12 25.47 25.815 26.94 2.768 2.4 15.68 4.24 23.38 3.33 1.572-.186 4.187-.694 5.811-1.127 4.067-1.086 6.271-2.435 6.781-4.149.853-2.864-.875-5.465-3.789-5.7-.716-.059-2.95.258-4.963.706-9.02 2.008-15.508 2.396-21.257 1.272-2.442-.478-7.575-2.856-10.518-4.871-1.077-.738-4.242-3.86-7.217-7.118-2.914-3.191-6.559-7.123-8.1-8.738-1.895-1.986-13.217-14.091-22.513-24.03a2 2 0 0 0-.22-.292L83.8 139.105a2 2 0 0 0-1.703-.63z" clip-path="url(#clipPath27597)" style="fill:#4d3e7e;fill-opacity:1;stroke-width:1"/><path id="path28259" d="M82.098 138.475a2 2 0 0 0-1.123.517 2 2 0 0 0-.114 2.826l8.698 9.428c.556.716 1.34 1.582 2.51 2.836a115.409 115.409 0 0 0 2.755 2.871l4.055 4.397c.574.686 1.945 2.146 5.695 6.103 2.216 2.338 5.5 5.83 7.297 7.758a854.286 854.286 0 0 0 5.568 5.916c1.266 1.325 2.393 2.557 2.506 2.738.532.854 24.12 25.47 25.815 26.94 2.768 2.4 15.68 4.24 23.38 3.33 1.572-.186 4.187-.694 5.811-1.127 4.067-1.086 6.271-2.435 6.781-4.149.853-2.864-.875-5.465-3.789-5.7-.716-.059-2.95.258-4.963.706-9.02 2.008-15.508 2.396-21.257 1.272-2.442-.478-7.575-2.856-10.518-4.871-1.077-.738-4.242-3.86-7.217-7.118-2.914-3.191-6.559-7.123-8.1-8.738-1.895-1.986-13.217-14.091-22.513-24.03a2 2 0 0 0-.22-.292L83.8 139.105a2 2 0 0 0-1.703-.63z" clip-path="url(#clipPath28297)" style="fill:#5e4c9b;fill-opacity:1;stroke-width:1"/><path id="path43816" d="M82.098 138.475a2 2 0 0 0-1.123.517 2 2 0 0 0-.114 2.826l8.698 9.428c.556.716 1.34 1.582 2.51 2.836a115.409 115.409 0 0 0 2.755 2.871l4.055 4.397c.574.686 1.945 2.146 5.695 6.103 2.216 2.338 5.5 5.83 7.297 7.758a854.286 854.286 0 0 0 5.568 5.916c1.266 1.325 2.393 2.557 2.506 2.738.532.854 24.12 25.47 25.815 26.94 2.768 2.4 15.68 4.24 23.38 3.33 1.572-.186 4.187-.694 5.811-1.127 4.067-1.086 6.271-2.435 6.781-4.149.853-2.864-.875-5.465-3.789-5.7-.716-.059-2.95.258-4.963.706-9.02 2.008-15.508 2.396-21.257 1.272-2.442-.478-7.575-2.856-10.518-4.871-1.077-.738-4.242-3.86-7.217-7.118-2.914-3.191-6.559-7.123-8.1-8.738-1.895-1.986-13.217-14.091-22.513-24.03a2 2 0 0 0-.22-.292L83.8 139.105a2 2 0 0 0-1.703-.63z" clip-path="url(#clipPath44226)" style="fill:#4d3e7e;fill-opacity:1;stroke-width:1"/><path id="path44621" d="M82.098 138.475a2 2 0 0 0-1.123.517 2 2 0 0 0-.114 2.826l8.698 9.428c.556.716 1.34 1.582 2.51 2.836a115.409 115.409 0 0 0 2.755 2.871l4.055 4.397c.574.686 1.945 2.146 5.695 6.103 2.216 2.338 5.5 5.83 7.297 7.758a854.286 854.286 0 0 0 5.568 5.916c1.266 1.325 2.393 2.557 2.506 2.738.532.854 24.12 25.47 25.815 26.94 2.768 2.4 15.68 4.24 23.38 3.33 1.572-.186 4.187-.694 5.811-1.127 4.067-1.086 6.271-2.435 6.781-4.149.853-2.864-.875-5.465-3.789-5.7-.716-.059-2.95.258-4.963.706-9.02 2.008-15.508 2.396-21.257 1.272-2.442-.478-7.575-2.856-10.518-4.871-1.077-.738-4.242-3.86-7.217-7.118-2.914-3.191-6.559-7.123-8.1-8.738-1.895-1.986-13.217-14.091-22.513-24.03a2 2 0 0 0-.22-.292L83.8 139.105a2 2 0 0 0-1.703-.63z" clip-path="url(#clipPath44747)" style="fill:#5e4c9b;fill-opacity:1;stroke-width:1"/></svg>