<svg xmlns="http://www.w3.org/2000/svg" id="Layer_1" width="379.66" height="368.18" data-name="Layer 1" version="1.1"><defs id="defs4"><style id="style2">.cls-3{fill:#fff}.cls-4{fill:#541f3e}.cls-5{fill:#009e87}</style></defs><path id="path192" d="M137.41 130.44a49.11 49.11 0 1 0 49.1-49.11 49.16 49.16 0 0 0-49.1 49.11zm15.82 0a33.29 33.29 0 1 1 33.28 33.28 33.32 33.32 0 0 1-33.23-33.28z" class="cls-4" style="fill:#541f3e"/><path id="path194" d="M130.17 142.41h112.69a57.89 57.89 0 0 1 57.89 57.89v76.79H72.28v-76.8a57.89 57.89 0 0 1 57.89-57.88z" class="cls-5" style="fill:#009e87"/><path id="path196" d="M314.28 290.61H58.78v-90.32a71.48 71.48 0 0 1 71.39-71.39h112.69a71.48 71.48 0 0 1 71.42 71.39zm-228.49-27h201.49v-63.32a44.56 44.56 0 0 0-44.38-44.38H130.17a44.56 44.56 0 0 0-44.38 44.38z" class="cls-4" style="fill:#541f3e"/><path id="rect198" d="M140.35 136.35h92.33v63.22h-92.33z" class="cls-4" style="fill:#541f3e"/><circle id="circle200" cx="186.51" cy="130.44" r="41.2" style="fill:#1a1a1a"/><path id="path202" d="M141.28 130.44a45.25 45.25 0 1 1 45.24 45.25 45.29 45.29 0 0 1-45.24-45.25zm11.81 0a33.44 33.44 0 1 0 33.43-33.43 33.47 33.47 0 0 0-33.44 33.43z" class="cls-4" style="fill:#541f3e"/><path id="polygon220" d="M543.35 374.91h-92.23l30.87 70.24h30.49z" class="cls-4" style="fill:#541f3e" transform="translate(-310.72 -175.39)"/><path id="path222" d="M310.46 286.69h61.74v-76c-38.36 0-61.74 31.1-61.74 69.46z" class="cls-4" style="fill:#541f3e"/><path id="path224" d="M62.28 286.68H.58v-76c38.36 0 61.74 31.1 61.74 69.46z" class="cls-4" style="fill:#541f3e"/><path id="polygon226" d="m311.3 513.47 27.01 30.1h317.6l27.01-27.84v-57.05H311.3z" class="cls-4" style="fill:#541f3e" transform="translate(-310.72 -175.39)"/><path id="path51735" d="M97.848 339.434v14.77h-4.534v-5.745h-3.463v5.745h-4.534v-14.77h4.534v5.432h3.463v-5.432z" style="font-size:22.1614px;line-height:1.25;font-family:&quot;Franklin Gothic Heavy&quot;;-inkscape-font-specification:&quot;Franklin Gothic Heavy, Normal&quot;;letter-spacing:5.92px;fill:#009e87;stroke-width:.999997"/><path id="path51737" d="M112.717 354.432q-3.116 0-5.086-2.067-1.958-2.067-1.958-5.53 0-3.31 1.872-5.464 1.882-2.164 5.215-2.164 3.084 0 5.021 2.034 1.948 2.034 1.948 5.432 0 3.517-1.959 5.638-1.958 2.12-5.053 2.12zm-.022-3.355q1.147 0 1.645-.995.509-1.007.509-3.669 0-3.852-2.067-3.852-2.23 0-2.23 4.393 0 4.123 2.143 4.123z" style="font-size:22.1614px;line-height:1.25;font-family:&quot;Franklin Gothic Heavy&quot;;-inkscape-font-specification:&quot;Franklin Gothic Heavy, Normal&quot;;letter-spacing:5.92px;fill:#009e87;stroke-width:.999997"/><path id="path51739" d="m135.69 348.567 4.145.249q-.292 2.716-2.012 4.166-1.71 1.45-4.21 1.45-3.008 0-4.858-1.991-1.85-1.991-1.85-5.497 0-3.474 1.752-5.606 1.753-2.131 4.891-2.131 2.933 0 4.502 1.623 1.58 1.623 1.785 4.306l-4.23.228q0-1.483-.574-2.143-.563-.66-1.331-.66-2.143 0-2.143 4.307 0 2.413.552 3.279.563.865 1.57.865 1.795 0 2.012-2.445z" style="font-size:22.1614px;line-height:1.25;font-family:&quot;Franklin Gothic Heavy&quot;;-inkscape-font-specification:&quot;Franklin Gothic Heavy, Normal&quot;;letter-spacing:5.92px;fill:#009e87;stroke-width:.999997"/><path id="path51741" d="M160.732 354.204h-4.967l-2.554-5.583-1.526 2.175v3.408h-4.274v-14.77h4.274v6.103l4.08-6.103h4.068l-3.733 5.4z" style="font-size:22.1614px;line-height:1.25;font-family:&quot;Franklin Gothic Heavy&quot;;-inkscape-font-specification:&quot;Franklin Gothic Heavy, Normal&quot;;letter-spacing:5.92px;fill:#009e87;stroke-width:.999997"/><path id="path51743" d="M178.977 350.677v3.527h-11.113v-14.77h11.113v3.408h-6.666v2.143h5.389v3.279h-5.389v2.413z" style="font-size:22.1614px;line-height:1.25;font-family:&quot;Franklin Gothic Heavy&quot;;-inkscape-font-specification:&quot;Franklin Gothic Heavy, Normal&quot;;letter-spacing:5.92px;fill:#009e87;stroke-width:.999997"/><path id="path51745" d="m198.953 339.434-4.62 8.516v6.254h-4.405v-6.254l-4.966-8.516h4.966l2.587 4.858 2.478-4.858z" style="font-size:22.1614px;line-height:1.25;font-family:&quot;Franklin Gothic Heavy&quot;;-inkscape-font-specification:&quot;Franklin Gothic Heavy, Normal&quot;;letter-spacing:5.92px;fill:#009e87;stroke-width:.999997"/><path id="path51747" d="m225.304 348.567 4.145.249q-.293 2.716-2.013 4.166-1.71 1.45-4.21 1.45-3.008 0-4.858-1.991-1.85-1.991-1.85-5.497 0-3.474 1.752-5.606 1.753-2.131 4.892-2.131 2.932 0 4.501 1.623 1.58 1.623 1.786 4.306l-4.231.228q0-1.483-.574-2.143-.563-.66-1.33-.66-2.143 0-2.143 4.307 0 2.413.551 3.279.563.865 1.57.865 1.796 0 2.012-2.445z" style="font-size:22.1614px;line-height:1.25;font-family:&quot;Franklin Gothic Heavy&quot;;-inkscape-font-specification:&quot;Franklin Gothic Heavy, Normal&quot;;letter-spacing:5.92px;fill:#009e87;stroke-width:.999997"/><path id="path51749" d="M247.38 350.58v3.624h-10.356v-14.77h4.534v11.145z" style="font-size:22.1614px;line-height:1.25;font-family:&quot;Franklin Gothic Heavy&quot;;-inkscape-font-specification:&quot;Franklin Gothic Heavy, Normal&quot;;letter-spacing:5.92px;fill:#009e87;stroke-width:.999997"/><path id="path51751" d="M266.75 339.434v9.782q0 2.781-1.655 4.004-1.645 1.212-4.296 1.212-2.792 0-4.49-1.169-1.689-1.169-1.689-3.809v-10.02h4.61v9.49q0 1.06.443 1.547.455.487 1.44.487.822 0 1.341-.346.53-.357.628-.8.108-.445.108-1.732v-8.646z" style="font-size:22.1614px;line-height:1.25;font-family:&quot;Franklin Gothic Heavy&quot;;-inkscape-font-specification:&quot;Franklin Gothic Heavy, Normal&quot;;letter-spacing:5.92px;fill:#009e87;stroke-width:.999997"/><path id="path51753" d="M275.094 354.204v-14.77h7.5q2.337 0 3.408 1.18 1.071 1.179 1.071 2.694 0 1.103-.627 2.002-.617.887-1.85 1.222 2.867.693 2.867 3.441 0 1.645-1.017 2.944-1.007 1.287-4.318 1.287zm4.177-9.11h2.1q.79 0 1.114-.401.325-.4.325-.855 0-1.234-1.515-1.234h-2.024zm0 5.82h2.208q.822 0 1.2-.4.39-.41.39-.92 0-.508-.378-.93-.368-.433-1.364-.433h-2.056z" style="font-size:22.1614px;line-height:1.25;font-family:&quot;Franklin Gothic Heavy&quot;;-inkscape-font-specification:&quot;Franklin Gothic Heavy, Normal&quot;;letter-spacing:5.92px;fill:#009e87;stroke-width:.999997"/><path id="rect228" d="M-356.76-322.65h340.75v39.75h-340.75z" class="cls-5" style="fill:#009e87" transform="scale(-1)"/><path id="rect230" d="M-356.77-322.65h42.45v39.75h-42.45z" class="cls-3" style="fill:#fff" transform="scale(-1)"/><path id="polygon232" d="m530.93 477.34-10.57-15.29-10.57 15.28 10.57 16.87z" class="cls-4" style="fill:#541f3e" transform="translate(-310.72 -175.39)"/><path id="polygon234" d="m573.12 477.34-10.57-15.29-10.57 15.28 10.57 16.87z" class="cls-4" style="fill:#541f3e" transform="translate(-310.72 -175.39)"/><path id="polygon236" d="m615.3 477.34-10.56-15.29-10.57 15.28 10.57 16.87z" class="cls-4" style="fill:#541f3e" transform="translate(-310.72 -175.39)"/><path id="polygon238" d="m657.49 477.34-10.57-15.29-10.56 15.28 10.57 16.87z" class="cls-5" style="fill:#009e87" transform="translate(-310.72 -175.39)"/><path id="polygon240" d="m362.17 477.34-10.57-15.29-10.57 15.28 10.57 16.87z" class="cls-4" style="fill:#541f3e" transform="translate(-310.72 -175.39)"/><path id="polygon242" d="m404.36 477.34-10.57-15.29-10.57 15.28 10.57 16.87z" class="cls-4" style="fill:#541f3e" transform="translate(-310.72 -175.39)"/><path id="polygon244" d="m446.55 477.34-10.57-15.29-10.57 15.28 10.57 16.87z" class="cls-4" style="fill:#541f3e" transform="translate(-310.72 -175.39)"/><path id="polygon246" d="m488.74 477.34-10.57-15.29-10.57 15.28 10.57 16.87z" class="cls-4" style="fill:#541f3e" transform="translate(-310.72 -175.39)"/><path id="path248" d="M232.68 155.91h10.18a44.56 44.56 0 0 1 44.42 44.38v63.32h-21v-66.57s.34-25.52-33.6-41.13z" class="cls-3" style="fill:#fff"/><path id="path250" d="M132.63 155.91h-10.18a44.54 44.54 0 0 0-44.37 44.38v63.32H99v-66.57s-.31-25.52 33.63-41.13z" class="cls-4" style="fill:#541f3e"/><path id="path252" d="m12.71 90.23 40.88 27.62.9 4.9-1.5 2.21.22 1.13 5.22 3.52-3.94 5.84-5.21-3.53-1.13.22-1.49 2.21-4.92 1.06L.86 107.79l-.86-5 7.84-11.6zm-1.43 8.54-3 4.48.22 1.13 33.58 22.69 1.13-.22 3-4.48-.22-1.13-33.58-22.69z" class="cls-5" style="fill:#009e87"/><path id="path254" d="m47.88 53.36 33.26 36.45-.28 5-10.4 9.49-4.92-.23-33.26-36.46-3-2 6.45-5.89 1.69 3.17 30.32 33.22 1.15.05 4.05-3.7v-1.15L42.68 58.1l-3-2 6.52-5.94z" class="cls-5" style="fill:#009e87"/><path id="path256" d="m97.28 82.47-.92-3.48-24.08-43.13-2.44-2.55 18.44-10.29 4.89 6.17-3.57 1.06-8.79 4.92-.32 1.11 7.81 14 1.11.32 2.45-1.37 2.61-2.48 4.3 7.7-3.48.92-2.45 1.37-.32 1.11 7.76 13.87 1.11.31 8.79-4.91 2.78-2.48 2.76 7.53z" class="cls-5" style="fill:#009e87"/><path id="path258" d="m130.6 65.95-.11-3.59-13.74-47.46-1.8-3L135.28 6l3.37 7.13-3.71.22-9.68 2.8-.55 1 4.44 15.37 1 .56 2.71-.78 3.09-1.83 2.46 8.47-3.6.12-2.7.78-.56 1 4.43 15.3 1 .55 9.68-2.8 3.26-1.79 1 8z" class="cls-5" style="fill:#009e87"/><path id="path260" d="m175.41 56.93-8.74.38.74-3.45-2.13-49.36-1-3.44 7.85-.34 10.15 32.63L181 3.82l-1-3.44 8.81-.38-.74 3.51 2.14 49.37 1 3.37-7.93.36-10.16-32.71 1.25 29.71z" class="cls-5" style="fill:#009e87"/><path id="path262" d="m236.96 60.72 17.9-46 4.58-2 13.11 5.11 2 4.51-2.58 6.63-.41 3.49-8.21-3.2 2.13-2.82 1-2.62-.47-1.06-5.11-2-1 .46-14.73 37.83.46 1.06 5.11 2 1.05-.47 1-2.55.34-3.52 8.21 3.19-2.06 2.93-2.61 6.69-4.51 2-13.11-5.1z" class="cls-5" style="fill:#009e87"/><path id="path264" d="m277.88 84.67-7.37-4.7 2.58-2.4 26.57-41.67 1.12-3.41 7.37 4.7-2.62 2.42-26.57 41.67z" class="cls-5" style="fill:#009e87"/><path id="path266" d="m341.92 75.88-2.11-3.16-3.26-3.11h-1.16l-31.11 32.46-1.72 3.08-6.36-6.1 3-1.85 31.08-32.45v-1.16l-3.37-3.23-3.18-1.92 6.39-4.85 16.31 15.64z" class="cls-5" style="fill:#009e87"/><path id="path268" d="m329.05 133.7-2.5 2.58-4.62-7.52 3.48-1 17.8-10.93 20.27-22.78 1.41-2.95 5.39 8.71-2.51.59-12.72 13.28 17.6-5.32 1.58-2.1 5.43 8.84-3.59.11-29.43 7.71z" class="cls-5" style="fill:#009e87"/><circle id="circle1515" cx="186.51" cy="130.44" r="26.174" style="fill:none;stroke:#4d4d4d;stroke-width:3.4;stroke-miterlimit:4;stroke-dasharray:none"/></svg>