<svg xmlns="http://www.w3.org/2000/svg" xmlns:xlink="http://www.w3.org/1999/xlink" id="Layer_1" width="379.25" height="377.485" data-name="Layer 1" version="1.1"><defs id="defs64"><linearGradient id="linear-gradient" x1="423.58" x2="474.58" y1="1285.42" y2="1285.42" gradientUnits="userSpaceOnUse"><stop id="stop4" offset="0" stop-color="#432366"/><stop id="stop6" offset="1" stop-color="#432366" stop-opacity="0"/></linearGradient><linearGradient xlink:href="#linear-gradient" id="linear-gradient-2" x1="279.2" x2="279.2" y1="558.85" y2="450.81" gradientTransform="translate(-90 -310.985)"/><linearGradient id="linear-gradient-3" x1="342.18" x2="358.64" y1="400.48" y2="400.48" gradientUnits="userSpaceOnUse"><stop id="stop10" offset="0" stop-color="#f8e4cd" stop-opacity="0"/><stop id="stop12" offset="1" stop-color="#f8e4cd"/></linearGradient><linearGradient id="linear-gradient-5" x1="740.3" x2="740.3" y1="644.34" y2="585.22" gradientTransform="rotate(-90 740.3 614.78)" gradientUnits="userSpaceOnUse"><stop id="stop15" offset="0" stop-color="#432366"/><stop id="stop17" offset=".18" stop-color="#432366" stop-opacity=".88"/><stop id="stop19" offset=".52" stop-color="#432366" stop-opacity=".56"/><stop id="stop21" offset=".96" stop-color="#432366" stop-opacity=".05"/><stop id="stop23" offset="1" stop-color="#432366" stop-opacity="0"/></linearGradient><linearGradient id="linear-gradient-6" x1="794.51" x2="849.47" y1="491.29" y2="491.29" gradientUnits="userSpaceOnUse"><stop id="stop26" offset="0" stop-color="#dcbba4" stop-opacity="0"/><stop id="stop28" offset=".02" stop-color="#dcbba4" stop-opacity=".04"/><stop id="stop30" offset=".17" stop-color="#debda5" stop-opacity=".29"/><stop id="stop32" offset=".32" stop-color="#dfbfa5" stop-opacity=".51"/><stop id="stop34" offset=".46" stop-color="#e0c0a5" stop-opacity=".69"/><stop id="stop36" offset=".6" stop-color="#e1c1a6" stop-opacity=".82"/><stop id="stop38" offset=".74" stop-color="#e2c1a6" stop-opacity=".92"/><stop id="stop40" offset=".87" stop-color="#e2c2a6" stop-opacity=".98"/><stop id="stop42" offset=".99" stop-color="#e2c2a6"/></linearGradient><linearGradient id="linear-gradient-7" x1="631.63" x2="686.59" y1="491.29" y2="491.29" gradientUnits="userSpaceOnUse"><stop id="stop45" offset=".01" stop-color="#e2c2a6"/><stop id="stop47" offset=".13" stop-color="#e2c2a6" stop-opacity=".98"/><stop id="stop49" offset=".26" stop-color="#e2c1a6" stop-opacity=".92"/><stop id="stop51" offset=".4" stop-color="#e1c1a6" stop-opacity=".82"/><stop id="stop53" offset=".54" stop-color="#e0c0a5" stop-opacity=".69"/><stop id="stop55" offset=".68" stop-color="#dfbfa5" stop-opacity=".51"/><stop id="stop57" offset=".83" stop-color="#debda5" stop-opacity=".29"/><stop id="stop59" offset=".98" stop-color="#dcbba4" stop-opacity=".04"/><stop id="stop61" offset="1" stop-color="#dcbba4" stop-opacity="0"/></linearGradient><linearGradient xlink:href="#linear-gradient-3" id="linearGradient372" x1="342.18" x2="358.64" y1="400.48" y2="400.48" gradientTransform="translate(-90 -310.985)" gradientUnits="userSpaceOnUse"/><linearGradient xlink:href="#linear-gradient-3" id="linearGradient374" x1="342.18" x2="358.64" y1="400.48" y2="400.48" gradientTransform="translate(-90 -310.985)" gradientUnits="userSpaceOnUse"/><style id="style2">.cls-1{fill:#231f20}.cls-2,.cls-7{fill:#f8e4cd}.cls-3{fill:#69625b;opacity:.4}.cls-7{opacity:.2}.cls-8{fill:#e2c2a6}</style></defs><rect id="rect184" width="198.955" height="38.6" x="90.147" y="338.885" class="cls-2" rx="14.586" style="fill:#f8e4cd;stroke-width:.869348"/><rect id="rect186" width="379.25" height="92.95" x="0" y="253.395" class="cls-2" rx="46.48" style="fill:#f8e4cd"/><path id="rect188" d="M45.26 6.195H340.2v298.72H45.26z" class="cls-1" style="fill:#231f20"/><path id="rect190" d="M45.83 139.825h286.74v108.03H45.83z" style="fill:url(#linear-gradient-2)"/><rect id="rect192" width="379.25" height="92.95" x="0" y="247.195" class="cls-1" rx="46.48" style="fill:#231f20"/><path id="path194" d="M141.54 87.635a117.77 117.77 0 0 0 198.66 85.67V6.195H174.3a117.41 117.41 0 0 0-32.76 81.44z" class="cls-7" style="opacity:.2;fill:#f8e4cd"/><circle id="circle196" cx="121.441" cy="245.372" r="80.66" class="cls-7" style="opacity:.2;fill:#f8e4cd" transform="rotate(-45)"/><circle id="circle198" cx="121.441" cy="245.372" r="62.07" class="cls-7" style="opacity:.2;fill:#f8e4cd" transform="rotate(-45)"/><circle id="circle200" cx="259.38" cy="87.635" r="43.48" class="cls-2" style="fill:#f8e4cd"/><ellipse id="ellipse202" cx="259.82" cy="111.505" class="cls-8" rx="5.63" ry="7.77" style="fill:#e2c2a6"/><ellipse id="ellipse204" cx="285.23" cy="95.575" class="cls-8" rx="10.66" ry="14.69" style="fill:#e2c2a6"/><ellipse id="ellipse206" cx="276.48" cy="68.825" class="cls-8" rx="6.43" ry="7.51" style="fill:#e2c2a6"/><path id="polyline208" d="M133.43 564.73V317.18H430.2v247.55" style="fill:none;stroke:#231f20;stroke-width:12.39000034px;stroke-linecap:round;stroke-linejoin:round" transform="translate(-90 -310.985)"/><path id="polyline210" d="m134.65 537.14 64.44 4.96 17.35 17.35 87.99-19.83 125.16 40.9-296.18-7.44" class="cls-1" style="fill:#231f20" transform="translate(-90 -310.985)"/><path id="path212" d="M44.36 99.455h150.71s-45.77-15.63-101.59-11.16c0 0 65.67-21.9 153-10 0 0-102.71-34.61-199.84 6.7" class="cls-3" style="opacity:.4;fill:#69625b"/><path id="path214" d="M43.12 53.515h80.47a149.28 149.28 0 0 0-54.24-6s35.06-11.69 81.66-5.37c0 0-54.84-18.47-106.7 3.58" class="cls-3" style="opacity:.4;fill:#69625b"/><path id="path216" d="M51.12 193.625h80.47a149.23 149.23 0 0 0-54.24-6s35.06-11.61 81.65-5.32c0 0-54.83-18.48-106.69 3.57" class="cls-3" style="opacity:.4;fill:#69625b"/><path id="polygon218" d="m424.76 385.7-5.31-5.31-3.13-3.13-1.34-6.26-.9-10.72-2.23-14.75-8.04-3.13-8.5-6.26-2.78-1.29-4.29-.08 9.31 8.97 8.94 8.49 3.57 13.86-1.79 8.04-4.91-.44-4.02-8.05-3.58-5.36-8.04-5.81-8.94-1.34h-4.92l-3.13 2.23 9.83 1.79 12.97 8.94 4.91 10.28 6.71 7.15 9.38.89 6.9 5.56-.51.66v39.04l-11.16 4.65-12.08.93-18.58 7.43-19.52 2.79-4.76-1.26h-2.89l-4.54-3.72-2.89 2.89 1.65 6.2-16.53-2.07-9.08.41-.83 2.89 3.72 3.72h13.63l13.22.23h9.3l16.73-1.86 11.15-6.5 12.08-2.79 7.44 9.29v11.16l-3.72 6.5h-13.01l-26.02 1.86-13.95 2.79-8.36-2.79-10.22.93-12.08 2.79-5.58 6.5 28.81-3.71 7.77 6.55-12.42 1.81h-6.5l-9.3 1.86 9.3 5.58h19.51l9.3-9.3 11.15-4.33 16.73-2.17 27.58 4.64 4.64 27.88-6.2 22.31 1.86 31.6 13.94-1.86-.93-191.45-1.86 10.22z" class="cls-1" style="fill:#231f20" transform="translate(-90 -310.985)"/><g id="_8lvMbs" data-name="8lvMbs" transform="translate(-90 -310.985)"><path id="path220" d="M313.65 447.56c-.11.08-.24.06-.36.09a6.15 6.15 0 0 0-3.38 1.73 4.8 4.8 0 0 0-1.4 3.33 6.06 6.06 0 0 0 .76 3c0 .06.11.12.06.18s-.12 0-.18-.05a5.37 5.37 0 0 0-3.45-.2 7 7 0 0 0-3.42 2 4.91 4.91 0 0 0-1.31 2.58 4.07 4.07 0 0 0 .44 2.49c0 .08.09.17.14.26a.09.09 0 0 1-.11 0 4 4 0 0 0-2.14-.35 5.82 5.82 0 0 0-2.68.9 4 4 0 0 0-1.49 1.52 2.67 2.67 0 0 0-.05 2.49 3.84 3.84 0 0 0 .33.59s.09.08 0 .13-.09 0-.14 0a3 3 0 0 1-.66-.28 1.85 1.85 0 0 0-1.08-.21 4 4 0 0 0-.9.26 6 6 0 0 0-1.37.85.83.83 0 0 0-.25.5c-.06.34-.09.68-.16 1a.93.93 0 0 1-1.39.65 4.83 4.83 0 0 1-.76-.59l-.1-.09a1.15 1.15 0 0 0-1.22-.24 4.22 4.22 0 0 0-2.34 1.85v.09h-.05c-.05 0 0 0 0-.06l-.06-.3a2.79 2.79 0 0 0-2.51-2.31 5.53 5.53 0 0 0-4.62 1.63 3 3 0 0 0-.73 1.07l-.05.09c-.1-.25-.17-.52-.28-.76a4.64 4.64 0 0 0-3.65-2.84 6.3 6.3 0 0 0-4.69 1.05 6.93 6.93 0 0 0-1.4 1.46l-.41.49s-.08.12-.15.11c-.07-.01-.06-.11-.07-.17a6.08 6.08 0 0 0-1-2.14 5 5 0 0 0-3.57-2.14 6 6 0 0 0-3.89.92l-.14.08c0-.08 0-.14.05-.21a11.94 11.94 0 0 1 1.32-2.56c.73-1.13 1.43-2.28 2.24-3.37a8.36 8.36 0 0 1 4.37-3.05 9.39 9.39 0 0 1 2.74-.48 9.56 9.56 0 0 1 2.85.47 28.14 28.14 0 0 1 3.28 1.33 23.45 23.45 0 0 0 5.4 1.79 18.16 18.16 0 0 0 2.32.29h1.69c.1 0 .1-.05.07-.12a1.82 1.82 0 0 0-.54-.82 7.83 7.83 0 0 1-.68-.73 2.46 2.46 0 0 1-.42-.8c-.06-.19 0-.21.15-.18a5.76 5.76 0 0 0 1.1.05h.46c.08 0 .12-.05.16-.11a2.83 2.83 0 0 1 2.2-1.28 2.43 2.43 0 0 1 .81.08.42.42 0 0 0 .4-.08 10.92 10.92 0 0 0 1.1-.94c.11-.12.13-.12.17.05a2.66 2.66 0 0 1 .1.75v1.29a2 2 0 0 0 .25.73c0 .09.11 0 .16 0a6.19 6.19 0 0 0 1.46-1 13.05 13.05 0 0 0 2.86-3.58c.71-1.27 1.3-2.6 1.94-3.9a16.54 16.54 0 0 1 2.39-3.8 9 9 0 0 1 5.16-2.95 10.91 10.91 0 0 1 4.72.27 28.74 28.74 0 0 1 3.93 1.41l1.59.66s.05.07.08.13z"/></g><g id="_8lvMbs-2" data-name="8lvMbs" transform="translate(-90 -310.985)"><path id="path233" d="M334.53 385.7a1.66 1.66 0 0 1-.69.16 11.6 11.6 0 0 0-6.4 3.29 9.11 9.11 0 0 0-2.65 6.32 11.52 11.52 0 0 0 1.44 5.74c.06.1.21.23.11.34-.1.11-.23-.05-.33-.09a10.18 10.18 0 0 0-6.56-.38 13 13 0 0 0-6.45 3.82 9 9 0 0 0-2.48 4.88 7.48 7.48 0 0 0 .83 4.71l.25.5a.15.15 0 0 1-.19 0 7.62 7.62 0 0 0-4.07-.66 11.16 11.16 0 0 0-5.09 1.7 7.67 7.67 0 0 0-2.83 2.88 5.09 5.09 0 0 0-.09 4.71 7.08 7.08 0 0 0 .64 1.14c.05.07.15.15.1.23-.05.08-.19 0-.28 0a6 6 0 0 1-1.25-.53 3.5 3.5 0 0 0-2-.4 6.85 6.85 0 0 0-1.71.5 11.9 11.9 0 0 0-2.59 1.6 1.49 1.49 0 0 0-.47 1c-.12.63-.18 1.27-.31 1.91a1.75 1.75 0 0 1-2.63 1.23 9.26 9.26 0 0 1-1.45-1.13l-.19-.15a2.19 2.19 0 0 0-2.31-.47 8.09 8.09 0 0 0-4.43 3.51l-.11.18a.2.2 0 0 1-.09.07c-.07 0-.07-.06-.08-.11-.01-.05-.07-.38-.1-.57a5.31 5.31 0 0 0-4.77-4.39 10.5 10.5 0 0 0-8.68 3 6.11 6.11 0 0 0-1.39 2 1.09 1.09 0 0 1-.08.15l-.08.05c-.19-.48-.31-1-.52-1.45a8.8 8.8 0 0 0-6.92-5.38 12 12 0 0 0-8.89 2 12.85 12.85 0 0 0-2.65 2.76c-.26.31-.52.62-.79.92-.07.09-.14.24-.27.21s-.12-.19-.15-.3a11.56 11.56 0 0 0-1.81-4.07 9.46 9.46 0 0 0-6.77-4.06 11.42 11.42 0 0 0-7.39 1.76l-.26.15h-.06c-.06-.15 0-.28.08-.4a23.52 23.52 0 0 1 2.5-4.86c1.39-2.15 2.73-4.33 4.25-6.4a15.81 15.81 0 0 1 8.29-5.78 17.25 17.25 0 0 1 5.19-.9 17.76 17.76 0 0 1 5.41.88 55.65 55.65 0 0 1 6.21 2.52 45.22 45.22 0 0 0 10.25 3.41 34.46 34.46 0 0 0 4.41.53c.95.06 1.89 0 2.84 0h.36c.18 0 .18-.1.14-.25a3.5 3.5 0 0 0-1-1.54 15.59 15.59 0 0 1-1.3-1.39 4.6 4.6 0 0 1-.79-1.52c-.11-.35-.08-.4.28-.34a12.09 12.09 0 0 0 2.08.11c.29 0 .58-.05.88-.06a.37.37 0 0 0 .3-.21 5.34 5.34 0 0 1 4.19-2.44 4.33 4.33 0 0 1 1.52.16.78.78 0 0 0 .75-.15 17.93 17.93 0 0 0 2.09-1.79c.22-.22.25-.22.32.09a5.75 5.75 0 0 1 .21 1.43v2.45c0 .54.32.93.47 1.39.06.17.21 0 .31 0a12.79 12.79 0 0 0 2.77-1.83 25 25 0 0 0 5.43-6.8c1.33-2.41 2.45-4.92 3.67-7.39a31.53 31.53 0 0 1 4.53-7.2 17.1 17.1 0 0 1 9.79-5.61 20.67 20.67 0 0 1 8.95.52 54.57 54.57 0 0 1 7.45 2.66l3 1.27c-.04.04.06.05.11.16z"/></g><path id="path236" d="M66.07 310.395a2.32 2.32 0 0 1 .37 2.15 4 4 0 0 1-1.57 1.81 12.7 12.7 0 0 1-2.93 1.43 36 36 0 0 1-7.52 1.74 28.62 28.62 0 0 1-3.45.24 24 24 0 0 0-2.76-1c-.85-.23-1.67-.41-2.46-.55-.79-.14-1.6-.28-2.4-.44a21.27 21.27 0 0 1-2.42-.65 29.87 29.87 0 0 1-5.12-6.12 17.5 17.5 0 0 1-2.46-6.45 31 31 0 0 1-.17-5.74 37.57 37.57 0 0 1 .82-6 35 35 0 0 1 1.81-5.88 30.9 30.9 0 0 1 2.8-5.39 13 13 0 0 1 3-3.11 27.64 27.64 0 0 1 4.41-2.87 26 26 0 0 1 4.85-2 10.43 10.43 0 0 1 4.37-.45 13.91 13.91 0 0 0 2.66.07 22.88 22.88 0 0 1 3.52.14 9.87 9.87 0 0 1 3 .82 2.12 2.12 0 0 1 1.3 2 2 2 0 0 1-.72 1.47 1.77 1.77 0 0 0-.72 1.26c0 .09.08.13.24.1a1.69 1.69 0 0 1 .45 0 .47.47 0 0 1 .3.17c.07.1 0 .3-.1.62s-.18.43-.27.61a6 6 0 0 1-.31.55 6 6 0 0 0-.31.55 12.32 12.32 0 0 1-1 1.53c-.39.53-.76 1-1.12 1.4l-1.3 1.44a.93.93 0 0 1-1.2.37 4.45 4.45 0 0 1-1.4-1.19c-.5-.59-1-1.29-1.6-2.09a16.45 16.45 0 0 0-1.88-2.18 9 9 0 0 0-2.19-1.57 3.65 3.65 0 0 0-2.46-.31 3.35 3.35 0 0 0-2.63 1.23 12.12 12.12 0 0 0-2.05 3.21 20.62 20.62 0 0 0-1.3 4 17.33 17.33 0 0 0-.44 3.49 29.1 29.1 0 0 0 .79 6.66 23 23 0 0 0 2.42 6.25 18.12 18.12 0 0 0 4.13 5 12.47 12.47 0 0 0 5.85 2.7c.36.09.77-.09 1.22-.55.45-.46.9-.91 1.34-1.36a10.2 10.2 0 0 1 1.12-1.06c.32-.25.53-.15.62.3 1 .55 1.57 1.14 1.71 1.78a.39.39 0 0 1 0 .34 2.07 2.07 0 0 1-.27.41 1.93 1.93 0 0 0-.24.38c0 .11 0 .17.07.17a1.48 1.48 0 0 0 .78-.1l.86-.35a2.64 2.64 0 0 1 .78-.2.61.61 0 0 1 .58.24z" class="cls-2" style="fill:#f8e4cd"/><path id="path238" d="M122.91 278.765a4.32 4.32 0 0 1-.28 2.18c-.27.69-.59 1.39-.95 2.12-.36.73-.73 1.47-1.1 2.22a6.22 6.22 0 0 0-.61 2.43q-.61 2.73-1.23 5.67a36.21 36.21 0 0 0-.74 5.63 11.41 11.41 0 0 0 .54 4.23q.69 2.12 1.47 4.2a35.09 35.09 0 0 1 1.3 4.17 9.3 9.3 0 0 1 .1 4.13 2 2 0 0 1-1.16 1.54 6.52 6.52 0 0 1-2.25.55c-.87.06-1.77.1-2.7.1a18.42 18.42 0 0 0-2.49.14c-.1 0-.2-.19-.31-.55-.11-.36-.24-.78-.38-1.23a12.81 12.81 0 0 1-.48-1.78q-2.17 3.15-4.71 3.66a10.83 10.83 0 0 1-6.28-1.13 1 1 0 0 0-.89 0 2.92 2.92 0 0 0-.72.51c-.2.21-.39.4-.55.58a.62.62 0 0 1-.44.28 5 5 0 0 1-3-1.51 30.12 30.12 0 0 1-3.42-3.51 32.39 32.39 0 0 1-2.9-4.1 9.23 9.23 0 0 1-1.37-3.32 1.07 1.07 0 0 1 0-.37 1.62 1.62 0 0 0 0-.38c.14-.59.31-1.19.51-1.81.2-.62.39-1.23.55-1.84.16-.61.28-1.22.38-1.81a5.45 5.45 0 0 0 0-1.71 11.6 11.6 0 0 0 .58-4.54 18.3 18.3 0 0 0-1-4.55 25.21 25.21 0 0 0-2-4.33q-1.2-2.08-2.43-3.93a7.32 7.32 0 0 1 .72-3.21 11.56 11.56 0 0 1 1.85-2.77 15.63 15.63 0 0 1 2.49-2.25 23.17 23.17 0 0 1 2.66-1.68c.14 0 .2 0 .17.28a4.94 4.94 0 0 1-.13.75 4.59 4.59 0 0 0-.14.78c0 .25 0 .38.1.38a5.07 5.07 0 0 0 2.09-.72l2.18-1.23a7.59 7.59 0 0 1 1.92-.78 1 1 0 0 1 1.26.68 13.84 13.84 0 0 1 1.23 6 39.21 39.21 0 0 1-.68 6.39c-.41 2.16-.87 4.34-1.37 6.52a32.27 32.27 0 0 0-.82 6.42 17.4 17.4 0 0 0 .61 3.76 35.08 35.08 0 0 0 1.54 4.71 13 13 0 0 0 2.05 3.56c.75.86 1.45 1 2.08.34a8.71 8.71 0 0 0 3.45-3 17.62 17.62 0 0 0 2.16-4.44 29.9 29.9 0 0 0 1.19-5.4c.25-1.94.46-3.87.62-5.81.16-1.94.29-3.81.41-5.63.12-1.82.28-3.46.51-4.92a.57.57 0 0 0-.21-.41c-.13-.14-.16-.25-.06-.34a4.23 4.23 0 0 0 .88-2c.19-.87.37-1.73.55-2.6a8.11 8.11 0 0 1 .79-2.26 1.65 1.65 0 0 1 1.53-.95 1.94 1.94 0 0 1 1.27.58 2.59 2.59 0 0 0 1.6.65c.18 0 .35-.05.51-.28a3.36 3.36 0 0 0 .41-.75 4.71 4.71 0 0 1 .35-.68c.11-.18.24-.23.37-.14a1.11 1.11 0 0 1 .24.79c0 .3-.06.61-.1 1-.04.39-.09.67-.14 1a1.46 1.46 0 0 0 .14.88 18.21 18.21 0 0 0 1.54 2.57 5.23 5.23 0 0 1 1.14 2.27z" class="cls-2" style="fill:#f8e4cd"/><path id="path240" d="M182.81 312.505a18.38 18.38 0 0 1-1.84 1.74 15.67 15.67 0 0 1-2.7 1.88 12 12 0 0 1-3 1.2 3.23 3.23 0 0 1-2.6-.31c-.18-.09-.35 0-.51.17a4.78 4.78 0 0 0-.44.69c-.14.25-.28.47-.41.68-.13.21-.28.24-.41.1a28.23 28.23 0 0 1-4.2-4.78 47.42 47.42 0 0 1-3.11-5.16c-.91-1.75-1.77-3.48-2.56-5.19-.79-1.71-1.65-3.34-2.56-4.88-.23-.37-.45-.39-.65-.07a3.83 3.83 0 0 0-.48 1.43 9.67 9.67 0 0 0-.14 2 4.23 4.23 0 0 0 .38 1.78c-.82.59-1.16 1.22-1 1.88a9.73 9.73 0 0 0 .72 2.08 12.53 12.53 0 0 1 .79 2.22 2.34 2.34 0 0 1-.82 2.22 11.5 11.5 0 0 1-1.81 1.37c-.62.36-1.21.75-1.78 1.16a7.3 7.3 0 0 0-1.57 1.57 8.12 8.12 0 0 0-1.2 2.59c0 .05-.13 0-.41 0-.28 0-.58-.16-.92-.27-.34-.11-.65-.23-.92-.34a2.23 2.23 0 0 0-.48-.17 6.54 6.54 0 0 1-1.64-1.44 17.1 17.1 0 0 1-1.67-2.29 21.6 21.6 0 0 1-1.37-2.53 6.68 6.68 0 0 1-.65-2 6.36 6.36 0 0 1 .38-2.73c.34-1 .76-2.12 1.26-3.35s1-2.57 1.61-4a30.55 30.55 0 0 0 1.4-4.85c.18-1 .38-2 .61-3.14a32 32 0 0 0 .51-3.73 28.74 28.74 0 0 0 0-4.27 23.08 23.08 0 0 0-.82-4.71.63.63 0 0 0-.62-.44 3.59 3.59 0 0 0-1.09.1c-.41.09-.84.2-1.3.34a4.38 4.38 0 0 1-1.3.2c-.72.28-1.16.35-1.29.21-.13-.14-.1-.14 0-.27a12.83 12.83 0 0 0 1.5-2.33q.62-1.23 1.23-2.28a7.34 7.34 0 0 1 1.47-1.82 3.92 3.92 0 0 1 2.29-.88 31.14 31.14 0 0 1 5.05-1.27 33.88 33.88 0 0 1 6.12-.48 36.72 36.72 0 0 1 6.28.62 18 18 0 0 1 5.57 2 11.41 11.41 0 0 1 4 3.76 10.28 10.28 0 0 1 1.54 5.77 20.65 20.65 0 0 1-.31 3.62 10.19 10.19 0 0 1-1.16 3.31 9.21 9.21 0 0 1-2.35 2.74 9.82 9.82 0 0 1-3.83 1.74 11.93 11.93 0 0 0 1 5.09 17.51 17.51 0 0 0 2.39 3.89 24.8 24.8 0 0 0 2.66 2.84 11.07 11.07 0 0 1 1.84 2q2.59 3.82 3.62 3.82a1.2 1.2 0 0 0 .69-.24c.23-.15.38-.19.48-.1a2.35 2.35 0 0 1 .47.75.85.85 0 0 1 .06.76zm-16.39-32a2.15 2.15 0 0 0-.48-3.11 4 4 0 0 0-1.64-.71 4.72 4.72 0 0 0-2 0 4.89 4.89 0 0 0-1.78.95 7.63 7.63 0 0 0-1.43 1.61 10 10 0 0 0-1 2 11.19 11.19 0 0 0-.62 2 5.12 5.12 0 0 1-.07 2.76c-.27 1.07-.54 2.12-.82 3.14a10.58 10.58 0 0 0-.41 2.6c0 .71.37 1.06 1.1 1.06a9.57 9.57 0 0 0 4.67-1 7.6 7.6 0 0 0 2.94-2.73 10.34 10.34 0 0 0 1.4-3.93 19 19 0 0 0 .14-4.61z" class="cls-2" style="fill:#f8e4cd"/><path id="path242" d="M234.94 280.015a6.1 6.1 0 0 1 0 1.94 7.26 7.26 0 0 1-.65 2.12 6.25 6.25 0 0 1-1.12 1.67 1.51 1.51 0 0 1-1.4.55 22.59 22.59 0 0 1-4.77-1.28c-1.41-.55-2.67-1.08-3.79-1.6l-2.93-1.4a5.37 5.37 0 0 0-2.29-.62 1.28 1.28 0 0 0-1.23-.27 5.7 5.7 0 0 0-1.81.61 5.17 5.17 0 0 0-1.57 1.23 2.14 2.14 0 0 0-.58 1.64 2.67 2.67 0 0 0 1 1.81 10.1 10.1 0 0 0 2.53 1.57 27.06 27.06 0 0 0 3.58 1.33c1.35.42 2.75.8 4.2 1.17a15.78 15.78 0 0 1 5.57 2.56 9.32 9.32 0 0 1 3.14 3.89 8.51 8.51 0 0 1 .45 4.89 14.35 14.35 0 0 1-2.46 5.53 7.78 7.78 0 0 1-1 5.33 9.61 9.61 0 0 1-3.86 3.38 18.69 18.69 0 0 1-5.77 1.74 36.25 36.25 0 0 1-6.69.34 7.39 7.39 0 0 1-3 .31 17.61 17.61 0 0 1-3.86-.68 15.8 15.8 0 0 1-3.68-1.61 6 6 0 0 1-2.4-2.39.7.7 0 0 0-.3-.41 1.09 1.09 0 0 0-.34-.07.72.72 0 0 0-.28 0c-.07 0-.1 0-.1-.11a3.89 3.89 0 0 1 .38-1.53 11.94 11.94 0 0 1 .71-1.4.76.76 0 0 1 .55-.52.8.8 0 0 0 .55-.71 9.74 9.74 0 0 0 .65-1.33 4 4 0 0 1 .78-1.34c.09-.18.22-.12.38.17a.59.59 0 0 0 .65.38 3.18 3.18 0 0 0 1-.82l1.06-1.2a6.81 6.81 0 0 1 1-1 .7.7 0 0 1 .93 0 5.81 5.81 0 0 1 1.12 1.64l.89 1.92a11.38 11.38 0 0 0 1 1.77 3 3 0 0 0 1.53 1.16 11.14 11.14 0 0 0 3.32.58 11.73 11.73 0 0 0 3.75-.37 5.75 5.75 0 0 0 2.77-1.57 2.66 2.66 0 0 0 .34-2.94 8.13 8.13 0 0 0-2.46-3.45 24.05 24.05 0 0 0-4-2.77q-2.19-1.23-4.51-2.29a36.82 36.82 0 0 1-4.1-2.15 3.59 3.59 0 0 0-1.7-1.29c-.6-.19-1.17-.33-1.71-.45a4.55 4.55 0 0 1-1.57-.65 3.45 3.45 0 0 1-1.23-2 8.1 8.1 0 0 1-.31-5.81 14.81 14.81 0 0 1 3.21-5.49 25.43 25.43 0 0 1 5.57-4.62 30.7 30.7 0 0 1 6.92-3.09 21.49 21.49 0 0 1 6.69-1.13 10 10 0 0 1 5.5 1.44c1 0 1.45.26 1.47.64a3.06 3.06 0 0 1-.34 1.4c-.25.55-.49 1.1-.72 1.64a1.15 1.15 0 0 0 .41 1.44c-.09.41.1.68.58.82a13.8 13.8 0 0 0 1.64.34 10.29 10.29 0 0 1 1.77.41 1.27 1.27 0 0 1 .94 1z" class="cls-2" style="fill:#f8e4cd"/><path id="path244" d="M289.45 308.685a4 4 0 0 1-.44 2.56 10 10 0 0 1-1.71 2.25 20.48 20.48 0 0 1-2.36 2c-.86.64-1.64 1.25-2.32 1.84a1.38 1.38 0 0 1-1.54.21 5.67 5.67 0 0 0-1.88-.34c-2.5 0-5.05 0-7.65-.07-2.6-.07-5.17-.07-7.72-.07a15.78 15.78 0 0 1-2.32.51c-.77.12-1.27 0-1.5-.37.18 0 .29-.14.34-.41.05-.27 0-.41-.07-.41a5 5 0 0 0-1.77.51c-.64.3-1.27.56-1.88.78a6.85 6.85 0 0 1-1.71.42 1.19 1.19 0 0 1-1.2-.69 2.73 2.73 0 0 1-.3-2 10.37 10.37 0 0 1 .78-2.22c.37-.78.73-1.55 1.09-2.33a7.25 7.25 0 0 0 .69-2.32q.19-3.13.27-6.11a32.15 32.15 0 0 0-.34-5.64.37.37 0 0 0-.41-.27 3 3 0 0 0-.75.1 6.42 6.42 0 0 1-.75.14c-.23 0-.34 0-.34-.17a.69.69 0 0 1 .34-.57 6 6 0 0 1 .75-.45c.27-.14.53-.28.78-.44a1 1 0 0 0 .45-.65 23.48 23.48 0 0 0 .37-2.87c.07-1 .13-1.89.17-2.8.04-.91.13-1.79.24-2.63a9 9 0 0 1 .65-2.36 2.75 2.75 0 0 1 1.57-1.43 5.22 5.22 0 0 0 1.92-1.3 2 2 0 0 0 .2-.82c0-.41 0-.62-.2-.62a4.37 4.37 0 0 0-1.61.18c-.52.16-1.05.33-1.57.51a14.57 14.57 0 0 1-1.5.44 2.65 2.65 0 0 1-1.4 0c-.23-.05-.3-.18-.21-.41a4.07 4.07 0 0 1 .41-.75c.18-.28.37-.56.55-.86a1.08 1.08 0 0 0 .2-.78c0-.14-.13-.21-.41-.21h-1.74c-.25 0-.33 0-.24-.14a11 11 0 0 1 2-1.67 5.63 5.63 0 0 0 1.78-1.88.59.59 0 0 1 .65-.27 1.1 1.1 0 0 0 .78-.14 6.6 6.6 0 0 0 1.51-1.4 2.47 2.47 0 0 1 1.36-1 7.26 7.26 0 0 1 2.84.17 7.29 7.29 0 0 0 2.63.24 83.7 83.7 0 0 0 4.68-.41 41.62 41.62 0 0 1 4.75-.27 29 29 0 0 1 3.75.24c1.23.16 2.44.26 3.62.31l2.19-.62a13 13 0 0 1 1.43-.17c.41 0 .6.1.55.38a3.4 3.4 0 0 1-.75 1.7 10.06 10.06 0 0 1-1.47 1.44c-.57.45-1.15.9-1.74 1.33a10.17 10.17 0 0 0-1.57 1.4 1.24 1.24 0 0 0-.24.68 8 8 0 0 0 0 .86v.78a.41.41 0 0 1-.31.41 3.05 3.05 0 0 1-2.22-.17 6 6 0 0 0-2.36-.51 9.62 9.62 0 0 1-2.18-.27c-.78-.18-1.55-.33-2.32-.45a9.39 9.39 0 0 0-2.16-.07 2.21 2.21 0 0 0-1.6.93 8.18 8.18 0 0 0-1.33 2.49 9.61 9.61 0 0 0-.55 3 8.32 8.32 0 0 0 .41 2.84 3.79 3.79 0 0 0 1.47 2 4.57 4.57 0 0 0 3.48.68 25.88 25.88 0 0 0 4-1 32.06 32.06 0 0 1 4-1.06 4.5 4.5 0 0 1 3.49.65c.59.36.75.8.48 1.3a5.25 5.25 0 0 1-1.3 1.47 21.62 21.62 0 0 1-1.91 1.36 6.55 6.55 0 0 0-1.37 1.06 10.9 10.9 0 0 0-1.2 1.57 14.3 14.3 0 0 1-1.26 1.71c-.23.23-.51.23-.85 0a1.9 1.9 0 0 0-1.06-.34 9 9 0 0 1-1.78-.21c-.68-.13-1.37-.25-2.05-.34a6.57 6.57 0 0 0-1.88 0 1.52 1.52 0 0 0-1.19.75 17.74 17.74 0 0 0-1.1 2.84 15.06 15.06 0 0 0-.58 3.21 10 10 0 0 0 .28 3.07 4.45 4.45 0 0 0 1.4 2.36 3.76 3.76 0 0 0 2.66 1 17 17 0 0 0 3.31-.35l3.52-.65a7.82 7.82 0 0 1 3.35.11c-.5.23-.57.48-.2.75a7.06 7.06 0 0 0 2.35-.48c.89-.32 1.75-.61 2.6-.89a7.41 7.41 0 0 1 2.22-.41 1 1 0 0 1 1.06 1z" class="cls-2" style="fill:#f8e4cd"/><path id="path246" d="M341.16 280.015a6.37 6.37 0 0 1 0 1.94 7.26 7.26 0 0 1-.65 2.12 6.27 6.27 0 0 1-1.13 1.67 1.5 1.5 0 0 1-1.4.55 22.49 22.49 0 0 1-4.71-1.23 63.2 63.2 0 0 1-3.79-1.6c-1.11-.52-2.1-1-2.94-1.4a5.3 5.3 0 0 0-2.29-.62 1.28 1.28 0 0 0-1.23-.27 5.87 5.87 0 0 0-1.81.61 5.29 5.29 0 0 0-1.57 1.23 2.22 2.22 0 0 0-.58 1.64 2.73 2.73 0 0 0 1 1.81 9.84 9.84 0 0 0 2.52 1.57 27.77 27.77 0 0 0 3.59 1.33c1.34.42 2.74.8 4.2 1.17a15.86 15.86 0 0 1 5.57 2.56 9.32 9.32 0 0 1 3.14 3.89 8.6 8.6 0 0 1 .45 4.89 14.35 14.35 0 0 1-2.46 5.53 7.78 7.78 0 0 1-1 5.33 9.67 9.67 0 0 1-3.86 3.38 18.77 18.77 0 0 1-5.77 1.74 36.31 36.31 0 0 1-6.7.34 7.36 7.36 0 0 1-3 .31 17.51 17.51 0 0 1-3.86-.68 16.06 16.06 0 0 1-3.69-1.61 6 6 0 0 1-2.39-2.39.67.67 0 0 0-.31-.41 1 1 0 0 0-.34-.07.7.7 0 0 0-.27 0c-.07 0-.1 0-.1-.11a3.86 3.86 0 0 1 .37-1.53 10.48 10.48 0 0 1 .72-1.4c0-.23.23-.4.55-.52a.79.79 0 0 0 .54-.71 8.68 8.68 0 0 0 .65-1.33 4 4 0 0 1 .79-1.34c.09-.18.21-.12.37.17a.59.59 0 0 0 .65.38 3.2 3.2 0 0 0 1-.82l1.06-1.2a6.81 6.81 0 0 1 1-1 .69.69 0 0 1 .92 0 5.83 5.83 0 0 1 1.13 1.64l.89 1.92a10.6 10.6 0 0 0 1 1.77 3.07 3.07 0 0 0 1.54 1.16 11.07 11.07 0 0 0 3.31.58 11.76 11.76 0 0 0 3.76-.37 5.84 5.84 0 0 0 2.77-1.57 2.68 2.68 0 0 0 .34-2.94 8.31 8.31 0 0 0-2.46-3.45 24.93 24.93 0 0 0-4-2.77q-2.19-1.23-4.51-2.29a36 36 0 0 1-4.1-2.15 3.66 3.66 0 0 0-1.71-1.29c-.59-.19-1.16-.33-1.71-.45a4.64 4.64 0 0 1-1.57-.65 3.55 3.55 0 0 1-1.23-2 8.1 8.1 0 0 1-.3-5.81 14.81 14.81 0 0 1 3.21-5.49 25.6 25.6 0 0 1 5.56-4.62 30.92 30.92 0 0 1 6.73-3.17 21.55 21.55 0 0 1 6.7-1.13 10 10 0 0 1 5.5 1.44c.95 0 1.44.26 1.47.64a3.08 3.08 0 0 1-.35 1.4c-.25.55-.49 1.1-.71 1.64a1.14 1.14 0 0 0 .41 1.44c-.1.41.1.68.58.82a13.39 13.39 0 0 0 1.64.34 10.53 10.53 0 0 1 1.74.41 1.27 1.27 0 0 1 1.13 1.03z" class="cls-2" style="fill:#f8e4cd"/><path id="polyline346" d="m344.5 443.38 1.25-7.38 3.64-1.43.36 10.43" class="cls-1" style="fill:#231f20" transform="translate(-90 -310.985)"/><g id="text15450" aria-label="HOCKEY CLUB" style="font-size:21.3225px;line-height:1.25;font-family:&quot;Berlin Sans FB Demi&quot;;-inkscape-font-specification:&quot;Berlin Sans FB Demi&quot;;letter-spacing:2.93px;word-spacing:2.83px;fill:#401d5a;stroke-width:.53306"><path id="path34538" d="M116.756 365.166q0 .218-.094.27-.042.032-.292.053-.635.062-1.79.062-1.635 0-1.927-.062-.28-.063-.28-.281 0-.823.072-2.468.084-1.655.084-2.478 0-.406-.23-.468-.354-.084-2.52-.084-2.175 0-2.54.084-.229.052-.229.468 0 .812.053 2.436.052 1.614.052 2.426 0 .313-.281.365-.334.062-1.958.062-1.405 0-1.79-.062-.302-.052-.302-.323 0-1.125.104-3.394.114-2.27.114-3.405 0-1.207-.104-3.623-.104-2.426-.104-3.633 0-.23.219-.23.322 0 .968.032.656.03.979.03.333 0 .999-.03.677-.032 1.01-.032.177 0 .177.188 0 .78-.115 2.342-.114 1.552-.114 2.333 0 .364.198.426.27.084 2.665.084 2.228 0 2.582-.084.25-.062.25-.426 0-.75-.073-2.26-.073-1.52-.073-2.28 0-.323.26-.323.302 0 .917.032.624.03.937.03.302 0 .916-.03.624-.032.937-.032.302 0 .302.25 0 1.198-.104 3.613-.094 2.416-.094 3.623 0 1.135.104 3.405.115 2.27.115 3.394z"/><path id="path34535" d="M136.063 358.2q0 3.249-2.072 5.446-2.114 2.228-5.352 2.228-3.217 0-5.34-2.249-2.083-2.197-2.083-5.424 0-3.238 2.082-5.446 2.124-2.259 5.341-2.259 3.197 0 5.33 2.26 2.094 2.228 2.094 5.445zm-3.946-.02q0-1.562-.948-2.655-.989-1.145-2.53-1.145-1.468 0-2.488 1.187-.99 1.145-.99 2.634 0 1.593.928 2.655.978 1.114 2.55 1.114 1.468 0 2.499-1.177.979-1.124.979-2.613z"/><path id="path34532" d="M152.704 363.136q0 .166-.218.437-1.916 2.28-5.091 2.28-3.249 0-5.269-2.218-1.967-2.144-1.967-5.414 0-3.165 1.926-5.372 2.01-2.311 5.112-2.311 3.373 0 5.289 2.072.208.229.208.406 0 .198-.729 1.468-.718 1.27-.906 1.426-.083.083-.208.083-.052 0-.52-.416-.563-.5-1.104-.78-.823-.417-1.707-.417-1.53 0-2.447 1.145-.843 1.062-.843 2.624 0 1.582.843 2.654.916 1.167 2.447 1.167.905 0 1.717-.396.531-.26 1.083-.729.458-.396.51-.396.104 0 .209.115.166.187.905 1.301.76 1.156.76 1.27z"/><path id="path34529" d="M169.575 364.906q0 .447-.385.583-.312.104-1.645.104-1.28 0-1.874-.104-.281-.053-.375-.105-.083-.062-.218-.301-.76-1.396-1.51-2.79-1.24-2.25-1.479-2.479-1.124.406-1.124.583 0 .781.063 2.364.062 1.572.062 2.363 0 .323-.281.365-.541.083-1.957.083-1.354 0-1.791-.083-.302-.063-.302-.323 0-1.125.104-3.394.115-2.27.115-3.405 0-1.208-.105-3.623-.104-2.426-.104-3.634 0-.229.219-.229.323 0 .968.032.656.03.979.03.333 0 .989-.03.656-.032.979-.032.177 0 .177.188 0 .77-.084 2.332-.073 1.551-.073 2.322 0 .895.49.895 1.239 0 1.926-.677.51-.5 1.03-1.822.334-1.01 1.094-2.977.114-.26.468-.26.271 0 .812.03.552.032.823.032.281 0 .833-.021.562-.02.833-.02.25 0 .25.239 0 .343-.438 1.676-1.29 3.935-2.967 4.914-.344.198-.344.323 0-.01 1.916 3.123 1.926 3.134 1.926 3.728z"/><path id="path34526" d="M184.364 362.25q0 .448-.177 1.646-.188 1.301-.333 1.55-.125.199-.344.199-.094 0-.312-.031-.76-.105-4.436-.105-.801 0-2.384-.01-1.582-.01-2.374-.01-.343 0-.343-.302 0-1.166.125-3.499.135-2.342.135-3.508 0-1.187-.125-4.425-.03-.833-.114-2.488l-.01-.146q-.021-.24.26-.24.77 0 2.31.042 1.552.042 2.323.042.76 0 2.29-.042t2.29-.042q.542 0 .625.407.052.239.157 1.457.114 1.208.114 1.468 0 .219-.208.219-.063 0-.219-.01-2.77-.23-4.976-.23-.552 0-.677.26-.052.126-.052.802 0 .708.208.937.177.198.677.198.104 0 .406-.01.302-.021.5-.021 1.311 0 2.654-.073l.573-.052q.354-.042.562-.042.25 0 .25.24 0-.219-.187 1.593-.084.833-.084 1.666 0 .208-.302.208l-.937-.104q-.593-.063-2.707-.063h-1.103q-.427 0-.5.208-.01.052-.01.646 0 .791.104 1.02.177.396 1.332.469h1.52q.552 0 1.635-.094 1.093-.104 1.635-.104.229 0 .229.375z"/><path id="path34523" d="M200.62 354.66q0 .448-.166.782-1.364 2.696-3.717 5.674-.333.437-.333.791 0 .552.062 1.655.063 1.104.063 1.645 0 .188-.084.23-.02.01-.28.052-.375.062-1.875.062-1.51 0-1.926-.062-.291-.042-.291-.302 0-.552.093-1.677.094-1.134.094-1.697 0-.333-.25-.718-1.26-1.78-3.602-5.456-.24-.406-.24-.666 0-.625-.062-1.874-.063-1.25-.063-1.874 0-.344.209-.344.635 0 1.926.053 1.29.052 1.936.052.24 0 .24.156 0 .53-.052 1.603-.042 1.062-.042 1.593 0 .312.916 1.562.729.978 1.198 1.51.426-.5 1.134-1.5.896-1.25.896-1.51 0-.52-.084-1.572-.072-1.061-.072-1.582 0-.219.093-.25h.26q.625 0 1.875-.052 1.26-.063 1.894-.063.209 0 .209.448 0 .552.02 1.666.021 1.104.021 1.666z"/><path id="path34520" d="M228.103 363.136q0 .166-.219.437-1.915 2.28-5.09 2.28-3.25 0-5.27-2.218-1.967-2.144-1.967-5.414 0-3.165 1.926-5.372 2.01-2.311 5.112-2.311 3.374 0 5.29 2.072.207.229.207.406 0 .198-.728 1.468-.719 1.27-.906 1.426-.083.083-.208.083-.052 0-.52-.416-.563-.5-1.105-.78-.822-.417-1.707-.417-1.53 0-2.447 1.145-.843 1.062-.843 2.624 0 1.582.843 2.654.917 1.167 2.447 1.167.906 0 1.718-.396.53-.26 1.083-.729.458-.396.51-.396.104 0 .208.115.167.187.906 1.301.76 1.156.76 1.27z"/><path id="path34517" d="M241.725 365.666q-.895 0-2.332-.042l-2.332-.052-3.113-.042q-.468.01-1.343-.041-.302-.053-.302-.323 0-1.135.031-3.394.042-2.27.042-3.405 0-1.208-.073-3.613-.073-2.415-.073-3.623 0-.229.312-.229.313 0 .927.031.625.032.927.032.343 0 1.02-.032.677-.041 1.02-.041.156 0 .146.198l-.01.135q-.125 1.957-.281 5.882l-.01 2.749q0 1.333.01 1.947l.02.25q.01.125.156.156h.271q.937 0 2.8-.094 1.875-.104 2.812-.104.281 0 .281.24 0 1.78-.26 3.071-.052.27-.219.323-.052.02-.427.02z"/><path id="path34514" d="M259.18 360.377q0 2.654-.636 3.623-1.166 1.77-5.82 1.77-2.103 0-3.238-.323-1.811-.52-2.353-1.989-.27-.718-.27-2.56 0-.428.03-1.271.032-.843.032-1.26 0-1.208-.115-3.623-.114-2.415-.114-3.613 0-.25.219-.25.635 0 1.915.053 1.291.052 1.926.052.26 0 .26.229 0 1.374-.093 4.123-.083 2.738-.083 4.112 0 1.635.343 2.207.458.781 1.916.781 2.134 0 2.134-2.072 0-1.51-.073-4.529t-.073-4.529q0-.322.26-.322.615 0 1.854-.052 1.239-.053 1.853-.053.302 0 .302.25 0 1.198-.104 3.613-.094 2.415-.094 3.623 0 .333.01 1.01.011.666.011 1z"/><path id="path34511" d="M276.467 360.99q0 1.917-1.198 3.176-1.364 1.448-4.789 1.448-.26 0-.75-.01h-.739q-3.842 0-4.57-.157-.302-.063-.302-.323 0-1.114.125-3.373.135-2.26.135-3.384 0-1.208-.125-4.54-.031-.853-.115-2.56l-.01-.146q-.01-.198.323-.24.343-.041 2.415-.041 3.321 0 3.884.02 2.56.094 3.779.834 1.614.989 1.614 3.342 0 .614-.375 1.301-.27.49-.708.979-.385.427-.385.395 0 .073.27.23.73.416 1.146 1.322.375.812.375 1.728zm-4.477-5.86q0-.896-.896-1.188-.5-.156-1.645-.156-1.124 0-1.124.167 0 .198-.042.604-.031.395-.031.593 0 1.041.177 1.166.114.094 1.322.094 2.239 0 2.239-1.28zm.312 5.82q0-.938-.78-1.271-.5-.208-1.625-.208-1.343 0-1.458.104-.114.094-.114 1.27 0 1.229.135 1.364.136.125 1.5.125 1.124 0 1.582-.177.76-.302.76-1.208z"/></g></svg>