<svg xmlns="http://www.w3.org/2000/svg" id="Layer_1" width="295.83" height="344.796" data-name="Layer 1" version="1.1"><defs id="defs4"><clipPath id="clipPath1231" clipPathUnits="userSpaceOnUse"><path id="path1233" d="M63.28 0v344.797h68.868a32.34 32.34 0 0 1-1.191-.17 33.72 33.72 0 0 1-1.36-.26 64.033 64.033 0 0 1-1.3-.289c-.423-.098-.844-.201-1.266-.303l-1.246-.3-1.258-.303a312.013 312.013 0 0 0-2.521-.598l-1.238-.295a155.89 155.89 0 0 0-1.207-.281c-.403-.092-.806-.18-1.21-.27l-1.206-.263.507-2.342-.675-.018-1.463-.037-1.47-.037-1.47-.039c-.322-.009-.162-.004-.484-.012l.088-3.347-.305-.01a62.829 62.829 0 0 1-.951-.045c-.277-.015-.554-.03-.83-.047a41.11 41.11 0 0 1-.719-.053l-.525-.045c-.137-.01-.274-.02-.41-.033a6.524 6.524 0 0 1-.705-.084l.603-3.486h-.057c-.363 0-.726 0-1.09-.004-.272-.005-.546-.01-.818-.026a12.978 12.978 0 0 1-.432-.03l.215-2.31-1.449-.156-1.77-.191a176.264 176.264 0 0 0-2.845-.28 186.259 186.259 0 0 0-2.35-.19 102.29 102.29 0 0 0-1.955-.124l-.767-.039a94.24 94.24 0 0 0-.532-.025c-.085-.004-.17-.01-.255-.012h-.057v-5.66l-.629-.055-.637-.056a68.386 68.386 0 0 1-.623-.059l-.545-.055-.49-.05-.45-.053-.366-.045a5.334 5.334 0 0 1-.74-.145l1.58-5.744c-.183-.045.113.024-.088-.021-.024-.005.016-.001.064.008l.281.035.37.04a170.789 170.789 0 0 0 .98.102c.19.02.377.036.566.053.084.007.167.016.25.024l-.066-2.739c.138-.003.276.002.414.008l.42.02a35.125 35.125 0 0 1 1.219.074l.677.053.71.058a95.671 95.671 0 0 1 1.59.147 127.634 127.634 0 0 0 1.903.181l1.106.096 1.158.098 1.2.097c.407.034.814.067 1.222.098.427.034.854.065 1.281.098l1.34.1 1.404.099c.318.022.159.01.477.031l-.027.402a464.286 464.286 0 0 0 3.04.188l1.675.094a633.785 633.785 0 0 0 3.375.177c.562.028 1.123.054 1.685.08.564.027 1.128.05 1.691.075a563.828 563.828 0 0 0 7.399.26c.663.016 1.327.032 1.99.046a275.119 275.119 0 0 0 7.903.06c.666-.004 1.333-.014 2-.023.685-.01 1.371-.018 2.056-.029l2.082-.035c.689-.012 1.378-.025 2.067-.04.677-.014 1.352-.031 2.029-.048a183.521 183.521 0 0 0 3.895-.127 145.455 145.455 0 0 0 5.552-.348 185.25 185.25 0 0 0 6.889-.72 72.267 72.267 0 0 0 1.564-.219c.518-.078 1.036-.159 1.553-.242.51-.082 1.017-.168 1.525-.254l1.518-.256c.493-.082.986-.167 1.478-.252l1.479-.258c.495-.086.99-.171 1.484-.258.492-.085.984-.17 1.475-.257l1.48-.262 1.489-.262c.494-.086.99-.174 1.484-.262.49-.085.978-.172 1.467-.26.483-.085.965-.175 1.447-.263.479-.086.958-.175 1.436-.264.49-.09.98-.18 1.47-.267.506-.09 1.013-.179 1.52-.264.527-.09 1.055-.169 1.584-.248l.096-.014a15.5 15.5 0 0 0 .529-.271 14.315 14.315 0 0 0 1.291-.781l.293-.198c.015-.01.097-.069.08-.054a2.396 2.396 0 0 0-.336.322l.715.62.467-.065c.425-.058.85-.116 1.275-.172l.246 1.86.207-.077c.4-.15.8-.299 1.198-.451.357-.136.714-.274 1.07-.414.333-.13.665-.262.998-.393a69.356 69.356 0 0 1 1.853-.703c.27-.095.54-.19.809-.283.266-.092.531-.184.799-.274.257-.086.516-.172.775-.253.14-.044.28-.088.418-.135.024-.01.09-.043.07-.028-.054.045-.247.067-.25.13l2.975 5.163a4.69 4.69 0 0 1-.709.317c-.235.086-.475.16-.715.236-.225.071-.45.146-.674.22a72 72 0 0 0-.744.255l-.775.273c-.258.092-.514.189-.77.285l-.187.073c.027 0 .055 0 .082.002.157.007.315.013.473.023.053.004.106.005.16.012l-.13 2.752c.354.124.697.276 1.028.459.94.593 1.455 1.269 1.836 2.308.23.723.207 1.466.106 2.205-.1.672-.356 1.295-.67 1.891-.266.484-.595.93-.938 1.361-.31.385-.647.745-.988 1.102a19.932 19.932 0 0 1-2.242 1.996c-.424.327-.869.624-1.32.91-.435.269-.88.52-1.329.764-.456.246-.924.47-1.394.687-.465.212-.935.407-1.409.598-.433.173-.87.344-1.304.514l-1.256.488c-.406.157-.81.315-1.215.475-.4.157-.797.318-1.195.478a98.617 98.617 0 0 1-2.447.957c-.405.152-.81.302-1.215.451a61.77 61.77 0 0 1-2.492.86c-.426.136-.854.264-1.282.39a65.697 65.697 0 0 1-2.549.68 54.223 54.223 0 0 1-2.627.57c-.46.09-.922.17-1.384.25a116.408 116.408 0 0 1-4.15.645c-.265.036-.53.065-.794.095l-.002 4.74h55.793V0Zm47.712 323.967.08.008v-.004l-.08-.004zm79.387.092 1.1 3.798a6.15 6.15 0 0 1-.82.172c-.142.022-.283.04-.425.059l-.459.06c-.18.022-.36.046-.539.069l-.584.074c-.222.03-.445.058-.668.086l-.197.023.098 1.108c.31-.125.622-.25.933-.373.416-.164.83-.328 1.246-.489.413-.16.825-.317 1.237-.478.416-.163.833-.327 1.248-.492.382-.154.763-.31 1.139-.48.35-.163.7-.328 1.04-.51.336-.183.67-.37.997-.569.294-.185.583-.377.859-.59.28-.216.559-.436.822-.674.175-.158.343-.324.512-.488l-.36-.02-1.558-.076-1.603-.072a225.032 225.032 0 0 0-3.266-.119l-.752-.02zm-32.47 20.441.087.297h10.535a226.875 226.875 0 0 1-6.428-.123 229.66 229.66 0 0 1-4.195-.174z" style="fill:red;fill-opacity:1;fill-rule:nonzero;stroke:none"/></clipPath><style id="style2">.cls-1{fill:#912200}.cls-2,.cls-7{fill:#ffb600}.cls-10{fill:#fff}.cls-8{fill:#ad3000}.cls-7,.cls-8{stroke:#ffb600;stroke-linecap:round;stroke-linejoin:round;stroke-width:4.45px}.cls-9{fill:#6b1400}.cls-11{fill:#c14721}</style></defs><path id="path142" d="M293.36 17.26H2.44A2.46 2.46 0 0 0 0 19.75v171.42c.4 9.12 1.12 20.67 2.3 27.5.16.81.33 1.64.51 2.5.08.35.16.69.22 1a177.49 177.49 0 0 0 16.17 45c10.09 19.09 23.32 34.48 39.34 45.74 17.62 12.39 38.56 19.69 62.27 21.71a2.41 2.41 0 0 0 1.57.58h49.44a2.38 2.38 0 0 0 1.63-.64c23.52-1.77 44.37-8.68 62-20.56 16.17-10.91 29.6-25.94 39.92-44.68a178.49 178.49 0 0 0 19.21-56.86c.74-.43 1.25-12.71 1.25-13.64V19.75a2.47 2.47 0 0 0-2.47-2.49z" style="fill:#ad3000"/><path id="path144" d="M285.06 27.99H10.72v169.89c.33 4.31 10 118 121.54 119.62v.19h32.85v0c112.14-2.77 119.94-119.71 119.94-119.71l-.2-.05h.2z" style="fill:#d4731d;stroke:#ffb600;stroke-width:4.44999981px;stroke-linecap:round;stroke-linejoin:round"/><path id="path146" d="M10.73 197.88c.33 4.31 10 118 121.54 119.62v.19h32.85v0a145.56 145.56 0 0 0 20.9-2v-69.52H63.25c-34.21-2.59-52.52-48.29-52.52-48.29z" class="cls-7" style="fill:#ffb600;stroke:#ffb600;stroke-width:4.44999981px;stroke-linecap:round;stroke-linejoin:round"/><path id="path148" d="M35.32 162.17s.56-21.93 23.45-41.63c22.89-19.7 9.58-43.61-10.53-35.72-20.11 7.89-26.09 22.69-12.92 77.35z" class="cls-8" style="fill:#ad3000;stroke:#ffb600;stroke-width:4.44999981px;stroke-linecap:round;stroke-linejoin:round"/><path id="path150" d="M83.03 77.54S79.49 58.9 54.44 64.17c-25.05 5.27-26.48-10.84-14.2-20.26 12.28-9.42 45.73-5.46 42.79 33.63z" class="cls-8" style="fill:#ad3000;stroke:#ffb600;stroke-width:4.44999981px;stroke-linecap:round;stroke-linejoin:round"/><path id="path152" d="M75.89 232.24s-14.4-11.17-16.9-34.76c-2.5-23.59-24.71-27.31-28.81-11.25-4.1 16.06 2.98 26.99 45.71 46.01z" class="cls-8" style="fill:#ad3000;stroke:#ffb600;stroke-width:4.44999981px;stroke-linecap:round;stroke-linejoin:round"/><path id="path154" d="M247.54 84.86c-20.11-7.89-33.41 16-10.53 35.72 22.88 19.72 23.43 41.59 23.43 41.59 13.19-54.66 7.21-69.42-12.9-77.31z" class="cls-8" style="fill:#ad3000;stroke:#ffb600;stroke-width:4.44999981px;stroke-linecap:round;stroke-linejoin:round"/><path id="path156" d="M255.5 43.95c12.29 9.42 10.81 25.57-14.19 20.26-25-5.31-28.55 13.33-28.55 13.33-2.95-39.09 30.46-43.01 42.74-33.59z" class="cls-8" style="fill:#ad3000;stroke:#ffb600;stroke-width:4.44999981px;stroke-linecap:round;stroke-linejoin:round"/><path id="path158" d="M265.61 186.23c-4.11-16.08-26.32-12.34-28.82 11.25s-16.9 34.76-16.9 34.76c42.74-19.02 49.82-29.93 45.72-46.01z" class="cls-8" style="fill:#ad3000;stroke:#ffb600;stroke-width:4.44999981px;stroke-linecap:round;stroke-linejoin:round"/><path id="path160" d="M285.05 197.88c-.33 4.31-10 118-121.53 119.62v.19h-32.86v0a145.55 145.55 0 0 1-20.89-2v-69.52h122.76c34.21-2.59 52.52-48.29 52.52-48.29z" class="cls-7" style="fill:#ffb600;stroke:#ffb600;stroke-width:4.44999981px;stroke-linecap:round;stroke-linejoin:round"/><path id="path162" d="M226.65 160.99a46.19 46.19 0 0 0-4.9-19.08 106.28 106.28 0 0 0-8.62-14.18c-1.58-2.29-3.07-4.46-3.9-6l-1.22-2.24-.32-.58c-6.62-12.13-14.12-25.88-14.49-36.38V60.17l1.46-2.45a23 23 0 0 0 4.45-13.55v-14.3l.41-22.2V0H89.97v7.59l.31 22.26v14.32a22.94 22.94 0 0 0 5.16 14.45l1.29 2.15v21.74c-.37 10.53-7.87 24.28-14.49 36.41l-.11.19-1.43 2.63c-.83 1.52-2.32 3.69-3.9 6a107.28 107.28 0 0 0-8.62 14.16 46.43 46.43 0 0 0-4.9 19.09v100.43a22.84 22.84 0 0 0 .87 6.25 36.86 36.86 0 0 0 31 28.56 51.79 51.79 0 0 0 103.42-.74 36.83 36.83 0 0 0 27.19-27.77 23 23 0 0 0 .88-6.3v-99.81c.02-.2.02-.44.01-.62z" class="cls-2" clip-path="url(#clipPath1231)" style="fill:#ffb600"/><path id="path164" d="M221.25 161.17c-.34-12.53-7.12-22.41-12.57-30.35-1.66-2.42-3.23-4.7-4.2-6.48l-1.53-2.81c-6.92-12.69-14.77-27.06-15.15-38.88V58.69l2.37-4a17.42 17.42 0 0 0 3.54-10.52V29.82l.41-22.23V5.41H95.37v2.18l.31 22.23v14.35a17.5 17.5 0 0 0 4.16 11.31l2.27 3.79v23.34c-.38 11.82-8.23 26.19-15.15 38.88l-1.52 2.82c-1 1.78-2.54 4.06-4.19 6.48-5.46 7.94-12.24 17.82-12.58 30.35v100.28a17.57 17.57 0 0 0 .71 5 31.47 31.47 0 0 0 30.72 24.75h89.71a31.47 31.47 0 0 0 30.74-24.8 17.57 17.57 0 0 0 .71-5v-99.76c0-.15 0-.31-.01-.44z"/><path id="path168" d="M189.13 130.43c-8-14.74-18.36-32.64-18.8-49.79v-30l6.54-8.65V23.27s1.88-6.74-8.24-6.74h-46.19c-12.55 0-10.23 6.74-10.23 6.74v18.69l7.38 8.68v30c-.44 17.15-10.8 35-18.8 49.79-.44.81-.93 1.63-1.44 2.46-2.76 4.44-6.42 9.15-9.19 14.08a37.81 37.81 0 0 0-2.64 5.64 21.46 21.46 0 0 0-1.39 6.78v54.78h117.66v-54.78c-.28-10.49-9.95-20.3-14.66-28.96z" class="cls-1" style="fill:#912200"/><path id="path170" d="M189.13 130.43c-8-14.74-18.36-32.64-18.8-49.79v-30l6.54-8.65V23.27s1.88-6.74-8.24-6.74h-46.19c-12.55 0-10.23 6.74-10.23 6.74v18.69l7.38 8.68v30c-.44 17.15-10.8 35-18.8 49.79-.44.81-.93 1.63-1.44 2.46-2.76 4.44-6.42 9.15-9.19 14.08a37.81 37.81 0 0 0-2.64 5.64 21.46 21.46 0 0 0-1.39 6.78v54.78h60l26.46-38c8.43-9.23-2.28-31.11-2.28-31.11-13.93-19.62-14.57-63.62-14.57-63.62l12.29-2.67v1.79c.38 17.15 9.44 35 16.44 49.79 4.11 8.66 12.57 18.47 12.81 29v54.82h6.49v-54.78c-.26-10.49-9.93-20.3-14.64-28.96z" class="cls-9" style="fill:#6b1400"/><path id="path172" d="M170.37 81.52h-2.29c.66 16.88 9.53 34.42 16.41 48.91 4.11 8.66 12.57 18.47 12.81 29v54.74h6.49v-54.78c-.28-10.49-10-20.3-14.66-29-7.86-14.45-18-31.99-18.76-48.87z" class="cls-10" style="fill:#fff"/><path id="path174" d="M184.49 130.43c-7-14.74-16.06-32.64-16.44-49.79v-30l5.72-8.65V23.27s1.63-6.74-7.21-6.74h-40.4c-11 0-8.94 6.74-8.94 6.74v18.69l6.45 8.68v30c-.38 17.15-9.44 35-16.44 49.79-.38.81-.81 1.63-1.26 2.46-2.41 4.44-5.61 9.15-8 14.08a41.34 41.34 0 0 0-2.32 5.64 24.73 24.73 0 0 0-1.21 6.78v54.78H197.3v-54.78c-.24-10.49-8.7-20.3-12.81-28.96z" class="cls-1" style="fill:#912200"/><path id="path176" d="M197.3 159.39c-.24-10.49-8.7-20.3-12.81-29-7-14.74-16.06-32.64-16.44-49.79v-1.79l-12.29 2.67s.64 44 14.57 63.62c0 0 10.71 21.88 2.28 31.11l-26.46 38h51.15z" class="cls-11" style="fill:#c14721"/><path id="path178" d="M172.61 176.25a32.74 32.74 0 0 1-55.78 0H86.12v81h118v-81z"/><path id="path180" d="M86.12 257.29h117.67v.21a14 14 0 0 1-14 14H100.1a14 14 0 0 1-14-14v-.21z" class="cls-9" style="fill:#6b1400"/><path id="path182" d="M94.31 257.29h109.48v.71a13.48 13.48 0 0 1-13.48 13.48H107.8A13.48 13.48 0 0 1 94.32 258v-.71z" class="cls-1" style="fill:#912200"/><path id="path184" d="M168.63 16.53h-46.19c-12.55 0-10.23 6.74-10.23 6.74v18.69l7.38 8.68v30.88h50.75V50.61l6.54-8.65V23.27s1.87-6.74-8.25-6.74z"/><path id="rect186" d="M119.58 68.55h50.75v4.8h-50.75z" class="cls-2" style="fill:#ffb600"/><path id="rect188" d="M86.44 243.58h117.67v5.12H86.44z" class="cls-2" style="fill:#ffb600"/><path id="path190" d="M146.15 266.96h43.66c7.72 0 14-4.26 14-9.52v-.15h-57.66z" class="cls-11" style="fill:#c14721"/><path id="path192" d="M189.81 271.48a14 14 0 0 0 14-14v-.21h-6.49s.64 12.51-7.51 14.21z" class="cls-10" style="fill:#fff"/><path id="rect208" d="M107.97 15.83h72.36v4.48h-72.36z" class="cls-10" style="fill:#fff"/><path id="polyline210" d="m282.6 281.87 4.36 25.8.93-27.41" class="cls-10" style="fill:#fff" transform="translate(-107.56 -262.83)"/><path id="path212" d="M114.44 205.47v17.63l-1.16 1.88 1.16 2.13v7.2h5v-10.26h5v10.26h5v-35h-8.79a6.18 6.18 0 0 0-6.21 6.16zm10 13.59h-5v-13.59a1.2 1.2 0 0 1 1.18-1.19h3.82z" class="cls-10" style="fill:#fff"/><path id="path214" d="M148.44 229.05h-3.79a1.2 1.2 0 0 1-1.21-1.18v-25.28h-5v20.19l-1.36 2.2 1.36 2.5v.39a6.18 6.18 0 0 0 6.18 6.18h8.82v-31.46h-5z" class="cls-10" style="fill:#fff"/><path id="path216" d="M162.3 205.41v17.37l-1.36 2.2 1.36 2.5v.39a6.18 6.18 0 0 0 6.18 6.18h8.66v-8.17h-5v3.17h-3.7a1.2 1.2 0 0 1-1.19-1.18v-22.46a1.21 1.21 0 0 1 1.19-1.19h3.66v3.95h5v-8.95h-8.66a6.19 6.19 0 0 0-6.14 6.19z" class="cls-10" style="fill:#fff"/><path id="path218" d="m205.09 224.98-1.3-2.11v-3h-5v9.3h-5.35a2.11 2.11 0 0 1-2.11-2.12v-13.19h7.57v-5h-7.57v-9.69a2.1 2.1 0 0 1 2.11-2.11h5.76v5.56h5v-10.59h-10.76a7.12 7.12 0 0 0-7.11 7.11v2.9l-1.16 1.88 1.16 2.13V227a7.12 7.12 0 0 0 7.11 7.11h10.37v-6.74z" class="cls-10" style="fill:#fff"/><path id="path220" d="M104.76 222.87v-6.81a7.14 7.14 0 0 0-2.43-5.35l-.23-.2-9.33-4.8c-.19-.18-.4-.36-.48-.46a.62.62 0 0 1 0-.16v-5.92a2.11 2.11 0 0 1 2.11-2.11h5.37v5.37h5v-5.34a4.8 4.8 0 0 0-1-3.5 4.48 4.48 0 0 0-3.59-1.53h-5.74a7.12 7.12 0 0 0-7.11 7.11v3.67l-1.16 1.88 1.39 2.56v-.4a6.15 6.15 0 0 0 2 2.71l.35.31 9.27 4.77a2.09 2.09 0 0 1 .55 1.42v10.94a2.12 2.12 0 0 1-2.11 2.12h-5.37v-9.22h-5v14.21h10.37a7.12 7.12 0 0 0 7.1-6.72l1.31-2.41z" class="cls-10" style="fill:#fff"/><path id="path222" d="M160.94 81.52s-.24 33.9 12 54 13.43 23.6 13 40.75h-13.33l-24-59.55 2.65-28.59-2.65-6.59" class="cls-1" style="fill:#912200"/><path id="path224" d="M167.97 158.84v-3a6.73 6.73 0 0 0-6.72-6.72h-2.92v-5.47a6.54 6.54 0 0 0-2.2-5.21 8.18 8.18 0 0 0-6-1.62h-2.47l8.86-16.78-5.08-2.69-10.29 19.47h-6.58v-18.13h-5.76v40.15h5.76v-16.26h16.21a2.77 2.77 0 0 1 1.63.26 1.3 1.3 0 0 1 .19.84v5.49h-5.84a6.73 6.73 0 0 0-6.72 6.72v17.28a6.72 6.72 0 0 0 6.72 6.72h14.52a6.73 6.73 0 0 0 6.72-6.72v-5h-5.76v5a1 1 0 0 1-1 1h-14.51a1 1 0 0 1-1-1v-17.33a1 1 0 0 1 1-1h5.84v4h5.76v-4h2.92a1 1 0 0 1 1 1v3z" class="cls-11" style="fill:#c14721"/><path id="path226" d="M163.49 157.24v-3a6.74 6.74 0 0 0-6.73-6.72h-2.91v-5.47a6.54 6.54 0 0 0-2.2-5.21 8.18 8.18 0 0 0-6-1.62h-2.47l8.86-16.78-5.09-2.69-10.29 19.47h-6.58v-18.13h-5.76v40.15h5.76v-16.26h16.21a2.85 2.85 0 0 1 1.63.27 1.3 1.3 0 0 1 .19.84v5.47h-5.84a6.74 6.74 0 0 0-6.73 6.72v17.35a6.73 6.73 0 0 0 6.73 6.72h14.51a6.73 6.73 0 0 0 6.73-6.72v-5h-5.76v5a1 1 0 0 1-1 1h-14.5a1 1 0 0 1-1-1v-17.39a1 1 0 0 1 1-1h5.84v4h5.76v-4h2.91a1 1 0 0 1 1 1v3z" class="cls-9" style="fill:#6b1400"/><path id="path228" d="M165.73 157.24v-3a6.73 6.73 0 0 0-6.72-6.72h-2.92v-5.47a6.54 6.54 0 0 0-2.2-5.21 8.18 8.18 0 0 0-6-1.62h-2.45l8.86-16.78-5.09-2.69-10.29 19.47h-6.58v-18.13h-5.76v40.15h5.76v-16.26h16.21a2.85 2.85 0 0 1 1.63.27 1.3 1.3 0 0 1 .19.84v5.47h-5.84a6.73 6.73 0 0 0-6.72 6.72v17.35a6.72 6.72 0 0 0 6.72 6.72h14.52a6.73 6.73 0 0 0 6.72-6.72v-5h-5.76v5a1 1 0 0 1-1 1h-14.52a1 1 0 0 1-1-1v-17.39a1 1 0 0 1 1-1h5.84v4h5.76v-4h2.92a1 1 0 0 1 1 1v3z" class="cls-1" style="fill:#912200"/><path id="polyline230" d="m231.97 401.95-2.48 4.34 2.48 4.22" class="cls-9" style="fill:#6b1400" transform="translate(-107.56 -262.83)"/><path id="polyline232" d="m252.67 422.6 2.49 4.33-2.49 4.22" class="cls-11" style="fill:#c14721" transform="translate(-107.56 -262.83)"/><path id="path234" d="M146.03 60.83s-16.18 1.21-16.18-17.47l3.67.54a21.41 21.41 0 0 1 3.75-6.45 12.2 12.2 0 0 0 3.34-8.61l6.69 11.63 2.06 10" class="cls-11" style="fill:#c14721"/><path id="path236" d="M146.03 60.83s-13.63-2.44-12.44-13.38l3.55 2.58a17.44 17.44 0 0 1 2.92-11.49c3.85-5.82.55-9.7.55-9.7s9.27 2.91 8.74 10.94c0 0 2.43-.55 2.67-4.15 0 0 4.4 9.55 0 15.78l4.38-2.37s-.41 10.13-10.37 11.79z" class="cls-2" style="fill:#ffb600"/></svg>