<svg xmlns="http://www.w3.org/2000/svg" xml:space="preserve" width="988.5" height="1264.3" viewBox="0 0 261.6 334.5"><path fill="#fff" stroke="#000" stroke-width=".3" d="m102 143.4 10.2 96.6-35.8-6.6-11.8-7.2 9.6 55.2 11.6 8.7 25.9 6.1 40.7 3 39.4-3.5 29.6-9.8 6.6-7.9 8.2-51.3-11.4 5.7-32.8 6.7 10.4-95.7-58 2.7z"/><path fill="#929ba7" d="M150.1 75a515.6 515.6 0 0 0-20.6.4 83 83 0 0 0-8.2.6l-4.2.3a199 199 0 0 1-4.4.4l-1.9.3-3.3.4A129.6 129.6 0 0 0 91 79.8a79 79 0 0 0-4 .8l-3.8.8a32 32 0 0 0-3.3.8 47.5 47.5 0 0 1-3.6.9 81.2 81.2 0 0 0-23.6 9c-3.8 2-8.3 6.1-10 9.4-1.2 2.3-1.3 3.1-1.4 9.3 0 9 .2 10.9 2 13.2l3.4-1c3.1-.9 6.3-1.1 9.6-1.2a408.7 408.7 0 0 1 6.3-2.4c9.2-3.2 18.4-6.5 28-9 7.6-1.7 15.3-3 23-4.6 7-1.7 14-3.7 21.1-5.2 5.7-1.1 11.3-2 17-2.9 5.7-.9 11.4-1.8 17.2-2a129.4 129.4 0 0 1 3 0 117.4 117.4 0 0 1 16.9 1.3 42.5 42.5 0 0 1 7.8-.5 78.5 78.5 0 0 1 14.4 1.8c2.2.6 1.9.4 4.2 1.2l1.5.6c.1 0-.3-.1-.4 0a34 34 0 0 1 6.6 2.2c19 9.5 26.4 20.9 24 29.5 2.6.5 5 1.4 7.3 2.7.5-3 1-5.8 1.3-6.6.1-.7.6-1.5 1-2 2.1-2.3 3-4.7 2.7-6.6-.2-.7-.2-1.2 0-1.6.3-.3.3-2.4.3-7 0-6.2 0-6.4-.8-8.3a11 11 0 0 0-2.6-4.2l-3-3a61.6 61.6 0 0 1-2-1.5A78.9 78.9 0 0 0 227 83.6c-3-1-7.4-2-10.4-2.5a67 67 0 0 1-3.3-.7 24 24 0 0 0-3-.5 148 148 0 0 0-14.3-2.2 235.9 235.9 0 0 1-5.1-.7 279 279 0 0 0-20-1.6 531.8 531.8 0 0 1-5.7-.3l-15-.1zm37.2 67.6-4.8.6-4.8.4h.3-.2l-1.9.4c-3.6.6-7.2.8-10.8 1l-8.1.2c-1.7 0-3.3.2-4.9.5-1.4.2-2.8.6-4.2 1l-5.3 1.6-2 .5a379.8 379.8 0 0 0 55.5-2.5 39.3 39.3 0 0 0-8.8-3.6zm-30.4 11-4.4.1a37.8 37.8 0 0 0-20.4 4.2c-7.7 3.7-8.2 3.9-11.7 4.1-2.7.2-3 .2-3.2.8a2 2 0 0 0-.2 1.2c.2.8 3 3.5 4.1 3.8 1.1.4 1.3.7.4 1l-1.2.6c-1 .7-3 1.1-4.5 1-1.2-.2-1.3-.1-1.7.4l-.5.8 1.3 1.6c1.3 1.5 3.1 2.6 4.5 2.6 1 0 1 .3.4.8-.5.4-1.6 2.9-2.4 5.2a175.8 175.8 0 0 1-3.2 8.9c0 .2.2.7.5 1l.6.5-.8 2.9c-2.2 7.5-2.3 8-1.3 8.6.5.4 1 .4 1.8.3a9 9 0 0 1 3.9.7c2.6.7 3 .9 4.5 2.3s1.7 1.6 1.4 2c-1 1.7-1.6 3-1.6 3.8 0 .8.6 2.4 1.6 3.7a107.5 107.5 0 0 1 4.7 8.1 43.7 43.7 0 0 0-3.4 12.8c.1 1.2.1 1.2 1.4 1.7 2 .8 5 .5 6.9-.6 1.6-.9 1.6-1 2.6 1.6.5 1.3.7 2.2.7 3.6 0 2.4.2 2.9 1.8 4.8a6 6 0 0 1 1.5 2.8c0 .7.6 2.2 1 3.3.6 1 1.1 2.5 1.3 3 .1.7.6 2 1 3 1 1.8 1.7 2.4 2.7 1.8.8-.5 1-.4 1.8 1.4l1.5 2.5c.5.6.9.8 1.7.8 1.3 0 1.8-.6 3.3-3.7.3-.7.7-1.3.8-1.3 0 0 .4 0 .8.3 1.3.5 1.8.1 2.9-2.3l1-2.6c0-.2.4-1.4 1-2.7a17 17 0 0 0 1.2-3.5c.2-1 .5-1.6 1.5-2.8 1.5-1.8 1.8-2.6 1.8-5 0-1 .2-2.2.4-2.7a178.5 178.5 0 0 0 1.3-3l1.8.8c1.5.8 1.8.8 4 .8 3.2 0 4-.3 4-2 .2-2-2-10-3-11.6l-.6-.8.5-.7.6-.9 1-1.9 1.1-1.8 1.7-3c1.9-3.1 2.1-4.1 1.4-5.6-.5-.9-.4-1.1 1.3-3.2a6.1 6.1 0 0 1 5.2-2.1c2.2.3 3-1 3.4-5.3.5-7 .6-7.5.9-7.5.2 0 .5-.2.8-.5.4-.5.4-.7.2-2.2-.7-3.8-3-9.6-5.8-15.2a37 37 0 0 0-7.6-11.9c-6-5.9-8.9-8-12.3-8.5-5-.9-6.2-1-9.7-1zm11.7 4.2c.5 0 2.3 1.5 5.1 4a35 35 0 0 1 6.8 7.6c4 7.4 6.3 12.2 7.4 15.7 1.4 4.4 1.7 5.3 1.3 5.3-.2 0-.6.2-.8.5-.4.4-.5 1.2-.7 4l-.4 5.7-.2 2.2h-1.3c-.7 0-1.8.2-2.5.4l-2.2 1.1c-1 .8-1 .7 1.1-2a9.8 9.8 0 0 0 2.2-4 35.5 35.5 0 0 0 1.2-13.1c0-2-.7-4-2.5-6.9a41.6 41.6 0 0 1-2-3.9c-.6-1-1.1-2-1.3-2l-1.5-2a104 104 0 0 0-7.6-9.6c-2.2-2.4-2.6-3-2-3zm-64.4 3a9.1 9.1 0 0 0-.4.4l.4-.4zm32 10c3.6 0 6.9 2 10.1 6.2 2.1 2.6 2.5 2.8 4.2 3 .6 0 1.5 0 2 .2 1 .2 2-.6 3.7-3.2a10 10 0 0 1 6.3-4.4c3.2-.8 4.3-.7 7.2.7 3.5 1.8 4.8 3.2 7.2 8.3 1 2 2.6 6.5 2.6 7 0 .3-.3.2-1.2-.3-1.3-.6-1.7-.6-4 0-.7.3-2 .6-2.8.7l-2.7.8-2.4 1c-3.3 1.4-4.5 2-5.3 2.6-1 .8-1.3.8-2.3 0a3 3 0 0 0-1-.7c-.2 0-.8 0-1.3-.2-1-.3-1-.4-1.2-1.4-.3-1.6-.8-2.6-1.6-2.8-.6-.1-.8 0-1.2.4l-.5.6-.5-.5c-1-1-2.2-.4-2.7 1.6-.4 1.8-.6 2-1.9 2.2-.5.1-1.3.5-1.8.8-1 .8-1.2.8-2.4-.1-1.3-1-8.4-4-10.3-4.3a35.7 35.7 0 0 1-3.2-.8c-2-.6-2.1-.6-3.4 0l-1 .5.5-1.9c.8-3 1.6-5 2.4-6.5l3.5-6a14.5 14.5 0 0 0 1-1.5c.6-1.4 1.4-1.8 3.3-2h.7zm27 11-1.6.4c-3.8 1.2-6.2 2.7-6.2 4l.2.8c.4.4 1.5.1 2.5-.6.7-.4 2.2-1.1 3.6-1.6 3-1 3.7-1.9 2.4-2.8-.3-.2-.5-.3-.8-.2zm-24.2 1c-1.3 0-1.7.1-2 .5-.8 1.1-.1 1.7 2.4 2.2 2.7.5 4 1 5.8 2l1.6.7c.3 0 1.2-1 1.2-1.3 0-1.4-5.8-4-9-4zm13 7.7c.1.1.3.6.4 1.4l.4 1.7c.3.6 2.3 1.7 3.6 2 .5.2.9.4.9.6 0 .3 0 .3-.4 0-.7-.6-2.6-.9-5.5-.8l-3 .1 1.3-.7c1.3-.8 1.7-1.4 2-3.3 0-.7.2-1 .3-1zm-24.6.7 1.8.3a42 42 0 0 1 7.6 2.5l.8.4-2.1.3c-3.3.5-4.3 1-6.5 2.8l-2.9 2.3-.8.6-.3-.7c-.6-1.7-1-3.7-1-5.4v-1.7h.7c.6.2 1 0 1.7-.6zm48.9 0c.5 0 .7.2 1.3.7 1 .9 1.4 1 2.2.5.6-.2.6-.2.4 2-.1 1.4-.4 3.2-.7 4-.3 1-.7 1.8-.8 1.9a15 15 0 0 1-3-2.2c-3-2.4-4.8-3.2-7.1-3.3-.6 0-1.4 0-1.7-.2-.6-.1-.6-.1.1-.6 1-.6 6-2.2 8-2.6l1.3-.2zm-28.5 4.5c.2 0 .2 0-.2.2-.7.3-1.1.3-.6 0l.8-.2zm-6.7 1.6h.8l-1.4 3.3a19.8 19.8 0 0 0-1.8 4.5c-.2.2-1.3.3-3.3.3h-3l.7-1.7a25 25 0 0 1 3-6c.2-.2 3.4-.4 5-.4zm26 .2c1.9 0 5 1.2 5 2l-2 3-1.9 2.8H167c-1 0-4.1-.6-4.5-1-.5-.5 3.8-6.8 4.6-6.8zm27 .2a144.6 144.6 0 0 0-.6 5.6l-.2 2 .8-2.5v-5.1zm-42.1 2.6c2 0 2 0 3.5 1 .8.7 1.7 1.2 2 1.3.2 0 .5.4.6.9a7 7 0 0 0 3.7 3.7 28 28 0 0 0 11 1.2 17 17 0 0 0 2.4-2.8c1-1.5 1.9-2.5 2-2.3s-.1 1.2-.6 2.6l-.8 2.8c0 .2.3.7.7 1.2.3.4.9 1.3 1.1 2 .6 1.2.5 1.6-.5 2.7l-1.3 2-1.2 2-1.2 2a5 5 0 0 1-1 1.5l-.9-.5c-.9-.7-4.9-2.6-6.4-3-.9-.3-1.3-.5-1.2-.8.5-1.6.3-2.4-.7-3.6-1.4-1.7-3.5-2.6-4.3-1.8-.6.6-.3 1.4 1 2.7l1.4 1.4-1.7 1.7a9.6 9.6 0 0 1-5 3.1c-3.4 1.2-7.5-.1-10.3-3.3l-1.5-1.6 1.3-1.3c1-1.1 1.3-1.5 1.2-2.1 0-.7-.2-.8-.8-.9-1.1-.1-2.1.4-3.5 1.8-1.2 1.3-1.2 1.4-1.1 2.8v1.5l-1.4.5c-1.5.4-5 2-6.1 3-1 .5-.9.5-1.3-.3-.3-.7-2-3.4-3.9-6.3l-1.1-2.1c0-.7 1-2.7 1.5-3.2.8-.6.7-1.4-.2-4.1a9.7 9.7 0 0 1-.6-2.4c.2-.2 1.5 1.5 2.8 3.4a7 7 0 0 0 1.5 1.8c.5.2 4.2.2 6.7-.1 3.3-.4 5.2-1.2 6.8-2.9.7-.8 1.3-1.6 1.4-2 0-.3.4-.8 1-1l2-1.4c.9-.8 1.1-.8 3-.8zm3.3 3.3c-1.3 0-1.4.8-1.8 7.5a26 26 0 0 0 0 6.6c.4.5 1.3.6 1.9.2.6-.4.9-2 1-7.8.2-6.1.1-6.5-1.1-6.5zm-6.7 0c-.5 0-.8.1-1 .4a88 88 0 0 0 .1 11.1 8 8 0 0 0 .6 2.6c.4.5 1.7.6 2.1 0 .5-.6-.1-13-.7-13.6-.3-.3-.7-.5-1.1-.5zm15.7 18c1 .2 5.2 2.5 6 3.3.8 1 2.9 4.4 2.9 4.9l.6 2.6c.4 1.2.7 2.7.8 3.3.2.9.2 1-.4 1-.6 0-.8-.2-1-1.3-.2-.6-.8-2.2-1.5-3.5-.6-1.2-1.3-2.8-1.4-3.4-.4-1.3-3-4.3-4.6-5-1-.6-2-1.7-1.6-1.9a.3.3 0 0 1 .2 0zm-17 8c.6 0 1.2.2 2.3.7 1 .4 2 .8 2.4.8l2.4-.8c1.5-.6 2-.8 2.8-.6 2.1.4 4.9 2 5.8 3.2l1.3 1.8.8 1-.6 1.6a20 20 0 0 0-1.5 6 7 7 0 0 1-.3 2c-.3.3-.4.2-1-.8a37 37 0 0 0-2-2.6l-1.9-2.3-1.2-1.5-.7-.5.8-.4c1.2-.8 1.5-1.3 1.2-2-.4-.8-1-.8-3-.1-1.9.7-4 .7-6.2-.1-1.6-.7-1.7-.7-2.3-.2-.8.6-.5 1.7.6 2.3l.8.5-.8 1a51.3 51.3 0 0 0-5.4 6.6c-.2 0-.4-1.2-.6-2.5-.2-1.6-.7-3.3-1.2-4.7l-.8-2.1.7-1.1 1.2-1.7c.8-1.3 3.9-3 5.9-3.4h.5zm-33.7 3a17 17 0 0 1-1 4.3 29.5 29.5 0 0 1-2.5 4.7l1.9.2c1 .2 1.1.1 1.3-.3 0-.3.4-1 .6-1.6.3-.6.5-1.4.4-2l-.7-5.3zm42.2 9.2c.2 0 .5.4 1 1.1 2.8 4 3.2 4.7 3.3 6.8.2 1.9.1 2.1-.5 3l-1 2a29.4 29.4 0 0 1-1.7 4c-.5 0 0-3.4.8-5.4.6-1.6.5-3.9-.4-7a29 29 0 0 0-1.5-4.5z"/><path fill="#778595" d="M149.6 75a327.7 327.7 0 0 0-22.2.6 155 155 0 0 0-5.6.4 301.2 301.2 0 0 0-35 4.7 51 51 0 0 1-3 .6 52.9 52.9 0 0 0-2.6.6l-5.1 1.3a134.1 134.1 0 0 0-16.3 5.4c-1.7.7-3.4 1.6-7 3.5-3 1.6-6.6 4.7-8.7 7.3-.6.9-1.5 2.5-1.9 3.6-.7 1.9-.8 2.4-1 7a69.9 69.9 0 0 0 0 4c3.8 1.7 7.6 4.2 11.5 7.6a165.2 165.2 0 0 0 9 7.3l.1.1c1.8.2 3.7.3 5.5.6a61.7 61.7 0 0 1 12.3 3.2c2-.2 3.9-.3 6-.2 2.4.7 5.2.5 7.2 2a49 49 0 0 1 11.7 11.5l.1.1c1.2 0 5.2.4 9.3.9a169.4 169.4 0 0 0 21.4 1.5 471.1 471.1 0 0 0 43.2-.7A308.3 308.3 0 0 0 198 146c2-.2 2-.4 1.5 2.7a72.1 72.1 0 0 0-.4 3.8 95.4 95.4 0 0 0-1 8.6 445.3 445.3 0 0 0-2.7 24.7v.7c.8-2.5 1.6-5 2.7-7.3l2.2-5a63.4 63.4 0 0 0 3-12.5c.2-5.1.5-10.2 2.5-15 .7-1.4 1.3-2.9 2.2-4.2 3.2-5 7.3-8 12.6-10.4a52 52 0 0 1 10.1-2.9l7-1.4c2-.3 3.7-1.2 5.6-1.7 3.2-1 6.2-2.3 9.3-3.3 2.2-.7 4.4-1.4 6.4-2.4 0-.4-.1-.7-.3-.7-.5 0-.5.2.2-1.6.5-1.4.5-1.8.5-7.5v-6.1l-.9-2.2a19 19 0 0 0-7.7-8.5 18 18 0 0 0-2.7-1.7 148.8 148.8 0 0 1-3-1.6 100.2 100.2 0 0 0-17.5-6.6 117.6 117.6 0 0 0-14.2-3.3 205 205 0 0 0-16.7-2.7l-8.3-1a117.3 117.3 0 0 0-15.9-1.3 417 417 0 0 0-23-.6zm-2 4.9a350.9 350.9 0 0 1 52.7 3.3 131.8 131.8 0 0 1 12.6 2.1 89.6 89.6 0 0 1 13.3 3.2l2.3.6 4.6 1.6c4.6 1.6 5.6 2 9.3 3.7 7.8 3.9 12 8 12.7 12.1.1 1.1 0 1.5-.7 3-1.2 2.6-3.7 4.9-8 7.4-1.5.9-1.8.9-1.8-.2 0-1-1.7-4-3.1-5.4-3.2-3.2-7-5.5-12.5-7.8-2.5-1-7.5-2.8-9-3.1a125.4 125.4 0 0 1-3.3-1 118 118 0 0 0-4.2-1l-4.1-1c-2.7-.6-3.6-.7-13.5-2.2a263 263 0 0 0-22.1-2.3A330.7 330.7 0 0 0 99 96.4a59.5 59.5 0 0 1-3.2.6l-3.3.6a309.5 309.5 0 0 1-10.3 2.7 72.3 72.3 0 0 1-5.2 1.6l-2.4 1-5.1 2a37.1 37.1 0 0 0-6.6 4 15.4 15.4 0 0 0-5.8 7.9l-.4 1.3a35 35 0 0 1-6-3.8c-1.2-.7-3.6-3.5-4.5-5.3-1-2-.8-3.7.6-6a21 21 0 0 1 6.8-6.2 54.8 54.8 0 0 1 13.4-6c.5-.3 1.5-.6 2.3-.8a128.9 128.9 0 0 1 19-4.8l4-.8a149.7 149.7 0 0 1 17.7-2.5 222.8 222.8 0 0 0 11.6-1l6.2-.6c2.6-.3 4.2-.3 19.7-.4zm9.8 73.8h-4.6a37.1 37.1 0 0 0-20.4 4.1 234.8 234.8 0 0 1-5.5 2.6 12.3 12.3 0 0 1-6.3 1.6c-3.2.2-3.5.3-3.5 1.5s2.2 3.5 4.3 4.4l.7.5s-.8.6-1.8 1c-1.5.9-2 1-3.8 1-1 0-2 0-2.3.2-.7.4-.3 1.6 1 2.9 1.3 1.5 2.2 2 3.9 2.2l1.1.3-.6 1a28 28 0 0 0-2.5 5.7 219.8 219.8 0 0 1-3 8c0 .3.3.7.6 1l.6.5-.8 3c-2.1 7.6-2.2 7.8-1.5 8.4.3.2 1 .4 2 .3 1 0 2.3.2 4 .7 3 1 3 1 4.9 2.8l1.3 1.3-.9 1.3c-1.5 2.3-1.5 3.4.1 6l1.3 2 .8 1.5 1.9 3.2 1.4 2.3-.6.9c-.6 1-1.2 3-2.3 7.2-1.3 5-1.2 5.5 1.4 6.2 2.2.6 4.6.1 7-1.4.5-.3.6-.3.9.2a12 12 0 0 1 1.7 5.8c0 2.6.2 2.9 1.8 4.8.8 1 1.2 1.6 1.3 2.5 0 .7.6 2.2 1.1 3.3l1.3 3.4c.5 1.5 1.5 3.7 2 4.3.4.5 1.4.5 1.8 0 .3-.4.4-.4.8 0 .3.2.6.7.7 1 .2 1 1.9 3.5 2.3 3.7.7.3 1.8.2 2.3-.3a9 9 0 0 0 1.5-2.3c1.3-2.5 1.4-2.6 2-2.1.5.5 1.4.5 1.9 0 .5-.7 1.7-3.6 2-4.7 0-.5.5-1.7 1-2.6.5-1 1-2.5 1.2-3.3a6 6 0 0 1 1.4-3c1.6-1.8 1.7-2.2 1.8-4.8 0-1.3.3-2.6.5-3l.6-1.5c0-.4.3-.9.5-1.2.4-.5.4-.5 2 .4 2.8 1.3 6.3 1.4 7.8 0 .6-.5.5-1.7-.5-5.8s-1.5-5.6-2.3-6.8l-.5-.8 1-1.7a976.9 976.9 0 0 0 2.4-4.2l2.2-3.8c1-1.6 1.2-2.8.6-4.1-.4-1-.4-1.1 0-1.7 1.7-2.7 3.4-3.7 6.4-3.9l2.1-.1.6-1.3c.6-1 .7-2 1-5l.4-6c0-.2.2-.3.5-.4 1-.3 1.1-1 .8-2.8-.3-1.6-1.1-4.4-1.7-5.8l-1-2.8a103.3 103.3 0 0 0-7.9-15.2c0-.3-3.5-4-6.8-6.9-2.8-2.6-6-4.5-7.4-4.5a7 7 0 0 1-1.6-.3c-1.9-.5-4.4-.8-8.4-.9zm0 3c4.1 0 5.4.3 8.4 1 1.4.4 2 .4 2.3.2.5-.3.7-.2 1.7.5a56 56 0 0 1 10.8 10.9l1 1.9 2.6 5a448.6 448.6 0 0 0 2.3 4.6c.4.8 2 5.6 2.7 7.8.4 1.4.4 1.6 0 1.8-.7.4-1.2 1-1.2 1.6l-.7 9.6-.1 1.3h-1.5c-1.7 0-3 .4-4.2 1.4-1.2.8-1.5 1-1.5.6l.3-.4a32 32 0 0 0 2.4-5.8c1.2-3.3 1-5.4-.8-12.3a35.2 35.2 0 0 0-4.5-9.8c-1.8-2.8-3-3.8-6.7-5.7a10 10 0 0 0-8-1c-2.3.5-5.4 2-6.5 3-.8.9-2.5 3.2-3.1 4.2-.2.2-.4.3-1 0l-.6-.3V173c0-4.1-.5-6.8-1.4-8.3-1-1.5-4.7-2.7-9.6-2.9-3.2 0-2.4-.3-9.5 2.4a7 7 0 0 1-3.8.7 7 7 0 0 1-2-.3c-.2-.2 1.5-1.1 3.4-1.8 1-.3 2.8-1.2 6.5-3l4.6-1.7 3.4-1.2h8.8l5.4-.1zm-51.5 5.3a31.5 31.5 0 0 1-.7 2.5c-.4 1.2-1 2.4-1.5 3.5l-.3.7a46 46 0 0 1 1 5.1l.7 3.7c.2.8.2 1.5.5 2.3a78 78 0 0 1 2.9 21.4l.1 8.9v1l.3 2.2c.2 1.2-.1 1.4.2 1.1l1.6 6.6a29 29 0 0 0 1.6 4.1c.1 1 .4 1.8.7 2.7a14.2 14.2 0 0 1-.2-1.8c0-1 0-2.3-.2-3l-.7-6a230.2 230.2 0 0 0-1.8-16.3l-.8-7.6a691.5 691.5 0 0 1-2.3-21l-.2-2.4-.4-3.8a71.3 71.3 0 0 1-.5-3.9zm30 8.8c4.2 0 7 1.6 10.7 6.2 2 2.5 2.7 3 3.9 2.7.3-.1.9 0 1.3.2.8.4.9.4 1.7 0 .5-.3 1.5-1.3 2.4-2.7 1.3-2 2-2.6 4-3.9 1.3-.7 5.3-1.4 6.7-1.2 1.9.3 5.6 2.3 6.8 3.6a39 39 0 0 1 6.3 13l.2 1-.7-.6c-1.4-1.2-2.5-1.4-4.3-.8l-2.4.6a13 13 0 0 0-4 1.2l-3.1 1.3c-1.4.6-3.3 1.5-4 2-1.5 1-2 1-2.8 0a4 4 0 0 0-1.6-.7c-1.4-.3-1.6-.6-2-2-.2-1.4-.8-2.2-1.5-2.2-1 0-1.3.6-1.1 2 .3 2.6.6 3.3 2 4.1l2 1c.9.1 1.4.5 1 .7 0 .1-.7 0-1.6-.3a16 16 0 0 0-7.9 0c-1.2.5-1.5.5-1.4.1 0-.2.4-.4.8-.5a8.9 8.9 0 0 0 3.5-2c.2-.2.5-1.3.7-2.4.4-2 .2-2.7-1-2.7-.7 0-1.3.8-1.6 2.1-.3 1.5-.5 1.8-1.8 2.1a6 6 0 0 0-2 1l-1 .6-1.4-.9a15 15 0 0 0-2.2-1.3l-3.3-1.4c-3-1.2-4-1.6-6-1.9l-2.3-.5a3.7 3.7 0 0 0-3.3.2c-.5.3-.9.4-.9.3a35.8 35.8 0 0 1 4.9-12l2.3-3.8c1.1-2 1.6-2.2 4-2.2zm112 .9-.5.1-.3 1.6.4.1a45 45 0 0 0 .3-1.8zm-84.4 10.2a7 7 0 0 0-2.4.5c-4.2 1.4-6.5 3.3-5.3 4.5.3.3 1.1.4 1.4 0a18 18 0 0 1 4.9-2.4c2-.7 2.4-1 2.3-1.8 0-.5-.3-.7-.9-.8zm-24.7 1c-1.3 0-1.9.4-1.9 1.1 0 .7.6 1 2.4 1.3 2.1.4 4.3 1 5.8 2 1.3.7 1.9.8 2.3.4 1-1 0-2-2.5-3.1-2.2-1-4.5-1.7-6.1-1.7zm37.4 8.3c.6 0 .8.1 1.4.6.8.7 1.9.9 2.4.4.4-.4.6 1.6.3 2.5l-.3 1.7c0 .5-.2 1.6-.5 2.4l-.5 1.5h-.3c-.5 0-1.5-.7-3.8-2.6a10.2 10.2 0 0 0-5.6-2.7l-2.4-.3-1.3-.2 1-.5c2-1 6.6-2.4 8.8-2.7a8 8 0 0 1 .8-.1zm-48.2 0 .8.1c1.7.2 7.2 2 8.4 2.7l.9.5-1 .2-2.3.3c-2.2.2-3.8 1-5.8 2.7a45.6 45.6 0 0 1-3.7 2.7c-.5 0-1.2-2.6-1.5-5.2-.2-2.5 0-3 1-2.8.5 0 1 0 1.6-.6.6-.4 1-.6 1.6-.6zm13.2 6h.9l-1 2.5a40.7 40.7 0 0 0-2.4 5.6l-3.2.3c-2.4 0-3 0-3-.3 0-.5 1.3-4 2.3-6 .6-1 1-1.6 1.5-1.8.6-.3 3.4-.4 4.9-.3zm23 .2c5.4 0 6.6.3 8.9 2.6l1.7 1.6-1.4 1.6c-.7.8-1.3 1.7-1.3 2 0 .2-.4.3-1.8.2l-2.8.1c-.6 0-1.3.1-1.6 0-2.4-.6-3.4-1-4.2-1.7-.9-.8-1-1.1-1.4-3.5-.2-1.4-.4-2.6-.3-2.7.1-.1 2-.2 4.2-.2zm-12.3 2.5c1.2 0 2.4.5 3.7 1.5l2 1.1c.3 0 .6.4.7 1a6 6 0 0 0 1.6 2.3c1.6 1.5 3.7 2.2 8 2.6 3.8.3 5.3 0 5.9-1l2.8-4c.6-.5 1.2-.2 1 .4-1.5 3.4-1.8 5.3-1 6 .3.2.8 1 1 1.9l.7 1.4-1.3 1.8c-.6 1-1.3 2.1-1.4 2.5a2 2 0 0 1-.6.9l-1.3 2.1-1.2 2-1-.7c-1.2-.8-5-2.6-6.6-3-1.2-.4-1.3-.4-1.1-1.2.2-1 .2-.9.1-1.7 0-1-2.9-3.7-4-3.7-.5 0-1.3.6-1.3 1 0 .2.6 1 1.3 1.7a9 9 0 0 1 1.4 1.6c0 .4-2.8 3.2-3.7 3.8-1 .6-4.8 1.9-5.6 1.9a20 20 0 0 1-5.7-2 15 15 0 0 1-3.6-3.7c0-.2.5-.7 1.1-1.3 1.4-1.4 1.7-1.9 1.3-2.5-.5-1-2-.5-4 1.4-1 1-1.1 1.4-1.1 2.2l.2 1.6c.2.4 0 .5-1.2.9a28 28 0 0 0-7.5 3.7l-1.2-2a69 69 0 0 0-3.4-5.5l-1.2-1.8.6-1.4c.3-.8.8-1.7 1.1-2 .5-.4.5-.6.4-1.7-.1-.8-.5-2-.8-3-.5-1-.6-1.6-.4-1.8.4-.3 1.4.8 3 3.3 1.3 2 1.7 2.1 4.1 2.1a32 32 0 0 0 8.1-1.3 7.7 7.7 0 0 0 3.9-3.7c.2-.6.6-1 .8-1 .2 0 1-.6 1.9-1.2 1.2-1 2.3-1.5 3.5-1.5zm-3.4 3.7c-.3 0-.6.2-.7.5-.4.6-.2 10 .2 12 .1.8.4 1.5.7 1.7.7.5.8.4 1.5-.2.5-.6.5-.8.4-3.1-.2-1.4-.3-4.3-.4-6.4-.2-3.3-.3-3.9-.7-4.2l-1-.3zm6.7 0c-.4 0-.8.5-1 1.1-.2.5-.4 2.4-.5 4.2l-.3 5.8c-.1 2.5-.1 2.6.5 3l.8.4c.5 0 1.3-1.1 1.3-1.9l.1-1.9.2-5.4c0-3.6 0-4.4-.3-4.9-.3-.2-.5-.4-.8-.4zm6.4 17.3.8.3c.5.2 1.1.3 1.3.2a9 9 0 0 1 2.4.8l2.2 1c.4 0 2.1 1.5 2.9 2.7 1.7 2.7 2 3.3 2.7 6.4 1 3.6 1 4.2.4 4.5-.2 0-.4.1-.4 0l-2.1-.7a9.9 9.9 0 0 1-5.1-3.7c-1.8-3-7.7-6-10.7-5.6-1.2.1-3 .9-3.3 1.4-.3.5-.7.3-.7-.5l-.4-1.7-.3-1h1c2 0 6.5-1.8 8.1-3.3.7-.6 1-.8 1.2-.8zm-14.2 8.6c.5 0 1.5.3 2.3.7 1.7.9 3 .9 4.6 0 .8-.4 1.8-.7 2.4-.7 1.7 0 5.5 2 6.4 3.3l1.3 1.8.8 1.2-.7 1.7c-.8 2.2-1.4 4.5-1.4 6 0 1.1-.6 2.5-.8 2.2a47.4 47.4 0 0 1-1-1.5 50.4 50.4 0 0 0-5.3-6.6l.9-.6c1-.6 1.2-1.5.6-2.1-.4-.5-1-.4-2 .1-.7.3-1.8.5-3.3.6-1.9 0-2.5 0-3.6-.6-1.6-.6-2.2-.5-2.4.7 0 .6.1.8.9 1.2l1 .6-.9 1-2.2 2.7c-.8.9-1.9 2.3-2.3 3a5 5 0 0 1-1 1.5c-.4 0-.8-1-.8-2 0-1.6-.7-4.3-1.4-6.2l-.7-1.7.8-1.2a78.2 78.2 0 0 0 1.3-1.8 12 12 0 0 1 6.5-3.3zm43.3.2-.3 2.7c-.5 4-.5 4.5-.1 6.1.2 1 .6 2 .9 2.3.5.6 1 .6 3.7 0 .4 0 1.1 0 1.9-.2-.4-.3-.9-.6-1.2-1a16.5 16.5 0 0 1-4.9-10zm-77 3.3a32 32 0 0 1-1.3 8.6c.8 0 .9-.4 1.2-1.2.5-1 .6-1.5.5-3.5l-.4-3.9zm39.2 5.5c.2 0 .8.6 1.2 1.3a24.7 24.7 0 0 1 6 8.3c.5 3 .5 3-.6 5.3l-1.7 3.7c-.6 1.4-.7 1.5-1.3 1.4-1-.2-2 .4-3 2.1l-.8 1.5-.5-2.5c-.6-3.4-1-13.8-.5-17 .4-3 .8-4 1.2-4z"/><path fill="#62768d" d="M147.2 75a220.8 220.8 0 0 0-19.4.6 289.6 289.6 0 0 0-59 9.7 79 79 0 0 0-19.5 9.2c-1 .5-3.8 3.2-4.8 4.6-1.3 1.7-2 3-2.6 4.9a56.6 56.6 0 0 0 .3 18.1c.3.7 1.7 2.5 2.3 3.1l.5 1 .3 1.8a80.7 80.7 0 0 1 25.8 4.7c5 2 10.2 3.4 15.3 5.3l6 2 4.5.7 2.4.3c5.5.6 11.1.8 16.7.9 5.6 0 11.1-.1 16.7-.3a81.9 81.9 0 0 0 21.4-3.1c2.8-.5 4.2-.8 7-1 3.8-.1 7.5.2 11.2.8 4.4.8 8.7 2 13 3.3 3.8 1 7.5 2.3 11.3 3.2l2.3.5 2-.2a32.3 32.3 0 0 1 4.2-2.5l3.1-1.4c3.7-1.5 7.4-2.7 11.1-4 3.6-1.2 7-2.7 10.5-4.1 4.7-2.3 9.5-4.2 14.5-6a78 78 0 0 1 14-3.8c.3-.6.5-1 .6-1.7.3-1.3.3-1.5-.1-1.8-.4-.3-.4-.4 0-1.6.8-1.8 1-5.1.6-10.5-.2-4.1-.6-5.7-2-7.7a29.6 29.6 0 0 0-9.2-7.9 309.2 309.2 0 0 1-2.9-1.5 98 98 0 0 0-12.5-5.1l-5.1-1.6c-3-1-6-1.7-10-2.5a106.3 106.3 0 0 1-3.8-.8 56.4 56.4 0 0 0-7.4-1.2 91.3 91.3 0 0 0-13-1.9 142.7 142.7 0 0 0-19.3-1.7c-7.8-.5-18.3-.8-27-.8zm2.8 4.7a549.4 549.4 0 0 1 26.2.8A231.8 231.8 0 0 1 206 84a147.7 147.7 0 0 1 6.5 1.2 132.6 132.6 0 0 1 25.7 7.3 79 79 0 0 1 9.5 4.8c2 1 5.5 4.5 6.5 6.4.4.7.8 2 .9 2.8.1 1.3 0 1.7-.5 3a19.4 19.4 0 0 1-8.2 7.5c-1.7 1-1.8 1-1.8.5 0-.8-.9-3-1.7-4.1a22.2 22.2 0 0 0-5.8-5.4 50 50 0 0 0-11.1-5.4 102.2 102.2 0 0 0-17.4-4.9 24 24 0 0 0-3.7-.7 226 226 0 0 1-8.7-1.5 75.9 75.9 0 0 0-4.8-.7 223.1 223.1 0 0 1-4.2-.5 352.6 352.6 0 0 0-55.2-1.5 213.4 213.4 0 0 0-32 3.6 278.3 278.3 0 0 1-7.7 1.5l-4.6 1.2a76.3 76.3 0 0 0-16.9 5.5l-1.3.6-3 1.6c-3.5 2-6.9 5.1-8.3 8-.5 1-1 2.1-1 2.6 0 1-.5 1-2.7-.4-4.2-2.6-6-4.4-8-7.4-.9-1.5-1-1.7-.8-3.4.2-2.7 1.5-4.6 5-7.4 3.8-3.1 9.7-6 17.3-8.4l3.4-1.1c.2-.2 1.7-.6 3.3-1l4.1-1a104.6 104.6 0 0 1 12.7-2.8 42.5 42.5 0 0 1 7.6-1.3l3.6-.5a53.5 53.5 0 0 0 3.2-.5c.8-.2 1.5-.3 1.6-.2.1 0 1.8 0 3.8-.3 6.8-.7 9.4-1 11.3-1a72 72 0 0 0 4.1-.4 392 392 0 0 1 23.3-.6z"/><path fill="#5e728b" d="M147.2 75a225.2 225.2 0 0 0-19.4.6 283 283 0 0 0-28.8 3 50.1 50.1 0 0 1-3.4.5 38.4 38.4 0 0 0-6.4 1.2A219.9 219.9 0 0 0 64 87l-1 .3c-1.1 0-10.8 4.8-12.8 6.4-5.1 4-7.2 6.5-8.3 10.2a55.3 55.3 0 0 0-.2 15.3c0 1.4.6 3.1 1.9 4.7.7.9 1.3 1.9 1.4 2.2 3 .2 6 .8 9 1.7a156 156 0 0 0 15.2 3.7c5.5 1.4 11 3 16.5 4.6 5 1.4 9.9 2.5 14.9 3.5 4.6.7 9.3 1 13.9 1.3h12.9a1254.8 1254.8 0 0 0 23.4-.3 341 341 0 0 1 10.8-.1 887.5 887.5 0 0 0 17.5-.4c3.1-.1 6.2-.4 9.3-.7 4-.2 7.8-.3 11.8-.3h11c2.7-1.9 5.8-3.4 9.2-4.1l4-.7a44 44 0 0 1 8.5 0c2.3-1.8 4.9-3.4 7.5-5l6.4-3.4 1.9-.8 5.7-1.7h3.7c.5-.8.8-1.5 1-2.4 0-.8 0-1.1-.3-1.3-.4-.2-.4-.4 0-1.6.8-1.8 1-5.1.6-10.5-.2-4.1-.6-5.7-2-7.7a28.8 28.8 0 0 0-9-7.7l-2.2-1.3a99 99 0 0 0-19.6-7.3c-3.2-1-6.6-1.8-9.5-2.4a59.1 59.1 0 0 1-3.2-.7 55.1 55.1 0 0 0-7.4-1.2 88.7 88.7 0 0 0-13-1.9 104.3 104.3 0 0 0-12.5-1.3l-6.8-.4c-7.7-.5-18.2-.8-27-.8zm-.5 4.7a434.4 434.4 0 0 1 31.5 1 230.5 230.5 0 0 1 31 3.8 451.5 451.5 0 0 0 9 1.8 107.3 107.3 0 0 0 5.1 1.3 103.9 103.9 0 0 0 5 1.4 280.8 280.8 0 0 0 9.5 3.3 77 77 0 0 1 9.4 4.6c3.2 2 6.1 4.8 7.1 6.9a8.7 8.7 0 0 1 .8 3c.1 1.4 0 1.9-.6 3-.4.8-1.4 2-2.1 2.8a33.8 33.8 0 0 1-6.7 4.8c-.9.5-1.7.6-1.5.2.1-.2-.1-.3-.4-.3-.5 0-.6 0-.3-.2.4-.2.4-.3 0-.4-.6-.3-1.4.3-1.5 1 0 .4 0 .5.6.3 1-.2 1 .2-.1.9l-1 .6v-.7c0-2.7-3-6.3-7.4-8.7-4-2.3-9.3-4.6-13-5.6a48.5 48.5 0 0 1-2.4-.8 56.2 56.2 0 0 0-8.6-2.2 27 27 0 0 0-2.5-.6 105.6 105.6 0 0 1-3-.5c-2.2-.5-5.6-1-10.1-1.7-5-.8-4.6-.7-10.9-1.4a207 207 0 0 0-11.4-1.1c.2-.3-9.5-.4-21.8-.4a297.3 297.3 0 0 0-59.2 5.8l-4.6 1.2c-8.9 2.3-15 4.8-20.4 8.3-3.6 2.4-5.5 4.8-5.6 7.4v1.2l-.4-.2c-.2-.2-.3-.4-.2-.6.3-.4-.3-1-.9-.9-.3.1-.4.3-.4.4.1.1-.3.2-.8 0a18 18 0 0 1-6-3 23.7 23.7 0 0 1-5.5-5.9c-.8-1.4-.8-1.7-.7-3.3.1-1.4.3-2 1-3.4a33 33 0 0 1 15.2-10.2l8-2.9a230.5 230.5 0 0 1 25.3-6 158 158 0 0 0 3.8-.5 84.7 84.7 0 0 1 3.6-.5 12 12 0 0 0 2.3-.4l2.8-.3c1.4 0 3-.3 3.6-.4a42.6 42.6 0 0 0 8.6-.8 63.4 63.4 0 0 1 4-.4 441 441 0 0 1 22.8-.7zm3 12.8-.5.4c-.4.4-.5.4-.7 0-.1-.2-.6-.3-1.8-.3H145v.8c.1 2 0 1.9 3 1.9 1.7 0 3-.1 3-.3 0 0 0-.1.2 0l.3-.1c0-.5.6-.4 1 0 .3.4.4.4 1.2 0 .9-.3 1-.3 1.4 0 .3.3.5.4.6.2.2-.3 1.3-.3 1.3 0 0 .2.3.3.6.3s.4-.2.4-.3c-.2-.2 0-.2.5 0s.8.2 1 0h.6c.3 0 .4 0 .2-.3 0-.2 0-.1.4.1.3.3.7.4.8.3.2 0 .3 0 .3.2 0 .3 0 .3.2 0 .2-.2.3-.2.4-.1.3.4 2.6.3 3-.2.3-.3.3-.3.3 0 0 .2.1.3.2.2.1-.1.4 0 .6.1.4.3.4.3.2-.1-.1-.5 0-.5.5 0 .5.4 1 .5 2 .5 1.2 0 1.3 0 1.4-.9.4-1.6 0-2-1.6-1.9-1.2 0-1.6.2-2 .6-.2.3-.4.5-.4.3l.3-.6c.3-.3.2-.3-.5-.2h-1c-.2-.3-4.1-.3-4.6 0l-.3-.1a.3.3 0 0 0-.3-.3c-.2 0-.2.2-.1.4s0 .2-.2 0c-.3-.3-.8-.4-1.1-.3l-.8-.1c0-.4-1.2 0-1.2.5 0 .2-.2.3-.3.3-.1 0-.2.1-.2.3.1.4-.7.9-1.2.7a.8.8 0 0 1-.5-.7c0-.4-.3-.7-.9-1-.8-.4-1-.4-1.2 0-.4.4-1.7.8-1.4.5 0-.1-.2-.4-.6-.5l-.7-.3zm-20.4.9c-.2 0-.5.2-.5.7 0 .3-.3.7-.4 1-.2.1 0 .4.5.6.4.3 1 .4 1.3.5.7 0 .7-.8 0-2-.2-.6-.6-.8-.9-.8zm24.7 0h.1c.2 0 .3.3.3.5s-.1.5-.3.5c-.1.1-.2 0-.2-.5l.1-.5zm-29.5.1-.8.2c-.3 0-.5.3-.5.6 0 .4 0 .4-.4 0-.2-.3-.7-.5-1-.5-.7 0-.8 0-.8 1l.2 1.4c0 .3.4.4.9.3l2.6-.2c2.2-.1 2.8-.3 2.6-.7-.1-.1 0-.2 0-.2.6 0 .4-.7-.2-1.2-.6-.4-.6-.4-.1-.3.4.1.4.1.2 0-.3-.3-1.7-.4-2.7-.4zm27.3.1.1.1v.5c0 .1-.2 0-.1-.3v-.3zm26.2 0c-.4 0-.7.2-1 .5-.3.6-.2 1.5.3 2 .4.4.7.4 1.6.2.3-.1.5-.3.5-.4-.1-.2 0-.3.3-.3s.8-.2 1.2-.5c.5-.4.5-.5.1-.6-.2 0-.5 0-.7.2-.4.5-1.2.5-.9.1 0-.1 0-.5-.3-.8-.3-.3-.7-.4-1-.4zm6 .8c-.7 0-1 1.5-.3 2.3.4.5.7.7.5.3-.1-.1 0-.4.2-.6.5-.4.5-1.4 0-1.8-.2-.2-.3-.2-.5-.2zm-69.7.1h-.1c-.1.2-.3.4-.5.4 0 0-.2.2-.1.3 0 .2 0 .2-.2 0-.5-.4-1.8 0-2 .8-.1.2 0 .8.1 1.1l.4.7c.4 0 2-1 2.1-1.2.2-.7.4-2 .3-2.1zm72 .1c-.9 0-.9.1-.9 1.1s.1 1.1 1 1.5c.8.2 1.2.2 1.6 0 .4-.2.7-.2.8 0 .2.1.7.2 1.1.1.6-.1.8 0 .6.1-.2.4.8.7 1.8.5.5-.2.7-.1.6 0-.1.3 0 .4.2.4s.5-.1.6-.3c.1-.2.3-.2.5 0s.5.3.6.2l-.1-.2c-.2 0-.2-.5-.2-1.2v-1l-.5-.1a5 5 0 0 0-1.3-.6c-.9-.2-1.1-.2-1.5.2-.7.7-2.1.7-2.7 0-.3-.3-.5-.4-.5-.3l-.4-.1c-.2-.2-.8-.3-1.3-.3zM106 95.7c-.6 0-1 .1-1.1.3-.3.4-.2.4.6.4.5 0 1.3.1 1.6.3.6.2.7.2.7-.2 0-.3.2 0 .4.4.5 1 .5 1 .6 0 0-.9 0-1-2-1.1a11.4 11.4 0 0 0-.8 0zm3.8.2c-.5 0-.7.1-.7.5l.2.6.6-.6.6-.5zm63.4 0a1 1 0 0 0-.4 0c-.1.2 0 .2.4.2.3 0 .5 0 .3-.1a1 1 0 0 0-.3 0zm23.6.2c-1 0-1 0-1 .9-.2 1.2.3 1.6 1.8 1.7.7 0 1.3.1 1.5.3.2 0 .3 0 .2-.1-.1-.2 0-.3.3-.2.3.1.5.3.4.4-.1.2 0 .3 0 .2.2-.1.5 0 .8 0 .7.3 2 .4 2 .1 0-.3-.7-1.2-.9-1.1-.5 0-.7-.1-.8-.8-.2-.7-.3-.8-1-.8-.4 0-.7-.1-.6-.2 0-.2-1-.4-2.7-.4zm9.3 1.4c-1 0-1.2.1-1.2.7 0 .4.2.7.6.8.3.2.7.2.9.2l1-.2c1.5-.4.4-1.5-1.3-1.5zm-105.3.9c-.2 0-.3 0-.4.2v.5c.6.3.8.3.8-.1s-.2-.6-.4-.6zm-13.3 2.5c-.2 0-.3.1-.3.3v.3l.4-.3-.1-.3zm.7 0a.3.3 0 0 0-.2.3.3.3 0 0 0 .5 0 .3.3 0 0 0-.3-.3zm.8 0c-.2 0-.2 0-.1.3 0 .1.3.2.4.1l.3.1c0 .4.2.4.8 0 .3-.2.3-.2 0-.2s-.7 0-1-.2a2.3 2.3 0 0 0-.4 0zm-9 .3c-.3 0-.6.1-1 .5-.2.3-.6.4-.7.3-.1 0-.1 0 0 .2a.5.5 0 0 0 .5.2c.6-.3.8 1.5.3 1.9-.5.3-.5.3 0 .3 1 0 1.1-.3 1.2-1.9.1-1 0-1.6-.4-1.5zm144.7 1.2a.3.3 0 0 0-.2 0c-.4.2 0 1 .4 1 .2 0 .3 0 .3.2-.1.1 0 .2 0 .2.3 0 .3.2.2.4-.2.2-.1.2.2 0 .5-.4 1 0 .6.5-.2.2-.1.2.2 0 .7-.6.4-1.4-.9-2l-.8-.3zM72.9 104a1.8 1.8 0 0 0-.4.2c-.5.2-.5 1.5 0 2 .5.7.6.5.7-.9 0-1 0-1.3-.3-1.3zm158.3.9c-.2 0-.3.1-.5.3-.2.3-.3.4-.2.1 0-.2 0-.3-.1-.1-.2 0-.2.3-.2.6.2.3.1.3-.1.2-.3-.2-.4-.1-.2.2.1.4 0 .5-.6.4-1.4-.3-.7.2 1.6 1.4 2.6 1.2 2.3 1 2.3.8 0-.2-.2-.3-.4-.3-.4 0-.4 0-.1-.3.2-.1.3-.2.1-.2l.1-.3c.2 0 .4-.6.4-1 0-.8 0-1-1-1.4l-1.1-.4zm-160.7.2c-.5 0-1 .2-1.5.6-.3.4-.6.8-.6 1 0 .3 0 .3-.2 0s-.3-.3-.5.2v1.1l-.5-.4c-.1-.2-.4-.3-.7-.2-.4 0-.5.3-.5 1 0 .4.2.9.3 1 .1.2.5.3.9.2.5 0 .6-.3.6-.7 0-.5 0-.5 1-.4.5 0 1 0 1-.3 0-.1 0-.2.2-.2.8 0 1.3 0 1.2-.3 0 0 0-.3.4-.3.5-.2.5-.8 0-1.8a1 1 0 0 0-1.1-.5zm164.1 3.4v.5c0 .4.2.8.5 1 .3.2.5.3.4.1-.1-.2 0-.3.2-.3.3 0 .3.2.3.6-.1.3 0 .5.2.5.3 0 .5-.2.5-.4s0-.5.2-.5c.2-.2.2 0 0 .4-.1.5-.1.8.2 1 .3.3.4.2.4-.2 0-.3.1-.2.4.4.3.8.8 1.3.5.5l.1-.4c.2 0 .3.2.3.4 0 .6.1.7.4 1.1.3.6.5 0 .1-.7-.2-.4-.1-.6.3-1l.6-.3-.6-.3c-.4-.1-.5-.3-.3-.4l.3-.4c0-.2-.1-.2-.3-.2-.1.1-.4 0-.6-.4-.4-.6-1.5-.8-1.8-.4l-1 .4c-1 .1-1 0-1.2-.5v-.5zm-166 .3c-.3 0-.5 0-.5.2s.2.2.4.1l.4-.2-.4-.1zm171.4 1.5.1.4.4.4v-.4c-.1-.2-.3-.4-.5-.4zm-177.8 0c-.3 0-.5.2-.7.6-.4.8-.3 1.2.6 1.6.8.4.9.4 1.7-.2 1-.7 1.1-1.3.5-1.5-.2-.1-.4 0-.4.1 0 .2-.3.1-.7-.1-.4-.3-.7-.4-1-.4zm178.2 1.4-.5.3c-.4.5-.4.5.1.2.3-.2.6-.4.5-.5h-.1zm-179.3.8c-.1 0-.5.2-.8.6-.5.6-.5 1.4 0 2.3l.4.2c.3 0 1.6-1.9 1.6-2.3 0-.3-.5-.4-1.1-.3-.2 0-.2-.1 0-.3v-.2zm180 .4c-.1 0-.4.1-.6.4-.7.6-.7.8-.4 1.2.4.4.4.4.5-.4 0-.5.2-.8.3-.8s.3-.2.3-.4zm1.1.9c-1 0-1.8 1.3-1.2 2.2.3.7.7.2.6-.8 0-1.2.7-1.6 1-.5.1.4.3.6.5.5.7-.2 0-1.4-.9-1.4zm-182 .6s.2 0 .3.3c.1.2.2.5.1.6 0 0-.2 0-.2-.3l-.2-.6zm141.5 107.7c-.8 0-1.5 0-2.3.2l.3.5c.4 1 .7 2.1.9 3.2.9-1.3 1.8-2.6 2.9-3.8a9.7 9.7 0 0 0-1.8-.1z"/><path fill="#e62229" d="M147.2 75a225.2 225.2 0 0 0-19.4.6 283 283 0 0 0-28.8 3 50.1 50.1 0 0 1-3.4.5 38.4 38.4 0 0 0-6.4 1.2l-1.4.2 1 .3c2.6.7 5.1 1.6 7.6 2.8l2.4-.4 3-.4a34 34 0 0 0 3.2-.5c1-.2 2.4-.4 3.4-.4s2.3-.1 2.9-.3a48.4 48.4 0 0 0 8.5-.8 57.9 57.9 0 0 1 4-.4l8.2-.4a520.7 520.7 0 0 1 39.7.2l6.5.5a377 377 0 0 1 17.3 1.7 350.8 350.8 0 0 1 14.8 2.3l2.4-.5 4.4-.8 1.1-.6.7-.3-.4.2h.2l1.4-.8a73.3 73.3 0 0 0-3-.6 59.1 59.1 0 0 1-3.2-.7 55.1 55.1 0 0 0-7.4-1.2 88.7 88.7 0 0 0-13-1.9 104.3 104.3 0 0 0-12.5-1.3l-6.8-.4c-7.7-.5-18.2-.8-27-.8zm112.3 35a61.5 61.5 0 0 1-11.1 8l-1.6.9-5.3 2.6a76.6 76.6 0 0 1-6 2.8h.3l-1.4.7a46 46 0 0 1-6.6 2.1c-1.7.5-3.5.6-5.2 1-2.2.5-4.3 1-6.5 1.3a63.3 63.3 0 0 1-11 .8l-1.1.2-1.3.1-2.3.3-.9.1-3.3.6a45 45 0 0 1-10.3 1l-1 .2h-.4l-.8.2a47.6 47.6 0 0 1-13.3.8l-4.2-.2h-4.8a27 27 0 0 1-10.6 2.8c-1.5.2-3 0-4.4 0l-4.8-.5-6.4-.6-3.3-.4a84 84 0 0 1-5-.3c-2.7-.2-5.3-.8-7.8-1.4h-.7c-2.2-.1-4.4-.5-6.6-.8a38 38 0 0 0-3-.2c-2.4 0-4.8-.3-7.3-.7-1.6-.2-3.3-.7-5-1l-5-1.2-5.6-1.5c-.4 0-.7-.2-1-.3h-.2a50.1 50.1 0 0 1-9.1-2.2l-3.4-1c-.8-.1-1.9-.5-2.4-.7a9 9 0 0 0-2-.7c-.5-.1-1.2-.3-1.7-.6l-1.2-.2-2.7-.4c-3.1-.4-6.1-1.3-9-2.2a76 76 0 0 1-12-5.4l.2 2.6.3 2.7c0 1.4.6 3.1 1.9 4.7.7.9 1.3 1.9 1.4 2.2a151.3 151.3 0 0 1 2.5 14.3l.5 3c.3.9 1.4 7 1.9 10.3a423.8 423.8 0 0 0 2.9 17.1 38.6 38.6 0 0 0 1 5.8l.7 3.7.7 4.1a737.6 737.6 0 0 0 5.6 33.2l.8 4.8a88.2 88.2 0 0 0 1.8 9.5l1.1 7.2 3.7-1.3v-.2l-.7-3.4-.6-3.3-.2-.8 1.5.8a34 34 0 0 0 6.8 3.3 76.2 76.2 0 0 1 6 2l2.2.5 7.3 1.7c3.9 1 14.3 2.5 20.8 3l1.7.3.6-1.3c.3-.7.6-1.7.6-2.3a105.7 105.7 0 0 0-1.4-12.5c0-.9 0-2-.2-2.5l-.6-4.7c-.2-3.1-1-9.5-1.4-12.8l-.5-5-.8-7.4a554.7 554.7 0 0 1-2.3-21.1 12.4 12.4 0 0 1-.2-2.3l-.4-3.8a86.9 86.9 0 0 1-.6-4.8 62 62 0 0 0-.5-4.6 48 48 0 0 1-.5-4 70 70 0 0 0-.6-6.5c.2-.1 4.9.3 9.7.9a137.8 137.8 0 0 0 16.1 1.2 468.9 468.9 0 0 0 48.5-.4 254.8 254.8 0 0 0 20.7-2c.8 0 .8.3.4 3a54.1 54.1 0 0 0-.4 3.6c0 1.1-.3 3-.5 4.4a71 71 0 0 0-.5 4.4 129.5 129.5 0 0 1-.6 5l-.3 3.3a7 7 0 0 1-.2 2l-.5 3.7a319.1 319.1 0 0 1-1 10.6 400.4 400.4 0 0 1-.9 7.5l-.6 6-1.3 11.5a206.6 206.6 0 0 0-.8 7.6 53.4 53.4 0 0 1-.8 7.2l-.4 3.8c-.5 2.7-.9 6.5-.8 7.4.2 1.5.7 3.4 1.1 3.9.4.4.7.5 2 .3a392.2 392.2 0 0 1 9.4-1.3 477 477 0 0 1 9.7-1.8 75.3 75.3 0 0 1 5.9-1.6l1.9-.5 1.4-.4c.5-.2 2-.8 3.6-1.2 2.6-.9 3.7-1.4 7.3-3.3 1.6-.9 1.7-1 1.6-.4-.2.5-.5 2.5-1.2 6.6l-.3 1.6a23.4 23.4 0 0 1 3.7.3l1.4-7.7a200.5 200.5 0 0 1 2-12.3l.5-2.4a125.1 125.1 0 0 0 2.1-12.3l.4-2a101.6 101.6 0 0 1 2-11.1 38.7 38.7 0 0 1 .4-2.8 78.6 78.6 0 0 0 1.2-7.4 373.4 373.4 0 0 0 2-11 44.5 44.5 0 0 1 1-6.1 261.2 261.2 0 0 1 1.8-11 203 203 0 0 1 2.5-13.3A238 238 0 0 1 255 129c.4-1.9.6-2.4 1.6-3.6 1.4-1.8 2-3 2.3-4.4.2-.8.1-1.1-.2-1.3-.4-.2-.4-.4 0-1.6.6-1.5.9-4.1.7-8.2zm-106.1 43.8c-4.2 0-8.5.1-10 .3a38.2 38.2 0 0 0-11.6 4l-5.5 2.6c-2.5 1-3 1.2-5.5 1.3-3 .1-3.7.4-3.7 1.5s2.4 3.6 4.2 4.4c.4.1.8.4.8.5 0 0-.7.6-1.7 1-1.4.8-1.9 1-3.7 1l-2.5.2c-.2.1-.3.5-.3 1s.4 1 1.5 2.2c1.4 1.2 1.8 1.5 3.2 1.8 1 .1 1.7.3 1.7.4l-.7 1a188.8 188.8 0 0 0-5.4 13.7c0 .2.2.6.5.9l.6.6-.6 2.2a161.9 161.9 0 0 0-1 3.6 46.5 46.5 0 0 1-.7 2.7c-.9 2.6-.4 3.3 1.9 3.2 1.4 0 5.5 1 6.8 1.6l2.1 1.7c1.3 1.3 1.5 1.5 1.1 1.9-.8 1-1.7 3-1.7 3.7 0 .4.4 1.4.8 2.2l4.8 8.4 1 1.7-.5.8c-1 1.7-3.3 10.1-3.2 11.7.1 1.2 1.6 1.8 4.4 1.8 1.9 0 2.3-.1 3.6-.9.9-.4 1.7-.8 1.9-.7.2 0 .7 1 1.1 2.2.6 1.6.8 2.5.8 4.2 0 2.2.2 2.5 2 4.7.5.6 1 1.4 1 1.7 0 .7 1.2 4.2 1.8 5l.7 2c.5 1.9 1.7 4.5 2.3 4.8.4.3.6.2 2.1-.5 0 0 .7.9 1.3 2.2.6 1.2 1.4 2.4 1.7 2.6.7.5 1.8.5 2.5 0l1.6-2.6 1.2-2.3.8.4c1.3.9 2 0 3.7-4.6a90.2 90.2 0 0 1 1.6-4c.5-1.2 1-2.5 1-2.9 0-.3.4-1.2 1-1.8 1.7-2.2 1.8-2.5 1.9-4.7 0-1.7.2-2.6.8-4.2.4-1.1 1-2.1 1.1-2.2.2 0 .8.1 1.3.4 2 1.2 5 1.7 6.8 1 1.4-.4 1.8-1 1.8-2 0-1.5-2-9-2.9-10.7l-.8-1.5.7-1.3 1-1.5a71.6 71.6 0 0 0 4.2-7.4c.8-1.5 1-2.4.3-3.7-.4-.9-.4-.9.3-1.9 1.8-2.7 2.9-3.3 6-3.5l2.2-.1.6-1.3c.5-1 .7-2 1-5.1l.2-5c0-.8.2-1 .8-1.3 1-.6 1-1 .6-3-.9-4-2.7-8.8-5.5-14.5-4.3-8.7-5.3-10-11.7-15.9-3.3-3-5.7-4.3-8.6-4.8l-3.5-.6c-1-.2-5.2-.3-9.4-.3zm3.6 2.8c3.7 0 4.5.1 6.9.6 1.8.4 3.7.6 4.1.5 1-.2 1.8.3 5.7 4 5 4.6 6 5.7 8.6 10.7a70.3 70.3 0 0 1 6.9 16.1l.4 1.6-.8.8c-.8.7-.8.8-.8 2.8 0 2-.4 6.5-.7 8.4-.1 1-.2 1-.8.8-1.1-.2-3.4.4-4.8 1.3-1.8 1.2-2 1.3-2 1l.3-.4 1.3-3.1a146 146 0 0 1 1.5-3.9c.3-.5.4-1.8.4-3.3 0-2-.2-3.1-1-6.3a34.2 34.2 0 0 0-5.1-11.8c-1.7-2.5-2.5-3.2-6.1-5.2-3.6-2-6.5-2.1-10.7-.4-2.7 1-4.1 2.1-5.4 3.9a56.3 56.3 0 0 1-1.5 2.1c-.5.6-.5.7-3.4 0-.2-.1-1-1-1.8-2.2-1.6-2-4.1-4.3-5.7-5a72.5 72.5 0 0 1-2.1-1c-1.6-.8-4.1-1.1-7-.7-2.4.3-4.3 1-5.7 2a21 21 0 0 1-5.5 2.9l-1.3-.1c-.4-.2 0-.6 2.9-2 1.6-.8 3.6-2.3 3.6-2.8.1-1.3-.4-1.9-1.7-1.9-.5 0-1.4-.2-2.1-.5-1.4-.5-1.4-.5-.6-.7.5 0 1.8-.5 3-1l2.7-1.1c.4-.1 2.4-1 4.5-2.1a33.5 33.5 0 0 1 19-4h4.8zm-21.2 14c3.6 0 7.5 2 10 5.3 2.5 3.4 2.8 3.7 4.2 3.8l2.3.2c1 .2 1.2 0 1.8-.5.5-.4 1.4-1.6 2-2.6 1.6-2.4 3.5-3.6 6.8-4.4 2.9-.8 3.8-.6 7 .9 2.8 1.4 3.7 2.2 5.4 5 1.9 3.1 4.5 9.4 4.5 10.8 0 .5 0 .5-.8-.2-1.1-.9-2.4-1-4-.6l-2.5.6a60.7 60.7 0 0 0-11.3 4.6c-1.3 1-1.6 1-2.2.3a6 6 0 0 0-2-1 19 19 0 0 1-1.5-.5l-.5-1.6c-.4-1.8-.7-2.2-1.5-2.2-1.1 0-1.4.6-1 2.5.5 2.6.7 3 2.5 3.8l2 1c.6.1.7.6.3.6l-1.4-.4a18.2 18.2 0 0 0-9.2.4c-.4 0-.3-.5.2-.7 1.4-.4 3.2-1.4 3.7-1.9.7-.7 1.3-4 .9-4.7-.4-.7-1.4-.8-1.8-.3-.2.2-.5 1-.7 2l-.5 1.5-1.5.5a6 6 0 0 0-2 1c-.7.7-.9.7-2.3-.4-.7-.5-2-1.1-2.8-1.5l-2.6-1a25.4 25.4 0 0 0-5.8-2 18.5 18.5 0 0 1-2.6-.6c-1.5-.4-2.7-.3-3.7.5l-.7.4 1-3.4a31.1 31.1 0 0 1 4.7-10.2c.5-1 2.8-4.3 3.3-4.6l2.3-.4zm-7.3 2.9-.8 1.2-1.5 2.7c-2 3.4-2.7 5.4-4 10.8-.8 3.4-1 4.3-1 7.1.1 3.5.2 4.2 1 5.6l.6 1.6c.2.6 0 .7-1 .2a7 7 0 0 0-2-.6 11 11 0 0 1-2.2-.5c-.5-.2-1-.4-1.4-.4-.2 0-.4-.1-.4-.3l1-3.9 1.5-5.5c.3-1.6.3-1.8-.1-2.5s-.4-.8 0-2l1.5-4.1c1-2.9 2.5-5.5 3.5-6.5l3-1.7zm34.8 8.4-2 .5a16 16 0 0 0-5.4 2.8c-.5.6-.5.7-.2 1.3.3.9.6.9 2.2-.1 1.5-1 2-1.2 4.4-2 1.9-.6 2.4-1.2 2-2a1 1 0 0 0-1-.5zm-24.5 1c-1.2 0-1.9.4-1.9 1 0 .8.5 1 2.4 1.4a18 18 0 0 1 5.9 2c1.2.7 1.8.8 2.2.4.9-.9 0-2-2.4-3a17.4 17.4 0 0 0-6.2-1.7zm37.8 8 1 .8c1 .8 1.4 1 2.2.5.4-.2.5-.1.6.7a17 17 0 0 1-1 6.3c-.2.6-.5 1.1-.7 1.2-.3 0-1.7-1-3.2-2.2a16.7 16.7 0 0 0-4.1-2.7c-1-.3-4.8-.9-5.9-1l1.3-.6c2-1 5.8-2.2 8-2.6zm-48.8.3h.9a39 39 0 0 1 8.4 2.7l1.3.6-1 .2-2.2.3c-2.4.3-3.9 1-6 2.6a17 17 0 0 1-2.8 2.2c-1 .7-1.3.8-1.5.3-.8-2.2-1-3.1-1.1-5.3l-.2-2.6 1 .2c.8.1 1 0 1.7-.6.6-.5.8-.7 1.5-.6zm35.9 6c2.2 0 4.8.2 6.4.7 1 .3 1.9.8 3 1.9 1 .8 1.7 1.6 1.7 1.8l-1.2 1.7c-.7.7-1.3 1.6-1.3 1.8-.2.4-.5.5-3.2.5-3.6 0-6.2-.6-7.5-1.7-1-.7-1-1-1.4-3.3l-.5-2.9c0-.4 1.8-.6 4-.6zm-24.1 0c1.3 0 3 0 3.5.2l1 .2-.1 1.3c-.6 4.4-.8 4.8-2.7 5.5l-1.7.7c-.7.3-2 .4-4.2.5h-3.2l-.4-.6a16 16 0 0 0-1.5-2c-.6-.7-1-1.4-1-1.5 0-.3 1.8-2 2.9-2.6 1.8-1 4.7-1.7 7.4-1.7zM152 200c1.7 0 1.9 0 3.6 1.3 1 .7 2 1.2 2.1 1.2.2 0 .5.5.7 1 .5 1.6 2.4 3.3 4.6 4 1 .3 2.2.6 2.8.6l2.6.3c1 .1 2.3.2 3.1 0 1.6-.1 1.3.1 4.2-3.9 1-1.3 1.5-1.7 1.8-1.2 0 0-.2 1.2-.7 2.4-.8 2.6-.9 3.5-.3 4 .5.4 1.7 2.7 1.7 3.3 0 .3-.3.9-.7 1.4-.4.4-1 1.5-1.5 2.3-2.4 4-3.4 5.7-3.6 5.7l-.8-.5a33 33 0 0 0-6.6-3.1c-1.6-.5-1.9-.7-1.4-1 .2-.2.3-.8.3-1.4 0-1-.2-1.4-1-2.3-1.8-2-4-2.6-4-1 0 .4.4 1 1.3 2l1.4 1.4-1.7 1.7a10 10 0 0 1-5.4 3.3c-2.4.7-2.8.7-5 0a9.9 9.9 0 0 1-5.4-3.3l-1.6-1.8 1.3-1.3c1-1 1.3-1.6 1.3-2 0-1.6-2.2-1-4 1-.8 1-1 1.3-1 2.2l.2 1.5c.3.4 0 .6-1.4 1a27.8 27.8 0 0 0-7.3 3.6c-.2 0-1.2-1.7-3.6-5.7-.4-.8-1.1-1.9-1.5-2.3-.4-.5-.7-1.1-.7-1.4a7 7 0 0 1 1.6-3.2c.7-.6.7-1.4-.2-4.1a10 10 0 0 1-.7-2.4c.4-.7 1.3.3 3.4 3.5l1 1.3c1 .7 6.8.4 10.1-.6 1.5-.5 2.1-.9 3.2-2 .9-.8 1.4-1.6 1.5-2.1.1-.5.4-.9.5-.9.2 0 1.2-.5 2.2-1.2 1.7-1.2 1.9-1.3 3.6-1.3zm-3.3 3.6c-.2 0-.5.1-.7.4-.5.7-.3 12.2.3 13.4.2.3.6.5 1 .5 1.4 0 1.4 0 .9-8.7-.2-3.8-.4-4.7-.7-5.1-.3-.3-.6-.5-.8-.5zm6.4.1c-.6 0-1 1-1 2.6a43 43 0 0 0-.5 11c.4.8 1.7.8 2.1 0 .2-.3.4-3 .5-6.8l.1-6.3-.6-.3a1 1 0 0 0-.6-.2zm6.5 17.1 1.2.2c2 .5 5.7 2.1 7 3.2.5.4 1.3 1.5 1.8 2.3l1.2 2a1945.9 1945.9 0 0 0 1.6 5.3c.5 2.1.6 2.7.3 2.9-.5.3-1 .2-2.9-.4-2.6-1-4.8-2.6-5.8-4.4-.7-1.5-3.7-3.4-7-4.5-2.4-.9-4-.7-6 .7l-1 .7-.6-.6c-2.1-2-5.8-1.7-10 .6-2.5 1.5-3 2-3.6 3.2-1 1.9-2.7 3.2-5.7 4.1-2 .6-2.9.7-2.9.2l.8-3 .8-3.2c0-.8 2.7-5 3.7-5.8 1.2-.9 4.6-2.5 6.6-3 1.5-.5 1.5-.5 2.2.1 2.7 2.5 8 4 11 3 3-.9 4.8-1.7 6.2-3 .4-.4.6-.5.9-.6h.2zm-14.3 8.7c.6 0 1.8.3 2.5.7 1.8.8 2.7.8 4.3 0 1.9-1 3.3-.9 5.7.2 1 .5 2.3 1.3 2.7 1.7 1.2 1.2 2.8 3.6 2.6 4l-.9 2.7a17 17 0 0 0-1 4.2 8 8 0 0 1-.5 2.5c-.3.4-.5.2-1.8-1.6-2-2.7-3.4-4.6-4.3-5.4-.8-.9-.8-1.2.2-1.6.9-.4 1.3-1.4.7-2-.3-.4-.7-.4-2.9.4-2 .7-3.6.7-5.7-.1-2-.8-2.6-.7-2.6.4 0 .4.3.8.9 1.2 1 .6 1 1 .3 1.5-.5.4-2.6 3-4.5 5.7l-1.4 2c-.4 0-.7-1.2-.8-3a26 26 0 0 0-1.1-4.7l-1-2.6.8-1 1.3-1.8a11 11 0 0 1 6.5-3.4zm5.6 8.8c.6 0 .8.3 1.3 1.2.5.7 1 1.4 1.3 1.6.6.4 2 2.5 3.6 4.9a6 6 0 0 1 1.3 3.5c.1 1.7 0 2-.8 3.7a50.3 50.3 0 0 0-1.7 3.7c-.7 1.9-.7 2-1.4 1.8-1.1-.2-1.8.4-3.2 2.7l-1.3 2-1-1.8c-1.2-2-2.4-3.2-3.5-3.2-.5 0-.8-.2-.8-.4 0-.4-1-3-2-4.7-.5-1-.6-1.7-.6-3.4 0-2 0-2.2 1-3.8 1.5-2.3 2.4-3.5 3.8-5.2l1.6-2c.2-.4.5-.5 1.6-.6a9 9 0 0 1 .8 0z"/><path fill="#595e64" d="m203.4 147.3-3.7 1v.5a54.1 54.1 0 0 0-.5 3.7c0 1.1-.3 3-.5 4.4a71 71 0 0 0-.5 4.4 129.5 129.5 0 0 1-.6 5 19 19 0 0 0-.3 3.3 7 7 0 0 1-.2 2 300.8 300.8 0 0 1-1.6 14.2 400.4 400.4 0 0 1-.8 7.6l-.6 6-1.3 11.5a206.6 206.6 0 0 0-.8 7.6 53.3 53.3 0 0 1-.8 7.2l-.4 3.8c-.5 2.7-.9 6.5-.8 7.4.2 1.5.7 3.4 1.1 3.9.4.4.7.5 2 .3a368.7 368.7 0 0 1 7.4-1 21.1 21.1 0 0 1-.7-1 51.9 51.9 0 0 1-1.4-2.3c-1.7.4-3.5.6-4 .6-1 0-1-.2-.5-3.8l.4-3.8.4-3.8.1-.5a29.9 29.9 0 0 1 0-3.4c0-1.9.2-3.8.5-5.7v-.9l.2-1.8v-.6 1.1a47.4 47.4 0 0 0 .1 4.2l1-9.3c-.4-3-.6-6.4-.4-10a262.5 262.5 0 0 1 1-14.3c.2-2.1.3-4.3.8-6.5.3-2.7.9-5.4 1.5-8 .6-2.5 1.3-4.9 1.7-7.3l.6-5.6a60 60 0 0 1 1.2-7.2l.4-2.9zm-39.8 6.9c-3.7.2-7.4.2-11.2.3h-11a52.4 52.4 0 0 0-9.6 3.6l-5.5 2.6c-2.5 1-3 1.2-5.5 1.3-3 .1-3.7.4-3.7 1.5s2.4 3.6 4.2 4.4c.4.1.8.4.8.5 0 0-.7.6-1.7 1-1.4.8-1.9 1-3.8 1l-2.4.2c-.2.1-.3.5-.3 1s.4 1 1.5 2.2c1.4 1.2 1.8 1.5 3.2 1.8 1 .1 1.6.3 1.6.4l-.6 1a188.8 188.8 0 0 0-5.4 13.7c0 .2.2.6.5.9l.6.6-.6 2.2a161.9 161.9 0 0 0-1 3.6 47 47 0 0 1-.6 2.2l.2 3.5c.3.2.9.2 1.6.2 1.4 0 5.5 1 6.8 1.6.4.2 1.3 1 2.1 1.8 1.3 1.2 1.5 1.4 1.1 1.8-.8 1-1.7 3-1.7 3.7 0 .4.4 1.4.8 2.2l4.8 8.4 1 1.7-.5.8c-1 1.7-3.3 10.1-3.2 11.7.1 1.2 1.6 1.8 4.4 1.8 1.9 0 2.3-.1 3.6-.9.9-.4 1.7-.8 1.9-.7.2 0 .7 1 1.1 2.2.6 1.6.8 2.5.8 4.2 0 2.2.2 2.5 2 4.7.5.6 1 1.4 1 1.7 0 .7 1.2 4.2 1.8 5l.7 2c.5 1.9 1.7 4.5 2.3 4.8.4.3.6.2 2.1-.5 0 0 .7.9 1.3 2.2.6 1.2 1.4 2.4 1.7 2.6.7.5 1.8.5 2.5 0l1.6-2.6 1.2-2.3.8.4c1.3.9 2 0 3.7-4.6a90.2 90.2 0 0 1 1.6-4c.5-1.2 1-2.5 1-2.9 0-.3.4-1.2 1-1.8 1.7-2.2 1.8-2.5 1.9-4.7 0-1.7.2-2.6.8-4.2.4-1.1 1-2.1 1.1-2.2.2 0 .8.1 1.3.4 2 1.2 5 1.7 6.8 1 1.4-.4 1.8-1 1.8-2 0-1.5-2-9-2.9-10.7l-.8-1.5.7-1.3 1-1.5a71.6 71.6 0 0 0 4.2-7.4c.8-1.5 1-2.4.3-3.7-.4-.9-.4-.9.3-1.9 1.8-2.7 2.9-3.3 6-3.5l2.2-.1.6-1.3c.5-1 .7-2 1-5.1l.2-5c0-.8.2-1 .8-1.3 1-.6 1-1 .6-3-.9-4-2.7-8.8-5.5-14.5-4.3-8.7-5.3-10-11.7-15.9-3.3-3-5.7-4.3-8.6-4.8l-2.7-.5zm-6.6 2.4c3.7 0 4.5.1 6.9.6 1.8.4 3.7.6 4.1.5 1-.2 1.8.3 5.7 4 5 4.6 6 5.7 8.6 10.7a70.3 70.3 0 0 1 6.9 16.1l.4 1.6-.8.8c-.8.7-.8.8-.8 2.8 0 2-.4 6.5-.7 8.4-.1 1-.2 1-.8.8-1.1-.2-3.4.4-4.8 1.3-1.8 1.2-2 1.3-2 1l.3-.4 1.3-3.1a146 146 0 0 1 1.5-3.9c.3-.5.4-1.8.4-3.3 0-2-.2-3.1-1-6.3a34.2 34.2 0 0 0-5.1-11.8c-1.7-2.5-2.5-3.2-6.1-5.2-3.6-2-6.5-2.1-10.7-.4-2.7 1-4.1 2.1-5.4 3.9a56.3 56.3 0 0 1-1.5 2.1c-.5.7-.5.7-3.4 0-.2-.1-1-1-1.8-2.2-1.6-2-4.1-4.3-5.7-5a72.5 72.5 0 0 1-2.1-1c-1.6-.8-4.1-1.1-7-.7-2.4.3-4.3 1-5.7 2a21 21 0 0 1-5.5 2.9H121c-.4-.3 0-.7 2.9-2 1.6-.9 3.6-2.4 3.6-2.9.1-1.3-.4-1.9-1.7-1.9-.5 0-1.4-.2-2.1-.5-1.4-.5-1.4-.5-.6-.7.5 0 1.8-.5 3-1l2.7-1.1c.4-.1 2.4-1 4.5-2.1a33.5 33.5 0 0 1 19-4h4.8zm-21.2 14c3.6 0 7.5 2 10 5.3 2.5 3.4 2.8 3.7 4.2 3.8l2.3.2c1 .2 1.2 0 1.8-.5.5-.4 1.4-1.6 2-2.6 1.6-2.4 3.5-3.6 6.8-4.4 2.9-.8 3.8-.6 7 .9 2.8 1.4 3.7 2.2 5.4 5 1.9 3.1 4.5 9.4 4.5 10.8 0 .5 0 .5-.8-.2-1.1-.9-2.4-1-4-.6l-2.5.6a60.7 60.7 0 0 0-11.3 4.6c-1.3 1-1.6 1-2.2.3a6 6 0 0 0-2-1 19 19 0 0 1-1.5-.5l-.5-1.6c-.4-1.8-.7-2.2-1.5-2.2-1.1 0-1.4.6-1 2.5.5 2.6.7 3 2.5 3.8l2 1c.6.1.7.6.3.6l-1.4-.4a18.2 18.2 0 0 0-9.2.4c-.4 0-.3-.5.2-.7 1.4-.4 3.2-1.4 3.7-1.9.7-.7 1.3-4 .9-4.7-.4-.7-1.4-.8-1.8-.3-.2.2-.5 1-.7 2l-.5 1.5-1.5.5a6 6 0 0 0-2 1c-.7.7-.9.7-2.3-.4-.7-.5-2-1.1-2.8-1.5l-2.6-1a25.4 25.4 0 0 0-5.8-2 18.5 18.5 0 0 1-2.6-.6c-1.5-.4-2.7-.3-3.7.5l-.7.4 1-3.4a31.1 31.1 0 0 1 4.7-10.2c.5-1 2.8-4.3 3.3-4.6l2.3-.4zm-7.3 2.9-.8 1.2-1.5 2.7c-2 3.4-2.7 5.4-4 10.8-.8 3.4-1 4.3-1 7.1.1 3.5.2 4.2 1 5.6l.6 1.6c.2.6 0 .7-1 .2a7 7 0 0 0-2-.6 11 11 0 0 1-2.2-.5c-.5-.2-1-.4-1.4-.4-.2 0-.4-.1-.4-.3l1-3.9 1.5-5.5c.3-1.6.3-1.8-.1-2.5s-.4-.8 0-2l1.5-4.1c1-2.9 2.5-5.5 3.5-6.5l3-1.7zm34.8 8.5-2 .4a16 16 0 0 0-5.4 2.8c-.5.6-.5.7-.2 1.3.3.9.6.9 2.2-.1 1.5-1 2-1.2 4.4-2 1.9-.6 2.4-1.2 2-2a1 1 0 0 0-1-.4zm-24.5 1c-1.2 0-1.9.3-1.9 1s.5 1 2.4 1.3a18 18 0 0 1 5.9 2c1.2.7 1.8.8 2.2.4.9-.9 0-2-2.4-3a17.4 17.4 0 0 0-6.2-1.7zm37.8 8 1 .7c1 .8 1.4 1 2.2.5.4-.2.5-.1.6.7a17 17 0 0 1-1 6.3c-.2.6-.5 1.1-.7 1.2-.3 0-1.7-1-3.2-2.2a16.7 16.7 0 0 0-4.1-2.6c-1-.4-4.8-1-5.9-1l1.3-.7c2-1 5.8-2.2 8-2.6zm-48.8.2h.9a39 39 0 0 1 8.4 2.7l1.3.6-1 .2-2.2.3c-2.4.3-3.9 1-6 2.6a17 17 0 0 1-2.8 2.2c-1 .7-1.4.8-1.5.3-.8-2.2-1-3.1-1.1-5.3l-.2-2.6 1 .2c.8.1 1 0 1.7-.6.6-.5.8-.7 1.5-.6zm35.9 6c2.2 0 4.8.2 6.4.7 1 .3 1.9.8 3 1.9 1 .8 1.7 1.6 1.7 1.8l-1.2 1.7c-.7.7-1.3 1.6-1.3 1.8-.2.4-.5.5-3.2.5-3.6 0-6.2-.6-7.5-1.7-1-.7-1-1-1.4-3.2l-.5-3c0-.4 1.8-.6 4-.6zm-24.1 0c1.3 0 3 0 3.5.2l1 .2-.1 1.3c-.6 4.4-.8 4.8-2.7 5.5l-1.7.7c-.7.3-2 .4-4.2.5h-3.2l-.4-.6a16 16 0 0 0-1.5-2c-.6-.7-1-1.4-1-1.5 0-.3 1.8-2 2.9-2.6 1.8-1 4.7-1.7 7.4-1.7zM152 200c1.7 0 1.9 0 3.6 1.3 1 .7 2 1.2 2.1 1.2.2 0 .5.5.7 1 .5 1.6 2.4 3.3 4.6 4 1 .3 2.2.6 2.8.6l2.6.3c1 .1 2.3.2 3.1 0 1.6-.1 1.3.1 4.2-3.9 1-1.3 1.5-1.7 1.8-1.2 0 0-.2 1.2-.7 2.4-.8 2.6-.9 3.5-.3 4 .5.4 1.7 2.7 1.7 3.3 0 .3-.3.9-.7 1.4-.4.4-1 1.5-1.5 2.3-2.4 4-3.4 5.7-3.6 5.7l-.8-.5a33 33 0 0 0-6.6-3.1c-1.6-.5-1.9-.7-1.4-1 .2-.2.3-.8.3-1.4 0-1-.2-1.4-1-2.3-1.8-2-4-2.6-4-1 0 .4.4 1 1.3 2l1.4 1.4-1.7 1.7a10 10 0 0 1-5.4 3.3c-2.4.7-2.8.7-5 0a9.9 9.9 0 0 1-5.4-3.3l-1.6-1.8 1.3-1.3c1-1 1.3-1.6 1.3-2 0-1.6-2.2-1-4 1-.8 1-1 1.3-1 2.2l.2 1.5c.3.4 0 .6-1.4 1a27.8 27.8 0 0 0-7.3 3.6c-.2 0-1.2-1.7-3.6-5.7-.4-.8-1.1-1.9-1.5-2.3-.4-.5-.7-1.1-.7-1.4a7 7 0 0 1 1.6-3.2c.7-.6.7-1.4-.2-4.1a10 10 0 0 1-.7-2.4c.4-.7 1.3.3 3.4 3.5l1 1.3c1 .7 6.8.4 10.1-.6 1.5-.5 2.1-.9 3.2-2 .9-.8 1.4-1.6 1.5-2.1.1-.5.4-.9.5-.9.2 0 1.2-.5 2.2-1.2 1.7-1.2 1.9-1.3 3.6-1.3zm-3.3 3.6c-.2 0-.5.1-.7.4-.5.7-.3 12.2.3 13.4.2.3.6.5 1 .5 1.4 0 1.4 0 .9-8.7-.2-3.8-.4-4.7-.7-5.1-.3-.3-.6-.5-.8-.5zm6.4.1c-.6 0-1 1-1 2.6a43 43 0 0 0-.5 11c.4.8 1.7.8 2.1 0 .2-.3.4-3 .5-6.8l.1-6.3-.6-.3a1 1 0 0 0-.6-.2zm6.5 17.1 1.2.2c2 .5 5.7 2.1 7 3.2.5.4 1.3 1.5 1.8 2.3l1.2 2a1945.9 1945.9 0 0 0 1.6 5.3c.5 2.1.6 2.7.3 2.9-.5.3-1 .2-2.9-.4-2.7-1-4.8-2.6-5.8-4.4-.7-1.5-3.7-3.4-7-4.5-2.4-.9-4-.7-6 .7l-1 .7-.6-.6c-2.1-2-5.8-1.7-10 .6-2.5 1.5-3 2-3.6 3.2-1 1.9-2.7 3.2-5.7 4.1-2 .6-2.9.7-2.9.2l.8-3 .8-3.2c0-.8 2.7-5 3.7-5.8 1.2-.9 4.6-2.5 6.6-3 1.5-.5 1.5-.5 2.2.1 2.7 2.5 8 4 11 3.1 3-1 4.8-1.8 6.2-3.1.4-.4.6-.5.9-.6h.2zm-14.3 8.7c.6 0 1.8.3 2.5.7 1.8.8 2.7.8 4.3 0 1.9-1 3.3-.9 5.7.2 1 .5 2.3 1.3 2.7 1.7 1.2 1.2 2.8 3.6 2.6 4l-.9 2.7a17 17 0 0 0-1 4.2 8 8 0 0 1-.5 2.5c-.3.4-.5.2-1.8-1.6-2-2.7-3.4-4.6-4.3-5.4-.8-.9-.8-1.2.2-1.6.9-.4 1.3-1.4.7-2-.3-.4-.7-.4-2.9.4-2 .7-3.6.7-5.7-.1-2-.8-2.6-.7-2.6.4 0 .4.3.8.9 1.2 1 .6 1 1 .3 1.5-.5.4-2.6 3-4.5 5.7l-1.4 2c-.4 0-.7-1.2-.8-3a26 26 0 0 0-1.1-4.7l-1-2.5.8-1 1.3-1.9a11 11 0 0 1 6.5-3.4zm5.6 8.8c.6 0 .8.3 1.3 1.2.5.7 1 1.4 1.3 1.6.6.4 2 2.5 3.6 4.9a6 6 0 0 1 1.3 3.5c.1 1.7 0 2-.8 3.7a50.3 50.3 0 0 0-1.7 3.7c-.7 1.9-.7 2-1.4 1.8-1.1-.2-1.8.4-3.2 2.7l-1.3 2-1-1.8c-1.2-2-2.4-3.2-3.5-3.2-.5 0-.8-.2-.8-.4 0-.4-1-3-2-4.7-.5-1-.6-1.7-.6-3.4 0-2 0-2.2 1-3.8 1.5-2.3 2.4-3.5 3.8-5.2l1.6-2c.2-.4.5-.5 1.6-.6a9 9 0 0 1 .8 0z"/><path fill="#020202" d="M140.4 300.4a188.3 188.3 0 0 1-43.8-6 83 83 0 0 1-12-3.8 36.8 36.8 0 0 1-11-7.7c-1.6-2-2.2-3.4-2.6-6.2 0-.8-.4-3-.7-4.7a448.3 448.3 0 0 1-.9-5l-.5-2.8a25.6 25.6 0 0 1-.4-2.3l-1.4-8a111.5 111.5 0 0 1-.6-3.5l-1.4-8.6a475 475 0 0 1-1.7-10l-1.4-7-.6-4a215.2 215.2 0 0 0-1-6.6l-1.2-6.3a1120.4 1120.4 0 0 0-2.5-14.6 212.4 212.4 0 0 1-2.5-14.6A394.7 394.7 0 0 1 53 171a62.7 62.7 0 0 0-1.2-6.2l-1.3-8.2a47.3 47.3 0 0 1-.5-3l-1.7-9.7a83.8 83.8 0 0 1-1.5-8.9l-.8-4.2c-.7-4.2-1-5-2.1-6.5-1.4-1.7-1.9-2.8-1.9-4.2a78.8 78.8 0 0 1-.3-14.8c.8-4.1 3.3-7.5 8.6-11.3l2.6-1.6c.7-.3 1.3-.7 1.4-.9l2.7-1.3 4-1.7a71.5 71.5 0 0 1 12-4.2 44.4 44.4 0 0 1 7.5-1.9 16 16 0 0 1 3.2-.8l4.1-.8C91 80 95.1 79.2 97 79a860.8 860.8 0 0 0 8-1.1 273.5 273.5 0 0 1 16.5-1.7 31.6 31.6 0 0 0 2.7-.2l4.7-.4 8-.3a681 681 0 0 1 29.6 0 267.1 267.1 0 0 1 29.8 2.6l2.4.2c.4.2 1.8.4 3.3.6a56.2 56.2 0 0 1 7.4 1.2c.9 0 2.6.4 3.8.6l3.9.8a78.6 78.6 0 0 1 10.7 2.7l2.6.8a91.2 91.2 0 0 1 17.8 7.4c4.7 2.4 9 6.7 10.3 10 1 2.4 1 2.9 1 8.8 0 4.6 0 5.3-.5 6.8-.5 1.4-.5 1.8-.3 2.3.7 1.2-.2 3.5-2.2 5.7a10 10 0 0 0-1.7 5.1 47 47 0 0 1-.7 3.7 35.3 35.3 0 0 0-.5 3.5l-.7 4.2a99.8 99.8 0 0 0-1 5 33 33 0 0 1-.6 3.5l-.2 1.7-.4 2.7a152 152 0 0 0-1.9 10.5l-.8 4.4-1 6.2a1200.6 1200.6 0 0 0-7.7 44.8 141.7 141.7 0 0 1-1 5.5 120.9 120.9 0 0 0-.7 4.2 149.8 149.8 0 0 1-2.2 12.6l-.5 3.4-.5 2.7a141.8 141.8 0 0 1-1.9 10.8 37 37 0 0 1-1 5.9 436.6 436.6 0 0 1-.8 4.9l-.8 5.1c-.4 2.8-.8 4.2-2.1 6a18 18 0 0 1-6 5.4l-2.2 1.3a635.8 635.8 0 0 0-5.3 2.4 45.5 45.5 0 0 1-7.6 2.6 65.5 65.5 0 0 1-9.5 2.3 49 49 0 0 1-3.3.6 63 63 0 0 0-2.4.4 115 115 0 0 1-9.9 1.5c-8.4 1.3-30.6 2.2-41.1 1.7zm23.1-3.8A168.4 168.4 0 0 0 189 294a96.4 96.4 0 0 0 3.2-.5 90.4 90.4 0 0 0 17.4-4.5c1.4-.5 2.8-1 3.2-1a44 44 0 0 0 8.5-4.5c2-1.5 3.6-3 4-4 .2-.3.5-1.3.6-2.2a138 138 0 0 1 1.5-8.3 207.3 207.3 0 0 1 1.7-10 81.7 81.7 0 0 0 1.7-10.3A984.3 984.3 0 0 0 234 230l-2.8 1.4a35.8 35.8 0 0 1-7.5 3.2l-2.2.8-1.5.4a74.7 74.7 0 0 1-27 5.1h-1.6l-.5-1c-.5-1-.6-1.6-.5-4.2 0-1.8.2-4.6.4-6.3l1.4-12.2c0-1.2.5-4.5.8-7.4a356.3 356.3 0 0 0 2-17.4 273 273 0 0 0 1.5-15.2 76.8 76.8 0 0 1 1-7.8l.2-3.3a751.6 751.6 0 0 0 1.5-11.8c.7-6 .9-8.3.6-8.6-.3-.2-.8-.2-2 0a235.4 235.4 0 0 1-29.2 2.6l-6.5.3a474.5 474.5 0 0 1-43-1.2 135.7 135.7 0 0 1-13.4-1.3H104l.2 1.4a185.5 185.5 0 0 1 1 8.5l.5 4.2a216.8 216.8 0 0 0 1 9.2c-.2.1 0 1.1.1 2.1.3 1.1.6 3.5.7 5.4a192.4 192.4 0 0 0 1 9.1 267.5 267.5 0 0 0 1.6 14.7 356.2 356.2 0 0 0 1.8 16.3l1.3 12.5c1.1 7.5 1.2 9.2.4 10.9-.6 1.4-.3 1.3-5 .8a162.6 162.6 0 0 1-31.9-6.5 33.8 33.8 0 0 1-7.2-3 12 12 0 0 0-2.6-1.4c-.1.1 0 .8.1 1.7a158 158 0 0 1 1.5 8.4c.1 1.2.7 4.7 1.6 9.4a211.6 211.6 0 0 1 1.9 10.7l.4 2.3a102 102 0 0 1 1.5 8.6 40 40 0 0 0 1.6 7.6 16 16 0 0 0 4.4 4.9 81.3 81.3 0 0 0 31.8 10c.4.2 1.1.3 1.7.3a113.8 113.8 0 0 0 14.4 1.6l3.8.4c.5.2 4.3.4 12.7.5l6.6.3c.1.1 1 .1 12.6-.5zm-12.4-29.7c-.5-.1-2.1-2.7-2.4-3.8-.3-1.2-.8-1.5-1.7-1l-1.2.3c-.5-.1-1.8-2.8-2.3-4.7l-.9-2.3a21 21 0 0 1-1.7-5 5 5 0 0 0-1.2-2c-1.6-1.8-1.7-2.2-1.7-4.5a9 9 0 0 0-.8-4c-.9-2.1-1.3-2.5-2.3-1.8a7 7 0 0 1-4.2 1.3c-2.3 0-4-.5-4.4-1.3-.4-1.1 1.5-9 2.8-11.7l.7-1.4-.6-1.1a34 34 0 0 0-1.3-2.2l-1.1-2-1.2-2.1-1.5-2.5c-1.2-2-1-3 1-6 .3-.5.1-.7-1.1-1.9l-2-1.6a24 24 0 0 0-7-1.8c-1.8 0-2.5-.4-2.3-1.5 0-.7.8-3.5 2-7.9l.6-2.1-.6-.8-.5-.8.7-2 1.4-3.9a601.7 601.7 0 0 0 1.6-4c.5-1.3 1.2-3 1.6-3.6.9-1.3.7-1.7-.7-1.7-1 0-2.2-.6-3.6-2-1.2-1.2-1.5-2-1-2.7 0-.2 1-.3 2.4-.4a8 8 0 0 0 3-.5 841.7 841.7 0 0 1 1.7-.9c1-.5 1-.8-.3-1.3s-4-3.3-4-4.2c0-1.1.8-1.4 4-1.5 3.1-.1 3.2-.2 10.8-3.8a37 37 0 0 1 21.3-4.4 45.2 45.2 0 0 1 14 1.1c1.7 0 4.6 1.8 7.9 4.8l3.2 2.9c.3 0 3.2 3.4 3.8 4.5a122.5 122.5 0 0 1 8.4 17c1 2.8 1.6 4.9 1.7 6.4.2 1.6.2 1.6-.6 2.2-.9.6-.9.7-1.3 8.5a6 6 0 0 1-1.3 4c-.3.4-1 .5-2.4.5-2.5 0-3.6.5-5.2 2.6-1.4 1.7-1.5 2-.8 3.2.5 1.1.2 2.4-1 4.2-1.3 2-5.3 9-5.3 9.4l.5 1c.7.9 1.2 2.4 2.3 6.8 1.3 5.3 1.3 5.5-1 6.3-1.6.5-4.5.1-6.5-1-.8-.4-1.5-.7-1.6-.6-.2.1-.6 1.1-1 2.2a8.7 8.7 0 0 0-.9 4c0 2.4-.1 2.7-1.7 4.6-.7 1-1.2 1.8-1.5 3.1l-1.2 3.4-1.3 3c-.6 2.2-1.6 4-2.2 4.4-.5.3-.7.2-1.2 0l-.8-.5-1.2 2.1c-1.5 2.9-2.2 3.4-3.8 3zm2-4.8c1.2-2.4 2.4-3.6 3.2-3.3l.8.2 1.3-2.6c.5-1.5 1.3-3.1 1.6-3.7.5-.9.5-1.3.4-3a6.7 6.7 0 0 0-1.3-4 28.4 28.4 0 0 0-3.8-5l-1.5-2c-.2-.5-.5-.6-1.8-.6-1.5 0-1.5 0-2 1l-1.9 2.4c-.8.9-2 2.6-2.8 3.9l-1.5 2.3v2.1c0 1.9.1 2.4.8 3.7a47.3 47.3 0 0 1 1.5 3.4c.6 1.8.7 2 1.4 1.8 1-.2 1.8.6 3.2 3l1.3 2.2 1-1.8zM143 244.2l2.4-3.2 2-2.4c.5-.7 1-1.2.9-1.3l-1-.5c-.7-.4-.9-.6-.8-1.1.1-1 .7-1 2.3-.4a9 9 0 0 0 6.5 0c1.6-.7 2.1-.7 2.4 0 .2.5-.1 1-1.1 1.6l-1 .6 1 1 4.7 6 1.1 1.7.5-.7a4 4 0 0 0 .5-2.2c0-1.6.4-3.2 1.4-5.9l.7-1.7-1.2-1.6a7.6 7.6 0 0 1-1.2-1.7c0-.2-2.2-1.6-3.7-2.3-2-1-3.1-1-5.2 0l-2.2.7a9 9 0 0 1-2.3-.8c-2-1-2.8-1-5.2.1a9.4 9.4 0 0 0-4.3 3.3c-1.6 2.2-1.6 2.1-.6 4.9a21 21 0 0 1 1 4.4c0 1.8.6 3.5 1 3.5l1.4-2zm-10.9-7.8c2.8-.9 5.3-2.7 5.7-4.1.4-1.4 4.3-4 7.5-5 2-.5 3.8-.3 5.4.8 1.3.8 1.4.8 2.7-.1 1.3-1 3.7-1.1 5.6-.5 3.2 1 6.2 3 7 4.7.9 1.6 3.4 3.5 5.5 4.2 1 .3 2.3.5 2.7.5 1 0 1-.2 0-4.5-.7-3-1-3.8-2.7-6.1a3 3 0 0 1-.4-1c0-1-4.9-3.6-8-4.4l-1.9-.4-1 1a14.5 14.5 0 0 1-8.2 3c-2.5 0-6.2-1.3-8.2-3-.8-.8-1.3-1-1.7-.8l-1.7.5c-1.6.4-5.5 2.4-6.4 3-.7.7-3.4 5.2-3.4 5.8l-.8 3.2c-.5 1.6-.8 3.1-.7 3.3.2.6 1 .5 3-.1zm.3-14.4a33 33 0 0 1 6.7-3.2c1.2-.4 1.5-.6 1.4-.9-.1-.2-.3-.9-.3-1.4-.2-1 0-1.1 1.3-2.5 1.4-1.4 2.4-1.9 3.2-1.6.8.3.4 1.1-.9 2.4-.7.7-1.3 1.5-1.3 1.6 0 .5 3.4 3.8 4.3 4.2 1.8.9 4 1.5 5.2 1.5 1.3 0 4.2-.9 5.6-1.7 1-.7 4-3.6 4-4l-1.4-1.6c-1.3-1.3-1.6-2.1-1-2.4.8-.3 1.8.2 3.1 1.4 1.5 1.3 1.8 2.4 1.3 3.7-.3.8-.2 1 1.5 1.4 1.4.5 5.6 2.4 6.6 3.1l.8.6.5-.6.4-.8c0-.2 1.3-2.3 3.8-6.1l1.3-2-.7-1.5-1.2-2.1c-.6-.6-.6-.7-.2-1.9.1-.7.6-2 .9-2.8.6-1.4.6-1.5.1-1.7-.5-.3-1.3.5-3.3 3.4a6 6 0 0 1-1.4 1.6c-.7.3-3.7.3-6.2 0-4.3-.6-6.8-2-7.9-4.4-.3-.6-.9-1.3-1.4-1.6a35.3 35.3 0 0 1-2-1.3c-1-.7-1.5-.8-3-.9-1.8 0-2 0-3.2.8a44.4 44.4 0 0 1-2.2 1.4c-.7.4-1 .9-1.2 1.4-.3 1.2-2.5 3.1-4.3 3.8-2.5.8-8.7 1.4-10 .8-.2 0-.9-.8-1.4-1.6a47 47 0 0 0-1.9-2.6c-.8-1-1-1-1.4-.8-.5.2-.5.3 0 1.6a25.2 25.2 0 0 1 1.2 3.5c.1.4 0 .9-.6 1.5-.4.6-1 1.5-1.2 2.2l-.5 1.2 1 1.5 1.5 2.5 1 1.4 1.3 2.1 1 1.8c.1.3.5.1 1.1-.4zm16.2-4.5c-.4-.5-.9-5.8-.8-9.8l.1-3.7.7-.1c.5 0 .8 0 1 .4.4.9 1 12.7.5 13.2a1 1 0 0 1-1.5 0zm5.3 0c-.3-.3-.3-1.7 0-6.6.1-3.3.4-6.3.5-6.6a1 1 0 0 1 1.5-.1c.7.8.2 12.5-.5 13.3a1 1 0 0 1-1.5 0zm-14-12.4c2.7-.8 3.5-1.7 4-4.1l.4-2.8v-.9l-2-.2c-2.9-.5-6.7 0-9.5 1.1-1 .5-3.8 2.8-3.8 3.3l1.3 1.8c.7 1 1.3 1.8 1.3 2 0 .5.4.6 3.6.5 2-.1 3.5-.3 4.8-.7zm32.5.2c0-.2.4-1 1-1.6 1.8-2 1.8-2.1.5-3.5-2-2.1-3.6-2.7-8-3.1h-4.2l-2 .2v1c0 1.2.7 4.8 1 5.2a8 8 0 0 0 3.2 1.7c1 .3 7.5.7 8.1.5a.5.5 0 0 0 .4-.4zm10.6-1.7a11 11 0 0 1 2.6-.5l1.7-.2.2-1.8.4-5.6c.2-3.1.3-3.9.7-4.3.3-.3.7-.6.9-.6.5 0 .3-.7-1.1-5.1-2-6-7-15.8-9.7-19a85.3 85.3 0 0 0-8.4-8c-1-.9-1.3-1-2.2-.8-.5 0-1.5 0-2.2-.3-3.2-.9-5.3-1-14.2-.8h-8.8l-3.3 1.2c-1.9.6-4.8 1.8-6.6 2.8a47.5 47.5 0 0 1-9.6 3.9c-.7.1-1.3.4-1.2.5.1.4 2.5 1.2 3.5 1.3 1 0 1.4.4 1.4 1.3 0 .6-.3 1-1.6 1.8a49.5 49.5 0 0 1-5.5 3.2c0 .4 1.8.5 2.8.2 1.1-.3 4.5-2 5.3-2.8 2.2-2 9.2-2.7 12.3-1.2l2.1 1c1.4.7 4 3 5.6 5 1.6 2.2 1.7 2.3 2.6 2.3.4 0 1 .2 1.5.4.6.2.7.2 1-.2.8-1.5 3.3-4.4 4.2-5a20 20 0 0 1 6.4-2.4c2.5-.4 4.3 0 7 1.3 3.5 2 4.4 2.7 6 5.2 2.6 3.8 4 7 5.2 11.7 1.5 6 1.5 8.2-.2 12.2l-2.3 5.5 1.3-.8 2.2-1.4zm-59.7-.6-.8-2c-.6-1-.8-2-1-4.6l-.2-3.3 1-4c1.4-6.3 2.6-9.2 5.8-14.6.7-1 1.1-2 1-2 0 0-.5.2-1 .7l-3 1.7c-2.6 1.2-4 3.2-5.6 8a171.6 171.6 0 0 1-1.5 4c-.5 1.3-.5 1.4 0 2 .5 1 .3 2-1.4 8l-1.1 4a16 16 0 0 0 4.6 1.5c.6 0 1.5.4 2 .7 1.2.6 1.4.6 1.2-.1zm3-2.9 3-2.3c2.3-2 3.5-2.5 7-2.8l2.3-.3c.5-.3-4-2.1-7.5-3.1-3-.8-3.6-.8-4.9.1-1 .7-1.2.8-1.7.5-.3-.2-.7-.2-.8-.1-.3.3 0 5 .4 6.3.5 1.5.9 2.3 1 2.3l1.2-.6zm53.4-1.2c.7-1.8 1.1-6.8.6-7.3-.2-.2-.3-.2-.3 0s-.2.5-.5.6c-.5.3-.7.2-1.7-.5s-1.3-.8-2.3-.7a40.5 40.5 0 0 0-10.5 3.5c0 .2 1.2.4 2.8.5 3.4.4 4.9 1 7 2.9 2 1.7 3.7 2.8 4 2.7.2 0 .6-.8.9-1.7zm-31.3-2.9c1.7-.5 6-.4 7.7.2 1 .4 1.3.4 1.5.2.2-.4-.4-1-1-1-1 0-3.2-1.6-3.5-2.4-.6-1.3-.5-4 0-4.3.7-.5 1.5.4 1.8 2 .3 1.7.6 2 2 2.2a3 3 0 0 1 1.7.8c1 .8 1.5.8 2.8-.1.6-.5 2.4-1.4 4-2l4.2-1.8c.7-.3 2-.6 2.9-.8l3-.6c1.5-.4 2.4-.2 3.7 1l.9.8-.2-1c-.4-2.2-2.3-7.2-4.1-10.3-2-3.4-2.8-4.2-5.9-5.7-2.3-1.2-3-1.4-4.1-1.4-3 0-6.8 1.5-8.4 3.2l-1.9 2.5c-1.6 2.3-2.3 2.8-3.6 2.3-.5-.1-1.3-.3-2-.3-1 0-2-.7-3.8-3.4a12.8 12.8 0 0 0-10-5.6c-2.3 0-3 .3-3.8 1.7a86.6 86.6 0 0 1-1.5 2.2l-.8 1.3-.7 1.2c-2 3-3.3 6-4.3 9.9a163 163 0 0 1-.7 2.6c-.1.5 0 .4.7-.2 1-1 2.6-1.2 4.4-.6a17.3 17.3 0 0 0 2.6.5c1.1.2 2.8.8 5.3 2a38.9 38.9 0 0 0 2.3.8c.8.3 2 1 2.8 1.5 1.5 1.1 2 1.1 3 .3.4-.4 1.2-.8 1.8-.9 1.3-.2 1.6-.4 2-2 .3-1.7 1-2.6 1.7-2.1.6.4.5 3.3 0 4.5-.4.7-1.8 1.6-4 2.4-.5.2-.7.4-.5.7 0 .3.3.4.5.3l1.5-.6zm-3.4-9c-1.3-.8-3.8-1.6-5.8-1.8-2.2-.3-2.9-1-1.6-1.9.9-.6 3-.2 6.1 1 2.6 1 3.9 1.9 3.8 2.7-.2.8-1.2.8-2.5 0zm10.9-.3c-.4-.4-.1-1.3.5-1.8 1.8-1.3 6.4-3.1 7.3-2.9.6.2.8 1 .5 1.4-.2.2-.8.5-1.3.6a28 28 0 0 0-5.1 2.3c-1 .6-1.6.8-2 .4zm-45.5 49.6-1-9.3a61.8 61.8 0 0 1-.4-4c0-1.3-.2-2.4-.3-2.5l-.3-2.4-.6-4.6a218.9 218.9 0 0 1-1-10.8c-.2-.8-.5-4-.8-7a224 224 0 0 0-1.4-11.7 8043.4 8043.4 0 0 0-.5-4.8 512.3 512.3 0 0 1-1-9.9 612.8 612.8 0 0 1-1.8-16.3c-.4-4.3-.9-7.6-1-7.6-.9 0-6.6-1-8.1-1.3l-5.8-1.2c-6-1.1-10.6-2.3-18.1-4.7a75.7 75.7 0 0 1-18.9-8.6s0 1 .3 2a135.6 135.6 0 0 1 2 11.1 330 330 0 0 0 2.8 16.3l.8 4.9a135.5 135.5 0 0 0 1.8 10.6l.6 3.4a159 159 0 0 1 1.3 7.4l1.3 7.6 1.5 8.8 1.7 9.6a98.1 98.1 0 0 0 2.5 13.3 17.5 17.5 0 0 0 8.2 5.4 48.1 48.1 0 0 1 4.8 2l2.5.6A96.5 96.5 0 0 0 96 236a287.3 287.3 0 0 0 13.8 2h.7l-.1-1.6zm87.4.6 5.1-.9a217.5 217.5 0 0 0 17.3-3.8c.5 0 2.5-.8 6.8-2.6 4-1.7 7-4 7.8-6 .2-.3.5-1.6.7-2.8l.8-4.3a367.4 367.4 0 0 0 1.8-10.8 438.2 438.2 0 0 0 3.7-21.4 130 130 0 0 0 1.6-9.6l.9-4.5a105 105 0 0 0 1.3-8.3 377.2 377.2 0 0 0 2-10.6 372.8 372.8 0 0 0 3-17.6c.1-1.4.4-2.7.5-3 .2-.6-.1-.5-1.4.4a69.4 69.4 0 0 1-18.9 8l-5.1 1.4a219.5 219.5 0 0 0-8.8 2.2 839.9 839.9 0 0 0-12.7 2.3c-.5 0-.6.4-.8 2.2a184.7 184.7 0 0 0-1.1 9.7l-.6 5.4a311 311 0 0 0-1.4 13.7l-.6 4.4a368.9 368.9 0 0 1-1.7 15.4c-.3 3-.6 6.2-.8 7a44 44 0 0 0-.3 3.3c-.6 6.7-.7 8-1.5 13.6a63 63 0 0 0-.4 4c0 1-.3 2.5-.4 3l-.3 2.7-.4 4c-.5 3.9-.5 4 .5 4l3.4-.5zm-36.1-92.6a134.5 134.5 0 0 0 16-.9 229.3 229.3 0 0 0 25.8-3 92.7 92.7 0 0 1 4.2-.6c2.1-.2 3.7-.6 6.2-1.1a726.3 726.3 0 0 1 9.5-2.3 187.6 187.6 0 0 1 3-.9 64.7 64.7 0 0 0 22.1-9.5c2-1.4 4.5-3.8 5.7-5.5.6-1 1.5-4.6 1.2-4.9l-2 1.6a52.5 52.5 0 0 1-19.2 10c-.3.2-1 .5-1.6.6l-2.5.7a89 89 0 0 1-11.2 3l-2.8.6a2087.4 2087.4 0 0 1-17.1 3 304.6 304.6 0 0 1-37.5 3 442.4 442.4 0 0 1-38-.7 347.7 347.7 0 0 0-5.8-.5l-5.5-.5a221.6 221.6 0 0 0-5.7-.7c-4.7-.4-12.3-1.6-15-2.2a92.2 92.2 0 0 0-4.5-1c-3.6-.6-11.6-2.4-13.3-3a131 131 0 0 0-2.7-.8 110 110 0 0 1-10.7-3.7 228 228 0 0 0-4-1.9 39 39 0 0 1-8.2-5 324.9 324.9 0 0 0-2-1.6l-.7-.7v.8c0 1.2.6 3.8 1 4.5.9 1.2 3 3.4 4.5 4.5a58.8 58.8 0 0 0 18.4 8.7l2.5.8 3.7 1c4.3 1.2 4.9 1.4 6.7 1.7a244 244 0 0 1 10.2 2l3.8.7 3.4.5 3 .4 5.2.7 6.1.6a384.3 384.3 0 0 0 47.8 1.6zm10.2-11a85.5 85.5 0 0 1 10.1-.6 188.6 188.6 0 0 1 11.4-1.2l5.8-.8a126.2 126.2 0 0 0 5.1-.8 70.2 70.2 0 0 1 4.3-.7c1.8-.2 3-.4 7.4-1.4l3.5-.8a98.3 98.3 0 0 0 4.3-1l3.5-1c3.4-1 11.7-4 13.9-5 2-1 6.8-3.7 8.3-4.7 2.1-1.5 4.2-3.6 5-5.4 1.6-3 .6-6.4-2.9-9.7a27.5 27.5 0 0 0-5-3.8 81.2 81.2 0 0 0-22-8.6 38 38 0 0 1-2.6-.8l-1.5-.4-4-.7c-4.8-1-6-1.3-9.6-1.9a1075.6 1075.6 0 0 0-16.8-2.4l-2.5-.2a124 124 0 0 0-15.5-1.2c-3.3-.5-28.5-.7-38.6-.4a196.5 196.5 0 0 0-18.8 1.4 74.2 74.2 0 0 0-12.2 1.4 104 104 0 0 0-14 2.3 50 50 0 0 0-7.3 1.6 137.1 137.1 0 0 0-19.5 6 48.4 48.4 0 0 0-9.6 5c-.5 0-4.6 4-5.3 5.1a8 8 0 0 0-1.3 5c.3 1.4 1.6 3.5 3.4 5.2 3.1 3.2 7.2 5.7 14.2 8.5a474.8 474.8 0 0 1 4.8 1.7l1.9.7c.5.3 1.6.6 2.4.8l3.3.9a50.9 50.9 0 0 0 9.2 2.2 116.6 116.6 0 0 0 13.6 2.5 187 187 0 0 0 19.2 2.3l5.4.5a345.3 345.3 0 0 0 49 .4z"/><path fill="#e9242b" d="m231.2 241.2-6.6 1.7v.8a.8.8 0 0 1 .7.3c.2.2.3.5.3.9 0 .3 0 1-.3 2l-2.6 9.2-3.7-7.7c-.4-.8-.6-1.4-.6-1.7 0-.8.2-1.3.7-1.6v-.8l-6.3 1.6-7 1.2v.8c.5 0 .8.3.8.8 0 .3-.1.7-.4 1.2l-6.5 11.9-.6-11c0-.6 0-1 .2-1.2 0-.3.3-.5.6-.7v-.7l-5.4.9v.7c.3.1.6.3.7.5l.2 1 1.3 26.8v1.2l-.7.7v.7l5.4-.9v-.7c-.3-.1-.6-.3-.7-.5l-.2-1-.5-8.6 2.4-4.3 5.6 10.6.7 1.6c0 .4-.2.8-.6 1v.8l6.7-1.2v-.7a1.7 1.7 0 0 1-1.1-.6l-1.5-2.4-7.3-13.6 5.4-9.6.9-1.7 1-1.7c0-.2.2-.3.4-.4.3 0 .6.2.8.5.4.4.8 1.1 1.3 2.2l6.6 13 .8 10.7-.1 1.1-.6.8v.7l5.4-1.3v-.8c-.4 0-.6-.2-.8-.4l-.2-1-.8-10.8 4.4-15.7c.4-1.4.7-2.3 1-2.8.2-.5.5-.8.9-1zm-155 1-.1.8c.3.2.5.4.6.7v1.1l-1.6 26.7-.2 1a1 1 0 0 1-.7.6v.7l5.3 1.1v-.7a1.6 1.6 0 0 1-.6-.7 3 3 0 0 1 0-1.2l.5-8.4 2.7-3.3 4.4 12.5a8 8 0 0 1 .5 1.8c0 .4-.3.7-.8.7v.8l6.6 1.4v-.7l-.9-1a27 27 0 0 1-1.1-3l-5.7-16 6.3-7.4 1-1.3 1.3-1.3.6-.2v-.8l-6.9-1.5v.8c.4.3.7.6.6 1 0 .4-.2.7-.5 1.1l-7.7 9.2.7-11.1.2-1c.2-.3.4-.4.7-.5v-.7zm19.8 4.1v.8c.3.2.5.4.6.7l.1 1-1.1 26.9c0 .5-.1.8-.3 1 0 .3-.3.5-.6.6v.7l15.5 2.3a.7.7 0 0 1 .5.4c.2.3.2.7.3 1.2l.4.1.4-8.2h-.4a3 3 0 0 1-.4 1 .6.6 0 0 1-.6.3l-11-1.6.4-8.7 7 1c.2 0 .4.2.5.5l.3 1.1.4.1.3-8h-.4c-.1.5-.2.8-.4 1a.6.6 0 0 1-.6.3l-6.9-1 .3-7.6 10.7 1.6a.7.7 0 0 1 .6.4l.2 1.2h.4l.4-8.1h-.4c-.1.5-.2.9-.4 1a.6.6 0 0 1-.6.3zm19 2.8v.8l.6.6.1 1.1-.7 26.9c0 .5 0 .8-.2 1-.1.3-.4.5-.7.6v.8l5 .4v-.7l-.5-.7c-.2-.2-.2-.6-.2-1.1l.5-19.3 9.1 19.2.6 1.7c0 .6-.2.9-.6 1v.7l5.4.5v-.7c-.3-.2-.5-.4-.6-.7l-.1-1.1.7-26.9c0-.4 0-.8.2-1 .1-.3.3-.5.6-.6v-.7l-5-.5v.8c.3.1.5.4.6.6l.2 1.1-.5 18.8-9-19-.3-1.3c0-.5.2-.9.6-1v-.8zm20.5.3-.1 8.2h.4c0-.5.2-.9.3-1a.6.6 0 0 1 .6-.4l5.3.2-.2 24c0 .6 0 1-.2 1.2l-.6.6v.7l5.3.2v-.8a.9.9 0 0 1-.6-.6l-.2-1 .2-18.7a5.3 5.3 0 0 1-.3-.3 3.3 3.3 0 0 1-.4-.6l-.2-.5-.3-.6-.3-.6a5.1 5.1 0 0 1-.3-.6 7.6 7.6 0 0 1-.2-.6 5.6 5.6 0 0 1-.2-.7l-.1-.7a5.1 5.1 0 0 0 0-.4.1.1 0 0 1-.1-.1v-.2a4 4 0 0 0-.4-.7c0-.3-.2-.6-.4-.8l-.4-.7-.3-.8-.4-1-.4-.8a.4.4 0 0 1 0-.2l-4.2-.1a.7.7 0 0 1-.6-.4 4 4 0 0 1-.3-1.2zm49 .1a9.6 9.6 0 0 0-.9 0c-3.7.4-6.4 2.8-8 7.2-1.2 3-1.7 6.4-1.6 10.2 0 2.9.4 5.4 1.2 7.7a15 15 0 0 0 2.5 4.9 7.6 7.6 0 0 0 10.2 1.8 18 18 0 0 0 3.6-3.4l1.2-1.3c.2 0 .4.2.6.6l.3-.4-2.5-6.5-.3.5v.6c0 .5 0 .9-.3 1.3-.2.4-.5 1-1 1.5-1.5 1.7-3 2.7-4.7 2.8a5 5 0 0 1-4.7-2.3c-1.5-2-2.2-4.7-2.3-8.1-.1-3.4.5-6.3 1.8-8.5 1.1-2 2.7-3 4.6-3.2 1.7-.1 3.2.5 4.8 2l1.1 1.2c.2.4.4.8.4 1.3v.6l.3.4 2.2-6.9-.3-.3c-.2.4-.4.6-.6.6a4 4 0 0 1-1.3-1 14.8 14.8 0 0 0-3.7-2.7c-.7-.4-1.6-.5-2.5-.6zm-32.1 1zm19.4.6-5 .2v.7c.3.1.5.3.6.6.2.2.2.6.2 1l.1 16-.1 4a7 7 0 0 1-.6 2.2c-.8 1.6-2.2 2.4-4.1 2.5-2 0-3.3-.7-4.1-2.3-.3-.6-.6-1.3-.7-2.2l-.2-4v-7.3a.2.2 0 0 1-.1 0l-1-.8a3.5 3.5 0 0 0-.8-.7l-.4.6-.1.8c-.1.5-.3 1-.6 1.4l-.4.8a1 1 0 0 1-.3.3v6.9c0 2.2.2 4.1.5 5.8a8 8 0 0 0 1.8 3.8c1.5 1.6 3.6 2.3 6.3 2.3 3.8-.1 6.2-1.7 7.4-4.7a21 21 0 0 0 1-7.6l-.1-17.8.1-1c.1-.3.4-.6.7-.7zm-25 .4zm11.7 0zm0 0c.1 0 0 0 0 0zm-7.7 0zm0 0zm-7 .6zm6.7.6zm-3 .2zm1.5 0zm-6.3.2zm0 0zm14.5.1v.2a.5.5 0 0 0 0-.2zm-.5 0zm0 0v.2-.1zm-6.9.1zm-1 .8zm-1 .4zm4.1.7v.1zm-2 .2zm-6.3.7zm6.3 0v.1zm.3.6zm1.7.2v.3-.1a1 1 0 0 0 0-.2zm0 .3v.2-.1zm0 .5zm0 .3zm5.6.8v.1zm-12.9.2v.1zm13.2 0v.1zm-1.3 0v.1zm-11 1.4zm0 0zm10.3.6z" font-size="30.1"/><g fill="#e9242b" stroke-width=".3" aria-label="BUCKETS" font-family="Copperplate Gothic Bold" font-size="44.1" style="-inkscape-font-specification:&quot;Copperplate Gothic Bold, &quot;"><path d="M71 303q3.5 4 1.3 8.5-1.9 3.6-5.5 4.3-1.8.4-3.8 0-1.9-.5-4.4-1.8l-18-9 .3-.7q.8.2 1.3 0 .4-.2.7-.7L54 281.4q.3-.6.2-1 0-.5-.7-1l.3-.7 17.8 9q2.6 1.3 4 2.5 1.3 1.2 2 2.7 1.4 3-.4 6.4-2 3.9-6.3 3.8zm-15.4-10.3 10 5q2.3 1.2 3.6 1 1.4-.2 2.2-1.8.9-1.7.2-2.9-.6-1.2-2.8-2.3l-10-5.1zm-5.8 11.5 9.7 4.9q2.7 1.4 4.3 1.2 1.8-.2 2.8-2.1 1-2 0-3.5-.7-1.4-3.5-2.8l-9.7-4.9zm59.4-1.1-4.8 15.8q-1.3 4.5-3.6 6.2-4.2 3.1-13.5.3-6.7-2-9.7-5.2-1.7-2-1.8-4.3-.2-2.4.7-5.4l4.8-15.8q.2-.6 0-1-.2-.5-1-.9l.3-.6 8.8 2.6-.2.7q-.8 0-1.2.2-.4.2-.6.9l-4.2 14q-.7 2.5-.8 3.7-.1 1.3.4 2.3 1.4 2.7 6.1 4.1 4.9 1.4 7.5 0 1-.6 1.5-1.7.7-1.1 1.4-3.5l4.2-14.1q.2-.6 0-1-.2-.5-.9-.9l.2-.7 8.3 2.5-.2.7q-.8 0-1.1.2-.4.3-.6.9zm27.7 20.9 3.3 6.6-.6.3q-.5-.7-1-.7-.3 0-2.2.8-4 1.6-6.6 2-2.5.5-6 0-7-.8-11-4.6-2.3-2.3-3.5-5.3-1.3-3.4-.8-7.3.6-5.3 4.2-8.8 5.4-5.4 14.9-4.2 3.4.4 5.8 1.5 2.4 1 5.9 3.6 1.6 1.2 2 1.3.4 0 1-.4l.6.4-4.9 5.6-.5-.5.1-.5q.1-.6-.4-1.2-.4-.7-1.7-1.6-3.5-2.6-7.8-3.1-5-.7-8.3 1.5-3.8 2.5-4.4 7.2-.6 4.7 2.5 8 2.7 3 7.7 3.6 4.3.5 8.3-1.2 1.5-.6 2-1 .7-.5.7-1.1v-.6z"/><path d="M155.4 320.2 151 324l.4 8q0 .6.3 1 .4.3 1.1.4v.7l-9.1.4v-.7q.7-.2 1-.6.3-.3.3-1l-1.1-24.9q0-.6-.4-1-.3-.3-1-.5l-.1-.7 9.2-.4v.7q-.8.2-1 .6-.3.4-.3 1l.4 10.3 11.7-10.4q.8-.7.8-1.1 0-.7-1.3-.8v-.7l12-.6v.7l-1 .4q-.4.2-1.8 1.6l-1.6 1.4-9.7 8.5 12 13.1 2.3 2.4q.7.5 1.8.6v.7l-11.4.5v-.7q1-.3 1-.9 0-.3-1-1.5z"/><path d="m184.2 318.2 1.6 8 18.6-3.8q.6-.2.9-.5.3-.4.3-1.2l.7-.1 1.5 7.4-.7.2q-.3-.8-.7-1-.4-.2-1 0l-26.2 5.2-.2-.6q.7-.4 1-.8.2-.4 0-1l-5-24.4q0-.7-.4-1-.4-.3-1.2-.3l-.1-.7 25.7-5.2q.6-.1.9-.5.3-.4.3-1.2l.7-.1 1.5 7.4-.7.2q-.3-.7-.7-1-.4-.2-1 0l-18.1 3.6 1.4 6.9 11.7-2.4q.6-.2.9-.5.3-.4.3-1.2l.7-.1 1.5 7.3-.7.1q-.3-.7-.7-1-.4-.2-1 0z"/><path d="m218.4 297 7.4 21q.2.6.6.8.4.3 1.2.2l.2.7-8.7 3-.2-.6q.7-.5.8-1 .2-.4 0-1l-7.4-21-8.6 3q-.6.2-.8.6-.3.4-.2 1.2l-.7.2-2.5-7.2.7-.2q.4.7.8.8.5.2 1 0l23.4-8.2q.6-.2.8-.6.3-.4.2-1.2l.6-.2 2.6 7.1-.7.3q-.4-.7-.9-.8-.4-.2-1 0zm34.4-18.3-.1 7.8h-.7l-.1-.4q-.4-.6-1.9-.8-4.6-.7-9.2 1.5-2 1-3.4 2.3-1 1-1.3 2.1-.3 1.1.2 2 .7 1.5 2.8 1.2 1-.2 4.2-1.4l3.2-1.2q2.9-1 4.8-1.4 2-.3 3.7 0 1.7.3 3.3 1.5 1.5 1.1 2.4 2.9 1.3 2.8.6 5.8-.7 2.8-3.6 5.4-2.2 2-5.1 3.4-5.3 2.6-11.6 2.6-1.3 0-1.6.2-.2 0-.5.8h-.7l-.4-8h.7l.1.3q.5.9 1.7 1.2 1.8.5 4.8 0t5.4-1.6q2.6-1.3 4-3 .7-1 1-2.1.1-1.1-.3-2-.6-1.3-2.3-1.2-1.2.1-4.4 1.3l-3.1 1.1q-3.1 1.2-4.5 1.5-1.4.4-3 .4-2.1 0-4-1.3-1.7-1.1-2.7-3.1-1.6-3.4-.4-6.7 1.6-4.4 7.6-7.3 2.6-1.3 5-1.8 2.4-.6 6.4-.9 1.3 0 1.6-.2.4-.2.7-1z"/></g><path fill="#fff" stroke="#000" stroke-width=".3" d="m168 75.5-8 10.3h-11.5l1.2-13.5-9.1-21-21.8-20.7-7.8-10 2.4-5 22.2 6 19.8 16 12.4 16z"/><path fill="#6e6e6e" d="M66 0a72.8 72.8 0 0 0-7.6.3 102.5 102.5 0 0 0-24.5 5l-3 1.2a51.9 51.9 0 0 0-16.5 11.2A30.7 30.7 0 0 0 8.7 26C8 27.7 7.6 29 5 38.7L4.2 41c.5.4.9 1 1.3 1.5a38.3 38.3 0 0 1 4 12.2l.5 3 .2.4a30.3 30.3 0 0 0 3.9 5.3l3.1 3.4a62 62 0 0 0 2.5 2.5 29.9 29.9 0 0 0 5.2 4.3 62.2 62.2 0 0 1 7.4 4.9L35 81a31 31 0 0 1 4 4.2l2.5 3a28 28 0 0 0 3.6 3c.6.5 1.2 1 1.8 1.3l2.3 1.2c1 .5 1.8 1 2.7 1.3l3.7.8 4.3 1L64 98a148.2 148.2 0 0 1 11.6 3.7c1.8.7 3.7 1.4 5.6 1.9l6.7 1.7c1.5.4 3 .4 4.6.5a151.7 151.7 0 0 0 9-.2l4.3-.6 3.4-.5c1.7-.2 3.5-.5 5.2-.5h5.2l4.3.5c1.7.1 3.3.2 5 .1a78.1 78.1 0 0 0 2.7 0l3-1a92 92 0 0 0 6.4-1.8l4.8-1.4 3.7-1 2-.4a44.3 44.3 0 0 0 2.4-1l.8-.5 1.9-2a18.8 18.8 0 0 1 3-2.4c.6-.5 1.2-.7 1.9-1 1-.5 2-1 3-1.3a18.3 18.3 0 0 0 1.4-.8c.3 0 .5-.2.7-.3.8-2.9 1.8-5.5 3.3-8l3.8-6.7.1-.3c.8-3.3 1-7.2.7-9.9l-.3-3a195.2 195.2 0 0 1-1.4-5.3A53.7 53.7 0 0 0 160 36.3a107.3 107.3 0 0 0-40-25.7c-1.5-.8-9-3.3-16.1-5.3A119.1 119.1 0 0 0 78 .5 63.3 63.3 0 0 0 66.7 0a9.8 9.8 0 0 0-.7 0zm48.7 19.5 3.9.5a35.3 35.3 0 0 1 15.3 5c1 .5 2.6 1.4 3.7 2.2a5639.9 5639.9 0 0 1 7 4.7c.3 0 1 .6 1.7 1l2.3 1.9c2.9 2.1 6.5 5.8 9.6 9.6l2.6 3a29 29 0 0 1 5.9 17.2c.1 3.9-.2 6-1.5 9.8-1.7 4.8-3.4 7.3-6 8.8-1.6 1-2 1-2.9.8-1.2-.3-1.5-1-.8-2.5 1.2-2.9.4-11-1.7-15.7l-.9-2.3a86 86 0 0 0-14.3-20.2 144.3 144.3 0 0 1-2-2 60.2 60.2 0 0 0-6.6-5.1 65.7 65.7 0 0 1-10.3-8 36.5 36.5 0 0 1-5.1-6c-.8-1.2-1-1.7-.8-2.1.1-.4.3-.6 1-.6zm50 71.7c-.3.1-.6.2-.6.4l.5-.4z"/><path fill="#3b3b3b" d="M26 18c-2.3-.2-6 3-7.6 6.1L17.2 27a32.8 32.8 0 0 0 6 34.7A63.7 63.7 0 0 0 41 78a85.2 85.2 0 0 0 16.4 9.7 30 30 0 0 0 8.9 2.6c.6 0 2.4.3 4 .7 2 .4 3.3.5 3.7.4 1-.3 1.2-1.3.5-2.1l-.8-1a46 46 0 0 0-4.6-5.4c-4-3.8-5.6-5-13.9-11-2.7-1.9-3.7-2.6-6.9-5.5a60 60 0 0 1-9-10c-2.5-3.2-4-5.4-5.4-7.8a278 278 0 0 0-2.5-4.1c-1-1.5-1.9-4-3.4-8.8-1.6-5-2-11-1-14.7.5-2 .3-2.8-.7-3a2 2 0 0 0-.4 0zM9.6 35.5zm0 0zm0 0a18 18 0 0 1-1.1 2.8l-1.3 2-2.2 3-1 1v1.3a22.7 22.7 0 0 1-1.6 7.8l-.2 1.7-.2 2-.2 2-.2 1.8a28.8 28.8 0 0 0 0 1.7l-.2 3v2.2c0 .4-.2 1.2 0 1.5 0-.5 0 0 0 0V69l.2.7a50.8 50.8 0 0 1 1.3 3.6l.1.2a20.7 20.7 0 0 1 .8 2.3A35.9 35.9 0 0 1 5 80.4l1.5 2.3 1 1.2c.6 1 1.2 1.7 1.9 2.6l1.9 3 1.6 2.8 1.2 2.1a37.5 37.5 0 0 0 4 4l.4.3a27.5 27.5 0 0 1 4 3.6l1.1.8.7.3c.2.1.2.1.1 0h-.1l2.5 1.2c1.2.6 2.2 1.5 3.3 2.2l2.1 1.4s-.1-.2 0-.1l1.7 1 2.2 1.4 6.7 3.2a69.2 69.2 0 0 0 10.8 4 30.7 30.7 0 0 1 5.8 2.6 111.2 111.2 0 0 1 6.2 1.7l4.5 1.5 2.5.9.7.1 2.2.7c1.3.4 2.6 1 4 1.7l.7.3.7.1c2.4.6 4.5 1.4 6.2 2.3a492.2 492.2 0 0 0 8.5 0 48 48 0 0 1 10.5 0l4.5.3 4.9.6 2.8.2h1l1.9-.6 1.2-.5c.3 0 .6-.2.8-.3h.2l-.3.1a52.5 52.5 0 0 1 3-1.1l3.3-1.3a30 30 0 0 1 5.8-1.8 84.7 84.7 0 0 1 5.4-1l1.7-.4.7-.3h.2l1.4-1.3a22 22 0 0 1 5.3-3.2l3.2-1.3 2.2-1c.6-.4.4-.4.2-.2a6.6 6.6 0 0 0-.3.4l.3-.4a36.9 36.9 0 0 1 1.7-1.8l2.4-2.7a32.8 32.8 0 0 1 5.4-4.6 17.7 17.7 0 0 0 1-3.5 301.4 301.4 0 0 1 .2-7c.2-1.7.5-3.4 1-5l1.2-4.2 1-3 1-2.9c.1.2 0 0 .1-.5l.5-2.6a82 82 0 0 0 .8-4.5l-1 1.3-1.3 1.8c-.5 1.5-1 2.7-1.4 3 0 .2-.5.8-1 1.5-.6 1.3-4 5.3-5.5 6.7a39.2 39.2 0 0 1-6.4 5c-1 .7-2.1 1.2-3.3 1.6l-2.4 1.2a54.1 54.1 0 0 1-10.6 3.7l-.7.3a25.1 25.1 0 0 1-9.7 1.7l-.9.1-.9.1a67.7 67.7 0 0 0-6.8.6l-3.3.2a146.9 146.9 0 0 0-8-.1l-2.9-.1a134.7 134.7 0 0 1-43.2-10A111.4 111.4 0 0 1 35 78a739.5 739.5 0 0 1-2.6-1.8A82 82 0 0 1 19.9 64a56.7 56.7 0 0 1-8-13 59 59 0 0 1-2.3-9.4 35 35 0 0 1 .1-6zm70.5 91.6h.1c.1 0 .3.1.2 0h-.2a4 4 0 0 1-.1 0zM3.6 44.9l-.1.1h.1zm-1.3 8.7v.3-.3zm168.3 22-.1.2v-.1zM4.8 80.2l.2.5v-.4l-.2-.2zm.2.4zm0 .2.1.2a.9.9 0 0 0 0-.1v-.2z"/><path fill="#010101" d="M167 100.2c-.5 1.2-1 3.4-1.4 4.7-.5 2.5-.6 2.7-2.3 5.1a28.9 28.9 0 0 1-6.9 7.5l-1 .9-3.4 2.2a59.8 59.8 0 0 1-22.3 8.7 78.6 78.6 0 0 1-18.3 2c-.3.1-1.9.2-3.5.1a345.8 345.8 0 0 0-4.5 0 63.3 63.3 0 0 1-8.2-.6 59.8 59.8 0 0 1-4.3-.5 375.9 375.9 0 0 0-5.8-.8c-6.2-1-21.5-5-28.3-7.7a944.3 944.3 0 0 0-3.6-1.4 68.4 68.4 0 0 1-3.3-1.5 478.4 478.4 0 0 0-3.7-1.6l-2.9-1.5a230.8 230.8 0 0 0-4-2.2 91.7 91.7 0 0 1-9.8-6c-1.1-.7-9.6-7.5-10.8-8.7a119 119 0 0 0-2.4-2.3L13.8 94l-1.6-1.8a51 51 0 0 1-10.1-17C1.6 74 .9 71 .2 67c-.3-1.8-.3-6 0-6.4a184.4 184.4 0 0 1 9-35.6A35 35 0 0 1 20 13a69 69 0 0 1 10-6 33 33 0 0 0 4-1.5 52.4 52.4 0 0 1 10.7-3.1A117 117 0 0 1 82.9 1a83.4 83.4 0 0 1 12 2A110.3 110.3 0 0 1 115 8.7c1.7.6 4 1.4 4.9 1.9a41 41 0 0 0 3.7 1.5l3.3 1.4 6.8 3.5a91.8 91.8 0 0 1 14.7 9.3 94.2 94.2 0 0 1 16.8 16.3l3.4 5.4c4.3 7.2 6.3 14 6 21 0 2.2-.3 3.5-2 10.5L169 92.7c-.7 2.9-1.7 6.2-2.1 7.5zm.6-11.9v-1l-1 1.2a77.2 77.2 0 0 0-3 3c-.4 0-1 .6-1.3 1-.5.5-1 1-1.4 1a65.6 65.6 0 0 1-25.7 10.9 102.7 102.7 0 0 1-18.1 2c-3.5.3-14.1-.3-19.9-1l-5.2-.8a138.8 138.8 0 0 1-55.6-21.5 35 35 0 0 1-3.5-2.4 122.4 122.4 0 0 1-13.5-12l-1.1-1.5A59.5 59.5 0 0 1 8.2 50.6a34 34 0 0 1-1.8-7 32 32 0 0 0-1.6 6.7c0 1-.5 3.7-.9 6a21.3 21.3 0 0 0-.3 7.5c-.1 1.4.1 4 .4 5.2.4 2.1 1.8 6.5 2.3 7.8a74.2 74.2 0 0 0 8.8 13.5 90.2 90.2 0 0 0 23.3 18.9 214.2 214.2 0 0 0 10.4 5.5 159 159 0 0 0 47.8 12.8 92.8 92.8 0 0 0 14.1.5 87.5 87.5 0 0 0 17-1.8 69 69 0 0 0 12-3.3 54 54 0 0 0 15.8-9.3 43.6 43.6 0 0 0 5.2-5.8c2.1-3.4 2.2-3.6 4.3-10.5l1.7-5.5c.2-.1.8-2.3.9-3.5zm3.7-19.6a43.6 43.6 0 0 0-9.5-25 100.2 100.2 0 0 0-10.2-10.4 55.6 55.6 0 0 0-4.9-4A139.4 139.4 0 0 0 118 13.4a193.5 193.5 0 0 0-27.7-7.8l-6.9-1.2a41 41 0 0 0-3.8-.5A81 81 0 0 1 77 4l-2.9-.2a179.7 179.7 0 0 0-10.4-.2c-1.2 0-3.2 0-4.4.2a75.4 75.4 0 0 0-21.3 4l-2.6.7c-.5.1-1.9.7-3 1.3a92.3 92.3 0 0 1-3.5 1.6 49.8 49.8 0 0 0-10 6.6c-2 1.8-4.5 5-6.3 8-1 1.6-1.3 2.5-2.1 5.7a25 25 0 0 0 .2 16c1 3.4 1.6 5 4 8.9A48 48 0 0 0 23 67.7c1.5 1.6 1.4 1.5 4.9 4.7a47 47 0 0 0 7.5 6A75.1 75.1 0 0 0 47 85.8a79.7 79.7 0 0 0 6.5 3.4c1.3.7 4.5 2 8.6 3.8a190 190 0 0 0 31.1 8.6c1.3.3 3.2.5 4.2.6a127 127 0 0 1 8.2.8h2.7c1.4.2 3.4.2 4.6.2h4l3-.2 2-.2c2 0 4.8-.3 9.9-1.2a65.6 65.6 0 0 0 28-11.3 48 48 0 0 0 8.5-10c.2-.3.6-1.1.8-1.9l.7-1.8c.5-.9 1.5-6.2 1.5-7.8z"/></svg>