<svg xmlns="http://www.w3.org/2000/svg" id="Layer_1" width="337.721" height="435.24" data-name="Layer 1"><defs id="defs4"><style id="style2">.cls-1,.cls-28{fill:#3a3a3a}.cls-28{stroke:#3a3a3a}.cls-16,.cls-17,.cls-27,.cls-28{stroke-miterlimit:10}.cls-3{fill:#bee6f6}.cls-4{fill:#ffe67b}.cls-5{fill:#ed8222}.cls-27{fill:#f6cf32}.cls-15,.cls-16,.cls-17,.cls-9{fill:none}.cls-27,.cls-9{stroke:#f6cf32}.cls-15,.cls-9{stroke-linecap:round;stroke-linejoin:round}.cls-9{stroke-width:7.64px}.cls-10{fill:#fff}.cls-12{fill:#e1bb78}.cls-15{stroke:#752f16;stroke-width:4.75px}.cls-16,.cls-17{stroke:#40a448;stroke-width:6.33px}.cls-17{stroke:#e12e26}.cls-27,.cls-28{stroke-width:3px}</style></defs><path id="path154" d="M72.04 26.91s34.7-2.46 48.45 7.46h6.87l-29.78 13" class="cls-5" style="fill:#ed8222"/><path id="path156" d="M261.84 26.91s-34.7-2.46-48.45 7.46h-6.87l29.78 13" class="cls-5" style="fill:#ed8222"/><path id="path158" d="M230.47 354.47c-39.09 46.17-54.93 76.95-54.93 76.95h-13.83s-15.89-30.92-55.11-77.16" class="cls-9" style="fill:none;stroke:#f6cf32;stroke-width:7.63999987px;stroke-linecap:round;stroke-linejoin:round"/><path id="path160" d="m56.5 214.79-20.06-84.16-5.4-24.63-20.58-24.26C47.54 56.36 140.57 41.62 167.79 3.82h1.63c27.22 37.8 120.25 52.54 157.33 77.92l-21 23-5 25.89-19 79.75" class="cls-9" style="fill:none;stroke:#f6cf32;stroke-width:7.63999987px;stroke-linecap:round;stroke-linejoin:round"/><path id="polygon162" d="M252.14 651.88V318.81l22.91-13.76 21.38 13.76v333.07l-21.13 27.51z" class="cls-3" style="fill:#bee6f6" transform="translate(-105.96 -273.74)"/><path id="path164" d="M229.48 54.05v156h36.65l7.64-26V69.5c-14.56-4.83-32.89-11.35-44.29-15.45" class="cls-3" style="fill:#bee6f6"/><path id="path166" d="M108.69 54.05v156H72.04l-7.65-25.21V69.5c14.58-4.83 32.91-11.35 44.3-15.45" class="cls-3" style="fill:#bee6f6"/><path id="path168" d="M63.96 208.69s108.82-56.34 214.48 0l-51.77 112.67-12.63 30.18s-49.66 4-85.58 0-64.5-142.85-64.5-142.85" class="cls-10" style="fill:#fff"/><ellipse id="ellipse170" cx="169.23" cy="329.72" rx="136.26" ry="13.75" style="fill:#dbdbda"/><path id="path172" d="M236.55 330.73c12.38-1.86 24.87-5.55 34.58-13.46a47.57 47.57 0 0 0 17.17-38.83c-21-6.41-43.39-6.34-65.36-6.21L85.43 273c-8.27 0-16.7.12-24.54 2.76-5.77 1.94-11.52 5.86-12.89 11.79-1.63 7 3.37 13.77 8.41 18.93 8.75 8.95 19 17 31 20.34 7.22 2 14.8 2.3 22.29 2.57l75.06 2.67c17.28.62 34.69 1.2 51.79-1.33" class="cls-12" style="fill:#e1bb78"/><path id="path174" d="M214.85 309.52c-.33-1.25-.65-2.5-1-3.75a14.9 14.9 0 0 0-12.59 2.14 17.5 17.5 0 0 0-16.73-3.42l-.81-3.49-5.77 2.12a7.58 7.58 0 0 1 2.25 5.58c-2.58-.76-5.31.4-8 .54s-6-1.78-5.37-4.39l-20.6-1.48a7 7 0 0 1-3.27-.78 14.2 14.2 0 0 1-2.43-2.59c-3.27-3.45-10.13-1.81-11.48 2.75a4.46 4.46 0 0 1 .8 8.72c-1.82.54-3.78-.12-5.67.06s-3.92 2.1-3 3.75c-2 1.34-4.81-.61-5.69-2.89s-.74-4.87-1.69-7.12a8.08 8.08 0 0 0-9.39-4.44 26.3 26.3 0 0 0-2.15 8.16l-6.89-6.73a14.9 14.9 0 0 1-3.22-3.92l-5.81-.08c.71.85.11 2.24-.87 2.75a6 6 0 0 1-3.25.32 65.2 65.2 0 0 0-19.74 1.38c-1.76.4-4 2.07-2.84 3.48-9 2-19-5.22-19.88-14.44a3.5 3.5 0 0 1 .21-1.88c.56-1.16 2-1.46 3.32-1.61 48-5.88 96.39-6.36 144.7-6.83l87.4-.86c6.11-.06 12.41-.08 18 2.26 4.28 1.77 8.4 6.15 6.89 10.52-.9 2.59-3.63 4.64-3.33 7.36-3.93 2.5-8.43-6.51-12.28-3.92.19 1.37-1.29 2.48-2.67 2.52a10.3 10.3 0 0 1-3.95-1.15c-7.08-2.8-15.05-.79-22.67-1.08-5-.19-9.91-1.38-14.88-1.11s-10.29 2.47-12.36 7a10.91 10.91 0 0 1-12.34 14.6 30.4 30.4 0 0 1 1.94-8.09z" class="cls-4" style="fill:#ffe67b"/><path id="path176" d="M184.93 260.82c36.25 0 72.56-.1 108.64 3.32 3.08.29 6.25.63 9 2.1 5.77 3.12 7.82 11.55 4.14 17-2.63 3.86-7.37 5.84-12 6.38s-9.33-.12-14-.44c-12.53-.85-25.06.82-37.57 2-60.61 5.44-121.71-2.08-182.49 1.12a1 1 0 1 0-1 .09c.22-2-2.9-2.32-4.9-1.81-5.45 1.39-11.26 2.15-16.65.54s-10.22-6.06-10.86-11.65c-.71-6.25 4-12.11 9.67-14.8s12.2-2.88 18.49-3c31.19-.64 62.4-.69 93.6-.73z" style="fill:#a84f25"/><path id="path178" d="M205.63 273.83c-5.51.45-9.37 6.71-14.89 6.68-4 0-7.12-3.37-10.59-5.39-3.94-2.28-8.59-2.92-13.1-3.52-7.93-1-17.4-1.5-22.37 4.76a7.4 7.4 0 0 1-1.65 1.79c-1.83 1.18-4.19 0-6.16-1-6-2.86-12.9-2.9-19.55-2.87l-23.28.08-18 .06a82.5 82.5 0 0 1-15.79-1 13.4 13.4 0 0 1-4.47-1.51c-1.33-.8-2.4-2-3.75-2.71-1.88-1-4.31-1.28-5.58-3-1.86-2.54.15-6 2.18-8.44 2.48-3 5.19-5.93 8.77-7.37 3-1.21 6.27-1.24 9.47-1.26 61.74-.32 123.52.16 185.14-3.56 10.68-.65 21.87-1.33 31.6 3.1 2.18 1 4.52 2.71 4.42 5.09-.07 1.48-1.1 2.85-.88 4.31s1.65 2.44 2.36 3.75a4.22 4.22 0 0 1-6.59 5.09 15.39 15.39 0 0 1-12.95 7c-4.57-.06-9-2.19-13.56-1.74-4.14.41-7.85 2.93-12 3.3-8.74.79-17.4-8-25.36-4.28-1.91.89-3.52 2.43-5.56 2.92-2.56.68-5.23-.49-7.86-.28" class="cls-5" style="fill:#ed8222"/><path id="path180" d="M44.84 262.94s1.7 10.11 49.21 11.42 53.63.8 61.77-1.75 31.71 4.34 31.71 4.34 16.53-.83 26-2.78 30.92 1.36 30.92 1.36c9.14.65 38.76-5.25 43.95-8.32" style="fill:none;stroke:#3a3a3a;stroke-width:3.31999993px;stroke-miterlimit:10"/><path id="path182" d="M183.04 265.62c-4.62.4-6-6.93-10.35-8.47-1.86-.66-3.92-.12-5.89-.29-5.41-.47-9.49-6.21-14.91-6-6.46.3-10.7 9-17.11 8.1 1.52 2.84-.69 6.52-3.67 7.74s-6.36.68-9.53.12c-.41-3.4-2.31-7-5.61-7.88s-7.35 2.5-6 5.65a26.54 26.54 0 0 0-16.78-3.7c-3.62.42-7.41 1.57-10.79.22a33 33 0 0 0-3.7-1.7 10.8 10.8 0 0 0-3.64-.14l-16.11 1.25c-5.51.42-12.69-.24-14.15-5.57-.79-2.86.69-6 2.95-7.88s5.2-2.83 8.08-3.54c10.43-2.56 21.27-2.86 32-3 58.09-.56 116.34 4.18 174.18-1.21 6.42-.6 13-1.3 19.22.48s12 6.75 12.57 13.17c-1.71 1.69-3.73 3.51-6.14 3.37-3-.18-5-3.28-7.9-4-3.82-1-7.23 2.32-10.64 4.29-9.64 5.59-21.63.82-32.69-.54a102.7 102.7 0 0 0-17.71-.12l-19.06 1c-3.53.18-7.35.47-10 2.83-2.18 2.05-3.62 5.56-6.62 5.82" class="cls-4" style="fill:#ffe67b"/><path id="path184" d="M69.41 218.57c29.93-19.42 66.82-21.5 102-22.84a211 211 0 0 1 23.48 0c17.66 1.29 34.74 6.95 51.62 12.57 9.3 3.09 18.74 6.26 26.8 12s14.69 14.63 15.65 24.84a2.54 2.54 0 0 1-.17 1.5 2.45 2.45 0 0 1-2.14.9q-110.43 6-221.08 4.64c-6.36-.08-13.44-.48-17.86-5.29 2.79-6.56 5.65-13.24 10.19-18.62a51.6 51.6 0 0 1 11.51-9.7" style="fill:#d18529"/><path id="path186" d="M46.57 282.35s12.26-4.75 21-.39 13.45 2.77 16.61 1.58" class="cls-15" style="fill:none;stroke:#752f16;stroke-width:4.75px;stroke-linecap:round;stroke-linejoin:round"/><path id="path188" d="M129.64 284.73s2.77-2.38 7.13.79 13.05.79 14.24-2.77" class="cls-15" style="fill:none;stroke:#752f16;stroke-width:4.75px;stroke-linecap:round;stroke-linejoin:round"/><path id="path190" d="M225.38 281.56a14.1 14.1 0 0 0 14.24 3.17c8.7-2.77 15.82-3.57 19-2.38" class="cls-15" style="fill:none;stroke:#752f16;stroke-width:4.75px;stroke-linecap:round;stroke-linejoin:round"/><path id="polyline192" d="M194.75 490 236 506.64l-31.75-24.14" class="cls-12" style="fill:#e1bb78" transform="translate(-105.96 -273.74)"/><path id="polyline194" d="m253.5 476.75 56.87 25.94-40.62-27.94" class="cls-12" style="fill:#e1bb78" transform="translate(-105.96 -273.74)"/><path id="polyline196" d="m319.87 474.2 38.76 32.44-21.36-30.06" class="cls-12" style="fill:#e1bb78" transform="translate(-105.96 -273.74)"/><path id="path198" d="M59.93 260.48a29.17 29.17 0 0 0 17.72 9.42c11.49 1.6 28.22 7.66 28.22 7.66" class="cls-16" style="fill:none;stroke:#40a448;stroke-width:6.32999992px;stroke-miterlimit:10"/><path id="path200" d="M236.35 258.93a29.2 29.2 0 0 0 17 10.61c11.36 2.39 27.63 9.58 27.63 9.58" class="cls-17" style="fill:none;stroke:#e12e26;stroke-width:6.32999992px;stroke-miterlimit:10"/><path id="path202" d="M113.53 264s14.43 5.48 20.26 7.4 18.74 7.39 18.74 7.39" class="cls-17" style="fill:none;stroke:#e12e26;stroke-width:6.32999992px;stroke-miterlimit:10"/><path id="path204" d="M168.04 266.4a19.75 19.75 0 0 0 19.51 10.55c14.24-1.06 25.85 7.91 25.85 7.91" class="cls-16" style="fill:none;stroke:#40a448;stroke-width:6.32999992px;stroke-miterlimit:10"/><path id="path206" d="M169.38 98.54a232 232 0 0 1-44.16-4.28c-39.75-7.73-65.58-23-66.66-23.66l8.63-14.42-4.31 7.21 4.3-7.21c.25.14 24.84 14.61 61.87 21.71 49.23 9.43 96 2.09 139.11-21.84l8.16 14.68a218.1 218.1 0 0 1-106.94 27.81" class="cls-10" style="fill:#fff"/><path id="path208" d="M282.41 56.74c-74.62 45.73-156 45.73-230.67 0l20.3-29.83c62.4 37.28 127.68 37.31 190.12 0z" class="cls-4" style="fill:#ffe67b"/><path id="path210" d="M84.78 56.88c-.27 1-.41 1.45-.67 2.41h.09l1.27-2.2c2.26-2.44 3.38-3.67 5.57-6.15.76.31 1.15.46 1.91.75-.1 3.32-.14 5-.16 8.31l-.55 2.45h.09c.48-.9.72-1.35 1.21-2.24 1.83-2.65 2.73-4 4.51-6.65 1.19.43 1.79.64 3 1-3.49 4.78-5.28 7.14-9 11.8l-2.1-.77v-8.35c.16-.86.24-1.28.41-2.14h-.11l-1.21 1.93c-2.23 2.46-3.36 3.68-5.66 6.09l-2.19-.91c.47-5.93.76-8.89 1.46-14.76 1.25.56 1.88.84 3.14 1.37-.41 3.22-.62 4.83-1.01 8.06" class="cls-1" style="fill:#3a3a3a"/><path id="path212" d="M101.23 62.13a7.73 7.73 0 0 1 3.37-4.59 6.7 6.7 0 0 1 5.35-.34 8 8 0 0 1 2.71 1.32 5.7 5.7 0 0 1 1.66 2 6.3 6.3 0 0 1 .63 2.55 10 10 0 0 1-.34 3 7.27 7.27 0 0 1-3.15 4.75 6.92 6.92 0 0 1-5.61.4 8.6 8.6 0 0 1-2.91-1.42 5.64 5.64 0 0 1-1.69-2.08 6.2 6.2 0 0 1-.54-2.59 9.9 9.9 0 0 1 .52-3m3.23 1a8.3 8.3 0 0 0-.38 1.92 4.4 4.4 0 0 0 .18 1.66 3.2 3.2 0 0 0 .79 1.29 3.56 3.56 0 0 0 1.49.81 3.28 3.28 0 0 0 2.91-.35 5.7 5.7 0 0 0 1.9-3.32 8.7 8.7 0 0 0 .31-1.88 5.1 5.1 0 0 0-.17-1.65 3 3 0 0 0-.77-1.29 3.3 3.3 0 0 0-1.46-.81 3.17 3.17 0 0 0-2.83.38 6 6 0 0 0-1.97 3.27z" class="cls-1" style="fill:#3a3a3a"/><path id="path214" d="M120.68 60.47c.35 0 .73.06 1.13.11s.8.1 1.19.16l1.15.19 1 .2a14 14 0 0 1 2.1.62 6.8 6.8 0 0 1 1.77 1 3.65 3.65 0 0 1 1.11 1.45 3.44 3.44 0 0 1 .15 2 4.17 4.17 0 0 1-1.42 2.59 4.8 4.8 0 0 1-2.74 1l1 .84c1.06 2.38 1.62 3.57 2.76 5.95-1.5-.27-2.25-.41-3.74-.7-1.08-2.45-1.61-3.67-2.61-6.13l-1.6-.61c-.5 2.24-.75 3.36-1.24 5.61-1.29-.29-1.93-.43-3.22-.74zm4.21 3.1-.94-.18a3.7 3.7 0 0 0-.72-.08l-.87 4 1.32.29a3.75 3.75 0 0 0 2.18-.08 1.91 1.91 0 0 0 1.11-1.53 1.71 1.71 0 0 0-.35-1.51 3 3 0 0 0-1.73-.91" class="cls-1" style="fill:#3a3a3a"/><path id="path216" d="M144.64 78.65c-4.23-.47-6.34-.75-10.55-1.41.87-5.54 1.31-8.31 2.18-13.85 1.23.2 1.84.29 3.06.46-.66 4.59-1 6.88-1.64 11.46 2.88.41 4.32.59 7.21.91z" class="cls-1" style="fill:#3a3a3a"/><path id="path218" d="M150.04 65.11h2.3l1.23.07 1.06.07a11.5 11.5 0 0 1 3.54.73 6.44 6.44 0 0 1 2.35 1.58 5.8 5.8 0 0 1 1.28 2.29 9.4 9.4 0 0 1-.17 5.6 5.9 5.9 0 0 1-1.51 2.29 7.1 7.1 0 0 1-2.71 1.52 11 11 0 0 1-4.1.36c-.25 0-.59-.05-1-.09l-1.31-.15-1.3-.18a8 8 0 0 1-.93-.15c.46-5.56.72-8.35 1.27-13.94m4.67 2.62-1-.05h-.76c-.29 3.75-.44 5.62-.73 9.36l.32.06.49.05.49.06h.36a5.3 5.3 0 0 0 2.31-.26 3.7 3.7 0 0 0 1.5-1 3.9 3.9 0 0 0 .82-1.53 8 8 0 0 0 .3-1.82 7.2 7.2 0 0 0-.11-1.66 3.7 3.7 0 0 0-.6-1.52 3.64 3.64 0 0 0-1.27-1.15 4.8 4.8 0 0 0-2.16-.54z" class="cls-1" style="fill:#3a3a3a"/><path id="path220" d="M165.36 67.07a1.17 1.17 0 0 1 .46-.93 2 2 0 0 1 2.4.15 1.74 1.74 0 0 1 .47 1.26 3 3 0 0 1-.29 1.36 3.3 3.3 0 0 1-.69.93 3.6 3.6 0 0 1-.86.57 6 6 0 0 1-.75.3l-.74-1.11a2.9 2.9 0 0 0 .82-.47 1.1 1.1 0 0 0 .41-.76 1.17 1.17 0 0 1-.84-.32 1.22 1.22 0 0 1-.39-.98" class="cls-1" style="fill:#3a3a3a"/><path id="path222" d="M180.45 75.96a1.22 1.22 0 0 0-.6-1 7 7 0 0 0-1.42-.67c-.56-.2-1.17-.4-1.82-.61a10.4 10.4 0 0 1-1.82-.81 4.6 4.6 0 0 1-1.39-1.24 3.33 3.33 0 0 1-.58-1.94 3.8 3.8 0 0 1 .36-1.77 3.6 3.6 0 0 1 1.07-1.28 5.2 5.2 0 0 1 1.66-.78 9.2 9.2 0 0 1 2.15-.32 15.7 15.7 0 0 1 2.59.09 7.4 7.4 0 0 1 2 .49c-.33.94-.5 1.41-.84 2.36a6 6 0 0 0-1.53-.43 10 10 0 0 0-2.16-.13 3.16 3.16 0 0 0-1.66.44 1.19 1.19 0 0 0 0 2 5.8 5.8 0 0 0 1.39.69q.83.31 1.8.63a10.7 10.7 0 0 1 1.83.78 4.9 4.9 0 0 1 1.45 1.17 3.17 3.17 0 0 1 .67 1.84 4.05 4.05 0 0 1-.32 1.95 3.75 3.75 0 0 1-1.15 1.42 5.5 5.5 0 0 1-1.9.91 11 11 0 0 1-2.49.37 15 15 0 0 1-3.18-.19 10 10 0 0 1-2-.52c.41-.94.61-1.42 1-2.36a6 6 0 0 0 .68.25 12 12 0 0 0 2.05.4 8 8 0 0 0 1.2 0 4.6 4.6 0 0 0 2.2-.5 1.34 1.34 0 0 0 .76-1.24" class="cls-1" style="fill:#3a3a3a"/><path id="path224" d="M214.22 64.51a4 4 0 0 1 .07 1.05 2.8 2.8 0 0 1-.29 1 3.4 3.4 0 0 1-.73.93 4 4 0 0 1-1.23.77v.12a7 7 0 0 1 1.37.07 3.6 3.6 0 0 1 1.21.42 3.3 3.3 0 0 1 .94.85 3.7 3.7 0 0 1 .56 1.33 3.2 3.2 0 0 1-.14 1.95 4.1 4.1 0 0 1-1.18 1.56 7.2 7.2 0 0 1-1.91 1.14 11.6 11.6 0 0 1-2.35.7l-1 .19-1.36.21c-.48.06-1 .12-1.48.16a14 14 0 0 1-1.4.05l-2.2-13.64.95-.28c.36-.1.74-.2 1.15-.29s.83-.2 1.27-.29l1.29-.25a16 16 0 0 1 2.15-.26 7.5 7.5 0 0 1 1.94.15 3.5 3.5 0 0 1 1.52.77 2.9 2.9 0 0 1 .85 1.59m-6.18 3.89.73-.15c.28-.07.51-.13.69-.19a4.2 4.2 0 0 0 1.36-1 1.48 1.48 0 0 0 .38-1.34 1.5 1.5 0 0 0-.39-.79 1.7 1.7 0 0 0-.7-.41 2.8 2.8 0 0 0-.89-.11 6 6 0 0 0-1 .1l-1.07.22c-.33.07-.58.14-.75.19.25 1.46.38 2.19.64 3.65zm2.12 5.74a5.2 5.2 0 0 0 1.12-.33 3.3 3.3 0 0 0 .9-.55 2 2 0 0 0 .55-.74 1.53 1.53 0 0 0 .09-.93 1.6 1.6 0 0 0-.51-.95 1.94 1.94 0 0 0-.89-.42 4.2 4.2 0 0 0-1.14-.06c-.4 0-.81.1-1.21.17l-1.68.3c.27 1.51.4 2.26.66 3.77a1.8 1.8 0 0 0 .39 0l.56-.07.61-.09z" class="cls-1" style="fill:#3a3a3a"/><path id="path226" d="M218.39 60.26c3.66-.88 5.48-1.35 9.1-2.39l.67 2.35c-2.45.7-3.69 1-6.16 1.66.33 1.27.49 1.9.81 3.17 2.28-.58 3.42-.89 5.69-1.53.26.94.4 1.41.66 2.35-2.29.65-3.44 1-5.75 1.54.33 1.33.5 2 .84 3.32 2.62-.66 3.93-1 6.54-1.76l.67 2.34c-3.91 1.12-5.88 1.64-9.82 2.58z" class="cls-1" style="fill:#3a3a3a"/><path id="path228" d="M241.88 64.04a1.23 1.23 0 0 0-.87-.8 6.7 6.7 0 0 0-1.56-.24l-1.94-.07a10 10 0 0 1-2-.26 4.8 4.8 0 0 1-1.7-.8 3.28 3.28 0 0 1-1.1-1.7 3.8 3.8 0 0 1-.14-1.81 3.4 3.4 0 0 1 .68-1.52 5.2 5.2 0 0 1 1.39-1.22 9.5 9.5 0 0 1 2-.92 18 18 0 0 1 2.55-.65 7.5 7.5 0 0 1 2.12-.1c-.06 1-.09 1.5-.16 2.5a6.2 6.2 0 0 0-1.61 0 10.6 10.6 0 0 0-2.14.49 3.27 3.27 0 0 0-1.49.89 1.19 1.19 0 0 0 .59 1.94 6.4 6.4 0 0 0 1.54.27c.59 0 1.23.07 1.93.09a10.7 10.7 0 0 1 2 .23 4.8 4.8 0 0 1 1.74.72 3.13 3.13 0 0 1 1.16 1.57 4.1 4.1 0 0 1 .24 2 3.85 3.85 0 0 1-.73 1.69 5.8 5.8 0 0 1-1.59 1.41 11.7 11.7 0 0 1-2.33 1.06 15.4 15.4 0 0 1-3.13.72 11 11 0 0 1-2.11.07c.13-1 .2-1.54.32-2.56a6 6 0 0 0 .73.05 9 9 0 0 0 1 0c.36 0 .73-.08 1.12-.15a8.5 8.5 0 0 0 1.18-.3 4.8 4.8 0 0 0 2-1.11 1.31 1.31 0 0 0 .31-1.49" class="cls-1" style="fill:#3a3a3a"/><path id="path230" d="M257.04 49.62c-1.73.78-2.6 1.16-4.34 1.9l4.5 10.66c-1.23.52-1.85.77-3.09 1.28l-4.35-10.73c-1.76.72-2.64 1.06-4.42 1.74-.34-.92-.52-1.37-.86-2.29 4.66-1.77 7-2.73 11.56-4.79z" class="cls-1" style="fill:#3a3a3a"/><path id="polygon232" d="m263.61 648.76 5.97-5.82-1.41-8.22 7.38 3.88 7.39-3.88-1.41 8.22 5.97 5.82-8.25 1.2-3.7 7.49-3.69-7.49z" style="fill:#676767" transform="translate(-105.96 -273.74)"/><path id="path376" d="M150.04 142.26a23.2 23.2 0 0 1-1.63 8.85 20.3 20.3 0 0 1-4.6 6.85 23.7 23.7 0 0 1-7.1 4.69 31.4 31.4 0 0 1-9.1 2.35 1.38 1.38 0 0 1-1-.26 1.27 1.27 0 0 1-.44-1.1 1.77 1.77 0 0 1 .38-1.1 1.37 1.37 0 0 1 1-.55 30.6 30.6 0 0 0 8.11-2 20.2 20.2 0 0 0 6.29-4 17.3 17.3 0 0 0 4.06-5.88 19.5 19.5 0 0 0 1.45-7.7 16.6 16.6 0 0 0-1.68-7.66 14.55 14.55 0 0 0-4.74-5.49 18.6 18.6 0 0 0-7.2-2.93 29.4 29.4 0 0 0-9.19-.21 43.3 43.3 0 0 0-9.13 2.12 45.4 45.4 0 0 0-8.26 3.82 42.7 42.7 0 0 0-7 5.15 36.6 36.6 0 0 0-5.41 6.05 28.7 28.7 0 0 0-3.51 6.54 19.2 19.2 0 0 0-1.25 6.69 12.3 12.3 0 0 0 .87 4.91 8.1 8.1 0 0 0 2.32 3.16 7.16 7.16 0 0 0 3.33 1.52 10.5 10.5 0 0 0 3.94 0 17 17 0 0 0 4.36-1.4 23.5 23.5 0 0 0 3.22-1.89 15.4 15.4 0 0 0 2-1.69l.77-.83a1.4 1.4 0 0 1 .91-.59 1 1 0 0 1 .93.32 1.34 1.34 0 0 1 .4 1 1.66 1.66 0 0 1-.42 1.15c0 .06-.34.39-.89 1a18 18 0 0 1-2.39 2.07 26 26 0 0 1-3.8 2.28 19.3 19.3 0 0 1-5.11 1.66 12.4 12.4 0 0 1-5 0 9.5 9.5 0 0 1-4.18-2.05 10.9 10.9 0 0 1-2.85-4 15 15 0 0 1-1.06-5.93 22.5 22.5 0 0 1 1.34-7.57 32.2 32.2 0 0 1 3.75-7.37 41 41 0 0 1 5.81-6.77 45.6 45.6 0 0 1 7.52-5.72 49 49 0 0 1 8.87-4.23 46 46 0 0 1 9.85-2.33 31 31 0 0 1 10.3.35 20.5 20.5 0 0 1 8.07 3.54 17.2 17.2 0 0 1 5.25 6.35 20 20 0 0 1 1.84 8.83zm-21-8a1.16 1.16 0 0 1 .94.33 1.4 1.4 0 0 1 .4 1.07 1.5 1.5 0 0 1-.19.75 3.6 3.6 0 0 1-.48.65 18.2 18.2 0 0 0-3.15 4.2 20.2 20.2 0 0 0-1.8 4.65 29.7 29.7 0 0 0-.81 5.13c-.13 1.8-.19 3.67-.19 5.61v5.1a57.7 57.7 0 0 1-.78 9.63 28.5 28.5 0 0 1-2.62 8.25 18.1 18.1 0 0 1-4.94 6.09 16.6 16.6 0 0 1-7.75 3.23 14.7 14.7 0 0 1-4.12.14 13 13 0 0 1-3.79-1 12.2 12.2 0 0 1-3.28-2.08 13.1 13.1 0 0 1-2.58-3.12 1.7 1.7 0 0 1-.14-.35 1.2 1.2 0 0 1-.07-.41 2 2 0 0 1 .36-1.11 1.52 1.52 0 0 1 1-.66.9.9 0 0 1 .65.09 1.5 1.5 0 0 1 .5.44 12.7 12.7 0 0 0 5.07 4.42 11 11 0 0 0 6.44.65 14.1 14.1 0 0 0 6.75-2.84 14.8 14.8 0 0 0 4.11-5.41 25.5 25.5 0 0 0 2-7.42 66 66 0 0 0 .55-8.77v-5.14c0-1.8.07-3.68.21-5.63a31 31 0 0 1 1-5.79 25.2 25.2 0 0 1 2.18-5.53 17.7 17.7 0 0 1 3.86-4.85l.35-.2a1.1 1.1 0 0 1 .32-.12z" class="cls-27" style="fill:#f6cf32;stroke:#f6cf32;stroke-width:3px;stroke-miterlimit:10"/><path id="path378" d="M155.26 178.49c.37-.93.81-1.94 1.31-3s1-2.19 1.59-3.33 1.17-2.27 1.81-3.39a36 36 0 0 1 2-3.16 7.3 7.3 0 0 1 2.07-2.08 3.8 3.8 0 0 1 2-.65 3 3 0 0 1 1.61.41 3.3 3.3 0 0 1 1.13 1.15 5.5 5.5 0 0 1 .67 1.7 8.7 8.7 0 0 1 .23 2.1 25 25 0 0 1-.16 2.49c-.1 1-.15 2.12-.15 3.26 0 .64 0 1.29.08 1.92a9 9 0 0 0 .32 1.7 3 3 0 0 0 .69 1.21 1.64 1.64 0 0 0 1.21.47 3.1 3.1 0 0 0 1.7-.53 8.3 8.3 0 0 0 1.66-1.44 17 17 0 0 0 1.56-2c.5-.74.94-1.47 1.35-2.2s.75-1.44 1.06-2.12.56-1.25.74-1.7a1.23 1.23 0 0 1 1.24-.89 1.17 1.17 0 0 1 1 .51 1.85 1.85 0 0 1 .35 1.07 1.5 1.5 0 0 1-.11.6c-.08.21-.27.65-.54 1.32s-.64 1.43-1.1 2.31-1 1.79-1.61 2.75a20 20 0 0 1-2 2.64 10.9 10.9 0 0 1-2.41 2 5.2 5.2 0 0 1-2.71.76 4.13 4.13 0 0 1-2.62-.8 5.34 5.34 0 0 1-1.54-2 9.7 9.7 0 0 1-.74-2.71 23 23 0 0 1-.2-2.91q0-.74.06-1.56c0-.55.07-1.1.12-1.64s.09-1.05.12-1.52.06-.87.06-1.19a3.3 3.3 0 0 0-.3-1.7.85.85 0 0 0-.69-.44 2.07 2.07 0 0 0-1.3.76 14 14 0 0 0-1.52 2q-.79 1.23-1.59 2.76c-.53 1-1.05 2-1.54 3.05s-.95 2-1.35 2.89l-1 2.28a6.35 6.35 0 0 1-1.5 2.34 2.4 2.4 0 0 1-1.37.63 1.75 1.75 0 0 1-1.68-.92 4.5 4.5 0 0 1-.58-2.38v-17.13q0-6.93.17-12.92.16-6 .53-10.83a62.5 62.5 0 0 1 1.12-8.3 17.8 17.8 0 0 1 1.89-5.35 3.5 3.5 0 0 1 2.89-2 3.55 3.55 0 0 1 2.51.87 6.5 6.5 0 0 1 1.67 2.5 16 16 0 0 1 .92 3.71 35 35 0 0 1 .28 4.47 57 57 0 0 1-.76 9.37 78 78 0 0 1-2 9 90 90 0 0 1-3 8.6 174 174 0 0 1-3.58 8.19v7.08c-.09.78-.09 1.16-.07 1.92zm0-14.93q1.48-3.78 2.71-7.36a85 85 0 0 0 2.09-7.12 72 72 0 0 0 1.36-7.17 56 56 0 0 0 .49-7.56c0-.43 0-1.12-.05-2.06a19 19 0 0 0-.32-2.87 9.6 9.6 0 0 0-.81-2.53 1.63 1.63 0 0 0-1.54-1.05c-.52 0-1 .43-1.35 1.23a15 15 0 0 0-1 3.27c-.28 1.37-.52 3-.71 4.78s-.34 3.74-.46 5.76-.2 4.11-.26 6.25-.1 4.2-.13 6.21 0 3.89 0 5.65z" class="cls-27" style="fill:#f6cf32;stroke:#f6cf32;stroke-width:3px;stroke-miterlimit:10"/><path id="path380" d="M185.46 150.26a3.65 3.65 0 0 1-.94 2.57 2.81 2.81 0 0 1-2.28 1 3 3 0 0 1-2.28-1.14 3.9 3.9 0 0 1-.94-2.64 4 4 0 0 1 .25-1.43 3.4 3.4 0 0 1 .69-1.15 3 3 0 0 1 1-.76 2.7 2.7 0 0 1 1.26-.24 2.9 2.9 0 0 1 1.26.32 3.4 3.4 0 0 1 1 .83 3.7 3.7 0 0 1 .69 1.21 4 4 0 0 1 .29 1.43zm-5.73 23.51a107 107 0 0 1 .63-11.59 1.75 1.75 0 0 1 .45-1 1.14 1.14 0 0 1 1-.39 1.11 1.11 0 0 1 .89.49 1.82 1.82 0 0 1 .35 1.09c0 .16 0 .64-.09 1.45s-.13 1.77-.21 2.88-.15 2.31-.21 3.56-.09 2.4-.09 3.45a13.3 13.3 0 0 0 .37 3.48 6.1 6.1 0 0 0 1 2.08 3.1 3.1 0 0 0 1.23 1 3.6 3.6 0 0 0 1.26.29 3.23 3.23 0 0 0 2.05-.71 11 11 0 0 0 2.18-2.15 27 27 0 0 0 2.24-3.36q1.14-2 2.23-4.41a1.33 1.33 0 0 1 .5-.59 1.07 1.07 0 0 1 .7-.17 1.22 1.22 0 0 1 .94.55 1.8 1.8 0 0 1 .37 1.08 1.55 1.55 0 0 1-.14.68c-.28.6-.64 1.32-1.06 2.18s-.91 1.75-1.45 2.65-1.14 1.81-1.78 2.7a18 18 0 0 1-2.07 2.38 10.2 10.2 0 0 1-2.3 1.68 5 5 0 0 1-2.45.57 5.25 5.25 0 0 1-2.79-.89 7.2 7.2 0 0 1-2-2.13 10.3 10.3 0 0 1-1.24-3.09 17 17 0 0 1-.51-3.79zm3.75-23.59a1.48 1.48 0 0 0-.37-1 1.18 1.18 0 0 0-.87-.46 1 1 0 0 0-.85.4 1.42 1.42 0 0 0-.35 1 1.5 1.5 0 0 0 .35 1 1.13 1.13 0 0 0 .85.43 1.08 1.08 0 0 0 .87-.37 1.33 1.33 0 0 0 .37-1.03z" class="cls-27" style="fill:#f6cf32;stroke:#f6cf32;stroke-width:3px;stroke-miterlimit:10"/><path id="path382" d="M215.04 173.26c-.26.59-.58 1.28-1 2.09s-.83 1.63-1.32 2.49a28 28 0 0 1-1.68 2.52 13.7 13.7 0 0 1-2 2.21 8.9 8.9 0 0 1-2.29 1.5 5.2 5.2 0 0 1-2.6.42 5.58 5.58 0 0 1-3.63-1.82 13.7 13.7 0 0 1-2.58-4.14 30.3 30.3 0 0 1-1.72-5.65c-.43-2.09-.77-4.22-1-6.38s-.4-4.26-.48-6.28-.13-3.83-.13-5.39q0-3.4.2-7c.13-2.42.33-4.78.62-7.08s.64-4.47 1.07-6.52a34.5 34.5 0 0 1 1.56-5.35 11.5 11.5 0 0 1 2.08-3.62 3.07 3.07 0 0 1 2.65-1.15 4.1 4.1 0 0 1 2.1.82 5.45 5.45 0 0 1 1.57 2.2 15.8 15.8 0 0 1 1 3.78 37 37 0 0 1 .36 5.58 48.3 48.3 0 0 1-.74 8.28 77 77 0 0 1-2 8.48 89 89 0 0 1-3 8.45 132 132 0 0 1-3.7 8.17 31 31 0 0 0 2.36 8.26q1.48 3.06 3.57 3.25a3.56 3.56 0 0 0 2.72-1 13.8 13.8 0 0 0 2.39-2.76 28 28 0 0 0 1.93-3.33c.55-1.14 1-2.05 1.28-2.74a1.17 1.17 0 0 1 .5-.57 1 1 0 0 1 .7-.14 1.36 1.36 0 0 1 1 .6 1.92 1.92 0 0 1 .37 1.14 2.1 2.1 0 0 1-.16.68zm-17.68-18c0 1.73 0 3.39.11 5s.16 3.13.28 4.6q1.48-3.17 2.83-6.76t2.36-7.27a73 73 0 0 0 1.64-7.38 43 43 0 0 0 .62-7.08 25 25 0 0 0-.67-6.9c-.45-1.42-1.05-2.17-1.8-2.23-.5-.05-1 .3-1.43 1a13.7 13.7 0 0 0-1.29 3.09 43 43 0 0 0-1.1 4.69c-.32 1.81-.6 3.75-.83 5.84s-.4 4.27-.53 6.56-.24 4.53-.24 6.84z" class="cls-27" style="fill:#f6cf32;stroke:#f6cf32;stroke-width:3px;stroke-miterlimit:10"/><path id="path384" d="M232.59 175.84c-.26.58-.58 1.26-1 2s-.82 1.6-1.31 2.43a24 24 0 0 1-1.65 2.46 13.4 13.4 0 0 1-2 2.12 8.7 8.7 0 0 1-2.29 1.39 5 5 0 0 1-2.58.29 5.82 5.82 0 0 1-3.62-2 15 15 0 0 1-2.57-4.25 33 33 0 0 1-1.71-5.73c-.43-2.12-.77-4.27-1-6.44s-.4-4.27-.48-6.3-.12-3.84-.12-5.4c0-2.27.07-4.61.19-7s.34-4.76.62-7.05.64-4.44 1.07-6.46a34 34 0 0 1 1.55-5.28 11 11 0 0 1 2.06-3.45 2.94 2.94 0 0 1 2.64-1 4 4 0 0 1 2.09.92 5.8 5.8 0 0 1 1.57 2.27 16.5 16.5 0 0 1 1 3.83 39 39 0 0 1 .35 5.6 46.7 46.7 0 0 1-.74 8.24 72 72 0 0 1-2 8.39 85 85 0 0 1-3 8.3q-1.73 4.11-3.69 8a32.3 32.3 0 0 0 2.36 8.38q1.47 3.12 3.55 3.42a3.39 3.39 0 0 0 2.7-.88 12.8 12.8 0 0 0 2.39-2.65 25 25 0 0 0 1.91-3.23c.55-1.11 1-2 1.28-2.69a1.13 1.13 0 0 1 .49-.54 1 1 0 0 1 .7-.11 1.46 1.46 0 0 1 1 .65 2.1 2.1 0 0 1 .37 1.16 2 2 0 0 1-.13.61zm-17.55-18.87c0 1.73 0 3.39.1 5s.17 3.14.28 4.61q1.49-3.09 2.82-6.62t2.36-7.16a70 70 0 0 0 1.63-7.3 42.6 42.6 0 0 0 .62-7.05 26 26 0 0 0-.67-6.94c-.45-1.44-1-2.21-1.79-2.31-.5-.07-1 .26-1.43 1a12.8 12.8 0 0 0-1.28 3 39 39 0 0 0-1.09 4.64q-.5 2.69-.83 5.8t-.53 6.53c-.19 2.26-.19 4.54-.19 6.8z" class="cls-27" style="fill:#f6cf32;stroke:#f6cf32;stroke-width:3px;stroke-miterlimit:10"/><path id="path386" d="m243.21 189.61 2.48-2.38c.83-.81 1.65-1.67 2.44-2.58a32 32 0 0 0 2.21-2.89 22 22 0 0 0 1.82-3.33 1.06 1.06 0 0 1 .49-.56 1 1 0 0 1 .69-.06 1.56 1.56 0 0 1 1 .71 2.17 2.17 0 0 1 .36 1.17 1.6 1.6 0 0 1-.1.59 22.8 22.8 0 0 1-2.47 4.24 39 39 0 0 1-2.92 3.49c-1 1.09-2.05 2.13-3.1 3.14s-2 2-3 3.08c-.09 1.85-.09 3.71 0 5.61s.14 3.89.14 6c0 1.73 0 3.45-.14 5.16s-.24 3.33-.45 4.86a32 32 0 0 1-.86 4.26 13 13 0 0 1-1.37 3.31 5.9 5.9 0 0 1-2 2 3.7 3.7 0 0 1-2.62.39 5.42 5.42 0 0 1-3.77-2.66 11 11 0 0 1-1.33-5.77 24 24 0 0 1 .33-4.13 38 38 0 0 1 1-4.42c.44-1.5 1-3 1.59-4.52s1.29-3 2-4.37a43 43 0 0 1 2.3-4 32 32 0 0 1 2.49-3.31c0-1.28.09-2.62.15-4s.12-2.66.19-3.83a6.75 6.75 0 0 1-2.25 2.56 3.93 3.93 0 0 1-2.95.59 6 6 0 0 1-4.17-2.8 10.6 10.6 0 0 1-1.51-5.91 23.4 23.4 0 0 1 .44-4.73 29 29 0 0 1 .95-3.56 15.4 15.4 0 0 1 .92-2.23 7 7 0 0 1 .43-.72 1 1 0 0 1 1.08-.49 1.43 1.43 0 0 1 1 .63 1.94 1.94 0 0 1 .37 1.14 1.4 1.4 0 0 1-.21.77s-.09.18-.33.61a12 12 0 0 0-.81 1.9 24 24 0 0 0-.8 3.06 19.7 19.7 0 0 0-.37 4 7.9 7.9 0 0 0 .7 3.6 3 3 0 0 0 2.28 1.66c1.33.24 2.53-.67 3.6-2.75a34.7 34.7 0 0 0 2.72-9.4 1.18 1.18 0 0 1 .42-.79 1 1 0 0 1 .84-.18 1.56 1.56 0 0 1 .94.64 1.9 1.9 0 0 1 .38 1.17c0 .08 0 .55-.14 1.41s-.2 2-.33 3.43-.26 3.1-.4 5-.26 4.02-.35 6.19zm-2.79 8a41 41 0 0 0-2.88 5 48 48 0 0 0-2.26 5.37 41 41 0 0 0-1.47 5.24 23 23 0 0 0-.52 4.6 8.2 8.2 0 0 0 .59 3.4 2.51 2.51 0 0 0 1.89 1.54 2.07 2.07 0 0 0 2-.94 10 10 0 0 0 1.5-3.46 35 35 0 0 0 .93-5.71c.21-2.26.31-4.83.31-7.69v-3.53c0-1.2-.07-2.45-.09-3.8z" class="cls-27" style="fill:#f6cf32;stroke:#f6cf32;stroke-width:3px;stroke-miterlimit:10"/><path id="path388" d="M147.04 139.4a23 23 0 0 1-1.63 8.86 20.3 20.3 0 0 1-4.59 6.89 23.9 23.9 0 0 1-7.1 4.75 32 32 0 0 1-9.1 2.43 1.4 1.4 0 0 1-1-.26 1.29 1.29 0 0 1-.44-1.1 1.74 1.74 0 0 1 .39-1.1 1.46 1.46 0 0 1 .95-.56 30.6 30.6 0 0 0 8.11-2.07 20.3 20.3 0 0 0 6.28-4 17.6 17.6 0 0 0 4.03-5.98 19.7 19.7 0 0 0 1.45-7.71 16.6 16.6 0 0 0-1.68-7.65 14.5 14.5 0 0 0-4.7-5.37 18.4 18.4 0 0 0-7.2-2.88 29.5 29.5 0 0 0-9.18-.13 44 44 0 0 0-9.12 2.19 46.4 46.4 0 0 0-8.26 3.89 43.3 43.3 0 0 0-7 5.21 37.7 37.7 0 0 0-5.41 6.09 28.8 28.8 0 0 0-3.49 6.58 19 19 0 0 0-1.26 6.69 12.2 12.2 0 0 0 .87 4.9 8 8 0 0 0 2.32 3.15 7.23 7.23 0 0 0 3.32 1.49 10.5 10.5 0 0 0 3.94-.07 16.8 16.8 0 0 0 4.35-1.44 23 23 0 0 0 3.22-1.92 14.7 14.7 0 0 0 2-1.7l.77-.84a1.42 1.42 0 0 1 .91-.6 1 1 0 0 1 .93.31 1.36 1.36 0 0 1 .4 1 1.67 1.67 0 0 1-.42 1.16l-.89 1a18.5 18.5 0 0 1-2.39 2.08 24.4 24.4 0 0 1-3.79 2.31 19.8 19.8 0 0 1-5.11 1.71 12.4 12.4 0 0 1-5 0 9.44 9.44 0 0 1-4.18-2 10.7 10.7 0 0 1-2.85-4 15.2 15.2 0 0 1-1.05-5.93 22.8 22.8 0 0 1 1.33-7.57 32.3 32.3 0 0 1 3.76-7.41 40.7 40.7 0 0 1 5.8-6.81 45.5 45.5 0 0 1 7.51-5.79 48.8 48.8 0 0 1 8.86-4.3 46 46 0 0 1 9.84-2.41 31 31 0 0 1 10.29.26 20.5 20.5 0 0 1 8.07 3.47 17 17 0 0 1 5.24 6.32 19.8 19.8 0 0 1 1.9 8.86zm-21-7.75a1.09 1.09 0 0 1 .93.31 1.4 1.4 0 0 1 .41 1.07 1.5 1.5 0 0 1-.2.75 4 4 0 0 1-.47.66 18.5 18.5 0 0 0-3.16 4.22 21 21 0 0 0-1.79 4.66 30 30 0 0 0-.81 5.15c-.13 1.8-.2 3.67-.2 5.61v5.1a58 58 0 0 1-.77 9.63 29 29 0 0 1-2.62 8.27 18.5 18.5 0 0 1-4.93 6.14 16.9 16.9 0 0 1-7.75 3.29 14.6 14.6 0 0 1-4.11.17 13.3 13.3 0 0 1-3.79-1 12.4 12.4 0 0 1-3.28-2.06 12.5 12.5 0 0 1-2.57-3.1 1.7 1.7 0 0 1-.14-.35 1.2 1.2 0 0 1-.07-.41 2 2 0 0 1 .36-1.11 1.5 1.5 0 0 1 1-.67.93.93 0 0 1 .64.08 1.7 1.7 0 0 1 .51.44 12.5 12.5 0 0 0 5.06 4.38 10.9 10.9 0 0 0 6.43.6 14.3 14.3 0 0 0 6.75-2.9 15.1 15.1 0 0 0 4.1-5.44 25.7 25.7 0 0 0 2-7.43 67 67 0 0 0 .55-8.78v-5.14c0-1.81.07-3.68.21-5.63a31 31 0 0 1 1-5.8 25.3 25.3 0 0 1 2.18-5.55 17.9 17.9 0 0 1 3.85-4.88l.35-.2a1.1 1.1 0 0 1 .33-.08z" class="cls-28" style="fill:#3a3a3a;stroke:#3a3a3a;stroke-width:3px;stroke-miterlimit:10"/><path id="path390" d="M152.24 175.62c.38-.93.81-1.95 1.31-3s1-2.2 1.59-3.35 1.17-2.27 1.81-3.4a36 36 0 0 1 2-3.18 7.3 7.3 0 0 1 2.07-2.09 3.83 3.83 0 0 1 2-.67 2.94 2.94 0 0 1 1.61.4 3.25 3.25 0 0 1 1.13 1.14 5.5 5.5 0 0 1 .67 1.69 8.8 8.8 0 0 1 .23 2.1 25 25 0 0 1-.16 2.49c-.1 1-.16 2.13-.16 3.26q0 1 .09 1.92a8.7 8.7 0 0 0 .32 1.7 2.9 2.9 0 0 0 .69 1.21 1.63 1.63 0 0 0 1.21.46 3.1 3.1 0 0 0 1.7-.55 8 8 0 0 0 1.66-1.45 18 18 0 0 0 1.56-2c.49-.73.94-1.47 1.35-2.21s.75-1.44 1.06-2.12.56-1.26.74-1.71a1.24 1.24 0 0 1 1.24-.9 1.13 1.13 0 0 1 1 .5 1.84 1.84 0 0 1 .35 1.06 1.5 1.5 0 0 1-.11.61c-.08.21-.27.65-.54 1.32s-.64 1.44-1.1 2.32-1 1.8-1.61 2.76a21 21 0 0 1-2 2.67 11 11 0 0 1-2.41 2 5.15 5.15 0 0 1-2.71.78 4.06 4.06 0 0 1-2.62-.77 5.26 5.26 0 0 1-1.54-2 9.6 9.6 0 0 1-.74-2.7 22 22 0 0 1-.2-2.91c0-.48 0-1 .06-1.55s.07-1.1.12-1.64.09-1 .12-1.52.06-.88.06-1.2a3.27 3.27 0 0 0-.3-1.69.83.83 0 0 0-.69-.44 2.07 2.07 0 0 0-1.3.78 14 14 0 0 0-1.52 2c-.53.83-1.06 1.75-1.59 2.78s-1 2-1.54 3.06-1 2-1.35 2.9l-1 2.29a6.5 6.5 0 0 1-1.5 2.35 2.53 2.53 0 0 1-1.37.65 1.76 1.76 0 0 1-1.68-.91 4.5 4.5 0 0 1-.58-2.38v-17.13c0-4.58.07-8.94.17-12.92s.29-7.6.54-10.83a61 61 0 0 1 1.11-8.31 18.2 18.2 0 0 1 1.89-5.37 3.5 3.5 0 0 1 2.89-2 3.45 3.45 0 0 1 2.51.85 6.45 6.45 0 0 1 1.67 2.48 15.8 15.8 0 0 1 .92 3.7 35 35 0 0 1 .28 4.47 57 57 0 0 1-.76 9.38 79 79 0 0 1-2 9 90 90 0 0 1-3 8.62c-1.13 2.8-2.33 5.54-3.58 8.22v7.08c-.09.76-.08 1.14-.07 1.9zm0-14.93q1.49-3.8 2.71-7.38t2.09-7.14a72 72 0 0 0 1.36-7.18 56 56 0 0 0 .49-7.56c0-.44 0-1.12-.05-2.07a20 20 0 0 0-.32-2.86 9.3 9.3 0 0 0-.81-2.52 1.61 1.61 0 0 0-1.54-1c-.52 0-1 .43-1.35 1.24a15.4 15.4 0 0 0-1 3.28c-.28 1.37-.52 3-.71 4.78s-.34 3.74-.46 5.77-.2 4.11-.26 6.24-.1 4.21-.13 6.22 0 3.89 0 5.65z" class="cls-28" style="fill:#3a3a3a;stroke:#3a3a3a;stroke-width:3px;stroke-miterlimit:10"/><path id="path392" d="M182.44 147.11a3.68 3.68 0 0 1-.94 2.58 2.83 2.83 0 0 1-2.28 1 3 3 0 0 1-2.28-1.13 3.85 3.85 0 0 1-.94-2.62 4 4 0 0 1 .25-1.44 3.6 3.6 0 0 1 .69-1.16 3 3 0 0 1 1-.76 2.8 2.8 0 0 1 1.26-.26 3 3 0 0 1 1.26.32 3.4 3.4 0 0 1 1 .82 3.8 3.8 0 0 1 .69 1.2 4 4 0 0 1 .29 1.45zm-5.73 23.56a107 107 0 0 1 .63-11.6 1.78 1.78 0 0 1 .45-1 1.18 1.18 0 0 1 1-.4 1.11 1.11 0 0 1 .89.49 1.77 1.77 0 0 1 .36 1.1c0 .16 0 .64-.09 1.45s-.13 1.77-.21 2.89-.15 2.3-.21 3.55-.09 2.41-.09 3.46a13 13 0 0 0 .37 3.47 5.9 5.9 0 0 0 1 2.07 3 3 0 0 0 1.23 1 3.8 3.8 0 0 0 1.26.29 3.32 3.32 0 0 0 2.05-.73 11 11 0 0 0 2.18-2.17 27.5 27.5 0 0 0 2.25-3.38c.75-1.32 1.49-2.8 2.23-4.42a1.23 1.23 0 0 1 .49-.6 1.1 1.1 0 0 1 .71-.18 1.22 1.22 0 0 1 .94.55 1.85 1.85 0 0 1 .37 1.07 1.5 1.5 0 0 1-.14.68c-.29.6-.64 1.34-1.07 2.2s-.9 1.75-1.45 2.66-1.13 1.81-1.78 2.71a19 19 0 0 1-2.07 2.4 10 10 0 0 1-2.3 1.69 4.73 4.73 0 0 1-2.44.59 5.23 5.23 0 0 1-2.8-.86 7.1 7.1 0 0 1-2-2.11 10.3 10.3 0 0 1-1.24-3.09 17 17 0 0 1-.52-3.78zm3.75-23.62a1.48 1.48 0 0 0-.37-1 1.17 1.17 0 0 0-.87-.45 1.06 1.06 0 0 0-.85.4 1.46 1.46 0 0 0-.35 1 1.44 1.44 0 0 0 .35 1 1.15 1.15 0 0 0 .85.42 1.13 1.13 0 0 0 .87-.38 1.33 1.33 0 0 0 .37-.99z" class="cls-28" style="fill:#3a3a3a;stroke:#3a3a3a;stroke-width:3px;stroke-miterlimit:10"/><path id="path394" d="M211.98 169.88a36 36 0 0 1-1 2.1c-.42.81-.83 1.64-1.32 2.5a26 26 0 0 1-1.66 2.55 14 14 0 0 1-2 2.23 9.2 9.2 0 0 1-2.29 1.52 5.1 5.1 0 0 1-2.6.44 5.52 5.52 0 0 1-3.64-1.79 14 14 0 0 1-2.58-4.11 29.7 29.7 0 0 1-1.71-5.64 64 64 0 0 1-1-6.38q-.36-3.24-.48-6.28c-.08-2-.12-3.82-.12-5.39 0-2.26.06-4.61.19-7s.34-4.78.62-7.08.64-4.48 1.08-6.53a33.6 33.6 0 0 1 1.56-5.36 11.9 11.9 0 0 1 2.06-3.57 3.13 3.13 0 0 1 2.65-1.17 4 4 0 0 1 2.11.81 5.4 5.4 0 0 1 1.57 2.18 15.6 15.6 0 0 1 1 3.78 37 37 0 0 1 .36 5.57 48.5 48.5 0 0 1-.74 8.29 75 75 0 0 1-2 8.49 88 88 0 0 1-3 8.47q-1.73 4.21-3.71 8.2a31.2 31.2 0 0 0 2.37 8.25q1.49 3 3.57 3.22a3.6 3.6 0 0 0 2.72-1 14.6 14.6 0 0 0 2.4-2.78 28 28 0 0 0 1.92-3.35c.55-1.14 1-2.06 1.29-2.75a1.23 1.23 0 0 1 .49-.58 1.13 1.13 0 0 1 .7-.14 1.3 1.3 0 0 1 1 .59 1.94 1.94 0 0 1 .37 1.14 1.8 1.8 0 0 1-.18.57zm-17.68-17.87c0 1.72 0 3.38.1 5s.17 3.13.28 4.59c1-2.12 1.94-4.37 2.83-6.78a91 91 0 0 0 2.37-7.29 73 73 0 0 0 1.64-7.39 43 43 0 0 0 .62-7.09 25.2 25.2 0 0 0-.67-6.9c-.45-1.41-1.05-2.15-1.8-2.21-.5 0-1 .31-1.43 1.06a13.4 13.4 0 0 0-1.29 3.1 43 43 0 0 0-1.1 4.69q-.49 2.72-.83 5.85t-.53 6.56q-.19 3.4-.19 6.81z" class="cls-28" style="fill:#3a3a3a;stroke:#3a3a3a;stroke-width:3px;stroke-miterlimit:10"/><path id="path396" d="M229.6 172.34c-.26.58-.58 1.26-1 2.05s-.82 1.6-1.31 2.44a30 30 0 0 1-1.65 2.47 13 13 0 0 1-2 2.13 8.3 8.3 0 0 1-2.28 1.41 4.9 4.9 0 0 1-2.59.31 5.77 5.77 0 0 1-3.62-2 14.4 14.4 0 0 1-2.57-4.24 30.7 30.7 0 0 1-1.71-5.71c-.44-2.12-.77-4.26-1-6.43s-.39-4.27-.47-6.3-.13-3.83-.13-5.4q0-3.39.2-7t.61-7.05c.29-2.29.64-4.45 1.08-6.48a32.5 32.5 0 0 1 1.58-5.28 11.3 11.3 0 0 1 2.06-3.48 3 3 0 0 1 2.64-1 4.1 4.1 0 0 1 2.09.91 5.66 5.66 0 0 1 1.57 2.26 16.2 16.2 0 0 1 1 3.82 37 37 0 0 1 .36 5.59 48 48 0 0 1-.74 8.25 72 72 0 0 1-2 8.4 85 85 0 0 1-3 8.33q-1.73 4.13-3.7 8a32.8 32.8 0 0 0 2.36 8.36c1 2.08 2.17 3.21 3.56 3.39a3.39 3.39 0 0 0 2.71-.9 13.3 13.3 0 0 0 2.39-2.67 26 26 0 0 0 1.91-3.25c.55-1.11 1-2 1.28-2.69a1.16 1.16 0 0 1 .49-.55 1 1 0 0 1 .7-.11 1.41 1.41 0 0 1 1 .64 2.07 2.07 0 0 1 .37 1.15 2 2 0 0 1-.19.63zm-17.62-18.73c0 1.73 0 3.39.11 5s.16 3.14.28 4.61q1.49-3.1 2.82-6.64c.89-2.36 1.68-4.75 2.36-7.19a70 70 0 0 0 1.63-7.31 42.6 42.6 0 0 0 .62-7.06 25.8 25.8 0 0 0-.67-6.92c-.45-1.44-1-2.21-1.79-2.31-.5-.06-1 .27-1.43 1a12.7 12.7 0 0 0-1.29 3 42 42 0 0 0-1.09 4.64c-.33 1.8-.6 3.74-.83 5.81s-.39 4.26-.52 6.54-.2 4.57-.2 6.83z" class="cls-28" style="fill:#3a3a3a;stroke:#3a3a3a;stroke-width:3px;stroke-miterlimit:10"/><path id="path398" d="m240.24 186.02 2.47-2.4c.84-.82 1.65-1.69 2.44-2.6a32 32 0 0 0 2.22-2.91 22.3 22.3 0 0 0 1.82-3.35 1.06 1.06 0 0 1 .49-.56 1.1 1.1 0 0 1 .7-.07 1.5 1.5 0 0 1 1 .7 2.1 2.1 0 0 1 .37 1.18 1.5 1.5 0 0 1-.11.58 23 23 0 0 1-2.47 4.27 39 39 0 0 1-2.92 3.51c-1 1.1-2.06 2.15-3.1 3.17a73 73 0 0 0-3 3.1 53 53 0 0 0 0 5.61q.13 2.83.14 6c0 1.73-.05 3.45-.14 5.16s-.25 3.33-.46 4.87a31 31 0 0 1-.86 4.26 12.6 12.6 0 0 1-1.38 3.32 5.9 5.9 0 0 1-1.95 2 3.74 3.74 0 0 1-2.63.41 5.35 5.35 0 0 1-3.83-2.61 11 11 0 0 1-1.33-5.75 24 24 0 0 1 .37-4.11 38 38 0 0 1 1-4.43 46 46 0 0 1 1.6-4.53c.61-1.52 1.29-3 2-4.39a43 43 0 0 1 2.31-4 34 34 0 0 1 2.48-3.33c.05-1.28.1-2.61.16-4s.12-2.66.19-3.83a6.8 6.8 0 0 1-2.25 2.58 4 4 0 0 1-3 .61 6 6 0 0 1-4.17-2.76 10.55 10.55 0 0 1-1.51-5.9 23.4 23.4 0 0 1 .44-4.73 29 29 0 0 1 .95-3.57 14 14 0 0 1 .92-2.24 6 6 0 0 1 .43-.72 1 1 0 0 1 1.08-.51 1.47 1.47 0 0 1 1 .63 2 2 0 0 1 .36 1.14 1.4 1.4 0 0 1-.21.77 3.4 3.4 0 0 1-.33.61 12.5 12.5 0 0 0-.8 1.91 22 22 0 0 0-.81 3.06 20 20 0 0 0-.37 4 7.85 7.85 0 0 0 .7 3.59 3 3 0 0 0 2.28 1.64c1.33.23 2.53-.69 3.61-2.78a34.8 34.8 0 0 0 2.72-9.42 1.18 1.18 0 0 1 .42-.79 1 1 0 0 1 .84-.19 1.56 1.56 0 0 1 .94.63 1.92 1.92 0 0 1 .39 1.17c0 .08-.05.55-.14 1.41s-.21 2-.33 3.44-.27 3.09-.41 5-.24 3.98-.33 6.15zm-2.8 8a43.5 43.5 0 0 0-2.89 5 51 51 0 0 0-2.25 5.39 40 40 0 0 0-1.48 5.26 23 23 0 0 0-.52 4.6 8.1 8.1 0 0 0 .59 3.4 2.49 2.49 0 0 0 1.9 1.52 2.06 2.06 0 0 0 2-1 9.8 9.8 0 0 0 1.51-3.47 34.4 34.4 0 0 0 .92-5.71q.31-3.41.32-7.7c0-1.16 0-2.33-.05-3.53s-.03-2.36-.05-3.72z" class="cls-28" style="fill:#3a3a3a;stroke:#3a3a3a;stroke-width:3px;stroke-miterlimit:10"/></svg>