<svg xmlns="http://www.w3.org/2000/svg" id="Layer_1" width="347.81" height="288.99" data-name="Layer 1" version="1.1"><defs id="defs4"><style id="style2">.cls-1{fill:#1e1e1e}.cls-14,.cls-15{stroke-miterlimit:10}.cls-3{fill:#e41d34}.cls-15{fill:none}.cls-14{stroke:#56b947;fill:#56b947}.cls-15{stroke:#1e1e1e}.cls-11{fill:#e7a9cc}.cls-14{stroke-width:6.18px}.cls-15{stroke-width:5.43px}</style></defs><path id="rect6" d="M10.87 41.66h325.16v236.4H10.87z" class="cls-1" style="fill:#1e1e1e"/><g id="text5504" aria-label="HOCKEY CLUB" style="font-weight:700;font-stretch:condensed;font-size:19.4893px;line-height:1.25;font-family:Arial;-inkscape-font-specification:&quot;Arial, Bold Condensed&quot;;letter-spacing:21.59px;fill:#fff;stroke-width:.999994" transform="scale(.82522 1.2118)"><path id="path48250" d="M61.122 216.8v-13.95h2.303v5.49h4.53v-5.49h2.312v13.95h-2.312v-6.1h-4.53v6.1z" style="letter-spacing:18.32px"/><path id="path48252" d="M90.51 209.91q0-2.493.732-4.101.742-1.618 1.932-2.408 1.19-.79 2.883-.79 2.455 0 3.997 1.875 1.551 1.875 1.551 5.339 0 3.502-1.637 5.471-1.437 1.742-3.901 1.742-2.484 0-3.92-1.723-1.638-1.97-1.638-5.405zm2.378-.095q0 2.408.914 3.616.913 1.2 2.265 1.2 1.36 0 2.255-1.19.895-1.2.895-3.674 0-2.426-.876-3.587-.866-1.161-2.274-1.161-1.409 0-2.294 1.17t-.885 3.626z" style="letter-spacing:18.32px"/><path id="path48254" d="m129.051 211.67 2.237.867q-.524 2.34-1.742 3.426-1.218 1.075-2.997 1.075-2.237 0-3.626-1.723-1.599-1.988-1.599-5.367 0-3.568 1.608-5.586 1.4-1.75 3.76-1.75 1.922 0 3.216 1.312.923.933 1.351 2.77l-2.284.666q-.219-1.133-.875-1.732-.647-.61-1.532-.61-1.266 0-2.065 1.105-.8 1.104-.8 3.644 0 2.636.78 3.75.78 1.113 2.028 1.113.913 0 1.58-.704.665-.714.96-2.255z" style="letter-spacing:18.32px"/><path id="path48256" d="M151.606 216.8v-13.95h2.303v6.194l4.672-6.195h3.112l-4.31 5.434 4.539 8.517h-2.988l-3.15-6.547-1.875 2.331v4.216z" style="letter-spacing:18.32px"/><path id="path48258" d="M181.44 216.8v-13.95h8.49v2.36h-6.186v3.092h5.747v2.35h-5.747v3.797h6.395v2.35z" style="letter-spacing:18.32px"/><path id="path48260" d="M213.417 216.8v-5.872l-4.188-8.079h2.703l2.693 5.52 2.646-5.52h2.655l-4.206 8.098v5.853z" style="letter-spacing:18.32px"/><path id="path48262" d="m269.203 211.67 2.237.867q-.524 2.34-1.742 3.426-1.218 1.075-2.997 1.075-2.237 0-3.626-1.723-1.599-1.988-1.599-5.367 0-3.568 1.608-5.586 1.4-1.75 3.76-1.75 1.922 0 3.216 1.312.923.933 1.351 2.77l-2.284.666q-.219-1.133-.875-1.732-.647-.61-1.532-.61-1.266 0-2.065 1.105-.8 1.104-.8 3.644 0 2.636.78 3.75.78 1.113 2.027 1.113.914 0 1.58-.704.666-.714.961-2.255z" style="letter-spacing:18.32px"/><path id="path48264" d="M291.796 216.8v-13.837h2.303v11.486h5.748v2.35z" style="letter-spacing:18.32px"/><path id="path48266" d="M319.794 202.85h2.303v7.555q0 1.76.086 2.293.152.924.723 1.428.58.504 1.523.504.799 0 1.303-.352.505-.361.685-.99.19-.637.19-2.721v-7.718h2.313v7.328q0 2.807-.304 4.063-.295 1.247-1.352 2.027-1.046.77-2.769.77-1.789 0-2.798-.637-.999-.647-1.456-1.808-.447-1.17-.447-4.301z" style="letter-spacing:18.32px"/><path id="path48268" d="M349.667 202.85h4.577q1.875 0 2.636.342.761.342 1.285 1.208.523.866.523 1.96 0 1.01-.447 1.828-.447.809-1.161 1.199 1.018.361 1.59 1.237.58.875.58 2.132 0 1.522-.733 2.578-.733 1.047-1.732 1.295-.695.17-3.226.17h-3.892zm2.303 2.321v3.226h1.522q1.37 0 1.694-.048.59-.095.923-.494.333-.41.333-1.104 0-.619-.276-1-.266-.39-.656-.485-.38-.095-2.208-.095zm0 5.548v3.73h2.141q1.408 0 1.808-.142.4-.153.666-.58.276-.439.276-1.105 0-.685-.295-1.123-.285-.447-.77-.609-.476-.171-1.961-.171z" style="letter-spacing:18.32px"/></g><ellipse id="ellipse8" cx="166.2" cy="43.02" class="cls-1" rx="82.87" ry="43.02" style="fill:#1e1e1e"/><path id="path54" d="M65.64 210.29h-18.8V66.5h30.61q18.79 0 28.6 10.73 9 10.33 9 29.65 0 19.71-9 29.86-9.6 10.92-28.6 10.92H65.64zm0-81.16h11.81q7.8 0 10.6-1.76a16.65 16.65 0 0 0 3.6-2.73q4.4-4.48 4.4-17.76a43.29 43.29 0 0 0-1.2-11.31 15.14 15.14 0 0 0-3.5-6.64 11.44 11.44 0 0 0-5.8-3.12 37.6 37.6 0 0 0-8.1-.78H65.64z" class="cls-11" style="fill:#e7a9cc"/><path id="path56" d="M285.41 139.63a34.28 34.28 0 0 1 8.3 12.1 41.46 41.46 0 0 1 2.91 16v42.53h-19v-42.53q0-18.93-18.8-18.93h-11.83v61.46h-18.8V66.46h30.61q19 0 28.6 10.93 8.8 9.94 8.81 30.05 0 19.89-8.81 30.24c-.26.26-.57.58-.9 1a4.81 4.81 0 0 1-1.09.95zm-26.6-9.37q7.59 0 10.5-1.75a16.22 16.22 0 0 0 3.7-2.73q4.4-5.46 4.4-18.34a45.44 45.44 0 0 0-1.2-11.61 15.93 15.93 0 0 0-3.5-6.83 11.09 11.09 0 0 0-5.8-3.22 37.6 37.6 0 0 0-8.1-.78h-11.82v45.26h11.81z" class="cls-11" style="fill:#e7a9cc"/><path id="path58" d="M134.64 37.67v64.61a32.59 32.59 0 0 0 65.18 0V37.67z" class="cls-3" style="fill:#e41d34"/><path id="rect60" d="M162.34 150.98h9.78v80.19h-9.78z" style="fill:#56b947"/><path id="path62" d="M147.3 190.45s-18.1-33.31-62.31-10.86c0 0 15.24 32.59 62.31 10.86z" style="fill:#56b947;stroke:#56b947;stroke-width:9.77999973px;stroke-miterlimit:10"/><path id="polygon64" d="m760.11 540.61-8.24-5.03v8.23z" class="cls-14" style="fill:#56b947;stroke:#56b947;stroke-width:6.17999983px;stroke-miterlimit:10" transform="translate(-577.01 -361.01)"/><path id="polygon66" d="m730.13 578.84 8.24-5.04v8.24z" class="cls-14" style="fill:#56b947;stroke:#56b947;stroke-width:6.17999983px;stroke-miterlimit:10" transform="translate(-577.01 -361.01)"/><path id="line68" d="m157.81 194.07-61.92-12.31" class="cls-15" style="fill:none;stroke:#1e1e1e;stroke-width:5.42999983px;stroke-miterlimit:10"/><path id="polyline70" d="m672.27 545.12-6.25-4.61h7.61" class="cls-1" style="fill:#1e1e1e" transform="translate(-577.01 -361.01)"/><path id="path72" d="M201.26 54.3h-14.48s-28.25-4.34-28.25 25.35v29s2.18 18.83-19.55 18.83" class="cls-15" style="fill:none;stroke:#1e1e1e;stroke-width:5.42999983px;stroke-miterlimit:10"/><path id="polyline74" d="M767.41 418.94h23.89l-15.93 28.24" class="cls-3" style="fill:#e41d34" transform="translate(-577.01 -361.01)"/><path id="polyline76" d="M714.91 398.68H699.7l18.83 41.98" class="cls-3" style="fill:#e41d34" transform="translate(-577.01 -361.01)"/><path id="polyline78" d="m776.82 412.6 7.6-10.32h-22.81" class="cls-3" style="fill:#e41d34" transform="translate(-577.01 -361.01)"/><ellipse id="ellipse80" cx="167.23" cy="33.3" rx="43.81" ry="13.4" style="fill:#e41d34;stroke:#1e1e1e;stroke-width:5.42999983px;stroke-miterlimit:10"/><path id="path82" d="M193.29 35.74s-35.3-7.55-47.25 1.78c0 0-7.62 3.11 5.43 7.55" class="cls-15" style="fill:none;stroke:#1e1e1e;stroke-width:5.42999983px;stroke-miterlimit:10"/><path id="path84" d="M206.46 196.65s36-4.43 49.23 28.21" class="cls-1" style="fill:#1e1e1e"/><path id="path86" d="M186.05 220.07s13.06-24 44.9-7.83c.04 0-10.96 23.49-44.9 7.83z" style="fill:#56b947;stroke:#56b947;stroke-width:7.05000019px;stroke-miterlimit:10"/><path id="line88" d="m177.72 222.68 41.28-7.61" class="cls-15" style="fill:none;stroke:#1e1e1e;stroke-width:5.42999983px;stroke-miterlimit:10"/><path id="polyline90" d="M794.93 573.91h7.24l-6.52 5.07" class="cls-1" style="fill:#1e1e1e" transform="translate(-577.01 -361.01)"/><path id="polyline92" d="m625.01 459.49-15.4 11.77 19.02 10.87" class="cls-11" style="fill:#e7a9cc" transform="translate(-577.01 -361.01)"/><path id="polyline94" d="m625.01 526.57-15.4 11.77 19.02 10.87" class="cls-11" style="fill:#e7a9cc" transform="translate(-577.01 -361.01)"/><path id="polyline96" d="m872.27 459.49 15.39 11.77-19.02 10.87" class="cls-11" style="fill:#e7a9cc" transform="translate(-577.01 -361.01)"/><path id="polyline98" d="m872.27 526.57 15.39 11.77-19.02 10.87" class="cls-11" style="fill:#e7a9cc" transform="translate(-577.01 -361.01)"/><path id="polyline284" d="m591.5 493.24-14.49 12.68 14.49 11.78" class="cls-1" style="fill:#1e1e1e" transform="translate(-577.01 -361.01)"/><path id="polyline286" d="m910.33 493.24 14.49 12.68-14.49 11.78" class="cls-1" style="fill:#1e1e1e" transform="translate(-577.01 -361.01)"/><path id="polyline288" d="m738 638 12 12 14-13" class="cls-1" style="fill:#1e1e1e" transform="translate(-577.01 -361.01)"/></svg>