<svg xmlns="http://www.w3.org/2000/svg" id="Layer_1" width="201.33" height="196.32" data-name="Layer 1" version="1.1"><defs id="defs10"><clipPath id="clip-path"><path id="path4" d="M499.29 535.21a173.07 173.07 0 0 0 66.16-13 170.87 170.87 0 0 0 54.34-35.68 167.16 167.16 0 0 0 37-53.46 165.73 165.73 0 0 0 0-132 167.32 167.32 0 0 0-37-53.46 170.56 170.56 0 0 0-54.34-35.67 174.23 174.23 0 0 0-132.32 0 170.71 170.71 0 0 0-54.35 35.67 167.48 167.48 0 0 0-37 53.46 165.73 165.73 0 0 0 0 132 167.48 167.48 0 0 0 37 53.46 170.74 170.74 0 0 0 54.35 35.68 173 173 0 0 0 66.16 13z" class="cls-1" style="fill:none"/></clipPath><clipPath id="clip-path-2"><path id="polygon7" d="M162.9 1006.07h21.36V834.76H162.9v-44.02h119.04v259.35H162.9Z" class="cls-1" style="fill:none"/></clipPath><style id="style2">.cls-1{fill:none}.cls-11{fill:#b78254}.cls-13{fill:#034757}.cls-14{fill:#e5b38b}.cls-17{fill:#eee4d3}</style></defs><g id="layer2" style="display:inline" transform="translate(-81.057 -80.47)"><path id="path698" d="M274.437 140.359a97.66 97.66 0 0 0-21.58-31.19 100.66 100.66 0 0 0-32-21 103.28 103.28 0 0 0-78.26 0 100.55 100.55 0 0 0-32 21 97.69 97.69 0 0 0-21.59 31.19 96.09 96.09 0 0 0 0 76.54 97.76 97.76 0 0 0 21.59 31.18 100.38 100.38 0 0 0 32 21 103.15 103.15 0 0 0 78.26 0 100.5 100.5 0 0 0 32-21 97.73 97.73 0 0 0 21.58-31.18 96.09 96.09 0 0 0 0-76.54z" style="fill:#fff6e7"/><path id="path700" d="M178.817 263.209a84.63 84.63 0 1 1 33-6.68 84.22 84.22 0 0 1-33 6.68z" style="fill:none;stroke:#034757;stroke-width:12.5px;stroke-miterlimit:10"/><path id="path702" d="M184.217 264.159a85.35 85.35 0 1 1 33.31-6.74 85 85 0 0 1-33.31 6.74zm0-113.6a28.07 28.07 0 1 0 28.07 28.06 28.1 28.1 0 0 0-28.07-28.06z" class="cls-11" style="fill:#b78254"/><path id="path704" d="M263.017 145.329a85.47 85.47 0 0 0-68-51.56l-1 5.87c7-2 14.51 2 19.65 7.18 5.14 5.18 8.89 11.71 14.27 16.7 2.62 2.42 5.63 4.5 7.64 7.46a26.24 26.24 0 0 1 3.17 7.67 161.41 161.41 0 0 1 6.18 41.78 6 6 0 0 1-.46 2.93 9.64 9.64 0 0 1-1.86 2.08c-5.54 5.66-1.24 15.77-5 22.73-2.32 4.25-7.53 7.09-7.87 11.92-.16 2.3.88 4.68.11 6.85-1.25 3.54-6 3.92-9.19 6-2.42 1.58-3.91 4.25-6 6.21-3.61 3.32-8.71 4.32-13.17 6.36-4.46 2.04-8.8 6.31-7.88 11.12-5.57.22-11.55 2.86-14.36 7.39 1.67.1 3.35.16 5 .16a85.57 85.57 0 0 0 78.79-118.83z" style="fill:#9b6a43"/><path id="path706" d="M184.217 270.459a91.63 91.63 0 1 1 35.76-7.23 91.22 91.22 0 0 1-35.76 7.23zm0-171.06a79 79 0 1 0 30.85 6.22 78.7 78.7 0 0 0-30.85-6.22z" class="cls-13" style="fill:#034757"/><path id="path708" d="M184.227 206.689a28.07 28.07 0 1 1 6.21-55.43l-1.35-6.54a7.88 7.88 0 0 0-7.27-8.77c-3.13-.07-6.1 1.8-9.22 1.51a28.48 28.48 0 0 1-4.81-1.35c-6.33-1.74-13.21 1.64-17.38 6.71-4.17 5.07-6.16 11.56-7.83 17.91s-3.14 12.89-6.58 18.51a8.56 8.56 0 0 1-2.33 2.74 18.23 18.23 0 0 0-2.31 1.44 5.85 5.85 0 0 0-1.49 2.81 24.83 24.83 0 0 0 9.76 26.77c2.34 1.56 5.27 3.17 5.55 6a4.86 4.86 0 0 0 .28 1.87 3 3 0 0 0 1.91 1.21 42.89 42.89 0 0 0 18.57 1.37c4.89.94 8.7 5.4 13.66 5.74 3.95.28 7.58-2.15 10.41-4.91a38.5 38.5 0 0 0 11.08-21.33l-.34-1.63a27.92 27.92 0 0 1-16.52 5.37z" class="cls-14" style="fill:#e5b38b"/><circle id="circle710" cx="184.217" cy="178.629" r="28.07" style="fill:#034757;fill-opacity:1;stroke:#034757;stroke-width:12.61px;stroke-miterlimit:10"/><rect id="rect720" width="2.62" height="8.8" x="-309.11" y="-18.148" class="cls-17" rx="1.31" style="fill:#eee4d3" transform="rotate(-135)"/><rect id="rect722" width="2.62" height="8.8" x="-4.806" y="-318.141" class="cls-14" rx="1.31" style="fill:#e5b38b" transform="rotate(135)"/><rect id="rect724" width="2.62" height="8.8" x="34.727" y="-308.329" class="cls-17" rx="1.31" style="fill:#eee4d3" transform="rotate(135)"/><rect id="rect726" width="2.62" height="8.8" x="-301.379" y="-1.51" class="cls-14" rx="1.31" style="fill:#e5b38b" transform="rotate(-135)"/><rect id="rect728" width="2.62" height="8.8" x="-25.904" y="-306.556" class="cls-17" rx="1.31" style="fill:#eee4d3" transform="rotate(135)"/><rect id="rect730" width="2.62" height="8.8" x="-320.104" y="17.221" class="cls-11" rx="1.31" style="fill:#b78254" transform="rotate(-135)"/><rect id="rect732" width="2.62" height="8.8" x="-329.317" y="-15.171" class="cls-11" rx="1.31" style="fill:#b78254" transform="rotate(-135)"/><rect id="rect734" width="2.62" height="8.8" x="-40.468" y="-321.115" class="cls-11" rx="1.31" style="fill:#b78254" transform="rotate(135)"/><rect id="rect736" width="2.62" height="8.8" x="-63.951" y="-297.627" class="cls-11" rx="1.31" style="fill:#b78254" transform="rotate(135)"/><rect id="rect738" width="2.62" height="8.8" x="-255.911" y="65.969" class="cls-14" rx="1.31" style="fill:#e5b38b" transform="rotate(-135)"/><rect id="rect740" width="2.62" height="8.8" x="-251.146" y="48.728" class="cls-17" rx="1.31" style="fill:#eee4d3" transform="rotate(-135)"/><rect id="rect742" width="2.62" height="8.8" x="-60.087" y="-270.582" class="cls-17" rx="1.31" style="fill:#eee4d3" transform="rotate(135)"/><rect id="rect744" width="2.62" height="8.8" x="-275.617" y="41.76" class="cls-14" rx="1.31" ry="1.31" style="fill:#e5b38b" transform="rotate(-135)"/><rect id="rect746" width="2.62" height="8.8" x="-307.02" y="42.187" class="cls-11" rx="1.31" style="fill:#b78254" transform="rotate(-135)"/><rect id="rect748" width="2.62" height="8.8" x="-289.795" y="33.872" class="cls-17" rx="1.31" style="fill:#eee4d3" transform="rotate(-135)"/><path id="path750" d="M244.437 118.399a47.81 47.81 0 0 1 7.41 11.64 46.09 46.09 0 0 1 3.23 10.27c.52 2.74.79 5.53 1.42 8.24.7 3.06 1.86 6 2.84 9a79.53 79.53 0 0 1-5.56 61.88 50.32 50.32 0 0 1-10.42 13.75c-4.94 4.41-11 7.4-16.9 10.33-7.27 3.59-14.59 7.2-22.4 9.39-7.32 2-14.92 2.79-22.49 3.54-9 .88-18.42 1.71-26.81-1.68a44.84 44.84 0 0 1-12.07-7.85 108.92 108.92 0 0 1-12.52-12.62c-3.37-4-6.45-8.27-9.52-12.52a168.34 168.34 0 0 1-10.21-15.26c-9.22-16.19-12.66-37-3.84-53.39 3.49-6.49 8.62-11.85 13.19-17.56 5-6.26 7.53-13.48 11.94-20 3.1-4.6 6.31-6.06 11.59-6.84 7.21-1.07 14.15-3.29 21.35-4.55 12.05-2.11 24.2-4.17 36.43-3.83 9.78.27 19.7 2.18 28.4 6.53l-28.38-13.08-31.18.52-30.39 11.41-26.9 14.67-11.38 25.23-5.46 15.69-1.48 24 .21 28.85 22.37 20.33 25.53 21.58 36.73 7.93 45.24-7 27.32-21.44 18.07-32.78-.29-30.42-3.07-28.45-17.21-27.29" class="cls-13" style="fill:#034757"/></g><g id="layer3" style="display:inline" transform="translate(-81.057 -80.47)"><ellipse id="ellipse12306" cx="184.321" cy="179.853" rx="22.537" ry="31.284" style="opacity:1;fill:#67c7e9;fill-opacity:1;stroke-width:53.8048;stroke-linejoin:round;stroke-miterlimit:4;stroke-dasharray:none"/><ellipse id="path1684" cx="184.321" cy="179.853" rx="20.461" ry="28.401" style="opacity:1;fill:#fff6e7;fill-opacity:1;stroke-width:48.8466;stroke-linejoin:round;stroke-miterlimit:4;stroke-dasharray:none"/><ellipse id="path2936" cx="194.256" cy="178.604" rx="5.007" ry="3.831" style="opacity:1;fill:#034757;fill-opacity:1;stroke-width:25.5;stroke-linejoin:round;paint-order:stroke fill markers"/><ellipse id="ellipse3018" cx="175.463" cy="178.563" rx="5.007" ry="3.831" style="opacity:1;fill:#034757;fill-opacity:1;stroke-width:25.5;stroke-linejoin:round;paint-order:stroke fill markers"/><ellipse id="path3060" cx="184.682" cy="170.614" rx="1.267" ry="1.258" style="opacity:1;fill:#034757;fill-opacity:1;stroke-width:38.25;stroke-linejoin:round;paint-order:stroke fill markers"/><ellipse id="path3060-6" cx="188.563" cy="166.449" rx="1.267" ry="1.258" style="fill:#034757;fill-opacity:1;stroke-width:38.25;stroke-linejoin:round;paint-order:stroke fill markers"/><ellipse id="path3060-6-5" cx="180.892" cy="166.448" rx="1.267" ry="1.258" style="fill:#034757;fill-opacity:1;stroke-width:38.25;stroke-linejoin:round;paint-order:stroke fill markers"/><ellipse id="path3060-6-4" cx="190.054" cy="192.546" rx="1.293" ry="1.285" style="fill:#034757;fill-opacity:1;stroke-width:49.3143;stroke-linejoin:round;stroke-miterlimit:4;stroke-dasharray:none;paint-order:stroke fill markers"/><ellipse id="path3060-6-2" cx="179.269" cy="192.546" rx="1.293" ry="1.285" style="fill:#034757;fill-opacity:1;stroke-width:49.3143;stroke-linejoin:round;stroke-miterlimit:4;stroke-dasharray:none;paint-order:stroke fill markers"/><ellipse id="path3060-6-6" cx="184.654" cy="194.504" rx="1.293" ry="1.285" style="fill:#034757;fill-opacity:1;stroke-width:49.3143;stroke-linejoin:round;stroke-miterlimit:4;stroke-dasharray:none;paint-order:stroke fill markers"/><ellipse id="path3060-6-3" cx="190.054" cy="197.763" rx="1.293" ry="1.285" style="fill:#034757;fill-opacity:1;stroke-width:49.3143;stroke-linejoin:round;stroke-miterlimit:4;stroke-dasharray:none;paint-order:stroke fill markers"/><ellipse id="path3060-6-9" cx="190.054" cy="203.199" rx="1.293" ry="1.285" style="fill:#034757;fill-opacity:1;stroke-width:49.3143;stroke-linejoin:round;stroke-miterlimit:4;stroke-dasharray:none;paint-order:stroke fill markers"/><ellipse id="path3060-6-93" cx="184.654" cy="201.121" rx="1.293" ry="1.285" style="fill:#034757;fill-opacity:1;stroke-width:49.3143;stroke-linejoin:round;stroke-miterlimit:4;stroke-dasharray:none;paint-order:stroke fill markers"/><ellipse id="path3060-6-66" cx="179.269" cy="197.763" rx="1.293" ry="1.285" style="fill:#034757;fill-opacity:1;stroke-width:49.3143;stroke-linejoin:round;stroke-miterlimit:4;stroke-dasharray:none;paint-order:stroke fill markers"/><ellipse id="path3060-6-0" cx="179.269" cy="203.199" rx="1.293" ry="1.285" style="fill:#034757;fill-opacity:1;stroke-width:49.3143;stroke-linejoin:round;stroke-miterlimit:4;stroke-dasharray:none;paint-order:stroke fill markers"/><path id="path13296" d="m180.562 190.235 8.298.052s-2.541-2.937-4.2-3.067c0 0-2.957 1.56-4.098 3.015z" style="display:inline;fill:#c3c5c4;fill-opacity:1;stroke:#c0c2c1;stroke-width:.999999px;stroke-linecap:round;stroke-linejoin:round;stroke-opacity:1"/><path id="path13294" d="M184.66 187.22s-3.242 1.56-4.098 3.015c0 0 .83-5.51 4.175-8.186 0 0 3.656 3.378 4.123 8.238 0 0-1.141-1.897-4.2-3.067z" style="display:inline;fill:#d8dad9;fill-opacity:1;stroke:#d8dad9;stroke-width:.999999px;stroke-linecap:round;stroke-linejoin:round;stroke-opacity:1"/></g></svg>