<svg xmlns="http://www.w3.org/2000/svg" id="Layer_1" width="211.942" height="251.7" data-name="Layer 1" version="1.1"><defs id="defs4"><style id="style2">.cls-4{fill:#c11616}</style></defs><path id="path62" d="M177.67 50.84 86.49 37.43 24.66 236.65l159 12.46 12.83-58.53-8.06-41 22.38-24.23s10.61-58.49-33.14-74.51z" style="fill:#020202"/><path id="polyline278" d="m609.26 585.34 158.91 13.46-183.66 2.59 86.45-214.27" style="fill:#2966ef" transform="translate(-584.51 -349.69)"/><path id="path280" d="M173.24 190.57c-2.88-17-5.77-34.71-8.61-52.65l-.19-1.18 1.45-.67c9.12-4.19 20.61-14.19 23-28.54a36.7 36.7 0 0 0-7.72-28.7c-7.27-9.14-18.83-15.2-32.55-17.06h-.27c-2.32-.45-42-5.69-42.22-4.35l-29.09 133.2 4.46.1c11.13.24 16.56.39 27.62.75l3.5.11 11.48-52.27 6.25.61.2 1.79c1.79 16.26 3.68 32.47 5.6 48.2l.32 2.62 3.3.15c11.76.53 17.5.82 29.24 1.48l4.88.27zm-25.85-75.38c-2.15 1.58-4.69 2.14-13.3 1.08l-4.81-.59 5.56-25.37-11.68-7.78 13.08 1.42 4.58.79c7.94 1.36 10.15 2.56 11.63 4.43 1.78 2.25 2.94 7.39 1.53 13.8-1.15 5.27-3.8 10.17-6.59 12.22z" style="fill:#fff;stroke:#c11616;stroke-width:3.95px;stroke-miterlimit:10"/><path id="polygon282" d="m758.53 560-5.08 17.67-121.32-9.25 17.86-54.46-8.22 41.7z" class="cls-4" style="fill:#c11616" transform="translate(-584.51 -349.69)"/><path id="polyline284" d="m704.8 562.62 4.8-31.4 3.69 33.36" class="cls-4" style="fill:#c11616" transform="translate(-584.51 -349.69)"/><path id="polygon286" d="m728 482.5 16 49.5-7.5-52z" transform="translate(-584.51 -349.69)"/><path id="polygon292" d="m676.74 401.23 38.99-2.47-12.07-4.84 16.89-.29-43.82-13.84 26.88-6.74-76.17-23.36 34.82 21.99-19.8 5.1z" transform="translate(-584.51 -349.69)"/><path id="polyline294" d="M676.73 379.79 767 402.33 693 399" transform="translate(-584.51 -349.69)"/></svg>