<svg xmlns="http://www.w3.org/2000/svg" xmlns:xlink="http://www.w3.org/1999/xlink" id="Layer_1" width="249.63" height="299.55" data-name="Layer 1"><defs id="defs64"><linearGradient id="linear-gradient" x1="423.58" x2="474.58" y1="1285.42" y2="1285.42" gradientUnits="userSpaceOnUse"><stop id="stop4" offset="0" stop-color="#432366"/><stop id="stop6" offset="1" stop-color="#432366" stop-opacity="0"/></linearGradient><linearGradient xlink:href="#linear-gradient" id="linear-gradient-2" x1="279.2" x2="279.2" y1="558.85" y2="450.81"/><linearGradient id="linear-gradient-3" x1="342.18" x2="358.64" y1="400.48" y2="400.48" gradientUnits="userSpaceOnUse"><stop id="stop10" offset="0" stop-color="#f8e4cd" stop-opacity="0"/><stop id="stop12" offset="1" stop-color="#f8e4cd"/></linearGradient><linearGradient id="linear-gradient-5" x1="740.3" x2="740.3" y1="644.34" y2="585.22" gradientTransform="rotate(-90 127.635 487.98)" gradientUnits="userSpaceOnUse"><stop id="stop15" offset="0" stop-color="#432366"/><stop id="stop17" offset=".18" stop-color="#432366" stop-opacity=".88"/><stop id="stop19" offset=".52" stop-color="#432366" stop-opacity=".56"/><stop id="stop21" offset=".96" stop-color="#432366" stop-opacity=".05"/><stop id="stop23" offset="1" stop-color="#432366" stop-opacity="0"/></linearGradient><linearGradient id="linear-gradient-6" x1="794.51" x2="849.47" y1="491.29" y2="491.29" gradientUnits="userSpaceOnUse"><stop id="stop26" offset="0" stop-color="#dcbba4" stop-opacity="0"/><stop id="stop28" offset=".02" stop-color="#dcbba4" stop-opacity=".04"/><stop id="stop30" offset=".17" stop-color="#debda5" stop-opacity=".29"/><stop id="stop32" offset=".32" stop-color="#dfbfa5" stop-opacity=".51"/><stop id="stop34" offset=".46" stop-color="#e0c0a5" stop-opacity=".69"/><stop id="stop36" offset=".6" stop-color="#e1c1a6" stop-opacity=".82"/><stop id="stop38" offset=".74" stop-color="#e2c1a6" stop-opacity=".92"/><stop id="stop40" offset=".87" stop-color="#e2c2a6" stop-opacity=".98"/><stop id="stop42" offset=".99" stop-color="#e2c2a6"/></linearGradient><linearGradient id="linear-gradient-7" x1="631.63" x2="686.59" y1="491.29" y2="491.29" gradientUnits="userSpaceOnUse"><stop id="stop45" offset=".01" stop-color="#e2c2a6"/><stop id="stop47" offset=".13" stop-color="#e2c2a6" stop-opacity=".98"/><stop id="stop49" offset=".26" stop-color="#e2c1a6" stop-opacity=".92"/><stop id="stop51" offset=".4" stop-color="#e1c1a6" stop-opacity=".82"/><stop id="stop53" offset=".54" stop-color="#e0c0a5" stop-opacity=".69"/><stop id="stop55" offset=".68" stop-color="#dfbfa5" stop-opacity=".51"/><stop id="stop57" offset=".83" stop-color="#debda5" stop-opacity=".29"/><stop id="stop59" offset=".98" stop-color="#dcbba4" stop-opacity=".04"/><stop id="stop61" offset="1" stop-color="#dcbba4" stop-opacity="0"/></linearGradient><style id="style2">.cls-2{fill:#f8e4cd}.cls-8{fill:#e2c2a6}</style></defs><circle id="circle276" cx="124.815" cy="124.815" r="117.17" style="fill:#f8e4cd;stroke:#231f20;stroke-width:15.28999996px;stroke-linecap:round;stroke-linejoin:round"/><ellipse id="ellipse278" cx="32.772" cy="172.442" class="cls-8" rx="25.03" ry="21.69" style="fill:#e2c2a6" transform="rotate(-10.23)"/><ellipse id="ellipse280" cx="98.354" cy="210.636" class="cls-8" rx="31.1" ry="22.57" style="fill:#e2c2a6" transform="rotate(-10.23)"/><ellipse id="ellipse282" cx="163.271" cy="195.216" class="cls-8" rx="15.89" ry="13.62" style="fill:#e2c2a6" transform="rotate(-10.23)"/><g id="_8lvMbs-3" data-name="8lvMbs" transform="translate(-615.615 -360.345)"><path id="path290" d="M832.51 449.44a1.8 1.8 0 0 1-.74-.26 12.85 12.85 0 0 0-7.91-.63 10.1 10.1 0 0 0-6.16 4.38 12.76 12.76 0 0 0-2 6.22c0 .14.06.34-.1.38s-.18-.17-.26-.27a11.2 11.2 0 0 0-5.92-4.16 14.36 14.36 0 0 0-8.29-.19 10.1 10.1 0 0 0-5.17 3.14 8.33 8.33 0 0 0-2 4.9v.61c-.13 0-.15-.07-.18-.12a8.27 8.27 0 0 0-3.44-3 12.2 12.2 0 0 0-5.75-1.37 8.53 8.53 0 0 0-4.33 1.06 5.61 5.61 0 0 0-2.82 4.37 7.6 7.6 0 0 0-.06 1.43c0 .1.06.23 0 .28s-.19-.08-.27-.16a7 7 0 0 1-.86-1.22 3.75 3.75 0 0 0-1.69-1.56 6.8 6.8 0 0 0-1.89-.53 13 13 0 0 0-3.36 0 1.65 1.65 0 0 0-1 .63c-.48.52-.92 1.09-1.4 1.61a1.94 1.94 0 0 1-3.19-.37 11 11 0 0 1-.71-1.9l-.08-.26a2.41 2.41 0 0 0-1.89-1.78 9 9 0 0 0-6.2.71l-.2.11a.15.15 0 0 1-.13 0c-.06 0 0-.09 0-.14s.16-.4.23-.59a5.85 5.85 0 0 0-1.92-6.89 11.55 11.55 0 0 0-9.88-2.23 6.65 6.65 0 0 0-2.48 1.09l-.18.1h-.09c.1-.56.27-1.1.35-1.66a9.71 9.71 0 0 0-3.36-9.07 13.25 13.25 0 0 0-9.5-3.29 14.3 14.3 0 0 0-4.09 1.05l-1.27.41c-.12 0-.28.13-.38 0s0-.25 0-.37a12.8 12.8 0 0 0 .66-4.87 10.45 10.45 0 0 0-4-7.74 12.6 12.6 0 0 0-8-2.65h-.39c-.06 0 .19-.23.3-.33a26.3 26.3 0 0 1 5.17-3.09c2.56-1.21 5.08-2.48 7.71-3.53a17.47 17.47 0 0 1 11.13-.61 19.5 19.5 0 0 1 5.39 2.17 19.9 19.9 0 0 1 4.56 4 61 61 0 0 1 4.36 6 49.6 49.6 0 0 0 7.63 9.15 39 39 0 0 0 3.82 3.06c.86.61 1.76 1.14 2.64 1.69l.36.19c.17.09.22 0 .27-.15a4 4 0 0 0-.07-2 16 16 0 0 1-.41-2.05 5 5 0 0 1 .14-1.89c.1-.4.15-.42.46-.16a12.3 12.3 0 0 0 1.89 1.31l.85.46a.43.43 0 0 0 .41 0 5.85 5.85 0 0 1 5.34.15 4.7 4.7 0 0 1 1.34 1 .87.87 0 0 0 .8.29 19 19 0 0 0 3-.46c.33-.08.36-.06.25.27a6 6 0 0 1-.64 1.46c-.48.77-1 1.54-1.45 2.28-.34.49-.24 1.05-.36 1.58 0 .19.17.15.29.17a13.6 13.6 0 0 0 3.66-.11 27.3 27.3 0 0 0 9-3.22c2.65-1.48 5.16-3.19 7.74-4.79a34.7 34.7 0 0 1 8.43-4.12 18.84 18.84 0 0 1 12.44.43 22.6 22.6 0 0 1 8.08 5.69 59 59 0 0 1 5.45 6.83l2.09 2.93c.16 0 .25.06.23.2"/></g><g id="_8lvMbs-4" data-name="8lvMbs" transform="translate(-615.615 -360.345)"><path id="path293" d="M790.27 492a1.5 1.5 0 0 1-.59-.08 9.8 9.8 0 0 0-6 .72 7.7 7.7 0 0 0-3.93 4.2 9.67 9.67 0 0 0-.54 4.94c0 .1.1.24 0 .3s-.16-.1-.23-.17a8.5 8.5 0 0 0-5.05-2.21 10.87 10.87 0 0 0-6.21 1.11 7.56 7.56 0 0 0-3.38 3.12 6.32 6.32 0 0 0-.73 3.95l.06.46c-.09 0-.12 0-.15-.06a6.36 6.36 0 0 0-3-1.71 9.5 9.5 0 0 0-4.5-.15 6.43 6.43 0 0 0-3.07 1.45 4.25 4.25 0 0 0-1.45 3.68 7 7 0 0 0 .17 1.08c0 .07.08.16 0 .21s-.16 0-.23-.07a5.2 5.2 0 0 1-.83-.79 2.86 2.86 0 0 0-1.49-.91 5.7 5.7 0 0 0-1.49-.11 10.3 10.3 0 0 0-2.51.51 1.23 1.23 0 0 0-.65.62c-.28.46-.51.95-.8 1.41a1.48 1.48 0 0 1-2.43.2 8.5 8.5 0 0 1-.82-1.31 2 2 0 0 0-.1-.18 1.85 1.85 0 0 0-1.68-1.05 6.84 6.84 0 0 0-4.51 1.47l-.14.11h-.09c-.02 0 0-.07 0-.11s0-.31.08-.47a4.45 4.45 0 0 0-2.47-4.85 8.77 8.77 0 0 0-7.71-.18 5 5 0 0 0-1.69 1.2l-.11.1h-.07v-1.29a7.41 7.41 0 0 0-3.88-6.27 10.08 10.08 0 0 0-7.58-1 11.3 11.3 0 0 0-2.9 1.4c-.29.17-.58.34-.88.5-.09.05-.19.14-.28.08s0-.18 0-.28a10.2 10.2 0 0 0-.24-3.73 7.93 7.93 0 0 0-4.15-5.17 9.6 9.6 0 0 0-6.33-.78h-.25c0-.14.11-.21.18-.29a20 20 0 0 1 3.39-3.09c1.73-1.29 3.42-2.62 5.22-3.8a13.4 13.4 0 0 1 8.21-2.13 14.6 14.6 0 0 1 4.35.81 15.3 15.3 0 0 1 4 2.27 48 48 0 0 1 4.15 3.81 38 38 0 0 0 7.08 5.68 29 29 0 0 0 3.31 1.7c.73.32 1.48.59 2.22.87l.3.08c.14 0 .16 0 .17-.15a3 3 0 0 0-.35-1.52 11 11 0 0 1-.62-1.47 3.9 3.9 0 0 1-.18-1.43c0-.31 0-.34.32-.19a9.6 9.6 0 0 0 1.61.7c.23.08.47.13.7.21a.31.31 0 0 0 .31-.08 4.47 4.47 0 0 1 4-.69 3.6 3.6 0 0 1 1.16.57.67.67 0 0 0 .64.1 16.5 16.5 0 0 0 2.16-.8c.23-.11.26-.1.23.16a4.8 4.8 0 0 1-.26 1.19c-.24.64-.47 1.29-.74 1.92a3 3 0 0 0 0 1.23c0 .15.15.09.24.08a10.2 10.2 0 0 0 2.72-.63 20.9 20.9 0 0 0 6.26-3.76c1.75-1.51 3.37-3.16 5-4.75a26.6 26.6 0 0 1 5.67-4.34 14.4 14.4 0 0 1 9.35-1.56 17.35 17.35 0 0 1 6.89 3 46 46 0 0 1 5.09 4.27l2 1.88c-.03.14.04.17.05.26"/></g><rect id="rect296" width="175.1" height="79.86" x="37.135" y="214.505" rx="34.67" style="fill:#231f20;stroke:#231f20;stroke-width:10.36999989px;stroke-miterlimit:10"/><rect id="rect298" width="59.12" height="154.36" x="224.875" y="-201.865" rx="24.67" style="fill:url(#linear-gradient-5)" transform="rotate(90)"/><path id="path300" d="M117.225 266.835a2.34 2.34 0 0 1 .38 2.17 4 4 0 0 1-1.58 1.83 13.3 13.3 0 0 1-3 1.45 36 36 0 0 1-3.64 1.07 37 37 0 0 1-3.9.69 29 29 0 0 1-3.49.24 23 23 0 0 0-2.79-1c-.85-.23-1.68-.41-2.48-.55s-1.62-.29-2.42-.45a21 21 0 0 1-2.45-.65 30.4 30.4 0 0 1-5.17-6.18 17.9 17.9 0 0 1-2.49-6.52 31.6 31.6 0 0 1-.17-5.8 38.5 38.5 0 0 1 .83-6.07 34.7 34.7 0 0 1 1.83-5.93 32.3 32.3 0 0 1 2.82-5.45 13.6 13.6 0 0 1 3-3.14 28 28 0 0 1 4.45-2.9 26 26 0 0 1 4.9-2 10.6 10.6 0 0 1 4.41-.45 16 16 0 0 0 2.69.07 22 22 0 0 1 3.56.14 9.8 9.8 0 0 1 3.07.82 2.15 2.15 0 0 1 1.31 2.07 2 2 0 0 1-.73 1.49 1.8 1.8 0 0 0-.72 1.27c0 .1.08.13.24.11a1.7 1.7 0 0 1 .45 0 .45.45 0 0 1 .31.17c.07.09 0 .3-.1.62s-.19.44-.28.62a6 6 0 0 1-.31.55 5 5 0 0 0-.31.56 15 15 0 0 1-1 1.55q-.59.79-1.14 1.41l-1.31 1.45a.93.93 0 0 1-1.21.38 4.3 4.3 0 0 1-1.41-1.21q-.76-.89-1.62-2.1a17 17 0 0 0-1.9-2.21 9.1 9.1 0 0 0-2.21-1.58 3.66 3.66 0 0 0-2.48-.32 3.34 3.34 0 0 0-2.66 1.25 11.6 11.6 0 0 0-2.07 3.24 20 20 0 0 0-1.31 4 17 17 0 0 0-.45 3.52 29.6 29.6 0 0 0 .79 6.73 23.3 23.3 0 0 0 2.45 6.31 18.4 18.4 0 0 0 4.18 5 12.45 12.45 0 0 0 5.9 2.73c.36.09.78-.09 1.24-.55s.91-.92 1.34-1.38a11 11 0 0 1 1.14-1.07c.32-.25.53-.15.62.31 1 .55 1.59 1.15 1.73 1.79a.41.41 0 0 1 0 .35 2 2 0 0 1-.27.41 1.3 1.3 0 0 0-.24.38c0 .12 0 .17.07.17a1.34 1.34 0 0 0 .79-.1l.86-.34a2.5 2.5 0 0 1 .8-.21.62.62 0 0 1 .58.24z" class="cls-2" style="fill:#f8e4cd"/><path id="path302" d="M169.115 266.835a2.37 2.37 0 0 1 .38 2.17 4.1 4.1 0 0 1-1.59 1.83 13 13 0 0 1-3 1.45 35 35 0 0 1-3.69 1.07 37 37 0 0 1-3.9.69 29 29 0 0 1-3.48.24 23 23 0 0 0-2.8-1c-.85-.23-1.68-.41-2.48-.55s-1.61-.29-2.42-.45a22 22 0 0 1-2.45-.65 30.7 30.7 0 0 1-5.17-6.18 17.7 17.7 0 0 1-2.48-6.52 31.6 31.6 0 0 1-.18-5.8 40 40 0 0 1 .83-6.07 36.6 36.6 0 0 1 1.83-5.93 31.6 31.6 0 0 1 2.83-5.45 13.3 13.3 0 0 1 3-3.14 28.6 28.6 0 0 1 4.45-2.9 26 26 0 0 1 4.9-2 10.7 10.7 0 0 1 4.42-.45 16 16 0 0 0 2.69.07 22 22 0 0 1 3.55.14 9.7 9.7 0 0 1 3.07.82 2.15 2.15 0 0 1 1.31 2.07 2 2 0 0 1-.72 1.49 1.83 1.83 0 0 0-.73 1.27c0 .1.08.13.25.11a1.6 1.6 0 0 1 .44 0 .43.43 0 0 1 .31.17c.07.09 0 .3-.1.62a5 5 0 0 1-.28.62 4 4 0 0 1-.31.55l-.31.56a13 13 0 0 1-1 1.55q-.58.79-1.14 1.41l-1.31 1.45a.92.92 0 0 1-1.2.38 4.5 4.5 0 0 1-1.42-1.21q-.76-.89-1.62-2.1a17 17 0 0 0-1.9-2.21 8.9 8.9 0 0 0-2.21-1.58 3.66 3.66 0 0 0-2.48-.32 3.35 3.35 0 0 0-2.66 1.25 12 12 0 0 0-2.07 3.24 20.8 20.8 0 0 0-1.31 4 17 17 0 0 0-.45 3.52 29.7 29.7 0 0 0 .8 6.73 23 23 0 0 0 2.45 6.31 18.2 18.2 0 0 0 4.17 5 12.5 12.5 0 0 0 5.9 2.73c.37.09.78-.09 1.24-.55q.69-.69 1.35-1.38a10.4 10.4 0 0 1 1.14-1.07c.32-.25.53-.15.62.31 1 .55 1.59 1.15 1.72 1.79a.37.37 0 0 1 0 .35 2 2 0 0 1-.28.41 2 2 0 0 0-.24.38c0 .12 0 .17.07.17a1.34 1.34 0 0 0 .79-.1l.87-.34a2.5 2.5 0 0 1 .79-.21.64.64 0 0 1 .59.24z" class="cls-2" style="fill:#f8e4cd"/><path id="line304" d="M178.895 130.945h54.96" style="fill:none;stroke:url(#linear-gradient-6);stroke-width:10.36999989px;stroke-miterlimit:10"/></svg>