<svg xmlns="http://www.w3.org/2000/svg" id="Layer_1" width="249.8" height="176.176" data-name="Layer 1" version="1.1"><defs id="defs4"><style id="style2">.cls-10,.cls-7{stroke-linecap:round;stroke-linejoin:round}.cls-10{fill:none}.cls-7{stroke:#f65d32;stroke-width:4.41px}.cls-10{stroke:#00aedc;stroke-width:4.44px}</style></defs><rect id="rect174" width="180.35" height="176.176" x="0" y="0" rx="22.05" style="stroke-width:.96504402"/><circle id="circle176" cx="162.05" cy="88.19" r="87.75"/><circle id="path1771" cx="161.633" cy="87.582" r="68.677" style="fill:#1a1a1a;stroke:#00aedc;stroke-width:4.0999999;stroke-linecap:round;stroke-linejoin:round;stroke-miterlimit:4;stroke-dasharray:none;stroke-opacity:1;paint-order:stroke fill markers"/><path id="line236" d="M99.987 152.76H16.858" class="cls-7" style="stroke:#f65d32;stroke-width:4.40999985;stroke-linecap:round;stroke-linejoin:round;stroke-miterlimit:4;stroke-dasharray:none"/><path id="line242" d="M78.403 131.34H16.858" class="cls-7" style="stroke:#f65d32;stroke-width:4.40999985;stroke-linecap:round;stroke-linejoin:round;stroke-miterlimit:4;stroke-dasharray:none"/><path id="line244" d="M67.605 109.92H16.858" class="cls-7" style="stroke:#f65d32;stroke-width:4.40999985;stroke-linecap:round;stroke-linejoin:round;stroke-miterlimit:4;stroke-dasharray:none"/><path id="line246" d="M62.535 88.51H19.658" class="cls-7" style="stroke:#f65d32;stroke-width:4.40999985;stroke-linecap:round;stroke-linejoin:round;stroke-miterlimit:4;stroke-dasharray:none"/><path id="line248" d="M67.605 67.09H16.858" class="cls-7" style="stroke:#f65d32;stroke-width:4.40999985;stroke-linecap:round;stroke-linejoin:round;stroke-miterlimit:4;stroke-dasharray:none"/><path id="line250" d="M78.403 45.67H16.858" class="cls-7" style="stroke:#f65d32;stroke-width:4.40999985;stroke-linecap:round;stroke-linejoin:round;stroke-miterlimit:4;stroke-dasharray:none"/><path id="path274" d="M173.322 71.405h-26.66l-1.76-13.27h34.39l1 7.73 1.84 11 4.41 30v4.27a5.72 5.72 0 0 1-2 3c-3.12 2.4-8.25 1-11.45-3.19-3.2-4.19-3.26-9.48-.14-11.88a6.12 6.12 0 0 1 5-1" class="cls-10" style="fill:none;stroke:#00aedc;stroke-width:4.44000006px;stroke-linecap:round;stroke-linejoin:round"/><path id="path276" d="m148.212 78.685 4.4 30v4.18a5.84 5.84 0 0 1-2 3c-3.13 2.4-8.25 1-11.45-3.2-3.2-4.2-3.25-9.53-.15-11.9a6.15 6.15 0 0 1 5-1" class="cls-10" style="fill:none;stroke:#00aedc;stroke-width:4.44000006px;stroke-linecap:round;stroke-linejoin:round"/><circle id="circle5876" cx="161.633" cy="87.582" r="56.289" style="fill:none;stroke:#f2d425;stroke-width:2.4000001;stroke-linecap:round;stroke-linejoin:round;stroke-miterlimit:4;stroke-dasharray:none;stroke-opacity:1;paint-order:stroke fill markers"/><path id="path3191" d="M98.333 24.466H16.858" class="cls-7" style="stroke:#f65d32;stroke-width:4.40999985;stroke-linecap:round;stroke-linejoin:round;stroke-miterlimit:4;stroke-dasharray:none"/></svg>