<svg xmlns="http://www.w3.org/2000/svg" id="Layer_1" data-name="Layer 1" version="1.1" width="249.8" height="176.176"><defs id="defs4"><style id="style2">.cls-10,.cls-7{stroke-linecap:round;stroke-linejoin:round}.cls-10{fill:none}.cls-7{stroke:#f65d32;stroke-width:4.41px}.cls-10{stroke:#00aedc;stroke-width:4.44px}</style></defs><rect x="0" y="0" width="180.35" height="176.176" rx="22.05" id="rect174" style="stroke-width:.96504402"/><circle cx="162.05" cy="88.19" r="87.75" id="circle176"/><circle style="fill:#1a1a1a;stroke:#00aedc;stroke-width:4.0999999;stroke-linecap:round;stroke-linejoin:round;stroke-miterlimit:4;stroke-dasharray:none;stroke-opacity:1;paint-order:stroke fill markers" id="path1771" cx="161.633" cy="87.582" r="68.677"/><path class="cls-7" id="line236" style="stroke:#f65d32;stroke-width:4.40999985;stroke-linecap:round;stroke-linejoin:round;stroke-miterlimit:4;stroke-dasharray:none" d="M99.987 152.76H16.858"/><path class="cls-7" id="line242" style="stroke:#f65d32;stroke-width:4.40999985;stroke-linecap:round;stroke-linejoin:round;stroke-miterlimit:4;stroke-dasharray:none" d="M78.403 131.34H16.858"/><path class="cls-7" id="line244" style="stroke:#f65d32;stroke-width:4.40999985;stroke-linecap:round;stroke-linejoin:round;stroke-miterlimit:4;stroke-dasharray:none" d="M67.605 109.92H16.858"/><path class="cls-7" id="line246" style="stroke:#f65d32;stroke-width:4.40999985;stroke-linecap:round;stroke-linejoin:round;stroke-miterlimit:4;stroke-dasharray:none" d="M62.535 88.51H19.658"/><path class="cls-7" id="line248" style="stroke:#f65d32;stroke-width:4.40999985;stroke-linecap:round;stroke-linejoin:round;stroke-miterlimit:4;stroke-dasharray:none" d="M67.605 67.09H16.858"/><path class="cls-7" id="line250" style="stroke:#f65d32;stroke-width:4.40999985;stroke-linecap:round;stroke-linejoin:round;stroke-miterlimit:4;stroke-dasharray:none" d="M78.403 45.67H16.858"/><path class="cls-10" d="M173.322 71.405h-26.66l-1.76-13.27h34.39l1 7.73 1.84 11 4.41 30v4.27a5.72 5.72 0 0 1-2 3c-3.12 2.4-8.25 1-11.45-3.19-3.2-4.19-3.26-9.48-.14-11.88a6.12 6.12 0 0 1 5-1" id="path274" style="fill:none;stroke:#00aedc;stroke-width:4.44000006px;stroke-linecap:round;stroke-linejoin:round"/><path class="cls-10" d="m148.212 78.685 4.4 30v4.18a5.84 5.84 0 0 1-2 3c-3.13 2.4-8.25 1-11.45-3.2-3.2-4.2-3.25-9.53-.15-11.9a6.15 6.15 0 0 1 5-1" id="path276" style="fill:none;stroke:#00aedc;stroke-width:4.44000006px;stroke-linecap:round;stroke-linejoin:round"/><circle style="fill:none;stroke:#f2d425;stroke-width:2.4000001;stroke-linecap:round;stroke-linejoin:round;stroke-miterlimit:4;stroke-dasharray:none;stroke-opacity:1;paint-order:stroke fill markers" id="circle5876" cx="161.633" cy="87.582" r="56.289"/><path class="cls-7" id="path3191" style="stroke:#f65d32;stroke-width:4.40999985;stroke-linecap:round;stroke-linejoin:round;stroke-miterlimit:4;stroke-dasharray:none" d="M98.333 24.466H16.858"/></svg>