<svg xmlns="http://www.w3.org/2000/svg" xmlns:xlink="http://www.w3.org/1999/xlink" id="Layer_1" width="300.49" height="357.96" data-name="Layer 1" version="1.1"><defs id="defs13"><linearGradient id="linear-gradient" x1="723.26" x2="723.26" y1="499.55" y2="457.25" gradientUnits="userSpaceOnUse"><stop id="stop4" offset="0" stop-color="#ff8500"/><stop id="stop6" offset="1" stop-color="#ff8500" stop-opacity="0"/></linearGradient><linearGradient xlink:href="#linear-gradient" id="linear-gradient-2" x1="761.06" x2="761.06" y1="499.55" y2="457.25"/><linearGradient xlink:href="#linear-gradient" id="linear-gradient-3" x1="730.82" x2="730.82" y1="443.6" y2="423.98"/><linearGradient xlink:href="#linear-gradient" id="linear-gradient-4" x1="753.5" x2="753.5" y1="443.6" y2="423.98"/><linearGradient xlink:href="#linear-gradient" id="linear-gradient-5" x1="744.25" x2="744.25" y1="395.16" y2="354.24"/><clipPath id="clipPath13289" clipPathUnits="userSpaceOnUse"><path id="path13291" d="M203.923 211.459a.174.167 0 0 1-.174.167.174.167 0 0 1-.175-.167.174.167 0 0 1 .175-.167.174.167 0 0 1 .174.167z" style="fill:#000;stroke:#999;stroke-width:2.9;stroke-linejoin:round"/></clipPath><clipPath id="clipPath13615" clipPathUnits="userSpaceOnUse"><path id="lpe_path-effect13619" d="M197.129 205.004h13.344v13.344h-13.344zm7.715 6.672a1.043 1.043 0 0 0-1.043-1.043 1.043 1.043 0 0 0-1.043 1.043 1.043 1.043 0 0 0 1.043 1.043 1.043 1.043 0 0 0 1.043-1.043z" class="powerclip" style="fill:#fff;fill-opacity:1;stroke:none;stroke-width:2.9;stroke-linejoin:round;stroke-miterlimit:4;stroke-dasharray:none;stroke-opacity:1"/></clipPath><clipPath id="clipPath14433" clipPathUnits="userSpaceOnUse"><path id="lpe_path-effect14437" d="M195.662 206.064h16.309v13.237h-16.309zm9.338 5.254a1.204 1.204 0 0 0-1.204-1.205 1.204 1.204 0 0 0-1.204 1.205 1.204 1.204 0 0 0 1.204 1.204 1.204 1.204 0 0 0 1.204-1.204z" class="powerclip" style="fill:#fff;fill-opacity:1;stroke:none;stroke-width:3.75189;stroke-linejoin:round;stroke-miterlimit:4;stroke-dasharray:none;stroke-opacity:1"/></clipPath><style id="style2">.cls-20{fill:#2074bb}.cls-18,.cls-20{stroke:#ff8500}.cls-18,.cls-3{fill:#ff8500}.cls-18,.cls-20{stroke-miterlimit:10}.cls-25{fill:#125e91}.cls-7{fill:#0b4f75}.cls-8{fill:#073e51}.cls-18{stroke-width:17px}.cls-20{stroke-width:6.37px}.cls-21{fill:#ddad92}.cls-22{fill:#fff}.cls-23{fill:#edc4a9}.cls-27{fill:#c69379}.cls-29{fill:#827a87}</style></defs><circle id="circle205" cx="45.965" cy="288.545" r="29.37" class="cls-18" style="fill:#ff8500;stroke:#ff8500;stroke-width:17px;stroke-miterlimit:10"/><circle id="circle207" cx="254.765" cy="286.635" r="29.37" class="cls-18" style="fill:#ff8500;stroke:#ff8500;stroke-width:17px;stroke-miterlimit:10"/><circle id="circle209" cx="150.245" cy="207.715" r="146" style="fill:#2074bb;stroke:#ff8500;stroke-width:8.49px;stroke-miterlimit:10"/><path id="path211" d="M252.845 46.395a145.49 145.49 0 0 0-102.56-42.15c-41.37 0-77.75 17.21-104.31 44.85v257.3h206.87Z" style="fill:#125e91;stroke:#ff8500;stroke-width:8.49px;stroke-linecap:round;stroke-linejoin:round"/><path id="line213" d="M47.245 102.065v211.29" class="cls-20" style="fill:#2074bb;stroke:#ff8500;stroke-width:6.37px;stroke-miterlimit:10"/><path id="line215" d="M22.405 141.875v135.92" class="cls-20" style="fill:#2074bb;stroke:#ff8500;stroke-width:6.37px;stroke-miterlimit:10"/><path id="line217" d="M278.085 141.875v131.13" class="cls-20" style="fill:#2074bb;stroke:#ff8500;stroke-width:6.37px;stroke-miterlimit:10"/><path id="line219" d="M253.245 107.165v205.34" class="cls-20" style="fill:#2074bb;stroke:#ff8500;stroke-width:6.37px;stroke-miterlimit:10"/><path id="rect221" d="M89.065 163.395h19.16v137.92h-19.16Z" class="cls-7" style="fill:#0b4f75"/><path id="rect223" d="M117.795 163.395h19.16v137.92h-19.16z" class="cls-7" style="fill:#0b4f75"/><path id="polygon225" d="m165.685 163.395 10.22-11.49 8.94 11.49v137.93h-19.16z" class="cls-7" style="fill:#0b4f75"/><path id="rect227" d="M203.995 170.035h19.16v131.29h-19.16z" class="cls-7" style="fill:#0b4f75"/><path id="rect229" d="M66.075 225.975h26.18v75.84h-26.18z" class="cls-7" style="fill:#0b4f75"/><path id="rect231" d="M106.945 195.965h20.43v40.23h-20.43z" class="cls-7" style="fill:#0b4f75"/><path id="rect233" d="M147.805 182.555h26.82v80.46h-26.82z" class="cls-7" style="fill:#0b4f75"/><path id="rect235" d="M219.325 179.995h21.07v121.32h-21.07z" class="cls-7" style="fill:#0b4f75"/><path id="rect237" d="M97.555 211.285h114.1v90.67h-114.1Z" class="cls-7" style="fill:#0b4f75"/><path id="line239" d="M79.325 307.985v23.95" class="cls-20" style="fill:#2074bb;stroke:#ff8500;stroke-width:6.37px;stroke-miterlimit:10"/><path id="line241" d="M108.065 307.985v42.15" class="cls-20" style="fill:#2074bb;stroke:#ff8500;stroke-width:6.37px;stroke-miterlimit:10"/><path id="line243" d="M136.795 307.985v42.15" class="cls-20" style="fill:#2074bb;stroke:#ff8500;stroke-width:6.37px;stroke-miterlimit:10"/><path id="line245" d="M165.535 307.985v42.15" class="cls-20" style="fill:#2074bb;stroke:#ff8500;stroke-width:6.37px;stroke-miterlimit:10"/><path id="line247" d="M194.265 307.985v42.15" class="cls-20" style="fill:#2074bb;stroke:#ff8500;stroke-width:6.37px;stroke-miterlimit:10"/><path id="line249" d="M223.005 307.985v22.99" class="cls-20" style="fill:#2074bb;stroke:#ff8500;stroke-width:6.37px;stroke-miterlimit:10"/><ellipse id="ellipse251" cx="153.335" cy="81.615" class="cls-21" rx="42.04" ry="39.44" style="fill:#ddad92"/><path id="polygon253" d="M106.585 302.295h89.47l5.89-145.53h-101.25z" class="cls-22" style="fill:#fff"/><path id="path255" d="m99.815 153.235-49.79 20.32-25.93 93.14s-6.48 25.92 4.72 34.17 13.55 17.09 41.83 1.18h42.42z" class="cls-8" style="fill:#073e51"/><path id="path257" d="m201.855 153.235 49.79 20.32 25.93 93.14s6.48 25.92-4.72 34.17-13.55 17.09-41.83 1.18h-42.42z" class="cls-8" style="fill:#073e51"/><path id="path259" d="M99.035 122.415s.32 23.86 1.26 30.5c.94 6.64 18.67 33.53 51.25 36.55 0 0 36.06-2.11 50-35.94 0 0 2.85-22.05 2.85-30.21 0 0 11.7-12.08 13.28-16.61 1.58-4.53 2.22-15.41-12.33-18.43 0 0-4.11-21.74-18.67-23.25 0 0-14.23-19.64-33.21-18.73a45.83 45.83 0 0 0-38 19s-15.82 2.72-18.35 23.86c0 0-15.5 1.51-12 16.31 0 .03 10.44 16.95 13.92 16.95z" class="cls-23" style="fill:#edc4a9"/><path id="path261" d="M78.285 237.785s.29 25.92 12.08 39.47l6.48-4.12-.88-16.79-12.38-21.51z" class="cls-22" style="fill:#fff"/><path id="path263" d="m78.595 243.695-47.13 28.87s2.94-9.43 13.55-16.2l33.58-21.51z" class="cls-7" style="fill:#0b4f75"/><path id="path265" d="M24.095 266.695s27.11-43.31 26.22-77.78l-.29-15.32" class="cls-7" style="fill:#0b4f75"/><path id="path267" d="M205.285 88.275s-4.11-21.74-18.67-23.25a56.87 56.87 0 0 0-16.26-14.33 60.85 60.85 0 0 0-6.62-.85c-15.9-1.18-15.32 8.25-15.32 8.25l-15.9 4.13 15.32.59-2.36 10c-8 2.87-1.64 9.44-3.89 13.58-3.76 6.89-12.47 11.23-12.47 11.23l14 14.67 11.17 24.73v52.12c8.69-1.28 35.62-7.46 47.21-35.62 0 0 2.85-22.05 2.85-30.21 0 0 11.7-12.08 13.28-16.61 1.58-4.53 2.25-15.41-12.34-18.43z" class="cls-21" style="fill:#ddad92"/><path id="polygon269" d="m98.635 203.315-14.14 13.26 14.73 36.82 6.77 50.67-10.01-47.72-15.32-40.95 7.95-9.43-12.08-2.36 22.1-47.43-14.73 45.96z" class="cls-7" style="fill:#0b4f75"/><ellipse id="ellipse271" cx="151.805" cy="200.225" rx="14.88" ry="14.29" style="fill:none;stroke:#073e51;stroke-width:.59px;stroke-miterlimit:10"/><path id="polyline273" d="m146.355 210.385-14.73 91.62h39.77l-12.66-92.8" style="fill:#2074bb"/><circle id="circle275" cx="68.875" cy="292.185" r="4.52" class="cls-25" style="fill:#125e91"/><circle id="circle277" cx="79.485" cy="283.345" r="4.52" class="cls-25" style="fill:#125e91"/><path id="path279" d="M48.385 179.435c5.4-3.48 16.32-9.42 29.72-10.79 19.25-2 21.71-15.41 21.71-15.41l-49.79 20.32z" class="cls-7" style="fill:#0b4f75"/><path id="path281" d="M223.365 237.785s-.29 25.91-12.08 39.47l-6.48-4.12.88-16.79 12.38-21.51z" class="cls-22" style="fill:#fff"/><path id="path283" d="m223.075 243.695 47.13 28.87s-2.94-9.43-13.55-16.2l-33.58-21.51z" class="cls-7" style="fill:#0b4f75"/><path id="path285" d="M277.575 266.695s-27.11-43.31-26.22-77.78l.29-15.32" class="cls-7" style="fill:#0b4f75"/><path id="polygon287" d="m203.035 203.315 14.14 13.26-14.73 36.82-6.77 50.67 10.01-47.72 15.32-40.95-7.95-9.43 12.08-2.36-22.1-47.43 14.73 45.96z" class="cls-7" style="fill:#0b4f75"/><circle id="circle289" cx="232.795" cy="292.185" r="4.52" class="cls-25" style="fill:#125e91"/><circle id="circle291" cx="222.185" cy="283.345" r="4.52" class="cls-25" style="fill:#125e91"/><path id="path293" d="M223.565 168.695c13.4 1.37 24.32 7.31 29.72 10.79l-1.64-5.88-49.79-20.32s2.43 13.41 21.71 15.41z" class="cls-7" style="fill:#0b4f75"/><path id="path295" d="M101.875 102.855s10 5.3 21.8-2.36l-13 12.38 1.17 16.49z" class="cls-21" style="fill:#ddad92"/><path id="path297" d="M93.285 90.125c-4.34 1.54-10.46 5.5-8.14 15.37 0 0 6.89 11.16 11.34 15.35l2.58 1.57-2.17-31.34z" class="cls-21" style="fill:#ddad92"/><path id="path299" d="M97.455 104.915s-3.24-5.59-8.54-2.65c0 0 1.47-7.07 8.83-3.53" style="fill:#cc9b83"/><path id="path301" d="M202.035 102.855s-10 5.3-21.8-2.36l13 12.38-1.17 16.49z" class="cls-27" style="fill:#c69379"/><path id="path303" d="M148.765 104.695c-8.06 0-15.2-2.79-19.65-7.1a10.76 10.76 0 0 0-.14 1.71c0 8.13 9.23 14.73 20.62 14.73s20.63-6.6 20.63-14.73a10.67 10.67 0 0 0-.48-3.14c-4.25 5.13-12.05 8.53-20.98 8.53z" class="cls-27" style="fill:#c69379"/><path id="path305" d="M131.925 154.695a48.68 48.68 0 0 0 37.12 0s-15.91 22.4-37.12 0z" class="cls-21" style="fill:#ddad92"/><rect id="rect307" width="16.5" height="6.68" x="143.705" y="142.925" class="cls-21" rx="3.34" style="fill:#ddad92"/><path id="polyline309" d="m152.745 151.175 10.6 1.96-11.39 1.18" class="cls-23" style="fill:#edc4a9"/><path id="path311" d="M117.385 113.955s32.58 22.05 66.43 0c0 0-5.38 25.07-32.59 24.77 0 0-23.09 1.81-34.16-22z" class="cls-8" style="fill:#073e51"/><path id="path313" d="M170.415 126.815h-36.92c-4.26 0-5.75 1.85-6.22 3.54a36.09 36.09 0 0 0 23.95 8.34c10.34.11 17.52-3.44 22.46-7.88a7.64 7.64 0 0 0-3.27-4z" class="cls-22" style="fill:#fff"/><path id="path315" d="M172.285 129.205a6.73 6.73 0 0 0-1.89-1.8h-36.9a6.83 6.83 0 0 0-4.83 1.51c2 1.71 4.37 2.25 7.21 2.92 7.46 1.75 27.48 4.51 36.41-2.63z" style="fill:#e0e0e0"/><path id="path317" d="M176.575 118.025c-22.15 10.63-42.77 4.06-52.81-.61.65.3 2.1 5.84 2.78 6.79 2.48 3.43 5.44 4 9.33 4.87 9.54 2 39.62 5.56 40.83-10.11a2.41 2.41 0 0 0-.13-.94z" class="cls-22" style="fill:#fff"/><path id="path319" d="M119.765 60.205s-9.94 10-11.31 23.73l-9.32 23.49a59.68 59.68 0 0 1-2-20.75c.81-11.83 6-30.73 22.63-26.47z" class="cls-8" style="fill:#073e51"/><path id="path321" d="M184.665 60.205s9.93 10 11.31 23.73l9.31 23.49a59.68 59.68 0 0 0 2.06-20.73c-.86-11.85-6.06-30.75-22.68-26.49z" class="cls-8" style="fill:#073e51"/><path id="path323" d="M138.485 75.625s-5.17-3.76-10.38-4.24c-5.21-.48-8.91-1.88-7.91-6.23a21.39 21.39 0 0 0 6.43 3.14c3.13.73 10.92.33 11.86 7.33z" class="cls-29" style="fill:#827a87"/><path id="path325" d="M163.045 75.625s5.18-3.76 10.38-4.24c5.2-.48 8.92-1.88 7.91-6.23a21.28 21.28 0 0 1-6.42 3.14c-3.13.73-10.92.33-11.87 7.33z" class="cls-29" style="fill:#827a87"/><path id="polyline327" d="M175.525 78.105h13.26l-10.9 3.83" class="cls-27" style="fill:#c69379"/><path id="polyline329" d="m149.205 55.525 11.2-.59-11.2-2.16" class="cls-23" style="fill:#edc4a9"/><path id="path331" d="M161.085 82.385s1.92 14.14 22.1 6.33c0 0 2.65-2.95.14-2.95s-3.83 1-5.74 1c-1.91 0-11.05 2.07-13.4-3.38-2.35-5.45.44-2.36.44-2.36l-3.24-.44" class="cls-27" style="fill:#c69379"/><path id="path333" d="M141.985 82.385s-1.92 14.14-22.1 6.33c0 0-2.65-2.95-.14-2.95s3.83 1 5.74 1c1.91 0 11.05 2.07 13.41-3.38 2.36-5.45-.45-2.36-.45-2.36l3.24-.44" class="cls-21" style="fill:#ddad92"/><ellipse id="ellipse335" cx="171.395" cy="80.615" class="cls-22" rx="10.02" ry="3.39" style="fill:#fff"/><circle id="circle337" cx="172.185" cy="81.055" r="2.95" class="cls-3" style="fill:#ff8500"/><path id="polyline339" d="m126.035 77.515-9.14 2.07 7.37 2.35" class="cls-21" style="fill:#ddad92"/><ellipse id="ellipse341" cx="131.925" cy="80.615" class="cls-22" rx="10.02" ry="3.39" style="fill:#fff"/><circle id="circle343" cx="132.115" cy="81.055" r="2.95" class="cls-3" style="fill:#ff8500"/><path id="line345" d="M139.345 255.825h25.86" style="fill:none;stroke:#0b4f75;stroke-width:3.83px;stroke-miterlimit:10"/><g id="g25704" transform="translate(-50.215 -42.705)"><g id="g25577"><g id="g25568" transform="translate(-.158)"><rect id="rect1205" width="16.456" height="5.283" x="195.139" y="213.328" ry="2.642" style="fill:#999;stroke:none;stroke-width:32.2;stroke-linejoin:round"/><g id="g25561" transform="translate(-.449)"><path id="path13401" d="M205.473 211.676a1.672 1.672 0 0 1-1.672 1.672 1.672 1.672 0 0 1-1.672-1.672 1.672 1.672 0 0 1 1.672-1.672 1.672 1.672 0 0 1 1.672 1.672z" clip-path="url(#clipPath13615)" style="fill:#999;fill-opacity:1;stroke:none;stroke-width:2.9;stroke-linejoin:round;stroke-miterlimit:4;stroke-dasharray:none;stroke-opacity:1" transform="translate(.023 -.383)"/><path id="path13956" d="m203.154 211.064-.996.092s.032.3-.133.758c-.164.459-.514 1.034-1.363 1.518l.496.869c1.052-.6 1.576-1.4 1.809-2.049.233-.649.187-1.188.187-1.188zm1.326 0s-.045.54.188 1.188c.233.648.757 1.45 1.809 2.049l.494-.87c-.85-.483-1.197-1.058-1.362-1.517-.164-.459-.132-.758-.132-.758z" clip-path="url(#clipPath14433)" style="color:#000;fill:#999;fill-opacity:1;-inkscape-stroke:none"/><path id="path25420" d="M202.687 212.046a.61.61 0 0 0-.42.327c.017-.033-.029.052-.038.067a4.11 4.11 0 0 1-.376.55.6.6 0 0 0 .067.752.634.634 0 0 0 .508.182c.96 0 1.919.002 2.878-.002a.6.6 0 0 0 .568-.507.632.632 0 0 0-.163-.518 3.358 3.358 0 0 1-.36-.561.605.605 0 0 0-.625-.288c-.193.027-.33.183-.51.244-.153.063-.32.082-.485.07a1.117 1.117 0 0 1-.565-.216.644.644 0 0 0-.48-.1z" style="fill:#999;fill-opacity:1;stroke:none;stroke-width:.0226563;stroke-linejoin:round;stroke-miterlimit:4;stroke-dasharray:none;stroke-opacity:1"/></g></g><rect id="rect977" width="80.723" height="95.967" x="162.848" y="216.243" ry="6.063" style="fill:#c87137;stroke:none;stroke-width:30.4867;stroke-linejoin:round"/></g><g id="g25691" transform="translate(-.083 -.044)"><circle id="path25603" cx="189.703" cy="220.065" r=".994" style="fill:#999;fill-opacity:1;stroke:none;stroke-width:2.9;stroke-linejoin:round;stroke-miterlimit:4;stroke-dasharray:none;stroke-opacity:1"/><circle id="circle25687" cx="216.883" cy="220.065" r=".994" style="fill:#999;fill-opacity:1;stroke:none;stroke-width:2.9;stroke-linejoin:round;stroke-miterlimit:4;stroke-dasharray:none;stroke-opacity:1"/></g></g><path id="path357" d="M222.135 245.995a43.18 43.18 0 0 1-8.56 18.87s-1.82 1.28-5.09.16c-3.27-1.12-14.91-15.85-16.2-16.21 0 0-8.21-1.06-12.83-1.35-4.62-.29-11.46.76-13.53-1.07-2.07-1.83-2.13-4.52-1.76-5.12.37-.6 5.32-1.45 8.36-1.31 3.04.14 15.46-2.18 16.11-2.86.65-.68 2-1 .21-3.43s-8.43-8.83-8.43-8.83-8.66-3-9.49-4.36c-.83-1.36-1.2-5.95-1.2-5.95s.44-4.72 4.05-1.81c0 0 6.65 3.85 10.42 4.39 3.77.54 7.33.77 7.33.77s1.49-5.37-5.82-8.5c-5.33-2.28-10.49-5.47-11.54-8.59-1.05-3.12-.83-6.54.66-6.68 0 0 1.4-1.88 7.39 2.65 0 0-6-3.19-6.78-7.6 0 0-1.88-5.14 3.46-4.45l2.33.41 3.71 3.86 4.18 4.21s6.28 2.18 10.94 10.48c4.66 8.3 9 16.26 9.73 19.46.73 3.2 12.35 22.86 12.35 22.86z" class="cls-21" style="fill:#ddad92"/><path id="path359" d="m179.345 194.775 9.71 5.49-13.6-11.1c.43 2.29 2.24 4.25 3.89 5.61z" class="cls-27" style="fill:#c69379"/><path id="path361" d="M194.465 218.075c.45-10.37-10.37-14-14.87-15.33-3.25-1-5.21-3.82-6.05-5.33a12.48 12.48 0 0 0 .64 3.38c1.05 3.12 6.21 6.31 11.54 8.59 7.31 3.13 5.82 8.5 5.82 8.5z" class="cls-27" style="fill:#c69379"/><path id="path363" d="m188.715 237.045 8.23-1.62c-2-7.89-15.32-13.3-19.16-13.75-3.84-.45-7.52-3.92-7.65-4a10.06 10.06 0 0 0 .81 2.85c.83 1.35 9.49 4.36 9.49 4.36s6.6 6.37 8.43 8.83.53 2.69-.15 3.33z" class="cls-27" style="fill:#c69379"/><path id="path365" d="M193.345 244.215s-20.21 2.13-28.39 1a5.92 5.92 0 0 0 1 1.17c2.07 1.83 8.92.78 13.53 1.07 4.61.29 12.8 1.36 12.8 1.36a2.81 2.81 0 0 1 .77.61c3.07-.76 6.89-1.83 7-2.5.23-1.13-6.71-2.71-6.71-2.71z" class="cls-27" style="fill:#c69379"/><path id="path367" d="M80.885 244.945a43.43 43.43 0 0 0 8.6 19s1.83 1.28 5.12.16 15-15.92 16.25-16.28c0 0 8.25-1.07 12.88-1.36 4.63-.29 11.52.76 13.61-1.08s2.14-4.53 1.76-5.14c-.38-.61-5.35-1.45-8.4-1.31-3.05.14-15.53-2.2-16.19-2.88-.66-.68-2-1-.21-3.45s8.47-8.87 8.47-8.87 8.7-3 9.53-4.37c.83-1.37 1.22-6 1.22-6s-.45-4.74-4.08-1.82c0 0-6.67 3.87-10.46 4.41-3.79.54-7.36.77-7.36.77s-1.51-5.39 5.84-8.54c5.35-2.29 10.54-5.49 11.59-8.62 1.05-3.13.84-6.58-.66-6.72 0 0-1.41-1.89-7.43 2.67 0 0 6-3.21 6.81-7.65 0 0 1.9-5.15-3.47-4.47l-2.34.42-3.68 3.88-4.2 4.23s-6.3 2.19-11 10.52-9 16.34-9.78 19.56c-.78 3.22-12.42 22.94-12.42 22.94z" class="cls-23" style="fill:#edc4a9"/><path id="path369" d="m123.875 193.485-9.76 5.52 13.66-11.16c-.42 2.31-2.24 4.28-3.9 5.64z" class="cls-21" style="fill:#ddad92"/><path id="path371" d="M108.685 216.895c-.46-10.42 10.41-14 14.94-15.4 3.27-1 5.23-3.83 6.08-5.36a12.79 12.79 0 0 1-.65 3.41c-1.05 3.13-6.24 6.33-11.59 8.62-7.35 3.15-5.84 8.54-5.84 8.54z" class="cls-21" style="fill:#ddad92"/><path id="path373" d="m114.455 235.955-8.27-1.62c2-7.93 15.4-13.37 19.25-13.82 3.85-.45 7.56-3.94 7.69-4.06a9.87 9.87 0 0 1-.82 2.87c-.83 1.35-9.53 4.37-9.53 4.37s-6.63 6.4-8.47 8.87c-1.84 2.47-.52 2.74.15 3.39z" class="cls-21" style="fill:#ddad92"/><path id="path375" d="M109.815 243.165s20.3 2.13 28.51 1a5.3 5.3 0 0 1-1 1.17c-2.09 1.84-9 .79-13.61 1.08-4.61.29-12.88 1.36-12.88 1.36a3 3 0 0 0-.78.61c-3.08-.76-6.92-1.84-7.06-2.52-.2-1.12 6.82-2.7 6.82-2.7z" class="cls-21" style="fill:#ddad92"/><path id="path457" d="M116.135 58.695c-8.84 1.34-15.17 7-18.33 16.46a43.54 43.54 0 0 0-2.12 12.8c-4.82.88-8.31 2.94-10.39 6.13-3.42 5.25-1.64 11.55-1.56 11.81l.05.14c5.48 13.48 11.22 16.76 13.84 17.56l.72 28.68-49.49 20.21-9.57 30.5-14.67 53.33c-4.68 17-5.33 30.11-2 40.17 1.4 4.2 6.93 8.52 12.35 11.9a28.24 28.24 0 0 0 10.06 2.3c-6.67-3.34-17.94-9.89-19.68-15.11-3.17-9.5-2.5-22.09 2-38.5l14.64-53.28 9.21-29.16 50.09-20.45-.8-31.81-.07-1.31-1.31-.09c-.06 0-6.36-.6-12.62-15.94-.15-.6-1.3-5.51 1.24-9.4 1.78-2.72 5-4.41 9.61-5l1.31-.17-.06-1.31c0-.26-.9-25.2 18.56-27.67l.64-.08.37-.54c.12-.19 12.9-18.66 35.1-17.23l.19-2.87c-21.93-1.46-34.93 14.69-37.31 17.93z" class="cls-22" style="fill:#fff"/><path id="path459" d="M187.215 58.695c8.71 1.34 14.95 7 18.06 16.46a44.19 44.19 0 0 1 2.08 12.8c4.75.88 8.19 2.94 10.24 6.13 3.37 5.25 1.61 11.55 1.54 11.81l-.05.14c-5.4 13.48-11.05 16.76-13.64 17.56l-.71 28.68 48.75 20.21 9.48 30.5 14.45 53.33c4.61 17 5.25 30.11 1.94 40.17-1.37 4.2-6.81 8.52-12.15 11.9a27.51 27.51 0 0 1-9.92 2.31c6.57-3.34 17.68-9.89 19.39-15.11 3.12-9.5 2.47-22.09-2-38.5l-14.39-53.29-9.07-29.16-49.33-20.45.79-31.81.07-1.31 1.29-.09c.06 0 6.26-.6 12.42-15.94.16-.6 1.29-5.51-1.21-9.4-1.76-2.72-4.94-4.41-9.47-5l-1.28-.17.05-1.31c0-.26.89-25.2-18.28-27.67l-.63-.08-.36-.54c-.13-.19-12.71-18.66-34.58-17.23l-.21-2.94c21.59-1.39 34.39 14.76 36.73 18z" class="cls-8" style="fill:#073e51"/><path id="path13213" d="M204.827 211.673s.158 2.155 1.179 2.393m-3.337-2.393s-.157 2.155-1.179 2.393" clip-path="url(#clipPath13289)" style="fill:none;stroke:#000;stroke-width:1.06093px;stroke-linecap:butt;stroke-linejoin:miter;stroke-opacity:1" transform="translate(-50.215 -49.195)"/></svg>