<svg xmlns="http://www.w3.org/2000/svg" id="Layer_1" width="322.98" height="363.53" data-name="Layer 1" version="1.1"><defs id="defs4"><style id="style2">.cls-7{stroke:#610000;stroke-miterlimit:10}.cls-7,.cls-8{fill:#610000}.cls-7{stroke-width:6.74px}</style></defs><path id="path174" d="M301.3 176.16c-4-7.6-7.87-14.78-10.43-21.65-4.57-12.3-4-23.12 1.84-33.08a45.93 45.93 0 0 1 11.73-13.18l18.54-11.42-51.94-93.94-21.24 13.74c-15.18 9.82-31.66 12.42-49 7.74a77 77 0 0 1-24-11.24L161.36 0l-15.58 13.19A76.17 76.17 0 0 1 123.29 24c-17.84 5.21-34.78 2.74-50.37-7.35L51.68 2.91 0 96.36l18.4 12a45.83 45.83 0 0 1 10.9 11.93c6.46 10.28 7.29 21.48 2.54 34.25-2.56 6.87-6.38 14.05-10.43 21.65-6.84 12.86-14.6 27.44-17.8 44.15-3.06 16-.33 33.86 7.67 50.43 7.86 16.28 19.95 29.53 34 37.32 14.92 8.25 29.61 13.39 43.8 18.37 21.33 7.47 39.74 13.93 54.19 29.52l7 7.55h22.06l7-7.55c14.45-15.59 32.87-22.05 54.19-29.52 14.2-5 28.88-10.12 43.81-18.37 14.09-7.79 26.18-21 34-37.32 8-16.57 10.72-34.47 7.67-50.43-3.09-16.74-10.85-31.34-17.7-44.18Z" style="fill:#e4dfcf"/><path id="path176" d="M160.63 339.9c-29.18-31.48-68.08-32.72-103.89-52.5-20.24-11.18-34.34-39.74-29.95-62.65 4.21-22 19.42-41.16 27.17-62 17.78-47.82-22.68-74.18-22.68-74.18l28.81-52.11c52.11 33.72 100.54-4.9 100.54-4.9l.73-.61.72.61s48.43 38.62 100.54 4.9l28.82 52.11s-40.47 26.36-22.69 74.18c7.76 20.86 23 40 27.18 62 4.38 22.91-9.72 51.47-30 62.65-35.81 19.78-74.72 21-103.9 52.5z" style="fill:#e4dfcf;stroke:#610000;stroke-width:15.94px;stroke-miterlimit:10"/><path id="line178" d="M57.29 127.36h208.13" style="fill:none;stroke:#610000;stroke-width:15.94px;stroke-miterlimit:10"/><path id="path180" d="M142.86 240.91c0 4.37-.86 13.53-2.57 17.43a32.79 32.79 0 0 1-17.09 17.17 31.29 31.29 0 0 1-24.86 0 32.85 32.85 0 0 1-17.1-17.14c-1.7-3.89-2.56-13-2.56-17.4v-50.11a31 31 0 0 1 2.56-12.54 33.28 33.28 0 0 1 6.92-10.2 31.86 31.86 0 0 1 10.18-6.85 31.09 31.09 0 0 1 12.35-2.5 31.54 31.54 0 0 1 12.51 2.5 32.09 32.09 0 0 1 10.18 6.85 33.25 33.25 0 0 1 6.91 10.2 30.88 30.88 0 0 1 2.57 12.54 4.28 4.28 0 0 1-1.38 3.2 4.51 4.51 0 0 1-3.22 1.32 4.26 4.26 0 0 1-3.14-1.32 4.4 4.4 0 0 1-1.3-3.2 22.38 22.38 0 0 0-1.8-8.88 22.72 22.72 0 0 0-12.27-12.22 22.82 22.82 0 0 0-9.06-1.8 22.45 22.45 0 0 0-8.91 1.8A22.72 22.72 0 0 0 89.56 182a22.37 22.37 0 0 0-1.79 8.88l.13 27.69a31.59 31.59 0 0 1 10.25-7.2 30.83 30.83 0 0 1 12.59-2.61 31.37 31.37 0 0 1 12.51 2.5 32 32 0 0 1 10.18 6.87 33.27 33.27 0 0 1 6.91 10.23 31 31 0 0 1 2.52 12.55zm-9 .07a22.68 22.68 0 0 0-1.8-9 23 23 0 0 0-21.33-14 22.62 22.62 0 0 0-8.91 1.79A22.78 22.78 0 0 0 89.56 232a22.67 22.67 0 0 0-1.79 9c0 3.12.59 11.1 1.79 13.9a22.78 22.78 0 0 0 12.27 12.23 22.62 22.62 0 0 0 8.91 1.79 22.89 22.89 0 0 0 21.33-14c1.15-2.84 1.75-10.82 1.75-13.92z" class="cls-7" style="fill:#610000;stroke:#610000;stroke-width:6.74px;stroke-miterlimit:10"/><path id="path182" d="M244.62 240.91c0 4.37-.86 13.53-2.56 17.43a33.42 33.42 0 0 1-6.92 10.23 33 33 0 0 1-10.18 6.94 31.29 31.29 0 0 1-24.86 0 32.78 32.78 0 0 1-17.09-17.14c-1.71-3.89-2.56-13-2.56-17.4v-50.11a30.88 30.88 0 0 1 2.56-12.54 33.25 33.25 0 0 1 6.91-10.2 32 32 0 0 1 10.18-6.85 31.13 31.13 0 0 1 12.36-2.5 31.46 31.46 0 0 1 12.5 2.5 31.86 31.86 0 0 1 10.18 6.85 33.28 33.28 0 0 1 6.92 10.2 31 31 0 0 1 2.56 12.54 4.28 4.28 0 0 1-1.38 3.2 4.5 4.5 0 0 1-3.21 1.32 4.25 4.25 0 0 1-3.14-1.32 4.4 4.4 0 0 1-1.3-3.2 22.38 22.38 0 0 0-1.8-8.88 23 23 0 0 0-21.33-14 22.45 22.45 0 0 0-8.91 1.8A22.72 22.72 0 0 0 191.28 182a22.38 22.38 0 0 0-1.8 8.88l.13 27.69a31.63 31.63 0 0 1 10.26-7.2 30.79 30.79 0 0 1 12.59-2.61 31.29 31.29 0 0 1 12.5 2.5 31.76 31.76 0 0 1 10.18 6.87 33.3 33.3 0 0 1 6.92 10.23 31.12 31.12 0 0 1 2.56 12.55zm-9 .07a22.92 22.92 0 0 0-6.73-16.35 23 23 0 0 0-16.4-6.7 22.62 22.62 0 0 0-8.91 1.79 22.78 22.78 0 0 0-12.3 12.28 22.68 22.68 0 0 0-1.8 9c0 3.12.6 11.1 1.8 13.9a23 23 0 0 0 21.18 14 23 23 0 0 0 16.4-6.7 22.76 22.76 0 0 0 4.93-7.32c1.2-2.8 1.77-10.78 1.77-13.88z" class="cls-7" style="fill:#610000;stroke:#610000;stroke-width:6.74px;stroke-miterlimit:10"/><path id="path184" d="M87.94 74.28v26.39l-2.57 2.58H74.74l-2.57-2.58V74.28l2.57-2.58h10.63zm-5.93 2.57h-4l-.58.58v20.13l.58.58h4l.62-.58V77.43Z" class="cls-8" style="fill:#610000"/><path id="path186" d="m104.56 85.65 7.55 17.6h-5.76l-5-11.63-2.5 4.57v7.06h-5.18V71.7h5.18v14.4l7.43-14.4h5.81z" class="cls-8" style="fill:#610000"/><path id="path188" d="M130.81 103.25h-14.48V71.7h5.31v26.44h9.17z" class="cls-8" style="fill:#610000"/><path id="path190" d="M147.29 96.44h-6.48l-1.41 6.81h-5.39l7.47-31.55h5.14l7.47 31.55h-5.39zm-1-5.11-2.2-10.62-2.2 10.62z" class="cls-8" style="fill:#610000"/><path id="path192" d="M163.76 71.7v13h5.94v-13h5.27v31.55h-5.27V89.84h-5.94v13.41h-5.27V71.7Z" class="cls-8" style="fill:#610000"/><path id="path194" d="M196.47 74.28v26.39l-2.58 2.58h-10.62l-2.57-2.58V74.28l2.57-2.58h10.62zm-5.91 2.57h-4l-.58.58v20.13l.58.58h4l.62-.58V77.43Z" class="cls-8" style="fill:#610000"/><path id="path196" d="M215.31 96.48h-2.75L207.46 82v21.3h-5.27V71.7h6.56l5.19 14.9 5.19-14.9h6.55v31.55h-5.27V82Z" class="cls-8" style="fill:#610000"/><path id="path198" d="M243.36 96.44h-6.47l-1.41 6.81h-5.4l7.48-31.55h5.15l7.47 31.55h-5.39zm-1-5.11-2.2-10.62-2.2 10.62z" class="cls-8" style="fill:#610000"/></svg>