<svg xmlns="http://www.w3.org/2000/svg" id="Layer_1" width="261.73" height="285.369" data-name="Layer 1" version="1.1"><defs id="defs4"><style id="style2">.cls-1{fill:#fbee28}.cls-2,.cls-9{fill:#231f20}.cls-9{stroke:#231f20;stroke-linecap:round;stroke-linejoin:round;stroke-width:2px}</style></defs><path id="path198" d="M12.318 45.098v125.88a118.56 118.56 0 0 0 237 0V45.098z" class="cls-2" style="fill:#231f20"/><path id="rect196" d="M12.02 44.7h237.12v125.88H12.02z" class="cls-2" style="fill:#231f20"/><path id="path32483" d="M91.29 106.597c-3.006.08-5.998-.343-8.986-.675-1.03-.114-2.061-.218-3.082-.398-.557-.098-1.124-.22-1.685-.14a1.31 1.31 0 0 0-.36.096c-.145.066-.271.17-.375.291-.104.122-.186.26-.257.403a3.168 3.168 0 0 0-.298 1.834c.13.934.683 1.774 1.4 2.388.481.413 1.034.733 1.588 1.043.551.308 1.107.608 1.664.906.167.09.335.18.515.237.24.078.496.097.749.114a58.4 58.4 0 0 0 5.758.105c2.309-.075 4.61-.298 6.913-.469 1.794-.132 3.598-.234 5.359-.602 1.984-.414 3.886-1.161 5.706-2.054 2.75-1.35 5.385-3.091 7.215-5.548a13.118 13.118 0 0 0 2.3-5.073c.678-3.17.115-6.595-1.58-9.358-1.903-3.1-5.094-5.245-8.497-6.53-5.403-2.042-11.426-2.097-17.065-.843-5.599 1.245-10.92 3.764-15.379 7.373-4.833 3.913-8.619 9.083-11.025 14.818-2.454 5.85-3.48 12.277-3.09 18.609.314 5.07 1.574 10.19 4.425 14.396 1.01 1.492 2.22 2.861 3.648 3.96 1.429 1.099 3.084 1.923 4.849 2.29 2.09.434 4.311.208 6.27-.639a10.473 10.473 0 0 0 4.755-4.137c.55-.905.959-1.888 1.334-2.879 1.878-4.956 2.974-10.184 3.581-15.449.327-2.828.513-5.67.843-8.497.429-3.674 1.097-7.315 1.756-10.955.192-1.061.384-2.143.246-3.213a3.372 3.372 0 0 0-.25-.948 1.962 1.962 0 0 0-.593-.772 2.049 2.049 0 0 0-.866-.36 4.329 4.329 0 0 0-.942-.049c-.668.025-1.346.121-1.95.409-.884.421-1.536 1.219-2.018 2.071-.708 1.252-1.107 2.663-1.282 4.09-.172 1.41-.13 2.836-.263 4.25-.186 1.978-.713 3.912-.907 5.89-.17 1.722-.085 3.458-.106 5.188-.04 3.389-.48 6.767-1.191 10.08-.396 1.84-.877 3.67-1.59 5.413-.223.547-.471 1.088-.805 1.576-.334.488-.76.923-1.28 1.204a3.37 3.37 0 0 1-1.629.386 4.697 4.697 0 0 1-1.648-.336c-1.137-.441-2.117-1.236-2.884-2.184-.768-.948-1.334-2.045-1.784-3.179-1.68-4.23-1.776-8.931-1.29-13.457.452-4.228 1.4-8.428 3.127-12.314 2.126-4.782 5.473-9.073 9.832-11.967 2.552-1.694 5.418-2.894 8.392-3.625 3.338-.82 6.837-1.052 10.23-.497 2.219.364 4.457 1.103 6.107 2.632a7.587 7.587 0 0 1 2.284 4.072c.348 1.78-.001 3.695-.993 5.214-1.108 1.695-2.913 2.811-4.767 3.625-2.04.894-4.206 1.488-6.406 1.837a28.592 28.592 0 0 1-3.724.347z" style="fill:#fbee28;fill-opacity:1;stroke:#fbee28;stroke-width:1px;stroke-linecap:round;stroke-linejoin:round;stroke-opacity:1"/><path id="path200" d="M218.4 162.22a11.19 11.19 0 0 1-.52 3.28 13.21 13.21 0 0 1-1.59 3.4 17.11 17.11 0 0 1-2.74 3.23 18.48 18.48 0 0 1-4 2.79 26.55 26.55 0 0 1-5.33 2.06 33.32 33.32 0 0 1-6.72 1.06 11.91 11.91 0 0 1 3.8 2.17 13.23 13.23 0 0 1 2.55 3 16 16 0 0 1 1.62 3.46c.41 1.21.75 2.4 1 3.57s.53 2.29.76 3.36a19.26 19.26 0 0 0 .81 2.82 5.44 5.44 0 0 0 1.19 2 2.52 2.52 0 0 0 1.91.73 8.86 8.86 0 0 0 2.42-.37 15.53 15.53 0 0 0 2.7-1.06 21.06 21.06 0 0 0 5.24-3.7l3.77 6.37a3.47 3.47 0 0 0-.62.4c-.41.29-1 .66-1.72 1.11-.72.45-1.61.93-2.62 1.46a27.78 27.78 0 0 1-3.32 1.47 28.27 28.27 0 0 1-3.85 1.14 19 19 0 0 1-4.14.46 6.86 6.86 0 0 1-4-1.17 10.08 10.08 0 0 1-2.84-3.09 19.83 19.83 0 0 1-1.95-4.36c-.52-1.64-1-3.31-1.36-5-.36-1.69-.76-3.38-1.09-5a42.82 42.82 0 0 0-1.12-4.36 11.13 11.13 0 0 0-1.46-3.09 2.53 2.53 0 0 0-2.11-1.17h-2.05q-.64 7.11-1.62 12.75a46.57 46.57 0 0 1-2.58 9.56 15.41 15.41 0 0 1-4 6 8.75 8.75 0 0 1-5.92 2.08 11.27 11.27 0 0 1-4.76-1 13.48 13.48 0 0 1-3.9-2.71 18.43 18.43 0 0 1-3-4 26.66 26.66 0 0 1-2.16-5 34.89 34.89 0 0 1-1.3-5.47 36.76 36.76 0 0 1-.44-5.61 39.32 39.32 0 0 1 4.86-19 38.91 38.91 0 0 1 5.69-7.88 37.69 37.69 0 0 1 7.52-6.2 36.62 36.62 0 0 1 9.09-4.07 36.18 36.18 0 0 1 10.41-1.46 26.15 26.15 0 0 1 4.83.45 25.23 25.23 0 0 1 4.58 1.33 20.36 20.36 0 0 1 4 2.18 15.27 15.27 0 0 1 3.22 3 13.66 13.66 0 0 1 2.12 3.72 12.33 12.33 0 0 1 .74 4.36zm-20.16-7.82a28.59 28.59 0 0 0-9.56 1.49 25.52 25.52 0 0 0-7.39 4 26.09 26.09 0 0 0-5.42 5.88 34.82 34.82 0 0 0-3.63 7 38.12 38.12 0 0 0-2 7.43 42.6 42.6 0 0 0-.64 7.18 30.35 30.35 0 0 0 .46 5.27 18.82 18.82 0 0 0 1.43 4.76 9.69 9.69 0 0 0 2.51 3.42 5.54 5.54 0 0 0 3.72 1.32 2.66 2.66 0 0 0 1.95-.86 7.75 7.75 0 0 0 1.49-2.31 21.29 21.29 0 0 0 1.14-3.34c.32-1.27.59-2.58.81-3.94.22-1.36.39-2.74.52-4.13.13-1.39.23-2.68.31-3.89.08-1.21.12-2.29.14-3.23.02-.94 0-1.66 0-2.16a20.9 20.9 0 0 1-3.85-2.24 3 3 0 0 1-1.32-2.41v-.77a3.21 3.21 0 0 1 .21-.85 1.85 1.85 0 0 1 .47-.66 1.19 1.19 0 0 1 .83-.28c.15 0 .46 0 .91.08s.93.12 1.43.2l1.38.19a6.76 6.76 0 0 0 .83.08v-.68c0-.35.06-.82.11-1.43s.15-1.25.28-2a13.84 13.84 0 0 1 .57-2.09 7.92 7.92 0 0 1 1-1.92 5.15 5.15 0 0 1 1.48-1.39 3.85 3.85 0 0 1 2.09-.54 2.59 2.59 0 0 1 2.16.73 3.13 3.13 0 0 1 .53 1.87v.29a23.58 23.58 0 0 1-.37 3.26 78.22 78.22 0 0 0-.63 4.7 35.89 35.89 0 0 0 8.73-1.06 17.18 17.18 0 0 0 5.46-2.42 8.45 8.45 0 0 0 2.82-3.2 7.88 7.88 0 0 0 .81-3.36 6.5 6.5 0 0 0-.76-3 7.72 7.72 0 0 0-2.26-2.58 11.59 11.59 0 0 0-3.7-1.78 17.58 17.58 0 0 0-5.05-.63z" class="cls-1" style="fill:#fbee28"/><path id="path204" d="M138.04 163.82c36.82-51.73 67.48-61.83 111.6-58.83V94.47c-46.68-3-80.92 8.11-120.2 63.28-36.12 50.75-73.41 35.32-75 34.61a5.42 5.42 0 0 0-1.7-.41c-26-20.13-37.46-63.23-41.18-80.85v37.39q.48 1.26 1 2.52c12.9 32.18 31.33 52.78 53.29 59.55 10.38 3.2 21.46 5.93 32.17 8.57 39.42 9.7 76.79 18.91 92.15 51q4.61-2.64 8.93-5.68c-17.77-35.58-58.78-45.7-98.55-55.49-6-1.49-12.19-3-18.24-4.61 25.66-5 44.39-24.6 55.73-40.53z" class="cls-1" style="fill:#fbee28"/><path id="path206" d="M248.58 21.92a25 25 0 0 1-12.13.19c-3-.6-6-1.76-7.74-4.4-1.74-2.64-1.49-6.92 1-9 1.11-.92 4-2.79 5-1.36-8.38-11.17-23.12-3.57-30.1 5.75a24.34 24.34 0 0 1-16.29 9.17c-5.44.75-13.42.19-16.74-4.92-1.66-2.56-1.49-6.92 1-9 1.11-.92 4-2.79 5-1.36-8.38-11.17-23.12-3.57-30.1 5.75a24.55 24.55 0 0 1-16.25 9.25c-5.46.82-13.42.33-16.78-4.84-1.66-2.55-1.48-6.91 1-8.94 1.11-.92 4-2.79 5-1.36-8.38-11.17-23.13-3.57-30.11 5.74a24.29 24.29 0 0 1-16.28 9.18c-5.45.74-13.42.19-16.75-4.93-1.66-2.55-1.48-6.92 1-8.94 1.12-.92 4-2.79 5.06-1.36-8.38-11.17-23.13-3.57-30.11 5.74S15.1 21.59 15.1 21.59h-1V46.7h234.48Z" class="cls-9" style="fill:#231f20;stroke:#231f20;stroke-width:2px;stroke-linecap:round;stroke-linejoin:round"/><path id="polyline208" d="m622.97 401.58-11.55 30.4h26.23" class="cls-9" style="fill:#231f20;stroke:#231f20;stroke-width:2px;stroke-linecap:round;stroke-linejoin:round" transform="translate(-610.42 -380.01)"/><path id="polyline210" d="M845.92 433h25.23l-11.54-30.39" class="cls-9" style="fill:#231f20;stroke:#231f20;stroke-width:2px;stroke-linecap:round;stroke-linejoin:round" transform="translate(-610.42 -380.01)"/></svg>