<svg xmlns="http://www.w3.org/2000/svg" width="1035" height="1974" fill="none" viewBox="0 0 1035 1974"><g fill-rule="evenodd" clip-path="url(#a)" clip-rule="evenodd"><path fill="#fff" d="M458 1.413c-34.527 6.13-64.803 23.726-84.455 49.087-15.029 19.395-23.928 39.951-28.74 66.389-2.988 16.422-2.985 46.614.008 63.111 6.821 37.593 22.001 67.022 47.865 92.792l8.322 8.293-.008 91.707-.009 91.708-6.106 8.5c-3.359 4.675-9.09 14.593-12.737 22.041l-6.629 13.541-20.585 13.204c-29.923 19.194-43.144 30.923-55.242 49.009-28.598 42.753-23.665 99.227 11.847 135.624 12.446 12.756 32.11 24.969 48.712 30.253l5.743 1.828.003 100 .003 100-17.204 9.5c-71.63 39.554-138.09 85.75-196.788 136.78-18.708 16.27-58.52 56.09-72.557 72.57-43.104 50.62-69.025 96.95-77.389 138.31C.4 1303.83 0 1309.61 0 1325.28c0 17.28.271 20.53 2.413 28.98 1.327 5.23 3.719 12.6 5.316 16.37 2.899 6.86 167.335 292.62 176.008 305.87 2.52 3.85 7.772 10.33 11.672 14.39 25.25 26.33 61.363 40.18 112.199 43.02 18.21 1.02 52.341-.31 63.016-2.46 1.827-.36 2.216.17 2.778 3.81 1.346 8.73 9.692 40.74 14.143 54.24 6.621 20.09 13.498 36.63 23.074 55.5 16.222 31.97 31.067 52.77 54.32 76.13 26.74 26.86 55.34 45.57 78.267 51.22 10.382 2.55 37.872 2.32 48.326-.42 17.33-4.54 31.803-13.28 45.095-27.24 9.816-10.3 16.142-20.4 20.512-32.75 6.048-17.09 5.858-12.19 5.891-152.3l.03-128.14 16.702-9c88.59-47.74 177.661-112.82 240.8-175.94 60.411-60.4 98.578-119.01 110.378-169.47 1.21-5.18 1.93-10.58 1.6-12-.39-1.67-.29-2.12.29-1.26 1.55 2.33 2.11-5.21 1.78-24.23-.34-19.94-1.55-26.36-7.9-41.94-3.03-7.44-166.074-291.257-176.288-306.875-5.911-9.039-16.262-19.884-25.641-26.865-26.149-19.464-60.041-29.326-105.314-30.646-17.048-.497-47.908.868-54.217 2.397l-2.25.546V604.282l18.404-12.086c28.407-18.653 43.854-34.675 54.665-56.696 15.01-30.573 15.536-63.407 1.49-93.123-5.59-11.826-11.15-19.924-20.147-29.341-12.227-12.799-29.933-24.015-47.618-30.166l-6.707-2.333-.357-112.518c-.39-122.647-.261-119.663-6.355-146.94-6.524-29.201-19.797-54.141-37.579-70.609C598.911 32.052 554.699 12.055 513.5 2.845 501.827.236 469.353-.602 458 1.413m7.585 35.624c-23.149 3.647-42.735 13.864-58.362 30.444-12.118 12.856-19.612 27.116-24.934 47.445-3.694 14.108-4.378 41.545-1.461 58.574 5.013 29.268 16.647 52.159 36.955 72.718 4.737 4.796 10.989 10.421 13.893 12.5l5.281 3.782.021 107.851.022 107.851-6.035 7.502c-10.619 13.199-18.393 27.153-22.488 40.361l-1.726 5.565-21.625 13.871c-28.312 18.16-33.068 21.537-41.379 29.376-31.96 30.15-35.282 73.986-7.899 104.244 12.717 14.054 32.078 23.735 57.031 28.518l9.121 1.749-.02 129.056-.02 129.056-14.206 7.5c-73.833 38.98-148.329 89.73-207.754 141.54-18.11 15.79-58.194 56.1-70.564 70.96-57.227 68.76-79.117 125.87-63.262 165.07 1.319 3.26 40.827 72.53 87.794 153.93l85.396 148 8.568 8.53c9.434 9.4 19.745 15.53 34.414 20.45 30.496 10.24 74.193 11.27 124.51 2.94 8.445-1.4 15.469-2.4 15.608-2.23s1.014 6.61 1.944 14.31c2.15 17.8 7.366 43.85 12.544 62.65 20.266 73.57 58.234 130.55 108.775 163.24 17.001 11 30.538 15.31 44.886 14.3 24.664-1.74 44.591-17.26 53.118-41.36l2.769-7.83.273-143.55.273-143.54 6.727-3.31c3.7-1.82 14.152-7.37 23.227-12.33 181.852-99.34 318.679-233.78 334.538-328.7 2.891-17.3.773-35.66-5.545-48.07-3.377-6.63-169.106-293.304-171.975-297.474-4.166-6.054-14.043-14.862-21.792-19.432-23.391-13.794-59.502-19.947-100.726-17.164-16.825 1.136-45.26 4.793-57.939 7.45L627 884.756V584.117l10.543-6.809c36.169-23.357 41.225-26.942 49-34.74 9.659-9.689 16.666-20.615 20.762-32.374 3.908-11.217 4.841-26.946 2.282-38.448-6.983-31.389-35.077-53.927-75.787-60.802l-6.7-1.132-.374-124.656c-.338-112.894-.54-125.788-2.145-136.656-4.929-33.385-13.789-54.516-29.251-69.766-7.385-7.283-12.106-10.469-25.83-17.426-17.493-8.868-39.956-17.021-61.5-22.32-9.771-2.403-32.815-3.463-42.415-1.951m5.732 60.009c-15.895 3.142-28.304 17.089-31.368 35.258-1.514 8.975-.706 30.061 1.463 38.196.88 3.3 3.662 10.203 6.182 15.34 8.036 16.379 24.277 30.788 41.599 36.905l7.802 2.755.002 140.51.003 140.511-7.125 5.433c-16.304 12.434-25.915 29.382-27.536 48.559l-.601 7.109-36.887 23.812c-38.727 25-44.616 29.712-46.975 37.586-.99 3.302-.88 4.288.792 7.152 3.689 6.315 13.671 10.808 28.911 13.011 13.51 1.954 22.677-1.083 28.131-9.318 2.648-3.998 2.818-4.955 3.333-18.789.593-15.929 1.475-19.18 6.876-25.331 3.404-3.877 10.345-7.745 13.897-7.745H462l-.005 392.75-.005 392.75-15.245 6.94c-150.457 68.44-283.257 85.7-336.745 43.75-4.869-3.81-4.629-3.47 2.095 3.03 17.03 16.47 42.063 29.28 71.841 36.79 22.877 5.76 37.563 7.35 68.564 7.41 29.352.06 39.744-.72 66.473-5 43.746-7.01 95.996-21.78 141.277-39.93 1.661-.67 1.75 5.55 1.75 122.3 0 75.11.392 127.03 1.008 133.35 7.261 74.62 37.055 143.13 77.492 178.19 8.607 7.46 23.188 17.67 25.241 17.67 1.009 0 1.261-49.78 1.271-250.25l.013-250.25 7.737-4.48c12.043-6.97 47.203-30.63 63.238-42.56 47.508-35.34 89.837-74.31 122.719-112.96 38.641-45.42 65.719-96.07 74.318-139 2.878-14.37 3.771-41.01 1.866-55.66l-1.344-10.34-.66 10c-4.416 66.94-78.173 158.81-198.399 247.12-17.417 12.8-50.597 35.03-68.25 45.74-.999.61-1.25-75.98-1.25-381.63V551.341l32.604-20.92c17.933-11.507 35.37-22.973 38.75-25.481 10.787-8.004 15.318-17.68 11.1-23.702-4.091-5.841-20.552-11.486-33.954-11.644-10.136-.119-16.202 2.071-20.885 7.543-4.519 5.279-5.93 11.241-5.078 21.461 1.399 16.8-6.192 29.383-19.308 32.006l-3.229.646-.016-175.375c-.018-196.174-.165-201.043-6.706-221.084-3.635-11.139-7.09-14.701-20.641-21.28-11.989-5.821-34.166-13.669-45.274-16.022-7.446-1.578-16.432-1.75-23.046-.443"/><path fill="#005430" d="M465.585 37.037C442.436 40.684 422.85 50.9 407.223 67.48c-12.118 12.856-19.612 27.116-24.934 47.445-3.694 14.108-4.378 41.545-1.461 58.574 5.013 29.268 16.647 52.159 36.955 72.718 4.737 4.796 10.989 10.421 13.893 12.5l5.281 3.782.021 107.851.022 107.851-6.035 7.502c-10.619 13.199-18.393 27.153-22.488 40.361l-1.726 5.565-21.625 13.871c-28.312 18.16-33.068 21.537-41.379 29.376-31.96 30.15-35.282 73.986-7.899 104.244 12.717 14.054 32.078 23.735 57.031 28.518l9.121 1.749-.02 129.056-.02 129.056-14.206 7.5c-73.833 38.98-148.329 89.73-207.754 141.54-18.11 15.79-58.194 56.1-70.564 70.96-57.227 68.76-79.117 125.87-63.262 165.07 1.319 3.26 40.827 72.53 87.794 153.93l85.396 148 8.568 8.53c9.434 9.4 19.745 15.53 34.414 20.45 30.496 10.24 74.193 11.27 124.51 2.94 8.445-1.4 15.469-2.4 15.608-2.23s1.014 6.61 1.944 14.31c2.15 17.8 7.366 43.85 12.544 62.65 20.266 73.57 58.234 130.55 108.775 163.24 17.001 11 30.538 15.31 44.886 14.3 24.664-1.74 44.591-17.26 53.118-41.36l2.769-7.83.273-143.55.273-143.54 6.727-3.31c3.7-1.82 14.152-7.37 23.227-12.33 181.852-99.34 318.679-233.78 334.538-328.7 2.891-17.3.773-35.66-5.545-48.07-3.377-6.63-169.106-293.304-171.975-297.474-4.166-6.054-14.043-14.862-21.792-19.432-23.391-13.794-59.502-19.947-100.726-17.164-16.825 1.136-45.26 4.793-57.939 7.45L627 884.756V584.117l10.543-6.809c36.169-23.357 41.225-26.942 49-34.74 9.659-9.689 16.666-20.615 20.762-32.374 3.908-11.217 4.841-26.946 2.282-38.448-6.983-31.389-35.077-53.927-75.787-60.802l-6.7-1.132-.374-124.656c-.338-112.894-.54-125.788-2.145-136.656-4.929-33.385-13.789-54.516-29.251-69.766-7.385-7.283-12.106-10.47-25.83-17.426-17.493-8.868-39.956-17.021-61.5-22.32-9.771-2.403-32.815-3.463-42.415-1.951m5.732 60.009c-15.895 3.142-28.304 17.089-31.368 35.258-1.514 8.975-.706 30.061 1.463 38.196.88 3.3 3.662 10.203 6.182 15.34 8.036 16.379 24.277 30.788 41.599 36.905l7.802 2.755.002 140.51.003 140.511-7.125 5.433c-16.304 12.434-25.915 29.382-27.536 48.559l-.601 7.109-36.887 23.812c-38.727 25-44.616 29.712-46.975 37.586-.99 3.302-.88 4.288.792 7.152 3.689 6.315 13.671 10.808 28.911 13.011 13.51 1.954 22.677-1.083 28.131-9.318 2.648-3.998 2.818-4.955 3.333-18.789.593-15.929 1.475-19.18 6.876-25.331 3.404-3.877 10.345-7.745 13.897-7.745H462l-.005 392.75-.005 392.75-15.245 6.93c-150.457 68.45-283.257 85.71-336.745 43.76-4.869-3.81-4.629-3.47 2.095 3.03 17.03 16.46 42.063 29.28 71.841 36.78 22.877 5.77 37.563 7.36 68.564 7.42 29.352.06 39.744-.73 66.473-5.01 43.746-7 95.996-21.77 141.277-39.92 1.661-.67 1.75 5.55 1.75 122.3 0 75.11.392 127.03 1.008 133.35 7.261 74.62 37.055 143.13 77.492 178.19 8.607 7.46 23.188 17.67 25.241 17.67 1.009 0 1.261-49.78 1.271-250.25l.013-250.25 7.737-4.48c12.043-6.97 47.203-30.63 63.238-42.56 47.508-35.34 89.837-74.31 122.719-112.96 38.641-45.43 65.719-96.07 74.318-139 2.878-14.37 3.771-41.01 1.866-55.66l-1.344-10.34-.66 10c-4.416 66.93-78.173 158.81-198.399 247.12-17.417 12.8-50.597 35.03-68.25 45.74-.999.61-1.25-75.98-1.25-381.63V551.341l32.604-20.92c17.933-11.507 35.37-22.973 38.75-25.481 10.787-8.004 15.318-17.68 11.1-23.702-4.091-5.841-20.552-11.486-33.954-11.644-10.136-.119-16.202 2.071-20.885 7.543-4.519 5.279-5.93 11.241-5.078 21.461 1.399 16.8-6.192 29.383-19.308 32.006l-3.229.646-.016-175.375c-.018-196.174-.165-201.043-6.706-221.084-3.635-11.139-7.09-14.701-20.641-21.28-11.989-5.821-34.166-13.67-45.274-16.022-7.446-1.578-16.432-1.75-23.046-.443"/></g><defs><clipPath id="a"><path fill="#fff" d="M0 0h1035v1974H0z"/></clipPath></defs></svg>