<svg xmlns="http://www.w3.org/2000/svg" id="Layer_1" width="337.578" height="235.16" data-name="Layer 1" version="1.1"><defs id="defs4"><style id="style2">.cls-4{fill:#c0c5ce}.cls-4,.cls-5,.cls-6{stroke:#5685ef;stroke-linecap:round;stroke-linejoin:round}.cls-4{stroke-width:14.5px}.cls-5,.cls-9{fill:#3a3a3a}.cls-5,.cls-6,.cls-9{stroke-width:8.76px}.cls-6{fill:none}.cls-7{fill:#133cd1}.cls-9{stroke:#f71ef7;stroke-miterlimit:10}</style></defs><path id="path174" d="M127.25 227.86h.05c1.81-46.54 7.7-94.69 21.71-139.24 9-28.74 25.95-71.36 61.57-73.39 0 0 78.69-22.8 93.48 212.59h26.37c-.25 0-8.58-53.33-9.33-57-5.78-28.32-13.1-56.52-23.67-83.46-8-20.33-17.84-40.84-32.52-57.25-28.44-31.8-74.48-28.56-104.3-1.94-29.17 26-52.09 105.39-57.56 147.06-2.29 17.45-5.34 35.12-6.75 52.66z" class="cls-4" style="fill:#c0c5ce;stroke:#5685ef;stroke-width:14.5px;stroke-linecap:round;stroke-linejoin:round"/><path id="path176" d="M28.46 63.05h216.76v30.17H58.62a30.17 30.17 0 0 1-30.17-30.17v0z" class="cls-5" style="fill:#3a3a3a;stroke:#5685ef;stroke-width:8.76px;stroke-linecap:round;stroke-linejoin:round"/><path id="path178" d="M56.33 93.22h216.76v30.17H86.49a30.17 30.17 0 0 1-30.17-30.17v0z" class="cls-5" style="fill:#3a3a3a;stroke:#5685ef;stroke-width:8.76px;stroke-linecap:round;stroke-linejoin:round"/><path id="path180" d="M84.2 123.39H281v30.17H114.36a30.17 30.17 0 0 1-30.17-30.17v0z" class="cls-5" style="fill:#3a3a3a;stroke:#5685ef;stroke-width:8.76px;stroke-linecap:round;stroke-linejoin:round"/><path id="path182" d="M112.07 153h138.7v30.17H142.23A30.17 30.17 0 0 1 112.07 153z" class="cls-5" style="fill:#3a3a3a;stroke:#5685ef;stroke-width:8.76px;stroke-linecap:round;stroke-linejoin:round"/><circle id="circle184" cx="249.43" cy="122.8" r="59.28" class="cls-5" style="fill:#3a3a3a;stroke:#5685ef;stroke-width:8.76px;stroke-linecap:round;stroke-linejoin:round"/><path id="polyline186" d="M308.71 122.8H190.14v0" class="cls-6" style="fill:none;stroke:#5685ef;stroke-width:8.76px;stroke-linecap:round;stroke-linejoin:round"/><path id="line188" d="M249.43 63.52v118.56" class="cls-6" style="fill:none;stroke:#5685ef;stroke-width:8.76px;stroke-linecap:round;stroke-linejoin:round"/><path id="path190" d="M286.4 76.47s-20 19-52.52 17.11H197" class="cls-6" style="fill:none;stroke:#5685ef;stroke-width:8.76px;stroke-linecap:round;stroke-linejoin:round"/><path id="path192" d="M286.4 169.14s-20-19.06-52.52-17.11H197" class="cls-6" style="fill:none;stroke:#5685ef;stroke-width:8.76px;stroke-linecap:round;stroke-linejoin:round"/><circle id="circle194" cx="249.43" cy="122.8" r="59.28" class="cls-7" style="fill:#133cd1"/><path id="path196" d="M224.75 67.61c-20.26 8.65-34.61 30.1-34.61 55.19 0 25.68 15 47.55 36 55.78 20.26-8.65 34.6-30.1 34.6-55.19.03-25.68-14.99-47.55-35.99-55.78z" class="cls-7" style="fill:#133cd1"/><path id="path198" d="M240 67.61c-29.19 8.65-49.86 30.1-49.86 55.19 0 25.68 21.64 47.55 51.91 55.78 29.19-8.65 49.85-30.1 49.85-55.19 0-25.68-21.64-47.55-51.9-55.78z" style="fill:#3a3a3a"/><path id="line202" d="M161.05 123.39h112.04" class="cls-9" style="fill:#3a3a3a;stroke:#f71ef7;stroke-width:8.76px;stroke-miterlimit:10"/><path id="line212" d="M222.16 93.58H87.29" class="cls-9" style="fill:#3a3a3a;stroke:#f71ef7;stroke-width:8.76px;stroke-miterlimit:10"/><circle id="circle1184" cx="249.43" cy="122.8" r="59.28" class="cls-7" style="fill:#3a3a3a;fill-opacity:1;stroke:none"/><circle id="circle210" cx="249.43" cy="122.8" r="59.28" class="cls-6" style="fill:none;stroke:#5685ef;stroke-width:8.76px;stroke-linecap:round;stroke-linejoin:round"/><path id="line214" d="M132.66 152.99h25.36" class="cls-9" style="fill:#3a3a3a;stroke:#f71ef7;stroke-width:8.76px;stroke-miterlimit:10"/><path id="line216" d="M28.46 63.05H4.38" class="cls-5" style="fill:#3a3a3a;stroke:#5685ef;stroke-width:8.76px;stroke-linecap:round;stroke-linejoin:round"/><path id="path218" d="M217.07 7.32c-20-.88-40.55 6.67-56.46 20.87-29.17 26-52.09 105.39-57.56 147.06-2.29 17.45-5.34 35.12-6.75 52.66l30.95-.05h.05c1.81-46.54 7.7-94.69 21.71-139.24 9-28.74 25.95-71.36 61.57-73.39a23.34 23.34 0 0 1 6.49-.59z" class="cls-4" style="fill:#c0c5ce;stroke:#5685ef;stroke-width:14.5px;stroke-linecap:round;stroke-linejoin:round"/><path id="path250" d="M159.108 217.224s10.362 11.38 25.009 0a28.471 28.471 0 0 1 11.088-5.689c10.144-2.276 14.986 5.81 22.297 10.773 7.312 4.964 15.907 3.148 22.564-2.033 0 0 15.737-13.897 27.455 0" style="fill:#3a3a3a;stroke:#5685ef;stroke-width:14.6471px;stroke-linecap:round;stroke-linejoin:round"/><circle id="circle16691" cx="249.43" cy="122.8" r="43.162" class="cls-7" style="fill:none;fill-opacity:1;stroke:#c0c5ce;stroke-width:4.328;stroke-miterlimit:4;stroke-dasharray:none;stroke-opacity:1"/></svg>