<svg xmlns="http://www.w3.org/2000/svg" id="Layer_1" width="307.549" height="249.189" data-name="Layer 1"><defs id="defs4"><clipPath id="clipPath3204" clipPathUnits="userSpaceOnUse"><path id="path3206" d="M58.83 6.803v234.83h168.582l-.215-.076a57 57 0 0 1-1.494-.59 50 50 0 0 1-2.676-1.19 67 67 0 0 1-1.181-.568 48 48 0 0 1-1.194-.604 20 20 0 0 1-1.498-.869c-.852-.521-1.575-1.198-2.26-1.918-.09-.105-.174-.216-.261-.324q-.29.15-.582.295l-.842.412-.768.375q-.352.17-.703.344l-.72.36-.672.33q-.371.182-.744.359-.3.139-.6.275c-.073.033-.174.082-.012 0q.25-.136.487-.295l-8.815-13.22c.28-.19.576-.358.873-.518.261-.14.53-.264.799-.389a38 38 0 0 0 1.03-.486l.634-.313.676-.336.79-.388.784-.381.76-.373a50 50 0 0 0 1.47-.762 47 47 0 0 0 1.59-.912 43 43 0 0 0 1.754-1.116 57 57 0 0 0 1.918-1.347 111 111 0 0 0 2.032-1.531 71 71 0 0 0 2.902-2.363q.518-.45 1.033-.903l1.117-.982q.62-.547 1.25-1.082.681-.578 1.377-1.137.708-.569 1.428-1.123c.72-.554.963-.733 1.447-1.096q.73-.545 1.465-1.082.732-.531 1.467-1.058a580 580 0 0 1 2.986-2.131 71 71 0 0 1 1.682-1.14 51 51 0 0 1 1.87-1.175 40 40 0 0 1 2.108-1.168 36 36 0 0 1 2.258-1.07c.79-.347 1.601-.644 2.418-.922.768-.26 1.546-.479 2.33-.683.784-.207 1.58-.37 2.377-.51.881-.158 1.773-.23 2.666-.266.964-.04 1.923.05 2.875.188 1.046.154 2.044.494 3.018.894.881.375 1.686.89 2.459 1.45.593.439 1.136.94 1.66 1.459.447.449.858.93 1.258 1.421.378.467.729.956 1.068 1.452.316.462.61.94.898 1.42a44 44 0 0 1 1.523 2.791c.246.487.477.982.702 1.478q.321.713.621 1.434c.194.46.38.921.567 1.384q.25.631.503 1.262.234.578.475 1.152c.141.333.284.662.438.989q.203.434.431.857.286.529.578 1.05.315.563.631 1.122l.658 1.162c.204.36.405.721.612 1.078.126.205.235.421.38.614.158.223.328.44.495.656V6.803Z" style="fill:red;fill-opacity:1;fill-rule:nonzero;stroke:none"/></clipPath><clipPath id="clipPath15452" clipPathUnits="userSpaceOnUse"><path id="path15454" d="M0 0v249.19h203.941l-1.459-1.91q2.349-1.794 4.692-3.594c.172-.133.337-.274.508-.409l-.036-.062-.171-.319a16 16 0 0 1-.549-1.1q-.105-.23-.205-.464l-.047-.107q-.1-.14-.201-.276l-.29-.375a6 6 0 0 0-.154-.191c-.055-.064-.052-.059-.107-.117l-.137-.141 11.463-11.006a19 19 0 0 1 .936 1.03q.185.225.367.455l6.832-8.981q.103.08.207.158.132.1.27.194c.081.055.147.096.243.15q.215.125.434.24.293.153.59.301.3.15.601.297l.415.195c.742-.97 1.521-1.91 2.238-2.9a294 294 0 0 0 5.377-7.649 1053 1053 0 0 0 5.76-8.523c1.945-2.904 3.88-5.815 5.816-8.727q2.24-3.37 4.473-6.744l-.067-.031a451 451 0 0 1-4.379-2.254c-2.613-1.328-5.104-2.872-7.552-4.478-1.718-1.146-3.375-2.376-5.018-3.625a152 152 0 0 1-3.445-2.715 179 179 0 0 1-2.48-2.045l10.642-12.71-.502-.128q-1.71-.444-3.403-.945a49 49 0 0 1-3.724-1.278c-.114-.044-.22-.104-.334-.15l-2.596 2.883c1.102 1 2.356 1.82 3.7 2.457.426.204.951.405 1.378.549.327.097-.191-.05-.246-.065a86 86 0 0 1-1.033-.293 32 32 0 0 1-3.021-1.04c-.48-.188-.953-.391-1.424-.598q-.72-.315-1.428-.655a69 69 0 0 1-1.287-.636c-.432-.22-.858-.45-1.285-.678l-.994-.526q-.602-.315-1.198-.638a54 54 0 0 1-1.531-.88 35 35 0 0 1-1.87-1.194 37 37 0 0 1-3.197-2.457 25 25 0 0 1-2.277-2.208 28 28 0 0 1-1.55-1.894l25.318-19.195c-.072-.085-.214-.258-.238-.272-.23-.242-.487-.5-.69-.66.084.071.323.27.2.176.173.131.225.173.374.277.09.064-.009-.007-.06-.035-.07-.038.27.167.201.129.168.1.342.2.508.297q.435.236.877.467l.922.486 3.037-4.01c.117.09.468.35.26.213.187.12.149.107.37.227.187.095.371.195.563.279.428.168.861.322 1.303.451q1.202.358 2.418.672c1.005.263 2.011.518 3.017.777q1.615.416 3.227.842a183 183 0 0 1 6.693 1.88c.65.198 1.296.403 1.944.604l24.65-29.431c.42.351.84.703 1.266 1.047.47.38.94.758 1.422 1.125.07.054.115.098.257.209q1.364.71 2.735 1.41a58 58 0 0 0 4.127 1.918c.041-.091.086-.18.127-.272.31-.673.585-1.364.865-2.05a49 49 0 0 0 .562-1.528c.092-.259.21-.61.477-1.443a65 65 0 0 1 1.305-3.615l5.111 2.029V0Zm209.947 241.453-2.627.72c.099.372.234.732.39 1.08.752-.592 1.496-1.195 2.237-1.8" style="fill:red;fill-opacity:1;fill-rule:nonzero;stroke:none"/></clipPath><style id="style2">.cls-3{fill:#fff}.cls-23{stroke:#000;stroke-linecap:round;stroke-linejoin:round}.cls-18{fill:#c9c9c9}.cls-23{stroke-width:6.06px}</style></defs><g id="g16026" style="stroke:#871324;stroke-width:2.7;stroke-miterlimit:4;stroke-dasharray:none;stroke-opacity:1" transform="translate(-.411 -1.113)"><path id="path11314" d="M208.44 137.15a284.8 284.8 0 0 0 96.645 39.386" style="fill:none;stroke:#871324;stroke-width:2.7;stroke-linecap:butt;stroke-linejoin:round;stroke-miterlimit:4;stroke-dasharray:none;stroke-opacity:1"/><path id="path11318" d="m208.216 237.454 96.491-61.097" style="fill:none;stroke:#871324;stroke-width:2.7;stroke-linecap:butt;stroke-linejoin:round;stroke-miterlimit:4;stroke-dasharray:none;stroke-opacity:1"/><path id="path11452" d="m207.998 237.87.442-100.72" style="fill:#871324;fill-opacity:1;stroke:#871324;stroke-width:2.7;stroke-linecap:butt;stroke-linejoin:round;stroke-miterlimit:4;stroke-dasharray:none;stroke-opacity:1"/></g><path id="path16181" d="M208.44 137.15c.093 31.337-.159 62.674-.275 94.011.18 1.228-.276 2.908.25 3.937 31.4-19.59 62.597-39.515 93.895-59.273-3.21-1.307-7.123-1.83-10.602-2.826-28.145-7.271-55.315-18.616-80.017-33.982-1.076-.542-2.17-1.63-3.251-1.868z" style="font-variation-settings:normal;opacity:1;vector-effect:none;fill:#871324;fill-opacity:1;stroke:none;stroke-width:.224716;stroke-linecap:butt;stroke-linejoin:miter;stroke-miterlimit:4;stroke-dasharray:none;stroke-dashoffset:0;stroke-opacity:1;-inkscape-stroke:none;stop-color:#000;stop-opacity:1"/><path id="path308" d="M100.7 227.19a21.7 21.7 0 0 0 10.25-6.38l.57-.59 26.81-45.9 8.57 10.42a187 187 0 0 0 16.75 20.36l2.41-2.28-2.42 2.31c21.45 22.54 45.73 36.46 72.16 41.37a51.7 51.7 0 0 0 26.48 1.71c5.69-.56 10-2 13.06-4.38a52.5 52.5 0 0 0-2.38-95.47l-.48-.19a50.5 50.5 0 0 0-6.09-3.09 52.12 52.12 0 0 0-40.23-.46 52 52 0 0 0-4.11 1.85 62.8 62.8 0 0 1-13.61-9.32 125 125 0 0 0 17.74-9.39c19.5-12.45 33-29.15 39-48.3 5.52-17.59 3.52-34-5.8-47.49C246.77 13.72 220.95 1.78 190.32.03h-.09a173 173 0 0 0-44.39 4.95c-31.81 7.87-54.3 24.23-65 47.34-4.51 9.69-6.24 18.81-5.2 27.19a26.24 26.24 0 0 0-11.58 8.2c-19.75 5.57-33.81 19.15-35.43 20.77l-.1.1a9.6 9.6 0 0 0-1.82 2.59 9.84 9.84 0 0 0-.16 8.32A138 138 0 0 0 4.24 150.4a9.86 9.86 0 0 0 2.39 11.86q-1.06 2.52-2 5l-.13.36c-.3.87-.59 1.71-.84 2.5l-.17.55c-.21.64-.4 1.29-.59 1.93l-.27 1q-.24.87-.45 1.71c-.1.39-.2.78-.29 1.17l-.3 1.3c-.14.62-.26 1.24-.38 1.86-.05.21-.08.43-.12.63-.17.87-.31 1.76-.44 2.63l-.06.36c-.21 1.54-.38 3.08-.49 4.56v.46c-.05.8-.08 1.61-.1 2.4v4.64c0 .31.07.93.11 1.41s.06.65.1 1c.06.56.13 1.12.22 1.68v.11c0 .17 0 .35.08.51.11.67.24 1.35.38 2l.1.45c.18.79.35 1.49.53 2.14a9.6 9.6 0 0 0 .65 1.68 6 6 0 0 0 .35.63 9 9 0 0 0 .58.89c.15.2.31.39.5.61a8 8 0 0 0 .68.7 8 8 0 0 0 .63.54 5 5 0 0 0 .54.4 7 7 0 0 0 .66.43c.18.1.36.2.54.28h.08a10 10 0 0 0 1.22.49l.26.09a11 11 0 0 0 1.16.27l.41.06a8 8 0 0 0 1.09.08h.54c.55 0 1.11-.06 1.69-.11h.38l1-.1a9.87 9.87 0 0 0 4.83 4.12 9.83 9.83 0 0 0 10.53-2.08l19.76-18.98h.06a110 110 0 0 0 13.13-13.21l12.39 28.93.08.17c.71 1.54 7.28 15.1 18.71 17a16.4 16.4 0 0 0 3.52.2m.14 2.18.26 1.16" clip-path="url(#clipPath15452)" style="fill:#871324"/><g id="g3807"><path id="path2355" d="M163.406 102.007s18.342 47.669 129.307 76.084l-73.53 43.614C138.232 188.707 115.786 108.36 115.786 108.36l34.945-8.301" class="cls-3" style="fill:#000;stroke-width:1"/><path id="path3084" d="m219.78 220.735-13.805 8.49" style="fill:none;stroke:#000;stroke-width:1px;stroke-linecap:butt;stroke-linejoin:miter;stroke-opacity:1"/><path id="path3241" d="M206.402 229.21a119 119 0 0 1-20.899-13.932" style="fill:#000;stroke:#000;stroke-width:1px;stroke-linecap:butt;stroke-linejoin:miter;stroke-opacity:1"/><path id="path3608" d="M213.176 219.088a42 42 0 0 1-4.64 2.592c-1.753.885-3.533 1.716-5.282 2.606-.221.136-.483.233-.662.42.197.436.53.817.78 1.232.414.61.807 1.238 1.237 1.835.524.262 1.019.603 1.57.801.952-.534 1.874-1.138 2.813-1.7 2.998-1.841 6-3.676 8.989-5.53.164-.187-.174-.296-.3-.347a265 265 0 0 1-4.41-1.916c-.03.01-.068-.014-.095.007" style="font-variation-settings:normal;opacity:1;vector-effect:none;fill:#000;fill-opacity:1;stroke:none;stroke-width:.224716;stroke-linecap:butt;stroke-linejoin:miter;stroke-miterlimit:4;stroke-dasharray:none;stroke-dashoffset:0;stroke-opacity:1;-inkscape-stroke:none;stop-color:#000;stop-opacity:1"/></g><path id="path310" d="m233.18 188.88-11.09-3.26 12.11-27.34s-22.72-4.58-37.71-24c0 0 48.63-13.87 62.14-56.89s-24.84-68-68.71-70.54c0 0-78.89-3.41-102.9 48.33-14.05 30.26 5.09 46.14 23.4 54.1l-51.59 45.38 22.65 52.96s10.6 23 24.53 8.48l31.37-53.69 15 18.21a180 180 0 0 0 16.28 19.8c17.45 18.34 43.16 37.1 77.11 40.61 69.73 7.19-12.59-52.15-12.59-52.15" clip-path="url(#clipPath3204)" style="opacity:1"/><path id="path312" d="M177.5 126.47c21.84-4.53 40.88-14.05 53.9-32.83 20.32-29.31 7.71-63.65-26.85-70.79-33.9-7-64.33 1.82-90.11 25.29-6.43 5.85-11.34 12.82-13.8 21.3-3.57 12.28 10.34 27.07 22.52 24.66.56-6.64.07-13.42 1.86-19.54 4.75-16.24 16.09-27.29 30.81-34.94a55.65 55.65 0 0 1 29.13-6.27c21.76 1.17 33.09 17.08 26.62 37.85-6.08 19.54-19.78 31.83-38.36 39.11-7 2.74-14.31 4.52-22.87 3.5 12.16-19.62 24.83-38.14 34.84-58.4 0 0-22.74-12.18-33.36 12.38a52.3 52.3 0 0 0-5.06 8.29c-15 29.43-33.13 56.61-62.21 74.51-1.25.77-2.13 3.71-1.75 5.3 2.75 11.53 5.86 23 8.93 34.42a13 13 0 0 0 1.59 2.84c1-.67 2.33-1.12 3-2q20.63-29.27 41.21-58.53c.76-1.09 1.66-2.09 2.5-3.14.63.56.81.65.86.78.78 2 1.52 4 2.32 6 6.15 15.25 13.68 29.64 26.4 40.58 16.11 13.84 34.23 15.62 53.69 8.55 1.12-.41 2-1.43 4.11-3a47 47 0 0 0-4.68-1.06 49.27 49.27 0 0 1-28.78-12.93c-10.06-9-16.66-20.26-21.43-32.74-3.02-7.8-3.02-7.53 4.97-9.19" class="cls-3" style="fill:#fff"/><path id="path314" d="M173.589 125.558s12.888 33.492 90.854 53.458l-51.663 30.643c-56.88-23.184-72.65-79.637-72.65-79.637l24.553-5.833" class="cls-3" style="fill:#fff;stroke-width:1"/><path id="path320" d="M228.05 56.88a30.9 30.9 0 0 0-11.71-14.26c7.34 11.77 9.81 22.92 7.33 33.22-3.25 13.51-14.93 25.4-34.74 35.34-2.79 1.4-27.87 10.87-32.54 10.68-2.75 3.51-1.16 7.85-.28 9.66 18.44 34.4 34.34 41.2 36.21 41.9l12.07 5.66a2.4 2.4 0 0 0 1 .23 2.47 2.47 0 0 0 1-4.7l-12.17-5.71-.24-.09c-.16-.06-16.3-6.14-35-42.31a108.6 108.6 0 0 0 15.27-4.48c7.59-2.63 15.57-5.79 16.85-6.43 21.16-10.63 33.72-23.61 37.32-38.6a40.64 40.64 0 0 0-.37-20.11" class="cls-18" style="fill:#c9c9c9"/><path id="path338" d="M123.96 57.62c-.18.12 0-.14.71-1l.74-1c3-4.4.59-7.55.59-7.55a62 62 0 0 0-6 7.38c-19 17.56-8.36 26.3-8.36 26.3a2.23 2.23 0 0 0 1.71.81h.06a2.24 2.24 0 0 0 2.17-2.28 31.8 31.8 0 0 1 1.58-9 49 49 0 0 1 6.8-13.66" class="cls-18" style="fill:#c9c9c9"/><path id="path340" d="M140.04 129.43s-6.7-15.62 10.3-15.62c0 0-25.86-3.85-14.8 21.6" class="cls-18" style="fill:#c9c9c9"/><path id="path342" d="M102.87 94.38c-18.73-11.46-28.22-5.53-32.95 2.06-19.73 4.34-34.36 19.09-34.36 19.09a13.62 13.62 0 0 1 8.89 1.09c-20.17 15.59-31.39 38.2-31.39 38.2a7.76 7.76 0 0 1 8.54-.43c-10.22 17.41-14 35.27-10.5 47.6 15-.58 34.21-12.93 48.79-33 6.82-9.37 11.81-20.11 16-31.14 1.56-4.08 3-8.2 4.43-12.3.37-1.09 1.13-3.32 1.76-5.9 18.88-3.67 43.28-11.51 20.79-25.27" style="fill:#828282"/><path id="path344" d="M9.59 204.62a3 3 0 0 1-1.41-1.81c-3.5-12.48-.2-29.61 8.83-46.43a5 5 0 0 0-2.22.93 3 3 0 0 1-4.44-3.84 128.5 128.5 0 0 1 27.38-35.22 10 10 0 0 0-1.47.22 3 3 0 0 1-2.85-5.08c.61-.61 14.9-14.84 34.64-19.63a19.32 19.32 0 0 1 12.53-8.47c6.72-1.27 14.75.92 23.87 6.51 7.84 4.79 11.23 9.51 10.35 14.41-.78 4.3-4.8 7.88-12.31 10.95a104.7 104.7 0 0 1-17.93 5.12c-.53 1.89-1.06 3.44-1.35 4.29-1.67 4.88-3.09 8.81-4.46 12.4-5.12 13.38-10.34 23.5-16.41 31.85-14.66 20.14-34.73 33.57-51.12 34.2a3 3 0 0 1-1.63-.4m13.52-52.86a3 3 0 0 1 1.41 1.82 3 3 0 0 1-.31 2.34c-8.91 15.2-12.91 31.31-10.75 42.84 6.31-.8 13.35-3.7 20.52-8.48a94.5 94.5 0 0 0 23.46-23c5.75-7.9 10.73-17.58 15.65-30.45 1.35-3.51 2.74-7.39 4.39-12.19.35-1 1.09-3.18 1.68-5.63a3 3 0 0 1 2.37-2.26c24.88-4.89 27.11-10.5 27.3-11.58.37-2-2.38-5-7.54-8.18-7.81-4.77-14.39-6.69-19.58-5.72-3.74.71-6.84 3-9.22 6.8a3 3 0 0 1-1.92 1.36c-11.63 2.56-21.52 9-27.33 13.52a18 18 0 0 1 2.49 1 3 3 0 0 1 .58 5.14c-13.26 10.26-22.63 23.79-27.26 31.38a11.5 11.5 0 0 1 4 1.34z"/><path id="path346" d="M15.9 165.67c-5.8 13.58-7.52 26.65-4.8 36.32a38.1 38.1 0 0 0 11.63-2.48v0l.31 7.06 19.68-19.06c-7.03-13.03-19.31-19.18-26.82-21.84" style="fill-rule:evenodd;stroke:#000;stroke-width:6.06px;stroke-linecap:round;stroke-linejoin:round"/><path id="path348" d="M65.96 159.62a160 160 0 0 0 10-21.74c.41-1.06.81-2.12 1.2-3.19a185 185 0 0 0-35-24.74 69 69 0 0 0-6.54 5.57 13.62 13.62 0 0 1 8.89 1.09 105.6 105.6 0 0 0-15.28 14.67c11.67 5.34 30.31 15.44 36.73 28.34" class="cls-23" style="stroke:#000;stroke-width:6.06px;stroke-linecap:round;stroke-linejoin:round"/><path id="path350" d="M96.18 116.2c13.93-4.41 23.68-11.42 6.69-21.82-14.39-8.8-23.32-7.34-28.83-2.76 7.41 4.47 17.01 12.28 22.14 24.58" class="cls-23" style="stroke:#000;stroke-width:6.06px;stroke-linecap:round;stroke-linejoin:round"/><path id="path45345" d="m304.132 173.928 3.417.738-3.341 2.23" style="fill:#871324;fill-opacity:1;stroke:none;stroke-width:1px;stroke-linecap:butt;stroke-linejoin:miter;stroke-opacity:1"/></svg>