<svg xmlns="http://www.w3.org/2000/svg" id="Layer_1" width="229.12" height="229.377" data-name="Layer 1" version="1.1"><defs id="defs4"><style id="style2">.cls-6,.cls-7{fill:#fff}.cls-7{stroke-miterlimit:10;stroke:#fff;stroke-width:1.58px}</style></defs><circle id="circle128" cx="114.56" cy="114.56" r="114.56" style="fill:#223266"/><path id="path130" d="M92.99 227.61a115.63 115.63 0 0 0 41-.13L122.66 48.99l-9-12.49-8 13z" class="cls-6" style="fill:#fff"/><path id="line132" d="m143.29 126.98-3.78-107.1" class="cls-6" style="fill:#fff"/><path id="path134" d="m76.13 132.4-10.19 37.79h-4.56l-9.48-34.77-9.48 34.77h-4.68L27.56 132.4h-5.39v-3.67h15.46v3.67h-5.57L40 164.74l9.83-36h4.14l9.84 36 7.93-32.34h-5.57v-3.67h15.32v3.67z" class="cls-7" style="fill:#fff;stroke:#fff;stroke-width:1.58px;stroke-miterlimit:10"/><path id="path136" d="M193.23 99.93h5.92v3.67h-16.66v-3.67h6.64V68.48l-13.15 29.73h-3.89l-13.15-29.73v31.45h6.63v3.67h-16.58v-3.67h5.92V65.81h-5.92v-3.68h11.25l13.8 30.92 13.86-30.92h11.25v3.67h-5.92z" class="cls-7" style="fill:#fff;stroke:#fff;stroke-width:1.58px;stroke-miterlimit:10"/><path id="path234" d="m185.55 164.96-.76-.56q-2.7-2-5.43-4a.65.65 0 0 1-.28-.88c.75-2.27 1.48-4.56 2.21-6.84l.12-.41c-.17 0-.25.09-.34.15-2 1.45-4 2.89-6 4.35a.47.47 0 0 1-.66 0l-6-4.29-.48-.34c.2.62.36 1.14.52 1.65.63 1.94 1.25 3.89 1.89 5.82a.53.53 0 0 1-.23.71c-2 1.45-4 2.91-5.94 4.37-.11.08-.26.12-.32.34h7.85a.47.47 0 0 1 .54.39q1.13 3.51 2.27 7c.05.14.05.31.24.44.38-1.17.76-2.32 1.13-3.47.44-1.33.88-2.66 1.29-4 .09-.31.25-.38.54-.38h7.43c.11.04.26.12.41-.05z" class="cls-6" style="fill:#fff"/><path id="path236" d="m202.9 131.95-.76.56-5.44 4a.65.65 0 0 0-.28.88c.76 2.27 1.48 4.56 2.21 6.84 0 .13.08.27.13.41-.18 0-.26-.08-.35-.15-2-1.45-4-2.89-6-4.35a.47.47 0 0 0-.66 0c-2 1.44-4 2.86-6 4.29l-.47.34.51-1.65c.63-1.94 1.25-3.88 1.89-5.82a.53.53 0 0 0-.22-.71q-3-2.18-5.95-4.37c-.11-.08-.26-.12-.32-.34h7.83a.46.46 0 0 0 .54-.39c.75-2.34 1.51-4.67 2.27-7 .05-.14.05-.31.24-.43.38 1.16.76 2.31 1.13 3.46.44 1.33.88 2.66 1.29 4a.47.47 0 0 0 .55.38h7.42a.53.53 0 0 1 .44.05z" class="cls-6" style="fill:#fff"/><path id="path238" d="m169.9 131.95-.76.56-5.44 4a.65.65 0 0 0-.28.88c.76 2.27 1.48 4.56 2.21 6.84 0 .13.08.27.13.41-.18 0-.26-.08-.35-.15-2-1.45-4-2.89-6-4.35a.47.47 0 0 0-.66 0c-2 1.44-4 2.86-6 4.29l-.47.34.51-1.65c.63-1.94 1.25-3.88 1.89-5.82a.53.53 0 0 0-.22-.71q-3-2.18-5.95-4.37c-.11-.08-.26-.12-.32-.34h7.83a.46.46 0 0 0 .54-.39c.75-2.34 1.51-4.67 2.27-7 .05-.14.05-.31.24-.43.38 1.16.76 2.31 1.13 3.46.44 1.33.88 2.66 1.29 4a.47.47 0 0 0 .55.38h7.42a.53.53 0 0 1 .44.05z" class="cls-6" style="fill:#fff"/><path id="path234-8" d="m63.183 68.288-.76.56q-2.7 2-5.43 4a.65.65 0 0 0-.28.88c.75 2.27 1.48 4.56 2.21 6.84l.12.41c-.17 0-.25-.09-.34-.15-2-1.45-4-2.89-6-4.35a.47.47 0 0 0-.66 0l-6 4.29-.48.34c.2-.62.36-1.14.52-1.65.63-1.94 1.25-3.89 1.89-5.82a.53.53 0 0 0-.23-.71c-2-1.45-4-2.91-5.94-4.37-.11-.08-.26-.12-.32-.34h7.85a.47.47 0 0 0 .54-.39q1.13-3.51 2.27-7c.05-.14.05-.31.24-.44.38 1.17.76 2.32 1.13 3.47.44 1.33.88 2.66 1.29 4 .09.31.25.38.54.38h7.43c.11-.04.26-.12.41.05z" class="cls-6" style="fill:#fff"/><path id="path236-1" d="m80.533 101.298-.76-.56-5.44-4a.65.65 0 0 1-.28-.88c.76-2.27 1.48-4.56 2.21-6.84 0-.13.08-.27.13-.41-.18 0-.26.08-.35.15-2 1.45-4 2.89-6 4.35a.47.47 0 0 1-.66 0c-2-1.44-4-2.86-6-4.29l-.47-.34.51 1.65c.63 1.94 1.25 3.88 1.89 5.82a.53.53 0 0 1-.22.71q-3 2.18-5.95 4.37c-.11.08-.26.12-.32.34h7.83a.46.46 0 0 1 .54.39c.75 2.34 1.51 4.67 2.27 7 .05.14.05.31.24.43.38-1.16.76-2.31 1.13-3.46.44-1.33.88-2.66 1.29-4a.47.47 0 0 1 .55-.38h7.42a.53.53 0 0 0 .44-.05z" class="cls-6" style="fill:#fff"/><path id="path238-3" d="m47.533 101.298-.76-.56-5.44-4a.65.65 0 0 1-.28-.88c.76-2.27 1.48-4.56 2.21-6.84 0-.13.08-.27.13-.41-.18 0-.26.08-.35.15-2 1.45-4 2.89-6 4.35a.47.47 0 0 1-.66 0c-2-1.44-4-2.86-6-4.29l-.47-.34.51 1.65c.63 1.94 1.25 3.88 1.89 5.82a.53.53 0 0 1-.22.71q-3 2.18-5.95 4.37c-.11.08-.26.12-.32.34h7.83a.46.46 0 0 1 .54.39c.75 2.34 1.51 4.67 2.27 7 .05.14.05.31.24.43.38-1.16.76-2.31 1.13-3.46.44-1.33.88-2.66 1.29-4a.47.47 0 0 1 .55-.38h7.42a.53.53 0 0 0 .44-.05z" class="cls-6" style="fill:#fff"/></svg>