<svg xmlns="http://www.w3.org/2000/svg" xmlns:xlink="http://www.w3.org/1999/xlink" width="252.263" height="251.88" version="1.0"><defs><radialGradient xlink:href="#a" id="b" cx="362.177" cy="386.004" fx="362.177" fy="386.004" r="126.131" gradientTransform="matrix(1.13773 .88039 -.61106 .78967 186 -238)" gradientUnits="userSpaceOnUse"/><linearGradient id="a"><stop offset="0" stop-color="#ffd52a"/><stop offset="1" stop-color="#ff7f2a"/></linearGradient></defs><g stroke="#000" stroke-width="4.924"><path fill="url(#b)" d="M290.079 500.005c-30.113-61.16-4.838-135.198 56.417-165.265 61.255-30.066 135.41-4.83 165.522 56.33 30.113 61.16 4.838 135.199-56.417 165.265-61.2 30.039-135.271 4.89-165.444-56.171" transform="translate(-274.917 -319.599)"/><path fill="none" d="M3.746 113.593c19.447-47.327 235.47-.823 244.77 24.692M155.935 4.947c103.996 36.627 55.803 231.285-41.852 243.22M74.768 13.588c59.184 4.939 98.077 93.83 161.066 61.73m-215.6 116.055c84.971 12.757 197.845-105.354 205.454 8.642"/></g></svg>