<?xml version="1.0" encoding="UTF-8" standalone="no"?>
<svg xmlns="http://www.w3.org/2000/svg" xmlns:xlink="http://www.w3.org/1999/xlink" width="252.26271" height="251.88049" version="1.0">
  <defs>
    <linearGradient id="a">
      <stop offset="0" stop-color="#ffffff"/>
      <stop offset="1" stop-color="#ffd700"/>
    </linearGradient>
    <radialGradient xlink:href="#a" id="b" cx="362.17661" cy="386.00372" fx="362.17661" fy="386.00372" r="126.13136" gradientTransform="matrix(1.13773 .88039 -.61106 .78967 186 -238)" gradientUnits="userSpaceOnUse" />
  </defs>
  <g stroke="#000000" stroke-width="4.92431021" transform="translate(-274.91695,-319.59866)">
    <path fill="url(#b)" d="M 290.0785,500.00544 C 259.96555,438.84531 285.24054,364.80661 346.49588,334.74047 C 407.75122,304.67433 481.90518,329.91004 512.01812,391.07016 C 542.13106,452.23029 516.85608,526.269 455.60074,556.33513 C 394.4012,586.37388 320.32972,561.22529 290.15667,500.16393" />
    <path fill="none" d="M 278.66319,433.19164 C 298.10952,385.86469 514.13298,432.36856 523.43341,457.88397 M 430.85192,324.54541 C 534.84755,361.17236 486.65446,555.83018 389.00002,567.76481 M 349.6846,333.18772 C 408.86911,338.12619 447.76178,427.01856 510.75101,394.91854 M 295.15031,510.97246 C 380.12235,523.73016 492.99566,405.61854 500.60509,519.61478" />
  </g>
</svg>
