<svg xmlns="http://www.w3.org/2000/svg" viewBox="0 0 10090.52 252.263"><style>:root{--c0:#ff7f2a;--c1:#ffd52a}#gold:target~*{--c0:#ffd700;--c1:#ffffff}</style><g id="gold"/><defs><linearGradient id="a"><stop offset="0" style="stop-color:var(--c1)"/><stop offset="1" style="stop-color:var(--c0)"/></linearGradient><radialGradient href="#a" id="b" cx="362.177" cy="386.004" r="126.131" gradientTransform="matrix(1.13773 .88039 -.61106 .78967 186 -238)" gradientUnits="userSpaceOnUse"/><path id="ball" fill="url(#b)" stroke="#000" stroke-width="4.924" d="M290.079 500.005c-30.113-61.16-4.838-135.198 56.417-165.265 61.255-30.066 135.41-4.83 165.522 56.33 30.113 61.16 4.838 135.199-56.417 165.265-61.2 30.039-135.271 4.89-165.444-56.171" transform="translate(-274.917 -319.599)"/></defs><svg x="0" y="0" width="252.263" height="252.263" viewBox="0 -0.1915 252.263 252.263"><use href="#ball"/><path fill="none" stroke="#000" stroke-width="4.924" stroke-linejoin="round" stroke-linecap="round" d="m249 141 0-1-1-2-1-3-4-3-4-3-6-4-6-3-8-3-9-3-10-3-11-2-11-3-12-2-12-2-13-2-13-2-13-1-12-1-13-1-12-1-11 0-11 1-10 0-10 1-8 1-7 2-6 1-5 2-3 2-3 3-1 2m86 133 6 1 8 1 9 0 9-2 9-3 8-4 9-5 9-7 8-8 7-8 8-10 6-10 6-11 6-12 4-12 4-12 3-13 2-13 1-12 0-12-1-12-2-12-2-10-4-10-4-9-5-9-6-7-7-6-7-5-7-3-3-1m72 59 1 4-1 3-2 3-2 3-3 1-2 2-3 1-2 0-3 0-2 0-3 0-3-1-2-1-3-1-3-2-3-2-4-2-4-3-5-4-6-4-8-6-9-6-12-8-15-8-19-8-22-6-22-1-19 6-8 6m161 186 4-4 7-11 3-10 1-9-1-8-1-6-2-5-2-4-2-3-2-3-2-2-3-1-2-2-3-1-2 0-3-1-3 0-4 1-4 0-5 1-6 2-6 2-9 4-10 3-13 6-17 6-21 7-23 6-23 4-19 1-11-3-5-4 0 0"/></svg><svg x="252.263" y="0" width="252.263" height="252.263" viewBox="0 -0.1915 252.263 252.263"><use href="#ball"/><path fill="none" stroke="#000" stroke-width="4.924" stroke-linejoin="round" stroke-linecap="round" d="m249 136 0-1-1-3-2-3-4-4-5-3-7-3-7-3-9-3-9-2-10-3-11-2-12-2-12-2-13-2-13-1-13-1-12-1-13-1-12 0-12 1-12 0-10 1-10 1-9 2-7 1-7 2-5 2-4 3-3 3-2 2 0 2m81 126 3 1 9 2 10 1 10 0 10-2 10-3 10-4 10-5 10-7 9-8 8-8 8-10 8-10 6-11 5-12 5-12 4-12 2-13 2-13 0-12 0-12-2-12-2-12-4-10-5-10-5-9-7-9-7-7-8-6-8-5-6-2m68 61 1 3 0 3-1 3-2 1-1 2-2 1-2 0-2 0-2 0-2 0-2-1-2-1-3-1-3-2-3-2-3-2-4-3-5-4-6-4-7-6-9-6-12-8-16-8-20-8-24-6-26-1-22 6-16 9-3 4m176 172 7-8 5-10 3-9 0-8 0-6-1-5-1-4-1-3-2-3-2-2-2-1-2-2-2-1-2 0-3-1-3 0-3 1-3 0-5 1-5 2-6 2-8 4-10 3-13 6-17 6-22 7-25 6-26 4-22 1-15-3-8-4-4-4-1-1"/></svg><svg x="504.526" y="0" width="252.263" height="252.263" viewBox="0 -0.1915 252.263 252.263"><use href="#ball"/><path fill="none" stroke="#000" stroke-width="4.924" stroke-linejoin="round" stroke-linecap="round" d="m250 132 0 0-1-3-2-4-3-3-5-3-5-3-7-3-8-2-9-3-10-2-11-2-12-2-12-2-12-1-13-1-13-1-13-1-12 0-13 1-12 0-12 1-10 1-11 2-9 1-8 2-7 2-6 3-5 3-3 2-2 3-1 3m71 118 3 1 11 4 10 2 11 1 12 0 11-2 11-3 11-4 11-5 10-7 10-8 9-8 8-10 8-10 6-11 6-12 5-12 3-12 2-13 2-13 0-12-2-12-2-12-3-12-5-10-6-10-6-9-8-9-8-7-9-6-7-3m61 62 1 1 0 3 0 1-1 2-1 1-1 0-1 0-2 0-1 0-2-1-2-1-2-1-2-2-3-2-3-2-4-3-4-4-5-4-7-6-9-6-12-8-16-8-21-8-26-6-28-1-25 6-19 9-12 12-2 2m195 152 5-8 4-9 2-8 1-6 0-5-1-4 0-3-1-3-2-2-1-1-2-2-1-1-2 0-2-1-3 0-2 1-4 0-3 1-5 2-6 2-7 4-10 3-12 6-17 6-21 7-27 6-28 4-25 1-18-3-12-4-6-4-4-3-1-2"/></svg><svg x="756.789" y="0" width="252.263" height="252.263" viewBox="0 -0.1915 252.263 252.263"><use href="#ball"/><path fill="none" stroke="#000" stroke-width="4.924" stroke-linejoin="round" stroke-linecap="round" d="m250 127 0-2-2-3-2-3-4-3-5-3-7-2-7-3-9-2-10-2-10-2-11-2-12-1-12-1-13-1-13-1-13 0-13 1-12 0-13 1-11 1-12 2-10 1-10 2-8 2-8 3-7 3-5 2-4 3-3 3-1 3 0 2m56 105 9 5 10 4 12 4 11 2 12 1 12 0 12-2 12-3 12-4 11-5 11-7 10-8 10-8 8-10 8-10 7-11 5-12 5-12 3-12 2-13 1-13-1-12-2-12-3-12-4-12-5-10-7-10-7-9-9-9-9-7-2-1m48 59 0 0 1 2-1 1 0 0-1 0 0 0-1 0-2-1-1-1-2-1-1-2-3-2-2-2-3-3-4-4-5-4-7-6-8-6-12-8-16-8-21-8-27-6-29-1-28 6-21 9-15 12-9 10-4 7m214 122 2-2 3-8 2-6 1-5 0-4 0-3-1-3 0-2-1-1-1-2-1-1-2 0-1-1-2 0-2 1-3 0-3 1-4 2-5 2-7 4-8 3-12 6-16 6-21 7-27 6-29 4-28 1-21-3-15-4-9-4-5-3-4-3-1-3-1-1"/></svg><svg x="1009.052" y="0" width="252.263" height="252.263" viewBox="0 -0.1915 252.263 252.263"><use href="#ball"/><path fill="none" stroke="#000" stroke-width="4.924" stroke-linejoin="round" stroke-linecap="round" d="m250 122-1-3-2-3-3-3-5-2-6-3-7-2-8-2-9-2-10-2-11-1-12-1-12-1-12-1-13 0-13 1-13 0-12 1-13 1-12 2-12 1-10 2-10 2-10 3-8 3-7 2-6 3-4 3-4 3-2 3 0 3 0 1m32 79 4 4 9 9 10 7 11 6 11 4 12 4 13 2 12 1 13 0 12-2 13-3 12-4 12-5 11-7 10-8 10-8 8-10 8-10 7-11 5-12 4-12 3-12 2-13 0-13-1-12-2-12-4-12-5-12-6-10-7-10-5-5m25 41 0 0 0 0 0 0-1-1-1-1-1-1-1-2-2-2-2-2-3-3-3-4-4-4-6-6-8-6-11-8-15-8-21-8-27-6-31-1-29 6-23 9-17 12-11 10-7 9-4 7-3 7 0 1m230 88 2-4 1-4 0-3 1-3 0-2-1-1 0-2-1-1-1 0-1-1-1 0-2 1-2 0-2 1-3 2-5 2-5 4-8 3-10 6-15 6-21 7-26 6-30 4-30 1-23-3-17-4-12-4-7-3-5-3-3-3-2-2-1-1-1-1 0 0 0 0"/></svg><svg x="1261.315" y="0" width="252.263" height="252.263" viewBox="0 -0.1915 252.263 252.263"><use href="#ball"/><path fill="none" stroke="#000" stroke-width="4.924" stroke-linejoin="round" stroke-linecap="round" d="m249 117 0-1-1-3-3-2-4-3-5-2-7-2-7-2-9-2-10-1-10-1-11-1-12-1-12 0-13 1-13 0-13 1-13 1-12 2-12 1-12 2-11 2-11 3-9 3-9 2-7 3-7 3-5 3-4 3-3 3-1 4 0 1m3 21 1 5 5 12 5 11 7 11 7 10 9 9 10 9 10 7 12 6 12 4 12 4 13 2 12 1 13 0 13-2 13-3 12-4 12-5 11-7 10-8 10-8 8-10 8-10 6-11 5-12 4-12 2-12 1-13 0-13-1-12-2-7m-4-15 0 0-1-1-1-2-1-2-1-2-2-3-3-4-4-4-5-6-7-6-10-8-14-8-20-8-27-6-31-1-30 6-24 9-18 12-13 10-8 9-5 7-4 7-3 4-2 4-1 4-1 2 0 1m4 73 1 1m235-14 0-2 1-1 0-2 0-1-1 0 0-1-1 0-1 1-1 0-2 1-2 2-3 2-5 4-6 3-9 6-14 6-19 7-26 6-30 4-30 1-26-3-19-4-13-4-9-3-7-3-4-3-3-2-2-1-2-1-1 0 0 0-1 0 0 0 0 1"/></svg><svg x="1513.578" y="0" width="252.263" height="252.263" viewBox="0 -0.1915 252.263 252.263"><use href="#ball"/><path fill="none" stroke="#000" stroke-width="4.924" stroke-linejoin="round" stroke-linecap="round" d="m4 136-1 2 0 1m246-26-1-2-2-3-3-2-5-2-6-2-7-2-8-1-9-1-10-1-11-1-12 0-12 1-12 0-13 1-13 1-13 2-12 1-13 2-12 2-11 3-11 3-10 2-9 3-8 3-7 3-6 3-4 3-3 4-2 3m9-59-4 9-3 12-2 12-1 13 1 13 2 12 3 12 5 12 5 11 7 11 9 10 9 9 10 9 10 7 12 6 12 4 12 4 13 2 13 1 13 0 12-2 13-3 12-4 11-5 11-7 10-8 9-8 8-10 7-10 6-11 2-3m-235-73 0 0 0 1m233-30-1-1-2-4-3-4-4-6-6-6-9-8-13-8-19-8-25-6-30-1-30 6-26 9-19 12-14 10-9 9-6 7-5 7-3 4-3 4-1 4-2 2-1 3-1 1 0 2-1 1m7 67 0 1 0 1 0 2 1 2 1 2 1 2m232-30 0 0 0 0 0 1-1 0 0 1-2 2-2 2-3 4-5 3-8 6-11 6-18 7-24 6-29 4-31 1-27-3-21-4-15-4-10-3-8-3-5-3-4-2-3-1-3-1-1 0-2 0-1 0 0 0-1 1"/></svg><svg x="1765.841" y="0" width="252.263" height="252.263" viewBox="0 -0.1915 252.263 252.263"><use href="#ball"/><path fill="none" stroke="#000" stroke-width="4.924" stroke-linejoin="round" stroke-linecap="round" d="m8 136-3 2-1 3 0 2m244-34 0-1-1-2-3-2-4-2-5-2-7-1-7-1-9-1-10-1-10 0-11 1-12 0-12 1-13 1-13 2-12 1-13 2-13 2-12 3-11 3-11 2-11 3-9 3-9 3-7 3-6 3-6 4-3 3m35-101-9 8-7 10-7 10-5 11-4 12-3 12-1 12-1 13 2 13 2 12 4 12 5 12 6 11 7 11 8 10 9 9 10 9 11 7 11 6 12 4 12 4 13 2 12 1 13 0 12-2 12-3 12-4 11-5 10-7 9-8 1 0m-202-115-1 0-1 1 0 0-1-1 0 0 0-2 0 0m225-41 0-1-5-6-8-8-11-8-17-8-24-6-29-1-30 6-25 9-20 12-14 10-10 9-7 7-6 7-4 4-3 4-2 4-2 2-2 3-1 1-1 2-1 1m9 67-1 1 0 1-1 2 0 2 1 2 0 3 2 4 2 4 2 5m225-42 0 2-2 2-2 4-3 3-6 6-9 6-15 7-22 6-28 4-31 1-27-3-22-4-16-4-12-3-9-3-6-3-5-2-4-1-3-1-2 0-2 0-2 0-1 0-1 1"/></svg><svg x="2018.104" y="0" width="252.263" height="252.263" viewBox="0 -0.1915 252.263 252.263"><use href="#ball"/><path fill="none" stroke="#000" stroke-width="4.924" stroke-linejoin="round" stroke-linecap="round" d="m14 136-4 2-3 3-2 3-1 2 0 0m244-41-1-1-2-2-3-2-5-1-6-1-7-1-8-1-9 0-10 1-11 0-11 1-12 1-13 2-12 1-13 2-13 2-12 3-13 3-12 2-11 3-11 3-9 3-9 3-8 3-7 4-6 3m50-117-2 1-9 7-9 8-8 8-7 10-5 10-5 11-3 12-3 12 0 12 0 13 1 13 3 12 4 12 5 12 6 11 7 11 9 10 9 9 9 9 11 7 11 6 11 4 12 4 12 2 12 1 11 0 12-2 11-3 11-4 8-4m-175-131-1 0-2 1-1 0-1-1-1 0 0-2-1-1 0-3 1-2m214-47-2-3-10-8-15-8-21-6-27-1-28 6-25 9-20 12-15 10-10 9-8 7-6 7-5 4-3 4-3 4-3 2-2 3-2 1-1 2-2 1m11 67-1 1-1 1-1 2 0 2-1 2 0 3 1 4 1 4 2 6 4 6 3 5m215-47-1 1-2 3-3 6-8 6-12 7-19 6-26 4-29 1-28-3-22-4-17-4-13-3-9-3-8-3-5-2-5-1-4-1-3 0-2 0-2 0-2 0-2 1"/></svg><svg x="2270.367" y="0" width="252.263" height="252.263" viewBox="0 -0.1915 252.263 252.263"><use href="#ball"/><path fill="none" stroke="#000" stroke-width="4.924" stroke-linejoin="round" stroke-linecap="round" d="m24 136-7 2-5 3-3 3-3 2-1 2 0 2m242-48 0 0-1-2-3-1-4-1-5-1-7-1-7 0-9 1-9 0-11 1-11 1-12 2-12 1-12 2-13 2-12 3-13 3-12 2-12 3-12 3-11 3-10 3-10 3-8 4-7 3m53-123-5 2-9 5-8 7-8 8-7 8-6 10-4 10-4 11-3 12-1 12-1 12 1 13 2 13 3 12 4 12 5 12 6 11 7 11 8 10 9 9 9 9 10 7 10 6 11 4 11 4 11 2 11 1 11 0 10-2 10-3 5-2m-154-137-2 0-1 1-2 0-2-1-1 0-2-2-1-1-1-3-1-3 0-4 1-2m203-49-1-2-13-8-18-6-24-1-27 6-24 9-19 12-15 10-11 9-8 7-6 7-5 4-4 4-4 4-3 2-2 3-3 1-2 2-2 1m13 67-1 1-2 1-1 2-2 2-1 2 0 3-1 4 1 4 1 6 2 6 4 8 6 6m203-49-1 3-4 6-10 7-16 6-23 4-28 1-26-3-22-4-18-4-13-3-10-3-8-3-7-2-5-1-4-1-4 0-3 0-2 0-3 0-2 1"/></svg><svg x="2522.63" y="0" width="252.263" height="252.263" viewBox="0 -0.1915 252.263 252.263"><use href="#ball"/><path fill="none" stroke="#000" stroke-width="4.924" stroke-linejoin="round" stroke-linecap="round" d="m36 136-8 2-7 3-6 3-4 2-3 2-2 2-1 2 0 0m242-52-1-1-2-1-3-1-5-1-6 0-7 1-8 0-9 1-10 1-10 2-12 1-11 2-13 2-12 3-13 3-12 2-13 3-12 3-12 3-11 3-11 3-9 4-9 3m49-127-3 2-8 4-8 5-8 7-6 8-6 8-4 10-4 10-3 11-2 12-1 12 0 12 1 13 3 13 3 12 4 12 5 12 6 11 7 11 7 10 8 9 9 9 9 7 9 6 10 4 10 4 10 2 9 1 10 0 9-2 6-2m-135-140-2 0-3 1-2 0-2-1-2 0-3-2-2-1-2-3-2-3-1-4-1-5 2-4m193-48-4-4-16-6-21-1-23 6-23 9-18 12-15 10-10 9-9 7-7 7-5 4-4 4-4 4-3 2-3 3-3 1-3 2-2 1m15 67-3 1-2 1-2 2-1 2-2 2-1 3-1 4-1 4 0 6 0 6 3 8 5 8 5 4m194-49-1 3-6 7-13 6-20 4-25 1-25-3-21-4-18-4-14-3-10-3-9-3-6-2-6-1-5-1-4 0-3 0-3 0-3 0-2 1"/></svg><svg x="2774.893" y="0" width="252.263" height="252.263" viewBox="0 -0.1915 252.263 252.263"><use href="#ball"/><path fill="none" stroke="#000" stroke-width="4.924" stroke-linejoin="round" stroke-linecap="round" d="m50 136-9 2-9 3-7 3-6 2-5 2-4 2-3 2-1 1 0 1m240-56 0 0-1-1-3-1-4 0-5 1-6 0-8 1-8 1-10 2-10 1-11 2-11 2-12 3-13 3-12 2-13 3-12 3-13 3-12 3-11 3-11 4-10 3m41-128-1 0-7 3-7 4-6 5-6 7-5 8-5 8-3 10-3 10-2 11-1 12 0 12 1 12 1 13 3 13 3 12 4 12 5 12 6 11 6 11 7 10 7 9 8 9 8 7 8 6 9 4 8 4 9 2 8 1 8 0 8-2m-117-142-3 0-2 1-3 0-3-1-3 0-3-2-3-1-3-3-3-3-3-4-3-5 0-6 1-4m186-47-11-5-17-1-20 6-20 9-17 12-14 10-11 9-8 7-7 7-6 4-4 4-4 4-4 2-3 3-3 1-3 2-3 1m16 67-3 1-2 1-3 2-2 2-2 2-2 3-2 4-2 4-1 6-1 6 1 8 3 8 6 8 2 1m185-48-1 4-9 6-16 4-22 1-23-3-20-4-18-4-13-3-11-3-9-3-7-2-6-1-5-1-4 0-4 0-3 0-3 0-3 1"/></svg><svg x="3027.156" y="0" width="252.263" height="252.263" viewBox="0 -0.1915 252.263 252.263"><use href="#ball"/><path fill="none" stroke="#000" stroke-width="4.924" stroke-linejoin="round" stroke-linecap="round" d="m66 136-11 2-9 3-9 3-8 2-7 2-6 2-4 2-3 1-2 1-1 1 0 0m240-58 0-1-2 0-4 1-4 0-6 1-7 1-8 2-9 1-9 2-11 2-11 3-12 3-12 2-12 3-13 3-13 3-12 3-12 3-12 4-11 3m28-129-3 1-6 3-5 4-5 5-4 7-4 8-3 8-2 10-2 10-1 11 0 12 1 12 1 12 2 13 3 13 3 12 4 12 5 12 5 11 6 11 6 10 6 9 6 9 7 7 7 6 7 4 7 4 7 2 7 1 6 0 3-1m-98-143-3 0-3 1-3 0-3-1-4 0-3-2-4-1-4-3-5-3-4-4-5-5-3-6 0-7 1-1m178-46-3-2-13-1-17 6-17 9-15 12-13 10-10 9-9 7-6 7-6 4-5 4-4 4-4 2-3 3-4 1-3 2-3 1m16 67-2 1-3 1-3 2-3 2-2 2-3 3-3 4-2 4-3 6-2 6-1 8 0 8 4 8 4 3m178-45-3 5-12 4-18 1-20-3-19-4-16-4-14-3-10-3-9-3-7-2-6-1-6-1-4 0-4 0-4 0-3 0-4 1"/></svg><svg x="3279.419" y="0" width="252.263" height="252.263" viewBox="0 -0.1915 252.263 252.263"><use href="#ball"/><path fill="none" stroke="#000" stroke-width="4.924" stroke-linejoin="round" stroke-linecap="round" d="m84 136-12 2-11 3-10 3-9 2-9 2-7 2-7 2-5 1-4 1-2 1-2 0 0 0m240-59 0 0-1 1-3 0-4 1-5 1-6 2-7 1-9 2-9 2-10 3-11 3-11 2-12 3-13 3-12 3-13 3-12 3-13 4-11 3m12-130-4 2-4 3-3 4-3 5-3 7-2 8-1 8-1 10-1 10 0 11 1 12 1 12 2 12 3 13 3 13 3 12 4 12 4 12 4 11 5 11 5 10 5 9 6 9 5 7 5 6 6 4 5 4 5 2 5 1 5 0 0 0m-79-144-3 0-4 1-3 0-4-1-4 0-4-2-4-1-6-3-5-3-6-4-6-5-6-6-4-7 1-6m174-43 0 0-8-1-13 6-14 9-14 12-11 10-9 9-8 7-7 7-5 4-5 4-4 4-4 2-4 3-3 1-4 2-3 1m16 67-3 1-3 1-3 2-3 2-3 2-3 3-4 4-3 4-3 6-4 6-3 8-2 8 0 8 3 6m175-44 0 1-8 4-13 1-18-3-17-4-15-4-12-3-11-3-8-3-7-2-6-1-6-1-4 0-5 0-4 0-3 0-4 1"/></svg><svg x="3531.682" y="0" width="252.263" height="252.263" viewBox="0 -0.1915 252.263 252.263"><use href="#ball"/><path fill="none" stroke="#000" stroke-width="4.924" stroke-linejoin="round" stroke-linecap="round" d="m102 136-12 2-12 3-11 3-11 2-9 2-9 2-8 2-7 1-6 1-5 1-3 0-2 1-1-1 0 0m240-58 0 0-2 1-3 1-5 2-5 1-7 2-8 2-9 3-10 3-10 2-11 3-12 3-12 3-12 3-13 3-12 4-13 3m-5-130-3 2-2 3-1 4-1 5-1 7-1 8 0 8 1 10 0 10 2 11 1 12 2 12 3 12 2 13 3 13 3 12 4 12 3 12 4 11 4 11 4 10 4 9 4 9 4 7 4 6 3 4 4 4 3 2 3 1 2 0m-57-240-1 0m-2 96-4 0-3 1-4 0-4-1-4 0-5-2-5-1-6-3-6-3-7-4-8-5-9-6-7-7-3-6 1-2m170-41-2-1-9 6-10 9-11 12-10 10-8 9-8 7-6 7-5 4-5 4-4 4-4 2-4 3-3 1-4 2-3 1m16 67-3 1-3 1-4 2-3 2-4 2-3 3-4 4-4 4-5 6-4 6-5 8-5 8-3 8-1 6 1 0m170-41-1 2-9 1-14-3-14-4-14-4-11-3-10-3-8-3-7-2-6-1-6-1-4 0-5 0-4 0-3 0-4 1"/></svg><svg x="3783.945" y="0" width="252.263" height="252.263" viewBox="0 -0.1915 252.263 252.263"><use href="#ball"/><path fill="none" stroke="#000" stroke-width="4.924" stroke-linejoin="round" stroke-linecap="round" d="m121 136-12 2-13 3-12 3-11 2-11 2-10 2-10 2-8 1-8 1-6 1-6 0-4 1-2-1-2 0 0-1m240-57 0 1-1 1-2 2-4 1-5 2-6 2-7 3-9 3-9 2-10 3-11 3-11 3-12 3-13 3-12 4-13 3m-23-130-1 2 0 3 1 4 0 5 1 7 1 8 2 8 2 10 2 10 2 11 2 12 3 12 3 12 2 13 3 13 3 12 3 12 3 12 3 11 3 11 3 10 3 9 2 9 2 7 2 6 2 4 2 4 1 2 1 1 0 0m-56-240 0 0m16 96-4 0-4 1-4 0-4-1-4 0-5-2-6-1-6-3-7-3-9-4-9-5-11-6-10-7-8-6-2-4 0 0m170-39 0-1-3 6-7 9-8 12-9 10-7 9-6 7-6 7-5 4-4 4-4 4-4 2-4 3-3 1-4 2-3 1m15 67-3 1-3 1-4 2-4 2-3 2-4 3-5 4-4 4-6 6-6 6-6 8-7 8-7 8-5 6 0 0m169-39-4 1-10-3-12-4-11-4-11-3-8-3-8-3-7-2-5-1-6-1-4 0-4 0-4 0-4 0-4 1"/></svg><svg x="4036.208" y="0" width="252.263" height="252.263" viewBox="0 -0.1915 252.263 252.263"><use href="#ball"/><path fill="none" stroke="#000" stroke-width="4.924" stroke-linejoin="round" stroke-linecap="round" d="m141 136-13 2-13 3-12 3-12 2-12 2-12 2-10 2-10 1-9 1-8 1-7 0-6 1-5-1-3 0-3-1 0-1m241-54 0 0-1 2-1 1-4 2-4 2-5 3-7 3-8 2-9 3-9 3-11 3-11 3-12 3-12 4-12 3m-42-130 2 2 2 3 2 4 3 5 2 7 3 8 3 8 3 10 3 10 3 11 3 12 4 12 3 12 3 13 3 13 2 12 3 12 2 12 2 11 2 11 2 10 1 9 1 9 0 7 1 6 0 4-1 4-1 2-1 1 0 0m-56-240 1 0m34 96-4 0-4 1-4 0-4-1-5 0-5-2-6-1-6-3-8-3-10-4-10-5-13-6-13-7-12-6-7-4 0 0m170-40 0 0 1 6-3 9-5 12-6 10-6 9-5 7-5 7-5 4-4 4-4 4-4 2-3 3-4 1-3 2-3 1m15 67-4 1-3 1-4 2-4 2-4 2-4 3-5 4-5 4-6 6-7 6-8 8-9 8-10 8-9 6-6 1m170-40 0 1-6-3-8-4-9-4-9-3-8-3-7-3-6-2-5-1-5-1-4 0-4 0-4 0-4 0-3 1"/></svg><svg x="4288.471" y="0" width="252.263" height="252.263" viewBox="0 -0.1915 252.263 252.263"><use href="#ball"/><path fill="none" stroke="#000" stroke-width="4.924" stroke-linejoin="round" stroke-linecap="round" d="m160 136-13 2-12 3-13 3-13 2-12 2-12 2-12 2-11 1-10 1-10 1-9 0-7 1-7-1-5 0-4-1-3-1-2-2 0 0m242-50 0 1-1 2-2 2-4 3-5 3-6 2-7 3-9 3-9 3-10 3-11 3-11 4-12 3m-58-130 3 2 4 3 4 4 4 5 5 7 4 8 4 8 5 10 4 10 4 11 4 12 3 12 4 12 3 13 3 13 2 12 2 12 2 12 1 11 0 11 1 10-1 9 0 9-1 7-2 6-2 4-2 4-3 2-2 1m-58-240 1 0 4 0m49 96-3 0-4 1-4 0-4-1-5 0-5-2-6-1-7-3-8-3-10-4-12-5-14-6-16-7-15-6-12-4-5-1 1 1m171-38 4 4 1 9-2 12-4 10-4 9-5 7-4 7-4 4-3 4-4 4-3 2-4 3-3 1-3 2-4 1m14 67-3 1-4 1-3 2-4 2-4 2-5 3-5 4-5 4-7 6-8 6-9 8-11 8-13 8-12 6-11 1-2-2m172-38-2-2-5-4-7-4-7-3-6-3-6-3-5-2-5-1-5-1-4 0-3 0-4 0-3 0-4 1"/></svg><svg x="4540.734" y="0" width="252.263" height="252.263" viewBox="0 -0.1915 252.263 252.263"><use href="#ball"/><path fill="none" stroke="#000" stroke-width="4.924" stroke-linejoin="round" stroke-linecap="round" d="m178 136-12 2-12 3-13 3-13 2-12 2-13 2-12 2-12 1-12 1-10 1-11 0-9 1-8-1-7 0-6-1-5-1-3-2-3-1 0-2m243-44 0 0-1 2-1 3-3 3-5 2-5 3-7 3-8 3-9 3-9 3-11 4-11 3m-73-130 5 2 6 3 6 4 5 5 6 7 6 8 6 8 5 10 5 10 5 11 4 12 5 12 3 12 3 13 3 13 2 12 1 12 1 12 0 11 0 11-1 10-2 9-2 9-3 7-3 6-4 4-4 4-5 2-1 1m-61-240 3 0 6 0m65 96-4 0-3 1-4 0-4-1-5 0-5-2-6-1-7-3-9-3-10-4-13-5-15-6-18-7-18-6-16-4-10-1-2 2m175-37 3 2 5 9 1 12-1 10-3 9-3 7-3 7-4 4-3 4-3 4-3 2-3 3-3 1-3 2-3 1m12 67-4 1-3 1-3 2-4 2-4 2-5 3-5 4-6 4-7 6-8 6-10 8-13 8-15 8-17 6-15 1-7-4m175-37 1-1-2-4-4-4-5-3-5-3-5-3-4-2-5-1-3-1-4 0-4 0-3 0-3 0-3 1"/></svg><svg x="4792.997" y="0" width="252.263" height="252.263" viewBox="0 -0.1915 252.263 252.263"><use href="#ball"/><path fill="none" stroke="#000" stroke-width="4.924" stroke-linejoin="round" stroke-linecap="round" d="m195 136-11 2-12 3-12 3-13 2-12 2-13 2-13 2-12 1-13 1-11 1-12 0-10 1-10-1-8 0-8-1-7-1-5-2-4-1-3-2-2-3 0-1m244-37 0 2-1 3-2 2-4 3-5 3-6 3-7 3-9 3-9 4-10 3m-87-130 7 2 8 3 7 4 7 5 8 7 7 8 6 8 7 10 6 10 5 11 5 12 5 12 3 12 3 13 3 13 1 12 1 12 0 12-1 11-1 11-3 10-3 9-4 9-4 7-5 6-5 4-6 4-6 2m-66-238 1 0 7-1 7 0m79 96-3 0-4 1-3 0-4-1-4 0-5-2-6-1-7-3-9-3-10-4-14-5-16-6-19-7-22-6-19-4-14-1-8 3 0 1m181-36 8 8 4 12 0 10-1 9-1 7-3 7-2 4-3 4-3 4-2 2-3 3-3 1-2 2-3 1m10 67-3 1-3 1-3 2-4 2-4 2-4 3-6 4-6 4-7 6-9 6-11 8-14 8-17 8-20 6-19 1-14-6-2-1m182-36 1-3-2-4-3-3-3-3-4-3-3-2-4-1-3-1-3 0-3 0-3 0-3 0-3 1"/></svg><svg x="5045.26" y="0" width="252.263" height="252.263" viewBox="0 -0.1915 252.263 252.263"><use href="#ball"/><path fill="none" stroke="#000" stroke-width="4.924" stroke-linejoin="round" stroke-linecap="round" d="m210 136-10 2-11 3-11 3-12 2-12 2-13 2-13 2-13 1-12 1-13 1-12 0-11 1-11-1-10 0-10-1-8-1-7-2-6-1-5-2-3-3-3-2-1-2m246-30 0 1-1 2-1 3-4 3-4 3-6 3-6 3-8 4-9 3m-98-130 9 2 9 3 8 4 9 5 9 7 8 8 7 8 8 10 6 10 6 11 6 12 4 12 4 12 3 13 2 13 1 12 0 12-1 12-2 11-2 11-4 10-4 9-5 9-6 7-7 6-7 4-7 4-3 1m-74-236 6-1 8-1 9 0m90 96-2 0-3 1-3 0-4-1-4 0-5-2-6-1-6-3-9-3-10-4-13-5-17-6-21-7-23-6-23-4-19-1-11 3-5 3 0 1m189-34 4 3 7 12 3 10 1 9-1 7-1 7-2 4-2 4-2 4-2 2-2 3-3 1-2 2-3 1m8 67-2 1-3 1-3 2-3 2-4 2-4 3-5 4-6 4-8 6-9 6-12 8-15 8-19 8-22 6-22 1-19-6-8-6m189-34 1-4-1-3-2-3-2-3-3-2-2-1-3-1-2 0-3 0-2 0-3 0-3 1"/></svg><svg x="5297.523" y="0" width="252.263" height="252.263" viewBox="0 -0.1915 252.263 252.263"><use href="#ball"/><path fill="none" stroke="#000" stroke-width="4.924" stroke-linejoin="round" stroke-linecap="round" d="m223 136-9 2-9 3-10 3-11 2-12 2-12 2-13 2-13 1-13 1-12 1-13 0-12 1-12-1-12 0-10-1-10-1-9-2-7-1-7-2-5-3-4-2-3-3-2-2 0-2m246-20 0 1-1 3-2 3-4 3-5 3-7 4-7 3m-107-130 10 2 10 3 10 4 10 5 10 7 9 8 8 8 8 10 8 10 6 11 5 12 5 12 4 12 2 13 2 13 0 12 0 12-2 12-2 11-4 11-5 10-5 9-7 9-7 7-8 6-8 4-6 3m-85-232 3-1 9-2 10-1 10 0m100 96-2 0-3 1-3 0-3-1-3 0-5-2-5-1-6-3-8-3-10-4-13-5-17-6-22-7-25-6-26-4-22-1-15 3-8 3-4 5-1 0m199-31 7 8 5 10 3 9 0 7 0 7-1 4-1 4-1 4-2 2-2 3-2 1-2 2-2 1m6 67-2 1-3 1-3 2-3 2-3 2-4 3-5 4-6 4-7 6-9 6-12 8-16 8-20 8-24 6-26 1-22-6-16-10-3-3m199-32 1-2 0-3-1-3-2-2-1-1-2-1-2 0-2 0-2 0-2 0-2 1"/></svg><svg x="5549.786" y="0" width="252.263" height="252.263" viewBox="0 -0.1915 252.263 252.263"><use href="#ball"/><path fill="none" stroke="#000" stroke-width="4.924" stroke-linejoin="round" stroke-linecap="round" d="m234 136-7 2-8 3-9 3-10 2-11 2-12 2-12 2-12 1-13 1-13 1-13 0-12 1-13-1-12 0-12-1-10-1-11-2-9-1-8-2-7-3-6-2-5-3-3-2-2-3-1-3m247-12 0 0-1 3-2 3-3 3-5 4-5 3m-113-130 11 2 11 3 11 4 11 5 10 7 10 8 9 8 8 10 8 10 6 11 6 12 5 12 3 12 2 13 2 13 0 12-2 12-2 12-3 11-5 11-6 10-6 9-8 9-8 7-9 6-7 3m-104-224 3-2 11-3 10-2 11-1 12 0m107 96-2 0-2 1-3 0-2-1-4 0-3-2-5-1-6-3-7-3-10-4-12-5-17-6-21-7-27-6-28-4-25-1-18 3-12 3-6 5-4 3-1 2m211-26 5 8 4 9 2 7 1 7 0 4-1 4 0 4-1 2-2 3-1 1-2 2-1 1m3 67-2 1-2 1-2 2-3 2-3 2-4 3-4 4-5 4-7 6-9 6-12 8-16 8-21 8-26 6-28 1-25-6-19-10-12-11-2-2m210-26 1-1 0-3 0-2-1-1-1-1-1 0-1 0-2 0-1 0-2 1"/></svg><svg x="5802.049" y="0" width="252.263" height="252.263" viewBox="0 -0.1915 252.263 252.263"><use href="#ball"/><path fill="none" stroke="#000" stroke-width="4.924" stroke-linejoin="round" stroke-linecap="round" d="m242 136-5 2-7 3-7 3-9 2-10 2-10 2-11 2-12 1-12 1-13 1-13 0-13 1-13-1-12 0-13-1-11-1-12-2-10-1-10-2-8-3-8-2-7-3-5-2-4-3-3-3-1-3 0-2m247-2 0 1-2 3-2 4-4 3m-117-130 12 2 12 3 12 4 11 5 11 7 10 8 10 8 8 10 8 10 7 11 5 12 5 12 3 12 2 13 1 13-1 12-2 12-3 12-4 11-5 11-7 10-7 9-9 9-9 7-2 1m-134-208 9-5 10-5 12-3 11-2 12-1 12 0m112 96-2 0-1 1-2 0-2-1-3 0-3-2-4-1-5-3-7-3-8-4-12-5-16-6-21-7-27-6-29-4-28-1-21 3-15 3-9 5-5 3-4 3-1 3-1 1m222-16 2 2 3 7 2 7 1 4 0 4 0 4-1 2 0 3-1 1-1 2-1 1m0 67-1 1-2 1-1 2-3 2-2 2-3 3-4 4-5 4-7 6-8 6-12 8-16 8-21 8-27 6-29 1-28-6-21-10-15-11-9-10-4-7m222-16 0-1 1-1-1-1 0 0-1 0 0 0-1 0-2 1"/></svg><svg x="6054.312" y="0" width="252.263" height="252.263" viewBox="0 -0.1915 252.263 252.263"><use href="#ball"/><path fill="none" stroke="#000" stroke-width="4.924" stroke-linejoin="round" stroke-linecap="round" d="m247 136-3 2-5 3-6 3-7 2-8 2-9 2-10 2-11 1-12 1-12 1-12 0-13 1-13-1-13 0-12-1-13-1-12-2-12-1-10-2-10-3-10-2-8-3-7-2-6-3-4-3-4-3-2-4 0-3 0 0m247 8-1 3-2 3m-117-130 12 2 13 3 12 4 12 5 11 7 10 8 10 8 8 10 8 10 7 11 5 12 4 12 3 12 2 13 0 13-1 12-2 12-4 12-5 11-6 11-7 10-5 5m-182-166 4-4 9-9 10-7 11-6 11-5 12-3 13-2 12-1 13 0m113 96-1 0-1 1-1 0-2-1-2 0-2-2-3-1-5-3-5-3-8-4-10-5-15-6-21-7-26-6-30-4-30-1-23 3-17 3-12 5-7 3-5 3-3 3-2 1-1 2-1 1 0 0 0 0m231-2 2 3 1 4 0 4 1 2 0 3-1 1 0 2-1 1m-2 67-1 1-1 1-1 2-2 2-2 2-3 3-3 4-4 4-6 6-8 6-11 8-15 8-21 8-27 6-31 1-29-6-23-10-17-11-11-10-7-9-4-8-3-6 0-1m231-2 0 0 0 0 0 0-1 1"/></svg><svg x="6306.575" y="0" width="252.263" height="252.263" viewBox="0 -0.1915 252.263 252.263"><use href="#ball"/><path fill="none" stroke="#000" stroke-width="4.924" stroke-linejoin="round" stroke-linecap="round" d="m249 136-1 2-3 3-4 3-5 2-7 2-7 2-9 2-10 1-10 1-11 1-12 0-12 1-13-1-13 0-13-1-13-1-12-2-12-1-12-2-11-3-11-2-9-3-9-2-7-3-7-3-5-3-4-4-3-3-1-3 0-2m246 17 0 2m-115-130 13 2 13 3 12 4 12 5 11 7 10 8 10 8 8 10 8 10 6 11 5 12 4 12 2 12 1 13 0 13-1 12-2 7m-240-58 1-5 5-12 5-12 7-10 7-10 9-9 10-9 10-7 12-6 12-5 12-3 13-2 12-1 13 0m113 96-1 0 0 1-1 0-1-1-1 0-2-2-2-1-3-3-5-3-6-4-9-5-14-6-19-7-26-6-30-4-30-1-26 3-19 3-13 5-9 3-7 3-4 3-3 1-2 2-2 1-1 0 0 0-1 0 0 0 0-1 1-1m235 14 0 2 1 1 0 2 0 1m-5 68 0 0-1 1-1 2-1 2-1 2-2 3-3 4-4 4-5 6-7 6-10 8-14 8-20 8-27 6-31 1-30-6-24-10-18-11-13-10-8-9-5-8-4-6-3-5-2-4-1-3-1-3 0 0"/></svg><svg x="6558.838" y="0" width="252.263" height="252.263" viewBox="0 -0.1915 252.263 252.263"><use href="#ball"/><path fill="none" stroke="#000" stroke-width="4.924" stroke-linejoin="round" stroke-linecap="round" d="m249 139-1 2-2 3-3 2-5 2-6 2-7 2-8 1-9 1-10 1-11 0-12 1-12-1-12 0-13-1-13-1-13-2-12-1-13-2-12-3-11-2-11-3-10-2-9-3-8-3-7-3-6-4-4-3-3-3-2-3-1-3 0 0m136-107 12 2 13 3 12 4 11 5 11 7 10 8 9 8 8 10 7 10 6 11 2 3m-227 98-4-9-3-12-2-12-1-13 1-13 2-12 3-12 5-12 5-12 7-10 9-10 9-9 10-9 10-7 12-6 12-5 12-3 13-2 13-1 13 0m108 97 0 0 0 0 0-1-1 0 0-2-2-1-2-3-3-3-5-4-8-5-11-6-18-7-24-6-29-4-31-1-27 3-21 3-15 5-10 3-8 3-5 3-4 1-3 2-3 1-1 0-2 0-1 0 0 0-1-1 0-1 0-1 0-2 1-2 1-2 1-2m223 106-1 1-2 4-3 4-4 6-6 6-9 8-13 8-19 8-25 6-30 1-30-6-26-10-19-11-14-10-9-9-6-8-5-6-3-5-3-4-1-3-2-3-1-2-1-1 0-2-1-1 0 0 0-1"/></svg><svg x="6811.101" y="0" width="252.263" height="252.263" viewBox="0 -0.1915 252.263 252.263"><use href="#ball"/><path fill="none" stroke="#000" stroke-width="4.924" stroke-linejoin="round" stroke-linecap="round" d="m248 143 0 1-1 2-3 2-4 2-5 2-7 1-7 1-9 1-10 0-10 1-11-1-12 0-12-1-13-1-13-2-12-1-13-2-13-3-12-2-11-3-11-2-11-3-9-3-9-3-7-4-6-3-6-3-3-3-3-3-1-2 0-2m139-103 12 2 12 3 12 4 11 5 10 7 9 8 1 0m-167 182-9-8-7-10-7-10-5-11-4-12-3-12-1-12-1-13 2-13 2-12 4-12 5-12 6-12 7-10 8-10 9-9 10-9 11-7 11-6 12-5 12-3 13-2 12-1 13 0m104 94 0-1-2-3-2-3-3-4-6-5-9-6-15-7-22-6-28-4-31-1-27 3-22 3-16 5-12 3-9 3-6 3-5 1-4 2-3 1-2 0-2 0-2 0-1 0-1-1-1-1 0-1-1-2 0-2 1-2 0-3 2-4 2-4 2-5m208 134 0 1-5 6-8 8-11 8-17 8-24 6-29 1-30-6-25-10-20-11-14-10-10-9-7-8-6-6-4-5-3-4-2-3-2-3-2-2-1-1-1-2-1-1-1 0-1-1 0 0-1 1 0 0 0 1 0 0"/></svg><svg x="7063.364" y="0" width="252.263" height="252.263" viewBox="0 -0.1915 252.263 252.263"><use href="#ball"/><path fill="none" stroke="#000" stroke-width="4.924" stroke-linejoin="round" stroke-linecap="round" d="m248 146-1 2-2 2-3 2-5 1-6 1-7 1-8 0-9 1-10-1-11 0-11-1-12-1-13-2-12-1-13-2-13-3-12-2-13-3-12-2-11-3-11-3-9-3-9-4-8-3-7-3-6-3-4-3-3-2-2-3-1-2 0-1m142-99 12 2 11 3 11 4 8 4m-124 214-2-1-9-7-9-8-8-8-7-10-5-10-5-11-3-12-3-12 0-12 0-13 1-13 3-12 4-12 5-12 6-12 7-10 9-10 9-9 9-9 11-7 11-6 11-5 12-3 12-2 12-1 11 0m100 88-1-1-2-4-3-5-8-6-12-7-19-6-26-4-29-1-28 3-22 3-17 5-13 3-9 3-8 3-5 1-5 2-4 1-3 0-2 0-2 0-2 0-2-1-1-1-1-1-1-2 0-2-1-2 0-3 1-4 1-4 2-6 4-6 3-5m190 158-2 3-10 8-15 8-21 6-27 1-28-6-25-10-20-11-15-10-10-9-8-8-6-6-5-5-3-4-3-3-3-3-2-2-2-1-1-2-2-1-1 0-2-1-1 0-1 1-1 0 0 1-1 2 0 2 1 3"/></svg><svg x="7315.627" y="0" width="252.263" height="252.263" viewBox="0 -0.1915 252.263 252.263"><use href="#ball"/><path fill="none" stroke="#000" stroke-width="4.924" stroke-linejoin="round" stroke-linecap="round" d="m247 150 0 0-1 2-3 1-4 1-5 1-7 0-7 1-9-1-9 0-11-1-11-1-12-2-12-1-12-2-13-3-12-2-13-3-12-2-12-3-12-3-11-3-10-4-10-3-8-3-7-3-7-3-5-2-3-3-3-2-1-2 0-2m145-96 10 2 10 3 5 2m-98 226-5-2-9-5-8-7-8-8-7-8-6-10-4-10-4-11-3-12-1-12-1-12 1-13 2-13 3-12 4-12 5-12 6-12 7-10 8-10 9-9 9-9 10-7 10-6 11-5 11-3 11-2 11-1 11 0m93 81-1-3-4-6-10-7-16-6-23-4-28-1-26 3-22 3-18 5-13 3-10 3-8 3-7 1-5 2-4 1-4 0-3 0-2 0-3 0-2-1-1-1-2-1-1-2-2-2-1-2 0-3-1-4 1-4 1-6 2-6 4-8 6-6m172 176-1 2-13 8-18 6-24 1-27-6-24-10-19-11-15-10-11-9-8-8-6-6-5-5-4-4-4-3-3-3-2-2-3-1-2-2-2-1-2 0-1-1-2 0-2 1-1 0-2 1-1 2-1 2-1 4 0 3 1 3"/></svg><svg x="7567.89" y="0" width="252.263" height="252.263" viewBox="0 -0.1915 252.263 252.263"><use href="#ball"/><path fill="none" stroke="#000" stroke-width="4.924" stroke-linejoin="round" stroke-linecap="round" d="m247 152-1 1-2 1-3 1-5 0-6 1-7-1-8 0-9-1-10-1-10-2-12-1-11-2-13-3-12-2-13-3-12-2-13-3-12-3-12-3-11-4-11-3-9-3-9-3-8-3-7-2-6-3-4-2-3-2-2-2-1-2 0 0m147-94 9 2 6 1m-82 233-3-1-8-4-8-5-8-7-6-8-6-8-4-10-4-10-3-11-2-12-1-12 0-12 1-13 3-13 3-12 4-12 5-12 6-12 7-10 7-10 8-9 9-9 9-7 9-6 10-5 10-3 10-2 9-1 10 0m89 74-1-2-6-7-13-6-20-4-25-1-25 3-21 3-18 5-14 3-10 3-9 3-6 1-6 2-5 1-4 0-3 0-3 0-3 0-2-1-3-1-2-1-2-2-1-2-2-2-1-3-1-4-1-4 0-6 0-6 3-8 5-8 5-4m158 188-4 4-16 6-21 1-23-6-23-10-18-11-15-10-10-9-9-8-7-6-5-5-4-4-4-3-3-3-3-2-3-1-3-2-2-1-2 0-3-1-2 0-2 1-2 0-3 1-2 2-2 2-2 4-1 3-1 6 2 3"/></svg><svg x="7820.153" y="0" width="252.263" height="252.263" viewBox="0 -0.1915 252.263 252.263"><use href="#ball"/><path fill="none" stroke="#000" stroke-width="4.924" stroke-linejoin="round" stroke-linecap="round" d="m246 154 0 0-1 1-3 0-4 1-5-1-6 0-8-1-8-1-10-2-10-1-11-2-11-3-12-2-13-3-12-2-13-3-12-3-13-3-12-4-11-3-11-3-10-3-9-3-9-2-7-3-6-2-5-2-4-2-3-2-1-1 0-1m148-92 8 2m-71 236-1 0-7-3-7-4-6-5-6-7-5-8-5-8-3-10-3-10-2-11-1-12 0-12 1-12 1-13 3-13 3-12 4-12 5-12 6-12 6-10 7-10 7-9 8-9 8-7 8-6 9-5 8-3 9-2 8-1 8 0m84 68-1-3-9-6-16-4-22-1-23 3-20 3-18 5-13 3-11 3-9 3-7 1-6 2-5 1-4 0-4 0-3 0-3 0-3-1-3-1-2-1-3-2-2-2-2-2-2-3-2-4-2-4-1-6-1-6 1-8 3-8 6-8 2-1m147 198-11 5-17 1-20-6-20-10-17-11-14-10-11-9-8-8-7-6-6-5-4-4-4-3-4-3-3-2-3-1-3-2-3-1-3 0-2-1-3 0-3 1-3 0-3 1-3 2-3 2-3 4-3 3-3 6 0 6 1 3"/></svg><svg x="8072.416" y="0" width="252.263" height="252.263" viewBox="0 -0.1915 252.263 252.263"><use href="#ball"/><path fill="none" stroke="#000" stroke-width="4.924" stroke-linejoin="round" stroke-linecap="round" d="m246 155 0 0-2 1-4-1-4 0-6-1-7-1-8-2-9-1-9-2-11-3-11-2-12-3-12-2-12-3-13-3-13-3-12-4-12-3-12-3-11-3-11-3-9-2-9-3-8-2-7-2-6-2-4-2-3-1-2-1-1-1 0 0m149-91 3 1m-64 238-3-1-6-3-5-4-5-5-4-7-4-8-3-8-2-10-2-10-1-11 0-12 1-12 1-12 2-13 3-13 3-12 4-12 5-12 5-12 6-10 6-10 6-9 6-9 7-7 7-6 7-5 7-3 7-2 7-1 6 0m80 64-3-5-12-4-18-1-20 3-19 3-16 5-14 3-10 3-9 3-7 1-6 2-6 1-4 0-4 0-4 0-3 0-4-1-2-1-3-1-3-2-3-2-2-2-3-3-3-4-2-4-3-6-2-6-1-8 0-8 4-8 4-4m138 203-3 3-13 1-17-6-17-10-15-11-13-10-10-9-9-8-6-6-6-5-5-4-4-3-4-3-3-2-4-1-3-2-3-1-3 0-3-1-3 0-3 1-4 0-3 1-4 2-4 2-5 4-4 3-5 6-3 6 0 7 1 1"/></svg><svg x="8324.679" y="0" width="252.263" height="252.263" viewBox="0 -0.1915 252.263 252.263"><use href="#ball"/><path fill="none" stroke="#000" stroke-width="4.924" stroke-linejoin="round" stroke-linecap="round" d="m246 155 0 1-1-1-3 0-4-1-5-1-6-2-7-1-9-2-9-3-10-2-11-3-11-2-12-3-13-3-12-3-13-4-12-3-13-3-11-3-12-3-11-2-10-3-9-2-9-2-7-2-7-2-5-1-4-1-2-1-2-1 0 0m150-90 0 0m-60 240-4-2-4-3-3-4-3-5-3-7-2-8-1-8-1-10-1-10 0-11 1-12 1-12 2-12 3-13 3-13 3-12 4-12 4-12 4-12 5-10 5-10 5-9 6-9 5-7 5-6 6-5 5-3 5-2 5-1 5 0m78 59 0 0-8-4-13-1-18 3-17 3-15 5-12 3-11 3-8 3-7 1-6 2-6 1-4 0-5 0-4 0-3 0-4-1-3-1-3-1-3-2-3-2-3-2-3-3-4-4-3-4-3-6-4-6-3-8-2-8 0-8 3-6m134 208 0 0-8 1-13-6-14-10-14-11-11-10-9-9-8-8-7-6-5-5-5-4-4-3-4-3-4-2-3-1-4-2-3-1-3 0-4-1-3 0-4 1-4 0-4 1-4 2-6 2-5 4-6 3-6 6-6 6-4 7 1 5"/></svg><svg x="8576.942" y="0" width="252.263" height="252.263" viewBox="0 -0.1915 252.263 252.263"><use href="#ball"/><path fill="none" stroke="#000" stroke-width="4.924" stroke-linejoin="round" stroke-linecap="round" d="m246 155 0 0-2-1-3-1-5-2-5-1-7-2-8-3-9-2-10-3-10-2-11-3-12-3-12-3-12-4-13-3-12-3-13-3-12-3-12-2-11-3-11-2-9-2-9-2-8-2-7-1-6-1-5-1-3-1-2 0-1 1 0 0m92 149-1 0-3-2-2-3-1-4-1-5-1-7-1-8 0-8 1-10 0-10 2-11 1-12 2-12 3-12 2-13 3-13 3-12 4-12 3-12 4-12 4-10 4-10 4-9 4-9 4-7 4-6 3-5 4-3 3-2 3-1 2 0m76 57-1-2-9-1-14 3-14 3-14 5-11 3-10 3-8 3-7 1-6 2-6 1-4 0-5 0-4 0-3 0-4-1-3-1-3-1-4-2-3-2-4-2-3-3-4-4-4-4-5-6-4-6-5-8-5-8-3-8-1-6 1 0m130 208-2 1-9-6-10-10-11-11-10-10-8-9-8-8-6-6-5-5-5-4-4-3-4-3-4-2-3-1-4-2-3-1-4 0-3-1-4 0-4 1-4 0-5 1-5 2-6 2-6 4-7 3-8 6-9 6-7 7-3 6 1 2"/></svg><svg x="8829.205" y="0" width="252.263" height="252.263" viewBox="0 -0.1915 252.263 252.263"><use href="#ball"/><path fill="none" stroke="#000" stroke-width="4.924" stroke-linejoin="round" stroke-linecap="round" d="m246 154 0 0-1-1-2-2-4-1-5-2-6-3-7-2-9-3-9-2-10-3-11-3-11-3-12-4-13-3-12-3-13-3-12-3-13-2-12-3-11-2-11-2-10-2-10-2-8-1-8-1-6-1-6-1-4 0-2 1-2 0 0 0m92 149 0 0-1-2 0-3 1-4 0-5 1-7 1-8 2-8 2-10 2-10 2-11 2-12 3-12 3-12 2-13 3-13 3-12 3-12 3-12 3-12 3-10 3-10 3-9 2-9 2-7 2-6 2-5 2-3 1-2 1-1 0 0m77 55-4-1-10 3-12 3-11 5-11 3-8 3-8 3-7 1-5 2-6 1-4 0-4 0-4 0-4 0-4-1-3-1-3-1-4-2-4-2-3-2-4-3-5-4-4-4-6-6-6-6-6-8-7-8-7-8-5-6 0 0m129 208 0 1-3-6-7-10-8-11-9-10-7-9-6-8-6-6-5-5-4-4-4-3-4-3-4-2-3-1-4-2-3-1-4 0-4-1-4 0-4 1-4 0-5 1-6 2-6 2-7 4-9 3-9 6-11 6-10 7-8 6-2 4 0 0"/></svg><svg x="9081.468" y="0" width="252.263" height="252.263" viewBox="0 -0.1915 252.263 252.263"><use href="#ball"/><path fill="none" stroke="#000" stroke-width="4.924" stroke-linejoin="round" stroke-linecap="round" d="m247 153 0 0-1-2-1-1-4-2-4-3-5-2-7-3-8-2-9-3-9-3-11-3-11-4-12-3-12-3-12-3-13-3-13-2-12-3-12-2-12-2-12-2-10-2-10-1-9-1-8-1-7-1-6 0-5 1-3 0-3 1 0 1m92 147 1 0 2-2 2-3 2-4 3-5 2-7 3-8 3-8 3-10 3-10 3-11 3-12 4-12 3-12 3-13 3-13 2-12 3-12 2-12 2-12 2-10 2-10 1-9 1-9 0-7 1-6 0-5-1-3-1-2-1-1 0 0m76 55 0-1-6 3-8 3-9 5-9 3-8 3-7 3-6 1-5 2-5 1-4 0-4 0-4 0-4 0-3-1-4-1-3-1-4-2-4-2-4-2-4-3-5-4-5-4-6-6-7-6-8-8-9-8-10-8-9-6-6-1m132 210 0 0 1-6-3-10-5-11-6-10-6-9-5-8-5-6-5-5-4-4-4-3-4-3-3-2-4-1-3-2-3-1-4 0-4-1-4 0-4 1-5 0-5 1-6 2-6 2-8 4-10 3-10 6-13 6-13 7-12 6-7 4 0 0"/></svg><svg x="9333.731" y="0" width="252.263" height="252.263" viewBox="0 -0.1915 252.263 252.263"><use href="#ball"/><path fill="none" stroke="#000" stroke-width="4.924" stroke-linejoin="round" stroke-linecap="round" d="m247 151 0-1-1-2-2-3-4-2-5-3-6-2-7-3-9-3-9-3-10-4-11-3-11-3-12-3-13-3-12-2-13-3-13-2-12-2-12-2-12-2-11-1-10-1-10-1-9-1-7 0-7 1-5 0-4 1-3 1-2 2 0 0m92 145 1 0 4 0 3-2 4-3 4-4 4-5 5-7 4-8 4-8 5-10 4-10 4-11 4-12 3-12 4-12 3-13 3-13 2-12 2-12 2-12 1-12 0-10 1-10-1-9 0-9-1-7-2-6-2-5-2-3-3-2-2-1m76 55-2 2-5 3-7 5-7 3-6 3-6 3-5 1-5 2-5 1-4 0-3 0-4 0-3 0-4-1-3-1-4-1-3-2-4-2-4-2-5-3-5-4-5-4-7-6-8-6-9-8-11-8-13-8-12-6-11-1-2 2m134 206 4-4 1-10-2-11-4-10-4-9-5-8-4-6-4-5-3-4-4-3-3-3-4-2-3-1-3-2-4-1-3 0-4-1-4 0-4 1-5 0-5 1-6 2-7 2-8 4-10 3-12 6-14 6-16 7-15 6-12 4-5 1 1-1"/></svg><svg x="9585.994" y="0" width="252.263" height="252.263" viewBox="0 -0.1915 252.263 252.263"><use href="#ball"/><path fill="none" stroke="#000" stroke-width="4.924" stroke-linejoin="round" stroke-linecap="round" d="m248 148 0 0-1-3-1-2-3-3-5-2-5-3-7-3-8-3-9-4-9-3-11-3-11-3-12-3-12-2-13-3-13-2-12-2-13-2-12-2-12-1-12-1-10-1-11-1-9 0-8 1-7 0-6 1-5 1-3 2-3 1 0 2m91 142 3 0 6 0 5-2 6-3 6-4 5-5 6-7 6-8 6-8 5-10 5-10 5-11 4-12 5-12 3-12 3-13 3-13 2-12 1-12 1-12 0-12 0-10-1-10-2-9-2-9-3-7-3-6-4-5-4-3-5-2-1-1m74 56 1 1-2 3-4 5-5 3-5 3-5 3-4 1-5 2-3 1-4 0-4 0-3 0-3 0-3-1-4-1-3-1-3-2-4-2-4-2-5-3-5-4-6-4-7-6-8-6-10-8-13-8-15-8-17-6-15-1-7 4m140 202 3-2 5-10 1-11-1-10-3-9-3-8-3-6-4-5-3-4-3-3-3-3-3-2-3-1-3-2-3-1-4 0-3-1-4 0-4 1-5 0-5 1-6 2-7 2-9 4-10 3-13 6-15 6-18 7-18 6-16 4-10 1-2-2"/></svg><svg x="9838.257" y="0" width="252.263" height="252.263" viewBox="0 -0.1915 252.263 252.263"><use href="#ball"/><path fill="none" stroke="#000" stroke-width="4.924" stroke-linejoin="round" stroke-linecap="round" d="m248 144 0-1-1-3-2-2-4-3-5-3-6-3-7-4-9-3-9-3-10-3-11-3-12-2-12-3-13-2-12-2-13-2-13-2-12-1-13-1-11-1-12-1-10 0-10 1-8 0-8 1-7 1-5 2-4 1-3 2-2 2 0 1m89 138 1 0 7 1 7 0 7-2 8-3 7-4 7-5 8-7 7-8 6-8 7-10 6-10 5-11 5-12 5-12 3-12 3-13 3-13 1-12 1-12 0-12-1-12-1-10-3-10-3-9-4-9-4-7-5-6-5-5-6-3-6-2m74 57 1 2-2 5-3 3-3 3-4 3-3 1-4 2-3 1-3 0-3 0-3 0-3 0-3-1-3-1-3-1-3-2-4-2-4-2-4-3-6-4-6-4-7-6-9-6-11-8-14-8-17-8-20-6-19-1-14 6-2 1m150 196 8-9 4-11 0-10-1-9-1-8-3-6-2-5-3-4-3-3-2-3-3-2-3-1-2-2-3-1-3 0-4-1-3 0-4 1-4 0-5 1-6 2-7 2-9 4-10 3-14 6-16 6-19 7-22 6-19 4-14 1-8-3 0-1"/></svg></svg>