<svg xmlns="http://www.w3.org/2000/svg" xml:space="preserve" width="503.3" height="567.1"><path d="M127.1 95v562h68.5v-43.4h11.8c14.3 0 28.4.1 42.6.1 14.3 0 28.4.1 42.6.1 14.2 0 28.6.1 42.9.1l1 .4 1.1 1.1-4.9-5.1-1.1-.7-1.1-.1-1-.5-.8-.9-.6-1.1.6-.7-2-3-.6-1.6-.3-2.2-.4-2.1-1.8-3.5v-1.6h296.1c0-11 .1-21.9.1-32.7 0-15.7.1-31.5.1-47.4 0-14.5.1-28.9.3-43.2 0-15.7.1-31.5.1-47.1.1-15.5.1-31 .3-46.5 0-14.5.1-28.9.1-43.4 0-15.6.1-31.1.3-46.7 0-15.7.1-31.5.3-47.2 0-14.7.1-29.5.1-44.2 0-15.2.1-30.4.3-45.6v-1.9h3.4V95.2zm20.1 233.6c-1-1.1-1.9-2.4-2.6-3.6.9 1.1 1.8 2.2 2.6 3.4.1.1 0 .2 0 .2zm-5.5-171.5v-.2c2 2.2 4.4 4.2 7.1 6.1-2.7-1.8-5.1-3.8-7.1-5.9z" style="fill:gold" transform="translate(-124.5 -92.5)"/><path stroke-miterlimit="10" d="M619.2 100.9v39.4h-3.6l.1 6v1.6c0 11.4-.1 22.6-.1 34v24.7l-.1 31.1v8.5c0 12.9-.1 25.9-.1 38.7 0 15.6-.1 31.1-.3 46.7v20.5c0 7.6 0 15.2-.1 22.9 0 7.6 0 15.2-.1 22.9 0 7.9 0 15.7-.1 23.6 0 15.7-.1 31.5-.1 47.2 0 7.4 0 14.7-.1 22.1 0 7 0 14.1-.1 21.1 0 15.7-.1 31.5-.1 47.2V586h-297l.1 6.1v2.8l.6 1.1 1.4 2.7.3 1 .3 2v.7l.3.6.6 1.6.1.4v.6l1 2H189.6v43h-56.8V100.9h486.4M625 95H127v562.1h68.5v-43.4h11.8c14.3 0 28.4.1 42.6.1 14.3 0 28.4.1 42.6.1 14.2 0 28.6.1 42.9.1l1 .4 1.1 1.1-4.9-5.1-1.1-.7-1.1-.1-1-.5-.8-.9-.6-1.1.6-.7-2-3-.6-1.6-.3-2.2-.4-2.1-1.8-3.5v-1.6h296.4c0-11 .1-21.9.1-32.7 0-15.7.1-31.5.1-47.4 0-14.5.1-28.9.3-43.2 0-15.7.1-31.5.1-47.1.1-15.5.1-31 .3-46.5 0-14.5.1-28.9.1-43.4 0-15.6.1-31.1.3-46.7 0-15.7.1-31.5.3-47.2 0-14.7.1-29.5.1-44.2 0-15.2.1-30.4.3-45.6v-1.9h3.4v-5c-.3-15.9-.3-31.1-.3-46.5Z" style="fill:#c70f2e;stroke:#c70f2e;stroke-width:10;stroke-miterlimit:10" transform="translate(-124.5 -92.5)"/><path stroke-miterlimit="10" d="m228.5 416.4-5.5-10.5 5.3-2.7 13.9 26.7-5.3 2.7-5.5-10.5-34.1 17.7-3-5.7zm9.8 48.6-10.9-13.2-15 12.4-4.1-5 34.4-28.1 4.1 5-14.8 12.1 10.9 13.2 14.8-12.1 4.1 5-34.4 28.1-4.1-5zm26.7-7.5 5.1 4-17.5 22.7c-1.9 2.4-2.5 4.7-2.3 7 .3 2.2 1.4 4.2 3.4 5.7s4.3 2.1 6.5 1.9c2.3-.2 4.4-1.6 6.3-4l17.5-22.7 5.1 4-17.8 23.4c-2.9 3.6-6.4 5.7-10.3 6.1-4 .5-7.8-.6-11.3-3.2-3.4-2.6-5.4-6-6-10-.6-4 .4-7.9 3.3-11.5zm27.9 21.1 5.6 2.5 5 36.9h.1l12.9-28.9 6 2.6-18.1 40.6-5.6-2.5-5-36.9h-.1l-12.8 29-6-2.6zm34.6 14.6 14.9 2.7c5.8 1.1 9.6 4.4 11.6 9.7.8 1.9 1.1 3.6 1 5.5-.1 1.9-.6 5-1.4 9.4-.9 4.7-1.6 8-2.3 9.7-.4.9-.8 1.7-1.1 2.4-.5.6-1 1.4-1.6 2-1.6 1.9-3.6 3.2-6.1 4.1-2.5 1-5.3 1.2-8.5.7l-14.5-2.6zm-.3 38.7 7.8 1.4c3.6.6 6.5-.1 8.5-2.4.9-.7 1.5-1.9 2-3.4.4-1.4 1-4 1.8-8 .8-3.7 1.1-6.5 1.3-8.2.2-1.7-.3-3.1-.9-4.2-1.4-2.9-3.6-4.6-6.9-5.1l-7.8-1.4zm34.6-33.2 27.5-.9.3 6.4-21 .7.4 12.7 17.9-.6.3 6-17.9.6.4 13.1 21-.7.3 6.4-27.5.9zm30.1-1.3 16.4-4c3.5-.9 6.6-.6 9.3.7 3.1 1.5 5.4 4.2 6.4 8.1 1.4 5.9-.4 10.5-5.1 14l14.4 16.7-7.5 1.9-13.3-16.2-8.1 2 4.6 18.5-6.4 1.6zm11 17.3 9.6-2.4c2.4-.6 4-1.7 4.9-3.5.9-1.6 1-3.2.6-5.2-.6-2.2-1.8-3.7-3.4-4.4-1.3-.6-3-.6-5-.1l-10 2.5zm21.3-25.8 14.9-7.5c3.8-1.9 7.1-2.2 10-1.4 2.9 1 5.1 3.1 6.8 6.2.9 1.6 1.3 3.4 1.3 5.2 0 .9-.3 1.9-.8 2.9-.4 1-1 2.1-1.9 3.2v.1c2.4-.5 4.5-.1 6.5 1 1.9 1.2 3.4 2.9 4.4 5 1.8 3.5 2 6.7 1 9.7-1 3.1-3 5.4-6 7l-16.3 8.1zm8.5 2.4 5.8 11.4 8.4-4.2c2.1-1.1 3.4-2.4 3.9-4.1.5-1.6.4-3.1-.5-4.7-.8-1.6-2-2.7-3.6-3.4-1.5-.5-3.4-.2-5.5.7zm8.4 16.8 6 12 9-4.5c2.1-1.1 3.4-2.5 3.9-4.2.4-1.6.3-3.2-.6-4.9-.9-1.6-2-2.7-3.6-3.5-1.6-.6-3.5-.5-5.6.6zm13.3-35.9 5.3-3.7 25.9 36.1-5.3 3.7zm10.7-7 12-11.7c2.5-2.5 5.4-3.9 8.4-4.1 3.5-.4 6.8.9 9.8 3.7 4.1 4.4 5.1 9.2 2.8 14.6l21 7.1-5.5 5.5-19.8-7.2-6 5.9 13.4 13.5-4.6 4.6zm18.3 9.3 7-7c1.8-1.7 2.5-3.5 2.4-5.4-.1-1.7-.8-3.4-2.1-4.7-1.6-1.6-3.4-2.4-5.1-2.1-1.4.1-2.9.9-4.4 2.4l-7.3 7.2zm5-32.9 8.1-12.7c3.1-4.9 7.6-7.2 13.4-7 2 0 3.8.4 5.5 1.1 1.6.7 4.4 2.4 8.1 4.9 4 2.6 6.8 4.5 8.1 5.9.8.6 1.3 1.2 1.8 2 .4.6.9 1.4 1.3 2.2 1.1 2.2 1.6 4.6 1.5 7.2 0 2.6-.9 5.4-2.6 8.1l-7.9 12.4zm35.7 15.1 4.3-6.6c2-3.1 2.4-6 1-8.9-.4-1.1-1.1-2.1-2.3-3.1-1.1-.9-3.4-2.5-6.8-4.6-3.3-2.1-5.6-3.5-7.1-4.2-1.5-.7-3-1-4.4-.7-3.1.1-5.6 1.6-7.4 4.5l-4.3 6.6zm14.4-33.5c3.9-2.2 6.8-5.5 8.4-10 1.9-5.2.9-8.6-2.9-10.1-3.1-1.1-5.6-.1-7.5 3.2-.9 1.5-1.8 3.2-2.8 5.1-1.9 3.2-4.1 5.4-6.9 6.5-2.8 1.1-5.8 1.1-8.8 0-3.6-1.4-6.1-3.6-7.5-6.7-1.4-3.1-1.4-6.7.1-10.9 2-5 5-8.9 9.1-11.5l4 5.4c-3.1 2.2-5.5 5.2-6.9 8.9-.8 1.9-.8 3.6-.3 5.2s1.8 2.9 3.8 3.7c1.3.5 2.5.4 3.8-.1 1.4-.5 2.5-1.7 3.6-3.6.6-1 1.4-2.5 2.4-4.2 1.9-3.6 4.4-5.9 7.3-6.9 2.9-1 5.9-.9 8.8.1 7.9 3.1 10.3 9.4 6.9 18.6-2.3 6-6 10.4-11.4 13.4zM233.6 264l-7.6 14.5 7.3 7.5-3.3 6.1-32.1-34.5 2.5-4.9 46.6 6.7-3.3 6.1zm-6.1-1.1-20.1-3.5v.1l14.4 14.5zm-13.3-32.4 4.1-5 29.4 24.4 13.4-16.1 4.9 4-17.6 21.2zm26.1-29.6 13.1-10.4c3.4-2.6 6.5-3.7 9.5-3.4 3 .4 5.6 2 7.9 4.7 1.1 1.4 1.9 3 2.3 4.9.1.9.1 1.9-.1 3-.3 1.1-.6 2.2-1.3 3.5l.1.1c2.3-1 4.4-1.1 6.5-.4 2.1.9 3.9 2.1 5.4 4 2.4 3 3.4 6.1 2.9 9.4-.4 3.2-1.9 5.9-4.5 8l-14.3 11.2zm8.9.6 7.9 10 7.4-5.9c1.9-1.5 2.9-3.1 2.9-4.7.1-1.6-.4-3.1-1.4-4.6-1.1-1.4-2.5-2.2-4.1-2.5-1.6-.2-3.4.4-5.3 1.9zm11.6 14.8 8.3 10.5 7.9-6.2c1.9-1.5 2.9-3.1 2.9-4.9.1-1.7-.5-3.2-1.5-4.7-1.1-1.5-2.5-2.4-4.3-2.6-1.6-.2-3.5.2-5.4 1.7zm13.5-40.6 5.9-2.7 12.4 25.9c1.4 2.7 3.1 4.5 5.3 5.1 2.1.7 4.4.6 6.8-.4 2.3-1.1 3.9-2.7 4.6-5 .8-2.1.5-4.6-.8-7.4l-12.4-25.9 5.9-2.7 12.6 26.5c2 4.2 2.3 8.2.9 12-1.4 3.7-4 6.6-8 8.6-3.9 1.9-7.8 2.1-11.6.7-3.9-1.2-6.8-3.9-8.9-8.1zm74 16.8c-2 3-5 5-9.1 6-3.4.6-6.3.5-8.9-.6-2.6-1-4.6-2.4-6.1-4.2-.5-.6-.9-1.1-1.3-1.7-.4-.6-.8-1.2-1.1-2.2-.6-1.6-1.6-5-2.6-10-1.1-5-1.8-8.5-1.9-10.2-.1-1.7.1-3.2.5-4.5.6-2.2 1.8-4.4 3.8-6.5 1.9-2.1 4.4-3.5 7.8-4.2 3.4-.7 6.4-.5 8.9.6s4.5 2.5 6 4.2c1 .9 1.8 2.1 2.4 3.7.6 1.6 1.5 5 2.6 10 1 4.5 1.6 7.6 1.9 9.5.1 1.9 0 3.4-.3 4.5l6.6 3.4-2.8 5.4zm-12.5-6.3 2.8-5.4 5.8 2.9c.1-1.5-.4-4.6-1.4-9.2-1-4.2-1.8-7.1-2.4-8.6-.6-1.4-1.5-2.5-2.5-3.2-.9-.7-1.9-1.2-3-1.6-1.3-.4-2.6-.4-4.1 0-1.5.4-2.8 1-3.6 1.7-1 .9-1.6 1.7-2.1 2.9-.6 1.1-.9 2.5-.9 4 0 1.6.5 4.6 1.5 8.9 1 4.3 1.8 7.1 2.4 8.6.6 1.5 1.4 2.5 2.5 3.2.9.7 1.9 1.2 3.1 1.6 1.3.4 2.6.5 4.1.1 2-.5 3.4-1.2 4.4-2.6zm21.8-36.5 6.5.1-.5 28.7c0 3 .8 5.4 2.4 7 1.6 1.7 3.6 2.6 6.3 2.6 2.5 0 4.6-.7 6.4-2.4 1.6-1.5 2.5-3.9 2.6-6.9l.5-28.7 6.5.1-.5 29.4c-.1 4.6-1.6 8.4-4.6 11.1-2.9 2.7-6.6 4.1-11 4.1-4.4-.1-7.9-1.6-10.8-4.5-2.9-2.7-4.4-6.5-4.4-11.2zm44.7 2 26.9 5.9-1.4 6.2-20.5-4.5-2.8 12.4 17.5 3.9-1.3 5.9-17.5-3.9-2.8 12.7 20.5 4.5-1.4 6.2-26.9-5.9zm38.3 9.7 15.4 7c3.3 1.5 5.5 3.6 6.8 6.4 1.6 3.1 1.5 6.6 0 10.4-2.6 5.5-6.8 8-12.8 7.7l.9 22.1-7-3.2-.3-21-7.6-3.5-7.9 17.2-5.9-2.7zm-2.2 20.5 9 4.1c2.3 1 4.3 1.1 5.9.2 1.6-.7 2.9-2 3.6-3.7.9-2.1 1-4 .1-5.5-.6-1.2-1.9-2.4-3.8-3.2l-9.4-4.2zm35.1 46c-3.5.5-7-.6-10.4-3.1-2.6-2.1-4.4-4.5-5.3-7.1-.9-2.6-1.1-5.1-.8-7.4.1-.7.4-1.4.5-2 .3-.6.5-1.4 1-2.2.9-1.6 2.8-4.4 5.9-8.5 3.1-4.1 5.4-6.7 6.6-8 1.3-1.2 2.5-2 3.8-2.5 2.1-1 4.5-1.5 7.4-1.4 2.8.1 5.5 1.1 8.3 3.1 2.8 2.1 4.5 4.5 5.4 7.1.9 2.6 1 5.1.6 7.4-.1 1.2-.5 2.7-1.4 4.2-.9 1.5-2.9 4.4-6 8.5-2.8 3.6-4.9 6.2-6.1 7.5-1.3 1.2-2.5 2.1-3.6 2.6l1.8 7.1-5.9 1.4zm-3.2-13.6 5.9-1.4 1.5 6.4c1.3-1 3.3-3.2 6.1-7 2.6-3.5 4.4-6 5-7.4.6-1.4 1-2.7.9-4 0-1.1-.3-2.2-.8-3.4-.5-1.1-1.5-2.2-2.6-3.2-1.3-.9-2.5-1.5-3.8-1.6-1.3-.2-2.5-.1-3.5.1-1.3.2-2.5.9-3.6 1.9-1.3 1.1-3.1 3.4-5.8 6.9-2.7 3.5-4.3 6-5 7.4-.8 1.4-1 2.7-.9 4 0 1.1.3 2.2.9 3.4.5 1.2 1.4 2.2 2.5 3.2 1.6 1.2 3.3 1.7 4.8 1.6zm41.8-7 4.3 5-22 18.5c-2.3 2-3.5 4.1-3.6 6.4-.3 2.4.5 4.5 2.1 6.4 1.6 2 3.6 3 6 3.2 2.3.2 4.5-.6 6.9-2.6l22-18.5 4.3 5-22.5 19c-3.6 3-7.4 4.2-11.4 3.7-4-.4-7.5-2.2-10.4-5.6-2.8-3.4-4-7-3.6-11 .3-4 2.1-7.6 5.6-10.6zm27.7 35.5 12.9 24.4-5.6 3-9.9-18.6-11.3 6 8.4 15.9-5.3 2.7-8.4-15.9-11.6 6.1 9.9 18.6-5.6 3-12.9-24.5z" style="fill:#c80c2c;stroke:#000;stroke-miterlimit:10" transform="translate(-124.5 -92.5)"/><path stroke-miterlimit="10" d="m435.6 251.6-105.3-64.7h-38.5c-1.5-3.5-10.5-24.2-16.9-33.9-1.4-2.2-1.1-2.7-3.4-4-4-2.3-38.1-1.1-41.4-1-1.1.1-6.2 1.2-7.4 6.9-.8 3.5.2 6.7 2.8 8.8-.1-1.9.6-5.5 3.5-5 2 .2 3.5 2.5 3.5 4.6 0 3.7-4.6 12-4.6 12s-2.9 6.4-5.6 11.7h-52.1L62 252.2l17.5 22.7H111l-10.4-14.2 3.9-2.6 11.9 16.6 26.7-.1-20-28.9 3.8-2.5 22.3 31.2H176l-30.8-43.3 4.1-2.7 32.1 45.8h22.7l2.8-3.4-37.8-55.5 4-2.6 41.7 57.8-44.9 60.6 30.5.1 29.3-40 7 9.7-49.3 66.7h121.4l-44.5-66.2 7.7-11.2 26.6 38.9 29.3-.1-42.3-58.6 39.9-57.8 3.7 2.5-37.1 55.6 2.4 3.4h22l32.4-46 3 2-30.4 43.5h27.2l22.3-31.1 3.3 2.2-20.3 29 26.8.1L393 257l3.8 2.5-10.4 14.4h31.5l.6-.8zm-182.5-95.4c2.2 0 3.9 1.7 3.9 3.9s-1.7 3.9-3.9 3.9-3.9-1.7-3.9-3.9c0-2.1 1.7-3.9 3.9-3.9zm8.9 193.7-11.1-16.8-12.7 17.7-8.9-.1 21.7-29.4 18.8 28.3zm-11.1-68-47.7-74.4 94.4-.1z" style="fill:#c80c2c;stroke:#000;stroke-miterlimit:10"/></svg>