<svg xmlns="http://www.w3.org/2000/svg" xmlns:xlink="http://www.w3.org/1999/xlink" id="Layer_1" width="305.06" height="367.14" data-name="Layer 1" viewBox="0 0 305.06 367.14"><defs id="defs14"><pattern id="New_Pattern" width="20" height="20" x="0" y="0" data-name="New Pattern" patternTransform="matrix(.46 0 0 .48 -3040.65 -2589.9)" patternUnits="userSpaceOnUse" viewBox="0 0 20 20"><g id="g8"><path id="rect4" d="M0 0h20v20H0z" style="fill:none"/><circle id="circle6" cx="10" cy="10" r="6.75" class="cls-34"/></g></pattern><pattern xlink:href="#New_Pattern" id="New_Pattern-2" data-name="New Pattern" patternTransform="matrix(.37 0 0 .39 -3721.71 -3331.43)"/><pattern xlink:href="#New_Pattern" id="New_Pattern-3" data-name="New Pattern" patternTransform="matrix(.19 0 0 .19 -5127.85 -4804.47)"/><pattern xlink:href="#New_Pattern" id="New_Pattern-4" data-name="New Pattern" patternTransform="matrix(.45 0 0 .45 -3122.69 -2853.11)"/><style id="style2">.cls-3,.cls-8,.cls-9{fill:none}.cls-11,.cls-21,.cls-24,.cls-25,.cls-3,.cls-8,.cls-9{stroke-miterlimit:10}.cls-11,.cls-21,.cls-24,.cls-25,.cls-3,.cls-8{stroke:#002b51}.cls-24,.cls-3{stroke-width:10.81px}.cls-11{fill:#00af00}.cls-25,.cls-8{stroke-width:11.03px}.cls-11{stroke-width:9.41px}.cls-34{fill:#002b51}.cls-9{stroke-width:6.14px;stroke:#fff}.cls-21,.cls-35{fill:#fff}.cls-21{stroke-width:8.82px}.cls-24,.cls-25{fill:#ff4e33}</style></defs><g id="g144" transform="translate(-107 -191.02)"><path id="path18" d="M402.17 280.78c-7-8.39-16.95-13.2-27.31-13.2-4.63 0-9.15.94-13.35 2.72-7.64-15.01-22-24.71-38.03-24.71-11.09 0-21.66 4.63-29.75 13.03-3.56 3.69-6.52 8.02-8.8 12.76-8.15 1.02-15.78 5.23-21.35 11.92a38.1 38.1 0 0 0-5.97 9.96c-.92-1.43-1.92-2.8-3-4.1-7-8.39-16.95-13.2-27.31-13.2-4.63 0-9.15.94-13.35 2.72-7.64-15.01-22-24.71-38.03-24.71-11.09 0-21.66 4.63-29.75 13.03-3.56 3.69-6.52 8.02-8.8 12.76-8.15 1.02-15.78 5.23-21.35 11.92-5.81 6.97-9.02 16.06-9.02 25.58 0 .86.03 1.74.08 2.6l.96 15.52H263.6l.44-8.38h147.12l.83-15.67c.04-.83.07-1.66.07-2.46 0-10.48-3.51-20.46-9.89-28.1z" class="cls-35"/><path id="path20" d="M364.44 408.85c9.47-18.28 14.81-38.82 15.42-59.4l3.03-100.97v-.58a36.5 36.5 0 0 0-8.05-22.82 36.53 36.53 0 0 0-20.62-12.73L256 191.02l-98.22 21.33a36.53 36.53 0 0 0-20.62 12.73 36.53 36.53 0 0 0-8.06 22.85v.26l3.04 101.26c.62 20.58 5.95 41.12 15.42 59.4s23.18 34.48 39.64 46.85l62.88 47.25c3.49 2.62 8.35 2.62 11.84 0l62.88-47.25c16.46-12.37 30.17-28.57 39.64-46.85" class="cls-35"/><path id="path22" d="m197.44 442.06 58.56 44 58.56-44a121 121 0 0 0 48.26-93.12l3.03-101.01c0-9.11-6.35-16.98-15.25-18.91L256 208.48l-94.6 20.54a19.355 19.355 0 0 0-15.25 18.91l3.03 101.01c1.1 36.76 18.86 71.03 48.26 93.12z" style="stroke-miterlimit:10;stroke:#002b51;stroke-width:9.17px;fill:#4acfee"/><path id="path24" d="m152.74 351.28.53 13.34c.22 5.47 1.1 10.85 2.6 16.11h200.26a67.6 67.6 0 0 0 2.6-16.11l.53-13.34z" style="fill:#87e196"/><path id="path26" d="m314.56 442.06-58.56 44-58.56-44a121 121 0 0 1-48.26-93.12l-3.03-101.01c0-9.11 6.35-16.98 15.25-18.91l94.6-20.54 94.6 20.54c8.9 1.93 15.25 9.81 15.25 18.91l-3.03 101.01a121 121 0 0 1-48.26 93.12z" style="fill:none;stroke-miterlimit:10;stroke:#002b51;stroke-width:9.17px"/><g id="g32"><path id="path28" d="M257.27 553.59c-37.19 0-74.43-4.25-110.69-12.63l-3.55-.82v-21.62c-10.11-6.18-17-18.33-17.06-30.56-.06-11.59 7.02-20.88 17.06-23.24v-22.44l5.62 1.3c35.58 8.23 72.13 12.4 108.62 12.4s73.04-4.17 108.62-12.4l5.62-1.3v22.45c9.94 2.37 17.02 11.63 17.06 23.19.05 12-6.85 24.17-17.06 30.56v21.67l-3.55.82a492.3 492.3 0 0 1-110.68 12.63z" class="cls-34"/><path id="path30" d="M366.92 448.03v20.69c10.49.28 17.02 9.25 17.06 19.2.05 11.22-7.04 22.79-17.06 27.87v20.69A487 487 0 0 1 257.26 549c-36.79 0-73.57-4.17-109.66-12.52v-20.69c-10.21-4.95-17.01-16.7-17.06-27.87-.05-9.99 6.56-18.92 17.06-19.2v-20.69a487 487 0 0 0 109.65 12.52c36.78 0 73.57-4.17 109.66-12.52m9.19-11.53-11.24 2.6a478.2 478.2 0 0 1-107.59 12.28c-36.15 0-72.34-4.13-107.59-12.28l-11.24-2.6v24.83c-10.21 3.98-17.12 14.2-17.06 26.64.06 12.87 6.86 25.66 17.06 32.99v22.81l7.11 1.64c36.6 8.46 74.19 12.75 111.72 12.75s75.12-4.29 111.72-12.75l7.11-1.64v-22.88c10.31-7.51 17.11-20.34 17.06-33.01-.05-12.38-6.95-22.55-17.06-26.54v-24.85z" class="cls-35"/></g><path id="path34" d="M335.5 260.18s18.5-3.61 29.66 14.96c0 0 9.56-10.83 23.48-4.62l-6.12 19.98-28.04 2.33-17.67-22.31" class="cls-35"/><path id="polygon36" d="M118.03 333.63v-11.91h46.54v5.96l-24.37 5.95z" class="cls-35"/><path id="path38" d="M247.9 318.85c.03-.52.04-1.05.04-1.58 0-13.68-9.25-24.76-20.65-24.76-6.1 0-11.57 3.17-15.35 8.2-2.68-2.98-6.01-5.12-9.71-6.07-3.14-13.9-13.73-24.12-26.31-24.12-13.64 0-24.94 12.01-26.94 27.7-2.34-1.37-4.97-2.14-7.75-2.14-9.76 0-17.68 9.49-17.68 21.2 0 .53.02 1.06.05 1.58h124.31z" class="cls-21"/><path id="path40" d="M395.47 310.47c.03-.52.04-1.05.04-1.58 0-13.68-9.25-24.76-20.65-24.76-6.1 0-11.57 3.17-15.35 8.2-2.68-2.98-6.01-5.12-9.71-6.07-3.14-13.9-13.73-24.12-26.31-24.12-13.64 0-24.94 12.01-26.94 27.7-2.34-1.37-4.97-2.14-7.75-2.14-9.76 0-17.68 9.49-17.68 21.2 0 .53.02 1.06.05 1.58h124.31z" class="cls-21"/><path id="path42" d="M356.78 377.53a116.36 116.36 0 0 1-44.46 71.52L256 491.37l-56.32-42.32a116.36 116.36 0 0 1-44.46-71.52z" style="stroke-miterlimit:10;stroke:#002b51;stroke-width:8.67px;fill:#002b51"/><g id="g58"><circle id="circle44" cx="256.99" cy="342.79" r="82.61" class="cls-3"/><circle id="circle46" cx="256.99" cy="342.79" r="82.61" style="stroke-miterlimit:10;stroke:#002b51;stroke-width:10.81px;fill:#ff55e0"/><path id="path48" d="M256.99 260.18c-24.14 0-45.87 10.36-60.97 26.87 15.1 16.51 36.83 26.87 60.97 26.87s45.87-10.36 60.97-26.87c-15.1-16.51-36.83-26.87-60.97-26.87z" class="cls-24"/><path id="line50" d="M256.99 260.18v165.21" class="cls-24"/><path id="line52" d="M174.39 342.79H339.6" class="cls-24"/><path id="path54" d="M256.99 374.47c-23.45 0-44.61 9.77-59.65 25.46 15.04 15.69 36.2 25.46 59.65 25.46s44.61-9.77 59.65-25.46c-15.04-15.69-36.2-25.46-59.65-25.46z" style="stroke-miterlimit:10;stroke:#002b51;stroke-width:10.81px;fill:#9c0083"/><circle id="circle56" cx="256.99" cy="342.79" r="82.61" class="cls-3"/></g><path id="path60" d="M256.34 257.94v174.04c45.69-.02 82.72-38.97 82.72-87.02s-37.03-87-82.72-87.02" style="fill:url(#New_Pattern)"/><g id="g84"><path id="path62" d="M222.3 340.86c9.03 14.83 24.96 22.88 41.16 22.54 7.74-14.23 7.91-32.08-1.12-46.91s-24.96-22.88-41.16-22.54c-7.74 14.23-7.91 32.08 1.12 46.91z" class="cls-25"/><path id="path64" d="M291.15 340.86c-9.03 14.83-24.96 22.88-41.16 22.54-7.74-14.23-7.91-32.08 1.12-46.91s24.96-22.88 41.16-22.54c7.74 14.23 7.91 32.08-1.12 46.91z" class="cls-25"/><path id="path66" d="M233.91 327.75c0 17.36 9.42 32.53 23.44 40.65 14.01-8.13 23.44-23.29 23.44-40.65s-9.42-32.53-23.44-40.65c-14.01 8.13-23.44 23.29-23.44 40.65z" class="cls-25"/><path id="path68" d="M239.84 327.44s4.89-24.33 19.59-33.81" class="cls-9"/><path id="path70" d="M233.91 327.75c0 17.36 9.42 32.53 23.44 40.65 14.01-8.13 23.44-23.29 23.44-40.65s-9.42-32.53-23.44-40.65c-14.01 8.13-23.44 23.29-23.44 40.65z" class="cls-8"/><g id="g78"><path id="path72" d="M311.24 315.08v32.16c0 30.7-24.92 55.62-55.62 55.62V370.7c0-30.7 24.92-55.62 55.62-55.62z" class="cls-25" transform="rotate(-179.13 283.442 358.959)"/><path id="path74" d="M201.38 314.26c30.7 0 55.62 24.92 55.62 55.62v32.16c-30.7 0-55.62-24.92-55.62-55.62z" class="cls-25" transform="rotate(.87 227.947 356.546)"/><path id="path76" d="m208.69 319.47 1.54 35.02s3.69 34.1 43.32 43.63" class="cls-9"/></g><path id="path80" d="M202.21 315.08c30.7 0 55.62 24.92 55.62 55.62v32.16c-30.7 0-55.62-24.92-55.62-55.62z" class="cls-8" transform="rotate(-.87 229.113 357.382)"/><path id="path82" d="M312.07 314.26v32.16c0 30.7-24.92 55.62-55.62 55.62v-32.16c0-30.7 24.92-55.62 55.62-55.62z" class="cls-8" transform="rotate(179.13 284.252 358.159)"/></g><path id="path86" d="M175.33 456.89s3.13-33.48 46.89-44.19c0 0-33.77-8.6-49.76 22.23" class="cls-35"/><path id="path88" d="M336.66 456.89s-3.13-33.48-46.89-44.19c0 0 33.77-8.6 49.76 22.23" class="cls-35"/><path id="path90" d="M220.93 459.47c12.99-5.78 21.66-17.27 24.37-30.2-11.85-8.31-27.64-10.38-41.83-4.06-12.99 5.78-21.66 17.27-24.37 30.2 11.85 8.31 27.64 10.38 41.83 4.06z" class="cls-11"/><path id="path92" d="m239.55 425.54-32.42 16.68c-1.64.85-.74 3.34 1.07 2.93l34.26-7.74" class="cls-34"/><path id="path94" d="M291.07 459.47c-12.99-5.78-21.66-17.27-24.37-30.2 11.85-8.31 27.64-10.38 41.83-4.06 12.99 5.78 21.66 17.27 24.37 30.2-11.85 8.31-27.64 10.38-41.83 4.06z" class="cls-11"/><path id="path96" d="m272.45 425.54 32.42 16.68c1.64.85.74 3.34-1.07 2.93l-34.26-7.74" class="cls-34"/><g id="g110"><path id="path98" d="M187 477.39v50.12q-4.23-.63-8.43-1.32v-50.12c-2.81-.47-5.61-.96-8.42-1.47v-8.35c8.4 1.52 16.83 2.85 25.3 3.97v8.35c-2.82-.37-5.64-.76-8.45-1.17z" class="cls-35"/><path id="path100" d="M203.16 517.1v-45.95c2.82.32 5.65.62 8.48.88v45.95c-.13 2.57 1.85 4.33 4.24 4.56 2.35.23 4.42-1.3 4.25-3.83v-45.95c2.83.22 5.66.41 8.5.58v45.95c.06 7.78-5.04 12.34-12.74 11.6-7.67-.73-12.9-5.87-12.72-13.8z" class="cls-35"/><path id="path102" d="M236.35 473.75c2.84.12 5.67.22 8.51.3v50.12c4.26.1 8.51.15 12.77.16v8.35c-7.1-.01-14.18-.17-21.27-.46v-58.48z" class="cls-35"/><path id="path104" d="M273.88 473.92v58.48c-2.84.1-5.67.17-8.51.22v-58.48c2.84-.05 5.67-.12 8.51-.22" class="cls-35"/><path id="path106" d="M294.36 472.77c7.75-.78 12.8 3.52 12.73 11.37v4.18c.05 7.84-4.83 13.25-12.73 13.69-1.7.13-2.55.19-4.25.31v29.24c-2.83.19-5.67.36-8.5.51v-58.48c4.25-.23 8.5-.5 12.75-.82m4.25 12.19c.17-2.54-1.77-4.2-4.25-3.83-1.7.13-2.55.19-4.25.31v12.53c1.7-.12 2.55-.18 4.25-.31 2.55-.07 4.37-1.96 4.25-4.52z" class="cls-35"/><path id="path108" d="M327.48 469.05c7.55-1.18 12.72 2.64 12.64 10.49-2.8.49-5.61.96-8.42 1.4.2-2.53-1.88-3.97-4.22-3.53-2.47.45-4.21 2.13-4.22 4.78v4.18c-.19 2.53 1.83 4.05 4.22 3.57 7.42-1.48 12.72 2.64 12.64 10.49v12.53c.04 7.96-4.83 13.4-12.64 14.57-7.6 1.14-12.88-2.95-12.68-10.83 2.82-.34 5.64-.71 8.46-1.1-.19 2.53 1.85 4.02 4.22 3.57 2.49-.47 4.23-2.17 4.22-4.82v-12.53c.2-2.53-1.86-3.99-4.22-3.53-7.33 1.41-12.88-2.95-12.68-10.83v-4.18c-.18-8 5.1-13.04 12.68-14.23" class="cls-35"/></g><path id="rect112" d="M247.4 400.58h18.75v52.5H247.4z" style="stroke-miterlimit:10;stroke:#002b51;fill:#00af00;stroke-width:8.67px"/><path id="polygon114" d="M222.14 352.38h70.14v28.24h-63.24z" style="fill:#ff4e33"/><g id="g122"><path id="polygon116" d="m252.21 358.94-3.08 3.08 5.08 5.09-5.11 5.11 3.06 3.07 5.12-5.12 5.09 5.09 3.08-3.08-5.09-5.09 5.11-5.11-3.06-3.06-5.12 5.11z" class="cls-34"/><path id="polygon118" d="m275.12 358.94-3.08 3.08 5.09 5.09-5.12 5.11 3.07 3.07 5.11-5.12 5.09 5.09 3.08-3.08-5.09-5.09 5.11-5.11-3.06-3.06-5.11 5.11z" class="cls-34"/><path id="polygon120" d="m229.3 358.94-3.08 3.08 5.08 5.09-5.11 5.11 3.06 3.07 5.12-5.12 5.09 5.09 3.08-3.08-5.09-5.09 5.11-5.11-3.06-3.06-5.12 5.11z" class="cls-34"/></g><g id="g142"><path id="path124" d="M181.73 253.71v10.35c-1.63.55-2.44.84-4.06 1.42v-22.76c.04-4.02 2.54-6.94 6.1-8.31 3.27-1.26 6.51.52 6.14 4.28v22.76c-1.64.49-2.46.75-4.1 1.27v-10.35c-1.64.52-2.45.79-4.08 1.34m0-12.41v8.28c1.63-.55 2.44-.82 4.08-1.34v-8.28q0-2.07-2.04-1.41c-1.36.45-2.04 1.37-2.04 2.75" class="cls-34"/><path id="path126" d="M197.78 236.47v22.76c-1.65.43-2.48.66-4.13 1.12v-22.76c.03-3.99 2.35-6.89 6.2-7.86 1.75-.44 3.14-.4 4.15.11 1.01-.98 2.49-1.62 4.16-2.05 3.45-.89 6.58 1.19 6.27 4.95v22.76c-1.67.31-2.51.48-4.18.82v-22.76c0-1.38-.7-1.93-2.09-1.63s-2.08 1.15-2.08 2.53v22.76c-1.67.37-2.5.57-4.16.97v-22.76q0-2.07-2.07-1.56c-1.38.35-2.07 1.22-2.07 2.6" class="cls-34"/><path id="path128" d="M224.55 224.88c3.48-.55 6.6 1.63 6.32 5.4-1.69.19-2.53.3-4.22.52 0-1.38-.7-1.98-2.11-1.78-1.4.2-2.1 1-2.1 2.38v2.07c0 1.38.76 2 2.1 1.76 3.55-.63 6.6 1.63 6.32 5.4v6.21c.18 3.86-2.82 6.47-6.32 7.02-3.4.53-6.6-1.44-6.31-5.23 1.68-.28 2.52-.42 4.2-.67 0 1.38.7 1.96 2.1 1.76s2.11-.98 2.11-2.36v-6.21c0-1.38-.77-2.03-2.11-1.78-3.48.63-6.6-1.44-6.31-5.23v-2.07c-.16-3.85 2.73-6.63 6.31-7.19z" class="cls-34"/><path id="path130" d="M243.18 227.13v24.83c-1.69.1-2.54.16-4.23.3v-24.83c-1.69.13-2.54.21-4.23.37v-4.14c4.22-.41 8.46-.71 12.7-.89v4.14c-1.7.07-2.54.12-4.24.22" class="cls-34"/><path id="path132" d="M255.52 247.39c3.39-.03 5.09-.02 8.48.08v4.14c-4.24-.11-8.49-.11-12.73 0v-28.97c4.24-.11 8.49-.11 12.73 0v4.14a200 200 0 0 0-8.48-.08v6.21c2.97-.03 4.45-.02 7.42.05v4.14c-2.97-.07-4.45-.08-7.42-.05v10.35z" class="cls-34"/><path id="path134" d="M274.22 223.13c3.81.08 6.53 2.91 6.35 6.74v2.07c0 1.75-.38 3.09-1.14 4.03.76 1.08 1.14 2.49 1.14 4.25v12.41c-1.69-.16-2.54-.24-4.23-.37v-12.41c0-1.38-.71-2.13-2.12-2.23-.85-.06-1.27-.09-2.12-.14v14.48c-1.69-.1-2.54-.15-4.24-.22v-28.97c2.54.11 3.82.18 6.36.36m2.12 6.37c0-1.38-.71-2.13-2.12-2.23-.85-.06-1.27-.09-2.12-.14v6.21c.85.05 1.27.08 2.12.14 1.41.1 2.12-.53 2.12-1.91z" class="cls-34"/><path id="path136" d="M284.41 224.07c2.53.29 3.8.45 6.32.81 3.82.38 6.47 3.34 6.31 7.19v16.55c.3 3.79-2.71 6.03-6.31 5.23-2.53-.36-3.79-.52-6.32-.81zm6.32 4.95c-.84-.12-1.26-.18-2.11-.29v20.69c.84.11 1.26.17 2.11.29 1.4.2 2.1-.38 2.1-1.76V231.4c0-1.38-.7-2.18-2.1-2.38" class="cls-34"/><path id="path138" d="M305.03 245.98v10.35c-1.67-.34-2.51-.51-4.18-.82v-22.76c-.31-3.76 2.81-5.86 6.27-4.95 3.69.96 6.24 3.66 6.24 7.63v22.76c-1.66-.4-2.49-.6-4.16-.97v-10.35c-1.67-.37-2.5-.55-4.17-.89m0-12.42v8.28c1.67.34 2.5.52 4.17.89v-8.28c0-1.38-.69-2.23-2.08-2.53s-2.09.25-2.09 1.63z" class="cls-34"/><path id="path140" d="M321.26 237.49v22.76c-1.65-.46-2.48-.68-4.13-1.12v-22.76c-.34-3.76 2.85-5.64 6.19-4.51 1.64.56 3.11 1.29 4.11 2.35 1-.44 2.37-.39 4.09.19 3.78 1.27 6.08 4.29 6.1 8.31v22.76c-1.62-.58-2.43-.87-4.06-1.42v-22.76c0-1.38-.68-2.3-2.04-2.75s-2.04.03-2.04 1.41v22.76c-1.64-.52-2.46-.78-4.1-1.27v-22.76c0-1.38-.68-2.28-2.06-2.67-1.37-.4-2.06.1-2.06 1.48" class="cls-34"/></g></g></svg>