<svg xmlns="http://www.w3.org/2000/svg" id="Layer_1" width="528.16" height="528.16" data-name="Layer 1" version="1.1"><defs id="defs4"><style id="style2">.cls-2,.cls-5{fill:#fff}.cls-6{stroke:#fff;stroke-miterlimit:10}.cls-2,.cls-7{stroke-width:5.21px;stroke-linecap:round;stroke-linejoin:round}.cls-2{stroke:#8f8f8f}.cls-7{stroke:orange;fill:none}.cls-6{fill:#d6d6d6;stroke-width:1.94px}.cls-10,.cls-5{stroke-width:0}.cls-10{fill:#8f8f8f}</style></defs><g id="g117" transform="translate(-35.92 -36.17)"><path id="path8" fill="#fff" stroke-width="0" d="M543.31 197.45a263.13 263.13 0 0 0-56.58-83.93A263.3 263.3 0 0 0 300 36.17c-35.63 0-70.22 6.99-102.8 20.77a263.13 263.13 0 0 0-83.93 56.58 263.13 263.13 0 0 0-56.58 83.93 262.47 262.47 0 0 0-20.77 102.8c0 35.63 6.99 70.22 20.77 102.8a263.13 263.13 0 0 0 56.58 83.93A263.3 263.3 0 0 0 300 564.33c35.63 0 70.22-6.99 102.8-20.77a263.13 263.13 0 0 0 83.93-56.58 263.13 263.13 0 0 0 56.58-83.93 262.47 262.47 0 0 0 20.77-102.8c0-35.63-6.99-70.22-20.77-102.8" class="cls-5"/><g id="g73"><circle id="circle10" cx="300" cy="300.26" r="158.83" style="fill:#fff;stroke:#fff;stroke-miterlimit:10;stroke-width:19.43px"/><path id="polygon12" d="m233.25 314.04-6.94-37.61-2.25 50.16 7.87-2.51 10.72 24.7v-39.46z" style="stroke-linecap:round;stroke-linejoin:round;stroke:orange;fill:none;stroke-width:5.12px"/><path id="polygon14" fill="none" stroke="orange" stroke-linecap="round" stroke-linejoin="round" stroke-width="5.21" d="m365.06 314.04 6.94-37.61 2.25 50.16-7.87-2.51-10.72 24.7v-39.46z" class="cls-7"/><g id="_8DObHs" data-name="8DObHs"><g id="g38"><path id="path16" fill="#d6d6d6" stroke="#fff" stroke-miterlimit="10" stroke-width="1.94" d="M462.16 300.23c0 89.52-72.67 162.19-162.18 162.18-89.58 0-162.18-72.74-162.13-162.42.05-89.41 72.86-161.95 162.47-161.89 89.23.06 161.84 72.8 161.84 162.13zm-7.85.08c.28-84.93-68.91-154.38-154.25-154.41-85.34-.03-154.39 69.37-154.41 154.3-.03 84.95 68.99 154.38 154.31 154.41 85.3.03 154.58-69.34 154.36-154.31z" class="cls-6"/><path id="path18" fill="#d6d6d6" stroke="#fff" stroke-miterlimit="10" stroke-width="1.94" d="M403.89 296.88c2.01 57.56-43.12 104.53-98.47 107.24-59.65 2.92-106.67-43.49-109.29-98.54-2.83-59.57 43.47-106.51 98.46-109.19 60.22-2.94 107.9 44.58 109.3 100.49zm-103.82 99.64c53.02-.02 96.18-43.17 96.2-96.19.03-53.14-43.13-96.34-96.24-96.35-53.13 0-96.31 43.16-96.3 96.28 0 53.11 43.2 96.27 96.33 96.25z" class="cls-6"/><path id="path20" fill="#d6d6d6" stroke="#fff" stroke-miterlimit="10" stroke-width="1.94" d="M173.49 304.66c-6.21 0-12.43-.06-18.64.04-1.81.03-2.55-.46-2.55-2.36.03-15.97 2.09-31.62 6.99-46.86.46-1.43 1.04-1.79 2.52-1.3 10.37 3.5 20.75 6.93 31.15 10.33 1.41.46 1.84 1.07 1.36 2.53a106.6 106.6 0 0 0-4.56 22.21c-.13 1.23-.68 1.51-1.77 1.42a6171.4 6171.4 0 0 0-19.14-1.62c-1.08-.09-1.51-.66-1.36-1.68.62-4.29 1.27-8.57 1.89-12.86.14-.97.66-1.36 1.61-1.15 1.71.37 3.41.75 5.12 1.1.8.17 1.05.62.91 1.4-.28 1.46-.5 2.93-.78 4.39-.2 1.02.1 1.64 1.2 1.75.13.01.25.07.38.08 5.75.68 4.61 1.61 5.67-3.68.48-2.41.96-4.82 1.55-7.21.27-1.09-.11-1.56-1.09-1.83-5.88-1.56-11.76-3.13-17.63-4.71-1.09-.29-1.62-.05-1.92 1.14a140.1 140.1 0 0 0-3.41 19.29c-.29 2.83-.42 5.68-.73 8.51-.18 1.61.19 2.33 2.02 2.37 8.22.16 16.43.51 24.65.67 1.89.04 2.43.7 2.4 2.53a104.75 104.75 0 0 0 4.87 33.86c.55 1.73.28 2.5-1.53 3.08-10.23 3.3-20.43 6.69-30.6 10.15-1.75.6-2.35.12-2.87-1.53a160.9 160.9 0 0 1-6.13-29.61c-.21-1.76.37-2.41 2.15-2.53 5.74-.4 11.47-.95 17.21-1.47 2.58-.23 2.65-.12 2.97 2.44.44 3.53.97 7.05 1.58 10.55.23 1.34-.21 1.81-1.46 2.12-5.67 1.42-5.73 1.46-6.75-4.11-.32-1.73-.78-2.39-2.74-2.03-4.44.8-4.49.67-3.6 5.14.62 3.11 1.35 6.2 1.94 9.31.23 1.22.71 1.66 1.97 1.32 5.81-1.58 11.63-3.13 17.45-4.66 1.14-.3 1.57-.79 1.24-2.07a101.7 101.7 0 0 1-3.3-22.62c-.05-1.74-.48-2.74-2.6-2.43-1.84.27-3.75.06-5.63.06v.54z" class="cls-6"/><path id="path22" fill="#d6d6d6" stroke="#fff" stroke-miterlimit="10" stroke-width="1.94" d="M415.42 296.84c-4.39.43-4.43.44-4.84-3.94-.62-6.64-1.45-13.25-3.15-19.71-.36-1.38-.03-1.99 1.36-2.35a1257.9 1257.9 0 0 0 18.01-4.82c1.28-.35 1.94-.03 2.2 1.3.79 4 1.61 7.99 2.45 11.98.28 1.33-.09 1.93-1.55 2.2-5.76 1.07-5.8 1.14-6.74-4.54-.23-1.38-.72-1.68-2.03-1.47-4.9.79-4.88.75-4.1 5.66.35 2.24.61 4.49.85 6.74.13 1.25.56 1.81 1.98 1.67 5.66-.55 11.34-1.03 17.01-1.44 1.71-.13 2.48-.52 2.24-2.54a155.23 155.23 0 0 0-5.59-27.15c-.48-1.59-1.12-1.81-2.64-1.29-7.72 2.64-15.49 5.13-23.2 7.78-1.8.62-2.63.34-3.27-1.55a104.2 104.2 0 0 0-16.26-30.11c-1.15-1.5-.99-2.23.47-3.37 8.48-6.6 16.9-13.29 25.28-20.01 1.27-1.02 1.96-1.13 3.05.29a155.28 155.28 0 0 1 16.1 26.07c.65 1.32.56 2.05-.87 2.7-5.72 2.6-11.41 5.26-17.08 7.95-1.09.52-1.57.24-2.1-.79a296.49 296.49 0 0 0-5.52-10.25c-.65-1.15-.61-1.85.58-2.51 1.3-.72 2.57-1.5 3.8-2.34 1-.68 1.61-.45 2.15.57.76 1.43 1.64 2.79 2.41 4.21.44.81.96.94 1.73.5 1.3-.73 2.6-1.45 3.92-2.13.8-.41.71-.9.33-1.58a151.9 151.9 0 0 0-6.94-11.23c-.56-.83-1.06-.93-1.88-.35-5.07 3.59-10.16 7.16-15.27 10.7-.84.58-.9 1.07-.33 1.89 4.59 6.7 8.47 13.79 11.53 21.31.54 1.34 1.29 1.09 2.29.69 7.63-3.05 15.28-6.08 22.92-9.11 2.37-.94 2.42-.95 3.33 1.46a145.12 145.12 0 0 1 8.57 35.38c.38 3.47.66 6.95.83 10.44.1 2-.68 2.61-2.53 2.64-5.95.1-11.91.33-17.86.43-3.88.07-7.76.01-11.64.01z" class="cls-6"/><path id="path24" fill="#d6d6d6" stroke="#fff" stroke-miterlimit="10" stroke-width="1.94" d="M300.44 160.46c-6.57-.07-12.56.45-18.55 1.11-1.48.16-1.86.68-1.65 2.08 1.15 7.68 2.28 15.36 3.34 23.05.63 4.59 1.11 3.7-3.28 4.51-10.83 2-21.19 5.43-30.95 10.54-1.79.93-2.47.58-3.37-1.12a1989.56 1989.56 0 0 0-15.15-28.02c-.95-1.72-.7-2.48 1.06-3.38a157.02 157.02 0 0 1 27.95-11.05c1.74-.5 2.38-.13 2.82 1.61a600.43 600.43 0 0 0 4.6 17.26c.42 1.49.25 2.23-1.4 2.64-3.7.94-7.33 2.14-10.87 3.59-1.07.44-1.72.23-2.08-.89-.18-.55-.45-1.08-.65-1.62-1.75-4.69-2.54-3.76 2.65-5.75 3.18-1.22 3.2-.43 1.98-4.09-1.23-3.68-.76-3.56-4.47-2.2-3.34 1.23-6.58 2.71-9.9 4-1.12.44-1.31.93-.78 2.02 2.59 5.43 5.13 10.89 7.63 16.37.55 1.21 1.16 1.44 2.39.87a105.11 105.11 0 0 1 21.88-7.29c1.84-.39 2.03-1.21 1.7-2.8-1.69-7.98-3.27-15.98-5-23.94-.39-1.77.08-2.4 1.8-2.73 9.44-1.8 18.98-2.65 28.57-2.61 6.33.03 12.67.38 18.96 1.33 1.58.24 1.9.89 1.69 2.32a3764.09 3764.09 0 0 0-4.6 31.89c-.25 1.82-.82 2.54-2.82 2.25a102.45 102.45 0 0 0-22.28-.57c-1.33.1-1.71-.57-1.8-1.69l-1.24-14.89c-.11-1.29-.24-2.58-.36-3.86-.1-1.07.26-1.65 1.46-1.79 4.2-.51 8.41-.32 12.61-.37 1.27-.01 1.76.59 1.66 1.79v.39c-.1 1.67.59 3.67-.35 4.94-1.06 1.43-3.14.38-4.75.47-1.75.1-2.35.72-2.31 2.49.09 4.3.02 4.28 4.34 4.37 2.39.05 4.79.15 7.17.35 1.52.13 2.11-.53 2.23-1.95.5-5.93 1.01-11.86 1.55-17.79.11-1.18-.5-1.41-1.49-1.47-3.49-.21-6.98-.51-9.94-.37z" class="cls-6"/><path id="path26" fill="#d6d6d6" stroke="#fff" stroke-miterlimit="10" stroke-width="1.94" d="m415.52 303.39 29.12.74c2.73.07 2.84.15 2.75 2.92-.3 10.07-1.95 19.95-4.31 29.72-.36 1.48-1.06 1.81-2.51 1.4-5.93-1.64-11.87-3.21-17.82-4.76-1.13-.3-1.62-.73-1.33-2.03.88-3.91 1.66-7.85 2.42-11.79.19-.98.64-1.34 1.58-1.2 1.73.26 3.45.54 5.18.78.88.12 1.01.68.89 1.4-.21 1.34-.45 2.68-.67 4.02-.08.51-.38 1.15-.18 1.52 1.11 2.08 3.4 1.17 5.08 1.87.96.4 1.41-.33 1.58-1.19.84-4.26 1.41-8.55 1.86-12.87.15-1.45-.93-1.37-1.77-1.45-3.15-.31-6.31-.56-9.47-.83-2.71-.23-5.42-.39-8.12-.7-1.28-.15-1.8.34-1.91 1.53a113.41 113.41 0 0 1-4.8 23.35c-.49 1.55.4 1.75 1.44 2.1l23.23 7.71c2.43.81 2.45.82 1.6 3.26a146.14 146.14 0 0 1-22.59 41.65c-.9 1.16-1.49 1.19-2.61.3a3993.81 3993.81 0 0 0-26.05-20.62c-1.11-.87-1.05-1.51-.26-2.53a106.68 106.68 0 0 0 11.84-19.12c.67-1.39 1.31-1.58 2.68-.92a695.27 695.27 0 0 0 16.37 7.64c1.5.68 1.96 1.38 1.1 2.92a371.6 371.6 0 0 0-5.73 10.59c-.64 1.22-1.35 1.44-2.43.6-.36-.28-.77-.48-1.15-.72q-3.97-2.45-1.56-6.55 1.3-2.2-.92-3.37c-3.85-2.02-3.81-2-5.98 1.72-1.24 2.12-2.57 4.2-3.95 6.23-.64.93-.69 1.48.33 2.19 5.01 3.45 10 6.94 14.95 10.49 1.1.79 1.62.47 2.29-.52a148.9 148.9 0 0 0 13.5-24.89c.69-1.61.14-2.16-1.25-2.7-7.6-2.97-15.15-6.05-22.77-8.96-1.83-.7-2.13-1.43-1.43-3.26a106.55 106.55 0 0 0 6.9-33.71c.07-1.58.57-2.27 2.18-2.11.9.09 1.81.02 2.72.02v.11z" class="cls-6"/><path id="path28" fill="#d6d6d6" stroke="#fff" stroke-miterlimit="10" stroke-width="1.94" d="M302.54 440.07c2.6.1 5.17-.22 7.75-.37 1.26-.07 1.68-.48 1.56-1.78-.54-5.6-1.01-11.21-1.47-16.82-.2-2.47-.35-2.76-2.76-2.57-7.65.61-15.26.24-22.85-.77-1.6-.21-1.86.72-2.03 1.89-1.07 7.43-2.09 14.86-3.23 22.28-.75 4.89.25 4.63-4.93 3.74a148.7 148.7 0 0 1-42.7-14.41c-1.6-.82-2.04-1.5-1.1-3.21 5.27-9.59 10.45-19.23 15.62-28.87.59-1.1 1.18-1.31 2.3-.72a104.95 104.95 0 0 0 21.26 8.42c1.21.33 1.5.94 1.17 2.14a1874.2 1874.2 0 0 0-4.87 18.2c-.3 1.14-.77 1.63-2.05 1.26a156.82 156.82 0 0 1-11.97-3.98c-1.13-.44-1.56-.99-1.01-2.18a46.48 46.48 0 0 0 1.67-4.14c.43-1.24 1.14-1.34 2.24-.88 1.31.55 2.68.96 4.01 1.46.86.32 1.37.08 1.6-.8l.07-.18q1.94-4.77-2.83-6.64c-2.11-.83-4.21-1.68-6.26-2.63-1.11-.51-1.74-.41-2.28.77-2.56 5.59-5.16 11.16-7.8 16.72-.55 1.16.07 1.43.93 1.82 8.7 3.94 17.74 6.86 27.03 9.04 1.51.35 2.03-.07 2.32-1.54 1.62-8.19 3.37-16.35 4.96-24.55.32-1.65.97-1.96 2.49-1.67a110.24 110.24 0 0 0 34.01 1.11c3.05-.36 3-.34 3.44 2.75 1.46 10.31 2.93 20.62 4.5 30.92.28 1.82-.07 2.51-2.01 2.76a153.68 153.68 0 0 1-29.63.93c-2.56-.16-2.75-.37-2.54-2.95.47-5.93 1.04-11.86 1.52-17.79.1-1.24.58-1.61 1.84-1.59 4.01.06 8.01.62 12.03.35 1-.07 1.43.42 1.45 1.37v.19c.57 6.06.57 6.12-5.6 6.12-1.64 0-2.16.59-2.13 2.16.1 5.4-.8 4.58 4.56 4.67h1.75z" class="cls-6"/><path id="path30" fill="#d6d6d6" stroke="#fff" stroke-miterlimit="10" stroke-width="1.94" d="M322.42 409.88c-.15-1.28.87-1.26 1.65-1.45a111.2 111.2 0 0 0 21.68-7.27c.88-.4 1.44-.24 1.86.67 2.74 5.87 5.49 11.72 8.26 17.58.45.95.23 1.55-.75 2a128.13 128.13 0 0 1-12.08 4.81c-1.03.35-1.58.01-1.89-.99-.48-1.55-1-3.08-1.53-4.61-.32-.92-.02-1.45.91-1.75 1.48-.48 2.92-1.07 4.39-1.56.89-.3 1.11-.8.69-1.61l-.08-.18q-1.76-4.87-6.69-3.22c-2.03.67-4.06 1.34-6.11 1.91-1.23.34-1.72.91-1.36 2.23a1430.4 1430.4 0 0 1 4.58 17.07c.36 1.4 1.04 1.68 2.4 1.29a144.73 144.73 0 0 0 26.3-10.46c1.21-.62 1.36-1.19.7-2.4-4.04-7.38-7.97-14.82-12.02-22.2-.79-1.43-.5-2.1.86-2.87a109.54 109.54 0 0 0 27.58-21.86c.95-1.04 1.56-.96 2.53-.09 8.05 7.21 16.15 14.38 24.22 21.58 1.95 1.74 1.93 1.79.2 3.63a156.72 156.72 0 0 1-22.48 19.96c-1.28.92-1.98.95-2.92-.42a887.71 887.71 0 0 0-10.6-15.1c-.75-1.05-.81-1.72.36-2.52a97.6 97.6 0 0 0 9.15-7.21c.93-.82 1.49-.82 2.38.11 4.22 4.42 4.29 4.44-.36 8.27-1.29 1.06-1.23 1.73-.24 2.94 3.06 3.71 3.03 3.77 6.65.59 2.39-2.09 4.7-4.26 7.07-6.36.81-.72.85-1.27.05-2.06-4.38-4.32-8.73-8.67-13.05-13.05-.78-.79-1.29-.75-2.07-.01a122.3 122.3 0 0 1-18.88 14.9c-1.26.8-.96 1.54-.33 2.55 4.38 7.03 8.69 14.12 13.11 21.12.96 1.52.75 2.28-.77 3.18a151.31 151.31 0 0 1-44.04 17.46c-1.45.32-2.23.2-2.57-1.5-2.16-10.78-4.42-21.55-6.64-32.32-.05-.25-.08-.51-.11-.77z" class="cls-6"/><path id="path32" fill="#d6d6d6" stroke="#fff" stroke-miterlimit="10" stroke-width="1.94" d="M222.34 425.66c-.36-.18-.78-.36-1.16-.6a147.6 147.6 0 0 1-24.47-19.38c-1.01-1-.85-1.63.07-2.53 4.42-4.37 8.81-8.77 13.18-13.2.83-.84 1.44-1.06 2.39-.12 2.81 2.77 5.74 5.43 8.86 7.86.89.7 1.08 1.34.31 2.25-1 1.18-1.98 2.4-2.9 3.65-.72.97-1.4.95-2.25.2-1.21-1.08-2.47-2.1-3.68-3.17-.65-.58-1.22-.69-1.77.1-.07.11-.16.2-.25.3-3.58 3.92-3.6 3.94.55 7.28 2.32 1.87 4.73 3.62 7.06 5.47.93.74 1.53.62 2.2-.35 3.47-5 6.96-9.99 10.49-14.94.7-.98.54-1.5-.4-2.18a108.61 108.61 0 0 1-17.66-15.72c-1.08-1.2-1.75-.99-2.8-.05-6.16 5.54-12.4 10.99-18.54 16.56-1.24 1.12-1.97 1.19-3.11-.13a149.06 149.06 0 0 1-25.08-40.66c-.55-1.35-.24-1.96 1.08-2.48a4772.3 4772.3 0 0 0 30.67-12.22c1.3-.52 1.95-.33 2.5 1.03a102.36 102.36 0 0 0 10.69 19.78c.8 1.16.74 1.82-.47 2.65a950 950 0 0 0-15.27 10.71c-1.1.79-1.75.69-2.5-.44a213 213 0 0 1-6.55-10.56c-.69-1.19-.48-1.89.75-2.42 1.72-.74 3.33-2.59 5-2.27 1.65.32 2.06 2.77 2.97 4.3.69 1.17 1.25 1.32 2.43.59 4.21-2.62 4.22-2.57 1.82-6.92-1.13-2.04-2.22-4.1-3.25-6.19-.47-.96-.94-1.18-1.95-.7-5.49 2.61-11 5.2-16.55 7.71-1.41.64-1.15 1.35-.63 2.42a143.7 143.7 0 0 0 14.99 24.25c.92 1.22 1.53.91 2.47.16 6.48-5.17 13.02-10.26 19.46-15.48 1.43-1.16 2.18-1.16 3.38.32 7.35 9.09 16 16.74 25.87 23 1.31.83 1.61 1.51.73 2.91-5.77 9.22-11.47 18.49-17.2 27.73-.36.57-.55 1.35-1.48 1.48z" class="cls-6"/><path id="path34" fill="#d6d6d6" stroke="#fff" stroke-miterlimit="10" stroke-width="1.94" d="m322.46 190.32 2.63-12.71 4.01-19.59c.49-2.41.52-2.41 2.93-1.87a148.63 148.63 0 0 1 28.69 9.54c1.44.65 1.8 1.23 1.07 2.73a673.77 673.77 0 0 0-7.64 16.36c-.68 1.51-1.39 1.87-2.95 1.1a71.48 71.48 0 0 0-10.1-4.01c-1.4-.44-1.95-1.03-1.31-2.5.51-1.18.92-2.43 1.22-3.68.38-1.55 1.19-1.82 2.55-1.19.58.27 1.21.47 1.84.61 1.21.26 2.65 1.82 3.5.8 1.14-1.36 1.56-3.36 2.18-5.13.21-.59-.41-.87-.91-1.07a121.33 121.33 0 0 0-12.34-4.1c-.9-.25-1.48.03-1.74.99l-4.77 17.82c-.37 1.39.56 1.64 1.55 1.92a120.07 120.07 0 0 1 16.73 6.23c1.59.73 3.19 1.44 4.71 2.31 1.29.74 1.96.59 2.7-.8 3.85-7.27 7.85-14.45 11.67-21.73.91-1.73 1.59-1.99 3.35-1a153.71 153.71 0 0 1 37 29.32c1.08 1.15 1.15 1.91-.08 2.99-8.3 7.33-16.56 14.7-24.81 22.07-.86.77-1.44.77-2.24-.11a109.77 109.77 0 0 0-17.08-15.22c-1.08-.78-1.24-1.41-.46-2.52 3.64-5.12 7.25-10.26 10.81-15.43.74-1.08 1.4-1.07 2.37-.36 3.45 2.52 6.82 5.15 10.03 7.97.72.63.95 1.12.2 1.9a80 80 0 0 0-3.36 3.77c-.64.76-1.22.84-1.94.13-.41-.41-.87-.77-1.34-1.12-1.08-.8-2.19-2.65-3.18-2.21-1.69.75-2.59 2.77-3.71 4.34-.4.56.02.96.42 1.32 2.72 2.4 5.45 4.78 8.14 7.21.68.62 1.16.58 1.79-.05 4.38-4.41 8.77-8.81 13.19-13.18.81-.8.68-1.34-.08-2.07a152.8 152.8 0 0 0-22.84-18.02c-1.11-.72-1.54-.25-2.1.66-4.34 7.06-8.75 14.08-13.04 21.17-.95 1.57-1.64 2.04-3.42.97a108.42 108.42 0 0 0-31.79-12.69c-.88-.2-2.29 0-2.07-1.88z" class="cls-6"/><path id="path36" fill="#d6d6d6" stroke="#fff" stroke-miterlimit="10" stroke-width="1.94" d="M186.18 231.17c.13-.53-.06-.8-.34-.98-1.47-.94-2.94-1.89-4.44-2.78-.64-.38-.93.2-1.19.63-2.3 3.83-4.41 7.77-6.37 11.79-.41.85-.13 1.29.66 1.66 5.7 2.64 11.39 5.3 17.07 7.98.89.42 1.27.04 1.64-.71a114.49 114.49 0 0 1 12.77-20.6c.88-1.13.37-1.66-.49-2.34-6.56-5.17-13.06-10.42-19.67-15.52-1.48-1.14-1.43-1.89-.33-3.22a152.2 152.2 0 0 1 35.43-31.49c1.32-.84 2.02-.79 2.89.63a2871.5 2871.5 0 0 0 17.27 27.92c.82 1.32.56 2-.68 2.77a101.49 101.49 0 0 0-17.48 13.83c-1.12 1.09-1.8.99-2.83-.06-4.3-4.4-8.66-8.74-13.04-13.06-.94-.92-1.04-1.52-.03-2.5 2.98-2.88 6.09-5.62 9.25-8.3 1.03-.88 1.76-.83 2.52.3 1.04 1.55 3.15 2.8 3.11 4.52-.04 1.69-2.38 2.49-3.73 3.65-1.02.89-1.17 1.55-.17 2.51 1.16 1.11 2.1 2.96 3.41 3.27 1.34.31 2.37-1.72 3.62-2.62 1.94-1.41 3.79-2.93 5.73-4.34.79-.58.94-1.06.35-1.9a2319.7 2319.7 0 0 1-10.72-15.26c-.57-.82-1.12-.89-1.93-.31a139.47 139.47 0 0 0-21.86 19.47c-.95 1.06-.19 1.61.49 2.21l12.9 11.51c2.03 1.81 4.02 3.67 6.09 5.43 1 .85 1.11 1.46.19 2.52a107.72 107.72 0 0 0-18.52 29.92c-.61 1.48-1.26 1.77-2.76 1.16a2940.28 2940.28 0 0 0-30.31-12.08c-1.48-.58-1.86-1.21-1.22-2.73a154.92 154.92 0 0 1 14.67-27.11c.8-1.17 1.44-1.37 2.64-.52 5.05 3.62 10.15 7.18 15.26 10.72 1.06.73 1.31 1.35.49 2.5a95.99 95.99 0 0 0-6.14 9.9c-.6 1.11-1.22 1.31-2.3.65a37.7 37.7 0 0 0-3.77-2c-1.21-.57-1.47-1.27-.73-2.43.8-1.25 1.51-2.57 2.25-3.86.16-.28.29-.58.36-.72z" class="cls-6"/></g></g><g id="g71"><path id="path41" d="M426.32 167.91a73.6 73.6 0 0 0 4.23-25.49 10.43 10.43 0 0 0-18.69-5.95 26.12 26.12 0 0 1-9.75 7.72 72.9 72.9 0 0 0 1.82-17.15 10.43 10.43 0 0 0-18.69-5.95c-10.54 13.81-32.09 11.26-32.26 11.24-.46-.06-.93-.09-1.4-.09h-50.43a57.13 57.13 0 0 0-55.68 69.56 57.16 57.16 0 0 0 55.68 44.55c15.24 0 29.61-6.16 40.46-17.35a60.97 60.97 0 0 0 3.99-4.55c.25.35.52.69.81 1.01 11.07 12.06 25.88 16.27 35.7 16.27.36 0 .71 0 1.06-.02 10.79-.35 16.73-5.88 17.81-6.99a10.41 10.41 0 0 0 1.22-13.05 33.68 33.68 0 0 0 7.79-6.88 34.07 34.07 0 0 0 7.31-15.33 10.4 10.4 0 0 0-4.86-10.55c6.05-5.29 10.77-12.37 13.88-21z" style="stroke-width:10.24px;fill:#fff;stroke:#fff;stroke-miterlimit:10"/><path id="path43" fill="none" stroke="orange" stroke-linecap="round" stroke-linejoin="round" stroke-width="5.21" d="M301.15 142.65a46.64 46.64 0 1 0 0 93.28c25.76 0 46.64-21.92 46.64-47.68V173.9" class="cls-7"/><path id="path45" fill="none" stroke="orange" stroke-linecap="round" stroke-linejoin="round" stroke-width="5.21" d="M270.13 189.3a31.05 31.05 0 0 1 31.02-31.02" class="cls-7"/><path id="path47" fill="none" stroke="orange" stroke-linecap="round" stroke-linejoin="round" stroke-width="5.21" d="M285.75 189.3a15.4 15.4 0 0 1 15.39-15.39" class="cls-7"/><path id="path49" fill="none" stroke="orange" stroke-linecap="round" stroke-linejoin="round" stroke-width="5.21" d="M301.15 142.65h50.43s27.46 3.73 41.94-15.25c0 0 1.5 42.06-33.45 46.5h-58.92" class="cls-7"/><path id="path51" fill="none" stroke="orange" stroke-linecap="round" stroke-linejoin="round" stroke-width="5.21" d="M359.54 189.29h27.15c34.95-4.44 33.45-46.5 33.45-46.5-14.48 18.97-41.94 15.25-41.94 15.25h-79.13" class="cls-7"/><path id="path53" fill="none" stroke="orange" stroke-linecap="round" stroke-linejoin="round" stroke-width="5.21" d="M301.15 235.94s.95-33.32 64.74-33.32c0 0 31.47 4.14 41.13-4.82 0 0-3.45 21.25-30 19.07 0 0 2.69 11.96 16.52 10.58 0 0-3.55 3.63-10.7 3.86-7.94.26-19.96-3.31-28.75-12.89" class="cls-7"/><path id="path55" fill="none" stroke="orange" stroke-linecap="round" stroke-linejoin="round" stroke-width="5.21" d="M333.81 189.3c-11.83-.2-23.89 3.47-33.12 10.97-10.72 8.71-13.09 19.77-13.09 33.03" class="cls-7"/><path id="path57" fill="#fff" stroke="#8f8f8f" stroke-linecap="round" stroke-linejoin="round" stroke-width="5.21" d="M262.02 288.1s-3.1-16.12-11.28-24.86c-8.18-8.74-7.9-16.07-7.9-21.15h114.53c0 5.08.28 12.41-7.9 21.15-8.18 8.74-11.28 24.86-11.28 24.86h-76.18z" class="cls-2"/><path id="polyline59" fill="#fff" stroke="#8f8f8f" stroke-linecap="round" stroke-linejoin="round" stroke-width="5.21" d="M262.02 379.25V288.1h76.34v91.15" class="cls-2"/><path id="path61" fill="#fff" stroke="#8f8f8f" stroke-linecap="round" stroke-linejoin="round" stroke-width="5.21" d="M272.71 369.87v-62.65a4.18 4.18 0 0 1 4.17-4.17h2.56a4.18 4.18 0 0 1 4.17 4.17v62.65" class="cls-2"/><path id="path63" fill="#fff" stroke="#8f8f8f" stroke-linecap="round" stroke-linejoin="round" stroke-width="5.21" d="M294.5 369.87v-62.65a4.18 4.18 0 0 1 4.17-4.17h2.56a4.18 4.18 0 0 1 4.17 4.17v62.65" class="cls-2"/><path id="path65" fill="#fff" stroke="#8f8f8f" stroke-linecap="round" stroke-linejoin="round" stroke-width="5.21" d="M316.3 369.87v-62.65a4.18 4.18 0 0 1 4.17-4.17h2.56a4.18 4.18 0 0 1 4.17 4.17v62.65" class="cls-2"/><path id="path67" fill="none" stroke="orange" stroke-linecap="round" stroke-linejoin="round" stroke-width="5.21" d="M321.75 230.94s-4.02-31.18-43.59-31.41h-22.53" class="cls-7"/><rect id="rect69" width="127.95" height="12.57" x="235.81" y="239.8" fill="#fff" stroke="#8f8f8f" stroke-linecap="round" stroke-linejoin="round" stroke-width="5.21" class="cls-2" rx="4.34" ry="4.34"/></g></g><path id="polygon75" fill="#fff" stroke-width="0" d="m250.6 162.85-3.79-4.57-20.36 12.21 13.9 22.6z" class="cls-5"/><path id="path77" fill="#fff" stroke-width="0" d="M407.48 235.82s15.02-10.16 17.37-23.11l-7.9-2.56-9.93 9.76v11.03" class="cls-5"/><path id="path79" d="M300 542.59a241.55 241.55 0 0 1-171.35-70.98 241.55 241.55 0 0 1-70.98-171.35 241.55 241.55 0 0 1 70.98-171.35A241.55 241.55 0 0 1 300 57.93a241.55 241.55 0 0 1 171.35 70.98 241.55 241.55 0 0 1 70.98 171.35 241.55 241.55 0 0 1-70.98 171.35A241.55 241.55 0 0 1 300 542.59" style="stroke-linecap:round;stroke-linejoin:round;stroke:#8f8f8f;fill:none;stroke-width:9.22px"/><g id="g115"><g id="g93"><path id="path81" fill="#8f8f8f" stroke-width="0" d="m128.04 249.52.47 7.58-9.22 1.12-2.74 14.4 8.23 4.66-3.39 6.84-41.76-25.51.31-1.63 48.09-7.45zm-15.89 9.53-16.29 1.91 14.39 8.09z" class="cls-10"/><path id="path83" fill="#8f8f8f" stroke-width="0" d="m112.07 190.87-4.88 9.86 35.09 17.37-3.19 6.44L104 207.16l-4.88 9.86-6.15-3.04 12.96-26.17 6.15 3.04z" class="cls-10"/><path id="path85" fill="#8f8f8f" stroke-width="0" d="m182.16 166.26-4.97 5.19-14.57-13.97-11.44 11.94 14.57 13.97-4.97 5.19-33.22-31.84 4.97-5.19 13.65 13.09 11.44-11.94-13.65-13.09 4.97-5.19z" class="cls-10"/><path id="path87" fill="#8f8f8f" stroke-width="0" d="m208.49 100.23-8.44 21.61 13.93-7.6 3.18 5.83-13.98 7.63 22.74 4.86-1.19 7.64-34.5-9.09 10.8-33.23 7.46 2.36z" class="cls-10"/><path id="path89" fill="#8f8f8f" stroke-width="0" d="m279.94 123.64-1.9.37-24.47-23.17 5.14 26.33-7.06 1.38-8.93-45.76 1.9-.37 24.44 23.01-5.12-26.22 7.06-1.38z" class="cls-10"/><path id="path91" fill="#8f8f8f" stroke-width="0" d="m335.94 111.41-23.2 12.7-3.61-6.18 15.83-8.39-17.17-19.96 22.81-12.24 3.84 6.09-15.68 8.02z" class="cls-10"/></g><g id="g113"><path id="path95" fill="#8f8f8f" stroke-width="0" d="m225.79 486.48-29.96 11.54-1.22-.65-7.32-31.29 29.93-11.37 1.22.65 7.36 31.12zm-8.28-4.33-4.11-18.7-17.83 7.08 4.13 18.78 17.81-7.15z" class="cls-10"/><path id="path97" fill="#8f8f8f" stroke-width="0" d="m273.78 521.52-25.08-4.6 8.3-45.26 7.07 1.3-7.06 38.51 18 3.3-1.24 6.75z" class="cls-10"/><path id="path99" fill="#8f8f8f" stroke-width="0" d="m329.32 477.01-11.17 27.17 1.24 17.65-7.17.5-1.25-17.76-14.91-25.23 6.73-3.69 11.22 21.17 8.15-22.53 7.17 2.71z" class="cls-10"/><path id="path101" fill="#8f8f8f" stroke-width="0" d="m401.61 498.9-6.5 4.19L380 480.72l1.67 27.01-1.86.72-17.03-21.03 3.93 26.72-7.62 1.3-5.65-47.3 1.8-.7 18.35 22.29-1.55-28.83 1.75-.68 27.81 38.67z" class="cls-10"/><path id="path103" fill="#8f8f8f" stroke-width="0" d="m438.69 440.11-8.2 27.13 6.76 8.12-5.52 4.6-30.12-36.24 1.27-1.06zm-8.99 7.27-14.86 1.08 10.58 12.7 4.28-13.79z" class="cls-10"/><path id="path105" fill="#8f8f8f" stroke-width="0" d="m481.84 428.4-4.3 5.9-37.17-27.12 4.3-5.9z" class="cls-10"/><path id="path107" fill="#8f8f8f" stroke-width="0" d="m512.35 366.39-.98 7.53-9.26-.67-5.44 13.61 7.19 6.15-4.63 6.07-36.11-33.02.61-1.54 48.63 1.87zm-17.41 6.32-16.36-1.24 12.58 10.69z" class="cls-10"/><path id="path109" fill="#8f8f8f" stroke-width="0" d="m523.41 303.98-.16 1.93-28.93 17.28 26.73 2.18-.58 7.17-46.46-3.79.16-1.93 28.77-17.29-26.62-2.17.58-7.17 46.52 3.8z" class="cls-10"/><path id="path111" fill="#8f8f8f" stroke-width="0" d="m500.89 242.19 19.29 18.09-4.75 5.35-12.9-12.43-13.62 22.54-18.74-17.87 4.6-5.55 12.5 12.4 13.62-22.54z" class="cls-10"/></g></g></g></svg>