<svg xmlns="http://www.w3.org/2000/svg" id="Layer_1" data-name="Layer 1" version="1.1" width="292.197" height="300.284"><defs id="defs4"><style id="style2">.cls-1{fill:#f15d24}.cls-12{fill:#f6dd93;stroke:#f6dd93}.cls-14,.cls-20,.cls-21{stroke-miterlimit:10;fill:none}.cls-20{stroke:#f2ea1e}.cls-21{stroke:#5e4c9b}.cls-12{stroke-width:6.41px}.cls-14{stroke-width:6.18px}.cls-12{stroke-linecap:round;stroke-linejoin:round}.cls-14{stroke:#d08f2a}.cls-16{fill:#fff}.cls-21{stroke-width:6.59px}.cls-20{stroke-width:5.28px}</style></defs><g id="SlHar6" transform="translate(-104.388 -346.278)"><path class="cls-1" d="M150.51 429.93a31.64 31.64 0 0 1-3.84-2.66c-1.6-1.15-1.59-1.18-3.19 0-1.29.91-2.57 1.85-3.89 2.81-.17-.33 0-.57.08-.8.53-1.65 1.06-3.3 1.63-4.94a.88.88 0 0 0-.37-1.17c-1.48-1-2.92-2.13-4.38-3.2-.13-.1-.25-.22-.53-.47h2.33c1.32 0 2.65 0 4-.07a.7.7 0 0 0 .75-.59c.61-2 1.26-3.89 2-6 .55 1.66 1.07 3.13 1.52 4.62.61 2 .59 2.05 2.75 2.05h4.84l-2.44 1.79c-.89.66-1.76 1.33-2.66 2a.72.72 0 0 0-.3 1c.57 1.67 1.1 3.34 1.63 5 .07.23.11.47.16.71z" id="path6" style="fill:#f15d24"/><path class="cls-1" d="m150.53 429.91.06.08-.08-.06z" id="path8" style="fill:#f15d24"/></g><circle cx="-117.002" cy="177.301" r="142.45" transform="rotate(-76.72)" id="circle161" style="fill:#231f20;stroke:#f6dd93;stroke-width:6.40999985px;stroke-miterlimit:10"/><path d="M145.692 241.492a86.87 86.87 0 1 1 86.92-86.87 87 87 0 0 1-86.92 86.87z" id="path163" style="fill:#5e4c9b;stroke:#5e4c9b;stroke-width:6.17999983px;stroke-miterlimit:10"/><path class="cls-12" d="m102.452 105.642-13.17.82s-7 1.65-7 10.3v12.76" id="path165" style="fill:#f6dd93;stroke:#f6dd93;stroke-width:6.40999985px;stroke-linecap:round;stroke-linejoin:round"/><path class="cls-12" d="m83.182 132.972-10.57 7.88s-5 5.2-.25 12.45l7 10.69" id="path167" style="fill:#f6dd93;stroke:#f6dd93;stroke-width:6.40999985px;stroke-linecap:round;stroke-linejoin:round"/><path class="cls-12" d="m81.022 164.262-6.93 11.23s-2.69 6.67 4.37 11.66l10.42 7.36" id="path169" style="fill:#f6dd93;stroke:#f6dd93;stroke-width:6.40999985px;stroke-linecap:round;stroke-linejoin:round"/><path class="cls-12" d="m89.422 195.192 2.06 13s2.3 6.81 10.91 6l12.7-1.2" id="path171" style="fill:#f6dd93;stroke:#f6dd93;stroke-width:6.40999985px;stroke-linecap:round;stroke-linejoin:round"/><path class="cls-12" d="m116.782 215.082 6.49 11.5s4.54 5.57 12.32 1.8l11.48-5.58" id="path173" style="fill:#f6dd93;stroke:#f6dd93;stroke-width:6.40999985px;stroke-linecap:round;stroke-linejoin:round"/><path class="cls-12" d="m152.962 221.462 11.7 6.12s6.84 2.21 11.31-5.18l6.64-10.92" id="path175" style="fill:#f6dd93;stroke:#f6dd93;stroke-width:6.40999985px;stroke-linecap:round;stroke-linejoin:round"/><path class="cls-12" d="m185.772 209.562 13.19-.43s7-1.44 7.3-10.08l.38-12.76" id="path177" style="fill:#f6dd93;stroke:#f6dd93;stroke-width:6.40999985px;stroke-linecap:round;stroke-linejoin:round"/><circle cx="145.692" cy="154.622" r="68.35" id="circle179" style="fill:#f6dd93;stroke:#f6dd93;stroke-width:6.40999985px;stroke-miterlimit:10"/><path class="cls-14" d="M87.462 122.722c-13.94 60 55.23 94.66 102.79 84" id="path181" style="fill:none;stroke:#d08f2a;stroke-width:6.17999983px;stroke-miterlimit:10"/><path class="cls-14" id="line183" style="fill:none;stroke:#d08f2a;stroke-width:6.17999983px;stroke-miterlimit:10" d="m109.042 211.652 27.17-48.17"/><path class="cls-14" d="M88.662 191.272s17.29 1.86 23.47-16c0 0-9.27-19.77 2.47-30.26" id="path185" style="fill:none;stroke:#d08f2a;stroke-width:6.17999983px;stroke-miterlimit:10"/><path class="cls-14" d="M141.792 223.192s-14.44-16.19-3.81-31.87c0 0 21.38-4.43 22.75-20.12" id="path187" style="fill:none;stroke:#d08f2a;stroke-width:6.17999983px;stroke-miterlimit:10"/><circle cx="145.692" cy="154.622" r="68.35" id="circle189" style="fill:none;stroke:#f6dd93;stroke-width:6.40999985px;stroke-miterlimit:10"/><path class="cls-14" d="M103.692 101.522c-7 .81-17.37.08-22.12 6.4-3.31 4.4-2.35 10.11-2.5 15.24-.18 5.7-1.14 9.46-5.47 13.52-3 2.86-6.54 6-6.74 10.15-.29 6.26 6.94 10.56 7.75 16.76.85 6.44-5.51 12.69-3.39 18.83 1.71 4.95 7.86 6.62 11.38 10.51 3.15 3.48 3.93 8.42 5.1 13 1.17 4.58 3.35 9.44 7.74 11.13 6.22 2.39 14.39-2.66 19.41 1.73 2.69 2.36 3 6.42 5 9.41 2.53 3.85 7.58 5.44 12.16 4.95 4.58-.49 8.77-2.72 12.68-5.15a16.47 16.47 0 0 1 5.36-2.53c7-1.32 13 7.18 20 5.81 6.33-1.25 8.35-9.4 13.46-13.34 3-2.29 6.83-3 10.55-3.51 3.72-.51 7.56-.89 10.86-2.67 4.27-2.3 4.63-5.58 5.83-9.75" id="path191" style="fill:none;stroke:#d08f2a;stroke-width:6.17999983px;stroke-miterlimit:10"/><path class="cls-16" d="M91.272 244.722c.08-.23.23-.28.44-.16l2.06 1.17a.35.35 0 0 1 .16.5l-1.2 2.55 1.4.79 1.57-2.34a.37.37 0 0 1 .52-.12l2.06 1.17c.21.12.24.27.09.47l-10.32 14.23a.37.37 0 0 1-.54.12l-3-1.7a.39.39 0 0 1-.19-.52zm.21 6.7-3.05 6.37.18.1 3.9-5.89z" id="path193" style="fill:#fff"/><path class="cls-16" d="m53.912 235.722 1.7-1.58a.32.32 0 0 1 .51 0l1.26 1.35 10.84-10.06a.31.31 0 0 1 .51 0l1.58 1.69a.37.37 0 0 1 .09.25.33.33 0 0 1-.11.27l-10.84 10.08 1.24 1.34a.32.32 0 0 1 0 .51l-1.7 1.57a.32.32 0 0 1-.51 0l-4.57-4.92a.32.32 0 0 1 0-.5z" id="path195" style="fill:#fff"/><path class="cls-16" d="m47.222 196.832 2.09-1a.33.33 0 0 1 .49.18l1.48 3.19 1 2.1a.32.32 0 0 1-.18.48l-15.85 7.36a.32.32 0 0 1-.48-.18l-1-2.1a.32.32 0 0 1 .18-.48l13.42-6.23-1.36-2.93a.32.32 0 0 1 .21-.39z" id="path197" style="fill:#fff"/><path class="cls-16" d="M41.202 163.122c.23-.07.37 0 .39.26l.3 2.35a.37.37 0 0 1-.32.43l-2.76.55.2 1.6 2.81-.14a.37.37 0 0 1 .41.35l.29 2.34c0 .24-.08.36-.32.36l-17.58.21a.38.38 0 0 1-.41-.37l-.42-3.41a.37.37 0 0 1 .3-.45zm-5.25 4.16-6.94 1.35v.21l7-.38z" id="path199" style="fill:#fff"/><path class="cls-16" d="m26.772 125.372 17.12 3.51a.32.32 0 0 1 .28.43l-.33 1.63a.46.46 0 0 1-.17.27.54.54 0 0 1-.26.15l-9 1 8.41 1.72a.33.33 0 0 1 .28.43l-.49 2.21a.33.33 0 0 1-.44.28l-17.11-3.51a.32.32 0 0 1-.28-.43l.34-1.68a.54.54 0 0 1 .16-.27.61.61 0 0 1 .27-.15l8.72-1-8.15-1.67a.32.32 0 0 1-.28-.43l.46-2.27a.33.33 0 0 1 .47-.22z" id="path201" style="fill:#fff"/><path class="cls-16" d="m41.842 89.232 2 1.16a.32.32 0 0 1 .14.49l-.93 1.6 12.82 7.39a.33.33 0 0 1 .14.5l-1.16 2a.32.32 0 0 1-.21.16.33.33 0 0 1-.29 0l-12.81-7.39-.93 1.58a.32.32 0 0 1-.5.13l-2-1.16a.31.31 0 0 1-.14-.49l3.35-5.81a.32.32 0 0 1 .52-.16z" id="path203" style="fill:#fff"/><path class="cls-16" d="M78.532 72.992a.28.28 0 0 1 0 .48l-1.74 1.6a.36.36 0 0 1-.53 0l-2-1.93-1.19 1.09 1.74 2.21a.37.37 0 0 1 0 .53l-1.75 1.6a.27.27 0 0 1-.47-.06l-10.36-14.2a.38.38 0 0 1 .06-.55l2.53-2.32a.39.39 0 0 1 .56 0zm-6.43-1.87-5.13-4.86-.15.14 4.39 5.53z" id="path205" style="fill:#fff"/><path d="M251.022 197.642a114.07 114.07 0 0 1-105.74 71.25 116.42 116.42 0 0 1-12.74-.7" id="path207" style="fill:none;stroke:#fff;stroke-width:6.17999983px;stroke-miterlimit:10"/><path d="M288.902 152.802v45.28h-68.58c-34.95-2.64-40.88-33-40.88-33-78.47 0-77.81-58-77.81-58v-39.59c3.3-54.07 39.56-56 39.56-56h27.67s46.84-5.28 50.79 35.61h20.45c45.5-.66 48.8 34.28 48.8 34.28v71.47z" id="path209" style="fill:#d08f2a;stroke:#d08f2a;stroke-width:6.59000015px;stroke-miterlimit:10"/><path d="M288.902 144.882v45.28h-68.58c-34.95-2.64-40.88-33-40.88-33-78.47 0-77.81-58-77.81-58v-39.59c3.3-54.07 39.56-56.05 39.56-56.05h27.67s46.84-5.28 50.79 35.61h20.45c45.5-.66 48.8 34.28 48.8 34.28z" id="path211" style="fill:#231f20;stroke:#f6dd93;stroke-width:6.59000015px;stroke-miterlimit:10"/><path class="cls-20" d="M171.102 27.262c-17.51.17-25.3 15.22-25.46 31-.15 15.63 10 25.05 25.46 26.34" id="path213" style="fill:none;stroke:#f2ea1e;stroke-width:5.28000021px;stroke-miterlimit:10"/><path class="cls-20" d="M176.692 69.792v14.84h-18.79c-15.47-1.29-25.61-10.71-25.45-26.34.15-15.81 7.94-30.86 25.45-31h7.92s5.59.62 9.1 3.57a7.2 7.2 0 0 1 2.77 5.66v9.2h12.53v-8.57s1.32-9.89-9.89-9.89h-23.07" id="path215" style="fill:none;stroke:#f2ea1e;stroke-width:5.28000021px;stroke-miterlimit:10"/><path class="cls-20" d="M241.052 65.532c-17.51.17-22.66 12.58-22.81 28.4-.16 15.62 10 25 25.45 26.33" id="path217" style="fill:none;stroke:#f2ea1e;stroke-width:5.28000021px;stroke-miterlimit:10"/><path class="cls-20" d="M229.852 65.532h20.43c11.21 0 9.89 9.9 9.89 9.9v8.57h-12.56v-9.23a7.18 7.18 0 0 0-2.77-5.66 16.55 16.55 0 0 0-6.46-3.58h-7.92c-17.51.17-25.3 12.58-25.45 28.4-.16 15.62 10 25 25.45 26.33h17.47v-9.54h12.49v11.21" id="path219" style="fill:none;stroke:#f2ea1e;stroke-width:5.28000021px;stroke-miterlimit:10"/><path class="cls-20" id="rect221" style="fill:none;stroke:#f2ea1e;stroke-width:5.28000021px;stroke-miterlimit:10" d="M157.902 56.272h34.94v11.21h-34.94z"/><path class="cls-20" id="line223" style="fill:none;stroke:#f2ea1e;stroke-width:5.28000021px;stroke-miterlimit:10" d="M189.222 69.132v32.65"/><path class="cls-21" d="M194.612 122.202s4 22.42 28.35 22.42h44.84" id="path225" style="fill:none;stroke:#5e4c9b;stroke-width:6.59000015px;stroke-miterlimit:10"/><path class="cls-21" d="M267.802 165.722h-44.84c-24.35 0-28.35-22.4-28.35-22.4v-27.92" id="path227" style="fill:none;stroke:#5e4c9b;stroke-width:6.59000015px;stroke-miterlimit:10"/><path class="cls-21" d="M125.982 87.892s3.95 22.42 28.35 22.42h22.4" id="path229" style="fill:none;stroke:#5e4c9b;stroke-width:6.59000015px;stroke-miterlimit:10"/><path class="cls-21" d="M176.732 131.422h-22.4c-24.4 0-28.35-22.42-28.35-22.42v-27.92" id="path231" style="fill:none;stroke:#5e4c9b;stroke-width:6.59000015px;stroke-miterlimit:10"/><path class="cls-21" id="line233" style="fill:none;stroke:#5e4c9b;stroke-width:6.59000015px;stroke-miterlimit:10" d="M264.582 146.392v9.47"/><path class="cls-21" id="line235" style="fill:none;stroke:#5e4c9b;stroke-width:6.59000015px;stroke-miterlimit:10" d="M244.672 146.392v9.47"/><path class="cls-21" id="line237" style="fill:none;stroke:#5e4c9b;stroke-width:6.59000015px;stroke-miterlimit:10" d="M223.822 146.392v9.47"/><path class="cls-21" id="line239" style="fill:none;stroke:#5e4c9b;stroke-width:6.59000015px;stroke-miterlimit:10" d="M173.042 111.982v8.52"/><path class="cls-21" id="line241" style="fill:none;stroke:#5e4c9b;stroke-width:6.59000015px;stroke-miterlimit:10" d="M153.132 111.982v8.52"/></svg>