<svg xmlns="http://www.w3.org/2000/svg" id="Layer_1" width="561.24" height="507.02" data-name="Layer 1" version="1.1"><defs id="defs129"><clipPath id="clippath"><path id="path126" fill="none" stroke-width="0" d="M370.69 191.97h36.85l-90.6-90.6a27.83 27.83 0 0 0-19.81-8.21 27.82 27.82 0 0 0-19.81 8.2l-90.6 90.6h86.73l23.23-23.23a.62.62 0 0 1 .44-.18c.16 0 .32.06.44.18l23.23 23.23h49.88z"/></clipPath><style id="style124">.cls-3{fill:none}.cls-5,.cls-6,.cls-8,.cls-9{stroke-width:0}.cls-3{stroke:#ae7c00;stroke-width:6.52px;stroke-miterlimit:10}.cls-6{fill:#ae7c00}.cls-5{fill:#291091}.cls-8{fill:#ffc0f9}.cls-9{fill:#00d1df}</style></defs><g id="g389" transform="translate(-19.91 -46.48)"><g id="g232"><g id="g137"><path id="path133" fill="#00d1df" stroke-width="0" d="m90.93 324.95-9.53-9.53a46.2 46.2 0 0 1 0-65.26l183.1-183.1a45.83 45.83 0 0 1 32.63-13.52c12.33 0 23.91 4.8 32.63 13.52l183.1 183.1a46.2 46.2 0 0 1 0 65.26l-9.53 9.53z" class="cls-9"/><path id="path135" fill="#ffc0f9" stroke-width="0" d="M297.13 60.6c10 0 20.01 3.82 27.64 11.45l183.1 183.1a39.08 39.08 0 0 1 0 55.28l-7.46 7.46H93.85l-7.46-7.46a39.08 39.08 0 0 1 0-55.28l183.1-183.1a38.98 38.98 0 0 1 27.64-11.45m0-14.12a52.85 52.85 0 0 0-37.62 15.58L76.41 245.17a53.27 53.27 0 0 0 0 75.24l7.46 7.46L88 332h418.25l4.13-4.13 7.46-7.46a52.85 52.85 0 0 0 15.58-37.62 52.85 52.85 0 0 0-15.58-37.62L334.75 62.07a52.85 52.85 0 0 0-37.62-15.58z" class="cls-8"/></g><g id="g143"><path id="path139" fill="#00d1df" stroke-width="0" d="M297.13 546.46a45.81 45.81 0 0 1-32.63-13.52l-80.29-80.29H131.9a33.16 33.16 0 0 1-33.12-33.12v-51.06c0-.41 0-.82.02-1.23l-17.41-17.41a45.83 45.83 0 0 1-13.52-32.63c0-12.33 4.8-23.91 13.52-32.63l9.53-9.53h412.41l9.53 9.53a46.2 46.2 0 0 1 0 65.26l-21.8 21.8v47.9a33.16 33.16 0 0 1-33.12 33.12h-47.9l-80.29 80.29a45.83 45.83 0 0 1-32.63 13.52z" class="cls-9"/><path id="path141" fill="#ffc0f9" stroke-width="0" d="m500.41 282.11 7.46 7.46a39.08 39.08 0 0 1 0 55.28l-23.86 23.86v50.82a26.14 26.14 0 0 1-26.06 26.06h-50.82l-82.35 82.35c-7.63 7.63-17.64 11.45-27.64 11.45s-20.01-3.82-27.64-11.45l-82.35-82.35h-55.23a26.14 26.14 0 0 1-26.06-26.06v-51.06c0-1.32.1-2.61.29-3.88L86.4 344.84a39.08 39.08 0 0 1 0-55.28l7.46-7.46h406.56m5.84-14.1H88.01l-4.13 4.13-7.46 7.46a52.85 52.85 0 0 0-15.58 37.62 52.85 52.85 0 0 0 15.58 37.62l15.32 15.32v49.38a40.22 40.22 0 0 0 40.17 40.17h49.38l78.22 78.22a52.85 52.85 0 0 0 37.62 15.58 52.85 52.85 0 0 0 37.62-15.58l78.22-78.22h44.98a40.22 40.22 0 0 0 40.17-40.17v-44.98l19.73-19.73a53.27 53.27 0 0 0 0-75.24l-7.46-7.46-4.13-4.13z" class="cls-8"/></g><g id="g149"><path id="path145" fill="#fff" stroke-width="0" d="m322.84 187.08-21.8-21.8a5.51 5.51 0 0 0-3.9-1.62c-1.47 0-2.85.57-3.89 1.61l-21.81 21.81h-72.91l82.26-82.26a22.96 22.96 0 0 1 16.35-6.77c6.18 0 11.99 2.41 16.35 6.77l82.26 82.26z"/><path id="path147" fill="#291091" stroke-width="0" d="M297.13 102.94c4.87 0 9.45 1.9 12.9 5.34l73.92 73.92h-59.09l-20.37-20.37a10.31 10.31 0 0 0-7.36-3.05c-2.78 0-5.39 1.08-7.36 3.05L269.4 182.2h-59.09l73.92-73.92a18.16 18.16 0 0 1 12.9-5.34m0-9.78a27.84 27.84 0 0 0-19.81 8.2l-90.6 90.6h86.73l23.23-23.23a.63.63 0 0 1 .45-.18.6.6 0 0 1 .44.18l23.23 23.23h86.73l-90.6-90.6a27.83 27.83 0 0 0-19.81-8.21z" class="cls-5"/></g><g id="g176" clip-path="url(#clippath)"><g id="_4fl8t3" data-name="4fl8t3"><g id="g173"><path id="path151" fill="#291091" stroke-width="0" d="M242.61 211.89c-3.4-4.8-8.17-8.42-12.66-12.26-3.89-3.33-7.98-6.45-12.01-9.63-1.01-.79-1.5-1.69-1.41-2.92.09-1.22.02-2.44.03-3.66 0-1.02.45-1.13 1.32-.57 2.5 1.61 5 3.2 7.53 4.75.78.48 1.65.82 2.51 1.17.46.19 1 .26 1.39-.15.35-.37.07-.76-.07-1.14-1.99-5.57-5.78-9.92-10.9-13.3-1.33-.88-1.9-1.81-1.81-3.29.11-1.83.01-3.66.04-5.49 0-.48-.25-1.1.37-1.38.52-.23.91.26 1.32.5a121.4 121.4 0 0 1 11.56 7.96c11.22 8.46 22.54 16.83 34.86 23.92 5.37 3.09 11.45 5 17.87 5.28 4.34.18 8.55-.98 12.72-1.99a49.46 49.46 0 0 1 13.46-1.59c4.09.14 8.2.29 12.29-.27a17.3 17.3 0 0 0 3.66-.97c.88-.32.94-.95.02-1.27-3.93-1.37-7.81-2.92-11.92-3.8-4.17-.89-8.12.4-12.09 1.26-6.52 1.42-13.03 2.91-19.79 3.01a28.42 28.42 0 0 1-13.49-3.26c-8.82-4.44-16.43-10.33-23.79-16.53-.53-.44-.95-.99-1.4-1.51-.38-.44-.83-.95-.35-1.5.49-.56 1.15-.22 1.68 0 2.06.87 4.16 1.68 6.15 2.69 4.95 2.5 9.98 4.87 15.12 7.02 6.23 2.6 12.82 3.02 19.54 2.54 5.11-.37 9.99-1.69 14.95-2.81 5.64-1.26 11.24-1.09 16.54 1.78a34.8 34.8 0 0 0 17.38 4.47c4.48-.07 8.96.31 13.39 1.1.78.14 1.91.56 2.32-.13.47-.8-.59-1.41-1.16-1.99-3.18-3.23-7.47-4.63-11.79-5.97-4.35-1.35-8.8-2-13.4-1.76-3.29.17-6.12-.84-8.8-2.65-2.9-1.96-6.44-2.26-9.94-2.61-6.43-.65-12.84.19-19.27.02-6.41-.17-12.52-1.17-18.08-4.39-2.99-1.73-6.55-1.74-9.97-2.03-6.42-.54-12.86-.02-19.28-.32-7.3-.34-13.7-3.07-19.82-6.48-.63-.35-.86-.89-.86-1.55v-3.82c-.01-1.03.39-1.28 1.4-.74a71.31 71.31 0 0 0 7.39 3.49c6.39 2.49 12.99 3.1 19.86 2.27 5.77-.7 11.6-.94 17.4-.19 2.64.34 5.13 1.25 7.69 1.9a61.35 61.35 0 0 0 19.44 1.53c5.08-.35 10.18-.61 15.25.23 3.71.62 6.88 2.2 9.61 4.55a27.18 27.18 0 0 0 11.35 5.82c1.15.28 2.31.4 3.46.31 6.39-.48 11.91 1.55 17.24 4.55 7.25 4.08 14.37 8.27 20.06 14.2 2.01 2.1 3.92 4.28 6.08 6.26 1.23 1.13.91 2.11-.85 2.52-2.45.57-4.95.33-7.44.13-2.64-.21-4.97-1.37-7.46-2.05-5.57-1.52-11.3-2.03-17.05-2.35-5.7-.31-11.04 1.31-16.31 2.98-3.88 1.23-7.79 1.99-11.88 1.63-5.05-.44-9.93.3-14.82 1.34-2.74.59-5.53.98-8.35 1.71 1.22.34 2.42.77 3.66 1.02a109.8 109.8 0 0 0 27.74 2.19c3.12-.17 6.07-1.16 8.97-2.18a24.19 24.19 0 0 1 6.48-1.28 118 118 0 0 1 15.62.02c8.47.56 16.74 2.35 25.1 3.59 2.99.44 6 .97 8.83 2.05H278.57l-7.96-3.33c-.36-.15-.74-.3-1.06.05-.3.32-.16.66 0 1 .47 1.04 1.53 1.57 2.37 2.28h-9.65c-3.82-3.91-6.49-8.59-10.1-12.64-2.28-2.55-4.62-5.06-7.55-7.04-.34-.23-.75-.61-1.16-.24-.33.3.07.65.24.95l5.35 9.81c1.77 3.23 4.2 6.08 6.24 9.16h-12.64z" class="cls-5"/><path id="path153" fill="#291091" stroke-width="0" d="M386.35 156.56c-1.73-.74-3.07-2-4.66-2.92-3.94-2.28-8.35-3.51-12.77-4.67-4.75-1.24-9.59-2.1-14.45-2.89-2.28-.37-4.6-.37-6.89-.92-3.06-.73-5.53-2.28-7.89-4.07-5.08-3.86-9.07-8.6-13.06-13.37-6.89-8.26-14.36-16.03-23.64-22.15-4.28-2.82-9.02-4.98-13.61-7.33a152.93 152.93 0 0 0-16.35-7.48c-2.45-.91-5-1.17-7.59-1.52-8.99-1.19-16.62-5.11-23.65-10.17-5.63-4.05-10.68-8.72-16.25-12.83a34.35 34.35 0 0 0-7.51-4.47c-1.11-.45-1.65-1.15-1.51-2.26.03-.25-.03-.51 0-.76.2-1.27-.73-3.28.49-3.68 1.97-.64 4.4-.79 6.43.33 3.77 2.08 7.02 4.79 10.32 7.43 5.14 4.11 10.33 8.15 15.39 12.34 4.51 3.74 9.92 5.52 15.68 6.9a85.58 85.58 0 0 1 21.21 8.23c7.76 4.23 15.31 8.8 23.47 12.39 1.05.46 2.14.84 3.21 1.25.33.13.71.49 1.05.13.3-.33-.05-.67-.23-.96-1.61-2.62-3.69-4.96-5.4-7.51-3.17-4.72-8.39-6.77-13.36-9.16-8.36-4.02-17.28-6.42-26.53-8.1a62.6 62.6 0 0 1-29.95-14.08c-2.96-2.53-5.82-5.15-8.72-7.74-.43-.38-1.1-.81-.89-1.36.24-.64 1.07-.34 1.63-.34 3.22-.03 6.44.1 9.65-.06 1.94-.09 3.06.59 4 2.07a40.33 40.33 0 0 0 7.37 8.8c3.25 2.87 7.06 4.56 11.62 4.53 10.09-.05 19.42 2.71 28.5 6.41 7.61 3.1 14.99 6.59 21.72 11.14 2.69 1.81 5.06 3.96 7.46 6.07 4.24 3.74 8.58 7.38 13.22 10.67 5.33 3.77 11.38 6.45 17.57 8.88a44.79 44.79 0 0 0 16.28 3.25c4.9.02 9.53-1.18 14.07-2.71 1.48-.49 2.98-.77 4.52-.96v6.41c-.85-.05-1.67.1-2.45.36a52.71 52.71 0 0 1-10.51 2.15c-.48.05-1 .04-1.54.5 4.89.91 9.68 1.59 14.49 2.18v7.94c-.74-.28-1.52-.22-2.29-.29a74.11 74.11 0 0 1-13.35-2.39c-5.49-1.49-10.67-3.68-15.77-6.04-.39-.18-.81-.45-1.23-.13-.38.3-.33.75-.25 1.14.34 1.83 1.52 3.12 3.16 4.11 5.7 3.43 12.02 5.62 18.35 7.81 3.7 1.28 7.63 1.74 11.38 2.81v6.11c-2.45-.93-4.88-1.92-7.36-2.78-5.7-1.96-11.44-3.82-17.14-5.78-9.04-3.12-16.2-8.45-20.82-16.22-2.86-4.82-6.41-8.82-11.38-11.82-1.08-.65-2.04-1.48-3.35-2.44 2.48 5.94 10.21 17.98 14.28 22.51 5.64 6.26 12.29 11.06 21.18 12.86a82.34 82.34 0 0 1 19.66 6.43c1.61.78 3.14 1.73 4.94 2.14v6.11z" class="cls-5"/><path id="path155" fill="#291091" stroke-width="0" d="M386.35 185.63c-7-4.84-14.2-9.39-22.1-12.95-4.14-1.86-8.51-2.76-13-3.53-10.26-1.76-19.65-5.29-27.07-12.35-6.84-6.5-14.75-11.59-24.1-14.5-8.35-2.6-16.9-4.03-25.81-2.61-5.17.83-10.36 1.56-15.67 1.45-7.03-.15-13.86-1.34-20.67-2.77-6.41-1.35-12.74-3.11-19.31-3.75-1.59-.15-2.25-.73-2.09-2.23.13-1.21.01-2.44.03-3.66.02-1.59.38-1.91 2.11-1.6 3.12.57 6.29.5 9.43.76 3.27.27 6.45-.29 9.45-1.37 7.63-2.77 15.37-2.53 23.22-1.09 6.3 1.16 12.61 2.25 18.91 3.38 1.52.27 3.05.54 4.53.95 3.12.85 6.34.82 9.53 1.1 6.42.57 12 3.07 17.21 6.38 6.88 4.37 12.53 10 18.53 15.27 2.4 2.11 4.93 4.09 7.54 5.98a21.89 21.89 0 0 0 10.6 4.07c6.59.73 12.69 2.84 18.61 5.41 7.02 3.05 13.8 6.49 20.13 10.64v7.02z" class="cls-5"/><path id="path157" fill="#291091" stroke-width="0" d="M386.35 202.12c-6.71-4.58-13.38-9.22-20.15-13.72-6.01-4-12.05-7.95-18.61-11.19a22.89 22.89 0 0 0-8.18-2.31c-7.32-.68-13.93-2.83-18.61-8.52-1.61-1.96-4.08-2.97-6.5-3.84-7.99-2.86-16.31-4.43-24.82-5.39a56.78 56.78 0 0 0-10.75 0c-4.21.3-8.36-.3-12.49-1.24-5.38-1.22-10.86-1.93-16.35-2.67-5.42-.73-10.84-.49-16.26-.53a74.64 74.64 0 0 1-13.53-1.2c-.65-.12-1.26-.37-1.91-.51-1.32-.28-1.75-1.04-1.67-2.24.08-1.37.05-2.75.01-4.12-.03-1.11.38-1.38 1.48-.83 1.99.99 3.98 2 6.23 2.46 3.32.68 6.64.27 9.92-.14 7.16-.91 14.33-1.1 21.54-.81 2.26.09 4.32.87 6.46 1.36 4.02.91 7.99.7 11.77-.59 4.78-1.63 9.62-1.88 14.56-1.28 6.66.81 13.25 1.92 19.15 5.16a77.19 77.19 0 0 1 16.19 12.1 7.47 7.47 0 0 1 2.35 3.96c.29 1.48 1.5 2.17 2.91 2.66a40.03 40.03 0 0 0 9.74 1.86c7.39.67 14.28 2.74 20.97 5.55 8.79 3.7 17.02 8.28 24.95 13.34.49.31 1.06.53 1.6.79v11.91z" class="cls-5"/><path id="path159" fill="#291091" stroke-width="0" d="M386.35 170.06c-3.52-1.91-6.81-4.16-10.44-5.95-5.72-2.82-11.84-4.14-18.25-4.75-7.62-.73-15.05-2.24-21.13-6.92-5.05-3.89-9.89-7.99-14.86-11.97a722.44 722.44 0 0 0-19.57-15.13c-4.78-3.56-9.29-7.39-13.83-11.2-5.48-4.6-10.98-9.27-17.58-12.47-6.41-3.11-13.11-5.83-20.35-6.84-3.61-.5-7.15-.93-10.19-2.87-1.86-1.19-3.55-2.6-5.37-3.83a80.63 80.63 0 0 0-16.61-8.59c-1.24-.47-1.68-1.1-1.65-2.29.07-2.34.01-4.68.03-7.02 0-.49-.23-1.15.3-1.42.63-.33 1.12.28 1.59.58 5.08 3.27 9.86 6.9 14.65 10.53a53.84 53.84 0 0 1 8.18 7.77c1.65 1.92 3.88 2.81 6.5 2.94a62.47 62.47 0 0 1 24.51 6.05c1.68.81 3.18 1.88 4.56 3.05 5.3 4.46 11.43 7.71 18.05 10.13 4.46 1.63 8.28 4.05 11.97 6.77 7.11 5.25 13.24 11.41 19.42 17.52 4.78 4.73 9.5 9.56 15.31 13.29a22.72 22.72 0 0 0 12.04 3.75c11.88.32 22.89 3.42 32.73 9.7v9.16z" class="cls-5"/><path id="path161" fill="#291091" stroke-width="0" d="M386.35 94.04a49.88 49.88 0 0 0-12.73-.91c-7.62.42-14.85-1.04-21.93-3.48-4.61-1.59-9.48-2.03-14.36-2.27-4.54-.22-9.1.25-13.62-.28-6.54-.77-12.68-2.82-18.7-5.2-4.29-1.69-8.17-4.03-12.16-6.24-7.6-4.22-16.05-6.27-24.82-7.29-2.63-.31-5.32-.3-7.86-1.1-2.96-.93-5.27-2.78-7.55-4.64-1.78-1.45-3.39-3.07-5.07-4.62-.3-.28-.77-.56-.54-1.02.22-.45.78-.3 1.19-.3l10.31-.01c.91 0 1.6.27 2.16.92 4.31 5.02 10.18 7.44 16.8 8.84a85.32 85.32 0 0 1 23.87 9.03c4.93 2.73 10.38 4.01 16.08 4.5 6.2.53 12.38.37 18.58-.24 5.85-.57 11.58.42 17.27 1.7 6.72 1.51 13.43 2.93 20.5 1.73 4.12-.7 8.38-.78 12.58-.11z" class="cls-5"/><path id="path163" fill="#291091" stroke-width="0" d="M386.35 77.56c-4.49-1.36-9.17-1.9-13.8-2.65a9.47 9.47 0 0 0-3.3.19 44 44 0 0 1-21.48-.84c-5.03-1.52-10.23-2.16-15.45-2.79-7.83-.95-15.7-.8-23.56-.93-3.96-.07-7.55-1.52-11.09-3-7.72-3.22-15.63-6-23.65-8.54-1.5-.48-3.03-.93-4.33-1.87.37-.59.93-.4 1.38-.41 2.94-.02 5.88-.03 8.82 0 2.56.02 4.57 1.47 6.79 2.33 7.02 2.71 14.09 5.16 21.75 5.86 2.63.24 5.2-.09 7.79-.26 6.13-.4 12.21-1.31 18.39-1.21 2.96.05 5.87.21 8.69 1.05 5.43 1.63 10.8.97 16-.69 5.65-1.81 11.26-1.77 17.02-.79 3.45.59 6.72 1.67 10.04 2.66v11.91z" class="cls-5"/><path id="path165" fill="#291091" stroke-width="0" d="M386.35 111.44c-2.37 0-4.6.72-6.79 1.39-10.38 3.17-20.18 1.76-29.71-2.78-7.2-3.43-13.39-8.11-19.51-12.9-1.26-.99-2.61-1.91-3.64-3.11-.46-.54-1.16-1.12-.55-1.89.64-.81 1.52-.51 2.24-.12 3.06 1.65 6.05 3.4 9.13 5 6.6 3.43 13.51 6.22 21.07 7.19 4.16.53 8.4.48 12.57-.43 3.77-.82 7.58-1.51 11.37-2.25 1.26-.25 2.53-.28 3.8-.18v10.08z" class="cls-5"/><path id="path167" fill="#291091" stroke-width="0" d="M223.31 211.89a34.35 34.35 0 0 0-5.5-5.48 3.08 3.08 0 0 1-1.29-2.65c.06-2.85.01-5.69.03-8.54 0-.43-.21-1 .33-1.24.46-.21.81.21 1.16.44a113.34 113.34 0 0 1 19.45 16.32c.32.34.53.77.8 1.15h-14.97z" class="cls-5"/><path id="path169" fill="#291091" stroke-width="0" d="M386.35 61.37a131 131 0 0 0-18.07-3.24c-2.76-.29-5.4.38-8.04.93a62.96 62.96 0 0 1-29.86-.78c-2.32-.63-4.75-.9-7.42-1.39.7-.06 1.14-.14 1.58-.14l60.99-.06c.27 0 .55.06.82.1z" class="cls-5"/><path id="path171" fill="#291091" stroke-width="0" d="M238.5 116.8c-5.96-1.12-11.16-4.1-16.97-5.6-1.15-.3-2.29-.35-3.45-.37-1.12-.02-1.58-.47-1.56-1.5.04-2.19.04-4.37 0-6.56-.02-1.1.47-1.44 1.64-1.22 3.76.73 7.34 1.94 10.83 3.39 5.39 2.24 10.67 4.73 16.42 6.17a36.2 36.2 0 0 0 10.54.95c2.89-.13 5.75.09 8.58.73.44.1 1.07.37 1.33-.18.21-.43-.33-.71-.65-.97-5.91-4.88-12.65-7.81-20.75-8.18a48.34 48.34 0 0 1-20.65-5.68 26.8 26.8 0 0 0-5.86-2.48c-1.01-.26-1.45-.77-1.43-1.75.04-2.49 0-4.98.02-7.48.01-1.34.37-1.54 1.71-.89a32.25 32.25 0 0 1 6.35 3.89c5.34 4.4 11.69 6.61 18.66 7.75 4.35.71 8.76 1.25 13.01 2.45 4.92 1.4 8.98 4.14 12.89 7.08 5.07 3.81 9.69 8.04 14.05 12.53 1.48 1.53 3.51 2.47 5.19 3.79.71.56 1.46 1.12 2.03 1.79.81.94.33 1.87-.97 1.86a9.6 9.6 0 0 1-2.76-.45 118.96 118.96 0 0 0-17.34-4.16c-1.9-.29-3.86-.24-5.79-.38-4.92-.35-9.77-1.17-14.61-2.02a5.8 5.8 0 0 0-2.62.09c-3.35.89-6.7 1.79-10.06 2.64-4.72 1.19-9.44.83-14.15-.1-1.3-.26-2.6-.51-3.91-.73-1.14-.19-1.78-.66-1.7-1.83.08-1.17.04-2.34.02-3.51-.02-1.06.5-1.3 1.58-1.09 1.9.37 3.74.9 5.57 1.51a33.68 33.68 0 0 0 12.59 1.52c.33-.02.67-.06.98-.15.41-.12.8-.3 1.2-.46l.05-.37z" class="cls-5"/></g></g></g><g id="g230"><g id="g182"><path id="path178" fill="#291091" stroke-width="0" d="M150.96 424.84a17.94 17.94 0 0 1-17.92-17.92v-26.27c0-2.48.51-4.87 1.46-7.06h-31.3c-43.23 0-78.41-35.17-78.41-78.41 0-43.24 35.17-78.41 78.41-78.41h394.66c43.23 0 78.41 35.17 78.41 78.41 0 43.24-35.17 78.41-78.41 78.41h-40.48a17.91 17.91 0 0 1 1.46 7.06v26.27c0 9.88-8.04 17.92-17.92 17.92z" class="cls-5"/><path id="path180" fill="#ae7c00" stroke-width="0" d="M497.86 221.66c40.44 0 73.52 33.08 73.52 73.52s-33.08 73.52-73.52 73.52h-51.77a13.08 13.08 0 0 1 7.86 11.95v26.27c0 7.17-5.86 13.03-13.03 13.03H150.96a13.06 13.06 0 0 1-13.03-13.03v-26.27c0-5.33 3.25-9.94 7.86-11.95H103.2c-40.44 0-73.52-33.08-73.52-73.52s33.08-73.52 73.52-73.52zm0-9.77H103.2a82.7 82.7 0 0 0-58.83 24.46 82.71 82.71 0 0 0-24.46 58.83 82.71 82.71 0 0 0 24.46 58.83 82.71 82.71 0 0 0 58.83 24.46h25.06c-.07.72-.1 1.44-.1 2.18v26.27a22.83 22.83 0 0 0 22.8 22.8h289.96a22.83 22.83 0 0 0 22.8-22.8v-26.27c0-.73-.04-1.46-.1-2.18h34.24a82.7 82.7 0 0 0 58.83-24.46 82.71 82.71 0 0 0 24.46-58.83 82.71 82.71 0 0 0-24.46-58.83 82.71 82.71 0 0 0-58.83-24.46" class="cls-6"/></g><ellipse id="ellipse184" cx="294.44" cy="351.66" fill="#291091" stroke-width="0" class="cls-5" rx="137.03" ry="104.15"/><g id="g194"><path id="path186" fill="none" stroke="#ae7c00" stroke-miterlimit="10" stroke-width="6.52" d="M141.87 254.81a55.75 55.75 0 1 0 17.55 40.61h-42.54" class="cls-3"/><g id="g192"><path id="path188" fill="#ae7c00" stroke-width="0" d="M57.83 258.28a58.98 58.98 0 0 0 0 74.26z" class="cls-6"/><path id="path190" fill="#ae7c00" stroke-width="0" d="M88.55 238.37a58.76 58.76 0 0 0-24.2 13.06v87.96a58.76 58.76 0 0 0 24.2 13.06l4.09 1.08V237.29Z" class="cls-6"/></g></g><g id="g204"><circle id="circle196" cx="240.57" cy="295.36" r="55.75" fill="none" stroke="#ae7c00" stroke-miterlimit="10" stroke-width="6.52" class="cls-3"/><g id="g202"><path id="path198" fill="#ae7c00" stroke-width="0" d="M197.82 258.28a58.98 58.98 0 0 0 0 74.26z" class="cls-6"/><path id="path200" fill="#ae7c00" stroke-width="0" d="M228.54 238.37a58.76 58.76 0 0 0-24.2 13.06v87.96a58.76 58.76 0 0 0 24.2 13.06l4.09 1.08V237.29Z" class="cls-6"/></g></g><g id="g216"><path id="path206" fill="none" stroke="#ae7c00" stroke-miterlimit="10" stroke-width="6.52" d="M440.42 239.64h56.2a55.75 55.75 0 1 1 0 111.5h-56.2" class="cls-3"/><path id="path208" fill="#ae7c00" stroke-width="0" d="M491.93 354.39h-54.49V236.43h54.49zm-47.98-6.51h41.46V242.95h-41.46z" class="cls-6"/><g id="g214"><path id="rect210" fill="#ae7c00" stroke-width="0" d="M460.46 236.43h31.47v117.96h-31.47z" class="cls-6"/><path id="rect212" fill="#ae7c00" stroke-width="0" d="M437.44 236.43h16.51v117.96h-16.51z" class="cls-6"/></g></g><g id="g228"><path id="rect218" fill="none" stroke="#ae7c00" stroke-miterlimit="10" stroke-width="6.52" d="M321.47 239.69h47.97v111.44h-47.97z" class="cls-3"/><g id="g224"><path id="rect220" fill="#ae7c00" stroke-width="0" d="M341.23 236.43h31.47v117.96h-31.47z" class="cls-6"/><path id="rect222" fill="#ae7c00" stroke-width="0" d="M318.21 236.43h16.51v117.96h-16.51z" class="cls-6"/></g><path id="line226" fill="none" stroke="#ae7c00" stroke-miterlimit="10" stroke-width="6.52" d="M344.96 351.13h69.18" class="cls-3"/></g></g></g><g id="ZAWsX3"><g id="g242"><path id="path234" fill="#ffc0f9" stroke-width="0" d="M341.48 389.85v-16.67c0-1.27.06-1.34 1.34-1.34 2.37 0 4.74-.02 7.12 0a6.6 6.6 0 0 1 6.56 5.06 6.56 6.56 0 0 1-.78 5.23c-.3.48-.33.7.2 1.08 2.72 1.96 4.79 4.55 5.34 7.84 1.05 6.36-.55 12.23-7.31 15.47a11.87 11.87 0 0 1-5.64 1.3c-1.87-.08-3.75-.01-5.62-.02-1.1 0-1.2-.1-1.2-1.21v-16.75zm4.58 4.49c0 2.72.02 5.43-.01 8.15 0 .78.26 1.2 1.07 1.07 1.55-.24 3.15-.28 4.6-.94a8.67 8.67 0 0 0 3.84-3.16 8.96 8.96 0 0 0 1.32-5.14c0-1.76-.28-3.46-1.28-4.98-1.99-3.06-5.09-3.85-8.44-4.15-.83-.07-1.14.23-1.12 1.09.04 2.69.02 5.37.02 8.06m.01-15.78v1.67c0 .3.05.66.42.67 1.51.04 3.05.35 4.47-.42a2.16 2.16 0 0 0 .58-3.3c-.84-.98-2-.96-3.15-.95-2.67.03-2.3-.34-2.33 2.33z" class="cls-8"/><path id="path236" fill="#ffc0f9" stroke-width="0" d="M322.63 385.28c0 3.89.03 7.78-.02 11.67-.02 1.54-.3 3.07-.85 4.53-.9 2.41-2.36 4.36-4.72 5.49a7.4 7.4 0 0 1-2.97.86c-1.55.04-3.12.07-4.54-.61a9.53 9.53 0 0 1-3.91-3.29 12.39 12.39 0 0 1-1.99-7.09c.05-7.81.02-15.62.02-23.43 0-1.46.09-1.55 1.53-1.55h1.67c1.22.02 1.37.18 1.37 1.37v18.86c0 2.16-.11 4.33.15 6.48.24 1.99 1.15 3.58 3.02 4.39 2.39 1.03 5.61-.73 6.13-3.29.33-1.66.55-3.32.54-5.03-.05-7.14-.02-14.27-.02-21.41 0-1.34.05-1.39 1.38-1.39h2.02c.84 0 1.2.38 1.19 1.24-.02 4.07-.01 8.13-.01 12.2z" class="cls-8"/><path id="path238" fill="#ffc0f9" stroke-width="0" d="M230.1 389.58c-.28-1.72.07-3.41.58-5a18.8 18.8 0 0 1 6.45-9.45 18.88 18.88 0 0 1 7.78-3.55c1.62-.33 3.33-.13 4.99-.08.39.01.54.29.6.64.19 1.16.17 2.33.04 3.49-.06.49-.28.75-.9.63-1.61-.3-3.18-.29-4.82.19-2.7.79-4.98 2.12-6.8 4.22a13.27 13.27 0 0 0-3.27 9.9c.29 4.93 2.82 8.39 6.84 10.92a11.4 11.4 0 0 0 7.13 1.62c1.65-.13 1.89.05 1.91 1.73 0 .73.05 1.46-.09 2.19-.09.52-.36.76-.89.77-2.19.06-4.38.11-6.5-.58a18.6 18.6 0 0 1-11.9-10.93c-.44-1.06-.65-2.21-.97-3.32-.33-1.12-.12-2.27-.17-3.4z" class="cls-8"/><path id="path240" fill="#ffc0f9" stroke-width="0" d="M269.82 389.82v-16.67c0-1.22.08-1.3 1.29-1.31h1.93c1.16.04 1.37.26 1.37 1.41v27.98c0 .44.03.88 0 1.32-.06.76.26 1.03 1.02 1.02 2.96-.03 5.92-.01 8.87-.01 1.49 0 1.54.05 1.54 1.52v1.49c-.02 1.02-.21 1.23-1.25 1.23h-12.12q-2.65 0-2.65-2.64v-15.35z" class="cls-8"/></g><circle id="circle244" cx="259.46" cy="390.02" r="4.37" fill="#ffc0f9" stroke-width="0" class="cls-8"/><circle id="circle246" cx="292.74" cy="390.02" r="4.37" fill="#ffc0f9" stroke-width="0" class="cls-8"/><circle id="circle248" cx="332.68" cy="390.02" r="4.37" fill="#ffc0f9" stroke-width="0" class="cls-8"/></g><g id="g365"><g id="g255"><path id="path251" fill="#ae7c00" stroke-width="0" d="M306.72 445.6c-3.26 0-6.11-1.91-6.93-4.65a5.53 5.53 0 0 1 .58-4.48 7.05 7.05 0 0 1 4.7-3.18l25.66-5.22a8.12 8.12 0 0 1 1.63-.16c3.26 0 6.11 1.91 6.93 4.65.45 1.51.25 3.1-.58 4.48a7.05 7.05 0 0 1-4.71 3.18l-25.66 5.22c-.54.11-1.08.16-1.63.16z" class="cls-6"/><path id="path253" fill="#291091" stroke-width="0" d="M332.37 429.86c2.34 0 4.47 1.31 5.06 3.26.69 2.29-1.03 4.62-3.8 5.18l-25.66 5.22c-.41.08-.83.12-1.24.12-2.34 0-4.47-1.31-5.06-3.26-.69-2.29 1.03-4.62 3.8-5.18l25.66-5.22c.41-.08.83-.12 1.24-.12m0-3.9c-.68 0-1.36.07-2.02.2l-25.66 5.22a8.98 8.98 0 0 0-5.99 4.1 7.48 7.48 0 0 0-.78 6.04c1.07 3.56 4.69 6.04 8.8 6.04.68 0 1.36-.07 2.02-.2l25.66-5.22a8.98 8.98 0 0 0 5.99-4.1 7.48 7.48 0 0 0 .78-6.04c-1.07-3.56-4.69-6.04-8.8-6.04" class="cls-5"/></g><g id="g261"><path id="path257" fill="#ae7c00" stroke-width="0" d="M228.35 434.6c-1.29 0-2.56-.3-3.67-.88l-22.35-11.62a6.3 6.3 0 0 1-3.34-4.17 5.61 5.61 0 0 1 1.07-4.67 7.48 7.48 0 0 1 5.96-2.76c1.29 0 2.56.3 3.67.88L232.04 423a6.3 6.3 0 0 1 3.34 4.17 5.61 5.61 0 0 1-1.07 4.67 7.48 7.48 0 0 1-5.96 2.76" class="cls-6"/><path id="path259" fill="#291091" stroke-width="0" d="M206.03 412.47c.95 0 1.91.21 2.76.66l22.35 11.62c2.42 1.26 3.15 3.92 1.62 5.91a5.55 5.55 0 0 1-4.41 1.99c-.95 0-1.91-.21-2.76-.66l-22.35-11.62c-2.42-1.26-3.15-3.92-1.62-5.91a5.55 5.55 0 0 1 4.41-1.99m0-3.91a9.46 9.46 0 0 0-7.51 3.52 7.61 7.61 0 0 0-1.43 6.28 8.26 8.26 0 0 0 4.35 5.48l22.35 11.62a9.91 9.91 0 0 0 4.57 1.1 9.46 9.46 0 0 0 7.51-3.52 7.61 7.61 0 0 0 1.43-6.28 8.26 8.26 0 0 0-4.35-5.48l-22.35-11.62a9.91 9.91 0 0 0-4.57-1.1" class="cls-5"/></g><g id="g267"><path id="path263" fill="#ae7c00" stroke-width="0" d="M189.42 409.37a7.39 7.39 0 0 1-6.29-3.23l-12.15-19.32a5.5 5.5 0 0 1-.62-4.66 6.5 6.5 0 0 1 3.74-3.95 7.97 7.97 0 0 1 3.14-.63 7.39 7.39 0 0 1 6.29 3.23l12.15 19.32a5.5 5.5 0 0 1 .62 4.66 6.5 6.5 0 0 1-3.74 3.95c-.99.42-2.04.63-3.14.63" class="cls-6"/><path id="path265" fill="#291091" stroke-width="0" d="M177.24 379.54c1.89 0 3.71.84 4.64 2.31l12.15 19.32c1.32 2.09.31 4.69-2.23 5.77-.76.32-1.57.48-2.38.48a5.46 5.46 0 0 1-4.64-2.31l-12.15-19.32c-1.32-2.09-.31-4.69 2.23-5.77a6.13 6.13 0 0 1 2.38-.48m0-3.91a10 10 0 0 0-3.91.79 8.45 8.45 0 0 0-4.84 5.17 7.57 7.57 0 0 0 .83 6.28l12.15 19.32a9.37 9.37 0 0 0 7.95 4.14 10 10 0 0 0 3.91-.79 8.45 8.45 0 0 0 4.84-5.17c.66-2.1.35-4.39-.83-6.28l-12.15-19.32a9.37 9.37 0 0 0-7.95-4.14" class="cls-5"/></g><g id="g273"><path id="path269" fill="#ae7c00" stroke-width="0" d="M171.04 395.73c-6.29 0-11.96-3.14-14.44-7.99l-7.09-13.85a11.39 11.39 0 0 1-.45-9.56c1.46-3.64 4.7-6.56 8.89-8.01 1.91-.66 3.91-1 5.96-1 6.29 0 11.96 3.14 14.44 7.99l7.09 13.85a11.4 11.4 0 0 1 .45 9.57c-1.46 3.64-4.7 6.56-8.89 8.01-1.91.66-3.91 1-5.97 1zm-7.12-30.55c-.65 0-1.28.1-1.88.31a4.01 4.01 0 0 0-2.49 2.15 2.5 2.5 0 0 0 .11 2.15l7.09 13.85c.68 1.33 2.4 2.22 4.28 2.22.65 0 1.28-.11 1.88-.31a4.01 4.01 0 0 0 2.49-2.15 2.5 2.5 0 0 0-.11-2.15l-7.09-13.85c-.68-1.33-2.4-2.22-4.28-2.22" class="cls-6"/><path id="path271" fill="#291091" stroke-width="0" d="M163.91 357.27c5.37 0 10.49 2.61 12.7 6.93l7.09 13.85c2.95 5.76-.35 12.41-7.34 14.84-1.74.6-3.55.89-5.32.89-5.37 0-10.49-2.61-12.7-6.93L151.25 373c-2.95-5.76.35-12.41 7.34-14.84 1.74-.6 3.55-.89 5.32-.89m7.12 30.55c.84 0 1.7-.14 2.53-.42 3.32-1.15 4.88-4.31 3.48-7.04l-7.09-13.85c-1.05-2.05-3.48-3.29-6.02-3.29-.84 0-1.7.14-2.52.42-3.32 1.15-4.88 4.31-3.48 7.04l7.09 13.85c1.05 2.05 3.48 3.29 6.02 3.29m-7.13-34.46c-2.27 0-4.49.37-6.6 1.1-4.73 1.64-8.4 4.97-10.07 9.13a13.3 13.3 0 0 0 .53 11.18l7.09 13.85c2.82 5.5 9.17 9.06 16.18 9.06 2.27 0 4.49-.37 6.6-1.1 4.73-1.64 8.4-4.97 10.07-9.13a13.3 13.3 0 0 0-.53-11.18l-7.09-13.85c-2.82-5.5-9.17-9.06-16.18-9.06m7.12 30.55c-1.27 0-2.26-.6-2.54-1.16l-7.09-13.85a.56.56 0 0 1-.03-.53c.13-.32.54-.76 1.31-1.03.39-.14.81-.21 1.24-.21 1.27 0 2.26.6 2.54 1.16l7.09 13.85c.1.19.11.34.03.53-.13.32-.54.76-1.31 1.03-.39.14-.81.21-1.24.21" class="cls-5"/></g><g id="g279"><path id="path275" fill="#ae7c00" stroke-width="0" d="M202.08 433.34c-4.46 0-8.73-1.6-11.7-4.38l-12.04-11.3a12.02 12.02 0 0 1-4-9.62c.24-3.67 2.18-7 5.47-9.38a17.51 17.51 0 0 1 10.21-3.17c4.46 0 8.73 1.6 11.7 4.39l12.04 11.3a12.02 12.02 0 0 1 4 9.62c-.24 3.67-2.18 7-5.47 9.38a17.51 17.51 0 0 1-10.21 3.17zm-12.05-28a5.4 5.4 0 0 0-3.15.96 3.14 3.14 0 0 0-1.41 2.3c-.05.81.3 1.62 1 2.27l12.04 11.3c.88.83 2.18 1.3 3.57 1.3 1.18 0 2.3-.34 3.15-.96a3.14 3.14 0 0 0 1.41-2.3c.05-.82-.3-1.62-1-2.27l-12.04-11.3a5.21 5.21 0 0 0-3.57-1.3" class="cls-6"/><path id="path277" fill="#291091" stroke-width="0" d="M190.02 397.43c3.83 0 7.64 1.3 10.36 3.86l12.04 11.3c5 4.7 4.43 11.87-1.28 15.98a15.54 15.54 0 0 1-9.06 2.8c-3.83 0-7.64-1.3-10.36-3.86l-12.04-11.3c-5-4.7-4.43-11.87 1.28-15.99a15.54 15.54 0 0 1 9.06-2.8m12.05 28.01a7.4 7.4 0 0 0 4.3-1.33c2.71-1.95 2.98-5.35.6-7.58l-12.04-11.3a7.2 7.2 0 0 0-4.91-1.83 7.4 7.4 0 0 0-4.3 1.33c-2.71 1.95-2.98 5.35-.61 7.58l12.04 11.3a7.2 7.2 0 0 0 4.91 1.83m-12.04-31.9c-4.15 0-8.18 1.26-11.35 3.54-3.72 2.68-6.01 6.63-6.28 10.84a13.95 13.95 0 0 0 4.61 11.17l12.04 11.3a19.16 19.16 0 0 0 13.03 4.91c4.15 0 8.18-1.26 11.35-3.54 3.72-2.68 6.01-6.63 6.28-10.84a13.95 13.95 0 0 0-4.61-11.17l-12.04-11.3a19.16 19.16 0 0 0-13.03-4.91m12.05 27.99c-.89 0-1.72-.29-2.24-.77l-12.04-11.3c-.18-.17-.4-.44-.38-.72.02-.27.24-.58.6-.84a3.46 3.46 0 0 1 2.01-.59c.89 0 1.72.29 2.24.77l12.04 11.3c.18.17.4.44.38.72-.02.27-.24.57-.6.84-.53.38-1.24.59-2.01.59" class="cls-5"/></g><g id="g285"><path id="path281" fill="#ae7c00" stroke-width="0" d="M187.01 412.1a7.39 7.39 0 0 1-6.29-3.23l-14.2-22.58a5.5 5.5 0 0 1-.62-4.66 6.5 6.5 0 0 1 3.74-3.95 7.97 7.97 0 0 1 3.14-.63 7.39 7.39 0 0 1 6.29 3.23l14.2 22.58a5.5 5.5 0 0 1 .62 4.66 6.5 6.5 0 0 1-3.74 3.95c-.99.42-2.04.63-3.14.63" class="cls-6"/><path id="path283" fill="#291091" stroke-width="0" d="M172.78 379c1.89 0 3.71.84 4.64 2.31l14.2 22.58c1.32 2.09.31 4.69-2.23 5.77-.76.32-1.57.48-2.38.48a5.46 5.46 0 0 1-4.64-2.31l-14.2-22.58c-1.32-2.09-.31-4.69 2.23-5.77a6.13 6.13 0 0 1 2.38-.48m0-3.91a10 10 0 0 0-3.91.79 8.45 8.45 0 0 0-4.84 5.17 7.57 7.57 0 0 0 .83 6.28l14.2 22.58a9.37 9.37 0 0 0 7.95 4.14 10 10 0 0 0 3.91-.79 8.45 8.45 0 0 0 4.84-5.17c.66-2.1.35-4.39-.83-6.28l-14.2-22.58a9.37 9.37 0 0 0-7.95-4.14" class="cls-5"/></g><g id="g291"><path id="path287" fill="#ae7c00" stroke-width="0" d="M280.1 445.6c-.55 0-1.1-.06-1.63-.16l-25.66-5.22a7.05 7.05 0 0 1-4.7-3.18 5.53 5.53 0 0 1-.58-4.48c.82-2.74 3.67-4.65 6.93-4.65.55 0 1.1.06 1.63.16l25.66 5.22a7.07 7.07 0 0 1 4.71 3.18 5.53 5.53 0 0 1 .58 4.48c-.82 2.74-3.67 4.65-6.93 4.65z" class="cls-6"/><path id="path289" fill="#291091" stroke-width="0" d="M254.45 429.86c.41 0 .83.04 1.24.12l25.66 5.22c2.78.56 4.49 2.9 3.8 5.18-.58 1.95-2.72 3.26-5.06 3.26-.41 0-.83-.04-1.24-.12l-25.66-5.22c-2.78-.56-4.49-2.9-3.8-5.18.58-1.95 2.72-3.26 5.06-3.26m0-3.9c-4.12 0-7.74 2.48-8.8 6.04a7.43 7.43 0 0 0 .78 6.04 9.07 9.07 0 0 0 5.99 4.1l25.66 5.22c.66.13 1.34.2 2.02.2 4.12 0 7.74-2.48 8.8-6.04a7.43 7.43 0 0 0-.78-6.04 9.07 9.07 0 0 0-5.99-4.1l-25.66-5.22c-.66-.13-1.34-.2-2.02-.2" class="cls-5"/></g><g id="g297"><path id="path293" fill="#ae7c00" stroke-width="0" d="M250.06 452.19c-1.64 0-3.28-.22-4.85-.65l-17.33-4.74c-4.35-1.19-7.87-3.93-9.64-7.5a11.4 11.4 0 0 1-.38-9.44c2.17-5.37 8.15-8.97 14.88-8.97 1.64 0 3.28.22 4.85.65l17.33 4.74c4.35 1.19 7.87 3.93 9.64 7.5a11.4 11.4 0 0 1 .38 9.44c-2.17 5.37-8.15 8.98-14.88 8.98zm-17.31-21.44c-2 0-3.8 1.01-4.38 2.45-.36.88-.15 1.64.09 2.12a4.23 4.23 0 0 0 2.75 2.06l17.33 4.74c.5.14 1.02.21 1.54.21 2 0 3.8-1.01 4.38-2.46.36-.88.15-1.64-.09-2.12a4.23 4.23 0 0 0-2.75-2.06l-17.33-4.74a5.72 5.72 0 0 0-1.54-.21z" class="cls-6"/><path id="path295" fill="#291091" stroke-width="0" d="M232.76 422.84c1.44 0 2.9.19 4.33.58l17.33 4.74c7.2 1.97 11.11 8.4 8.72 14.32-1.92 4.74-7.3 7.75-13.07 7.75-1.44 0-2.9-.19-4.33-.58l-17.33-4.74c-7.2-1.97-11.11-8.4-8.72-14.32 1.92-4.74 7.3-7.75 13.07-7.75m17.31 21.44c2.73 0 5.29-1.43 6.2-3.68 1.14-2.81-.72-5.86-4.13-6.79l-17.33-4.74a7.63 7.63 0 0 0-2.06-.28c-2.73 0-5.29 1.43-6.2 3.68-1.14 2.81.72 5.86 4.13 6.79l17.33 4.74c.68.19 1.37.28 2.06.28m-17.31-25.35c-7.52 0-14.23 4.1-16.69 10.2a13.31 13.31 0 0 0 .44 11.04c2.02 4.07 5.98 7.18 10.87 8.52l17.33 4.74c1.74.48 3.55.72 5.37.72 7.52 0 14.23-4.1 16.69-10.2a13.31 13.31 0 0 0-.44-11.04c-2.02-4.07-5.98-7.18-10.87-8.52l-17.33-4.74a20.21 20.21 0 0 0-5.37-.72m17.31 21.44c-.35 0-.69-.05-1.02-.14l-17.33-4.74c-.85-.23-1.34-.69-1.51-1.04a.57.57 0 0 1-.03-.52c.24-.61 1.27-1.23 2.57-1.23.35 0 .69.05 1.02.14l17.33 4.74c.85.23 1.34.69 1.51 1.04.11.22.09.37.03.52-.24.61-1.27 1.23-2.57 1.23" class="cls-5"/></g><g id="g303"><path id="path299" fill="#ae7c00" stroke-width="0" d="M228.33 439.17c-1.29 0-2.56-.3-3.67-.88l-26.12-13.58a6.3 6.3 0 0 1-3.34-4.17 5.61 5.61 0 0 1 1.07-4.67 7.48 7.48 0 0 1 5.96-2.76c1.29 0 2.56.3 3.67.88l26.12 13.58a6.3 6.3 0 0 1 3.34 4.17 5.61 5.61 0 0 1-1.07 4.67 7.48 7.48 0 0 1-5.96 2.76" class="cls-6"/><path id="path301" fill="#291091" stroke-width="0" d="M202.24 415.08c.95 0 1.91.21 2.76.66l26.12 13.58c2.42 1.26 3.15 3.92 1.62 5.91a5.55 5.55 0 0 1-4.41 1.99c-.95 0-1.91-.21-2.76-.66l-26.12-13.58c-2.42-1.26-3.15-3.92-1.62-5.91a5.55 5.55 0 0 1 4.41-1.99m0-3.91a9.46 9.46 0 0 0-7.51 3.52 7.61 7.61 0 0 0-1.43 6.28 8.26 8.26 0 0 0 4.35 5.48l26.12 13.58a9.91 9.91 0 0 0 4.57 1.1 9.46 9.46 0 0 0 7.51-3.52 7.61 7.61 0 0 0 1.43-6.28 8.26 8.26 0 0 0-4.35-5.48l-26.12-13.58a9.91 9.91 0 0 0-4.57-1.1" class="cls-5"/></g><g id="g309"><path id="path305" fill="#ae7c00" stroke-width="0" d="M286.64 457.77c-8.67 0-15.72-5.96-15.72-13.28 0-7.32 7.05-13.28 15.72-13.28h18.26c8.67 0 15.72 5.96 15.72 13.28 0 7.32-7.05 13.28-15.72 13.28zm0-16.7c-2.48 0-4.57 1.56-4.57 3.42 0 1.86 2.09 3.42 4.57 3.42h18.26c2.48 0 4.57-1.56 4.57-3.42 0-1.86-2.09-3.42-4.57-3.42z" class="cls-6"/><path id="path307" fill="#291091" stroke-width="0" d="M304.9 433.16c7.59 0 13.76 5.08 13.76 11.33s-6.17 11.33-13.76 11.33h-18.26c-7.59 0-13.76-5.08-13.76-11.33s6.17-11.33 13.76-11.33zm-18.26 16.7h18.26c3.6 0 6.53-2.41 6.53-5.37s-2.93-5.37-6.53-5.37h-18.26c-3.6 0-6.53 2.41-6.53 5.37s2.93 5.37 6.53 5.37m18.26-20.61h-18.26c-9.74 0-17.67 6.83-17.67 15.24s7.93 15.24 17.67 15.24h18.26c9.74 0 17.67-6.83 17.67-15.24s-7.93-15.24-17.67-15.24m-18.26 16.7c-1.57 0-2.62-.88-2.62-1.46s1.04-1.46 2.62-1.46h18.26c1.57 0 2.62.88 2.62 1.46s-1.04 1.46-2.62 1.46z" class="cls-5"/></g><g id="g315"><path id="path311" fill="#ae7c00" stroke-width="0" d="M281.99 450.7c-.55 0-1.09-.06-1.63-.16l-29.99-6.1a7.07 7.07 0 0 1-4.71-3.18 5.53 5.53 0 0 1-.58-4.48c.82-2.74 3.67-4.65 6.93-4.65.55 0 1.1.06 1.63.16l29.99 6.1a7.07 7.07 0 0 1 4.71 3.18 5.53 5.53 0 0 1 .58 4.48c-.82 2.74-3.67 4.65-6.93 4.65" class="cls-6"/><path id="path313" fill="#291091" stroke-width="0" d="M252.01 434.08c.41 0 .83.04 1.24.12l29.99 6.1c2.78.56 4.49 2.9 3.8 5.18-.58 1.95-2.72 3.26-5.06 3.26-.41 0-.83-.04-1.24-.12l-29.99-6.1c-2.78-.56-4.49-2.9-3.8-5.18.58-1.95 2.72-3.26 5.06-3.26m0-3.91c-4.12 0-7.74 2.48-8.8 6.04a7.43 7.43 0 0 0 .78 6.04 9.07 9.07 0 0 0 5.99 4.1l29.99 6.1c.66.13 1.34.2 2.02.2 4.12 0 7.74-2.48 8.8-6.04a7.44 7.44 0 0 0-.78-6.04 9.07 9.07 0 0 0-5.99-4.1l-29.99-6.1c-.66-.13-1.34-.2-2.02-.2" class="cls-5"/></g><g id="g321"><path id="path317" fill="#ae7c00" stroke-width="0" d="M361.39 434.6a7.47 7.47 0 0 1-5.96-2.76 5.6 5.6 0 0 1-1.07-4.67 6.37 6.37 0 0 1 3.34-4.17l22.35-11.62a8.04 8.04 0 0 1 3.67-.88 7.47 7.47 0 0 1 5.96 2.76 5.6 5.6 0 0 1 1.07 4.67 6.35 6.35 0 0 1-3.34 4.17l-22.35 11.62a8.04 8.04 0 0 1-3.67.88" class="cls-6"/><path id="path319" fill="#291091" stroke-width="0" d="M383.71 412.47c1.73 0 3.43.71 4.41 1.99 1.53 1.99.8 4.65-1.62 5.91l-22.35 11.62c-.86.45-1.82.66-2.76.66a5.56 5.56 0 0 1-4.41-1.99c-1.53-1.99-.8-4.65 1.62-5.91l22.35-11.62a5.97 5.97 0 0 1 2.76-.66m0-3.91c-1.61 0-3.18.38-4.57 1.1l-22.35 11.62a8.3 8.3 0 0 0-4.35 5.48 7.61 7.61 0 0 0 1.43 6.28 9.43 9.43 0 0 0 7.51 3.52c1.61 0 3.19-.38 4.57-1.1l22.35-11.62a8.3 8.3 0 0 0 4.35-5.48 7.61 7.61 0 0 0-1.43-6.28 9.43 9.43 0 0 0-7.51-3.52" class="cls-5"/></g><g id="g327"><path id="path323" fill="#ae7c00" stroke-width="0" d="M400.31 409.37c-1.1 0-2.16-.21-3.14-.63a6.5 6.5 0 0 1-3.74-3.95 5.57 5.57 0 0 1 .62-4.66l12.15-19.32a7.39 7.39 0 0 1 6.29-3.23c1.1 0 2.16.21 3.14.63a6.47 6.47 0 0 1 3.74 3.95 5.57 5.57 0 0 1-.62 4.66l-12.15 19.32a7.39 7.39 0 0 1-6.29 3.23" class="cls-6"/><path id="path325" fill="#291091" stroke-width="0" d="M412.49 379.54a6 6 0 0 1 2.38.48c2.54 1.08 3.54 3.68 2.23 5.77l-12.15 19.32c-.92 1.47-2.75 2.31-4.64 2.31a6 6 0 0 1-2.38-.48c-2.54-1.08-3.54-3.68-2.23-5.77l12.15-19.32c.92-1.47 2.75-2.31 4.64-2.31m0-3.91a9.37 9.37 0 0 0-7.95 4.14l-12.15 19.32a7.53 7.53 0 0 0-.83 6.28 8.45 8.45 0 0 0 4.84 5.17c1.23.52 2.54.79 3.91.79 3.3 0 6.34-1.59 7.95-4.14l12.15-19.32a7.53 7.53 0 0 0 .83-6.28 8.45 8.45 0 0 0-4.84-5.17 9.97 9.97 0 0 0-3.91-.79" class="cls-5"/></g><g id="g333"><path id="path329" fill="#ae7c00" stroke-width="0" d="M421.61 395.73c-2.05 0-4.06-.33-5.97-1-4.19-1.45-7.43-4.37-8.89-8.01a11.41 11.41 0 0 1 .45-9.57l7.09-13.85c2.49-4.86 8.15-7.99 14.44-7.99 2.05 0 4.06.33 5.96 1 4.19 1.45 7.43 4.37 8.89 8.01a11.39 11.39 0 0 1-.45 9.56l-7.09 13.85c-2.49 4.86-8.15 7.99-14.44 7.99zm7.11-30.55c-1.88 0-3.6.89-4.28 2.22l-7.09 13.85a2.53 2.53 0 0 0-.11 2.15 4.01 4.01 0 0 0 2.49 2.15c.6.21 1.23.31 1.88.31 1.88 0 3.6-.89 4.28-2.22l7.09-13.85c.36-.69.39-1.44.11-2.15a4.01 4.01 0 0 0-2.49-2.15 5.66 5.66 0 0 0-1.88-.31" class="cls-6"/><path id="path331" fill="#291091" stroke-width="0" d="M428.73 357.27c1.78 0 3.58.29 5.32.89 6.99 2.42 10.29 9.08 7.34 14.84l-7.09 13.85c-2.21 4.32-7.33 6.93-12.7 6.93-1.78 0-3.58-.29-5.32-.89-6.99-2.42-10.29-9.08-7.34-14.84l7.09-13.85c2.21-4.32 7.33-6.93 12.7-6.93m-7.11 30.55c2.55 0 4.97-1.24 6.02-3.29l7.09-13.85c1.4-2.73-.16-5.89-3.48-7.04a7.57 7.57 0 0 0-2.52-.42c-2.55 0-4.97 1.24-6.02 3.29l-7.09 13.85c-1.4 2.73.16 5.89 3.48 7.04.82.29 1.68.42 2.53.42m7.11-34.46c-7.01 0-13.36 3.56-16.18 9.06l-7.09 13.85c-1.81 3.54-2 7.52-.53 11.18 1.67 4.16 5.34 7.49 10.07 9.13 2.11.73 4.34 1.1 6.6 1.1 7.01 0 13.37-3.56 16.18-9.06l7.09-13.85c1.81-3.54 2-7.52.53-11.18-1.67-4.16-5.34-7.49-10.07-9.13a20.13 20.13 0 0 0-6.6-1.1m-7.12 30.55c-.43 0-.85-.07-1.24-.21-.77-.27-1.18-.71-1.31-1.03a.56.56 0 0 1 .03-.53l7.09-13.85c.29-.56 1.28-1.16 2.54-1.16.43 0 .85.07 1.24.21.77.27 1.19.71 1.32 1.03.08.19.07.34-.03.53l-7.09 13.85c-.29.56-1.28 1.16-2.54 1.16z" class="cls-5"/></g><g id="g339"><path id="path335" fill="#ae7c00" stroke-width="0" d="M390.57 433.34c-3.75 0-7.37-1.13-10.21-3.17-3.29-2.37-5.23-5.7-5.47-9.38a12.04 12.04 0 0 1 4-9.62l12.04-11.3a17.16 17.16 0 0 1 11.7-4.39c3.75 0 7.37 1.13 10.21 3.17 3.29 2.38 5.23 5.71 5.47 9.38a12.04 12.04 0 0 1-4 9.62l-12.04 11.3a17.15 17.15 0 0 1-11.7 4.38zm12.05-28c-1.39 0-2.7.47-3.58 1.3L387 417.94a2.86 2.86 0 0 0-.99 2.27c.06.87.56 1.68 1.41 2.3.86.62 1.98.96 3.15.96 1.39 0 2.69-.47 3.57-1.3l12.04-11.3a2.9 2.9 0 0 0 1-2.27 3.16 3.16 0 0 0-1.41-2.3 5.41 5.41 0 0 0-3.15-.96" class="cls-6"/><path id="path337" fill="#291091" stroke-width="0" d="M402.62 397.43c3.22 0 6.46.92 9.06 2.8 5.71 4.12 6.28 11.29 1.28 15.99l-12.04 11.3a15.2 15.2 0 0 1-10.36 3.86c-3.22 0-6.46-.92-9.06-2.8-5.71-4.12-6.28-11.29-1.28-15.98l12.04-11.3a15.2 15.2 0 0 1 10.36-3.86m-12.05 27.99c1.82 0 3.62-.62 4.91-1.83l12.04-11.3c2.37-2.23 2.1-5.63-.61-7.58a7.4 7.4 0 0 0-4.3-1.33c-1.82 0-3.62.62-4.91 1.83l-12.04 11.3c-2.37 2.23-2.1 5.63.6 7.58a7.4 7.4 0 0 0 4.3 1.33m12.06-31.9c-4.96 0-9.71 1.79-13.03 4.91l-12.04 11.3a13.94 13.94 0 0 0-4.61 11.17c.27 4.2 2.56 8.15 6.28 10.84a19.48 19.48 0 0 0 11.35 3.54c4.96 0 9.71-1.79 13.03-4.91l12.04-11.3a13.95 13.95 0 0 0 4.61-11.17c-.27-4.2-2.56-8.15-6.28-10.84a19.48 19.48 0 0 0-11.35-3.54m-12.05 27.99c-.76 0-1.49-.22-2.01-.59-.36-.26-.58-.57-.6-.84-.02-.29.2-.55.38-.72l12.04-11.3a3.33 3.33 0 0 1 2.24-.77c.76 0 1.49.22 2.01.59.36.26.58.57.6.84.02.28-.2.55-.38.72l-12.04 11.3c-.51.48-1.35.77-2.24.77" class="cls-5"/></g><g id="g345"><path id="path341" fill="#ae7c00" stroke-width="0" d="M405.64 412.1c-1.1 0-2.16-.21-3.14-.63a6.47 6.47 0 0 1-3.74-3.95 5.57 5.57 0 0 1 .62-4.66l14.2-22.58a7.39 7.39 0 0 1 6.29-3.23c1.1 0 2.16.21 3.14.63a6.47 6.47 0 0 1 3.74 3.95 5.57 5.57 0 0 1-.62 4.66l-14.2 22.58a7.39 7.39 0 0 1-6.29 3.23" class="cls-6"/><path id="path343" fill="#291091" stroke-width="0" d="M419.87 379a6 6 0 0 1 2.38.48c2.54 1.08 3.54 3.68 2.23 5.77l-14.2 22.58c-.92 1.47-2.75 2.31-4.64 2.31a6 6 0 0 1-2.38-.48c-2.54-1.08-3.54-3.68-2.23-5.77l14.2-22.58c.92-1.47 2.75-2.31 4.64-2.31m0-3.91a9.37 9.37 0 0 0-7.95 4.14l-14.2 22.58a7.53 7.53 0 0 0-.83 6.28 8.45 8.45 0 0 0 4.84 5.17c1.23.52 2.54.79 3.91.79 3.3 0 6.34-1.59 7.95-4.14l14.2-22.58a7.53 7.53 0 0 0 .83-6.28 8.45 8.45 0 0 0-4.84-5.17 9.97 9.97 0 0 0-3.91-.79" class="cls-5"/></g><g id="g351"><path id="path347" fill="#ae7c00" stroke-width="0" d="M342.58 452.19c-6.73 0-12.71-3.61-14.88-8.98a11.37 11.37 0 0 1 .38-9.44c1.77-3.58 5.28-6.31 9.63-7.5l17.33-4.74c1.57-.43 3.21-.65 4.85-.65 6.73 0 12.71 3.61 14.88 8.97a11.37 11.37 0 0 1-.38 9.44c-1.77 3.58-5.28 6.31-9.63 7.5l-17.33 4.74c-1.57.43-3.21.65-4.85.65zm17.31-21.44c-.52 0-1.04.07-1.54.21l-17.33 4.74a4.26 4.26 0 0 0-2.75 2.06 2.51 2.51 0 0 0-.09 2.12c.58 1.45 2.39 2.45 4.38 2.46.52 0 1.04-.07 1.54-.21l17.33-4.74a4.26 4.26 0 0 0 2.75-2.06c.24-.48.45-1.24.09-2.12-.58-1.45-2.39-2.45-4.38-2.45z" class="cls-6"/><path id="path349" fill="#291091" stroke-width="0" d="M359.89 422.84c5.77 0 11.15 3.01 13.07 7.75 2.4 5.93-1.51 12.35-8.72 14.32l-17.33 4.74c-1.44.39-2.9.58-4.33.58-5.77 0-11.15-3.01-13.07-7.75-2.39-5.93 1.51-12.35 8.72-14.32l17.33-4.74c1.44-.39 2.9-.58 4.33-.58m-17.32 21.44c.68 0 1.37-.09 2.06-.28l17.33-4.74c3.42-.94 5.27-3.98 4.13-6.79-.91-2.25-3.46-3.68-6.2-3.68-.68 0-1.37.09-2.06.28l-17.33 4.74c-3.42.94-5.27 3.98-4.13 6.79.91 2.25 3.46 3.68 6.2 3.68m17.32-25.35c-1.82 0-3.62.24-5.37.72l-17.33 4.74c-4.89 1.34-8.85 4.44-10.87 8.52a13.35 13.35 0 0 0-.44 11.04c2.47 6.1 9.17 10.2 16.69 10.2 1.82 0 3.62-.24 5.37-.72l17.33-4.74c4.89-1.34 8.85-4.44 10.87-8.52a13.35 13.35 0 0 0 .44-11.04c-2.46-6.1-9.17-10.2-16.69-10.2m-17.32 21.44c-1.3 0-2.33-.63-2.57-1.23a.57.57 0 0 1 .03-.52c.17-.35.66-.81 1.51-1.04l17.33-4.74c.33-.09.67-.14 1.02-.14 1.3 0 2.33.63 2.57 1.23.06.15.08.3-.03.52-.17.35-.66.81-1.51 1.04l-17.33 4.74c-.33.09-.67.14-1.02.14" class="cls-5"/></g><g id="g357"><path id="path353" fill="#ae7c00" stroke-width="0" d="M364.31 439.17a7.47 7.47 0 0 1-5.96-2.76 5.6 5.6 0 0 1-1.07-4.67 6.37 6.37 0 0 1 3.34-4.17l26.12-13.58a8.04 8.04 0 0 1 3.67-.88 7.47 7.47 0 0 1 5.96 2.76 5.6 5.6 0 0 1 1.07 4.67 6.37 6.37 0 0 1-3.34 4.17l-26.12 13.58a8.04 8.04 0 0 1-3.67.88" class="cls-6"/><path id="path355" fill="#291091" stroke-width="0" d="M390.4 415.08c1.73 0 3.43.71 4.41 1.99 1.53 1.99.8 4.65-1.62 5.91l-26.12 13.58c-.86.45-1.82.66-2.76.66a5.56 5.56 0 0 1-4.41-1.99c-1.53-1.99-.8-4.65 1.62-5.91l26.12-13.58a5.97 5.97 0 0 1 2.76-.66m0-3.91c-1.61 0-3.18.38-4.57 1.1l-26.12 13.58a8.3 8.3 0 0 0-4.35 5.48 7.61 7.61 0 0 0 1.43 6.28 9.43 9.43 0 0 0 7.51 3.52c1.61 0 3.19-.38 4.57-1.1l26.12-13.58a8.3 8.3 0 0 0 4.35-5.48 7.61 7.61 0 0 0-1.43-6.28 9.43 9.43 0 0 0-7.51-3.52" class="cls-5"/></g><g id="g363"><path id="path359" fill="#ae7c00" stroke-width="0" d="M310.66 450.7c-3.26 0-6.11-1.91-6.93-4.65a5.53 5.53 0 0 1 .58-4.48 7.05 7.05 0 0 1 4.7-3.18l29.99-6.1a8.12 8.12 0 0 1 1.63-.16c3.26 0 6.11 1.91 6.93 4.65.45 1.51.25 3.1-.58 4.48a7.05 7.05 0 0 1-4.71 3.18l-29.99 6.1c-.54.11-1.08.16-1.63.16z" class="cls-6"/><path id="path361" fill="#291091" stroke-width="0" d="M340.63 434.08c2.34 0 4.47 1.31 5.06 3.26.69 2.29-1.03 4.62-3.8 5.18l-29.99 6.1c-.41.08-.83.12-1.24.12-2.34 0-4.47-1.31-5.06-3.26-.69-2.29 1.03-4.62 3.8-5.18l29.99-6.1c.41-.08.83-.12 1.24-.12m0-3.91c-.68 0-1.36.07-2.02.2l-29.99 6.1a8.98 8.98 0 0 0-5.99 4.1 7.48 7.48 0 0 0-.78 6.04c1.07 3.56 4.69 6.04 8.8 6.04.68 0 1.36-.07 2.02-.2l29.99-6.1a8.98 8.98 0 0 0 5.99-4.1 7.48 7.48 0 0 0 .78-6.04c-1.07-3.56-4.69-6.04-8.8-6.04" class="cls-5"/></g></g><g id="g387"><g id="g371"><path id="path367" fill="#ae7c00" stroke-width="0" d="M295.77 519.06a29.75 29.75 0 0 1-29.71-29.71 29.75 29.75 0 0 1 29.71-29.71 29.75 29.75 0 0 1 29.71 29.71 29.75 29.75 0 0 1-29.71 29.71" class="cls-6"/><path id="path369" fill="#291091" stroke-width="0" d="M295.77 461.6a27.75 27.75 0 1 1 0 55.5 27.75 27.75 0 0 1 0-55.5m0-3.91c-17.46 0-31.66 14.2-31.66 31.66s14.2 31.66 31.66 31.66 31.66-14.2 31.66-31.66-14.2-31.66-31.66-31.66" class="cls-5"/></g><g id="g377"><path id="path373" fill="#ae7c00" stroke-width="0" d="M295.77 519.06a29.64 29.64 0 0 1-22.93-10.82l-1.03-1.24 1.03-1.24a29.62 29.62 0 0 1 22.93-10.82c8.9 0 17.26 3.95 22.93 10.82l1.03 1.24-1.03 1.24a29.62 29.62 0 0 1-22.93 10.82" class="cls-6"/><path id="path375" fill="#291091" stroke-width="0" d="M295.77 496.88c8.63 0 16.34 3.94 21.43 10.11a27.68 27.68 0 0 1-21.43 10.11 27.72 27.72 0 0 1-21.43-10.11 27.68 27.68 0 0 1 21.43-10.11m0-3.91c-9.49 0-18.4 4.2-24.44 11.54l-2.05 2.49 2.05 2.49a31.58 31.58 0 0 0 24.44 11.54c9.49 0 18.4-4.2 24.44-11.54l2.05-2.49-2.05-2.49a31.58 31.58 0 0 0-24.44-11.54" class="cls-5"/></g><g id="g383"><path id="path379" fill="#ae7c00" stroke-width="0" d="M295.77 483.78a29.64 29.64 0 0 1-22.93-10.82l-1.03-1.24 1.03-1.24a29.62 29.62 0 0 1 22.93-10.82c8.9 0 17.26 3.95 22.93 10.82l1.03 1.24-1.03 1.24a29.62 29.62 0 0 1-22.93 10.82" class="cls-6"/><path id="path381" fill="#291091" stroke-width="0" d="M295.77 461.6c8.63 0 16.34 3.94 21.43 10.11a27.68 27.68 0 0 1-21.43 10.11 27.72 27.72 0 0 1-21.43-10.11 27.68 27.68 0 0 1 21.43-10.11m0-3.91c-9.49 0-18.4 4.2-24.44 11.54l-2.05 2.49 2.05 2.49a31.58 31.58 0 0 0 24.44 11.54c9.49 0 18.4-4.2 24.44-11.54l2.05-2.49-2.05-2.49a31.58 31.58 0 0 0-24.44-11.54" class="cls-5"/></g><path id="line385" fill="#ae7c00" stroke="#291091" stroke-miterlimit="10" stroke-width="3.91" d="M295.77 461.6v55.51"/></g></g></svg>