<svg xmlns="http://www.w3.org/2000/svg" xmlns:xlink="http://www.w3.org/1999/xlink" id="Layer_1" data-name="Layer 1" version="1.1" width="380.82" height="380.82"><defs id="defs35"><linearGradient id="linear-gradient" x1="501.35" y1="554" x2="501.35" y2="172" gradientUnits="userSpaceOnUse"><stop offset="0" stop-color="#b8b8b8" id="stop4"/><stop offset="1" stop-color="#6b6a6b" id="stop6"/></linearGradient><linearGradient id="linear-gradient-2" x1="482.02" y1="333.72" x2="576.6" y2="333.72" gradientUnits="userSpaceOnUse"><stop offset="0" stop-color="#fff" id="stop9"/><stop offset="1" stop-color="#6b6a6b" id="stop11"/></linearGradient><linearGradient id="linear-gradient-3" x1="420.76" y1="339.34" x2="460.21" y2="339.34" xlink:href="#linear-gradient-2" gradientTransform="translate(-311.213 -172)"/><linearGradient id="linear-gradient-4" x1="492.65" y1="427.43" x2="530.07" y2="427.43" xlink:href="#linear-gradient-2" gradientTransform="translate(-311.213 -172)"/><linearGradient id="linear-gradient-5" x1="419.98" y1="380.84" x2="466.08" y2="380.84" xlink:href="#linear-gradient-2" gradientTransform="translate(-311.213 -172)"/><linearGradient id="linear-gradient-6" x1="436.5" y1="422.47" x2="488.64" y2="422.47" xlink:href="#linear-gradient-2" gradientTransform="translate(-311.213 -172)"/><linearGradient id="linear-gradient-7" x1="451.2" y1="326.27" x2="522.09" y2="326.27" xlink:href="#linear-gradient-2" gradientTransform="translate(-311.213 -172)"/><linearGradient id="linear-gradient-8" x1="526.51" y1="413.23" x2="562.29" y2="413.23" xlink:href="#linear-gradient-2" gradientTransform="translate(-311.213 -172)"/><linearGradient id="linear-gradient-9" x1="549.8" y1="360.68" x2="602.63" y2="360.68" xlink:href="#linear-gradient-2" gradientTransform="translate(-311.213 -172)"/><linearGradient id="linear-gradient-10" x1="521.45" y1="364.31" x2="591.65" y2="364.31" xlink:href="#linear-gradient-2" gradientTransform="translate(-311.213 -172)"/><linearGradient id="linear-gradient-11" x1="252.77" y1="1061.82" x2="252.77" y2="766" xlink:href="#linear-gradient"/><linearGradient id="linear-gradient-12" x1="302.35" y1="1036.56" x2="302.35" y2="957.53" xlink:href="#linear-gradient-2"/><linearGradient id="linear-gradient-13" x1="253.29" y1="961.22" x2="253.29" y2="788.99" xlink:href="#linear-gradient-2"/><linearGradient id="linear-gradient-14" x1="194.16" y1="861.12" x2="303.4" y2="861.12" xlink:href="#linear-gradient-2"/><linearGradient id="linear-gradient-15" x1="706.54" y1="872.85" x2="821.77" y2="872.85" xlink:href="#linear-gradient-2"/><linearGradient id="linear-gradient-16" x1="631.91" y1="879.69" x2="679.98" y2="879.69" xlink:href="#linear-gradient-2"/><linearGradient id="linear-gradient-17" x1="719.49" y1="987" x2="765.08" y2="987" xlink:href="#linear-gradient-2"/><linearGradient id="linear-gradient-18" x1="630.96" y1="930.25" x2="687.12" y2="930.25" xlink:href="#linear-gradient-2"/><linearGradient id="linear-gradient-19" x1="651.09" y1="980.96" x2="714.61" y2="980.96" xlink:href="#linear-gradient-2"/><linearGradient id="linear-gradient-20" x1="669" y1="863.77" x2="755.36" y2="863.77" xlink:href="#linear-gradient-2"/><linearGradient id="linear-gradient-21" x1="760.75" y1="969.71" x2="804.34" y2="969.71" xlink:href="#linear-gradient-2"/><linearGradient id="linear-gradient-22" x1="789.12" y1="905.69" x2="853.49" y2="905.69" xlink:href="#linear-gradient-2"/><linearGradient id="linear-gradient-23" x1="754.58" y1="910.11" x2="840.1" y2="910.11" xlink:href="#linear-gradient-2"/><linearGradient xlink:href="#linear-gradient" id="linearGradient877" gradientUnits="userSpaceOnUse" x1="501.35" y1="554" x2="501.35" y2="172" gradientTransform="translate(-311.213 -172)"/><linearGradient xlink:href="#linear-gradient-2" id="linearGradient879" gradientUnits="userSpaceOnUse" x1="482.02" y1="333.72" x2="576.6" y2="333.72" gradientTransform="translate(-311.213 -172)"/><style id="style2">.cls-4{fill:#270c54}.cls-16{fill:none;stroke:#270c54;stroke-miterlimit:10;stroke-width:6.02px}.cls-17{fill:#7c7c7c}.cls-19{fill:#e0e0e0}</style></defs><circle class="cls-4" cx="190.137" cy="191" r="184.31" id="circle207" style="fill:#270c54"/><path d="M190.137 6.69c101.79 0 184.31 82.52 184.31 184.31s-82.52 184.31-184.31 184.31a184.31 184.31 0 0 1 0-368.62m0-6.69a190.41 190.41 0 1 0 74.35 15 189.85 189.85 0 0 0-74.35-15z" id="path209" style="fill:url(#linearGradient877)"/><path d="m313.457 134.46-1.09-6.75-6.58-1.66c-8.71-2.18-18.59.34-26.5 3.56-21.08-31.23-56.6-39.95-62-41.11-37.19-11.53-68.82 8.14-76.31 13.38-24.66 9.25-36.51 25.46-42.12 37.49a67.22 67.22 0 0 0-6.28 23.75c-14.07 47.2 4.89 74 10 80.06a100.49 100.49 0 0 0 22.61 28.41c2.84 2.51 28.75 24.48 64 24.48a82.46 82.46 0 0 0 11.34-.78c28.65-4 49.37-16.8 61.63-38.09 7.1 1.26 18.37 2.13 28-4.57 8-5.63 13-15.16 14.84-28.31a170.41 170.41 0 0 0-1.49-55.86c12.91-14.34 10.08-33.16 9.95-34z" id="path211" style="fill:#bababa"/><path class="cls-4" d="m307.837 135.36-.49-3.05-3-.75c-9.29-2.32-21 2.19-27.3 5.22-19.76-33.34-57.26-41.96-61.26-42.78-36.24-11.36-67.36 9.47-72.2 12.95-23.29 8.53-34.41 23.62-39.64 34.83a61.37 61.37 0 0 0-5.79 22.32c-14.13 46.55 5.56 71.84 9 75.85a95.33 95.33 0 0 0 21.66 27.38c1.49 1.32 26.65 23.06 60.21 23.06a76.4 76.4 0 0 0 10.55-.73c28.41-4 48.38-17 59.42-38.87h.2c5.79 1.26 17.85 3.89 27.5-2.86 6.7-4.69 10.9-12.9 12.47-24.42a163 163 0 0 0-2.06-56.9c13.57-12.44 10.86-30.45 10.73-31.25z" id="path213" style="fill:#270c54"/><path d="M265.387 136.08a66.29 66.29 0 0 0-33.06 5.23c-7.37-6.41-17.2-9.11-23.46-9.63l-3.37-.28-1.32 3.12c-8.28 19.55.79 34.66 5.41 40.59-10.38 20.64-4.25 37.52-3.36 39.73-7.69 4.8-23.42 2.76-29.16 1.45a40.84 40.84 0 0 1-6.26-2.55c.07-.18.16-.34.23-.52 5.52-12.79 7.48-28 9.21-41.39.45-3.47.88-6.74 1.35-9.9 1.66-11.16 4.65-19.71 9.41-26.88 8.1-12.23 20.23-21.61 31.24-29.46 10.94 3.77 30.07 12.53 43.14 30.49z" id="path215" style="fill:url(#linearGradient879)"/><path d="M131.277 159.85q4.32 30.73 17.72 47.75a124.35 124.35 0 0 1-25-20.35 95.19 95.19 0 0 1-14.41-19.65 63.21 63.21 0 0 1 5.1-14.58c3.43-7 9.36-16.25 19.51-25.94-2.7 9-4.65 20.53-2.92 32.77z" id="path217" style="fill:url(#linear-gradient-3)"/><path d="M189.957 277c-7.1-8.46-9.78-18.92-8-31.2a62.05 62.05 0 0 1 3.11-12.07c9.1 3.09 29.61 12.44 33.77 25.06a42.4 42.4 0 0 1-2.05 9.81c-4.54 9.32-21.41 8.8-26.83 8.4z" id="path219" style="fill:url(#linear-gradient-4)"/><path d="M154.867 221.68a34.38 34.38 0 0 1-18.27 10.7 56.47 56.47 0 0 1-17.93 1.27 52.86 52.86 0 0 1-3.81-7.72c-5.5-13.65-6.45-29.49-6-42.12a116.07 116.07 0 0 0 7.88 9.44 137.7 137.7 0 0 0 38.13 28.43z" id="path221" style="fill:url(#linear-gradient-5)"/><path d="M138.787 241.49a43.21 43.21 0 0 0 24.89-15.62q5.91 2.61 12.51 4.92a71.83 71.83 0 0 0-3.4 13.3c-1.75 11.51-.15 22 4.66 31a92.18 92.18 0 0 1-11.52-3.65c-17.83-7-31.38-18.35-40.62-28.21a65.12 65.12 0 0 0 13.48-1.74z" id="path223" style="fill:url(#linear-gradient-6)"/><path d="M210.877 102.31c-10.44 7.84-20.47 16.69-27.68 27.57-5.54 8.35-9 18.1-10.86 30.67-.49 3.25-.92 6.57-1.37 10.08-1.66 12.83-3.43 26.52-8.1 37.84-11.53-9.7-19-26.41-22.32-49.92-2.83-20.09 5.95-38.66 8.6-43.69q3.17-2.22 6.67-4.43c8-4.35 21.93-10.36 38.26-10.36a63.05 63.05 0 0 1 16.8 2.24z" id="path225" style="fill:url(#linear-gradient-7)"/><path d="M225.407 272.28c0-.09.07-.18.1-.27a21 21 0 0 0 1.29-4.18c5.83-22.43-4.75-46-10.58-54.75a3.64 3.64 0 0 1-.88-2.44 1.27 1.27 0 0 1 .25-.45 82.4 82.4 0 0 1 35.49 35.68 57.19 57.19 0 0 1-25.67 26.41z" id="path227" style="fill:url(#linear-gradient-8)"/><path d="M289.987 222.27a40.39 40.39 0 0 1-2.54 10c-19.07-.1-22.49-20.65-22.63-21.54v-.3l-.08-.29c-2.61-9.17-5.56-19.56-12.13-28.76-1.17-1.65-2.43-3.15-3.64-4.59-2.16-2.58-4.2-5-5.34-7.84a22.5 22.5 0 0 1-1.28-6.77c-.08-.85-.16-1.72-.26-2.61a28 28 0 0 0-3.45-10.68 56.88 56.88 0 0 1 23.28-3.69 42 42 0 0 1 11.11 2c2 1.41 10.57 7.92 13.6 16l.88 3.06c.01.24 6.8 24.47 2.48 56.01z" id="path229" style="fill:url(#linear-gradient-9)"/><path d="M261.527 227.41a43.39 43.39 0 0 1-5.92-15c-2.49-8.77-5.1-17.82-10.67-25.64-1-1.35-2-2.64-3.19-4-2.54-3-5.15-6.15-6.85-10.35a31 31 0 0 1-1.93-9.43c-.07-.77-.14-1.55-.23-2.36-1.57-13.42-14.74-17.76-21.17-19.09-5.26 17.3 6.81 29.46 6.94 29.59l2.49 2.45-1.64 3.08a27.29 27.29 0 0 0-1.87 21.6c7.32 4.18 37.65 22.48 47.79 44.2 4.66.8 10.44 1.16 15.16-1.57a29.72 29.72 0 0 1-18.91-13.48zm-17.28-26.26a12 12 0 0 1-15.06-13 12 12 0 0 1 15.06 13z" id="path231" style="fill:url(#linear-gradient-10)"/><path class="cls-16" d="M226.437 250.47s14 3.93 24.64-14.31" id="path233" style="fill:none;stroke:#270c54;stroke-width:6.01999998px;stroke-miterlimit:10"/><path class="cls-16" d="M218.857 235.16s14 3.93 24.65-14.31" id="path235" style="fill:none;stroke:#270c54;stroke-width:6.01999998px;stroke-miterlimit:10"/><path class="cls-16" id="polyline237" style="fill:none;stroke:#270c54;stroke-width:6.01999998px;stroke-miterlimit:10" transform="translate(-311.213 -172)" d="m572.08 382.19 22.95 5.06 13.54-6.41"/><path class="cls-16" id="polyline239" style="fill:none;stroke:#270c54;stroke-width:6.01999998px;stroke-miterlimit:10" transform="translate(-311.213 -172)" d="m568.74 367.48 22.95 3.71 13.53-6.4"/><path class="cls-16" id="polyline241" style="fill:none;stroke:#270c54;stroke-width:6.01999998px;stroke-miterlimit:10" transform="translate(-311.213 -172)" d="m555.81 349.3 32.8 4.09 12.87-7.64"/><path class="cls-16" id="polyline243" style="fill:none;stroke:#270c54;stroke-width:6.01999998px;stroke-miterlimit:10" transform="translate(-311.213 -172)" d="m549.8 333.14 34.24 3.31 12.5-8.23"/><path class="cls-16" id="polyline245" style="fill:none;stroke:#270c54;stroke-width:6.01999998px;stroke-miterlimit:10" transform="translate(-311.213 -172)" d="m547.25 314.47 23.22 3.61 13.1-7.23"/><path class="cls-17" d="m65.207 93.36 6.53-8 9.4 4a2.81 2.81 0 0 0 2.42 2.66l10.41 1.34a4.27 4.27 0 0 0 4.18-1.8l1.24-1.56 5.84 8.23-8.68 10.64-9.37-3.87 1.73-2.11c.59-.71 1-2.35.21-3a1.94 1.94 0 0 0-1.64-.46l-6.31 7.73a3.63 3.63 0 0 0 .7 1.46c.94.77 1.93.56 3.19-1l1.29-1.59 5.79 8.32-7.33 9-9.33-4 1.07-1.32a5 5 0 0 0 .85-5.35l-3.06-9.1c-.41-1.28-1.63-2-3.37-1.81zm12.92 4.58 1.67 4.89 3.49-4.27-5.16-.62z" id="path247" style="fill:#7c7c7c"/><path class="cls-17" d="M134.097 67.12c2.58 5.68 1.37 10.59-3.52 13.61l-8.05 5c-4.89 3-9.82 1.88-13.73-3a2.64 2.64 0 0 0 .2-3.21l-4.95-7.94a2.73 2.73 0 0 0-3.66-.83l-2.53 1.55-2.62-9.82 10.87-6.69 7.59 6.76-2.36 1.45a2.81 2.81 0 0 0-1 3.78l4.75 7.72a2.78 2.78 0 0 0 3.78 1l6.06-3.73a2.81 2.81 0 0 0 1-3.79l-4.88-7.92a2.73 2.73 0 0 0-3.66-.83l-2.52 1.55-2.62-9.78 9.83-6 7.59 6.76-2.36 1.45a2.82 2.82 0 0 0-1 3.79l4.88 7.92a2.64 2.64 0 0 0 2.91 1.2z" id="path249" style="fill:#7c7c7c"/><path class="cls-17" d="M161.937 48.92c7.26-1.25 12.53 1 13.73 6.15 1.39 6-1.68 10.39-7.27 11.69l-7.45 1.74c-5.6 1.3-9.91-1.34-12.08-7.19a2.62 2.62 0 0 0 1.21-3l-.34-1.47 5.88-1.37.33 1.42c.34 1.47 2.17 2.24 3.88 1.85l6.26-1.46c1.76-.41 2.92-1.43 2.59-2.85-.39-1.66-1.91-2.41-8-1.43-7.08 1.15-13.08-.56-14.46-6.48-1.38-5.92 1.53-10 6.56-11.13l7.12-1.66c4.74-1.1 9.1 1.53 10.65 7.52a2.61 2.61 0 0 0-1.21 3l.23 1-5.17 1.2-.23-1c-.32-1.37-2.07-2.21-3.68-1.84l-5.97 1.39c-1.42.33-2 1.13-1.72 2.46.44 1.88 3.42 2.44 9.14 1.46z" id="path251" style="fill:#7c7c7c"/><path class="cls-17" d="m194.867 42.6-.17 2.18-5.83-.45.17-2.23a2.61 2.61 0 0 0-1.64-2.77l3.73-9.48 27.29 2.15 2.2 9.94a2.62 2.62 0 0 0-2.05 2.48l-.18 2.24-5.82-.46.22-2.2a2.81 2.81 0 0 0-2.66-2.9 2.72 2.72 0 0 0-2.87 2.42l-.73 9.27a2.8 2.8 0 0 0 2.66 2.89l2.77.22-3.68 9.49-12.23-1-2.16-9.94 3 .23a2.73 2.73 0 0 0 2.88-2.41l.73-9.33a2.73 2.73 0 0 0-2.47-2.83 2.81 2.81 0 0 0-3.16 2.49z" id="path253" style="fill:#7c7c7c"/><path class="cls-17" d="m241.417 74.29-11.53-4.2.59-10.16 2.6.95a2.81 2.81 0 0 0 3.62-1.53l3.18-8.74a2.73 2.73 0 0 0-1.61-3.39l-2.79-1 6.07-8.16 11.54 4.2-.59 10.16-2.61-.95a2.81 2.81 0 0 0-3.62 1.53l-3.18 8.74a2.73 2.73 0 0 0 1.62 3.39l2.79 1z" id="path255" style="fill:#7c7c7c"/><path class="cls-17" d="m273.017 93.48 3.22-23.33c.17-1.45-1-2-1.85-.78l-4.64 6.2a2.71 2.71 0 0 0 .57 3.71l2.37 1.78-8.17 6.05-9.09-6.8 3.5-9.55 2.22 1.66a2.81 2.81 0 0 0 3.91-.42l5.57-7.44a2.73 2.73 0 0 0-.56-3.72l-2.38-1.78 8.18-6 8.69 6.51-3.59 26.09 6.39-8.54a2.72 2.72 0 0 0-.57-3.71l-2.37-1.78 8.17-6.05 8.42 6.3-3.49 9.55-2.23-1.66a2.81 2.81 0 0 0-3.9.42l-13 17.35z" id="path257" style="fill:#7c7c7c"/><path id="polygon259" style="fill:#b25b1a" transform="translate(-311.213 -172)" d="m375.86 328.03-6.63 6.47 1.57 9.13-8.21-4.31-8.2 4.31 1.57-9.13-6.64-6.47 9.17-1.33 4.1-8.31 4.1 8.31z"/><path class="cls-19" d="m64.057 216.92 2.61 9.57-8.34 5.15a2.71 2.71 0 0 0-3.43.4l-6.85 7.41a4.1 4.1 0 0 0-.92 4.27l.5 1.81h-9.71l-3.48-12.73 8.3-5.13.69 2.52c.23.86 1.26 2.13 2.25 1.86a1.83 1.83 0 0 0 1.27-1l-2.53-9.25a3.46 3.46 0 0 0-1.52-.26c-1.13.31-1.52 1.19-1 3l.52 1.9-9.73-.11-2.94-10.74 8.31-5.08.44 1.58a4.8 4.8 0 0 0 3.71 3.64l8.83 2.67a2.73 2.73 0 0 0 3.29-1.62zM34.847 218a2.13 2.13 0 1 0 3 0 2.13 2.13 0 0 0-3 0zm4.73 21a2.13 2.13 0 1 0 .55-3 2.12 2.12 0 0 0-.55 3zm13.69-14.52-4.75-1.41 1.39 5.1 3.36-3.69zm4.85-2.29a2.19 2.19 0 1 0 3-.82 2.29 2.29 0 0 0-3 .82z" id="path261" style="fill:#e0e0e0"/><path class="cls-19" d="m63.417 273-9.3 2.94-6.65-9.86 6.19-7.56 1.49 2.22a2.71 2.71 0 0 0 3.68.85l7.41-5a2.62 2.62 0 0 0 .66-3.55l-1.6-2.36 9.33-2.91L86.247 265c2.8 4.15 2.06 9.16-2.45 13.1a2.42 2.42 0 0 0-2.4-.29 7.5 7.5 0 0 1-6.17-.53c.26 3-1.61 5.15-2.55 6.18a2.48 2.48 0 0 0-.26 2.88l1.52 2.25-9.1 3.26-3.05-4.6c-2-2.95 1-7.53 4.56-10a2.08 2.08 0 0 0 2.86.22c1.71-1.15 1.81-2.35-2.09-8.13l-2.54-3.76-2.09 1.42a2.69 2.69 0 0 0-.59 3.72zm-9.28-3.06a2.13 2.13 0 1 0-.43-3 2.1 2.1 0 0 0 .43 2.98zm10.82 14.38a2.14 2.14 0 1 0 2.88-.93 2.12 2.12 0 0 0-2.88.91zm8.58-21.42a2.69 2.69 0 0 0-3.68-.85l-2.07 1.36 2.54 3.77c3.89 5.78 5 6.13 6.75 5a2.55 2.55 0 0 0 .34-3.5zm-1.89-6.24a2.17 2.17 0 1 0 1.29-2.78 2.23 2.23 0 0 0-1.29 2.76zm9 12.38a2.185 2.185 0 1 0 4.29.83 2.185 2.185 0 0 0-4.29-.83z" id="path263" style="fill:#e0e0e0"/><path class="cls-19" d="M101.387 298.15c.63-2.43-1-3.29-2.24-1.54l-5.17 7.3a2.61 2.61 0 0 0 .64 3.55l2.33 1.65-7.71 6-8.66-6.11 3.12-9.25 2.18 1.54a2.7 2.7 0 0 0 3.74-.5l5.17-7.3a2.63 2.63 0 0 0-.64-3.55l-2.36-1.68 7.7-6 12.68 9-3.13 9.26c-.31-.05-1.14 0-1.73 1.87l-2.41 7.86 6.58-4.91c1.19-.88 1.3-2 1.08-2.33l7.7-6 12.1 8.58-3.12 9.26-2.18-1.54a2.7 2.7 0 0 0-3.74.5l-5.17 7.29a2.62 2.62 0 0 0 .64 3.55l2.33 1.65-7.7 6-9.43-6.68 3.12-9.26 2.18 1.54a2.69 2.69 0 0 0 3.74-.5l5.16-7.29c1.33-1.87-.12-2.9-2.24-1.53l-18.64 12.3s-1.71-1.15-1.72-1.21zm-15.08 10.18a2.19 2.19 0 1 0 1.79-2.52 2.3 2.3 0 0 0-1.79 2.52zm13.35-18.18a2.13 2.13 0 1 0 2.36-1.88 2.13 2.13 0 0 0-2.36 1.88zm10.69 36a2.17 2.17 0 1 0 .22-3.05 2.23 2.23 0 0 0-.22 3.02zm12.51-18.2a2.17 2.17 0 1 0 .21-3.06 2.21 2.21 0 0 0-.21 3.03z" id="path265" style="fill:#e0e0e0"/><path class="cls-19" d="m153.447 312.39 9.6 2.49.3 9.8a2.72 2.72 0 0 0-1.35 3.18l3 9.63a4.09 4.09 0 0 0 3.25 2.92l1.81.47-4.85 8.41-12.76-3.29-.31-9.75 2.53.66c.86.22 2.48 0 2.74-1a1.91 1.91 0 0 0-.26-1.62l-9.29-2.41a3.61 3.61 0 0 0-1 1.19c-.3 1.14.27 1.91 2.13 2.4l1.9.49-4.93 8.39-10.78-2.81-.27-9.74 1.58.42a4.81 4.81 0 0 0 5-1.41l6.72-6.33a2.74 2.74 0 0 0 .23-3.66zm-13.66 25.85a2.14 2.14 0 1 0 1.55-2.6 2.13 2.13 0 0 0-1.55 2.6zm14.82-12.73-3.59 3.41 5.11 1.33c.07.01-1.5-4.74-1.5-4.74zm.43-5.36a2.18 2.18 0 1 0 .77-3 2.29 2.29 0 0 0-.75 3zm5.34 24.45a2.13 2.13 0 1 0-2.3-2 2.1 2.1 0 0 0 2.32 2z" id="path267" style="fill:#e0e0e0"/><path class="cls-19" d="m185.627 318.39 19.44-1.1c5.51-.3 9.16 2.91 10.24 8.8a2.52 2.52 0 0 0-1.63 2.63l.5 9a2.52 2.52 0 0 0 1.92 2.42c-.42 6-3.68 9.58-9.2 9.89l-19.43 1.09-3.33-9.18 2.94-.17a2.69 2.69 0 0 0 2.61-2.77l-.5-8.93a2.62 2.62 0 0 0-2.71-2.38l-3.13.18zm7.61 6.93a2.13 2.13 0 1 0-2.79-1.16 2.1 2.1 0 0 0 2.79 1.16zm-.11 22.22a2.17 2.17 0 1 0-1.74-2.54 2.21 2.21 0 0 0 1.74 2.54zm5.45-6.44 6.35-.36a2.69 2.69 0 0 0 2.61-2.73l-.5-8.92a2.61 2.61 0 0 0-2.71-2.38l-6.59.37a2.63 2.63 0 0 0-2.38 2.71l.49 8.69a2.68 2.68 0 0 0 2.73 2.62zm8.06-17.52a2.13 2.13 0 1 0 .68-2.94 2.13 2.13 0 0 0-.68 2.94zm1.73 22.54a2.3 2.3 0 0 0 3.09-.17 2.18 2.18 0 1 0-3.09.17z" id="path269" style="fill:#e0e0e0"/><path class="cls-19" d="m246.467 341.2-11.24 3.56-5.51-8.07 2.55-.8a2.7 2.7 0 0 0 1.85-3.29l-2.71-8.52a2.62 2.62 0 0 0-3.21-1.63l-2.73.86-.15-9.77 11.24-3.54 5.51 8.07-2.55.81a2.7 2.7 0 0 0-1.85 3.29l2.71 8.52a2.62 2.62 0 0 0 3.22 1.63l2.72-.86zm-15.21-22.87a2.13 2.13 0 1 0-.08-3 2.13 2.13 0 0 0 .08 3zm8.39 21.67a2.16 2.16 0 1 0-2.31-2 2.22 2.22 0 0 0 2.31 2z" id="path271" style="fill:#e0e0e0"/><path class="cls-19" d="M275.097 316.59a2.71 2.71 0 0 0 1-3.64l-1.1-1.79 5.15-3.15 1.12 1.84a2.52 2.52 0 0 0 2.84 1.23l2.43 9.48-20 12.23-7.27-6.53 2.28-1.39a2.71 2.71 0 0 0 1-3.64l-4.65-7.63a2.62 2.62 0 0 0-3.51-.81l-2.44 1.48-2.47-9.45 10.06-6.14 7.27 6.53-2.27 1.39a2.69 2.69 0 0 0-1 3.63l4.65 7.63a2.61 2.61 0 0 0 3.51.82zm-16.5-8.59a2.17 2.17 0 1 0-2.72-1.41 2.21 2.21 0 0 0 2.72 1.41zm11 19.15a2.17 2.17 0 1 0-1.31-4.13 2.17 2.17 0 0 0 1.31 4.13zm11.87-7.24a2.17 2.17 0 1 0-2.73-1.41 2.21 2.21 0 0 0 2.75 1.37z" id="path273" style="fill:#e0e0e0"/><path class="cls-19" d="M307.257 288.74a2.72 2.72 0 0 0 0-3.78l-1.55-1.43 4.1-4.42 1.58 1.46a2.53 2.53 0 0 0 3.07.41l4.92 8.46-16 17.22-8.77-4.3 1.81-1.95a2.7 2.7 0 0 0 0-3.78l-6.55-6.07a2.62 2.62 0 0 0-3.61.17l-1.94 2.09-4.95-8.42 8-8.65 8.78 4.3-1.82 2a2.7 2.7 0 0 0 0 3.77l6.56 6.08a2.62 2.62 0 0 0 3.6-.17zm-18.23-3.81a2.17 2.17 0 1 0-3-.62 2.23 2.23 0 0 0 3 .62zm15.82 15.42a2.17 2.17 0 1 0-3-.61 2.21 2.21 0 0 0 3 .61zm9.45-10.19a2.17 2.17 0 1 0-3-.61 2.24 2.24 0 0 0 3 .61z" id="path275" style="fill:#e0e0e0"/><path class="cls-19" d="M312.787 262.94a2.53 2.53 0 0 0-3.06.45c-5-3.35-6.45-8-4-12.91l4.44-8.77c2.49-4.93 7.1-6.48 12.74-4.47a2.52 2.52 0 0 0 1.45 2.73l8 4a2.51 2.51 0 0 0 3.06-.44c5 3.35 6.45 8 4 12.91l-4.43 8.77c-2.49 4.93-7.11 6.48-12.75 4.46a2.51 2.51 0 0 0-1.45-2.67zm-1.31-7.48a2.13 2.13 0 1 0-2.39 1.84 2.09 2.09 0 0 0 2.37-1.84zm4.81-11.67a2.14 2.14 0 1 0-.15-4.27 2.14 2.14 0 0 0 .15 4.27zm7.46 16.88a2.67 2.67 0 0 0 3.62-1.06l3-5.84a2.71 2.71 0 0 0-1-3.63l-8-4a2.63 2.63 0 0 0-3.42 1.16l-3.16 6.02a2.63 2.63 0 0 0 1.16 3.42zm7 5.76a2.17 2.17 0 1 0-3.06.24 2.23 2.23 0 0 0 3.1-.24zm6.8-13.43a2.16 2.16 0 1 0-3 .24 2.22 2.22 0 0 0 3-.24z" id="path277" style="fill:#e0e0e0"/><path class="cls-19" d="M334.197 213.64c1.79-6.85 5.83-10.58 10.83-9.59 5.78 1.15 8.43 5.59 7.36 11l-1.44 7.2c-1.07 5.42-5.1 8.15-11.07 7.73a2.52 2.52 0 0 0-2.13-2.24l-1.43-.28 1.13-5.7 1.38.28c1.42.28 2.83-1 3.15-2.67l1.21-6.06c.34-1.69-.1-3.12-1.47-3.39-1.61-.32-2.87.72-4.44 6.47-1.8 6.65-5.67 11.23-11.4 10.09-5.73-1.14-8.11-5.29-7.15-10.15l1.37-6.89c.92-4.59 5-7.36 10.81-6.34a2.5 2.5 0 0 0 2.13 2.23l1 .19-1 5-1-.19c-1.33-.27-2.76.93-3.07 2.49l-1.18 5.75c-.27 1.38.18 2.23 1.46 2.49 1.88.36 3.54-2.06 4.95-7.42zm-8.7 6.81a2.17 2.17 0 1 0-2.88 1.05 2.21 2.21 0 0 0 2.88-1.05zm2.29-11.29a2.17 2.17 0 1 0-2.88 1 2.23 2.23 0 0 0 2.88-1zm18.51 17a2.18 2.18 0 1 0-3-.61 2.3 2.3 0 0 0 2.96.65zm2.74-13.53a2.19 2.19 0 1 0-3-.61 2.3 2.3 0 0 0 2.96.65z" id="path279" style="fill:#e0e0e0"/></svg>