<svg xmlns="http://www.w3.org/2000/svg" id="Layer_1" data-name="Layer 1" version="1.1" width="339.555" height="414.4"><defs id="defs7"><clipPath id="clip-path"><path id="polygon4" style="fill:none" d="M387.69 532.55V285.11H125.8V532.5l133.06 97.71z"/></clipPath><style id="style2">.cls-3{fill:#3a7a91}.cls-4{fill:#f15d24}.cls-5{fill:#7a1319}.cls-6{fill:#89bfd3}.cls-7{fill:#07364f}.cls-8{fill:#fdc30f}.cls-10{fill:#fff}.cls-11{fill:#e62325}.cls-12{fill:#1e546d}</style></defs><g id="SlHar6" transform="translate(-73.264 -228.1)"><path class="cls-4" d="M150.51 369.93a31.64 31.64 0 0 1-3.84-2.66c-1.6-1.15-1.59-1.18-3.19 0-1.29.91-2.57 1.85-3.89 2.81-.17-.33 0-.57.08-.8.53-1.65 1.06-3.3 1.63-4.94a.88.88 0 0 0-.37-1.17c-1.48-1-2.92-2.13-4.38-3.2-.13-.1-.25-.22-.53-.47h2.33c1.32 0 2.65 0 4-.07a.7.7 0 0 0 .75-.59c.61-2 1.26-3.89 2-6 .55 1.66 1.07 3.13 1.52 4.62.61 2 .59 2.05 2.75 2.05h4.84l-2.44 1.79c-.89.66-1.76 1.33-2.66 2a.72.72 0 0 0-.3 1c.57 1.67 1.1 3.34 1.63 5 .07.23.11.47.16.71z" id="path29" style="fill:#f15d24"/><path class="cls-4" d="m150.53 369.91.06.08-.08-.06z" id="path31" style="fill:#f15d24"/></g><path class="cls-6" d="M251.126 19.19C232.836 6.81 208.736 0 183.386 0c-25.35 0-49.44 6.81-67.73 19.19-20 13.53-31 32.06-31 52.18 0 20.12 11 38.66 31 52.18 18.29 12.38 42.35 19.2 67.73 19.2 25.38 0 49.45-6.82 67.74-19.2 20-13.52 31-32 31-52.18s-11.02-38.65-31-52.18z" id="path152" style="fill:#89bfd3"/><path class="cls-6" d="M186.416 414.4h-1.55a5.73 5.73 0 0 1-3.39-1.11L43.416 311.9a5.71 5.71 0 0 1-2.33-4.61v-256a5.72 5.72 0 0 1 5.72-5.72h273.35a5.72 5.72 0 0 1 5.72 5.72v256a5.74 5.74 0 0 1-2.26 4.56l-133.74 101.39a5.76 5.76 0 0 1-3.46 1.16zm-133.88-110 133.06 97.71 128.83-97.66V57.01H52.536z" id="path154" style="fill:#89bfd3"/><path class="cls-7" id="polygon156" style="fill:#07364f" transform="translate(-73.264 -228.1)" d="M387.69 285.11H125.8V532.5l133.06 97.71 128.83-97.66z"/><g clip-path="url(#clip-path)" id="g262" transform="translate(-73.264 -228.1)" style="clip-path:url(#clip-path)"><path class="cls-10" id="rect158" style="fill:#fff" d="M135.79 573.86h31.12v31.12h-31.12z"/><path class="cls-5" id="rect160" style="fill:#7a1319" d="M166.91 573.86h31.12v31.12h-31.12z"/><path class="cls-11" id="rect162" style="fill:#e62325" d="M135.79 595.04h31.12v9.94h-31.12z"/><path class="cls-10" id="rect164" style="fill:#fff" d="M166.91 595.04h31.12v9.94h-31.12z"/><path class="cls-10" id="rect166" style="fill:#fff" d="M197.77 573.92h31.12v31.12h-31.12z"/><path class="cls-5" id="rect168" style="fill:#7a1319" d="M228.89 573.92h31.12v31.12h-31.12z"/><path class="cls-5" id="rect170" style="fill:#7a1319" d="M197.77 595.1h31.12v9.94h-31.12z"/><path class="cls-10" id="rect172" style="fill:#fff" d="M228.89 595.1h31.12v9.94h-31.12z"/><path class="cls-10" id="rect174" style="fill:#fff" d="M259.58 573.86h31.12v31.12h-31.12z"/><path class="cls-5" id="rect176" style="fill:#7a1319" d="M290.69 573.86h31.12v31.12h-31.12z"/><path class="cls-5" id="rect178" style="fill:#7a1319" d="M259.58 595.04h31.12v9.94h-31.12z"/><path class="cls-10" id="rect180" style="fill:#fff" d="M290.69 595.04h31.12v9.94h-31.12z"/><path class="cls-10" id="rect182" style="fill:#fff" d="M321.55 573.92h31.12v31.12h-31.12z"/><path class="cls-11" id="rect184" style="fill:#e62325" d="M352.67 573.92h31.12v31.12h-31.12z"/><path class="cls-11" id="rect186" style="fill:#e62325" d="M321.55 595.1h31.12v9.94h-31.12z"/><path class="cls-10" id="rect188" style="fill:#fff" d="M352.67 595.1h31.12v9.94h-31.12z"/><path class="cls-8" id="rect190" style="fill:#fdc30f" d="M167.43 543.36h31.12v31.12h-31.12z"/><path class="cls-8" id="rect192" style="fill:#fdc30f" d="M135.55 543.36h31.31v31.12h-31.31z"/><path class="cls-7" id="rect194" style="fill:#07364f" d="M151.78 543.36h15.07v31.12h-15.07z"/><path class="cls-7" id="polygon196" style="fill:#07364f" d="M151.79 562.18v-18.82h-16.24v5.45z"/><path class="cls-8" id="polygon198" style="fill:#fdc30f" d="m151.78 562.13.01.05 14.13 12.3h.94v-31.12h-15.08z"/><path class="cls-8" id="rect200" style="fill:#fdc30f" d="M197.45 543.36h31.12v31.12h-31.12z"/><path class="cls-7" id="rect202" style="fill:#07364f" d="M213.59 543.36h14.98v31.12h-14.98z"/><path class="cls-7" id="polygon204" style="fill:#07364f" d="M213.6 562.18v-18.82h-16.15v5.45z"/><path class="cls-8" id="polygon206" style="fill:#fdc30f" d="m213.59 562.13.01.05 14.04 12.3h.93v-31.12h-14.98z"/><path class="cls-7" id="rect208" style="fill:#07364f" d="M166.88 543.36H198v31.12h-31.12z"/><path class="cls-8" id="rect210" style="fill:#fdc30f" d="M183.02 543.36H198v31.12h-14.98z"/><path class="cls-8" id="polygon212" style="fill:#fdc30f" d="M183.03 562.18v-18.82h-16.15v5.45z"/><path class="cls-7" id="polygon214" style="fill:#07364f" d="m183.02 562.13.01.05 14.04 12.3h.93v-31.12h-14.98z"/><path class="cls-8" id="rect216" style="fill:#fdc30f" d="M228.57 543.36h31.12v31.12h-31.12z"/><path class="cls-7" id="rect218" style="fill:#07364f" d="M228.02 543.36h31.12v31.12h-31.12z"/><path class="cls-8" id="rect220" style="fill:#fdc30f" d="M244.16 543.36h14.98v31.12h-14.98z"/><path class="cls-8" id="polygon222" style="fill:#fdc30f" d="M244.17 562.18v-18.82h-16.15v5.45z"/><path class="cls-7" id="polygon224" style="fill:#07364f" d="m244.16 562.13.01.05 14.04 12.3h.93v-31.12h-14.98z"/><path class="cls-8" id="rect226" style="fill:#fdc30f" d="M292 543.36h31.12v31.12H292z"/><path class="cls-8" id="rect228" style="fill:#fdc30f" d="M260.12 543.36h31.31v31.12h-31.31z"/><path class="cls-7" id="rect230" style="fill:#07364f" d="M276.35 543.36h15.07v31.12h-15.07z"/><path class="cls-7" id="polygon232" style="fill:#07364f" d="M276.36 562.18v-18.82h-16.24v5.45z"/><path class="cls-8" id="polygon234" style="fill:#fdc30f" d="m276.35 562.13.01.05 14.13 12.3h.93v-31.12h-15.07z"/><path class="cls-8" id="rect236" style="fill:#fdc30f" d="M322.02 543.36h31.12v31.12h-31.12z"/><path class="cls-7" id="rect238" style="fill:#07364f" d="M338.16 543.36h14.98v31.12h-14.98z"/><path class="cls-7" id="polygon240" style="fill:#07364f" d="M338.17 562.18v-18.82h-16.15v5.45z"/><path class="cls-8" id="polygon242" style="fill:#fdc30f" d="m338.16 562.13.01.05 14.04 12.3h.93v-31.12h-14.98z"/><path class="cls-7" id="rect244" style="fill:#07364f" d="M291.45 543.36h31.12v31.12h-31.12z"/><path class="cls-8" id="rect246" style="fill:#fdc30f" d="M307.59 543.36h14.98v31.12h-14.98z"/><path class="cls-8" id="polygon248" style="fill:#fdc30f" d="M307.6 562.18v-18.82h-16.15v5.45z"/><path class="cls-7" id="polygon250" style="fill:#07364f" d="m307.59 562.13.01.05 14.04 12.3h.93v-31.12h-14.98z"/><path class="cls-8" id="rect252" style="fill:#fdc30f" d="M353.14 543.36h31.12v31.12h-31.12z"/><path class="cls-7" id="rect254" style="fill:#07364f" d="M352.59 543.36h31.12v31.12h-31.12z"/><path class="cls-8" id="rect256" style="fill:#fdc30f" d="M368.72 543.36h14.98v31.12h-14.98z"/><path class="cls-8" id="polygon258" style="fill:#fdc30f" d="M368.74 562.18v-18.82h-16.15v5.45z"/><path class="cls-7" id="polygon260" style="fill:#07364f" d="m368.73 562.13.01.05 14.03 12.3h.93v-31.12h-14.97z"/></g><path class="cls-12" id="rect264" style="fill:#1e546d" d="M52.536 57.01h261.74v52.88H52.536z"/><path class="cls-3" id="rect266" style="fill:#3a7a91" d="M52.536 57.01h261.74v20.76H52.536z"/><ellipse class="cls-6" cx="183.386" cy="71.37" rx="84.59" ry="57.25" id="ellipse268" style="fill:#89bfd3"/><path class="cls-7" d="M183.386 132.16c-48.59 0-88.13-27.27-88.13-60.79 0-33.52 39.54-60.78 88.13-60.78 48.59 0 88.14 27.27 88.14 60.78 0 33.51-39.54 60.79-88.14 60.79zm0-114.5c-44.69 0-81 24.1-81 53.71s36.36 53.72 81 53.72 81.06-24.1 81.06-53.72c0-29.62-36.36-53.71-81.06-53.71z" id="path270" style="fill:#07364f"/><path class="cls-7" d="M218.186 50.07a26.51 26.51 0 0 1-12.72-8.64c-7.41 0-17.67-7.29-17.67-7.29l.13-1c4.81.13 17.17 4.57 17.17 4.57-3.71-5.8-14.95-5.68-14.95-5.68l-2.22-.37a24 24 0 0 1 21.12 2.72c12.35 1.85 15.69 8.15 15.69 8.15l.66 6.58-6.67 3" id="path272" style="fill:#07364f"/><path class="cls-7" d="M147.836 50.07a26.57 26.57 0 0 0 12.72-8.64c7.41 0 17.66-7.29 17.66-7.29l-.12-1c-4.82.13-17.17 4.57-17.17 4.57 3.7-5.8 14.94-5.68 14.94-5.68l2.23-.37a24 24 0 0 0-21.12 2.72c-12.36 1.85-15.69 8.15-15.69 8.15l-2.79 5.1z" id="path274" style="fill:#07364f"/><rect class="cls-7" x="176.476" y="48.93" width="12.41" height="7.23" rx="3.61" id="rect276" style="fill:#07364f"/><path class="cls-7" d="M154.626 64.53s-11.24-2.47-16.55-8.16c0 0-7.66-7.28 3.21-13.83 0 0 1.11 5.93 6.55 7.53 0 0 8.27 5.81 18.15 6.3" id="path278" style="fill:#07364f"/><path class="cls-7" d="M152.896 65.64s-11.36-.25-23-10.13c0 0-3-1.73-3.71 3.09v1.11s5.68 4.32 10.87 5.8v1.61l9.14.86 4.32 1.24" id="path280" style="fill:#07364f"/><path class="cls-7" d="M127.826 55.9s-6.3-6.42-8.9-9.39c0 0 .62 11.74 7.29 12.11" id="path282" style="fill:#07364f"/><path class="cls-7" d="m126.836 68.6-1.24 4.57 10.38.62 9.26 1.36 15.57 1.85-4.2-4.57a43.56 43.56 0 0 0-13 .25s-4.3-5.93-16.77-4.08z" id="path284" style="fill:#07364f"/><path class="cls-7" d="M127.086 70.46s-3.59-4.08-12.6-6.3c0 0 3 7.53 11.11 9" id="path286" style="fill:#07364f"/><path class="cls-7" d="m167.476 81.32-21.13.87s-4.32 8.89-10.25 10.25l-2.47 10.87s-3.83-8.89-.37-13.71l6.55-5.43s-.62-4.08 7.16-5.07l15.77-1.11" id="path288" style="fill:#07364f"/><path class="cls-7" d="M133.256 89.6s3.09-.25 2.84 2.84" id="path290" style="fill:#07364f"/><path class="cls-7" d="m181.426 82.81-2 3-10.26 1.73s-5.06 4.32-9.38 2.72c0 0 2.59 7.78-2.6 13.34 0 0 3.46 9.63-1.85 11.24 0 0-9.26 0-4.94-14.21 0 0-.37-5.43 4.2-6.79 0 0-3.09-6.79 4.2-8.89 0 0 1.36-2.6 8-.25l3.7-3.34" id="path292" style="fill:#07364f"/><path class="cls-7" d="M211.396 64.53s11.24-2.47 16.55-8.16c0 0 7.66-7.28-3.21-13.83 0 0-1.12 5.93-6.55 7.53 0 0-8.28 5.81-18.16 6.3" id="path294" style="fill:#07364f"/><path class="cls-7" d="M213.126 65.64s11.36-.25 23-10.13c0 0 3-1.73 3.71 3.09v1.11s-5.69 4.32-10.87 5.8v1.61l-9.14.86-4.33 1.24" id="path296" style="fill:#07364f"/><path class="cls-7" d="M238.196 55.9s6.3-6.42 8.89-9.39c0 0-.61 11.74-7.28 12.11" id="path298" style="fill:#07364f"/><path class="cls-7" d="m239.186 68.6 1.23 4.57-10.37.62-9.31 1.36-15.56 1.85 4.2-4.57a43.56 43.56 0 0 1 13 .25s4.36-5.93 16.81-4.08z" id="path300" style="fill:#07364f"/><path class="cls-7" d="M238.936 70.46s3.58-4.08 12.6-6.3c0 0-3 7.53-11.12 9" id="path302" style="fill:#07364f"/><path class="cls-7" d="m198.546 81.32 21.12.87s4.32 8.89 10.25 10.25l2.47 10.87s3.83-8.89.37-13.71l-6.54-5.43s.62-4.08-7.17-5.07l-15.81-1.11" id="path304" style="fill:#07364f"/><path class="cls-7" d="M232.736 89.6s-3.08-.25-2.84 2.84" id="path306" style="fill:#07364f"/><path class="cls-7" d="m184.586 82.81 2 3 10.25 1.73s5.07 4.32 9.39 2.72c0 0-2.6 7.78 2.59 13.34 0 0-3.46 9.63 1.85 11.24 0 0 9.27 0 4.95-14.21 0 0 .37-5.43-4.2-6.79 0 0 3.08-6.79-4.2-8.89 0 0-1.36-2.6-8-.25l-3.71-3.34" id="path308" style="fill:#07364f"/><path class="cls-7" d="M183.006 52.72c-23.64-.75-32.46 16.5-32.46 16.5 9.64 10.56 26.31 14.64 26.31 14.64l6.15-.53 6.15.53s16.68-4.08 26.31-14.64c0 0-8.81-17.25-32.46-16.5z" id="path310" style="fill:#07364f"/><path class="cls-7" d="M150.426 100.59s2.34-1.08 2.89 1.15c.55 2.23 1.32 2.71 3.9 1.82" id="path312" style="fill:#07364f"/><path class="cls-7" d="M215.586 100.59s-2.34-1.08-2.9 1.15-1.31 2.71-3.9 1.82" id="path314" style="fill:#07364f"/><path class="cls-7" d="M176.276 54a9.89 9.89 0 0 1-6.37-9.12h1.29a8.45 8.45 0 0 0 5.48 7.92z" id="path316" style="fill:#07364f"/><path class="cls-7" d="m189.296 54-.4-1.24a8.43 8.43 0 0 0 5.48-7.92h1.3a9.91 9.91 0 0 1-6.38 9.16z" id="path318" style="fill:#07364f"/><path class="cls-12" d="M204.416 63.32a28.93 28.93 0 0 0-18.93-6.42h-2.57a28.93 28.93 0 0 0-18.93 6.43 26.18 26.18 0 0 0-4.74 5.1c6 5.77 14.68 8.93 18.41 10.09.15-3.75 2.29-18.33 26.76-15.2z" id="path320" style="fill:#1e546d"/><path class="cls-12" d="M204.316 58.57s10.19-2.22 15.75-7a33.91 33.91 0 0 1-12.42 9.45" id="path322" style="fill:#1e546d"/><path class="cls-12" d="M208.386 40.78s4.63 5.56 10.75 7.23l2-1.11s-2.74-6.67-12.75-6.12z" id="path324" style="fill:#1e546d"/><path class="cls-12" d="M158.366 59.68s-12.23-.37-17.6-11.49l-.74-2-1.67 3.7s-.74 7.23 17.23 12" id="path326" style="fill:#1e546d"/><path class="cls-12" d="M143.926 44.31s.69 2.06 2.06 2.4c0 0 8.58-1.54 12-6.52 0 0-.35-2.74-1.55-2.74-1.2 0-7.36.34-12.51 6.86z" id="path328" style="fill:#1e546d"/><path class="cls-12" d="M211.356 111.74a5.34 5.34 0 0 1 0-7 5.74 5.74 0 0 0-2.35-7s4.82-.49 5.06 4.94c0-.08 1.86 9.06-2.71 9.06z" id="path330" style="fill:#1e546d"/><path class="cls-12" d="M154.796 111.74a5.34 5.34 0 0 0 0-7 5.74 5.74 0 0 1 2.35-7s-4.82-.49-5.06 4.94c0-.08-1.86 9.06 2.71 9.06z" id="path332" style="fill:#1e546d"/><path class="cls-7" d="M332.296 249.26c4.77-8.76 5.15-19.3 1.05-29.67-6.22-15.77-20-20.84-28.06-23.23l-4.67-25.34-37.75-2.32-3.91 12.26q-.57 1.79-1.14 3.42a33.18 33.18 0 0 0-9.88-8.75 32.14 32.14 0 0 0-9.91-3.66l2.35-35.64-49.4-.23-.19 41.8-16.5.94c-1.85-.27-3-.35-3.74-.39h-1.26c.56-18.52-6.34-35.07-19.24-45.86a54.08 54.08 0 0 0-32.43-12.29 65.55 65.55 0 0 0-7.41.09c-9.69.69-19.26 3.48-30.11 8.76a106.88 106.88 0 0 0-26.79 18c-8.34 7.8-14.46 16.47-18.86 23.15-20.41 31-30.88 62.33-31.11 93.07-.16 22.91 6.26 41.16 19.09 54.24a58.68 58.68 0 0 0 39.2 17.41 62 62 0 0 0 6.68 0l213.8-34.12s25.12-3.89 35.38-22.11l14.81-29.5" id="path334" style="fill:#07364f"/><path class="cls-6" d="M64.536 338.51c-1 0-2.05 0-3.07-.07a62.08 62.08 0 0 1-41.46-18.42c-13.48-13.74-20.23-32.8-20-56.64.23-31.4 10.88-63.33 31.67-94.9 4.5-6.84 10.77-15.72 19.37-23.77a110.51 110.51 0 0 1 27.62-18.6c11.25-5.48 21.22-8.37 31.35-9.1a68.09 68.09 0 0 1 7.82-.09 57.36 57.36 0 0 1 34.43 13.07c12.81 10.72 20.17 27.08 20.48 45.26l1.73.22 13-.74.18-38.64a3.38 3.38 0 0 1 3.38-3.37l49.4.22a3.39 3.39 0 0 1 3.36 3.61l-2.16 32.79a34.69 34.69 0 0 1 8 3.36 35.45 35.45 0 0 1 6.8 5.06l3.21-10.09a3.43 3.43 0 0 1 3.43-2.35l37.76 2.32a3.39 3.39 0 0 1 3.12 2.77l4.3 23.32c9.66 3.12 22.17 9.2 28.25 24.62 4.46 11.3 4 22.83-1.2 32.48l-14.79 29.45c0 .05 0 .09-.07.14-10.95 19.48-36.71 23.63-37.82 23.8l-213.79 34.13h-.32c-1.31.12-2.65.16-3.98.16zm50.13-214.89c-1.4 0-2.81 0-4.22.15-9.24.66-18.41 3.34-28.87 8.43a103.49 103.49 0 0 0-26 17.46c-8.09 7.56-14 16-18.35 22.54-20 30.47-30.28 61.16-30.49 91.23-.16 22 5.93 39.43 18.11 51.85a55.3 55.3 0 0 0 37 16.39 56.94 56.94 0 0 0 6.13 0l213.64-34.11c.25 0 23.6-3.88 32.93-20.36l14.77-29.43.06-.1c4.28-7.87 4.59-17.39.87-26.8-5.36-13.6-16.65-18.49-25.88-21.23a3.39 3.39 0 0 1-2.36-2.64l-4.27-22.76-32.48-2-3.11 9.74c-.39 1.23-.78 2.4-1.17 3.52a3.38 3.38 0 0 1-5.89.92 29.57 29.57 0 0 0-8.87-7.86 28.63 28.63 0 0 0-8.86-3.27 3.36 3.36 0 0 1-2.73-3.54l2.11-32.06-42.42-.19-.14 38.4a3.39 3.39 0 0 1-3.19 3.37l-16.51.94a4 4 0 0 1-.69 0c-1.71-.25-2.76-.33-3.4-.36h-1.1a3.46 3.46 0 0 1-2.43-1 3.42 3.42 0 0 1-1-2.46c.52-17.41-6-33.14-18-43.16a50.67 50.67 0 0 0-30.42-11.5c-.9-.09-1.83-.11-2.77-.11zm202.82 155.14z" id="path336" style="fill:#89bfd3"/><path class="cls-7" d="M330.276 220.8c-6-15.13-19.35-19.4-27.87-21.83l-4.57-24.81-32.61-2-3.12 9.8c-1.17 3.66-2.37 6.91-3.63 9.84a30.56 30.56 0 0 0-12.18-13.31 29.22 29.22 0 0 0-11.76-3.69l2.32-35.19-42.59-.19-.19 41.63-19.95 1.13a36.49 36.49 0 0 0-3.74-.4 20.83 20.83 0 0 0-2.11 0c-.84 0-1.67.12-2.5.23 1.58-18.78-4.94-36.08-17.85-46.89a50.8 50.8 0 0 0-30.47-11.52 58.84 58.84 0 0 0-7 .09c-9.25.66-18.43 3.34-28.9 8.43a103.85 103.85 0 0 0-26 17.48c-8.09 7.56-14.06 16-18.36 22.56-20.06 30.47-30.34 61.18-30.56 91.27-.16 22 5.94 39.47 18.14 51.9a55.37 55.37 0 0 0 37 16.43 54.62 54.62 0 0 0 20.64-2.94 75.34 75.34 0 0 0 26.56-13.92 70.1 70.1 0 0 0 14.82-16.62l102.34-21.3 49.6-6.77c11.45-1.06 25.64-2.42 38.78-9 2.55-1.27 10.3-5.16 14.84-13.5 4.38-7.92 4.65-17.47.92-26.91z" id="path338" style="fill:#07364f"/><path class="cls-10" d="M139.526 143.61c-7.38-6.18-17.35-9.16-28.07-8.39-7.51.53-15.15 2.8-24.06 7.13a91 91 0 0 0-22.73 15.25c-7.07 6.61-12.45 14.25-16.34 20.17-18.59 28.31-28.19 56.61-28.39 84.13-.14 18.39 4.69 32.7 14.36 42.55a42.51 42.51 0 0 0 28.21 12.45 41.75 41.75 0 0 0 16-2.35 62.11 62.11 0 0 0 22.23-11.56 56.31 56.31 0 0 0 20.51-37.54l-26.09 3.52c-5.35 16.58-20.64 21.07-23 21.68l-.7.14-.91.35a18 18 0 0 1-18.5-4.06c-6.11-6.23-7.33-17-7.27-25 .16-22.32 8.57-46.76 24.31-70.67 3.14-4.77 7.41-10.87 12.57-15.7a67 67 0 0 1 16.65-11.06c6-2.91 10.73-4.4 15-4.7 4.27-.3 8 .7 10.41 2.68 3.55 3 5.18 9.39 4.17 16.36l24.51 3.57c2.22-15.78-2.56-30.33-12.87-38.95z" id="path340" style="fill:#fff"/><path class="cls-5" d="M64.606 318.2h-2.16a44.07 44.07 0 0 1-29-12.85c-9.94-10.14-14.89-24.75-14.71-43.45.2-27.74 9.82-56.26 28.59-84.78 3.94-6 9.37-13.69 16.54-20.4a92.22 92.22 0 0 1 23-15.45c9-4.41 16.84-6.71 24.52-7.26 11-.79 21.32 2.29 29 8.68 10.63 8.89 15.58 23.87 13.22 40.06a1.25 1.25 0 0 1-1.41 1.05l-24.51-3.57a1.19 1.19 0 0 1-.81-.49 1.21 1.21 0 0 1-.24-.92c1-6.55-.51-12.53-3.74-15.23-2.12-1.78-5.68-2.67-9.53-2.4-4.09.29-8.7 1.75-14.52 4.58a65.56 65.56 0 0 0-16.41 10.83c-5.06 4.73-9.28 10.76-12.39 15.47-15.6 23.72-23.94 47.92-24.1 70-.06 7.74 1.09 18.21 6.91 24.14a16.74 16.74 0 0 0 17.18 3.77l.91-.35.19-.05.7-.15c1.66-.42 16.9-4.69 22.11-20.84a1.26 1.26 0 0 1 1-.85l26.09-3.51a1.24 1.24 0 0 1 1 .34 1.29 1.29 0 0 1 .36 1 57.7 57.7 0 0 1-21 38.34 62.82 62.82 0 0 1-22.56 11.79 42.27 42.27 0 0 1-14.23 2.5zm50.13-181.86c-1.05 0-2.12 0-3.19.11-7.35.53-14.85 2.75-23.6 7a89.56 89.56 0 0 0-22.43 15c-7 6.53-12.3 14.09-16.16 19.95-18.5 28.11-28 56.18-28.18 83.44-.14 18.05 4.58 32.07 14 41.67a41.5 41.5 0 0 0 27.39 12.11 39.84 39.84 0 0 0 15.57-2.28h.1a61.06 61.06 0 0 0 21.69-11.33 55.15 55.15 0 0 0 19.81-35.11l-23.71 3.2c-5.71 16.44-20.69 21-23.67 21.75l-.65.13-.82.31a19.31 19.31 0 0 1-19.83-4.34c-6.41-6.53-7.68-17.69-7.62-25.9.17-22.56 8.64-47.23 24.52-71.34 3.18-4.83 7.5-11 12.76-15.92a68 68 0 0 1 17-11.28c6.12-3 11-4.51 15.44-4.82 4.44-.31 8.69.79 11.29 3 3.66 3.05 5.47 9.35 4.76 16.26l22.07 3.21c1.82-14.85-2.82-28.46-12.52-36.57-6.42-5.39-14.85-8.25-24.02-8.25z" id="path342" style="fill:#7a1319"/><path class="cls-10" d="M318.066 224.01c-3.79-9.62-12.46-12.08-20.11-14.25l-1.08-.3a33.46 33.46 0 0 0-5.79-1.12l-4.29-23.28-12-.73c-3.67 11.51-8.46 22.23-16.94 30.84-2 2-4.37 4.19-6.88 4.9-1.62.46-3.54.07-4.11-.83l-.26-.4c.37-1.24.67-2.39.92-3.42a34.75 34.75 0 0 0 1-13.76 18.63 18.63 0 0 0-8.7-13.37c-5.76-3.32-13.53-2.58-19.51 1.59l2.56-38.77-15.33-.07-.31 69c-.26 1.46-.56 2.88-.92 4.27l-9.58 7.89a14.54 14.54 0 0 1-1.21.94 2.2 2.2 0 0 1-.93-.69 12 12 0 0 1-1.63-4.79 66.62 66.62 0 0 1-.23-18.56c1.24-5.47 2.15-10.89 2.9-15.91l-10.49-2.17c-.47 1.75-.91 3.63-1.32 5.62a7.1 7.1 0 0 0-2.62-1.22c-9.5-2.21-11.43-2.13-12.25-2.09-6.78.29-13.33 5.06-16.68 12.16-2.61 5.52-3.15 11.41-3.51 17.47a39.11 39.11 0 0 0 .43 10.11 44.42 44.42 0 0 0-5 3.59c-1.07.86-2.08 1.67-3.08 2.33-2 1.32-4.21 1.89-5.16 1.32-1.14-.69-1.64-3.49-1.26-7.14a68.35 68.35 0 0 1 7.71-25.27l-7.81-6.93-10.33 7.26a60.34 60.34 0 0 1-5.79 3.71 14.18 14.18 0 0 0-3.48-5.13 11.88 11.88 0 0 0-10.92-2.65 9.4 9.4 0 0 0-6.8 6.29 9.67 9.67 0 0 0 .76 7.48 13.31 13.31 0 0 0 7.85 6.28 17.29 17.29 0 0 0 3.54.69 43.65 43.65 0 0 1-2.39 14.09c-.93 2.56-2 4.18-3.1 4.83-2 1.13-5.55.2-8.76-.76l-4.63-3.25-3.58 12 5.15 1.53a35.39 35.39 0 0 0 8.44 1.71 15.68 15.68 0 0 0 8.73-1.93c3.44-2 6-5.41 7.84-10.49a55.43 55.43 0 0 0 3-19.61 40.41 40.41 0 0 0 6-3.17 78.32 78.32 0 0 0-2.24 12.18c-1.09 10.59 2.89 15.33 6.42 17.44 4.67 2.81 10.88 2.22 16.6-1.57 1.4-.93 2.65-1.92 3.86-2.89a40.94 40.94 0 0 1 3.34-2.48c3.74 3.43 8.64 4.41 12.5 4.88.41.05 1 .12 1.59.15a10.93 10.93 0 0 0 4.14-.53 12.27 12.27 0 0 0 5.22-3.89 52 52 0 0 0 6-8.73 16.67 16.67 0 0 0 2.46 4.57c3.12 4 8.18 5.8 12.58 4.4a14.59 14.59 0 0 0 4.91-3l7.25-6c3.53 1.9 8 4.06 13 4.3a18.81 18.81 0 0 0 2.12 0c5.79-.38 11.37-3.61 15.32-8.85.23-.3.44-.6.65-.9a15.27 15.27 0 0 0 12 1.44 21.8 21.8 0 0 0 7.43-3.91c2.23 4.91 7.55 7.47 15.86 7.6 2.67.05 7.14.12 10.77-2.63 4.19-3.18 5-8 4.88-12 .37.08.75.18 1.12.29l1.1.31c7.37 2.09 11.29 3.39 13.06 7.86 1 2.65 1.18 5.12.36 6.63-.82 1.51-3 2.78-4.55 3.56-9.22 4.63-20.12 5.64-30.65 6.62l-50.57 6.89-86.72 11.83a111 111 0 0 1-4.31 18l92.33-19.19 50.38-6.88c11-1 23.36-2.18 34.36-7.7 2.83-1.42 6.86-3.8 9.16-8 2.41-4.33 2.48-9.91.21-15.64zm-138.9-8.11a40.73 40.73 0 0 1-3.71 11 44.15 44.15 0 0 1-6 9.29c-.31.36-.51.57-.63.69l-.87-.08c-2.28-.28-5.08-.78-6.57-2.16-2.2-2.06-2.25-6.52-2-11 .3-5.16.7-9.73 2.49-13.52 1.37-2.9 4.2-5.89 7.36-6 .27 0 4.53.88 10.34 2.2 1.16.16-.25 8.58-.41 9.58zm57.9-3c-1.13 4.68-2.53 8-4.4 10.5-2 2.7-4.83 4.43-7.46 4.6-2.29.15-4.71-.72-7.44-2.08h.13l.52-7.9v-.12c.33-2.06.65-4 1.05-5.92 1.22-5.75 3.09-9.78 5.74-12.32 2.35-2.26 6.44-3.66 9.19-2.07a8.27 8.27 0 0 1 3.47 5.82c.55 3.21-.13 6.76-.8 9.49zm42.34-8.7.86 4.66a39 39 0 0 0-4.46 1.17q1.93-2.85 3.6-5.83zm2 18.71c-.67.51-3 .47-4.11.45a20.42 20.42 0 0 1-4.17-.42c.46-.22.93-.45 1.42-.72a27.25 27.25 0 0 1 7.46-2.77c.19 2.7-.41 3.34-.57 3.45z" id="path344" style="fill:#fff"/><path class="cls-5" d="M131.646 282.74a1.25 1.25 0 0 1-.93-.42 1.23 1.23 0 0 1-.24-1.22 110.61 110.61 0 0 0 4.26-17.82 1.24 1.24 0 0 1 1.06-1l137.29-18.72c10.48-1 21.25-2 30.26-6.5.81-.41 3.25-1.63 4-3 .64-1.17.47-3.31-.42-5.58-1.56-3.94-5.07-5.09-12.25-7.13l-.65-.18c-.19 5-2 8.78-5.36 11.34-4 3-8.71 2.94-11.54 2.89-8-.13-13.51-2.48-16.26-7a21.88 21.88 0 0 1-6.67 3.25 16.63 16.63 0 0 1-12-1c-4.17 5.53-10.08 8.94-16.23 9.35a21.28 21.28 0 0 1-2.26 0c-4.74-.23-8.92-2-12.75-4.06l-6.61 5.5a15.56 15.56 0 0 1-5.33 3.19c-4.89 1.55-10.49-.38-13.93-4.82a16.71 16.71 0 0 1-1.64-2.59 52.35 52.35 0 0 1-4.89 6.8 13.38 13.38 0 0 1-5.75 4.25 12.2 12.2 0 0 1-4.61.6c-.67 0-1.24-.1-1.68-.16-3.79-.46-8.56-1.4-12.44-4.56-.82.58-1.66 1.25-2.48 1.9-1.24 1-2.5 2-3.95 3-6.13 4.05-12.83 4.65-17.92 1.6-3.84-2.3-8.17-7.4-7-18.63a78.22 78.22 0 0 1 1.57-9.51c-1 .54-2 1-2.91 1.43a56.48 56.48 0 0 1-3.11 19.22c-1.94 5.37-4.69 9-8.4 11.14a16.89 16.89 0 0 1-9.4 2.1 36.82 36.82 0 0 1-8.73-1.76l-5.15-1.53a1.24 1.24 0 0 1-.84-1.54l3.58-12a1.21 1.21 0 0 1 .78-.81 1.27 1.27 0 0 1 1.12.15l4.46 3.14c2.06.62 6 1.74 7.6.82.49-.28 1.47-1.2 2.55-4.18a41.91 41.91 0 0 0 2.29-12.58 18.18 18.18 0 0 1-2.63-.59 14.57 14.57 0 0 1-8.58-6.89 10.93 10.93 0 0 1-.86-8.43 10.63 10.63 0 0 1 7.67-7.12 13.13 13.13 0 0 1 12.09 3 15.29 15.29 0 0 1 3.19 4.28c1.6-.94 3.16-2 4.52-3l10.33-7.27a1.23 1.23 0 0 1 1.53.09l7.82 6.94a1.22 1.22 0 0 1 .26 1.51 67.12 67.12 0 0 0-7.61 24.78c-.41 4 .34 5.75.67 6s1.89 0 3.83-1.29c1-.64 1.95-1.43 3-2.26a48.41 48.41 0 0 1 4.4-3.24 42 42 0 0 1-.3-9.58c.37-6.18.93-12.2 3.63-17.91 3.55-7.52 10.51-12.57 17.75-12.88.94 0 2.91-.13 12.58 2.13a8.39 8.39 0 0 1 1.49.49c.3-1.38.63-2.72 1-4a1.24 1.24 0 0 1 1.45-.9l10.49 2.16a1.24 1.24 0 0 1 1 1.4c-.92 6.15-1.84 11.21-2.91 15.93a65.13 65.13 0 0 0 .26 18.14 11.64 11.64 0 0 0 1.33 4.16l.39-.32 9.27-7.71c.28-1.11.53-2.32.78-3.69l.32-68.84a1.23 1.23 0 0 1 1.23-1.24l15.32.07a1.25 1.25 0 0 1 1.24 1.32l-2.4 36.38c6.06-3.27 13.32-3.47 18.73-.35a19.85 19.85 0 0 1 9.3 14.24 36 36 0 0 1-1 14.25c-.25 1-.51 2-.78 2.92a3.49 3.49 0 0 0 2.68.25c2.23-.63 4.46-2.67 6.34-4.58 9.13-9.27 13.69-21.09 16.64-30.35a1.24 1.24 0 0 1 1.26-.86l12 .74a1.24 1.24 0 0 1 1.14 1l4.12 22.38a33.42 33.42 0 0 1 5.08 1.05l1.08.3c7.92 2.25 16.9 4.8 20.93 15 2.4 6.08 2.3 12-.27 16.76-2.46 4.51-6.71 7-9.69 8.53-11.24 5.64-23.75 6.8-34.8 7.83l-50.32 6.86-92.25 19.18a1.07 1.07 0 0 1-.23-.14zm5.38-18.16a115.09 115.09 0 0 1-3.54 15.32l90.25-18.81 50.46-6.88c10.88-1 23.15-2.15 34-7.59 2.68-1.35 6.5-3.59 8.63-7.5 2.21-4.06 2.26-9.27.13-14.66-3.57-9-11.93-11.41-19.3-13.51l-1.08-.3a32.57 32.57 0 0 0-5.58-1.08 1.24 1.24 0 0 1-1.09-1l-4.17-22.33-10.1-.62c-3.05 9.38-7.75 21.08-16.95 30.42-2.1 2.14-4.64 4.43-7.43 5.22-1.92.55-4.5.19-5.48-1.35l-.26-.4a1.25 1.25 0 0 1-.15-1c.32-1.06.62-2.15.91-3.35a33.54 33.54 0 0 0 1-13.27 17.4 17.4 0 0 0-8.1-12.5c-5.23-3-12.54-2.4-18.18 1.54a1.24 1.24 0 0 1-1.94-1.1l2.47-37.46-12.79-.08-.31 67.71a1.5 1.5 0 0 1 0 .22c-.3 1.63-.6 3.05-.94 4.36a1.23 1.23 0 0 1-.41.64l-9.54 7.94a13 13 0 0 1-1.38 1.05 1.22 1.22 0 0 1-1 .11 3.3 3.3 0 0 1-1.54-1.11 13 13 0 0 1-1.88-5.31 68 68 0 0 1-.28-18.92v-.15c1-4.37 1.86-9.06 2.71-14.66l-8.19-1.68c-.35 1.41-.69 2.89-1 4.41a1.23 1.23 0 0 1-.77.91 1.27 1.27 0 0 1-1.19-.17 5.59 5.59 0 0 0-2.15-1c-9.34-2.18-11.21-2.09-11.91-2.07-6.33.28-12.46 4.77-15.62 11.46-2.51 5.32-3 11.08-3.39 17a37.86 37.86 0 0 0 .4 9.79 1.22 1.22 0 0 1-.58 1.31 44.53 44.53 0 0 0-4.86 3.5c-1.08.87-2.11 1.7-3.17 2.39-2.06 1.37-4.87 2.31-6.48 1.35-2.3-1.38-2.07-6.28-1.86-8.33a69.93 69.93 0 0 1 7.44-24.83l-6.35-5.64-9.52 6.71a64.29 64.29 0 0 1-5.92 3.78 1.23 1.23 0 0 1-1 .08 1.29 1.29 0 0 1-.73-.7 12.93 12.93 0 0 0-3.17-4.69 10.64 10.64 0 0 0-9.77-2.37 8.22 8.22 0 0 0-5.93 5.47 8.46 8.46 0 0 0 .67 6.53 12.14 12.14 0 0 0 7.11 5.68 17 17 0 0 0 3.3.64 1.24 1.24 0 0 1 1.13 1.26 45.19 45.19 0 0 1-2.47 14.48c-1 2.88-2.23 4.68-3.64 5.49-2.39 1.36-6.12.43-9.74-.65a1.31 1.31 0 0 1-.36-.17l-3.22-2.27-2.73 9.18 4 1.18a34.9 34.9 0 0 0 8.15 1.65 14.34 14.34 0 0 0 8.05-1.76c3.18-1.83 5.57-5.05 7.3-9.84a54.37 54.37 0 0 0 3-19.18 1.26 1.26 0 0 1 .74-1.17 40.22 40.22 0 0 0 5.87-3.07 1.24 1.24 0 0 1 1.39.05 1.25 1.25 0 0 1 .46 1.32 76.76 76.76 0 0 0-2.21 12c-1 9.94 2.61 14.32 5.82 16.25 4.26 2.55 10 2 15.29-1.54 1.35-.89 2.57-1.87 3.75-2.81a40.41 40.41 0 0 1 3.47-2.58 1.25 1.25 0 0 1 1.5.13c3.49 3.2 8.14 4.13 11.81 4.57.39.05.9.11 1.5.14a9.62 9.62 0 0 0 3.68-.46 11.18 11.18 0 0 0 4.68-3.52 52 52 0 0 0 5.85-8.53 1.24 1.24 0 0 1 2.25.18 15.11 15.11 0 0 0 2.27 4.23c2.81 3.62 7.31 5.22 11.22 4a13.49 13.49 0 0 0 4.5-2.73l7.25-6a1.24 1.24 0 0 1 1.38-.13c3.77 2 7.88 3.93 12.43 4.15a16.34 16.34 0 0 0 2 0c5.42-.36 10.68-3.41 14.41-8.37.22-.28.42-.57.62-.86a1.24 1.24 0 0 1 1.66-.35 14 14 0 0 0 11 1.31 20.54 20.54 0 0 0 7-3.7 1.25 1.25 0 0 1 1.06-.22 1.22 1.22 0 0 1 .83.69c2 4.44 7 6.75 14.75 6.88 2.51 0 6.71.1 10-2.39 3.07-2.32 4.54-6 4.39-10.94a1.24 1.24 0 0 1 1.51-1.25c.4.09.8.19 1.19.31l1.1.31c7.54 2.14 11.9 3.59 13.87 8.6 1.2 3 1.3 5.82.3 7.67-1 1.85-3.25 3.15-5.09 4.07-9.43 4.74-20.44 5.76-31.09 6.75zm31.84-26.46h-.13l-.92-.09c-2.46-.3-5.51-.86-7.26-2.49-2.58-2.41-2.67-7.2-2.38-12 .32-5.28.73-10 2.61-14 1.53-3.24 4.73-6.57 8.43-6.73h.17c.49 0 5.95 1.19 10.53 2.23 1 .23 2.2.49.44 11a41.39 41.39 0 0 1-3.82 11.35 45 45 0 0 1-6.13 9.56c-.35.41-.58.64-.72.78a1.24 1.24 0 0 1-.82.39zm.4-32.82c-2.62.16-5.05 2.85-6.2 5.31-1.7 3.59-2.09 8-2.39 13.06-.24 4-.24 8.35 1.6 10.06 1.24 1.16 3.94 1.6 5.87 1.84h.23l.18-.2a42.79 42.79 0 0 0 5.79-9 39.17 39.17 0 0 0 3.6-10.67 49 49 0 0 0 .85-8.35c-5.33-1.22-8.94-1.96-9.53-2.05zm9.9 10.59zm45.57 13.37a17.54 17.54 0 0 1-7.48-2.23 1.22 1.22 0 0 1-.65-1.39 1.4 1.4 0 0 1 .13-.34l.48-7.36v-.12l1.24.08-1.22-.2c.33-2.08.65-4 1.06-6 1.27-6 3.26-10.25 6.09-13 2.65-2.54 7.29-4.19 10.67-2.24 2 1.16 3.58 3.73 4.07 6.69.57 3.43-.15 7.14-.84 10-1.17 4.85-2.63 8.33-4.61 10.95-2.26 3-5.38 4.9-8.37 5.1zm-5.51-4a12.42 12.42 0 0 0 5.93 1.54 9.6 9.6 0 0 0 6.56-4.12c1.77-2.34 3.1-5.53 4.18-10a23.7 23.7 0 0 0 .81-9 7.13 7.13 0 0 0-2.86-4.94c-2.23-1.28-5.74 0-7.73 1.88-2.46 2.36-4.22 6.19-5.38 11.69-.39 1.88-.71 3.81-1 5.85zm59-.62h-.84a22.25 22.25 0 0 1-4.43-.45 1.25 1.25 0 0 1-.95-1.08 1.23 1.23 0 0 1 .7-1.25c.44-.21.89-.43 1.36-.69a28.83 28.83 0 0 1 7.79-2.9 1.26 1.26 0 0 1 1 .23 1.22 1.22 0 0 1 .48.91c.14 2.35-.22 3.87-1.08 4.52-.86.65-2.14.68-4.11.68zm-.53-2.48a11.67 11.67 0 0 0 3-.19 3.25 3.25 0 0 0 .18-.92 26 26 0 0 0-3.26 1.08zm3-.1zm.04-.16zm-4.92-10.62a1.24 1.24 0 0 1-1-1.93c1.25-1.86 2.45-3.8 3.55-5.75a1.22 1.22 0 0 1 1.28-.61 1.24 1.24 0 0 1 1 1l.85 4.65a1.23 1.23 0 0 1-1 1.44 36 36 0 0 0-4.31 1.14 1.32 1.32 0 0 1-.38.05zm3-3.58-.16.26.2-.05z" id="path346" style="fill:#7a1319"/><path class="cls-3" d="m130.966 292.9 3.64-.65 2.52 5.49 3.4-6.56 3.64-.65-1.15 15.57-3.43.61.67-8.94-3.63 6.67h-.07l-2.71-5.54-.66 8.9-3.37.6z" id="path348" style="fill:#3a7a91"/><path class="cls-3" d="m159.526 287.61 3.32-.6 4.13 14.74-3.69.66-.7-2.62-4.79.87-1.06 2.94-3.62.65zm2.31 9-1-4.17-1.73 4.67z" id="path350" style="fill:#3a7a91"/><path class="cls-3" d="m178.196 284.36 5.87-1.05c1.9-.34 3.16 0 3.92 1a4.57 4.57 0 0 1 .83 3.43 6.78 6.78 0 0 1-2.91 5.25l2.56 4.89-4 .72-2.16-4.27-1.47.26-.35 4.72-3.44.62zm5.16 6.45a2.3 2.3 0 0 0 2-2.18c.09-1.23-.57-1.72-1.72-1.51l-2.26.4-.27 3.74z" id="path352" style="fill:#3a7a91"/><path class="cls-3" d="m202.226 289.65-4-8.89 3.92-.71 2.13 5.22 3-6.14 3.85-.69-5.39 10.53-.44 5.89-3.46.62z" id="path354" style="fill:#3a7a91"/><path class="cls-3" d="m221.056 276.65 3.44-.62-.87 11.79 6-1.08-.28 3.78-9.45 1.71z" id="path356" style="fill:#3a7a91"/><path class="cls-3" d="m245.146 272.21 3.32-.6 4.12 14.73-3.69.67-.69-2.62-4.79.86-1.1 2.94-3.61.65zm2.31 9-1.05-4.18-1.73 4.68z" id="path358" style="fill:#3a7a91"/><path class="cls-3" d="m263.816 268.96 3.21-.58 4.5 7.31.61-8.23 3.4-.61-1.15 15.57-3 .55-4.65-7.59-.63 8.54-3.41.61z" id="path360" style="fill:#3a7a91"/><path class="cls-3" d="m286.606 264.9 4.78-.86c4.44-.8 6.77 1.94 6.44 6.44-.34 4.49-3.19 8.3-7.66 9.1l-4.72.85zm4 10.88a4.62 4.62 0 0 0 3.71-4.56c.19-2.49-1.07-3.69-3.13-3.32l-1.4.25-.58 7.92z" id="path362" style="fill:#3a7a91"/></svg>