<svg xmlns="http://www.w3.org/2000/svg" id="Layer_1" data-name="Layer 1" version="1.1" width="339.593" height="414.4"><defs id="defs7"><clipPath id="clip-path"><path id="polygon4" style="fill:none" d="M387.69 532.55V285.11H125.8V532.5l133.06 97.71z"/></clipPath><style id="style2">.cls-14{fill:none}.cls-3{fill:#3a7a91}.cls-4{fill:#f15d24}.cls-5{fill:#7a1319}.cls-6{fill:#89bfd3}.cls-7{fill:#07364f}.cls-8{fill:#fdc30f}.cls-10,.cls-16{fill:#fff}.cls-11{fill:#e62325}.cls-12{fill:#1e546d}.cls-14{stroke:#07364f}.cls-16{stroke-linecap:round;stroke-linejoin:round}.cls-14{stroke-miterlimit:10;stroke-width:1.3px}.cls-16{stroke:#7a1319;stroke-width:2.48px}</style></defs><g id="SlHar6" transform="translate(-73.212 -228.1)"><path class="cls-4" d="M150.51 369.93a31.64 31.64 0 0 1-3.84-2.66c-1.6-1.15-1.59-1.18-3.19 0-1.29.91-2.57 1.85-3.89 2.81-.17-.33 0-.57.08-.8.53-1.65 1.06-3.3 1.63-4.94a.88.88 0 0 0-.37-1.17c-1.48-1-2.92-2.13-4.38-3.2-.13-.1-.25-.22-.53-.47h2.33c1.32 0 2.65 0 4-.07a.7.7 0 0 0 .75-.59c.61-2 1.26-3.89 2-6 .55 1.66 1.07 3.13 1.52 4.62.61 2 .59 2.05 2.75 2.05h4.84l-2.44 1.79c-.89.66-1.76 1.33-2.66 2a.72.72 0 0 0-.3 1c.57 1.67 1.1 3.34 1.63 5 .07.23.11.47.16.71z" id="path29" style="fill:#f15d24"/><path class="cls-4" d="m150.53 369.91.06.08-.08-.06z" id="path31" style="fill:#f15d24"/></g><path class="cls-6" d="M251.178 19.19C232.888 6.81 208.788 0 183.438 0c-25.35 0-49.44 6.81-67.73 19.19-20 13.53-31 32.06-31 52.18 0 20.12 11 38.66 31 52.18 18.29 12.38 42.35 19.2 67.73 19.2 25.38 0 49.45-6.82 67.74-19.2 20-13.52 31-32 31-52.18s-11.02-38.65-31-52.18z" id="path152" style="fill:#89bfd3"/><path class="cls-6" d="M186.468 414.4h-1.55a5.73 5.73 0 0 1-3.39-1.11L43.468 311.9a5.71 5.71 0 0 1-2.33-4.61v-256a5.72 5.72 0 0 1 5.72-5.72h273.35a5.72 5.72 0 0 1 5.72 5.72v256a5.74 5.74 0 0 1-2.26 4.56l-133.74 101.39a5.76 5.76 0 0 1-3.46 1.16zm-133.88-110 133.06 97.71 128.83-97.66V57.01H52.588z" id="path154" style="fill:#89bfd3"/><path class="cls-7" id="polygon156" style="fill:#07364f" transform="translate(-73.212 -228.1)" d="M387.69 285.11H125.8V532.5l133.06 97.71 128.83-97.66z"/><g clip-path="url(#clip-path)" id="g262" transform="translate(-73.212 -228.1)" style="clip-path:url(#clip-path)"><path class="cls-10" id="rect158" style="fill:#fff" d="M135.79 573.86h31.12v31.12h-31.12z"/><path class="cls-5" id="rect160" style="fill:#7a1319" d="M166.91 573.86h31.12v31.12h-31.12z"/><path class="cls-11" id="rect162" style="fill:#e62325" d="M135.79 595.04h31.12v9.94h-31.12z"/><path class="cls-10" id="rect164" style="fill:#fff" d="M166.91 595.04h31.12v9.94h-31.12z"/><path class="cls-10" id="rect166" style="fill:#fff" d="M197.77 573.92h31.12v31.12h-31.12z"/><path class="cls-5" id="rect168" style="fill:#7a1319" d="M228.89 573.92h31.12v31.12h-31.12z"/><path class="cls-5" id="rect170" style="fill:#7a1319" d="M197.77 595.1h31.12v9.94h-31.12z"/><path class="cls-10" id="rect172" style="fill:#fff" d="M228.89 595.1h31.12v9.94h-31.12z"/><path class="cls-10" id="rect174" style="fill:#fff" d="M259.58 573.86h31.12v31.12h-31.12z"/><path class="cls-5" id="rect176" style="fill:#7a1319" d="M290.69 573.86h31.12v31.12h-31.12z"/><path class="cls-5" id="rect178" style="fill:#7a1319" d="M259.58 595.04h31.12v9.94h-31.12z"/><path class="cls-10" id="rect180" style="fill:#fff" d="M290.69 595.04h31.12v9.94h-31.12z"/><path class="cls-10" id="rect182" style="fill:#fff" d="M321.55 573.92h31.12v31.12h-31.12z"/><path class="cls-11" id="rect184" style="fill:#e62325" d="M352.67 573.92h31.12v31.12h-31.12z"/><path class="cls-11" id="rect186" style="fill:#e62325" d="M321.55 595.1h31.12v9.94h-31.12z"/><path class="cls-10" id="rect188" style="fill:#fff" d="M352.67 595.1h31.12v9.94h-31.12z"/><path class="cls-8" id="rect190" style="fill:#fdc30f" d="M167.43 543.36h31.12v31.12h-31.12z"/><path class="cls-8" id="rect192" style="fill:#fdc30f" d="M135.55 543.36h31.31v31.12h-31.31z"/><path class="cls-7" id="rect194" style="fill:#07364f" d="M151.78 543.36h15.07v31.12h-15.07z"/><path class="cls-7" id="polygon196" style="fill:#07364f" d="M151.79 562.18v-18.82h-16.24v5.45z"/><path class="cls-8" id="polygon198" style="fill:#fdc30f" d="m151.78 562.13.01.05 14.13 12.3h.94v-31.12h-15.08z"/><path class="cls-8" id="rect200" style="fill:#fdc30f" d="M197.45 543.36h31.12v31.12h-31.12z"/><path class="cls-7" id="rect202" style="fill:#07364f" d="M213.59 543.36h14.98v31.12h-14.98z"/><path class="cls-7" id="polygon204" style="fill:#07364f" d="M213.6 562.18v-18.82h-16.15v5.45z"/><path class="cls-8" id="polygon206" style="fill:#fdc30f" d="m213.59 562.13.01.05 14.04 12.3h.93v-31.12h-14.98z"/><path class="cls-7" id="rect208" style="fill:#07364f" d="M166.88 543.36H198v31.12h-31.12z"/><path class="cls-8" id="rect210" style="fill:#fdc30f" d="M183.02 543.36H198v31.12h-14.98z"/><path class="cls-8" id="polygon212" style="fill:#fdc30f" d="M183.03 562.18v-18.82h-16.15v5.45z"/><path class="cls-7" id="polygon214" style="fill:#07364f" d="m183.02 562.13.01.05 14.04 12.3h.93v-31.12h-14.98z"/><path class="cls-8" id="rect216" style="fill:#fdc30f" d="M228.57 543.36h31.12v31.12h-31.12z"/><path class="cls-7" id="rect218" style="fill:#07364f" d="M228.02 543.36h31.12v31.12h-31.12z"/><path class="cls-8" id="rect220" style="fill:#fdc30f" d="M244.16 543.36h14.98v31.12h-14.98z"/><path class="cls-8" id="polygon222" style="fill:#fdc30f" d="M244.17 562.18v-18.82h-16.15v5.45z"/><path class="cls-7" id="polygon224" style="fill:#07364f" d="m244.16 562.13.01.05 14.04 12.3h.93v-31.12h-14.98z"/><path class="cls-8" id="rect226" style="fill:#fdc30f" d="M292 543.36h31.12v31.12H292z"/><path class="cls-8" id="rect228" style="fill:#fdc30f" d="M260.12 543.36h31.31v31.12h-31.31z"/><path class="cls-7" id="rect230" style="fill:#07364f" d="M276.35 543.36h15.07v31.12h-15.07z"/><path class="cls-7" id="polygon232" style="fill:#07364f" d="M276.36 562.18v-18.82h-16.24v5.45z"/><path class="cls-8" id="polygon234" style="fill:#fdc30f" d="m276.35 562.13.01.05 14.13 12.3h.93v-31.12h-15.07z"/><path class="cls-8" id="rect236" style="fill:#fdc30f" d="M322.02 543.36h31.12v31.12h-31.12z"/><path class="cls-7" id="rect238" style="fill:#07364f" d="M338.16 543.36h14.98v31.12h-14.98z"/><path class="cls-7" id="polygon240" style="fill:#07364f" d="M338.17 562.18v-18.82h-16.15v5.45z"/><path class="cls-8" id="polygon242" style="fill:#fdc30f" d="m338.16 562.13.01.05 14.04 12.3h.93v-31.12h-14.98z"/><path class="cls-7" id="rect244" style="fill:#07364f" d="M291.45 543.36h31.12v31.12h-31.12z"/><path class="cls-8" id="rect246" style="fill:#fdc30f" d="M307.59 543.36h14.98v31.12h-14.98z"/><path class="cls-8" id="polygon248" style="fill:#fdc30f" d="M307.6 562.18v-18.82h-16.15v5.45z"/><path class="cls-7" id="polygon250" style="fill:#07364f" d="m307.59 562.13.01.05 14.04 12.3h.93v-31.12h-14.98z"/><path class="cls-8" id="rect252" style="fill:#fdc30f" d="M353.14 543.36h31.12v31.12h-31.12z"/><path class="cls-7" id="rect254" style="fill:#07364f" d="M352.59 543.36h31.12v31.12h-31.12z"/><path class="cls-8" id="rect256" style="fill:#fdc30f" d="M368.72 543.36h14.98v31.12h-14.98z"/><path class="cls-8" id="polygon258" style="fill:#fdc30f" d="M368.74 562.18v-18.82h-16.15v5.45z"/><path class="cls-7" id="polygon260" style="fill:#07364f" d="m368.73 562.13.01.05 14.03 12.3h.93v-31.12h-14.97z"/></g><path class="cls-12" id="rect264" style="fill:#1e546d" d="M52.588 57.01h261.74v52.88H52.588z"/><path class="cls-3" id="rect266" style="fill:#3a7a91" d="M52.588 57.01h261.74v20.76H52.588z"/><ellipse cx="183.438" cy="71.37" rx="84.59" ry="57.25" id="ellipse268" style="fill:#89bfd3;stroke:#07364f;stroke-width:7.07999992px;stroke-linecap:round;stroke-linejoin:round"/><path class="cls-7" d="M218.238 50.07a26.51 26.51 0 0 1-12.72-8.64c-7.41 0-17.67-7.29-17.67-7.29l.13-1c4.81.13 17.17 4.57 17.17 4.57-3.71-5.8-14.95-5.68-14.95-5.68l-2.22-.37a24 24 0 0 1 21.12 2.72c12.35 1.85 15.69 8.15 15.69 8.15l.66 6.58-6.67 3" id="path270" style="fill:#07364f"/><path class="cls-7" d="M147.888 50.07a26.57 26.57 0 0 0 12.72-8.64c7.41 0 17.66-7.29 17.66-7.29l-.12-1c-4.82.13-17.17 4.57-17.17 4.57 3.7-5.8 14.94-5.68 14.94-5.68l2.23-.37a24 24 0 0 0-21.12 2.72c-12.36 1.85-15.69 8.15-15.69 8.15l-2.79 5.1z" id="path272" style="fill:#07364f"/><rect class="cls-7" x="176.528" y="48.93" width="12.41" height="7.23" rx="3.61" id="rect274" style="fill:#07364f"/><path class="cls-7" d="M154.678 64.53s-11.24-2.47-16.55-8.16c0 0-7.66-7.28 3.21-13.83 0 0 1.11 5.93 6.55 7.53 0 0 8.27 5.81 18.15 6.3" id="path276" style="fill:#07364f"/><path class="cls-7" d="M152.948 65.64s-11.36-.25-23-10.13c0 0-3-1.73-3.71 3.09v1.11s5.68 4.32 10.87 5.8v1.61l9.14.86 4.32 1.24" id="path278" style="fill:#07364f"/><path class="cls-7" d="M127.878 55.9s-6.3-6.42-8.9-9.39c0 0 .62 11.74 7.29 12.11" id="path280" style="fill:#07364f"/><path class="cls-7" d="m126.888 68.6-1.24 4.57 10.38.62 9.26 1.36 15.57 1.85-4.2-4.57a43.56 43.56 0 0 0-13 .25s-4.3-5.93-16.77-4.08z" id="path282" style="fill:#07364f"/><path class="cls-7" d="M127.138 70.46s-3.59-4.08-12.6-6.3c0 0 3 7.53 11.11 9" id="path284" style="fill:#07364f"/><path class="cls-7" d="m167.528 81.32-21.13.87s-4.32 8.89-10.25 10.25l-2.47 10.87s-3.83-8.89-.37-13.71l6.55-5.43s-.62-4.08 7.16-5.07l15.77-1.11" id="path286" style="fill:#07364f"/><path class="cls-7" d="M133.308 89.6s3.09-.25 2.84 2.84" id="path288" style="fill:#07364f"/><path class="cls-7" d="m181.478 82.81-2 3-10.26 1.73s-5.06 4.32-9.38 2.72c0 0 2.59 7.78-2.6 13.34 0 0 3.46 9.63-1.85 11.24 0 0-9.26 0-4.94-14.21 0 0-.37-5.43 4.2-6.79 0 0-3.09-6.79 4.2-8.89 0 0 1.36-2.6 8-.25l3.7-3.34" id="path290" style="fill:#07364f"/><path class="cls-7" d="M211.448 64.53s11.24-2.47 16.55-8.16c0 0 7.66-7.28-3.21-13.83 0 0-1.12 5.93-6.55 7.53 0 0-8.28 5.81-18.16 6.3" id="path292" style="fill:#07364f"/><path class="cls-7" d="M213.178 65.64s11.36-.25 23-10.13c0 0 3-1.73 3.71 3.09v1.11s-5.69 4.32-10.87 5.8v1.61l-9.14.86-4.33 1.24" id="path294" style="fill:#07364f"/><path class="cls-7" d="M238.248 55.9s6.3-6.42 8.89-9.39c0 0-.61 11.74-7.28 12.11" id="path296" style="fill:#07364f"/><path class="cls-7" d="m239.238 68.6 1.23 4.57-10.37.62-9.31 1.36-15.56 1.85 4.2-4.57a43.56 43.56 0 0 1 13 .25s4.36-5.93 16.81-4.08z" id="path298" style="fill:#07364f"/><path class="cls-7" d="M238.988 70.46s3.58-4.08 12.6-6.3c0 0-3 7.53-11.12 9" id="path300" style="fill:#07364f"/><path class="cls-7" d="m198.598 81.32 21.12.87s4.32 8.89 10.25 10.25l2.47 10.87s3.83-8.89.37-13.71l-6.54-5.43s.62-4.08-7.17-5.07l-15.81-1.11" id="path302" style="fill:#07364f"/><path class="cls-7" d="M232.788 89.6s-3.08-.25-2.84 2.84" id="path304" style="fill:#07364f"/><path class="cls-7" d="m184.638 82.81 2 3 10.25 1.73s5.07 4.32 9.39 2.72c0 0-2.6 7.78 2.59 13.34 0 0-3.46 9.63 1.85 11.24 0 0 9.27 0 4.95-14.21 0 0 .37-5.43-4.2-6.79 0 0 3.08-6.79-4.2-8.89 0 0-1.36-2.6-8-.25l-3.71-3.34" id="path306" style="fill:#07364f"/><path class="cls-7" d="M183.058 52.72c-23.64-.75-32.46 16.5-32.46 16.5 9.64 10.56 26.31 14.64 26.31 14.64l6.15-.53 6.15.53s16.68-4.08 26.31-14.64c0 0-8.81-17.25-32.46-16.5z" id="path308" style="fill:#07364f"/><path class="cls-7" d="M150.478 100.59s2.34-1.08 2.89 1.15c.55 2.23 1.32 2.71 3.9 1.82" id="path310" style="fill:#07364f"/><path class="cls-7" d="M215.638 100.59s-2.34-1.08-2.9 1.15-1.31 2.71-3.9 1.82" id="path312" style="fill:#07364f"/><path class="cls-14" d="M176.528 53.38a9.14 9.14 0 0 1-5.92-8.52" id="path314" style="fill:none;stroke:#07364f;stroke-width:1.29999995px;stroke-miterlimit:10"/><path class="cls-14" d="M189.148 53.38a9.16 9.16 0 0 0 5.93-8.52" id="path316" style="fill:none;stroke:#07364f;stroke-width:1.29999995px;stroke-miterlimit:10"/><path class="cls-12" d="M204.468 63.32a28.93 28.93 0 0 0-18.93-6.42h-2.57a28.93 28.93 0 0 0-18.93 6.43 26.18 26.18 0 0 0-4.74 5.1c6 5.77 14.68 8.93 18.41 10.09.15-3.75 2.29-18.33 26.76-15.2z" id="path318" style="fill:#1e546d"/><path class="cls-12" d="M204.368 58.57s10.19-2.22 15.75-7a33.91 33.91 0 0 1-12.42 9.45" id="path320" style="fill:#1e546d"/><path class="cls-12" d="M208.438 40.78s4.63 5.56 10.75 7.23l2-1.11s-2.74-6.67-12.75-6.12z" id="path322" style="fill:#1e546d"/><path class="cls-12" d="M158.418 59.68s-12.23-.37-17.6-11.49l-.74-2-1.67 3.7s-.74 7.23 17.23 12" id="path324" style="fill:#1e546d"/><path class="cls-12" d="M143.978 44.31s.69 2.06 2.06 2.4c0 0 8.58-1.54 12-6.52 0 0-.35-2.74-1.55-2.74-1.2 0-7.36.34-12.51 6.86z" id="path326" style="fill:#1e546d"/><path class="cls-12" d="M211.408 111.74a5.34 5.34 0 0 1 0-7 5.74 5.74 0 0 0-2.35-7s4.82-.49 5.06 4.94c0-.08 1.86 9.06-2.71 9.06z" id="path328" style="fill:#1e546d"/><path class="cls-12" d="M154.848 111.74a5.34 5.34 0 0 0 0-7 5.74 5.74 0 0 1 2.35-7s-4.82-.49-5.06 4.94c0-.08-1.86 9.06 2.71 9.06z" id="path330" style="fill:#1e546d"/><path d="M332.348 249.26c4.77-8.76 5.15-19.3 1.05-29.67-6.22-15.77-20-20.84-28.06-23.23l-4.67-25.34-37.75-2.32-3.91 12.26q-.57 1.79-1.14 3.42a33.18 33.18 0 0 0-9.88-8.75 32.14 32.14 0 0 0-9.91-3.66l2.35-35.64-49.4-.23-.19 41.8-16.5.94c-1.85-.27-3-.35-3.74-.39h-1.26c.56-18.52-6.34-35.07-19.24-45.86a54.08 54.08 0 0 0-32.43-12.29 65.55 65.55 0 0 0-7.41.09c-9.69.69-19.26 3.48-30.11 8.76a106.88 106.88 0 0 0-26.79 18c-8.34 7.8-14.46 16.47-18.86 23.15-20.41 31-30.88 62.33-31.11 93.07-.16 22.91 6.26 41.16 19.09 54.24a58.68 58.68 0 0 0 39.2 17.41v0a62 62 0 0 0 6.68 0l213.8-34.12s25.12-3.89 35.38-22.11l14.81-29.5" id="path332" style="fill:#07364f;stroke:#89bfd3;stroke-width:6.76999998px;stroke-linecap:round;stroke-linejoin:round"/><path class="cls-7" d="M330.328 220.8c-6-15.13-19.35-19.4-27.87-21.83l-4.57-24.81-32.61-2-3.12 9.8c-1.17 3.66-2.37 6.91-3.63 9.84a30.56 30.56 0 0 0-12.18-13.31 29.22 29.22 0 0 0-11.76-3.69l2.32-35.19-42.59-.19-.19 41.63-19.95 1.13a36.49 36.49 0 0 0-3.74-.4 20.83 20.83 0 0 0-2.11 0c-.84 0-1.67.12-2.5.23 1.58-18.78-4.94-36.08-17.85-46.89a50.8 50.8 0 0 0-30.47-11.52 58.84 58.84 0 0 0-7 .09c-9.25.66-18.43 3.34-28.9 8.43a103.85 103.85 0 0 0-26 17.48c-8.09 7.56-14.06 16-18.36 22.56-20.06 30.47-30.34 61.18-30.56 91.27-.16 22 5.94 39.47 18.14 51.9a55.37 55.37 0 0 0 37 16.43 54.62 54.62 0 0 0 20.64-2.94 75.34 75.34 0 0 0 26.56-13.92 70.1 70.1 0 0 0 14.82-16.62l102.34-21.3 49.6-6.77c11.45-1.06 25.64-2.42 38.78-9 2.55-1.27 10.3-5.16 14.84-13.5 4.38-7.92 4.65-17.47.92-26.91z" id="path334" style="fill:#07364f"/><path class="cls-16" d="M139.578 143.61c-7.38-6.18-17.35-9.16-28.07-8.39-7.51.53-15.15 2.8-24.06 7.13a91 91 0 0 0-22.73 15.25c-7.07 6.61-12.45 14.25-16.34 20.17-18.59 28.31-28.19 56.61-28.39 84.13-.14 18.39 4.69 32.7 14.36 42.55a42.51 42.51 0 0 0 28.21 12.45 41.75 41.75 0 0 0 16-2.35 62.11 62.11 0 0 0 22.23-11.56 56.31 56.31 0 0 0 20.51-37.54l-26.09 3.52c-5.35 16.58-20.64 21.07-23 21.68l-.7.14-.91.35a18 18 0 0 1-18.5-4.06c-6.11-6.23-7.33-17-7.27-25 .16-22.32 8.57-46.76 24.31-70.67 3.14-4.77 7.41-10.87 12.57-15.7a67 67 0 0 1 16.65-11.06c6-2.91 10.73-4.4 15-4.7 4.27-.3 8 .7 10.41 2.68 3.55 3 5.18 9.39 4.17 16.36l24.51 3.57c2.22-15.78-2.56-30.33-12.87-38.95z" id="path336" style="fill:#fff;stroke:#7a1319;stroke-width:2.48000002px;stroke-linecap:round;stroke-linejoin:round"/><path class="cls-16" d="M318.118 224.01c-3.79-9.62-12.46-12.08-20.11-14.25l-1.08-.3a33.46 33.46 0 0 0-5.79-1.12l-4.29-23.28-12-.73c-3.67 11.51-8.46 22.23-16.94 30.84-2 2-4.37 4.19-6.88 4.9-1.62.46-3.54.07-4.11-.83l-.26-.4c.37-1.24.67-2.39.92-3.42a34.75 34.75 0 0 0 1-13.76 18.63 18.63 0 0 0-8.7-13.37c-5.76-3.32-13.53-2.58-19.51 1.59l2.56-38.77-15.33-.07-.31 69c-.26 1.46-.56 2.88-.92 4.27l-9.58 7.89a14.54 14.54 0 0 1-1.21.94 2.2 2.2 0 0 1-.93-.69 12 12 0 0 1-1.63-4.79 66.62 66.62 0 0 1-.23-18.56c1.24-5.47 2.15-10.89 2.9-15.91l-10.49-2.17c-.47 1.75-.91 3.63-1.32 5.62a7.1 7.1 0 0 0-2.62-1.22c-9.5-2.21-11.43-2.13-12.25-2.09-6.78.29-13.33 5.06-16.68 12.16-2.61 5.52-3.15 11.41-3.51 17.47a39.11 39.11 0 0 0 .43 10.11 44.42 44.42 0 0 0-5 3.59c-1.07.86-2.08 1.67-3.08 2.33-2 1.32-4.21 1.89-5.16 1.32-1.14-.69-1.64-3.49-1.26-7.14a68.35 68.35 0 0 1 7.71-25.27l-7.81-6.93-10.33 7.26a60.34 60.34 0 0 1-5.79 3.71 14.18 14.18 0 0 0-3.48-5.13 11.88 11.88 0 0 0-10.92-2.65 9.4 9.4 0 0 0-6.8 6.29 9.67 9.67 0 0 0 .76 7.48 13.31 13.31 0 0 0 7.85 6.28 17.29 17.29 0 0 0 3.54.69 43.65 43.65 0 0 1-2.39 14.09c-.93 2.56-2 4.18-3.1 4.83-2 1.13-5.55.2-8.76-.76l-4.63-3.25-3.58 12 5.15 1.53a35.39 35.39 0 0 0 8.44 1.71 15.68 15.68 0 0 0 8.73-1.93c3.44-2 6-5.41 7.84-10.49a55.43 55.43 0 0 0 3-19.61 40.41 40.41 0 0 0 6-3.17 78.32 78.32 0 0 0-2.24 12.18c-1.09 10.59 2.89 15.33 6.42 17.44 4.67 2.81 10.88 2.22 16.6-1.57 1.4-.93 2.65-1.92 3.86-2.89a40.94 40.94 0 0 1 3.34-2.48c3.74 3.43 8.64 4.41 12.5 4.88.41.05 1 .12 1.59.15a10.93 10.93 0 0 0 4.14-.53 12.27 12.27 0 0 0 5.22-3.89 52 52 0 0 0 6-8.73 16.67 16.67 0 0 0 2.46 4.57c3.12 4 8.18 5.8 12.58 4.4a14.59 14.59 0 0 0 4.91-3l7.25-6c3.53 1.9 8 4.06 13 4.3a18.81 18.81 0 0 0 2.12 0c5.79-.38 11.37-3.61 15.32-8.85.23-.3.44-.6.65-.9a15.27 15.27 0 0 0 12 1.44 21.8 21.8 0 0 0 7.43-3.91c2.23 4.91 7.55 7.47 15.86 7.6 2.67.05 7.14.12 10.77-2.63 4.19-3.18 5-8 4.88-12 .37.08.75.18 1.12.29l1.1.31c7.37 2.09 11.29 3.39 13.06 7.86 1 2.65 1.18 5.12.36 6.63-.82 1.51-3 2.78-4.55 3.56-9.22 4.63-20.12 5.64-30.65 6.62l-50.57 6.89-86.72 11.83a111 111 0 0 1-4.31 18l92.33-19.19 50.38-6.88c11-1 23.36-2.18 34.36-7.7 2.83-1.42 6.86-3.8 9.16-8 2.41-4.33 2.48-9.91.21-15.64zm-138.9-8.11a40.73 40.73 0 0 1-3.71 11 44.15 44.15 0 0 1-6 9.29c-.31.36-.51.57-.63.69l-.87-.08c-2.28-.28-5.08-.78-6.57-2.16-2.2-2.06-2.25-6.52-2-11 .3-5.16.7-9.73 2.49-13.52 1.37-2.9 4.2-5.89 7.36-6v0c.27 0 4.53.88 10.34 2.2 1.16.16-.25 8.58-.41 9.58zm57.9-3c-1.13 4.68-2.53 8-4.4 10.5-2 2.7-4.83 4.43-7.46 4.6-2.29.15-4.71-.72-7.44-2.08h.13l.52-7.9v-.12c.33-2.06.65-4 1.05-5.92 1.22-5.75 3.09-9.78 5.74-12.32 2.35-2.26 6.44-3.66 9.19-2.07a8.27 8.27 0 0 1 3.47 5.82c.55 3.21-.13 6.76-.8 9.49zm42.34-8.7.86 4.66a39 39 0 0 0-4.46 1.17q1.93-2.85 3.6-5.83zm2 18.71c-.67.51-3 .47-4.11.45a20.42 20.42 0 0 1-4.17-.42c.46-.22.93-.45 1.42-.72a27.25 27.25 0 0 1 7.46-2.77c.19 2.7-.41 3.34-.57 3.45z" id="path338" style="fill:#fff;stroke:#7a1319;stroke-width:2.48000002px;stroke-linecap:round;stroke-linejoin:round"/><path class="cls-3" d="m131.018 292.9 3.64-.65 2.52 5.49 3.4-6.56 3.64-.65-1.15 15.57-3.43.61.67-8.94-3.63 6.67h-.07l-2.71-5.54-.66 8.9-3.37.6z" id="path340" style="fill:#3a7a91"/><path class="cls-3" d="m159.578 287.61 3.32-.6 4.13 14.74-3.69.66-.7-2.62-4.79.87-1.06 2.94-3.62.65zm2.31 9-1-4.17-1.73 4.67z" id="path342" style="fill:#3a7a91"/><path class="cls-3" d="m178.248 284.36 5.87-1.05c1.9-.34 3.16 0 3.92 1a4.57 4.57 0 0 1 .83 3.43 6.78 6.78 0 0 1-2.91 5.25l2.56 4.89-4 .72-2.16-4.27-1.47.26-.35 4.72-3.44.62zm5.16 6.45a2.3 2.3 0 0 0 2-2.18c.09-1.23-.57-1.72-1.72-1.51l-2.26.4-.27 3.74z" id="path344" style="fill:#3a7a91"/><path class="cls-3" d="m202.278 289.65-4-8.89 3.92-.71 2.13 5.22 3-6.14 3.85-.69-5.39 10.53-.44 5.89-3.46.62z" id="path346" style="fill:#3a7a91"/><path class="cls-3" d="m221.108 276.65 3.44-.62-.87 11.79 6-1.08-.28 3.78-9.45 1.71z" id="path348" style="fill:#3a7a91"/><path class="cls-3" d="m245.198 272.21 3.32-.6 4.12 14.73-3.69.67-.69-2.62-4.79.86-1.1 2.94-3.61.65zm2.31 9-1.05-4.18-1.73 4.68z" id="path350" style="fill:#3a7a91"/><path class="cls-3" d="m263.868 268.96 3.21-.58 4.5 7.31.61-8.23 3.4-.61-1.15 15.57-3 .55-4.65-7.59-.63 8.54-3.41.61z" id="path352" style="fill:#3a7a91"/><path class="cls-3" d="m286.658 264.9 4.78-.86c4.44-.8 6.77 1.94 6.44 6.44-.34 4.49-3.19 8.3-7.66 9.1l-4.72.85zm4 10.88a4.62 4.62 0 0 0 3.71-4.56c.19-2.49-1.07-3.69-3.13-3.32l-1.4.25-.58 7.92z" id="path354" style="fill:#3a7a91"/></svg>