<svg xmlns="http://www.w3.org/2000/svg" id="Layer_1" data-name="Layer 1" version="1.1" width="327.733" height="414.4"><defs id="defs7"><clipPath id="clip-path"><path id="polygon4" style="fill:none" d="M387.69 592.55V345.11H125.8V592.5l133.06 97.71z"/></clipPath><style id="style2">.cls-13{fill:none}.cls-2{fill:#f15d24}.cls-3{fill:#7a1319}.cls-4{fill:#89bfd3}.cls-5{fill:#07364f}.cls-6{fill:#fdc30f}.cls-9{fill:#fff}.cls-10{fill:#e62325}.cls-11{fill:#1e546d}.cls-13{stroke:#07364f}.cls-13,.cls-20{stroke-miterlimit:10}.cls-13{stroke-width:1.3px}.cls-20{fill:#3b7a91;stroke:#3b7a91;stroke-width:.4px}</style></defs><g id="SlHar6" transform="translate(-88.35 -288.1)"><path class="cls-2" d="M150.51 429.93a31.64 31.64 0 0 1-3.84-2.66c-1.6-1.15-1.59-1.18-3.19 0-1.29.91-2.57 1.85-3.89 2.81-.17-.33 0-.57.08-.8.53-1.65 1.06-3.3 1.63-4.94a.88.88 0 0 0-.37-1.17c-1.48-1-2.92-2.13-4.38-3.2-.13-.1-.25-.22-.53-.47h2.33c1.32 0 2.65 0 4-.07a.7.7 0 0 0 .75-.59c.61-2 1.26-3.89 2-6 .55 1.66 1.07 3.13 1.52 4.62.61 2 .59 2.05 2.75 2.05h4.84l-2.44 1.79c-.89.66-1.76 1.33-2.66 2a.72.72 0 0 0-.3 1c.57 1.67 1.1 3.34 1.63 5 .07.23.11.47.16.71z" id="path9" style="fill:#f15d24"/><path class="cls-2" d="m150.53 429.91.06.08-.08-.06z" id="path11" style="fill:#f15d24"/></g><path class="cls-4" d="M236.04 19.19C217.75 6.81 193.65 0 168.3 0c-25.35 0-49.44 6.81-67.73 19.19-20 13.53-31 32.06-31 52.18 0 20.12 11 38.66 31 52.18 18.29 12.38 42.35 19.2 67.73 19.2 25.38 0 49.45-6.82 67.74-19.2 20-13.52 31-32 31-52.18s-11.02-38.65-31-52.18z" id="path132" style="fill:#89bfd3"/><path class="cls-4" d="M171.33 414.4h-1.55a5.73 5.73 0 0 1-3.39-1.11L28.33 311.9a5.71 5.71 0 0 1-2.33-4.61v-256a5.72 5.72 0 0 1 5.72-5.72h273.35a5.72 5.72 0 0 1 5.72 5.72v256a5.74 5.74 0 0 1-2.26 4.56L174.79 413.24a5.76 5.76 0 0 1-3.46 1.16zm-133.88-110 133.06 97.71 128.83-97.66V57.01H37.45z" id="path134" style="fill:#89bfd3"/><path class="cls-5" id="polygon136" style="fill:#07364f" transform="translate(-88.35 -288.1)" d="M387.69 345.11H125.8V592.5l133.06 97.71 128.83-97.66z"/><g clip-path="url(#clip-path)" id="g242" transform="translate(-88.35 -288.1)" style="clip-path:url(#clip-path)"><path class="cls-9" id="rect138" style="fill:#fff" d="M135.79 633.86h31.12v31.12h-31.12z"/><path class="cls-3" id="rect140" style="fill:#7a1319" d="M166.91 633.86h31.12v31.12h-31.12z"/><path class="cls-10" id="rect142" style="fill:#e62325" d="M135.79 655.04h31.12v9.94h-31.12z"/><path class="cls-9" id="rect144" style="fill:#fff" d="M166.91 655.04h31.12v9.94h-31.12z"/><path class="cls-9" id="rect146" style="fill:#fff" d="M197.77 633.92h31.12v31.12h-31.12z"/><path class="cls-3" id="rect148" style="fill:#7a1319" d="M228.89 633.92h31.12v31.12h-31.12z"/><path class="cls-3" id="rect150" style="fill:#7a1319" d="M197.77 655.1h31.12v9.94h-31.12z"/><path class="cls-9" id="rect152" style="fill:#fff" d="M228.89 655.1h31.12v9.94h-31.12z"/><path class="cls-9" id="rect154" style="fill:#fff" d="M259.58 633.86h31.12v31.12h-31.12z"/><path class="cls-3" id="rect156" style="fill:#7a1319" d="M290.69 633.86h31.12v31.12h-31.12z"/><path class="cls-3" id="rect158" style="fill:#7a1319" d="M259.58 655.04h31.12v9.94h-31.12z"/><path class="cls-9" id="rect160" style="fill:#fff" d="M290.69 655.04h31.12v9.94h-31.12z"/><path class="cls-9" id="rect162" style="fill:#fff" d="M321.55 633.92h31.12v31.12h-31.12z"/><path class="cls-10" id="rect164" style="fill:#e62325" d="M352.67 633.92h31.12v31.12h-31.12z"/><path class="cls-10" id="rect166" style="fill:#e62325" d="M321.55 655.1h31.12v9.94h-31.12z"/><path class="cls-9" id="rect168" style="fill:#fff" d="M352.67 655.1h31.12v9.94h-31.12z"/><path class="cls-6" id="rect170" style="fill:#fdc30f" d="M167.43 603.36h31.12v31.12h-31.12z"/><path class="cls-6" id="rect172" style="fill:#fdc30f" d="M135.55 603.36h31.31v31.12h-31.31z"/><path class="cls-5" id="rect174" style="fill:#07364f" d="M151.78 603.36h15.07v31.12h-15.07z"/><path class="cls-5" id="polygon176" style="fill:#07364f" d="M151.79 622.18v-18.82h-16.24v5.45z"/><path class="cls-6" id="polygon178" style="fill:#fdc30f" d="m151.78 622.13.01.05 14.13 12.3h.94v-31.12h-15.08z"/><path class="cls-6" id="rect180" style="fill:#fdc30f" d="M197.45 603.36h31.12v31.12h-31.12z"/><path class="cls-5" id="rect182" style="fill:#07364f" d="M213.59 603.36h14.98v31.12h-14.98z"/><path class="cls-5" id="polygon184" style="fill:#07364f" d="M213.6 622.18v-18.82h-16.15v5.45z"/><path class="cls-6" id="polygon186" style="fill:#fdc30f" d="m213.59 622.13.01.05 14.04 12.3h.93v-31.12h-14.98z"/><path class="cls-5" id="rect188" style="fill:#07364f" d="M166.88 603.36H198v31.12h-31.12z"/><path class="cls-6" id="rect190" style="fill:#fdc30f" d="M183.02 603.36H198v31.12h-14.98z"/><path class="cls-6" id="polygon192" style="fill:#fdc30f" d="M183.03 622.18v-18.82h-16.15v5.45z"/><path class="cls-5" id="polygon194" style="fill:#07364f" d="m183.02 622.13.01.05 14.04 12.3h.93v-31.12h-14.98z"/><path class="cls-6" id="rect196" style="fill:#fdc30f" d="M228.57 603.36h31.12v31.12h-31.12z"/><path class="cls-5" id="rect198" style="fill:#07364f" d="M228.02 603.36h31.12v31.12h-31.12z"/><path class="cls-6" id="rect200" style="fill:#fdc30f" d="M244.16 603.36h14.98v31.12h-14.98z"/><path class="cls-6" id="polygon202" style="fill:#fdc30f" d="M244.17 622.18v-18.82h-16.15v5.45z"/><path class="cls-5" id="polygon204" style="fill:#07364f" d="m244.16 622.13.01.05 14.04 12.3h.93v-31.12h-14.98z"/><path class="cls-6" id="rect206" style="fill:#fdc30f" d="M292 603.36h31.12v31.12H292z"/><path class="cls-6" id="rect208" style="fill:#fdc30f" d="M260.12 603.36h31.31v31.12h-31.31z"/><path class="cls-5" id="rect210" style="fill:#07364f" d="M276.35 603.36h15.07v31.12h-15.07z"/><path class="cls-5" id="polygon212" style="fill:#07364f" d="M276.36 622.18v-18.82h-16.24v5.45z"/><path class="cls-6" id="polygon214" style="fill:#fdc30f" d="m276.35 622.13.01.05 14.13 12.3h.93v-31.12h-15.07z"/><path class="cls-6" id="rect216" style="fill:#fdc30f" d="M322.02 603.36h31.12v31.12h-31.12z"/><path class="cls-5" id="rect218" style="fill:#07364f" d="M338.16 603.36h14.98v31.12h-14.98z"/><path class="cls-5" id="polygon220" style="fill:#07364f" d="M338.17 622.18v-18.82h-16.15v5.45z"/><path class="cls-6" id="polygon222" style="fill:#fdc30f" d="m338.16 622.13.01.05 14.04 12.3h.93v-31.12h-14.98z"/><path class="cls-5" id="rect224" style="fill:#07364f" d="M291.45 603.36h31.12v31.12h-31.12z"/><path class="cls-6" id="rect226" style="fill:#fdc30f" d="M307.59 603.36h14.98v31.12h-14.98z"/><path class="cls-6" id="polygon228" style="fill:#fdc30f" d="M307.6 622.18v-18.82h-16.15v5.45z"/><path class="cls-5" id="polygon230" style="fill:#07364f" d="m307.59 622.13.01.05 14.04 12.3h.93v-31.12h-14.98z"/><path class="cls-6" id="rect232" style="fill:#fdc30f" d="M353.14 603.36h31.12v31.12h-31.12z"/><path class="cls-5" id="rect234" style="fill:#07364f" d="M352.59 603.36h31.12v31.12h-31.12z"/><path class="cls-6" id="rect236" style="fill:#fdc30f" d="M368.72 603.36h14.98v31.12h-14.98z"/><path class="cls-6" id="polygon238" style="fill:#fdc30f" d="M368.74 622.18v-18.82h-16.15v5.45z"/><path class="cls-5" id="polygon240" style="fill:#07364f" d="m368.73 622.13.01.05 14.03 12.3h.93v-31.12h-14.97z"/></g><path class="cls-11" id="rect244" style="fill:#1e546d" d="M37.451 57.01h261.74v52.88H37.451z"/><path id="rect246" style="fill:#3a7a91" d="M37.451 57.01h261.74v20.76H37.451z"/><ellipse cx="168.301" cy="71.37" rx="84.59" ry="57.25" id="ellipse248" style="fill:#89bfd3;stroke:#07364f;stroke-width:7.07999992px;stroke-linecap:round;stroke-linejoin:round"/><path class="cls-5" d="M203.1 50.07a26.51 26.51 0 0 1-12.72-8.64c-7.41 0-17.67-7.29-17.67-7.29l.13-1c4.81.13 17.17 4.57 17.17 4.57-3.71-5.8-14.95-5.68-14.95-5.68l-2.22-.37a24 24 0 0 1 21.12 2.72c12.35 1.85 15.69 8.15 15.69 8.15l.66 6.58-6.67 3" id="path250" style="fill:#07364f"/><path class="cls-5" d="M132.75 50.07a26.57 26.57 0 0 0 12.72-8.64c7.41 0 17.66-7.29 17.66-7.29l-.12-1c-4.82.13-17.17 4.57-17.17 4.57 3.7-5.8 14.94-5.68 14.94-5.68l2.23-.37a24 24 0 0 0-21.12 2.72c-12.36 1.85-15.69 8.15-15.69 8.15l-2.79 5.1z" id="path252" style="fill:#07364f"/><rect class="cls-5" x="161.391" y="48.93" width="12.41" height="7.23" rx="3.61" id="rect254" style="fill:#07364f"/><path class="cls-5" d="M139.54 64.53s-11.24-2.47-16.55-8.16c0 0-7.66-7.28 3.21-13.83 0 0 1.11 5.93 6.55 7.53 0 0 8.27 5.81 18.15 6.3" id="path256" style="fill:#07364f"/><path class="cls-5" d="M137.81 65.64s-11.36-.25-23-10.13c0 0-3-1.73-3.71 3.09v1.11s5.68 4.32 10.87 5.8v1.61l9.14.86 4.32 1.24" id="path258" style="fill:#07364f"/><path class="cls-5" d="M112.74 55.9s-6.3-6.42-8.9-9.39c0 0 .62 11.74 7.29 12.11" id="path260" style="fill:#07364f"/><path class="cls-5" d="m111.75 68.6-1.24 4.57 10.38.62 9.26 1.36L145.72 77l-4.2-4.57a43.56 43.56 0 0 0-13 .25s-4.3-5.93-16.77-4.08z" id="path262" style="fill:#07364f"/><path class="cls-5" d="M112 70.46s-3.59-4.08-12.6-6.3c0 0 3 7.53 11.11 9" id="path264" style="fill:#07364f"/><path class="cls-5" d="m152.39 81.32-21.13.87s-4.32 8.89-10.25 10.25l-2.47 10.87s-3.83-8.89-.37-13.71l6.55-5.43s-.62-4.08 7.16-5.07l15.77-1.11" id="path266" style="fill:#07364f"/><path class="cls-5" d="M118.17 89.6s3.09-.25 2.84 2.84" id="path268" style="fill:#07364f"/><path class="cls-5" d="m166.34 82.81-2 3-10.26 1.73s-5.06 4.32-9.38 2.72c0 0 2.59 7.78-2.6 13.34 0 0 3.46 9.63-1.85 11.24 0 0-9.26 0-4.94-14.21 0 0-.37-5.43 4.2-6.79 0 0-3.09-6.79 4.2-8.89 0 0 1.36-2.6 8-.25l3.7-3.34" id="path270" style="fill:#07364f"/><path class="cls-5" d="M196.31 64.53s11.24-2.47 16.55-8.16c0 0 7.66-7.28-3.21-13.83 0 0-1.12 5.93-6.55 7.53 0 0-8.28 5.81-18.16 6.3" id="path272" style="fill:#07364f"/><path class="cls-5" d="M198.04 65.64s11.36-.25 23-10.13c0 0 3-1.73 3.71 3.09v1.11s-5.69 4.32-10.87 5.8v1.61l-9.14.86-4.33 1.24" id="path274" style="fill:#07364f"/><path class="cls-5" d="M223.11 55.9s6.3-6.42 8.89-9.39c0 0-.61 11.74-7.28 12.11" id="path276" style="fill:#07364f"/><path class="cls-5" d="m224.1 68.6 1.23 4.57-10.37.62-9.31 1.36L190.09 77l4.2-4.57a43.56 43.56 0 0 1 13 .25s4.36-5.93 16.81-4.08z" id="path278" style="fill:#07364f"/><path class="cls-5" d="M223.85 70.46s3.58-4.08 12.6-6.3c0 0-3 7.53-11.12 9" id="path280" style="fill:#07364f"/><path class="cls-5" d="m183.46 81.32 21.12.87s4.32 8.89 10.25 10.25l2.47 10.87s3.83-8.89.37-13.71l-6.54-5.43s.62-4.08-7.17-5.07l-15.81-1.11" id="path282" style="fill:#07364f"/><path class="cls-5" d="M217.65 89.6s-3.08-.25-2.84 2.84" id="path284" style="fill:#07364f"/><path class="cls-5" d="m169.5 82.81 2 3 10.25 1.73s5.07 4.32 9.39 2.72c0 0-2.6 7.78 2.59 13.34 0 0-3.46 9.63 1.85 11.24 0 0 9.27 0 4.95-14.21 0 0 .37-5.43-4.2-6.79 0 0 3.08-6.79-4.2-8.89 0 0-1.36-2.6-8-.25l-3.71-3.34" id="path286" style="fill:#07364f"/><path class="cls-5" d="M167.92 52.72c-23.64-.75-32.46 16.5-32.46 16.5 9.64 10.56 26.31 14.64 26.31 14.64l6.15-.53 6.15.53s16.68-4.08 26.31-14.64c0 0-8.81-17.25-32.46-16.5z" id="path288" style="fill:#07364f"/><path class="cls-5" d="M135.34 100.59s2.34-1.08 2.89 1.15c.55 2.23 1.32 2.71 3.9 1.82" id="path290" style="fill:#07364f"/><path class="cls-5" d="M200.5 100.59s-2.34-1.08-2.9 1.15-1.31 2.71-3.9 1.82" id="path292" style="fill:#07364f"/><path class="cls-13" d="M161.39 53.38a9.14 9.14 0 0 1-5.92-8.52" id="path294" style="fill:none;stroke:#07364f;stroke-width:1.29999995px;stroke-miterlimit:10"/><path class="cls-13" d="M174.01 53.38a9.16 9.16 0 0 0 5.93-8.52" id="path296" style="fill:none;stroke:#07364f;stroke-width:1.29999995px;stroke-miterlimit:10"/><path class="cls-11" d="M189.33 63.32a28.93 28.93 0 0 0-18.93-6.42h-2.57a28.93 28.93 0 0 0-18.93 6.43 26.18 26.18 0 0 0-4.74 5.1c6 5.77 14.68 8.93 18.41 10.09.15-3.75 2.29-18.33 26.76-15.2z" id="path298" style="fill:#1e546d"/><path class="cls-11" d="M189.23 58.57s10.19-2.22 15.75-7a33.91 33.91 0 0 1-12.42 9.45" id="path300" style="fill:#1e546d"/><path class="cls-11" d="M193.3 40.78s4.63 5.56 10.75 7.23l2-1.11s-2.74-6.67-12.75-6.12z" id="path302" style="fill:#1e546d"/><path class="cls-11" d="M143.28 59.68s-12.23-.37-17.6-11.49l-.74-2-1.67 3.7s-.74 7.23 17.23 12" id="path304" style="fill:#1e546d"/><path class="cls-11" d="M128.84 44.31s.69 2.06 2.06 2.4c0 0 8.58-1.54 12-6.52 0 0-.35-2.74-1.55-2.74-1.2 0-7.36.34-12.51 6.86z" id="path306" style="fill:#1e546d"/><path class="cls-11" d="M196.27 111.74a5.34 5.34 0 0 1 0-7 5.74 5.74 0 0 0-2.35-7s4.82-.49 5.06 4.94c0-.08 1.86 9.06-2.71 9.06z" id="path308" style="fill:#1e546d"/><path class="cls-11" d="M139.71 111.74a5.34 5.34 0 0 0 0-7 5.74 5.74 0 0 1 2.35-7s-4.82-.49-5.06 4.94c0-.08-1.86 9.06 2.71 9.06z" id="path310" style="fill:#1e546d"/><path d="m309.93 270.08 13.35-46.31a27.45 27.45 0 0 0-4.93-21.65c-4.93-6.72-12.88-9.85-23.69-9.34l-2.9-12-.27-1.16v-.08l-.64-2.63-1.19-.92a11 11 0 0 0-.77-1 9.84 9.84 0 0 0-.89-.95 12.57 12.57 0 0 0-1.41-1.2h-.08c-.3-.22-.62-.43-.94-.63l-.1-.06a13.73 13.73 0 0 0-1.67-.84 12.68 12.68 0 0 0-1.2-.47 16.74 16.74 0 0 0-2-.51 12.66 12.66 0 0 0-1.35-.22 19.07 19.07 0 0 0-3.6-.21h-.09c-.39 0-.77.07-1.15.13l-1.17.17c-.46.09-.92.18-1.33.28-.63.16-1.15.31-1.52.43l-1.07.36-.71.23-1.17.52c-.52.24-1 .49-1.54.77s-1 .55-1.5.85c-.32.2-.82.51-1.42.92l-.09.06c-.59.42-1.17.86-1.78 1.36-.32.26-.8.66-1.37 1.18-.57.52-1.17 1.14-1.75 1.78-.36.39-.7.78-1 1.19a26.62 26.62 0 0 0-2.26 3.21c-.3.5-.54.94-.7 1.26-.26.48-.58 1.11-.92 1.89l-1.21 2.85-2.49 3.28a28.56 28.56 0 0 0-1.48-3.46c-3.81-7.39-10.58-11.64-19.18-12.24l5.32-25.14c1.12-5.26.08-10.09-2.91-13.6s-7.57-5.28-12.94-5a21.4 21.4 0 0 0-2.6.31c-10.19 1.83-19.45 10.64-21.53 20.5l-5.91 27.91a19.6 19.6 0 0 0-3.53 0 21.23 21.23 0 0 0-2.23.28 26.46 26.46 0 0 0-10.3 4.36 28.45 28.45 0 0 0-6.61 4.25c-1.34 0-2.73.12-4.16.28-.52 0-1.38.15-2.44.34a30.67 30.67 0 0 0-6.15 1.8 32.14 32.14 0 0 0-5.05 2.63 26.91 26.91 0 0 0 1.37-3c2.15-5.64 2.05-11.19-.28-15.64-6-11.42-15.71-21.61-29.16-25.5-15.08-4.35-32.19 1.11-47.81 11.22a151.63 151.63 0 0 0-48.5 51.65C11.65 234.9 4.75 257.5 4.01 278.25c-.75 21.2 5.35 42.67 16.56 52.93a32.19 32.19 0 0 0 22.35 8.72 43.5 43.5 0 0 0 6-.46l238.11-49.29s18.14-3.25 22.9-20.07z" id="path312" style="fill:#07364f;stroke:#89bfd3;stroke-width:7.88999987px;stroke-linecap:round;stroke-linejoin:round"/><path class="cls-9" d="M304.21 213.29c-4.57-6.24-13.93-5.3-22.64-3.23a26.27 26.27 0 0 0-1.67-5.08l-4.15-17.16v-.05a2.69 2.69 0 0 0-.21-.56 1.06 1.06 0 0 0-.12-.2 2.35 2.35 0 0 0-.23-.32 1.54 1.54 0 0 0-.17-.19 2.17 2.17 0 0 0-.29-.24l-.21-.14a3 3 0 0 0-.36-.18l-.22-.09a3.57 3.57 0 0 0-.47-.11h-.19a3.43 3.43 0 0 0-.72 0h-.13a4.44 4.44 0 0 0-.62.1l-.25.08a5.34 5.34 0 0 0-.52.18h-.11a1.4 1.4 0 0 1-.17.09l-.45.25-.29.19-.37.27a2.75 2.75 0 0 0-.26.22 5.6 5.6 0 0 0-.41.43l-.14.15a7 7 0 0 0-.46.65 2 2 0 0 0-.1.21 3.36 3.36 0 0 0-.22.42l-2.22 5.2-18 23.65a5.54 5.54 0 0 0-.42.65s-3 5.19-7.33 6.83c-2.59 1-5.43.54-8.45-1.26 3.43-8.25 4.63-18.59 1.26-25.14-2.82-5.46-8.38-7.44-15.67-5.57a56 56 0 0 0-8.32 2.67l9.17-43.32a2.91 2.91 0 0 0-3.17-3.71 5.52 5.52 0 0 0-4.83 4.16l-11.06 52.26a12.83 12.83 0 0 0-.76 3.57l-5.06 23.93a6.29 6.29 0 0 0-.65.53c-8.82 8.43-13.43 9.73-15.77 9.28l8.1-41.44a2.92 2.92 0 0 0-3.24-3.65 5.58 5.58 0 0 0-4 2.42 5.52 5.52 0 0 0-4.91 4.06l-1.21 5.06c-3.14-1.94-6.7-3.07-12.51-2.43a11.9 11.9 0 0 0-3.41.79 13.69 13.69 0 0 0-3.78 2.48c-8.85 7.65-14.89 18.27-16.16 28.41a21.76 21.76 0 0 0 .31 7.84 6 6 0 0 0-.73.42 35 35 0 0 1-12.07 5.16 6.11 6.11 0 0 1-1.51.19c-.57-.78-.9-3.58.59-12.26.14-.85.27-1.58.35-2.14.08-.56.19-1.62.33-3 .88-8.51 1.73-13.7 2.52-15.44 1.38-1.54 1.73-3.6.73-4.92-1.15-1.53-3.66-1.49-5.6.06-1.75 1.41-3.46 2.94-5.11 4.41-3.77 3.37-7.33 6.56-11.15 8.19-.51.22-1 .41-1.57.58.15-3.39-.37-6.61-2.24-8.56-2.88-3-8.85-1.31-12.71 2a17.42 17.42 0 0 0-4.62 7.11c-.31.73-.6 1.42-.86 1.91a3.53 3.53 0 0 0 .09 4c2.22 2.6 7 3 10.79 2.79-.22.74-.46 1.45-.73 2.12l-1.15 3c-2.54 6.67-4.08 10.69-9.22 15.91-1.74 1.77-2 4.24-.56 5.51 1.44 1.27 4 .86 5.75-.91 6.77-6.89 8.92-12.5 11.63-19.62.36-.93.73-1.89 1.13-2.91a43.51 43.51 0 0 0 1.38-4.32 29.13 29.13 0 0 0 4.43-1.48 31.12 31.12 0 0 0 4.72-2.55l-1.75 18.15c-.37 1.5-1.13 5.92 1.52 8.84 5.49 6.08 21-.81 28.27-5.73a6.18 6.18 0 0 0 .74-.59 9.51 9.51 0 0 0 1.23.94c4.55 2.9 11.1 1.82 15.44 1.1h.21c4.72-.85 8.13-3.75 11.13-6.3l.39-.32a12.22 12.22 0 0 0 5.06 2.81 12.65 12.65 0 0 0 5.25.09c3.78-.68 8.07-2.84 12.81-6.47l-.11.55a2.91 2.91 0 0 0 3.16 3.71 4.52 4.52 0 0 0 .53-.06 5.59 5.59 0 0 0 4.31-4.1l.94-4.47 1.62.17c3.75.41 8.19.89 12.67.09a20.91 20.91 0 0 0 12.86-7.58c.16-.18.31-.38.46-.57a16.47 16.47 0 0 0 14 .85c7.32-2.8 11.86-9.75 12.92-11.5l14.32-18.85a76.16 76.16 0 0 1 .23 10.68v.58c-.38 5.65 1.5-3.14-7.87 3.09-4.6 3.05-7.65 10.32-2.55 15.54 7.19 7.39 18.45-1.41 22.07-8.77a17.62 17.62 0 0 0 1.68-5.78c6.26-1.45 12.25-2 14.87 1l.64 2.13c-2.14 7.91-10.54 17.1-22.58 19.26-1.23.22-128.43 27.48-153.92 32.94a5.5 5.5 0 0 0-4.23 4.58l-.33 4.13a3 3 0 0 0 .64 2.17c0 .15-.05.29-.06.43-.08 2.07 1.6 3.38 3.77 3h.17l99.1-21.59h.13c1.1-.27 2.82-.66 5-1.15 32.52-7.31 71-17.85 80.21-34.54 2.05-3.96 3.57-9.99-1.32-16.67zM89.56 228.65a12 12 0 0 1 1.75-3.23 6.5 6.5 0 0 1 2.45-1.24c.59.9.8 2.62.73 4.73a25.71 25.71 0 0 1-4.93-.26zm67.26 17.77h-.08c-4.41.72-8.25 1.21-10.55-.26-3-1.9-2.7-6.85-2.45-8.88 1-7.87 5.68-16.12 12.55-22.06a7.58 7.58 0 0 1 .68-.56c.19 0 .55-.08.8-.11 5.42-.6 7.47.82 11.49 4l-2 8.32c0 .1 0 .19-.05.28-.05.09-2.27 13.38-2.27 13.4a2.58 2.58 0 0 0 0 .39c-.68.54-1.34 1.1-2 1.65-2.63 2.21-4.22 3.49-6.12 3.83zm50.34-41.15c1.58-2 6.25-3.3 9.29-4.09 1.83.38 7.75 2.33 7.26 11.91-.29 5.57-2.51 10.21-6.26 13.07-4 3-9.43 3.81-15.32 2.15h-.05l3.72-17.61a4.28 4.28 0 0 0 .6-2.33v-.46l.46-2.17a3.18 3.18 0 0 1 .3-.47zm57.56 22.12a3.37 3.37 0 0 1-3.76-.8 2.4 2.4 0 0 1-.37-.46 11 11 0 0 1 1.35-1.7c1.56-1.7 2.74-2.31 5.59-3-1.24 4.88-2.79 5.95-2.81 5.96z" id="path314" style="fill:#fff"/><path class="cls-9" d="M102.1 275.63c-2.43-1.23-6 0-8 2.77a3.89 3.89 0 0 0-3.81-3.63 7.59 7.59 0 0 0-7.18 5.09c-2.74 8.19-10.29 14.23-18.1 18.13-8.18 4.08-20.81 10.07-26.09 3.52a29.7 29.7 0 0 1-4.91-9.32 57.6 57.6 0 0 1-2.38-20c.57-16.21 5.93-33.88 15.09-49.76 9.62-16.67 22.71-30.41 37.86-39.72a52.91 52.91 0 0 1 8.53-4.34 27.76 27.76 0 0 1 6.06 0c9 1 15.29 6.62 18.83 16.73.69 2 2.72 2.91 5 2.5a7.09 7.09 0 0 0 2-.72c.55-.29 1.13-3 1.58-3.43 1.34.16 2.81 2.18 4.24 1.24 2.87-1.87 4.18-5.31 2.94-7.67-5.57-10.59-12-17.08-19.56-19.85-12.31-4.5-27.43 2.23-39.78 11.12a130.26 130.26 0 0 0-10.7 8.07 132.78 132.78 0 0 0-26.61 32.87c-10.22 17.7-16.19 37.39-16.83 55.45-.62 17.43 3.49 30.3 12.19 38.26 9.44 8.63 24.59 5.08 38-2.66 11.62-6.72 24.56-16.36 32.45-27.43 1.98-2.77 1.6-5.95-.82-7.22z" id="path316" style="fill:#fff"/><path class="cls-9" id="polyline318" style="fill:#fff" transform="translate(-88.35 -288.1)" d="m356.46 498.29 6.01-1.91-2.48 4.29"/><path class="cls-5" d="M116.99 273.75s-1.91 6.87 4.2 6.11c0 0-6.49 1.9-3.06 7.25s-5.34 4.58-5.34 4.58l-1.53-17.18" id="path320" style="fill:#07364f"/><path class="cls-20" d="m134.51 305.9-4.86 1 .48-11.37 4.73-1c2.08-.41 3.31.48 3.23 2.27a3.53 3.53 0 0 1-1.44 2.72 2 2 0 0 1 1.79 2.41c-.08 2.18-1.64 3.52-3.93 3.97zm1.73-3.77c0-.77-.46-1.13-1.61-.9l-2.59.52-.1 2.5 2.66-.54c1-.2 1.6-.71 1.63-1.55zm-.38-4.43c0-.75-.47-1.07-1.42-.88l-2.21.45-.1 2.4 2.06-.42c1-.2 1.63-.68 1.67-1.52z" id="path454" style="fill:#3b7a91;stroke:#3b7a91;stroke-width:.40000001px;stroke-miterlimit:10"/><path class="cls-20" d="m155.01 301.79-.82-2.36-4.31.87-1 2.73-2.29.46 4.85-12.32 2.06-.42 3.88 10.57zm-2.73-7.82-1.5 4 2.7-.55z" id="path456" style="fill:#3b7a91;stroke:#3b7a91;stroke-width:.40000001px;stroke-miterlimit:10"/><path class="cls-20" d="m166.2 299.55.47-11.37 2.24-.45-.38 9.09 5.08-1-.1 2.28z" id="path458" style="fill:#3b7a91;stroke:#3b7a91;stroke-width:.40000001px;stroke-miterlimit:10"/><path class="cls-20" d="m186 286.58-.38 9.06-2.24.45.39-9.06-3.1.62.1-2.3 8.43-1.7-.1 2.31z" id="path460" style="fill:#3b7a91;stroke:#3b7a91;stroke-width:.40000001px;stroke-miterlimit:10"/><path class="cls-20" d="m197.81 293.19.48-11.36 2.24-.45-.48 11.36z" id="path462" style="fill:#3b7a91;stroke:#3b7a91;stroke-width:.40000001px;stroke-miterlimit:10"/><path class="cls-20" d="m217.82 289.17.31-7.42-3.06 5.43h-.06l-2.64-4.23-.31 7.37-2.19.44.48-11.37 2.41-.48 2.47 4.27 2.88-5.35 2.41-.48-.47 11.36z" id="path464" style="fill:#3b7a91;stroke:#3b7a91;stroke-width:.40000001px;stroke-miterlimit:10"/><path class="cls-20" d="M234.7 285.97c-3.14.63-5.29-1.53-5.15-4.76a7.53 7.53 0 0 1 5.67-7c3.14-.63 5.29 1.53 5.15 4.76a7.52 7.52 0 0 1-5.67 7zm3.33-6.5c.08-1.94-1.13-3.31-2.93-3a4.38 4.38 0 0 0-3.21 4.15c-.08 2 1.13 3.31 2.93 3a4.37 4.37 0 0 0 3.21-4.15z" id="path466" style="fill:#3b7a91;stroke:#3b7a91;stroke-width:.40000001px;stroke-miterlimit:10"/><path class="cls-20" d="m255.58 281.58-2-3.2-1.76.36-.15 3.63-2.24.45.47-11.36 4.66-.94c2.4-.48 3.78.64 3.68 3a4.74 4.74 0 0 1-2.33 4l2.31 3.56zm.35-7.49c.05-1.07-.6-1.49-1.69-1.27l-2.22.45-.14 3.26 2.27-.46a2.06 2.06 0 0 0 1.78-1.95z" id="path468" style="fill:#3b7a91;stroke:#3b7a91;stroke-width:.40000001px;stroke-miterlimit:10"/><path class="cls-20" d="m267.18 279.25.47-11.35 7.68-1.55-.1 2.23-5.45 1.09-.1 2.31 4.8-1-.09 2.23-4.8 1-.1 2.39 5.53-1.11-.1 2.22z" id="path470" style="fill:#3b7a91;stroke:#3b7a91;stroke-width:.40000001px;stroke-miterlimit:10"/></svg>