<svg xmlns="http://www.w3.org/2000/svg" xmlns:xlink="http://www.w3.org/1999/xlink" id="Layer_1" width="574.17" height="424.935" data-name="Layer 1" version="1.1"><defs id="defs62"><linearGradient id="linear-gradient" x1="173.03" x2="408" y1="427.38" y2="427.38" gradientTransform="translate(-12.67 -87.56)" gradientUnits="userSpaceOnUse"><stop id="stop4" offset="0" stop-color="#00bfbc"/><stop id="stop6" offset=".3" stop-color="#193b7a"/><stop id="stop8" offset=".47" stop-color="#2b2277"/><stop id="stop10" offset=".66" stop-color="#4a1772"/><stop id="stop12" offset="1" stop-color="#cb00ff"/></linearGradient><linearGradient id="linear-gradient-2" x1="217.21" x2="334.37" y1="451.08" y2="451.08" gradientUnits="userSpaceOnUse"><stop id="stop15" offset="0" stop-color="#381968"/><stop id="stop17" offset=".17" stop-color="#381968" stop-opacity=".95"/><stop id="stop19" offset=".38" stop-color="#381968" stop-opacity=".8"/><stop id="stop21" offset=".62" stop-color="#381968" stop-opacity=".55"/><stop id="stop23" offset=".87" stop-color="#381968" stop-opacity=".2"/><stop id="stop25" offset="1" stop-color="#381968" stop-opacity="0"/></linearGradient><linearGradient id="linear-gradient-3" x1="244.93" x2="380.31" y1="425.92" y2="425.92" gradientTransform="translate(-12.67 -87.56)" gradientUnits="userSpaceOnUse"><stop id="stop28" offset="0" stop-color="#381968" stop-opacity="0"/><stop id="stop30" offset=".17" stop-color="#381968" stop-opacity=".29"/><stop id="stop32" offset=".4" stop-color="#381968" stop-opacity=".6"/><stop id="stop34" offset=".62" stop-color="#381968" stop-opacity=".82"/><stop id="stop36" offset=".82" stop-color="#381968" stop-opacity=".95"/><stop id="stop38" offset="1" stop-color="#381968"/></linearGradient><linearGradient id="linear-gradient-4" x1="207.92" x2="293.01" y1="474.11" y2="474.11" gradientTransform="translate(-12.67 -87.56)" gradientUnits="userSpaceOnUse"><stop id="stop41" offset="0" stop-color="#381968" stop-opacity="0"/><stop id="stop43" offset=".07" stop-color="#381968" stop-opacity=".1"/><stop id="stop45" offset=".35" stop-color="#381968" stop-opacity=".49"/><stop id="stop47" offset=".61" stop-color="#381968" stop-opacity=".77"/><stop id="stop49" offset=".84" stop-color="#381968" stop-opacity=".94"/><stop id="stop51" offset="1" stop-color="#381968"/></linearGradient><linearGradient xlink:href="#linear-gradient-2" id="linear-gradient-5" x1="273.6" x2="398.4" y1="411.02" y2="411.02" gradientTransform="translate(-12.67 -87.56)"/><linearGradient id="linear-gradient-6" x1="34.22" x2="271.98" y1="301.86" y2="301.86" gradientTransform="rotate(-2.09 1243.375 -3059.1)" gradientUnits="userSpaceOnUse"><stop id="stop55" offset="0" stop-color="#00bfbc"/><stop id="stop57" offset=".46" stop-color="#00bfbc"/><stop id="stop59" offset="1" stop-color="#cb00ff"/></linearGradient><linearGradient xlink:href="#linear-gradient-2" id="linearGradient972" x1="217.21" x2="334.37" y1="451.08" y2="451.08" gradientTransform="translate(-12.67 -87.56)" gradientUnits="userSpaceOnUse"/><style id="style2">.cls-4{fill:#fff}.cls-2{fill:#6da8b5}.cls-3{fill:#381968}.cls-15{fill:none}.cls-12{fill:#10667f}.cls-15{stroke:#1e0a44;stroke-miterlimit:10;stroke-width:10.34px}</style></defs><path id="path66" d="M574.15 219.44c-.18-6.76-.88-15.39-4.43-24.21v-59.79h-55.74c-1.1 0-2.19 0-3.33.11h-29v-.11h-10.84V82.98l-11.15 2.39c-34.94 7.49-93.9 12-157.72 12h-.35c-63.69 0-122.5-4.44-157.38-11.9l-11.14-2.38v52.35H51.92c-17.91 1.15-31.4 8.27-40.08 21.15-8 11.88-11.88 27.15-11.84 46.7 0 12.56 1.29 30.93 12 45.46 9 12.22 24 18.4 40.31 16.68v48.9l12.22-4.22c73.66-25.43 148.53-38.31 222.55-38.31.08 0 .18 11.16.26 11.16 74.11 0 149.07 1.82 222.81 27.34l12.23 4.23v-49l6.07.74a45.32 45.32 0 0 0 5.87.39 36.75 36.75 0 0 0 25.17-9.49c9.57-8.65 15.05-22.73 14.66-37.73z" class="cls-2" style="fill:#6da8b5"/><path id="path68" d="M513.17 301.6c-150.13-52-301.52-52-451.65-.19v-37.84a2006.25 2006.25 0 0 1 451.65.06z" class="cls-3" style="fill:#381968"/><path id="path70" d="M564.93 219.71c-.21-8.24-1.31-16.38-5.12-24h.69v-51.06h-46.52c-1 0-2 0-3 .1h-38.56v-.1h-6.92v.1h-3.91V94.38c-75.67 16.21-243.63 16.26-319.26.06v50.18h-39c-1.1 0-2.16 0-3.2.1h-8.07v-.1H52.51c-13.59.87-25.2 5.49-33 17.1-8.26 12.25-10.29 27.52-10.27 41.54 0 13.46 1.72 28.5 10.2 40 7.69 10.43 20.27 14.5 32.93 12.87 3.67-.44 5.51-.66 9.18-1.08v.11a2005.67 2005.67 0 0 1 451.65.07v-.12q8.22.94 16.44 2c23.25 3.04 35.84-16.67 35.29-37.4z" class="cls-3" style="fill:#381968"/><path id="path72" d="M75.19 162.03v13q-11.36.34-22.71.72c-13.89.47-16.19 14.4-16.28 25.76-.09 10.7 2.25 25.25 16.21 23.62q11.34-1 22.68-1.86v13q-11.34 1-22.67 2.16c-21.71 2.43-26.16-19.53-26.44-36.22-.3-17.28 5.3-39.45 26.55-39.7z" class="cls-4" style="fill:#fff"/><path id="path74" d="M132.63 161.17v12.33q-14.72.33-29.42.71c-6.18.16-8.88 3.8-8.9 9.41 0 5.93 3 8.49 8.94 8.24q14.44-.59 28.9-1.1v11.18q-14.58.64-29.15 1.39c-5.92.31-9 3.39-9 9.32 0 5.72 2.84 9 8.85 8.56q14.86-1 29.75-1.85v12.33q-14.88 1-29.76 2.15c-12.06 1.29-19.5-6.86-19.51-18.43 0-6.62 2.37-13.81 8.47-17.32-6.14-2.88-8.28-9.92-8.23-16.15.11-11.7 7.48-20.46 19.71-20.36q14.65-.22 29.35-.41z" class="cls-4" style="fill:#fff"/><path id="path76" d="m153.95 160.93-.11 45.37c0 6.87 4.55 12.48 12 11.38q11.4-.51 22.82-.92v11.9q-11.73.51-23.44 1.1c-14.34 1.07-21.83-9.53-21.62-22.92l.11-45.8z" class="cls-4" style="fill:#fff"/><path id="path78" d="M243.62 160.28v11.67q-14.71.09-29.43.24c-6.19.06-8.89 3.4-8.9 8.6 0 5.5 3 7.95 9 7.85q14.47-.22 28.93-.38v10.57q-14.61.19-29.2.48c-5.92.13-9 2.9-9 8.41 0 5.3 2.86 8.41 8.87 8.25q14.91-.37 29.81-.64V227q-14.91.29-29.82.74c-11.35.63-19.55-6.41-19.58-17.81 0-6.26 2.56-12.82 8.49-15.78-5.89-2.64-8.3-9.07-8.25-15.1.1-11.46 8.25-18.81 19.72-18.63z" class="cls-4" style="fill:#fff"/><path id="path80" d="M300.65 160.21v11.61h-30.14c-5.31 0-7.66 3.27-7.67 7.9 0 4 1.83 7.87 8.71 7.84h13.77c12.27-.37 19.77 7.85 19.79 19.62 0 11.27-6.94 19.7-18.75 19.42q-16.4 0-32.79.24V215.2q16.56-.21 33.13-.2c5.58 0 8.11-3.43 8.11-8.25 0-4.33-2-8.28-9.24-8.27h-13.68c-12 .41-19.33-7.6-19.33-19.11 0-11 6.71-19.43 18.3-19.17q14.9.01 29.79.01z" class="cls-4" style="fill:#fff"/><path id="path82" d="M352.33 160.38v11.73q-8.57-.07-17.15-.13l.06 55.11c-4.15-.09-6.22-.13-10.37-.19l-.06-55-17.15-.07v-11.62q22.3.06 44.67.17z" class="cls-4" style="fill:#fff"/><path id="path84" d="M370.48 160.49q.08 33.79.13 67.59c-4.11-.15-6.17-.21-10.28-.34l-.12-67.3z" class="cls-4" style="fill:#fff"/><path id="path86" d="m388.91 228.8-11.32-.46q10.33-30 20.51-60c1.64-5.64 6.73-8.78 12.34-8.72a12.4 12.4 0 0 1 12.21 9.08q10.13 31.5 20 63.08c-4.56-.31-6.84-.45-11.4-.73q-8.91-28.36-18-56.66a2.92 2.92 0 0 0-2.88-2.4c-1.39 0-2.35.67-2.95 2.3q-9.17 27.27-18.51 54.51z" class="cls-4" style="fill:#fff"/><path id="path88" d="M455.71 161.36q0 23.29.11 46.59c0 7 4.41 13.2 12 13q11.4.75 22.79 1.61v12.85q-11.68-1-23.39-1.92c-14.47-.53-21.65-12.69-21.73-26l-.12-46.32z" class="cls-4" style="fill:#fff"/><path id="path90" d="M543.76 162.88v13.6q-15-.54-30.09-1c-5.3-.17-7.65 3.41-7.64 8.61 0 4.54 1.85 8.94 8.71 9.29 5.5.28 8.25.42 13.74.72 13.73.44 19.68 11.84 19.74 24.17.05 11.37-5.41 22.72-18.64 20.92q-16.32-1.7-32.66-3.16v-12.94q16.52 1.28 33 2.75c5.56.5 8.07-3.28 8.06-8.89 0-5-2-9.76-9.21-10.25l-13.65-.9c-12.84-.57-19.27-10.65-19.34-22.55-.06-11.15 5.76-21.45 18.23-20.92q14.87.24 29.75.55z" class="cls-4" style="fill:#fff"/><path id="path92" d="M191.49 133.81a4.68 4.68 0 0 0 2-4.19c0-2.13-.88-5.71-6.76-5.71h-8.16a1.89 1.89 0 0 0-2.1 2.09v15.76a1.89 1.89 0 0 0 2.1 2.09h8.24c4.3 0 6.77-2.09 6.77-5.75a4.88 4.88 0 0 0-2.09-4.29zm-10.69-5.55h6.06c1.53 0 2.27.62 2.27 1.89 0 .89-.28 1.7-2.3 1.7h-6zm6.11 11.18h-6.11v-3.76h6.11c2.06 0 2.3 1.06 2.3 1.86s-.24 1.9-2.3 1.9z" class="cls-2" style="fill:#6da8b5"/><path id="path94" d="M221.96 137.63c0-.81.26-1.73 2.27-1.73h9.76v-4.1h-9.66c-2 0-2.27-.85-2.27-1.67s.23-1.82 2.24-1.82h9.84v-4.4h-9.81c-4.3 0-6.77 2.07-6.77 5.69a4.84 4.84 0 0 0 2 4.24 4.93 4.93 0 0 0-2.06 4.32c0 3.62 2.46 5.69 6.74 5.69h10v-4.41h-10c-2.28 0-2.28-1.36-2.28-1.81z" class="cls-2" style="fill:#6da8b5"/><path id="rect96" d="M259.21 123.91h4.36v19.94h-4.36z" class="cls-2" style="fill:#6da8b5"/><path id="path98" d="M297.33 136.76c0 1.25-.37 2.68-3.24 2.68h-6.65v4.41h6.89c4.78 0 7.42-2.51 7.42-7.06v-12.88h-4.42z" class="cls-2" style="fill:#6da8b5"/><path id="rect100" d="M326.89 123.91h4.36v19.94h-4.36z" class="cls-2" style="fill:#6da8b5"/><path id="path102" d="M373 139.36c0 .21-.06.5-.54.5a.68.68 0 0 1-.67-.45l-5.4-12c-.68-1.91-1.81-3.86-5-3.86-3 0-4.81 1.74-4.81 4.66v15.62h4.35v-15.39c0-.32.1-.53.57-.53.31 0 .46.06.65.48l5.39 12c.64 1.79 1.8 3.85 5.06 3.85 3 0 4.81-1.75 4.81-4.68v-15.65h-4.38z" class="cls-2" style="fill:#6da8b5"/><path id="path104" d="M414.64 131.52h-5v4h4.69c1.16 0 1.72.6 1.72 1.84a1.82 1.82 0 0 1-2 2.09h-3.07c-3.3 0-4.58-1.55-4.58-5.55s1.28-5.58 4.58-5.58h8.19v-4.4h-8.19c-5.85 0-8.94 3.45-8.94 10s3.09 10 8.94 10h2.85c4 0 6.33-2.35 6.33-6.44-.04-3.81-2.04-5.96-5.52-5.96z" class="cls-2" style="fill:#6da8b5"/><path id="path106" d="M187.43 58.14c75.91 39.13 152.46 39.17 228.37.14v36.91a683.08 683.08 0 0 1-228.37-.05z" class="cls-2" style="fill:#6da8b5"/><path id="path108" d="M352.4 72.94C333.84 56.23 311.27 31.16 299.07 0c0 0-9.94 34.86-51.92 72.23a303.75 303.75 0 0 0 105.25.71z" class="cls-2" style="fill:#6da8b5"/><path id="path110" d="M348.78 254.67v-17.84l8.49-17s20.93-26.07 46.35 11.92l6.59 18.32v7.37" class="cls-3" style="fill:#381968"/><path id="path112" d="M366.09 259.63c-60.46 8.47-97.42 29.41-97.42 29.41l16.72 6.8-82.06 59.6 20.4 3-35.3 30.26c-6.12 5.24-27.83 18.42-22.25 28.76 3.2 5.94 15.93-.07 20.54-1.16l135-38.53-18-12.34 86.76-18.84" style="fill:#1e0a44;stroke:url(#linear-gradient);stroke-width:9.76000023px;stroke-linecap:round;stroke-linejoin:round"/><path id="path114" d="m207.41 356.01 16.29 2.43-3.87 3.31c16.66 7 38 13.71 60.79 19.1 5.8 1.37 11.55 2.61 17.2 3.74l23.88-6.82-14.28-9.79c-7.39-1.36-15-2.95-22.64-4.75-21.52-5.08-42-11.5-57.71-18.08-2.18-.91-4.16-1.78-6-2.61l-16.55 12c.97.48 1.92.98 2.89 1.47z" style="fill:url(#linearGradient972)"/><path id="path116" d="M360.01 347.82c-17.36-7.9-41-15.57-66.5-21.59-13.7-3.24-27.11-5.8-39.54-7.59l-21.71 15.8c16.51 1.3 36.65 4.63 57.09 9.45a417.27 417.27 0 0 1 48 14.24l30.33-6.59c-2.57-1.34-5.14-2.57-7.67-3.72z" style="fill:url(#linear-gradient-3)"/><path id="path118" d="M217.23 376.65a75.13 75.13 0 0 1-8.89-5.08l-13.09 11.21a85.84 85.84 0 0 0 14.63 8.93 134.79 134.79 0 0 0 28.45 9.83l42.06-12c-24.06-.1-46.4-4.71-63.16-12.89z" style="fill:url(#linear-gradient-4)"/><path id="path120" d="M353.08 310.31c-18.38-9-42.37-14.11-67.9-14.56l.21.09-24.46 17.75a186.26 186.26 0 0 1 20.55-1.15c24.41 0 47.23 4.58 64.25 12.89 14.89 7.27 23.43 16.62 23.43 25.65v.16l16.57-3.6c-1.56-14.51-13.01-27.64-32.65-37.23z" style="fill:url(#linear-gradient-5)"/><path id="path122" d="M366.09 259.63c-60.46 8.47-97.42 29.41-97.42 29.41l16.72 6.8-82.06 59.6 20.4 3-35.3 30.26c-6.12 5.24-27.83 17.3-22.25 27.65 3.24 6 11.63 2.47 16.44.95 18.87-6 37.75-11.86 56.84-17.07l76.59-20.91 5.68-1.55-18-12.34 86.76-18.84" style="fill:none;stroke:url(#linear-gradient-6);stroke-width:10.27999973px;stroke-linecap:round;stroke-linejoin:round"/><path id="polygon124" d="m326.45 412-10.28-2.39 10.23-3.65 4.57-12.27 3.53 11.45 11.54 3.73-10.95 3.16-3 12.38z" class="cls-4" style="fill:#fff" transform="translate(-12.67 -87.56)"/><path id="polygon126" d="m366.68 469.72-8.58-9.09 12.49 3.09 12.53-9.11-4.01 13.6 8.94 11.23-12.86-4.04-11.07 10.25z" class="cls-3" style="fill:#381968" transform="translate(-12.67 -87.56)"/><path id="polygon128" d="m266.03 459.92-6.88 1.42 5.17-5.06-.66-8.69 5.32 5.94 8.02-.96-5.74 4.96 1.64 8.32z" style="fill:#953da5" transform="translate(-12.67 -87.56)"/><circle id="circle130" cx="300.78" cy="347.3" r="3.91" class="cls-12" style="fill:#10667f"/><circle id="circle132" cx="172.58" cy="366.08" r="8.66" class="cls-12" style="fill:#10667f"/><circle id="circle134" cx="332.86" cy="396.8" r="4.19" class="cls-2" style="fill:#6da8b5"/><circle id="circle136" cx="189.89" cy="339.84" r="4.19" class="cls-2" style="fill:#6da8b5"/><circle id="circle138" cx="256.84" cy="337.72" r="4.47" style="fill:#163f7a"/><circle id="circle140" cx="225.91" cy="386.07" r="4.19" class="cls-4" style="fill:#fff"/><circle id="circle142" cx="324.55" cy="286.36" r="3.63" style="fill:#552089"/><circle id="circle144" cx="395.29" cy="299.52" r="49.43" class="cls-2" style="fill:#6da8b5"/><ellipse id="ellipse146" cx="348.772" cy="362.223" class="cls-12" rx="34.02" ry="42.13" style="fill:#10667f" transform="rotate(-10.15)"/><path id="path148" d="M396.81 354.68c1.22 1.31 2.42 2.51 3.62 3.58z" class="cls-4" style="fill:#fff"/><circle id="circle150" cx="395.29" cy="299.52" r="49.43" class="cls-15" style="fill:none;stroke:#1e0a44;stroke-width:10.34000015px;stroke-miterlimit:10"/><path id="path152" d="M427.61 261.93s-7 16.83-33.74 11.52c-22.29-4.43-38.09 2.15-45.9 11.74" class="cls-15" style="fill:none;stroke:#1e0a44;stroke-width:10.34000015px;stroke-miterlimit:10"/><path id="path154" d="M358.59 332.63c13.23 3.5 30.09 2 41.69-4.73 11.81-6.85 17.91-17.7 30.64-23.06a45.67 45.67 0 0 1 13.91-3.31" class="cls-15" style="fill:none;stroke:#1e0a44;stroke-width:10.34000015px;stroke-miterlimit:10"/><path id="path156" d="M445.65 279.72a657 657 0 0 1-63.32 22.87l-34.67 10.26" class="cls-15" style="fill:none;stroke:#1e0a44;stroke-width:10.34000015px;stroke-miterlimit:10"/><path id="path158" d="M427.65 343.68c-.45-13-3.08-25.93-6.44-38.46q-2.47-9.22-5.63-18.26c-6.84-19.55-15.49-37.23-24.35-49.79-4.51-6.39-9.77-13.18-17-16.61-6-2.85-14.2-2.63-19.1 2.42-6.94 7.15-7.05 24.13-6.34 33.92l10.05-1.12c-1.07-16.5 4.09-24.55 5.05-24.88 1.34-.48 7 2.33 15 13.69 8.25 11.7 16.37 28.35 22.86 46.9 6.49 18.55 10.52 36.64 11.35 50.93.81 13.89-1.85 19.59-3.19 20.06-.49.17-2.74-.24-6.65-3.83a45.57 45.57 0 0 1-13.58 2.39l-.1.09c7.37 8.95 14.25 13.35 20.5 13.12a12.36 12.36 0 0 0 3.7-.7c2.35-.82 4.66-1.41 6.57-3.07 3.48-3 5.28-7 6.24-11.46a62.08 62.08 0 0 0 1.06-15.34z" class="cls-12" style="fill:#10667f"/><path id="path160" d="M229.97 286.51c-5 .18-8.25 4.13-11.94 7l-10 7.63-22.51 17.23-4.29 3.28 19-4.91 27.27-7c3.49-.9 7.15-1 10-3.46a11.17 11.17 0 0 0-7.61-19.7z" class="cls-3" style="fill:#381968"/></svg>