<svg xmlns="http://www.w3.org/2000/svg" id="Layer_1" width="583.2" height="392.4" version="1.1"><defs id="defs4"><style id="style2">.cls-3{stroke:#8d8066}.cls-3,.cls-4,.cls-5{stroke-miterlimit:10}.cls-7{fill:#141a3e}.cls-10,.cls-4{fill:#345cb8}.cls-3{fill:#e1dcd4;stroke-width:2.78px}.cls-4{stroke:#345cb8;stroke-width:.99px}.cls-5{fill:none;stroke:#141a3e;stroke-width:19.83px}</style></defs><g id="g76" transform="translate(-8.5 -103.8)"><path id="path8" fill="#8d8066" stroke="#8d8066" stroke-miterlimit="10" stroke-width="5" d="M588.5 111.3a8 8 0 0 0-7.7-5l-66.5 2.8c-3 0-13.1.6-24.7 4.7a62.4 62.4 0 0 0-34.9 28.3l-4.3 8-31 12.6a179.7 179.7 0 0 0-267 94.6h-.1a84.5 84.5 0 0 0-40.9-10 92 92 0 0 0-33.4 6.2c-25.1 10-46 30.6-58.7 58-11.3 24.2-11 47.9.5 66.7 1.2 2 2.4 3.7 3.8 5.5a39.5 39.5 0 0 0-5.2 22.2l.2 3.3A57.2 57.2 0 0 0 76 468c14.8 0 29.3-5.4 40.8-15.3a36.3 36.3 0 0 0 10.5 1.6c9 0 17.6-3.3 24.3-9.2a36.8 36.8 0 0 0 15.2.1l27.8-5.4 1.3 1.3a179 179 0 0 0 196.9 38.5 179 179 0 0 0 91-85.6h.1a82.2 82.2 0 0 0 48.1-28.7 52 52 0 0 0 11-46.9 59.7 59.7 0 0 0-29.4-36.2c-2.2-4.7-4.6-8.6-6.6-12l-2-3.2c-2.9-5.7-7-10.5-12-14.1l9.9-9.2c24-13.9 38.8-27.6 45.4-41.7a7.9 7.9 0 0 0 2.3-6 40 40 0 0 0-5.8-37l7.5-9.3 3.8-3.4 30.1-26a8 8 0 0 0 2.2-9z" style="stroke-miterlimit:10;stroke:#8d8066;fill:#8d8066;stroke-width:4.97px"/><g id="g16"><circle id="circle10" cx="322.8" cy="314.1" r="156.5" fill="#a51e2d" style="fill:#a51e2d"/><ellipse id="ellipse12" cx="322.8" cy="294.4" fill="#d5343f" rx="156.5" ry="136.7" style="fill:#d5343f"/><path id="path14" fill="#141a3e" d="M322.8 485.8a170.5 170.5 0 0 1-121.4-50.3 171 171 0 0 1-36.8-188.2A171.2 171.2 0 0 1 256 156a170.7 170.7 0 0 1 133.6 0 171.2 171.2 0 0 1 91.4 91.3 170.7 170.7 0 0 1 0 133.6 171.2 171.2 0 0 1-91.4 91.4c-21.1 9-43.6 13.5-66.8 13.5zm0-313c-37.7 0-73.2 14.7-100 41.4a140.4 140.4 0 0 0-41.3 100 140 140 0 0 0 41.4 99.8 140.4 140.4 0 0 0 100 41.4 140 140 0 0 0 99.8-41.4 140.4 140.4 0 0 0 41.4-99.9c0-37.7-14.7-73.2-41.4-100a140.4 140.4 0 0 0-99.9-41.3Z" class="cls-7"/></g><path id="line18" fill="none" stroke="#141a3e" stroke-miterlimit="10" stroke-width="19.8" d="M363.3 455.5 260.2 172.8" class="cls-5"/><path id="path20" fill="#141a3e" d="M514.5 117c-4.2.1-37.7 1.6-52.8 29l-5.8 10.3-182.8 75.1 156.3 4.4-4.6 12.8-.6.2-41 94 115-105.5c23.7-13.7 38-26.9 43.5-40l1-.8-.8.3.4-1c6.9-18.9-1.9-29.8-6.6-35.7l-1-1.2 11.8-14.7 4.4-3.9 30.2-26-66.6 2.8z" class="cls-7"/><path id="path22" fill="#141a3e" d="M535.3 320.4a52.3 52.3 0 0 0-28-32.5c-2.1-5.3-4.9-9.8-7.1-13.5l-2.3-3.8c-5-10.1-15-16.5-26-16.7-10-37.2-38.2-31.2-38.2-31.2l-282.9 42.8a76.4 76.4 0 0 0-39.4-10.3c-10.4 0-21 2-30.5 5.7a103.3 103.3 0 0 0-54.4 54c-10.1 21.7-10 42.7 0 59.2a60 60 0 0 0 7.1 9c-5 6-7.8 14-7.3 22.3l.3 3.7a49.3 49.3 0 0 0 49.3 51 55.2 55.2 0 0 0 39-16.5 29.2 29.2 0 0 0 34.4-7.5 28.9 28.9 0 0 0 15.9 1.4 5365 5365 0 0 1 235.1-41.7 1669 1669 0 0 1 80-9.4l2.5-.3a74.7 74.7 0 0 0 43-25.8c9.7-12 13.1-26 9.5-39.9z" class="cls-7"/><g id="g40"><path id="path24" fill="#345cb8" stroke="#345cb8" stroke-miterlimit="10" stroke-width="1" d="m194.1 296.4-4 4.1-10.4 1.4 2.7-21.6 10.5-1.5 3 3.2-.7 5.4-2 2 1.6 1.6-.7 5.4zm-3.3-1 .3-2.4-1.2-1.3-5.6.8-.6 5.4 5.5-.8zm1.1-9 .3-2.5-1.2-1.2-5.5.7-.7 5.4 5.5-.7z" class="cls-4"/><path id="path26" fill="#345cb8" stroke="#345cb8" stroke-miterlimit="10" stroke-width="1" d="m221.5 296.2-14 1.9 2.8-21.7 14-1.9-.5 3.6-10.5 1.5-.6 5.4 5.2-.7-.5 3.6-5.2.7-.7 5.4 10.5-1.4z" class="cls-4"/><path id="path28" fill="#345cb8" stroke="#345cb8" stroke-miterlimit="10" stroke-width="1" d="m249.4 292.3-14 2 2.8-21.7 3.4-.5-2.2 18 10.4-1.4z" class="cls-4"/><path id="path30" fill="#345cb8" stroke="#345cb8" stroke-miterlimit="10" stroke-width="1" d="m277.7 284.9-4 4-7 1-3-3.1 1.9-14.4 3.9-4.1 7-1 3 3.1-.2 1.8-3.5.5v-.3l-1.2-1.3-4.1.6-1.6 1.7-1.5 11.5 1.3 1.2 4-.5 1.7-1.7.3-2.1-1.8.2.5-3.6 5.2-.7z" class="cls-4"/><path id="path32" fill="#345cb8" stroke="#345cb8" stroke-miterlimit="10" stroke-width="1" d="m306.7 272-4 4.1 2.4 8.5-3.8.6-2.6-8.6-3 .4-1 9-3.5.6 2.7-21.7 10.4-1.4 3 3zm-3.3-1 .3-2.5-1.2-1.2-5.6.7-.7 5.4 5.6-.7z" class="cls-4"/><path id="path34" fill="#345cb8" stroke="#345cb8" stroke-miterlimit="10" stroke-width="1" d="m332.9 280.8-3.6.5-.4-3.5-5 .7-1.3 3.7-3.6.5 7.8-22.3 3.7-.6 2.4 21zm-4.4-6.5-.8-6.5-2.4 7 3.2-.5z" class="cls-4"/><path id="path36" fill="#345cb8" stroke="#345cb8" stroke-miterlimit="10" stroke-width="1" d="m361.3 273.3-4 4.1L347 279l2.7-21.7 10.4-1.5 3 3.2zm-3.3-1 1.4-11.5-1.2-1.2-5.6.7-1.8 14.5 5.6-.8 1.6-1.7z" class="cls-4"/><path id="path38" fill="#345cb8" stroke="#345cb8" stroke-miterlimit="10" stroke-width="1" d="m388.7 273-14 2 2.8-21.7 13.9-1.9-.5 3.6-10.4 1.5-.7 5.4 5.2-.7-.4 3.6-5.2.7-.7 5.4 10.4-1.4z" class="cls-4"/></g><path id="path42" fill="#e1dcd4" stroke="#8d8066" stroke-miterlimit="10" stroke-width="2.8" d="M79.5 362.2c-7.9-2.4-15.3-4.6-18.3-9.5-3.7-6-.2-15.5 2.2-20.7a64 64 0 0 1 32.5-33.2c14.5-5.8 31.3-3 40.8 7a9 9 0 1 0 12.9-12.5 50.7 50.7 0 0 0-28.7-14.5 60.5 60.5 0 0 0-31.5 3.4c-17.8 7-32.8 22-42.2 42.3-6.8 14.7-7.2 27.7-1.2 37.6 6.6 10.6 18.1 14.1 28.3 17.2 8.3 2.5 15.5 4.6 18.2 9.7 1.8 3.4 1.4 8.2.7 11.6-1.3 6.4-4 11.7-7.8 15-3.7 3.2-8.8 4.5-12.7 3.2-3.3-1-6-4.7-5.4-7.7v-2L67 403a9 9 0 0 0-18 1l.4 5.3A25.7 25.7 0 0 0 67 435.8a28 28 0 0 0 8.8 1.4c7.5 0 15.1-2.9 21.2-8.2a44 44 0 0 0 13.6-24.8c1.9-9.2 1-17.2-2.5-23.7C102 369 90 365.4 79.5 362.2z" class="cls-3"/><path id="polyline44" fill="#141a3e" d="m422.6 295.5 33.4-25.3-21.2-14.5-13.6 5.6" class="cls-7"/><g id="g50"><path id="polygon46" fill="#766047" d="m422.2 288.2 49-45-36.4 16.1z" style="fill:#766047"/><path id="path48" fill="#8d8066" d="M536.4 134.7c1.6-1.6 3.5-3.2 5.5-5l-27 1.2s-29 0-41 21.8l47.9-11.3-17 7.7-35.3 16.3-124.3 57 23.2-.1 141.1-64.8c-.9 2.8-2 5.5-3.3 8.2L383 222.2l24.3-.1 88.8-40.8a135 135 0 0 1-10 11.2L422 222l27.3-.2-10.1 28s79.6-29.7 90.2-58.8c7.7-21.2-14.1-22.4-8.4-37.2l15.5-19.1z" style="fill:#8d8066"/></g><path id="path52" fill="none" stroke="#141a3e" stroke-miterlimit="10" stroke-width="19.8" d="M386.7 385s22.2 27.4 51.9 34.4" class="cls-5"/><path id="path54" fill="none" stroke="#141a3e" stroke-miterlimit="10" stroke-width="19.8" d="M286 402.2s21.9 35.3-13.6 57.8" class="cls-5"/><path id="path56" fill="none" stroke="#141a3e" stroke-miterlimit="10" stroke-width="19.8" d="M334.1 212.1s-17.4-35 12.4-48" class="cls-5"/><path id="path58" fill="none" stroke="#141a3e" stroke-miterlimit="10" stroke-width="19.8" d="M201.3 217.4s35.3-4.4 46 38.3" class="cls-5"/><path id="polyline60" fill="#141a3e" d="m506.6 126.8-2.3 11.6 23-11.6" class="cls-7"/><path id="polygon62" fill="#345cb8" d="m426.2 244.5-153.1-13.1 156.3 4.4z" class="cls-10"/><path id="polygon64" fill="#345cb8" d="m429.4 235.8-16.8 5.1v33.6z" class="cls-10"/><path id="path66" fill="#141a3e" d="M109.2 414c1-2.4 1.8-5 2.5-7.7l-54.8 25.1c1.7 1.6 3.7 3 5.7 4z" class="cls-7"/><g id="g72"><path id="path68" fill="#141a3e" d="M69.5 414.6a5 5 0 0 1-.9-3.2c.2-.8.2-1.6.1-2.4v-.7l-20 9.3a22 22 0 0 0 2 5.6l18.8-8.6z" class="cls-7"/><path id="path70" fill="#141a3e" d="m112.4 388.3-20.1 9.2a31 31 0 0 1-1.7 7.4l22.4-10.3a32 32 0 0 0-.6-6.3z" class="cls-7"/></g><path id="path74" fill="#e1dcd4" stroke="#8d8066" stroke-miterlimit="10" stroke-width="2.8" d="m185 331 9-1.2c3.9-.9 8-1.8 11.4-1.8 3.2 0 5 .7 5.5 1.3.3.3.5 1.1.6 2l-.8 7.2c-6-.4-12.1 1.2-12.2 1.2-8.8 2.3-18.3 17-18.8 18-1.3 2.5-2.5 5-4.1 6.8l-.3.3a15 15 0 0 1-3.3 3 14 14 0 0 1-3.4-2.4l-2-1.5a3 3 0 0 1-.8-.9c1.3-1.9 2.3-3.9 3.2-6a27.5 27.5 0 0 0-.7-23.8 16.7 16.7 0 0 0-12.5-8.6c-8.1-1-17.3 3.9-22.8 11.7a25 25 0 0 0-9-7.1h-.1c-2.4 3.4-4 8.1-4.8 11.2 4.1 2 7.2 6.9 7.7 12.4l.3 1.2-.3 2.6c-1.2 9.9-2 20.2-2.9 30.2-.8 9.9-1.7 20-2.8 29.8a6.2 6.2 0 1 0 12.2 1.4c1.2-9.9 2-20.2 2.9-30.2l.4-5.1a46.2 46.2 0 0 0 21-10.3l1.8 1.4 1.5 1.2c2.2 1.8 5.3 4.3 9.4 4.9l1.8.1c5.5 0 9.4-4 11.9-6.6l1.6 1.2a19 19 0 0 0 9.7 2.3 26.6 26.6 0 0 0 23-13.3l1.7 3.2a6.1 6.1 0 0 0 6 3.3l10.2-1c2-.3 3.9-1.5 4.8-3.3a54.5 54.5 0 0 0 5.3-31.5l-.1-7 1.7 1 6.3 3.1c-1.2 8.5-.5 13.2.6 21.5l.2 1.5c.4 2.7 1 6.8 3.9 9.8 4.7 4.9 11.3 2.6 15.7 1.1l3-1c1 0 2-.5 2.9-1l2-1.6a6 6 0 0 0 1.8-2.1 54.5 54.5 0 0 0 5.3-31.5l-.2-7 1.8 1 6.2 3.1c-1.1 8.5-.5 13.2.7 21.5l.2 1.5c.3 2.7.9 6.8 3.8 9.8 2.8 3 8.5 5.3 19.1 0 4-2 7-5 9.7-8a17.8 17.8 0 0 0 13.2 3c12.6-1.7 24-15.3 25.8-30.9.3-2 .3-3.9.3-5.7l5.2-3c-.2 5.3-.2 10.5 0 16.6 0 3.6.1 10.2 4.7 14.4a9.3 9.3 0 0 0 8.1 2.5c2.1-.5 3.7-1.6 5-2.6 2.8-2.3 5.4-4.9 7.6-7.6.7 1.5 1.6 3 3 4.3a9.3 9.3 0 0 0 8.1 2.5c2.1-.5 3.7-1.6 5-2.6a49 49 0 0 0 8.1-8.3c.7 1.8 1.7 3.5 3.3 5a9.3 9.3 0 0 0 7.8 2.4l5.7-.8a6 6 0 0 0 3.7-2c2-1.4 4-3 5.8-5 .6.5 1.2 1 2 1.4a36.2 36.2 0 0 0 20.4 3.2l3.9-.1c2.2 0 4.2-1.3 5.3-3.2 2.2-4 4.3-8.7 5.4-14.4h3c4.3 2 8.9 6 10 10.2.7 2.8-.2 5.6-2.7 8.7a40.1 40.1 0 0 1-20.7 13.3h-.8a1653 1653 0 0 0-81.8 9.7 5871 5871 0 0 0-238.7 42l-2 14s-1 2.6 3.3 1.8c.4 0 .7-.4 1.1-.5 1.5-.3 144.2-31.7 238-45.1 36.7-5.3 66.7-8.3 81.2-9.6l1.3-.1a51.8 51.8 0 0 0 28.6-17.7c6.4-7.8 6.3-15 5.1-19.6-2.5-9.6-11.4-16.2-18.3-18.9-.7-.3-1.5-.4-2.2-.4h-4a49.2 49.2 0 0 0-8-20.6l-3.2-5.5a7 7 0 0 0-7.2-4c-1.6.1-4 1-5.7 4.2-3.7 6.4-6 12.2-8.5 18.4l-3.1 7.5a46.6 46.6 0 0 1-14.7 20.4l-2 .3a155.2 155.2 0 0 1 1.5-37.5 6.1 6.1 0 0 0-12.2-2.1c-1.6 9.4-2 16.5-2.2 24.1l-5 8.3-.3.3c-1.7 3.1-4 6-6.6 8.6l-.1-2.9a421.6 421.6 0 0 1-.1-7.9c0-8 .4-15 2-25a6.1 6.1 0 0 0-12.1-2 148.6 148.6 0 0 0-2.2 26.2l-4.1 5.7-.5.7c-1.7 3.1-4 6-6.6 8.6l-.1-2.9c-.2-12-.3-20 2-32.9a6.1 6.1 0 1 0-12.2-2l-.6 3.8-2.1 1.1a253 253 0 0 0-8 4.3 18 18 0 0 0-18.9-9.3c-12.6 1.9-24 15.4-25.8 31a31 31 0 0 0 1.4 14l-.4.6a26.9 26.9 0 0 1-7.3 6.6 18 18 0 0 1-5 1.8l-.3-2.2-.2-1.6c-1.3-9.2-1.8-12.6 0-22.5.6-2.9-1-5.8-3.9-6.8-3-1.2-6.2-2.8-9.5-4.5a93.7 93.7 0 0 0-11-5.2 6.2 6.2 0 0 0-8.3 5.3 112.5 112.5 0 0 0-.1 20.5c.3 8.5-.8 15.2-3.4 20.8l-3.5 1c-.9.3-2.1.8-3.1 1l-.3-1.9-.2-1.5a56.8 56.8 0 0 1 0-22.5c.6-3-1-5.8-3.9-6.8-3-1.2-6.2-2.8-9.5-4.5a94.4 94.4 0 0 0-11-5.2 6.2 6.2 0 0 0-8.2 5.2 112.5 112.5 0 0 0-.2 20.6c.3 7.7-.6 13.9-2.7 19.2l-2.6.2-6.5-12.4.4-4.2.6-4.8c.5-1 .8-2.3.7-3.5l-.2-1.3v-.4c.2-1.4 0-2.7-.7-3.8-.5-1.9-1.4-3.8-2.8-5.6-3.1-3.7-8.4-5.8-14.8-5.8h-.2a67 67 0 0 0-14.1 2.2l-3.4.7L185 331zm-27.3 21.3a33.5 33.5 0 0 1-20 17.6L139 358a36 36 0 0 1 3.4-13.6c2.7-4.8 7.7-7.7 11.2-7.7h.6c.6.1 2.2.3 3.5 2.5a16 16 0 0 1 0 13zm49 6.7a14.6 14.6 0 0 1-10.9 5.6c-2.5.2-3.8-.5-4.1-.7 0-.2 0-1 .8-2.6 3.2-6.3 5.5-8.7 9.1-9.7a28 28 0 0 1 7.7-.9c-.4 3.5-1 6-2.5 8.3zm143-52h1c1.6 0 3 .5 4.1 1.6.6.6 1.2 1.4 1.6 2.3-2.8 2-6.2 4.7-8.2 4.5-.7 0-2.1-2.4-3-3.6l-1.3-2.1c1.8-1.4 3.8-2.4 5.8-2.6zm-7.3 34a6 6 0 0 1-5.2-1.7L336 338l-.1-.2a16.9 16.9 0 0 1-1.6-10.4c.3-2.4 1-4.8 1.8-7 2.2 3.1 5.4 6.7 10.7 7.3h1.6c3 0 5.8-.9 8.3-2.2-2.5 8-8.5 14.7-14.3 15.5zm131.2-16.5h-.4c-5.2.2-9.8.4-13.2-1.2a14 14 0 0 1 2-1.2 38 38 0 0 1 13.6-2.9 33 33 0 0 1-2 5.3zm-7.8-16.4 1.7-4c1.3-3.2 2.5-6.3 3.9-9.4a33 33 0 0 1 4.7 10.7l.2 1.5c-3.5.2-7 .5-10.5 1.2z" class="cls-3"/></g></svg>