<svg xmlns="http://www.w3.org/2000/svg" id="Layer_1" width="583.24" height="392.42" version="1.1">
  <defs id="defs4">
    <style id="style2">
      .cls-3{stroke:#8d8066}.cls-3,.cls-4,.cls-5{stroke-miterlimit:10}.cls-7{fill:#141a3e}.cls-10,.cls-4{fill:#345cb8}.cls-3{fill:#e1dcd4;stroke-width:2.78px}.cls-4{stroke:#345cb8;stroke-width:.99px}.cls-5{fill:none;stroke:#141a3e;stroke-width:19.83px}
    </style>
  </defs>
  <g id="g76" transform="translate(-8.5 -103.8)">
    <path id="path8" d="M588.46 111.29a7.94 7.94 0 0 0-7.71-5l-66.46 2.82c-2.99.06-13.12.6-24.73 4.69-15.57 5.49-27.62 15.29-34.83 28.33l-4.36 7.89-30.91 12.7a179.68 179.68 0 0 0-26.74-14.06 178.53 178.53 0 0 0-69.91-14.12 179 179 0 0 0-126.99 52.6 179 179 0 0 0-43.41 70.12l-.11.02a84.53 84.53 0 0 0-26.41-8.86 91.77 91.77 0 0 0-47.87 5.13c-25.13 9.93-45.99 30.53-58.76 57.99-11.24 24.17-11.05 47.85.53 66.67a59.88 59.88 0 0 0 3.82 5.5 39.54 39.54 0 0 0-5.2 22.22l.2 3.24a55.47 55.47 0 0 0 9.32 33.29 57.17 57.17 0 0 0 29.6 22.6 58.7 58.7 0 0 0 18.37 2.92c14.8 0 29.26-5.41 40.82-15.24 2 .59 4.04 1.01 6.12 1.25a36.89 36.89 0 0 0 28.69-8.9 36.8 36.8 0 0 0 15.16.14c.47-.09 10.9-2.17 27.77-5.44l1.32 1.34a179 179 0 0 0 126.99 52.6 179 179 0 0 0 126.99-52.6 179.24 179.24 0 0 0 33.9-47.13l.17-.02c20.62-2.96 38.79-17.29 48.09-28.67 11.35-13.9 15.26-30.55 11-46.88-5.28-20.25-20.77-31.41-29.42-36.22-2.17-4.7-4.58-8.65-6.57-11.92-.58-.96-1.67-2.74-1.93-3.26a38.14 38.14 0 0 0-12.08-14.15l9.98-9.16c23.95-13.92 38.82-27.58 45.37-41.67a7.9 7.9 0 0 0 2.29-5.97c5.58-17.82-.75-30.08-5.79-37.11l7.51-9.29c1.22-1.11 2.5-2.25 3.82-3.39l30.14-26.06a7.95 7.95 0 0 0 2.19-8.93z" fill="#8d8066" stroke="#8d8066" stroke-width="4.97" stroke-miterlimit="10"/>
    <g id="g16">
      <circle id="circle10" cx="322.81" cy="314.13" r="156.49" fill="#a51e2d"/>
      <ellipse id="ellipse12" cx="322.81" cy="294.38" rx="156.49" ry="136.74" fill="#d5343f"/>
      <path id="path14" d="M322.81 485.78a171.15 171.15 0 0 1-121.38-50.28 170.99 170.99 0 0 1-36.78-54.56 170.67 170.67 0 0 1-13.5-66.82 171.15 171.15 0 0 1 50.28-121.38 170.99 170.99 0 0 1 54.56-36.78 170.67 170.67 0 0 1 66.82-13.5 171.15 171.15 0 0 1 121.38 50.28 171.15 171.15 0 0 1 50.28 121.38 171.15 171.15 0 0 1-50.28 121.38 171.15 171.15 0 0 1-121.38 50.28zm0-312.98a140.4 140.4 0 0 0-99.93 41.39 140.4 140.4 0 0 0-41.39 99.93 140.4 140.4 0 0 0 41.39 99.93 140.4 140.4 0 0 0 99.93 41.39 140.4 140.4 0 0 0 99.93-41.39 140.4 140.4 0 0 0 41.39-99.93 140.4 140.4 0 0 0-41.39-99.93 140.4 140.4 0 0 0-99.93-41.39Z" class="cls-7" fill="#141a3e"/>
    </g>
    <path id="line18" d="M363.32 455.45 260.17 172.8" class="cls-5" fill="none" stroke="#141a3e" stroke-width="19.83" stroke-miterlimit="10"/>
    <path id="path20" d="M514.54 117.04c-4.21.08-37.76 1.6-52.88 28.94l-5.71 10.33-182.84 75.11 156.26 4.42-4.61 12.72-.54.24-40.97 94.02 114.96-105.54c23.73-13.69 38.02-26.83 43.5-39.94l.96-.88-.74.33.41-1.05c6.83-18.83-1.93-29.74-6.64-35.6l-1.01-1.26 11.83-14.63c1.41-1.29 2.89-2.61 4.42-3.94l30.14-26.06-66.54 2.82z" class="cls-7" fill="#141a3e"/>
    <path id="path22" d="M535.28 320.42c-4.15-15.9-16.46-26.83-27.9-32.5-2.21-5.35-4.95-9.84-7.19-13.52-.86-1.42-1.84-3.02-2.25-3.84a29.88 29.88 0 0 0-25.99-16.71c-10.14-37.12-38.23-31.17-38.23-31.17l-282.91 42.84a76.38 76.38 0 0 0-26.19-9.28 83.64 83.64 0 0 0-43.67 4.69c-23.23 9.18-42.58 28.34-54.48 53.95-10.08 21.68-10.04 42.69.09 59.17a51.16 51.16 0 0 0 7.09 9.09 31.64 31.64 0 0 0-7.3 22.29l.23 3.7a47.25 47.25 0 0 0 7.98 28.93 49.28 49.28 0 0 0 41.36 21.98 55.25 55.25 0 0 0 36.25-13.84c.96-.84 1.89-1.7 2.79-2.6a29.17 29.17 0 0 0 8.84 2.51 29 29 0 0 0 25.47-9.97 28.86 28.86 0 0 0 15.91 1.31c1.4-.28 141.37-28.21 235.14-41.63 36.13-5.17 65.63-8.13 80-9.44h.07c1.16-.11 1.6-.15 2.38-.26 17.19-2.46 34.01-14.75 43.07-25.84 9.71-11.89 13.07-26.04 9.47-39.85z" class="cls-7" fill="#141a3e"/>
    <g id="g40">
      <path id="path24" d="m194.11 296.42-3.93 4.09-10.45 1.44 2.71-21.67 10.45-1.44 3.03 3.13-.68 5.42-1.97 2.05 1.52 1.57-.68 5.42zm-3.3-1 .31-2.46-1.24-1.28-5.54.77-.68 5.42 5.54-.77zm1.13-9.03.31-2.46-1.24-1.28-5.54.77-.68 5.42 5.54-.77z" class="cls-4" fill="#345cb8" stroke="#345cb8" stroke-width=".99" stroke-miterlimit="10"/>
      <path id="path26" d="m221.52 296.18-13.93 1.92 2.71-21.67 13.93-1.92-.45 3.61-10.45 1.44-.68 5.42 5.22-.72-.45 3.61-5.22.72-.68 5.42 10.45-1.44z" class="cls-4" fill="#345cb8" stroke="#345cb8" stroke-width=".99" stroke-miterlimit="10"/>
      <path id="path28" d="m249.38 292.34-13.93 1.92 2.71-21.67 3.48-.48-2.26 18.06 10.45-1.44z" class="cls-4" fill="#345cb8" stroke="#345cb8" stroke-width=".99" stroke-miterlimit="10"/>
      <path id="path30" d="m277.69 284.88-4.07 4.11-6.83.94-3.03-3.13 1.81-14.45 3.93-4.09 6.97-.96 3.03 3.13-.23 1.81-3.48.48.04-.32-1.24-1.28-4.11.57-1.61 1.68-1.44 11.48 1.24 1.28 4.11-.57 1.61-1.68.27-2.13-1.74.24.45-3.61 5.22-.72z" class="cls-4" fill="#345cb8" stroke="#345cb8" stroke-width=".99" stroke-miterlimit="10"/>
      <path id="path32" d="m306.68 272-4.07 4.11 2.49 8.53-3.8.52-2.56-8.52-2.96.41-1.13 9.03-3.48.48 2.71-21.67 10.45-1.44 3.03 3.13zm-3.3-1 .31-2.46-1.24-1.28-5.54.76-.68 5.42 5.54-.76z" class="cls-4" fill="#345cb8" stroke="#345cb8" stroke-width=".99" stroke-miterlimit="10"/>
      <path id="path34" d="m332.89 280.8-3.59.5-.42-3.49-4.95.68-1.32 3.73-3.59.5 7.76-22.37 3.76-.52 2.34 20.97zm-4.42-6.49-.77-6.46-2.44 6.9 3.2-.44z" class="cls-4" fill="#345cb8" stroke="#345cb8" stroke-width=".99" stroke-miterlimit="10"/>
      <path id="path36" d="m361.27 273.33-3.93 4.09-10.45 1.44 2.71-21.67 10.45-1.44 3.03 3.13zm-3.3-1 1.44-11.48-1.24-1.28-5.54.76-1.81 14.45 5.54-.76 1.61-1.68z" class="cls-4" fill="#345cb8" stroke="#345cb8" stroke-width=".99" stroke-miterlimit="10"/>
      <path id="path38" d="m388.68 273.09-13.93 1.92 2.71-21.67 13.93-1.92-.45 3.61-10.45 1.44-.68 5.42 5.22-.72-.45 3.61-5.22.72-.68 5.42 10.45-1.44z" class="cls-4" fill="#345cb8" stroke="#345cb8" stroke-width=".99" stroke-miterlimit="10"/>
    </g>
    <path id="path42" d="M79.48 362.2c-7.84-2.36-15.24-4.59-18.25-9.48-3.7-6.02-.24-15.55 2.15-20.69 7.38-15.88 19.24-28 32.53-33.26 14.53-5.75 31.32-2.89 40.84 6.94a8.92 8.92 0 1 0 12.83-12.41c-7.39-7.64-17.3-12.66-28.65-14.51a60.5 60.5 0 0 0-31.58 3.38c-17.76 7.02-32.73 22.06-42.16 42.33-6.84 14.71-7.24 27.7-1.17 37.57 6.56 10.67 18.11 14.15 28.3 17.22 8.28 2.5 15.44 4.65 18.16 9.69 1.86 3.45 1.42 8.25.73 11.67-1.29 6.32-4.07 11.61-7.82 14.89-3.71 3.24-8.8 4.57-12.67 3.3-3.35-1.1-5.96-4.77-5.47-7.69.11-.67.15-1.35.1-2.02l-.39-6.22a8.93 8.93 0 0 0-17.82 1.1l.33 5.34c-1.27 11.26 6.3 22.72 17.67 26.45 2.83.93 5.79 1.38 8.77 1.38 7.48 0 15.1-2.86 21.22-8.2 6.78-5.92 11.47-14.49 13.57-24.76 1.87-9.19 1.03-17.18-2.51-23.73-6.22-11.51-18.17-15.11-28.71-18.29z" class="cls-3" fill="#e1dcd4" stroke="#8d8066" stroke-width="2.78" stroke-miterlimit="10"/>
    <path id="polyline44" d="m422.64 295.46 33.34-25.27-21.2-14.46-13.59 5.56" class="cls-7" fill="#141a3e"/>
    <g id="g50">
      <path id="polygon46" d="m422.18 288.21 49.03-45.01-36.43 16.1z" fill="#766047"/>
      <path id="path48" d="M536.36 134.7c1.68-1.56 3.5-3.19 5.5-4.92l-26.92 1.14s-29.1.03-41.13 21.77l47.99-11.33-16.93 7.77-35.41 16.25-124.22 57 23.12-.12L509.5 157.5a59.7 59.7 0 0 1-3.32 8.16l-123.2 56.53 24.31-.13 88.8-40.74a135.05 135.05 0 0 1-9.98 11.21l-64.19 29.45 27.3-.14-10.13 27.92s79.64-29.69 90.2-58.79c7.69-21.18-14.13-22.36-8.38-37.16l15.45-19.12z" fill="#8d8066"/>
    </g>
    <path id="path52" d="M386.7 385s22.19 27.43 51.88 34.41" class="cls-5" fill="none" stroke="#141a3e" stroke-width="19.83" stroke-miterlimit="10"/>
    <path id="path54" d="M285.92 402.21s21.97 35.29-13.5 57.82" class="cls-5" fill="none" stroke="#141a3e" stroke-width="19.83" stroke-miterlimit="10"/>
    <path id="path56" d="M334.1 212.11s-17.4-34.95 12.43-48.03" class="cls-5" fill="none" stroke="#141a3e" stroke-width="19.83" stroke-miterlimit="10"/>
    <path id="path58" d="M201.25 217.38s35.38-4.37 46.07 38.35" class="cls-5" fill="none" stroke="#141a3e" stroke-width="19.83" stroke-miterlimit="10"/>
    <path id="polyline60" d="m506.6 126.8-2.31 11.59 22.96-11.59" class="cls-7" fill="#141a3e"/>
    <path id="polygon62" d="m426.23 244.49-153.11-13.08 156.25 4.42z" class="cls-10" fill="#345cb8"/>
    <path id="polygon64" d="m429.37 235.83-16.73 5.07v33.62z" class="cls-10" fill="#345cb8"/>
    <path id="path66" d="M109.19 414.05c1-2.45 1.83-5.05 2.47-7.77L56.91 431.4a27.43 27.43 0 0 0 5.74 4z" class="cls-7" fill="#141a3e"/>
    <g id="g72">
      <path id="path68" d="M69.5 414.6a4.7 4.7 0 0 1-.88-3.22c.13-.77.17-1.56.12-2.34l-.04-.7-20.06 9.21a26.3 26.3 0 0 0 2.07 5.68l18.8-8.63z" class="cls-7" fill="#141a3e"/>
      <path id="path70" d="m112.41 388.27-20.12 9.23a33.33 33.33 0 0 1-1.71 7.42l22.46-10.31a35.1 35.1 0 0 0-.64-6.34z" class="cls-7" fill="#141a3e"/>
    </g>
    <path id="path74" d="m184.97 331.09 8.99-1.29c3.91-.89 7.95-1.81 11.46-1.83 3.16-.03 4.99.78 5.44 1.32.3.36.5 1.15.65 2.03l-.83 7.19c-6.07-.41-12.11 1.17-12.22 1.19-8.73 2.33-18.24 16.92-18.73 17.91-1.29 2.63-2.51 5.12-4.16 6.87l-.26.28c-.82.88-2.51 2.68-3.32 2.96-.78-.2-2.32-1.44-3.35-2.28-.63-.51-1.28-1.04-1.97-1.54a3.1 3.1 0 0 1-.84-.88 38.94 38.94 0 0 0 3.18-5.97c3.41-8.12 3.15-17.27-.68-23.88-2.81-4.85-7.27-7.88-12.56-8.53-8.11-1-17.32 3.84-22.75 11.71a24.78 24.78 0 0 0-8.98-7.17c-.05-.02-.11-.03-.16-.06-2.37 3.51-3.95 8.2-4.82 11.32 4.17 2.05 7.22 6.85 7.78 12.34.04.42.13.82.25 1.21-.12.89-.22 1.77-.32 2.6a889.53 889.53 0 0 0-2.86 30.21 865.7 865.7 0 0 1-2.82 29.78 6.15 6.15 0 0 0 5.38 6.83 6.15 6.15 0 0 0 6.83-5.39 889.53 889.53 0 0 0 2.86-30.21l.43-5.14c1.3-.09 2.56-.4 3.78-.75a46.24 46.24 0 0 0 17.29-9.57c.54.53 1.12 1.02 1.76 1.48.43.31.93.72 1.47 1.15 2.24 1.82 5.32 4.31 9.39 4.91.61.09 1.21.13 1.78.13 5.56 0 9.46-3.94 11.94-6.58.5.41 1.04.78 1.62 1.12 2.66 1.58 6.05 2.37 9.67 2.37 7.73 0 16.52-3.62 21.6-11.03.51-.75.96-1.51 1.37-2.27l1.71 3.22a6.13 6.13 0 0 0 6.05 3.24l10.16-1.03a6.16 6.16 0 0 0 4.83-3.26c4.12-7.85 5.86-16.82 5.45-28.22l-.12-3.3c-.1-2.65-.19-4.75-.18-6.9l1.73.9c2.05 1.07 4.13 2.16 6.28 3.16-1.14 8.45-.49 13.2.63 21.43l.21 1.55c.37 2.71.92 6.81 3.87 9.82 4.72 4.82 11.33 2.56 15.7 1.07 1.09-.37 2.45-.84 3.08-.93 1.02-.15 2-.55 2.82-1.17l2.06-1.55a6.1 6.1 0 0 0 1.75-2.06c4.12-7.85 5.86-16.82 5.45-28.22a587.5 587.5 0 0 0-.12-3.3c-.1-2.65-.19-4.75-.19-6.9l1.73.9c2.05 1.07 4.13 2.16 6.28 3.16-1.14 8.45-.49 13.2.63 21.43l.21 1.55c.36 2.7.92 6.78 3.83 9.79 2.84 2.93 8.46 5.31 19.12.05 4.02-1.98 7.05-5.06 9.68-8.02a17.83 17.83 0 0 0 10.36 3.24c.94 0 1.89-.07 2.85-.21 12.62-1.81 23.97-15.39 25.83-30.93.24-1.97.3-3.9.22-5.76 1.73-1.05 3.49-2.03 5.27-3-.24 5.3-.19 10.51-.08 16.65.06 3.54.18 10.12 4.78 14.4a9.32 9.32 0 0 0 6.33 2.6c.58 0 1.16-.06 1.74-.18a11.62 11.62 0 0 0 5.01-2.59 48.57 48.57 0 0 0 7.56-7.61 13.12 13.12 0 0 0 3.07 4.39 9.32 9.32 0 0 0 6.33 2.6 8.4 8.4 0 0 0 1.73-.18 11.62 11.62 0 0 0 5.01-2.59 49 49 0 0 0 8.08-8.27c.7 1.77 1.74 3.49 3.3 4.94a9.32 9.32 0 0 0 6.33 2.6c.5 0 1-.04 1.5-.13l5.72-.82a6.08 6.08 0 0 0 3.7-1.98 39.8 39.8 0 0 0 5.74-4.96c.59.46 1.26.91 2.02 1.35 6.5 3.72 13.55 3.45 20.36 3.18a171 171 0 0 1 3.9-.12 6.17 6.17 0 0 0 5.29-3.18c2.21-4.01 4.34-8.64 5.4-14.36l3.08.05c4.27 1.96 8.84 5.87 9.94 10.09.73 2.79-.15 5.65-2.68 8.75-5.22 6.39-14.48 12.31-20.71 13.26l-.76.07c-14.7 1.34-44.88 4.37-81.79 9.65-94.18 13.48-237.28 41.67-238.7 41.95l-2.02 14.15s-1.07 2.46 3.33 1.71c.39-.07.69-.4 1.1-.48 1.41-.28 144.2-31.72 238.04-45.15 36.64-5.24 66.58-8.25 81.16-9.58 1.04-.09 1.08-.1 1.28-.13 10.54-1.51 22.37-10.03 28.61-17.67 6.38-7.81 6.27-14.98 5.06-19.63-2.5-9.57-11.42-16.14-18.31-18.85a6.27 6.27 0 0 0-2.23-.43c-1.24 0-2.55-.03-3.94-.06a51.04 51.04 0 0 0-.46-3.47c-1.06-6.4-4.51-12.08-7.56-17.08a82.68 82.68 0 0 1-3.17-5.5 6.95 6.95 0 0 0-7.23-4.05c-1.64.22-3.96 1.14-5.7 4.23-3.65 6.45-6.01 12.26-8.51 18.42-.98 2.42-2 4.92-3.11 7.49-4.21 9.75-9.15 16.61-14.68 20.42l-2.05.29c-.2-.8-.39-2.2-.43-4.65-.22-11.96-.24-19.95 1.94-32.9a6.15 6.15 0 0 0-12.12-2.04 147.14 147.14 0 0 0-2.19 24.15l-.02.04-5.11 8.2c-.06.1-.13.21-.18.32a35.38 35.38 0 0 1-6.62 8.59c-.07-.74-.13-1.68-.15-2.85-.04-2.07-.07-4.01-.08-5.89.11-.67.1-1.35 0-2.02-.01-8.09.37-15.09 2.03-24.99a6.15 6.15 0 0 0-12.12-2.04 148.59 148.59 0 0 0-2.2 26.21l-4.13 5.72a7.4 7.4 0 0 0-.42.66 35.38 35.38 0 0 1-6.62 8.59c-.07-.74-.13-1.68-.15-2.86-.22-11.96-.24-19.95 1.94-32.9a6.14 6.14 0 1 0-12.12-2.04c-.22 1.33-.43 2.62-.61 3.86l-2.09 1.09a253.01 253.01 0 0 0-8 4.29 20.2 20.2 0 0 0-3.34-4.31 18.08 18.08 0 0 0-15.52-4.96c-12.62 1.81-23.97 15.39-25.83 30.93a30.94 30.94 0 0 0 1.37 14.12l-.42.48c-2.42 2.78-4.71 5.4-7.24 6.65a18.29 18.29 0 0 1-4.97 1.77c-.16-.72-.29-1.68-.37-2.23l-.21-1.56c-1.25-9.18-1.72-12.62.07-22.46a6.16 6.16 0 0 0-3.93-6.87 82.42 82.42 0 0 1-9.53-4.5 93.74 93.74 0 0 0-11-5.15 6.16 6.16 0 0 0-5.41.58 6.15 6.15 0 0 0-2.83 4.65 112.5 112.5 0 0 0-.29 17.3l.12 3.25c.3 8.52-.79 15.17-3.41 20.77-1.15.3-2.31.69-3.44 1.08-.87.3-2.13.73-3.12.98-.13-.66-.23-1.41-.29-1.88l-.21-1.56c-1.25-9.18-1.72-12.62.07-22.46a6.16 6.16 0 0 0-3.93-6.87c-3.08-1.13-6.21-2.77-9.53-4.5a94.35 94.35 0 0 0-10.99-5.15 6.15 6.15 0 0 0-5.41.58 6.15 6.15 0 0 0-2.83 4.65 112.5 112.5 0 0 0-.29 17.3l.12 3.26c.27 7.72-.59 13.9-2.71 19.17l-2.56.26-6.57-12.41c.3-2.56.38-3.41.47-4.23.09-.86.18-1.75.54-4.81.56-1.04.82-2.25.7-3.51l-.14-1.31.04-.36a6.16 6.16 0 0 0-.79-3.8 14.82 14.82 0 0 0-2.81-5.59c-3.09-3.73-8.33-5.78-14.79-5.78h-.22c-4.83.04-9.75 1.15-14.09 2.14l-3.41.77-2.85 12.51zm-27.31 21.2c-3.78 9-12.59 15.23-19.93 17.6.38-3.99.79-7.96 1.25-11.84.55-4.65 1.12-9.46 3.39-13.51 2.7-4.81 7.78-7.74 11.21-7.74.23 0 .45.01.66.04.53.07 2.14.26 3.43 2.49 1.57 2.7 2.17 7.76-.02 12.95zm49.09 6.68c-2.52 3.68-7.3 5.51-10.92 5.68-2.57.13-3.85-.54-4.14-.78-.02-.21 0-.99.78-2.53 3.2-6.32 5.51-8.78 9.16-9.76 2.16-.58 5.31-.89 7.65-.84-.43 3.41-.95 5.93-2.53 8.23zm142.89-51.91c.38-.06.75-.08 1.11-.08a5.6 5.6 0 0 1 4.07 1.66 8.56 8.56 0 0 1 1.61 2.24c-2.79 2.1-6.27 4.71-8.24 4.5-.66-.07-2.14-2.39-2.94-3.63-.43-.68-.88-1.37-1.35-2.05a12.63 12.63 0 0 1 5.76-2.63zm-7.28 33.87a5.79 5.79 0 0 1-5.18-1.58c-.43-.42-.81-.9-1.15-1.44l-.14-.23c-1.51-2.54-2.11-6.26-1.62-10.4.29-2.4.94-4.77 1.86-7.01 2.17 3.14 5.34 6.74 10.71 7.32.53.06 1.06.09 1.58.09 3 0 5.75-.93 8.27-2.24-2.49 7.9-8.47 14.65-14.33 15.49zm131.28-16.42-.46.02c-5.23.21-9.79.39-13.18-1.25.47-.33 1.12-.72 2-1.14 3.86-1.82 8.68-2.6 13.61-2.9a33.08 33.08 0 0 1-1.97 5.27zm-7.84-16.41 1.67-4.07a233.9 233.9 0 0 1 3.93-9.31c2.16 3.61 4.15 7.26 4.71 10.67.08.51.16 1.01.22 1.5-3.5.16-7.06.51-10.53 1.22z" class="cls-3" fill="#e1dcd4" stroke="#8d8066" stroke-width="2.78" stroke-miterlimit="10"/>
  </g>
</svg>
