<svg xmlns="http://www.w3.org/2000/svg" id="Layer_1" width="483" height="525.7" version="1.1"><defs id="defs85"><style id="style83">.cls-1{fill:#012304}.cls-4{fill:#247127}</style></defs><g id="g137" transform="translate(-58.5 -37.1)"><g id="g109"><g id="g93"><path id="path89" fill="#012304" d="M285 444h-.3a157 157 0 0 1-55.1-22.5c-27.5-17.1-65.2-50.8-88.6-113.7l-.2-.4v-.5c-.3-2.2-5.9-53.2 25.3-108-6.9-7.2-24.8-30.7-2.8-59a31.3 31.3 0 0 1 25.5-13.4c18.7 0 36.5 16 41.9 21.3 7.6-1.6 34.4-6.6 54.4-7.1h24.2a383 383 0 0 1 54.6 7c5.3-5.2 23.1-21.2 41.8-21.2 10 0 18.6 4.5 25.5 13.4 22 28.3 4.1 51.8-2.7 59a191.3 191.3 0 0 1 25.3 108l-.1.5-.2.4c-23.4 63-61 96.6-88.6 113.7a157 157 0 0 1-55 22.5H285z" class="cls-1"/><path id="path91" fill="#247127" d="M405.7 130.4c7.8 0 15.6 3.2 22.4 11.9 24.4 31.5-4.6 56-4.6 56 32.6 55.2 26.3 108.2 26.3 108.2C405.2 426.2 309.3 440 309.3 440h-24s-96-13.9-140.7-133.6c0 0-6.2-53 26.4-108.2 0 0-29-24.5-4.6-56a27.5 27.5 0 0 1 22.4-11.9c20.4 0 40.5 21.6 40.5 21.6s32.8-6.8 56-7.4h24c23 .6 55.8 7.4 55.8 7.4s20.2-21.6 40.6-21.6m0-7.8v7.8-7.8c-18.6 0-36 14.4-43.1 21-9.7-2-34.3-6.3-53.2-6.8H285c-18.9.5-43.4 4.9-53.1 6.7-7-6.5-24.6-21-43.1-21-11.2 0-21 5.2-28.6 15-22 28.3-7.3 52.1 1 62a195.3 195.3 0 0 0-24.4 107.9l.1 1 .4.8c23.8 64 62.2 98.2 90.2 115.7 30.6 19 55.5 22.9 56.6 23h26.3c1-.1 26-4 56.6-23 28-17.5 66.4-51.8 90.2-115.7l.3-.9.1-1c.3-2.1 5.8-53-24.4-107.8 8.3-9.9 23-33.7 1-62a35.5 35.5 0 0 0-28.5-15z" class="cls-4"/></g><path id="path95" fill="#247127" d="M338.4 335.4a79.6 79.6 0 0 0-25.8-103l47-3.3c63 49.5 22 135.4 22 135.4s57-31.2 21.1-181.3c0 0 21.2-7.5 14.5-31.8-6.6-24.3-35.7-2-40.6 14.5 0 0-34.6-6.7-67.6-10.5l-11.7 42.2-11.8-42.2c-33 3.8-67.6 10.5-67.6 10.5-4.9-16.5-34-38.8-40.6-14.5a25 25 0 0 0 14.4 31.8C156 333.2 213 364.5 213 364.5s-41.2-85.9 21.9-135.4l47 3.3s-56.2 35.2-25.8 103l41.1-8.4z" class="cls-4"/><path id="path97" fill="#012304" d="M314 275c-5.5-1.2-11.3-1.5-16.3-2H295c-5 .5-10.8.7-16.4 2-7.8 2-11.3 7.4-9.5 15a65.4 65.4 0 0 0 6.1 15.5 17 17 0 0 0 6.5 5.6c4 2.3 8.1 4.3 12.3 6.1.6.3 1.5.4 2.3.3.8 0 1.7 0 2.3-.3 4.2-1.8 8.4-3.8 12.3-6a17 17 0 0 0 6.5-5.7 66 66 0 0 0 6.1-15.4c1.8-7.7-1.7-13.2-9.5-15z" class="cls-1"/><path id="rect99" fill="#012304" d="M288.2 307.3h15.1v26.4h-15.1z" class="cls-1"/><path id="path101" fill="#247127" d="M308.7 399.7c36-2.2 38-22.4 38-22.4l3.7-27.4-9.6-2.2-3.6 23.9s-3 15.7-28.5 16.8h-20.3c-25.4-1-28.5-16.8-28.5-16.8l-3.6-24-9.6 2.3 3.6 27.4s2.1 20.2 38.1 22.4z" class="cls-4"/><path id="polyline103" fill="#012304" d="m281.9 232.4-75.4-5.1 16.6 19.6" class="cls-1"/><path id="polyline105" fill="#012304" d="m312.6 232.4 75.4-5.1-16.6 19.6" class="cls-1"/><path id="path107" fill="#fff" d="M313 363.9h-30.8l-12-15 2.4 21.3s30.6 10 49.3 0l2.4-21.3-11.3 15z" style="fill:#fff"/></g><g id="g123"><path id="path111" fill="#012304" d="M206.1 71.6c0 10.7-7.2 16.4-18 16.4H165V37.2h23.3c9.8 0 16 4.7 16 13.4 0 4.3-2 7.8-5.3 9.9 4 1.8 7.1 5.5 7.1 11zm-12-20.2c0-3.2-1.8-4.9-6.3-4.9H175v9.7h13.4c4.2 0 5.8-2 5.8-4.8zm1.6 20.3c0-4.3-2.3-6.5-7.3-6.5H175v13.1h13.5c5 0 7.3-2.6 7.3-6.6z" class="cls-1"/><path id="path113" fill="#012304" d="M252.9 88h-36.4V37.2h35.3v10h-25.1v8.7h14.6v9.9h-14.6V78h26.2v10Z" class="cls-1"/><path id="path115" fill="#012304" d="M304.9 88h-11.7L284 69.7h-10.2V88h-10.2V37.2h23.7c9.5 0 17.5 5.3 17.5 16 0 7.7-3.3 12.5-9.8 15l9.7 19.8zm-10.5-34.5c0-4.6-2.8-6.5-7.3-6.5h-13.3v13.1h13.3c4.8 0 7.3-2.2 7.3-6.6z" class="cls-1"/><path id="path117" fill="#012304" d="M351.2 88h-35.7V37.2h10.2V78h25.5v10z" class="cls-1"/><path id="path119" fill="#012304" d="M371.4 88h-10.1V37.2h10.1z" class="cls-1"/><path id="path121" fill="#012304" d="M426.4 88h-9l-18.8-27.8a59.4 59.4 0 0 1-3.5-5.7l.1 11.1V88h-10V37h9.8l18 27c1.2 1.8 2.9 4.4 3.5 5.7l-.1-11.2V37.2h10V88z" class="cls-1"/></g><g id="g135"><path id="path125" fill="#247127" d="M127.3 508.7c-7.3 14.9-21.3 18-36.5 10.5l-32.3-15.8 34.9-71 32.5 16c13.8 6.7 19.3 17.6 13.3 29.8-3 6-8.2 9.5-14.2 10a18.1 18.1 0 0 1 2.3 20.5zm-14.7-7c3-6 1.2-10.7-5.7-14.1L88 478.3l-9 18.4 19 9.3c6.9 3.3 12 1.3 14.7-4.3zm11.7-29.5c2.2-4.4.8-8-5.4-11l-18-9-6.7 13.6L113 475c5.9 2.9 9.4 1.2 11.3-2.8z" class="cls-4"/><path id="path127" fill="#247127" d="M220.6 558.1 165 546.8l15.8-77.5 53.8 11-3 15.2-38.4-7.8-2.7 13.3 22.3 4.6-3.1 15-22.3-4.5-3.8 18.7 40 8.2-3.1 15.1z" class="cls-4"/><path id="path129" fill="#247127" d="m340.8 561.2-17.4.4-6.6-17.5-28.9.6-5.8 17.8-17 .3 28.6-79.7 15.4-.3 31.7 78.5zm-29.7-32-5.4-14.2c-1.7-4.6-3.3-9.3-4.2-12.3-.7 3-2.2 7.8-3.7 12.4l-4.8 14.5 18.1-.4z" class="cls-4"/><path id="path131" fill="#247127" d="m451 537.5-17.5 4.7-20.9-24-15.4 4 7.2 27.6-15.3 4-20-76.5 35.5-9.3c14.5-3.8 28.5 1 32.8 17.3 3 11.5 0 20-8.8 26.4l22.5 25.8zm-29.3-47.7c-1.8-7-6.7-8.7-13.5-6.9l-20 5.3 5.2 19.6 20-5.2c7.1-1.9 10-6.2 8.3-12.8z" class="cls-4"/><path id="path133" fill="#247127" d="M537.6 467c7.6 13 4.6 26.5-14 37.5a36.7 36.7 0 0 1-33.8 3.1l4.7-14.5c8 2.7 15.5 1.4 22-2.5 8.1-4.7 10.6-9.2 7.6-14.3-2.6-4.4-6.1-5-20.7-.4-14.3 4.5-25.4 5.7-33.3-7.8-7.2-12.4-.8-26.4 12.7-34.3a37.8 37.8 0 0 1 31.1-3.8l-4.2 15.3a24 24 0 0 0-19.6 2c-7.4 4.4-8 8.9-6.2 12 2.5 4.2 6.3 3.9 18.6 0 12.3-3.8 26.4-7.1 35.1 7.7z" class="cls-4"/></g></g></svg>