<svg xmlns="http://www.w3.org/2000/svg" id="Layer_1" width="482.968" height="525.69" version="1.1"><defs id="defs85"><style id="style83">.cls-1{fill:#012304}.cls-4{fill:#247127}</style></defs><g id="g137" transform="translate(-58.52 -37.15)"><g id="g109"><g id="g93"><path id="path89" d="m284.96 444.05-.28-.04c-1.01-.15-25.15-3.81-55.08-22.48-27.5-17.15-65.2-50.81-88.62-113.7l-.16-.44-.06-.47c-.26-2.18-5.82-53.25 25.29-107.98-6.85-7.28-24.71-30.72-2.73-59.05 6.89-8.88 15.46-13.38 25.48-13.38 18.69 0 36.54 16.03 41.85 21.25 7.68-1.52 34.4-6.53 54.49-7.06h24.13c20.18.54 46.91 5.55 54.6 7.06 5.31-5.22 23.16-21.25 41.85-21.25 10.02 0 18.59 4.5 25.48 13.38 21.97 28.33 4.12 51.77-2.73 59.05 31.11 54.73 25.55 105.8 25.29 107.98l-.06.47-.16.44c-23.43 62.89-61.13 96.55-88.62 113.7-29.93 18.67-54.07 22.33-55.08 22.48l-.28.04h-24.59z" class="cls-1" style="fill:#012304"/><path id="path91" d="M405.71 130.43c7.79 0 15.62 3.15 22.38 11.86 24.45 31.51-4.55 55.98-4.55 55.98 32.53 55.22 26.31 108.19 26.31 108.19-44.61 119.75-140.59 133.67-140.59 133.67h-24.02s-95.98-13.92-140.59-133.67c0 0-6.22-52.96 26.31-108.19 0 0-28.99-24.47-4.55-55.98 6.76-8.71 14.59-11.86 22.38-11.86 20.4 0 40.54 21.59 40.54 21.59s32.78-6.79 55.9-7.41h24.02c23.12.62 55.9 7.41 55.9 7.41s20.15-21.59 40.54-21.59m0-7.85v7.85-7.85c-18.57 0-36.08 14.39-43.09 20.94-9.68-1.86-34.26-6.25-53.15-6.75h-24.43c-18.89.51-43.46 4.89-53.15 6.75-7.01-6.55-24.52-20.94-43.09-20.94-11.14 0-21.02 5.15-28.58 14.9-21.93 28.27-7.27 52.12 1.05 61.97-30.2 54.91-24.67 105.73-24.41 107.93l.11.94.33.89c23.81 63.93 62.21 98.18 90.22 115.66 30.62 19.1 55.55 22.88 56.6 23.04l.56.08h25.15l.56-.08c1.05-.15 25.98-3.94 56.6-23.04 28.02-17.48 66.41-51.73 90.22-115.66l.33-.89.11-.94c.26-2.2 5.8-53.02-24.41-107.93 8.32-9.84 22.98-33.7 1.05-61.97-7.56-9.75-17.44-14.9-28.58-14.9z" class="cls-4" style="fill:#247127"/></g><path id="path95" d="M338.43 335.44c30.34-67.86-25.8-103.01-25.8-103.01l47-3.33c63.05 49.51 21.88 135.41 21.88 135.41s57.08-31.23 21.24-181.28c0 0 21.14-7.58 14.47-31.83s-35.77-1.99-40.62 14.46c0 0-34.58-6.69-67.63-10.5l-11.72 42.26-11.72-42.26c-33.05 3.81-67.63 10.5-67.63 10.5-4.85-16.46-33.95-38.71-40.62-14.46-6.67 24.25 14.47 31.83 14.47 31.83-35.85 150.05 21.24 181.28 21.24 181.28s-41.17-85.91 21.88-135.41l47 3.33s-56.14 35.15-25.8 103.01l41.18-8.45z" class="cls-4" style="fill:#247127"/><path id="path97" d="M314.05 275.08c-5.54-1.32-11.35-1.54-16.36-2.17-.46.04-.91.08-1.36.13-.45-.04-.9-.08-1.36-.13-5.01.62-10.81.84-16.36 2.17-7.76 1.85-11.31 7.35-9.5 15.01 1.26 5.32 3.52 10.52 6.1 15.37 1.27 2.39 4.06 4.19 6.52 5.65 3.92 2.33 8.09 4.28 12.27 6.12.65.28 1.49.35 2.31.26.82.09 1.66.03 2.31-.26 4.18-1.84 8.35-3.79 12.27-6.12 2.46-1.46 5.26-3.26 6.52-5.65 2.58-4.85 4.84-10.05 6.1-15.37 1.81-7.66-1.74-13.17-9.5-15.01z" class="cls-1" style="fill:#012304"/><path id="rect99" d="M288.16 307.29h15.14v26.39h-15.14z" class="cls-1" style="fill:#012304"/><path id="path101" d="M308.68 399.74c36-2.21 38.09-22.44 38.09-22.44l3.61-27.35-9.54-2.28-3.59 23.93s-3.12 15.72-28.57 16.77h-20.25c-25.46-1.06-28.57-16.77-28.57-16.77l-3.59-23.93-9.54 2.28 3.61 27.35s2.09 20.23 38.09 22.44z" class="cls-4" style="fill:#247127"/><path id="polyline103" d="m281.88 232.43-75.38-5.09 16.57 19.55" class="cls-1" style="fill:#012304"/><path id="polyline105" d="m312.63 232.43 75.38-5.09-16.57 19.55" class="cls-1" style="fill:#012304"/><path id="path107" d="M313.02 363.89h-30.83l-11.99-14.96 2.41 21.26s30.59 9.95 49.27 0l2.41-21.26L313 363.89z" style="fill:#fff"/></g><g id="g123"><path id="path111" d="M206.13 71.58c0 10.67-7.19 16.41-18.08 16.41h-23.09V37.16h23.31c9.88 0 16.12 4.72 16.12 13.43 0 4.36-2.03 7.84-5.37 9.88 4.07 1.82 7.12 5.52 7.12 11.11zm-12.05-20.19c0-3.19-1.82-4.86-6.24-4.86h-12.93v9.66h13.43c4.21 0 5.74-1.96 5.74-4.79zm1.6 20.33c0-4.36-2.32-6.53-7.26-6.53h-13.51v13.14h13.51c4.94 0 7.26-2.61 7.26-6.61z" class="cls-1" style="fill:#012304"/><path id="path113" d="M252.88 87.99H216.5V37.16h35.29v9.95h-25.12v8.79h14.59v9.88h-14.59v12.27h26.21V88Z" class="cls-1" style="fill:#012304"/><path id="path115" d="M304.86 87.99h-11.69l-9.08-18.3h-10.24v18.3h-10.17V37.16h23.67c9.59 0 17.5 5.3 17.5 16.12 0 7.62-3.27 12.42-9.73 14.96l9.73 19.75zM294.4 53.5c0-4.57-2.76-6.46-7.26-6.46h-13.29v13.07h13.29c4.72 0 7.26-2.18 7.26-6.61z" class="cls-1" style="fill:#012304"/><path id="path117" d="M351.18 87.99h-35.65V37.16h10.17v40.81h25.49v10.02z" class="cls-1" style="fill:#012304"/><path id="path119" d="M371.43 87.99h-10.16V37.16h10.16z" class="cls-1" style="fill:#012304"/><path id="path121" d="M426.39 87.99h-9.08l-18.66-27.74c-1.23-1.89-2.9-4.43-3.56-5.74 0 1.89.15 8.28.15 11.11v22.36h-10.02V37.15h9.73l18.01 26.87c1.23 1.89 2.9 4.43 3.56 5.74 0-1.89-.14-8.28-.14-11.11V37.16h10.02v50.83z" class="cls-1" style="fill:#012304"/></g><g id="g135"><path id="path125" d="M127.28 508.68c-7.32 14.91-21.3 17.99-36.51 10.52l-32.25-15.84 34.87-70.99 32.55 15.99c13.79 6.77 19.28 17.65 13.3 29.82-2.99 6.09-8.22 9.56-14.28 10.11 4.43 5.33 6.15 12.59 2.32 20.4zm-14.71-6.97c2.99-6.09 1.24-10.72-5.66-14.11l-18.86-9.27-9.02 18.36 18.86 9.27c6.9 3.39 11.94 1.33 14.67-4.25zm11.72-29.49c2.19-4.46.8-8.04-5.38-11.08l-18.05-8.87-6.63 13.49 18.76 9.22c5.88 2.89 9.36 1.2 11.3-2.76z" class="cls-4" style="fill:#247127"/><path id="path127" d="m220.57 558.14-55.46-11.32 15.81-77.49 53.8 10.98-3.09 15.17-38.3-7.82-2.73 13.39 22.25 4.54-3.07 15.06-22.25-4.54-3.82 18.71 39.97 8.15-3.09 15.17z" class="cls-4" style="fill:#247127"/><path id="path129" d="m340.81 561.24-17.4.37-6.58-17.49-28.92.61-5.84 17.75-16.94.36 28.61-79.71 15.36-.32 31.71 78.44zm-29.72-32.03-5.38-14.24c-1.68-4.6-3.36-9.31-4.21-12.23-.73 2.95-2.21 7.73-3.69 12.4l-4.78 14.45 18.07-.38z" class="cls-4" style="fill:#247127"/><path id="path131" d="m451.09 537.54-17.59 4.62-20.9-23.95-15.41 4.05 7.24 27.54-15.3 4.02-20.1-76.49 35.62-9.36c14.43-3.79 28.43 1.06 32.71 17.34 3.01 11.48 0 19.98-8.73 26.36l22.45 25.88zm-29.38-47.77c-1.81-6.89-6.71-8.64-13.48-6.85l-20 5.26 5.17 19.67 20-5.25c7.1-1.87 10.07-6.15 8.31-12.82z" class="cls-4" style="fill:#247127"/><path id="path133" d="M537.61 467c7.61 12.96 4.57 26.53-14.04 37.46-11.4 6.69-24.14 7.75-33.77 3.18l4.69-14.55c8.04 2.75 15.49 1.39 22.02-2.44 8.09-4.75 10.57-9.22 7.54-14.38-2.57-4.38-6.06-4.96-20.63-.33-14.28 4.45-25.4 5.61-33.29-7.84-7.26-12.37-.81-26.38 12.63-34.27 10.62-6.24 20.76-6.82 31.14-3.87l-4.24 15.32c-7.01-1.91-13.37-1.58-19.61 2.08-7.31 4.29-7.91 8.84-6.14 11.86 2.52 4.29 6.24 3.93 18.54.12 12.3-3.82 26.46-7.15 35.15 7.66z" class="cls-4" style="fill:#247127"/></g></g></svg>