<svg xmlns="http://www.w3.org/2000/svg" id="Layer_1" width="339.74" height="395.39" data-name="Layer 1" viewBox="0 0 339.74 395.39"><defs id="defs16"><clipPath id="clippath"><path id="path4" d="M168.82 254.79h182.19v146.74c0 50.28-40.82 91.1-91.1 91.1s-91.1-40.82-91.1-91.1V254.79z" class="cls-2"/></clipPath><clipPath id="clippath-1"><path id="rect7" d="M168.82 350.31h183.67v153.63H168.82z" class="cls-2"/></clipPath><clipPath id="clippath-2"><circle id="circle10" cx="259.17" cy="514.55" r="90.83" class="cls-2"/></clipPath><clipPath id="clippath-3"><path id="path13" d="M734.93 1005.05c-6.98 0-12.68-5.71-12.68-12.68l3.34-174.74a9.34 9.34 0 0 1 9.34-9.16 9.34 9.34 0 0 1 9.34 9.16l3.34 174.74c0 6.98-5.71 12.68-12.68 12.68" class="cls-2"/></clipPath><style id="style2">.cls-2{fill:none}.cls-9{fill:#030202}.cls-12{fill:#010101}.cls-13{fill:#0b0706}.cls-14{fill:#010000}.cls-21{fill:#a2695a}.cls-27{fill:#6b727b}.cls-28{fill:#a6abb2}.cls-30{fill:#fb7ca0}.cls-35{fill:#72cf8e}.cls-43{fill:#040302}.cls-44{fill:#160e0c}.cls-52{fill:#020101}.cls-53{fill:#090605}.cls-54{fill:#000d00}.cls-55{fill:#0c0807}.cls-69{fill:#060403}.cls-70{fill:#070404}.cls-72{fill:#fff}.cls-77{fill:#040202}.cls-83{fill:#080504}.cls-109{fill:#050303}</style></defs><g id="g544" transform="translate(-90.03 -176)"><path id="path18" d="M106.14 176c-8.9 0-16.11 7.21-16.11 16.11v209.41c0 22.9 4.5 45.15 13.38 66.15 8.56 20.24 20.8 38.4 36.37 53.97 15.58 15.58 33.74 27.81 53.97 36.37 21 8.88 43.25 13.38 66.15 13.38s45.15-4.5 66.15-13.38c20.24-8.56 38.4-20.8 53.97-36.37 15.58-15.58 27.81-33.74 36.37-53.97 8.88-21 13.38-43.25 13.38-66.15V192.11c0-8.9-7.21-16.11-16.11-16.11z"/><g id="g24"><path id="path20" d="M259.91 551.71c-20.25 0-39.92-3.98-58.48-11.83-17.89-7.57-33.95-18.39-47.72-32.16s-24.59-29.83-32.16-47.72c-7.85-18.55-11.83-38.23-11.83-58.48V195.69h300.37v205.83c0 20.25-3.98 39.92-11.83 58.48-7.57 17.89-18.39 33.95-32.16 47.72s-29.83 24.59-47.72 32.16c-18.55 7.85-38.23 11.83-58.48 11.83z"/><path id="path22" d="M259.91 555.65c-20.78 0-40.97-4.08-60.01-12.14-18.36-7.77-34.84-18.87-48.97-33s-25.24-30.61-33-48.97c-8.05-19.04-12.14-39.23-12.14-60.01V191.76h308.25v209.77c0 20.78-4.08 40.97-12.14 60.01-7.77 18.36-18.87 34.84-33 48.97s-30.61 25.24-48.97 33c-19.04 8.05-39.23 12.14-60.01 12.14zM113.67 199.64v201.89c0 19.72 3.87 38.88 11.52 56.94 7.37 17.42 17.91 33.06 31.32 46.47s29.05 23.95 46.47 31.32c18.07 7.64 37.22 11.52 56.94 11.52s38.88-3.87 56.94-11.52c17.42-7.37 33.06-17.91 46.47-31.32s23.95-29.05 31.32-46.47c7.64-18.07 11.52-37.22 11.52-56.94V199.64Z" class="cls-27"/></g><g id="g32"><path id="rect26" d="M137.3 251.83h4.43v93.07h-4.43z" class="cls-30"/><path id="rect28" d="M147.15 251.83h4.43v95.53h-4.43z" class="cls-72"/><path id="polygon30" d="M127.46 251.83h4.43v88.63l-4.43-1.97z" class="cls-72"/></g><path id="path34" d="M109.73 364.59v36.93c0 20.25 3.98 39.92 11.83 58.48 7.57 17.89 18.39 33.95 32.16 47.72s29.83 24.59 47.72 32.16c18.55 7.85 38.23 11.83 58.48 11.83s39.92-3.98 58.48-11.83c17.89-7.57 33.95-18.39 47.72-32.16s24.59-29.83 32.16-47.72c7.85-18.55 11.83-38.23 11.83-58.48v-36.93z" class="cls-72"/><path id="path36" d="M121.55 362.13s15.74 19.37 43.33 16.58l-31.35-20.62-11.97 4.04z" class="cls-54"/><g id="g50"><path id="path38" d="M162.41 215.93h21.74c2.04 0 3.31.46 4.46 1.59 1.15 1.16 1.78 2.79 1.78 4.57 0 2.09-.83 3.99-2.29 5.19-.99.81-1.82 1.2-3.57 1.67 1.82.19 2.61.43 3.6 1.05 1.5.85 2.42 2.75 2.42 4.88 0 4.18-3.12 6.89-7.94 6.89H162.4v-25.83zm15.01 10.65c1.5 0 2.04-.5 2.04-1.94s-.54-1.9-2.04-1.9h-4.08v3.83h4.08zm.54 8.98c1.34 0 1.88-.54 1.88-1.9s-.51-1.9-1.88-1.9h-4.62v3.8z" class="cls-54"/><path id="path40" d="M226.63 229.02c0 4.41-1.34 8.21-3.63 10.22-2.49 2.17-6.15 3.25-11.06 3.25s-8.54-1.08-11.03-3.25c-2.33-2.05-3.63-5.77-3.63-10.38 0-4.96 1.4-8.64 4.05-10.69 2.52-1.97 6.12-2.98 10.55-2.98 10.04 0 14.76 4.41 14.76 13.82zm-18.33-.08c0 4.07 1.21 6.08 3.63 6.08s3.67-2.05 3.67-6.04c0-3.33-1.24-5.03-3.67-5.03s-3.63 1.74-3.63 5z" class="cls-54"/><path id="path42" d="M259.71 240.4c-5 1.43-7.81 1.9-11.47 1.9-4.46 0-7.81-.85-10.49-2.67-3-2.05-4.53-5.69-4.53-10.88 0-4.57 1.34-8.02 3.92-10.22 2.55-2.21 5.74-3.14 10.49-3.14 4.14 0 7.84.5 11.73 1.59v8.98c-2.96-.7-6.02-1.08-8.77-1.08-2.45 0-4.02.39-5.16 1.32-1.05.85-1.69 2.44-1.69 4.18 0 3.18 1.85 5.15 4.78 5.15.29 0 .83-.04 1.31-.08v-6.7h9.88v11.66z" class="cls-54"/><path id="path44" d="M296.07 229.02c0 4.41-1.34 8.21-3.63 10.22-2.49 2.17-6.15 3.25-11.06 3.25s-8.54-1.08-11.03-3.25c-2.33-2.05-3.63-5.77-3.63-10.38 0-4.96 1.4-8.64 4.05-10.69 2.52-1.97 6.12-2.98 10.55-2.98 10.04 0 14.76 4.41 14.76 13.82zm-18.32-.08c0 4.07 1.21 6.08 3.63 6.08s3.67-2.05 3.67-6.04c0-3.33-1.24-5.03-3.67-5.03s-3.63 1.74-3.63 5z" class="cls-54"/><path id="path46" d="M308.21 241.76v-15.57h-6.37v-10.26h23.71v10.26h-6.41v15.57z" class="cls-54"/><path id="path48" d="m348.47 241.76-.76-3.33h-7.11l-.77 3.33h-11.16l6.79-25.83h17.31l6.69 25.83h-11zm-4.24-18.55-2.29 8.17h4.49z" class="cls-54"/></g><g id="g64"><path id="path52" d="M164.39 212.15h21.18c1.99 0 3.23.45 4.35 1.55 1.12 1.13 1.74 2.72 1.74 4.45 0 2.04-.81 3.89-2.24 5.06-.96.79-1.77 1.17-3.48 1.62 1.77.19 2.55.41 3.51 1.02 1.46.83 2.36 2.68 2.36 4.76 0 4.08-3.04 6.72-7.73 6.72h-19.69v-25.17zm14.63 10.38c1.46 0 1.99-.49 1.99-1.89s-.53-1.85-1.99-1.85h-3.98v3.74zm.53 8.76c1.3 0 1.83-.53 1.83-1.85s-.5-1.85-1.83-1.85h-4.5v3.7z" class="cls-30"/><path id="path54" d="M226.98 224.91c0 4.3-1.3 8-3.54 9.96-2.42 2.11-5.99 3.17-10.78 3.17s-8.32-1.06-10.75-3.17c-2.27-2-3.54-5.62-3.54-10.11 0-4.83 1.37-8.42 3.95-10.42 2.45-1.92 5.96-2.91 10.28-2.91 9.78 0 14.38 4.3 14.38 13.47zm-17.86-.07c0 3.96 1.18 5.93 3.54 5.93s3.57-2 3.57-5.89c0-3.25-1.21-4.91-3.57-4.91s-3.54 1.7-3.54 4.87" class="cls-30"/><path id="path56" d="M259.22 236.01c-4.88 1.4-7.61 1.85-11.18 1.85-4.35 0-7.61-.83-10.22-2.6-2.92-2-4.41-5.55-4.41-10.61 0-4.45 1.3-7.81 3.82-9.96 2.49-2.15 5.59-3.06 10.22-3.06 4.04 0 7.64.49 11.43 1.55v8.76c-2.89-.68-5.87-1.06-8.54-1.06-2.39 0-3.91.38-5.03 1.28-1.03.83-1.65 2.38-1.65 4.08 0 3.09 1.8 5.02 4.66 5.02.28 0 .81-.04 1.27-.08v-6.53h9.63z" class="cls-30"/><path id="path58" d="M294.66 224.91c0 4.3-1.3 8-3.54 9.96-2.42 2.11-5.99 3.17-10.78 3.17s-8.32-1.06-10.75-3.17c-2.27-2-3.54-5.62-3.54-10.11 0-4.83 1.37-8.42 3.95-10.42 2.45-1.92 5.96-2.91 10.28-2.91 9.78 0 14.38 4.3 14.38 13.47zm-17.86-.07c0 3.96 1.18 5.93 3.54 5.93s3.57-2 3.57-5.89c0-3.25-1.21-4.91-3.57-4.91s-3.54 1.7-3.54 4.87" class="cls-30"/><path id="path60" d="M306.49 237.33v-15.17h-6.21v-10h23.11v10h-6.24v15.17H306.5Z" class="cls-30"/><path id="path62" d="m345.72 237.33-.75-3.25h-6.93l-.75 3.25h-10.87l6.62-25.17h16.87l6.52 25.17h-10.72zm-4.14-18.08-2.24 7.96h4.38z" class="cls-30"/></g><g id="g92"><path id="path66" d="M127.19 414.61c-.72-3.41-.94-5.55-.98-9.06-.07-5.84.68-8.86 2.8-11.31 2.16-2.51 6.02-4.05 10.33-4.11 4.15-.05 7.9 1.33 10.01 3.66 1.99 2.21 3.01 5.4 3.07 9.65.04 3.26-.29 6.87-1.03 11.23l-9.85.1c.6-3.14.87-5.63.84-7.96-.05-3.97-1.17-5.51-4-5.48-2.68.03-3.64 1.57-3.59 5.76.03 2.61.36 4.87 1.11 7.41l-8.72.11z"/><path id="path68" d="M147.95 448.85c-4.13 1.19-8.05.97-10.55-.63-2.7-1.74-4.71-4.88-6.04-9.47-1.32-4.57-1.3-8.29.06-11.2 1.29-2.73 4.42-4.96 8.73-6.21 4.64-1.34 8.46-1.02 11.1.9 2.53 1.82 4.45 4.92 5.65 9.07 2.72 9.4-.14 15.01-8.95 17.56zm-4.88-17.18c-3.81 1.1-5.36 2.78-4.71 5.05.66 2.27 2.91 2.88 6.65 1.8 3.12-.9 4.38-2.53 3.72-4.79-.64-2.21-2.61-2.93-5.66-2.05z"/><path id="path70" d="M153.35 481.83c-2.37-2.55-3.65-4.28-5.49-7.27-3.06-4.97-3.96-7.95-3.4-11.15.56-3.26 3.09-6.57 6.76-8.82 3.54-2.18 7.47-2.92 10.47-1.99 2.84.88 5.35 3.09 7.58 6.71 1.71 2.78 3.28 6.04 4.88 10.16l-8.41 5.13c-1.1-3.01-2.14-5.28-3.36-7.27-2.08-3.39-3.83-4.14-6.24-2.65-2.28 1.4-2.32 3.21-.12 6.79 1.37 2.22 2.81 4 4.76 5.79z"/><path id="path72" d="m172.77 502.4 1.65-2.89-5.09-4.7-2.75 1.88-7.98-7.38 21.94-14 12.39 11.44-12.29 22.91-7.87-7.27zm9.24-16.08-7.05 4.33 3.22 2.97z"/><path id="path74" d="m188.15 513.94 12.71-21.73 9.19 5.38-12.71 21.73z"/><path id="path76" d="m223.54 529.81-3.49-12.92-3.39 10.76-9.6-3.02 7.55-24.01 10.19 3.2 2.47 11.81 3.16-10.04 9.6 3.02-7.55 24.01-8.95-2.81z"/><path id="path78" d="m244.02 534.3.83-25.16 23.75.79-.27 8.07-13.1-.43-.08 2.34 13.1.43-.2 6.03-13.1-.43-.07 2.11 13.1.43-.22 6.6-23.75-.79z"/><path id="path80" d="m307.93 525.9-2.66-7.34-5.02 1.82 2.66 7.34-10.01 3.63-8.58-23.66 10.02-3.63 3.04 8.37 5.02-1.82-3.04-8.37 10.02-3.63 8.58 23.66-10.01 3.63z"/><path id="path82" d="m327.65 516.43-13.68-21.13 8.94-5.79 13.68 21.13z"/><path id="path84" d="m345.75 504.36-18.06-17.54 13.56-13.97c3.55-3.65 7.88-3.52 11.89.38 2.46 2.39 3.81 5.34 3.63 8.07-.19 2.63-1.38 4.89-4.15 7.74l-3.57 3.68 4.12 4zm.75-18.92c1.38-1.43 1.4-2.8.05-4.11-1.14-1.1-2.32-1.13-3.3-.13l-2.94 3.03 3.79 3.68z"/><path id="path86" d="m371.03 476.13-22.2-11.86 9.18-17.18c2.4-4.49 6.61-5.56 11.53-2.92 3.03 1.62 5.14 4.08 5.72 6.75.55 2.58.02 5.08-1.85 8.59l-2.41 4.52 5.06 2.7-5.02 9.4zm-4.5-18.4c.94-1.75.57-3.07-1.09-3.96-1.4-.75-2.54-.44-3.2.79l-1.99 3.73 4.66 2.49 1.62-3.04z"/><path id="path88" d="M381.02 412.09c4.21.88 7.56 2.92 9.03 5.51 1.57 2.8 1.87 6.52.89 11.2-.97 4.65-2.74 7.93-5.3 9.87-2.42 1.81-6.23 2.31-10.62 1.39-4.73-.99-7.96-3.06-9.39-5.99-1.38-2.8-1.62-6.43-.74-10.66 2-9.58 7.16-13.19 16.13-11.32m-3.74 17.47c3.88.81 6.04.06 6.52-2.25s-1.23-3.91-5.03-4.7c-3.18-.67-5.05.18-5.53 2.49-.47 2.25.94 3.81 4.04 4.46"/><path id="path90" d="M385.48 405.04c.87-4.66 1.21-7.89 1.21-11.59 0-.93-.38-1.43-1.13-1.43-.64 0-.87.34-.87 1.46v1.74c0 .84-.15 2.7-.3 3.91-.34 2.61-1.21 4.19-2.87 5.25-1.25.81-2.91 1.21-4.83 1.21-2.87 0-5.17-.84-6.64-2.45-1.66-1.83-2.6-5.5-2.6-10.31 0-3.67.41-7.42 1.25-10.93h7.4c-.34 1.58-.79 5.84-.87 8.36v2.33c0 1.43.34 1.99 1.13 1.99.64 0 1.02-.44 1.02-1.15l.04-3.73c.04-2.14.38-4.13.94-5.34.91-1.96 3.4-3.26 6.27-3.26s5.32 1.21 6.87 3.23c1.66 2.17 2.19 4.47 2.19 9.22 0 4.19-.3 7.05-1.28 11.49h-6.91z"/></g><path id="path94" d="M168.82 254.79h182.19v146.74c0 50.28-40.82 91.1-91.1 91.1s-91.1-40.82-91.1-91.1V254.79z"/><g id="g518" style="clip-path:url(#clippath)"><g id="g100" style="clip-path:url(#clippath-1)"><path id="rect96" d="M168.82 428.14h183.67v75.81H168.82z" class="cls-30"/><path id="rect98" d="M168.82 350.31h183.67v77.82H168.82z" class="cls-30"/></g><g id="g444"><path id="path102" d="M259.17 623.51c-29.1 0-56.46-11.33-77.04-31.91s-31.91-47.94-31.91-77.04 11.33-56.46 31.91-77.04 47.94-31.91 77.04-31.91 56.46 11.33 77.04 31.91 31.91 47.94 31.91 77.04-11.33 56.46-31.91 77.04-47.94 31.91-77.04 31.91m0-211.2c-27.31 0-52.99 10.64-72.3 29.95s-29.95 44.99-29.95 72.3 10.64 52.99 29.95 72.3 44.99 29.95 72.3 29.95 52.99-10.64 72.3-29.95 29.95-44.99 29.95-72.3-10.64-52.99-29.95-72.3-44.99-29.95-72.3-29.95"/><g id="g434"><g id="g430" style="clip-path:url(#clippath-2)"><path id="rect104" d="M168.35 604.45H350v.93H168.35z"/><path id="rect106" d="M168.35 603.51H350v.93H168.35z"/><path id="rect108" d="M168.35 602.58H350v.93H168.35z"/><path id="rect110" d="M168.35 601.65H350v.93H168.35z"/><path id="rect112" d="M168.35 600.71H350v.93H168.35z"/><path id="rect114" d="M168.35 599.78H350v.93H168.35z"/><path id="rect116" d="M168.35 598.84H350v.93H168.35z"/><path id="rect118" d="M168.35 597.91H350v.93H168.35z"/><path id="rect120" d="M168.35 596.98H350v.93H168.35z"/><path id="rect122" d="M168.35 596.04H350v.93H168.35z"/><path id="rect124" d="M168.35 595.11H350v.93H168.35z"/><path id="rect126" d="M168.35 594.18H350v.93H168.35z"/><path id="rect128" d="M168.35 593.24H350v.93H168.35z"/><path id="rect130" d="M168.35 592.31H350v.93H168.35z"/><path id="rect132" d="M168.35 591.37H350v.93H168.35z"/><path id="rect134" d="M168.35 590.44H350v.93H168.35z"/><path id="rect136" d="M168.35 589.51H350v.93H168.35z"/><path id="rect138" d="M168.35 588.57H350v.93H168.35z"/><path id="rect140" d="M168.35 587.64H350v.93H168.35z"/><path id="rect142" d="M168.35 586.71H350v.93H168.35z"/><path id="rect144" d="M168.35 585.77H350v.93H168.35z"/><path id="rect146" d="M168.35 584.84H350v.93H168.35z"/><path id="rect148" d="M168.35 583.9H350v.93H168.35z"/><path id="rect150" d="M168.35 582.97H350v.93H168.35z" class="cls-14"/><path id="rect152" d="M168.35 582.04H350v.93H168.35z" class="cls-14"/><path id="rect154" d="M168.35 581.1H350v.93H168.35z" class="cls-14"/><path id="rect156" d="M168.35 580.17H350v.93H168.35z" class="cls-14"/><path id="rect158" d="M168.35 579.23H350v.93H168.35z" style="fill:#010100"/><path id="rect160" d="M168.35 578.3H350v.93H168.35z" class="cls-12"/><path id="rect162" d="M168.35 577.37H350v.93H168.35z" class="cls-12"/><path id="rect164" d="M168.35 576.43H350v.93H168.35z" class="cls-12"/><path id="rect166" d="M168.35 575.5H350v.93H168.35z" class="cls-12"/><path id="rect168" d="M168.35 574.57H350v.93H168.35z" class="cls-12"/><path id="rect170" d="M168.35 573.63H350v.93H168.35z" class="cls-52"/><path id="rect172" d="M168.35 572.7H350v.93H168.35z" class="cls-52"/><path id="rect174" d="M168.35 571.76H350v.93H168.35z" class="cls-52"/><path id="rect176" d="M168.35 570.83H350v.93H168.35z" class="cls-52"/><path id="rect178" d="M168.35 569.9H350v.93H168.35z" class="cls-52"/><path id="rect180" d="M168.35 568.96H350v.93H168.35z" style="fill:#020201"/><path id="rect182" d="M168.35 568.03H350v.93H168.35z" style="fill:#030201"/><path id="rect184" d="M168.35 567.1H350v.93H168.35z" class="cls-9"/><path id="rect186" d="M168.35 566.16H350v.93H168.35z" class="cls-9"/><path id="rect188" d="M168.35 565.23H350v.93H168.35z" class="cls-9"/><path id="rect190" d="M168.35 564.29H350v.93H168.35z" class="cls-9"/><path id="rect192" d="M168.35 563.36H350v.93H168.35z" class="cls-77"/><path id="rect194" d="M168.35 562.43H350v.93H168.35z" class="cls-77"/><path id="rect196" d="M168.35 561.49H350v.93H168.35z" class="cls-43"/><path id="rect198" d="M168.35 560.56H350v.93H168.35z" class="cls-43"/><path id="rect200" d="M168.35 559.63H350v.93H168.35z" class="cls-109"/><path id="rect202" d="M168.35 558.69H350v.93H168.35z" class="cls-109"/><path id="rect204" d="M168.35 557.76H350v.93H168.35z" class="cls-109"/><path id="rect206" d="M168.35 556.82H350v.93H168.35z" class="cls-69"/><path id="rect208" d="M168.35 555.89H350v.93H168.35z" class="cls-69"/><path id="rect210" d="M168.35 554.96H350v.93H168.35z" class="cls-69"/><path id="rect212" d="M168.35 554.02H350v.93H168.35z" class="cls-70"/><path id="rect214" d="M168.35 553.09H350v.93H168.35z" class="cls-70"/><path id="rect216" d="M168.35 552.16H350v.93H168.35z" style="fill:#070504"/><path id="rect218" d="M168.35 551.22H350v.93H168.35z" class="cls-83"/><path id="rect220" d="M168.35 550.29H350v.93H168.35z" class="cls-83"/><path id="rect222" d="M168.35 549.35H350v.93H168.35z" style="fill:#080605"/><path id="rect224" d="M168.35 548.42H350v.93H168.35z" class="cls-53"/><path id="rect226" d="M168.35 547.49H350v.93H168.35z" class="cls-53"/><path id="rect228" d="M168.35 546.55H350v.93H168.35z" style="fill:#0a0605"/><path id="rect230" d="M168.35 545.62H350v.93H168.35z" style="fill:#0a0706"/><path id="rect232" d="M168.35 544.69H350v.93H168.35z" class="cls-13"/><path id="rect234" d="M168.35 543.75H350v.93H168.35z" class="cls-13"/><path id="rect236" d="M168.35 542.82H350v.93H168.35z" class="cls-55"/><path id="rect238" d="M168.35 541.88H350v.93H168.35z" class="cls-55"/><path id="rect240" d="M168.35 540.95H350v.93H168.35z" style="fill:#0d0807"/><path id="rect242" d="M168.35 540.02H350v.93H168.35z" style="fill:#0d0907"/><path id="rect244" d="M168.35 539.08H350v.93H168.35z" style="fill:#0e0908"/><path id="rect246" d="M168.35 538.15H350v.93H168.35z" style="fill:#0f0908"/><path id="rect248" d="M168.35 537.22H350v.93H168.35z" style="fill:#0f0a08"/><path id="rect250" d="M168.35 536.28H350v.93H168.35z" style="fill:#100a09"/><path id="rect252" d="M168.35 535.35H350v.93H168.35z" style="fill:#110b09"/><path id="rect254" d="M168.35 534.41H350v.93H168.35z" style="fill:#110b0a"/><path id="rect256" d="M168.35 533.48H350v.93H168.35z" style="fill:#120c0a"/><path id="rect258" d="M168.35 532.55H350v.93H168.35z" style="fill:#130c0a"/><path id="rect260" d="M168.35 531.61H350v.93H168.35z" style="fill:#130c0b"/><path id="rect262" d="M168.35 530.68H350v.93H168.35z" style="fill:#140d0b"/><path id="rect264" d="M168.35 529.75H350v.93H168.35z" style="fill:#150d0c"/><path id="rect266" d="M168.35 528.81H350v.93H168.35z" class="cls-44"/><path id="rect268" d="M168.35 527.88H350v.93H168.35z" class="cls-44"/><path id="rect270" d="M168.35 526.94H350v.93H168.35z" style="fill:#170f0d"/><path id="rect272" d="M168.35 526.01H350v.93H168.35z" style="fill:#18100d"/><path id="rect274" d="M168.35 525.08H350v.93H168.35z" style="fill:#19100e"/><path id="rect276" d="M168.35 524.14H350v.93H168.35z" style="fill:#1a110e"/><path id="rect278" d="M168.35 523.21H350v.93H168.35z" style="fill:#1b110f"/><path id="rect280" d="M168.35 522.27H350v.93H168.35z" style="fill:#1b120f"/><path id="rect282" d="M168.35 521.34H350v.93H168.35z" style="fill:#1c1210"/><path id="rect284" d="M168.35 520.41H350v.93H168.35z" style="fill:#1d1310"/><path id="rect286" d="M168.35 519.47H350v.93H168.35z" style="fill:#1e1411"/><path id="rect288" d="M168.35 518.54H350v.93H168.35z" style="fill:#1f1411"/><path id="rect290" d="M168.35 517.61H350v.93H168.35z" style="fill:#201512"/><path id="rect292" d="M168.35 516.67H350v.93H168.35z" style="fill:#211613"/><path id="rect294" d="M168.35 515.74H350v.93H168.35z" style="fill:#221613"/><path id="rect296" d="M168.35 514.8H350v.93H168.35z" style="fill:#231714"/><path id="rect298" d="M168.35 513.87H350v.93H168.35z" style="fill:#251814"/><path id="rect300" d="M168.35 512.94H350v.93H168.35z" style="fill:#261815"/><path id="rect302" d="M168.35 512H350v.93H168.35z" style="fill:#271916"/><path id="rect304" d="M168.35 511.07H350v.93H168.35z" style="fill:#281a16"/><path id="rect306" d="M168.35 510.14H350v.93H168.35z" style="fill:#291b17"/><path id="rect308" d="M168.35 509.2H350v.93H168.35z" style="fill:#2a1b18"/><path id="rect310" d="M168.35 508.27H350v.93H168.35z" style="fill:#2c1c18"/><path id="rect312" d="M168.35 507.33H350v.93H168.35z" style="fill:#2d1d19"/><path id="rect314" d="M168.35 506.4H350v.93H168.35z" style="fill:#2e1e1a"/><path id="rect316" d="M168.35 505.47H350v.93H168.35z" style="fill:#2f1f1a"/><path id="rect318" d="M168.35 504.53H350v.93H168.35z" style="fill:#31201b"/><path id="rect320" d="M168.35 503.6H350v.93H168.35z" style="fill:#32201c"/><path id="rect322" d="M168.35 502.67H350v.93H168.35z" style="fill:#34211d"/><path id="rect324" d="M168.35 501.73H350v.93H168.35z" style="fill:#35221d"/><path id="rect326" d="M168.35 500.8H350v.93H168.35z" style="fill:#36231e"/><path id="rect328" d="M168.35 499.86H350v.93H168.35z" style="fill:#38241f"/><path id="rect330" d="M168.35 498.93H350v.93H168.35z" style="fill:#392520"/><path id="rect332" d="M168.35 498H350v.93H168.35z" style="fill:#3b2621"/><path id="rect334" d="M168.35 497.06H350v.93H168.35z" style="fill:#3c2721"/><path id="rect336" d="M168.35 496.13H350v.93H168.35z" style="fill:#3e2822"/><path id="rect338" d="M168.35 495.2H350v.93H168.35z" style="fill:#3f2923"/><path id="rect340" d="M168.35 494.26H350v.93H168.35z" style="fill:#412a24"/><path id="rect342" d="M168.35 493.33H350v.93H168.35z" style="fill:#432b25"/><path id="rect344" d="M168.35 492.39H350v.93H168.35z" style="fill:#442c26"/><path id="rect346" d="M168.35 491.46H350v.93H168.35z" style="fill:#462d27"/><path id="rect348" d="M168.35 490.53H350v.93H168.35z" style="fill:#482e28"/><path id="rect350" d="M168.35 489.59H350v.93H168.35z" style="fill:#493029"/><path id="rect352" d="M168.35 488.66H350v.93H168.35z" style="fill:#4b312a"/><path id="rect354" d="M168.35 487.73H350v.93H168.35z" style="fill:#4d322b"/><path id="rect356" d="M168.35 486.79H350v.93H168.35z" style="fill:#4f332c"/><path id="rect358" d="M168.35 485.86H350v.93H168.35z" style="fill:#51342d"/><path id="rect360" d="M168.35 484.92H350v.93H168.35z" style="fill:#53362e"/><path id="rect362" d="M168.35 483.99H350v.93H168.35z" style="fill:#54372f"/><path id="rect364" d="M168.35 483.06H350v.93H168.35z" style="fill:#563830"/><path id="rect366" d="M168.35 482.12H350v.93H168.35z" style="fill:#583931"/><path id="rect368" d="M168.35 481.19H350v.93H168.35z" style="fill:#5a3b32"/><path id="rect370" d="M168.35 480.26H350v.93H168.35z" style="fill:#5c3c33"/><path id="rect372" d="M168.35 479.32H350v.93H168.35z" style="fill:#5e3d34"/><path id="rect374" d="M168.35 478.39H350v.93H168.35z" style="fill:#613f36"/><path id="rect376" d="M168.35 477.45H350v.93H168.35z" style="fill:#634037"/><path id="rect378" d="M168.35 476.52H350v.93H168.35z" style="fill:#654138"/><path id="rect380" d="M168.35 475.59H350v.93H168.35z" style="fill:#674339"/><path id="rect382" d="M168.35 474.65H350v.93H168.35z" style="fill:#69443a"/><path id="rect384" d="M168.35 473.72H350v.93H168.35z" style="fill:#6b463c"/><path id="rect386" d="M168.35 472.79H350v.93H168.35z" style="fill:#6e473d"/><path id="rect388" d="M168.35 471.85H350v.93H168.35z" style="fill:#70493e"/><path id="rect390" d="M168.35 470.92H350v.93H168.35z" style="fill:#724a40"/><path id="rect392" d="M168.35 469.98H350v.93H168.35z" style="fill:#754c41"/><path id="rect394" d="M168.35 469.05H350v.93H168.35z" style="fill:#774d42"/><path id="rect396" d="M168.35 468.12H350v.93H168.35z" style="fill:#7a4f44"/><path id="rect398" d="M168.35 467.18H350v.93H168.35z" style="fill:#7c5045"/><path id="rect400" d="M168.35 466.25H350v.93H168.35z" style="fill:#7f5246"/><path id="rect402" d="M168.35 465.32H350v.93H168.35z" style="fill:#815448"/><path id="rect404" d="M168.35 464.38H350v.93H168.35z" style="fill:#845549"/><path id="rect406" d="M168.35 463.45H350v.93H168.35z" style="fill:#86574b"/><path id="rect408" d="M168.35 462.51H350v.93H168.35z" style="fill:#89594c"/><path id="rect410" d="M168.35 461.58H350v.93H168.35z" style="fill:#8b5a4d"/><path id="rect412" d="M168.35 460.65H350v.93H168.35z" style="fill:#8e5c4f"/><path id="rect414" d="M168.35 459.71H350v.93H168.35z" style="fill:#915e50"/><path id="rect416" d="M168.35 458.78H350v.93H168.35z" style="fill:#946052"/><path id="rect418" d="M168.35 457.84H350v.93H168.35z" style="fill:#966254"/><path id="rect420" d="M168.35 456.91H350v.93H168.35z" style="fill:#996355"/><path id="rect422" d="M168.35 455.98H350v.93H168.35z" style="fill:#9c6557"/><path id="rect424" d="M168.35 455.04H350v.93H168.35z" style="fill:#9f6758"/><path id="rect426" d="M168.35 454.11H350v.93H168.35z" class="cls-21"/><path id="rect428" d="M168.35 423.73H350v30.38H168.35z" class="cls-21"/></g><path id="path432" d="M259.17 610.3c-52.8 0-95.75-42.95-95.75-95.75s42.95-95.75 95.75-95.75 95.75 42.95 95.75 95.75-42.95 95.75-95.75 95.75m0-181.65c-47.37 0-85.9 38.54-85.9 85.9s38.54 85.9 85.9 85.9 85.9-38.54 85.9-85.9-38.54-85.9-85.9-85.9"/></g><path id="path436" d="M301.57 484.4c-9.82-6.5-16.34-16.19-19.39-28.79-2.18-9.01-2.56-19.33-1.11-30.64l6.66.85c-4.03 31.51 7.32 46.21 17.55 52.98z"/><path id="path438" d="M207.16 482.66h-.53l.27-6.71c.27 0 27.89.51 112.23-31.67l2.39 6.27c-80.81 30.84-110.08 32.12-114.36 32.12z"/><path id="path440" d="M255.02 493.05c-3.98-15.8-12.41-27.78-25.08-35.61-10.61-6.56-21.94-8.84-29.59-9.6l.67-6.68c8.35.83 20.76 3.34 32.45 10.57 14.2 8.78 23.64 22.13 28.06 39.68z"/><path id="path442" d="M278.15 491.42c-12.54-19.51-29.01-54-35.51-67.92l6.08-2.84c6.44 13.8 22.76 47.97 35.07 67.13l-5.65 3.63z"/></g><g id="g516"><g id="g512"><g id="g488"><path id="path446" d="M337.83 337.55c-2.82-9.35-7.82-15.8-14.46-18.65-5.18-2.22-10.38-3.35-15.44-3.35-4.3 0-7.71.8-10.08 1.63l-5.35-2.45c-.83-6.92-3.55-14.85-10.88-20.01-3.28-2.31-6.77-3.53-9.82-4.16l-.37-.46c-.2-10.13-6.73-13.95-10.99-15.52-.11-.04-.22-.08-.33-.11-2.46-.77-4.81-1.26-7.02-1.48-12.75-.71-16.35 9.38-16.42 9.63l-.01 2.89c-.64-1.13-3.38 13.14-3.56 11.18-.5-5.62-4.58-10.84-10.16-11.69-.36-.05-6.21 1.58-6.6 1.52-4.16-.64-11.59 1.06-15.75 1.02-32.91-.34-50.61.21-58.75 32.11-5.64 22.11-4.6 42.17 29.28 40.55l-5.08 1.52 2.54-1.52c-10.75 5.42-4 3.27-15.02-1.58-6.67-2.93-11.24-5.95-11.44-6.08 4.56 9.06 9 14.52 12.65 17.81-6.06 1.52-8.81 8.95-4.54 13.95 12.36 14.5 30.41 24.99 51.54 28.22 14.03 2.14 27.72.82 40.06-3.28 6.42 2.61 14.54 3.93 24.2 3.93 11.78 0 21.78-1.97 22.2-2.05.13-.02.25-.05.37-.09 15.01-3.87 25.78-9.53 32-16.82.35-.41.67-.81.98-1.21 1.33-1.74.53-4.25-1.57-4.87l-2.33-.68c6.34-1.34 11.95-3.12 13.65-4.47.58-.49.99-.89 1.2-1.1q.51-.51.9-1.11c4.48-6.83 6.02-15.12 6.53-20.87.68-7.68-.07-15.62-2.1-22.36z" class="cls-54"/><path id="path448" d="M337.83 330.65c-2.82-9.35-7.82-15.8-14.46-18.65-5.18-2.22-10.38-3.35-15.44-3.35-4.3 0-7.71.8-10.08 1.63l-5.35-2.45c-.83-6.92-3.55-14.85-10.88-20.01-3.28-2.31-6.77-3.53-9.82-4.16l-.37-.46c-.2-10.13-6.73-13.95-10.99-15.52-.11-.04-.22-.08-.33-.11-2.46-.77-4.81-1.26-7.02-1.48-12.75-.71-16.35 9.38-16.42 9.63l-.01 2.89c-.64-1.13-3.38 13.14-3.56 11.18-.5-5.62-4.58-10.84-10.16-11.69-.36-.05-6.21 1.58-6.6 1.52-4.16-.64-11.59 1.06-15.75 1.02-32.91-.34-50.61.21-58.75 32.11-5.64 22.11-4.6 42.17 29.28 40.55l-5.08 1.52 2.54-1.52c-10.75 5.42-4 3.27-15.02-1.58-6.67-2.93-11.24-5.95-11.44-6.08 4.56 9.06 9 14.52 12.65 17.81-6.06 1.52-8.81 8.95-4.54 13.95 12.36 14.5 30.41 24.99 51.54 28.22 14.03 2.14 27.72.82 40.06-3.28 6.42 2.61 14.54 3.93 24.2 3.93 11.78 0 21.78-1.97 22.2-2.05.13-.02.25-.05.37-.09 15.01-3.87 25.78-9.53 32-16.82.35-.41.67-.81.98-1.21 1.33-1.74.53-4.25-1.57-4.87l-2.33-.68c6.34-1.34 11.95-3.12 13.65-4.47.58-.49.99-.89 1.2-1.1q.51-.51.9-1.11c4.48-6.83 6.02-15.12 6.53-20.87.68-7.68-.07-15.62-2.1-22.36z" class="cls-27"/><path id="path450" d="M303.64 328.34s5.56-1.44 8.04 2.04l2.92 11 7.01-1.56-2.98-11.93-8.94-5.47-6.46.5" class="cls-30"/><path id="path452" d="m251.16 302.14 18.29.91s4.97 0 3.98 8.45.13.87.13.87l6.02 2.61 1.59-12.84-10.22-6.54-18.39.5" class="cls-28"/><path id="path454" d="M297.55 328.64c-.86-.82-23.34-7.46-21.72 12.74 0 0-.28 3.3 5.86 1.86l5.53-1.86 7.57 7.38 4.97 2.43 9.6-2.72c3.63-.31 1.07-12.72-6.54-18.49" class="cls-54"/><path id="path456" d="M200.38 297.58s11.43-10.05 20.37 8.39c0 0 .5-14.85-10.93-16.34 0 0-9.94-.99-9.44 7.95" class="cls-30"/><path id="path458" d="M155.39 317.45s25.11-50.78 94.18-20.91l-14.76-18.04-39.74-1.9-18.54 6.08-9.29 12.05" class="cls-28"/><path id="path460" d="M299.6 371.37c-8.55 1.76-14.95 1.4-19.51.39-5.15-1.14-9.21-5.08-10.72-10.13-2.88-9.65-7.16-18.85-7.16-18.85l-2.45 7.66 2.45 19.14 5.25 9.49 17.39 1.99s35.28-13.91 14.75-9.69" class="cls-35"/><path id="path462" d="M320.63 318.4c-13.91-5.96-22.86-.5-22.86-.5l-11.93-5.47c-.5-25.34-22.36-22.36-22.36-22.36 3.98-13.91-5.47-17.39-5.47-17.39-15.9-4.97-17.89 5.96-17.89 5.96-15.4-9.44-31.8-9.94-31.8-9.94-42.24.99-51.68 27.83-55.65 49.69-.75 4.12-1.06 7.6-1.06 10.55-13.57-4.1-22.48-23.22-22.48-23.22 4.16 20.26 14.07 31.4 21.09 36.98 3.11 2.47 7.69.24 7.69-3.72v-6.88c4.56-41.48 27.38-49.1 27.38-49.1 38.57-11.54 64.28 13.53 64.28 13.53-15.4-6.46-25.34 0-25.34 0-.99-14.41-23.85-19.88-28.32-3.48s8.66 18.88 8.66 18.88c-3.27 5.47-4.18 10.43-4.18 10.43 4.97-8.94 15.4-10.43 15.4-10.43 0-4.47-8.45-5.47-8.45-5.47-7.45-2.48-10.43-15.9 1.49-16.4 11.93-.5 11.93 15.9 11.93 15.9s.99-5.96 11.93-7.45c10.93-1.49 15.9 3.98 15.9 3.98l21.37-2.98c12.92.99 3.98 15.9 3.98 15.9l14.65 8.72c2.88 1.72 5.86 3.29 8.98 4.51 7.65 2.98 9.66 10.63 9.66 10.63 0-4.15-.78-6.96-1.73-8.84-1.14-2.27.53-4.92 3.07-4.9 6.59.04 11.58 4.77 11.58 11.26 0 8.45-6.46 11.93-6.46 11.93 6.46-.99 8.45-5.96 8.45-5.96 2.98 15.4-1.99 24.85-1.99 24.85-23.35 0-28.32 11.93-43.73 8.45s-10.43-11.43-12.92-28.32c-2.48-16.89-19.38-17.39-19.38-17.39 6.46 3.48 14.91 14.41 10.93 24.85-3.98 10.43-14.91 10.43-14.91 10.43 13.42 0 18.39 12.42 28.32 17.89 9.94 5.47 35.28-2.98 35.28-2.98-14.91 11.93-38.26 7.95-50.19 6.46s-14.91-11.43-14.91-11.43c-34.29-6.46-36.77-37.76-36.77-37.76-7.45 37.27 25.84 40.75 25.84 40.75-15.4 6.46-23.6-2.34-23.6-2.34-17.39-14.91-12.67-47.85-12.67-47.85-6.96 6.96-5.96 13.42-5.96 13.42-4.97-5.96-1.99-23.85-1.99-23.85-17.89 40.25 11.43 58.63 11.43 58.63-12.92 6.96-29.81-3.48-29.81-3.48 36.27 33.79 77.32 21.95 77.32 21.95 16.2 8.03 44.42 2.4 44.42 2.4 32.8-8.45 32.3-22.86 32.3-22.86 4.47-.5 8.45-4.47 8.45-4.47 9.44-14.41 6.96-45.72-6.96-51.68z" class="cls-54"/><path id="path464" d="M277.15 312.19s-6.96-5.96-17.39-6.46l14.16 9.69" class="cls-54"/><path id="path466" d="m245.1 288.56 3.51 1.75s1.75-5.26 4.09-5.84 2.34 4.67 1.75 7.59c0 0 4.09-2.34 2.34-9.35s-11.1-6.43-11.68 5.84z" class="cls-27"/><path id="path468" d="M206.9 295.16c-1.61.93-2.57 3.16-1.55 4.86 1.49 2.48 8.07 5.22 8.07 5.22l-2.11-5.71s3.98 2.48 4.97 7.45c0 0 .99-5.47-1.99-8.94-1.31-1.53-3.45-3.04-5.49-3.28-.67-.08-1.33.08-1.9.41z" class="cls-54"/><path id="path470" d="M230.19 309.45s.99-2.98 7.95-1.49 5.96 7.95 8.94 10.93 5.47 5.47 6.96 8.45c0 0-3.98-2.98-8.45-2.98s-13.42 0-10.43-12.92z" class="cls-54"/><path id="path472" d="M278.51 340.53c-.47 1.86 1.39 3.42 3.18 2.72 1.42-.56 3.08-.79 4.65 0 3.98 1.99 4.47 6.96 13.42 7.95l-6.96-6.96c-2.98-2.98-4.97-4.97-10.93-4.47 0 0 3.48-3.48 10.93-1.49s9.94 10.43 9.94 10.43l2.98-.99s0-13.91-12.92-15.9c-9.41-1.45-13.02 3.7-14.29 8.71" class="cls-30"/><path id="path474" d="M305.72 347.72s0-13.91-12.92-15.9c-.85-.13-1.65-.21-2.41-.23.03.02 6.19 4.29 9.52 11.72 2.04 2.71 2.83 5.41 2.83 5.41l2.98-.99z" class="cls-28"/><path id="path476" d="M309.69 343.24s2.98-5.96-.5-14.91c0 0 10.43 4.47 5.47 15.9 0 0-3.48 2.98-4.97-.99" class="cls-54"/><path id="path478" d="M232.67 298.52c-10.12 1.38-11.72 6.58-11.9 7.35l-.02.1v5.3s5.22-8.53 17.14-8.53 17.89 16.89 17.89 19.88c0 0 1.99-12.42-7.21-20.12 0 0-4.97-5.47-15.9-3.98" class="cls-30"/><path id="path480" d="M248.58 302.5s-2.93-3.21-9.23-4.04c1.83 1.29 5.7 4.31 7.4 7.79 6.02 5.12 9.03 14.25 9.03 16.37 0 0 1.99-12.42-7.21-20.12z" class="cls-28"/><path id="path482" d="M238.93 317.22c-.24-.53-.37-1.08-.4-1.61h-.04c-1.09-.21-2.03.82-1.74 1.89 1.22 4.52 3.53 4.93 5.17 4.56 1.07-.24 1.59-1.47 1.04-2.42-1.56.24-3.24-.71-4.02-2.41z" class="cls-35"/><circle id="circle484" cx="239.63" cy="314.48" r="1.99" class="cls-35"/><path id="path486" d="M238.14 328.89c-9.23-.7-13.75-4.34-14.84-8.25-.47 4.23.51 8.96 6.14 9.69 3.17.41 6.21.48 8.7.42z" class="cls-28"/></g><g id="g508"><path id="path490" d="m293.81 356.24 1.42.88c.57.36 1.06.84 1.41 1.41l.88 1.42.93-1.48c.36-.57.85-1.05 1.43-1.41l1.35-.82-1.42-.88c-.57-.36-1.06-.84-1.41-1.41l-.88-1.42-.88 1.42c-.36.57-.84 1.06-1.41 1.41z" class="cls-72"/><path id="path492" d="m312.35 356.24 1.74 1.08c.7.44 1.3 1.03 1.74 1.74l1.08 1.74 1.14-1.82c.44-.7 1.04-1.29 1.75-1.72l1.66-1.01-1.74-1.08c-.7-.44-1.3-1.03-1.74-1.74l-1.08-1.74-1.08 1.74c-.44.7-1.03 1.3-1.74 1.74l-1.74 1.08z" class="cls-72"/><path id="path494" d="m306.36 353.51 1.11.69c.45.28.83.66 1.11 1.11l.69 1.11.73-1.16c.28-.45.66-.83 1.12-1.1l1.06-.64-1.11-.69c-.45-.28-.83-.66-1.11-1.11l-.69-1.11-.69 1.11c-.28.45-.66.83-1.11 1.11l-1.11.69z" class="cls-72"/><path id="path496" d="m301.21 353.05.61.38c.25.15.46.36.61.61l.38.61.4-.64c.16-.25.37-.46.62-.61l.58-.36-.61-.38a1.8 1.8 0 0 1-.61-.61l-.38-.61-.38.61c-.15.25-.36.46-.61.61l-.61.38z" class="cls-72"/><path id="path498" d="m307.76 360.14.61.38c.25.15.46.36.61.61l.38.61.4-.64c.16-.25.37-.46.62-.61l.58-.36-.61-.38a1.8 1.8 0 0 1-.61-.61l-.38-.61-.38.61c-.15.25-.36.46-.61.61l-.61.38z" class="cls-72"/><path id="path500" d="m312.12 362.87.86.53c.35.22.64.51.86.86l.53.86.57-.9c.22-.35.52-.64.87-.86l.82-.5-.86-.53c-.35-.22-.64-.51-.86-.86l-.53-.86-.53.86c-.22.35-.51.64-.86.86l-.86.53z" class="cls-72"/><path id="path502" d="m318.12 349.78.86.53c.35.22.64.51.86.86l.53.86.57-.9c.22-.35.52-.64.87-.86l.82-.5-.86-.53c-.35-.22-.64-.51-.86-.86l-.53-.86-.53.86c-.22.35-.51.64-.86.86l-.86.53z" class="cls-72"/><path id="path504" d="m305.58 347.6.61.38c.25.15.46.36.61.61l.38.61.4-.64c.16-.25.37-.46.62-.61l.58-.36-.61-.38a1.8 1.8 0 0 1-.61-.61l-.38-.61-.38.61c-.15.25-.36.46-.61.61l-.61.38z" class="cls-72"/><path id="path506" d="m300.94 359.36.87.54c.35.22.65.52.87.87l.54.87.57-.91c.22-.35.52-.65.88-.86l.83-.5-.87-.54a2.8 2.8 0 0 1-.87-.87l-.54-.87-.54.87c-.22.35-.52.65-.87.87l-.87.54z" class="cls-72"/></g><path id="path510" d="M236.7 361.92s22.31-1.5 8.4-23.72c0 0 5.57 18-8.4 23.72" class="cls-28"/></g><path id="path514" d="M191.43 328.34s-3.48 49.64 36.27 50.19c0 0-39.26 18.83-36.27-50.19" class="cls-28"/></g></g><path id="path520" d="M259.91 496.56c-52.4 0-95.04-42.63-95.04-95.03V250.85h190.07v150.68c0 52.4-42.63 95.03-95.03 95.03m-87.15-237.84v142.8c0 48.06 39.1 87.16 87.16 87.16s87.16-39.1 87.16-87.16v-142.8H172.77Z" class="cls-27"/><path id="path522" d="M170.16 282.82s14.41-15.23 54.79-9.32c0 0-24.39-16.9-54.79-4.51" class="cls-27"/><path id="path524" d="M194.91 376.54s-28.55 12.68-62.53-12.44h32.5s-16.74-6.4-37.42-25.61c0 0 23.14 8.86 37.42 4.43" class="cls-27"/><g id="g532"><path id="rect526" d="M378.09 251.83h4.43v95.53h-4.43z" class="cls-30"/><path id="rect528" d="M368.24 251.83h4.43v95.53h-4.43z" class="cls-72" transform="rotate(180 370.46 299.595)"/><path id="rect530" d="M387.94 251.83h4.43v95.53h-4.43z" class="cls-72" transform="rotate(180 390.155 299.595)"/></g><path id="path534" d="M259.91 555.65c-20.78 0-40.97-4.08-60.01-12.14-18.36-7.77-34.84-18.87-48.97-33s-25.24-30.61-33-48.97c-8.05-19.04-12.14-39.23-12.14-60.01V191.76h308.25v209.77c0 20.78-4.08 40.97-12.14 60.01-7.77 18.36-18.87 34.84-33 48.97s-30.61 25.24-48.97 33c-19.04 8.05-39.23 12.14-60.01 12.14zM113.67 199.64v201.89c0 19.72 3.87 38.88 11.52 56.94 7.37 17.42 17.91 33.06 31.32 46.47s29.05 23.95 46.47 31.32c18.07 7.64 37.22 11.52 56.94 11.52s38.88-3.87 56.94-11.52c17.42-7.37 33.06-17.91 46.47-31.32s23.95-29.05 31.32-46.47c7.64-18.07 11.52-37.22 11.52-56.94V199.64Z" class="cls-27"/><path id="polyline536" d="M109.73 237.33h41.85l-41.85-10.34" class="cls-27"/><path id="polyline538" d="M109.73 217.63h41.85l-41.85-10.33" class="cls-27"/><path id="polyline540" d="M410.1 237.33h-41.86l41.86-10.34" class="cls-27"/><path id="polyline542" d="M410.1 217.63h-41.86l41.86-10.33" class="cls-27"/></g></svg>