<svg xmlns="http://www.w3.org/2000/svg" id="Layer_1" width="385.3" height="367.6" data-name="Layer 1" viewBox="0 0 385.3 367.6"><defs id="defs4"><style id="style2">.cls-1{fill:#7f96b2}.cls-2,.cls-3{fill:#c3d3e6}.cls-3{stroke-width:1.78px;stroke-miterlimit:10;stroke:#c3d3e6}.cls-11{fill:#031532}.cls-12{fill:#ce9858}.cls-13{fill:#0480ff}</style></defs><g id="g228" transform="translate(-65.56 -177.99)"><path id="path100" d="M284.76 536.85c-5.42-.36-10.92-.54-16.35-.54h-20.42c-5.43 0-10.93.18-16.35.54l-82.2 5.48 5.38-26.67-23.99 8.43 5.68-21.55-50.17 13.74v-96.81l-14.79-20h373.31l-14.79 20v96.81l-50.17-13.74 5.68 21.55-23.99-8.43 5.38 26.67-82.2-5.48z" class="cls-11"/><path id="path102" d="m438.86 402.49-11.82 15.98v93.84l-51.4-14.07 5.56 21.1-23.63-8.3 5.64 28.01-78.25-5.22c-5.51-.37-11.03-.55-16.55-.55h-20.42c-5.52 0-11.04.18-16.55.55l-78.25 5.22 5.64-28.01-23.63 8.3 5.56-21.1-51.4 14.07v-93.84l-11.82-15.98zm11.99-6.05H65.56l7.13 9.64 10.63 14.38v99.77l7.64-2.09 41.29-11.31-2.89 10.96-2.9 11.02 10.75-3.78 13.6-4.78-3.54 17.59-1.56 7.75 7.89-.53 78.25-5.22c5.35-.36 10.78-.54 16.15-.54h20.42c5.36 0 10.79.18 16.15.54l78.25 5.22 7.89.53-1.56-7.75-3.54-17.59 13.6 4.78 10.75 3.78-2.9-11.02-2.89-10.96 41.29 11.31 7.64 2.09v-99.77l10.63-14.38 7.13-9.64z" class="cls-13"/><path id="polygon104" d="M77.55 396.44H65.56l7.12 9.64 10.64 14.38v47.25l6.04-5.67v-43.57l-11.81-15.98h361.31l-11.81 15.98v43.08l6.04 4.36v-45.45l10.63-14.38 7.13-9.64H192.87z" class="cls-2"/><g id="g124"><path id="path106" d="M108.69 418.96c6.91 0 13.81-.02 20.72-.02 1.06 0 1.9.4 2.53 1.19s.94 1.79.94 2.99q1.59-.015 2.52.99c.63.67.94 1.6.94 2.8-.01 6.06-.03 12.12-.04 18.19 0 2.62-.8 4.87-2.39 6.79-.33.4-.63.61-.89.63.79.32 1.38.69 1.78 1.11 1.58 1.69 2.37 3.79 2.36 6.33-.01 5.71-.03 11.43-.04 17.14 0 2.62-.8 4.91-2.39 6.93-1.58 2.02-3.53 3.21-5.83 3.55-6.74 1.03-13.47 2.11-20.2 3.26v-71.87zm7.73 8.55c0 7.5-.01 15.01-.02 22.51 3.36-.25 6.72-.48 10.09-.71.53-.04.99-.3 1.39-.78s.6-1.07.6-1.75l.03-17.8c0-.46-.13-.84-.39-1.13-.33-.37-.66-.56-.99-.55l-10.7.21zm-.04 53.47c3.65-.53 7.3-1.03 10.95-1.52.46-.06.92-.39 1.38-.98.4-.51.59-1.06.6-1.67l.03-17.31c0-.68-.2-1.24-.59-1.66s-.86-.61-1.38-.57c-3.66.31-7.31.63-10.97.97 0 7.58-.01 15.16-.02 22.75z" class="cls-3"/><path id="path108" d="M145.17 418.93H153c-.06 18.4-.11 36.8-.17 55.2 0 .58.2 1.07.59 1.46.46.46.92.66 1.38.61 5.41-.56 10.83-1.08 16.24-1.57-.01 3.08-.02 4.61-.03 7.69-5.95.59-11.89 1.26-17.83 1.97-2.31.28-4.25-.35-5.83-1.91s-2.36-3.64-2.36-6.21l.15-57.24z" class="cls-3"/><path id="path110" d="M197.14 473.07c.53-.03.99-.26 1.39-.69q.6-.645.6-1.56c.05-17.31.11-34.62.16-51.93h7.83l-.15 52.61c0 2.35-.81 4.37-2.4 6.07-1.59 1.71-3.55 2.64-5.87 2.8-4.5.31-9 .66-13.5 1.04-2.32.2-4.26-.46-5.84-1.98-1.58-1.53-2.37-3.51-2.36-5.95l.18-54.59h7.73l-.18 52.86q0 .825.69 1.5c.4.38.86.56 1.39.52 3.44-.25 6.88-.49 10.32-.7z" class="cls-3"/><path id="path112" d="M217.76 448.78q-.195-.39-.3-.39c-1.65-1.62-2.47-3.57-2.47-5.83.01-5.53.03-11.05.04-16.58 0-1.06.32-1.9.95-2.5s1.47-.9 2.53-.91c0-1.06.32-1.94.95-2.64s1.47-1.05 2.53-1.05h18.54v7.18l-16.26.06c-.33 0-.66.17-.99.5-.27.27-.4.6-.4 1l-.03 13.7c0 .6.2 1.09.59 1.48.4.39.89.58 1.49.57 4.5-.07 9-.13 13.5-.17v7.29c-5.2.04-10.39.1-15.59.17-.01 6.22-.03 12.45-.04 18.67 0 .53.2.99.59 1.37.46.45.96.66 1.49.64 5.67-.19 11.33-.34 17-.43v7.18c-6.24.13-12.47.32-18.7.56-2.25.09-4.17-.62-5.76-2.14-1.65-1.59-2.48-3.51-2.47-5.78.02-7.29.04-14.58.05-21.87 1.11-.03 1.67-.04 2.78-.07z" class="cls-3"/><path id="path114" d="M249.85 418.88h20.72c1.06 0 1.9.34 2.53 1.03s.94 1.56.94 2.61c1.06 0 1.9.3 2.53.89s.94 1.41.94 2.46c0 5.31.01 10.63.02 15.94 0 2.3-.79 4.22-2.38 5.78-.33.33-.63.49-.89.48.79.34 1.39.7 1.79 1.1 1.59 1.59 2.39 3.51 2.39 5.74 0 5.02.01 10.04.02 15.06 0 2.3-.79 4.22-2.38 5.76s-3.55 2.29-5.87 2.26q-10.2-.105-20.4-.03l.03-59.09zm7.73 7.16v18.83c3.38 0 6.75 0 10.13.02.53 0 .99-.19 1.39-.58s.6-.88.59-1.47c0-5.11 0-10.21-.01-15.32 0-.39-.13-.72-.4-.98-.33-.33-.66-.49-.99-.49h-10.71zm0 44.72c3.68 0 7.36 0 11.04.05.46 0 .93-.22 1.39-.67.4-.39.6-.84.6-1.37 0-4.98 0-9.95-.01-14.93 0-.59-.2-1.08-.6-1.48s-.86-.6-1.39-.6c-3.68-.02-7.35-.03-11.03-.03z" class="cls-3"/><path id="path116" d="m294.16 418.88.12 59.76c-3.14-.13-4.71-.18-7.86-.28l-.09-55.62c0-1.05.38-1.96 1.14-2.72q1.14-1.14 2.82-1.14z" class="cls-3"/><path id="path118" d="M323.9 418.89c1.06 0 1.9.36 2.53 1.08s.95 1.63.95 2.72c1.06 0 1.9.32 2.53.94s.95 1.48.95 2.58c.03 8.27.05 16.55.08 24.82 0 2.4-.78 4.39-2.36 5.96-.66.65-1.52 1.19-2.57 1.61 2.09 7.46 4.16 14.93 6.22 22.39-3.14-.26-4.7-.39-7.84-.62-2-7.14-4-14.28-6.02-21.42-3.34-.15-5-.22-8.34-.35l.06 20.81c-3.14-.18-4.71-.27-7.85-.42l-.15-60.11h21.81zm-2.26 7.43c-3.9-.03-7.8-.07-11.7-.1.02 8.35.05 16.69.07 25.04 3.71.12 7.41.24 11.11.39.53.02.99-.17 1.39-.56s.59-.89.59-1.51c-.02-7.24-.05-14.48-.07-21.72 0-.41-.14-.75-.4-1.02-.33-.34-.66-.52-.99-.52z" class="cls-3"/><path id="path120" d="m340.17 481.7-.21-62.8c8 0 15.99.01 23.99.02 1.06 0 1.9.38 2.53 1.15.63.76.95 1.73.95 2.9 1.06 0 1.9.34 2.53 1.01.63.66.95 1.59.95 2.76.05 16.42.09 32.84.14 49.27 0 2.57-.78 4.64-2.36 6.2s-3.52 2.19-5.83 1.91c-7.56-.88-15.12-1.69-22.69-2.41zm21.52-54.89c-4.66-.07-9.32-.13-13.98-.2.05 16.04.11 32.09.16 48.13 4.46.4 8.92.83 13.37 1.29.46.05.92-.16 1.38-.61.39-.39.59-.88.59-1.46-.05-15.17-.09-30.34-.14-45.51 0-.43-.14-.8-.4-1.09-.33-.37-.66-.55-.99-.56z" class="cls-3"/><path id="path122" d="M379.63 427.77c0-2.54.81-4.72 2.46-6.59 1.58-1.79 3.53-2.7 5.84-2.7h13.08c.99 0 1.8.41 2.43 1.24s.94 1.87.94 3.13c1.06.01 1.92.37 2.58 1.1.66.72.99 1.72.99 2.99v11.79c-3.13-.15-4.69-.22-7.82-.37v-9.59c0-.54-.13-.98-.4-1.29-.26-.32-.63-.48-1.09-.49-3.65-.07-5.47-.1-9.11-.17a1.84 1.84 0 0 0-1.48.66c-.4.45-.59 1.01-.59 1.69 0 3.23 0 4.85.01 8.08 0 .99.3 1.79.9 2.43 5.71 5.97 11.37 11.99 16.93 18.11 2.23 2.3 3.7 6.33 3.55 9.53v14.09c0 2.71-.82 4.93-2.46 6.63-1.57 1.64-3.51 2.25-5.81 1.87-4.43-.73-8.87-1.42-13.31-2.09-2.3-.34-4.25-1.53-5.83-3.54-1.65-2.09-2.48-4.39-2.49-6.92 0-3.53-.01-5.3-.02-8.83 3.12.32 4.69.48 7.81.82 0 3.09 0 4.63.01 7.72 0 .68.2 1.27.6 1.78s.89.8 1.48.88c3.39.45 6.78.91 10.16 1.4.59.08 1.08-.08 1.48-.49.39-.41.59-.97.59-1.67v-12.66c0-.94-.27-1.67-.79-2.19-5.57-6.18-11.25-12.3-17.03-18.24-2.38-2.45-3.58-5.38-3.58-8.82 0-3.71-.01-5.57-.02-9.29z" class="cls-3"/></g><path id="path126" d="M264.09 414.29s24.89 27.1 55.64-2.58" class="cls-11"/><g id="g138"><path id="path128" d="M196.9 509.58c.59-.69.88-1.49.88-2.39v-6.11c0-.56-.19-1.01-.58-1.32-.25-.21-.55-.34-.91-.4-.08-.32-.24-.61-.48-.84-.37-.36-.88-.54-1.48-.5-3.03.15-6.06.32-9.09.5v23.81c2.98-.17 5.95-.34 8.93-.49 1.11-.06 2.06-.46 2.82-1.21s1.15-1.65 1.15-2.68v-5.77c0-1-.39-1.86-1.15-2.53-.03-.03-.06-.05-.1-.08zm-7.28-1.32v-6.11l3.73-.2.01.01v5.87c0 .09-.03.13-.07.17-.06.06-.1.07-.14.07-1.42.07-2.12.11-3.54.19zm0 3.76c1.56-.09 2.34-.13 3.9-.21.04 0 .08 0 .14.05.04.04.07.08.07.16v5.73s0 .07-.07.13c-.09.09-.14.11-.14.11-1.56.08-2.34.12-3.9.21v-6.19z" class="cls-13"/><path id="path130" d="M233.56 497.92c-.08-.33-.24-.61-.48-.86-.37-.37-.88-.56-1.48-.55-2.85.06-4.27.1-7.11.17-1.08.03-2.02.42-2.78 1.15-.79.76-1.19 1.65-1.19 2.66v16.74c0 1.01.4 1.88 1.19 2.59.76.69 1.7 1.02 2.78.99 2.63-.07 3.95-.1 6.59-.16 1.08-.02 2.02-.4 2.78-1.13.79-.75 1.19-1.64 1.19-2.64v-17.19c0-.56-.19-1.01-.58-1.34-.25-.22-.55-.36-.91-.42zm-2.94 2.49v16.14c0 .09-.03.13-.07.17s-.09.06-.18.07c-2.08.05-3.12.07-5.2.13-.1 0-.14-.02-.18-.06a.21.21 0 0 1-.07-.17v-15.91c0-.09.03-.13.07-.17s.09-.06.18-.07c2.18-.06 3.27-.08 5.45-.13" class="cls-13"/><path id="path132" d="M258.06 496.97c-.43.4-.65.88-.65 1.43v21.78h4.42v-23.81h-2.19c-.62 0-1.16.2-1.59.6z" class="cls-13"/><path id="path134" d="M296.06 509.42c-2.3-1.88-4.66-3.77-6.94-5.68-.08-.07-.16-.17-.16-.38v-2.68c0-.09.03-.13.07-.17s.09-.06.18-.06l3.74.1v3.66c1.77.05 2.65.07 4.42.13v-4.29c0-.56-.21-1.03-.61-1.38-.26-.22-.56-.38-.92-.46-.08-.33-.24-.63-.48-.88-.37-.39-.87-.61-1.44-.62-2.15-.06-3.22-.09-5.37-.14-1.11-.03-2.06.31-2.83 1.01-.79.72-1.19 1.59-1.19 2.6v3.13c0 1.32.56 2.46 1.68 3.37 2.33 1.89 4.67 3.8 6.99 5.71.01 0 .02.01.03.02.03.02.08.06.08.23v4.07c0 .09-.03.13-.07.17s-.09.06-.18.06c-1.67-.05-2.51-.07-4.19-.11-.1 0-.14-.03-.18-.07a.21.21 0 0 1-.07-.17v-3.12l-4.42-.1v3.54c0 1.01.4 1.9 1.19 2.65.76.73 1.72 1.11 2.83 1.13 2.2.05 3.29.08 5.49.14 1.11.03 2.06-.3 2.83-.99.79-.71 1.19-1.58 1.19-2.58v-4.45c0-1.32-.56-2.47-1.68-3.38z" class="cls-13"/><path id="path136" d="M324.76 518.04s-.11-.04-.18-.11c-.06-.06-.07-.1-.07-.13v-6.52c2.55.15 3.83.23 6.38.39v-3.92c-2.45-.14-3.68-.21-6.13-.34-.1 0-.14-.03-.18-.07a.21.21 0 0 1-.07-.17v-5.2h.01c2.89.15 4.33.23 7.21.4v-3.87c-3.28-.19-4.92-.28-8.2-.45-.6-.03-1.11.14-1.48.5q-.36.36-.48.84c-.35.05-.66.19-.91.39-.38.32-.58.76-.58 1.32v6.26c0 .66.17 1.27.52 1.84-.21-.01-.31-.02-.52-.03v8.82c0 1.01.4 1.91 1.19 2.68.76.75 1.7 1.15 2.78 1.21 3.3.17 4.94.26 8.24.45v-3.87c-3.02-.18-4.53-.26-7.55-.42z" class="cls-13"/></g><path id="path140" d="M137.15 414.29s50.24 30.76 84.85 4.59l6.4-4.59" class="cls-11"/><g id="g226"><circle id="circle142" cx="291.13" cy="389.17" r="30.5" class="cls-2"/><path id="polyline144" d="m198.14 210.22 12.43-19.33 10.59 24.86v17.16" class="cls-2"/><path id="path146" d="M389.98 293.21c-.26-.69-1.77-4.31-6.17-7.99-4.98-4.17-11.58-6.76-19.65-7.73-1.28-1.79-3.34-4.1-6.5-6.38-7.53-5.43-17.75-8.18-30.39-8.18h-.23l-.23.02-38.21 3.22-6.03.51c-1.82-2.07-3.69-4.29-5.58-6.68-7.68-9.68-14.18-20.04-19.33-30.78-6.41-13.37-10.73-27.39-12.84-41.68l-1.55-9.55s-11.86 7.32-16.68 14.86c-4.39 6.87-6.99 16.17-7.78 27.73a35 35 0 0 1-5.11-9.28l-4.73-12.91-5.51 12.6c-.05.11-.45 1.04-.97 2.51-2.5-4.94-5.31-12.26-6.44-21.66L194.94 178l-9.2 10.59c-.69.69-14.09 15.44-8.6 43.23-5.91-2.59-24.55-19.76-24.55-19.76s1.72 24.65 6.11 32.14c1.21 2.07 2.4 4 3.55 5.78l-9.32-3.84 1.83 9.96c.18 1 3.92 20.4 19.46 34.91l-6.27.57 7.49 8.22c.48.52 9.11 9.87 22.04 15.99l-7.77 3.53 10.36 5.18c.37.18 5.5 2.73 12.36 4.89l-10.72 5.36 14.73 3.54c.21.05 2.78.66 6.22 1.27-7.43 6.08-18.08 14.12-28.17 19.29-19.1 9.78-55.69 37.78-57.23 38.97l-6.51 5 7.08 4.15c1.1.64 27.14 15.74 52.7 15.74 11.28 0 20.86-2.94 28.48-8.75l.46-.35.38-.44 13.48-15.98 5.33 4.98 44.66-26.3c.78.02 2.23.16 3.35.8.48.28 1.6.93 1.72 3.68l.38 9.16 7.92-4.62c.14-.08.29-.17.44-.27v6.06l9.22-8.3c.67-.61 6.54-6.18 5.97-15.88-.02-.48-.12-2.32-.54-4.42 7.81-1.8 19.29-6.2 25.73-16.85 6.38-10.54 7.08-12.01 9.38-17.24.79-1.8 1.77-4.04 3.36-7.46 2.79-6.01 5.6-9.38 10.02-12.03 5.1-3.05 12.76-5.41 25.6-7.89l6.42-1.24-2.3-6.12z" class="cls-2"/><path id="path148" d="M174.2 291.01s-32.67-26.47-28.07-88.61l31 29.43" class="cls-2"/><circle id="circle150" cx="292.05" cy="387.79" r="25.43" class="cls-11"/><circle id="circle152" cx="292.51" cy="386.99" r="20.25" class="cls-1"/><circle id="circle154" cx="296.42" cy="381.23" r="13.58" class="cls-2"/><path id="path156" d="M140.6 402.18s47.87 28.08 75.03 7.37l24.86-29 1.38 9.67 40.05-19.86s11.51-1.32 11.97 9.73c0 0 5.52-3.22 5.06-11.05 0 0 3.68.92 3.68 9.21 0 0 4.6-4.14 4.14-11.51 0 0-.23-7.6-3.45-8.98 0 0 20.66-.92 29.43-15.42s6.47-11.28 12.46-24.17c5.98-12.89 13.35-17.95 39.59-23.02 0 0-4.14-11.05-23.94-12.43 0 0-5.98-14.27-33.6-14.27l-38.21 3.22s15.19 9.67 25.32 9.67c0 0-11.97 4.6-15.19 8.75 0 0-50.18-36.37-59.84-101.73 0 0-16.57 5.06-15.19 44.65 0 0-10.36-10.82-15.42-24.63 0 0-3.45 12.2-3.45 19.1 0 0-11.97-11.97-14.73-34.98 0 0-16.57 16.57-5.06 48.79 0 0-13.12-3.91-23.71-10.36 0 0 6.67 22.79 16.34 29.23 0 0-10.13-1.84-17.95-5.06 0 0 5.06 27.62 29.46 40.05l-10.13.92s14.27 15.65 33.14 18.87l-10.13 4.6s14.73 7.37 27.16 7.37l-11.97 5.98s11.51 2.76 18.41 2.3c0 0-20.25 18.87-39.13 28.54-18.87 9.67-56.39 38.44-56.39 38.44z" class="cls-11"/><path id="path158" d="M249.01 358.68s6.44-4.6 27.16-3.68c20.71.92 36.37-4.6 44.19-19.79 0 0 1.84 4.6-2.3 10.59 0 0 18.41-13.35 17.95-39.13 0 0 5.98-6.9 15.19-10.13h-7.83l5.06-4.6s-6.9 1.84-12.89-1.84c-5.98-3.68-20.71-3.68-26.7 5.06 0 0 4.14-1.38 8.29-2.3 0 0-4.6 3.22-5.98 7.37 0 0 5.52-4.6 10.13-5.06 0 0-5.06 5.06-5.06 11.51v7.37s-1.84 8.29-9.67 12.89c0 0 8.75-12.89.92-19.33 0 0 1.38 7.83-2.76 13.35 0 0-.46-17.52-22.79-28.09s-70.66-51.08-77.56-80.54l-2.99 10.22s18.65 40.88 34.76 51.47c0 0-32.68-19.79-44.65-48.79 0 0-1.84 14.27 6.44 25.78 8.29 11.51 47.41 33.6 60.3 41.43s31.3 24.86 31.3 24.86-34.98-5.52-42.35 20.25c0 0 8.75-10.4 18.87-12.1 0 0-14.27 9.8-19.33 24.07 0 0 6.44-7.83 21.18-11.51 0 0-14.73 11.51-18.87 20.71z" class="cls-13"/><path id="path160" d="M236.59 284.02c-31.79-8.58-52.72-27.76-52.72-27.76 7.57 22.72 41.72 31.03 56.14 33.57-1.41-2.23-2.56-4.23-3.42-5.8z" class="cls-13"/><path id="path162" d="M242.14 293.05c-11.29-1.57-37.19-5.64-50.85-11.68 0 0 15.98 19.2 55.02 17.31-1.53-1.9-2.92-3.8-4.17-5.63" class="cls-13"/><path id="path164" d="M248.73 301.53c-8.35.75-28.3 2.08-44.69-.4 0 0 17.23 11.71 48.98 4.81a64 64 0 0 1-4.29-4.42z" class="cls-13"/><path id="path166" d="M256.6 309c-14.23 5.94-34.29 5.94-34.29 5.94 18.71 7.56 33.98-1.05 37.76-3.52-1.19-.74-2.35-1.55-3.47-2.42" class="cls-13"/><path id="path168" d="m340.22 285.43.45-2.5c-1.37.43-2.35 1.57-2.35 2.91 0 1.71 1.58 3.1 3.53 3.1s3.53-1.39 3.53-3.1c0-.52-.15-1-.4-1.43l-1.5 1.43c-1.42 1.93-3.68 2.1-3.26-.41" class="cls-2"/><path id="path170" d="M353.5 300.68s11.51-6.44 24.4-7.37c0 0-10.13-1.38-19.79 1.84l-4.6 5.52z" class="cls-12"/><path id="path172" d="M353.97 291.01s12.89-1.84 21.64-.46c0 0-5.5-3.48-16.1-4.27 0 0-1.85 3.35-5.54 4.73" class="cls-12"/><path id="path174" d="m162.47 399.19 69.97-50.18-9.44 11.74 7.95-2.07-56.76 40.13a10.63 10.63 0 0 1-11.72.37z" class="cls-13"/><path id="path176" d="m176.74 405.17 54.32-40.97-35.67 36.84a16.99 16.99 0 0 1-16.03 4.74l-2.62-.6z" class="cls-13"/><path id="path178" d="m198.33 407.93 35.03-37.29-16.14 25.02a26.4 26.4 0 0 1-14.61 10.98l-4.28 1.28z" class="cls-13"/><path id="path180" d="M263.51 361.21s-11.05-2.76-14.27 4.14c0 0-2.3 7.83 1.38 13.35l29.46-13.35s7.83.92 15.19 6.9c0 0 0-7.83-6.44-10.13 0 0 10.07-.23 14.93 6.56 0 0-1.57-15.31-19.76-10.01l-24.63 10.36s-1.15-4.37 4.14-7.83z" class="cls-12"/><path id="path182" d="M313.46 276.28s6.44 2.3 15.19 2.3c7.44 0 15.54 2.33 21.2 5.01 2.02.96 4.23 1.43 6.46 1.43h.35s-7.3-10.13-18.81-11.51-17.95-.46-22.56-.92l9.67 2.76-11.51.92z" class="cls-13"/><path id="path184" d="M325.89 320.47c-1.84 5.52-13.35 11.97-13.35 11.97 5.06-7.83 3.68-18.41 3.68-18.41s-1.84 8.29-9.67 12.89c0 0 .17-.25.44-.69-8.34 7.13-18.62 11.05-18.62 11.05l6.44-9.67c-15.19 6.44-45.8 31.07-45.8 31.07s6.44-4.6 27.16-3.68c20.71.92 36.37-4.6 44.19-19.79 0 0 1.84 4.6-2.3 10.59 0 0 4.3-3.12 8.7-9.26 1.56-8.22-.87-16.06-.87-16.06z" class="cls-2"/><path id="path186" d="M254.91 281.37c27.02 20.45 40.37 19.07 49.8 39.56 0 0-.46-17.52-22.79-28.09s-70.66-51.08-77.56-80.54l-2.99 10.22s26.53 38.41 53.54 58.86z" class="cls-2"/><g id="g192"><path id="path188" d="M319.73 336.36c-16.35 12.78-34.71 17.11-46.69 18.54 1.01.02 2.04.05 3.12.1 20.18.9 35.55-4.33 43.56-18.64z" class="cls-1"/><path id="path190" d="M260.07 355.52h.01z" class="cls-1"/></g><path id="path194" d="M276.61 404.37s5.32-13.16 37.31-28.85" style="stroke-miterlimit:10;fill:none;stroke:#031532;stroke-width:3.68px"/><path id="path196" d="M272.08 379.49c2 2.57 5.24 2.54 8.16 2.17 3.27-.41 6.3-.88 9.58-.32 3.91.67 7.15 2.98 8.71 7.78 3.67 11.28-4.09 12.87-7.17 19.73" style="stroke-miterlimit:10;fill:none;stroke:#031532;stroke-width:3.09px"/><path id="path198" d="M294.34 374.6s12.9 3.24 16.35 24.59" style="stroke-miterlimit:10;fill:none;stroke:#031532;stroke-width:3.35px"/><path id="path200" d="M348.44 291.93s-6.9 1.84-12.89-1.84c-4.89-3.01-15.61-3.56-22.64 1.11.17-.06.35-.12.54-.19 9.44-3.45 27.39 4.37 27.39 4.37-3.68 3.22-4.83 11.28-4.83 11.28s5.98-6.9 15.19-10.13h-7.83l5.06-4.6z" class="cls-2"/><path id="path202" d="M337.85 273.52c-4.33-.52-7.95-.71-11.02-.78 5.47 2.5 14.67 6.05 25.25 7.48-3.27-2.82-8.17-5.98-14.23-6.7" class="cls-2"/><path id="path204" d="M358.2 288.03c3.79.44 11.31 1.37 17.4 2.52 0 0-5.5-3.48-16.1-4.27 0 0-.44.79-1.3 1.75" class="cls-1"/><path id="polygon206" d="m182.01 393.28 48.94-34.6-7.95 2.07-46.26 32.53z" class="cls-2"/><path id="polygon208" d="m231.06 364.2-30.61 27.39h4.08z" class="cls-2"/><path id="polygon210" d="m233.36 370.65-15.02 18.64 2.87.2z" class="cls-2"/><path id="path212" d="M224.3 265.52c-10.59-8.44-25.55-22.68-32.83-40.33 0 0 5.14 28.88 32.83 40.33" class="cls-2"/><path id="path214" d="M237.17 285.05c-.2-.36-.39-.71-.57-1.03-31.79-8.58-52.72-27.76-52.72-27.76s17.07 24.73 53.29 28.79" class="cls-2"/><path id="path216" d="m250.62 378.7 29.46-13.35s7.83.92 15.19 6.9c-5.06-9.21-13.99-9.05-13.99-9.05l-31.88 12.82c-.02.36.47 1.56 1.21 2.67z" class="cls-1"/><path id="path218" d="M242.98 294.25q-.435-.6-.84-1.2c-11.29-1.57-37.19-5.64-50.85-11.68 0 0 27.03 14.74 51.69 12.88" class="cls-2"/><path id="path220" d="M250.5 303.46c-.6-.63-1.2-1.27-1.77-1.92-8.35.75-28.3 2.08-44.69-.4 0 0 24.54 5.54 46.46 2.32" class="cls-2"/><path id="path222" d="M257.24 309.49c-.21-.16-.43-.32-.64-.48-14.23 5.94-34.29 5.94-34.29 5.94s21.72 3.02 34.93-5.46" class="cls-2"/><path id="path224" d="m241.88 390.21 40.05-19.86s11.05-1.78 11.97 9.73c0 0-4.37-8.06-11.74-6.67l-21.52 15.77" class="cls-2"/></g></g></svg>