<svg xmlns="http://www.w3.org/2000/svg" id="Layer_1" width="481.579" height="494.08" data-name="Layer 1" version="1.1"><defs id="defs401"><clipPath id="clippath"><path id="path398" d="M313.24 303.56c-.76 0-1.44-.28-1.93-.74-.49.45-1.17.74-1.93.74h-4.49c-.76 0-1.44-.28-1.93-.74-.49.45-1.17.74-1.93.74h-4.49c-.76 0-1.44-.28-1.93-.74-.49.45-1.17.74-1.93.74h-4.49c-.76 0-1.44-.28-1.93-.74-.49.45-1.17.74-1.93.74h-3.52c-1.35 0-2.49-.9-2.66-2.11l-1.5-10.47-16.64-6.39v9.78c0 .8-.43 1.54-1.16 1.99a2.91 2.91 0 0 1-2.48.27c-16.57-5.71-19.26-27.94-19.37-28.89l-1.51-16.27c-.01-.14-.01-.29 0-.43l2.27-21.11s0-.07.01-.11c.06-.39 1.6-9.69 7.98-20.11 8.5-13.9 21.62-23.11 37.93-26.64.21-.04.42-.07.63-.07h28.84c.21 0 .42.02.63.07 16.31 3.52 29.43 12.73 37.93 26.64 6.38 10.42 7.92 19.72 7.98 20.11 0 .04.01.07.01.11l2.27 21.11c.02.14.02.29 0 .43l-1.5 16.23c-.11.99-2.8 23.23-19.37 28.93-.31.11-.64.16-.96.16-.54 0-1.07-.14-1.52-.43-.73-.45-1.16-1.19-1.16-1.99v-9.78l-16.64 6.39-1.5 10.47c-.17 1.21-1.31 2.11-2.66 2.11h-3.46z" style="fill:none;stroke-width:0"/></clipPath><style id="style396">.cls-4,.cls-5,.cls-6,.cls-7,.cls-8{stroke-width:0}.cls-5{fill:#fff}.cls-4{fill:silver}.cls-6{fill:#e70000}.cls-7{fill:#003188}.cls-8{fill:#004eca}</style></defs><g id="g523" transform="translate(-59.216 -52.83)"><g id="g409"><path id="path405" d="M302.93 536.14s183.31-60.1 226.8-305.98c0 0 11.2-145.31-113.4-145.31H183.66c-124.6 0-113.4 145.31-113.4 145.31 43.49 245.88 226.8 305.98 226.8 305.98" class="cls-5" style="fill:#fff;stroke-width:0"/><path id="path407" d="M302.93 546.91c-1 0-1.99-.14-2.93-.41-1.99.57-4.17.56-6.29-.13-1.96-.64-48.57-16.26-100.91-62.98-30.62-27.33-56.88-59.73-78.07-96.29-26.4-45.56-44.93-97.74-55.07-155.07-.06-.35-.11-.7-.13-1.05-.24-3.1-5.37-76.53 36.88-122.17 21.35-23.06 50.71-34.74 87.26-34.74h232.67c36.56 0 65.92 11.69 87.26 34.74 42.26 45.64 37.12 119.07 36.88 122.17-.03.35-.07.7-.13 1.05-10.14 57.33-28.67 109.5-55.07 155.07-21.19 36.56-47.46 68.96-78.07 96.29-52.34 46.72-98.95 62.34-100.91 62.98-1.11.37-2.25.54-3.36.54zM80.98 228.87c9.67 54.34 27.18 103.73 52.03 146.79 19.92 34.52 44.59 65.12 73.34 90.93 38.9 34.93 77.98 53.86 93.65 59.16 15.67-5.3 54.75-24.23 93.65-59.16 28.75-25.82 53.42-56.41 73.34-90.93 24.85-43.07 42.36-92.46 52.03-146.8.34-6.01 2.98-68.54-31.31-105.48-17.1-18.42-41.11-27.76-71.38-27.76H183.66c-30.27 0-54.29 9.34-71.38 27.76-34.27 36.93-31.65 99.41-31.31 105.48z" class="cls-6" style="fill:#e70000;stroke-width:0"/></g><path id="path411" d="M168.29 283h260.05c22.73 0 36.94 24.61 25.57 44.3l-68.38 82.82-1.27 1.54c-6.08 7.17-34.54 35.1-85.74 54.72-58.15-22.28-87.01-56.26-87.01-56.26v.53L142.7 327.3c-11.37-19.69 2.84-44.3 25.57-44.3z" class="cls-7" style="fill:#003188;stroke-width:0"/><path id="path413" d="m227.82 299.05-8.51-21.33s-2.42-12.7 0-26.61l-91.69-7.26s-12.7-29.03 25.4-65.33l96.18-58.07 12.31 20.76c39.01-40.51 74.5 0 74.5 0l12.31-20.76 96.17 58.07c38.11 36.29 25.4 65.33 25.4 65.33l-91.69 7.26c2.42 13.91 0 26.61 0 26.61l-10.3 21.33" class="cls-7" style="fill:#003188;stroke-width:0"/><g id="g477"><path id="rect415" d="M278.89 298.11h38.85v17.16h-38.85z" style="stroke:#000;stroke-width:4.73999977px;stroke-miterlimit:10"/><g id="g461"><path id="path417" d="M313.24 303.56c-.76 0-1.44-.28-1.93-.74-.49.45-1.17.74-1.93.74h-4.49c-.76 0-1.44-.28-1.93-.74-.49.45-1.17.74-1.93.74h-4.49c-.76 0-1.44-.28-1.93-.74-.49.45-1.17.74-1.93.74h-4.49c-.76 0-1.44-.28-1.93-.74-.49.45-1.17.74-1.93.74h-3.52c-1.35 0-2.49-.9-2.66-2.11l-1.5-10.47-16.64-6.39v9.78c0 .8-.43 1.54-1.16 1.99a2.91 2.91 0 0 1-2.48.27c-16.57-5.71-19.26-27.94-19.37-28.89l-1.51-16.27c-.01-.14-.01-.29 0-.43l2.27-21.11s0-.07.01-.11c.06-.39 1.6-9.69 7.98-20.11 8.5-13.9 21.62-23.11 37.93-26.64.21-.04.42-.07.63-.07h28.84c.21 0 .42.02.63.07 16.31 3.52 29.43 12.73 37.93 26.64 6.38 10.42 7.92 19.72 7.98 20.11 0 .04.01.07.01.11l2.27 21.11c.02.14.02.29 0 .43l-1.5 16.23c-.11.99-2.8 23.23-19.37 28.93-.31.11-.64.16-.96.16-.54 0-1.07-.14-1.52-.43-.73-.45-1.16-1.19-1.16-1.99v-9.78l-16.64 6.39-1.5 10.47c-.17 1.21-1.31 2.11-2.66 2.11h-3.46z" class="cls-5" style="fill:#fff;stroke-width:0"/><g id="g457" style="clip-path:url(#clippath)"><g id="g455"><path id="path419" d="M299.31 293.45c-.37-.27-.84-.29-1.33.19-.95.93-1.6 2.45-1.79 3.75-.49 3.26 3.74-.26 3.87-2.16.04-.65-.27-1.43-.75-1.78" class="cls-6" style="fill:#e70000;stroke-width:0"/><path id="path421" d="M325.24 226.9c.62-.13.94-1.06 1-2.15.1-1.85-.54-4.16-1.73-3.77-1.45.47-.66 3.76-.32 4.69.14.39.48 1.36 1.05 1.23" class="cls-6" style="fill:#e70000;stroke-width:0"/><path id="path423" d="M299.64 233.08c.57.35 2.38 1.45 3.03 1.06.05-.03.09-.07.12-.11.35-.53-1.02-1.9-1.36-2.16-.58-.42-2.34-1.08-2.93-.34-.51.64.71 1.29 1.14 1.56z" class="cls-6" style="fill:#e70000;stroke-width:0"/><path id="path425" d="M285.86 265.82c.87-.28 3-1.32 2.2-2.57-.55-.86-1.63-.64-2.41-.27-.36.17-.67.42-1.03.6-.43.21-.91.27-1.28.6-.48.43-.64 1.04-.11 1.5.68.6 1.86.4 2.63.15z" class="cls-6" style="fill:#e70000;stroke-width:0"/><path id="path427" d="M298.12 275.41c.46-.36 1.84-1.62 1.12-2.25-.68-.6-2.09.73-2.61 1.11-.39.28-1.56 1.14-.77 1.63.72.45 1.68-.03 2.27-.49z" class="cls-6" style="fill:#e70000;stroke-width:0"/><path id="path429" d="M283.29 280.83c-.38.3-.75.67-1.01 1.08-.24.38-.22.57-.08.64.29.15 1.11-.19 1.43-.4.46-.31 1.91-1.56 1.66-2.2-.25-.63-1.71.66-2 .88" class="cls-6" style="fill:#e70000;stroke-width:0"/><path id="path431" d="M346.74 226.93c-.06 3.1 4.15.1 4.23-1.76.03-.71-.06-2.26-.8-2.64-.77-.4-1.4.88-1.72 1.37-.63.95-1.69 1.81-1.71 3.03" class="cls-6" style="fill:#e70000;stroke-width:0"/><path id="path433" d="M337.46 212.59c1.6.26 2.6-2.66 1.17-3.42-1.82-.98-3.29 3.08-1.17 3.42" class="cls-6" style="fill:#e70000;stroke-width:0"/><path id="path435" d="M317.07 279.49c-.37.36-.62.95-.69 1.45-.19 1.26 1.45-.1 1.5-.84.02-.25-.1-.55-.29-.69-.14-.1-.32-.11-.51.07z" class="cls-6" style="fill:#e70000;stroke-width:0"/><path id="path437" d="M355.44 293.52c-.07.92.48 2.39 1.03 3.14 1.1 1.48 2.99.39 3.21-1.12.04-.24.03-.5-.03-.75-.36-1.51-4.01-4.04-4.21-1.26z" class="cls-6" style="fill:#e70000;stroke-width:0"/><path id="path439" d="M370.84 292.22c-.21.05-.41.2-.56.48-.71 1.29 1.62 2.77 1.89.91.11-.76-.67-1.56-1.33-1.39" class="cls-6" style="fill:#e70000;stroke-width:0"/><path id="path441" d="M375.46 283.75c-.34.06-.26.45.01.84.41.59 1.24 1.17 1.74.66.77-.8-1.13-1.62-1.75-1.51z" class="cls-6" style="fill:#e70000;stroke-width:0"/><path id="path443" d="M334.26 295.99c-.59.41-1.57 2.29-.96 2.96 1.11 1.21 1.9-2 1.82-2.8-.04-.41-.28-.57-.86-.16" class="cls-6" style="fill:#e70000;stroke-width:0"/><path id="path445" d="M331.87 288.16c-1.4.53-1.07 2.28.47 2.14.21-.02.4-.07.55-.15 1.11-.59.54-2.58-1.02-1.98z" class="cls-6" style="fill:#e70000;stroke-width:0"/><path id="path447" d="M378.3 273.79c-1.39-1.28-3.01-2.2-3.51-1.2-.39.78.66 2.51 1.01 3.14.58 1.03 1.58 2.58 2.77 2.98 1.21.4 1.98-.64 1.96-1.76-.01-.68-1.03-2.05-2.22-3.15z" class="cls-6" style="fill:#e70000;stroke-width:0"/><path id="path449" d="M372.14 233.78c.45-1.2.87-2.6 1.68-3.69.86-1.15 1.43-2.07 1.7-3.53.24-1.27.29-3.17-1.12-3.8-2.76-1.23-3.3 1.55-3.36 3.68-.04 1.1.06 2.2 0 3.3-.05.78-.17 1.57-.26 2.35-.07.6-.68 2.85-.36 3.33.82 1.22 1.52-1.1 1.73-1.65z" class="cls-6" style="fill:#e70000;stroke-width:0"/><path id="path451" d="M399.68 253.76c-.18-1.12-1.12-1.57-2.04-1.79-3.27-.76-6.6.99-9.95.96-2.88-.02-5.72-1.45-7.46-3.74-.43-.57-.81-1.24-.78-1.96.03-.64.39-1.22.79-1.71 2.03-2.49 5.33-3.54 7.9-5.44.48-.35.81-.89.82-1.48.03-1.25-1.22-1.57-2.1-1.23-.66.25-1.17.77-1.68 1.26a26.174 26.174 0 0 1-4.81 3.63c-1.14.67-2.37 1.27-3.69 1.38-1.32.11-2.75-.35-3.51-1.44-.81-1.16-.72-2.75-1.66-3.87-.3-.36-.72-.61-1.18-.68-1.07-.17-1.38.61-1.91 1.12-.88.82-2.22.8-3.42.72l-3.9-.24c-.69-.04-1.41-.09-2.03-.39-.74-.36-1.29-1.05-2.05-1.36-2.14-.88-2.6.74-3.85 1.95-1.76 1.7-2.2 1.27-4.69 1.82-.93.2-3.71 1.6-4.46.28-1.24-2.2.84-3.68 2.61-4.58 2.07-1.06 4.45-1.69 6.26-3.21 1.48-1.25 3.17-2.61 3.98-4.44.32-.73.38-1.42-.45-1.76-1.37-.57-2.05.3-2.77 1.28-.48.66-.99 1.3-1.53 1.91a24.386 24.386 0 0 1-3.43 3.23 23.245 23.245 0 0 1-4.36 2.62c-1.36.63-5.67 3.15-5.38 0 .2-2.13 1.35-4.24 2.12-6.21.38-.97.76-1.96 1.02-2.97.23-.89.11-1.83.27-2.73.18-.97.49-1.92.87-2.82 1.13-2.66 2.96-4.91 4.25-7.48.29-.58.56-1.17.77-1.78.16-.45.35-.9.48-1.36.24-.9-.9-1.29-1.59-.92-.71.38-1.11 1.28-1.38 2-.44 1.16-.69 2.48-1.32 3.56-.65 1.11-1.72 1.91-2.5 2.92-.76 1.01-1.37 2.12-1.91 3.26-1.14 2.42-1.94 4.98-2.81 7.51-.45 1.31-.8 2.65-1.44 3.89-.45.87-1.39 2.42-2.59 1.79-1.19-.62-.75-3.45-.64-4.52.17-1.58.57-3.13 1-4.66.82-2.9 1.96-5.98 1.6-9.04-.09-.76-.32-1.44-.56-2.17-.44-1.29-1.87.19-2.16.77-.44.86-.59 1.81-.65 2.75-.19 2.93-.49 5.97-1.46 8.76-.47 1.36-1.19 3.02-2.58 3.66-2.72 1.25-5.46-2.34-6.78-4.18-1.17-1.63-2.16-3.38-3.04-5.17-.88-1.77-1.75-3.55-2.34-5.44-.38-1.21-.65-2.37-1.2-3.52-.3-.61-1.76-3.78-2.76-3.48-.96.29.11 3.6.24 4.11 1.03 4.06 11.82 19.5 5.68 22.52-3.72 1.83-5.06-2.81-6.35-5.22-1.74-3.26-3.73-6.28-6.42-8.83-.42-.4-1.35-.65-1.59.07-.16.49.29 1.19.52 1.58.88 1.54 2.21 2.83 3 4.41.8 1.6 1.09 3.44 1.56 5.16.66 2.4 1.95 3.83 3.05 5.95 1.21 2.32-4.04.93-4.84.72-1.7-.46-3.43-.99-5.05-1.69-2.84-1.22-5.71-2.6-8.85-2.76-.88-.04-2.94-.17-3.36.9-.36.92.59 1.88 1.41 2.12 1.89.55 3.95.11 5.88.46 2.22.4 4.58.76 6.66 1.7 2.63 1.2 6.45 4.71 3.15 7.34-1.94 1.55-4.89 2.56-7.18 3.49-2.05.83-3.78.42-5.85.05-3.03-.54-5.8-.82-8.49.85-.37.23-.73.53-.84.95-.25.99.85.98 1.47.93 1.94-.14 3.69-1.15 5.64-1.24 3.62-.17 7.33.89 10.98 1.26 1.32.13 4.15-.48 5.18.5 1.03.98.03 1.84-1.03 2.3-2.78 1.21-6.02 2.22-9.09 2.01-.94-.07-2.4.02-3.15.69-2.29 2.04 1.31 2.65 3.52 2.06 1.43-.38 3.54-1.66 5.04-2.19 1.15-.4 5.36-1.51 5.84-.05.57 1.74-2.74 4.44-3.89 5.09-5.66 3.19-11.62 5.78-17.61 8.28-2.96 1.24-5.9 2.56-8.89 3.72-1.13.44-5.69 1.68-4.83 3.63 1.2 2.74 6.23-1.12 7.55-2.03 3.38-2.34 7.13-4.07 10.91-5.65 3.54-1.49 7.04-3.09 10.53-4.69 2.84-1.3 5.66-2.95 8.59-4.03.95-.35 2.41.36 1.34 1.36-1.34 1.26-2.9 2.3-4.42 3.33-.88.59-1.82 1.34-2.25 2.34-.32.73-.52 2.17.4 2.54 1.27.51 2.95-1.59 3.63-2.35 1.91-2.13 3.26-.13 3.16 1.41-.32 5.03-10.83 11.04-10.38 16.06.99 4.02 5.06-2.63 5.83-3.73 1.38-1.98 2.7-4.02 4.27-5.86 1.84-2.16 3.81-3.65 6.5-4.42 1.15-.33 2.85-.3 3.74.73 1.44 1.66-.23 3.34-.64 5.01-.28 1.17-.57 2.36-.63 3.56-.03.57-.09 1.35.19 1.87 1.23 2.32 1.97-1.9 2.23-2.7.17-.5.29-1.14.67-1.52 1.36-1.36 2.06 2.2 2.21 2.92.54 2.5.06 5.09-.19 7.6-.16 1.58-.49 3.59.2 5.09.55 1.22 2.57 2.49 3.84 1.6 1.61-1.12.7-3.94.2-5.41-.81-2.39-3.34-8.58-1.33-10.73.92.49.66 1.47 1.08 2.31.76 1.51 3.39 1.01 4.26 2.46.46.77.87 1.69.72 2.65-.17 1.05-1.11 1.83-.97 2.94.06.49.36.93.87 1.03 1.14.22 1.55-.8 1.9-1.7.09-.24.18-.47.28-.67.66-1.33 2.17-2.27 3.68-2.14 1.55.14 2.48 1.43 3.69 2.25 1.13.77 1.76-.42 2.41-1.15.44-.49.99-.81 1.6-.98 1.49-.42 3.34 0 4.72.73.39.2.83.3 1.26.24.94-.13 1.1-.81 1.25-1.48.05-.24.37-.29.5-.09.41.65.82 1.31 1.21 2 .42.74 1.27 1.98 2.25 2.01 1.04.03 1.45-.8 1.42-1.63-.01-.34-.09-.67-.23-.96-.43-.86-1.18-1.6-1.87-2.33-.18-.19 0-.51.25-.45.94.2 1.86.54 2.5.76 2.06.71 6.42 5.87 7.3 1.07.34-1.84-.86-3.34-2.09-4.54-.92-.9-1.91-1.72-2.95-2.47-.26-.33-.42-.68-.26-1.14.6-1.72 3.01-.64 4.11-.16 1.12.49 2.58 1.62 3.9 1.83.39.06.64-.41.38-.71-1.12-1.28-3.61-2.2-4.7-3.41-.86-.95-1.38-2.9.59-3.05h.03c1.42-.1 1.84-1.98.61-2.69-.91-.52-2.1-.87-2.26-2.02-.04-.27 0-.54.09-.79.03 0 .07-.02.1-.02.78-.08 1.5.45 2.29.51 1.2.09 2.21-.93 2.74-2.01.53-1.08.79-2.3 1.48-3.28 1.65-2.35 5.39-2.46 7.67-.72 1.56 1.19 2.52 2.98 3.8 4.47 1.01 1.17 2.63 2.47 4.29 2.37 1.35-.08 2.77-1.45 2.46-2.9-.24-1.12-1.24-1.93-2.3-2.34-1.06-.42-2.22-.53-3.33-.8-3.9-.96-7.42-4.61-6.63-8.68.1-.52.29-1.03.6-1.46 1.28-1.8 3.31-1.38 5.07-.92l8.41 2.18c1.62.42 3.37.83 4.89 0 .93-.51 1.54-1.49 1.37-2.53z" class="cls-6" style="fill:#e70000;stroke-width:0"/><path id="path453" d="M387.56 243.67s-.03 0-.05.01c-.75.16-2.46 1.23-1.77 2.12.46.59 1.82.15 2.24-.28.5-.51.76-2.04-.42-1.85" class="cls-6" style="fill:#e70000;stroke-width:0"/></g></g><path id="path459" d="M313.19 185.42c38.05 8.22 43.88 44.74 43.88 44.74l2.27 21.11-1.5 16.23s-2.44 21.64-17.66 26.88v-13.44l-21.79 8.37-1.69 11.84h-3.46v-2.95c0-.83-.75-1.51-1.68-1.51h-.51c-.92 0-1.67.68-1.67 1.51v2.95h-4.49v-2.95c0-.83-.75-1.51-1.68-1.51h-.51c-.92 0-1.68.68-1.68 1.51v2.95h-4.49v-2.95c0-.83-.75-1.51-1.67-1.51h-.51c-.92 0-1.67.68-1.67 1.51v2.95h-4.49v-2.95c0-.83-.75-1.51-1.68-1.51H286c-.92 0-1.68.68-1.68 1.51v2.95h-3.52l-1.69-11.84-21.79-8.37v13.44c-15.22-5.24-17.66-26.88-17.66-26.88l-1.5-16.23 2.27-21.11s5.83-36.52 43.88-44.74h28.84m.04-4.83h-28.84c-.42 0-.84.04-1.25.13-17.06 3.69-30.78 13.31-39.66 27.82-6.61 10.81-8.22 20.52-8.28 20.93l-.03.22-2.27 21.11c-.03.29-.03.58 0 .87l1.5 16.23v.09c.11 1 2.98 24.67 21.08 30.9.62.21 1.27.32 1.92.32 1.07 0 2.13-.29 3.04-.85 1.46-.9 2.33-2.39 2.33-3.98v-6.13l11.49 4.41 1.3 9.1c.34 2.41 2.62 4.22 5.32 4.22h3.52c.68 0 1.33-.11 1.93-.32.6.21 1.25.32 1.93.32h4.49c.68 0 1.33-.11 1.93-.32.6.21 1.25.32 1.93.32h4.49c.68 0 1.33-.11 1.93-.32.6.21 1.25.32 1.93.32h4.49c.68 0 1.33-.11 1.93-.32.6.21 1.25.32 1.93.32h3.46c2.7 0 4.98-1.8 5.32-4.22l1.3-9.1 11.49-4.41v6.13c0 1.59.87 3.08 2.33 3.98.91.56 1.97.85 3.04.85.65 0 1.3-.11 1.92-.32 18.09-6.23 20.96-29.9 21.08-30.9v-.09l1.5-16.23c.03-.29.02-.58 0-.87l-2.27-21.11c0-.07-.02-.15-.03-.22-.07-.41-1.67-10.13-8.28-20.93-8.88-14.51-22.59-24.13-39.66-27.82-.41-.09-.83-.13-1.25-.13z" class="cls-7" style="fill:#003188;stroke-width:0"/></g><path id="path463" d="M313.24 264.46s20.12 14.27 33.51-2.23c0 0 6.09-3.92 3.79-23.14" class="cls-5" style="fill:#fff;stroke-width:0"/><path id="path465" d="m291.73 253.61-40.57-13.52s-5.45 14.03 3.76 22.31c9.2 8.28 32.49 8.96 36.81-8.79" class="cls-7" style="fill:#003188;stroke-width:0"/><path id="path467" d="m305.81 253.61 40.57-13.52s5.45 14.03-3.76 22.31c-9.2 8.28-32.49 8.96-36.81-8.79" class="cls-7" style="fill:#003188;stroke-width:0"/><path id="polygon469" d="m298.77 287.93 7.52-3.9v-11.02l-7.52-3.9-7.52 3.9v11.02z" class="cls-7" style="fill:#003188;stroke-width:0"/><g id="g475"><path id="path471" d="M291.73 347.39c-.08 0-.17 0-.25-.01-4.02-.34-11.9-2.95-12.89-10.46-.13-.96-.32-1.81-.58-2.58-.42-1.24.32-2.57 1.69-2.99.89-.28 1.49-1.02 1.49-1.86 0-1.09-.99-1.98-2.2-1.98-1.21 0-2.16.85-2.2 1.91v.12c0 1.33-1.2 2.42-2.68 2.42h-6.5c-1.43 0-2.6-1-2.68-2.29l-2.13-35.83c-.05-.79.34-1.55 1.03-2.04a2.924 2.924 0 0 1 2.45-.4l8.01 2.25c.97.27 1.68 1.01 1.85 1.91l2.38 12.96h5.83c.76 0 1.44.28 1.93.74a2.85 2.85 0 0 1 1.93-.74h4.49c.76 0 1.44.28 1.93.74a2.85 2.85 0 0 1 1.93-.74h4.49c.76 0 1.44.28 1.93.74a2.85 2.85 0 0 1 1.93-.74h4.49c.76 0 1.44.28 1.93.74a2.85 2.85 0 0 1 1.93-.74h5.77l2.38-12.96c.17-.9.88-1.64 1.85-1.91l8.01-2.25c.26-.07.53-.11.8-.11.59 0 1.17.17 1.65.51.69.49 1.08 1.25 1.03 2.04l-2.13 35.83c-.08 1.28-1.25 2.29-2.68 2.29h-6.91c-1.48 0-2.68-1.08-2.68-2.42v-.12c-.04-1.06-1.01-1.91-2.2-1.91-1.19 0-2.2.89-2.2 1.98 0 .9.68 1.68 1.66 1.91.71.16 1.31.58 1.67 1.15.36.57.45 1.25.24 1.88-.25.76-.43 1.58-.55 2.5-1 7.5-8.87 10.12-12.89 10.46-.08 0-.16.01-.25.01h-14.08z" class="cls-5" style="fill:#fff;stroke-width:0"/><path id="path473" d="m332.06 293.71-2.13 35.83h-6.91v-.05c0-2.43-2.19-4.4-4.89-4.4-2.7 0-4.89 1.97-4.89 4.4 0 2.05 1.57 3.76 3.68 4.25-.27.81-.49 1.75-.65 2.9-1 7.55-10.47 8.34-10.47 8.34h-14.08s-9.47-.79-10.47-8.34c-.16-1.2-.4-2.18-.68-3.01 1.92-.59 3.3-2.21 3.3-4.14 0-2.43-2.19-4.4-4.89-4.4-2.7 0-4.89 1.97-4.89 4.4v.05h-6.5l-2.13-35.83 8.01 2.25 2.75 14.99h8.1v2.37c0 .83.75 1.51 1.68 1.51h.51c.92 0 1.67-.68 1.67-1.51v-2.37h4.49v2.37c0 .83.75 1.51 1.67 1.51h.51c.92 0 1.67-.68 1.67-1.51v-2.37h4.49v2.37c0 .83.75 1.51 1.68 1.51h.51c.92 0 1.68-.68 1.68-1.51v-2.37h4.49v2.37c0 .83.75 1.51 1.67 1.51h.51c.92 0 1.67-.68 1.67-1.51v-2.37h8.04l2.75-14.99 8.01-2.25m-66.54-4.83c-1.18 0-2.34.35-3.29 1.02-1.39.97-2.16 2.49-2.07 4.07l2.13 35.83c.15 2.56 2.51 4.57 5.36 4.57h6.5c.39 0 .78-.04 1.15-.11.04.26.1.53.19.79.22.64.38 1.34.48 2.16 1.2 9.04 10.54 12.18 15.31 12.58.16.01.33.02.49.02h14.08c.17 0 .33 0 .49-.02 4.77-.4 14.11-3.54 15.31-12.57.1-.79.26-1.47.46-2.1.09-.26.15-.53.18-.79.25.03.5.05.76.05h6.91c2.85 0 5.21-2.01 5.36-4.57l2.12-35.69c.01-.13.02-.27.02-.4 0-2.65-2.37-4.8-5.31-4.83h-.27c-.53.02-1.03.1-1.51.25l-7.89 2.22c-1.93.54-3.36 2.02-3.69 3.82l-2.01 10.94h-3.49c-.68 0-1.33.11-1.93.32-.6-.21-1.25-.32-1.93-.32h-4.49c-.68 0-1.33.11-1.93.32-.6-.21-1.25-.32-1.93-.32h-4.49c-.68 0-1.33.11-1.93.32-.6-.21-1.25-.32-1.93-.32h-4.49c-.68 0-1.33.11-1.93.32-.6-.21-1.25-.32-1.93-.32h-3.55l-2.01-10.94c-.33-1.8-1.76-3.28-3.69-3.82l-8.01-2.25c-.52-.15-1.06-.22-1.6-.22zm66.58 9.66" class="cls-7" style="fill:#003188;stroke-width:0"/></g></g><path id="path479" d="m354.86 143.52 83.29 51.1s16.86 11.24 17.88 35.26l-63.36 3.58 46.5-16.86-84.31-73.07z" class="cls-6" style="fill:#e70000;stroke-width:0"/><path id="path481" d="m242.67 143.52-83.29 51.1s-16.86 11.24-17.88 35.26l63.36 3.58-46.5-16.86 84.31-73.07z" class="cls-8" style="fill:#004eca;stroke-width:0"/><path id="path483" d="M226.25 214.34s75.69 40.59 135.95 0c60.26-40.59-116.37-33.23-116.37-33.23" class="cls-7" style="fill:#003188;stroke-width:0"/><path id="path485" d="M304.08 175h-10.63c-18.62 0-25.92-23.49-26.22-24.49a3.55 3.55 0 0 1 2.38-4.43c1.88-.55 3.87.5 4.43 2.38.1.34 6.13 19.43 19.4 19.43h10.63c13.39 0 19.34-19.24 19.4-19.43a3.555 3.555 0 1 1 6.81 2.05c-.3 1-7.6 24.49-26.22 24.49z" class="cls-8" style="fill:#004eca;stroke-width:0"/><path id="polygon487" d="m344.87 377.92-45.19 40.73h-2.73l-45.2-40.73-17.75 7.84 60.97 51.7h6.69l60.96-51.7z" class="cls-4" style="fill:silver;stroke-width:0"/><path id="path489" d="M308.52 361.67c11.79-3.21 16.92-18.4 16.92-18.4l16.93-1.8 4.68-14.96-3.92-19.03c7.4 5.62 10.46 4.5 14.81 8.29 7.22 6.29 10.46 16.51 10.46 16.51l9.46 40.33-32.03-15.97-15.87 12.82-10.53 8.69-20.65 20.5h-.97l-20.65-20.5-10.53-8.69-15.87-12.82-32.03 15.97 9.46-40.33s3.25-10.22 10.46-16.51c4.35-3.79 7.42-2.67 14.81-8.29l-3.92 19.03 4.68 14.96 16.93 1.8s5.13 15.18 16.92 18.4l10.21 19.95 10.2-19.95z" style="fill:#fff;stroke:#003188;stroke-width:6.96000004px;stroke-linecap:round;stroke-linejoin:round"/><path id="path491" d="M217.72 308.14h-46.29c-3.79 0-5.72 2.36-6.53 3.77-.7 1.21-1.65 3.59-.56 6.38l11.07 13.41z" class="cls-8" style="fill:#004eca;stroke-width:0"/><path id="path493" d="M378.91 308.14h46.29c3.79 0 5.72 2.36 6.53 3.77.7 1.21 1.65 3.59.56 6.38l-11.07 13.41z" class="cls-6" style="fill:#e70000;stroke-width:0"/><path id="polygon495" d="m303.85 186.28 3.09 11.58 16.47-.1-14.75 8.16 1.89 11.9-12.21-6.54-15.29 7.46 7.21-12.21-11.35-7.29 16.66-1z" class="cls-5" style="fill:#fff;stroke-width:0"/><path id="path497" d="M265.18 249.48c-2.01.69-3.37 1.93-3.37 3.35 0 2.17 3.13 3.94 7 3.94s7-1.76 7-3.94c0-.04-.02-.08-.02-.12z" class="cls-6" style="fill:#e70000;stroke-width:0"/><path id="path499" d="M335.28 249.48c2.01.69 3.37 1.93 3.37 3.35 0 2.17-3.13 3.94-7 3.94-3.86 0-7-1.76-7-3.94 0-.04.02-.08.02-.12z" class="cls-6" style="fill:#e70000;stroke-width:0"/><path id="path501" d="m517.09 256.77-51.82 7.85-2.2 7.47s30.74 1.32 29.42 54.45l18-32.83" class="cls-6" style="fill:#e70000;stroke-width:0"/><path id="path503" d="m82.91 256.77 51.82 7.85 2.2 7.47s-30.74 1.32-29.42 54.45l-18-32.83" class="cls-6" style="fill:#e70000;stroke-width:0"/><path id="polygon505" d="m260.12 60.89-85.03 59.56h249.82l-85.03-59.56z" class="cls-5" style="fill:#fff;stroke-width:0"/><path id="path507" d="M529.99 248.16c-3.89 0-7.31-2.81-7.96-6.77-.09-.55-10.18-57.38-64.74-88.44-.22-.12-.43-.26-.64-.4L337.33 68.97h-74.68l-119.32 83.58c-.21.14-.42.28-.64.4-54.82 31.22-64.64 87.87-64.74 88.44-.72 4.4-4.87 7.38-9.27 6.67-4.4-.72-7.38-4.87-6.67-9.27.43-2.63 11.2-64.65 72.35-99.68l121.1-84.82a8.073 8.073 0 0 1 4.63-1.46h79.77c1.66 0 3.27.51 4.63 1.46l121.1 84.82c61.15 35.03 71.92 97.05 72.35 99.68.72 4.4-2.27 8.55-6.67 9.27-.44.07-.88.11-1.31.11z" class="cls-6" style="fill:#e70000;stroke-width:0"/><path id="polygon509" d="m339.88 60.89-77.08 1.25 35.97 34.78z" class="cls-6" style="fill:#e70000;stroke-width:0"/><path id="path511" d="M146.22 145.87s-32.34 29.82-33.29 64.38L92.1 195.57s25.5-53.62 54.12-49.7" class="cls-6" style="fill:#e70000;stroke-width:0"/><path id="path513" d="M453.78 145.87s32.34 29.82 33.29 64.38l20.83-14.68s-25.5-53.62-54.12-49.7" class="cls-6" style="fill:#e70000;stroke-width:0"/><path id="path515" d="m155.1 427.53 57.25 54.57 37.21-15.73c-73.43-16.64-94.45-58.69-94.45-58.69" class="cls-6" style="fill:#e70000;stroke-width:0"/><path id="path517" d="M444.9 407.69s-21.03 42.05-94.45 58.69l37.21 15.73 57.25-54.57" class="cls-6" style="fill:#e70000;stroke-width:0"/><path id="polygon519" d="m283.05 218.74 7.21-12.21-11.35-7.29 16.66-1 2.77 13.04z" class="cls-4" style="fill:silver;stroke-width:0"/><path id="polygon521" d="m362.62 385.76-17.75-7.84-24.86 22.4 13.67 9.98z" class="cls-5" style="fill:#fff;stroke-width:0"/></g></svg>