<svg xmlns="http://www.w3.org/2000/svg" id="Layer_1" width="394.176" height="219.415" data-name="Layer 1" version="1.1"><defs id="defs21"><linearGradient id="linear-gradient" x1="805.56" x2="903.45" y1="900.01" y2="900.01" gradientUnits="userSpaceOnUse"><stop id="stop4" offset="0" stop-color="#fff"/><stop id="stop6" offset=".09" stop-color="#fff" stop-opacity=".98"/><stop id="stop8" offset=".22" stop-color="#fff" stop-opacity=".91"/><stop id="stop10" offset=".36" stop-color="#fff" stop-opacity=".8"/><stop id="stop12" offset=".51" stop-color="#fff" stop-opacity=".65"/><stop id="stop14" offset=".68" stop-color="#fff" stop-opacity=".46"/><stop id="stop16" offset=".85" stop-color="#fff" stop-opacity=".23"/><stop id="stop18" offset="1" stop-color="#fff" stop-opacity="0"/></linearGradient><style id="style2">.cls-2{fill:#f0494a}.cls-3{fill:#ccc}.cls-5{fill:#fff}</style></defs><path id="path137" d="M391.176 36.997a34.06 34.06 0 0 0-57.5-24.65l-326.3 19.05 23 20.58c-15.43 30 9.08 38.14 9.08 38.14 2.73 17.25 17.26 18.16 17.26 18.16l42.67 1.81-41.71 14.53 96.25 12.71-5.44 16.35-63.62 10.86 40.86 51.76 251.52-20-4.39-129.15a34 34 0 0 0 18.32-30.15z" style="fill:none;stroke:#ccc;stroke-width:6px;stroke-miterlimit:10"/><path id="polygon139" d="m139.42 451.22 30.26-56.29 246.35-18.77v23.61z" class="cls-2" style="fill:#f0494a" transform="translate(-55.324 -355.463)"/><path id="polyline141" d="m396.96 385.54-220.32 18.77-7.87 13.31 228.8-29.05" class="cls-5" style="fill:#fff" transform="translate(-55.324 -355.463)"/><path id="polygon143" d="m159.39 438.81 237.87-42.37v-2.42l-231.82 33.9z" class="cls-5" style="fill:#fff" transform="translate(-55.324 -355.463)"/><path id="polyline145" d="m253.7 462.83-88.08 16.34 73.55 6.36" class="cls-2" style="fill:#f0494a" transform="translate(-55.324 -355.463)"/><path id="polygon147" d="m396.8 383.84-32.49 2.46-6.85.52-25.86 54.05.13-52.1-13.7 1.04-32.48 2.47-13.7 1.03-39.32 103.63-33.54 53.26 33.22-2.46 26.71-1.97 28.26-75.53.92 73.37 3.43-.25 42.8-3.17 3.43-.25 28.22-75.6.96 73.44 46.23-3.41-2.68-151.57z" class="cls-5" style="fill:#fff" transform="translate(-55.324 -355.463)"/><path id="polygon149" d="m396.8 383.84-32.49 2.46-6.85.52-25.86 54.05.13-52.1-13.7 1.04-32.48 2.47-13.7 1.03-54.78 132.45-35.25 5.8 17.17 18.64 33.22-2.46 26.71-1.97 28.26-75.53.92 73.37 3.43-.25 42.8-3.17 3.43-.25 28.22-75.6.96 73.44 46.23-3.41-2.68-151.57z" style="fill:none;stroke:#0f455e;stroke-width:12.10999966px;stroke-miterlimit:10" transform="translate(-55.324 -355.463)"/><path id="polygon151" d="m255.63 540.19 36.62-100.17-48.12 100.78z" class="cls-3" style="fill:#ccc" transform="translate(-55.324 -355.463)"/><path id="polyline153" d="m325.14 395.93-6.35 85.34 6.81-14.07" class="cls-3" style="fill:#ccc" transform="translate(-55.324 -355.463)"/><path id="polyline155" d="m370.99 432.7-47.21 102.14 9.99-.46" class="cls-3" style="fill:#ccc" transform="translate(-55.324 -355.463)"/><path id="polygon157" d="m407.76 528.94-3.33-139.51-5.75 140.87z" class="cls-3" style="fill:#ccc" transform="translate(-55.324 -355.463)"/><path id="polygon159" d="M416.03 399.77v-23.61l-77.93 6.17-.68 32.62z" class="cls-2" style="fill:#f0494a" transform="translate(-55.324 -355.463)"/><path id="polyline161" d="m169.68 394.93-57.5 5.44 57.5 24.82" class="cls-2" style="fill:#f0494a" transform="translate(-55.324 -355.463)"/><path id="path163" d="M77.836 64.927c-5.31-.24-11.19-.06-16-2.75-4.4-2.48-7.44-5.9-13-3.95a7 7 0 0 0-3.17 2.06 9.15 9.15 0 0 0-1.55 3.57c-2.31 9 2.2 16.82 12 17.1 8.22.23 15.85-5.12 22.33-9.56l8.25-5.65c-.75.52-4.11-.44-5.11-.55-1.2-.14-2.47-.21-3.75-.27z" class="cls-2" style="fill:#f0494a"/><path id="path165" d="M51.246 73.727c-2.27-1.8-3.61-4.4-2.06-7.61a3.37 3.37 0 0 1 2.46-2.06 3.62 3.62 0 0 1 3.07 1.87 42.43 42.43 0 0 1 2.17 4.5c1.28 2.46 3.24 2.91 5.46 3.76l4.43-.31c-.56 0-1.5.88-2 1.13a15.41 15.41 0 0 1-5.33 1.47 13.25 13.25 0 0 1-8.2-2.75z" class="cls-5" style="fill:#fff"/><path id="path167" d="M76.886 82.807a7.2 7.2 0 0 1-.74.46 26.69 26.69 0 0 1-7.22 3.06c-2.4.51-5.09.49-7 2.22a1.42 1.42 0 0 0-.4.51 1.54 1.54 0 0 0 0 .74c.31 2.6 1.67 6 4.55 6.62 7 1.45 10.52-5.92 12.84-11l2.13-4.7c-1.3.08-2.89 1.27-4.16 2.09z" class="cls-2" style="fill:#f0494a"/><path id="polygon169" d="m396.96 385.54-59.03 5.03-.12 5.59 59.76-7.59z" class="cls-5" style="fill:#fff" transform="translate(-55.324 -355.463)"/><path id="polygon171" d="m397.26 394.02-59.59 8.71-.09 4.34 59.68-10.63z" class="cls-5" style="fill:#fff" transform="translate(-55.324 -355.463)"/><circle id="circle173" cx="359.686" cy="34.727" r="19.98" class="cls-2" style="fill:#f0494a"/><path id="path175" d="M361.336 20.757c-10.14 0-16.67 14.28-5.63 18.92 1.65.7 3.47.92 5.18 1.47 3.18 1 4.44 2.95 5 6a13.72 13.72 0 0 0 7.86-12.71c-.01-7.55-5.57-13.68-12.41-13.68z" style="fill:#0d435e"/></svg>