<svg xmlns="http://www.w3.org/2000/svg" xmlns:xlink="http://www.w3.org/1999/xlink" id="Layer_1" width="329.92" height="362.57" data-name="Layer 1" viewBox="0 0 329.92 362.57"><defs id="defs8167"><linearGradient id="linear-gradient" x1="262.58" x2="262.58" y1="471.58" y2="413.99" gradientUnits="userSpaceOnUse"><stop id="stop8143" offset=".05" stop-color="#7500e3"/><stop id="stop8145" offset=".35" stop-color="#7500e3" stop-opacity=".99"/><stop id="stop8147" offset=".48" stop-color="#7500e3" stop-opacity=".96"/><stop id="stop8149" offset=".58" stop-color="#7500e3" stop-opacity=".9"/><stop id="stop8151" offset=".67" stop-color="#7500e3" stop-opacity=".82"/><stop id="stop8153" offset=".74" stop-color="#7500e3" stop-opacity=".72"/><stop id="stop8155" offset=".81" stop-color="#7500e3" stop-opacity=".59"/><stop id="stop8157" offset=".87" stop-color="#7500e3" stop-opacity=".44"/><stop id="stop8159" offset=".93" stop-color="#7500e3" stop-opacity=".26"/><stop id="stop8161" offset=".98" stop-color="#7500e3" stop-opacity=".07"/><stop id="stop8163" offset="1" stop-color="#7500e3" stop-opacity="0"/></linearGradient><linearGradient xlink:href="#linear-gradient" id="linear-gradient-2" x1="740.72" x2="740.72" y1="503.56" y2="426.38"/><linearGradient xlink:href="#linear-gradient" id="linearGradient9208" x1="262.58" x2="262.58" y1="471.58" y2="413.99" gradientUnits="userSpaceOnUse"/><style id="style8141">.cls-5,.cls-7,.cls-9{stroke:#000}.cls-17,.cls-5{stroke-miterlimit:10}.cls-22,.cls-5,.cls-7{fill:#ff8f0d}.cls-7,.cls-9{stroke-linecap:round;stroke-linejoin:round}.cls-17{stroke:#fff;fill:none}.cls-23,.cls-9{fill:#ab5000}.cls-17{stroke-width:2.78px}.cls-5,.cls-9{stroke-width:2.24px}.cls-7{stroke-width:3.41px}.cls-26{fill:#fff}.cls-28{fill:#fdfff9}</style></defs><g id="g8405" transform="translate(-95 -174.01)"><path id="rect8169" d="M95 456h327v19H95z" class="cls-22" transform="rotate(180 258.5 465.5)"/><g id="g8177"><path id="rect8171" d="M95 456h6v6h-6z"/><path id="rect8173" d="M95 465h6v6h-6z"/><path id="rect8175" d="M105 456h6v6h-6z"/></g><g id="g8185"><path id="rect8179" d="M416 456h6v6h-6z" transform="rotate(180 419 459)"/><path id="rect8181" d="M416 465h6v6h-6z" transform="rotate(180 419 468)"/><path id="rect8183" d="M406 456h6v6h-6z" transform="rotate(180 409 459)"/></g><path id="rect8187" d="M95 442h327v5H95z" class="cls-22"/><g id="g8195"><path id="path8189" d="M306.95 485.35c-9.72 0-17.58 4.7-21.86 12.06v-11.2h-94.82v9.99h1.97c1.18 0 1.84.72 1.84 1.91v25.5c0 1.18-.66 1.91-1.84 1.91h-5.32c-1.84 0-3.02-.59-3.81-2.17l-4.08-8.28c5.72-2.24 9.33-6.77 9.33-13.34 0-9.99-7.62-15.51-18.73-15.51h-23.2v9.99h1.71c1.25 0 1.91.72 1.91 1.91v25.5c0 1.18-.66 1.91-1.91 1.91h-3.94v-18.34h-24.85v9.73h11.96c1.12 0 1.77.72 1.77 1.84v.07c0 3.75-5 6.57-10.78 6.57-8.55 0-13.87-5.46-13.87-14.33 0-8.15 5.19-13.87 13.28-13.87 6.38 0 10.58 3.55 11.24 6.71h11.24v-17.68h-10.85l-.2 5.52c-2.96-4.08-8.15-6.38-14.26-6.38-13.67 0-23.8 10.65-23.8 25.57 0 16.04 10.85 25.64 23.99 25.64 6.77 0 11.5-2.37 14.2-6.05l.13 5h33.91v-9.99h-2.83c-1.18 0-1.84-.72-1.84-1.91v-6.77h4.4l8.55 18.67h58.3v-9.99h-3.42c-1.18 0-1.84-.72-1.84-1.91v-8.81h10.52v-8.74h-10.52v-9.86h7.56c1.12 0 1.84.72 1.84 1.91v3.35h11.24v-5.26h.62c1.25 0 1.91.72 1.91 1.91v25.5c0 1.18-.66 1.91-1.91 1.91h-1.71v9.99h21.5v-9.99h-3.42c-1.18 0-1.84-.72-1.84-1.91v-8.81h10.52v-8.74h-10.52v-9.86h7.56c1.12 0 1.84.72 1.84 1.91v3.35h9.36c-1.06 2.92-1.63 6.12-1.63 9.53 0 14.66 10.52 25.57 25.37 25.57s25.37-10.91 25.37-25.57-10.52-25.64-25.37-25.64zm-137.9 21.83h-6.38v-10.85h6.38c3.75 0 6.44 1.77 6.44 5.32s-2.7 5.52-6.44 5.52zm46.99 16.43c0 1.18-.66 1.91-1.91 1.91h-4.73c-1.18 0-1.84-.72-1.84-1.91v-25.5c0-1.18.66-1.91 1.84-1.91h4.73c1.25 0 1.91.72 1.91 1.91zm90.91.66c-7.3 0-12.1-5.72-12.1-13.28s4.8-13.28 12.1-13.28 12.1 5.65 12.1 13.28-4.93 13.28-12.1 13.28"/><path id="path8191" d="M360.58 496.2h3.81c1.12 0 1.84.72 1.84 1.91v16.5l-22.02-28.4H330.6v9.99h1.71c1.25 0 1.91.72 1.91 1.91v25.5c0 1.18-.66 1.91-1.91 1.91h-1.71v9.99h21.96v-9.99h-3.81c-1.18 0-1.84-.72-1.84-1.91v-16.76l22.15 28.66h9.93v-37.4c0-1.18.72-1.91 1.91-1.91h1.51v-9.99h-21.82v9.99z"/><path id="path8193" d="M421.14 510.66c-2.76-2.83-7.03-4.6-12.88-5.85l-3.16-.72c-2.23-.46-3.68-1.05-4.47-1.91-.66-.59-.92-1.38-.92-2.37 0-1.18.39-2.17 1.12-2.89.92-.92 2.43-1.51 4.27-1.51 2.1 0 4.01.59 5.19 1.84.99.99 1.51 2.3 1.51 4.08v.33h11.04v-15.45h-10.25l-.2 3.62c-.2-.26-.46-.46-.59-.66-2.43-2.43-6.18-3.81-10.85-3.81s-8.94 1.71-11.7 4.47c-2.63 2.56-4.08 6.18-4.08 10.32s1.12 7.1 3.55 9.47c2.43 2.5 6.31 4.27 11.83 5.46l3.35.79c2.76.59 4.67 1.38 5.78 2.43.79.79 1.18 1.78 1.18 2.96 0 1.25-.46 2.43-1.25 3.22-1.05.99-2.76 1.64-5 1.64-2.63 0-4.86-.85-6.24-2.3-1.18-1.25-1.84-2.83-1.84-4.86v-.39h-11.44v16.96h10.71l.26-3.48.2.26c2.76 2.76 6.84 4.27 12.03 4.27s9.4-1.77 12.42-4.73c2.63-2.76 4.21-6.51 4.21-10.85s-1.18-7.69-3.81-10.32z"/></g><g id="g8403"><g id="g8201"><path id="path8197" d="M172.21 468.76c-17.88 0-33.9-9.25-42.84-24.73s-8.94-33.98 0-49.47l88.19-152.75c8.94-15.49 24.96-24.73 42.84-24.73s33.9 9.25 42.84 24.73l88.19 152.75c8.94 15.49 8.94 33.98 0 49.47s-24.96 24.73-42.84 24.73z"/><path id="path8199" d="M260.4 219.48c17.01 0 32.25 8.8 40.76 23.53l88.19 152.75c8.51 14.73 8.51 32.33 0 47.06s-23.74 23.53-40.76 23.53H172.21c-17.01 0-32.25-8.8-40.76-23.53s-8.51-32.33 0-47.06l88.19-152.75c8.51-14.73 23.74-23.53 40.76-23.53m0-4.8c-18.75 0-35.54 9.7-44.92 25.94l-88.19 152.75c-9.38 16.24-9.38 35.63 0 51.87s26.17 25.94 44.92 25.94h176.38c18.75 0 35.55-9.7 44.92-25.94 9.38-16.24 9.38-35.63 0-51.87l-88.19-152.75c-9.38-16.24-26.17-25.94-44.92-25.94" class="cls-22"/></g><path id="path8203" d="m286.91 251.24 88.19 152.75c11.78 20.41-2.95 45.92-26.51 45.92H172.21c-23.56 0-38.29-25.51-26.51-45.92l88.19-152.75c11.78-20.41 41.24-20.41 53.02 0z" style="stroke-miterlimit:10;stroke:#ff8f0d;fill:#7500e3;stroke-width:5.26px"/><g id="g8221"><path id="path8205" d="m184.36 238.72-7.1 10.12-.5-.35 1.52-2.17-20.12-14.11-1.52 2.17-.5-.35 7.29-10.4c2.92-4.16 6.78-5.25 9.67-3.22 2.76 1.94 3.17 5.05 1.86 8.25l.28.2c2.9-2.88 6.31-3.91 9.1-1.95 3.35 2.35 3.77 6.44 0 11.82zm-10.73-10.26-7.73-5.42c-.5-.35-1.26-.05-1.96.94l-2.11 3.01 9.5 6.66 1.85-2.64c.61-.87.92-2.23.45-2.56zm10.98 7.01-8.17-5.73c-.53-.37-1.81.26-2.76 1.63l-1.85 2.64 10.12 7.1 1.92-2.73c1.07-1.52 1.27-2.54.74-2.91"/><path id="path8207" d="m192.93 226.54 2.08-1.65-15.25-19.28-2.08 1.65-.38-.48 10.35-8.19c3.87-3.06 8.05-3.22 10.33-.33 2.38 3 .68 6.67-1.34 9.19l.07.09c2.67-.9 5.36-1.05 6.73-.29 1.21.74 3.69 3.51 6.14 6.12l1.79-1.41.38.48-6.69 5.29c-2.02-2.13-6.97-6.67-8.66-7.9-.95-.65-1.67-.52-2.65.26l-1.43 1.13 7.69 9.73 1.99-1.58.38.48-9.08 7.18-.38-.48zm1.18-17.52c1.07-.85 1.86-2.54 1.32-3.22l-5.48-6.93c-.38-.48-1.32-.26-2.27.49l-2.92 2.31 7.18 9.08 2.17-1.72z"/><path id="path8209" d="m221.79 180.86-.88.35-.22-.56 6.88-2.71.22.56-.67.26-1.2 3.78 5.83 14.78c1.2 3.03.15 7.61-4.97 9.62-5.86 2.31-10.52 0-11.76-3.15l-6.92-17.53-2.47.97-.22-.56 11.08-4.37.22.56-2.68 1.06 8.66 21.94c.45 1.13 1.79 1.33 3.87.51 4.69-1.85 5.66-6.02 4.56-8.81l-5.83-14.78-3.49-1.93z"/><path id="path8211" d="M250.76 175.1c-1.18-.38-2.41-.44-3.5-.33-2.98.3-4.59 2.14-4.54 2.6.02.15.1.26.27.39l12.86 10.67c1.32 1.01 2.08 2.42 2.24 4.04.35 3.43-1.68 7.91-7.49 8.5-2 .2-3.98-.17-5.61-.8l-3.02 1.07-.49.05-.68-7.4.57-.06 4.06 5.84c1.51.57 3.29.89 5.1.7 3.28-.33 5.22-2.32 5.14-3.08-.02-.19-.11-.37-.45-.68l-12.71-10.26c-1.32-1.01-2.15-2.41-2.32-4.04-.35-3.43 1.97-7.63 6.99-8.14 1.17-.12 2.74-.05 4.28.52l2.41-.63.49-.05.74 6.52-.53.05-3.83-5.48z"/><path id="path8213" d="M281.13 176.66c-1.05-.66-2.22-1.04-3.3-1.21-2.96-.46-4.98.91-5.05 1.36-.02.15.03.27.16.45l9.74 13.58c1.02 1.31 1.39 2.87 1.14 4.48-.53 3.41-3.63 7.23-9.4 6.32-1.99-.31-3.81-1.17-5.22-2.2l-3.19.27-.49-.08 1.22-7.33.56.09 2.45 6.68c1.31.93 2.96 1.69 4.76 1.97 3.26.51 5.63-.92 5.75-1.67.03-.19-.02-.39-.26-.77l-9.69-13.15c-1.02-1.31-1.47-2.88-1.22-4.49.53-3.41 3.84-6.89 8.83-6.11 1.16.18 2.66.65 4.01 1.59h2.49l.49.08-.94 6.49-.52-.08z"/><path id="path8215" d="m288.24 203 2.42 1.09 10.1-22.41-2.42-1.09.25-.55 17.91 8.07-2.7 6.64-.45-.2-.9-7.6-5.88-2.65-4.88 10.82 3.04 1.37 4.02-2.47.45.2-3.47 7.8-.48-.22-.77-4.75-3.04-1.37-4.97 11.03 6.29 2.84 6.86-4.61.45.2-3.68 6.7-18.4-8.29z"/><path id="path8217" d="m329.96 197.49-2.03-1.71.39-.46 9.23 7.75-.39.46-2.32-1.95-15.8 18.82 4.99 4.19 7.88-2.54.38.32-5.39 5.42-15.16-12.73.39-.46 2.03 1.71z"/><path id="path8219" d="M358.16 227.48c-.25-1.21-.79-2.32-1.42-3.22-1.72-2.45-4.11-2.95-4.48-2.69-.12.09-.17.21-.21.43l-3.02 16.43c-.23 1.65-1.1 2.99-2.43 3.93-2.83 1.98-7.72 2.4-11.07-2.38-1.15-1.65-1.8-3.56-2.04-5.29l-2.41-2.11-.28-.4 6.13-4.21.33.47-3.11 6.4c.24 1.59.84 3.31 1.88 4.8 1.89 2.7 4.57 3.42 5.19 2.98.16-.11.27-.28.37-.72l2.75-16.1c.23-1.65 1.05-3.06 2.39-3.99 2.83-1.98 7.62-2.01 10.52 2.12.67.96 1.38 2.37 1.64 3.99l1.73 1.8.28.4-5.33 3.83-.31-.43 2.91-6.02z"/></g><g id="g8401"><path id="path8223" d="M365.11 336.83c8.21-8.33 20.62-20.93 16.21-43.28-.03-.14-.06-.28-.1-.42-.28-.97-3.09-9.52-17.02-11.72-9.82-1.55-21.38-7.65-28.78-15.19-5.5-5.6-13.27-8.95-20.78-8.95-4.3 0-8.42 1.04-12.24 3.1-3 1.61-5.76 3.83-8.25 6.61a58.4 58.4 0 0 0-18.59-3.68c-.06-.06-.12-.13-.19-.19-7.14-6.71-15.7-8.12-21.62-8.12-3.24 0-5.45.44-5.69.49-1.45.3-2.7 1.2-3.45 2.48a5.17 5.17 0 0 0-.45 4.22l.45 1.39c-6.2.64-11.24 2.17-14.5 3.4-2.49-2.78-5.25-5-8.25-6.61-3.82-2.06-7.94-3.1-12.24-3.1-7.51 0-15.28 3.34-20.78 8.95-7.4 7.54-18.97 13.64-28.78 15.19-13.93 2.19-16.75 10.75-17.02 11.72-.04.14-.07.28-.1.42-4.41 22.36 8 34.95 16.21 43.28 2.6 2.64 5.05 5.13 5.95 6.96 1.21 2.46 1.56 4.71 1.04 6.68-.34 1.27-.96 2.08-1.12 2.28-1.43 1.28-1.93 3.16-1.47 5.03.47 1.89 2.06 3.27 3.96 3.72 2.16.51 4.25.77 6.23.77 3.15 0 5.77-.64 7.95-1.59-.78 9.19-3.52 12.27-3.8 12.56a5.215 5.215 0 0 0-1.13 6.8 5.23 5.23 0 0 0 4.1 2.45c.83 11.76 3.44 18.91 5.01 22.26-3.51 11.62-11.43 15.95-12.03 16.27-1.96.92-3.1 2.94-2.93 5.11s1.71 3.98 3.81 4.58c2.47.71 5.13 1.07 7.9 1.07s5.2-.34 7.23-.76c.81 1.8 1.68 3.21 2.48 4.51.76 1.23 1.48 2.4 2.15 3.91 7.95 18 23.38 31.95 42.43 38.38a8.26 8.26 0 0 0 5.83 4.93v.58c0 2.88 2.33 5.21 5.21 5.21h4.2c.36 0 .71-.04 1.05-.11a25.4 25.4 0 0 0 8.8 1.57c3.02 0 5.98-.53 8.8-1.57.34.07.69.11 1.05.11h4.2c2.88 0 5.21-2.33 5.21-5.21v-.58c2.21-.49 4.09-1.89 5.24-3.77a81 81 0 0 0 3-1.06c16.86-6.41 30.47-18.57 38.32-34.24.82-1.63 1.62-2.95 2.4-4.23 1.33-2.19 2.69-4.44 3.91-7.82 1.7.21 3.74.37 5.94.37 3.59 0 6.93-.43 9.9-1.28 2.14-.61 3.7-2.5 3.81-4.73.11-2.22-1.15-4.25-3.21-5.08-.24-.11-2.72-1.28-5.52-3.93-3.38-3.2-5.82-7.17-7.26-11.8.71-1.41 1.62-3.47 2.5-6.2 1.6-4.93 2.63-10.45 3.1-16.48a5.2 5.2 0 0 0 4.13-2.45c1.4-2.24.89-5.15-1.13-6.8-.28-.29-3.02-3.37-3.8-12.56 2.17.96 4.8 1.59 7.95 1.59 1.98 0 4.07-.26 6.23-.77 1.9-.45 3.49-1.83 3.96-3.72.46-1.87-.04-3.75-1.47-5.03-.16-.2-.78-1-1.12-2.28-.53-1.97-.18-4.22 1.04-6.68.9-1.83 3.36-4.32 5.95-6.96z" style="stroke-miterlimit:10;fill:#ff8f0d;stroke:#ff8f0d;stroke-width:2.98px"/><path id="path8225" d="M323.14 441.33c2.9-5.78 5.36-7.65 7.3-15.63 0 0 9.58 2.43 18.07 0 0 0-12.42-5.21-16.34-21.2 0 0 6.27-9.14 6.27-29.64l4.63 2.43s-7.61-5.56-5.58-29.37c0 0 3.45 11.99 18.05 8.52 0 0-5.7-5.56-1.07-14.95 4.63-9.38 27.06-19.81 21.72-46.92 0 0-1.78-6.26-12.82-7.99-11.04-1.74-23.5-8.34-31.69-16.68s-24.57-12.51-35.97 3.48c0 0-9.62-5.17-23.15-4.84l-.79-1.59c-9.62-9.04-22.68-6.33-22.68-6.33l2.56 7.92c-13.53-.32-23.15 4.84-23.15 4.84-11.4-15.99-27.78-11.82-35.97-3.48s-20.65 14.95-31.69 16.68-12.82 7.99-12.82 7.99c-5.34 27.11 17.09 37.54 21.72 46.92s-1.07 14.95-1.07 14.95c14.6 3.48 18.05-8.52 18.05-8.52 2.02 23.81-5.58 29.37-5.58 29.37l4.63-2.43c0 20.51 5.62 29.3 5.62 29.3-3.92 15.99-15.29 21.55-15.29 21.55 8.5 2.43 17.03-1.04 17.03-1.04 1.51 6.22 3.92 7.81 6.07 12.68 7.49 16.96 22.1 29.95 40.05 35.79l3.1 1.01a68.18 68.18 0 0 0 45.26-1.1v0c15.47-5.88 28.22-17.14 35.52-31.7z" style="stroke:#000;stroke-linecap:round;stroke-linejoin:round;stroke-width:2.09px"/><g id="g8241"><ellipse id="ellipse8227" cx="222.74" cy="347.72" class="cls-17" rx="12.69" ry="13.47"/><g id="g8233"><path id="path8229" d="M222.74 357.71c-5.08 0-9.21-4.48-9.21-9.99s4.13-9.99 9.21-9.99 9.21 4.48 9.21 9.99-4.13 9.99-9.21 9.99"/><path id="path8231" d="M222.74 358.75c-5.65 0-10.25-4.95-10.25-11.04s4.6-11.04 10.25-11.04 10.25 4.95 10.25 11.04-4.6 11.04-10.25 11.04m0-19.99c-4.5 0-8.17 4.02-8.17 8.95s3.66 8.95 8.17 8.95 8.17-4.02 8.17-8.95-3.66-8.95-8.17-8.95"/></g><ellipse id="ellipse8235" cx="222.74" cy="347.45" rx="7.13" ry="7.47"/><path id="path8237" d="m202.53 348.19 18.11-7.28c6.91-2.78 14.69 1.01 16.78 8.16.03.11.07.23.1.35h8.34l-1.62-19.64-34.19-4.42-10.65 18.32"/><circle id="circle8239" cx="222.74" cy="346.56" r="3.13" class="cls-22"/></g><g id="g8257"><ellipse id="ellipse8243" cx="302.07" cy="347.72" class="cls-17" rx="12.69" ry="13.47"/><g id="g8249"><path id="path8245" d="M302.07 357.71c5.08 0 9.21-4.48 9.21-9.99s-4.13-9.99-9.21-9.99-9.21 4.48-9.21 9.99 4.13 9.99 9.21 9.99"/><path id="path8247" d="M302.07 358.75c-5.65 0-10.25-4.95-10.25-11.04s4.6-11.04 10.25-11.04 10.25 4.95 10.25 11.04-4.6 11.04-10.25 11.04m0-19.99c-4.5 0-8.17 4.02-8.17 8.95s3.66 8.95 8.17 8.95 8.17-4.02 8.17-8.95-3.66-8.95-8.17-8.95"/></g><ellipse id="ellipse8251" cx="302.07" cy="347.45" rx="7.13" ry="7.47"/><path id="path8253" d="m322.28 348.19-18.11-7.28c-6.91-2.78-14.69 1.01-16.78 8.16-.03.11-.07.23-.1.35h-8.34l1.62-19.64 34.19-4.42 10.65 18.32"/><circle id="circle8255" cx="302.07" cy="346.56" r="3.13" class="cls-22"/></g><path id="path8259" d="M200.45 406.93s2.43-24.68 22.59-41.02c0 0-15.64 4.87-20.51-17.73l-8.69 7.65s-1.56 12.34-4 15.47l4.17-2.78s-4.52 11.47-1.39 22.25c0 0-1.74-11.12 10.78-20.16 0 0-6.95 9.38-6.26 20.51s3.3 15.82 3.3 15.82z" class="cls-5"/><path id="path8261" d="M193.76 348.19s1.65-6.95 6.33-13.9l-6.66 4.8s3.42-19.4 28.24-22.18c0 0-12.95-3.48-21.94 3.48 0 0 .36-6.6 17.63-15.99 0 0-7.19-1.39-13.31 1.74 0 0 2.88-7.99 16.55-13.9h-11.29s19.21-17.38 41.87-16.68c0 0 2.58 0 6.15 2.42l8.62-7.96-2.3 12.14c5.76-6.6 10.79-6.6 10.79-6.6 22.66-.7 41.87 16.68 41.87 16.68h-11.29c13.67 5.91 16.55 13.9 16.55 13.9-6.12-3.13-13.31-1.74-13.31-1.74 17.27 9.38 17.63 15.99 17.63 15.99-8.99-6.95-21.94-3.48-21.94-3.48 24.82 2.78 28.24 22.18 28.24 22.18l-6.66-4.8c4.68 6.95 6.33 13.9 6.33 13.9l.32 3.3s-13.31-13.21-33.82-15.64l7.19-3.48s-20.51-6.26-23.38 16.68c0 0-6.67-1.13-9.99-7.52s-.8-15.43 9.27-24.12l-1.44 6.6s5.4-12.51 25.54-12.51c0 0-7.55-3.13-20.51-1.39-12.95 1.74-17.63 19.12-17.63 25.03 0 0-1.44-10.78 1.08-17.38 0 0-7.19 4.52-5.04 21.2 0 0-1.44-14.6-9.35-20.51 0 0 3.6 10.78.72 17.03 0 0-1.08-14.6-7.91-19.12-6.84-4.52-21.58-6.95-28.78-4.87 0 0 17.27.35 25.18 12.86l-1.08-6.95s7.32 5.05 8.36 16.87c.49 5.56-2.16 10.99-7.03 13.98-1.02.62-2.17 1.24-3.49 1.82 0 0-1.87-22.77-26.12-19.55l9.93 4.96s-11.87-.7-30.58 14.95l.44-2.26z" class="cls-5"/><path id="path8263" d="M178.72 349.4s9.04-10.24 14.25-35.88 13.56-38.15 24.68-27.73l5.39-3.68s.32-5.67-5.61-9.61c-2.84-1.89-6.26-2.7-9.66-2.45l-6.11.45 4.87 3.48s-19.81 11.12-32.67 17.38-22.94 5.21-12.86 26.42c0 0-.35-11.47 2.78-17.38 0 0 .7 11.82 2.78 15.29 0 0 .7-8.69 5.21-14.25 0 0-2.09 13.9 2.78 23.98 0 0-.35-18.77 11.12-29.89 0 0-1.04 6.6-2.43 15.64s-4.52 38.23-4.52 38.23" class="cls-9"/><path id="path8265" d="M344.76 349.4s-9.04-10.24-14.25-35.88-13.56-38.15-24.68-27.73l-5.39-3.68s-.32-5.67 5.61-9.61c2.84-1.89 6.26-2.7 9.66-2.45l6.11.45-4.87 3.48s19.81 11.12 32.67 17.38 22.94 5.21 12.86 26.42c0 0 .35-11.47-2.78-17.38 0 0-.7 11.82-2.78 15.29 0 0-.7-8.69-5.21-14.25 0 0 2.09 13.9-2.78 23.98 0 0 .35-18.77-11.12-29.89 0 0 1.04 6.6 2.43 15.64s4.52 38.23 4.52 38.23" class="cls-9"/><path id="path8267" d="M261.39 435.35c-8.07-3.73-17.03-20.25-17.03-20.25.36 10.08 8.96 18.77 8.96 18.77-7.89-.7-13.63-11.12-13.63-11.12l3.94 10.08c-17.21-14.25-3.63-29.2-3.63-29.2h-4.26l12.55-9.73c4.3 3.48 12.19 4.87 12.19 4.87h1.97s7.89-1.39 12.19-4.87l12.55 9.73h-4.26s13.58 14.95-3.63 29.2l3.94-10.08s-5.74 10.43-13.63 11.12c0 0 8.61-8.69 8.96-18.77 0 0-8.96 16.52-17.03 20.25" style="stroke:#000;stroke-miterlimit:10;fill:#ab5000;stroke-width:1.49px"/><path id="path8269" d="M261.39 435.35c-8.07-3.73-17.03-20.25-17.03-20.25.36 10.08 8.96 18.77 8.96 18.77-7.89-.7-13.63-11.12-13.63-11.12l3.94 10.08c-17.21-14.25-3.63-29.2-3.63-29.2h-4.26l12.55-9.73c4.3 3.48 12.19 4.87 12.19 4.87h1.97s7.89-1.39 12.19-4.87l12.55 9.73h-4.26s13.58 14.95-3.63 29.2l3.94-10.08s-5.74 10.43-13.63 11.12c0 0 8.61-8.69 8.96-18.77 0 0-8.96 16.52-17.03 20.25" class="cls-5"/><path id="path8271" d="M324.36 406.93s-2.43-24.68-22.59-41.02c0 0 15.64 4.87 20.51-17.73l8.69 7.65s1.56 12.34 4 15.47l-4.17-2.78s4.52 11.47 1.39 22.25c0 0 1.74-11.12-10.78-20.16 0 0 6.95 9.38 6.26 20.51s-3.3 15.82-3.3 15.82z" class="cls-5"/><g id="g8277"><path id="path8273" d="M290.3 431.61s14.25-16.95 0-40.63v4.04s-6.95.09-12.86-5.12-9.04-9.04-13.21-10.78v-4.5s8.69-2.45 12.51-9.75l13.9-.7s23.81 7.67 27.72 41.55c0 0-1.3 11.29-7.91 18.93 0 0 3.49-7.99 0-17.73 0 0-2.09 15.64-7.31 21.2l.7-12.51s-6.26 14.25-13.56 15.99z" class="cls-5"/><path id="path8275" d="M234.51 431.61s-14.25-16.95 0-40.63v4.04s6.95.09 12.86-5.12 9.04-9.04 13.21-10.78v-4.5s-8.69-2.45-12.51-9.75l-13.9-.7s-23.81 7.67-27.72 41.55c0 0 1.3 11.29 7.91 18.93 0 0-3.49-7.99 0-17.73 0 0 2.09 15.64 7.31 21.2l-.7-12.51s6.26 14.25 13.56 15.99z" class="cls-5"/></g><path id="path8279" d="M232.25 285.1s12.86 3.48 19.81 9.73l-1.04-4.17s9.38 3.13 10.78 10.43c0 0 3.48-7.99 9.04-10.78v6.37s9.73-10.89 25.37-11.93c0 0-13.34-3.48-20.74 0 0 0 .93-3.13 4.41-5.21 0 0-11.47 1.74-17.73 13.21 0 0-4.17-10.08-17.03-14.25l6.26 6.6s-7.99-4.52-19.12 0z" class="cls-28"/><path id="path8281" d="M262.68 371.82c4.18-1.79 10.45-8.07 10.45-8.07s-.3-.9-1.49-.9c0 0-2.69.9-4.18-.6s-1.19-3.88-1.19-3.88l.1-.77c.12-.93.9-1.62 1.84-1.62 1.06 0 1.9.89 1.85 1.95l-.2 3.73h3.58s1.79-.9 2.09-2.09-.6-5.38-8.07-6.87h-10.11c-7.47 1.49-8.36 5.68-8.07 6.87s2.09 2.09 2.09 2.09h3.58l-.2-3.73a1.85 1.85 0 0 1 1.85-1.95c.93 0 1.72.7 1.84 1.62l.1.77s.3 2.39-1.19 3.88-4.18.6-4.18.6c-1.19 0-1.49.9-1.49.9s6.27 6.27 10.45 8.07z" style="stroke:#000;stroke-miterlimit:10;fill:#7500e3;stroke-width:1.39px"/><path id="path8283" d="M265.34 393.56c2.3-.29 4.76-1.41 6.43-2.3.92-.49.97-1.8.09-2.35l-3.43-2.14a3.39 3.39 0 0 0-4.47.79l-1.59 2.04h-.77l-1.59-2.04a3.39 3.39 0 0 0-4.47-.79l-3.43 2.14c-.89.55-.84 1.86.09 2.35 1.66.89 4.13 2.01 6.43 2.3h6.7z" style="fill:#7500e3"/><path id="path8285" d="M315.62 423.19c-8.86 19.26-29.27 32.74-53.04 32.74s-44.18-13.48-53.04-32.74a101 101 0 0 1-10.59-9.2c5.42 32.74 31.85 57.59 63.63 57.59s58.21-24.85 63.63-57.59a100 100 0 0 1-10.59 9.2" style="fill:url(#linearGradient9208)"/><path id="path8287" d="M236.25 367.65s-22.15 10.43-24.11 29.72c0 0 7.74-10.6 18.53-16.34 0 0-10.31 14.26-8.97 26.16 0 0 10.05-26.68 23.94-33.98 0 0-12.22-3.13-22.28 7.82" class="cls-26"/><path id="path8289" d="M288.56 367.65s22.15 10.43 24.11 29.72c0 0-7.74-10.6-18.53-16.34 0 0 10.31 14.26 8.97 26.16 0 0-10.05-26.68-23.94-33.98 0 0 12.22-3.13 22.28 7.82" class="cls-26"/><path id="path8291" d="m267.31 404.71 4.36 7.43 1.65-9.26 4.76 5.77-1.75-11.17-2.31-3.11c-1.25.89-2.72 1.63-4.19 2.23-2.45 1.86-6.52 3.54-12.84 2.46l-1.46-1.59c-1.98-.64-4.22-1.55-6.07-2.75l-5.85 5.56h4.37l-1.66 6.88 4.41-1.49 8.34 17.38 8.25-18.33z" class="cls-26"/><g id="g8297"><path id="path8293" d="M263.43 338.62c.01.12.02.23.04.35 0 0-.01-.12-.04-.35" class="cls-23"/><path id="path8295" d="M285.06 310.12c3.77-.51 7.08-.6 9.88-.48-7.7-5.17-24.09 1.1-24.09 1.1 5.41-8.94 23.05-16.44 23.05-16.44-15 0-31.91 15.4-31.91 15.4-14.93-15.19-33.1-7.76-33.1-7.76 16.63-1.41 23.86 9.58 23.86 9.58-12-7.13-34.6 0-34.6 0 7.19-2.09 21.94.35 28.78 4.87s7.91 19.12 7.91 19.12c2.88-6.26-.72-17.03-.72-17.03 7.19 5.37 9.04 17.91 9.31 20.16-2.01-16.39 5.08-20.85 5.08-20.85-2.52 6.6-1.08 17.38-1.08 17.38 0-5.91 4.68-23.29 17.63-25.03z" class="cls-23"/></g><path id="path8299" d="M221.68 316.9c-24.82 2.78-28.24 22.18-28.24 22.18s14.06-20.66 37.47-20.55c0 0-4.06-1.2-9.35-1.66l.11.03z"/><path id="path8301" d="M221.68 316.9c-24.82 2.78-28.24 22.18-28.24 22.18s14.06-20.66 37.47-20.55c0 0-4.06-1.2-9.35-1.66l.11.03z" class="cls-28"/><path id="path8303" d="m303.94 316.9-9 .98s21.95-.77 37.24 21.2c0 0-3.42-19.4-28.24-22.18" class="cls-28"/><path id="path8305" d="m233.51 323.15 1.41 8.11c-7.93-6.14-27.49-3.29-27.49-3.29l4.71 7.06c-12.09 5.16-16.8 10.59-18.61 14.33l-.21 1.07c18.71-15.64 30.58-14.95 30.58-14.95l-9.93-4.96c24.25-3.22 26.12 19.55 26.12 19.55 7.32-17.9-6.58-26.94-6.58-26.94z" class="cls-23"/><path id="path8307" d="m313.56 334.25 4.42-3.55c-13.5-6.36-20.91-4.41-20.91-4.41l1.86-3.13c-20.38 3.82-16.76 25.9-16.76 25.9 2.88-22.94 23.38-16.68 23.38-16.68l-7.19 3.48c20.51 2.43 33.82 15.64 33.82 15.64-3.48-8.86-18.62-17.24-18.62-17.24z" class="cls-23"/><g id="g8397"><g id="g8313"><path id="path8309" d="M261.97 487.77c-12.81 0-23.23-10.42-23.23-23.23s10.42-23.23 23.23-23.23 23.23 10.42 23.23 23.23-10.42 23.23-23.23 23.23" class="cls-22"/><path id="path8311" d="M261.97 444.29c11.18 0 20.25 9.06 20.25 20.25s-9.06 20.25-20.25 20.25-20.25-9.06-20.25-20.25 9.06-20.25 20.25-20.25m0-5.96c-14.46 0-26.22 11.76-26.22 26.22s11.76 26.22 26.22 26.22 26.22-11.76 26.22-26.22-11.76-26.22-26.22-26.22"/></g><path id="line8315" d="M241.72 464.54h40.5" class="cls-7"/><path id="line8317" d="M261.97 484.79v-40.5" class="cls-7"/><g id="g8335"><path id="rect8319" d="M254.36 457.17h4.2v4.2h-4.2z"/><path id="rect8321" d="M247.92 457.17h4.2v4.2h-4.2z"/><path id="rect8323" d="M241.48 457.17h4.2v4.2h-4.2z"/><path id="rect8325" d="M254.36 451.57h4.2v4.2h-4.2z"/><path id="rect8327" d="M247.92 451.57h4.2v4.2h-4.2z"/><path id="path8329" d="M244.48 451.57h1.2v4.2h-4.2v-1.2c0-1.66 1.34-3 3-3"/><path id="rect8331" d="M254.36 445.97h4.2v4.2h-4.2z"/><path id="rect8333" d="M247.92 445.97h4.2v4.2h-4.2z"/></g><g id="g8353"><path id="rect8337" d="M278.26 457.17h4.2v4.2h-4.2z"/><path id="rect8339" d="M271.82 457.17h4.2v4.2h-4.2z"/><path id="rect8341" d="M265.39 457.17h4.2v4.2h-4.2z"/><path id="path8343" d="M278.26 451.57h1.2c1.66 0 3 1.34 3 3v1.2h-4.2z"/><path id="rect8345" d="M271.82 451.57h4.2v4.2h-4.2z"/><path id="rect8347" d="M265.39 451.57h4.2v4.2h-4.2z"/><path id="rect8349" d="M271.82 445.97h4.2v4.2h-4.2z"/><path id="rect8351" d="M265.39 445.97h4.2v4.2h-4.2z"/></g><g id="g8371"><path id="rect8355" d="M254.36 479.12h4.2v4.2h-4.2z"/><path id="rect8357" d="M247.92 479.12h4.2v4.2h-4.2z"/><path id="rect8359" d="M254.36 473.53h4.2v4.2h-4.2z"/><path id="rect8361" d="M247.92 473.53h4.2v4.2h-4.2z"/><path id="path8363" d="M241.48 473.53h4.2v4.2h-1.2c-1.66 0-3-1.34-3-3z"/><path id="rect8365" d="M254.36 467.93h4.2v4.2h-4.2z"/><path id="rect8367" d="M247.92 467.93h4.2v4.2h-4.2z"/><path id="rect8369" d="M241.48 467.93h4.2v4.2h-4.2z"/></g><g id="g8389"><path id="rect8373" d="M271.82 479.12h4.2v4.2h-4.2z"/><path id="rect8375" d="M265.39 479.12h4.2v4.2h-4.2z"/><path id="path8377" d="M278.26 473.53h4.2v1.2c0 1.66-1.34 3-3 3h-1.2z"/><path id="rect8379" d="M271.82 473.53h4.2v4.2h-4.2z"/><path id="rect8381" d="M265.39 473.53h4.2v4.2h-4.2z"/><path id="rect8383" d="M278.26 467.93h4.2v4.2h-4.2z"/><path id="rect8385" d="M271.82 467.93h4.2v4.2h-4.2z"/><path id="rect8387" d="M265.39 467.93h4.2v4.2h-4.2z"/></g><g id="g8395"><path id="path8391" d="M261.97 472.21c-.3 0-.58-.12-.79-.33l-6.55-6.55a1.11 1.11 0 0 1 0-1.58l6.55-6.55c.22-.22.5-.33.79-.33s.57.11.79.33l6.55 6.55c.44.44.44 1.15 0 1.58l-6.55 6.55c-.21.21-.49.33-.79.33" class="cls-26"/><path id="path8393" d="m261.97 457.99 6.55 6.55-6.55 6.55-6.55-6.55zm0-2.24c-.59 0-1.16.24-1.58.66l-6.55 6.55c-.42.42-.66.99-.66 1.58s.24 1.16.66 1.58l6.55 6.55c.44.44 1.01.66 1.58.66s1.15-.22 1.58-.66l6.55-6.55c.42-.42.66-.99.66-1.58s-.24-1.16-.66-1.58l-6.55-6.55c-.42-.42-.99-.66-1.58-.66"/></g></g><path id="path8399" d="M261.39 435.35c-8.07-3.73-17.03-20.25-17.03-20.25.36 10.08 8.96 18.77 8.96 18.77-7.89-.7-13.63-11.12-13.63-11.12l3.94 10.08c-17.21-14.25-3.63-29.2-3.63-29.2h-4.26l12.55-9.73c4.3 3.48 12.19 4.87 12.19 4.87h1.97s7.89-1.39 12.19-4.87l12.55 9.73h-4.26s13.58 14.95-3.63 29.2l3.94-10.08s-5.74 10.43-13.63 11.12c0 0 8.61-8.69 8.96-18.77 0 0-8.96 16.52-17.03 20.25" style="stroke:#000;stroke-miterlimit:10;fill:none;stroke-width:1.49px"/></g></g></g></svg>