<svg xmlns="http://www.w3.org/2000/svg" id="Layer_1" width="516.74" height="415" version="1.1"><defs id="defs146"><style id="style144">.cls-2{fill:#fff}.cls-4{fill:#72abe1}.cls-6{fill:#231f20}</style></defs><g id="g226" transform="translate(-41.64 -92.5)"><path id="path150" fill="#fff" d="M509.32 148.98h-38.23a31.88 31.88 0 0 0-31.3-26.08h-71.42a113.37 113.37 0 0 0-76.98-30.4c-28.5 0-56.1 10.99-76.98 30.4h-71.42a31.87 31.87 0 0 0-31.3 26.08H73.46a31.85 31.85 0 0 0-31.82 31.82v227.92a31.85 31.85 0 0 0 31.82 31.82h38.23a31.87 31.87 0 0 0 31.3 26.07h61.5a113.14 113.14 0 0 0 86.91 40.89c33.68 0 65.45-15.11 86.91-40.89h61.5a31.87 31.87 0 0 0 31.3-26.07h38.23a31.85 31.85 0 0 0 31.82-31.82V180.8a31.85 31.85 0 0 0-31.82-31.82z" class="cls-2"/><g id="g156"><path id="path152" fill="#fff" d="M73.44 421.23h57.02v13.56c0 6.91 5.6 12.52 12.52 12.52h71.06c16.96 24.64 45.34 40.89 77.34 40.89s60.39-16.25 77.34-40.89h71.06c6.91 0 12.52-5.6 12.52-12.52v-13.56h57.02c6.91 0 12.52-5.6 12.52-12.52V180.79c0-6.91-5.6-12.52-12.52-12.52H452.3v-13.56c0-6.91-5.6-12.52-12.52-12.52h-79.43a93.62 93.62 0 0 0-68.98-30.4 93.62 93.62 0 0 0-68.98 30.4h-79.43c-6.91 0-12.52 5.6-12.52 12.52v13.56H73.42c-6.91 0-12.52 5.6-12.52 12.52v227.92c0 6.91 5.6 12.52 12.52 12.52z" class="cls-2"/><path id="path154" fill="#231f20" d="M291.38 495.92a101.63 101.63 0 0 1-81.3-40.89h-67.1a20.26 20.26 0 0 1-20.24-20.24v-5.84h-49.3a20.26 20.26 0 0 1-20.24-20.24V180.79a20.26 20.26 0 0 1 20.24-20.24h49.3v-5.84a20.26 20.26 0 0 1 20.24-20.24h76.12a101.83 101.83 0 0 1 72.29-30.4c27.06 0 53.21 11.04 72.29 30.4h76.12a20.26 20.26 0 0 1 20.24 20.24v5.84h49.3a20.26 20.26 0 0 1 20.24 20.24v227.92a20.26 20.26 0 0 1-20.24 20.24h-49.3v5.84a20.26 20.26 0 0 1-20.24 20.24h-67.1a101.63 101.63 0 0 1-81.3 40.89zM73.44 176a4.8 4.8 0 0 0-4.79 4.79v227.92a4.8 4.8 0 0 0 4.79 4.79h64.74v21.28a4.8 4.8 0 0 0 4.79 4.79h75.12l2.3 3.34a86.24 86.24 0 0 0 70.98 37.54 86.27 86.27 0 0 0 70.98-37.54l2.3-3.34h75.12a4.8 4.8 0 0 0 4.79-4.79V413.5h64.74a4.8 4.8 0 0 0 4.79-4.79V180.79a4.8 4.8 0 0 0-4.79-4.79h-64.74v-21.28a4.8 4.8 0 0 0-4.79-4.79h-82.81l-2.29-2.49a86.33 86.33 0 0 0-63.3-27.91 86.33 86.33 0 0 0-63.3 27.91l-2.29 2.49h-82.81a4.8 4.8 0 0 0-4.79 4.79V176Z" class="cls-6"/></g><path id="rect158" fill="#fff" d="M60.92 204.43h460.91v40.33H60.92z" class="cls-2"/><path id="rect160" fill="#72abe1" d="M60.92 240.9h460.91v40.33H60.92z" class="cls-4"/><path id="rect162" fill="#fff" d="M60.92 285.1h460.91v40.33H60.92z" class="cls-2"/><path id="rect164" fill="#72abe1" d="M60.92 329.29h460.91v40.33H60.92z" class="cls-4"/><path id="rect166" fill="#fff" d="M60.92 365.76h460.91v40.33H60.92z" class="cls-2"/><g id="g184"><path id="path168" d="M172.72 251.09h-28.77l15.46-46.14h61.36V400.9h-48.04V251.08Z"/><g id="g174"><path id="polygon170" fill="#fff" d="m163.26 237.19 6.14-18.34h37.46v168.16h-20.24V237.19z" class="cls-2"/><path id="path172" d="M213.62 393.77h-33.75V243.95h-25.99l10.67-31.85h49.08v181.67zm-20.24-13.51h6.73V225.61h-25.84l-1.62 4.83h20.73z"/></g><path id="path176" d="M344.65 404.48c-59.21 0-101.78-47.32-101.78-101.78s42.57-101.54 101.78-101.54 101.54 47.32 101.54 101.54c0 54.22-42.57 101.78-101.54 101.78z"/><g id="g182"><path id="path178" fill="#fff" d="M344.65 390.58c-49.28 0-87.88-38.6-87.88-87.88 0-49.28 38.6-87.64 87.88-87.64 49.28 0 87.64 38.5 87.64 87.64s-38.5 87.88-87.64 87.88zm0-155.29c-37.93 0-67.64 29.61-67.64 67.4 0 37.79 29.71 67.64 67.64 67.64s67.4-29.71 67.4-67.64-29.61-67.4-67.4-67.4z" class="cls-2"/><path id="path180" d="M344.65 397.33c-53.07 0-94.64-41.57-94.64-94.64s41.57-94.4 94.64-94.4 94.4 41.47 94.4 94.4c0 52.93-41.47 94.64-94.4 94.64zm0-175.53c-45.49 0-81.13 35.53-81.13 80.89s35.64 81.13 81.13 81.13c45.49 0 80.89-35.64 80.89-81.13 0-45.49-35.53-80.89-80.89-80.89zm0 155.29c-41.72 0-74.4-32.68-74.4-74.4 0-41.72 32.68-74.16 74.4-74.16 41.72 0 74.16 32.58 74.16 74.16s-32.58 74.4-74.16 74.4zm0-135.05c-34.14 0-60.89 26.64-60.89 60.65s26.75 60.89 60.89 60.89 60.65-26.75 60.65-60.89-26.64-60.65-60.65-60.65z"/></g></g><g id="g192"><path id="path186" fill="#72abe1" d="M333.85 183.08h-8.91a33.69 33.69 0 0 0-33.65-33.65 33.7 33.7 0 0 0-33.65 33.65h-8.91a42.6 42.6 0 0 1 42.56-42.56 42.6 42.6 0 0 1 42.56 42.56z" class="cls-4"/><path id="path188" fill="#72abe1" d="M291.24 175.81a38.63 38.63 0 0 1-31.32-16.1l7.24-5.19a29.68 29.68 0 0 0 24.07 12.38 29.5 29.5 0 0 0 24.86-13.54l7.48 4.84a38.38 38.38 0 0 1-32.35 17.61z" class="cls-4"/><path id="rect190" fill="#72abe1" d="M286.83 143.89h8.91v39.19h-8.91z" class="cls-4"/></g><g id="g200"><path id="path194" fill="#72abe1" d="M291.46 459.49a42.6 42.6 0 0 1-42.56-42.56h8.91a33.69 33.69 0 0 0 33.65 33.65 33.7 33.7 0 0 0 33.65-33.65h8.91a42.6 42.6 0 0 1-42.56 42.56z" class="cls-4"/><path id="path196" fill="#72abe1" d="m266.65 446.64-7.48-4.84a38.38 38.38 0 0 1 32.35-17.61 38.6 38.6 0 0 1 31.31 16.1l-7.24 5.19a29.68 29.68 0 0 0-24.07-12.38 29.5 29.5 0 0 0-24.86 13.54z" class="cls-4"/><path id="rect198" fill="#72abe1" d="M287.01 416.92h8.91v39.19h-8.91z" class="cls-4"/></g><g id="g206"><path id="path202" d="m453.56 241.76 4.69-.49c9.2-.96 12.08-4.41 12.73-8.35h-10.43v-35.74h35.92v27.23c0 12.44-3.21 21.63-9.54 27.33-6.16 5.56-14.89 8.51-25.93 8.75l-3.55.08-3.89-18.8z"/><path id="path204" fill="#fff" d="M492.2 201.44v22.97c0 11.23-2.71 19.29-8.13 24.16-5.4 4.87-13.14 7.43-23.18 7.66l-2.22-10.72c11.98-1.25 17.51-6.87 16.6-16.85h-10.48v-27.22h27.4m8.52-8.52h-44.44v44.26h.1l-7.95.83 1.91 9.23 2.22 10.72 1.44 6.95 7.1-.16c12.1-.27 21.75-3.58 28.7-9.85 7.26-6.53 10.94-16.79 10.94-30.48v-31.49z" class="cls-2"/></g><g id="g212"><path id="path208" fill="#d8901d" d="m368.99 305.24 27.4-1.14c.28-.01 1.43.03 1.43-.91 0-.87-1.19-.85-1.47-.86l-29.97-1.13.94-.22c2.13-.58 4.16-1.51 6.25-2.18a13.7 13.7 0 0 1 5.66-.83c3.11.17 6.01-.26 8.78-1.63 1.11-.55 2.2-1.15 3.3-1.73a4.76 4.76 0 0 1 3.92-.32c.23.08.47.15.72.2.28.06.59.08.75-.23.14-.27.09-.56-.07-.81a2.45 2.45 0 0 0-1.15-.91 7.05 7.05 0 0 0-3.54-.54 9.9 9.9 0 0 0-3.36.97c-1.57.76-3.19 1.4-4.93 1.63-1.74.23-3.48.14-5.22.05-2.55-.13-5.02.2-7.45 1.01-1.48.49-2.97 1.04-4.54 1.25l-1.21.17h-.09l.32-.15h-.01l1.98-.92.51-.24 24.88-11.54c.25-.12 1.33-.52.98-1.39-.33-.81-1.43-.33-1.69-.23-3.6 1.33-24.55 9.11-28.12 10.42l.78-.56c1.74-1.35 3.26-2.98 4.94-4.41a13.67 13.67 0 0 1 4.91-2.93 17.13 17.13 0 0 0 7.49-4.87c.82-.93 1.6-1.9 2.39-2.86a4.79 4.79 0 0 1 3.49-1.8c.25-.02.5-.04.74-.09.28-.06.57-.15.6-.5a.8.8 0 0 0-.38-.72c-.43-.29-.91-.4-1.41-.4-1.23 0-2.39.27-3.48.86a10.3 10.3 0 0 0-2.73 2.18 16.12 16.12 0 0 1-3.93 3.39c-1.52.87-3.17 1.46-4.81 2.05-2.41.86-4.56 2.1-6.5 3.78-1.18 1.02-2.34 2.1-3.71 2.89l-1.06.62-.08.05.24-.27 1.48-1.6.38-.41c4.76-5.17 17.14-18.62 18.57-20.19.19-.21 1.03-.99.37-1.65-.62-.62-1.45.24-1.65.43l-21.99 20.39s.41-.65.5-.82c1.1-1.91 1.87-4 2.88-5.96.88-1.71 1.64-3 3.41-4.59a17.3 17.3 0 0 0 5.06-7.36c.4-1.18.75-2.37 1.11-3.56a4.75 4.75 0 0 1 2.54-3c.22-.11.44-.23.65-.36.24-.16.47-.36.36-.7-.09-.29-.33-.46-.62-.52-.5-.11-.99-.02-1.46.17a7 7 0 0 0-2.88 2.13c-.74.92-1.3 1.94-1.69 3.06a15.96 15.96 0 0 1-2.34 4.64c-1.07 1.39-2.37 2.56-3.66 3.73a20.23 20.23 0 0 0-4.56 5.98c-.7 1.39-1.36 2.83-2.33 4.09l-.74.97-.05.07.12-.33.75-2.05.19-.53 9.43-25.75c.1-.26.57-1.31-.29-1.67-.81-.33-1.24.77-1.36 1.03l-12.52 27.26c0-.01.13-.75.15-.95.28-2.19.2-4.42.38-6.61.16-1.92.36-3.4 1.39-5.54a17.22 17.22 0 0 0 1.86-8.74c-.08-1.24-.22-2.48-.34-3.71a4.74 4.74 0 0 1 1.2-3.74c.16-.19.32-.38.46-.58.16-.24.3-.51.07-.78a.78.78 0 0 0-.78-.24 2.5 2.5 0 0 0-1.29.71 6.98 6.98 0 0 0-1.85 3.07 9.94 9.94 0 0 0-.39 3.47c.1 1.74.07 3.48-.38 5.18-.46 1.69-1.21 3.27-1.95 4.85a20.2 20.2 0 0 0-1.92 7.27c-.11 1.55-.17 3.14-.59 4.67l-.31 1.18-.02.09-.02-.36v.01l-.09-2.18-.02-.56c-.29-7.03-1.05-25.28-1.15-27.4-.01-.28.03-1.43-.91-1.43-.87 0-.85 1.19-.86 1.47l-1.13 29.97-.22-.94c-.58-2.13-1.51-4.16-2.18-6.25a13.7 13.7 0 0 1-.83-5.66c.17-3.11-.26-6.01-1.63-8.78-.55-1.11-1.15-2.2-1.73-3.3a4.76 4.76 0 0 1-.32-3.92c.08-.23.15-.47.2-.72.06-.28.08-.59-.23-.75-.27-.14-.56-.09-.81.07-.43.28-.72.69-.91 1.15a7.05 7.05 0 0 0-.54 3.54 9.9 9.9 0 0 0 .97 3.36c.76 1.57 1.4 3.19 1.63 4.93.23 1.74.14 3.48.05 5.22-.13 2.55.2 5.02 1.01 7.45.49 1.48 1.04 2.97 1.25 4.54l.17 1.21v.09l-.15-.32v.01l-.92-1.98-.24-.51-11.54-24.88c-.12-.25-.52-1.33-1.39-.98-.81.33-.33 1.43-.23 1.69 1.33 3.6 9.11 24.55 10.42 28.12l-.56-.78c-1.35-1.74-2.98-3.26-4.41-4.94a13.67 13.67 0 0 1-2.93-4.91 17.13 17.13 0 0 0-4.87-7.49c-.93-.82-1.9-1.6-2.86-2.39a4.79 4.79 0 0 1-1.8-3.49c-.02-.25-.04-.5-.09-.74-.06-.28-.15-.57-.5-.6a.8.8 0 0 0-.72.38c-.29.43-.4.91-.4 1.41 0 1.23.27 2.39.86 3.48a10.3 10.3 0 0 0 2.18 2.73 16.12 16.12 0 0 1 3.39 3.93c.87 1.52 1.46 3.17 2.05 4.81.86 2.41 2.1 4.56 3.78 6.5 1.02 1.18 2.1 2.34 2.89 3.71l.62 1.06.05.08-.27-.24-1.6-1.48-.41-.38c-5.17-4.76-18.62-17.14-20.19-18.57-.21-.19-.99-1.03-1.65-.37-.62.62.24 1.45.43 1.65l20.39 21.99s-.65-.41-.82-.5c-1.91-1.1-4-1.87-5.96-2.88-1.71-.88-3-1.64-4.59-3.41a17.3 17.3 0 0 0-7.36-5.06c-1.18-.4-2.37-.75-3.56-1.11a4.75 4.75 0 0 1-3-2.54 8.24 8.24 0 0 0-.36-.65c-.16-.24-.36-.47-.7-.36-.29.09-.46.33-.52.62-.11.5-.02.99.17 1.46a7 7 0 0 0 2.13 2.88c.92.74 1.94 1.3 3.06 1.69 1.65.57 3.24 1.26 4.64 2.34 1.39 1.07 2.56 2.37 3.73 3.66a20.23 20.23 0 0 0 5.98 4.56c1.39.7 2.83 1.36 4.09 2.33l.97.74.07.05-.33-.12-2.05-.75-.53-.19-25.75-9.43c-.26-.1-1.31-.57-1.67.29-.33.81.77 1.24 1.03 1.36l27.26 12.52c-.01 0-.75-.13-.95-.15-2.19-.28-4.42-.2-6.61-.38-1.92-.16-3.4-.36-5.54-1.39a17.22 17.22 0 0 0-8.74-1.86c-1.24.08-2.48.22-3.71.34a4.74 4.74 0 0 1-3.74-1.2c-.19-.16-.38-.32-.58-.46-.24-.16-.51-.3-.78-.07-.23.2-.3.48-.24.78.09.51.36.92.71 1.29.86.88 1.88 1.5 3.07 1.85 1.14.34 2.29.46 3.47.39 1.74-.1 3.48-.07 5.18.38 1.69.46 3.27 1.21 4.85 1.95a20.2 20.2 0 0 0 7.27 1.92c1.55.11 3.14.17 4.67.59l1.18.31.09.02-.36.02h.01l-2.18.09-.56.02-27.4 1.14c-.28.01-1.43-.03-1.43.91 0 .87 1.19.85 1.47.86l29.97 1.13-.94.22c-2.13.58-4.16 1.51-6.25 2.18a13.7 13.7 0 0 1-5.66.83c-3.11-.17-6.01.26-8.78 1.63-1.11.55-2.2 1.15-3.3 1.73a4.76 4.76 0 0 1-3.92.32 5.44 5.44 0 0 0-.72-.2c-.28-.06-.59-.08-.75.23-.14.27-.09.56.07.81.28.43.69.72 1.15.91 1.13.48 2.32.67 3.54.54a9.9 9.9 0 0 0 3.36-.97c1.57-.76 3.19-1.4 4.93-1.63 1.74-.23 3.48-.14 5.22-.05 2.55.13 5.02-.2 7.45-1.01 1.48-.49 2.97-1.04 4.54-1.25l1.21-.17h.09l-.32.15h.01l-1.98.92-.51.24-24.88 11.54c-.25.12-1.33.52-.98 1.39.33.81 1.43.33 1.69.23 3.6-1.33 24.55-9.11 28.12-10.42l-.78.56c-1.74 1.35-3.26 2.98-4.94 4.41a13.67 13.67 0 0 1-4.91 2.93 17.13 17.13 0 0 0-7.49 4.87c-.82.93-1.6 1.9-2.39 2.86a4.79 4.79 0 0 1-3.49 1.8c-.25.02-.5.04-.74.09-.28.06-.57.15-.6.5a.8.8 0 0 0 .38.72c.43.29.91.4 1.41.4 1.23 0 2.39-.27 3.48-.86a10.3 10.3 0 0 0 2.73-2.18 16.12 16.12 0 0 1 3.93-3.39c1.52-.87 3.17-1.46 4.81-2.05 2.41-.86 4.56-2.1 6.5-3.78 1.18-1.02 2.34-2.1 3.71-2.89l1.06-.62.08-.05-.24.27-1.48 1.6-.38.41c-4.76 5.17-17.14 18.62-18.57 20.19-.19.21-1.03.99-.37 1.65.62.62 1.45-.24 1.65-.43l21.99-20.39s-.41.65-.5.82c-1.1 1.91-1.87 4-2.88 5.96-.88 1.71-1.64 3-3.41 4.59a17.3 17.3 0 0 0-5.06 7.36c-.4 1.18-.75 2.37-1.11 3.56a4.75 4.75 0 0 1-2.54 3c-.22.11-.44.23-.65.36-.24.16-.47.36-.36.7.09.29.33.46.62.52.5.11.99.02 1.46-.17a7 7 0 0 0 2.88-2.13c.74-.92 1.3-1.94 1.69-3.06a15.96 15.96 0 0 1 2.34-4.64c1.07-1.39 2.37-2.56 3.66-3.73a20.23 20.23 0 0 0 4.56-5.98c.7-1.39 1.36-2.83 2.33-4.09l.74-.97.05-.07-.12.33-.75 2.05-.19.53-9.43 25.75c-.1.26-.57 1.31.29 1.67.81.33 1.24-.77 1.36-1.03l12.52-27.26c0 .01-.13.75-.15.95-.28 2.19-.2 4.42-.38 6.61-.16 1.92-.36 3.4-1.39 5.54a17.22 17.22 0 0 0-1.86 8.74c.08 1.24.22 2.48.34 3.71a4.74 4.74 0 0 1-1.2 3.74c-.16.19-.32.38-.46.58-.16.24-.3.51-.07.78.2.23.48.3.78.24a2.5 2.5 0 0 0 1.29-.71 6.98 6.98 0 0 0 1.85-3.07c.34-1.14.46-2.29.39-3.47-.1-1.74-.07-3.48.38-5.18.46-1.69 1.21-3.27 1.95-4.85a20.2 20.2 0 0 0 1.92-7.27c.11-1.55.17-3.14.59-4.67l.31-1.18.02-.09.02.36v-.01l.09 2.18.02.56c.29 7.03 1.05 25.28 1.15 27.4.01.28-.03 1.43.91 1.43.87 0 .85-1.19.86-1.47l1.13-29.97.22.94c.58 2.13 1.51 4.16 2.18 6.25.59 1.83.97 3.28.83 5.66-.17 3.11.26 6.01 1.63 8.78.55 1.11 1.15 2.2 1.73 3.3.67 1.26.78 2.56.32 3.92-.08.23-.15.47-.2.72-.06.28-.08.59.23.75.27.14.56.09.81-.07.43-.28.72-.69.91-1.15.48-1.13.67-2.32.54-3.54a9.9 9.9 0 0 0-.97-3.36 16.25 16.25 0 0 1-1.63-4.93c-.23-1.74-.14-3.48-.05-5.22.13-2.55-.2-5.02-1.01-7.45-.49-1.48-1.04-2.97-1.25-4.54l-.17-1.21v-.09l.15.32v-.01l.92 1.98.24.51 11.54 24.88c.12.25.52 1.33 1.39.98.81-.33.33-1.43.23-1.69-1.33-3.6-9.11-24.55-10.42-28.12l.56.78c1.35 1.74 2.98 3.26 4.41 4.94a13.67 13.67 0 0 1 2.93 4.91 17.13 17.13 0 0 0 4.87 7.49c.93.82 1.9 1.6 2.86 2.39 1.1.91 1.7 2.07 1.8 3.49.02.25.04.5.09.74.06.28.15.57.5.6a.8.8 0 0 0 .72-.38c.29-.43.4-.91.4-1.41 0-1.23-.27-2.39-.86-3.48a10.3 10.3 0 0 0-2.18-2.73 16.12 16.12 0 0 1-3.39-3.93c-.87-1.52-1.46-3.17-2.05-4.81a20.12 20.12 0 0 0-3.78-6.5c-1.02-1.18-2.1-2.34-2.89-3.71l-.62-1.06-.05-.08.27.24 1.6 1.48.41.38c5.17 4.76 18.62 17.14 20.19 18.57.21.19.99 1.03 1.65.37.62-.62-.24-1.45-.43-1.65l-20.39-21.99s.65.41.82.5c1.91 1.1 4 1.87 5.96 2.88 1.71.88 3 1.64 4.59 3.41a17.3 17.3 0 0 0 7.36 5.06c1.18.4 2.37.75 3.56 1.11a4.75 4.75 0 0 1 3 2.54c.11.22.23.44.36.65.16.24.36.47.7.36.29-.09.46-.33.52-.62.11-.5.02-.99-.17-1.46a7 7 0 0 0-2.13-2.88c-.92-.74-1.94-1.3-3.06-1.69a15.96 15.96 0 0 1-4.64-2.34c-1.39-1.07-2.56-2.37-3.73-3.66a20.23 20.23 0 0 0-5.98-4.56c-1.39-.7-2.83-1.36-4.09-2.33l-.97-.74-.07-.05.33.12 2.05.75.53.19 25.75 9.43c.26.1 1.31.57 1.67-.29.33-.81-.77-1.24-1.03-1.36l-27.26-12.52c.01 0 .75.13.95.15 2.19.28 4.42.2 6.61.38 1.92.16 3.4.36 5.54 1.39a17.22 17.22 0 0 0 8.74 1.86c1.24-.08 2.48-.22 3.71-.34a4.74 4.74 0 0 1 3.74 1.2c.19.16.38.32.58.46.24.16.51.3.78.07.23-.2.3-.48.24-.78a2.5 2.5 0 0 0-.71-1.29 6.98 6.98 0 0 0-3.07-1.85 9.94 9.94 0 0 0-3.47-.39c-1.74.1-3.48.07-5.18-.38-1.69-.46-3.27-1.21-4.85-1.95a20.2 20.2 0 0 0-7.27-1.92c-1.55-.11-3.14-.17-4.67-.59l-1.18-.31-.09-.02.36-.02h-.01l2.18-.09z" style="fill:#d8901d"/><circle id="circle210" cx="344.59" cy="303.21" r="20.94" fill="#fbbe49" style="fill:#fbbe49"/></g><path id="path214" fill="#231f20" d="M291.38 495.92a101.63 101.63 0 0 1-81.3-40.89h-67.1a20.26 20.26 0 0 1-20.24-20.24v-5.84h-49.3a20.26 20.26 0 0 1-20.24-20.24V180.79a20.26 20.26 0 0 1 20.24-20.24h49.3v-5.84a20.26 20.26 0 0 1 20.24-20.24h76.12a101.83 101.83 0 0 1 72.29-30.4c27.06 0 53.21 11.04 72.29 30.4h76.12a20.26 20.26 0 0 1 20.24 20.24v5.84h49.3a20.26 20.26 0 0 1 20.24 20.24v227.92a20.26 20.26 0 0 1-20.24 20.24h-49.3v5.84a20.26 20.26 0 0 1-20.24 20.24h-67.1a101.63 101.63 0 0 1-81.3 40.89zM73.44 176a4.8 4.8 0 0 0-4.79 4.79v227.92a4.8 4.8 0 0 0 4.79 4.79h64.74v21.28a4.8 4.8 0 0 0 4.79 4.79h75.12l2.3 3.34a86.24 86.24 0 0 0 70.98 37.54 86.27 86.27 0 0 0 70.98-37.54l2.3-3.34h75.12a4.8 4.8 0 0 0 4.79-4.79V413.5h64.74a4.8 4.8 0 0 0 4.79-4.79V180.79a4.8 4.8 0 0 0-4.79-4.79h-64.74v-21.28a4.8 4.8 0 0 0-4.79-4.79h-82.81l-2.29-2.49a86.33 86.33 0 0 0-63.3-27.91 86.33 86.33 0 0 0-63.3 27.91l-2.29 2.49h-82.81a4.8 4.8 0 0 0-4.79 4.79V176Z" class="cls-6"/><path id="polygon216" fill="#fff" d="m536.1 320.52-39.98 2.42 39.98 18.8z" class="cls-2"/><g id="g222"><path id="path218" d="M437.79 403.6v-35.55h63.44c1.25 0 2.31-1.38 2.31-3.01s-2.54-2.82-4.34-3.11c-1.21-.19-2.75-.31-4.25-.43-5.59-.44-13.25-1.05-21.02-5.72a37.5 37.5 0 0 1-18.35-32.46c0-21.26 16.98-38.55 37.86-38.55h61v35.55h-61c-1.25 0-2.31 1.38-2.31 3.01 0 .87.37 1.54 1.1 1.98.72.38 3.51.6 5.54.76 2.09.17 4.44.35 6.99.76 19.89 3.16 34.33 19.23 34.33 38.22 0 21.26-16.98 38.56-37.86 38.56h-63.44z"/><path id="path220" fill="#fff" d="M550.48 288.71v27.65h-57.05c-3.45 0-6.26 3.12-6.26 6.96 0 2.26 1.1 4.21 3.01 5.36 1.41.84 4.12 1.06 7.27 1.31 2.01.16 4.28.34 6.69.72 17.96 2.85 30.99 17.28 30.99 34.32 0 19.08-15.21 34.61-33.91 34.61h-59.49v-27.65h59.49c3.45 0 6.26-3.12 6.26-6.96s-3.98-6.43-7.67-7.01c-1.34-.21-2.9-.34-4.55-.47-5.49-.44-12.33-.98-19.3-5.17a33.62 33.62 0 0 1-16.44-29.07c0-19.08 15.21-34.61 33.91-34.61h57.05m7.9-7.9h-64.95c-23.05 0-41.81 19.07-41.81 42.51a41.45 41.45 0 0 0 32.82 40.78h-50.61v43.45h67.39c23.05 0 41.81-19.07 41.81-42.51 0-18.97-12.99-35.29-31.65-40.77h47v-43.45z" class="cls-2"/></g><path id="path224" fill="#fff" d="M501.22 387.79h-59.49v-3.95h59.49c9.98 0 18.11-8.44 18.11-18.81 0-9.37-7.27-17.07-17.67-18.71-1.8-.28-3.66-.43-5.46-.58-4.7-.37-9.56-.76-14.14-3.51a21.87 21.87 0 0 1-10.69-18.91c0-12.55 9.9-22.76 22.06-22.76h57.06v3.95h-57.06c-9.98 0-18.11 8.44-18.11 18.81 0 6.43 3.28 12.23 8.77 15.52 3.79 2.27 7.99 2.61 12.42 2.96 1.88.15 3.82.3 5.77.61 12.36 1.96 21 11.26 21 22.62 0 12.55-9.9 22.76-22.06 22.76z" class="cls-2"/></g></svg>