<svg xmlns="http://www.w3.org/2000/svg" id="Layer_1" width="516.74" height="415" version="1.1"><defs id="defs146"><style id="style144">.cls-2{fill:#fff}.cls-4{fill:#72abe1}.cls-6{fill:#231f20}</style></defs><g id="g226" transform="translate(-41.64 -92.5)"><path id="path150" d="M509.32 148.98h-38.23c-2.71-14.81-15.72-26.08-31.3-26.08h-71.42c-20.88-19.42-48.48-30.4-76.98-30.4-28.5 0-56.1 10.99-76.98 30.4h-71.42c-15.58 0-28.59 11.26-31.3 26.08H73.46c-17.55 0-31.82 14.27-31.82 31.82v227.92c0 17.55 14.27 31.82 31.82 31.82h38.23c2.71 14.81 15.72 26.07 31.3 26.07h61.5c21.46 25.78 53.23 40.89 86.91 40.89s65.45-15.11 86.91-40.89h61.5c15.58 0 28.59-11.26 31.3-26.07h38.23c17.55 0 31.82-14.27 31.82-31.82V180.8c0-17.55-14.27-31.82-31.82-31.82z" class="cls-2" style="fill:#fff"/><g id="g156"><path id="path152" d="M73.44 421.23h57.02v13.56c0 6.91 5.6 12.52 12.52 12.52h71.06c16.96 24.64 45.34 40.89 77.34 40.89s60.39-16.25 77.34-40.89h71.06c6.91 0 12.52-5.6 12.52-12.52v-13.56h57.02c6.91 0 12.52-5.6 12.52-12.52V180.79c0-6.91-5.6-12.52-12.52-12.52H452.3v-13.56c0-6.91-5.6-12.52-12.52-12.52h-79.43c-17.18-18.66-41.77-30.4-68.98-30.4s-51.8 11.74-68.98 30.4h-79.43c-6.91 0-12.52 5.6-12.52 12.52v13.56H73.42c-6.91 0-12.52 5.6-12.52 12.52v227.92c0 6.91 5.6 12.52 12.52 12.52z" class="cls-2" style="fill:#fff"/><path id="path154" d="M291.38 495.92c-31.99 0-62.08-15.21-81.3-40.89h-67.1c-11.16 0-20.24-9.08-20.24-20.24v-5.84h-49.3c-11.16 0-20.24-9.08-20.24-20.24V180.79c0-11.16 9.08-20.24 20.24-20.24h49.3v-5.84c0-11.16 9.08-20.24 20.24-20.24h76.12c19.08-19.36 45.23-30.4 72.29-30.4 27.06 0 53.21 11.04 72.29 30.4h76.12c11.16 0 20.24 9.08 20.24 20.24v5.84h49.3c11.16 0 20.24 9.08 20.24 20.24v227.92c0 11.16-9.08 20.24-20.24 20.24h-49.3v5.84c0 11.16-9.08 20.24-20.24 20.24h-67.1c-19.22 25.68-49.31 40.89-81.3 40.89zM73.44 176c-2.64 0-4.79 2.15-4.79 4.79v227.92c0 2.64 2.15 4.79 4.79 4.79h64.74v21.28c0 2.64 2.15 4.79 4.79 4.79h75.12l2.3 3.34c16.17 23.51 42.71 37.54 70.98 37.54 28.27 0 54.81-14.04 70.98-37.54l2.3-3.34h75.12c2.64 0 4.79-2.15 4.79-4.79V413.5h64.74c2.64 0 4.79-2.15 4.79-4.79V180.79c0-2.64-2.15-4.79-4.79-4.79h-64.74v-21.28c0-2.64-2.15-4.79-4.79-4.79h-82.81l-2.29-2.49c-16.33-17.74-39.4-27.91-63.3-27.91s-46.97 10.17-63.3 27.91l-2.29 2.49h-82.81c-2.64 0-4.79 2.15-4.79 4.79V176Z" class="cls-6" style="fill:#231f20"/></g><path id="rect158" d="M60.92 204.43h460.91v40.33H60.92z" class="cls-2" style="fill:#fff"/><path id="rect160" d="M60.92 240.9h460.91v40.33H60.92z" class="cls-4" style="fill:#72abe1"/><path id="rect162" d="M60.92 285.1h460.91v40.33H60.92z" class="cls-2" style="fill:#fff"/><path id="rect164" d="M60.92 329.29h460.91v40.33H60.92z" class="cls-4" style="fill:#72abe1"/><path id="rect166" d="M60.92 365.76h460.91v40.33H60.92z" class="cls-2" style="fill:#fff"/><g id="g184"><path id="path168" d="M172.72 251.09h-28.77l15.46-46.14h61.36V400.9h-48.04V251.08Z"/><g id="g174"><path id="polygon170" d="m163.26 237.19 6.14-18.34h37.46v168.16h-20.24V237.19z" class="cls-2" style="fill:#fff"/><path id="path172" d="M213.62 393.77h-33.75V243.95h-25.99l10.67-31.85h49.08v181.67zm-20.24-13.51h6.73V225.61h-25.84l-1.62 4.83h20.73z"/></g><path id="path176" d="M344.65 404.48c-59.21 0-101.78-47.32-101.78-101.78s42.57-101.54 101.78-101.54 101.54 47.32 101.54 101.54c0 54.22-42.57 101.78-101.54 101.78z"/><g id="g182"><path id="path178" d="M344.65 390.58c-49.28 0-87.88-38.6-87.88-87.88 0-49.28 38.6-87.64 87.88-87.64 49.28 0 87.64 38.5 87.64 87.64s-38.5 87.88-87.64 87.88zm0-155.29c-37.93 0-67.64 29.61-67.64 67.4 0 37.79 29.71 67.64 67.64 67.64s67.4-29.71 67.4-67.64-29.61-67.4-67.4-67.4z" class="cls-2" style="fill:#fff"/><path id="path180" d="M344.65 397.33c-53.07 0-94.64-41.57-94.64-94.64s41.57-94.4 94.64-94.4 94.4 41.47 94.4 94.4c0 52.93-41.47 94.64-94.4 94.64zm0-175.53c-45.49 0-81.13 35.53-81.13 80.89s35.64 81.13 81.13 81.13c45.49 0 80.89-35.64 80.89-81.13 0-45.49-35.53-80.89-80.89-80.89zm0 155.29c-41.72 0-74.4-32.68-74.4-74.4 0-41.72 32.68-74.16 74.4-74.16 41.72 0 74.16 32.58 74.16 74.16s-32.58 74.4-74.16 74.4zm0-135.05c-34.14 0-60.89 26.64-60.89 60.65s26.75 60.89 60.89 60.89 60.65-26.75 60.65-60.89-26.64-60.65-60.65-60.65z"/></g></g><g id="g192"><path id="path186" d="M333.85 183.08h-8.91c0-18.56-15.1-33.65-33.65-33.65-18.55 0-33.65 15.1-33.65 33.65h-8.91c0-23.47 19.09-42.56 42.56-42.56 23.47 0 42.56 19.09 42.56 42.56z" class="cls-4" style="fill:#72abe1"/><path id="path188" d="M291.24 175.81c-12.39 0-24.09-6.02-31.32-16.1l7.24-5.19c5.55 7.75 14.55 12.38 24.07 12.38 10.08 0 19.38-5.06 24.86-13.54l7.48 4.84c-7.13 11.03-19.23 17.61-32.35 17.61z" class="cls-4" style="fill:#72abe1"/><path id="rect190" d="M286.83 143.89h8.91v39.19h-8.91z" class="cls-4" style="fill:#72abe1"/></g><g id="g200"><path id="path194" d="M291.46 459.49c-23.47 0-42.56-19.09-42.56-42.56h8.91c0 18.56 15.1 33.65 33.65 33.65 18.55 0 33.65-15.1 33.65-33.65h8.91c0 23.47-19.09 42.56-42.56 42.56z" class="cls-4" style="fill:#72abe1"/><path id="path196" d="m266.65 446.64-7.48-4.84c7.13-11.03 19.23-17.61 32.35-17.61 12.39 0 24.09 6.02 31.31 16.1l-7.24 5.19c-5.55-7.75-14.55-12.38-24.07-12.38-10.08 0-19.38 5.06-24.86 13.54z" class="cls-4" style="fill:#72abe1"/><path id="rect198" d="M287.01 416.92h8.91v39.19h-8.91z" class="cls-4" style="fill:#72abe1"/></g><g id="g206"><path id="path202" d="m453.56 241.76 4.69-.49c9.2-.96 12.08-4.41 12.73-8.35h-10.43v-35.74h35.92v27.23c0 12.44-3.21 21.63-9.54 27.33-6.16 5.56-14.89 8.51-25.93 8.75l-3.55.08-3.89-18.8z"/><path id="path204" d="M492.2 201.44v22.97c0 11.23-2.71 19.29-8.13 24.16-5.4 4.87-13.14 7.43-23.18 7.66l-2.22-10.72c11.98-1.25 17.51-6.87 16.6-16.85h-10.48v-27.22h27.4m8.52-8.52h-44.44v44.26h.1l-7.95.83 1.91 9.23 2.22 10.72 1.44 6.95 7.1-.16c12.1-.27 21.75-3.58 28.7-9.85 7.26-6.53 10.94-16.79 10.94-30.48v-31.49z" class="cls-2" style="fill:#fff"/></g><g id="g212"><path id="path208" d="M368.99 305.24c7.03-.29 25.28-1.05 27.4-1.14.28-.01 1.43.03 1.43-.91 0-.87-1.19-.85-1.47-.86-3.84-.15-26.17-.98-29.97-1.13.01 0 .75-.17.94-.22 2.13-.58 4.16-1.51 6.25-2.18 1.83-.59 3.28-.97 5.66-.83 3.11.17 6.01-.26 8.78-1.63 1.11-.55 2.2-1.15 3.3-1.73 1.26-.67 2.56-.78 3.92-.32.23.08.47.15.72.2.28.06.59.08.75-.23.14-.27.09-.56-.07-.81-.28-.43-.69-.72-1.15-.91a7.048 7.048 0 0 0-3.54-.54c-1.18.12-2.29.45-3.36.97-1.57.76-3.19 1.4-4.93 1.63-1.74.23-3.48.14-5.22.05-2.55-.13-5.02.2-7.45 1.01-1.48.49-2.97 1.04-4.54 1.25-.37.05-.7.09-1.21.17h-.09l.32-.15h-.01s.74-.34 1.98-.92l.51-.24c6.38-2.96 22.96-10.64 24.88-11.54.25-.12 1.33-.52.98-1.39-.33-.81-1.43-.33-1.69-.23-3.6 1.33-24.55 9.11-28.12 10.42.01 0 .62-.44.78-.56 1.74-1.35 3.26-2.98 4.94-4.41 1.47-1.25 2.66-2.15 4.91-2.93 2.94-1.03 5.45-2.54 7.49-4.87.82-.93 1.6-1.9 2.39-2.86.91-1.1 2.07-1.7 3.49-1.8.25-.02.5-.04.74-.09.28-.06.57-.15.6-.5.02-.3-.13-.55-.38-.72-.43-.29-.91-.4-1.41-.4-1.23 0-2.39.27-3.48.86-1.04.57-1.94 1.3-2.73 2.18-1.16 1.31-2.41 2.51-3.93 3.39-1.52.87-3.17 1.46-4.81 2.05-2.41.86-4.56 2.1-6.5 3.78-1.18 1.02-2.34 2.1-3.71 2.89-.32.19-.61.35-1.06.62l-.08.05.24-.27s.55-.6 1.48-1.6l.38-.41c4.76-5.17 17.14-18.62 18.57-20.19.19-.21 1.03-.99.37-1.65-.62-.62-1.45.24-1.65.43-2.82 2.61-19.2 17.81-21.99 20.39 0 0 .41-.65.5-.82 1.1-1.91 1.87-4 2.88-5.96.88-1.71 1.64-3 3.41-4.59 2.32-2.08 4.06-4.44 5.06-7.36.4-1.18.75-2.37 1.11-3.56.42-1.37 1.26-2.37 2.54-3 .22-.11.44-.23.65-.36.24-.16.47-.36.36-.7-.09-.29-.33-.46-.62-.52-.5-.11-.99-.02-1.46.17a6.993 6.993 0 0 0-2.88 2.13c-.74.92-1.3 1.94-1.69 3.06-.57 1.65-1.26 3.24-2.34 4.64-1.07 1.39-2.37 2.56-3.66 3.73a20.228 20.228 0 0 0-4.56 5.98c-.7 1.39-1.36 2.83-2.33 4.09-.23.3-.43.56-.74.97l-.05.07.12-.33s.28-.77.75-2.05l.19-.53c2.42-6.6 8.71-23.76 9.43-25.75.1-.26.57-1.31-.29-1.67-.81-.33-1.24.77-1.36 1.03-1.61 3.49-10.92 23.8-12.52 27.26 0-.01.13-.75.15-.95.28-2.19.2-4.42.38-6.61.16-1.92.36-3.4 1.39-5.54 1.35-2.81 2.06-5.66 1.86-8.74-.08-1.24-.22-2.48-.34-3.71-.14-1.42.26-2.67 1.2-3.74.16-.19.32-.38.46-.58.16-.24.3-.51.07-.78-.2-.23-.48-.3-.78-.24-.51.09-.92.36-1.29.71-.88.86-1.5 1.88-1.85 3.07a9.944 9.944 0 0 0-.39 3.47c.1 1.74.07 3.48-.38 5.18-.46 1.69-1.21 3.27-1.95 4.85-1.09 2.31-1.74 4.72-1.92 7.27-.11 1.55-.17 3.14-.59 4.67-.1.36-.18.68-.31 1.18l-.02.09-.02-.36v.01s-.03-.82-.09-2.18l-.02-.56c-.29-7.03-1.05-25.28-1.15-27.4-.01-.28.03-1.43-.91-1.43-.87 0-.85 1.19-.86 1.47-.15 3.84-.98 26.17-1.13 29.97 0-.01-.17-.75-.22-.94-.58-2.13-1.51-4.16-2.18-6.25-.59-1.83-.97-3.28-.83-5.66.17-3.11-.26-6.01-1.63-8.78-.55-1.11-1.15-2.2-1.73-3.3-.67-1.26-.78-2.56-.32-3.92.08-.23.15-.47.2-.72.06-.28.08-.59-.23-.75-.27-.14-.56-.09-.81.07-.43.28-.72.69-.91 1.15a7.048 7.048 0 0 0-.54 3.54c.12 1.18.45 2.29.97 3.36.76 1.57 1.4 3.19 1.63 4.93.23 1.74.14 3.48.05 5.22-.13 2.55.2 5.02 1.01 7.45.49 1.48 1.04 2.97 1.25 4.54.05.37.09.7.17 1.21v.09l-.15-.32v.01s-.34-.74-.92-1.98l-.24-.51-11.54-24.88c-.12-.25-.52-1.33-1.39-.98-.81.33-.33 1.43-.23 1.69 1.33 3.6 9.11 24.55 10.42 28.12 0-.01-.44-.62-.56-.78-1.35-1.74-2.98-3.26-4.41-4.94-1.25-1.47-2.15-2.66-2.93-4.91-1.03-2.94-2.54-5.45-4.87-7.49-.93-.82-1.9-1.6-2.86-2.39-1.1-.91-1.7-2.07-1.8-3.49-.02-.25-.04-.5-.09-.74-.06-.28-.15-.57-.5-.6-.3-.02-.55.13-.72.38-.29.43-.4.91-.4 1.41 0 1.23.27 2.39.86 3.48.57 1.04 1.3 1.94 2.18 2.73 1.31 1.16 2.51 2.41 3.39 3.93.87 1.52 1.46 3.17 2.05 4.81.86 2.41 2.1 4.56 3.78 6.5 1.02 1.18 2.1 2.34 2.89 3.71.19.32.35.61.62 1.06l.05.08-.27-.24s-.6-.55-1.6-1.48l-.41-.38c-5.17-4.76-18.62-17.14-20.19-18.57-.21-.19-.99-1.03-1.65-.37-.62.62.24 1.45.43 1.65 2.61 2.82 17.81 19.2 20.39 21.99 0 0-.65-.41-.82-.5-1.91-1.1-4-1.87-5.96-2.88-1.71-.88-3-1.64-4.59-3.41-2.08-2.32-4.44-4.06-7.36-5.06-1.18-.4-2.37-.75-3.56-1.11-1.37-.42-2.37-1.26-3-2.54-.11-.22-.23-.44-.36-.65-.16-.24-.36-.47-.7-.36-.29.09-.46.33-.52.62-.11.5-.02.99.17 1.46a6.993 6.993 0 0 0 2.13 2.88c.92.74 1.94 1.3 3.06 1.69 1.65.57 3.24 1.26 4.64 2.34 1.39 1.07 2.56 2.37 3.73 3.66 1.71 1.89 3.69 3.41 5.98 4.56 1.39.7 2.83 1.36 4.09 2.33.3.23.56.43.97.74l.07.05-.33-.12s-.77-.28-2.05-.75l-.53-.19c-6.6-2.42-23.76-8.71-25.75-9.43-.26-.1-1.31-.57-1.67.29-.33.81.77 1.24 1.03 1.36 3.49 1.61 23.8 10.92 27.26 12.52-.01 0-.75-.13-.95-.15-2.19-.28-4.42-.2-6.61-.38-1.92-.16-3.4-.36-5.54-1.39-2.81-1.35-5.66-2.06-8.74-1.86-1.24.08-2.48.22-3.71.34-1.42.14-2.67-.26-3.74-1.2-.19-.16-.38-.32-.58-.46-.24-.16-.51-.3-.78-.07-.23.2-.3.48-.24.78.09.51.36.92.71 1.29.86.88 1.88 1.5 3.07 1.85 1.14.34 2.29.46 3.47.39 1.74-.1 3.48-.07 5.18.38 1.69.46 3.27 1.21 4.85 1.95 2.31 1.09 4.72 1.74 7.27 1.92 1.55.11 3.14.17 4.67.59.36.1.68.18 1.18.31l.09.02-.36.02h.01s-.82.03-2.18.09l-.56.02c-7.03.29-25.28 1.05-27.4 1.14-.28.01-1.43-.03-1.43.91 0 .87 1.19.85 1.47.86 3.84.15 26.17.98 29.97 1.13-.01 0-.75.17-.94.22-2.13.58-4.16 1.51-6.25 2.18-1.83.59-3.28.97-5.66.83-3.11-.17-6.01.26-8.78 1.63-1.11.55-2.2 1.15-3.3 1.73-1.26.67-2.56.78-3.92.32-.23-.08-.47-.15-.72-.2-.28-.06-.59-.08-.75.23-.14.27-.09.56.07.81.28.43.69.72 1.15.91 1.13.48 2.32.67 3.54.54 1.18-.12 2.29-.45 3.36-.97 1.57-.76 3.19-1.4 4.93-1.63 1.74-.23 3.48-.14 5.22-.05 2.55.13 5.02-.2 7.45-1.01 1.48-.49 2.97-1.04 4.54-1.25.37-.05.7-.09 1.21-.17h.09l-.32.15h.01s-.74.34-1.98.92l-.51.24c-6.38 2.96-22.96 10.64-24.88 11.54-.25.12-1.33.52-.98 1.39.33.81 1.43.33 1.69.23 3.6-1.33 24.55-9.11 28.12-10.42-.01 0-.62.44-.78.56-1.74 1.35-3.26 2.98-4.94 4.41-1.47 1.25-2.66 2.15-4.91 2.93-2.94 1.03-5.45 2.54-7.49 4.87-.82.93-1.6 1.9-2.39 2.86-.91 1.1-2.07 1.7-3.49 1.8-.25.02-.5.04-.74.09-.28.06-.57.15-.6.5-.02.3.13.55.38.72.43.29.91.4 1.41.4 1.23 0 2.39-.27 3.48-.86 1.04-.57 1.94-1.3 2.73-2.18 1.16-1.31 2.41-2.51 3.93-3.39 1.52-.87 3.17-1.46 4.81-2.05 2.41-.86 4.56-2.1 6.5-3.78 1.18-1.02 2.34-2.1 3.71-2.89.32-.19.61-.35 1.06-.62l.08-.05-.24.27s-.55.6-1.48 1.6l-.38.41c-4.76 5.17-17.14 18.62-18.57 20.19-.19.21-1.03.99-.37 1.65.62.62 1.45-.24 1.65-.43 2.82-2.61 19.2-17.81 21.99-20.39 0 0-.41.65-.5.82-1.1 1.91-1.87 4-2.88 5.96-.88 1.71-1.64 3-3.41 4.59-2.32 2.08-4.06 4.44-5.06 7.36-.4 1.18-.75 2.37-1.11 3.56-.42 1.37-1.26 2.37-2.54 3-.22.11-.44.23-.65.36-.24.16-.47.36-.36.7.09.29.33.46.62.52.5.11.99.02 1.46-.17a6.993 6.993 0 0 0 2.88-2.13c.74-.92 1.3-1.94 1.69-3.06.57-1.65 1.26-3.24 2.34-4.64 1.07-1.39 2.37-2.56 3.66-3.73 1.89-1.71 3.41-3.69 4.56-5.98.7-1.39 1.36-2.83 2.33-4.09.23-.3.43-.56.74-.97l.05-.07-.12.33s-.28.77-.75 2.05l-.19.53c-2.42 6.6-8.71 23.76-9.43 25.75-.1.26-.57 1.31.29 1.67.81.33 1.24-.77 1.36-1.03 1.61-3.49 10.92-23.8 12.52-27.26 0 .01-.13.75-.15.95-.28 2.19-.2 4.42-.38 6.61-.16 1.92-.36 3.4-1.39 5.54-1.35 2.81-2.06 5.66-1.86 8.74.08 1.24.22 2.48.34 3.71.14 1.42-.26 2.67-1.2 3.74-.16.19-.32.38-.46.58-.16.24-.3.51-.07.78.2.23.48.3.78.24.51-.09.92-.36 1.29-.71.88-.86 1.5-1.88 1.85-3.07.34-1.14.46-2.29.39-3.47-.1-1.74-.07-3.48.38-5.18.46-1.69 1.21-3.27 1.95-4.85 1.09-2.31 1.74-4.72 1.92-7.27.11-1.55.17-3.14.59-4.67.1-.36.18-.68.31-1.18l.02-.09.02.36v-.01s.03.82.09 2.18l.02.56c.29 7.03 1.05 25.28 1.15 27.4.01.28-.03 1.43.91 1.43.87 0 .85-1.19.86-1.47.15-3.84.98-26.17 1.13-29.97 0 .01.17.75.22.94.58 2.13 1.51 4.16 2.18 6.25.59 1.83.97 3.28.83 5.66-.17 3.11.26 6.01 1.63 8.78.55 1.11 1.15 2.2 1.73 3.3.67 1.26.78 2.56.32 3.92-.08.23-.15.47-.2.72-.06.28-.08.59.23.75.27.14.56.09.81-.07.43-.28.72-.69.91-1.15.48-1.13.67-2.32.54-3.54a9.906 9.906 0 0 0-.97-3.36c-.76-1.57-1.4-3.19-1.63-4.93-.23-1.74-.14-3.48-.05-5.22.13-2.55-.2-5.02-1.01-7.45-.49-1.48-1.04-2.97-1.25-4.54-.05-.37-.09-.7-.17-1.21v-.09l.15.32v-.01s.34.74.92 1.98l.24.51 11.54 24.88c.12.25.52 1.33 1.39.98.81-.33.33-1.43.23-1.69-1.33-3.6-9.11-24.55-10.42-28.12 0 .01.44.62.56.78 1.35 1.74 2.98 3.26 4.41 4.94 1.25 1.47 2.15 2.66 2.93 4.91 1.03 2.94 2.54 5.45 4.87 7.49.93.82 1.9 1.6 2.86 2.39 1.1.91 1.7 2.07 1.8 3.49.02.25.04.5.09.74.06.28.15.57.5.6.3.02.55-.13.72-.38.29-.43.4-.91.4-1.41 0-1.23-.27-2.39-.86-3.48a10.29 10.29 0 0 0-2.18-2.73c-1.31-1.16-2.51-2.41-3.39-3.93-.87-1.52-1.46-3.17-2.05-4.81-.86-2.41-2.1-4.56-3.78-6.5-1.02-1.18-2.1-2.34-2.89-3.71-.19-.32-.35-.61-.62-1.06l-.05-.08.27.24s.6.55 1.6 1.48l.41.38c5.17 4.76 18.62 17.14 20.19 18.57.21.19.99 1.03 1.65.37.62-.62-.24-1.45-.43-1.65-2.61-2.82-17.81-19.2-20.39-21.99 0 0 .65.41.82.5 1.91 1.1 4 1.87 5.96 2.88 1.71.88 3 1.64 4.59 3.41 2.08 2.32 4.44 4.06 7.36 5.06 1.18.4 2.37.75 3.56 1.11 1.37.42 2.37 1.26 3 2.54.11.22.23.44.36.65.16.24.36.47.7.36.29-.09.46-.33.52-.62.11-.5.02-.99-.17-1.46a6.993 6.993 0 0 0-2.13-2.88c-.92-.74-1.94-1.3-3.06-1.69-1.65-.57-3.24-1.26-4.64-2.34-1.39-1.07-2.56-2.37-3.73-3.66a20.228 20.228 0 0 0-5.98-4.56c-1.39-.7-2.83-1.36-4.09-2.33-.3-.23-.56-.43-.97-.74l-.07-.05.33.12s.77.28 2.05.75l.53.19c6.6 2.42 23.76 8.71 25.75 9.43.26.1 1.31.57 1.67-.29.33-.81-.77-1.24-1.03-1.36-3.49-1.61-23.8-10.92-27.26-12.52.01 0 .75.13.95.15 2.19.28 4.42.2 6.61.38 1.92.16 3.4.36 5.54 1.39 2.81 1.35 5.66 2.06 8.74 1.86 1.24-.08 2.48-.22 3.71-.34 1.42-.14 2.67.26 3.74 1.2.19.16.38.32.58.46.24.16.51.3.78.07.23-.2.3-.48.24-.78-.09-.51-.36-.92-.71-1.29-.86-.88-1.88-1.5-3.07-1.85a9.944 9.944 0 0 0-3.47-.39c-1.74.1-3.48.07-5.18-.38-1.69-.46-3.27-1.21-4.85-1.95-2.31-1.09-4.72-1.74-7.27-1.92-1.55-.11-3.14-.17-4.67-.59-.36-.1-.68-.18-1.18-.31l-.09-.02.36-.02h-.01s.82-.03 2.18-.09z" style="fill:#d8901d"/><circle id="circle210" cx="344.59" cy="303.21" r="20.94" style="fill:#fbbe49"/></g><path id="path214" d="M291.38 495.92c-31.99 0-62.08-15.21-81.3-40.89h-67.1c-11.16 0-20.24-9.08-20.24-20.24v-5.84h-49.3c-11.16 0-20.24-9.08-20.24-20.24V180.79c0-11.16 9.08-20.24 20.24-20.24h49.3v-5.84c0-11.16 9.08-20.24 20.24-20.24h76.12c19.08-19.36 45.23-30.4 72.29-30.4 27.06 0 53.21 11.04 72.29 30.4h76.12c11.16 0 20.24 9.08 20.24 20.24v5.84h49.3c11.16 0 20.24 9.08 20.24 20.24v227.92c0 11.16-9.08 20.24-20.24 20.24h-49.3v5.84c0 11.16-9.08 20.24-20.24 20.24h-67.1c-19.22 25.68-49.31 40.89-81.3 40.89zM73.44 176c-2.64 0-4.79 2.15-4.79 4.79v227.92c0 2.64 2.15 4.79 4.79 4.79h64.74v21.28c0 2.64 2.15 4.79 4.79 4.79h75.12l2.3 3.34c16.17 23.51 42.71 37.54 70.98 37.54 28.27 0 54.81-14.04 70.98-37.54l2.3-3.34h75.12c2.64 0 4.79-2.15 4.79-4.79V413.5h64.74c2.64 0 4.79-2.15 4.79-4.79V180.79c0-2.64-2.15-4.79-4.79-4.79h-64.74v-21.28c0-2.64-2.15-4.79-4.79-4.79h-82.81l-2.29-2.49c-16.33-17.74-39.4-27.91-63.3-27.91s-46.97 10.17-63.3 27.91l-2.29 2.49h-82.81c-2.64 0-4.79 2.15-4.79 4.79V176Z" class="cls-6" style="fill:#231f20"/><path id="polygon216" d="m536.1 320.52-39.98 2.42 39.98 18.8z" class="cls-2" style="fill:#fff"/><g id="g222"><path id="path218" d="M437.79 403.6v-35.55h63.44c1.25 0 2.31-1.38 2.31-3.01s-2.54-2.82-4.34-3.11c-1.21-.19-2.75-.31-4.25-.43-5.59-.44-13.25-1.05-21.02-5.72-11.5-6.9-18.36-19.03-18.35-32.46 0-21.26 16.98-38.55 37.86-38.55h61v35.55h-61c-1.25 0-2.31 1.38-2.31 3.01 0 .87.37 1.54 1.1 1.98.72.38 3.51.6 5.54.76 2.09.17 4.44.35 6.99.76 19.89 3.16 34.33 19.23 34.33 38.22 0 21.26-16.98 38.56-37.86 38.56h-63.44z"/><path id="path220" d="M550.48 288.71v27.65h-57.05c-3.45 0-6.26 3.12-6.26 6.96 0 2.26 1.1 4.21 3.01 5.36 1.41.84 4.12 1.06 7.27 1.31 2.01.16 4.28.34 6.69.72 17.96 2.85 30.99 17.28 30.99 34.32 0 19.08-15.21 34.61-33.91 34.61h-59.49v-27.65h59.49c3.45 0 6.26-3.12 6.26-6.96s-3.98-6.43-7.67-7.01c-1.34-.21-2.9-.34-4.55-.47-5.49-.44-12.33-.98-19.3-5.17-10.3-6.18-16.44-17.05-16.44-29.07 0-19.08 15.21-34.61 33.91-34.61h57.05m7.9-7.9h-64.95c-23.05 0-41.81 19.07-41.81 42.51 0 14.83 7.57 28.23 20.27 35.85 4.36 2.62 8.62 4.07 12.55 4.93h-50.61v43.45h67.39c23.05 0 41.81-19.07 41.81-42.51 0-18.97-12.99-35.29-31.65-40.77h47v-43.45z" class="cls-2" style="fill:#fff"/></g><path id="path224" d="M501.22 387.79h-59.49v-3.95h59.49c9.98 0 18.11-8.44 18.11-18.81 0-9.37-7.27-17.07-17.67-18.71-1.8-.28-3.66-.43-5.46-.58-4.7-.37-9.56-.76-14.14-3.51-6.69-4.02-10.69-11.08-10.69-18.91 0-12.55 9.9-22.76 22.06-22.76h57.06v3.95h-57.06c-9.98 0-18.11 8.44-18.11 18.81 0 6.43 3.28 12.23 8.77 15.52 3.79 2.27 7.99 2.61 12.42 2.96 1.88.15 3.82.3 5.77.61 12.36 1.96 21 11.26 21 22.62 0 12.55-9.9 22.76-22.06 22.76z" class="cls-2" style="fill:#fff"/></g></svg>