<svg xmlns="http://www.w3.org/2000/svg" id="Layer_1" data-name="Layer 1" version="1.1" width="234.904" height="323.287"><defs id="defs4"><style id="style2">.cls-22,.cls-23{stroke-linecap:round;stroke-linejoin:round;fill:none;stroke-width:11.85px;stroke:#08295e}.cls-23{fill:#c93627}</style></defs><path d="M228.118 136.407c13.84-35.76-6.86-63.54-6.86-63.54-.89-4.41-2.28-8.73-2.9-13.19a39.64 39.64 0 0 1 9.76-31.57c-8.21-1.73-17.37 2.61-20.95 9.93-2 4.1-2.36 8.83-4.53 12.86-2.17 4.03-7.43 7.25-11.51 5a9.61 9.61 0 0 1-3.62-4.34c-3-6.21-3.48-13.25-4-20.08-.52-6.83-1.26-13.91-4.76-19.88-3.5-5.97-10.54-10.63-17.54-9.33 11.13 11.94 12.19 31.46 2.41 44.45-1.76 2.35-6.9 4.58-9.79 5.34l-2 17.17" id="path252" style="fill:#ea5f28;stroke:#ea5f28;stroke-width:4.07999992px;stroke-linecap:round;stroke-linejoin:round"/><path d="M231.608 141.827c4.46-13.39 3.31-26.48-3.33-37.86a51.18 51.18 0 0 0-16-16.63 16.31 16.31 0 0 0-19.83 1.63l-1.44 1.32a16.38 16.38 0 0 0-3.29 4.19c-.6-1.48-1.16-2.89-1.76-4.21-4.69-10.26-10.62-16.19-16.37-21.93-1.36-1.37-2.78-2.78-4.17-4.26a45.42 45.42 0 0 1-6.43-8.56 16.29 16.29 0 0 0-24.59-4.42c-.25-.59-.49-1.18-.72-1.76a16.29 16.29 0 0 0-22.81-8.37 69 69 0 0 0-28.31 28.51c-.85-.28-1.75-.59-2.67-.92a16.28 16.28 0 0 0-10.89 0l-3 1.07a16.29 16.29 0 0 0-10.16 20.22c4.45 14.31 10.53 24.08 18.94 30.36-4.55 11.09-12.75 19.19-24 30.24-4 4-8.21 8.1-12.64 12.78-25.65 27.12-21 65.31-20.82 66.92a16.28 16.28 0 0 0 12.33 13.74 15.72 15.72 0 0 0 3 .44 95.22 95.22 0 0 0 6.05 24.64c4.62 11.36 10.08 16.59 12.22 18.32a16.3 16.3 0 0 0 22.06-1.47 83.17 83.17 0 0 0 14.89 18.15 79.73 79.73 0 0 0 25.26 16 16.3 16.3 0 0 0 16.18-3 16.14 16.14 0 0 0 5.52-13.17 64.06 64.06 0 0 0 18.31 12.78c9.92 4.51 21.89 6.71 36.54 6.71h1.93a16.27 16.27 0 0 0 16.07-16.78v-1.32c0-.23 0-.46-.05-.69-.05-.23 0-.27 0-.41 0-.14 0-.44-.07-.66l-.06-.44-.09-.68c0-.15-.05-.31-.07-.46l-.12-.73c0-.15-.06-.3-.08-.45-.02-.15-.11-.55-.17-.83-.06-.28-.05-.25-.07-.38-.09-.41-.18-.83-.28-1.25a.93.93 0 0 1 0-.13c-.09-.38-.19-.77-.29-1.15l-.12-.44c-.08-.29-.16-.58-.25-.88l-.15-.51c-.09-.28-.17-.56-.27-.84-.1-.28-.11-.36-.17-.54-.06-.18-.19-.56-.29-.85l-.2-.54c-.1-.3-.21-.59-.33-.89-.12-.3-.13-.34-.2-.52-.13-.34-.27-.69-.41-1-.06-.13-.11-.26-.16-.39l-.63-1.43-.13-.26c-.18-.4-.37-.79-.56-1.19l-.25-.5-.49-1-.3-.57c-.16-.3-.33-.6-.5-.9l-.33-.59-.09-.15a45.75 45.75 0 0 0 5.46-2.8 28.37 28.37 0 0 0 13.91-27.8c-.77-7.64-4.3-15.24-10.3-22.35l.34-.25.1-.07.52-.43.19-.16c.14-.12.28-.24.41-.37l.23-.22.34-.34.08-.08.36-.38a46.93 46.93 0 0 0 10.81-35.46c-.71-7.3-4-14.33-9.92-21 8.08-6.9 14.37-16.77 18.58-29.4z" id="path254" style="fill:#ea5f28"/><path d="M99.408 50.627c-11.45 9.65-17.37 1.83-17.37 1.83-1.82-3.89-1.21-1.18-2.36-5.3-2.31-8.25 3.91-16.47 10.8-21.86a27.34 27.34 0 0 0-20.85 7 25.18 25.18 0 0 0-8 19.83c.23 3.43 1.18 6.82 1 10.25-.18 3.43-2 7.12-5.42 8.19-4.73 1.48-9.57-3.19-10-8a21.83 21.83 0 0 1 2.8-13.42c-8.88 2.38-14 10.45-14.71 19.29-1 12.45 9.05 24.63 5.49 36.65-.72 2.43-2.09 6.09-4.31 7.45-2.22 1.36-6.74.14-8.66-1.59-2.34-2.12-4.64-5.73-4-8.77.91-4.67 1.92-9.51.68-14.11-1.24-4.6-5.49-8.83-10.41-8.44 2.86 5.63.79 12.43-2.28 18s-7.16 10.7-8.55 16.82c-1.89 8.32-2.93 16.84.87 24.53a54.83 54.83 0 0 0 1.21 5.58s17.85 20.74 11.94 68c-5.91 47.26 122.56-117.74 122.56-117.74l-30.41-48.24s19.72-9.56 11.56-26.46c0 0 18.85-.12 18.85 37.29" id="path256" style="fill:#ea5f28;stroke:#ea5f28;stroke-width:3.1099999px;stroke-linecap:round;stroke-linejoin:round"/><path d="M59.128 182.967s-22.45-9.55-16.25-50.68c0 0 11.79 27 38.79 35.49" id="path258" style="fill:#e8882a;stroke:#e8882a;stroke-width:11.85000038px;stroke-linecap:round;stroke-linejoin:round"/><path d="M175.248 115.457s-10.38-17.23 13.68-41.71c0 0-5.15 23.7 8.76 42.46" id="path260" style="fill:#e8882a;stroke:#e8882a;stroke-width:9.77000046px;stroke-linecap:round;stroke-linejoin:round"/><path d="M93.568 113.687c-5.3 27.11-23 38.9-43.61 60.7-20.61 21.8-16.5 53.63-16.5 53.63 6.49-9.43 14.74-10.61 14.74-10.61-2.36 44.79 13 57.16 13 57.16 1.18-18.27 15.91-30 15.91-30 3 46.55 41.46 60.11 41.46 60.11s-4.92-24.75 12.17-22.4c17.09 2.35 14.73 25.34 60.7 24.76 0 0-.59-19.45-20.63-31.24l-1.46-32.62-9-42.91 20.48-23.12s7.41-41.88-34.77-56.34l-39.89-7.07" id="path262" style="fill:#f7f3eb"/><path class="cls-22" d="M93.568 113.687c-5.3 27.11-23 38.9-43.61 60.7-20.61 21.8-16.5 53.63-16.5 53.63 6.49-9.43 14.74-10.61 14.74-10.61-2.36 44.79 13 57.16 13 57.16 1.18-18.27 15.91-30 15.91-30 3 46.55 41.46 60.11 41.46 60.11s-4.92-24.75 12.17-22.4c17.09 2.35 14.73 25.34 60.7 24.76 0 0-.59-19.45-20.63-31.24" id="path264" style="fill:none;stroke:#08295e;stroke-width:11.85000038px;stroke-linecap:round;stroke-linejoin:round"/><path class="cls-23" d="M71.338 84.967c13.07 42 35.37 19 74.68 35.8 40.08 17.09 34.77 46.56 34.77 46.56 12.38-1.77 27.11-5.9 35.36-30.65 7-20.89-7.91-32.54-12.71-35.67l-1.44 1.31a3.39 3.39 0 0 0 0 .94c3.16 12.55-5.84 15.13-15.93 14.57-8.18-.46-12.26-14.87-15-20.78-4.43-9.7-10.43-14.23-17.56-21.76a62.33 62.33 0 0 1-8.74-11.68c-5.89 8.84-5.3 22.39-5.3 22.39-10-2.94-21-30.64-21-30.64-21 11.2-26.13 33-26.13 33-5.85-.39-13.5-2.84-18-4.46z" id="path266" style="fill:#c93627;stroke:#08295e;stroke-width:11.85000038px;stroke-linecap:round;stroke-linejoin:round"/><path d="M180.788 167.317s-19.14 1.39-28.34 22.27 2.12 25.48 11.68 24.38c9.56-1.1 24.77-17 35.74 2.83 0 0 8.14-8.49 6.72-23-1.42-14.51-25.8-26.48-25.8-26.48z" id="path268" style="fill:#e8882a;stroke:#08295e;stroke-width:11.85000038px;stroke-linecap:round;stroke-linejoin:round"/><path class="cls-22" d="M149.358 199.247s48.67-16.28 50.51 17.59" id="path270" style="fill:none;stroke:#08295e;stroke-width:11.85000038px;stroke-linecap:round;stroke-linejoin:round"/><path class="cls-23" d="M179.618 263.897s3.82 10.7 17.81 2.31c13.99-8.39 5.56-33.48-39.64-49.37" id="path272" style="fill:#c93627;stroke:#08295e;stroke-width:11.85000038px;stroke-linecap:round;stroke-linejoin:round"/><path d="M130.298 156.287s-3.24 10.08 0 18 13 10.94 32.42-6.78" id="path274" style="fill:#08295e;stroke:#3caa3f;stroke-width:7.80999994px;stroke-miterlimit:10"/><path class="cls-23" d="M149.698 209.777s-18 35.53-5.41 54.12c12.59 18.59 31.14 11.62 35.33 0 4.19-11.62-2.2-31.55-29.92-54.12z" id="path276" style="fill:#c93627;stroke:#08295e;stroke-width:11.85000038px;stroke-linecap:round;stroke-linejoin:round"/><path class="cls-22" d="M114.728 155.097s5.18-10.36 16.36-3.82c11.18 6.54 14 17.9 46.81 16" id="path278" style="fill:none;stroke:#08295e;stroke-width:11.85000038px;stroke-linecap:round;stroke-linejoin:round"/><path d="M190.098 144.967a20.65 20.65 0 0 0 12.19-16.47" id="path280" style="fill:none;stroke:#ea5f28;stroke-width:10.42000008px;stroke-linecap:round;stroke-linejoin:round"/></svg>