<svg xmlns="http://www.w3.org/2000/svg" id="Layer_1" data-name="Layer 1" version="1.1" width="347.03" height="366.213"><defs id="defs4"><style id="style2">.cls-16{fill:#08295e}.cls-13{stroke:#ea5f28}.cls-10,.cls-11,.cls-12,.cls-13,.cls-14,.cls-15,.cls-16,.cls-7,.cls-8{stroke-linecap:round;stroke-linejoin:round}.cls-15,.cls-7,.cls-8{fill:#e8882a;stroke:#e8882a}.cls-7{stroke-width:4.29px}.cls-8{stroke-width:2.59px}.cls-10,.cls-11,.cls-12,.cls-13,.cls-14{fill:none}.cls-10{stroke:#3caa3f;stroke-width:5.24px}.cls-11,.cls-16{stroke:#f7f3eb}.cls-11,.cls-14{stroke-width:8.12px}.cls-12,.cls-14{stroke:#c93627}.cls-12,.cls-13{stroke-width:5.9px}.cls-15{stroke-width:3.5px}.cls-16{stroke-width:5.49px}</style></defs><path d="M307.05 262.503c-1.09-.91-2.19-1.94-3.36-3a52 52 0 0 0-8.43-6.85c-4.37-2.69-8.91-3.66-12.92-4.51a29.77 29.77 0 0 1-7.28-2.16c-5.34-2.83-8.26-9.84-11.34-17.26-2.3-5.54-4.68-11.27-8.39-16.16-8.03-10.64-24.34-15.43-36.14-15.43H21.33c-5.6 0-8.69 4.76-13.36 12-.46.71-.82 1.28-1 1.51-8.75 11.44-7.68 21.21-5.24 27.4 4.84 12.27 14.31 18.76 27.4 18.76h12.06c-2.48 6.4-6.41 13.94-11.9 18.42l-.18.16c-14.48 12.57-36.82 43.09-17.69 68.56l.84 1.12 10.5 7h140.6a125.79 125.79 0 0 0 58 14.15c1.89 0 3.83 0 5.78-.14a81.94 81.94 0 0 0 55.61-25.54c16.69-17.48 26.09-42.15 27.2-71.35l.15-4z" id="path168" style="fill:#ea5f28"/><path d="m278.2 24.043.53 43.14c12.93 6.8 14.15 16.11 24.17 25.37l7-10.44c24.62 22.72 32.49 62.5 32.49 94.53 0 72.13-75.2 130.61-168 130.61s-168-58.48-168-130.61c0-31.48 10.61-73.49 34.47-96l6 12c7.71-7.28 11.62-18.47 20.93-24.19v-45.57s113.58-41.64 210.41 1.16z" id="path170" style="fill:#08295e;stroke:#ea5f28;stroke-width:9.27999973px;stroke-miterlimit:10"/><path d="M194.33 192.133c15.11-7.57 29.46-26.51 31.48-47.34.41-4.2-2.37-8.39-3.21-12.56-.48-2.35-1.22-4.64-1.55-7a21.12 21.12 0 0 1 5.19-16.79 10.4 10.4 0 0 0-11.14 5.28c-1.06 2.18-1.25 4.7-2.4 6.84-1.15 2.14-4 3.85-6.12 2.65a5.18 5.18 0 0 1-1.93-2.31c-1.61-3.3-1.85-7-2.13-10.68-.28-3.68-.67-7.39-2.53-10.57-1.86-3.18-5.6-5.62-9.32-4.95a18.88 18.88 0 0 1 1.32 23.65c-.94 1.24-3.67 2.43-5.2 2.84-2.55.67-5.25-1.09-6.36-3.39-1.11-2.3-1-5-.6-7.48 1.05-7.26 3.71-14.94.58-21.62-1.27-2.72-3.44-5-4.25-7.92-1.61-5.75 2.73-11.49 7.54-15.24a19.07 19.07 0 0 0-14.55 4.88 17.59 17.59 0 0 0-5.55 13.83c.17 2.39.83 4.76.68 7.15-.15 2.39-1.41 5-3.78 5.7-3.3 1-6.68-2.22-7-5.55a15.26 15.26 0 0 1 1.95-9.35c-6.19 1.66-9.76 7.29-10.26 13.45-.7 8.68 6.31 17.18 3.83 25.55-.5 1.7-1.45 4.26-3 5.2-1.55.94-4.71.1-6-1.11-1.63-1.48-3.23-4-2.82-6.11.64-3.26 1.34-6.63.48-9.84-.86-3.21-3.83-6.16-7.26-5.89 2 3.93.55 8.67-1.59 12.53-2.14 3.86-5 7.46-6 11.73-1.31 5.8-2 11.74.61 17.1 0 0 3.91 27.17 30.34 46.95-.02 0 20.66 10.37 40.55.37z" id="path172" style="fill:#ea5f28;stroke:#ea5f28;stroke-width:2.17000008px;stroke-linecap:round;stroke-linejoin:round"/><path class="cls-7" d="M204.7 142.333s8-3.19 9.85-7.33c0 0 0 19.81-12.78 28.72" id="path174" style="fill:#e8882a;stroke:#e8882a;stroke-width:4.28999996px;stroke-linecap:round;stroke-linejoin:round"/><path class="cls-7" d="M163.36 131.803s-11.2-16.27 0-25.77c0 0 0 12.14 12.21 20.49" id="path176" style="fill:#e8882a;stroke:#e8882a;stroke-width:4.28999996px;stroke-linecap:round;stroke-linejoin:round"/><path class="cls-7" d="M143.16 140.463s-8.92-2.28-9.88-9.28c0 0-4.61 27.68 22.66 27.68" id="path178" style="fill:#e8882a;stroke:#e8882a;stroke-width:4.28999996px;stroke-linecap:round;stroke-linejoin:round"/><path class="cls-8" d="M253.99 178.533v4.86h5.61v-4.86h1.51v11.6h-1.51v-5.44h-5.61v5.44h-1.5v-11.6z" id="path180" style="fill:#e8882a;stroke:#e8882a;stroke-width:2.58999991px;stroke-linecap:round;stroke-linejoin:round"/><path class="cls-8" d="M278.8 184.213c0 4-2.43 6.11-5.39 6.11-2.96 0-5.22-2.37-5.22-5.88 0-3.69 2.29-6.1 5.39-6.1 3.1 0 5.22 2.43 5.22 5.87zm-9 .19c0 2.48 1.35 4.7 3.7 4.7s3.72-2.19 3.72-4.82c0-2.31-1.2-4.72-3.7-4.72s-3.73 2.29-3.73 4.84z" id="path182" style="fill:#e8882a;stroke:#e8882a;stroke-width:2.58999991px;stroke-linecap:round;stroke-linejoin:round"/><path class="cls-8" d="M287.68 179.813h-3.53v-1.28h8.59v1.28h-3.54v10.32h-1.52z" id="path184" style="fill:#e8882a;stroke:#e8882a;stroke-width:2.58999991px;stroke-linecap:round;stroke-linejoin:round"/><path d="M52.16 248.593s-4.55 22.06-17.7 32.83c0 0-36.17 31.4-16.53 57.56l7.3 4.83h140.28s25.47 15.71 61.27 14c35.8-1.71 72.83-30.05 75.08-89.09-3.62-3-6.81-6.73-10.85-9.21-6-3.72-13.56-3.14-19.75-6.42-12.74-6.75-14.25-25-22.4-35.69-6.17-8.14-19.71-12.21-29.67-12.21H21.33c-1.57 0-6.89 8.95-7.9 10.27-4.39 5.74-6.9 12.47-4.13 19.49 3.59 9.11 10.05 13.62 19.85 13.62z" id="path186" style="fill:#08295e"/><path class="cls-10" d="M149.99 313.563v0c0 5.07-4.66 9.22-10.35 9.22H50.51c-5.69 0-10.34-4.15-10.34-9.22v0c0-5.08 4.65-9.82 10.34-9.82h69" id="path188" style="fill:none;stroke:#3caa3f;stroke-width:5.23999977px;stroke-linecap:round;stroke-linejoin:round"/><path class="cls-10" d="M129.26 303.743v9.82c0 5.09 4.63 9.22 10.34 9.22s10.39-4.13 10.39-9.22v-9.82" id="path190" style="fill:none;stroke:#3caa3f;stroke-width:5.23999977px;stroke-linecap:round;stroke-linejoin:round"/><path class="cls-10" id="line192" style="fill:none;stroke:#3caa3f;stroke-width:5.23999977px;stroke-linecap:round;stroke-linejoin:round" d="M118.72 312.913H51.34"/><path class="cls-11" d="M36.45 225.963c10.58.87 21 2.31 31.39-.94 2-.64 14.08-4.06 14.62-6.68 0 0-10.72 52.08-21.68 65.45 0 0 25.76-17 34.86-40.92l-3.52 41.26s19.15-52.58 42-52.82h96" id="path194" style="fill:none;stroke:#f7f3eb;stroke-width:8.11999989px;stroke-linecap:round;stroke-linejoin:round"/><path class="cls-11" d="m126.99 255.353-9.45 18.85s-5.24 10.13 3.45 10.13c0 0 5.57 1.21 9.23-1.8l13.8-24.21s12.65-12.27 11.86 5.06" id="path196" style="fill:none;stroke:#f7f3eb;stroke-width:8.11999989px;stroke-linecap:round;stroke-linejoin:round"/><path class="cls-11" d="m144.99 284.823 12.68-23.69s4.43-7.48 11.54-7c7.11.48 3.86 7 3.86 7l-8.6 15.32s-4 9.56 4.74 7.92c2.59-.48 5.71-3.76 7.48-5.45a42.92 42.92 0 0 0 6.43-7.8c2.73-4.21 4.45-9.36 8.22-12.81 2.7-2.47 6.59-3.17 10.13-3.2 10.77-.1 9.58 6.21 2.29 19.33l-6.69 16.69-4.9 12.24c-1.59 4-3.37 8.66-7 11.32-4.08 2.95-10 3.11-12.38-2-5-10.83 17.9-22.07 38.31-6.25" id="path198" style="fill:none;stroke:#f7f3eb;stroke-width:8.11999989px;stroke-linecap:round;stroke-linejoin:round"/><path class="cls-11" d="M183.63 270.283s-2.8 11.12 4.42 12.25c7.22 1.13 12.52-.61 16.65-9.83" id="path200" style="fill:none;stroke:#f7f3eb;stroke-width:8.11999989px;stroke-linecap:round;stroke-linejoin:round"/><path class="cls-11" id="line202" style="fill:none;stroke:#f7f3eb;stroke-width:8.11999989px;stroke-linecap:round;stroke-linejoin:round" d="m214.55 271.423 15.56-17.31"/><path class="cls-11" d="M234.18 247.423s-5.54 6.81-1.3 14.64c4.24 7.83 5.05 19.85-1.59 23.86-6.64 4.01-12.28.59-10.65-3.39 1.63-3.98 5.22-4.54 19.26-6 14.04-1.46 13.66-9.79 13.66-9.79" id="path204" style="fill:none;stroke:#f7f3eb;stroke-width:8.11999989px;stroke-linecap:round;stroke-linejoin:round"/><path class="cls-12" d="M236.62 310.373s-13.09 19.26-33.92 20c0 0-8.23.65-1.27 3.56 6.96 2.91 37.17 12.86 58.83-12.76" id="path206" style="fill:none;stroke:#c93627;stroke-width:5.9000001px;stroke-linecap:round;stroke-linejoin:round"/><path class="cls-12" d="M278.2 284.213s-11.9-5.21-15.36 5.14" id="path208" style="fill:none;stroke:#c93627;stroke-width:5.9000001px;stroke-linecap:round;stroke-linejoin:round"/><path class="cls-13" d="M243.46 301.333s5.56-13.42 15.89-11.08c0 0 15.59 3.26 8.83 18.95l-.93 2.77" id="path210" style="fill:none;stroke:#ea5f28;stroke-width:5.9000001px;stroke-linecap:round;stroke-linejoin:round"/><path class="cls-13" d="M240.26 300.193s4.36 6 10.37 3.7c6.01-2.3 5.69-2.17 6.76 1.05 1.07 3.22 4.44 11.48 11.85 9.43" id="path212" style="fill:none;stroke:#ea5f28;stroke-width:5.9000001px;stroke-linecap:round;stroke-linejoin:round"/><path class="cls-8" d="M55.86 172.503a16 16 0 0 1 2.87-.24 4.79 4.79 0 0 1 3.36.95 2.91 2.91 0 0 1 .91 2.2 3 3 0 0 1-2.19 3v.05a2.92 2.92 0 0 1 1.71 2.35 18.1 18.1 0 0 0 .89 3.18h-1.55a14.48 14.48 0 0 1-.77-2.77c-.35-1.6-1-2.2-2.33-2.26h-1.41v5h-1.49zm1.49 5.29h1.53c1.6 0 2.62-.88 2.62-2.2 0-1.5-1.08-2.16-2.67-2.17a6.84 6.84 0 0 0-1.48.13z" id="path214" style="fill:#e8882a;stroke:#e8882a;stroke-width:2.58999991px;stroke-linecap:round;stroke-linejoin:round"/><path class="cls-8" d="M76.29 178.513h-4.51v4.18h5v1.26h-6.53v-11.6h6.27v1.26h-4.77v3.66h4.51z" id="path216" style="fill:#e8882a;stroke:#e8882a;stroke-width:2.58999991px;stroke-linecap:round;stroke-linejoin:round"/><path class="cls-8" d="M83.92 172.503a22.55 22.55 0 0 1 3.18-.24 6.62 6.62 0 0 1 4.7 1.45 5.36 5.36 0 0 1 1.64 4.16 6.13 6.13 0 0 1-1.67 4.51 7.14 7.14 0 0 1-5.13 1.67 25.93 25.93 0 0 1-2.72-.13zm1.5 10.26a9.18 9.18 0 0 0 1.51.09c3.2 0 4.94-1.79 4.94-4.92 0-2.74-1.53-4.48-4.7-4.48a8.1 8.1 0 0 0-1.75.16z" id="path218" style="fill:#e8882a;stroke:#e8882a;stroke-width:2.58999991px;stroke-linecap:round;stroke-linejoin:round"/><path class="cls-14" d="M31.15 198.033s8.89-.19 16.67-.19c0 0-31.13-31.69 1.12-80 0 0 1.66 21.13 7.22 30 0 0-2.22-75.05 83.94-83.38 0 0-48.91 39.46-38.91 88.94 4.26 21.05 17.39 36.95 35.84 48.71 20.84 13.29 47.63 11.63 69.59 2.13 23.57-10.19 36.13-26.18 41.12-50.84 10-49.48-38.91-88.94-38.91-88.94 86.16 8.33 83.94 83.38 83.94 83.38 5.56-8.89 7.23-30 7.23-30 32.24 48.36 1.11 80 1.11 80 7.78 0 16.67-4.45 16.67-4.45-4.34 18.47-13.78 30.48-23.67 38.27h-38.56l21.65 18.57" id="path220" style="fill:none;stroke:#c93627;stroke-width:8.11999989px;stroke-linecap:round;stroke-linejoin:round"/><path class="cls-14" d="M80.91 143.903c.23-17.75 5-48.63 31.71-73.78" id="path222" style="fill:none;stroke:#c93627;stroke-width:8.11999989px;stroke-linecap:round;stroke-linejoin:round"/><path class="cls-14" d="M267.99 143.903c-.22-17.75-5-48.63-31.7-73.78" id="path224" style="fill:none;stroke:#c93627;stroke-width:8.11999989px;stroke-linecap:round;stroke-linejoin:round"/><path class="cls-15" d="M98.82 37.133a22.33 22.33 0 0 1 3.57-1.28c2-.53 3.23-.49 4.16 0a2.28 2.28 0 0 1 1.27 2.22 4.79 4.79 0 0 1-2.57 3.82v0a2.77 2.77 0 0 1 3.13 2.82 4.87 4.87 0 0 1-1.28 3.2c-1 1.19-2.78 2.05-5.25 2.72a27.64 27.64 0 0 1-3 .67zm1.95 5.36 1.78-.49c2.07-.55 3.28-1.89 3.28-3.27 0-1.69-1.35-2-3.33-1.48a10.07 10.07 0 0 0-1.73.6zm0 6.9a13.09 13.09 0 0 0 1.64-.36c2-.55 3.9-1.73 3.9-3.82s-1.78-2.33-3.92-1.75l-1.62.44z" id="path226" style="fill:#e8882a;stroke:#e8882a;stroke-width:3.5px;stroke-linecap:round;stroke-linejoin:round"/><path class="cls-15" d="M124.35 30.953v8.53c0 3.22 1.52 4.3 3.58 4 2.28-.39 3.75-2 3.75-5.21v-8.53l2-.31v8.4c0 4.42-2.5 6.61-5.83 7.18-3.15.54-5.52-.68-5.52-5.15v-8.53z" id="path228" style="fill:#e8882a;stroke:#e8882a;stroke-width:3.5px;stroke-linecap:round;stroke-linejoin:round"/><path class="cls-15" d="M148.62 27.543c3.34-.32 5-.45 8.36-.67v1.56c-2.55.16-3.82.26-6.36.49v4.78c2.35-.2 3.53-.3 5.88-.46v1.54c-2.35.16-3.53.25-5.88.46v6.52l-2 .19z" id="path230" style="fill:#e8882a;stroke:#e8882a;stroke-width:3.5px;stroke-linecap:round;stroke-linejoin:round"/><path class="cls-15" d="M171.37 26.293h8.37v1.56h-6.37v4.79h5.89v1.49h-5.89v6.52h-2z" id="path232" style="fill:#e8882a;stroke:#e8882a;stroke-width:3.5px;stroke-linecap:round;stroke-linejoin:round"/><path class="cls-15" d="m194.85 36.803-1.62 4.42-2.07-.12c2.11-5.64 3.17-8.45 5.28-14.06l2.41.19c2.14 5.9 3.14 8.9 5.29 14.9l-2.13-.21-1.66-4.68c-2.2-.2-3.3-.29-5.5-.44zm5.09-1c-.61-1.72-.92-2.57-1.52-4.28-.35-1-.58-1.84-.81-2.69v0c-.23.83-.48 1.69-.78 2.54l-1.52 4.06c1.82.08 2.76.15 4.68.32z" id="path234" style="fill:#e8882a;stroke:#e8882a;stroke-width:3.5px;stroke-linecap:round;stroke-linejoin:round"/><path class="cls-15" d="m217.88 29.483 2 .31v12.85c2.63.42 4 .65 6.57 1.13v1.56c-3.42-.63-5.13-.92-8.56-1.44z" id="path236" style="fill:#e8882a;stroke:#e8882a;stroke-width:3.5px;stroke-linecap:round;stroke-linejoin:round"/><path class="cls-15" d="M252.08 43.973c0 5-3.16 6.68-7 5.69a9.12 9.12 0 0 1-6.84-9c0-4.57 3-6.89 7.06-5.84a9.22 9.22 0 0 1 6.78 9.15zm-11.77-2.84c0 3.08 1.76 6.24 4.85 7 3.09.76 4.86-1.42 4.86-4.69 0-2.86-1.57-6.3-4.84-7.14-3.27-.84-4.87 1.68-4.87 4.83z" id="path238" style="fill:#e8882a;stroke:#e8882a;stroke-width:3.5px;stroke-linecap:round;stroke-linejoin:round"/><circle class="cls-16" cx="174.55" cy="148.093" r="31.39" id="circle240" style="fill:#08295e;stroke:#f7f3eb;stroke-width:5.48999977px;stroke-linecap:round;stroke-linejoin:round"/><path class="cls-16" id="line242" style="fill:#08295e;stroke:#f7f3eb;stroke-width:5.48999977px;stroke-linecap:round;stroke-linejoin:round" d="M143.16 148.093h62.78"/><path class="cls-16" d="M194.99 125.043v4.91a7.39 7.39 0 0 1-7.37 7.37h-25.91a7.39 7.39 0 0 1-7.37-7.37v-4.91" id="path244" style="fill:#08295e;stroke:#f7f3eb;stroke-width:5.48999977px;stroke-linecap:round;stroke-linejoin:round"/><path class="cls-16" d="M154.15 171.133v-4.9a7.39 7.39 0 0 1 7.37-7.37h25.87a7.39 7.39 0 0 1 7.37 7.37v4.9" id="path246" style="fill:#08295e;stroke:#f7f3eb;stroke-width:5.48999977px;stroke-linecap:round;stroke-linejoin:round"/><path class="cls-16" id="line248" style="fill:#08295e;stroke:#f7f3eb;stroke-width:5.48999977px;stroke-linecap:round;stroke-linejoin:round" d="M174.55 168.033v10.56"/><path class="cls-16" id="line250" style="fill:#08295e;stroke:#f7f3eb;stroke-width:5.48999977px;stroke-linecap:round;stroke-linejoin:round" d="M174.55 118.023v10.56"/></svg>