<svg xmlns="http://www.w3.org/2000/svg" id="Layer_1" width="435.495" height="523.99" version="1.1"><defs id="defs235"><style id="style233">.cls-3,.cls-4{stroke:#000;stroke-linecap:round;stroke-linejoin:round}.cls-9{stroke:#08416b;stroke-width:14.74px;stroke-miterlimit:10}.cls-4,.cls-9{fill:none}.cls-10,.cls-3{fill:#eab744}.cls-3,.cls-4{stroke-width:9.83px}</style></defs><g id="g729" transform="translate(-82.238 -38.02)"><path id="path239" d="M517.44 393.56c-21.19-104.63-71.73-161.32-110.4-190.44-26.61-20.04-51.2-30.14-66.26-34.96 15.07-55.24-5.99-107.4-16.12-120.97-.49-.66-1.01-1.3-1.59-1.96a36.389 36.389 0 0 0-1.82-1.88c-.18-.17-.35-.32-.51-.46a22.723 22.723 0 0 0-2.13-1.67c-.52-.35-1.03-.67-1.53-.94-.25-.14-.5-.28-.75-.41l-.13-.07a14.7 14.7 0 0 0-1.39-.59 16.97 16.97 0 0 0-5.25-1.15c-.32-.03-.64-.04-.97-.04l-.58.02c-.24 0-.47.02-.66.04-.61.04-1.21.12-1.82.24l-.79.16c-.37.09-.69.18-.94.26-.47.14-.94.31-1.34.47-.26.1-.52.2-.75.31-2.83 1.27-5.28 3.27-7.34 6.01l-.45.64c-3.53 5.05-4.99 11.31-5.55 14.66-.19 1.11-.23 2.25-.14 3.38-.47 2.8-1.94 10.36-6.6 29.84a179.37 179.37 0 0 1-3.47 12.49c-1.7-14.5-3.38-28.99-4.21-36.87-1.95-18.54-8.52-27.96-19.58-27.99-5.04 0-11.99 2.22-16.5 12.81-3.04 7.12-5.33 18.36-7.22 35.38-3.5 31.47-8.41 51.53-11.13 60.93-18.56 6.93-27.76 20.33-31.81 28.43l-95.48 26.99a13.772 13.772 0 0 0-8.56 7.1c-1.72 3.46-1.9 7.51-.49 11.1 8.76 22.44 26.24 36.94 50.57 41.93 14.1 2.89 26.33 1.7 31.16 1.01 2.32.15 4.58.32 6.77.51l-40.69 40.69c-15.44 15.44-23.94 36.03-23.94 57.97 0 21.94 8.5 42.52 23.94 57.96l113.58 113.58c15.44 15.44 36.03 23.94 57.96 23.94s42.52-8.5 57.97-23.94l113.58-113.58c3.96-3.96 7.49-8.31 10.56-12.98h18.13c4.5 0 8.72-2 11.58-5.49 2.85-3.49 3.98-8.02 3.08-12.44z" class="cls-10" style="fill:#eab744"/><g id="g661"><g id="g245"><rect id="rect241" width="273.22" height="273.22" x="165.94" y="229.89" rx="56.29" ry="56.29" transform="rotate(-135 302.555 366.498)"/><path id="path243" d="M302.55 551.94c-19.26 0-37.32-7.46-50.86-21L138.11 417.36c-13.54-13.54-21-31.61-21-50.86s7.46-37.32 21-50.86l113.58-113.58c28.05-28.05 73.68-28.05 101.73 0L467 315.64c13.54 13.54 21 31.61 21 50.86s-7.46 37.32-21 50.86L353.42 530.94c-13.54 13.54-31.61 21-50.86 21zm0-339.67c-10.41 0-20.82 3.96-28.75 11.89L160.22 337.74c-7.64 7.64-11.84 17.85-11.84 28.75 0 10.9 4.21 21.11 11.84 28.75L273.8 508.82c7.63 7.64 17.84 11.84 28.75 11.84s21.11-4.2 28.75-11.84l113.58-113.58c7.64-7.64 11.84-17.85 11.84-28.75 0-10.9-4.21-21.11-11.84-28.75L331.3 224.16c-7.93-7.93-18.34-11.89-28.75-11.89z"/></g><g id="g653" style="opacity:.3"><g id="g307"><g id="g251"><circle id="circle247" cx="229.21" cy="459.08" r="2.26"/><path id="path249" d="M229.21 463.69c-1.23 0-2.39-.48-3.26-1.35a4.584 4.584 0 0 1-1.35-3.26c0-1.23.48-2.39 1.35-3.26.87-.87 2.03-1.35 3.26-1.35s2.39.48 3.26 1.35c.87.87 1.35 2.03 1.35 3.26s-.48 2.39-1.35 3.26c-.87.87-2.03 1.35-3.26 1.35zm-.06-4.55s.09.03.12 0 .03-.09 0-.12a.091.091 0 0 0-.12 0c-.03.03-.03.09 0 .12z" class="cls-10" style="fill:#eab744"/></g><g id="g257"><circle id="circle253" cx="217.05" cy="471.24" r="2.26"/><path id="path255" d="M217.05 475.85c-1.23 0-2.39-.48-3.26-1.35a4.584 4.584 0 0 1-1.35-3.26c0-1.23.48-2.39 1.35-3.26.87-.87 2.03-1.35 3.26-1.35s2.39.48 3.26 1.35c.87.87 1.35 2.03 1.35 3.26s-.48 2.39-1.35 3.26c-.87.87-2.03 1.35-3.26 1.35zm-.06-4.55s.09.03.12 0 .03-.09 0-.12a.091.091 0 0 0-.12 0c-.03.03-.03.09 0 .12z" class="cls-10" style="fill:#eab744"/></g><g id="g263"><path id="line259" d="m226.91 487.96 20.2-20.2"/><path id="rect261" d="M222.72 475.52h28.57v4.69h-28.57z" class="cls-10" style="fill:#eab744" transform="rotate(-44.99 237.023 477.88)"/></g><g id="g269"><path id="line265" d="m237.96 499.02 20.21-20.2"/><path id="rect267" d="M233.78 486.58h28.57v4.69h-28.57z" class="cls-10" style="fill:#eab744" transform="rotate(-44.99 248.075 488.935)"/></g><g id="g275"><path id="line271" d="m249.02 510.08 20.2-20.2"/><path id="rect273" d="M244.84 497.63h28.57v4.69h-28.57z" class="cls-10" style="fill:#eab744" transform="rotate(-44.99 259.139 499.995)"/></g><g id="g281"><path id="line277" d="m260.08 521.14 20.2-20.21"/><path id="rect279" d="M255.9 508.69h28.57v4.69H255.9z" class="cls-10" style="fill:#eab744" transform="rotate(-44.99 270.19 511.05)"/></g><g id="g287"><path id="polygon283" d="m177.31 425.42 11.87-.2.08 4.69-7.61.13-.66 8.27-4.67-.37z" class="cls-10" style="fill:#eab744"/><path id="polygon285" d="m186.16 416.57 11.87-.2.08 4.69-7.61.13-.66 8.28-4.68-.37z" class="cls-10" style="fill:#eab744"/></g><g id="g293"><path id="polygon289" d="m165.15 413.25 11.87-.2.08 4.69-7.61.13-.66 8.28-4.68-.37z" class="cls-10" style="fill:#eab744"/><path id="polygon291" d="m173.99 404.41 11.88-.2.08 4.69-7.62.13-.65 8.27-4.68-.37z" class="cls-10" style="fill:#eab744"/></g><g id="g299"><path id="polygon295" d="m152.99 401.09 11.87-.2.08 4.69-7.61.13-.66 8.28-4.68-.37z" class="cls-10" style="fill:#eab744"/><path id="polygon297" d="m161.83 392.25 11.87-.21.08 4.69-7.61.13-.66 8.28-4.67-.37z" class="cls-10" style="fill:#eab744"/></g><path id="path301" d="M146.5 390.91c-3.25 0-6.51-1.24-8.99-3.72l3.32-3.32a8.021 8.021 0 0 0 11.34 0l5.97-5.97 3.32 3.32-5.97 5.97a12.666 12.666 0 0 1-8.99 3.72z" class="cls-10" style="fill:#eab744"/><path id="path303" d="M142.68 375.89c-3.25 0-6.51-1.24-8.99-3.72l3.32-3.32a8.021 8.021 0 0 0 11.34 0l5.97-5.97 3.32 3.32-5.97 5.97a12.666 12.666 0 0 1-8.99 3.72z" class="cls-10" style="fill:#eab744"/><path id="path305" d="M141.88 359.7c-3.25 0-6.51-1.24-8.99-3.72l3.32-3.32a8.021 8.021 0 0 0 11.34 0l5.97-5.97 3.32 3.32-5.97 5.97a12.666 12.666 0 0 1-8.99 3.72z" class="cls-10" style="fill:#eab744"/></g><g id="g393"><g id="g313"><circle id="circle309" cx="229.21" cy="459.08" r="2.26"/><path id="path311" d="M229.21 463.69c-1.23 0-2.39-.48-3.26-1.35a4.584 4.584 0 0 1-1.35-3.26c0-1.23.48-2.39 1.35-3.26.87-.87 2.03-1.35 3.26-1.35s2.39.48 3.26 1.35c.87.87 1.35 2.03 1.35 3.26s-.48 2.39-1.35 3.26c-.87.87-2.03 1.35-3.26 1.35zm-.06-4.55s.09.03.12 0 .03-.09 0-.12a.091.091 0 0 0-.12 0c-.03.03-.03.09 0 .12z" class="cls-10" style="fill:#eab744"/></g><g id="g319"><circle id="circle315" cx="217.05" cy="471.24" r="2.26"/><path id="path317" d="M217.05 475.85c-1.23 0-2.39-.48-3.26-1.35a4.584 4.584 0 0 1-1.35-3.26c0-1.23.48-2.39 1.35-3.26.87-.87 2.03-1.35 3.26-1.35s2.39.48 3.26 1.35c.87.87 1.35 2.03 1.35 3.26s-.48 2.39-1.35 3.26c-.87.87-2.03 1.35-3.26 1.35zm-.06-4.55s.09.03.12 0 .03-.09 0-.12a.091.091 0 0 0-.12 0c-.03.03-.03.09 0 .12z" class="cls-10" style="fill:#eab744"/></g><g id="g325"><path id="line321" d="m226.91 487.96 20.2-20.2"/><path id="rect323" d="M222.72 475.52h28.57v4.69h-28.57z" class="cls-10" style="fill:#eab744" transform="rotate(-44.99 237.023 477.88)"/></g><g id="g331"><path id="line327" d="m237.96 499.02 20.21-20.2"/><path id="rect329" d="M233.78 486.58h28.57v4.69h-28.57z" class="cls-10" style="fill:#eab744" transform="rotate(-44.99 248.075 488.935)"/></g><g id="g337"><path id="line333" d="m249.02 510.08 20.2-20.2"/><path id="rect335" d="M244.84 497.63h28.57v4.69h-28.57z" class="cls-10" style="fill:#eab744" transform="rotate(-44.99 259.139 499.995)"/></g><g id="g343"><path id="line339" d="m260.08 521.14 20.2-20.21"/><path id="rect341" d="M255.9 508.69h28.57v4.69H255.9z" class="cls-10" style="fill:#eab744" transform="rotate(-44.99 270.19 511.05)"/></g><g id="g349"><path id="polygon345" d="m177.31 425.42 11.87-.2.08 4.69-7.61.13-.66 8.27-4.67-.37z" class="cls-10" style="fill:#eab744"/><path id="polygon347" d="m186.16 416.57 11.87-.2.08 4.69-7.61.13-.66 8.28-4.68-.37z" class="cls-10" style="fill:#eab744"/></g><g id="g355"><path id="polygon351" d="m165.15 413.25 11.87-.2.08 4.69-7.61.13-.66 8.28-4.68-.37z" class="cls-10" style="fill:#eab744"/><path id="polygon353" d="m173.99 404.41 11.88-.2.08 4.69-7.62.13-.65 8.27-4.68-.37z" class="cls-10" style="fill:#eab744"/></g><g id="g361"><path id="polygon357" d="m152.99 401.09 11.87-.2.08 4.69-7.61.13-.66 8.28-4.68-.37z" class="cls-10" style="fill:#eab744"/><path id="polygon359" d="m161.83 392.25 11.87-.21.08 4.69-7.61.13-.66 8.28-4.67-.37z" class="cls-10" style="fill:#eab744"/></g><path id="path363" d="M146.5 390.91c-3.25 0-6.51-1.24-8.99-3.72l3.32-3.32a8.021 8.021 0 0 0 11.34 0l5.97-5.97 3.32 3.32-5.97 5.97a12.666 12.666 0 0 1-8.99 3.72z" class="cls-10" style="fill:#eab744"/><path id="path365" d="M142.68 375.89c-3.25 0-6.51-1.24-8.99-3.72l3.32-3.32a8.021 8.021 0 0 0 11.34 0l5.97-5.97 3.32 3.32-5.97 5.97a12.666 12.666 0 0 1-8.99 3.72z" class="cls-10" style="fill:#eab744"/><path id="path367" d="M141.88 359.7c-3.25 0-6.51-1.24-8.99-3.72l3.32-3.32a8.021 8.021 0 0 0 11.34 0l5.97-5.97 3.32 3.32-5.97 5.97a12.666 12.666 0 0 1-8.99 3.72z" class="cls-10" style="fill:#eab744"/><g id="g373"><circle id="circle369" cx="207.1" cy="436.97" r="2.26"/><path id="path371" d="M207.1 441.57a4.611 4.611 0 1 1 3.26-7.87c.87.87 1.35 2.03 1.35 3.26s-.48 2.39-1.35 3.26c-.9.9-2.08 1.35-3.26 1.35zm.06-4.66-.12.12s.08.03.12 0c.03-.03.03-.08 0-.12zm-.06-.02s-.04 0-.06.02c-.03.03-.03.09 0 .12l.12-.12s-.04-.02-.06-.02z" class="cls-10" style="fill:#eab744"/></g><g id="g379"><circle id="circle375" cx="218.15" cy="448.02" r="2.26"/><path id="path377" d="M218.15 452.63c-1.18 0-2.36-.45-3.26-1.35a4.584 4.584 0 0 1-1.35-3.26 4.611 4.611 0 0 1 7.87-3.26 4.63 4.63 0 0 1 0 6.52c-.9.9-2.08 1.35-3.26 1.35zm.06-4.66-.12.12s.09.03.12 0 .03-.09 0-.12zm-.06-.02s-.04 0-.06.02c-.03.03-.03.08 0 .12l.12-.12s-.04-.02-.06-.02z" class="cls-10" style="fill:#eab744"/></g><g id="g385"><circle id="circle381" cx="194.93" cy="449.13" r="2.26"/><path id="path383" d="M194.93 453.74a4.611 4.611 0 1 1 .002-9.22 4.611 4.611 0 0 1-.002 9.22zm0-4.69s-.04 0-.06.02c-.03.03-.03.08 0 .12.03.03.09.03.12 0s.03-.08 0-.12a.107.107 0 0 0-.06-.02z" class="cls-10" style="fill:#eab744"/></g><g id="g391"><circle id="circle387" cx="205.99" cy="460.19" r="2.26"/><path id="path389" d="M205.99 464.79c-1.18 0-2.36-.45-3.26-1.35a4.584 4.584 0 0 1-1.35-3.26c0-1.23.48-2.39 1.35-3.26 1.8-1.79 4.72-1.8 6.52 0a4.63 4.63 0 0 1 0 6.52c-.9.9-2.08 1.35-3.26 1.35zm.06-4.66-.12.12s.09.03.12 0 .03-.09 0-.12zm-.06-.02s-.04 0-.06.02c-.03.03-.03.08 0 .12l.12-.12s-.04-.02-.06-.02z" class="cls-10" style="fill:#eab744"/></g></g><g id="g479"><g id="g399"><circle id="circle395" cx="395.14" cy="439.84" r="2.26"/><path id="path397" d="M395.14 444.45c-1.23 0-2.39-.48-3.26-1.35a4.584 4.584 0 0 1-1.35-3.26c0-1.23.48-2.39 1.35-3.26.87-.87 2.03-1.35 3.26-1.35s2.39.48 3.26 1.35c.87.87 1.35 2.03 1.35 3.26s-.48 2.39-1.35 3.26c-.87.87-2.03 1.35-3.26 1.35zm0-4.69s-.04 0-.06.02c-.03.03-.03.09 0 .12s.09.03.12 0 .03-.09 0-.12a.107.107 0 0 0-.06-.02z" class="cls-10" style="fill:#eab744"/></g><g id="g405"><circle id="circle401" cx="407.3" cy="452.01" r="2.26"/><path id="path403" d="M407.3 456.61a4.611 4.611 0 0 1-3.26-7.87 4.611 4.611 0 1 1 3.26 7.87zm-.06-4.66s-.03.09 0 .12.09.03.12 0zm0 0 .12.12s.03-.08 0-.12c-.03-.03-.08-.03-.12 0z" class="cls-10" style="fill:#eab744"/></g><g id="g411"><path id="line407" d="m424.02 442.15-20.2-20.21"/><path id="rect409" d="M411.57 417.76h4.69v28.57h-4.69z" class="cls-10" style="fill:#eab744" transform="rotate(-45 413.92 432.049)"/></g><g id="g417"><path id="line413" d="m435.08 431.09-20.21-20.2"/><path id="rect415" d="M422.63 406.7h4.69v28.57h-4.69z" class="cls-10" style="fill:#eab744" transform="rotate(-45 424.979 420.988)"/></g><g id="g423"><path id="line419" d="m446.13 420.03-20.2-20.2"/><path id="rect421" d="M433.69 395.64h4.69v28.57h-4.69z" class="cls-10" style="fill:#eab744" transform="rotate(-45 436.037 409.927)"/></g><g id="g429"><path id="line425" d="m457.19 408.97-20.2-20.2"/><path id="rect427" d="M444.74 384.59h4.69v28.57h-4.69z" class="cls-10" style="fill:#eab744" transform="rotate(-45 447.067 398.869)"/></g><g id="g435"><path id="polygon431" d="m361.27 479.87 4.69-.08.13 7.61 8.28.66-.37 4.68-12.53-1z" class="cls-10" style="fill:#eab744"/><path id="polygon433" d="m352.42 471.02 4.7-.08.12 7.62 8.28.65-.37 4.68-12.53-.99z" class="cls-10" style="fill:#eab744"/></g><g id="g441"><path id="polygon437" d="m349.11 492.03 4.69-.08.13 7.61 8.28.66-.38 4.68-12.52-1z" class="cls-10" style="fill:#eab744"/><path id="polygon439" d="m340.26 483.19 4.69-.08.13 7.61 8.28.66-.37 4.67-12.53-.99z" class="cls-10" style="fill:#eab744"/></g><g id="g447"><path id="polygon443" d="m336.94 504.2 4.7-.08.12 7.61 8.28.65-.37 4.68-12.52-.99z" class="cls-10" style="fill:#eab744"/><path id="polygon445" d="m328.1 495.35 4.69-.08.13 7.61 8.28.66-.37 4.68-12.53-1z" class="cls-10" style="fill:#eab744"/></g><path id="path449" d="m323.25 531.54-3.32-3.32a7.955 7.955 0 0 0 2.34-5.67c0-2.15-.83-4.16-2.34-5.67l-5.97-5.97 3.32-3.32 5.97 5.97c2.39 2.39 3.71 5.58 3.71 8.99s-1.32 6.6-3.71 8.99z" class="cls-10" style="fill:#eab744"/><path id="path451" d="m308.23 535.36-3.32-3.32a7.955 7.955 0 0 0 2.34-5.67c0-2.15-.83-4.16-2.34-5.67l-5.97-5.97 3.32-3.32 5.97 5.97c2.39 2.39 3.71 5.58 3.71 8.99s-1.32 6.59-3.71 8.99z" class="cls-10" style="fill:#eab744"/><path id="path453" d="m292.04 536.16-3.32-3.32a8.021 8.021 0 0 0 0-11.34l-5.97-5.97 3.32-3.32 5.97 5.97c4.96 4.96 4.96 13.02 0 17.98z" class="cls-10" style="fill:#eab744"/><g id="g459"><circle id="circle455" cx="373.02" cy="461.96" r="2.26"/><path id="path457" d="M373.02 466.56c-1.18 0-2.36-.45-3.26-1.35a4.584 4.584 0 0 1-1.35-3.26c0-1.23.48-2.39 1.35-3.26 1.8-1.79 4.72-1.8 6.52 0 .87.87 1.35 2.03 1.35 3.26s-.48 2.39-1.35 3.26c-.9.9-2.08 1.35-3.26 1.35zm-.06-4.66s-.03.09 0 .12.08.03.12 0zm0 0 .12.12s.03-.09 0-.12a.091.091 0 0 0-.12 0z" class="cls-10" style="fill:#eab744"/></g><g id="g465"><circle id="circle461" cx="384.08" cy="450.9" r="2.26"/><path id="path463" d="M384.08 455.51a4.611 4.611 0 1 1 .002-9.22 4.611 4.611 0 0 1-.002 9.22zm0-4.69s-.05 0-.06.02c-.03.03-.03.08 0 .12.03.03.09.03.12 0s.03-.08 0-.12a.107.107 0 0 0-.06-.02z" class="cls-10" style="fill:#eab744"/></g><g id="g471"><circle id="circle467" cx="385.18" cy="474.12" r="2.26"/><path id="path469" d="M385.18 478.73c-1.18 0-2.36-.45-3.26-1.35a4.584 4.584 0 0 1-1.35-3.26c0-1.23.48-2.39 1.35-3.26 1.8-1.8 4.72-1.79 6.52 0a4.611 4.611 0 0 1-3.26 7.87zm-.06-4.66s-.03.08 0 .12c.03.03.09.03.12 0zm0 0 .12.12s.03-.09 0-.12a.091.091 0 0 0-.12 0z" class="cls-10" style="fill:#eab744"/></g><g id="g477"><circle id="circle473" cx="396.24" cy="463.06" r="2.26"/><path id="path475" d="M396.24 467.67c-1.23 0-2.39-.48-3.26-1.35a4.584 4.584 0 0 1-1.35-3.26c0-1.23.48-2.39 1.35-3.26.87-.87 2.03-1.35 3.26-1.35s2.39.48 3.26 1.35c.87.87 1.35 2.03 1.35 3.26s-.48 2.39-1.35 3.26c-.87.87-2.03 1.35-3.26 1.35zm0-4.69s-.04 0-.06.02c-.03.03-.03.09 0 .12s.09.03.12 0 .03-.09 0-.12a.107.107 0 0 0-.06-.02z" class="cls-10" style="fill:#eab744"/></g></g><g id="g565"><g id="g485"><circle id="circle481" cx="375.9" cy="273.92" r="2.26"/><path id="path483" d="M375.9 278.52a4.611 4.611 0 1 1 .002-9.22 4.611 4.611 0 0 1-.002 9.22zm0-4.69s-.04 0-.06.02c-.03.03-.03.08 0 .12.03.03.09.03.12 0s.03-.08 0-.12a.107.107 0 0 0-.06-.02z" class="cls-10" style="fill:#eab744"/></g><g id="g491"><circle id="circle487" cx="388.06" cy="261.75" r="2.26"/><path id="path489" d="M388.06 266.36c-1.23 0-2.39-.48-3.26-1.35a4.584 4.584 0 0 1-1.35-3.26c0-1.23.48-2.39 1.35-3.26.87-.87 2.03-1.35 3.26-1.35s2.39.48 3.26 1.35c.87.87 1.35 2.03 1.35 3.26s-.48 2.39-1.35 3.26c-.87.87-2.03 1.35-3.26 1.35zm0-4.69s-.05 0-.06.02c-.03.03-.03.09 0 .12s.09.03.12 0 .03-.09 0-.12a.107.107 0 0 0-.06-.02z" class="cls-10" style="fill:#eab744"/></g><g id="g497"><path id="line493" d="M378.2 245.03 358 265.24"/><path id="rect495" d="M353.81 252.79h28.57v4.69h-28.57z" class="cls-10" style="fill:#eab744" transform="rotate(-44.99 368.115 255.145)"/></g><g id="g503"><path id="line499" d="m367.14 233.98-20.2 20.2"/><path id="rect501" d="M342.76 241.73h28.57v4.69h-28.57z" class="cls-10" style="fill:#eab744" transform="rotate(-44.99 357.051 244.085)"/></g><g id="g509"><path id="line505" d="m356.08 222.92-20.2 20.2"/><path id="rect507" d="M331.7 230.67h28.57v4.69H331.7z" class="cls-10" style="fill:#eab744" transform="rotate(-44.99 346 233.03)"/></g><g id="g515"><path id="line511" d="m345.03 211.86-20.2 20.2"/><path id="rect513" d="M320.64 219.62h28.57v4.69h-28.57z" class="cls-10" style="fill:#eab744" transform="rotate(-44.99 334.936 221.97)"/></g><g id="g521"><path id="polygon517" d="m423.46 302.96.65-8.28 4.68.38-.99 12.52-11.88.2-.08-4.69z" class="cls-10" style="fill:#eab744"/><path id="polygon519" d="m414.61 311.81.66-8.28 4.67.37-.99 12.53-11.87.2-.08-4.69z" class="cls-10" style="fill:#eab744"/></g><g id="g527"><path id="polygon523" d="m435.62 315.13.66-8.28 4.67.37-.99 12.52-11.87.2-.08-4.69z" class="cls-10" style="fill:#eab744"/><path id="polygon525" d="m426.77 323.97.66-8.28 4.68.37-1 12.53-11.87.2-.08-4.69z" class="cls-10" style="fill:#eab744"/></g><g id="g533"><path id="polygon529" d="m447.78 327.29.66-8.28 4.68.37-1 12.53-11.87.2-.08-4.69z" class="cls-10" style="fill:#eab744"/><path id="polygon531" d="m438.94 336.13.65-8.27 4.68.37-.99 12.52-11.88.2-.08-4.69z" class="cls-10" style="fill:#eab744"/></g><path id="path535" d="m446.97 355.09-3.32-3.32 5.97-5.97c2.39-2.39 5.58-3.71 8.99-3.71s6.59 1.32 8.99 3.71l-3.32 3.32a7.955 7.955 0 0 0-5.67-2.34c-2.15 0-4.16.83-5.67 2.34z" class="cls-10" style="fill:#eab744"/><path id="path537" d="m450.78 370.11-3.32-3.32 5.97-5.97c4.96-4.96 13.02-4.96 17.97 0l-3.32 3.32a8.021 8.021 0 0 0-11.34 0l-5.97 5.97z" class="cls-10" style="fill:#eab744"/><path id="path539" d="m451.58 386.3-3.32-3.32 5.97-5.97c4.96-4.96 13.02-4.96 17.98 0l-3.32 3.32a8.021 8.021 0 0 0-11.34 0z" class="cls-10" style="fill:#eab744"/><g id="g545"><circle id="circle541" cx="398.01" cy="296.03" r="2.26"/><path id="path543" d="M398.01 300.64c-1.18 0-2.36-.45-3.26-1.35a4.63 4.63 0 0 1 0-6.52 4.611 4.611 0 1 1 3.26 7.87zm-.06-4.55s.09.03.12 0 .03-.08 0-.12zm.06-.14s-.04 0-.06.02c-.03.03-.03.09 0 .12l.12-.12s-.04-.02-.06-.02z" class="cls-10" style="fill:#eab744"/></g><g id="g551"><circle id="circle547" cx="386.95" cy="284.97" r="2.26"/><path id="path549" d="M386.95 289.58c-1.23 0-2.39-.48-3.26-1.35a4.584 4.584 0 0 1-1.35-3.26c0-1.23.48-2.39 1.35-3.26.87-.87 2.03-1.35 3.26-1.35s2.39.48 3.26 1.35c.87.87 1.35 2.03 1.35 3.26s-.48 2.39-1.35 3.26c-.87.87-2.03 1.35-3.26 1.35zm0-4.69s-.04 0-.06.02c-.03.03-.03.09 0 .12s.09.03.12 0 .03-.09 0-.12a.107.107 0 0 0-.06-.02z" class="cls-10" style="fill:#eab744"/></g><g id="g557"><circle id="circle553" cx="410.17" cy="283.87" r="2.26"/><path id="path555" d="M410.17 288.47c-1.18 0-2.36-.45-3.26-1.35a4.584 4.584 0 0 1-1.35-3.26 4.611 4.611 0 1 1 4.61 4.61zm-.06-4.55c.03.03.09.03.12 0s.03-.09 0-.12zm.06-.14s-.04 0-.06.02c-.03.03-.03.09 0 .12l.12-.12s-.04-.02-.06-.02z" class="cls-10" style="fill:#eab744"/></g><g id="g563"><circle id="circle559" cx="399.12" cy="272.81" r="2.26"/><path id="path561" d="M399.12 277.42c-1.23 0-2.39-.48-3.26-1.35a4.584 4.584 0 0 1-1.35-3.26c0-1.23.48-2.39 1.35-3.26.87-.87 2.03-1.35 3.26-1.35s2.39.48 3.26 1.35c.87.87 1.35 2.03 1.35 3.26s-.48 2.39-1.35 3.26c-.87.87-2.03 1.35-3.26 1.35zm0-4.69s-.04 0-.06.02c-.03.03-.03.09 0 .12s.09.03.12 0 .03-.09 0-.12a.107.107 0 0 0-.06-.02z" class="cls-10" style="fill:#eab744"/></g></g><g id="g651"><g id="g571"><circle id="circle567" cx="209.97" cy="293.16" r="2.26"/><path id="path569" d="M209.97 297.76a4.611 4.611 0 1 1 3.26-1.35c-.9.9-2.08 1.35-3.26 1.35zm-.06-4.66s-.03.08 0 .12c.03.03.09.03.12 0zm.06-.02s-.04 0-.06.02l.12.12s.03-.08 0-.12a.107.107 0 0 0-.06-.02z" class="cls-10" style="fill:#eab744"/></g><g id="g577"><circle id="circle573" cx="197.81" cy="280.99" r="2.26"/><path id="path575" d="M197.81 285.6a4.611 4.611 0 1 1 3.26-1.35c-.9.9-2.08 1.35-3.26 1.35zm-.06-4.67s-.03.09 0 .12.08.03.12 0c.03-.03.03-.08 0-.12a.091.091 0 0 0-.12 0z" class="cls-10" style="fill:#eab744"/></g><g id="g583"><path id="line579" d="m181.09 290.85 20.2 20.2"/><path id="rect581" d="M188.84 286.67h4.69v28.57h-4.69z" class="cls-10" style="fill:#eab744" transform="rotate(-45 191.19 300.956)"/></g><g id="g589"><path id="line585" d="m170.03 301.91 20.2 20.2"/><path id="rect587" d="M177.79 297.73h4.69v28.57h-4.69z" class="cls-10" style="fill:#eab744" transform="rotate(-45 180.132 312.017)"/></g><g id="g595"><path id="line591" d="m158.97 312.97 20.21 20.2"/><path id="rect593" d="M166.73 308.78h4.69v28.57h-4.69z" class="cls-10" style="fill:#eab744" transform="rotate(-45 169.078 323.066)"/></g><g id="g601"><path id="line597" d="m147.92 324.02 20.2 20.21"/><path id="rect599" d="M155.67 319.84h4.69v28.57h-4.69z" class="cls-10" style="fill:#eab744" transform="rotate(-45 158.02 334.126)"/></g><g id="g607"><path id="polygon603" d="m230.74 244.94.37-4.68 12.53 1 .2 11.87-4.69.08-.13-7.61z" class="cls-10" style="fill:#eab744"/><path id="polygon605" d="m239.58 253.79.38-4.68 12.52.99.2 11.87-4.69.08-.13-7.61z" class="cls-10" style="fill:#eab744"/></g><g id="g613"><path id="polygon609" d="m242.9 232.78.37-4.68 12.53.99.2 11.88-4.69.07-.13-7.61z" class="cls-10" style="fill:#eab744"/><path id="polygon611" d="m251.75 241.62.37-4.67 12.52.99.21 11.87-4.7.08-.12-7.61z" class="cls-10" style="fill:#eab744"/></g><g id="g619"><path id="polygon615" d="m255.06 220.61.38-4.67 12.52.99.2 11.87-4.69.08-.13-7.61z" class="cls-10" style="fill:#eab744"/><path id="polygon617" d="m263.91 229.46.37-4.68 12.53 1 .2 11.87-4.69.08-.13-7.61z" class="cls-10" style="fill:#eab744"/></g><path id="path621" d="m287.83 225.4-5.97-5.97c-4.96-4.96-4.96-13.02 0-17.98l3.32 3.32a8.021 8.021 0 0 0 0 11.34l5.97 5.97z" class="cls-10" style="fill:#eab744"/><path id="path623" d="m302.85 221.58-5.97-5.97c-4.96-4.96-4.96-13.02 0-17.98l3.32 3.32a8.021 8.021 0 0 0 0 11.34l5.97 5.97z" class="cls-10" style="fill:#eab744"/><path id="path625" d="m319.04 220.79-5.97-5.97c-4.96-4.96-4.96-13.02 0-17.98l3.32 3.32a8.021 8.021 0 0 0 0 11.34l5.97 5.97z" class="cls-10" style="fill:#eab744"/><g id="g631"><circle id="circle627" cx="232.09" cy="271.04" r="2.26"/><path id="path629" d="M232.08 275.65a4.611 4.611 0 1 1 3.26-1.35c-.9.9-2.08 1.35-3.26 1.35zm-.06-4.67s-.03.09 0 .12.08.03.12 0c.03-.03.03-.08 0-.12a.091.091 0 0 0-.12 0z" class="cls-10" style="fill:#eab744"/></g><g id="g637"><circle id="circle633" cx="221.03" cy="282.1" r="2.26"/><path id="path635" d="M221.03 286.71c-1.23 0-2.39-.48-3.26-1.35a4.584 4.584 0 0 1-1.35-3.26c0-1.23.48-2.39 1.35-3.26.87-.87 2.03-1.35 3.26-1.35s2.39.48 3.26 1.35c.87.87 1.35 2.03 1.35 3.26s-.48 2.39-1.35 3.26c-.87.87-2.03 1.35-3.26 1.35zm-.06-4.67s-.03.09 0 .12.09.03.12 0 .03-.09 0-.12a.091.091 0 0 0-.12 0z" class="cls-10" style="fill:#eab744"/></g><g id="g643"><circle id="circle639" cx="219.92" cy="258.88" r="2.26"/><path id="path641" d="M219.92 263.49c-1.23 0-2.39-.48-3.26-1.35a4.584 4.584 0 0 1-1.35-3.26c0-1.23.48-2.39 1.35-3.26.87-.87 2.03-1.35 3.26-1.35s2.39.48 3.26 1.35c.87.87 1.35 2.03 1.35 3.26s-.48 2.39-1.35 3.26c-.87.87-2.03 1.35-3.26 1.35zm-.06-4.67s-.03.09 0 .12.09.03.12 0zm.06-.02s-.04 0-.06.02l.12.12s.03-.09 0-.12a.107.107 0 0 0-.06-.02z" class="cls-10" style="fill:#eab744"/></g><g id="g649"><circle id="circle645" cx="208.87" cy="269.94" r="2.26"/><path id="path647" d="M208.87 274.54c-1.23 0-2.39-.48-3.26-1.35a4.584 4.584 0 0 1-1.35-3.26c0-1.23.48-2.39 1.35-3.26.87-.87 2.03-1.35 3.26-1.35s2.39.48 3.26 1.35c.87.87 1.35 2.03 1.35 3.26s-.48 2.39-1.35 3.26c-.87.87-2.03 1.35-3.26 1.35zm-.06-4.67s-.03.09 0 .12.09.03.12 0 .03-.09 0-.12a.091.091 0 0 0-.12 0z" class="cls-10" style="fill:#eab744"/></g></g></g><g id="g659"><rect id="rect655" width="195.09" height="195.1" x="205.01" y="268.95" rx="28.88" ry="28.88" transform="rotate(45 302.55 366.5)"/><path id="path657" d="M302.55 494.7c-7.97 0-15.93-3.03-22-9.1l-97.11-97.11c-12.13-12.13-12.13-31.86 0-43.99l97.11-97.11c12.13-12.13 31.86-12.13 43.99 0l97.11 97.11c12.13 12.13 12.13 31.86 0 43.99l-97.11 97.11-1.58-1.58 1.58 1.58c-6.06 6.06-14.03 9.1-22 9.1zm0-251.96c-6.83 0-13.65 2.6-18.85 7.79l-97.11 97.11c-10.39 10.39-10.39 27.3 0 37.69l97.11 97.11c10.39 10.39 27.3 10.39 37.69 0l97.11-97.11c10.39-10.39 10.39-27.3 0-37.69l-97.11-97.11c-5.2-5.19-12.02-7.79-18.84-7.79z" class="cls-10" style="fill:#eab744"/></g></g><g id="g727"><ellipse id="ellipse663" cx="310.01" cy="374.62" class="cls-3" rx="103.37" ry="68.27" style="fill:#eab744;stroke:#000;stroke-width:9.82999992px;stroke-linecap:round;stroke-linejoin:round"/><ellipse id="ellipse665" cx="310.01" cy="374.62" class="cls-3" rx="82.14" ry="47.05" style="fill:#eab744;stroke:#000;stroke-width:9.82999992px;stroke-linecap:round;stroke-linejoin:round"/><ellipse id="ellipse667" cx="310.01" cy="374.62" rx="60.92" ry="25.83" style="stroke:#000;stroke-width:9.82999992px;stroke-linecap:round;stroke-linejoin:round"/><path id="path669" d="M502.79 396.53c-39.21-193.67-180.06-217.67-180.06-217.67l-11.2 14.94c33.08 128.04 10.67 187.8 10.67 187.8h61.35l23.61 14.94h95.63z" class="cls-10" style="fill:#eab744"/><g id="g681"><path id="line671" d="M386.31 368.79h108.51" class="cls-9" style="fill:none;stroke:#08416b;stroke-width:14.73999977px;stroke-miterlimit:10"/><path id="line673" d="M386.31 336.85h98.68" class="cls-9" style="fill:none;stroke:#08416b;stroke-width:14.73999977px;stroke-miterlimit:10"/><path id="line675" d="M381.4 304.92h91.31" class="cls-9" style="fill:none;stroke:#08416b;stroke-width:14.73999977px;stroke-miterlimit:10"/><path id="line677" d="M374.03 272.99h79.03" class="cls-9" style="fill:none;stroke:#08416b;stroke-width:14.73999977px;stroke-miterlimit:10"/><path id="line679" d="M361.75 241.05h64.29" class="cls-9" style="fill:none;stroke:#08416b;stroke-width:14.73999977px;stroke-miterlimit:10"/></g><path id="path683" d="M502.79 396.53c-39.21-193.67-180.06-217.67-180.06-217.67l-11.2 14.94c33.08 128.04 10.67 187.8 10.67 187.8h61.35l23.61 14.94h95.63z" class="cls-4" style="fill:none;stroke:#000;stroke-width:9.82999992px;stroke-linecap:round;stroke-linejoin:round"/><path id="path685" d="M222.96 270.62s-4.27-13.87-58.69-17.07c0 0-51.22 9.6-68.29-34.15l101.91-28.81s5.86-22.41 32.53-28.81c0 0 8.54-22.41 13.87-70.42 5.34-48.02 13.87-40.55 16.01-20.27 2.13 20.27 9.6 82.16 9.6 82.16s16.01-18.14 25.08-56.02c9.07-37.88 6.94-34.15 6.94-34.15s3.2-19.13 11.74-7.7 31.48 67.99 9.07 123.47l-11.2 14.94s22.44 71.6 17.09 151.84c0 0-54.38 31.53-67.15-3.77l3.11-33.9s1.6-40.01-41.61-37.35z" style="stroke:#000;stroke-width:7.36999989px;stroke-linecap:round;stroke-linejoin:round"/><path id="path687" d="M211.55 189.46c.53-.53 13.07-12.99 31.47-12.99 8.47 0 16.77 2.61 24.67 7.77" style="fill:none;stroke:#eab744;stroke-width:7.36999989px;stroke-miterlimit:10"/><path id="path689" d="M218.94 197.26s18.99-19.21 42.52-3.84c0 0-5.81 32.65-42.52 3.84z" class="cls-10" style="fill:#eab744"/><path id="path691" d="M239.04 189.77c-2.57 3.55-3.17 8.99-1.14 14.22 2.04 5.23 6.15 8.83 10.45 9.7 2.57-3.55 3.17-8.99 1.14-14.22-2.03-5.23-6.15-8.83-10.45-9.7z"/><ellipse id="ellipse693" cx="294.92" cy="408.81" rx="15.08" ry="26.89" style="fill:#2abca0;stroke:#000;stroke-width:7.98000002px;stroke-miterlimit:10"/><path id="path695" d="M305.39 53.7c2.69 59.39-10.46 111.83-10.46 111.83l16.6 28.26 11.2-14.94c22.41-55.49-.53-112.04-9.07-123.47-3.7-4.96-6.4-4.17-8.27-1.68z" style="fill:#eab744;stroke:#000;stroke-width:7.36999989px;stroke-linecap:round;stroke-linejoin:round"/><path id="line697" d="M269.91 342.93h58.7" style="stroke:#eab744;stroke-width:9.82999992px;stroke-linecap:round;stroke-linejoin:round"/><path id="path699" d="M222.96 270.62s-20.27 59.75-14.94 110.97h61.89s-2.13-29.88-5.34-73.63c-3.2-43.75-41.61-37.35-41.61-37.35z" class="cls-10" style="fill:#eab744"/><g id="g707"><path id="line701" d="M211.91 354.05h52.01" class="cls-9" style="fill:none;stroke:#08416b;stroke-width:14.73999977px;stroke-miterlimit:10"/><path id="line703" d="M211.91 322.12h52.01" class="cls-9" style="fill:none;stroke:#08416b;stroke-width:14.73999977px;stroke-miterlimit:10"/><path id="line705" d="M216.82 290.18h44.64" class="cls-9" style="fill:none;stroke:#08416b;stroke-width:14.73999977px;stroke-miterlimit:10"/></g><path id="path709" d="M222.96 270.62s-20.27 59.75-14.94 110.97h61.89s-2.13-29.88-5.34-73.63c-3.2-43.75-41.61-37.35-41.61-37.35z" class="cls-4" style="fill:none;stroke:#000;stroke-width:9.82999992px;stroke-linecap:round;stroke-linejoin:round"/><path id="path711" d="m316.27 187.46-4.75 6.33c33.08 128.04 10.67 187.8 10.67 187.8h61.35c9.07-148.2-67.28-194.13-67.28-194.13z" class="cls-10" style="fill:#eab744"/><g id="g723"><path id="line713" d="M329.81 354.05h52.02" class="cls-9" style="fill:none;stroke:#08416b;stroke-width:14.73999977px;stroke-miterlimit:10"/><path id="line715" d="M329.81 322.12h52.02" class="cls-9" style="fill:none;stroke:#08416b;stroke-width:14.73999977px;stroke-miterlimit:10"/><path id="line717" d="M327.36 290.18h52.01" class="cls-9" style="fill:none;stroke:#08416b;stroke-width:14.73999977px;stroke-miterlimit:10"/><path id="line719" d="M324.9 258.25h42.19" class="cls-9" style="fill:none;stroke:#08416b;stroke-width:14.73999977px;stroke-miterlimit:10"/><path id="line721" d="M319.99 226.32h32.36" class="cls-9" style="fill:none;stroke:#08416b;stroke-width:14.73999977px;stroke-miterlimit:10"/></g><path id="path725" d="M316.27 187.46v0l-4.75 6.33c33.08 128.04 10.67 187.8 10.67 187.8h61.35c9.07-148.2-67.28-194.13-67.28-194.13z" class="cls-4" style="fill:none;stroke:#000;stroke-width:9.82999992px;stroke-linecap:round;stroke-linejoin:round"/></g></g></svg>