<svg xmlns="http://www.w3.org/2000/svg" id="Layer_1" width="435.5" height="524" version="1.1"><defs id="defs235"><style id="style233">.cls-3,.cls-4{stroke:#000;stroke-linecap:round;stroke-linejoin:round}.cls-9{stroke:#08416b;stroke-width:14.74px;stroke-miterlimit:10}.cls-4,.cls-9{fill:none}.cls-10,.cls-3{fill:#eab744}.cls-3,.cls-4{stroke-width:9.83px}</style></defs><g id="g729" transform="translate(-82.2 -38)"><path id="path239" fill="#eab744" d="M517.4 393.6C496.3 288.9 445.7 232.2 407 203a226.4 226.4 0 0 0-66.2-35c15-55.2-6-107.3-16.1-121a30.4 30.4 0 0 0-6-5.9l-1.6-1c-.3 0-.5-.2-.8-.3l-.1-.1-1.4-.6a17 17 0 0 0-6.2-1.2h-1.3l-1.8.3-.8.2a14 14 0 0 0-2.2.7l-.8.3a18.8 18.8 0 0 0-7.3 6l-.5.7c-3.5 5-5 11.3-5.5 14.6-.2 1.1-.3 2.3-.2 3.4a523.6 523.6 0 0 1-10 42.3l-4.3-36.8c-1.9-18.6-8.5-28-19.5-28-5 0-12 2.2-16.5 12.8-3 7.1-5.4 18.3-7.3 35.4a372.5 372.5 0 0 1-11 60.9 57.9 57.9 0 0 0-31.9 28.4l-95.5 27a13.8 13.8 0 0 0-9 18.2 66 66 0 0 0 50.6 42 94.5 94.5 0 0 0 31.1 1l6.8.5-40.7 40.7a81.4 81.4 0 0 0-24 58c0 21.9 8.6 42.4 24 57.9L244.6 538a81.6 81.6 0 0 0 115.9 0l113.6-113.6c4-4 7.5-8.3 10.5-13h18.2a15 15 0 0 0 14.6-18z" class="cls-10"/><g id="g661"><g id="g245"><rect id="rect241" width="273.2" height="273.2" x="165.9" y="229.9" rx="56.3" ry="56.3" transform="rotate(-135 302.6 366.5)"/><path id="path243" d="M302.6 552a71.4 71.4 0 0 1-51-21L138.2 417.3a71.4 71.4 0 0 1-21-50.9c0-19.3 7.5-37.3 21-50.9L251.8 202a72 72 0 0 1 101.7 0L467 315.6a71.4 71.4 0 0 1 21 50.9c0 19.3-7.5 37.3-21 50.9L353.4 530.9a71.4 71.4 0 0 1-50.8 21zm0-339.7c-10.5 0-20.9 4-28.8 11.9L160.2 337.7a40.4 40.4 0 0 0-11.8 28.8c0 10.9 4.2 21.1 11.8 28.7l113.6 113.6a40.3 40.3 0 0 0 28.8 11.9c10.9 0 21-4.2 28.7-11.9l113.6-113.6a40.4 40.4 0 0 0 11.8-28.7c0-11-4.2-21.1-11.8-28.8L331.3 224.2c-8-8-18.3-12-28.8-12z"/></g><g id="g653" opacity=".3" style="opacity:.3"><g id="g307"><g id="g251"><circle id="circle247" cx="229.2" cy="459.1" r="2.3"/><path id="path249" fill="#eab744" d="M229.2 463.7a4.6 4.6 0 0 1-4.6-4.6 4.6 4.6 0 0 1 4.6-4.6c1.2 0 2.4.4 3.3 1.3a4.6 4.6 0 0 1 0 6.5c-.9 1-2 1.4-3.3 1.4zm0-4.6c.1 0 .1 0 0 0 0-.1 0-.1 0 0z" class="cls-10"/></g><g id="g257"><circle id="circle253" cx="217.1" cy="471.2" r="2.3"/><path id="path255" fill="#eab744" d="M217 475.9a4.6 4.6 0 0 1-4.6-4.7 4.6 4.6 0 0 1 4.7-4.6 4.6 4.6 0 0 1 4.6 4.6 4.6 4.6 0 0 1-4.6 4.7zm0-4.6h.1v-.1h-.1v.1z" class="cls-10"/></g><g id="g263"><path id="line259" d="m226.9 488 20.2-20.2"/><path id="rect261" fill="#eab744" d="M222.7 475.5h28.6v4.7h-28.6z" class="cls-10" transform="rotate(-45 237 477.9)"/></g><g id="g269"><path id="line265" d="m238 499 20.2-20.2"/><path id="rect267" fill="#eab744" d="M233.8 486.6h28.6v4.7h-28.6z" class="cls-10" transform="rotate(-45 248 489)"/></g><g id="g275"><path id="line271" d="m249 510.1 20.2-20.2"/><path id="rect273" fill="#eab744" d="M244.8 497.6h28.6v4.7h-28.6z" class="cls-10" transform="rotate(-45 259.1 500)"/></g><g id="g281"><path id="line277" d="m260.1 521.1 20.2-20.2"/><path id="rect279" fill="#eab744" d="M255.9 508.7h28.6v4.7h-28.6z" class="cls-10" transform="rotate(-45 270.2 511)"/></g><g id="g287"><path id="polygon283" fill="#eab744" d="m177.3 425.4 11.9-.2.1 4.7-7.6.1-.7 8.3-4.7-.4z" class="cls-10"/><path id="polygon285" fill="#eab744" d="m186.2 416.6 11.8-.2.1 4.7-7.6.1-.7 8.3-4.6-.4z" class="cls-10"/></g><g id="g293"><path id="polygon289" fill="#eab744" d="m165.2 413.3 11.8-.2.1 4.6-7.6.2-.7 8.2-4.6-.3z" class="cls-10"/><path id="polygon291" fill="#eab744" d="m174 404.4 11.9-.2v4.7l-7.6.1-.6 8.3-4.7-.4z" class="cls-10"/></g><g id="g299"><path id="polygon295" fill="#eab744" d="m153 401.1 11.9-.2v4.7l-7.6.1-.6 8.3-4.7-.4z" class="cls-10"/><path id="polygon297" fill="#eab744" d="m161.8 392.3 11.9-.3.1 4.7-7.6.2-.7 8.2-4.7-.3z" class="cls-10"/></g><path id="path301" fill="#eab744" d="M146.5 391c-3.3 0-6.5-1.3-9-3.8l3.3-3.3a8 8 0 0 0 11.4 0l6-6 3.3 3.3-6 6a12.7 12.7 0 0 1-9 3.7z" class="cls-10"/><path id="path303" fill="#eab744" d="M142.7 375.9c-3.3 0-6.5-1.2-9-3.7l3.3-3.4a8 8 0 0 0 11.3 0l6-6 3.3 3.4-6 6a12.7 12.7 0 0 1-9 3.7z" class="cls-10"/><path id="path305" fill="#eab744" d="M141.9 359.7c-3.3 0-6.5-1.2-9-3.7l3.3-3.3a8 8 0 0 0 11.3 0l6-6 3.3 3.3-6 6a12.7 12.7 0 0 1-9 3.7z" class="cls-10"/></g><g id="g393"><g id="g313"><circle id="circle309" cx="229.2" cy="459.1" r="2.3"/><path id="path311" fill="#eab744" d="M229.2 463.7a4.6 4.6 0 0 1-4.6-4.6 4.6 4.6 0 0 1 4.6-4.6c1.2 0 2.4.4 3.3 1.3a4.6 4.6 0 0 1 0 6.5c-.9 1-2 1.4-3.3 1.4zm0-4.6c.1 0 .1 0 0 0 0-.1 0-.1 0 0z" class="cls-10"/></g><g id="g319"><circle id="circle315" cx="217.1" cy="471.2" r="2.3"/><path id="path317" fill="#eab744" d="M217 475.9a4.6 4.6 0 0 1-4.6-4.7 4.6 4.6 0 0 1 4.7-4.6 4.6 4.6 0 0 1 4.6 4.6 4.6 4.6 0 0 1-4.6 4.7zm0-4.6h.1v-.1h-.1v.1z" class="cls-10"/></g><g id="g325"><path id="line321" d="m226.9 488 20.2-20.2"/><path id="rect323" fill="#eab744" d="M222.7 475.5h28.6v4.7h-28.6z" class="cls-10" transform="rotate(-45 237 477.9)"/></g><g id="g331"><path id="line327" d="m238 499 20.2-20.2"/><path id="rect329" fill="#eab744" d="M233.8 486.6h28.6v4.7h-28.6z" class="cls-10" transform="rotate(-45 248 489)"/></g><g id="g337"><path id="line333" d="m249 510.1 20.2-20.2"/><path id="rect335" fill="#eab744" d="M244.8 497.6h28.6v4.7h-28.6z" class="cls-10" transform="rotate(-45 259.1 500)"/></g><g id="g343"><path id="line339" d="m260.1 521.1 20.2-20.2"/><path id="rect341" fill="#eab744" d="M255.9 508.7h28.6v4.7h-28.6z" class="cls-10" transform="rotate(-45 270.2 511)"/></g><g id="g349"><path id="polygon345" fill="#eab744" d="m177.3 425.4 11.9-.2.1 4.7-7.6.1-.7 8.3-4.7-.4z" class="cls-10"/><path id="polygon347" fill="#eab744" d="m186.2 416.6 11.8-.2.1 4.7-7.6.1-.7 8.3-4.6-.4z" class="cls-10"/></g><g id="g355"><path id="polygon351" fill="#eab744" d="m165.2 413.3 11.8-.2.1 4.6-7.6.2-.7 8.2-4.6-.3z" class="cls-10"/><path id="polygon353" fill="#eab744" d="m174 404.4 11.9-.2v4.7l-7.6.1-.6 8.3-4.7-.4z" class="cls-10"/></g><g id="g361"><path id="polygon357" fill="#eab744" d="m153 401.1 11.9-.2v4.7l-7.6.1-.6 8.3-4.7-.4z" class="cls-10"/><path id="polygon359" fill="#eab744" d="m161.8 392.3 11.9-.3.1 4.7-7.6.2-.7 8.2-4.7-.3z" class="cls-10"/></g><path id="path363" fill="#eab744" d="M146.5 391c-3.3 0-6.5-1.3-9-3.8l3.3-3.3a8 8 0 0 0 11.4 0l6-6 3.3 3.3-6 6a12.7 12.7 0 0 1-9 3.7z" class="cls-10"/><path id="path365" fill="#eab744" d="M142.7 375.9c-3.3 0-6.5-1.2-9-3.7l3.3-3.4a8 8 0 0 0 11.3 0l6-6 3.3 3.4-6 6a12.7 12.7 0 0 1-9 3.7z" class="cls-10"/><path id="path367" fill="#eab744" d="M141.9 359.7c-3.3 0-6.5-1.2-9-3.7l3.3-3.3a8 8 0 0 0 11.3 0l6-6 3.3 3.3-6 6a12.7 12.7 0 0 1-9 3.7z" class="cls-10"/><g id="g373"><circle id="circle369" cx="207.1" cy="437" r="2.3"/><path id="path371" fill="#eab744" d="M207.1 441.6a4.6 4.6 0 0 1-3.3-7.9 4.6 4.6 0 0 1 6.6 0 4.6 4.6 0 0 1 0 6.5c-1 1-2.1 1.4-3.3 1.4zm0-4.7v.1zm0 0v.1-.1z" class="cls-10"/></g><g id="g379"><circle id="circle375" cx="218.1" cy="448" r="2.3"/><path id="path377" fill="#eab744" d="M218.2 452.6a4.6 4.6 0 0 1-3.3-7.8 4.6 4.6 0 0 1 6.5 0 4.6 4.6 0 0 1-3.2 7.8zm0-4.6h-.1s0 .1.1 0zm0 0h-.1.1z" class="cls-10"/></g><g id="g385"><circle id="circle381" cx="194.9" cy="449.1" r="2.3"/><path id="path383" fill="#eab744" d="M195 453.7c-1.3 0-2.5-.4-3.3-1.3a4.6 4.6 0 1 1 3.2 1.3zm0-4.6h-.1c0 .1 0 .1 0 0 .1 0 .1 0 0 0z" class="cls-10"/></g><g id="g391"><circle id="circle387" cx="206" cy="460.2" r="2.3"/><path id="path389" fill="#eab744" d="M206 464.8a4.6 4.6 0 0 1-3.3-7.9 4.6 4.6 0 0 1 6.6 0 4.6 4.6 0 0 1-3.3 7.9zm0-4.7v.1zm0 0c-.1 0-.1.1 0 .1z" class="cls-10"/></g></g><g id="g479"><g id="g399"><circle id="circle395" cx="395.1" cy="439.8" r="2.3"/><path id="path397" fill="#eab744" d="M395.1 444.4a4.6 4.6 0 0 1-4.6-4.6c0-1.2.5-2.4 1.4-3.2a4.6 4.6 0 0 1 6.5 0 4.6 4.6 0 0 1 0 6.5c-.9.9-2 1.3-3.3 1.3zm0-4.6v.1h.1v-.1z" class="cls-10"/></g><g id="g405"><circle id="circle401" cx="407.3" cy="452" r="2.3"/><path id="path403" fill="#eab744" d="M407.3 456.6a4.6 4.6 0 0 1-3.3-7.9 4.6 4.6 0 1 1 3.3 8zm0-4.7v.2zm0 0v.2-.2z" class="cls-10"/></g><g id="g411"><path id="line407" d="m424 442.1-20.2-20.2"/><path id="rect409" fill="#eab744" d="M411.6 417.8h4.7v28.6h-4.7z" class="cls-10" transform="rotate(-45 414 432)"/></g><g id="g417"><path id="line413" d="m435.1 431.1-20.2-20.2"/><path id="rect415" fill="#eab744" d="M422.6 406.7h4.7v28.6h-4.7z" class="cls-10" transform="rotate(-45 425 421)"/></g><g id="g423"><path id="line419" d="m446.1 420-20.2-20.2"/><path id="rect421" fill="#eab744" d="M433.7 395.6h4.7v28.6h-4.7z" class="cls-10" transform="rotate(-45 436 410)"/></g><g id="g429"><path id="line425" d="M457.2 409 437 388.8"/><path id="rect427" fill="#eab744" d="M444.7 384.6h4.7v28.6h-4.7z" class="cls-10" transform="rotate(-45 447 398.9)"/></g><g id="g435"><path id="polygon431" fill="#eab744" d="m361.3 479.9 4.7-.1.1 7.6 8.3.7-.4 4.6-12.5-1z" class="cls-10"/><path id="polygon433" fill="#eab744" d="m352.4 471 4.7-.1.1 7.7 8.3.6-.4 4.7-12.5-1z" class="cls-10"/></g><g id="g441"><path id="polygon437" fill="#eab744" d="m349.1 492 4.7-.1.1 7.7 8.3.6-.4 4.7-12.5-1z" class="cls-10"/><path id="polygon439" fill="#eab744" d="m340.3 483.2 4.6-.1.2 7.6 8.3.7-.4 4.7-12.5-1z" class="cls-10"/></g><g id="g447"><path id="polygon443" fill="#eab744" d="m336.9 504.2 4.7-.1.2 7.6 8.2.7-.3 4.7-12.6-1z" class="cls-10"/><path id="polygon445" fill="#eab744" d="m328.1 495.4 4.7-.1.1 7.6 8.3.6-.4 4.7-12.5-1z" class="cls-10"/></g><path id="path449" fill="#eab744" d="m323.3 531.5-3.4-3.3a8 8 0 0 0 2.4-5.7 8 8 0 0 0-2.4-5.6l-6-6 3.4-3.3 6 6a12.7 12.7 0 0 1-.1 18z" class="cls-10"/><path id="path451" fill="#eab744" d="M308.2 535.4 305 532a8 8 0 0 0 2.4-5.6 8 8 0 0 0-2.4-5.7l-6-6 3.4-3.3 6 6a13 13 0 0 1-.1 18z" class="cls-10"/><path id="path453" fill="#eab744" d="m292 536.2-3.3-3.4a8 8 0 0 0 0-11.3l-6-6 3.4-3.3 6 6c4.9 5 4.9 13 0 18z" class="cls-10"/><g id="g459"><circle id="circle455" cx="373" cy="462" r="2.3"/><path id="path457" fill="#eab744" d="M373 466.6a4.6 4.6 0 0 1-3.2-8 4.6 4.6 0 0 1 6.5 6.6c-1 1-2.1 1.4-3.3 1.4zm0-4.7v.1zm0 0v.1s.1 0 0-.1z" class="cls-10"/></g><g id="g465"><circle id="circle461" cx="384.1" cy="450.9" r="2.3"/><path id="path463" fill="#eab744" d="M384 455.5c-1.2 0-2.3-.5-3.2-1.3a4.6 4.6 0 1 1 3.3 1.3zm0-4.7v.2h.1v-.2z" class="cls-10"/></g><g id="g471"><circle id="circle467" cx="385.2" cy="474.1" r="2.3"/><path id="path469" fill="#eab744" d="M385.2 478.7a4.6 4.6 0 0 1-3.3-7.8 4.6 4.6 0 0 1 6.5 6.5c-.9.9-2 1.3-3.2 1.3zm0-4.6s-.1 0 0 0c0 .1 0 .1 0 0zm0 0z" class="cls-10"/></g><g id="g477"><circle id="circle473" cx="396.2" cy="463.1" r="2.3"/><path id="path475" fill="#eab744" d="M396.2 467.7a4.6 4.6 0 0 1-4.6-4.6c0-1.3.5-2.4 1.4-3.3a4.6 4.6 0 0 1 6.5 0 4.6 4.6 0 0 1 0 6.5c-.9.9-2 1.4-3.3 1.4zm0-4.7v.1h.1v-.1z" class="cls-10"/></g></g><g id="g565"><g id="g485"><circle id="circle481" cx="375.9" cy="273.9" r="2.3"/><path id="path483" fill="#eab744" d="M375.9 278.5a4.6 4.6 0 0 1-3.3-7.9 4.6 4.6 0 1 1 3.3 8zm0-4.7v.2-.2z" class="cls-10"/></g><g id="g491"><circle id="circle487" cx="388.1" cy="261.8" r="2.3"/><path id="path489" fill="#eab744" d="M388 266.4c-1.2 0-2.3-.5-3.2-1.4a4.6 4.6 0 0 1 0-6.5 4.6 4.6 0 0 1 6.5 0 4.6 4.6 0 0 1 0 6.5c-.9.9-2 1.4-3.2 1.4zm0-4.7v.1h.1v-.1z" class="cls-10"/></g><g id="g497"><path id="line493" d="M378.2 245 358 265.2"/><path id="rect495" fill="#eab744" d="M353.8 252.8h28.6v4.7h-28.6z" class="cls-10" transform="rotate(-45 368.1 255.1)"/></g><g id="g503"><path id="line499" d="m367.1 234-20.2 20.2"/><path id="rect501" fill="#eab744" d="M342.8 241.7h28.6v4.7h-28.6z" class="cls-10" transform="rotate(-45 357 244)"/></g><g id="g509"><path id="line505" d="m356.1 222.9-20.2 20.2"/><path id="rect507" fill="#eab744" d="M331.7 230.7h28.6v4.7h-28.6z" class="cls-10" transform="rotate(-45 346 233)"/></g><g id="g515"><path id="line511" d="m345 211.9-20.2 20.2"/><path id="rect513" fill="#eab744" d="M320.6 219.6h28.6v4.7h-28.6z" class="cls-10" transform="rotate(-45 335 222)"/></g><g id="g521"><path id="polygon517" fill="#eab744" d="m423.5 303 .6-8.3 4.7.4-1 12.5-11.9.2-.1-4.7z" class="cls-10"/><path id="polygon519" fill="#eab744" d="m414.6 311.8.7-8.3 4.6.4-1 12.5-11.8.2-.1-4.7z" class="cls-10"/></g><g id="g527"><path id="polygon523" fill="#eab744" d="m435.6 315.1.7-8.2 4.6.3-.9 12.5-11.9.2-.1-4.6z" class="cls-10"/><path id="polygon525" fill="#eab744" d="m426.8 324 .6-8.3 4.7.4-1 12.5-11.9.2v-4.7z" class="cls-10"/></g><g id="g533"><path id="polygon529" fill="#eab744" d="m447.8 327.3.6-8.3 4.7.4-1 12.5-11.8.2-.1-4.7z" class="cls-10"/><path id="polygon531" fill="#eab744" d="m438.9 336.1.7-8.2 4.7.3-1 12.6-11.9.1-.1-4.6z" class="cls-10"/></g><path id="path535" fill="#eab744" d="m447 355-3.3-3.2 6-6c2.3-2.4 5.5-3.7 9-3.7 3.3 0 6.5 1.3 8.9 3.7l-3.3 3.3a8 8 0 0 0-5.7-2.3 8 8 0 0 0-5.7 2.3z" class="cls-10"/><path id="path537" fill="#eab744" d="m450.8 370.1-3.3-3.3 6-6c4.9-5 13-5 17.9 0l-3.3 3.3a8 8 0 0 0-11.4 0l-6 6z" class="cls-10"/><path id="path539" fill="#eab744" d="m451.6 386.3-3.3-3.3 6-6c4.9-5 13-5 18 0l-3.4 3.3a8 8 0 0 0-11.3 0z" class="cls-10"/><g id="g545"><circle id="circle541" cx="398" cy="296" r="2.3"/><path id="path543" fill="#eab744" d="M398 300.6c-1.2 0-2.4-.4-3.3-1.3a4.6 4.6 0 1 1 3.3 1.4zm0-4.5c.1 0 .1 0 0-.1zm0-.2v.2-.1z" class="cls-10"/></g><g id="g551"><circle id="circle547" cx="387" cy="285" r="2.3"/><path id="path549" fill="#eab744" d="M387 289.6a4.6 4.6 0 0 1-4.7-4.6 4.6 4.6 0 0 1 4.6-4.6 4.6 4.6 0 0 1 4.7 4.6 4.6 4.6 0 0 1-4.7 4.6zm0-4.7h-.1v.1h.1v-.1z" class="cls-10"/></g><g id="g557"><circle id="circle553" cx="410.2" cy="283.9" r="2.3"/><path id="path555" fill="#eab744" d="M410.2 288.5c-1.2 0-2.4-.5-3.3-1.4a4.6 4.6 0 0 1 0-6.5 4.6 4.6 0 1 1 3.3 7.9zm0-4.6v-.1zm0-.1c-.1 0-.1 0 0 .1v-.1z" class="cls-10"/></g><g id="g563"><circle id="circle559" cx="399.1" cy="272.8" r="2.3"/><path id="path561" fill="#eab744" d="M399.1 277.4a4.6 4.6 0 0 1-4.6-4.6 4.6 4.6 0 0 1 4.6-4.6 4.6 4.6 0 0 1 4.6 4.6 4.6 4.6 0 0 1-4.6 4.6zm0-4.7v.2c.1 0 .1-.1 0-.1z" class="cls-10"/></g></g><g id="g651"><g id="g571"><circle id="circle567" cx="210" cy="293.2" r="2.3"/><path id="path569" fill="#eab744" d="M210 297.8a4.6 4.6 0 0 1-3.3-8 4.6 4.6 0 0 1 6.5 6.6c-.9 1-2 1.4-3.2 1.4zm0-4.7s-.1 0 0 .1zm0 0v.1-.1z" class="cls-10"/></g><g id="g577"><circle id="circle573" cx="197.8" cy="281" r="2.3"/><path id="path575" fill="#eab744" d="M197.8 285.6a4.6 4.6 0 0 1-3.3-7.9 4.6 4.6 0 0 1 6.6 6.6c-1 .8-2.1 1.3-3.3 1.3zm0-4.7v.2c.1 0 .1-.1 0-.2z" class="cls-10"/></g><g id="g583"><path id="line579" d="m181.1 290.9 20.2 20.1"/><path id="rect581" fill="#eab744" d="M188.8 286.7h4.7v28.6h-4.7z" class="cls-10" transform="rotate(-45 191.2 301)"/></g><g id="g589"><path id="line585" d="m170 301.9 20.2 20.2"/><path id="rect587" fill="#eab744" d="M177.8 297.7h4.7v28.6h-4.7z" class="cls-10" transform="rotate(-45 180.1 312)"/></g><g id="g595"><path id="line591" d="m159 313 20.2 20.2"/><path id="rect593" fill="#eab744" d="M166.7 308.8h4.7v28.6h-4.7z" class="cls-10" transform="rotate(-45 169 323)"/></g><g id="g601"><path id="line597" d="m147.9 324 20.2 20.2"/><path id="rect599" fill="#eab744" d="M155.7 319.8h4.7v28.6h-4.7z" class="cls-10" transform="rotate(-45 158 334.1)"/></g><g id="g607"><path id="polygon603" fill="#eab744" d="m230.7 244.9.4-4.6 12.5 1 .2 11.8-4.6.1-.2-7.6z" class="cls-10"/><path id="polygon605" fill="#eab744" d="m239.6 253.8.4-4.7 12.5 1 .2 11.9-4.7.1-.1-7.7z" class="cls-10"/></g><g id="g613"><path id="polygon609" fill="#eab744" d="m242.9 232.8.4-4.7 12.5 1 .2 11.9h-4.7l-.1-7.6z" class="cls-10"/><path id="polygon611" fill="#eab744" d="m251.8 241.6.3-4.7 12.5 1 .3 11.9-4.8.1-.1-7.6z" class="cls-10"/></g><g id="g619"><path id="polygon615" fill="#eab744" d="m255.1 220.6.3-4.7 12.6 1 .2 11.9-4.7.1-.2-7.6z" class="cls-10"/><path id="polygon617" fill="#eab744" d="m263.9 229.5.4-4.7 12.5 1 .2 11.9h-4.7l-.1-7.6z" class="cls-10"/></g><path id="path621" fill="#eab744" d="m287.8 225.4-6-6c-4.9-5-4.9-13 0-18l3.4 3.4a8 8 0 0 0 0 11.3l6 6z" class="cls-10"/><path id="path623" fill="#eab744" d="m302.9 221.6-6-6c-5-5-5-13 0-18l3.3 3.4a8 8 0 0 0 0 11.3l6 6z" class="cls-10"/><path id="path625" fill="#eab744" d="m319 220.8-6-6c-4.9-5-4.9-13 0-18l3.4 3.4a8 8 0 0 0 0 11.3l6 6z" class="cls-10"/><g id="g631"><circle id="circle627" cx="232.1" cy="271" r="2.3"/><path id="path629" fill="#eab744" d="M232 275.6a4.6 4.6 0 0 1-3.2-7.8 4.6 4.6 0 0 1 6.5 6.5c-.9.9-2 1.3-3.2 1.3zm0-4.6v.1h.1v-.1z" class="cls-10"/></g><g id="g637"><circle id="circle633" cx="221" cy="282.1" r="2.3"/><path id="path635" fill="#eab744" d="M221 286.7a4.6 4.6 0 0 1-4.6-4.6 4.6 4.6 0 0 1 4.6-4.6 4.6 4.6 0 0 1 4.6 4.6c0 1.2-.4 2.4-1.3 3.3-.9.8-2 1.3-3.3 1.3zm0-4.7v.2c.1 0 .1-.1 0-.2z" class="cls-10"/></g><g id="g643"><circle id="circle639" cx="219.9" cy="258.9" r="2.3"/><path id="path641" fill="#eab744" d="M220 263.5a4.6 4.6 0 0 1-4.7-4.6 4.6 4.6 0 0 1 4.6-4.6 4.6 4.6 0 0 1 4.6 4.6c0 1.2-.5 2.4-1.3 3.2-.9 1-2 1.4-3.3 1.4zm-.1-4.7v.1zm0 0v.1s.1 0 0 0v-.1z" class="cls-10"/></g><g id="g649"><circle id="circle645" cx="208.9" cy="269.9" r="2.3"/><path id="path647" fill="#eab744" d="M208.9 274.5a4.6 4.6 0 0 1-4.6-4.6 4.6 4.6 0 0 1 4.6-4.6 4.6 4.6 0 0 1 4.6 4.6c0 1.3-.5 2.4-1.4 3.3-.8.9-2 1.3-3.2 1.3zm0-4.6s-.1 0 0 0c0 .1 0 .1 0 0z" class="cls-10"/></g></g></g><g id="g659"><rect id="rect655" width="195.1" height="195.1" x="205" y="269" rx="28.9" ry="28.9" transform="rotate(45 302.6 366.5)"/><path id="path657" fill="#eab744" d="M302.6 494.7c-8 0-16-3-22-9.1l-97.2-97.1a31.1 31.1 0 0 1 0-44l97.1-97.1a31.1 31.1 0 0 1 44 0l97.2 97.1a31.1 31.1 0 0 1 0 44l-97.2 97.1-1.5-1.6 1.5 1.6c-6 6-14 9.1-22 9.1zm0-252c-6.9 0-13.7 2.6-18.9 7.8l-97.1 97.1a26.7 26.7 0 0 0 0 37.7l97.1 97.1a26.7 26.7 0 0 0 37.7 0l97.1-97a26.7 26.7 0 0 0 0-37.8l-97.1-97c-5.2-5.3-12-7.9-18.8-7.9z" class="cls-10"/></g></g><g id="g727"><ellipse id="ellipse663" cx="310" cy="374.6" fill="#eab744" stroke="#000" stroke-linecap="round" stroke-linejoin="round" stroke-width="9.8" class="cls-3" rx="103.4" ry="68.3"/><ellipse id="ellipse665" cx="310" cy="374.6" fill="#eab744" stroke="#000" stroke-linecap="round" stroke-linejoin="round" stroke-width="9.8" class="cls-3" rx="82.1" ry="47"/><ellipse id="ellipse667" cx="310" cy="374.6" stroke="#000" stroke-linecap="round" stroke-linejoin="round" stroke-width="9.8" rx="60.9" ry="25.8" style="stroke-width:9.83px;stroke-linecap:round;stroke-linejoin:round;stroke:#000"/><path id="path669" fill="#eab744" d="M502.8 396.5C463.6 203 322.8 179 322.8 179l-11.3 14.9c33.1 128 10.7 187.8 10.7 187.8h61.4l23.6 15h95.6z" class="cls-10"/><g id="g681"><path id="line671" fill="none" stroke="#08416b" stroke-miterlimit="10" stroke-width="14.7" d="M386.3 368.8h108.5" class="cls-9"/><path id="line673" fill="none" stroke="#08416b" stroke-miterlimit="10" stroke-width="14.7" d="M386.3 336.9H485" class="cls-9"/><path id="line675" fill="none" stroke="#08416b" stroke-miterlimit="10" stroke-width="14.7" d="M381.4 304.9h91.3" class="cls-9"/><path id="line677" fill="none" stroke="#08416b" stroke-miterlimit="10" stroke-width="14.7" d="M374 273h79.1" class="cls-9"/><path id="line679" fill="none" stroke="#08416b" stroke-miterlimit="10" stroke-width="14.7" d="M361.8 241.1H426" class="cls-9"/></g><path id="path683" fill="none" stroke="#000" stroke-linecap="round" stroke-linejoin="round" stroke-width="9.8" d="M502.8 396.5C463.6 203 322.8 179 322.8 179l-11.3 14.9c33.1 128 10.7 187.8 10.7 187.8h61.4l23.6 15h95.6z" class="cls-4"/><path id="path685" stroke="#000" stroke-linecap="round" stroke-linejoin="round" stroke-width="7.4" d="M223 270.6s-4.3-13.9-58.7-17c0 0-51.3 9.6-68.3-34.2l101.9-28.8s5.8-22.4 32.5-28.8c0 0 8.6-22.4 13.9-70.4 5.3-48 13.9-40.6 16-20.3 2.1 20.3 9.6 82.2 9.6 82.2s16-18.2 25-56c9.2-38 7-34.2 7-34.2s3.2-19.2 11.8-7.7c8.5 11.4 31.4 68 9 123.4l-11.2 15s22.5 71.6 17.1 151.8c0 0-54.4 31.6-67.1-3.7l3-34s1.7-40-41.5-37.3z" style="stroke-width:7.37px;stroke-linecap:round;stroke-linejoin:round;stroke:#000"/><path id="path687" fill="none" stroke="#eab744" stroke-miterlimit="10" stroke-width="7.4" d="M211.6 189.5c.5-.6 13-13 31.4-13 8.5 0 16.8 2.6 24.7 7.7" style="stroke:#eab744;fill:none;stroke-miterlimit:10;stroke-width:7.37px"/><path id="path689" fill="#eab744" d="M219 197.3s19-19.3 42.5-3.9c0 0-5.9 32.7-42.6 3.9z" class="cls-10"/><path id="path691" d="M239 189.8c-2.5 3.5-3.1 9-1.1 14.2 2 5.2 6.2 8.8 10.4 9.7 2.6-3.6 3.2-9 1.2-14.2-2-5.3-6.2-8.9-10.5-9.7z"/><ellipse id="ellipse693" cx="294.9" cy="408.8" fill="#2abca0" stroke="#000" stroke-miterlimit="10" stroke-width="8" rx="15.1" ry="26.9" style="fill:#2abca0;stroke-width:7.98px;stroke-miterlimit:10;stroke:#000"/><path id="path695" fill="#eab744" stroke="#000" stroke-linecap="round" stroke-linejoin="round" stroke-width="7.4" d="M305.4 53.7a433.2 433.2 0 0 1-10.5 111.8l16.6 28.3 11.2-15c22.4-55.4-.5-112-9-123.4-3.7-5-6.4-4.2-8.3-1.7z" style="fill:#eab744;stroke-width:7.37px;stroke-linecap:round;stroke-linejoin:round;stroke:#000"/><path id="line697" stroke="#eab744" stroke-linecap="round" stroke-linejoin="round" stroke-width="9.8" d="M269.9 342.9h58.7" style="stroke:#eab744;stroke-width:9.83px;stroke-linecap:round;stroke-linejoin:round"/><path id="path699" fill="#eab744" d="M223 270.6s-20.3 59.8-15 111h62l-5.4-73.6c-3.2-43.8-41.6-37.4-41.6-37.4z" class="cls-10"/><g id="g707"><path id="line701" fill="none" stroke="#08416b" stroke-miterlimit="10" stroke-width="14.7" d="M211.9 354h52" class="cls-9"/><path id="line703" fill="none" stroke="#08416b" stroke-miterlimit="10" stroke-width="14.7" d="M211.9 322.1h52" class="cls-9"/><path id="line705" fill="none" stroke="#08416b" stroke-miterlimit="10" stroke-width="14.7" d="M216.8 290.2h44.7" class="cls-9"/></g><path id="path709" fill="none" stroke="#000" stroke-linecap="round" stroke-linejoin="round" stroke-width="9.8" d="M223 270.6s-20.3 59.8-15 111h62l-5.4-73.6c-3.2-43.8-41.6-37.4-41.6-37.4z" class="cls-4"/><path id="path711" fill="#eab744" d="m316.3 187.5-4.8 6.3c33.1 128 10.7 187.8 10.7 187.8h61.3c9.1-148.2-67.2-194.1-67.2-194.1z" class="cls-10"/><g id="g723"><path id="line713" fill="none" stroke="#08416b" stroke-miterlimit="10" stroke-width="14.7" d="M329.8 354h52" class="cls-9"/><path id="line715" fill="none" stroke="#08416b" stroke-miterlimit="10" stroke-width="14.7" d="M329.8 322.1h52" class="cls-9"/><path id="line717" fill="none" stroke="#08416b" stroke-miterlimit="10" stroke-width="14.7" d="M327.4 290.2h52" class="cls-9"/><path id="line719" fill="none" stroke="#08416b" stroke-miterlimit="10" stroke-width="14.7" d="M324.9 258.3h42.2" class="cls-9"/><path id="line721" fill="none" stroke="#08416b" stroke-miterlimit="10" stroke-width="14.7" d="M320 226.3h32.4" class="cls-9"/></g><path id="path725" fill="none" stroke="#000" stroke-linecap="round" stroke-linejoin="round" stroke-width="9.8" d="M316.3 187.5v0l-4.8 6.3c33.1 128 10.7 187.8 10.7 187.8h61.3c9.1-148.2-67.2-194.1-67.2-194.1z" class="cls-4"/></g></g></svg>