<svg xmlns="http://www.w3.org/2000/svg" id="Layer_1" data-name="Layer 1" version="1.1" width="400.58" height="379.49"><defs id="defs4"><style id="style2">.cls-3{fill:#fff}.cls-13{stroke:#fff}.cls-13,.cls-7{stroke-miterlimit:10}.cls-5{fill:#ed1d3d}.cls-6{fill:#f2b316}.cls-12,.cls-13,.cls-7,.cls-8{fill:#231f20}.cls-12,.cls-7{stroke:#231f20}.cls-7{stroke-width:6.78px}.cls-9{fill:#c1c0bf}.cls-10{fill:#7f4d1b}.cls-12{stroke-linecap:round;stroke-linejoin:round;stroke-width:4.67px}.cls-13{stroke-width:5.6px}</style></defs><path class="cls-3" d="M380.11 232.23H20.47L0 235.09l9.49 29.31c.37 1 13.19 24.92 40.75 50.06a200.38 200.38 0 0 0 56.7 35.9c26.78 11.42 57.54 18.43 91.41 20.84h3.88c33.87-2.41 64.63-9.42 91.41-20.84a200.38 200.38 0 0 0 56.7-35.9c27.56-25.06 39.42-49.06 39.79-50.06l10.45-29.31z" id="path174" style="fill:#fff"/><ellipse cx="209.35" cy="365.73" rx="13.07" ry="10.9" id="ellipse176" style="fill:#fff;stroke:#fff;stroke-width:5.71999979px;stroke-miterlimit:10"/><path class="cls-5" d="M198.75 355.04h-.17c-75.89-5.39-121.18-33.29-145.81-55.75-26.88-24.52-35.56-47.59-35.92-48.56l-1.88-5.13h370.61l-1.88 5.13c-.36 1-9 24-35.92 48.56-24.63 22.46-69.92 50.36-145.81 55.75h-3.21z" id="path178" style="fill:#ed1d3d"/><path class="cls-6" d="M380.11 249.4s-33.63 91.55-178.42 101.82h-2.8C54.1 340.95 20.47 249.4 20.47 249.4h359.64m10.93-7.63H9.58l3.77 10.27c.37 1 9.37 24.92 36.93 50.06a200.38 200.38 0 0 0 56.7 35.9c26.74 11.4 57.5 18.4 91.37 20.83h3.88c33.87-2.4 64.63-9.41 91.41-20.83a200.38 200.38 0 0 0 56.7-35.9c27.56-25.14 36.56-49.06 36.93-50.06z" id="path180" style="fill:#f2b316"/><path class="cls-3" d="M367.81 97.32c-.11-1.74-1.4-10.86-15.84-20.55-16.61-11.14-44.22-19-82.1-23.31l.34-16.9a4.85 4.85 0 0 0 0-.66c-.11-1.42-3.5-34.88-63.38-35.9h-16c-59.89 1-63.27 34.48-63.39 35.9v.66l.35 16.9C89.9 57.79 62.3 65.63 45.68 76.77c-14.43 9.69-15.73 18.81-15.84 20.55a6.31 6.31 0 0 0 .11 1.68c3 15.34 17.19 27.25 42.15 35.42a178.4 178.4 0 0 0 19.81 5.15 8.85 8.85 0 0 0-1 7.36l5.4 17.47c-1.46 22.36 11.27 30.42 11.83 30.76a6.57 6.57 0 0 0 4.22.91l1.94-.24 12.82 44-28.26 47.68a6.53 6.53 0 0 0 2.32 9l2.94 1.72c1.92 1.12 47.52 27.61 92.55 33.53l1.35.18a6.58 6.58 0 0 0 2.62.55 6.73 6.73 0 0 0 1.18-.11l3.8-.7c44.68-8.23 89.06-37 90.93-38.26l2.84-1.86a6.54 6.54 0 0 0 1.88-9.07L271.36 237l12-41.13 1.94.24a6.59 6.59 0 0 0 5.74-2.18c.46-.54 11.1-12.92 9.61-29.82l5.29-17.18a8.86 8.86 0 0 0-.88-7.22 179.42 179.42 0 0 0 20.52-5.31c25-8.17 39.15-20.08 42.16-35.42a6.75 6.75 0 0 0 .07-1.66z" id="path182" style="fill:#fff"/><path class="cls-7" d="m137.51 241.81-28.37 47.87s45.27 26.53 88.82 32.26l.43-59" id="path184" style="fill:#231f20;stroke:#231f20;stroke-width:6.78000021px;stroke-miterlimit:10"/><path class="cls-7" d="m260.64 238.78 30.47 46.35s-44 28.83-87.28 36.8l-3.06-58.91" id="path186" style="fill:#231f20;stroke:#231f20;stroke-width:6.78000021px;stroke-miterlimit:10"/><path class="cls-5" d="m146.58 253.14-14.32 35.81s43.32 21.45 66.94 22.45c31.21-9.27 40.4-11 64.14-23.36l-12.14-35.8" id="path188" style="fill:#ed1d3d"/><path class="cls-8" d="m263.21 59.31.46-22.88s-2.33-29-57-29.9h-15.72c-54.65.94-57 29.9-57 29.9l.47 22.88C38.2 69.12 36.33 97.74 36.33 97.74c6.08 31 71 37.7 71 37.7s-.5 5.09-.62 11.44c-.39 1-.81 2.29-1.25 3.82-8.72 29.89 6.07 38.92 6.07 38.92l7.47-.93L136.28 248l63.52 21 61.52-21 17.26-59.31 7.47.93s14.54-16.6 4.79-36.28a158.46 158.46 0 0 0-.58-17.9s64.92-6.74 71-37.7c.03 0-1.84-28.62-98.05-38.43z" id="path190" style="fill:#231f20"/><path class="cls-9" d="M273.93 136.4c-76 11.21-151 0-151 0v5c-2.49 33 18.69 46.7 18.69 46.7l-9.34-1.24 19.3 54.14 44.84 6.22h3.84L245.1 241l19.3-54.18-9.34 1.24s21.16-13.66 18.67-46.66z" id="path192" style="fill:#c1c0bf"/><ellipse class="cls-8" cx="199.26" cy="146.71" rx="62.33" ry="16.87" id="ellipse194" style="fill:#231f20"/><path class="cls-9" id="polyline196" style="fill:#c1c0bf" transform="translate(-301.42 -176.6)" d="m519.61 339.22-21.09-10.55-18.45 13.18"/><path class="cls-8" id="polyline198" style="fill:#231f20" transform="translate(-301.42 -176.6)" d="m510.67 328.67-2.27 41.91 22.11 2.8-15.57-9.34 8.72-30.51"/><path class="cls-8" id="polyline200" style="fill:#231f20" transform="translate(-301.42 -176.6)" d="m486.3 428.81 14.94-15.88 16.35 16.34"/><path class="cls-10" d="M219 91.99c33.63.54 29.9-16.41 29.9-16.41l-3.12-39.92c-4.11-14.42-32.31-17.3-45.85-17.61-13.54-.31-47.51 3.66-51.48 17.61l-3.12 39.92s-3.73 16.95 29.89 16.41z" id="path202" style="fill:#7f4d1b"/><path d="M260.91 83.4s-1.87 18.65-35.5 19.21h-58.59c-33.63-.56-35.5-19.21-35.5-19.21-3.74 30.52 34.88 30.52 34.88 30.52h59.83s38.62.04 34.88-30.52z" id="path204" style="fill:#494949"/><path class="cls-10" d="M112.78 80.33s-26 42.74 75.21 46.09c-15.62.54-31.43-.52-47-2.11-21.65-2.23-43-7.07-64.43-11.2-7-1.35-25.73-6.67-18.33-17.23 3.39-4.82 10.23-7.26 15.52-9a110.82 110.82 0 0 1 15.88-3.79c3.25-.59 22-.87 23.15-2.76z" id="path206" style="fill:#7f4d1b"/><path class="cls-8" id="polyline208" style="fill:#231f20" transform="translate(-301.42 -176.6)" d="m465.75 336.33-26.62 2.33 12.14-11.67"/><path class="cls-8" id="polyline210" style="fill:#231f20" transform="translate(-301.42 -176.6)" d="m535.34 336.33 26.62 2.33-12.14-11.67"/><path class="cls-12" id="polyline212" style="fill:#231f20;stroke:#231f20;stroke-width:4.67000008px;stroke-linecap:round;stroke-linejoin:round" transform="translate(-301.42 -176.6)" d="m406.43 339.13-5.6-18.21 15.88-10.75"/><path class="cls-12" id="polyline214" style="fill:#231f20;stroke:#231f20;stroke-width:4.67000008px;stroke-linecap:round;stroke-linejoin:round" transform="translate(-301.42 -176.6)" d="m582.98 310.17 15.88 10.75-5.61 18.21"/><path class="cls-8" d="M136.3 248s21 14.48 63.52 21c0 0 38-4.67 61.52-21z" id="path216" style="fill:#231f20"/><path class="cls-8" d="M178.03 225.4h44.55s-21.82 10.93-44.55 0z" id="path218" style="fill:#231f20"/><path class="cls-8" id="polyline220" style="fill:#231f20" transform="translate(-301.42 -176.6)" d="M470.42 389.34h65.15l1.17 5.6h-69.12"/><path class="cls-8" d="m208.23 245.2 31.76-16 11.68-36.27-13.09-3.31s32.23-8.87 28-54.18l12.15-2.33v45.29l-25.15 70.54-27.6 10.74" id="path222" style="fill:#231f20"/><path class="cls-9" d="m179.31 147.12-7-1a2.66 2.66 0 0 1 .14 1.15c-.28 2.21-3.32 3.61-6.79 3.13s-6.07-2.67-5.8-4.89a2.61 2.61 0 0 1 .42-1.07l-5.64-.79c0 .15-.07.29-.09.44-.67 5.41 4.31 10.57 11.14 11.53 6.83.96 12.91-2.67 13.58-8.08.03-.14.03-.27.04-.42z" id="path224" style="fill:#c1c0bf"/><ellipse class="cls-3" cx="161.74" cy="145.53" rx="2.24" ry="2.37" id="ellipse226" style="fill:#fff"/><path class="cls-3" d="m137.7 162.06 22 32.23-15.42.94 7.3 45.77-19.3-54.18 9.34 1.24s-22.29-15.25-18.71-51.66l21.1 2.33s-14.25 7.71 1.17 16.82z" id="path228" style="fill:#fff"/><path class="cls-3" id="polyline230" style="fill:#fff" transform="translate(-301.42 -176.6)" d="m483.03 339.6 4.2 30.82 4.67-36.89"/><path class="cls-8" d="M211.03 16.19s-29.27 54.8 9.34 82.82h21.21l17.43-18.06-4.43-57.29" id="path232" style="fill:#231f20"/><path class="cls-8" id="polygon234" style="fill:#231f20" transform="translate(-301.42 -176.6)" d="m485.83 362.02 1.4 8.4-10.27 1.4z"/><path class="cls-10" id="polygon236" style="fill:#7f4d1b" transform="translate(-301.42 -176.6)" d="m535.95 378.11-22.74 1.12-10.63 7.84-11-8.58-28.34.74-6.52 17.92 1.87 16.09 11.93-23.57h64.72l6.17 24.5 4.98-15.16z"/><path class="cls-5" d="m146.58 253.14-3.74 29s32.7 13.08 56.05 14.94c0 0 32.69-3.73 54.18-16.81l-1.87-28s-31.76 15.88-51.38 16.81c0-.06-39.24-6.6-53.24-15.94z" id="path238" style="fill:#ed1d3d"/><path class="cls-8" d="m169.29 258.28-18.66 15.12 14.44 19.58s20.57 10 33.23 10.58c0 0 25.84-6.47 35.34-10.58l11.64-19-24.3-12.78-20.57 4.7z" id="path240" style="fill:#231f20"/><ellipse class="cls-8" cx="198.67" cy="33.67" rx="22.89" ry="19.1" id="ellipse242" style="fill:#231f20"/><path class="cls-13" id="polygon244" style="fill:#231f20;stroke:#fff;stroke-width:5.5999999px;stroke-miterlimit:10" transform="translate(-301.42 -176.6)" d="m329.99 425.7 18.68-13.08 80.33 3.73-9.34 21.17-70.99 3.74z"/><path class="cls-13" id="polygon246" style="fill:#231f20;stroke:#fff;stroke-width:5.5999999px;stroke-miterlimit:10" transform="translate(-301.42 -176.6)" d="m673.43 425.7-18.68-13.08-83.14 3.73 14.02 21.17 69.12 3.74z"/><path id="polyline248" style="fill:none;stroke:#f2b316;stroke-width:3.17000008px;stroke-miterlimit:10" transform="translate(-301.42 -176.6)" d="m442.39 459.32 57.33 21.75 56.95-19.26"/><path class="cls-3" d="m185.36 358.4-7.95-1.3.68-8a23.35 23.35 0 0 1 6.47-17c4.07-4.12 10.79-6.16 17.44-6.16l.69 6.32a16.85 16.85 0 0 0-11.49 5.14c-5.09 5.12-5.08 13.66-5.08 13.75v.5z" id="path250" style="fill:#fff"/><path class="cls-6" id="polyline252" style="fill:#f2b316" transform="translate(-301.42 -176.6)" d="m353.22 419.34-9.57 7.6 9.19 7.42 4.94-.42-8.27-6.7 9.43-7.14"/><path class="cls-6" id="polyline254" style="fill:#f2b316" transform="translate(-301.42 -176.6)" d="m366.25 420.6-8.66 6.88 8.32 6.72 4.47-.38-7.48-6.07 8.54-6.46"/><path class="cls-6" id="polyline256" style="fill:#f2b316" transform="translate(-301.42 -176.6)" d="m651.66 419.04 9.57 7.59-9.19 7.43-4.94-.42 8.27-6.7-9.43-7.14"/><path class="cls-6" id="polyline258" style="fill:#f2b316" transform="translate(-301.42 -176.6)" d="m638.63 420.3 8.66 6.88-8.32 6.72-4.47-.38 7.49-6.07-8.54-6.46"/><path class="cls-9" d="m218.41 147.12 7-1a2.66 2.66 0 0 0-.14 1.15c.27 2.21 3.31 3.61 6.79 3.13s6.07-2.67 5.79-4.89a2.74 2.74 0 0 0-.41-1.07l5.64-.79a3.39 3.39 0 0 1 .08.44c.68 5.41-4.31 10.57-11.13 11.53-6.82.96-12.91-2.67-13.59-8.08-.02-.14-.01-.27-.03-.42z" id="path260" style="fill:#c1c0bf"/><ellipse class="cls-3" cx="225.65" cy="146.86" rx="2.24" ry="2.37" id="ellipse262" style="fill:#fff"/><path class="cls-5" id="polyline264" style="fill:#ed1d3d" transform="translate(-301.42 -176.6)" d="m486.78 535 11.13 1.9 1.9-13.03-12.14 1.96"/><circle cx="205.03" cy="354.85" r="9.56" id="circle266" style="fill:#7f4e20;stroke:#7f4e20;stroke-width:3.48000002px;stroke-miterlimit:10"/><ellipse cx="209.66" cy="356.19" rx="9.56" ry="10.9" id="ellipse268" style="fill:#f2b316;stroke:#f2b316;stroke-width:3.72000003px;stroke-miterlimit:10"/><circle class="cls-3" cx="210.88" cy="351.53" r="3.11" id="circle270" style="fill:#fff"/><path class="cls-8" d="M187.11 330.26a82.19 82.19 0 0 1 17.17-5l-17.65-4.3-14.95 6.36z" id="path272" style="fill:#231f20"/><path class="cls-8" id="polyline274" style="fill:#231f20" transform="translate(-301.42 -176.6)" d="m416.5 316.55 30.53 5.72 9.06-10.97-41.49-4.29"/><path class="cls-8" id="polyline276" style="fill:#231f20" transform="translate(-301.42 -176.6)" d="m550.53 320.36 33.39-1.91v-12.4l-36.73 5.73"/></svg>