<svg xmlns="http://www.w3.org/2000/svg" id="Layer_1" data-name="Layer 1" version="1.1" width="379.66" height="368.18"><defs id="defs4"><style id="style2">.cls-3{fill:#fff}.cls-4{fill:#541f3e}.cls-5{fill:#009e87}</style></defs><path class="cls-4" d="M137.41 130.44a49.11 49.11 0 1 0 49.1-49.11 49.16 49.16 0 0 0-49.1 49.11zm15.82 0a33.29 33.29 0 1 1 33.28 33.28 33.32 33.32 0 0 1-33.23-33.28z" id="path192" style="fill:#541f3e"/><path class="cls-5" d="M130.17 142.41h112.69a57.89 57.89 0 0 1 57.89 57.89v76.79H72.28v-76.8a57.89 57.89 0 0 1 57.89-57.88z" id="path194" style="fill:#009e87"/><path class="cls-4" d="M314.28 290.61H58.78v-90.32a71.48 71.48 0 0 1 71.39-71.39h112.69a71.48 71.48 0 0 1 71.42 71.39zm-228.49-27h201.49v-63.32a44.56 44.56 0 0 0-44.38-44.38H130.17a44.56 44.56 0 0 0-44.38 44.38z" id="path196" style="fill:#541f3e"/><path class="cls-4" id="rect198" style="fill:#541f3e" d="M140.35 136.35h92.33v63.22h-92.33z"/><circle cx="186.51" cy="130.44" r="41.2" id="circle200" style="fill:#cd623d"/><path class="cls-4" d="M141.28 130.44a45.25 45.25 0 1 1 45.24 45.25 45.29 45.29 0 0 1-45.24-45.25zm11.81 0a33.44 33.44 0 1 0 33.43-33.43 33.47 33.47 0 0 0-33.44 33.43z" id="path202" style="fill:#541f3e"/><path class="cls-4" d="M174.94 128.55h-14.6a34.54 34.54 0 0 1 3.18-10.94c3.76 1.33 9.55 4.36 11.42 10.94z" id="path204" style="fill:#541f3e"/><path class="cls-4" d="M174.94 132.78h-14.6a34.54 34.54 0 0 0 3.18 10.91c3.76-1.29 9.55-4.33 11.42-10.91z" id="path206" style="fill:#541f3e"/><path class="cls-4" d="M180.28 157.61a23.73 23.73 0 0 1-13.28-8.35c8.2-4.39 10.16-12.72 10.62-16.45h6.27v20.31c-.01 4.43-3.21 4.49-3.61 4.49z" id="path208" style="fill:#541f3e"/><path class="cls-4" d="M183.88 107.55v21h-6.27c-.46-3.73-2.42-12.05-10.62-16.44a23.9 23.9 0 0 1 14.7-8.66c.95.04 2.19.72 2.19 4.1z" id="path210" style="fill:#541f3e"/><path class="cls-4" d="M197.52 128.55h14.6a34.23 34.23 0 0 0-3.18-10.94c-3.66 1.33-9.55 4.36-11.42 10.94z" id="path212" style="fill:#541f3e"/><path class="cls-4" d="M197.52 132.78h14.6a34.23 34.23 0 0 1-3.18 10.91c-3.66-1.29-9.55-4.33-11.42-10.91z" id="path214" style="fill:#541f3e"/><path class="cls-4" d="M192.19 157.61a23.69 23.69 0 0 0 13.28-8.35c-8.19-4.42-10.19-12.75-10.62-16.48h-6.26v20.31c0 4.46 3.19 4.52 3.6 4.52z" id="path216" style="fill:#541f3e"/><path class="cls-4" d="M188.59 107.55v21h6.26c.47-3.73 2.43-12.05 10.62-16.44a23.91 23.91 0 0 0-14.69-8.66c-.95.04-2.19.72-2.19 4.1z" id="path218" style="fill:#541f3e"/><path class="cls-4" id="polygon220" style="fill:#541f3e" transform="translate(-310.72 -175.39)" d="M543.35 374.91h-92.23l30.87 70.24h30.49z"/><path class="cls-4" d="M310.46 286.69h61.74v-76c-38.36 0-61.74 31.1-61.74 69.46z" id="path222" style="fill:#541f3e"/><path class="cls-4" d="M62.28 286.68H.58v-76c38.36 0 61.74 31.1 61.74 69.46z" id="path224" style="fill:#541f3e"/><path class="cls-4" id="polygon226" style="fill:#541f3e" transform="translate(-310.72 -175.39)" d="m311.3 513.47 27.01 30.1h317.6l27.01-27.84v-57.05H311.3z"/><path class="cls-5" transform="scale(-1)" id="rect228" style="fill:#009e87" d="M-356.76-322.65h340.75v39.75h-340.75z"/><path class="cls-3" transform="scale(-1)" id="rect230" style="fill:#fff" d="M-356.77-322.65h42.45v39.75h-42.45z"/><path class="cls-4" id="polygon232" style="fill:#541f3e" transform="translate(-310.72 -175.39)" d="m530.93 477.34-10.57-15.29-10.57 15.28 10.57 16.87z"/><path class="cls-4" id="polygon234" style="fill:#541f3e" transform="translate(-310.72 -175.39)" d="m573.12 477.34-10.57-15.29-10.57 15.28 10.57 16.87z"/><path class="cls-4" id="polygon236" style="fill:#541f3e" transform="translate(-310.72 -175.39)" d="m615.3 477.34-10.56-15.29-10.57 15.28 10.57 16.87z"/><path class="cls-5" id="polygon238" style="fill:#009e87" transform="translate(-310.72 -175.39)" d="m657.49 477.34-10.57-15.29-10.56 15.28 10.57 16.87z"/><path class="cls-4" id="polygon240" style="fill:#541f3e" transform="translate(-310.72 -175.39)" d="m362.17 477.34-10.57-15.29-10.57 15.28 10.57 16.87z"/><path class="cls-4" id="polygon242" style="fill:#541f3e" transform="translate(-310.72 -175.39)" d="m404.36 477.34-10.57-15.29-10.57 15.28 10.57 16.87z"/><path class="cls-4" id="polygon244" style="fill:#541f3e" transform="translate(-310.72 -175.39)" d="m446.55 477.34-10.57-15.29-10.57 15.28 10.57 16.87z"/><path class="cls-4" id="polygon246" style="fill:#541f3e" transform="translate(-310.72 -175.39)" d="m488.74 477.34-10.57-15.29-10.57 15.28 10.57 16.87z"/><path class="cls-3" d="M232.68 155.91h10.18a44.56 44.56 0 0 1 44.42 44.38v63.32h-21v-66.57s.34-25.52-33.6-41.13z" id="path248" style="fill:#fff"/><path class="cls-4" d="M132.63 155.91h-10.18a44.54 44.54 0 0 0-44.37 44.38v63.32H99v-66.57s-.31-25.52 33.63-41.13z" id="path250" style="fill:#541f3e"/><path class="cls-5" d="m12.71 90.23 40.88 27.62.9 4.9-1.5 2.21.22 1.13 5.22 3.52-3.94 5.84-5.21-3.53-1.13.22-1.49 2.21-4.92 1.06L.86 107.79l-.86-5 7.84-11.6zm-1.43 8.54-3 4.48.22 1.13 33.58 22.69 1.13-.22 3-4.48-.22-1.13-33.58-22.69z" id="path252" style="fill:#009e87"/><path class="cls-5" d="m47.88 53.36 33.26 36.45-.28 5-10.4 9.49-4.92-.23-33.26-36.46-3-2 6.45-5.89 1.69 3.17 30.32 33.22 1.15.05 4.05-3.7v-1.15L42.68 58.1l-3-2 6.52-5.94z" id="path254" style="fill:#009e87"/><path class="cls-5" d="m97.28 82.47-.92-3.48-24.08-43.13-2.44-2.55 18.44-10.29 4.89 6.17-3.57 1.06-8.79 4.92-.32 1.11 7.81 14 1.11.32 2.45-1.37 2.61-2.48 4.3 7.7-3.48.92-2.45 1.37-.32 1.11 7.76 13.87 1.11.31 8.79-4.91 2.78-2.48 2.76 7.53z" id="path256" style="fill:#009e87"/><path class="cls-5" d="m130.6 65.95-.11-3.59-13.74-47.46-1.8-3L135.28 6l3.37 7.13-3.71.22-9.68 2.8-.55 1 4.44 15.37 1 .56 2.71-.78 3.09-1.83 2.46 8.47-3.6.12-2.7.78-.56 1 4.43 15.3 1 .55 9.68-2.8 3.26-1.79 1 8z" id="path258" style="fill:#009e87"/><path class="cls-5" d="m175.41 56.93-8.74.38.74-3.45-2.13-49.36-1-3.44 7.85-.34 10.15 32.63L181 3.82l-1-3.44 8.81-.38-.74 3.51 2.14 49.37 1 3.37-7.93.36-10.16-32.71 1.25 29.71z" id="path260" style="fill:#009e87"/><path class="cls-5" d="m236.96 60.72 17.9-46 4.58-2 13.11 5.11 2 4.51-2.58 6.63-.41 3.49-8.21-3.2 2.13-2.82 1-2.62-.47-1.06-5.11-2-1 .46-14.73 37.83.46 1.06 5.11 2 1.05-.47 1-2.55.34-3.52 8.21 3.19-2.06 2.93-2.61 6.69-4.51 2-13.11-5.1z" id="path262" style="fill:#009e87"/><path class="cls-5" d="m277.88 84.67-7.37-4.7 2.58-2.4 26.57-41.67 1.12-3.41 7.37 4.7-2.62 2.42-26.57 41.67z" id="path264" style="fill:#009e87"/><path class="cls-5" d="m341.92 75.88-2.11-3.16-3.26-3.11h-1.16l-31.11 32.46-1.72 3.08-6.36-6.1 3-1.85 31.08-32.45v-1.16l-3.37-3.23-3.18-1.92 6.39-4.85 16.31 15.64z" id="path266" style="fill:#009e87"/><path class="cls-5" d="m329.05 133.7-2.5 2.58-4.62-7.52 3.48-1 17.8-10.93 20.27-22.78 1.41-2.95 5.39 8.71-2.51.59-12.72 13.28 17.6-5.32 1.58-2.1 5.43 8.84-3.59.11-29.43 7.71z" id="path268" style="fill:#009e87"/><path class="cls-5" d="M61.2 349.04v1.19c0 2.22-1.19 3.4-3.45 3.4h-7.72v-13.78h7.46c2.25 0 3.44 1.17 3.44 3.39v.89a2.45 2.45 0 0 1-1.29 2.27 2.49 2.49 0 0 1 1.56 2.64zm-4.89-6h-2.43v2.08h2.4c.58 0 .77-.19.77-.75v-.58c.03-.59-.16-.78-.77-.78zm1 6c0-.56-.19-.75-.77-.75h-2.7v2.22h2.7c.58 0 .77-.2.77-.76z" id="path270" style="fill:#009e87"/><path class="cls-5" d="M77.57 350.91h-4.59l-.79 2.72h-4l4.2-13.78h5.65l4.24 13.76h-3.95zm-.94-3.28-1.35-4.72-1.37 4.7z" id="path272" style="fill:#009e87"/><path class="cls-5" d="M89.62 350.43a.88.88 0 0 1 0-.31l3.83-.46v.13c0 .56.2.75.77.75h2.28c.58 0 .77-.19.77-.75v-.38c0-.49-.19-.58-1.22-.74l-3.08-.44c-2.39-.35-3.31-1.21-3.31-3.16v-2c0-2.22 1.19-3.4 3.45-3.4h4.51c2.25 0 3.45 1.18 3.45 3.4a.91.91 0 0 1 0 .3l-3.84.47v-.14c0-.56-.19-.75-.77-.75h-2.12c-.6 0-.81.21-.81.75v.33c0 .5.14.58 1.23.73l3.09.45c2.41.34 3.29 1.21 3.29 3.19v2.05c0 2.21-1.19 3.39-3.45 3.39h-4.62c-2.26-.02-3.45-1.23-3.45-3.41z" id="path274" style="fill:#009e87"/><path class="cls-5" d="M114.52 348.31h-.94v5.3h-3.86v-13.76h3.86v5.18h1l3.26-5.18h4.44l-4.34 6.84 4.53 6.94h-4.49z" id="path276" style="fill:#009e87"/><path class="cls-5" d="M134.28 343.12v1.83h5.16v3.28h-5.16v2.12h6v3.26h-9.83v-13.76h9.83v3.27z" id="path278" style="fill:#009e87"/><path class="cls-5" d="M158.99 343.12h-3.71v10.49h-3.9v-10.49h-3.76v-3.27h11.37z" id="path280" style="fill:#009e87"/><path class="cls-5" d="M178.17 349.04v1.19c0 2.22-1.2 3.4-3.45 3.4h-7.73v-13.78h7.46c2.25 0 3.45 1.17 3.45 3.39v.89a2.47 2.47 0 0 1-1.29 2.27 2.51 2.51 0 0 1 1.56 2.64zm-4.9-6h-2.43v2.08h2.44c.58 0 .77-.19.77-.75v-.58c-.01-.59-.2-.78-.77-.78zm1 6c0-.56-.19-.75-.77-.75h-2.7v2.22h2.7c.58 0 .77-.2.77-.76z" id="path282" style="fill:#009e87"/><path class="cls-5" d="M194.53 350.91h-4.58l-.79 2.72h-4l4.21-13.78h5.64l4.27 13.76h-4zm-.94-3.28-1.31-4.72-1.41 4.7z" id="path284" style="fill:#009e87"/><path class="cls-5" d="M216.89 350.35v3.26h-9.61v-13.76h3.85v10.5z" id="path286" style="fill:#009e87"/><path class="cls-5" d="M234.53 350.35v3.26h-9.64v-13.76h3.86v10.5z" id="path288" style="fill:#009e87"/><path class="cls-5" d="M252.94 350.43v-7.38c0-2.22 1.19-3.4 3.45-3.4h4.56c2.26 0 3.45 1.18 3.45 3.4a2.12 2.12 0 0 1 0 .3l-3.84.47v-.14c0-.56-.19-.75-.77-.75h-2.22c-.57 0-.77.19-.77.75v6.11c0 .56.2.75.77.75h2.22c.58 0 .77-.19.77-.75v-.13l3.84.46a2.29 2.29 0 0 1 0 .31c0 2.21-1.19 3.39-3.45 3.39h-4.56c-2.26 0-3.45-1.21-3.45-3.39z" id="path290" style="fill:#009e87"/><path class="cls-5" d="M282.43 350.35v3.26h-9.64v-13.76h3.86v10.5z" id="path292" style="fill:#009e87"/><path class="cls-5" d="M301.7 350.43c0 2.21-1.19 3.39-3.45 3.39h-4.37c-2.26 0-3.45-1.18-3.45-3.39v-10.58h3.85v9.94c0 .56.19.75.77.75h2c.57 0 .77-.19.77-.75v-9.94h3.85z" id="path294" style="fill:#009e87"/><path class="cls-5" d="M321.71 349.04v1.19c0 2.22-1.2 3.4-3.45 3.4h-7.73v-13.78h7.46c2.25 0 3.45 1.17 3.45 3.39v.89a2.47 2.47 0 0 1-1.29 2.27 2.49 2.49 0 0 1 1.56 2.64zm-4.9-6h-2.42v2.08h2.42c.58 0 .78-.19.78-.75v-.58c0-.59-.2-.78-.78-.78zm1.05 6c0-.56-.2-.75-.78-.75h-2.69v2.22h2.69c.58 0 .78-.2.78-.76z" id="path296" style="fill:#009e87"/></svg>