<svg xmlns="http://www.w3.org/2000/svg" id="Layer_1" data-name="Layer 1" version="1.1" width="382.856" height="382.979"><defs id="defs22"><linearGradient id="linear-gradient" x1="81.41" y1="924.43" x2="426.82" y2="924.43" gradientUnits="userSpaceOnUse"><stop offset="0" stop-color="#3f3f3f" id="stop4"/><stop offset=".2" stop-color="#343536" id="stop6"/><stop offset=".5" stop-color="#2c2e2f" id="stop8"/><stop offset="1" stop-color="#292c2d" id="stop10"/></linearGradient><linearGradient id="linear-gradient-2" x1="699.63" y1="944.15" x2="912" y2="944.15" gradientUnits="userSpaceOnUse"><stop offset="0" stop-color="#292c2d" id="stop13"/><stop offset=".2" stop-color="#333435" id="stop15"/><stop offset=".54" stop-color="#3c3c3d" id="stop17"/><stop offset="1" stop-color="#3f3f3f" id="stop19"/></linearGradient><style id="style2">.cls-4{fill:#292c2d}.cls-12{fill:#646666}.cls-9{fill:#3f3f3f}.cls-10{fill:#bababa}.cls-12{opacity:.5}.cls-13{fill:#ed310c}.cls-14{fill:#f2f2f2}.cls-15{fill:#7fccea}</style></defs><path class="cls-4" d="M362.815 118.814a186.81 186.81 0 1 0 14.68 72.59 185.64 185.64 0 0 0-14.68-72.59z" id="path196" style="fill:#292c2d"/><circle class="cls-4" cx="191.065" cy="191.404" r="114.71" id="circle198" style="fill:#292c2d"/><path d="m185.205 192.884-4.91 35.52 11.62-3.57-2.35 15.37 16.52-28.62-15.54 3.13 8.57-20a12.82 12.82 0 0 0-13.91-1.83z" id="path200" style="fill:#e8cf1f"/><path d="M274.265 149.164a65.71 65.71 0 0 0-18.83-18.9c-27.45-18.46-62.87-24.39-94.69-15-26.42 7.79-58.32 27-58.32 58.12 0 20.5 10.78 37.12 30.07 37.12a34 34 0 0 0 26.5-13c2.65-3.15 27.1-30.12 66.35.29a34 34 0 0 0 26.26 12.67c19.29 0 30.07-16.62 30.07-37.12a44.93 44.93 0 0 0-7.41-24.18z" id="path202" style="fill:#9e9e9e"/><path d="M281.585 176.494q.09-1.54.09-3.12a44.93 44.93 0 0 0-7.41-24.21 65.71 65.71 0 0 0-18.83-18.9c-.54-.37-1.1-.72-1.65-1.08a35.07 35.07 0 0 0-13.56 1.73s-30.24-12.2-57.35 6.54c0 0-17.73-16.62-36.5-6.54 0 0-12.08-2.45-23.54 3.67-7.2 5.94-13.17 13-16.76 21.25-.12.38-.25.75-.36 1.14h-.1a43.47 43.47 0 0 0-3.19 16.43q0 1.57.09 3.12h179.07z" id="path204" style="fill:#878787"/><path d="M132.495 210.494a34 34 0 0 0 26.5-13c2.65-3.15 27.1-30.12 66.35.29a34 34 0 0 0 26.26 12.67c19.29 0 30.07-16.62 30.07-37.12a42.3 42.3 0 0 0-2.55-14.36c-9.56-3.09-21.67-4.4-36-.75 0 0-46.6-14.81-88.37 7.95 0 0-22.71-16.78-48.64-10.46a43.61 43.61 0 0 0-3.69 17.69c0 20.47 10.78 37.09 30.07 37.09z" id="path206" style="fill:#646666"/><path class="cls-9" d="M154.755 166.214s-21.89-19.29-47.28-13.3c-.5 1-1 1.93-1.4 2.92-.12.38-.25.75-.36 1.14h-.1a43.87 43.87 0 0 0-2.77 10.35c7.06-3.03 26.24-9.16 51.91-1.11z" id="path208" style="fill:#3f3f3f"/><path class="cls-10" d="M173.885 118.134s41.43-8.84 73.34 15.42c0 0-26.15-14.13-73.34-10.52-47.19 3.61 0-4.9 0-4.9z" id="path210" style="fill:#bababa"/><path class="cls-9" d="M278.755 158.004c-7.41-1.94-19.85-3.6-35.63.26 0 0-17.55-8.06-41.32-4.6 0 0 28.31 5.12 34 15.05 0 0 22.24-7.95 45.41-1.64a43.66 43.66 0 0 0-2.46-9.07z" id="path212" style="fill:#3f3f3f"/><path d="M132.495 210.494a34 34 0 0 0 26.5-13c2.65-3.15 27.1-30.12 66.35.29a34 34 0 0 0 26.26 12.67c16.36 0 26.6-11.95 29.33-28.09-8.58-4.21-20.93-7.32-36.44-3.37 0 0-38.36-12.19-72.75 6.55 0 0-22.49-16.62-46.3-6.55a63.14 63.14 0 0 0-22.59 1.28c2.18 17.22 12.59 30.22 29.64 30.22z" id="path214" style="fill:#545454"/><path class="cls-12" d="M113.665 143.204s23-7.18 45.64 5.47c0 0-11.43-16.19-36.85-14.09" id="path216" style="opacity:.5;fill:#646666"/><path class="cls-12" d="M190.665 148.674s27.26-6.5 51 3.08c0 0-25.33-20.54-51-3.08z" id="path218" style="opacity:.5;fill:#646666"/><ellipse class="cls-10" cx="210.385" cy="127.504" rx="11.77" ry="6.05" id="ellipse220" style="fill:#bababa"/><path class="cls-13" id="polygon222" style="fill:#ed310c" transform="translate(-304.335 -171.596)" d="m503.35 428.98 12.73 3.33 13.11-3.33-8.81 8.81-4.3 13.32-3.14-13.12z"/><path class="cls-13" id="polygon224" style="fill:#ed310c" transform="translate(-304.335 -171.596)" d="m503.35 443.76 12.73-3.33 13.11 3.33-8.81-8.81-4.3-13.31-3.14 13.12z"/><path class="cls-13" id="polygon226" style="fill:#ed310c" transform="translate(-304.335 -171.596)" d="m459.9 429.31 12.73 3.32 13.12-3.32-8.81 8.81-4.31 13.31-3.13-13.12z"/><path class="cls-13" id="polygon228" style="fill:#ed310c" transform="translate(-304.335 -171.596)" d="m459.9 444.09 12.73-3.33 13.12 3.33-8.81-8.81-4.31-13.32-3.13 13.12z"/><path class="cls-13" id="polygon230" style="fill:#ed310c" transform="translate(-304.335 -171.596)" d="m540.98 405.18 12.72 3.32 13.12-3.32-8.81 8.81-4.31 13.31-3.13-13.12z"/><path class="cls-13" id="polygon232" style="fill:#ed310c" transform="translate(-304.335 -171.596)" d="m540.98 419.96 12.72-3.33 13.12 3.33-8.81-8.81-4.31-13.32-3.13 13.12z"/><path class="cls-13" id="polygon234" style="fill:#ed310c" transform="translate(-304.335 -171.596)" d="m446.64 405.18-12.73 3.32-13.12-3.32 8.81 8.81 4.31 13.31 3.13-13.12z"/><path class="cls-13" id="polygon236" style="fill:#ed310c" transform="translate(-304.335 -171.596)" d="m446.64 419.96-12.73-3.33-13.12 3.33 8.81-8.81 4.31-13.32 3.13 13.12z"/><path class="cls-14" id="rect238" style="fill:#f2f2f2" d="M8.715 160.494h58.74v67.65H8.715z"/><path class="cls-15" id="rect240" style="fill:#7fccea" d="M8.715 169.484h58.74v10.8H8.715z"/><path class="cls-15" id="rect242" style="fill:#7fccea" d="M8.715 208.344h58.74v10.8H8.715z"/><path class="cls-14" transform="scale(-1)" id="rect244" style="fill:#f2f2f2" d="M-373.415-222.314h58.74v67.65h-58.74z"/><path class="cls-15" transform="scale(-1)" id="rect246" style="fill:#7fccea" d="M-373.415-213.324h58.74v10.8h-58.74z"/><path class="cls-15" transform="scale(-1)" id="rect248" style="fill:#7fccea" d="M-373.415-174.464h58.74v10.8h-58.74z"/><circle cx="191.065" cy="191.404" r="126.47" id="circle250" style="fill:none;stroke:#292c2d;stroke-width:8.85999966px;stroke-miterlimit:10"/><circle cx="191.065" cy="191.404" r="114.71" id="circle252" style="fill:none;stroke:#e8cf1f;stroke-width:6.17000008px;stroke-miterlimit:10"/><path d="M19.315 263.994a186.81 186.81 0 1 0-14.65-72.59 185.64 185.64 0 0 0 14.65 72.59z" id="path254" style="fill:none;stroke:#7fccea;stroke-width:9.32999992px;stroke-miterlimit:10"/><path class="cls-14" d="M88.105 287.874s-1.23-1.52-2.65-1l-25.68 9.39-3.83-5.53 11.9-13.66-17.05 6.21-3.82-5.53 17.84-20.52a2.12 2.12 0 0 0 .38-2.37 1.2 1.2 0 0 1 .18-1.72.85.85 0 0 1 1.29.26l5.33 7.7a1.26 1.26 0 0 1 0 1.73.89.89 0 0 1-1.43-.29s-1.35-1.62-2.32-.45l-13.47 15.94 18.15-6.79.89-1a2.11 2.11 0 0 0 .38-2.36 1.21 1.21 0 0 1 .24-1.77.86.86 0 0 1 1.23.29l5.32 7.69a1.28 1.28 0 0 1 0 1.71.89.89 0 0 1-1.46-.27s-1.35-1.62-2.32-.45l-13.47 15.95 19.48-7.31c1.49-.57.27-2.52.27-2.52a.87.87 0 0 1 .21-1.28 1.28 1.28 0 0 1 1.72.5l4.62 6.68a.81.81 0 0 1-.16 1.16 1.21 1.21 0 0 1-1.77-.39z" id="path256" style="fill:#f2f2f2"/><path class="cls-14" d="m94.175 328.814-7.32-6.08a1 1 0 0 1-.19-1.33 1 1 0 0 1 1.45-.16s1.59 1.27 2.62 0l7.16-8.62a13.85 13.85 0 0 0-3.11-4.67 12 12 0 0 0-5-2.07l-7.12 8.57a1.72 1.72 0 0 0 .45 2.52 1 1 0 0 1 .11 1.51 1 1 0 0 1-1.41.05l-7.26-6a.88.88 0 0 1-.12-1.32.94.94 0 0 1 1.39-.21 1.66 1.66 0 0 0 2.21-.32l14.63-17.61a1.37 1.37 0 0 0 0-2 1 1 0 0 1-.06-1.47 1 1 0 0 1 1.35-.1l7.15 5.93a.91.91 0 0 1 .18 1.37 1 1 0 0 1-1.48.2s-1.46-1.36-2.59 0l-5.08 6.13a13.09 13.09 0 0 1 4.95 2.21 12.63 12.63 0 0 1 3.18 4.53l5.16-6.22c1-1.24-.44-2.36-.44-2.36-.66-.55-.59-1.17-.19-1.53a1.09 1.09 0 0 1 1.49 0l7 5.78c.67.56.64 1.12.33 1.5a1.18 1.18 0 0 1-1.62.07s-.92-.91-2 .42l-14.49 17.53a1.58 1.58 0 0 0 .1 2.23 1 1 0 0 1 .21 1.45c-.4.41-1 .59-1.64.07z" id="path258" style="fill:#f2f2f2"/><path class="cls-14" d="m113.425 340.054-8.89-5a1.06 1.06 0 0 1-.45-1.41.91.91 0 0 1 1.42-.32s1.78.82 2.52-.49l11.18-19.94c.75-1.34-1.08-2.37-1.08-2.37a1 1 0 0 1-.39-1.47 1.05 1.05 0 0 1 1.38-.3l8.92 5c.65.37.73.93.46 1.33a1.09 1.09 0 0 1-1.46.44s-1.88-1-2.69.43l-11.12 19.75c-.77 1.38 1.19 2.57 1.19 2.57a1 1 0 0 1 .41 1.35 1 1 0 0 1-1.4.43z" id="path260" style="fill:#f2f2f2"/><path class="cls-14" d="m149.865 354.464-10.28-3.5a1.13 1.13 0 0 1-.81-1.35c.13-.51.64-.85 1.48-.61 0 0 1.49.39 1.77-.43a1.67 1.67 0 0 0-.17-1.13l-4.33-10.49-1.28-.43-2.85 8.36c-.5 1.46 1.58 2.36 1.58 2.36a1 1 0 0 1 .63 1.29.94.94 0 0 1-1.29.63l-9.65-3.28a1.08 1.08 0 0 1-.71-1.31.93.93 0 0 1 1.35-.57s1.9.48 2.39-.94l7.37-21.66c.5-1.46-1.49-2.14-1.49-2.14a1 1 0 0 1-.7-1.35 1 1 0 0 1 1.31-.59l14.48 4.98c3.74 1.27 6.23 5.37 4.57 10.37-1.49 4.49-5.65 7.72-9.66 6.44l4.7 11.05c1 2.32 2.22 2.34 2.22 2.34.73.29.93.88.74 1.33a1.08 1.08 0 0 1-1.37.63zm-4.46-30.51-2.39-.81a1.91 1.91 0 0 0-2.68 1.35l-3.27 9.61 4.06 1.38c3.8 1.3 6.11-2.45 6.89-5 .74-2.25.27-5.55-2.61-6.53z" id="path262" style="fill:#f2f2f2"/><path class="cls-14" d="M182.905 360.144a1.07 1.07 0 0 1-1.51.41.88.88 0 0 1-.3-1.16s.8-.45-2.2-.75l-16.38-1.65a1.06 1.06 0 0 1-1-1.15.94.94 0 0 1 1.18-.83s2 0 2.11-1.45l2.28-22.74c.16-1.53-1.94-1.74-1.94-1.74a1 1 0 0 1-.94-1.15 1 1 0 0 1 1.15-.87l10.17 1c.75.08 1 .56.95 1a1.08 1.08 0 0 1-1.15 1s-2.14-.18-2.3 1.47l-2.22 21.69 11.54 1.18c2.1.21 3.58-2.58 3.58-2.58a1.08 1.08 0 0 1 1.4-.39 1.18 1.18 0 0 1 .17 1.71z" id="path264" style="fill:#f2f2f2"/><path class="cls-14" d="M234.955 325.544s-1.9.47-2 2l-2.4 27.23-6.63 1.11-7.32-16.57-1.65 18.09-6.63 1.12-11-24.87a2.09 2.09 0 0 0-2-1.34 1.21 1.21 0 0 1-1.48-.9.85.85 0 0 1 .78-1l9.22-1.55c.89-.15 1.46.25 1.57.72.11.47-.08 1.08-.87 1.18 0 0-2 .53-1.39 1.91l8.71 19 1.56-19.31-.55-1.25a2.1 2.1 0 0 0-2-1.34 1.22 1.22 0 0 1-1.5-1 .87.87 0 0 1 .79-1l9.23-1.55a1.28 1.28 0 0 1 1.56.69.89.89 0 0 1-.86 1.21s-2 .54-1.39 1.91l8.71 19 1.66-20.75c.11-1.58-2.17-1.31-2.17-1.31a.87.87 0 0 1-1.07-.73 1.28 1.28 0 0 1 1.18-1.35l8-1.34a.81.81 0 0 1 1 .63 1.2 1.2 0 0 1-1.06 1.36z" id="path266" style="fill:#f2f2f2"/><path class="cls-14" d="m259.985 344.294-9.41 3.91a1.09 1.09 0 0 1-1.4-.52.93.93 0 0 1 .63-1.32s1.75-.89 1.17-2.28l-8.77-21.1c-.6-1.43-2.54-.62-2.54-.62a1 1 0 0 1-1.39-.6 1.06 1.06 0 0 1 .61-1.27l9.44-3.93a.91.91 0 0 1 1.34.46 1.08 1.08 0 0 1-.56 1.41s-2 .86-1.33 2.39l8.67 20.95c.61 1.45 2.76.64 2.76.64a1 1 0 0 1 1.31.52 1 1 0 0 1-.53 1.36z" id="path268" style="fill:#f2f2f2"/><path class="cls-14" d="M278.115 301.404a1.58 1.58 0 0 0-.71 2.29l9.59 14.88 4.77 7.39-2.94 1.9-24.16-8.59 9 13.92a1.46 1.46 0 0 0 2.22.54 1 1 0 0 1 1.47.34 1 1 0 0 1-.37 1.36l-6 3.89a.88.88 0 0 1-1.3-.28 1 1 0 0 1 .22-1.39s1.76-1.14.87-2.53l-12.39-19.2a1.37 1.37 0 0 0-1.94-.59 1 1 0 0 1-1.41-.38 1 1 0 0 1 .33-1.29l4-2.61s-.08 0 24 8.36l-8.9-13.8a1.41 1.41 0 0 0-2.11-.56 1.08 1.08 0 0 1-1.47-.35.94.94 0 0 1 .37-1.36l5.72-3.69a1 1 0 0 1 1.3.29.9.9 0 0 1-.16 1.46z" id="path270" style="fill:#f2f2f2"/><path class="cls-14" d="m312.135 307.294-9.53 9.92a1.07 1.07 0 0 1-1.44.13.94.94 0 0 1 0-1.51s1.25-1.51.16-2.56l-16.47-15.87c-1.12-1.07-2.58.45-2.58.45a1 1 0 0 1-1.51 0 1.06 1.06 0 0 1 0-1.41l9.72-10.04c5.32-5.58 14.52-5.44 20.53.35 6.01 5.79 6.49 14.96 1.12 20.54zm-19.83-19.08-2.53 2.58a2 2 0 0 0-.32 2.82l15.58 15c.52.5 1.51.72 2.52-.34l2.53-2.63c3.52-3.66 1.4-10.19-3.21-14.62-4.61-4.43-11.08-6.44-14.57-2.81z" id="path272" style="fill:#f2f2f2"/><path class="cls-14" d="M334.905 278.724c-2.47 4.09-8.06 8.48-13.43 5.24-2.19-1.32-3.36-4-1.94-6.39a4 4 0 0 1 5.41-1.47c.61.36 1.83 1.54 1.37 2.31-.1.16-.24.25-.32.38a1 1 0 0 0 .4 1.3c1.58.95 3.94-1.22 5.09-3.12 1.3-2.16 1.95-6.15-.82-7.82-6.3-3.81-11.64 10.35-20.81 4.82-4.22-2.54-3.88-8.13-1.6-11.89a9.22 9.22 0 0 1 2.1-2.47c.29-.26 1.6-1 1.73-1.27a.36.36 0 0 0-.08-.45c-.26-.15-.68-.1-1-.28a.87.87 0 0 1-.24-1.2 1.21 1.21 0 0 1 1.32-.52l6.76 1.31c.06 0 .14.05.21.09.58.35.05 2.09-.24 2.58-.58 1-4.85-.25-7.39 4-1 1.74-1.45 4.22.54 5.42 2.77 1.67 5.45-1.1 7.41-2.81 3.63-3.26 8.26-6.21 13.06-3.32 5.56 3.3 5.23 11.06 2.47 15.56z" id="path274" style="fill:#f2f2f2"/><path class="cls-9" d="M132.495 210.494a34 34 0 0 0 26.5-13c-10.36-7.4-27.07-.87-27.07-.87-6.31-5.22-21.55-2.47-24.7-1.83 4.92 9.51 13.51 15.7 25.27 15.7z" id="path276" style="fill:#3f3f3f"/><path class="cls-9" d="M247.225 199.124c-5.48-4.33-17.4-3.18-23.19-2.29l1.31 1a34 34 0 0 0 26.26 12.67 27 27 0 0 0 22.61-11.34c-10.9-6.03-26.99-.04-26.99-.04z" id="path278" style="fill:#3f3f3f"/><path class="cls-14" d="M108.415 78.174c2.42 5.08.49 10-3.54 13.55-6.23 5.5-14.6 4-20.35-2.5-5.6-6.34-6.7-15.59-.72-20.87a12.2 12.2 0 0 1 3.25-2.11 16.87 16.87 0 0 0 2.44-.75c.14-.13.26-.39.11-.55-.15-.16-.53-.33-.73-.56a.71.71 0 0 1 .12-1.06 1.36 1.36 0 0 1 1.5-.22l7.6 4.12c.05.06.1.06.15.12.45.51-.33 1.44-.69 1.77a2 2 0 0 1-1.8.58l-1.32-.49a7.69 7.69 0 0 0-7.3 1.68c-4.31 3.8-1.2 10.63 1.91 14.15 3.53 4 9.59 6.89 14.21 2.81 1.24-1.1 2.67-3.62 1.33-5.14a1.13 1.13 0 0 0-1.55-.28c-.17.15-.27.38-.43.53-.65.57-1.59-.21-2-.69a4.16 4.16 0 0 1 .46-6.07 4.51 4.51 0 0 1 6.41.51 6.59 6.59 0 0 1 .94 1.47z" id="path280" style="fill:#f2f2f2"/><path class="cls-14" d="m141.935 67.694-8.45 4.36a1 1 0 0 1-1.34-.37 1 1 0 0 1 .42-1.4s1.79-1 1.05-2.4l-5.14-9.95a13.66 13.66 0 0 0-5.52 1 12 12 0 0 0-3.86 3.81l5.12 9.92a1.71 1.71 0 0 0 2.49.58 1 1 0 0 1 1.44.48 1 1 0 0 1-.51 1.32l-8.38 4.36a.89.89 0 0 1-1.27-.41 1 1 0 0 1 .36-1.36 1.66 1.66 0 0 0 .57-2.16l-10.48-20.31a1.38 1.38 0 0 0-1.88-.77 1 1 0 0 1-1.37-.52 1 1 0 0 1 .44-1.28l8.25-4.26a.9.9 0 0 1 1.33.37 1 1 0 0 1-.4 1.44s-1.82.81-1 2.38l3.66 7.08a13.09 13.09 0 0 1 4-3.7 12.74 12.74 0 0 1 5.41-1.15l-3.7-7.18c-.75-1.43-2.35-.52-2.35-.52-.77.4-1.31.08-1.48-.42a1.08 1.08 0 0 1 .55-1.38l8.05-4.16c.77-.4 1.28-.15 1.5.28a1.16 1.16 0 0 1-.57 1.52s-1.19.49-.39 2l10.46 20.19a1.6 1.6 0 0 0 2.1.78 1 1 0 0 1 1.41.37.94.94 0 0 1-.52 1.46z" id="path282" style="fill:#f2f2f2"/><path class="cls-14" d="m159.335 62.704-9.79 2.8a1.07 1.07 0 0 1-1.33-.68.93.93 0 0 1 .78-1.24s1.84-.68 1.43-2.12l-6.27-22c-.43-1.48-2.45-.91-2.45-.91a1 1 0 0 1-1.31-.75 1.06 1.06 0 0 1 .75-1.2l9.83-2.8c.73-.21 1.18.13 1.27.61a1.07 1.07 0 0 1-.71 1.34s-2.05.62-1.59 2.21l6.18 21.81c.43 1.52 2.66 1 2.66 1a1 1 0 0 1 1.24.66 1 1 0 0 1-.69 1.27z" id="path284" style="fill:#f2f2f2"/><path class="cls-14" d="M191.665 51.254c-1.07 5.52-5.55 8.32-10.9 8.78-8.28.71-14.12-5.47-14.86-14.12-.72-8.42 3.9-16.51 11.84-17.19a12.32 12.32 0 0 1 3.87.23 17.18 17.18 0 0 0 2.41.85c.19 0 .44-.15.42-.37-.02-.22-.24-.59-.26-.89a.71.71 0 0 1 .72-.78 1.37 1.37 0 0 1 1.35.72l3.65 7.83v.19c.06.67-1.13 1-1.61 1a1.91 1.91 0 0 1-1.79-.6l-.78-1.18a7.69 7.69 0 0 0-6.86-3c-5.73.49-7.28 7.83-6.88 12.51.45 5.31 3.6 11.23 9.74 10.7 1.65-.14 4.3-1.31 4.13-3.33-.05-.56-.45-1.21-1.08-1.15-.23 0-.44.15-.67.17-.86.07-1.15-1.11-1.2-1.75a4.15 4.15 0 0 1 4-4.6 4.53 4.53 0 0 1 4.85 4.23 6.33 6.33 0 0 1-.09 1.75z" id="path286" style="fill:#f2f2f2"/><path class="cls-14" d="M223.155 62.664a1.21 1.21 0 0 1-1.09-1.35.91.91 0 0 1 1.13-.7s2.07.19 1.81-1.31l-1.34-8.85a12.09 12.09 0 0 0-4.4-2.27 9.79 9.79 0 0 0-4.3.11l-4.95 7.68c-2.1 3.25-5.1 4.18-7.46 3.74a4.66 4.66 0 0 1-3.21-2.09 4.94 4.94 0 0 1-.65-3.3 3.6 3.6 0 0 1 2.27-2.71 2.7 2.7 0 0 1 1.59-.16c.63.12 1.14.44 1.18.64.09.36-.44.53-.49 1a1 1 0 0 0 .19.8c.7 1 2.47.53 3.21-.59l11.88-18.44c.83-1.33-1-1.78-1-1.78a.94.94 0 0 1-.76-1.25 1 1 0 0 1 1.13-.75l11.27 2.1a.91.91 0 0 1 .83 1.11 1.06 1.06 0 0 1-1.2.89s-1.33-.29-1.11 1.43l3.3 23.75a2.37 2.37 0 0 0 1.29 1.93 1.09 1.09 0 0 1 .94 1.32.85.85 0 0 1-1 .73zm-1.5-25.4-4.84 7.51a10.3 10.3 0 0 1 3.12 0 9.74 9.74 0 0 1 3.1 1.26z" id="path288" style="fill:#f2f2f2"/><path class="cls-14" d="M266.175 69.244s-1.36-.81-2.28 1l-1.7 3.4c-1.09 2.19-6.46 2.78-11.76 0-6.5-3.32-9-12.61-5.31-20.11 3.66-7.34 12.61-11 18.47-8.48 4.71 2 4.69 4.56 5.77 4.68.25 0 .5-.25.6-.79.1-.54.52-.71.93-.59a1.38 1.38 0 0 1 1 1.38l-1 8.24c-.13 1.11-1.17.75-1.58.64-.41-.11-1.46-.61-1.51-1.43l-.14-1.38a7.53 7.53 0 0 0-4.09-6.53 8.36 8.36 0 0 0-1-.42c-4.73-1.56-9.43 1.89-12.08 7.21-2.65 5.32-2.47 12.46 1.94 14.74 3.16 1.66 5 .33 5.69-1.15l.94-1.88a1.51 1.51 0 0 0-.81-2.34c-1.06-.49-1.21-1.11-1-1.53a1 1 0 0 1 1.18-.5l8.58 4.27a1.19 1.19 0 0 1 .62 1.19c-.03.46-.48.78-1.46.38z" id="path290" style="fill:#f2f2f2"/><path class="cls-14" d="M277.175 91.614c-6-5.25-6.38-14.5-.5-21.15 5.72-6.48 14.94-7.69 21-2.44 6.06 5.25 6.39 14.77.72 21.3-5.67 6.53-15.18 7.54-21.22 2.29zm18.76-21.6c-4-3.45-10-.33-14.36 4.66-4.36 4.99-6.6 11.55-2.65 15 3.95 3.45 10.49.59 14.83-4.4s6.13-11.87 2.18-15.26z" id="path292" style="fill:#f2f2f2"/></svg>