<svg xmlns="http://www.w3.org/2000/svg" id="Layer_1" width="381.193" height="362.873" data-name="Layer 1" viewBox="0 0 381.193 362.873"><defs id="defs10945"><clipPath id="clippath"><path id="path10942" d="M815.97 985.14c-19.1 18.81-45.25 30.56-74.05 30.56-57.88 0-104.9-46.72-104.9-104.6s47.01-104.9 104.9-104.9c28.8 0 54.95 11.75 74.05 30.56l-28.21 28.21c-11.75-11.75-27.92-19.1-45.84-19.1-36.14 0-65.23 29.09-65.23 65.23s29.09 64.94 65.23 64.94c17.92 0 34.09-7.35 45.84-19.1l28.21 28.21z" style="fill:none"/></clipPath><style id="style10940">.cls-2,.cls-3,.cls-5{fill:none}.cls-2{stroke-width:5.16px}.cls-2,.cls-3,.cls-8,.cls-9{stroke-miterlimit:10}.cls-2,.cls-3,.cls-5,.cls-8,.cls-9{stroke:#bc8053}.cls-3,.cls-5,.cls-9{stroke-width:4.8px}.cls-11{fill:#e7b99b}.cls-12{fill:#91bddb}.cls-13{fill:#527890}.cls-8{stroke-width:1.25px}.cls-14,.cls-8{fill:#bc8053}.cls-15,.cls-9{fill:#fff}.cls-16{fill:#c63800}.cls-17{fill:#a9daf6}.cls-18{fill:#100101}.cls-19{fill:#271919}.cls-5{stroke-linejoin:bevel}</style></defs><g id="g11391" transform="translate(-66.498 -184.527)"><g id="g11207"><path id="polygon11155" d="M203.22 527.47h115.05L309.35 545h-97.21z" class="cls-9"/><path id="polygon11157" d="M179 510.13h163.49l-12.68 24.91H191.68z" class="cls-9"/><path id="rect11159" d="M84.9 438.72h344.68v86.72H84.9z" class="cls-9"/><path id="rect11161" d="M155.2 424.88h207.21v29.15H155.2z" class="cls-15"/><g id="g11181"><path id="path11163" d="M104.17 472.8c0-9.56 1.88-15.94 19.63-12.41v7.11c-10.81-2.39-12.24 0-12.24 4.55v23.9c0 3.13 1.14 4.1 3.41 4.1s3.3-.85 3.3-4.1v-3.02h-4.84l2.85-6.83h9.39v9.28c0 9.39-5.69 11.5-10.81 11.5-5.58 0-10.7-2.39-10.7-11.5v-22.59z" class="cls-19"/><path id="path11165" d="M138.49 486.12h2.56v-15.31c0-9.11 5.12-11.5 10.64-11.5s10.81 1.99 10.81 11.5v35.12h-7.23v-12.98h-6.83v12.98h-7.4v-12.98h-5.41l2.85-6.83zm16.79-15.83c0-3.24-1.31-4.1-3.41-4.1-2.28 0-3.42.97-3.42 4.1v15.82h6.83z" class="cls-19"/><path id="path11167" d="M200.35 495.96c0 7.97 2.85 9.96 2.85 9.96h-7.23s-2.85-.97-2.85-9.96v-25.44c0-2.39-1.31-3.81-3.42-3.81-2.28 0-3.41 1.42-3.41 3.81v35.4h-7.4v-45.64h7.4v2.56s1.14-2.96 6.09-2.96 7.97 2.11 7.97 12.07v24.02z" class="cls-19"/><path id="path11169" d="M216.68 472.8c0-9.56 1.88-15.94 19.63-12.41v7.11c-10.81-2.39-12.24 0-12.24 4.55v23.9c0 3.13 1.14 4.1 3.41 4.1s3.3-.85 3.3-4.1v-3.02h-4.84l2.85-6.83h9.39v9.28c0 9.39-5.69 11.5-10.81 11.5-5.58 0-10.7-2.39-10.7-11.5v-22.59z" class="cls-19"/><path id="path11171" d="M271.77 493.29c0 9.56-1.82 15.94-19.64 12.41v-7.11c10.81 2.39 12.24 0 12.24-4.55v-1.08h-12.24v-20.09c0-9.56 1.88-15.94 19.64-12.41v7.11c-10.81-2.39-12.24 0-12.24 4.55v14h12.24z" class="cls-19"/><path id="path11173" d="M304.21 467.28h-6.15v38.64h-7.23v-38.64h-7.97l2.85-7h18.5z" class="cls-19"/><path id="path11175" d="M326.12 494.14c0 4.55 1.42 6.94 12.24 4.55v7.11c-17.81 3.53-19.64-2.85-19.64-12.41v-.46h-5.41l2.85-6.83h2.56v-13.32c0-9.56 1.82-15.94 19.64-12.41v7.11c-10.81-2.39-12.24 0-12.24 4.55v14.06h10.81v6.83h-10.81v1.2z" class="cls-19"/><path id="path11177" d="M364.08 460.28c9.56 0 12.41 2.5 12.41 11.95v2.9c0 6.03-1.14 10.13-4.44 12.69h4.44v8.14c0 7.97 2.85 9.96 2.85 9.96h-7.28s-2.85-.97-2.85-9.96v-3.02h-6.83v12.98h-7.4v-12.98h-5.41l2.85-6.83h2.56v-25.84h9.11zm-1.71 7v18.84h1.71c3.7 0 5.12-3.7 5.12-11.5v-2.79c0-3.7-.85-4.55-4.84-4.55z" class="cls-19"/><path id="path11179" d="M411.49 493.29c0 9.56-1.82 15.94-19.64 12.41v-7.11c10.81 2.39 12.24 0 12.24-4.55v-1.08h-12.24v-20.09c0-9.56 1.88-15.94 19.64-12.41v7.11c-10.81-2.39-12.24 0-12.24 4.55v14h12.24z" class="cls-19"/></g><g id="g11197"><path id="path11183" d="M188.59 442.77c-1.93 1.9-4.57 3.09-7.48 3.09-5.85 0-10.59-4.72-10.59-10.56s4.75-10.59 10.59-10.59c2.91 0 5.55 1.19 7.48 3.09l-2.85 2.85a6.52 6.52 0 0 0-4.63-1.93c-3.65 0-6.59 2.94-6.59 6.59s2.94 6.56 6.59 6.56c1.81 0 3.44-.74 4.63-1.93l2.85 2.85z" class="cls-13"/><path id="path11185" d="M208.92 445.44v-8.22h-4.72v8.22h-4.04v-20.33h4.04v8.1h4.72v-8.1h4.01v20.33z" class="cls-13"/><path id="path11187" d="M226.58 445.44v-20.33h4.04v20.33z" class="cls-13"/><path id="path11189" d="M261 442.77c-1.93 1.9-4.57 3.09-7.48 3.09-5.85 0-10.59-4.72-10.59-10.56s4.75-10.59 10.59-10.59c2.91 0 5.55 1.19 7.48 3.09l-2.85 2.85a6.52 6.52 0 0 0-4.63-1.93c-3.65 0-6.59 2.94-6.59 6.59s2.94 6.56 6.59 6.56c1.81 0 3.44-.74 4.63-1.93l2.85 2.85z" class="cls-13"/><path id="path11191" d="M280.97 443.75h-6.2l-.62 1.69h-4.33l8.07-20.95 8.04 20.95h-4.33l-.62-1.69zm-5.1-2.91h4.01l-1.99-5.25z" class="cls-13"/><path id="path11193" d="M311.15 439.06h-5.37v-3.77h10.56c0 5.82-4.75 10.56-10.56 10.56s-10.59-4.75-10.59-10.56 4.75-10.59 10.59-10.59c2.79 0 5.49 1.13 7.48 3.09l-2.85 2.85a6.6 6.6 0 0 0-4.63-1.93c-3.65 0-6.59 2.94-6.59 6.59s2.94 6.56 6.59 6.56c2.23 0 4.18-1.1 5.37-2.79z" class="cls-13"/><path id="path11195" d="M337.77 445.86c-5.85 0-10.59-4.72-10.59-10.56s4.75-10.59 10.59-10.59 10.56 4.75 10.56 10.59-4.72 10.56-10.56 10.56m0-4.07a6.5 6.5 0 1 0 0-13c-3.59 0-6.53 2.91-6.53 6.5s2.94 6.5 6.53 6.5" class="cls-13"/></g><path id="polygon11199" d="m84.53 527.66-.74-89.68-14.94 12.73z" class="cls-5"/><path id="polygon11201" d="m429.65 527.66.74-89.68 14.95 12.73z" class="cls-5"/><path id="polyline11203" d="M155.28 428.79h-45.65l-5.46 9.19" class="cls-3"/><path id="polyline11205" d="M362.42 428.94h45.65l5.45 9.18" class="cls-3"/></g><g id="g11389"><path id="path11209" d="m330.79 281.2-17.21-1.61-3.37-.3c0-.55-.05-1.09-.14-1.64l-.09-.54c-.08-.45-.18-.89-.31-1.32 1.54-1.08 3.38-2.74 4.05-5.55.74-3.09-.21-5.97-1.06-8.08 4.68-1.94 9.44-4.52 10.68-9.43.73-2.9.11-6.25-1.68-9.2-1.77-2.91-4.5-5.15-7.84-6.45a11.02 11.02 0 0 0 2.68-7.17v-1.67c0-1.23-.18-2.33-.54-3.37-.83-2.39-2.91-5.61-8.14-7.42-1.98-.68-4.13-1.03-6.38-1.03h-14.86l-10.89-22.49a16.65 16.65 0 0 0-10.88-8.88c-4.76-1.22-9.78-.28-13.77 2.56-1.02.73-1.93 1.43-2.69 2.05-6.06-1.15-12.85-1.33-20.25-.52-6.76.74-12.97 4.28-17.06 9.71-4.09 5.44-5.76 12.4-4.57 19.09l2.33 13.16-6.81 1.62c-8.68 1.76-14.17 5.86-17.25 9-3.47 3.54-4.43 8.74-2.43 13.26 2.05 4.65 6.84 7.52 11.93 7.14l15.26-1.14c.14.72.34 1.42.6 2.08l6.57 15.55c-4.7.24-9.38.57-14 1.01l-17.21 1.61h-2.1c-3.8 0-6.77 3.25-6.43 7.02 1.63 17.92 3.75 29.9 5.26 36.88l.12 1.09.12.47c.27 1.01.54 2 .81 2.99.84 3.36 1.48 5.27 1.72 5.93 17.21 57.03 41.85 71.16 44.6 72.58l1.91.99h53.33l1.91-.99c2.73-1.41 27.06-15.35 44.25-71.44l.22-.38.19-.52c.2-.54 5.03-13.63 8.13-47.61.34-3.77-2.63-7.02-6.43-7.02h-2.32z" class="cls-14"/><path id="polyline11211" d="m216.68 278.58-42.42 1.88 7.28 41.42" class="cls-14"/><path id="polyline11213" d="m299.43 278.58 42.42 1.88-7.28 41.42" class="cls-14"/><g id="g11383"><path id="path11215" d="M232.31 287.85s3.89 43.83 24.54 76.4c0 0 23.89-32.22 25.93-74.39l-15.94 9.96-14.36 5.52-2.91-3.32" class="cls-17"/><path id="polyline11217" d="m257.75 309.83-8.21 8.52 2.43 7.7-6.57 15.53 11.19 23.88 13.91-25.79-5.92-10.95 1.26-11.55" class="cls-16"/><path id="path11219" d="m327.93 290.25-43.6-2.41s-3.44 54.23-24.7 76.4c0 0-20.89-15.7-28.1-77.74l-42.98 3.75s.41 58.16 44.68 112l48.54-2.39s44.65-37.1 46.16-109.62z" style="fill:#33607a"/><path id="path11221" d="M261.11 371.74s28.4-28.65 24.5-76.1l-7.5 37.26" class="cls-17"/><path id="path11223" d="M206.07 314.05s-3.38 6.74-3.57 10.53c0 0-2.02-1.11 1.04-10.89" class="cls-13"/><path id="path11225" d="M310.41 314.05s3.38 6.74 3.57 10.53c0 0 2.02-1.11-1.04-10.89" class="cls-13"/><path id="path11227" d="M304.54 311.48s9.83 8.18 19.74 8.38-6-6.81-6-6.81" class="cls-17"/><g id="g11241"><path id="path11229" d="M222.42 302.02c.51-.25 1.21.02 1.42.56.22.55.17 1.01.19 1.54 0 .82-.03 3.09-.04 3.94-.23 19.12 6.15 38.15 17.92 53.24 4.24 5.52 9.12 10.54 14.42 15.07l-.46.55c-5.4-4.48-10.4-9.47-14.77-14.99-13.18-16.38-19.61-36.84-19.02-57.79 0-.28 0-.57-.05-.81 0 0-.02-.04.03.07.15.29.38.45.75.49.18 0 .29-.02.42-.08l-.82-1.79z" class="cls-13"/><path id="path11231" d="M214.95 309.66c.39-.03.8.22.95.54.17.31.18.63.21.94.03.41.06 1.56.07 1.98.22 19.67 7.28 39.2 20.26 54.06 4.47 5.19 9.56 9.84 15.06 13.94l-.6.82c-5.6-4.08-10.8-8.73-15.39-13.94-13.69-15.29-21.02-35.65-21.26-56.09l-.04-.61c-.01-.11-.02-.23-.04-.29 0 0 0 .02.01.04.11.31.52.57.88.53l-.12-1.91z" class="cls-13"/><path id="path11233" d="M293.97 302.09c.33.24.55.51.75.82 1.08 2.15.93 4.67.91 6.97-1.12 16.81-7.44 33.55-15.63 48.15-9.58 16.81-23.39 31.47-40.54 40.62l-.34-.63c8.42-4.63 16.08-10.6 22.73-17.51 13.29-13.87 22.66-31.25 28.09-49.6 1.97-6.87 3.54-13.93 3.81-21.07 0-1.94.09-3.98-.64-5.77-.08-.21-.2-.28-.21-.32l1.08-1.65z" class="cls-13"/><path id="path11235" d="M304.54 311.48c-3.35 16.65-8.96 32.91-17.34 47.7-5.14 8.81-11.63 16.83-18.96 23.88-6.5 6.3-13.72 11.82-21.23 16.82l-.56-.84c14.85-9.98 28.34-22.41 37.75-37.72 4.66-7.62 8.36-15.89 11.38-24.28 3-8.41 5.47-17.11 7.09-25.88l1.88.32z" class="cls-13"/><path id="path11237" d="M307.74 322.96c.68-.37 1.45.13 1.56.79.22 2.06-.49 4.04-.94 6-6.33 21.31-18.67 40.82-34.77 56.1-5.9 5.52-12.38 10.44-19.32 14.56l-.54-.9c6.85-4.14 13.22-9.06 19.01-14.57 11.58-11.03 20.88-24.39 27.64-38.87 3.03-6.76 5.97-13.73 7.13-21.07.03-.28.05-.6.02-.81 0 0-.02.05.14.23.16.2.54.3.77.23.05-.01.11-.03.15-.06z" class="cls-13"/><path id="path11239" d="M231.11 370.97c-11.92-12.28-20.05-28.56-22.18-45.58l-1.37 2.54c2.84 16.51 10.86 32.04 22.66 43.92 4.84 4.87 10.22 9.18 15.99 12.89l.57-.88c-5.67-3.72-10.94-8.03-15.67-12.88z" class="cls-13"/></g><g id="g11247"><path id="path11243" d="M256.88 361.83c-16.58-17.25-21.97-54.57-23.44-68.45l-3.49 1.98s-3.61 46.2 25.8 72.36c.23.21.45.4.67.6l1.18-7.11c-.47.43-.73.63-.73.63z" class="cls-17"/><path id="path11245" d="m256.43 368.32-.06.38c-10.74-11.69 6.85 1.39.06-.38" class="cls-17"/></g><path id="polyline11249" d="m188.8 315.32 29.21-7.05 16.54-21.77-46 3.75" class="cls-15"/><path id="line11251" d="m210.69 286.5 9.04 15.49" class="cls-2"/><path id="line11253" d="m197.35 290.37 12.48 20.23" class="cls-2"/><path id="polyline11255" d="m327.68 315.32-29.21-7.05-16.54-21.77 46 3.75" class="cls-15"/><path id="line11257" d="m305.58 286.5-9.04 15.49" class="cls-2"/><path id="line11259" d="m318.92 290.37-12.48 20.23" class="cls-2"/><path id="polyline11261" d="m230.43 247.68 1.51 30.33-.87 10.98 26.18 19.36 23.28-17.29 6.6-36.51-2.6-6.87 2.6-9.44h-56.7" class="cls-19"/><path id="path11263" d="m238.68 281.85-1.91-6.17c-.78 1.11-1.85 1.72-3.12 1.72-.12 0-.34.04-.55.07-2.97.51-5.4-.22-8.97-5.48l-.04-.07c-.1-.16-2.43-3.88-4.93-10.12-1.7-4.24-1.5-7.98.55-10.25 1.59-1.76 4.02-2.33 6.67-1.57 3.23.92 5.77 2.23 7.91 5.15.74-3.17 2.05-6.5 4.36-8.81l.72-.72h18.47l-6.59 3.08 5.44.39-7.43 6.69 1.69.66c2.41.94 5.18.15 6.74-1.91 1.46-1.93 2.76-3.79 3.86-5.55l-1.07-3.2 12.3-3.36v6.64c0 .87.18 1.71.53 2.5l2.78 6.21 2.07 2.48a4.91 4.91 0 0 1 1.05 4.15l-.06.31a6.6 6.6 0 0 1-2.52 4 8.45 8.45 0 0 1-3.68 1.57l-.84.14c-1.4.23-2.82-.03-4.03-.75l-.21.21c-.81.81-1.89 1.26-3.04 1.26s-2.23-.45-3.04-1.26l-.72-.72a4.3 4.3 0 0 1-.65-5.25l1.09-1.81 4.19 2.52-.78 1.31.13-.13a4.14 4.14 0 0 1 2.93-1.22c.82 0 1.62.24 2.3.7l.24.16c.23.16.51.22.79.17l.84-.14c.56-.09 1.09-.32 1.55-.66.34-.25.57-.62.66-1.04l.06-.31s0-.04-.01-.06l-2.5-3-3.06-6.82c-.64-1.42-.96-2.94-.96-4.5v-.23l-1.14.31.15.45-.58.96c-1.31 2.18-2.9 4.52-4.74 6.94-2.87 3.79-7.97 5.24-12.41 3.51l-4.5-1.75a3 3 0 0 1-1.88-2.28c-.03-.16-.05-.32-.05-.48l-3.56-.63c-.81 3.25-.97 6.67-.93 8.32l.45 17.68zm-10.47-12.56c2.48 3.64 3.28 3.5 4.06 3.36.19-.03.41-.07.65-.1.19-.5.38-1.38.44-2.11l1.84.13-1.74-5.63c-2.49-8.04-4.84-9.24-8.42-10.26-.47-.13-1.31-.29-1.7.14-.57.63-.69 2.51.36 5.15 2.21 5.51 4.29 8.95 4.51 9.3zm39.35.04" class="cls-19"/><path id="path11265" d="m286.51 290.68-4.26-.43c-2.74 27.13-10.21 51.53-22.18 72.64l-.5-.38c-.87 1.13-1.2 2.42-1.44 3.62-13.08-21.84-21.18-47.35-24.06-75.88l-4.26.43c3.02 29.83 11.63 56.47 25.6 79.2-10.91 12.58-16.16 15.87-23.97 19.37l.89 2.22-3.75-1.68 2.79 5.05c.58-.23 16.21-7.03 29.73-23.09 1.06-1.26 1.02-.87 1.11-1.21 12.77-21.97 21.43-51.49 24.3-79.85z" class="cls-19"/><path id="path11267" d="m193.44 325.29-3.96.02-.93-13.61 2.43-.02c.09 0 9.68-.19 26.63-6.34l1.67 4.6c-13 4.71-21.83 6.08-25.83 6.47v8.88z" class="cls-19"/><path id="path11269" d="m187.95 319.28 6.09-.53-2.31-26.37 12.12-1.14c9.77-.92 19.74-1.38 29.63-1.38h49.3c9.89 0 19.86.47 29.63 1.38l12.12 1.14-2.31 26.37 6.09.53 2.83-32.42-18.17-1.71a323 323 0 0 0-30.2-1.41h-49.3c-10.08 0-20.24.47-30.2 1.41l-18.17 1.71 2.83 32.42z" class="cls-19"/><path id="path11271" d="m325.78 325.3-2.95-.02v-8.88c-4-.39-12.83-1.75-25.83-6.47l1.67-4.6c16.95 6.15 26.54 6.34 26.63 6.34l2.41.03z" class="cls-19"/><path id="polygon11273" d="m207.21 325.92 15.28 6.72-1.23 1.22-11.68-2.22z" class="cls-19"/><path id="polygon11275" d="m309.06 325.92-15.28 6.72 1.22 1.22 11.68-2.22z" class="cls-19"/><path id="path11277" d="M236.46 312c1.09 3.14 2.35 6.32 3.75 9.35 1.39 2.92 2.92 6.02 5.08 8.37l-1.97.63c1.46-6.2 4.82-11.66 8.57-16.71 1.27-1.7 3.07-3.77 4.47-5.38h1.78v3.67h-.95s1.34-.58 1.33-.57c-5.41 5.56-10.56 11.93-12.88 19.43l-.52 2.08-1.46-1.46c-2.65-2.54-4.39-5.59-6.13-8.71a103 103 0 0 1-4.5-9.43l3.44-1.28z" class="cls-19"/><path id="path11279" d="M283.24 313.28c-2.06 4.84-4.3 9.54-7.2 13.94-1 1.46-2.04 2.91-3.43 4.2l-1.46 1.46c-.53-2.54-1.47-5.11-2.71-7.4-2.73-5.23-6.55-9.92-10.7-14.11-.02-.01 1.33.57 1.33.57h-.95v-3.67h1.78l.5.57c2.73 3.08 5.36 6.44 7.5 9.95 2.18 3.63 4.1 7.37 5.04 11.56l-1.97-.63c1.06-1.11 1.96-2.51 2.79-3.93 2.48-4.34 4.39-9.09 6.04-13.79z" class="cls-19"/><path id="path11281" d="m250.7 331.19-.51-2.7c-.64-3.2-.65-9.86-.65-10.14h3.67c0 .05 0 4.08.28 7.19 1.93-.56 5.02-1.06 9.54-.67l.15-7.69 3.67.07-.23 11.75-2.04-.27c-8.19-1.09-11.57.93-11.6.95l-2.28 1.52z" class="cls-19"/><path id="path11283" d="m245.4 341.58-2.73-2.45c.05-.06 5.32-5.95 7.61-11.68l3.4 1.36c-2.54 6.34-8.05 12.51-8.28 12.77" class="cls-19"/><path id="path11285" d="M270.25 343.48c-3.92-3.92-7.91-15.1-8.07-15.58l3.46-1.22c1.07 3.01 4.44 11.44 7.21 14.21l-2.59 2.59z" class="cls-19"/><path id="path11287" d="M248.01 337.92s4.16-.63 10.18-7.35c0 0-.09 14.14-6.82 18.07h-3.36l-3.97-7.09" class="cls-19"/><path id="path11289" d="M255.04 325.68c4.89-6.72-.87-9.22-.87-9.22h-1.54l-2.44 2.25 2.07 8.58" class="cls-19"/><g id="g11295"><path id="path11291" d="m235.79 272.82 3.67 9.17c1.65 4.12 4.99 7.32 9.19 8.77 5.27 1.81 13.15 4 21.99 4.68 0 0 5.57-.86 9.9-4.37a7.16 7.16 0 0 0 2.6-4.76l3.14-27.76c.17-1.46.01-2.94-.46-4.34l-.81-2.42c-.61-1.83-.68-3.79-.22-5.66l1.12-4.47" class="cls-11"/><path id="path11293" d="m270.7 297.27-.21-.02c-9.11-.7-17.23-2.98-22.44-4.77a17.05 17.05 0 0 1-10.29-9.82l-3.67-9.17 3.4-1.36 3.67 9.17a13.36 13.36 0 0 0 8.08 7.71c4.96 1.71 12.66 3.88 21.3 4.57.96-.18 5.39-1.15 8.83-3.95a5.3 5.3 0 0 0 1.93-3.55l3.14-27.76c.14-1.19 0-2.42-.37-3.56l-.81-2.42c-.72-2.16-.81-4.47-.26-6.68l1.12-4.47 3.56.89-1.12 4.47c-.38 1.53-.32 3.13.18 4.63l.81 2.42c.55 1.64.73 3.41.54 5.13l-3.14 27.76a8.97 8.97 0 0 1-3.26 5.98c-4.66 3.78-10.53 4.72-10.78 4.76l-.21.03z" class="cls-19"/></g><path id="path11297" d="m284.07 254.77-.81-2.42c-.72-2.16-.81-4.47-.26-6.68l.66-2.64-13.07 8.13c-.18-.69-.28-1.4-.28-2.11v-3.44l-6.72 1.83.61 1.83c-1.47 2.44-3.13 4.79-4.59 6.72a8.25 8.25 0 0 1-9.57 2.71l-4.5-1.75a.585.585 0 0 1-.18-.98l5.4-4.86c-5.64-.4-7.09 2.93-8.11 4.51-.53.82-1.67.38-1.67.38.61-5.5 5.84-7.95 5.84-7.95h-6.45c-3.25 3.25-4.21 9.34-4.48 13.04-.05.63-.9.75-1.13.16-2.49-6.36-5.3-7.85-9.06-8.93-4.28-1.22-6.72 2.44-4.28 8.56 2.44 6.11 4.73 9.73 4.73 9.73 4.12 6.06 5.66 4.33 7.5 4.33s2.14-4.33 2.14-4.33l6.08-1.59-6.08 3.78 1.7-.68 3.67 9.17a13.36 13.36 0 0 0 8.08 7.71c4.96 1.71 12.66 3.88 21.3 4.57.96-.18 5.39-1.15 8.83-3.95a5.3 5.3 0 0 0 1.93-3.55l3.14-27.76c.14-1.19 0-2.42-.37-3.56z" class="cls-15"/><path id="path11299" d="m248.11 273.96-2.6-17.01a.59.59 0 0 1-.15-.97l5.4-4.86c-5.64-.4-7.09 2.93-8.11 4.51-.53.82-1.67.38-1.67.38.56-5.01 4.94-7.48 5.71-7.88l-.52-.07h-1.48l-4.94.69c-2.76 3.37-3.61 8.9-3.86 12.35-.05.63-.9.75-1.13.16-2.49-6.36-5.3-7.85-9.06-8.93-4.28-1.22-6.72 2.44-4.28 8.56 2.44 6.11 4.73 9.73 4.73 9.73 4.12 6.06 5.66 4.33 7.5 4.33s2.14-4.33 2.14-4.33l6.08-1.59-6.08 3.78 1.7-.68 3.67 9.17a13.36 13.36 0 0 0 8.08 7.71c4.96 1.71 12.66 3.88 21.3 4.57.07-.01.16-.03.27-.05l-13.95-7.32a16.68 16.68 0 0 1-8.74-12.25z" class="cls-14"/><path id="path11301" d="M272.46 254.48s4.89 1.83 7.33-1.22 1.97-4.96 1.97-4.96-2.94-2.89-6.72-2.44c0 0 4.75-1.76 9.03-.54l1.53-4.41-16.05 1.51" class="cls-19"/><path id="path11303" d="M275.82 268.23c1.59 0 3.43.77 4.53 1.31a.955.955 0 0 0 1.33-.56l.25-.75c1.22.61 1.22 2.44.61 3.06l-1.22 1.22c2.44.61 3.06-1.22 3.06-1.22v-2.44c0-1.83-.78-2.21-.78-2.21 3.67-.61 2 .99 2 .99l-1.83 12.22-3.22-.38-3.06 3.67c-1.83 1.83-5.34.99-5.34.99l-5.5-1.83s1.22-1.22 5.5-1.22 6.11-2.44 6.11-2.44l-1.83-.61c-3.67-1.22-9.17.61-9.17.61 4.28-4.89 10.39-6.11 10.39-6.11-4.89-.61-6.72.61-8.56 1.22s-3.42 3.32-6.11 4.89c-2.86 1.66-5.44.32-5.5-1.83-.05-1.83.64-1.6.64-1.6s.39 2.76 2.93 1.27c1.31-.77 2.22-2.05 3.13-3.25 1.01-1.33 2.16-2.54 3.52-3.52" class="cls-19"/><path id="path11305" d="m282.01 279.55 15.21 2.74h2.73a3.81 3.81 0 0 0 3.76-4.44l-.09-.54c-.18-1.1-.84-2.07-1.8-2.64l-.7-.42c-.55-.33-1.18-.52-1.83-.54l-16.13-.58" class="cls-19"/><path id="path11307" d="m277.35 274.04 19.56 1.83s-.61 1.83-.61 3.06z" class="cls-11"/><ellipse id="ellipse11309" cx="299.96" cy="278.01" class="cls-16" rx="1.53" ry="2.44"/><path id="rect11311" d="M230.6 276h4.89v14.23h-4.89z" class="cls-19"/><path id="path11313" d="M309.87 225.91c-.63-1.84-2.49-2.87-4.15-3.45-1.37-.47-2.81-.68-4.26-.68h-18.91l-12.65-26.21c-2.74-5.68-9.95-7.56-15.09-3.89-2.88 2.05-4.65 3.82-4.65 3.82-7.05-1.88-14.65-1.86-21.33-1.13-10.49 1.16-17.81 10.96-15.98 21.36l3.39 19.19-12.83 3.06c-7.15 1.43-11.58 4.74-14.03 7.24a5.61 5.61 0 0 0-1.14 6.19c.95 2.17 3.17 3.5 5.54 3.32l31.94-2.39 61.42-10.1c12.35-2.48 18.92-7.58 21.54-10.11.88-.85 1.38-2.03 1.38-3.26v-1.68c0-.43-.04-.87-.18-1.28z" class="cls-19"/><path id="path11315" d="M193.36 249.86a.72.72 0 0 1-.65-.43c-.12-.27-.05-.59.16-.82 2-2.07 5.63-4.8 11.6-6.01l.17-.04 17.48-4.23-4.23-24.33c-.66-3.79.23-7.57 2.5-10.64 2.26-3.06 5.57-4.98 9.31-5.4 2.64-.3 5.21-.44 7.65-.44 4.43 0 8.49.49 12.07 1.46l2.75.74 2.01-2.04s1.57-1.58 4.07-3.38c.9-.66 1.96-1 3.06-1 2.09 0 3.95 1.18 4.86 3.09l14.12 29.71h22.18c.99 0 1.89.14 2.68.42.52.18.86.37 1.06.5v1.18c-2.08 2-7.89 6.63-19.09 8.93l-61.7 10.31-32.02 2.43h-.06z" class="cls-19"/><path id="path11317" d="M297.52 274.65s-4.14-3.44-2.3-6.8 5.36-3.09 3.22-7.01-3.36-6.36-.92-9.42 9.17-3.06 7.95-5.5c-.45-.89-1.47-1.46-2.58-1.82s-1.13-2.02.05-2.33c1.95-.52 4.41-.81 6.95-.2 5.81 1.4 7.8 6.19 7.19 8.63s-4.89 4.28-7.95 5.5-3.67 2.44-3.67 4.28 2.58 5.33 1.97 7.87-6.11 2.76-5.5 7.33" class="cls-19"/><path id="path11319" d="M298.44 272.08s-1.43-3.17.81-5.34 3.47-3.39 1.63-6.45c-1.83-3.06-3.23-6.4-1-8.39s11.39-3.22 8.95-6.89c0 0 3.06.61 4.28 3.67s-5.5 4.89-7.95 6.11-2.44 5.5-1.83 8.56-.61 4.28-2.44 5.5-2.44 3.23-2.44 3.23z" class="cls-15"/><path id="path11321" d="M271.85 245.62c.05 1.84-.26 4.68.63 6.35l2.9 6.47-.22-.35c.55.77 2.52 2.92 2.82 3.79 1.02 2.6-.81 5.66-3.26 6.66-.63.29-1.32.49-2 .59-1.42.3-2.99.23-4.2-.63-.18-.13-.44-.35-.68-.29-.09.01-.17.05-.24.11 0 0-.67.65-.66.63-.62.61-1.51.93-2.37.84-.84-.06-1.59-.55-2.13-1.18-.1-.11-.37-.38-.47-.49-.86-.9-1.03-2.37-.38-3.44.07-.12.48-.48.9-.84.55-.49 1.38-.49 1.94 0l-.86 1.5c-.25.38-.45.84-.11 1.24.11.13.38.37.51.5l.31.29c.26.23.68.26.95.04.11-.09.7-.71.81-.83.89-.85 2.33-1.01 3.4-.39.43.29.94.58 1.48.59.37.04 1.03-.14 1.39-.19.46-.09.88-.23 1.28-.44 1.05-.55 1.63-1.25 1.8-2.31.12-.44.02-.89-.31-1.2l-2.26-2.61-.13-.15-.09-.21-2.9-6.47c-1.11-2.13-.9-5.26-.9-7.6h3.06z" class="cls-19"/><path id="path11323" d="M235.67 288.2s7.17 12.15 20.25 16.92c0 0-8.54-6.87-8.31-12.69 0 0-4.53-.11-7.97-7.46" class="cls-14"/><path id="polyline11325" d="m237.71 268.54 4.94.54v1.02l-4.94 1.25" class="cls-14"/><path id="path11327" d="M230.72 278.01s5.21-.99 5.21-10.77h2.44v11" class="cls-19"/><path id="path11329" d="M191.98 327.29c15.94 59.44 40.66 72.38 40.66 72.38l4.94-.21 4.53-9.26c-29.97-15.59-45.9-63.07-45.9-63.07" class="cls-19"/><path id="path11331" d="M320.06 327.14s-32.15 57.15-62.12 72.73l28.5-2.68s21.91-10.46 37.85-69.9" class="cls-19"/><path id="path11333" d="M234.71 299.82s7.92 8.22 16.67 9.62c0 0-13 3.38-16.67-9.62" class="cls-19"/><path id="path11335" d="M281.55 299.82s-7.92 8.22-16.67 9.62c0 0 13 3.38 16.67-9.62" class="cls-19"/><path id="polyline11337" d="M256.45 367.48h2.58l17.5-37.64h-1.88l-16.46 30.19-16.67-30.19" class="cls-19"/><path id="path11339" d="M222.12 238.33c10.64 2.26 21.14.8 21.14.8l-7.48 3.29c36.07-3.86 56.16-8.13 67.35-11.75 1.42-.98 2.43-1.86 3.07-2.48v-1.18c-.2-.13-.54-.32-1.06-.5-.79-.28-1.69-.42-2.68-.42h-22.18c-.25 8.96-58.17 12.24-58.17 12.24z" class="cls-13"/><path id="path11341" d="M222.12 238.33c10.64 2.26 22.36.19 22.36.19l-8.7 3.9c36.07-3.86 56.16-8.13 67.35-11.75 1.42-.98 2.43-1.86 3.07-2.48v-1.18c-.2-.13-.54-.32-1.06-.5-.79-.28-1.69-.42-2.68-.42h-22.18c-.25 8.96-58.17 12.24-58.17 12.24z" class="cls-13"/><path id="path11343" d="M250.05 232.18c17.01-1.94 25.62-6.24 29.1-8.48l-2.89-5.96c-8.12 4.98-18.78 5.72-28.28 6.43l2.06 8.01z" class="cls-13"/><path id="path11345" d="M266.17 196.38c-.91-1.91-2.77-3.09-4.86-3.09-1.1 0-2.16.35-3.06 1-2.49 1.81-4.06 3.38-4.07 3.38l-2.01 2.04-2.75-.74c-3.58-.97-7.64-1.46-12.07-1.46-2.44 0-5.01.15-7.65.44-1.91.21-3.71.82-5.31 1.77 10.83.36 17.84 1.66 22.37 3.12l.79.21s0 .02-.03.04c6.55 2.28 7.36 4.85 7.36 4.85-8.22 2.35-12.95 5.58-15.64 8.31-1.19 1.86-2.38 3.69-3.45 5.3 0 0 24.47.53 38.97-7.14l-8.58-18.06z" class="cls-13"/><path id="path11347" d="M266.17 196.38c-.91-1.91-2.77-3.09-4.86-3.09-1.1 0-2.16.35-3.06 1-2.49 1.81-4.06 3.38-4.07 3.38l-2.01 2.04-2.75-.74c-3.58-.97-7.64-1.46-12.07-1.46-2.44 0-5.01.15-7.65.44-1.91.21-3.71.82-5.31 1.77.39.01.76.03 1.14.05 21.43-1.47 26.9 3.29 26.9 3.29l5.92-5.49c1.96-1.82 5.16-.94 5.91 1.64l5.09 17.57c1.9-.68 3.72-1.46 5.4-2.35l-8.58-18.06z" class="cls-17"/><path id="path11349" d="M305.16 226.51c-.79-.28-1.69-.42-2.68-.42H280.3c-.03.95-.7 1.83-1.88 2.65h18.64l-19.72 7.98c11.7-2.1 19.98-4.16 25.82-6.05 1.42-.98 2.43-1.86 3.07-2.48v-1.18c-.2-.13-.54-.32-1.06-.5z" class="cls-17"/><path id="path11351" d="m279.16 223.7-2.89-5.96c-1.83 1.12-3.8 2.02-5.84 2.76l1.91 6.59c3.23-1.27 5.44-2.49 6.82-3.39" class="cls-17"/><path id="path11353" d="m232.77 267.99-2.46-2.35c-.73-.69-.57-1.89.31-2.38.6-.33.9-1.02.72-1.68-.48-1.77-1.65-5.06-3.84-5.83-3.04-1.07-3.66 3.31-2.77 5.99s7.04 8.79 7.04 8.79l1-2.53z" class="cls-19"/><g id="g11359"><path id="path11355" d="m249.39 255.47 3.09-2.57s3.17-.5 4.93 2.07l-1.31.99a4.44 4.44 0 0 1-4.47.52l-2.25-1z" class="cls-12"/><ellipse id="ellipse11357" cx="255.06" cy="253.41" class="cls-19" rx="2.57" ry="2.06"/></g><g id="g11365"><path id="path11361" d="m272.6 250.99 2.64-2.2s2.71-.43 4.21 1.76l-1.12.85c-1.1.83-2.55 1-3.81.44z" class="cls-12"/><ellipse id="ellipse11363" cx="277.44" cy="249.23" class="cls-19" rx="2.2" ry="1.76"/></g><path id="path11367" d="M333.11 286.8h-5.18v3.45l-3.43 15.95a174 174 0 0 1-4.37 16.57l-10.19 2.98c-2.04-6.2-8.8-23.24-25.1-37.33l-.67-.58h-4.08l-.71 1.01c-.07.1-7.45 10.32-20.33 14.74h-1.79c-12.87-4.42-20.25-14.63-20.32-14.73l-.71-1.01h-4.08l-.67.58c-16.3 14.09-23.06 31.13-25.1 37.33l-10.03-2.96a172 172 0 0 1-4.38-16.6l-3.43-15.95v-3.45h-5.18c1.59 17.52 3.63 29.28 5.21 36.54l.1.95c.27 1.02.54 2.02.82 3.01.96 3.86 1.61 5.58 1.61 5.58 16.72 55.72 40.39 68.57 41.44 69.11l.52.27h50.18l.52-.27c1.04-.54 24.56-13.31 41.27-68.55l.33-.56s4.69-12.46 7.74-46.08zm-51.09 110.68H234.3c-1.6-.99-7.17-4.85-14.11-14.01-4.54-5.99-10.23-15.04-15.87-28.1l7.11 12.11 21.34 22.4 5.61-3.54s-25.3-16.49-40.16-58.04l11.46 3.4.62-2.4c.05-.21 5.44-20.54 23.57-36.63 2.42 3.02 10.08 11.52 22.26 15.56l.37.12h3.34l.37-.12c12.18-4.04 19.84-12.54 22.26-15.56 18.13 16.09 23.52 36.42 23.57 36.63l.61 2.41 11.64-3.46c-14.87 41.59-40.18 58.09-40.18 58.09l5.61 3.54 21.34-22.4 6.47-11.03c-13.04 29.58-26.87 39.37-29.51 41.03" class="cls-19"/><path id="path11369" d="M333.11 286.8h-5.18v3.45l-3.43 15.95a174 174 0 0 1-4.37 16.57l-10.19 2.98c-2.04-6.2-8.8-23.24-25.1-37.33l-.67-.58h-4.08l-.71 1.01c-.07.1-7.45 10.32-20.33 14.74h-1.79c-12.87-4.42-20.25-14.63-20.32-14.73l-.71-1.01h-4.08l-.67.58c-16.3 14.09-23.06 31.13-25.1 37.33l-10.03-2.96a172 172 0 0 1-4.38-16.6l-3.43-15.95v-3.45h-5.18c1.59 17.52 3.63 29.28 5.21 36.54l.1.95c.27 1.02.54 2.02.82 3.01.96 3.86 1.61 5.58 1.61 5.58 16.72 55.72 40.39 68.57 41.44 69.11l.52.27h50.18l.52-.27c1.04-.54 24.56-13.31 41.27-68.55l.33-.56s4.69-12.46 7.74-46.08zm-51.09 110.68H234.3c-1.6-.99-7.17-4.85-14.11-14.01-4.54-5.99-10.23-15.04-15.87-28.1l7.11 12.11 21.34 22.4 5.61-3.54s-25.3-16.49-40.16-58.04l11.46 3.4.62-2.4c.05-.21 5.44-20.54 23.57-36.63 2.42 3.02 10.08 11.52 22.26 15.56l.37.12h3.34l.37-.12c12.18-4.04 19.84-12.54 22.26-15.56 18.13 16.09 23.52 36.42 23.57 36.63l.61 2.41 11.64-3.46c-14.87 41.59-40.18 58.09-40.18 58.09l5.61 3.54 21.34-22.4 6.47-11.03c-13.04 29.58-26.87 39.37-29.51 41.03" class="cls-19"/><path id="path11371" d="M217.45 250.74s-2.77 5.26-1.31 9.05l6.77 16.08s2.61 3.98 7.82 3.48l1.22-1.95-9.37-8.77-3.11-12.39.24-5.29" class="cls-19"/><path id="path11373" d="M293.08 332.33c-8.26 0-14.97 6.72-14.97 14.97s6.72 14.97 14.97 14.97 14.97-6.72 14.97-14.97-6.72-14.97-14.97-14.97" class="cls-19"/><path id="path11375" d="M293.99 336c-5.73 0-10.39 4.32-10.39 9.63s4.66 9.63 10.39 9.63 10.39-4.32 10.39-9.63-4.66-9.63-10.39-9.63" class="cls-16"/><path id="path11377" d="m283.26 352.21-1.94-2.36c.46-.38 11.38-9.26 23.38-9.26h.2l-.03 3.06h-.17c-10.89 0-21.33 8.48-21.44 8.57z" class="cls-18"/><path id="path11379" d="m300.58 356.21-2.38-.82c1.5-4.35.4-8.78-.79-11.73-.96-2.37-2.7-4.41-4.92-5.75-1.75-1.06-2.78-1.53-3.05-1.59l.55-2.46c.88.2 2.55 1.14 3.79 1.89 2.68 1.62 4.79 4.09 5.95 6.96 1.35 3.35 2.6 8.41.84 13.5z" class="cls-18"/><path id="path11381" d="m291.75 358.15-1.96-2.35c4.45-3.72 3.1-8.89 2.74-10.01-2.05-2.34-7.04-2.56-8.83-2.44l-.21-3.05c.34-.02 8.24-.52 11.59 3.79l.14.18.08.21c1.09 2.79 1.74 9.25-3.56 13.67z" class="cls-18"/></g><path id="path11385" d="M209.77 407.94h5.78c-20.28-24.71-35.04-58.05-44.37-83.69l11.71-2.39-.91-4.43-16.82 3.44.88 2.45c14.82 41.48 30.71 68 43.73 84.62z" class="cls-8"/><path id="path11387" d="M302.18 407.94h5.71c19.65-26.04 33.54-59.86 42.14-85.38l.83-2.47-16.88-3.13-.82 4.44 11.75 2.18c-8.84 25.76-22.95 59.29-42.72 84.36z" class="cls-8"/></g></g></svg>