<svg xmlns="http://www.w3.org/2000/svg" id="Layer_1" data-name="Layer 1" version="1.1" width="377.07" height="424.343"><defs id="defs4"><style id="style2">.cls-1,.cls-5{fill:#2966ef}.cls-1,.cls-2{stroke:#2966ef}.cls-1,.cls-15,.cls-2,.cls-9{stroke-miterlimit:10}.cls-2{fill:none;stroke-width:9.08px}.cls-7,.cls-8,.cls-9{fill:#fff}.cls-7,.cls-8{stroke:#000;stroke-linecap:round;stroke-linejoin:round}.cls-7{stroke-width:3.43px}.cls-8{stroke-width:3.14px}.cls-9{stroke:#c11616;stroke-width:2.48px}.cls-15{stroke:#c02026;fill:#c02026;stroke-width:1.65px}</style></defs><path class="cls-1" d="M71.57 411.15c0-1.09 0-1.93-.05-2.37a1.53 1.53 0 0 0-1.51-1.48 1.44 1.44 0 0 0-1.42 1.23 17 17 0 0 0-.14 2.81v5.91a11 11 0 0 0 .2 3 1.41 1.41 0 0 0 1.36 1.06 1.53 1.53 0 0 0 1.48-1.57c.05-.5.08-1.86.08-2.7h2.82v1a6.5 6.5 0 0 1-.64 3.62 4 4 0 0 1-3.71 2.18 4.1 4.1 0 0 1-3.26-1.48c-.92-1.11-1.12-2-1.12-4.93v-6.3c0-2.93.2-3.85 1.12-5a4.38 4.38 0 0 1 7 .56 6 6 0 0 1 .64 3.4v1z" id="path6" style="fill:#2966ef;stroke:#2966ef;stroke-miterlimit:10"/><path class="cls-1" d="M96.11 423.58h-2.79v-18.6h2.79z" id="path8" style="fill:#2966ef;stroke:#2966ef;stroke-miterlimit:10"/><path class="cls-1" d="m121.96 423.58-4-11.49v11.49h-2.59v-18.6h2.82l3.82 11v-11h2.56v18.6z" id="path10" style="fill:#2966ef;stroke:#2966ef;stroke-miterlimit:10"/><path class="cls-1" d="M149.62 411.15c0-1.09 0-1.93-.06-2.37a1.52 1.52 0 0 0-1.5-1.48 1.44 1.44 0 0 0-1.43 1.23 17 17 0 0 0-.14 2.81v5.91a11 11 0 0 0 .2 3 1.41 1.41 0 0 0 1.37 1.06 1.53 1.53 0 0 0 1.47-1.57c.06-.5.09-1.86.09-2.7h2.81v1a6.5 6.5 0 0 1-.64 3.62 4 4 0 0 1-3.71 2.18 4.1 4.1 0 0 1-3.26-1.48c-.92-1.11-1.11-2-1.11-4.93v-6.3c0-2.93.19-3.85 1.11-5a4.38 4.38 0 0 1 7 .56 6 6 0 0 1 .64 3.4v1z" id="path12" style="fill:#2966ef;stroke:#2966ef;stroke-miterlimit:10"/><path class="cls-1" d="M174.12 423.58h-2.78v-18.6h2.78z" id="path14" style="fill:#2966ef;stroke:#2966ef;stroke-miterlimit:10"/><path class="cls-1" d="m199.97 423.58-4-11.49v11.49h-2.59v-18.6h2.81l3.82 11v-11h2.56v18.6z" id="path16" style="fill:#2966ef;stroke:#2966ef;stroke-miterlimit:10"/><path class="cls-1" d="m228.41 423.58-4-11.49v11.49h-2.59v-18.6h2.75l3.82 11v-11h2.59v18.6z" id="path18" style="fill:#2966ef;stroke:#2966ef;stroke-miterlimit:10"/><path class="cls-1" d="m253.28 419.48-.64 4.1h-2.76l3-18.6h3.69l3.24 18.6h-2.87l-.64-4.1zm1.45-10-1.06 7.42h2.18z" id="path20" style="fill:#2966ef;stroke:#2966ef;stroke-miterlimit:10"/><path class="cls-1" d="M282.45 423.58h-2.79v-16h-3v-2.6h8.76v2.6h-3z" id="path22" style="fill:#2966ef;stroke:#2966ef;stroke-miterlimit:10"/><path class="cls-1" d="M306.84 423.58h-2.78v-18.6h2.78z" id="path24" style="fill:#2966ef;stroke:#2966ef;stroke-miterlimit:10"/><path class="cls-2" d="M54.06 373.72s7.7-10.46 18.7-1.65 18.15.55 18.15.55" id="path26" style="fill:none;stroke:#2966ef;stroke-width:9.07999992px;stroke-miterlimit:10"/><path class="cls-2" d="M89.26 374.54s7.7-10.45 18.7-1.65c11 8.8 18.15.55 18.15.55" id="path28" style="fill:none;stroke:#2966ef;stroke-width:9.07999992px;stroke-miterlimit:10"/><path class="cls-2" d="M125.83 373.72s7.74-10.46 18.74-1.68c11 8.78 18.15.55 18.15.55" id="path30" style="fill:none;stroke:#2966ef;stroke-width:9.07999992px;stroke-miterlimit:10"/><path class="cls-2" d="M125.83 373.72s7.74-10.46 18.74-1.68c11 8.78 18.15.55 18.15.55" id="path32" style="fill:none;stroke:#2966ef;stroke-width:9.07999992px;stroke-miterlimit:10"/><path class="cls-2" d="M216.06 373.72s7.7-10.46 18.7-1.65 18.15.55 18.15.55" id="path34" style="fill:none;stroke:#2966ef;stroke-width:9.07999992px;stroke-miterlimit:10"/><path class="cls-2" d="M251.26 374.54s7.7-10.45 18.7-1.65c11 8.8 18.15.55 18.15.55" id="path36" style="fill:none;stroke:#2966ef;stroke-width:9.07999992px;stroke-miterlimit:10"/><path class="cls-2" d="M287.83 373.72s7.74-10.46 18.74-1.68c11 8.78 18.15.55 18.15.55" id="path38" style="fill:none;stroke:#2966ef;stroke-width:9.07999992px;stroke-miterlimit:10"/><path class="cls-2" d="M287.83 373.72s7.74-10.46 18.74-1.68c11 8.78 18.15.55 18.15.55" id="path40" style="fill:none;stroke:#2966ef;stroke-width:9.07999992px;stroke-miterlimit:10"/><path id="polyline178" style="fill:#fff;stroke:#000;stroke-width:16.5px;stroke-miterlimit:10" transform="translate(-97.43 -297.96)" d="m177.81 569.2 108.83 128.4 113.74-129.09"/><path d="m134.48 64.36.08.14c3.49 11.66 15.08 32.38 18 37.46l5.28 31.52a7 7 0 0 0 1.24 2.95l11.61 16a7 7 0 0 0 4.18 2.74l31.18 6.87a7 7 0 0 0 7.59-3.38 6.55 6.55 0 0 0 .67-1.6l6.15 2.08a7 7 0 0 0 9.06-8.32c-3.37-13.64-11.57-46-15-51.78-1-1.74-1.62-8.33-1.35-14.38l11.64-21.14c2.35-2.21 4.71-6 5.15-12.37a33.53 33.53 0 0 0-.3-7.08l-3.43-25.18a7 7 0 0 0-1-2.7c-1.19-2-2.32-3.81-17-7.64l-9.93-7.21a7 7 0 0 0-6.64-.87l-5.33 2a10.61 10.61 0 0 0-7.67 4.68 19.5 19.5 0 0 0-11.8 3.59 16.3 16.3 0 0 0-4.13 4.44c-5.61.56-10 2.46-13 5.68a14.71 14.71 0 0 0-3 4.7c-8.51 3.69-12.23 11.82-13.18 17a1.16 1.16 0 0 0 0 .18v.27l-1.61 10.71" id="path180"/><path d="M285.12 129.13c-.52-1.18-.71-5.24-.47-8.93l8.49-14.31c5.36-4.92 4.65-13.32 4.37-15.43l-1.88-18.2a6.94 6.94 0 0 0-.87-2.73c-1.21-2.13-2.71-3.68-12.9-6.71l-6.7-5.21a7 7 0 0 0-6.6-1.09l-3.68 1.28a9.68 9.68 0 0 0-6.16 3.16 15.67 15.67 0 0 0-8.76 2.67 13.43 13.43 0 0 0-3 2.84 15.81 15.81 0 0 0-9.84 4.28 12.1 12.1 0 0 0-2.34 3.19 19 19 0 0 0-10.38 13v.14c0 .1 0 .2-.06.3l-1.77 9.28a7 7 0 0 0 .66 4.49l1.45 2.79c2.32 8.57 9.71 23 12 27.35l3 22.5a7.06 7.06 0 0 0 1.15 3l8 11.83a7.07 7.07 0 0 0 4.08 2.87l22.36 5.65a6.76 6.76 0 0 0 1.72.22 7 7 0 0 0 5.79-3.06l2.74 1a7 7 0 0 0 9.32-8c-2.59-12.43-7.38-33.92-9.72-38.17z" id="path182"/><path id="polygon184" transform="translate(-97.43 -297.96)" d="m179.28 410.52-24.62 16.5v37.95h260.59v-37.95l-19.41-16.5z"/><path class="cls-7" d="m164.73 132.32-5.49-32.75s-14.84-25.69-18.17-37.79l-2.66-4.74 1.95-13s1.75-10.92 12.35-13c0 0-.82-9.44 14.72-9 0 0 1.31-9.92 15.63-7.49 0 0 .87-5.46 4.65-5.1l6.47-2.49 11 8s13.18 3.35 14.08 4.82l3.44 25.28s1.78 10.22-3.42 13.87l-13 23.68s-1.05 14.45 2.22 20c3.27 5.55 14.23 49.88 14.23 49.88l-25.83-8.74 10.67 11.42-31.21-6.83z" id="path186" style="fill:#fff;stroke:#000;stroke-width:3.43000007px;stroke-linecap:round;stroke-linejoin:round"/><path class="cls-7" d="m140.36 44.04 9.58 12s2.74 5.63 8.44 4.11c0 0 5.84-1.34 7.63-3.77l-13.3-25.34" id="path188" style="fill:#fff;stroke:#000;stroke-width:3.43000007px;stroke-linecap:round;stroke-linejoin:round"/><path class="cls-7" d="m167.43 22.04 12.66 26.69s2.45 3.35 7.59.39 5.61-4.31 5.89-7.23l-6.35-13.08s-3.95-5.76-4.56-15.52" id="path190" style="fill:#fff;stroke:#000;stroke-width:3.43000007px;stroke-linecap:round;stroke-linejoin:round"/><path class="cls-7" d="M183.36 20.32s1.38-5.24 5.68-5c0 0 9.25-.67 16.15-.34" id="path192" style="fill:#fff;stroke:#000;stroke-width:3.43000007px;stroke-linecap:round;stroke-linejoin:round"/><path class="cls-7" d="M187.39 28.85s4.56 9.28 20.95 7.23c0 0-8.89 2.77-1.51 8.34" id="path194" style="fill:#fff;stroke:#000;stroke-width:3.43000007px;stroke-linecap:round;stroke-linejoin:round"/><path class="cls-7" d="M203.95 40.33c-1.27.57-13.89 14.59-13.89 14.59-16.74 11.89-3 27.77-3 27.77-15.22-11-7.41-21.85-7.41-21.85-13.57 7.69-17.76-.86-17.76-.86l-1.69 8.5" id="path196" style="fill:#fff;stroke:#000;stroke-width:3.43000007px;stroke-linecap:round;stroke-linejoin:round"/><path class="cls-7" d="M166.01 56.4s12.69 4.09 14.08-7.64" id="path198" style="fill:#fff;stroke:#000;stroke-width:3.43000007px;stroke-linecap:round;stroke-linejoin:round"/><path class="cls-7" id="line200" style="fill:#fff;stroke:#000;stroke-width:3.43000007px;stroke-linecap:round;stroke-linejoin:round" d="m149.94 56.06-5.25.53"/><path class="cls-7" id="line202" style="fill:#fff;stroke:#000;stroke-width:3.43000007px;stroke-linecap:round;stroke-linejoin:round" d="m196.23 14.47-2.68-.96"/><path class="cls-8" d="m246.68 152.86-3.19-23.75s-10.1-18.88-12.22-27.68l-1.81-3.5 1.71-9.31s1.52-7.84 9.21-9.1c0 0-.37-6.82 10.83-6.12 0 0 1.18-7.13 11.45-5 0 0 .76-3.92 3.47-3.57l4.73-1.64 7.75 6s9.43 2.73 10 3.81l1.96 18.3s1 7.41-2.79 9.92l-10 16.78s-1.1 10.4 1.14 14.45c2.24 4.05 9.09 36.31 9.09 36.31l-18.44-6.91 7.43 8.5-22.35-5.66z" id="path204" style="fill:#fff;stroke:#000;stroke-width:3.1400001px;stroke-linecap:round;stroke-linejoin:round"/><path class="cls-8" d="m231.17 88.62 6.63 8.89s1.85 4.13 6 3.16c0 0 4.25-.83 5.6-2.54l-9-18.61" id="path206" style="fill:#fff;stroke:#000;stroke-width:3.1400001px;stroke-linecap:round;stroke-linejoin:round"/><path class="cls-8" d="m251.21 73.4 8.51 19.55s1.69 2.47 5.46.45 4.15-3 4.42-5.07l-4.27-9.59a23.71 23.71 0 0 1-2.93-11.29" id="path208" style="fill:#fff;stroke:#000;stroke-width:3.1400001px;stroke-linecap:round;stroke-linejoin:round"/><path class="cls-8" d="M262.75 72.51s1.11-3.75 4.21-3.47c0 0 6.68-.26 11.65.13" id="path210" style="fill:#fff;stroke:#000;stroke-width:3.1400001px;stroke-linecap:round;stroke-linejoin:round"/><path class="cls-8" d="M265.45 78.76s3.07 6.79 14.94 5.7c0 0-6.48 1.79-1.28 6" id="path212" style="fill:#fff;stroke:#000;stroke-width:3.1400001px;stroke-linecap:round;stroke-linejoin:round"/><path class="cls-8" d="M277.12 87.42c-.92.38-10.35 10.2-10.35 10.2-12.36 8.19-2.84 20-2.84 20-10.72-8.29-4.84-15.93-4.84-15.93-10 5.23-12.79-1-12.79-1l-1.41 6.09" id="path214" style="fill:#fff;stroke:#000;stroke-width:3.1400001px;stroke-linecap:round;stroke-linejoin:round"/><path class="cls-8" d="M249.39 98.13s9.05 3.24 10.33-5.18" id="path216" style="fill:#fff;stroke:#000;stroke-width:3.1400001px;stroke-linecap:round;stroke-linejoin:round"/><path class="cls-8" id="line218" style="fill:#fff;stroke:#000;stroke-width:3.1400001px;stroke-linecap:round;stroke-linejoin:round" d="m237.8 97.51-3.8.26"/><path class="cls-8" id="line220" style="fill:#fff;stroke:#000;stroke-width:3.1400001px;stroke-linecap:round;stroke-linejoin:round" d="m272.16 68.59-1.91-.75"/><path d="m351.28 319.24-2.55-22.69-.86-153.95-22.66 6.26c-44.9 8.26-90.56 9.88-135.69 9.88-45.13 0-90.78-1.62-135.68-9.88l-24.37-3.7-1.71 161.77 20.1-3.69c7.65-1.41 21.28-5.25 29-6.42L27.8 306.93l-.75 13.11 88.74-17.31 12.44-12c20.46-1.7 40.93-2.56 61.3-2.56 23.17 0 46.49 1.12 69.77 3.31l16.19 13.24z" id="path222"/><path class="cls-9" d="M331.01 260.3c-.59-12.54-9.37-27.38-20.67-39.21-9.21-9.82-11.07-12.95-11.07-18.61 0-4.57 2.17-7.58 5.68-7.84 3.78-.29 5.09 1.88 5.77 9.65l.21 2.51 1.86-.4a549.8 549.8 0 0 0 12.8-2.93l1.47-.35v-2a27.11 27.11 0 0 0-6-17.85 19.67 19.67 0 0 0-15.72-7.47c-11.58.41-22.08 13.48-22.47 28-.35 13.13 8 23.28 15.78 31.77 7.39 7.73 8.05 8.77 10 11.87a18.09 18.09 0 0 1 3 9.67 15.1 15.1 0 0 1-.24 2.81l6.28 5.56-10.47-.52a6 6 0 0 1-1.65.08c-3.35-.36-7.25-2.26-7.7-14l-.1-2.53-1.88.25c-5 .69-7.52 1-12.54 1.69l-1.8.24.18 2.4a41.75 41.75 0 0 0 7.27 20.55c4.47 6.25 13.28 12.85 19.38 13.13 6.1.28 12.53-2.79 16.86-8.12a27 27 0 0 0 5.77-18.35z" id="path224" style="fill:#fff;stroke:#c11616;stroke-width:2.48000002px;stroke-miterlimit:10"/><path class="cls-9" d="M100.93 273.85c-3.27-12.86-6.62-26.27-10-39.86l-.22-.9.64-.66c4.06-4.13 8.67-13 8.29-24.32a39.74 39.74 0 0 0-6.93-21.43c-4.6-6.36-11-9.91-18-10h-.14c-7.81-.78-11.57-1.2-19.15-2.15l-2.16-.27-5 111.06 7.31-2.38c5.54-.9 8.24-1.32 13.76-2.12l1.74-.26v-41.52l3.16-.14.29 1.37a5752.8 5752.8 0 0 0 8 36.71l.45 2 1.65-.2c5.88-.75 8.75-1.09 14.63-1.72l2.45-.27zm-21-55.76c-.9 1.44-2.09 2.12-6.47 2.15h-2.44v-20.13l-7-4.32 7-.74 2.36.17c4.08.27 5.3 1 6.23 2.28 1.13 1.57 2.26 5.43 2.26 10.53.03 4.16-.75 8.21-1.91 10.06z" id="path226" style="fill:#fff;stroke:#c11616;stroke-width:2.48000002px;stroke-miterlimit:10"/><path class="cls-9" d="m139.5 179.09-8.59-.33-2.46-.1-3-.13-9.56-.37 9.56 6.24v63.23l3-.14c4.42-.2 6.63-.29 11-.46l2.78-.11v-67.76z" id="path228" style="fill:#fff;stroke:#c11616;stroke-width:2.48000002px;stroke-miterlimit:10"/><path class="cls-9" d="M249.23 242.18v-48.81c3.12-.09 5.41-.16 9.16-.29l2.79-.09v-14.66l-3 .13c-11.26.48-22.94.88-34.72 1.18l-2.82.07v14.26l2.93-.05c3.61-.05 5.84-.09 8.81-.15v52.94l2.8.09 26.45 1.79z" id="path230" style="fill:#fff;stroke:#c11616;stroke-width:2.48000002px;stroke-miterlimit:10"/><path class="cls-9" d="M203.12 202.49c0-9.65-1.18-13.63-5.27-17.77-3.47-3.51-9-5.63-14.89-5.66h-.15c-5.9 0-11.31 2-14.87 5.52-4.52 4.48-5.29 9.12-5.29 17.85v21.23c0 8.72.76 13.37 5.29 17.84 3.55 3.51 9 5.51 14.86 5.51h.16c5.79 0 11.36-2.15 14.89-5.65 4.55-4.52 5.28-8.94 5.28-17.78zm-20.22 30.33a2.79 2.79 0 0 1-2.85-1.65c-.25-.59-.55-2.56-.55-8.57v-19.13c0-3.66.12-5.79.24-7l-3.77-2.43 5.91-.7a4.35 4.35 0 0 1 1-.12 2.8 2.8 0 0 1 2.78 1.69c.37.86.55 3.73.55 8.55v19.08a66.45 66.45 0 0 1-.28 7.35l4.42 3.13z" id="path232" style="fill:#fff;stroke:#c11616;stroke-width:2.48000002px;stroke-miterlimit:10"/><path d="M122.75 260.97s79.75-7.43 144.11.82l2.47 16-7.42-6.6s-97.36-8.8-133.11-.55l-5.77 8.8z" id="path234" style="fill:#c11616"/><path id="polyline236" transform="translate(-97.43 -297.96)" d="m175.92 526.48 11.55 36.31-7.7-36.86"/><path id="polyline238" transform="translate(-97.43 -297.96)" d="m229.55 533.36-.28-48.4 4.4 47.57"/><path id="polygon240" transform="translate(-97.43 -297.96)" d="m293.62 489.5-4.53 1.23 2.88 31.35z"/><path id="polygon242" transform="translate(-97.43 -297.96)" d="m341.48 525.8-4.54-16.09 2.47-27.23z"/><path id="polygon244" transform="translate(-97.43 -297.96)" d="m404.75 527.23-7.56-4.25 20.99 25.43z"/><path class="cls-2" d="M118.78 308.69s-7.15 8.25-18.15-.55c-11-8.8-18.7 1.65-18.7 1.65l-54.88 10.25" id="path246" style="fill:none;stroke:#2966ef;stroke-width:9.07999992px;stroke-miterlimit:10"/><path class="cls-2" d="M118.5 308.96s7.7-10.45 18.7-1.65c11 8.8 18.15.55 18.15.55" id="path248" style="fill:none;stroke:#2966ef;stroke-width:9.07999992px;stroke-miterlimit:10"/><path class="cls-2" d="M152.88 309.79s7.69-10.45 18.69-1.65c11 8.8 18.15.55 18.15.55" id="path250" style="fill:none;stroke:#2966ef;stroke-width:9.07999992px;stroke-miterlimit:10"/><path class="cls-2" d="M189.46 308.96s7.7-10.45 18.7-1.65c11 8.8 18.15.55 18.15.55" id="path252" style="fill:none;stroke:#2966ef;stroke-width:9.07999992px;stroke-miterlimit:10"/><path class="cls-2" d="M224.66 309.79s7.7-10.45 18.7-1.65c11 8.8 18.15.55 18.15.55" id="path254" style="fill:none;stroke:#2966ef;stroke-width:9.07999992px;stroke-miterlimit:10"/><path class="cls-2" d="M261.23 308.96s7.7-10.45 18.7-1.65c11 8.8 18.15.55 18.15.55l53.2 11.38" id="path256" style="fill:none;stroke:#2966ef;stroke-width:9.07999992px;stroke-miterlimit:10"/><path class="cls-2" d="M88.57 338.54s7.7-10.45 18.7-1.65c11 8.8 18.15.55 18.15.55" id="path258" style="fill:none;stroke:#2966ef;stroke-width:9.07999992px;stroke-miterlimit:10"/><path class="cls-2" d="M125.1 337.72s7.7-10.46 18.7-1.65 18.16.55 18.16.55" id="path260" style="fill:none;stroke:#2966ef;stroke-width:9.07999992px;stroke-miterlimit:10"/><path class="cls-2" d="M159.48 338.54s7.7-10.45 18.7-1.65c11 8.8 18.15.55 18.15.55" id="path262" style="fill:none;stroke:#2966ef;stroke-width:9.07999992px;stroke-miterlimit:10"/><path class="cls-2" d="M196.06 337.72s7.7-10.46 18.7-1.65 18.15.55 18.15.55" id="path264" style="fill:none;stroke:#2966ef;stroke-width:9.07999992px;stroke-miterlimit:10"/><path class="cls-2" d="M231.26 338.54s7.7-10.45 18.7-1.65c11 8.8 18.15.55 18.15.55" id="path266" style="fill:none;stroke:#2966ef;stroke-width:9.07999992px;stroke-miterlimit:10"/><path class="cls-2" d="M267.83 337.72s7.74-10.46 18.74-1.68c11 8.78 18.15.55 18.15.55" id="path268" style="fill:none;stroke:#2966ef;stroke-width:9.07999992px;stroke-miterlimit:10"/><path id="polygon270" transform="translate(-97.43 -297.96)" d="M303.34 421.66 278 397.54l-7.86-3.72 18.26 20.77-15.61 3.1 34.97 17.8-21-14.17z"/><path id="polyline272" transform="translate(-97.43 -297.96)" d="m365.39 459.81-16.9-23.94h13.61l-17.74-22.28 33 27.64h-14.85l28.16 24.03"/><path class="cls-5" id="polygon274" style="fill:#2966ef" transform="translate(-97.43 -297.96)" d="m115.42 624.8 10.91-2.47.23-109.32z"/><path class="cls-5" id="polyline276" style="fill:#2966ef" transform="translate(-97.43 -297.96)" d="m445.83 621.17-.68-108.16 11.55 111.65"/><path id="polygon288" transform="translate(-97.43 -297.96)" d="m147 434-49.57-20.34 22.28 17.74-13.27 3.05L128.28 454l25.86-.36-7.81-4.07 11.17.43-28.5-12z"/><path id="polygon290" transform="translate(-97.43 -297.96)" d="m424.93 434 49.57-20.34-22.28 17.74 13.27 3.05L443.66 454l-25.87-.36 7.81-4.07-11.17.43 28.5-12z"/><path d="M128.82 59.71a7.49 7.49 0 0 0-.76-1.27c-1.49-2-3.22-3.35-14.1-5.11l-7.68-4.51a7 7 0 0 0-6.69-.23l-3.63 1.81a9.52 9.52 0 0 0-5.89 4.1 16.13 16.13 0 0 0-8.7 3.88 14.14 14.14 0 0 0-2.76 3.39 16.29 16.29 0 0 0-9.56 5.67 12.91 12.91 0 0 0-2 3.63 19.49 19.49 0 0 0-8.93 14.63V86.16l-.55 9.88a7 7 0 0 0 1.23 4.36l1.89 2.73c3.54 8.54 13.17 22.5 16.12 26.68l6.16 22.93a7.16 7.16 0 0 0 1.52 2.82l9.87 11.17a7 7 0 0 0 4.42 2.32l23.88 2.85a7.86 7.86 0 0 0 .83.05 7 7 0 0 0 6.36-4.05l3.21.75a7 7 0 0 0 8.21-9.16c-4.4-12.48-12.22-34-15.21-38.11-.73-1.18-1.49-5.4-1.72-9.39l6.9-16c4.84-5.7 3-14.21 2.42-16.31l-2.18-9.26" id="path296"/><path class="cls-8" d="m89.75 150.9-6.49-24.14s-13-18.17-16.36-27l-2.33-3.37.52-9.86s.52-8.31 8.3-10.64c0 0-1.29-7 10.39-7.79 0 0 .26-7.53 11.16-6.75 0 0 .26-4.15 3.11-4.15l4.68-2.34 8.84 5.18s10.12 1.56 10.9 2.6l4.42 18.69s2.07 7.52-1.56 10.64l-8.05 18.69s.26 10.9 3.12 14.79c2.86 3.89 14.27 36.34 14.27 36.34l-20-4.67 8.82 7.79-23.92-2.87z" id="path298" style="fill:#fff;stroke:#000;stroke-width:3.1400001px;stroke-linecap:round;stroke-linejoin:round"/><path class="cls-8" d="m65.09 86.53 8 8.3s2.47 4 6.62 2.47c0 0 4.29-1.43 5.45-3.37l-11.81-18" id="path300" style="fill:#fff;stroke:#000;stroke-width:3.1400001px;stroke-linecap:round;stroke-linejoin:round"/><path class="cls-8" d="M83.78 68.1 95.2 87.18s2.07 2.33 5.71-.26 3.89-3.64 3.89-5.84l-5.71-9.35a24.85 24.85 0 0 1-4.52-11.29" id="path302" style="fill:#fff;stroke:#000;stroke-width:3.1400001px;stroke-linecap:round;stroke-linejoin:round"/><path class="cls-8" d="M95.57 65.63s.65-4 3.89-4.15c0 0 6.88-1.17 12.07-1.43" id="path304" style="fill:#fff;stroke:#000;stroke-width:3.1400001px;stroke-linecap:round;stroke-linejoin:round"/><path class="cls-8" d="M99.22 71.73s4.09 6.62 16.22 3.9c0 0-6.46 2.72-.52 6.36" id="path306" style="fill:#fff;stroke:#000;stroke-width:3.1400001px;stroke-linecap:round;stroke-linejoin:round"/><path class="cls-8" d="M112.46 79.13c-.91.52-9.35 11.94-9.35 11.94-11.68 10.12-.25 21-.25 21-12.2-7.14-7.14-15.84-7.14-15.84-9.61 6.75-13.37.65-13.37.65l-.65 6.49" id="path308" style="fill:#fff;stroke:#000;stroke-width:3.1400001px;stroke-linecap:round;stroke-linejoin:round"/><path class="cls-8" d="M85.2 93.93s9.8 2.14 10-6.75" id="path310" style="fill:#fff;stroke:#000;stroke-width:3.1400001px;stroke-linecap:round;stroke-linejoin:round"/><path class="cls-8" id="line312" style="fill:#fff;stroke:#000;stroke-width:3.1400001px;stroke-linecap:round;stroke-linejoin:round" d="m73.13 94.83-3.89.78"/><path class="cls-8" id="line314" style="fill:#fff;stroke:#000;stroke-width:3.1400001px;stroke-linecap:round;stroke-linejoin:round" d="m104.8 60.31-2.07-.52"/><path id="polygon316" transform="translate(-97.43 -297.96)" d="m215.82 437.99-18.98-18.37-5.92-2.86 13.67 15.8-11.81 2.24 26.29 13.66-15.77-10.83z"/><path id="polyline318" transform="translate(-97.43 -297.96)" d="M256.25 429 271 449.5l20.5 4.25 20.24 1.25-8.99-8.75 19.5 8 2.25-1.25-8.75-27.25 4.39 24.69-23.89-8.19 5 9-27.48-4.95L260 425.75"/><circle cx="187.74" cy="335.21" r="30.83" id="circle320" style="fill:#fff;stroke:#fff;stroke-width:16.5px;stroke-miterlimit:10"/><path d="M203.2 347.04a18.14 18.14 0 1 1 .48-22.86" id="path322" style="fill:none;stroke:#231f20;stroke-width:14.02999973px;stroke-miterlimit:10"/><path d="M203.2 343.04a18.14 18.14 0 1 1 .48-22.86" id="path324" style="fill:none;stroke:#c02026;stroke-width:14.02999973px;stroke-miterlimit:10"/><circle cx="189.27" cy="331.22" r="10.93" id="circle326" style="fill:#fff"/><path class="cls-15" id="polygon328" style="fill:#c02026;stroke:#c02026;stroke-width:1.64999998px;stroke-miterlimit:10" transform="translate(-97.43 -297.96)" d="m280.98 604.53 5.21-8.5 5.2 8.5-5.2 6.86z"/><path class="cls-15" id="polyline330" style="fill:#c02026;stroke:#c02026;stroke-width:1.64999998px;stroke-miterlimit:10" transform="translate(-97.43 -297.96)" d="m284.99 603.12-3.85-2.88.13 1.92-2.47-.96 3.01 4.16"/><path class="cls-15" id="polyline332" style="fill:#c02026;stroke:#c02026;stroke-width:1.64999998px;stroke-miterlimit:10" transform="translate(-97.43 -297.96)" d="m287.87 603.12 3.85-2.88-.13 1.92 2.47-.96-3.01 4.16"/></svg>