<svg xmlns="http://www.w3.org/2000/svg" id="Layer_1" width="492.132" height="534.698" data-name="Layer 1" version="1.1"><defs id="defs532"><style id="style530">.cls-5{fill:#fff}.cls-7{fill:#3a3839}.cls-5,.cls-7{stroke-width:0}</style></defs><g id="g560" transform="translate(-53.94 -32.651)"><path id="path536" d="m539.05 211.24-74.46-52.65a16.577 16.577 0 0 0-7.33-2.89l-15.74-2.16v-62.4c0-5.41-2.63-10.48-7.06-13.59a16.6 16.6 0 0 0-15.17-2.04l-52.58 18.9-230.66-61.2a16.584 16.584 0 0 0-18.91 8.24c-3.63 6.8-2.1 15.21 3.7 20.3l7.86 6.9H70.55c-9.17 0-16.61 7.44-16.61 16.61v341.03c0 5.41 2.64 10.48 7.06 13.59l177.18 124.45c2.87 2.01 6.21 3.02 9.55 3.02 3.34 0 6.68-1.01 9.55-3.02l177.19-124.45c4.43-3.11 7.06-8.18 7.06-13.59V269.74l92.9-29.08a16.601 16.601 0 0 0 11.44-13.27c.98-6.24-1.66-12.49-6.82-16.14z" class="cls-5" style="fill:#fff;stroke-width:0"/><g id="g558"><path id="polygon538" d="M70.54 85.25v341.04l177.19 124.45 177.18-124.45V91.14l-90.85 32.66-82.29-38.55z" class="cls-7" style="fill:#3a3839;stroke-width:0"/><path id="polygon540" d="m240.57 127.61 91.26 51.91 50.73-22.85v247.6l-134.83 94.71-134.83-94.71V127.61z" style="fill:#e9001e;stroke-width:0"/><path id="polygon542" d="M252.79 169.97h7.1v-16.95h-17.68z" style="fill:#ffad00;stroke-width:0"/><g id="g554"><path id="polygon544" d="m376.59 114.21-244.8-64.95 88.74 77.88-28.78 13.6 69.32 50.42-52.14 66.74 35.89 131.17 41.91-38.44 89.48 106.63 42.53-197.8 110.72-34.66L455 172.15l-35.37-4.86z" class="cls-7" style="fill:#3a3839;stroke-width:0"/><path id="polygon546" d="m230.19 257.53 54.43-69.67-47.9-34.84 37.74-3.63-71.13-57.34 164.03 37.02 43.55 53.71 37.01 5.08 36.29 31.2-79.84 27.58-34.11 177.82z" style="fill:#e9001e;stroke:#3a3839;stroke-width:16.52000046px;stroke-miterlimit:10"/><path id="polygon548" d="m343.77 218.42 19.28 70.85 35.57-12.64 5.75-29.98 79.84-27.59-36.29-31.2-37.01-5.08-93.72-19.34 33.74 19.63 9.44 28.45z" style="fill:#3a3839;stroke:#3a3839;stroke-width:16.52000046px;stroke-miterlimit:10"/><path id="path550" d="m447.92 187.86-7.89-1.08s-51.85 15.34-53.66 66.71l18-6.84 88.1-27.58z" style="fill:#fff;stroke:#3a3839;stroke-width:16.52000046px;stroke-miterlimit:10"/><path id="path552" d="M364.32 178.74v.02l.79 4.37c7.63 32.92 31.36 12.25 35.59 8.25l-36.39-12.63z" style="fill:#009adf;stroke-width:0"/></g><path id="polygon556" d="M155.25 382.27v-212.3h51.03l-21.49-16.95h-46.48v238.05l109.42 76.85 68.73-48.28-10.74-13.15-57.99 40.73z" class="cls-5" style="fill:#fff;stroke-width:0"/></g></g></svg>