<svg xmlns="http://www.w3.org/2000/svg" id="Layer_1" width="398.586" height="297.57" data-name="Layer 1" viewBox="0 0 398.586 297.57"><defs id="defs4"><style id="style2">.cls-2{fill:#c1102e}.cls-3,.cls-5{stroke-miterlimit:10;stroke:#000}.cls-5,.cls-7{fill:#f9edd0}.cls-8{fill:#b36473}.cls-3{stroke-width:3.39px;fill:none}.cls-5{stroke-width:6.79px}</style></defs><g id="g298" transform="translate(-61.417 -219.06)"><path id="path110" d="m384.26 256.48-28.53-8.95a64.9 64.9 0 0 0-18.29-2.97l-41.26-.76s23.32-1.7 44.55-3.86c9-.91 19.86-1.1 28.3 2.13l23.64 8.01" class="cls-2"/><g id="g254"><path id="polyline112" d="m383.32 265.53.19-20.37 24.19 8.24 6.79 7.3" class="cls-2"/><path id="path114" d="M430.56 309.25s-5.2 16.65-18.34 22.81-29.46 5.67-29.46 5.67l-2.75-10.62" class="cls-2"/><path id="path116" d="M326.54 403.86s23.59 3.65 32.04-21.99c8.46-25.64-5.79-26.08-5.79-26.08l-35.63 23.47" class="cls-2"/><path id="path118" d="m326.54 396.95 56.7-62.52-4.02-9.13s33.02 5.69 33.85-8.93c.84-14.62-34.22-9.38-34.22-9.38l-21.84-22.4-82.63 28.97" class="cls-2"/><path id="polyline120" d="m314.15 292.54-74.4-11.45 5.1 11.45-149.36 8.14 27.08 51.96 8.5 14.81 95.4-3.53" style="stroke-width:12.02px;fill:#c1102e;stroke-miterlimit:10;stroke:#000"/><path id="path122" d="m200.78 340.61 24.04 21.23 15.29 8.3s1.26-28.03 55.68-30.78"/><path id="polyline124" d="m117.09 328.58 85.99-5.47 37.71-2.4-11.67 7.1-107.6 11.55" class="cls-7"/><ellipse id="ellipse126" cx="275.91" cy="389.18" class="cls-2" rx="56.71" ry="53.98"/><g id="g150"><g id="g132"><circle id="circle128" cx="278.23" cy="389.22" r="42.78" class="cls-7"/><path id="path130" d="M280.74 435.34c-25.96 2.01-48.62-16.35-50.52-40.93-1.9-24.57 17.67-46.2 43.63-48.2 25.96-2.01 48.62 16.35 50.52 40.93 1.9 24.57-17.67 46.2-43.63 48.2m-5.54-85.38c-21.65 1.67-37.9 20.65-36.23 42.3s20.65 37.9 42.3 36.23 37.9-20.65 36.23-42.3-20.65-37.9-42.3-36.23"/></g><path id="line134" d="m275.53 354.36 5.32 68.76" class="cls-3"/><path id="line136" d="m243.81 391.4 68.76-5.32" class="cls-3"/><path id="line138" d="m252 366.31 52.38 44.86" class="cls-3"/><path id="line140" d="m255.76 414.93 44.86-52.38" class="cls-3"/><path id="line142" d="m247.45 404.35 61.49-31.22" class="cls-3"/><path id="line144" d="m293.8 419.48-30.88-60.68" class="cls-3"/><path id="line146" d="m267.49 421.52 21.4-65.56" class="cls-3"/><path id="line148" d="m310.97 399.44-65.56-21.4" class="cls-3"/></g><ellipse id="ellipse152" cx="404.75" cy="385.43" class="cls-2" rx="55.26" ry="53.98" transform="rotate(-5.88 404.63 385.366)"/><g id="g176"><g id="g158"><circle id="circle154" cx="407.59" cy="383.75" r="42.78" class="cls-7"/><path id="path156" d="M410.1 429.86c-25.96 2.01-48.62-16.35-50.52-40.93-1.9-24.57 17.67-46.2 43.63-48.2 25.96-2.01 48.62 16.35 50.52 40.93 1.9 24.57-17.67 46.2-43.63 48.2m-5.55-85.38c-21.65 1.67-37.9 20.65-36.23 42.3s20.65 37.9 42.3 36.23 37.9-20.65 36.23-42.3-20.65-37.9-42.3-36.23"/></g><path id="line160" d="m404.89 348.88 5.31 68.76" class="cls-3"/><path id="line162" d="m373.17 385.92 68.76-5.32" class="cls-3"/><path id="line164" d="m381.36 360.83 52.38 44.86" class="cls-3"/><path id="line166" d="m385.12 409.45 44.86-52.38" class="cls-3"/><path id="line168" d="m376.8 398.87 61.49-31.22" class="cls-3"/><path id="line170" d="m423.16 414.01-17.25-33.7" class="cls-3"/><path id="line172" d="m396.85 416.04 21.4-65.56" class="cls-3"/><path id="line174" d="m440.33 393.96-65.56-21.4" class="cls-3"/></g><path id="path178" d="M364.06 254.19c-9.95-2.77-20.23-4.19-30.56-4.23l-28.05-.11 5.1 11.45-149.36 8.15 27.08 51.96 8.51 14.81 72.78-1.96 6.33-.17 52.34-1.41-4.21-22.86 67.05-48.12-27.01-7.5z" class="cls-2"/><path id="polyline180" d="m204.82 269.7 37 65.7h14.89l-41.51-71.64" class="cls-7"/><path id="polyline182" d="m183.6 297.74 85.98-5.48 37.71-2.4-11.67 7.1-107.6 11.55" class="cls-7"/><path id="path184" d="m404.76 259.26-39.1-10.86c-10.47-2.91-21.28-4.4-32.14-4.45l-37.35-.15 5.33 11.97-149.96 8.18 19.99 38.61 29.24 38.06 52.24-.82c7-2.95 14.75-4.58 22.9-4.58 7.48 0 14.63 1.38 21.17 3.89l38.32-.6-4.79-26.01 74.15-53.22zM200.2 330.1l-6.66-11.6-22.71-43.58 148.76-8.11-4.86-10.93 18.76.08c9.79.04 19.54 1.39 28.97 4.01l14.93 4.15-59.96 43.03 3.63 19.7-120.85 3.25z"/><path id="polyline186" d="m296.93 343.82-5.43-21.23h17.55l15.52 21.59" class="cls-2"/><path id="path188" d="M307.34 302.55h-29.67l3.41 4.79c3.14 4.41 8.87 6.8 14.68 6.12l11.58-1.36"/><path id="path190" d="M409.1 266.1s0 .49-.05-.06c0-.08-.02-.16-.05-.24-1.69-5.12-6.36-10.54-8.72-12.12-1.15-.77-2.95-1.63-4.51-2.32-.99-.44-1.91.79-1.19 1.6 1.57 1.77 3.34 2.91 3.65 3.1l.09.06q.825.63 1.53 1.29c.91.85-.23 2.27-1.27 1.59-2.6-1.7-5.11-2.5-6.31-3.31-1.14-.76-2.64-2.51-3.9-4.14-.71-.91-2.15-.13-1.77.96.82 2.39 2.23 4.39 3.77 6.02.81.85-.26 2.16-1.27 1.57-1.58-.92-2.75-1.78-3.54-2.43a1.02 1.02 0 0 0-1.65.63c-.83 5.19.57 7.17 1.4 7.86.32.26.43.7.3 1.09l-1.16 3.47c-.12.36-.43.62-.8.68l-3.85.64a.98.98 0 0 1-.67-.12c-8.86-5.02-16.84-6.12-22.17-6.12-4.21 0-6.76.69-6.76.69-34.45 10.42-43.67 34.85-42.87 46.83.65 9.78 5.58 12.04 7.37 12.54.4.11.68.45.73.86 1.79 15.1 6.38 28.16 7.62 31.49.17.46-.01.99-.44 1.23-14.29 8.11-9.27 22.95-9.66 30.43-.32 6.12-3.75 14.56-5.08 17.64-.26.61.12 1.29.77 1.41 11.97 2.09 15.5 3.62 20.14 4.79.69.17 1.35.25 1.98.25 2.11 0 3.88-.83 5.02-1.56.66-.42.61-1.41-.09-1.77-4.75-2.4-14.08-8.93-16.39-10.57-.32-.23-.48-.62-.41-1.01.46-2.5 2.23-11.66 4.29-15.79 2.2-4.41 7.1-14.87 7.9-16.59.07-.16.19-.29.33-.4l5.07-3.62c.21-.15.35-.37.41-.62 2.71-12.68 1.63-23.15 1.02-27.13-.11-.74.59-1.35 1.31-1.13 2.38.74 6.25 1.59 8.76 2.11.84.17 1.11 1.25.44 1.78-4.19 3.35-6.06 9.5-6.41 14.74-.34 5.1-2.65 9.73-3 11.42-.06.3.27-.14 0 0l-4.68 4.83c-.21.11-.38.3-.47.52l-3.5 8.76c-.2.51.03 1.09.53 1.31l2.5 1.11c.13.06.25.15.35.26 2.78 3.16 6.36 6.67 11.87 7.85.99.21 1.89.3 2.71.3 2.03 0 3.51-.54 4.46-1.04.65-.35.73-1.25.15-1.71l-5.96-4.64a1 1 0 0 1-.25-.29l-5.94-10.03c-.22-.37-.18-.84.09-1.17 4.72-5.63 23.65-27.92 26.01-30.69.16-.18.24-.42.24-.66v-5.82c0-.23-.07-.45-.22-.63-2.21-2.75-6.69-5.91-13.28-11.72-5.39-4.76-12.29-7.51-14.93-8.45-.58-.21-.85-.89-.56-1.44 2.82-5.28 7.09-7.82 13.49-8.95 4.94-.87 8.62-1.95 10.26-2.48.53-.17 1.09.11 1.27.64 2.59 7.54 7.95 17.19 9.35 19.67.21.37.61.56 1.03.5 10.32-1.49 26.62-4.19 29.36-4.64.26-.04.52.02.74.16 5.36 3.62 9.25 4.69 10.24 4.92.15.04.31.04.47 0 6.24-1.48 10.83-9.37 12.18-11.95.24-.46.09-1.03-.34-1.32l-3.36-2.24c-.4-.27-.94-.22-1.29.13l-2.16 2.16c-.27.27-.68.37-1.05.24l-5.64-1.92c-.19-.06-.39-.07-.58-.02l-6.62 1.71c-.12.03-.24.04-.35.03l-23.34-2.3c-.52-.05-.92-.49-.92-1.02v-4.91c0-.12-.02-.23-.06-.34l-1.69-4.74c-.13-.38-.05-.8.25-1.07 1.23-1.13 1.92-3.29 2.18-4.3.09-.34.34-.6.68-.71l7.59-2.42c.39-.13.83 0 1.09.32 2 2.44 4.21 3.55 5.75 3.55.23 0 .45-.03.64-.07 1.24-.31 2.71-2.52 3.32-3.52.19-.3.51-.49.87-.49.56 0 1.02-.46 1.02-1.02v-.76c0-.56.46-1.02 1.02-1.02h1.57c.56 0 1.02-.46 1.02-1.02v-5.69c0-.07 0-.13.02-.2l.21-1.03c.1-.5.56-.85 1.07-.82l1.67.11c.3.02.59-.08.79-.3 1.79-1.86 2.82-6.35 2.45-10.49-.18-1.94-1.68-3.96-3.3-5.61-.77-.79-2.08.06-1.68 1.09 1.2 3.04 1.59 5.98 1.71 7.55.02.06.04.12.06.19"/><path id="polygon192" d="m305.39 353.1-12.43-46.05 5.41-1.48 14.03 51.18-28.27 30.4 43.33 6.93 2.81-3.3 4.27 3.63-4.85 5.7-56.83-9.09z"/><path id="path194" d="m355.84 369.37-4.27-3.63 23.57-27.71-71.59.37.27-8.2 76.65 2.38c1.21.04 2.27.75 2.76 1.85.49 1.11.31 2.37-.47 3.29l-26.92 31.64z"/><path id="path196" d="M317.16 379.27s-1.6-12.42 10.42-20.43l-3.61-10.42s6.81-2 12.02-2c0 0-.4 9.61-1.2 13.22l-3.61 2.4s-7.21 6.01-14.02 17.23" class="cls-7"/><path id="path198" d="M346.8 354.03s10.16-12.55 17.1-15.69l.53-5.14s-3.61-4.82-8.81-7.62c0 0-2.4 3.21-3.61 6.02l7.61 4.41-3.59 2.12a15.83 15.83 0 0 0-7.04 8.88l-2.2 7.03z" class="cls-7"/><path id="path200" d="m323.02 344.18-.52-1.94c.25-.07 6.19-1.63 13.42-2.04l.11 2c-7.03.39-12.96 1.95-13.02 1.97z" class="cls-8"/><path id="path202" d="m368.84 301.15 6.01 12.82 30.45-2.4.87 2.4s3.94 0 6.34 2.4h.57c.37 0 .63-.38.48-.72l-.53-1.25c-.19-.44.26-.87.7-.68l1.7.77c.46.21.92-.3.67-.74l-.98-1.68c-.27-.46.25-.98.71-.71l2.65 1.55c.25.14.56.06.71-.18l.65-1.09c.15-.26.06-.59-.2-.73l-7.12-3.75-6.81 2s-13.22-1.93-26.84-2.16c0 0-1.33.96-2.07 1.76l.92-4.48v-4.03s-3.66-.71-8.87.9z" class="cls-7"/><path id="path204" d="M350.6 322.59c-3.33 4.06-4.57 6.15-5 7.27l1.9.63c.27-.66 1.27-2.52 4.85-6.86l-1.74-1.04z" class="cls-8"/><path id="path206" d="M335.08 357.93c-6.79 3.9-12.77 9.27-17.12 13.77-1.22 4.28-.8 7.57-.8 7.57 6.81-11.22 14.02-17.23 14.02-17.23l3.61-2.4c.11-.48.2-1.06.3-1.71z" class="cls-8"/><path id="path208" d="m363.9 338.34.12-1.13c-6.59 1.78-11.24 5.03-14.33 7.99-.26.58-.5 1.19-.69 1.8l-2.2 7.03s10.16-12.54 17.1-15.69" class="cls-8"/><path id="path210" d="M370.73 300.65c-.6.13-1.24.3-1.9.5l6.01 12.82 30.45-2.4.87 2.4s3.94 0 6.34 2.4h.57c.37 0 .63-.38.48-.73l-.53-1.25c-.19-.44.26-.87.7-.68l.2.09-3.04-1.72c-3.39-1.91-7.26-2.8-11.14-2.56l-22.7 1.43-6.32-10.32z" class="cls-8"/><path id="path212" d="m429.15 304.23-4.81-3.2-.5-.33a3.27 3.27 0 0 0-4.13.41l-.42.42a3.26 3.26 0 0 1-3.37.78l-2.24-.76-1.13-.39-1.16.3-3.36.86c-2.01.52-4.1.68-6.17.48l-16.99-1.67v-3.07l-.23-.65-1.19-3.32c.66-.98 1.14-2.04 1.47-2.98l4.29-1.37c2.31 2.21 4.96 3.48 7.43 3.48.56 0 1.1-.07 1.62-.19 1.95-.49 3.59-2.13 4.84-3.89h3.4v-2.8h3.61v-8.56l.69.05 1.22-.97c3.58-2.87 4.74-9.42 4.29-14.31-.2-2.25-1.37-4.39-2.82-6.24-2.76-3.51-6.64-5.97-10.95-7.14l-1.97-.54a43.2 43.2 0 0 1-14.44-7.01l-4.25-3.15v10.21l-1.51 6.92c-.35 1.53-.56 2.96-.65 4.28-.04 4.14 1.12 8.09 5.29 9.22l.87-2.6s-3.61-1.2-1.6-10.02c0 0 4.01 4.41 13.22 7.21 0 0-11.62-5.21-11.62-15.62 0 0 4.01 6.01 6.41 7.61s10.02 3.2 13.22 12.02c0 0-.8-6.81-7.21-11.62 0 0-4.01-2.4-5.61-6.01 0 0 5.21 2 7.61 3.61 2.38 1.58 7.1 7.08 8.76 12.23-.19-2.39-.98-7.95-4.35-12.23 0 0 7.21 4.81 7.61 9.21.4 4.41-.8 9.21-2.8 10.82l-3-.2-.4 2v6.81h-3.61v2.8h-1.6s-2 3.61-3.61 4.01c-.2.05-.41.07-.64.07-1.64 0-4.06-1.27-6.17-4.08l-8.81 2.8s-.8 4.01-2.8 5.21l2 5.61v6.01l24.44 2.4 7.09-1.83 6.53 2.23 3.2-3.2 4.81 3.2s-5.21 11.22-12.82 12.82c0 0-4.41-.8-10.82-5.21 0 0-19.23 3.2-30.45 4.81 0 0-7.21-12.42-10.02-21.23 0 0-4.41 1.6-11.22 2.8s-11.22 4.01-14.02 10.02c0 0 9.21 2.8 16.02 8.81s11.37 9.18 13.5 12v6.55s-22.71 26.72-26.72 31.53l6.41 10.82 4.29 3.34c1.54 1.2.95 3.68-.97 4.02-.55.1-1.15.15-1.82.15-.82 0-1.72-.09-2.71-.3-5.61-1.2-9.21-4.81-12.02-8.01l-3.61-1.6 4.01-10.02 5.01-5.01s2.6-5.41 3-11.42 2.8-13.22 8.41-16.02c0 0-10.42-2-12.82-3.2 0 0 2.8 12.82-.8 29.24l-5.61 4.01s-5.61 12.02-8.01 16.83-4.41 16.43-4.41 16.43 9.07 6.48 14.92 9.85c1.69.98 1.39 3.5-.48 4.05-.74.22-1.56.36-2.44.36-.63 0-1.29-.07-1.98-.25-4.81-1.2-8.41-2.8-21.43-5.01 0 0 5.21-11.22 5.61-18.83s-4.81-22.83 10.42-30.85c0 0-6.01-15.19-8.01-33.04 0 0-1.35-.13-2.95-1.25l-3.73 2.12c1.02.95 2.07 1.62 3 2.08 1.66 12.45 5.02 23.23 6.8 28.37-4.63 3.21-7.69 7.5-9.1 12.79-1.4 5.22-.98 10.48-.65 14.7.15 1.85.29 3.6.22 4.87-.29 5.59-3.88 14.42-5.24 17.35l-2.21 4.76 5.17.88c9.41 1.59 13.78 2.86 17.29 3.88 1.29.38 2.52.73 3.84 1.06.97.24 1.96.37 2.95.37 5.29 0 8.87-3.43 9.27-3.82 2.07-2.07 1.29-5.6-1.46-6.6-2.49-.91-10.03-5.9-15.39-9.64.78-3.92 2.18-10.05 3.58-12.84.37-.75.82-1.66 1.31-2.67l.29.13 2.81 1.25c3.24 3.6 7.41 7.29 13.6 8.62 1.2.26 2.4.39 3.55.39 5.31 0 8.22-2.76 8.54-3.07l1.49-1.49c1.66-1.66.48-4.5-1.87-4.5l-6.61-5.14-4.57-7.72c6.63-7.86 24.67-29.1 24.88-29.34l.95-1.12v-9.36l-.81-1.07c-1.63-2.16-4.11-4.22-7.55-7.07-1.89-1.57-4.04-3.35-6.5-5.52-4.17-3.68-9.09-6.24-12.65-7.79 2-2.15 4.71-3.38 8.69-4.09 3.27-.58 6.02-1.24 8.04-1.8 3.33 8.44 8.76 17.84 9.03 18.3l1.36 2.34 2.67-.38c9.28-1.33 24.16-3.77 28.98-4.56 6.19 3.98 10.5 4.85 11 4.94l.77.14.77-.16c9.31-1.96 15.01-13.72 15.63-15.05.83-1.79.23-3.92-1.41-5.02z" class="cls-2"/><path id="path214" d="M379.22 343.28s7.54 17.96 16.66 21.77l-13.76-26.59" class="cls-2"/><path id="path216" d="m288.91 381.87 25.24-27.84 2.22 4.92s-14.64 14.11-27.46 22.92" class="cls-2"/><path id="path218" d="m406.81 386.17-32.56-62.98h28.66c.74-.06 5.48-.65 6.01-5.89l5.58.56c-.82 8.24-7.79 10.75-11.35 10.93h-19.68l28.33 54.8-4.98 2.58z"/><circle id="circle220" cx="407.19" cy="383.78" r="8.32" class="cls-5"/><path id="path222" d="M315.35 326s-12.87-8.56-3.03-31.63c0 0-10.77 11.61-4.36 30.04" class="cls-2"/><path id="path224" d="m323.92 297.74 22.43-1.83 14.82-10.59-6.41-3.2 9.21-.35 2.68 3.4s-.92 7.09 0 11.24c0 0 4.13-1.86 9.74-1.06l-2.4-4.81s4.38-3.11 2.99-8.77-11.4-9.26-25.83-3.25-27.24 19.23-27.24 19.23z" class="cls-8"/><path id="path226" d="m391.63 273.7-.4-3.61 1.6-.4v-1.53c0-.67-.33-1.3-.88-1.68-.46-.32-1.03-.43-1.57-.32l-.23.05c-.8.17-1.42.8-1.58 1.6l-.54 2.69s0 3.61 3.61 3.2z" class="cls-7"/><path id="path228" d="m404.05 272.9.4-1.2-2.65-1.93a2.794 2.794 0 0 0-3.43.11l-1.44 1.2a2.78 2.78 0 0 0-.71 3.39l1.01 2.03s-3.2 3.61-4.01 6.41c0 0 .8 2.4 2.8 3.2 0 0 1.2-1.2 2-2.4v-1.6l2.4-.4.4-2.8h2.4v-4.81s-1.6.8-2.8-.8-.4-2.8 1.6-1.6l2 1.2z" class="cls-7"/><path id="path230" d="M354.17 279.51s16.02-3.2 19.23 5.61c0 0 3.2-13.62-19.23-5.61" class="cls-7"/><path id="path232" d="m390.88 268.98.35 1.12 1.6-.4v-1.47c0-.42-.11-.85-.34-1.2a2.055 2.055 0 0 0-2.11-.86l-.23.05c-.8.17-1.42.8-1.58 1.6l-.19.93v-.02c.55-1.07 2.14-.88 2.49.26z" class="cls-8"/><path id="path234" d="m394.71 285.24 4.48-7.56-2.15-4.58 3.87-3.76c-.86-.24-1.81-.06-2.53.54l-1.44 1.2c-1 .83-1.29 2.24-.71 3.39l1.01 2.03s-3.2 3.61-4.01 6.41c0 0 .44 1.31 1.48 2.32z" class="cls-8"/><path id="path236" d="M319.02 292.86s22.74-22.97 51.98-21.37c0 0-25.44-12.55-51.98 21.37" class="cls-2"/><path id="polygon238" d="m336.04 272.21-41.71 5.47 30.24 2.11-19.89 5.45 16.4.88 29.13-19.62-65.59 1.61z"/><path id="path240" d="M102.78 302.55s29.59 53.57 48.77 66.05l-24.39 1.54"/><path id="polyline242" d="m137.58 358.95 53.53-9.17h-57.83"/><path id="polyline244" d="m106.13 318.13 53.53-9.17h-57.83"/><circle id="circle246" cx="277.83" cy="389.26" r="8.32" class="cls-5"/><path id="rect248" d="M323.08 294.61h36.4v.74h-36.4z" transform="rotate(-3.84 341.166 294.845)"/><path id="rect250" d="M323.1 292.77h36.4v1.09h-36.4z" transform="rotate(-3.84 341.221 293.205)"/><path id="rect252" d="M323.08 289.84h36.4v1.47h-36.4z" transform="rotate(-3.84 341.162 290.515)"/></g><path id="polyline256" d="M275.91 443.17H170.82l77.46-14.26" class="cls-2"/><g id="g274"><path id="path258" d="M142.67 475.08h-.39l-6.92-3.28c-1.31-.58-1.69-1.74-1.24-3.57l.1-.39c.87-3.48-.8-5.7-4.38-5.7h-5.8l-9.85 39.51c-.87 3.48.8 5.7 4.38 5.7s6.36-2.22 7.23-5.7l2.12-8.5h10.25l-2 8.02c-2.34 9.37-9.95 15.46-19.91 15.46s-14.93-6.09-12.59-15.46l8-32.07c1.01-4.06 4.39-6.76 8.46-6.76l.05-.19h-3.87c-1.93 0-3.17-.87-3.63-2.51l-1.99-6.38.1-.39h21.38c9.96 0 14.54 6.09 12.21 15.46l-1.69 6.76z" class="cls-2"/><path id="path260" d="m160.83 495.37-7.25-17.1 2.29-9.18c1.01-4.06 4.39-6.76 8.46-6.76l.05-.19h-3.87c-1.93 0-3.17-.87-3.63-2.51l-1.99-6.38.1-.39h15.58l-5.71 22.9 3.83 9.08h.19l8.36-9.08 5.71-22.9h10.64l-6.33 25.41-15.77 17.1-5.06 20.29h-10.64l5.06-20.29z" class="cls-2"/><path id="path262" d="M234.29 475.08h-.39l-6.92-3.28c-1.31-.58-1.69-1.74-1.24-3.57l.1-.39c.87-3.48-.8-5.7-4.38-5.7h-5.8l-9.85 39.51c-.87 3.48.8 5.7 4.38 5.7s6.36-2.22 7.23-5.7l2.12-8.5h10.25l-2 8.02c-2.34 9.37-9.95 15.46-19.91 15.46s-14.93-6.09-12.59-15.46l8-32.07c1.01-4.06 4.39-6.76 8.46-6.76l.05-.19h-3.87c-1.93 0-3.17-.87-3.63-2.51l-1.99-6.38.1-.39h21.38c9.96 0 14.54 6.09 12.21 15.46l-1.69 6.76z" class="cls-2"/><path id="path264" d="M269.25 515.66h-32.41l11.61-46.56c1.01-4.06 4.39-6.76 8.46-6.76l.05-.19h-3.87c-1.93 0-3.17-.87-3.63-2.51l-1.99-6.38.1-.39h15.58l-13.34 53.52h10.45c1.16 0 1.69-.19 2.54-.87l3.82-3.28 2.65 13.43z" class="cls-2"/><path id="path266" d="M289.75 452.87h15.58l-15.66 62.79h-10.64l11.61-46.56c1.01-4.06 4.39-6.76 8.46-6.76l.05-.19h-3.87c-1.93 0-3.17-.87-3.63-2.51l-1.99-6.38.1-.39z" class="cls-2"/><path id="path268" d="m327.39 462.14-1.45 5.8c-2.99 11.98 17.16 16.13 13.05 32.65-2.34 9.37-10.58 16.04-19.86 16.04s-14.76-6.76-12.45-16.04l1.32-5.31h10.64l-1.32 5.31c-1.06 4.25.25 6.76 3.92 6.76 3.29 0 6-2.32 6.86-5.8 2.75-11.01-17.33-15.46-13.19-32.07l.1-.39c1.01-4.06 4.39-6.76 8.46-6.76l.05-.19h-3.87c-1.93 0-3.17-.87-3.63-2.51l-1.99-6.38.1-.39h20.8c9.77 0 14.3 5.12 12.11 13.91l-2.07 8.31h-.39l-6.92-3.28c-1.31-.58-1.7-1.74-1.24-3.57l.36-1.45c.77-3.09-.68-4.64-4.16-4.64h-5.22z" class="cls-2"/><path id="path270" d="m395.68 452.87-9.35 13.43-2.18-3.28c-.51-.68-.94-.87-2.11-.87h-3.39l-13.34 53.52h-10.64l11.61-46.56c1.01-4.06 4.4-6.76 8.46-6.76l.05-.19h-12.58c-1.93 0-3.17-.87-3.63-2.51l-1.99-6.38.1-.39h38.99z" class="cls-2"/><path id="path272" d="m415.71 462.14-1.45 5.8c-2.99 11.98 17.16 16.13 13.05 32.65-2.34 9.37-10.58 16.04-19.86 16.04s-14.76-6.76-12.45-16.04l1.32-5.31h10.64l-1.32 5.31c-1.06 4.25.25 6.76 3.92 6.76 3.29 0 6-2.32 6.86-5.8 2.75-11.01-17.33-15.46-13.19-32.07l.1-.39c1.01-4.06 4.39-6.76 8.46-6.76l.05-.19h-3.87c-1.93 0-3.17-.87-3.63-2.51l-1.99-6.38.1-.39h20.8c9.77 0 14.3 5.12 12.11 13.91l-2.07 8.31h-.39l-6.92-3.28c-1.31-.58-1.7-1.74-1.24-3.57l.36-1.45c.77-3.09-.68-4.64-4.16-4.64h-5.22z" class="cls-2"/></g><g id="g296"><path id="path276" d="M76.3 241.83h-.15l-2.8-1.15c-.53-.2-.71-.66-.57-1.42l.03-.16c.26-1.43-.45-2.29-1.86-2.2l-2.29.15-2.96 16.3c-.26 1.43.45 2.29 1.86 2.2s2.45-1.06 2.71-2.5l.64-3.51 4.04-.26-.6 3.31c-.7 3.87-3.56 6.53-7.48 6.79-3.92.25-6.02-2.09-5.32-5.96l2.4-13.23c.3-1.67 1.57-2.86 3.17-2.96v-.08l-1.51.1c-.76.05-1.27-.27-1.49-.93l-.93-2.54.03-.16 8.42-.54c3.92-.25 5.87 2.1 5.17 5.96z"/><path id="path278" d="M94.77 231.58c3.92-.25 6.02 2.09 5.32 5.96l-2.46 13.55c-.7 3.87-3.71 6.54-7.63 6.79s-6.02-2.09-5.32-5.96l2.4-13.23c.3-1.67 1.57-2.86 3.17-2.96v-.08l-1.51.1c-.76.05-1.27-.27-1.49-.93l-.93-2.54.03-.16 8.42-.55zm1.16 6.02c.26-1.44-.45-2.29-1.86-2.2l-2.29.15-2.96 16.3c-.26 1.43.45 2.29 1.86 2.2s2.45-1.07 2.71-2.5l2.53-13.95z"/><path id="path280" d="M122.56 240.05c-.72 3.95-3.45 6.37-7.42 6.62l-2.4.16-1.69 9.28-4.19.27 3.49-19.21c.3-1.67 1.57-2.86 3.17-2.96v-.08l-1.51.1c-.76.05-1.27-.27-1.49-.93l-.93-2.54.03-.16 8.53-.55c3.96-.26 5.87 1.86 5.16 5.81l-.76 4.18zm-9.12 2.95 2.4-.16c1.45-.09 2.22-.81 2.49-2.33l.83-4.58c.27-1.51-.25-2.15-1.7-2.05l-2.4.15-1.63 8.97z"/><path id="path282" d="m143.1 254.04-13.22.86 3.49-19.21c.3-1.67 1.57-2.86 3.17-2.96v-.08l-1.51.1c-.76.05-1.27-.27-1.49-.93l-.93-2.54.03-.16 15.16-.98-3.37 5.69-.93-1.28c-.22-.26-.39-.33-.85-.3l-4.57.3-1.24 6.81 6.78-.44-3.37 5.69-.93-1.28c-.22-.26-.39-.33-.85-.3l-2.32.15-1.38 7.61 4.57-.3c.46-.03.66-.12.98-.42l1.43-1.43 1.36 5.38z"/><path id="path284" d="m155.99 227.61 5.94-.39 2.19 15.49h.08l2.87-15.82 3.81-.25-4.7 25.9-3.81.25-2.33-15.76h-.08l-2.92 16.1-3.81.25 3.49-19.21c.3-1.67 1.57-2.86 3.17-2.96v-.08l-1.51.1c-.76.05-1.27-.27-1.49-.93l-.93-2.54.03-.16z"/><path id="path286" d="m185.82 225.67-1.92 10.6 4.88-.32 1.92-10.6 4.19-.27-4.7 25.9-4.19.27 2.08-11.48-4.88.32-2.08 11.47-4.19.27 3.49-19.21c.3-1.67 1.57-2.86 3.17-2.96v-.08l-1.51.1c-.76.05-1.27-.27-1.49-.93l-.93-2.54.03-.16 6.13-.4z"/><path id="path288" d="m210.34 249.68.19-4.78-5.03.33-1.56 4.87-4.19.27 6.81-19.66c.63-1.81 1.61-2.62 3.24-2.73v-.08l-1.62.11c-.76.05-1.27-.27-1.49-.93l-.93-2.54.03-.16 9.07-.59-.32 25.62-4.19.27zm-3.69-8.07 4-.26.5-13.54h-.08z"/><path id="path290" d="m231.91 226.47-2.96 16.3c-.26 1.43.45 2.29 1.86 2.2s2.45-1.07 2.71-2.5l.75-4.14-2.86.19.03-.16 1.89-2.72c.47-.7 1.1-1.09 1.86-1.14l3.81-.25-1.41 7.77c-.71 3.9-3.63 6.54-7.48 6.79-3.93.25-6.01-2.13-5.32-5.96l2.4-13.23c.3-1.67 1.57-2.86 3.17-2.96v-.08l-1.51.1c-.76.05-1.27-.27-1.49-.93l-.93-2.54.03-.16 8.42-.55c3.92-.25 5.87 2.1 5.17 5.97l-.51 2.79h-.15l-2.8-1.15c-.53-.2-.71-.66-.57-1.42l.03-.16c.26-1.44-.45-2.29-1.86-2.2l-2.29.15z"/><path id="path292" d="m260.06 246.46-13.22.86 3.49-19.21c.3-1.67 1.57-2.86 3.17-2.96v-.08l-1.51.1c-.76.05-1.27-.27-1.49-.93l-.93-2.54.03-.16 15.16-.98-3.37 5.69-.94-1.28c-.22-.26-.39-.33-.85-.3l-4.57.3-1.24 6.81 6.78-.44-3.37 5.69-.93-1.28c-.22-.26-.39-.33-.85-.3l-2.32.15-1.38 7.61 4.57-.3c.46-.03.66-.12.98-.42l1.43-1.43 1.36 5.39z"/><path id="path294" d="m272.95 220.03 5.94-.39 2.19 15.49h.08l2.87-15.82 3.81-.25-4.7 25.9-3.81.25-2.33-15.76h-.08l-2.92 16.1-3.81.25 3.49-19.21c.3-1.67 1.57-2.86 3.17-2.96v-.08l-1.51.1c-.76.05-1.27-.27-1.49-.93l-.93-2.54.03-.16z"/></g></g></svg>