<svg xmlns="http://www.w3.org/2000/svg" id="Layer_1" data-name="Layer 1" version="1.1" width="276.928" height="450.6"><defs id="defs4"><style id="style2">.cls-1{fill:#be2026}.cls-2{fill:#2b2e81}</style></defs><path class="cls-2" id="polygon124" style="fill:#2b2e81" transform="translate(-115.532 -218.27)" d="M209.33 303.42h7.75v-20.16h5v-54.99h10v-10h44v10h10v54.99h5v20.16h7.75v18.85h-10v-8.85h-7.75v-20.16h-5v-54.99h-10v-10h-24v10h-10v54.99h-5v20.16h-7.75v9.85h-10z"/><path class="cls-1" id="rect126" style="fill:#be2026" d="M32.458 244.83h212v60h-212z"/><path class="cls-2" id="rect128" style="fill:#2b2e81" d="M32.458 314.89h212v60h-212z"/><path d="m196.398 295.17-4.06 3c-9.67 7.1-19.31 14.25-29 21.27-1.84 1.32-2.28 2.46-1.54 4.7 4.06 12.16 7.92 24.39 11.84 36.59.23.71.44 1.43.67 2.19-.93.2-1.34-.45-1.85-.82-10.73-7.72-21.48-15.43-32.16-23.23-1.33-1-2.23-1-3.55-.08q-16 11.55-32.06 23c-.67.48-1.36.94-2.56 1.77 1-3.3 1.9-6 2.78-8.78 3.34-10.39 6.64-20.79 10.07-31.15.58-1.75.29-2.72-1.2-3.79q-15.95-11.6-31.8-23.34c-.58-.43-1.36-.67-1.71-1.86h12.42c9.86 0 19.73-.08 29.59 0a2.49 2.49 0 0 0 2.87-2.09c4-12.51 8.07-25 12.14-37.48.25-.77.27-1.67 1.26-2.33 2 6.23 4.07 12.37 6.07 18.51 2.32 7.12 4.68 14.22 6.88 21.37.51 1.65 1.32 2 2.92 2 13.23 0 26.46 0 39.69.1.68.01 1.49-.29 2.29.45z" id="path130" style="fill:#fff"/><circle cx="137.278" cy="315.66" r="15.17" id="circle132" style="fill:#d5a833"/><path class="cls-1" id="rect134" style="fill:#be2026" d="M169.788 385.38h73.63v10h-73.63z"/><path class="cls-1" id="rect136" style="fill:#be2026" d="M126.788 385.38h20.67v10h-20.67z"/><path class="cls-1" id="rect138" style="fill:#be2026" d="M31.918 385.38h75.21v10h-75.21z"/><path class="cls-2" d="M245.158 233.25H32.928v-24.22c0-29.47 10.65-56.06 30-74.85 19.17-18.63 46.07-28.89 75.76-28.89 62.43 0 107.74 43.63 107.74 103.74v.26zm-202.23-10h192.73l.75-14.34c0-26.55-9.94-50.52-27.9-67.51-17.96-16.99-42.61-26.11-69.84-26.11-56.37 0-95.74 38.55-95.74 93.74z" id="path140" style="fill:#2b2e81"/><path class="cls-2" id="rect142" style="fill:#2b2e81" d="M133.668 110.29h10v104.45h-10z"/><path class="cls-2" d="M110.468 213.73h-10v-3.66a81 81 0 0 0-7.82-24.16c-8.08-15.54-20-24-35.36-25.17h-6.82v-10.01h7.32c19 1.35 34.17 12 43.84 30.82a89.79 89.79 0 0 1 8.77 27.58v.58z" id="path144" style="fill:#2b2e81"/><path class="cls-2" d="M180.518 213.73h-10v-4.57a89.79 89.79 0 0 1 8.77-27.58c9.67-18.81 24.83-29.47 43.84-30.82l.71 10c-15.47 1.11-27.43 9.58-35.53 25.18a81.06 81.06 0 0 0-7.82 24.16z" id="path146" style="fill:#2b2e81"/><path class="cls-1" d="M137.788 441.24a50.72 50.72 0 0 1-50.66-50.67h10a40.67 40.67 0 1 0 81.33 0h10a50.73 50.73 0 0 1-50.67 50.67z" id="path148" style="fill:#be2026"/><path class="cls-1" id="rect150" style="fill:#be2026" d="M132.128 391.56h10v10h-10z"/><path class="cls-1" id="rect152" style="fill:#be2026" d="M132.128 421.58h10v29.02h-10z"/><path class="cls-1" d="M19.878 378.94a1 1 0 0 1 .3 0 1.15 1.15 0 0 1 .56.38l1.84 2.17a1.37 1.37 0 0 1 .32.69 1.1 1.1 0 0 1 0 .31v12.29c0 .36-.16.54-.46.54H.468c-.31 0-.46-.18-.46-.54v-12.25a1.9 1.9 0 0 1 0-.35 1.37 1.37 0 0 1 .33-.65l1.84-2.17a1.08 1.08 0 0 1 .56-.38.88.88 0 0 1 .29 0zm-15.07 10.79h13.3v-4.41l-.46-.54a.43.43 0 0 0-.23-.11H5.628a.09.09 0 0 0-.07 0 .29.29 0 0 1-.1.07l-.55.66a.31.31 0 0 0-.1.27z" id="path154" style="fill:#be2026"/><path class="cls-1" d="m.468 342.44 11-3.82q5.49-1.89 11-3.83c.11 0 .21 0 .31.14a.75.75 0 0 1 .15.44v4.41a.66.66 0 0 1-.15.42.85.85 0 0 1-.31.27l-2.66.93v7.77l2.66.93a.85.85 0 0 1 .31.27.68.68 0 0 1 .15.42v4.41a.75.75 0 0 1-.15.44c-.1.14-.2.19-.31.13l-22-7.65c-.31-.15-.46-.33-.46-.54v-4.59c0-.24.15-.42.46-.55zm14.91.51-6.73 2.32 6.73 2.35z" id="path156" style="fill:#be2026"/><path class="cls-1" d="M18.258 295.19a.43.43 0 0 1 .31-.17h3.9a.42.42 0 0 1 .33.17.71.71 0 0 1 .13.41v15.45a.71.71 0 0 1-.13.41.42.42 0 0 1-.33.17h-22q-.36-.08-.36-.54v-4.56a.48.48 0 0 1 .36-.54h17.67V295.6a.61.61 0 0 1 .12-.41z" id="path158" style="fill:#be2026"/><path class="cls-1" d="M18.258 255.44a.41.41 0 0 1 .31-.18h3.9a.4.4 0 0 1 .33.18.68.68 0 0 1 .13.4v15.46a.68.68 0 0 1-.13.4.4.4 0 0 1-.33.18h-22q-.36-.08-.36-.54v-4.61q0-.47.36-.54h17.67v-10.35a.59.59 0 0 1 .12-.4z" id="path160" style="fill:#be2026"/><path class="cls-1" d="M.468 218.73q5.52-1.94 11-3.82l11-3.83c.11-.05.21 0 .31.14a.75.75 0 0 1 .15.44v4.4a.68.68 0 0 1-.15.43.85.85 0 0 1-.31.27l-2.66.93v7.76l2.66.93a.85.85 0 0 1 .31.27.68.68 0 0 1 .15.43v4.4a.78.78 0 0 1-.15.45c-.1.14-.2.18-.31.13l-22-7.65c-.31-.15-.46-.33-.46-.54v-4.6c0-.23.15-.41.46-.54zm14.91.5-6.73 2.32 6.73 2.36z" id="path162" style="fill:#be2026"/><path class="cls-1" d="M3.048 170.8h3.42a.39.39 0 0 1 .33.17.65.65 0 0 1 .13.41v4.55c0 .37-.15.54-.46.54h-1.64v4.8a.39.39 0 0 0 .1.27l.52.61c.09.11.15.16.19.16h2.83s.1 0 .17-.12l.45-.54v-7.22a1.65 1.65 0 0 1 0-.31 1.45 1.45 0 0 1 .32-.7l1.84-2.16a1.18 1.18 0 0 1 .6-.39 1.09 1.09 0 0 1 .26 0h7.78a1.39 1.39 0 0 1 .3 0 1.17 1.17 0 0 1 .56.39l1.84 2.16a1.45 1.45 0 0 1 .32.7 1.1 1.1 0 0 1 0 .31v10a1.18 1.18 0 0 1 0 .34 1.4 1.4 0 0 1-.32.66l-1.84 2.16a1.11 1.11 0 0 1-.56.39.51.51 0 0 1-.3 0h-3.25a.42.42 0 0 1-.33-.17.74.74 0 0 1-.13-.41v-4.56q0-.54.45-.54h1.46v-4.87a.39.39 0 0 0-.1-.19l-.52-.66a.13.13 0 0 1-.08-.08.11.11 0 0 0-.09 0h-2.68a.5.5 0 0 1-.12.08l-.52.66a.32.32 0 0 0-.1.19v7a1.72 1.72 0 0 1 0 .34 1.33 1.33 0 0 1-.33.66l-1.84 2.16a1.07 1.07 0 0 1-.56.39.48.48 0 0 1-.29 0h-7.79a.39.39 0 0 1-.26 0 1.1 1.1 0 0 1-.59-.39l-1.84-2.16a1.52 1.52 0 0 1-.33-.66 1.72 1.72 0 0 1 0-.34v-10a1.63 1.63 0 0 1 0-.31 1.56 1.56 0 0 1 .33-.7l1.85-2.16a1.16 1.16 0 0 1 .59-.39h.27z" id="path164" style="fill:#be2026"/><path class="cls-2" d="M273.808 187.85h-3.4a.42.42 0 0 1-.33-.17.65.65 0 0 1-.13-.41v-4.54c0-.36.15-.54.46-.54h1.64v-4.79a.39.39 0 0 0-.1-.27l-.52-.62c-.08-.1-.15-.15-.19-.15h-2.77c-.05 0-.1 0-.17.11l-.45.54v7.23a1.71 1.71 0 0 1 0 .31 1.53 1.53 0 0 1-.33.69l-1.84 2.17a1.14 1.14 0 0 1-.59.38.84.84 0 0 1-.27 0h-7.78a1 1 0 0 1-.3 0 1.12 1.12 0 0 1-.55-.38l-1.84-2.17a1.35 1.35 0 0 1-.33-.69 1.71 1.71 0 0 1 0-.31v-10a1.9 1.9 0 0 1 0-.35 1.3 1.3 0 0 1 .33-.65l1.84-2.17a1.12 1.12 0 0 1 .55-.38.51.51 0 0 1 .3 0h3.25a.39.39 0 0 1 .33.17.65.65 0 0 1 .13.41v4.56q0 .54-.45.54h-1.45v4.87a.35.35 0 0 0 .09.19l.53.65a.29.29 0 0 1 .08.08h2.77l.11-.08.52-.65a.32.32 0 0 0 .1-.19v-7a1.9 1.9 0 0 1 0-.35 1.49 1.49 0 0 1 .33-.65l1.84-2.17a1.15 1.15 0 0 1 .56-.38.51.51 0 0 1 .3 0h7.78a.39.39 0 0 1 .26 0 1.1 1.1 0 0 1 .59.38l1.84 2.17a1.3 1.3 0 0 1 .33.65 1.9 1.9 0 0 1 0 .35v10a1.71 1.71 0 0 1 0 .31 1.35 1.35 0 0 1-.33.69l-1.85 2.17a1.1 1.1 0 0 1-.59.38.84.84 0 0 1-.27 0z" id="path166" style="fill:#2b2e81"/><path class="cls-2" d="M276.468 225.56h-22a.42.42 0 0 1-.31-.15.53.53 0 0 1-.15-.39v-6.1a.68.68 0 0 1 .15-.43.78.78 0 0 1 .31-.27l11-4.71h-11a.39.39 0 0 1-.31-.18.53.53 0 0 1-.15-.36v-4.6a.54.54 0 0 1 .15-.39.42.42 0 0 1 .31-.15h22c.3 0 .46.18.46.54v5.76a.53.53 0 0 1-.46.54l-12.68 5.1-.36.07h13a.4.4 0 0 1 .33.18.63.63 0 0 1 .13.36v4.6c.03.4-.13.58-.42.58z" id="path168" style="fill:#2b2e81"/><path class="cls-2" d="M276.318 250.73h-21.93c-.31 0-.46-.18-.46-.54v-4.6c0-.36.15-.54.46-.54h21.93c.31 0 .47.18.47.54v4.6c0 .31-.16.54-.47.54z" id="path170" style="fill:#2b2e81"/><path class="cls-2" d="M265.468 286.8a1.29 1.29 0 0 1-.29 0 1.13 1.13 0 0 1-.56-.39l-1.87-2.16a1.38 1.38 0 0 1-.33-.7.81.81 0 0 1 0-.31v-7.15h-8a.38.38 0 0 1-.31-.17.61.61 0 0 1-.15-.41v-4.56a.52.52 0 0 1 .15-.38.4.4 0 0 1 .31-.16h22c.3 0 .46.18.46.54v12.29a1.65 1.65 0 0 1 0 .31c0 .1-.05.21-.08.33a1 1 0 0 1-.21.37l-1.87 2.16a1.2 1.2 0 0 1-.59.39h-.27zm1.74-10.74v4.06a.37.37 0 0 0 .09.23l.53.66a.15.15 0 0 1 .08.08h3.38a.24.24 0 0 1 .09-.08l.56-.66.06-.13a.26.26 0 0 0 0-.1v-4.06z" id="path172" style="fill:#2b2e81"/><path class="cls-2" d="M267.818 312.23v6.84c0 .36-.16.54-.46.54h-3.89c-.31 0-.46-.18-.46-.54v-6.84h-4.24v8.92a.6.6 0 0 1-.13.37.39.39 0 0 1-.33.17h-3.9a.37.37 0 0 1-.33-.17.6.6 0 0 1-.13-.37v-14.06c0-.36.15-.54.46-.54h22c.31 0 .46.18.46.54v14.06a.6.6 0 0 1-.13.37.38.38 0 0 1-.33.17h-3.9a.37.37 0 0 1-.33-.17.6.6 0 0 1-.13-.37v-8.92z" id="path174" style="fill:#2b2e81"/><path class="cls-2" d="M265.468 358.05a.85.85 0 0 1-.29 0l-.27-.09a.88.88 0 0 1-.29-.25l-1.88-2.21-.06-.11-8.24 3.94c-.11.05-.22 0-.32-.14a.75.75 0 0 1-.14-.4v-5.18a.71.71 0 0 1 .14-.42.87.87 0 0 1 .32-.27l8-3.79v-1.78h-8a.45.45 0 0 1-.32-.15.6.6 0 0 1-.14-.39v-4.6a.56.56 0 0 1 .14-.36.43.43 0 0 1 .32-.18h22a.39.39 0 0 1 .33.18.55.55 0 0 1 .13.36v12.29a1.63 1.63 0 0 1 0 .31c0 .1-.05.21-.08.33a1 1 0 0 1-.21.36l-1.88 2.21a.8.8 0 0 1-.33.25l-.29.09a1.13 1.13 0 0 1-.3 0zm1.74-10.74v4.06a.39.39 0 0 0 .1.27l.53.62a.23.23 0 0 0 .16.11h3.25a.26.26 0 0 0 .2-.11l.52-.62a.36.36 0 0 0 .1-.23v-4.1z" id="path176" style="fill:#2b2e81"/><path class="cls-2" d="M273.808 395.49h-3.4a.42.42 0 0 1-.33-.17.65.65 0 0 1-.13-.41v-4.56c0-.36.15-.54.46-.54h1.64v-4.79a.39.39 0 0 0-.1-.27l-.52-.62c-.08-.1-.15-.15-.19-.15h-2.77c-.05 0-.1 0-.17.11l-.45.54v7.23a1.71 1.71 0 0 1 0 .31 1.48 1.48 0 0 1-.33.69l-1.84 2.17a1.14 1.14 0 0 1-.59.38.84.84 0 0 1-.27 0h-7.78a1 1 0 0 1-.3 0 1.12 1.12 0 0 1-.55-.38l-1.84-2.17a1.31 1.31 0 0 1-.33-.69 1.71 1.71 0 0 1 0-.31v-10a1.9 1.9 0 0 1 0-.35 1.3 1.3 0 0 1 .33-.65l1.84-2.17a1.12 1.12 0 0 1 .55-.38.51.51 0 0 1 .3 0h3.25a.42.42 0 0 1 .33.17.65.65 0 0 1 .13.41v4.56q0 .54-.45.54h-1.45v4.87a.35.35 0 0 0 .09.19l.53.66a.19.19 0 0 1 .08.07h2.77l.11-.07.52-.66a.32.32 0 0 0 .1-.19v-7a1.9 1.9 0 0 1 0-.35 1.49 1.49 0 0 1 .33-.65l1.84-2.17a1.15 1.15 0 0 1 .56-.38.51.51 0 0 1 .3 0h7.78a.39.39 0 0 1 .26 0 1.1 1.1 0 0 1 .59.38l1.84 2.17a1.3 1.3 0 0 1 .33.65 1.9 1.9 0 0 1 0 .35v10a1.71 1.71 0 0 1 0 .31 1.31 1.31 0 0 1-.33.69l-1.85 2.17a1.1 1.1 0 0 1-.59.38.84.84 0 0 1-.27 0z" id="path178" style="fill:#2b2e81"/><path class="cls-2" d="M138.548 87.5a16.5 16.5 0 1 1 16.5-16.5 16.52 16.52 0 0 1-16.5 16.5zm0-23a6.5 6.5 0 1 0 6.5 6.5 6.51 6.51 0 0 0-6.5-6.5z" id="path180" style="fill:#2b2e81"/></svg>