<svg xmlns="http://www.w3.org/2000/svg" id="Layer_1" width="492.863" height="501.485" data-name="Layer 1" version="1.1"><defs id="defs569"><style id="style567">.cls-4{stroke-linecap:round;stroke-linejoin:round;stroke-width:9.27px;fill:none}.cls-10,.cls-6,.cls-8,.cls-9{stroke-width:0}.cls-11{stroke:#000;stroke-miterlimit:10;stroke-width:.72px;fill:#fff}.cls-4{stroke:#0050d4}.cls-8{fill:#e08200}.cls-9{fill:red}.cls-10{fill:#0050d4}</style></defs><g id="g649" transform="translate(-50.982 -47.35)"><circle id="circle573" cx="331.12" cy="336.11" r="208.09" style="stroke:#e08200;stroke-width:9.27000046px;stroke-linecap:round;stroke-linejoin:round"/><path id="path575" d="M371.94 512.18a181.289 181.289 0 0 1-40.83 4.63c-97.25 0-176.56-76.82-180.55-173.09" class="cls-4" style="fill:none;stroke:#0050d4;stroke-width:9.27000046px;stroke-linecap:round;stroke-linejoin:round"/><path id="path577" d="M406.19 500.53c-10.88 4.98-22.34 8.9-34.25 11.65" class="cls-4" style="fill:none;stroke:#0050d4;stroke-width:9.27000046px;stroke-linecap:round;stroke-linejoin:round"/><path id="path579" d="M453.42 203.08c35.9 33.03 58.4 80.4 58.4 133.03 0 59.85-29.1 112.91-73.92 145.8" style="fill:none;stroke:red;stroke-width:9.27000046px;stroke-linecap:round;stroke-linejoin:round"/><circle id="circle581" cx="335.22" cy="334.74" r="70.97" style="fill:#436431;stroke:#e08200;stroke-width:9.27000046px;stroke-linecap:round;stroke-linejoin:round"/><g id="g631"><g id="g587"><path id="path583" d="M328 422.93c-.49 0-.99-.08-1.47-.24l-56.95-18.98a4.61 4.61 0 0 1-2.72-2.42l-50.7-107.24h-49.57l-7.07 23.32a4.632 4.632 0 0 1-2.7 2.95c-.56.23-1.15.34-1.74.34-.78 0-1.55-.2-2.25-.58l-50.69-28.13a4.6 4.6 0 0 1-1.61-1.49l-44.15-66.41a4.625 4.625 0 0 1-.22-4.76 4.636 4.636 0 0 1 4.08-2.45h95.33l1.94-160.27c.03-2.54 2.1-4.58 4.63-4.58h81.92c2.56 0 4.63 2.08 4.63 4.64v57.68l112.35 40.33 36.47-11.52c.45-.14.92-.21 1.4-.21.57 0 1.14.1 1.67.31l30.97 11.99c1.92.74 3.11 2.65 2.95 4.7l-4.9 59.79 12.53 28.91c.34.79.46 1.66.33 2.51l-5.99 40.96a4.65 4.65 0 0 1-2.05 3.21l-104.67 68.47 2.86 54.28a4.635 4.635 0 0 1-4.63 4.88z" style="fill:#436431;stroke-width:0"/><path id="path585" d="M244.08 56.63v60.94l116.89 41.96 37.96-11.99 30.97 11.99-5 60.94 12.99 29.97-5.99 40.96L325 361.33l3 56.95-56.95-18.98-51.95-109.9h-55.95l-8.06 26.61-50.69-28.13-44.15-66.41h99.91l2-164.85h81.92m0-9.26h-81.92c-5.08 0-9.21 4.08-9.27 9.16L151 212.21H60.25c-3.42 0-6.56 1.88-8.17 4.89a9.28 9.28 0 0 0 .45 9.51l44.15 66.41a9.353 9.353 0 0 0 3.22 2.97l50.69 28.13c1.39.77 2.94 1.16 4.5 1.16 1.18 0 2.36-.22 3.48-.68a9.247 9.247 0 0 0 5.39-5.9l6.07-20.03h43.2l49.44 104.59a9.254 9.254 0 0 0 5.45 4.83l56.95 18.98c.96.32 1.95.48 2.93.48 2 0 3.98-.65 5.62-1.89a9.27 9.27 0 0 0 3.64-7.86l-2.72-51.62 102.44-67.02a9.291 9.291 0 0 0 4.1-6.42l5.99-40.96c.25-1.71.02-3.45-.67-5.03l-12.06-27.84 4.81-58.63a9.26 9.26 0 0 0-5.89-9.4l-30.97-11.99a9.178 9.178 0 0 0-3.35-.63c-.94 0-1.88.14-2.79.43l-34.98 11.05-107.81-38.7V56.62a9.27 9.27 0 0 0-9.27-9.27z" class="cls-8" style="fill:#e08200;stroke-width:0"/></g><g id="g629"><g id="g593"><path id="rect589" d="M242.83 117.63h113.26v194.01H242.83z" class="cls-6" style="stroke-width:0"/><path id="path591" d="M350.68 91.95c11.02 0 20.59 3.98 28.44 11.83 7.85 7.85 11.83 17.42 11.83 28.44v166.61c0 11.02-3.98 20.58-11.83 28.44-7.85 7.85-17.42 11.83-28.44 11.83H184.75v-63.34h21.88V155.62h-21.88V91.96h165.93zm-80.39 63.66v120.14h57.31V155.61Z" class="cls-6" style="stroke-width:0"/></g><g id="g599"><path id="path595" d="M265.65 280.08h66.58V150.67h-66.58zm9.27-120.15h48.05v110.88h-48.05z" class="cls-8" style="fill:#e08200;stroke-width:0"/><path id="path597" d="M382.4 100.51c-8.76-8.75-19.43-13.19-31.72-13.19H180.12v72.61H202v110.88h-21.88v72.92h170.56c12.3 0 22.97-4.44 31.72-13.19s13.19-19.42 13.19-31.72V132.21c0-12.29-4.44-22.96-13.18-31.71zM189.38 280.08h21.88V150.67h-21.88v-22.51h44.7V302.9h-44.7zm196.93 18.75c0 9.8-3.49 18.18-10.47 25.16s-15.37 10.47-25.16 10.47h-161.3v-22.82h161.3c3.54 0 6.56-1.25 9.07-3.75 2.5-2.5 3.75-5.52 3.75-9.07V132.21c0-3.54-1.25-6.56-3.75-9.06-2.5-2.5-5.52-3.75-9.07-3.75h-161.3V96.58h161.3c9.79 0 18.18 3.49 25.16 10.47s10.47 15.37 10.47 25.16v166.61Zm-143.48 4.07V128.16h107.84c2.92 0 4.38 1.36 4.38 4.06v166.61c0 2.71-1.46 4.06-4.38 4.06H242.83Z" class="cls-8" style="fill:#e08200;stroke-width:0"/></g><path id="path601" d="M234.08 128.16v151.05h8.75V128.16h107.84c2.92 0 4.38 1.36 4.38 4.06v146.99h8.44V132.22c0-3.54-1.25-6.56-3.75-9.06-2.5-2.5-5.52-3.75-9.07-3.75h-161.3v8.75h44.7z" class="cls-10" style="fill:#0050d4;stroke-width:0"/><path id="path603" d="M234.08 302.89V151.84h8.75v151.05h107.84c2.92 0 4.38-1.36 4.38-4.06V151.84h8.44v146.99c0 3.54-1.25 6.56-3.75 9.06-2.5 2.5-5.52 3.75-9.07 3.75h-161.3v-8.75h44.7z" class="cls-10" style="fill:#0050d4;stroke-width:0"/><g id="g627"><g id="g609"><path id="path605" d="M298.66 182.17c-18.78 0-34.06 15.28-34.06 34.06s15.28 34.06 34.06 34.06 34.06-15.28 34.06-34.06-15.28-34.06-34.06-34.06" class="cls-6" style="stroke-width:0"/><path id="path607" d="M298.66 245.65c-16.25 0-29.43-13.17-29.43-29.43 0-16.26 13.17-29.43 29.43-29.43 16.26 0 29.43 13.17 29.43 29.43 0 16.26-13.17 29.43-29.43 29.43m0 9.27c21.34 0 38.69-17.36 38.69-38.69s-17.36-38.69-38.69-38.69-38.69 17.36-38.69 38.69 17.36 38.69 38.69 38.69" class="cls-9" style="fill:red;stroke-width:0"/></g><path id="path611" d="M298.66 232.83c-2.56 0-4.63 2.07-4.63 4.63v24.43c0 2.56 2.07 4.63 4.63 4.63s4.63-2.07 4.63-4.63v-24.43c0-2.56-2.07-4.63-4.63-4.63" class="cls-9" style="fill:red;stroke-width:0"/><path id="path613" d="M298.66 164.87c-2.56 0-4.63 2.07-4.63 4.63v24.43c0 2.56 2.07 4.63 4.63 4.63s4.63-2.07 4.63-4.63V169.5c0-2.56-2.07-4.63-4.63-4.63" class="cls-9" style="fill:red;stroke-width:0"/><g id="g619"><path id="line615" d="M252.46 215.7h24.44" class="cls-6" style="stroke-width:0"/><path id="path617" d="M276.9 211.06h-24.43c-2.56 0-4.63 2.07-4.63 4.63s2.07 4.63 4.63 4.63h24.43c2.56 0 4.63-2.07 4.63-4.63s-2.07-4.63-4.63-4.63" class="cls-9" style="fill:red;stroke-width:0"/></g><g id="g625"><path id="line621" d="M320.42 215.7h24.43" class="cls-6" style="stroke-width:0"/><path id="path623" d="M344.85 211.06h-24.43c-2.56 0-4.63 2.07-4.63 4.63s2.07 4.63 4.63 4.63h24.43c2.56 0 4.63-2.07 4.63-4.63s-2.07-4.63-4.63-4.63" class="cls-9" style="fill:red;stroke-width:0"/></g></g></g></g><g id="g647"><path id="path633" d="m244.63 428.12 1.68-1.71-7.22-7.09-4.91 5 9.8 9.63c1.24 1.22 1.87 2.71 1.89 4.47.02 1.76-.59 3.26-1.81 4.5l-9.12 9.29c-1.22 1.24-2.71 1.87-4.47 1.89-1.76.02-3.26-.59-4.5-1.81l-12.5-12.28c-1.24-1.22-1.87-2.71-1.89-4.47-.02-1.76.59-3.25 1.81-4.5l3.98-4.05 2.9 2.84-3.97 4.05c-.44.45-.66.99-.65 1.62 0 .63.23 1.16.68 1.61l12.5 12.28c.45.44.99.66 1.62.65.63 0 1.16-.23 1.61-.68l9.12-9.29c.44-.45.66-.99.65-1.62 0-.63-.23-1.17-.68-1.61l-12.14-11.93c-.37-.36-.39-.72-.05-1.06l9.55-9.72c.34-.34.69-.33 1.06.03l11.9 11.69c.37.36.39.72.05 1.06l-3.97 4.05-2.9-2.85zm-23.26 2.8 2.9 2.84-1.64 1.67 7.74 7.6 4.44-4.52-9.76-9.59c-1.24-1.22-1.87-2.71-1.89-4.47-.02-1.76.59-3.26 1.81-4.5l9.55-9.72c1.22-1.24 2.71-1.87 4.47-1.89 1.76-.02 3.26.59 4.5 1.81l11.9 11.69c1.24 1.22 1.87 2.71 1.89 4.47.01 1.76-.59 3.26-1.81 4.5l-3.98 4.05-2.9-2.85 3.98-4.05c.44-.45.66-.99.66-1.62 0-.63-.23-1.17-.68-1.61l-11.9-11.69c-.45-.44-.99-.66-1.62-.66-.63 0-1.17.23-1.61.68l-9.55 9.72c-.44.45-.66.99-.65 1.62 0 .63.23 1.16.68 1.61l12.14 11.93c.34.34.35.68 0 1.03l-9.12 9.28c-.34.34-.68.35-1.02.01l-12.5-12.28c-.34-.34-.35-.68 0-1.02l3.98-4.05z" class="cls-11" style="fill:#fff;stroke:#000;stroke-width:.72000003px;stroke-miterlimit:10"/><path id="path635" d="m275.02 476.99-1.39 3.82-16.78-6.1 1.39-3.82zm-16.25-7.56 1.39-3.82 3.87 1.41 7.87-21.64-3.87-1.41 1.37-3.76 7.68 2.79-10.62 29.22-7.68-2.79zm38.41 15.62-1.39 3.82-12.44-4.52-5.52-27.16-4.77 13.12 3.87 1.41-1.39 3.82-7.68-2.79 10.62-29.22.78.28 7.61 37.51 10.3 3.74zm-27.25-46.31 1.39-3.82 12.81 4.66 5.36 26.45 4.58-12.6-3.87-1.41 1.37-3.76 7.68 2.79-10.62 29.22-.42-.15-7.61-37.51-10.66-3.88zm38.41 15.62-1.37 3.76-3.82-1.39-7.87 21.64 3.82 1.39-1.39 3.82-7.63-2.77 10.62-29.22 7.63 2.77zm-14.86-11.37 16.78 6.1-1.39 3.82-16.78-6.1z" class="cls-11" style="fill:#fff;stroke:#000;stroke-width:.72000003px;stroke-miterlimit:10"/><path id="path637" d="m324.93 449.17 17.46-.54.12 4.06-17.46.54-.13-4.06zm1.14 36.7-.13-4.06 3.89-.12-.71-23.02-3.89.12-.12-4 7.95-.24.96 31.08zm17.5 1.02.13 4.06-17.46.54-.12-4.06 17.46-.54zm-1.01-32.64.12 4-3.89.12.71 23.02 3.89-.12.13 4.06-7.95.24-.96-31.08z" class="cls-11" style="fill:#fff;stroke:#000;stroke-width:.72000003px;stroke-miterlimit:10"/><path id="path639" d="m358.81 450.71-1.52-3.77 25.59-10.32c1.62-.65 3.23-.63 4.85.05 1.62.69 2.75 1.84 3.4 3.46l5.72 14.19c.65 1.62.62 3.24-.08 4.86s-1.85 2.75-3.43 3.39l-13.26 5.35 1.75 4.33 3.41-1.37 1.52 3.76-7.17 2.89-4.78-11.86 17.02-6.87c.55-.22.96-.63 1.22-1.21.26-.59.28-1.17.04-1.76l-5.72-14.19c-.24-.58-.64-1-1.22-1.25s-1.16-.25-1.75-.02l-25.59 10.32zm10.69 26.52 3.41-1.37-8.61-21.36-3.41 1.37-1.5-3.71 7.17-2.89 11.63 28.84-7.17 2.89-1.52-3.76zm4.72-13-6.26-15.53 17.02-6.87c.45-.18.76-.05.94.4l5.72 14.19c.18.45.05.76-.4.94zm13.12 11.86 1.52 3.77-15.73 6.34-1.52-3.76zm-10.88-17.15 10.16-4.1-3.25-8.05-10.16 4.1z" class="cls-11" style="fill:#fff;stroke:#000;stroke-width:.72000003px;stroke-miterlimit:10"/><path id="path641" d="m403.33 429.1-2.87-2.87 21.8-21.78 8.33 8.34-2.87 2.87-5.46-5.47-18.93 18.9zm23.07 23.1-2.87-2.87 2.79-2.79-16.27-16.29-2.79 2.79-2.83-2.83 5.67-5.66 21.97 22-5.67 5.66zm-2.61-32.61-1.53-1.53-5.39 5.39 4.72 4.72 5.71-5.7 2.87 2.87-8.58 8.57-10.42-10.43 11.1-11.08 4.36 4.37-2.83 2.83zm7.47 6.85 2.87 2.87-5.71 5.7 4.72 4.72 5.39-5.39-1.81-1.81 2.83-2.83 4.68 4.68-11.1 11.09L422.67 435l8.58-8.57zm9.39 2.17 2.87-2.87 8.65 8.66-21.81 21.78-2.87-2.87 18.93-18.91-5.78-5.78z" class="cls-11" style="fill:#fff;stroke:#000;stroke-width:.72000003px;stroke-miterlimit:10"/><path id="path643" d="M465.2 373.84h7.82l1.34-3.41 3.78 1.48-2.35 6.01-16.24-.02 1.48-3.78c.23-.59.22-1.17-.03-1.75-.25-.57-.67-.98-1.26-1.21l-12.07-4.72c-.59-.23-1.17-.22-1.75.03-.58.25-.98.67-1.21 1.26l-10.48 26.78-3.78-1.48 10.48-26.78c.64-1.62 1.76-2.79 3.37-3.49 1.61-.7 3.23-.74 4.85-.1l12.07 4.72c1.31.51 2.33 1.37 3.06 2.57.72 1.2 1.03 2.5.93 3.89zm-.56 32.57-3.78-1.48 1.34-3.42-21.45-8.39-1.34 3.42-3.73-1.46 2.82-7.2 28.96 11.33zm-12.17-14.68-13.42-5.25 7.11-18.18c.18-.45.49-.59.94-.41l12.07 4.72c.45.18.59.49.41.94zm-2.3-5.26 4.42-11.29-5.91-2.31-4.42 11.29zm29.42-13.99 3.78 1.48-3.73 9.53-17.91-.02-2.55 6.53 6.53 2.55 1.34-3.42 3.78 1.48-2.82 7.2-14.09-5.51 5.03-12.85 17.91.02 2.74-6.99zm-7.31 18.7 3.78 1.48-6.18 15.8-3.78-1.48z" class="cls-11" style="fill:#fff;stroke:#000;stroke-width:.72000003px;stroke-miterlimit:10"/><path id="path645" d="m475.72 337.72-.16-4.06 2.33-.09-.42-10.84-6.34.24.53 13.67c.07 1.74-.49 3.26-1.69 4.55-1.19 1.29-2.66 1.97-4.4 2.03l-13.62.52c-1.74.07-3.26-.49-4.55-1.69-1.29-1.19-1.97-2.66-2.03-4.4l-.64-16.68c-.07-1.74.5-3.26 1.69-4.55 1.2-1.29 2.66-1.97 4.4-2.03l5.67-.22.16 4.06-5.67.22c-.63.02-1.16.27-1.59.73-.43.46-.63 1.01-.6 1.64l.64 16.68c.02.63.27 1.16.73 1.59.46.43 1.01.63 1.64.6l13.62-.52c.63-.02 1.16-.27 1.59-.73.43-.46.63-1.01.61-1.64l-.66-17.01c-.02-.48.21-.73.69-.75l13.01-.5c.48-.02.73.21.75.69l.68 17.51c.02.48-.21.73-.7.75l-5.67.22zm-18.85-13.92-2.39.09.39 10.12 7-.27-.53-13.73c-.07-1.74.5-3.26 1.69-4.55s2.66-1.97 4.4-2.03l13.01-.5c1.74-.07 3.26.5 4.55 1.69s1.97 2.66 2.03 4.4l.67 17.51c.07 1.74-.5 3.26-1.69 4.55s-2.66 1.97-4.4 2.03l-5.67.22-.16-4.06 5.67-.22a2.24 2.24 0 0 0 1.59-.73c.43-.46.63-1.01.6-1.64l-.67-17.51a2.24 2.24 0 0 0-.73-1.59c-.46-.43-1.01-.63-1.64-.6l-13.01.5c-.63.03-1.16.27-1.59.73-.43.46-.63 1.01-.6 1.64l.65 17.01c.02.52-.21.79-.69.81l-13.62.52c-.48.02-.73-.23-.75-.75l-.64-16.67c-.02-.52.21-.79.69-.81l5.67-.22.16 4.06z" class="cls-11" style="fill:#fff;stroke:#000;stroke-width:.72000003px;stroke-miterlimit:10"/></g></g></svg>