<svg xmlns="http://www.w3.org/2000/svg" xml:space="preserve" width="723.9" height="633.6"><defs><clipPath clipPathUnits="userSpaceOnUse" id="a"><path d="M0 600h600V0H0Z"/></clipPath></defs><g clip-path="url(#a)" transform="matrix(1.3333333 0 0 -1.3333333 -38 734.7)"><path d="M399.3 424.4V466h-22.4c-1.3 2.4-5 8.2-11.5 10.8h-.8A23.8 23.8 0 0 1 353 466h-13.2l1.8 7.2s5.2 21-24.7 33.8v.4c0 2.2-1.3 4-3.1 5l-2.3 12-2.2-12c-1.7-.9-3-2.6-3.1-4.6-32.2-12.6-26.7-34.6-26.7-34.6l1.8-7.2h-12a24 24 0 0 1-11.6 10.8h-.8a23.8 23.8 0 0 1-11.6-10.8h-22v-41.5l-79.8-33v-67h336v67z" fill="#575353"/><path d="M399.3 424.4V466h-22.4c-1.3 2.4-5 8.2-11.5 10.8h-.8A23.8 23.8 0 0 1 353 466h-13.2l1.8 7.2s5.2 21-24.7 33.8v.4c0 2.2-1.3 4-3.1 5l-2.3 12-2.2-12c-1.7-.9-3-2.6-3.1-4.6-32.2-12.6-26.7-34.6-26.7-34.6l1.8-7.2h-12a24 24 0 0 1-11.6 10.8h-.8a23.8 23.8 0 0 1-11.6-10.8h-22v-41.5l-79.8-33v-67h336v67z" fill="none" stroke="#00753e" stroke-width="9.9" stroke-miterlimit="10"/><path d="M247.4 421.4v17.5c-.2 3.5 5.2 6.1 5.2 6.1l5.2 2.2h.3l5.2-2.2s5.5-2.6 5.3-6.1v-17.5m85.9 0v17.5c-.2 3.5 5.3 6.1 5.3 6.1l5.1 2.2h.4l5.1-2.2s5.5-2.6 5.3-6.1v-17.5m-81.4-.5h35v24.4c.4 5.8-8.7 10-8.7 10l-8.5 3.8h-.6l-8.5-3.7s-9-4.3-8.7-10.1z" fill="#00753c"/><path d="M571.4 298.6c0 4.2-1.2 8.1-3.5 11.5v5.2c0 24.4-16.1 35.3-32.1 35.3h-32.9a24.9 24.9 0 0 1-23.2 15.9h-27.8a24.8 24.8 0 0 1-22 13.2h-8.1c-1 8.4-6 15.5-13.3 19.2a28.7 28.7 0 0 1-28.6 26.3H238.8c-15 0-27.2-11.4-28.6-26a25 25 0 0 1-13.9-19.5h-7.6a25 25 0 0 1-22-13.2H139a24.9 24.9 0 0 1-23.1-15.9h-14.7c-1 0-2-.3-3-.6a24.9 24.9 0 0 1-15.8-11.5 24.7 24.7 0 0 1-21.7 12.2H49a20.5 20.5 0 0 1-17-32.1v-72a20.5 20.5 0 0 1 17-32h11.8c9.3 0 17 4.3 21.6 11.2a25.2 25.2 0 0 1 21.6-11.2h11.8a20.5 20.5 0 0 1 20.5 22h8.5L292 81.4a18.1 18.1 0 0 1 26.2 0l147.1 155.2h22.2c5-16 18.7-22 30.1-22h18.3c16 0 32.1 11 32.1 35.7v21.2c0 4.6-.7 9-2.1 13 3.5 3.7 5.6 8.7 5.6 14.1" fill="#00753c"/><path d="M481.3 310.3h-344c-7.8 0-14.2 6.4-14.2 14.2v18.8c0 7.8 6.4 14.2 14.2 14.2h344c7.9 0 14.3-6.4 14.3-14.2v-18.8c0-7.8-6.4-14.2-14.3-14.2" fill="#575353"/><path d="M431.6 323.5H187c-7.8 0-14.2 6.4-14.2 14.3v18.7c0 7.9 6.4 14.3 14.2 14.3h244.6c7.9 0 14.3-6.4 14.3-14.3v-18.7c0-7.9-6.4-14.3-14.3-14.3" fill="#575353"/><path d="M398.8 345.5H219.3c-7.8 0-14.2 6.4-14.2 14.3v18.7c0 7.8 6.4 14.3 14.2 14.3h179.5c7.8 0 14.2-6.5 14.2-14.3v-18.7c0-7.9-6.4-14.3-14.2-14.3" fill="#575353"/><path d="M392.2 335.1H226.5V398c0 6 5 11 11 11h143.7c6 0 11-5 11-11z" fill="#e5dfd4"/><path d="M392.2 335.1H226.5V398c0 6 5 11 11 11h143.7c6 0 11-5 11-11z" fill="none" stroke="#565453" stroke-width="14.9" stroke-linecap="round" stroke-linejoin="round" stroke-miterlimit="10"/><path d="M254.9 348.5c-2 0-3.6.5-5 1.5a5 5 0 0 0-2 4.1v4.5l-.1 4.8v4.8c0 5-.1 7.7-.4 8.2-.3.4-.6.7-.8.7-.7 0-1.9-.8-3.6-2.2l-.3-.1h-.3c-.3.2-.3.4-.3.5a64.7 64.7 0 0 0 3.7 3.3c3 2.4 5.9 4 7.8 4h.8c1.1-.4 1.7-1.7 1.7-4V361c0-2.3 1-3.8 3-4.6.8-.3 1.6-.5 2.4-.5 2 0 3.6 1 5 3 1.9 2.8 3 5.6 3.3 8.3.3 2.8.4 4.7.4 5.9 0 3-.4 5.7-1.3 8.3-1.2 3.5-3.3 5.4-6.4 5.8h-1.4a31.6 31.6 0 0 1-9.3-1.2 21 21 0 0 0-5.4-1c-.9 0-1.7 0-2.4.4-1.5.9-2.2 1.8-2.2 2.8l.1.7a8.5 8.5 0 0 0 2.9 3.8 54 54 0 0 0 4.1 3.1l.4.3.4.1h.2l.3-.4c0-1.5.3-2.3.7-2.4l1-.2c.6 0 1.3.1 2.2.4a59.7 59.7 0 0 0 10.6 1.5c5.8 0 9.9-2 12.1-6a25.3 25.3 0 0 0 3.2-15.9 24.3 24.3 0 0 0-5.9-14.1 49.5 49.5 0 0 0-10.5-8 16.6 16.6 0 0 0-8.7-2.6m51.3 23.4-.1-1c-.5-2.8-2-5.3-4.4-7.6-2.4-2.3-5-3.8-8-4.7h-.1c-.2 0-.5 0-.6.3v.2c0 .3 0 .4.5.6 1.6.5 2.7 2 3.2 3.4.5 1 .7 1.8.7 2.6 0 1.9-1.1 3.4-3.5 4.4a7 7 0 0 1-2 .3c-2.1 0-3.7-1-4.6-2.8a8.6 8.6 0 0 1-.4-7.3c1.2-2.4 3-4 5.2-4.7 1.2-.4 2.5-.6 3.9-.6a20.2 20.2 0 0 1 8.6 2.2c2 1 3.3 1.8 4.9 3.3l.4.2s.4 0 .5-.4v-.1l-.1-.4-.3-.2-.3-.3c-.4-.4-1-.8-1.3-1.3a47.7 47.7 0 0 0-7-5.9 21.5 21.5 0 0 0-11.5-3.4c-2.4 0-4.7.6-6.9 1.7a9.4 9.4 0 0 0-4.1 7.4c0 3.3 1 6.2 2.8 8.6A35.4 35.4 0 0 0 295 377a13.7 13.7 0 0 0 7.6.4c1.4-.2 2.5-1.4 3.2-3.5l.3-1.9" fill="#575353"/><path d="M318 363.8c0-2.1.3-4.8 1.7-6.6a3 3 0 0 1 2-1.1c1.5 0 2.6 1 3.5 1.9l.5.5 1.8 1.6.4.3.4.2h.2c.4-.1.4-.5.4-.6l-.1-.4-8-7.2-1.5-1.3a7.7 7.7 0 0 0-4.3-2h-1a6.1 6.1 0 0 0-3.3 3.8c-.6 1.8-1 3.5-1 5v25.8c0 6 .8 6.7 4.4 9.7l1.6 1.3 3.6 3.3.4.2h.2c.3-.2.3-.4.3-.6l-.1-.3a6 6 0 0 1-1.9-2.5c-.2-.8-.3-1.7-.3-2.8v-8.3z" fill="#575353"/><path d="m333.7 368.5.2.1 3 2.4c2.3 2 4.7 3.7 7 5.2a9 9 0 0 0 4.2 1.4c.8 0 1.5-.3 2-.9 1.2-1.3 1.7-3.3 1.7-6l-.2-10.2c0-.6 0-1.3.2-2 .2-1.5 1-2.4 2.2-2.4h.7c1.1.5 2 1 2.8 1.9l.5.5 1.8 1.6.3.3.4.2h.2c.4-.1.5-.5.5-.6l-.2-.4-9.9-9a6.6 6.6 0 0 0-4.2-1.8h-.4c-1.4 0-2.4 1.2-2.9 3.4v9l.1 3c0 4-.4 6-1.3 6H341c-1.8 0-4.1-1.2-7.3-3.7v-8.4c0-6-.8-6.7-4.3-9.7l-1.6-1.4-3.7-3.2a.6.6 0 0 0-.3-.2h-.2c-.4.2-.4.4-.4.5 0 .1 0 .3.2.4 1 1 1.6 1.8 1.8 2.5.2.8.3 1.7.3 2.8v33.9c0 6 .7 6.7 4.3 9.7l1.6 1.3a345.1 345.1 0 0 1 4 3.5h.2c.3-.2.4-.4.4-.6l-.2-.3a6 6 0 0 1-1.8-2.5c-.3-.8-.4-1.7-.4-2.8v-.7l.1-7.6z" fill="#575353"/><path d="M368 380.6h.1c.4-.1.4-.4.4-.5 0-.1 0-.2-.2-.3a6 6 0 0 1-1.8-2.6c-.2-.7-.3-1.6-.3-2.5v-11.2l.3-3.1c.3-1.2.7-2.3 1.4-3.2.5-.5 1.2-1 2.1-1.1 1.4 0 2.5 1 3.4 1.9l.6.5 2.1 2 .4.1h.2c.4-.1.5-.4.5-.6l-.2-.4-8-7.2-1.4-1.3a7.7 7.7 0 0 0-4.4-2h-1a6 6 0 0 0-3.3 3.8c-.6 1.8-1 3.5-1 5v8.2c0 6 .8 6.7 4.4 9.7l1.6 1.4a380.8 380.8 0 0 1 4 3.4m1 6.4v-.3l-7.2-6.4a.6.6 0 0 0-.3-.2c-2.9 0-4.9 1.9-4.9 4.5.3 1.3.9 2.6 2 3.7 1 1.2 2 2.2 3.2 3.2l1.1 1 1 .8a66 66 0 0 0 6.2 5h.2c.3-.2.4-.4.4-.5l-.2-.3-1.5-1.3-2.5-2.2c-1.1-1.2-1.7-2.3-1.7-3.4l.1-.8c.4-1.3 1.6-2.1 3.7-2.3.4 0 .5-.4.5-.5" fill="#575353"/><path d="M124.5 284.3 305 93.8l180.6 190.5Z" fill="#e5dfd4"/><path d="m317.6 106.4 44.9 54.8h-115l45-54.8Z" fill="#00753c"/><path d="M422.5 223.6H183l-10 27.8h269.4Z" fill="#f59438"/><path d="M124.5 284.3 305 93.8l180.6 190.5Z" fill="none" stroke="#565453" stroke-width="18.2" stroke-linecap="round" stroke-linejoin="round" stroke-miterlimit="10"/><path d="M521.2 245.5h-420v96h420z" fill="#565453"/><path d="M183 266c-1-.9-1.6-2-2.2-3-.6 1.2-1.4 2.2-2.4 3.1v28.2h1.6c1 0 2 0 3 .2zm379.4 32.6c0 3.3-1.3 6.2-3.4 8.3v8.4c0 19.5-12 26.4-23.2 26.4h-18.3c-6.4 0-13-2.3-17.5-7.8a23 23 0 0 1-18.5 7.8h-18.1c-5 0-9.3-1.1-12.9-3.1-2 2-5 3.3-8 3.3h-11.9c-10 0-17-6.7-17-16.2v-15.2a20 20 0 0 1-8 1.6h-9.2v6.6c0 14-9.2 23-23.4 23h-18.1c-7.5 0-13.5-2.5-17.6-6.8l-.8.8c-3 2.7-8 5.9-16.2 5.9h-33.2c-3 0-5.9-1.2-8-3.2-3.6 2.1-8 3.3-13.1 3.3h-18.1a25 25 0 0 1-14-3.8 24.7 24.7 0 0 1-13.7 3.8h-37.6a24 24 0 0 1-13.7-3.8 25.2 25.2 0 0 1-14 3.8h-18c-5 0-9.5-1.1-13-3.2a12 12 0 0 1-8.1 3.2H104a16 16 0 0 1-13-6.4c-.8-1-1.5-2.3-3.5-6.4l-5-10.7-5.3 11a33 33 0 0 1-3.7 6.5 16 16 0 0 1-12.8 6H49a11.6 11.6 0 0 1-8-20v-78.2a11.6 11.6 0 0 1 8-20h11.8c10 0 17.1 7.3 17.1 17.7v12.2a11.6 11.6 0 0 1 9 .1v-12.3c0-10.4 7-17.6 17-17.6h11.9a11.6 11.6 0 0 1 8.1 19.8v5.8c3.6-2 8-3.2 13-3.2h33.6c4.5 0 8.4 2.6 10.3 6.3 2-3.7 5.8-6.2 10.3-6.2h20.7a11.6 11.6 0 0 1 8 20v28.4c1-.2 2-.2 3-.2h3.5a22 22 0 0 1-1.8-9v-16.1c0-14.1 9.2-23.2 23.4-23.2h33.6c1 0 2 .2 2.9.4l2.7-.3h12.4a16 16 0 0 1 11.7 4.5c2.9-2.9 7-4.5 11.8-4.5h12.4c2.8 0 5.4 1 7.4 2.6a26 26 0 0 1 12.1-2.7h33.6c3 0 5.9 1.2 8 3.2 3.4-2 7.6-3.1 12.5-3.1h18.3a23 23 0 0 1 18 7.4 23 23 0 0 1 18-7.5h31.3c1.6-16.4 12.6-22.4 22.9-22.4h18.3c11.2 0 23.2 7 23.2 26.7v21.2a28 28 0 0 1-4.7 16c4.7 1.5 8.1 6 8.1 11.1" fill="#575353"/><path d="M363.8 197.2c0-30.3-26-54.8-57.9-54.8-32 0-57.8 24.5-57.8 54.8 0 30.3 25.9 54.9 57.8 54.9 32 0 57.9-24.6 57.9-54.9" fill="#999281"/><path d="M363.8 197.2c0-30.3-26-54.8-57.9-54.8-32 0-57.8 24.5-57.8 54.8 0 30.3 25.9 54.9 57.8 54.9 32 0 57.9-24.6 57.9-54.9Z" fill="none" stroke="#575353" stroke-width="14" stroke-linecap="round" stroke-linejoin="round" stroke-miterlimit="10"/><path d="M248 197.2s70.3 19.1 83.6 49.2m-33.1-104a72 72 0 0 0 65.3 60.2M267.9 156s-3 17.7 24.6 34.5c27.6 16.9 62.3 36.1 62.3 36.1" fill="#999281" stroke="#575353" stroke-width="10" stroke-linecap="round" stroke-linejoin="round" stroke-miterlimit="10"/><path d="M267.8 240.8s13.2 13.5 33.7-5c20.6-18.4 30.7-63.7 56.3-60.1" fill="none" stroke="#575353" stroke-width="10" stroke-linecap="round" stroke-linejoin="round" stroke-miterlimit="10"/><path d="M115.8 331.8c-2.3 0-3.5-1.5-3.5-4.3v-86.3c0-3 1.2-4.4 3.5-4.4H104c-3.7 0-5.5 2-5.5 6V289c0 2.3-.6 3.4-2 3.4-1 0-2-1.2-3.2-3.6l-11-22.9-10.8 23c-1.1 2.3-2.2 3.5-3.2 3.5-1.3 0-2-1.1-2-3.4v-46c0-4-1.8-6-5.5-6H49c2.3 0 3.5 1.4 3.5 4.2v86.4c0 2.8-1.2 4.3-3.5 4.3h11.7c1.6 0 2.9-.6 3.7-1.7a4340.4 4340.4 0 0 0 18-37.2L98 325.7l2.3 4.4a4.3 4.3 0 0 0 3.7 1.8z" fill="#e5dfd4"/><path d="M115.8 331.8c-2.3 0-3.5-1.5-3.5-4.3v-86.3c0-3 1.2-4.4 3.5-4.4H104c-3.7 0-5.5 2-5.5 6V289c0 2.3-.6 3.4-2 3.4-1 0-2-1.2-3.2-3.6l-11-22.9-10.8 23c-1.1 2.3-2.2 3.5-3.2 3.5-1.3 0-2-1.1-2-3.4v-46c0-4-1.8-6-5.5-6H49c2.3 0 3.5 1.4 3.5 4.2v86.4c0 2.8-1.2 4.3-3.5 4.3h11.7c1.6 0 2.9-.6 3.7-1.7a4340.4 4340.4 0 0 0 18-37.2L98 325.7l2.3 4.4a4.3 4.3 0 0 0 3.7 1.8z" fill="none" stroke="#bf6148" stroke-width="3.3" stroke-miterlimit="10"/><path d="M152.8 276v15.4c-4.7-1.7-8-3.2-10-4.5-2.5-1.7-3.8-3.5-3.8-5.6v-5.2c0-2 1-3 3-3h7.7c2 0 3.1 1 3.1 3m17.7-16.8h-33.6c-8 0-11.8 3.8-11.8 11.5V287c0 4.5 2.4 8 7.2 10.2l13.3 4.5c4.8 1.9 7.2 4.6 7.2 8.3v5.2c0 2-1 3-3 3H142c-2 0-3-1-3-3v-2.4c0-3-1.7-4.6-5-5h-12.5c2.3 0 3.5 1.1 3.5 3.4v9.2c0 7.6 3.9 11.4 11.8 11.4h18c8 0 11.9-3.8 11.9-11.4v-57.6c0-2.3 1.2-3.5 3.7-3.5" fill="#e5dfd4"/><path d="M152.8 276v15.4c-4.7-1.7-8-3.2-10-4.5-2.5-1.7-3.8-3.5-3.8-5.6v-5.2c0-2 1-3 3-3h7.7c2 0 3.1 1 3.1 3Zm17.7-16.7h-33.6c-8 0-11.8 3.8-11.8 11.5V287c0 4.5 2.4 8 7.2 10.2l13.3 4.5c4.8 1.9 7.2 4.6 7.2 8.3v5.2c0 2-1 3-3 3H142c-2 0-3-1-3-3v-2.4c0-3-1.7-4.6-5-5h-12.5c2.3 0 3.5 1.1 3.5 3.4v9.2c0 7.6 3.9 11.4 11.8 11.4h18c8 0 11.9-3.8 11.9-11.4v-57.6c0-2.3 1.2-3.5 3.7-3.5z" fill="none" stroke="#bf6148" stroke-width="3.3" stroke-miterlimit="10"/><path d="M263.8 276v15.4c-4.7-1.7-8-3.2-10-4.5-2.5-1.7-3.8-3.5-3.8-5.6v-5.2c0-2 1-3 3.1-3h7.7c2 0 3 1 3 3m17.7-16.8H248c-7.9 0-11.8 3.8-11.8 11.5V287c0 4.5 2.4 8 7.2 10.2l13.3 4.5c4.8 1.9 7.2 4.6 7.2 8.3v5.2c0 2-1 3-3 3H253c-2 0-3-1-3-3v-2.4c0-3-1.7-4.6-5-5h-12.5c2.3 0 3.5 1.1 3.5 3.4v9.2c0 7.6 3.9 11.4 11.8 11.4h18c8 0 11.9-3.8 11.9-11.4v-57.6c0-2.3 1.2-3.5 3.7-3.5" fill="#e5dfd4"/><path d="M263.8 276v15.4c-4.7-1.7-8-3.2-10-4.5-2.5-1.7-3.8-3.5-3.8-5.6v-5.2c0-2 1-3 3.1-3h7.7c2 0 3 1 3 3Zm17.7-16.7H248c-7.9 0-11.8 3.8-11.8 11.5V287c0 4.5 2.4 8 7.2 10.2l13.3 4.5c4.8 1.9 7.2 4.6 7.2 8.3v5.2c0 2-1 3-3 3H253c-2 0-3-1-3-3v-2.4c0-3-1.7-4.6-5-5h-12.5c2.3 0 3.5 1.1 3.5 3.4v9.2c0 7.6 3.9 11.4 11.8 11.4h18c8 0 11.9-3.8 11.9-11.4v-57.6c0-2.3 1.2-3.5 3.7-3.5z" fill="none" stroke="#bf6148" stroke-width="3.3" stroke-miterlimit="10"/><path d="M318.1 310v5c0 2.1-1 3.1-3 3.1h-7.8c-2 0-3-1-3-3v-16c9.2 4.5 13.8 8.1 13.8 11m17.3-50.8H323c-3.2 0-4.9 1.6-4.9 4.8v16.3c0 2-1 3-3 3h-7.9c-2 0-3-1-3-3.2v-16c0-3.3-1.5-4.9-4.7-4.9H287c2.3 0 3.5 1.2 3.5 3.5v65.4c0 2.3-1.2 3.4-3.5 3.4h33.2c3.5 0 6.3-.9 8.3-2.8a11 11 0 0 0 3.3-8.5v-16.1a10 10 0 0 0-4.7-8.7c3.2-1.7 4.7-5 4.7-10v-22.7c0-2.3 1.2-3.5 3.5-3.5" fill="#e5dfd4"/><path d="M318.1 310v5c0 2.1-1 3.1-3 3.1h-7.8c-2 0-3-1-3-3v-16c9.2 4.5 13.8 8.1 13.8 11Zm17.3-50.7H323c-3.2 0-4.9 1.6-4.9 4.8v16.3c0 2-1 3-3 3h-7.9c-2 0-3-1-3-3.2v-16c0-3.3-1.5-4.9-4.7-4.9H287c2.3 0 3.5 1.2 3.5 3.5v65.4c0 2.3-1.2 3.4-3.5 3.4h33.2c3.5 0 6.3-.9 8.3-2.8a11 11 0 0 0 3.3-8.5v-16.1a10 10 0 0 0-4.7-8.7c3.2-1.7 4.7-5 4.7-10v-22.7c0-2.3 1.2-3.5 3.5-3.5z" fill="none" stroke="#bf6148" stroke-width="3.3" stroke-miterlimit="10"/><path d="M370.8 276v15.4c-4.7-1.7-8-3.2-10-4.5-2.5-1.7-3.7-3.5-3.7-5.6v-5.2c0-2 1-3 3-3h7.7c2 0 3 1 3 3m17.7-16.8H355c-7.9 0-11.8 3.8-11.8 11.5V287c0 4.5 2.4 8 7.2 10.2l13.3 4.5c4.8 1.9 7.2 4.6 7.2 8.3v5.2c0 2-1 3-3 3H360c-2 0-3-1-3-3v-2.4c0-3-1.7-4.6-5-5h-12.5c2.3 0 3.5 1.1 3.5 3.4v9.2c0 7.6 4 11.4 11.8 11.4H373c7.9 0 11.8-3.8 11.8-11.4v-57.6c0-2.3 1.2-3.5 3.7-3.5" fill="#e5dfd4"/><path d="M370.8 276v15.4c-4.7-1.7-8-3.2-10-4.5-2.5-1.7-3.7-3.5-3.7-5.6v-5.2c0-2 1-3 3-3h7.7c2 0 3 1 3 3Zm17.7-16.7H355c-7.9 0-11.8 3.8-11.8 11.5V287c0 4.5 2.4 8 7.2 10.2l13.3 4.5c4.8 1.9 7.2 4.6 7.2 8.3v5.2c0 2-1 3-3 3H360c-2 0-3-1-3-3v-2.4c0-3-1.7-4.6-5-5h-12.5c2.3 0 3.5 1.1 3.5 3.4v9.2c0 7.6 4 11.4 11.8 11.4H373c7.9 0 11.8-3.8 11.8-11.4v-57.6c0-2.3 1.2-3.5 3.7-3.5z" fill="none" stroke="#bf6148" stroke-width="3.3" stroke-miterlimit="10"/><path d="M442.4 332c-2.3 0-3.5-1.2-3.5-3.4V271c0-7.8-3.8-11.7-11.6-11.7H409c-7.7 0-11.6 4-11.6 11.7v27.7c0 2.3-1.2 3.4-3.5 3.4h11.8c3.7 0 5.5-1.6 5.5-4.8v-21.1c0-2 1-3 3-3h7.9c2 0 3 1 3 3v51.2c0 3 1.9 4.5 5.5 4.5z" fill="#e5dfd4"/><path d="M442.4 332c-2.3 0-3.5-1.2-3.5-3.4V271c0-7.8-3.8-11.7-11.6-11.7H409c-7.7 0-11.6 4-11.6 11.7v27.7c0 2.3-1.2 3.4-3.5 3.4h11.8c3.7 0 5.5-1.6 5.5-4.8v-21.1c0-2 1-3 3-3h7.9c2 0 3 1 3 3v51.2c0 3 1.9 4.5 5.5 4.5z" fill="none" stroke="#bf6148" stroke-width="3.3" stroke-miterlimit="10"/><path d="M479.3 276v15.4c-4.7-1.7-8-3.2-10-4.5-2.5-1.7-3.8-3.5-3.8-5.6v-5.2c0-2 1-3 3-3h7.7c2 0 3.1 1 3.1 3m17.7-16.8h-33.6c-8 0-11.8 3.8-11.8 11.5V287c0 4.5 2.4 8 7.1 10.2l13.4 4.5c4.8 1.9 7.2 4.6 7.2 8.3v5.2c0 2-1 3-3 3h-7.7c-2 0-3-1-3-3v-2.4c0-3-1.7-4.6-5-5H448c2.3 0 3.5 1.1 3.5 3.4v9.2c0 7.6 3.9 11.4 11.8 11.4h18c8 0 11.9-3.8 11.9-11.4v-57.6c0-2.3 1.2-3.5 3.7-3.5" fill="#e5dfd4"/><path d="M479.3 276v15.4c-4.7-1.7-8-3.2-10-4.5-2.5-1.7-3.8-3.5-3.8-5.6v-5.2c0-2 1-3 3-3h7.7c2 0 3.1 1 3.1 3Zm17.7-16.7h-33.6c-8 0-11.8 3.8-11.8 11.5V287c0 4.5 2.4 8 7.1 10.2l13.4 4.5c4.8 1.9 7.2 4.6 7.2 8.3v5.2c0 2-1 3-3 3h-7.7c-2 0-3-1-3-3v-2.4c0-3-1.7-4.6-5-5H448c2.3 0 3.5 1.1 3.5 3.4v9.2c0 7.6 3.9 11.4 11.8 11.4h18c8 0 11.9-3.8 11.9-11.4v-57.6c0-2.3 1.2-3.5 3.7-3.5z" fill="none" stroke="#bf6148" stroke-width="3.3" stroke-miterlimit="10"/><path d="M550.9 300.3H539c-3.7 0-5.5 2-5.5 6.3v3.4c0 2.7-1 4-3 4h-7.9c-2 0-3-1.3-3-4v-6.8c0-5.2 2.4-8.9 7.2-11.1l13.3-5.3c4.8-2.7 7.2-7.3 7.2-13.7V252c0-10.1-3.9-15.2-11.6-15.2h-18.3c-7.7 0-11.6 5-11.6 15.2v12c0 3-1 4.6-3.3 4.6h11.6c3.7 0 5.5-2.1 5.5-6.3v-3.5c0-2.7 1-4 3-4h7.9c2 0 3 1.3 3 4v6.8c0 5.2-2.4 8.9-7.2 11.2l-13.3 5.4c-4.8 2.7-7.2 7.2-7.2 13.5v21.2c0 10 3.9 14.9 11.6 14.9h18.3c7.7 0 11.6-5 11.6-14.9v-12c0-3 1.1-4.6 3.5-4.6" fill="#e5dfd4"/><path d="M550.9 300.3H539c-3.7 0-5.5 2-5.5 6.3v3.4c0 2.7-1 4-3 4h-7.9c-2 0-3-1.3-3-4v-6.8c0-5.2 2.4-8.9 7.2-11.1l13.3-5.3c4.8-2.7 7.2-7.3 7.2-13.7V252c0-10.1-3.9-15.2-11.6-15.2h-18.3c-7.7 0-11.6 5-11.6 15.2v12c0 3-1 4.6-3.3 4.6h11.6c3.7 0 5.5-2.1 5.5-6.3v-3.5c0-2.7 1-4 3-4h7.9c2 0 3 1.3 3 4v6.8c0 5.2-2.4 8.9-7.2 11.2l-13.3 5.4c-4.8 2.7-7.2 7.2-7.2 13.5v21.2c0 10 3.9 14.9 11.6 14.9h18.3c7.7 0 11.6-5 11.6-14.9v-12c0-3 1.1-4.6 3.5-4.6Z" fill="none" stroke="#bf6148" stroke-width="3.3" stroke-miterlimit="10"/><path d="M227.2 332c-2.3 0-3.4-1.1-3.4-3.4v-66.4c0-2.2 1.1-3.3 3.4-3.3h-11.4c-3.6 0-5.3 1.6-5.3 4.7v21.9c0 2-1 3-3 3h-12.2c-2 0-3-1-3-3v-22c0-3-1.7-4.6-5.2-4.6h-11.4c2.2 0 3.4 1.1 3.4 3.3v66.4c0 2.3-1.2 3.4-3.4 3.4h11.4c3.5 0 5.3-1.6 5.3-4.7v-21.8c0-2.1 1-3.1 3-3.1h12.2c2 0 2.9 1 2.9 3v22c0 3 1.8 4.6 5.3 4.6z" fill="#e5dfd4"/><path d="M227.2 332c-2.3 0-3.4-1.1-3.4-3.4v-66.4c0-2.2 1.1-3.3 3.4-3.3h-11.4c-3.6 0-5.3 1.6-5.3 4.7v21.9c0 2-1 3-3 3h-12.2c-2 0-3-1-3-3v-22c0-3-1.7-4.6-5.2-4.6h-11.4c2.2 0 3.4 1.1 3.4 3.3v66.4c0 2.3-1.2 3.4-3.4 3.4h11.4c3.5 0 5.3-1.6 5.3-4.7v-21.8c0-2.1 1-3.1 3-3.1h12.2c2 0 2.9 1 2.9 3v22c0 3 1.8 4.6 5.3 4.6z" fill="none" stroke="#bf6148" stroke-width="3.3" stroke-miterlimit="10"/></g></svg>