<svg xmlns="http://www.w3.org/2000/svg" id="Layer_1" width="542.92" height="475.141" data-name="Layer 1" version="1.1"><defs id="defs658"><style id="style656">.cls-1{stroke:#bf6148;stroke-width:3.31px;stroke-miterlimit:10;fill:#e5dfd4}.cls-5{stroke-width:10px;stroke:#575353;stroke-linecap:round;stroke-linejoin:round;fill:#999281}.cls-13,.cls-9{fill:#575353;stroke-width:0}.cls-13{fill:#00753c}</style></defs><g id="g744" transform="translate(-28.48 -49.069)"><g id="g672"><path id="path662" d="M399.28 175.57v-41.45h-22.34c-1.31-2.41-5.04-8.24-11.57-10.77h-.81c-6.53 2.53-10.26 8.36-11.57 10.77h-13.21l1.82-7.27s5.24-21-24.7-33.78c0-.13.02-.26.02-.4a5.39 5.39 0 0 0-3.12-4.88l-2.27-12.02-2.27 12.02a5.38 5.38 0 0 0-3.1 4.47c-32.13 12.69-26.67 34.59-26.67 34.59l1.82 7.27h-12.05c-1.31-2.41-5.04-8.24-11.57-10.77h-.81c-6.53 2.53-10.26 8.36-11.57 10.77h-22.07v41.45l-79.75 33.04v66.95h336.05v-66.95l-80.29-33.04z" style="fill:#575353;stroke:#00753e;stroke-width:9.90999985px;stroke-miterlimit:10"/><g id="g670"><path id="path664" d="M247.38 178.6v-17.49c-.2-3.5 5.26-6.11 5.26-6.11l5.17-2.23h.33l5.17 2.23s5.46 2.62 5.26 6.11v17.49" class="cls-13" style="fill:#00753c;stroke-width:0"/><path id="path666" d="M354.5 178.6v-17.49c-.2-3.5 5.26-6.11 5.26-6.11l5.17-2.23h.33l5.17 2.23s5.46 2.62 5.26 6.11v17.49" class="cls-13" style="fill:#00753c;stroke-width:0"/><path id="path668" d="M294.26 179.14h35.1v-24.4c.34-5.8-8.71-10.13-8.71-10.13l-8.56-3.69h-.55l-8.56 3.69s-9.05 4.33-8.71 10.13v24.4z" class="cls-13" style="fill:#00753c;stroke-width:0"/></g></g><path id="path674" d="M571.38 301.38c0-4.15-1.22-8.1-3.48-11.45v-5.2c0-24.45-16.12-35.39-32.1-35.39h-18.3c-1.02 0-2.06.05-3.12.14h-11.5c-3.59-9.32-12.63-15.95-23.2-15.95h-27.73a24.745 24.745 0 0 0-21.97-13.25h-8.19a24.723 24.723 0 0 0-13.31-19.22c-1.19-14.72-13.55-26.33-28.57-26.33H238.78c-14.92 0-27.21 11.46-28.54 26.04-7.55 3.64-12.92 10.96-13.91 19.5h-7.62c-9.45 0-17.78 5.27-21.97 13.25h-27.73c-10.51 0-19.51 6.56-23.14 15.81h-11.84c-.86 0-1.74.05-2.66.14h-.12c-1.04 0-2.04.18-2.97.52-5.74 1.3-10.8 4.56-14.39 9.3-.52.68-.98 1.37-1.48 2.22-.61-1.02-1.22-1.91-1.89-2.75-4.82-6.08-11.84-9.43-19.77-9.43H49.01c-11.32 0-20.53 9.21-20.53 20.53 0 4.18 1.23 8.15 3.53 11.52v71.92c-2.3 3.37-3.53 7.34-3.53 11.52 0 11.32 9.21 20.52 20.53 20.52h11.84c9.3 0 17.03-4.26 21.58-11.15 4.55 6.88 12.27 11.15 21.57 11.15h11.81c11.32 0 20.53-9.21 20.53-20.52 0-.48-.02-.96-.05-1.44h8.57l147.1 155.2c3.39 3.58 8.16 5.63 13.09 5.63s9.7-2.05 13.09-5.63l147.1-155.2h22.17c5.02 16.04 18.72 21.96 30.1 21.96h18.3c15.98 0 32.1-11.04 32.1-35.69V328.5c0-4.59-.72-8.97-2.12-13.01 3.52-3.72 5.61-8.72 5.61-14.13z" class="cls-13" style="fill:#00753c;stroke-width:0"/><g id="g742"><rect id="rect676" width="372.52" height="47.26" x="123.08" y="242.47" class="cls-9" rx="14.26" ry="14.26" style="fill:#575353;stroke-width:0"/><rect id="rect678" width="273.12" height="47.26" x="172.78" y="229.22" class="cls-9" rx="14.26" ry="14.26" style="fill:#575353;stroke-width:0"/><rect id="rect680" width="207.94" height="47.26" x="205.08" y="207.25" class="cls-9" rx="14.26" ry="14.26" style="fill:#575353;stroke-width:0"/><g id="g696"><path id="path682" d="M237.5 191.13h143.68c6.07 0 11 4.93 11 11v62.72H226.5v-62.72c0-6.07 4.93-11 11-11" style="fill:#e5dfd4;stroke:#565453;stroke-width:14.90999985px;stroke-linecap:round;stroke-linejoin:round"/><g id="g694"><path id="path684" d="M254.87 251.5c-1.9-.03-3.54-.53-4.92-1.54-1.35-1.01-2.07-2.37-2.13-4.09v-4.45c-.03-1.6-.03-3.2-.03-4.8 0-1.6 0-3.2.03-4.77 0-5.01-.13-7.74-.43-8.21-.3-.47-.56-.71-.82-.71-.69 0-1.87.74-3.61 2.22-.1.06-.2.09-.3.09-.1 0-.16-.03-.23-.06-.3-.15-.33-.36-.33-.44 0-.12.07-.24.16-.36.85-.8 2.04-1.78 3.51-2.96 2.99-2.4 5.91-4 7.78-4 .3 0 .56.03.85.09 1.12.3 1.67 1.6 1.67 3.88V239c0 2.28.98 3.83 2.92 4.66.89.3 1.71.45 2.46.45 1.97 0 3.64-1.01 5.02-3 1.9-2.79 2.99-5.54 3.28-8.3.29-2.76.46-4.71.46-5.84 0-2.96-.43-5.72-1.31-8.3-1.18-3.53-3.31-5.49-6.4-5.87-.49-.03-.95-.03-1.44-.03-2.79 0-5.35.3-7.71.89-.49.12-.99.24-1.54.39-2.63.8-4.56 1.04-5.45 1.04-.89 0-1.64-.15-2.36-.48-1.48-.86-2.23-1.78-2.23-2.79 0-.24.03-.47.13-.74.43-1.3 1.38-2.55 2.85-3.77 1.48-1.22 2.86-2.25 4.14-3.11.16-.09.3-.18.43-.27.13-.09.26-.15.39-.15.07 0 .13 0 .16.03.16.09.26.21.3.42.1 1.45.36 2.25.76 2.4.39.12.75.18 1.05.18.56 0 1.25-.12 2.1-.36.3-.06.59-.12.95-.21 2.59-.62 5.78-1.07 9.62-1.33 5.88.03 9.94 2.08 12.18 6.08 2.26 4 3.38 8.21 3.38 12.63 0 1.04-.07 2.11-.16 3.2-.59 5.66-2.56 10.38-5.91 14.11-2.79 2.85-6.3 5.52-10.53 7.98-2.53 1.63-5.42 2.52-8.73 2.61z" class="cls-9" style="fill:#575353;stroke-width:0"/><path id="path686" d="M306.17 228.1c0 .33-.03.68-.07 1.01-.49 2.76-1.97 5.28-4.4 7.56-2.4 2.28-5.05 3.86-7.91 4.77-.07.03-.13.03-.2.03-.23 0-.49-.09-.59-.42-.03-.09-.03-.15-.03-.21 0-.21.1-.39.53-.5 1.61-.56 2.69-1.99 3.25-3.41.43-.95.66-1.84.66-2.64 0-1.87-1.15-3.35-3.48-4.45a9.18 9.18 0 0 0-1.94-.21c-2.23 0-3.81.92-4.73 2.76a8.51 8.51 0 0 0-.98 3.94c0 1.1.23 2.19.66 3.32 1.15 2.43 2.89 4 5.19 4.74 1.21.39 2.53.56 3.87.56 1.15 0 2.36-.15 3.61-.42 1.74-.38 3.41-.98 4.96-1.78 2-1.04 3.31-1.81 4.92-3.32.13-.09.26-.15.39-.15.1 0 .39.03.52.36.03.03.03.09.03.15 0 .12-.07.24-.16.36-.1.09-.2.15-.3.24-.1.09-.16.18-.26.27-.46.44-.92.86-1.35 1.3-2.26 2.28-4.6 4.24-6.99 5.87-2.36 1.63-5.38 2.7-9.06 3.26-.82.12-1.64.18-2.43.18-2.43 0-4.73-.56-6.89-1.69-2.59-1.9-3.97-4.36-4.14-7.38.03-3.35.98-6.23 2.79-8.63 1.84-2.4 4.13-4.66 6.89-6.73 1.94-1.6 4.1-2.85 6.53-3.76 1.48-.5 2.95-.74 4.46-.74.66 0 1.71.12 3.12.32 1.41.21 2.53 1.39 3.28 3.56.16.62.23 1.25.23 1.87z" class="cls-9" style="fill:#575353;stroke-width:0"/><path id="path688" d="M317.98 236.2c0 2.13.3 4.77 1.71 6.55.49.59 1.25 1.13 2.07 1.16 1.44-.03 2.53-.95 3.41-1.87.2-.18.39-.36.56-.53.62-.53 1.22-1.07 1.81-1.63l.33-.3c.16-.12.3-.18.43-.18.07 0 .13 0 .2.03.43.12.46.44.46.56 0 .12-.07.24-.16.38l-7.91 7.18-1.54 1.36c-1.28 1.16-3.15 2.04-4.36 2.04-.33 0-.66-.06-.95-.15-1.54-.68-2.66-1.9-3.31-3.71-.62-1.81-.95-3.47-.95-4.95v-25.83c.03-6.08.76-6.7 4.33-9.7.46-.42.98-.86 1.58-1.36 1.21-1.1 2.46-2.19 3.68-3.29.13-.09.26-.15.36-.15.07 0 .13 0 .16.03.36.12.39.39.39.5 0 .09-.07.21-.16.33-1.02.92-1.61 1.78-1.84 2.55-.23.77-.33 1.69-.33 2.76v.68c0 2.52.03 5.07.07 7.65v19.87z" class="cls-9" style="fill:#575353;stroke-width:0"/><path id="path690" d="m333.74 231.54.16-.15c.95-.74 1.97-1.54 2.99-2.4 2.36-2.02 4.69-3.74 7.02-5.19 1.67-.95 3.08-1.42 4.17-1.42.85 0 1.54.3 2.04.89 1.15 1.34 1.71 3.35 1.71 6.08l-.23 10.11c0 .62.07 1.3.2 2.08.26 1.51 1.08 2.34 2.23 2.34.23 0 .46-.03.72-.06 1.08-.38 1.97-.98 2.72-1.81.16-.18.36-.36.53-.5.62-.53 1.21-1.07 1.81-1.63l.33-.3c.13-.12.26-.18.43-.18.07 0 .13 0 .2.03.39.12.46.44.46.56 0 .12-.07.24-.2.38-3.31 2.99-6.6 5.99-9.91 8.98-1.44 1.24-2.86 1.87-4.2 1.87h-.36c-1.48-.12-2.43-1.25-2.89-3.41-.1-.65-.13-1.63-.13-2.97v-.83l.1-5.25c.03-1.22.07-2.22.1-3 0-3.94-.46-5.96-1.35-5.99-.89-.03-1.35-.06-1.41-.06-1.71 0-4.1 1.25-7.22 3.74v8.39c-.03 6.08-.82 6.73-4.33 9.73-.49.39-1.02.86-1.61 1.36l-3.68 3.26c-.1.09-.23.15-.36.15-.03 0-.1 0-.16-.03-.36-.12-.39-.36-.39-.47 0-.09.07-.21.16-.33 1.02-.95 1.64-1.81 1.84-2.58.23-.74.33-1.66.33-2.76v-2.58c0-1.9-.03-3.82-.07-5.75v-25.53c.03-6.08.76-6.7 4.33-9.7.49-.42 1.02-.86 1.58-1.36 1.25-1.1 2.46-2.19 3.68-3.29.13-.09.26-.15.36-.15.07 0 .13 0 .16.03.36.12.39.39.39.5 0 .09-.07.21-.16.33-1.02.92-1.61 1.78-1.84 2.55-.23.77-.33 1.69-.33 2.76v.68c0 2.52.03 5.07.1 7.65v15.21z" class="cls-9" style="fill:#575353;stroke-width:0"/><path id="path692" d="M368.95 212.98c0 .12-.03.24-.13.33l-7.09 6.4c-.1.09-.23.15-.36.15-2.86 0-4.83-1.84-4.83-4.45.23-1.33.85-2.58 1.87-3.71 1.02-1.16 2.13-2.2 3.28-3.17.39-.33.75-.62 1.12-.95l.99-.89c1.81-1.69 3.81-3.32 5.94-4.89.1-.09.2-.12.3-.12.07 0 .13.03.2.06.3.12.33.33.33.42 0 .12-.07.24-.16.33-.49.41-.99.86-1.48 1.3-.92.74-1.77 1.48-2.53 2.22-1.12 1.19-1.67 2.31-1.67 3.38 0 .27.03.53.1.8.36 1.33 1.58 2.11 3.64 2.31.43 0 .49.36.49.47zm-1.02 6.41c.07 0 .13 0 .16.03.36.12.39.36.39.48s-.07.24-.2.36c-1.02.92-1.61 1.78-1.84 2.52-.2.74-.3 1.6-.3 2.58v.53c-.03.12-.03.24-.03.36l.1 9.96v.3c0 .98.1 2.02.3 3.11.23 1.22.69 2.25 1.38 3.14.53.59 1.21 1.13 2.1 1.16 1.41-.03 2.49-.95 3.41-1.87.16-.18.36-.36.56-.53l2.13-1.93c.13-.12.26-.18.43-.18.07 0 .13 0 .2.03.39.12.46.42.46.53 0 .15-.07.27-.2.42l-7.91 7.18-1.51 1.36c-1.28 1.16-3.15 2.04-4.36 2.04-.33 0-.66-.06-.95-.15-1.58-.68-2.69-1.9-3.35-3.71-.62-1.81-.95-3.47-.95-4.95v-8.27c.03-6.08.76-6.67 4.33-9.73.49-.39 1.02-.86 1.61-1.36 1.21-1.07 2.43-2.16 3.64-3.26.13-.09.26-.15.39-.15z" class="cls-9" style="fill:#575353;stroke-width:0"/></g></g><path id="polygon698" d="M485.58 315.7H124.47l180.56 190.49z" style="fill:#e5dfd4;stroke-width:0"/><path id="polygon700" d="m247.59 438.82 44.88 54.82h25.11l44.88-54.82z" class="cls-13" style="fill:#00753c;stroke-width:0"/><path id="polygon702" d="M173.05 348.58h269.38l-19.88 27.85H182.99z" style="fill:#f59438;stroke-width:0"/><path id="polygon704" d="M485.58 315.7H124.47l180.56 190.49z" style="fill:none;stroke:#565453;stroke-width:18.21999931px;stroke-linecap:round;stroke-linejoin:round"/><path id="rect706" d="M101.24 258.42h419.94v96.05H101.24z" style="fill:#565453;stroke-width:0"/><path id="path708" d="M562.45 301.38c0-3.25-1.33-6.18-3.48-8.28v-8.36c0-19.51-11.97-26.46-23.17-26.46h-18.3c-6.39 0-13.02 2.28-17.55 7.85-4.07-4.99-10.48-7.85-18.48-7.85h-18.11c-4.96 0-9.29 1.12-12.85 3.15a11.57 11.57 0 0 0-8.08-3.29h-11.81c-10.04 0-17.05 6.64-17.05 16.16v15.22c-2.31-1.04-4.97-1.6-7.88-1.6h-9.29v-6.65c0-13.96-9.19-22.98-23.4-22.98h-18.11c-7.44 0-13.48 2.49-17.57 6.84-.27-.28-.55-.57-.81-.81-2.91-2.69-8.09-5.89-16.18-5.89h-33.22c-3.08 0-5.88 1.21-7.96 3.17-3.62-2.14-8.06-3.32-13.16-3.32h-18.11c-5.47 0-10.18 1.34-13.92 3.78-3.7-2.44-8.35-3.78-13.74-3.78h-37.63c-5.37 0-10.01 1.34-13.7 3.77-3.74-2.43-8.45-3.77-13.91-3.77h-18.11c-5.05 0-9.44 1.16-13.04 3.25a11.526 11.526 0 0 0-8.04-3.25h-11.76c-5.27 0-9.89 2.27-13.02 6.41-.79 1.05-1.51 2.27-3.49 6.4l-5.04 10.69c-2.49-5.19-4.25-8.83-5.31-10.98-1.71-3.58-2.62-5.19-3.65-6.47-3.09-3.9-7.63-6.05-12.77-6.05H49.01c-6.4 0-11.6 5.19-11.6 11.6 0 3.27 1.35 6.22 3.53 8.33v78.3a11.55 11.55 0 0 0-3.53 8.33c0 6.4 5.19 11.6 11.6 11.6h11.84c10.05 0 17.07-7.25 17.07-17.63v-12.19c1.34.54 2.79.84 4.29.85 1.7.02 3.27-.34 4.74-.99v12.33c0 10.38 7.01 17.63 17.05 17.63h11.81c6.4 0 11.6-5.19 11.6-11.6 0-3.25-1.33-6.18-3.48-8.28v-5.78c3.58 2.08 7.96 3.23 12.97 3.23l33.63-.05c4.49 0 8.38-2.57 10.3-6.31a11.58 11.58 0 0 0 10.29 6.26h20.7c6.4 0 11.6-5.19 11.6-11.6 0-3.27-1.35-6.22-3.53-8.33v-28.46c.95.15 1.93.22 2.95.22h3.53a21.876 21.876 0 0 0-1.87 8.91v16.18c0 14.07 9.19 23.17 23.42 23.17l33.63-.05c.99 0 1.95-.14 2.87-.38.87.21 1.77.33 2.71.33h12.37c4.78 0 8.85-1.65 11.74-4.5 2.89 2.84 6.96 4.5 11.75 4.5h12.45c2.8 0 5.38-1 7.38-2.65 3.41 1.78 7.49 2.75 12.11 2.75l33.63-.05c3.05 0 5.82-1.2 7.89-3.13 3.49 1.98 7.72 3.08 12.56 3.08h18.35c7.67 0 13.84-2.71 17.89-7.43 4.09 4.78 10.35 7.53 18.15 7.53l31.19-.04c1.63 16.45 12.6 22.47 22.94 22.47h18.3c11.2 0 23.17-7.03 23.17-26.77v-21.15c0-6.18-1.6-11.64-4.63-16.07 4.7-1.48 8.11-5.87 8.11-11.06zm-379.47 32.65c-.89.87-1.63 1.89-2.2 3.01-.62-1.2-1.43-2.28-2.41-3.18v-28.11h1.66c1.02 0 2-.07 2.95-.22v28.51z" class="cls-9" style="fill:#575353;stroke-width:0"/><g id="g720"><ellipse id="ellipse710" cx="305.93" cy="402.77" rx="57.84" ry="54.83" style="fill:#999281;stroke:#575353;stroke-width:13.98999977px;stroke-linecap:round;stroke-linejoin:round"/><path id="path712" d="M248.09 402.77s70.17-19.11 83.54-49.14" class="cls-5" style="fill:#999281;stroke:#575353;stroke-width:10px;stroke-linecap:round;stroke-linejoin:round"/><path id="path714" d="M298.48 457.61s5.49-51.67 65.28-60.19" class="cls-5" style="fill:#999281;stroke:#575353;stroke-width:10px;stroke-linecap:round;stroke-linejoin:round"/><path id="path716" d="M267.85 444.03s-3.01-17.71 24.61-34.55c27.62-16.84 62.29-36.1 62.29-36.1" class="cls-5" style="fill:#999281;stroke:#575353;stroke-width:10px;stroke-linecap:round;stroke-linejoin:round"/><path id="path718" d="M267.76 359.24s13.26-13.52 33.78 4.93c20.52 18.45 30.69 63.77 56.27 60.16" style="fill:none;stroke:#575353;stroke-width:10px;stroke-linecap:round;stroke-linejoin:round"/></g><g id="g740"><path id="path722" d="M115.79 268.22c-2.29 0-3.45 1.44-3.48 4.32v86.32c0 2.88 1.16 4.32 3.48 4.32h-11.81c-3.64 0-5.46-2.01-5.46-6.04v-46.07c0-2.26-.66-3.39-1.98-3.39-1 0-2.09 1.19-3.25 3.58L82.24 334.2l-10.77-22.94c-1.12-2.38-2.18-3.58-3.17-3.58-1.34 0-2 1.13-2 3.39v46.07c0 4.02-1.82 6.04-5.47 6.04H48.99c2.35 0 3.53-1.44 3.53-4.32v-86.32c-.03-2.88-1.21-4.32-3.53-4.32h11.74c1.6 0 2.83.56 3.71 1.69.34.42 1.1 1.83 2.26 4.25 2.26 4.6 7.54 15.6 15.84 32.99L98 274.38c1.19-2.49 1.95-3.94 2.26-4.36.91-1.2 2.16-1.8 3.76-1.8h11.76z" class="cls-1" style="fill:#e5dfd4;stroke:#bf6148;stroke-width:3.30999994px;stroke-miterlimit:10"/><path id="path724" d="m170.49 340.71-33.63.05c-7.87 0-11.81-3.86-11.81-11.57v-16.18c0-4.55 2.4-7.95 7.2-10.21 4.45-1.5 8.91-3.01 13.36-4.52 4.8-1.88 7.2-4.63 7.2-8.23v-5.22c0-2.04-1.02-3.06-3.06-3.06h-7.67c-2.04 0-3.06 1.02-3.06 3.06v2.4c0 2.92-1.66 4.59-4.99 5.03h-12.47c2.32 0 3.48-1.16 3.48-3.48v-9.17c0-7.59 3.93-11.38 11.81-11.38h18.11c7.87 0 11.81 3.8 11.81 11.38v57.57c0 2.35 1.24 3.53 3.72 3.53zm-17.68-16.8v-15.29c-4.74 1.66-8.09 3.17-10.07 4.52-2.48 1.63-3.72 3.48-3.72 5.55v5.22c0 2.04 1.02 3.06 3.06 3.06h7.67c2.04 0 3.06-1.02 3.06-3.06z" class="cls-1" style="fill:#e5dfd4;stroke:#bf6148;stroke-width:3.30999994px;stroke-miterlimit:10"/><path id="path726" d="M235.27 292.49h-12.45c-3.21 0-4.81-1.6-4.81-4.8v-2.92c0-2.04-1.01-3.06-3.04-3.06h-3.65c-2.03 0-3.04 1.02-3.04 3.06v52.4c0 2.32 1.18 3.48 3.53 3.48h-20.7c2.32 0 3.48-1.16 3.48-3.48v-52.4c0-2.04-1.02-3.06-3.06-3.06h-3.62c-2.04 0-3.06 1.02-3.06 3.06v2.92c0 3.2-1.6 4.8-4.81 4.8h-12.5c2.35 0 3.53-1.16 3.53-3.48v-9.22c0-7.71 3.84-11.57 11.52-11.57h37.63c7.71 0 11.57 3.86 11.57 11.57v9.22c0 2.32 1.16 3.48 3.48 3.48z" class="cls-1" style="fill:#e5dfd4;stroke:#bf6148;stroke-width:3.30999994px;stroke-miterlimit:10"/><path id="path728" d="m281.51 340.71-33.63.05c-7.87 0-11.81-3.86-11.81-11.57v-16.18c0-4.55 2.4-7.95 7.2-10.21 4.45-1.5 8.91-3.01 13.36-4.52 4.8-1.88 7.2-4.63 7.2-8.23v-5.22c0-2.04-1.02-3.06-3.06-3.06h-7.67c-2.04 0-3.06 1.02-3.06 3.06v2.4c0 2.92-1.66 4.59-4.99 5.03h-12.47c2.32 0 3.48-1.16 3.48-3.48v-9.17c0-7.59 3.93-11.38 11.81-11.38h18.11c7.87 0 11.81 3.8 11.81 11.38v57.57c0 2.35 1.24 3.53 3.72 3.53zm-17.69-16.8v-15.29c-4.74 1.66-8.09 3.17-10.07 4.52-2.48 1.63-3.72 3.48-3.72 5.55v5.22c0 2.04 1.02 3.06 3.06 3.06h7.67c2.04 0 3.06-1.02 3.06-3.06z" class="cls-1" style="fill:#e5dfd4;stroke:#bf6148;stroke-width:3.30999994px;stroke-miterlimit:10"/><path id="path730" d="M335.41 340.66h-12.45c-3.21 0-4.81-1.6-4.81-4.79v-16.29c0-2.03-1.01-3.05-3.05-3.05h-7.88c-1.97 0-2.95 1.1-2.95 3.29v16.06c0 3.19-1.6 4.79-4.8 4.79H287.1c2.32 0 3.48-1.16 3.48-3.48v-65.34c0-2.32-1.16-3.48-3.48-3.48h33.22c3.51 0 6.28.94 8.32 2.82 2.19 2.01 3.29 4.84 3.29 8.51v16.12c0 3.57-1.57 6.46-4.7 8.65 3.14 1.76 4.7 5.12 4.7 10.11v22.61c0 2.32 1.16 3.48 3.48 3.48zm-17.26-50.71v-5.03c0-2.04-1.01-3.06-3.04-3.06h-7.8c-2.02 0-3.04 1.02-3.04 3.06v15.9c9.25-4.42 13.88-8.04 13.88-10.86z" class="cls-1" style="fill:#e5dfd4;stroke:#bf6148;stroke-width:3.30999994px;stroke-miterlimit:10"/><path id="path732" d="m388.52 340.71-33.63.05c-7.87 0-11.81-3.86-11.81-11.57v-16.18c0-4.55 2.4-7.95 7.2-10.21 4.45-1.5 8.91-3.01 13.36-4.52 4.8-1.88 7.2-4.63 7.2-8.23v-5.22c0-2.04-1.02-3.06-3.06-3.06h-7.67c-2.04 0-3.06 1.02-3.06 3.06v2.4c0 2.92-1.66 4.59-4.99 5.03H339.6c2.32 0 3.48-1.16 3.48-3.48v-9.17c0-7.59 3.94-11.38 11.81-11.38H373c7.87 0 11.81 3.8 11.81 11.38v57.57c0 2.35 1.24 3.53 3.72 3.53zm-17.69-16.8v-15.29c-4.74 1.66-8.09 3.17-10.07 4.52-2.48 1.63-3.72 3.48-3.72 5.55v5.22c0 2.04 1.02 3.06 3.06 3.06h7.67c2.04 0 3.06-1.02 3.06-3.06z" class="cls-1" style="fill:#e5dfd4;stroke:#bf6148;stroke-width:3.30999994px;stroke-miterlimit:10"/><path id="path734" d="M442.43 268.08c-2.32 0-3.48 1.1-3.48 3.29v57.67c0 7.75-3.87 11.62-11.62 11.62h-18.35c-7.72 0-11.57-3.87-11.57-11.62v-27.71c0-2.32-1.18-3.48-3.53-3.48h11.81c3.67 0 5.5 1.6 5.5 4.8v21.17c0 2.04 1.02 3.06 3.06 3.06h7.85c2.04 0 3.06-1.02 3.06-3.06v-51.18c0-3.04 1.82-4.56 5.46-4.56z" class="cls-1" style="fill:#e5dfd4;stroke:#bf6148;stroke-width:3.30999994px;stroke-miterlimit:10"/><path id="path736" d="m496.99 340.71-33.63.05c-7.87 0-11.81-3.86-11.81-11.57v-16.18c0-4.55 2.4-7.95 7.2-10.21 4.45-1.5 8.91-3.01 13.36-4.52 4.8-1.88 7.2-4.63 7.2-8.23v-5.22c0-2.04-1.02-3.06-3.06-3.06h-7.67c-2.04 0-3.06 1.02-3.06 3.06v2.4c0 2.92-1.66 4.59-4.99 5.03h-12.46c2.32 0 3.48-1.16 3.48-3.48v-9.17c0-7.59 3.94-11.38 11.81-11.38h18.11c7.87 0 11.81 3.8 11.81 11.38v57.57c0 2.35 1.24 3.53 3.72 3.53zm-17.69-16.8v-15.29c-4.74 1.66-8.09 3.17-10.07 4.52-2.48 1.63-3.72 3.48-3.72 5.55v5.22c0 2.04 1.02 3.06 3.06 3.06h7.67c2.04 0 3.06-1.02 3.06-3.06z" class="cls-1" style="fill:#e5dfd4;stroke:#bf6148;stroke-width:3.30999994px;stroke-miterlimit:10"/><path id="path738" d="M550.85 299.73h-11.79c-3.65 0-5.47-2.12-5.47-6.35v-3.39c0-2.67-1.01-4.01-3.04-4.01h-7.8c-2.03 0-3.04 1.34-3.04 4.01v6.85c0 5.14 2.39 8.84 7.18 11.1 4.44 1.73 8.88 3.48 13.29 5.24 4.79 2.75 7.18 7.32 7.18 13.69v21.15c0 10.11-3.86 15.17-11.57 15.17h-18.3c-7.72 0-11.57-5.06-11.57-15.17v-11.96c0-3.08-1.1-4.62-3.29-4.62h11.6c3.65 0 5.47 2.11 5.47 6.32v3.47c0 2.68 1.01 4.03 3.04 4.03h7.8c2.02 0 3.04-1.34 3.04-4.01v-6.85c0-5.14-2.39-8.86-7.18-11.17-4.45-1.81-8.88-3.6-13.29-5.37-4.79-2.75-7.18-7.26-7.18-13.51v-21.23c0-9.91 3.86-14.87 11.57-14.87h18.3c7.71 0 11.57 4.95 11.57 14.86v12.02c0 3.08 1.16 4.62 3.48 4.62z" class="cls-1" style="fill:#e5dfd4;stroke:#bf6148;stroke-width:3.30999994px;stroke-miterlimit:10"/></g></g></g></svg>