<svg xmlns="http://www.w3.org/2000/svg" id="Layer_1" width="373.15" height="371.06" data-name="Layer 1" version="1.1"><defs id="defs4"><style id="style2">.cls-1{fill:#a1d297}.cls-2{fill:#163a1c}.cls-3{fill:#216935}.cls-4{fill:#fff}.cls-5{fill:#164923}</style></defs><path id="rect6" d="M0 153.06h373.15v74H0z" class="cls-1" style="fill:#a1d297"/><path id="rect8" d="M-371.06 148H0v74h-371.06z" class="cls-1" style="fill:#a1d297" transform="rotate(-90)"/><path id="path42" d="M24.2 182.06c0-89.33 72.67-162 162-162s162 72.67 162 162-72.68 162-162 162-162-72.73-162-162z" class="cls-4" style="fill:#fff"/><path id="path44" d="M103.55 285.73s.66-57.95 56-56.64H56.8l22.39 52.69" class="cls-2" style="fill:#163a1c"/><path id="path46" d="M268.84 285.73s-.65-57.95-56-56.64H315.6l-22.39 52.69" class="cls-2" style="fill:#163a1c"/><path id="rect48" d="M39.08 138.7h290.4v91.86H39.08z" class="cls-3" style="fill:#216935"/><path id="polygon50" d="m255.68 550.33 7.95 29.54-7.67 33.37-7.02-32.99z" class="cls-3" style="fill:#216935" transform="translate(-70 -316.94)"/><path id="polygon52" d="m282.14 565.79-2.76 19.88-18.77 24.3 11.04-32.58z" class="cls-3" style="fill:#216935" transform="translate(-70 -316.94)"/><path id="polygon54" d="m292.4 598.69-9.74 10.77-22.05 4.1 21.02-14.36z" class="cls-3" style="fill:#216935" transform="translate(-70 -316.94)"/><path id="polygon56" d="m230.84 565.79 2.76 19.88 18.77 24.3-11.04-32.58z" class="cls-3" style="fill:#216935" transform="translate(-70 -316.94)"/><path id="polygon58" d="m221.6 598.69 9.75 10.77 22.05 4.1-21.03-14.36z" class="cls-3" style="fill:#216935" transform="translate(-70 -316.94)"/><path id="rect60" d="M184.71 299.7h3.59v23.08h-3.59z" class="cls-3" style="fill:#216935"/><path id="polygon62" d="m236.25 621.51 8.21-.26 7.43-5.13-12.05.51z" class="cls-3" style="fill:#216935" transform="translate(-70 -316.94)"/><path id="polygon64" d="m276.52 621.51-8.2-.26-7.44-5.13 12.06.51z" class="cls-3" style="fill:#216935" transform="translate(-70 -316.94)"/><path id="rect66" d="M104.21 88.17h13.21v23.05h-13.21z" class="cls-1" style="fill:#a1d297"/><path id="polygon68" d="M203.87 393.12v67.14h13.51v-67.14l-6.13-3.96z" class="cls-1" style="fill:#a1d297" transform="translate(-70 -316.94)"/><path id="rect70" d="M162 61.77h13.21v48.46H162z" class="cls-1" style="fill:#a1d297"/><path id="rect72" d="M194.41 65.03h24.06v83.2h-24.06z" class="cls-1" style="fill:#a1d297"/><path id="rect74" d="M232.73 83.13h19.17v61.91h-19.17z" class="cls-1" style="fill:#a1d297"/><path id="polygon76" d="M336.83 413.94v54.44h18.67v-54.44l-8.92-2.96z" class="cls-1" style="fill:#a1d297" transform="translate(-70 -316.94)"/><path id="rect78" d="M213.49 104.41h34.08v47.17h-34.08z" class="cls-1" style="fill:#a1d297"/><path id="rect80" d="M59.04 109.24h26.73v35.56H59.04z" class="cls-3" style="fill:#216935"/><path id="rect82" d="M85.11 96.07h21.07v47.41H85.11z" class="cls-1" style="fill:#a1d297"/><path id="rect84" d="M102.89 102.24h36.88v47.17h-36.88z" class="cls-1" style="fill:#a1d297"/><path id="rect86" d="M144.38 84.21h28.98v59.93h-28.98z" class="cls-1" style="fill:#a1d297"/><path id="rect88" d="M172.04 107.26h37.54v46.1h-37.54z" class="cls-1" style="fill:#a1d297"/><path id="rect90" d="M212.21 129.65h123.73v25.68H212.21z" class="cls-3" style="fill:#216935"/><path id="rect92" d="M243.16 117.8h74.41v27h-74.41z" class="cls-3" style="fill:#216935"/><path id="polyline94" d="m155.77 405.77 32.93 30.29 56.63-33.59 46.76 35.56 28.32-31.61 30.29 29.64 26.34-11.86 27.66 44.13H114.94l27-55.32" class="cls-5" style="fill:#164923" transform="translate(-70 -316.94)"/><path id="polygon96" d="m248.71 424.66 8.58 10.15.37-11.85 9.78 3.27-23.19-17.03-1.05 1.95-.72 23.2z" class="cls-4" style="fill:#fff" transform="translate(-70 -316.94)"/><path id="polygon98" d="m186.92 437.46-31.17-29.66 1.36-1.43 30.08 28.62 58.73-35.54 46.1 37.72 28.3-32.16 32.87 30.04 19.16-8.62.81 1.8-20.35 9.16-32.32-29.55-28.62 33.23-46.14-39.19z" class="cls-4" style="fill:#fff" transform="translate(-70 -316.94)"/><path id="line100" d="M57.78 150.4h259.8" style="fill:none;stroke:#163a1c;stroke-width:6.90999985px;stroke-miterlimit:10"/><path id="path102" d="M24.2 182.06c0-89.33 72.67-162 162-162s162 72.67 162 162-72.68 162-162 162-162-72.73-162-162zm29.63 0c0 73 59.38 132.36 132.37 132.36 72.99 0 132.36-59.43 132.36-132.36S259.18 49.64 186.2 49.64c-72.98 0-132.37 59.42-132.37 132.42z" class="cls-3" style="fill:#216935"/><path id="polygon104" d="m156.25 423.29 2.6 10.39-6.15-6.56-2.87 8.61-1.23-12.71 6.15-9.02 13.53 12.71z" class="cls-4" style="fill:#fff" transform="translate(-70 -316.94)"/><path id="polygon106" d="m323.86 424.86 4.94 6.92v-4.45h5.43l-14.32-12.35v19.76z" class="cls-4" style="fill:#fff" transform="translate(-70 -316.94)"/><path id="polyline108" d="m186.92 437.46 13.22 11.85-9.63-15.31" class="cls-4" style="fill:#fff" transform="translate(-70 -316.94)"/><path id="polyline110" d="m290.88 440.08 14.95 10.71-10.61-15.31" class="cls-4" style="fill:#fff" transform="translate(-70 -316.94)"/><path id="polyline112" d="m352.81 437.39 7.85 4.27-3.46-6.92" class="cls-4" style="fill:#fff" transform="translate(-70 -316.94)"/><path id="path114" d="M78.65 212.4h-13v-43.73h13c29.11 0 29.11 43.73 0 43.73zm-4.28-35v26.26h4.28c17 0 17-26.24 0-26.24z" class="cls-5" style="fill:#164923"/><path id="path116" d="M111.74 212.4v-43.73h21.9v8.75h-13.16v8.74H132v8.75h-11.5v8.75h13.89v8.74z" class="cls-5" style="fill:#164923"/><path id="path118" d="M154.37 212.4h-8.75v-44.65H148l22 25.69v-24.71h8.8v44.59h-2.32l-22.14-24.71z" class="cls-5" style="fill:#164923"/><path id="path120" d="m205.32 213.32-18.11-44.65h10.09l5.82 14.56 3.18 9.05 3.12-8.75 5.87-14.86h10.09l-18.1 44.65z" class="cls-5" style="fill:#164923"/><path id="path122" d="M233.76 212.4v-43.73h21.9v8.75h-13.15v8.74H254v8.75h-11.49v8.75h13.88v8.74z" class="cls-5" style="fill:#164923"/><path id="path124" d="m289.42 212.4-8.81-16.69h-4.22v16.69h-8.75v-43.73h17.25c15.6 0 17.13 22 4.28 25.69l10.16 18zm-13-25.2h7.71c5.93 0 5.93-9.78 0-9.78h-7.71z" class="cls-5" style="fill:#164923"/><path id="path126" d="M83.59 212.4h-13v-43.73h13c29.12 0 29.12 43.73 0 43.73zm-4.28-35v26.26h4.28c17 0 17-26.24 0-26.24z" class="cls-4" style="fill:#fff"/><path id="path128" d="M116.68 212.4v-43.73h21.9v8.75h-13.15v8.74h11.5v8.75h-11.5v8.75h13.88v8.74z" class="cls-4" style="fill:#fff"/><path id="path130" d="M159.31 212.4h-8.75v-44.65h2.33L175 193.44v-24.71h8.81v44.59h-2.33l-22.14-24.71z" class="cls-4" style="fill:#fff"/><path id="path132" d="m210.26 213.32-18.1-44.65h10.09l5.81 14.56 3.18 9.05 3.12-8.75 5.87-14.86h10.09l-18.1 44.65z" class="cls-4" style="fill:#fff"/><path id="path134" d="M238.7 212.4v-43.73h21.9v8.75h-13.15v8.74H259v8.75h-11.5v8.75h13.88v8.74z" class="cls-4" style="fill:#fff"/><path id="path136" d="m294.36 212.4-8.81-16.69h-4.22v16.69h-8.75v-43.73h17.25c15.6 0 17.13 22 4.29 25.69l10.15 18zm-13-25.2H289c5.93 0 5.93-9.78 0-9.78h-7.71z" class="cls-4" style="fill:#fff"/></svg>