<svg xmlns="http://www.w3.org/2000/svg" xmlns:xlink="http://www.w3.org/1999/xlink" id="Layer_1" data-name="Layer 1" version="1.1" width="408.522" height="242.129"><defs id="defs52"><linearGradient id="linear-gradient" x1="698.91" y1="562.05" x2="731.33" y2="562.05" gradientUnits="userSpaceOnUse"><stop offset="0" stop-color="#fff" id="stop4"/><stop offset=".07" stop-color="#fafbfd" id="stop6"/><stop offset=".68" stop-color="#cfd8e7" id="stop8"/><stop offset="1" stop-color="#bfcadf" id="stop10"/></linearGradient><linearGradient id="linear-gradient-2" x1="746.34" y1="562.1" x2="773.9" y2="562.1" xlink:href="#linear-gradient"/><linearGradient id="linear-gradient-3" x1="785.91" y1="562.05" x2="816.89" y2="562.05" xlink:href="#linear-gradient"/><linearGradient id="linear-gradient-4" x1="234.43" y1="456.21" x2="323.84" y2="456.21" gradientUnits="userSpaceOnUse"><stop offset="0" stop-color="#bac4d8" stop-opacity="0" id="stop15"/><stop offset="1" stop-color="#bfcadf" id="stop17"/></linearGradient><linearGradient id="linear-gradient-5" x1="-45.16" y1="382.79" x2="-18.78" y2="356.41" gradientTransform="rotate(4.18 4296.976 2829.329)" xlink:href="#linear-gradient-4"/><linearGradient id="linear-gradient-6" x1="342.58" y1="492.51" x2="436.7" y2="492.51" gradientUnits="userSpaceOnUse" gradientTransform="translate(-47.37 -395.52)"><stop offset="0" stop-color="#bac4d8" stop-opacity="0" id="stop21"/><stop offset=".12" stop-color="#bbc5d9" stop-opacity=".19" id="stop23"/><stop offset=".29" stop-color="#bcc7db" stop-opacity=".43" id="stop25"/><stop offset=".45" stop-color="#bdc8dc" stop-opacity=".64" id="stop27"/><stop offset=".61" stop-color="#bec9de" stop-opacity=".79" id="stop29"/><stop offset=".76" stop-color="#bfc9de" stop-opacity=".91" id="stop31"/><stop offset=".89" stop-color="#bfcadf" stop-opacity=".98" id="stop33"/><stop offset="1" stop-color="#bfcadf" id="stop35"/></linearGradient><linearGradient id="linear-gradient-7" x1="46.75" y1="477.43" x2="46.75" y2="428.57" gradientTransform="rotate(4.18 -1098.387 3676.108)" gradientUnits="userSpaceOnUse"><stop offset="0" stop-color="#fff" id="stop38"/><stop offset="1" stop-color="#bfcadf" stop-opacity=".9" id="stop40"/></linearGradient><linearGradient id="linear-gradient-8" x1="-99.61" y1="433.76" x2="-81.84" y2="415.99" xlink:href="#linear-gradient-7" gradientTransform="translate(-47.37 -395.52)"/><linearGradient id="linear-gradient-9" x1="396.05" y1="892.38" x2="422.33" y2="892.38" xlink:href="#linear-gradient"/><linearGradient id="linear-gradient-10" x1="451.67" y1="882.46" x2="474.2" y2="882.46" xlink:href="#linear-gradient"/><linearGradient id="linear-gradient-11" x1="503.74" y1="876.54" x2="529.2" y2="876.54" xlink:href="#linear-gradient"/><linearGradient id="linear-gradient-12" x1="558.84" y1="874.86" x2="586.21" y2="874.86" xlink:href="#linear-gradient"/><linearGradient id="linear-gradient-13" x1="615.84" y1="876.77" x2="642.41" y2="876.77" xlink:href="#linear-gradient"/><linearGradient id="linear-gradient-14" x1="671.95" y1="882.5" x2="695.88" y2="882.5" xlink:href="#linear-gradient"/><linearGradient id="linear-gradient-15" x1="723.75" y1="890.42" x2="748.87" y2="890.42" xlink:href="#linear-gradient"/><linearGradient id="linear-gradient-16" x1="488.66" y1="1264.42" x2="539.66" y2="1264.42" xlink:href="#linear-gradient"/><linearGradient xlink:href="#linear-gradient-4" id="linearGradient1149" gradientUnits="userSpaceOnUse" x1="234.43" y1="456.21" x2="323.84" y2="456.21" gradientTransform="translate(-47.37 -395.52)"/><linearGradient xlink:href="#linear-gradient-7" id="linearGradient1151" gradientUnits="userSpaceOnUse" gradientTransform="rotate(4.18 4296.976 2829.329)" x1="46.75" y1="477.43" x2="46.75" y2="428.57"/><style id="style2">.cls-1{fill:#7190c9}.cls-8{fill:#0b1433}.cls-3{fill:#fff}.cls-9{fill:#1d305e}.cls-10{fill:#3b60ad}</style></defs><path class="cls-1" d="M349.88 13.83c-102.61-28.35-221.25-4.62-230.31-2.84h-.16c-.58.14-.55.14 0 0 .32 1.27 25.37 100.22 114.4 231.14.01.03 84-123.19 116.07-228.3z" id="path54" style="fill:#7190c9"/><path class="cls-1" id="polyline81" style="fill:#7190c9" transform="translate(-47.37 -395.52)" d="m128.71 447.6-81.34-12.31 49.69 29.5 13.46 3.62"/><path class="cls-1" d="M407.36 116.68c2.95-6.08-.11-12.12-4.77-15.05-3.79-2.72-34.19-23.09-103.18-30.12a17.93 17.93 0 0 1-6.12-1.79l-28.35-26-1-.45c-1.09-.5-27.15-12.18-71.37-11a204.86 204.86 0 0 0-62.27 3.37H31.2l49.36 16.45-3.76 1.39a21.47 21.47 0 0 0-14.17 9c-.94 1.18-3.42 4.34-5 6.85L5.88 60.56 67 101.02l10.5 5.37a57.34 57.34 0 0 0 1 15.7c2.67 12 9.52 16.35 14.8 17.84l.67.19.7.05a45.37 45.37 0 0 1 5 .81 33.8 33.8 0 0 0 13.33 0c5.64-1.14 10.25-4.86 13.06-10.43l71.57 25.05c2.2 8.13 9.29 26.22 29.41 30.72 2.69.74 10.67 1.15 17.1 1.15a44.13 44.13 0 0 0 11.88-1.56l1-.37a31.91 31.91 0 0 0 16.28-14.86h.06c.8.24 20 5.83 50.89-1.55l15.07-3.86c7.16 2.53 25.91 6.94 38.66-9.88l9.46-2.42 5.24-7.33 8.2-1.91.69-.33a12.08 12.08 0 0 0 6.28-8.18c.82-3.75-.1-7.73-2.72-11.87z" id="path83" style="fill:#7190c9"/><path class="cls-8" d="M403.77 115.2c1.38-2.67 1.55-7.35-3.34-10.35-2.46-1.78-32.21-22.43-101.48-29.48-2.55-.31-7-1.43-8.4-2.9L262.77 47l-.44-.2c-1.06-.48-26.44-11.84-69.94-10.65a199.86 199.86 0 0 0-61.67 3.33h-75.6l37.13 12.37-14.5 5.38a17.38 17.38 0 0 0-12.05 7.54 70.37 70.37 0 0 0-5.53 7.82l-.26.48-.06.55-36.56-6.14L69.11 97.8l12.44 6.33c-.74 7-1.71 28 12.73 32.08l.3.08h.3a44.63 44.63 0 0 1 5.49.87 29.91 29.91 0 0 0 11.81 0c6.13-1.23 9.88-6 11.65-11.5l77.1 27c1.35 6.16 7.16 25.54 27.11 29.92 1.29.45 7.94 1 16.13 1a40 40 0 0 0 10.83-1.41l.25-.07.22-.1a28.23 28.23 0 0 0 15.84-16.17l3.05 1.09h.15c.77.23 19 5.53 48.82-1.59l16.24-4.16c6.63 2.59 24.47 7.42 36.14-9.24l9.44-2.41 5.26-7.37 9.2-2.14.31-.15a8.21 8.21 0 0 0 4.18-5.5c.68-3.12-.41-6.63-3.22-10.44z" id="path85" style="fill:#0b1433"/><path class="cls-9" d="m66.91 74.31 220.94 49-3.75 14.29s-12.25-4-12.79 3.46l-.84 16.2s-8-2.28-12.51-5c0 0-1.78-26.55-20-31.61 0 0-22.53-11.47-31.86.38 0 0-4.89 2-6 21.91l-88.32-28.81s-.17-25.41-18-27.05c0 0-8.85-4-11.59 10.33-.04.07-16.47-6.93-15.28-23.1z" id="path87" style="fill:#1d305e"/><path class="cls-10" d="M117.93 86.34a64.35 64.35 0 0 1 13.62-19.58l-19.62-9.56s5.13-16 60.22-12.2l-8.85-3.76s-33.67-.76-56.78 13.53l-27.25 7.91s-9.34 3.81-12.36 11.63" id="path89" style="fill:#3b60ad"/><path class="cls-10" d="M121.7 86.87a53.73 53.73 0 0 1 13-18.35s14.08 8.9 49.37 9.2a39 39 0 0 0-5.67 21.93z" id="path91" style="fill:#3b60ad"/><path d="M194.69 73.27h81.78l-22.58-20.39s-31-7.59-62.12-3.69l-3.24.61s-1.7-.12-1.44 2.24z" id="path93" style="fill:#fff;stroke:#bfcadf;stroke-width:2.11999989px;stroke-miterlimit:10"/><path d="M194.69 73.27h81.78l-22.58-20.39s-31-7.59-62.12-3.69l-3.24.61s-1.7-.12-1.44 2.24z" id="path95" style="fill:url(#linearGradient1149)"/><path d="M129.82 55.58s20.85 16.38 52.28 15l-6.92-19.54s-29.81-4.99-45.36 4.54z" id="path97" style="fill:#fff;stroke:#bfcadf;stroke-width:2.17000008px;stroke-miterlimit:10"/><path d="M129.82 55.58s20.85 16.38 52.28 15l-6.92-19.54s-29.81-4.99-45.36 4.54z" id="path99" style="fill:url(#linear-gradient-5)"/><path class="cls-1" d="M179.44 89.05c-24.64-5.56-49.89-5.42-49.89-5.42q-3.07-.48-5.82-1a35 35 0 0 0-2 4.25l56.72 12.78a38.06 38.06 0 0 1 .99-10.61z" id="path101" style="fill:#7190c9"/><path class="cls-1" d="M120.13 81.88c-33.4-7.33-25.69-19.94-20.85-25l-20 5.81s-9.34 3.81-12.36 11.63l51 12a48.73 48.73 0 0 1 2.21-4.44z" id="path103" style="fill:#7190c9"/><path class="cls-3" id="polygon105" style="fill:#fff" transform="translate(-47.37 -395.52)" d="m175.97 476.44 11.52 1.79-1.54 4.39-10.68-1.67z"/><path class="cls-1" d="m200.42 80.18 86.73 1.77s64.32 2.68 102.18 26.78l-96.28 7.18" id="path107" style="fill:#7190c9"/><path class="cls-10" d="M182.15 100.69s.77-17.47 6.72-22.37c0 0 64.43 8 104.18 37.59l-5.2 7.41-98.56-19.57z" id="path109" style="fill:#3b60ad"/><path class="cls-1" d="m189.29 103.75 98.56 19.57.46-.66-74.83-19.68c-7.88-6-18.69-10.09-29.94-12.95a74.43 74.43 0 0 0-1.39 10.66z" id="path111" style="fill:#7190c9"/><path class="cls-3" id="polygon113" style="fill:#fff" transform="translate(-47.37 -395.52)" d="m407.03 539.42-24.55 2.9-1.73 8 25.42-3.77z"/><path class="cls-10" d="m276.32 142.12-.72 9.77 23.88-2.32 88.41-14.19s15.43-2.6 2.73-9.62l-4.94 2.72s1.63 5.54-9.9 5.71l-74.92 10.44s-7.75-.57-10.3-2.79c-2.55-2.22-14.24.28-14.24.28z" id="path115" style="fill:#3b60ad"/><path class="cls-9" id="polyline117" style="fill:#1d305e" transform="translate(-47.37 -395.52)" d="m342.94 533.63 87.81-10.51.19-2.7-88.52 11.14"/><path class="cls-3" d="M298.34 120.11c-1.59-.51-3.38.21-4.92 1.75l-3.05 12.34a4.28 4.28 0 0 0 2.57 2.76c2.85.91 6.36-2.12 7.85-6.78 1.49-4.66.39-9.16-2.45-10.07z" id="path119" style="fill:#fff"/><path d="m295.37 82.53-.16.35s43.87 3.93 54.83 28.58l39.29-2.73c-29.61-18.85-75.41-24.6-93.96-26.2z" id="path121" style="fill:url(#linear-gradient-6)"/><path class="cls-8" d="M232.08 82.32s37.95 9 53.38 18c0 0 18.36-1 46.4 9.15 0 0-17.11-13.78-32.25-17.43l-13.37 2.24S256 84.07 232.08 82.32z" id="path123" style="fill:#0b1433"/><path class="cls-8" d="M321.7 93.28a90.27 90.27 0 0 1 25.27 13.36l4.56.17s-10.26-10.23-19.42-14.63z" id="path125" style="fill:#0b1433"/><path class="cls-8" d="m281.55 89.08 16.64-.65s2.13-1.36.34-2.34c-1.79-.98-1.78-1.15-4.15-1.15l-11.88.48s-3.05-.05-3.16 1.46c-.11 1.51.18 2.22 2.21 2.2z" id="path127" style="fill:#0b1433"/><path class="cls-3" d="M379.7 124.62s1.79-8.34 4.84-10.65c3.05-2.31 3.91-.22 3.74 2.13-.17 2.35-.21 5.26-1.62 7.33-1.56 2.31-4.93 3.54-6.96 1.19z" id="path129" style="fill:#fff"/><path class="cls-3" d="m315.93 118.14-6.23.22a7.32 7.32 0 0 0-1.65 4.24c-.25 3.44 1.66 6.38 4.26 6.57 2.6.19 4.92-2.44 5.17-5.88a7 7 0 0 0-1.55-5.15z" id="path131" style="fill:#fff"/><path class="cls-3" d="m371.77 114.1-6.24.22a7.45 7.45 0 0 0-1.65 4.23c-.25 3.44 1.66 6.39 4.27 6.58 2.61.19 4.91-2.45 5.17-5.89a7.06 7.06 0 0 0-1.55-5.14z" id="path133" style="fill:#fff"/><path d="M211.53 144.75s4.39-25.25 23.89-18.74c19.5 6.51 15.64 29.25 15.13 31.58-.51 2.33-6.26 18.51-21.17 16.23-14.91-2.28-19.3-20.88-17.85-29.07z" id="path135" style="fill:url(#linearGradient1151)"/><path class="cls-8" d="M216.82 144.24s.32 7.77 1.81 11.69l-1.58 2.43a14.24 14.24 0 0 0 8-6.4s1.72-4.45-2.34-6.27l-7.49-3.47z" id="path137" style="fill:#0b1433"/><path class="cls-8" d="m217.63 138.08 6.25 3.13s4.52 2.36 5.47-1.89l-2-9.54s.05-2.41-1.58-2.66l-.34 2.9s-5.11 2.17-6.6 6.88z" id="path139" style="fill:#0b1433"/><path class="cls-8" d="m231.1 129.54 2.27 8.93a3.41 3.41 0 0 0 3.85 3l5.73-5.42a2.38 2.38 0 0 0-.4-3.33s-5-4.69-9.43-4.76c0-.05-1.98-.7-2.02 1.58z" id="path141" style="fill:#0b1433"/><path class="cls-8" d="m245.45 139.99-4.55 4.87s-2.86 2.71-.39 5.31l5.12 4.31s2.84 2.75 3.53-1.39c0 0 .8-9.21-1.21-11.26.03 0-.79-2.73-2.5-1.84z" id="path143" style="fill:#0b1433"/><path class="cls-8" d="m240.23 155.74 4.48 3a3.46 3.46 0 0 1 1.69 4.7s-5.08 5.21-6.9 5.84c0 0-2.51 1.21-3.6-1.15l-.22-7.38s.12-6.86 4.55-5.01z" id="path145" style="fill:#0b1433"/><path class="cls-8" d="M231.1 171.2a12.24 12.24 0 0 0 1.74-8.13l-.66-3.22s-1.11-5.55-5.83-3.61l-6.13 5.78a48.09 48.09 0 0 0 4.47 4.77l5.06 2z" id="path147" style="fill:#0b1433"/><ellipse class="cls-3" cx="-132.967" cy="243.118" rx="4.9" ry="5.4" transform="rotate(-85.82)" id="ellipse149" style="fill:#fff"/><ellipse class="cls-8" cx="-136.879" cy="244.085" rx="1.77" ry="1.39" transform="rotate(-85.82)" id="ellipse151" style="fill:#0b1433"/><ellipse class="cls-8" cx="-132.394" cy="247.436" rx="1.84" ry="1.33" transform="rotate(-85.82)" id="ellipse153" style="fill:#0b1433"/><ellipse class="cls-8" cx="-126.115" cy="244.788" rx="1.65" ry="1.2" transform="rotate(-85.82)" id="ellipse155" style="fill:#0b1433"/><circle class="cls-8" cx="229.68" cy="143.789" r="1.65" id="circle157" style="fill:#0b1433"/><circle class="cls-8" cx="228.78" cy="149.879" r="1.71" id="circle159" style="fill:#0b1433"/><path d="M88.37 111.34s-.84-16.31 6.66-16.95c7.5-.64 9.23 12.7 8.67 20.28-.56 7.58-1.36 13.95-7.08 13.53-5.72-.42-7.8-6.83-8.25-16.86z" id="path161" style="fill:url(#linear-gradient-8)"/><ellipse class="cls-3" cx="-102.768" cy="106.325" rx="2.63" ry="2.04" transform="rotate(-85.82)" id="ellipse163" style="fill:#fff"/><path class="cls-8" d="M95.21 123.19s2.4-6.18.75-8c-1.65-1.82-5.05 1.92-5.11 2.67l2.56-.15s-1.54 2.51 1 3.29a13.29 13.29 0 0 1 .8 2.19z" id="path165" style="fill:#0b1433"/><path class="cls-8" d="m98.97 116.86-.94 5.94s-.56 3 1.11 2.2c1.67-.8 2.23-5.09 2.23-5.09l-1.26-2.43s-.25-1.15-1.14-.62z" id="path167" style="fill:#0b1433"/><path class="cls-8" d="m103.79 118.14-2-3.78s-1.58-5 2.1-6.79" id="path169" style="fill:#0b1433"/><path class="cls-8" d="m99.39 99.53-.4 5.48s-.27 1.42 1.18 1.27c1.45-.15 1.86-2.24 1.86-2.24s-1.28-4.49-2.64-4.51z" id="path171" style="fill:#0b1433"/><path class="cls-8" d="m96.85 104.17-.12-6.44a5.53 5.53 0 0 0-2.79 3.44c-.51 2.33 1.23 2.88 1.23 2.88s1.46 1.55 1.68.12z" id="path173" style="fill:#0b1433"/><path class="cls-8" d="m90.63 103.3 3.45 3.8s1.95 2.26.63 4.11l-2.47 2.45.21-6.34z" id="path175" style="fill:#0b1433"/></svg>