<svg xmlns="http://www.w3.org/2000/svg" xmlns:xlink="http://www.w3.org/1999/xlink" id="Layer_1" width="561.46" height="349.245" data-name="Layer 1" version="1.1"><defs id="defs765"><linearGradient id="linear-gradient" x1="366.02" x2="483.45" y1="157.63" y2="157.63" gradientUnits="userSpaceOnUse"><stop id="stop753" offset="0" stop-color="#999"/><stop id="stop755" offset="1" stop-color="#999" stop-opacity="0"/></linearGradient><linearGradient id="linear-gradient-2" x1="369.06" x2="487.79" y1="167.71" y2="167.71" gradientUnits="userSpaceOnUse"><stop id="stop758" offset=".01" stop-color="#2b2b2b"/><stop id="stop760" offset="1" stop-color="#2b2b2b" stop-opacity="0"/></linearGradient><linearGradient xlink:href="#linear-gradient" id="linear-gradient-3" x1="345.2" x2="462.63" y1="203.11" y2="203.11"/><linearGradient xlink:href="#linear-gradient-2" id="linear-gradient-4" x1="348.24" x2="466.97" y1="213.19" y2="213.19"/><linearGradient xlink:href="#linear-gradient" id="linearGradient8601" x1="366.02" x2="483.45" y1="157.63" y2="157.63" gradientUnits="userSpaceOnUse"/><linearGradient xlink:href="#linear-gradient-2" id="linearGradient8603" x1="369.06" x2="487.79" y1="167.71" y2="167.71" gradientUnits="userSpaceOnUse"/><style id="style751">.cls-2{stroke:#2b2b2b;stroke-linecap:round;stroke-linejoin:round}.cls-7{fill:#2b2b2b}.cls-13,.cls-14,.cls-16,.cls-7{stroke-width:0}.cls-18,.cls-2{stroke-width:9.51px;fill:none}.cls-18{stroke-miterlimit:10;stroke:#999;stroke-width:4.23px}.cls-13{fill:#d6d6d6}.cls-14{fill:#999}.cls-16{fill:#ffa400}</style></defs><g id="g900" transform="translate(-19.115 -132.28)"><path id="rect769" d="M262.89 136.69h126.25v106.56H262.89z" class="cls-7" style="fill:#2b2b2b;stroke-width:0"/><path id="path771" d="M532.27 163.6c-7.24-14.68-22.12-24.16-41.9-26.7l-.73-.09c-.64-.08-1.28-.12-1.92-.12H355.41a15.05 15.05 0 0 0-13.72 21.23l10.65 23.65c2.43 5.4 15.33 8.87 21.25 8.87h107.93c-.14.26-.28.52-.4.79l-30.8 65.38c-3.52 7.48-.35 16.4 7.1 19.98l21.16 10.15a15.054 15.054 0 0 0 11.55.61c3.78-1.34 6.86-4.14 8.57-7.77l30.28-64.27c3.79-7.13 14.03-29.96 3.3-51.72z" class="cls-7" style="fill:#2b2b2b;stroke-width:0"/><path id="path773" d="m485.08 273.17-21.16-10.15 30.8-65.38.22-.39c1.8-3.26 5.07-12.01 2.84-16.47-1.71-3.42-7.72-4.83-11.6-5.39H373.57l-10.65-23.65H487.7l.74.09c10.34 1.32 23.99 5.6 30.32 18.43 7.94 16.1-1.25 34.61-3.25 38.29l-30.45 64.63z" class="cls-13" style="fill:#d6d6d6;stroke-width:0"/><g id="g779"><path id="polygon775" d="M366.02 155.7h116.02l1.41 3.86H367.42z" style="fill:url(#linearGradient8601);stroke-width:0"/><path id="polygon777" d="M369.06 163.99h116.02l2.71 7.43H371.76z" style="fill:url(#linearGradient8603);stroke-width:0"/></g><path id="rect781" d="M313.6 205.04h41.89v28.45H313.6z" class="cls-7" style="fill:#2b2b2b;stroke-width:0"/><path id="path783" d="M511.45 209.08c-7.24-14.68-22.12-24.16-41.9-26.7l-.73-.09c-.64-.08-1.28-.12-1.92-.12H342.12a15.05 15.05 0 0 0-13.72 21.23l10.65 23.65c2.43 5.4 7.8 8.87 13.72 8.87H460.7c-.14.26-.28.52-.4.79l-30.8 65.38c-3.52 7.48-.35 16.4 7.1 19.98l21.16 10.15a15.054 15.054 0 0 0 11.55.61c3.78-1.34 6.86-4.14 8.57-7.77l30.28-64.27c3.79-7.13 14.03-29.96 3.3-51.72z" class="cls-7" style="fill:#2b2b2b;stroke-width:0"/><g id="g789"><path id="polygon785" d="M484.37 337.49H174.06l159.32 126.87z" style="fill:#2b2b2b;stroke:#2b2b2b;stroke-width:34.33000183px;stroke-linecap:round;stroke-linejoin:round"/><path id="polygon787" d="M484.37 337.49H174.06l159.32 126.87z" style="fill:#2b2b2b;stroke:#ffa400;stroke-width:5.1500001px;stroke-miterlimit:10"/></g><g id="g811"><g id="g795"><ellipse id="ellipse791" cx="331.82" cy="340.98" rx="96.2" ry="87.85" style="fill:#007681;stroke-width:0"/><path id="path793" d="M346.64 439.5h-30.37c-48.82 0-88.53-39.71-88.53-88.53v-21.44c0-48.82 39.71-88.53 88.53-88.53h30.37c48.82 0 88.53 39.71 88.53 88.53v21.44c0 48.82-39.71 88.53-88.53 88.53m-30.37-176.52c-36.7 0-66.55 29.86-66.55 66.56v21.44c0 36.7 29.86 66.56 66.55 66.56h30.37c36.7 0 66.55-29.86 66.55-66.56v-21.44c0-36.7-29.86-66.56-66.55-66.56z" class="cls-7" style="fill:#2b2b2b;stroke-width:0"/></g><path id="path797" d="M313.67 397.32s8.61-14.48 8.12-27.71c0 0 44.77 3.55 71.98-27.22l11.8-12.48v13.5s-1.65 41.12-49.96 55.66c0 0-24.91 3.09-41.95-1.74z" class="cls-14" style="fill:#999;stroke-width:0"/><g id="g809"><path id="path799" d="M336.51 401.67c39.27 0 71.23-31.95 71.23-71.23 0-39.27-31.95-71.23-71.23-71.23h-10.12c-39.27 0-71.23 31.95-71.23 71.23 0 39.27 31.95 71.23 71.23 71.23z" class="cls-2" style="fill:none;stroke:#2b2b2b;stroke-width:9.51000023px;stroke-linecap:round;stroke-linejoin:round"/><path id="path801" d="M405.57 312.99c-7.8-30.87-35.8-53.78-69.06-53.78h-10.12c-33.26 0-61.26 22.91-69.06 53.78 7.8 32.58 35.8 56.77 69.06 56.77h10.12c33.26 0 61.26-24.19 69.06-56.77" class="cls-2" style="fill:none;stroke:#2b2b2b;stroke-width:9.51000023px;stroke-linecap:round;stroke-linejoin:round"/><path id="path803" d="M291.14 392.95s32.18-20.77 13.94-65.02c-18.24-44.25-19.03-52.29-1.59-64.58" class="cls-2" style="fill:none;stroke:#2b2b2b;stroke-width:9.51000023px;stroke-linecap:round;stroke-linejoin:round"/><path id="path805" d="M371.77 392.95s-32.18-20.77-13.94-65.02c18.24-44.25 19.03-52.29 1.59-64.58" class="cls-2" style="fill:none;stroke:#2b2b2b;stroke-width:9.51000023px;stroke-linecap:round;stroke-linejoin:round"/><path id="line807" d="M332.26 259.21V400.6" class="cls-2" style="fill:none;stroke:#2b2b2b;stroke-width:9.51000023px;stroke-linecap:round;stroke-linejoin:round"/></g></g><path id="polygon813" d="M272.3 206.15h212.9v79.12H238.73z" class="cls-7" style="fill:#2b2b2b;stroke-width:0"/><path id="path815" d="M560.53 311.98a24.9 24.9 0 0 0 1.55-3.1l4.64-10.55.1-.25c2.33-5.67 1.94-11.65-1.1-16.84-3.04-5.2-7.84-8.07-13.51-8.07h-53.27l14.37-32.77h-50.09l-18.57 42.44c-.25-.55-.53-1.08-.84-1.6-3.04-5.2-7.81-8.07-13.41-8.07h-54.57l-5.14 11.89-5.66-3.68c-2.58-1.68-6.13-3.22-10.88-4.72-4.32-1.36-9.3-2.48-14.81-3.33-5.51-.85-11.01-1.28-16.35-1.28-6.04 0-11.8 1.08-17.13 3.23-.11.04-.22.09-.33.14l.97-2.25h-76.76c-.02-.3-.05-.59-.08-.89-.5-4.72-1.84-9.1-3.97-13.01a27.39 27.39 0 0 0-9.59-10.18c-4.1-2.57-8.58-3.88-13.34-3.88h-33.19l-4.99 4.68c-.56-.39-1.13-.77-1.71-1.12-3.92-2.36-8.25-3.56-12.88-3.56H39.08l-16.74 39.07h12.23l-8.7 19.91h12.47l-8.58 20.02h18.28l-8.95 20.8h110.6l1.57-3.65 41.03 25.72 11.88-27.06 2.54 4.32h91.83l.32-.74c2.57.52 5.22.94 7.87 1.24 8.86 1.02 17.43.85 25.25-.5h232.04l13.33-32.32-16.81-.04z" style="fill:#2b2b2b;stroke:#2b2b2b;stroke-width:6.44999981px;stroke-linecap:round;stroke-linejoin:round"/><path id="polygon817" d="m74.81 286.9-2.84 5.69H53.8l-5.9 12.51h18.3l-8.94 18.91h32.38l23.47-49.52H50.13l-5.97 12.41z" class="cls-13" style="fill:#d6d6d6;stroke-width:0"/><path id="path819" d="M218.24 270.72c-.31-2.66-1.12-5.09-2.41-7.24-1.26-2.1-3.09-3.85-5.43-5.19-2.34-1.33-4.9-2.01-7.63-2.01h-28.95l-9.95 8.48-1.07-1.63a15.175 15.175 0 0 0-5.44-5.03c-2.21-1.21-4.68-1.82-7.35-1.82H46.37l-5.9 12.51h95.57L110.01 324h32.38l21.6-45.58c.91-1.88 1.4-3.84 1.46-5.82l.05-1.67h22.31l-25.91 54.1 25.37 14.46 29.5-61.07c1.29-2.58 1.77-5.09 1.47-7.69z" class="cls-13" style="fill:#d6d6d6;stroke-width:0"/><path id="path821" d="M434.15 283.76c-.9-1.4-2.09-2.05-3.73-2.05h-16.3l-4.54 9.46h11.47l-3.56 7.52h11.85l5.11-10.61c.69-1.54.6-2.92-.3-4.33z" class="cls-13" style="fill:#d6d6d6;stroke-width:0"/><path id="path823" d="m513.92 316.89-.17-.03c-.56-.11-1.16-.37-1.82-.8-.63-.4-1.2-.93-1.69-1.55-.65-.82-.92-1.94-.82-3.42.08-1.23.46-2.59 1.16-4.15.23-.46.53-1.09.92-1.95l.46-1h29.88c2.13 0 4.04-.55 5.85-1.67 1.79-1.11 3.09-2.6 3.97-4.54l4.69-9.7c.69-1.53.6-2.91-.31-4.32-.9-1.4-2.12-2.05-3.84-2.05h-23.21l-4.54 9.46h7.5l-4.17 8.84H513.8l1.16-2.46c2.31-4.92 4.8-10.2 7.48-15.84h-24.45l-16.82 35.38h-17.62l31.44-65.17h-24.53l-31.27 64.97-39.76-.02-.5-.08c-.63-.04-1.28-.28-1.98-.73-.65-.42-1.23-.97-1.73-1.65-.63-.85-.88-1.97-.79-3.42.08-1.23.46-2.59 1.16-4.15 2.18-4.55 6.16-12.91 11.96-25.12H383.1l-16.87 35.48h-19.87l1.14-2.45c1.12-2.41 1.31-4.41.57-5.94-.85-1.76-2.38-3.44-4.54-4.99-2.32-1.66-4.7-3.1-7.08-4.28-2.58-1.27-4.74-2.61-6.42-3.97-3-2.42-2.57-4.63-2.05-5.74 2.79-5.35 12.54-1.88 19.63 1.19l6.55 3.23 3.59-7.4c-1.67-.78-3.94-1.58-6.78-2.4-3.81-1.09-8.26-2-13.23-2.69-4.98-.7-9.95-1.05-14.76-1.05-4.81 0-9.12.75-13.19 2.23-3.89 1.42-6.75 3.52-8.49 6.23-1.65 2.78-2.16 5.13-1.51 6.91.73 1.98 2.19 3.83 4.36 5.48 2.32 1.78 4.79 3.26 7.34 4.43 2.74 1.25 5.05 2.49 6.89 3.68 1.64 1.08 2.52 2.1 2.75 3.22.15.75 0 1.48-.42 2.13-.78 1.12-2.05 1.79-3.8 2.03-1.41.19-3.01.15-4.76-.11-1.63-.24-3.52-.63-5.6-1.15-2.08-.52-3.96-1.07-5.58-1.62-1.6-.54-3.26-1.12-5-1.74-1.62-.57-2.76-.98-3.41-1.23l-2.48 6.01h-18.69l16.88-35.48h-24.44l-16.78 35.48h-13.69l16.88-35.48H225.8l-16.81 35.36c.61.96 1.28 2.02 1.99 3.19.7 1.15 1.36 2.2 1.96 3.14h78.29l1.2-2.54 1.41.41c4.11 1.21 8.84 2.1 14.06 2.64 8.18.86 15.91.69 22.97-.49l.29-.02h225.41l2.91-6.42-45.59-.1z" class="cls-13" style="fill:#d6d6d6;stroke-width:0"/><path id="path825" d="m513.92 316.89-.17-.03c-.56-.11-1.16-.37-1.82-.8-.63-.4-1.2-.93-1.69-1.55-.65-.82-.92-1.94-.82-3.42.08-1.23.46-2.59 1.16-4.15.23-.46.53-1.09.92-1.95l.46-1h29.88c2.13 0 4.04-.55 5.85-1.67 1.79-1.11 3.09-2.6 3.97-4.54l4.69-9.7c.69-1.53.6-2.91-.31-4.32-.9-1.4-2.12-2.05-3.84-2.05h-23.21l-4.54 9.46h7.5l-4.17 8.84H513.8l1.16-2.46c2.31-4.92 4.8-10.2 7.48-15.84h-24.45l-16.82 35.38h-17.62l31.44-65.17h-24.53l-31.27 64.97-39.76-.02-.5-.08c-.63-.04-1.28-.28-1.98-.73-.65-.42-1.23-.97-1.73-1.65-.63-.85-.88-1.97-.79-3.42.08-1.23.46-2.59 1.16-4.15 2.18-4.55 6.16-12.91 11.96-25.12H383.1l-16.87 35.48h-19.87l1.14-2.45c1.12-2.41 1.31-4.41.57-5.94-.85-1.76-2.38-3.44-4.54-4.99-2.32-1.66-4.7-3.1-7.08-4.28-2.58-1.27-4.74-2.61-6.42-3.97-3-2.42-2.57-4.63-2.05-5.74 2.79-5.35 12.54-1.88 19.63 1.19l6.55 3.23 3.59-7.4c-1.67-.78-3.94-1.58-6.78-2.4-3.81-1.09-8.26-2-13.23-2.69-4.98-.7-9.95-1.05-14.76-1.05-4.81 0-9.12.75-13.19 2.23-3.89 1.42-6.75 3.52-8.49 6.23-1.65 2.78-2.16 5.13-1.51 6.91.73 1.98 2.19 3.83 4.36 5.48 2.32 1.78 4.79 3.26 7.34 4.43 2.74 1.25 5.05 2.49 6.89 3.68 1.64 1.08 2.52 2.1 2.75 3.22.15.75 0 1.48-.42 2.13-.78 1.12-2.05 1.79-3.8 2.03-1.41.19-3.01.15-4.76-.11-1.63-.24-3.52-.63-5.6-1.15-2.08-.52-3.96-1.07-5.58-1.62-1.6-.54-3.26-1.12-5-1.74-1.62-.57-2.76-.98-3.41-1.23l-2.48 6.01h-18.69l16.88-35.48h-24.44l-16.78 35.48h-13.69l16.88-35.48H225.8l-16.81 35.36c.61.96 1.28 2.02 1.99 3.19.7 1.15 1.36 2.2 1.96 3.14h78.29l1.2-2.54 1.41.41c4.11 1.21 8.84 2.1 14.06 2.64 8.18.86 15.91.69 22.97-.49l.29-.02h225.41l2.91-6.42-45.59-.1z" class="cls-13" style="fill:#d6d6d6;stroke-width:0"/><path id="path827" d="m464.26 318.66-21.16-10.15 30.8-65.38.22-.39c1.8-3.26 5.07-12.01 2.84-16.47-1.71-3.42-7.72-4.83-11.6-5.39H352.75l-10.65-23.65h124.78l.74.09c10.34 1.32 23.99 5.6 30.32 18.43 7.94 16.1-1.25 34.61-3.25 38.29l-30.45 64.63z" class="cls-13" style="fill:#d6d6d6;stroke-width:0"/><g id="g847"><path id="path829" d="M71.97 292.59s23.51-2.39 27.52 10.63l5.61-11.84s-11.53-11.42-30.29-4.48" class="cls-16" style="fill:#ffa400;stroke-width:0"/><path id="path831" d="M124.89 292.59s23.51-2.39 27.52 10.63l5.61-11.84s-11.53-11.42-30.29-4.48" class="cls-16" style="fill:#ffa400;stroke-width:0"/><path id="path833" d="M177.81 292.59s23.51-2.39 27.52 10.63l5.61-11.84s-11.53-11.42-30.29-4.48" class="cls-16" style="fill:#ffa400;stroke-width:0"/><path id="path835" d="m241.14 300.9 5.12-10.76c-3.09-2.31-10.86-6.89-22.04-5.05l-3.5 7.36c6.56.21 16.57 1.7 20.42 8.45" class="cls-16" style="fill:#ffa400;stroke-width:0"/><path id="path837" d="m279.14 300.96 5.13-10.78c-3.05-2.3-10.81-6.91-22.01-5.09l-3.48 7.37c6.58.23 16.56 1.74 20.36 8.51z" class="cls-16" style="fill:#ffa400;stroke-width:0"/><path id="path839" d="M329.84 295.38c-2.76-2.35-2.35-4.48-1.84-5.56.16-.31.35-.58.56-.83-4.3-2.7-12.8-6.3-24.35-2.99-1.16.94-2.13 1.98-2.88 3.15-.71 1.2-1.2 2.32-1.48 3.35 3.95-.22 16.5-.42 22.95 5.5 0 0 10.28 6.02 17.18 3.44" class="cls-16" style="fill:#ffa400;stroke-width:0"/><path id="path841" d="M399.04 299.62c1.37-2.87 2.99-6.29 4.88-10.26-3.82-2.54-11.69-6.3-22.56-3.97l-3.34 7.02c6.03.04 16.34 1.08 21.02 7.21" class="cls-16" style="fill:#ffa400;stroke-width:0"/><path id="path843" d="m471.8 300 5-10.36c-3.58-2.49-11.42-6.52-22.4-4.36l-3.43 7.14c6.21.09 16.41 1.27 20.84 7.58z" class="cls-16" style="fill:#ffa400;stroke-width:0"/><path id="path845" d="m496.23 285.43-3.32 6.98c5.99.03 16.38 1.02 21.12 7.14l.94-2.01c1.24-2.64 2.54-5.4 3.89-8.25-3.87-2.55-11.77-6.25-22.63-3.87z" class="cls-16" style="fill:#ffa400;stroke-width:0"/></g><ellipse id="ellipse849" cx="363.28" cy="275.25" class="cls-7" rx="19.32" ry="12.94" style="fill:#2b2b2b;stroke-width:0"/><g id="g855"><path id="polygon851" d="M345.2 201.18h116.02l1.41 3.86H346.6z" style="fill:url(#linear-gradient-3);stroke-width:0"/><path id="polygon853" d="M348.24 209.48h116.03l2.7 7.42H350.94z" style="fill:url(#linear-gradient-4);stroke-width:0"/></g><ellipse id="ellipse857" cx="346.55" cy="209.51" rx="3.63" ry="11.82" style="fill:#2b2b2b;stroke:#2b2b2b;stroke-width:3.8599999px;stroke-linecap:round;stroke-linejoin:round" transform="rotate(-22.21 346.497 209.492)"/><g id="_993ydq" data-name="993ydq"><g id="g863"><path id="path859" d="M279.43 249.7c-8.73 0-17.59-2.31-27.07-7.08-4.54-2.16-4.78-5.9-4.68-7.41.04-.52.17-1.53.69-2.64l-.87.32c-5 1.81-10.18 3.69-15.94 4.5-1.29.18-2.61.28-3.91.28-5.01 0-10.06-1.35-15.44-4.13-5.23-2.68-4.79-7.12-4.54-8.42.55-2.78 2.9-6.03 7.74-6.03h.21c3.05-.12 5.47-.92 7.57-2.54h-1.72c-5.48 0-10.86-.16-16.42-2.08-13.62-4.7-22.8-13.77-27.28-26.95l-.05-.13c-2.29-6.27 2.14-9.21 3.05-9.74a7.26 7.26 0 0 1 3.62-.98c3.09 0 4.94 1.89 5.67 2.7 5.34 4.06 10.59 6.03 16.05 6.03 1.33 0 2.71-.12 4.09-.35.89-.15 1.77-.52 2.66-1.11-.22-.06-.42-.07-.61-.07h-.21c-.23.01-.47.02-.71.02-2.99 0-5.57-1.5-6.89-4.02-.59-1.12-2.21-5.07 1.58-9.04l.07-.07c6.53-7.05 13.9-10.83 21.94-11.25-.41-4.64 2.99-6.81 3.75-7.24 1.12-.63 2.39-.96 3.65-.96 2.87 0 4.76 1.61 5.47 2.22a41.04 41.04 0 0 0 7.38 5.02c.7.37 1.37.7 2.01.99a7.7 7.7 0 0 1-1.52-2.98c-.38-1.51-.8-5.34 3.44-8.32l.08-.06c8.67-6.19 18.53-9.46 28.52-9.46 10.52 0 20.48 3.64 28.8 10.53 5.44 4.5 9.76 10.05 12.86 16.49.53 1.09.92 2.17 1.25 3.09 1.76 4.99-1.19 7.87-2.13 8.63-1.32 1.07-2.88 1.63-4.53 1.63-2.82 0-4.58-1.62-5.19-2.19-.49-.39-.97-.76-1.44-1.12.46 3.12.2 6.22-.8 9.26-2.25 6.88-8.18 11.33-15.11 11.33-2.56 0-5.09-.6-7.52-1.78-2.76-1.34-4.84-3.17-6.68-4.78l-.2-.17c.87 2.17 1.09 4.5.59 6.77-.39 1.79-1.2 3.43-2.36 4.83.12-.03.24-.06.37-.09.65-.16 1.3-.33 1.94-.5 3.26-.86 6.96-1.83 10.98-1.83 1.49 0 2.95.13 4.36.4 9.12 1.71 11.71 7.87 12.44 11.39.22 1.04.35 2.2.3 3.44.84-.71 1.63-1.46 2.37-2.25l.02-.03c.65-.77 2.62-3.11 6.06-3.11 1.28 0 2.54.35 3.67 1 2.14 1.25 5.11 4.75 2.68 9.93l-.02.05c-3.92 10.1-10.34 17.83-19.08 22.98-7.94 4.68-16.35 7.05-25 7.05z" class="cls-16" style="fill:#ffa400;stroke-width:0"/><path id="path861" d="M280.8 145.2c8.66 0 17.26 2.91 24.69 9.05 4.79 3.97 8.48 8.74 11.16 14.31.38.79.69 1.62.98 2.45.17.48.36 1.07-.11 1.45-.17.14-.33.19-.47.19-.4 0-.71-.42-1.02-.67-5.47-4.4-11.43-7.75-18.48-8.86-.47-.07-.94-.23-1.44-.23-.39 0-.8.1-1.24.4 2.8 1.94 5.16 4.18 6.82 7.08 2.29 3.99 3.27 8.17 1.79 12.68-1.43 4.37-4.96 6.88-8.97 6.88-1.52 0-3.12-.36-4.69-1.13-2.08-1.01-3.78-2.54-5.49-4.04-1.51-1.32-3.2-2.36-4.97-3.25a8.63 8.63 0 0 0-3.96-.95c-3.61 0-7.08 2.17-9.97 4.44-1.05.83-.31 1.14.57 1.32 2.58.53 4.86 1.57 6.7 3.55 3.01 3.23 2.19 7.42-1.95 9.13-1.45.6-2.94.92-4.46.92-1.02 0-2.05-.15-3.1-.45-3.45-1.01-6.9-2.12-10.42-2.82-1-.2-1.98-.3-2.93-.3-2.94 0-5.65.99-7.91 3.35.2.51.49.62.78.62.14 0 .29-.03.42-.04.78-.1 1.54-.14 2.28-.14 4.56 0 8.62 1.72 12.36 4.44 3.52 2.55 7.04 5.04 11.61 5.04h.34c3.65-.1 7.07-1.31 10.56-2.18 3.76-.94 7.48-2.14 11.36-2.14 1.04 0 2.1.09 3.17.29 3.71.7 6.5 2.47 7.31 6.36.77 3.72-1.14 6.38-3.9 8.51-2.51 1.93-5.47 2.8-8.54 3.35-.72.13-1.47.19-2.16.41-.83.26-.88.77-.1 1.18.51.27 1.1.43 1.67.55 1.79.37 3.55.56 5.29.56 4.16 0 8.16-1.06 12.01-3.1 3.54-1.87 6.7-4.24 9.44-7.17.38-.41.81-1.09 1.37-1.09.13 0 .26.04.41.12.81.48.17 1.35-.07 1.98-3.26 8.43-8.57 15.25-16.38 19.85-7.23 4.26-14.48 6.16-21.72 6.16-8.07 0-16.13-2.35-24.17-6.39-.51-.26-1.19-.48-1.14-1.19.06-.85.88-.89 1.48-1.08.84-.28 1.71-.44 2.54-.74 2.96-1.06 4.61-3.19 4.26-5.43-.43-2.7-2.88-4.6-6.07-4.6h-.07c-3.08.03-5.89 1.19-8.73 2.2-5.54 1.98-10.99 4.16-16.88 4.99-1.02.14-2.02.21-3.01.21-4.41 0-8.51-1.36-12.48-3.41-.58-.3-1.32-.64-1.16-1.43.15-.79.79-.82 1.4-.82H215.82c4.23-.16 8.09-1.35 11.45-3.99 2.97-2.34 4-4.86 3.07-7.6-.82-2.41-3.24-3.86-6.81-3.86H221.47c-4.83 0-9.64-.11-14.31-1.73-11.42-3.95-19.36-11.4-23.28-22.93-.25-.74-.74-1.7.12-2.2a.74.74 0 0 1 .38-.11c.56 0 .93.75 1.38 1.1 6.15 4.77 12.84 7.64 20.33 7.64 1.68 0 3.4-.14 5.17-.44 2.68-.45 5-1.76 7.02-3.52 2.52-2.2 2.38-6.24-.22-8.35-1.7-1.38-3.62-2.13-5.82-2.13h-.3c-.2 0-.41.02-.62.02-.47 0-.93-.08-1.18-.57-.38-.73.23-1.24.66-1.72 5.28-5.7 11.35-9.23 18.72-9.23 1.64 0 3.35.18 5.13.54.37.08.79.26 1.17.26.26 0 .49-.09.68-.35.43-.62-.22-1.23-.41-1.84-.51-1.61-1.03-3.22-1.49-4.84-.18-.62-.43-1.37.31-1.79.18-.1.34-.14.51-.14.48 0 .91.36 1.27.67 2.64 2.25 5.48 4.19 8.55 5.81 3.82 2.02 7.74 3.52 12.11 3.52.3 0 .61 0 .92-.02 3.9-.19 6.26-2.05 6.48-5.46.19-2.96-2.78-6.12-6.1-6.46-.66-.07-1.32-.03-1.98-.08-.64-.05-1.44.06-1.65-.77-.2-.78.49-1.18 1.02-1.55 7.56-5.4 16.19-8.26 24.77-8.26m-.01-12.9c-11.34 0-22.5 3.69-32.27 10.66l-.03.02c-2.03 1.42-3.5 3.07-4.52 4.8-2.63-1.92-5.51-2.9-8.56-2.9-2.36 0-4.71.61-6.79 1.77-2.48 1.39-4.94 3.81-6.22 7.1-7.7 1.59-14.76 5.83-21.07 12.65-3.06 3.22-4.21 6.74-4.22 9.96-.91-.52-1.82-1.13-2.76-1.82-3.49-3.55-7.31-4.32-9.97-4.32-2.39 0-4.76.64-6.85 1.85-5.04 2.92-8.82 9.47-5.88 17.53l.02.05c5.05 14.79 15.7 25.42 30.83 30.78-.55 1.12-.94 2.29-1.17 3.46-.93 4.75.56 11.62 7.86 15.37l.05.02c6.32 3.26 12.34 4.85 18.4 4.85 1.6 0 3.22-.11 4.81-.34 3.54-.5 6.87-1.36 10-2.33 1.24 2.71 3.47 5.26 7.06 6.97l-.06-.03c10.25 5.15 20.34 7.76 29.97 7.76 9.63 0 19.33-2.67 28.27-7.95 9.96-5.87 17.27-14.62 21.74-26.01 3.71-8.11-.15-15.05-5.33-18.08a13.699 13.699 0 0 0-6.93-1.89c-1.36 0-3.01.2-4.77.86-1.09-1.91-2.48-3.6-4.14-5.04 3.38-2.71 6-6.47 7.47-10.97.16-.48.31-1 .45-1.53.29.02.57.03.84.03 3.09 0 6.14-1.09 8.59-3.06 3.67-2.96 6.69-8.67 4.17-15.81-.41-1.15-.88-2.4-1.51-3.73-3.5-7.29-8.4-13.57-14.56-18.67-9.5-7.86-20.88-12.02-32.92-12.02z" class="cls-7" style="fill:#2b2b2b;stroke-width:0"/></g></g><path id="polygon866" d="M235.64 238.89h212.68v34.23H219.51z" class="cls-7" style="fill:#2b2b2b;stroke-width:0"/><g id="g882"><path id="path868" d="M265.5 254.82c-.62-.33-1.39-.5-2.28-.5h-7.5l-7.99 17.14h8.53c.84 0 1.67-.15 2.48-.43.79-.28 1.54-.68 2.25-1.2.69-.51 1.34-1.13 1.92-1.85.58-.71 1.07-1.51 1.48-2.38l2.09-4.48c.42-.89.67-1.73.77-2.49.1-.84.02-1.59-.25-2.22-.3-.69-.79-1.22-1.48-1.59zm-3.28 3.85c.35 0 .52.06.57.09.06.03.06.04.07.06.01.03.05.14.01.38-.04.27-.15.61-.33.99l-2.09 4.47c-.38.82-.87 1.45-1.44 1.87-.54.4-1.12.59-1.77.59h-3.15l3.94-8.45h4.18z" class="cls-14" style="fill:#999;stroke-width:0"/><path id="polygon870" d="M289.25 267.11h-7.83l.95-2.04h6.69l2.03-4.35h-6.69l.96-2.05h7.83l2.03-4.35h-12.19l-7.99 17.14h12.19z" class="cls-14" style="fill:#999;stroke-width:0"/><path id="polygon872" d="M303.68 271.46h4.35l5.96-12.79h4.4l2.02-4.35h-13.14l-2.02 4.35h4.39z" class="cls-14" style="fill:#999;stroke-width:0"/><path id="path874" d="M341.07 254.32h-8.03l-7.99 17.14h4.35l2.78-5.96h2.32l-.3 5.96h4.33l.31-6.27c1.68-.56 3.02-1.89 3.99-3.96l.79-1.7c.8-1.72.9-3.02.29-3.97-.52-.82-1.48-1.24-2.85-1.24zm-1.41 4.38-.69 1.49c-.24.52-.45.73-.56.8-.15.11-.35.16-.62.16h-3.57l1.16-2.48h4.3s0 .02-.01.03z" class="cls-14" style="fill:#999;stroke-width:0"/><path id="path876" d="M371.1 254.66c-.36-.23-.78-.34-1.25-.34h-7.64c-.4 0-.81.08-1.23.25-.37.15-.73.35-1.06.59-.33.24-.64.53-.92.86-.28.33-.52.7-.69 1.08l-4.97 10.66c-.19.41-.3.81-.34 1.2-.04.44.02.85.18 1.21.17.4.46.74.84.97.36.22.77.33 1.24.33h7.64c.4 0 .81-.08 1.22-.24.37-.15.73-.35 1.08-.6.33-.24.64-.53.92-.86.28-.34.52-.7.69-1.07l4.97-10.66c.19-.41.3-.81.34-1.2.04-.45-.02-.86-.19-1.22-.17-.39-.45-.71-.81-.94zm-3.99 4.01-3.94 8.45h-5.2l3.94-8.45z" class="cls-14" style="fill:#999;stroke-width:0"/><path id="polygon878" d="M391.61 254.32h-4.35l-7.99 17.14h4.35z" class="cls-14" style="fill:#999;stroke-width:0"/><path id="polygon880" d="m406.61 258.67-5.97 12.79h4.35l5.97-12.79h4.39l2.03-4.35h-13.14l-2.03 4.35z" class="cls-14" style="fill:#999;stroke-width:0"/></g><path id="path884" d="M248.78 210.34c-2.39-3.72-4.32-6.81-5.39-10.08-.09 0-.17 0-.25.02-.4.05-.91.19-1.2-.58.33-.35.68-.65 1.03-.94-1.37-5.7-.08-12.28 5.82-23.73 1.39-2.69 2.07-5.48 2.26-8.27-1.98-.63-3.9-1.49-5.79-2.49a46.841 46.841 0 0 1-8.55-5.81c-.49-.42-1.09-.92-1.78-.54-.74.41-.49 1.17-.31 1.79.46 1.62.98 3.23 1.49 4.84.19.61.85 1.22.41 1.84-.46.66-1.23.22-1.85.09-9.74-2.01-17.39 1.71-23.85 8.68-.44.47-1.05.99-.66 1.72.37.7 1.16.56 1.79.54 2.32-.07 4.34.69 6.12 2.13 2.6 2.11 2.75 6.14.22 8.35-2.02 1.76-4.34 3.07-7.02 3.52-9.63 1.63-17.97-1.35-25.5-7.19-.55-.42-.99-1.44-1.77-.99-.86.5-.37 1.46-.12 2.2 3.92 11.53 11.86 18.99 23.28 22.93 5.33 1.84 10.84 1.73 16.37 1.72 3.57 0 6 1.45 6.82 3.86.94 2.74-.09 5.26-3.07 7.6-3.36 2.65-7.22 3.83-11.45 3.99-.7.03-1.62-.14-1.81.82-.15.79.59 1.13 1.16 1.43 4.86 2.51 9.91 3.99 15.49 3.2 5.89-.83 11.34-3.01 16.88-4.99 0 0 8.09-5.03 1.24-15.67z" style="fill:#ff2f00;stroke-width:0"/><ellipse id="ellipse886" cx="365.95" cy="164.08" class="cls-7" rx="11.01" ry="18.91" style="fill:#2b2b2b;stroke-width:0" transform="rotate(-19.91 365.897 164.062)"/><path id="path888" d="M340.96 147.54s-5.69 23.55 5.59 38.6c11.28 15.05 13.07-3.97 13.07-3.97" class="cls-7" style="fill:#2b2b2b;stroke-width:0"/><path id="polyline890" d="m438.78 267.37 13.82-28.48H347.89" style="fill:none;stroke:#ffa400;stroke-width:5.1500001px;stroke-linecap:round;stroke-linejoin:round"/><path id="path892" d="M306.28 157.78s20.4.32 34.99 24.38c0 0 10.44-.6-2.73-14.46-13.17-13.86-18.34-25.65-58.39-22.49" class="cls-16" style="fill:#ffa400;stroke-width:0"/><path id="path894" d="M326.43 164.79s7.35-7.68 16.3-1.65c0 0-5.31-19.57-31.08-8.91" class="cls-16" style="fill:#ffa400;stroke-width:0"/><ellipse id="ellipse896" cx="334.85" cy="211.33" class="cls-18" rx="8.36" ry="13.89" style="fill:none;stroke:#999;stroke-width:4.23000002px;stroke-miterlimit:10" transform="rotate(-19.91 334.787 211.311)"/><ellipse id="ellipse898" cx="359.93" cy="165.36" class="cls-18" rx="8.36" ry="13.89" style="fill:none;stroke:#999;stroke-width:4.23000002px;stroke-miterlimit:10" transform="rotate(-19.91 359.856 165.35)"/></g></svg>