<svg xmlns="http://www.w3.org/2000/svg" id="Layer_1" width="544.26" height="544.26" data-name="Layer 1" version="1.1"><defs id="defs4"><style id="style2">.cls-2{fill:#f7eedf}.cls-3{fill:#1a66d6}.cls-4,.cls-6{fill:#1ec5d1}.cls-4{stroke:#1ec5d1;stroke-linecap:square;stroke-width:3.84px}.cls-4,.cls-8{stroke-linejoin:round}.cls-7{fill:#1c96d3}.cls-8{fill:none;stroke:#1a66d6;stroke-linecap:round;stroke-width:7.68px}.cls-9{fill:#efc997}</style></defs><path id="path8" d="M522.69 378.31a272.13 272.13 0 1 0-58.16 86.27 270.12 270.12 0 0 0 58.16-86.27z" class="cls-2" style="fill:#f7eedf"/><path id="path10" d="M38.28 371.58a254.79 254.79 0 1 0-20-99 253.12 253.12 0 0 0 20 99z" class="cls-3" style="fill:#1a66d6"/><path id="path12" d="m106.19 190.17-42.75-24.86 13.78-23.73 3.67 2.13-11.58 19.95 15.89 9.24 9.33-16.12 3.67 2.13-9.38 16.12 15.86 9.22 11.58-19.9 3.66 2.13z" class="cls-4" style="fill:#1ec5d1;stroke:#1ec5d1;stroke-width:3.83999991px;stroke-linecap:square;stroke-linejoin:round"/><path id="path14" d="M150.53 122.95a12.29 12.29 0 0 1 .77 4.58 12.11 12.11 0 0 1-1 4.51 11.79 11.79 0 0 1-2.76 3.88l-11.26 10.53-33.75-36.1 11.26-10.53a11.66 11.66 0 0 1 4.05-2.5 12 12 0 0 1 9.1.37 12.35 12.35 0 0 1 3.92 2.82l17.17 18.36a11.86 11.86 0 0 1 2.5 4.08zm-22.9-19.44a7.83 7.83 0 0 0-2.56-1.84 8 8 0 0 0-5.92-.24 7.43 7.43 0 0 0-2.64 1.62l-7.91 7.41 28 29.9 7.91-7.4a7.36 7.36 0 0 0 1.79-2.53 7.92 7.92 0 0 0 .18-5.9 7.87 7.87 0 0 0-1.67-2.67z" class="cls-4" style="fill:#1ec5d1;stroke:#1ec5d1;stroke-width:3.83999991px;stroke-linecap:square;stroke-linejoin:round"/><path id="path16" d="m206.11 99.19-14.29-30.73.61 2 3.15 33.6-2.09 1-23.75-24-1.13-1.8L182.9 110l-4 1.85L158.08 67l2.06-1 30.49 30.58.9 1.6-.65-1.71-3.74-43 2.1-1 20.85 44.84z" class="cls-4" style="fill:#1ec5d1;stroke:#1ec5d1;stroke-width:3.83999991px;stroke-linecap:square;stroke-linejoin:round"/><path id="path18" d="M262.28 80.51a12.12 12.12 0 0 1-5.56 7.18 11.72 11.72 0 0 1-4.51 1.49l-3.44.41a11.76 11.76 0 0 1-4.74-.39 12 12 0 0 1-4.11-2.14 12.22 12.22 0 0 1-3-3.53 12 12 0 0 1-1.48-4.58l-3.14-26.37a11.91 11.91 0 0 1 .37-4.81 12.11 12.11 0 0 1 2.09-4.13 11.88 11.88 0 0 1 3.49-3 11.5 11.5 0 0 1 4.52-1.49l3.44-.41a11.36 11.36 0 0 1 4.73.39 12.13 12.13 0 0 1 4.09 2.14 12.37 12.37 0 0 1 3 3.53 12 12 0 0 1 1.5 4.55l3.14 26.36a12 12 0 0 1-.39 4.8zm-7.12-30.64a7.74 7.74 0 0 0-1-3 8 8 0 0 0-2-2.28 7.78 7.78 0 0 0-2.64-1.39 7.42 7.42 0 0 0-3.09-.26l-3 .36a7.47 7.47 0 0 0-2.94 1 7.94 7.94 0 0 0-2.26 2 7.77 7.77 0 0 0-1.62 5.82l3.14 26.36a7.74 7.74 0 0 0 1 3 8.22 8.22 0 0 0 2 2.3 8 8 0 0 0 2.66 1.4 7.59 7.59 0 0 0 3.09.26l3-.37a7.4 7.4 0 0 0 2.95-1 7.77 7.77 0 0 0 2.24-2 8.23 8.23 0 0 0 1.36-2.69 7.83 7.83 0 0 0 .24-3.14z" class="cls-4" style="fill:#1ec5d1;stroke:#1ec5d1;stroke-width:3.83999991px;stroke-linecap:square;stroke-linejoin:round"/><path id="path20" d="m316.53 92.29-13.65-39v-2.18l-6.72 37.55-4.31-.78 8.68-48.68 2.24.4 13.64 39.05.07 2.15 6.71-37.54 4.32.77-8.71 48.67z" class="cls-4" style="fill:#1ec5d1;stroke:#1ec5d1;stroke-width:3.83999991px;stroke-linecap:square;stroke-linejoin:round"/><path id="path22" d="m376.53 66.94-20 40.53-4-1.89 20-40.53-10.41-5.14L364 56.1l24.81 12.18-1.88 3.8z" class="cls-4" style="fill:#1ec5d1;stroke:#1ec5d1;stroke-width:3.83999991px;stroke-linecap:square;stroke-linejoin:round"/><path id="path24" d="M410.75 138.85a12.35 12.35 0 0 1-4.49 1.14 12.11 12.11 0 0 1-4.57-.63 11.36 11.36 0 0 1-4.08-2.42l-2.57-2.36a11.57 11.57 0 0 1-2.82-3.84 12.08 12.08 0 0 1-1.09-4.5 12.28 12.28 0 0 1 .7-4.58 11.9 11.9 0 0 1 2.48-4.13l17.82-19.67a11.94 11.94 0 0 1 3.87-2.88 12.25 12.25 0 0 1 4.53-1.1 11.83 11.83 0 0 1 4.58.64 11.57 11.57 0 0 1 4.09 2.43l2.57 2.32a11.47 11.47 0 0 1 2.81 3.83 12 12 0 0 1 1.07 4.48 12.11 12.11 0 0 1-3.17 8.71l-17.83 19.68a12.08 12.08 0 0 1-3.9 2.88zm18.45-25.5a7.54 7.54 0 0 0 1.61-2.69 8 8 0 0 0 .45-3 7.84 7.84 0 0 0-.69-2.91 7.4 7.4 0 0 0-1.84-2.5l-2.26-2a7.47 7.47 0 0 0-2.67-1.58 8 8 0 0 0-5.9.31 7.7 7.7 0 0 0-2.52 1.88l-17.85 19.65a7.85 7.85 0 0 0-1.62 2.7 8.1 8.1 0 0 0-.44 3 7.8 7.8 0 0 0 .69 2.92 7.31 7.31 0 0 0 1.84 2.5l2.26 2.06a7.61 7.61 0 0 0 2.67 1.58 7.9 7.9 0 0 0 3 .39 8.34 8.34 0 0 0 2.92-.75 7.78 7.78 0 0 0 2.53-1.88z" class="cls-4" style="fill:#1ec5d1;stroke:#1ec5d1;stroke-width:3.83999991px;stroke-linecap:square;stroke-linejoin:round"/><path id="path26" d="m437.53 187.58 20.52-35.88 1.62-1.45-32.75 19.54-2.25-3.76 42.47-25.33 1.17 1.95-20.55 35.9-1.58 1.46 32.76-19.54 2.24 3.77-42.52 25.34z" class="cls-4" style="fill:#1ec5d1;stroke:#1ec5d1;stroke-width:3.83999991px;stroke-linecap:square;stroke-linejoin:round"/><circle id="circle28" cx="272.531" cy="272.579" r="167.91" class="cls-2" style="fill:#f7eedf"/><path id="path30" d="M307.76 364.41s58.63 54.55 116.54 46.69l36.54-44.3s-84.18 20.71-135.95-21.14" class="cls-3" style="fill:#1a66d6"/><path id="path32" d="M367.99 134.43c-1.39 14.52-6.5 28.93-15.22 42.87a141.77 141.77 0 0 1-34.24 36.94c-27.75 21.11-62 33.83-94.63 45.06l-3.12 1.07c-17.7 6.07-36 12.34-52.8 22.3-21.18 12.57-38.67 30.38-53.38 47a167.14 167.14 0 0 0 10.41 23.13c15-17.46 33.15-37.56 54.72-50.35 14.77-8.76 31.16-14.38 48.51-20.33l3.15-1.07c34.43-11.84 70.6-25.33 101.08-48.51 29.23-22.23 49-51.18 56.05-81.41a169.27 169.27 0 0 0-20.53-16.7z" style="fill:#81cdea"/><path id="path34" d="M436.66 236.99a11.45 11.45 0 0 0-7.74 6.52c-9.88 22.38-31.23 38.22-50.8 50.75-10.59 6.8-21.78 13.32-32.59 19.67-19 11.13-38.61 22.64-56.73 36.31-15.87 12-29.3 24.89-39.93 38.39-11.26 14.3-19.45 29.38-24.39 44.89a167.2 167.2 0 0 0 22.59 5.06 121.53 121.53 0 0 1 19.91-35.7c9.4-11.94 21.41-23.46 35.7-34.25 17.05-12.86 36.09-24 54.51-34.82 11-6.44 22.35-13.11 33.35-20.15 14.09-9 24.78-17.13 33.62-25.49a123.82 123.82 0 0 0 16.25-18.59 167.69 167.69 0 0 0-3.75-32.59z" class="cls-6" style="fill:#1ec5d1"/><path id="path36" d="M423.53 199.02a167.42 167.42 0 0 0-13.9-23.44c-7.32 17.87-22.19 34.82-44.26 50.43-11.08 7.83-23.19 14.94-34.91 21.81-10.49 6.15-21.34 12.52-31.73 19.54-22.5 15.21-43.61 33.85-64.52 57-17.15 19-34.22 41.13-52.17 67.69-3.33 4.92-6.65 10-9.59 15.32a167.43 167.43 0 0 0 19.42 12.47 170.61 170.61 0 0 1 9.25-14.9c17.34-25.65 33.75-47 50.18-65.14 19.65-21.75 39.38-39.21 60.32-53.36 9.78-6.61 20.31-12.79 30.49-18.76 12.13-7.11 24.68-14.47 36.55-22.87 19.87-14.02 34.87-29.38 44.87-45.79z" class="cls-7" style="fill:#1c96d3"/><path id="path38" d="M250.59 106.09c3.28 20.11 5.06 37.92-2.37 52.17-6 11.58-18.29 20.29-30.15 28.72-30 21.3-59.84 43.61-88.76 66.31a250.44 250.44 0 0 0-24.68 21.46 168.62 168.62 0 0 0 3.6 32.64c7.64-13.54 21-24.79 35.29-36 28.64-22.48 58.22-44.57 87.9-65.67 13.42-9.54 28.63-20.35 37.22-36.83 10.93-21 8.14-45.22 5.06-64.23h-1.17a168.92 168.92 0 0 0-21.94 1.43z" class="cls-7" style="fill:#1c96d3"/><path id="path40" d="M294.95 106.16c3.3 10.67 8.58 34.67-2 55.69 0 0 23.78-2.39 24.88-51a166.68 166.68 0 0 0-22.88-4.69z" class="cls-7" style="fill:#1c96d3"/><path id="path42" d="M305.44 390.07c-34.12 29.41-32.91 50.42-32.91 50.42a168.6 168.6 0 0 0 31.26-2.91c-9.4-19 1.65-47.51 1.65-47.51z" class="cls-6" style="fill:#1ec5d1"/><path id="path44" d="M136.95 371.65a168.16 168.16 0 0 0 26 28.13c-4.7-37.32 9.36-70.37 9.36-70.37-19.52 15.17-35.33 42.17-35.36 42.24z" class="cls-7" style="fill:#1c96d3"/><path id="path46" d="M144.53 154.73s5 43.4 33.63 43.49l12.37-12.82s-27.92-25.46-11.42-67.68" class="cls-3" style="fill:#1a66d6"/><path id="path48" d="M369.29 341.38a13.44 13.44 0 0 0-16.76-8.92l-32.62 10a13.43 13.43 0 0 0-1.63 25.08l25.33 11.51a13.44 13.44 0 0 0 16-20.65l.75-.23a13.43 13.43 0 0 0 8.93-16.79z" class="cls-2" style="fill:#f7eedf"/><path id="path50" d="m225.16 342.44-32.62-10a13.433 13.433 0 0 0-7.86 25.69l.75.23a13.43 13.43 0 0 0 16 20.65l25.33-11.51a13.43 13.43 0 0 0-1.63-25.08z" class="cls-2" style="fill:#f7eedf"/><path id="path52" d="M399.46 206.93c-2.75-16.68-11.27-30.21-24.64-39.1-11.47-7.63-25.87-11.17-40.57-10a66 66 0 0 0-39.52 17 57.62 57.62 0 0 0-15.86 25h-12.68a57.62 57.62 0 0 0-15.86-25 66 66 0 0 0-39.52-17c-14.69-1.2-29.1 2.34-40.57 10-13.37 8.89-21.89 22.42-24.64 39.1a100.65 100.65 0 0 0-.89 21.19c.81 12.74 4.14 21.88 10.15 28l7.27 7.33 10.23 10.32v17.19c0 24.24 12 39.39 13.41 41l.37.45 67.64 71.66.59.62.63.56a28.86 28.86 0 0 0 10.22 5.69 26.23 26.23 0 0 0 7.7 1.18 25.2 25.2 0 0 0 18.17-7.86l67.44-71.45.76-.86c1.38-1.65 13.42-16.8 13.42-41v-17.23l14.1-14.23 3.39-3.41c6-6.07 9.35-15.22 10.16-28a100.58 100.58 0 0 0-.9-21.15z" class="cls-2" style="fill:#f7eedf"/><path id="path54" d="M389.99 208.49c-2.3-14-9.38-25.29-20.48-32.67-9.68-6.44-21.93-9.42-34.48-8.39a56.32 56.32 0 0 0-33.77 14.45 47.92 47.92 0 0 0-14.84 27.61h-27.78a47.92 47.92 0 0 0-14.84-27.61 56.32 56.32 0 0 0-33.77-14.45c-12.55-1-24.8 2-34.48 8.39-11.1 7.38-18.18 18.68-20.48 32.67a91.64 91.64 0 0 0-.79 19c.66 10.33 3.09 17.47 7.4 21.82l20.27 20.45v21.14c0 21.22 10.74 34.35 11.2 34.89l.18.22 67.43 71.45.29.3.3.27a19.17 19.17 0 0 0 6.71 3.71 16.6 16.6 0 0 0 4.86.75 15.56 15.56 0 0 0 11.29-4.91l67.32-71.36.37-.42c.46-.54 11.2-13.67 11.2-34.89v-21.14l20.26-20.44c4.32-4.36 6.74-11.5 7.41-21.83a91.64 91.64 0 0 0-.78-19.01zm-17.32 17.36c-.39 7-1.73 10.09-2.23 10.71l-22.91 23.07-2.64 2.66v28.62c0 13.4-5.86 21.77-6.89 23.14l-42.44 45h-46.1l-42.44-45c-1-1.37-6.89-9.74-6.89-23.14v-28.62l-2.6-2.66-22.91-23.05c-.5-.63-1.84-3.71-2.23-10.71a74.24 74.24 0 0 1 .61-14.4c1.48-9 5.73-15.92 12.62-20.5 6.29-4.18 14.43-6.1 22.93-5.41a38.15 38.15 0 0 1 22.88 9.65c6.39 5.94 9.77 14 9.77 23.39v9.08h62.66v-9.1c0-9.36 3.38-17.45 9.77-23.39a38.15 38.15 0 0 1 22.9-9.61c8.5-.69 16.64 1.23 22.93 5.41 6.89 4.58 11.14 11.48 12.62 20.5a74.24 74.24 0 0 1 .59 14.36z" class="cls-3" style="fill:#1a66d6"/><path id="path56" d="M227.39 218.76a20.54 20.54 0 1 0-38 10.74c2.51 4.08 6.83 7.24 10.2 10.61l7.33 7.33c.71.38 9.69-9.67 10.51-10.51 5.24-5.35 9.96-9.94 9.96-18.17z" class="cls-3" style="fill:#1a66d6"/><ellipse id="ellipse58" cx="232.111" cy="289.089" class="cls-3" rx="11.99" ry="17.08" style="fill:#1a66d6"/><ellipse id="ellipse60" cx="313.171" cy="289.089" class="cls-3" rx="11.99" ry="17.08" style="fill:#1a66d6"/><path id="path62" d="M359.03 218.76a20.54 20.54 0 1 0-38 10.74c2.51 4.08 6.84 7.24 10.21 10.61l7.33 7.33c.71.38 9.68-9.67 10.5-10.51 5.24-5.35 9.96-9.94 9.96-18.17z" class="cls-3" style="fill:#1a66d6"/><path id="polyline64" d="m383.92 372.73-32.62 9.98 25.33 11.51" class="cls-8" style="fill:none;stroke:#1a66d6;stroke-width:7.67999983px;stroke-linecap:round;stroke-linejoin:round" transform="translate(-27.47 -27.42)"/><path id="polyline66" d="m216.08 372.73 32.63 9.98-25.34 11.51" class="cls-8" style="fill:none;stroke:#1a66d6;stroke-width:7.67999983px;stroke-linecap:round;stroke-linejoin:round" transform="translate(-27.47 -27.42)"/><path id="path68" d="m65.43 388.35 12.91-21.28-2.7-5.37-18.85 9.48-2-3.91 44.17-22.23 7 13.81a11.56 11.56 0 0 1 1.24 4.58 12.14 12.14 0 0 1-.62 4.57 12.22 12.22 0 0 1-6.12 7l-3.58 1.8a12.13 12.13 0 0 1-13.3-1.47 11.49 11.49 0 0 1-2.94-3.73L67.7 392.87zm33-17.27a7.78 7.78 0 0 0 2.48-1.93 8.18 8.18 0 0 0 1.5-2.62 7.81 7.81 0 0 0 .42-3 7.57 7.57 0 0 0-.82-3l-4.88-9.71-17.74 8.93 4.88 9.71a7.45 7.45 0 0 0 1.92 2.43 7.88 7.88 0 0 0 2.63 1.44 8.19 8.19 0 0 0 3 .35 7.57 7.57 0 0 0 3-.84z" class="cls-4" style="fill:#1ec5d1;stroke:#1ec5d1;stroke-width:3.83999991px;stroke-linecap:square;stroke-linejoin:round"/><path id="path70" d="m88.81 422.33 38-31.63 2.81 3.37-38 31.63z" class="cls-4" style="fill:#1ec5d1;stroke:#1ec5d1;stroke-width:3.83999991px;stroke-linecap:square;stroke-linejoin:round"/><path id="path72" d="m133.53 451.01-1 1.57 1.23-1.36L166 427.43l3.56 2.78-41.7 30.19-1.82-1.42 19.15-47.77 3.59 2.8z" class="cls-4" style="fill:#1ec5d1;stroke:#1ec5d1;stroke-width:3.83999991px;stroke-linecap:square;stroke-linejoin:round"/><path id="path74" d="m169.93 486.58 19-45.63 25.34 10.63-1.64 3.91-21.24-8.91-7.08 17 17.2 7.19-1.63 3.91-17.21-7.18-7.06 16.93 21.24 8.87-1.63 3.91z" class="cls-4" style="fill:#1ec5d1;stroke:#1ec5d1;stroke-width:3.83999991px;stroke-linecap:square;stroke-linejoin:round"/><path id="path76" d="m254.53 509.13-10.6-22.55-6-.7-2.4 20.99-4.35-.51 5.81-49.11 15.35 1.82a11.61 11.61 0 0 1 4.51 1.49 12.18 12.18 0 0 1 3.47 3 12.28 12.28 0 0 1 2.46 9l-.48 4a12.08 12.08 0 0 1-1.48 4.6 12.43 12.43 0 0 1-3 3.55 12 12 0 0 1-4.09 2.13 11.53 11.53 0 0 1-4.73.4l10.64 22.51zm3.82-37.08a8 8 0 0 0-.25-3.14 8.2 8.2 0 0 0-1.35-2.69 7.81 7.81 0 0 0-2.25-2 7.46 7.46 0 0 0-2.94-1l-10.8-1.28-2.33 19.72 10.79 1.28a7.42 7.42 0 0 0 3.09-.26 7.94 7.94 0 0 0 2.65-1.4 8.18 8.18 0 0 0 1.94-2.31 7.64 7.64 0 0 0 1-3z" class="cls-4" style="fill:#1ec5d1;stroke:#1ec5d1;stroke-width:3.83999991px;stroke-linecap:square;stroke-linejoin:round"/><path id="path78" d="m360.47 492.95-19.45-15.56-5.67 2 7 19.92-4.13 1.44-16.34-46.67 14.59-5.1a11.38 11.38 0 0 1 4.7-.64 12.11 12.11 0 0 1 4.45 1.2 12.23 12.23 0 0 1 6.15 7l1.32 3.77a12.23 12.23 0 0 1-.45 9.3 11.93 11.93 0 0 1-2.73 3.71 11.37 11.37 0 0 1-4.08 2.43l19.44 15.56zm-12.86-35a7.73 7.73 0 0 0-1.6-2.71 8.15 8.15 0 0 0-2.4-1.83 7.84 7.84 0 0 0-2.89-.8 7.42 7.42 0 0 0-3.07.42l-10.26 3.59 6.56 18.75 10.26-3.59a7.52 7.52 0 0 0 2.66-1.59 7.65 7.65 0 0 0 1.76-2.43 8.27 8.27 0 0 0 .74-2.92 7.85 7.85 0 0 0-.44-3.12z" class="cls-4" style="fill:#1ec5d1;stroke:#1ec5d1;stroke-width:3.83999991px;stroke-linecap:square;stroke-linejoin:round"/><path id="path80" d="m406.85 453.88-12.68 8.76 3.91 11.29-3.74 2.59-16.36-48.8 1.9-1.31 39.89 32.55-3.72 2.62zm-14.11 4.6 10.79-7.43-18.23-15.11-1.15-1.43.93 1.58z" class="cls-4" style="fill:#1ec5d1;stroke:#1ec5d1;stroke-width:3.83999991px;stroke-linecap:square;stroke-linejoin:round"/><path id="path82" d="m417.6 398.06 33.84 30-2.9 3.27-33.84-30-7.7 8.69-3.18-2.81 18.31-20.63 3.18 2.82z" class="cls-4" style="fill:#1ec5d1;stroke:#1ec5d1;stroke-width:3.83999991px;stroke-linecap:square;stroke-linejoin:round"/><path id="path84" d="M480.77 360.48a11.09 11.09 0 0 1 3.78 3 12.82 12.82 0 0 1 2.27 4.12 12.59 12.59 0 0 1 .58 4.66 11.71 11.71 0 0 1-1.25 4.63l-1.56 3.13a11.91 11.91 0 0 1-2.94 3.79 12.66 12.66 0 0 1-4.07 2.33 12.79 12.79 0 0 1-4.66.68 11.28 11.28 0 0 1-4.67-1.21l-1.76-.88 1.3-4.24 2.41 1.2a7.3 7.3 0 0 0 3.06.78 8.51 8.51 0 0 0 3-.47 8.36 8.36 0 0 0 2.68-1.57 8 8 0 0 0 2-2.5l1.36-2.73a7.88 7.88 0 0 0 .82-3.05 8.16 8.16 0 0 0-.38-3.07 8.41 8.41 0 0 0-1.45-2.72 7.38 7.38 0 0 0-2.47-2l-1.33-.66a8.33 8.33 0 0 0-4.23-1 9.52 9.52 0 0 0-3.75 1.06 17 17 0 0 0-3.44 2.4q-1.67 1.47-3.37 3c-1.14 1.05-2.32 2-3.52 3a15.06 15.06 0 0 1-3.88 2.18 11.15 11.15 0 0 1-4.46.71 12.83 12.83 0 0 1-5.22-1.51l-.83-.41a12.08 12.08 0 0 1-3.81-2.94 12.51 12.51 0 0 1-2.32-4 12 12 0 0 1-.62-4.58 11.47 11.47 0 0 1 1.23-4.6l1.39-2.8a11.53 11.53 0 0 1 2.93-3.74 11.91 11.91 0 0 1 4-2.24 12.48 12.48 0 0 1 4.6-.58 12 12 0 0 1 4.65 1.28l1.14.56-1.31 4.25-1.78-.89a7.64 7.64 0 0 0-3-.83 7.85 7.85 0 0 0-5.59 1.82 7.43 7.43 0 0 0-1.91 2.44l-1.21 2.44a7.37 7.37 0 0 0-.8 3 8.08 8.08 0 0 0 .4 3 7.93 7.93 0 0 0 1.49 2.61 7.58 7.58 0 0 0 2.49 1.93l.83.41a7.62 7.62 0 0 0 4 .91 9.36 9.36 0 0 0 3.65-1.11 18.77 18.77 0 0 0 3.44-2.4l3.43-3c1.17-1 2.37-2 3.61-2.92a15.86 15.86 0 0 1 4-2.14 11.57 11.57 0 0 1 4.51-.68 13.31 13.31 0 0 1 5.26 1.52z" class="cls-4" style="fill:#1ec5d1;stroke:#1ec5d1;stroke-width:3.83999991px;stroke-linecap:square;stroke-linejoin:round"/><path id="path86" d="M254.59 300.02v-7.79c0-.78-.2-1.79.59-2.2.79-.41 1.4.46 1.95 1 2.48 2.47 5 4.91 7.4 7.44a13 13 0 0 1 3.76 8.91c.09 4.7 0 9.4.06 14.09 0 2.6-1.07 2.91-3.16 1.89-6-3-9.73-7.61-10.38-14.35-.29-3-.05-6-.05-9z" class="cls-9" style="fill:#efc997"/><path id="path88" d="M290.35 300.96c-.13 2.79.3 6.2-.4 9.57-1.28 6.14-4.94 10.32-10.54 12.95-1.9.89-2.84.48-2.82-1.72 0-4.8 0-9.59.09-14.39a11.08 11.08 0 0 1 3-7.36c2.7-2.94 5.56-5.73 8.37-8.57.47-.47.93-1.21 1.75-.77.82.44.56 1.23.57 1.9-.01 2.6-.02 5.2-.02 8.39z" class="cls-9" style="fill:#efc997"/><path id="path90" d="M254.61 266.42v-6a1.89 1.89 0 0 1 .5-1.32c.61-.44 1.1.13 1.51.54 2.95 3 5.95 5.94 8.8 9a11 11 0 0 1 2.81 7.13c.18 3.79.08 7.6.07 11.4 0 .67.16 1.51-.66 1.83-.82.32-1.26-.43-1.73-.9-2.63-2.6-5.31-5.16-7.82-7.87-2.99-3.24-3.51-5.65-3.48-13.81z" class="cls-9" style="fill:#efc997"/><path id="path92" d="M276.6 282.12c-2.29-10.55 5.62-15.67 11.64-21.77 1.16-1.17 2.06-.75 2.06.86 0 4.39.37 8.78-.27 13.15a11.65 11.65 0 0 1-3.08 6.37c-2.58 2.77-5.3 5.42-8 8.1-.47.46-.93 1.2-1.74.84-.81-.36-.6-1.19-.61-1.86-.02-1.9 0-3.79 0-5.69z" class="cls-9" style="fill:#efc997"/><path id="path94" d="M276.6 248.13v-8.39c0-1.66.5-2.66 2.39-2.63 3 .07 6 .06 9 0 1.64 0 2.34.72 2.38 2.33.1 3.84-.67 7.39-3.36 10.26s-5.3 5.43-8 8.12c-.47.48-1 1.19-1.74.85-.74-.34-.66-1.17-.66-1.86-.02-2.88-.01-5.78-.01-8.68z" class="cls-9" style="fill:#efc997"/><path id="path96" d="M261.43 237.13c7.75.14 6.84-1.21 6.91 7.09v12c0 .67.13 1.51-.66 1.85-.79.34-1.26-.38-1.73-.85-2.69-2.67-5.42-5.31-8-8.07a13.35 13.35 0 0 1-3.34-9.06c-.07-2.18.72-3.15 2.95-3 1.27.13 2.57.03 3.87.04z" class="cls-9" style="fill:#efc997"/><path id="rect98" d="M266.181 333.909h12.01v25.22h-12.01z" class="cls-9" style="fill:#efc997"/><path id="path100" d="M61.3 245.7c1.89 2.88 3.79 5.67 5.58 8.54a120.35 120.35 0 0 1 10.55 20.07c1.9 4.92 2.65 9.84.65 14.95a18.14 18.14 0 0 1-34.94-4.68c-.46-4.53 1.06-8.6 2.79-12.6 4-9.2 9.29-17.62 14.94-25.86a3.25 3.25 0 0 1 .43-.42z" class="cls-7" style="fill:#1c96d3"/><path id="path102" d="m68.53 271.69-18 13.44a11.17 11.17 0 0 0 9.35 8.45 9.11 9.11 0 0 0 1.29.09 11.21 11.21 0 0 0 10.26-7c1.1-2.82.9-5.75-.66-9.78-.68-1.77-1.45-3.5-2.24-5.2z" class="cls-3" style="fill:#1a66d6"/><path id="path104" d="M483.76 245.7c-1.89 2.88-3.79 5.67-5.58 8.54a120.35 120.35 0 0 0-10.55 20.07c-1.9 4.92-2.65 9.84-.65 14.95a18.14 18.14 0 0 0 34.94-4.68c.46-4.53-1.06-8.6-2.79-12.6-4-9.2-9.29-17.62-14.94-25.86a3.25 3.25 0 0 0-.43-.42z" class="cls-7" style="fill:#1c96d3"/><path id="path106" d="m476.53 271.69 18 13.44a11.17 11.17 0 0 1-9.41 8.43 9.11 9.11 0 0 1-1.29.09 11.21 11.21 0 0 1-10.26-7c-1.1-2.82-.9-5.75.66-9.78.74-1.75 1.51-3.48 2.3-5.18z" class="cls-3" style="fill:#1a66d6"/></svg>