<svg xmlns="http://www.w3.org/2000/svg" id="Layer_1" data-name="Layer 1" version="1.1" width="312.558" height="375.028"><defs id="defs4"><style id="style2">.cls-4{fill:#e7e2b1}.cls-5,.cls-8{fill:#24685d}.cls-10,.cls-12,.cls-13,.cls-14,.cls-5,.cls-6,.cls-7{stroke:#18403f;stroke-linecap:round;stroke-linejoin:round}.cls-5{stroke-width:15.83px}.cls-6{fill:#218da5}.cls-10,.cls-12,.cls-13,.cls-14,.cls-6,.cls-7{stroke-width:12.55px}.cls-7{fill:#60bfd3}.cls-10{fill:none}.cls-12{fill:#95ac57}.cls-13{fill:#2a9e8c}.cls-14{fill:#a5d672}</style></defs><path class="cls-4" d="m248.798 103.55-1.88-.07a177.14 177.14 0 0 0-21.59-1h-49.6a30.65 30.65 0 0 0-18.59-12.28c-11.19-2.25-22.53 2.2-31.73 12.28h-106.2a16.7 16.7 0 0 0-16.33 13l-.84 3.52a17 17 0 0 0-.44 3.82v35.5a16.69 16.69 0 0 0-.39 13.36c.12.3.25.6.39.89V186c.05 2.19 1.49 54.27 22 103.89v.12c1 2.38 2 4.71 3 6.93.07.16.15.32.22.46s.17.39.25.58l.42.9c.15.33.32.66.49 1 .17.34.26.61.4.9l.28.59a.8.8 0 0 0 .08.16l.73 1.49.28.84.5.7a16.84 16.84 0 0 0 1.61 2.38 80.05 80.05 0 0 0 3.62 34.84 16.77 16.77 0 0 0 27.59 6.88l28.5-27.48c1.65.27 3.31.52 5 .76 1 1.18 2 2.36 3.08 3.51a16.78 16.78 0 0 0 19.6 3.93c2.6-1.22 5.19-2.52 7.75-3.89l17 39.41a16.78 16.78 0 0 0 28.11 4.31c15.21-17.66 21.74-38.75 19-61.25.17-.36.34-.72.52-1.18.11-.25.2-.51.31-.82.11-.31.25-.76.32-1.06.07-.3.14-.51.19-.77l.16-.78c0-.21.07-.41.09-.62l.06-.43q0-.47.06-.93v-1.74c0-.41-.07-.82-.12-1.23-.05-.41-.08-.6-.14-1-.06-.4-.17-.77-.25-1.1-.08-.33-.16-.58-.27-.93-.11-.35-.25-.73-.4-1.09-.15-.36-.22-.56-.33-.79-.18-.4-.39-.79-.6-1.17-.21-.38-.27-.48-.43-.74a16 16 0 0 0-1.19-1.66c-.18-.22-.37-.43-.56-.64a12.09 12.09 0 0 0-.86-.9l-1.87-1.79c-1.13-3-2.32-5.73-3.46-8.11a179 179 0 0 0 16.55-25.85c.48-.91 1-1.84 1.42-2.76l8 .95c17.51 2.26 49.36 10.06 60.28 21.36a16.77 16.77 0 0 0 28.53-8.48s7-36.32 11.45-59.6c2.34-12 3.66-21.78 3.92-29.16 1.55-42.4-22.87-69.75-63.69-71.39z" id="path164" style="fill:#e7e2b1"/><path class="cls-4" d="M282.038 96.24V18.07A18.07 18.07 0 0 0 263.948 0H18.368A18.08 18.08 0 0 0 .288 18.07v167.95c.12 5.1 3.73 125.45 75.5 175.32a18 18 0 0 0 10.32 3.23h110.7a18 18 0 0 0 10.31-3.23c71.77-49.87 75.39-170.22 75.5-175.32v-85.11a18 18 0 0 0-.58-4.67z" id="path166" style="fill:#e7e2b1"/><path class="cls-5" d="M263.948 100.91V41.4H18.368v144.2s2.67 115.69 67.75 160.9h110.7c65.05-45.21 67.74-160.9 67.74-160.9v-84.69z" id="path168" style="fill:#24685d;stroke:#18403f;stroke-width:15.82999992px;stroke-linecap:round;stroke-linejoin:round"/><path class="cls-6" d="m44.928 296.23.06.12v0z" id="path170" style="fill:#218da5;stroke:#18403f;stroke-width:12.55000019px;stroke-linecap:round;stroke-linejoin:round"/><path class="cls-6" d="M42.788 291.79c-.13-.27-.25-.55-.38-.82.13.27.25.55.38.82z" id="path172" style="fill:#218da5;stroke:#18403f;stroke-width:12.55000019px;stroke-linecap:round;stroke-linejoin:round"/><path class="cls-6" d="m43.848 294-.23-.48z" id="path174" style="fill:#218da5;stroke:#18403f;stroke-width:12.55000019px;stroke-linecap:round;stroke-linejoin:round"/><path class="cls-6" d="m248.128 120.31-2.53-.1a159.53 159.53 0 0 0-20.27-1H19.208l-.84 3.62v62.77s1.29 55.31 23.59 104.38c36.14 16 102.24 25.12 134.2 10.51l-41.57-29.67 67-49.74 8.93.32s51 6.41 70.23 26.36c0 0 14.22-49.12 15.06-73.41 1.09-30.57-14-52.69-47.68-54.04zm-37-1zm3.38 0zm2.69 0zm2 0z" id="path176" style="fill:#218da5;stroke:#18403f;stroke-width:12.55000019px;stroke-linecap:round;stroke-linejoin:round"/><path class="cls-7" d="M41.958 290c36.14 16 102.24 25.12 134.2 10.51l-39.12-37.43 49.22-31.79 24.26 2.88s51 6.41 70.23 26.36c0 0 7.29-38 11.74-61.18-21.05-14.61-55-31.71-97.35-30.62l-100.55 13s-45 .73-70.67 49.89c3.49 17.82 9.06 38.6 18.04 58.38z" id="path178" style="fill:#60bfd3;stroke:#18403f;stroke-width:12.55000019px;stroke-linecap:round;stroke-linejoin:round"/><path class="cls-6" d="m44.928 296.23.06.12v0z" id="path180" style="fill:#218da5;stroke:#18403f;stroke-width:12.55000019px;stroke-linecap:round;stroke-linejoin:round"/><path class="cls-6" d="M42.788 291.79c-.13-.27-.25-.55-.38-.82.13.27.25.55.38.82z" id="path182" style="fill:#218da5;stroke:#18403f;stroke-width:12.55000019px;stroke-linecap:round;stroke-linejoin:round"/><path class="cls-6" d="m43.848 294-.23-.48z" id="path184" style="fill:#218da5;stroke:#18403f;stroke-width:12.55000019px;stroke-linecap:round;stroke-linejoin:round"/><path class="cls-4" d="M85.578 61.83v37.29h-17.63V84h-4.85v15.15h-17.63V61.83h17.63V77h4.85V61.83z" id="path186" style="fill:#e7e2b1"/><path class="cls-4" d="M96.238 80.42c0-11.29 8.73-19.49 20.56-19.49 11.83 0 20.56 8.2 20.56 19.49s-8.74 19.58-20.56 19.58c-11.82 0-20.56-8.23-20.56-19.58zm23.51 0a2.9 2.9 0 0 0-3-2.93 2.86 2.86 0 0 0-2.93 2.93 2.9 2.9 0 0 0 2.93 3 3 3 0 0 0 3-3z" id="path188" style="fill:#e7e2b1"/><path class="cls-4" d="m148.038 60.24 22.16 12V61.83h17.63v38.89l-22.16-12v10.41h-17.63z" id="path190" style="fill:#e7e2b1"/><path class="cls-4" d="M199.528 61.83h17.63v18.06c0 2.56.75 3.52 2.4 3.52s2.45-1 2.45-3.52V61.83h17.63v17c0 14-8.26 21.14-20.08 21.14-11.82 0-20-7.14-20-21.14z" id="path192" style="fill:#e7e2b1"/><path class="cls-8" d="M63.608 8.86v16.71h-7.9v-6.79h-2.18v6.79h-7.89V8.86h7.89v6.79h2.18V8.86z" id="path194" style="fill:#24685d"/><path class="cls-8" d="m94.288 7.91 11.35 17.66h-9.33l-2-3.45-2 3.45h-9.33z" id="path196" style="fill:#24685d"/><path class="cls-8" d="m130.728 8.86.62 4 1.92-1.5 1.93 1.5.62-4h8.38l-3.71 17.43-7.22-5.94-7.23 5.94-3.71-17.43z" id="path198" style="fill:#24685d"/><path class="cls-8" d="m172.248 7.91 11.35 17.66h-9.33l-2-3.45-2 3.45h-9.33z" id="path200" style="fill:#24685d"/><path class="cls-8" d="M210.838 8.86v16.71h-7.9V8.86z" id="path202" style="fill:#24685d"/><path class="cls-8" d="M240.218 8.86v16.71h-7.9V8.86z" id="path204" style="fill:#24685d"/><rect class="cls-5" x="63.698" y="219.34" width="43.74" height="43.74" rx="21.87" id="rect206" style="fill:#24685d;stroke:#18403f;stroke-width:15.82999992px;stroke-linecap:round;stroke-linejoin:round"/><path d="M141.468 301.91c-49.76 9.89-104.71-24.43-104.71-24.43v0c10 26.37 25.5 52.44 49.37 69h110.7c19.41-13.48 33.27-33.26 43.21-54.36-29.72-2.72-65.43 3.2-98.57 9.79z" id="path208" style="fill:#e7e2b1;stroke:#18403f;stroke-width:12.77000046px;stroke-linecap:round;stroke-linejoin:round"/><path class="cls-10" d="M24.488 234.38s6.52-40.57 53.13-42.62" id="path210" style="fill:none;stroke:#18403f;stroke-width:12.55000019px;stroke-linecap:round;stroke-linejoin:round"/><path class="cls-10" id="line212" style="fill:none;stroke:#18403f;stroke-width:12.55000019px;stroke-linecap:round;stroke-linejoin:round" d="m262.928 181.78 30.32 13.64"/><path d="M166.168 267.16s58-7.24 78.59 3.66" id="path214" style="fill:#e7e2b1;fill-rule:evenodd;stroke:#18403f;stroke-width:12.77000046px;stroke-linecap:round;stroke-linejoin:round"/><path class="cls-12" d="M162.218 276.73s30.56 42.84-2.76 81.5l-24.64-57.11" id="path216" style="fill:#95ac57;stroke:#18403f;stroke-width:12.55000019px;stroke-linecap:round;stroke-linejoin:round"/><path class="cls-12" d="M80.448 260.31s-44.73 27.69-28.92 76.25l44.77-43.17" id="path218" style="fill:#95ac57;stroke:#18403f;stroke-width:12.55000019px;stroke-linecap:round;stroke-linejoin:round"/><path class="cls-12" d="M159.038 168.89a60.94 60.94 0 0 0 8.1-20.75c4.14-20.63-1.8-39.22-13.26-41.53-11.46-2.31-24.11 12.56-28.26 33.2a61 61 0 0 0-.54 22.25" id="path220" style="fill:#95ac57;stroke:#18403f;stroke-width:12.55000019px;stroke-linecap:round;stroke-linejoin:round"/><path class="cls-12" d="m165.478 174.23 34-15.27s47.19 5.16 58.09 54.85l-58.13-11.67" id="path222" style="fill:#95ac57;stroke:#18403f;stroke-width:12.55000019px;stroke-linecap:round;stroke-linejoin:round"/><path class="cls-12" d="m117.038 164.49-25.46-27.2s-45.54-13.46-74.8 28.18l58.12 11.67" id="path224" style="fill:#95ac57;stroke:#18403f;stroke-width:12.55000019px;stroke-linecap:round;stroke-linejoin:round"/><path class="cls-13" d="m143.838 156.43-68.94 20.71s-18.67 75.07 37.26 137c75.53-35.58 87.28-112 87.28-112z" id="path226" style="fill:#2a9e8c;stroke:#18403f;stroke-width:12.55000019px;stroke-linecap:round;stroke-linejoin:round"/><path class="cls-10" id="line228" style="fill:none;stroke:#18403f;stroke-width:12.55000019px;stroke-linecap:round;stroke-linejoin:round" d="m161.718 131.88 7.12 1.43"/><path class="cls-10" id="line230" style="fill:none;stroke:#18403f;stroke-width:12.55000019px;stroke-linecap:round;stroke-linejoin:round" d="m136.818 126.88-7.12-1.43"/><path class="cls-10" id="polygon232" style="fill:none;stroke:#18403f;stroke-width:12.55000019px;stroke-linecap:round;stroke-linejoin:round" transform="translate(-342.962 -181)" d="m461.86 375.61 33.21 6.67 10.77 32.39-22.44 25.73-33.21-6.67-10.77-32.4z"/><path class="cls-10" id="polyline234" style="fill:none;stroke:#18403f;stroke-width:12.55000019px;stroke-linecap:round;stroke-linejoin:round" transform="translate(-342.962 -181)" d="m530.2 419.56-24.36-4.89-10.77-32.39 19.32-22.16"/><path class="cls-10" id="polyline236" style="fill:none;stroke:#18403f;stroke-width:12.55000019px;stroke-linecap:round;stroke-linejoin:round" transform="translate(-342.962 -181)" d="m415.05 396.44 24.37 4.89 22.44-25.72-9.28-27.9"/><path class="cls-10" id="polyline238" style="fill:none;stroke:#18403f;stroke-width:12.55000019px;stroke-linecap:round;stroke-linejoin:round" transform="translate(-342.962 -181)" d="m429.77 457.13 20.42-23.4 33.21 6.67 9.81 29.52"/><path class="cls-6" d="m44.928 296.23.06.12v0z" id="path240" style="fill:#218da5;stroke:#18403f;stroke-width:12.55000019px;stroke-linecap:round;stroke-linejoin:round"/><path class="cls-6" d="M42.788 291.79c-.13-.27-.25-.55-.38-.82.13.27.25.55.38.82z" id="path242" style="fill:#218da5;stroke:#18403f;stroke-width:12.55000019px;stroke-linecap:round;stroke-linejoin:round"/><path class="cls-6" d="m43.848 294-.23-.48z" id="path244" style="fill:#218da5;stroke:#18403f;stroke-width:12.55000019px;stroke-linecap:round;stroke-linejoin:round"/><path class="cls-6" d="m248.128 120.31-2.53-.1a159.53 159.53 0 0 0-20.27-1H19.208l-.84 3.62v62.77s1.29 55.31 23.59 104.38c36.14 16 102.24 25.12 134.2 10.51l-41.57-29.67 67-49.74 8.93.32s51 6.41 70.23 26.36c0 0 14.22-49.12 15.06-73.41 1.09-30.57-14-52.69-47.68-54.04zm-37-1zm3.38 0zm2.69 0zm2 0z" id="path246" style="fill:#218da5;stroke:#18403f;stroke-width:12.55000019px;stroke-linecap:round;stroke-linejoin:round"/><path class="cls-7" d="M41.958 290c36.14 16 102.24 25.12 134.2 10.51l-39.12-37.43 49.22-31.79 24.26 2.88s51 6.41 70.23 26.36c0 0 7.29-38 11.74-61.18-21.05-14.61-55-31.71-97.35-30.62l-100.55 13s-45 .73-70.67 49.89c3.49 17.82 9.06 38.6 18.04 58.38z" id="path248" style="fill:#60bfd3;stroke:#18403f;stroke-width:12.55000019px;stroke-linecap:round;stroke-linejoin:round"/><path class="cls-14" d="M162.218 276.73s30.56 42.84-2.76 81.5l-24.64-57.11" id="path250" style="fill:#a5d672;stroke:#18403f;stroke-width:12.55000019px;stroke-linecap:round;stroke-linejoin:round"/><path class="cls-14" d="M80.448 260.31s-44.73 27.69-28.92 76.25l44.77-43.17" id="path252" style="fill:#a5d672;stroke:#18403f;stroke-width:12.55000019px;stroke-linecap:round;stroke-linejoin:round"/><path class="cls-14" d="M159.038 168.89a60.94 60.94 0 0 0 8.1-20.75c4.14-20.63-1.8-39.22-13.26-41.53-11.46-2.31-24.11 12.56-28.26 33.2a61 61 0 0 0-.54 22.25" id="path254" style="fill:#a5d672;stroke:#18403f;stroke-width:12.55000019px;stroke-linecap:round;stroke-linejoin:round"/><path class="cls-14" d="m165.478 174.23 34-15.27s47.19 5.16 58.09 54.85l-58.13-11.67" id="path256" style="fill:#a5d672;stroke:#18403f;stroke-width:12.55000019px;stroke-linecap:round;stroke-linejoin:round"/><path class="cls-14" d="m117.038 164.49-25.46-27.2s-45.54-13.46-74.8 28.18l58.12 11.67" id="path258" style="fill:#a5d672;stroke:#18403f;stroke-width:12.55000019px;stroke-linecap:round;stroke-linejoin:round"/><path class="cls-13" d="m143.838 156.43-68.94 20.71s-18.67 75.07 37.26 137c75.53-35.58 87.28-112 87.28-112z" id="path260" style="fill:#2a9e8c;stroke:#18403f;stroke-width:12.55000019px;stroke-linecap:round;stroke-linejoin:round"/><path class="cls-10" id="line262" style="fill:none;stroke:#18403f;stroke-width:12.55000019px;stroke-linecap:round;stroke-linejoin:round" d="m161.718 131.88 7.12 1.43"/><path class="cls-10" id="line264" style="fill:none;stroke:#18403f;stroke-width:12.55000019px;stroke-linecap:round;stroke-linejoin:round" d="m136.818 126.88-7.12-1.43"/><path class="cls-10" id="polygon266" style="fill:none;stroke:#18403f;stroke-width:12.55000019px;stroke-linecap:round;stroke-linejoin:round" transform="translate(-342.962 -181)" d="m461.86 375.61 33.21 6.67 10.77 32.39-22.44 25.73-33.21-6.67-10.77-32.4z"/><path class="cls-10" id="polyline268" style="fill:none;stroke:#18403f;stroke-width:12.55000019px;stroke-linecap:round;stroke-linejoin:round" transform="translate(-342.962 -181)" d="m530.2 419.56-24.36-4.89-10.77-32.39 19.32-22.16"/><path class="cls-10" id="polyline270" style="fill:none;stroke:#18403f;stroke-width:12.55000019px;stroke-linecap:round;stroke-linejoin:round" transform="translate(-342.962 -181)" d="m415.05 396.44 24.37 4.89 22.44-25.72-9.28-27.9"/><path class="cls-10" id="polyline272" style="fill:none;stroke:#18403f;stroke-width:12.55000019px;stroke-linecap:round;stroke-linejoin:round" transform="translate(-342.962 -181)" d="m429.77 457.13 20.42-23.4 33.21 6.67 9.81 29.52"/></svg>