<svg xmlns="http://www.w3.org/2000/svg" xmlns:xlink="http://www.w3.org/1999/xlink" id="Layer_1" data-name="Layer 1" version="1.1" width="388.03" height="370.51"><defs id="defs27"><linearGradient id="linear-gradient" x1="536.83" y1="202.52" x2="629.09" y2="202.52" gradientTransform="translate(-370.32 427.84)" gradientUnits="userSpaceOnUse"><stop offset="0" stop-color="#fff" id="stop4"/><stop offset=".16" stop-color="#faf7f2" id="stop6"/><stop offset=".44" stop-color="#ebe3cf" id="stop8"/><stop offset=".83" stop-color="#d4c296" id="stop10"/><stop offset="1" stop-color="#c9b37c" id="stop12"/></linearGradient><linearGradient id="linear-gradient-2" x1="5251.19" y1="1087.89" x2="5343.45" y2="1087.89" gradientTransform="matrix(0 -1 -1 0 826.614 5611.765)" xlink:href="#linear-gradient"/><linearGradient id="linear-gradient-3" x1="274.89" y1="673.08" x2="274.89" y2="367.31" gradientUnits="userSpaceOnUse" gradientTransform="translate(-80.89 -315.56)"><stop offset="0" stop-color="#c9b37c" id="stop16"/><stop offset=".14" stop-color="#cdb987" id="stop18"/><stop offset=".4" stop-color="#dacaa4" id="stop20"/><stop offset=".73" stop-color="#ede5d3" id="stop22"/><stop offset="1" stop-color="#fff" id="stop24"/></linearGradient><linearGradient xlink:href="#linear-gradient" id="linearGradient1041" gradientUnits="userSpaceOnUse" gradientTransform="translate(-511.564 131.18)" x1="536.83" y1="202.52" x2="629.09" y2="202.52"/><style id="style2">.cls-1{fill:#4c91c2}.cls-3{fill:#d3ba7d}.cls-9{fill:#fff}.cls-10{fill:#ababab}.cls-11{fill:#101028}</style></defs><ellipse cx="71.396" cy="333.7" rx="46.13" ry="27.56" transform="rotate(-10.64)" id="ellipse147" style="fill:url(#linearGradient1041)"/><ellipse cx="-261.276" cy="314.445" rx="27.56" ry="46.13" transform="rotate(-79.36)" id="ellipse149" style="fill:url(#linear-gradient-2)"/><path d="M367.11 160.31c3.31-30.25 10.12-46.76 10.6-47.9l10.32-22-35.26-9.8-155.25-28.86h-6.93L35.37 80.66l-11.56 3.21L0 90.21l10.43 22.23c.48 1.14 7.29 17.65 10.6 47.9 5.73 52.4-3.27 105-11.83 139.84l-5 20.28 31 7.43 150 29.66h17.63l149.28-29.51 31.78-7.6-5-20.28c-15.49-63.19-14.97-110.93-11.78-139.85zm-5.49 144.13.71 2.9-13.7 3.28-147.52 29.09h-14.13L39.37 310.55l-13.59-3.26.71-2.9c9.06-36.89 18.49-92.54 12-148.17-3.88-33.25-11.74-50.93-11.82-51.11l-1.43-3.15 14.27-4 152.72-28.45h3.65l.27.05 152.57 28.43 14.15 3.93-1.43 3.16c-.08.17-7.94 17.85-11.82 51.1-3.58 30.74-4.41 81.37 12 148.26z" id="path151" style="fill:url(#linear-gradient-3)"/><path class="cls-1" d="M301 151.33q2.55-11.47 6.07-22.72c-17.69-2.78-38.37-5-56.2-6.59q-1.75 12.29-3.14 24.6c4.7.3 7.05.47 11.75.83a553.713 553.713 0 0 0-3.79 46.92q-61.93-1.1-123.87 0c-.59-15.73-1.85-31.3-3.78-46.92 4.7-.36 7-.53 11.75-.83q-1.38-12.33-3.14-24.6c-17.83 1.61-38.51 3.81-56.2 6.59q3.51 11.24 6.08 22.72c4.7-.58 7.05-.85 11.74-1.37a324.93 324.93 0 0 1 0 116.43c-4.7-.51-7-.79-11.74-1.37q-2.56 11.49-6.08 22.72c17.69 2.79 38.37 5 56.2 6.59q1.76-12.28 3.14-24.6c-4.7-.3-7.05-.46-11.75-.83 1.91-15.48 3.16-30.91 3.77-46.49q61.95 1.13 123.89 0c.61 15.58 1.87 31 3.78 46.49-4.7.37-7.05.53-11.75.83q1.38 12.33 3.14 24.6c17.83-1.6 38.51-3.8 56.2-6.59q-3.51-11.22-6.07-22.72c-4.71.58-7.06.86-11.76 1.37a325.39 325.39 0 0 1 0-116.43c4.7.48 7.05.79 11.76 1.37z" id="path153" style="fill:#4c91c2"/><path class="cls-1" d="m248.33 297.54-.4-2.79c-1.17-8.2-2.23-16.5-3.15-24.69l-.35-3.09 3.11-.2c3.55-.23 5.73-.37 8.62-.59-1.6-13.54-2.7-27.22-3.3-40.75-39.23.67-79 .67-118.2 0-.6 13.53-1.71 27.21-3.3 40.75 2.88.21 5.06.36 8.62.59l3.11.2-.35 3.09c-.92 8.21-2 16.52-3.15 24.69l-.4 2.79-2.81-.25c-22.32-2-41.29-4.24-56.39-6.62l-3.39-.53 1-3.28c2.32-7.44 4.34-15 6-22.48l.58-2.63 2.68.33c3.69.45 5.9.72 8.94 1.06a320 320 0 0 0 0-109.92c-3.06.34-5.26.6-8.94 1.06l-2.67.32-.59-2.62c-1.67-7.48-3.69-15-6-22.48l-1-3.28 3.39-.54c15.1-2.38 34.07-4.6 56.39-6.61l2.81-.26.4 2.79c1.17 8.19 2.23 16.5 3.15 24.69l.35 3.09-3.11.2c-3.56.23-5.74.38-8.62.6a559.48 559.48 0 0 1 3.31 41.17c39.23-.65 78.95-.65 118.17 0 .6-13.67 1.71-27.5 3.32-41.18-2.89-.21-5.07-.36-8.62-.59l-3.11-.2.35-3.09c.92-8.18 2-16.49 3.15-24.69l.4-2.79 2.81.26c22.32 2 41.29 4.23 56.39 6.61l3.4.54-1 3.28c-2.32 7.43-4.34 15-6 22.48l-.58 2.62-2.68-.32c-3.68-.46-5.89-.72-8.95-1.06a320 320 0 0 0 0 109.92c3.05-.34 5.26-.61 8.95-1.06l2.68-.33.58 2.63c1.67 7.48 3.69 15 6 22.48l1 3.28-3.4.53c-15.1 2.38-34.07 4.61-56.39 6.62zm2.7-25.05c.72 6.19 1.52 12.43 2.38 18.63 19.36-1.78 36.09-3.73 49.82-5.79-1.69-5.65-3.21-11.36-4.53-17-3.14.39-5.37.64-9.14 1l-2.75.3-.49-2.72a326.19 326.19 0 0 1 0-117.48l.49-2.73 2.75.3c3.77.41 6 .67 9.14 1.05 1.32-5.68 2.84-11.38 4.53-17-13.73-2.06-30.46-4-49.82-5.79-.86 6.2-1.66 12.44-2.38 18.63 2.9.19 5.09.36 8.68.63l3.09.24-.38 3.09a555.396 555.396 0 0 0-3.76 46.66l-.11 2.91-2.91-.05c-41.06-.72-82.7-.72-123.76 0l-2.91.05-.11-2.91c-.59-15.48-1.86-31.18-3.77-46.66l-.38-3.08 3.1-.25c3.58-.27 5.77-.44 8.68-.63-.72-6.19-1.52-12.44-2.38-18.63-19.36 1.78-36.09 3.73-49.82 5.79 1.69 5.66 3.21 11.37 4.53 17 3.12-.38 5.36-.64 9.13-1.05l2.75-.3.49 2.73a326.19 326.19 0 0 1 0 117.48l-.49 2.72-2.75-.3c-3.76-.41-6-.66-9.13-1-1.32 5.68-2.84 11.39-4.53 17 13.73 2.06 30.46 4 49.82 5.79.86-6.18 1.66-12.43 2.38-18.63-2.9-.19-5.1-.35-8.68-.63l-3.1-.24.38-3.08c1.9-15.35 3.16-30.91 3.76-46.25l.11-2.9h2.91c41.06.74 82.71.74 123.78 0h2.91l.11 2.9c.6 15.34 1.86 30.9 3.75 46.25l.38 3.08-3.09.24c-3.6.28-5.78.44-8.68.63z" id="path155" style="fill:#4c91c2"/><path class="cls-9" id="rect157" style="fill:#fff" d="M204.11 186.11h12.79v50.67h-12.79z"/><path class="cls-3" d="M176.27 281.81s.77 46.41-30.17 52.6l-.77 9.29 49.5 7v-52.6" id="path159" style="fill:#d3ba7d"/><path class="cls-3" d="M210.86 281.81s-.75 46.41 30.17 52.63l.77 9.29-49.51 7v-52.6" id="path161" style="fill:#d3ba7d"/><path class="cls-10" d="M177.28 239.31s-1.4-14.5 5.15-21.51c0 0 8.88 1.87 10.75 21" id="path163" style="fill:#ababab"/><path class="cls-10" d="M208.66 239.31s1.4-14.5-5.15-21.51c0 0-8.88 1.87-10.75 21" id="path165" style="fill:#ababab"/><ellipse class="cls-10" cx="193.26" cy="231.51" rx="8.65" ry="16.84" id="ellipse167" style="fill:#ababab"/><path d="m204.42 221.22 6.08-1.4v-4.68l-4.67-3.27-.94-131.89-5.61-16.84-.47-46.77s.47-7.49-6.08-16.37h-.95c-6.55 8.88-6.08 16.37-6.08 16.37l-.47 46.77-5.61 16.84-.94 131.89-4.67 3.27v4.68l6.08 1.4" id="path169" style="fill:#c4c4c3"/><path class="cls-11" d="M179.34 118.6a108.31 108.31 0 0 1 25.82-.33l-.19-27.15a108.2 108.2 0 0 0-25.43.33z" id="path171" style="fill:#101028"/><path class="cls-10" id="rect173" style="fill:#ababab" d="M182.43 94.47h7.95v24.19h-7.95z"/><path id="rect175" style="fill:#fff;stroke:#c4c4c3;stroke-width:1.32000005px;stroke-miterlimit:10" d="M192.61 117.76h7.95v93.93h-7.95z"/><path class="cls-10" d="m204.02 77.38-4.74-14.24-.07-7-13.9-.49-.08 7.52-4.92 14.78a127.15 127.15 0 0 1 23.71-.57z" id="path177" style="fill:#ababab"/><path class="cls-11" d="m185.58 28.37-.34 33.7a126.26 126.26 0 0 1 14-.33l-.33-33.69a126.6 126.6 0 0 0-13.33.32z" id="path179" style="fill:#101028"/><path class="cls-10" d="m185.5 36.36-.07 7.39a117.32 117.32 0 0 1 13.65-.09l-.07-7.39a119.41 119.41 0 0 0-13.51.09z" id="path181" style="fill:#ababab"/><path class="cls-10" d="m205.19 121.93-.05-6.55a117.48 117.48 0 0 0-25.77.05l-.05 6.56a117.16 117.16 0 0 1 25.87-.06z" id="path183" style="fill:#ababab"/><ellipse class="cls-3" cx="193.59" cy="268.76" rx="19.13" ry="35.27" id="ellipse185" style="fill:#d3ba7d"/><path class="cls-9" id="polyline187" style="fill:#fff" transform="translate(-80.89 -315.56)" d="m264.89 686.07 10.06-110.61 11.6 108.29"/></svg>