<svg xmlns="http://www.w3.org/2000/svg" id="Layer_1" data-name="Layer 1" version="1.1" width="302.27" height="380.87"><defs id="defs4"><style id="style2">.cls-3{fill:#fff}.cls-4{fill:#e79f02}.cls-5{fill:#00246d}</style></defs><path class="cls-4" d="M151.14 380.87c34.15 0 65.27-15.28 88.64-40.33H62.5c23.37 25.05 54.48 40.33 88.64 40.33z" id="path180" style="fill:#e79f02"/><path class="cls-4" id="rect182" style="fill:#e79f02" d="M0 0h302.27v346.74H0z"/><path class="cls-5" transform="scale(-1)" id="rect184" style="fill:#00246d" d="M-292.65-220.82H-9.26v154.37h-283.39z"/><path class="cls-4" d="M151.21 192.89a49.65 49.65 0 1 1 49.65-49.64 49.7 49.7 0 0 1-49.65 49.64zm0-88.95a39.31 39.31 0 1 0 39.3 39.31 39.35 39.35 0 0 0-39.3-39.31z" id="path186" style="fill:#e79f02"/><path class="cls-4" id="rect188" style="fill:#e79f02" d="M73.9 138.33h20.17v10.34H73.9z"/><path class="cls-4" id="rect190" style="fill:#e79f02" d="M37.7 138.33h20.17v10.34H37.7z"/><path class="cls-4" id="rect192" style="fill:#e79f02" d="M9.26 138.33h12.67v10.34H9.26z"/><path class="cls-4" id="rect194" style="fill:#e79f02" d="M107 138.33h31.03v10.34H107z"/><path class="cls-4" id="rect196" style="fill:#e79f02" d="M166.47 138.33h31.03v10.34h-31.03z"/><path class="cls-4" id="polygon198" style="fill:#e79f02" transform="translate(-347.55 -165)" d="m479.88 308.76-45.41-79.92 8.99-5.11 48.32 85.04-48.32 84.78-8.99-5.12z"/><path class="cls-4" id="polygon200" style="fill:#e79f02" transform="translate(-347.55 -165)" d="m554.06 223.73 8.99 5.11-45.41 79.92 45.41 79.67-8.99 5.12-48.32-84.78z"/><path class="cls-3" id="polygon202" style="fill:#fff" transform="translate(-347.55 -165)" d="M356.81 257.67h81.7l5.18 10.34h-86.88z"/><path class="cls-3" id="polygon204" style="fill:#fff" transform="translate(-347.55 -165)" d="M356.81 348.17h86.88l-5.18 10.34h-81.7z"/><path class="cls-4" id="rect206" style="fill:#e79f02" d="M208.36 138.33h19.65v10.34h-19.65z"/><path class="cls-4" id="rect208" style="fill:#e79f02" d="M244.04 138.33h20.17v10.34h-20.17z"/><path class="cls-4" id="rect210" style="fill:#e79f02" d="M279.98 138.33h12.67v10.34h-12.67z"/><path class="cls-3" id="polygon212" style="fill:#fff" transform="translate(-347.55 -165)" d="M640.2 257.67h-81.71l-5.17 10.34h86.88z"/><path class="cls-3" id="polygon214" style="fill:#fff" transform="translate(-347.55 -165)" d="M640.2 348.17h-86.88l5.17 10.34h81.71z"/><path class="cls-4" id="polygon216" style="fill:#e79f02" transform="translate(-347.55 -165)" d="m506.26 242.89-4.19 3.43 1.37 5.24-4.56-2.92-4.56 2.92 1.37-5.24-4.19-3.43 5.41-.32 1.97-5.04 1.97 5.04z"/><path class="cls-4" id="polygon218" style="fill:#e79f02" transform="translate(-347.55 -165)" d="m491.5 371.07 4.19 3.43-1.37 5.24 4.56-2.92 4.56 2.92-1.37-5.24 4.19-3.43-5.41-.32-1.97-5.04-1.97 5.04z"/><path class="cls-5" d="M30.02 45.92h4.25v5.77H18.66v-5.77h4.25V21.58h-4.25v-5.76h15.61v5.76h-4.25z" id="path220" style="fill:#00246d"/><path class="cls-5" d="M48.93 45.92h4V21.58h-4v-5.76h10.74L71.25 37h.12V21.58h-3.25v-5.76h13.93v5.76h-4.19v30.11h-6.49l-11.87-22h-.05v16.22h3.41v5.77H48.93z" id="path222" style="fill:#00246d"/><path class="cls-5" d="M115.79 51.69H96.45v-5.77h3.14V21.64h-3.14v-5.82h19c3.69 0 6 2.3 6 5.88v24.22c0 3.47-2 5.77-5.66 5.77zM106.67 22v23.34h7.83V22z" id="path224" style="fill:#00246d"/><path class="cls-5" d="M148.45 45.92h4.25v5.77h-15.65v-5.77h4.25V21.58h-4.25v-5.76h15.61v5.76h-4.21z" id="path226" style="fill:#00246d"/><path class="cls-5" d="M168.04 45.92h2.58V21.14c0-2.63 2.35-5.32 5-5.32h11c2.68 0 4.87 2.63 4.87 5.32v24.78H194v5.77h-11.69v-5.77h2.14v-6.77h-6.61v6.77h1.91v5.77h-11.7zm9.79-23.66v10h6.62v-10z" id="path228" style="fill:#00246d"/><path class="cls-5" d="M208.1 45.92h4V21.58h-4v-5.76h10.74L230.45 37h.12V21.58h-3.25v-5.76h13.93v5.76h-4.19v30.11h-6.49l-11.87-22h-.05v16.22h3.41v5.77H208.1z" id="path230" style="fill:#00246d"/><path class="cls-5" d="M255.93 45.92h2.58V21.14c0-2.63 2.35-5.32 5-5.32h11c2.69 0 4.87 2.63 4.87 5.32v24.78h2.52v5.77h-11.7v-5.77h2.13v-6.77h-6.6v6.77h1.9v5.77h-11.7zm9.8-23.66v10h6.6v-10z" id="path232" style="fill:#00246d"/><path class="cls-5" d="M70.85 274.83H59.61a4.83 4.83 0 0 1-4.93-4.75v-26.47a4.59 4.59 0 0 1 4.77-4.61h5.76a4.67 4.67 0 0 1 4.59 3.35V239h5.76v11.81l.06.06h-7.05v-5.15H61.8v22.32h6.77v-5.48h7.05v7.61a4.59 4.59 0 0 1-4.77 4.66z" id="path234" style="fill:#00246d"/><path class="cls-5" d="M93.79 269.07h3.66v-24.34h-3.64V239h20.59c3.64 0 5.48 2.07 5.48 5.65v8.84c0 4.14-2.51 6-5.42 6l2.79 9.57h5.2v5.76h-10.92l-4-14.77h-2.86v9h2.78v5.76H93.79zm17.51-23.61h-6.85v8h6.82c.95 0 1.46-.67 1.46-1.68v-4.64c.03-1.01-.42-1.68-1.43-1.68z" id="path236" style="fill:#00246d"/><path class="cls-5" d="M157.96 274.83h-13.2a4.45 4.45 0 0 1-4.59-4.64v-26.47a4.82 4.82 0 0 1 4.92-4.75h12.54a4.82 4.82 0 0 1 4.92 4.75v26.47a4.45 4.45 0 0 1-4.59 4.64zM147.28 246v21.66h8.17V246z" id="path238" style="fill:#00246d"/><path class="cls-5" d="M188.51 253.18h9.74a4.59 4.59 0 0 1 4.75 4.64v12.26a4.81 4.81 0 0 1-4.87 4.75h-6.82a4.56 4.56 0 0 1-4.7-3.86v3.81h-5.77v-12h7.11v5.48h8.11v-8.5h-9.79c-2.68 0-5-2-5-4.14v-12c0-3 2.3-4.64 5-4.64h6.18a4.59 4.59 0 0 1 4.59 3.58V239h5.76v11.59h-7v-5h-7.27z" id="path240" style="fill:#00246d"/><path class="cls-5" d="M228.57 253.18h9.74a4.59 4.59 0 0 1 4.75 4.64v12.26a4.81 4.81 0 0 1-4.87 4.75h-6.82a4.56 4.56 0 0 1-4.7-3.86v3.81h-5.77v-12h7.11v5.48h8.11v-8.5h-9.79c-2.68 0-5-2-5-4.14v-12c0-3 2.3-4.64 5-4.64h6.12a4.57 4.57 0 0 1 4.58 3.58V239h5.77v11.59h-7v-5h-7.27z" id="path242" style="fill:#00246d"/><path class="cls-5" d="M50.74 320.78h3.63v-24.34h-3.63v-5.76h20.59c3.64 0 5.48 2.07 5.48 5.65v8.84c0 4.14-2.52 6.05-5.43 6.05l2.8 9.56h5.21v5.77H68.45l-4-14.77h-2.86v9h2.8v5.77H50.74zm17.51-23.61h-6.8v8h6.83c.95 0 1.46-.67 1.46-1.68v-4.64c-.03-1.01-.48-1.68-1.49-1.68z" id="path244" style="fill:#00246d"/><path class="cls-5" d="M114.91 326.55h-13.2a4.45 4.45 0 0 1-4.59-4.65v-26.46a4.83 4.83 0 0 1 4.92-4.76h12.54a4.83 4.83 0 0 1 4.92 4.76v26.46a4.45 4.45 0 0 1-4.59 4.65zm-10.68-28.87v21.65h8.16v-21.65z" id="path246" style="fill:#00246d"/><path class="cls-5" d="M137.45 320.78h2.57V296c0-2.63 2.35-5.32 5-5.32h11c2.69 0 4.87 2.63 4.87 5.32v24.78h2.56v5.77h-11.72v-5.77h2.12V314h-6.6v6.77h1.9v5.77h-11.7zm9.79-23.66v10h6.6v-10z" id="path248" style="fill:#00246d"/><path class="cls-5" d="M199.5 326.55h-19.3v-5.77h3.13V296.5h-3.13v-5.82h19c3.69 0 6 2.3 6 5.88v24.22c.01 3.47-2.06 5.77-5.7 5.77zm-9.12-29.66v23.34h7.84v-23.34z" id="path250" style="fill:#00246d"/><path class="cls-5" d="M230.83 304.89h9.74a4.59 4.59 0 0 1 4.76 4.65v12.25a4.81 4.81 0 0 1-4.87 4.76h-6.83a4.58 4.58 0 0 1-4.7-3.86v3.8h-5.76v-12h7.11V320h8.11v-8.51h-9.79c-2.69 0-5-2-5-4.14v-12c0-3 2.29-4.65 5-4.65h6.15a4.59 4.59 0 0 1 4.59 3.58v-3.52h5.76v11.58h-7v-5h-7.28z" id="path252" style="fill:#00246d"/><path class="cls-3" id="rect254" style="fill:#fff" d="M10.55 237.88h17.07v88.95H10.55z"/><path class="cls-3" transform="scale(-1)" id="rect256" style="fill:#fff" d="M-291.62-326.84h17.07v88.95h-17.07z"/><path class="cls-5" d="M151.14 365.36a71.86 71.86 0 0 0 48.65-18.88h-97.34a71.87 71.87 0 0 0 48.69 18.88z" id="path258" style="fill:#00246d"/><path class="cls-3" id="polygon260" style="fill:#fff" transform="translate(-347.55 -165)" d="M486.13 279.62v7.71h8.49v42.41h-8.49v7.71h24.68v-7.71h-8.48v-42.41h8.48v-7.71z"/></svg>