<svg xmlns="http://www.w3.org/2000/svg" id="Layer_1" width="384.73" height="533.65" data-name="Layer 1" version="1.1"><defs id="defs909"><style id="style907">.cls-10,.cls-8,.cls-9{stroke:#251f20}.cls-10{stroke-miterlimit:10;stroke-width:5.62px}.cls-8,.cls-9{stroke-width:11.24px}.cls-13,.cls-8{fill:#fff}.cls-8,.cls-9{stroke-linecap:round;stroke-linejoin:round}.cls-15{fill:#251f20}.cls-10,.cls-9{fill:none}.cls-13,.cls-15,.cls-16,.cls-17{stroke-width:0}.cls-16{fill:#ccc}.cls-17{fill:#999}</style></defs><g id="g991" transform="translate(-107.64 -33.61)"><g id="g917"><path id="path913" d="M429.79 188.35s18.4-33.13 15.66-72.49V58.59h-93.4c-11.74-15.19-30.14-24.98-50.83-24.98-20.69 0-39.09 9.79-50.83 24.98H154.5v58.14c-2.41 38.98 15.71 71.62 15.71 71.62l-62.57 230.96s26.81 138.95 147.97 147.95h88.79c121.16-9 147.97-147.95 147.97-147.95L429.8 188.35Z" style="fill:#b50000;stroke-width:0"/></g><path id="path919" d="M456.31 419.32s-40.96 115.49-115.85 119.85h-80.8c-74.89-4.37-115.85-119.85-115.85-119.85l77.13-22.27h157.84z" style="fill:#1f3a23;stroke:#251f20;stroke-width:11.23999977px;stroke-linecap:round;stroke-linejoin:round"/><g id="g937"><path id="polygon921" d="m379.18 397.05 77.13 22.27-69.38-264.6-46.47 60.34z" class="cls-13" style="fill:#fff;stroke-width:0"/><path id="path923" d="m431.17 406.36-22.91-100.5s-2.84-7.93-5.55 6.98l4.07 86.75 24.4 6.78z" class="cls-16" style="fill:#ccc;stroke-width:0"/><path id="path925" d="M406.69 230.06s-20.98 28.99-28.98 69.36c0 0-6.02-79.35 9.23-137.76" class="cls-17" style="fill:#999;stroke-width:0"/><path id="polygon927" d="m220.94 397.05-77.14 22.27 69.38-264.6 46.48 60.34z" class="cls-13" style="fill:#fff;stroke-width:0"/><path id="path929" d="m168.21 406.36 22.91-100.5s2.84-7.93 5.55 6.98l-4.07 86.75-24.4 6.78z" class="cls-16" style="fill:#ccc;stroke-width:0"/><path id="path931" d="M193.43 230.06s20.98 28.99 28.98 69.36c0 0 6.02-79.35-9.23-137.76" class="cls-17" style="fill:#999;stroke-width:0"/><path id="polygon933" d="m220.94 397.05-77.14 22.27 69.38-264.6 46.48 60.34z" class="cls-9" style="fill:none;stroke:#251f20;stroke-width:11.23999977px;stroke-linecap:round;stroke-linejoin:round"/><path id="polygon935" d="m379.18 397.05 77.13 22.27-69.38-264.6-46.47 60.34z" class="cls-9" style="fill:none;stroke:#251f20;stroke-width:11.23999977px;stroke-linecap:round;stroke-linejoin:round"/></g><path id="path939" d="M307.99 480.38c9.59-.74 19.91-5.16 19.91-5.16 14.75-7.37 50.88-78.17 50.88-78.17l-1.47-97.62v-5.46s-20.83 10.25-62.82 9.77h-29.26c-41.99.49-62.82-9.77-62.82-9.77v5.46l-1.47 97.62s36.13 70.79 50.88 78.17c0 0 10.32 4.42 19.91 5.16z" style="fill:#251f20;stroke:#251f20;stroke-width:11.23999977px;stroke-linecap:round;stroke-linejoin:round"/><path id="path941" d="M305.22 416.59h16.41s-8.53 6.34-8.2 12.91c.33 6.56 16.52 9.63 18.49-3.28 1.97-12.91-.44-21-13.34-22.75h-37.41c-12.91 1.75-15.31 9.84-13.34 22.75 1.97 12.91 18.16 9.84 18.49 3.28.33-6.56-8.2-12.91-8.2-12.91h27.13z" style="fill:#f2bc9e;stroke-width:0"/><path id="path943" d="m309.64 338.1 18.1 9.9-2.62-13.48c18.58 8.03 25.61 7.28 33.64-7.28 8.03-14.56 10.57-2.26 10.57-2.26l-.03 14.81c.5 12.05-5.77 16.57-5.77 16.57-8.79 8.03-9.04 14.61-9.04 14.61 3.77-.21 9.04-2.81 9.04-2.81-4.77 11.05-21.84 35.3-21.84 35.3-8.29-11.64-28.44-15.72-28.44-15.72 2.79-6.03 10.02-11.55 10.02-11.55-16.07-.75-23.67 7.28-23.67 7.28h.52s-7.6-8.03-23.67-7.28c0 0 7.23 5.52 10.02 11.55 0 0-20.16 4.08-28.44 15.72 0 0-17.07-24.26-21.84-35.3 0 0 5.27 2.6 9.04 2.81 0 0-.25-6.57-9.04-14.61 0 0-6.28-4.52-5.77-16.57l-.03-14.81s2.54-12.3 10.57 2.26c8.03 14.56 15.06 15.32 33.64 7.28L271.98 348l18.1-9.9 9.78-13.74z" style="fill:#f2bc9e;stroke:#251f20;stroke-width:5.61999989px;stroke-miterlimit:10"/><path id="path945" d="M286.41 298.83s-38.19 3.01-63.31-9.04c0 0 3.01-61.81-7.54-119.59 0 0-13.06-40.7 22.11-39.19 0 0 28.64 4.02 45.22 4.02h34.95c16.58 0 45.22-4.02 45.22-4.02 35.17-1.51 22.11 39.19 22.11 39.19-10.55 57.79-7.54 119.59-7.54 119.59-25.12 12.06-63.31 9.04-63.31 9.04z" style="fill:#fff;stroke:#251f20;stroke-width:11.23999977px;stroke-miterlimit:10"/><path id="path947" d="M223.01 243.15c1.02 27.23.08 46.63.08 46.63 25.12 12.06 63.31 9.04 63.31 9.04h27.91s38.19 3.01 63.31-9.04c0 0-.95-19.41.08-46.63-72.25 16.11-154.67 0-154.7 0z" style="fill:#eac56b;stroke:#251f20;stroke-width:11.23999977px;stroke-miterlimit:10"/><path id="path949" d="M223.01 278.61s82.44 16.11 154.7 0" class="cls-10" style="fill:none;stroke:#251f20;stroke-width:5.61999989px;stroke-miterlimit:10"/><path id="path951" d="M313.38 306.45c4.02-14.75 6.33-31.05 6.33-48.29 0-31.27-7.39-59.63-19.35-80.79-11.97 21.16-19.35 49.52-19.35 80.79 0 17.13 2.28 33.32 6.25 48 4.11.14 8.32 10.73 12.6 10.78 4.28.05 8.94-10.43 13.52-10.48z" style="fill:#eac56b;stroke:#251f20;stroke-width:11.23999977px;stroke-linecap:round;stroke-linejoin:round"/><path id="path953" d="M234.56 161.66s8.04 51.51 9.63 85.06h15.47s-12.71-51.37-25.09-85.06z" class="cls-15" style="fill:#251f20;stroke-width:0"/><path id="path955" d="M365.55 161.66s-8.04 51.51-9.63 85.06h-15.47s12.71-51.37 25.09-85.06z" class="cls-15" style="fill:#251f20;stroke-width:0"/><path id="polygon957" d="m321.47 477.54-21.41 61.63-21.81-61.63z" class="cls-8" style="fill:#fff;stroke:#251f20;stroke-width:11.23999977px;stroke-linecap:round;stroke-linejoin:round"/><path id="rect959" d="M255.6 513.86h89.35v22.34H255.6z" style="fill:#b50000;stroke:#251f20;stroke-width:11.23999977px;stroke-linecap:round;stroke-linejoin:round"/><path id="polygon961" d="m340.46 468.11 47.08 40.25 23.64-99.87-32.4-11.44z" class="cls-8" style="fill:#fff;stroke:#251f20;stroke-width:11.23999977px;stroke-linecap:round;stroke-linejoin:round"/><path id="polygon963" d="m259.66 468.11-47.09 40.25-23.64-99.87 32.41-11.44z" class="cls-8" style="fill:#fff;stroke:#251f20;stroke-width:11.23999977px;stroke-linecap:round;stroke-linejoin:round"/><g id="g973"><path id="line965" d="m223.01 267.79 23.16-21.17" class="cls-10" style="fill:none;stroke:#251f20;stroke-width:5.61999989px;stroke-miterlimit:10"/><path id="line967" d="m227.05 280.17 33.93-31.02" class="cls-10" style="fill:none;stroke:#251f20;stroke-width:5.61999989px;stroke-miterlimit:10"/><path id="line969" d="m243.7 282.19 33.93-31.03" class="cls-10" style="fill:none;stroke:#251f20;stroke-width:5.61999989px;stroke-miterlimit:10"/><path id="line971" d="m261.35 283.16 18.99-17.37" class="cls-10" style="fill:none;stroke:#251f20;stroke-width:5.61999989px;stroke-miterlimit:10"/></g><g id="g983"><path id="line975" d="m377.71 267.79-23.15-21.17" class="cls-10" style="fill:none;stroke:#251f20;stroke-width:5.61999989px;stroke-miterlimit:10"/><path id="line977" d="m373.67 280.17-33.93-31.02" class="cls-10" style="fill:none;stroke:#251f20;stroke-width:5.61999989px;stroke-miterlimit:10"/><path id="line979" d="m357.03 282.19-33.93-31.03" class="cls-10" style="fill:none;stroke:#251f20;stroke-width:5.61999989px;stroke-miterlimit:10"/><path id="line981" d="m339.38 283.16-19-17.37" class="cls-10" style="fill:none;stroke:#251f20;stroke-width:5.61999989px;stroke-miterlimit:10"/></g><g id="g989"><path id="path985" d="M310.22 111.05c-13.6 0-24.63-11.03-24.63-24.63s11.03-24.63 24.63-24.63c3.57 0 6.97.76 10.03 2.13a29.353 29.353 0 0 0-19.02-6.96c-16.27 0-29.46 13.19-29.46 29.46 0 16.27 13.19 29.46 29.46 29.46 7.25 0 13.88-2.62 19.02-6.96a24.5 24.5 0 0 1-10.03 2.13" class="cls-13" style="fill:#fff;stroke-width:0"/><path id="polygon987" d="m326.27 100.18-9.57-9.28-9.42 5.91 4.26-9.66-9.55-5 11.99-.68 4.69-8.06 1.51 8.15 10.88 2.42-8.37 4.29z" class="cls-13" style="fill:#fff;stroke-width:0"/></g></g></svg>