<svg xmlns="http://www.w3.org/2000/svg" id="Layer_1" width="529.2" height="537.2" version="1.1"><defs id="defs741"><clipPath id="clippath"><path id="path738" fill="none" d="M230.3 382.3s49 4.7 73.6 47.5c0 0 96.7 12.8 140.3-39.6 0 0 25-25.2 54-28.2 0 0-128.6-72-234.2-67.4 0 0-32.4 14.2-75.2 17.6l-41.6 24s-39 20.6-19.7 31.5a838 838 0 0 0 36.2 18.8c9.6 4.8 39.8 2.4 39.8 2.4l26.8-6.6z" style="fill:none"/></clipPath><style id="style736">.cls-2{fill:none}.cls-6{stroke:#dadd9e;stroke-width:.46px}.cls-6,.cls-7{fill:#dadd9e}.cls-6{stroke-miterlimit:10}.cls-12,.cls-2{stroke:#443619;stroke-linecap:round;stroke-linejoin:round}.cls-13{fill:#443619}.cls-2{stroke-width:7.43px}.cls-15{fill:#c4ce65}.cls-12,.cls-16{fill:#e2a554}.cls-17{fill:#717a1a}.cls-18{fill:#96a53d}.cls-12{stroke-width:14.85px}</style></defs><g id="g1061" transform="translate(-35.4 -31.4)"><path id="path745" fill="#dadd9e" d="M556.7 180a595 595 0 0 0-69.6-31.2V86.4c0-10.5-6.4-19.7-16.4-23.6l-.5-.2a486 486 0 0 0-342.5 0A25.4 25.4 0 0 0 111 86.4v65.2A598 598 0 0 0 48.7 180a14.7 14.7 0 0 0-7.9 13v126.2l-.3 19c0 17.6 5 30.1 14.8 37.2l-.8 1.2-16.6 7-1 4.5a45.2 45.2 0 0 0 4.8 34.8 30 30 0 0 0 24.5 15c17.3.6 29.7-10.4 39.8-19.3l4.3-3.7c3.5 42.4 26.7 82.2 64.9 110.7 37.3 27.8 86 43.1 137.1 43.1 51.2 0 99.9-15.3 137.2-43.1 41.6-31 65.4-75.5 65.4-122 0-8-.7-16.1-2.1-24l3.4 1.2.2.1c1.9.7 19 6.4 33.1-3.5 10-7 15.1-19.6 15.1-37.3V193c0-5.5-3-10.5-7.9-13z" class="cls-7"/><path id="path747" fill="#443619" d="M444 288.8a220.8 220.8 0 0 0-131.7-41.3c-49.1 0-95.9 14.6-131.6 41.3-39.2 29.2-61.6 71-61.6 114.6 0 43.6 22.4 85.4 61.6 114.6a220.8 220.8 0 0 0 131.6 41.3A220 220 0 0 0 443.9 518c39.2-29.2 61.7-71 61.7-114.6 0-43.6-22.5-85.4-61.7-114.6z" class="cls-13"/><g id="g759"><ellipse id="ellipse749" cx="312.3" cy="403.4" fill="#e2a554" stroke="#443619" stroke-linecap="round" stroke-linejoin="round" stroke-width="14.9" class="cls-12" rx="146.9" ry="109.5"/><ellipse id="ellipse751" cx="312.3" cy="396" fill="#e2a554" stroke="#443619" stroke-linecap="round" stroke-linejoin="round" stroke-width="14.9" class="cls-12" rx="146.9" ry="109.5"/><path id="path753" fill="#e2a554" stroke="#443619" stroke-linecap="round" stroke-linejoin="round" stroke-width="14.9" d="M312.3 286.5c-81 0-146.8 49-146.8 109.5 0 4 .3 7.8.8 11.7 32.1 34.4 85.5 57 146 57s114-22.6 146-57a77 77 0 0 0 1-11.7c0-60.5-65.8-109.5-147-109.5z" class="cls-12"/><path id="path755" fill="none" stroke="#443619" stroke-linecap="round" stroke-linejoin="round" stroke-width="14.9" d="m309.8 289 .1 101.6c0 15.4 0 30.8 1.3 46.2 1.8 22.6 6.3 44.9 13.3 66.4" style="stroke-width:14.85px;stroke-linecap:round;stroke-linejoin:round;stroke:#443619;fill:none"/><path id="path757" fill="none" stroke="#443619" stroke-linecap="round" stroke-linejoin="round" stroke-width="15.6" d="M256.8 496c7.9-3.2 16.3-6.9 20.8-14.2 6.1-10 2.5-23.2-3-33.6-9-17.1-22.5-31.4-36.3-44.9-7.5-7.3-15.2-14.5-20.4-23.6a54.8 54.8 0 0 1 4.4-59 77.7 77.7 0 0 1 29.8-22.2s42.5-22.8 101.2-6.3c18.4 5.1 32 23 38.5 41.2a79 79 0 0 1-20.3 82.4c-7.3 6.6-16.2 12.4-19.4 21.8-4.2 12.6.5 30 11.8 37.3 5.5 3.6 12 3.6 18.3 3.3 6.2-.4 12.9-.5 19.2-1.6 6.7-1.2 12.3-4.2 18.6-6.8" style="stroke-width:15.61px;stroke-linecap:round;stroke-linejoin:round;stroke:#443619;fill:none"/></g><path id="path761" fill="#443619" stroke="#443619" stroke-linecap="round" stroke-linejoin="round" stroke-width="11.1" d="M330 433.8a210 210 0 0 1-26.4-1.4l-1.3-.2-.7-1.1c-22.3-38.9-66.3-45.5-71.1-46l-26.5 6.5h-.3c-.3 0-7.6.6-16.2.6v0a64.2 64.2 0 0 1-25-3.3 741.1 741.1 0 0 1-36.3-19c-5.6-3-6.7-7-6.7-9.8.2-12 23.8-24.8 26.5-26.2l42-24.3h.6A257 257 0 0 0 263 292l.5-.2h.5l10-.2c103 0 224.4 67.3 225.6 68l7.4 4-8.4 1c-27 2.8-50.8 25.8-52.4 27.3-30.3 36.4-85.7 41.8-116 41.8z" style="fill:#443619;stroke-linecap:round;stroke-linejoin:round;stroke:#443619;stroke-width:11.14px"/><path id="path763" fill="#443619" d="m497.4 363.6 22.1 8.4s35.8 12.8 35.8-32V193c0-2-1.1-4-2.9-4.8a533.2 533.2 0 0 0-249.7-63.7A533.4 533.4 0 0 0 53 188.1a5.5 5.5 0 0 0-2.9 4.9v126.3l-.4 18.8c0 44.9 35.9 32 35.9 32l55.4-27s139.7-108 356.5 20.5z" class="cls-13"/><path id="path765" fill="#443619" stroke="#443619" stroke-miterlimit="10" stroke-width="27.5" d="M462.1 84.1a463 463 0 0 0-326.3 0c-1.1.5-1.9 1.3-1.9 2.3V208c0 1 .7 1.7 1.7 2.2a4.7 4.7 0 0 0 3.5 0 453.8 453.8 0 0 1 319.8 0c1 .5 2.4.4 3.4 0 1.1-.5 1.8-1.3 1.8-2.2V86.4c0-1-.8-1.8-2-2.3z" style="stroke-width:27.49px;fill:#443619;stroke:#443619;stroke-miterlimit:10"/><path id="path767" fill="#96a53d" d="M230.3 382.3s49 4.7 73.6 47.5c0 0 96.7 12.8 140.3-39.6 0 0 25-25.2 54-28.2 0 0-128.6-72-234.2-67.4 0 0-32.4 14.2-75.2 17.6l-41.6 24s-39 20.6-19.7 31.5a838 838 0 0 0 36.2 18.8c9.6 4.8 39.8 2.4 39.8 2.4l26.8-6.6z" class="cls-18"/><path id="path769" fill="#717a1a" d="M359.4 427.1c-38.2-48.2-93.6-52.5-93.6-52.5l-17.4 11.9a97.6 97.6 0 0 1 55.5 43.3s26 3.4 57-.6l-1.5-2z" class="cls-17"/><g id="g885" clip-path="url(#clippath)" style="clip-path:url(#clippath)"><g id="g849"><path id="path771" fill="#717a1a" d="M339.6 409.2c.5-.6 1-1.3 1.7-1.5h1.8c3.2.5 6.1 1.1 10.3 2.1.8.2 1.5.7 2 1.3a123 123 0 0 1 5 9.3c.1.6-.2 1.2-.5 1.7l-6.6 12.8c-.3.5-.5 1-1 1.3-.8.7-2 .7-3 .7-5.6-.2-11-.3-16.6-.7-.5 0-1 0-1.5-.4-.3-.3-.4-.7-.6-1.1a52 52 0 0 1-2.3-8c.1-1 2.2-4 3.3-5.7 3-4.6 4.9-7.7 8-11.8z" class="cls-17"/><path id="path773" fill="#717a1a" d="M361.4 423.3a5 5 0 0 1 1.3-1.9c.5-.3 1-.4 1.6-.6a39 39 0 0 1 6.2-.7c.6.2 1 .7 1.4 1.1l3 3.3.4.5v.5l-1.1 6.3-1.1 5.8c-.6 2.3-.8 4.2-1.8 6.2-.4.9-4 1.2-5.6 1.3-1.3 0-2.3-1-3.4-1.8-2.4-1.8-4-3.2-6.3-5.2-.6-.5-1.5-1-1.4-1.7 0-.6 1-1.9 1.3-2.5l2.6-5.1 2.9-5.6z" class="cls-17"/><path id="path775" fill="#717a1a" d="m358.4 412.3-.3-.5a5 5 0 0 1-.7-1.9c-.1-1 .5-2 1-2.8l5.2-7.7c.3-.4.6-.9 1-1.2l1.3-.4 3.6-.7c.4-.1.9-.2 1.3 0s.5.7.7 1.1l3.3 8.7c.1.4.3.7.2 1 0 .4-.2.6-.3.8-1.5 3-2.9 5.8-4.4 8.4l-.5.7c-.3.2-.6.2-1 .3-1.5.5-3.3.7-4.6 1-.8 0-1.6.4-2.2-.5-1.3-2-2.4-4.2-3.6-6.3z" class="cls-17"/><path id="path777" fill="#717a1a" d="m376 409.4.5-.9 1-.8a18.6 18.6 0 0 1 5.9-2.6c.4 0 .9.2 1.2.4l2.5 1.7 3.6 2.7c.4.4.9.7 1 1.2.1.5 0 1-.2 1.4a86 86 0 0 1-4.3 9.6l-.4.6-.9.2-9 .8h-.6a121.1 121.1 0 0 1-3.4-3.5c-1.2-1.5-1.2-1.6-.5-3.2l3.6-7.6z" class="cls-17"/><path id="path779" fill="#717a1a" d="m387.6 426.9.5 1a197 197 0 0 1 2 3.8c.5 1 1.4 2.5 1 3.7-.7 2.3-1.3 4.6-2.2 6.8l-1 2.4c-.2.6-.5 1.8-1.1 2-1.6.4-4-.1-6-.3-2-.2-3.5-.3-5.9-.8-1.5-.6-.9-3-.7-4.3.3-2.3.8-4.6 1.3-6.9l.9-4.6c.3-1.5.3-2.5.7-3.8.2-.8 1.2-.7 2-.8l5.5-.3c.7 0 1.5-.1 2 .4l1 1.7z" class="cls-17"/><path id="path781" fill="#717a1a" d="m369.7 448.9.7-1.2c.5-.8.6-1.3-.4-1.6a2 2 0 0 0-.8-.1l-2 .1a7 7 0 0 0-1.6.2l-1.4.7-12.9 7.5c-.2.1-.5.3-.6.6l-.1.6c0 3 .2 5.8.3 8.6 0 .4 0 .8.3 1 .7.7 2.3.2 3.2.1a55.3 55.3 0 0 0 4.9-1c1.3-.7 2-2.5 2.9-3.7a434.9 434.9 0 0 0 6.5-10.2l1-1.6z" class="cls-17"/><path id="path783" fill="#717a1a" d="m373.4 447.5 1-.2c1 0 2.2 0 3.2.2l6.5 1c.3 0 .7.1 1 .3 1.3 1.2-6.2 7.4-7.2 8.4-2 2-4 4-6.5 5.2a47.4 47.4 0 0 1-7.4 2.9c-.6.2-1.7.5-1.8-.4-.2-1.2 1.6-3 2.2-3.8l5.2-7.8 2.6-3.8c.4-.7.7-1.6 1.2-2z" class="cls-17"/><path id="path785" fill="#717a1a" d="M386.4 451.4c.2-.2.5-.4.8-.4 1-.3 2.3 1.5 3 2l2.9 3.4c.3.5 1 1.2 1 1.7.4.7-1.2 2.4-2.2 3.3l-3 3.2c-1.3 1.2-1.6 1-2.7 1.2-2.2 0-4.6 0-5.5-.4-1.2-.4-4-2.7-4.4-3.4-.2-1.2 1.6-2.3 2.3-3l7.2-7 .6-.6z" class="cls-17"/><path id="path787" fill="#717a1a" d="M389 449.3c-1.1-1.4.7-4.5 1.2-6a143.9 143.9 0 0 1 3.1-7.5c.8-.6 3.6 0 4.5 0 1.2.2 2.8-.2 2.7 1.4L400 449c0 .5 0 1-.2 1.5l-.6 1.2c-.8 1.3-3 6-4.8 4-1.8-2-3.7-4.1-5.4-6.3z" class="cls-17"/><path id="path789" fill="#717a1a" d="M362.1 445.9v-.5c-.4-.7-2-1.7-2.7-2.2l-2.4-1.8c-.8-.7-1.8-2-2.8-2.4-1-.4-1.4.4-2 1l-5.7 5.6-4.8 4.4a1 1 0 0 0-.3.4v.5c.2 1 .5 4.1 1.8 4.5l.7-.1c2.9-1 5.2-1.5 6.4-2 1.9-1 5.1-3.1 7-4l4.6-2.9c.2-.1.2-.3.2-.5z" class="cls-17"/><path id="path791" fill="#717a1a" d="M398 434c1.1 0 1.6.1 2.2-.8.8-1 1.4-2.3 2-3.4 1-1.6 1.8-3.3 2.6-5 .7-1.3 1.7-3 .3-4.2-3.2-3.1-7.5-5.3-11.3-7.5-.1 0-.3-.1-.4 0l-.2.2a37.4 37.4 0 0 0-3 6.6c-.5 1.6-2 3.4-1.7 5.2 0 .4.2.7.4 1l3.6 6.7c.7 1.3 1 1.2 2.4 1.2h3z" class="cls-17"/><path id="path793" fill="#717a1a" d="M403 416.5c.7.5 2.3 2 3.3 1.6.9-.3 1.5-3.3 1.9-4.1a7 7 0 0 0 .7-3.5c-1-1.5-3-5.2-4.2-6.6-.1-.3-.3-.4-.6-.6l-3.3-1.7c-.7-.4-1.4-.7-2.2-.7-1 0-1.6 2-2 3.3l-2.2 5.7c-.4 1.3 1.2 1.7 3.6 3.3 1.7.8 3.4 2.3 5 3.3z" class="cls-17"/><path id="path795" fill="#717a1a" d="M375 463.7c-.4-.2-.7-.5-1-.5a2 2 0 0 0-1 .2l-7.2 3.2c-.6.2-1.2.5-1.6 1-.3.5-.4 1-.5 1.6l-1.4 8v.9c.1.4.5.6.8.8 2.7 1.6 5.5 2.8 8.3 3.9 2.2.8 6.4 3.7 8.2 1.7 1.6-1.7 2.6-4.3 3.8-6.2 1-1.8 2.4-3.4 3.5-5.3l.4-.8c0-.3 0-.7-.2-1-.5-2-.4-3.5-2.5-3.8-1.9-.2-3.8 0-5.6-.6-1.5-.6-2.8-2.1-4-3.1z" class="cls-17"/><path id="path797" fill="#717a1a" d="M327.6 447.7v.1c.4.7 2.6 1 3.3 1.3l4.6 1c.9 0 1.8.1 2.7-.2.6-.2 1-.6 1.6-1l8.1-7.2c.8-.8 2.3-1.6 1-2.5-.5-.4-1.7-.2-2.4-.2l-4.2-.2c-2.5 0-5-.4-7.6-.3-2.3 0-3.8 2-4.8 3.8-.6 1-2.8 4-2.3 5.4z" class="cls-17"/><path id="path799" fill="#717a1a" d="M340 403c.4.7.7 1.4 1.3 2 1 .9 2.4 1 3.7 1.2l9.5 1h1c.3-.1.5-.4.7-.7a112.5 112.5 0 0 0 6.9-10.3c0-.3-.2-.5-.4-.8l-7-10.8c-.1-.3-.3-.6-.6-.8-.4-.2-1-.3-1.4-.3l-8-.4c-.4 0-.8 0-1.2.2-.4.1-.7.5-1 .8a68.5 68.5 0 0 0-6 9.1c-1 1.8-.6 2.4.2 4.3l2.3 5.4z" class="cls-17"/><path id="path801" fill="#717a1a" d="m372.8 396.2-.2-1.1c0-.4.3-.7.5-1l6.5-9.6.4-.5c.3-.2.7-.1 1 0 1.6.1 7.2 0 8 1.4.4.6-.5 2.5-.6 3.1a286.2 286.2 0 0 1-3 11.3c-.3 1.2-.5 1.8-1.7 2.4l-6.1 3.1c-1.6.8-2.7-3.4-3-4.3-.5-1.4-1.7-3.3-1.8-4.8z" class="cls-17"/><path id="path803" fill="#717a1a" d="M392 407.8c1.1.7 3.7-6.6 3.7-8a4 4 0 0 0-.2-1.2c-1.4-4.1-1.9-6.4-3.2-10.5-.2-.5-.6-1.1-1-.9-.3.1-.4.4-.5.7l-2.3 8c-.6 2-1.2 4.1-1.6 6.2-.2.8 0 1.2.2 2 .4 2 3.4 3 5 3.7z" class="cls-17"/><path id="path805" fill="#717a1a" d="M360.6 375.8c.4-.7.7-1.4 1.3-1.9.6-.5 1.3-.9 2-1.2l5.8-3 1.2-.3c.6 0 1.3.2 1.6.7 2.2 3.5 4.2 8 6.2 11.3.1.3.2.6.1.9 0 .3-.2.6-.4.8l-7.2 10.1-.8.8a2 2 0 0 1-1.1.3l-3.3.5h-1.4l-1-1a103 103 0 0 1-5.5-9c-1-1.8-1.3-2.1-.3-4l2.8-5z" class="cls-17"/><path id="path807" fill="#717a1a" d="m338.3 406.2-.3-1.2c-.6-2.3-1.4-7.5-4-8.4-2.2-.8-4.5 1.4-6.4 2.3l-6.9 3.2c-.4.2-.8.4-1 .7a3 3 0 0 0-.5 1.2c-.9 5-1.5 10.6-2.4 15.7-.1.6-.2 1.3.2 1.7.2.3.6.4 1 .6 2.4.7 4.6 1 7 1.5 2.7.5 3.1-1.5 4.5-3.5l5-7.8c1.1-1.6 2.3-3.1 3.3-4.7l.4-1v-.3z" class="cls-17"/><path id="path809" fill="#717a1a" d="M328.9 438.8c.1-1-.2-2-.5-3l-2.4-7.7c-.2-.5-.4-1.1-.8-1.5-.3-.4-.7-.6-1.2-.8-2-.8-4-1.5-6-1.9h-1.2l-.8.6c-3.5 3.5-6.3 7.4-9.7 11-.2.3-.5.6-.5 1 0 .3 0 .6.2 1 1.3 2.7 2.1 5.2 3.6 7.9.9 1.5 2.3 4.7 3.7 5 1.6-.3 3.3-1.2 4.8-1.9l5.5-2.5c1-1 4.3-5.4 5.2-7.3z" class="cls-17"/><path id="path811" fill="#717a1a" d="M341.3 457.8c-.6.4-1 1-1.4 1.6l-6.8 10.5c-.3.4-.5.9-.6 1.4 0 .4.3.8.5 1.2 1.2 2.3 2.5 4.5 4 6.6.8 1 1.4 2.3 2.4 3.2 2.5 2.3 4.4-3 5.2-4.8a117.4 117.4 0 0 0 4.7-11.9v-1.7c-.2-1.9.2-6.2-1.7-7.2-1.8-.9-4.8 0-6.3 1z" class="cls-17"/><path id="path813" fill="#717a1a" d="m357.8 466.6-4.8 1c-.4.1-1 .3-1.3.6a2 2 0 0 0-.5.9l-6.2 12.5c-.2.4-.4.8-.4 1.2.1 1.7 1.4 2.4 2.5 3.3l4.6 3.4c1.6 1.1 3.5 3 4.4.6l2.6-7.4c.7-2.3 1.6-4.8 2-7.3.2-1.5.7-3.2 1-4.8.1-1 .7-2.3.2-3.3-.8-1.6-2.8-.8-4.1-.7z" class="cls-17"/><path id="path815" fill="#717a1a" d="m338.3 458.1.5-1-.1-1-.5-2.3-.3-.6c-.2-.3-.6-.4-.9-.5l-9-2.8-2.7-.6-2 .2a40 40 0 0 0-9.6 3l-1.1 1.5-7.6 11.8c-.2.3-.4.6-.3 1l.4.7 2 1.9c.3.4.7.8 1.2 1l1.5.3c5.3.4 10.8.7 16.2.7 4.1 0 5.4-1.9 7.4-5.3a203 203 0 0 1 5-8z" class="cls-17"/><path id="path817" fill="#717a1a" d="M332.5 391.5c.7.3 1.5.7 2.2.5 1.3-.4 2.2-2.6 2.9-3.6l3.4-5c.4-.6.7-1.2.8-1.8a44 44 0 0 0-6.7-13.3c-.3-.2-.6-.1-.8-.1-3 .2-6 .5-8.9 1-1.5.2-5.6.2-5.8 2.4a58 58 0 0 0-.4 7.2c0 1-.7 3.3-.3 4.2.3.7 1.6 1.4 2.2 1.9 3.4 2.7 7.5 4.5 11.4 6.6z" class="cls-17"/><path id="path819" fill="#717a1a" d="m319.5 386.7-2.1-1-1.2-.3c-.4 0-.7.2-1 .3-3.7 1.9-7.2 4-10.9 6-.4.2-.9.4-1 .9-.3.3-.4.7-.3 1 .3 2.4 0 6 .6 6.6.5.5 1.6.2 2.3.3l3.6.7 5 1c.7.1 1.4.3 2.1.2.7-.1 1.3-.5 1.8-.8 2.5-1.4 4.9-3 7.4-4.1.8-.4 4.9-2 4.6-3.3-.1-.4-.4-.6-.6-.9-.4-.4-1.5-.8-2-1.2-3-2-5-3.3-8.4-5.3z" class="cls-17"/><path id="path821" fill="#717a1a" d="m313.2 423.5.5-.9c.2-.3.2-.7.3-1l1-6.8.7-5c.2-1 .8-2.8.6-3.7-.4-1.9-4.2-2.3-5.7-2.6-2.3-.5-4.5-.7-6.7-1.1-.3 0-.6-.1-.8 0-.3 0-.5.3-.7.5l-8.6 11c-1 1.3-.1 3.4.2 5 .4 2 1.1 5.9 1.6 7.8.5 1.3 3 3.2 6.6 6.6 2 1.9 4-1.5 5.4-3 1.9-2.2 3.7-4.3 5.4-6.6l.2-.3z" class="cls-17"/><path id="path823" fill="#717a1a" d="M309.6 453.6c.2-.3.3-.7.3-1l-.3-1.2-3.2-5.9c-1-2-2.2-5-5.2-4.5l-6.8 1.3c-1.8.4-5.1.5-5.9 2.5l-4.3 11.5c0 .4-.2.7-.1 1 0 .4.3.7.5 1 2.5 2.6 5.2 5 8.1 7.3.5.4 1 .9 1.7.9a25 25 0 0 0 4.7-.5l2.2-.5c.8-.1 1.6-.3 2-1.1l1.8-3 4-6.9.5-.9z" class="cls-17"/><path id="path825" fill="#717a1a" d="M317 372c0-.5 0-1.1-.2-1.6s-.7-.9-1.2-1.2l-8.2-5.5c-1-.7-2.2-1.5-3.5-1.8-.3-.1-.6-.2-.9 0-.3 0-.5.3-.7.5a402.8 402.8 0 0 0-9.7 11.7c-.5.7-2.5 2.3-2.5 3.2 0 1 1.6 2.4 2.2 3.1a211.7 211.7 0 0 0 9 10.6c.5 0 .9-.2 1.2-.4l11.9-6.9c.7-.5 1.6-.8 2-1.5.3-.8.2-2.4.2-3.3.2-2.3.4-4.6.4-6.9z" class="cls-17"/><path id="path827" fill="#717a1a" d="m354.1 366.7-.2-.6c-.1-.3 0-.6 0-.8.5-1.9 3.5-10.1 4.7-10.8 1-.2 5.9 2.3 8.2 3.4 1.7.8 3.6 1.2 5 2.3 2.4 1.7.3 4-.7 6-.1.4-.3.8-.6 1-.3.4-.7.6-1.1.8l-4.5 2.5c-1.2.7-3 2-4.6 1.4-1.5-.5-5-3.6-6-4.9l-.2-.3z" class="cls-17"/><path id="path829" fill="#717a1a" d="M358.6 373.7c-.5-.6-1.5-1.2-2-1.6l-7.5-5.8-8-6.3c-2.8-2-3.3 1.8-4.2 4-.2.5-.4 1.1-.3 1.7a333.1 333.1 0 0 0 8.4 15.1 4 4 0 0 0 2.1.5c2.1 0 6.7 1 8.4-.3 1-.9 1.8-2.8 2.3-4 .3-.6 1.2-1.9 1-2.6 0-.2 0-.4-.2-.7z" class="cls-17"/><path id="path831" fill="#717a1a" d="M338.2 484.6c.2.3.4.7.4 1 .1.5 0 1-.1 1.3l-1.3 4.6c0 .2-.1.5-.3.6-.2.3-.6.3-1 .4l-12.1 1.6h-1.7l-1.7-.8c-4.3-2.3-7.2-4.6-11.5-7-.3-.1-.6-.3-.8-.7v-.7l1-12 .2-.5c.2-.2.4-.2.6-.2 5.8.3 13.3.5 19.3.9 1.7.2 2.4.3 4 3l5 8.5z" class="cls-17"/><path id="path833" fill="#717a1a" d="M305.8 471.3c.3.4.6.8.7 1.2.1.6 0 1.1 0 1.6l-1.2 10.1c0 .6-.2 1.1-.4 1.7-.3.7-.9 1.3-1.4 1.9-1.6 1.8-3.4 4.5-5 6.4-1.2 1.7-4 5.1-5.3 6.7-2 2.1-2.9-.3-4.4-1.5-1.5-1-3.5-5.1-5-6.2-1-.7-1.2-2-.7-3l9.9-19.8c.6-1.2 1.3-1 2.5-1.3 2.6-.6 6.2-1 7-1 1.3.3 2.5 2.1 3.3 3.2z" class="cls-17"/><path id="path835" fill="#717a1a" d="M294 428.8c-1.6-1-1.8-1.4-3.7-1.7-2-.4-5.2-1.5-7.3-1.8h-1.2a56.3 56.3 0 0 0-5.7 11.5v.6c0 .2.2.3.4.4 3 1.6 6.4 2.5 9.7 3.4 2.6.7 4.1-.4 6.7-.4 2.5 0 4.7-.8 7.6-1l2.5-.9c.2-1 .2-1.7-.2-2.6-.4-.5-.9-1-1.4-1.3-2.3-1.9-4.8-4.5-7.4-6.2z" class="cls-17"/><path id="path837" fill="#717a1a" d="M376.3 372.6c-1.3-2.2-3.1-5.2-3-6.2 0-1.3 2.5-4.5 3.7-6.4l7.4-11.8c.4-.5 1.1-.8 1.6-.4 6 4 12 7.7 17 12.6.4.4.5 1 .3 1.4-3.7 6.8-8.7 12.8-13 19.2a3 3 0 0 1-1.3 1.2c-.5.2-1 .1-1.6 0-2.1-.3-5.6-.1-7.1-1.8-1.1-1.9-2.7-5.3-4-7.7z" class="cls-17"/><path id="path839" fill="#717a1a" d="M403.5 366c.4-.5 1-1 1.6-1l.8.6 6.7 6.6c.4.4.9 1 1 1.5 0 .5-.2 1-.4 1.5-3.5 8.3-9.3 16-14.5 23.3 0 .2-.3.4-.5.4l-.3-.4c-2.3-4.2-3.2-9.1-5.1-13.5-1-2.2-1.2-3 .5-5.3a367 367 0 0 1 10.2-13.7z" class="cls-17"/><path id="path841" fill="#717a1a" d="M402.2 438.1c0-.3 0-.6.2-.9.5-.5 1.2-.2 1.9 0 3 .7 4.9 1.5 7.6 2.1.5.2 1.1.3 1.3.8.1.3 0 .6-.1 1-1 2.5-2 5-2.9 7.7a7.1 7.1 0 0 1-2 3.3c-1.9.2-5.7-1.5-6-2.3a24 24 0 0 1-.2-6l.2-5.7z" class="cls-17"/><path id="path843" fill="#717a1a" d="M389.4 468c.1-.4.3-.7.6-1l10.4-13 .7-.6a3 3 0 0 1 1.3-.3c2.1 0 4.1 1 5.8 2.3 1.7 1.3 3.4 2.9 4.8 4.5 1.4 1.5 2.7 2.6 4 4.2.3.2.5.5.6.9a1124.4 1124.4 0 0 1-8.6 17.6c-.3.5-.6 1-1 1.2-.5 0-1-.1-1.4-.4-4-2.5-8-5.3-11.7-8.2-2.2-1.8-6.3-3.7-5.5-7.2z" class="cls-17"/><path id="path845" fill="#717a1a" d="M299.4 402.7c.8-1.9.6-4 .3-6-.1-1.3-.3-2.6-.8-3.7-.4-1-1-1.7-1.6-2.4l-7.3-9.2c-.2-.2-.4-.5-.7-.6-.9-.3-1.6.6-2 1.4a69.4 69.4 0 0 1-7.8 13.6 31 31 0 0 0-3.4 5c-.3.6-.6 1.1-.4 1.7.2.4.7 1.4 1.2 1.6 3.3 1.8 6.7 8.1 7.8 9 1.2 1 5 1 6.4.1 1.6-1 2-2.4 3.2-3.9 1.6-2.1 4-4 5-6.6z" class="cls-17"/><path id="path847" fill="#717a1a" d="M290.8 416.4c-.1-.2-.2-.5-.4-.6a1 1 0 0 0-.7-.3 27 27 0 0 0-4-.3c-.4 0-.8 0-1 .4-.2.1-.2.3-.3.5l-1.4 5c-.2.7-.3 1.4.1 1.9.2.3.6.4 1 .5 1.6.5 7.1 2.8 8.3 1.3 1.3-1.7-1.1-6.7-1.6-8.4z" class="cls-17"/></g><g id="g883"><path id="path851" fill="#96a53d" d="M282.3 405c.5-.5 1-1.2 1.7-1.4h1.7c3.3.4 6.2 1.1 10.4 2.1.7.2 1.5.7 2 1.3a123 123 0 0 1 5 9.3c0 .6-.2 1.2-.5 1.7l-6.7 12.8a3 3 0 0 1-.9 1.3c-.8.7-2 .7-3 .7-5.6-.2-11.1-.3-16.6-.7-.5 0-1-.1-1.5-.4-.3-.3-.4-.7-.6-1.1a52 52 0 0 1-2.3-8c.1-1 2.2-4 3.3-5.7 3-4.7 4.9-7.7 8-11.8z" class="cls-18"/><path id="path853" fill="#96a53d" d="M304 419.1c.4-.6.8-1.4 1.4-1.8.5-.3 1-.4 1.6-.6a39 39 0 0 1 6.1-.7c.6.2 1 .7 1.5 1.1l3 3.3.4.4v.6l-1.1 6.2c-.4 1.9-.7 4.1-1.2 6-.5 2.2-.7 4-1.7 6.1-.4.9-4 1.2-5.6 1.3-1.3 0-2.3-1-3.4-1.8-2.4-1.8-4-3.2-6.4-5.2-.5-.5-1.4-1-1.4-1.7s1-1.9 1.3-2.5l2.7-5.1 2.9-5.6z" class="cls-18"/><path id="path855" fill="#96a53d" d="m301 408.1-.2-.4a5 5 0 0 1-.7-1.9c-.1-1 .5-2 1-2.8l5.2-7.7c.3-.4.6-.9 1-1.2l1.3-.4 3.5-.7c.5-.1 1-.2 1.4 0 .3.2.5.7.7 1 1 3 2.2 6 3.3 8.8l.2 1c0 .3-.2.6-.3.8-1.5 3-2.9 5.8-4.4 8.4l-.5.7c-.3.2-.6.2-1 .3-1.5.5-3.3.7-4.6 1-.8 0-1.6.4-2.2-.5l-3.6-6.3z" class="cls-18"/><path id="path857" fill="#96a53d" d="m318.7 405.3.5-.9 1-.8a18.6 18.6 0 0 1 5.9-2.6c.4 0 .8.2 1.2.4.9.5 1.7 1 2.5 1.7l3.6 2.7c.4.3.9.7 1 1.2.1.5 0 1-.2 1.4a86 86 0 0 1-4.3 9.5l-.4.7-1 .2c-2.9.3-5.9.6-8.8.7h-.7a121.1 121.1 0 0 1-3.4-3.5c-1.2-1.4-1.2-1.5-.5-3.1l3.6-7.6z" class="cls-18"/><path id="path859" fill="#96a53d" d="m330.3 422.8.4 1a197 197 0 0 1 2 3.8c.6 1 1.5 2.4 1 3.7-.6 2.3-1.2 4.6-2 6.8l-1 2.4c-.3.6-.6 1.8-1.3 2-1.5.4-4-.1-6-.3-2-.2-3.4-.3-5.8-.8-1.6-.6-.9-3-.7-4.3.3-2.3.8-4.6 1.3-6.9l.8-4.6c.4-1.5.3-2.5.8-3.8.2-.8 1.2-.7 2-.8l5.5-.3c.7 0 1.5-.2 2 .4.4.4.7 1 1 1.7z" class="cls-18"/><path id="path861" fill="#96a53d" d="m312.4 444.8.7-1.2c.5-.8.6-1.3-.4-1.7a2 2 0 0 0-.8 0l-2 .1a7 7 0 0 0-1.6.2l-1.5.7-12.8 7.5c-.3.1-.5.3-.7.6v.6c0 2.9.2 5.8.3 8.6 0 .4 0 .8.2 1 .7.7 2.4.2 3.3.1a55.3 55.3 0 0 0 4.9-1c1.3-.8 2-2.5 2.9-3.8a434.9 434.9 0 0 0 6.5-10l1-1.7z" class="cls-18"/><path id="path863" fill="#96a53d" d="m316.1 443.4 1-.2c1 0 2.1 0 3.2.2l6.5 1c.3 0 .7.1 1 .3 1.3 1.2-6.3 7.4-7.2 8.4-2 1.9-4 4-6.5 5.2-2.4 1.1-4.9 2-7.4 2.9-.7.2-1.7.5-1.9-.4-.2-1.2 1.6-3 2.2-3.8l5.3-7.8 2.5-3.9c.5-.6.7-1.5 1.3-1.9z" class="cls-18"/><path id="path865" fill="#96a53d" d="M331.6 445.2c-1-1.4.8-4.5 1.3-6a143.9 143.9 0 0 1 3.1-7.5c.8-.6 3.5 0 4.5 0 1.2.1 2.7-.2 2.7 1.4l-.5 11.7c0 .5 0 1-.2 1.5l-.6 1.2c-.8 1.3-3 6-4.8 4l-5.5-6.3z" class="cls-18"/><path id="path867" fill="#96a53d" d="M304.8 441.8v-.5c-.4-.8-2-1.7-2.7-2.2l-2.4-1.8c-.8-.7-1.8-2-2.8-2.4-1-.4-1.4.3-2 1l-5.7 5.6-4.8 4.4a1 1 0 0 0-.3.3v.6c.2 1 .5 4 1.7 4.5l.8-.1c2.8-1 5.2-1.5 6.4-2 1.9-1 5-3.1 7-4.1 1.2-.6 3.8-2.4 4.6-2.8l.2-.5z" class="cls-18"/><path id="path869" fill="#96a53d" d="M340.7 430c1 0 1.6 0 2.2-.9.8-1 1.4-2.3 2-3.4 1-1.6 1.8-3.3 2.6-5 .6-1.3 1.7-3 .3-4.2-3.2-3.1-7.5-5.3-11.3-7.5-.1 0-.3-.1-.4 0 0 0-.2 0-.2.2a37.4 37.4 0 0 0-3 6.6c-.5 1.6-2 3.4-1.7 5.2 0 .4.2.7.4 1l3.6 6.6c.7 1.4 1 1.3 2.4 1.3h3z" class="cls-18"/><path id="path871" fill="#96a53d" d="M270.3 443.6v.1c.4.7 2.6 1 3.3 1.3l4.6 1c.9 0 1.8.1 2.7-.2.6-.2 1-.6 1.6-1l8-7.3c1-.7 2.4-1.5 1.1-2.4-.5-.4-1.7-.2-2.4-.2l-4.2-.2c-2.5 0-5-.4-7.6-.3-2.3 0-3.8 2-4.8 3.8-.6 1-2.8 4-2.3 5.4z" class="cls-18"/><path id="path873" fill="#96a53d" d="M282.7 398.8c.4.8.7 1.5 1.3 2 1 1 2.4 1.1 3.7 1.3l9.5 1h.9a112.5 112.5 0 0 0 7.6-11c0-.3-.1-.5-.3-.8l-7-10.8c-.1-.3-.3-.6-.6-.8-.4-.3-1-.3-1.4-.3l-8-.4c-.4 0-.8 0-1.2.2-.4.1-.7.5-1 .8a68.5 68.5 0 0 0-6 9.1c-1 1.8-.6 2.4.2 4.3l2.3 5.4z" class="cls-18"/><path id="path875" fill="#96a53d" d="m281 402.1-.3-1.3c-.6-2.2-1.4-7.4-4-8.3-2.2-.8-4.5 1.4-6.4 2.3l-7 3.2-1 .7-.4 1.2c-.9 5-1.5 10.6-2.4 15.7-.1.6-.2 1.3.2 1.7.2.3.6.4 1 .5 2.4.8 4.6 1 7 1.6 2.6.5 3.1-1.5 4.4-3.5l5.2-7.8c1-1.6 2.2-3.1 3.2-4.8l.4-.8v-.4z" class="cls-18"/><path id="path877" fill="#96a53d" d="M271.6 434.6c0-1-.2-2-.5-2.9l-2.4-7.7c-.2-.5-.4-1.1-.8-1.5-.3-.4-.8-.6-1.2-.8-2-.8-4-1.5-6-1.9h-1.3l-.7.6c-3.5 3.5-6.4 7.4-9.7 11-.2.3-.5.6-.5 1 0 .3 0 .6.2 1 1.3 2.7 2.1 5.1 3.6 7.9.9 1.5 2.3 4.6 3.7 5 1.6-.3 3.3-1.2 4.8-2 1.8-.8 3.7-1.5 5.5-2.4a55 55 0 0 0 5.2-7.3z" class="cls-18"/><path id="path879" fill="#96a53d" d="m281 454 .5-1c0-.3 0-.7-.2-1l-.5-2.3c0-.2 0-.4-.2-.6-.2-.3-.6-.4-1-.5l-9-2.8a11 11 0 0 0-2.6-.6c-.7 0-1.3 0-2 .2a40 40 0 0 0-9.6 3c-.5.4-.8 1-1.1 1.5l-7.6 11.7c-.2.3-.4.7-.3 1 0 .3.2.6.4.8l2 1.9c.3.4.7.8 1.2 1 .4.2 1 .2 1.4.3 5.4.4 10.8.7 16.2.7 4.2 0 5.5-1.9 7.5-5.3a203 203 0 0 1 4.9-8z" class="cls-18"/><path id="path881" fill="#96a53d" d="M344.9 434c0-.3 0-.7.2-.9.4-.5 1.2-.2 1.8 0 3 .7 5 1.5 7.7 2.1.5.2 1.1.3 1.3.8l-.1 1-2.9 7.6a7.9 7.9 0 0 1-2 3.4c-1.9.2-5.7-1.5-6-2.3a24 24 0 0 1-.2-6l.2-5.7z" class="cls-18"/></g></g><path id="path887" fill="#c4ce65" d="m184.2 330.3 8.7-5c36.8-3.4 65.6-14 74-17.5h1c71-2 153.6 31.8 195.8 51.7l-.5.4 16.2 7a69.5 69.5 0 0 1 18.8-5S369.6 290 264 294.7c0 0-32.4 14.2-75.2 17.6l-41.6 24S116 352.7 123.3 364l61-33.7z" class="cls-15"/><path id="path889" fill="#c4ce65" d="m184.2 330.3 8.7-5c36.8-3.4 65.6-14 74-17.5h1c71-2 153.6 31.8 195.8 51.7l-.5.4 16.2 7a69.5 69.5 0 0 1 18.8-5S369.6 290 264 294.7c0 0-32.4 14.2-75.2 17.6l-41.6 24S116 352.7 123.3 364l61-33.7z" class="cls-15"/><path id="polygon891" fill="#443619" stroke="#443619" stroke-miterlimit="10" stroke-width="7.4" d="m277.5 367.1-1.2.3-32.7 17.1-12.5-2.5z" style="stroke-width:7.43px;fill:#443619;stroke:#443619;stroke-miterlimit:10"/><path id="path893" fill="#96a53d" d="M422.1 404.3a200.1 200.1 0 0 0-57.8-21.4l-23.7-4.4 19.3 14.4a277 277 0 0 1 32.5 29.7 123 123 0 0 0 33.8-16l-4-2.3z" class="cls-18"/><path id="path895" fill="#96a53d" stroke="#443619" stroke-miterlimit="10" stroke-width="7.8" d="M363.3 388.4s15.8 11.8 33.3 30.6a98.4 98.4 0 0 0 22.8-9.8c-16-8.7-35.2-16.8-56.1-20.8z" style="stroke-width:7.81px;fill:#96a53d;stroke:#443619;stroke-miterlimit:10"/><path id="path897" fill="none" stroke="#443619" stroke-miterlimit="10" stroke-width="6.7" d="M295.6 295.6s26.6 5.3 28 30.6" style="stroke-width:6.7px;stroke:#443619;stroke-miterlimit:10;fill:none"/><path id="path899" fill="#443619" d="m340.1 315.6 7.3 1.7a32.5 32.5 0 0 0-7.2-15.4l-13.2-2.5a28.6 28.6 0 0 1 13.1 16.2z" class="cls-13"/><path id="path901" fill="#443619" d="m366 322.1 7 2a33.2 33.2 0 0 0-5.3-15.4l-11.8-3.1a27 27 0 0 1 10.2 16.6z" class="cls-13"/><path id="path903" fill="#717a1a" d="m285.2 359.9-.3-.5a5 5 0 0 1-.7-1.9c-.1-1 .5-2 1-2.8l5.2-7.7c.3-.4.6-.9 1-1.2l1.3-.4 3.5-.7c.5-.1 1-.2 1.4 0 .3.2.5.7.7 1.1 1 3 2.2 5.8 3.3 8.7l.2 1c0 .4-.2.6-.3.8-1.5 3-2.9 5.8-4.4 8.4l-.5.7-1 .4c-1.5.4-3.3.6-4.6.8-.8.2-1.6.5-2.2-.4-1.3-2-2.5-4.2-3.6-6.3z" class="cls-17"/><path id="path905" fill="#c4ce65" d="M178.8 329.2c-.8.3-1.6 1-2 1.4l-7.7 5.8-8.1 6c-2.7 2.3.8 3.7 2.7 5.1.5.4 1 .7 1.5.8l1.3-.1a317.7 317.7 0 0 0 15.5-4 4 4 0 0 0 1-2c.7-2 2.8-6.2 2-8.2-.6-1.2-2.3-2.4-3.3-3.2-.5-.5-1.5-1.6-2.2-1.7l-.7.1z" class="cls-15"/><path id="path907" fill="#c4ce65" d="M154.7 339.3c-.7.3-1.5 1-2 1.4l-7.6 5.8c-2.7 2-5.5 4-8.1 6.1-2.7 2.2.8 3.6 2.7 5 .5.4 1 .7 1.5.8l1.3-.1a317.7 317.7 0 0 0 15.5-4 4 4 0 0 0 1-2c.7-2 2.8-6.2 2-8.1-.6-1.3-2.3-2.5-3.3-3.3-.5-.5-1.5-1.6-2.2-1.7l-.8.1z" class="cls-15"/><path id="path909" fill="#443619" d="M153.4 342.8c-.5.1-1 .6-1.3.8l-4.9 3.7c-1.7 1.3-3.4 2.5-5 3.9-1.8 1.4.4 2.3 1.6 3.2l1 .5.8-.1a206.7 206.7 0 0 0 9.8-2.6c.4-.3.6-.8.7-1.2.4-1.3 1.7-4 1.2-5.2-.3-.8-1.4-1.5-2-2-.4-.3-1-1-1.4-1.1a1 1 0 0 0-.5 0z" class="cls-13"/><path id="path911" fill="#c4ce65" d="m187.8 340.4.4-.8.9-.8a16.7 16.7 0 0 1 5.3-2.3c.4 0 .7.2 1 .4.9.4 1.6 1 2.3 1.5l3.2 2.4c.4.3.8.6.9 1 0 .5 0 1-.2 1.3a76.5 76.5 0 0 1-4.2 9 177.8 177.8 0 0 1-9.4.8 145 145 0 0 1-3-3.2c-1-1-1-1.2-.4-2.6l3.2-6.8z" class="cls-15"/><path id="path913" fill="#443619" d="m284.3 327-.2 7.1a834 834 0 0 0-12 5.3c-21.9 9.8-51.9 23.3-73.5 23.5-27.8.4-59.6 10.1-61 10.6h-.3c-1.4.7-30.4 13.4-48.3 31.3-5.3 2.6-10 4.3-13 3.6C66.3 406 61.8 395 64.6 380h-1.4c-3.8 5-11.9 17.6-6.7 26.6 0 0-9-3-9.6-17l-1.1.4c-1.4 6-2.8 17.8 3.6 27.7 4 6 9.6 10.5 17 10.8 16.9.6 28.5-13.6 40.4-23.1a158 158 0 0 1 95.5-34c21.5-.3 48-13 69.4-23.4 6.6-3.2 13-6.2 18-8.3l2.4-1-1-13.1-7 1.2z" class="cls-13"/><path id="path915" fill="#443619" d="M128.1 378A162.7 162.7 0 0 0 89 404.8c-5.3 2.6-10 4.3-13 3.6C66.3 406 61.7 395 64.6 380h-1.4c-3.8 5-11.9 17.6-6.7 26.6 0 0-9-3-9.6-17l-1.1.4c-1.4 6-2.8 17.8 3.6 27.7 4 6 9.6 10.5 17 10.8 16.9.6 28.5-13.6 40.4-23.1 10.4-8.4 22-15.3 34.4-20.7l-13.2-6.8z" class="cls-13"/><path id="path917" fill="#96a53d" d="m467 369.2-3.5-1.5c-25.3-10.8-75.9-28.5-130-25.8h-1.7l-.4 10.8 1.7.2c.6.1 65.8 9.3 106.4 38.7l4.6-5.1s9.2-9.3 23-17.3z" class="cls-18"/><path id="path919" fill="#443619" d="M462.7 369.4c-25.1-10.8-75.3-28.3-129-25.7l-.4 7.4c.7.1 66.6 9.2 107.8 39.3l2.7 2 2.5-2.8.5-.6c.9-.8 7.2-7 16.5-13l5.8-3.9-6.4-2.7z" class="cls-13"/><path id="path921" fill="none" stroke="#443619" stroke-linecap="round" stroke-linejoin="round" stroke-width="7.4" d="M230.3 382.3s49 4.7 73.6 47.5c0 0 96.7 12.8 140.3-39.6 0 0 25-25.2 54-28.2 0 0-128.6-72-234.2-67.4 0 0-32.4 14.2-75.2 17.6l-41.6 24s-39 20.6-19.7 31.5a838 838 0 0 0 36.2 18.8c9.6 4.8 39.8 2.4 39.8 2.4l26.8-6.6z" class="cls-2"/><g id="g933"><g id="g927"><path id="path923" fill="#96a53d" d="M187.7 331.8c3.4-1.1 6.8-2.9 9.8-5 2.6-1.9 5-4.2 6.9-7 2.6-3.9 9.7-19.6 13.5-21.5 5-2.5 32.3-1.3 37.6 1.5 5.8 2.9 21.7 7.1 24.8 12.8" class="cls-18"/><path id="path925" fill="#443619" d="m192.7 333.9-7-4.5a41.6 41.6 0 0 0 15.6-11.6c.7-1 2-3.4 3.3-6 4.8-9 8.2-15.1 11.6-16.8 6.5-3.2 35-1.7 41 1.5l6.7 2.7c8 3 21.3 9 24.2 14.3l-11 .8c-1.5-2.8-10.5-6.2-15.8-8.2-3-1.1-5.6-2-7.4-3a95.6 95.6 0 0 0-34.3-1.5c-1.8 1.2-6.3 9.7-8.5 13.8a86 86 0 0 1-3.6 6.5c-2 3-4.6 5.6-7.9 8-3.3 2.3-3.2 2.8-7 4z" class="cls-13"/></g><path id="path929" fill="#443619" d="M214.4 327.2s7-15.3 19.3-16a54 54 0 0 1 26.4 8.5l9.4 3.8-48.7 10.7s-4.8 2.9-6.4-7z" class="cls-13"/><path id="polyline931" fill="#443619" d="m251.3 322.2 6.4 12.6-18.2-4.4" class="cls-13"/></g><path id="path935" fill="#e2a554" d="M245.6 320.3a32 32 0 0 0-11-1.8c-1.6.1-3.1.5-4.5 1.1 4.7 1.3 8 4.3 8 7.8 4.4-.6 7.7-3.3 7.6-6.5l-.1-.6z" class="cls-16"/><path id="path937" fill="none" stroke="#443619" stroke-linecap="round" stroke-linejoin="round" stroke-width="7.4" d="M498.2 360.1s-119.4-74.2-225-69.5l-9.2 4" class="cls-2"/><g id="g981"><g id="g943"><path id="path939" fill="#c4ce65" d="M85.7 321.7c-2.3.9-6.9 3.8-11.2 5.9-2.6 1.2-2.6 1.2-2.7-1.6v-22.2c0-4.1 0-8.3.2-12.5.1-4.4-.2-8.6 0-13 .1-1.7.6-3.7.3-5.1-.3-1.3-.2-2.7-.2-4-.1-12.3.2-25.4.3-38 0-2.8-.2-5.6-.4-8.1-.3-4.6 0-9.4 0-14.2 0-1.4.9-2.5 1.8-3.4 1.4-1.3 3-2 4.5-2.7 2.2-1 4.4-2.2 6.6-3.5 3.6-2 7.6-3.9 11.2-5.5 2.3-1 5-2 7.1-2.6 4-1 7.8-1.5 11 .3 1 .7 2 1.8 2.6 3a42 42 0 0 1 2.5 5.6c.1.5.4 1.3.4 2.1.2 1.9.2 3.9.6 5.7.7 4.3.6 9 .6 13.8 0 3.4-.3 6.9.3 9.8.2.6.2 1.4 0 2-.2 4.7-.1 9.2-.4 13.9-.2 5.1-.1 10.2-.1 15.3 0 6.4-.2 13-.7 19.6-.3 4.6-1.3 9.1-3.6 13.8l-3.5 7.3c-.4.8-1 1.7-1.5 2.2-2.4 2.4-4.7 5.1-7.3 7-.7.6-1.5 1-2.2 1.4a394 394 0 0 0-16.1 7.7zM98 296.5c4-3 6.4-6 6.3-12v-2.7c-.1-10.8.5-20.7.1-32.4-.1-4 0-8.5-.2-12.7-.3-4.8-.2-10-.2-15.2 0-2-.2-4-.6-5.6-.8-3-2.9-4.2-5.6-3-2 .7-4.2 1.8-6.2 2.6l-1 .6c-.6.3-1 1.1-1 1.8v5.5c-.5 6.7.2 9.4 0 15.5-.3 7.8 0 15.7-.2 23.3 0 2.4.5 4.6.4 6.6-.3 5 .3 9.9 0 14.6-.2 5.2 0 10.4 0 15.7 0 .9.4 1.2 1.1 1 2.3-.8 4.9-1.9 7-3.6z" class="cls-15"/><path id="path941" fill="#c4ce65" d="M72.5 330.2c-.5 0-.8-.1-1.2-.4-1.3-.7-1.3-2-1.3-3.8l-.1-7.9v-9.9l.1-4.4.1-12.6v-12.9l.3-2c.1-1 .2-2 0-2.8-.2-1.2-.2-2.5-.2-3.7v-.5c0-7.9 0-16.2.2-24.2l.1-14-.3-8a113.2 113.2 0 0 1 0-14.2c0-1.7.8-3.4 2.3-4.7 1.6-1.5 3.4-2.4 5-3 2.2-1 4.5-2.3 6.5-3.4a100.2 100.2 0 0 1 18.7-8.3c3.3-1 8.2-1.9 12.3.4 1.4.9 2.5 2 3.4 3.7.8 1.5 1.8 3.6 2.6 5.8l.2.6c.1.6.3 1.3.3 2l.2 2.4.4 3.2c.7 4 .7 8 .6 12.3v4.1c0 2.6-.1 5 .3 7.2.2.7.2 1.7 0 2.5l-.1 6.9-.2 6.9c-.2 3.8-.2 7.6-.2 11.3v3.9c0 7-.2 13.7-.7 19.7-.4 5.5-1.6 10-3.7 14.5a268 268 0 0 1-3.6 7.3 8 8 0 0 1-1.8 2.6l-1.7 1.9a39 39 0 0 1-8.4 7c-6.5 2.9-9.6 4.4-16 7.6h-.2l-4.9 2.6c-1.9 1-4 2.3-6.2 3.3-1.1.5-2 1-2.9 1zM109.2 192c-1.6 0-3.4.3-5.5.8a130.8 130.8 0 0 0-18 8c-2 1.1-4.3 2.5-6.7 3.5a17 17 0 0 0-4 2.4c-.4.4-1 1.2-1 2.1l-.2 3.8v10.2c.3 3 .4 5.5.4 8.3l-.1 14c-.1 8-.3 16.2-.2 24v.6c0 1 0 2.1.2 3 .3 1.3.1 2.6 0 4l-.2 1.7v12.8c-.2 4.3-.2 8.5-.2 12.5v4.5l-.1 5.3v12.3c2.1-.9 4.2-2 6-3.1 2.2-1.2 4-2.2 5.4-2.8a395 395 0 0 1 16-7.6 8 8 0 0 0 1.9-1.2l.1-.1a36 36 0 0 0 5.3-4.9l1.7-1.8c.4-.4.9-1 1.2-1.7l3.5-7.4c2-4 3-8.2 3.4-13.1.5-6 .7-12.6.7-19.6v-3.8c0-3.8 0-7.6.2-11.5l.2-6.8c0-2.3 0-4.7.2-7v-1.6c-.5-2.5-.5-5.3-.4-8v-4c0-4.2 0-8-.6-11.7l-.4-3.6c0-.7 0-1.4-.2-2.2v-.2l-.2-1.4-.1-.2c-.8-2-1.6-4-2.4-5.2-.6-1.2-1.3-2-2-2.5a8 8 0 0 0-3.9-.8zM90.4 301.9c-.7 0-1.2-.2-1.4-.4-.5-.3-1.1-1-1.1-2.4v-5.2c-.1-3.5-.2-7 0-10.6v-6.9c-.1-2.5-.2-5 0-7.6l-.2-3c-.2-1.1-.3-2.3-.2-3.6v-11.3l.1-12v-6.6c-.1-2.5-.2-5.1 0-9v-5.4a4 4 0 0 1 2-3.3l1.2-.7 3-1.3 3.2-1.4c2.2-1 3.8-.5 4.8 0 1.1.5 2.6 1.7 3.3 4.3.5 1.6.7 3.7.7 6v2.6c0 4.4 0 8.6.2 12.6a118.9 118.9 0 0 1 .2 12.7c.3 6.8.1 13.1 0 19.2l-.2 13.2v2.8c.2 6.5-2.7 10-7 13.3a24.8 24.8 0 0 1-8.5 4zm1-84.1v5.6c-.3 3.8-.2 6.2-.1 8.8v18.6l-.1 11.5.1 3.2c.2 1.1.3 2.3.2 3.4v7.4c.1 2.3.2 4.8.1 7.2v14.3a20 20 0 0 0 5.1-2.7c3.7-2.9 5.7-5.4 5.6-10.5v-2.8c0-4.5 0-9 .2-13.3 0-6 .2-12.3 0-19v-5.3c0-2.4 0-5-.2-7.3-.3-4.2-.3-8.4-.3-12.8v-2.6c0-2-.1-3.8-.5-5.1-.3-1-.7-1.7-1.3-2-.5-.2-1-.2-1.8.1a122 122 0 0 0-6 2.6l-1 .7z" class="cls-15"/></g><g id="g949"><path id="path945" fill="#c4ce65" d="M176.8 284.4a11.7 11.7 0 0 1-3.8-4.5c-1.8-3.5-3-7.3-4.6-11.4-.3-2.4-1-4.6-1.7-6.7-1.2-4-2.6-11-4-14.9-.8-1.9-1-4.3-1.5-6.4-.2-1.5-1.1-1.8-2.5-1-.6 0-.9.6-1 1.1-.2 1-.1 2.2-.1 3.3 0 18.1-.2 30.8 0 45.9 0 2.2-.3 2.4-2.3 3.1-.7.3-1.6.4-2.3.6-1.6.5-3 1-4.4 1.8-1.7.9-3.4 1.6-5 1.6-.8 0-1.6.5-2.4 1-1.1.6-1.6.2-1.6-1.2V287c0-6.6-.2-13.2.2-20-.2 0 0-2-.2-2 .2-6.5 0-10.9 0-17.3 0-3.7.2-7.6-.3-11.1v-4c.4-5.8 0-11.6 0-17.3l.2-17.4c0-6.1 0-12.4.2-18.6v-2.9c.1-.5.5-1 1-1.2l2.7-1.1a61 61 0 0 0 8.7-3.5c1.6-.7 3.2-1.2 4.7-1.5 3.9-.6 8-1.9 12.2-3 1.9-.6 3.7-.8 5.4-1 3.3-.3 5.6 1.4 8 3.3.8.6 1.7 1.2 2.5 2.1.5.4 1 .8 1.3 1.4 1.6 3 3 5.9 3.5 9.6a45.8 45.8 0 0 1 .7 11.8c.6 3 .3 6.4-.2 9.6.1 1.6-.7 5.9-1 7.6-.4 3.8-1.3 7-3.1 10.5l-3 5.2c-1.3 2.2-2.4 2.6-4 4.2-.5.6-1.6 1.2-1.4 1.8.6 2.7 1.6 5.8 2.3 8.3l4.3 14.4a153 153 0 0 0 4.6 13.5c1 2.6 2.2 4.7 3.4 7 1 2 2.3 3 4 3.4.5.4 1.3.4 2 0 .5 0 .7 0 .5.9l-.8 1.5a12 12 0 0 1-6.8 5.1c-5.3 1.4-10.1 1-14.4-1.9zm-9.7-64.6a6.5 6.5 0 0 0 3-2.7 18 18 0 0 0 2.3-7.7v-6.8c.1-4.3.3-8.7-.4-12.8-.5-3-1.5-4.2-4.3-4.3-1.3 0-2.6.1-4 .9-1.4.7-2.9 1-4.4 1.5l-1.3.5a3 3 0 0 0-1 1.4v1.3c0 4.7.6 9.3 0 14.4l.2.7v6l.2 9.2c0 .7.4 1.2.9 1 3-.6 5.8-1.1 8.8-2.6z" class="cls-15"/><path id="path947" fill="#c4ce65" d="M140.3 300c-.5 0-.9-.2-1.2-.4-1-.5-1.4-1.4-1.4-2.9v-15.3c0-4.5 0-9.1.2-13.8h-.2V265a1140.2 1140.2 0 0 1 0-17.3v-2c.2-3 .2-6.1-.2-8.9a16 16 0 0 1 0-4.4c.2-3.5.1-7 0-10.5v-6.6a1462.7 1462.7 0 0 0 .3-35.4v-.7l.2-2.9c0-1.2.8-2.3 2-2.8l.4-.1c.7-.4 1.6-.8 2.4-1 2.7-.9 5.7-2 8.5-3.4 1.6-.8 3.5-1.4 5.3-1.7 3.4-.5 7-1.6 10.8-2.7l1.2-.3c2-.6 3.9-.8 5.7-1 3.8-.3 6.6 1.5 9.3 3.7a15 15 0 0 1 2.6 2.1c.5.4 1.3 1 1.7 2 1.5 2.8 3.2 6 3.7 10.2l.2 1.3c.4 3 .8 6.5.5 9.4l-.1.9a28 28 0 0 1 0 10.1 35 35 0 0 1-.7 5.8l-.3 2c-.6 4.3-1.6 7.5-3.4 11l-1.7 3-1.4 2.2a11 11 0 0 1-2.9 3.5l-1.3 1.2a7 7 0 0 1-.7.7h-.1a115 115 0 0 0 2.1 7.6 409.4 409.4 0 0 0 4.3 14.4c1.3 4.5 2.8 9 4.6 13.4.6 1.8 1.5 3.4 2.3 5l1 1.8c1 2 2 2.3 2.7 2.5h.3l.3.2.4-.1.3-.1c1.2-.3 1.9.2 2.2.6.6.6.7 1.5.4 2.5l-.1.3-1 1.7c-2 3-4.7 5-7.7 5.9-6 1.6-11.4.8-16-2.2-2-1.3-3.4-3-4.5-5.2-1.2-2.3-2.1-4.8-3.1-7.5l-1.6-4v-.5c-.3-1.9-.9-3.7-1.4-5.5l-.3-1-1.5-5.6a96 96 0 0 0-2.5-9c-.6-1.5-.9-3.2-1.1-4.8l-.3-1.5v27.1c-.1 7.2-.2 14-.1 21.3 0 3-.6 3.9-3.5 5l-1.4.3-1 .2c-1.4.5-2.7 1-4 1.7-1.6.8-3.6 1.7-5.8 1.8-.5 0-1.2.5-1.5.7-.7.4-1.4.6-1.9.6zm1.5-35.6-.2 2.7a206.4 206.4 0 0 0-.1 20v8.6c.5-.3 1.1-.5 1.8-.6h.3c1.3 0 2.9-.7 4-1.4a28 28 0 0 1 6-2.2c.4 0 .8-.2 1-.3l1-.3v-1.1l.1-21.5v-24.9c0-1 0-2 .2-3s.8-2.2 2-2.6c1.2-.6 2.3-.7 3.3-.3.7.3 1.5 1 1.9 2.6l.3 2c.3 1.5.5 3 1 4.2 1 2.5 1.8 6 2.6 9.4l1.5 5.6.2.9c.6 1.8 1.2 3.7 1.5 5.9l1.5 3.9c1 2.5 1.9 5 3 7.1a9.9 9.9 0 0 0 3.2 3.9c3.7 2.4 8 2.9 12.9 1.6a10 10 0 0 0 5.3-3.9c-.1 0-.3 0-.5-.2a8 8 0 0 1-4.9-4.2l-1-1.8a41 41 0 0 1-2.5-5.5 157.5 157.5 0 0 1-6.5-20 431 431 0 0 1-2.4-8l-.8-2.6-1.6-5.8c-.3-1.4.8-2.4 1.4-3 .2 0 .3-.2.5-.3.6-.7 1.1-1.1 1.6-1.5.9-.8 1.4-1.2 2-2.4a65 65 0 0 1 3.1-5.2 28 28 0 0 0 3-9.9l.3-2c.3-1.7.7-4.3.6-5.2v-.5c.4-2.3.9-5.7.2-8.9a37 37 0 0 0-.5-10.7l-.2-1.3c-.4-3.4-1.9-6.2-3.3-9a2 2 0 0 0-.7-.6l-.4-.4a13 13 0 0 0-2.2-1.8c-2.3-1.8-4.2-3.2-6.7-3-1.6.2-3.3.4-5 .9l-1.2.3a96.5 96.5 0 0 1-11.2 2.8c-1 .2-2.6.5-4.1 1.3a62.4 62.4 0 0 1-11.2 4.5h-.2l-.2 2.6v.7a1819.7 1819.7 0 0 0-.3 35.4v6.4c.1 3.6.2 7.2 0 10.9v3.7c.4 3 .4 6.3.3 9.4v18.7l.3-.1zm-.3-87.6zm16.6 47.5c-.5 0-1-.1-1.4-.4a3 3 0 0 1-1.2-2.5v-9.2l-.1-2a132.2 132.2 0 0 1-.2-4.7c.3-3.8.2-7.2 0-10.5l-.1-3.9.1-1.7a4 4 0 0 1 1.7-2.4 6 6 0 0 1 1.8-.8l1.3-.4c1-.3 2-.6 2.8-1a9.4 9.4 0 0 1 5-1.1c4.6.2 5.6 3 6 5.8.8 4.2.6 8.6.5 12.8v7.1c0 3-1 5.6-2.6 8.5a8.5 8.5 0 0 1-3.6 3.4 34.3 34.3 0 0 1-9 2.8l-.3.1-.7.1zm.8-18.9.1.8v4l.1 2 .1 4.6v3.6c2.4-.5 4.7-1 7-2.2 1-.5 1.7-1 2.2-1.9 1.3-2.5 2.1-4.7 2.1-7v-7c.2-4.2.3-8.4-.3-12.2-.4-2.6-1-2.8-2.5-2.8-1.1 0-2 .1-3.1.7-1.2.6-2.4 1-3.6 1.2l-1.2.4-.7.3s-.2.1-.2.3l-.1.9.1 3.7c.2 3.4.4 6.9 0 10.6z" class="cls-15"/></g><g id="g955"><path id="path951" fill="#c4ce65" d="M250 276.3c-.4-.2-.6-.1-1-.4-2.3-1.7-4.8-3.5-5.7-6.7-1-3.7-2.4-8-2.4-12.2v-.3c-.5-3.3-1.9-4.4-4.8-3.5-3.8 1.2-8 1.4-11.9 2l-1.3.4c-.5.3-1 .7-1 1.1l-1.7 9.9c-.5 2.4-1 5.8-1.3 8.2l-.6 1.6c-.2.7-.6 1.2-1.3 1.3l-4.1 1-10.5 1.7-1 .2c-.6.2-1-.4-.9-1.2.4-2.5.8-6.1 1.4-8.7 1.2-7 2.7-14.1 3.7-21.2.6-3.7 1.5-7.3 1.5-11 0-1.5.4-3 .8-4.4.8-3.7 1.2-7.3 1.8-11.1.2-2 .7-4.3 1-6.5a86 86 0 0 0 1.1-8.5c.2-3 .7-6 1.2-8.9.9-4.8 2-9.8 2.8-14.7.5-2.6.7-5.5 1.1-8.1.7-4.5 1-9.1 1.6-13.4l1.5-7.3c.3-.9 1.1-1.6 1.9-1.7l5.3-.6c4.5-.3 8.7-1.8 13.3-2l2.4-.3c1 0 1.6.5 1.8 1.4.8 3.2 1.2 6.4 1.6 9.7l1.8 11.6c.3 2.7.5 5.5.9 8.2.4 2.8.6 5.3 1.3 7.9 1.2 5.7 1.9 11.6 2.7 17.4l2.7 21.3 1.5 13.7c.6 5.3 2 10.3 2.5 15.6.3 2.4.7 5 1.3 7.4.7 2.2 1.9 5.2 3.8 6.6.7.6 1.7.4 0 2a10.8 10.8 0 0 1-8.6 3.2c-2.1-.1-4.2-.5-6.2-.7zm-16-41.7c1-.1 1.8-.4 2.7-.4 1.2 0 1.6-.7 1.5-2.2-.6-4.5-1.4-9-1.8-13.6-.5-5.8-1.1-11.5-2-17.2-.9-4.8-1.3-9.2-2-14l-.3-.8c-.4 0-.6.4-.7.7-.1 1.4-.4 2.4-.7 3.8l-1 7.3c-.4 2.1-.9 4.4-1.1 6.4-.6 4.8-1 9.9-1.4 14.7l-.3 1-1.7 14c-.2 1.3 0 1.8 1 1.6 2.6-.4 4.9-.4 7.8-1.3z" class="cls-15"/><path id="path953" fill="#c4ce65" d="M201.2 282.5c-.6 0-1.2-.2-1.7-.7-.7-.6-1-1.6-.8-2.6l.4-3c.3-2 .6-4.1 1-5.8l1.4-8 2.3-13.2.6-3.3c.4-2.5.8-5 .9-7.3 0-1.8.4-3.4.8-5 .7-3 1-6 1.5-9.1l.2-1.8.7-4 .4-2.5a97 97 0 0 0 1-8.4c.3-3 .8-6 1.3-9l1.3-7 1.5-7.7.6-4.4.5-3.7.8-7 .8-6.4 1-5.4.5-2.2c.5-1.3 1.8-2.8 3.5-3l5.4-.5c2-.2 4-.6 6.1-1 2.3-.4 4.7-1 7.1-1l2.5-.4h.2c1.7.1 3 1.2 3.5 2.8a65 65 0 0 1 1.7 10l.7 5a647.5 647.5 0 0 1 1.4 10.6l.5 4.2.3 1.7c.2 2.1.5 4 1 6 1 4.5 1.6 9.2 2.2 13.8l.5 3.8 2.8 21.2a426 426 0 0 0 2.6 21c.5 2.7 1 5.5 1.3 8.4.3 2.8.8 5.1 1.3 7.1.8 2.7 2 4.8 3.1 5.7l.2.1c.4.2 1.3.6 1.5 1.7.1 1.2-.7 2-1.5 3-2.8 2.6-6.3 4-10 3.6-1.5 0-3-.3-4.3-.5-.7 0-1.4-.2-2-.3h-.5c-.3-.1-.9-.2-1.5-.7-2.5-1.9-5.3-4-6.3-7.7l-.5-1.7c-.9-3.2-1.9-6.8-2-10.5v-.5c-.3-1.7-.7-2-.8-2.1-.2-.2-.7-.2-1.5.1-3 1-5.9 1.3-8.8 1.7a112.7 112.7 0 0 0-4.2.7h-.1L222 267l-.9 5.3-.4 2.9v.3l-.6 1.6c-.8 1.8-2 2.4-2.8 2.5l-1.9.4-2.2.5-5.5 1-5 .8-1 .2h-.6zM221.8 156l-.4 1.9c-.4 1.8-.8 3.5-1 5.2l-.8 6.3-.8 7-.5 3.7a89.3 89.3 0 0 1-2 12.3 258.5 258.5 0 0 0-2.6 15.6 98 98 0 0 1-1.1 8.7l-.4 2.5a104 104 0 0 0-.7 4l-.2 1.7a113 113 0 0 1-2.3 13.6c0 2.7-.5 5.4-1 8l-.5 3.1-2.3 13.3-1.5 8-.9 5.7-.2 1.9 4.5-.8a710.4 710.4 0 0 1 9.4-1.8l.1-.2.5-1.4a185.9 185.9 0 0 0 1.3-8.2l1.7-9.9c.2-1 1-1.7 2-2.2a7 7 0 0 1 1.9-.6l3.5-.5c2.7-.3 5.5-.7 8-1.5 2-.6 3.5-.5 4.8.3 1.2.8 2 2.2 2.3 4.4a39 39 0 0 0 2 10.8l.6 1.8c.7 2.5 2.6 4 5 5.6l.2.1c.7 0 1.3.2 2 .3l4 .5c2.6.2 4.8-.6 6.8-2.4a16 16 0 0 1-4-7.2 45 45 0 0 1-1.3-7.7c-.3-2.7-.8-5.4-1.3-8-.5-2.5-1-5-1.2-7.6l-1.5-13.7-2.8-21.2-.5-3.8a185.4 185.4 0 0 0-3.2-19.7l-.2-1.8-.5-4.3-.4-3.9-1-6.5-.8-5.1c0-.8-.2-1.5-.3-2.3a54 54 0 0 0-1.2-7.2v-.1l-2.3.3c-2.3.1-4.4.5-6.7 1-2.1.4-4.3.9-6.6 1l-5.2.6-.4.4zm-5.1 120zm6.9-18.6zm2.2-19.7c-.7 0-1.3-.2-1.8-.6-1-.9-.8-2.2-.8-3l1-7a489.8 489.8 0 0 1 1.1-8.3l.2-2.5 1.1-11.9.6-3.7.5-2.8.3-2.1a132.3 132.3 0 0 1 1-6.6l.5-2.2v-.5c.9-2.1 2.5-2 3-1.8l1.3.3v1c.2.2.4.5.4 1l.7 5.3 1.2 8.6c.8 5.2 1.5 11 2 17.3a164 164 0 0 0 1.8 13.6c0 .6.2 2.2-.9 3.3-.4.4-1.1 1-2.4 1h-1.4l-.9.2c-2.1.7-4 .9-5.7 1l-2.2.4a4 4 0 0 1-.6 0zm2.8-16.8-.8 6.6-.8 6.5 1.2-.2a29 29 0 0 0 5.2-1h.2l.9-.1 1.7-.3v-.2l-.7-5.4c-.4-2.7-.8-5.5-1-8.2a232.3 232.3 0 0 0-2.8-22.2l-.3 2-.5 3-.6 3.4c-.4 3.9-.8 8-1 11.8l-.4 4.2h-.2z" class="cls-15"/></g><g id="g961"><path id="path957" fill="#c4ce65" d="M291.8 271.5c-3.4-.7-7-2-9.5-4.5a33.4 33.4 0 0 1-7-13c-.6-2.2-.8-4.6-.7-6.8 0-4 0-8.4.4-12.5a27 27 0 0 0-.1-5c-.4-3.9-.5-8.4-.2-12.4.7-6.6.3-13.1.4-19.4 0-1.8 0-4-.4-5.7-.3-.8-.2-1.7 0-2.6.4-2 .5-4.6.1-6.7-.6-3.6-.1-7.8.2-11.4.4-5.4 2-10.5 5.7-14.5.2-.3.5-.6.6-1 4-5 9-7.8 14.6-9a15.7 15.7 0 0 1 8.8 0c4.2-.5 7.7 2.2 11.3 4a22.3 22.3 0 0 1 8.3 12.6c.3 1.7 1.1 3.4 1.5 5.3.3 1.2.5 2.6.5 4 0 2.3-.1 5-.3 7.4-.2 3.8-1.8 7-4.3 9.5-.8.7-1.6 1.3-2.7 1.6-1.4.4-3 1-4.4 1.2-.8.2-1.6.1-2.5 0-2-.5-4-1.1-5.7-2a6.4 6.4 0 0 1-2.9-2.8v-.7a5 5 0 0 1 1.2-.8c2-1 3-2.7 3.6-4.7 1-4 1-8-.3-11.7a5 5 0 0 0-3.5-3.8 9.3 9.3 0 0 0-7.3.7 6 6 0 0 0-3.3 5.5c-.1 2.6-.8 5.4-.3 7.9.3 1.6.2 3.5-.2 5.5-.3 1.4-.1 3-.1 4.3.4 13-.6 21.3-.1 38.8 0 1.6-.1 3.3-.3 4.8-.4 4.4-.3 9 .5 13.4.4 2.1 1.2 4 2.9 5.3a5 5 0 0 0 3.3 1h2.9a4 4 0 0 0 2.5-.8c2.3-2.2 3.8-4.7 4-8.2V241l.2-12.3v-4c0-.8 0-1.7-.6-1.7-1.4 0-3.5.2-5.2 0-1.1 0-1.7-.6-1.8-2-.2-1.6-.1-3.2-.2-4.6v-10c0-.6.7-1.2 1.3-1.2 1.9 0 3.8-.3 5.5.2 1.9.5 3.6.5 5.3.1 3.7-.8 7.5 0 11.2.6.6.2 1 .8 1.2 1.4v2.3c-.3 4.3 0 8.4 0 12.6v13c-.1 5.5-.4 8.9-.4 14.4 0 3.6.4 6.8 0 10.3.4 1.7-.1 3.2.1 5.1v2.6c0 2.5-.1 2.8-2.3 2.5l-1.3.1c-1.4-.5-3-.4-4.3-.3-1.1 0-2-.4-2.6-1.6l-1-2.2c-1.3-2.7-1.4-2.7-3-.4-1 1.4-2.3 2-3.4 2.9a10.6 10.6 0 0 1-4.5 2.3c-1.3.3-2.8.7-4.1.6-1.4-.2-2.7 0-3.8.2-1.2 0-2.5-.2-3.5-.4z" class="cls-15"/><path id="path959" fill="#c4ce65" d="M294.7 273.7c-1.3 0-2.5-.3-3.4-.5a19 19 0 0 1-10.3-5c-4-4.2-6.2-9.8-7.4-13.8-.7-2-1-4.5-.9-7.3v-3.8l.4-8.8a25 25 0 0 0-.1-4.6c-.4-4.6-.5-9.1-.1-12.7.4-4.4.4-9 .3-13.2v-6.1c0-1.8 0-3.7-.3-5.2-.3-1-.3-2.2 0-3.4.3-1.9.4-4.3 0-6.2-.5-3.5-.2-7.6.2-11.1v-.7c.6-6.5 2.6-11.6 6.2-15.5l.3-.4.2-.4c4-5 9-8.3 15.7-9.8 2.4-.6 5.7-1.2 9-.2h.3c3.7-.2 7 1.6 9.8 3.1l2.1 1.2c1 .3 1.7 1 2.2 1.6 3.2 3.5 6.3 7 7.3 12.4 0 .8.4 1.6.7 2.5a24.6 24.6 0 0 1 1.3 7.1l-.3 7.5c-.3 4-2 7.6-4.8 10.6-1 .8-2 1.7-3.6 2.1l-1.6.5-3 .8c-1 .1-2.1.1-3.2-.1a34 34 0 0 1-6.2-2 8.1 8.1 0 0 1-3.6-3.6c-.5-.8-.4-2 .2-2.8l.3-.3 1.5-1a5.6 5.6 0 0 0 2.6-3.5c.9-3.8.8-7.5-.3-10.7-.3-1.4-1.1-2.3-2.2-2.5a7.3 7.3 0 0 0-5.8.4 4.6 4.6 0 0 0-2.5 4l-.2 3c-.2 1.6-.4 3.2-.1 4.5.4 1.9.3 4-.2 6.3a14 14 0 0 0 0 2.8v1.1c.1 6 0 11-.1 16.4-.2 6.4-.3 13 0 22.4l-.3 5a48 48 0 0 0 .4 12.8 7 7 0 0 0 2.3 4.3c.5.4 1.3.7 2.1.7h2.7l1.5-.5c2.1-2 3.2-4.2 3.3-6.8v-1.1l.1-2.3v-6.1l.2-6.2v-3.8h-4.1c-1.2 0-3.3-.6-3.6-3.6l-.1-3.6v-11.2c0-1.6 1.5-3 3-3h1.5c1.5-.1 3-.2 4.6.2a7 7 0 0 0 4.3.1c3.5-.7 6.7-.2 9.9.3l2 .3h.2c1.3.4 2.3 1.5 2.6 2.9l.1 2.4v.4c-.2 2.6-.2 5.2-.1 7.8v17.5l-.2 7.3-.2 7.2.1 3.4c.1 2.2.2 4.4 0 6.8v7.8c0 1.4 0 2.8-1 3.7-1 .8-2.2.7-3.2.6l-1.5.1-.4-.1a8 8 0 0 0-3.5-.2c-1.9.1-3.5-.9-4.4-2.7l-.3-.7-.7-1.3c-.8 1-1.7 1.6-2.5 2.2l-1 .7a14 14 0 0 1-5.3 2.7l-.6.1c-1.3.3-2.7.7-4.2.5l-2.4.1-1 .1h-.7zM282.9 157c-.2.5-.5.8-.8 1.1a22 22 0 0 0-5.3 13.5v.7a43 43 0 0 0-.2 10.3 22 22 0 0 1-.1 7.4c-.2.7-.2 1.3 0 1.8.5 2 .4 4.1.4 6v6.1c0 4.4.1 9-.3 13.6a70 70 0 0 0 .1 12.1c.2 1.6.3 3.4.1 5.3a115.2 115.2 0 0 0 .3 18.5 32 32 0 0 0 6.6 12.4c2.3 2.4 6 3.4 8.5 4a9.2 9.2 0 0 0 3.8.2c1-.1 2-.2 3.3-.1.8.1 1.8-.2 2.8-.4l.7-.2c1.5-.3 2.2-.8 3.8-2l1.1-.8c.8-.5 1.4-1 1.8-1.6 1-1.4 1.9-2.5 3.4-2.4 1.5.1 2 1.4 2.8 3l.8 1.6.3.6c.3.7.5.6.7.6 1.4-.1 3.1-.2 4.7.3h1.5v-8.1l-.1-.3v-.3c.3-2.2.2-4.3.1-6.5v-10.9c.2-2.2.2-4.4.2-7.1v-17.5c0-2.6 0-5.4.2-8.2v-1.9c-.7 0-1.2-.2-1.8-.3-3-.4-5.7-.8-8.4-.2-2 .5-4 .4-6.2-.2-1-.2-2.2-.2-3.4-.1h-1v10.6l.1 3.3v.3h5.2c1 0 2.4.5 2.5 3.2v10.4l-.2 6.2v2.4l-.1 1a13 13 0 0 1-4.5 9.3l-.2.2a7.1 7.1 0 0 1-3.4 1.2h-3.1c-1.7 0-3.1-.4-4.5-1.4-1.9-1.6-3-3.7-3.5-6.4-.8-4.3-1-9-.5-13.9l.2-4.6a402 402 0 0 1 0-22.5c.2-5.3.3-10.3.1-16.2V189c0-1.1 0-2.4.2-3.6.3-1.9.4-3.5.1-5-.3-1.8-.1-3.7 0-5.6l.3-2.5a8 8 0 0 1 4.3-7.1 11 11 0 0 1 8.7-.8 7 7 0 0 1 4.8 5 23 23 0 0 1 .3 12.5 9.2 9.2 0 0 1-4.4 5.9c.4.5 1 1 1.5 1.2 1.4.6 3.1 1.2 5.4 1.8.5.1 1.1.1 1.6 0 .8-.1 1.7-.4 2.6-.7l1.7-.5c.7-.1 1.2-.5 2-1.1a13 13 0 0 0 3.7-8.3l.3-7.3a18 18 0 0 0-.5-3.7l-.7-2.3c-.3-1-.7-2-.8-3a21.3 21.3 0 0 0-7-11.2l-.3-.2-2.5-1.2c-2.6-1.5-5.1-3-7.8-2.6h-.2c-.3 0-1 0-1.5-.3a16 16 0 0 0-6.9.2A23 23 0 0 0 283 157z" class="cls-15"/></g><g id="g967"><path id="path963" fill="#c4ce65" d="M358.5 273.1a23.8 23.8 0 0 1-11.2-9l-.6-1c-1.2-4.3-2.8-8.4-2.9-12.8 0-3.3-.5-6.6-.5-10 0-7.2.2-16-.1-21.9-.3-5 .4-10.5 0-15.7-.2-3-.1-6.4 0-9.5.3-5.7.3-11.5.5-16.9 0-3.9.5-7.8 1.9-11.2a29 29 0 0 1 5.2-8c.7-.6 1.4-1.2 2-2 1.3-1.4 2.7-2 4.4-2.8a26 26 0 0 1 16.2-.4c4.3 1.2 8.6 3.4 12.5 6.7.1.2.4.2.5.5 2.5 3.3 5.2 6.4 6.8 10.5 1.1 3 1.5 6 2 9.2.8 6.6.2 13 .3 19.3l.1 7.7c.1 6.2-.3 12.1-.3 18.1 0 2-.2 4.1.1 6 .2 1.3.3 2.6.2 3.8-.3 2.7 0 5.6 0 8.3-.1 3.8.2 7.9-.6 11.6l-.1 1c.2 4.2-1.3 7.6-2.5 11-.8 2.4-2.5 4.7-4.2 6.7-.6.5-1.2.7-1.8 1l-1.7 1.1c-3 2.2-6.7 3-10.4 2.3-2.2-.4-4.4-.2-6.7-.7a45 45 0 0 1-9-2.9zm14.5-16.3a4.5 4.5 0 0 0 3.4-3.3l.5-2.7c.4-2.9.8-6 .7-9v-8l-.1-1.2a8 8 0 0 1 0-3.1l.1-2.5c-.4-6.3.3-11 0-17.4 0-1 .2-3.6.5-4.5-.6-2.7-.1-5.1-.3-7.7-.2-2.5.3-5.2.2-7.6-.2-2.6-.2-5.4-.2-8.1v-3.1a9.8 9.8 0 0 0-2.9-6c-4.8-4.4-10-2.7-12.2 2-.9 1.7-1.3 3.8-1.2 6.3.4 7.7-.4 15.2-.4 22.8 0 3.4.2 7 .5 10.6.3 4.1-.2 8-.2 12v10.9l.5 10.7c0 1.1.6 2.6 1 3.8a8.2 8.2 0 0 0 4 4.5c2 1 4.2 1.1 6.1.6z" class="cls-15"/><path id="path965" fill="#c4ce65" d="M376.9 278.7c-1 0-2 0-3-.3l-2.8-.2-3.8-.4a50 50 0 0 1-9.5-3 25.2 25.2 0 0 1-12.1-9.8l-.8-1.4-.8-3a42 42 0 0 1-2.2-10.2c0-1.5 0-3-.2-4.5-.1-1.9-.3-3.7-.3-5.6v-6.1c.1-5.6.2-11.4 0-15.7-.2-2.5-.1-5 0-7.6 0-2.7.2-5.4 0-8-.2-2.6-.2-5.8 0-9.8.2-3.7.2-7.6.3-11.3l.1-5.5c.2-4.9.8-8.6 2-11.8 1.4-3.5 3.6-6.1 5.6-8.5l.8-.8 1.2-1.2a12 12 0 0 1 4.6-3.1l.4-.2c5.5-2 11.5-2.2 17.5-.5 5 1.3 9.4 3.7 13.2 7l.2.2c.2.1.5.4.7.8l.6.7c2.3 3 4.8 6.1 6.3 10.1 1.3 3.2 1.7 6.5 2.1 9.6.6 4.5.5 9 .4 13.2v6.3l.1 7.7-.1 10.5-.2 7.6v1.7c0 1.4-.1 2.8.1 4 .2 1.5.3 3 .1 4.3V245c0 3 0 6-.6 9v.6c.2 3.9-1 7.2-2 10.1l-.6 1.4c-1 3-3 5.6-4.6 7.3-.6.7-1.2 1-1.6 1.2l-.4.2-1.8 1.1a15 15 0 0 1-8.9 2.8zm-28.4-16.3.4.8c2.3 3.6 5.6 6.3 10.4 8.3 3 1.2 6 2.2 8.7 2.7l3.3.4 3.3.3c3.4.6 6.5 0 9-2l1.9-1 .8-.5.6-.4c1.2-1.4 3-3.6 3.8-6l.5-1.5c1-2.8 2-5.5 1.8-8.8 0-.6 0-1.1.2-1.6.5-2.6.5-5.4.5-8.1v-6.1c-.1-1.8-.2-3.6 0-5.4v-3.3c-.4-1.6-.3-3.1-.3-4.7V224l.2-7.7.2-10.3-.2-7.8v-6.4c.2-4.1.3-8.4-.3-12.7-.4-3-.8-6-1.9-8.7a36.1 36.1 0 0 0-5.8-9.2l-.8-1-.2-.3c-3.5-2.9-7.4-5-11.8-6.2a23.9 23.9 0 0 0-15 .4l-.2.1a8.9 8.9 0 0 0-3.3 2.1l-1.5 1.6-.6.6a27.3 27.3 0 0 0-4.9 7.3 30.9 30.9 0 0 0-1.8 10.7l-.1 5.5-.3 11.4a71 71 0 0 0 0 9.3c.2 2.8 0 5.7 0 8.4-.1 2.6-.2 5 0 7.3.2 4.4.1 10.2 0 16v6c0 1.8.2 3.6.3 5.3l.2 4.7c.1 3.1 1 6.1 2 9.3l.9 2.8zm22.3-3.5c-1.6 0-3.3-.4-4.7-1-2.2-1.1-4-3.1-5-5.6-.5-1.4-1-3-1-4.4l-.3-4.9-.2-5.8v-11l.1-4.4c.1-2.6.2-5 0-7.4v-1.9c-.3-2.9-.5-6-.5-8.8l.3-8.5c.2-4.6.4-9.5.2-14.3-.2-2.8.3-5.2 1.4-7.2a9.2 9.2 0 0 1 6.5-5.3c3-.6 6 .4 8.6 2.9 1.9 1.6 3 4 3.4 7l.1 3.4v.2l.1 7.9v3.7c-.1 1.3-.2 2.6-.1 3.7v3.3c0 1.4 0 2.8.2 4.3v.8c-.2.4-.3 2-.4 2.8l-.1 1.3c.2 3.2 0 6 0 8.7v11.3c-.2 1-.2 1.8-.1 2.5l.2 1.6c-.2 2.4-.1 5 0 7.4v.6c0 3.3-.4 6.7-.8 9.2l-.2 1.5-.3 1.2v.2c-.7 2.3-2.3 4-4.7 4.6-.9.2-1.8.4-2.7.4zm-1.6-87h-.9c-1.6.3-3 1.5-3.9 3.4-.8 1.5-1.1 3.3-1 5.4.2 5 0 10-.2 14.7-.1 2.7-.3 5.5-.3 8.3 0 2.8.2 5.7.4 8.6l.1 1.8c.2 2.7 0 5.3 0 7.8l-.1 4.3v10.9l.2 5.7.3 5c0 1 .6 2.6.8 3.3a6.3 6.3 0 0 0 3 3.5 7 7 0 0 0 4.9.4c1-.2 1.7-.9 2-2l.3-1.3.2-1.2c.4-2.4.8-5.6.7-8.7v-.6a99.6 99.6 0 0 1 0-8.3 7.7 7.7 0 0 1 0-3.7V227c-.2-3.1 0-6 0-8.7V208l.4-3a25 25 0 0 1-.1-4.7v-3c-.2-1.3 0-2.8 0-4.1v-11.6c0-.9 0-2-.2-2.8-.2-2.3-1-3.9-2.1-4.9-1.5-1.4-3-2.1-4.5-2.1z" class="cls-15"/></g><g id="g973"><path id="path969" fill="#c4ce65" d="M417.3 284.3c-2.2-1-2.2-1.1-2.2-3.5l-.2-6.5c0-3.5.3-6.8-.2-10.5-.3-1-.2-2-.1-2.8.4-5.1 0-11.1.1-16.4.4-10.8 0-21.7 0-32.7 0-1.8 0-3.8-.2-5.7-.4-3.3 0-6.6 0-9.6.2-3.7.5-7.4.5-11.1 0-3.9.3-7.5-.1-11.3-.4-3.7.4-7.1-.1-11l.2-1c.2-.3.4-.8 1-.6l4.2.9c3.1.2 6.3 1.8 9.4 2.8l3.5 1 2 .9c.9.4 1.5 1.4 1.5 2.3.4 4.1 1.7 8 2.5 12l1.8 9.6c.8 4.2 1 8.5 2 12.8 1.1 4.7 2.4 9.8 3.3 14.5 1.3 7.3 2.5 14.7 4 22.1 0 .7 0 1.1.6 1.6 0 .2.1.2.2.3l.3-.1.3-1.5c.1-6.8.3-13.6.1-20.5-.1-7.8.4-17-.6-23.5-.4-2.7 0-5.4.2-8v-10.4c0-7.5-.6-6.5 5.2-4.9 2.7.8 5.4 2.2 8 3.2.8.3 1.9.6 2.6 1 .7.5 1.1 1.2 1.2 1.9.5 7.3 0 15.9-.3 23.8-.3 6.5-.2 13.3-.2 19.9 0 2.5.5 5.1.4 7.4-.2 6 .1 12.5-.2 18.5a370 370 0 0 0 0 33.2c.2 1.7-.1 3.4-.3 4.9-.2 1.9 0 4 0 6l.1 4.4c0 1.3-.5 1.8-1.5 1.5l-3.1-1c-2.8-1-5.8-2.7-8.8-3-1.1 0-2.4-.8-3.6-1.2a3 3 0 0 1-2-2.4c-.6-1.7-1-3.3-1.3-5-1-5.2-2.4-10.3-3.8-15.3l-.2-.9c-1.3-7.5-3.9-15.2-4.8-22.4-.6-5-2.3-10-3.4-15-1.5-7.4-2.8-14.8-4-22.2-.1-.9-.2-1.5-.6-2a.6.6 0 0 0-.4-.3h-.3l-.1 1-.2 21.9c0 1.5.3 3.4.4 4.9l.1 9.2v8.5l.2 3.8c.1 1 .4 2.4.3 3.6-.5 7.8 0 16.1 0 24.1 0 1.7-.3 2-1.5 1.8l-1-.3c-1.5 0-2.8-.2-4.1-1-1-.5-1.9-.4-2.8-.5-1.2-.2-2.7-.6-4-1.2z" class="cls-15"/><path id="path971" fill="#c4ce65" d="M466.7 301.1a4 4 0 0 1-.9 0l-.2-.2-3-1-3.3-1.3c-1.7-.8-3.4-1.5-5-1.6-1 0-2.1-.5-3-.9l-1-.4a5 5 0 0 1-3.4-3.7 71 71 0 0 1-1.3-5c-.9-5.3-2.3-10.4-3.7-15.3l-.3-1c-.5-3.3-1.4-6.7-2.2-10-1-4.1-2-8.4-2.5-12.5-.4-3-1.2-6.2-2-9.3a137.3 137.3 0 0 1-3.3-15.3v7.8c0 .8 0 1.7.2 2.6l.2 2.2V254l.2 2.1a29.6 29.6 0 0 1 .2 2.6c.1.9.3 1.9.2 2.9-.4 5-.3 10.5-.2 15.8l.1 8.1c0 1.1 0 2.3-1 3-1 .8-2 .6-2.6.6l-1-.3a9.7 9.7 0 0 1-4.8-1.2c-.3-.2-.6-.3-1.2-.3h-.8a16 16 0 0 1-4.6-1.4c-2.8-1.3-3.2-2-3.3-5l1.8-.2h-1.8l-.1-6.4v-2.7c0-2.5 0-5-.3-7.5a10 10 0 0 1-.1-3.2c.2-3 .2-6.2.1-9.4v-7a538 538 0 0 0 .1-32.6c0-1.7 0-3.7-.2-5.5a42 42 0 0 1-.1-7.4v-2.4l.3-4.9.2-6.2v-3.3c.1-2.7.2-5.2 0-7.8-.3-1.9-.2-3.7-.1-5.4 0-1.9.2-3.6-.1-5.5v-.2c0-.6.2-1.2.4-1.7.9-2.2 2.7-1.8 3-1.8l.3.1 3.8.8c2.4.1 4.8 1 7.1 2a52.5 52.5 0 0 0 6.1 1.9l.4.1.9.4 1 .5c1.5.7 2.6 2.3 2.6 4 .2 2.3.8 4.8 1.4 7.3a92 92 0 0 1 1 4.2l1.8 9.7.8 5.4a85.7 85.7 0 0 0 2.2 11.2 212.2 212.2 0 0 1 3.8 19.1l.4 2.5v-16.6c0-5.4 0-11-.6-15.3-.3-2.3-.2-4.4 0-6.4l.1-1.9v-12.4c0-3 0-4.5 1.3-5.4 1.2-.8 2.5-.4 4.3.2l2 .6c1.7.5 3.4 1.2 5 2l3.2 1.2 2.9 1.3c1.2.7 2 1.9 2 3.2.5 6.3.2 13.4-.1 20.3l-.2 3.6c-.2 5-.1 10.2-.1 15.2v4.7c0 1.1 0 2.3.2 3.5 0 1.3.2 2.7.1 4v8.4l-.1 10.2c-.5 10-.5 21.1 0 33 .1 1.4 0 2.8-.2 4l-.2 1.1v5.8l.2 4.4c0 .5 0 2-1.2 2.8a3 3 0 0 1-1.8.6zM445.3 270l.2.8c1.4 5 2.9 10.1 3.8 15.5l1.2 4.8c.2.7.5 1 1 1.2l1.2.5c.7.3 1.4.6 1.9.6 2.2.2 4.2 1 6.2 1.9l3 1.1 2.1.8v-3.8l-.1-.4c0-1.9-.2-4 0-5.9l.2-1.1c.1-1.2.3-2.3.2-3.5-.5-12-.5-23.1 0-33.3v-10l.1-8.6c0-1 0-2.3-.2-3.6l-.2-3.7v-4.7c0-5 0-10.3.2-15.3l.1-3.7c.3-6.8.6-13.8.2-19.9l-.2-.4a14 14 0 0 0-2.2-.9l-3.4-1.4c-1.7-.7-3.2-1.3-4.7-1.7l-2-.7-.8-.2v14.5l-.1 2c-.2 1.9-.3 3.8 0 5.7.6 4.5.6 10.3.5 15.8v7.8c.2 6.1 0 12.2 0 18.1l-.1 2.6-.2 1.5-.2.9-.5.4c-.6.5-1.4.6-2 .4-.8-.2-1.1-.6-1.3-1-.6-.7-.8-1.4-.9-2v-.2l-2.5-13.8-1.5-8.3a217.8 217.8 0 0 0-3.2-14.5c-.6-2.6-1-5.2-1.3-7.6-.2-1.8-.4-3.5-.8-5.3l-1.8-9.6-.9-4c-.6-2.6-1.3-5.3-1.5-8.1a1 1 0 0 0-.6-.9l-.8-.3-1-.5c-1.3-.3-2-.5-3.3-1-1-.2-2-.6-3-1-2.1-.8-4.1-1.6-6-1.7a17 17 0 0 1-3.4-.7c.2 2 0 3.8 0 5.6 0 1.7-.2 3.2 0 4.9.3 2.8.2 5.6.2 8.2v3.2c0 2.2-.2 4.3-.3 6.4l-.2 4.8-.1 2.5c-.1 2.2-.2 4.5 0 6.8.3 2 .3 4.1.3 6v10.9c.2 7.1.2 14.5 0 21.7v7c0 3.2 0 6.5-.2 9.6v2.2l.1.2c.4 2.9.4 5.6.3 8.2v9.1l.2 1.2 1 .6c1.2.5 2.4.9 3.6 1h.5a6 6 0 0 1 3 .9c.9.5 1.8.5 3 .6l.7.1-.1-7.7c-.1-5.4-.2-11 .1-16.3v-2.1l-.2-1.3-.1-1.4-.2-2.5v-17.6l-.2-2-.3-3c0-7 0-14.4.2-21.8l.2-1.2.2-2.1 1.3.3v-.1l1 .3c.3 0 1 .2 1.5 1 .6.8.8 1.8 1 2.7a390 390 0 0 0 5.2 27.5c.8 3.2 1.7 6.5 2.1 9.8.5 3.9 1.5 7.9 2.5 12.1.8 3.3 1.7 6.8 2.2 10.1z" class="cls-15"/></g><g id="g979"><path id="path975" fill="#c4ce65" d="M504 316.8c-1.5-1-3-2-4.4-3.6-.5-.7-1-1-1.5-1.3a34.7 34.7 0 0 1-10.2-12.5c-1.3-3.6-2.7-7.3-3.3-11.1-.5-3-.7-6-.9-9.2v-9.5c0-1.4.4-1.5 1.4-1.1.8.3 1.8.5 2.7 1 3.5 1.7 8 3 11.8 5.2.6.4 1 1 1 1.8l.1 4.8.7 8.4.3 1.6c1 4.4 3.4 7.5 6.4 9.3 1.2.7 2.4 1.2 3.5 1.2 3 0 4.4-2.6 4-6.8a47.7 47.7 0 0 0-6-20l-1-1.5c-3.1-6.7-7-12.9-10.9-19l-1-2c-2.2-4.2-4.3-8.2-6.3-12.4-.4-.7-.8-1.4-1-2.2-1-4.2-2.9-8.7-3.8-13.1a53.4 53.4 0 0 1-.2-21.2c.6-3.1 2-5.8 3.3-8.3l.5-.7a13 13 0 0 1 9.4-4.5 36 36 0 0 1 20.3 9.7c2.3 2 4.3 4.4 6.3 7.3 1 1.4 1.8 3.1 2.8 5a48.5 48.5 0 0 1 4.3 16.4c.4 3.6.1 7.7-.6 10.6-1 4.2-3.9 5.3-7.4 4.5-3.7-1-7.4-3.9-10.5-8.6-.4-.7-.4-1.2 0-1.3 2.1-.8 2.8-3.1 2.9-6 0-2.5-.3-5.1-1.2-8a11 11 0 0 0-3.5-4.7c-1-.8-2.8-1.8-3.5-2-2.8-1-4.3-.1-5.4 3.2-.7 1.6-.7 3.6-1 5.5 0 .7.2 1.6.5 2.6l.3 1.6 2.8 8.6a1471.1 1471.1 0 0 1 11 19.2c.6 1.4 1.5 2.9 2.4 4.4 1.8 3.1 3.4 6 4.7 9.4.3.6.5 1.4.9 2 2.8 5.3 4.2 10.7 5.7 16.2 2 7.1 2.1 13.8 1.8 20-.3 4-1.4 7.3-2.6 10.5l-1.4 3.3a6 6 0 0 1-5 2.6c-2.9 0-5.6.4-8.6-.5-.5 0-1 0-1.6-.3-2.8-1.4-6.1-2.7-9-4.6z" class="cls-15"/><path id="path977" fill="#c4ce65" d="M519.3 324a18 18 0 0 1-5-.6h-.3a5 5 0 0 1-1.8-.5l-2-1c-2.5-1-5-2.1-7.2-3.6-1.5-1-3.2-2.2-4.8-4-.4-.5-.7-.7-.9-.8l-.3-.2c-2.1-1.5-4-3.4-6.3-6l-.2-.2-.5-.8c-1.9-1.8-3-4.2-3.9-6.3l-.4-1.3a69.1 69.1 0 0 1-3-10.1 88.1 88.1 0 0 1-.8-17.5v-1.5c0-.6 0-2 1.1-2.7 1-.6 2.2-.3 2.8 0h.5l2.4 1c1.4.7 3 1.4 4.7 2a51 51 0 0 1 7.1 3.2c1.3.9 1.9 2 2 3.4v4.8l.5 5.6.3 2.7c0 .3 0 .8.2 1.4a12 12 0 0 0 5.6 8c.7.5 1.8 1 2.4 1 1 0 1.3-.3 1.5-.6.7-.7 1-2.2.8-4.2A45.9 45.9 0 0 0 508 276l-1-1.7c-3-6.4-6.6-12.2-10.3-18.3l-1.6-2.5-1.8-3.7a311.1 311.1 0 0 1-5.6-11.2c-.5-2.2-1.1-4.1-1.8-6.2-.7-2.4-1.5-4.8-2-7.2a55.2 55.2 0 0 1-.2-21.9c.6-3.1 1.9-5.7 3.1-8.1l1.2-1.8c3.3-3.4 7-5 10.8-5a37 37 0 0 1 21.5 10.1 38.4 38.4 0 0 1 9.3 12.7l.1.2a48.4 48.4 0 0 1 3.9 28.2 7.8 7.8 0 0 1-3.7 5.2c-1.6 1-3.7 1.1-6 .6-4.2-1-8.3-4.4-11.5-9.4-.7-1-.9-2-.5-2.8.3-.5.8-1 1.5-1.1 1-.5 1.5-2 1.6-4.3 0-2.6-.4-5-1.2-7.4-.7-2.1-2-3.4-2.8-4a19 19 0 0 0-3-1.7c-.5-.2-1.3-.4-1.7-.2-.2.1-.8.6-1.3 2.3-.4 1-.5 2.2-.7 3.5l-.1 1.5c0 .6 0 1.2.3 2.1v.4l.2.5.2.7 1.3 4 1.3 4.4a1384.8 1384.8 0 0 1 13.2 23.2l.1.2c1.7 2.8 3.5 5.9 5 9.6l.1.6.6 1.2a74.6 74.6 0 0 1 5.5 15.5l.3 1a60.9 60.9 0 0 1 1.8 20.6c-.2 4.3-1.4 7.9-2.6 11l-.6 1.5-.8 2-.2.2a7.9 7.9 0 0 1-6.6 3.5h-3.8zm-20.2-13.6a5 5 0 0 1 2 1.8 37.8 37.8 0 0 0 10.6 6.5 114.2 114.2 0 0 1 2.7 1l.6.2h.2c2 .6 4 .5 6 .5h2c1.4 0 2.6-.7 3.4-1.8l.7-1.6.6-1.5c1-2.9 2.2-6.1 2.4-10 .5-7.3 0-13.5-1.7-19.3l-.3-1.1a71 71 0 0 0-6-16.4l-.2-.5c-1.3-3.5-3-6.4-4.6-9.2l-.2-.2-2.3-4.4a2452.4 2452.4 0 0 0-11-19l-.1-.4a315.2 315.2 0 0 0-3.2-10.4c-.2-1.2-.4-2-.4-3v-.2l.2-1.5c.2-1.5.3-3 .8-4.3.5-1.4 1.4-3.5 3.3-4.4 1.3-.6 2.8-.5 4.6 0a21 21 0 0 1 4 2.4c1 .8 3 2.6 4 5.6 1 2.8 1.4 5.6 1.3 8.6 0 3.3-1 5.6-2.6 6.9 2.6 3.9 5.7 6.4 8.8 7.1 1.4.4 2.5.3 3.3-.1.9-.5 1.5-1.5 1.9-3 .7-2.8 1-6.6.6-10-.7-6.3-2-11.5-4.2-15.8v-.1c-1-1.8-1.8-3.4-2.7-4.7-2-2.9-3.8-5.2-5.9-7a33.8 33.8 0 0 0-19-9.2c-2.8 0-5.4 1.2-8 3.8l-.6 1a28.9 28.9 0 0 0-3.5 11.9c-.5 5.4-.2 10.7.8 15.8.5 2.3 1.3 4.6 2 6.9l1.8 6.2.8 1.7a302 302 0 0 0 6.3 12.5l1.4 2.4c3.7 5.9 7.5 12 10.5 18.5l1 1.5c3.6 6.3 5.7 13 6.3 20.8.3 3-.3 5.4-1.7 6.9a5.7 5.7 0 0 1-4.1 1.8c-1.6 0-3-.6-4.5-1.5a15.6 15.6 0 0 1-7.6-12.4l-.2-2.5-.5-5.8-.1-2.9a41.6 41.6 0 0 0-.3-2.4l-6.4-2.9c-1.8-.7-3.5-1.3-5.1-2.1l-1.4-.6v.6a91 91 0 0 0 .9 16.9c.5 3.2 1.6 6.4 2.7 9.5l.5 1.3c.6 1.6 1.5 3.6 3 5l1 1.3c2 2.3 3.6 4 5.4 5.3z" class="cls-15"/></g></g><g id="g1001"><path id="path983" fill="#96a53d" d="M497.2 247.8a291 291 0 0 1 1.7 3.4l1.1 1.9.4.6c3.7 6 7.5 12 10.5 18.6l1 1.5a50 50 0 0 1 6.4 21c.3 3.3-.4 5.9-2 7.5a6.4 6.4 0 0 1-4.5 2h-.4c-1.8 0-3.4-.8-4.6-1.5a16.4 16.4 0 0 1-8-13l-.3-2.5-.4-5.8-.1-3v-1.8c-2-1-4.2-1.9-6.2-2.7-1.8-.7-3.6-1.4-5.2-2.2l-.2-.1a89.4 89.4 0 0 0 .9 16.2c.5 3.1 1.6 6.3 2.7 9.4l.4 1.1c1 2.4 1.7 3.8 2.8 4.7l.2.2 1 1.3c1.8 2.2 3.5 3.8 5.2 5 .8.5 1.5 1.1 2.2 2a18 18 0 0 0 3.7 3c2 1.3 4.3 2.3 6.6 3.3l2.1 1h.3l.7.2h.2c1.2.4 2.3.5 4 .5h3.7c1.2 0 2.2-.5 2.8-1.4l.6-1.5.6-1.4a32 32 0 0 0 2.4-9.8 53 53 0 0 0-1.7-19.1l-.3-1.2c-1.4-5-2.7-9.8-5.2-14.5l-.7-1.7-.2-.6c-1.4-3.4-3-6.2-4.6-9l-.2-.2c-.8-1.5-1.7-3-2.2-4.4l-1.3-2.4c-5.5-2.1-11-4.1-16.6-6l.7 1.4z" class="cls-18"/><g id="g989"><path id="path985" fill="#96a53d" d="M454.3 238.3v2.5c0 .7-.2 1.3-.3 1.7l-.3 1.2-.6.5a3 3 0 0 1-2 .8h-.5l-.4-.2a3 3 0 0 1-1.7-1.3c-.7-.8-.9-1.7-1-2.3v-.2l-1.8-9.8-8.5-2 .7 3.3 1.3 5.3a67 67 0 0 1 2.1 9.9c.5 3.8 1.5 7.8 2.5 12 .8 3.3 1.7 6.7 2.2 10.1l.3.8A157 157 0 0 1 450 286l1.3 4.9v.2s.1.4.3.4l1.4.6 1.6.5a19 19 0 0 1 6.5 2c1 .4 2 .8 3 1l1 .4-.1-2.6v-.4a40 40 0 0 1 0-6l.1-1.2c.2-1.1.4-2.2.3-3.3-.5-12-.6-23.2 0-33.4v-12.6l-11-3.1-.1 5z" class="cls-18"/><path id="path987" fill="#96a53d" d="M417.3 263.3v.1c.5 3 .4 5.7.3 8.3v2.6l.1 6.4v1a13.4 13.4 0 0 0 4 1.2h.5a7 7 0 0 1 3.3 1c.6.3 1.3.4 2.5.5l-.1-6.9a187.8 187.8 0 0 1 0-18.2l-.1-1.4-.1-1.4-.2-2.5v-17.6l-.2-2-.3-3v-4.5l-9.5-2v19.7c-.2 2.2-.1 4.6-.1 6.9a115.4 115.4 0 0 1-.1 11.7z" class="cls-18"/></g><path id="path991" fill="#96a53d" d="m392.6 224 .1-3.4-12.5-1.7v11c-.2.8-.2 1.6-.1 2.2l.2 1.8c-.2 2.3-.1 4.8 0 7.3v.6c0 3.4-.4 6.8-.8 9.4l-.3 1.5-.2 1.1v.3a7.1 7.1 0 0 1-5.3 5.2 12 12 0 0 1-8-.8 10.9 10.9 0 0 1-5.4-6c-.5-1.4-1-3-1-4.6l-.3-4.8-.2-5.9v-11l.1-4.5v-5.1l-13-1v2.7c.2 4.4.2 10.2.1 16v6l.2 5.2.3 4.8c0 3 1 6 2 9l.7 2.8.3.6a21 21 0 0 0 10.1 8c3 1.3 6 2.3 8.6 2.8 1 .2 2 .2 3.1.3l3.5.3c.7.2 1.4.2 2.1.2 2.3 0 4.4-.6 6.2-2h.1l1.7-1c.3-.3.7-.5 1-.6l.4-.2a19 19 0 0 0 4.2-7.2c1-2.8 2-5.4 1.7-8.7 0-.5 0-1.1.2-1.7.5-2.5.5-5.2.5-8v-6c-.1-1.8-.2-3.6 0-5.5v-3c-.4-1.7-.3-3.3-.3-4.9v-1.6z" class="cls-18"/><path id="path993" fill="#96a53d" d="m304 214.4.1 2v1.2l.1 2.9h2.3l2-.1h.1c1 0 3.2.4 3.3 4v10.5l-.2 6v2.5l-.1 1c-.1 3.9-1.7 7.1-4.8 10l-.2.1a7.9 7.9 0 0 1-3.7 1.4h-3.3c-1.8 0-3.4-.4-5-1.5l-.1-.1c-2-1.7-3.2-3.9-3.7-6.9-.8-4.3-1-9.1-.6-14l.3-4.5c-.1-5.5-.2-10-.1-14.2l-12.8.6-.2 2.3c-.3 3.4-.3 7.6.1 12 .2 1.6.3 3.4.2 5.3-.3 2.8-.3 5.7-.4 8.5v3.9c-.1 2.2 0 4.2.6 5.9a31 31 0 0 0 6.4 12 15 15 0 0 0 8.2 3.8l2.2.3h.4l.8-.1 2.3-.2 1.1.1h.3c.6 0 1.5-.2 2.3-.4l.7-.2a7 7 0 0 0 3.3-1.7l1.3-1c.7-.4 1.3-.8 1.7-1.4 1-1.4 2-2.7 3.8-2.7 2 0 3 1.7 3.7 3.4l.8 1.7.3.6v.1h1.9c1 0 2 0 3 .3h.5v-7.1l-.1-.4v-.5c.3-2.1.2-4.2.1-6.4v-10.9c.2-2.2.2-4.4.2-7.2v-20.8c-6.3-.1-12.7-.2-19 0z" class="cls-18"/><path id="path995" fill="#96a53d" d="m212.4 276.1 2-.4 1.5-.4.4-1.1c0-.8.2-1.7.4-2.6.3-2 .5-4 .9-5.4l1.6-10v-.1a4.5 4.5 0 0 1 2.5-2.7c.7-.4 1.5-.6 2.1-.7a99 99 0 0 1 3.6-.5c2.6-.3 5.4-.7 7.9-1.5 1-.3 1.8-.4 2.6-.4 1.7 0 4.6.7 5.5 5.4l.2.3v1c0 3.2 1 6.7 1.8 9.8l.5 1.7c.6 2.3 2.4 3.6 4.6 5.2.7 0 1.3.2 2 .3l3.9.4h.7a8 8 0 0 0 4.9-1.6c-1.8-2-3-4.7-3.5-6.9a39 39 0 0 1-1.4-7.8c-.3-2.8-.8-5.3-1.3-8-.5-2.5-1-5-1.3-7.6l-1.4-13.7-1.5-11.4-12.5 1.5a192.9 192.9 0 0 0 1.6 13c0 .5.2 2.4-1 3.7-.6.6-1.5 1.2-3.2 1.2l-1.2.2-.8.1c-2.2.7-4 .9-5.8 1.1l-2.1.3h-.9c-1.3 0-2.1-.6-2.5-1-1-1.1-.9-2.6-.8-3.6l.9-6.9.7-6-11.7 2v.3l-.2 1.7c-.5 3.3-.9 6.4-1.6 9.8-.4 1.3-.7 2.6-.7 3.8 0 2.8-.5 5.5-1 8l-.6 3.2c-.6 4.5-1.5 9-2.3 13.3l-1.4 8.1c-.4 1.6-.6 3.6-1 5.6v.8l3.4-.6 5.5-.9z" class="cls-18"/><path id="path997" fill="#96a53d" d="M142.2 281.4v13.1l1-.2h.5c1.1 0 2.6-.7 3.6-1.3 1.6-.9 3.2-1.4 4.8-2 .5 0 1-.2 1.4-.3a6.7 6.7 0 0 0 1.4-.4v-46.9c0-1 0-2.1.2-3.2a4.1 4.1 0 0 1 2.5-3.1c.8-.4 1.6-.6 2.3-.6 1.6 0 3.4 1 4 3.5l.4 2a20 20 0 0 0 .9 4.1c1 2.5 1.8 6 2.6 9.5l1.4 5.4.3 1c.6 1.7 1.2 3.7 1.5 5.9l1.5 3.8c.9 2.5 1.8 5 3 7.2a9 9 0 0 0 2.8 3.4 13 13 0 0 0 7.4 2.2c1.5 0 3.2-.2 4.9-.7 1.5-.4 3-1.3 4.2-2.7-2-.7-3.7-2.2-4.9-4.5l-.9-1.7c-.9-1.8-1.9-3.5-2.6-5.5a157.9 157.9 0 0 1-6.5-20.2 436.2 436.2 0 0 1-4.8-16.4 3 3 0 0 1 .3-2 574 574 0 0 0-33.1 9.1v23.4h.3l-.2 3.9c-.3 4.7-.2 9.5-.2 14.2z" class="cls-18"/><path id="path999" fill="#96a53d" d="m74.5 324.7 4.8-2.6a379.9 379.9 0 0 1 21.4-10.4l1.6-1 .1-.2h.1c1.8-1.3 3.4-3 5.2-4.8l1.7-1.8a257.3 257.3 0 0 0 4.6-8.9c2-3.9 3-8 3.3-12.9.4-6 .7-12.5.7-19.4v-3.9l.1-10.8-11 4.1-.1 16.5-.2 13.2v2.7c.1 6.9-2.8 10.6-7.2 14a25 25 0 0 1-8 4 4 4 0 0 1-1.2.3c-1.6 0-3.4-1.2-3.4-3.7v-15.8a87 87 0 0 0 0-6.8c0-2.5-.2-5.1 0-7.8 0-.8 0-1.7-.2-2.7l-.2-3.8v-1.8l-11.9 5.2v4.2c0 1 0 2 .2 2.8a13 13 0 0 1 0 4.3l-.2 1.6v12.8c-.2 4.3-.2 8.5-.2 12.6v4.4l-.1 5.3v11.1z" class="cls-18"/></g><path id="path1003" fill="#e2a554" d="M72.7 350.8c3.9 3.4 8.6 3.2 10.8 3.1 3.5-.1 6.4-1 7.4-1.3l50.8-24.4c5-3.6 36.1-24.6 89.6-36-70 7.6-129.2 39.8-158.7 58.6z" class="cls-16"/><path id="path1005" fill="#e2a554" d="M511.4 349.7c1.8 0 5.4-.1 8.6-2.4a335.7 335.7 0 0 0-182-52.4 429 429 0 0 1 147 47.4l19.3 6.5c.4 0 3.5 1 7.2.9z" class="cls-16"/><g id="g1043"><g id="g1011"><path id="path1007" fill="#dadd9e" d="M171.9 148.4c-1.5 0-3 0-4.3-.2-1.6-.3-3-.8-4-2-.8-1.1-1.6-2.5-2.9-3.5-.3-.3-.5-.8-.7-1.2-1-2.1-2-4.2-3.6-6-.3-.4-.6-.8-.7-1.2a5 5 0 0 0-1.2-2.2c-.4-.4-.2-1.4-1.2-1.4-.7.6-1 1.3-1.5 2-.7 1-1 1.7-1 2.6 0 3-.3 6.3 0 9.3l.4 7.3v1.1c-.1.5-.6 1-1.1 1.2l-1.6.7-9.3 3.6c-.5.2-.8 0-.9-.3v-16.3l.1-3.5c.1-2.6-.4-5.3-.2-8.1.2-3 .3-6 .1-8.8l.3-3c.2-1.2.1-2.4 0-3.5-.2-1.1-.2-2.4-.2-3.6V92.6c0-.6.4-1 1-1.4l.6-.2c3.5-1.2 7-3 10.5-4.2.7-.2 1 0 1.2.5v9.8l-.1 3.7-.1 4.4v7.9c0 .2.2.2.4.2l.2-.2.2-.4c1.5-4 3.4-7.6 5.2-11.6l2.3-4.4c1.6-3.2 4-7.8 5.2-11.1.5-1.4 1.2-2.3 1.9-3.7 0-.2.5-.5.8-.8.6-.5 1.4-.6 2-.7l8.3-2.7c.7-.3 1.5-.3 2.1-.5.3 0 .6.3.5.5 0 .4-.3.8-.4 1.2-1.4 2.7-2.7 5.2-4.5 9.2-.7 1.3-1 2-1.8 3.2l-.7 1.2c-.9 2.2-2.4 4.4-3.3 6.6-1.3 3-3 6-4.4 8.9l-2.8 6.2c-.2.4-.3.9-.1 1.2l1.8 2.9 2.7 4.5.4 1 1.3 2.7c1.3 2 2.4 4.2 3.5 6.2 1.2 2 2.5 4.2 4 6.2.4 1 1.2 1.7 2 2.4.5.6 2.9 1.6 4.9 1.5.4 0 1.4-.3 1.3 0-.3.9-2.6 2.5-3.5 2.9a28 28 0 0 1-7 2.5c-.8.3-1.5.3-2 .3zm2.8-5c-1.3 0-3.3-1.6-4-2.3-.5-.5-2-2.8-3.3-4.7l-1.8-2.6c-.1 0-.5-.7-1.6-3-1.2-2.5-1.6-3.5-1.9-3.8v.1l-3.7-5.6-2.6-3.9.5-.9 1-1.8 3.1-6.4 6.4-12 3.6-8 2.4-5.4-1.2-.2-2.5 5.5-3.5 8-6.4 12-3.2 6.5-.9 1.6-1.3 2.7-2.7 3.1-1.7 2-3.5 3.2-.1-5.4-.2-7.5-.1-7.4V92l-1.3.5a443.5 443.5 0 0 1-.1 15.2v7.5l.3 7.4v14.6c.1.8-.3 13.4-.4 14.4l1.4-.3c0-1.2.5-13.9.4-14.8-.1-.4.2-3.9 0-7.3v-.3a549.5 549.5 0 0 1 4.7-4.3l1.5-1.7a20 20 0 0 0 3.1-4l2.1 3.5 3.7 5.6v.1c.2.1.6 1 1.8 3.5 1 2.2 1.5 3.1 1.7 3.3l1.7 2.5a65 65 0 0 0 3.5 4.8c.7.7 2.8 2.4 4.1 2.4l1-1.2z" class="cls-7"/><path id="path1009" fill="#443619" d="m138.8 159.4-.6-.1c-.3-.2-.6-.5-.7-1v-23.5c-.1-1.5-.2-3-.1-4.6.2-3.5.3-6.2.1-8.6v-.1l.3-3c.2-1.1.2-2.2 0-3.4-.2-1.3-.2-2.8-.2-3.7V92.6c0-.9.5-1.6 1.5-2.1l.6-.3 5-2c1.9-.8 3.7-1.6 5.5-2.1.7-.2 1.2-.2 1.6 0 .3.2.6.5.7 1v10l-.1 2.5v1.2l-.1 4.4v5.3c.8-2 1.8-3.9 2.7-5.8a488.5 488.5 0 0 0 4-8.3l1-2a100.8 100.8 0 0 0 5.4-11.5l.8-1.4c.1-.3.4-.5.7-.8l.3-.2c.6-.5 1.3-.7 1.9-.8l.4-.1 5.2-1.7 3-1 1.5-.3.8-.2c.4 0 .8 0 1.1.4.3.3.4.8.3 1.2l-.2.5-.2.6v.2a134 134 0 0 0-4.5 9.2l-.1.1-1.8 3.1-.7 1.2-1.6 3.3a35 35 0 0 0-1.7 3.2 76.9 76.9 0 0 1-4.4 9L165 111l-1.6 3.4-.1.5 1.8 2.8 1.6 2.8 1 1.8.2.2.1.5.3.4.2.5 1 2 2.3 4.1a102.5 102.5 0 0 0 5 8.4l1.7 2 .4.2c.3.4 2.4 1.4 4.2 1.3h.7c.5-.1 1-.2 1.4.2l.3.4-.2.5c-.4 1.2-3.1 3-4 3.3a30.7 30.7 0 0 1-7.1 2.6 32 32 0 0 1-6.6 0c-2.2-.4-3.6-1.1-4.5-2.3l-.6-.9c-.7-1-1.3-1.8-2.2-2.5l-.1-.1a5 5 0 0 1-.8-1.4c-1-1.9-2-4-3.5-5.9-.4-.4-.7-1-.9-1.5-.1-.6-.5-1.3-1-1.8l-.4-.9-.7.8-.4.6c-.6.8-.8 1.5-.8 2.2v3c-.1 2.1-.2 4.2 0 6.2l.4 6.6v2c-.2.7-.8 1.4-1.6 1.8l-1.6.7-2.4 1-7 2.6-.6.2zm.3-37.9c.2 2.5.2 5.3 0 8.8-.2 1.5 0 3 0 4.3 0 1.3.2 2.6.1 3.8v19.2l6.6-2.6 2.4-.9 1.5-.6c.4-.2.6-.5.7-.6v-1.7l-.4-6.6c-.2-2-.1-4.2 0-6.3v-3c0-1 .3-2 1.1-3.1l.4-.5c.3-.6.7-1.1 1.4-1.7l.2-.1h.2c1.3-.1 1.6 1 1.8 1.3v.3c.4.4 1.2 1.3 1.4 2.6 0 .2.3.5.5.8a29.9 29.9 0 0 1 4.3 7.2c1 .8 1.7 1.8 2.4 2.8l.7.9c.5.7 1.6 1.3 3.3 1.5 1.3.3 2.9.3 4.2.3l1.8-.1a34 34 0 0 0 6.9-2.5l2-1.4c-2 0-4.2-1.1-4.8-1.7l-.4-.3a78 78 0 0 1-7-10.7c-.7-1.4-1.4-2.8-2.3-4l-1.1-2.3-.2-.5-.2-.3-.3-.7a74.7 74.7 0 0 1-2.6-4.4l-1.8-2.9c-.4-.7-.2-1.4 0-2l1.6-3.4 1.3-2.8 1.8-3.7c.9-1.7 1.8-3.4 2.5-5.2l1.7-3.3 1.7-3.2.7-1.4 1.8-3a160 160 0 0 1 4.6-9.7l-1.3.3-3.1 1c-1.6.6-3.3 1.2-5.3 1.7l-.4.1-1.3.5-.2.2-.4.4-.8 1.4a103.2 103.2 0 0 1-5.3 11.4l-1 2a72 72 0 0 1-1 1.9l-1.3 2.5-1.8 4a98 98 0 0 0-3.3 7.4l-.2.5-.2.4h-.2l-.3.3h-.4c-.5 0-.8-.3-1-.6l-.1-.8v-11.9l.2-3.8v-9.4h-.2l-5.3 2c-1.7.8-3.5 1.5-5.2 2.1l-.4.2c-.3.1-.6.4-.6.7v18.8c0 .9 0 2.2.2 3.5.2 1.4.2 2.6 0 3.7l-.3 3zm4 31.3v-1.2a344.6 344.6 0 0 0 .5-16.6v-12.3l-.2-7.5-.1-7.4V92l3-1.2v8.8a174.5 174.5 0 0 0 0 11.1v4a292.9 292.9 0 0 0 .4 11l2.1-2 1.7-1.9c2.2-2.4 2.5-2.8 2.5-3l1.4-2.7 1-1.6 3-6.4L165 96a232.1 232.1 0 0 0 4.6-10.5l1.4-3 .2-.4 2.9.3-.5 1-1 2.1-1.4 3.4-.2.4c-1.5 3.4-2.8 6.5-3.4 7.5L161 109l-3.1 6.3-.7 1.4-.6 1 2.4 3.5 3.5 5.3c.3.3.6.8 1.3 2.3l.8 1.7 1.4 2.9.9 1.1 1 1.6 3.3 4.6c.8.7 2.5 2 3.4 2h1.7l-2.4 2.8h-.3c-2 0-4.7-2.6-4.7-2.6-.7-.7-2.1-2.8-3.6-5l-1.2-1.6-.4-.7c-.3-.2-.5-.6-1.3-2.4l-.6-1.1-.8-1.8a25 25 0 0 0-.7-1.4l-.3-.1v-.4l-3.6-5.4-1.4-2.3-2.6 3-.8.9-.4.5-.5.6-4.2 3.7v7.1c.1 1.1-.4 13.9-.5 15v.6l-3 .8z" class="cls-13"/></g><g id="g1017"><path id="path1013" fill="#dadd9e" d="M199.5 138.5c-3.3.1-6.3-.3-8.5-2l-.5-.5c-.9-2-2.1-3.8-2.2-6.2 0-1.8-.4-3.5-.4-5.4 0-4 .2-8.8 0-11.9-.3-2.7.2-6 0-8.6-.2-1.5-.2-3.5 0-5.2l.2-9.3c0-2.1.4-4.4 1.4-6.6 1-2 2.5-3.9 4-5.7l1.5-1.6c1-1.1 2-1.8 3.3-2.6 4-2.5 8.3-3.8 12.3-4.3a24 24 0 0 1 9.7.6l.4.1c2 1.2 4 2.3 5.2 4.1 1 1.4 1.2 3 1.6 4.5.7 3.4.2 7 .3 10.5v4.2c.2 3.3-.1 6.7-.1 10 0 1-.2 2.2 0 3.2.2.6.3 1.3.2 2-.2 1.5 0 3 0 4.5 0 2.1.2 4.3-.4 6.5l-.1.6c.2 2.2-1 4.4-1.9 6.6-.6 1.5-2 3.2-3.3 4.7l-1.3 1-1.4 1a18 18 0 0 1-8 3.8c-1.7.3-3.3 1-5 1.3-2.4.4-5 .6-7 .7zm19.8-13c2.3-4 2.4-5.3 2.6-7.1v-17.8l.1-14.5a55 55 0 0 0 0-7.2c-.2-1.6-3.7-7.8-14.3-5.2-4.8 1.2-11.2 5.5-12.5 10a29.4 29.4 0 0 0-1 10.2v30.5c.4 2.4 1 6 3 7.4 2.4 1.4 7 2 10.3 1.2 5-1.1 9.9-4.1 11.8-7.6zm-21 5.2c-1.3-.8-2-3-2.6-6.8a59 59 0 0 1 0-7.2V93.5c-.2-2.3-.3-5.8 1-9.8 1-3.7 6.4-7.7 11.3-8.9 9.4-2.3 12.4 3.2 12.6 4.6.2 1.3 0 5.5 0 7l-.1 14.5v17.6c-.2 2-.2 3-2.4 6.7-1.7 3-6 5.6-10.5 6.6-3 .7-7.3.2-9.3-1.1zm12.2-4.7a4.9 4.9 0 0 0 2.6-2.7c0-.5.3-1 .4-1.6.3-1.6.6-3.4.5-5v-4.4l-.1-.7c-.1-.5-.1-1 0-1.6l.1-1.4c-.3-3.4.2-6.1-.1-9.5.1-.6.2-2 .4-2.6-.4-1.4 0-2.8-.2-4.2-.1-1.3.2-2.9.1-4.1v-4.5l-.2-1.6c-.2-1.2-.8-2.2-2.1-2.6-3.7-1.2-7.7 1-9.3 4.1-.8 1.2-1 2.4-1 3.8.4 4-.2 8.4-.3 12.6 0 1.8.3 3.7.4 5.6.3 2.2 0 4.4 0 6.6v6c0 1.7.3 3.8.4 5.6 0 .7.4 1.4.7 1.9.6 1 1.7 1.4 3 1.5 1.5 0 3.2-.5 4.7-1.2z" class="cls-7"/><path id="path1015" fill="#443619" d="M198.8 139.3c-3.7 0-6.4-.7-8.4-2.3l-.5-.5v-.2l-.8-1.3a12 12 0 0 1-1.6-5.2c0-.8 0-1.5-.2-2.3l-.2-3v-11.9c-.2-1.4-.1-2.8 0-4.3V104a23 23 0 0 1 0-5.3 147.8 147.8 0 0 0 .2-9.3c.1-2.7.6-5 1.5-7 1-2.1 2.6-4 4-5.8l.6-.6 1-1c1-1.2 2-1.9 3.2-2.6l.2-.2c4-2.4 8.3-3.9 12.7-4.4 3.7-.5 7-.3 10 .6h.1l.6.3.4.2c1.8 1 3.8 2.2 5 4 1 1.5 1.3 3.2 1.7 4.9.4 2.3.4 4.8.3 7.1v3.4l.1 4.2v5.8l-.2 4.2v3c.3.8.3 1.6.2 2.4v6c0 1.7 0 3.4-.4 5.1l-.1.2v.2c.2 2-.7 4-1.5 6-.2.2-.3.6-.4.9a19 19 0 0 1-3.5 4.9l-1 .8-.4.3-1.3 1c-2.4 2-5.3 3.4-8.4 4l-2.4.6-2.7.7a47 47 0 0 1-7 .7h-.8zm-7.6-3.8.3.3c1.8 1.4 4.3 2 8 2 2.3-.2 4.7-.4 6.8-.8l2.6-.6 2.5-.7c2.8-.5 5.4-1.8 7.6-3.6l1.4-1 .5-.4.7-.6a17.9 17.9 0 0 0 3.6-5.4c.8-1.8 1.5-3.5 1.4-5.2l.1-1c.4-1.5.4-3 .4-4.5v-3.3c-.1-1-.2-2 0-3l-.1-1.7c-.2-.8-.2-1.7-.1-2.6v-5.1c.2-1.9.2-3.8.2-5.7l-.1-4.2V85c0-2.3.1-4.6-.3-6.8a11 11 0 0 0-1.4-4.2c-1-1.6-2.8-2.6-4.5-3.6l-.6-.3h-.2c-2.7-.8-5.8-1-9.3-.6-4.2.5-8.3 2-12 4.2l-.2.1c-1.1.8-2.1 1.4-2.9 2.3l-1 1.2-.5.5a16 16 0 0 0-5.2 11.8v3l-.3 6.3v5c.2 1.5.1 3 0 4.6v4c.2 2.3.2 5.6.2 8.7v3.3l.1 2.9.2 2.5c0 1.6.8 3 1.5 4.4l.6 1.3zm13-1.3c-2.7 0-5.6-.7-7.4-1.8-2.2-1.3-2.9-4.7-3.3-7.9a58 58 0 0 1 0-7.5v-13.1l-.1-10a30 30 0 0 1 1-10.4c1.4-4.8 8-9.3 13.2-10.6 6-1.5 9.7-.1 11.8 1.3a7.8 7.8 0 0 1 3.4 4.6 423 423 0 0 0-.1 21.8v3.6c.1 4.7.2 12.7 0 14.2-.2 1.9-.3 3.3-2.7 7.4a19.6 19.6 0 0 1-15.7 8.3zm8-59.1a15 15 0 0 0-4 .5c-4.8 1.1-9.8 5-10.8 8.3-1.2 4-1.1 7.4-1 9.6l.1 10v13.2c0 1.8-.2 5.6 0 7 .5 3.6 1.3 5.7 2.2 6.3a13 13 0 0 0 8.7 1c4.3-1 8.4-3.5 10-6.2 2-3.5 2-4.4 2.2-6.2v-.2c.2-1.3.2-9 0-13.8V101a532.5 532.5 0 0 1 .2-21.4c0-.3-.6-1.8-2.4-3a9 9 0 0 0-5.2-1.4zm-6.3 52.9h-.1c-1.6 0-3-.7-3.7-1.9-.4-.6-.8-1.4-.9-2.2l-.2-2.5-.2-3.2v-6l.1-2.5v-5c-.2-1.5-.4-3.2-.4-4.7l.2-4.7c.2-2.6.3-5.3.1-7.9a7 7 0 0 1 1-4.2c1.8-3.3 6.1-5.9 10.3-4.4 1.5.4 2.4 1.5 2.7 3.1l.1 1.9v.2l.1 4.1v2c-.1.8-.2 1.5-.1 2.1V94c0 .8 0 1.6.2 2.3v.5a11.2 11.2 0 0 0-.4 2.3 36 36 0 0 1 0 4.8v12.7c.2 1.9-.2 4-.4 5.3l-.2.8-.2.8a5.7 5.7 0 0 1-3 3.2c-1.6.8-3.4 1.3-5 1.3zm3.8-48a7.7 7.7 0 0 0-6.4 4 5 5 0 0 0-.9 3.3c.2 2.7 0 5.4 0 8l-.3 4.7.3 4.6.1 1c.2 1.4.1 2.8 0 4.2v5.7a76.9 76.9 0 0 0 .2 5.7l.1 2.6c0 .5.5 1.2.6 1.5.5.7 1.3 1 2.4 1 1.4 0 3-.3 4.3-1 1.2-.6 1.9-1.3 2.2-2.2a12 12 0 0 1 .4-1.5c.2-1.3.5-3.2.5-5v-.3a37.7 37.7 0 0 1 0-4.4c-.2-.6-.3-1.3-.1-2.1V98.2l.4-1.7a9 9 0 0 1-.2-2.6V83.7l-.1-1.5c-.2-1-.7-1.7-1.6-2l-1.9-.2z" class="cls-13"/></g><g id="g1023"><path id="path1019" fill="#dadd9e" d="M243 129.9c0-.6-.2-1.2-.1-2.2 0-3.4 0-7-.2-10.5-.1-.2 0-.6 0-.8.2-.7.2-1.2 0-1.8a9.8 9.8 0 0 1 0-4.8c.3-.6.2-1.2.2-1.8l.2-16.5c0-2.6-.2-5.1 0-7.7a50 50 0 0 0-.1-12l-.1-.3c.5-2 0-4 0-6.1v-.5c0-1.1.6-1.5 2-1.6 1 0 2-.2 3-.4 1.3-.3 2.6-.6 4-.6s2.9-.3 4.3-.5c1.6-.1 3.3-.5 4.8-.1.7 0 1 .3 1.3.9.6 2.1 1.3 4.4 1.5 6.5 0 .6.3 1.2.4 1.9.7 2.6 1 5.3 1.3 8 .3 3 1.4 6 2 9.2l3.2 13.7.3.4.2.1c.2.1.3 0 .5-.2l2.2-10.6.8-2.7 1.6-7.2c.5-2.6.7-5.2 1.4-7.8.4-1.4.2-3 .7-4.5.8-2.4 1.2-4.9 1.7-7.3 0-.3 0-.6.2-.8.3-1 .6-1.2 1.7-1.3 2.4 0 4.8-.3 7-.3l7-.1h1.5c1 0 1.4.4 1.4 1.1v6.6c0 1.7-.4 3.3 0 5 .2.7 0 1.4 0 2 0 4-.3 8.1-.1 12.2 0 2.4.3 5 .2 7.4-.2 3.5.2 7 0 10.4v.4c.7 5.9.8 12.2.3 17.8v2.4l-.1 1c-.1.5-.6.7-1 .8l-.5.1c-1.9-.1-3.8 0-5.7.1a203.7 203.7 0 0 0-5.7 0c-.3 0-.7-.4-.7-.6.4-1.3-.3-2.7 0-4 0-.8-.1-2 .1-2.8.2-.7.2-1.5.1-2.2-.3-1-.3-2.2-.3-3.3V91.8l-.3-.2h-.2c-.4.5-.6 1-.6 1.5-.5 2.8-1 6.6-1.6 9.3l-1.7 8.1c-.3 2.2-1 4.5-1.3 6.8-.1.9-.5 1.7-.6 2.7a54 54 0 0 0-1 5.8c-.3 1.1-.7 1.3-1.8 1.5l-1.6.1-6.8.4h-1.9c-1 0-1.5-.1-1.7-1l-.8-2.6-.5-2.3c-.1-1.2-.4-2.2-.6-3.4-.6-3-1-6.2-1.7-9.2l-1.6-6.5c-.4-1.4-1-3-1-4.2l-.5-2c-.2-.7.1-2.6-1-3.1-.7.9-.4 2.6-.4 3.5 0 4.9-.4 10.4.1 14.9.2 1 0 2.8 0 4.3-.2 3.6-.2 7.9.3 11.5v.3c0 .6-.4 1-1 1-.6.2-.9.2-1.4.2l-10 1.4c-.9.1-1.3-.2-1.3-.7zm7.4-5.5a757.8 757.8 0 0 0 0-19.8 1164.2 1164.2 0 0 0 .8-28.7v-5.4l2.9-.2c1.3 4 2.8 6.8 4.1 11.3l3.5 11.6c1 3 3.4 11.4 5 17.2l1.5 5.8 1.3 3.7 4-.2c.7-1.4 2.2-7.3 3-10.5l.3-1.4 1.3-6.7 6.7-25.7 1.8-6.6.2-1h4.2l.3 5 .2 4.3V83c-.2 3.4-.3 7.1-.2 8.3.2 2 .8 14.8.8 16.7l-.1 13.4 1.4.1.1-13.5c0-1.9-.5-14.7-.7-16.8V83c.2-2.5.2-5 .2-5.8l-.2-4.4-.3-6-7-.1c0 .9-.2 1.3-.3 2.1l-2 6.6-6.5 25.6c-.7 2.7-1.2 6.3-1.3 6.8l-.3 1.4-2.6 9.5-2 .1-.9-3-1.5-5.6-4.9-17.4-3.5-11.4c-1.5-5-3.2-8-4.4-12.3l-5.5.5-.1 6.5-.3 6.8-.5 22v19.8l1.5-.2z" class="cls-7"/><path id="path1021" fill="#443619" d="M243.9 131.5c-.5 0-.9-.2-1.1-.4-.4-.3-.6-.7-.6-1.2v-.1l-.2-2.1c.1-3.3.1-7-.2-10.3V116c.2-.4.2-.8 0-1.2v-.1a13 13 0 0 1 .1-5.2c.2-.4.2-.7.1-1v-.6l.1-8.2.1-8.3v-7.8a48 48 0 0 0-.2-12.2v-.2c.3-1.2.2-2.5.1-3.8V65c0-2 1.1-2.3 2.7-2.5.9 0 1.8-.2 2.8-.4 1.3-.3 2.8-.6 4.3-.6l2.7-.3 1.5-.2h1a12 12 0 0 1 4-.1c1 .1 1.6.5 2 1.4l.1.8c.6 2 1.2 4 1.4 6l.2.8.2 1c.7 2.7 1 5.5 1.3 8 .2 1.9.7 3.8 1.1 5.7l.8 3.4 3 12.4 2-9c0-.6.2-1 .3-1.6l.3-1 1.7-7.3.3-2.2c.3-1.8.5-3.7 1-5.6l.4-1.9c0-.9.1-1.8.4-2.7a37.3 37.3 0 0 0 1.6-7c0-.5.2-.8.3-1.1.4-1.2 1-1.7 2.4-1.8a104.2 104.2 0 0 0 7.1-.3l6.8-.1h1.6c1.9 0 2.2 1.1 2.2 2V69a6.5 6.5 0 0 0 0 3.1c.2.6.1 1.2.1 1.8v.4l-.1 5a56 56 0 0 0 0 7.1 1641 1641 0 0 1 .1 7.6v10.7c.7 5.6.8 12 .3 18v2.2l-.1 1.3c-.2.6-.7 1-1.5 1.3a3 3 0 0 1-.7.1 30.8 30.8 0 0 0-5.8.1l-4.2.1-1.6-.1c-.5-.1-1.3-.7-1.3-1.4v-.2c.2-.6 0-1.3 0-2a6 6 0 0 1-.1-1.8v-1.1c0-.6 0-1.3.2-1.9.1-.5.2-1.2 0-1.8-.2-1.2-.2-2.3-.2-3.4l-.1-6.2V96.5a117 117 0 0 1-1 6l-.5 2.1-1.2 6-.7 3.7-.7 3.2-.3 1.5-.3 1.1-.8 4.6-.2 1.3c-.3 1.6-1.2 1.8-2.4 2l-1.7.2-2.6.2-4.2.2h-1.9c-1 .1-2.1-.1-2.6-1.6l-.1-.5-.6-2-.1-.6c-.2-.6-.4-1.2-.4-1.9a23.2 23.2 0 0 0-.7-3.3 105.2 105.2 0 0 1-1.6-9.2l-1.1-4.3-.6-2.2-.4-1.3c-.3-1-.6-2-.6-3l-.2-1v4a70 70 0 0 0 .1 10v3.4l-.1 1.1c-.2 4 0 8 .3 11.5v.2c.1.8-.3 1.7-1.7 2l-1.4.2a171 171 0 0 0-10.5 1.4zm-.1-1.7h.3l10-1.4 1.4-.1c.3 0 .4-.2.4-.2v-.4a62 62 0 0 1-.4-11.6V115c.2-1.1.2-2.3.1-3-.4-3.2-.3-6.9-.2-10.4l.1-4.6v-.6c0-1-.2-2.5.6-3.4l.4-.5.6.2c1.2.6 1.2 2 1.3 3v.7l.1.3c.2.6.4 1.2.4 1.8 0 .8.4 1.7.6 2.7l.4 1.3.6 2.3a100 100 0 0 1 3 14.7l.4 2.3c0 .6.2 1.1.3 1.7l.2.5.6 2 .1.5c.1.5.2.6 1 .5h1.8a122.4 122.4 0 0 1 8.4-.6q.9-.1 1-.7l.2-1.3.8-4.6.3-1.3a96.2 96.2 0 0 1 1.7-8.2l1.2-6 .5-2.1 1.5-9.1c0-.7.3-1.4.9-2 .1-.1.4-.3.7-.3.4 0 .7.2 1 .5v.4l.1.7V114c0 1.1 0 2.1.4 3v.2c.1.8 0 1.7-.1 2.5a6 6 0 0 0-.2 1.5v2.7c.2.7.3 1.4.2 2.2h7.2c1.3-.1 2.7-.2 4 0l.3-.1.4-.3v-3.3c.6-5.7.5-12-.2-17.6v-.5a63 63 0 0 0 0-5.4v-5a52.5 52.5 0 0 0-.3-7.4l.1-7.3.1-4.9v-1.7c-.3-1.3-.2-2.5-.2-3.7l.1-1.6v-6.6c0-.2 0-.3-.6-.4H296c-2.2.2-4.6.2-6.9.2a63.3 63.3 0 0 0-7 .3c-.7 0-.8.1-1 .7l-.1.6v.2l-.5 2c-.3 1.8-.6 3.6-1.2 5.3-.3.7-.4 1.5-.4 2.3 0 .7-.1 1.5-.4 2.2a38.4 38.4 0 0 0-1.3 7.7l-1.7 7.3a26.8 26.8 0 0 1-.7 2.6l-2.4 11c-.3.5-1 .7-1.5.4a1 1 0 0 1-.5-.4l-.3-.4-.1-.3-3.2-13.7-.8-3.3c-.5-2-1-4-1.2-6-.3-2.3-.6-5.1-1.3-7.8l-.1-.9a2 2 0 0 1-.3-1.1c-.2-1.8-.8-3.8-1.3-5.6l-.2-.8c0-.2-.1-.2-.6-.3-1.2-.3-2.5-.1-3.7 0l-.9.1-1.5.2-3 .3c-1.2 0-2.6.3-3.8.6-1 .2-2 .4-3 .4-1.3.1-1.3.3-1.3 1v2.3c.2 1.3.3 2.6 0 4v.3c0 1.4.2 2.7.3 4 .2 2.4.1 5-.1 8.1-.2 1.6-.1 3.3 0 4.8v2.9l-.1 8.3-.1 8.2v.4c0 .5 0 1-.2 1.6a10 10 0 0 0 0 4.4c.2.6.2 1.4 0 2.1v.6c.3 3.5.2 7.3.2 10.6v2.1zm4.4-4.3v-1a800.9 800.9 0 0 0-.1-19.8 1180.3 1180.3 0 0 0 .8-28.8l.1-7 .7-.2 5.5-.5h.7l.2.6 2 5.8c.8 1.9 1.6 4 2.3 6.4l3.6 11.5 2.2 7.9 2.7 9.4 1.5 5.7.8 2.4h.7a142 142 0 0 0 1.8-6.6l.6-2.4.2-1.2v-.2l.3-1c.2-1.3.6-3.8 1.1-5.8 1.4-5 3.3-12.6 4.7-18.3 1-3.8 1.7-6.7 2-7.3l1.8-6.6.5-2.7h8.4v.9l.1 2.9a243.2 243.2 0 0 1 .4 7.5l-.1 5.8c-.1 4.2-.2 7.2-.1 8.1a436.7 436.7 0 0 1 .6 30.5v.8l-3.3-.3.3-1v-13c0-2-.5-14.6-.7-16.7l.1-8.4.1-5.8-.1-2.4-.1-1.8a99 99 0 0 0-.2-2.5v-1.7l-2.8-.1-.1.4-1.9 6.6-6.7 25.7-1 5.3-.2 1.4-.1.3-.4 1.2c-.3 1.4-2 8.8-3 10.6l-.1.4h-.5c-1.6 0-2.4.1-4 .3h-.6l-1.5-4.4-1.6-5.8-4.9-17.2-3.5-11.5c-.8-2.6-1.6-4.6-2.4-6.5a90 90 0 0 1-1.6-4.2H252V76a60 60 0 0 0-.4 6.6l-.5 22.1v20.4l-3 .4z" class="cls-13"/></g><g id="g1029"><path id="path1025" fill="#dadd9e" d="M326.2 127.2c-3.4-1-6.5-2.3-8.8-4.7l-.4-.6c-1-2.3-2.2-4.5-2.3-6.9 0-1.8-.4-3.6-.4-5.4 0-4 .1-8.8-.1-12-.2-2.7.3-5.8 0-8.6a30 30 0 0 1 0-5.2c.2-3 .2-6.3.3-9.2 0-2.1.4-4.3 1.4-6.2 1-1.7 2.5-3 4.1-4.5l1.6-1.1c1-.8 2-1.2 3.3-1.6a29.5 29.5 0 0 1 22.4 3s.3 0 .4.2c2 1.8 4 3.5 5.3 5.7.9 1.6 1.2 3.3 1.5 5 .7 3.6.3 7 .4 10.5V90c.2 3.3-.1 6.6-.1 9.9 0 1-.2 2.2 0 3.3.2.6.3 1.3.2 2-.3 1.5 0 3 0 4.5-.1 2 .2 4.4-.5 6.4v.5c.1 2.3-1 4.2-2 6-.6 1.4-1.9 2.7-3.3 3.8-.4.3-.9.4-1.3.6l-1.4.6a14.3 14.3 0 0 1-8 1.4l-5.3-.3a51 51 0 0 1-7-1.4zm20.1-7c2.3-3.3 2.5-4.6 2.6-6.3.2-1.4.1-9.2 0-14.2v-3.6l.1-14.5a55 55 0 0 0 0-7.2c-.2-1.6-3.5-8.9-14.4-9.5-4.9-.3-11.4 2-12.8 6.2a26.3 26.3 0 0 0-1 9.9v23c0 2.6-.2 5.8 0 7.4.4 2.5 1 6.4 3 8.2 2.5 2.2 7.2 4.2 10.6 4.4 5 .5 10-1.1 12-4zM325 119c-1.2-1.2-2-3.7-2.6-7.6-.2-1.4 0-4.5 0-7.2V81c-.3-2.4-.3-6 1-9.6 1.1-3.4 6.6-5.7 11.5-5.4 9.7.6 12.6 7 12.8 8.4.2 1.4 0 5.5 0 7l-.1 14.5v17.6c-.2 1.9-.2 2.9-2.4 6-1.7 2.3-6.1 3.8-10.7 3.4-3-.2-7.4-2-9.5-4zm12.5-1c1.2-.2 2.2-.8 2.6-1.9l.4-1.4c.3-1.6.6-3.3.5-5v-5c-.2-.5-.2-1.1 0-1.7v-1.3c-.3-3.5.3-6 0-9.5 0-.6.2-2 .4-2.5-.5-1.5 0-2.8-.2-4.2-.2-1.3.2-2.9 0-4.1v-4.5l-.1-1.7a4.5 4.5 0 0 0-2.2-3.2c-3.8-2.4-7.8-1.3-9.5 1.2a5 5 0 0 0-1 3.5c.4 4.2-.2 8.4-.2 12.5 0 1.9.2 3.8.4 5.8.2 2.2-.1 4.3-.1 6.5v6c0 1.8.3 4 .4 5.8 0 .7.4 1.5.7 2.1.6 1.1 1.8 2 3.1 2.4 1.6.5 3.3.5 4.8.2z" class="cls-7"/><path id="path1027" fill="#443619" d="m340.2 129.8-1.8-.1-2.5-.1c-.9 0-1.8 0-2.8-.2-2.2-.3-4.7-.8-7.2-1.4-4-1.2-7-2.7-9-5l-.7-.8-.6-1.5c-.8-1.8-1.7-3.7-1.7-5.6l-.2-2.5-.2-3v-3.4l-.1-8.5c-.2-1.4 0-2.8 0-4.2V89c-.2-1.4-.2-3.1 0-5.3l.2-6.2v-3c.2-2.7.7-4.8 1.6-6.6 1-1.9 2.8-3.4 4.3-4.7l.6-.4 1-.7c1-1 2-1.3 3.3-1.7l.2-.1c4.1-1.2 8.5-1.3 13-.5 3.8.6 7.1 1.8 10 3.5l.2.1.5.4.4.4c1.8 1.6 3.8 3.2 5 5.4 1 1.8 1.3 3.5 1.6 5.3.5 2.4.4 4.9.4 7.2v13.5l-.2 4.2v.9l.1 2.2c.2.8.3 1.6.1 2.3v6c0 1.7.1 3.4-.4 5l-.1.2v.1c.2 2.2-.7 4-1.5 5.6l-.4.8c-.6 1.2-1.8 2.5-3.5 4-.4.3-.8.4-1.1.5l-.4.2-1.4.6c-2 1-4.2 1.6-6.7 1.6zm-22.5-8.3.3.5c1.9 2 4.5 3.4 8.4 4.4a50 50 0 0 0 9.6 1.5c.8 0 1.6 0 2.5.2a14 14 0 0 0 7.7-1.3l1.3-.7.6-.2c.3 0 .5-.2.7-.3a11 11 0 0 0 3-3.4l.4-.8c.8-1.6 1.6-3 1.4-4.8a15.1 15.1 0 0 0 .5-5.3v-8c-.3-1-.2-1.8-.2-2.7v-.8l.1-4.2c0-1.9.2-3.8.1-5.7v-7.7c0-2.3 0-4.6-.4-7-.3-1.6-.6-3.2-1.5-4.7a18 18 0 0 0-4.6-5l-.6-.5-.2-.2A28.5 28.5 0 0 0 325 62h-.2c-1.1.4-2 .7-2.8 1.4l-1.1.8-.5.4c-1.4 1.2-3 2.6-3.9 4.2a13 13 0 0 0-1.3 5.8l-.1 3-.2 6.3c-.2 2-.2 3.8 0 5v8.7c.2 2.3.1 5.5.1 8.7v3.3c0 1 0 2 .2 2.9l.2 2.5c0 1.7.8 3.3 1.5 5l.7 1.5zM336 125h-1.7c-3.6-.3-8.4-2.4-11-4.7-2.1-2-2.9-5.7-3.2-8.7a37 37 0 0 1 0-7.5V91l-.1-10a27 27 0 0 1 1-10.2c1.5-4.4 8.3-7 13.7-6.8 11.5.7 15 8.4 15.2 10.3.2 1.8 0 6 0 7.3l-.1 14.5V114c-.2 1.8-.4 3.2-2.8 6.7-2 2.7-6.2 4.4-11 4.4zm-2-58c-4.5 0-9 2.1-10 4.9-1.2 3.5-1.1 7-1 9.2l.1 10v13.2c0 1.8-.2 5.6 0 7 .5 3.9 1.3 6.2 2.4 7.2 1.9 1.7 6 3.5 9 3.8 4.2.3 8.4-1 10-3.2 2-2.8 2-3.7 2.2-5.3V96a464.8 464.8 0 0 1 0-21.5c-.1-1.3-2.9-7-12-7.6h-.7zm1.5 52.1c-1 0-2.2-.1-3.1-.4a6.1 6.1 0 0 1-3.6-2.8c-.4-.8-.8-1.7-.8-2.4l-.2-2.7a78 78 0 0 1-.3-5.9v-3.3l.1-2.5c.1-1.3.2-2.6 0-4v-1a42.5 42.5 0 0 1-.2-9.5c.2-2.5.3-5.1.1-7.8 0-1.5.3-2.9 1.1-4 1.8-2.8 6.3-4.1 10.6-1.4a5 5 0 0 1 2.5 3.7l.1 1.9a62 62 0 0 0 0 6.4v3.9c0 .8 0 1.5.2 2.3v.5a9 9 0 0 0-.3 1.5v11.7c-.2.5-.2 1 0 1.3v5.2a22.3 22.3 0 0 1-.7 6l-.2.6v.1c-.5 1.3-1.6 2-3.2 2.4l-2.1.2zm-1-47.5c-2 0-3.7.8-4.6 2.2-.6.8-.9 1.8-.8 3 .2 2.6 0 5.3 0 8l-.3 4.5.3 4.7.1 1c.2 1.5.1 2.9 0 4.2v5.7a77.4 77.4 0 0 0 .4 8.5 4.5 4.5 0 0 0 3.3 3.8 9 9 0 0 0 4.3.1c1-.2 1.7-.6 2-1.3l.2-.7.2-.7c.3-1.3.5-3 .5-4.7v-.3a38.3 38.3 0 0 1 0-4.6c-.3-.7-.2-1.5 0-2v-1.2c-.2-1.7-.1-3.3 0-4.8l-.1-4.6V92l.1-.8c0-.7.2-1.2.3-1.6-.2-1-.2-1.8-.2-2.6v-3.9l.1-1.8-.1-4.4-.1-1.7a3.7 3.7 0 0 0-1.8-2.6 7.3 7.3 0 0 0-4-1.2z" class="cls-13"/></g><g id="g1035"><path id="path1031" fill="#dadd9e" d="M381.4 134.5c-2-.5-5.8-1-9.5-1.7-2.2-.5-2.2-.5-2.3-2v-12.2l.1-6.8v-7c.1-1 .5-1.8.2-2.8-.2-.8-.2-1.5-.2-2.2L370 79c0-1.5-.1-3.1-.3-4.6-.2-2.6 0-5.2 0-7.8 0-.7.7-1 1.5-1 1.2-.2 2.6.1 3.8.4a127.6 127.6 0 0 1 20.7 4.7c3.2 1 6.3 2.6 8.9 4.9a11 11 0 0 1 2.1 2.8 30 30 0 0 1 2 4.1l.3 1.4c.2 1.1.2 2.2.5 3.4.7 2.7.6 5.2.6 7.8 0 1.8-.2 3.6.3 5.5v1.1l-.3 7.4c-.3 2.7-.1 5.5-.1 8.3 0 3.6-.2 7.1-.6 10.5-.2 2.3-1 4.4-2.8 6l-2.8 2.4c-.4.3-.9.5-1.3.6-1.9.2-3.7.7-5.9.6-.6 0-1.2 0-1.8-.2a359 359 0 0 0-13.3-2.9zm22.2-8.1.4-3 .5-4.3v-15.7l-.1-6.6v-3.5c0-1.3-.5-8.4-.8-10.2-.4-2.1-4.4-6-7.5-7.3a93 93 0 0 0-8-2.3l-1.9-.4a81 81 0 0 0-4-1l-5.2-1-.3 3.2c0 .7.4 6.7.3 8-.1 1.1-.5 11.4-.3 13 .2 1.5 0 15.4-.2 18v8.5l.1 7.1c6 1.1 9 1.8 15 3.1 9.1 2 12-4.4 12-5.6zM378 128l-.1-6a78 78 0 0 1 0-8.5c.2-2.5.4-16.4.2-18-.2-1.5 0-11.8.2-13 .1-1.3-.2-7.2-.2-8l.2-2 3.8.9a66.3 66.3 0 0 1 5.8 1.3c4.7 1 7 1.8 7.7 2.2 2.9 1 6.2 4.5 6.4 6 .3 1.8.9 8.7.9 10v13.7c.2 1.4.2 2.7.2 4.5l-.1 7.7-.6 4-.4 3.2c0 1-2.4 6.7-10.5 4.8-5.4-1.2-8-1.8-13.5-2.8zm13.3-2c3.3.1 5.2-.4 5.1-3.7v-1.6c0-5.9.5-11 .1-17.6 0-2.3 0-4.6-.2-7-.2-2.8-.2-5.6-.2-8.5 0-1 0-2.2-.5-3.3a6 6 0 0 0-4.6-4.1l-5.1-1.3h-.8c-.5-.2-.8.1-.8.4v3c-.4 3.5.1 5.4 0 8.6-.3 4.1 0 8.6-.1 12.6-.1 1.3.3 2.6.3 3.8-.4 2.6.3 5.5 0 8v8.6c0 .5.4.8 1 1 1.9.6 4 1.1 5.8 1.2z" class="cls-7"/><path id="path1033" fill="#443619" d="M397.4 138.4h-1c-.5 0-1.2 0-1.9-.2-5.3-1.3-8-1.8-13.3-2.9-1-.3-2.5-.5-4.3-.8-1.6-.3-3.4-.5-5.2-1-2.3-.4-2.8-.6-2.9-2.8v-4.6a151.4 151.4 0 0 0 0-5v-2.5l.1-6.8v-7.2l.2-.9c0-.5.2-1 0-1.5-.2-.8-.2-1.5-.2-2.2v-.2a391.4 391.4 0 0 1 .2-20.8l-.3-4.5c-.2-2-.1-4 0-5.9v-1.9c0-1 .8-1.8 2.2-1.9 1.3 0 2.7.2 4 .5a124 124 0 0 1 20.8 4.7c4 1.4 7 3 9.2 5a23 23 0 0 1 4.3 7.3l.2.3.2 1.3.2 1.3c0 .7.1 1.3.3 2 .6 2.4.6 4.7.5 7v2.2c0 1.4 0 2.7.3 4.1.2.5.2 1 0 1.4l-.1 3.7c0 1.2 0 2.4-.2 3.7v8.2c0 3.9-.2 7.4-.6 10.6-.3 2.8-1.3 5-3 6.5l-3 2.5c-.3.3-1 .6-1.5.7l-1.4.2c-1.2.2-2.5.4-3.8.4zm-1-1.6c1.7 0 3-.2 4.5-.4l1.4-.2a58.5 58.5 0 0 0 3.6-2.8c1.5-1.3 2.4-3 2.6-5.5.4-3 .5-6.6.5-10.4v-2.1c0-2 0-4.2.2-6.2l.1-3.6c0-1.3 0-2.6.2-3.8v-1c-.4-1.6-.4-3-.3-4.5v-2.2c0-2.3 0-4.4-.5-6.6l-.4-2.2-.1-1.3-.2-.9-.1-.2a24.9 24.9 0 0 0-4-6.7c-2-1.9-4.8-3.4-8.5-4.7l-5.8-1.7c-3.7-.8-6.7-1.5-9.3-1.8l-5.6-1a13 13 0 0 0-3.5-.6c-.4 0-.7.1-.7.4l-.1 2v5.6c.2 1.4.4 3 .4 4.7l-.1 7.5c-.1 4.3-.2 8.8-.1 13.2v.2l.1 1.8c.3.8.1 1.6 0 2.2l-.1.8v7l-.1 6.8v2.5l-.1 2.8a2838.7 2838.7 0 0 1 .2 7.7l1.5.4 5.1.9 4.4.8a335.9 335.9 0 0 1 15 3zm-1.4-3.6c-1 0-2.3-.1-3.6-.4-6-1.4-8.9-2-15-3l-.6-.2v-7.7c-.2-3.5-.2-7 0-8.7.1-2.6.3-16.4.1-17.7-.2-1.8.1-12.3.2-13.4a93.5 93.5 0 0 0-.2-7.8l.3-4.2.9.2 2.4.5 2.8.6 4 .9h.4l1.5.5c2.7.6 7 1.8 8.2 2.3 3.3 1.3 7.5 5.5 8 7.8.3 2 .8 9 .8 10.4v13.6c.2 1.3.2 2.7.2 4.5l-.1 7.8-.6 4.4-.3 2.8c0 .8-.9 3.1-3.2 4.9a10 10 0 0 1-6.2 2zm-16.1-5.9 12.9 2.7c3 .7 5.6.4 7.4-1a5.5 5.5 0 0 0 2.1-3l.4-3.3.6-4V103c0-1.6 0-4.3-.2-6.6V93c0-1.2-.5-8-.8-9.9-.1-1-3-4.3-5.9-5.3h-.1c-.3-.3-1.8-.9-7.4-2.2l-2.1-.5-3.8-.8-.4-.1-2.5-.5-.1 1v1.8c.2 2.8.3 5.3.2 6.2-.1 1.1-.4 11.4-.2 12.8.2 1.8 0 15.8-.2 18.2-.1 1.5-.2 4.9 0 8.5v5.2zm13-.4h-.5c-1.6 0-3.7-.5-6-1.2-1.4-.4-1.6-1.3-1.6-1.8v-12c-.2-1.5-.3-3.1 0-4.7l-.2-1.5-.2-2.2v-6.2l.1-6.5v-3.6c-.1-1.4-.2-3 0-5v-2.9c0-.4.2-.7.5-1 .4-.3.8-.4 1.3-.3l.9.1a208.7 208.7 0 0 0 5.1 1.3c2.5.7 4.5 2.4 5.2 4.7.5 1.3.5 2.6.5 3.5v1.5a81.8 81.8 0 0 0 .4 11.1v2.9c.2 3.9.1 7.2 0 10.5v8.7c0 1.5-.4 2.6-1.1 3.3-1 1-2.7 1.3-4.4 1.3zm-6.7-47.3v2.8a24 24 0 0 0-.1 4.7v10.2a93.3 93.3 0 0 1 .1 8.2l.2 1.8v.1a13 13 0 0 0 0 4.4v12.1l.4.2c2.2.7 4.2 1.1 5.6 1.2 2 0 3.2-.2 3.7-.8.5-.4.6-1.2.6-2.2v-1.6l.1-7.1a120.5 120.5 0 0 0 0-13.4c0-1.3 0-2.7-.2-4-.2-2.4-.2-4.8-.2-7.1v-1.5a9 9 0 0 0-.4-3 5.6 5.6 0 0 0-4.1-3.6 98.9 98.9 0 0 0-5-1.3h-.7z" class="cls-13"/></g><g id="g1041"><path id="path1037" fill="#dadd9e" d="M435.1 148.3c-3.2-1.8-6.2-4-8.4-7l-.4-.6c-.9-2.6-2.1-5.1-2.2-7.5 0-1.8-.4-3.8-.4-5.6 0-4 .2-8.7-.1-12-.2-2.7.3-5.7 0-8.6a30 30 0 0 1 0-5.2c.2-3 .2-6.3.3-9.1 0-2.1.4-4.2 1.4-5.8a11 11 0 0 1 4-3.4l1.4-.8c1-.6 2-.6 3.2-.7 4-.1 8.2 1 12 2.7 3.3 1.5 6.5 3.5 9.4 6 0 .2.2.3.3.5 2 2.2 3.9 4.5 5 7 .9 2 1.2 3.7 1.5 5.4.7 3.8.2 7.2.3 10.7l.1 4.2c.1 3.4-.2 6.6-.2 9.9 0 1-.1 2.2.1 3.3.2.7.2 1.4.1 2-.2 1.5 0 3.1 0 4.6 0 2 .2 4.3-.4 6.2v.6c.1 2.3-1 3.9-1.8 5.5a8.2 8.2 0 0 1-3.2 2.8c-.4.2-.9.2-1.3.3l-1.2.2c-2.3.7-5 .4-7.7-.7l-5-1.6c-2.3-1-4.7-2.1-6.8-3.3zm19.3-1.8c2.1-2.6 2.3-4 2.4-5.6v-17.7l.1-14.5c.1-1.4.2-5.5 0-7.2-.2-1.7-3-9.8-13.7-13.3-4.6-1.5-11-.9-12.3 2.9a25.4 25.4 0 0 0-1 9.6l.1 10v13.1c0 2.6-.2 5.8 0 7.4.3 2.6 1 6.6 3 9 2.2 2.8 6.7 6 10 7.2 4.9 1.7 9.5 1.4 11.4-.9zm-20.5-6.7c-1.2-1.5-2-4.3-2.5-8.3-.2-1.5 0-4.5 0-7.2v-23.1c-.2-2.5-.3-6 1-9.3 1-3.1 6.4-4 11-2.5 9.4 3.2 12 10.3 12.1 11.8.2 1.5.1 5.5 0 7v32.1c-.2 1.8-.3 2.8-2.3 5.3-1.7 2-5.9 2.2-10.2.6-2.9-1-7-4-9-6.4zm12 2.3c1.1 0 2-.3 2.4-1.2l.4-1.4c.3-1.5.6-3.1.5-4.8v-5.1c-.2-.5-.2-1.1 0-1.6v-1.4c-.3-3.5.2-6 0-9.5 0-.5.1-2 .3-2.4-.4-1.6 0-2.8-.2-4.3-.1-1.3.2-2.7.1-4v-4.5c0-.5 0-1.2-.2-1.8a6.3 6.3 0 0 0-2-3.8c-3.6-3.3-7.5-3.3-9-1.2-.8.8-1 1.9-1 3.3.3 4.3-.2 8.3-.3 12.4 0 1.8.2 3.9.4 5.9.2 2.3 0 4.3 0 6.5v6l.3 5.9a7.7 7.7 0 0 0 3.7 5.5c1.5.8 3.1 1.4 4.6 1.4z" class="cls-7"/><path id="path1039" fill="#443619" d="M452 155a16 16 0 0 1-5.4-1c-.8-.4-1.5-.6-2.3-.8l-2.7-.9c-2.1-.8-4.6-2-6.9-3.3a26.3 26.3 0 0 1-8.6-7.2l-.6-.9-.6-1.7c-.8-2-1.6-4-1.6-6l-.2-2.5-.2-3.1v-3.3l-.1-8.6V107c-.2-1.4-.2-3.2 0-5.3l.2-6.1v-3c.2-2.7.7-4.7 1.6-6.3a12 12 0 0 1 4.2-3.6l.6-.3.9-.5c1-.6 2.1-.7 3.3-.8h.2c4-.1 8.2.8 12.5 2.8a38 38 0 0 1 9.5 6.2l.5.5.4.5c1.7 2.1 3.5 4.3 4.7 6.7.9 2 1.2 3.8 1.5 5.6.4 2.6.4 5 .3 7.3v3.4l.1 4.3v5.7l-.2 4.2v3.1c.3.8.3 1.6.2 2.4v6c0 1.6 0 3.3-.4 4.8v.4c.1 2.3-.8 3.9-1.6 5.3l-.3.6a8.6 8.6 0 0 1-3.5 3.2l-1 .3h-.5l-1.3.3c-.8.2-1.7.4-2.6.4zm-25-14.7.4.6c1.8 2.5 4.4 4.6 8.1 6.7a57.4 57.4 0 0 0 11.6 4.8c2.7 1 5.2 1.3 7.2.8l1.4-.3.5-.1.6-.1a7.1 7.1 0 0 0 3.1-3.2c.7-1.3 1.4-2.6 1.3-4.4 0-.3 0-.6.2-1 .3-1.2.3-2.7.3-4.2v-8c-.3-1-.2-1.8-.2-2.7v-.8l.1-4.2.1-5.7-.1-4.2v-3.5c0-2.3.1-4.6-.3-7-.3-1.8-.6-3.4-1.4-5.2-1-2.3-2.8-4.3-4.5-6.3l-.5-.7-.2-.2a36.4 36.4 0 0 0-9-6 28 28 0 0 0-11.8-2.6h-.2c-1 .1-1.9.2-2.6.6l-1 .6-.5.2c-1.4.9-2.8 1.8-3.6 3.1a11 11 0 0 0-1.3 5.4v3l-.3 6.2v13.7c.2 2.4.1 5.6.1 8.7v3.3c0 1 0 2 .2 3l.2 2.6c0 1.6.7 3.5 1.5 5.4l.6 1.7zm21.8 9c-1.8 0-4-.4-6-1.1a28 28 0 0 1-10.5-7.4c-2-2.5-2.7-6.4-3-9.5a37 37 0 0 1 0-7.5v-13c0-5.4-.1-9-.2-10-.1-2.6-.2-6.4 1-10 1.5-4.2 8-5.1 13.3-3.4 11 3.7 14 12 14.3 14a453 453 0 0 0-.1 21.8v3.6c.1 4.7.2 12.8 0 14.2-.1 1.7-.3 3.2-2.6 6-1.2 1.5-3.5 2.3-6.2 2.3zm-10-59.8c-2.7 0-5.1 1-5.7 2.7a22.5 22.5 0 0 0-1 8.9l.1 10v20.4c.6 4 1.3 6.5 2.4 7.9 1.8 2.3 5.9 5.2 8.7 6.2 4 1.4 7.9 1.2 9.3-.4 1.8-2.3 1.9-3 2-4.7v-17.7a481.6 481.6 0 0 1 .1-21.4c-.2-1.6-2.7-8.1-11.6-11a13 13 0 0 0-4.2-.8zm-6 .4zm13.3 53h-.3c-1.6-.1-3.4-.7-5-1.6a8.4 8.4 0 0 1-4-6.1l-.2-2.8-.2-3.2v-6l.1-2.4v-5c-.3-1.7-.4-3.4-.4-5l.2-4.5c.1-2.6.3-5.2.1-7.8-.1-1.6.3-3 1.1-3.9.7-1 2-1.6 3.3-1.7 2.2-.2 4.7.9 6.9 2.9 1.3 1.1 2 2.5 2.3 4.2l.1 1.9a64.3 64.3 0 0 0 0 6.5v3.8c0 .8 0 1.5.2 2.4v.5l-.3 1.4v11.7c-.2.3-.2.8 0 1.3v5.2c0 1.9-.2 3.7-.5 5l-.2.8-.2.6v.1c-.3.8-1.1 1.7-3 1.7zm-4.7-48.4h-.4a3 3 0 0 0-2.2 1.2c-.6.6-.8 1.5-.8 2.6.2 2.8 0 5.5 0 8l-.3 4.5.3 4.8.1 1c.2 1.5.1 3 0 4.3v8.2l.1 3.2.2 2.8c0 .6.5 1.6.7 2a6.8 6.8 0 0 0 2.6 2.8c1.4.8 2.9 1.3 4.2 1.4 1.3 0 1.6-.4 1.7-.7l.2-.7.2-.6c.2-1.2.5-2.8.4-4.5v-.4a40.6 40.6 0 0 1 0-4.6c-.2-.6-.2-1.3 0-2v-1.1a39 39 0 0 1 0-4.8v-5.6l.3-1.6c-.2-1-.2-1.8-.2-2.6v-3.8c.1-.7.2-1.3.1-1.9V102c0-.5 0-1.1-.2-1.6a5.5 5.5 0 0 0-1.8-3.3 8.1 8.1 0 0 0-5.2-2.5z" class="cls-13"/></g></g><g id="g1059"><path id="path1045" fill="#dadd9e" stroke="#dadd9e" stroke-miterlimit="10" stroke-width=".5" d="M186.7 497.1c-.1-.3-.1-1.2.1-1.8.3-.6 1.4-1.7 1.5-1.7.4-.3 1.3-.5 1.8-.2l-.5.5c-.6.7-.4 1.6 0 2l.7.5h.3c.5 0 1 0 1.3-.4l.6-.7c.3-.4.5-.8.9-1l.3-.5 3.2-3.8c1.2-1.4 2.1-2.8 3.5-4.3.2-.3.3-.7.6-1l.7-.8 1.4-1.6c.2-.2.3-.3.5 0l1.2.8a2.5 2.5 0 0 1 .9.8l.5.5c0 .3-.4.4-.5.7l-.4.5-.7.9-2 2.4-2 2.6c-1.1 1.1-2 2.4-3 3.6l-2.2 2.7a7 7 0 0 1-2 2c-.5.2-1 .6-1.6.7h-.7c-1.1-.1-2-.5-2.6-1a5 5 0 0 1-1.8-2.4zm5.5 1.5c.6-.3 1.5-1.5 2.1-2.2l5.1-6.2 2.6-3 2-2.7-.3-.3-2 2.7-2.6 3c-.4.7-4.5 5.5-5.1 6.2-.6.7-1.5 1.9-2 2.2-1.2.5-2.3 0-2.9-.6a2 2 0 0 1-.6-1l-.1-.8-.4.1.1.8c.1.4.3.8.8 1.2.7.6 2 1.3 3.3.6z" class="cls-6"/><path id="path1047" fill="#dadd9e" stroke="#dadd9e" stroke-miterlimit="10" stroke-width=".5" d="m229.2 524.3-.1-.2c-.4-.5-.7-1-.6-1.7.1-.7.2-1.6.5-2.3.2-.7 0-1-.6-1.2-.8-.2-1.6-.6-2.3-1h-.6l-1 1.5-.9 1.2-.2.2c-.1 0-.2.1-.4 0l-.8-.3-2-1h-.2c0-.1-.1-.3 0-.4l.9-1.3 2.3-3c.3-.6.8-1.1 1-1.7l.5-.7c.5-.5.8-1 1.2-1.7l.7-1 .8-1.2 1-1.4c.4-.7 1-1.4 1.6-2.1l.8-1.3 1.3-2 .8-1c.1-.2.3-.2.5-.2l1 .6 2.6 1.1.4.2c.2.1.3.3.3.5l-.5 1.8-.5 2.1-.5 1.5-.3 1.5-.9 3.2-1 3.8-.9 2.5-.7 2.9-.3 1.4c0 .4 0 1 .2 1.5 0 .1.3.2-.1.3-.7.2-1.3 0-1.9-.3l-1-.8zm1.7-.8c-.3-.6-.2-1.8 0-2.2 0-.2.1-1 .4-1.8l.6-2.2 1-3.1.7-2.4.6-2 .6-2.4.1-.6c.3-1.3.9-3 .5-3.1l-.3-.1c-1-.5-1.6-.8-1.7-.6-.5.2-3 3.8-4 5.1a317.6 317.6 0 0 1-7.2 10.7l.3.2 1-1.4 1.4-2 .8.4 2.2 1 1.3.6.6.2 1.4.6a34.6 34.6 0 0 0-.8 2.8c0 .5-.2 1.8.2 2.5l.3-.2zm-5.8-8.2.6-.9 2.3-3.3a69 69 0 0 0 1.8-2.7c1.3-2.2 3.5-5 3.7-5.1l1.7.8-.7 2.6-.1.6-.6 2.4-.6 2-.6 2.3a40.6 40.6 0 0 0-1.3 4l-1.3-.5-.6-.3-1.4-.6a20 20 0 0 1-2.1-1l-.7-.3zm4.3.2c.2.1.4.1.5.3.2 0 .4 0 .5-.3l.7-2.4 1-3.2c.1-.9.4-1.7.6-2.5v-.2h-.2c0 .3-.2.4-.4.6l-.7 1.1-.7 1-1.4 2.3v.1l-1.5 2.2c-.1.2-.1.3 0 .4.6.2 1 .5 1.6.6z" class="cls-6"/><path id="path1049" fill="#dadd9e" stroke="#dadd9e" stroke-miterlimit="10" stroke-width=".5" d="m272.5 537.4-1-.8c-.4-.4-.8-.8-1-1.3 0-.6-.2-1.2-.4-1.7l-.1-.5a16.3 16.3 0 0 0-.6-3.2c0-.3 0-.6-.2-1 0-.2 0-.4-.2-.6-.3 0-.4.3-.5.4a1 1 0 0 0-.5.7l-.6 3-.4 2.6v.3c-.1.2-.3.2-.4.2h-.5l-2.6-.6c-.2 0-.2-.1-.2-.3l1-5.4.3-1.1.5-2.8.6-2.8.3-1 .3-1.1c0-.5 0-.9.2-1.3l1.2-6.2c0-.2.2-.3.4-.3h.1l3 .7c.2 0 .3.1.3.3l-.1.7-.6 2.6-.3 1.2c0 .5-.2 1-.3 1.4l-.5 2.5v.2h.2l2.1-3 1-1 2-2.8.7-1h.9l2.3.5c.2 0 .4 0 .6.2 0 0 .1.1 0 .2l-.1.3-1.8 2.4-.7.7-.3.3c-.3.6-.9 1-1.3 1.6l-1.7 2.3-1.1 1.5c0 .2-.2.3-.1.5l.2 1.2.4 2v.4l.2 1 .5 2.7.6 2.7c0 .4.2.7.4 1.1 0 .3.6 1 1.1 1.2l.3.2c-.1.3-.8.5-1 .5a5 5 0 0 1-2-.3c-.3 0-.4-.1-.6-.3zm1.1-1.3c-.3-.2-.7-1-.8-1.4-.2-.2-.4-1.2-.6-2l-.3-1.2-.2-1.3-.2-1.6-.6-2.4-.4-1.8.2-.2.3-.4 1.3-1.6 2.5-3 1.4-2 1-1.4-.3-.2-1 1.4-1.4 2-2.5 3-1.3 1.5-.3.4-.5.7-1 .5-.5.4-1.1.4.3-1.8.5-2.6.4-2.5.6-2.5.5-2.5h-.4l-.5 2.4-.5 2.6-.5 2.4-.5 2.6-.4 2.4-.6 2.4-1 4.7.3.1c.2-.3 1.1-4.4 1.1-4.8l.6-2.4 1.4-.6.6-.3 1-.7.3 1.4.6 2.5.2 1.5.2 1.4.3 1.1.6 2.2c.1.3.5 1.3.9 1.5l.3-.3z" class="cls-6"/><path id="path1051" fill="#dadd9e" stroke="#dadd9e" stroke-miterlimit="10" stroke-width=".5" d="m316.2 540.9-.2-.1c-.5-.4-1-.8-1.3-1.4-.2-.7-.5-1.5-.5-2.3 0-.7-.4-1-1-.8h-2.8l-.2.2-.4 1.8-.3 1.5v.3l-.4.1h-3.3c-.2 0-.2-.1-.2-.3l.3-1.5.8-3.8c.1-.7.3-1.3.3-2l.2-.8.4-2 .2-1.1.2-1.6.3-1.5.6-2.7.3-1.4.3-2.5.3-1.3.4-.2h4.5c.2 0 .4.2.4.4l.3 1.8.4 2.2.2 1.5.3 1.5.5 3.3.6 4 .3 2.5.5 3 .3 1.3c.1.5.4 1 .8 1.3.1.1.4.1 0 .4-.6.4-1.2.6-1.8.4l-1.3-.2zm1.2-1.5c-.5-.3-.9-1.5-1-2l-.3-1.7-.3-2.3-.4-3.3c0-1.1-.3-2.2-.3-2.4l-.3-2-.5-2.5v-.6c-.3-1.3-.5-3-.9-3h-.3c-1 0-1.8-.1-1.9.1-.3.4-1.1 4.8-1.4 6.3l-.5 3.2a115.4 115.4 0 0 0-1.5 7.9l-.3 1.7h.4l.3-1.7.5-2.4h6.9l.1 1 .3 1.9c.1.4.5 1.8 1.1 2.2l.3-.4zm-8.6-5.1c0-.4 0-.7.2-1l.7-4 .5-3.2a45 45 0 0 1 1.3-6.2h2l.3 2.7.1.6.5 2.5.3 2 .3 2.5.4 3.3.2.8h-6.8zm4-1.5h.5c.3 0 .4 0 .4-.4l-.4-2.5-.4-3.3-.4-2.6-.1-.2-.1.1-.2.7-.2 1.3-.3 1.2-.3 2.7v.1l-.4 2.6c0 .2 0 .3.2.3h1.7z" class="cls-6"/><path id="path1053" fill="#dadd9e" stroke="#dadd9e" stroke-miterlimit="10" stroke-width=".5" d="m359.2 534.8-1-.8-1.5-2.1c-.1-.5-.4-.9-.6-1.3l-1.5-2.7-.5-1.2c-.1-.3-.3-.3-.6-.2-.2 0-.2.1-.2.2v.6l1.8 8.3c0 .4 0 .4-.4.5l-.5.1-1 .3-1 .2-.5.1c-.3.1-.4 0-.5-.2l-.3-1.8c-.3-1.2-.6-2.4-.7-3.6l-.1-.4-.7-3.1c-.1-.7-.2-1.4-.5-2l-.1-.8-.7-3-.6-3.3-.7-3.3v-.5l.1-.3.6-.1a11 11 0 0 0 1.9-.5l1-.2c.9 0 1.7-.2 2.6-.4l1.2-.1c.7 0 1.3.2 1.9.6.2 0 .4.2.6.4l.3.2c.5.6 1 1 1.2 1.8a13.7 13.7 0 0 1 .6 2.1l.3 1.7v1.4c.1.7 0 1.3-.2 2l-.5.8c-.2.5-.4.5-.7.8l-.3.3.9 1.5 1.5 2.7 1.5 2.4 1 1.3c.3.3.6.5 1 .6h.5l.1.1-.1.3c-.3.5-.8.8-1.3 1-1.1.2-2.2.1-3.3-.4zm2.2-1c-.1 0-.6 0-1.1-.5l-1-1.4-.7-1.4-.2-.5-.3-.4-1-1.7-1.9-3.1.8-.4c.6-.4 1.5-2.2 1.5-2.8 0-.7-.4-3.2-.6-4-.3-.7-.5-1.5-1-2.2-.7-.7-2.4-.8-3-.6l-2.5.4-1.6.3.4 2 1 4.8.8 4.2.4 1.5 1.3 7 .4-.1-1.3-7-.4-1.4-.2-1 1.9-.3s1 0 1.7-.3l1.9 3.2 1 1.7.3.5.2.4.9 1.5c.2.3.7 1.2 1 1.4.2.4 1 .7 1.3.7v-.4zm-10.3-8.7-.6-2.9-1-4.8-.2-1.6 1.2-.2 2.4-.4c.8-.2 2.2 0 2.6.5.6.6.8 1.3 1 2.1l.6 3.7c0 .6-.9 2.2-1.4 2.6-.4.4-2.4.7-2.7.7l-1.8.3zm3.5-2 .6-.5c.2-.5.3-1 .2-1.4l-.2-1.3a11 11 0 0 0-.6-2.3c-.2-.5-.5-.7-1.1-.8l-1 .1c-.2.2-.5.2-.9.3h-.2l-.2.3v.2c.2.9.5 1.7.6 2.6v.2l.3 1 .4 1.7.2.2c.7 0 1.3-.1 2-.4z" class="cls-6"/><path id="path1055" fill="#dadd9e" stroke="#dadd9e" stroke-miterlimit="10" stroke-width=".5" d="m396.3 523-.8-2-2-4.5-.2-.4c-.4-.4-.5-1-.8-1.5v-.3c-.4-.5-.5-1-.7-1.6l-.2-.4c-.3-.3-.4-.8-.6-1.2l-1.2-2.7-.2-.4a7.4 7.4 0 0 1-1-2c0-.2-.2-.2-.4-.2l-.5.3c-.7.4-1.2.5-2 .8l-.2.2c-.2 0-.3 0-.4-.2l-.4-.8-.8-1.8c0-.3 0-.4.3-.5l1-.5 3.4-1.5.4-.2c1-.3 2-.9 3.1-1.3l1-.5.4-.2c.3-.1.5 0 .6.2l.5 1.2.5.9.1.5v.1l-.9.5-1.7.8-.4.1v.6c.7 1.2 1.2 2.5 1.7 3.8l.2.4c.9 1.5 1.4 3.2 2.2 4.8.2.4.4.9.7 1.2l.1.4 1.3 3.2 1.4 3c0 .2 0 .3-.2.4-.4.2-.8.6-1.3.7-.4.3-.9.4-1.3.6l-.3.1c-.2.1-.3 0-.4-.1zm1.5-2-1.2-2.7-1.6-3.6-2-4.6-.7-1.7-1.2-2.4-.3-.6-.5-1-.4-1 1-.5.9-.4 1.3-.6-.2-.4-1.3.7c-.3 0-.5.2-.8.4l-2.3 1c-.3 0-.7.3-1 .4l-1.7.8.1.4a43 43 0 0 0 1.8-.8l1-.5.8-.4.5 1 .4 1 .4.7 1.1 2.4.8 1.7 1.9 4.5c.1.5.8 2 1.6 3.6l1.2 2.7.4-.2z" class="cls-6"/><path id="path1057" fill="#dadd9e" stroke="#dadd9e" stroke-miterlimit="10" stroke-width=".5" d="M438.5 498c0 .1-.1.2-.2.1-.6 0-1.3.1-1.8-.3-.6-.4-1.4-.8-1.9-1.4-.5-.5-.9-.5-1.3 0l-2 1.6-.1.2-.1.3.8 1.5.7 1.4.1.3v.3l-.7.6-1.8 1.3-.2.2-.3-.1-.8-1.4a28 28 0 0 0-1.7-3.5l-1-1.7a1 1 0 0 1-.3-.7l-1-1.8-.5-1-.8-1.4-.8-1.4-1.2-2.5-.7-1.3-1.3-2-.5-1.3.1-.4 1-.7 2.1-1.8.4-.3h.5l1.4 1.2 1.7 1.5 1.1 1c.4.4.7.8 1.1 1 1 .7 1.7 1.5 2.5 2.3l3 2.7 1.8 1.8 2.3 2 1 .9c.4.2 1 .5 1.5.5.2 0 .3-.2.2.3a2 2 0 0 1-1.1 1.4l-1.2.7zm0-1.8c-.6 0-1.6-.7-2-1a22 22 0 0 1-1.3-1.1l-1.7-1.6-2.3-2.3-1.8-1.7-1.6-1.4-1.9-1.6-.4-.4c-1-1-2.2-2.2-2.5-1.9l-.3.2c-.8.7-1.4 1-1.3 1.3 0 .5 2 4.4 2.8 5.8l1.6 2.9a114.5 114.5 0 0 0 3.8 7l.8 1.5.4-.2-.8-1.5-1.2-2.2.8-.5 1.8-1.5c.4-.5.8-.7 1.1-1l.5-.4 1.2-1 .7.7 1.4 1.3c.4.3 1.5 1 2.3 1v-.4zm-9.9 1.4-.5-.9-2-3.5-1.5-2.9c-1.3-2-2.9-5.3-2.9-5.6l1.5-1.2s1.2 1 2 1.9l.5.4 1.8 1.6 1.6 1.4 1.8 1.7a36.8 36.8 0 0 0 3 2.8l-1.1 1-.5.4c-.4.2-.8.5-1.2 1l-1.8 1.4-.7.5zm2.2-3.7.4-.3c.2-.2.2-.3 0-.5l-1.9-1.8a17 17 0 0 0-2.4-2.2l-2-1.9-.1.2.3.6.6 1.1.6 1.1a67.1 67.1 0 0 0 1.5 2.4l1.3 2.2c.1.3.2.3.4.2l1.2-1z" class="cls-6"/></g></g></svg>