<svg xmlns="http://www.w3.org/2000/svg" id="Layer_1" data-name="Layer 1" version="1.1" width="295.83" height="344.796"><defs id="defs4"><style id="style2">.cls-1{fill:#912200}.cls-2,.cls-7{fill:#ffb600}.cls-10{fill:#fff}.cls-12{stroke-miterlimit:10}.cls-8{fill:#ad3000}.cls-7,.cls-8{stroke:#ffb600;stroke-linecap:round;stroke-linejoin:round;stroke-width:4.45px}.cls-9{fill:#6b1400}.cls-11{fill:#c14721}.cls-12{fill:none;stroke:#000;stroke-width:6.35px}</style></defs><path d="M293.36 17.26H2.44A2.46 2.46 0 0 0 0 19.75v171.42c.4 9.12 1.12 20.67 2.3 27.5.16.81.33 1.64.51 2.5.08.35.16.69.22 1a177.49 177.49 0 0 0 16.17 45c10.09 19.09 23.32 34.48 39.34 45.74 17.62 12.39 38.56 19.69 62.27 21.71a2.41 2.41 0 0 0 1.57.58h49.44a2.38 2.38 0 0 0 1.63-.64c23.52-1.77 44.37-8.68 62-20.56 16.17-10.91 29.6-25.94 39.92-44.68a178.49 178.49 0 0 0 19.21-56.86c.74-.43 1.25-12.71 1.25-13.64V19.75a2.47 2.47 0 0 0-2.47-2.49z" id="path142" style="fill:#ad3000"/><path d="M285.06 27.99H10.72v169.89c.33 4.31 10 118 121.54 119.62v.19h32.85v0c112.14-2.77 119.94-119.71 119.94-119.71l-.2-.05h.2z" id="path144" style="fill:#d4731d;stroke:#ffb600;stroke-width:4.44999981px;stroke-linecap:round;stroke-linejoin:round"/><path class="cls-7" d="M10.73 197.88c.33 4.31 10 118 121.54 119.62v.19h32.85v0a145.56 145.56 0 0 0 20.9-2v-69.52H63.25c-34.21-2.59-52.52-48.29-52.52-48.29z" id="path146" style="fill:#ffb600;stroke:#ffb600;stroke-width:4.44999981px;stroke-linecap:round;stroke-linejoin:round"/><path class="cls-8" d="M35.32 162.17s.56-21.93 23.45-41.63c22.89-19.7 9.58-43.61-10.53-35.72-20.11 7.89-26.09 22.69-12.92 77.35z" id="path148" style="fill:#ad3000;stroke:#ffb600;stroke-width:4.44999981px;stroke-linecap:round;stroke-linejoin:round"/><path class="cls-8" d="M83.03 77.54S79.49 58.9 54.44 64.17c-25.05 5.27-26.48-10.84-14.2-20.26 12.28-9.42 45.73-5.46 42.79 33.63z" id="path150" style="fill:#ad3000;stroke:#ffb600;stroke-width:4.44999981px;stroke-linecap:round;stroke-linejoin:round"/><path class="cls-8" d="M75.89 232.24s-14.4-11.17-16.9-34.76c-2.5-23.59-24.71-27.31-28.81-11.25-4.1 16.06 2.98 26.99 45.71 46.01z" id="path152" style="fill:#ad3000;stroke:#ffb600;stroke-width:4.44999981px;stroke-linecap:round;stroke-linejoin:round"/><path class="cls-8" d="M247.54 84.86c-20.11-7.89-33.41 16-10.53 35.72 22.88 19.72 23.43 41.59 23.43 41.59 13.19-54.66 7.21-69.42-12.9-77.31z" id="path154" style="fill:#ad3000;stroke:#ffb600;stroke-width:4.44999981px;stroke-linecap:round;stroke-linejoin:round"/><path class="cls-8" d="M255.5 43.95c12.29 9.42 10.81 25.57-14.19 20.26-25-5.31-28.55 13.33-28.55 13.33-2.95-39.09 30.46-43.01 42.74-33.59z" id="path156" style="fill:#ad3000;stroke:#ffb600;stroke-width:4.44999981px;stroke-linecap:round;stroke-linejoin:round"/><path class="cls-8" d="M265.61 186.23c-4.11-16.08-26.32-12.34-28.82 11.25s-16.9 34.76-16.9 34.76c42.74-19.02 49.82-29.93 45.72-46.01z" id="path158" style="fill:#ad3000;stroke:#ffb600;stroke-width:4.44999981px;stroke-linecap:round;stroke-linejoin:round"/><path class="cls-7" d="M285.05 197.88c-.33 4.31-10 118-121.53 119.62v.19h-32.86v0a145.55 145.55 0 0 1-20.89-2v-69.52h122.76c34.21-2.59 52.52-48.29 52.52-48.29z" id="path160" style="fill:#ffb600;stroke:#ffb600;stroke-width:4.44999981px;stroke-linecap:round;stroke-linejoin:round"/><path class="cls-2" d="M226.65 160.99a46.19 46.19 0 0 0-4.9-19.08 106.28 106.28 0 0 0-8.62-14.18c-1.58-2.29-3.07-4.46-3.9-6l-1.22-2.24-.32-.58c-6.62-12.13-14.12-25.88-14.49-36.38V60.17l1.46-2.45a23 23 0 0 0 4.45-13.55v-14.3l.41-22.2V0H89.97v7.59l.31 22.26v14.32a22.94 22.94 0 0 0 5.16 14.45l1.29 2.15v21.74c-.37 10.53-7.87 24.28-14.49 36.41l-.11.19-1.43 2.63c-.83 1.52-2.32 3.69-3.9 6a107.28 107.28 0 0 0-8.62 14.16 46.43 46.43 0 0 0-4.9 19.09v100.43a22.84 22.84 0 0 0 .87 6.25 36.86 36.86 0 0 0 31 28.56 51.79 51.79 0 0 0 103.42-.74 36.83 36.83 0 0 0 27.19-27.77 23 23 0 0 0 .88-6.3v-99.81c.02-.2.02-.44.01-.62z" id="path162" style="fill:#ffb600"/><path d="M221.25 161.17c-.34-12.53-7.12-22.41-12.57-30.35-1.66-2.42-3.23-4.7-4.2-6.48l-1.53-2.81c-6.92-12.69-14.77-27.06-15.15-38.88V58.69l2.37-4a17.42 17.42 0 0 0 3.54-10.52V29.82l.41-22.23V5.41H95.37v2.18l.31 22.23v14.35a17.5 17.5 0 0 0 4.16 11.31l2.27 3.79v23.34c-.38 11.82-8.23 26.19-15.15 38.88l-1.52 2.82c-1 1.78-2.54 4.06-4.19 6.48-5.46 7.94-12.24 17.82-12.58 30.35v100.28a17.57 17.57 0 0 0 .71 5 31.47 31.47 0 0 0 30.72 24.75h89.71a31.47 31.47 0 0 0 30.74-24.8 17.57 17.57 0 0 0 .71-5v-99.76c0-.15 0-.31-.01-.44z" id="path164"/><path d="M146.86 339.55a46.57 46.57 0 0 1-46.52-44.65l-.67-16.52h94.37l-.67 16.52a46.55 46.55 0 0 1-46.51 44.65z" id="path166"/><path class="cls-1" d="M189.13 130.43c-8-14.74-18.36-32.64-18.8-49.79v-30l6.54-8.65V23.27s1.88-6.74-8.24-6.74h-46.19c-12.55 0-10.23 6.74-10.23 6.74v18.69l7.38 8.68v30c-.44 17.15-10.8 35-18.8 49.79-.44.81-.93 1.63-1.44 2.46-2.76 4.44-6.42 9.15-9.19 14.08a37.81 37.81 0 0 0-2.64 5.64 21.46 21.46 0 0 0-1.39 6.78v54.78h117.66v-54.78c-.28-10.49-9.95-20.3-14.66-28.96z" id="path168" style="fill:#912200"/><path class="cls-9" d="M189.13 130.43c-8-14.74-18.36-32.64-18.8-49.79v-30l6.54-8.65V23.27s1.88-6.74-8.24-6.74h-46.19c-12.55 0-10.23 6.74-10.23 6.74v18.69l7.38 8.68v30c-.44 17.15-10.8 35-18.8 49.79-.44.81-.93 1.63-1.44 2.46-2.76 4.44-6.42 9.15-9.19 14.08a37.81 37.81 0 0 0-2.64 5.64 21.46 21.46 0 0 0-1.39 6.78v54.78h60l26.46-38c8.43-9.23-2.28-31.11-2.28-31.11-13.93-19.62-14.57-63.62-14.57-63.62l12.29-2.67v1.79c.38 17.15 9.44 35 16.44 49.79 4.11 8.66 12.57 18.47 12.81 29v54.82h6.49v-54.78c-.26-10.49-9.93-20.3-14.64-28.96z" id="path170" style="fill:#6b1400"/><path class="cls-10" d="M170.37 81.52h-2.29c.66 16.88 9.53 34.42 16.41 48.91 4.11 8.66 12.57 18.47 12.81 29v54.74h6.49v-54.78c-.28-10.49-10-20.3-14.66-29-7.86-14.45-18-31.99-18.76-48.87z" id="path172" style="fill:#fff"/><path class="cls-1" d="M184.49 130.43c-7-14.74-16.06-32.64-16.44-49.79v-30l5.72-8.65V23.27s1.63-6.74-7.21-6.74h-40.4c-11 0-8.94 6.74-8.94 6.74v18.69l6.45 8.68v30c-.38 17.15-9.44 35-16.44 49.79-.38.81-.81 1.63-1.26 2.46-2.41 4.44-5.61 9.15-8 14.08a41.34 41.34 0 0 0-2.32 5.64 24.73 24.73 0 0 0-1.21 6.78v54.78H197.3v-54.78c-.24-10.49-8.7-20.3-12.81-28.96z" id="path174" style="fill:#912200"/><path class="cls-11" d="M197.3 159.39c-.24-10.49-8.7-20.3-12.81-29-7-14.74-16.06-32.64-16.44-49.79v-1.79l-12.29 2.67s.64 44 14.57 63.62c0 0 10.71 21.88 2.28 31.11l-26.46 38h51.15z" id="path176" style="fill:#c14721"/><path d="M172.61 176.25a32.74 32.74 0 0 1-55.78 0H86.12v81h118v-81z" id="path178"/><path class="cls-9" d="M86.12 257.29h117.67v.21a14 14 0 0 1-14 14H100.1a14 14 0 0 1-14-14v-.21z" id="path180" style="fill:#6b1400"/><path class="cls-1" d="M94.31 257.29h109.48v.71a13.48 13.48 0 0 1-13.48 13.48H107.8A13.48 13.48 0 0 1 94.32 258v-.71z" id="path182" style="fill:#912200"/><path d="M168.63 16.53h-46.19c-12.55 0-10.23 6.74-10.23 6.74v18.69l7.38 8.68v30.88h50.75V50.61l6.54-8.65V23.27s1.87-6.74-8.25-6.74z" id="path184"/><path class="cls-2" id="rect186" style="fill:#ffb600" d="M119.58 68.55h50.75v4.8h-50.75z"/><path class="cls-2" id="rect188" style="fill:#ffb600" d="M86.44 243.58h117.67v5.12H86.44z"/><path class="cls-11" d="M146.15 266.96h43.66c7.72 0 14-4.26 14-9.52v-.15h-57.66z" id="path190" style="fill:#c14721"/><path class="cls-10" d="M189.81 271.48a14 14 0 0 0 14-14v-.21h-6.49s.64 12.51-7.51 14.21z" id="path192" style="fill:#fff"/><path class="cls-2" d="M177.5 292.03a30.67 30.67 0 0 1-61.29 0z" id="path194" style="fill:#ffb600"/><path d="M116.21 292.03h17.3c.24 4.71-1 12.2-9.12 19.62a30.6 30.6 0 0 1-8.18-19.62z" id="path196" style="fill:#d4731d"/><path class="cls-10" d="M177.5 292.03h-17.3c-.24 4.71 1 12.2 9.12 19.62a30.5 30.5 0 0 0 8.18-19.62z" id="path198" style="fill:#fff"/><path class="cls-12" d="M133.5 289.4s1.35 18.86-11.52 24.14" id="path200" style="fill:none;stroke:#000;stroke-width:6.3499999px;stroke-miterlimit:10"/><path class="cls-12" d="M159.18 289.4s-1.35 18.86 11.52 24.14" id="path202" style="fill:none;stroke:#000;stroke-width:6.3499999px;stroke-miterlimit:10"/><path class="cls-12" id="line204" style="fill:none;stroke:#000;stroke-width:6.3499999px;stroke-miterlimit:10" d="M146.47 287.16v43.58"/><path class="cls-12" id="line206" style="fill:none;stroke:#000;stroke-width:6.3499999px;stroke-miterlimit:10" d="M108.35 298.29h72.76"/><path class="cls-10" id="rect208" style="fill:#fff" d="M107.97 15.83h72.36v4.48h-72.36z"/><path class="cls-10" id="polyline210" style="fill:#fff" transform="translate(-107.56 -262.83)" d="m282.6 281.87 4.36 25.8.93-27.41"/><path class="cls-10" d="M114.44 205.47v17.63l-1.16 1.88 1.16 2.13v7.2h5v-10.26h5v10.26h5v-35h-8.79a6.18 6.18 0 0 0-6.21 6.16zm10 13.59h-5v-13.59a1.2 1.2 0 0 1 1.18-1.19h3.82z" id="path212" style="fill:#fff"/><path class="cls-10" d="M148.44 229.05h-3.79a1.2 1.2 0 0 1-1.21-1.18v-25.28h-5v20.19l-1.36 2.2 1.36 2.5v.39a6.18 6.18 0 0 0 6.18 6.18h8.82v-31.46h-5z" id="path214" style="fill:#fff"/><path class="cls-10" d="M162.3 205.41v17.37l-1.36 2.2 1.36 2.5v.39a6.18 6.18 0 0 0 6.18 6.18h8.66v-8.17h-5v3.17h-3.7a1.2 1.2 0 0 1-1.19-1.18v-22.46a1.21 1.21 0 0 1 1.19-1.19h3.66v3.95h5v-8.95h-8.66a6.19 6.19 0 0 0-6.14 6.19z" id="path216" style="fill:#fff"/><path class="cls-10" d="m205.09 224.98-1.3-2.11v-3h-5v9.3h-5.35a2.11 2.11 0 0 1-2.11-2.12v-13.19h7.57v-5h-7.57v-9.69a2.1 2.1 0 0 1 2.11-2.11h5.76v5.56h5v-10.59h-10.76a7.12 7.12 0 0 0-7.11 7.11v2.9l-1.16 1.88 1.16 2.13V227a7.12 7.12 0 0 0 7.11 7.11h10.37v-6.74z" id="path218" style="fill:#fff"/><path class="cls-10" d="M104.76 222.87v-6.81a7.14 7.14 0 0 0-2.43-5.35l-.23-.2-9.33-4.8c-.19-.18-.4-.36-.48-.46a.62.62 0 0 1 0-.16v-5.92a2.11 2.11 0 0 1 2.11-2.11h5.37v5.37h5v-5.34a4.8 4.8 0 0 0-1-3.5 4.48 4.48 0 0 0-3.59-1.53h-5.74a7.12 7.12 0 0 0-7.11 7.11v3.67l-1.16 1.88 1.39 2.56v-.4a6.15 6.15 0 0 0 2 2.71l.35.31 9.27 4.77a2.09 2.09 0 0 1 .55 1.42v10.94a2.12 2.12 0 0 1-2.11 2.12h-5.37v-9.22h-5v14.21h10.37a7.12 7.12 0 0 0 7.1-6.72l1.31-2.41z" id="path220" style="fill:#fff"/><path class="cls-1" d="M160.94 81.52s-.24 33.9 12 54 13.43 23.6 13 40.75h-13.33l-24-59.55 2.65-28.59-2.65-6.59" id="path222" style="fill:#912200"/><path class="cls-11" d="M167.97 158.84v-3a6.73 6.73 0 0 0-6.72-6.72h-2.92v-5.47a6.54 6.54 0 0 0-2.2-5.21 8.18 8.18 0 0 0-6-1.62h-2.47l8.86-16.78-5.08-2.69-10.29 19.47h-6.58v-18.13h-5.76v40.15h5.76v-16.26h16.21a2.77 2.77 0 0 1 1.63.26 1.3 1.3 0 0 1 .19.84v5.49h-5.84a6.73 6.73 0 0 0-6.72 6.72v17.28a6.72 6.72 0 0 0 6.72 6.72h14.52a6.73 6.73 0 0 0 6.72-6.72v-5h-5.76v5a1 1 0 0 1-1 1h-14.51a1 1 0 0 1-1-1v-17.33a1 1 0 0 1 1-1h5.84v4h5.76v-4h2.92a1 1 0 0 1 1 1v3z" id="path224" style="fill:#c14721"/><path class="cls-9" d="M163.49 157.24v-3a6.74 6.74 0 0 0-6.73-6.72h-2.91v-5.47a6.54 6.54 0 0 0-2.2-5.21 8.18 8.18 0 0 0-6-1.62h-2.47l8.86-16.78-5.09-2.69-10.29 19.47h-6.58v-18.13h-5.76v40.15h5.76v-16.26h16.21a2.85 2.85 0 0 1 1.63.27 1.3 1.3 0 0 1 .19.84v5.47h-5.84a6.74 6.74 0 0 0-6.73 6.72v17.35a6.73 6.73 0 0 0 6.73 6.72h14.51a6.73 6.73 0 0 0 6.73-6.72v-5h-5.76v5a1 1 0 0 1-1 1h-14.5a1 1 0 0 1-1-1v-17.39a1 1 0 0 1 1-1h5.84v4h5.76v-4h2.91a1 1 0 0 1 1 1v3z" id="path226" style="fill:#6b1400"/><path class="cls-1" d="M165.73 157.24v-3a6.73 6.73 0 0 0-6.72-6.72h-2.92v-5.47a6.54 6.54 0 0 0-2.2-5.21 8.18 8.18 0 0 0-6-1.62h-2.45l8.86-16.78-5.09-2.69-10.29 19.47h-6.58v-18.13h-5.76v40.15h5.76v-16.26h16.21a2.85 2.85 0 0 1 1.63.27 1.3 1.3 0 0 1 .19.84v5.47h-5.84a6.73 6.73 0 0 0-6.72 6.72v17.35a6.72 6.72 0 0 0 6.72 6.72h14.52a6.73 6.73 0 0 0 6.72-6.72v-5h-5.76v5a1 1 0 0 1-1 1h-14.52a1 1 0 0 1-1-1v-17.39a1 1 0 0 1 1-1h5.84v4h5.76v-4h2.92a1 1 0 0 1 1 1v3z" id="path228" style="fill:#912200"/><path class="cls-9" id="polyline230" style="fill:#6b1400" transform="translate(-107.56 -262.83)" d="m231.97 401.95-2.48 4.34 2.48 4.22"/><path class="cls-11" id="polyline232" style="fill:#c14721" transform="translate(-107.56 -262.83)" d="m252.67 422.6 2.49 4.33-2.49 4.22"/><path class="cls-11" d="M146.03 60.83s-16.18 1.21-16.18-17.47l3.67.54a21.41 21.41 0 0 1 3.75-6.45 12.2 12.2 0 0 0 3.34-8.61l6.69 11.63 2.06 10" id="path234" style="fill:#c14721"/><path class="cls-2" d="M146.03 60.83s-13.63-2.44-12.44-13.38l3.55 2.58a17.44 17.44 0 0 1 2.92-11.49c3.85-5.82.55-9.7.55-9.7s9.27 2.91 8.74 10.94c0 0 2.43-.55 2.67-4.15 0 0 4.4 9.55 0 15.78l4.38-2.37s-.41 10.13-10.37 11.79z" id="path236" style="fill:#ffb600"/></svg>