<svg xmlns="http://www.w3.org/2000/svg" xml:space="preserve" width="956.2" height="1425.5" viewBox="0 0 253 377.2"><path fill="#fff" stroke="#000" stroke-width=".3" d="m93.5 186 10.1 96.7L68 276l-12-7 9.6 55.2 11.6 8.6L103 339l40.7 3 39.4-3.5 29.6-9.9 6.7-7.9 8.1-51.2-11.3 5.7-32.8 6.6 10.3-95.6-57.9 2.7z"/><path fill="#929ba7" d="M141.6 117.6a515.6 515.6 0 0 0-20.6.4 83 83 0 0 0-8.2.6l-4.3.4a199 199 0 0 1-4.3.4l-2 .2-3.2.4a129.6 129.6 0 0 0-16.5 2.4 79 79 0 0 0-4 .8l-3.8.8a32 32 0 0 0-3.4.8 47.5 47.5 0 0 1-3.5 1 81.2 81.2 0 0 0-23.6 9c-3.9 1.9-8.4 6-10 9.3-1.2 2.4-1.4 3.2-1.4 9.3-.1 9 .1 11 2 13.3l3.3-1.1c3.2-.8 6.4-1 9.6-1.1A408.7 408.7 0 0 1 54 162c9.2-3.3 18.5-6.6 28-9 7.6-1.7 15.3-3 23-4.6 7-1.7 14-3.8 21.2-5.3l17-2.8c5.6-1 11.4-1.8 17.2-2a129.4 129.4 0 0 1 3 0 117.4 117.4 0 0 1 16.8 1.2 42.5 42.5 0 0 1 7.9-.4 78.5 78.5 0 0 1 14.4 1.7l4.2 1.3 1.4.5h-.3c2 .6 5 1.5 6.5 2.2 19.1 9.6 26.4 21 24 29.6 2.6.5 5 1.4 7.4 2.7l1.2-6.7c.2-.6.6-1.5 1-2 2.2-2.3 3.1-4.6 2.7-6.6-.2-.6-.1-1.1 0-1.5.3-.4.4-2.4.4-7 0-6.3-.1-6.4-.8-8.4a11 11 0 0 0-2.7-4.1c-1-1.2-2.4-2.6-3-3a61.6 61.6 0 0 1-2-1.5 78.9 78.9 0 0 0-24.1-10.1c-3-1-7.4-2-10.4-2.6a67 67 0 0 1-3.3-.7 24 24 0 0 0-3-.5 148 148 0 0 0-14.3-2.2 235.9 235.9 0 0 1-5-.6 279 279 0 0 0-20-1.7 531.8 531.8 0 0 1-5.7-.3h-15.1zm37.1 67.7-4.7.6-4.9.4a2.1 2.1 0 0 0 .1 0h.3-.2l-2 .4c-3.5.6-7.1.7-10.8.9l-8.1.3c-1.6 0-3.2.2-4.8.4l-4.3 1-5.2 1.6-2 .5a379.8 379.8 0 0 0 55.5-2.5 39.3 39.3 0 0 0-8.8-3.6zm-30.3 11H144l-9.3.4c-2.7.4-6.9 1.8-11.1 3.8-7.8 3.8-8.3 4-11.8 4.2-2.7.1-2.9.2-3.2.7a2 2 0 0 0-.1 1.2c.2.9 3 3.5 4 3.9 1.2.4 1.3.7.5 1-.4 0-1 .3-1.3.6-1 .7-3 1.1-4.5 1-1.1-.2-1.3-.2-1.7.4l-.4.8 1.2 1.6a7.6 7.6 0 0 0 4.5 2.6c1 0 1.1.2.5.8a18 18 0 0 0-2.5 5.1 175.8 175.8 0 0 1-3.2 9c0 .2.3.6.6 1l.5.5-.8 2.8c-2.1 7.6-2.2 8-1.2 8.7.5.3 1 .4 1.7.3.8-.2 1.8 0 4 .6 2.5.8 2.9 1 4.5 2.4 1.5 1.3 1.6 1.6 1.4 2a8.5 8.5 0 0 0-1.7 3.7c0 .9.7 2.4 1.6 3.8a107.5 107.5 0 0 1 4.8 8 43.7 43.7 0 0 0-3.4 12.8c0 1.3 0 1.3 1.4 1.8 2 .7 5 .5 6.8-.6 1.7-1 1.7-1 2.7 1.6.5 1.3.7 2.2.7 3.6 0 2.3.2 2.9 1.8 4.8 1 1.2 1.3 1.8 1.4 2.8.1.6.6 2.1 1.1 3.2l1.2 3.1 1.1 2.9c.9 1.9 1.7 2.4 2.7 1.8.8-.5 1-.4 1.8 1.4.4 1 1 2 1.5 2.5.5.7.8.8 1.6.8 1.4 0 1.9-.5 3.3-3.6l.8-1.4.8.3c1.3.6 1.9.2 2.9-2.3l1-2.6 1-2.7a17 17 0 0 0 1.3-3.5c.1-.9.4-1.5 1.4-2.7 1.6-1.9 1.8-2.6 1.8-5 0-1 .2-2.2.4-2.7a178.5 178.5 0 0 0 1.4-3.1l1.7.8c1.5.8 1.9.9 4 .9 3.3 0 4-.4 4.1-2 .2-2.1-2-10-3.1-11.7l-.6-.7.6-.7.5-1 1-1.8c.7-.9 1.1-1.7 1.1-1.8l1.8-3c1.8-3.2 2-4.2 1.3-5.7-.4-.8-.3-1 1.4-3.2a6.1 6.1 0 0 1 5.1-2c2.3.2 3.1-1 3.4-5.3.6-7 .6-7.5 1-7.5l.7-.6c.5-.5.5-.7.2-2.2-.7-3.7-2.9-9.5-5.7-15.1a37 37 0 0 0-7.7-12c-5.9-5.8-8.8-7.9-12.3-8.5-5-.8-6.2-1-9.6-1zm11.7 4.2c.4 0 2.3 1.5 5 4 4.3 4 5.9 5.7 6.9 7.6 4 7.4 6.3 12.1 7.4 15.6 1.4 4.4 1.6 5.3 1.2 5.3l-.8.5c-.4.5-.5 1.2-.7 4 0 2-.2 4.6-.3 5.8l-.2 2.1h-1.3a9.5 9.5 0 0 0-4.7 1.5c-1 .9-1 .7 1-1.9a9.3 9.3 0 0 0 2.2-4 35.5 35.5 0 0 0 1.3-13.2c0-1.9-.8-4-2.6-6.8a41.6 41.6 0 0 1-2-4c-.6-1-1-2-1.2-2-.2 0-.9-1-1.6-1.9-3-4.3-5.4-7.3-7.5-9.6-2.2-2.4-2.7-3-2.1-3zm-64.4 3a9.1 9.1 0 0 0-.5.3c.2 0 .3-.2.5-.3zm32 10c3.5 0 6.8 2 10 6.1 2.2 2.6 2.5 2.9 4.3 3l1.9.2c1 .3 2-.5 3.7-3.2a10 10 0 0 1 6.3-4.3c3.3-.9 4.3-.7 7.2.7 3.5 1.7 4.8 3.2 7.3 8.3.9 1.9 2.6 6.4 2.6 7 0 .2-.4.1-1.3-.3-1.3-.7-1.6-.7-4 0l-2.8.7c-.8.1-2 .5-2.6.7l-2.4 1c-3.4 1.5-4.6 2-5.4 2.7-1 .8-1.2.8-2.2 0a3 3 0 0 0-1.1-.7l-1.3-.3c-.9-.2-1-.4-1.2-1.4-.2-1.6-.8-2.5-1.6-2.7-.5-.1-.8 0-1.2.4l-.4.6-.6-.6c-1-1-2.2-.4-2.6 1.7-.5 1.7-.6 2-2 2.2a3 3 0 0 0-1.7.8c-1 .8-1.3.8-2.5-.2-1.3-1-8.4-4-10.2-4.3a35.7 35.7 0 0 1-3.2-.7c-2.1-.7-2.2-.7-3.4 0l-1 .5.5-2c.8-3 1.5-4.9 2.4-6.4 1.1-2.2 2.9-5.1 3.5-6a14.5 14.5 0 0 0 .9-1.5c.7-1.4 1.4-1.9 3.4-2h.7zm27 11c-.3 0-.8 0-1.6.3-3.9 1.2-6.2 2.7-6.2 4 0 .4 0 .8.2.9.3.3 1.4 0 2.5-.6.6-.5 2.2-1.2 3.5-1.6 3-1 3.8-2 2.4-2.8-.3-.2-.5-.3-.8-.3zm-24.3 1c-1.3 0-1.6 0-2 .5-.7 1 0 1.7 2.5 2.1 2.7.5 4 1 5.7 2l1.6.8c.3 0 1.3-1 1.3-1.3 0-1.4-5.8-4-9-4zm13 7.7c.2 0 .3.5.4 1.3.1.7.3 1.5.5 1.7.3.6 2.3 1.8 3.5 2.1l1 .5c0 .3-.1.4-.5 0-.7-.5-2.5-.8-5.4-.7h-3l1.2-.7c1.4-.8 1.7-1.3 2-3.2 0-.8.2-1 .3-1zm-24.6.7 1.8.3a42 42 0 0 1 7.6 2.5l.8.4-2 .3c-3.4.5-4.3.9-6.5 2.7l-3 2.4-.8.6-.3-.8c-.6-1.6-1-3.7-1-5.3v-1.8l.8.1c.6.1 1 0 1.7-.6zm49 0c.4 0 .6.2 1.2.7 1 .9 1.4 1 2.3.5.5-.3.5-.3.3 2a15 15 0 0 1-.7 4l-.7 1.8a15 15 0 0 1-3.1-2.1c-3-2.5-4.8-3.3-7-3.3l-1.8-.2c-.6-.2-.6-.2.2-.6 1-.7 6-2.3 8-2.6l1.2-.2zm-28.6 4.4c.3 0 .2.1-.1.3-.7.3-1.2.3-.7 0 .2-.2.6-.3.8-.3zm-6.7 1.6.9.1-1.5 3.2a17.2 17.2 0 0 0-1.7 4.6c-.2.2-1.4.3-3.3.3h-3l.6-1.8a31 31 0 0 1 3-5.9c.2-.2 3.4-.5 5-.5zm26 .3c2 0 5 1.2 5 1.9 0 .2-.8 1.5-1.9 3l-2 2.9h-1.2a15 15 0 0 1-4.5-1c-.5-.5 3.8-6.9 4.6-6.8zm27 .2a144.6 144.6 0 0 0-.5 5.6l-.2 2 .7-2.5v-5.1zm-42 2.5c2 0 2 0 3.4 1.1.8.6 1.7 1.2 2 1.2.3 0 .6.4.7 1 .3 1.2 2 3 3.6 3.7 2.4 1 9.8 1.8 11.1 1.1a17 17 0 0 0 2.3-2.8c1-1.4 1.9-2.4 2-2.3s0 1.3-.5 2.6l-.8 2.8c0 .3.3.8.6 1.2.4.5.9 1.3 1.2 2 .5 1.2.4 1.6-.5 2.7l-1.3 2.1-1.2 2c-.2.2-.8 1.1-1.2 2l-1 1.5-1-.5a27 27 0 0 0-6.4-3c-.8-.3-1.2-.6-1.2-.8.5-1.7.4-2.5-.7-3.7-1.4-1.7-3.5-2.6-4.2-1.8-.6.6-.3 1.4 1 2.8l1.4 1.4-1.7 1.7a9.6 9.6 0 0 1-5 3 9.8 9.8 0 0 1-10.4-3.2l-1.5-1.7 1.3-1.3c1.1-1 1.3-1.4 1.3-2 0-.7-.2-.9-.9-1-1 0-2 .4-3.4 1.9-1.2 1.3-1.3 1.3-1.2 2.8l.1 1.5-1.4.4c-1.6.5-5 2.1-6.2 3-.9.6-.8.6-1.2-.2-.4-.8-2-3.5-4-6.4l-1-2c0-.7.9-2.7 1.5-3.2.7-.7.7-1.4-.2-4.1a9.7 9.7 0 0 1-.7-2.4c.2-.2 1.6 1.4 2.8 3.3a7 7 0 0 0 1.5 1.8c.6.3 4.2.2 6.8 0 3.2-.4 5.2-1.2 6.7-3 .7-.7 1.4-1.6 1.4-2 0-.3.5-.7 1-1l2-1.4c1-.7 1.2-.8 3-.8zm3.2 3.3c-1.2 0-1.4.8-1.7 7.5-.3 5.1-.3 6.3 0 6.7.4.4 1.3.5 1.8.2.7-.5 1-2.1 1-7.8.2-6.2.2-6.6-1-6.6zm-6.7 0c-.4 0-.8.2-.9.5a88 88 0 0 0 0 11.1 8 8 0 0 0 .6 2.6c.5.5 1.7.5 2.2 0 .5-.6-.2-13-.8-13.7-.2-.3-.7-.4-1-.5zm15.7 18c1 .2 5.3 2.5 6 3.3.9 1 3 4.5 3 5a52.9 52.9 0 0 1 1.5 5.9c0 .8 0 1-.6 1s-.7-.3-1-1.3c-.1-.7-.8-2.3-1.4-3.5-.7-1.3-1.3-2.8-1.5-3.4-.3-1.4-3-4.4-4.5-5.1-1-.6-2-1.7-1.6-1.8a.3.3 0 0 1 .1 0zm-17 8c.6 0 1.2.3 2.3.7 1 .5 2.1.9 2.4.9.4 0 1.4-.4 2.5-.9 1.4-.6 2-.7 2.8-.6 2 .4 4.8 2 5.7 3.3l1.3 1.7.8 1-.6 1.6a20 20 0 0 0-1.4 6 7 7 0 0 1-.4 2c-.2.4-.4.3-1-.7a37 37 0 0 0-2-2.6l-1.8-2.4-1.3-1.4-.6-.5.7-.5c1.3-.7 1.6-1.2 1.2-2-.4-.8-1-.8-2.9 0-2 .7-4.1.6-6.2-.2-1.7-.6-1.8-.6-2.3-.2-.8.7-.5 1.8.5 2.3.5.2.8.5.8.6l-.7.9a51.3 51.3 0 0 0-5.5 6.6 8 8 0 0 1-.6-2.5c-.2-1.5-.6-3.3-1.1-4.6l-.9-2.2.8-1 1.2-1.8c.8-1.2 3.8-3 5.8-3.4h.6zm-33.6 3a17 17 0 0 1-1 4.4 29.5 29.5 0 0 1-2.5 4.6l1.8.3c1 .1 1.2 0 1.3-.3l.7-1.6c.2-.6.4-1.5.3-2l-.6-5.3zm42.2 9.3 1 1c2.8 4 3.1 4.8 3.3 6.9.1 1.8 0 2-.5 3-.4.5-.8 1.4-1 2a29.4 29.4 0 0 1-1.8 3.9c-.5 0 0-3.3.8-5.4.6-1.5.5-3.8-.3-7a29 29 0 0 0-1.5-4.4z"/><path fill="#778595" d="M141 117.7a327.7 327.7 0 0 0-22.2.6 155 155 0 0 0-5.5.4 301.2 301.2 0 0 0-35 4.6 51 51 0 0 1-3 .7 52.9 52.9 0 0 0-2.6.6l-5.2 1.3a134.1 134.1 0 0 0-16.3 5.4c-1.6.7-3.4 1.5-7 3.5-3 1.6-6.6 4.6-8.6 7.3-.7.8-1.5 2.4-2 3.6a20 20 0 0 0-.9 6.9 69.9 69.9 0 0 0 0 4 52 52 0 0 1 11.4 7.7 165.2 165.2 0 0 0 9 7.2l.2.2 5.4.5c3 .4 5.7 1.2 8.5 2l3.9 1.3c1.9-.3 3.8-.4 6-.2 2.3.6 5.1.4 7.2 1.9A49 49 0 0 1 96 188.7v.2c1.3 0 5.2.3 9.3.8a169.4 169.4 0 0 0 21.5 1.5 471.1 471.1 0 0 0 43.1-.7 308.3 308.3 0 0 0 19.6-1.9c2.1-.1 2-.3 1.6 2.7a72.1 72.1 0 0 0-.4 3.9l-.4 3.4-.7 5.2a445.3 445.3 0 0 0-2.7 24.7v.7c.8-2.5 1.6-5 2.7-7.3.8-1.7 1.6-3.3 2.2-5a63.4 63.4 0 0 0 3-12.6c.3-5 .5-10.2 2.5-15 .8-1.3 1.3-2.8 2.2-4.2a28 28 0 0 1 12.6-10.3 52 52 0 0 1 10.2-3c2.3-.3 4.6-.8 6.9-1.3 2-.4 3.8-1.2 5.7-1.8 3.1-1 6.1-2.3 9.3-3.2 2.2-.8 4.3-1.5 6.4-2.4v-.1c0-.4-.2-.6-.4-.6-.5 0-.5.1.2-1.6.6-1.4.6-1.8.5-7.6v-6l-.8-2.2c-.6-1.6-1.2-2.6-2.4-3.9a19 19 0 0 0-5.4-4.6 18 18 0 0 0-2.7-1.8 148.8 148.8 0 0 1-3-1.6c-1-.6-2.2-1.1-5.7-2.6a100.2 100.2 0 0 0-11.8-4 117.6 117.6 0 0 0-14.1-3.3 205 205 0 0 0-16.7-2.6l-8.3-1.1a117.3 117.3 0 0 0-16-1.2 417 417 0 0 0-23-.6zm-2 4.9a350.9 350.9 0 0 1 52.7 3.2 131.8 131.8 0 0 1 12.6 2.2 89.6 89.6 0 0 1 13.4 3.1l2.2.7 4.6 1.6c4.7 1.5 5.6 1.9 9.3 3.7 7.9 3.8 12.1 7.9 12.7 12 .2 1.2 0 1.6-.6 3-1.2 2.6-3.7 5-8 7.4-1.6 1-1.9 1-1.9-.1 0-1-1.7-4.1-3-5.5-3.3-3.1-7-5.5-12.6-7.8-2.4-1-7.5-2.7-9-3a125.4 125.4 0 0 1-3.3-1 118 118 0 0 0-4.2-1l-4.1-1c-2.7-.6-3.6-.8-13.5-2.3a263 263 0 0 0-22-2.3 330.7 330.7 0 0 0-73.8 3.5 59.5 59.5 0 0 1-3.1.6l-3.4.7a309.5 309.5 0 0 1-10.3 2.6 72.3 72.3 0 0 1-5.1 1.7l-2.4 1-5.2 2a37.1 37.1 0 0 0-6.6 4 15.4 15.4 0 0 0-5.7 7.8l-.5 1.4a35 35 0 0 1-6-3.8c-1.2-.8-3.5-3.6-4.4-5.4-1-2-.9-3.7.5-6a21 21 0 0 1 6.9-6.1 54.8 54.8 0 0 1 13.3-6.1l2.4-.8a128.9 128.9 0 0 1 19-4.8l4-.7a149.7 149.7 0 0 1 17.6-2.6 222.8 222.8 0 0 0 11.6-1l6.3-.5c2.5-.3 4.1-.4 19.7-.4zm9.8 73.8h-4.6a37.1 37.1 0 0 0-20.4 4 234.8 234.8 0 0 1-5.5 2.6 12.3 12.3 0 0 1-6.3 1.7c-3.1.1-3.5.3-3.5 1.5 0 1.1 2.2 3.4 4.3 4.3l.7.5-1.7 1.1c-1.6.8-2 1-3.8 1-1.1 0-2.1 0-2.3.2-.7.4-.4 1.6.9 2.8 1.4 1.5 2.3 2 3.9 2.3.7 0 1.2.2 1.2.2l-.7 1a28 28 0 0 0-2.5 5.7 219.8 219.8 0 0 1-2.9 8.1c0 .2.3.6.6 1l.6.4-.9 3c-2 7.6-2.1 7.9-1.5 8.4.3.3 1 .4 2 .4s2.3.2 4 .7c3 .9 3 .9 4.9 2.7l1.4 1.3-1 1.3c-1.5 2.3-1.4 3.5.2 6l1.3 2 .8 1.5c.2.5 1 2 1.8 3.2l1.4 2.4-.5.8c-.7 1.1-1.3 3-2.4 7.3-1.2 5-1.1 5.5 1.4 6.1 2.2.6 4.6.2 7-1.3.6-.3.7-.3 1 .2a12 12 0 0 1 1.6 5.7c.1 2.6.3 3 1.8 4.8.9 1 1.2 1.7 1.3 2.6l1.1 3.3a20 20 0 0 1 1.4 3.3c.4 1.5 1.4 3.8 2 4.3.4.6 1.4.6 1.8 0 .3-.3.4-.3.8 0l.6 1.1c.2.9 2 3.5 2.3 3.7.8.2 1.8.1 2.3-.3.3-.3 1-1.3 1.5-2.3 1.3-2.5 1.4-2.7 2-2.2.6.6 1.4.5 1.9 0 .5-.7 1.8-3.5 2-4.6 0-.5.6-1.7 1-2.7l1.3-3.3c.2-1.1.5-1.9 1.4-2.9 1.5-1.9 1.7-2.2 1.8-4.8 0-1.3.2-2.7.5-3.1l.5-1.4c.1-.4.3-1 .5-1.2.4-.5.5-.5 2.1.3 2.7 1.4 6.2 1.4 7.7.1.7-.6.6-1.7-.4-5.8-1-4.2-1.6-5.6-2.3-6.8l-.5-.9 1-1.7a976.9 976.9 0 0 0 2.3-4.2l2.3-3.7c1-1.7 1.2-2.9.6-4.2-.4-1-.5-1 0-1.7 1.7-2.6 3.3-3.6 6.3-3.8l2.2-.2.6-1.3c.5-1 .7-1.9.9-5l.4-6 .6-.4c.9-.3 1-1 .7-2.7-.3-1.7-1.1-4.4-1.7-5.9l-1-2.8A103.3 103.3 0 0 0 173 209c0-.3-3.6-4-6.9-7-2.8-2.5-6-4.4-7.4-4.4a7 7 0 0 1-1.6-.3c-1.9-.6-4.3-.9-8.4-1zm0 3c4.2 0 5.5.2 8.5 1 1.4.3 1.9.4 2.3.1.4-.2.7-.1 1.7.6a56 56 0 0 1 10.7 10.8l1 2c.4.5 1.6 2.8 2.6 5a448.6 448.6 0 0 0 2.3 4.6c.5.8 2 5.5 2.7 7.8.4 1.4.4 1.6 0 1.8-.7.4-1.2 1-1.2 1.6l-.6 9.6-.2 1.3h-1.5a7 7 0 0 0-4.2 1.3c-1.1.8-1.4 1-1.4.7l.2-.4a32 32 0 0 0 2.5-5.9c1.2-3.3 1-5.4-.8-12.3a35.2 35.2 0 0 0-4.5-9.8c-1.9-2.8-3-3.7-6.8-5.7-2.9-1.4-5-1.7-7.9-1-2.3.5-5.5 2-6.6 3.1-.7.8-2.5 3.1-3 4.1-.2.3-.4.3-1 0l-.7-.3v-3.8c0-4-.4-6.7-1.3-8.2-1-1.6-4.8-2.7-9.7-2.9-3.2-.1-2.3-.3-9.5 2.4-1.8.6-2.4.7-3.7.6-1 0-1.8-.2-2-.3-.3-.2 1.4-1 3.3-1.7 1-.3 2.9-1.2 6.5-3 .7-.4 2.7-1.2 4.6-1.8l3.5-1.1 8.8-.1h5.4zm-51.4 5.3a31.5 31.5 0 0 1-.8 2.5l-1.4 3.5-.4.7 1.1 5.1.7 3.6.4 2.4a92.8 92.8 0 0 1 2.9 21.4l.2 8.8v1l.2 2.2c.2 1.3 0 1.5.3 1.2l1.6 6.5c.3 1.5 1 2.8 1.5 4.2l.7 2.7a14.2 14.2 0 0 1-.1-1.9 107.3 107.3 0 0 1-1-9 230.2 230.2 0 0 0-1.8-16.3l-.8-7.5a691.5 691.5 0 0 1-2.2-21c-.2-.6-.3-1.7-.3-2.4l-.4-3.8a71.3 71.3 0 0 1-.4-4zm29.9 8.7c4.3 0 7 1.7 10.7 6.3 2 2.5 2.7 3 3.9 2.6.3 0 1 0 1.4.3.7.4.8.4 1.7 0 .5-.3 1.4-1.4 2.3-2.7 1.4-2 2-2.6 4.1-4 1.2-.6 5.2-1.4 6.7-1.2 1.8.3 5.6 2.3 6.8 3.7a39 39 0 0 1 6.2 12.9l.2 1-.6-.5c-1.4-1.2-2.6-1.5-4.4-.8l-2.4.5a13 13 0 0 0-4 1.2l-3 1.4c-1.5.6-3.3 1.4-4.1 2-1.4 1-2 1-2.7 0a4 4 0 0 0-1.6-.7c-1.4-.4-1.7-.6-2-2.1-.2-1.3-.8-2.1-1.6-2.1-1 0-1.3.6-1.1 2 .3 2.5.7 3.2 2 4 .6.5 1.6.9 2 1 .9.2 1.4.5 1.1.8l-1.7-.4a16 16 0 0 0-7.8 0c-1.2.6-1.6.6-1.5.2.1-.2.4-.4.8-.5a8.9 8.9 0 0 0 3.6-2c.2-.3.5-1.4.7-2.4.3-2.1.1-2.7-1-2.7-.8 0-1.4.8-1.6 2-.3 1.5-.6 1.8-1.9 2.2a6 6 0 0 0-2 1c-.4.3-.8.6-1 .6l-1.4-.9a15 15 0 0 0-2.2-1.3l-3.3-1.4c-3-1.3-4-1.6-6-2-.8 0-1.8-.3-2.3-.5a3.7 3.7 0 0 0-3.2.3c-.5.2-1 .4-1 .2a35.8 35.8 0 0 1 5-12l2.2-3.8c1.1-1.9 1.6-2.2 4-2.2zm112 1h-.5c0 .6-.2 1.1-.3 1.6l.5.2a45 45 0 0 0 .3-1.8zM155 224.6a7 7 0 0 0-2.5.5c-4.1 1.3-6.4 3.3-5.3 4.4.4.4 1.2.4 1.4 0 .2-.3 2.9-1.6 4.9-2.3 2.1-.8 2.4-1 2.3-1.8 0-.5-.3-.8-.8-.8zm-24.8 1c-1.3 0-1.8.3-1.8 1 0 .8.6 1.1 2.4 1.4 2 .3 4.2 1 5.8 2 1.3.7 1.8.8 2.3.3.9-.9 0-1.9-2.6-3-2.1-1-4.5-1.7-6-1.7zm37.4 8.2c.6 0 .9.2 1.4.6.9.7 2 1 2.4.4.4-.4.7 1.7.4 2.6-.2.4-.3 1.1-.3 1.6 0 .6-.2 1.7-.5 2.5l-.6 1.5h-.3c-.4 0-1.5-.7-3.7-2.7a10.2 10.2 0 0 0-5.7-2.7l-2.4-.3-1.2-.1 1-.5c2-1 6.5-2.5 8.8-2.8a8 8 0 0 1 .7 0zm-48.2 0 .8.2c1.8.2 7.2 2 8.4 2.7l.9.5-.9.1-2.3.3a10 10 0 0 0-5.8 2.7 45.6 45.6 0 0 1-3.7 2.8c-.5 0-1.3-2.7-1.5-5.3-.3-2.5-.1-2.9.9-2.7.5 0 1-.1 1.7-.6.6-.5.9-.6 1.5-.6zm13.2 6 1 .1-1 2.4a40.7 40.7 0 0 0-2.5 5.7s-1.5.2-3.2.2c-2.4 0-3 0-3-.3 0-.5 1.4-4 2.4-6 .5-1 1-1.6 1.5-1.8.6-.2 3.3-.3 4.8-.3zm23 .2c5.5 0 6.6.4 9 2.6l1.6 1.7-1.3 1.5c-.7.9-1.3 1.8-1.3 2 0 .2-.5.3-1.8.3h-2.9c-.6.1-1.3.2-1.6 0-2.4-.5-3.4-1-4.2-1.7-.8-.8-1-1-1.4-3.4-.2-1.4-.3-2.7-.2-2.8 0 0 2-.2 4.2-.2zm-12.3 2.6c1.2 0 2.4.5 3.8 1.4.9.7 1.8 1.2 2 1.2.3 0 .5.4.7 1 .2.7.7 1.4 1.5 2.2 1.7 1.6 3.7 2.2 8 2.6 3.8.4 5.3.1 5.9-1 .6-1 2.3-3.4 2.8-3.9.6-.5 1.2-.3 1 .4-1.5 3.4-1.8 5.2-1 6 .3.2.8 1 1.1 1.8l.6 1.5-1.2 1.8-1.5 2.5a2 2 0 0 1-.5.8 8 8 0 0 0-1.4 2.2l-1.2 2-1-.7c-1.1-.9-5-2.7-6.6-3-1.2-.4-1.2-.4-1-1.2v-1.7c0-1.1-2.8-3.8-4-3.8-.4 0-1.2.7-1.2 1 0 .2.6 1 1.3 1.8a9 9 0 0 1 1.3 1.6c0 .3-2.7 3.1-3.7 3.7-1 .6-4.8 2-5.6 2a20 20 0 0 1-5.7-2.1c-1.1-.8-3.5-3.3-3.5-3.7l1-1.3c1.5-1.3 1.7-1.8 1.4-2.5-.6-1-2.1-.5-4 1.5-1 1-1.2 1.3-1.2 2.2l.2 1.5c.2.5 0 .6-1.2.9a28 28 0 0 0-7.4 3.7l-1.2-1.9a69 69 0 0 0-3.4-5.5l-1.2-1.8.6-1.5c.3-.8.8-1.6 1-1.9.5-.4.6-.7.4-1.8 0-.7-.4-2-.8-2.9-.4-1.1-.5-1.7-.3-1.9.3-.3 1.3.8 3 3.4 1.2 1.9 1.6 2 4 2a32 32 0 0 0 8.2-1.3 7.7 7.7 0 0 0 3.8-3.6c.3-.6.7-1.1.9-1.1.2 0 1-.5 1.8-1.2 1.2-1 2.4-1.4 3.5-1.4zm-3.4 3.7c-.3 0-.5.2-.7.5-.3.6-.1 9.9.2 12 .2.7.5 1.4.8 1.6.6.5.8.5 1.4-.2.6-.5.6-.7.4-3l-.4-6.4c-.2-3.3-.3-3.9-.7-4.2-.3-.3-.7-.4-1-.3zm6.8 0c-.5 0-.9.4-1.1 1l-.4 4.2-.3 5.9c-.2 2.4-.2 2.5.4 3l.8.4c.6 0 1.3-1.1 1.3-2l.2-1.8.1-5.5c.1-3.6 0-4.4-.3-4.8a.9.9 0 0 0-.7-.4zm6.4 17.3c.2 0 .4 0 .7.2.6.2 1.2.4 1.4.3.2-.1 1.3.2 2.4.8l2.1 1c.5 0 2.1 1.5 2.9 2.7 1.7 2.6 2 3.2 2.8 6.3 1 3.6 1 4.3.4 4.5l-.5.1-2.1-.7a9.9 9.9 0 0 1-5-3.7c-1.8-3-7.7-6-10.8-5.7a8 8 0 0 0-3.3 1.4c-.3.5-.7.3-.7-.4 0-.4-.1-1.2-.3-1.7l-.4-1h1c2 0 6.5-1.8 8.1-3.3.7-.6 1-.8 1.3-.8zm-14.3 8.6a6 6 0 0 1 2.3.7c1.7.8 3 .8 4.7 0a5 5 0 0 1 2.4-.7c1.6 0 5.5 2 6.3 3.2l1.3 1.9.9 1.2-.7 1.6a18 18 0 0 0-1.4 6.1c0 1-.6 2.5-.9 2.1a47.4 47.4 0 0 1-1-1.5 50.4 50.4 0 0 0-5.3-6.5l1-.7c1-.6 1.2-1.5.5-2-.4-.5-1-.5-2 0-.6.4-1.7.5-3.2.6-2 0-2.5 0-3.7-.5-1.6-.7-2.2-.5-2.3.6-.1.6 0 .8.8 1.3l1 .6-.8 1-2.3 2.6-2.3 3.1a5 5 0 0 1-1 1.4c-.4 0-.8-1-.8-2 0-1.5-.6-4.3-1.4-6.2l-.7-1.6.9-1.2a78.2 78.2 0 0 0 1.3-1.9c.8-1.3 4.7-3.2 6.4-3.2zm43.4.1-.3 2.8c-.6 4-.6 4.5-.2 6 .2 1 .6 2 1 2.4.4.6.9.6 3.6 0l2-.2-1.3-1a16.5 16.5 0 0 1-4.8-10zm-77 3.4a32 32 0 0 1-1.4 8.6c.8 0 1-.4 1.3-1.2.5-1.1.5-1.6.4-3.5l-.3-4zm39.2 5.5c.2 0 .7.5 1.2 1.3a24.7 24.7 0 0 1 6 8.3c.4 2.9.4 3-.7 5.2l-1.7 3.8c-.5 1.4-.6 1.5-1.3 1.3-1-.2-2 .5-2.9 2.2l-.9 1.4-.5-2.4c-.6-3.4-.9-13.9-.4-17 .4-3 .7-4.1 1.2-4.1z"/><path fill="#62768d" d="M138.6 117.7a220.8 220.8 0 0 0-19.4.6 289.6 289.6 0 0 0-58.9 9.6 79 79 0 0 0-19.6 9.2c-.9.5-3.7 3.2-4.8 4.6a14 14 0 0 0-2.6 5 56.6 56.6 0 0 0 .4 18.1 15 15 0 0 0 2.3 3l.4 1 .4 1.9a80.7 80.7 0 0 1 25.8 4.7c5 1.9 10.2 3.4 15.3 5.2 2 .7 4 1.5 6 2 1.5.4 2.8.5 4.4.7l2.4.4c5.6.6 11.2.8 16.8.8 5.5 0 11 0 16.6-.2a81.9 81.9 0 0 0 21.5-3.2c2.8-.5 4.1-.8 7-1a69.2 69.2 0 0 1 24.1 4.1l11.4 3.3 2.2.4 2.1-.2a32.3 32.3 0 0 1 4.1-2.4c1-.6 2.1-1 3.2-1.5 3.6-1.5 7.4-2.6 11-4 3.6-1.2 7-2.6 10.5-4 4.7-2.4 9.6-4.3 14.5-6a78 78 0 0 1 14-3.8l.7-1.7c.2-1.3.2-1.5-.2-1.8-.4-.3-.4-.4.1-1.7.7-1.7.9-5 .6-10.5-.3-4-.7-5.6-2-7.7a29.6 29.6 0 0 0-9.2-7.8 309.2 309.2 0 0 1-3-1.6 98 98 0 0 0-12.4-5l-5.2-1.7c-3-.9-6-1.6-10-2.4a106.3 106.3 0 0 1-3.7-.8 56.4 56.4 0 0 0-7.4-1.3 91.3 91.3 0 0 0-13-1.8 142.7 142.7 0 0 0-19.3-1.8c-7.8-.4-18.3-.7-27-.7zm2.9 4.6a549.4 549.4 0 0 1 26.2.9 231.8 231.8 0 0 1 29.7 3.5 147.7 147.7 0 0 1 6.6 1.1 132.6 132.6 0 0 1 25.6 7.3 79 79 0 0 1 9.5 4.9c2 1 5.6 4.4 6.6 6.3.3.8.7 2 .8 2.9.2 1.2.1 1.7-.5 3a19.4 19.4 0 0 1-8.1 7.5c-1.7 1-1.9 1-1.9.4 0-.8-.8-3-1.6-4a22.2 22.2 0 0 0-5.8-5.5 50 50 0 0 0-11.2-5.4 102.2 102.2 0 0 0-17.3-4.8l-3.7-.8a226 226 0 0 1-8.8-1.4 75.9 75.9 0 0 0-4.7-.7 223.1 223.1 0 0 1-4.3-.6 352.6 352.6 0 0 0-55.1-1.4 213.4 213.4 0 0 0-32 3.6 278.3 278.3 0 0 1-7.7 1.5l-4.6 1.1a76.3 76.3 0 0 0-17 5.6 76 76 0 0 1-4.3 2.2c-3.5 1.9-6.8 5-8.3 8-.5 1-.9 2.1-.9 2.5 0 1-.5 1-2.8-.4a21 21 0 0 1-7.9-7.3c-1-1.6-1-1.7-.8-3.5.2-2.7 1.4-4.5 5-7.4a55 55 0 0 1 17.2-8.3c1.6-.5 3.2-1 3.4-1.2l3.3-.9 4.2-1a104.6 104.6 0 0 1 12.6-2.8 42.5 42.5 0 0 1 7.6-1.4l3.6-.5a53.5 53.5 0 0 0 3.3-.5l1.6-.2 3.7-.2c6.8-.7 9.4-1 11.4-1a72 72 0 0 0 4-.4 392 392 0 0 1 23.4-.7z"/><path fill="#5e728b" d="M138.7 117.7a225.2 225.2 0 0 0-19.5.6 283 283 0 0 0-28.8 3 50.1 50.1 0 0 1-3.3.4 38.4 38.4 0 0 0-6.5 1.2 219.9 219.9 0 0 0-25.2 6.8 65.4 65.4 0 0 0-13.8 6.7c-5.1 4-7.1 6.5-8.3 10.2a55.3 55.3 0 0 0-.2 15.4c0 1.4.7 3 1.9 4.6.7 1 1.4 2 1.4 2.2 3 .3 6 .9 9 1.7a156 156 0 0 0 15.2 3.8c5.6 1.4 11 3 16.6 4.6a122.9 122.9 0 0 0 28.8 4.7c4.2.2 8.5 0 12.8 0a1254.8 1254.8 0 0 0 23.4-.3 341 341 0 0 1 10.9 0 887.5 887.5 0 0 0 17.4-.4l9.4-.7c3.9-.3 7.8-.4 11.7-.3h11c2.8-2 5.9-3.4 9.2-4.1l4.1-.7a44 44 0 0 1 8.4 0c2.4-1.9 5-3.5 7.5-5 2.1-1.2 4.2-2.4 6.4-3.4.6-.3 1.2-.7 2-.9l5.7-1.6h3.6c.5-.8.8-1.6 1-2.4.1-.9 0-1.2-.3-1.4-.4-.2-.4-.3.1-1.6.7-1.7.9-5 .6-10.5-.3-4-.7-5.6-2-7.7a28.8 28.8 0 0 0-9-7.7l-2.3-1.2a99 99 0 0 0-19.5-7.4 74 74 0 0 0-9.6-2.3 59.1 59.1 0 0 1-3.1-.7 55.1 55.1 0 0 0-7.5-1.3 88.7 88.7 0 0 0-13-1.8 104.3 104.3 0 0 0-12.5-1.4l-6.7-.4c-7.8-.4-18.3-.7-27-.7zm-.5 4.6a434.4 434.4 0 0 1 31.4 1 230.5 230.5 0 0 1 31 3.9 451.5 451.5 0 0 0 9 1.8 107.3 107.3 0 0 0 5.2 1.2 103.9 103.9 0 0 0 5 1.5 280.8 280.8 0 0 0 9.5 3.3 77 77 0 0 1 9.3 4.6c3.2 2 6.1 4.8 7.1 6.9a8.7 8.7 0 0 1 .8 3c.1 1.4 0 1.8-.6 3-.4.7-1.3 2-2 2.8a33.8 33.8 0 0 1-6.7 4.8c-1 .5-1.8.6-1.5.1 0-.1-.2-.2-.5-.2-.5 0-.5 0-.2-.3.3-.2.3-.2 0-.4-.6-.2-1.4.4-1.5 1-.1.5 0 .5.5.4 1.1-.3 1 .2 0 .8l-1.1.6v-.6c0-2.8-3-6.3-7.4-8.7-4-2.3-9.3-4.6-12.9-5.7a48.5 48.5 0 0 1-2.5-.7 56.2 56.2 0 0 0-8.6-2.3 27 27 0 0 0-2.5-.5 105.6 105.6 0 0 1-2.9-.6c-2.2-.5-5.7-1-10.2-1.7-5-.7-4.6-.7-10.8-1.3a207 207 0 0 0-11.4-1.2c.1-.2-9.5-.4-21.8-.4a297.3 297.3 0 0 0-59.3 5.8l-4.5 1.2a66 66 0 0 0-20.5 8.3c-3.6 2.4-5.4 4.9-5.5 7.5v1.2l-.4-.3c-.2-.1-.3-.3-.2-.5.3-.5-.3-1-1-.9-.2 0-.4.2-.3.4h-.9c-1-.1-3.8-1.6-5.9-3a23.7 23.7 0 0 1-5.5-6c-.8-1.4-.9-1.6-.8-3.3.1-1.4.4-2 1.1-3.3a33 33 0 0 1 15.2-10.3l7.9-2.9a230.5 230.5 0 0 1 25.4-6 158 158 0 0 0 3.7-.5 84.7 84.7 0 0 1 3.6-.4 12 12 0 0 0 2.3-.4c.2-.1 1.4-.3 2.9-.3l3.5-.4c.6-.2 1.2-.3 1.3-.2.2.2 2.7 0 7.3-.6a63.4 63.4 0 0 1 4.1-.4 441 441 0 0 1 22.8-.7zm3 12.8c-.2 0-.3.2-.5.5-.4.3-.5.3-.7 0-.2-.3-.7-.4-1.9-.4h-1.7v.8c.2 2 0 2 3.1 2a9 9 0 0 0 2.9-.3c0-.1.1-.2.3 0 .1 0 .2 0 .2-.2 0-.4.7-.3 1 .1.3.3.5.3 1.3 0s1-.3 1.3 0c.3.3.5.4.6.2.2-.3 1.4-.3 1.4 0 0 .1.2.2.5.2s.5-.1.4-.2c-.1-.2 0-.2.6 0h1c0-.2.4-.2.6-.1.3.1.3 0 .2-.2-.1-.2 0-.2.3 0 .3.4.7.5.9.4.1-.1.2 0 .2.2s0 .2.3 0c.1-.2.3-.3.4-.1.2.4 2.6.3 3-.2.2-.3.3-.4.3 0 0 .1 0 .2.2.1l.6.2c.3.3.3.2.2-.2-.2-.4-.1-.4.5 0 .4.5 1 .6 2 .6 1.2 0 1.2 0 1.4-1 .3-1.6 0-1.9-1.7-1.8-1.1 0-1.6.2-2 .6-.2.3-.4.4-.4.3 0-.2.1-.5.3-.7.3-.3.2-.3-.5-.1l-1-.1c-.1-.3-4-.3-4.6 0h-.3a.3.3 0 0 0-.3-.3c-.1 0-.2.1 0 .3 0 .2 0 .2-.3 0-.2-.2-.7-.3-1.1-.3h-.7c-.1-.4-1.3 0-1.3.4 0 .2-.1.4-.3.4-.1 0-.2.1-.2.3.1.4-.7.8-1.2.6-.2 0-.4-.4-.4-.7 0-.3-.3-.7-1-1-.8-.3-.9-.3-1.2 0-.3.4-1.6.9-1.4.5l-.5-.5-.8-.3zm-20.4 1c-.3 0-.5.1-.6.6 0 .4-.2.8-.3 1-.2.2 0 .4.4.7.5.2 1 .4 1.4.4.7 0 .7-.7 0-2-.3-.5-.6-.8-1-.8zm24.7 0c.2 0 .3.3.3.5s0 .4-.2.5c-.2 0-.3-.1-.3-.5 0-.3 0-.5.2-.6zm-29.6.1-.8.1c-.3 0-.5.4-.5.6 0 .4 0 .4-.4 0-.2-.3-.6-.5-1-.5-.6 0-.7.1-.7 1l.1 1.5c.1.2.4.3.9.3l2.7-.3c2.2 0 2.7-.2 2.5-.6l.1-.3c.5 0 .3-.7-.3-1.1-.5-.4-.5-.4 0-.3.3.1.4 0 .1 0-.3-.3-1.7-.4-2.7-.4zm27.4 0v.7l-.1-.4v-.2zm26.2 0c-.4.1-.8.3-1 .6-.3.5-.2 1.4.2 1.9.5.4.8.5 1.7.2.3 0 .5-.3.4-.4 0-.1.1-.2.4-.2.3 0 .8-.2 1.1-.5.5-.4.5-.5.2-.6a.8.8 0 0 0-.8.2c-.3.4-1.1.5-.9 0 .1 0 0-.4-.3-.7-.2-.3-.6-.4-1-.4zm5.9.8c-.7.1-1 1.6-.3 2.4.5.5.8.6.5.2 0 0 0-.3.3-.5.5-.4.5-1.5 0-1.9l-.5-.2zm-69.7.1-.5.5c-.1 0-.2.1-.2.3 0 .1 0 .1-.2 0-.4-.5-1.8 0-2 .7 0 .3 0 .8.2 1.2l.4.6c.3 0 2-.9 2-1.1.3-.7.4-2 .3-2.2zm72 .2c-.8 0-.8 0-.8 1.1 0 1 0 1.1 1 1.4.8.2 1.2.3 1.6 0 .3-.2.6-.2.8 0 .1.2.6.2 1 .1.6 0 .8 0 .7.2-.3.4.7.6 1.7.4.6-.1.8 0 .6.1 0 .2 0 .3.3.3.2 0 .4 0 .5-.2.1-.2.3-.2.6 0 .2.2.4.2.5.1.1 0 0-.1 0-.1-.2 0-.3-.6-.3-1.3v-1h-.5a5 5 0 0 0-1.3-.6c-.8-.2-1-.2-1.4.2-.8.7-2.2.7-2.8 0-.2-.3-.5-.5-.5-.4h-.3c-.2-.3-.8-.4-1.3-.3zm-80.2 1.1c-.7 0-1 0-1.2.3-.2.3-.1.4.7.4l1.6.2c.5.3.7.2.7-.2 0-.2.1 0 .4.4.4 1.1.5 1.1.6.1 0-1-.1-1-2-1.2a11.4 11.4 0 0 0-.8 0zm3.7.1c-.4 0-.6.2-.6.6l.1.5.7-.5.5-.6zm63.4 0a1 1 0 0 0-.3.1c-.2.1 0 .2.3.2.4 0 .5 0 .3-.2a1 1 0 0 0-.3 0zm23.7.2c-1 0-1 0-1.1 1-.1 1.1.3 1.5 1.9 1.6.6 0 1.3.2 1.5.3.2.1.2.1.1 0 0-.3 0-.3.4-.2.3 0 .4.2.3.4v.1l.9.1c.6.3 2 .3 2 0 0-.2-.8-1.1-1-1-.5 0-.6-.1-.8-.9-.1-.6-.3-.8-1-.8-.4 0-.7 0-.6-.2.1-.2-.9-.3-2.6-.4zm9.2 1.5c-1 0-1.1 0-1.1.6 0 .5.2.8.6.9.3.1.7.2.8.1l1-.2c1.5-.3.5-1.5-1.3-1.4zm-105.3.8c-.1 0-.3 0-.4.2-.1.2 0 .5.1.6.5.3.7.2.7-.2 0-.3-.2-.6-.4-.6zM79 143.6c-.2 0-.3.1-.3.2l.1.3.3-.3c.1-.1 0-.2-.1-.2zm.8 0a.3.3 0 0 0-.3.2.3.3 0 0 0 .5 0 .3.3 0 0 0-.2-.2zm.8 0c-.2 0-.3 0-.2.2.1.2.3.2.5.2 0-.1.2 0 .2 0 0 .4.3.4.8.1.4-.2.4-.3 0-.3l-1-.1a2.3 2.3 0 0 0-.3-.1zm-9.1.2c-.2 0-.5.2-.9.6-.3.2-.6.4-.8.3v.1a.5.5 0 0 0 .6.2c.5-.2.8 1.5.2 2-.4.3-.4.3 0 .3 1 0 1.2-.4 1.3-2 0-1 0-1.5-.4-1.5zM216 145a.3.3 0 0 0-.2 0c-.3.2 0 1 .5 1 .2 0 .3 0 .2.2l.1.3c.2 0 .2.1.1.3-.1.3 0 .3.3 0 .4-.4.9 0 .5.5-.1.3 0 .3.2 0 .8-.5.4-1.4-.8-2l-.9-.3zm-151.7 1.8a1.8 1.8 0 0 0-.4.1c-.5.2-.6 1.6-.1 2.1.5.6.6.5.7-1 .1-1 .1-1.2-.2-1.2zm158.2.8c-.2 0-.3.2-.5.4-.2.3-.3.3-.2.1.1-.2.1-.3 0-.2-.2.1-.3.4-.2.6.1.3 0 .4-.2.2-.3-.1-.3 0-.2.3.2.4.1.4-.6.3-1.3-.3-.7.3 1.7 1.4 2.5 1.2 2.3 1.1 2.3.8 0-.1-.2-.3-.5-.3-.4 0-.4 0 0-.2.2-.2.2-.3 0-.3l.2-.2c.2-.1.3-.6.4-1.1 0-.8 0-1-1.1-1.4l-1-.4zm-160.7.2c-.5 0-1 .2-1.4.7-.4.3-.7.8-.7 1 0 .2 0 .2-.2 0-.2-.4-.3-.3-.4.1v.9l-.1.2c-.1 0-.4-.1-.5-.3 0-.3-.3-.4-.6-.3-.5.1-.6.4-.5 1 0 .4.2 1 .3 1.1 0 .2.5.2.8.2.5-.1.7-.3.6-.7 0-.5 0-.6 1-.5.6 0 1 0 1-.2s.1-.3.3-.3c.7.1 1.3 0 1.1-.2 0-.1.1-.3.4-.4.6-.1.6-.7 0-1.7-.2-.4-.6-.6-1-.6zm164.2 3.5v.5c0 .4.1.8.5 1 .3.2.4.2.3 0 0-.1 0-.2.2-.2.3 0 .4.2.3.5-.1.4 0 .5.3.5.2 0 .4-.1.4-.3 0-.3.1-.5.3-.6.1-.1.2 0 0 .5s-.2.7.1 1c.3.2.4.2.4-.2 0-.3.2-.2.4.4.4.8.9 1.2.6.4-.1-.2 0-.4 0-.4.2 0 .3.2.4.4 0 .7 0 .8.3 1.2.4.6.5-.1.2-.8-.3-.4-.2-.6.3-.9l.5-.4-.6-.2c-.4-.2-.5-.3-.3-.4.2-.1.3-.3.3-.5 0-.1 0-.2-.2-.1a.9.9 0 0 1-.7-.4c-.4-.6-1.5-.9-1.7-.5-.1.2-.6.3-1.1.4-.9.2-1 .1-1.1-.5l-.1-.4zm-166.1.2c-.2 0-.4.1-.4.3 0 .1.2.2.4 0l.4-.2H60zm171.5 1.6c-.2 0-.1.2 0 .4l.5.4v-.4l-.5-.4zm-177.9 0c-.3 0-.5.2-.6.5-.5.9-.3 1.3.5 1.7.8.4 1 .4 1.8-.3.9-.7 1-1.2.4-1.5-.2 0-.4 0-.4.2l-.6-.2c-.4-.3-.8-.4-1-.4zm178.2 1.3-.5.4c-.4.5-.4.5.2.1l.4-.4zm-179.2.8c-.2 0-.5.2-.9.6-.5.6-.5 1.5 0 2.3l.4.3c.3 0 1.7-2 1.7-2.3 0-.3-.6-.5-1.2-.4-.1 0-.1 0 0-.2v-.3zm180 .4c-.2 0-.4.2-.7.5-.6.6-.7.7-.3 1.1.3.4.4.4.4-.3 0-.5.2-.9.4-.9s.2-.1.2-.3zm1 1c-1 0-1.7 1.2-1.2 2.2.4.6.8.2.7-.9-.1-1.2.7-1.5 1-.5 0 .5.2.7.5.6.7-.3 0-1.5-1-1.5zm-182 .5.3.3.2.6c0 .1-.2 0-.3-.3-.2-.4-.2-.6-.1-.6zM193 264.8l-2.2.2.2.6 1 3.1 2.8-3.7a9.7 9.7 0 0 0-1.8-.2z"/><path fill="#e62229" d="M138.7 117.7a225.2 225.2 0 0 0-19.5.6 283 283 0 0 0-28.8 3 50.1 50.1 0 0 1-3.3.4 38.4 38.4 0 0 0-6.5 1.2l-1.3.3.9.2c2.6.8 5.2 1.6 7.6 2.8l2.5-.3 3-.5a34 34 0 0 0 3.2-.5c.9-.2 2.4-.3 3.4-.3s2.2-.2 2.8-.3c.6-.2 1.2-.3 1.3-.2.2.1 3.6-.2 7.2-.6a57.9 57.9 0 0 1 4-.4l8.3-.4a520.7 520.7 0 0 1 39.7.1l6.4.5c5.4.4 13.7 1.2 17.4 1.7a350.8 350.8 0 0 1 14.8 2.4l2.4-.5 4.3-.9 1.2-.5.6-.3c.2 0-.2.1-.3.2l.1-.1 1.4-.7a73.3 73.3 0 0 0-3-.6 59.1 59.1 0 0 1-3.1-.7 55.1 55.1 0 0 0-7.5-1.3 88.7 88.7 0 0 0-13-1.8 104.3 104.3 0 0 0-12.5-1.4l-6.7-.4c-7.8-.4-18.3-.7-27-.7zm112.3 35-.6.5a61.5 61.5 0 0 1-10.6 7.5l-1.6.8-5.3 2.7a76.6 76.6 0 0 1-5.9 2.8l.3-.1h-.1l-1.4.7a46 46 0 0 1-6.5 2.2c-1.7.4-3.5.5-5.3 1a63.3 63.3 0 0 1-17.5 2l-1 .2-1.4.2c-.8 0-1.5.2-2.3.3l-.8.1-3.4.6a45 45 0 0 1-10.3 1l-1 .1c.2.1-.2 0-.4.1l-.8.2a47.6 47.6 0 0 1-13.3.8l-4.1-.3h-4.8a27 27 0 0 1-10.7 2.9c-1.4.1-3 0-4.4-.1l-4.7-.4-6.4-.7c-1.1-.2-2.3-.2-3.4-.3a84 84 0 0 1-5-.3c-2.7-.3-5.2-.9-7.8-1.5h-.7c-2.2 0-4.4-.4-6.6-.7a38 38 0 0 0-2.9-.2c-2.4 0-4.9-.3-7.3-.7-1.7-.2-3.3-.7-5-1l-5-1.2-5.7-1.5-1-.4H76a50.1 50.1 0 0 1-9.1-2.2l-3.4-1c-.8 0-1.8-.4-2.4-.7a9 9 0 0 0-2-.7c-.5 0-1.1-.3-1.7-.5l-1.2-.3-2.7-.4c-3-.3-6-1.2-9-2.1-4.1-1.5-8-3.3-11.9-5.4l.2 2.6c.1 1.2.3 2.4.2 2.7 0 1.4.7 3 1.9 4.6.7 1 1.4 2 1.4 2.2a151.3 151.3 0 0 1 2.5 14.4l.5 2.9c.3 1 1.4 7 2 10.4a423.8 423.8 0 0 0 2.8 17.1 38.6 38.6 0 0 0 1.1 5.8l.6 3.7.7 4a737.6 737.6 0 0 0 5.7 33.3l.8 4.8a88.2 88.2 0 0 0 1.7 9.5l1.2 7.2 3.6-1.4v-.1l-.7-3.5-.6-3.3-.1-.7 1.4.8a34 34 0 0 0 6.9 3.2 76.2 76.2 0 0 1 5.9 2l2.3.5 7.2 1.8c4 .9 14.3 2.4 20.8 3l1.8.2.6-1.3c.3-.6.5-1.7.5-2.2a105.7 105.7 0 0 0-1.3-12.5 44.5 44.5 0 0 1-.8-7.2c-.3-3.2-1-9.5-1.5-12.8l-.5-5-.8-7.5a554.7 554.7 0 0 1-2.2-21 12.4 12.4 0 0 1-.3-2.4l-.4-3.8a86.9 86.9 0 0 1-.5-4.8 62 62 0 0 0-.6-4.5 48 48 0 0 1-.5-4 70 70 0 0 0-.5-6.5c.1-.2 4.8.2 9.6.8a137.8 137.8 0 0 0 16.2 1.2 468.9 468.9 0 0 0 48.5-.4 254.8 254.8 0 0 0 20.7-2c.7.1.8.4.4 3a54.1 54.1 0 0 0-.4 3.7l-.5 4.3a71 71 0 0 0-.6 4.4 129.5 129.5 0 0 1-.5 5c-.3 1.6-.4 3.1-.3 3.3a7 7 0 0 1-.2 2l-.6 3.7a319.1 319.1 0 0 1-1 10.6 400.4 400.4 0 0 1-.8 7.5l-.7 6-1.3 11.5a206.6 206.6 0 0 0-.8 7.7 53.4 53.4 0 0 1-.8 7.1l-.4 3.9c-.4 2.6-.8 6.4-.7 7.3a10 10 0 0 0 1 4c.5.4.8.4 2 .3a392.2 392.2 0 0 1 9.5-1.4 477 477 0 0 1 9.6-1.8 75.3 75.3 0 0 1 6-1.6l1.8-.5a67.8 67.8 0 0 1 5-1.6c2.7-.8 3.8-1.3 7.3-3.2 1.6-1 1.8-1 1.6-.5l-1.2 6.6-.2 1.6a23.4 23.4 0 0 1 3.7.3l1.3-7.7a200.5 200.5 0 0 1 2.1-12.2l.4-2.4a125.1 125.1 0 0 0 2.2-12.4l.3-2a101.6 101.6 0 0 1 2-11 38.7 38.7 0 0 1 .4-2.8 78.6 78.6 0 0 0 1.2-7.5 373.4 373.4 0 0 0 2-11 44.5 44.5 0 0 1 1-6 261.2 261.2 0 0 1 1.9-11 203 203 0 0 1 2.4-13.4 238 238 0 0 1 1.7-10.6 7 7 0 0 1 1.6-3.6 9 9 0 0 0 2.4-4.3c.1-.9 0-1.2-.3-1.4-.4-.2-.4-.3.1-1.6.6-1.4.8-4 .7-8.1zm-106.2 43.8c-4.2 0-8.5 0-10 .3a38.2 38.2 0 0 0-11.6 4l-5.4 2.5c-2.6 1.1-3 1.2-5.6 1.3-3 .2-3.7.5-3.7 1.6 0 1 2.5 3.6 4.2 4.3l.8.5-1.6 1.1c-1.5.8-2 1-3.8 1-1.2 0-2.3 0-2.5.2-.1 0-.3.5-.3.9 0 .6.4 1.1 1.6 2.2 1.3 1.3 1.7 1.5 3.2 1.8l1.6.5-.7 1a188.8 188.8 0 0 0-5.4 13.7l.6.8.6.7-.7 2.1a161.9 161.9 0 0 0-1 3.7 46.5 46.5 0 0 1-.7 2.7c-.8 2.5-.4 3.3 2 3.2 1.3 0 5.5.9 6.8 1.6.3.1 1.2 1 2 1.7 1.4 1.3 1.5 1.5 1.2 1.9-.8 1-1.8 3-1.8 3.6 0 .4.4 1.4.9 2.3l4.8 8.3 1 1.7-.6.9c-1 1.6-3.3 10-3.1 11.6 0 1.3 1.6 1.9 4.3 1.9 2 0 2.3-.2 3.7-1 .8-.4 1.6-.7 1.8-.6.2 0 .7 1 1.1 2.2.7 1.6.8 2.5.9 4.1 0 2.3.1 2.6 2 4.7.5.7 1 1.5 1 1.8 0 .6 1.2 4.1 1.7 5l.7 2c.5 1.8 1.8 4.4 2.3 4.8.5.2.7.2 2.1-.6l1.4 2.2c.6 1.3 1.3 2.5 1.6 2.7.8.5 1.9.4 2.5-.1.3-.3 1-1.4 1.6-2.6l1.2-2.2.8.3c1.4 1 2.1 0 3.7-4.6a90.2 90.2 0 0 1 1.6-4c.5-1.2 1-2.5 1-2.8 0-.4.4-1.2 1-1.9 1.8-2.1 1.9-2.4 2-4.7 0-1.6.1-2.5.7-4.1.5-1.2 1-2.2 1.2-2.3.2 0 .8.2 1.3.5a9 9 0 0 0 6.7 1c1.4-.4 1.9-1 1.9-2 0-1.6-2-9-3-10.7l-.7-1.6.7-1.2a71.6 71.6 0 0 0 5.2-8.9c.8-1.5.9-2.4.2-3.7-.4-1-.4-1 .3-2 1.9-2.6 3-3.2 6-3.4l2.3-.2.6-1.2c.5-1 .6-2 .9-5.2l.3-5c0-.7.1-1 .7-1.3 1-.5 1-1 .6-3-.8-4-2.6-8.7-5.4-14.4-4.3-8.7-5.3-10-11.8-16-3.3-3-5.6-4.3-8.6-4.8l-3.4-.6a76 76 0 0 0-9.5-.2zm3.7 2.7c3.6 0 4.5.1 6.8.6 1.9.4 3.7.6 4.2.5 1-.1 1.7.4 5.6 4 5.1 4.7 6 5.7 8.7 10.7a70.3 70.3 0 0 1 6.8 16.2l.4 1.6-.8.7c-.7.7-.8.9-.8 2.9s-.3 6.4-.7 8.3c-.1 1-.2 1-.8.9-1-.3-3.4.3-4.8 1.3-1.7 1.2-1.9 1.3-1.9 1l.2-.4a146 146 0 0 1 2.9-7c.2-.6.4-1.8.4-3.3 0-2-.2-3.2-1-6.3a34.2 34.2 0 0 0-5.2-11.8c-1.6-2.6-2.4-3.3-6.1-5.3-3.6-2-6.5-2-10.7-.4-2.7 1.1-4 2.2-5.3 4a56.3 56.3 0 0 1-1.6 2c-.5.7-.4.7-3.4 0-.1 0-1-1-1.8-2.1-1.5-2.1-4-4.4-5.7-5a72.5 72.5 0 0 1-2.1-1.1c-1.6-.8-4-1-7-.7-2.4.3-4.2 1-5.7 2.1-1.3 1-4.4 2.6-5.4 2.8h-1.3c-.5-.3 0-.6 2.8-2a12 12 0 0 0 3.7-2.8c0-1.3-.5-2-1.8-2l-2.1-.4c-1.3-.5-1.3-.5-.5-.7l2.9-1a65 65 0 0 0 7.3-3.2 33.5 33.5 0 0 1 19-4h4.8zm-21.2 14.1a13 13 0 0 1 10 5.3c2.4 3.4 2.8 3.6 4.2 3.7l2.3.3c.9.1 1.1 0 1.8-.6l2-2.6c1.6-2.3 3.5-3.6 6.7-4.4 3-.7 3.9-.6 7 1 2.9 1.3 3.7 2.1 5.4 5 2 3.1 4.5 9.3 4.5 10.7 0 .5 0 .5-.8-.1-1-1-2.3-1.1-3.9-.6l-2.5.5a60.7 60.7 0 0 0-11.3 4.6c-1.3 1-1.6 1-2.2.3-.3-.3-1.2-.7-2-1a19 19 0 0 1-1.6-.4l-.4-1.6c-.5-1.8-.8-2.2-1.6-2.2-1 0-1.3.6-1 2.5.5 2.6.8 3 2.6 3.8l2 .9c.5.1.7.7.3.7l-1.4-.4a18.2 18.2 0 0 0-9.3.4c-.4 0-.2-.6.3-.7a9.8 9.8 0 0 0 3.6-2c.7-.7 1.3-4 1-4.7-.4-.6-1.5-.7-1.9-.2-.2.2-.5 1-.7 1.9l-.5 1.6-1.5.5c-.8.2-1.7.6-2 1-.6.7-.8.6-2.3-.4a15 15 0 0 0-2.8-1.5l-2.5-1a25.4 25.4 0 0 0-5.9-2 18.5 18.5 0 0 1-2.6-.6 4 4 0 0 0-3.7.4l-.7.5 1-3.4a31.1 31.1 0 0 1 4.8-10.2 17 17 0 0 1 3.3-4.6c.3-.2 1.3-.4 2.3-.4zm-7.4 2.8-.7 1.2-1.5 2.7c-2 3.4-2.7 5.5-4 10.9-.9 3.3-1 4.2-1 7 0 3.5.1 4.3.9 5.7l.6 1.5c.2.7 0 .7-1 .2a7 7 0 0 0-1.9-.5 11 11 0 0 1-2.2-.6l-1.4-.3c-.3 0-.5-.2-.5-.3l1-4 1.5-5.4c.3-1.7.3-1.9 0-2.6-.5-.7-.5-.8 0-2l1.5-4c1-2.9 2.4-5.6 3.5-6.6.3-.3 1.6-1 2.9-1.7zm34.9 8.5c-.5 0-1 .1-2 .5a16 16 0 0 0-5.4 2.8c-.5.5-.6.7-.3 1.3.4.8.6.8 2.2-.2 1.5-1 2-1.1 4.4-2 2-.6 2.5-1.1 2-1.9a1 1 0 0 0-1-.5zm-24.6 1c-1.1 0-1.8.3-1.8 1 0 .8.4 1 2.4 1.3a18 18 0 0 1 5.8 2c1.3.8 1.8.9 2.3.4.8-.8 0-2-2.5-3a17.4 17.4 0 0 0-6.2-1.7zm37.9 8 1 .8c1 .8 1.4.9 2.1.5.4-.3.5-.2.7.7.1 1-.4 4.5-1 6.3a2 2 0 0 1-.8 1.1c-.2 0-1.7-1-3.2-2.1a16.7 16.7 0 0 0-4-2.7c-1-.3-4.9-1-6-1l1.4-.7c2-.9 5.8-2.1 8-2.5zm-48.9.2 1 .1c1.8.2 6.4 1.7 8.3 2.6l1.3.7-1 .1c-.4.1-1.4.3-2.2.3-2.3.3-3.8 1-5.9 2.7l-2.8 2.2c-1 .6-1.4.7-1.6.2-.8-2.1-1-3-1-5.3l-.2-2.5 1 .1c.8.2 1 0 1.7-.5.5-.6.7-.7 1.4-.7zm36 6c2.1 0 4.7.3 6.4.7 1 .3 1.8.9 3 2 .9.7 1.6 1.5 1.6 1.7 0 .2-.5 1-1.2 1.7l-1.3 1.9c-.1.4-.5.4-3.1.4-3.6 0-6.2-.5-7.6-1.6-.9-.8-1-1-1.4-3.3l-.5-3c0-.4 1.8-.6 4-.5zm-24.2 0c1.4 0 3 0 3.5.2l1 .2-.1 1.4c-.6 4.3-.7 4.7-2.7 5.4l-1.7.7c-.6.3-2 .5-4.2.5l-3.2.1-.4-.7a16 16 0 0 0-1.4-2l-1.1-1.5c0-.3 1.9-1.9 3-2.5 1.7-1 4.6-1.8 7.3-1.8zm12.4 2.9c1.7 0 2 0 3.7 1.2l2 1.3c.3 0 .5.4.7 1 .5 1.6 2.5 3.3 4.6 4 1 .3 2.3.5 2.8.5l2.6.3c1 .2 2.4.2 3.2.1 1.5-.2 1.2 0 4.1-4 1-1.3 1.6-1.7 1.8-1.2.1.1-.2 1.2-.6 2.5-.9 2.5-1 3.4-.4 4 .6.4 1.7 2.7 1.7 3.3l-.6 1.3-1.6 2.3-3.5 5.7-.8-.5a33 33 0 0 0-6.6-3c-1.6-.6-2-.8-1.4-1.1.1-.1.3-.7.3-1.3 0-1-.2-1.4-1-2.3-1.9-2-4-2.6-4-1.1 0 .5.3 1.1 1.3 2l1.3 1.4-1.7 1.7c-2 2-2.8 2.6-5.4 3.4-2.3.7-2.7.7-4.9 0-2.5-.8-3.6-1.5-5.4-3.4l-1.7-1.7 1.4-1.4c.9-.9 1.3-1.5 1.3-2 0-1.5-2.2-1-4 1.1-.9.9-1 1.3-1 2.2 0 .5 0 1.2.2 1.5.2.4 0 .5-1.4.9a27.8 27.8 0 0 0-7.4 3.6c-.1 0-1.1-1.6-3.5-5.7l-1.6-2.3c-.3-.5-.6-1-.6-1.3a7 7 0 0 1 1.5-3.2c.7-.7.7-1.5-.2-4.1a10 10 0 0 1-.6-2.5c.3-.6 1.2.3 3.3 3.5l1 1.4c1.1.7 6.9.3 10.2-.7 1.5-.4 2-.8 3.2-1.9.8-.8 1.4-1.6 1.5-2.2 0-.4.3-.8.5-.8s1.1-.6 2.1-1.3c1.8-1.2 2-1.2 3.6-1.2zm-3.2 3.6c-.3 0-.5 0-.7.3-.6.7-.3 12.3.3 13.5.1.2.5.4 1 .4 1.3 0 1.3 0 .8-8.7-.2-3.7-.3-4.6-.7-5-.3-.4-.5-.5-.7-.5zm6.3 0c-.6.1-1 1-1 2.7a43 43 0 0 0-.5 11c.4.7 1.8.7 2.2 0 .2-.4.3-3 .4-6.9l.2-6.3-.6-.3a1 1 0 0 0-.7-.1zm6.5 17.2a22 22 0 0 1 8.1 3.3c.6.5 1.5 1.6 2 2.4l1.1 2a1945.9 1945.9 0 0 0 1.6 5.3c.5 2 .6 2.7.3 2.8-.5.4-.9.3-2.9-.4-2.6-.9-4.8-2.5-5.7-4.4-.8-1.5-3.7-3.4-7-4.5-2.5-.8-4-.6-6 .8l-1 .7-.7-.6c-2-2-5.7-1.8-9.9.6-2.6 1.4-3.1 1.9-3.7 3.1-.9 2-2.7 3.3-5.6 4.2-2 .6-3 .6-3 .2l.9-3.1.8-3.2c0-.8 2.7-5 3.6-5.8 1.2-.8 4.7-2.5 6.7-3 1.4-.4 1.4-.4 2.1.2 2.7 2.4 8.1 4 11 3 3.1-1 4.9-1.8 6.3-3 .3-.4.5-.6.8-.6h.2zm-14.2 8.7a9 9 0 0 1 2.5.6c1.8.9 2.6.9 4.3 0 1.8-1 3.2-.9 5.6.3a9 9 0 0 1 2.7 1.7c1.3 1.2 2.8 3.5 2.7 4l-1 2.6-1 4.3a8 8 0 0 1-.4 2.4c-.3.4-.5.3-1.9-1.6l-4.2-5.4c-.9-.8-.9-1.1.1-1.5 1-.4 1.3-1.4.8-2-.4-.5-.7-.5-3 .4a7 7 0 0 1-5.7-.2c-1.9-.8-2.5-.6-2.5.5 0 .4.2.8.8 1.1 1 .6 1 1 .4 1.5s-2.7 3-4.5 5.7l-1.5 2c-.3 0-.6-1.2-.8-3a24 24 0 0 0-1-4.6l-1-2.6.7-1 1.3-1.8a11 11 0 0 1 6.6-3.4zm5.5 8.8c.6 0 .8.3 1.4 1.2l1.2 1.6c.6.4 2.1 2.4 3.6 4.8a6 6 0 0 1 1.3 3.6c.2 1.7.1 2-.8 3.6a50.3 50.3 0 0 0-1.6 3.8c-.7 1.8-.8 1.9-1.5 1.8-1-.3-1.8.3-3.1 2.6l-1.4 2-1-1.7c-1.1-2.1-2.4-3.3-3.5-3.3-.5 0-.7-.1-.7-.4 0-.4-1.1-2.9-2-4.7-.6-1-.7-1.6-.7-3.4 0-2 0-2.1 1-3.7 1.6-2.4 2.4-3.6 3.9-5.2l1.5-2c.2-.5.5-.6 1.6-.6a9 9 0 0 1 .8 0z"/><path fill="#595e64" d="m194.8 190-3.7 1v.5a54.1 54.1 0 0 0-.4 3.7l-.5 4.3a71 71 0 0 0-.6 4.4 129.5 129.5 0 0 1-.6 5 19 19 0 0 0-.2 3.3 7 7 0 0 1-.2 2 300.8 300.8 0 0 1-1.6 14.2 400.4 400.4 0 0 1-.8 7.6l-.7 6-1.3 11.5a206.6 206.6 0 0 0-.8 7.7 53.3 53.3 0 0 1-.8 7.1l-.4 3.9c-.4 2.6-.8 6.4-.7 7.3a10 10 0 0 0 1 4c.5.4.8.4 2 .3a368.7 368.7 0 0 1 7.5-1 21.1 21.1 0 0 1-.8-1.1 51.9 51.9 0 0 1-1.3-2.3l-4 .7c-1 0-1.1-.2-.5-3.8l.4-3.9.4-3.8v-.5a29.9 29.9 0 0 1 0-3.3l.5-5.7v-1l.2-1.7v-.6 1a47.4 47.4 0 0 0 .1 4.2c.4-2.6.8-6.1 1-9.2-.4-3.1-.5-6.4-.3-10a262.5 262.5 0 0 1 .9-14.3c.2-2.2.4-4.4.8-6.5.4-2.8 1-5.5 1.6-8.1.6-2.4 1.2-4.8 1.6-7.3.4-1.8.4-3.7.6-5.6.3-2.4.7-4.8 1.2-7.1l.4-3zm-39.8 6.8-11.1.3h-11a52.4 52.4 0 0 0-9.7 3.7l-5.4 2.5c-2.6 1.1-3 1.2-5.6 1.3-3 .2-3.7.5-3.7 1.6 0 1 2.5 3.6 4.2 4.3l.8.5-1.6 1.1c-1.5.8-2 1-3.8 1-1.2 0-2.3 0-2.5.2-.1 0-.3.5-.3.9 0 .6.4 1.1 1.6 2.2 1.3 1.3 1.7 1.5 3.2 1.8l1.6.5-.7 1a188.8 188.8 0 0 0-5.4 13.7l.6.8.6.7-.7 2.1a161.9 161.9 0 0 0-1 3.7 47 47 0 0 1-.5 2.2l.1 3.5 1.6.2c1.4 0 5.6.9 6.9 1.6.3.1 1.2 1 2 1.7 1.4 1.3 1.5 1.5 1.2 1.9-.8 1-1.8 3-1.8 3.6 0 .4.4 1.4.9 2.3l4.8 8.3 1 1.7-.6.9c-1 1.6-3.3 10-3.1 11.6 0 1.3 1.6 1.9 4.3 1.9 2 0 2.3-.2 3.7-1 .8-.4 1.6-.7 1.8-.6.2 0 .7 1 1.1 2.2.7 1.6.8 2.5.9 4.1 0 2.3.1 2.6 2 4.7.5.7 1 1.5 1 1.8 0 .6 1.2 4.1 1.7 5l.7 2c.5 1.8 1.8 4.4 2.3 4.8.5.2.7.2 2.1-.6l1.4 2.2c.6 1.3 1.3 2.5 1.6 2.7.8.5 1.9.4 2.5-.1.3-.3 1-1.4 1.6-2.6l1.2-2.2.8.3c1.4 1 2.1 0 3.7-4.6a90.2 90.2 0 0 1 1.6-4c.5-1.2 1-2.5 1-2.8 0-.4.4-1.2 1-1.9 1.8-2.1 1.9-2.4 2-4.7 0-1.6.1-2.5.7-4.1.5-1.2 1-2.2 1.2-2.3.2 0 .8.2 1.3.5a9 9 0 0 0 6.7 1c1.4-.4 1.9-1 1.9-2 0-1.6-2-9-3-10.7l-.7-1.6.7-1.2a71.6 71.6 0 0 0 5.2-8.9c.8-1.5.9-2.4.2-3.7-.4-1-.4-1 .3-2 1.9-2.6 3-3.2 6-3.4l2.3-.2.6-1.2c.5-1 .6-2 .9-5.2l.3-5c0-.7.1-1 .7-1.3 1-.5 1-1 .6-3-.8-4-2.6-8.7-5.4-14.4-4.3-8.7-5.3-10-11.8-16-3.3-3-5.6-4.3-8.6-4.8l-2.7-.5zm-6.5 2.4c3.6 0 4.5.1 6.8.6 1.9.4 3.7.6 4.2.5 1-.1 1.7.4 5.6 4 5.1 4.7 6 5.7 8.7 10.7a70.3 70.3 0 0 1 6.8 16.2l.4 1.6-.8.7c-.7.7-.8.9-.8 2.9s-.3 6.4-.7 8.3c-.1 1-.2 1-.8.9-1-.3-3.4.3-4.8 1.3-1.7 1.2-1.9 1.3-1.9 1l.2-.4a146 146 0 0 1 2.9-7c.2-.6.4-1.8.4-3.3 0-2-.2-3.2-1-6.3a34.2 34.2 0 0 0-5.2-11.8c-1.6-2.6-2.4-3.3-6.1-5.3-3.6-2-6.5-2-10.7-.4-2.7 1.1-4 2.2-5.3 4a56.3 56.3 0 0 1-1.6 2c-.5.7-.4.7-3.4 0-.1 0-1-1-1.8-2.1-1.5-2.1-4-4.4-5.7-5a72.5 72.5 0 0 1-2.1-1.1c-1.6-.8-4-1-7-.7-2.4.3-4.2 1-5.7 2.1-1.3 1-4.4 2.6-5.4 2.8h-1.3c-.5-.3 0-.6 2.8-2a12 12 0 0 0 3.7-2.8c0-1.3-.5-2-1.8-2l-2.1-.4c-1.3-.5-1.3-.5-.5-.7l2.9-1a65 65 0 0 0 7.3-3.2 33.5 33.5 0 0 1 19-4h4.8zm-21.2 14.1a13 13 0 0 1 10 5.3c2.4 3.4 2.8 3.7 4.2 3.7l2.3.3c.9.1 1.1 0 1.8-.6l2-2.6c1.6-2.3 3.5-3.6 6.7-4.4 3-.7 3.9-.6 7 1 2.9 1.3 3.7 2.1 5.4 5 2 3.1 4.5 9.3 4.5 10.7 0 .5 0 .5-.8-.1-1-1-2.3-1.1-3.9-.6l-2.5.5c-.8.2-2 .4-2.6.7a60.7 60.7 0 0 0-8.7 4c-1.3 1-1.6 1-2.2.2-.3-.3-1.2-.7-2-1a19 19 0 0 1-1.6-.4l-.4-1.6c-.5-1.8-.8-2.2-1.6-2.2-1 0-1.3.6-1 2.5.5 2.6.8 3 2.6 3.8l2 .9c.5.1.7.7.3.7l-1.4-.4a18.2 18.2 0 0 0-9.3.4c-.4 0-.2-.6.3-.7a9.8 9.8 0 0 0 3.6-2c.7-.7 1.3-4 1-4.7-.4-.6-1.5-.7-1.9-.2-.2.2-.5 1-.7 1.9l-.5 1.6-1.5.5c-.8.2-1.7.6-2 1-.6.7-.8.6-2.3-.4a15 15 0 0 0-2.8-1.5l-2.5-1a25.4 25.4 0 0 0-5.9-2 18.5 18.5 0 0 1-2.6-.6 4 4 0 0 0-3.7.4l-.7.5 1-3.4a31.1 31.1 0 0 1 4.8-10.2 17 17 0 0 1 3.3-4.6c.3-.2 1.3-.4 2.3-.4zm-7.4 2.8-.7 1.2-1.5 2.7c-2 3.4-2.7 5.5-4 10.9-.9 3.3-1 4.2-1 7 0 3.5.1 4.3.9 5.7l.6 1.5c.2.7 0 .7-1 .2a7 7 0 0 0-1.9-.5 11 11 0 0 1-2.2-.6l-1.4-.3c-.3 0-.5-.2-.5-.3l1-4 1.5-5.4c.3-1.6.3-1.9 0-2.6-.5-.7-.5-.8 0-2l1.5-4c1-2.9 2.4-5.6 3.5-6.6.3-.3 1.6-1 2.9-1.7zm34.9 8.5c-.5 0-1 .2-2 .5a16 16 0 0 0-5.4 2.8c-.5.5-.6.7-.3 1.3.4.8.6.8 2.2-.2 1.5-.9 2-1.1 4.4-2 2-.6 2.5-1.1 2-1.9a1 1 0 0 0-1-.5zm-24.6 1c-1.1 0-1.8.3-1.8 1 0 .8.4 1 2.4 1.3a18 18 0 0 1 5.8 2c1.3.8 1.8.9 2.3.4.8-.8 0-2-2.5-3a17.4 17.4 0 0 0-6.2-1.7zm37.9 8 1 .8c1 .8 1.4.9 2.1.5.4-.3.5-.2.7.7.1 1-.4 4.5-1 6.3a2 2 0 0 1-.8 1.1c-.2 0-1.7-1-3.2-2.1a16.7 16.7 0 0 0-4-2.7c-1-.3-4.9-1-6-1l1.4-.7c2-.9 5.8-2.1 8-2.5zm-48.9.2 1 .1c1.8.2 6.4 1.7 8.3 2.6l1.3.7-1 .1c-.4.1-1.4.3-2.2.3-2.3.3-3.8 1-5.9 2.7l-2.8 2.2c-1 .6-1.4.7-1.6.2-.8-2.1-1-3-1-5.3l-.2-2.5 1 .1c.8.2 1 0 1.7-.5.5-.6.7-.7 1.4-.7zm36 6c2.1 0 4.7.3 6.4.7 1 .3 1.8.9 3 2 .9.7 1.6 1.5 1.6 1.7 0 .2-.5 1-1.2 1.7l-1.3 1.9c-.1.4-.5.4-3.1.4-3.6 0-6.2-.5-7.6-1.6-.9-.7-1-1-1.4-3.3l-.5-3c0-.4 1.8-.6 4-.5zm-24.2 0 3.5.2 1 .2-.1 1.4c-.6 4.3-.7 4.7-2.7 5.4l-1.7.7c-.6.3-2 .5-4.2.5l-3.2.1-.4-.7a16 16 0 0 0-1.4-2l-1.1-1.5c0-.3 1.9-1.9 3-2.5 1.7-1 4.6-1.8 7.3-1.8zm12.4 2.9c1.7 0 2 0 3.7 1.2l2 1.3c.3 0 .5.4.7 1 .5 1.6 2.5 3.3 4.6 4 1 .3 2.3.5 2.8.5l2.6.3c1 .2 2.4.2 3.2.1 1.5-.2 1.2 0 4.1-4 1-1.3 1.6-1.7 1.8-1.2.1.1-.2 1.2-.6 2.5-.9 2.5-1 3.4-.4 4 .6.4 1.7 2.7 1.7 3.3l-.6 1.3-1.6 2.3-3.5 5.7-.8-.5a33 33 0 0 0-6.6-3c-1.6-.6-2-.8-1.4-1.1.1-.1.3-.7.3-1.3 0-1-.2-1.4-1-2.3-1.9-2-4-2.6-4-1.1 0 .5.3 1.1 1.3 2l1.3 1.4-1.7 1.7c-2 2-2.8 2.6-5.4 3.4-2.3.7-2.7.7-4.9 0-2.5-.8-3.6-1.5-5.4-3.4l-1.7-1.7 1.4-1.4c.9-.9 1.3-1.5 1.3-2 0-1.5-2.2-1-4 1.1-.9.9-1 1.3-1 2.2 0 .5 0 1.2.2 1.5.2.4 0 .5-1.4.9a27.8 27.8 0 0 0-7.4 3.6c-.1 0-1.1-1.6-3.5-5.7l-1.6-2.3c-.3-.5-.6-1-.6-1.3a7 7 0 0 1 1.5-3.2c.7-.7.7-1.4-.2-4.1a10 10 0 0 1-.6-2.5c.3-.6 1.2.3 3.3 3.5l1 1.4c1.1.7 6.9.3 10.2-.7 1.5-.4 2-.8 3.2-1.9.8-.8 1.4-1.6 1.5-2.2 0-.4.3-.8.5-.8s1.1-.6 2.1-1.3c1.8-1.2 2-1.2 3.6-1.2zm-3.2 3.6c-.3 0-.5 0-.7.3-.6.7-.3 12.3.3 13.5.1.2.5.4 1 .4 1.3 0 1.3 0 .8-8.7-.2-3.7-.3-4.6-.7-5-.3-.4-.5-.5-.7-.5zm6.3 0c-.6.1-1 1-1 2.7a43 43 0 0 0-.5 11c.4.7 1.8.7 2.2 0 .2-.4.3-3 .4-6.9l.2-6.3-.6-.3a1 1 0 0 0-.7-.1zm6.5 17.2a22 22 0 0 1 8.1 3.3c.6.5 1.5 1.6 2 2.4l1.1 2a1945.9 1945.9 0 0 0 1.6 5.3c.5 2 .6 2.7.3 2.8-.5.4-.9.3-2.9-.4-2.6-.9-4.8-2.5-5.7-4.4-.8-1.5-3.7-3.4-7-4.5-2.5-.8-4-.6-6 .8l-1 .7-.7-.6c-2-2-5.7-1.8-9.9.6-2.6 1.4-3.1 1.9-3.7 3.1-.9 2-2.7 3.3-5.6 4.2-2 .6-3 .6-3 .2l.9-3.1.8-3.2c0-.8 2.7-5 3.6-5.8 1.2-.8 4.7-2.5 6.7-3 1.4-.4 1.4-.4 2.1.2 2.7 2.5 8.1 4 11 3 3.1-1 4.9-1.8 6.3-3 .3-.4.5-.6.8-.6h.2zm-14.2 8.7a9 9 0 0 1 2.5.6c1.8.9 2.6.9 4.3 0 1.8-1 3.2-.9 5.6.3a9 9 0 0 1 2.7 1.7c1.3 1.2 2.8 3.5 2.7 4l-1 2.6-1 4.3a8 8 0 0 1-.4 2.4c-.3.4-.5.3-1.9-1.6l-4.2-5.4c-.9-.8-.9-1.1.1-1.5 1-.4 1.3-1.4.8-2-.4-.5-.7-.4-3 .4a7 7 0 0 1-5.7-.2c-1.9-.8-2.5-.6-2.5.5 0 .4.2.8.8 1.1 1 .6 1 1 .4 1.5s-2.7 3-4.5 5.8l-1.5 1.9c-.3 0-.6-1.2-.8-3a24 24 0 0 0-1-4.6l-1-2.6.7-1 1.3-1.8a11 11 0 0 1 6.6-3.4zm5.5 8.8c.6 0 .8.3 1.4 1.2l1.2 1.6c.6.4 2.1 2.4 3.6 4.8a6 6 0 0 1 1.3 3.6c.2 1.7.1 2-.8 3.6a50.3 50.3 0 0 0-1.6 3.8c-.7 1.8-.8 1.9-1.5 1.8-1-.3-1.8.3-3.1 2.6l-1.4 2-1-1.7c-1.1-2.1-2.4-3.3-3.5-3.3-.5 0-.7-.1-.7-.4 0-.4-1.1-2.9-2-4.7-.6-1-.7-1.6-.7-3.4 0-2 0-2.1 1-3.7 1.6-2.4 2.4-3.6 3.9-5.2l1.5-2c.2-.5.5-.6 1.6-.6a9 9 0 0 1 .8 0z"/><path fill="#020202" d="m131.8 343-13.4-.7A188.3 188.3 0 0 1 88 337a83 83 0 0 1-11.9-3.9 36.8 36.8 0 0 1-11-7.6c-1.6-2-2.3-3.5-2.6-6.2l-.8-4.8a448.3 448.3 0 0 1-.8-5l-.5-2.8a25.6 25.6 0 0 1-.4-2.2l-1.4-8a111.5 111.5 0 0 1-.6-3.5l-1.5-8.6a475 475 0 0 1-1.7-10c-.2-1.5-.5-3.3-1.3-7.1l-.7-4a215.2 215.2 0 0 0-1-6.6l-1.1-6.2a1120.4 1120.4 0 0 0-2.5-14.7 212.4 212.4 0 0 1-2.5-14.5 394.7 394.7 0 0 1-1.3-7.8 62.7 62.7 0 0 0-1.2-6.3c-.4-2.7-1-6.6-1.4-8.2a47.3 47.3 0 0 1-.5-3c-.2-1.6-.5-3.5-1.7-9.7a83.8 83.8 0 0 1-1.5-8.8l-.7-4.3c-.7-4.1-1-5-2.2-6.5-1.3-1.7-1.8-2.8-1.8-4.1a78.8 78.8 0 0 1-.3-14.8c.8-4.2 3.3-7.5 8.5-11.3l2.6-1.6 1.5-.9 2.7-1.4 3.9-1.7a71.5 71.5 0 0 1 12-4.1c.6-.3 3.7-1 5.7-1.4l1.8-.6 3.2-.8 4.2-.8 9.1-1.7a860.8 860.8 0 0 0 8-1 273.5 273.5 0 0 1 16.6-1.8 31.6 31.6 0 0 0 2.6-.2l4.8-.3 8-.4a681 681 0 0 1 29.6.1 267.1 267.1 0 0 1 29.8 2.6c1 0 2 0 2.4.2l3.2.6a56.2 56.2 0 0 1 7.4 1.1l3.9.7 3.8.8a78.6 78.6 0 0 1 10.7 2.7l2.6.7a91.2 91.2 0 0 1 17.8 7.4c4.7 2.5 9.1 6.8 10.4 10 .9 2.5 1 3 1 8.8 0 4.7 0 5.4-.6 6.9-.4 1.4-.5 1.8-.2 2.3.6 1.2-.3 3.4-2.3 5.6-.8 1-1.4 2.7-1.7 5.2a47 47 0 0 1-.6 3.6 35.3 35.3 0 0 0-.6 3.6c0 1-.4 2.9-.7 4.2a99.8 99.8 0 0 0-.9 5 33 33 0 0 1-.6 3.4c-.2.4-.3 1.2-.3 1.7l-.4 2.7a152 152 0 0 0-1.8 10.6 182.4 182.4 0 0 1-1.9 10.6 1200.6 1200.6 0 0 0-7.7 44.8 141.7 141.7 0 0 1-1 5.5 120.9 120.9 0 0 0-.7 4.2 149.8 149.8 0 0 1-2.1 12.6l-.6 3.4-.5 2.6a141.8 141.8 0 0 1-1.7 11 37 37 0 0 1-1 5.8 436.6 436.6 0 0 1-.9 4.9l-.8 5.2c-.3 2.8-.8 4.1-2 6a18 18 0 0 1-6 5.3l-2.3 1.4-2.1 1-3.2 1.4a45.5 45.5 0 0 1-7.6 2.6 65.5 65.5 0 0 1-9.4 2.2 49 49 0 0 1-3.4.7 63 63 0 0 0-2.3.4 115 115 0 0 1-10 1.5c-8.3 1.3-30.5 2.2-41.1 1.7zm23.2-3.8a168.4 168.4 0 0 0 25.4-2.5 96.4 96.4 0 0 0 3.1-.5 90.4 90.4 0 0 0 17.5-4.5c1.3-.4 2.7-1 3.2-1a41 41 0 0 0 8.4-4.5c2-1.4 3.6-3 4.1-4 .2-.3.4-1.3.6-2.2a138 138 0 0 1 1.4-8.3 207.3 207.3 0 0 1 1.7-9.9 81.7 81.7 0 0 0 1.7-10.3 984.3 984.3 0 0 0 3.3-18.7l-2.8 1.4a35.8 35.8 0 0 1-7.6 3.2l-2.2.7c-.5.2-1.1.4-1.5.4a74.7 74.7 0 0 1-27 5.1h-1.6l-.5-1c-.4-.9-.5-1.5-.5-4.2 0-1.7.3-4.5.5-6.2.6-4.4 1.2-9.6 1.3-12.2l.9-7.4a356.3 356.3 0 0 0 1.9-17.5 273 273 0 0 0 1.6-15.2 76.8 76.8 0 0 1 1-7.8 751.6 751.6 0 0 0 1.7-15.1c.6-6 .8-8.2.5-8.5-.2-.2-.7-.2-2 0a235.4 235.4 0 0 1-29.1 2.6 474.5 474.5 0 0 1-49.4-1c-1.5 0-5-.3-10.1-1l-3.5-.3h-1.5l.2 1.4a185.5 185.5 0 0 1 1 8.5l.4 4.3a216.8 216.8 0 0 0 1 9.1 60.3 60.3 0 0 1 1 7.5 192.4 192.4 0 0 0 .8 9.2 267.5 267.5 0 0 0 1.6 14.7 356.2 356.2 0 0 0 1.8 16.2c.4 3.8 1 10 1.4 12.6 1 7.4 1.1 9.1.4 10.8-.7 1.4-.4 1.4-5 .8a162.6 162.6 0 0 1-32-6.4 33.8 33.8 0 0 1-7.1-3.1 12 12 0 0 0-2.7-1.3l.2 1.6a158 158 0 0 1 1.4 8.4l1.7 9.4a211.6 211.6 0 0 1 1.8 10.8l.4 2.3.2 1.8c.5 2 .8 4 1.3 6.8a40 40 0 0 0 1.6 7.6 16 16 0 0 0 4.4 4.8 81.3 81.3 0 0 0 31.9 10.1c.3.2 1 .3 1.6.3l3.4.4c2.4.4 5.2.7 11 1.2a134 134 0 0 0 16.5 1 107.3 107.3 0 0 0 19.2-.3zm-12.4-29.6a11 11 0 0 1-2.5-3.9c-.3-1.1-.8-1.4-1.6-1-.4.3-1 .4-1.2.3-.5 0-1.8-2.7-2.3-4.6l-1-2.3c-.7-1.4-1.7-4.4-1.7-5.1 0-.3-.5-1.1-1.1-1.9-1.6-1.9-1.8-2.2-1.8-4.6 0-1.6-.1-2.4-.7-3.9-1-2.2-1.4-2.5-2.4-1.9a7 7 0 0 1-4.2 1.3c-2.2 0-4-.5-4.3-1.3-.5-1 1.4-9 2.8-11.7l.7-1.4-.6-1a34 34 0 0 0-1.3-2.2l-1.2-2-1.1-2.2-1.5-2.4c-1.3-2-1.1-3 1-6.1.2-.4 0-.6-1.2-1.8l-2-1.7c-.9-.6-5.4-1.7-7-1.7-1.8 0-2.5-.5-2.3-1.6l2-7.8.7-2.2-.6-.7-.6-.8.8-2.1 1.4-3.9a601.7 601.7 0 0 0 1.5-4c.5-1.3 1.2-2.9 1.7-3.6.8-1.3.7-1.6-.7-1.6-1 0-2.2-.7-3.7-2-1.2-1.3-1.5-2-1-2.7.1-.2 1-.4 2.4-.4a8 8 0 0 0 3.1-.5 841.7 841.7 0 0 1 1.7-1c1-.5 1-.7-.3-1.2-1.3-.6-4-3.4-4-4.2 0-1.2.7-1.4 3.9-1.6 3.2 0 3.3-.1 10.8-3.7a37 37 0 0 1 21.3-4.5 45.2 45.2 0 0 1 14.1 1.2c1.6 0 4.6 1.8 7.8 4.8l3.3 2.8c.2 0 3.2 3.5 3.8 4.6a122.5 122.5 0 0 1 8.3 17c1 2.8 1.6 4.8 1.8 6.4.1 1.5.1 1.6-.7 2.1-.8.6-.8.7-1.2 8.6-.1 1.7-.6 3.3-1.4 4-.3.3-.9.5-2.4.5-2.5 0-3.5.5-5.2 2.6-1.3 1.7-1.4 2-.8 3.2.6 1 .3 2.3-1 4.2-1.3 2-5.2 9-5.2 9.3l.5 1c.6.9 1.1 2.4 2.2 6.9 1.4 5.3 1.4 5.4-.9 6.2-1.6.6-4.6.2-6.6-1-.7-.4-1.5-.6-1.6-.5-.1.1-.6 1-1 2.2a8.7 8.7 0 0 0-.8 4c0 2.3-.2 2.7-1.7 4.6-.8.9-1.2 1.7-1.6 3a17 17 0 0 1-1.2 3.4c-.4.8-1 2.2-1.2 3.1-.6 2.1-1.6 4-2.3 4.4-.4.2-.7.2-1.2-.1l-.7-.5-1.3 2.2c-1.5 2.8-2.2 3.4-3.7 3zm1.9-4.8c1.3-2.4 2.4-3.6 3.2-3.4l.8.2c.2 0 .7-1.1 1.3-2.6l1.6-3.7c.5-.8.6-1.2.4-3a6.7 6.7 0 0 0-1.2-3.9 28.4 28.4 0 0 0-3.8-5.1l-1.6-2c-.2-.5-.4-.6-1.7-.6-1.5 0-1.6 0-2 1l-2 2.5c-.7.8-2 2.5-2.8 3.8l-1.5 2.3v2.2a7 7 0 0 0 .8 3.7 47.3 47.3 0 0 1 1.5 3.4c.7 1.8.8 1.9 1.4 1.8 1-.2 1.9.5 3.2 3l1.3 2.2 1.1-1.8zm-10-18 2.3-3.2 2-2.4c.6-.6 1-1.2.9-1.2l-1-.5c-.7-.4-.8-.6-.8-1.2.1-1 .8-1 2.4-.3 1.8.7 4.4.7 6.4-.1 1.6-.7 2.2-.7 2.4 0 .2.6 0 1-1 1.7l-1 .5.9 1a123 123 0 0 1 4.7 6l1.1 1.7.5-.7a4 4 0 0 0 .5-2.2c0-1.6.4-3.2 1.4-5.8l.7-1.8-1.2-1.5-1.1-1.7c0-.3-2.3-1.7-3.7-2.4-2.1-1-3.2-1-5.2 0l-2.3.8a9 9 0 0 1-2.2-.8c-2-1-2.8-1-5.2.1a9.4 9.4 0 0 0-4.3 3.2c-1.7 2.3-1.6 2.2-.7 5 .5 1.4 1 3.2 1 4.4.1 1.7.6 3.4 1 3.4 0 0 .7-.8 1.4-2zm-11-7.8c2.8-.8 5.3-2.6 5.8-4 .4-1.4 4.2-4 7.4-5 2-.6 3.9-.3 5.5.7 1.2.8 1.4.8 2.6 0 1.4-1 3.8-1.2 5.7-.5 3.2 1 6.2 3 7 4.6a9.6 9.6 0 0 0 5.5 4.2l2.6.6c1.1 0 1.1-.3 0-4.5-.7-3-1-3.8-2.6-6.2a3 3 0 0 1-.5-1c0-.9-4.8-3.5-8-4.3l-1.8-.5-1 1a14.5 14.5 0 0 1-8.3 3.1c-2.4 0-6.1-1.4-8.1-3-.9-.8-1.4-1-1.8-.9l-1.7.5c-1.6.5-5.5 2.4-6.4 3.1a25 25 0 0 0-3.4 5.8l-.8 3.2c-.5 1.6-.8 3-.7 3.3.2.5 1 .5 3-.2zm.4-14.4a33 33 0 0 1 6.6-3.2c1.3-.3 1.6-.5 1.4-.8l-.3-1.5c-.1-.9 0-1 1.3-2.4 1.4-1.4 2.5-2 3.3-1.6.7.2.4 1-1 2.4-.7.7-1.3 1.4-1.3 1.6 0 .4 3.4 3.8 4.3 4.2 1.9.8 4 1.5 5.2 1.5 1.4 0 4.2-1 5.6-1.8 1-.6 4-3.5 4-4 0 0-.6-.8-1.4-1.5-1.3-1.3-1.6-2.2-.9-2.4.8-.3 1.8.1 3 1.4 1.5 1.3 1.9 2.3 1.4 3.6-.3.9-.3 1 1.4 1.5 1.5.4 5.6 2.4 6.6 3.1l.8.6.5-.6.5-.8c0-.2 1.3-2.3 3.8-6.2l1.2-2-.7-1.5a7 7 0 0 0-1.2-2c-.5-.6-.5-.7-.2-2l1-2.7c.5-1.5.5-1.5 0-1.8-.5-.3-1.3.5-3.2 3.4-.6.8-1.2 1.6-1.5 1.7-.7.3-3.7.2-6.1 0-4.3-.6-6.9-2-8-4.4a3 3 0 0 0-1.3-1.6 35.3 35.3 0 0 1-2-1.3c-1-.7-1.5-.8-3.1-1-1.8 0-2 0-3.2.9a44.4 44.4 0 0 1-2.2 1.4 2 2 0 0 0-1.1 1.3c-.4 1.3-2.5 3.2-4.4 3.8-2.5.9-8.6 1.4-10 .9l-1.4-1.7a47 47 0 0 0-1.9-2.5c-.7-1-1-1.1-1.4-.9-.5.3-.5.3 0 1.7a25.2 25.2 0 0 1 1.2 3.5c.1.3 0 .8-.6 1.5-.4.5-1 1.5-1.2 2.2l-.5 1.2 1 1.5c.7.8 1.3 2 1.6 2.4.2.5.7 1.2 1 1.5l1.2 2.1 1 1.8c.2.2.5 0 1.2-.5zm16.2-4.4a32 32 0 0 1-.8-9.9v-3.7h.8c.4-.1.7 0 1 .4.4.8.9 12.7.5 13.1-.4.5-1.2.5-1.5 0zm5.2 0c-.3-.4-.3-1.7 0-6.6.2-3.4.4-6.4.6-6.6a1 1 0 0 1 1.5-.2c.6.8.1 12.5-.5 13.4a1 1 0 0 1-1.6 0zm-13.9-12.4c2.6-.9 3.5-1.7 4-4.2l.4-2.8v-.8l-2-.3c-3-.4-6.8 0-9.5 1.2-1 .4-3.9 2.8-3.9 3.2l1.3 1.9a7 7 0 0 1 1.4 2c0 .5.3.5 3.5.4 2 0 3.5-.3 4.8-.6zm32.4.1c0-.2.5-.9 1-1.5 1.9-2.1 1.9-2.2.6-3.5-2.1-2.2-3.7-2.8-8.1-3.2H153l-2 .2v1c0 1.3.8 4.8 1.1 5.3a8 8 0 0 0 3.1 1.7c1 .3 7.6.7 8.2.5a.5.5 0 0 0 .3-.5zm10.6-1.6a11 11 0 0 1 2.6-.6l1.8-.1.2-1.8.4-5.6c.2-3.2.3-4 .7-4.4.2-.3.6-.5.8-.5.5 0 .4-.8-1-5.2-2-6-7-15.8-9.8-19a85.3 85.3 0 0 0-8.3-8c-1.1-.8-1.4-1-2.2-.8-.6 0-1.6 0-2.3-.2-3.2-.9-5.2-1-14.2-.9l-8.8.1-3.3 1.1a62 62 0 0 0-6.6 2.8 47.5 47.5 0 0 1-9.6 4c-.7.1-1.2.4-1.2.5.1.4 2.5 1.2 3.5 1.2s1.5.5 1.5 1.4c0 .6-.3.9-1.7 1.7a49.5 49.5 0 0 1-5.5 3.3c0 .3 1.9.5 2.9.2s4.4-2.1 5.2-2.9c2.2-2 9.3-2.7 12.3-1.2l2.1 1c1.5.7 4 3 5.6 5.1 1.6 2.2 1.7 2.3 2.7 2.3.4 0 1 .1 1.4.3.6.3.8.3 1-.2.9-1.4 3.4-4.3 4.3-5a20 20 0 0 1 6.3-2.3 10 10 0 0 1 7 1.3c3.6 1.9 4.5 2.6 6.1 5.1 2.5 3.9 4 7 5.1 11.7 1.6 6 1.5 8.2-.2 12.2l-2.2 5.5c0 .1.5-.2 1.2-.8l2.2-1.3zm-59.7-.7c0-.3-.4-1.1-.8-1.9-.5-1-.7-2-1-4.6l-.2-3.3 1-4.1c1.4-6.2 2.6-9.2 5.9-14.5l1-2c0-.1-.6.2-1.1.6-.6.5-1.9 1.3-3 1.8-2.5 1.2-4 3.2-5.6 8a171.6 171.6 0 0 1-1.5 4c-.4 1.2-.4 1.3 0 2 .5 1 .3 2-1.4 8l-1 4c0 .2 3 1.2 4.6 1.4l2 .7c1.2.7 1.3.7 1.1 0zm3-2.8 3-2.4c2.4-2 3.6-2.4 7.1-2.8 1.1 0 2.1-.2 2.2-.3.5-.3-4-2-7.5-3-3-.9-3.6-.9-4.8 0-1 .8-1.3.8-1.8.6-.3-.2-.6-.3-.7-.2-.4.4 0 5 .4 6.4.5 1.5.8 2.2 1 2.2l1.1-.5zm53.4-1.2c.7-1.9 1.2-6.9.7-7.3-.2-.3-.3-.3-.3 0l-.6.6c-.4.2-.7.1-1.7-.6s-1.3-.8-2.3-.6a40.5 40.5 0 0 0-10.5 3.5l2.9.5c3.4.3 4.8.9 7 2.8 2 1.7 3.6 2.9 4 2.7l.8-1.6zm-31.2-3c1.7-.4 6-.4 7.6.2 1 .4 1.4.5 1.5.2.3-.3-.4-1-1-1-1 0-3.2-1.5-3.5-2.4-.5-1.2-.5-4 0-4.3.7-.4 1.5.5 1.9 2.1.3 1.6.5 1.9 1.9 2.1.5.1 1.3.5 1.8.8 1 .9 1.5.8 2.8-.1.5-.4 2.3-1.3 4-2l4.1-1.7c.7-.3 2-.7 3-.8l2.9-.6c1.6-.5 2.5-.2 3.8 1l.8.8-.1-1c-.4-2.3-2.4-7.2-4.2-10.3-2-3.5-2.7-4.2-5.8-5.8-2.3-1.1-3-1.3-4.2-1.3a13 13 0 0 0-8.3 3.1l-2 2.5c-1.5 2.3-2.3 2.8-3.5 2.4-.5-.2-1.4-.3-2-.3-1.1 0-2-.8-3.9-3.4a12.8 12.8 0 0 0-10-5.6c-2.3 0-3 .2-3.8 1.6a86.6 86.6 0 0 1-1.5 2.2l-.7 1.3-.8 1.3a30 30 0 0 0-4.2 9.8 163 163 0 0 1-.7 2.7c-.2.4 0 .4.6-.2 1-1 2.7-1.2 4.5-.7a17.3 17.3 0 0 0 2.5.6c1.2.1 2.9.7 5.4 1.9a38.9 38.9 0 0 0 2.2.9c.8.3 2.1 1 2.8 1.5 1.6 1 2 1 3 .2.5-.3 1.3-.7 1.8-.8 1.4-.2 1.6-.5 2-2.1.3-1.7 1-2.5 1.7-2 .6.3.6 3.3 0 4.4-.4.8-1.8 1.6-4 2.5-.4.2-.6.4-.5.7.1.2.3.3.6.2l1.5-.5zm-3.5-9c-1.3-.7-3.7-1.5-5.7-1.8-2.2-.2-3-1-1.7-1.8 1-.6 3.1-.3 6.2 1 2.5.9 3.8 1.8 3.7 2.7-.1.8-1.2.8-2.5 0zm11-.2c-.5-.4-.2-1.4.5-1.9a19 19 0 0 1 7.2-2.8c.6.2.9.9.5 1.3-.2.2-.7.5-1.3.7a28 28 0 0 0-5 2.2c-1 .7-1.7.8-2 .5zM101.7 279l-1-9.3a61.8 61.8 0 0 1-.4-4.1l-.2-2.4c0-.2-.3-1.2-.4-2.5l-.5-4.5a218.9 218.9 0 0 1-1.1-10.9l-.8-7a224 224 0 0 0-1.3-11.6 8043.4 8043.4 0 0 0-.5-4.8 512.3 512.3 0 0 1-1.1-10 612.8 612.8 0 0 1-1.7-16.2 73 73 0 0 0-1.1-7.7c-.9 0-6.6-.9-8-1.3l-5.9-1.2c-6-1-10.5-2.3-18.1-4.6a75.7 75.7 0 0 1-18.9-8.6l.3 2a135.6 135.6 0 0 1 2 11 330 330 0 0 0 2.8 16.4l.8 4.8a135.5 135.5 0 0 0 1.9 10.6l.5 3.5a159 159 0 0 1 1.3 7.4c.7 3.2.9 4.3 1.3 7.5.4 2.8 1 5.6 1.6 8.9l1.6 9.5a98.1 98.1 0 0 0 2.6 13.3 17.5 17.5 0 0 0 8.2 5.5 48.1 48.1 0 0 1 4.6 1.8l2.5.7a96.5 96.5 0 0 0 14.7 3.3 287.3 287.3 0 0 0 13.7 2.1h.8l-.2-1.6zm87.4.6 5.2-1a217.5 217.5 0 0 0 17.2-3.8c.5 0 2.5-.8 6.8-2.6 4-1.7 7.1-4 7.9-5.9l.7-2.9.7-4.2a367.4 367.4 0 0 0 1.9-10.8 438.2 438.2 0 0 0 3.7-21.5 130 130 0 0 0 1.6-9.5 105 105 0 0 0 2.2-12.8 377.2 377.2 0 0 0 2-10.6 372.8 372.8 0 0 0 3-17.6l.5-3c.3-.6 0-.6-1.4.3a69.4 69.4 0 0 1-18.8 8c-.8.3-3.1 1-5.2 1.5a219.5 219.5 0 0 0-8.7 2.2 839.9 839.9 0 0 0-12.7 2.2c-.5.1-.6.4-.9 2.2a184.7 184.7 0 0 0-1 9.7l-.6 5.5a311 311 0 0 0-1.5 13.6l-.5 4.4a368.9 368.9 0 0 1-1.7 15.4l-.8 7a44 44 0 0 0-.4 3.3c-.5 6.8-.7 8-1.5 13.7a63 63 0 0 0-.4 4l-.3 3c-.2.6-.3 1.8-.3 2.6l-.4 4.1c-.6 3.8-.6 4 .4 4l3.4-.5zm-36-92.6a134.5 134.5 0 0 0 16-1 229.3 229.3 0 0 0 25.8-2.9 92.7 92.7 0 0 1 4.2-.6c2.1-.3 3.8-.6 6.3-1.2a726.3 726.3 0 0 1 9.5-2.3 187.6 187.6 0 0 1 3-.8c2.9-.7 13-4.4 14.7-5.3 4.3-2.4 5.6-3.1 7.4-4.3 2-1.3 4.4-3.7 5.6-5.5.6-.9 1.6-4.5 1.3-4.8a52.5 52.5 0 0 1-21.2 11.6l-1.7.6a89 89 0 0 1-13.7 3.7l-2.7.6a2087.4 2087.4 0 0 1-17.2 3 304.6 304.6 0 0 1-37.5 3 442.4 442.4 0 0 1-38-.7 347.7 347.7 0 0 0-5.7-.5l-5.6-.6a221.6 221.6 0 0 0-5.7-.6 162 162 0 0 1-15-2.3 92.2 92.2 0 0 0-4.4-.9c-3.6-.6-11.6-2.5-13.4-3a131 131 0 0 0-2.6-.9 110 110 0 0 1-10.7-3.6 228 228 0 0 0-4.1-2 39 39 0 0 1-8.1-4.9 324.9 324.9 0 0 0-2-1.6l-.8-.7v.8c0 1.2.7 3.7 1.1 4.4a27 27 0 0 0 4.4 4.6 58.8 58.8 0 0 0 18.5 8.7 98 98 0 0 1 6.2 1.8c4.2 1.2 4.8 1.3 6.7 1.7a244 244 0 0 1 10.2 2l3.7.6 3.5.6a90.3 90.3 0 0 0 8.2 1l6 .7a384.3 384.3 0 0 0 47.8 1.6zm10.3-11a85.5 85.5 0 0 1 10-.7 188.6 188.6 0 0 1 11.5-1.2l5.7-.8a126.2 126.2 0 0 0 5.2-.8 70.2 70.2 0 0 1 4.3-.6c1.8-.2 3-.4 7.4-1.5l3.4-.7a98.3 98.3 0 0 0 4.4-1.1l3.4-1c3.4-1 11.8-3.9 13.9-5 2-1 6.9-3.6 8.3-4.7 2.2-1.4 4.2-3.6 5.1-5.3 1.6-3.1.6-6.5-3-9.7a27.5 27.5 0 0 0-5-3.8 81.2 81.2 0 0 0-22-8.6 38 38 0 0 1-2.5-.8l-1.6-.4-4-.8c-4.8-1-6-1.3-9.6-1.8a1075.6 1075.6 0 0 0-16.8-2.4l-2.4-.3a124 124 0 0 0-15.6-1.2 511 511 0 0 0-38.6-.3 196.5 196.5 0 0 0-18.8 1.4 74.2 74.2 0 0 0-12.2 1.4 104 104 0 0 0-14 2.3 50 50 0 0 0-7.2 1.6 137.1 137.1 0 0 0-19.5 6 48.4 48.4 0 0 0-9.6 5c-.5 0-4.6 3.9-5.4 5a8 8 0 0 0-1.2 5c.3 1.5 1.6 3.5 3.3 5.3 3.2 3.2 7.2 5.6 14.2 8.4a474.8 474.8 0 0 1 4.8 1.8 6 6 0 0 1 2 .7l2.3.8 3.4.8a50.9 50.9 0 0 0 9.1 2.3 116.6 116.6 0 0 0 13.6 2.5A187 187 0 0 0 109 175l5.4.5a345.3 345.3 0 0 0 49 .4z"/><path fill="#e9242b" d="m222.6 283.9-6.5 1.7v.7a.8.8 0 0 1 .7.4l.3.8-.4 2-2.5 9.2-3.7-7.6-.7-1.7c0-.8.2-1.4.8-1.7v-.7l-6.4 1.6-7 1.2v.7c.6.1.8.4.9.8 0 .3-.2.7-.5 1.3l-6.5 11.8-.5-11 .1-1.1c.1-.3.3-.6.6-.7v-.8l-5.4 1v.7c.4 0 .6.2.7.5.2.2.2.5.3 1l1.3 26.8-.1 1.1c-.1.3-.3.5-.6.7v.8l5.3-1v-.7c-.3 0-.5-.2-.7-.5l-.2-1-.4-8.5 2.4-4.3 5.6 10.6.7 1.6c0 .4-.2.7-.7 1v.7l6.7-1.1v-.8a1.7 1.7 0 0 1-1-.6c-.4-.3-.8-1.1-1.5-2.4l-7.3-13.5 5.4-9.7.8-1.6 1-1.8.5-.3c.3 0 .5.2.8.5.3.3.7 1 1.3 2.2l6.5 12.9.8 10.7v1.2l-.7.7v.8l5.4-1.4v-.7c-.3-.1-.6-.3-.7-.5l-.3-1-.8-10.8 4.5-15.7c.3-1.3.7-2.2.9-2.7.2-.5.5-.9.9-1zm-155 1v.7l.5.7c.1.3.2.7.1 1.2l-1.6 26.7c0 .5-.2.8-.3 1a1 1 0 0 1-.6.5v.7l5.2 1.2v-.8a1.6 1.6 0 0 1-.5-.7 3 3 0 0 1-.1-1.1l.5-8.5 2.8-3.3 4.3 12.5a8 8 0 0 1 .5 1.8c0 .5-.3.7-.7.8v.7l6.6 1.4v-.7c-.4-.2-.7-.5-1-1a27 27 0 0 1-1-2.9l-5.7-16 6.3-7.4 1-1.3 1.2-1.3c.2-.2.4-.2.7-.3v-.7l-7-1.5v.7c.5.3.7.7.7 1.1 0 .3-.2.7-.6 1l-7.7 9.2.7-11c0-.5.1-.9.3-1 .1-.3.3-.5.6-.5v-.8zm19.9 4v.8l.5.7.2 1.1-1.2 26.8c0 .5 0 .9-.2 1.1-.1.2-.4.4-.7.5v.8l15.5 2.3a.7.7 0 0 1 .6.4l.2 1.2h.4l.4-8.1-.4-.1a3 3 0 0 1-.4 1.1.6.6 0 0 1-.6.3l-11-1.7.4-8.7 7 1 .5.5.3 1.2h.4l.3-8h-.4c0 .5-.2.9-.3 1.1a.6.6 0 0 1-.6.2l-7-1 .4-7.5 10.7 1.6a.7.7 0 0 1 .5.4l.3 1.2h.4l.3-8.2h-.4c0 .5-.2.9-.3 1.1a.6.6 0 0 1-.6.3zm19 2.9-.1.7c.3.2.5.4.6.7.1.2.2.6.1 1l-.7 27c0 .4 0 .8-.2 1 0 .3-.3.4-.6.6v.7l5 .5v-.8l-.6-.6a2 2 0 0 1-.1-1.1l.5-19.3 9 19.2c.5.8.6 1.4.6 1.7 0 .5-.2.8-.5 1v.7l5.4.5v-.8l-.6-.6-.2-1.1.7-27 .2-1 .7-.5v-.8l-5-.4v.7l.6.7.1 1-.5 18.9-9-19-.3-1.3c0-.6.2-1 .6-1v-.8zm20.4.3v8.2h.3c.1-.6.2-1 .4-1.1a.6.6 0 0 1 .6-.3l5.3.1-.3 24.1c0 .5 0 .9-.2 1.1 0 .3-.3.5-.6.6v.8l5.3.1v-.7l-.6-.6-.1-1.1.2-18.6a5.3 5.3 0 0 1-.4-.4 3.3 3.3 0 0 1-.4-.5c0-.2 0-.3-.2-.5l-.2-.6-.4-.6a5.1 5.1 0 0 1-.3-.6 7.6 7.6 0 0 1-.2-.6 5.6 5.6 0 0 1-.1-.7l-.2-.7a5.1 5.1 0 0 0 0-.4.1.1 0 0 1 0-.2l-.1-.2a4 4 0 0 0-.3-.7l-.4-.8-.4-.7-.4-.7-.4-1-.4-.8v-.1a.4.4 0 0 1 0-.1l-4.2-.2a.7.7 0 0 1-.6-.3 4 4 0 0 1-.3-1.2zm49.1.1a9.6 9.6 0 0 0-1 0c-3.6.4-6.3 2.8-8 7.2-1.2 3-1.7 6.3-1.6 10.2 0 2.8.5 5.4 1.2 7.6.7 2 1.5 3.7 2.6 5 1.8 2.2 4 3.1 6.7 2.9 1.4-.1 2.5-.5 3.5-1.1a18 18 0 0 0 3.5-3.5c.7-.8 1.1-1.2 1.3-1.2l.6.6.3-.5-2.6-6.4-.3.5v.6c0 .4 0 .9-.2 1.3l-1.1 1.5c-1.5 1.7-3 2.6-4.7 2.8a5 5 0 0 1-4.7-2.3c-1.4-2-2.2-4.7-2.3-8.2 0-3.4.5-6.2 1.9-8.5 1-1.9 2.6-3 4.6-3.1 1.6-.2 3.2.4 4.7 1.9.6.5 1 1 1.2 1.3l.3 1.2v.7l.4.3 2.2-6.8-.4-.4-.5.7c-.2 0-.6-.3-1.3-1a14.8 14.8 0 0 0-3.8-2.8c-.7-.3-1.5-.5-2.5-.5zm-32.2 1zm19.5.6-5 .1v.8c.3.1.5.3.6.5l.2 1.1v19.9a7 7 0 0 1-.7 2.3c-.7 1.6-2.1 2.4-4 2.4-2 0-3.4-.7-4.2-2.3-.3-.5-.5-1.3-.6-2.1l-.2-4.1v-7.2a.2.2 0 0 1-.2 0l-1-.8a3.5 3.5 0 0 0-.8-.7l-.3.5-.2.9-.5 1.3-.5.8a1 1 0 0 1-.3.4v6.8c0 2.3.2 4.2.6 5.8a8 8 0 0 0 1.8 3.8c1.4 1.6 3.5 2.4 6.2 2.3 3.8 0 6.3-1.6 7.5-4.6a24 24 0 0 0 1-7.6l-.2-17.8c0-.5 0-.9.2-1.1 0-.3.3-.5.6-.7zm-25.1.3zm11.7 0zm0 0 .1.1zm-7.6 0zm0 0v.1zm-7 .6zm6.6.7zm-2.9.2zm1.5 0zm-6.4.2zm0 0zm14.5 0v.3a.5.5 0 0 0 0-.2zm-.4.1zm0 0v.1zm-7 0h.1zm-1 .8zm-1 .5zm4.2.7zm-2 .1zm-6.4.7zm6.3.1zm.3.5h.1zm1.7.3v.2a1 1 0 0 0 0-.2zm0 .3v.1-.1zm0 .5zm0 .3zm5.6.8zm-12.8.2zm13.1 0zm-1.2 0zm-11 1.3zm0 0zm10.3.7z" font-size="30.1"/><g fill="#e9242b" stroke-width=".3" aria-label="BUCKETS" font-family="Copperplate Gothic Bold" font-size="44.1" style="-inkscape-font-specification:&quot;Copperplate Gothic Bold, &quot;"><path d="M62.4 345.7q3.6 4 1.3 8.4-1.8 3.6-5.4 4.4-1.9.3-3.8 0-2-.5-4.5-1.8l-18-9.1.4-.6h1.2q.4-.2.7-.8L45.6 324q.3-.6.2-1-.1-.5-.7-1l.3-.6 17.7 9q2.6 1.3 4 2.4 1.3 1.2 2 2.7 1.4 3-.3 6.5-2 3.8-6.4 3.7zM47 335.3l10.1 5.1q2.3 1.2 3.5 1 1.4-.3 2.3-1.9.8-1.6.2-2.8-.6-1.2-2.9-2.4l-10-5zm-5.8 11.5 9.8 5q2.7 1.3 4.2 1.2 1.8-.2 2.8-2.2 1-1.9.1-3.5-.8-1.3-3.5-2.7l-9.7-5zm59.4-1L96 361.5q-1.4 4.5-3.7 6.3-4.2 3-13.5.3-6.7-2-9.6-5.3-1.7-1.9-1.9-4.3-.1-2.4.8-5.3l4.7-15.8q.2-.7 0-1-.2-.5-.9-1l.2-.6 8.9 2.7-.2.6q-.8 0-1.3.2-.3.3-.5 1l-4.3 14q-.7 2.4-.8 3.7 0 1.2.5 2.2 1.3 2.7 6 4.2 4.9 1.4 7.5-.1 1-.6 1.6-1.7.6-1 1.3-3.5l4.3-14q.2-.7 0-1.1-.2-.4-1-.9l.3-.6 8.3 2.5-.2.6q-.8 0-1.2.3-.4.2-.6.9zm27.7 20.8 3.4 6.6-.6.3q-.6-.6-1-.7l-2.3.8q-3.9 1.7-6.5 2.1-2.6.4-6 0-7-.9-11-4.7-2.4-2.2-3.5-5.2-1.4-3.5-.9-7.4.7-5.3 4.3-8.8 5.4-5.3 14.8-4.1 3.5.4 5.9 1.4 2.3 1 5.8 3.7 1.7 1.2 2 1.2.4 0 1.1-.4l.5.5-4.8 5.6-.5-.5v-.6q.1-.6-.3-1.2-.5-.6-1.8-1.6-3.5-2.6-7.7-3-5-.7-8.3 1.4-3.9 2.5-4.5 7.2-.6 4.8 2.6 8.1 2.7 3 7.7 3.5 4.2.6 8.2-1.1 1.5-.6 2.1-1 .6-.6.7-1.2v-.6z"/><path d="m146.8 362.9-4.2 3.8.3 7.9q0 .6.4 1 .3.3 1 .5l.1.7-9.2.4v-.7q.8-.3 1-.6.3-.4.3-1l-1-25q-.1-.6-.4-1-.4-.3-1.1-.4v-.7l9.1-.4v.7q-.7.2-1 .6-.3.3-.3 1l.5 10.3 11.6-10.5q.9-.7.8-1 0-.7-1.2-.9v-.7l12-.5v.7q-.8.2-1 .4l-1.9 1.5-1.6 1.5-9.6 8.4 11.9 13.2q1.6 1.8 2.4 2.3.7.5 1.8.7v.6l-11.5.6v-.7q1.1-.3 1-1 0-.2-1-1.5z"/><path d="m175.7 360.9 1.6 7.9 18.5-3.8q.7-.1 1-.5.2-.3.3-1.1l.6-.2 1.6 7.5-.7.1q-.4-.7-.8-1-.4-.2-1 0l-26.2 5.3-.1-.7q.7-.3.9-.7.2-.4.1-1.1l-5-24.4q-.1-.6-.5-1-.3-.2-1.1-.3l-.2-.6 25.7-5.3q.6 0 1-.5.2-.3.3-1.1l.6-.2 1.5 7.5-.6.1q-.4-.7-.8-1h-1l-18 3.7 1.3 6.8 11.7-2.4q.7-.1 1-.5.2-.3.3-1.1l.7-.2 1.4 7.3-.6.1-.8-.9q-.4-.2-1 0z"/><path d="m209.8 339.6 7.4 21q.2.7.6.9.4.2 1.2.2l.3.6-8.7 3-.2-.6q.6-.5.8-.9.2-.4 0-1l-7.4-21-8.7 3q-.6.1-.8.5-.2.4-.2 1.2l-.6.3-2.5-7.2.6-.3q.5.7.9.9.4.2 1 0l23.3-8.2q.7-.2.9-.6.2-.4.1-1.3l.7-.2 2.5 7.2-.6.2q-.5-.6-1-.8-.3-.2-1 0zm34.4-18.2v7.7h-.8v-.3q-.4-.7-2-.9-4.5-.7-9.2 1.6-2 1-3.3 2.3-1 1-1.3 2-.3 1.2.1 2 .7 1.6 2.8 1.2 1-.2 4.3-1.4l3.2-1.1q2.8-1 4.7-1.4 2-.3 3.7 0 1.8.2 3.3 1.4 1.5 1.2 2.4 3 1.4 2.7.6 5.8-.6 2.7-3.6 5.4-2.2 2-5 3.4-5.3 2.6-11.7 2.6l-1.5.1q-.3.1-.6.8h-.7l-.3-7.9h.7v.3q.5.8 1.7 1.2 1.8.5 4.9 0t5.3-1.7q2.6-1.2 4-3 .8-1 1-2 .2-1.2-.3-2-.6-1.4-2.3-1.2-1.2 0-4.3 1.2l-3.2 1.2q-3.1 1.2-4.5 1.5-1.4.3-2.9.3-2.2 0-4-1.2-1.7-1.2-2.7-3.2-1.7-3.3-.5-6.6 1.6-4.4 7.7-7.4 2.5-1.2 5-1.8 2.4-.6 6.3-.8l1.6-.2q.4-.2.7-1z"/></g><path fill="#fd8300" d="M102.6 169a74.6 74.6 0 0 1-14.4 1.4 86.8 86.8 0 0 1-19.5-1.7 210.7 210.7 0 0 0-4.6-1c-1.7-.3-6.4-1.8-10.7-3.4a95.6 95.6 0 0 1-26.5-16.7c-3-2.5-9.7-10.3-12.1-14a76.6 76.6 0 0 1-11.5-24.5c-1.7-6-1.5-5.4-2.2-9.9a85.3 85.3 0 0 1 32.8-80.9 74.2 74.2 0 0 1 13.6-8.6c1.5-.9 2.7-1.4 7.4-3.4A113.7 113.7 0 0 1 83.2 0a398.7 398.7 0 0 0 4.4 0 69 69 0 0 1 15.3 1.2 67.7 67.7 0 0 1 20.6 6.1A80.3 80.3 0 0 1 156 32.6c2.2 2.9 4.7 6.4 5.5 7.9a83 83 0 0 0 1.6 2.8 89.2 89.2 0 0 1 10.7 37.3 112 112 0 0 1-1.8 20.8 91 91 0 0 1-14 32.3c-1.9 2.5-7.2 8.7-8.6 10a788.3 788.3 0 0 0-3.7 3.6 65.7 65.7 0 0 1-10.5 8.2 264 264 0 0 0-4.8 3 9 9 0 0 1-2.2 1.3c-.4 0-1.5.6-2.3 1-5 2.9-16.4 6.8-23.3 8.1z"/><path fill="#c25300" d="M102.6 169a74.6 74.6 0 0 1-14.4 1.4 86.8 86.8 0 0 1-19.5-1.7 210.7 210.7 0 0 0-4.6-1c-1.7-.3-6.4-1.8-10.7-3.4a95.6 95.6 0 0 1-26.5-16.7c-3-2.5-9.7-10.3-12.1-14a76.6 76.6 0 0 1-11.5-24.5c-1.7-6-1.5-5.4-2.2-9.9a85.3 85.3 0 0 1 32.8-80.9 74.2 74.2 0 0 1 13.6-8.6c1.5-.9 2.7-1.4 7.4-3.4A113.7 113.7 0 0 1 83.2 0a398.7 398.7 0 0 0 4.4 0 69 69 0 0 1 15.3 1.2 67.7 67.7 0 0 1 20.6 6.1A80.3 80.3 0 0 1 156 32.6c2.2 2.9 4.7 6.4 5.5 7.9a83 83 0 0 0 1.6 2.8 89.2 89.2 0 0 1 10.7 37.3 112 112 0 0 1-1.8 20.8 91 91 0 0 1-14 32.3c-1.9 2.5-7.2 8.7-8.6 10a788.3 788.3 0 0 0-3.7 3.6 65.7 65.7 0 0 1-10.5 8.2 264 264 0 0 0-4.8 3 9 9 0 0 1-2.2 1.3c-.4 0-1.5.6-2.3 1-5 2.9-16.4 6.8-23.3 8.1zm45.5-33.2a62.8 62.8 0 0 1 4.9-2c0-.2-3-2-6.6-3.9-3.5-2-7.2-4.2-8-4.9a160.3 160.3 0 0 1-19.5-19c-2.4-2.8-4.6-6-7.1-10.2a72.9 72.9 0 0 0-1.8-3c-.4-.5-1-1.6-1.3-2.3a65.7 65.7 0 0 1-4.8-9.6l-1.8-3.8a44 44 0 0 1-3.6-9L97 64c-.3-.2-7.8 2-10.4 3l-2.2.7 1.6 4.8 4.4 13a3569.1 3569.1 0 0 0 5 15l3.6 10.8a1385.8 1385.8 0 0 0 4.8 14 866 866 0 0 1 3.2 9.4c1.8 5.4 2 5.9 3 6l2.2.2a54.8 54.8 0 0 0 20-1.1 88.5 88.5 0 0 0 8.7-1.6c.6 0 4.7-1.3 7.2-2.4zm8.4-6.6a36.5 36.5 0 0 0 3.5-5.6l4.4-9.3a88.5 88.5 0 0 0 5.8-25.9v-5.1l-.1-5.2c-.1-1.9-1.1-9.1-1.5-10.3 0-.4-.6-.7-1.9-1.1a28 28 0 0 1-4-1.8c-1.3-.7-3.2-1.5-4.2-1.8a62 62 0 0 1-3-1c-.6-.3-1.9-.6-2.8-.8a19 19 0 0 1-2-.4l-1.4-.2a11 11 0 0 1-2.2-.3L144 60l-2.7-.4H139l-2.8-.1c-1.2-.2-2.7-.2-6.7-.3a97.6 97.6 0 0 0-26 3.2l-3.5.9 1.3 3.8 2.3 6a95.5 95.5 0 0 1 1.6 3.3l2 4a937 937 0 0 1 2.4 5 113.7 113.7 0 0 0 1.7 3.3 51.8 51.8 0 0 0 5 8.3 73.6 73.6 0 0 0 13.1 15.5 164.6 164.6 0 0 1 2.3 2.3c3 2.9 7 6.5 9.5 8.2 1.2.8 13.8 7.9 14 7.8l1.2-1.5zm-53 6.8a1747.4 1747.4 0 0 0-3.7-11.2 1389.2 1389.2 0 0 1-3.7-11 432.8 432.8 0 0 0-2.1-6.2 766 766 0 0 1-2.5-7.2 1292.3 1292.3 0 0 0-3.3-9.7 881.5 881.5 0 0 1-3.7-11c-2.4-7.5-3.6-10.8-3.8-11-.3 0-12.6 3.7-12.8 4 0 .2.3 1.8.9 3.8a47 47 0 0 1 1.9 9.6c0 1 .4 3.4.7 5.1a55.4 55.4 0 0 1 1.1 10.3l.3 3.3v2.2a66 66 0 0 1-.7 15.8l-.3 2.4-.4 2.3 1.5.8a114 114 0 0 1 8 3.5 88.3 88.3 0 0 0 7.2 2.9 206.2 206.2 0 0 0 16.6 5l-1.2-3.7zm-35.1-11 .3-2.8a63.3 63.3 0 0 0 .8-16.4c0-2.7-.2-5.5-.4-7L68 92a95.1 95.1 0 0 0-2.3-14.4l-1-4-3.3 1.1a79.5 79.5 0 0 0-9.2 3.8 107.4 107.4 0 0 0-18 10.4L33 90l.6 1.3a42 42 0 0 0 7.2 11.6l5.4 5.9a61.4 61.4 0 0 0 16.3 13.6c2 1.4 5.4 3.4 5.6 3.4l.3-.8zm98-65.4a67.2 67.2 0 0 0-9-18.8l-2.2-3.2a56.4 56.4 0 0 0-9.5-10.9c-.2-.2-.5-.4-.5-.6a93.5 93.5 0 0 0-17-12.3A72.2 72.2 0 0 0 111.5 7c-5.5-1.6-15-3.3-15.7-2.7-.1 0-.3.5-.2 1l-.3 3.2a74.2 74.2 0 0 0-.7 9.7 52 52 0 0 0 .2 14.6 182.8 182.8 0 0 1 .7 7l1 7.5c.4 4.1 1.5 9.2 2.6 12l.3 1 1.6-.4c4.5-1.3 5.5-1.5 12.8-2.6a82.6 82.6 0 0 1 20.7-1l3 .2a70 70 0 0 1 30 7.2c.2 0-.3-1.9-1-4zm-134 27.1 1.5-1.1 2.7-1.8a109.8 109.8 0 0 1 24.6-12.1l2.8-1-1.1-3.2a93.6 93.6 0 0 0-5.7-13c-1.5-3.4-2.8-6-3.7-7.7a189.7 189.7 0 0 1-1.7-3.1 56.8 56.8 0 0 0-7-10.8 75.1 75.1 0 0 0-7.2-9.4c-.6-.8-.5-.9-1.7 2.4a121.3 121.3 0 0 1-1.8 4.7 57.9 57.9 0 0 0-3 10.1 23 23 0 0 0-.5 2.4l-.6 2.5a77.2 77.2 0 0 0 1.8 41.6l.6-.5zM79.8 66a1455.4 1455.4 0 0 1-7.5-22.5 647.1 647.1 0 0 0-4.6-13.6 487.7 487.7 0 0 1-2.1-6.3 1061.3 1061.3 0 0 0-4.8-14.2c-.4-1.3.1-1.3-5 .8A78 78 0 0 0 40.6 18c-2 1.2-2 1.3-2 2.4.1.7.5 1.3 2 3 1 1 2.5 2.9 3.3 4a86.5 86.5 0 0 1 12.2 18l2.2 4.3A368.3 368.3 0 0 0 60 53a70.2 70.2 0 0 1 2.6 5.5A57.2 57.2 0 0 1 67 69.8c.3.2 12.8-3.7 12.9-4zm9.2-2.7a199.8 199.8 0 0 1 6.3-1.8l.9-.3-1.2-4.5c-.6-2.5-1.2-5-1.2-5.6a68 68 0 0 0-.8-6.3 145.3 145.3 0 0 1-1.3-25.9l.5-5.7c0-1.6.4-4.3.6-6 .4-2 .4-3.3.2-3.4h-2.3l-2.4-.2a86.5 86.5 0 0 0-20 2.5l-4.3 1 .7 2.3A296 296 0 0 0 69 22.3l2.6 8a222.9 222.9 0 0 0 4.6 13.5l2.6 7.8 2.4 7.2c2 6.1 2.2 6.4 3 6l4.7-1.6z"/><path fill="#020100" d="M105.1 168.3c-9 2-20.3 2.7-27.3 1.7a92.6 92.6 0 0 0-4-.5 39.2 39.2 0 0 1-6.7-1.2l-1.5-.3a82 82 0 0 1-41.4-23.1c-1.6-1.6-7.4-8.5-8.6-10.2A115.5 115.5 0 0 1 8 122c-2-4-4.5-11.2-5.9-17.6A82 82 0 0 1 15 38.3 106 106 0 0 1 30.6 21 92.4 92.4 0 0 1 52 7.7 162.2 162.2 0 0 0 56 6c1.6-.7 10.5-3.2 14.6-4.1a88.9 88.9 0 0 1 51.2 5 96 96 0 0 1 28.4 19.4 284.8 284.8 0 0 0 3.7 4l1.8 2.1a55 55 0 0 0 1.6 2.3 67.9 67.9 0 0 1 6 9 87.2 87.2 0 0 1 10.5 37.7c0 1.6-.3 9-.5 11a213.6 213.6 0 0 0-.3 3.2 52.8 52.8 0 0 0-1 5.1 64.2 64.2 0 0 1-4 14l-1.1 2.9a115 115 0 0 1-7 13c-2 3.1-2.2 3.5-4.3 6l-3 3.6a130.2 130.2 0 0 1-12.2 11.6 75.6 75.6 0 0 1-6.3 4.4 260.2 260.2 0 0 0-4 2.6l-2.3 1.2-3 1.4a77.9 77.9 0 0 1-4.5 2.2 118 118 0 0 1-15.2 4.8zm7.6-5.8-1-3.3a290.6 290.6 0 0 1-5.4-15.7 770.5 770.5 0 0 1-8.5-25.1 421.1 421.1 0 0 1-7-21 3600.2 3600.2 0 0 1-4.4-13L81 68.7a24 24 0 0 0-6.8 1.7l-6.6 2v.6l1.1 4.1c1 3.1 2 8.6 1.8 9.3L71 90a109.8 109.8 0 0 1 1.7 17 80.4 80.4 0 0 1-2.1 22.9c0 .6-.4 2.6-1 4.6-.5 2-1 3.6-.9 3.7a43.8 43.8 0 0 1-5.4 14.8 62 62 0 0 0-4.5 9.4c0 .2 1.1.7 2.4 1l3.4 1a93.5 93.5 0 0 0 39 .7c6.2-1.3 8.8-2 9.1-2.6zm10.2-3.7a58.6 58.6 0 0 0 7.6-4.3 47 47 0 0 0 6.8-4.6c.6-.2 8.6-7.3 10.5-9.4a338.4 338.4 0 0 1 3.2-3.3 16.7 16.7 0 0 0 1.6-2.2c.8-1.1.8-1.2.2-1.6-.3-.3-3-1.9-6-3.5a46 46 0 0 1-12.6-8.8 3664.3 3664.3 0 0 0-7.3-6.8 58.8 58.8 0 0 0-2.3-2.3 86 86 0 0 1-13-16.9 42 42 0 0 0-1.4-2.3 19.5 19.5 0 0 1-1.1-2.1l-1.3-2.3a79.3 79.3 0 0 1-5.3-11.1c-1.2-2-3-6.2-4-9.7a17 17 0 0 0-1.4-3.8c-.3-.2-12.5 3.4-12.8 3.7-.1.2.3 1.6 1 3.7a1362.1 1362.1 0 0 1 14.2 42l5.6 16.6a934.5 934.5 0 0 1 4 12.2 359.2 359.2 0 0 0 5.7 16.6l1 3 2.4-.9a63 63 0 0 0 4.7-2zm-62.3-7.2a61 61 0 0 0 6.5-19.1 99 99 0 0 0 2-35.2l-1.3-10c-1-5.8-1.6-9.6-2.3-11.6l-.7-2-2.7.7a101.4 101.4 0 0 0-27 13.8 59.3 59.3 0 0 0-3.2 2.4l-2 1.3c-.3 0-.7.4-1 .6a5.1 5.1 0 0 1-.9 1 154.4 154.4 0 0 0-10 9.5l-2.3 2.9c-.6.8-1.6 2.3-2.2 3.5-.6 1.1-1.8 2.9-2.7 3.9-1.8 2.2-1.8 1.9.2 6.4A79.6 79.6 0 0 0 28 144l2.4 2.3 2.7 2.2 2.7 2.2a116.4 116.4 0 0 0 15.7 9l3.8 1.7 1.7-3.1a281.3 281.3 0 0 0 3.6-6.7zm96-22.3a30 30 0 0 0 2-3l1.1-1.9a92.9 92.9 0 0 0 8-19.7l.4-1.4a77 77 0 0 0 .5-36c-.2-.2-1-.6-2-.9-.9-.2-2.6-1-3.8-1.7a28 28 0 0 0-4-1.7l-3.4-1.1c-1.4-.5-2.3-.7-8.8-1.8a42 42 0 0 0-10-.9c-1.3-.1-1.9-.2-6.6-.3a103.2 103.2 0 0 0-27.2 3.4l-2.8.8 1 3c1 3.7 3 8.2 6.9 16a223.8 223.8 0 0 1 4 8l3.1 5a404.8 404.8 0 0 1 1.4 2.2 68.3 68.3 0 0 0 9.4 11.6 91.7 91.7 0 0 0 10.7 10.4c0 .2 3 2.6 4.6 3.7 1.2.8 14 8 14.3 8l1.3-1.7zm-148-17.5c0-.2.4-.7.9-1.1a5 5 0 0 0 .9-1.5c0-.4.5-1.2 1-2 .7-.7 1.4-1.6 1.6-2.1a1917 1917 0 0 1 4-5c1.6-2 7.7-7.6 9.8-9 7.5-5.6 11.5-8.3 15.3-10.5A123 123 0 0 1 61 72l3-1-.2-1.4c-.1-.8-.4-1.5-.5-1.7l-1.2-3a44.5 44.5 0 0 0-2.7-6.5l-3.4-7a46.9 46.9 0 0 0-1.6-3.3 97.2 97.2 0 0 1-1.6-2.8c-.6-1.3-2.8-5.1-4.6-8.3-.6-.9-2.5-3.3-3.2-4a72.5 72.5 0 0 0-7.7-10 5 5 0 0 0-.6-1l-.7-1-2 1.7a92.6 92.6 0 0 0-17.1 18.9 88.3 88.3 0 0 0-7.7 14.8 13.8 13.8 0 0 1-.7 1.9 90.4 90.4 0 0 0-5 25.2 80.3 80.3 0 0 0 2.9 24c1.1 4.1 1.3 4.7 1.6 4.6.3 0 .5-.2.5-.4zm158.8-49.2a84.2 84.2 0 0 0-7.3-17.8 99.8 99.8 0 0 0-8.1-11.7A83.5 83.5 0 0 0 95.4 3.9l-.2 1.7-.3 3.7-.3 5a82.1 82.1 0 0 1-.4 5 64.1 64.1 0 0 0 .7 17.5l.4 4.1a103.1 103.1 0 0 0 3.2 17.8l.6 1.7 3.6-.9c3.8-1 5.2-1.2 11.5-2.1a73.8 73.8 0 0 1 13.7-1 130.2 130.2 0 0 1 21.3 1.4 70.5 70.5 0 0 1 14 4 7 7 0 0 1 2 1.1c.5.5 1.8 1 2.3 1v-1.3zm-89.4-3L75.7 53l-5.2-15.6a612 612 0 0 0-5-14.8c-.3-1.2-3.1-9.4-4.1-12l-1-2.5-1.8.7a75.7 75.7 0 0 0-21 11.3c0 .2 1.2 1.5 2.5 3a72.4 72.4 0 0 1 6.5 8l3.9 5.3 2.5 3.8.7 1.3c0 .3.5 1.1.9 1.7a25.5 25.5 0 0 1 1.3 2.4 292.8 292.8 0 0 0 4.9 9.6l1.3 2.6c.7 1.1 2.6 6.2 3.7 9.6l.9 2.8 6.3-1.9c3.5-1 6.5-1.8 6.6-1.7.7.3.4-.7-1.6-6.8zM90.6 63l6-1.8-1-3A58.3 58.3 0 0 1 93.3 45c-.2-1.6-.5-3.6-.5-4.6a69 69 0 0 0-.4-3.5 54.5 54.5 0 0 1-.3-3.4 70 70 0 0 0-.3-3.4l-.2-3.1.1-4 .3-4.5.5-5c0-1.7.3-4.2.5-5.6.3-1.5.4-3 .4-3.5 0-.8-.1-.8-1.7-.9h-3.2a95 95 0 0 0-15.2 1.3c-2.3.2-9.5 2.3-9.4 2.7a320.8 320.8 0 0 1 4.7 13.8l7 20.7a515 515 0 0 0 2.2 6.7 1145.8 1145.8 0 0 1 3.1 9.3l2.2 6.4c.5 1 .6 1.1 1 .8l6.6-2z"/></svg>