<svg xmlns="http://www.w3.org/2000/svg" id="Layer_1" width="356.32" height="331.878" data-name="Layer 1" viewBox="0 0 356.32 331.878"><defs id="defs4"><style id="style2">.cls-1{fill:#d4dde5}.cls-2{fill:#cfac00}.cls-4{fill:#fff}.cls-7{fill:#0480e4}.cls-8{fill:#0f2739}.cls-9{fill:#fdd900}</style></defs><g id="g266" transform="translate(-82.2 -214.122)"><path id="path158" d="m405.06 216.03-8.23 2.88c-21.87 7.67-24.83 7.03-47.82 2.07-6.36-1.37-14.28-3.08-24.21-4.95-33.56-6.33-53.67 4.32-64.45 13.96-10.78-9.64-30.89-20.29-64.45-13.96-9.93 1.87-17.85 3.58-24.21 4.95-23 4.96-25.95 5.6-47.82-2.07l-8.23-2.88-33.44 40.5 8.52 8.03c.2.19 19.78 19.4 19.78 46 0 3.76-1.73 10.96-3.56 18.58-5.99 24.91-15.03 62.54 1.37 102.88 8.98 22.09 24.72 42.29 46.78 60.04 25.03 20.14 59.06 37.81 101.15 52.5l4.12 1.44 4.12-1.44c42.09-14.69 76.12-32.35 101.15-52.5 22.06-17.75 37.8-37.96 46.78-60.04 16.4-40.34 7.35-77.98 1.37-102.88-1.83-7.62-3.56-14.82-3.56-18.58 0-26.69 19.63-45.84 19.78-46l8.52-8.03-33.44-40.5zm-132.77 37.94s-.02.04-.06.11zm-23.83.12c-.04-.07-.06-.11-.06-.11z" class="cls-1"/><path id="path160" d="M305.59 226.64c-33.35 0-44.43 21.63-44.43 21.63l-.82 1.6-.82-1.6s-11.07-21.63-44.43-21.63c-5.1 0-10.71.51-16.89 1.67-27.29 5.14-38.6 8.92-49.69 8.92-7.85 0-15.59-1.89-28.8-6.52l-20.44 24.75s23.71 22.36 23.71 55.09c0 33.13-70.36 149.7 137.36 222.2 207.71-72.5 137.35-189.07 137.35-222.2s23.71-55.09 23.71-55.09l-20.44-24.75c-13.21 4.63-20.95 6.52-28.8 6.52-11.09 0-22.4-3.77-49.69-8.92-6.18-1.16-11.79-1.67-16.89-1.67z" class="cls-8"/><path id="path162" d="M213.83 317.64s45.79-4.92 96.5 1.97c0 0-48.74-26.59-96.5-1.97" class="cls-7"/><path id="rect164" d="M133.57 370.19h256.62v18.31H133.57z" class="cls-7"/><path id="polygon166" d="M137.42 400.5h246.6l6.16-12H133.57z" class="cls-9"/><g id="g204"><g id="g176"><path id="path168" d="m204.91 278.7 12.06 24.96-4.89 2.36-12.06-24.96zm12.19 9.52 15.47 7.9-6.15 2.97-15.47-7.9 3.4-17.06 6.15-2.97z" class="cls-1"/><path id="path170" d="m251.33 279.46 1.35 12.95-5.44.57-1.53-14.62 1.07-2.01-3.64.38-8.56-10.3 6.5-.68 6.9 8.28 5.08-9.53 6.5-.68-8.24 15.64z" class="cls-1"/><path id="path172" d="m271.11 292.42 4.51-27.36 5.36.88-4.51 27.36z" class="cls-1"/><path id="path174" d="m318.08 278.75-18.38 22.04-7.47-3.45 4.86-28.28 5.12 2.36-3.87 22.5 14.62-17.54 5.12 2.36z" class="cls-1"/></g><g id="g194"><path id="path178" d="m180.81 428.25-3.46-7.19-20.06 9.66-2.36-4.89 17.61-8.48 3.62 1.27-4.64-9.63 4.92-2.37 9.28 19.27-4.92 2.37z" class="cls-9"/><path id="path180" d="m182.86 465.11 2.42-9.32-3.43-3.37 5-2.74 4.19 4.12c.82.81 2.1.8 2.91-.02l3.05-3.1c.81-.82.79-2.1-.03-2.91l-6.89-6.78-15.61 15.87-3.87-3.81 19.44-19.77 10.85 10.67c2.87 2.83 2.94 7.45.18 10.37l-.09.09-3.23 3.28-.09.09c-2.07 2.05-5.12 2.63-7.74 1.66l-2.58 10.08zm14.81-7.32.09-.09zm3.32-3.37.09-.09z" class="cls-9"/><path id="path182" d="m201.8 479.32 13.29-24.33 4.76 2.6-13.29 24.33z" class="cls-9"/><path id="path184" d="m248.16 474.83-2.92 12.6c-.92 3.96-4.91 6.45-8.88 5.53l-13.54-3.14 6.25-27.01 13.54 3.14c3.97.92 6.46 4.91 5.55 8.87zm-5.36-1.11c.26-1.12-.42-2.2-1.54-2.46l-8.13-1.88-3.19 13.76-3.22 2.04 10.74 2.49c1.12.26 2.22-.46 2.47-1.54l2.87-12.4z" class="cls-9"/><path id="path186" d="m279.86 477.63.59 5.43-13.82 1.51.4 3.63c.12 1.1 1.16 1.94 2.27 1.82l11.77-1.29.59 5.39-11.85 1.3c-4.05.44-7.72-2.5-8.16-6.54l-1.41-12.86c-.44-4.04 2.51-7.71 6.55-8.15l11.85-1.3-1.04 5.61-10.14 1.11c-1.1.12-1.95 1.12-1.82 2.26l.69 6.33 2.44-3.03 11.08-1.21z" class="cls-9"/><path id="path188" d="m319.45 480.37-4.92 2.38-16.95-10.96 7.51 15.53-4.89 2.36-12.07-24.96 4.89-2.36 16.95 10.96-7.51-15.53 4.92-2.38L318.79 479z" class="cls-9"/><path id="path190" d="m333.59 439.75-5.63 5.65 15.78 15.71-3.83 3.85-13.86-13.79v-3.84l-7.55 7.58-3.87-3.85 15.08-15.16 3.87 3.85z" class="cls-9"/><path id="path192" d="M363.35 417.57c3.67 1.75 5.24 6.18 3.49 9.86l-6.54 13.74-4.19-3.82 5.78-12.14c.5-1.04.03-2.26-.97-2.74l-1.45-.69a2.04 2.04 0 0 0-2.74.97l-3.31 6.94c-1.75 3.68-6.19 5.25-9.86 3.5l-1.63-.78c-3.67-1.75-5.24-6.19-3.49-9.86l5.66-11.88 4.22 3.83-4.92 10.32c-.48 1-.07 2.24.97 2.74l1.41.67c1.04.49 2.26.03 2.74-.97l3.32-6.98c1.75-3.68 6.19-5.25 9.86-3.5l1.63.78z" class="cls-9"/></g><path id="path196" d="M121.4 254.88s25.04 31.01 17.45 67.3-20.98 89.14 17.78 127.9c0 0-29.6-42.68-17.62-98.5s6.34-78.37-17.62-96.69z" class="cls-7"/><path id="path198" d="M182.47 244.44s44.7-12.02 64.05 10.33c0 0-32.45-13.26-64.05-10.33" class="cls-7"/><path id="path200" d="M399.26 254.88s-25.04 31.01-17.45 67.3 20.98 89.14-17.78 127.9c0 0 29.6-42.68 17.62-98.5s-6.34-78.37 17.62-96.69z" class="cls-7"/><path id="path202" d="M338.19 244.44s-44.7-12.02-64.05 10.33c0 0 32.45-13.26 64.05-10.33" class="cls-7"/></g><path id="path206" d="M162.32 326.1s55.88-.8 92.49 2.04c0 0-65.17 11.17-92.49-2.04" class="cls-7"/><path id="path208" d="M151.53 350.53s26.5-.75 44.68 2.71c0 0-28.39 12.89-44.68-2.71" class="cls-7"/><path id="path210" d="M361.33 326.1s-55.88-.8-92.49 2.04c0 0 65.17 11.17 92.49-2.04" class="cls-7"/><path id="path212" d="M369.16 350.53s-26.5-.75-44.68 2.71c0 0 28.39 12.89 44.68-2.71" class="cls-7"/><path id="path214" d="M137 250.97s40.73 11.99 78.06.72c0 0-46.42 28.25-78.06-.72" class="cls-7"/><path id="path216" d="M383.69 250.97s-40.73 11.99-78.06.72c0 0 46.42 28.25 78.06-.72" class="cls-7"/><g id="g264"><g id="g224"><path id="path218" d="m260.05 463.45-18.3-25.9h-21.27l.95-3.4c7.55-27.2 5.18-44.04 3.79-50.09a35.5 35.5 0 0 1-10.17 1.52c-1.61 0-2.6-.12-2.7-.14l-3.01-.4.76-2.94c5.88-22.61-3.91-36.37-4.01-36.5l-2.86-3.91 4.82-.36c1.11-.08 2.23-.12 3.33-.12 8.88 0 15.49 2.56 18.17 3.8 11.89-6.41 22.02-34.27 24.99-44.78l.55-1.95h15.84l.55 1.95c2.97 10.51 13.1 38.37 24.99 44.78 2.68-1.24 9.3-3.8 18.17-3.8 1.11 0 2.23.04 3.33.12l4.87.35-2.91 3.92c-.09.13-9.89 13.89-4.01 36.5l.76 2.94-3.01.4c-.11.01-1.09.14-2.7.14-2.49 0-6.09-.29-10.15-1.52-1.38 6.08-3.73 23.04 3.78 50.09l.95 3.4h-21.27l-18.3 25.9h-5.97z" class="cls-8"/><path id="path220" d="M268.93 300.95s11.35 40.14 27.6 47.04c0 0 7.27-4.1 18.15-4.1 1.02 0 2.06.04 3.14.11 0 0-10.76 14.5-4.45 38.77 0 0-.87.12-2.35.12-2.59 0-7.06-.35-11.98-2.31 0 0-6.93 18.44 3.02 54.28h-19.13l-18.3 25.9h-3.19l-18.3-25.9h-19.12c9.95-35.84 3.02-54.28 3.02-54.28-4.92 1.95-9.39 2.31-11.98 2.31-1.48 0-2.35-.12-2.35-.12 6.31-24.27-4.45-38.77-4.45-38.77 1.08-.08 2.12-.11 3.14-.11 10.88 0 18.15 4.1 18.15 4.1 16.25-6.9 27.6-47.04 27.6-47.04zm0-5.37h-15.84l-1.11 3.91c-.03.1-2.82 9.89-7.49 20.31-6.34 14.16-11.72 19.88-15.13 22.18-3.46-1.42-9.85-3.47-17.96-3.47-1.17 0-2.36.04-3.53.13l-9.92.72 5.99 7.82c.18.26 2.37 3.48 3.89 9.08 2.11 7.77 2.01 16.24-.32 25.16l-1.53 5.88 6.02.8c.2.03 1.31.16 3.06.16 2.08 0 4.88-.19 8.08-.89.34 2.02.65 4.65.8 7.87.35 7.79-.24 20.74-5.09 38.19l-1.89 6.81h23.41l16.7 23.63 1.6 2.27h8.75l1.6-2.27 16.7-23.63h23.41l-1.89-6.81c-2.73-9.83-5.83-24.55-5.06-38.85.16-2.92.45-5.33.77-7.2 3.2.7 6 .89 8.08.89 1.74 0 2.85-.14 3.06-.16l6.02-.8-1.53-5.88c-2.32-8.92-2.43-17.38-.32-25.16 1.52-5.6 3.71-8.82 3.89-9.08l6.04-7.88-9.97-.66c-1.17-.08-2.36-.13-3.53-.13-8.11 0-14.51 2.05-17.96 3.47-3.41-2.3-8.79-8.02-15.13-22.18-4.67-10.43-7.46-20.22-7.49-20.32l-1.11-3.91h-4.06z" class="cls-7"/><path id="path222" d="M314.68 338.52c-8.11 0-14.51 2.05-17.96 3.47-3.41-2.3-8.79-8.02-15.13-22.18-4.67-10.43-7.46-20.22-7.49-20.32l-1.11-3.91h-19.91l-1.11 3.91c-.03.1-2.82 9.89-7.49 20.31-6.34 14.16-11.72 19.88-15.13 22.18-3.46-1.42-9.85-3.47-17.96-3.47-1.17 0-2.36.04-3.53.13l-9.92.72 5.99 7.82c.18.26 2.37 3.48 3.89 9.08 1.53 5.63 1.89 11.63 1.09 17.89h5.41c2.18-19.04-6.07-30.15-6.07-30.15 1.08-.08 2.12-.11 3.14-.11 10.88 0 18.15 4.1 18.15 4.1 16.25-6.9 27.6-47.04 27.6-47.04h11.78s11.35 40.14 27.6 47.04c0 0 7.27-4.1 18.15-4.1 1.02 0 2.06.04 3.14.11 0 0-8.25 11.11-6.07 30.15h5.41c-.8-6.27-.44-12.26 1.09-17.89 1.52-5.6 3.71-8.82 3.89-9.08l6.04-7.88-9.97-.66c-1.17-.08-2.36-.13-3.53-.13z" class="cls-7"/></g><path id="path226" d="M292.78 427.71c-12.4-39.76 5.72-64.25 5.72-64.25.64 8.27 5.72 9.54 5.72 9.54-2.86-15.9 4.77-22.58 4.77-22.58s-19.08 3.18-25.76 23.54c0 0 5.72-6.04 10.5-8.27 0 0-15.9 17.81-9.54 55.02h-42.11c6.36-37.21-9.54-55.02-9.54-55.02 4.77 2.23 10.5 8.27 10.5 8.27-6.68-20.36-25.76-23.54-25.76-23.54s7.63 6.68 4.77 22.58c0 0 5.09-1.27 5.72-9.54 0 0 18.13 24.49 5.72 64.25z" class="cls-9"/><path id="rect228" d="M242.05 420.55h42.3v3.18h-42.3z" class="cls-4" transform="rotate(180 263.2 422.14)"/><path id="path230" d="M254.17 412.12c-4.45 6.36-8.27 14.31-.95 22.58s8.91 13.36 8.91 13.36l1.02 3.26 1.02-3.26s1.59-5.09 8.91-13.36 3.5-16.22-.95-22.58l-2.86 4.13s7.32 9.86-2.54 18.13l-.32-15.27-.95-2.86s3.18-6.04 9.54-10.81c0 0-8.27-7-8.27-24.49v-42.62s6.68 3.82 11.77 5.72c0 0-12.78-18.31-15.33-34.22-2.55 15.91-15.33 34.22-15.33 34.22 5.09-1.91 11.77-5.72 11.77-5.72v42.62c0 17.49-8.27 24.49-8.27 24.49 6.36 4.77 9.54 10.81 9.54 10.81l-.95 2.86-.32 15.27c-9.86-8.27-2.54-18.13-2.54-18.13l-2.86-4.13zm3.18-7c5.09-3.82 5.54-13.54 5.54-13.54s.13-2.76.25-5.51c.13 2.76.25 5.51.25 5.51s.45 9.72 5.54 13.54c0 0-3.52 3.91-5.79 7.83-2.27-3.92-5.79-7.83-5.79-7.83" class="cls-9"/><path id="path232" d="M293.73 365.69c-4.77 2.23-10.5 8.27-10.5 8.27 6.68-20.36 25.76-23.54 25.76-23.54s-7.63 6.68-4.77 22.58c0 0-5.09-1.27-5.72-9.54 0 0-5.75 7.77-8.56 21.65-1.84.9-3.72 1.71-5.65 2.42 3.06-14.7 9.44-21.85 9.44-21.85z" class="cls-7"/><path id="path234" d="M217.27 350.42s19.08 3.18 25.76 23.54c0 0-5.72-6.04-10.5-8.27 0 0 6.36 7.13 9.43 21.8-1.93-.72-3.82-1.54-5.66-2.44-2.81-13.84-8.54-21.58-8.54-21.58-.64 8.27-5.72 9.54-5.72 9.54 2.86-15.9-4.77-22.58-4.77-22.58z" class="cls-7"/><path id="path236" d="M242.75 373.66c.18.19.28.29.28.29-6.68-20.36-25.76-23.54-25.76-23.54s16.48 6.88 25.48 23.24z" class="cls-4"/><path id="path238" d="M266.7 338.33v42.62c0 3.9.41 7.27 1.05 10.17-1.44.11-2.9.16-4.37.17-.04-.78-.14-3-.24-5.22-.1 2.22-.2 4.43-.24 5.22-1.47 0-2.93-.06-4.37-.17.64-2.89 1.05-6.26 1.05-10.16v-42.62s-6.68 3.82-11.77 5.72c0 0 12.78-18.31 15.33-34.22 2.56 15.91 15.33 34.22 15.33 34.22-5.09-1.91-11.77-5.72-11.77-5.72z" class="cls-7"/><path id="path240" d="M266.7 380.95c0 13.44 4.88 20.67 7.14 23.31l.18 1.92c-.31.25-.61.5-.9.76-2.59-2.5-9.11-10.93-10.1-32.94v-32.97l3.69 4.99v34.92z" class="cls-4"/><path id="path242" d="M263.13 309.84c2.56 15.91 15.33 34.22 15.33 34.22-.21.89-17.91-12.63-15.33-34.22" class="cls-4"/><path id="path244" d="M254.17 412.12s-9.94 12.51-1.65 21.76c-1.08.55-7.66-2.64-4.72-16.21" class="cls-8"/><path id="path246" d="M269.24 416.26s7.47 10.34-2.54 18.13c-.21-.02 4.68-7.53 1.07-16.35" class="cls-8"/><path id="path248" d="M236.31 385.04s6.92 22.44.6 42.66h-3.41c5.43-17.4 5.01-31.88 2.82-42.66z" class="cls-2"/><path id="path250" d="M253.21 434.7c-1.08-1.22-1.91-2.43-2.54-3.63 7.32 3.52 12.17 9.94 14.76 14.2-.97 1.81-1.28 2.79-1.28 2.79l-1.02 3.26-1.02-3.26s-1.59-5.09-8.91-13.36z" class="cls-2"/><path id="path252" d="m272.11 412.12-1.93 2.79s5.37 2.69 5.84 15.32c2.95-6.64-.26-12.9-3.9-18.11z" class="cls-4"/><path id="path254" d="M291.49 378.9c-11.08 31.22 1.29 48.8 1.29 48.8-6.54-20.96-4.59-37.68-1.29-48.8" class="cls-4"/><path id="path256" d="M309 350.42s-13.86 7.74-4.77 22.58c-2.86-15.9 4.77-22.58 4.77-22.58" class="cls-4"/><path id="path258" d="m275.63 376.62 7.49-2.59-6.46 15.03s-9.49-16.66-1.9-39.64l3.33 6.7s5.28-5.34 10.91-3.31c0 0-11.02 4.78-13.37 23.81" class="cls-7"/><path id="path260" d="m250.45 376.62-7.49-2.59 6.46 15.03s9.49-16.66 1.9-39.64l-3.33 6.7s-5.28-5.34-10.91-3.31c0 0 11.02 4.78 13.37 23.81" class="cls-7"/><path id="polyline262" d="m259.89 419.12-.27 12.77-2.22-.82-.7-11.95" class="cls-8"/></g></g></svg>