<svg xmlns="http://www.w3.org/2000/svg" xmlns:xlink="http://www.w3.org/1999/xlink" id="Layer_1" data-name="Layer 1" version="1.1" width="401.672" height="376.223"><defs id="defs30"><linearGradient id="linear-gradient" x1="394.34" y1="300.98" x2="600.58" y2="300.98" gradientUnits="userSpaceOnUse"><stop offset="0" stop-color="#ffaf28" id="stop4"/><stop offset=".18" stop-color="#ffaf28" stop-opacity=".99" id="stop6"/><stop offset=".31" stop-color="#ffaf28" stop-opacity=".95" id="stop8"/><stop offset=".43" stop-color="#ffaf28" stop-opacity=".89" id="stop10"/><stop offset=".54" stop-color="#ffaf28" stop-opacity=".8" id="stop12"/><stop offset=".64" stop-color="#ffaf28" stop-opacity=".68" id="stop14"/><stop offset=".74" stop-color="#ffaf28" stop-opacity=".54" id="stop16"/><stop offset=".83" stop-color="#ffaf28" stop-opacity=".37" id="stop18"/><stop offset=".92" stop-color="#ffaf28" stop-opacity=".18" id="stop20"/><stop offset="1" stop-color="#ffaf28" stop-opacity="0" id="stop22"/></linearGradient><linearGradient id="linear-gradient-2" x1="321.48" y1="339.85" x2="648.66" y2="339.85" xlink:href="#linear-gradient" gradientTransform="translate(-290.525 -185.995)"/><linearGradient id="linear-gradient-3" x1="471.82" y1="479.81" x2="523.32" y2="479.81" xlink:href="#linear-gradient" gradientTransform="translate(-290.525 -185.995)"/><linearGradient id="linear-gradient-4" x1="254.5" y1="837.54" x2="371.41" y2="837.54" xlink:href="#linear-gradient"/><linearGradient id="linear-gradient-5" x1="140.04" y1="994.64" x2="220.13" y2="994.64" xlink:href="#linear-gradient"/><linearGradient id="linear-gradient-6" x1="672.15" y1="929.73" x2="805.96" y2="929.73" xlink:href="#linear-gradient"/><linearGradient xlink:href="#linear-gradient" id="linearGradient1226" gradientUnits="userSpaceOnUse" x1="394.34" y1="300.98" x2="600.58" y2="300.98" gradientTransform="translate(-290.525 -185.995)"/><style id="style2">.cls-10,.cls-3{fill:#fff}.cls-8{fill:#00008b}.cls-10,.cls-11,.cls-16,.cls-9{stroke-miterlimit:10}.cls-6{fill:#ff24ee}.cls-11,.cls-16,.cls-9{fill:none}.cls-10,.cls-16,.cls-9{stroke:#00008b}.cls-10,.cls-9{stroke-width:2.63px}.cls-11{stroke:#fff;stroke-width:1.19px}.cls-12{fill:#ffaf28}.cls-16{stroke-width:4.63px}</style></defs><path d="M394.285 151.875c-1.82-12.61-13.93-18.49-19.41-21.21-6.34-3.14-13-3.19-18.37-3.16l-14.41-.43-98.62-12.56-16.55 9.11-1.94-.06h-44.39l.93-2.83 7.5-11.25v0c7.91-14.06-11.52-12-11.58-12l-9.88 1.17c-20.42 2.4-35.26 15.32-42.28 22.78l-80.08 6.07c-3.93-.1-16.84.52-24.12 7.15-3.17 2.89-12.2 7.75-13.41 15.27h-.31v13.17a26.28 26.28 0 0 0 2.71 11.16 17.1 17.1 0 0 0 8.4 7.75 17.21 17.21 0 0 0 6.2 6.86l1.73 4.47h27.64a36.21 36.21 0 0 0 60.52 3.95h142.67a36.18 36.18 0 0 0 59.75.09l59-3.14 7.07-3.08a24.46 24.46 0 0 0 11.25-20.86v-18.42z" id="path210" style="fill:#00008b;stroke:#ff24ee;stroke-width:14.72999954px;stroke-linecap:round;stroke-linejoin:round"/><path d="m327.805 4.175-52.05-.49h-135.59l-52.05.49c-21.64 0-21.64 21.61-21.64 21.61v199.31a73.5 73.5 0 0 0 24.57 54.78l19.43 22.93 51.31 51.31a63 63 0 0 0 45.81 18.41h.67a63 63 0 0 0 45.81-18.41l51.31-51.31 19.43-22.93a73.5 73.5 0 0 0 24.57-54.78V25.785s.03-21.61-21.58-21.61z" id="path212" style="fill:#00008b;stroke:#ff24ee;stroke-width:7.36999989px;stroke-miterlimit:10"/><path class="cls-6" d="m298.475 165.255-141 9.35-30.52 4.68-23.1 5.39V82.125a36.87 36.87 0 0 1 36.83-36.83h132.54a36.87 36.87 0 0 1 36.83 36.83v100.05z" id="path214" style="fill:#ff24ee"/><path d="m298.475 165.255-141 9.35-30.52 4.68-23.1 5.39V82.125a36.87 36.87 0 0 1 36.83-36.83h132.54a36.87 36.87 0 0 1 36.83 36.83v100.05z" id="path216" style="fill:url(#linearGradient1226)"/><path class="cls-8" d="M278.285 89.815s12.65-.85 15.61 4.64c0 0 1.26-9.29-10.13-11 0 0 3.8-3.38 12.66-1.27 0 0-8.86-9.7-19.83 1.27-11-11-19.83-1.27-19.83-1.27 8.86-2.11 12.66 1.27 12.66 1.27-11.39 1.68-10.13 11-10.13 11 3-5.49 15.61-4.64 15.61-4.64l-2.95 31.19h10.52z" id="path218" style="fill:#00008b"/><path class="cls-8" d="M137.285 89.815s12.65-.85 15.61 4.64c0 0 1.26-9.29-10.13-11 0 0 3.8-3.38 12.66-1.27 0 0-8.86-9.7-19.83 1.27-11-11-19.83-1.27-19.83-1.27 8.86-2.11 12.66 1.27 12.66 1.27-11.39 1.68-10.13 11-10.13 11 2.95-5.49 15.61-4.64 15.61-4.64l-2.95 31.19h10.52z" id="path220" style="fill:#00008b"/><path class="cls-8" d="M209.615 77.615s23.86-1.61 29.43 8.71c0 0 2.36-17.49-19.11-20.65 0 0 7.15-6.36 23.85-2.41 0 0-16.72-18.26-37.36 2.43-20.69-20.64-37.36-2.34-37.36-2.34 16.68-4 23.85 2.36 23.85 2.36-21.46 3.2-19.06 20.69-19.06 20.69 5.56-10.34 29.41-8.78 29.41-8.78l-5.5 58.83h19.88z" id="path222" style="fill:#00008b"/><path class="cls-8" d="M394.285 151.875c-1.82-12.61-13.93-18.49-19.41-21.21-6.34-3.14-13-3.19-18.37-3.16l-14.41-.43-98.62-12.56-16.55 9.11-1.94-.06h-44.39l.93-2.83 7.5-11.25c7.91-14.06-11.52-12-11.58-12l-9.88 1.17c-20.42 2.4-35.26 15.32-42.28 22.78l-80.08 6.07c-3.93-.1-16.84.52-24.12 7.15-3.17 2.89-12.2 7.75-13.41 15.27h-.31v13.17a26.28 26.28 0 0 0 2.71 11.16 17.1 17.1 0 0 0 8.4 7.75 17.21 17.21 0 0 0 6.2 6.86l1.73 4.47h27.64a36.21 36.21 0 0 0 60.52 3.95h142.67a36.18 36.18 0 0 0 59.75.09l59-3.14 7.07-3.08a24.46 24.46 0 0 0 11.25-20.86v-18.42z" id="path224" style="fill:#00008b"/><path class="cls-9" d="M115.255 181.515h139.61s4-13.17 25-14.49c21-1.32 32.93 0 38.19 14.49l51.42-2.64s6.59-11.85 5.27-25c-1.32-13.15-9.22-13.17-18.44-13.17l-131.71-4h-65.88a77.93 77.93 0 0 1-26.34-2.63l-86.9 6.61s-14.49-1.32-14.49 13.17l9.22 23.71h15.8v-10.56s-5.26-9.22 11.86-9.22c0 0 21.07-2.64 36.88 6.58 15.81 9.22 0 2.64 0 2.64s7.9 5.27 10.54 14.49" id="path226" style="fill:none;stroke:#00008b;stroke-width:2.63000011px;stroke-miterlimit:10"/><path class="cls-10" id="polyline228" style="fill:#fff;stroke:#00008b;stroke-width:2.63000011px;stroke-miterlimit:10" transform="translate(-290.525 -185.995)" d="m520.96 321.58 15.87-8.73 94.66 12.05"/><path class="cls-8" d="M55.975 167.005s40.84 5.27 59.28 14.49v-23.69l-52.69-13.17-18.44 5.27" id="path230" style="fill:#00008b"/><path class="cls-8" id="polyline232" style="fill:#00008b" transform="translate(-290.525 -185.995)" d="M545.39 367.51h63.23v-18.44l-27.01-8.46-38.85 3.19"/><path class="cls-10" d="M142.255 137.385s13.17-21.07 26.34-25l-8 24.36" id="path234" style="fill:#fff;stroke:#00008b;stroke-width:2.63000011px;stroke-miterlimit:10"/><path class="cls-10" d="M132.375 134.095s14.49-19.76 36.88-22.39l-18.44 27.66" id="path236" style="fill:#fff;stroke:#00008b;stroke-width:2.63000011px;stroke-miterlimit:10"/><circle class="cls-8" cx="85.615" cy="174.265" r="23.05" id="circle238" style="fill:#00008b"/><circle class="cls-11" cx="85.615" cy="174.265" r="16" id="circle240" style="fill:none;stroke:#fff;stroke-width:1.19000006px;stroke-miterlimit:10"/><circle class="cls-12" cx="85.615" cy="174.265" r="9.42" id="circle242" style="fill:#ffaf28"/><circle class="cls-3" cx="85.615" cy="174.265" r="5.63" id="circle244" style="fill:#fff"/><circle class="cls-8" cx="287.135" cy="175.585" r="23.05" id="circle246" style="fill:#00008b"/><circle class="cls-11" cx="287.135" cy="175.585" r="16" id="circle248" style="fill:none;stroke:#fff;stroke-width:1.19000006px;stroke-miterlimit:10"/><circle class="cls-12" cx="287.135" cy="175.585" r="9.42" id="circle250" style="fill:#ffaf28"/><path class="cls-3" d="M287.135 181.215a5.63 5.63 0 1 1 5.63-5.63 5.63 5.63 0 0 1-5.63 5.63z" id="path252" style="fill:#fff"/><path d="M111.775 174.265a24.91 24.91 0 0 1 3.48 7.25h139.61s4-13.17 25-14.49c21-1.32 32.93 0 38.19 14.49l51.42-2.64s6.59-11.85 5.27-25c-1.32-13.15-9.22-13.17-18.44-13.17l-131.71-4h-65.88a77.93 77.93 0 0 1-26.34-2.63l-86.9 6.61s-14.49-1.32-14.49 13.17l9.22 23.71h15.8v-10.56s-5.26-9.22 11.86-9.22c0 0 15.42-1.93 29.77 3.28z" id="path254" style="fill:#ff24ee;stroke:#00008b;stroke-width:2.63000011px;stroke-miterlimit:10"/><path d="M358.135 146.605h-325.5a14.44 14.44 0 0 0-1.68 7.25l2.82 7.24h22.45c1.44-1.79 4.7-3.29 11.61-3.29 0 0 15.42-1.92 29.77 3.29h234.19z" id="path256" style="fill:url(#linear-gradient-2);stroke:#ffaf28;stroke-width:2.29999995px;stroke-miterlimit:10"/><path class="cls-9" id="rect258" style="fill:none;stroke:#00008b;stroke-width:2.63000011px;stroke-miterlimit:10" d="M200.205 141.335h18.44v5.27h-18.44z"/><path class="cls-9" d="M222.265 136.725c-3.63 15.81-16.13 38.2-16.13 38.2h-76.4c-2.63-1.32-2.63-9.22-2.63-9.22l2.55-31.4" id="path260" style="fill:none;stroke:#00008b;stroke-width:2.63000011px;stroke-miterlimit:10"/><path class="cls-9" d="M111.775 174.265a24.91 24.91 0 0 1 3.48 7.25h139.61s4-13.17 25-14.49c21-1.32 32.93 0 38.19 14.49l51.42-2.64s6.59-11.85 5.27-25c-1.32-13.15-9.22-13.17-18.44-13.17l-131.71-4h-65.88a77.93 77.93 0 0 1-26.34-2.63l-86.9 6.61s-14.49-1.32-14.49 13.17l9.22 23.71h15.8v-10.56s-5.26-9.22 11.86-9.22c0 0 15.42-1.93 29.77 3.28z" id="path262" style="fill:none;stroke:#00008b;stroke-width:2.63000011px;stroke-miterlimit:10"/><path class="cls-10" d="M41.295 176.245v-15.81h-15.82a13.09 13.09 0 0 0 1.32 5.27c1.31 2.64 7.9 2.64 7.9 5.27 0 2.63 1.33 5.27 6.6 5.27z" id="path264" style="fill:#fff;stroke:#00008b;stroke-width:2.63000011px;stroke-miterlimit:10"/><path class="cls-10" d="M367.475 163.735v15.8h4a11.34 11.34 0 0 0 6.54-10.53v-5.26z" id="path266" style="fill:#fff;stroke:#00008b;stroke-width:2.63000011px;stroke-miterlimit:10"/><path class="cls-3" d="M114.385 247.005c-.42 1.76-1.13 2.47-2.44 2.47h-6.13v-11.2l3.86-2.37-3.86-1.75v-26.1c0-2.12.53-2.29 1.26-2.29h.47v-2h-10.35v2h.46c.67 0 1.26.18 1.26 2.29v26.06l-3.85 1.68 3.85 2.39v14.23c0 1.08-.22 2.37-1.26 2.37h-.46v2h13.58c1.83 0 2.7.12 3.11.42l.59.45 2-10.43-2-.66z" id="path268" style="fill:#fff"/><path class="cls-3" d="M133.905 203.805c-6 0-8.83 6-8.91 18.87v-.11l-4.11 1.87 4.22 2.6c.42 12.35 3 17.27 8.85 17.27 6.41 0 8.91-5.94 8.91-21.17-.05-13.19-2.88-19.33-8.96-19.33zm.67 20.63-3.46-1.57c0-9.7.83-13.67 2.79-13.67 1.45 0 2.79 1.7 2.79 14 0 10.64-.89 15.6-2.79 15.6-1.72 0-2.59-3.81-2.76-12.25z" id="path270" style="fill:#fff"/><path class="cls-3" d="M200.825 240.555a94.15 94.15 0 0 1-2.66-15.35c2.48-1.64 3.54-4.63 3.54-9.9 0-7.53-3.45-11.5-10-11.5-2.52 0-5.56.12-7.07.27l-.41.05v1.65h.46c.55 0 1 .13 1 1.74v15.16l-.05-.11-4.16 1.87 4.16 2.56v13.25c0 1.64-.55 1.64-1 1.64h-.46v1.7h8.71v-1.7h-.41c-.6 0-1-.08-1-1.64v-13h1.56a148.85 148.85 0 0 0 2.26 16l.09.36h7.14v-1.7h-.47c-.17-.02-.85-.02-1.23-1.35zm-5-25.14c0 6-2 6.71-3.46 6.71-.21 0-.54 0-.81-.05v-13.07a7.34 7.34 0 0 1 .81 0c1.57 0 3.43 1.66 3.43 6.41z" id="path272" style="fill:#fff"/><path class="cls-3" d="M233.625 203.805a62.94 62.94 0 0 0-7.1.36l-.64.07v1.71h.47c.31 0 1 0 1 1.35v15.39l-3.88 1.75 3.85 2.37v14c0 1.24-.7 1.24-1 1.24h-.47v1.65l.41.05a59.18 59.18 0 0 0 7 .33c8.06 0 11.35-6.14 11.35-21.21.06-13.72-3.04-19.06-10.99-19.06zm5 19.06c0 10.53-1.54 15.87-4.57 15.87h-.86v-29.57h1c2.88-.02 4.41 4.72 4.41 13.7z" id="path274" style="fill:#fff"/><path class="cls-3" d="M264.855 209.805c.75 0 1 .29 1.44 1.56l.14.42 1.81-.52-1.61-7.8-.58.42a5.56 5.56 0 0 1-2.52.36h-11.25v1.7h.46c.34 0 1 0 1 1.57v15.11l-4 1.81 4 2.45v13.53c0 1.63-.72 1.63-1 1.63h-.46v1.7h11.65a4.57 4.57 0 0 1 2.11.35l.59.45 1.61-7.82-1.72-.52-.16.38c-.54 1.23-.79 1.55-1.82 1.55h-5v-10.6h4c1 0 1.42.37 1.42 1.41v.47h1.79v-9.41h-1.79v.47a1.24 1.24 0 0 1-1.42 1.41h-4v-12.08z" id="path276" style="fill:#fff"/><path class="cls-3" d="M292.045 240.555a95.16 95.16 0 0 1-2.65-15.35c2.48-1.64 3.54-4.63 3.54-9.9 0-7.53-3.45-11.5-10-11.5-2.52 0-5.56.12-7.07.27l-.41.05v1.65h.46c.54 0 1 .13 1 1.74v15.31l-.12-.26-4.11 1.87 4.23 2.61v13.2c0 1.64-.56 1.64-1 1.64h-.44v1.7h8.71v-1.7h-.47c-.59 0-1-.08-1-1.64v-13h1.55a148.75 148.75 0 0 0 2.27 16l.09.36h7.13v-1.7h-.46c-.18-.02-.82-.02-1.25-1.35zm-5-25.14c0 6-2 6.71-3.46 6.71-.21 0-.54 0-.81-.05v-13.07a7.19 7.19 0 0 1 .81 0c1.57 0 3.44 1.66 3.44 6.41z" id="path278" style="fill:#fff"/><path class="cls-3" d="m320.475 237.115-4-1.86a59.58 59.58 0 0 0-3.38-6.81c-1.26-2.25-1.87-3.42-3.43-6.52a16.87 16.87 0 0 1-1.93-6.8c0-2.94 1.16-4.37 3.54-4.37 3.09 0 3.68 1 4.63 3.08l.17.38 1.62-.56-1.29-9.55-.52.16a4.42 4.42 0 0 1-1.22.2 9.52 9.52 0 0 1-2.07-.31 10.19 10.19 0 0 0-2.37-.35c-5.9 0-9.57 4.39-9.57 11.47 0 5.07 1.53 9.57 5.67 16.61.63 1.09 1.24 2.13 1.79 3.15l-3.25 1.48 5.37 3.3v-.33a16.26 16.26 0 0 1 1.19 5.86c0 5-2.07 5.64-4.09 5.64-3 0-4.45-1.19-5.22-4.26l-.11-.46-1.7.45 1.22 10.9.56-.23a3.16 3.16 0 0 1 1.12-.19 9.9 9.9 0 0 1 2.21.37 12.81 12.81 0 0 0 3 .45c6.26 0 10-4.71 10-12.59a27.12 27.12 0 0 0-.74-6.52z" id="path280" style="fill:#fff"/><path class="cls-3" d="m220.605 224.435-3.8-1.72v-15.64c0-1.38.58-1.58 1.22-1.58h.45v-1.69h-9.22v1.69h.46c.57 0 1.22.18 1.22 1.58v15.51l-4.08 1.85 4.08 2.51v13c0 1-.47 1.63-1.22 1.63h-.46v1.7h9.22v-1.7h-.46c-1 0-1.22-.89-1.22-1.63v-13.2z" id="path282" style="fill:#fff"/><path class="cls-3" d="m174.235 222.565-.06.12 2.05-15.68c.17-1.36.49-1.48.86-1.48h.47v-1.72h-8.41v1.69h.46c.7 0 .81.21.81.81a35 35 0 0 1-.1 1.94l-2.15 21.88-2.34-13.52h-4.8l-2.3 13.51-2.25-22.25-.15-1.8c0-.23 0-.57.86-.57h.46v-1.69h-8.56v1.69h.47c.59 0 .74.24.91 1.48l2 15.69-3.89 1.77 4.48 2.76 2.07 16.11h6.25l2-12.38 2.1 12.38h6l2.07-15.93 4.78-2.94z" id="path284" style="fill:#fff"/><path class="cls-6" d="M158.665 259.295h96.54l18.9 19.71-48.57 48.58a26.51 26.51 0 0 1-37.2 0l-48.57-48.58z" id="path286" style="fill:#ff24ee"/><circle cx="207.045" cy="293.815" r="25.75" id="circle288" style="fill:url(#linear-gradient-3);stroke:#00008b;stroke-width:7.84000015px;stroke-miterlimit:10"/><path class="cls-16" d="M181.585 294.105s22.56 27.77 51.21 0" id="path290" style="fill:none;stroke:#00008b;stroke-width:4.63000011px;stroke-miterlimit:10"/><path class="cls-16" id="line292" style="fill:none;stroke:#00008b;stroke-width:4.63000011px;stroke-miterlimit:10" d="M207.625 320.135v-52.07"/><path class="cls-16" d="M195.755 317.005s12.86-33.22-9.62-38.16" id="path294" style="fill:none;stroke:#00008b;stroke-width:4.63000011px;stroke-miterlimit:10"/><path class="cls-16" d="M220.645 317.005s-12.86-33.22 9.62-38.16" id="path296" style="fill:none;stroke:#00008b;stroke-width:4.63000011px;stroke-miterlimit:10"/><path class="cls-3" d="M165.835 291.175s-3.79-15.93 11.37-23.51c0 0-30.33 0-11.37 23.51z" id="path298" style="fill:#fff"/><path class="cls-3" d="M248.035 291.175s3.79-15.93-11.37-23.51c0 0 30.33 0 11.37 23.51z" id="path300" style="fill:#fff"/><path class="cls-3" d="m122.615 62.935 16.68 3.8 27.3-12.14s-30.33.76-43.98 8.34z" id="path302" style="fill:#fff"/><path class="cls-3" d="m291.255 62.935-16.68 3.8-27.3-12.14s30.33.76 43.98 8.34z" id="path304" style="fill:#fff"/><path class="cls-12" id="polygon306" style="fill:#ffaf28" transform="translate(-290.525 -185.995)" d="m402.28 206.59.52-1.31h-4.83l.57 1.31v11.58l-.57 1.29h9.89l.75-2.76-2.07.27h-4.17l-.09-.05z"/><path class="cls-12" d="m128.135 19.285-1.78 1v12.12l1.78 1h6.24l1.75-1v-12.09l-1.75-1zm1.95 11.64v-9.08l.09-.05h2.1l.09.05v9.08l-.09.05h-2.1z" id="path308" style="fill:#ffaf28"/><path class="cls-12" id="polygon310" style="fill:#ffaf28" transform="translate(-290.525 -185.995)" d="M445.69 208.24v-1.93l-1.76-1.03h-6.23l-1.82 1.03v5.91l1.82 1.05h4.16l.09.05v3.6l-.09.05h-2.13l-.09-.05v-.41l.58-1.29h-4.87l.53 1.28v1.93l1.82 1.03h6.23l1.76-1.03v-6.62l-1.76-1.03h-4.2l-.09-.05v-2.89l.09-.05h2.13l.09.05v.42l-.52 1.28h4.88z"/><path class="cls-12" d="m188.385 20.465.47-1.18h-5.19l.47 1.18-3.52 11.29-1 1.71h4.86l-.36-1 .69-2.46.21-.12h2.46l.21.13.72 2.44-.42 1h5l-1-1.73zm-2.13 5 .68 1.95h-1.36z" id="path312" style="fill:#ffaf28"/><path class="cls-12" id="polygon314" style="fill:#ffaf28" transform="translate(-290.525 -185.995)" d="m497.81 205.28.57 1.31v4.99l-3.16-6.3h-4.15l.57 1.31v11.58l-.57 1.29h4.85l-.57-1.29v-5.74l3.16 7.03h4.18l-.57-1.29v-11.58l.57-1.31z"/><path class="cls-12" id="polygon316" style="fill:#ffaf28" transform="translate(-290.525 -185.995)" d="M521.21 208.23v-1.92l-1.75-1.03h-6.23l-1.79 1.03v12.12l1.79 1.03h6.23l1.75-1.03v-5.47l.57-1.32h-5.95l.93 2.5h.75v2.76l-.09.05h-2.13l-.08-.05v-9.1l.08-.05h2.13l.09.05v.43l-.63 1.29h4.91z"/><path class="cls-12" id="polygon318" style="fill:#ffaf28" transform="translate(-290.525 -185.995)" d="m540.82 208.02-.75-2.74h-9.89l.57 1.29v11.58l-.56 1.31h9.88l.75-2.78-2.07.27h-4.2l-.09-.05v-3.6l.09-.05h1.08l1.88.28v-3.05l-1.88.28h-1.08l-.09-.05v-2.91l.09-.05h4.2z"/><path class="cls-12" id="polygon320" style="fill:#ffaf28" transform="translate(-290.525 -185.995)" d="m553.01 206.59.52-1.31h-4.82l.57 1.31v11.58l-.58 1.29h9.89l.75-2.76-2.06.27h-4.18l-.09-.05z"/><path class="cls-12" id="polygon322" style="fill:#ffaf28" transform="translate(-290.525 -185.995)" d="m577.87 208.02-.76-2.74h-9.88l.57 1.29v11.58l-.57 1.31h9.89l.75-2.78-2.07.27h-4.2l-.09-.05v-3.6l.09-.05h1.08l1.88.28v-3.05l-1.88.28h-1.08l-.09-.05v-2.91l.09-.05h4.2z"/><path class="cls-12" id="polygon324" style="fill:#ffaf28" transform="translate(-290.525 -185.995)" d="m589.97 207.84.09-.05h2.12l.09.05v.42l-.52 1.28h4.88l-.62-1.3v-1.93l-1.76-1.03h-6.23l-1.82 1.03v5.91l1.82 1.05h4.16l.09.05v3.6l-.09.05h-2.12l-.09-.05v-.41l.57-1.29h-4.87l.53 1.28v1.93l1.82 1.03h6.23l1.76-1.03v-6.62l-1.76-1.03h-4.19l-.09-.05z"/></svg>