<svg xmlns="http://www.w3.org/2000/svg" id="Layer_1" data-name="Layer 1" version="1.1" width="266.46" height="342.9"><defs id="defs4"><style id="style2">.cls-1{fill:#6b6b6b}.cls-2{fill:#010101}.cls-4{fill:#f15d24}.cls-5{fill:none;stroke:#010101}.cls-5,.cls-9{stroke-miterlimit:10}.cls-5{stroke-width:13.15px}.cls-6{fill:#a09f9f}.cls-9{fill:#fff;stroke:#231f20}.cls-8{fill:#231f20}.cls-9{stroke-width:.99px}</style></defs><path class="cls-1" id="rect6" style="fill:#6b6b6b" d="M123.6 25.65h15.29v11.83H123.6z"/><path class="cls-1" id="rect8" style="fill:#6b6b6b" d="M167.98 12.83h11.34v17.75h-11.34z"/><path class="cls-1" id="rect10" style="fill:#6b6b6b" d="M242.44 56.71h20.71v11.83h-20.71z"/><path class="cls-1" id="rect12" style="fill:#6b6b6b" d="M5.06 40.42h139.39v80.21H5.06z"/><path class="cls-1" id="polyline14" style="fill:#6b6b6b" transform="translate(-119.98 -328.77)" d="m121.26 353.6 18.21-18.92 8.04-3.31 3.78-2.6h5.2l4.73 2.13h4.97l10.88-1.9h8.75l5.91 1.42 10.64.24 7.09.24 17.03 11.82 2.13 6.15 3.07 7.57 7.8 6.38 4.97 8.04.94 11.58H121.97"/><path class="cls-1" id="polyline16" style="fill:#6b6b6b" transform="translate(-119.98 -328.77)" d="m282.84 358.01 10.08-5.47 1.76-13.16 16-.21 11.17 27.17 47.78 30.47v42.3l-59.17-1.54-32-65.31"/><path class="cls-1" d="M256.02 157.97a133.23 133.23 0 1 0 10.44 51.7 132.49 132.49 0 0 0-10.44-51.7z" id="path18" style="fill:#6b6b6b"/><path class="cls-1" id="polygon20" style="fill:#6b6b6b" transform="translate(-119.98 -328.77)" d="M333.28 359.73v-11.59h-17.24v-13.47h-24.72v17.1h-24.57V359h-29.21l-5.13-5.13-6.97 6.97 8.02 8.02h43.15v-7.23h24.57v-17.09h5V358h17.24v11.6h21.55v28.58h31.56v137.03H131.29V377.74h-9.86v167.33H386.4V388.32h-31.56v-28.59z"/><circle class="cls-2" cx="133.6" cy="209.67" r="127.88" id="circle22" style="fill:#010101"/><path d="M133.6 311.23a101.59 101.59 0 1 1 71.83-29.75 101 101 0 0 1-71.83 29.75z" id="path24" style="fill:#d63f27"/><path class="cls-4" d="M133.6 285.01c-27.13 0-52.64-9.2-71.83-25.91-19.19-16.71-29.75-38.87-29.75-62.55S42.59 150.7 61.77 134c19.18-16.7 44.7-25.91 71.83-25.91 27.13 0 52.65 9.2 71.83 25.91s29.76 38.92 29.76 62.55c0 23.63-10.57 45.84-29.76 62.55-19.19 16.71-44.69 25.91-71.83 25.91z" id="path26" style="fill:#f15d24"/><path class="cls-2" id="polygon28" style="fill:#010101" transform="translate(-119.98 -328.77)" d="m381.31 393.25-4.13-.14-.34-4h-.48l-.28 2h-.55l-.55 1.07h-2.31l-.45.45h-1.17v-.5h-2.32l-.5-.5h-1.28l-1.13 1.13v.76h-2.83v12.19h-1.79v-5.78h-.69v-2.14l-.2-.2v-2.69h-.42v-.55h-.62v-.83l-1.72-2.69h-1.72l-2.55 3.17v1.11h-.41v2.2l-.35.34v2.41h-.75v.83h-.56v8.13h-.55v-4.75h-.75l-.14-.42h-2.14l-.27-.69.14-34.98h-1.18v-3.52l-17.97-.2-.07 3.99h-.76l-.07-14.39-7.44-.07v-1.66h-.41l-1.24 1.86h-.76l-.34-2.06h-.34l-.56 2.41h-3.03l-.34 28.86h-1.45v-.21h-.48v.28h-1.38v.41h-.34v-12.54l-.97-.2-.2-6.89-1.04-.48-.13-13.98-1.66-.49-.07-6.4-.55-.83-1.72-.27-.34-.49h-4.34l-.21.56-.75.13-.21-.34h-.35l-.55.48-.13 4.62-.28.06-.62 2.62-1.17.21v1.51h-.35l-.07 13.16-.82.82h-1.52l-1.1-.27v-4.55h-2.2l-.62-.48h-1.38l-.28.48-2.41.07-.13-.48h-.62l-.21.55-10.68.14.07 6.82h-3.99v-.35h-.42v-.48h-3.51v.9h-4.34v.82h-.62v-.41h-1.72v-3.86h-4.2v-1.65l-1.17-1.03-2.2 1.17v1.44l-11.37.14-.07 29.27h-1.58v.56h-.69v-.56h-1.79l-.9 2.42h-2.2l-1.93 3.85H228v-.34h-.55v.41l-4.63.07v6.06h-2.54v-24.59l-5.99-1.17-4.2.28-5.1.82v3.1h-10.6v16.67h-5.1v-2.34l-4.41.07v-1.1h-10.95v1.24h-4.48V400h-.96l-1.65 1.37h-2v-22.79h-6.41l-.07.27h-.34l-.21-.34-6.68.07v.34h-.34l-.07-.41h-6.82l.07 25.62-.41-.55h-3.24l-.35.14v-8.68l-.48-.69h-8.61v12.4h-5.51l.12 63.7h255.97v-67.22h-.15z"/><path class="cls-2" transform="scale(-1)" id="rect30" style="fill:#010101" d="M-261.48-211.37H-5.5v69.69h-255.98z"/><path class="cls-5" id="line32" style="fill:none;stroke:#010101;stroke-width:13.14999962px;stroke-miterlimit:10" d="M133.28 246.25v80.84"/><path class="cls-5" d="M91.85 208.08s10.52 59.18-44.71 75" id="path34" style="fill:none;stroke:#010101;stroke-width:13.14999962px;stroke-miterlimit:10"/><path class="cls-5" d="M175.14 208.08s-10.52 59.18 44.71 75" id="path36" style="fill:none;stroke:#010101;stroke-width:13.14999962px;stroke-miterlimit:10"/><path class="cls-6" id="rect38" style="fill:#a09f9f" d="M32.35 147.39H234.2v50.48H32.35z"/><path class="cls-1" id="rect40" style="fill:#6b6b6b" d="M32.35 191.8H234.2v6.07H32.35z"/><path id="polygon42" style="fill:#fff;stroke:#231f20;stroke-width:4.92999983px;stroke-miterlimit:10" transform="translate(-119.98 -328.77)" d="m281.63 503.26-.1-.11.1-.12-.79-.7-19.42-22.85 16.68-22.99-23.67-1.97-20.71 22.68 5.91 5.09 17.86 20.69-16.98 19.99-.67.59.09.09-.3.35 1.02.49 17.33 20.08-19.6 19.24 5.34 4.85-9.21 15.43 6.1 14.11-7.38 14.11 15.07-15.08-4.49-10.26 8.25-10.69 14.61 13.15 8.25 7.48-13.29-28.54 20.22-23.43-17.88-21.45 17.33-20.07z"/><path class="cls-8" id="rect44" style="fill:#231f20" d="M28.93 112.93h212.03v37H28.93z"/><path class="cls-1" id="rect46" style="fill:#6b6b6b" d="M207.3 24.3h4.4v69.86h-4.4z"/><path class="cls-1" id="rect48" style="fill:#6b6b6b" d="M227.68 36.31h4.4v59.61h-4.4z"/><path class="cls-1" id="rect50" style="fill:#6b6b6b" d="M150.13 26.55h3.13v37.1h-3.13z"/><path class="cls-1" id="rect52" style="fill:#6b6b6b" d="M135.89 31.81h3.13v40.86h-3.13z"/><path class="cls-1" id="rect54" style="fill:#6b6b6b" d="M100.92 64.11h4.44v24.16h-4.44z"/><path class="cls-1" id="rect56" style="fill:#6b6b6b" d="M70.9 54.62h4.2v30.3h-4.2z"/><path class="cls-1" id="rect58" style="fill:#6b6b6b" d="M44.71 67.56h3.94v31.02h-3.94z"/><path class="cls-8" id="polyline60" style="fill:#231f20" transform="translate(-119.98 -328.77)" d="m229.25 474.72-5.91 14.79 10.19 12.17-8.22 14.79 1.32-14.14-12.83-13.15 5.92-16.43"/><path class="cls-8" id="polyline62" style="fill:#231f20" transform="translate(-119.98 -328.77)" d="m294.04 476.38-6.9 13.31 10.85 12.33-4.93 13.8 12.33 7.4-5.92-9.86 9.37-15.29-9.86-9.86 8.87-12.33"/><g id="_03yP8M" data-name="03yP8M" transform="translate(-119.98 -328.77)"><path class="cls-1" d="M175.31 350.35c.72 3.89 1.41 7.68 2.1 11.4h2.64l.57-3.16h.19l.56 3.18H184l2.12-11.58h-2.45l-1.2 5.81h-.2l-.91-5.74H180l-.89 5.77h-.19l-1.24-5.84h-4.88l-1.23 3.16c-.2-.51-.36-.86-.49-1.22-.77-2.06-.77-2.06-3-1.95 0 0-.09.06-.2.12a36.25 36.25 0 0 1 2.15 5.56 36.13 36.13 0 0 1 .37 5.89h2.6c-.91-4.13.47-7.75 2.31-11.4zm27.29 11.34h4.52c.64 0 1.95-1.43 2-2.07v-7.31c0-.57-1.26-2.1-1.81-2.11h-4.67zm-56.93 1v-11.52h-2.4v4.51h-1.62v-4.52h-2.36v11.53h2.38v-3.77c0-.57.19-.8.75-.74l.9.06v4.48zm8-5.75v-3.61a1.63 1.63 0 0 0-.27-.92 2.76 2.76 0 0 0-2.88-1.35 6.85 6.85 0 0 1-1.11 0 2.84 2.84 0 0 0-2.24 2.27v7.13a1.46 1.46 0 0 0 .16.78 3.84 3.84 0 0 0 5.7.54 1.91 1.91 0 0 0 .67-1.61c-.04-1.04.01-2.12.01-3.17zm39.45 0v-3.51a1.92 1.92 0 0 0-.27-1 2.71 2.71 0 0 0-2.86-1.38 8 8 0 0 1-1.2 0 3 3 0 0 0-2.18 2.15v7.4a1.13 1.13 0 0 0 .2.67c.77.89 1.56 1.75 2.94 1.45a11 11 0 0 1 1.29 0 1.62 1.62 0 0 0 .74-.27 2.94 2.94 0 0 0 1.37-2.89 17.19 17.19 0 0 1 .01-2.56zm8 0v-3.7a1.54 1.54 0 0 0-.26-.84c-.73-.91-1.55-1.66-2.87-1.37a6.85 6.85 0 0 1-1.11 0 2.82 2.82 0 0 0-2.27 2.24v7.22a1.39 1.39 0 0 0 .2.76c.76.91 1.56 1.75 2.94 1.45.36-.08.75.05 1.11 0a2.94 2.94 0 0 0 1.11-.46 2.64 2.64 0 0 0 1.18-2.69 20.32 20.32 0 0 1-.03-2.55zm-45.94 5.88h5.65v-2.39h-2.37c-.76 0-.89-.23-.87-.9v-8.2h-2.42zm12.34-2.39h-2.32c-.73 0-1-.18-.95-.92v-7.4c0-.26 0-.52-.06-.77h-2.32v11.46h5.64z" id="path64" style="fill:#6b6b6b"/><path class="cls-6" d="M175.31 350.35c-1.84 3.65-3.22 7.27-2.35 11.41h-2.52a36.13 36.13 0 0 0-.37-5.89 36.25 36.25 0 0 0-2.15-5.56c.11-.06.16-.12.2-.12 2.19-.11 2.19-.11 3 1.95.13.36.29.71.49 1.22l1.23-3.16h4.92L179 356h.19l.89-5.77h1.32l.91 5.74h.2l1.21-5.79h2.45L184 361.79h-2.64l-.56-3.18h-.19l-.57 3.16h-2.64c-.68-3.77-1.4-7.53-2.09-11.42z" id="path66" style="fill:#a09f9f"/><path class="cls-6" d="M209.08 352.3c0-.57-1.26-2.1-1.81-2.11h-4.67v11.52h4.52c.64 0 1.95-1.43 2-2.07-.03-2.47-.03-4.9-.04-7.34zm-2.5 6.9H205V354c0-1.46 0-1.46 1.57-1.31z" id="path68" style="fill:#a09f9f"/><path class="cls-6" d="M145.67 362.72h-2.36v-4.48l-.9-.06c-.56-.06-.76.17-.75.74v3.77h-2.38v-11.53h2.36v4.52h1.62v-4.51h2.4z" id="path70" style="fill:#a09f9f"/><path class="cls-6" d="M153.71 357c0 1.08-.05 2.16 0 3.24a1.91 1.91 0 0 1-.67 1.61 3.84 3.84 0 0 1-5.7-.54 1.46 1.46 0 0 1-.16-.78v-7.13a2.84 2.84 0 0 1 2.24-2.27 6.85 6.85 0 0 0 1.11 0 2.76 2.76 0 0 1 2.88 1.35 1.63 1.63 0 0 1 .27.92c.05 1.17.03 2.37.03 3.6zm-2.5-3.31c-1.57-.26-1.57-.26-1.58 1.21v4.1c0 1.42.09 1.48 1.58 1.14z" id="path72" style="fill:#a09f9f"/><path class="cls-6" d="M193.16 357a17.19 17.19 0 0 0 0 2.59 2.94 2.94 0 0 1-1.37 2.89 1.62 1.62 0 0 1-.74.27 11 11 0 0 0-1.29 0c-1.38.3-2.17-.56-2.94-1.45a1.13 1.13 0 0 1-.2-.67v-7.4a3 3 0 0 1 2.18-2.15 8 8 0 0 0 1.2 0 2.71 2.71 0 0 1 2.86 1.38 1.92 1.92 0 0 1 .27 1v1.76zm-2.51-3.37c-1.57-.18-1.57-.18-1.57 1.29V359c0 1.47 0 1.47 1.57 1.2z" id="path74" style="fill:#a09f9f"/><path class="cls-6" d="M201.12 357a20.32 20.32 0 0 0 0 2.59 2.64 2.64 0 0 1-1.18 2.69 2.94 2.94 0 0 1-1.11.46c-.36.08-.75-.05-1.11 0-1.38.3-2.18-.54-2.94-1.45a1.39 1.39 0 0 1-.2-.76v-7.22a2.82 2.82 0 0 1 2.27-2.24 6.85 6.85 0 0 0 1.11 0c1.32-.29 2.14.46 2.87 1.37a1.54 1.54 0 0 1 .26.84v3.7zm-2.48-3.37c-1.59-.19-1.59-.19-1.59 1.28v4.16c0 1.38.19 1.49 1.59 1.07z" id="path76" style="fill:#a09f9f"/><path class="cls-6" d="M155.18 362.88V351.4h2.42v8.2c0 .67.16.95.87.9.71-.05 1.53 0 2.37 0v2.39z" id="path78" style="fill:#a09f9f"/><path class="cls-6" d="M167.52 360.49v2.38h-5.64v-11.46h2.32c0 .25.06.51.06.77v7.4c0 .74.23 1 .95.92.72-.08 1.46-.01 2.31-.01z" id="path80" style="fill:#a09f9f"/></g><path class="cls-9" id="polygon83" style="fill:#fff;stroke:#231f20;stroke-width:.99000001px;stroke-miterlimit:10" transform="translate(-119.98 -328.77)" d="M138.34 449.47v17.52h13.57l2.01-6.25h-6.84v-5.01h6.84v-6.26h-6.84v-4.6h6.84v-6.26h-15.58v6.26z"/><path class="cls-9" id="polygon85" style="fill:#fff;stroke:#231f20;stroke-width:.99000001px;stroke-miterlimit:10" transform="translate(-119.98 -328.77)" d="m230.96 438.61-8.74 6.84v21.61h8.74v-11.61h3.53v11.61h8.74v-28.45h-8.74v11.08h-3.53z"/><path class="cls-9" id="polygon87" style="fill:#fff;stroke:#231f20;stroke-width:.99000001px;stroke-miterlimit:10" transform="translate(-119.98 -328.77)" d="M277.99 438.61h-8.74v20.81l8.56 7.48v.21h12.28v-.05h.17v-28.45h-8.74v22.74h-3.53z"/><path class="cls-9" d="m45.2 109.84-8.74 4v24.43h8.74v-11.59h3.53v11.61h8.74v-28.45zm0 11.08v-4.93h3.53v4.93z" id="path89" style="fill:#fff;stroke:#231f20;stroke-width:.99000001px;stroke-miterlimit:10"/><path class="cls-9" d="m181.89 110.14-8.75 4v24.44h8.75v-11.6h3.52v11.62h8.75v-28.46zm0 11.08v-4.93h3.52v4.94z" id="path91" style="fill:#fff;stroke:#231f20;stroke-width:.99000001px;stroke-miterlimit:10"/><path class="cls-9" d="M146.72 109.84h-12.27l-8.74 4v24.43h12.31l3.66-1.68 3.31 4.48h11.45l-9.68-9.69zm-12.27 22.31v-16.16h3.57v16.16z" id="path93" style="fill:#fff;stroke:#231f20;stroke-width:.99000001px;stroke-miterlimit:10"/><path class="cls-9" d="M68.74 109.84h-8.72v28.45h8.75v-11.61h3.52v11.61h8.73v-10.47l-4.37-3.75 4.37-4.46v-5.75l-8.75-4zm3.52 11.08h-3.52v-4.93h3.52z" id="path95" style="fill:#fff;stroke:#231f20;stroke-width:.99000001px;stroke-miterlimit:10"/><path class="cls-9" id="polygon97" style="fill:#fff;stroke:#231f20;stroke-width:.99000001px;stroke-miterlimit:10" transform="translate(-119.98 -328.77)" d="M203.28 444.87h3.82v22.41h8.74v-22.41h2.82l8.04-6.26h-23.42z"/><path class="cls-9" id="polygon99" style="fill:#fff;stroke:#231f20;stroke-width:.99000001px;stroke-miterlimit:10" transform="translate(-119.98 -328.77)" d="M316.52 438.61v28.45h8.74v-5.79l4.79 5.78h5.32v-4.65l-7.12-9.42 7.12-9.42v-4.66h-5.32l-4.79 5.79v-6.08z"/><path class="cls-9" id="polygon101" style="fill:#fff;stroke:#231f20;stroke-width:.99000001px;stroke-miterlimit:10" transform="translate(-119.98 -328.77)" d="M338.84 438.9v.01h-1.13V467.29h13.57l2.01-6.25h-6.84v-5.01h6.84v-6.26h-6.84v-4.6h6.84v-6.26H338.89v-.01z"/><path class="cls-9" id="polygon103" style="fill:#fff;stroke:#231f20;stroke-width:.99000001px;stroke-miterlimit:10" transform="translate(-119.98 -328.77)" d="M371.38 449.87h-6.84v-4.61h6.84v-6.25h-11.56l-3.93 6.11h-.09v11.01h6.9v5.01h-6.3l-2.01 6.25h14.98l1.98-6.14h.09v-5.21h-.06z"/><g id="SlHar6-3" data-name="SlHar6" transform="translate(-119.98 -328.77)"><path class="cls-4" d="M150.51 429.93a31.64 31.64 0 0 1-3.84-2.66c-1.6-1.15-1.59-1.18-3.19 0-1.29.91-2.57 1.85-3.89 2.81-.17-.33 0-.57.08-.8.53-1.65 1.06-3.3 1.63-4.94a.88.88 0 0 0-.37-1.17c-1.48-1-2.92-2.13-4.38-3.2-.13-.1-.25-.22-.53-.47h2.33c1.32 0 2.65 0 4-.07a.7.7 0 0 0 .75-.59c.61-2 1.26-3.89 2-6 .55 1.66 1.07 3.13 1.52 4.62.61 2 .59 2.05 2.75 2.05h4.84l-2.44 1.79c-.89.66-1.76 1.33-2.66 2a.72.72 0 0 0-.3 1c.57 1.67 1.1 3.34 1.63 5 .07.23.11.47.16.71z" id="path217" style="fill:#f15d24"/><path class="cls-4" d="m150.53 429.91.06.08-.08-.06z" id="path219" style="fill:#f15d24"/></g></svg>