<svg xmlns="http://www.w3.org/2000/svg" id="Layer_1" width="392.71" height="329.6" data-name="Layer 1" viewBox="0 0 392.71 329.6"><defs id="defs4"><style id="style2">.cls-1{fill:#003022}.cls-3{fill:#00c765}.cls-4{fill:#e0e2c1}.cls-6{fill:#d2ac4f}</style></defs><g id="g154" transform="translate(-58.15 -207)"><g id="g10"><path id="path6" d="M225.53 533.55c-14.77 0-29.28-2.62-43.13-7.8-13.36-4.99-25.74-12.22-36.8-21.47-10.91-9.14-20.22-20.01-27.67-32.3-7.57-12.49-13.01-26.13-16.18-40.54l-6.71-30.5c-4.19-19.06-4.19-39.21 0-58.27l6.71-30.5c3.17-14.41 8.61-28.05 16.18-40.54 7.45-12.29 16.75-23.16 27.66-32.3 11.05-9.26 23.43-16.48 36.8-21.48 13.85-5.17 28.37-7.8 43.13-7.8h56.67c14.77 0 29.28 2.62 43.13 7.8 13.37 4.99 25.75 12.22 36.8 21.47 10.91 9.14 20.22 20.01 27.67 32.3 7.57 12.49 13.01 26.13 16.18 40.54l6.71 30.5c4.19 19.06 4.19 39.21 0 58.27l-6.71 30.5c-3.17 14.41-8.61 28.05-16.18 40.54-7.45 12.29-16.76 23.16-27.67 32.3-11.05 9.26-23.43 16.48-36.8 21.47-13.85 5.17-28.37 7.8-43.13 7.8h-56.67z" class="cls-1"/><path id="path8" d="M282.2 213.1c14.4 0 28.55 2.56 42.06 7.6 13.04 4.87 25.12 11.92 35.9 20.95 10.65 8.93 19.74 19.54 27.02 31.55 7.39 12.21 12.71 25.53 15.81 39.61l6.71 30.5c4.1 18.63 4.1 38.32 0 56.96l-6.71 30.5c-3.1 14.08-8.42 27.41-15.81 39.62-7.27 12.01-16.36 22.62-27.02 31.55-10.79 9.04-22.87 16.09-35.9 20.95-13.51 5.05-27.66 7.6-42.06 7.6h-56.67c-14.4 0-28.55-2.56-42.06-7.6-13.04-4.87-25.12-11.92-35.9-20.95-10.65-8.93-19.74-19.54-27.02-31.55-7.39-12.21-12.71-25.53-15.81-39.61l-6.71-30.5c-4.1-18.63-4.1-38.32 0-56.96l6.71-30.5c3.1-14.08 8.42-27.41 15.81-39.62 7.27-12.01 16.36-22.62 27.01-31.54 10.78-9.04 22.86-16.09 35.9-20.96 13.51-5.05 27.66-7.6 42.06-7.6h56.67m.01-6.1h-56.67c-15.13 0-30 2.69-44.2 7.99-13.69 5.11-26.37 12.51-37.69 21.99-11.17 9.36-20.7 20.48-28.32 33.06-7.74 12.78-13.31 26.73-16.55 41.47l-6.71 30.5c-4.29 19.49-4.29 40.09 0 59.58l6.71 30.5c3.24 14.74 8.81 28.69 16.55 41.47 7.62 12.58 17.15 23.7 28.32 33.06 11.32 9.48 24 16.88 37.69 21.99 14.2 5.3 29.07 7.99 44.2 7.99h56.67c15.13 0 30-2.69 44.2-7.99 13.69-5.11 26.37-12.51 37.69-21.99 11.17-9.36 20.7-20.48 28.32-33.06 7.74-12.78 13.31-26.73 16.55-41.47l6.71-30.5c4.29-19.49 4.29-40.09 0-59.58l-6.71-30.5c-3.24-14.74-8.81-28.69-16.55-41.46-7.62-12.58-17.15-23.7-28.32-33.06-11.32-9.48-24-16.88-37.69-21.99-14.2-5.3-29.07-7.99-44.2-7.99z" class="cls-3"/></g><path id="path12" d="m63.97 331.81-4.7-9.03 10.08 1.44.49.07c-5.16-10.47-4.7-20.47-4.67-21.03l.43-7.68 6.8 3.14c-1.7-10.25 1.95-18.3 2.17-18.77l4.58-9.81 3.86 7.73c.29-2.42.85-4.59 1.49-6.45 2.19-6.32 5.73-10.23 6.13-10.66l5.95-6.38 2.82 8.25c8.02 23.43 29.02 45.05 39.82 55.06l.9-4.48 2.32-11.6 7.02 9.53c22.08 29.97 72.49 59.36 80.77 64.07h49.66c8.27-4.7 58.69-34.1 80.77-64.07l7.02-9.53 2.32 11.6.9 4.48c10.81-10 31.81-31.62 39.82-55.06l2.82-8.25 5.95 6.38c.4.42 3.94 4.33 6.13 10.66.64 1.85 1.2 4.02 1.49 6.45l3.87-7.73 4.58 9.81c.22.47 3.87 8.52 2.17 18.77l6.8-3.14.43 7.68c.03.56.5 10.55-4.67 21.03l.49-.07 10.08-1.44-4.7 9.03c-.13.26-3.33 6.37-8.26 13.28-1.8 2.52-3.58 4.81-5.36 6.87l1.26-.14 11.14-1.26-6.19 9.35c-.23.35-5.79 8.66-17 18.01-6.54 5.46-13.7 10.18-21.27 14.03a113 113 0 0 1-13.75 5.88l6.65 2.39 6.69 2.41-4.29 5.67c-.28.37-7.06 9.19-23.49 18.74-9.45 5.5-20.26 10.18-32.12 13.92-14.72 4.64-31.13 7.83-48.78 9.49l-.24.02h-72.18l-.24-.02c-17.65-1.66-34.06-4.85-48.78-9.49-11.86-3.74-22.67-8.42-32.12-13.92-16.43-9.55-23.21-18.37-23.49-18.74l-4.29-5.67 6.69-2.41 6.65-2.39c-4.71-1.66-9.3-3.62-13.75-5.88-7.57-3.85-14.73-8.58-21.27-14.03-11.21-9.35-16.77-17.66-17-18.01l-6.19-9.35 11.14 1.26 1.26.14c-1.77-2.06-3.56-4.36-5.36-6.87-4.93-6.92-8.13-13.03-8.26-13.28z" class="cls-3"/><g id="g18"><path id="path14" d="m366.04 352.93-6.71-30.5c-2.04-9.29-5.54-18.05-10.39-26.06a82 82 0 0 0-17.49-20.44c-6.88-5.77-14.56-10.25-22.83-13.34a75.3 75.3 0 0 0-26.42-4.78h-56.67a75.3 75.3 0 0 0-26.42 4.78c-8.27 3.09-15.95 7.58-22.83 13.34-6.88 5.77-12.76 12.64-17.49 20.44-4.85 8.01-8.34 16.77-10.39 26.06l-6.71 30.5c-2.72 12.34-2.72 25.39 0 37.74l6.71 30.5c2.04 9.29 5.54 18.05 10.39 26.06a82 82 0 0 0 17.49 20.44c6.88 5.77 14.56 10.25 22.83 13.34a75.3 75.3 0 0 0 26.42 4.78h56.67c9.04 0 17.93-1.61 26.42-4.78 8.27-3.09 15.95-7.58 22.83-13.34s12.76-12.64 17.49-20.44c4.85-8 8.34-16.77 10.39-26.06l6.71-30.5c2.72-12.34 2.72-25.39 0-37.74m-22.08 32.34-6.71 30.5c-2.87 13.06-9.94 24.85-19.89 33.19-9.96 8.34-22.44 12.93-35.15 12.93h-56.67c-12.71 0-25.2-4.59-35.15-12.93s-17.02-20.13-19.89-33.19l-6.71-30.5a63 63 0 0 1 0-26.93l6.71-30.5c2.87-13.06 9.94-24.85 19.89-33.19 9.96-8.34 22.44-12.93 35.15-12.93h56.67c12.71 0 25.2 4.59 35.15 12.93s17.02 20.13 19.89 33.19l6.71 30.5a63 63 0 0 1 0 26.93" class="cls-3"/><path id="path16" d="M282.2 486.91h-56.67c-9.18 0-18.2-1.63-26.81-4.85-8.39-3.13-16.18-7.69-23.16-13.53s-12.94-12.81-17.72-20.71c-4.91-8.11-8.45-16.99-10.52-26.4l-6.71-30.5c-2.75-12.5-2.75-25.72 0-38.22l6.71-30.5c2.07-9.41 5.61-18.29 10.52-26.4 4.79-7.9 10.75-14.87 17.72-20.71 6.98-5.85 14.77-10.4 23.16-13.53a76.4 76.4 0 0 1 26.81-4.85h56.67c9.18 0 18.2 1.63 26.81 4.85 8.39 3.13 16.18 7.69 23.16 13.53s12.94 12.81 17.72 20.71c4.91 8.11 8.45 16.99 10.52 26.4l6.71 30.5c2.75 12.5 2.75 25.72 0 38.22l-6.71 30.5c-2.07 9.41-5.61 18.29-10.52 26.4-4.79 7.9-10.75 14.87-17.72 20.71-6.98 5.85-14.77 10.4-23.16 13.53a76.4 76.4 0 0 1-26.81 4.85m-56.67-227.98c-8.91 0-17.67 1.58-26.03 4.71-8.15 3.04-15.72 7.47-22.5 13.15-6.79 5.69-12.59 12.47-17.25 20.16-4.79 7.9-8.23 16.55-10.25 25.72l-6.71 30.5c-2.68 12.19-2.68 25.07 0 37.26l6.71 30.5c2.02 9.17 5.47 17.82 10.25 25.72 4.66 7.69 10.46 14.47 17.25 20.16 6.78 5.68 14.36 10.11 22.5 13.15a74.3 74.3 0 0 0 26.03 4.71h56.67c8.91 0 17.67-1.58 26.03-4.71 8.15-3.04 15.72-7.47 22.5-13.15 6.79-5.69 12.59-12.47 17.25-20.16 4.79-7.9 8.23-16.55 10.25-25.72l6.71-30.5c2.68-12.19 2.68-25.07 0-37.26l-6.71-30.5c-2.02-9.17-5.47-17.82-10.25-25.72-4.66-7.69-10.46-14.47-17.25-20.16-6.78-5.68-14.36-10.11-22.5-13.15a74.3 74.3 0 0 0-26.03-4.71zm56.67 204.08h-56.67c-12.98 0-25.72-4.69-35.87-13.19-10.14-8.5-17.34-20.5-20.27-33.8l-6.71-30.5a64.35 64.35 0 0 1 0-27.42l6.71-30.5c2.93-13.3 10.12-25.3 20.27-33.8 10.16-8.51 22.9-13.19 35.87-13.19h56.67c12.98 0 25.72 4.69 35.87 13.19 10.14 8.5 17.34 20.5 20.27 33.8l6.71 30.5a64.35 64.35 0 0 1 0 27.42l-6.71 30.5c-2.93 13.3-10.12 25.3-20.27 33.8-10.16 8.51-22.9 13.19-35.87 13.19m-56.67-180.18c-12.45 0-24.68 4.5-34.44 12.67-9.77 8.18-16.7 19.75-19.52 32.57l-6.71 30.5c-1.9 8.65-1.9 17.8 0 26.45l6.71 30.5c2.82 12.82 9.75 24.39 19.52 32.57 9.75 8.17 21.98 12.67 34.44 12.67h56.67c12.45 0 24.68-4.5 34.44-12.67 9.77-8.18 16.7-19.75 19.52-32.57l6.71-30.5c1.9-8.65 1.9-17.8 0-26.45l-6.71-30.5c-2.82-12.82-9.75-24.39-19.52-32.57-9.75-8.17-21.98-12.67-34.44-12.67z" class="cls-3"/></g><path id="path20" d="m367.13 352.69-6.71-30.5c-2.07-9.41-5.61-18.29-10.52-26.4-4.79-7.9-10.75-14.87-17.73-20.71-6.98-5.85-14.77-10.4-23.16-13.53a76.4 76.4 0 0 0-26.81-4.85h-56.67c-9.18 0-18.2 1.63-26.81 4.85-8.39 3.13-16.18 7.69-23.16 13.53s-12.94 12.81-17.72 20.71c-4.91 8.11-8.45 16.99-10.52 26.4l-6.71 30.5c-2.75 12.5-2.75 25.72 0 38.22l6.71 30.5c2.07 9.41 5.61 18.29 10.52 26.4 4.79 7.9 10.75 14.87 17.73 20.71 6.98 5.85 14.77 10.4 23.16 13.53a76.4 76.4 0 0 0 26.81 4.85h56.67c9.18 0 18.2-1.63 26.81-4.85 8.39-3.13 16.18-7.69 23.16-13.53s12.94-12.81 17.72-20.71c4.91-8.11 8.45-16.99 10.52-26.4l6.71-30.5c2.75-12.5 2.75-25.72 0-38.22m-24.26 32.34-6.71 30.5c-2.82 12.82-9.75 24.39-19.52 32.57-9.75 8.17-21.98 12.67-34.44 12.67h-56.67c-12.45 0-24.68-4.5-34.44-12.67-9.77-8.18-16.7-19.75-19.52-32.57l-6.71-30.5c-1.9-8.65-1.9-17.8 0-26.45l6.71-30.5c2.82-12.82 9.75-24.39 19.52-32.57 9.75-8.17 21.98-12.67 34.44-12.67h56.67c12.45 0 24.68 4.5 34.44 12.67 9.77 8.18 16.7 19.75 19.52 32.57l6.71 30.5c1.9 8.65 1.9 17.8 0 26.45" class="cls-3"/><g id="g26"><path id="path22" d="M225.53 462.69c-15.26 0-30.25-5.23-42.2-14.73s-20.43-22.91-23.88-37.78l-6.71-28.93a68.16 68.16 0 0 1 0-30.67l6.71-28.93c3.45-14.87 11.93-28.29 23.88-37.78 11.95-9.5 26.94-14.73 42.2-14.73h56.67c15.26 0 30.25 5.23 42.2 14.73s20.43 22.91 23.88 37.78l6.71 28.93a68.16 68.16 0 0 1 0 30.67l-6.71 28.93c-3.45 14.87-11.93 28.29-23.88 37.78-11.95 9.5-26.94 14.73-42.2 14.73z" class="cls-4"/><path id="path24" d="M282.2 275.68c28.52 0 53.27 19.67 59.72 47.45l6.71 28.93c2.11 9.12 2.11 18.6 0 27.71l-6.71 28.93c-6.45 27.78-31.2 47.45-59.72 47.45h-56.67c-28.52 0-53.27-19.67-59.72-47.45l-6.71-28.93a61.44 61.44 0 0 1 0-27.71l6.71-28.93c6.45-27.78 31.2-47.45 59.72-47.45zm0-13.07h-56.67c-8.49 0-16.85 1.43-24.82 4.26a74.2 74.2 0 0 0-21.45 11.89 74.2 74.2 0 0 0-16.43 18.21 74.2 74.2 0 0 0-9.76 23.22l-6.71 28.93c-2.55 11-2.55 22.62 0 33.62l6.71 28.93c1.92 8.27 5.2 16.09 9.76 23.22a74.2 74.2 0 0 0 16.43 18.21 74.1 74.1 0 0 0 21.45 11.89 74.3 74.3 0 0 0 24.82 4.26h56.67c8.49 0 16.85-1.43 24.82-4.26a74.2 74.2 0 0 0 21.45-11.89 74.2 74.2 0 0 0 16.43-18.21 74.2 74.2 0 0 0 9.76-23.22l6.71-28.93c2.55-11 2.55-22.62 0-33.62l-6.71-28.93a74.1 74.1 0 0 0-9.76-23.22 74.2 74.2 0 0 0-16.43-18.21 74.1 74.1 0 0 0-21.45-11.89 74.3 74.3 0 0 0-24.82-4.26" class="cls-1"/></g><path id="path28" d="M288.74 276.03c25.7 2.74 47.23 21.47 53.18 47.1l6.71 28.93c.98 4.21 1.5 8.5 1.57 12.8v2.11c-.07 4.3-.59 8.59-1.57 12.8l-6.71 28.93a61.4 61.4 0 0 1-5.49 14.76h-47.69V276.04Z" class="cls-3"/><path id="path30" d="M218.99 276.03c-25.7 2.74-47.23 21.47-53.18 47.1l-6.71 28.93c-.98 4.21-1.5 8.5-1.57 12.8v2.11c.07 4.3.59 8.59 1.57 12.8l6.71 28.93a61.4 61.4 0 0 0 5.49 14.76h47.69V276.04Z" class="cls-3"/><path id="polygon32" d="M308.42 311.32H172.45L186.47 322l11.33-8.63 11.33 8.63 11.33-8.63 11.33 8.63 11.33-8.63 11.33 8.63 11.34-8.63 11.33 8.63 11.33-8.63 11.33 8.63 11.33-8.63 11.33 8.63 14.02-10.68h-22.67z" class="cls-1"/><path id="path34" d="M293.28 356.31c8.74-4.4 14.84-15.2 13.89-24.58-.56-5.53-3.45-10.78-7.92-14.4-3.29-2.67-7.18-4.22-11.2-4.53-1.39-2.13-3.39-4.03-5.96-5.66-6.8-4.32-14.11-6.36-22.99-6.39-10.29-.02-18.27 1.94-24.43 6.06-6.75 4.52-11.9 11.71-14.49 20.27l-9.55 30.27c-1.72 5.13-3.08 10.42-4.06 15.74l-3.34 18.18 23.8 6.45 16.33 1.39 12.38.02 15.46-1.32 26.36 2.57-4.91-27.29c-.9-4.93-2.14-9.83-3.69-14.6l.68-.34c2.49-1.25 3.32-1.67 3.64-1.83z" class="cls-3"/><path id="path36" d="m68.61 329.39 12.48 1.78C69.5 319.58 70.4 303.54 70.4 303.54l11.59 5.35c-8.91-13.37-2.67-26.74-2.67-26.74 3.57 7.13 12.48 12.48 12.48 12.48-9.8-16.93 2.67-30.3 2.67-30.3 11.59 33.87 48.13 63.28 48.13 63.28l2.67-13.37c24.95 33.87 83.61 66.19 83.61 66.19h52.4s58.66-32.33 83.61-66.19l2.67 13.37s36.54-29.41 48.13-63.28c0 0 12.48 13.37 2.67 30.3 0 0 8.91-5.35 12.48-12.48 0 0 6.24 13.37-2.67 26.74l11.59-5.35s.89 16.04-10.69 27.63l12.48-1.78s-12.41 23.85-25.81 29.75l18.68-2.12s-20.94 31.64-65.06 40.1l22.28 8.02s-24.95 32.97-100.71 40.1h-71.68c-75.75-7.13-100.71-40.1-100.71-40.1l22.28-8.02c-44.11-8.47-65.06-40.1-65.06-40.1l18.68 2.12c-13.4-5.9-25.81-29.75-25.81-29.75z" class="cls-1"/><path id="polygon38" d="M308.42 326.9H172.45l14.02 10.68 11.33-8.63 11.33 8.63 11.33-8.63 11.33 8.63 11.33-8.63 11.33 8.63 11.34-8.63 11.33 8.63 11.33-8.63 11.33 8.63 11.33-8.63 11.33 8.63 14.02-10.68h-22.67z" class="cls-1"/><path id="path40" d="M118.52 405.15s40.54 31.17 88.06 15.04c0 0-9.3 13.66-54.12 14.24 0 0-28.62-13.59-38.14-29.28" class="cls-3"/><path id="path42" d="M391.61 405.15s-40.54 31.17-88.06 15.04c0 0 9.3 13.66 54.12 14.24 0 0 28.62-13.59 38.14-29.28" class="cls-3"/><path id="path44" d="m152.7 356.73 2.22-9.12s44.72 48.22 82.52 41.55h-10.81l-1.96-1.08c-2.13-1.17-45.87-25.46-74.35-54.63l-1.99 9.97-11.2-9.01c-.99-.8-16.09-13.07-30.19-31.02l8.85 15.28c7.34 10.94 19.43 25.84 36.94 38.07z" class="cls-3"/><path id="path46" d="m357.42 356.73-2.22-9.12s-44.72 48.22-82.52 41.55h10.81l1.96-1.08c2.13-1.17 45.87-25.46 74.35-54.63l1.99 9.97 11.2-9.01c.99-.8 16.09-13.07 30.19-31.02l-8.85 15.28c-7.34 10.94-19.43 25.84-36.94 38.07z" class="cls-3"/><path id="path48" d="m232.27 381.86 4.53 22.81 3.88-8.53 7.79 36.9-11.28-24.5-4.92 9.69s-10.97-19.76-9.81-41.85l4.26 12.01 5.54-6.53z" class="cls-3"/><path id="path50" d="m268.27 381.86-4.53 22.81-3.88-8.53-7.79 36.9 11.28-24.5 4.92 9.69s10.97-19.76 9.81-41.85l-4.26 12.01-5.54-6.53z" class="cls-3"/><path id="path52" d="M169.08 428.9s25.28 27.9 48.39 31.38h70.25s31.48-2.62 44.69-27.24" class="cls-1"/><path id="path54" d="M118.52 405.15s40.54 31.17 88.06 15.04c0 0-9.3 13.66-54.12 14.24 0 0-28.62-13.59-38.14-29.28" class="cls-3"/><path id="path56" d="M94.75 327.99s26.16 30.78 65.83 37.62c0 0-49.28 1.6-65.83-37.62" class="cls-4"/><path id="path58" d="M170.52 374.35s22.33 15.1 39.76 18.59c0 0-24.03-4.36-45.14-16.56" class="cls-4"/><path id="path60" d="M415.38 327.99s-26.16 30.78-65.83 37.62c0 0 49.28 1.6 65.83-37.62" class="cls-4"/><path id="path62" d="M339.61 374.35s-22.33 15.1-39.76 18.59c0 0 24.03-4.36 45.14-16.56" class="cls-4"/><path id="path64" d="M167.25 443.18c1.91 2.45 3.95 4.8 6.12 7.02 20.27-4.67 25.36-12.14 25.36-12.14-10.94 3.71-21.55 5.16-31.48 5.13z" class="cls-3"/><path id="path66" d="M188.27 462.25c11.06-6.72 13.38-12.25 13.38-12.25a96 96 0 0 1-18.85 8.46c1.78 1.34 3.6 2.6 5.47 3.78z" class="cls-3"/><path id="path68" d="M340.48 443.18c-1.91 2.45-3.95 4.8-6.12 7.02-20.27-4.67-25.36-12.14-25.36-12.14 10.94 3.71 21.55 5.16 31.48 5.13z" class="cls-3"/><path id="path70" d="M319.46 462.25C308.4 455.53 306.08 450 306.08 450c6.27 3.67 12.6 6.43 18.85 8.46-1.78 1.34-3.6 2.6-5.47 3.78z" class="cls-3"/><g id="g82"><path id="path72" d="m194.57 254.73-7.47 2.92.94-5.65-6.61-16.92-4.54-3.39 10.33-4.04-1.04 5.57 8.4 21.5zm7.24-8.78 1.53 5.35-9.35 3.65-1.8-2.59 9.62-6.42z" class="cls-4"/><path id="path74" d="m216.14 224.1 2.25 2.59-5.36 18.34 1.79 4.3-7.62.45 2.22-4.99zm.74 1.91-4.73-4.47 8.15-.48 10.39 22.48 2.79 4.69-9.5.55 1.17-4.47-8.26-18.31zm7.51 13.12 1.18 2.83-12.39.72.11-2.91 11.11-.65z" class="cls-4"/><path id="path76" d="M258.69 224.85c-3.09-.65-5.66-.62-7.69.09s-3.55 1.94-4.53 3.68c-.99 1.74-1.48 3.85-1.48 6.31 0 1.7.21 3.16.63 4.39s1.01 2.25 1.76 3.05c.76.8 1.64 1.4 2.65 1.8s2.11.59 3.3.59c1.51 0 2.78-.17 3.8-.52s1.89-.76 2.62-1.22c-.26 1.05-.74 2.05-1.46 3q-1.08 1.425-2.82 2.34c-1.16.6-2.53.91-4.11.91s-3-.3-4.39-.91c-1.39-.6-2.64-1.51-3.73-2.72s-1.95-2.7-2.58-4.48-.94-3.84-.94-6.19c0-2.95.6-5.51 1.8-7.67s2.92-3.83 5.16-5 4.93-1.76 8.07-1.76c1.33 0 2.57.1 3.73.31s2.27.51 3.31.91l-.1 8.02-6.63-6.38 3.66 1.46zm-4.57 8.9h9.97l-.73 3.38v11.72h-.42l-3.63-5.02-.73.35v-6.14z" class="cls-4"/><path id="path78" d="M273.96 234.3c.12-2.21.55-4.17 1.3-5.9s1.76-3.18 3.03-4.36 2.77-2.05 4.49-2.63 3.6-.82 5.64-.7c2.04.11 3.88.54 5.52 1.3 1.64.75 3.02 1.79 4.16 3.11s1.98 2.88 2.54 4.68c.55 1.8.77 3.8.65 6.01s-.56 4.17-1.3 5.9c-.75 1.73-1.76 3.19-3.03 4.37a12.1 12.1 0 0 1-4.48 2.64c-1.71.57-3.59.8-5.66.68-2.04-.11-3.88-.54-5.52-1.3a12.1 12.1 0 0 1-4.16-3.09c-1.14-1.31-1.99-2.86-2.54-4.66s-.77-3.81-.65-6.04zm5.36.29c-.15 2.65.31 4.8 1.36 6.47 1.05 1.66 2.61 2.87 4.67 3.63 2.07.75 4.57 1.12 7.5 1.09.47-.58.93-1.42 1.36-2.53s.81-2.34 1.13-3.71.52-2.72.59-4.07q.21-3.9-1.53-6.42c-1.17-1.68-2.85-2.91-5.05-3.68q-3.3-1.155-7.86-.96c-.55 1.55-1.02 3.14-1.41 4.76s-.64 3.43-.75 5.42z" class="cls-4"/><path id="path80" d="M317.04 243.46c-1.29-1.33-2.27-2.58-2.94-3.74s-1.04-2.3-1.11-3.41.13-2.26.61-3.44c.54-1.33 1.4-2.41 2.58-3.22 1.17-.81 2.57-1.28 4.2-1.39s3.4.22 5.32 1c1.18.48 2.26 1.06 3.22 1.75.96.68 1.72 1.31 2.26 1.88l-2.02 6.33-4.04-7.18 2.18 2.13c-1.31-.98-2.53-1.61-3.68-1.87-1.15-.27-2.13-.23-2.96.09-.82.33-1.41.92-1.76 1.79-.15.37-.24.81-.28 1.34-.04.52.14 1.19.53 1.98s1.14 1.8 2.26 3.01c1.5 1.56 2.6 2.97 3.3 4.2.7 1.24 1.08 2.39 1.13 3.46.06 1.06-.14 2.15-.59 3.24-.55 1.36-1.46 2.44-2.71 3.24-1.26.81-2.72 1.26-4.38 1.38-1.66.11-3.39-.2-5.18-.92-.97-.39-1.9-.88-2.79-1.46s-1.69-1.16-2.37-1.76c-.69-.59-1.24-1.11-1.66-1.56l2.6-6.28 4.33 7.94-1.49-1.7c1.56 1.04 2.91 1.66 4.04 1.87q1.695.315 2.76-.21c.71-.35 1.19-.83 1.43-1.43.22-.54.33-1.11.34-1.72 0-.61-.21-1.34-.65-2.19-.45-.85-1.27-1.89-2.47-3.13z" class="cls-4"/></g><path id="polygon84" d="m163.43 264.35-7.15 5.19 2.73 8.41-7.15-5.2-7.15 5.2 2.73-8.41-7.14-5.19h8.83l2.73-8.4 2.73 8.4z" class="cls-4"/><path id="polygon86" d="m344.3 264.35 7.15 5.19-2.73 8.41 7.15-5.2 7.15 5.2-2.73-8.41 7.15-5.19h-8.84l-2.73-8.4-2.73 8.4z" class="cls-4"/><g id="g92"><path id="path88" d="M240.43 480.12c-11.47 0-21.3-7.8-23.89-18.98l-2.35-10.13c-.84-3.63-.84-7.46 0-11.08l2.35-10.13c2.59-11.18 12.42-18.98 23.89-18.98h19.85c11.47 0 21.3 7.8 23.89 18.98l2.35 10.13c.84 3.63.84 7.46 0 11.08l-2.35 10.13c-2.59 11.18-12.42 18.98-23.89 18.98z" class="cls-1"/><path id="path90" d="M260.28 413.86c9.99 0 18.66 6.89 20.92 16.62l2.35 10.13c.74 3.19.74 6.51 0 9.71l-2.35 10.13a21.48 21.48 0 0 1-20.92 16.62h-19.85c-9.99 0-18.66-6.89-20.92-16.62l-2.35-10.13c-.74-3.19-.74-6.51 0-9.71l2.35-10.13a21.48 21.48 0 0 1 20.92-16.62zm0-6.1h-19.85c-6.2 0-12.3 2.13-17.15 5.99-4.86 3.86-8.3 9.31-9.71 15.36l-2.35 10.13c-.95 4.08-.95 8.39 0 12.46l2.35 10.13c1.4 6.04 4.85 11.5 9.71 15.36a27.7 27.7 0 0 0 17.15 5.99h19.85c6.2 0 12.3-2.13 17.15-5.99 4.86-3.86 8.3-9.31 9.71-15.36l2.35-10.13c.95-4.08.95-8.39 0-12.46l-2.35-10.13c-1.4-6.04-4.85-11.5-9.71-15.36a27.7 27.7 0 0 0-17.15-5.99" class="cls-3"/></g><path id="path94" d="M275.3 442.82h-8.77c.25-4.97 1.21-9.69 2.79-13.79 1.16-3.02-.07-6.43-2.85-8.09-3.56 5.96-5.67 13.65-6.05 21.88h-6.92v-22.66h-6.1v22.66h-7.12c-.37-8.23-2.48-15.92-6.05-21.88-2.77 1.66-4.01 5.07-2.85 8.09 1.58 4.11 2.54 8.82 2.79 13.79h-8.57v6.1h8.52c-.3 4.59-1.21 8.93-2.66 12.77-1.16 3.07.02 6.52 2.84 8.18 3.4-5.75 5.47-13.09 5.94-20.95h7.15v20.92h6.1v-20.92h6.95c.47 7.86 2.54 15.2 5.94 20.95 2.82-1.67 3.99-5.12 2.84-8.18-1.45-3.83-2.35-8.18-2.66-12.77h8.72v-6.1z" class="cls-4"/><path id="path96" d="m367.51 391.26-6.71 30.5c-2.07 9.41-5.61 18.29-10.52 26.4-4.79 7.9-10.75 14.87-17.72 20.71-6.98 5.85-14.77 10.4-23.16 13.53a76.4 76.4 0 0 1-26.81 4.85h-56.67c-9.18 0-18.2-1.63-26.81-4.85-8.39-3.13-16.18-7.69-23.16-13.53s-12.94-12.81-17.73-20.71c-4.91-8.11-8.45-16.99-10.52-26.4l-6.71-30.5c-1.42-6.43-2.1-13.06-2.06-19.67H95.35c-.04 9.77.98 19.54 3.07 29.04l6.71 30.5c3.1 14.08 8.42 27.41 15.81 39.61 7.27 12.01 16.36 22.62 27.02 31.55 10.79 9.04 22.86 16.09 35.9 20.95 13.51 5.05 27.66 7.6 42.06 7.6h56.67c14.4 0 28.55-2.56 42.06-7.6 13.04-4.87 25.12-11.92 35.9-20.95 10.65-8.93 19.74-19.54 27.02-31.55 7.39-12.21 12.71-25.54 15.81-39.62l6.71-30.5c2.09-9.5 3.11-19.27 3.07-29.04h-43.58c.04 6.62-.64 13.24-2.06 19.67z" class="cls-1"/><g id="g124"><path id="path98" d="M121.61 406.03c-1.73.38-3.24.97-4.54 1.76-1.3.8-2.28 1.83-2.95 3.1q-1.005 1.905-.78 4.59c.15 1.79.81 3.87 1.98 6.23l-2.45-3.22 7.4 4.36-8.33 1.52c-.39-.91-.75-1.87-1.08-2.86s-.63-2.07-.88-3.22c-.68-3.08-.69-5.81-.03-8.21s1.89-4.38 3.69-5.95 4.09-2.66 6.85-3.27c2.63-.58 5.1-.54 7.41.13 2.3.66 4.29 1.94 5.94 3.83s2.82 4.37 3.5 7.45c.25 1.15.44 2.25.55 3.29s.19 2.06.22 3.05l-8.14 2.1 4.82-7.05-.8 3.94q.105-3.96-.87-6.48c-.65-1.68-1.56-2.95-2.74-3.82s-2.52-1.39-4.04-1.57c-1.51-.18-3.09-.09-4.73.27z" class="cls-4"/><path id="path100" d="m113.37 433.9 5.48 1.04 16.65-6.06 3.43-4.29 2.28 6.26c.94 2.58 1.45 4.92 1.54 7.02s-.22 3.86-.92 5.27-1.8 2.39-3.29 2.93q-1.41.51-3.06.24c-1.1-.18-2.2-.65-3.28-1.41-1.09-.76-2.08-1.85-2.98-3.26l.65.31c-1.51 2.48-2.93 5-4.25 7.55-1.33 2.56-2.57 5.14-3.74 7.77-.32-.41-.6-.87-.84-1.36s-.46-1-.65-1.54c-.57-1.56-.58-3.14-.05-4.76s1.39-3.3 2.56-5.05l3.59-5.25 2.21 1.4c1.42.91 2.69 1.38 3.83 1.43 1.14.04 2.12-.08 2.95-.39 1.64-.6 2.63-1.65 2.97-3.16s.23-3.49-.35-5.93l.59.33-18.15 6.6-3.37 4.77-3.81-10.48z" class="cls-4"/><path id="path102" d="M136.06 455.32c1.75-1.26 3.51-2.13 5.28-2.62q2.655-.735 5.16-.36c1.67.25 3.26.85 4.75 1.8s2.82 2.23 3.99 3.85 1.96 3.28 2.39 4.98.49 3.39.19 5.06c-.31 1.67-.97 3.27-2 4.79s-2.42 2.91-4.16 4.17c-1.75 1.26-3.51 2.13-5.28 2.62s-3.49.62-5.18.37c-1.68-.24-3.26-.84-4.74-1.78s-2.81-2.24-3.98-3.88c-1.17-1.62-1.96-3.28-2.39-4.98s-.5-3.39-.2-5.05c.3-1.67.96-3.26 1.99-4.78s2.42-2.92 4.19-4.19zm3.06 4.25c-2.1 1.51-3.46 3.17-4.08 4.99-.62 1.81-.59 3.74.11 5.77.69 2.03 1.95 4.15 3.76 6.36.73 0 1.65-.17 2.75-.51q1.65-.525 3.51-1.41a23.6 23.6 0 0 0 3.45-2.04c2.06-1.48 3.37-3.18 3.94-5.09q.84-2.865-.3-6.09c-.76-2.15-2.12-4.33-4.08-6.55a47 47 0 0 0-4.48 1.84c-1.47.69-3 1.61-4.58 2.75z" class="cls-4"/><path id="path104" d="m161.4 492.54-1.58-1.82 10.62-2.91-14.56 10.5-.95-.67 5.74-23.49.34-5.5 7 4.94-2.65 3.87-3.98 15.08zm9.87 7.79-1.11-.78 12.62-9.82 2.12-4.25 6.11 4.31-4.95 2.3L166 505.44l-.95-.67 5.72-23.51.87-5.13 5.14 3.62-5.52 20.57z" class="cls-4"/><path id="path106" d="m194.09 512.89 1.81 5.49-8.97-2.11 3.87-4.12 4.54-19.26 3.36.41-4.62 19.59zm5.14-21.66 11.44 23.48-2.23-.63 3.49-14.79-1.58-5.44 8.8 2.07-3.97 4.09-5.12 21.71-1.92-.45-12.04-24.21-4.19-7.56 7.31 1.72z" class="cls-4"/><path id="path108" d="M230.34 522.3h-7.82l2.86-4.79V499.8l-2.92-4.69h7.89v27.2zm-1.66-2.89 13.46-2.48-.27 5.37H229.7Zm.74-24.31h12.24l-.54 5.03-12-2.04.31-2.99zm.04 13.36 10.1-2.31-.41 5.64-9.69-2.11z" class="cls-4"/><path id="path110" d="M249.42 495.1h5.81q6.465 0 10.59 1.62c2.75 1.08 4.79 2.61 6.12 4.61 1.33 1.99 1.99 4.4 1.99 7.21 0 2.06-.36 3.94-1.09 5.63q-1.095 2.535-3.45 4.35c-1.57 1.21-3.65 2.15-6.22 2.8-2.57.66-5.72.99-9.44.99h-4.18l2.82-4.79v-17.71l-2.96-4.69zm19.38 13.57c0-1.7-.31-3.16-.94-4.37-.62-1.21-1.52-2.23-2.7-3.04-1.18-.82-2.6-1.44-4.25-1.87s-3.51-.71-5.58-.85l2.01-.68v22.03l-1.09-1.09c2.56-.32 4.78-.86 6.65-1.62q2.805-1.14 4.35-3.21c1.03-1.38 1.55-3.15 1.55-5.3" class="cls-4"/><path id="path112" d="m303.57 520.26-7.65 1.63 1.79-5.28-3.69-17.33-3.84-3.98 7.72-1.64zm-6.56-26.41 11.97-2.55.52 5.04-12.16.51-.32-2.99zm2.81 13.06 9.39-4.37.78 5.61-9.92-.04zm1.52 10.87 12.65-5.23.85 5.31-11.91 2.54-1.6-2.61z" class="cls-4"/><path id="path114" d="m322.92 489.96-6.03-2 7-3.78 18.46 15.57 4.4 2.99-8.17 4.41-.81-4.43-14.86-12.76zm-1.45-1.38 3.06 1.36 2.84 18.41 3.35 3.06-6.55 3.54-.09-5.32-2.6-21.05zm13.49 9.86 2.21 2.01-10.65 5.76-1.1-2.61z" class="cls-4"/><path id="path116" d="M350.01 468.19c-2.6 1.66-4.36 3.43-5.29 5.31s-1.14 3.77-.64 5.66 1.6 3.69 3.28 5.4c1.16 1.18 2.31 2.06 3.44 2.63s2.24.88 3.31.92 2.1-.15 3.07-.56c.97-.42 1.87-1.03 2.7-1.84 1.05-1.03 1.81-2.02 2.29-2.96q.705-1.41.99-2.64c.54.9.88 1.93 1.03 3.09s.03 2.34-.37 3.55-1.14 2.36-2.24 3.44a10.6 10.6 0 0 1-3.68 2.37c-1.38.53-2.87.75-4.45.66-1.59-.09-3.2-.55-4.86-1.35-1.65-.81-3.28-2.03-4.88-3.66-2.02-2.05-3.35-4.24-3.99-6.56s-.59-4.66.17-7.01 2.23-4.6 4.41-6.74c.92-.91 1.86-1.68 2.81-2.33s1.93-1.19 2.92-1.63l5.41 5.65-8.97.09 3.55-1.48zm2.9 9.31 6.94-6.81 1.8 2.85 8.01 8.15-.29.29-5.95-1.02-.27.74-4.19-4.27-6.04.07z" class="cls-4"/><path id="path118" d="m380.15 466.18-4.03 6.7-2.64-4.92-15.18-9.13-5.53.09 5.57-9.27 2.51 4.92 19.29 11.6zm.36-11.09 4.37 3.22-5.05 8.39-2.93-.93z" class="cls-4"/><path id="path120" d="m391.07 442.98-2.44 7.43-3.66-4.21-16.83-5.53-5.37 1.31 2.46-7.49zm-26.13-7.63 3.82-11.63 4.61 2.09-5.69 10.76-2.75-1.23zm12.71 4.15.96-10.32 5.23 2.15-5.03 8.55zm10.15 4.16 1.85-13.57 5.02 1.94-3.8 11.56-3.06.07z" class="cls-4"/><path id="path122" d="M386.51 413.58c-1.06 1.46-2.1 2.61-3.11 3.44-1.01.84-2.04 1.38-3.09 1.63-1.05.26-2.19.25-3.41-.02-1.37-.3-2.55-.95-3.52-1.94-.98-.99-1.65-2.26-2.03-3.81s-.35-3.3.08-5.27c.27-1.22.65-2.35 1.15-3.39s.97-1.87 1.43-2.49l6.42.89-6.23 5.07 1.69-2.45c-.73 1.42-1.13 2.7-1.19 3.84-.07 1.15.13 2.09.58 2.83s1.12 1.2 2.01 1.4c.38.08.82.1 1.33.05s1.12-.33 1.82-.84 1.54-1.39 2.52-2.67c1.26-1.7 2.42-2.98 3.5-3.86s2.12-1.43 3.13-1.66 2.09-.22 3.21.03c1.39.31 2.58 1 3.56 2.07.98 1.08 1.66 2.4 2.05 3.98q.57 2.37-.03 5.13c-.22 1-.53 1.97-.94 2.93s-.84 1.81-1.3 2.57-.87 1.38-1.23 1.85l-6.47-1.46 6.91-5.48-1.39 1.71c.74-1.67 1.12-3.07 1.13-4.19.02-1.12-.21-1.99-.66-2.62-.46-.62-.99-1-1.61-1.14a4.7 4.7 0 0 0-1.71-.05c-.59.09-1.25.42-1.99.99s-1.61 1.53-2.6 2.89z" class="cls-4"/></g><path id="path126" d="M107.03 366.63s30.41 15.37 63.49 7.72c0 0-37.79 17.37-63.49-7.72" class="cls-4"/><path id="path128" d="M403.1 366.63s-30.41 15.37-63.49 7.72c0 0 37.79 17.37 63.49-7.72" class="cls-4"/><path id="path130" d="M75.74 357.02s18.01 23.81 38.57 31.39c0 0-26.08 2.35-56.16-40.37l20.5 1.7" class="cls-3"/><g id="g150"><path id="path132" d="M215.81 359.03c-1.65 4.91-2.95 9.94-3.88 15.03l-2.43 13.25 18.48 5.01 15.84 1.35h11.68l15.73-1.35 19.69 1.92-3.63-20.18c-.94-5.1-2.23-10.12-3.88-15.03l-3.27-9.75-1.15-4.73 5.23 2.44a5.354 5.354 0 0 1 2.98 6.28l3.64-1.83c6.61-3.33 11.66-11.84 10.91-19.16-.8-7.84-8.1-14.93-16.67-14-.15.02-.3.03-.46.05.1-.01-.76-1.94-.81-2.03-1.08-1.91-2.81-3.4-4.63-4.56-6.29-4-12.73-5.51-20.09-5.54-7.29-.03-15.2 1.01-21.38 5.14-5.99 4.01-10.23 10.47-12.31 17.35l-9.58 30.35z" class="cls-1"/><path id="path134" d="M271.51 319.52c1.6.78 3.36 1.19 5.15 1.19l2.3-1.97c-6.88-6.32-25.5-8.69-36.68 0 0 0-3.6 2-8.45 8.32-3.38 4.4-4.44 7.25-4.44 7.25l11.29-2.93-5.58 5.94c-4.74 5.04-8.14 11.19-9.84 17.89-.13.5-.22.92-.28 1.23l-1.18 6.45 4.93-4.19c1.42-1.21 2.77-2.49 4.06-3.84l-.02.18c-.23 2.51-.27 5.03-.14 7.54l.35 6.57 3.83-5.23c1.28-1.75 2.45-3.58 3.51-5.47l.03.22c.35 2.66.89 5.3 1.61 7.88l1.88 6.73 2.76-6.31c1.07-2.46 1.97-4.99 2.69-7.57l.27-.96.27.96c.72 2.58 1.61 5.11 2.69 7.57l2.76 6.31 1.88-6.71c.72-2.59 1.26-5.23 1.61-7.89l.03-.22c1.06 1.89 2.23 3.72 3.51 5.47l3.83 5.23.35-6.54c.13-2.52.09-5.06-.14-7.57l-.02-.18c1.28 1.35 2.64 2.63 4.06 3.84l4.93 4.19-1.18-6.45c-.46-2.48-1.09-4.93-1.89-7.32l-1.12-3.33c-.32-.95-.71-1.86-1.19-2.74l-.13-.24-.19-.32c-6.36.87-9.36 9.02-9.36 9.02 0-6.32 3.99-11.85 3.99-11.85-9.58 3.95-13.42 8.51-13.42 8.51 4.14-12.81 16.62-14.04 16.62-14.04-5.59-.79-6.39-3.16-6.39-3.16 12.78-1.58 12.78-6.32 12.78-6.32s-6.39 3.95-9.58 1.58-3.19-5.53-3.19-5.53c-7.19 0-14.37 1.58-14.37 1.58s7.19-4.74 15.17-4.74c4.65 0 7.83 1.07 9.67 1.97z" class="cls-4"/><path id="path136" d="M295.32 331.29c-.96-6.73-5.77-8.66-10.58-7.69 0 0-4.13.83-5.5 4.78l3.58-.35s-8.18 6.63-13.95 8.55l17.79 7.21s.96-2.89-3.85-4.81l-6.73-2.89s3.85-2.89 8.66-2.89h1.05c4.07 0 7.49 3.21 7.6 7.28v.41s2.89-2.89 1.92-9.62z" class="cls-6"/><path id="path138" d="M270.13 321.73c-.31.97-1.41 1.43-2.36 1.37-.47-.03-1-.16-1.27-.58-.1-.16-.33-1.63-.26-1.62-.99-.26-1.65-.46-1.65-.46 0 2.98 1.27 4.28 4.03 3.99s3.41-2.49 3.41-2.49c-.61-.04-1.25-.11-1.9-.21" class="cls-3"/><path id="polygon140" d="m290.98 326.87-2.01 1.46.77 2.37-2.02-1.47-2.01 1.47.77-2.37-2.02-1.46h2.49l.77-2.37.77 2.37z" class="cls-1"/><g id="g148"><path id="path142" d="M226.54 351.1c-.5 1.34-.93 2.71-1.28 4.1-.13.5-.22.92-.28 1.23l-1.18 6.45 4.93-4.19c1.42-1.21 2.77-2.49 4.06-3.84l-1.7-4.28z" class="cls-3"/><path id="path144" d="m240.74 357.61-3.07-4.51-4.88 1.76-.02.18c-.23 2.51-.27 5.03-.14 7.54l.35 6.57 3.83-5.23c1.28-1.75 2.45-3.58 3.51-5.47l.03.22c.35 2.66.89 5.3 1.61 7.88l1.88 6.73 2.76-6.31c1.07-2.46 1.97-4.99 2.69-7.57l.27-.96-4.34-3.78-4.46 2.96z" class="cls-3"/><path id="path146" d="m258.75 358.67.03-.22c1.06 1.89 2.23 3.72 3.51 5.47l3.83 5.23.35-6.54c.13-2.52.09-5.06-.14-7.57l-.02-.18c1.28 1.35 2.64 2.63 4.06 3.84l4.93 4.19-1.18-6.45c-.28-1.53-.63-3.05-1.04-4.55l-4.84-.92-2.11 4.09-5.11-2.03-3.13 4.38-3.8-2.77-4.54 3.79.27.96c.72 2.58 1.61 5.11 2.69 7.57l2.76 6.31 1.88-6.71c.72-2.59 1.26-5.23 1.61-7.89z" class="cls-3"/></g></g><path id="polygon152" d="m265.09 283.82-10.36 7.9-10.37-7.9-10.37 7.9-10.26-7.82v9.7h61.54v-9.35l-9.81 7.47z" class="cls-6"/></g></svg>