<svg xmlns="http://www.w3.org/2000/svg" id="Layer_1" width="377.339" height="399.469" data-name="Layer 1" viewBox="0 0 377.339 399.469"><defs id="defs16"><clipPath id="clippath-1"><path id="path4" d="M196.04 322.27c-.1 1.87-.13 3.76-.08 5.67 1.09 34.81 30.31 62.3 65.23 61.38 34.88-.91 60.67-29.88 57.64-64.69-.17-1.91-.42-3.8-.74-5.66l-39.17-3.46c-14.77-1.31-29.58-.91-44.17 1.19l-38.72 5.56z" class="cls-1"/></clipPath><clipPath id="clippath-3"><path id="path7" d="M447.43 898.4c2.71-9.9 3.57-29.24-14.15-58.15l-2.93-4.79-5.6.44-185.8 14.5 6.07-13.64 6.2-13.92-15.2 1.04-95.78 6.54-2.25.15-1.92 1.18-25.21 15.47-2.48 1.52-1.15 2.68-46.98 109.6c-4.44 10.37-3.4 22.17 2.8 31.57 6.22 9.44 16.63 15.07 27.83 15.07 1.32 0 2.66-.08 3.99-.23l308.31-35.96c2.56-.3 6.59-1.36 22.15-10.29 6.77-3.88 12.92-7.64 14.46-8.59 9.64-4.89 16.3-14.27 17.87-25.18 1.56-10.9-2.16-21.45-10.22-29.02z" class="cls-1"/></clipPath><clipPath id="clippath-5"><path id="path10" d="M705.04 322.27c-.1 1.87-.13 3.76-.08 5.67 1.09 34.81 30.31 62.3 65.23 61.38 34.88-.91 60.67-29.88 57.64-64.69-.17-1.91-.42-3.8-.74-5.66l-39.17-3.46c-14.77-1.31-29.58-.91-44.17 1.19l-38.72 5.56z" class="cls-1"/></clipPath><clipPath id="clippath-7"><path id="path13" d="M655.71 1059.54c-20.85 3.14-39.49-2.73-51.13-16.09-10.5-12.04-13.84-28.52-9.18-45.23l38.36-157.77.8-.14.17-.71.8-.14.17-.71.79-.14.17-.71.81-.15.17-.71.8-.14.17-.71.8-.14.17-.71.8-.14.17-.71.8-.14.17-.69.81-.15.17-.71.8-.15.17-.71.8-.15.17-.71.8-.15.17-.71.8-.15.17-.71.8-.15.17-.71.8-.15.17-.71.8-.15.17-.71.8-.15.17-.71.8-.15.18-.72.79-.14.17-.71.8-.14.17-.71.8-.14.17-.71.8-.14.17-.71.8-.14.17-.71.8-.14.17-.71.8-.14.17-.71.8-.14.17-.71.8-.14.17-.71.8-.14.17-.71.8-.14.17-.71.8-.14.17-.71.8-.14.17-.71.81-.15.17-.69.8-.15.17-.71.8-.15.17-.71.8-.15.17-.71.8-.15.17-.71.79-.14.17-.71.81-.15.17-.71.8-.15.17-.71.8-.15.17-.71.8-.15.17-.71.79-.14.17-.71.81-.15.17-.71.8-.15.17-.71.8-.15.18-.72.79-.14.17-.71.8-.14.17-.71.8-.14.17-.71.8-.14.17-.71.8-.14.17-.71.8-.14.17-.7 96.99-17.57 21.64-4.77c56.74-12.49 107.48 37.72 95.57 94.59l-2.27 10.83-27.61 93.86-.79.21-.19.65-.78.2-.19.66-.78.2-.19.65-.78.2-.19.65-.78.2-.19.65-.79.21-.19.65-.78.2-.19.65-.78.2-.19.65-.79.2-.19.63-.78.21-.19.65-.78.2-.19.65-.78.2-.19.65-.78.2-.19.65-.77.2-.19.65-.78.21-.19.65-.78.2-.19.65-.79.21-.19.65-.78.2-.19.65-.78.2-.19.65-.78.21-.19.65-.78.21-.19.65-.78.21-.19.65-.79.21-.19.65-.78.21-.19.65-.78.2-.19.65-.78.21-.2.66-.77.2-.19.65-.78.2-.19.65-.78.2-.19.65-.78.2-.19.65-.77.2-.19.65-.78.2-.19.65-.79.2-.19.63-.79.21-.19.65-.78.2-.19.65-.78.2-.19.65-.78.21-.19.65-.78.21-.19.65-.78.21-.19.65-.79.21-.19.65-.78.2-.19.65-.78.2-.19.65-.78.2-.19.65-.78.2-.19.65-.78.2-.19.65-.78.21-.19.65-.78.2-.19.65-.77.2-.19.65-.78.21-.19.65-.78.21-.19.65-.79.21-.19.65-158.88 41.54-1.14.2c-.75.14-1.55.27-2.34.39z" class="cls-1"/></clipPath><style id="style2">.cls-1,.cls-4,.cls-5{fill:none}.cls-10,.cls-12,.cls-14,.cls-16,.cls-17,.cls-18,.cls-19,.cls-4,.cls-5,.cls-7,.cls-9{stroke-miterlimit:10}.cls-10,.cls-12,.cls-14,.cls-16,.cls-17,.cls-18,.cls-19,.cls-20,.cls-4,.cls-5,.cls-7{stroke:#3d001f}.cls-12,.cls-7{stroke-width:3.27px}.cls-21,.cls-7{fill:#006e3f}.cls-22{fill:#fbe2d9}.cls-9{stroke:#ffb200}.cls-10,.cls-14,.cls-9{stroke-width:3.58px}.cls-14,.cls-23,.cls-9{fill:#bf213c}.cls-10,.cls-12,.cls-24{fill:#ffb200}.cls-17,.cls-19,.cls-20{stroke-width:2.5px}.cls-25{fill:#40182c}.cls-20{stroke-linecap:round;stroke-linejoin:round}.cls-16,.cls-17,.cls-30{fill:#3d001f}.cls-18,.cls-19,.cls-20,.cls-31{fill:#830031}.cls-16,.cls-18,.cls-4{stroke-width:3.34px}.cls-5{stroke-width:4.69px}</style></defs><g id="g278" transform="translate(-87.555 -166.04)"><g id="g30"><g id="g22"><path id="path18" d="m310.48 282.27 131.04-9.91-1.37-2.16c-1.79.63-3.67 1.02-5.61 1.15-.54.04-1.08.06-1.63.06-5.02 0-9.69-1.53-13.08-4.19-4.12 3.67-8.1 5.66-11.88 5.92-.31.02-.62.03-.91.03-3.4 0-5.91-1.35-7.54-3.29-2.99 2.75-6.54 4.32-10.47 4.6-.36.03-.71.04-1.05.04-4.27 0-7.73-1.89-9.89-5.24-4.54 4.29-8.97 6.61-13.22 6.91-.4.03-.79.04-1.17.04-4.14 0-6.57-1.66-7.87-3.06-1.89-2.02-2.76-4.83-2.54-8.13.34-4.88 3.13-9.8 5.6-14.14.97-1.7 2.02-3.55 2.61-4.94-3.75 2.44-9.74 11.72-15.91 28.78l-.69 1.9-16.84 1.19 1.93-4.65c1.32-3.17 2.48-5.96 3.51-8.43 4.21-10.08 6.19-14.81 6.79-17.47-2.59 1.44-8.01 7.17-16.07 28.98l-.69 1.88-15.5 1.1c-1.71.76-3.38 1.2-5.01 1.31-.31.02-.62.03-.91.03-3.4 0-5.91-1.35-7.54-3.29-2.99 2.75-6.54 4.32-10.47 4.6-.36.03-.71.04-1.05.04-4.23 0-7.67-1.86-9.83-5.15-4.45 4.22-8.77 6.5-12.89 6.79-.47.03-.92.05-1.36.05-3.77 0-6.54-1.25-8.24-3.71-2.96-4.29-2.15-11.58 2.71-24.38 2.87-7.36 7.17-17.44 11.72-28.1 1.44-3.36 2.88-6.75 4.29-10.07l.74-1.75 17.35-1.23-2.11 4.73c-7.26 16.28-13.38 31.08-16.69 39.51-.63 1.58-2.14 5.33-2.99 8.03 1.39-1.13 3.37-3.16 5.86-6.61 2.78-11.76 12.33-24.17 23.84-24.98q.45-.03.9-.03c2.48 0 4.93.73 6.94 1.98l.63-1.59 16.93-1.2-2.27 5.3c-4.59 10.73-8.23 19.23-9.72 23.76 2.12-1.9 5.31-5.61 9.01-11.85l.21-.53c2.02-5.06 4.04-10.11 6.08-15.17l.73-1.8 16.7-1.18-.19.45c2.1-1.07 4.2-1.69 6.27-1.84.29-.02.57-.03.85-.03 2.88 0 5.35 1.1 6.96 3.1q.42.525.75 1.11c3.66-3.3 7.95-5.35 12.11-5.64.3-.02.59-.03.88-.03 2.89 0 5.48 1.06 7.27 2.98 1.81 1.94 2.7 4.64 2.5 7.59-.19 4.59-3.17 9.99-5.81 14.75-.59 1.06-1.28 2.3-1.86 3.45 1.33-1.24 3.09-3.22 5.28-6.3 3.67-15.22 14.93-24.08 23.78-24.71q.45-.03.9-.03c2.48 0 4.93.73 6.94 1.98l.63-1.59 16.93-1.2-2.27 5.31c-4.59 10.72-8.23 19.22-9.71 23.74.99-.88 2.26-2.19 3.77-4.11l.02-.03c5.96-8.41 9.65-15.5 13.15-25.23l.68-1.9 15.32-1.08.8 2.2c.45 1.23 1.1 2.72 1.79 4.3 2.47 5.63 5.85 13.35 5.3 21.37-.26 3.2-1.31 6.42-2.99 9.28l8.21 10.64c2.24 2.9 2.58 6.78.91 10.37-1.83 3.95-5.72 6.63-9.93 6.85L300.9 303.39l9.57-21.13zm-22.85-16.08s.09.03.29.03h.15c.96-.07 4.44-1.44 9.96-15.85-.4-.24-.91-.41-1.55-.41h-.24c-4.42.31-8.5 8.03-8.93 14.22-.09 1.34.22 1.94.31 2.02zm104.93-7.43s.09.03.29.03h.15c.96-.07 4.44-1.44 9.96-15.85-.4-.24-.91-.41-1.55-.41h-.24c-4.42.31-8.5 8.03-8.93 14.22-.09 1.34.22 1.94.31 2.02zm38.18-2.16q.915.51 2.01.51c.12 0 .24 0 .36-.01 2.92-.21 4.7-3.39 4.9-6.28.13-1.82-.07-3.63-.44-5.35-2.35 4.59-4.86 8.4-6.83 11.13" class="cls-25"/><path id="path20" d="M282.58 217.87c-7.31 16.4-13.46 31.28-16.74 39.64-4.18 10.4-4.87 13.54-2.26 13.54h.26c2.62-.19 6.59-3.94 10.65-9.69 2.48-11.49 11.42-22.49 21.17-23.18.23-.02.45-.02.68-.02 3.62 0 6.9 2.03 8.1 4.38l1.64-4.13 9.9-.7c-9.95 23.25-13.01 30.33-9.63 30.33h.19c3.38-.24 8.94-6.43 14.12-15.19 2.12-5.3 4.24-10.61 6.38-15.92l9.71-.69-3.46 8.19c4.87-6.18 9.94-9.6 14.6-9.93.21-.02.42-.02.63-.02 4.35 0 6.64 3.38 5.56 8.39 4-6.12 9.74-9.49 14.49-9.83.22-.02.44-.02.66-.02 4.2 0 6.97 2.96 6.67 7.25-.28 6.91-8.73 17.36-9.02 21.49-.08 1.18.56 1.88 1.69 1.88h.21c2.71-.19 6.66-4.15 10.71-9.97 2.57-11.39 11.44-22.22 21.11-22.9.23-.02.45-.02.68-.02 3.62 0 6.9 2.03 8.1 4.38l1.64-4.13 9.9-.7c-9.95 23.25-13.01 30.33-9.63 30.33h.19c2.18-.15 5.26-2.78 8.56-6.97.01-.02.02-.03.03-.05 5.99-8.46 9.88-15.72 13.58-26.03l10.97-.78c2.11 5.78 7.56 14.96 6.91 24.38-.27 3.34-1.56 6.75-3.71 9.64l9.57 12.4c3.53 4.58-.56 11.95-6.79 12.22L305.95 299.8l6.59-14.55 134.36-10.16-5.56-8.76a18.4 18.4 0 0 1-7.04 1.95c-.47.03-.94.05-1.41.05-4.94 0-10.13-1.8-13.07-5.4-3.81 3.91-8.03 6.84-12.11 7.13-.24.02-.47.02-.69.02-4.2 0-6.39-2.85-6.72-5.91-2.37 3.52-6.07 6.84-11.51 7.22-.28.02-.56.03-.83.03-4.64 0-7.79-2.87-8.84-7.72-4.35 5-9.47 9.05-14.49 9.41-.33.02-.64.03-.95.03-5.18 0-7.62-3.24-7.3-7.87.51-7.4 8.36-16.19 8.67-20.61.1-1.46-.44-2.44-1.9-2.44h-.25c-7.86.56-16.3 20.58-20.24 31.47l-9.8.69c8.11-19.52 10.49-24.66 10.73-28.12.1-1.47-.62-2.53-1.96-2.53h-.19c-7.86.56-15.74 19.58-20.14 31.47l-9.9.7 1.44-3.6c-3.24 2.89-6.7 4.93-10.05 5.16-.24.02-.47.02-.69.02-4.2 0-6.39-2.85-6.72-5.91-2.37 3.52-6.07 6.84-11.51 7.22-.28.02-.56.03-.83.03-4.6 0-7.74-2.82-8.82-7.61-4.29 4.94-9.3 8.92-14.13 9.26-.4.03-.77.04-1.14.04-8.42 0-8.85-7.49-2.62-23.88 3.76-9.64 10.19-24.45 15.96-38.06l10.29-.73m150.17 42.38c.19 0 .38 0 .58-.02 4.56-.32 7.48-4.74 7.78-9.16.35-5.1-1.35-9.85-3.19-13.93-3.06 7.97-7.61 15.08-11.32 19.84 1.24 1.71 3.26 3.27 6.15 3.27m-39.89 1.68c.12 0 .25 0 .37-.01 4.27-.3 8.58-6.73 13.34-19.7a6.1 6.1 0 0 0-5.14-2.78c-.15 0-.31 0-.46.02-6.41.45-11.3 9.7-11.81 17.1-.2 2.95.87 5.37 3.7 5.37m-104.93 7.43c.12 0 .25 0 .37-.01 4.27-.3 8.58-6.73 13.34-19.7a6.1 6.1 0 0 0-5.14-2.78c-.15 0-.31 0-.46.02-6.41.45-11.3 9.7-11.81 17.1-.2 2.95.87 5.37 3.7 5.37m4.54-58.39-10.33.73-10.29.73-3.8.27-1.49 3.5c-1.41 3.32-2.86 6.72-4.3 10.09-4.55 10.68-8.86 20.76-11.73 28.14v.03l-.02.03c-5.34 14.06-6.02 21.95-2.37 27.25 1.59 2.3 4.75 5.05 10.8 5.05.51 0 1.04-.02 1.58-.06 4.05-.29 8.18-2.13 12.35-5.49 2.65 2.47 6.15 3.85 10.15 3.85.42 0 .85-.02 1.27-.05 3.73-.26 7.15-1.49 10.16-3.62 2.12 1.48 4.74 2.32 7.63 2.32.37 0 .75-.01 1.13-.04q1.725-.12 3.48-.63l-6.42 14.17-4.45 9.81 10.72-1.06 144.5-14.35c5.31-.31 10.2-3.68 12.51-8.64 2.17-4.66 1.69-9.74-1.27-13.57l-6.99-9.05c1.33-2.76 2.16-5.74 2.4-8.68v-.08c.61-8.78-2.96-16.9-5.56-22.83-.67-1.53-1.3-2.97-1.72-4.11l-1.61-4.4-4.67.33-10.97.78-4.04.29-.67 1.86-8.04.57-9.9.7-3.9.28-.13.34a16.3 16.3 0 0 0-6.39-.83c-7.4.52-13.85 4.97-18.64 10.97-.56-1.79-1.48-3.41-2.75-4.77-2.39-2.56-5.78-3.97-9.54-3.97-.36 0-.73.01-1.1.04-3.89.28-7.86 1.85-11.44 4.4-2.14-1.93-4.98-2.98-8.17-2.98-.35 0-.71.01-1.07.04-1.89.13-3.79.59-5.69 1.36l-5.45.39-9.71.69-3.87.27-7.19.51-9.9.7-3.9.28-.13.34a16.3 16.3 0 0 0-6.39-.83c-5.27.37-10.54 2.88-15.12 7.15 2.45-5.78 5.21-12.13 8.15-18.73l4.22-9.46zm55.87 65.35.18-.49c.73-2.02 1.45-3.92 2.16-5.69.55 1.97 1.51 3.72 2.88 5.18.17.18.36.37.55.56zm28.89-2.18c.17-.13.34-.27.51-.4.12.12.24.23.37.34l-.88.07z" class="cls-22"/></g><g id="g28"><path id="path24" d="M214.69 311.78c-7.08 0-12.75-2.51-15.54-6.89-2.37-3.72-2.47-8.38-.29-13.13l31.31-76.63 25.46-.76-31.27 76.87c.12.02.27.03.44.03l84.36-9.24-9.68 20.8-83.73 8.94h-.12c-.32.01-.63.02-.94.02z" class="cls-25"/><path id="path26" d="m250.95 217.62-29.55 72.63c-1.06 2.28.42 4.12 3.39 4.12h.22l79-8.66-6.61 14.2-81.86 8.74c-.29 0-.57.01-.85.01-11.29 0-17.06-6.89-12.98-15.67l30.57-74.82 18.67-.56m9.35-6.48-9.53.28-18.67.56-4.04.12-1.53 3.74-30.52 74.7c-2.61 5.72-2.43 11.41.52 16.04 3.37 5.29 9.99 8.33 18.16 8.33.34 0 .68 0 1.03-.02h.24l.24-.03 81.86-8.74 3.49-.37 1.48-3.18 6.61-14.2 4.65-10-10.96 1.2-74.17 8.13 27.55-67.71 3.59-8.84z" class="cls-22"/></g></g><g id="g56"><g id="g36"><path id="path32" d="M303.63 219.74c-1.71 0-3.17-.63-4.11-1.78-.86-1.05-1.18-2.42-.9-3.86l3.11-15.79 6.67-.31-3.09 15.68s-.04-.1-.08-.12l.08 1.07.02-1.06 15.35-.72-1.21 6.16-15.52.73z" class="cls-24"/><path id="path34" d="m307.11 199.11-2.83 14.36c-.13.64.33 1.15 1.04 1.15h.07l14-.66-.79 4.03-14.69.69h-.27c-2.7 0-4.46-1.91-3.97-4.38l2.95-14.98 4.5-.21m2.58-2.24-2.69.13-4.5.21-1.65.08-.32 1.62-2.95 14.98c-.35 1.76.05 3.44 1.12 4.74 1.13 1.38 2.93 2.16 4.92 2.16h.37l14.69-.69 1.65-.08.32-1.62.79-4.03.52-2.64-2.69.13-12.66.6 2.55-12.93.52-2.64z" class="cls-25"/></g><g id="g42"><path id="polygon38" d="m336.02 218.22-6.67.32 4.29-21.74 6.66-.31z" class="cls-24"/><path id="path40" d="m339.01 197.61-3.86 19.6-4.5.21 3.86-19.6zm2.59-2.24-2.69.13-4.5.21-1.65.08-.32 1.62-3.86 19.6-.52 2.64 2.69-.13 4.5-.21 1.65-.08.32-1.62 3.86-19.6z" class="cls-25"/></g><g id="g48"><path id="path44" d="M349.57 201.45c.6-3.05 3.7-5.57 7.06-5.73l2.89-.14h.32c1.7 0 3.15.63 4.09 1.77.87 1.06 1.19 2.43.9 3.88l-1.12 5.68s-.04-.1-.08-.12l.08 1.07.02-1.06 1.5-.07c.3-.01.57-.27.6-.43l1.12-5.68c.6-3.05 3.7-5.57 7.06-5.73l2.87-.14h.33c1.7 0 3.16.63 4.1 1.78.87 1.05 1.19 2.43.9 3.88l-3.11 15.78-6.67.31 3.09-15.67s.04.1.08.12l-.08-1.07-.02 1.06-1.49.07c-.3.01-.57.26-.6.43l-1.12 5.68c-.6 3.05-3.7 5.57-7.06 5.73l-2.89.14h-.32c-1.7 0-3.15-.63-4.09-1.77-.87-1.06-1.19-2.44-.9-3.89l1.12-5.68s.04.1.08.12l-.08-1.07-.02 1.06-1.51.07c-.3.01-.57.26-.6.43l-2.99 15.16-6.67.31 3.21-16.29z" class="cls-24"/><path id="path46" d="M377.21 195.82c2.7 0 4.46 1.92 3.97 4.4l-2.95 14.96-4.5.21 2.83-14.34c.13-.65-.33-1.15-1.04-1.15h-.07l-1.49.07c-.75.04-1.46.6-1.59 1.28l-1.12 5.68c-.51 2.57-3.23 4.74-6.07 4.88l-2.89.14h-.27c-2.69 0-4.45-1.92-3.96-4.4l1.12-5.68c.13-.65-.34-1.15-1.04-1.15h-.07l-1.5.07c-.75.04-1.46.6-1.59 1.28l-2.83 14.34-4.5.21 2.95-14.96c.51-2.57 3.22-4.74 6.07-4.88l2.89-.14h.27c2.69 0 4.45 1.92 3.96 4.4l-1.12 5.68c-.13.65.34 1.15 1.04 1.15h.07l1.5-.07c.75-.04 1.46-.6 1.59-1.28l1.12-5.68c.51-2.57 3.22-4.74 6.07-4.88l2.87-.14zm0-2.12h-.38l-2.87.14c-3.72.18-7.17 2.92-7.98 6.3a5.45 5.45 0 0 0-1.25-3.47c-1.13-1.37-2.92-2.16-4.91-2.16h-.37l-2.89.14c-3.82.18-7.35 3.07-8.04 6.58l-2.95 14.96-.52 2.65 2.69-.13 4.5-.21 1.65-.08.32-1.62 1.65-8.36c.02 1.28.44 2.47 1.25 3.44 1.13 1.37 2.92 2.16 4.91 2.16h.37l2.89-.14c3.31-.16 6.4-2.35 7.62-5.21l-1.24 6.28-.52 2.64 2.69-.13 4.5-.21 1.65-.08.32-1.62 2.95-14.96c.35-1.76-.05-3.45-1.12-4.76-1.13-1.37-2.92-2.16-4.92-2.16z" class="cls-25"/></g><g id="g54"><path id="path50" d="M392.66 199.42c.6-3.05 3.7-5.57 7.06-5.73l9.53-.45h.32c1.7 0 3.16.63 4.1 1.78.87 1.05 1.19 2.43.9 3.88l-3.11 15.78-6.67.31.79-4.03-8.68.41-.79 4.03-6.67.31 3.21-16.29zm7.05.39c-.3.01-.57.26-.6.43l-.98 4.95 8.68-.41 1.06-5.35z" class="cls-24"/><path id="path52" d="M409.57 194.29c2.7 0 4.46 1.92 3.97 4.4l-2.95 14.96-4.5.21.79-4.03-10.85.51-.79 4.03-4.5.21 2.95-14.96c.51-2.57 3.22-4.74 6.07-4.88l9.53-.45h.27m-12.72 12.02 10.85-.51 1.24-6.28c.13-.65-.33-1.15-1.03-1.15h-.07l-8.17.38c-.75.04-1.46.6-1.59 1.28l-1.24 6.28m12.74-14.13h-.37l-9.53.45c-3.82.18-7.35 3.07-8.04 6.58l-2.95 14.96-.52 2.64 2.69-.13 4.5-.21 1.65-.08.32-1.62.47-2.4 6.51-.31-.27 1.38-.52 2.64 2.69-.13 4.5-.21 1.65-.08.32-1.62 2.95-14.96c.35-1.76-.05-3.45-1.12-4.76-1.13-1.37-2.92-2.16-4.92-2.16zm-9.51 8.67 6.51-.31-.63 3.22-6.51.31z" class="cls-25"/></g></g><g id="g276"><g id="g62"><path id="path58" d="m358.91 317.3.01.01.05.05z" class="cls-22"/><path id="path60" d="M358.32 375.52c2.14-.43 4.6-1.53 7.01-3.94 3.01-3.01 4.11-6.06 4.42-8.45 3.32-3.79 4.15-7.43 4.18-10.05 0-.66-.03-1.3-.11-1.9 1.23-2.24 1.83-4.57 1.79-6.97-.04-2.33-.69-4.38-1.66-6.08-.03-1.69-.35-3.32-.95-4.85-.42-1.06-.97-2.07-1.65-3.01a14 14 0 0 0-2.17-2.36c-1.75-4.6-5.19-7.35-8.62-8.71-.15-.19-.3-.38-.46-.57a11 11 0 0 0-.37-.44c-.25-.29-.51-.56-.82-.86-.1-.11-.21-.21-.31-.31q-.57-.54-1.17-1.02c-.02-.02-.05-.04-.07-.06l-.26-.2c-.3-.23-.6-.44-.9-.64-.03-.02-.05-.04-.08-.05l-.39-.25c-.28-.17-.55-.34-.87-.51-.13-.07-.26-.14-.44-.23-.28-.14-.55-.28-.83-.41l-.09-.04c-.12-.05-.23-.11-.38-.17-.3-.13-.61-.25-.92-.37-.12-.05-.23-.09-.35-.13-.41-.15-.83-.27-1.29-.4l-.11-.03c-.36-.1-.71-.18-1.11-.27l-.18-.04s-.08-.02-.12-.02c-.29-.06-.59-.11-.88-.16-.03 0-.12-.02-.15-.02-.05 0-.11-.02-.16-.02-.32-.05-.64-.09-.88-.11l-.23-.02c-2.8-.28-5.33-.05-7.11.24-5.61-1.16-10.34.37-13.76 2.53-1.65-.32-3.29-.42-4.9-.29-.15.01-.29.03-.49.05-.15.01-.3.03-.44.05l-.24.03c-44.81-15.5-96.42-7.17-118.98-2.17-.05-.23-.1-.46-.16-.69v-.02c-.28-1.1-.66-2.15-1.14-3.12.04-.36.06-.72.07-1.08.07-2.42-.47-4.6-1.19-6.41.49-1.66.75-3.33.79-5.01a18.3 18.3 0 0 0-1.18-6.9c.99-2.35 1.48-4.84 1.45-7.4-.02-1.55-.23-3.1-.63-4.6.65-2.39.99-4.66 1.04-6.77.07-3.28-.58-5.9-1.51-7.95.99-2.41 1.49-4.82 1.47-7.23a16.46 16.46 0 0 0-2.78-9.09c.14-.94.2-1.88.18-2.84-.08-3.03-1.06-6.02-2.83-8.72.27-1.3.43-2.58.45-3.85.1-4.34-1.21-7.65-2.66-9.98v-.79c-.15-4.26-2.07-7.74-4.56-10.31 3.53-5.03 6.97-10.22 8.07-15.75 2.63-13.15-2.89-20.77-7.98-24.84-5.38-4.3-10.09-2.78-11.87-1.93-6.7 3.22-6.7 11.87-6.7 15.12 0 1.58-1.19 3.97-3.55 7.13-1.75-.6-3.44-.85-4.95-.88a15 15 0 0 0-1.41-.52c-.37-.12-.75-.22-1.18-.33-.25-.06-.49-.12-.7-.16-.35-.07-.7-.12-.99-.16-.61-.09-1.22-.14-1.75-.17-.08 0-.16 0-.23-.01-.17-.01-.36-.02-.58-.02-.27 0-.52 0-.79.02h-.32c-.4.03-.8.06-1.2.1-1.64.17-3.3.52-4.92 1.05-.43.14-.84.28-1.21.42-2.96-.22-5.51.09-7.69.75-5.06-4.54-10.03-9.2-11.03-10.5-.15-.25-.38-1.01-.52-1.47-.52-1.71-2.12-6.91-7.88-7.62-3.89-.47-7.14 1.4-9.64 5.57-3.96 6.59-3.46 15.91 1.36 25.55 1.12 2.25 2.51 4.32 3.95 6.16-2 2.52-3.03 5.48-2.93 8.48 0 .18.02.35.03.53-.04.61-.03 1.21.02 1.82-2.05.41-3.98 1.31-5.61 2.62-.29.24-.54.46-.72.63-.16.14-.31.29-.45.44-.79.81-1.47 1.71-2.02 2.69-.3.52-.56 1.07-.78 1.64-.15.3-.26.53-.33.68a8.4 8.4 0 0 0-.65 4.17c-.15 1.51.11 3.05.78 4.44-.55.88-1.04 1.78-1.48 2.69-.19.39-.36.77-.52 1.16-.51 1.21-.83 2.48-.95 3.77-.18 1.88.07 3.74.73 5.52.62 1.67 1.57 3.16 2.81 4.42.82.84 1.76 1.57 2.77 2.14.27.16.55.3.83.44.8 1.8 1.96 3.43 3.42 4.79 2.14 2.01 4.8 3.34 7.69 3.84 1.18.21 2.36.27 3.53.19.04.29.1.59.17.88-1.59 2.92-2.32 5.69-2.2 8.4.08 1.7.48 3.21 1.11 4.55-.3.93-.51 1.83-.65 2.71-3.84 3.49-4.56 7.42-4.58 9.84q0 1.2.18 2.28c-2.84 3.65-3.57 7.27-3.57 10.02 0 .62.04 1.22.1 1.78-1.84 2.94-2.82 6.32-2.85 9.98-.01 1.43.12 2.77.33 3.98-2.73 3.8-3.47 7.36-3.53 9.95-.05 2.07.31 3.91.84 5.47-.76 1.97-1.13 3.98-1.11 5.96.02 1.53.27 3.03.76 4.47l.15.42c-.83 2.28-1.22 4.66-1.17 7.12.08 4.21 1.46 7.8 2.8 10.32-.23 1.37-.35 2.71-.38 4.01-.09 4.52 1.09 8.66 3.37 11.94-.26 1.58-.38 3.11-.34 4.6.2 8.21 4.82 13.41 9.16 16.21 2.06 5.77 5.87 9.2 9.56 11.07l.06.18c.04.12.08.24.12.37-1.64 2.16-2.54 4.45-3.01 6.51-2.89 2.05-4.91 4.79-5.85 7.97-4.16 2.69-6.92 7.08-7.74 12.44-4.79 4.64-6.03 9.5-6.15 13.01-.18 5.25 1.99 9.44 3.78 11.98 1.05 5.95 3.96 9.63 6.38 11.74 4.23 3.68 9.11 4.65 12.11 4.87l4.16 2.03c-7.89 6.98-13.24 16.58-14.86 27.22-.14.45-.24.91-.31 1.39-.08.57-.09 1.14-.06 1.7-.11 1.29-.16 2.56-.16 3.79 0 5.65 1.02 11.13 2.99 16.26-6.43 1.02-11.79 2.08-16.04 3.18-5.31 1.37-16.36 4.22-16.1 13.36.26 9.24 11.38 11.38 17.36 12.53 7.08 1.37 17.06 2.48 29.66 3.3 15.96 1.04 35.18 1.58 56.12 1.58 12.45 0 25.5-.19 38.85-.57 35.79-1.02 69.44-3.29 94.76-6.39 12.53-1.54 22.43-3.21 29.43-4.98 5.9-1.49 16.88-4.26 16.62-13.5-.28-9.74-12.78-11.81-20.25-13.05-6.46-1.07-14.81-1.96-24.89-2.66l10.29-29.65c6.38-4.62 7.54-10.28 7.62-13.49.06-2.41-.44-4.58-1.09-6.37 1.56-3.9 2.32-7.68 2.26-11.28-.04-2.6-.51-4.8-1.14-6.62.97-2.36 1.21-4.49 1.17-6.12-.05-2.42-.85-5.04-2.15-7.36.54-2.15.8-4.37.78-6.63-.03-2.52-.42-4.76-.91-6.61 1.66-3.2 2.52-6.78 2.52-10.58 0-.71-.03-1.39-.09-2.03 4.39-4.36 5.13-9.27 5.09-12.21 0-.15 0-.29-.01-.43 3.52-3.83 5.57-9.3 5.76-15.67 1.4-3.2 2.08-6.49 2.01-9.8-.02-.93-.09-1.82-.22-2.67.46-.41.88-.83 1.25-1.27zM212.7 523.72l2.03-28.06c3.51-3.04 5.42-7.23 6.32-11 3.82-2.89 6.05-7.62 6.09-13.39 0-.34 0-.67-.01-.99 2.13-2.97 2.7-5.78 2.73-7.84 0-.25 0-.5-.01-.74 1.77-2.56 2.74-5.75 2.74-9.33 0-1.06-.08-2.07-.21-2.99 1.89-3.23 2.92-7.05 2.97-11.15 2.6-2.96 4.3-6.33 5.02-9.9l10.82-1.01c.41 1.27.98 2.51 1.75 3.62.18 4.98 2.25 9.28 4.95 12.36v.52c-.01 4.57 1.54 8.84 4.4 12.15v.77c0 .12 0 .24.01.35.01.31.03.61.05.89.01.15.02.29.03.4.03.29.06.56.09.83.02.12.03.25.05.34.06.39.12.76.2 1.11.01.05.02.11.04.16v.02c.07.32.15.63.24.96l.08.28c.08.25.16.5.24.74 0 .02.03.07.03.09l.08.23c.11.29.22.56.33.82.02.04.03.07.04.1.02.04.03.07.05.11.16.34.32.66.51 1 .02.04.06.1.08.15.14.25.29.48.4.65.06.09.12.18.15.22.17.25.34.49.51.71l.11.14c.02.03.05.06.07.09.21 4.25 1.74 7.78 3.89 10.41.12 3.52 1.5 6.62 3.59 9.05-2.19 6.6-6.59 16.5-10.16 23.96-5.78.9-10.88 4.38-13.82 9.48l-1.58 2.74c-6.39.09-12.84.23-19.26.42-5.2.15-10.44.33-15.65.53zm-50.26-64.07c.74-.69 1.67-1.72 2.47-3.14 1.33-.37 2.68-.97 3.96-1.9.8-.58 1.82-1.47 2.75-2.77.4-.06.8-.13 1.21-.22.09.6.24 1.18.42 1.75-.46 1.67-.7 3.32-.74 4.95-.06 2.79.5 5.15 1.27 7.05a19.2 19.2 0 0 0-9.57-1.66l-3.91-2.47c.73-.44 1.45-.97 2.13-1.6zm183.2-64.04h.02zm.24.04" class="cls-22"/></g><path id="path64" d="M127.44 208.79s-6.68-5.01-10.01-11.68-4.17-13.35-1.67-17.52 1.67.83 4.17 4.17 15.86 15.02 15.86 15.02" class="cls-17"/><ellipse id="ellipse66" cx="228.95" cy="544.04" rx="133.1" ry="12.52" style="stroke-miterlimit:10;stroke:#3d001f;stroke-width:2.29px;fill:#3d001f" transform="rotate(-1.63 228.176 542.532)"/><g id="g82"><g id="g78"><circle id="circle68" cx="160.5" cy="515.5" r="35.5" style="stroke-miterlimit:10;stroke:#3d001f;fill:#bf213c;stroke-width:5.87px"/><path id="path70" d="M160.5 480s-20.24 36.38 0 71" class="cls-5"/><path id="path72" d="M125 513.15s39.9 7.95 71-4.09" class="cls-5"/><path id="path74" d="M138.56 488.93s-2.8 15.98 12.94 16.83c0 0 5.65 1.12 12.03-6.13 3.1-3.53 8.03-5.24 12.9-4.51l15.03 2.26" class="cls-5"/><path id="path76" d="M138.56 542.07s-2.8-16.53 12.94-17.41c0 0 5.65-1.16 12.03 6.34 3.1 3.65 8.03 5.43 12.9 4.67l15.03-2.34" class="cls-5"/></g><path id="path80" d="M145.53 483.3S148 493 173 493l15.26 3.89-9.89-11.39-19.48-2.2-4.35-3.3" class="cls-30"/></g><path id="path84" d="M258.46 418.25c0 10.85 3.34 8.35 3.34 8.35-2.5 9.18 5.01 13.35 5.01 13.35-2.5 9.18 4.17 12.52 4.17 12.52-1.67 10.01 3.34 10.85 3.34 10.85-1.67 8.35 4.17 10.85 4.17 10.85-2.5 6.68 4.17 9.18 4.17 9.18-1.67 10.01-14.19 35.05-14.19 35.05l-3.47.32c-3.58.33-6.78 2.37-8.58 5.49l-5.79 10.05h25.34c1.67-8.35 7.51-12.52 7.51-12.52l15.86-36.72 3.03-18.99-18.36-50.9-26.7-.83" class="cls-30"/><path id="path86" d="m258.21 417.37.25.88c0 10.85 3.34 8.35 3.34 8.35-2.5 9.18 5.01 13.35 5.01 13.35-2.5 9.18 4.17 12.52 4.17 12.52-1.08 6.45.62 9.09 1.96 10.15-.94-8.66 2.74-11.57 2.74-11.57-7.51-5.79-2.5-10.07-2.5-10.07-7.51-4.17-5.84-11.68-5.84-11.68-5.01-4.17-3.34-9.18-3.34-9.18z" class="cls-31"/><path id="polygon88" d="m282.35 486.05-10.84 31.71 16.69-30.88z" class="cls-22"/><path id="path90" d="M139.49 412.73c-7.14 1.99-6.21 9.69-6.21 9.69-7.51 2.5-5.84 8.35-5.84 8.35-8.35 1.67-7.51 10.85-7.51 10.85-11.68 8.35-2.5 17.52-2.5 17.52.83 12.52 12.52 11.68 12.52 11.68l32.55 15.86 25.87 3.34S187.54 475 173.35 475a11.04 11.04 0 0 0-10.35-2.63l-.5.13-15.86-10.01s5.84-4.17 3.34-7.51c0 0 9.18 1.67 8.35-6.68 0 0 7.51 2.5 7.51-5.01 0 0 9.18 2.5 9.18-5.01 0 0 3.34.83 6.68-1.67l4.29-3.55-6.68-16.69-35.05-9.18" class="cls-16"/><path id="polygon92" d="m178.92 485.04-40.1-14.02 25.45 12.11z" class="cls-22"/><path id="path94" d="M126.61 455.8s3.89 1.38 7.15-.26c1.44-.72.8-2.95-.79-2.74-2.52.34-5.14-.43-4.69-5.35.45-4.93 3.54-5.77 6.32-5.49 1.39.14 2.51-1.11 2.14-2.46-.49-1.8-.22-4.04 2.4-6.27 2.56-2.18 4.63-1.64 6.16-.36 1.23 1.04 3.12.58 3.84-.87.98-1.97 2.92-4.05 6.69-5.42 0 0-7.92 2.5-7.71-7.93 0 0-4.95 2.1-12.8-3.32-2.5 2.99-2.02 7.08-2.02 7.08-7.51 2.5-5.84 8.35-5.84 8.35-8.35 1.67-7.51 10.85-7.51 10.85-11.68 8.35-2.5 17.52-2.5 17.52.83 12.52 12.52 11.68 12.52 11.68l.25.12 2.25-.96s-7.51-2.5-5.84-14.19z" class="cls-18"/><path id="path96" d="M365.27 340.64c1.67-5.84-3.34-7.51-3.34-7.51-.83-6.68-6.68-6.68-6.68-6.68-4.17-9.18-15.86-5.84-15.86-5.84-7.51-2.5-11.68 3.34-11.68 3.34-5.01-2.5-8.35-.83-8.35-.83-56.75-20.86-127.68 0-127.68 0 3.34-10.85-1.43-13.03-1.43-13.03 2.74-3.86-1.07-8.66-1.07-8.66 4.17-7.51-.83-12.52-.83-12.52 5.01-5.84 1.67-11.68 1.67-11.68 4.17-11.68-1.67-14.19-1.67-14.19 7.51-10.01-.83-15.02-.83-15.02 4.17-6.68-2.5-11.68-2.5-11.68 4.17-9.18-1.67-13.35-1.67-13.35 2.5-6.68-5.01-10.01-5.01-10.01-.83-9.18-10.85-12.52-10.85-12.52-4.17-5.01-8.56-3.61-8.56-3.61-5.22-3.61-12.3.27-12.3.27-10.01-1.67-11.68 5.01-11.68 5.01-7.51.83-7.51 6.68-7.51 6.68-4.17 0-10.01 4.17-7.51 8.35s5.01 2.5 5.01 2.5l-7.51 6.68c-1.53-.51-3.06-.55-4.45-.37-3.58.48-5.35 4.73-3.19 7.63.95 1.28 1.8 1.91 1.8 1.91-2.32 2.32-3.76 4.64-4.65 6.74-1.47 3.48 1.97 7 5.47 5.58 0 .58.03 1.22.09 1.9.41 4.61 5.27 7.41 9.45 5.43l8-3.79 2.5 5.84c-7.51 5.01-2.5 8.35-2.5 8.35-7.51 9.18-.83 10.85-.83 10.85-4.17 6.68-1.67 8.35-1.67 8.35-9.18 4.17-3.34 10.01-3.34 10.01-8.35 5.84-4.17 11.68-4.17 11.68-6.68 5.84-2.5 14.19-2.5 14.19-8.35 7.51-2.5 13.35-2.5 13.35-5.01 6.68-.1 10.47-.1 10.47-5.94 7.97.93 16.23.93 16.23-3.34 11.68 3.34 15.02 3.34 15.02-5.01 14.19 6.68 17.52 6.68 17.52 1.67 10.01 9.6 10.43 9.6 10.43 1.67 15.02 15.02 10.85 15.02 10.85 5.01 10.01 15.86 4.17 15.86 4.17 4.17 8.35 10.85 5.84 10.85 5.84-.42 3.76 2.92 4.59 2.92 4.59-2.5 8.35 1.67 7.51 1.67 7.51-2.5 9.18.83 9.18.83 9.18-3.34 5.01 0 6.68 0 6.68-4.17 8.35.83 12.52.83 12.52-2.5 8.35 2.5 12.52 2.5 12.52-1.67 9.18 5.84 10.85 5.84 10.85l-5.84 44.23c-12.52 11.68-11.68 21.7-11.68 21.7l28.37-5.84 4.17-57.58c6.68-2.5 6.68-11.68 6.68-11.68 7.51-1.67 5.01-11.68 5.01-11.68 5.84-5.01 1.67-8.35 1.67-8.35 6.68-2.5 3.34-11.68 3.34-11.68 5.01-5.01 3.34-12.52 3.34-12.52 8.35-6.68 5.01-14.19 5.01-14.19l26.7-2.5 18.36 1.67c-1.67 10.01 5.84 11.68 5.84 11.68-2.5 10.01 4.17 11.68 4.17 11.68-2.5 10.85 5.84 10.85 5.84 10.85-2.5 12.52 6.68 13.35 6.68 13.35-4.17 9.18 3.34 12.52 3.34 12.52 0 8.35 6.68 9.18 6.68 9.18l-11.68 38.39c-12.52 1.67-15.77 15.86-15.77 15.86h24.95l7.51-13.35 14.19-40.89c10.85-5.84 4.17-14.19 4.17-14.19 6.68-12.52.83-18.36.83-18.36 5.84-6.68-.83-11.68-.83-11.68 4.17-8.35 0-15.86 0-15.86 5.84-6.68 2.5-15.02 2.5-15.02 9.18-5.01 5.01-12.52 5.01-12.52 7.51-3.34 6.68-14.19 6.68-14.19 5.01-9.18-.83-15.86-.83-15.86 6.68 1.67 7.51-5.01 7.51-5.01s2.5 2.5 5.84-.83c3.34-3.34 1.67-5.84 1.67-5.84 7.51-5.84 3.34-10.01 3.34-10.01 5.84-5.84.83-9.18.83-9.18z" class="cls-16"/><path id="polygon98" d="M195.68 498.88h-3.7l-2.26 27.22z" class="cls-22"/><path id="path100" d="m329.17 337.98.66.16c.27.06 6.65 1.67 6 9.73l-.07.96.91.32c.34.12 8.33 3.05 4.93 13.81l-.3.95c1.21-1.76 2.44-4.61 3.24-9.26-1.18-4.45-4.54-6.65-6.16-7.47.2-7.03-4.33-10.33-7.32-11.3-4-9.84-15.63-9.24-15.75-9.24l.15 2.5c.42-.03 10.36-.5 13.48 8.2z" class="cls-22"/><path id="path102" d="M170.13 203.33c-1.52-.84-2.63-1.21-2.63-1.21-4.17-5.01-8.56-3.61-8.56-3.61-5.22-3.61-12.3.27-12.3.27-10.01-1.67-11.68 5.01-11.68 5.01-7.51.83-7.51 6.68-7.51 6.68-3.84 0-9.08 3.53-7.95 7.34l.15.12s.75-5.34 9.55-5.88c0 0 .45-6.38 11.3-7.22 0 0 .83-5.84 9.18-3.34 0 0 6.68-5.84 9.18 1.67 0 0 4.17-4.17 9.18 2.5 2.14 2.85 2.45.87 2.1-2.33z" class="cls-31"/><path id="path104" d="M137.88 218.47s.57-8 10.77-7.49l13.97.49s.18-4.93-6.8-4.95c0 0-4.47-.07-7.81 2.04 0 0-3.53-1.27-5.94 0s-6.8 2.7-4.19 9.91" class="cls-22"/><path id="polygon106" d="m309.06 491.05-10.85 31.71 16.69-30.87z" class="cls-22"/><path id="path108" d="M319.69 476.78c-6.78 3.03-9.91-2.2-9.91-2.2 5.01-.83 7.51-5.01 7.51-5.01 5.84-9.18-.83-13.35-.83-13.35s.83 2.5-2.48 5.9c-3.32 3.4-4.19.77-.86-8.41 3.34-9.18-4.17-10.01-4.17-10.01-4.17 8.35-8.35 3.34-3.34-3.34s.83-15.02.83-15.02-2.5 5.01-9.18 4.32c-6.68-.68 0-11 0-11-8.35 6.68-17.52.83-17.52.83l-3.06 1.41c-1.03 9.13 5.98 10.69 5.98 10.69-2.5 10.01 4.17 11.68 4.17 11.68-2.5 10.85 5.84 10.85 5.84 10.85-2.5 12.52 6.68 13.35 6.68 13.35-4.17 9.18 3.34 12.52 3.34 12.52 0 8.35 6.68 9.18 6.68 9.18l-1.29 4.24 5.04-5.49c-.83-1.67-3.34-5.01-3.34-5.01 8.35 0 9.91-6.14 9.91-6.14z" class="cls-18"/><g id="g116"><path id="path110" d="M153.93 196.21s4.39-1.4 8.56 3.61c0 0 10.01 3.34 10.85 12.52 0 0 7.51 3.34 5.01 10.01 0 0 5.84 4.17 1.67 13.35 0 0 6.68 5.01 2.5 11.68 0 0 8.35 5.01.83 15.02 0 0 5.84 2.5 1.67 14.19 0 0 3.34 5.84-1.67 11.68 0 0 5.01 5.01.83 12.52 0 0 3.81 4.81 1.07 8.66 0 0 4.77 2.19 1.43 13.03 0 0 2-.59 5.58-1.46 2.14-9.04-2-10.94-2-10.94 2.74-3.86-1.07-8.66-1.07-8.66 4.17-7.51-.83-12.52-.83-12.52 5.01-5.84 1.67-11.68 1.67-11.68 4.17-11.68-1.67-14.19-1.67-14.19 7.51-10.01-.83-15.02-.83-15.02 4.17-6.68-2.5-11.68-2.5-11.68 4.17-9.18-1.67-13.35-1.67-13.35 2.5-6.68-5.01-10.01-5.01-10.01-.83-9.18-10.85-12.52-10.85-12.52-4.17-5.01-8.56-3.61-8.56-3.61-2.08-1.44-4.45-1.68-6.56-1.46.53.22 1.05.48 1.55.82z" class="cls-31"/><path id="path112" d="M322.71 323.32s.2-.28.59-.69c-.84-.08-1.57-.05-2.16.02.5.18 1.02.4 1.57.67" class="cls-31"/><path id="path114" d="M365.27 340.64c1.67-5.84-3.34-7.51-3.34-7.51-.83-6.68-6.68-6.68-6.68-6.68-2.52-5.55-7.8-6.52-11.57-6.42 2.56.8 5.05 2.47 6.56 5.79 0 0 5.84 0 6.68 6.68 0 0 5.01 1.67 3.34 7.51 0 0 5.01 3.34-.83 9.18 0 0 4.17 4.17-3.34 10.01 0 0 1.67 2.5-1.67 5.84s-5.84.83-5.84.83-.83 6.68-7.51 5.01c0 0 5.84 6.68.83 15.86 0 0 .83 10.85-6.68 14.19 0 0 4.17 7.51-5.01 12.52 0 0 3.34 8.35-2.5 15.02 0 0 4.17 7.51 0 15.86 0 0 6.68 5.01.83 11.68 0 0 5.84 5.84-.83 18.36 0 0 6.68 8.35-4.17 14.19l-.19.53 5.03.57.16-.47c10.85-5.84 4.17-14.19 4.17-14.19 6.68-12.52.83-18.36.83-18.36 5.84-6.68-.83-11.68-.83-11.68 4.17-8.35 0-15.86 0-15.86 5.84-6.68 2.5-15.02 2.5-15.02 9.18-5.01 5.01-12.52 5.01-12.52 7.51-3.34 6.68-14.19 6.68-14.19 5.01-9.18-.83-15.86-.83-15.86 6.68 1.67 7.51-5.01 7.51-5.01s2.5 2.5 5.84-.83c3.34-3.34 1.67-5.84 1.67-5.84 7.51-5.84 3.34-10.01 3.34-10.01 5.84-5.84.83-9.18.83-9.18z" class="cls-31"/></g><path id="path118" d="M203.38 463.31c-3.34 2.5-5.01 1.67-5.01-2.5 0-1.17-.39-1.94-.96-2.46-1.03-.93-.94-2.59.18-3.4 7.93-5.74 4.11-10.83 4.11-10.83-1.15.58-2.16.93-3.03 1.12-2.27.49-3.69-2.4-1.9-3.88 5.31-4.4 4.1-12.26 4.1-12.26-.55.82-1.63 1.46-2.85 1.95-1.73.7-3.52-.97-2.93-2.75 1.3-3.92-.07-7.55-.07-7.55-.62 1.25-2.06 2.03-3.62 2.52-1.92.6-3.62-1.47-2.61-3.21 3.16-5.47 2.06-9.32 2.06-9.32s-1.67 3.34-5.85 1.99 2.51-7 2.51-7c5.84-9.18-1.67-15.02-1.67-15.02s-2.5 5.84-5.84 7.51-9.18-2.5-2.5-10.88c6.68-8.37 0-14.16 0-14.16s-5.01 4.17-9.18 2.5-1.67-8.35-1.67-8.35c-3.76 2.15-6.56 2.57-8.64 2.15-3.22-.64-3.25-5.2-.05-5.9 10.22-2.24 14.53-12.1 14.53-12.1-2.75 1.37-4.96 1.66-6.68 1.43-2.66-.36-3.46-3.8-1.31-5.41 9.04-6.81 2.98-13.54 2.98-13.54-3.94 2.73-7.33 3.59-10.05 3.57-2.86-.02-4.11-3.61-1.86-5.38 3.21-2.52 4.41-5.7 4.41-5.7 1.23-4.5-.96-6.6-3.51-7.56-1.11-.42-1.1-2 .02-2.42 3.05-1.15 6.03-2.87 5.16-5.04-.74-1.85-2.3-3.05-3.81-3.8-1.01-.5-.9-1.97.16-2.36 3.4-1.26 7.83-3.59 7.83-7.19 0-2.9-1.85-4.16-3.72-4.68-1.06-.3-1.24-1.73-.32-2.33 2.33-1.5 5.02-3.61 5.2-5.44.16-1.56-.48-2.79-1.19-3.64-.74-.9-.73-2.18-.01-3.1 1.88-2.41 1.2-4.21.37-5.25-.58-.73-.61-1.76-.19-2.59 2.44-4.82-.97-8.85-.97-8.85-6.68 4.17-17.52-.83-23.37-2.5-5.84-1.67-5.01-6.68-5.01-6.68l-5.01 2.23.83 1.95c-7.51 5.01-2.5 8.35-2.5 8.35-7.51 9.18-.83 10.85-.83 10.85-4.17 6.68-1.67 8.35-1.67 8.35-9.18 4.17-3.34 10.01-3.34 10.01-8.35 5.84-4.17 11.68-4.17 11.68-6.68 5.84-2.5 14.19-2.5 14.19-8.35 7.51-2.5 13.35-2.5 13.35-5.01 6.68-.1 10.47-.1 10.47-5.94 7.97.93 16.23.93 16.23-3.34 11.68 3.34 15.02 3.34 15.02-5.01 14.19 6.68 17.52 6.68 17.52 1.67 10.01 9.6 10.43 9.6 10.43 1.67 15.02 15.02 10.85 15.02 10.85 5.01 10.01 15.86 4.17 15.86 4.17 4.17 8.35 10.85 5.84 10.85 5.84-.42 3.76 2.92 4.59 2.92 4.59-2.5 8.35 1.67 7.51 1.67 7.51-2.5 9.18.83 9.18.83 9.18-3.34 5.01 0 6.68 0 6.68-4.17 8.35.83 12.52.83 12.52-2.5 8.35 2.5 12.52 2.5 12.52-1.67 9.18 5.84 10.85 5.84 10.85l-.09.67 1.76.16c5.01-7.51-.83-9.18-.83-9.18 7.51-.83 7.51-4.17 7.51-4.17-5.01 1.67-6.68-3.34-6.68-3.34 7.51-1.67 13.35-11.68 10.01-9.18z" class="cls-18"/><g id="g124"><path id="path120" d="M157.07 414.5s-3.11.97-6.52.28c3.27 6.19 8.84 6.02 12.39 5.11-2.19-.7-4.31-2.28-5.87-5.4z" class="cls-22"/><path id="path122" d="M142.04 403.65s-7.93-.42-9.6-10.43c0 0-11.68-3.34-6.68-17.52 0 0-6.68-3.34-3.34-15.02 0 0-6.88-8.26-.93-16.23 0 0-4.91-3.8.1-10.47 0 0-5.84-5.84 2.5-13.35 0 0-4.17-8.35 2.5-14.19 0 0-4.17-5.84 4.17-11.68 0 0-5.84-5.84 3.34-10.01 0 0-2.5-1.67 1.67-8.35 0 0-6.68-1.67.83-10.85 0 0-4.59-3.07 1.63-7.73-2.07-2.1-1.63-4.79-1.63-4.79l-5.01 2.23.83 1.95c-7.51 5.01-2.5 8.35-2.5 8.35-7.51 9.18-.83 10.85-.83 10.85-4.17 6.68-1.67 8.35-1.67 8.35-9.18 4.17-3.34 10.01-3.34 10.01-8.35 5.84-4.17 11.68-4.17 11.68-6.68 5.84-2.5 14.19-2.5 14.19-8.35 7.51-2.5 13.35-2.5 13.35-5.01 6.68-.1 10.47-.1 10.47-5.94 7.97.93 16.23.93 16.23-3.34 11.68 3.34 15.02 3.34 15.02-5.01 14.19 6.68 17.52 6.68 17.52 1.67 10.01 9.6 10.43 9.6 10.43 1.48 13.29 12.1 11.56 14.52 10.98-3.46-.91-7.04-3.67-7.85-10.98z" class="cls-22"/></g><path id="path126" d="m258.46 418.25-26.7 2.5s3.34 7.51-5.01 14.19c0 0 1.67 7.51-3.34 12.52 0 0 3.34 9.18-3.34 11.68 0 0 4.17 3.34-1.67 8.35 0 0 2.5 10.01-5.01 11.68 0 0 0 9.18-6.68 11.68l-4.17 57.58-28.37 5.84s-2.99-7.52 2.37-15.5c1.65-2.46 6.36-3.45 9.31-6.2l5.84-44.23s-7.51-1.67-5.84-10.85c0 0-5.01-4.17-2.5-12.52 0 0-5.01-4.17-.83-12.52 0 0-3.34-1.67 0-6.68 0 0-3.34 0-.83-9.18 0 0-4.17.83-1.67-7.51 0 0-3.34-.83-2.92-4.59 0 0-6.68 2.5-10.85-5.84 0 0-10.85 5.84-15.86-4.17 0 0-13.35 4.17-15.02-10.85 0 0-7.93-.42-9.6-10.43 0 0-11.68-3.34-6.68-17.52 0 0-6.68-3.34-3.34-15.02 0 0-6.88-8.26-.93-16.23 0 0-4.91-3.8.1-10.47 0 0-5.84-5.84 2.5-13.35 0 0-4.17-8.35 2.5-14.19 0 0-4.17-5.84 4.17-11.68 0 0-5.84-5.84 3.34-10.01 0 0-2.5-1.67 1.67-8.35 0 0-6.68-1.67.83-10.85 0 0-5.01-3.34 2.5-8.35l-2.5-5.84-8 3.79c-4.18 1.98-9.04-.83-9.45-5.43-.06-.68-.09-1.32-.09-1.9-3.5 1.42-6.94-2.1-5.47-5.58.89-2.1 2.33-4.42 4.65-6.74 0 0-.85-.64-1.8-1.91-2.16-2.9-.39-7.15 3.19-7.63 1.39-.19 2.92-.14 4.45.37l7.51-6.68s-2.5 1.67-5.01-2.5c-2.5-4.17 3.34-8.35 7.51-8.35 0 0 0-5.84 7.51-6.68 0 0 1.67-6.68 11.68-5.01 0 0 7.08-3.87 12.3-.27 0 0 4.39-1.4 8.56 3.61 0 0 10.01 3.34 10.85 12.52 0 0 7.51 3.34 5.01 10.01 0 0 5.84 4.17 1.67 13.35 0 0 6.68 5.01 2.5 11.68 0 0 8.35 5.01.83 15.02 0 0 5.84 2.5 1.67 14.19 0 0 3.34 5.84-1.67 11.68 0 0 5.01 5.01.83 12.52 0 0 3.81 4.81 1.07 8.66 0 0 4.77 2.19 1.43 13.03 0 0 70.93-20.86 127.68 0 0 0 3.34-1.67 8.35.83 0 0 4.17-5.84 11.68-3.34 0 0 11.68-3.34 15.86 5.84 0 0 5.84 0 6.68 6.68 0 0 5.01 1.67 3.34 7.51 0 0 5.01 3.34-.83 9.18 0 0 4.17 4.17-3.34 10.01 0 0 1.67 2.5-1.67 5.84s-5.84.83-5.84.83-.83 6.68-7.51 5.01c0 0 5.84 6.68.83 15.86 0 0 .83 10.85-6.68 14.19 0 0 4.17 7.51-5.01 12.52 0 0 3.34 8.35-2.5 15.02 0 0 4.17 7.51 0 15.86 0 0 6.68 5.01.83 11.68 0 0 5.84 5.84-.83 18.36 0 0 6.68 8.35-4.17 14.19l-14.19 40.89-7.51 13.35h-24.95s3.25-14.19 15.77-15.86l11.68-38.39s-6.68-.83-6.68-9.18c0 0-7.51-3.34-3.34-12.52 0 0-9.18-.83-6.68-13.35 0 0-8.35 0-5.84-10.85 0 0-6.68-1.67-4.17-11.68 0 0-7.51-1.67-5.84-11.68" class="cls-4"/><path id="path128" d="m300.71 478.54-17.22 43.19s-5.84 4.17-7.51 12.52h-25.34l5.79-10.05c1.8-3.12 4.99-5.16 8.58-5.49l3.47-.32s12.52-25.04 14.19-35.05c0 0-6.68-2.5-4.17-9.18 0 0-5.84-2.5-4.17-10.85 0 0-5.01-.83-3.34-10.85 0 0-6.68-3.34-4.17-12.52 0 0-7.51-4.17-5.01-13.35 0 0-3.34 2.5-3.34-8.35" class="cls-4"/><g id="g140"><path id="path130" d="m124.94 219.64-1.63.3c.97.13 1.63-.3 1.63-.3" class="cls-20"/><path id="path132" d="M138.2 233.08c-1.86-4.6-4.83-10.64-8.26-12.91l-5.01-.53-7.51 6.68c-1.53-.51-3.06-.55-4.45-.37-3.58.48-5.35 4.73-3.19 7.63.95 1.28 1.8 1.91 1.8 1.91-2.32 2.32-3.76 4.64-4.65 6.74-1.47 3.48 1.97 7 5.47 5.58 0 .58.03 1.22.09 1.9.41 4.61 5.27 7.41 9.45 5.43l8-3.79 3.47-2.48c1.56-1.11 2.84-2.57 3.75-4.25l.47-.88c1.77-3.29 1.97-7.2.57-10.66" class="cls-20"/><path id="polyline134" d="m120.63 224.37 5-4.25-.8 6.56" class="cls-22"/><path id="path136" d="M115.11 236.59s-3.02 6.64 0 10.27c0 0 1.02 1.63 4.02 2.63v7.28l-5.37-2.75-1.31-5.4-4.26-1.42-1.27-4.98 3.62-5.64" class="cls-22"/><path id="path138" d="M138.2 233.08c-1.86-4.6-4.83-10.64-8.26-12.91l-5.01-.53-7.51 6.68c-1.53-.51-3.06-.55-4.45-.37-3.58.48-5.35 4.73-3.19 7.63.95 1.28 1.8 1.91 1.8 1.91-2.32 2.32-3.76 4.64-4.65 6.74-1.47 3.48 1.97 7 5.47 5.58 0 .58.03 1.22.09 1.9.41 4.61 5.27 7.41 9.45 5.43l8-3.79 3.47-2.48c1.56-1.11 2.84-2.57 3.75-4.25l.47-.88c1.77-3.29 1.97-7.2.57-10.66" style="fill:none;stroke:#3d001f;stroke-width:2.5px;stroke-linecap:round;stroke-linejoin:round"/></g><path id="path142" d="M110.32 234.65s2.63 3.55 5.97 1.05l4.17-3.34h5.44l1.24-3.34-7.45-4.34-6.71 1.27-2.66 1.29-1.55 4.28" class="cls-30"/><path id="path144" d="M133.3 236.74c3.98 8.84-12.2 17.19-18.63 11.8-1.62-1.32-2.15-3.54-2.07-5.54.02-2.15.06-4.16.79-6.33.73-2.45 2.95-4.55 5.39-5.37 2.28-.71 4.75-.13 6.89-.12h.07c-.21 0-.45.05-.63.16-.05.03 0 0 .04-.05.09-.09.25-.33.26-.37-.04.1-.06.07-.05.12-.04.02 0 .07-.02.06-.35-.73 1.76-.7.95-1.24-.58-.38-3.4-3.29-4.17-3.34-.85-.1-3.66-.23-5.01 0v-2.27c2.02-.31 5.25-.7 7.28.89 2.21 1.64 5.56 3.79 4.45 7.18-.61 1.24-1.62 2.45-3.11 2.5-2.05-.03-4.08-.64-5.92-.27-.6.2-1.19.51-1.68.85-2.32 1.67-2.43 4.94-2.57 7.65-.38 3.08 1.59 4.58 4.59 4.59 4.47 0 11.84-3.3 11.71-8.4-.03-1.04.48-2.03 1.42-2.49z" class="cls-30"/><path id="path146" d="M133.3 236.74c3.98 8.84-12.2 17.19-18.63 11.8-1.62-1.32-2.15-3.54-2.07-5.54.02-2.15.06-4.16.79-6.33.73-2.45 2.95-4.55 5.39-5.37 2.28-.71 4.75-.13 6.89-.12h.07c-.21 0-.45.05-.63.16-.05.03 0 0 .04-.05.09-.09.25-.33.26-.37-.04.1-.06.07-.05.12-.04.02 0 .07-.02.06-.35-.73 1.76-.7.95-1.24-.58-.38-3.4-3.29-4.17-3.34-.85-.1-3.66-.23-5.01 0v-2.27c2.02-.31 5.25-.7 7.28.89 2.21 1.64 5.56 3.79 4.45 7.18-.61 1.24-1.62 2.45-3.11 2.5-2.05-.03-4.08-.64-5.92-.27-.6.2-1.19.51-1.68.85-2.32 1.67-2.43 4.94-2.57 7.65-.38 3.08 1.59 4.58 4.59 4.59 4.47 0 11.84-3.3 11.71-8.4-.03-1.04.48-2.03 1.42-2.49z" class="cls-30"/><path id="path148" d="M143.3 252.19s17.52 7.51 26.7-2.5c0 0 4.17-3.34 4.17-10.85 0 0-10.01 8.35-25.87 6.68l-5.01 6.68z" class="cls-19"/><path id="path150" d="m147.89 240.09 18.36-3.34s4.17-1.67 4.17-9.18-2.5-12.52-9.18-9.18c0 0 1.67 0 1.67 5.84s-8.35 8.35-14.19 3.34-7.51-3.34-7.51-3.34 5.01 7.51 6.68 15.86z" class="cls-19"/><path id="path152" d="M162.77 213.37c.06-.2.14-.58.14-1.24 0-.46-.75-1.53-2.78-2.46-3.23-1.48-7.88-1.78-11.01.9l-.47.4-.61-.13s-4.75-.96-7.69 1.43c-1.58 1.28-2.41 3.37-2.47 6.19.24.36.77 1.03 1.55 1.22.72.08 3.8-1.21 6.59-2.8l.17-.1 16.48-3.47.11.05z" class="cls-31"/><path id="path154" d="M183.13 175.49c-1.8-1.44-3.24-3-4-2-1 1.32-1.62 5.75-1.62 8.59 0 5.01-3.34 10.01-7.51 15.02s-5.01 9.18-5.01 9.18l8.35 11.68c.83-6.68 12.52-17.52 14.19-25.87s-.22-13.27-4.4-16.61z" class="cls-17"/><path id="path156" d="m181.74 177.22-1.35-1.1-.24 1.31c-.27 1.53-.43 3.23-.43 4.65 0 6-4.06 11.68-8.02 16.44-1.91 2.29-2.43 5.01-3.07 6.46l.57.57c.54-1.33 1.64-3.56 3.7-6.03 4.15-4.98 8.39-10.94 8.39-17.44 0-.93.07-1.97.2-3.01 2 1.9 3.75 5.14 2.32 12.29-.7 3.48-3.9 8.02-6.99 12.41-1.45 2.05-3.01 4.3-4.19 6.22l1 1c1.22-2.06 2.89-4.07 4.47-6.32 3.19-4.53 6.49-9.21 7.25-13.01 1.77-8.83-1-12.36-3.61-14.44" class="cls-22"/><path id="path158" d="M153.14 226.65c-1.09 0-2.09-.19-2.94-.57-1.89-.84-4.68-2.59-5.54-4.57l2.74-.53c.69 1.6 1.59 3.2 3.1 3.87 1.35.6 3.34.16 4.45-.06 1.75-.35 2.71-1.97 2.95-4.95l2.61-.83c-.3 3.78-2.69 6.91-5.24 7.42-.74.15-1.46.22-2.13.22" class="cls-22"/><ellipse id="ellipse160" cx="152.06" cy="221.31" class="cls-22" rx="1.67" ry="1.25"/><path id="path162" d="M127.39 219.9s2.01-2.54 4.64-4.51c0 0 3.68 1.25 6.08 5.06l3.1 3.78s4.05 6.64 6.68 15.86l12.94-2.56c4.07-.81 7.97-2.32 11.52-4.48l12.21-7.43.58 7.88-17 10s-5.35 4.07-19.83 2.02l-5.01 6.68-10.39-2.32s6.49-4.94 6.21-11.51c0 0-1.37-11.42-9.17-18.18l-2.55-.27z" style="stroke-miterlimit:10;stroke:#3d001f;fill:#ffb200;stroke-width:2.5px"/><path id="path164" d="M131.15 348.66s3.35 2.81 9.68 0c0 0 3.44 4.48 9.06 0 0 0-2.12 8.56-10.77 5.38 0 0-9.81 4.11-7.98-5.38z" class="cls-30"/><path id="path166" d="M152.22 380.71s2.56 3.55 9.39 2.37c0 0 2.24 5.19 8.79 2.22 0 0-4.14 7.79-11.75 2.58 0 0-10.52 1.59-6.42-7.17z" class="cls-30"/><path id="path168" d="M122.8 323.63s3.35 2.81 9.68 0c0 0 3.44 4.48 9.06 0 0 0-2.12 8.56-10.77 5.38 0 0-9.81 4.11-7.98-5.38z" class="cls-30"/><path id="path170" d="M137.77 302.76s2.51 2.11 7.26 0c0 0 2.58 3.36 6.8 0 0 0-1.59 6.42-8.07 4.03 0 0-7.36 3.08-5.98-4.03z" class="cls-30"/><path id="path172" d="M133.25 374.41s2.91 1.52 7.09-1.56c0 0 3.24 2.73 6.64-1.46 0 0-.17 6.61-7.02 5.68 0 0-6.52 4.59-6.71-2.65z" class="cls-30"/><path id="path174" d="M152.39 400.21s2.16 2.47 7.18 1.1c0 0 2.04 3.71 6.72 1.03 0 0-2.54 6.11-8.59 2.76 0 0-7.74 1.93-5.3-4.9z" class="cls-30"/><path id="path176" d="M137.77 277.73s2.51 2.11 7.26 0c0 0 2.58 3.36 6.8 0 0 0-1.59 6.42-8.07 4.03 0 0-7.36 3.08-5.98-4.03z" class="cls-30"/><g id="g182"><path id="path178" d="m129.63 202.27-12.17-16.65s-2.28 9.4 9.89 19.37" class="cls-30"/><path id="path180" d="m129.27 202.54-12.44-16.45 1.39-.28c-1.09 7.45 3.98 14.23 9.41 18.84l-.57.69c-5.95-4.75-11.42-11.82-10.37-19.9l.41-1.67.98 1.39 11.9 16.84-.72.53z" class="cls-22"/></g><g id="g266"><path id="path184" d="M318.39 318.96c.32 1.86.57 3.75.74 5.66 3.03 34.81-22.75 63.78-57.63 64.69-34.91.91-64.14-26.57-65.23-61.38-.06-1.91-.03-3.8.07-5.67l38.72-5.56c14.58-2.1 29.39-2.5 44.17-1.19l39.17 3.46z" class="cls-23"/><g id="g230" style="clip-path:url(#clippath-1)"><path id="path186" d="M205.02 330.87c1.01 28.75 25.97 51.42 55.7 50.64 29.71-.78 51.83-24.72 49.45-53.47-2.36-28.75-27.22-51.42-55.56-50.64-28.36.78-50.58 24.72-49.59 53.47" class="cls-21"/><path id="polygon188" d="m255.61 373.45 3.32-5.88 4 5.69-3.32 5.88z" class="cls-23"/><path id="polygon190" d="m240.21 369.98 4.8-4.83 2.37 6.45-4.81 4.82z" class="cls-23"/><path id="polygon192" d="m226.73 360.77 6.49-2.34-.68 6.74-6.51 2.34z" class="cls-23"/><path id="polygon194" d="m217.08 349.97 6.89-.61-2.47 6.31-6.91.61z" class="cls-23"/><path id="polygon196" d="m211.47 335.49 6.73 1.51-4.34 5.22-6.74-1.51z" class="cls-23"/><path id="polygon198" d="m210.97 321.96 6.23 2.89-5.36 4.17-6.24-2.89z" class="cls-23"/><path id="polygon200" d="m279.77 368.93-5.35-4.55-1.59 6.55 5.37 4.55z" class="cls-23"/><path id="polygon202" d="m292.1 359.04-6.74-2 1.48 6.7 6.75 1.99z" class="cls-23"/><path id="polygon204" d="m300.42 347.75-6.92-.24 3.2 6.16 6.95.24z" class="cls-23"/><path id="polygon206" d="m304.29 333-6.51 1.87 4.93 4.98 6.53-1.87z" class="cls-23"/><path id="polygon208" d="m303.21 319.47-5.86 3.22 5.82 3.88 5.86-3.22z" class="cls-23"/><path id="path210" d="M259.65 363.67c-21.03.56-38.86-15.67-39.72-36.17-.85-20.5 15.02-37.63 35.36-38.19 20.33-.56 38.1 15.67 39.65 36.17 1.56 20.5-14.27 37.63-35.29 38.19z" class="cls-9"/><path id="path212" d="M254.7 353.93c.78 1.41 2.27 2.36 3.94 2.32s3.05-1.07 3.66-2.52c-.79-1.41-2.28-2.36-3.94-2.32-1.67.04-3.04 1.07-3.66 2.52" class="cls-30"/><path id="path214" d="M240.07 349.13c.48 1.52 1.76 2.73 3.41 3 1.66.27 3.22-.47 4.11-1.77-.49-1.52-1.76-2.73-3.41-3s-3.21.47-4.11 1.77" class="cls-30"/><path id="path216" d="M230.48 338.06c-.31 1.55.23 3.19 1.56 4.2 1.33 1 3.08 1.08 4.51.37.31-1.55-.23-3.19-1.57-4.2-1.33-1-3.07-1.08-4.5-.37" class="cls-30"/><path id="path218" d="M227.52 324.19c-1.24.98-1.88 2.56-1.5 4.16.39 1.6 1.69 2.75 3.26 3.11 1.24-.98 1.88-2.56 1.49-4.16s-1.69-2.75-3.26-3.11z" class="cls-30"/><path id="path220" d="M277.58 348.88c-.3 1.54-1.43 2.82-3.04 3.18-1.62.36-3.26-.3-4.31-1.55.31-1.54 1.43-2.82 3.05-3.18 1.61-.36 3.25.3 4.3 1.55" class="cls-30"/><path id="path222" d="M285.83 337.32c.49 1.53.15 3.2-1.06 4.27s-2.94 1.24-4.45.61c-.49-1.53-.14-3.2 1.07-4.27s2.93-1.24 4.44-.61" class="cls-30"/><path id="path224" d="M287.15 323.33c1.35.91 2.17 2.46 1.98 4.07-.2 1.61-1.36 2.84-2.88 3.28-1.35-.91-2.17-2.46-1.97-4.07s1.36-2.84 2.88-3.28z" class="cls-30"/><path id="path226" d="M258.64 346.56c-12.52.33-23.2-9.4-23.8-21.7-.59-12.3 8.91-22.58 21.19-22.91 12.27-.33 22.93 9.4 23.77 21.7.85 12.3-8.64 22.58-21.16 22.91" class="cls-21"/><path id="path228" d="M257.63 329.46c-4.14.11-7.75-4.05-8.03-9.28-.29-5.23 2.82-9.57 6.93-9.68s7.71 4.05 8.03 9.28-2.78 9.57-6.92 9.68z" class="cls-9"/></g><path id="path232" d="M201.41 321.49c-3.2.46-5.55 3.23-5.45 6.44 1.09 34.81 30.31 62.3 65.23 61.38 34.88-.91 60.67-29.88 57.64-64.69v-.06c-.28-3.2-2.98-5.8-6.2-6.09l-33.7-2.98c-14.77-1.31-29.58-.91-44.17 1.19l-33.35 4.79z" style="fill:none;stroke-miterlimit:10;stroke:#3d001f;stroke-width:3.88px"/><g id="g264"><path id="path234" d="M256.59 406.57c.09 1.54.36 3.03.78 4.44 1.34 4.45 7.89 4.28 8.69-.23.25-1.43.34-2.93.25-4.47-.31-4.95-2.46-9.36-5.61-12.34-2.78 3.14-4.4 7.64-4.11 12.59z" class="cls-12"/><path id="path236" d="M227.51 400.63c.07 1.54.32 3.03.73 4.44 1.28 4.45 7.81 4.28 8.67-.23.27-1.43.38-2.93.3-4.47-.25-4.95-2.33-9.36-5.44-12.34-2.82 3.14-4.48 7.64-4.26 12.59z" class="cls-14"/><path id="path238" d="M206.66 382.56c.06 1.54.29 3.03.68 4.44 1.23 4.45 7.71 4.28 8.6-.23.28-1.43.4-2.93.34-4.47-.2-4.95-2.23-9.36-5.28-12.34-2.82 3.14-4.51 7.64-4.34 12.59z" class="cls-7"/><path id="path240" d="M190.41 352.8c-.18 1.53-.18 3.04-.02 4.49.52 4.57 6.87 5.3 8.44.97.49-1.37.84-2.84 1.02-4.37.57-4.92-.75-9.55-3.28-12.93-3.24 2.71-5.58 6.92-6.16 11.84z" class="cls-12"/><path id="path242" d="M265.01 391.83c.15 2.46-1.8 4.52-4.37 4.58-2.56.07-4.76-1.88-4.9-4.34s1.81-4.52 4.37-4.58c2.55-.07 4.75 1.88 4.9 4.34z" class="cls-7"/><path id="path244" d="M236.8 384.38c.12 2.46-1.85 4.52-4.41 4.58-2.56.07-4.72-1.88-4.83-4.34s1.86-4.52 4.41-4.58c2.55-.07 4.71 1.88 4.83 4.34z" class="cls-7"/><path id="path246" d="M215.29 367.07c.1 2.46-1.88 4.52-4.42 4.58-2.54.07-4.67-1.88-4.76-4.34s1.89-4.52 4.42-4.58c2.53-.07 4.66 1.88 4.75 4.34z" class="cls-10"/><path id="path248" d="M201.21 338.69c-.28 2.45-2.52 4.2-5.02 3.91-2.49-.29-4.27-2.51-3.99-4.95.29-2.45 2.53-4.2 5.01-3.91s4.27 2.51 3.99 4.95z" class="cls-14"/><g id="g262"><path id="path250" d="M294.19 400.38c.12 1.54.05 3.04-.19 4.47-.74 4.51-7.27 4.68-8.66.23-.44-1.41-.73-2.9-.84-4.44-.35-4.95 1.2-9.45 3.94-12.59 3.18 2.99 5.38 7.39 5.75 12.34z" class="cls-14"/><path id="path252" d="M312.79 381.26c.13 1.54.07 3.04-.15 4.47-.7 4.51-7.16 4.68-8.59.23-.45-1.41-.75-2.9-.87-4.44-.39-4.95 1.11-9.45 3.8-12.59 3.18 2.99 5.4 7.39 5.81 12.34z" class="cls-7"/><path id="path254" d="M325.44 350.69c.36 1.52.54 3.02.55 4.48.02 4.59-6.21 5.66-8.28 1.41-.65-1.34-1.17-2.79-1.53-4.31-1.14-4.88-.38-9.58 1.74-13.08 3.54 2.53 6.36 6.61 7.52 11.5z" class="cls-12"/><path id="path256" d="M283 384.65c.17 2.46 2.38 4.41 4.94 4.34s4.48-2.12 4.3-4.58-2.39-4.41-4.94-4.34-4.47 2.12-4.3 4.58z" class="cls-7"/><path id="path258" d="M302.37 366.26c.19 2.46 2.41 4.41 4.94 4.34s4.42-2.12 4.22-4.58-2.41-4.41-4.94-4.34c-2.52.07-4.41 2.12-4.22 4.58z" class="cls-10"/><path id="path260" d="M313.05 337.19c.56 2.43 3 4.06 5.45 3.64 2.44-.42 3.96-2.73 3.39-5.16s-3.01-4.06-5.44-3.64-3.95 2.73-3.39 5.16z" class="cls-14"/></g></g></g><path id="path268" d="m271.51 520.26-8.48.57a6.19 6.19 0 0 0-5.42 4.07l-1.95 5.37 4.65-5.98c.76-.98 1.89-1.6 3.13-1.71l7.25-.66.83-1.67z" class="cls-22"/><path id="path270" d="m189.6 536.53-7.95 3c-2.3.87-3.87 3.02-4.01 5.47l-.31 5.71 2.71-7.07a4.45 4.45 0 0 1 2.49-2.54l6.74-2.74.31-1.84z" class="cls-22"/><path id="path272" d="m306.55 529.44-8.48.57a6.19 6.19 0 0 0-5.42 4.07l-1.95 5.37 4.65-5.98c.76-.98 1.89-1.6 3.13-1.71l7.25-.66.83-1.67z" class="cls-22"/><path id="path274" d="M108.96 229.84s2.23-5.29 8.47-3.46c0 0 6.08-1.44 8.61 3.46l-.99.4c-1.03.42-2.19.17-3-.59-1.11-1.06-2.93-2.12-4.92-.62 0 0-2.45-2.45-8.17.82z" class="cls-21"/></g></g></svg>