<svg xmlns="http://www.w3.org/2000/svg" id="Layer_1" width="515.43" height="515.43" data-name="Layer 1" version="1.1"><defs id="defs1000"><style id="style998">.cls-1{stroke-width:11.61px}.cls-1,.cls-2{stroke-linecap:round;stroke-linejoin:round}.cls-1{fill:none}.cls-1,.cls-4{stroke:#daceae}.cls-2{stroke-width:1.14px;fill:#002d55}.cls-2,.cls-7{stroke:#002d55}.cls-4,.cls-7{stroke-miterlimit:10}.cls-7{fill:#8a5a45;stroke-width:11.61px}.cls-10,.cls-11,.cls-12{stroke-width:0}.cls-4{fill:#daceae}.cls-10{fill:#d00000}.cls-11{fill:#0091c9}.cls-12{fill:#007125}.cls-4{stroke-width:1.28px}</style></defs><g id="g1086" transform="translate(-42.055 -42.285)"><circle id="circle1004" cx="299.77" cy="300" r="249.75" style="fill:#002d55;stroke:#0091c9;stroke-width:15.93000031px;stroke-miterlimit:10"/><g id="g1014"><path id="path1006" d="M108.8 308.07H85.26a60.15 60.15 0 0 0 11.76 28.57 60.395 60.395 0 0 0 11.79-28.57z" class="cls-10" style="fill:#d00000;stroke-width:0"/><path id="path1008" d="M97.01 263.36a60.15 60.15 0 0 0-11.76 28.57h23.54A60.354 60.354 0 0 0 97 263.36Z" class="cls-12" style="fill:#007125;stroke-width:0"/><path id="path1010" d="M56.69 239.82v52.11H69c1.53-14.75 7.24-28.57 16.55-40.1a60.345 60.345 0 0 0-28.86-12.01" class="cls-10" style="fill:#d00000;stroke-width:0"/><path id="path1012" d="M56.69 360.18a60.443 60.443 0 0 0 28.86-12.01A76.113 76.113 0 0 1 69 308.07H56.69Z" class="cls-12" style="fill:#007125;stroke-width:0"/></g><g id="g1024"><path id="path1016" d="M490.75 308.07h23.54a60.15 60.15 0 0 1-11.76 28.57 60.395 60.395 0 0 1-11.79-28.57z" class="cls-10" style="fill:#d00000;stroke-width:0"/><path id="path1018" d="M502.54 263.36a60.15 60.15 0 0 1 11.76 28.57h-23.54a60.354 60.354 0 0 1 11.79-28.57z" class="cls-12" style="fill:#007125;stroke-width:0"/><path id="path1020" d="M542.86 239.82v52.11h-12.31c-1.53-14.75-7.24-28.57-16.55-40.1a60.345 60.345 0 0 1 28.86-12.01" class="cls-10" style="fill:#d00000;stroke-width:0"/><path id="path1022" d="M542.86 360.18A60.443 60.443 0 0 1 514 348.17a76.113 76.113 0 0 0 16.55-40.1h12.31z" class="cls-12" style="fill:#007125;stroke-width:0"/></g><path id="path1026" d="M261.32 414.48c-119.18 47.71-183.24.24-183.56 0 41.51 80.34 125.34 135.26 222.01 135.26 8.43 0 16.75-.42 24.96-1.24V414.47h-63.42z" class="cls-11" style="fill:#0091c9;stroke-width:0"/><path id="path1028" d="M338.23 414.48c119.18 47.71 183.24.24 183.56 0-41.51 80.34-125.34 135.26-222.01 135.26-8.43 0-16.75-.42-24.96-1.24V414.47h63.41z" class="cls-11" style="fill:#0091c9;stroke-width:0"/><g id="g1040"><g id="g1034"><path id="path1030" d="M300.18 468.25c-4.54 0-6.45-4.29-7.36-6.35-.7-1.58-1.85-2.66-4.56-4.28-2.84-1.7-9.31-3.61-16.16-5.63-8.25-2.43-17.61-5.19-25.41-8.9-14.25-6.77-24.86-16.09-32.44-28.47-2.96-4.83-5.27-10.96-6.83-15.79-.33.25-.68.5-1.04.77-1.76 1.32-3.54 1.99-5.31 1.99-2.1 0-4.03-.94-5.3-2.58-1.53-1.97-1.9-4.56-1.1-7.68 2.07-8.07 5.25-16.2 9.72-26.71 2.12-4.98 5.88-13.1 11.79-23.51l.19-.34c1.22-2.16 3.49-6.17 7.8-6.17 4.02 0 6.34 2.84 6.89 8.44.03.28.05.55.08.75.96 6.01 2.23 13.12 5.11 21.51 2.94 8.56 6.54 16.29 10.15 21.79.85 1.3 3.45 5.24 1.34 9.15-1.19 2.21-3.51 3.52-6.22 3.52-.65 0-1.31-.07-1.93-.19.68 1.12 1.4 2.15 2.13 3 4.37 5.07 10.88 10.26 14.23 11.92 5.14 2.56 14.23 4.42 21.62 4.42h.83c2.5-.05 3.73-.99 3.98-1.4V305.62h-14.83c-3.36 5.23-8.61 8.35-14.38 8.35-9.96 0-18.07-9.53-18.07-21.24 0-11.71 8.11-21.24 18.07-21.24 5.77 0 11.02 3.12 14.38 8.35h14.83v-18.98a37.066 37.066 0 0 1-19.27-32.57c0-20.48 16.66-37.15 37.15-37.15s37.15 16.66 37.15 37.15c0 13.7-7.45 26.09-19.27 32.57v18.98h14.83c3.36-5.23 8.61-8.35 14.38-8.35 9.96 0 18.07 9.53 18.07 21.24 0 11.71-8.11 21.24-18.07 21.24-5.77 0-11.02-3.12-14.38-8.35h-14.83v111.95c.19.31 1.42 1.29 3.98 1.34h.83c7.39 0 16.49-1.86 21.62-4.42 3.34-1.67 9.86-6.86 14.23-11.92.73-.85 1.44-1.88 2.13-3-.62.12-1.28.19-1.93.19-2.7 0-5.03-1.32-6.22-3.52-2.11-3.91.49-7.85 1.34-9.15 3.61-5.49 7.22-13.23 10.15-21.79 2.87-8.38 4.14-15.49 5.11-21.51.03-.21.05-.47.08-.75.55-5.6 2.87-8.45 6.89-8.45 4.31 0 6.58 4.02 7.8 6.17l.19.34c5.91 10.4 9.67 18.52 11.79 23.5 4.47 10.51 7.66 18.65 9.72 26.71.8 3.12.43 5.7-1.1 7.68-1.27 1.64-3.2 2.58-5.3 2.58-1.77 0-3.56-.67-5.31-1.99-.36-.27-.7-.53-1.04-.77-1.56 4.84-3.87 10.97-6.83 15.79-7.58 12.38-18.19 21.7-32.44 28.47-7.8 3.71-17.16 6.47-25.41 8.9-6.85 2.02-13.32 3.93-16.16 5.63-2.71 1.62-3.86 2.7-4.56 4.28-.92 2.06-2.82 6.35-7.36 6.35h-.17zm.09-250.23c-5.65 0-10.25 4.6-10.25 10.25s4.6 10.25 10.25 10.25 10.25-4.6 10.25-10.25-4.6-10.25-10.25-10.25" style="fill:#daceae;stroke-width:0"/><path id="path1032" d="M300.27 196.93c17.31 0 31.34 14.03 31.34 31.34 0 13.03-7.95 24.2-19.27 28.93v28.43h24.13c2.04-4.95 6.15-8.35 10.89-8.35 6.77 0 12.27 6.91 12.27 15.44s-5.49 15.44-12.27 15.44c-4.74 0-8.84-3.39-10.89-8.35h-24.13v118.14c.25 3.47 3.92 6.63 9.66 6.75.31 0 .63.01.96.01 7.56 0 17.79-1.82 24.21-5.03 4.39-2.19 11.49-8.06 16.03-13.33 4.51-5.24 8.42-15.65 8.58-18.1 0 0-7.74 4.13-10.21 5.1-.4.16-1.62.6-2.57.6-1.21 0-1.97-.72-.03-3.68 4.18-6.37 7.94-14.77 10.79-23.09 3.07-8.95 4.4-16.56 5.35-22.47.22-1.37.21-4.31 1.24-4.31.55 0 1.4.84 2.75 3.22.99 1.75 6.93 12.05 11.7 23.26 4.68 11 7.57 18.59 9.44 25.88.49 1.89.18 3.01-.78 3.01-.46 0-1.08-.26-1.83-.83-4.33-3.25-7.03-5.06-7.89-5.51 0 0-3.17 13.59-8.41 22.14-5.04 8.23-13.33 18.34-29.98 26.26-14.23 6.76-34.84 10.46-42.06 14.79-2.92 1.75-5.42 3.62-6.87 6.9-1.02 2.3-1.61 2.91-2.06 2.91h-.18c-.45 0-1.04-.61-2.06-2.91-1.46-3.28-3.95-5.15-6.87-6.9-7.22-4.33-27.83-8.03-42.06-14.79-16.65-7.92-24.94-18.03-29.98-26.26-5.24-8.55-8.41-22.14-8.41-22.14-.86.45-3.56 2.26-7.89 5.51-.75.56-1.36.83-1.83.83-.96 0-1.27-1.12-.78-3.01 1.87-7.29 4.76-14.88 9.44-25.88 4.77-11.21 10.71-21.51 11.7-23.26 1.35-2.38 2.2-3.23 2.75-3.22 1.03 0 1.02 2.94 1.24 4.31.95 5.92 2.27 13.52 5.35 22.47 2.85 8.32 6.61 16.73 10.79 23.09 1.94 2.96 1.18 3.68-.03 3.68-.95 0-2.17-.45-2.57-.6-2.46-.97-10.21-5.1-10.21-5.1.16 2.45 4.07 12.86 8.58 18.1 4.54 5.27 11.64 11.14 16.03 13.33 6.43 3.2 16.65 5.03 24.21 5.03.32 0 .64 0 .96-.01 5.74-.12 9.41-3.29 9.66-6.75V299.81h-24.13c-2.04 4.95-6.15 8.35-10.89 8.35-6.77 0-12.27-6.91-12.27-15.44s5.49-15.44 12.27-15.44c4.74 0 8.85 3.39 10.89 8.35h24.13V257.2c-11.32-4.73-19.27-15.9-19.27-28.93 0-17.31 14.03-31.34 31.34-31.34m0 47.39c8.86 0 16.05-7.19 16.05-16.05s-7.19-16.05-16.05-16.05-16.05 7.19-16.05 16.05 7.19 16.05 16.05 16.05m0-59c-23.68 0-42.95 19.27-42.95 42.95a42.84 42.84 0 0 0 19.27 35.84v9.91h-6.09c-4.41-5.28-10.58-8.35-17.32-8.35s-13.26 3.25-17.76 8.91c-3.94 4.96-6.11 11.4-6.11 18.14s2.17 13.18 6.11 18.14c4.5 5.66 10.97 8.91 17.76 8.91 6.79 0 12.91-3.07 17.32-8.35h6.09V413.1c-6.24-.16-13.98-1.77-18.04-3.8-1.76-.88-5.31-3.5-8.68-6.65 1.2-1 2.22-2.23 2.99-3.66 1.71-3.17 2.82-8.37-1.6-15.09-3.35-5.1-6.73-12.37-9.51-20.48-2.71-7.91-3.93-14.71-4.85-20.47-.02-.14-.03-.3-.05-.47-.1-1.02-.24-2.42-.62-3.92-1.74-6.74-7.3-9.76-12.04-9.77-7.7 0-11.44 6.63-12.85 9.12l-.19.33c-6.04 10.64-9.91 18.98-12.09 24.1-4.58 10.76-7.85 19.12-10 27.54-1.58 6.16.29 10.29 2.14 12.68 2.38 3.06 5.98 4.82 9.88 4.82 1.04 0 2.08-.12 3.09-.37 1.41 3.6 3.13 7.35 5.13 10.63 8.19 13.37 19.6 23.41 34.9 30.68 8.21 3.9 17.8 6.73 26.26 9.22 5.62 1.66 12.61 3.72 14.81 5.04 1.78 1.07 2.17 1.5 2.24 1.66.87 1.95 1.66 3.36 2.57 4.57 2.5 3.32 6.18 5.23 10.1 5.23h.18c8.31 0 11.59-7.38 12.66-9.8.07-.16.46-.59 2.24-1.66 2.2-1.32 9.2-3.38 14.81-5.04 8.46-2.49 18.05-5.32 26.26-9.22 15.29-7.27 26.71-17.31 34.9-30.68 2.01-3.28 3.72-7.03 5.13-10.63 1.02.25 2.05.37 3.09.37 3.9 0 7.5-1.76 9.88-4.82 1.85-2.38 3.72-6.51 2.14-12.68-2.16-8.42-5.43-16.78-10-27.54-2.18-5.12-6.04-13.46-12.09-24.1l-.19-.33c-1.41-2.49-5.15-9.12-12.85-9.12-4.74 0-10.3 3.02-12.04 9.76-.39 1.5-.52 2.9-.62 3.92-.02.17-.03.33-.05.47-.92 5.76-2.14 12.56-4.85 20.47-2.78 8.11-6.16 15.38-9.51 20.48-4.42 6.72-3.31 11.92-1.6 15.09.77 1.43 1.79 2.66 2.99 3.66-3.36 3.15-6.91 5.77-8.68 6.65-4.07 2.03-11.8 3.64-18.04 3.8V311.41h6.1c4.41 5.28 10.58 8.35 17.32 8.35s13.26-3.25 17.76-8.91c3.94-4.96 6.11-11.4 6.11-18.14s-2.17-13.18-6.11-18.14c-4.5-5.66-10.97-8.91-17.76-8.91-6.79 0-12.91 3.07-17.32 8.35h-6.09v-9.91a42.84 42.84 0 0 0 19.27-35.84c0-23.68-19.27-42.95-42.95-42.95zm0 47.39c-2.45 0-4.44-1.99-4.44-4.44s1.99-4.44 4.44-4.44 4.44 1.99 4.44 4.44-1.99 4.44-4.44 4.44" style="fill:#002d55;stroke-width:0"/></g><path id="line1036" d="M271.92 319.79h56.69" class="cls-7" style="fill:#8a5a45;stroke:#002d55;stroke-width:11.60999966px;stroke-miterlimit:10"/><path id="line1038" d="M271.92 354.6h56.69" class="cls-7" style="fill:#8a5a45;stroke:#002d55;stroke-width:11.60999966px;stroke-miterlimit:10"/></g><g id="g1062"><path id="path1042" d="M123.52 186.69c6.48 4.26 34.6-1.85 45.17 5.76l-4.24 5.88c-9.89-7.13-31.45.5-42.79-4.43l27.9 20.1c1.28.54 2.61.48 3.84-.61.31-.27.61-.58.9-.99l-4.94 6.86c.29-.41.49-.79.65-1.17.64-1.51.27-2.79-.64-3.83l-28.15-20.29c-1.12-.32-2.26-.16-3.33.78-.31.27-.61.58-.9.99l6.52-9.05zm15.26-21.17c-.29.41-.49.79-.65 1.17-.65 1.55-.26 2.84.7 3.9l30.03 21.64-.16.23-30.03-21.64c-1.31-.57-2.66-.54-3.92.57-.31.27-.61.58-.9.99l4.94-6.86z" class="cls-4" style="fill:#daceae;stroke:#daceae;stroke-width:1.27999997px;stroke-miterlimit:10"/><path id="path1044" d="m157.88 147.09.24-.21 17.02 32.95c1.08 1.12 2.37 1.73 3.82 1.33.61-.17 1.26-.51 1.93-1.09l-7.98 6.87c.68-.58 1.16-1.22 1.52-1.88.84-1.58.86-3.33.46-5.04zm45.24 13.86-4.3 3.7c-2.43 2.09-6.02 2.59-8.03 1.11l-25.83-18.96c-2.01-1.47-4.41-2-6.84.09l4.3-3.7c2.43-2.09 6.02-2.59 8.03-1.11l25.83 18.96c2.01 1.47 4.41 2 6.84-.09zm-26.59-3.2c-1.66 1.43-1.83 5.28.43 7.91-2.26-2.63-6.09-3.04-7.76-1.61 1.66-1.43 1.82-5.29-.44-7.92 2.26 2.63 6.1 3.04 7.76 1.62z" class="cls-4" style="fill:#daceae;stroke:#daceae;stroke-width:1.27999997px;stroke-miterlimit:10"/><path id="path1046" d="M188.75 123.66c4.11 6.58 27.67 19.43 32.35 27.67l-6.3 3.57c-4.68-8.26-26.02-16.51-32.35-27.67l6.31-3.57zm20.18-11.43c.44-.25.88-.42 1.31-.56-1.65 1.48-1.76 3.41-1.13 5.31l12.24 34.22-.24.14-13.68-38.26.24-.14 1.26-.72zm2.41-1.37c-.44.25-.79.52-1.11.8-.43.14-.87.32-1.31.56l2.42-1.37z" class="cls-4" style="fill:#daceae;stroke:#daceae;stroke-width:1.27999997px;stroke-miterlimit:10"/><path id="path1048" d="m248.73 139.69-5.32 1.98c-3 1.12-6.12.18-6.97-2.1l-10.88-29.26c-.85-2.28-2.49-3.76-5.49-2.65l5.32-1.98c3-1.12 6.12-.18 6.97 2.1l10.88 29.26c.85 2.28 2.49 3.77 5.49 2.65z" class="cls-4" style="fill:#daceae;stroke:#daceae;stroke-width:1.27999997px;stroke-miterlimit:10"/><path id="path1050" d="m292.83 130.52-5.59.98c-3.01.53-5.76-.81-6.37-3.01-2.55 3.03-6 5.19-10.04 5.9-9.86 1.73-19.4-5.69-21.31-16.57-1.92-10.89 4.52-21.12 14.37-22.85 7.59-1.34 14.99 2.77 18.86 9.71l-7.99 1.41c-5.25-7.28-12.37-11.04-17.01-8.56-5.34 2.86-5.39 12.87-.11 22.38 5.28 9.5 13.88 14.89 19.22 12.03 1.87-1 3.07-2.88 3.64-5.3l-.84-4.75c-.42-2.39-1.77-4.15-4.92-3.6l5.59-.98c3.15-.55 6.05.93 6.47 3.33l1.11 6.29c.42 2.39 1.77 4.15 4.93 3.6z" class="cls-4" style="fill:#daceae;stroke:#daceae;stroke-width:1.27999997px;stroke-miterlimit:10"/><path id="path1052" d="m311.55 91.75.31.02-11.04 35.41c-.01 1.55.47 2.89 1.79 3.63.56.31 1.25.52 2.14.58l-10.51-.72c.89.06 1.68-.05 2.4-.27 1.71-.53 2.96-1.77 3.87-3.26l11.03-35.39zm5.78 20.69c-2.19-.15-5.01 2.47-5.25 5.93.24-3.46-2.2-6.44-4.39-6.59 2.19.15 5.01-2.48 5.25-5.94-.24 3.46 2.2 6.45 4.39 6.6zM334 133.41l-5.66-.39c-3.19-.22-6.1-2.39-6.5-4.85l-5.05-31.65c-.39-2.46-1.73-4.53-4.93-4.74l5.66.39c3.19.22 6.1 2.39 6.5 4.85l5.05 31.65c.39 2.46 1.74 4.53 4.93 4.75z" class="cls-4" style="fill:#daceae;stroke:#daceae;stroke-width:1.27999997px;stroke-miterlimit:10"/><path id="path1054" d="m376.72 104.12-1.17 4.24c.5-1.81.3-3.5-1.23-4.57l-11.66-3.21-9.38 34.03c-.64 2.34-.18 4.51 2.91 5.36l-5.47-1.51c-3.09-.85-5.07-3.44-4.42-5.78l8.21-29.8c.65-2.34.18-4.51-2.91-5.36l-7.6-2.1c-1.86.14-2.9 1.49-3.4 3.3l1.17-4.24 34.94 9.63z" class="cls-4" style="fill:#daceae;stroke:#daceae;stroke-width:1.27999997px;stroke-miterlimit:10"/><path id="path1056" d="M409.9 143.15c-5.22 9.75-16.6 13.81-25.43 9.09-8.82-4.73-11.74-16.46-6.52-26.2 5.22-9.75 16.61-13.82 25.43-9.09s11.74 16.46 6.52 26.2zm-5.24-6.65c1.72-10.73-1.72-20.28-7.68-21.34-5.96-1.05-12.2 6.79-13.92 17.53-1.72 10.73 1.72 20.28 7.68 21.34 5.96 1.05 12.19-6.79 13.92-17.53zm-6.47.38c-1.93-1.04-5.02.5-5.95 3.94.93-3.44-.64-7.47-2.57-8.5 1.93 1.03 5.02-.51 5.95-3.95-.93 3.43.64 7.48 2.57 8.51z" class="cls-4" style="fill:#daceae;stroke:#daceae;stroke-width:1.27999997px;stroke-miterlimit:10"/><path id="path1058" d="m432.41 188.37-4.24-3.77c-2.39-2.12-3.03-5.32-1.42-7.13l4.45-5.02c1.23-1.39 1.83-2.98.97-4.6l-3.33-2.96h.01c-2.42-2.15-3.97-4.84-3.76-7.39l.06-.07s5.73 9.91 14.97 2.58c1.21-.96 7.78-8.93 3.76-14.48-.11-.13-.23-.26-.34-.35l-6.96-6.18c1.18 1.91 1.27 4.1.04 5.49l-20.72 23.34c-1.61 1.82-2.15 3.97.24 6.09l-4.24-3.77c-2.4-2.13-3.03-5.32-1.42-7.14l20.73-23.35c1.61-1.82 2.15-3.97-.24-6.09l13.14 11.67c2.77 2.46 5.22 4.86 6.09 7.29 2.07 5.77-.52 11.12-4.8 14.37-4.19 3.18-9.81 2.32-14.09-.24l3.93 3.49c2.36 2.13 2.97 5.29 1.37 7.1l-4.45 5.01c-1.61 1.82-2.15 3.97.24 6.1z" class="cls-4" style="fill:#daceae;stroke:#daceae;stroke-width:1.27999997px;stroke-miterlimit:10"/><path id="path1060" d="M462.62 208.17c-3.41 2.48-7.97 3.83-11.61 2.74-1.01-.3-1.98-.67-2.77-1.32-1.34-1.09-2.47-2.81-4.23-5.23-2.14-2.95-4.74-6.61-5.24-7.75-1.67-3.81 3.17-10.08 9.75-11.55l-.73 7.29s-.77.19-1.98 1.06c-3.9 2.78-4.14 7.73-2.03 10.46 2.73 3.54 7.35 3.65 10.58 1.31 2.97-2.16 4.88-3.8 4.42-7.05-.22-1.54-1.86-3.42-2.39-4.15-6.01-8.33-3.37-14.86.74-17.85 3.41-2.48 7.97-3.83 11.61-2.74 1.01.3 1.98.68 2.77 1.32 1.34 1.09 2.47 2.81 4.22 5.23 2.14 2.95 4.74 6.61 5.24 7.75 1.67 3.81-3.17 10.08-9.75 11.55l.73-7.29s.77-.19 1.98-1.06c3.9-2.78 4.14-7.73 2.03-10.46-2.73-3.54-7.35-3.65-10.58-1.31-3.86 2.8-6.77 5.56-3.12 10.6.22.31.61.89.64.93 6.01 8.33 3.82 14.53-.28 17.52z" class="cls-4" style="fill:#daceae;stroke:#daceae;stroke-width:1.27999997px;stroke-miterlimit:10"/></g><g id="g1076"><path id="path1064" d="M218.43 507.03v3.28h-3.15.06-14.23c-2.37 0-4.28-1.44-4.32-3.23v0-23.35c0-1.81-.76-3.28-3.15-3.28h4.24c2.39 0 4.32 1.47 4.33 3.28v23.3c0 1.34.42 2.49 1.61 3 .13.04.24.05.39.05h12.47c1.3-.47 1.78-1.65 1.78-3.04z" class="cls-2" style="fill:#002d55;stroke:#002d55;stroke-width:1.13999999px;stroke-linecap:round;stroke-linejoin:round"/><path id="path1066" d="M245.16 510.31h-4.23c-2.39 0-4.33-1.47-4.33-3.28v-23.3c0-1.81-.77-3.28-3.15-3.28h4.24c2.39 0 4.33 1.47 4.33 3.28v23.3c0 1.81.77 3.28 3.15 3.28z" class="cls-2" style="fill:#002d55;stroke:#002d55;stroke-width:1.13999999px;stroke-linecap:round;stroke-linejoin:round"/><path id="path1068" d="M280.69 500.74c0 3.14-1.18 6.49-3.44 8.22-.63.48-1.27.9-2.01 1.1-1.25.33-2.78.26-5.01.26-2.72 0-6.07-.04-6.98-.23-3.03-.66-4.7-6.33-2.7-10.95l4.09 3.64s-.22.55-.23 1.66c-.03 3.57 2.86 5.89 5.43 5.81 3.34-.1 5.43-2.84 5.43-5.81 0-2.74-.16-4.61-2.33-5.76-1.03-.54-2.88-.37-3.55-.37-7.67-.02-10.46-4.48-10.46-8.27 0-3.14 1.18-6.49 3.44-8.21.63-.48 1.28-.9 2.01-1.1 1.25-.33 2.78-.26 5.01-.26 2.72 0 6.07.04 6.98.23 3.03.66 4.7 6.33 2.7 10.95l-4.09-3.64s.22-.55.23-1.66c.03-3.57-2.86-5.89-5.43-5.81-3.34.1-5.43 2.84-5.43 5.81 0 3.56.39 6.53 5.04 6.53.28 0 .8.02.84.02 7.67.02 10.45 4.06 10.46 7.85z" class="cls-2" style="fill:#002d55;stroke:#002d55;stroke-width:1.13999999px;stroke-linecap:round;stroke-linejoin:round"/><path id="path1070" d="M314.61 509.27c-2.08 1.14-5.47 1.07-8.94 1.04h-3.7c-2.39 0-4.33-1.47-4.33-3.28v-23.3c0-1.81-.77-3.28-3.15-3.28h4.24c2.39 0 4.32 1.47 4.32 3.28v-.04c.87-3.24 10.95-5.99 12.77 1.76.59 2.52-1.47 6.33-5.65 7.52 3.95.45 8.06 2.82 8.88 6.99.78 3.94-.42 7.12-4.44 9.31m-11.57-25.52v11.4c.57-.76 1.42-1.32 2.41-1.7-.07-.09 0-.15.48-.16l.22-.06c.05-.03.08-.04.08-.04 3.97-.88 3.34-5.7 3.25-6.71-.59-6.83-6.44-2.73-6.44-2.73m9.64 17.45c-1.52-8.67-9.64-5.98-9.64-5.98v11.82c0 1.34.42 2.49 1.61 3 7.84 1.5 8.26-7.51 8.03-8.84" class="cls-2" style="fill:#002d55;stroke:#002d55;stroke-width:1.13999999px;stroke-linecap:round;stroke-linejoin:round"/><path id="path1072" d="M361 495.39c0 8.25-6.05 14.94-13.52 14.94s-13.52-6.69-13.52-14.94 6.05-14.94 13.52-14.94S361 487.14 361 495.39m-5.79-2.53c-2.65-7.67-8.28-12.74-12.57-11.33-4.29 1.41-5.63 8.77-2.98 16.43 2.65 7.67 8.27 12.73 12.57 11.33 4.29-1.41 5.63-8.76 2.98-16.43m-4.12 2.53c-1.64 0-3.12 2.1-2.52 4.68-.6-2.59-3.05-4.68-4.69-4.68 1.64 0 3.12-2.11 2.52-4.69.6 2.59 3.05 4.69 4.69 4.69" class="cls-2" style="fill:#002d55;stroke:#002d55;stroke-width:1.13999999px;stroke-linecap:round;stroke-linejoin:round"/><path id="path1074" d="M382.98 480.45c.24 5.78 16.22 20.14 16.22 29.86h-5.41c0-9.1-14.02-18.82-15.99-27.84v25.67c.24 1.01.85 1.79 2.04 2.06.3.07.62.11 1 .11h-6.31c.37 0 .7-.05.99-.11 1.19-.27 1.81-1.05 2.04-2.06v-25.9c-.29-.82-.89-1.44-1.92-1.68-.3-.07-.62-.11-.99-.11zm19.48 0c-.37 0-.7.05-.99.11-1.22.28-1.83 1.08-2.06 2.13v27.62h-.21v-27.62c-.22-1.04-.83-1.85-2.05-2.13-.3-.07-.62-.11-.99-.11h6.31z" class="cls-2" style="fill:#002d55;stroke:#002d55;stroke-width:1.13999999px;stroke-linecap:round;stroke-linejoin:round"/></g><path id="path1078" d="M172.93 444.35V278.12c0-59.26 56.96-107.29 127.23-107.29 70.27 0 127.23 48.04 127.23 107.29v166.23" class="cls-1" style="fill:none;stroke:#daceae;stroke-width:11.60999966px;stroke-linecap:round;stroke-linejoin:round"/><path id="line1080" d="M172.93 292.65h40.66" class="cls-1" style="fill:none;stroke:#daceae;stroke-width:11.60999966px;stroke-linecap:round;stroke-linejoin:round"/><path id="line1082" d="M381.29 292.65h40.66" class="cls-1" style="fill:none;stroke:#daceae;stroke-width:11.60999966px;stroke-linecap:round;stroke-linejoin:round"/><circle id="circle1084" cx="299.77" cy="300" r="249.75" style="fill:none;stroke:#0091c9;stroke-width:15.93000031px;stroke-miterlimit:10"/></g></svg>