<svg xmlns="http://www.w3.org/2000/svg" id="Layer_1" width="423.5" height="534.227" data-name="Layer 1" version="1.1"><defs id="defs4"><style id="style2">.cls-6{fill:#fff}.cls-2{fill:#10143d}.cls-3{fill:#2b3d83}.cls-4{fill:#c9202a}.cls-5{fill:#ddb36c}</style></defs><path id="polygon8" d="m445.61 249.36 28.57-135.79H123.14l28.57 135.79z" class="cls-2" style="fill:#10143d" transform="translate(-88.25 -32.91)"/><path id="polygon10" d="m444.61 137.57-18.47 87.79H171.18l-18.47-87.79z" class="cls-3" style="fill:#2b3d83" transform="translate(-88.25 -32.91)"/><path id="path12" d="m352.58 107.73-17.18 81.65h-250l-17.18-81.65h284.36m7.56-6.14H60.68l1.56 7.4 17.18 81.66 1 4.87h259.96l1-4.87 17.19-81.66 1.55-7.4z" class="cls-4" style="fill:#c9202a"/><path id="path14" d="M266.03 131.37c-13.13-6.12-32.91-9.64-54.28-9.64-21.37 0-41.15 3.52-54.28 9.64l-5.25 2.45-36.38-71 8.14-1.33a31.3 31.3 0 0 1 4.77-.4c4.61 0 7.72 1.06 9.82 2.5a12 12 0 0 1 3.67-.58c7.18 0 13 6.31 13 14.07a14.86 14.86 0 0 1-2.18 7.81c2.1 1.85 4.12 2.83 5.9 2.83a8 8 0 0 0 4.59-1.8 13.67 13.67 0 0 0 2.08-5.15 14 14 0 0 1-9-13.39c0-7.76 5.84-14.07 13-14.07s13 6.31 13 14.07a15.1 15.1 0 0 1-1.22 5.94c2.63 1.9 6.53 4.11 10 4.11 1.08 0 3.92 0 6.68-4.76a16.15 16.15 0 0 1-9.23-14.91c0-7.84 5.17-14.39 12-15.8.09-.73.19-1.34.28-1.86.69-3.73 4.12-11.42 5.16-13.69l5.47-12 5.47 12c1 2.27 4.47 10 5.16 13.69.1.55.2 1.23.3 2 6.47 1.71 11.29 8.07 11.29 15.64a16.23 16.23 0 0 1-8.7 14.66c2.79 5 5.7 5 6.81 5 3.55 0 7.6-2.36 10.22-4.28a14.93 14.93 0 0 1-1.15-5.77c0-7.76 5.84-14.07 13-14.07s13 6.31 13 14.07a14 14 0 0 1-9.31 13.49 13.55 13.55 0 0 0 2.06 5 8 8 0 0 0 4.59 1.8c1.8 0 3.86-1 6-2.91a15 15 0 0 1 1.38-17.37 12.66 12.66 0 0 1 9.49-4.43 12.05 12.05 0 0 1 3.58.55c2.1-1.43 5.2-2.47 9.77-2.47a31.3 31.3 0 0 1 4.78.36l8.14 1.33-36.38 71z" class="cls-5" style="fill:#ddb36c"/><path id="path16" d="M211.75 28.93s4.11 9 4.71 12.28c.27 1.48.53 4.06.75 6.78a7.5 7.5 0 0 1 2-.28c4.82 0 8.74 4.51 8.74 10.07 0 5.56-3.92 10.06-8.74 10.06a7.73 7.73 0 0 1-2.45-.41c.3.86.62 1.76 1 2.72 3.57 10.19 9 13.31 14.38 13.31 8.46 0 16.66-7.81 16.66-7.81l1.26-1.81a8.47 8.47 0 0 1-2.83-6.44c0-4.45 3.13-8 7-8s7 3.6 7 8-3.13 8-7 8a5.89 5.89 0 0 1-1.88-.33c0 .18-.08.34-.13.53-2.05 7.85 3.41 14.53 3.41 14.53a14.16 14.16 0 0 0 8.94 3.57c5.67 0 10.57-4.26 14.33-9.16a6.72 6.72 0 0 1-2.4-1.8 8.94 8.94 0 0 1 0-11.39 6.37 6.37 0 0 1 9.88 0 .47.47 0 0 1 .06.09c.37-.84.56-1.34.56-1.34 1.19-2.5 4.89-3 7.79-3a26.13 26.13 0 0 1 3.81.28l-30 58.52c-13.32-6.21-33.81-10.2-56.82-10.2-23.01 0-43.5 4-56.82 10.2l-30-58.52a26.13 26.13 0 0 1 3.79-.29c2.9 0 6.6.53 7.79 3 0 0 .21.54.61 1.47a6.56 6.56 0 0 1 5.1-2.47c3.87 0 7 3.6 7 8.05a8 8 0 0 1-4.57 7.52c3.76 4.89 8.65 9.13 14.3 9.13a14.16 14.16 0 0 0 8.94-3.57s5.46-6.68 3.41-14.53c0-.15-.07-.28-.11-.42a6.41 6.41 0 0 1-1.58.22c-3.87 0-7-3.6-7-8s3.12-8 7-8 7 3.6 7 8a8.47 8.47 0 0 1-3 6.62l1.13 1.63s8.2 7.81 16.66 7.81c5.35 0 10.81-3.12 14.38-13.31l1.06-3a7.71 7.71 0 0 1-3.24.72c-4.83 0-8.74-4.51-8.74-10.06 0-5.55 3.91-10.07 8.74-10.07a7.48 7.48 0 0 1 2.67.49c.23-2.8.49-5.47.77-7 .6-3.29 4.71-12.28 4.71-12.28m0-28.93-10.97 23.82a100.84 100.84 0 0 0-5.23 13.47 21.91 21.91 0 0 0-12.34 16 18.44 18.44 0 0 0-13.6-6.07 19.08 19.08 0 0 0-17.63 12.54 18.2 18.2 0 0 0-12.52-2.63 24.92 24.92 0 0 0-10.74-2.15 38.2 38.2 0 0 0-5.76.44l-16.24 2.68 7.52 14.67 30 58.52 5.28 10.32 10.51-4.9c12.17-5.68 31.51-9.07 51.73-9.07 20.22 0 39.56 3.39 51.73 9.07l10.51 4.9 5.28-10.32 30-58.52 7.44-14.67-16.27-2.68a38.35 38.35 0 0 0-5.73-.44 25 25 0 0 0-10.7 2.12 18 18 0 0 0-2.65-.19 18.34 18.34 0 0 0-9.65 2.75 19.07 19.07 0 0 0-17.59-12.45 18.62 18.62 0 0 0-14.45 7 22 22 0 0 0-11.72-16.59 96.53 96.53 0 0 0-5.32-13.83L211.75 0Z" class="cls-2" style="fill:#10143d"/><circle id="circle18" cx="-78.296" cy="377.755" r="211.75" class="cls-2" style="fill:#10143d" transform="rotate(-45)"/><circle id="circle20" cx="210.489" cy="322.48" r="187.33" class="cls-2" style="fill:#10143d"/><path id="path22" d="M210.49 138.22c101.6 0 184.26 82.66 184.26 184.26s-82.66 184.26-184.26 184.26S26.23 424.09 26.23 322.48c0-101.61 82.66-184.26 184.26-184.26m0-6.13c-105 0-190.39 85.41-190.39 190.39 0 104.98 85.41 190.4 190.39 190.4 104.98 0 190.4-85.41 190.4-190.4 0-104.99-85.41-190.39-190.4-190.39z" class="cls-4" style="fill:#c9202a"/><path id="path24" d="m100.62 202.95 4.65-3.81 13.88 16.95 10.54-8.64 3.44 4.2-15.19 12.44z" class="cls-6" style="fill:#fff"/><path id="path26" d="M154.33 200.59a14.86 14.86 0 0 1-5.76 1.41 14.37 14.37 0 0 1-5.42-.83 13.48 13.48 0 0 1-4.58-2.79 14 14 0 0 1-3.26-4.54v-.07a13.74 13.74 0 0 1-1.28-5.44 14 14 0 0 1 3.8-10 15.8 15.8 0 0 1 10.59-4.85 14.3 14.3 0 0 1 5.42.82 13.3 13.3 0 0 1 4.59 2.8 13.91 13.91 0 0 1 3.26 4.54v.07a13.71 13.71 0 0 1 1.29 5.44 14 14 0 0 1-3.8 10 15.21 15.21 0 0 1-4.85 3.44zm-2.24-5.08a8 8 0 0 0 2.74-2 7.58 7.58 0 0 0 1.6-2.75 8.78 8.78 0 0 0 .39-3.16 8.9 8.9 0 0 0-.82-3.26v-.07a9.2 9.2 0 0 0-1.93-2.76 8.2 8.2 0 0 0-5.87-2.36 8 8 0 0 0-3.3.76 8.13 8.13 0 0 0-2.76 2 7.72 7.72 0 0 0-1.58 2.74 8.62 8.62 0 0 0-.4 3.17 8.87 8.87 0 0 0 .83 3.25v.07a9.12 9.12 0 0 0 1.93 2.77 8.37 8.37 0 0 0 2.7 1.77 8.2 8.2 0 0 0 3.15.59 7.92 7.92 0 0 0 3.32-.76z" class="cls-6" style="fill:#fff"/><path id="path28" d="m174.49 164.14 5.48-.8 15.11 14.8-2.44-16.65 5.88-.86 3.94 27-5.06.74-15.6-15.28 2.51 17.19-5.87.86z" class="cls-6" style="fill:#fff"/><path id="path30" d="m218.61 160.49 10.57 1.36a16.14 16.14 0 0 1 5.7 1.77 13.78 13.78 0 0 1 4.2 3.43 12.74 12.74 0 0 1 2.42 4.66 13.62 13.62 0 0 1 .36 5.46v.07a13.6 13.6 0 0 1-1.73 5.21 12.71 12.71 0 0 1-3.51 3.92 14.17 14.17 0 0 1-4.94 2.28 15.91 15.91 0 0 1-6 .3l-10.57-1.35zm7.79 23.08a9.33 9.33 0 0 0 3.4-.16 7.08 7.08 0 0 0 2.79-1.33 7.79 7.79 0 0 0 2-2.34 8.72 8.72 0 0 0 1-3.22v-.07a9 9 0 0 0-.18-3.37 7.85 7.85 0 0 0-1.33-2.81 7.74 7.74 0 0 0-2.36-2 9.1 9.1 0 0 0-3.26-1l-4.61-.59-2.1 16.3z" class="cls-6" style="fill:#fff"/><path id="path32" d="M263.15 199.47a14.89 14.89 0 0 1-4.9-3.32 14.48 14.48 0 0 1-3-4.57 13.49 13.49 0 0 1-1-5.28 13.92 13.92 0 0 1 1.19-5.46v-.07a13.79 13.79 0 0 1 3.17-4.61 13.91 13.91 0 0 1 10-3.9 15 15 0 0 1 5.8 1.28 14.89 14.89 0 0 1 4.9 3.32 14.62 14.62 0 0 1 3 4.58 13.58 13.58 0 0 1 1 5.27 14.08 14.08 0 0 1-1.18 5.46v.08a13.88 13.88 0 0 1-3.18 4.6 14 14 0 0 1-4.55 2.93 14.19 14.19 0 0 1-5.43 1 15.07 15.07 0 0 1-5.82-1.31zm2.27-5.06a8.17 8.17 0 0 0 3.31.7 7.45 7.45 0 0 0 3.11-.66 8.58 8.58 0 0 0 2.61-1.83 8.74 8.74 0 0 0 1.86-2.79v-.07a8.91 8.91 0 0 0 .76-3.29 8.29 8.29 0 0 0-.5-3.18 8.12 8.12 0 0 0-1.69-2.75 8 8 0 0 0-2.77-1.94 8.29 8.29 0 0 0-3.33-.71 7.49 7.49 0 0 0-3.09.67 8.5 8.5 0 0 0-2.62 1.83 8.74 8.74 0 0 0-1.86 2.79v.07a9.33 9.33 0 0 0-.76 3.29 8.22 8.22 0 0 0 2.17 5.92 7.82 7.82 0 0 0 2.8 1.95z" class="cls-6" style="fill:#fff"/><path id="path34" d="m303.69 189.94 4.28 3.53-.82 21.13 10.7-13 4.58 3.78-17.38 21.09-3.95-3.25.84-21.82-11.05 13.41-4.58-3.78z" class="cls-6" style="fill:#fff"/><path id="path36" d="m94.91 394.95 4 5.11-4.71 12.76 13.55-1.43 4 5.12-21.62 16.78-3.64-4.68 14.07-11-13.93 1.1-.1-.12 4.45-13.1-14 10.88-3.65-4.68z" class="cls-6" style="fill:#fff"/><path id="path38" d="M114.55 454.77a14.92 14.92 0 0 1-4.07-4.3 14.58 14.58 0 0 1-2-5.12 13.51 13.51 0 0 1 .16-5.37 14 14 0 0 1 2.33-5.08l.05-.06a13.74 13.74 0 0 1 4.09-3.82 14 14 0 0 1 10.6-1.65 15.78 15.78 0 0 1 9.45 6.8 14.39 14.39 0 0 1 2 5.12 13.33 13.33 0 0 1-.16 5.37 14 14 0 0 1-2.33 5.08v.06a13.87 13.87 0 0 1-4.09 3.82 14.2 14.2 0 0 1-5.07 1.87 14 14 0 0 1-5.52-.22 15.07 15.07 0 0 1-5.44-2.5zm3.3-4.46a8.15 8.15 0 0 0 3.08 1.4 7.42 7.42 0 0 0 3.18 0 8.71 8.71 0 0 0 2.95-1.22 9.06 9.06 0 0 0 2.42-2.33v-.06a9 9 0 0 0 1.45-3.05 8.18 8.18 0 0 0 .2-3.22 8.28 8.28 0 0 0-1-3 8 8 0 0 0-2.3-2.49 8.18 8.18 0 0 0-3.1-1.42 7.65 7.65 0 0 0-3.16 0 8.52 8.52 0 0 0-2.95 1.22 9 9 0 0 0-2.41 2.32v.07a9.14 9.14 0 0 0-1.45 3 8.26 8.26 0 0 0 .84 6.26 8 8 0 0 0 2.25 2.52z" class="cls-6" style="fill:#fff"/><path id="path40" d="m151.96 445.29 5.21 1.91 6.23 20.2 5.79-15.8 5.57 2-9.4 25.66-4.8-1.76-6.45-20.86-6 16.31-5.58-2z" class="cls-6" style="fill:#fff"/><path id="path42" d="m195.53 456.83 5.53.49 9.23 28.45-6.27-.56-1.94-6.32-11.51-1-3 5.89-6.11-.54zm4.88 16.58-2.83-9.15-4.4 8.51z" class="cls-6" style="fill:#fff"/><path id="path44" d="m222.14 457.72 12.32-2.08q5.12-.85 8.31 1.41a8.42 8.42 0 0 1 3.35 5.77v.07a8.6 8.6 0 0 1-.69 5.61 9.44 9.44 0 0 1-3.67 3.72l8.21 8.51-6.93 1.18-7.23-7.65h-.06l-4.58.78 1.46 8.62-5.93 1zm14.14 11.08a5 5 0 0 0 3.2-1.61 3.58 3.58 0 0 0 .7-3v-.08a3.51 3.51 0 0 0-1.72-2.68 5.53 5.53 0 0 0-3.59-.38l-5.89 1 1.31 7.74z" class="cls-6" style="fill:#fff"/><path id="path46" d="M277.82 470.93a14.19 14.19 0 0 1-5.55 1.27 13.48 13.48 0 0 1-9.77-3.81 14.38 14.38 0 0 1-3.2-4.61v-.07a14.17 14.17 0 0 1-.42-10.73 13.75 13.75 0 0 1 2.87-4.61 14.76 14.76 0 0 1 4.82-3.36 18.45 18.45 0 0 1 3.32-1.14 15.49 15.49 0 0 1 3-.38 12.81 12.81 0 0 1 2.72.25 16.63 16.63 0 0 1 2.55.74l-1.7 5.59a14.4 14.4 0 0 0-3.9-.75 8.32 8.32 0 0 0-3.81.77 7.74 7.74 0 0 0-2.64 1.9 7.46 7.46 0 0 0-1.55 2.7 8.67 8.67 0 0 0-.4 3.14 9.36 9.36 0 0 0 .81 3.26v.07a9.58 9.58 0 0 0 1.88 2.79 8.64 8.64 0 0 0 2.6 1.84 7.58 7.58 0 0 0 3 .68 7.45 7.45 0 0 0 3.22-.69 8.28 8.28 0 0 0 3.27-2.39 15 15 0 0 0 2-3.45l5.07 2a20 20 0 0 1-1.17 2.74 12.72 12.72 0 0 1-3.94 4.51 18 18 0 0 1-3.08 1.74z" class="cls-6" style="fill:#fff"/><path id="path48" d="m285.26 435.63 4.71-3.74 6.72 8.47 8.69-6.89-6.72-8.47 4.71-3.74 17 21.41-4.71 3.74-6.82-8.6-8.68 6.9 6.82 8.59-4.73 3.79z" class="cls-6" style="fill:#fff"/><path id="path50" d="M339.41 421.82a18.06 18.06 0 0 1-4.59 4.2 16.21 16.21 0 0 1-5.95 2.31l-1.2-5.41a17.47 17.47 0 0 0 4.26-1.57 10.22 10.22 0 0 0 3.35-2.86 5.3 5.3 0 0 0 1.24-2.72 2.16 2.16 0 0 0-.87-2l-.06-.05a2.53 2.53 0 0 0-.95-.46 2.18 2.18 0 0 0-1.17.14 8.5 8.5 0 0 0-1.64.86 25.75 25.75 0 0 0-2.36 1.71 33.44 33.44 0 0 1-3.2 2.28 10.19 10.19 0 0 1-3 1.32 6.26 6.26 0 0 1-2.92.05 8 8 0 0 1-3.09-1.56l-.06-.05a7.87 7.87 0 0 1-2.24-2.62 7.63 7.63 0 0 1-.86-3.13 8.54 8.54 0 0 1 .51-3.41 12 12 0 0 1 1.89-3.42 16.48 16.48 0 0 1 4.09-3.82 16.15 16.15 0 0 1 4.86-2.09l1.68 5.24a19.68 19.68 0 0 0-3.75 1.64 9 9 0 0 0-2.72 2.34 4.24 4.24 0 0 0-1.07 2.5 2.07 2.07 0 0 0 .81 1.74h.06a2.53 2.53 0 0 0 1.06.51 2.29 2.29 0 0 0 1.26-.2 8.54 8.54 0 0 0 1.7-1c.66-.47 1.47-1.07 2.43-1.81a27.48 27.48 0 0 1 3.24-2.18 10.29 10.29 0 0 1 3-1.17 6.29 6.29 0 0 1 2.8.05 7.57 7.57 0 0 1 2.8 1.51h.06a8.29 8.29 0 0 1 2.41 2.79 7.45 7.45 0 0 1 .85 3.25 9.19 9.19 0 0 1-.63 3.49 13.52 13.52 0 0 1-2.03 3.6z" class="cls-6" style="fill:#fff"/><circle id="circle52" cx="-265.584" cy="278.535" r="112.14" class="cls-2" style="fill:#10143d" transform="rotate(-76.72)"/><path id="path54" d="M210.1 213.41a109.08 109.08 0 1 1-109.08 109.07A109.2 109.2 0 0 1 210.1 213.41m0-6.14a115.22 115.22 0 1 0 115.21 115.21A115.35 115.35 0 0 0 210.1 207.27z" style="fill:#ddb46b"/><path id="path56" d="M211.64 113.55a12.7 12.7 0 1 1 12.7-12.7 12.71 12.71 0 0 1-12.7 12.7z" class="cls-2" style="fill:#10143d"/><path id="path58" d="M211.64 91.22a9.63 9.63 0 1 1-9.63 9.63 9.63 9.63 0 0 1 9.63-9.63m0-6.13a15.77 15.77 0 1 0 15.77 15.76 15.78 15.78 0 0 0-15.77-15.76z" class="cls-4" style="fill:#c9202a"/><path id="path60" d="m40.6 328.88 7-5.73c.66-.54 1.22-1 1.68-1.45a8.79 8.79 0 0 0 1.13-1.23 4.35 4.35 0 0 0 .63-1.14 3.61 3.61 0 0 0 .2-1.21 2.58 2.58 0 0 0-.78-2 3 3 0 0 0-2.05-.69 3.58 3.58 0 0 0-2.17.69 12.1 12.1 0 0 0-2.12 2.13l-3.24-2.61a17 17 0 0 1 1.57-1.87 8.49 8.49 0 0 1 1.71-1.38 7.5 7.5 0 0 1 2-.85 10.15 10.15 0 0 1 2.52-.29 8.92 8.92 0 0 1 3 .47 6.86 6.86 0 0 1 2.29 1.31 5.8 5.8 0 0 1 1.47 2 6.59 6.59 0 0 1 .52 2.67v.06a7.47 7.47 0 0 1-.34 2.36 7 7 0 0 1-1 2 11.64 11.64 0 0 1-1.73 1.83c-.7.61-1.51 1.28-2.43 2l-3.43 2.64h9.16v4H40.6z" class="cls-5" style="fill:#ddb36c"/><path id="path62" d="M68.75 332.9a8.74 8.74 0 0 1-3.83-.83 8.58 8.58 0 0 1-2.95-2.28 10.47 10.47 0 0 1-1.87-3.44 13.39 13.39 0 0 1-.66-4.26v-.06a13.18 13.18 0 0 1 .67-4.27 10.7 10.7 0 0 1 1.91-3.45 8.9 8.9 0 0 1 3-2.31 8.48 8.48 0 0 1 3.83-.85 8.74 8.74 0 0 1 3.8.83 8.64 8.64 0 0 1 2.94 2.28 10.69 10.69 0 0 1 1.89 3.44 13.14 13.14 0 0 1 .68 4.27v.06a13.12 13.12 0 0 1-.68 4.26 10.86 10.86 0 0 1-1.91 3.46 8.86 8.86 0 0 1-2.95 2.31 8.67 8.67 0 0 1-3.87.84zm.06-4.18a3.65 3.65 0 0 0 1.89-.49 4.5 4.5 0 0 0 1.44-1.38 6.67 6.67 0 0 0 .92-2.11 10.53 10.53 0 0 0 .31-2.65v-.06a10.15 10.15 0 0 0-.33-2.66 6.74 6.74 0 0 0-.95-2.12 4.69 4.69 0 0 0-1.47-1.41 3.58 3.58 0 0 0-1.87-.51 3.69 3.69 0 0 0-1.9.49 4.37 4.37 0 0 0-1.42 1.39 7.21 7.21 0 0 0-.92 2.1 10.15 10.15 0 0 0-.33 2.66v.06a10.28 10.28 0 0 0 .33 2.67 7 7 0 0 0 .93 2.12 4.6 4.6 0 0 0 1.46 1.39 3.67 3.67 0 0 0 1.94.51z" class="cls-5" style="fill:#ddb36c"/><path id="path64" d="m343.02 328.88 7-5.73c.66-.54 1.22-1 1.68-1.45a9.32 9.32 0 0 0 1.12-1.23 4.4 4.4 0 0 0 .64-1.14 3.88 3.88 0 0 0 .19-1.21 2.58 2.58 0 0 0-.78-2 3 3 0 0 0-2-.69 3.61 3.61 0 0 0-2.18.69 12.1 12.1 0 0 0-2.12 2.13l-3.24-2.61a16 16 0 0 1 1.58-1.87 8.49 8.49 0 0 1 1.71-1.38 7.44 7.44 0 0 1 2-.85 10.29 10.29 0 0 1 2.53-.29 9 9 0 0 1 3 .47 6.72 6.72 0 0 1 2.28 1.31 5.8 5.8 0 0 1 1.47 2 6.59 6.59 0 0 1 .53 2.67v.06a7.46 7.46 0 0 1-.35 2.36 7 7 0 0 1-1 2 11.64 11.64 0 0 1-1.73 1.83c-.7.61-1.51 1.28-2.43 2l-3.42 2.64h9.16v4h-15.64z" class="cls-5" style="fill:#ddb36c"/><path id="path66" d="m361.75 328.88 7-5.73c.66-.54 1.22-1 1.68-1.45a9.46 9.46 0 0 0 1.13-1.23 4.35 4.35 0 0 0 .63-1.14 3.61 3.61 0 0 0 .19-1.21 2.58 2.58 0 0 0-.78-2 3 3 0 0 0-2-.69 3.61 3.61 0 0 0-2.18.69 12.1 12.1 0 0 0-2.12 2.13l-3.24-2.61a17 17 0 0 1 1.58-1.87 8.49 8.49 0 0 1 1.71-1.38 7.5 7.5 0 0 1 2-.85 10.15 10.15 0 0 1 2.52-.29 9 9 0 0 1 3 .47 6.72 6.72 0 0 1 2.28 1.31 5.8 5.8 0 0 1 1.47 2 6.59 6.59 0 0 1 .53 2.67v.06a7.46 7.46 0 0 1-.4 2.33 7 7 0 0 1-1 2 11.64 11.64 0 0 1-1.73 1.83c-.7.61-1.51 1.28-2.43 2l-3.42 2.64h9.16v4h-15.58z" class="cls-5" style="fill:#ddb36c"/><circle id="circle68" cx="210.489" cy="322.48" r="87.35" class="cls-3" style="fill:#2b3d83"/><path id="path70" d="M282.75 371.62a95.45 95.45 0 0 0-144.47 0 88 88 0 0 0 18.61 19.82 68.48 68.48 0 0 1 107.25 0 88.26 88.26 0 0 0 18.61-19.82z" class="cls-6" style="fill:#fff"/><path id="path72" d="M210.49 351.71a88.58 88.58 0 0 0-60 23.11 82.32 82.32 0 0 0 6.75 6.85 74.58 74.58 0 0 1 106.4 0 80.18 80.18 0 0 0 6-6.05c-16.12-14.78-36.95-23.91-59.15-23.91z" class="cls-4" style="fill:#c9202a"/><path id="path74" d="M138.26 273.35a95.45 95.45 0 0 0 144.47 0 88.05 88.05 0 0 0-18.61-19.82 68.48 68.48 0 0 1-107.25 0 87.83 87.83 0 0 0-18.61 19.82z" class="cls-6" style="fill:#fff"/><path id="path76" d="M210.49 293.26a88.61 88.61 0 0 0 60-23.11 80.91 80.91 0 0 0-6.76-6.85 74.61 74.61 0 0 1-106.4 0 82.08 82.08 0 0 0-6 6.05c16.14 14.74 36.97 23.91 59.16 23.91z" class="cls-4" style="fill:#c9202a"/><path id="path78" d="M225.34 236.39a88.14 88.14 0 0 0-29.7 0v71.24H124.4a88.14 88.14 0 0 0 0 29.7h71.24v71.24a87.45 87.45 0 0 0 29.7 0v-71.24h71.24a87.45 87.45 0 0 0 0-29.7h-71.24z" class="cls-4" style="fill:#c9202a"/><path id="path80" d="M123.75 311.89h76.12v-76.12c-2.89.35-5.72.84-8.51 1.46v66.15h-66.12q-.93 4.19-1.49 8.51z" class="cls-6" style="fill:#fff"/><path id="path82" d="M297.2 333.09h-76.11v76.12q4.32-.53 8.51-1.46v-66.16h66.15a85.38 85.38 0 0 0 1.45-8.5z" class="cls-6" style="fill:#fff"/><path id="path84" d="M191.39 407.74c2.79.62 5.62 1.11 8.51 1.46v-76.11h-76.15q.53 4.32 1.46 8.51h66.15z" class="cls-6" style="fill:#fff"/><path id="path86" d="M229.6 237.23q-4.19-.93-8.51-1.46v76.12h76.11a85.38 85.38 0 0 0-1.45-8.51H229.6z" class="cls-6" style="fill:#fff"/></svg>