<svg xmlns="http://www.w3.org/2000/svg" xmlns:xlink="http://www.w3.org/1999/xlink" id="Layer_1" data-name="Layer 1" version="1.1" width="389.8" height="256.433"><defs id="defs12"><linearGradient id="linear-gradient" x1="168.33" y1="505.13" x2="168.33" y2="472.07" gradientUnits="userSpaceOnUse"><stop offset="0" stop-color="#fff" id="stop4"/><stop offset=".87" stop-color="#dcdbdb" id="stop6"/><stop offset="1" stop-color="#dcdbdb" id="stop8"/></linearGradient><linearGradient id="linear-gradient-2" x1="344.29" y1="505.13" x2="344.29" y2="472.07" xlink:href="#linear-gradient" gradientTransform="translate(-57.83 -371.647)"/><linearGradient xlink:href="#linear-gradient" id="linearGradient1118" gradientUnits="userSpaceOnUse" x1="168.33" y1="505.13" x2="168.33" y2="472.07" gradientTransform="translate(-57.83 -371.647)"/><style id="style2">.cls-14,.cls-2{fill:#dd3736}.cls-2{stroke:#fff}.cls-13,.cls-2{stroke-miterlimit:10}.cls-2{stroke-width:7.74px}.cls-13,.cls-3{fill:#ffd600}.cls-4{fill:#fff}.cls-6{fill:#0c5983}.cls-7{fill:#dcdbdb}.cls-8{fill:#1c73bb}.cls-13{stroke:#ffd600;stroke-width:1.84px}.cls-14{stroke:#dd3736;stroke-linecap:round;stroke-linejoin:round;stroke-width:2.75px}</style></defs><path class="cls-2" id="polyline16" style="fill:#dd3736;stroke:#fff;stroke-width:7.73999977px;stroke-miterlimit:10" transform="translate(-57.83 -371.647)" d="M167.92 521.09H88.19l15.48 37.92h83.59"/><path class="cls-3" id="polygon18" style="fill:#ffd600" transform="translate(-57.83 -371.647)" d="M447.63 505.69H57.83l4.23-10.15h381.33z"/><path class="cls-3" id="polygon20" style="fill:#ffd600" transform="translate(-57.83 -371.647)" d="M422.22 484.52H83.24l4.23-10.16h330.51z"/><path class="cls-2" id="polyline22" style="fill:#dd3736;stroke:#fff;stroke-width:7.73999977px;stroke-miterlimit:10" transform="translate(-57.83 -371.647)" d="M339.07 521.09h79.73l-15.48 37.92h-83.59"/><path class="cls-4" d="M331.04 162.093c0-.1-.06-.19-.1-.29a5.52 5.52 0 0 0-1-1.88 3.94 3.94 0 0 0-3.33-1.49 3.76 3.76 0 0 0-3.45 2.78 3.87 3.87 0 0 0-.09 1.44 8 8 0 0 0 1.3 3.46 33.75 33.75 0 0 0 2.14 2.93 46.09 46.09 0 0 1 2.83 4 14.57 14.57 0 0 1 1.65 3.72.33.33 0 0 0 0 .1c.06-.19.1-.36.15-.52a13.71 13.71 0 0 1 1.7-3.61c1-1.5 2-2.91 3.11-4.34.59-.8 1.18-1.6 1.76-2.41a7.63 7.63 0 0 0 1.06-2.09 4.44 4.44 0 0 0 0-2.88 3.54 3.54 0 0 0-2.89-2.48 3.94 3.94 0 0 0-4.01 1.82 6.88 6.88 0 0 0-.77 1.62v.09z" id="path24" style="fill:#fff"/><path class="cls-6" d="M295.06 200.723c-11.95-18.31-50.58-31.72-96.38-31.72s-84.44 13.41-96.39 31.72h-3.82v12c0 24.14 44.87 43.71 100.21 43.71 55.34 0 100.2-19.57 100.2-43.71v-12z" id="path28" style="fill:#0c5983"/><path class="cls-7" d="m247.82 235.123-19.74-5.38-11.19 9.79 1.2 16.08a193.68 193.68 0 0 0 30.84-5.07z" id="path30" style="fill:#dcdbdb"/><ellipse class="cls-8" cx="198.68" cy="200.723" rx="100.21" ry="39.46" id="ellipse32" style="fill:#1c73bb"/><path class="cls-4" d="m213.1 176.783 10.07-14.34c-7.84-.77-16-1.18-24.48-1.18a247.09 247.09 0 0 0-27.48 1.5l8 13.47-8.19 11.67-65.55-1.71c-4.52 4.5-7 9.4-7 14.53a17 17 0 0 0 1.72 7.3l55.71 1.45-16.23 23.15a192.32 192.32 0 0 0 30.14 5.9l19.75-28.17 10.12.26 17.21 28.92a215.52 215.52 0 0 0 30.93-4.41l-14.06-23.62 60.12 1.56c3.24-3.88 5-8 5-12.34a17.75 17.75 0 0 0-3-9.57l-75.43-2z" id="path34" style="fill:#fff"/><path class="cls-8" d="M198.68 224.713c-24.51 0-48.27-3.82-65.19-10.49-16.15-6.36-19.54-12.55-19.54-13.5 0-.95 3.39-7.15 19.54-13.51 16.92-6.66 40.68-10.48 65.19-10.48 24.51 0 48.27 3.82 65.18 10.48 16.15 6.36 19.55 12.55 19.55 13.51 0 .96-3.4 7.14-19.55 13.5-16.91 6.67-40.69 10.49-65.18 10.49z" id="path36" style="fill:#1c73bb"/><path class="cls-7" d="m139.67 232.623-1.75 14.86a173.39 173.39 0 0 0 32.35 7.17l-.46-16.13a192.32 192.32 0 0 1-30.14-5.9z" id="path38" style="fill:#dcdbdb"/><ellipse class="cls-6" cx="197.77" cy="199.793" rx="64.22" ry="17.07" id="ellipse40" style="fill:#0c5983"/><ellipse cx="198.48" cy="111.243" rx="98.02" ry="96.63" id="ellipse42" style="fill:#64b1e2"/><ellipse class="cls-8" cx="198.48" cy="117.363" rx="98.02" ry="89.1" id="ellipse44" style="fill:#1c73bb"/><ellipse class="cls-8" cx="198.48" cy="117.243" rx="98.02" ry="90.68" id="ellipse46" style="fill:#1c73bb"/><path class="cls-6" d="M197.7 182.353c-36.65 0-66.47-26.78-66.47-59.7s29.82-59.69 66.47-59.69 66.47 26.76 66.47 59.67-29.82 59.72-66.47 59.72zm0-112.09c-32.62 0-59.16 23.51-59.16 52.39s26.54 52.39 59.16 52.39 59.16-23.5 59.16-52.39-26.54-52.41-59.16-52.41z" id="path48" style="fill:#0c5983"/><ellipse cx="198.48" cy="117.363" rx="62.81" ry="57.1" id="ellipse50" style="fill:none;stroke:#1c73bb;stroke-width:7.38000011px;stroke-miterlimit:10"/><path class="cls-4" d="M198.43 177.043a72.47 72.47 0 0 1-8.84-.55l.64-5.13a66 66 0 0 0 13.92.27h.1l.45 5.15h-.1c-2.05.17-4.13.26-6.17.26zm21-3.14-1.52-4.94a62 62 0 0 0 12.74-5.53l2.58 4.48a68.34 68.34 0 0 1-13.8 5.99zm-44.46-.86a67.74 67.74 0 0 1-13.55-6.54l2.75-4.37a62.59 62.59 0 0 0 12.52 6zm70.36-14.08-3.53-3.77a56 56 0 0 0 8.84-10.61l4.35 2.78a61.51 61.51 0 0 1-9.66 11.6zm-95.65-1.9a59.93 59.93 0 0 1-9.14-12l4.48-2.58a55 55 0 0 0 8.35 11zm111.71-23.41-4.93-1.54a49.14 49.14 0 0 0 2.24-13.54l5.16.13a54.4 54.4 0 0 1-2.47 14.95zm-126.57-2.63a54.42 54.42 0 0 1-1.74-13.67v-1.35l5.16.13v1.22a49.28 49.28 0 0 0 .26 5.14 51.17 51.17 0 0 0 1.31 7.28zm122.35-26.09a50.88 50.88 0 0 0-5.21-12.72l4.47-2.58a56.26 56.26 0 0 1 5.74 14zm-116.66-2.38-4.93-1.54a57.06 57.06 0 0 1 6.42-13.66l4.35 2.79a52 52 0 0 0-5.84 12.41zm103-21.32a59 59 0 0 0-10.81-8.68l2.75-4.37a64.55 64.55 0 0 1 11.75 9.43zm-88.34-1.75-3.54-3.76a65.48 65.48 0 0 1 12.12-8.95l2.57 4.48a60.29 60.29 0 0 0-11.15 8.23zm65-13a65.54 65.54 0 0 0-13.49-3.13l.64-5.13a70.69 70.69 0 0 1 14.62 3.44zm-41.12-.79-1.52-4.93a70.7 70.7 0 0 1 14.73-2.86l.45 5.15a65.76 65.76 0 0 0-13.61 2.68z" id="path52" style="fill:#fff"/><path d="M100.52 133.483h21.34a64.09 64.09 0 0 1 .22-33.06h-21.39a81.5 81.5 0 0 0-.17 33.06z" id="path54" style="fill:url(#linearGradient1118)"/><path d="M277.17 117.353a64.28 64.28 0 0 1-2.06 16.12h21.34a81.5 81.5 0 0 0-.17-33.06h-21.4a64.29 64.29 0 0 1 2.29 16.94z" id="path56" style="fill:url(#linear-gradient-2)"/><path class="cls-4" d="M135.6 186.423a101 101 0 0 0 31.71 16.19l10.72-16.88a79.36 79.36 0 0 1-31.79-16.07z" id="path58" style="fill:#fff"/><path class="cls-4" d="M252.97 167.713a79 79 0 0 1-31.06 17.22l10.64 16.75a100.35 100.35 0 0 0 31.14-17.09z" id="path60" style="fill:#fff"/><path class="cls-4" d="m135.74 37.063.2 9 31.8-16.33.43-10.38a98.45 98.45 0 0 0-32.43 17.71z" id="path62" style="fill:#fff"/><path class="cls-7" d="M146.58 63.073a79.08 79.08 0 0 1 31.89-16.18l-10.73-17.19a100.7 100.7 0 0 0-31.8 16.33z" id="path64" style="fill:#dcdbdb"/><path class="cls-4" d="m231.81 20.353.32 10.27 5.11 13.89 26.11 3.36.36-8.71a98.52 98.52 0 0 0-31.9-18.81z" id="path66" style="fill:#fff"/><path class="cls-7" d="m232.17 30.643-10.65 17a78.76 78.76 0 0 1 31.16 17.36l10.71-17.16a99.74 99.74 0 0 0-31.22-17.2z" id="path68" style="fill:#dcdbdb"/><path class="cls-7" d="m100.17 208.023-1.34 11.85s-3.48-10.45-.38-21.28c.02 0 .17 7.06 1.72 9.43z" id="path70" style="fill:#dcdbdb"/><path class="cls-7" d="m293.88 213.063 1.52 10.48s8.12-8.51 3.09-25.15c0-.04.05 9.61-4.61 14.67z" id="path72" style="fill:#dcdbdb"/><path class="cls-4" d="M306.17 158.263a11.24 11.24 0 0 0 .75 2 8.85 8.85 0 0 0 1.76 2.4c.71.71 1.45 1.4 2.18 2.09a13.79 13.79 0 0 1 1.59 1.74 4.06 4.06 0 0 1 .85 2.73 3.21 3.21 0 0 1-2.73 3 3.49 3.49 0 0 1-2.66-.73 6.08 6.08 0 0 1-1.42-1.53.6.6 0 0 0-.11-.12v.63a8.78 8.78 0 0 0 .37 2 5.31 5.31 0 0 0 2.81 3.25 8.64 8.64 0 0 0 1.91.6l.77.17s.08 0 .08.06.07.29.11.45h-12.55c0-.16.07-.31.11-.46a.15.15 0 0 1 .09 0c.61-.16 1.23-.28 1.84-.46a5.3 5.3 0 0 0 3.78-4.08 11.66 11.66 0 0 0 .28-2v-.08l-.11.15a6.07 6.07 0 0 1-1.63 1.68 3.54 3.54 0 0 1-2.06.62 3.22 3.22 0 0 1-3.06-2.64 4 4 0 0 1 .89-3.25 16.34 16.34 0 0 1 2-2 30.58 30.58 0 0 0 2.21-2.2 8.94 8.94 0 0 0 2-3.77z" id="path74" style="fill:#fff"/><path class="cls-4" d="M61.34 165.163c-.16-.28-.35-.59-.5-.91a3.92 3.92 0 0 1-.41-2.13 3.75 3.75 0 0 1 1-2.25 3.92 3.92 0 0 1 2.4-1.24 4.09 4.09 0 0 1 4.33 2.17 3.68 3.68 0 0 1 .13 3.11 6.17 6.17 0 0 1-.63 1.19l-.08.12.36-.26a3 3 0 0 1 1.49-.47 3.88 3.88 0 0 1 1.44.13 3.59 3.59 0 0 1 2.27 2 4.29 4.29 0 0 1 .38 2.45 4 4 0 0 1-1.83 3 3.93 3.93 0 0 1-2.21.61 5 5 0 0 1-3.81-1.87 6.08 6.08 0 0 1-1-1.5v.04a12.88 12.88 0 0 0 .25 2.14 5.51 5.51 0 0 0 2.47 3.63 5.24 5.24 0 0 0 1.58.66c.53.14 1.06.26 1.6.38.06 0 .1 0 .11.11.01.11.06.27.1.41H58.17c0-.16.07-.31.11-.46a.24.24 0 0 1 .1-.06c.64-.16 1.28-.28 1.9-.48a5.29 5.29 0 0 0 3.72-4.09 11.24 11.24 0 0 0 .27-2.24.41.41 0 0 0 0-.11.31.31 0 0 0 0 .1 6 6 0 0 1-2.27 2.6 4.64 4.64 0 0 1-2.9.7 3.9 3.9 0 0 1-3.52-3 4.3 4.3 0 0 1 .54-3.49 3.46 3.46 0 0 1 2.47-1.62 3.66 3.66 0 0 1 2.14.26c.21.1.44.26.61.37z" id="path76" style="fill:#fff"/><path class="cls-4" d="M90.71 158.423a62.84 62.84 0 0 0 6.75 9.22 67.73 67.73 0 0 0-6.75 9.2 67.58 67.58 0 0 0-6.76-9.2 63.64 63.64 0 0 0 6.76-9.22z" id="path78" style="fill:#fff"/><path class="cls-13" d="M162.53 136.923v-48.25l7.58-5v45.86h25v7.39z" id="path80" style="fill:#ffd600;stroke:#ffd600;stroke-width:1.84000003px;stroke-miterlimit:10"/><path class="cls-13" d="m239.67 105.953-15.82 50.62-7.24 4-20-54.63h8.09l14.22 38.28 12.76-38.28z" id="path82" style="fill:#ffd600;stroke:#ffd600;stroke-width:1.84000003px;stroke-miterlimit:10"/><path class="cls-14" id="polygon84" style="fill:#dd3736;stroke:#dd3736;stroke-width:2.75px;stroke-linecap:round;stroke-linejoin:round" transform="translate(-57.83 -371.647)" d="m197.46 406.66-2.36 41.54-2.35-41.54 2.35-33.64z"/><path class="cls-14" id="polygon86" style="fill:#dd3736;stroke:#dd3736;stroke-width:2.75px;stroke-linecap:round;stroke-linejoin:round" transform="translate(-57.83 -371.647)" d="m193.15 406.6 41.54 2.35-41.54 2.35-33.64-2.35z"/><path class="cls-14" id="polygon88" style="fill:#dd3736;stroke:#dd3736;stroke-width:2.75px;stroke-linecap:round;stroke-linejoin:round" transform="translate(-57.83 -371.647)" d="m195 406.64 20.76 23.26-23.25-20.76-16.58-19.08z"/><path class="cls-14" id="polygon90" style="fill:#dd3736;stroke:#dd3736;stroke-width:2.75px;stroke-linecap:round;stroke-linejoin:round" transform="translate(-57.83 -371.647)" d="m192.68 408.89 23.26-20.77-20.76 23.26-19.08 16.58z"/></svg>