<svg xmlns="http://www.w3.org/2000/svg" id="Layer_1" width="569.55" height="439.81" version="1.1"><defs id="defs4"><style id="style2">.cls-1{fill:#fff}.cls-3{fill:#c19c74}.cls-4{fill:#e23737}</style></defs><g id="g194" transform="translate(-15.23 -80.09)"><path id="path8" fill="#fff" d="m552.86 397.94 31.91-42.18h-71.65a219.6 219.6 0 0 0 7.15-55.76c0-29.65-5.83-58.46-17.32-85.63a219.04 219.04 0 0 0-47.09-69.87 219.15 219.15 0 0 0-69.87-47.09 218.66 218.66 0 0 0-85.63-17.32c-29.65 0-58.46 5.83-85.63 17.32a219.04 219.04 0 0 0-69.87 47.09 219.04 219.04 0 0 0-47.09 69.87A218.73 218.73 0 0 0 80.45 300c0 18.95 2.4 37.64 7.15 55.76H15.23l31.91 42.18-31.91 42.18h97.82l-11.49 46.89h83.04a219.53 219.53 0 0 0 30.13 15.57 218.73 218.73 0 0 0 85.63 17.32 218.7 218.7 0 0 0 85.63-17.32 221.77 221.77 0 0 0 30.13-15.57h81.45l-11.49-46.89h98.7l-31.91-42.18z" class="cls-1"/><g id="g192"><path id="polygon10" d="m61.56 397.94-23.22-30.69h180.84v61.38H38.34z"/><path id="polygon12" d="m538.44 397.94 23.22-30.69H380.82v61.38h180.84z"/><path id="path14" d="M490.58 219.6a205.6 205.6 0 0 0-44.22-65.61 205.76 205.76 0 0 0-65.61-44.22 205.27 205.27 0 0 0-80.4-16.26c-27.84 0-54.89 5.47-80.4 16.26a205.6 205.6 0 0 0-65.61 44.22 205.76 205.76 0 0 0-44.22 65.61A205.27 205.27 0 0 0 93.86 300c0 27.84 5.47 54.89 16.26 80.4a205.6 205.6 0 0 0 44.22 65.61 205.76 205.76 0 0 0 65.61 44.22 205.27 205.27 0 0 0 80.4 16.26c27.84 0 54.89-5.47 80.4-16.26a205.6 205.6 0 0 0 65.61-44.22 205.76 205.76 0 0 0 44.22-65.61 205.27 205.27 0 0 0 16.26-80.4c0-27.84-5.47-54.89-16.26-80.4z"/><g id="g20"><path id="path16" d="M490.58 219.6a205.6 205.6 0 0 0-44.22-65.61 205.76 205.76 0 0 0-65.61-44.22 205.27 205.27 0 0 0-80.4-16.26c-27.84 0-54.89 5.47-80.4 16.26a205.6 205.6 0 0 0-65.61 44.22 205.76 205.76 0 0 0-44.22 65.61A205.27 205.27 0 0 0 93.86 300c0 27.84 5.47 54.89 16.26 80.4a205.6 205.6 0 0 0 44.22 65.61 205.76 205.76 0 0 0 65.61 44.22 205.27 205.27 0 0 0 80.4 16.26c27.84 0 54.89-5.47 80.4-16.26a205.6 205.6 0 0 0 65.61-44.22 205.76 205.76 0 0 0 44.22-65.61 205.27 205.27 0 0 0 16.26-80.4c0-27.84-5.47-54.89-16.26-80.4z"/><path id="path18" d="M300.36 508.42c-28.1 0-55.4-5.52-81.15-16.41a207.58 207.58 0 0 1-66.22-44.63 207.64 207.64 0 0 1-44.63-66.22 207.2 207.2 0 0 1-16.41-81.15c0-28.1 5.52-55.4 16.41-81.15a207.58 207.58 0 0 1 44.63-66.22 207.8 207.8 0 0 1 66.22-44.63 207.2 207.2 0 0 1 81.15-16.41c28.1 0 55.4 5.52 81.15 16.41a207.58 207.58 0 0 1 66.22 44.63 207.69 207.69 0 0 1 44.63 66.22 207.2 207.2 0 0 1 16.41 81.15c0 28.1-5.52 55.41-16.41 81.15a207.58 207.58 0 0 1-44.63 66.22 207.8 207.8 0 0 1-66.22 44.63 207.2 207.2 0 0 1-81.15 16.41zm0-412.97c-27.58 0-54.38 5.42-79.65 16.11a203.76 203.76 0 0 0-64.99 43.8 203.71 203.71 0 0 0-43.8 64.99 203.29 203.29 0 0 0-16.11 79.64c0 27.58 5.42 54.38 16.11 79.64a203.75 203.75 0 0 0 43.8 65 203.71 203.71 0 0 0 64.99 43.8 203.32 203.32 0 0 0 79.64 16.11c27.57 0 54.38-5.42 79.64-16.11a203.76 203.76 0 0 0 64.99-43.8 203.71 203.71 0 0 0 43.8-64.99A203.29 203.29 0 0 0 504.89 300c0-27.58-5.42-54.38-16.11-79.64a203.92 203.92 0 0 0-43.8-65 203.71 203.71 0 0 0-64.99-43.8 203.32 203.32 0 0 0-79.64-16.11z"/></g><path id="path22" fill="#fff" d="M478.11 224.88a192.22 192.22 0 0 0-41.32-61.31 192.11 192.11 0 0 0-61.31-41.32 191.8 191.8 0 0 0-75.12-15.19 191.8 191.8 0 0 0-75.12 15.19 192.22 192.22 0 0 0-61.31 41.32 192.11 192.11 0 0 0-41.32 61.31A191.8 191.8 0 0 0 107.42 300c0 26.02 5.11 51.29 15.19 75.12a192.22 192.22 0 0 0 41.32 61.31 192.11 192.11 0 0 0 61.31 41.32 191.8 191.8 0 0 0 75.12 15.19 191.8 191.8 0 0 0 75.12-15.19 192.22 192.22 0 0 0 61.31-41.32 192.11 192.11 0 0 0 41.32-61.31A191.8 191.8 0 0 0 493.3 300a191.8 191.8 0 0 0-15.19-75.12z" class="cls-1"/><circle id="circle24" cx="300.36" cy="300" r="124.45"/><g id="g32"><path id="path26" fill="#fff" d="M199.71 260.55c-2.42-17.06 7.46-21.79 14.07-23.29 5.05-1.03 2.41 1.59 2.41 1.59-5.46 3.96-5.16 10.52-5.16 10.52.81 18.96 19.13 20.8 19.13 20.8l40.24 3.98h2.29l28.24 59.45 28.24-59.45h2.22l40.24-3.98s18.32-1.84 19.13-20.8c0 0 .3-6.56-5.16-10.52 0 0-2.64-2.63 2.41-1.6 6.62 1.5 16.5 6.23 14.07 23.29-1.39 5.5-5.82 27.82-29.75 33.54v.05l-17.23 2.24s15.81 5.88 20.78 21.77l6.43 43.59c3.64 19.47 12.47 28.92 12.47 28.92H349.9l.06-.09-5.2-68.85-29.9 49.51H287l-29.9-49.51-5.21 68.95h-44.88s9.82-10.5 13.02-32.2l6-40.72c5.11-15.58 20.65-21.36 20.65-21.36l-17.17-2.24v-.04c-23.98-5.69-28.42-28.05-29.81-33.56z" class="cls-1"/><path id="path28" fill="#e23737" d="M205.61 268.24c3.1-.25-2.07-6.45.57-6.94 2.64-.5 2.75 2.98 4.36 1.86 1.61-1.12 1.27-2.42 1.02-9.48a26.73 26.73 0 0 1-.53-4.31s-.3-6.56 5.16-10.52c0 0 2.64-2.63-2.41-1.6-6.62 1.5-16.5 6.23-14.07 23.29.19.75.44 1.82.78 3.12 0 0 2.02 4.81 5.12 4.57z" class="cls-4"/><path id="path30" fill="#e23737" d="M396.2 268.24c-3.1-.25 2.07-6.45-.57-6.94-2.64-.5-2.75 2.98-4.36 1.86-1.61-1.12-1.27-2.42-1.02-9.48.28-1.33.46-2.76.53-4.31 0 0 .3-6.56-5.16-10.52 0 0-2.64-2.63 2.41-1.6 6.62 1.5 16.5 6.23 14.07 23.29-.19.75-.44 1.82-.78 3.12 0 0-2.02 4.81-5.12 4.57z" class="cls-4"/></g><g id="g84"><path id="rect34" fill="#c19c74" d="M253.35 246.31h97.45v9.45h-97.45z" class="cls-3"/><path id="rect36" fill="#c19c74" d="M253.35 237.02h97.45v3.88h-97.45z" class="cls-3"/><g id="g82"><g id="g58"><g id="g42"><path id="rect38" fill="#c19c74" d="M276.97 209.15h3.72v14.64h-3.72z" class="cls-3"/><path id="rect40" fill="#c19c74" d="M273.07 212.83h11.52v3.72h-11.52z" class="cls-3"/></g><path id="path44" fill="#c19c74" d="M263.03 231.76h-1.06c-6.14 0-8.08-5.96-8.25-9.11v-12.96h3.71v12.8c.05.75.55 5.55 4.54 5.55h.89l.74-.06c1.02 0 1.85-.83 1.85-1.85v-2.34h3.72v2.34a5.57 5.57 0 0 1-5.47 5.56l-.67.06z" class="cls-3"/><path id="path46" fill="#c19c74" d="M286.44 231.76h-1.06c-6.14 0-8.08-5.96-8.25-9.11v-12.96h3.71v12.8c.05.75.55 5.55 4.54 5.55h.89l.74-.06c1.02 0 1.85-.83 1.85-1.85v-2.34h3.72v2.34a5.57 5.57 0 0 1-5.47 5.56l-.67.06z" class="cls-3"/><path id="path48" fill="#c19c74" d="m271.62 231.76-.7-.06a5.58 5.58 0 0 1-5.47-5.56v-2.34h3.72v2.34c0 1.02.83 1.85 1.85 1.85h.17l.57.06 3.33-.06c1.05 0 1.88-.83 1.88-1.85v-2.34h3.72v2.34c0 3.07-2.5 5.56-5.56 5.56l-3.5.06z" class="cls-3"/><g id="g54"><path id="rect50" fill="#c19c74" d="M300.38 209.15h3.72v14.64h-3.72z" class="cls-3"/><path id="rect52" fill="#c19c74" d="M296.48 212.83H308v3.72h-11.52z" class="cls-3"/></g><path id="path56" fill="#c19c74" d="m295.03 231.76-.7-.06a5.58 5.58 0 0 1-5.47-5.56v-2.34h3.72v2.34c0 1.02.83 1.85 1.85 1.85h.17l.57.06 3.33-.06c1.05 0 1.88-.83 1.88-1.85v-2.34h3.72v2.34c0 3.07-2.5 5.56-5.56 5.56l-3.5.06z" class="cls-3"/></g><g id="g80"><g id="g64"><path id="rect60" fill="#c19c74" d="M323.75 209.15h3.72v14.64h-3.72z" class="cls-3"/><path id="rect62" fill="#c19c74" d="M319.85 212.83h11.52v3.72h-11.52z" class="cls-3"/></g><path id="path66" fill="#c19c74" d="M342.46 231.76h-1.15l-.58-.06a5.58 5.58 0 0 1-5.47-5.56v-2.34h3.72v2.34c0 1.02.83 1.85 1.85 1.85h.17l.57.06h.89c3.99 0 4.49-4.8 4.54-5.55v-12.8h3.72v12.86c-.17 3.25-2.12 9.21-8.26 9.21z" class="cls-3"/><path id="path68" fill="#c19c74" d="M319.06 231.76h-1.15l-.58-.06a5.58 5.58 0 0 1-5.47-5.56v-2.34h3.72v2.34c0 1.02.83 1.85 1.85 1.85h.17l.57.06h.89c3.99 0 4.49-4.8 4.54-5.55v-12.8h3.72v12.86c-.17 3.25-2.12 9.21-8.26 9.21z" class="cls-3"/><path id="path70" fill="#c19c74" d="m332.82 231.76-3.53-.06a5.56 5.56 0 0 1-5.53-5.56v-2.34h3.72v2.34c0 1.02.83 1.85 1.85 1.85l3.36.06.74-.06c1.02 0 1.85-.83 1.85-1.85v-2.34H339v2.34a5.57 5.57 0 0 1-5.47 5.56l-.69.06z" class="cls-3"/><g id="g76"><path id="rect72" fill="#c19c74" d="M300.35 209.15h3.72v14.64h-3.72z" class="cls-3"/><path id="rect74" fill="#c19c74" d="M296.45 212.83h11.52v3.72h-11.52z" class="cls-3"/></g><path id="path78" fill="#c19c74" d="m309.41 231.76-3.53-.06a5.56 5.56 0 0 1-5.53-5.56v-2.34h3.72v2.34c0 1.02.83 1.85 1.85 1.85l3.36.06.74-.06c1.02 0 1.85-.83 1.85-1.85v-2.34h3.72v2.34a5.57 5.57 0 0 1-5.47 5.56l-.69.06z" class="cls-3"/></g></g></g><path id="polygon86" d="M251.89 390.66h-49.21l-3.95 7.76h53.16z"/><path id="polygon88" d="M348.81 390.66h49.21l3.95 7.76h-53.16z"/><g id="g138"><g id="g94"><path id="path90" d="m169.7 242.6-28.96-10.47 16.25 17.25-1.48 4.09-20.75 4.46 26 9.4 1.36-3.76.47.17-2.89 7.99-.47-.17 1.36-3.76-29.62-10.71-1.36 3.76-.47-.17 3.76-10.39 20.11-4.32-13.4-14.25 4.05-11.19.47.17-1.36 3.76 29.62 10.71 1.36-3.76.47.17-5.41 14.95-.47-.17z"/><path id="path92" d="M159.7 273.3a1.7 1.7 0 0 1-.54-.09l-.47-.17a1.58 1.58 0 0 1-.95-2.02l.82-2.28-26.65-9.64-.82 2.28a1.59 1.59 0 0 1-2.03.95l-.47-.17a1.58 1.58 0 0 1-.95-2.02l3.76-10.39c.18-.51.62-.89 1.15-1.01l17.38-3.73-11.48-12.21a1.56 1.56 0 0 1-.33-1.62l4.05-11.19a1.58 1.58 0 0 1 2.02-.95l.47.17a1.58 1.58 0 0 1 .94 2.02l-.82 2.28 26.65 9.64.82-2.28c.3-.82 1.2-1.24 2.02-.95l.47.17c.82.3 1.24 1.2.95 2.02l-5.41 14.95a1.58 1.58 0 0 1-2.02.95l-.47-.17a1.58 1.58 0 0 1-.94-2.02l.82-2.28-21.25-7.68 11.71 12.43c.41.43.54 1.06.33 1.62l-1.48 4.09c-.18.51-.62.89-1.15 1.01l-15.37 3.3 19.33 6.99.82-2.28c.3-.82 1.2-1.24 2.02-.95l.47.17c.82.3 1.24 1.2.95 2.02l-2.89 7.99a1.58 1.58 0 0 1-1.48 1.04zm-27.17-17.34 1.52.55c.12-.06.25-.11.39-.14l19.89-4.27.85-2.35-2.06-2.19-19.03 4.08zm9.11-25.2 27.59 9.97 1.61-4.46-27.59-9.97z"/></g><g id="g100"><path id="path96" d="m198.52 200.44-9.33-4.07-7.95 8.78 4.9 8.96 2.92-3.22.37.34-5.54 6.11-.37-.34 2.25-2.48-16.22-29.74 3.32-3.67 31.16 13.26 2.01-2.22.37.34-10.24 11.3-.37-.34 2.72-3zm-9.83-4.26-16.16-6.95 8.44 15.47z"/><path id="path98" d="M183.89 218.92a1.6 1.6 0 0 1-1.06-.41l-.37-.34a1.58 1.58 0 0 1-.11-2.23l1.5-1.65-15.68-28.76a1.59 1.59 0 0 1 .22-1.82l3.32-3.67c.45-.5 1.17-.66 1.79-.39l30.12 12.82 1.26-1.39c.28-.31.68-.5 1.09-.52.42-.01.83.13 1.14.41l.37.34c.65.59.69 1.58.11 2.23l-10.24 11.3c-.58.65-1.58.7-2.23.11l-.37-.34a1.57 1.57 0 0 1-.11-2.23l1.24-1.37-6.28-2.74-6.44 7.11 3.3 6.03 1.43-1.58a1.57 1.57 0 0 1 2.23-.11l.37.34a1.57 1.57 0 0 1 .11 2.23l-5.54 6.11c-.28.31-.67.5-1.09.52h-.08zm-7.79-26.43 5.19 9.51 4.74-5.24zm13.38 2.33c.12.02.23.06.34.1l8.77 3.83 3.26-3.59L173.28 183l-1.82 2 1.47 2.7.21.07 16.16 6.95c.06.03.12.05.17.09z"/></g><g id="g106"><path id="path102" d="m226.31 178.35-15.66-27.32-8.5 4.87 3.58 6.24-.43.25-3.83-6.68 24.72-14.17 3.83 6.68-.43.25-3.58-6.24-8.5 4.87 15.66 27.32 3.47-1.99.25.43-13.79 7.9-.25-.43 3.47-1.99z"/><path id="path104" d="M223.09 182.35c-.55 0-1.08-.28-1.37-.79l-.25-.43a1.57 1.57 0 0 1 .58-2.16l2.1-1.2-14.09-24.58-5.76 3.3 2.79 4.87c.43.76.17 1.72-.58 2.15l-.43.25a1.58 1.58 0 0 1-2.16-.59l-3.83-6.68a1.59 1.59 0 0 1 .59-2.16l24.72-14.17a1.6 1.6 0 0 1 2.16.58l3.83 6.68a1.59 1.59 0 0 1-.59 2.16l-.43.25c-.36.21-.79.27-1.2.15-.4-.11-.75-.38-.96-.74l-2.79-4.87-5.76 3.3 14.09 24.58 2.1-1.2c.36-.21.79-.26 1.2-.15.4.11.75.38.96.74l.25.43c.43.76.17 1.72-.58 2.15l-13.79 7.9a1.6 1.6 0 0 1-.78.21zm-10.53-31.17 14.59 25.44 4.11-2.36-14.59-25.44z"/></g><g id="g112"><path id="path108" d="m277.14 159.45-5.11-8.8-11.61 2.36-1.36 10.12 4.26-.87.1.49-8.08 1.65-.1-.49 3.28-.67 4.54-33.57 4.85-.99 17.25 29.13 2.94-.6.1.49-14.94 3.04-.1-.49 3.97-.81zm-5.4-9.25-8.9-15.17-2.36 17.47 11.27-2.29z"/><path id="path110" d="M255.35 165.97a1.58 1.58 0 0 1-1.55-1.26l-.1-.49a1.58 1.58 0 0 1 1.23-1.86l2.18-.44 4.39-32.46c.09-.67.59-1.2 1.25-1.34l4.85-.99c.66-.13 1.33.16 1.67.74l16.68 28.17 1.84-.37c.4-.08.84 0 1.19.23s.59.59.68 1l.1.49c.17.85-.38 1.69-1.23 1.86l-14.94 3.04a1.58 1.58 0 0 1-1.86-1.23l-.1-.49c-.08-.41 0-.84.23-1.19a1.6 1.6 0 0 1 1-.68l1.81-.37-3.44-5.92-9.4 1.91-.91 6.81 2.09-.43c.41-.08.84 0 1.19.23s.59.59.68 1l.1.49c.17.85-.38 1.69-1.23 1.86l-8.08 1.65c-.1.02-.21.03-.31.03zm17.84-16.41c.08.09.15.18.21.29l4.8 8.28 4.75-.97-15.82-26.71-2.65.54-.41 3.05.12.18 8.9 15.17.09.17zm-9.4-9.8-1.45 10.73 6.92-1.41z"/></g><g id="g118"><path id="path114" d="m314.57 126.22-3.95-.63.08-.49 17.47 2.8c9.68 1.55 16.16 6.89 14.26 18.74-1.9 11.85-9.73 14.9-19.4 13.35l-17.47-2.8.08-.49 3.95.63 4.98-31.1zm8.54 33.26c5.38.86 8.93-2.01 10.45-11.49l.87-5.43c1.52-9.48-.96-13.32-6.34-14.18l-5.73-.92-4.98 31.1z"/><path id="path116" d="M327.51 161.94a29.7 29.7 0 0 1-4.73-.4l-17.47-2.8a1.6 1.6 0 0 1-1.03-.63 1.55 1.55 0 0 1-.28-1.18l.08-.49c.14-.86.94-1.44 1.81-1.31l2.39.38 4.48-27.98-2.39-.38a1.6 1.6 0 0 1-1.03-.63 1.55 1.55 0 0 1-.28-1.18l.08-.49c.14-.86.95-1.44 1.81-1.31l17.47 2.8c5.56.89 9.73 2.92 12.42 6.04 3.07 3.56 4.13 8.44 3.15 14.51-1.59 9.92-7.25 15.06-16.48 15.06zm7.95-29.97c1.11 2.59 1.29 6.14.53 10.85l-.87 5.43c-.76 4.73-2.04 8.06-3.92 10.17 5.39-1.17 8.58-5.16 9.68-12.03.82-5.11 0-9.13-2.43-11.95a11.99 11.99 0 0 0-2.99-2.47zm-16.26 25.29 4.17.67c2.32.37 3.99-.08 5.29-1.41 1.54-1.58 2.67-4.53 3.35-8.77l.87-5.43c.68-4.24.53-7.39-.44-9.38-.82-1.67-2.27-2.62-4.59-2.99l-4.17-.67zm-7.88-.76 4.68.75 4.64-28.97-4.68-.75z"/></g><g id="g124"><path id="path120" d="M367.86 156.03c6.21-10.26 14.44-10.83 22.83-5.76 8.38 5.07 11.7 12.63 5.49 22.89-6.21 10.26-14.44 10.83-22.83 5.76-8.38-5.07-11.7-12.63-5.49-22.89zm19.58 15.06 2.85-4.7c4.97-8.21 4.81-12.87.15-15.69-4.66-2.82-8.86-.81-13.83 7.41l-2.85 4.7c-4.97 8.21-4.81 12.87-.15 15.69 4.66 2.82 8.86.81 13.83-7.41z"/><path id="path122" d="M383.04 183.61c-3.3 0-6.83-1.1-10.52-3.33-10-6.05-12.14-14.95-6.02-25.06 6.12-10.11 15-12.35 25-6.29 4.75 2.87 7.75 6.38 8.92 10.41 1.28 4.43.31 9.36-2.9 14.65-3.86 6.38-8.83 9.63-14.48 9.63zm-1.88-3.3c5.39.82 9.96-1.85 13.66-7.96 2.73-4.51 3.59-8.59 2.56-12.14-.37-1.28-.98-2.5-1.84-3.66 0 2.83-1.29 6.32-3.91 10.65l-2.85 4.7c-1.91 3.15-4.44 6.72-7.63 8.4zm5.45-29.24c-2.27 0-5 1.8-8.66 7.85l-2.85 4.7c-2.33 3.85-3.46 6.81-3.46 9.05 0 1.93.86 3.31 2.78 4.47 2.85 1.73 6.24 2.09 11.66-6.87l2.85-4.7c2.33-3.85 3.46-6.81 3.46-9.05 0-1.93-.86-3.31-2.78-4.47a5.81 5.81 0 0 0-3-.98zm-17.4 5.78c-3.7 6.11-3.93 11.39-.72 15.78.01-2.83 1.29-6.31 3.91-10.64l2.85-4.7c1.91-3.15 4.44-6.72 7.63-8.4-5.39-.81-9.96 1.85-13.66 7.96zm18.22 14.24h.01z"/></g><g id="g130"><path id="path126" d="M419.78 211.45c4.31-5.44 5.23-7.11 3.42-9.44l-1.53-1.97-11.68 9.08 2.45 3.16-.39.31-9.76-12.55.39-.31 2.45 3.16 24.86-19.33-2.45-3.16.39-.31 11.23 14.44c6.01 7.73 6.53 12.71 1.84 16.36-4.62 3.59-9.25 1.94-15.13-5.45 2.75 3.94 3.05 6.37-.51 11.23-4.04 5.55-4.27 6.8-3.47 7.83.58.75 2.14 1.37 5.02-.87l.31.39c-3.27 2.55-5.22 2.16-7.83-1.19-2.42-3.12-3.92-5.94.39-11.38zm6.21-6.67c2.52 3.24 4.76 3.27 8.31.51l2.92-2.27c3.55-2.76 4.07-4.94 1.56-8.18l-3.93-5.05-12.78 9.94 3.93 5.05z"/><path id="path128" d="M423.53 227.28c-1.86 0-3.58-1.15-5.39-3.47-2.55-3.28-4.62-7 .4-13.33 4.46-5.63 4.38-6.24 3.41-7.49l-.56-.73-9.19 7.14 1.49 1.91c.53.69.41 1.68-.28 2.22l-.39.31a1.57 1.57 0 0 1-2.21-.28l-9.76-12.55a1.59 1.59 0 0 1 .28-2.22l.39-.31a1.57 1.57 0 0 1 2.21.28l1.49 1.91 22.36-17.39-1.49-1.91a1.59 1.59 0 0 1 .28-2.22l.39-.31a1.57 1.57 0 0 1 2.21.28l11.23 14.44c3.21 4.13 4.93 7.57 5.26 10.51.35 3.17-.89 5.89-3.7 8.07-4.66 3.62-8.93 2.21-12.47-.62-.22 1.85-1.18 3.77-2.88 6.08-3.16 4.33-3.57 5.55-3.53 5.9.16.2 1.11.24 2.84-1.11a1.57 1.57 0 0 1 2.21.28l.31.39a1.58 1.58 0 0 1-.28 2.22c-1.71 1.33-3.22 2-4.65 2zm1.4-20.4c-.8 1.62-2.21 3.4-3.92 5.56-3.57 4.5-2.64 6.48-.62 9.12.62-1.44 1.84-3.27 3.69-5.81 2.97-4.06 2.92-5.75.85-8.87zm-5.16 4.57h.01zm11.33-2.71c4.13 3.53 6.74 2.62 8.93.91 1.96-1.52 2.73-3.14 2.5-5.23-.12-1.09-.51-2.3-1.18-3.65-.57 1.15-1.59 2.27-3.17 3.5l-2.92 2.27c-1.57 1.22-2.91 1.94-4.16 2.21zm-24.14-5.27 2.91 3.74 10.83-8.42.21-.14.19-.17 11.93-9.28-2.91-3.74-23.15 18.01zm17.32-3.46 2.96 3.8c1.28 1.64 2.09 1.87 2.6 1.89.88.04 1.99-.5 3.49-1.67l2.92-2.27c1.5-1.16 2.31-2.14 2.47-2.97.1-.49.08-1.34-1.2-2.99l-2.96-3.8-10.29 8z"/></g><g id="g136"><path id="path132" d="m437.35 243.76.15.48c-3.18 2.05-3.82 6.82-1.93 12.77 1.9 6 6.39 6.78 9.63 5.76 3.34-1.06 4.56-3.8 3.07-8.52l-1.3-4.1c-1.93-6.1.46-10.63 5.51-12.23 6.77-2.14 12.43 2.51 14.41 8.76 1.63 5.15.85 10.32-2.44 12.83l-.15-.48c2.88-2.33 3.7-7.2 2.11-12.2-1.82-5.77-5.38-6.9-8.38-5.95-3.34 1.06-4.2 3.79-2.6 8.84l1.28 4.05c1.9 6-.9 10.56-6.34 12.28-6.86 2.17-13.21-2.32-15.31-8.94-1.99-6.29-1.21-11.1 2.28-13.35z"/><path id="path134" d="M446.86 268.19c-5.88 0-11.22-4.06-13.29-10.6-2.21-7-1.15-12.52 2.92-15.15.41-.27.93-.33 1.39-.16.46.17.82.54.97 1.01l.15.48c.21.68-.05 1.42-.65 1.8-2.47 1.6-2.95 5.7-1.29 10.97 1.91 6.03 6.34 5.14 7.65 4.73 1.23-.39 2-1.02 2.35-1.94.42-1.09.31-2.64-.31-4.59l-1.3-4.1c-2.12-6.7.45-12.28 6.54-14.21 7.93-2.51 14.25 3.02 16.39 9.78 1.9 6.01.73 11.73-2.99 14.56-.41.31-.94.4-1.43.25a1.6 1.6 0 0 1-1.03-1.03l-.15-.48c-.2-.62 0-1.3.51-1.7 2.35-1.89 2.99-6.11 1.6-10.5-.71-2.26-1.77-3.85-3.05-4.61a4.07 4.07 0 0 0-3.35-.31c-1.52.48-1.93 1.25-2.11 1.87-.33 1.12-.15 2.8.54 4.99l1.28 4.05c2.08 6.59-.81 12.19-7.37 14.26-1.34.42-2.68.63-4 .63zm-2.74-3.56c1.75.54 3.71.58 5.78-.08 4.88-1.54 6.86-5.39 5.31-10.3l-1.28-4.05c-.9-2.85-1.08-5.09-.56-6.85.58-1.94 1.99-3.28 4.19-3.98l.39-.11a8.77 8.77 0 0 0-4.98.16c-4.4 1.39-6.08 5.22-4.49 10.25l1.3 4.1c.84 2.65.92 4.9.25 6.67-.7 1.83-2.2 3.15-4.34 3.83-.51.16-1.03.28-1.55.35z"/></g></g><path id="polygon140" d="M131.69 412.34h335.74l15.48 63.19h-366.7z"/><path id="path142" fill="#e23737" d="M220.19 475.53a191.8 191.8 0 0 0 80.17 17.41 191.8 191.8 0 0 0 80.17-17.41z" class="cls-4"/><path id="path144" fill="#c19c74" d="M365.21 481.75H235.49a192.07 192.07 0 0 0 17.43 5.31h94.86a192.07 192.07 0 0 0 17.43-5.31z" class="cls-3"/><g id="g182"><g id="g150"><path id="path146" fill="#fff" d="M200.25 454.92v-22.97l-8.11 16.03h-4.13l-8.53-13.64v20.58h3.03v.76h-6.82v-.76h3.03V431.8h-3.03v-.76h9.17l8.26 13.23 6.71-13.23h9.82v.76h-3.03v23.12h3.03v.76h-12.43v-.76z" class="cls-1"/><path id="path148" fill="#fff" d="M209.64 456.41h-12.43a.74.74 0 0 1-.74-.74v-.76c0-.41.33-.74.74-.74h2.29v-19.14l-6.71 13.27a.74.74 0 0 1-.66.4H188a.75.75 0 0 1-.63-.35l-7.16-11.46v17.27h2.29c.41 0 .74.33.74.74v.76c0 .41-.33.74-.74.74h-6.82a.74.74 0 0 1-.74-.74v-.76c0-.41.33-.74.74-.74h2.29v-21.65h-2.29a.74.74 0 0 1-.74-.74v-.76c0-.41.33-.74.74-.74h9.17c.25 0 .49.13.63.35l7.57 12.12 6.12-12.06c.12-.25.38-.4.66-.4h9.82c.41 0 .74.33.74.74v.76c0 .41-.33.74-.74.74h-2.29v21.65h2.29c.41 0 .74.33.74.74v.76c0 .41-.33.74-.74.74zm-8.66-1.48h4.89v-23.16h-4.91l.02.17zm-12.57-7.69h3.27l1.16-2.29a.82.82 0 0 1-.35-.29l-8.05-12.88h-4.99v1.82c.27-.01.51.12.65.35l8.31 13.3z" class="cls-1"/></g><g id="g156"><path id="path152" fill="#fff" d="m244.29 454.92-2.24-6.75h-9.13l-2.31 6.75h3.15v.76h-6.67v-.76h2.69l8.3-23.88h4.55l8.26 23.88h2.43v.76h-11.94v-.76h2.92zm-2.5-7.5-4.28-12.43-4.32 12.43z" class="cls-1"/><path id="path154" fill="#fff" d="M253.31 456.41h-11.94a.74.74 0 0 1-.74-.74v-.76c0-.41.33-.74.74-.74h1.9l-1.75-5.27h-8.07l-1.81 5.27h2.11c.41 0 .74.33.74.74v.76c0 .41-.33.74-.74.74h-6.67a.74.74 0 0 1-.74-.74v-.76c0-.41.33-.74.74-.74h2.17l8.13-23.38c.1-.3.38-.5.7-.5h4.55c.31 0 .59.2.7.5l8.09 23.38h1.9c.41 0 .74.33.74.74v.76c0 .41-.33.74-.74.74zm-8.28-1.48h5.08l-8.01-23.16h-3.5l-.87 2.5c.22.07.4.24.47.46l4.28 12.43c.05.14.05.28.02.41.11.09.2.21.25.35l2.24 6.75c.03.08.04.17.04.25zm-10.81-8.26h6.53l-3.25-9.44z" class="cls-1"/></g><g id="g162"><path id="path158" fill="#fff" d="M273.77 431.8h-3.03v-.76h13.8c7.81 0 13.3 3.22 13.3 12.32s-5.5 12.32-13.3 12.32h-13.8v-.76h3.03zm10.76 23.12c4.13 0 6.44-2.58 6.44-9.48v-4.17c0-6.9-2.31-9.48-6.44-9.48h-4.4v23.12h4.4z" class="cls-1"/><path id="path160" fill="#fff" d="M284.54 456.41h-13.8a.74.74 0 0 1-.74-.74v-.76c0-.41.33-.74.74-.74h2.29v-21.65h-2.29a.74.74 0 0 1-.74-.74v-.76c0-.41.33-.74.74-.74h13.8c9.19 0 14.04 4.51 14.04 13.06s-4.86 13.06-14.04 13.06zm-10.03-1.48h4.89v-23.16h-4.89zm13.92-22.84c2.21 1.47 3.29 4.51 3.29 9.17v4.17c0 4.67-1.08 7.71-3.29 9.17 5.83-1.06 8.68-4.77 8.68-11.26s-2.85-10.2-8.68-11.26zm-7.55 22.08h3.66c2.66 0 5.71-.99 5.71-8.74v-4.17c0-7.74-3.05-8.74-5.71-8.74h-3.66z" class="cls-1"/></g><g id="g168"><path id="path164" fill="#fff" d="M332.14 450.52c-1.25-5.12-1.82-6.25-3.87-6.25h-1.9v10.65h3.03v.76h-12.43v-.76H320V431.8h-3.03v-.76h14.25c7.81 0 11.03 2.01 11.03 6.52s-3.15 6.63-10.69 6.71c3.64.19 5.42.95 6.67 5.34 1.44 5 2.16 5.27 3.07 5.27.64 0 1.74-.64 1.74-2.96h.76c0 3.15-1.36 4.13-5.04 4.13-2.99 0-5.38-.42-6.63-5.53zm-.91-7.01c3.11 0 4.17-1.14 4.17-4.55v-2.8c0-3.41-1.06-4.36-4.17-4.36h-4.85v11.71z" class="cls-1"/><path id="path166" fill="#fff" d="M338.77 456.79c-3.09 0-5.97-.47-7.35-6.1-1.26-5.17-1.72-5.69-3.15-5.69h-1.16v9.18h2.29c.41 0 .74.33.74.74v.76c0 .41-.33.74-.74.74h-12.43a.74.74 0 0 1-.74-.74v-.76c0-.41.33-.74.74-.74h2.29v-21.65h-2.29a.74.74 0 0 1-.74-.74v-.76c0-.41.33-.74.74-.74h14.25c5.48 0 11.77.82 11.77 7.26 0 4.66-3.28 6.43-6.94 7.09 1.27.84 2.19 2.28 2.89 4.77 1.36 4.73 1.94 4.73 2.36 4.73.39 0 1.01-.6 1.01-2.22 0-.41.33-.74.74-.74h.76c.41 0 .74.33.74.74 0 4.04-2.31 4.87-5.78 4.87zm-8.31-12.55c1.03.93 1.59 2.82 2.4 6.1 1.13 4.63 3.08 4.97 5.92 4.97.48 0 .9-.02 1.28-.05-.82-.58-1.53-2.04-2.52-5.45-1.18-4.13-2.73-4.64-6-4.81a.73.73 0 0 1-.7-.75h-.37zm-9.71 10.69h4.89v-10.67a.8.8 0 0 1 .1-.38.7.7 0 0 1-.1-.38v-11.73h-4.89zm13.98-22.99c.99.78 1.4 2.13 1.4 4.21v2.8c0 2.16-.44 3.57-1.47 4.39 5.97-.7 6.86-3.27 6.86-5.79s-.91-4.96-6.79-5.61zm-7.62 10.82h4.11c2.69 0 3.43-.82 3.43-3.81v-2.8c0-3.1-.86-3.62-3.43-3.62h-4.11v10.24z" class="cls-1"/></g><g id="g174"><path id="path170" fill="#fff" d="M364.66 454.92V431.8h-3.03v-.76h12.43v.76h-3.03v23.12h3.03v.76h-12.43v-.76z" class="cls-1"/><path id="path172" fill="#fff" d="M374.06 456.41h-12.43a.74.74 0 0 1-.74-.74v-.76c0-.41.33-.74.74-.74h2.29v-21.65h-2.29a.74.74 0 0 1-.74-.74v-.76c0-.41.33-.74.74-.74h12.43c.41 0 .74.33.74.74v.76c0 .41-.33.74-.74.74h-2.29v21.65h2.29c.41 0 .74.33.74.74v.76c0 .41-.33.74-.74.74zm-8.66-1.48h4.89v-23.16h-4.89z" class="cls-1"/></g><g id="g180"><path id="path176" fill="#fff" d="M395.66 431.8h-3.03v-.76h13.8c7.81 0 13.3 3.22 13.3 12.32s-5.5 12.32-13.3 12.32h-13.8v-.76h3.03zm10.76 23.12c4.13 0 6.44-2.58 6.44-9.48v-4.17c0-6.9-2.31-9.48-6.44-9.48h-4.4v23.12h4.4z" class="cls-1"/><path id="path178" fill="#fff" d="M406.43 456.41h-13.8a.74.74 0 0 1-.74-.74v-.76c0-.41.33-.74.74-.74h2.29v-21.65h-2.29a.74.74 0 0 1-.74-.74v-.76c0-.41.33-.74.74-.74h13.8c9.19 0 14.04 4.51 14.04 13.06s-4.86 13.06-14.04 13.06zm-10.03-1.48h4.89v-23.16h-4.89zm13.92-22.84c2.21 1.47 3.29 4.51 3.29 9.17v4.17c0 4.67-1.08 7.71-3.29 9.17 5.83-1.06 8.68-4.77 8.68-11.26s-2.85-10.2-8.68-11.26zm-7.55 22.08h3.66c2.66 0 5.71-.99 5.71-8.74v-4.17c0-7.74-3.05-8.74-5.71-8.74h-3.66z" class="cls-1"/></g></g><path id="rect184" d="M152.2 367.55h18.25v18.25H152.2z" transform="rotate(-45 161.33 376.67)"/><path id="rect186" d="M134.61 324.15h18.25v18.25h-18.25z" transform="rotate(-45 143.74 333.27)"/><path id="rect188" d="M447.86 324.15h18.25v18.25h-18.25z" transform="rotate(-135 456.98 333.27)"/><path id="rect190" d="M430.26 367.55h18.25v18.25h-18.25z" transform="rotate(-135 439.38 376.67)"/></g></g></svg>