<svg id="Layer_1" xmlns="http://www.w3.org/2000/svg" viewBox="0 0 600 600">
  <defs>
    <style>
      .cls-1{fill:#fff}.cls-3{fill:#c19c74}.cls-4{fill:#e23737}
    </style>
  </defs>
  <path class="cls-1" d="m552.9 398 31.9-42.2H513a219.6 219.6 0 0 0-57-211.3 219.2 219.2 0 0 0-155.5-64.4A218.7 218.7 0 0 0 145 144.5a219 219 0 0 0-57.3 211.3H15.2l32 42.1-32 42.2H113l-11.4 47h83a219.5 219.5 0 0 0 231.5 0h81.5L486 440h98.7l-32-42.2Z"/>
  <path d="M219.2 428.6H38.3l23.3-30.7-23.3-30.6h180.9v61.3zm161.6 0h180.9l-23.3-30.7 23.3-30.6H380.8v61.3z"/>
  <path d="M490.6 219.6a205.6 205.6 0 0 0-109.9-109.8A205.4 205.4 0 0 0 154.3 154 205.8 205.8 0 0 0 94 300a205.3 205.3 0 0 0 60.4 146 205.8 205.8 0 0 0 146 60.5 205.3 205.3 0 0 0 146-60.5 205.8 205.8 0 0 0 60.5-146c0-27.8-5.4-54.9-16.2-80.4Z"/>
  <path d="M490.6 219.6a205.6 205.6 0 0 0-109.9-109.8A205.4 205.4 0 0 0 154.3 154 205.8 205.8 0 0 0 94 300a205.3 205.3 0 0 0 60.4 146 205.8 205.8 0 0 0 146 60.5 205.3 205.3 0 0 0 146-60.5 205.8 205.8 0 0 0 60.5-146c0-27.8-5.4-54.9-16.2-80.4Z"/>
  <path d="M300.4 508.4a207.2 207.2 0 0 1-147.4-61A207.6 207.6 0 0 1 92 300a207.2 207.2 0 0 1 61-147.4A207.8 207.8 0 0 1 381.5 108a207.6 207.6 0 0 1 110.9 111c10.9 25.7 16.4 53 16.4 81.1a207.2 207.2 0 0 1-61 147.4 207.8 207.8 0 0 1-147.4 61Zm0-413a203.3 203.3 0 0 0-144.7 60A203.7 203.7 0 0 0 95.8 300a203.3 203.3 0 0 0 60 144.6 203.7 203.7 0 0 0 144.6 60 203.3 203.3 0 0 0 144.6-60A203.7 203.7 0 0 0 504.9 300 204 204 0 0 0 380 111.6a203.3 203.3 0 0 0-79.6-16.2Z"/>
  <path class="cls-1" d="M478.1 224.9a192.2 192.2 0 0 0-102.6-102.7 191.8 191.8 0 0 0-150.3 0A192.2 192.2 0 0 0 122.6 225a191.8 191.8 0 0 0 0 150.2 192.2 192.2 0 0 0 102.6 102.6 191.8 191.8 0 0 0 150.3 0A192.2 192.2 0 0 0 478 375.1a191.8 191.8 0 0 0 0-150.2Z"/>
  <circle cx="300.4" cy="300" r="124.5"/>
  <path class="cls-1" d="M199.7 260.6c-2.4-17.1 7.5-21.8 14-23.3 5.1-1 2.5 1.6 2.5 1.6-5.5 4-5.2 10.5-5.2 10.5.8 19 19.2 20.8 19.2 20.8l40.2 4h2.3l28.2 59.4 28.3-59.5h2.2l40.2-4s18.4-1.8 19.2-20.7c0 0 .3-6.6-5.2-10.6s-2.6-2.6 2.4-1.6c6.6 1.6 16.5 6.3 14 23.3-1.3 5.5-5.7 27.9-29.7 33.6s-17.2 2.3-17.2 2.3a37 37 0 0 0 20.8 21.7l6.4 43.6a61 61 0 0 0 12.5 29h-44.9v-.1l-5.1-68.9-30 49.5H287l-29.9-49.5-5.2 69H207s9.8-10.5 13-32.2l6-40.8a37.2 37.2 0 0 1 20.7-21.3l-17.2-2.3c-24-5.7-28.4-28-29.8-33.6Z"/>
  <path class="cls-4" d="M205.6 268.2c3.1-.2-2-6.4.6-6.9s2.7 3 4.3 1.9 1.3-2.5 1-9.5l-.5-4.3s-.3-6.6 5.2-10.5 2.6-2.7-2.4-1.6c-6.6 1.5-16.5 6.2-14 23.2l.7 3.2s2 4.8 5.1 4.5Zm190.6 0c-3.1-.2 2-6.4-.6-6.9s-2.7 3-4.3 1.9c-1.6-1.2-1.3-2.5-1-9.5l.5-4.3s.3-6.6-5.2-10.5-2.6-2.7 2.4-1.6c6.6 1.5 16.5 6.2 14.1 23.2l-.8 3.2s-2 4.8-5.1 4.5Z"/>
  <path class="cls-3" d="M253.3 246.3h97.5v9.4h-97.5zm0-9.3h97.5v3.9h-97.5zm23.7-27.8h3.7v14.6H277z"/>
  <path class="cls-3" d="M273.1 212.8h11.5v3.7h-11.5zm-10.1 19h-1c-6.2 0-8.1-6-8.3-9.2v-13h3.7v12.9c0 .7.6 5.5 4.6 5.5h1.6c1 0 1.8-.9 1.8-1.9v-2.3h3.8v2.3c0 3-2.5 5.5-5.5 5.6h-.7Z"/>
  <path class="cls-3" d="M286.4 231.8h-1c-6.2 0-8.1-6-8.3-9.2v-13h3.7v12.9c0 .7.6 5.5 4.6 5.5h1.6a2 2 0 0 0 1.9-1.9v-2.3h3.7v2.3c0 3-2.5 5.5-5.5 5.6h-.7Z"/>
  <path class="cls-3" d="m271.6 231.8-.7-.1c-3 0-5.4-2.5-5.4-5.6v-2.3h3.7v2.3c0 1 .8 1.9 1.8 1.9h4.1c1 0 1.9-.8 1.9-1.9v-2.3h3.7v2.3c0 3.1-2.5 5.6-5.6 5.6h-3.5Zm28.8-22.6h3.7v14.6h-3.7z"/>
  <path class="cls-3" d="M296.5 212.8H308v3.7h-11.5zm-1.5 19-.7-.1c-3 0-5.4-2.5-5.4-5.6v-2.3h3.7v2.3c0 1 .8 1.9 1.8 1.9h4.1c1 0 1.9-.8 1.9-1.9v-2.3h3.7v2.3c0 3.1-2.5 5.6-5.6 5.6H295Zm28.8-22.6h3.7v14.6h-3.7z"/>
  <path class="cls-3" d="M319.9 212.8h11.5v3.7h-11.5zm22.6 19h-1.2l-.6-.1c-3 0-5.4-2.5-5.4-5.6v-2.3h3.7v2.3c0 1 .8 1.9 1.8 1.9h1.7c4 0 4.5-4.8 4.5-5.5v-12.8h3.7v12.9c-.1 3.2-2.1 9.2-8.2 9.2Z"/>
  <path class="cls-3" d="M319 231.8h-1l-.7-.1c-3 0-5.4-2.5-5.4-5.6v-2.3h3.7v2.3c0 1 .8 1.9 1.8 1.9h1.7c4 0 4.5-4.8 4.5-5.5v-12.8h3.7v12.9c-.1 3.2-2.1 9.2-8.2 9.2Z"/>
  <path class="cls-3" d="m332.8 231.8-3.5-.1c-3 0-5.5-2.5-5.5-5.6v-2.3h3.7v2.3c0 1 .8 1.9 1.8 1.9h4.1c1 0 1.9-.8 1.9-1.9v-2.3h3.7v2.3c0 3-2.4 5.5-5.5 5.6h-.7Zm-32.4-22.6h3.7v14.6h-3.7z"/>
  <path class="cls-3" d="M296.4 212.8h11.5v3.7h-11.5zm13 19-3.5-.1c-3 0-5.5-2.5-5.5-5.6v-2.3h3.7v2.3c0 1 .8 1.9 1.8 1.9h4.1c1 0 1.9-.8 1.9-1.9v-2.3h3.7v2.3c0 3-2.5 5.5-5.5 5.6h-.7Z"/>
  <path d="M198.7 398.4h53.2v-7.7h-49.2l-4 7.7zm203.3 0h-53.2v-7.7H398l4 7.7zM169.7 242.6l-29-10.5 16.3 17.3-1.5 4-20.7 4.5 26 9.4 1.3-3.7.5.1-2.9 8-.5-.1 1.4-3.8-29.6-10.7-1.4 3.8-.5-.2 3.8-10.4L153 246l-13.4-14.3 4-11.2.5.2-1.3 3.8 29.6 10.7 1.3-3.8.5.2-5.4 15-.5-.2 1.4-3.8Z"/>
  <path d="M159.7 273.3h-.5l-.5-.3a1.6 1.6 0 0 1-1-2l.9-2.3-26.7-9.6-.8 2.3c-.1.4-.4.7-.8.9-.4.2-.8.2-1.2 0l-.5-.1a1.6 1.6 0 0 1-1-2l3.8-10.4c.2-.6.6-1 1.1-1L150 245l-11.4-12.2c-.5-.4-.6-1-.4-1.6l4-11.2a1.6 1.6 0 0 1 2-1l.6.2a1.6 1.6 0 0 1 .9 2l-.8 2.3 26.6 9.7.9-2.3c.3-.8 1.2-1.3 2-1l.4.2c.9.3 1.3 1.2 1 2l-5.4 15a1.6 1.6 0 0 1-2 1l-.5-.3a1.6 1.6 0 0 1-1-2l.9-2.3-21.3-7.6 11.7 12.4c.4.4.6 1 .4 1.6L157 254c-.2.5-.6.9-1.2 1l-15.3 3.3 19.3 7 .8-2.3c.3-.8 1.2-1.2 2-1l.5.2c.8.3 1.2 1.2 1 2l-3 8a1.6 1.6 0 0 1-1.4 1ZM132.5 256l1.5.5.4-.1 20-4.3.8-2.4-2-2.1-19.1 4-1.6 4.4Zm9.1-25.2 27.6 10 1.6-4.5-27.6-10-1.6 4.5Zm56.9-30.4-9.3-4-8 8.7 5 9 2.9-3.2.3.3-5.5 6.1-.4-.3 2.3-2.5-16.3-29.7 3.4-3.7 31.1 13.3 2-2.2.4.3-10.2 11.3-.4-.3 2.7-3Zm-9.8-4.2-16.2-7 8.5 15.5 7.7-8.5Z"/>
  <path d="M183.9 219c-.4 0-.8-.2-1-.5l-.4-.3c-.7-.6-.7-1.6-.2-2.3l1.5-1.6-15.6-28.8c-.4-.6-.3-1.3.2-1.8l3.3-3.7c.5-.5 1.2-.6 1.8-.3l30.1 12.8 1.3-1.4c.3-.3.7-.5 1-.5.5 0 .9 0 1.2.4l.4.3c.6.6.7 1.6 0 2.2l-10.2 11.3c-.5.7-1.5.7-2.2.2l-.4-.4a1.6 1.6 0 0 1 0-2.2l1.2-1.4-6.3-2.7-6.4 7 3.3 6.1 1.4-1.6a1.6 1.6 0 0 1 2.2 0l.4.3a1.6 1.6 0 0 1 .1 2.2l-5.5 6.1c-.3.3-.7.5-1.1.5h-.1Zm-7.8-26.5 5.2 9.5 4.7-5.2-9.9-4.3Zm13.4 2.3.3.1 8.8 3.8 3.3-3.5-28.6-12.2-1.8 2 1.4 2.7h.2l16.2 7 .2.1Zm36.8-16.5L210.6 151l-8.4 4.9 3.5 6.2-.4.3-3.8-6.7 24.7-14.2 3.8 6.7-.4.3-3.6-6.3-8.5 4.9 15.7 27.3 3.4-2 .3.5-13.8 7.9-.3-.5 3.5-2Z"/>
  <path d="M223 182.3c-.5 0-1-.2-1.3-.7l-.2-.5a1.6 1.6 0 0 1 .6-2.1l2-1.2-14-24.6-5.8 3.3 2.8 4.9c.4.7.2 1.7-.6 2.1l-.4.3c-.4.2-.8.2-1.2.1-.4-.1-.8-.4-1-.7l-3.8-6.7c-.2-.4-.3-.8-.2-1.2s.4-.8.8-1l24.7-14.1c.8-.5 1.7-.2 2.2.5l3.8 6.7c.2.4.2.8.1 1.2s-.3.8-.7 1l-.4.2c-.4.2-.8.3-1.2.2-.4-.1-.8-.4-1-.8l-2.8-4.8-5.7 3.3 14 24.6 2.2-1.2c.3-.3.7-.3 1.1-.2.4.1.8.4 1 .7l.3.5c.4.7.1 1.7-.6 2.1l-13.8 8-.8.1Zm-10.4-31.1 14.6 25.4 4-2.3-14.5-25.5-4.1 2.4Zm64.5 8.2-5-8.8-11.7 2.4-1.3 10.1 4.2-.8.1.4-8 1.7-.2-.5 3.3-.7 4.6-33.5 4.8-1 17.3 29.1 2.9-.6.1.5-15 3v-.4l4-.9Zm-5.4-9.2-8.9-15.2-2.3 17.5 11.3-2.3Z"/>
  <path d="M255.3 166a1.6 1.6 0 0 1-1.5-1.3l-.1-.5c-.2-.8.4-1.7 1.2-1.8l2.2-.5 4.4-32.4c0-.7.6-1.2 1.2-1.4l4.9-1c.7-.1 1.3.2 1.7.8l16.6 28.1 1.9-.3c.4-.1.8 0 1.2.2.3.2.6.6.7 1v.5c.2.8-.3 1.7-1.2 1.8l-15 3c-.8.3-1.6-.3-1.8-1.1v-.5c-.2-.4 0-.9.2-1.2.2-.4.5-.6 1-.7l1.8-.4-3.5-5.9-9.4 2-.9 6.7 2.1-.4c.4 0 .8 0 1.2.2.3.3.6.6.7 1v.5c.2.9-.3 1.7-1.2 1.9l-8 1.6h-.3Zm17.9-16.4.2.3 4.8 8.2 4.8-1-15.9-26.6-2.6.5-.4 3v.2l9 15.2v.2Zm-9.4-9.8-1.5 10.7 7-1.4-5.5-9.3Zm50.8-13.6-4-.6.1-.5 17.5 2.8c9.6 1.6 16.1 6.9 14.2 18.7-1.9 11.9-9.7 15-19.4 13.4l-17.4-2.8v-.5l4 .6 5-31Zm8.5 33.3c5.4.8 9-2 10.5-11.5l.8-5.4c1.6-9.5-1-13.4-6.3-14.2l-5.7-1-5 31.2 5.7.9Z"/>
  <path d="M327.5 162c-1.5 0-3-.2-4.7-.5l-17.5-2.8c-.4 0-.8-.3-1-.6-.3-.3-.4-.8-.3-1.2v-.5c.2-.8 1-1.4 1.9-1.3l2.4.4 4.5-28-2.4-.4c-.4 0-.8-.2-1-.6-.3-.3-.4-.7-.3-1.2v-.5c.2-.8 1-1.4 1.9-1.3l17.4 2.8c5.6 1 9.8 3 12.4 6 3.1 3.6 4.2 8.5 3.2 14.6-1.6 10-7.3 15-16.5 15Zm8-30a20 20 0 0 1 .5 10.8l-.9 5.4a19 19 0 0 1-3.9 10.2c5.4-1.2 8.6-5.1 9.7-12 .8-5.1 0-9.1-2.5-12a12 12 0 0 0-3-2.4Zm-16.3 25.3 4.2.6c2.3.4 4 0 5.3-1.4 1.5-1.6 2.6-4.5 3.3-8.8l.9-5.4c.7-4.2.5-7.4-.5-9.4-.8-1.6-2.2-2.6-4.5-3l-4.2-.6-4.5 28Zm-7.9-.8 4.7.8 4.6-29-4.6-.8-4.7 29Zm56.6-.5c6.2-10.2 14.4-10.8 22.8-5.7 8.4 5 11.7 12.6 5.5 22.9-6.2 10.2-14.5 10.8-22.8 5.7-8.4-5-11.7-12.6-5.5-22.9Zm19.5 15 2.9-4.6c5-8.2 4.8-12.9.1-15.7s-8.8-.8-13.8 7.4l-2.8 4.7c-5 8.2-4.9 12.9-.2 15.7s8.9.8 13.8-7.4Z"/>
  <path d="M383 183.6c-3.3 0-6.8-1-10.5-3.3-10-6-12.1-15-6-25 6.1-10.2 15-12.4 25-6.4 4.8 2.9 7.8 6.4 9 10.4 1.2 4.5.2 9.4-3 14.7-3.8 6.4-8.8 9.6-14.5 9.6Zm-1.8-3.3c5.4.8 10-1.8 13.6-8 2.8-4.5 3.6-8.5 2.6-12-.4-1.4-1-2.6-1.9-3.8a22 22 0 0 1-3.9 10.7l-2.8 4.7c-2 3.1-4.5 6.7-7.6 8.4Zm5.4-29.2c-2.3 0-5 1.8-8.7 7.8l-2.8 4.7a19.2 19.2 0 0 0-3.5 9c0 2 .9 3.4 2.8 4.5 2.9 1.8 6.3 2.1 11.7-6.8l2.8-4.7c2.4-3.9 3.5-6.8 3.5-9 0-2-.9-3.4-2.8-4.6-1-.5-1.9-1-3-1Zm-17.4 5.7c-3.7 6.2-4 11.4-.7 15.8a22 22 0 0 1 3.9-10.6l2.9-4.7a22 22 0 0 1 7.6-8.4c-5.4-.8-10 1.8-13.7 8Zm18.2 14.3Zm32.4 40.3c4.3-5.4 5.2-7 3.4-9.4l-1.5-2-11.7 9.1 2.4 3.2-.3.3-9.8-12.6.4-.3 2.4 3.2 24.9-19.3-2.5-3.2.4-.3 11.3 14.4c6 7.8 6.5 12.7 1.8 16.4-4.6 3.6-9.3 2-15.1-5.5 2.7 4 3 6.4-.5 11.3-4 5.5-4.3 6.8-3.5 7.8.6.8 2.1 1.4 5-.9l.3.4c-3.3 2.6-5.2 2.2-7.8-1.2-2.4-3-4-6 .4-11.4Zm6.2-6.6c2.5 3.2 4.7 3.2 8.3.5l3-2.3c3.5-2.7 4-5 1.5-8.2l-4-5-12.7 10 3.9 5Z"/>
  <path d="M423.5 227.3c-1.8 0-3.6-1.2-5.4-3.5-2.5-3.3-4.6-7 .4-13.3 4.5-5.7 4.4-6.3 3.4-7.5l-.5-.7-9.2 7.1 1.5 2c.5.6.4 1.6-.3 2.1l-.4.3a1.6 1.6 0 0 1-2.2-.2L401 201c-.5-.7-.4-1.7.3-2.2l.4-.3a1.6 1.6 0 0 1 2.2.3l1.5 1.9 22.4-17.4-1.5-2c-.5-.6-.4-1.6.3-2.2l.4-.3a1.6 1.6 0 0 1 2.2.3l11.2 14.5c3.2 4 5 7.5 5.3 10.5.3 3.1-1 5.9-3.7 8-4.7 3.7-9 2.2-12.5-.6a13 13 0 0 1-2.9 6.1c-3.2 4.3-3.6 5.5-3.5 5.9.1.2 1 .2 2.8-1.1.7-.6 1.7-.4 2.2.3l.3.4a1.6 1.6 0 0 1-.2 2.2c-1.8 1.3-3.3 2-4.7 2Zm1.4-20.4c-.8 1.6-2.2 3.4-3.9 5.5-3.6 4.5-2.6 6.5-.6 9.2.6-1.5 1.8-3.3 3.7-5.8 3-4.1 2.9-5.8.8-9Zm-5.1 4.5Zm11.3-2.7c4.1 3.6 6.7 2.7 9 1 1.9-1.6 2.7-3.2 2.4-5.3a11 11 0 0 0-1.2-3.6c-.5 1.1-1.5 2.2-3.1 3.5l-3 2.2a8.7 8.7 0 0 1-4.1 2.2Zm-24.1-5.2 2.9 3.7 10.8-8.4.2-.2.2-.1 12-9.3-3-3.7-23.1 18Zm17.3-3.5 3 3.8c1.2 1.6 2 1.9 2.5 1.9 1 0 2-.5 3.5-1.7l3-2.2c1.4-1.2 2.3-2.2 2.4-3 .1-.5.1-1.4-1.2-3l-3-3.8-10.2 8Zm13.1 43.8.1.4c-3.2 2-3.8 6.9-2 12.8 2 6 6.5 6.8 9.7 5.8 3.3-1 4.6-3.8 3-8.6l-1.2-4c-2-6.2.4-10.7 5.5-12.3 6.7-2.1 12.4 2.5 14.4 8.8 1.6 5.1.8 10.3-2.4 12.8l-.2-.5c2.9-2.3 3.7-7.2 2.1-12.2-1.8-5.7-5.4-6.9-8.4-6-3.3 1.1-4.2 3.9-2.6 9l1.3 4c2 6-.9 10.5-6.3 12.2-6.9 2.2-13.2-2.3-15.3-8.9-2-6.3-1.3-11 2.2-13.3Z"/>
  <path d="M446.9 268.2c-6 0-11.3-4-13.3-10.6-2.2-7-1.2-12.5 2.9-15.2.4-.2 1-.3 1.4-.1.4.1.8.5 1 1l.1.5c.2.6 0 1.4-.7 1.8-2.4 1.6-2.9 5.7-1.2 11 1.9 6 6.3 5 7.6 4.7 1.2-.4 2-1 2.4-2 .4-1 .3-2.6-.4-4.6l-1.2-4c-2.2-6.8.4-12.3 6.5-14.3 8-2.5 14.2 3 16.4 9.8 1.9 6 .7 11.7-3 14.6-.4.3-1 .4-1.4.2-.5-.1-1-.5-1-1l-.2-.5c-.2-.6 0-1.3.5-1.7 2.3-1.9 3-6.1 1.6-10.5a8.2 8.2 0 0 0-3-4.6 4 4 0 0 0-3.4-.3c-1.5.5-2 1.2-2.1 1.9-.3 1-.2 2.8.5 5l1.3 4c2 6.6-.8 12.2-7.4 14.3-1.3.4-2.7.6-4 .6Zm-2.8-3.6c1.8.6 3.7.6 5.8 0 4.9-1.6 6.9-5.4 5.3-10.4l-1.3-4c-.9-2.9-1-5-.5-6.8.6-2 2-3.3 4.2-4l.3-.1a8.8 8.8 0 0 0-5 .1c-4.3 1.4-6 5.2-4.4 10.3l1.3 4c.8 2.7.9 5 .2 6.7a6.5 6.5 0 0 1-4.3 3.9l-1.6.3Zm38.8 210.9H116.2l15.5-63.2h335.7l15.5 63.2z"/>
  <path class="cls-4" d="m220.2 475.5 5 2.2a191.8 191.8 0 0 0 150.3 0l5-2.2H220.2Z"/>
  <path class="cls-3" d="M365.2 481.8H235.5a192 192 0 0 0 17.4 5.3h94.9a192 192 0 0 0 17.4-5.4Z"/>
  <path class="cls-1" d="M200.3 455v-23l-8.2 16h-4l-8.6-13.7V455h3v.8h-6.8v-.8h3v-23.1h-3v-.8h9.2l8.2 13.3 6.7-13.3h9.8v.8h-3V455h3v.8h-12.4v-.8h3Z"/>
  <path class="cls-1" d="M209.6 456.4h-12.4a.7.7 0 0 1-.7-.7v-.8c0-.4.3-.7.7-.7h2.3V435l-6.7 13.3c-.1.3-.4.4-.7.4H188a.8.8 0 0 1-.6-.3l-7.2-11.5v17.3h2.3c.4 0 .7.3.7.7v.8c0 .4-.3.7-.7.7h-6.8a.7.7 0 0 1-.8-.7v-.8c0-.4.4-.7.8-.7h2.3v-21.7h-2.3a.7.7 0 0 1-.8-.7v-.8c0-.4.4-.7.8-.7h9.1c.3 0 .5.1.7.3l7.5 12.1 6.2-12c0-.3.3-.4.6-.4h9.8c.5 0 .8.3.8.7v.8c0 .4-.3.7-.8.7h-2.2v21.7h2.2c.5 0 .8.3.8.7v.8c0 .4-.3.7-.8.7ZM201 455h4.9v-23.1h-5V455Zm-12.6-7.7h3.3l1.1-2.2a.8.8 0 0 1-.3-.3l-8-13h-5v1.9c.2 0 .5.1.6.3l8.3 13.4Zm55.9 7.7-2.3-6.8h-9l-2.4 6.7h3.2v.8H227v-.8h2.7L238 431h4.5l8.3 24h2.4v.7h-12v-.8h3Zm-2.5-7.6-4.3-12.4-4.3 12.4h8.6Z"/>
  <path class="cls-1" d="M253.3 456.4h-12a.7.7 0 0 1-.7-.7v-.8c0-.4.4-.7.8-.7h1.9l-1.8-5.3h-8l-1.9 5.3h2.2c.4 0 .7.3.7.7v.8c0 .4-.3.7-.7.7H227a.7.7 0 0 1-.8-.7v-.8c0-.4.4-.7.8-.7h2.2l8-23.4c.2-.3.5-.5.8-.5h4.5c.3 0 .6.2.7.5l8.1 23.4h2c.3 0 .7.3.7.7v.8c0 .4-.4.7-.8.7ZM245 455h5.1l-8-23.1h-3.5l-.9 2.5c.3 0 .4.2.5.4l4.3 12.5v.4l.3.3 2.2 6.8v.2Zm-10.8-8.2h6.6l-3.3-9.5-3.3 9.5Zm39.6-15h-3v-.8h13.7c7.9 0 13.3 3.3 13.3 12.4s-5.5 12.3-13.3 12.3h-13.8v-.8h3v-23.1Zm10.7 23.1c4.2 0 6.5-2.6 6.5-9.5v-4.1c0-7-2.3-9.5-6.5-9.5h-4.4v23.1h4.4Z"/>
  <path class="cls-1" d="M284.5 456.4h-13.8a.7.7 0 0 1-.7-.7v-.8c0-.4.3-.7.7-.7h2.3v-21.7h-2.3a.7.7 0 0 1-.7-.7v-.8c0-.4.3-.7.7-.7h13.8c9.2 0 14 4.5 14 13s-4.8 13.1-14 13.1Zm-10-1.5h4.9v-23.1h-4.9v23.1Zm14-22.8c2.1 1.5 3.2 4.5 3.2 9.2v4.1c0 4.7-1 7.7-3.3 9.2 5.9-1 8.7-4.8 8.7-11.3s-2.8-10.2-8.7-11.2Zm-7.6 22h3.6c2.7 0 5.8-1 5.8-8.7v-4.1c0-7.8-3.1-8.8-5.8-8.8H281v21.7Zm51.2-3.6c-1.2-5.1-1.8-6.2-3.8-6.2h-2v10.6h3.1v.8H317v-.8h3v-23.1h-3v-.8h14.2c7.8 0 11 2 11 6.6s-3.1 6.6-10.6 6.7c3.6.2 5.4 1 6.6 5.3 1.5 5 2.2 5.3 3.1 5.3.6 0 1.7-.7 1.7-3h.8c0 3.2-1.4 4.1-5 4.1-3 0-5.4-.4-6.7-5.5Zm-.9-7c3.1 0 4.2-1.1 4.2-4.5v-2.8c0-3.5-1-4.4-4.2-4.4h-4.8v11.7h4.8Z"/>
  <path class="cls-1" d="M338.8 456.8c-3.1 0-6-.5-7.4-6.1-1.2-5.2-1.7-5.7-3.1-5.7H327v9.2h2.3c.4 0 .7.3.7.7v.8c0 .4-.3.7-.7.7H317a.7.7 0 0 1-.8-.7v-.8c0-.4.4-.7.8-.7h2.3v-21.7H317a.7.7 0 0 1-.8-.7v-.8c0-.4.4-.7.8-.7h14.2c5.5 0 11.8.8 11.8 7.3 0 4.6-3.3 6.4-7 7 1.3.9 2.2 2.3 3 4.8 1.3 4.7 1.9 4.7 2.3 4.7.4 0 1-.6 1-2.2 0-.4.3-.7.7-.7h.8c.4 0 .7.3.7.7 0 4-2.3 4.9-5.7 4.9Zm-8.3-12.6c1 1 1.5 2.9 2.4 6.1 1 4.7 3 5 5.9 5h1.3c-.9-.6-1.6-2-2.6-5.5-1.1-4.1-2.7-4.6-6-4.8a.7.7 0 0 1-.7-.7s-.3 0-.3 0Zm-9.8 10.7h5v-23.1h-5v23.1Zm14-23c1 .8 1.4 2.2 1.4 4.3v2.7c0 2.2-.4 3.6-1.4 4.4 6-.7 6.8-3.2 6.8-5.8s-.9-5-6.8-5.6Zm-7.6 10.9h4.1c2.7 0 3.5-.9 3.5-3.9v-2.7c0-3.2-1-3.7-3.5-3.7h-4v10.3Zm37.6 12.2v-23.2h-3v-.8H374v.8h-3v23.1h3v.8h-12.5v-.8h3Z"/>
  <path class="cls-1" d="M374 456.4h-12.4a.7.7 0 0 1-.7-.7v-.8c0-.4.3-.7.7-.7h2.3v-21.7h-2.3a.7.7 0 0 1-.7-.7v-.8c0-.4.3-.7.7-.7h12.5c.4 0 .7.3.7.7v.8c0 .4-.3.7-.7.7h-2.3v21.7h2.3c.4 0 .7.3.7.7v.8c0 .4-.3.7-.7.7Zm-8.6-1.5h4.9v-23.1h-4.9v23.1Zm30.3-23.1h-3v-.8h13.7c7.8 0 13.3 3.3 13.3 12.4s-5.5 12.3-13.3 12.3h-13.8v-.8h3v-23.1Zm10.7 23.1c4.2 0 6.5-2.6 6.5-9.5v-4.1c0-7-2.3-9.5-6.5-9.5H402v23.1h4.4Z"/>
  <path class="cls-1" d="M406.4 456.4h-13.8a.7.7 0 0 1-.7-.7v-.8c0-.4.3-.7.7-.7h2.3v-21.7h-2.3a.7.7 0 0 1-.7-.7v-.8c0-.4.3-.7.7-.7h13.8c9.2 0 14 4.5 14 13s-4.8 13.1-14 13.1Zm-10-1.5h4.9v-23.1h-4.9v23.1Zm14-22.8c2.1 1.5 3.2 4.5 3.2 9.2v4.1c0 4.7-1 7.7-3.3 9.2 5.9-1 8.7-4.8 8.7-11.3s-2.8-10.2-8.7-11.2Zm-7.6 22h3.6c2.7 0 5.7-1 5.7-8.7v-4.1c0-7.8-3-8.8-5.7-8.8h-3.6v21.7Z"/>
  <path d="m148.5 376.7 12.9-13 13 13-13 13zm-17.7-43.5 13-12.9 12.9 13-13 12.9zm326.2 13-13-13 13-13 12.9 13zm-17.6 43.3-13-13 13-12.9 13 13z"/>
</svg>
