<svg xmlns="http://www.w3.org/2000/svg" id="Layer_1" data-name="Layer 1" version="1.1" width="427.683" height="351.04"><defs id="defs4"><style id="style2">.cls-10,.cls-5,.cls-6,.cls-8,.cls-9{fill:none}.cls-5,.cls-6{stroke:#fff}.cls-10,.cls-5,.cls-6,.cls-7,.cls-8,.cls-9{stroke-linecap:round;stroke-linejoin:round}.cls-5{stroke-width:2.65px}.cls-6{stroke-width:3.97px}.cls-7,.cls-8{stroke:#f65d32;stroke-width:4.41px}.cls-9{stroke:#f2d425;stroke-width:4.47px}.cls-10{stroke:#00aedc;stroke-width:4.44px}</style></defs><path d="M392.793 199.56a48.42 48.42 0 0 0-9.63-2.08 33.42 33.42 0 0 0 1.47-9.57 30.81 30.81 0 0 0-3.53-14.5 92.66 92.66 0 0 0 46.58-80.37A92.71 92.71 0 0 0 336.093.45c-3.3-.38-13.47-.45-13.58-.45h-127.44a26.93 26.93 0 0 0-26.9 26.9v112.86a43.47 43.47 0 0 0-7.4-9.45c-8.89-8.55-21.17-13.06-35.49-13.06-11.41 0-23.1 3.66-34.75 10.88q-2.67 1.67-5.39 3.61a39.23 39.23 0 0 0-29-10.52 28.33 28.33 0 0 0-21.66 11.33 30.11 30.11 0 0 0-4.75 25.58 28.54 28.54 0 0 0 6.44 11.62c-.9 4.07-3.12 10.77-6.61 20-3.85 10.1-9.89 22.62-12.92 28.57-3.42 5.51-6.12 9.87-8.23 13.78-12.61 22.42-7.37 42.26-7.14 43.09a3.09 3.09 0 0 0 .14.43l.83 2.18c1.13 3.41 5.37 12.09 20.54 21.83 15.17 9.74 36.06 14.89 62.54 15.56v13.39a22.51 22.51 0 0 0 22.44 22.46h221.36a22.52 22.52 0 0 0 22.5-22.49v-15.22c21.55-3.11 38-10.29 51.6-22.43 6.9-6.17 14.68-13.6 19.51-23.58 5.92-12.24 6.1-25.35.53-39a50.49 50.49 0 0 0-30.47-28.76z" id="path170" style="fill:#fff"/><rect x="90.133" y="292.83" width="256.64" height="53.36" rx="17.64" id="rect172"/><rect x="173.033" y="4.89" width="180.35" height="189.17" rx="22.05" id="rect174"/><circle cx="335.083" cy="93.08" r="87.75" id="circle176"/><path d="M418.763 230.17a44.17 44.17 0 0 0-42.48-28.13c2.38-5.31 3.49-9.82 3.49-14.1 0-15-11.86-26.25-27.59-26.25-8.75 0-17.25 4.32-23.33 11.86a36.68 36.68 0 0 0-5.09 8.43c-6-3.36-13.26-5.07-21.59-5.07-11.17 0-23 4.14-33.39 11.7a25 25 0 0 0-21.39-11.7 27.69 27.69 0 0 0-18.74 7 25.51 25.51 0 0 0-16.82-6.93 31.63 31.63 0 0 0 1.5-9.3c0-14.21-11.33-25.35-25.8-25.35-6.93 0-13.67 3.1-19.63 9a39.88 39.88 0 0 0-10.49-17.45c-8-7.66-19.08-11.71-32.13-11.71-10.49 0-21.32 3.41-32.19 10.15a102.73 102.73 0 0 0-8.45 5.91 34.81 34.81 0 0 0-28.34-12.19 23.5 23.5 0 0 0-18 9.39 25.3 25.3 0 0 0-3.94 21.48c1.16 4.57 3.8 7.86 6.65 11.08l.24.52c-.85 6.12-5.63 18.71-7.23 22.91-4 10.41-10.16 23.24-13.22 29.23-3.45 5.57-6.16 9.94-8.21 13.74-11.81 20.95-6.72 39.46-6.72 39.46l.87 2.29c1 3.08 5.09 10.69 18.59 19.36 15.36 9.87 37.53 14.87 65.88 14.87 4.45 0 8.66-.07 12.52-.2h192.76c3.54 0 7.16.05 11 .1h.13c3.87.05 7.87.11 12 .11 28.31 0 57.64-2.8 80.36-23.12 6.56-5.87 13.94-12.9 18.38-22.09 5.26-10.91 5.42-22.69.4-35z" id="path178"/><path d="M402.233 236.93a27.58 27.58 0 0 0-16.48-15.78c-6.55-2.14-13.55-1.41-20.24.6-1.35-3-2.88-5.86-4.35-8.58a81.25 81.25 0 0 1-5.18-10.86c4.15-7.17 5.94-11.5 5.94-14.4 0-5.1-3.83-8.4-9.74-8.4-6.58 0-13.91 7.68-13.91 18.7v1.66c-6.19 13.65-11 22.61-16.4 30.84-1.32 2-2.45 3.74-3.4 5.3a36.43 36.43 0 0 1-27.94 12.62c-5.76 0-11.91-2.5-11.91-9.52v-1.72c11.61-1.85 22.23-5.43 30.05-10.12 8.62-5.17 13.37-11.46 13.37-17.72 0-9.27-7.43-14.81-19.89-14.81-9.25 0-19.81 4.76-28.24 12.72a45.74 45.74 0 0 0-13.9 24.46c-7.49 11.4-14.24 17.9-18.61 17.9-1.14 0-3-1.49-3-5.49 0-7.59 4.18-17.35 8.27-25.92 6.52-10.47 7.86-14.28 7.86-16.77 0-4-3-6.9-7.2-6.9-5.72 0-9.62 3.68-13.46 12.69-3.68 8.58-8.71 20.33-14 27.87-4.38 6.35-10.06 13.63-15.1 13.63-.86 0-2.5-1-2.5-4.6 0-7.59 4.17-17.35 8.27-25.92 5.79-9.31 7.85-13.66 7.85-16.62 0-4.15-3.14-7.05-7.64-7.05-5.44 0-9.36 3.73-14.45 13.76a142 142 0 0 0-9.68 23c-7.44 11.38-14.51 18.15-19 18.15-2.94 0-3.26-3.74-3.26-5.35 0-7.31 4-20 12-37.73l.58-1c11.16-19 18.48-31.93 18.48-38 0-4.41-3.26-7.49-7.94-7.49-4.23 0-9.59 5.27-14 13.75-5.07 9.72-19.36 38-24.73 57.7a27.27 27.27 0 0 1-15.05 9.7c.42-1.56.15-2.39-.62-2.66a43.1 43.1 0 0 0 2-12.93 28.73 28.73 0 0 0-5.49-17.15c13.83-11.48 22.35-27.74 22.35-42.86 0-16.33-9.75-25.7-26.75-25.7-14.3 0-30.43 10-48 29.77.08-1 .13-2.09.13-3.17a24.9 24.9 0 0 0-6-16.46 17 17 0 0 0-14.31-6.19c-4.56.19-6.42 4.43-5.36 8.61.41 1.57 6.06 7 5.9 7.56l-.2.73.3-.82a14.37 14.37 0 0 1 1.58 7c0 6.93-3.41 17.32-8.53 30.79-4.63 12.16-11.9 26.91-14.35 31.68-9.33 15-11 18-11 22.83 0 5.38 3.5 9 8.69 9 5.63 0 8.92-4.9 12.41-12.83s9-19.67 14.47-30.59a130.31 130.31 0 0 1 18.56-28.72 162.09 162.09 0 0 1 23.05-23.2c8.58-6.81 16-10.41 21.56-10.41 7 0 8.47 5.5 8.47 10.11 0 10.82-6.05 23.45-15.51 32.54a49.93 49.93 0 0 0-22.67-5c-13.2 0-22.42 6.15-22.42 15 0 7 5.57 14.51 21.23 14.51a54.53 54.53 0 0 0 22.23-5 20 20 0 0 1 1.47 7.85 33.16 33.16 0 0 1-5.06 17.72c-11.89-.2-29-4.27-36.77-10.72-3.54-3-6.88-4.35-10.83-4.35-2.68 0-8.51.92-9.78 8.69v.25c0 .24-.07.49-.1.74-.54 4.64-2.22 24.34 7.95 30.61h-38.5s7.5 24.07 67.48 24.07c4.51 0 8.56-.07 12.21-.2h193c30.4 0 67 3.61 91.58-18.36 12.36-11.04 20.82-20.74 14.16-37.04zm-100.8-29.14c.24 0 2.35 0 2.35 1 0 5.49-8.51 11.22-21.13 14.49 4.97-9.39 13.23-15.49 18.78-15.49zm-208.69 1.58c-3 0-4.3-.76-4.3-1.16 0-.8 2-1.61 6.39-1.61a32.05 32.05 0 0 1 7.77.9 28.55 28.55 0 0 1-9.86 1.87zm241.22 30.24c1-1.39 2-2.84 3-4.35a7.47 7.47 0 0 0 1.06-2.56c2.87-4.5 5.5-9 8-13.52a73.82 73.82 0 0 1 3.93 9.37 101.91 101.91 0 0 0-13 8.5 17.11 17.11 0 0 0-3.26 3.27c.07-.22.16-.46.27-.71zm17.48.63c-.68 5.46-4.6 9.14-10 9.14a10.13 10.13 0 0 1-3.85-.71 7.18 7.18 0 0 0 1-.11 15 15 0 0 0 6-3.16c2.31-1.69 4.55-3.48 6.85-5.16zm-256.33 16.05a22.5 22.5 0 0 1-6.1.85c-8.56 0-16-4.12-18.21-9.73a74.68 74.68 0 0 0 24.31 8.88zm256.57 12.17h-239.93a52.19 52.19 0 0 0 12.14-11.21c9.4-1 17.25-3.13 23.76-6.59 2.25 7.66 8.62 11.92 18.23 11.92 7.55 0 14.57-3.93 20.56-9.14a15.33 15.33 0 0 0 3.08 4.37c3.16 3.12 7.68 4.77 13.08 4.77 6.28 0 12.8-3.71 19.43-11 2.47 6.82 9 11 17.6 11 8.41 0 16.15-4.78 22.76-11.18 4.45 7.22 13.58 11.18 26.5 11.18a54.28 54.28 0 0 0 28.14-7.5c.57-.34 1.15-.7 1.71-1.07 4 4.95 11.42 8.57 22.84 8.57 17 0 27.95-9.68 27.95-24.66a29.77 29.77 0 0 0-.37-4.65 18.26 18.26 0 0 1 13.42 6.2c16.63 19.82-13.03 28.99-30.9 28.99z" id="path180" style="fill:#00aedc"/><path class="cls-5" id="line182" style="fill:none;stroke:#fff;stroke-width:2.6500001px;stroke-linecap:round;stroke-linejoin:round" d="m64.473 193.75-29.55 55.56"/><path class="cls-5" d="M64.473 157.15s4.33 7.7 3.39 20.8" id="path184" style="fill:none;stroke:#fff;stroke-width:2.6500001px;stroke-linecap:round;stroke-linejoin:round"/><path class="cls-5" d="M64.873 192.64a100.16 100.16 0 0 1 37.86-38.07c6.35-3.6 13.34-6.55 20.64-6.54 7.3.01 14.94 3.55 18.16 10.1 2.16 4.4 2.12 9.57 1.38 14.42a50 50 0 0 1-19.47 31.94c-9.35 7.11-27.1 15.36-39.05 10.88-10.57-4-2.21-12.65 4.17-14.3 5.27-1.37 16-2.52 20.05 2.36" id="path186" style="fill:none;stroke:#fff;stroke-width:2.6500001px;stroke-linecap:round;stroke-linejoin:round"/><path class="cls-5" d="M124.143 219.55c.4 12 .26 26-7.64 35.55-15.38 18.61-47.9 12.62-55.8-9.82-.61-1.74-1-3.9.27-5.24a4.81 4.81 0 0 1 3-1.22c6.48-.85 12.56 1.77 18.32 4.36a97.57 97.57 0 0 0 21.23 6.76" id="path188" style="fill:none;stroke:#fff;stroke-width:2.6500001px;stroke-linecap:round;stroke-linejoin:round"/><path class="cls-5" d="M185.623 171.09s-25.69 37-28.42 64.73c-2.73 27.73 12.72 19 15.81 18.57 0 0 8.95-4.42 12.48-9.71" id="path190" style="fill:none;stroke:#fff;stroke-width:2.6500001px;stroke-linecap:round;stroke-linejoin:round"/><path class="cls-5" d="M208.443 204.11s-15 21.17-15 40.57 30 16.76 52-40.57" id="path192" style="fill:none;stroke:#fff;stroke-width:2.6500001px;stroke-linecap:round;stroke-linejoin:round"/><path class="cls-5" d="M228.823 243.93a23.18 23.18 0 0 0 0 4.08c1.18 13.64 20.62 9.3 26.38 1.52" id="path194" style="fill:none;stroke:#fff;stroke-width:2.6500001px;stroke-linecap:round;stroke-linejoin:round"/><path class="cls-5" d="M276.343 231.45s19.41-2.64 32.64-12.34 0-24.26-18.08-15c-18.08 9.26-26.46 34-20.73 45.42 5.73 11.42 32.19 9.26 41.89 0" id="path196" style="fill:none;stroke:#fff;stroke-width:2.6500001px;stroke-linecap:round;stroke-linejoin:round"/><path class="cls-5" d="M319.783 244.9s12.84-11.86 17.64-25.57a133.69 133.69 0 0 1 12.34-25.14" id="path198" style="fill:none;stroke:#fff;stroke-width:2.6500001px;stroke-linecap:round;stroke-linejoin:round"/><path class="cls-5" d="M349.983 207.64s3.53 12.35 7.06 19.84c2.58 5.56 4.58 12.49 3.18 18.63-1.81 7.79-10.23 10.64-17.36 11-3.22.14-8 .36-10.41-2.25-2.68-3-.74-5.61 1.22-8.38 5.06-7.14 19.64-12.71 17.2-12.79" id="path200" style="fill:none;stroke:#fff;stroke-width:2.6500001px;stroke-linecap:round;stroke-linejoin:round"/><path class="cls-5" d="M74.293 283.47a104.41 104.41 0 0 0 14.21.9h215.18l34-2.21" id="path202" style="fill:none;stroke:#fff;stroke-width:2.6500001px;stroke-linecap:round;stroke-linejoin:round"/><path class="cls-5" d="M331.143 275.11H51.463s3.44 3.62 12.92 6.33" id="path204" style="fill:none;stroke:#fff;stroke-width:2.6500001px;stroke-linecap:round;stroke-linejoin:round"/><path class="cls-5" d="M371.153 226.6s17.6-.6 23.85 14.54c0 0 6.58 36.61-50.31 34" id="path206" style="fill:none;stroke:#fff;stroke-width:2.6500001px;stroke-linecap:round;stroke-linejoin:round"/><path class="cls-5" d="M130.393 249.53s13.76-2.68 22.8-12.67" id="path208" style="fill:none;stroke:#fff;stroke-width:2.6500001px;stroke-linecap:round;stroke-linejoin:round"/><path class="cls-6" id="line210" style="fill:none;stroke:#fff;stroke-width:3.97000003px;stroke-linecap:round;stroke-linejoin:round" d="M135.103 323.04v7.28"/><path class="cls-6" id="polyline212" style="fill:none;stroke:#fff;stroke-width:3.97000003px;stroke-linecap:round;stroke-linejoin:round" transform="translate(-279.377 -184.96)" d="M397.29 515.27v-18.52l8.82 12.35 8.37-12.35"/><path class="cls-6" id="polyline214" style="fill:none;stroke:#fff;stroke-width:3.97000003px;stroke-linecap:round;stroke-linejoin:round" transform="translate(-279.377 -184.96)" d="m464.75 496.75 8.82 12.35 8.38-12.35v18.52"/><path class="cls-6" id="line216" style="fill:none;stroke:#fff;stroke-width:3.97000003px;stroke-linecap:round;stroke-linejoin:round" d="M185.373 330.32v-7.28"/><path class="cls-6" id="polyline218" style="fill:none;stroke:#fff;stroke-width:3.97000003px;stroke-linecap:round;stroke-linejoin:round" transform="translate(-279.377 -184.96)" d="M446.89 515.5h-12.34v-18.52h12.34"/><path class="cls-6" id="line220" style="fill:none;stroke:#fff;stroke-width:3.97000003px;stroke-linecap:round;stroke-linejoin:round" d="M161.173 321.27h5.46"/><path class="cls-6" d="M223.073 330.54v-18.5h6.18s7-.45 7 5.29c0 0 .44 5.73-7 5.73h.09" id="path222" style="fill:none;stroke:#fff;stroke-width:3.97000003px;stroke-linecap:round;stroke-linejoin:round"/><path class="cls-6" id="line224" style="fill:none;stroke:#fff;stroke-width:3.97000003px;stroke-linecap:round;stroke-linejoin:round" d="M253.943 311.57v18.97"/><path class="cls-6" id="line226" style="fill:none;stroke:#fff;stroke-width:3.97000003px;stroke-linecap:round;stroke-linejoin:round" d="M268.493 311.57v18.97"/><path class="cls-6" id="line228" style="fill:none;stroke:#fff;stroke-width:3.97000003px;stroke-linecap:round;stroke-linejoin:round" d="M254.383 321.28h7.72"/><path class="cls-6" id="line230" style="fill:none;stroke:#fff;stroke-width:3.97000003px;stroke-linecap:round;stroke-linejoin:round" d="M287.893 311.57v18.97"/><path class="cls-6" d="M319.983 324.04a5.32 5.32 0 0 0-3-2.49s-8.34-.94-9.13-4.66c-.79-3.72 4.51-7.69 12-3.28" id="path232" style="fill:none;stroke:#fff;stroke-width:3.97000003px;stroke-linecap:round;stroke-linejoin:round"/><path class="cls-6" d="M306.623 327.67s2.21 2.65 7.5 2.65a6.92 6.92 0 0 0 2.78-.59" id="path234" style="fill:none;stroke:#fff;stroke-width:3.97000003px;stroke-linecap:round;stroke-linejoin:round"/><path class="cls-7" id="line236" style="stroke:#f65d32;stroke-width:4.40999985px;stroke-linecap:round;stroke-linejoin:round" d="M283.703 157.65h-67.9"/><path class="cls-8" id="line238" style="fill:none;stroke:#f65d32;stroke-width:4.40999985px;stroke-linecap:round;stroke-linejoin:round" d="M258.243 179.07h-42.44"/><path class="cls-8" id="line240" style="fill:none;stroke:#f65d32;stroke-width:4.40999985px;stroke-linecap:round;stroke-linejoin:round" d="M331.333 179.07h-73.09"/><path class="cls-7" id="line242" style="stroke:#f65d32;stroke-width:4.40999985px;stroke-linecap:round;stroke-linejoin:round" d="M266.073 136.23h-50.27"/><path class="cls-7" id="line244" style="stroke:#f65d32;stroke-width:4.40999985px;stroke-linecap:round;stroke-linejoin:round" d="M257.253 114.81h-41.45"/><path class="cls-7" id="line246" style="stroke:#f65d32;stroke-width:4.40999985px;stroke-linecap:round;stroke-linejoin:round" d="M232.113 93.4h-16.31"/><path class="cls-7" id="line248" style="stroke:#f65d32;stroke-width:4.40999985px;stroke-linecap:round;stroke-linejoin:round" d="M257.253 71.98h-41.45"/><path class="cls-7" id="line250" style="stroke:#f65d32;stroke-width:4.40999985px;stroke-linecap:round;stroke-linejoin:round" d="M266.073 50.56h-50.27"/><path class="cls-8" d="M193.533 144.23V43.92c0-11.29 7.27-14 11.61-14.63l10.66-.15h72.31" id="path252" style="fill:none;stroke:#f65d32;stroke-width:4.40999985px;stroke-linecap:round;stroke-linejoin:round"/><path class="cls-9" d="M373.043 92.83c.16-8.1-.63-13.06-3-22.17l-4.42-.62c-13.51-3-22.81-14.12-35.55-18.81a97.2 97.2 0 0 0-22.29-5" id="path254" style="fill:none;stroke:#f2d425;stroke-width:4.46999979px;stroke-linecap:round;stroke-linejoin:round"/><path class="cls-9" d="m392.853 124.38-8.64-6.19a27.26 27.26 0 0 0-5.49-2.39l-7.58-1.12a82.61 82.61 0 0 0 1.61-10.59" id="path256" style="fill:none;stroke:#f2d425;stroke-width:4.46999979px;stroke-linecap:round;stroke-linejoin:round"/><path class="cls-9" d="M307.783 139.16a97.22 97.22 0 0 0 22.29-5c12.74-4.68 22-15.83 35.55-18.8a14.81 14.81 0 0 1 5-.63" id="path258" style="fill:none;stroke:#f2d425;stroke-width:4.46999979px;stroke-linecap:round;stroke-linejoin:round"/><path class="cls-9" d="m395.623 61.16-11.36 6.07a27.64 27.64 0 0 1-4.39 2l-9.78 1.41a91.17 91.17 0 0 0-11.3-25.91" id="path260" style="fill:none;stroke:#f2d425;stroke-width:4.46999979px;stroke-linecap:round;stroke-linejoin:round"/><path class="cls-9" d="M371.143 114.68a99.53 99.53 0 0 1-7.52 24.08" id="path262" style="fill:none;stroke:#f2d425;stroke-width:4.46999979px;stroke-linecap:round;stroke-linejoin:round"/><path class="cls-9" id="line264" style="fill:none;stroke:#f2d425;stroke-width:4.46999979px;stroke-linecap:round;stroke-linejoin:round" d="M373.623 93.13h28.05"/><path class="cls-9" id="line266" style="fill:none;stroke:#f2d425;stroke-width:4.46999979px;stroke-linecap:round;stroke-linejoin:round" d="M341.563 93.13h32.57"/><path class="cls-9" id="line268" style="fill:none;stroke:#f2d425;stroke-width:4.46999979px;stroke-linecap:round;stroke-linejoin:round" d="M306.683 93.13h17.73"/><path class="cls-9" id="line270" style="fill:none;stroke:#f2d425;stroke-width:4.46999979px;stroke-linecap:round;stroke-linejoin:round" d="M243.613 93.13h47.11"/><path class="cls-10" d="M267.343 104.17a68.46 68.46 0 1 0 .17-23.55l-.35 2.65" id="path272" style="fill:none;stroke:#00aedc;stroke-width:4.44000006px;stroke-linecap:round;stroke-linejoin:round"/><path class="cls-10" d="M322.933 78.31h-26.66l-1.76-13.27h34.39l1 7.73 1.84 11 4.41 30v4.27a5.72 5.72 0 0 1-2 3c-3.12 2.4-8.25 1-11.45-3.19-3.2-4.19-3.26-9.48-.14-11.88a6.12 6.12 0 0 1 5-1" id="path274" style="fill:none;stroke:#00aedc;stroke-width:4.44000006px;stroke-linecap:round;stroke-linejoin:round"/><path class="cls-10" d="m297.823 85.59 4.4 30v4.18a5.84 5.84 0 0 1-2 3c-3.13 2.4-8.25 1-11.45-3.2-3.2-4.2-3.25-9.53-.15-11.9a6.15 6.15 0 0 1 5-1" id="path276" style="fill:none;stroke:#00aedc;stroke-width:4.44000006px;stroke-linecap:round;stroke-linejoin:round"/></svg>