<svg xmlns="http://www.w3.org/2000/svg" id="Layer_1" width="284.94" height="317.32" data-name="Layer 1" version="1.1"><defs id="defs4"><style id="style2">.cls-3{fill:#fff}.cls-4{fill:#fdc05f}.cls-5{fill:#003600}.cls-6{fill:#fc882c}.cls-7{fill:#f06b17}</style></defs><path id="path220" d="M280.69 51a46.75 46.75 0 0 1-46.75-46.75v-.2H50.55A46.74 46.74 0 0 1 4.01 50.18v217.35h.2a46.76 46.76 0 0 1 46.74 45.74h183.41v-1a46.75 46.75 0 0 1 46.54-46.75V51z" class="cls-5" style="fill:#003600"/><path id="rect222" d="M3.94 140.09h280v42h-280z" style="fill:#007800"/><path id="polygon224" d="M361.7 903.71h14.34l-12.23 14.34h-14.35z" class="cls-4" style="fill:#fdc05f" transform="translate(-116.45 -753)"/><path id="path226" d="M259.55 150.71s7.27 5 3.46 14.35h-15.65z" class="cls-6" style="fill:#fc882c"/><path id="polygon228" d="M158.09 906.55h-14.34l12.24 14.34h14.34z" class="cls-4" style="fill:#fdc05f" transform="translate(-116.45 -753)"/><path id="path230" d="M27.3 153.55s-7.27 5-3.45 14.34h15.7z" class="cls-6" style="fill:#fc882c"/><path id="path232" d="M199.76 104.61a79.66 79.66 0 0 0-77.46-20.45l-16.36 4.5 1.18 1.42A79.6 79.6 0 0 0 87.2 217.17a79 79 0 0 0 56.28 23.31 80 80 0 0 0 19.26-2.35l5.22-1.29.25.9 3.58-1.86 3.91-1-.4-.85 4.78-2.47a79.61 79.61 0 0 0 43-70.7 79.05 79.05 0 0 0-23.32-56.25z" class="cls-5" style="fill:#003600"/><path id="path234" d="M143.48 92.23a68.87 68.87 0 0 0-18.28 2.46 2.4 2.4 0 0 1 .61 1.55c0 2.21-3.58 4-8 4a13.64 13.64 0 0 1-4.9-.84 68.68 68.68 0 0 0 47.2 128.13 8 8 0 1 1 14.94-5.64 68.67 68.67 0 0 0-31.56-129.66z" class="cls-4" style="fill:#fdc05f"/><circle id="circle236" cx="80.94" cy="189.09" r="6" class="cls-5" style="fill:#003600"/><path id="path238" d="M161.97 94.75a136 136 0 0 0-2 132.8h.1a8 8 0 1 1 14.94-5.64 68.68 68.68 0 0 0-13.07-127.14z" class="cls-6" style="fill:#fc882c"/><path id="path240" d="m97.88 212.32-6.42-6.46a64.11 64.11 0 0 0 .34-90.51l6.47-6.41a73.21 73.21 0 0 1-.39 103.38z" class="cls-7" style="fill:#f06b17"/><path id="path242" d="M189.08 212.32a73.21 73.21 0 0 1-.39-103.38l6.48 6.41a64.1 64.1 0 0 0 .33 90.51z" class="cls-7" style="fill:#f06b17"/><path id="rect244" d="M74.82 155.43h137.33v9.11H74.82z" class="cls-7" style="fill:#f06b17"/><ellipse id="ellipse246" cx="158.23" cy="107.16" class="cls-4" rx="8.01" ry="4.01" style="fill:#fdc05f"/><ellipse id="ellipse248" cx="130.37" cy="127.02" class="cls-6" rx="6.37" ry="8.2" style="fill:#fc882c"/><circle id="circle250" cx="150.95" cy="201.51" r="8.01" class="cls-4" style="fill:#fdc05f"/><ellipse id="ellipse252" cx="164.61" cy="121.92" class="cls-7" rx="6.74" ry="3.1" style="fill:#f06b17"/><circle id="circle254" cx="158.6" cy="175.28" r="4.37" class="cls-7" style="fill:#f06b17"/><circle id="circle256" cx="156.78" cy="142.86" r="2.55" class="cls-7" style="fill:#f06b17"/><circle id="circle258" cx="141.11" cy="103.16" r="2.55" class="cls-6" style="fill:#fc882c"/><circle id="circle260" cx="131.64" cy="177.47" r="5.1" class="cls-6" style="fill:#fc882c"/><ellipse id="ellipse262" cx="121.81" cy="209.52" class="cls-6" rx="4.01" ry="6.56" style="fill:#fc882c"/><ellipse id="ellipse264" cx="193.05" cy="174.72" class="cls-7" rx="3.89" ry="5.49" style="fill:#f06b17"/><circle id="circle266" cx="195.94" cy="138.31" r="7.1" class="cls-7" style="fill:#f06b17"/><circle id="circle268" cx="88.3" cy="140.31" r="5.1" class="cls-6" style="fill:#fc882c"/><ellipse id="ellipse270" cx="91.21" cy="177.28" class="cls-6" rx="8.01" ry="4.55" style="fill:#fc882c"/><path id="path272" d="m222.71 229.72 1.62-1.94 13.32 4.94-15.1-12.55 3.1-3.75L248.03 235l-3.86 4.65-13.62-5.07 7.51 12.47-3.86 4.65-22.39-18.6 3.11-3.74 15.11 12.56z" class="cls-3" style="fill:#fff"/><path id="path274" d="m189.06 255.92 5.3-2.77-1.81-6.15 4.41-2.31 7.41 29-4.2 2.2-19.62-22.62 4.41-2.31zm3 3.73 6.35 7.74-2.75-9.63z" class="cls-3" style="fill:#fff"/><path id="path276" d="m154.46 276-8.91-15.27 5.29-.64 5.86 10.08 1.77-4.45-.79-6.47 4.75-.58 3.53 28.89-4.75.58-1.6-13.14-5.19 14-5.32.65z" class="cls-3" style="fill:#fff"/><path id="path278" d="m126.8 259.26-6.66 28.33-13.59-3.19 1.08-4.59 8.83 2.08 1.66-7.05-6.57-1.54 1.08-4.59 6.56 1.55 1.77-7.53-8.84-2.08 1.08-4.59z" class="cls-3" style="fill:#fff"/><path id="path280" d="m95.14 248.36-15.83 24.42L68.77 266l-.71-3.29 7.09-10.92 3.28-.7 4.18-10.81 4 2.6-4.18 10.81 2.44 1.58 6.17-9.51zm-16.73 8.27-.76.2-3.92 6 .16.74 3.92 2.54 4.52-7z" class="cls-3" style="fill:#fff"/><path id="path282" d="m45.88 231.49-2.45 1.84-.11.81 2.23 3 .8.12 4.84-3.64.11-.8-4.09-5.45.47-3.33 9.91-7.46 3.33.47 5.94 7.9-.47 3.33-4.84 3.57-2.89-3.85 2.48-1.86.11-.81-2.23-3-.81-.12-5.26 4-.12.81 4.08 5.41-.47 3.33-9.52 7.16-3.32-.47-5.94-7.9.47-3.32 4.8-3.62z" class="cls-3" style="fill:#fff"/><path id="path284" d="m59.39 101.36-18.71-15.6-.3-3.35 6.28-7.53 3.34-.3 4.62 3.85-3.07 3.74-2.35-2-.81.07-2.35 2.82.07.81L60.29 95.7l.81-.08 2.35-2.82-.07-.81-2.35-2 3.11-3.74 4.62 3.85.3 3.35-6.28 7.53z" class="cls-3" style="fill:#fff"/><path id="path286" d="m75.37 51.3 6 10.43L86.12 59l-6-10.42 4.22-2.43 14.5 25.24-4.21 2.42-6.17-10.72-4.75 2.72 6.17 10.73L85.65 79l-14.5-25.23z" class="cls-3" style="fill:#fff"/><path id="path288" d="M117.87 64.63 112.8 36l13.75-2.47.82 4.64-8.94 1.58 1.26 7.13 6.64-1.17.82 4.64-6.64 1.17 1.35 7.62 8.94-1.58.82 4.64z" class="cls-3" style="fill:#fff"/><path id="path290" d="m151.31 62.22 4.85-28.7 13.75 2.33-.78 4.64-8.95-1.49-1.21 7.14 6.64 1.12-.78 4.64-6.65-1.12-1.29 7.63 9 1.51-.78 4.65z" class="cls-3" style="fill:#fff"/><path id="path292" d="m201.98 57.63 1.5-2.67-.23-.79-3.24-1.81-.78.22-2.95 5.29.22.78 5.95 3.35.92 3.23-6.05 10.84-3.24.91-8.63-4.82-.91-3.23 2.93-5.25 4.25 2.37-1.51 2.71.22.78 3.24 1.81.78-.22 3.22-5.75-.22-.78-5.9-3.33-.92-3.23 5.81-10.4 3.23-.92 8.63 4.82.92 3.23-2.96 5.23z" class="cls-3" style="fill:#fff"/><path id="path294" d="m211.55 90.75 22-19.14 9.17 10.5-3.55 3.1-6-6.84-5.46 4.76 4.44 5.08-3.55 3.1-4.44-5.08-5.82 5.08 6 6.84-3.55 3.1z" class="cls-3" style="fill:#fff"/><path id="path296" d="M238.55 317.32H47.02l-.08-4a42.93 42.93 0 0 0-42.69-41.77H0V46.16h4A42.9 42.9 0 0 0 46.55 4V0h191.47v4.2A42.76 42.76 0 0 0 280.68 47h4.26v222.62h-4a42.79 42.79 0 0 0-42.52 42.7v.92zm-183.7-8.09h175.54a50.92 50.92 0 0 1 46.45-47.58V54.91a50.89 50.89 0 0 1-46.8-46.81H54.42a51.08 51.08 0 0 1-46.32 46v209.58a50.82 50.82 0 0 1 46.7 45.59z" class="cls-4" style="fill:#fdc05f"/><circle id="circle298" cx="210.44" cy="189.09" r="12" class="cls-5" style="fill:#003600"/><circle id="circle300" cx="185.19" cy="103.34" r="6.75" class="cls-5" style="fill:#003600"/></svg>