<svg xmlns="http://www.w3.org/2000/svg" id="Layer_1" data-name="Layer 1" version="1.1" width="346.46" height="351.03"><defs id="defs19"><linearGradient id="linear-gradient" x1="251.02" y1="532.25" x2="251.02" y2="520.23" gradientUnits="userSpaceOnUse"><stop offset="0" stop-color="#6e7070" stop-opacity="0" id="stop4"/><stop offset=".06" stop-color="#6e7070" stop-opacity=".11" id="stop6"/><stop offset=".24" stop-color="#6e7070" stop-opacity=".43" id="stop8"/><stop offset=".43" stop-color="#6d7070" stop-opacity=".68" id="stop10"/><stop offset=".62" stop-color="#6d7070" stop-opacity=".86" id="stop12"/><stop offset=".81" stop-color="#6d7070" stop-opacity=".96" id="stop14"/><stop offset="1" stop-color="#6d7070" id="stop16"/></linearGradient><style id="style2">.cls-1{fill:#dcdbdb}.cls-2{fill:#6b4fa0}.cls-3{fill:#36296d}.cls-4{fill:#fff}.cls-5{fill:#8accdc}.cls-6{fill:none;stroke:#dcdbdb;stroke-miterlimit:10;stroke-width:3.24px}.cls-12{fill:#898989}</style></defs><circle class="cls-1" cx="171.26" cy="260.59" r="90.44" id="circle21" style="fill:#dcdbdb"/><path class="cls-2" d="m99.58 281.37-3.24 1.42.32.73-2.86 1.23-2.07-4.79 2.86-1.23.31.73 7-3-.32-.73 2.84-1.23 1.69 3.9-3.77 4.92 6.11.69 1.69 3.9-2.8 1.23-.32-.73-7 3 .31.73-2.85 1.23-2.08-4.79 2.86-1.23.31.73 3.29-1.42-5.74-.67z" id="path23" style="fill:#6b4fa0"/><path class="cls-2" d="m102.82 301.73 2.5-1.86.47.64 6.08-4.52-.47-.64 2.49-1.85 3.11 4.19-2.49 1.85-.47-.64-6.08 4.52.47.64-2.5 1.86z" id="path25" style="fill:#6b4fa0"/><path class="cls-2" d="m119.74 311.77-2.05 2.27.59.53-2.09 2.31-3.87-3.5 2.09-2.3.59.53 5.08-5.63-.59-.53 2.07-2.3 3.19 2.88-1.53 7.12 2.15-2.39-.59-.53 2.08-2.3 3.87 3.5-2.08 2.3-.58-.53-5.08 5.62.58.53-2.08 2.31-3.25-2.93z" id="path27" style="fill:#6b4fa0"/><path class="cls-2" d="m136.42 323.73-1.37 2.73.71.36-1.4 2.78-4.66-2.33 1.4-2.78.71.35 3.4-6.77-.71-.36 1.39-2.76 3.84 1.93.41 7.26 1.45-2.87-.71-.35 1.39-2.77 4.66 2.34-1.39 2.78-.71-.36-3.4 6.78.7.35-1.39 2.78-3.91-2z" id="path29" style="fill:#6b4fa0"/><path class="cls-2" d="m157.42 334.56.12-.54 2.91.65-.8 3.57-9.48-2.12.68-3 .77.17 1.65-7.4-.77-.17.67-3 9.49 2.12-.79 3.55-2.91-.65.12-.53-2.26-.5-.49 2.19.52.12.12-.53 2.89.64-.91 4.09-2.89-.65.12-.53-.53-.12-.49 2.18z" id="path31" style="fill:#6b4fa0"/><path class="cls-2" d="M179.41 328.47h-.67l3.16 7.47h.79l.11 3.11-5.07.18-.11-3.11h.43l-.21-.62-3.5.12-.19.64h.43l.11 3.11-5.06.18-.1-3.11h.79l2.64-7.67h-.57l-.11-3.1 7-.24zm-2.58 4.41-.92-2.15-.76 2.21z" id="path33" style="fill:#6b4fa0"/><path class="cls-2" d="m195.27 331.01.63 2 .76-.24.92 3-5 1.56-.92-3 .75-.24-2.26-7.24-.76.24-.92-3 7.81-2.44 2.67 1.47 1.24 4-1.36 2.73zm.8-3.49.27-.55-.44-1.41-.56-.29-1.72.54.7 2.26z" id="path35" style="fill:#6b4fa0"/><path class="cls-2" d="m206.14 317.32 4.93-3.1 2.95.74 5 7.94-.61 3-4.92 3.11-3-.74-5-7.94zm4.94.55-1.64 1-.12.61 3.57 5.67.6.13 1.63-1 .12-.58-3.57-5.67z" id="path37" style="fill:#6b4fa0"/><path class="cls-2" d="m228.82 313.01 1.62-1.74-.6-.57 2-2.17 2.88 2.68-6.68 7.15-2.24-2.09.54-.58-5.54-5.17-.54.58-2.26-2.11 3.55-3.82 2.27 2.12-.54.57z" id="path39" style="fill:#6b4fa0"/><path class="cls-2" d="m240.34 303.47-2.69-1.57.4-.69-6.54-3.83-.4.68-2.67-1.56 2.64-4.5 2.67 1.56-.4.68 6.54 3.84.4-.68 2.68 1.57z" id="path41" style="fill:#6b4fa0"/><path class="cls-2" d="m242.87 286.52-2.73 1.35-3.88-1.22-1.47-2.67 1.75-5.55 2.73-1.35 2.59.81-1.09 3.46-1.31-.41-.55.26-.58 1.85.29.54 1.33.42.56-.28 1.16-3.69 2.73-1.35 3.82 1.2 1.47 2.67-1.75 5.55-2.73 1.36-2.53-.8 1.09-3.46 1.25.39.54-.28.58-1.84-.29-.53-1.26-.39-.55.26z" id="path43" style="fill:#6b4fa0"/><path class="cls-1" d="M0 0v117.48h45.57l10.09 156.53h52.28a66.22 66.22 0 0 0 126.87 0h55.74l9.09-156.53h46.82V0z" id="path45" style="fill:#dcdbdb"/><path class="cls-3" d="M339.56 6.9H6.89v103.69h45.2l10.09 156.52h51.16a59.32 59.32 0 0 0 116.15 0h54.55l9.09-156.52h46.47z" id="path47" style="fill:#36296d"/><path class="cls-4" d="m55.34 75.44-7 7H21.08v-9.92h2.63V29.06h-2.63V19.2h27.26l7 7v20.9L52.43 50l2.91 2.9zM41.83 29.06h-6v16h6l1.43-1.43v-13.2zm0 25.91h-6v17.57h10.81l-3.41-11v-5.12z" id="path49" style="fill:#fff"/><path class="cls-4" d="M75.77 72.54h7.91v-2.63h9.91v12.55H61.05v-9.92h2.64V29.06h-2.64V19.2h17.36v9.86h-2.64z" id="path51" style="fill:#fff"/><path class="cls-4" d="M98.66 82.46v-9.92h2.68V29.06h-2.63V19.2h17.35v9.86h-2.72v43.48h2.64v9.92z" id="path53" style="fill:#fff"/><path class="cls-4" d="M144.75 72.54v-2.63h9.92v12.55h-32.86v-8.33l17.14-45.07h-7.22v2.64h-9.92V19.2h32.86v8.33l-17.14 45z" id="path55" style="fill:#fff"/><path class="cls-4" d="M183.41 72.54v-2.63h9.93v12.55h-32.87v-8.33l17.14-45.07h-7.27v2.64h-9.91V19.2h32.91v8.33l-17.14 45z" id="path57" style="fill:#fff"/><path class="cls-4" d="M232.88 29.06h-2.21l9.67 43.48h2.63v9.92h-16.89v-9.92h1.42l-.63-11.67h-11.66l-.68 11.67h1.42v9.92h-16.82v-9.92h2.63l9.66-43.48h-1.9V19.2h23.36zm-8.1 23.43-3.77-18.88-3.44 18.88z" id="path59" style="fill:#fff"/><path class="cls-4" d="M265.34 72.54v9.92h-17.32v-9.92h2.63V29.06h-2.63V19.2h27.21l7 7v20.9l-2.91 2.9 2.91 2.9v19.63h2.63v9.92h-14.69V56.39l-1.43-1.42h-6v17.57zm3.37-27.43 1.43-1.43v-13.2l-1.43-1.42h-9.23l3.22 10.7v5.35z" id="path61" style="fill:#fff"/><path class="cls-4" d="m317.85 19.2 7 7v49.23l-7 7h-27.22v-9.92h2.64V29.06h-2.64V19.2zm-1.34 53.34-3.73-11v-31l-1.44-1.48h-6v43.48z" id="path63" style="fill:#fff"/><path class="cls-5" id="polygon65" style="fill:#8accdc" transform="translate(-79.66 -337.73)" d="M372.93 366.79v21.78h12.08v-21.78h6.01l1.42 1.42v20.36h12.08v-24.63l-7.02-7.01h-27.21v9.86z"/><path class="cls-5" d="M248.02 19.2v9.86h2.63v21.78h29.52l-.83-.83 2.91-2.9v-20.9l-7-7zm22.15 24.48-1.43 1.43h-6v-5.35l-3.22-10.7h9.23l1.43 1.42z" id="path67" style="fill:#8accdc"/><path class="cls-5" id="polygon69" style="fill:#8accdc" transform="translate(-79.66 -337.73)" d="M289.18 366.79h1.9l-4.84 21.78h11.3l3.13-17.23 3.44 17.23h11.05l-4.83-21.78h2.21v-9.86h-23.36z"/><path class="cls-5" id="polygon71" style="fill:#8accdc" transform="translate(-79.66 -337.73)" d="M250.04 366.79h7.23l-8.28 21.78h15.12l8.88-23.31v-8.33h-32.86v12.5h9.91z"/><path class="cls-5" id="polygon73" style="fill:#8accdc" transform="translate(-79.66 -337.73)" d="M211.38 366.79h7.23l-8.28 21.78h15.12l8.88-23.31v-8.33h-32.86v12.5h9.91z"/><path class="cls-5" id="polygon75" style="fill:#8accdc" transform="translate(-79.66 -337.73)" d="M180.95 388.57h12.08v-21.78h2.64v-9.86h-17.35v9.86h2.63z"/><path class="cls-5" id="polygon77" style="fill:#8accdc" transform="translate(-79.66 -337.73)" d="M143.35 388.57h12.08v-21.78h2.63v-9.86h-17.35v9.86h2.64z"/><path class="cls-5" d="M21.08 19.2v9.86h2.63v21.78h29.52l-.83-.83 2.91-2.9v-20.9l-7-7zm22.15 24.48-1.43 1.43h-6v-16h6l1.43 1.42z" id="path79" style="fill:#8accdc"/><path class="cls-4" id="polyline81" style="fill:#fff" transform="translate(-79.66 -337.73)" d="m103.37 366.79 7.81 23.63h-7.72"/><path class="cls-4" id="polyline83" style="fill:#fff" transform="translate(-79.66 -337.73)" d="m143.39 366.9 7.81 23.62h-7.73"/><path class="cls-4" id="polyline85" style="fill:#fff" transform="translate(-79.66 -337.73)" d="m181.05 366.68 7.81 23.63h-7.73"/><path class="cls-4" id="polyline87" style="fill:#fff" transform="translate(-79.66 -337.73)" d="m330.18 367.11 7.81 23.63h-7.73"/><path class="cls-4" id="polyline89" style="fill:#fff" transform="translate(-79.66 -337.73)" d="m372.88 366.68 7.81 23.63h-7.73"/><path class="cls-4" id="polyline91" style="fill:#fff" transform="translate(-79.66 -337.73)" d="m218.6 367-1.21 23.63h-7.73"/><path class="cls-4" id="polyline93" style="fill:#fff" transform="translate(-79.66 -337.73)" d="m257.23 367-1.22 23.63h-7.72"/><path class="cls-4" id="polyline95" style="fill:#fff" transform="translate(-79.66 -337.73)" d="m291.02 366.9 2.65 23.62h-7.72"/><path class="cls-2" id="rect97" style="fill:#6b4fa0" d="M20.15 91.75h305.77v5.79H20.15z"/><path class="cls-4" id="rect99" style="fill:#fff" d="M69.47 186.72h204.39v64.17H69.47z"/><path class="cls-4" id="polyline101" style="fill:#fff" transform="translate(-79.66 -337.73)" d="M149.13 524.45v-8.46l21.75 1.82 28.59 7.3 21.9-4.26h24.46v14.6"/><path class="cls-4" id="polyline103" style="fill:#fff" transform="translate(-79.66 -337.73)" d="M353.73 524.45v-8.46l-22.3 1.82-29.31 7.3-22.45-4.26H254.6v14.6"/><path class="cls-6" id="line105" style="fill:none;stroke:#dcdbdb;stroke-width:3.24000001px;stroke-miterlimit:10" d="m119.81 187.38 19 14.44"/><path class="cls-6" id="line107" style="fill:none;stroke:#dcdbdb;stroke-width:3.24000001px;stroke-miterlimit:10" d="m222.46 187.38 37.2 7.95"/><path class="cls-6" d="M69.47 178.27s23.15.61 35.92 4.87c12.77 4.26 12.17 6.69 25.55 1.82s37.92-2.45 37.92-2.45 17.1.63 24.13.63c7.03 0 15.81 0 23.11 3 7.3 3 19.82-5.48 58-7.91" id="path109" style="fill:none;stroke:#dcdbdb;stroke-width:3.24000001px;stroke-miterlimit:10"/><path d="M278.74 225.75s-21.49 8.92-28 28h26.36" id="path111" style="fill:#4f2d88"/><path d="M159.91 215.2v16h23.52v-16a20.79 20.79 0 0 0-23.52 0z" id="path113" style="fill:#59595a"/><path id="rect115" style="fill:#8accdc;stroke:#fff;stroke-width:4.05999994px;stroke-miterlimit:10" d="M118.59 105.06h105.23v57.59H118.59z"/><path id="polyline117" style="fill:#55a8b4;stroke:#fff;stroke-width:4.05999994px;stroke-miterlimit:10" transform="translate(-79.66 -337.73)" d="M236.17 489.67v-21.73h30.41v21.73"/><path class="cls-4" id="polygon119" style="fill:#fff" transform="translate(-79.66 -337.73)" d="m230.65 492.1 15.18 20.54v7.59H255.22v-7.59l15.18-20.54H248.52z"/><path id="rect121" style="fill:#ed9a22" d="M146.12 151.73h50.29v4.46h-50.29z"/><path class="cls-12" id="polygon123" style="fill:#898989" transform="translate(-79.66 -337.73)" d="M245.83 520.23h10.21l1.63 38.47h-13.46z"/><path id="polygon125" style="fill:url(#linear-gradient)" transform="translate(-79.66 -337.73)" d="M245.83 520.23h10.1l.46 11.81-10.75.21z"/><path class="cls-12" d="M164.55 220.97a11.54 11.54 0 0 0 13.46 0l-7.36-2.93" id="path127" style="fill:#898989"/><path class="cls-4" d="M85.09 165.99c-.56.85-.56.85-1.35.33l-1-.65a.26.26 0 0 0-.14 0c0 .57-.1 1.14-.11 1.71a.79.79 0 0 0 .22.49c.39.38.8.73 1.26 1.13l-2.24 2.12-2.21-2.11c.4-.37.75-.73 1.13-1.05a.91.91 0 0 0 .36-.82v-1.6l-2 1.14-.63-.78c.72-.66 1.41-1.31 2.12-1.93a1 1 0 0 0 .41-1 17.89 17.89 0 0 1 0-2c-.81.45-1.56.84-2.29 1.26-.09.05-.12.24-.16.37-.2.79-.43 1.58-.57 2.39-.1.53-.33.63-.79.47-.09 0-.2 0-.33-.07v-2.12c-.6.32-1.16.61-1.71.93a.72.72 0 0 0-.18.36c-.15.51-.28 1-.44 1.61l-3-.74.76-2.92c.54.13 1 .28 1.55.36a1.26 1.26 0 0 0 .72-.1c.48-.25.92-.57 1.44-.9l-2-1 .35-.93c1 .26 1.94.53 2.91.75a1.15 1.15 0 0 0 .77-.12c.6-.32 1.16-.71 1.82-1.13-.76-.45-1.45-.88-2.16-1.28-.12-.07-.34 0-.5 0-.82.23-1.65.46-2.46.73-.37.12-.52 0-.66-.32s-.14-.56.26-.73c.4-.17 1-.52 1.54-.82-.6-.36-1.11-.69-1.65-1a.78.78 0 0 0-.5 0l-1.58.43-.84-2.9 2.94-.82c.16.53.29 1 .48 1.55a1 1 0 0 0 .43.52c.46.28 1 .5 1.47.77v-2.16a.21.21 0 0 1 .1-.06c.83-.18.83-.18 1.06.67.17.67.37 1.34.53 2a.92.92 0 0 0 .57.68c.61.27 1.19.59 1.93 1v-2.5c0-.14-.17-.3-.29-.41a65.8 65.8 0 0 0-2.17-2v-.12c.56-.71.56-.71 1.32-.25l1.23.73v-1.92a.89.89 0 0 0-.27-.42c-.36-.4-.74-.79-1.13-1.2l2.14-2.06 2.2 2.1a10.11 10.11 0 0 1-.79.71 1.54 1.54 0 0 0-.64 1.64 10.66 10.66 0 0 1 .08 1.08l1.89-1.17.61.69c-.69.71-1.36 1.42-2 2.1a1 1 0 0 0-.34.83c.06.66.07 1.32.11 2.08.77-.41 1.49-.78 2.19-1.19.13-.07.19-.28.23-.44.2-.78.41-1.56.56-2.35.09-.51.32-.65.78-.49l.34.07v2.06a2.59 2.59 0 0 0 2.23-2.83l3.07.75-.76 2.93c-.56-.14-1.06-.29-1.57-.37a1.26 1.26 0 0 0-.72.11c-.48.26-.92.57-1.43.9.54.27 1 .53 1.47.72.47.19.57.44.33.87-.06.1-.1.21-.17.35-1-.25-1.9-.53-2.85-.73a1.35 1.35 0 0 0-.86.13c-.6.33-1.16.72-1.8 1.12.75.47 1.45.92 2.17 1.34a.7.7 0 0 0 .45 0l2.32-.64c.67-.18.67-.18.91.49 0 .08 0 .16.09.28l-2 1c.57.36 1.08.7 1.61 1a.86.86 0 0 0 .55 0c.49-.12 1-.26 1.54-.41l.79 2.92-3 .78c-.15-.51-.26-1-.44-1.5a1.3 1.3 0 0 0-.47-.61c-.43-.28-.91-.5-1.43-.77v2.17l-.95.16a22.85 22.85 0 0 1-.6-2.37 1.66 1.66 0 0 0-1.12-1.41c-.44-.17-.84-.43-1.35-.69-.06.89-.13 1.71-.15 2.54 0 .12.16.26.27.37z" id="path129" style="fill:#fff"/><path class="cls-4" d="M103.14 135.37c-.56.85-.56.85-1.36.33l-1-.65h-.14c0 .57-.1 1.14-.11 1.71a.79.79 0 0 0 .22.49c.39.38.8.73 1.26 1.14l-2.25 2.11-2.21-2.11c.4-.37.76-.73 1.14-1.05a.92.92 0 0 0 .36-.82v-1.6l-2 1.14-.63-.78c.72-.66 1.4-1.31 2.12-1.93a1 1 0 0 0 .41-1 17.74 17.74 0 0 1 0-1.95c-.82.44-1.56.83-2.29 1.25-.09.05-.12.24-.16.37-.2.79-.43 1.59-.57 2.39-.1.53-.33.63-.79.47a2.19 2.19 0 0 0-.33-.06v-2.19c-.6.32-1.16.61-1.71.93-.1.06-.14.23-.18.36-.15.51-.29 1-.44 1.61l-3-.74.75-2.92c.55.13 1 .28 1.56.36a1.18 1.18 0 0 0 .72-.1c.48-.25.92-.57 1.44-.9l-2-1 .39-.96c1 .26 1.95.54 2.92.76a1.22 1.22 0 0 0 .77-.13c.59-.32 1.16-.71 1.82-1.13-.76-.45-1.45-.88-2.16-1.27a.73.73 0 0 0-.5 0c-.83.23-1.65.45-2.46.72-.38.12-.52 0-.66-.32s-.14-.55.25-.73c.39-.18 1-.52 1.54-.82-.59-.36-1.1-.69-1.64-1a.78.78 0 0 0-.5 0l-1.58.43-.84-2.89 2.94-.83c.16.53.29 1 .47 1.55a1.14 1.14 0 0 0 .44.53c.46.27.95.49 1.47.76v-2.16s.05 0 .09-.06c.84-.18.84-.18 1.06.67.18.67.38 1.35.54 2a.9.9 0 0 0 .57.67c.6.28 1.19.59 1.93 1v-2.5c0-.14-.17-.3-.29-.41a65.8 65.8 0 0 0-2.17-2v-.12c.55-.71.55-.71 1.32-.24l1.22.72v-1.92c0-.14-.16-.29-.27-.42-.37-.4-.74-.79-1.14-1.2l2.15-2.06 2.2 2.1c-.28.25-.51.51-.79.72a1.52 1.52 0 0 0-.64 1.63c.05.33.05.66.08 1.08l1.86-1.13.62.69c-.69.71-1.36 1.42-2.05 2.11a.93.93 0 0 0-.34.82c.05.66.07 1.33.1 2.09.78-.42 1.5-.79 2.2-1.2.13-.07.19-.28.23-.44.2-.78.41-1.56.55-2.35.1-.51.33-.64.79-.49l.34.08v2.09a2.6 2.6 0 0 0 2.23-2.83l3.06.75-.75 2.93c-.56-.13-1.06-.28-1.57-.37a1.31 1.31 0 0 0-.73.11c-.47.26-.91.57-1.42.9.54.27 1 .54 1.47.72.47.18.57.44.33.87-.06.1-.1.21-.17.35-1-.25-1.9-.52-2.85-.73a1.39 1.39 0 0 0-.87.13c-.6.33-1.16.72-1.79 1.12.75.47 1.45.92 2.17 1.34a.67.67 0 0 0 .44 0l2.33-.64c.67-.18.67-.18.91.49a2.55 2.55 0 0 1 .08.28l-2 1c.57.36 1.08.7 1.61 1a.93.93 0 0 0 .55 0c.49-.11 1-.26 1.54-.41l.79 2.92-3 .78c-.14-.51-.25-1-.43-1.5a1.36 1.36 0 0 0-.37-.61c-.44-.28-.91-.5-1.43-.77v2.19l-1 .16c-.2-.79-.47-1.57-.6-2.37a1.63 1.63 0 0 0-1.11-1.41c-.44-.17-.84-.43-1.36-.69-.05.89-.12 1.71-.15 2.54 0 .12.17.26.27.37z" id="path131" style="fill:#fff"/><path class="cls-4" d="M107.34 157.6c-.35.52-.35.52-.85.2l-.63-.41h-.09c0 .36-.06.71-.07 1.07a.49.49 0 0 0 .14.3c.24.24.5.46.79.72l-1.4 1.32-1.39-1.32c.25-.23.48-.46.71-.66a.57.57 0 0 0 .23-.51v-1l-1.23.72-.39-.49c.45-.42.87-.82 1.32-1.21a.65.65 0 0 0 .25-.61v-1.23l-1.39.78c-.06 0-.07.15-.1.24-.12.49-.27 1-.36 1.49 0 .33-.2.39-.48.29h-.21v-1.36c-.38.2-.73.38-1.07.58a.38.38 0 0 0-.11.22c-.1.33-.18.65-.28 1l-1.84-.46.46-1.83c.35.08.66.18 1 .23a.78.78 0 0 0 .45-.07c.29-.15.57-.35.9-.55l-1.25-.64.22-.58c.62.16 1.21.33 1.82.47a.74.74 0 0 0 .48-.08c.37-.2.72-.44 1.13-.7-.47-.29-.9-.56-1.34-.8a.48.48 0 0 0-.31 0c-.52.14-1 .28-1.54.45-.24.08-.33 0-.41-.2-.08-.2-.09-.35.16-.45.25-.1.61-.33 1-.52-.37-.22-.69-.43-1-.61a.47.47 0 0 0-.31 0l-1 .27-.52-1.81 1.83-.52c.1.34.18.66.3 1a.67.67 0 0 0 .27.33c.29.17.59.31.92.47v-1.34a.15.15 0 0 1 .06 0c.52-.11.52-.11.66.42s.23.84.33 1.26a.55.55 0 0 0 .36.42l1.21.6v-1.56c0-.09-.11-.18-.18-.25l-1.36-1.28v-.07c.35-.45.35-.45.83-.16l.76.46v-1.2c0-.09-.1-.19-.17-.26l-.71-.76 1.35-1.28 1.37 1.31c-.18.16-.32.32-.5.45a1 1 0 0 0-.4 1 5.93 5.93 0 0 1 .06.68l1.17-.74.38.43c-.43.45-.84.89-1.28 1.32a.59.59 0 0 0-.21.51c0 .42 0 .83.07 1.31l1.37-.75c.08 0 .12-.18.14-.28.13-.48.26-1 .35-1.46.06-.32.2-.41.49-.31l.21.05v1.3a1.6 1.6 0 0 0 1.39-1.76l1.92.47-.47 1.83c-.35-.09-.66-.18-1-.23a.73.73 0 0 0-.46.07 9.09 9.09 0 0 0-.88.56c.33.16.61.33.91.45.3.12.36.27.21.54a1.5 1.5 0 0 0-.11.22c-.6-.16-1.18-.33-1.78-.46a.78.78 0 0 0-.54.09c-.37.2-.72.44-1.12.69.47.29.91.58 1.36.84h.27l1.46-.4c.41-.12.41-.12.56.3 0 .05 0 .1.06.18l-1.23.64c.36.23.68.44 1 .62a.5.5 0 0 0 .34 0l1-.25.49 1.82-1.84.49c-.09-.32-.16-.63-.28-.94a.83.83 0 0 0-.43-.45c-.27-.18-.57-.31-.89-.48v1.37l-.6.1c-.13-.5-.29-1-.37-1.48a1 1 0 0 0-.7-.88c-.28-.11-.53-.27-.85-.43 0 .55-.07 1.07-.09 1.58 0 .08.1.16.17.23z" id="path133" style="fill:#fff"/><path class="cls-4" d="M102.64 174.44c-.27.41-.27.41-.66.16l-.5-.32h-.06c0 .28-.05.56-.06.84a.34.34 0 0 0 .11.23c.19.19.39.36.61.56l-1.09 1-1.08-1 .55-.51a.45.45 0 0 0 .18-.4v-.78l-1 .56-.3-.39c.35-.32.68-.64 1-.94a.47.47 0 0 0 .2-.48v-1l-1.11.61s-.07.12-.08.18c-.1.39-.21.78-.28 1.17-.07.39-.16.31-.39.23h-.16v-1.07c-.29.16-.57.3-.83.46-.05 0-.07.11-.09.17-.08.25-.14.51-.22.79l-1.44-.36.36-1.43c.27.06.52.14.77.18a.6.6 0 0 0 .35-.05c.23-.13.45-.28.7-.44l-1-.5.17-.45c.48.12.95.26 1.42.36a.62.62 0 0 0 .38-.05c.29-.16.56-.35.89-.56-.37-.22-.71-.43-1.06-.62h-.24c-.41.12-.81.23-1.21.36-.18.06-.25 0-.32-.16s-.07-.27.13-.36c.2-.09.47-.25.75-.4-.29-.17-.54-.33-.8-.47a.36.36 0 0 0-.25 0l-.77.21-.41-1.42 1.44-.4c.07.26.14.52.23.76a.53.53 0 0 0 .21.26c.22.13.46.24.72.37v-1.07c.41-.09.41-.09.52.32.11.41.19.66.26 1a.45.45 0 0 0 .28.33l.95.47v-1.22c0-.07-.08-.15-.14-.2l-1.06-1v-.06c.27-.34.27-.34.65-.12l.6.36v-.94c0-.07-.08-.15-.13-.21l-.56-.58 1.05-1 1.08 1c-.14.12-.25.25-.39.35a.74.74 0 0 0-.31.8v.52l.92-.57.3.34-1 1a.47.47 0 0 0-.17.4c0 .32 0 .65.05 1l1.08-.58a.38.38 0 0 0 .11-.22c.09-.38.2-.76.27-1.15.07-.39.16-.31.38-.24h.17v1a1.26 1.26 0 0 0 1.09-1.38l1.5.37-.37 1.43c-.28-.07-.52-.14-.77-.18a.6.6 0 0 0-.35 0c-.24.13-.45.28-.7.44a7.84 7.84 0 0 0 .72.35c.23.09.28.22.16.43a1.38 1.38 0 0 0-.08.17c-.47-.12-.93-.26-1.4-.36a.62.62 0 0 0-.42.07c-.29.16-.57.35-.88.55l1.06.65a.34.34 0 0 0 .22 0l1.14-.31c.32-.09.32-.09.44.23a.47.47 0 0 1 0 .14l-1 .51c.28.17.52.34.78.48a.42.42 0 0 0 .27 0l.76-.19.38 1.42-1.44.38c-.07-.25-.13-.49-.21-.73a.76.76 0 0 0-.23-.3c-.22-.14-.45-.24-.7-.38v1.07l-.47.08c-.1-.39-.23-.77-.29-1.16a.81.81 0 0 0-.55-.69 6.75 6.75 0 0 1-.66-.33c0 .43-.06.84-.07 1.24 0 .06.08.13.13.18z" id="path135" style="fill:#fff"/><path class="cls-4" d="M78.49 136.89c-.41.61-.4.6-1 .23l-.73-.47h-.1c0 .41-.07.82-.08 1.23a.52.52 0 0 0 .16.35c.28.28.58.53.9.83l-1.61 1.52-1.6-1.52c.29-.27.55-.53.82-.76a.64.64 0 0 0 .26-.59v-1.16l-1.42.83-.45-.57c.52-.47 1-.94 1.52-1.38a.74.74 0 0 0 .3-.72 13.07 13.07 0 0 1 0-1.41c-.59.32-1.13.6-1.65.9-.07 0-.09.17-.12.27-.14.57-.31 1.14-.41 1.73-.07.38-.24.45-.57.33h-.24v-1.58c-.43.23-.84.44-1.23.67-.07 0-.11.17-.13.26-.11.37-.21.75-.32 1.16l-2.13-.53.54-2.11c.39.1.75.2 1.12.26a.84.84 0 0 0 .52-.07c.35-.18.66-.41 1-.65l-1.44-.73.25-.68c.72.19 1.41.39 2.1.55a.84.84 0 0 0 .56-.09c.43-.24.84-.51 1.31-.82-.54-.32-1-.63-1.55-.92a.51.51 0 0 0-.36 0c-.6.16-1.2.32-1.78.52-.27.09-.37 0-.47-.23-.1-.23-.11-.4.18-.53s.7-.37 1.11-.59c-.43-.26-.8-.5-1.19-.71a.56.56 0 0 0-.36 0c-.37.09-.73.2-1.14.31l-.6-2.09 2.12-.6c.11.39.2.77.34 1.13a.8.8 0 0 0 .31.37c.33.2.69.36 1.06.55v-1.55a.12.12 0 0 1 .07 0c.61-.13.6-.13.77.48.17.61.27 1 .38 1.46a.7.7 0 0 0 .41.49c.44.19.86.42 1.4.69v-1.81a.57.57 0 0 0-.21-.29l-1.56-1.47a.2.2 0 0 1 0-.09c.41-.51.41-.51 1-.18l.88.53v-1.39c0-.1-.11-.21-.19-.3l-.82-.87 1.55-1.49 1.58 1.52c-.2.18-.37.37-.57.52a1.12 1.12 0 0 0-.46 1.18 7.78 7.78 0 0 1 .06.78l1.36-.85.44.5c-.5.51-1 1-1.48 1.52a.69.69 0 0 0-.24.59c0 .48.05 1 .07 1.51.56-.3 1.08-.57 1.59-.86.09-.05.13-.21.16-.32.15-.57.3-1.13.4-1.7.07-.36.23-.46.57-.35l.24.05v1.51a1.87 1.87 0 0 0 1.61-2l2.21.55-.54 2.11c-.4-.1-.77-.21-1.13-.27a1 1 0 0 0-.53.08c-.34.18-.66.41-1 .65.38.19.71.39 1.05.52.34.13.42.32.24.62l-.12.26c-.69-.18-1.37-.38-2.06-.53a1 1 0 0 0-.62.1c-.43.23-.84.52-1.29.81.54.33 1 .66 1.56 1 .08.05.22 0 .32 0l1.68-.45c.48-.14.48-.14.66.35 0 .05 0 .11.06.2l-1.42.74c.42.26.78.51 1.17.72a.58.58 0 0 0 .39 0c.36-.08.71-.18 1.12-.29l.57 2.11-2.13.56c-.11-.37-.19-.74-.32-1.09a1 1 0 0 0-.34-.44c-.31-.2-.66-.35-1-.55v1.58l-.69.12c-.15-.58-.34-1.14-.43-1.72a1.16 1.16 0 0 0-.81-1c-.31-.12-.6-.31-1-.5 0 .64-.09 1.24-.11 1.83 0 .09.12.19.19.27z" id="path137" style="fill:#fff"/><path class="cls-4" d="M79.25 112.01c-.29.44-.29.44-.71.17l-.54-.34h-.07c0 .3-.05.6-.06.9a.45.45 0 0 0 .12.26c.2.2.42.38.66.6l-1.18 1.11-1.13-1.12.6-.56a.47.47 0 0 0 .19-.43v-.84l-1 .6-.33-.41c.38-.35.74-.69 1.12-1a.53.53 0 0 0 .21-.52v-1c-.43.23-.82.44-1.2.66-.05 0-.07.12-.09.19-.1.42-.23.84-.3 1.27-.05.27-.18.33-.42.24h-.17v-1.16l-.9.5a.35.35 0 0 0-.1.19c-.08.27-.15.54-.23.85l-1.56-.4.4-1.54c.28.07.55.15.82.2a.63.63 0 0 0 .38-.06c.25-.13.48-.3.76-.47l-1.18-.63.19-.49c.52.14 1 .28 1.54.4a.57.57 0 0 0 .4-.07c.32-.17.61-.37 1-.59-.4-.24-.76-.47-1.13-.68a.51.51 0 0 0-.27 0c-.44.12-.87.24-1.3.38-.2.07-.27 0-.35-.17-.08-.17-.07-.29.14-.38.21-.09.51-.28.81-.44-.31-.19-.58-.36-.87-.51a.39.39 0 0 0-.26 0l-.83.23-.45-1.53 1.55-.43c.09.28.16.55.25.82a.67.67 0 0 0 .23.27 7.11 7.11 0 0 0 .78.4v-1.13h.05c.44-.1.44-.1.56.35.12.45.2.71.28 1.07a.47.47 0 0 0 .3.35l1 .51v-1.32c0-.08-.08-.16-.15-.22l-1.14-1.07a.15.15 0 0 1 0-.07c.29-.37.29-.37.7-.12l.64.38v-1a.54.54 0 0 0-.15-.23l-.59-.63 1.13-1.09 1.16 1.11c-.15.13-.27.27-.42.38a.81.81 0 0 0-.34.86c0 .17 0 .35.05.57l1-.62.32.37c-.36.37-.71.75-1.08 1.11a.5.5 0 0 0-.18.43c0 .35 0 .7.06 1.1.41-.22.79-.41 1.16-.63.06 0 .1-.15.12-.23.1-.41.21-.82.29-1.24.05-.27.17-.34.41-.26h.18v1.11a1.37 1.37 0 0 0 1.18-1.5l1.62.4-.4 1.55c-.3-.08-.56-.15-.83-.2a.63.63 0 0 0-.38.06c-.25.13-.48.3-.75.47a7.78 7.78 0 0 0 .77.38c.25.1.3.24.18.46a.67.67 0 0 0-.09.19c-.51-.14-1-.28-1.51-.39a.71.71 0 0 0-.45.07c-.32.17-.62.38-.95.59.39.25.77.49 1.15.71a.37.37 0 0 0 .23 0l1.23-.34c.35-.1.35-.1.48.26v.15l-1 .54c.3.19.57.37.85.52a.36.36 0 0 0 .29 0c.26-.05.51-.13.81-.21l.42 1.54-1.56.41c-.08-.27-.13-.53-.23-.79a.72.72 0 0 0-.25-.32c-.23-.15-.48-.26-.75-.41v1.16l-.51.08a11.4 11.4 0 0 1-.31-1.25.85.85 0 0 0-.59-.74c-.23-.09-.45-.23-.72-.37 0 .47-.06.91-.08 1.34 0 .07.09.14.15.2z" id="path139" style="fill:#fff"/><path class="cls-4" d="M102.14 106.52c-.46.68-.46.68-1.11.26l-.82-.53h-.11c0 .46-.08.92-.09 1.39a.59.59 0 0 0 .18.39c.31.31.65.6 1 .93l-1.82 1.71-1.79-1.71c.32-.3.61-.59.92-.85a.74.74 0 0 0 .29-.66v-1.31l-1.59.93-.51-.63c.58-.54 1.14-1.06 1.72-1.56a.86.86 0 0 0 .33-.81 13.71 13.71 0 0 1 0-1.59c-.66.36-1.26.68-1.85 1-.08 0-.1.19-.13.3-.16.65-.35 1.29-.47 1.94-.07.43-.26.51-.63.38a1.86 1.86 0 0 0-.27 0v-1.83c-.49.27-.94.5-1.39.76-.08.05-.12.19-.15.29-.12.42-.23.84-.35 1.31l-2.4-.6.61-2.37c.44.11.85.23 1.26.29a1 1 0 0 0 .59-.08c.38-.2.74-.46 1.16-.73l-1.61-.82.28-.76c.8.21 1.58.43 2.36.61a.9.9 0 0 0 .62-.1c.49-.26.95-.58 1.48-.91-.61-.37-1.17-.72-1.75-1-.1-.06-.27 0-.4 0-.67.19-1.34.37-2 .59-.3.1-.42 0-.53-.26-.11-.26-.12-.45.2-.59.32-.14.8-.42 1.25-.67-.48-.29-.9-.55-1.33-.79a.72.72 0 0 0-.41 0c-.41.1-.82.22-1.28.35l-.68-2.35 2.38-.67c.13.43.24.86.39 1.26a.9.9 0 0 0 .35.42c.37.23.77.41 1.19.62v-1.74s0-.05.08-.05c.68-.15.68-.15.86.54.14.54.3 1.09.43 1.64a.75.75 0 0 0 .47.55c.49.22 1 .48 1.56.78v-2c0-.11-.13-.23-.23-.33l-1.76-1.65a.56.56 0 0 1 0-.1c.45-.57.45-.57 1.07-.19l1 .58v-1.55a.71.71 0 0 0-.22-.34c-.3-.33-.61-.64-.93-1l1.75-1.67 1.78 1.7a8.19 8.19 0 0 1-.64.58 1.23 1.23 0 0 0-.52 1.33c0 .27 0 .54.07.88l1.52-1 .5.57c-.56.57-1.1 1.15-1.66 1.7a.8.8 0 0 0-.28.67c.05.54.06 1.08.09 1.69.63-.33 1.21-.63 1.78-1 .1-.06.15-.23.19-.36.16-.64.33-1.27.44-1.91.08-.41.27-.52.64-.4.08 0 .17 0 .28.07v1.69a2.08 2.08 0 0 0 1.8-2.29l2.49.61-.61 2.37c-.45-.11-.86-.23-1.27-.29a1 1 0 0 0-.59.09c-.39.2-.74.46-1.15.72a13 13 0 0 0 1.18.59c.38.15.47.36.27.7a2.73 2.73 0 0 0-.13.29c-.78-.21-1.55-.43-2.32-.6a1.21 1.21 0 0 0-.7.11c-.49.26-.94.59-1.45.91.6.38 1.17.74 1.76 1.09.08.05.24 0 .36 0l1.88-.52c.55-.15.55-.15.74.4l.07.23-1.59.83c.47.29.88.57 1.31.81a.73.73 0 0 0 .44 0c.4-.09.8-.21 1.25-.33l.65 2.37-2.4.63c-.12-.41-.21-.83-.35-1.22a1.11 1.11 0 0 0-.39-.49c-.35-.23-.74-.41-1.16-.63v1.78l-.77.13c-.17-.65-.38-1.28-.49-1.93a1.32 1.32 0 0 0-.9-1.14 9.56 9.56 0 0 1-1.1-.56c0 .72-.1 1.39-.12 2.06 0 .1.13.21.22.3.56.62 1.14 1.18 1.71 1.75z" id="path141" style="fill:#fff"/><path class="cls-4" d="M257.04 165.59c.56.84.56.84 1.36.32l1-.65h.14c0 .57.1 1.14.11 1.71a.76.76 0 0 1-.22.49c-.39.38-.8.73-1.26 1.14l2.24 2.11 2.22-2.1c-.4-.38-.76-.74-1.14-1.06a.88.88 0 0 1-.36-.81v-1.61l2 1.14.63-.78c-.72-.66-1.41-1.31-2.12-1.92a1 1 0 0 1-.41-1 18 18 0 0 0 0-2c.82.44 1.56.83 2.29 1.25.09.05.12.24.16.37.2.8.43 1.59.57 2.4.1.52.33.62.79.46a2.19 2.19 0 0 1 .33-.06v-2.19c.6.32 1.16.61 1.71.93a.72.72 0 0 1 .18.36c.15.52.28 1 .44 1.61l3-.74-.75-2.92c-.55.13-1.05.28-1.56.37a1.26 1.26 0 0 1-.72-.11c-.48-.25-.92-.57-1.44-.9l2-1-.34-.94c-1 .26-1.95.54-2.92.76a1.22 1.22 0 0 1-.77-.12c-.59-.33-1.16-.72-1.82-1.14.76-.45 1.45-.88 2.16-1.27a.73.73 0 0 1 .5 0c.82.23 1.65.45 2.46.72.37.13.52 0 .66-.32s.14-.55-.25-.72c-.39-.17-1-.52-1.55-.83.6-.36 1.11-.69 1.65-1a.78.78 0 0 1 .5 0c.51.12 1 .27 1.58.42l.84-2.89-2.94-.83c-.16.54-.29 1.06-.48 1.56a1 1 0 0 1-.43.52c-.46.28-.95.5-1.47.76v-2.15a.23.23 0 0 0-.09-.06c-.84-.18-.84-.18-1.06.66-.18.68-.38 1.35-.54 2a.9.9 0 0 1-.57.67c-.61.28-1.19.59-1.93 1v-2.51c0-.14.17-.29.29-.41.72-.69 1.45-1.36 2.17-2v-.12c-.56-.71-.55-.71-1.32-.24l-1.22.72v-1.91c0-.15.16-.3.27-.43.37-.4.74-.79 1.14-1.2l-2.15-2.06-2.2 2.1a8.59 8.59 0 0 0 .79.72 1.53 1.53 0 0 1 .64 1.64c-.05.32-.05.66-.08 1.08l-1.88-1.18-.62.69c.69.71 1.36 1.42 2 2.11a.93.93 0 0 1 .34.82c-.06.66-.07 1.33-.11 2.09-.77-.42-1.49-.79-2.19-1.19a.75.75 0 0 1-.23-.45c-.2-.78-.41-1.56-.55-2.35-.1-.5-.33-.64-.79-.49l-.34.08v2.09a2.6 2.6 0 0 1-2.23-2.83l-3.07.76.76 2.92c.56-.13 1.06-.28 1.57-.36a1.19 1.19 0 0 1 .72.11c.48.25.92.57 1.43.9-.54.26-1 .53-1.47.72-.47.19-.57.43-.33.86.06.1.1.22.17.35 1-.25 1.9-.52 2.85-.73a1.33 1.33 0 0 1 .87.14c.59.32 1.15.72 1.79 1.12-.75.46-1.45.91-2.17 1.33-.11.07-.3 0-.45 0l-2.32-.63c-.67-.19-.67-.19-.91.48 0 .08-.05.17-.09.28l2 1c-.57.37-1.08.71-1.61 1a.86.86 0 0 1-.55 0c-.49-.11-1-.25-1.54-.4l-.79 2.92 2.95.77c.15-.5.26-1 .44-1.5a1.42 1.42 0 0 1 .47-.61c.43-.28.91-.49 1.43-.77v2.19l.95.17a23 23 0 0 0 .6-2.38 1.66 1.66 0 0 1 1.12-1.41 13.37 13.37 0 0 0 1.35-.69c.06.89.13 1.72.16 2.54 0 .12-.17.26-.28.37-.75.77-1.46 1.47-2.16 2.17z" id="path143" style="fill:#fff"/><path class="cls-4" d="M238.99 134.97c.56.84.56.84 1.36.32l1-.65h.13c0 .57.1 1.14.11 1.71a.76.76 0 0 1-.22.49c-.39.38-.8.73-1.26 1.14l2.23 2.09 2.21-2.1c-.4-.38-.76-.73-1.14-1.06a.91.91 0 0 1-.36-.81v-1.61l2 1.15.63-.79c-.72-.66-1.4-1.31-2.11-1.92a1 1 0 0 1-.41-1c.06-.61 0-1.23 0-2 .82.44 1.56.83 2.29 1.25.09.06.13.24.16.37.2.8.43 1.59.58 2.4.09.52.32.63.78.47a1.47 1.47 0 0 1 .33-.07v-2.19c.6.32 1.16.62 1.71.94.1.05.15.22.18.35.15.52.29 1 .44 1.61l3-.74-.75-2.92c-.55.13-1 .28-1.56.37a1.26 1.26 0 0 1-.72-.11c-.48-.25-.92-.56-1.44-.89l2-1-.35-.94c-1 .27-1.95.54-2.92.76a1.22 1.22 0 0 1-.77-.12c-.59-.33-1.16-.72-1.82-1.13.76-.46 1.45-.89 2.16-1.28.12-.07.34 0 .5 0 .83.23 1.65.45 2.47.72.37.13.51 0 .65-.32s.14-.55-.25-.72c-.39-.17-1-.52-1.54-.83.59-.36 1.1-.69 1.64-1a.78.78 0 0 1 .5 0c.51.12 1 .27 1.58.43l.84-2.9-2.94-.83c-.16.54-.29 1.06-.47 1.56a1.12 1.12 0 0 1-.44.52c-.46.28-.95.5-1.46.76v-2.15a.44.44 0 0 0-.1-.06c-.84-.18-.84-.18-1.06.66-.18.68-.38 1.35-.54 2a.94.94 0 0 1-.57.68c-.6.27-1.19.58-1.93 1v-2.51c0-.14.17-.29.29-.41l2.17-2a.31.31 0 0 0 0-.13c-.55-.71-.55-.7-1.32-.24l-1.22.72v-1.91c0-.15.16-.3.27-.42.37-.41.74-.79 1.14-1.21l-2.15-2.06-2.2 2.1a8.59 8.59 0 0 0 .79.72 1.52 1.52 0 0 1 .64 1.64c-.05.32-.05.66-.08 1.08l-1.88-1.18-.61.69c.68.72 1.35 1.43 2 2.11a.93.93 0 0 1 .34.82c-.05.67-.07 1.33-.1 2.09-.78-.42-1.5-.79-2.2-1.19a.78.78 0 0 1-.23-.45c-.2-.78-.41-1.56-.55-2.35-.09-.5-.32-.64-.79-.49a2.14 2.14 0 0 1-.34.08v2.19a2.59 2.59 0 0 1-2.23-2.83l-3.06.76.75 2.92c.56-.13 1.06-.28 1.57-.36a1.22 1.22 0 0 1 .73.11c.47.25.91.57 1.42.9-.53.26-1 .53-1.47.72-.47.19-.57.44-.33.86a3.08 3.08 0 0 1 .17.36c1-.26 1.9-.53 2.85-.74a1.39 1.39 0 0 1 .87.14c.6.32 1.16.72 1.79 1.12-.75.46-1.45.91-2.17 1.33a.61.61 0 0 1-.44 0c-.78-.2-1.55-.42-2.33-.63-.78-.21-.67-.19-.91.48a2.81 2.81 0 0 0-.08.29l2 1c-.58.36-1.08.7-1.61 1a.89.89 0 0 1-.56 0c-.49-.11-1-.25-1.54-.4l-.79 2.92 3 .78c.14-.51.25-1 .43-1.51a1.42 1.42 0 0 1 .47-.61c.44-.28.91-.49 1.43-.77v2.16l1 .17c.2-.8.47-1.58.6-2.38a1.63 1.63 0 0 1 1.12-1.41c.43-.17.83-.42 1.35-.69.05.89.12 1.72.15 2.55 0 .11-.16.25-.27.36z" id="path145" style="fill:#fff"/><path class="cls-4" d="M234.77 157.19c.35.53.35.53.85.2l.63-.4h.09c0 .35.06.71.07 1.06a.52.52 0 0 1-.14.31c-.24.24-.5.46-.78.71l1.4 1.32 1.38-1.31c-.25-.24-.47-.46-.71-.66a.57.57 0 0 1-.23-.51v-1l1.23.72.4-.49c-.45-.41-.88-.82-1.33-1.2a.65.65 0 0 1-.29-.67v-1.22l1.43.78c.06 0 .08.15.1.23.12.5.27 1 .36 1.5.06.32.2.39.49.29h.2v-1.38c.38.2.73.38 1.07.58a.41.41 0 0 1 .11.23c.1.32.18.65.28 1l1.85-.46-.47-1.82c-.35.08-.66.17-1 .22a.7.7 0 0 1-.45-.06c-.29-.16-.57-.35-.9-.56l1.25-.64-.22-.58c-.62.16-1.21.33-1.82.47a.73.73 0 0 1-.48-.07c-.37-.21-.72-.45-1.13-.71.47-.28.9-.55 1.34-.8a.51.51 0 0 1 .32 0c.51.15 1 .29 1.53.45.24.08.33 0 .41-.2.08-.2.09-.34-.15-.45-.24-.11-.62-.33-1-.52.37-.22.69-.42 1-.6a.47.47 0 0 1 .31 0l1 .27.52-1.81-1.83-.52c-.1.34-.18.66-.3 1a.7.7 0 0 1-.27.32c-.29.18-.59.31-.92.48v-1.35a.1.1 0 0 0-.06 0c-.52-.12-.52-.12-.66.41s-.23.84-.33 1.27a.57.57 0 0 1-.36.42c-.38.17-.74.37-1.21.6v-1.57c0-.08.11-.18.18-.25l1.36-1.27v-.08c-.35-.44-.35-.44-.83-.15l-.76.45v-1.2c0-.09.1-.18.17-.26l.71-.75-1.34-1.29-1.38 1.31a5.07 5.07 0 0 0 .5.45 1 1 0 0 1 .4 1 4.36 4.36 0 0 0-.05.67l-1.18-.74-.38.44c.43.44.84.88 1.28 1.31a.6.6 0 0 1 .21.52c0 .41 0 .83-.07 1.3-.48-.26-.93-.49-1.37-.75-.08 0-.12-.17-.14-.27-.13-.49-.26-1-.35-1.47-.06-.32-.2-.4-.49-.31l-.21.05v1.31a1.62 1.62 0 0 1-1.39-1.77l-1.92.47.47 1.83c.35-.08.67-.18 1-.23a.78.78 0 0 1 .45.07c.29.16.57.36.89.56-.34.17-.62.33-.92.45-.3.12-.36.28-.21.54 0 .07.07.14.11.22.6-.16 1.18-.33 1.78-.46a.91.91 0 0 1 .54.09c.37.2.72.45 1.12.7-.47.29-.91.57-1.36.83h-.27l-1.46-.4c-.41-.11-.41-.11-.56.31 0 .05 0 .1-.06.17l1.23.65c-.36.22-.68.43-1 .62a.56.56 0 0 1-.34 0l-1-.25-.49 1.82 1.85.48c.08-.31.16-.63.27-.93a.74.74 0 0 1 .29-.38c.27-.18.57-.31.89-.49v1.37l.6.1a12.81 12.81 0 0 0 .37-1.48 1 1 0 0 1 .7-.88 6.8 6.8 0 0 0 .85-.43c0 .56.07 1.07.09 1.59 0 .07-.1.16-.17.23z" id="path147" style="fill:#fff"/><path class="cls-4" d="M239.49 174.03c.27.42.27.41.66.16l.5-.32h.06c0 .28.05.56.06.84a.38.38 0 0 1-.11.24l-.61.56 1.09 1 1.08-1c-.19-.18-.37-.36-.55-.52a.44.44 0 0 1-.18-.4v-.78l1 .56.3-.38-1-.94a.49.49 0 0 1-.2-.49v-1c.4.22.76.41 1.12.62 0 0 .06.11.07.18.1.39.21.77.28 1.17.07.4.17.31.39.23a.65.65 0 0 1 .16 0v-1.07l.83.45a.26.26 0 0 1 .09.18c.08.25.14.5.22.78l1.44-.36-.36-1.43c-.27.07-.51.14-.76.18a.62.62 0 0 1-.36-.05c-.23-.12-.45-.28-.7-.44l1-.49-.17-.46c-.49.13-1 .26-1.43.37a.63.63 0 0 1-.38-.06c-.29-.16-.56-.35-.88-.55.36-.23.7-.44 1.05-.63a.4.4 0 0 1 .24 0c.41.11.81.22 1.21.35.18.06.25 0 .32-.16s.07-.27-.13-.35c-.2-.08-.47-.26-.75-.4.29-.18.54-.34.8-.48a.43.43 0 0 1 .25 0l.77.21.41-1.41-1.43-.41c-.08.27-.15.52-.24.76a.49.49 0 0 1-.21.26c-.22.13-.46.24-.72.37v-1.05c-.41-.09-.41-.09-.52.32-.11.41-.19.66-.26 1a.47.47 0 0 1-.28.33c-.3.13-.58.28-.95.47v-1.23c0-.07.08-.14.14-.2l1.06-1v-.06c-.27-.35-.27-.35-.65-.12l-.6.35v-.94c0-.07.08-.14.13-.2s.37-.39.56-.59l-1.05-1-1.08 1c.14.12.25.25.39.35a.74.74 0 0 1 .31.8v.53l-.92-.58-.3.34c.34.35.67.7 1 1a.5.5 0 0 1 .16.4c0 .33 0 .65-.05 1-.38-.2-.73-.38-1.08-.58-.06 0-.09-.14-.11-.22-.09-.38-.2-.76-.27-1.14-.07-.38-.15-.32-.38-.24h-.17v1a1.27 1.27 0 0 1-1.09-1.39l-1.5.37.37 1.43c.28-.06.52-.14.77-.18a.63.63 0 0 1 .36.06c.23.12.44.28.69.44a7.84 7.84 0 0 1-.72.35c-.23.09-.27.21-.16.42 0 .05.05.11.08.17.47-.12.93-.25 1.4-.35a.68.68 0 0 1 .42.06c.29.16.57.35.88.55-.37.23-.71.45-1.06.65a.34.34 0 0 1-.22 0l-1.14-.31c-.32-.09-.32-.09-.44.24a.47.47 0 0 0 0 .14l.95.5c-.28.18-.52.34-.78.49a.49.49 0 0 1-.27 0l-.76-.2-.38 1.43 1.44.38c.07-.25.13-.5.22-.74a.68.68 0 0 1 .23-.3c.21-.13.44-.24.69-.37v1.07l.47.08c.1-.39.23-.77.29-1.16a.81.81 0 0 1 .55-.69 7 7 0 0 0 .66-.34c0 .44.06.84.07 1.24 0 .06-.07.13-.13.18z" id="path149" style="fill:#fff"/><path class="cls-4" d="M263.64 136.48c.41.61.41.61 1 .23l.7-.44h.1c0 .41.07.82.08 1.24a.56.56 0 0 1-.16.35c-.28.27-.58.53-.9.82l1.61 1.52 1.6-1.52c-.29-.27-.55-.52-.82-.76a.63.63 0 0 1-.26-.58v-1.16l1.42.82.45-.56c-.52-.48-1-.95-1.52-1.39a.75.75 0 0 1-.3-.72 13 13 0 0 0 0-1.41c.59.32 1.13.6 1.66.91.06 0 .09.17.11.26.14.58.31 1.15.42 1.73.06.38.23.45.56.34a1.44 1.44 0 0 1 .24-.05v-1.58c.43.24.84.45 1.23.68a.4.4 0 0 1 .13.25c.11.38.21.75.32 1.17l2.13-.54-.54-2.11c-.39.1-.75.21-1.12.27a.92.92 0 0 1-.52-.08c-.34-.18-.66-.41-1-.64l1.44-.74-.25-.67c-.72.19-1.4.38-2.1.54a.9.9 0 0 1-.56-.08c-.43-.24-.83-.52-1.31-.82.54-.33 1-.64 1.55-.92a.6.6 0 0 1 .37 0c.59.17 1.19.33 1.77.52.27.09.38 0 .48-.23.1-.23.1-.4-.19-.52-.29-.12-.7-.38-1.11-.6.43-.26.8-.49 1.19-.7a.56.56 0 0 1 .36 0c.37.08.73.19 1.14.3l.61-2.08-2.13-.6c-.11.39-.2.76-.34 1.12a.77.77 0 0 1-.31.38c-.33.2-.69.36-1.06.55v-1.56h-.07c-.6-.13-.6-.13-.77.48-.17.61-.27 1-.38 1.46a.66.66 0 0 1-.41.49c-.44.2-.86.42-1.4.69v-1.8a.55.55 0 0 1 .21-.3c.52-.5 1.05-1 1.57-1.47a.64.64 0 0 0 0-.09c-.4-.51-.4-.51-1-.17l-.88.52v-1.38c0-.11.11-.22.2-.31.26-.29.53-.57.81-.87l-1.55-1.48-1.58 1.51a5.37 5.37 0 0 0 .57.52 1.1 1.1 0 0 1 .46 1.18c0 .24 0 .48-.06.78l-1.36-.85-.44.5c.5.52 1 1 1.48 1.52a.65.65 0 0 1 .24.6c0 .47-.05.95-.07 1.5-.56-.3-1.08-.57-1.59-.86-.09 0-.13-.2-.16-.32-.15-.56-.3-1.12-.4-1.69-.07-.37-.23-.47-.57-.36a1.2 1.2 0 0 1-.24.06v1.51a1.88 1.88 0 0 1-1.61-2.05l-2.21.55.54 2.11c.41-.1.77-.2 1.14-.26a.86.86 0 0 1 .52.08c.34.18.66.41 1 .64a10.16 10.16 0 0 1-1.05.52c-.34.14-.41.32-.24.63 0 .07.07.15.12.25.69-.18 1.37-.38 2.06-.53a1 1 0 0 1 .62.1c.43.24.84.52 1.29.81-.53.34-1 .66-1.56 1a.44.44 0 0 1-.32 0l-1.68-.46c-.48-.13-.48-.13-.66.35 0 .06 0 .12-.06.2l1.42.75c-.42.26-.78.5-1.17.71a.64.64 0 0 1-.39 0l-1.12-.3-.57 2.11 2.14.56c.1-.36.18-.73.31-1.08a.93.93 0 0 1 .34-.44c.31-.21.66-.36 1-.56v1.58l.69.12c.15-.57.34-1.14.43-1.71a1.19 1.19 0 0 1 .81-1c.31-.12.6-.31 1-.5 0 .64.09 1.24.11 1.84 0 .08-.11.18-.19.26z" id="path151" style="fill:#fff"/><path class="cls-4" d="M262.88 111.6c.29.45.29.45.71.17l.54-.34h.07c0 .3.05.6.06.9a.37.37 0 0 1-.12.26c-.2.2-.42.39-.66.6l1.18 1.12 1.17-1.11c-.21-.2-.4-.39-.6-.56a.49.49 0 0 1-.19-.43v-.85l1 .61.33-.42c-.38-.35-.74-.69-1.11-1a.54.54 0 0 1-.22-.53 8.65 8.65 0 0 0 0-1l1.21.66s.06.13.08.2c.1.42.23.84.3 1.26.07.42.18.33.42.25h.17v-1.15c.32.17.61.32.9.49a.35.35 0 0 1 .1.19c.08.27.15.55.23.85l1.56-.39-.4-1.54c-.28.07-.55.15-.82.19a.71.71 0 0 1-.38-.05c-.25-.14-.48-.3-.76-.48l1.06-.53-.19-.5c-.52.14-1 .29-1.54.4a.62.62 0 0 1-.4-.06c-.32-.17-.61-.38-1-.6.4-.24.76-.47 1.14-.67h.26c.44.12.87.24 1.3.39.2.06.27 0 .35-.17.08-.17.07-.3-.14-.39-.21-.09-.51-.27-.81-.43.31-.19.58-.36.87-.52a.46.46 0 0 1 .26 0c.27.06.53.14.83.22l.45-1.52-1.55-.44c-.09.28-.15.56-.25.82a.58.58 0 0 1-.23.28c-.24.14-.5.26-.78.4v-1.21c-.44-.09-.44-.09-.56.35-.12.44-.2.71-.28 1.07a.48.48 0 0 1-.3.36c-.32.14-.63.31-1 .5v-1.32c0-.07.09-.15.15-.21l1.14-1.08v-.06c-.29-.38-.29-.38-.7-.13l-.64.38v-1a.46.46 0 0 1 .15-.22l.6-.64-1.14-1.08-1.16 1.1a3.61 3.61 0 0 0 .42.38.83.83 0 0 1 .34.87c0 .17 0 .34-.05.57l-1-.62-.32.36c.36.38.71.75 1.08 1.11a.52.52 0 0 1 .18.44c0 .35 0 .7-.06 1.1l-1.16-.63a.42.42 0 0 1-.12-.24c-.1-.41-.21-.82-.29-1.24-.05-.26-.17-.34-.41-.25h-.18v1.1a1.37 1.37 0 0 1-1.18-1.49l-1.62.4.4 1.54c.3-.07.56-.15.83-.19a.71.71 0 0 1 .38.05c.25.14.48.31.75.48-.28.14-.52.28-.77.38-.25.1-.3.23-.17.45 0 .06.05.12.08.19.51-.13 1-.28 1.51-.39a.7.7 0 0 1 .45.08c.32.17.62.37.95.59-.39.24-.76.48-1.14.7h-.24l-1.23-.34c-.35-.09-.35-.09-.48.26v.15l1 .54c-.3.19-.57.37-.85.53a.48.48 0 0 1-.29 0l-.81-.21-.42 1.54 1.56.41c.08-.27.14-.54.23-.8a.72.72 0 0 1 .25-.32c.23-.15.48-.26.75-.4v1.18l.51.09a11 11 0 0 0 .31-1.26.88.88 0 0 1 .59-.74 8 8 0 0 0 .72-.36c0 .47.06.9.08 1.34 0 .06-.09.13-.15.19q-.53.53-1.09 1.07z" id="path153" style="fill:#fff"/><path class="cls-4" d="M240 106.11c.45.69.45.69 1.1.27l.82-.53h.11c0 .47.08.93.09 1.39a.64.64 0 0 1-.18.4c-.31.31-.65.59-1 .92l1.8 1.71 1.8-1.71c-.33-.31-.62-.6-.93-.86a.73.73 0 0 1-.29-.66v-1.3l1.59.93.51-.64c-.58-.54-1.14-1.06-1.72-1.56a.84.84 0 0 1-.33-.8 13.78 13.78 0 0 0 0-1.59c.66.36 1.26.67 1.85 1 .08.05.1.2.13.3.16.65.35 1.29.47 1.95.07.42.26.51.63.38a1.81 1.81 0 0 1 .27-.06v-1.77c.49.26.94.5 1.39.76.08 0 .12.18.15.28.12.42.23.85.35 1.31l2.4-.6-.61-2.37c-.44.11-.85.23-1.26.3a1 1 0 0 1-.59-.09c-.38-.2-.74-.46-1.16-.72l1.62-.83-.29-.76c-.8.22-1.58.44-2.36.62a1 1 0 0 1-.62-.1c-.49-.27-.95-.58-1.48-.92.61-.37 1.17-.72 1.75-1a.63.63 0 0 1 .4 0c.67.19 1.34.37 2 .59.3.1.42 0 .53-.26.11-.26.12-.45-.2-.59-.32-.14-.8-.43-1.25-.67.48-.29.9-.56 1.33-.79a.64.64 0 0 1 .41 0l1.28.35.68-2.35-2.38-.67c-.13.44-.24.86-.39 1.26a.87.87 0 0 1-.35.43c-.37.22-.77.4-1.19.62v-1.75a.18.18 0 0 0-.08 0c-.68-.15-.68-.14-.86.54-.18.68-.3 1.09-.43 1.64a.73.73 0 0 1-.47.55c-.49.22-1 .48-1.56.78v-2c0-.11.13-.24.23-.33l1.76-1.65a.56.56 0 0 0 0-.1c-.45-.58-.45-.58-1.07-.2l-1 .59v-1.56c0-.12.12-.24.22-.34.29-.32.6-.64.92-1l-1.75-1.67-1.78 1.71c.23.2.42.42.64.58a1.23 1.23 0 0 1 .52 1.33c0 .26 0 .53-.07.87l-1.52-.95-.5.56c.56.58 1.1 1.15 1.66 1.71a.77.77 0 0 1 .28.67c-.05.53-.06 1.07-.09 1.69-.63-.34-1.21-.64-1.78-1-.1-.06-.15-.23-.19-.36-.16-.63-.33-1.26-.44-1.9-.08-.41-.26-.53-.64-.4l-.27.06v1.7a2.09 2.09 0 0 1-1.81-2.3l-2.49.62.61 2.37c.45-.11.86-.23 1.28-.3a1 1 0 0 1 .58.09c.39.21.74.46 1.16.73-.44.22-.8.43-1.19.58-.39.15-.46.36-.27.7.05.09.08.18.13.29.78-.2 1.55-.43 2.32-.59a1.07 1.07 0 0 1 .7.11c.49.26.94.58 1.45.91-.6.37-1.17.74-1.76 1.08-.08.05-.24 0-.36 0-.63-.16-1.25-.34-1.88-.51-.63-.17-.55-.15-.74.39l-.07.23 1.59.83c-.47.3-.88.57-1.31.81a.73.73 0 0 1-.44 0c-.4-.09-.8-.2-1.25-.32l-.65 2.36 2.4.63c.12-.41.21-.82.36-1.21a1.05 1.05 0 0 1 .38-.5c.35-.23.74-.4 1.16-.62v1.77l.77.14c.17-.65.38-1.28.49-1.93a1.32 1.32 0 0 1 .9-1.14c.36-.14.68-.35 1.1-.56 0 .72.1 1.39.12 2.06 0 .1-.13.21-.22.3z" id="path155" style="fill:#fff"/><path class="cls-4" d="M269.95 94.6c.65 1 .65 1 1.56.37.39-.26.79-.5 1.18-.75h.15c.05.66.12 1.31.13 2a.81.81 0 0 1-.25.56c-.45.45-.93.85-1.45 1.32l2.59 2.44 2.55-2.43c-.46-.43-.87-.85-1.31-1.22a1 1 0 0 1-.42-.94V94.1l2.27 1.32.73-.91c-.84-.76-1.63-1.51-2.45-2.22a1.19 1.19 0 0 1-.47-1.14 20.93 20.93 0 0 0 0-2.26c.94.5 1.8 1 2.64 1.44.11.06.14.28.18.43.23.92.5 1.83.67 2.76.11.61.38.73.9.54l.38-.07v-2.53c.7.38 1.35.71 2 1.08a.73.73 0 0 1 .21.41c.17.6.33 1.2.51 1.87l3.41-.86-.87-3.38c-.63.16-1.2.33-1.79.43a1.51 1.51 0 0 1-.84-.12c-.55-.29-1.06-.66-1.66-1l2.31-1.17-.41-1.08c-1.14.3-2.24.62-3.36.87a1.38 1.38 0 0 1-.89-.14c-.69-.38-1.34-.83-2.1-1.31.87-.52 1.67-1 2.49-1.47a.9.9 0 0 1 .58 0c.95.27 1.91.53 2.84.84.43.14.6 0 .76-.37.16-.37.16-.64-.29-.84-.45-.2-1.13-.6-1.78-.95.68-.42 1.28-.8 1.89-1.13a1 1 0 0 1 .59 0l1.82.5 1-3.34-3.4-1c-.18.62-.33 1.22-.55 1.8a1.25 1.25 0 0 1-.49.6c-.53.32-1.1.57-1.7.88v-2.49s-.06-.06-.11-.07c-1-.21-1-.2-1.23.77-.2.78-.43 1.56-.61 2.34a1.07 1.07 0 0 1-.66.78c-.7.32-1.38.68-2.23 1.11v-2.89c0-.16.19-.34.33-.47.84-.8 1.68-1.58 2.51-2.36v-.14c-.64-.82-.64-.81-1.53-.28l-1.41.84v-2.21c0-.17.19-.35.32-.49.42-.47.85-.91 1.31-1.39l-2.51-2.36-2.54 2.42a9.78 9.78 0 0 0 .91.83 1.77 1.77 0 0 1 .74 1.89c-.06.38-.06.77-.09 1.25l-2.18-1.39-.7.8c.79.82 1.56 1.64 2.36 2.43a1.1 1.1 0 0 1 .39 1c-.06.76-.08 1.53-.12 2.4-.9-.48-1.73-.9-2.54-1.37a.86.86 0 0 1-.26-.52c-.23-.9-.47-1.8-.64-2.71-.11-.58-.37-.74-.91-.57a2.53 2.53 0 0 1-.39.09v2.42a3 3 0 0 1-2.57-3.27l-3.54.88.87 3.37c.64-.15 1.22-.32 1.81-.42a1.43 1.43 0 0 1 .84.13c.55.29 1.05.66 1.64 1-.62.31-1.13.62-1.69.84-.56.22-.66.5-.38 1a4 4 0 0 1 .19.41c1.11-.29 2.19-.6 3.29-.84a1.57 1.57 0 0 1 1 .15c.69.38 1.34.83 2.07 1.3-.86.53-1.67 1.05-2.5 1.54a.85.85 0 0 1-.52 0l-2.68-.74c-.77-.21-.77-.21-1.05.56l-.1.33 2.26 1.19c-.66.42-1.24.81-1.86 1.15a1 1 0 0 1-.63 0c-.57-.13-1.13-.3-1.78-.47l-.92 3.37 3.42.9c.16-.58.29-1.17.5-1.73a1.59 1.59 0 0 1 .54-.71c.5-.32 1.05-.57 1.65-.89v2.53l1.1.19c.24-.92.55-1.82.7-2.74a1.89 1.89 0 0 1 1.29-1.63 15.55 15.55 0 0 0 1.56-.8c.07 1 .14 2 .17 2.94 0 .14-.18.3-.31.42z" id="path157" style="fill:#fff"/><path class="cls-4" d="M72.21 91.44c.67 1 .66 1 1.61.39l1.21-.77a.45.45 0 0 1 .16 0c.05.68.12 1.36.13 2a.91.91 0 0 1-.26.58c-.46.45-.95.87-1.49 1.35l2.66 2.52L78.86 95c-.47-.45-.89-.87-1.35-1.26a1.05 1.05 0 0 1-.43-1v-1.91l2.34 1.36.75-.93c-.86-.79-1.68-1.56-2.52-2.29a1.22 1.22 0 0 1-.49-1.18 22.23 22.23 0 0 0 0-2.33c1 .53 1.86 1 2.72 1.49.11.07.15.29.19.44.24.95.52 1.89.69 2.85.11.63.39.75.93.56a3 3 0 0 1 .39-.08v-2.6c.71.38 1.38.73 2 1.11a.71.71 0 0 1 .22.42c.18.62.34 1.24.52 1.92l3.52-.88-.89-3.48c-.65.16-1.25.34-1.85.44a1.48 1.48 0 0 1-.86-.13c-.57-.3-1.09-.67-1.71-1.06l2.37-1.21-.41-1.11c-1.18.31-2.32.63-3.47.89a1.37 1.37 0 0 1-.91-.14c-.71-.39-1.38-.85-2.17-1.35.9-.53 1.72-1.05 2.56-1.51a.9.9 0 0 1 .6 0c1 .28 2 .54 2.93.86.44.15.61 0 .78-.38.17-.38.17-.65-.3-.86-.47-.21-1.17-.62-1.83-1 .7-.43 1.31-.82 1.95-1.16a1 1 0 0 1 .6 0c.6.15 1.2.32 1.87.51l1-3.44-3.5-1c-.19.64-.34 1.26-.57 1.85a1.29 1.29 0 0 1-.51.62c-.55.33-1.13.6-1.75.91v-2.56a.26.26 0 0 0-.11-.07c-1-.22-1-.22-1.26.79-.22.8-.45 1.6-.64 2.41a1.08 1.08 0 0 1-.68.8c-.72.33-1.41.7-2.29 1.14v-3c0-.16.2-.34.34-.48.86-.82 1.73-1.63 2.58-2.42a.38.38 0 0 0 0-.15c-.66-.84-.66-.84-1.57-.29l-1.46.86v-2.28c0-.17.19-.35.32-.5l1.35-1.43-2.51-2.31-2.61 2.5a10.37 10.37 0 0 0 .93.85 1.82 1.82 0 0 1 .77 2 11.31 11.31 0 0 0-.1 1.28l-2.24-1.39-.73.82c.82.84 1.61 1.69 2.44 2.5a1.13 1.13 0 0 1 .4 1c-.07.79-.08 1.58-.13 2.48-.92-.49-1.78-.93-2.61-1.42-.15-.08-.22-.33-.27-.52-.24-.93-.49-1.86-.66-2.8-.11-.6-.38-.76-.93-.58a3 3 0 0 1-.4.09v2.49a3.07 3.07 0 0 1-2.65-3.37l-3.65.9.9 3.48c.66-.16 1.26-.34 1.86-.43a1.41 1.41 0 0 1 .86.13c.57.3 1.09.68 1.7 1.07-.64.31-1.17.63-1.75.85-.58.22-.67.52-.39 1 .07.12.12.26.2.42 1.14-.3 2.26-.62 3.39-.87a1.61 1.61 0 0 1 1 .16c.71.38 1.38.86 2.13 1.33-.89.56-1.72 1.09-2.58 1.59-.13.08-.36 0-.53 0l-2.76-.76c-.8-.22-.8-.22-1.08.58a2.71 2.71 0 0 0-.1.33l2.32 1.23c-.68.43-1.28.83-1.91 1.18a1 1 0 0 1-.65 0c-.59-.13-1.17-.3-1.84-.48l-.94 3.47 3.51.93c.17-.6.31-1.21.52-1.79a1.66 1.66 0 0 1 .56-.72c.52-.34 1.09-.59 1.7-.92v2.61l1.14.19c.24-.95.56-1.87.71-2.82a2 2 0 0 1 1.33-1.68 16.43 16.43 0 0 0 1.61-.82c.07 1.06.14 2 .18 3 0 .15-.2.31-.33.44-.77.8-1.62 1.64-2.45 2.46z" id="path159" style="fill:#fff"/><path class="cls-1" d="M69.87 251.16h67.72c-53.53-12.88-56.77-72.06-56.77-72.06l-11.36-.8" id="path161" style="fill:#dcdbdb"/><path class="cls-1" d="M273.97 251.16h-67.73c53.53-12.88 56.78-72.06 56.78-72.06l11.32-.83" id="path163" style="fill:#dcdbdb"/><path class="cls-3" d="M59.97 212.38s31.51 19.53 40 47.5l-36.81.74" id="path165" style="fill:#36296d"/><path class="cls-3" d="M285.8 212.38s-31.5 19.53-39.95 47.5l36.81.74" id="path167" style="fill:#36296d"/><path d="m165.85 104.89 9.06-2c1.15-.19 2.2-2.3 3.26-2.84 3.27-1.65 7.31-.62 10.78-.7 5.93-.14 11.32-3.39 17.12-4.61a13 13 0 0 1 6.79.1c3.38 1.12 5.24 4.18 6.66 7.24-1.9 6.19-2.75 4.21-8.24 6.84-1.1.53-2.08 1.26-3.16 1.82a12.19 12.19 0 0 1-8.89.93 57.93 57.93 0 0 1-5.92-2.54c-2.91-1.21-5.65-.62-8.66-1l-12.17-1.22-6.63-2" id="path169" style="fill:#fff;stroke:#fff;stroke-width:4.05999994px;stroke-miterlimit:10"/><path class="cls-6" d="M222.08 103.68v-1.09c-3.78-13.78-15.14-11.62-22.17-8.65-7.03 2.97-9.73 2.44-15.68 2.44-5.95 0-9.19 2.16-10.81 3.78-1.62 1.62-7 1.62-7 1.62s-2.71-.81-2.71 2.71" id="path171" style="fill:none;stroke:#dcdbdb;stroke-width:3.24000001px;stroke-miterlimit:10"/><path class="cls-4" d="M196 266.85a2.78 2.78 0 0 1-1.76 0c-1.69-.94-3.3-2-5.15-3.19l6.25-3.29c-.12-.38-.18-.65-.27-.9-.77-2.15-.77-2.15-2.91-1.56-2.48.68-5 1.38-7.44 2a2.13 2.13 0 0 1-1.42.06c-1.57-.92-3.12-1.88-4.71-2.87h-16c-1.58 1-3 2-4.53 2.79a3.81 3.81 0 0 1-2.45.39c-3.1-.71-6.16-1.58-9.33-2.42l-1.11 3 6.38 3.26c-1.66 1-3.08 2.06-4.61 2.86a3.86 3.86 0 0 1-2.3.34c-1.63-.27-3.23-.75-5-1.17-.82 3.19-1.6 6.2-2.41 9.34l9.47 2.38c.49-1.84.93-3.51 1.4-5.16.12-.41.27-1 .59-1.14 1.75-1 3.55-2 5.47-3v7a7.77 7.77 0 0 1 1 .21c1.46.51 2.21.19 2.51-1.5.46-2.58 1.2-5.11 1.84-7.66.11-.42.21-1 .51-1.18 2.33-1.34 4.71-2.6 7.32-4a58.21 58.21 0 0 0 .06 6.26 3.28 3.28 0 0 1-1.31 3.17c-2.28 2-4.47 4-6.78 6.16.73.9 1.35 1.67 2 2.51l6.3-3.66c0 1.92-.08 3.53 0 5.13a2.88 2.88 0 0 1-1.16 2.6c-1.22 1-2.35 2.18-3.63 3.39l7.07 6.74 7.17-6.77c-1.45-1.3-2.78-2.42-4-3.64a2.42 2.42 0 0 1-.71-1.56c0-1.83.23-3.65.36-5.48.22 0 .34 0 .42.06 1.09.69 2.18 1.38 3.26 2.08 2.55 1.66 2.55 1.67 4.35-1-2.25-2.23-4.52-4.48-6.78-6.74-.35-.35-.88-.79-.86-1.17.08-2.65.29-5.29.48-8.14a48.29 48.29 0 0 0 4.32 2.21 5.25 5.25 0 0 1 3.58 4.51c.41 2.56 1.26 5 1.92 7.6l3.05-.53v-7c1.66.87 3.19 1.56 4.58 2.46a4.25 4.25 0 0 1 1.5 2c.58 1.54.94 3.18 1.4 4.8l9.45-2.49c-.87-3.22-1.69-6.26-2.53-9.34-1.71.44-3.27.89-4.85 1.25z" id="path173" style="fill:#fff"/><path class="cls-4" id="rect175" style="fill:#fff" d="M162.33 248.32h16.49v10.27h-16.49z"/><path class="cls-6" d="M138.65 237.27s29.8-17 65.69 0" id="path177" style="fill:none;stroke:#dcdbdb;stroke-width:3.24000001px;stroke-miterlimit:10"/></svg>