<svg xmlns="http://www.w3.org/2000/svg" id="Layer_1" width="537.8" height="459.8" version="1.1"><defs id="defs4834"><style id="style4832">.cls-1{fill:#fc7f6f}.cls-2{fill:#fff}.cls-4{fill:#92cccc}.cls-5{fill:#457c7b}</style></defs><g id="g4962" transform="translate(-31.1 -70.1)"><path id="path4838" fill="#92cccc" d="M556 210.3c-35.8-93-139-149-256.8-139a327.2 327.2 0 0 0-80.6 17.2c-64.8 22.7-119 64.1-152.3 116.6a220.6 220.6 0 0 0-33.1 87.6c-4.8 33.3-1.2 66 10.8 97 33 86 123.7 140.2 230 140.2a320 320 0 0 0 107.3-18.4c64.8-22.7 119-64 152.4-116.6a220.6 220.6 0 0 0 33-87.5c4.8-33.4 1.2-66-10.8-97z" class="cls-4"/><path id="path4840" fill="#fc7f6f" d="M282.5 521.6c-108.2 0-198-62.2-223.4-154.7a195.3 195.3 0 0 1-2.4-93.8c6.2-29 18.6-56.5 36.7-81.8a270.7 270.7 0 0 1 149-101.4 285.7 285.7 0 0 1 75.7-10.3c108.2 0 198 62.2 223.4 154.7 8.4 30.6 9.2 62.2 2.4 93.8-6.2 29-18.6 56.5-36.7 81.8a270.7 270.7 0 0 1-149 101.4 285.7 285.7 0 0 1-75.7 10.3z" class="cls-1"/><path id="path4842" fill="#fc7f6f" d="M282.5 512.9c-104.2 0-190.6-59.6-215-148.3-8-29.3-8.8-59.4-2.3-89.6 6-27.8 18-54.2 35.4-78.6a261.9 261.9 0 0 1 144.1-98c24.2-6.6 48.8-10 73.4-10 104.2 0 190.6 59.6 215 148.2 8 29.3 8.8 59.5 2.3 89.7a212 212 0 0 1-35.3 78.6 261.9 261.9 0 0 1-144.2 98 278 278 0 0 1-73.4 10z" class="cls-1"/><g id="g4862"><path id="path4844" d="m139.3 401.4 16.8 17.1c3.8 4 2.5 7.3-1.4 11.2L138 445.9c-3 3-7.5 4.2-11.4.3l-16.2-16.6zm-7.8 36.7 15.9-15.5-7.4-7.6-15.8 15.6z"/><path id="path4846" d="m151 466 20-34.9 21.5 12.4c3.6 2 3.7 5 1.2 9.5l-6.8 11.8c-2.1 3.6-4.2 5-7 4.1l-2.6 12.4-8.9-5.2 2.7-11.6-5.5-3.2-5.8 9.9-8.9-5.2zm27.7-7.1 5.6-9.7-8.8-5-5.6 9.6 8.8 5z"/><path id="path4848" d="m200.3 482.3 6.8-23.5c1.5-4.9 5-6.7 9.1-5.5l16.8 4.9c5 1.4 6 5.2 4.5 10.5l-6.5 22.2c-1.3 4.6-5 7.2-10 5.8l-15.4-4.5c-4.2-1.2-6.8-4.6-5.3-9.9zm21.1 5 6.2-21.2-11-3.2-6.2 21.3z"/><path id="path4850" d="m253.1 462.3 24.1 1.6c4.6.3 5.7 3.3 5.4 8.1l-1.1 16.2c-.3 3.6-2.5 7-7.3 6.7l-12.9-.8-.6 9.1-10.3-.7 2.7-40.2zm18.3 23.8.9-13.6-9.5-.6-.9 13.6 9.5.6z"/><path id="path4852" d="M409.3 472.4 389 482.5l-18-36 20.7-10.4c4.7-2.3 7.4-.4 9.5 3.9l3.1 6.2c1 2.1 1.3 4 .3 5.4 2.2-.2 3.7 1.1 4.9 3.6l3.6 7.3c1.6 3.2 1.2 7.4-3.7 9.9zM395.6 452l-3.4-6.8-8.3 4 3.4 7zm7.7 13.8-3.5-7-9 4.4 3.6 7z"/><path id="path4854" d="m409.5 425.6 21.4-16.3 5.2 6.9-13.2 10 4.3 5.7 9.7-7.4 5.2 6.8-9.6 7.4 4.4 5.8 13.2-10.1 5.3 6.9-21.4 16.3z"/><path id="path4856" d="m479 406.2-6.8 8 4.6 5.8-6.8 8-25-33 11-12.7 36.2 19.6-6.7 7.9-6.5-3.6zm-12.2 1.3 4.7-5.5-14.2-8-.6.7 10.2 12.8z"/><path id="path4858" d="m504 384-36.2-18 11-22c1.9-3.9 4.9-4.2 9.5-1.9l12 6c4 2 5.4 3.9 4.7 6.8l12.5 1.7-4.6 9.2-11.8-1.9-2.8 5.8 10.2 5zm-9-27.3-10-5-4.5 9.1 10 5z"/><path id="path4860" d="M522.6 303c5 1 7.5 4.3 6.6 9.4l-2.8 14.5c-.8 4.4-4 7.2-9.4 6.2l-6-1.2 1.8-10 5.5 1 1.9-10-4.9-.8-8.3 14.4c-2.2 3.2-4 4-8.2 3.2l-6.4-1.3c-5.1-1-6.5-4-5.7-8.7l2.8-14.8c1.2-6 4.4-7.2 10.2-6.1l4.8.9-2 10-4.9-1-1.8 10 4.2.8 8.2-14.3c2.2-3.4 4-4.1 8.5-3.2l5.9 1z"/></g><g id="g4882"><path id="path4864" d="m114.6 235.8-8.6-4.3 7.6 6 14.6 11.9-4.9 10.3-18.5-3.4-9.9-2 9.2 3.8 16.4 7.7-4 8.4-36.5-17 5.9-12.5 29.5 5.3.2-.4-23.2-19 5.8-12.4 36.6 17-3.9 8.2z"/><path id="path4866" d="m112.8 198 17.5-20.4 6.6 5.7-10.8 12.6 5.3 4.6 8-9.2 6.5 5.6-8 9.2 5.6 4.7 10.8-12.6 6.6 5.7-17.5 20.4-30.6-26.3z"/><path id="path4868" d="m146.3 162.6 8.2-6.3 19 24.8 13.5-10.4 5.5 7.2-21.6 16.6z"/><path id="path4870" d="m224.6 160.5-20.5 10.1-17.8-36.1 20.7-10.3c4.7-2.3 7.4-.4 9.5 4l3.1 6.2c1 2 1.3 4 .3 5.4 2.2-.2 3.6 1 4.8 3.5l3.6 7.4c1.6 3.2 1.2 7.4-3.7 9.8zM211 140.2l-3.4-6.8-8.3 4 3.3 7zm7.6 13.9-3.5-7.1-9 4.4 3.5 7.1z"/><path id="path4872" d="m242.6 144.4-6.3-23.6c-1.4-5 .7-8.3 5-9.4l16.8-4.6c5-1.3 7.8 1.4 9.2 6.7l6 22.4c1.3 4.5-.6 8.8-5.6 10.1l-15.4 4.2c-4.2 1-8.3-.5-9.7-5.8zm20.7-6.6-5.8-21.4-11 3 5.7 21.4z"/><path id="path4874" d="m318 99.5 2 32c.3 4.6-2.2 8.4-7.3 8.7l-15.1 1c-4.4.2-8-2.2-8.3-7.6l-2-32.2 10.2-.7 2 31.2 10.3-.6-1.9-31.2 10.2-.6z"/><path id="path4876" d="m335 140.3 5.8-39.9 24.4 3.6c4.2.6 5.4 3.4 4.7 8.5l-2 13.3c-.6 4.3-2 6.3-5 6.5l2.2 12.4-10.2-1.5-1.8-11.8-6.3-.9-1.7 11.3zm23.1-16.9 1.6-11-10-1.5-1.6 11z"/><path id="path4878" d="m397.3 155.7-1.6-17.2a70 70 0 0 1 .3-10.2l-2.8 7.4-6.4 15.7-8.3-3.3 15.1-37.4 11.6 4.7 1.2 19c.2 4.2.1 8.1-.2 11.7 1-3.1 2.1-6 3-8.2l7.3-18 8.2 3.3-15.1 37.4-12.3-5z"/><path id="path4880" d="m445.7 135.5 21.6 16-5.2 7-13.3-10-4.2 5.7 9.7 7.3-5.2 7-9.7-7.3-4.3 5.8 13.3 10-5.2 6.9-21.6-16.1z"/></g><ellipse id="ellipse4884" cx="300.3" cy="300.6" fill="#92cccc" class="cls-4" rx="177.3" ry="143.8" transform="rotate(-15.4 300.3 300.6)"/><g id="g4936"><path id="path4886" d="M362.1 366s-15.3 33.9-29.7 50.2c0 0 104.2-14 125.7-127.4"/><g id="g4902"><g id="g4894"><circle id="circle4888" cx="283.5" cy="289.7" r="102.5" fill="#fc7f6f" class="cls-1"/><path id="path4890" fill="#92cccc" d="m288 211.4-11.5-23.9-20.8 3.6a102.5 102.5 0 0 0-50.5 164.7l15.1-11s-18.7-35.5 6.5-74.8l-25.4 13.2s20.8-69.8 86.6-71.8z" class="cls-4"/><path id="path4892" d="M283.4 402c-27 0-53-9.7-73.5-27.6a111.5 111.5 0 0 1-38.3-77c-2-29.8 7.6-58.7 27.3-81.3 19.7-22.7 47-36.2 76.9-38.3 29.9-2 58.8 7.6 81.4 27.3 22.6 19.7 36.2 47 38.3 76.9 2 30-7.6 58.8-27.3 81.4a111.5 111.5 0 0 1-84.8 38.6zm.3-205c-2.2 0-4.4 0-6.5.2a92.1 92.1 0 0 0-63.6 31.7A92.1 92.1 0 0 0 191 296a92.1 92.1 0 0 0 31.6 63.6 92.2 92.2 0 0 0 67.3 22.6 92.1 92.1 0 0 0 63.6-31.6 92.1 92.1 0 0 0 22.6-67.3 92.1 92.1 0 0 0-31.7-63.6 92 92 0 0 0-60.7-22.8Z"/></g><path id="path4896" d="m276.8 402.1-8.6-1.2a112.6 112.6 0 0 1-96.4-101l-.7-7.6 7.2-2.5a74 74 0 0 1 19-3.9c43.3-3 81.2 32.3 84.4 78.7.7 10-.2 19.7-2.7 29.2l-2.2 8.3zm-84.5-96a93 93 0 0 0 69.6 73.8c.6-4.6.7-9.2.4-14-2.5-35.6-31-62.8-63.7-60.5-2.1.1-4.2.4-6.3.8z"/><path id="path4898" fill="#fc7f6f" d="M257 309.2c-.6.5-1 1-1.2 1.9-.5 4.5-3.9 5.9-7.3 6.8-3.5 1-4.5 2.4-3.4 5.9l.2 1.4c3.8 4.2 7 9 9.7 14.2.7-.7 1.3-1.5 1.6-2.3a23 23 0 0 1 11.7-13.7 82 82 0 0 0-11.3-14.2z" class="cls-1"/><path id="path4900" d="M342.8 316.3c-56.3 0-103.4-38.5-106.9-89-.9-13.1 1.2-26 6.1-38.4l1.7-4.2 4.3-1.4a112.4 112.4 0 0 1 147.4 115.6l-.5 6-5.5 2.2a121.2 121.2 0 0 1-46.6 9.2zm-84.2-115.9a66.9 66.9 0 0 0-3.2 25.6c3 42.3 45.4 74 94.6 70.6 9-.6 17.9-2.4 26.3-5.3 0-2.6 0-5.3-.2-8a92.2 92.2 0 0 0-31.6-63.5 92.2 92.2 0 0 0-67.3-22.6c-6.3.5-12.6 1.5-18.6 3.2z"/></g><g id="g4932"><path id="path4904" fill="#457c7b" d="M368.5 387.8c5.6-2.9 12.4-6.7 19.7-11.8 29.1-19 64.7-63.5 60.2-108.4a99.6 99.6 0 0 0-19.6-39.3l-26.5 2.2 5.8 27.8-18.7 45.8 1 1.7a24.5 24.5 0 0 1 2 16.3c3.5 0 9.8-1 16.4-6.8 0 0-14 38.6-39.6 70l-.7 2.5z" class="cls-5"/><path id="path4906" fill="#92cccc" d="M408 236.7s9-7.5 30.5 6c-1.6-4.4-8-12.4-12.2-17.3l-.5-.7-14-16.1c-5.2-1.6-9.4-4.6-14-7.5l-5 6.3c-1-1-2.1-7.3-3.5-8.3l-2.2 5.1-1.8-1.2c-.2-.2-18.7-13-37.7-11.4 2.6 2 5 4.6 6.4 8.5 1.2 3.3.9 6.5-.2 9.4 21.5-10.1 42 16.2 42 16.2-8 4.6-22.6-5.8-22.6-5.8-9.6-6.8-17-1.5-19.7 1.1 4.2 3 8.1 7.4 8.8 13.8a32 32 0 0 1 0 7.3c14.7-.8 28.4 11.7 28.4 11.7a39 39 0 0 0-25.3-.2 21 21 0 0 1 9 16.4 28 28 0 0 1-5.9 17.6c3.5 1 16 3.6 26-7 0 0-1.5 10.6-10.7 17.3a23.1 23.1 0 0 1 8.4 13c4.5-3 15.3-11.8 17.3-29.8 0 0 16.4 19.3 7 40.2 0 0 32.4-53-8.6-84.6z" class="cls-4"/><path id="path4908" fill="#457c7b" d="M384.4 272.9v7.2l-10-10a28 28 0 0 1-5.9 17.5c3.5 1 16 3.6 26-7z" class="cls-5"/><path id="path4910" fill="#457c7b" d="M353.5 221s13.2 2.8 19.6 14l2.5-7.2 15 26-12.2-5.2-19.4-2.8-2-16.5" class="cls-5"/><path id="path4912" fill="#457c7b" d="M347.6 191.6s18.5 6.1 24 12l.2-5.5s20.3 9.6 24 27.6l-23.5-9.3-10.2-5-9.5 3-3.8-14.3" class="cls-5"/><path id="path4914" d="m458 288.8.2-.7c0-.6 3.8-61-65.5-98.5l-3.4-1.8-3.3 6.8c-7.7-4.5-26.4-13.8-45.2-9.4a46 46 0 0 0-30 24.7l-7.9 16 9-3.6c.1 0 9-3.4 18.5-2.2a47.6 47.6 0 0 0-19.8 26.6l-2.2 7.7 7.3-3.3a40 40 0 0 1 29.6-.1 60 60 0 0 0-25.7 22.3l-2.6 4.5 5.1 1c.3 0 28.8 5.8 43.3 19.7a111 111 0 0 1-28.7 8.3l-6.8 1 4.7 5.1c15.7 17.2 37.8 18.5 48 18-3 11.7-12.3 42.2-31 64.5l-8 9.6 12-3.7c.7-.2 79.1-25 102.5-112.5zm-9.6-21.2c0 45.3-35.5 89.2-60.2 108.4-8.3 5.8-16 10-22 12.9 27.5-31.9 42.6-73.6 42.6-73.6a25.2 25.2 0 0 1-16.3 6.8c1-6 .4-11.5-2.1-16.3a25.4 25.4 0 0 0-6.6-8c9.2-6.6 10.7-17.2 10.7-17.2-10 10.6-22.6 8-26 7 3-4 6-9.8 6-17.6a21 21 0 0 0-9.1-16.4 39 39 0 0 1 25.3.2S377 241.3 362.4 242c.2-2.1.2-4.6 0-7.3a19.4 19.4 0 0 0-9-13.8c2.9-2.6 10.2-8 19.8-1 0 0 14.5 10.3 22.6 5.7 0 0-20.5-26.3-42-16.2 1-2.9 1.3-6 .1-9.4a17.7 17.7 0 0 0-6.3-8.5c19-1.6 37.5 11.2 37.7 11.4l3.5 2.4s2.8 1.7 3.6 2.7l5.4-7c34 21.4 46.2 48.4 50.6 66.5zm-128-25.7.3-.4h2.4c-1 0-1.8.3-2.7.4z"/><path id="path4916" fill="#fff" d="M352.2 256c2.8 1.2 11.1 5.3 11.3 12.2a16 16 0 0 1-3.5 10.6 56.7 56.7 0 0 0-28.3-9 47.3 47.3 0 0 1 20.5-13.7z" class="cls-2"/><path id="path4918" fill="#fff" d="M338.8 225c2.7.7 11.1 3.5 11.9 10.1.3 3.2 0 5.5-.5 7.1-10.4-6.2-22-4-27.4-2.6a35 35 0 0 1 16-14.7z" class="cls-2"/><path id="path4920" fill="#fff" d="M334.3 196.1c2.1.4 8 1.8 9.8 7.2 1.2 3.4-1.4 6.8-3.9 9.2-7.8-4-16.7-1.8-22.3.4l-.5.1a37.8 37.8 0 0 1 16.9-16.9z" class="cls-2"/><path id="path4922" fill="#fff" d="M346.4 311.5c7 .2 19.4-.8 29.1-7.7a17 17 0 0 1 5 5.3c2 3.5 2.3 7.5 1 12.1-5.4.3-21.6 0-35-9.7z" class="cls-2"/><path id="path4924" fill="#92cccc" d="M381.8 312.6c-.3-1.2-.7-2.4-1.3-3.5a17 17 0 0 0-5-5.3c-9.8 7-22 7.8-29 7.7 0 0 21.6 4 35.3 1z" class="cls-4"/><path id="path4926" fill="#92cccc" d="M334.3 196.1a38 38 0 0 0-16.5 16.1v.7s11.7-10 25.4-11.5c-2.4-3.8-7-5-9-5.3z" class="cls-4"/><path id="path4928" fill="#92cccc" d="M363.2 266c-1.7-5.6-8.5-9-11-10a47 47 0 0 0-20.5 13.8s16.4-6.3 31.5-3.8z" class="cls-4"/><path id="path4930" fill="#92cccc" d="M350.4 234c-1.5-5.8-9-8.4-11.5-9a35 35 0 0 0-16 14.6s15.3-10.2 27.6-5.6z" class="cls-4"/></g><path id="path4934" d="M338 387.8s-47.8 33.7-124.5 22.5l32-18"/></g><path id="path4938" fill="#fc7f6f" d="M231.7 288.9c1-5 3.3-9.3 6.8-13a17 17 0 0 0 4.6-7.7c.3-1.3 1.2-2 2-2.8 4-4 8.7-7.2 11-12.6a4.7 4.7 0 0 1 2.8-2.6c4-1.4 6.8-4 9.1-7.5 1.4-2 3.1-3.6 6.2-2.4 2.2.9 4.3-.6 5.8-2.2a12 12 0 0 1 8.4-3.6c5.2-.4 10.3-.9 15.7-1l-7.7 4.4c-2.8 1.7-5.3 4.6-8.2 5-5 1-7.3 4.2-10 7.5-.4.6-1.2 1.3-1.8 1.2-3.6 0-4.8 2.5-5.8 5.2-.5 1.4-1.2 1.9-2.7 1.5-2.8-.9-5 .3-7 2a27 27 0 0 0-9 12.1c-.3.8-.7 1.4-1.5 1.7-7.7 3-13.3 8.6-18.6 14.8z" class="cls-1"/><path id="path4940" d="M353.4 307c-5.7 2.7-9.7 8-15.9 10a6 6 0 0 0-2.9 2.3c-1.8 2.2-3 5.1-6.5 5.2-1.7 5.3-7.2 4.6-10.8 6.8a19 19 0 0 0-8.2 8.8 11 11 0 0 1-5.7 5.6c-4 2.2-8.2 4.1-11.2 7.9-.6.8-1.5 1.7-2.9 1.4-.1-1.7.7-3.3 1.7-4.4 5-5.7 8.6-12.6 14.4-17.6 2.7-2.2 5.3-4.5 6.8-7.8.5-1 1.4-2 2.4-2.3a17 17 0 0 0 8.7-7.4c1-1.5 2.3-2.7 4.6-1.9 1.5.6 3.3.2 4.2-1 3.4-4.4 8.4-4.6 13.2-5.3l7.6-1.5.5 1.2z"/><path id="path4942" d="M353.4 307c-5.7 2.7-9.7 8-15.9 10a6 6 0 0 0-2.9 2.3c-1.8 2.2-3 5.1-6.5 5.2-1.7 5.3-7.2 4.6-10.8 6.8a19 19 0 0 0-8.2 8.8 11 11 0 0 1-5.7 5.6c-4 2.2-8.2 4.1-11.2 7.9-.6.8-1.5 1.7-2.9 1.4-.1-1.7.7-3.3 1.7-4.4 5-5.7 8.6-12.6 14.4-17.6 2.7-2.2 5.3-4.5 6.8-7.8.5-1 1.4-2 2.4-2.3a17 17 0 0 0 8.7-7.4c1-1.5 2.3-2.7 4.6-1.9 1.5.6 3.3.2 4.2-1 3.4-4.4 8.4-4.6 13.2-5.3l7.6-1.5.5 1.2z"/><path id="path4944" d="M225.6 377.7c1.8-10.3 4.2-20 5-30 1-13.4 2.2-26.2 13.6-35.7 3.7-3.1 5.7-8.3 8.3-12.6 1.8-2.8 2.9-6 2-9.2-1.4-4.3-.1-6.1 4.1-7.3 4.2-1.1 8.4-2.8 9-8.4.3-2.4 2.9-3.2 4.9-4 6.5-3 12.6-5.8 17.8-11.6 4.8-5.4 12.8-8 19.5-11.7A106 106 0 0 1 326 240c-9.4 9.8-12.9 24.4-26.4 30.6-4.8 2.2-9.5 4.8-7.8 11.8.7 2.7-2.2 4.3-4.3 5.2-8.9 3.8-16 9.3-19 19a6.9 6.9 0 0 1-3 3.5c-9.2 4.9-11.8 14.3-16.6 22.4a258.6 258.6 0 0 0-18.3 38.7c-.9 2.3-2 4.7-5 6.5z"/><path id="path4946" d="M225.6 377.7c1.8-10.3 4.2-20 5-30 1-13.4 2.2-26.2 13.6-35.7 3.7-3.1 5.7-8.3 8.3-12.6 1.8-2.8 2.9-6 2-9.2-1.4-4.3-.1-6.1 4.1-7.3 4.2-1.1 8.4-2.8 9-8.4.3-2.4 2.9-3.2 4.9-4 6.5-3 12.6-5.8 17.8-11.6 4.8-5.4 12.8-8 19.5-11.7A106 106 0 0 1 326 240c-9.4 9.8-12.9 24.4-26.4 30.6-4.8 2.2-9.5 4.8-7.8 11.8.7 2.7-2.2 4.3-4.3 5.2-8.9 3.8-16 9.3-19 19a6.9 6.9 0 0 1-3 3.5c-9.2 4.9-11.8 14.3-16.6 22.4a258.6 258.6 0 0 0-18.3 38.7c-.9 2.3-2 4.7-5 6.5z"/><path id="polygon4948" d="m230.6 371.2 24.6-54.9-14.4-3.8-27.3 45z"/><path id="path4950" d="M225.6 287a29.1 29.1 0 0 1 7.5-14.5c2.4-2.5 4.4-5.2 5.2-8.6.3-1.5 1.3-2.2 2.3-3.1 4.4-4.4 9.7-8.1 12.3-14.2a5.2 5.2 0 0 1 3-2.9c4.5-1.5 7.7-4.5 10.3-8.3 1.6-2.4 3.4-4.1 7-2.7 2.3 1 4.7-.7 6.4-2.5 2.6-2.7 5.7-3.8 9.3-4 5.8-.4 11.6-1 17.6-1-2.9 1.5-5.8 3-8.7 4.8-3 1.9-5.8 5-9.1 5.7-5.5 1-8.2 4.6-11.2 8.3-.5.6-1.3 1.4-2 1.4-4-.2-5.3 2.7-6.4 5.7-.6 1.5-1.4 2.1-3 1.7-3.2-1-5.7.3-8 2.3a30.3 30.3 0 0 0-10 13.5c-.3.9-.8 1.5-1.6 1.8a53 53 0 0 0-20.9 16.6z"/><path id="polyline4952" fill="#92cccc" d="m139.7 313.6-61.2 46.1 82.7-11.1" class="cls-4"/><path id="polyline4954" fill="#92cccc" d="m454.5 226.9 68.7-8.1-60.3 45.2" class="cls-4"/><path id="polyline4956" fill="#fc7f6f" d="m78.5 359.7 73.8-9.9-23.2 21.4" class="cls-1"/><path id="polygon4958" fill="#fc7f6f" d="m465.2 209.8 58 9-79.9 9.5z" class="cls-1"/><path id="polygon4960" d="m338.3 473.8 11.3 6.8-12.9 2.8-3 12.8-6.6-11.4-13.1 1.1 8.8-9.8-5.1-12.1 12 5.4 10-8.7z"/></g></svg>