<svg xmlns="http://www.w3.org/2000/svg" id="Layer_1" data-name="Layer 1" version="1.1" width="555.94" height="438.27"><defs id="defs13"><linearGradient id="linear-gradient" x1="296.11" y1="295.85" x2="296.11" y2="130.93" gradientUnits="userSpaceOnUse" gradientTransform="translate(-22.06 -80.89)"><stop offset="0" stop-color="#fcce00" id="stop4"/><stop offset=".48" stop-color="#da3000" id="stop6"/><stop offset=".81" stop-color="#850101" id="stop8"/><stop offset="1" stop-color="#890900" id="stop10"/></linearGradient><style id="style2">.cls-2{fill:#1d2605}.cls-3{fill:#ffe468}.cls-4{fill:#f65e00}.cls-5{fill:#d5c6bb}.cls-7{fill:#5a5734}.cls-8{fill:#817e5d}.cls-10{fill:#b1a092}.cls-13,.cls-14{fill:none;stroke:#817161;stroke-width:6.67px}.cls-13{stroke-linecap:round;stroke-linejoin:round}.cls-14{stroke-miterlimit:10}</style></defs><path class="cls-2" d="M386.77 43.84a120.07 120.07 0 0 0-85.41-35.5h-14.42l-15-8.34-14.27 8.34h-11a121.21 121.21 0 0 0-120.85 120.92v54.62a121.21 121.21 0 0 0 120.92 120.91h54.62a121.21 121.21 0 0 0 120.91-120.91v-54.62a120.1 120.1 0 0 0-35.5-85.42z" id="path17" style="fill:#1d2605"/><rect class="cls-2" x="149.05" y="31.57" width="250" height="250" rx="97.69" id="rect19" style="fill:#1d2605"/><path class="cls-3" d="M301.36 33.94a95.62 95.62 0 0 1 95.31 95.32v54.62a95.6 95.6 0 0 1-95.31 95.31h-54.62a95.62 95.62 0 0 1-95.32-95.31v-54.62a95.63 95.63 0 0 1 95.32-95.32h54.62m0-4.75h-54.62c-55 0-100.07 45-100.07 100.07v54.62c0 55 45 100.07 100.07 100.07h54.62c55 0 100.07-45 100.07-100.07v-54.62c0-55-45-100.07-100.07-100.07z" id="path21" style="fill:#ffe468"/><path class="cls-2" id="rect23" style="fill:#1d2605" d="M101.91 242.67h375.67v47.12H101.91z"/><path class="cls-2" d="M405.94 429.33c29.68 0 33.62-27.7 33.62-27.7l.83.21 11.76-70.73H104l11.76 70.79.06.32c.55 3.09 5.77 27.37 33.55 27.37h107.5l18.79 8.68 20.39-8.68h106a33.36 33.36 0 0 1 3.89-.26z" id="path25" style="fill:#1d2605"/><path class="cls-2" d="m555.94 295.46-16.75-7.35-1.81-46-17.44-.8c-13.64-.66-22.63-.95-29.14-.95a46.81 46.81 0 0 0-26.28 7.75l-81.31.14v.24a105.8 105.8 0 0 0-10.7-.56 43.06 43.06 0 0 0-18.6 4l-.16-5.05-19.66 1.43c-.65 0-3.73.06-6 .08h-.28l-6.86.07h-12.44l-20-1.55v1.59h-3v-.26l-55.43.48-1-.14a42.1 42.1 0 0 0-5.92-.25c-1.95 0-4.66 0-8.05.08-11.21 0-12.69.23-13.88.41l-11.36 1.77-1.67-2.09h-43.21v2a42 42 0 0 0-15.93-3.08 43.06 43.06 0 0 0-17.62 3.69v-7.19l-23.28-1.66a141.08 141.08 0 0 0-22.47-2 47.26 47.26 0 0 0-23.75 6 49.05 49.05 0 0 0-17.54 17.47 69.63 69.63 0 0 0-8.4 21.32l-16 17.4 15.32 16.89a62.75 62.75 0 0 0 11.15 26c9.93 13.35 23.86 20.41 40.29 20.41 12.06 0 23-4.35 32.4-12.94l.15-.13q1.58-1.47 3-3a41.47 41.47 0 0 0 26.14 9.08 42.51 42.51 0 0 0 20.54-5.13l14.6 3.16c2.43.53 2.67.53 15.35.53h3.53c8.88 0 12.53-.46 16.24-2.08l3.54-1.54 2.26 2.83h34.68v-22.74l7.6 23.49h39.79l2.3-6.79v6.92l65.24-.46v-2.84a44.42 44.42 0 0 0 19.27 4.25 41.26 41.26 0 0 0 24.43-7.86v4.56l16.74 2a35.81 35.81 0 0 0 4.48.23h21.74a30.5 30.5 0 0 0 7.1-.82l.19 5.1 16.39 1.72c21.23 2.22 26.5 2.53 29 2.53a48.29 48.29 0 0 0 32.87-12.35 45.82 45.82 0 0 0 15.37-41.43z" id="path27" style="fill:#1d2605"/><path class="cls-3" d="m59.83 302.57-7.46 8.68a45.59 45.59 0 0 0 3.09 11.86c3.31 8 8.1 12 14.6 12 4.68 0 8.84-2 12.35-5.9a25.8 25.8 0 0 0 6.29-13.2l7.67 3.12a30.78 30.78 0 0 1-10 19.8c-5.85 5.33-12.35 8-19.59 8-10.44 0-18.75-4.28-25-12.73a45.49 45.49 0 0 1-8.41-23.16l-7.57-8.34 8-8.68a52.24 52.24 0 0 1 6.93-20.27c5.86-9.61 14.27-14.35 25-14.35a122.76 122.76 0 0 1 20.21 1.83l6.5.46v28.25l-6.29.24c-2.87-14-8.52-21-16.83-21-6.07 0-10.76 4.05-14 12a49 49 0 0 0-3.2 12.74z" id="path29" style="fill:#ffe468"/><path class="cls-3" d="m162.6 302.67-6.34 7.36a41.81 41.81 0 0 1-6.86 18.08c-5.37 7.85-12.42 11.77-21 11.77-8.28 0-15.15-3.92-20.52-11.77a42.21 42.21 0 0 1-7-18.66l-6.07-6.7 6.25-6.89a41.59 41.59 0 0 1 7-17.61c5.46-7.84 12.5-11.77 21-11.77 8.36 0 15.14 3.93 20.43 11.77a41.55 41.55 0 0 1 6.69 17.23zm-30.81.09 6.51-7.08a76.62 76.62 0 0 0-1.14-7.75c-1.67-8.23-4.4-12.35-8.1-12.35-5.9 0-9.42 6.7-10.65 20l6.34 7.09-6.43 7.44a65.25 65.25 0 0 0 2 10.72c2 7.37 4.93 11 8.71 11 5.9 0 9.07-7.27 9.6-21.82l-.18.1z" id="path31" style="fill:#ffe468"/><path class="cls-3" d="m220.18 295.58 6.33 7.09-6.33 7.36v27.66h-6.52l-29.67-37.13v21.63q0 9.18 7.13 8.9v6.89c-.88.38-4.93.57-12.06.47-7.13-.1-11 0-11.44-.09v-7.08c3.61-.39 6.16-3.64 6.16-7.75v-13.5l-.17.1-6.67-7.37 6.69-7.37.17.19v-7.47a14.07 14.07 0 0 0-2.38-8.52 8.4 8.4 0 0 0-7.39-3.54v-8.51h15.05l31.7 39.61v-22.57c0-6.22-2.21-9.28-6.61-9.28v-7.66c.62-.09 4.32-.19 11.1-.19 6.78 0 10.56-.09 11.26 0v8a6.54 6.54 0 0 0-6.33 6.89z" id="path33" style="fill:#ffe468"/><path class="cls-3" d="m287.12 296.35 5.72 6.41-10.38 7.47-9.51 28h-12.33l-9.06-28-9.86-7.47 5.45-6-3.43-10.65c-2.2-6.79-5.72-10.14-10.74-10.14v-8.23l33.72-.29.09 8.13a9.85 9.85 0 0 0-4.93 1.34 4.88 4.88 0 0 0-2.65 4.41c0 1.43 1.77 7.46 5.37 18.08l6.7 19.43 11-33.59a10.79 10.79 0 0 0 .62-3.54c0-3.73-2-5.74-6.17-6.22v-7.94h23.86v8.13h-.53q-5.94 0-9.24 9.76z" id="path35" style="fill:#ffe468"/><path class="cls-3" d="m329.2 295.68 6.25 7-6.25 7.27v14.35c0 4.5 1.94 7 5.9 7.66v6.15l-27.2.19v-6.31c3.78-.29 6.07-3.93 6.07-8.14v-13.74l-6.69-7.37 6.6-7.27v-11c0-6.69-2.29-9.85-6.95-9.47l.17-7.56c1.24.1 5.9.19 14.09.1s12.85-.1 14.17-.19l.27 7.75c-3.79.09-6.43 3-6.43 7.08z" id="path37" style="fill:#ffe468"/><path class="cls-3" d="m367.67 302.67-6.16 7.17a37.38 37.38 0 0 0 2.55 9.76c2.73 6.61 6.69 10 12.06 10a13.32 13.32 0 0 0 10.21-4.89 21.31 21.31 0 0 0 5.2-10.9l6.34 2.58a25.47 25.47 0 0 1-8.28 16.36 23.47 23.47 0 0 1-16.2 6.61c-8.62 0-15.49-3.54-20.68-10.53a37.54 37.54 0 0 1-7-19.14l-6.25-6.89 6.6-7.18a43 43 0 0 1 5.73-16.74c4.84-7.94 11.79-11.87 20.68-11.87a101.43 101.43 0 0 1 16.73 1.53l5.37.39v23.35l-5.19.19c-2.34-11.62-7.01-17.36-13.87-17.36-5 0-8.89 3.35-11.54 9.95a40.58 40.58 0 0 0-2.64 10.52z" id="path39" style="fill:#ffe468"/><path class="cls-3" d="m437.79 295.78 6.16 6.89-6.16 7.08v12.72a12.14 12.14 0 0 0 1.49 5.94 5 5 0 0 0 4.76 2.7l.09 6.69a11.35 11.35 0 0 1-3.35.48h-21.74a18.65 18.65 0 0 1-2.2-.09v-6.51a7.26 7.26 0 0 0 5.81-7.37v-14.28l-6.87-7.27 6.87-7.18v-12.24c0-3.93-1.59-5.84-4.67-5.84-3.34 0-5.9 2.58-7.75 7.65a40 40 0 0 0-2.2 12.06l-5.81-3.44v-26.51l55.82-.1v25.55l-6.43 3.93a110.15 110.15 0 0 0-1.32-11.29c-1.23-5.27-3.35-7.95-6.25-7.95a6.64 6.64 0 0 0-6.25 6.32z" id="path41" style="fill:#ffe468"/><path class="cls-3" d="m524.82 302.57-4.16 4.86a25.67 25.67 0 0 1 2.56 11.23 25.93 25.93 0 0 1-9.37 20.45 29.75 29.75 0 0 1-20.35 7.65c-2.66 0-11.61-.81-27.06-2.44l-1.17-30.56 7.57-.58c1.27 4.74 4 9.72 8.2 14.7 4.68 5.68 9 8.46 13 8.46a11.76 11.76 0 0 0 11.72-12c0-5.67-3.62-9.72-10.76-11.92l-33-9.73 4.69-5.09a27.94 27.94 0 0 1-2.56-12.39c0-7.88 2.66-14.24 8.1-19a26.93 26.93 0 0 1 18.64-6.83c6.81 0 16.19.34 28.23.92l1.17 29.64-6.39.58c-3.09-14.7-9.17-22-18.43-22a10.81 10.81 0 0 0-8.52 4.17 14.57 14.57 0 0 0-3.41 9.61c0 3.13 2.13 5.44 6.49 6.95 0 0 4.59 1.39 13.64 4.17a34.18 34.18 0 0 1 7.78 3.24z" id="path43" style="fill:#ffe468"/><path class="cls-4" d="M66.76 343.8c-9.42 0-16.79-3.76-22.54-11.48a42.54 42.54 0 0 1-7.81-21.6l-.1-1-5.67-6.25h24.3l-5.87 6.83.17 1.36a48.24 48.24 0 0 0 3.31 12.63c3.83 9.26 9.7 14 17.47 14 5.62 0 10.56-2.34 14.68-6.95a27.37 27.37 0 0 0 6.14-11l2 .84a27.43 27.43 0 0 1-8.7 15.55c-5.2 4.72-10.92 7.07-17.38 7.07z" id="path45" style="fill:#f65e00"/><path class="cls-3" d="m52.72 304.48-4.1 4.76-.59.7.11.91.11.91a49.23 49.23 0 0 0 3.38 12.89c4 9.69 10.2 14.6 18.43 14.6 5.93 0 11.13-2.45 15.43-7.26a28.2 28.2 0 0 0 6-10.35l.21.08a26.38 26.38 0 0 1-8.21 14.14c-5.1 4.64-10.59 6.9-16.78 6.9-9.07 0-16.17-3.62-21.7-11.06a41.54 41.54 0 0 1-7.62-21.08l-.06-.69-.07-.68-.46-.51-3.86-4.26h19.78m4.22-2.08H28.83l-.27.29 6.75 7.42.07.69a43.51 43.51 0 0 0 8 22.12c6 8 13.59 11.9 23.37 11.9 6.73 0 12.68-2.44 18.18-7.44a28.51 28.51 0 0 0 9.16-17l-3.9-1.59a26.86 26.86 0 0 1-6.25 11.79c-3.91 4.38-8.58 6.6-13.9 6.6-7.31 0-12.86-4.49-16.51-13.32a47.39 47.39 0 0 1-3.24-12.35l-.11-.92 6.87-8-.17-.19z" id="path47" style="fill:#ffe468"/><path class="cls-4" d="M128.45 336.77c-7.28 0-13.15-3.4-17.95-10.41a39.24 39.24 0 0 1-6.56-17.25l-.12-1-4.23-4.65h20.35l-4.85 5.65.13 1.33a69.27 69.27 0 0 0 2.12 11.23c2.43 8.82 6.37 13.3 11.72 13.3 11.81 0 12.49-18.68 12.71-24.82l.2-5.48-2.83 1.55-2.53-2.78h21.22l-4.52 5.25-.13.9a39.11 39.11 0 0 1-6.35 16.77c-4.73 6.91-10.89 10.41-18.38 10.41z" id="path49" style="fill:#f65e00"/><path class="cls-3" d="m155.57 304.48-2.85 3.31-.4.46-.08.59-.09.61a38 38 0 0 1-6.21 16.32c-3.45 5-7.71 8.2-12.69 9.41 8.76-3.78 9.32-19.4 9.53-25l.13-3.65.07-2.05h12.56m-15.41 0-.29.16-.51.28-.4-.44h1.2m-22.45 0-3.09 3.63-.58.68.09.89.09.88a69.13 69.13 0 0 0 2.15 11.41c2.15 7.8 5.49 12.39 10 13.68-5.93-.62-10.84-3.86-15-9.85a38.26 38.26 0 0 1-6.35-16.84l-.08-.65-.08-.65-.44-.49-2.45-2.69h15.73m41.86-2.08h-24.59l-.35.37 4.32 4.75 1.94-1.06-.13 3.65c-.21 5.89-.86 23.82-11.67 23.82-4.83 0-8.43-4.22-10.72-12.53a67 67 0 0 1-2.08-11.06l-.09-.89 5.81-6.76-.26-.29H97.94l-.33.36 5.25 5.79.08.65a40.25 40.25 0 0 0 6.7 17.75c5 7.31 11.15 10.86 18.8 10.86 7.83 0 14.3-3.65 19.23-10.86a40.2 40.2 0 0 0 6.53-17.21l.08-.6 5.55-6.45-.27-.29z" id="path51" style="fill:#ffe468"/><path class="cls-4" id="polygon53" style="fill:#f65e00" transform="translate(-22.06 -80.89)" d="m225.85 384.33 10.08 12.6v-12.6h7.87l-4.68 5.44v25.69h-1.9l-24.88-31.13z"/><path class="cls-3" d="m219.48 304.48-3 3.43-.5.58v25.05h-.36l-23.18-29.06h10.85l7.92 9.9 3.7 4.62v-14.52h4.57m4-2.08h-10.65v10.71l-8.54-10.68h-16.17l26.54 33.21h3.44v-26.38l5.65-6.57-.26-.29z" id="path55" style="fill:#ffe468"/><path class="cls-4" d="M182.47 335.36h-11.74v-1.68a10.71 10.71 0 0 0 6.21-10.15v-18.74l-2.63 1.43-2.53-2.78h9.14v18.75c0 8.38 4.13 10.94 7.13 11.7v1.36c-1.18.06-2.93.11-5.58.11z" id="path57" style="fill:#f65e00"/><path class="cls-3" d="M179.84 304.48v17.71c0 7.54 3.17 10.75 6.15 12.1h-14.2a11.79 11.79 0 0 0 6.15-10.76v-19.05h1.9m-4.54 0-.43.23-.38.21-.41-.44h1.22m6.62-2.08h-11.87l-.33.36 4.33 4.77 1.81-1v17c0 4.47-2.5 8.15-6.16 9.4v3.43h12.77c3.5 0 5.49-.09 6.58-.18V333c-3.2-.5-7.13-2.77-7.13-10.85z" id="path59" style="fill:#ffe468"/><path class="cls-4" id="polygon61" style="fill:#f65e00" transform="translate(-22.06 -80.89)" d="M269.81 384.33h14.93l8.67 25.18 8.25-25.18h6.97l-6.74 4.84-9.12 26.87h-7.82l-8.67-26.82z"/><path class="cls-3" d="m283.34 304.48-3.85 2.76h-.06l.92-2.8h3m-21.4 0 7.42 21.55 1.69 4.9-1.12 3.22h-6.32l-8.34-25.79-.2-.62-.53-.39-3.74-2.83h11.13m27.8-2.08h-10.89l-7.52 23-7.91-23h-18.59l-.07.07 8.57 6.49 8.8 27.23h9.33l9.24-27.26 9.06-6.51z" id="path63" style="fill:#ffe468"/><path class="cls-4" d="M311.01 334.34c3.72-1.62 6.08-5.67 6.08-10.53v-14.88l-5-5.49h18.58l-4.59 5.34v15.51c0 6.15 3.05 8.84 5.89 10v.69l-21 .15z" id="path65" style="fill:#f65e00"/><path class="cls-3" d="m328.42 304.48-2.87 3.34-.5.58v15.89c0 4.29 1.48 7.62 4.23 9.67l-15.78.11a12.67 12.67 0 0 0 4.62-10.26v-15.28l-.53-.6-3.14-3.45h14m4-2.08h-22l-.33.36 6 6.57v14.48c0 4.76-2.46 8.59-6.08 9.82v2.54l23.05-.16v-2.44c-3-1-5.89-3.46-5.89-9.28v-15.12l5.56-6.48-.26-.29z" id="path67" style="fill:#ffe468"/><path class="cls-4" d="M373.39 336.2c-7.6 0-13.55-3-18.18-9.27a34.65 34.65 0 0 1-6.36-17.58l-.1-1-4.43-4.88h18.62l-4.65 5.42.17 1.37a40.53 40.53 0 0 0 2.77 10.57c3.25 7.88 8.28 11.87 14.93 11.87a16.36 16.36 0 0 0 12.54-5.92 23.1 23.1 0 0 0 5-8.74l.73.3a22.14 22.14 0 0 1-6.94 12.12 20.28 20.28 0 0 1-14.1 5.74z" id="path69" style="fill:#f65e00"/><path class="cls-3" d="m360.64 304.48-2.88 3.35-.6.7.11.91.12.91a41.11 41.11 0 0 0 2.84 10.84c2.36 5.71 7 12.52 15.89 12.52a16.62 16.62 0 0 0 8.33-2.17 18.55 18.55 0 0 1-11.06 3.62c-7.25 0-12.92-2.89-17.35-8.84a33.56 33.56 0 0 1-6.1-17.07l-.07-.68-.07-.69-.46-.51-2.63-2.89h14m4-2.08h-22l-.35.37 5.44 6 .07.68a35.65 35.65 0 0 0 6.55 18.1c4.85 6.52 11.07 9.69 19 9.69a21.28 21.28 0 0 0 14.79-6.05 23.17 23.17 0 0 0 7.41-13.53l-2.58-1.05a22.4 22.4 0 0 1-5.13 9.45 15.34 15.34 0 0 1-11.76 5.57c-6.19 0-10.9-3.78-14-11.23a39.64 39.64 0 0 1-2.69-10.3l-.11-.91 5.57-6.5-.26-.29z" id="path71" style="fill:#ffe468"/><path class="cls-4" d="M419.94 335.11v-1.27a10.55 10.55 0 0 0 5.81-9.59V308.8l-5.06-5.36h18.45l-4.48 5.14v13.89a15 15 0 0 0 1.9 7.46 8.56 8.56 0 0 0 4.39 3.81v1.41h-21.01z" id="path73" style="fill:#f65e00"/><path class="cls-3" d="m436.87 304.48-2.73 3.13-.51.58v14.28a16.09 16.09 0 0 0 2 8 9.92 9.92 0 0 0 3.6 3.62h-17.59a11.65 11.65 0 0 0 5.16-9.82v-15.89l-.57-.6-3.12-3.3h13.76m4.06-2.08H419l-.36.37 6.08 6.44v15.08a9.42 9.42 0 0 1-5.81 8.91v3h21.87a10 10 0 0 0 1.25-.08v-3.15a7.24 7.24 0 0 1-4.52-3.54 14 14 0 0 1-1.76-6.95v-13.5l5.47-6.29-.25-.28z" id="path75" style="fill:#ffe468"/><path class="cls-4" d="M493.5 343.68c-2.36 0-10.23-.7-24-2.13l-.95-24.88 2.11-.16a45.36 45.36 0 0 0 8 13.41c5.24 6.35 10.42 9.57 15.38 9.57a14.84 14.84 0 0 0 14.83-15.16c0-5-2.24-11.6-12.95-14.9l-20.35-6h43.5l.67.29-2.8 3.22.87 1.82a23.59 23.59 0 0 1-6 28 26.83 26.83 0 0 1-18.31 6.92z" id="path77" style="fill:#f65e00"/><path class="cls-3" d="m517.72 304.48-1.09 1.27-.87 1 .57 1.21.58 1.22a21.56 21.56 0 0 1 2.16 9.45 21.81 21.81 0 0 1-8 17.37 25.79 25.79 0 0 1-17.61 6.61c-2.24 0-10-.68-23-2l-.88-23h.33a47.42 47.42 0 0 0 7.93 13c5.46 6.6 10.9 9.95 16.19 9.95a15.87 15.87 0 0 0 15.91-16.23c0-10.16-8.57-14.32-13.71-15.9l-13.43-3.95h35m1.56-2.08h-51l27.24 8c10.11 3.12 12.23 9.29 12.23 13.91a13.81 13.81 0 0 1-13.8 14.12c-4.64 0-9.55-3.1-14.59-9.2a43.38 43.38 0 0 1-8.11-13.83l-3.91.29 1 26.78c14.4 1.5 22.61 2.23 25 2.23a27.83 27.83 0 0 0 19-7.14 24.65 24.65 0 0 0 6.3-29.26l-.58-1.22 3.21-3.76-2.14-.94z" id="path79" style="fill:#ffe468"/><path class="cls-5" d="m147.42 371.21-5.73-11.3h-.13v16.87h-4.53v-25h5.83l6.5 13.47h.13l6.67-13.47h5.56v25h-4.53v-16.87h-.13l-5.7 11.3z" id="path81" style="fill:#d5c6bb"/><path class="cls-5" d="M176.79 351.78h14.6v4.13h-9.87v6.2h9.2v4h-9.2v6.43h10v4.17h-14.73z" id="path83" style="fill:#d5c6bb"/><path class="cls-5" d="M205.69 351.78h4.73v20.83h9v4.17h-13.73z" id="path85" style="fill:#d5c6bb"/><path class="cls-5" d="M242.25 376.78h-9.73v-25h9.26c4.5 0 7.57 2.67 7.57 6.63a5.71 5.71 0 0 1-3.67 5.47 6.28 6.28 0 0 1 4.23 6.17c.03 3.73-3.1 6.73-7.66 6.73zm-5-14.53h4.06a3.2 3.2 0 1 0-.06-6.4h-4zm7.86 7.13a3.21 3.21 0 0 0-3.33-3.27h-4.53v6.54h4.46a3.17 3.17 0 0 0 3.4-3.27z" id="path87" style="fill:#d5c6bb"/><path class="cls-5" d="M262.51 364.28c0-7.6 5.3-13 12.73-13 7.43 0 12.73 5.43 12.73 13s-5.29 13-12.73 13-12.73-5.4-12.73-13zm20.63 0c0-5.17-3.13-8.77-7.9-8.77-4.77 0-7.9 3.6-7.9 8.77s3.14 8.8 7.9 8.8 7.9-3.6 7.9-8.83z" id="path89" style="fill:#d5c6bb"/><path class="cls-5" d="M320.57 367.88c0 5.53-3.7 9.43-9.5 9.43s-9.53-3.9-9.53-9.43v-16.1h4.73v16.5a4.79 4.79 0 1 0 9.57 0v-16.5h4.73z" id="path91" style="fill:#d5c6bb"/><path class="cls-5" d="M342.6 367.11h-2.46v9.67h-4.74v-25h9.54c4.86 0 8.4 3.37 8.4 7.7a7.45 7.45 0 0 1-5.74 7.27l6.14 10h-5.37zm6-7.56c0-2-1.57-3.64-4.1-3.64h-4.36v7.3h4.33a3.78 3.78 0 0 0 4.1-3.66z" id="path93" style="fill:#d5c6bb"/><path class="cls-5" d="m382.5 376.78-10.56-16.57h-.14v16.57h-4.53v-25h4.9l10.43 16.57h.14v-16.57h4.53v25z" id="path95" style="fill:#d5c6bb"/><path class="cls-5" d="M402.36 351.78h14.58v4.13h-9.86v6.2h9.2v4h-9.2v6.43h10v4.17h-14.72z" id="path97" style="fill:#d5c6bb"/><path d="m184.47 200.97 18.46 14a54.76 54.76 0 0 1 32.9-10.65h77.78a54.9 54.9 0 0 1 32.23 10.15l17.78-13.49 11.71 11.23a78.5 78.5 0 0 0 5.25-28.32v-54.63a79.52 79.52 0 0 0-79.22-79.22h-54.62a79.52 79.52 0 0 0-79.22 79.22v54.62a78.5 78.5 0 0 0 5.25 28.32z" id="path99" style="fill:url(#linear-gradient)"/><circle class="cls-3" cx="346.46" cy="192.84" r="24.81" id="circle101" style="fill:#ffe468"/><path class="cls-2" d="M313.61 204.31h-77.78c-27.92 0-50.56 19.81-50.56 44.25v5.18a104.54 104.54 0 0 0 55.58 15.61h66.23a104.3 104.3 0 0 0 57.1-16.58v-4.21c0-24.45-22.64-44.25-50.57-44.25z" id="path103" style="fill:#1d2605"/><path class="cls-2" id="polygon105" style="fill:#1d2605" transform="translate(-22.06 -80.89)" d="m181.24 298.12 26.09 31.33 20.65-31.33-21.45-16.26z"/><path class="cls-2" id="polygon107" style="fill:#1d2605" transform="translate(-22.06 -80.89)" d="m410.98 298.12-26.1 31.33-20.64-31.33 21.44-16.26z"/><path class="cls-2" d="M310.54 169.11s50.47-6.89 58.5-32.12c8.03-25.23-41.29-24.67-41.29-24.67s-7.46 1.15-10.9-23.51c-3.44-24.66-18.35-29.26-24.66-21.8-6.31 7.46-10.9 15.49-18.93 19.5h-2.56c-8-4-12.62-12-18.93-19.5-6.31-7.5-21.22-2.87-24.66 21.8-3.44 24.67-10.9 23.51-10.9 23.51s-49.27-.53-41.27 24.71c8 25.24 58.48 32.08 58.48 32.08" id="path109" style="fill:#1d2605"/><path class="cls-7" d="M227.94 113.22s11.35 1.6 18.58 3.1c7.23 1.5 22.14 6.08 33.61 3.21 11.47-2.87 25-3.21 25-3.21l-16.37-13.42s8.6-6.31 8.6-13.19a31.39 31.39 0 0 0-2.86-12.6S275.7 98.68 259 98.79l11.7-12.22s-11.76-1.46-19.76-6.61c-8-5.15-10.9-4.59-13.76 6.88-2.86 11.47-9.24 26.38-9.24 26.38z" id="path111" style="fill:#5a5734"/><path class="cls-8" d="m238.2 114.8 8.65-37.13c-5.06-2.26-7.38-.12-9.7 9.17-2.87 11.47-9.18 26.38-9.18 26.38s4.85.69 10.23 1.58z" id="path113" style="fill:#817e5d"/><path id="polygon115" style="fill:#817161" transform="translate(-22.06 -80.89)" d="M260.35 274.02 292.59 290l40.59-17.03-2.51-34.78 8.48-21.19-48.05-4.01-43.54 6.17 8.76 29.52z"/><path class="cls-2" d="M270.53 177.11a35.58 35.58 0 0 0-3.69.3 6.76 6.76 0 0 1-2.83-.36l-2.54-.89a.47.47 0 0 0-.46.81l3.27 2.78a4.66 4.66 0 0 0 3.08 1.07h6.34a4.66 4.66 0 0 0 3.08-1.07l3.27-2.78a.47.47 0 0 0-.46-.81l-2.54.89a6.76 6.76 0 0 1-2.83.36 35.58 35.58 0 0 0-3.69-.3z" id="path117" style="fill:#1d2605"/><path class="cls-2" d="M324.47 128.82a11.64 11.64 0 0 1-1.11-.52 690.15 690.15 0 0 1-105.66 0 11.64 11.64 0 0 1-1.11.52c-1.72 4.54 2.6 14.53 3.06 17.22.75 4.32 2.7 9.72 7.15 10.3.28 10.82.71 17.28.81 22.14.63 32.19 15.41 48.1 42.92 48.46 27.51-.36 42.29-16.27 42.92-48.46.1-4.86.53-11.32.81-22.14 4.45-.58 6.4-6 7.15-10.3.46-2.69 4.78-12.68 3.06-17.22zm-38.69 55.45c-2.42 6.23-8.87 6.46-11 .56a3.19 3.19 0 0 0-3-2h-2.4a3.18 3.18 0 0 0-3 2c-2.16 5.9-8.61 5.67-11-.56-2.19-5.62-1-9.22 1.38-11.61a58 58 0 0 0 13.87 1.31 58 58 0 0 0 13.87-1.31c2.24 2.39 3.44 5.99 1.28 11.61zm-27.51-13.16c6-5.63 8.62-2.54 12.26-2.27 3.64-.27 6.25-3.36 12.26 2.27a50.68 50.68 0 0 0-7-1.75c-1.55 0-3.64 1.17-5.24 1.25-1.6-.08-3.69-1.27-5.24-1.25a50.68 50.68 0 0 0-7.04 1.75zm42.82-11.49c-1.88 8.43 3.28 13-1.21 23.89a44.82 44.82 0 0 0-1.94-8.91c-3.23-9.48-11.13-14.68-20.08-16.22 3.45-.73 5.46-1.77 4.75-4.78-.5-2.14-1.3-2-1.28.14a3.23 3.23 0 0 1-.09.81.78.78 0 0 1-1.4.26c-.68-1-3.22-2.26-5.94.37a4.46 4.46 0 0 1-6.74 0c-2.72-2.63-5.26-1.41-5.94-.37a.78.78 0 0 1-1.4-.26 3.23 3.23 0 0 1-.09-.81c0-2.18-.78-2.28-1.28-.14-.71 3 1.3 4.05 4.75 4.78-8.95 1.54-16.85 6.74-20.08 16.22a44.82 44.82 0 0 0-1.94 8.91c-4.49-10.89.67-15.46-1.21-23.89-1.59-7.07-8-6.44-10-17.48 10.27-3.46 13.93 3.58 25.2.48a12.52 12.52 0 0 0 3.22-1.38 4.15 4.15 0 0 1 6.22 4.48c-.44 1.9-1.07 2-1.7 3.66a1.17 1.17 0 0 0 1.09 1.61 5.24 5.24 0 0 1 3.47 1.58c-.83-3.57-.65-10.5 1-16.37.63-.07 1.31-.11 2.06-.13 9.19.16 9.06 4.81 15.39 6.55 11.27 3.1 14.93-3.94 25.2-.48-2 11.08-8.44 10.45-10.03 17.52z" id="path119" style="fill:#1d2605"/><path class="cls-2" d="M216.84 128.3a3.11 3.11 0 0 0-.25.52 11.64 11.64 0 0 0 1.11-.52z" id="path121" style="fill:#1d2605"/><path class="cls-2" d="M324.22 128.3a3.11 3.11 0 0 1 .25.52 11.64 11.64 0 0 1-1.11-.52z" id="path123" style="fill:#1d2605"/><ellipse class="cls-10" cx="269.81" cy="145.06" rx="2.87" ry="8.89" id="ellipse125" style="fill:#b1a092"/><path class="cls-2" id="polygon127" style="fill:#1d2605" transform="translate(-22.06 -80.89)" d="m259.87 183.79 5.78-3.67-3.67-5.78 6.41 2.33 1.98-6.65 2.25 6.51 6.28-2.47-3.67 6.06 5.78 3.67-6.84.49 1 6.98-4.73-4.9-4.79 4.9.98-6.91z"/><path class="cls-7" d="M214.78 156.24h5.76c0-6.15-5.76-12.31-5.77-18.46l-16.08-1.51c8.45-5.06 18.68-7.42 28.85-7.88 10.17-.46 20.34.91 30.3 2.79a47.34 47.34 0 0 0-19.42-8.74 91.69 91.69 0 0 0-21.84-1.72 87.26 87.26 0 0 0-18.74 2.21c-5 1.23-12.53 3.42-14.35 8.38-1 2.7.47 5.62 2.27 8 6.66 8.62 17.88 13.53 29.02 16.93z" id="path129" style="fill:#5a5734"/><path class="cls-8" d="M216.58 120.72a87.26 87.26 0 0 0-18.74 2.21c-5 1.23-12.53 3.42-14.35 8.38-1 2.7.47 5.62 2.27 8a36.79 36.79 0 0 0 9.18 8.28s-15.51-21.98 21.64-26.87z" id="path131" style="fill:#817e5d"/><path class="cls-4" d="M271.09 287.66a4.17 4.17 0 0 1-3.65-2.14l-39.87-72a4.17 4.17 0 0 1 3.65-6.19 4.12 4.12 0 0 1 1.95.49c.14.07 14.47 7.47 36.5 7.47a107 107 0 0 0 39.27-7.66 4.32 4.32 0 0 1 1.53-.29 4.17 4.17 0 0 1 3.66 6.17l-39.37 72a4.15 4.15 0 0 1-3.64 2.16z" id="path133" style="fill:#f65e00"/><path class="cls-2" d="m310.45 211.51-39.36 72-39.87-72s15 8 38.45 8a110.88 110.88 0 0 0 40.78-8m0-8.34h-.72a8.34 8.34 0 0 0-2.5.62 102.86 102.86 0 0 1-37.56 7.32c-20.81 0-34.41-6.91-34.54-7a8.34 8.34 0 0 0-11.19 11.44l39.87 72a8.34 8.34 0 0 0 7.3 4.29 8.33 8.33 0 0 0 7.29-4.33l39.26-71.79a8.34 8.34 0 0 0-6.91-12.53zm0 16.68z" id="path135" style="fill:#1d2605"/><path class="cls-4" d="M318.05 212.11a5.11 5.11 0 0 1-5.11-5.11v-4.3a16.59 16.59 0 0 1 16.58-16.59h12.82a5.11 5.11 0 0 1 5.11 5.11v4.3a16.6 16.6 0 0 1-16.58 16.59z" id="path137" style="fill:#f65e00"/><path class="cls-2" d="M342.34 191.2v4.3a11.5 11.5 0 0 1-11.47 11.47h-12.82v-4.3a11.5 11.5 0 0 1 11.47-11.47h12.82m0-10.23h-12.82a21.73 21.73 0 0 0-21.7 21.7v4.3a10.23 10.23 0 0 0 10.23 10.22h12.82a21.71 21.71 0 0 0 21.69-21.69v-4.3a10.22 10.22 0 0 0-10.22-10.23z" id="path139" style="fill:#1d2605"/><path class="cls-4" d="M325.94 231.18a11.06 11.06 0 0 1-11-11v-2.95a3.19 3.19 0 0 1 3.19-3.19h8.77a11 11 0 0 1 11 11v2.94a3.19 3.19 0 0 1-3.19 3.2z" id="path141" style="fill:#f65e00"/><path class="cls-2" d="M326.82 217.19a7.87 7.87 0 0 1 7.85 7.85v2.94h-8.73a7.87 7.87 0 0 1-7.84-7.84v-2.95h8.77m0-6.39h-8.77a6.39 6.39 0 0 0-6.39 6.39v2.92a14.25 14.25 0 0 0 14.23 14.26h8.78a6.39 6.39 0 0 0 6.39-6.39v-2.94a14.26 14.26 0 0 0-14.24-14.24Z" id="path143" style="fill:#1d2605"/><path d="M248.4 217.22a72.61 72.61 0 0 1-17.18-5.71l38.72 69.93-6.67-26.26 7.51-16.68z" id="path145" style="fill:#fd9d6b"/><path class="cls-2" d="M231.22 211.51s9.52 23 26.62 26.87l-9.46 9.12" id="path147" style="fill:#1d2605"/><path class="cls-2" id="polyline149" style="fill:#1d2605" transform="translate(-22.06 -80.89)" d="M293.42 368.51v-23.52l29.44-22.27"/><path class="cls-10" d="M237.81 141.35s12.72 4.46 20.55-.07c0 0-8.91 16.74-20.55.07z" id="path151" style="fill:#b1a092"/><path class="cls-10" d="M281.59 141.35s12.72 4.46 20.55-.07c0 0-8.91 16.74-20.55.07z" id="path153" style="fill:#b1a092"/><path class="cls-2" d="M173.08 183.5c-.65.35-1.76.39-1.86 1.13-.19 1.31 1 1.79 2.21 1.5a9.93 9.93 0 0 1 2.3-.19c1.53.45 1.93-.09 1.93-.09s3.64 4 6.42 5c1.24.44 2.4.23 2.8 1.74a6.24 6.24 0 0 1-.08 3.32 3.05 3.05 0 0 0 .13 2.39c1.16 1.86 4.46 2.36 3.65 1.33-.08-.11-.31-.08-.45-.08.3-.1.07-.57-.32-.56.68-.63-1-1-1.18-1.29-.37-.7.22-4.82.68-6.11 2 .64 6.41-1.58 8.19-1.06-.42 4.12 9.51 11.81 10.09 13.13a9.72 9.72 0 0 1-.12 7.08c-3 5.77.34 8.62.55 8.54.21-.08.26-.43.16-.74.14 0 .47.27.66.05.19-.22-.08-.86-.25-1.24 1.08-.45.27-1.85.2-2.45-.28-2.42 2.82-8.22 3.07-9.28a3 3 0 0 0-.83-3c-1.14-1.15-2.12-2.26-3.21-3.5-.93-1.06-3.21-5.05-1.86-6.68.82-1 4.66-1.81 5.47-4 3.54 13.42 8.32 27.47 19 25-9.7.95-13.95-20.44-14.25-22.88-.3-2.44-2.14-12.51-14.91-14.31-9.73-1.38-14.5 8.27-18.5 7.7-1.3-.18-1.35-2.33-2.17-3.27a2.74 2.74 0 0 0 1.62-1.23c.13-.36.71-2 .47-2.36a3.91 3.91 0 0 0-2.62.76 5.65 5.65 0 0 0-1.84 1.17c-.31.35-.54.82-1 1.05-.46.23-1-.06-1.84.41-.52.28-1.61 2.63-2.31 3.02z" id="path155" style="fill:#1d2605"/><path d="M215.94 202.22a18.73 18.73 0 0 0 9.56 11.89s-5.58-.22-11.63-7.52" id="path157" style="fill:#f8c109"/><rect class="cls-13" x="155.28" y="392.26" width="31.69" height="13.53" rx="6.76" id="rect159" style="fill:none;stroke:#817161;stroke-width:6.67000008px;stroke-linecap:round;stroke-linejoin:round"/><path class="cls-14" id="line161" style="fill:none;stroke:#817161;stroke-width:6.67000008px;stroke-miterlimit:10" d="M154.45 399.02h-15.06"/><rect class="cls-13" x="208.24" y="392.26" width="31.69" height="13.53" rx="6.76" id="rect163" style="fill:none;stroke:#817161;stroke-width:6.67000008px;stroke-linecap:round;stroke-linejoin:round"/><path class="cls-14" id="line165" style="fill:none;stroke:#817161;stroke-width:6.67000008px;stroke-miterlimit:10" d="M207.4 399.02h-19.22"/><rect class="cls-13" x="261.61" y="392.26" width="31.69" height="13.53" rx="6.76" id="rect167" style="fill:none;stroke:#817161;stroke-width:6.67000008px;stroke-linecap:round;stroke-linejoin:round"/><path class="cls-14" id="line169" style="fill:none;stroke:#817161;stroke-width:6.67000008px;stroke-miterlimit:10" d="M260.77 399.02h-19.23"/><rect class="cls-13" x="314.14" y="392.26" width="31.69" height="13.53" rx="6.76" id="rect171" style="fill:none;stroke:#817161;stroke-width:6.67000008px;stroke-linecap:round;stroke-linejoin:round"/><path class="cls-14" id="line173" style="fill:none;stroke:#817161;stroke-width:6.67000008px;stroke-miterlimit:10" d="M313.31 399.02h-19.23"/><rect class="cls-13" x="367.09" y="392.26" width="31.69" height="13.53" rx="6.76" id="rect175" style="fill:none;stroke:#817161;stroke-width:6.67000008px;stroke-linecap:round;stroke-linejoin:round"/><path class="cls-14" id="line177" style="fill:none;stroke:#817161;stroke-width:6.67000008px;stroke-miterlimit:10" d="M366.26 399.02h-19.23"/><path class="cls-14" id="line179" style="fill:none;stroke:#817161;stroke-width:6.67000008px;stroke-miterlimit:10" d="M416.29 399.02h-19.22"/></svg>