<svg xmlns="http://www.w3.org/2000/svg" id="Layer_1" width="578.877" height="376.686" data-name="Layer 1" version="1.1"><defs id="defs4"><style id="style2">.cls-8{fill:#ddc194}.cls-3{fill:#351a06}.cls-4{fill:#512c14}.cls-5{fill:#9a683c}.cls-6{fill:#777169}.cls-7{fill:#ffb600}</style></defs><path id="path8" d="M568.869 39.282c-12.84 17.35-42 30.12-42 30.12 16-23.4.17-51.08.17-51.08-52.25 74.48-148.35 70.28-148.35 70.28l-28.61 21.26c-3.31-11.49-15.43-20.38-30.56-22.19l2.66-11.09-28.45 7.11-3.6 6.65-.61.4-3.84-7.15-28.21-7 2.61 10.94c-15.61 1.38-28.29 10.26-31.89 21.9l-28-20.82s-96.1 4.2-148.35-70.28c0 0-15.88 27.68.17 51.08 0 0-29.16-12.77-42-30.12 0 0-6.36 38.72 33.35 67.75 0 0-13.56-2.06-21.16-6.94 0 0 17 46.16 59.38 49.47l-16.36 4.77s10.85 15.27 29.06 23.41l-9.43 4.59s12.33 15.83 31.09 18.73l-.18.1-16.49 3.39 23 26.65.24-.05 9.45 66.34 23 26h45l-14 39 63.74-16.53-8 19.86h88.89l-8.05-20 64.12 16.62-14-39h52.15l21.07-23.83 9.76-68.52.33.07 23-26.65-15.49-3.18-.56-.33c18.76-2.9 31.09-18.73 31.09-18.73l-9.43-4.55c18.21-8.14 29.06-23.41 29.06-23.41l-16.34-4.78c42.34-3.31 59.38-49.47 59.38-49.47-7.6 4.88-21.16 6.94-21.16 6.94 39.71-29.01 33.35-67.73 33.35-67.73z" style="fill:#ddc194;stroke:#ddc194;stroke-width:19.65999985px;stroke-miterlimit:10"/><path id="path10" d="m319.549 131.572 59.14-44s96.1 4.21 148.35-70.27c0 0 15.88 27.68-.17 51.08 0 0 29.16-12.77 42-30.13 0 0 6.36 38.73-33.35 67.75 0 0 13.56-2 21.16-6.94 0 0-17 46.17-59.38 49.47l16.34 4.81s-10.85 15.26-29.06 23.41l9.43 4.54s-12.33 15.84-31.09 18.73l7.66 4.5s-21.78 17.6-69.9 5.74l5.94 9.77s-21.47 11.42-82.21 0h-69.98c-60.74 11.42-82.21 0-82.21 0l5.94-9.77c-48.12 11.86-69.9-5.74-69.9-5.74l7.66-4.5c-18.74-2.87-31.07-18.68-31.07-18.68l9.43-4.54c-18.21-8.18-29.06-23.46-29.06-23.46l16.34-4.79c-42.34-3.3-59.38-49.47-59.38-49.47 7.6 4.89 21.16 6.94 21.16 6.94-39.71-29-33.35-67.68-33.35-67.68 12.84 17.36 42 30.13 42 30.13-16.05-23.4-.17-51.08-.17-51.08 52.25 74.48 148.35 70.27 148.35 70.27l59.14 44" class="cls-3" style="fill:#351a06"/><path id="path12" d="m319.519 86.692 2.66-11.09-28.45 7.11-3.6 6.69-.61.4-3.84-7.15-28.25-7.05 2.61 10.94c-18.53 1.63-32.93 13.84-32.93 28.67 0 15.94 16.64 28.86 37.15 28.86a43.52 43.52 0 0 0 24.77-7.35 43.52 43.52 0 0 0 24.77 7.35c20.51 0 37.14-12.92 37.14-28.86.04-14.44-13.6-26.4-31.42-28.52z" class="cls-3" style="fill:#351a06"/><path id="path14" d="M43.339 115.582s11.63 15.95 20.93 19.27c9.3 3.32 65.46 4 88.39 3 0-.01-98.69-19.28-109.32-22.27z" class="cls-4" style="fill:#512c14"/><path id="path16" d="m153.799 148.472-72.11 9s10.64 9.31 22.6 11.64c0-.03 22.93-5.68 49.51-20.64z" class="cls-4" style="fill:#512c14"/><path id="path18" d="m150.199 164.442-44.86 20.6s9.63 5.31 24.59 2z" class="cls-4" style="fill:#512c14"/><path id="path20" d="M68.749 80.602c-7.61-12.72-5.8-27.18-5.8-27.18 16 13.25 34 22.92 51.55 30-10.34-1.84-35.33-9.47-46.12-14.43.05-.01-.8 6.69.37 11.61z" class="cls-5" style="fill:#9a683c"/><path id="path22" d="M69.619 88.342c19.41 7.16 38.06 13.21 38.06 13.21-40.68-4.12-69.64-16.76-69.64-16.76a38.1 38.1 0 0 0 2 7.47 77.19 77.19 0 0 1-13.54-22c19.83 12.34 43.06 18.08 43.12 18.08z" class="cls-5" style="fill:#9a683c"/><path id="polygon24" d="m287.88 267.92 11.88 31.66 13.37-31.66-8.24-9.18-5.13 15.52-4.33-14.75z" class="cls-6" style="fill:#777169" transform="translate(-10.571 -111.658)"/><path id="path26" d="m262.629 135.122 15 6.64s-11.97 5.66-15-6.64z" class="cls-7" style="fill:#ffb600"/><path id="path28" d="m314.909 135.122-15 6.64s11.97 5.66 15-6.64z" class="cls-7" style="fill:#ffb600"/><path id="path30" d="M317.429 109.142s5.1-5.31 14.11-1.71c0 0-11.41-13.81-31.83-9.61l.08-.19-10.12 13.41-10.24-13.27-.8-.14-5.24-.61a33 33 0 0 0-25.79 10.36c9-3.6 14.11 1.71 14.11 1.71a20.81 20.81 0 0 0-15.23 12.87l15.23 1.91 27.42 3.62v.1l.4-.05.41.05v-.1l27.49-3.57 15.23-1.91a20.81 20.81 0 0 0-15.23-12.87z" class="cls-5" style="fill:#9a683c"/><path id="path32" d="M341.059 137.592c-4.77-12.44-23.63-13.67-23.63-13.67l-25.39 1.84h-5.5l-25.38-1.84s-18.88 1.23-23.65 13.67l10-1s-7.41 9.47-7.41 14.6l10.05-1.19 2.8 10.34a96.75 96.75 0 0 1 12.21-12.32s-13.33-.89-10.33-18.91l21.73 3.14.4.06a18.47 18.47 0 0 1 8.77 3.49l3.54-4.91 3.24 4.82h.13a18 18 0 0 1 7.4-3.21v-.23l22.12-3.2c2.37 14.18-5.39 17.75-8.8 18.63l-.12.15a97.54 97.54 0 0 1 12.36 12.49l2.83-10.31 10 1.19c0-5.13-7.41-14.6-7.41-14.6z" class="cls-8" style="fill:#ddc194"/><path id="polygon34" d="m288.83 219.69 3.86 19.67 7.68-.08 7.69.08 3.86-19.67-11.55 13.68z" class="cls-8" style="fill:#ddc194" transform="translate(-10.571 -111.658)"/><path id="path36" d="m227.519 120.632-34.09-24.2c-23.62 1.6-53.87-5.81-53.87-5.81 19.22 16.81 49.25 14.41 49.25 14.41l.13.13c1.2 1.18 11.88 10.96 38.58 15.47z" class="cls-5" style="fill:#9a683c"/><path id="path38" d="M535.519 115.582s-11.63 15.95-20.93 19.27c-9.3 3.32-65.46 4-88.39 3 0-.01 98.69-19.28 109.32-22.27z" class="cls-4" style="fill:#512c14"/><path id="path40" d="m425.059 148.472 72.11 9s-10.64 9.31-22.6 11.64c0-.03-22.93-5.68-49.51-20.64z" class="cls-4" style="fill:#512c14"/><path id="path42" d="m428.659 164.442 44.86 20.6s-9.63 5.31-24.59 2z" class="cls-4" style="fill:#512c14"/><path id="path44" d="M510.109 80.602c7.61-12.72 5.8-27.18 5.8-27.18-16 13.25-34 22.92-51.55 30 10.34-1.84 35.33-9.47 46.12-14.43 0-.01.8 6.69-.37 11.61z" class="cls-5" style="fill:#9a683c"/><path id="path46" d="M509.239 88.342c-19.41 7.16-38.06 13.21-38.06 13.21 40.68-4.12 69.64-16.76 69.64-16.76a38.1 38.1 0 0 1-2 7.47 77.19 77.19 0 0 0 13.54-22c-19.83 12.34-43.06 18.08-43.12 18.08z" class="cls-5" style="fill:#9a683c"/><path id="path48" d="m351.339 120.632 34.14-24.2c23.62 1.6 53.87-5.81 53.87-5.81-19.22 16.81-49.25 14.41-49.25 14.41l-.13.13c-1.25 1.18-11.93 10.96-38.63 15.47z" class="cls-5" style="fill:#9a683c"/><path id="polygon50" d="m196.46 473.17 19.16-53.54h162.37l19.16 53.54-100.35-26.02z" class="cls-3" style="fill:#351a06" transform="translate(-10.571 -111.658)"/><path id="polygon52" d="m435.33 434.12 21.07-23.82 10.6-74.46h-30.9l14-35.66H150.07l14 35.66h-31.86l10.29 72.3 22.98 25.98z" class="cls-3" style="fill:#351a06" transform="translate(-10.571 -111.658)"/><path id="path54" d="M194.129 296.702h-29.7c-.11 0-.14 0-.28-.16l-3.67-3.83a.71.71 0 0 1-.21-.47l-1.84-16.16h27.17a1.68 1.68 0 0 0 1.75-1.89v-4.55a1.75 1.75 0 0 0-1.84-1.9h-28.08l-1.89-16.09a.64.64 0 0 1 .09-.52l2.47-2.83c.11-.14.16-.14.22-.14h27.23a1.77 1.77 0 0 0 1.93-1.9v-4.74a1.83 1.83 0 0 0-2-2h-35.95a2.9 2.9 0 0 0-2.33 1.06l-5 5.92a2.49 2.49 0 0 0-.47 2l7.43 45.66a3.74 3.74 0 0 0 1 2.05l7.76 8 .06.06a3.17 3.17 0 0 0 2.11.93h33.9c1 0 1.6-.73 1.62-1.95l.11-4.69c.02-1.13-.57-1.86-1.59-1.86z" class="cls-8" style="fill:#ddc194"/><path id="path56" d="M230.129 241.472a2.35 2.35 0 0 0-2.32-1.91h-17.87a2.73 2.73 0 0 0-2.33 1.93l-11.53 39.25v.06a7 7 0 0 0-.39 2.09v.9c0 1.44.84 2 1.63 2h6.45a1.76 1.76 0 0 0 1.58-1.37l2.28-7.81h21l2.3 7.73c.35 1.16 1 1.41 1.54 1.41h8c.79 0 1.64-.52 1.64-2v-.9a6.74 6.74 0 0 0-.4-2.1zm-10 6.69 6 20.2h-16.1l6.06-20.2z" class="cls-8" style="fill:#ddc194"/><path id="path58" d="M280.999 259.192c-.79 0-1.63.51-1.63 2v15.71a1.75 1.75 0 0 1 0 .29h-15.66c-.07 0-.1 0-.17-.1l-3.39-3.89a.63.63 0 0 1-.15-.47v-20.89a1.83 1.83 0 0 1 0-.19l2.8-3.23c.2-.24.22-.26.57-.26h22.74c1 0 1.63-.75 1.63-1.9v-4.74c0-1.45-.84-2-1.63-2h-30a2.56 2.56 0 0 0-2 1l-5.09 6a3 3 0 0 0-.69 2v26.11a3.07 3.07 0 0 0 .7 2.05l7.11 8.18a2.5 2.5 0 0 0 1.89.84h28.72c1.48 0 2.37-1.07 2.37-2.86v-21.69c0-1.23-.64-2-1.69-2z" class="cls-8" style="fill:#ddc194"/><path id="path60" d="M329.849 276.832h-17.92a.54.54 0 0 1-.43-.23l-3.23-3.69a.55.55 0 0 1-.15-.41v-31c0-1.23-.63-2-1.69-2h-8.33c-1.06 0-1.69.73-1.69 2v33.16a3.08 3.08 0 0 0 .71 2.05l6.95 8a2.7 2.7 0 0 0 2.1 1h23.68c.79 0 1.64-.52 1.64-2v-5c0-1.37-.85-1.88-1.64-1.88z" class="cls-8" style="fill:#ddc194"/><path id="path62" d="M344.509 284.812a3 3 0 0 0 2.13.94h28.24c1.05 0 1.69-.73 1.69-2v-4.68c0-1.23-.64-2-1.69-2h-22.64c-.1 0-.14 0-.27-.16l-3.34-3.83a.63.63 0 0 1-.15-.47v-6.27h26a1.67 1.67 0 0 0 1.69-1.89v-4.56a1.67 1.67 0 0 0-1.69-1.89h-26v-6.32a.78.78 0 0 1 .14-.52l2.42-2.83c.12-.14.16-.14.21-.14h23.57a1.67 1.67 0 0 0 1.69-1.9v-4.74c0-1.23-.63-2-1.69-2h-30.17a2.63 2.63 0 0 0-2.09 1.06l-5.05 5.92a3.09 3.09 0 0 0-.68 2v26.11a3.07 3.07 0 0 0 .7 2.05l6.92 8z" class="cls-8" style="fill:#ddc194"/><path id="path64" d="m431.629 273.722-3.52-5a3.12 3.12 0 0 0-2.58-1.2h-23.68l-.1-.1-2.17-2.49c-.1-.12-.1-.17-.1-.21l.81-13.43a.81.81 0 0 1 .27-.6l2.34-2.25a.82.82 0 0 1 .63-.26h30.22a2.14 2.14 0 0 0 2.26-1.9l.71-4.74a1.55 1.55 0 0 0-1.72-2h-38.28a3.71 3.71 0 0 0-2.66 1.06l-5.5 5.17a3.37 3.37 0 0 0-1.54 2.65l-.5 19.27a3.39 3.39 0 0 0 .9 2.72l4.11 5.31a2.29 2.29 0 0 0 1.79.83h23.64a.68.68 0 0 1 .45.21l1.93 2.43.09.12-1.71 14.55a.64.64 0 0 1-.22.41l-2 2.18a1.08 1.08 0 0 1-.66.2h-36.3c-.81 0-1.68.51-1.68 1.95v4.74c0 1.44.85 1.95 1.64 1.95h41.12a4 4 0 0 0 2.61-1.14l5.75-5.71a4.3 4.3 0 0 0 1.23-2.42l3-19.71a3.56 3.56 0 0 0-.58-2.59z" class="cls-8" style="fill:#ddc194"/><path id="path66" d="M232.359 296.892h-2.42a.88.88 0 0 0-.8.49l-4.05 7-4-6.95a.88.88 0 0 0-.79-.5h-2.67a.84.84 0 0 0-.86.91v10.06a.74.74 0 0 0 .74.79h1.57a.73.73 0 0 0 .74-.79v-5.36l3.43 5.71a.84.84 0 0 0 .75.44h2a.87.87 0 0 0 .75-.44l3.41-5.71v5.36a.74.74 0 0 0 .75.79h1.59a.73.73 0 0 0 .74-.79v-10.1a.83.83 0 0 0-.88-.91z" class="cls-6" style="fill:#777169"/><path id="path68" d="m260.549 307.202.5-.18-3.25-9.47a1 1 0 0 0-.92-.66h-5a1 1 0 0 0-.92.67l-3.24 9.46a1.71 1.71 0 0 0-.14.62v.22a.74.74 0 0 0 .75.79h1.81a.78.78 0 0 0 .72-.55l.57-1.66h5.51l.59 1.67a.71.71 0 0 0 .69.54h2.21a.74.74 0 0 0 .75-.79v-.22a2 2 0 0 0-.13-.62zm-6.76-7.61h.73l1.48 4.24h-3.7z" class="cls-6" style="fill:#777169"/><path id="path70" d="M287.489 296.892h-1.68a.73.73 0 0 0-.76.79v5.74l-6.07-6.08a1.45 1.45 0 0 0-1.09-.48h-1.46a.87.87 0 0 0-.89 1v10a.73.73 0 0 0 .74.79h1.64a.73.73 0 0 0 .74-.79v-5.72l6.12 6a1.46 1.46 0 0 0 1.1.49h1.46a.87.87 0 0 0 .89-1v-10a.73.73 0 0 0-.74-.74z" class="cls-6" style="fill:#777169"/><path id="path72" d="M306.079 296.892h-2.34a.75.75 0 0 0-.76.79v10.18a.74.74 0 0 0 .76.79h2.34a.74.74 0 0 0 .76-.79v-10.18a.75.75 0 0 0-.76-.79z" class="cls-6" style="fill:#777169"/><path id="path74" d="M331.279 305.872h-5l-.82-.81v-7.38a.74.74 0 0 0-.76-.79h-2.35a.74.74 0 0 0-.76.79v8a1 1 0 0 0 .3.73l1.94 1.92a1.11 1.11 0 0 0 .79.33h6.67a.74.74 0 0 0 .74-.79v-1.2a.73.73 0 0 0-.75-.8z" class="cls-6" style="fill:#777169"/><path id="path76" d="m358.799 307.202.5-.18-3.25-9.47a1 1 0 0 0-.92-.66h-5a1 1 0 0 0-.92.67l-3.25 9.47a1.84 1.84 0 0 0-.12.61v.22a.73.73 0 0 0 .74.79h1.81a.77.77 0 0 0 .72-.55l.57-1.66h5.51l.59 1.67a.71.71 0 0 0 .69.54h2.24a.74.74 0 0 0 .75-.79v-.22a2 2 0 0 0-.13-.62zm-6.76-7.61h.74l1.47 4.24h-3.7z" class="cls-6" style="fill:#777169"/><path id="path78" d="M177.609 224.932h1.75c.1 0 1 0 .53-1.31l-3.61-10 7.19 10.4a1.72 1.72 0 0 0 1.38.92h2.24c.23 0 .76-.09.75-.92v-10.39l3.26 10c.41 1.27 1.33 1.31 1.43 1.31h1.78c.1 0 1 0 .59-1.31l-6.41-20.4c-.47-1.49-1.51-1.56-1.71-1.56h-2.85c-.39 0-.85.18-.86 1v13.43l-9.19-13.43a1.93 1.93 0 0 0-1.54-1h-3.19c-.2 0-1.19.07-.64 1.56l7.6 20.4c.48 1.26 1.4 1.3 1.5 1.3z" class="cls-5" style="fill:#9a683c"/><path id="path80" d="M201.989 224.232a1.69 1.69 0 0 0 1.26.7h9a.86.86 0 0 0 .87-.68l.86-2.93a2.39 2.39 0 0 0 0-1.24l-3.43-13.57a3.14 3.14 0 0 0-.61-1.24l-2.51-2.93a1.75 1.75 0 0 0-1.31-.69h-9.62a.88.88 0 0 0-.92.68l-.85 2.93a2.35 2.35 0 0 0 .08 1.24l4.05 13.57a3.51 3.51 0 0 0 .67 1.25zm-1.92-16.44.35-1.22h4.51l1 1.21a1.78 1.78 0 0 1 .07.17l2.85 10.68a.72.72 0 0 1 0 .17l-.34 1.22h-4.34l-1-1.22a.51.51 0 0 1-.06-.17l-3-10.68a.81.81 0 0 1-.04-.16z" class="cls-5" style="fill:#9a683c"/><path id="path82" d="M221.119 224.932h1.83c.1 0 1 0 .71-1.31l-2.53-11.28 9 11.48a2.16 2.16 0 0 0 1.69 1.07h1.61c.27 0 1.14-.12.85-1.66l-3.85-20.26a1.4 1.4 0 0 0-1.33-1.31h-2c-.11 0-1.08 0-.82 1.31l2.3 11.26-9.15-11.5a2.32 2.32 0 0 0-1.81-1.07h-1.75c-.29 0-1.22.12-.86 1.65l4.82 20.31c.28 1.27 1.19 1.31 1.29 1.31z" class="cls-5" style="fill:#9a683c"/><path id="path84" d="m254.789 223.592-.08-.6a3 3 0 0 0-.22-.83l-4.84-10.48 2.09-7.3a2 2 0 0 0 0-.69l-.09-.75a1.35 1.35 0 0 0-1.26-1.28h-2.37c-.25 0-.69.1-.9.78l-2 7.71h-3.24l-1.17-7.18a1.35 1.35 0 0 0-1.3-1.31h-2.81c-.11 0-1.07 0-.84 1.31l3.67 20.65c.23 1.27 1.14 1.31 1.24 1.31h2.62c.1 0 1 0 .8-1.31l-1.46-9h3.18l4.45 9.5c.36.73.84.84 1.09.84h2.55c.14-.03 1.05-.07.89-1.37z" class="cls-5" style="fill:#9a683c"/><path id="path86" d="M261.539 224.192v.06a1.51 1.51 0 0 0 1.18.68h8.87c.11 0 1 0 .92-1.31l-.08-2.28c-.09-1.28-1-1.31-1.13-1.31h-6.94l-1.18-1.69v-.13l-.29-2.76h7.9c.39 0 1-.27.95-1.29l-.16-2.22a1.22 1.22 0 0 0-1.16-1.28h-8l-.28-2.73a.63.63 0 0 1 0-.16l.57-1.2h7.52c.4 0 1.06-.27 1-1.28l-.17-2.32c-.1-1.28-1.08-1.31-1.19-1.31h-10.22a1.16 1.16 0 0 0-1.11.77l-1.36 2.9a2 2 0 0 0-.14 1.09l1.48 12.75a2.46 2.46 0 0 0 .39 1.1z" class="cls-5" style="fill:#9a683c"/><path id="path88" d="m281.649 217.152.29 6.47c.06 1.27 1 1.31 1.06 1.31h2.62c.11 0 1 0 1-1.31l-.2-6.47 4.48-6.43a1.87 1.87 0 0 0 .27-1.05l-.11-6.7c0-1.28-1-1.31-1.12-1.31h-2.55c-.12 0-1.1 0-1.06 1.31l.18 6.05a.48.48 0 0 1 0 .19l-2.59 3.7-2.88-3.7a1 1 0 0 1 0-.19l-.28-6.05c-.06-1.28-1-1.31-1.15-1.31h-2.63c-.11 0-1.07 0-1 1.31l.41 6.7a2 2 0 0 0 .37 1.09z" class="cls-5" style="fill:#9a683c"/><path id="path90" d="M302.099 215.662v-1.07c0-1-.65-1.31-1-1.31h-4.84c-.5 0-1 .41-1 1.31v1.07c0 1 .65 1.31 1 1.31h4.79c.09 0 1.03-.04 1.05-1.31z" class="cls-5" style="fill:#9a683c"/><path id="path92" d="M308.899 224.192v.06a1.28 1.28 0 0 0 1.08.68h8.87c.11 0 1 0 1.12-1.31l.16-2.29c.09-1.28-.83-1.31-.94-1.31h-6.94l-.82-1.68a.6.6 0 0 1 0-.13l.13-2.76h7.87a1.21 1.21 0 0 0 1.14-1.29l.16-2.22c.07-1-.58-1.28-1-1.28h-8l.12-2.73v-.16l.75-1.2h7.52a1.22 1.22 0 0 0 1.17-1.28l.17-2.32c.09-1.28-.89-1.31-1-1.31h-10.15a1.38 1.38 0 0 0-1.22.77l-1.79 2.9a2.24 2.24 0 0 0-.3 1.09l-.38 12.75a2.11 2.11 0 0 0 .22 1.1z" class="cls-5" style="fill:#9a683c"/><path id="path94" d="m340.119 223.622.06-.44a5.31 5.31 0 0 0 0-1l-.78.14.77-.16-1.3-19.19c-.1-1.14-.84-1.26-1.15-1.26h-6a1.67 1.67 0 0 0-1.43 1.27l-5.54 19.2a5.92 5.92 0 0 0-.21 1v.44c-.11 1.27.79 1.31.89 1.31h2c.18 0 .78-.07 1.09-1l1-3.45h5.83l.25 3.46c.08.92.62 1 .85 1h2.5c.1-.01 1-.05 1.17-1.32zm-6.39-17h.43l.81 9.16h-4.05z" class="cls-5" style="fill:#9a683c"/><path id="path96" d="M347.869 206.732h3.74l-2.73 16.89c-.2 1.27.69 1.31.79 1.31h2.64c.38 0 1.06-.28 1.25-1.31l3-16.89h3.72c.11 0 1.06 0 1.31-1.32l.46-2.44c.2-1-.43-1.31-.83-1.31h-12.59a1.38 1.38 0 0 0-1.28 1.31l-.36 2.44c-.16 1.04.44 1.32.88 1.32z" class="cls-5" style="fill:#9a683c"/><path id="path98" d="M363.429 224.932h2.61c.38 0 1.08-.28 1.31-1.31l4.51-20.65c.2-.9-.28-1.31-.81-1.31h-2.8a1.48 1.48 0 0 0-1.36 1.31l-4.22 20.65c-.17 1.03.42 1.31.76 1.31z" class="cls-5" style="fill:#9a683c"/><path id="path100" d="M373.319 224.932h1.83c.1 0 1 0 1.33-1.31l2.77-11.28 3.61 11.48c.23.88.76 1.07 1.18 1.07h1.63c.27 0 1.2-.12 1.63-1.66l5.68-20.3c.35-1.28-.6-1.31-.71-1.31h-2a1.55 1.55 0 0 0-1.45 1.31l-3 11.26-3.71-11.5a1.32 1.32 0 0 0-1.31-1.07h-1.74c-.3 0-1.28.12-1.65 1.65l-4.76 20.31c-.32 1.31.57 1.35.67 1.35z" class="cls-5" style="fill:#9a683c"/><path id="path102" d="M394.479 224.282a.85.85 0 0 0 .85.65h9c.2 0 1.26-.09 1.82-1.75l3.59-10.62c.43-1.28-.51-1.31-.62-1.31h-2.09a1.62 1.62 0 0 0-1.47 1.31l-2.43 7.46h-4.2l-.44-1.69a.26.26 0 0 1 0-.13l3.15-10.19 1.26-1.4h7.33a1.69 1.69 0 0 0 1.49-1.28l.78-2.32c.43-1.28-.52-1.31-.63-1.31h-10.07a1.9 1.9 0 0 0-1.38.74l-2.59 2.9a3.08 3.08 0 0 0-.58 1.09l-3.76 12.75a2.11 2.11 0 0 0-.07 1.1z" class="cls-5" style="fill:#9a683c"/><path id="polygon104" d="m283.34 437.15-55.87-.94-1.71 9.82z" class="cls-7" style="fill:#ffb600" transform="translate(-10.571 -111.658)"/><path id="polygon106" d="m310.41 437.15 55.87-.94 1.71 9.82z" class="cls-7" style="fill:#ffb600" transform="translate(-10.571 -111.658)"/><path id="polygon108" d="M264.2 446.74h64.87l12.01 29.76h-88.89z" class="cls-3" style="fill:#351a06" transform="translate(-10.571 -111.658)"/><path id="path110" d="M253.999 172.142s-44.53-7.43-74.7 1.74l10.23 6.1c-15.2 4.71-23.57 9.74-23.57 9.74h111.35z" class="cls-8" style="fill:#ddc194"/><path id="path112" d="M325.009 172.142s44.53-7.43 74.71 1.74l-10.24 6.1c15.21 4.71 23.58 9.74 23.58 9.74h-111.36z" class="cls-8" style="fill:#ddc194"/><path id="polyline114" d="m132.81 341.84-22.97-26.64 67.29-13.82-12.46 34.46" class="cls-3" style="fill:#351a06" transform="translate(-10.571 -111.658)"/><path id="polyline116" d="m466.49 341.84 22.97-26.64-67.29-13.82 12.46 34.46" class="cls-4" style="fill:#512c14" transform="translate(-10.571 -111.658)"/><path id="path118" d="m452.179 218.342 6.23-2.85-5.75-3.74-20.61.21a7.79 7.79 0 0 0-.59-2.36l11.66-5 3.22-4.95-5.9-.07-11.11 7.18a7.75 7.75 0 0 0-9.07-.73 7.8 7.8 0 0 1-.93 12.71 7.77 7.77 0 0 0 8.52.91l8.25 8.73 5 1.16-1.67-4.88-9.17-6.93a7.89 7.89 0 0 0 1.48-2.64z" class="cls-7" style="fill:#ffb600"/><path id="path120" d="m128.239 218.342-6.23-2.85 5.75-3.74 20.61.21a7.79 7.79 0 0 1 .59-2.36l-11.66-5-3.22-4.95 5.9-.07 11.11 7.18a7.75 7.75 0 0 1 9.07-.73 7.8 7.8 0 0 0 .93 12.71 7.77 7.77 0 0 1-8.52.91l-8.25 8.69-5 1.16 1.69-4.83 9.17-6.93a7.89 7.89 0 0 1-1.48-2.64z" class="cls-7" style="fill:#ffb600"/><circle id="circle122" cx="286.059" cy="345.922" r="6.64" style="fill:#ddc194;stroke:#ddc194;stroke-width:4.82000017px;stroke-miterlimit:10"/></svg>