<svg xmlns="http://www.w3.org/2000/svg" id="Layer_1" data-name="Layer 1" version="1.1" width="428.991" height="288.254"><defs id="defs4"><style id="style2">.cls-3{fill:#fff}.cls-4{fill:#937bb8}.cls-5{fill:#331b16}.cls-6{fill:#a27267}.cls-7{fill:#5e372c}</style></defs><path class="cls-4" d="m82.2 190.584-34.06 4.74L0 165.834s12.63-39.35 55.65-53" id="path174" style="fill:#937bb8"/><path class="cls-4" id="polyline176" style="fill:#937bb8" transform="translate(-280 -231.866)" d="m676.58 305.2 10.58-.71-6.59 15.71 23.46-1.57-8.08 18.13-24.45 1.64"/><path class="cls-4" d="m416.28 109.854-24.45 1.63a5 5 0 1 1-.66-9.91l21.46-1.44 3.51-7.87-15.24 1a5 5 0 0 1-4.91-6.88l3.48-8.3-2.56.18a5 5 0 0 1-.66-9.92l10.58-.7a5 5 0 0 1 4.91 6.87l-3.48 8.3 15.44-1a5 5 0 0 1 4.87 7l-8.08 18.13a5 5 0 0 1-4.21 2.91z" id="path178" style="fill:#937bb8"/><path class="cls-4" d="M401.76 43.234a12 12 0 0 0-.22-4.77c-7.26-28.58-36.34-35.87-52-35.84L338.61.404a12.22 12.22 0 0 0-2.7-.24l-32.81.89-49-.3c-3.65 0-7.43-.19-11.43-.37-3.37-.15-6.85-.31-10.37-.38h-.17c-42.59-.2-65.44 21.08-70.24 26.11a91.75 91.75 0 0 0-9.49 8.86c-22.71 1.6-40.35 12.54-48.87 30.52-.15.31-.28.62-.4.94a48.32 48.32 0 0 0-4.91 22.95c-33.95 10.83-54.4 25.63-65.88 36.65l-.37.37-7.17 7.51-.37.41a81.68 81.68 0 0 0-11 16.81 11.94 11.94 0 0 0 3.77 14.72l28.69 20.91a11.92 11.92 0 0 0 8.24 2.22l5.43-.56.62-.08c43.23-6.75 83.89-10.71 106.2 14.64 37.03 42.15 77.38 45.41 96.37 44.15a66.66 66.66 0 0 0 11-1.52 11.92 11.92 0 0 0 9-12.49c-.67-8.67 2.13-12.43 4.43-14l15.39 4.91a11.94 11.94 0 0 0 15-7.77l1.27.34a11.92 11.92 0 0 0 14.28-15.64c-.68-1.83-.42-6.52 1.81-10.23 1.78-2.95 3.55-3.19 4.14-3.27a30.62 30.62 0 0 0 22.16-13.64 60.44 60.44 0 0 0 15.43-2.1 11.93 11.93 0 0 0 8.39-10.1l4.29-38.78 13.27-21.29a12 12 0 0 0 1.73-5c1.64-14.82-2.64-34.22-4.4-41.34zm-21 48.14-13.16 21.11a11.72 11.72 0 0 0-1.73 5l-3.59 32.4a46 46 0 0 1-7.27-.22c-6.35-.69-12 3-13 9.33-.49 1.62-1.94 4.21-6.25 4.79-8.83 1.2-16.42 6.39-21.37 14.62a39 39 0 0 0-4.39 11.09l-4.09-1.1a11.93 11.93 0 0 0-14.18 7.12l-1.47-.47a12 12 0 0 0-6-.33c-8.19 1.67-22.16 9.77-25 28.77-14.72.61-45.63-2.85-75-36.25-22.63-25.72-56.85-29.44-88.32-27.34-14 .93-27.5 3-39.16 4.84l-.56.06L40 153.014c1.07-1.46 1.93-2.5 2.25-2.88l6.75-7.08c10.72-10.24 31-24.37 66.65-33.94a11.93 11.93 0 0 0 6.86-18.09c-.81-1.33-1.29-7.76 2.44-15a12.4 12.4 0 0 0 .58-1.29c6.87-13.2 21.35-16.06 32.45-16.11a11.91 11.91 0 0 0 9.11-4.3 69.13 69.13 0 0 1 10.27-10.07 12.32 12.32 0 0 0 1.69-1.62c.16-.19 17.14-18.92 52.84-18.77 3.18.06 6.48.21 9.67.35 4 .18 8.24.37 12.36.39l49.2.3h.39l31.64-.85 10.87 2.21a12.42 12.42 0 0 0 2.79.23c.24 0 23-.59 28.94 15.76L376 53.934a12 12 0 0 0 .27 4.95c1.47 5.58 4.98 21.46 4.52 32.49z" id="path180" style="fill:#937bb8"/><path class="cls-5" d="M58.3 176.564c42.38-6.62 89.76-12.39 117 18.54 45.36 51.54 95.54 38.93 95.54 38.93-1.88-24 15.81-27.64 15.81-27.64l19.52 6.24-3.34-12.73 19.07 5.14c-3.49-9.47 1.71-27.57 15.53-29.45a18.89 18.89 0 0 0 16.31-14.08 53.28 53.28 0 0 0 19.43-1.25l4.59-41.47 14.7-23.59c1.73-15.7-4.71-39.44-4.71-39.44l2.25-14.36c-7.11-28-41.55-26.83-41.55-26.83l-12.23-2.44-33 .89-49.2-.3c-7.11 0-14.54-.6-22-.75-42.28-.19-62 23-62 23A81.39 81.39 0 0 0 158 46.694c-12.1.05-33.85 3.22-43.66 23.91h.09c-5.06 9.84-5.75 21-1.79 27-38.3 10.27-60.35 25.85-72 37l-7.22 7.53a70.22 70.22 0 0 0-9.24 14.07l28.69 20.93z" id="path182" style="fill:#331b16"/><path class="cls-3" d="M339 148.134q.57-15.86 1.13-31.72a166.89 166.89 0 0 1-15.66 11c.07 7.32.11 11 .18 18.31.32 2 1.63 8.06 5.79 7.9a3.26 3.26 0 0 1 .55 0c2.3-.26 3.45-.44 5.75-.81.86-.51 1.97-1.84 2.26-4.68z" id="path184" style="fill:#fff"/><path class="cls-3" d="M364.41 142.134c-.1-9.41-.16-14.11-.26-23.51a137 137 0 0 0-14.15-5.82q-.56 13.41-1.09 26.83c.35 2.07 1.75 8.16 6.24 7.86a4 4 0 0 1 .6 0c2.49-.33 3.74-.47 6.23-.67.96-.5 2.16-1.76 2.43-4.69z" id="path186" style="fill:#fff"/><path class="cls-6" d="m204.46 166.574-44.66-26.05 87.3-2.77c-5.47-3.88-10.64-8.29-14.15-13.69l-4.53-7 13.13-3.35c29.92-7.6 58.19-14.77 82-34.31 1.77-1.45 3.69-3.13 4.18-4.71.39-1.24-2.38-5.17-4-7.51-3.42-4.84-7.29-10.33-6.9-17 .56-9.38 7-17 14.7-22.2-24.78.34-77.74.83-100.62-.85 0 0-38.21 11.05-61 32.36 0 0-25.91-1.73-37.11 17.45 0 0-10.29 40.94 35.54 47.14 0 0-20.94 5.53-50.33-5.66l-54.57 31.41s70.85-14.85 119.31 18.87c3.1 2.16 6 4.2 8.61 6.14z" id="path188" style="fill:#a27267"/><path class="cls-7" d="m374.85 62.874-12.33-1.36-1.73 15.69s-5.74-19.92-19.94-24.9c-7-2.45-6.16-8.43-3.52-13.88-4.73 3.42-8.37 7.81-8.64 12.47-.15 2.53 2.44 6.2 4.73 9.45 3.66 5.19 7.81 11.07 5.68 17.92-1.47 4.72-4.9 7.84-8 10.39-24.6 20.2-52.53 28-82.12 35.51a120.12 120.12 0 0 0 13.75 9.6c2.39 1.52 4.65 2.95 6.81 4.42l15.08 10.3-83 2.64 25.81 15.01-25.94 16.37c27.75 21.86 25.34 26.81 55 27.22 0 0 4.22-27.9 46.82-23.19 0 0-1.24-14.18 13-19.42l-1-11.46s2-12-11.46-23.06c-4.48-3.69-20.82 1.77-24.68-4.33 0 0 43.09.23 60.26-31.91 0 0 16.81 1.86 23.66 11.69l14.09-18z" id="path190" style="fill:#5e372c"/><path class="cls-7" d="m335.9 39.214 13.39-8.19a32.91 32.91 0 0 1 25.82 8.89l-.26 23L357 86.924l-24.4-37.53" id="path192" style="fill:#5e372c"/><path class="cls-5" d="M341.82 35.334c5.18-.07 8.41-.13 8.41-.13s-12.31 13.34-2.63 16.73c9.68 3.39 13.6 17 13.6 17l1.18-10.7 8.41.93 6.88-.81 4.18-16.88-17-15.46-16.61-.22" id="path194" style="fill:#331b16"/><path class="cls-5" d="M207.09 62.414s17.79 32.6 77.68 37.85l19-2.79 26.1-14.34-2.16-8.37c2.25-1.2 1.93-10.84-.62-10.86l-42.67.25-36.57-1.43z" id="path196" style="fill:#331b16"/><ellipse class="cls-5" cx="-3.32" cy="275.821" rx="14.78" ry="26.5" transform="rotate(-77.54)" id="ellipse198" style="fill:#331b16"/><path class="cls-5" d="m284.61 148.484-47.85 9 26.63 11.17s-21.4 5.49-6.9 41.08c14.5 35.59-36.12-6.84-36.12-6.84l-27.52-17.08 22.6-19.43-13.82-15.25 58.16-6.59" id="path200" style="fill:#331b16"/><path class="cls-6" d="M358.55 35.384s24.68-3.14 18.93 15.16c0 0-7.86-13.41-18.93-15.16z" id="path202" style="fill:#a27267"/><path class="cls-3" d="M240.38 70.134s7.2 12.53 25.78 8.37c0 0-15-3.38-17.47-9.05" id="path204" style="fill:#fff"/><ellipse class="cls-3" cx="30.636" cy="266.709" rx="3.9" ry="6.45" transform="rotate(-69.77)" id="ellipse206" style="fill:#fff"/><path class="cls-3" id="polyline208" style="fill:#fff" transform="translate(-280 -231.866)" d="M600.16 274.12 510.86 259l100.62.85"/><path class="cls-5" d="M188.24 119.434s-40.4-8.59-42.43-39c0 0 8.76-7.88 25.46-6.34l18.28-14.5-5.55 23.12-24.63 1.48s3.4 21.67 28.87 35.24z" id="path210" style="fill:#331b16"/><path class="cls-5" d="M167 81.854s1.39 28.29 53.63 42.72l-26.86.3s-33.46-3.91-47.94-44.43z" id="path212" style="fill:#331b16"/><path class="cls-3" d="M145.81 80.444s.9 28.49 22.49 43.64l25.45.79s-34.57-8.15-47.94-44.43z" id="path214" style="fill:#fff"/><path class="cls-5" d="M316.78 50.184s8.44-21.71-16.08-23.56l43.19-1.88-19.63 19.23" id="path216" style="fill:#331b16"/><path class="cls-6" id="polyline218" style="fill:#a27267" transform="translate(-280 -231.866)" d="m634.29 332.91 11.96-14.73 4.54-27.17 4.54-.99.26 8.94 1.54 23.01-14.09 17.98"/><path class="cls-5" id="polygon220" style="fill:#331b16" transform="translate(-280 -231.866)" d="m664.04 324.63 36.08-1.42-2.76 6.16-33.1 1.21z"/><path class="cls-5" id="polygon222" style="fill:#331b16" transform="translate(-280 -231.866)" d="m638.55 310.73 44.68-1.82-2.76 6.15-43.7 1.76z"/><path class="cls-6" id="polygon224" style="fill:#a27267" transform="translate(-280 -231.866)" d="m531.24 352 43.67-9.67-4.62 6.75-42.7 9.42z"/><path class="cls-6" id="polygon226" style="fill:#a27267" transform="translate(-280 -231.866)" d="m550.63 332.52 62.6-13.79-6.75 7.11-57.15 12.08z"/><path class="cls-4" id="polyline228" style="fill:#937bb8" transform="translate(-280 -231.866)" d="m348.94 424.29 42.27 95.83 81.64-64.71-38.69-35.52-40.55-9.62h-42.05"/><path class="cls-4" d="m101.68 96.014-55.05 20.12-29.27-20.63c27.29-34.17 94.08-42 94.08-42z" id="path230" style="fill:#937bb8"/><path class="cls-4" d="M232.12.004c-94.9-.4-153.84 27.88-153.84 27.88l33.16 25.62 30.34-8.23 12.29-1.06L172 23.984l5.79-2.74" id="path232" style="fill:#937bb8"/><path class="cls-5" d="M122.61 260.524a13.3 13.3 0 0 0 4.43-7.46 6 6 0 0 0 4.46-2.93c-5.24-2.52-4.86-6.83-4.86-6.83h11l.56-6.3h-4.94c.5-6.93 6.05-10.4 10-8.09 3.95 2.31 1.38 7 1.38 7s6.13.73 9-7.14c2.87-7.87-1.58-15.55-11.5-12.61-9.92 2.94-12.49 16.7-12.56 21H127s.54-9.77 4.16-17.54 10.53-18.38-2-33.51h-.51c-15.19 15.13-10.13 25.74-7.87 33.51 2.26 7.77 1.09 17.54 1.09 17.54h-2.67c.69-4.31.53-18.07-8.88-21-9.41-2.93-15.22 4.73-13.7 12.61 1.52 7.88 7.77 7.14 7.77 7.14s-1.68-4.73 2.61-7c4.29-2.27 9.25 1.16 8.54 8.09h-4.94l-.55 6.3h11s-.38 4.31-6.06 6.83c0 0 .64 2.31 4 2.94a11 11 0 0 0 3.12 7.46z" id="path234" style="fill:#331b16"/></svg>