<svg xmlns="http://www.w3.org/2000/svg" id="Layer_1" width="360.77" height="374.49" data-name="Layer 1" viewBox="0 0 360.77 374.49"><defs id="defs12649"><clipPath id="clippath"><path id="path12637" d="M252.67 232.41c-57.99 0-105.16 45.6-105.16 101.66v13.46c40.28-9.24 125.25-22.96 210.32-.42v-13.05c0-56.05-47.18-101.66-105.16-101.66z" class="cls-1"/></clipPath><clipPath id="clippath-1"><path id="path12640" d="M230.98 252.66s4.46 16.59 22.17 22.54c0 0 10.28 5.24 25.8-2.67l-1.24 7.91s-14.43 8.78-30.14.17c-15.71-8.62-15.84-22.04-16.59-27.95" class="cls-1"/></clipPath><clipPath id="clippath-2"/><clipPath id="clippath-3"/><style id="style12635">.cls-1{fill:none}.cls-3{fill:#7fb1c6}.cls-4{fill:#7fb1c4}.cls-5{fill:#eff1ec}.cls-6{fill:#84afc0}.cls-9{fill:#2f3c40}.cls-10{fill:#ec6e5f}.cls-11{fill:#f5b731}</style></defs><g id="g13053" transform="translate(-72.3 -170.01)"><path id="path12731" d="M433.06 427.57v-27.53c-.28-8.69-6.35-16.37-14.75-18.69-.1-.03-.2-.05-.3-.08a713 713 0 0 0-37.9-7.98v-23.01c0-14.43-2.4-28.59-7.12-42.1a127.1 127.1 0 0 0-19.74-36.17 127.9 127.9 0 0 0-29.94-27.81 126.8 126.8 0 0 0-37.3-16.94c-8.54-3.31-15.49-10-19.08-18.41L261 194.98l-.35-.83a9.04 9.04 0 0 0-8.32-5.49c-3.62 0-6.89 2.16-8.32 5.49l-.35.83-5.93 13.88a34.24 34.24 0 0 1-20.12 18.81l-1.56.54c-3.74 1.12-7.46 2.43-11.06 3.88-.04.01-.07.03-.11.04-23.24 9.41-43.05 25.35-57.3 46.08-14.61 21.26-22.33 46.18-22.33 72.07v23.01a716 716 0 0 0-37.9 7.98c-.1.02-.2.05-.3.08-8.4 2.32-14.47 10.01-14.75 18.69v49.6c0 7.41 3.29 14.34 9.03 19.02l22.29 18.18c.33.29.68.56 1.05.8-.03 1.6.08 3.2.32 4.77v11.64c0 2.66 1.17 5.18 3.19 6.89a9.05 9.05 0 0 0 7.32 2.03l9.75-1.6v24.09c0 2.66 1.17 5.19 3.2 6.9a9.07 9.07 0 0 0 5.84 2.14q.75 0 1.5-.12l54.45-9.13a378.7 378.7 0 0 1 62.45-5.2c20.87 0 41.87 1.75 62.45 5.2l54.45 9.13q.75.12 1.5.12a9.04 9.04 0 0 0 9.04-9.04v-24.09l9.75 1.6q.735.12 1.47.12c2.13 0 4.21-.75 5.85-2.15a9.06 9.06 0 0 0 3.19-6.89v-11.64c.24-1.58.35-3.17.32-4.77.37-.25.73-.52 1.05-.81l22.28-18.17a24.44 24.44 0 0 0 9.03-19.02v-22.07z" class="cls-4"/><path id="path12733" d="M433.06 416.26v-27.53c-.28-8.69-6.35-16.37-14.75-18.69-.1-.03-.2-.05-.3-.08a713 713 0 0 0-37.9-7.98v-23.01c0-14.43-2.4-28.59-7.12-42.1a127.1 127.1 0 0 0-19.74-36.17 127.9 127.9 0 0 0-29.94-27.81 126.8 126.8 0 0 0-37.3-16.94c-8.54-3.31-15.49-10-19.08-18.41L261 183.67l-.35-.83a9.04 9.04 0 0 0-8.32-5.49c-3.63 0-6.89 2.16-8.32 5.49l-.35.83-5.93 13.88a34.24 34.24 0 0 1-20.12 18.81l-1.56.54c-3.74 1.12-7.46 2.43-11.06 3.88-.04.01-.07.03-.11.04-23.24 9.41-43.05 25.35-57.3 46.08-14.61 21.26-22.33 46.18-22.33 72.07v23.01a716 716 0 0 0-37.9 7.98c-.1.02-.2.05-.3.08-8.4 2.32-14.47 10.01-14.75 18.69v49.6c0 7.41 3.29 14.34 9.03 19.02l22.29 18.18c.33.29.68.56 1.05.8-.03 1.6.08 3.2.32 4.77v11.64c0 2.66 1.17 5.18 3.19 6.89a9.05 9.05 0 0 0 7.32 2.03l9.75-1.6v24.09c0 2.66 1.17 5.19 3.2 6.9a9.07 9.07 0 0 0 5.84 2.14q.75 0 1.5-.12l54.45-9.13a378.7 378.7 0 0 1 62.45-5.2c20.87 0 41.87 1.75 62.45 5.2l54.45 9.13q.75.12 1.5.12a9.04 9.04 0 0 0 9.04-9.04v-24.09l9.75 1.6q.735.12 1.47.12c2.13 0 4.21-.75 5.85-2.15a9.06 9.06 0 0 0 3.19-6.89V481.1c.24-1.58.35-3.17.32-4.77.37-.25.73-.52 1.05-.81l22.28-18.17a24.44 24.44 0 0 0 9.03-19.02v-22.07z" class="cls-10"/><path id="path12735" d="M433.06 408.92v-27.53c-.28-8.69-6.35-16.37-14.75-18.69-.1-.03-.2-.05-.3-.08a713 713 0 0 0-37.9-7.98v-23.01c0-14.43-2.4-28.59-7.12-42.1a127.1 127.1 0 0 0-19.74-36.17 127.9 127.9 0 0 0-29.94-27.81 126.8 126.8 0 0 0-37.3-16.94c-8.54-3.31-15.49-10-19.08-18.41L261 176.33l-.35-.83a9.04 9.04 0 0 0-8.32-5.49c-3.62 0-6.89 2.16-8.32 5.49l-.35.83-5.93 13.88a34.24 34.24 0 0 1-20.12 18.81l-1.56.54c-3.74 1.12-7.46 2.43-11.06 3.88-.04.01-.07.03-.11.04-23.24 9.41-43.05 25.35-57.3 46.08-14.61 21.26-22.33 46.18-22.33 72.07v23.01a716 716 0 0 0-37.9 7.98c-.1.02-.2.05-.3.08-8.4 2.32-14.47 10.01-14.75 18.69v49.6c0 7.41 3.29 14.34 9.03 19.02l22.29 18.18c.33.29.68.56 1.05.8-.03 1.6.08 3.2.32 4.77v11.64c0 2.66 1.17 5.18 3.19 6.89a9.05 9.05 0 0 0 7.32 2.03l9.75-1.6v24.09c0 2.66 1.17 5.19 3.2 6.9a9.07 9.07 0 0 0 5.84 2.14q.75 0 1.5-.12l54.45-9.13a378.7 378.7 0 0 1 62.45-5.2c20.87 0 41.87 1.75 62.45 5.2l54.45 9.13q.75.12 1.5.12a9.04 9.04 0 0 0 9.04-9.04v-24.09l9.75 1.6q.735.12 1.47.12c2.13 0 4.21-.75 5.85-2.15a9.06 9.06 0 0 0 3.19-6.89v-11.64c.24-1.58.35-3.17.32-4.77.37-.25.73-.52 1.05-.81l22.28-18.17a24.44 24.44 0 0 0 9.03-19.02v-22.07z" class="cls-4"/><path id="path12737" d="m134.28 516.81 54.45-9.13a387.1 387.1 0 0 1 127.88 0l54.45 9.13V331.62c0-65.38-53-118.39-118.39-118.39-65.38 0-118.39 53-118.39 118.39z" class="cls-9"/><g id="g12743"><path id="path12739" d="M357.83 501.59q-.525 0-1.05-.09l-39.03-6.54a395 395 0 0 0-65.08-5.42c-21.75 0-43.64 1.82-65.08 5.42l-39.03 6.54q-.525.09-1.05.09a6.366 6.366 0 0 1-6.36-6.37v-66.14c0-3.11 2.25-5.76 5.31-6.28l39.03-6.54c22.13-3.71 44.73-5.59 67.18-5.59s45.05 1.88 67.18 5.59l39.03 6.54c3.07.51 5.31 3.17 5.31 6.28v66.14a6.366 6.366 0 0 1-6.36 6.37" class="cls-4"/><path id="path12741" d="M252.67 417.05c22.09 0 44.34 1.85 66.13 5.5l39.03 6.54v66.14l-39.03-6.54c-21.79-3.65-44.04-5.5-66.13-5.5s-44.34 1.85-66.13 5.5l-39.03 6.54v-66.14l39.03-6.54c21.79-3.65 44.04-5.5 66.13-5.5m0-12.73c-22.8 0-45.75 1.91-68.23 5.68l-39.03 6.54a12.72 12.72 0 0 0-10.62 12.55v66.14c0 3.74 1.65 7.3 4.5 9.71 2.31 1.96 5.23 3.01 8.22 3.01q1.05 0 2.1-.18l39.03-6.54c21.09-3.54 42.63-5.33 64.02-5.33s42.93 1.79 64.02 5.33l39.03 6.54q1.05.18 2.1.18a12.71 12.71 0 0 0 12.72-12.72v-66.14c0-6.22-4.49-11.52-10.62-12.55L320.88 410a414 414 0 0 0-68.23-5.68z" class="cls-9"/></g><g id="g12775"><path id="path12745" d="M424.01 381.67c-.15-4.77-3.53-9-8.12-10.27a703 703 0 0 0-97.32-16.17s-.08 0-.12-.01c-.91-.09-1.82-.16-2.72-.24-1.67-.15-3.34-.3-5.01-.44-1.08-.09-2.17-.17-3.25-.26-1.5-.12-3-.24-4.51-.34-1.12-.08-2.24-.16-3.36-.23-1.48-.1-2.96-.2-4.44-.29-1.12-.07-2.23-.13-3.35-.2l-4.53-.24c-1.07-.05-2.15-.11-3.22-.16-1.61-.07-3.22-.14-4.83-.2-.97-.04-1.94-.08-2.91-.11-1.94-.07-3.88-.12-5.82-.17-.64-.02-1.27-.04-1.91-.05-2.6-.06-5.2-.1-7.8-.13-.5 0-.99 0-1.49-.01-2.1-.02-4.2-.03-6.31-.03h-2.48q-2.67 0-5.34.03c-.91 0-1.82.02-2.72.04l-5.16.09-2.72.06c-1.76.05-3.51.1-5.27.16l-2.55.09q-2.865.105-5.73.24l-2.05.09c-2.47.12-4.95.25-7.42.4-.11 0-.22.01-.33.02-2.72.16-5.44.34-8.15.53-.05 0-.1 0-.15.01-2.55.18-5.1.38-7.65.59l-1.69.15c-2.05.17-4.1.35-6.15.55-.7.06-1.39.13-2.09.2-1.94.19-3.88.38-5.82.59-.71.07-1.43.15-2.14.23-1.97.21-3.94.44-5.9.66-.65.08-1.3.15-1.95.23-2.15.26-4.3.53-6.45.8-.45.06-.89.11-1.34.17a703 703 0 0 0-72.29 13.34c-4.59 1.27-7.96 5.5-8.12 10.27v49.31c0 4.66 2.09 9.07 5.7 12.01l22.59 18.43c2.46 1.42 4.12 4.08 4.09 7.34-.05 1.48.06 2.89.31 4.24v12.39l31.36-5.15c2.91-.45 5.82-.88 8.74-1.29 6.41-.92 12.83-1.75 19.26-2.51l.47-.06c3.08-.36 6.15-.7 9.24-1.02l1.17-.12c2.98-.31 5.95-.6 8.94-.87 15.71 2.81 31.3 6.07 46.82 9.77 4.37.84 8.52 1.25 12.67 1.24 4.15.01 8.3-.4 12.67-1.24 15.52-3.7 31.11-6.96 46.82-9.77a777 777 0 0 1 47.8 5.86l31.36 5.15v-12.39c.25-1.35.37-2.76.31-4.24-.03-3.26 1.63-5.92 4.09-7.34l22.59-18.43c3.61-2.94 5.7-7.36 5.7-12.01v-49.31z" class="cls-9"/><g id="g12767"><path id="path12747" d="M146.81 374.18c-4.28.67-6.42 1.01-10.69 1.75-4.01.69-7.26 4.55-7.26 8.57v28.53c0 4.01 3.25 6.68 7.26 5.99 4.27-.73 6.41-1.08 10.69-1.75 4.01-.62 7.28-4.36 7.28-8.37v-28.52c0-4.02-3.27-6.82-7.29-6.19zm-1.84 5.78v32.6c0 .13-.11.25-.24.27-2.55.41-3.83.61-6.38 1.04-.13.02-.24-.07-.24-.19v-32.6c0-.13.11-.25.24-.27 2.55-.43 3.83-.64 6.38-1.04.13-.02.24.07.24.2z" class="cls-5"/><path id="path12749" d="M176.85 370.19c-4.81.53-7.21.82-12.01 1.44-2.96.38-5.36 3.11-5.36 6.06v10.74c0 1.81.91 3.36 2.42 4.15 3.65 1.89 7.28 3.81 10.9 5.75.07.03.11.1.11.18v10.22c0 .13-.11.25-.24.26-3.1.36-4.65.55-7.75.95-.13.02-.24-.07-.24-.2v-7.24c-2.08.27-3.13.41-5.21.69v6.87c0 2.95 2.4 5.02 5.36 4.64 4.8-.62 7.2-.9 12.01-1.44 2.96-.33 5.37-2.97 5.37-5.92v-12.12c0-1.81-.91-3.39-2.43-4.22-3.62-1.98-7.26-3.93-10.91-5.86a.21.21 0 0 1-.11-.18v-8.34c0-.13.11-.25.24-.26 3.1-.38 4.65-.56 7.75-.9.13-.01.24.08.24.21v3.94c2.09-.23 3.13-.34 5.22-.56v-4.08c0-2.95-2.41-5.1-5.37-4.77z" class="cls-5"/><path id="path12751" d="m203.48 385.73-4.8-17.61c-4.24.33-6.36.52-10.6.92v43.08c2.09-.2 3.14-.29 5.23-.47v-27.43c2.31 8.58 4.62 17.16 6.93 25.75.85 0 1.28-.01 2.13-.02 2.52-9.12 5.04-18.24 7.57-27.36v27.82c3.74-.23 5.61-.34 9.34-.52v-43.08c-4.07.2-6.1.31-10.17.57l-5.64 18.35z" class="cls-5"/><path id="path12753" d="M243.52 366.06c-4.32.06-6.47.1-10.79.23-4.05.12-7.34 3.52-7.34 7.53v28.53c0 4.01 3.29 7.15 7.34 7.03 4.32-.13 6.48-.17 10.79-.23 4.05-.05 7.35-3.32 7.35-7.34v-28.52c0-4.02-3.3-7.28-7.35-7.23m-1.86 5.52v32.6c0 .13-.11.24-.24.24-2.58.04-3.87.07-6.45.14-.13 0-.24-.1-.24-.23v-32.6c0-.13.11-.24.24-.24 2.58-.07 3.87-.09 6.45-.14.13 0 .24.1.24.23" class="cls-5"/><path id="path12755" d="M278.83 389.36c-2.99-6.34-5.99-12.67-9-19l-2-4.18c-4.2-.1-8.41-.15-12.62-.16v5.26c1.36 0 2.04 0 3.4.02v37.83h5.24v-29.77c4.8 10.06 9.59 20.13 14.36 30.21 2.34.09 3.52.14 5.86.24v-43.07c-2.09-.1-3.14-.14-5.24-.22v22.85z" class="cls-5"/><path id="path12757" d="M299.06 367.56c-3.74 14.14-7.48 28.28-11.21 42.42 2.55.13 3.83.2 6.38.36l7.74-29.68 3.75 16.51c-2.77-.21-2.46-.31-5.22-.5 0 1.44-.57 2.16-.57 3.61 3.1.21 3.52.32 6.62.56l2.4 10.55c3.81.31 5.71.48 9.52.85-3.35-14.66-6.7-29.32-10.06-43.97-3.74-.3-5.61-.44-9.35-.69z" class="cls-5"/><path id="path12759" d="M338.33 409.44c0 .13-.11.22-.24.2-4.15-.52-6.23-.76-10.38-1.22a.27.27 0 0 1-.24-.26v-38.1c-2.09-.23-3.13-.34-5.22-.55v37.73c0 2.95 2.41 5.59 5.37 5.92 4.88.55 9.76 1.14 14.63 1.76 2.96.39 5.36-1.67 5.36-4.62v-37.73c-3.71-.52-5.57-.76-9.29-1.23v38.1z" class="cls-5"/><path id="path12761" d="M351.79 382.6c2.08.3 3.12.46 5.2.78v-3.94c0-.13.11-.22.24-.2 2.01.31 3.02.47 5.03.79v37.78c3.71.6 5.56.91 9.26 1.56v-37.78c2.01.35 3.01.53 5.01.9.13.02.24.15.24.28v3.94c2.07.38 3.11.57 5.17.97v-9.43a850 850 0 0 0-30.15-5.07v9.43z" class="cls-5"/><path id="path12763" d="M116.16 379.66c-4.25.86-6.38 1.31-10.62 2.23-3.98.87-7.21 4.88-7.21 8.9v35.15c0 1.56.58 2.91 1.64 3.8l3.88 3.28c1.18.25 1.77.38 2.96.64 3.74-.81 5.61-1.2 9.35-1.96 3.99-.81 7.24-4.69 7.24-8.7v-8.81c-3.06.58-4.59.88-7.64 1.5v11.1a.3.3 0 0 1-.23.28c-1.68.34-2.51.51-4.19.86-.84.18-1.63-.03-2.17-.58-.26-.26-.39-.4-.65-.66-.65-.66-1.01-1.6-1.01-2.64v-37.11c0-.13.1-.26.23-.29 3.06-.66 4.59-.98 7.66-1.6.13-.03.23.06.23.19.05 3.35.08 5.02.13 8.37 3.05-.62 4.57-.92 7.63-1.5v-6.62c0-4.01-3.25-6.66-7.24-5.86z" class="cls-5"/><path id="path12765" d="M407.93 412.74v-3.41c0-1.81-.89-3.69-2.39-5.02-3.58-3.17-7.17-6.33-10.77-9.47a.32.32 0 0 1-.1-.22v-8.34c0-.13.11-.21.23-.19 3.07.65 4.6.98 7.66 1.66.13.03.23.16.23.29v3.94c2.06.46 3.09.69 5.14 1.17v-4.08c0-2.95-2.37-5.9-5.3-6.55a612 612 0 0 0-11.87-2.54c-2.93-.6-5.32 1.33-5.32 4.28V395c0 1.81.9 3.66 2.41 4.95 3.61 3.11 7.2 6.23 10.79 9.36.06.06.1.14.1.22v3.84h.04v10.22c0 1.04-.36 1.97-1.01 2.64-.26.26-.39.4-.65.66-.53.54-1.32.75-2.17.57-1.67-.35-2.51-.53-4.19-.87a.3.3 0 0 1-.23-.28v-11.1c-3.05-.62-4.58-.93-7.64-1.52v8.81c0 4.01 3.25 7.9 7.24 8.71 3.74.76 5.62 1.16 9.35 1.97 1.18-.26 1.77-.38 2.96-.64 1.55-1.32 2.33-1.97 3.88-3.28 1.06-.89 1.64-2.24 1.64-3.79v-12.74h-.04z" class="cls-5"/></g><path id="path12769" d="M131.51 464.95c21.32-3.72 42.73-6.51 64.29-8.39 19.17 3.51 38.15 7.69 57.02 12.55 18.88-4.85 37.88-9.03 57.06-12.52a759 759 0 0 1 64.25 8.41v-36.81c-80.44-14.04-162.18-14.06-242.63-.06v36.81z" class="cls-10"/><path id="path12771" d="M152.59 447.84c.54 1.77.81 2.65 1.36 4.42-1.07-1.44-1.61-2.16-2.68-3.6-1.55-2.08-4.31-2.84-7.05-1.93l-3.12 1.05c.96-.98 1.45-1.47 2.41-2.45 2.12-2.14 2.97-5.15 2.19-7.7l-1.35-4.4c1.07 1.43 1.61 2.14 2.68 3.57 1.55 2.07 4.31 2.83 7.05 1.96 1.25-.4 1.88-.6 3.13-.99-.97.96-1.45 1.44-2.42 2.4-2.12 2.11-2.98 5.12-2.2 7.67" class="cls-5"/><path id="path12773" d="M350.87 440.22c-.97-.96-1.45-1.44-2.42-2.4 1.25.39 1.88.59 3.13.99 2.74.87 5.5.11 7.05-1.95 1.07-1.43 1.61-2.15 2.68-3.57l-1.35 4.4c-.78 2.55.08 5.56 2.19 7.7.97.98 1.45 1.47 2.41 2.45l-3.12-1.05c-2.74-.91-5.5-.15-7.05 1.92-1.07 1.44-1.61 2.16-2.68 3.6.54-1.77.81-2.65 1.36-4.42.78-2.55-.08-5.56-2.2-7.67" class="cls-5"/></g><g id="g12789"><path id="path12777" d="M168.46 429.1c1.36-.11 2.03-.16 3.39-.26 2.33 2.02 3.5 3.03 5.83 5.07 2.32-2.36 3.47-3.54 5.79-5.88 1.33-.09 2-.13 3.33-.21v21.61c-2.09.13-3.13.2-5.22.33v-11.5c-1.33 1.36-2 2.04-3.33 3.4-.5.03-.75.05-1.25.09l-3.33-2.93v11.5c-2.09.15-3.13.23-5.21.4v-21.61z" class="cls-9"/><path id="path12779" d="M197.64 427.2c6.12-.3 12.24-.56 18.37-.79v21.61c-6.13.22-12.25.48-18.37.79zm5.22 4.71c0 3.9.01 7.79.02 11.69 3.16-.15 4.75-.21 7.91-.34v-11.69c-3.17.12-4.76.19-7.92.34z" class="cls-9"/><path id="path12781" d="M226.79 426.1c6.12-.14 12.23-.23 18.35-.29.01 1.98.02 2.98.03 4.96-4.39.03-8.77.09-13.16.17v3.37c4.38-.08 8.77-.14 13.16-.17v13.28c-6.13.05-12.25.15-18.38.29v-4.96c4.38-.1 8.77-.18 13.15-.22v-3.38c-4.39.05-8.77.13-13.15.24v-13.28z" class="cls-9"/><path id="path12783" d="M255.94 425.79c6.13.03 12.25.1 18.38.21v4.96c-4.37-.09-8.75-.15-13.12-.18l-.03 11.69c4.39.03 8.77.1 13.16.18v4.96c-6.13-.11-12.25-.18-18.38-.21v-21.61z" class="cls-9"/><path id="path12785" d="M285.1 426.28c6.13.2 12.25.43 18.37.71v21.61c-6.12-.28-12.25-.52-18.37-.71zm5.23 5.13c0 3.9.01 7.79.02 11.69 3.16.11 4.75.17 7.91.31v-11.69c-3.17-.13-4.75-.2-7.93-.31" class="cls-9"/><path id="path12787" d="M314.25 427.55c2.09.12 3.13.18 5.22.31v16.68c1.42.09 2.13.13 3.54.23v-16.68c2.09.14 3.14.21 5.23.36v16.68c1.42.1 2.13.15 3.54.26v-16.68c2.09.15 3.13.23 5.22.4v21.64c-7.58-.58-15.16-1.1-22.75-1.55v-21.64z" class="cls-9"/></g><path id="path12791" d="M252.67 232.41c-57.99 0-105.16 45.6-105.16 101.66v13.46c40.28-9.24 125.25-22.96 210.32-.42v-13.05c0-56.05-47.18-101.66-105.16-101.66z" class="cls-10"/><path id="polyline12793" d="m197.48 327.9-26 22.82h26l8.52-13.68" class="cls-9"/><path id="polyline12795" d="m258.67 341.69 14.87 13.59-41.46 3.11 15.94-6.26" class="cls-5"/><path id="polygon12797" d="m226.19 358.06-22.22-17.23-5.01-5.79-11.53 20.14z" class="cls-5"/><path id="path12799" d="m193.08 345.32-5.65 9.86 9.42.7c-2.93-3.03-3.67-7.46-3.77-10.56" class="cls-10"/><path id="path12801" d="M198.98 332.79s25.46 38.78 59.69 8.89c0 0-5.62 14.52-24.38 16.52-18.77 2-35.92-12.9-35.31-25.42z" class="cls-4"/><path id="path12803" d="m296.32 221.83-12.27-4.3a43.2 43.2 0 0 1-25.45-23.79l-5.93-13.87-.35-.83-.35.83-5.93 13.87a43.2 43.2 0 0 1-25.45 23.79l-12.27 4.3 17.08 7.24 26.93-15.63 26.93 15.63 17.08-7.24z" class="cls-9"/><g id="g12827" style="clip-path:url(#clippath)"><path id="polygon12805" d="m250.87 261.27-105.9 72.35v1.97l105.9-62.18z" class="cls-9"/><path id="polygon12807" d="m257.41 309.79 105.9-72.35v-1.97l-105.9 62.18z" class="cls-11"/><path id="polygon12809" d="m257.41 289.95 105.9-72.35v-1.97l-105.9 62.18z" class="cls-11"/><path id="polygon12811" d="m257.41 270.11 105.9-72.35v-1.97l-105.9 62.18z" class="cls-11"/><path id="polygon12813" d="m257.41 329.64 105.9-72.36v-1.96l-105.9 62.17z" class="cls-11"/><path id="polygon12815" d="m257.41 349.48 105.9-72.36v-1.96l-105.9 62.17z" class="cls-11"/><path id="polygon12817" d="m257.41 369.32 105.9-72.35V295l-105.9 62.18z" class="cls-11"/><path id="polygon12819" d="m257.41 389.16 105.9-72.35v-1.97l-105.9 62.18z" class="cls-11"/><path id="polygon12821" d="m250.87 281.11-105.9 72.35v1.97l105.9-62.18z" class="cls-9"/><path id="polygon12823" d="m250.87 241.43-105.9 72.35v1.97l105.9-62.18z" class="cls-9"/><path id="polygon12825" d="m250.87 221.59-105.9 72.35v1.96l105.9-62.17z" class="cls-9"/></g><path id="path12829" d="m193.18 474.38-45.67-3.58v24.43s12.22-16.98 45.67-20.85" class="cls-5"/><path id="path12831" d="m312.16 474.38 45.67-3.58v24.43s-12.22-16.98-45.67-20.85" class="cls-5"/><g id="g12895"><path id="path12833" d="m339.29 271.67-10.4-10.44a11.71 11.71 0 0 0-11.62-2.97l-2.59.76c-2.76.81-5.12 2.61-6.64 5.04l-9.51 15.24s-4.69-5.21-10.02-8.14c3.26-5.59 1.38-11.05 1.38-11.05 7.02-18.25.9-27.72.9-27.72l2.09-1.72s-5.79-24.7-34.7-24.09c-20.02.42-25.7 11.19-27.3 17.77-7.42-.95-17.03-1.71-24.4-.65l-10.37 30.95-27.16 11.33a31.06 31.06 0 0 0-12.63 9.69L135 303.3l-7.09 9.39c-1.8 2.38-2.53 5.4-2.04 8.34l.6 3.52c.48 2.86 2.1 5.41 4.47 7.07l6.35 4.44c2.23 1.56 4.97 2.22 7.67 1.85l3.34-.46c3.58-.49 6.68-2.73 8.27-5.98l4.23-8.67-.41-9.5s4.06-11.75 22.81-14.45c18.75-2.69 20.76-1.99 20.76-1.99s6.55 1.54-.33 19.57c0 0-7.34 7.47-6.61 12.2s7.19 19.39 30.37 23.6c23.19 4.22 30.47-10.91 38.98-21.85l9.41-17.08 3.03 17.34s4.84 7.98 17.58 9.01 25.47 1.5 30.9-24.9a10.72 10.72 0 0 0 5.01-8.34l.45-6.41 8.37-17.87c1.66-3.53.93-7.73-1.83-10.49z" class="cls-9"/><path id="polygon12835" d="m222.68 237.63-4.59 16.07 2.09-.62 5.16-15.03 1.56-.6-4.72-5.16 6.15 1.4 1.92-4.32-16.45-1.4z" class="cls-5"/><path id="polygon12837" d="m202.11 254.39 11.71-1.56 3.76-13.86-7.87-10.76z" class="cls-5"/><path id="path12839" d="M150.89 289.4s10.24 4.32 13.77 12.62l4.13-2.29s-5.62-3.99-5.84-10.85c0 0 3.59 7.78 11.51 7.43 0 0-8.67-4.91-2.91-18.38 0 0-3.19 11.77 7 15.03 0 0-4.45-5.1-4.63-9.32 0 0 4.5 6.15 9.29 7 0 0-7.73-7.58-.88-20.32 0 0-3.39 19.44 14.15 21.33 0 0-13.01-7.37-4.82-25.71 0 0-4.57 16.59 13.17 23.23 0 0-12.19-12.69-4.95-28.87l-19.52 5.79a46.7 46.7 0 0 0-23.02 15.37l-6.43 7.93z" class="cls-5"/><path id="path12841" d="M219.49 255.49s9.27 6.47 7.46 25.59c0 0-1.65 10.75-10.13 16.36 0 0 4.51.28 10.57-6.33 0 0-.18 7.94-9.53 12.05 0 0 2.89 5.69 7.8 9.18 0 0-9.64-2.76-14.14-8.91 0 0 4.4 16.2 23.68 21.71 0 0-15.95-1.95-24.69-8.45 0 0 9.61 14.39 28.14 14.65 0 0-8.77 5.14-23.39-2.69 0 0 5.69 9.27 14.21 10.49 8.51 1.22 22.17-.96 27.75-6.49l-9.46 1.47s15.56-7.02 20.89-18.36 8.17-31.03 8.17-31.03-1.66 1.11-4.56 2.23c-16.06 6.2-34.17-1.42-41.32-17.09-2-4.38-4.53-9.86-7.27-15.62z" class="cls-4"/><path id="path12843" d="M230.98 252.66s4.46 16.59 22.17 22.54c0 0 10.28 5.24 25.8-2.67l-1.24 7.91s-14.43 8.78-30.14.17c-15.71-8.62-15.84-22.04-16.59-27.95" class="cls-4"/><path id="path12845" d="M281.57 272.37s1.97 8.91.14 15.33l5.6-5-7.35 13.54s6.7-3.99 11.96-4.75c0 0-13.33 9.78-14.08 16.85 0 0 7.63-7.04 14.38-9.98 0 0-11.29 7.89-8.49 23.63 0 0 .23-6.89 10.88-17.4 0 0-10.33 17.9-1.01 25.43s25.96.99 30.27-21.41c0 0-9.46 1.47-15.7-8.31l-7.31 8.28s-7.22 10.33 1.55 17.35c0 0-6.38-.78-8.31-8.63s7.54-15.04 7.54-15.04-5.5-23.13-20.07-29.9z" class="cls-5"/><path id="path12847" d="M147.54 294.4s9.07 1.72 12.09 10.58l-3.56 3.33s-2.6-5.69-10.61-7.93c-1.03-.29-1.45-1.52-.79-2.36l2.86-3.62z" class="cls-4"/><path id="path12849" d="M144.91 304.95c-.53-.53.02-1.41.73-1.18 2.01.66 4.89 2.29 6.87 6.28 3.33 6.73 3.15 14.67 3.15 14.67s-4.61 3.37-6.11 5.55-3.19-.39-3.26-1.97 4.06-3.88 4.06-3.88l-1.47-9.46s-2.21 3.33-4.18 5.72c-1.03 1.25-1.27 2.97-.67 4.47s1.21 3.45 1.29 5.3c0 0-3.08.65-5.32-2.32a.4.4 0 0 1-.09-.21l-1.1-7.11c-.07-.48-.76-.51-.87-.04l-.82 3.43c-.11.46-.76.45-.87 0l-1.1-4.85c-.1-.45-.73-.47-.86-.03l-.78 2.67c-.14.47-.81.41-.87-.08l-.61-5.5c-.01-.12.03-.25.11-.34l9.2-10.56a.51.51 0 0 1 .59-.13l3.65 1.63c.51.23.96-.42.57-.82l-1.24-1.26z" class="cls-4"/><path id="path12851" d="M312.57 292.18s2.48 3.86 5.63 5.91a6.9 6.9 0 0 0 4.08 1.07l6.11-.26-1.55 5.36c-4.47 1.2-9.28.22-12.81-2.77a19.6 19.6 0 0 1-4.47-5.47l3.01-3.83z" class="cls-4"/><path id="path12853" d="M319.39 290.82s.74-2.28 1.1-4.54c.22-1.37-.53-2.71-1.8-3.28l-3.41-1.52-3.32.14c-.41.02-.55-.54-.17-.72l.81-.37-1.17-2.44c-.16-.34.22-.68.54-.48l1.96 1.25a2.9 2.9 0 0 0 3.95-.81l.06-.09c.67-.98.21-2.32-.91-2.69l-3.84-1.25a3.86 3.86 0 0 0-4.17 1.21l-1.24 1.51a3.41 3.41 0 0 0-.2 4.05l3.49 5.2c1.75 2.6 4.5 4.36 7.59 4.85h.03z" class="cls-4"/><path id="path12855" d="m317.09 292.77 4.45.1 3.69-7.33 3.12-1.19 4.06-3.88-2.71-1.47-1.82 1.7c-.73.68-1.93.26-2.07-.73l-.16-1.13c-.29-2 .71-4.04 2.57-4.85.02-.01.05-.02.07-.03.13-.05.1-.24-.04-.24-1.15.01-3.42.25-4.5 1.84l-1.19 3.15c-.77-.23-1.25-.99-1.14-1.78l.82-5.65 5.08-2.08c.12-.05.1-.22-.02-.24-1.03-.21-3.86-.68-5.96-.17l-1.88 5.37-.97-.43a1.61 1.61 0 0 1-.92-1.8l1.05-5.13 4.88-2.02c.14-.06.08-.26-.06-.24l-6.47.74-1.84 6.43-1.93-.19c-.96-.09-1.62-1-1.42-1.94l.52-2.51a5.38 5.38 0 0 1 4.54-4.25l3.83-.53c2.25-.31 4.51.43 6.14 2l8.4 8.13a8.32 8.32 0 0 1 1.7 9.61l-6.47 13.34-3.45.58c-3.15.53-6.37-.32-8.85-2.33l-1.04-.84z" class="cls-4"/><path id="path12857" d="M203.97 324.38s15.05 30.67 48.73 14.34c0 0-8.16 6.64-15.02 6.94s-27.01-.94-33.71-21.28" class="cls-10"/><path id="path12859" d="m259.37 324.05-14.47-8.71-18.72-.11.83-2.14c6.81-17.68 7.31-36.9 7.32-37.09l3.17.07c-.02.77-.47 18.47-6.73 36.01l15.03.08 12.14 7.31c1.5-3.83 5.15-14.45 7.8-32.56l3.14.46c-3.46 23.7-8.53 34.63-8.74 35.08l-.75 1.59z" class="cls-9"/><g id="g12883"><path id="path12861" d="M252.38 232.07s16.98-15.3 31.79-7.36c0 0-10.61-15.64-25.39-13.96-14.79 1.68-26.74 9.46-27.28 28.24s22.08 31.9 30.86 32.68 20.16-2.65 22.49-10.4l-.42-3.7s-16.63 13.66-36.99-5.42c0 0-6.62 2.89-10.45-2.56.63.9 3.23 1.05 4.19 1.08 2.12.07 4.16-.92 5.57-2.48 1.4-1.57 2.65-3.51 3.1-5.63.53-2.52-.36-4.91-1.47-7.14-.96-1.94-2.7-3.54-4.81-4.02-2.1-.49-4.52.29-5.72 2.08 1.58-.43 3.31-.17 4.78.57 1.46.74 2.67 1.93 3.57 3.31 1.68 2.56 1.89 5.74.17 8.38-1.77 2.7-5.58 4.95-8.8 3.48-3.24-1.48-4.25-6.22-4.37-9.42-.14-3.6 1.13-7.48 4.27-9.52 4.98-3.24 10.74.38 10.74.38s6.07-12.46 28.73-10.76c0 0-20.19 1.23-24.56 12.15z" class="cls-5"/><path id="path12863" d="M279.7 263.5c-.05.02-5.46 2.4-12.56 2.37-8.98-.04-16.47-3.72-22.31-10.94-4.39.79-7.55-.71-9.65-2.48 6.68 11.34 20.7 18.64 27.18 19.22.44.04.89.07 1.35.08 6.87-1.14 13.18-3.84 16.6-7.38l1.96-2.03-2.58 1.15z" class="cls-3"/><path id="path12865" d="m238.21 250.28-1.22-.69c.22.31.68.53 1.22.69" class="cls-3"/><path id="path12867" d="M234.74 241.56s3.52-2 3.62-5.76c0 0 1.7 3.55 6.26 4.64 0 0-2.78 2.46-3.35 6.8-.04.28-1.69-3.94-6.53-5.68" class="cls-5"/><path id="path12869" d="M251.39 235.12s3.48 7.09-1.49 15.15c0 0 11.07 12.65 26.73 9.26s12.35-21.18 11.92-23.55-4.51-14.74-18.41-9.95c0 0 9.95-1.86 15.18 8.87 5.23 10.74-2.66 21.26-11.11 22.22s-10.74-.38-21.74-7.69c0 0 5.15-6.47-1.09-14.32z" class="cls-5"/><path id="path12871" d="M259.54 233.92s8.26-7.36 17.67.13l.77.7 1.06 1.23s4.77 4.27-1.43 15.67c0 0 1.74.19 3.14-2.31 2.01-3.57 3.55-10.75.15-15.72-5.77-8.44-17.68-4.94-21.36.29z" class="cls-11"/><circle id="circle12873" cx="266.27" cy="236.88" r="2.37" class="cls-3"/><path id="path12875" d="M245.89 219.7c5.28-.6 7.29 2.92 7.29 2.92-4.69 2.61-7.07 5.59-7.9 6.8 1.75.51 2.93 1.25 2.93 1.25s6.07-12.46 28.73-10.76c-5.94-5.21-11.87-5.6-11.87-5.6l2.53 3.46c-11.69-4.02-21.71 1.93-21.71 1.93" class="cls-10"/><path id="path12877" d="M244.82 255.6c3.73 6.77 10.05 10.06 14.93 11.66 3.21 1.05 6.7 1.22 10.05.49 3.18-.69 6.18-1.72 8.66-3.05l3.8-2.67c-23.32 11.56-37.44-6.43-37.44-6.43" class="cls-9"/><path id="path12879" d="M240.27 238.18c-1.34-1.2-1.91-2.38-1.91-2.38-.11 3.76-3.62 5.76-3.62 5.76.8.29 1.52.65 2.15 1.04a8.56 8.56 0 0 0 3.38-4.42" class="cls-6"/><ellipse id="ellipse12881" cx="239.68" cy="241.41" class="cls-9" rx="1.83" ry="2.23" transform="rotate(-6.49 239.61 241.401)"/></g><path id="path12885" d="m256.86 311.48-20.23-5.62.42-1.53c2.32-8.35 3.85-24.11 3.87-24.27l3.16.3c-.06.62-1.41 14.48-3.57 23.28l14.12 3.92c1.84-7.01 4.14-17.08 3.84-19.8l3.15-.35c.5 4.46-3.84 20.68-4.34 22.52l-.42 1.54z" class="cls-9"/><g id="g12891"><circle id="circle12887" cx="247.98" cy="304.77" r="11.36" class="cls-5"/><path id="path12889" d="M247.98 317.44c-6.99 0-12.67-5.68-12.67-12.67s5.68-12.67 12.67-12.67 12.67 5.68 12.67 12.67-5.68 12.67-12.67 12.67m0-22.72c-5.54 0-10.05 4.51-10.05 10.05s4.51 10.05 10.05 10.05 10.05-4.51 10.05-10.05-4.51-10.05-10.05-10.05" class="cls-9"/></g><path id="path12893" d="M242.53 304.74c-1.1-.52-1.64-.77-2.74-1.29 1.16-.04 1.75-.07 2.91-.11 2.55-.09 4.64-1.55 5.31-3.74l1.17-3.79c.07 1.63.11 2.45.18 4.08.1 2.36 1.72 4.63 4.13 5.79 1.1.53 1.65.8 2.75 1.33l-2.92.05c-2.56.05-4.64 1.51-5.32 3.71-.47 1.52-.7 2.28-1.17 3.81-.07-1.64-.11-2.46-.18-4.1-.11-2.37-1.72-4.63-4.12-5.76z" class="cls-9"/></g><g id="g13023"><path id="path12897" d="m339.29 271.67-10.4-10.44a11.71 11.71 0 0 0-11.62-2.97l-2.59.76c-2.76.81-5.12 2.61-6.64 5.04l-9.51 15.24s-4.69-5.21-10.02-8.14c3.26-5.59 1.38-11.05 1.38-11.05 7.02-18.25.9-27.72.9-27.72l2.09-1.72s-5.79-24.7-34.7-24.09c-20.02.42-25.7 11.19-27.3 17.77-7.42-.95-17.03-1.71-24.4-.65l-10.37 30.95-27.16 11.33a31.06 31.06 0 0 0-12.63 9.69L135 303.3l-7.09 9.39c-1.8 2.38-2.53 5.4-2.04 8.34l.6 3.52c.48 2.86 2.1 5.41 4.47 7.07l6.35 4.44c2.23 1.56 4.97 2.22 7.67 1.85l3.34-.46c3.58-.49 6.68-2.73 8.27-5.98l4.23-8.67-.41-9.5s4.06-11.75 22.81-14.45c18.75-2.69 20.76-1.99 20.76-1.99s6.55 1.54-.33 19.57c0 0-7.34 7.47-6.61 12.2s7.19 19.39 30.37 23.6c23.19 4.22 30.47-10.91 38.98-21.85l9.41-17.08 3.03 17.34s4.84 7.98 17.58 9.01 25.47 1.5 30.9-24.9a10.72 10.72 0 0 0 5.01-8.34l.45-6.41 8.37-17.87c1.66-3.53.93-7.73-1.83-10.49z" class="cls-9"/><path id="polygon12899" d="m222.68 237.63-4.59 16.07 2.09-.62 5.16-15.03 1.56-.6-4.72-5.16 6.15 1.4 1.92-4.32-16.45-1.4z" class="cls-5"/><path id="polygon12901" d="m202.11 254.39 11.71-1.56 3.76-13.86-7.87-10.76z" class="cls-5"/><path id="path12903" d="M150.89 289.4s10.24 4.32 13.77 12.62l4.13-2.29s-5.62-3.99-5.84-10.85c0 0 3.59 7.78 11.51 7.43 0 0-8.67-4.91-2.91-18.38 0 0-3.19 11.77 7 15.03 0 0-4.45-5.1-4.63-9.32 0 0 4.5 6.15 9.29 7 0 0-7.73-7.58-.88-20.32 0 0-3.39 19.44 14.15 21.33 0 0-13.01-7.37-4.82-25.71 0 0-4.57 16.59 13.17 23.23 0 0-12.19-12.69-4.95-28.87l-19.52 5.79a46.7 46.7 0 0 0-23.02 15.37l-6.43 7.93z" class="cls-5"/><g id="g12909"><path id="path12905" d="m182.74 279.95-.42-9.62s-.8 4.65.42 9.62" class="cls-4"/><path id="path12907" d="M182.32 270.33c-13.63 11.19.88 20.32.88 20.32s-7.73-7.58-.88-20.32" class="cls-4"/></g><g id="g12915"><path id="path12911" d="m164.65 302.03 4.13-2.29s-3.84-2.73-5.3-7.56l-3.66 3.18c1.92 1.82 3.71 4.05 4.83 6.68z" class="cls-4"/><path id="path12913" d="m170.67 280.22.03-.07q.36-1.065.84-2.22s-3.86 3.82-3.86 10.61l-3.2 2.77c1.75 2.25 5.01 5.22 9.97 5 0 0-7.68-4.35-3.78-16.09" class="cls-4"/></g><g id="g12921"><path id="path12917" d="M186.26 279.59s-2.32-.34-3.95-9.26c0 0-3.39 19.44 14.15 21.33 0 0-13.01-7.37-4.82-25.71 0 0-5.46 4.13-5.38 13.64" class="cls-4"/><path id="path12919" d="M195.03 274.73s-3.16-3.67-3.38-8.78c0 0-4.57 16.59 13.17 23.23 0 0-12.19-12.69-4.95-28.87 0 0-5.19 5.71-4.84 14.43z" class="cls-4"/></g><path id="path12923" d="M219.49 255.49s9.27 6.47 7.46 25.59c-.06-.13-1.81 10.41-10.13 16.36 0 0 4.51.28 10.57-6.33 0 0-.18 7.94-9.53 12.05 0 0 2.89 5.69 7.8 9.18 0 0-9.64-2.76-14.14-8.91 0 0 4.4 16.2 23.68 21.71 0 0-15.95-1.95-24.69-8.45 0 0 9.61 14.39 28.14 14.65 0 0-8.77 5.14-23.39-2.69 0 0 5.69 9.27 14.21 10.49 8.51 1.22 22.17-.96 27.75-6.49l-9.46 1.47s15.56-7.02 20.89-18.36 8.17-31.03 8.17-31.03-1.66 1.11-4.56 2.23c-16.06 6.2-34.17-1.42-41.32-17.09-2-4.38-4.53-9.86-7.27-15.62z" class="cls-4"/><path id="path12925" d="M271.28 287.31c-15.82 5.54-33.34-2.09-40.35-17.44-.64-1.4-1.34-2.93-2.08-4.53 1.22 6.34.37 26.54-4.75 45.77.49.43-.65-.5-.11-.11 0 0 .99 1.15-.07.76-.64 2.27-1.37 4.42-2.19 6.39.92.76 1.91 1.51 2.99 2.23 7.26.51 22.71 2.48 29.68 10.02 2.48-1.6 5.32-3.68 7.91-6.18 7.51-9.09 15.48-23 8.96-36.9z" class="cls-5"/><path id="path12927" d="M230.98 252.66s4.46 16.59 22.17 22.54c0 0 10.28 5.24 25.8-2.67l-1.24 7.91s-14.43 8.78-30.14.17c-15.71-8.62-15.84-22.04-16.59-27.95" class="cls-4"/><path id="path12929" d="M242.79 269.62c-9.18-7.23-11.81-16.96-11.81-16.96.6 3.8.95 10.13 4.6 16.82 2.12 3.55 5.34 7.08 10.26 10.12-.05-.27-.08-.53-.12-.79-2.23-3.05-2.83-6.62-2.93-9.19" class="cls-5"/><g id="g12941" style="clip-path:url(#clippath-1)"><path id="path12931" d="M255.42 287.86c-1.76 0-3.51-.2-5.21-.61-5.44-1.29-9.95-4.57-12.4-8.99-2.12-3.83-2.52-8.21-1.12-12.33 2.52-7.41 10.46-12.58 19.3-12.58 1.76 0 3.51.2 5.21.61 5.44 1.29 9.95 4.57 12.4 8.99 2.12 3.83 2.52 8.21 1.12 12.33-2.52 7.41-10.46 12.58-19.3 12.58m.58-31.33c-7.51 0-14.21 4.29-16.3 10.43-1.11 3.26-.79 6.73.89 9.77 2.01 3.64 5.79 6.35 10.35 7.44 1.46.35 2.97.52 4.48.52 7.51 0 14.21-4.29 16.3-10.43 1.11-3.26.79-6.73-.89-9.77-2.01-3.64-5.79-6.35-10.35-7.44a19.3 19.3 0 0 0-4.48-.52" class="cls-9"/><g id="g12937"><ellipse id="ellipse12933" cx="255" cy="271.23" class="cls-9" rx="6.11" ry="6.5" transform="rotate(-74.13 254.99 271.229)"/><path id="path12935" d="M255.21 278.12c-.69 0-1.38-.09-2.08-.29-3.84-1.09-6.13-4.94-5.09-8.58s5-5.71 8.85-4.62c3.84 1.09 6.13 4.94 5.09 8.58-.85 2.98-3.66 4.91-6.77 4.91m-.41-12.29c-2.45 0-4.67 1.5-5.33 3.83-.81 2.85 1.02 5.87 4.07 6.74 3.06.87 6.2-.74 7.01-3.59s-1.02-5.87-4.07-6.74c-.56-.16-1.12-.23-1.67-.23z" class="cls-9"/></g><path id="path12939" d="M254.86 283.23c-1.14 0-2.27-.14-3.37-.41-3.45-.85-6.34-2.99-7.94-5.88-1.47-2.65-1.75-5.69-.81-8.56 1.67-5.07 6.88-8.61 12.68-8.61 1.14 0 2.27.14 3.37.41 3.45.85 6.34 2.99 7.94 5.88 1.47 2.65 1.75 5.69.81 8.57-1.67 5.07-6.88 8.61-12.68 8.61zm.56-21.63c-5.02 0-9.52 3.02-10.95 7.35-.78 2.39-.55 4.91.67 7.11 1.36 2.45 3.83 4.27 6.78 4.99.96.23 1.94.35 2.93.35 5.02 0 9.52-3.02 10.95-7.35.78-2.39.55-4.91-.67-7.11-1.36-2.45-3.83-4.27-6.78-4.99-.96-.23-1.94-.35-2.93-.35" class="cls-9"/></g><path id="path12943" d="M281.57 272.37s1.97 8.91.14 15.33l5.6-5-7.35 13.54s6.7-3.99 11.96-4.75c0 0-13.33 9.78-14.08 16.85 0 0 7.63-7.04 14.38-9.98 0 0-11.29 7.89-8.49 23.63 0 0 .23-6.89 10.88-17.4 0 0-10.33 17.9-1.01 25.43s25.96.99 30.27-21.41c0 0-9.46 1.47-15.7-8.31l-7.31 8.28s-7.22 10.33 1.55 17.35c0 0-6.38-.78-8.31-8.63s7.54-15.04 7.54-15.04-5.5-23.13-20.07-29.9z" class="cls-5"/><g id="g12949"><path id="path12945" d="M317.01 314.6c-10.08.06-10.01-6.39-10.01-6.39-6.5 6.64-7.67 14.05-7.68 14.13.68 1.24 1.67 2.46 3.08 3.59 0 0-4.96-.61-7.45-6.13-1.96-1.33-3.49-2.66-4.67-3.96-1.1 5.09-.97 10.73 3.31 14.18 1.99 1.6 4.31 2.56 6.77 2.87 13.74-6.29 16.66-18.29 16.66-18.29z" class="cls-4"/><path id="path12947" d="M287.88 312.5c-2.37-4.4-1.25-7.75-1.25-7.75-2.34 3.93-4.25 9.68-2.91 17.24 0 0 .12-3.57 4.16-9.48z" class="cls-4"/></g><path id="path12951" d="M147.54 294.4s9.07 1.72 12.09 10.58l-3.56 3.33s-2.6-5.69-10.61-7.93c-1.03-.29-1.45-1.52-.79-2.36l2.86-3.62z" class="cls-4"/><path id="path12953" d="M151.25 295.73c-2.1-1.02-3.72-1.33-3.72-1.33l-2.86 3.62c-.66.84-.24 2.07.79 2.36 1.45.41 2.73.92 3.84 1.5z" class="cls-5"/><path id="path12955" d="M144.91 304.95c-.53-.53.02-1.41.73-1.18 2.01.66 4.89 2.29 6.87 6.28 3.33 6.73 3.15 14.67 3.15 14.67s-4.61 3.37-6.11 5.55-3.19-.39-3.26-1.97 4.06-3.88 4.06-3.88l-1.47-9.46s-2.21 3.33-4.18 5.72c-1.03 1.25-1.27 2.97-.67 4.47s1.21 3.45 1.29 5.3c0 0-3.08.65-5.32-2.32a.4.4 0 0 1-.09-.21l-1.1-7.11c-.07-.48-.76-.51-.87-.04l-.82 3.43c-.11.46-.76.45-.87 0l-1.1-4.85c-.1-.45-.73-.47-.86-.03l-.78 2.67c-.14.47-.81.41-.87-.08l-.61-5.5c-.01-.12.03-.25.11-.34l9.2-10.56a.51.51 0 0 1 .59-.13l3.65 1.63c.51.23.96-.42.57-.82l-1.24-1.26z" class="cls-4"/><path id="path12957" d="M312.57 292.18s2.48 3.86 5.63 5.91a6.9 6.9 0 0 0 4.08 1.07l6.11-.26-1.55 5.36c-4.47 1.2-9.28.22-12.81-2.77a19.6 19.6 0 0 1-4.47-5.47l3.01-3.83z" class="cls-4"/><path id="path12959" d="M319.39 290.82s.74-2.28 1.1-4.54c.22-1.37-.53-2.71-1.8-3.28l-3.41-1.52-3.32.14c-.41.02-.55-.54-.17-.72l.81-.37-1.17-2.44c-.16-.34.22-.68.54-.48l1.96 1.25a2.9 2.9 0 0 0 3.95-.81l.06-.09c.67-.98.21-2.32-.91-2.69l-3.84-1.25a3.86 3.86 0 0 0-4.17 1.21l-1.24 1.51a3.41 3.41 0 0 0-.2 4.05l3.49 5.2c1.75 2.6 4.5 4.36 7.59 4.85h.03z" class="cls-4"/><path id="path12961" d="M313.19 274.03a3.86 3.86 0 0 0-4.17 1.21l-1.24 1.51a3.41 3.41 0 0 0-.2 4.05l.08.12c1.99-3.91 4.8-5.97 6.02-6.73z" class="cls-5"/><path id="path12963" d="m317.09 292.77 4.45.1 3.69-7.33 3.12-1.19 4.06-3.88-2.71-1.47-1.82 1.7c-.73.68-1.93.26-2.07-.73l-.16-1.13c-.29-2 .71-4.04 2.57-4.85.02-.01.05-.02.07-.03.13-.05.1-.24-.04-.24-1.15.01-3.42.25-4.5 1.84l-1.19 3.15c-.77-.23-1.25-.99-1.14-1.78l.82-5.65 5.08-2.08c.12-.05.1-.22-.02-.24-1.03-.21-3.86-.68-5.96-.17l-1.88 5.37-.97-.43a1.61 1.61 0 0 1-.92-1.8l1.05-5.13 4.88-2.02c.14-.06.08-.26-.06-.24l-6.47.74-1.84 6.43-1.93-.19c-.96-.09-1.62-1-1.42-1.94l.52-2.51a5.38 5.38 0 0 1 4.54-4.25l3.83-.53c2.25-.31 4.51.43 6.14 2l8.4 8.13a8.32 8.32 0 0 1 1.7 9.61l-6.47 13.34-3.45.58c-3.15.53-6.37-.32-8.85-2.33l-1.04-.84z" class="cls-4"/><path id="path12965" d="M203.97 324.38s15.05 30.67 48.73 14.34c0 0-8.16 6.64-15.02 6.94s-27.01-.94-33.71-21.28" class="cls-10"/><path id="path12967" d="m259.37 324.05-14.47-8.71-18.72-.11.83-2.14c6.81-17.68 7.31-36.9 7.32-37.09l3.17.07c-.02.77-.47 18.47-6.73 36.01l15.03.08 12.14 7.31c1.5-3.83 5.15-14.45 7.8-32.56l3.14.46c-3.46 23.7-8.53 34.63-8.74 35.08l-.75 1.59z" class="cls-9"/><path id="path12969" d="m258.26 326.73-14.54-9.15-18.7-.14.79-2.16c6.79-18.46 7.51-41.25 7.52-41.48l3.24.09c-.03.92-.69 21.86-6.96 40.34l15.05.12 12.1 7.61c1.5-4.03 5.12-15.1 7.73-33.92l3.21.44c-3.41 24.7-8.46 36.08-8.67 36.55l-.76 1.69z" class="cls-9"/><path id="path12971" d="m256.86 311.48-20.23-5.62.42-1.53c2.32-8.35 3.85-24.11 3.87-24.27l3.16.3c-.06.62-1.41 14.48-3.57 23.28l14.12 3.92c1.84-7.01 4.14-17.08 3.84-19.8l3.15-.35c.5 4.46-3.84 20.68-4.34 22.52l-.42 1.54z" class="cls-9"/><g id="g12977"><circle id="circle12973" cx="247.98" cy="304.96" r="13.25" class="cls-4"/><path id="path12975" d="M247.98 319.74c-8.15 0-14.78-6.63-14.78-14.78s6.63-14.78 14.78-14.78 14.78 6.63 14.78 14.78-6.63 14.78-14.78 14.78m0-26.5c-6.46 0-11.72 5.26-11.72 11.72s5.26 11.72 11.72 11.72 11.72-5.26 11.72-11.72-5.26-11.72-11.72-11.72" class="cls-9"/></g><path id="path12979" d="M286.41 293.08c6.27-10.67 1.58-16.25 1.52-16.32l-5.44 4.41c0 2.18-.2 4.48-.78 6.53l5.6-5-7.35 13.54s2.94-1.75 6.45-3.15z" class="cls-10"/><path id="path12981" d="M216.42 291.36s2.03-1.03 3.84-4.24c1.55-2.76 2.2-6 2-9.21l-.6-9.52c-.15-2.45-.8-4.86-2.01-6.95 0-.02-.02-.03-.03-.05-1.52-2.61-4.64-3.83-7.56-3.04l-8.27 2.22s-5.93 16.62 5.39 28.9c0 0-5.02-11.24-1.96-25.46 0 0-.53 14.82 5.62 22.98 0 0 6.13-7.11 1.02-22.43 0 0 9.19 10.39 2.55 26.81z" class="cls-10"/><path id="path12983" d="M208.45 259.32c.43 3.68 1.75 14.7 2.46 17.44 0 0 3.26-5.42.54-18.25l-3.01.81z" class="cls-5"/><path id="path12985" d="M207.16 264.39c.55-3.18 1.29-5.07 1.29-5.07l-4.65 1.25s-5.93 16.62 5.39 28.9c0 0-4.93-11.04-2.03-25.08" class="cls-5"/><path id="path12987" d="M251.21 302.42c-4.06 0-9.05-1.34-11.33-4.11-1.13-1.37-1.48-2.98-1.02-4.65l1.76.49c-.3 1.1-.09 2.08.67 3 2.05 2.49 7.22 3.69 11.05 3.4 1.35-.1 4.54-.61 4.88-3.1l1.81.25c-.37 2.64-2.82 4.39-6.56 4.67-.41.03-.84.05-1.27.05z" class="cls-9"/><path id="path12989" d="M251.85 307.54c-3.54 0-7.24-.66-10.41-1.44-5.52-1.37-7.14-4.67-7.2-4.81l1.65-.79c.05.11 1.37 2.68 5.99 3.82 6.13 1.52 14.33 2.57 18.64-1.04l1.17 1.4c-2.52 2.12-6.09 2.86-9.85 2.86z" class="cls-9"/><path id="path12991" d="M254.05 316.15c-.02-1-.48-1.94-1.33-2.7-1.69-1.52-4.64-2.24-8.08-1.95-3.58.29-6.23 2.59-6.25 2.61l-1.21-1.37c.12-.11 3.11-2.72 7.31-3.06 3.94-.33 7.39.55 9.45 2.41 1.23 1.11 1.9 2.5 1.94 4.02z" class="cls-9"/><path id="path12993" d="m246.22 318.26-1.72-.62c3.54-9.91 4.4-24.9 4.41-25.05l1.83.1c-.03.62-.89 15.4-4.51 25.56z" class="cls-9"/><path id="path12995" d="m144.12 314.91 4.38-9.7a11 11 0 0 0-2.86-1.45c-.71-.23-1.26.65-.73 1.18l1.24 1.26c.4.4-.05 1.05-.57.82l-3.65-1.63a.51.51 0 0 0-.59.13l-8.44 9.69 3.33 2.09c2.81 1.76 6.52.63 7.88-2.38z" class="cls-5"/><path id="path12997" d="m335.2 272.42-8.4-8.13a7.34 7.34 0 0 0-6.14-2l-.58.08 1.62 2.37 1.74-.2c.15-.02.2.19.06.24l-4.88 2.02s1.78 2.18 5.7 1.78l3.01.62-5.08 2.08s1.45 2.87 5.98 2.72c-.06.02-.1.06-.16.09l.03.05-2.2 2.4s1.63 3.22 6.23 3.5l.3.44-4.43 7.49a28.9 28.9 0 0 0-3.22 7.99l-.03.14c.74.03 1.49-.02 2.24-.15l3.45-.58 6.47-13.34c1.57-3.24.88-7.11-1.7-9.61z" class="cls-5"/><path id="path12999" d="m317.87 265.17 5.53-.64-.82-2.25c-.64-.08-1.29-.09-1.94 0l-3.83.53a5.39 5.39 0 0 0-4.54 4.25l-.52 2.51c-.19.94.47 1.84 1.42 1.94l.27.03 1.04-3.63a3.8 3.8 0 0 1 3.37-2.74z" class="cls-5"/><g id="g13021"><path id="path13001" d="M281.8 249.2s.02-.03.03-.05c2.01-3.57 3.55-10.75.15-15.71-5.77-8.44-17.68-4.94-21.36.29 0 0 8.26-7.36 17.66.13l.77.7 1.06 1.23s4.76 4.27-1.43 15.67l6.07 1.37 1.73-2.88-4.69-.74z" class="cls-11"/><path id="path13003" d="M285.05 258.31s-16.75 12.72-37.1-6.36c0 0-5.3 2.3-9.16-1.12 2.33.45 4.79.22 6.8-1.11 2.21-1.46 3.75-3.81 4.49-6.32 1.53-5.17-2.44-14.11-9-12.07-1.09.34-2.09 1.01-2.73 1.96 1.58-.43 3.31-.17 4.78.57 1.46.74 2.67 1.93 3.57 3.31 1.68 2.56 1.89 5.74.17 8.38-1.77 2.7-5.58 4.95-8.8 3.48-3.24-1.48-4.25-6.21-4.37-9.42-.14-3.6 1.13-7.47 4.27-9.52 4.98-3.24 10.74.38 10.74.38s6.07-12.46 28.73-10.76c0 0-20.18 1.23-24.56 12.15 0 0 16.98-15.3 31.79-7.36 0 0-10.6-15.64-25.39-13.96-14.78 1.68-26.74 9.46-27.27 28.24-.54 18.78 22.08 31.89 30.86 32.68 6.79.61 15.13-1.31 19.64-5.79 1.93-1.92 2.84-4.65 2.54-7.37zm-47.33-8.7s-.04 0-.06-.01c-.05-.07-.11-.13-.16-.2.06.08.14.14.23.21z" class="cls-5"/><path id="path13005" d="M280.2 263.3c-.05.02-5.46 2.4-12.56 2.37-8.97-.04-16.47-3.72-22.31-10.94-4.39.79-7.55-.71-9.65-2.48 6.68 11.34 20.7 18.64 27.18 19.22.44.04.89.07 1.35.08 6.87-1.14 13.18-3.84 16.6-7.38l1.96-2.03-2.58 1.15z" class="cls-3"/><path id="path13007" d="M235.24 241.36s3.52-2 3.62-5.76c0 0 1.7 3.55 6.26 4.64 0 0-2.78 2.46-3.35 6.8-.04.28-1.69-3.94-6.53-5.68" class="cls-5"/><path id="path13009" d="M251.89 234.92s3.48 7.09-1.49 15.14c0 0 11.08 12.72 26.73 9.26 15.88-3.51 13.04-22.38 11.95-24.39-1.14-2.11-4.54-13.9-18.44-9.11 0 0 10.35-2.05 15.18 8.87 4.74 10.71-2.97 21.24-11.11 22.22-8.44 1.01-10.74-.38-21.73-7.69 0 0 5.15-6.47-1.09-14.32z" class="cls-5"/><circle id="circle13011" cx="266.78" cy="236.68" r="2.37" class="cls-3"/><path id="path13013" d="M246.4 219.5c5.28-.6 7.28 2.92 7.28 2.92-4.69 2.61-7.06 5.59-7.9 6.8 1.75.51 2.93 1.25 2.93 1.25s6.07-12.46 28.73-10.76c-5.94-5.21-11.87-5.6-11.87-5.6l2.53 3.46c-11.69-4.02-21.71 1.93-21.71 1.93z" class="cls-10"/><path id="path13015" d="M240.77 237.98c-1.34-1.2-1.91-2.38-1.91-2.38-.11 3.76-3.62 5.76-3.62 5.76.8.29 1.52.65 2.15 1.04a8.56 8.56 0 0 0 3.38-4.42" class="cls-6"/><ellipse id="ellipse13017" cx="240.18" cy="241.21" class="cls-9" rx="1.83" ry="2.23" transform="rotate(-6.49 240.154 241.166)"/><path id="path13019" d="M261.54 267.43c8.85 2.13 16.5-1.9 20.92-5.14l-2.26 1.01c-.05.02-5.46 2.4-12.56 2.37-8.97-.04-16.47-3.72-22.31-10.94 0 0 2.24 9.34 16.2 12.71z" class="cls-9"/></g></g><path id="polyline13025" d="m294.13 337.89 62.38-36.28 8.05 40.93-6.73 11.3-36.23 6.59" class="cls-9"/><g id="g13041"><g id="g13037"><path id="path13027" d="m325.31 347.99 3.48-7.69a3.144 3.144 0 0 1 4.45-.9l3.42 2.38a7.54 7.54 0 0 0 10.06-.82 7.565 7.565 0 0 0 .69-9.53l-6.39-9.09c2.67.33 5.09 1.76 6.67 3.93l2.81 3.86c2.48 3.49 2.53 8.16.12 11.7a13.34 13.34 0 0 1-15.82 4.96l-3.73-1.43-3.66 4.71-2.09-2.09z" class="cls-11"/><ellipse id="ellipse13029" cx="325.78" cy="350.68" class="cls-11" rx="4.12" ry="3.04" transform="rotate(-56.65 325.793 350.686)"/><g id="g13035"><path id="polygon13031" d="m325.92 328.55 6.91-5.03.87-.64 3.74.68 2.24 3.09-9.9 7.2z" class="cls-11"/><path id="rect13033" d="M339.63 325.09h3.06v27.99h-3.06z" class="cls-11" transform="rotate(-36.05 341.139 339.082)"/></g></g><path id="polygon13039" d="m332.8 333.28.69-2.13 14.67 20.16-4.62 1.95z" class="cls-9"/></g><path id="polygon13043" d="m208.31 253.7 5.51-.87 3.76-13.86-5.04 3.63z" class="cls-4"/><path id="path13045" d="m188.08 364.85 91.88-5.26v-7.06c-.24 0-.49-.02-.73-.02-.97-.03-1.94-.06-2.91-.08-1.94-.05-3.88-.09-5.82-.13-.64-.01-1.27-.03-1.91-.04-2.6-.04-5.2-.08-7.8-.1h-1.49l-6.31-.03h-2.48q-2.67 0-5.34.03c-.91 0-1.82.02-2.72.03-1.72.02-3.44.04-5.16.07-.91.01-1.81.03-2.72.05-1.76.03-3.51.07-5.27.12-.85.02-1.7.04-2.55.07q-2.865.075-5.73.18a920 920 0 0 0-9.47.37c-.11 0-.22 0-.33.01-2.72.12-5.44.25-8.15.4h-.15c-2.55.14-5.1.29-7.65.44-.56.04-1.13.07-1.69.11-2.05.13-4.1.27-6.15.41l-2.09.15-4.34.33z" class="cls-9"/><path id="path13047" d="M317.57 317.95s-9.91 9.2-15.17 7.98c0 0 3.01 3.14 9.33.11" class="cls-5"/><path id="path13049" d="M297.84 341.63c-.31-.97-.47-1.46-.78-2.43.7.69 1.05 1.04 1.74 1.74 1.52 1.53 3.63 1.98 5.37 1.13 1.21-.58 1.81-.87 3.02-1.46-.97.99-1.45 1.48-2.42 2.46-1.4 1.43-1.87 3.73-1.2 5.89.31.98.46 1.48.76 2.46-.69-.71-1.03-1.07-1.72-1.78-1.51-1.55-3.61-2-5.36-1.15-1.21.59-1.82.88-3.03 1.47.97-.99 1.46-1.48 2.43-2.47 1.4-1.43 1.87-3.73 1.19-5.87z" class="cls-5"/><path id="path13051" d="M282.15 354.84c-1.3-.32-1.94-.48-3.24-.79l3.12-.75c2.74-.65 4.67-2.68 4.93-5.19.18-1.74.27-2.61.44-4.34.43 1.75.65 2.62 1.08 4.37.63 2.53 2.86 4.62 5.72 5.35 1.3.33 1.95.5 3.26.84-1.26.27-1.89.41-3.14.69-2.75.61-4.69 2.64-4.94 5.17-.17 1.74-.26 2.62-.43 4.37-.44-1.75-.65-2.63-1.09-4.39-.63-2.54-2.87-4.63-5.71-5.32z" class="cls-5"/></g></svg>