<svg xmlns="http://www.w3.org/2000/svg" xmlns:xlink="http://www.w3.org/1999/xlink" id="Layer_1" data-name="Layer 1" version="1.1" width="461.087" height="325.024"><defs id="defs115"><linearGradient id="linear-gradient" x1="142.4" y1="447.73" x2="142.4" y2="334.25" gradientUnits="userSpaceOnUse"><stop offset="0" stop-color="#3bbfc6" stop-opacity="0" id="stop7"/><stop offset="0" stop-color="#3bbfc6" stop-opacity=".01" id="stop9"/><stop offset=".05" stop-color="#3bbfc6" stop-opacity=".22" id="stop11"/><stop offset=".1" stop-color="#3bbfc6" stop-opacity=".4" id="stop13"/><stop offset=".15" stop-color="#3bbfc6" stop-opacity=".56" id="stop15"/><stop offset=".21" stop-color="#3bbfc6" stop-opacity=".7" id="stop17"/><stop offset=".28" stop-color="#3bbfc6" stop-opacity=".81" id="stop19"/><stop offset=".37" stop-color="#3bbfc6" stop-opacity=".9" id="stop21"/><stop offset=".47" stop-color="#3bbfc6" stop-opacity=".96" id="stop23"/><stop offset=".61" stop-color="#3bbfc6" stop-opacity=".99" id="stop25"/><stop offset="1" stop-color="#3bbfc6" id="stop27"/></linearGradient><linearGradient id="linear-gradient-2" x1="194.7" y1="407.34" x2="194.7" y2="383.45" xlink:href="#linear-gradient" gradientTransform="translate(-48.755 -305.776)"/><linearGradient id="linear-gradient-3" x1="3134.68" y1="443.6" x2="3134.68" y2="330.12" gradientTransform="matrix(-1 0 0 1 3506.415 -305.776)" xlink:href="#linear-gradient"/><linearGradient id="linear-gradient-4" x1="3186.99" y1="403.21" x2="3186.99" y2="379.32" gradientTransform="matrix(-1 0 0 1 3506.415 -305.776)" xlink:href="#linear-gradient"/><linearGradient id="linear-gradient-5" x1="290.39" y1="342.26" x2="307.85" y2="342.26" gradientTransform="matrix(1 -.09 .09 1 -118.47 39.58)" gradientUnits="userSpaceOnUse"><stop offset="0" stop-color="#3bbfc6" stop-opacity="0" id="stop33"/><stop offset=".19" stop-color="#3bbfc6" stop-opacity=".29" id="stop35"/><stop offset=".39" stop-color="#3bbfc6" stop-opacity=".54" id="stop37"/><stop offset=".58" stop-color="#3bbfc6" stop-opacity=".74" id="stop39"/><stop offset=".74" stop-color="#3bbfc6" stop-opacity=".88" id="stop41"/><stop offset=".89" stop-color="#3bbfc6" stop-opacity=".97" id="stop43"/><stop offset="1" stop-color="#3bbfc6" id="stop45"/></linearGradient><linearGradient id="linear-gradient-6" x1="290.39" y1="351.78" x2="307.85" y2="351.78" xlink:href="#linear-gradient-5"/><linearGradient id="linear-gradient-7" x1="290.39" y1="361.3" x2="307.85" y2="361.3" xlink:href="#linear-gradient-5"/><linearGradient id="linear-gradient-8" x1="290.39" y1="370.82" x2="307.85" y2="370.82" xlink:href="#linear-gradient-5"/><linearGradient id="linear-gradient-9" x1="290.39" y1="380.34" x2="307.85" y2="380.34" xlink:href="#linear-gradient-5"/><linearGradient id="linear-gradient-10" x1="290.39" y1="389.86" x2="307.85" y2="389.86" xlink:href="#linear-gradient-5"/><linearGradient id="linear-gradient-11" x1="290.39" y1="399.38" x2="307.85" y2="399.38" xlink:href="#linear-gradient-5"/><linearGradient id="linear-gradient-12" x1="290.39" y1="408.9" x2="307.85" y2="408.9" xlink:href="#linear-gradient-5"/><linearGradient id="linear-gradient-13" x1="290.39" y1="418.42" x2="307.85" y2="418.42" xlink:href="#linear-gradient-5"/><linearGradient id="linear-gradient-14" x1="290.39" y1="428.14" x2="307.85" y2="428.14" xlink:href="#linear-gradient-5"/><linearGradient id="linear-gradient-15" x1="290.39" y1="437.66" x2="307.85" y2="437.66" xlink:href="#linear-gradient-5"/><linearGradient id="linear-gradient-16" x1="290.39" y1="447.18" x2="307.85" y2="447.18" xlink:href="#linear-gradient-5"/><linearGradient id="linear-gradient-17" x1="290.39" y1="456.7" x2="307.85" y2="456.7" xlink:href="#linear-gradient-5"/><linearGradient id="linear-gradient-18" x1="290.39" y1="466.22" x2="307.85" y2="466.22" xlink:href="#linear-gradient-5"/><linearGradient id="linear-gradient-19" x1="141.37" y1="386.48" x2="158.83" y2="386.48" gradientTransform="rotate(6.82 477.684 1350.393)" xlink:href="#linear-gradient-5"/><linearGradient id="linear-gradient-20" x1="141.37" y1="396" x2="158.83" y2="396" gradientTransform="rotate(6.82 477.684 1350.393)" xlink:href="#linear-gradient-5"/><linearGradient id="linear-gradient-21" x1="141.37" y1="405.52" x2="158.83" y2="405.52" gradientTransform="rotate(6.82 477.684 1350.393)" xlink:href="#linear-gradient-5"/><linearGradient id="linear-gradient-22" x1="141.37" y1="415.04" x2="158.83" y2="415.04" gradientTransform="rotate(6.82 477.684 1350.393)" xlink:href="#linear-gradient-5"/><linearGradient id="linear-gradient-23" x1="141.37" y1="424.56" x2="158.83" y2="424.56" gradientTransform="rotate(6.82 477.684 1350.393)" xlink:href="#linear-gradient-5"/><linearGradient id="linear-gradient-24" x1="141.37" y1="434.08" x2="158.83" y2="434.08" gradientTransform="rotate(6.82 477.684 1350.393)" xlink:href="#linear-gradient-5"/><linearGradient id="linear-gradient-25" x1="141.37" y1="443.6" x2="158.83" y2="443.6" gradientTransform="rotate(6.82 477.684 1350.393)" xlink:href="#linear-gradient-5"/><linearGradient id="linear-gradient-26" x1="141.37" y1="453.12" x2="158.83" y2="453.12" gradientTransform="rotate(6.82 477.684 1350.393)" xlink:href="#linear-gradient-5"/><linearGradient id="linear-gradient-27" x1="141.37" y1="462.64" x2="158.83" y2="462.64" gradientTransform="rotate(6.82 477.684 1350.393)" xlink:href="#linear-gradient-5"/><linearGradient id="linear-gradient-28" x1="141.37" y1="472.36" x2="158.83" y2="472.36" gradientTransform="rotate(6.82 477.684 1350.393)" xlink:href="#linear-gradient-5"/><linearGradient id="linear-gradient-29" x1="141.37" y1="481.88" x2="158.83" y2="481.88" gradientTransform="rotate(6.82 477.684 1350.393)" xlink:href="#linear-gradient-5"/><linearGradient id="linear-gradient-30" x1="141.37" y1="491.4" x2="158.83" y2="491.4" gradientTransform="rotate(6.82 477.684 1350.393)" xlink:href="#linear-gradient-5"/><linearGradient id="linear-gradient-31" x1="141.37" y1="500.92" x2="158.83" y2="500.92" gradientTransform="rotate(6.82 477.684 1350.393)" xlink:href="#linear-gradient-5"/><linearGradient id="linear-gradient-32" x1="141.37" y1="510.44" x2="158.83" y2="510.44" gradientTransform="rotate(6.82 477.684 1350.393)" xlink:href="#linear-gradient-5"/><linearGradient id="linear-gradient-33" x1="970.43" y1="394.72" x2="987.89" y2="394.72" gradientTransform="matrix(-.99 -.11 -.11 .99 1370.95 70.92)" xlink:href="#linear-gradient-5"/><linearGradient id="linear-gradient-34" x1="970.43" y1="404.24" x2="987.89" y2="404.24" gradientTransform="matrix(-.99 -.11 -.11 .99 1370.95 70.92)" xlink:href="#linear-gradient-5"/><linearGradient id="linear-gradient-35" x1="970.43" y1="413.76" x2="987.89" y2="413.76" gradientTransform="matrix(-.99 -.11 -.11 .99 1370.95 70.92)" xlink:href="#linear-gradient-5"/><linearGradient id="linear-gradient-36" x1="970.43" y1="423.28" x2="987.89" y2="423.28" gradientTransform="matrix(-.99 -.11 -.11 .99 1370.95 70.92)" xlink:href="#linear-gradient-5"/><linearGradient id="linear-gradient-37" x1="970.43" y1="432.8" x2="987.89" y2="432.8" gradientTransform="matrix(-.99 -.11 -.11 .99 1370.95 70.92)" xlink:href="#linear-gradient-5"/><linearGradient id="linear-gradient-38" x1="970.43" y1="442.32" x2="987.89" y2="442.32" gradientTransform="matrix(-.99 -.11 -.11 .99 1370.95 70.92)" xlink:href="#linear-gradient-5"/><linearGradient id="linear-gradient-39" x1="970.43" y1="451.84" x2="987.89" y2="451.84" gradientTransform="matrix(-.99 -.11 -.11 .99 1370.95 70.92)" xlink:href="#linear-gradient-5"/><linearGradient id="linear-gradient-40" x1="970.43" y1="461.36" x2="987.89" y2="461.36" gradientTransform="matrix(-.99 -.11 -.11 .99 1370.95 70.92)" xlink:href="#linear-gradient-5"/><linearGradient id="linear-gradient-41" x1="970.43" y1="470.88" x2="987.89" y2="470.88" gradientTransform="matrix(-.99 -.11 -.11 .99 1370.95 70.92)" xlink:href="#linear-gradient-5"/><linearGradient id="linear-gradient-42" x1="970.43" y1="480.6" x2="987.89" y2="480.6" gradientTransform="matrix(-.99 -.11 -.11 .99 1370.95 70.92)" xlink:href="#linear-gradient-5"/><linearGradient id="linear-gradient-43" x1="970.43" y1="490.12" x2="987.89" y2="490.12" gradientTransform="matrix(-.99 -.11 -.11 .99 1370.95 70.92)" xlink:href="#linear-gradient-5"/><linearGradient id="linear-gradient-44" x1="970.43" y1="499.64" x2="987.89" y2="499.64" gradientTransform="matrix(-.99 -.11 -.11 .99 1370.95 70.92)" xlink:href="#linear-gradient-5"/><linearGradient id="linear-gradient-45" x1="970.43" y1="509.16" x2="987.89" y2="509.16" gradientTransform="matrix(-.99 -.11 -.11 .99 1370.95 70.92)" xlink:href="#linear-gradient-5"/><linearGradient id="linear-gradient-46" x1="970.43" y1="518.68" x2="987.89" y2="518.68" gradientTransform="matrix(-.99 -.11 -.11 .99 1370.95 70.92)" xlink:href="#linear-gradient-5"/><linearGradient id="linear-gradient-47" x1="862.41" y1="341" x2="879.87" y2="341" gradientTransform="matrix(-1 .05 .05 1 1150.46 -33.49)" xlink:href="#linear-gradient-5"/><linearGradient id="linear-gradient-48" x1="862.41" y1="350.52" x2="879.87" y2="350.52" gradientTransform="matrix(-1 .05 .05 1 1150.46 -33.49)" xlink:href="#linear-gradient-5"/><linearGradient id="linear-gradient-49" x1="862.41" y1="360.03" x2="879.87" y2="360.03" gradientTransform="matrix(-1 .05 .05 1 1150.46 -33.49)" xlink:href="#linear-gradient-5"/><linearGradient id="linear-gradient-50" x1="862.41" y1="369.55" x2="879.87" y2="369.55" gradientTransform="matrix(-1 .05 .05 1 1150.46 -33.49)" xlink:href="#linear-gradient-5"/><linearGradient id="linear-gradient-51" x1="862.41" y1="379.07" x2="879.87" y2="379.07" gradientTransform="matrix(-1 .05 .05 1 1150.46 -33.49)" xlink:href="#linear-gradient-5"/><linearGradient id="linear-gradient-52" x1="862.41" y1="388.59" x2="879.87" y2="388.59" gradientTransform="matrix(-1 .05 .05 1 1150.46 -33.49)" xlink:href="#linear-gradient-5"/><linearGradient id="linear-gradient-53" x1="862.41" y1="398.11" x2="879.87" y2="398.11" gradientTransform="matrix(-1 .05 .05 1 1150.46 -33.49)" xlink:href="#linear-gradient-5"/><linearGradient id="linear-gradient-54" x1="862.41" y1="407.63" x2="879.87" y2="407.63" gradientTransform="matrix(-1 .05 .05 1 1150.46 -33.49)" xlink:href="#linear-gradient-5"/><linearGradient id="linear-gradient-55" x1="862.41" y1="417.15" x2="879.87" y2="417.15" gradientTransform="matrix(-1 .05 .05 1 1150.46 -33.49)" xlink:href="#linear-gradient-5"/><linearGradient id="linear-gradient-56" x1="862.41" y1="426.87" x2="879.87" y2="426.87" gradientTransform="matrix(-1 .05 .05 1 1150.46 -33.49)" xlink:href="#linear-gradient-5"/><linearGradient id="linear-gradient-57" x1="862.41" y1="436.39" x2="879.87" y2="436.39" gradientTransform="matrix(-1 .05 .05 1 1150.46 -33.49)" xlink:href="#linear-gradient-5"/><linearGradient id="linear-gradient-58" x1="862.41" y1="445.91" x2="879.87" y2="445.91" gradientTransform="matrix(-1 .05 .05 1 1150.46 -33.49)" xlink:href="#linear-gradient-5"/><linearGradient id="linear-gradient-59" x1="862.41" y1="455.43" x2="879.87" y2="455.43" gradientTransform="matrix(-1 .05 .05 1 1150.46 -33.49)" xlink:href="#linear-gradient-5"/><linearGradient id="linear-gradient-60" x1="862.41" y1="464.95" x2="879.87" y2="464.95" gradientTransform="matrix(-1 .05 .05 1 1150.46 -33.49)" xlink:href="#linear-gradient-5"/><linearGradient id="linear-gradient-61" x1="282.02" y1="378.73" x2="282.02" y2="322.33" gradientUnits="userSpaceOnUse"><stop offset="0" stop-color="#aaa" id="stop103"/><stop offset="1" stop-color="#e2e2e1" id="stop105"/></linearGradient><linearGradient id="linear-gradient-62" x1="253.88" y1="341.92" x2="309.33" y2="341.92" gradientUnits="userSpaceOnUse"><stop offset="0" stop-color="#e2e2e1" id="stop108"/><stop offset="1" stop-color="#aaa" id="stop110"/></linearGradient><linearGradient id="linear-gradient-63" x1="725.54" y1="479.45" x2="725.54" y2="379.7" xlink:href="#linear-gradient-61"/><linearGradient id="linear-gradient-64" x1="676.33" y1="413.95" x2="773.27" y2="413.95" xlink:href="#linear-gradient-62"/><linearGradient xlink:href="#linear-gradient" id="linearGradient3221" gradientUnits="userSpaceOnUse" x1="142.4" y1="447.73" x2="142.4" y2="334.25" gradientTransform="translate(-48.755 -305.776)"/><linearGradient xlink:href="#linear-gradient-5" id="linearGradient3223" gradientUnits="userSpaceOnUse" gradientTransform="matrix(1 -.09 .09 1 -118.47 39.58)" x1="290.39" y1="342.26" x2="307.85" y2="342.26"/><linearGradient xlink:href="#linear-gradient-61" id="linearGradient3225" gradientUnits="userSpaceOnUse" x1="282.02" y1="378.73" x2="282.02" y2="322.33"/><linearGradient xlink:href="#linear-gradient-62" id="linearGradient3227" gradientUnits="userSpaceOnUse" x1="253.88" y1="341.92" x2="309.33" y2="341.92" gradientTransform="translate(-48.755 -305.776)"/><clipPath id="clip-path"><path id="rect4" style="fill:none" d="M615.53 323.11h226.4v216.6h-226.4z"/></clipPath><style id="style2">.cls-24,.cls-27,.cls-33{fill:none}.cls-11{fill:#510f0f}.cls-101,.cls-24,.cls-26,.cls-29,.cls-30{stroke-miterlimit:10}.cls-28{fill:#3bbfc6}.cls-29,.cls-38,.cls-7{fill:#eb5924}.cls-30{stroke:#eb5924}.cls-26,.cls-28,.cls-29{stroke:#4f1514}.cls-16,.cls-26{fill:#1a9190}.cls-101,.cls-17,.cls-37{fill:#dddddc}.cls-32{fill:#81cfd8}.cls-24,.cls-32,.cls-33,.cls-36,.cls-37,.cls-38{stroke:#1a9190}.cls-24{stroke-width:5.03px}.cls-28,.cls-29,.cls-30{stroke-width:1.65px}.cls-26{stroke-width:2.38px}.cls-27{stroke:#fff}.cls-27,.cls-28,.cls-32,.cls-33,.cls-36,.cls-37,.cls-38{stroke-linecap:round;stroke-linejoin:round}.cls-27{stroke-width:2.18px}.cls-30{fill:#4f1514}.cls-32,.cls-33,.cls-36{stroke-width:3.02px}.cls-36{fill:#2aaeab}.cls-37,.cls-38{stroke-width:1.51px}.cls-96{fill:#aaa}.cls-101{stroke:#aaa;stroke-width:3.07px}</style></defs><path d="m430.605 48.864-.69-14.45a22.42 22.42 0 0 0-.74-5.25c0-.15 0-.3-.07-.45a6.47 6.47 0 0 0-.78-2.07 14.43 14.43 0 0 0-8.82-8.47 6.68 6.68 0 0 0-.64-.17 21 21 0 0 0-7.08-.07 26 26 0 0 0-5.63 1.37 6.15 6.15 0 0 0-.71.28l-6 2.77a6.46 6.46 0 0 0-3.47.53l-2.32 1.07a6.38 6.38 0 0 0-2.71 2.27l-10.58 4.85a17.45 17.45 0 0 0-3.57-1.34l-1-.25h-.15c-6.5-1.7-17.6-4.6-27.95 6.44a10.92 10.92 0 0 0-2.22-1.36c-4.87-2.26-11.53-.75-16 1.74a19.39 19.39 0 0 0-7.16 6.8 56.68 56.68 0 0 0-6.47-9.88c-6.09-7.32-13.51-12.33-21.46-14.46-12.78-3.44-26.71-2.94-38.21 1.37a39.16 39.16 0 0 0-21.12 17.78 42.46 42.46 0 0 0-8.88-9.22c-10.34-7.86-24-11-40.57-9.42-26.35 2.55-37.23 14.29-42 29.42a19 19 0 0 0-7.93-8.21c-4.44-2.5-11.11-4-16-1.75a11.17 11.17 0 0 0-2.21 1.37c-10.35-11-21.45-8.14-27.95-6.44h-.11l-1 .26a17.16 17.16 0 0 0-3.5 1.3l-11.1-5.1a6.43 6.43 0 0 0-2.47-2l-2.33-1.07a6.41 6.41 0 0 0-3.11-.57l-6.25-2.86a3.56 3.56 0 0 0-.41-.17 23.27 23.27 0 0 0-12.78-1.37 5.69 5.69 0 0 0-.59.16 13.83 13.83 0 0 0-7.62 6.12c-.26.41-.51.85-.74 1.3a6.37 6.37 0 0 0-1.71 3.29 6.12 6.12 0 0 0-.06 2 21.34 21.34 0 0 0-.4 3.73l-.69 14.46a5.42 5.42 0 0 0 0 .57 6.44 6.44 0 0 0 .84 3.46c.09 2.13.3 4.08.51 5.66a5.25 5.25 0 0 0-.16.6v.14a9.66 9.66 0 0 0 1.65 8.2c.3 4.41 1.56 11.56 6.23 16.75l.19.2a24.91 24.91 0 0 0-1.53 10.93 8.22 8.22 0 0 0-2.08 8l.05.14a5.84 5.84 0 0 0 .48 1.18 26.76 26.76 0 0 0 1.42 7.54v.07a6.46 6.46 0 0 0 2.47 3.13l1.36.91a6.43 6.43 0 0 0 3.63 1.07l47.44-.45a82.28 82.28 0 0 0-4.2 22.14c-.11 2.45-.17 4.86-.16 7.16 0 16.12 2.69 28.57 8.38 38 10.33 17.23 26.26 22.65 37.8 24.16a68.16 68.16 0 0 0 21.71-.71c12.15-.76 21.49-5.8 27.65-14.77a40.53 40.53 0 0 0 24.74 19.68 54.6 54.6 0 0 0 15.11 2 71.77 71.77 0 0 0 19.1-2.68c10.59-2.94 19.89-7.95 24.86-13.4a24.56 24.56 0 0 0 3.21-4.51c.36.5.61.83.73 1a38.42 38.42 0 0 0 15.89 11.91 72.87 72.87 0 0 0 23.13 5.17c9.38.52 17.76-1 24.21-4.37 7.17-3.74 12-9.76 16.31-15.59l1-1.34c5.87-7.87 12.52-16.87 14.63-27.29a65.05 65.05 0 0 0 1.19-13.16 134 134 0 0 0-1.24-16.84 6.35 6.35 0 0 0 .72-3.78v-.25a87.11 87.11 0 0 0-3.75-16.76l47.07.45a6.28 6.28 0 0 0 3.62-1.08l1.37-.91a6.47 6.47 0 0 0 2.46-3.1v-.11a27.72 27.72 0 0 0 1.4-7.48 6.26 6.26 0 0 0 .48-1.2v-.11a8.19 8.19 0 0 0-2.06-8 24.91 24.91 0 0 0-1.53-10.93l.18-.21c4.68-5.19 5.93-12.34 6.23-16.74a9.6 9.6 0 0 0 1.66-8.17v-.15a4.77 4.77 0 0 0-.17-.62c.22-1.57.43-3.53.52-5.65l.12-.23a6.42 6.42 0 0 0 1.09-3.91zm-279.42 109.76c0 1.78-.33 4.86-2 6-1.92 1.26-5.86.58-8.09-.86-.49-.31-1.62-1-1.68-4a20.14 20.14 0 0 1 .73-4.69c1.79-6.79 3.62-13.71 5.69-20.55a154.42 154.42 0 0 1 4.9 19.54 30 30 0 0 1 .45 4.56z" id="path1935" style="fill:#cccbcb"/><path id="polyline1937" style="fill:#1a9190;stroke:#1a9190;stroke-width:10.68999958px;stroke-miterlimit:10" transform="translate(-48.755 -305.776)" d="m166.49 495.91 15.85-86.79 51.33-52.62 98.89 4.78 52.08 64.24 14.38 72.73"/><path d="m423.585 49.084-.69-14.46s.14-8.13-5.78-10.06a17.41 17.41 0 0 0-9 1.1l-29.75 13.64-23.12 11.44-14.87 8.26-12.13-6.06-7.49 4.35c-3.4-13.79-14-28.29-28.11-32.08-11-2.95-23.46-2.83-34.14 1.18-9.7 3.63-17.27 11-20.2 21a159.3 159.3 0 0 0-2.38 9.11c-3.18-16.05-17-33.76-49.69-30.6-38.43 3.72-38.84 27.27-40.49 59.51-1.65 32.24 7.85 44.63 11.57 66.94 3.72 22.31-12.81 21.49-19.84 16.94-5.66-3.66-5.29-10.79-3.77-16.53 3.45-13.07 7-26.31 12-38.85l-.55-51.8-8.54-5-12.07 6.11-14.88-8.26-23.14-11.43-29.76-13.64a17.24 17.24 0 0 0-9-1.1c-5.92 1.92-5.79 10.05-5.79 10.05l-.63 14.48 38.57 24.79 30.58 16.53-3.86 19.84c-3.75 9.89-6.51 18.46-7 29.2-.61 13.27.28 29.27 7.27 40.93 17.36 28.92 52.9 20.24 52.9 20.24 18.64-1 26.28-13.18 29.13-27.19l.21 1.16c8.67 48.35 65.29 33.06 78.1 19 3.83-4.2 5.92-11.64 7-20.22-.63 5.15 4.14 13.2 7.16 17.1a32 32 0 0 0 13.16 9.81c11.9 5 30 7.16 41.68 1.06 5.92-3.1 10.15-8.4 14-13.67 5.67-7.65 12.52-16.45 14.43-26 2-10.2.72-20.69-.58-30.89-.56-4.34-.78-8.61-1.72-12.93-.88-4-3.35-8-4.1-11.87l-3.86-19.84 30.58-16.53zm-227 50.81c-2.29 10.89-5.91 18.25-8.28 27.79-1.94-12.62-6.71-30.38-8.66-47.63-2.48-21.9 6.61-26.86 16.53-21.07 9.92 5.79 5.36 17.36.4 40.91zm31.82 74.8c-11.15.41-10.33-19.43-6.61-31.82 2.49-8.29 8.11-32.63 11.69-53 1 11.49 3.79 23.45 6.91 39.82 6.6 34.67-.84 44.58-12 45zm56.62-78.11c-3.34 14-8.25 24.84-10.61 43.41-.46-6.95-1-12.32-1-14.48 0-7.85-8.27-33.47-8.27-33.47-2.48-19.84-1.24-37.19 13.23-34.71 14.47 2.48 11.18 20.24 6.64 39.25zm31.82 77.28c-11.57 0-12-11.16-12-16.53 0-5.19 7.72-41.63 14.58-71.67-1.18 5.16-.13 11.84-.18 17.13-.1 9.37 2.85 18.41 5.35 27.33 2.79 10 11.17 43.74-7.76 43.74z" id="path1939" style="fill:#81cfd8"/><path d="m100.115 138.674 36.55 3.28a252.45 252.45 0 0 1 9.19-28.17l-.56-51.8-8.54-5-12.12 6.07-14.88-8.27-23.14-11.43-29.75-13.64a17.28 17.28 0 0 0-9-1.1c-5.92 1.93-5.78 10.05-5.78 10.05l-.65 14.56 38.57 24.79 30.58 16.53-3.86 19.84c-3.17 8.3-5.62 15.72-6.61 24.29z" id="path1941" style="fill:url(#linearGradient3221)"/><path d="m145.985 101.564.25-23.89c-.13 2.48-.26 5-.39 7.61a127.71 127.71 0 0 0 .14 16.28z" id="path1943" style="fill:url(#linear-gradient-2)"/><path d="m365.245 134.544-36.55 3.28a251.78 251.78 0 0 0-9.19-28.17l.56-51.8 8.54-5 12.12 6.06 14.88-8.26 23.15-11.43 29.75-13.63a17.36 17.36 0 0 1 9-1.11c5.92 1.93 5.78 10.06 5.78 10.06l.69 14.46-38.57 24.8-30.58 16.53 3.82 19.89c3.17 8.33 5.6 15.74 6.6 24.32z" id="path1945" style="fill:url(#linear-gradient-3)"/><path d="m319.385 97.434-.25-23.89c.14 2.48.26 5 .39 7.61a127.74 127.74 0 0 1-.14 16.28z" id="path1947" style="fill:url(#linear-gradient-4)"/><path class="cls-24" d="m423.585 49.634-.69-14.41s.14-8.13-5.78-10.06a17.36 17.36 0 0 0-9 1.11l-29.75 13.63-23.12 11.39-14.87 8.26-12.13-6.06-7.49 4.35c-3.4-13.79-14-28.29-28.11-32.08-11-3-23.46-2.82-34.14 1.18-9.7 3.64-17.27 11-20.2 21a159.3 159.3 0 0 0-2.38 9.11c-3.18-16.05-17-33.76-49.69-30.6-38.43 3.72-38.84 27.27-40.49 59.51-1.65 32.24 7.85 44.63 11.57 66.94 3.72 22.31-12.81 21.49-19.84 16.95-5.66-3.67-5.29-10.8-3.77-16.54 3.45-13.06 7-26.31 12-38.85l-.55-51.8-8.54-5-12.12 6.07-14.88-8.27-23.14-11.43-29.76-13.64a17.24 17.24 0 0 0-9-1.1c-5.92 1.93-5.79 10.05-5.79 10.05l-.68 14.47 38.57 24.79 30.68 16.62-3.86 19.84c-3.75 9.89-6.51 18.46-7 29.2-.61 13.27.28 29.27 7.27 40.93 17.36 28.92 52.9 20.25 52.9 20.25 18.64-1 26.28-13.19 29.13-27.2l.21 1.16c8.67 48.35 65.29 33.06 78.1 19 3.83-4.2 5.92-11.64 7-20.22-.63 5.15 4.14 13.2 7.16 17.1a31.89 31.89 0 0 0 13.16 9.81c11.9 5 30 7.16 41.68 1.06 5.92-3.1 10.15-8.4 14-13.66 5.67-7.66 12.52-16.46 14.43-26 2-10.2.72-20.69-.58-30.89-.56-4.34-.78-8.61-1.72-12.93-.88-4.05-3.35-8-4.1-11.87l-3.86-19.84 30.58-16.53zm-227 50.81c-2.29 10.89-5.91 18.25-8.28 27.79-1.94-12.62-6.71-30.38-8.66-47.62-2.48-21.91 6.61-26.87 16.53-21.08 9.92 5.79 5.36 17.36.4 40.91zm31.81 74.78c-11.15.41-10.33-19.42-6.61-31.82 2.49-8.29 8.11-32.63 11.69-53.05 1 11.49 3.79 23.45 6.91 39.82 6.61 34.74-.83 44.66-11.99 45.05zm56.62-78.1c-3.34 14-8.25 24.83-10.61 43.4-.46-6.95-1-12.32-1-14.48 0-7.85-8.27-33.47-8.27-33.47-2.48-19.84-1.24-37.19 13.23-34.71 14.47 2.48 11.19 20.27 6.65 39.28zm31.82 77.27c-11.57 0-12-11.16-12-16.53 0-5.19 7.72-41.63 14.58-71.67-1.18 5.16-.13 11.84-.18 17.14-.1 9.36 2.85 18.4 5.35 27.32 2.8 10.02 11.18 43.76-7.75 43.76z" id="path1949" style="fill:none;stroke:#1a9190;stroke-width:5.03000021px;stroke-miterlimit:10"/><path d="M56.765 29.904a17.24 17.24 0 0 0-9-1.1c-5.92 1.92-5.79 10.05-5.79 10.05l-.63 14.47 11.08 7.12c1.64-.8 2.72-1.86 2.72-3.26 0-4.21 2.42-18.75 3.73-26.32z" id="path1951" style="fill:#eb5924;stroke:#231f20;stroke-width:1.64999998px;stroke-miterlimit:10"/><circle class="cls-17" cx="100.485" cy="68.194" r="10.84" id="circle1953" style="fill:#dddddc"/><path class="cls-17" d="M100.485 79.864a11.67 11.67 0 1 1 11.66-11.64 11.67 11.67 0 0 1-11.66 11.64zm0-21.68a10 10 0 1 0 10 10 10 10 0 0 0-10-9.96z" id="path1955" style="fill:#dddddc"/><ellipse class="cls-26" cx="99.995" cy="67.194" rx="6.75" ry="6.8" id="ellipse1957" style="fill:#1a9190;stroke:#4f1514;stroke-width:2.38000011px;stroke-miterlimit:10"/><path class="cls-27" d="M97.645 67.324c-.08.36-.43-4 4-2.61" id="path1959" style="fill:none;stroke:#fff;stroke-width:2.18000007px;stroke-linecap:round;stroke-linejoin:round"/><path class="cls-28" id="polyline1961" style="fill:#3bbfc6;stroke:#4f1514;stroke-width:1.64999998px;stroke-linecap:round;stroke-linejoin:round" transform="translate(-48.755 -305.776)" d="m104.15 354.41-12.68-4.13 14.61-3.03-14.33-7.16 15.43-1.38"/><path class="cls-28" id="polygon1963" style="fill:#3bbfc6;stroke:#4f1514;stroke-width:1.64999998px;stroke-linecap:round;stroke-linejoin:round" transform="translate(-48.755 -305.776)" d="m105.52 335.68 2.11.96-3.48 23.65-3.22-1.19 3.22-23.24z"/><path class="cls-28" id="polygon1965" style="fill:#3bbfc6;stroke:#4f1514;stroke-width:1.64999998px;stroke-linecap:round;stroke-linejoin:round" transform="translate(-48.755 -305.776)" d="m115.03 338.98 2.1.97-3.48 23.65-3.21-1.2 3.21-23.23z"/><path class="cls-28" d="M69.305 42.854a2.59 2.59 0 0 1-1.52-2.07c0-1.38.83-1.38 2.35-1l5.64 2.06s1.38.83 1.24 1.66c-.14.83-.55 1.37-2.48 1.1z" id="path1967" style="fill:#3bbfc6;stroke:#4f1514;stroke-width:1.64999998px;stroke-linecap:round;stroke-linejoin:round"/><path class="cls-29" d="M68.115 49.374a2.59 2.59 0 0 1-1.52-2.07c0-1.38.83-1.38 2.34-1l5.65 2.06s1.38.83 1.24 1.66c-.14.83-.55 1.37-2.48 1.1z" id="path1969" style="fill:#eb5924;stroke:#4f1514;stroke-width:1.64999998px;stroke-miterlimit:10"/><path class="cls-28" d="M66.825 56.994a2.59 2.59 0 0 1-1.52-2.07c0-1.37.83-1.37 2.35-1l5.64 2.07s1.38.82 1.24 1.65c-.14.83-.55 1.38-2.48 1.1z" id="path1971" style="fill:#3bbfc6;stroke:#4f1514;stroke-width:1.64999998px;stroke-linecap:round;stroke-linejoin:round"/><circle class="cls-28" cx="61.315" cy="35.554" r="2.25" id="circle1973" style="fill:#3bbfc6;stroke:#4f1514;stroke-width:1.64999998px;stroke-linecap:round;stroke-linejoin:round"/><circle class="cls-30" cx="60.645" cy="41.524" r="2.25" id="circle1975" style="fill:#4f1514;stroke:#eb5924;stroke-width:1.64999998px;stroke-miterlimit:10"/><circle class="cls-28" cx="59.845" cy="47.644" r="2.25" id="circle1977" style="fill:#3bbfc6;stroke:#4f1514;stroke-width:1.64999998px;stroke-linecap:round;stroke-linejoin:round"/><circle class="cls-30" cx="58.835" cy="53.424" r="2.25" id="circle1979" style="fill:#4f1514;stroke:#eb5924;stroke-width:1.64999998px;stroke-miterlimit:10"/><path class="cls-28" id="line1981" style="fill:#3bbfc6;stroke:#4f1514;stroke-width:1.64999998px;stroke-linecap:round;stroke-linejoin:round" d="m73.395 62.684 4.59-23.14"/><path d="M43.155 65.044a51.85 51.85 0 0 1-1-11.72s11.3-2.21 25.35 4.54c0 0 15.84 13.09 23.28 17.08 7.44 3.99 8.26 4.55 16.94 6.2a14.26 14.26 0 0 1 12 14.33s1.38 17.91-12.26 19l-57.72.55-1.24-.8a21.28 21.28 0 0 1-1-8.4l5.93-1.24 48.81-1.36 4.41-6.33-6.06-4.69-18.35-2.7-13.59-14.14-17.41-9.37z" id="path1983" style="fill:none;stroke:#060b0c;stroke-width:1.64999998px;stroke-miterlimit:10"/><path class="cls-32" d="M79.585 52.134s2.68-9.73 10.44-11.71c7.76-1.98 18.62-5.92 28.63 13.12 0 0-.14-6.91 3.81-8.74s15.09 1.41 16.08 10.15c.99 8.74-2.82 16.78-14.11 18.76 0 0-6.62 1-11.7-5.78 0 0-.61-11.9-11.24-12.79 0 0-4.42-.47-12.32 5.31 0 0-9.02 2.96-9.59-8.32z" id="path1985" style="fill:#81cfd8;stroke:#1a9190;stroke-width:3.01999998px;stroke-linecap:round;stroke-linejoin:round"/><path class="cls-33" d="M118.905 53.384s-1 6.34 5.09 6.34 5-5 3.86-6.61" id="path1987" style="fill:none;stroke:#1a9190;stroke-width:3.01999998px;stroke-linecap:round;stroke-linejoin:round"/><path d="M421.775 60.804a51.42 51.42 0 0 0 1-11.72s-11.29-2.2-25.34 4.55c0 0-15.84 13.09-23.28 17.08-7.44 3.99-8.27 4.55-16.95 6.2a14.24 14.24 0 0 0-11.96 14.31s-1.38 17.9 12.26 19l57.72.55 1.24-.83a21.18 21.18 0 0 0 1-8.4l-5.92-1.24-48.77-1.38-4.4-6.34 6.06-4.68 18.36-2.66 13.6-14.15 17.35-9.36z" id="path1989" style="fill:#3bbfc6;stroke:#060b0c;stroke-width:1.64999998px;stroke-miterlimit:10"/><path class="cls-29" d="M408.155 25.664a17.41 17.41 0 0 1 9-1.1c5.92 1.93 5.78 10.06 5.78 10.06l.69 14.46-11.12 7.14c-1.64-.81-2.73-1.86-2.73-3.26 0-4.22-2.41-18.75-3.72-26.32z" id="path1991" style="fill:#eb5924;stroke:#4f1514;stroke-width:1.64999998px;stroke-miterlimit:10"/><circle class="cls-17" cx="364.445" cy="63.964" r="10.84" id="circle1993" style="fill:#dddddc"/><path class="cls-17" d="M364.445 75.624a11.66 11.66 0 1 1 11.66-11.66 11.67 11.67 0 0 1-11.66 11.66zm0-21.67a10 10 0 1 0 10 10 10 10 0 0 0-10-10z" id="path1995" style="fill:#dddddc"/><path d="M368.345 63.824s-1-4.54-5.1-3.3" id="path1997" style="fill:none;stroke:#fff;stroke-width:2.75999999px;stroke-linecap:round;stroke-linejoin:round"/><path class="cls-28" id="polyline1999" style="fill:#3bbfc6;stroke:#4f1514;stroke-width:1.64999998px;stroke-linecap:round;stroke-linejoin:round" transform="translate(-48.755 -305.776)" d="m458.29 350.18 12.67-4.13-14.6-3.03 14.33-7.17-15.43-1.37"/><path class="cls-28" id="polygon2001" style="fill:#3bbfc6;stroke:#4f1514;stroke-width:1.64999998px;stroke-linecap:round;stroke-linejoin:round" transform="translate(-48.755 -305.776)" d="m456.91 331.44-2.1.97 3.48 23.65 3.21-1.2-3.21-23.23z"/><path class="cls-28" id="polygon2003" style="fill:#3bbfc6;stroke:#4f1514;stroke-width:1.64999998px;stroke-linecap:round;stroke-linejoin:round" transform="translate(-48.755 -305.776)" d="m447.41 334.75-2.11.96 3.49 23.65 3.21-1.19-3.21-23.24z"/><path class="cls-28" d="M395.625 38.614a2.59 2.59 0 0 0 1.51-2.06c0-1.38-.82-1.38-2.34-1l-5.65 2.07s-1.37.83-1.24 1.65c.13.82.55 1.38 2.48 1.1z" id="path2005" style="fill:#3bbfc6;stroke:#4f1514;stroke-width:1.64999998px;stroke-linecap:round;stroke-linejoin:round"/><path class="cls-29" d="M396.815 45.134a2.57 2.57 0 0 0 1.52-2.06c0-1.38-.83-1.38-2.35-1l-5.64 2.15s-1.38.83-1.24 1.65c.14.82.55 1.38 2.48 1.1z" id="path2007" style="fill:#eb5924;stroke:#4f1514;stroke-width:1.64999998px;stroke-miterlimit:10"/><path class="cls-28" d="M398.105 52.764a2.59 2.59 0 0 0 1.51-2.07c0-1.38-.82-1.38-2.34-1l-5.65 2.06s-1.38.83-1.24 1.66c.14.83.55 1.37 2.48 1.1z" id="path2009" style="fill:#3bbfc6;stroke:#4f1514;stroke-width:1.64999998px;stroke-linecap:round;stroke-linejoin:round"/><circle class="cls-28" cx="403.615" cy="31.314" r="2.25" id="circle2011" style="fill:#3bbfc6;stroke:#4f1514;stroke-width:1.64999998px;stroke-linecap:round;stroke-linejoin:round"/><circle class="cls-30" cx="404.285" cy="37.294" r="2.25" id="circle2013" style="fill:#4f1514;stroke:#eb5924;stroke-width:1.64999998px;stroke-miterlimit:10"/><circle class="cls-28" cx="405.075" cy="43.414" r="2.25" id="circle2015" style="fill:#3bbfc6;stroke:#4f1514;stroke-width:1.64999998px;stroke-linecap:round;stroke-linejoin:round"/><circle class="cls-30" cx="406.095" cy="49.194" r="2.25" id="circle2017" style="fill:#4f1514;stroke:#eb5924;stroke-width:1.64999998px;stroke-miterlimit:10"/><path class="cls-28" id="line2019" style="fill:#3bbfc6;stroke:#4f1514;stroke-width:1.64999998px;stroke-linecap:round;stroke-linejoin:round" d="m391.535 58.454-4.59-23.14"/><path class="cls-36" d="M421.775 60.804a51.42 51.42 0 0 0 1-11.72s-11.29-2.2-25.34 4.55c0 0-15.84 13.09-23.28 17.08-7.44 3.99-8.27 4.55-16.95 6.2a14.24 14.24 0 0 0-11.96 14.31s-1.38 17.9 12.26 19l57.72.55 1.24-.83a21.18 21.18 0 0 0 1-8.4l-5.92-1.24-48.77-1.38-4.4-6.34 6.06-4.68 18.36-2.66 13.6-14.15 17.35-9.36z" id="path2021" style="fill:#2aaeab;stroke:#1a9190;stroke-width:3.01999998px;stroke-linecap:round;stroke-linejoin:round"/><path class="cls-32" d="M385.585 47.904s-2.67-9.74-10.43-11.71c-7.76-1.97-18.62-5.92-28.63 13.12 0 0 .14-6.91-3.81-8.75-3.95-1.84-15.09 1.41-16.08 10.16-.99 8.75 2.82 16.78 14.1 18.76 0 0 6.63 1 11.71-5.79 0 0 .61-11.89 11.24-12.79 0 0 4.42-.47 12.31 5.32 0 0 9.03 3 9.59-8.32z" id="path2023" style="fill:#81cfd8;stroke:#1a9190;stroke-width:3.01999998px;stroke-linecap:round;stroke-linejoin:round"/><path class="cls-33" d="M346.405 49.654s1 6.34-5.1 6.34-5-5-3.86-6.61" id="path2025" style="fill:none;stroke:#1a9190;stroke-width:3.01999998px;stroke-linecap:round;stroke-linejoin:round"/><path class="cls-37" d="M402.925 71.584v3.49s-.37 1.56-1 1.56-1.75-.82-3.4-3.67l.92-1.74z" id="path2027" style="fill:#dddddc;stroke:#1a9190;stroke-width:1.50999999px;stroke-linecap:round;stroke-linejoin:round"/><path class="cls-38" d="M422.595 60.804s-14.46-3.71-27.27 8.68c0 0-7.44 12.81-16.94 14.05-9.5 1.24-21.91 2.9-21.08 9.51 0 0 .3 8.11 6.77 8.39l49.73.83 4.41-.69s.69-2.34-3.72-2.34l-27.41-.56h-16.95s-4.41-.55-5.65-3.3c-1.24-2.75 2.35-5.79 9.65-7.3 0 0 9.36-1.24 15-6.06 5.64-4.82 7.58-9.37 13.5-11.16 5.92-1.79 6.75-5 9.78-5.51 3.03-.51 11.4.88 10.18-4.54z" id="path2029" style="fill:#eb5924;stroke:#1a9190;stroke-width:1.50999999px;stroke-linecap:round;stroke-linejoin:round"/><path class="cls-37" d="M420.835 64.424s.46 9.83-4.6 15.43c0 0-1.1-8.36-2.29-11.85s-.55-4.32 3.4-4.32z" id="path2031" style="fill:#dddddc;stroke:#1a9190;stroke-width:1.50999999px;stroke-linecap:round;stroke-linejoin:round"/><path class="cls-37" id="polygon2033" style="fill:#dddddc;stroke:#1a9190;stroke-width:1.50999999px;stroke-linecap:round;stroke-linejoin:round" transform="translate(-48.755 -305.776)" d="m460.86 375.71-4.13-1.75 3.4-2.38 2.02 2.94z"/><path class="cls-37" d="m407.515 69.014.55 3.67a1.26 1.26 0 0 1-1.19.83c-.92 0-3.49-2.57-3.49-2.57l1.56-1.84z" id="path2035" style="fill:#dddddc;stroke:#1a9190;stroke-width:1.50999999px;stroke-linecap:round;stroke-linejoin:round"/><path class="cls-37" d="m394.935 76.364 2.29 3.95s.65.92-.82.92a33.82 33.82 0 0 1-5.15-.92l.92 2.75s.65 1 .19 1.47-2.48-.09-2.48-.09l-2.39-1.29 5.88-6.52z" id="path2037" style="fill:#dddddc;stroke:#1a9190;stroke-width:1.50999999px;stroke-linecap:round;stroke-linejoin:round"/><path class="cls-37" d="m387.035 84.074.37 3.22s.09 1.47-.65 1.65c-.74.18-3.21-3.67-3.21-3.67l2.2-1.47z" id="path2039" style="fill:#dddddc;stroke:#1a9190;stroke-width:1.50999999px;stroke-linecap:round;stroke-linejoin:round"/><path class="cls-37" d="m380.605 86.834-.27 4.31s-.1 1.11-.83 1.11-1.75-1.57-3.31-4.6l-.82 4.41a2.53 2.53 0 0 1-1.56.83c-.83 0-1.84-.74-3.13-3.77l3.49-2.11 5.88-.92z" id="path2041" style="fill:#dddddc;stroke:#1a9190;stroke-width:1.50999999px;stroke-linecap:round;stroke-linejoin:round"/><path class="cls-37" d="m369.675 89.774.57 3.45s.19 1.56-.55 1.56-3.95-3.86-3.95-3.86l1.93-1z" id="path2043" style="fill:#dddddc;stroke:#1a9190;stroke-width:1.50999999px;stroke-linecap:round;stroke-linejoin:round"/><path class="cls-37" d="M407.145 98.864s2.21-8.82 1.29-14.42c-.92-5.6 1.74-4.78 2.39-3.4.65 1.38 7.16 5.33 4.5 17.91z" id="path2045" style="fill:#dddddc;stroke:#1a9190;stroke-width:1.50999999px;stroke-linecap:round;stroke-linejoin:round"/><path class="cls-37" d="m404.575 98.584.09-6.15a2.3 2.3 0 0 0-1.1-.28c-.64 0-2.11.92-2.75 3.86l-1.38-2.85a1.93 1.93 0 0 0-1.38-.73c-.83 0-1.38-.09-2.57 3.12 0 0-.28-.09-1.29-1.93a2.44 2.44 0 0 0-2.57-1.47l-.46 6.43z" id="path2047" style="fill:#dddddc;stroke:#1a9190;stroke-width:1.50999999px;stroke-linecap:round;stroke-linejoin:round"/><path class="cls-37" d="m385.305 98.714.07-5.23a1.93 1.93 0 0 0-.93-.24c-.55 0-1.8.79-2.34 3.29l-1.18-2.42a1.61 1.61 0 0 0-1.17-.62c-.7 0-1.17-.08-2.18 2.66 0 0-.24-.08-1.1-1.64a2.07 2.07 0 0 0-2.23-1.29l-.38 5.47z" id="path2049" style="fill:#dddddc;stroke:#1a9190;stroke-width:1.50999999px;stroke-linecap:round;stroke-linejoin:round"/><ellipse class="cls-26" cx="365.345" cy="63.144" rx="6.75" ry="6.8" id="ellipse2051" style="fill:#1a9190;stroke:#4f1514;stroke-width:2.38000011px;stroke-miterlimit:10"/><path class="cls-27" d="M367.695 63.284c.08.36.43-4-4-2.62" id="path2053" style="fill:none;stroke:#fff;stroke-width:2.18000007px;stroke-linecap:round;stroke-linejoin:round"/><path class="cls-24" d="M233.755 91.474s-1-27.42 2.35-38.44" id="path2055" style="fill:none;stroke:#1a9190;stroke-width:5.03000021px;stroke-miterlimit:10"/><path class="cls-24" d="M188.295 127.684s3.35 27.49.64 50" id="path2057" style="fill:none;stroke:#1a9190;stroke-width:5.03000021px;stroke-miterlimit:10"/><path class="cls-24" d="M274.405 139.994s-2 25.65-.19 39.38" id="path2059" style="fill:none;stroke:#1a9190;stroke-width:5.03000021px;stroke-miterlimit:10"/><path class="cls-24" d="M318.475 89.954a53.54 53.54 0 0 0 2.24-11.86 140 140 0 0 0 0-20.8" id="path2061" style="fill:none;stroke:#1a9190;stroke-width:5.03000021px;stroke-miterlimit:10"/><path class="cls-36" d="M43.155 65.044a51.85 51.85 0 0 1-1-11.72s11.3-2.21 25.35 4.54c0 0 15.84 13.09 23.28 17.08 7.44 3.99 8.26 4.55 16.94 6.2a14.26 14.26 0 0 1 12 14.33s1.38 17.91-12.26 19l-57.72.55-1.24-.8a21.28 21.28 0 0 1-1-8.4l5.93-1.24 48.81-1.36 4.41-6.33-6.06-4.69-18.35-2.7-13.59-14.14-17.41-9.37z" id="path2063" style="fill:#2aaeab;stroke:#1a9190;stroke-width:3.01999998px;stroke-linecap:round;stroke-linejoin:round"/><path class="cls-37" d="M62.005 75.824v3.49s.37 1.56 1 1.56 1.74-.83 3.4-3.68l-.92-1.74z" id="path2065" style="fill:#dddddc;stroke:#1a9190;stroke-width:1.50999999px;stroke-linecap:round;stroke-linejoin:round"/><path class="cls-38" d="M42.325 65.044s14.47-3.72 27.28 8.68c0 0 7.44 12.81 16.94 14.05 9.5 1.24 21.9 2.89 21.08 9.5 0 0-.3 8.12-6.77 8.39l-49.73.83-4.41-.69s-.69-2.34 3.72-2.34l27.41-.55h16.94s4.41-.55 5.65-3.31c1.24-2.76-2.34-5.78-9.64-7.3 0 0-9.37-1.24-15-6.06-5.63-4.82-7.55-9.37-13.55-11.16-6-1.79-6.75-5-9.78-5.51-3.03-.51-11.35.85-10.14-4.53z" id="path2067" style="fill:#eb5924;stroke:#1a9190;stroke-width:1.50999999px;stroke-linecap:round;stroke-linejoin:round"/><path class="cls-37" d="M44.095 68.654s-.46 9.83 4.59 15.43c0 0 1.1-8.36 2.3-11.85 1.2-3.49.55-4.31-3.4-4.31z" id="path2069" style="fill:#dddddc;stroke:#1a9190;stroke-width:1.50999999px;stroke-linecap:round;stroke-linejoin:round"/><path class="cls-37" id="polygon2071" style="fill:#dddddc;stroke:#1a9190;stroke-width:1.50999999px;stroke-linecap:round;stroke-linejoin:round" transform="translate(-48.755 -305.776)" d="m101.58 379.94 4.13-1.74-3.4-2.39-2.02 2.94z"/><path class="cls-37" d="m57.415 73.224-.55 3.67a1.26 1.26 0 0 0 1.19.83c.92 0 3.49-2.58 3.49-2.58l-1.56-1.83z" id="path2073" style="fill:#dddddc;stroke:#1a9190;stroke-width:1.50999999px;stroke-linecap:round;stroke-linejoin:round"/><path class="cls-37" d="m69.995 80.594-2.3 3.95s-.64.92.83.92a33.63 33.63 0 0 0 5.14-.92l-.92 2.76s-.64 1-.18 1.47 2.48-.1 2.48-.1l2.39-1.28-5.88-6.52z" id="path2075" style="fill:#dddddc;stroke:#1a9190;stroke-width:1.50999999px;stroke-linecap:round;stroke-linejoin:round"/><path class="cls-37" d="m77.895 88.314-.37 3.21s-.09 1.47.64 1.65c.73.18 3.22-3.67 3.22-3.67l-2.21-1.47z" id="path2077" style="fill:#dddddc;stroke:#1a9190;stroke-width:1.50999999px;stroke-linecap:round;stroke-linejoin:round"/><path class="cls-37" d="m84.325 91.064.27 4.32s.09 1.1.83 1.1 1.74-1.56 3.3-4.59l.83 4.41a2.51 2.51 0 0 0 1.56.82c.83 0 1.84-.73 3.12-3.76l-3.49-2.14-5.87-.92z" id="path2079" style="fill:#dddddc;stroke:#1a9190;stroke-width:1.50999999px;stroke-linecap:round;stroke-linejoin:round"/><path class="cls-37" d="m95.245 94.004-.55 3.49s-.18 1.56.55 1.56 4-3.83 4-3.83l-2-1z" id="path2081" style="fill:#dddddc;stroke:#1a9190;stroke-width:1.50999999px;stroke-linecap:round;stroke-linejoin:round"/><path class="cls-37" d="M57.775 103.094s-2.2-8.81-1.28-14.42c.92-5.61-1.75-4.77-2.39-3.39-.64 1.38-7.16 5.32-4.5 17.9z" id="path2083" style="fill:#dddddc;stroke:#1a9190;stroke-width:1.50999999px;stroke-linecap:round;stroke-linejoin:round"/><path class="cls-37" d="m60.355 102.824-.1-6.16a2.39 2.39 0 0 1 1.11-.27c.64 0 2.11.92 2.75 3.86l1.38-2.85a1.92 1.92 0 0 1 1.38-.74c.82 0 1.37-.09 2.57 3.13 0 0 .27-.1 1.28-1.93a2.42 2.42 0 0 1 2.57-1.47l.46 6.43z" id="path2085" style="fill:#dddddc;stroke:#1a9190;stroke-width:1.50999999px;stroke-linecap:round;stroke-linejoin:round"/><path class="cls-37" d="m79.615 102.944-.07-5.23a2.06 2.06 0 0 1 .94-.23c.55 0 1.8.78 2.34 3.28l1.17-2.42a1.65 1.65 0 0 1 1.18-.62c.7 0 1.17-.08 2.18 2.66 0 0 .23-.08 1.09-1.64a2.06 2.06 0 0 1 2.19-1.24l.38 5.46z" id="path2087" style="fill:#dddddc;stroke:#1a9190;stroke-width:1.50999999px;stroke-linecap:round;stroke-linejoin:round"/><path class="cls-24" d="m82.245 42.134-25.5-11.68a17.24 17.24 0 0 0-9-1.1c-5.92 1.93-5.79 10.05-5.79 10.05l-.68 14.47m155.23 46.57c-2.29 10.89-5.91 18.25-8.28 27.79-1.94-12.62-6.71-30.38-8.66-47.62-2.48-21.91 6.61-26.87 16.53-21.08 9.92 5.79 5.44 17.36.48 40.91zm31.89 74.78c-11.15.41-10.33-19.42-6.61-31.82 2.49-8.29 8.11-32.63 11.69-53.05 1 11.49 3.79 23.45 6.91 39.82 6.61 34.74-.83 44.66-11.99 45.05zm56.62-78.1c-3.34 14-8.25 24.83-10.61 43.4-.46-6.95-1-12.32-1-14.48 0-7.85-8.27-33.47-8.27-33.47-2.48-19.84-1.24-37.19 13.23-34.71 14.47 2.48 11.19 20.27 6.65 39.28zm31.82 77.27c-11.57 0-12-11.16-12-16.53 0-5.19 7.72-41.63 14.58-71.67-1.18 5.16-.13 11.84-.18 17.14-.1 9.36 2.85 18.4 5.35 27.32 2.8 10.02 11.18 43.76-7.75 43.76z" id="path2089" style="fill:none;stroke:#1a9190;stroke-width:5.03000021px;stroke-miterlimit:10"/><path class="cls-24" d="m423.485 50.964-.59-15.74s.14-8.13-5.78-10.06a17.36 17.36 0 0 0-9 1.11l-25.17 11.53m-186.37 62.64c-2.29 10.89-5.91 18.25-8.28 27.79-1.94-12.62-6.71-30.38-8.66-47.62-2.48-21.91 6.61-26.87 16.53-21.08 9.92 5.79 5.37 17.36.41 40.91zm31.82 74.78c-11.15.41-10.33-19.42-6.61-31.82 2.49-8.29 8.11-32.63 11.69-53.05 1 11.49 3.79 23.45 6.91 39.82 6.61 34.74-.83 44.66-11.99 45.05zm56.62-78.1c-3.34 14-8.25 24.83-10.61 43.4-.46-6.95-1-12.32-1-14.48 0-7.85-8.27-33.47-8.27-33.47-2.48-19.84-1.24-37.19 13.23-34.71 14.47 2.48 11.19 20.27 6.65 39.28zm31.82 77.27c-11.57 0-12-11.16-12-16.53 0-5.19 7.72-41.63 14.58-71.67-1.18 5.16-.13 11.84-.18 17.14-.1 9.36 2.85 18.4 5.35 27.32 2.8 10.02 11.18 43.76-7.75 43.76z" id="path2091" style="fill:none;stroke:#1a9190;stroke-width:5.03000021px;stroke-miterlimit:10"/><path id="polygon2093" style="fill:url(#linearGradient3223)" transform="translate(-48.755 -305.776)" d="m210.29 358.27 7.92-9.47-.08-.06-17.25 1.54-.06.07z"/><path id="polygon2095" style="fill:url(#linear-gradient-6)" transform="translate(-48.755 -305.776)" d="m211.14 367.75 7.92-9.47-.08-.06-17.25 1.54-.06.07z"/><path id="polygon2097" style="fill:url(#linear-gradient-7)" transform="translate(-48.755 -305.776)" d="m211.98 377.23 7.92-9.47-.07-.06-17.25 1.54-.07.07z"/><path id="polygon2099" style="fill:url(#linear-gradient-8)" transform="translate(-48.755 -305.776)" d="m212.83 386.71 7.92-9.46-.08-.07-17.25 1.54-.06.08z"/><path id="polygon2101" style="fill:url(#linear-gradient-9)" transform="translate(-48.755 -305.776)" d="m213.68 396.2 7.91-9.47-.07-.07-17.25 1.54-.06.08z"/><path id="polygon2103" style="fill:url(#linear-gradient-10)" transform="translate(-48.755 -305.776)" d="m214.52 405.68 7.92-9.47-.07-.07-17.25 1.55-.07.07z"/><path id="polygon2105" style="fill:url(#linear-gradient-11)" transform="translate(-48.755 -305.776)" d="m215.37 415.16 7.92-9.47-.08-.06-17.25 1.54-.06.07z"/><path id="polygon2107" style="fill:url(#linear-gradient-12)" transform="translate(-48.755 -305.776)" d="m216.22 424.64 7.91-9.47-.07-.06-17.25 1.54-.06.07z"/><path id="polygon2109" style="fill:url(#linear-gradient-13)" transform="translate(-48.755 -305.776)" d="m217.06 434.12 7.92-9.47-.07-.06-17.25 1.54-.07.07z"/><path id="polygon2111" style="fill:url(#linear-gradient-14)" transform="translate(-48.755 -305.776)" d="m217.93 443.81 7.91-9.47-.07-.07-17.25 1.54-.06.08z"/><path id="polygon2113" style="fill:url(#linear-gradient-15)" transform="translate(-48.755 -305.776)" d="m218.77 453.29 7.92-9.47-.07-.06-17.25 1.54-.07.07z"/><path id="polygon2115" style="fill:url(#linear-gradient-16)" transform="translate(-48.755 -305.776)" d="m219.62 462.77 7.92-9.47-.08-.06-17.25 1.54-.06.07z"/><path id="polygon2117" style="fill:url(#linear-gradient-17)" transform="translate(-48.755 -305.776)" d="m220.47 472.25 7.91-9.47-.07-.06-17.25 1.54-.06.07z"/><path id="polygon2119" style="fill:url(#linear-gradient-18)" transform="translate(-48.755 -305.776)" d="m221.31 481.73 7.92-9.47-.07-.06-17.25 1.54-.07.08z"/><path id="polygon2121" style="fill:url(#linear-gradient-19)" transform="translate(-48.755 -305.776)" d="m266.36 358.77 9.7-7.63-.06-.08-17.2-2.06-.07.06z"/><path id="polygon2123" style="fill:url(#linear-gradient-20)" transform="translate(-48.755 -305.776)" d="m265.22 368.22 9.71-7.63-.06-.08-17.2-2.06-.08.06z"/><path id="polygon2125" style="fill:url(#linear-gradient-21)" transform="translate(-48.755 -305.776)" d="m264.09 377.67 9.71-7.63-.06-.08-17.2-2.05-.08.06z"/><path id="polygon2127" style="fill:url(#linear-gradient-22)" transform="translate(-48.755 -305.776)" d="m262.96 387.12 9.71-7.63-.06-.07-17.2-2.06-.08.06z"/><path id="polygon2129" style="fill:url(#linear-gradient-23)" transform="translate(-48.755 -305.776)" d="m261.83 396.57 9.71-7.63-.06-.07-17.2-2.06-.08.06z"/><path id="polygon2131" style="fill:url(#linear-gradient-24)" transform="translate(-48.755 -305.776)" d="m260.7 406.03 9.7-7.63-.05-.08-17.2-2.06-.08.06z"/><path id="polygon2133" style="fill:url(#linear-gradient-25)" transform="translate(-48.755 -305.776)" d="m259.57 415.48 9.7-7.63-.06-.08-17.19-2.06-.08.06z"/><path id="polygon2135" style="fill:url(#linear-gradient-26)" transform="translate(-48.755 -305.776)" d="m258.44 424.93 9.7-7.63-.06-.08-17.19-2.05-.08.06z"/><path id="polygon2137" style="fill:url(#linear-gradient-27)" transform="translate(-48.755 -305.776)" d="m257.31 434.38 9.7-7.63-.06-.07-17.19-2.06-.08.06z"/><path id="polygon2139" style="fill:url(#linear-gradient-28)" transform="translate(-48.755 -305.776)" d="m256.15 444.04 9.71-7.63-.06-.08-17.2-2.06-.07.06z"/><path id="polygon2141" style="fill:url(#linear-gradient-29)" transform="translate(-48.755 -305.776)" d="m255.03 453.49 9.7-7.63-.06-.08-17.2-2.05-.07.06z"/><path id="polygon2143" style="fill:url(#linear-gradient-30)" transform="translate(-48.755 -305.776)" d="m253.89 462.94 9.71-7.63-.06-.08-17.2-2.05-.08.06z"/><path id="polygon2145" style="fill:url(#linear-gradient-31)" transform="translate(-48.755 -305.776)" d="m252.76 472.39 9.71-7.63-.06-.07-17.2-2.06-.08.06z"/><path id="polygon2147" style="fill:url(#linear-gradient-32)" transform="translate(-48.755 -305.776)" d="m251.63 481.84 9.71-7.63-.06-.07-17.2-2.06-.08.06z"/><path id="polygon2149" style="fill:url(#linear-gradient-33)" transform="translate(-48.755 -305.776)" d="m353.5 358.72-7.71-9.65.08-.06 17.21 1.93.06.07z"/><path id="polygon2151" style="fill:url(#linear-gradient-34)" transform="translate(-48.755 -305.776)" d="m352.44 368.18-7.71-9.65.08-.06 17.21 1.93.06.07z"/><path id="polygon2153" style="fill:url(#linear-gradient-35)" transform="translate(-48.755 -305.776)" d="m351.38 377.64-7.71-9.65.08-.06 17.21 1.93.06.07z"/><path id="polygon2155" style="fill:url(#linear-gradient-36)" transform="translate(-48.755 -305.776)" d="m350.32 387.1-7.7-9.65.07-.06 17.21 1.93.06.07z"/><path id="polygon2157" style="fill:url(#linear-gradient-37)" transform="translate(-48.755 -305.776)" d="m349.26 396.56-7.7-9.65.07-.06 17.22 1.93.06.07z"/><path id="polygon2159" style="fill:url(#linear-gradient-38)" transform="translate(-48.755 -305.776)" d="m348.2 406.02-7.7-9.65.08-.06 17.21 1.93.06.07z"/><path id="polygon2161" style="fill:url(#linear-gradient-39)" transform="translate(-48.755 -305.776)" d="m347.14 415.48-7.7-9.65.08-.06 17.21 1.93.06.07z"/><path id="polygon2163" style="fill:url(#linear-gradient-40)" transform="translate(-48.755 -305.776)" d="m346.09 424.94-7.71-9.65.08-.06 17.21 1.93.06.07z"/><path id="polygon2165" style="fill:url(#linear-gradient-41)" transform="translate(-48.755 -305.776)" d="m345.03 434.4-7.71-9.65.08-.06 17.21 1.93.06.07z"/><path id="polygon2167" style="fill:url(#linear-gradient-42)" transform="translate(-48.755 -305.776)" d="m343.95 444.06-7.71-9.64.08-.06 17.21 1.92.06.08z"/><path id="polygon2169" style="fill:url(#linear-gradient-43)" transform="translate(-48.755 -305.776)" d="m342.89 453.52-7.7-9.64.07-.06 17.21 1.92.06.08z"/><path id="polygon2171" style="fill:url(#linear-gradient-44)" transform="translate(-48.755 -305.776)" d="m341.83 462.98-7.7-9.64.07-.06 17.21 1.92.07.08z"/><path id="polygon2173" style="fill:url(#linear-gradient-45)" transform="translate(-48.755 -305.776)" d="m340.77 472.44-7.7-9.64.07-.06 17.22 1.92.06.08z"/><path id="polygon2175" style="fill:url(#linear-gradient-46)" transform="translate(-48.755 -305.776)" d="m339.71 481.9-7.7-9.64.08-.06 17.21 1.92.06.08z"/><path id="polygon2177" style="fill:url(#linear-gradient-47)" transform="translate(-48.755 -305.776)" d="m299.24 358.44-9.18-8.24.06-.07 17.3-.94.07.07z"/><path id="polygon2179" style="fill:url(#linear-gradient-48)" transform="translate(-48.755 -305.776)" d="m299.76 367.95-9.19-8.25.07-.07 17.29-.93.07.06z"/><path id="polygon2181" style="fill:url(#linear-gradient-49)" transform="translate(-48.755 -305.776)" d="m300.27 377.45-9.19-8.24.07-.07 17.29-.94.08.07z"/><path id="polygon2183" style="fill:url(#linear-gradient-50)" transform="translate(-48.755 -305.776)" d="m300.79 386.96-9.19-8.25.06-.07 17.3-.93.07.06z"/><path id="polygon2185" style="fill:url(#linear-gradient-51)" transform="translate(-48.755 -305.776)" d="m301.3 396.46-9.19-8.24.07-.07 17.29-.94.07.07z"/><path id="polygon2187" style="fill:url(#linear-gradient-52)" transform="translate(-48.755 -305.776)" d="m301.81 405.97-9.18-8.24.06-.08 17.3-.93.07.06z"/><path id="polygon2189" style="fill:url(#linear-gradient-53)" transform="translate(-48.755 -305.776)" d="m302.33 415.48-9.19-8.25.07-.07 17.29-.94.07.07z"/><path id="polygon2191" style="fill:url(#linear-gradient-54)" transform="translate(-48.755 -305.776)" d="m302.84 424.98-9.19-8.24.07-.08 17.29-.93.08.06z"/><path id="polygon2193" style="fill:url(#linear-gradient-55)" transform="translate(-48.755 -305.776)" d="m303.36 434.49-9.19-8.25.06-.07 17.3-.94.07.07z"/><path id="polygon2195" style="fill:url(#linear-gradient-56)" transform="translate(-48.755 -305.776)" d="m303.88 444.2-9.19-8.25.07-.07 17.29-.94.08.07z"/><path id="polygon2197" style="fill:url(#linear-gradient-57)" transform="translate(-48.755 -305.776)" d="m304.39 453.7-9.18-8.24.06-.08 17.3-.93.07.06z"/><path id="polygon2199" style="fill:url(#linear-gradient-58)" transform="translate(-48.755 -305.776)" d="m304.91 463.21-9.19-8.25.07-.07 17.29-.94.07.07z"/><path id="polygon2201" style="fill:url(#linear-gradient-59)" transform="translate(-48.755 -305.776)" d="m305.42 472.71-9.18-8.24.06-.08 17.3-.93.07.06z"/><path id="polygon2203" style="fill:url(#linear-gradient-60)" transform="translate(-48.755 -305.776)" d="m305.94 482.22-9.19-8.25.07-.07 17.29-.94.07.07z"/><circle class="cls-16" cx="175.815" cy="160.693" r="43.333" transform="rotate(-31.945)" id="circle2205" style="fill:#1a9190;stroke-width:1.00169861"/><circle class="cls-7" cx="232.905" cy="44.764" r="32.46" id="circle2207" style="fill:#eb5924"/><path class="cls-11" d="M232.905 83.224a38.41 38.41 0 1 1 38.41-38.41 38.44 38.44 0 0 1-38.41 38.41zm0-64.92a26.52 26.52 0 1 0 26.52 26.51 26.55 26.55 0 0 0-26.52-26.59z" id="path2209" style="fill:#510f0f"/><path d="M206.525 47.434a26.52 26.52 0 0 0 52.87-1.47c-.43.39-.86.81-1.29 1.25-23.09 23.75-48.77 2.67-51.58.22z" id="path2211" style="fill:#bc3c26"/><path class="cls-96" d="m248.585 67.994-2.4-.21c3.69-15.18.12-21.7-2.86-27.93-.77-1.61-1.5-3.13-2.07-4.71-2.47-6.93 2.52-11.81 6.08-13.69l2.69.24-.13 2.07c-.34.18-7.79 4.26-5.63 10.3a45.44 45.44 0 0 0 1.94 4.41c3.06 6.38 7.78 10.37 3.82 26.65z" id="path2213" style="fill:#aaa"/><path d="m217.855 67.994 2.39-.21c-3.69-15.18-.12-21.7 2.86-27.93a49 49 0 0 0 2.07-4.71c2.47-6.93-2.52-11.81-6.08-13.69l-2.69.24.13 2.07c.34.18 7.79 4.26 5.63 10.3a45.44 45.44 0 0 1-1.94 4.41c-3.06 6.38-7.78 10.37-3.82 26.65z" id="path2215" style="fill:#e2e2e1"/><path id="polygon2217" style="fill:url(#linearGradient3225)" transform="translate(-48.755 -305.776)" d="m280.42 323.75 1.7-1.42 1.5 1.42v54.98h-3.2z"/><path d="m206.465 45.114-1.34-2.08 1.27-2.7c.58-.63 13.08-13.92 29.87-13.13 9.13.43 15.8 3.52 22.85 12.83l1.46 2.92-1.05 2.14-1.44-1.27c-6.44-8.52-13.83-13-21.95-13.43-15.29-.72-28.46 13.4-28.59 13.54z" id="path2219" style="fill:url(#linearGradient3227)"/><path class="cls-16" d="M190.705 47.434s-12.46-2.21-19.53 12.05c0 0 2-19.93 23.64-16.89" id="path2221" style="fill:#1a9190"/><path class="cls-16" d="M274.915 46.954s12.5-2.26 19.54 12.06c0 0-2-19.94-23.65-16.89" id="path2223" style="fill:#1a9190"/><path class="cls-16" d="M112.395 119.424s11.42 0 12.38-15.23c0 .03 5.07 17.13-12.38 15.23z" id="path2225" style="fill:#1a9190"/><path class="cls-16" d="M88.355 51.754s11.43-7.61 22.85 0c.04 0-12.61-13.53-22.85 0z" id="path2227" style="fill:#1a9190"/><path class="cls-16" d="M129.685 177.494s-18.4-18.09-1.27-51.73c0 0-21.89 22.22-6.66 51.73" id="path2229" style="fill:#1a9190"/><path class="cls-16" d="M333.405 176.064s18.41-18.09 1.27-51.72c0 0 21.89 22.21 6.66 51.72" id="path2231" style="fill:#1a9190"/><path class="cls-16" d="M352.245 113.414s-11.43 0-12.38-15.23c-.02.04-5.09 17.14 12.38 15.23z" id="path2233" style="fill:#1a9190"/><path class="cls-16" d="M376.245 45.754s-11.42-7.62-22.84 0c.01 0 12.62-13.53 22.84 0z" id="path2235" style="fill:#1a9190"/><path d="M454.565 211.224v-43.62l-9.22-5.73c-9.38-5.84-22.69-9.47-34.74-9.47-13.77 0-25.66 4.7-34.39 13.58a44.21 44.21 0 0 0-10 15.89 51.38 51.38 0 0 0-18.58-3.42c-7 0-13-1.06-19.17 1.75h-223.22l-8-25.28h-83.73l16.67 33.67-26.63 88.16h313.74v-10.9a46.26 46.26 0 0 0 30.13 10.9c9.16 0 18.51-2.5 25-6.67l3.35-2.16c9.44 5.46 22.58 8.83 34.53 8.83 13.87 0 25.86-4.52 34.65-13.06 8.79-8.54 13.49-20.13 13.49-33.47a46.31 46.31 0 0 0-3.88-19z" id="path2237" style="fill:#1a9190;stroke:#cccbcb;stroke-width:5.28000021px;stroke-miterlimit:10"/><path class="cls-101" id="polygon2239" style="fill:#dddddc;stroke:#aaa;stroke-width:3.06999993px;stroke-miterlimit:10" transform="translate(-48.755 -305.776)" d="m193.31 517.36-17.39.11-3.96-13.62h41.28l-18.07 39.2H213.48v12.67h-37.74l15.57-35.26z"/><path class="cls-101" id="polygon2241" style="fill:#dddddc;stroke:#aaa;stroke-width:3.06999993px;stroke-miterlimit:10" transform="translate(-48.755 -305.776)" d="M243.18 517.79v-13.94h45.21l-3.98 13.94h-13.96v37.93h-14v-37.93z"/><path class="cls-101" id="polygon2243" style="fill:#dddddc;stroke:#aaa;stroke-width:3.06999993px;stroke-miterlimit:10" transform="translate(-48.755 -305.776)" d="m347.45 503.85-3.96 13.62h-15.35v8.68h11.82v8.07h-11.82v8.83h15.57v12.67h-29.57v-51.87z"/><path class="cls-101" d="M347.425 249.944c-14.34 0-24.74-11.27-24.74-26.81s10.48-26.81 24.93-26.81a28.46 28.46 0 0 1 11.21 2.21v15a23.94 23.94 0 0 0-9-1.91c-7.84 0-13.11 4.82-13.11 12a11.4 11.4 0 0 0 3.53 8.6 13.76 13.76 0 0 0 9.57 3.32 24.49 24.49 0 0 0 9.3-1.94v13.92a28.52 28.52 0 0 1-11.69 2.42z" id="path2245" style="fill:#dddddc;stroke:#aaa;stroke-width:3.06999993px;stroke-miterlimit:10"/><path d="M410.325 252.444a48.23 48.23 0 0 1-21.74-5.33v-19.32c7.84 4.87 14.84 6.63 18.62 6.63 5.46 0 7.41-3.75 7.41-7a6.64 6.64 0 0 0-4.9-6.68c-.61-.19-1.35-.38-2.2-.6-4.07-1.05-10.84-2.8-15.92-8.44-3.36-3.8-5-8.79-5-15.26 0-7.5 2.19-13.81 6.34-18.23s10.32-6.86 17.66-6.86a46.73 46.73 0 0 1 20.5 5.11v19.14c-7.34-3.61-13.57-4.92-16.81-4.92-5.12 0-7.41 3.37-7.41 6.72a7.06 7.06 0 0 0 4.63 6.79h.11c.74.28 1.61.52 2.72.83 3.84 1.06 10.26 2.84 14.93 7.49 3.84 4 5.71 9.11 5.71 15.71 0 7.33-2.27 13.43-6.57 17.65-4.3 4.22-10.57 6.57-18.08 6.57z" id="path2247" style="fill:#dddddc;stroke:#aaa;stroke-width:3.1400001px;stroke-miterlimit:10"/><path class="cls-101" d="m80.855 249.944-2.37-10.85h-20.15l-2.65 10.85h-22l20.49-67.82-4.62-9.33h31.41l24.28 77.15zm-18.74-26.07h12.92l-2.56-12.76-3.63-15.21-4 14.93z" id="path2249" style="fill:#dddddc;stroke:#aaa;stroke-width:3.06999993px;stroke-miterlimit:10"/><path id="polygon2251" style="fill:#510f0f;stroke:#1a9190;stroke-width:5.57999992px;stroke-miterlimit:10" transform="translate(-48.755 -305.776)" d="M109.63 568.61h338.43l-8.37 32.67H118z"/><path class="cls-11" id="rect2253" style="fill:#510f0f" d="M206.775 286.554h51.41v38.47h-51.41z"/><path class="cls-16" id="rect2255" style="fill:#1a9190" d="M213.525 292.434h12.3v24.81h-12.3z"/><path class="cls-17" id="rect2257" style="fill:#dddddc" d="M225.675 292.434h14.37v24.81h-14.37z"/><path class="cls-7" id="rect2259" style="fill:#eb5924" d="M240.065 292.434h12.3v24.81h-12.3z"/><circle class="cls-96" cx="233.225" cy="305.094" r="3.77" id="circle2261" style="fill:#aaa"/><path class="cls-96" d="M107.175 273.284a8.91 8.91 0 0 1 3.7.73v4.64a7.2 7.2 0 0 0-3.13-.8c-1.77 0-2.73.85-2.73 2s1 2 2.73 2a6.76 6.76 0 0 0 3.2-.84v4.43a9 9 0 0 1-3.83.79c-4.2 0-7.28-2.75-7.28-6.49s3.06-6.46 7.34-6.46z" id="path2263" style="fill:#aaa"/><path class="cls-96" d="M117.585 273.474h5.18v12.58h-5.18z" id="path2265" style="fill:#aaa"/><path class="cls-96" d="M129.485 280.344v-6.87h5.18v6.52c0 1.18.39 2 1.58 2s1.55-.73 1.55-2v-6.54h4.66v6.8a5.94 5.94 0 0 1-1.15 3.94 6.94 6.94 0 0 1-5.37 2 6.84 6.84 0 0 1-5.26-2 5.62 5.62 0 0 1-1.19-3.85z" id="path2267" style="fill:#aaa"/><path class="cls-96" d="M149.185 286.054v-12.58h5.26a7.85 7.85 0 0 1 5.58 2 6.06 6.06 0 0 1 0 8.64 7.86 7.86 0 0 1-5.58 2zm5.18-4.1h.12a2.61 2.61 0 0 0 1.94-.71 2.11 2.11 0 0 0 .58-1.48 2.17 2.17 0 0 0-.58-1.51 2.5 2.5 0 0 0-1.91-.68h-.15z" id="path2269" style="fill:#aaa"/><path class="cls-96" d="M171.245 273.474h5l4.8 12.58h-5.6l-.43-1.65h-2.89l-.48 1.65h-5.15zm2.88 7.77-.55-2.56-.55 2.56z" id="path2271" style="fill:#aaa"/><path class="cls-96" d="M187.105 286.054v-12.58h5.27a7.87 7.87 0 0 1 5.58 2 6.07 6.07 0 0 1 0 8.64 7.84 7.84 0 0 1-5.58 2zm5.18-4.1h.12a2.65 2.65 0 0 0 2-.71 2.1 2.1 0 0 0 .57-1.48 2.16 2.16 0 0 0-.57-1.51 2.53 2.53 0 0 0-1.91-.68h-.25z" id="path2273" style="fill:#aaa"/><path class="cls-96" d="M216.675 286.054v-12.58h5.26a7.85 7.85 0 0 1 5.58 2 6.06 6.06 0 0 1 0 8.64 7.86 7.86 0 0 1-5.58 2zm5.18-4.1h.12a2.61 2.61 0 0 0 1.94-.71 2.11 2.11 0 0 0 .58-1.48 2.17 2.17 0 0 0-.58-1.51 2.5 2.5 0 0 0-1.91-.68h-.15z" id="path2275" style="fill:#aaa"/><path class="cls-96" d="M235.805 273.474h9.06v4.21h-3.88v.67h3.13v3h-3.13v.72h4.12v4h-9.3z" id="path2277" style="fill:#aaa"/><path class="cls-96" d="M262.035 273.474h4.83l2.5 3.16 2.42-3.16h4.69v12.58h-5.18v-6.13l-2.24 2.95-2.3-2.95v6.13h-4.66z" id="path2279" style="fill:#aaa"/><path class="cls-96" d="M283.245 273.474h9v4.21h-3.87v.67h3.13v3h-3.13v.72h4.12v4h-9.25z" id="path2281" style="fill:#aaa"/><path class="cls-96" d="m302.345 279.364-3.5-5.89h5.69l1.18 2.56 1.17-2.56h5.14l-3.54 6 4.05 6.58h-5.81l-1.56-3-1.55 3h-5.24z" id="path2283" style="fill:#aaa"/><path class="cls-96" d="M318.645 273.474h5.18v12.58h-5.18z" id="path2285" style="fill:#aaa"/><path class="cls-96" d="M337.625 273.284a8.91 8.91 0 0 1 3.7.73v4.64a7.17 7.17 0 0 0-3.13-.8c-1.77 0-2.73.85-2.73 2s1 2 2.73 2a6.73 6.73 0 0 0 3.2-.84v4.43a9 9 0 0 1-3.82.79c-4.21 0-7.29-2.75-7.29-6.49s3.06-6.46 7.34-6.46z" id="path2287" style="fill:#aaa"/><path class="cls-96" d="M354.605 273.284c3.95 0 7 2.83 7 6.48 0 3.65-3.07 6.49-7 6.49s-7-2.84-7-6.49c0-3.65 3.05-6.48 7-6.48zm0 8.52a2 2 0 1 0-1.95-2 1.95 1.95 0 0 0 1.95 2z" id="path2289" style="fill:#aaa"/><path class="cls-7" id="polygon2291" style="fill:#eb5924" transform="translate(-48.755 -305.776)" d="m132.62 620.42 9.68-9.69-.08-.08H123l-.07.08z"/><path class="cls-16" id="polygon2293" style="fill:#1a9190" transform="translate(-48.755 -305.776)" d="m156.45 620.42 9.68-9.69-.07-.08h-19.22l-.08.08z"/><path class="cls-11" id="polygon2295" style="fill:#510f0f" transform="translate(-48.755 -305.776)" d="m180.52 620.42 9.68-9.69-.07-.08h-19.22l-.08.08z"/><path class="cls-7" id="polygon2297" style="fill:#eb5924" transform="translate(-48.755 -305.776)" d="m204.59 620.42 9.68-9.69-.07-.08h-19.22l-.08.08z"/><path class="cls-16" id="polygon2299" style="fill:#1a9190" transform="translate(-48.755 -305.776)" d="m228.42 620.42 9.69-9.69-.08-.08h-19.22l-.08.08z"/><path class="cls-16" id="polygon2301" style="fill:#1a9190" transform="translate(-48.755 -305.776)" d="m330.86 620.42 9.68-9.69-.08-.08h-19.21l-.08.08z"/><path class="cls-7" id="polygon2303" style="fill:#eb5924" transform="translate(-48.755 -305.776)" d="m354.69 620.42 9.68-9.69-.07-.08h-19.22l-.08.08z"/><path class="cls-11" id="polygon2305" style="fill:#510f0f" transform="translate(-48.755 -305.776)" d="m378.76 620.42 9.68-9.69-.07-.08h-19.22l-.08.08z"/><path class="cls-16" id="polygon2307" style="fill:#1a9190" transform="translate(-48.755 -305.776)" d="m402.83 620.42 9.68-9.69-.07-.08h-19.22l-.08.08z"/><path class="cls-7" id="polygon2309" style="fill:#eb5924" transform="translate(-48.755 -305.776)" d="m426.66 620.42 9.69-9.69-.08-.08h-19.22l-.08.08z"/></svg>