<svg xmlns="http://www.w3.org/2000/svg" id="Layer_1" width="591.791" height="380.75" data-name="Layer 1" version="1.1"><defs id="defs4"><style id="style2">.cls-12,.cls-5,.cls-6,.cls-7,.cls-9{fill-rule:evenodd}.cls-3{fill:#134e4c}.cls-16{fill:#9436c6}.cls-14,.cls-5{fill:#23c3be}.cls-6{fill:#0e2742}.cls-7{fill:#b3f4e2}.cls-13,.cls-9{fill:#e0e5ae}.cls-11{fill:#ea4242}.cls-12{fill:none;stroke:#000;stroke-miterlimit:10;stroke-width:6.14px}</style></defs><path id="path8" d="M433.68 368.57c-24-8.61-58-13.16-98.41-13.16a573.34 573.34 0 0 0-60.25 3.24l-5.12.55c-18 1.93-38.39 4.11-58.46 4.11-21.35 0-38.79-2.48-53.31-7.59-18.32-6.45-32.13-17.27-41-32.18-12.61-21.07-11.9-48.18 2.07-78.39 12.18-26.34 33.51-52.73 60.06-74.3 19.08-15.5 39.44-27.35 59.69-34.82a108.47 108.47 0 0 0-17-1.29c-20.86 0-41.3 5.38-53.35 14l-13.63 9.78-.09-16.74c0-3.82-.33-5.85-1-7.11-8.09 5.49-16.31 10.81-24.29 16-40.36 26.09-82.09 53.09-107.91 103.35L7.97 280.71l-2.66-29.89c-2.43-27.15 3.72-53.9 18.23-79.51a206.53 206.53 0 0 1 26.11-35.74c-4.75 2.43-9 5-11.23 6.29l-18.88 11.22 6.11-21.09C32.28 109.08 63.39 83.6 111 62.06c51.51-23.28 114-37.77 175.84-40.78 9.43-.46 18-.68 26.3-.68 50.37 0 84.57 8.84 101.65 26.29l4.83 4.93a59.21 59.21 0 0 0 6-14.55l3.26-12.24 10.2 7.54c8 5.88 9.77 17.75 9.85 29.82 22.78-7.43 39.18-16.38 45.8-33.19l7-17.67 8.8 16.82c7.06 13.49 6.63 28.44-1.23 43.24a81.85 81.85 0 0 1-17.08 21.43c5.93 1.51 12.76 3.14 19.45 4.73 9.8 2.34 19.92 4.75 28 6.94l32.75 8.92-33 7.9c-5.15 1.23-11.89 2.5-18.42 3.73l-6.22 1.19a262.22 262.22 0 0 1 27.39 19.82l17 14.31-22.17 1c-1.94.09-4 .13-6 .13-7.15 0-14.43-.54-21.2-1.15v.6a95.23 95.23 0 0 1 9.74 16.72l8.61 19.05-17.52-6.54c-.19 2.36-.44 4.67-.77 6.93h6.61a41.69 41.69 0 0 1 41.65 41.65v73a41.69 41.69 0 0 1-41.65 41.65h-72.88a23.69 23.69 0 0 1 1.6 5.53l2.22 14.42zm-211.8-69.2c-2-11.48 1.35-22.85 5-33.31-10.32 2-16.19 8.15-18.34 13.88-2.36 6.3-.87 12.81 4.08 18zm187.2-237.74c-40.35 2.26-61.86 20-65.28 36.51-1.72 8.34 1.14 16.27 8.11 22.81.76-1.37 1.65-2.82 2.63-4.43 1.54-2.54 3.46-5.68 5.86-10l2.65-4.76 5.44.32c.76 0 1.53.1 2.34.18l1.5-1.18c13.29-10.45 21.55-19.71 25.26-28.35l1.28-3 2.91-1.36a41.34 41.34 0 0 0 10.15-6.88z" style="fill-rule:evenodd"/><path id="path10" d="m502.34 23.06 3.94 7.52c6.29 12 5.87 25.42-1.22 38.76-4.86 9.14-12.89 18.17-23 25.94 7.26 2.08 18 4.64 28.47 7.14 9.76 2.33 19.85 4.73 27.83 6.9l14.63 4-14.75 3.53c-5 1.2-11.71 2.46-18.19 3.69-5.5 1-12.75 2.4-18 3.64 12.81 7.81 25.77 16.3 37 25.75l7.58 6.4-9.91.44c-1.86.09-3.81.13-5.78.13-8.82 0-17.69-.83-26.28-1.65.19 2.7.31 5.17.35 7.53a91.69 91.69 0 0 1 10.13 17.06l3.84 8.52-12.81-4.82a98.39 98.39 0 0 1-2 18.54h12.34a37 37 0 0 1 36.85 36.85v73a37 37 0 0 1-36.85 36.85h-81.38c2.7 3.48 4.71 7.16 5.31 11.06l1 6.45-6.14-2.21c-24.53-8.79-59.11-13.44-100-13.44a577.32 577.32 0 0 0-60.75 3.27l-5.13.54c-17.87 1.92-38.11 4.09-57.95 4.09-20.8 0-37.72-2.39-51.72-7.32-17.23-6.06-30.19-16.19-38.52-30.11-11.75-19.65-10.95-45.21 2.32-73.92 11.87-25.69 32.73-51.46 58.72-72.58 23.57-19.14 49.45-32.71 74-38.92-9.25-3.69-21.2-5.72-34.26-5.72-21.81 0-43.33 5.72-56.15 14.93l-6.09 4.37-.06-7.49c0-6.78-.88-10.58-5.35-13.17-9 6.2-18.32 12.21-27.32 18-40.95 26.46-83.22 53.81-109.63 105.22l-6.13 11.93-1.18-13.39c-2.33-26.17 3.6-52 17.61-76.72C39.29 153.21 53.56 138.16 63 128.2c1.23-1.3 2.36-2.49 3.37-3.58-8.24.44-21.23 7.63-30.4 13.08l-8.44 5 2.73-9.33c6.14-21.24 37.07-46.24 82.72-66.88 51-23 112.79-37.38 174.09-40.36 9.34-.46 17.86-.68 26.07-.68 49 0 82.08 8.36 98.22 24.85l6 6.11-8.53.48c-42.9 2.4-65.92 22-69.71 40.33-2.48 12 3 23.39 14.82 31.52.54-2.82 2.17-5.5 4.72-9.68 1.57-2.57 3.52-5.77 6-10.15l1.18-2.12 2.43.14c1.41.08 2.74.22 4 .39l3.06-2.41c13.94-11 22.67-20.86 26.7-30.23l.57-1.33 1.31-.63c13.2-6.39 21.82-17.56 26.33-34.14l1.49-5.47 4.56 3.37c7.23 5.34 8.28 18.36 7.8 32.53 23.8-7.18 46.74-16.59 55.17-38l3.11-7.9M228.52 305.24c-5.55-13.84-.36-28.44 4.3-41.56.38-1.05.74-2.09 1.1-3.11-17.2.22-26.7 9.26-29.87 17.71-3.17 8.45-.84 17.55 6.3 24.25l18.17 2.71M501.11 0l-7.7 19.54-3.11 7.9c-5.42 13.65-18.42 21.72-36.79 28.32-.76-10.95-3.57-21.16-11.54-27l-4.56-3.39-11.28-8.33-3.69 13.53-1.49 5.47a63 63 0 0 1-2.6 7.66l-.13-.14c-9.29-9.48-23.18-16.62-41.28-21.2-17.14-4.33-38.6-6.53-63.8-6.53-8.36 0-17 .22-26.54.69-62.47 3-125.54 17.67-177.57 41.2-48.9 22.11-81 48.7-88 73l-2.73 9.43-6.75 23.34 18.33-10.94a187.59 187.59 0 0 0-10.47 16.4C4.37 195.37-1.97 223.1.53 251.25l1.19 13.35 2.94 33.06 15.16-29.52 6.13-11.93c25.23-49.12 66.42-75.77 106.24-101.53 5.89-3.81 11.89-7.69 17.87-11.67v6.3l.13 18.55 15.07-10.82 6.09-4.37c10.48-7.53 28.73-12.54 47.22-13.08a229.5 229.5 0 0 0-42.43 27.54c-27.11 22-48.91 49-61.38 76-14.67 31.72-15.31 60.38-1.84 82.88 9.51 15.89 24.16 27.41 43.57 34.23 15 5.3 33 7.87 54.9 7.87 20.33 0 40.82-2.19 58.9-4.13h.07l5.13-.55a568.7 568.7 0 0 1 59.73-3.21c39.82 0 73.29 4.45 96.79 12.88l6.14 2.2 15.19 5.45-2.46-15.96-1-6.44h66.54a46.51 46.51 0 0 0 46.46-46.45v-73a46.54 46.54 0 0 0-30.2-43.53l-5-11-3.8-8.49a99.85 99.85 0 0 0-5.13-9.82c4 .26 8.11.43 12.18.43 2.13 0 4.22 0 6.22-.13l9.91-.45 24.52-1.1-18.76-15.83-7.58-6.39c-5.8-4.9-12-9.47-18-13.65 4.81-.92 9.47-1.85 13.28-2.76l14.76-3.53 36.51-8.74-36.22-9.86-14.64-4c-8.12-2.21-18.27-4.63-28.09-7h-.07c-3.72-.88-7.49-1.78-11.12-2.66a81.27 81.27 0 0 0 11.92-16.57c8.52-16 9-33 1.24-47.71l-3.93-7.5L501.14 0z" class="cls-3" style="fill:#134e4c"/><path id="path12" d="M59.69 114.97c63.73-61.35 232.85-97.36 324.48-68.06-51.11 15-86 58.24-20.4 112-47-21.87-55.17-67.9-35.08-88.34 8.07-8.2 20.19-15.47 27.19-16.86-66.1-20.54-280.47 89.34-331.72 162.66 5.31-29.9 22.46-56.69 50.88-82.7 5.92-5.42 14-25-15.35-18.72" style="fill:#9436c6;fill-rule:evenodd"/><path id="path14" d="M385.06 168.37c-9.1-11.66-15.75-23.5-19.27-35.56l6.57-13.6c12 .83 27.46-5.89 29.44-12.7a15.34 15.34 0 0 1-5.68 3.58c-.29-1.48-1.9-2.44-4.19-3.13a90.13 90.13 0 0 0 20.51-26 70.7 70.7 0 0 0 20.74-23.72 111.66 111.66 0 0 1-.9 21.59c-11.26 3-22 12.72-26.49 23.2 9.8-10.56 18.7-15.82 26.9-16.81-1.73 3.64-5.16 8-8.89 12.4l19-17c25.27-5.66 43.37-15.26 56.29-27.69-1.89 14.63-13.82 27.54-32.05 39.38-3-2.15-4.1-7.86 1.64-12.85-6.2 2.61-9.19 9.33-7.52 13.78 3 7.87 10.4 10.34 53.77 20.14-15.5 1.85-29.07 1.4-30.82 8.7-1.62 6.78 22.12 15.89 33.18 23.83-11.45-.71-32.48-5.37-35.9.12-2.61 4.16 9 15 13.56 22.52l-24-15.24c3.16-13.14 0-25.45-6-37.39 9.06 21.11-1.59 47.37-12.55 52.89-11-16.58-32.21-12.7-40.95-5.23a31.86 31.86 0 0 1-7.47-3.88 41.59 41.59 0 0 0 7.77-10.61 15.64 15.64 0 0 1 .9 6.72c4.32-1 8-5.22 11.28-11a34.31 34.31 0 0 1 .08 6.43c4.31-1.18 8.34-5.25 12.25-10.61a20.69 20.69 0 0 1 .62 7.74c6.61-2.72 11.61-7.65 14-16.14 4.14 6.08 6 21.71 1.12 27.57 9.24-9.81 8.55-34.65-3.58-38.33-1.44 5.78-3.16 11.56-7.4 17.33a25.49 25.49 0 0 0-4.56-9.33 65.4 65.4 0 0 1-7.77 14.71 38.56 38.56 0 0 0-4.25-11.28 135.52 135.52 0 0 1-8 15.39 20.69 20.69 0 0 0-5.56-11.92c-1.06 5.77-2.71 10.82-5.76 14.2a20.25 20.25 0 0 0-4.4-9.42c-8.09 8.56-14.31 17.45-15.62 27.2" class="cls-5" style="fill:#23c3be;fill-rule:evenodd"/><path id="path16" d="M376.38 125.3c-.66 7.93 1.32 19.16 4.11 23.46-4.86-5.11-9-13.5-9.19-17.33.27-1.67 2.64-4.76 5.08-6.13" class="cls-6" style="fill:#0e2742;fill-rule:evenodd"/><path id="path18" d="M384.45 147.37c2.34-8.31 5.41-17.4 7.84-21.51 1.1-1.87 4.83 1.54 6.65 3.73 1.82 1.27-7.8 6.2-14.49 17.78" class="cls-6" style="fill:#0e2742;fill-rule:evenodd"/><path id="path20" d="M169.44 295.44c-36.11-25.58 5.68-121 97.32-151-33.43 6.49-70.48 24.37-97.47 58-28 34.83-76.85 96.43-14.34 133.28 51 30.05 127.41-10.95 259.7 10.46-67.39-35.81-188.2-10.35-245.21-50.74z" class="cls-5" style="fill:#23c3be;fill-rule:evenodd"/><path id="path22" d="M369.11 304.64s8.64 17.4 9.18 30.92c12.78 2.41 16.83 3.38 16.83 3.38s-9.59-24.5-26.01-34.3z" class="cls-7" style="fill:#b3f4e2;fill-rule:evenodd"/><path id="path24" d="M347.49 305.49s8.26 15.79 8.77 28.78c12.27 2.32 16.17 3.24 16.17 3.24s-8.55-22.32-24.94-32.02z" class="cls-7" style="fill:#b3f4e2;fill-rule:evenodd"/><path id="path26" d="M325.88 306.37s7.86 14.18 8.36 26.63c11.76 2.22 15.49 3.11 15.49 3.11s-7.52-20.18-23.85-29.74z" class="cls-7" style="fill:#b3f4e2;fill-rule:evenodd"/><path id="path28" d="M304.27 307.21s7.47 12.57 7.94 24.48c11.25 2.12 14.82 3 14.82 3s-6.47-18.01-22.76-27.48z" class="cls-7" style="fill:#b3f4e2;fill-rule:evenodd"/><path id="path30" d="M282.65 308.07s7.08 10.95 7.54 22.32c10.74 2 14.15 2.85 14.15 2.85a51.43 51.43 0 0 0-21.69-25.17z" class="cls-7" style="fill:#b3f4e2;fill-rule:evenodd"/><path id="path32" d="M260.05 307.79s7.08 11 7.53 22.32c10.75 2 14.15 2.85 14.15 2.85a51.49 51.49 0 0 0-21.68-25.17z" class="cls-7" style="fill:#b3f4e2;fill-rule:evenodd"/><path id="path34" d="M237.45 307.51s7.07 11 7.53 22.33c10.74 2 14.15 2.84 14.15 2.84a51.49 51.49 0 0 0-21.68-25.17z" class="cls-7" style="fill:#b3f4e2;fill-rule:evenodd"/><path id="path36" d="M314.49 44.79s-153.29 26-231.3 90.33c9.12-15.51 4.56-20.53 4.56-20.53s59.54-55.65 226.74-69.8z" style="fill:#be7fef;fill-rule:evenodd"/><path id="path38" d="M157.41 226.37s-32.44 58 14.74 81.72 114 18.7 132.19 25.17c-66.59 2.21-123.35 13.87-159.82-21.87-26.71-33.72 12.89-85.02 12.89-85.02z" class="cls-7" style="fill:#b3f4e2;fill-rule:evenodd"/><path id="path40" d="m417.61 116 13.83-11.52a22 22 0 0 1 10.09-8.84c6.74-2.74 13.5 5.34 13.5 5.34s-.66-16.67 13.63-21.57c14.29-4.9 23.81-13.23 30.41-26.53-12.92 12.43-31 22-56.29 27.69l-19 17c3.73-4.44 7.16-8.76 8.89-12.4-8.2 1-17.1 6.25-26.9 16.81 4.51-10.48 15.23-20.22 26.49-23.2a111.66 111.66 0 0 0 .9-21.59 70.7 70.7 0 0 1-20.74 23.72 90.13 90.13 0 0 1-20.51 26c2.29.69 3.9 1.65 4.19 3.13a15.34 15.34 0 0 0 5.68-3.58c-2 6.81-17.4 13.53-29.44 12.7l8.13 2.45h7.17s5.81-3.35 10.42-4c4.61-.65 9.64 4.26 9.64 4.26z" class="cls-7" style="fill:#b3f4e2;fill-rule:evenodd"/><path id="path42" d="M414.67 131.02c-6.13-5.63-20.77-12.76-16.59-13.3 5-.9 9.31-.6 14.87-2.69-5-4-6.19-6.28-3.66-7.25a44.86 44.86 0 0 0 12.85-6.8 46.45 46.45 0 0 1-8.37 8.14 19 19 0 0 0 5.38 2.62c6.5-5.13 12.39-11.23 17.48-10.24 6.19 1.22 13.23 6.23 15.91 11.36-2.41-1-4.83-1.65-7.24-1.2-10.86 8.07-4.61 10.09-26.3 7.85l-11.28 2.47 7 9" class="cls-6" style="fill:#0e2742;fill-rule:evenodd"/><path id="path44" d="M422.06 114.91c7.77-6.46 10.56-7.69 17-5.82-2.41 1.39-4.06 3.68-5.87 4.74-.88.36-7.44.72-11.17 1.08" class="cls-9" style="fill:#e0e5ae;fill-rule:evenodd"/><path id="path46" d="M372.93 168.29c-52.69 7-62.05-45.07-90-30.62 0 0 8.28-1 17.9 10-9.55-4.42-23.86-1-32.21 13.5 32.69-21 56.62 22.38 104.35 7.1z" style="fill:#ea4242;fill-rule:evenodd"/><path id="path48" d="M310.62 171.46s32.73 14.15 60.42 3.71c0 0-31.23 24.63-60.42-3.71z" class="cls-11" style="fill:#ea4242"/><path id="path50" d="m483.31 167.37 13.74 10.46s-1.17 33.93-12.27 45.67l-47.77 3.65s18.88-22.66 22.61-54.46c0 0 13.54-.24 22.09 10.7z" class="cls-9" style="fill:#e0e5ae;fill-rule:evenodd"/><path id="path52" d="M443.97 185.37s29.27-8.67 56.76 25.15" class="cls-12" style="fill:none;fill-rule:evenodd;stroke:#000;stroke-width:6.13999987px;stroke-miterlimit:10"/><path id="path54" d="M437.34 202.3s29.26-8.67 56.75 25.15" class="cls-12" style="fill:none;fill-rule:evenodd;stroke:#000;stroke-width:6.13999987px;stroke-miterlimit:10"/><path id="path56" d="M412.28 209.67s29.26-8.67 56.75 25.15" class="cls-12" style="fill:none;fill-rule:evenodd;stroke:#000;stroke-width:6.13999987px;stroke-miterlimit:10"/><path id="path58" d="m307.61 296.24-3.63-7.4-.88 7.59-2.92.13 1.57-12.43 2.64-.11 3.65 7.65.87-7.85 2.93-.12-1.58 12.42z" class="cls-13" style="fill:#e0e5ae"/><path id="path60" d="m315.67 295.89 1.58-12.42 6.64-.29-.36 2.79-3.71.16-.25 1.93 3.61-.16-.36 2.79-3.6.15-.27 2.14 3.72-.16-.36 2.78z" class="cls-13" style="fill:#e0e5ae"/><path id="path62" d="m336.08 295.01-.77-8-2.81 8.11-2.77.12-1.5-12.29 3.1-.13.57 8 2.78-8.16 2.35-.1.69 8 2.66-8.18 3.08-.14-4.74 12.56z" class="cls-13" style="fill:#e0e5ae"/><path id="path64" d="m360.42 281.61 3-.13-1 7.67a8 8 0 0 1-.76 2.82 4.7 4.7 0 0 1-4 2.34c-2.33.1-3.87-1.32-3.53-4v-.09l3.25-.14c-.08 1 .15 1.43.74 1.41.59-.02 1-.41 1.11-1.55z" class="cls-13" style="fill:#e0e5ae"/><path id="path66" d="m367.31 293.66 1.57-12.42 6.64-.28-.36 2.78-3.71.16-.25 1.93 3.61-.15-.36 2.79-3.6.15-.27 2.13 3.71-.16-.35 2.79z" class="cls-13" style="fill:#e0e5ae"/><path id="path68" d="m384.79 292.91-2.25-3.89-.51 4-2.93.13 1.58-12.42 3.91-.17a6.5 6.5 0 0 1 2.77.33 3.4 3.4 0 0 1 1.71 3.73 4.61 4.61 0 0 1-3.47 4l2.71 4.09zm-.88-6.1a2.06 2.06 0 0 0 2.18-1.87c.14-1.07-.56-1.64-1.71-1.59h-1.16l-.44 3.45z" class="cls-13" style="fill:#e0e5ae"/><path id="path70" d="M398.66 283.57c0-.89-.33-1.19-.93-1.16a1.23 1.23 0 0 0-1.17 1c-.1.74.5 1.05 1.74 1.58 2.48 1.06 3 2 2.81 3.65-.3 2.4-2.06 3.88-4.65 4-2.59.12-4.13-1.22-3.8-3.89v-.27l3-.13c-.12 1 .28 1.67 1 1.64a1.42 1.42 0 0 0 1.3-1.24c.13-1-1.14-1.37-2.17-1.77-1.85-.74-2.6-1.78-2.4-3.39a4.85 4.85 0 0 1 4.64-3.84 4 4 0 0 1 2.05.43c1.19.63 1.67 1.6 1.48 3.26z" class="cls-13" style="fill:#e0e5ae"/><path id="path72" d="m405.34 292.03 1.54-12.43 6.64-.28-.35 2.79-3.72.16-.24 1.93 3.6-.16-.35 2.79-3.61.15-.27 2.14 3.72-.16-.35 2.78z" class="cls-13" style="fill:#e0e5ae"/><path id="path74" d="m419.74 291.37.57-4.52-2.56-7.75 3.31-.15 1.14 4.92 2.43-5.07 3.28-.14-4.54 8.06-.57 4.52z" class="cls-13" style="fill:#e0e5ae"/><path id="path76" d="M263.47 229.87c-.15 1.63 7 4.06 8.18 4 1.18-.06 4-3.33 8.13-8.67a83.35 83.35 0 0 0 5.83-9c-.13.54-3 10.59-3.15 12.64-.15 2.05 5.42 2.53 5.42 2.53a8.11 8.11 0 0 0 3.32 1.13c1.32-.08 3.46-1.87 5.35-4.32 1.89-2.45 4.22-6.66 7.61-11.12 3.39-4.46 6.12-8.78 6.36-11.32.24-2.54-5.3-4.3-6.27-4.24-.97.06-1.31.41-1.34.71 0 .46-.35 3.8-3.8 9.82a63.37 63.37 0 0 1-6.46 9.51s3.46-10.7 3.9-15.52c.16-1.71-5.66-3.68-7.33-3.58-1.67.1-4.24 5.45-7.86 10.95-3.62 5.5-5.45 8.09-5.48 8 .75-2.38 5.33-10.16 5.71-14.23.13-1.4-5.49-4.13-7.56-4-.84 0-1.11 1-1.18 1.76-.07.76-1.81 4.9-4.93 11a45.21 45.21 0 0 0-4.45 13.95z" class="cls-14" style="fill:#23c3be"/><path id="path78" d="M307.27 218.05a7.5 7.5 0 0 1-3.16-.42c-.27 0-.51.3-.56.79a6.88 6.88 0 0 0 1.1 3.79c-.06.57-2.43 3.42-2.55 4.79-.09.87 0 1.24 1.16 2.58 1.3 1.51 4.66 1.69 5.41 1.65 1-.06 3.37-4.62 3.4-5 .34-.78 2.62-1.33 4.21-1.42 1.94-.11 3.64-.06 3.64-.06s-.5 2.15-.6 3.17c-.14 1.52 3.75 2.16 6 2 2.25-.16 3.18-4.45 3.3-5.21 1.18-.94 2.24-1.56 2.42-3.42.16-1.71-.9-2.56-1.17-3.9.18-1.48 1-5.91 1.38-9.67a24.14 24.14 0 0 0 .13-3.79c-.18-3.16-7.59-4.58-10.32-4.42-.75 0-1.24.11-1.28.53-.04.42.05.45 0 .79 0 .53-2.56 3.47-5.08 7.09-3.04 4.45-7 9.69-7.43 10.13zm14.88-7.77c.4 0 .41.36.29 1.65a14.28 14.28 0 0 1-1 5c-.2.36-1.48.43-1.92.45-1.06.07-2.3.14-2.27-.17a61.6 61.6 0 0 1 4.9-6.93z" class="cls-14" style="fill:#23c3be"/><path id="path80" d="M337.05 229.17c1.67-.09 3.15-3.24 4.89-6.89 1.74-3.65 4.32-8.67 4.32-8.67l-1.7 13.47c-.16 1.71 2.74 2.14 3.75 2.08a7 7 0 0 0 3.18-1.2c1.21-.71 1.35-1.74 4.77-6.88 3.42-5.14 5.46-8.28 5.46-8.28s-3.58 10.13-3.84 12.57c-.24 2.66 4.36 3.6 6.25 3.49 1.33-.08 3.87-2 4-2.91.13-.91.93-3.38 1.93-8.53 1-5.31 3.72-10.26 4.07-14 .35-3.74-4.56-5.63-7.07-5.48-1.28.07-1.89 1.47-2.26 1.71-1.13.79-2 1.4-5.29 6.35-3.29 4.95-6.47 10.15-6.47 10.15s1.22-7.84 1.46-10.46c.28-3-1.29-3.1-2.4-4.36-1.11-1.26-3.81-1.89-5.18-1.82-2.95.18-6.63 7.22-9.94 13.61-2.51 4.79-5.07 10.6-6.08 12-.85 1.14-1.53 1.41-1.6 2.17-.11 1.58 6.07 1.98 7.75 1.88z" class="cls-14" style="fill:#23c3be"/><path id="path82" d="M368.7 224.44c-.26 2.81 5.7 3.67 6.72 3.61 1.02-.06 3.06-.36 3.17-1.54.11-1.18 2.92-7.34 2.92-7.34a14.17 14.17 0 0 0 5.6.54c7.8-.45 14.69-7.57 15.23-13.34.54-5.77-4.62-9.74-12.77-9.27-4.23.25-9.67 2.15-10.46 2.19-.79.04-1.6.17-1.65.74-.05.57.62 1.28.54 2.23-.08.95-.36 2.93-3.4 8.7-3.51 6.58-5.64 10.67-5.9 13.48zm19.48-20.95a2.84 2.84 0 0 1 2.37-1.42c1.15-.07 2 .45 1.91 1.66-.36 3.8-5.26 8.42-8.12 8.59.18-1.48 2.79-5.95 3.84-8.83z" class="cls-14" style="fill:#23c3be"/><path id="path84" d="M250.16 244.43h.09c1.27-.25 2.58-.51 3.84-.88a16 16 0 0 0 6.52-3.34 4.34 4.34 0 0 0 1.59-3.48 4.86 4.86 0 0 0-2.13-3.39 22 22 0 0 0-5.61-2.94 91.3 91.3 0 0 0-13.81-3.65l-1.85-.38c-4.12-.86-8.37-1.74-12.42-3-1.64-.52-2.62-1.17-3-2-.38-.83-.12-1.89.75-3.21a20 20 0 0 1 2.8-3.45c8.93-8.57 20.4-15.27 35.06-20.47l.16-.07a1 1 0 0 1 .27-.08.8.8 0 0 1-.08.29v.12a55.93 55.93 0 0 1-2.68 6.2 162.3 162.3 0 0 1-9.09 15.67c-.42.66-.65 1.2-.39 1.67s.9.67 1.79.82a20.57 20.57 0 0 0 6.64 0 6 6 0 0 0 4-2.26 42 42 0 0 0 5-7.68c.57-1.2 1.2-2.41 1.81-3.57a48.16 48.16 0 0 0 4.16-9.7c.75-2.87-.29-4.8-3.28-6.07a20.55 20.55 0 0 0-14.15-.72 99.54 99.54 0 0 0-40 21.76 21.11 21.11 0 0 0-5.53 6.7c-2 4.42-.54 7.65 4.45 9.87.43.19.91.38 1.51.59a41.22 41.22 0 0 0 4.37 1.12l1.56.35c2.5.58 5.06 1.11 7.54 1.62 3.59.74 7.3 1.5 10.88 2.45a16.6 16.6 0 0 1 5.66 2.44c.73.52 1.1 1.15 1 1.67-.1.52-.54.79-1.23 1-3.82 1-14.31 1-18.52.67-.06 0-1.67-.11-3.37-.11-3.27 0-3.93.45-4.14.86-.1.19-.18.57.34 1a14.59 14.59 0 0 0 5.4 2.49 86.7 86.7 0 0 0 9.58 1.32 82.56 82.56 0 0 0 9 .45 36.72 36.72 0 0 0 5.51-.68z" class="cls-14" style="fill:#23c3be"/><path id="path86" d="M231.71 250.31s43.2-33.17 69.92-17.74l-17.62 15.95-36.1 9.6"/><path id="path88" d="M367.63 257.37c-2.64.15-3.05.78-3.05.78s-1.17.29-1.26 1.21c-.09.92 2 .82 1.87 2.08-.13 1.26-2.38 4.4-5 4.55-1.37.08-2.11-.93-1.95-2.6.38-4.14 7.17-15.3 10.07-15.46.62 0 .72.33.7.48a9.39 9.39 0 0 0-2.29 4.9c-.11 1.1 4.31 2.12 6.21 2 1.9-.12 4-6.65 4.2-8.86.2-2.21-4.14-3.08-5.42-3 0 0-1.31-1-6.29-.69-8.56.49-15.6 10.69-17.45 19.15a5.2 5.2 0 0 1-.44-1.2c.18-1.48 1-5.91 1.38-9.67a24.14 24.14 0 0 0 .13-3.79c-.18-3.16-7.59-4.58-10.32-4.42-.75 0-1.24.11-1.28.53-.04.42.05.45 0 .79 0 .53-2.55 3.47-5.08 7.09-3 4.37-7 9.65-7.43 10.09a7.5 7.5 0 0 1-3.16-.42c-.27 0-.51.3-.56.79a6.88 6.88 0 0 0 1.1 3.79c0 .45-1.56 2.36-2.24 3.81-.57.07-1 .19-1.69.23-2.34.13-5.1-2.65-5.52-4.29 0 0 11.23-2.84 11.95-10.66.61-6.49-4.7-9.7-11.45-9.31-4.32.25-7.69 1.17-10.29 1.32-.92 0-1.56.27-1.63 1 0 .38.18.9.13 1.39-.05.49-.18 1.94-3.19 8.91-3.01 6.97-5.47 12.55-5.68 14.79-.21 2.24 3.41 3 4.73 2.94 1.32-.06 3.8-1.28 4.1-2.16a34.26 34.26 0 0 0 1.35-4.19c.35-1.31 1.11-1.54 1.11-1.54 3.17 3.21 5.07 8.2 10.89 7.87a6.51 6.51 0 0 0 5-3.32l.34-.31c.18.25.4.54.7.9 1.31 1.51 4.66 1.69 5.41 1.65 1-.06 3.37-4.62 3.4-5 .34-.78 2.63-1.33 4.21-1.42 1.94-.11 3.65-.06 3.65-.06s-.51 2.15-.61 3.17c-.14 1.52 3.75 2.16 6 2 2.25-.16 3.17-4.45 3.29-5.21a11.25 11.25 0 0 0 1.53-1.31c1 3.1 4.7 4.05 4.7 4.05a7.58 7.58 0 0 0 5.33 2.11c8.59-.5 13.88-6.51 15-9.89a13.81 13.81 0 0 0 .58-3.47c.16-1.41-3.14-2.27-5.78-2.12zm-59.75 3.42c-.62 0-.9-.22-.85-.79.05-.57 3.49-7.79 3.49-7.79.22-.92 2.06-1.85 3.16-1.92 1.54-.09 1.93.42 1.82 1.6-.37 3.41-5.38 8.76-7.62 8.9zm31.3-.57c-.2.36-1.48.43-1.92.45-1.06.07-2.29.14-2.27-.17a61.6 61.6 0 0 1 4.9-6.93c.4 0 .41.36.29 1.65a14.28 14.28 0 0 1-1.05 5z" class="cls-14" style="fill:#23c3be"/><path id="path90" d="M395.79 242.56a7.29 7.29 0 0 0-5.15-1.62c-7 .4-16 13.49-16.63 20.4-.62 6.65 3.19 8.62 6.57 8.95a8 8 0 0 0 5.07 1.14c3.31-.19 7.48-2.17 12.14-7s5.78-10.76 6.22-15.54c.32-3.38-3.81-6.58-8.22-6.33zm-9.23 21.95a1.15 1.15 0 0 1-1.16-1.22c.46-5 6.26-14.44 8-14.55.79 0 1.06.32 1 1.23-.52 6-5.59 14.4-7.84 14.54z" class="cls-14" style="fill:#23c3be"/><path id="path92" d="M438.34 243.17c.3-3.23-5.22-4.16-7.21-4-.7 0-1.12.33-1.19 1.05-.07.72-.67 2.49-2.34 6.29-1.73 4-3.48 8.62-3.48 8.62s-1.7-12.33-3.56-14c-1.46-1.27-5.44-1.38-6.76-1.3-1.32.08-3.12 3.35-6.25 10.59s-4.64 12.2-5.79 14.61c-1.15 2.41-2 2.23-2 3-.09.95 1.63 1.83 3.26 1.74a29.05 29.05 0 0 0 6.43-.86c1.63-.59 2.45-2.75 3.91-7.18s2.17-7.75 2.17-7.75c1 2.74 1.23 10.84 1.58 12.67.26 1.46 7.07 2.24 8.13 2.18 1.06-.06 2.89-1.83 3.51-3.34.62-1.51 2-4.68 5.6-11.65 3.12-6.05 3.77-8.28 3.99-10.67z" class="cls-14" style="fill:#23c3be"/><path id="path94" d="M455.94 238.75s-.39-1.49-5.68-1.18c-5.29.31-10.27 5.35-10.67 9.64-.45 4.78 5.88 7.4 5.46 11.88-.17 1.9-.9 2.66-2 2.72-1.59.09-1.13-2.91-1.7-4.35-.57-1.44-4.93-2.1-6.34-2-1.19.07-1.39.76-1.47 1.6-.54 5.84 4.69 10.87 12.14 10.44 5.11-.3 10.83-3.39 11.26-8 .43-4.61-8.81-6.55-8.26-12.51a4.86 4.86 0 0 1 4.24-4.55.8.8 0 0 1 .84.4s-2 4.42-2.16 5.79c-.16 1.37 2.36 2.85 3.9 2.76a9.13 9.13 0 0 0 4.74-1.86c.85-.69 2.29-5.31 2.46-7.13.17-1.82-3.82-3.66-6.76-3.65z" class="cls-14" style="fill:#23c3be"/><path id="path96" d="M298.6 246.58a5.7 5.7 0 0 0-.05-1.66h-.67.67c-.65-5.33-7.29-9.81-11.78-10.66-1.94-.36-5.56.06-11.05 1.29-.8.18-9.6 3.26-17.51 6.26-4.76 1.81-8.56 3.34-11.3 4.56-5 2.24-5.39 2.89-5.32 3.47.1.83.8 1.65 2.08 2.43 2.61 1.58 7.29 2.73 9.28 2.28a39.89 39.89 0 0 0 4.55-1.39l12-4.48c.57-.21 1.39-.51 2.43-.87a90.46 90.46 0 0 1 9.21-2.67c5.22-1.16 6-.51 6-.5 0 0 .14.15.2.71.39 3.18-2.25 11.62-6.65 18.64-5.52 8.75-12.18 15.49-16.19 16.39-1.57.35-4.34-1.14-7.45-4 2.7-6.62 5.64-13.42 8.3-19.18l.61-1.31-12.42 4.48-.09.25c-3.87 10.53-8.27 23.83-7.93 26.67.16 1.33 1.81 3 3.27 3.87a5.42 5.42 0 0 0 2.25.83 2.54 2.54 0 0 0 .87-.05c.62-.13 1-.53.92-1a2.16 2.16 0 0 0-.15-.52 4.13 4.13 0 0 1-.23-.87c-.13-1.12.63-3.53 1.93-7 3.45 3.11 9.38 5.58 14.58 4.42 5.62-1.26 13.48-8.57 20.53-19.07a68 68 0 0 0 6.49-12.46 40.61 40.61 0 0 0 2.62-8.86z" class="cls-14" style="fill:#23c3be"/><path id="path98" d="M510.1 217.68h-4.07c-1.46 5.46-6.67 18.8-24.3 30.2 0 0-4.79 20.14-19.37 28.3l-10.87 1.38-6.91 19-19.6 3.38v6.65c0 15.25 12.73 27.65 28.37 27.65h56.75c15.65 0 28.38-12.4 28.38-27.65v-61.22c0-15.29-12.73-27.69-28.38-27.69z" style="fill:#134e4c;fill-rule:evenodd"/><path id="polygon100" d="m519.18 403.12 23.2-4.24-13.56 18.16-3.39-.33-27.13-4.66-39.6 1.63-18.57.02 11.04-6.22 36.38-8.72z" class="cls-14" style="fill:#23c3be" transform="translate(-4.12 -109.63)"/><path id="polygon102" d="m526.81 371.19-32.95 8.72-10 6.22 16.82-.02 35.86-1.62.51.09v-11.83z" class="cls-14" style="fill:#23c3be" transform="translate(-4.12 -109.63)"/><path id="path104" d="M543.81 306.56v-20.84l-5.62-8.35h5.62v-8.22l-18.29-27.38-23.51 35.7h11.1l-20.23 30.67 13.79-.06-18.91 28.73 27.79-.1v2.4c16.01-2.57 28.26-16.18 28.26-32.55z"/><path id="polygon106" d="m492.9 428.49-12.79-19.09 6.94-.03-14.86-22.2-14.69 22.31 6.94-.02-12.63 19.19 8.61-.03-11.82 17.95 17.37-.07.04 9.2 12.89-.05-.03-9.19 17.37-.07-11.96-17.87z" transform="translate(-4.12 -109.63)"/><circle id="circle108" cx="160.531" cy="311.31" r="53.16"/><circle id="circle110" cx="164.011" cy="313.19" r="39.68" class="cls-11" style="fill:#ea4242"/><path id="path112" d="M192.57 285.65a39.67 39.67 0 0 0-62.89 7.66c.29.62.6 1.23.93 1.84a33.32 33.32 0 0 0 62-9.5z" class="cls-16" style="fill:#9436c6"/><path id="path114" d="M123.7 300.76s33.09 22.67 46.42 54.26L160 356.84s-10.44-35.11-39-42"/><path id="path116" d="M149.07 272.37s17.81 39.5 51.69 60.2l3.73-9.72s-36-16.69-38.74-51.49"/><path id="path118" d="M128.78 285.64c10.44 11.84 19.52 21.4 27.32 29.11L185.27 352l6.73-4.7-32.25-36.13a199.12 199.12 0 0 1-19.79-31.69"/><path id="path120" d="M129.88 345.27s47.42-8.39 70.48-52.64l3.51 1.32s-6.21 47.75-70.48 54.06"/><path id="path122" d="M128.53 364.63s-24.86-13.51-30.81-39.53c0 0-9.92 36.27 30.81 39.53z" class="cls-3" style="fill:#134e4c"/><path id="path124" d="M166.99 252.03s20.78.81 34.51 12.92c0 0-13.83-27.73-34.51-12.92z" class="cls-3" style="fill:#134e4c"/><path id="path126" d="M350.53 102.61s1.74-32 46.2-37.33c0 0-24.85 8.53-46.2 37.33z"/><path id="polyline128" d="m418.91 156.52-5.71 14.74 11.86-3.06-1.32-6.75" class="cls-3" style="fill:#134e4c" transform="translate(-4.12 -109.63)"/><path id="path130" d="M304.59 122s-15.43-25.2 14.58-54.94c0 0-49.63 30.1-14.58 54.94z" class="cls-16" style="fill:#9436c6"/><path id="path132" d="M275.44 103.11a51 51 0 0 1 25-35.69s-42.48 9.53-25 35.69z" class="cls-16" style="fill:#9436c6"/></svg>