<svg xmlns="http://www.w3.org/2000/svg" xmlns:xlink="http://www.w3.org/1999/xlink" id="Layer_1" data-name="Layer 1" version="1.1" width="400.399" height="373.871"><defs id="defs51"><linearGradient id="linear-gradient" x1="360.06" y1="482.48" x2="360.06" y2="361.69" gradientUnits="userSpaceOnUse"><stop offset="0" stop-color="#0abcb7" stop-opacity=".5" id="stop4"/><stop offset=".42" stop-color="#0abcb7" id="stop6"/><stop offset="1" stop-color="#69efe6" id="stop8"/></linearGradient><linearGradient id="linear-gradient-2" x1="529.67" y1="507.73" x2="529.67" y2="354.16" xlink:href="#linear-gradient" gradientTransform="translate(-293.4 -169.66)"/><linearGradient id="linear-gradient-3" x1="558.2" y1="479.45" x2="630.29" y2="479.45" gradientTransform="rotate(-.08 -120657.81 215462)" gradientUnits="userSpaceOnUse"><stop offset="0" stop-color="#abd243" id="stop15"/><stop offset="1" stop-color="#fcf100" id="stop17"/></linearGradient><linearGradient id="linear-gradient-4" x1="479" y1="327.63" x2="652.41" y2="327.63" gradientUnits="userSpaceOnUse" gradientTransform="translate(-293.4 -169.66)"><stop offset="0" stop-color="#016f3f" stop-opacity="0" id="stop20"/><stop offset="0" stop-color="#016f3f" stop-opacity=".01" id="stop22"/><stop offset=".11" stop-color="#016f3f" stop-opacity=".32" id="stop24"/><stop offset=".22" stop-color="#016f3f" stop-opacity=".56" id="stop26"/><stop offset=".34" stop-color="#016f3f" stop-opacity=".76" id="stop28"/><stop offset=".47" stop-color="#016f3f" stop-opacity=".89" id="stop30"/><stop offset=".62" stop-color="#016f3f" stop-opacity=".98" id="stop32"/><stop offset=".85" stop-color="#016f3f" id="stop34"/></linearGradient><linearGradient id="linear-gradient-5" x1="624.46" y1="321.72" x2="670.45" y2="321.72" gradientUnits="userSpaceOnUse"><stop offset=".09" stop-color="#226271" id="stop37"/><stop offset="1" stop-color="#226271" stop-opacity="0" id="stop39"/></linearGradient><linearGradient id="linear-gradient-6" x1="7644.01" y1="919.85" x2="7788.75" y2="919.85" gradientTransform="matrix(-1 0 0 1 7969.04 0)" gradientUnits="userSpaceOnUse"><stop offset="0" stop-color="#fcf100" id="stop42"/><stop offset=".34" stop-color="#dce51a" id="stop44"/><stop offset=".77" stop-color="#b9d738" id="stop46"/><stop offset="1" stop-color="#abd243" id="stop48"/></linearGradient><linearGradient xlink:href="#linear-gradient" id="linearGradient1261" gradientUnits="userSpaceOnUse" x1="360.06" y1="482.48" x2="360.06" y2="361.69" gradientTransform="translate(-293.4 -169.66)"/><clipPath id="clip-path"><path d="M682.43 414.33c-3.78-6.07-5.66-9.06-9.42-14.94a87.72 87.72 0 0 0-7.79-10.29c-.64-.74-1.15-1.32-1.5-1.77-6.12-7.72-9.17-11.45-15.25-18.69l-.06-.57.53.14c-.26-3.14-.51-6.28-.77-9.42-38.72 51.91-121.69 96.84-183 71.4-54.16-22.48-110.68 5.6-143.87 28.26q.6 8.74 1.21 17.5c.62 8.55.93 12.82 1.54 21.37a160.67 160.67 0 0 0 22 6.3 97 97 0 0 0 16.74 2.05c3.4.16 6.79.2 10.12.15 3 0 6-.16 8.92-.29a33.59 33.59 0 0 0 19.82-7.53 32.36 32.36 0 0 0 22.84 3.27 38.73 38.73 0 0 0 11.4-4.42 35.24 35.24 0 0 0 14.72-1.19 39.85 39.85 0 0 0 4.76-1.64c-.54 12.3 3.39 26.5 13.84 33.42 8.12 5.37 18.74 6.15 30.08 2.35 14.36-4.83 26.44-14.85 32.72-28.63 5.09-11.18 4.92-22.39 4.16-31.69 0-.69-.11-1.35-.18-2a67.13 67.13 0 0 0 12.69-2.17c11.22-3 22.3-8.46 30.16-17.28 6.65 4.17 15.09 5.73 24.08 4.8a54.32 54.32 0 0 0 13.4-3.15 42 42 0 0 0 15 3.12c8.27.22 16.42-1.79 22.34-5.79l.26-.18a76 76 0 0 0 21.65-22.36c2.76-4.18 4.13-6.19 6.86-10.13z" id="path12" style="fill:none"/></clipPath><style id="style2">.cls-14{fill:none}.cls-5{fill:#4edd61}.cls-18{fill:#0e3e33}.cls-14{stroke-miterlimit:10}.cls-11{fill:#00988e}.cls-13{fill:#016f3f}.cls-14{stroke:#0e3e33;stroke-width:7.56px}.cls-16{fill:#2b6876}.cls-21{fill:#078e50}.cls-22{fill:#226271}</style></defs><path class="cls-5" d="m111.41 124.94-3.67 4.9-23.56-17.93 3.28-4.37c2.95.47 11 2.81 17.17 4.18l-12.83-9.83 3.63-4.48c2.67 2 5.14 3.82 7.56 5.63 5.15 3.87 10 7.61 15.69 12.1-.52.75-.89 1.32-1.24 1.78-.7.93-1.23 1.51-2.1 2.67-2.29-.54-10.13-2-15.85-3.39 3.96 2.85 9.87 7.08 11.92 8.74z" id="path223" style="fill:#4edd61"/><path class="cls-5" d="M116.34 88.65c1.22-1.3 2.62-3.08 4.16-4.7a23.06 23.06 0 0 1 4.46 4.13l-4.18 4.61c1.3 1 2.64 2.36 3.92 3.27 2-2.05 3.84-4.55 5.34-6 .31.26.58.52.84.74 1.14.95 2 1.57 3 2.36.31.26.66.55 1 .86-1 1.34-1.9 2.5-2.85 3.65-1.22 1.46-2.43 2.86-3.78 4.47-.66.8-1.37 1.64-2.11 2.59-4.06-3.39-8.11-6.85-12.44-10.5-3.07-2.6-6.25-5.47-9.35-8.09 3.15-4.25 4.84-6.5 8.07-11 1.11.93 1.72 1.48 2.55 2.17.57.48 1.23 1 2.24 1.79l-4.61 6.43z" id="path225" style="fill:#4edd61"/><path class="cls-5" d="M138.9 53.83c.57.27 3.83 3.63 7.47 7 1 .93 4.12 4.11 5.09 5-1.23-1.87-3.45-6.22-4-7.41-2-4.23-3.26-6.83-4.44-9.92l5.74-2.19c3.29 7.61 8.29 19.22 11.41 26.49-.57.48-1 .83-1.4 1.11-1 .75-1.43 1-2.95 2.16a71 71 0 0 1-6.59-6c-.95-.92-3.48-3.48-5.8-5.93 1.81 2.84 3.55 5.77 4.23 7.08 2.05 4 3.34 6.45 4 8a12.22 12.22 0 0 0-1.3.86c-.83.63-1.38 1.24-2.2 1.87-.21.15-.44.33-.69.48-7.87-6-15-11.74-23-17.88l3.84-5.32a94.49 94.49 0 0 1 9.25 7.36c1.23 1.08 4.92 4.68 5.89 5.58-1.06-1.77-3.1-5.08-3.85-6.43-2.24-4.05-4.66-7.64-4.82-8.65z" id="path227" style="fill:#4edd61"/><path class="cls-5" d="M201.5 50.34c-.4.22-.78.4-1.13.56-5.28 2.45-7.77-.05-10.73-5.28-1.32-2.31-3.09-5.51-4-7.4-.77-1.66-1.49-3.58-2.28-5.68-.94-2.48-1-4.54.36-6.28a13.75 13.75 0 0 1 4.58-3.36 8.67 8.67 0 0 1 5.29-.9 7.49 7.49 0 0 1 5 3.94c.86 1.69 2.26 4.41 3.64 7.38.31.68.61 1.4.93 2.08 1.68 3.77 3.13 7.21 2.71 9.21a7.41 7.41 0 0 1-2.44 4.66zm-8.4-20.79c-.84-1.41-1.77-1.35-2.65-.86a2.49 2.49 0 0 0-.85 2.65 114.89 114.89 0 0 0 6.24 12.29c.7 1.28 2.06 1.51 2.67.9 1-.6.59-2.49.16-3.4a111.94 111.94 0 0 0-5.57-11.56z" id="path229" style="fill:#4edd61"/><path class="cls-5" d="M230.41 39.84c-3.83-4.79-5.08-6.46-7.42-9.5l-1.31.38s2.7 9.19 2.85 9.65c-.52.17-.91.34-1.25.44-1.48.48-1.59.36-3.75.94-2.16-6.27-3.6-10.74-5.64-16.62-.74-2.07-1.53-4.4-2.28-6.74-.44-1.34-.83-2.66-1.24-3.94a30.72 30.72 0 0 1 3.81-1.58c.4-.13.81-.23 1.3-.39 2.26-.69 5.16-1.27 6.53-.42 2.68 1.68 2.68 2.5 4.6 7.83.08.25.19.49.28.73a14.45 14.45 0 0 1 .66 3.94l-.65 3.06 7 8.38zm-8.43-15.75c-.64-2.73-1.38-5.12-2.25-6.13-.87-1.01-2.41.12-2.5.15-.09.03 1.85 5.19 2.77 7.52 2.24-.14 1.98-1.54 1.98-1.54z" id="path231" style="fill:#4edd61"/><path class="cls-5" d="m239.25 5.44 6.36-1 5 22.07c1.81-.36 3.37-.48 6-1.07.37 1.56.57 2.54.8 3.71.16.81.32 1.65.62 2.8l-10.78 2.21-1.81.2-5.1-23.82z" id="path233" style="fill:#4edd61"/><path class="cls-5" d="M273.45 12.34c1.78 0 4-.27 6.27-.3a22.37 22.37 0 0 1 .15 6.08l-6.21.22c.19 1.63.14 3.54.39 5.09 2.89 0 5.94-.43 8-.36 0 .4 0 .78.06 1.11.11 1.49.29 2.56.39 3.78 0 .41.06.86.07 1.3-1.64.24-3.12.39-4.6.51-1.91.15-3.75.25-5.85.41-1 .09-2.12.17-3.32.3-.41-5.27-.75-10.59-1.16-16.23-.28-4-.45-8.29-.73-12.34 5.23-.71 8-1.07 13.51-1.91.12 1.45.15 2.27.23 3.34.06.75.12 1.6.29 2.86l-7.77 1.14z" id="path235" style="fill:#4edd61"/><path class="cls-5" d="M305.24.34c.48 0 1.07.06 1.81.07 2.17 8.9 3 18.16 4.9 29.95l-6.46-.34c-.26-2.29-.25-2.37-.61-4.51-1.33 0-3.49-.17-4.73-.2l-1.22 4.33c-2.62-.15-3.49-.2-6.49-.41l7.47-27.55.39-1.59c.71 0 1.62 0 2.94.1.48.02 1.03.09 2 .15zm-.95 19.09s-.15-3-.3-4.79c-.19-2.37-.69-6-.69-6-.75 3.35-2.05 10.62-2.11 10.62a29.41 29.41 0 0 0 3.1.16z" id="path237" style="fill:#4edd61"/><path class="cls-5" d="m328.18 32.97-6-1.14 4-17.26 2.52-11.53 4.91 1c.61 3 2.06 11.24 3.2 17.31l3.93-15.38 5.88 1c-2.53 10-4.81 18.26-7.46 28.59-1.37-.24-2.2-.39-3-.56-.8-.17-1.44-.37-2.48-.61-.25-1.39-1-4.41-1.41-7.95-.34-2.45-.78-4-1.24-6.36-.94 4.77-2.17 10.33-2.85 12.89z" id="path239" style="fill:#4edd61"/><path class="cls-5" d="M366.41 36.68a10.34 10.34 0 0 1-5 5c-2.85.93-4.71.18-9.27-1.76l-1.54-.58 2.47-5.63c.64.23 1.19.42 2 .74 1.51.57 3.27 1.48 4.69.14a4.86 4.86 0 0 0 .61-1c.91-2.12 0-4.24-.58-6.23-.58-1.99-.9-3.75-.25-5.62.18-.49.37-1 .6-1.56.92-2.16 2.51-4.56 5.75-5.25 1.73-.35 4-.07 8.18 1.34l-1.57 6.07c-1.16-.33-2-.4-2.51-.54a3 3 0 0 0-2.06.21 4.42 4.42 0 0 0-1.34 1.74 2.92 2.92 0 0 0-.22 1.77 35.2 35.2 0 0 1 .75 4.93 12.8 12.8 0 0 1-.71 6.23z" id="path241" style="fill:#4edd61"/><path d="M13.89 169.74a147.54 147.54 0 0 0 15.51 3.81c4.63.93 9.9 1.85 15.18 2.51 1.9.24 4 .39 6.13.53 2.66.18 5.41.3 8.17.41 2.15.08 4.88.14 8 .3a294 294 0 0 0 37.66-4c29.84-45 63.55-85.61 114.36-107.37 39.76-17 88.48-22 129.62-6.56 14.52 5.45 28.05 14.56 36.49 27.58 11.54 17.8 12.5 53.68 11.6 74.26l-33.96 37.13c-4.78 3.06 16.41 27.89 17.79 30 1.1 1.68 9.39 15.53 8.63 16.62-2.74 3.93-4.1 5.94-6.83 10a82 82 0 0 1-11.14 13.74c-2.54 22.14-13.72 82.27-60.92 96.43-50.45 15.13-82.06-6.5-89.54-12.49a58.61 58.61 0 0 1-14.87 7.42c-11.34 3.79-22 3-30.07-2.39-10.44-6.93-14.35-21.14-13.8-33.43a41.67 41.67 0 0 1-4.76 1.63 35.21 35.21 0 0 1-14.72 1.17 39.08 39.08 0 0 1-11.4 4.41 32.4 32.4 0 0 1-22.84-3.31 33.69 33.69 0 0 1-19.82 7.56c-2.89.12-5.88.23-8.93.27-3.32 0-6.71 0-10.11-.16a98.14 98.14 0 0 1-16.72-2.06 160.39 160.39 0 0 1-22-6.34c-.6-8.55-.91-12.82-1.51-21.37q-2.6-37.21-5-74.45c-4.89-1.29-7.34-2-12.27-3.7-.38-.13-2.33-8.29-2.76-9.34-4.6-11.33-7.29-24.76-4.29-36.87.29-1.18 1.37-7.83 2.26-8.3z" id="path243" style="fill:#0e3e33;stroke:#4edd61;stroke-width:6.98000002px;stroke-miterlimit:10"/><path d="M89.36 255.23a19.44 19.44 0 0 0 5.85-10.22 71.43 71.43 0 0 0 1.13-20c-.61-7.72-2.5-15.86-6.76-22.06-4.64-6.73-16.46-6.85-28.16-7.22-5.47-.18-11-.4-15.69-1-5.45-.7-10.89-1.66-16-2.72a82.23 82.23 0 0 0 .08 8.61c.15 1.9.47 4 .77 5.9 3.24.68 8.34 2 15.39 3q3.09 50.71 6.59 101.39a96.81 96.81 0 0 0 15.76 1.79c7 .31 13.94.08 20.43-.28 5.13-.28 10.24-2.69 12.79-8.7 1.91-4.47 2.31-11.85 1.95-19.2-.43-9.49-4.69-24.31-14.13-29.29zm-27.32-44.2c5.75-.09 14.33-.88 16.53 5.9a63.37 63.37 0 0 1 2.8 14.2c.49 6.12-.11 12.17-2.46 16.63-1.71 3.25-10.24 2.6-14 2.61-1.22-13.12-2.23-26.18-2.87-39.34zm21 86.71c-4 1.16-9.7 1.9-14.22.29-.71-11.4-2.15-22.73-3-34.12 8.76-.4 15.86-.6 19 10.51a108.72 108.72 0 0 1 1.67 11.32c.45 5.54-.11 9.84-3.43 12z" id="path245" style="fill:url(#linearGradient1261)"/><path d="M353.6 229.59c-6.23 9.45-15.27 21.62-17 12.44-3.47-18.78-4.12-38.18-6.32-57.19a63.67 63.67 0 0 0-6.51-.34 52.88 52.88 0 0 0-7.32.52c1.51 16.74 3.5 33.43 5.26 50.15-2.09 6.65-12.8 16.26-14.32 6.54-3.57-18.48-4.79-37.59-6.5-56.32-1.62.05-3.1.22-4.46.39a81 81 0 0 0-9.33 1.82c.3 3.19.58 6.17.86 8.95a41.18 41.18 0 0 1-7.09 3.67c-4 1.46-7 3.24-9.27 2.59-1.35-12.19-12.29-11.78-20.11-9.73-2.93.77-5.24 1.67-6.69 2.18-8 2.81-14.63 7.28-14.5 15.1.15 9.6.42 19 .79 28.7.09 2.38.2 5.15.34 8-6.74 10.71-12 18.23-15.76 23.73-2.7-20.92-3.61-42-6.28-63a68.61 68.61 0 0 0-7.07 2c-2.07.66-4.26 1.37-6.32 2.16q2 24.44 5 48.73c-4.88 7.55-13.23 17.3-14.28 8.52-2.08-17.37-4.17-34.85-5.68-52.33a43.1 43.1 0 0 0-6.61 1.56 72.85 72.85 0 0 0-7 2.55c1.52 12.39 2.72 25 4.1 37.22.28 2.39.69 5.06 1.05 7.8-6.84 13.69-10.1 16.22-13.2 19.62-1.37 1.52-5 2-5-.62-.6-20.63-.75-41.41-1.22-62.11-3.94.6-6.87 1.4-11.77 2.53-.17 2.58-.33 5.27-.47 8.22-3.56-4-8.12-4.81-12.53-3.83a20.68 20.68 0 0 0-8.87 4.51c-7.11 6.16-7.9 13.5-7.89 27.68 0 7.91.25 15.53.78 22.22.7 8.68 2 15.71 4.46 19.86 2.36 4 7.64 5.07 12.3 4.1a16.51 16.51 0 0 0 5-1.94c3-1.75 6.6-6.32 8.53-11.85 2.51 9.49 5.8 10.09 12.63 8.22 4.8-1.31 10.62-4.48 19.3-20.64v.18c.57 5.4 4.34 8.81 7.31 8.79 8.92-.07 16.21-9.48 21.13-16.53.6 4.38 1.09 7.4 1.48 10.71-2.54 2.47-8.13 10.63-11 14.74-2.14 2.84-6.67 10.13-8.09 15.78-2.08 8.27.94 18 4.74 20.36 3.27 2 7.46 2.84 13.79.8 14.07-4.54 17.25-16.77 16.05-30.08-.63-7-1.58-13.47-2.47-19.92 4.18-5.39 9.16-14 15.11-24a44.8 44.8 0 0 0 .88 5.53c1.67 6.59 12.82 5.94 19.9 4 9.65-2.61 15.93-6.6 18.52-13.33 1.33-3.45 1.42-12.06 1.22-23.73-.06-3.36 0-9.13-.21-15.08-.06-2.12-.33-4.21-.36-6.1a45 45 0 0 0 13.25-4.3c1.13-.56 2.27-1.17 3.38-1.81.74 7 1.44 12.46 1.95 16.89 1.18 10.37.52 26 7.24 32.92 1.87 1.94 5.69 2.51 9.28 2.14 6.68-.68 14-4.65 17.1-10.8 1.39 8 6.46 10.67 11.34 10.81a13.09 13.09 0 0 0 8-2.32c7.38-5.77 11.6-10.92 16.78-19.55-2.58-3.62-4.86-5.57-7.35-8.48zm-212.58 51c-3.87 7.78-7.73 10.92-10.67 11.55a4.43 4.43 0 0 1-3.67-.62c-.66-.49-1.27-4.91-1.73-10.73-.82-10.29-1.06-25.26.25-31.17.75-3.38 3.18-7 6.49-7.73 2.57-.59 5.77.41 9 4.66.48 11.33.38 22.71.35 34.04zm66.92 33.51c0 3.17.55 8.77-5.85 11.17-2.64 1-5.78-3.17-5.51-8.15.23-4.24 6.5-12.26 10-18.1.26 4.26 1.39 9.24 1.38 15.08zm52.36-59.53c-.6 5.22-12.68 7.31-13.7 4.94-4.82-11.28-2.84-31.07-3.57-46.26-.22-4.48 2.58-8.26 9.84-9.52a10.49 10.49 0 0 0-.87 9.47c1.35 2.81 3.18 3.83 7.34 4.44 1.01 12.18 2.32 25.19.98 36.93z" id="path247" style="fill:url(#linear-gradient-2)"/><g id="g255" style="opacity:.5" transform="translate(-293.4 -169.66)"><g clip-path="url(#clip-path)" id="g253" style="clip-path:url(#clip-path)"><path class="cls-11" d="M382.73 425.06a19.48 19.48 0 0 0 5.84-10.23 71.62 71.62 0 0 0 1.1-20c-.62-7.72-2.52-15.86-6.79-22.05-4.65-6.73-16.47-6.83-28.17-7.19-5.47-.16-11-.38-15.69-1-5.46-.69-10.89-1.64-16-2.69a85 85 0 0 0 .09 8.61c.16 1.9.48 4 .79 5.89 3.23.68 8.34 2 15.39 2.95q3.15 50.7 6.73 101.37a95.91 95.91 0 0 0 15.76 1.77c7 .3 13.95.06 20.43-.3 5.13-.29 10.23-2.71 12.78-8.72 1.9-4.47 2.29-11.85 1.92-19.21-.45-9.43-4.73-24.26-14.18-29.2zm-27.38-44.17c5.75-.09 14.32-.89 16.54 5.88a63.94 63.94 0 0 1 2.82 14.2c.5 6.12-.09 12.17-2.43 16.63-1.71 3.25-10.25 2.61-14 2.63-1.28-13.12-2.28-26.18-2.93-39.34zm21.14 86.68c-4 1.17-9.69 1.92-14.22.31-.73-11.4-2.18-22.72-3.08-34.11 8.76-.41 15.87-.63 19 10.48a109 109 0 0 1 1.68 11.32c.49 5.54-.07 9.84-3.38 12z" id="path249" style="fill:#00988e"/><path class="cls-11" d="M647 399.05c-6.21 9.45-15.24 21.64-17 12.46-3.5-18.78-4.17-38.18-6.4-57.18a63.93 63.93 0 0 0-6.51-.33 52.72 52.72 0 0 0-7.31.53c1.53 16.74 3.54 33.43 5.32 50.14-2.08 6.66-12.77 16.28-14.31 6.56-3.6-18.48-4.84-37.58-6.57-56.3a43.61 43.61 0 0 0-4.46.39 80.58 80.58 0 0 0-9.33 1.83q.45 4.78.87 9a41 41 0 0 1-7.08 3.68c-4 1.47-7 3.24-9.27 2.6-1.37-12.19-12.31-11.76-20.13-9.7-2.93.77-5.24 1.68-6.68 2.19-8 2.82-14.62 7.3-14.49 15.12.17 9.6.46 18.95.84 28.7.1 2.38.21 5.15.35 8-6.73 10.71-12 18.25-15.73 23.75-2.72-20.92-3.66-42-6.36-62.94a69.67 69.67 0 0 0-7.08 2c-2.06.67-4.25 1.38-6.31 2.17q2.06 24.42 5.09 48.72c-4.87 7.55-13.21 17.32-14.27 8.54-2.1-17.37-4.21-34.85-5.76-52.33a44.26 44.26 0 0 0-6.6 1.58 72.57 72.57 0 0 0-7 2.55c1.53 12.4 2.75 25.05 4.15 37.22.28 2.39.69 5.06 1.06 7.8-6.82 13.7-10.08 16.24-13.17 19.64-1.38 1.52-5 2-5-.61-.64-20.64-.82-41.41-1.31-62.12-4 .61-6.87 1.42-11.77 2.56-.17 2.57-.32 5.27-.46 8.21-3.57-4-8.12-4.8-12.53-3.81a20.71 20.71 0 0 0-8.86 4.52c-7.11 6.17-7.89 13.52-7.85 27.7 0 7.91.26 15.52.8 22.22.71 8.67 2 15.7 4.49 19.85 2.37 4 7.65 5.06 12.31 4.08a16.36 16.36 0 0 0 4.95-2c3-1.75 6.6-6.33 8.52-11.86 2.52 9.49 5.81 10.08 12.64 8.2 4.79-1.31 10.61-4.49 19.27-20.66v.18c.58 5.4 4.35 8.8 7.33 8.78 8.91-.09 16.19-9.5 21.1-16.57.61 4.39 1.1 7.41 1.5 10.71-2.55 2.48-8.12 10.64-11 14.76-2.14 2.85-6.66 10.14-8.07 15.79-2.07 8.28 1 18 4.78 20.35 3.27 2 7.46 2.83 13.78.79 14.06-4.56 17.23-16.8 16-30.1-.64-7-1.59-13.48-2.49-19.93 4.17-5.39 9.14-14 15.07-24a46.48 46.48 0 0 0 .89 5.53c1.68 6.58 12.83 5.92 19.91 4 9.64-2.63 15.91-6.63 18.5-13.36 1.32-3.45 1.4-12.06 1.19-23.73-.07-3.36-.05-9.13-.23-15.08-.07-2.11-.35-4.21-.37-6.1a45.16 45.16 0 0 0 13.24-4.32c1.13-.56 2.27-1.17 3.37-1.81.76 7 1.46 12.46 2 16.89 1.19 10.37.56 26 7.29 32.91 1.87 1.93 5.69 2.49 9.28 2.12 6.68-.69 14-4.66 17.08-10.82 1.4 8 6.48 10.66 11.35 10.79a13.15 13.15 0 0 0 8-2.33c7.36-5.78 11.58-10.94 16.74-19.57-2.59-3.7-4.87-5.6-7.3-8.55zm-212.5 51.3c-3.86 7.78-7.72 10.92-10.66 11.56a4.43 4.43 0 0 1-3.67-.61c-.66-.5-1.27-4.91-1.74-10.74-.84-10.28-1.1-25.25.2-31.16.75-3.38 3.18-7 6.48-7.74 2.58-.59 5.77.4 9 4.65.44 11.32.35 22.69.34 34.04zm67 33.41c0 3.17.56 8.77-5.83 11.18-2.64 1-5.79-3.17-5.52-8.14.22-4.24 6.48-12.27 10-18.12.13 4.26 1.26 9.24 1.26 15.08zm52.28-59.61c-.59 5.23-12.67 7.33-13.69 5-4.84-11.27-2.89-31.07-3.64-46.26-.22-4.48 2.57-8.26 9.83-9.53a10.48 10.48 0 0 0-.85 9.47c1.35 2.8 3.18 3.83 7.34 4.43.92 12.15 2.23 25.15.92 36.89z" id="path251" style="fill:#00988e"/></g></g><circle cx="293.951" cy="310.37" r="36.05" id="circle257" style="fill:url(#linear-gradient-3)"/><path class="cls-13" d="M331.11 273.27s16.28 9.31 12.79 33.73c0 0 14-18.61 8.14-41.87 0 0-6.97 8.14-20.93 8.14z" id="path259" style="fill:#016f3f"/><path class="cls-13" d="m248.6 289.56-15.13 10.45s-2.37 30.23 15.06 41.88c-.01 0-10.44-32.55.07-52.33z" id="path261" style="fill:#016f3f"/><path class="cls-14" d="M272.91 274.67s-1.15 42.9 37.15 71.65" id="path263" style="fill:none;stroke:#0e3e33;stroke-width:7.55999994px;stroke-miterlimit:10"/><path class="cls-14" d="M257.92 325.53s49.1-17.6 61.13-44.31" id="path265" style="fill:none;stroke:#0e3e33;stroke-width:7.55999994px;stroke-miterlimit:10"/><path class="cls-14" d="M255.6 305.77s38.37-5.87 38.33-32.62" id="path267" style="fill:none;stroke:#0e3e33;stroke-width:7.55999994px;stroke-miterlimit:10"/><path class="cls-14" d="M266.08 339.47s36-25.63 65.1-16.37" id="path269" style="fill:none;stroke:#0e3e33;stroke-width:7.55999994px;stroke-miterlimit:10"/><path d="M268.6 133.18c41.14-1.22 70.81-4.62 106.85 1l-8.74-36.84c-32.46-52.32-131.17-19.67-131.17-19.67-61 21.06-86.42 69.84-86.42 69.84" id="path271" style="fill:#195869"/><ellipse class="cls-16" cx="292.461" cy="114.16" rx="55.94" ry="5.43" id="ellipse273" style="fill:#2b6876"/><path class="cls-16" d="M158.26 133.71h7.21c30.9 0 55.94-2.43 55.94-5.43 0-3-24.09-5.33-54.17-5.42a169.19 169.19 0 0 0-8.98 10.85z" id="path275" style="fill:#2b6876"/><path d="M271.47 95.48a9.17 9.17 0 0 1-5.46-16.53 10.69 10.69 0 1 0 10.34 15.11 9.05 9.05 0 0 1-4.88 1.42z" id="path277" style="fill:#fcf100"/><path class="cls-11" id="polygon279" style="fill:#00988e" transform="translate(-293.4 -169.66)" d="m524.23 263.71 7.92-4.75-10.3 2.77-6.34-2.77 1.19 4.75-5.54 4.75 8.71-1.98 5.55 4.36z"/><path class="cls-11" id="polygon281" style="fill:#00988e" transform="translate(-293.4 -169.66)" d="m597.07 258.66 2.77-3.57h-5.94l-5.15-7.92 1.19 7.92-4.36 5.15 6.34-.79 8.71 6.34z"/><path class="cls-18" id="polygon283" style="fill:#0e3e33" transform="translate(-293.4 -169.66)" d="m469 269.09 26.63-8.74v56.78H469z"/><path class="cls-18" id="rect285" style="fill:#0e3e33" d="M351.151 77.59h16.59v60.27h-16.59z"/><path class="cls-18" id="rect287" style="fill:#0e3e33" d="M316.211 67.55h26.2v70.31h-26.2z"/><path class="cls-13" id="polygon289" style="fill:#016f3f" transform="translate(-293.4 -169.66)" d="m490.39 266.47 5.24-3.06v53.43l-5.24 3.78z"/><path class="cls-13" id="polygon291" style="fill:#016f3f" transform="translate(-293.4 -169.66)" d="m631.45 243.32 5.24 2.62v62.45l-5.24-3.3z"/><path class="cls-13" id="polygon293" style="fill:#016f3f" transform="translate(-293.4 -169.66)" d="m655.9 256.86 5.25 13.1v38.87l-5.25-3.31z"/><path class="cls-18" d="M206.6 143.53s38.87-27.94 76.43-7.86" id="path295" style="fill:#0e3e33"/><path d="m185.6 176.47 173.41-12.78-3.25-.84-40.28-8.2c-18.16-6.91-14-15.45-24.25-14.52a30.47 30.47 0 0 0-13.69 5.13 31.43 31.43 0 0 0-12-4.81c-16.78-3.07-38.58 1.12-51.85 12.31z" id="path297" style="fill:url(#linear-gradient-4)"/><path class="cls-18" d="m235.41 146.78 34.49 5.88s-5.43 11.55-20.73 11.25c-15.3-.3-20.57-8.99-13.76-17.13z" id="path299" style="fill:#0e3e33"/><path d="m241.5 153.41 6.79 1 2.15 7.48 7.81-5.76 7.19 1.06s-2.19 6.27-13.47 5.65c0 .02-9.67-.45-10.47-9.43z" id="path301" style="fill:#4de8dd"/><path class="cls-21" d="M325.86 166.13c1.61-1.54.72-3.74-5.28-6.87l-10.74 8.08z" id="path303" style="fill:#078e50"/><path class="cls-21" d="M291.23 140.13a30.47 30.47 0 0 0-13.69 5.13l-.15-.09v.11l37.21 9.06c-17.15-6.87-13.25-15.13-23.37-14.21z" id="path305" style="fill:#078e50"/><path class="cls-22" d="M175.6 162.75s-21.84 18.34-11.36 21.4c10.48 3.06 84.29 0 84.29 0s-162.02 31-72.93-21.4z" id="path309" style="fill:#226271"/><path class="cls-22" d="m146.18 213.61 40.15-11.21c-26 .39-51.65.21-58.51-1.8-15.12-4.4 16.38-30.86 16.38-30.86-63.02 37.07-38.93 45.2 1.98 43.87z" id="path311" style="fill:#226271"/><path id="polygon313" style="fill:url(#linear-gradient-5)" transform="translate(-293.4 -169.66)" d="m668.74 322.66 1.71-6.38h-45.99l37.56 10.89z"/><path class="cls-21" d="m297.87 155.34-14 10.48s33.22-.48 14-10.48z" id="path315" style="fill:#078e50"/></svg>