<svg xmlns="http://www.w3.org/2000/svg" id="Layer_1" data-name="Layer 1" viewBox="0 0 256 256"><defs><style>.cls-1{fill:#316bac}</style></defs><path d="M128 0a128 128 0 1 0 128 128A128 128 0 0 0 128 0Z" class="cls-1"/><circle cx="128" cy="128" r="122.527" style="fill:#111"/><path d="M154.684 210.289c-2.578 1.986-4.259 1.99-6.782.016a6.814 6.814 0 0 0-8.742-.016c-2.546 1.988-4.282 1.99-6.785.014a6.832 6.832 0 0 0-8.742-.006c-2.509 1.982-4.244 1.982-6.786 0a6.836 6.836 0 0 0-8.744 0 6.3 6.3 0 0 1-2.183 1.291 4.845 4.845 0 0 1-4.523-1.225 6.621 6.621 0 0 0-7.964-.613q1.843.783 3.729 1.482a3.692 3.692 0 0 1 2.351.838q3.394 1.154 6.876 2.026l.124-.047c.21-.081.417-.165.62-.258a14.8 14.8 0 0 0 2.753-1.721 4.3 4.3 0 0 1 5.507.24 7.446 7.446 0 0 0 5.053 1.909 7.152 7.152 0 0 0 4.294-1.64c2.373-1.862 4.146-1.854 6.527 0a6.882 6.882 0 0 0 9-.014c2.359-1.84 4.157-1.854 6.527.028a11.009 11.009 0 0 0 2.837 1.5q3.481-.874 6.851-2.02a3.639 3.639 0 0 1 2.359-.84q1.882-.7 3.732-1.483a6.693 6.693 0 0 0-7.89.537Z" class="cls-1"/><path d="m106.511 214.052-.124.047c.042-.016.084-.03.124-.047Z" style="fill:#fefefe"/><path d="M70.807 221.515c-.041-1.613.693-2.36 2.02-2.436a3.02 3.02 0 0 1 2.062.723 4.413 4.413 0 0 0 2.23.928c.308.035.633.117.727-.37.116-.6-.23-.686-.715-.742.364-.056.75.026.864-.46.154-.656-.681-.395-.744-.877.367-.38 1.036-.622.128-1.328-.526-.408-1.166-.177-1.69-.65.24-.081.367-.132.5-.166.29-.074.769.013.729-.421-.056-.624-1.105-.54-1.086-1.383 0-.181-.534.034-.7.348-.09.175-.133.434-.5.26.023-.116.044-.244.071-.37.073-.336.741-.677.013-1.01-.6-.275-.7.235-.883.608a1.428 1.428 0 0 1-.894.85 1.606 1.606 0 0 1 .706-1.1c.369-.351.245-.736-.141-.829a13.537 13.537 0 0 0-2.9-.622.908.908 0 0 0-.072-.1.889.889 0 0 0-.3-.248.327.327 0 0 0-.082-.026.251.251 0 0 0-.055-.006.176.176 0 0 0-.081.02.188.188 0 0 0-.067.058c-.338.453-.376-.028-.557-.06-.457-.08-1.023-.251-1.3.329-.11.229-.076.363-.379.172-.228-.143-.494.034-.625.26-.155.269.08.47.213.662.692 1 .693 1.106-.119 2.056a3.788 3.788 0 0 1-.314-1.967c-.037-.6-.5-.878-.8-.537-.515.586-1.28.5-1.838.963a1.292 1.292 0 0 0-.459.958c-.4.132-.709-.56-.986-.089a2.719 2.719 0 0 0-.515 1.645c.071.379.847.349 1.343.349a1.553 1.553 0 0 0 .416-.084c.329-.09.553-.03.61.358.063.443-.264.43-.535.472a2.381 2.381 0 0 1-1.794-.517c-.436-.315-.893-.2-.826.265a2.031 2.031 0 0 1-.266 1.083c-.248.743-.267 1.387.763 1.378-.487.071-.677.343-.543.8.163.564.62.261.968.217a.962.962 0 0 0 .405-.124c1.139-.782 2.54-.769 3.782-1.256.941-.369 1.566.123 1.671 1.137.029.282.01.569.016.852.01.541-.174 1.235.789 1.061.7-.127 1.78.532 1.741-1.034Zm-5.35-2.741c-.171.434-.6.3-.948.466-.081-.624.279-.763.656-.816.135-.019.359.182.292.35Zm9.424-2.5h-1.953c.652-.774 1.198-.6 1.953-.003Zm.389 1.8c.064.152.239.3.081.475s-.376.125-.583.034a8.611 8.611 0 0 0-1.083-.428 10.213 10.213 0 0 0-1.127-.183 1.592 1.592 0 0 1 2.712.1Zm-4.709.737c-.245-1.266.525-1.716 1.342-2.369.021 1.18-.659 1.667-1.342 2.358Zm-.418-5.3c.061-.179.108-.365.174-.541a1.336 1.336 0 0 1 .276-.457.1.1 0 0 1 .006-.042l.017.016a.276.276 0 0 0-.023.027c-.06.4.288.9-.3 1.168l-.252.064c.034-.078.068-.157.1-.235Zm.825 1.093c.42-.1.753.509.675.765-.176.58-.876.724-1.35 1.031-.252.162-.3-.34-.339-.91-.019-.4.486-.756 1.015-.886Zm-1.476 3.582-1.147-1.286c1.008-.154 1.134-.018 1.147 1.279Zm-3.618-2.08a1.6 1.6 0 0 1 1.261.506c-.421.1-.8.171-1.162.287-.33.1-.445-.039-.5-.327-.065-.336.12-.443.4-.466Zm.519 2.128a.962.962 0 0 1-.222-.281c1.186-.61 2.017-.263 2.273.921l.023.026-.01.017.01-.018a.031.031 0 0 1 .026.017l.1-.01c0 .012-.007.021-.011.03-.038.1-.064.02-.093-.02h-.039c0-.017-.008-.031-.011-.047-.524-.579-1.477-.143-2.05-.639Zm128.2.094c.294-.424 1.083-.66.122-1.371-.528-.39-1.169-.174-1.689-.652.24-.079.366-.13.5-.163.291-.073.773.01.727-.422-.064-.617-1.091-.548-1.089-1.382 0-.19-.531.04-.693.351-.092.175-.136.432-.5.257.023-.116.045-.244.07-.37.07-.337.748-.673.019-1.009-.6-.276-.706.235-.885.607a1.472 1.472 0 0 1-.956.87 2.133 2.133 0 0 1 .762-1.122c.377-.34.251-.733-.136-.826a13.528 13.528 0 0 0-2.9-.624.962.962 0 0 0-.087-.122.792.792 0 0 0-.312-.238.355.355 0 0 0-.064-.017.19.19 0 0 0-.193.075c-.342.46-.384-.037-.564-.064-.459-.072-1.025-.248-1.3.336-.11.237-.08.357-.377.169-.228-.144-.494.035-.626.258-.157.267.082.468.214.659.69.994.69 1.11-.167 2.106a5.677 5.677 0 0 1-.269-2.021c-.016-.611-.509-.872-.8-.534-.513.59-1.278.5-1.836.967a1.328 1.328 0 0 0-.466.989c-.391.069-.7-.587-.978-.122a2.735 2.735 0 0 0-.512 1.65c.069.374.851.34 1.344.345a1.6 1.6 0 0 0 .416-.085c.332-.09.551-.019.6.366.063.45-.276.427-.541.465a2.389 2.389 0 0 1-1.794-.52c-.438-.322-.9-.184-.82.271.083.48-.154.729-.271 1.085-.25.755-.245 1.381.774 1.372-.491.068-.684.342-.548.808.164.564.621.256.969.214a.934.934 0 0 0 .405-.124c1.167-.806 2.62-.753 3.881-1.294.863-.371 1.34.189 1.544.969a4.66 4.66 0 0 1 .041 1.062c.012.544-.165 1.233.794 1.061.7-.125 1.78.53 1.736-1.036-.043-1.618.687-2.356 2.023-2.435a3.032 3.032 0 0 1 2.061.723 4.455 4.455 0 0 0 2.231.928c.312.036.63.111.725-.373.117-.6-.236-.681-.715-.743.366-.053.752.03.866-.456.151-.654-.681-.4-.741-.838Zm-2.447-2.073h-1.909c.689-.712 1.233-.61 1.907-.007Zm-4.669-2.744c.06-.18.107-.366.175-.542a1.343 1.343 0 0 1 .277-.456l.006-.042.017.016a.276.276 0 0 0-.023.027c-.058.4.285.9-.3 1.168l-.251.065.1-.236Zm.859 1.094c.391-.071.768.616.643.775a3.424 3.424 0 0 1-1.37 1.03c-.279.112-.28-.381-.309-.83a1.134 1.134 0 0 1 1.036-.975Zm.909 1.81a2.973 2.973 0 0 1-1.35 2.369c-.248-1.243.525-1.691 1.348-2.376Zm-2.39 1.77c-.428-.458-.8-.851-1.278-1.368 1.198-.175 1.294.483 1.276 1.361Zm-4.071.644c-.236.369-.615.291-1.132.42.3-.626.51-.922.974-.749.11.039.252.183.158.329Zm.023-2.256c-.066-.334.12-.445.4-.467a1.632 1.632 0 0 1 1.266.506c-.421.1-.8.17-1.164.286-.329.1-.446-.034-.5-.325Zm1.6 1.9a.72.72 0 0 1-.865-.537v-.023c1.238-.539 1.979-.213 2.244.977l.021.013-.009.016.01-.016c.009 0 .017.008.025.019l.1-.008c-.046.143-.073.051-.1.008h-.038l-.008-.032a2.2 2.2 0 0 0-1.375-.419Zm8.245.114a.41.41 0 0 1-.5.022 4.553 4.553 0 0 0-2.267-.6c.391-.875 1.127-.676 1.761-.7.551-.022.8.362.979.812.061.156.215.308.025.47Zm-22.126-17.934a7.668 7.668 0 0 1-2.732 1.6c-.771.187-1.094.055-1.077-.83.047-2.381.02-4.762.014-7.144 0-1.5-.114-1.68-1.584-1.991-.748-.158-.5-.681-.5-1.077-.017-4.656-.01-9.313-.01-13.97a1.665 1.665 0 0 0 0-.212c-.086-.633.153-.939.824-.854a5.8 5.8 0 0 0 .746 0H201.5c.334 0 .668.015 1 .027q.791-1.218 1.541-2.461c-3.674-.037-7.347-.1-11.021-.1q-13.746 0-27.494.055c-.705 0-.972-.22-.9-.914a9.963 9.963 0 0 0 .008-1.172.447.447 0 0 1 .362-.519.466.466 0 0 1 .149 0h.852q13.907.011 27.814.016c3.93 0 7.86-.033 11.789-.052q.854-1.536 1.648-3.1a3.683 3.683 0 0 0-.019-.764c-.153-.939.159-1.381 1.034-1.308q.559-1.181 1.084-2.376c-4.8-.014-9.6-.052-14.4-.038-11.057.035-19.7-4.489-25.778-13.733a27.735 27.735 0 0 1-4.5-14.789c-.043-1.647-.257-1.876-1.883-2.047-.5-.052-.574-.286-.571-.69.006-1.066.006-2.133-.012-3.2-.013-.794-.288-1.434-1.206-1.439-.972-.006-1.251.643-1.248 1.5 0 1.03-.024 2.062.01 3.092.018.55-.17.724-.724.759-1.439.089-1.652.277-1.706 1.731a30.043 30.043 0 0 1-3.074 12.517 29.491 29.491 0 0 1-11.548 12.33c-.614.365-.845.322-.839-.46.053-6.076.085-12.151.739-18.206.206-1.912.518-3.8.834-5.69a13.306 13.306 0 0 1 4.427-7.463c4.741-4.508 10.187-7.755 16.736-8.676a30.835 30.835 0 0 1 15.889 2.062c5.824 2.323 10.84 6 15.859 9.653a41.732 41.732 0 0 0 19.547 7.534 1.321 1.321 0 0 0 .274 0q.076-.656.142-1.314a49.8 49.8 0 0 1-9.943-2.415 45.577 45.577 0 0 1-11.231-6.4c-4.3-3.142-8.684-6.183-13.675-8.15q-18.923-7.46-34.076 6.17c-3.794 3.4-5.429 7.622-5.974 12.53-.645 5.8-.817 11.623-.946 17.45-.026 1.207 0 2.418.065 3.623a1.168 1.168 0 0 1-.819 1.29c-.708.317-.91.214-.9-.582.047-3.057.026-6.114.061-9.17.04-3.59.089-7.18.178-10.768.185-7.441 3.59-13.254 9.291-17.78a35.354 35.354 0 0 1 16.906-7.576 28.929 28.929 0 0 1 13.96 1.457 56.368 56.368 0 0 1 15.492 8.768 48.15 48.15 0 0 0 21.806 9.34q.053-.689.092-1.381a49.94 49.94 0 0 1-22.69-10.253 47.963 47.963 0 0 0-15.944-8.326 30.069 30.069 0 0 0-20.441 1.073 36.153 36.153 0 0 0-13.787 9.338 23.57 23.57 0 0 0-6.11 15.829q-.108 10.02-.223 20.039c-.006.479.014.9-.577 1.091-.757.246-1.11.236-1.1-.769.042-7.464-.025-14.93.038-22.394.05-5.825 2.668-10.576 6.544-14.718a51.259 51.259 0 0 1 13.53-10.211c4.1-2.174 8.675-2.591 13.265-2.517 8.994.146 16.861 3.317 23.951 8.772a57.231 57.231 0 0 0 22.669 10.576 8.482 8.482 0 0 0 .992.125q.021-.663.034-1.327c-9.109-1.9-17.09-6.1-24.509-11.639a38.645 38.645 0 0 0-28.589-7.592 29.192 29.192 0 0 0-8.917 2.5c.744-1.015 1.3-1.772 1.854-2.534a1.29 1.29 0 0 1 .805-.478 49.726 49.726 0 0 1 15.293-1.612 37 37 0 0 1 12.9 3.764c6.052 2.84 11.6 6.552 17.272 10.04a41.42 41.42 0 0 0 13.9 5.176q0-.707-.021-1.409a45.923 45.923 0 0 1-10.553-3.513c1.006-.7 1.9-1.342 2.811-1.964.342-.234.6.061.868.2a32.336 32.336 0 0 0 6.787 2.89c-.025-.5-.055-.987-.087-1.478A33.823 33.823 0 0 1 202.2 112.8a35.11 35.11 0 0 1-7.224-11.924c-.1-.258-.332-.553-.154-.793.194-.264.526-.029.8-.012.858.051 1.264.454 1.6 1.327a30.671 30.671 0 0 0 16.833 17.402 12.084 12.084 0 0 0 2.324.9q-.071-.765-.156-1.527c-8.423-3.286-14.5-8.959-17.868-17.656.767.052 1.415.1 2.062.141.351.022.44.269.549.552 2.744 7.094 8.054 11.489 14.914 14.247q-.127-.89-.271-1.773a6.623 6.623 0 0 1-2.859-1.26 22.357 22.357 0 0 1-10.15-10.887c-.1-.225-.177-.456-.267-.689 1.8-.414 1.862-.381 2.809 1.093a26.558 26.558 0 0 0 10.068 9.462q-.361-1.9-.807-3.789l-.22.223a1.31 1.31 0 0 1-2.234-.265c-.223-.336-.03-.531.158-.736.547-.593 1.1-1.178 1.657-1.765q-.2-.756-.417-1.508c-.743.767-1.5 1.516-2.21 2.316-.486.549-.835.348-1.172-.1-.3-.4-1.125-.694-.231-1.369 1.069-.806 2.077-1.693 3.107-2.55q-.212-.683-.432-1.362a33.039 33.039 0 0 0-3.569 2.871c-.432.4-.737.433-1.077-.095-.46-.712-.955-1.4-1.447-2.093-.34-.477-.227-.636.353-.691a42.228 42.228 0 0 0 5.5-.7q-.218-.647-.443-1.289a62.7 62.7 0 0 1-9.587.783A28.384 28.384 0 0 1 192 97.616c-5.623-2.148-11.386-2.1-17.22-1.317a30.739 30.739 0 0 0-7.793 2.1c.183-.955.331-1.651 1.245-2.047 7.617-3.3 15.342-3.882 23.2-.97A34.881 34.881 0 0 0 210.6 97a3.63 3.63 0 0 0 .518-.156q-.24-.639-.488-1.272a34.672 34.672 0 0 1-19.785-1.865c-4.527-1.756-9.219-1.807-13.965-1.258a33.317 33.317 0 0 0-8.585 2.275c.1-1.009.082-1.766 1.132-2.234 5.373-2.4 10.969-2.718 16.7-1.945a59.5 59.5 0 0 1 8.431 2.212 32.7 32.7 0 0 0 15.375 1.1q-.27-.644-.548-1.284c-6.071 1.113-11.868-.247-17.593-2.074a32.989 32.989 0 0 0-22.622.517c-.188-1.1-.13-1.215.84-1.665a26.881 26.881 0 0 1 20.733-.859 40.742 40.742 0 0 0 16.729 2.419c.369-.03.738-.08 1.106-.122q-.307-.666-.626-1.325a41.216 41.216 0 0 1-4.957.152c-.728-.006-1-.273-1.024-.987a42.34 42.34 0 0 0-.215-3.281c-.095-.866.258-1.087 1.072-1.079a6.706 6.706 0 0 0 2.3-.16q-.372-.652-.754-1.3a34.965 34.965 0 0 1-17.292-2.39 22.739 22.739 0 0 1-5.195-3.081c-.239-.192-1.036-.26-.542-.847.367-.435.8-1.061 1.575-.452a20.836 20.836 0 0 0 4.785 2.736 33.27 33.27 0 0 0 15.684 2.417c-.289-.463-.584-.924-.88-1.382a30.167 30.167 0 0 1-7.992-.449 25.715 25.715 0 0 1-10.112-3.986c-.363-.246-1.28-.326-.694-1.178.438-.638.791-.887 1.635-.288 3.971 2.821 8.54 3.881 13.322 4.174a16.036 16.036 0 0 0 2.728.052q-.463-.679-.938-1.352a27.79 27.79 0 0 1-12.258-2.757 21.17 21.17 0 0 1-1.827-1.076c-1.028-.674-1.04-1.466-.1-2.281.406-.352.585.053.792.21 3.5 2.652 7.54 3.623 11.827 3.84a.5.5 0 0 0 .055 0q-.525-.695-1.061-1.38c-.681-.023-1.127-.233-.826-1.038q-.5-.617-1.007-1.222a5.227 5.227 0 0 0-.287.942c-.141.892-.687.854-1.366.716-.485-.1-.567-.342-.414-.744.294-.763.595-1.523.895-2.284q-.522-.6-1.056-1.19a18.645 18.645 0 0 0-1.112 2.928c-.194.562-.321.754-.929.493a17.777 17.777 0 0 1-3.953-2.229.856.856 0 0 1-.381-1.15.822.822 0 0 1 .106-.162c.764-1.341 1.5-2.7 2.24-4.054q-.522-.507-1.05-1c-1.125 2.039-2.265 4.068-3.364 6.12a19.384 19.384 0 0 1-10.753 9.008c-1.59.6-3.142 1.306-4.747 1.865-.352.123-.926.857-1.3-.062-.308-.761.012-1.095.74-1.382 1.943-.769 3.838-1.653 5.765-2.459 3.885-1.624 6.495-4.593 8.568-8.11 1.237-2.1 2.388-4.245 3.574-6.373q-.53-.476-1.069-.944c-1.377 2.427-2.665 4.9-4.115 7.292a17.907 17.907 0 0 1-9.237 7.647c-1.259.477-2.478 1.06-3.741 1.529-.34.126-.776.841-1.174-.065-.37-.843 0-1.1.709-1.344a35.458 35.458 0 0 0 5.356-2.337c3.585-1.924 5.914-5 7.776-8.5.977-1.837 1.923-3.69 2.882-5.537q-.525-.436-1.056-.865a44.889 44.889 0 0 0-2.968 5.6c-2.649 5.558-7.2 8.686-12.862 10.5-.47.152-.6.034-.759-.382-.2-.5-.245-.834.346-1.093a37.495 37.495 0 0 0 5.312-2.9 21.191 21.191 0 0 0 7.839-9.563q.753-1.707 1.5-3.416-.514-.394-1.033-.781a26.577 26.577 0 0 0-1.869 3.9 21.081 21.081 0 0 1-10.73 10.721 7.153 7.153 0 0 1-2.317.942c2.327-7.361 7.089-12.614 13.188-16.821q-.6-.427-1.213-.845a33.748 33.748 0 0 0-12.775 15.572 1.266 1.266 0 0 1-.451-1.69A27.007 27.007 0 0 1 174.4 55.5c.75-.585 1.537-1.124 2.311-1.679q-.63-.414-1.271-.819a32.641 32.641 0 0 0-9.338 9.443 30.389 30.389 0 0 0-2.51 5.2 1.855 1.855 0 0 1-.518-2.3 33.638 33.638 0 0 1 10.62-13.417q-.638-.384-1.281-.758a34.255 34.255 0 0 0-10.6 13.592c-1.114-.767-1.195-1.053-.618-2.148a43.35 43.35 0 0 1 9.664-12.325q-.637-.352-1.278-.694a44.875 44.875 0 0 0-9.84 12.705c-1.078-1.361-2.1-2.594-3.052-3.885-.375-.513.265-.627.539-.791a56.534 56.534 0 0 0 7.634-5.39 29.8 29.8 0 0 0 3.468-3.3q-.641-.327-1.285-.643c-4.914 5.024-10.813 8.577-17.126 11.549a53.9 53.9 0 0 0-17.624 12.76 2.14 2.14 0 0 1-.321.247.835.835 0 0 1-.1-.092c-.928-1.571-.294-2.668.918-3.815a56.757 56.757 0 0 1 14.212-9.626c5.583-2.735 11.087-5.58 15.894-9.59a16.746 16.746 0 0 0 2.426-2.252q-.674-.313-1.353-.614a48.558 48.558 0 0 1-10.127 7.34c-5.014 2.866-10.428 5-15.2 8.305a42.83 42.83 0 0 0-7.585 6.306 2.355 2.355 0 0 1-.366.268 1.776 1.776 0 0 1-.176-.246c-.956-2.12-1.179-1.409.546-3.18a44.872 44.872 0 0 1 12.891-8.893c4.759-2.3 9.568-4.484 13.843-7.653 1.364-1.011 2.666-2.094 3.946-3.2q-.723-.3-1.451-.584a61.43 61.43 0 0 1-15.35 9.41 49.063 49.063 0 0 0-15.543 10.6c-.341.359-.488.418-.755-.04-1-1.711-1.2-1.2.3-2.513 3.958-3.462 8.043-6.788 12.9-8.919a63.415 63.415 0 0 0 8.714-4.157 61.5 61.5 0 0 0 7.492-5.229q-.705-.255-1.416-.5c-1.3.885-2.612 1.747-3.877 2.675-.689.505-.877.286-.933-.436-.1-1.274-.218-2.547-.33-3.821a68.574 68.574 0 0 0-1.33-.355 24.8 24.8 0 0 0 .407 5.074 1.548 1.548 0 0 1-1.289 1.7c-.479.043-.357-.344-.4-.578a30.088 30.088 0 0 1-.4-6.607q-.675-.16-1.354-.31a32.917 32.917 0 0 0 .419 7.471c.067.428.284.86-.287 1.209-.882.539-1.122.48-1.284-.553a48.092 48.092 0 0 1-.7-8.513c-.435-.086-.869-.17-1.306-.249a39.016 39.016 0 0 0 .785 9.66c.273 1.35-.795 1.118-1.391 1.343-.807.3-.56-.484-.644-.839a35.692 35.692 0 0 1-.593-10.48l-1.3-.2a32.469 32.469 0 0 0 .4 10.435c.334 1.736.361 1.746-1.164 2.536a60.95 60.95 0 0 0-11.771 8.351c-.242.209-.478.424-.72.631-.324.277-.56.782-1.092.183-.482-.543-.13-.766.231-1.087a36.01 36.01 0 0 0 6.728-8.06 46.793 46.793 0 0 0 5.4-12.9 1.668 1.668 0 0 0 .039-.346q-.7-.086-1.408-.161c-2.265 9-6.5 16.789-14.135 22.377-5.337 3.9-8.323 9.272-10.032 15.475a52.752 52.752 0 0 0-1.703 14.653c0 .394.373.988-.248 1.2-.513.173-1.6-.768-1.639-1.347a37.084 37.084 0 0 1-.1-2.235c-.069-7.462 1.153-14.626 4.908-21.2a28.084 28.084 0 0 1 7.08-8.113A39.519 39.519 0 0 0 134.068 44.4a27.378 27.378 0 0 0 1.5-4.844q-.688-.06-1.38-.106c-2.113 8.5-7.14 15.029-13.9 20.376a30.355 30.355 0 0 0-10.186 15.591 47.136 47.136 0 0 0-1.866 15.9c.013.274.215.763-.36.629-.538-.125-1.219-.1-1.283-.979a44.28 44.28 0 0 1 .111-6.813 42.748 42.748 0 0 1 3.937-15.27 29.189 29.189 0 0 1 8.165-10.2 40.2 40.2 0 0 0 10.824-12.7 22.223 22.223 0 0 0 2.37-6.655 82.133 82.133 0 0 0-1.409-.052 26.728 26.728 0 0 1-5.454 11.078 52.293 52.293 0 0 1-8.235 8.131 30.609 30.609 0 0 0-9.391 14.42 50.15 50.15 0 0 0-2.345 17.322c.007.244 0 .489 0 .74-1.757-.2-1.834-.2-1.834-1.742 0-6.485.438-12.883 2.846-19.039a35.285 35.285 0 0 1 10.61-14.107 40.959 40.959 0 0 0 8.311-8.909 20.456 20.456 0 0 0 3.261-7.931h-.37q-.513 0-1.023.007a20.381 20.381 0 0 1-4.61 9.139 52.165 52.165 0 0 0 .482-9c-.454.026-.906.055-1.359.089a40.669 40.669 0 0 1-1.114 10.8 2.693 2.693 0 0 1-.782 1.342q-.9.828-1.792 1.666c-.307.29-.57.68-1.048.231-.4-.373-.737-.656-.4-1.333a25.14 25.14 0 0 0 1.753-4.675 25.031 25.031 0 0 0 .967-7.826c-.439.045-.876.09-1.311.141a27.652 27.652 0 0 1-2.4 11.2c-.332.756-.5.656-1.061.174a1.323 1.323 0 0 1-.486-1.807 1.343 1.343 0 0 1 .143-.2c1.639-2.817 1.862-5.921 1.661-9.086-.442.061-.882.128-1.323.2a17.97 17.97 0 0 1-1 7.156c-.767 1.925-.7 1.9-2.077.454a1.279 1.279 0 0 1-.238-1.662 12.328 12.328 0 0 0 .608-5.482q-.662.123-1.32.257a13.647 13.647 0 0 1-.638 4.91 30.6 30.6 0 0 1-3.023-4.083q-.663.165-1.323.339a39.763 39.763 0 0 0 6.358 8.228c1.257 1.34 2.6 2.6 3.913 3.887.288.284.65.6.133.921-.365.224-.554 1.064-1.26.437a44.143 44.143 0 0 1-10.582-13.08c-.462.13-.923.266-1.382.4A42.716 42.716 0 0 0 110.91 54.3c.626.628 1.339 1.178 1.905 1.852.266.316 1.264.367.558 1.232-.621.761-1.04.368-1.546-.08a58.57 58.57 0 0 1-5.687-5.728 47.537 47.537 0 0 1-5.523-8.019c-.442.144-.883.293-1.321.443a48.865 48.865 0 0 0 11.32 14.067 5.8 5.8 0 0 1 .386.367c.242.256.729.419.283.917-.338.378-.616.322-.994.055-5.466-3.87-9.967-8.528-12.357-14.926q-.63.227-1.257.464a27.039 27.039 0 0 0 6.076 9.812 38.836 38.836 0 0 0 6.414 5.567c.375.265.737.415.3 1.042a38.482 38.482 0 0 0-6.8 16.472c-.032.2-.081.4-.152.748-1.51-.809-2.968-1.529-4.357-2.366-.6-.36-.672-1.149-.84-1.788a41.235 41.235 0 0 1-1.091-7.69c-.275-3.94-.087-7.89-.254-11.83a32.314 32.314 0 0 0-1.317-9.171c-.41.167-.818.335-1.225.509 1.366 5.4 1.269 10.915 1.28 16.422A50.589 50.589 0 0 0 95.929 74.6a.906.906 0 0 1-.035.3 2.93 2.93 0 0 1-2.577-2.81c-.531-4.766-.824-9.544-1.13-14.323-.226-3.526-.513-7.044-.984-10.544q-.686.312-1.363.638a60.96 60.96 0 0 1 .78 7.408c.45 5.761.584 11.549 1.407 17.281.09.622-.039.606-.585.484a1.947 1.947 0 0 1-1.593-1.686A64.517 64.517 0 0 1 88.5 58.684a75.733 75.733 0 0 0-.583-9.87q-.637.324-1.269.657c.586 5.051.272 10.149.764 15.207a48.378 48.378 0 0 0 1 6.624c.171.713.07.855-.646.778a1.572 1.572 0 0 1-1.635-1.39 75.51 75.51 0 0 1-1.4-10.33c-.249-3.169-.386-6.349-.569-9.523q-.684.388-1.362.792c.068 1.376.141 2.751.194 4.128.014.334.246.8-.1.977-.4.2-.666-.281-.959-.51a17.5 17.5 0 0 1-2.373-2.576q-.541.354-1.079.715a10.99 10.99 0 0 0 4.127 4.023c.93.511.654 1.352.633 2.031-.015.46-.568.132-.856 0a12.615 12.615 0 0 1-4.912-4.231c-.182-.249-.378-.489-.569-.733q-.546.385-1.088.779a13.856 13.856 0 0 0 7.145 5.913 2.248 2.248 0 0 1 .663 2.116c-.279.339-.593.033-.862-.059a14.757 14.757 0 0 1-8.3-6.959q-.581.44-1.154.89a16.549 16.549 0 0 0 8.659 7.274c.4.142.813.237 1.22.356.573.167 1.243 1.589.949 2.091-.225.384-.577.109-.856.045a17.152 17.152 0 0 1-10.35-6.919c-.389-.537-.769-1.08-1.151-1.622q-.531.435-1.056.878a20.27 20.27 0 0 0 7.167 7.089 21.315 21.315 0 0 0 5.871 2.141 2.45 2.45 0 0 1 1.137 2.17c-.116.242-.353.206-.555.215a23.126 23.126 0 0 0-9.154 2.566c-.707.347-.79.028-.976-.522a102.728 102.728 0 0 0-4.921-12.418q-.551.486-1.091.98a96.984 96.984 0 0 1 4.088 10.1c.264.735.464 1.491.742 2.219.162.423.049.624-.324.851-1.069.647-1.2.594-1.627-.648-1.29-3.781-2.7-7.519-4.339-11.165q-.519.5-1.033 1Q67.977 70.365 70 76c.326.915-.117 1.078-.749 1.36-.9.4-.74-.382-.871-.751Q66.6 71.6 64.545 66.7a2.616 2.616 0 0 0-.257-.444q-.525.541-1.041 1.092c1.512 3.267 2.689 6.666 3.918 10.045.247.679.063.955-.631 1.216-.769.29-.834-.154-1.01-.628a108.932 108.932 0 0 0-3.432-8.228c-.115-.246-.252-.482-.386-.718q-.5.559-.988 1.129c.41.874.822 1.747 1.222 2.625.11.242.311.536.108.771-.178.2-.461.017-.7-.031a17.6 17.6 0 0 1-2.633-.959q-.434.541-.861 1.092a13.885 13.885 0 0 0 4.367 1.483 1.212 1.212 0 0 1 1.1.956 14.685 14.685 0 0 1 .885 2.726 40.088 40.088 0 0 1-7.523-3.627q-.4.544-.8 1.094a50.576 50.576 0 0 0 6.664 3.49 2.975 2.975 0 0 1-2.372.185 33.461 33.461 0 0 1-5.213-2.369q-.386.558-.763 1.122c1.013.708 2.2 1.136 3.524 1.924-1.708-.022-3.172.379-4.53-.391q-.534.831-1.049 1.678a30.946 30.946 0 0 0 12.478-1.17c3.96-1.2 7.486-3.359 11.195-5.112a20.821 20.821 0 0 1 6.748-2.191 16.077 16.077 0 0 1 5.733.072 27.617 27.617 0 0 1 5.666 2.112c2.649 1.355 5.255 2.792 7.912 4.13.733.369.472.879.37 1.344-.151.692-.638.225-.927.135a30.153 30.153 0 0 1-7.528-3.669c-4.606-3-9.424-3.121-14.459-1.346a102.322 102.322 0 0 0-11.1 5.087A29.807 29.807 0 0 1 50.693 84.4q-.361.64-.715 1.285a30.764 30.764 0 0 0 18.578-2.971 98.524 98.524 0 0 1 11.4-5.208c3.9-1.32 7.772-1.667 11.549.41 1.056.581 2.082 1.213 3.129 1.812a33.711 33.711 0 0 0 6.68 3.013c.4.124.818.172.776.8-.044.692-.143 1.011-.967.735a68.248 68.248 0 0 1-9.3-4.178c-3.04-1.558-6.178-2.566-9.622-1.55a40.323 40.323 0 0 0-6.635 2.857 96.412 96.412 0 0 1-12.094 5.5c-4.563 1.558-9.2 1.559-13.9 1.023-.245-.028-.492-.051-.737-.075q-.321.63-.632 1.267a33.641 33.641 0 0 0 21.506-3.2c3.365-1.678 6.722-3.373 10.11-5a11.561 11.561 0 0 1 11.1.29 58.38 58.38 0 0 0 10.392 4.592c.518.157.929 1.438.548 1.729-.342.261-.741-.04-1.075-.168a56.8 56.8 0 0 1-6.072-2.827 26.863 26.863 0 0 0-7.092-2.817c-3.378-.688-6.472.188-9.484 1.6-3.917 1.838-7.659 4.028-11.637 5.75a29.581 29.581 0 0 1-19.063 1.658q-.318.681-.623 1.37a37.765 37.765 0 0 0 10.539.786 31.814 31.814 0 0 0 9.334-2.4c.583-.241.848-.27.969.483a33.459 33.459 0 0 0 2.557 8.31c.3.685-.091.778-.527.965-8.353 3.6-16.4 2.7-24.2-1.665-.347-.193-.7-.378-1.048-.564q-.226.631-.446 1.268c5.831 3.439 12.015 5.343 18.886 4.335a31.421 31.421 0 0 0 7.437-2.146c.871-.36.926.231 1.211.689.39.628-.057.78-.5.988a26.106 26.106 0 0 1-20.563 1.165 53.3 53.3 0 0 1-7.115-3.088c-.14.445-.28.891-.415 1.34 5.484 2.9 11.224 4.876 17.528 4.74 3.9-.083 7.513-1.366 11.061-2.848a1.282 1.282 0 0 1 1.785 1.11c.015.341-.274.367-.48.475-7.433 3.931-15.1 4.182-22.985 1.54a73.725 73.725 0 0 1-7.443-3.155q-.183.66-.355 1.323c5.995 3.137 12.282 5.156 19.145 4.971a29.156 29.156 0 0 0 11.82-3.214c.424-.2.9-.814 1.453-.057.77 1.055.757 1.19-.424 1.782a43.835 43.835 0 0 1-6.032 2.626 17.1 17.1 0 0 1-5.35.759 46.689 46.689 0 0 1-19.988-4.449c-.362-.168-.735-.313-1.1-.464q-.173.73-.332 1.464c1.822.574 3.512 1.47 5.319 2.093a50.11 50.11 0 0 0 8.655 2.178c.788.122.917.362.68 1.09a24.527 24.527 0 0 1-1.79 4.2c-.229.416-.441.622-1 .369a31.735 31.735 0 0 0-8.882-2.484 1.544 1.544 0 0 1-1.39-1.051 10.352 10.352 0 0 0-2.2-3.377q-.159.882-.3 1.77a11.173 11.173 0 0 1 1.247 2.329l-1.577-.078q-.09.669-.17 1.342a38.441 38.441 0 0 1 12.074 2.533c.845.341 1.017.576.412 1.342a1.627 1.627 0 0 1-2.194.692l-.074-.041a33.891 33.891 0 0 0-10.423-2.6q-.063.647-.115 1.293a45.63 45.63 0 0 1 9.807 2.469c.9.352.734.552.164 1.062a1.8 1.8 0 0 1-2.3.4 22.592 22.592 0 0 0-7.8-2.116q-.041.668-.07 1.339a26.6 26.6 0 0 1 7.541 2.149c-.86.572-1.445 1.167-2.566.668a16.271 16.271 0 0 0-5.032-1.285c-.013.451-.024.9-.029 1.355a15.545 15.545 0 0 1 3.984 1.087 24.107 24.107 0 0 1-3.985 1.159q.008.672.026 1.345c8.967-1.738 15.127-6.744 17.988-15.584.347-1.073.893-1.329 1.94-.925.515.2.228.517.155.78a23.225 23.225 0 0 1-6.915 11.261 26.909 26.909 0 0 1-13.1 6.212c.021.457.044.912.073 1.367 10.216-1.759 18.617-8.252 21.349-18.794.29-1.118.991-.741 1.536-.692.814.075.328.681.225 1.04-2.2 7.665-6.572 13.663-13.64 17.543a29.222 29.222 0 0 1-9.3 3.163c.04.466.084.932.131 1.4a29.416 29.416 0 0 0 24.316-22.435c.118-.518.3-.85.891-.815.526.031 1.03-.281 1.573-.128-2.95 10.546-11.217 23.331-26.5 25.788.058.448.121.9.186 1.345a30.625 30.625 0 0 0 17.522-9.02 1.776 1.776 0 0 1 1.847-.582A25.605 25.605 0 0 0 70 130.824c5.57-1.207 10.833-3.36 16.163-5.308a60.125 60.125 0 0 1 9.872-2.962 12.639 12.639 0 0 1 14.01 6.734 21.855 21.855 0 0 1 2.608 9.991c.141 6.219.082 12.436.062 18.654v1.128a14.5 14.5 0 0 1-3.5-2.4 29.153 29.153 0 0 1-9.915-16.48 36.277 36.277 0 0 1-.648-5.6c-.075-1.323-.351-1.6-1.693-1.66-.656-.029-.751-.309-.735-.857.028-1.03.011-2.062 0-3.092 0-.821-.33-1.4-1.233-1.4-.846 0-1.189.552-1.208 1.321q-.042 1.653-.02 3.305c.007.488-.156.672-.665.72-1.516.142-1.75.4-1.792 2.028a28.1 28.1 0 0 1-4.374 14.612 28.76 28.76 0 0 1-20.159 13.5 33.32 33.32 0 0 1-5.944.406c-4.479-.033-8.957-.013-13.436-.008a7.527 7.527 0 0 0-.764.056q.531 1.209 1.1 2.4c1.314.136 1.516.542 1.154 2.345q.723 1.418 1.5 2.8 19.856.018 39.708.047c.413 0 1.064-.287 1.2.308a3.947 3.947 0 0 1-.045 2.1c-.084.256-.436.176-.677.176l-27.069-.029c-3.851 0-7.7.058-11.553.091q.751 1.244 1.544 2.463c3.672-.013 7.345-.034 11.02-.036 8.565 0 17.131.014 25.7-.026.961-.006 1.174.27 1.165 1.191-.047 4.585-.028 9.17-.016 13.754 0 .68.042 1.224-.938 1.245-.939.021-1.164.784-1.162 1.607 0 2.453-.038 4.906.018 7.356.022.976-.3 1.151-1.182.911a7.649 7.649 0 0 1-2.546-1.5 6.864 6.864 0 0 0-7.71-.384 3.8 3.8 0 0 0-.575.476q1.1.771 2.228 1.508c1.653-.875 3.236-.683 4.977.7a7.342 7.342 0 0 0 4.443 1.807 6.833 6.833 0 0 0 4.555-1.481c2.687-2.1 4.3-2.093 6.956-.006a6.85 6.85 0 0 0 8.57 0c2.707-2.1 4.263-2.1 6.95 0a6.84 6.84 0 0 0 8.573 0c2.7-2.1 4.254-2.1 6.949 0a6.848 6.848 0 0 0 8.574 0c2.678-2.09 4.253-2.09 6.95 0a6.838 6.838 0 0 0 8.652-.07c2.552-2 4.233-1.994 6.791 0a6.817 6.817 0 0 0 8.82-.067c1.975-1.544 3.511-1.811 5.238-.888q1.127-.737 2.231-1.51a6.7 6.7 0 0 0-8.19-.159Zm33.657-33.773c-.054-.608.044-.975.824-.965.713.01.957.244.865.915a4.25 4.25 0 0 0 0 .492c-.192.382.446 1.209-.655 1.261-.741.036-1.165-.118-1.034-.966a3.187 3.187 0 0 0 0-.737Zm-3.066-.036c-.077-.655.122-.922.854-.93.765-.009.915.315.846.949a4.8 4.8 0 0 0 0 .488c-.188.368.424 1.149-.594 1.225-.746.056-1.263-.057-1.1-.99a2.666 2.666 0 0 0 0-.741Zm-2.213-.931c.827 0 .824.433.788 1-.007.105 0 .211 0 .4-.183.351.371 1.035-.435 1.248-.93.245-1.254-.028-1.247-1.01a4.821 4.821 0 0 0 0-.636c-.087-.691.1-1 .9-1Zm-3.92 1.22c.188-.375-.42-1.152.621-1.2.768-.038 1.235.108 1.073 1.01a2.637 2.637 0 0 0 0 .634c.047.648-.066 1.033-.9 1.028s-.836-.417-.794-.994c.012-.141 0-.283 0-.475Zm-3.135-.2c.024-.487-.212-1.082.72-1.045.8.033 1.207.231 1.069 1.087a1.888 1.888 0 0 0 0 .319c-.017.531.178 1.152-.465 1.287a1.7 1.7 0 0 1-.45.023c-.714-.046-.957-.252-.878-.927.03-.245-.006-.5.006-.744Zm-2.984.46c-.008-.106 0-.212 0-.317v-.74c0-.388-.067-.84.568-.719.455.086 1.06-.037 1.031.738-.013.352.009.705 0 1.057-.019.556.225 1.2-.805 1.19s-.755-.665-.794-1.209Zm-3.277.573a2.629 2.629 0 0 0 0-.32v-2.63c.6-.006 1.026.37 1.544.284.281-.047.373.141.374.381 0 .817.064 1.64-.012 2.449-.078.849-.772.292-1.174.391s-.808.046-.731-.565Zm-3.195-4.069c1.826.366 1.826.366 1.826 2.083a9.142 9.142 0 0 0 .015 1.48c.185 1.126-.457 1.182-1.29 1.123-.4-.029-.56-.156-.556-.562.013-1.369 0-2.739 0-4.123Zm-2.641-1.216c.485.038 1.249.179 1.272.9.051 1.525.009 3.053-.022 4.58-.012.57-.487.38-.8.411-.4.039-.7-.032-.688-.547.02-.852 0-1.7 0-2.557 0-.64-.031-1.28.012-1.917.021-.305-.227-.9.227-.866Zm-3.31 4.953c.012-.246.017-.494.021-.741.009-.742-.009-1.485-.009-2.227 0-1.026.006-2.052 0-3.078 0-.479.133-.684.62-.406.632.359 1.139.713 1.091 1.616-.088 1.623-.059 3.254-.009 4.88.021.692-.252.812-.865.816-.654 0-.876-.211-.846-.86Zm-3.054-9.075a2.4 2.4 0 0 1 1.724 2.6c-.116 2.223-.053 4.458-.02 6.686.011.667-.308.747-.845.734-.5-.012-.879.01-.873-.7.032-3.076.013-6.15.013-9.328Zm-3.129-2.907c1.1.687 1.76 1.278 1.727 2.524-.081 3.152-.039 6.309-.017 9.462 0 .628-.078.979-.845.963-.709-.014-.885-.261-.879-.938.029-3.937.015-7.863.015-12.021Zm-3.011 11.935v-15.749a5.461 5.461 0 0 1 1.752 4.007c-.174 3.9-.086 7.814-.06 11.722 0 .711-.146.972-.911 1.007-.875.04-.777-.453-.777-1ZM199.5 84.325c.511-.005.906.012.854.708-.05.667-.01 1.34-.01 2.01h.077a7.77 7.77 0 0 1 .1 1.371c-.03.32.506.938-.32.939-.514 0-1.191.141-1.25-.741q-.12-1.8-.306-3.587c-.073-.705.355-.7.854-.7Zm-2.568-.068c.324.11.322.313.338.564.073 1.165.136 2.33.237 3.492.046.517-.126.555-.6.5a10.795 10.795 0 0 1-.687-.105c-1.048-.2-1.126-.587-1.179-2.53v-.636c0-1.482.444-1.772 1.888-1.28Zm-4.458-.63c.513.074 1.23-.1 1.192.821-.021.5 0 1 0 1.492h.021a3.608 3.608 0 0 1-.013.85c-.09.357.364 1.033-.263 1.02-.548-.01-1.426-.025-1.391-1.05.027-.78-.032-1.565 0-2.345.008-.31-.264-.892.458-.788Zm-22.923-1.66a78.589 78.589 0 0 0 9.758-4.2c.519-.279.809-.027 1.123.232a26.372 26.372 0 0 0 9.656 4.987c.5.142.582.4.571.839a22.888 22.888 0 0 0 .016 2.343c.055.74-.283.746-.827.573a29.477 29.477 0 0 0-9.565-1.223 27.972 27.972 0 0 0-11.082 2.623 35.1 35.1 0 0 0-.242-5.335c-.062-.5.18-.684.592-.838ZM52.033 167.73c.076.651-.2.853-.839.848-.616 0-.944-.151-.854-.826a5.451 5.451 0 0 0 0-.613c.2-.358-.457-1.191.666-1.224.748-.022 1.156.128 1.023.971a2.2 2.2 0 0 0 .004.844Zm2.653.814c-.922.275-1.278-.021-1.287-1a5.941 5.941 0 0 0-.005-.743c-.095-.71.214-.891.9-.9s.884.249.8.868a4.46 4.46 0 0 0 0 .5c-.176.359.358 1.036-.407 1.266Zm2.862.033c-.749.023-1.164-.131-1.033-.976a2.917 2.917 0 0 0 0-.741c-.061-.623.065-.958.833-.957.742 0 .935.282.854.933a4.674 4.674 0 0 0 0 .488c-.188.385.484 1.217-.653 1.253Zm3.493-1.378a5.812 5.812 0 0 0 0 .633c.056.533-.139.741-.7.746-.593 0-.844-.187-.794-.784a7.513 7.513 0 0 0-.008-.949c-.024-.516-.054-.925.719-.943.828-.02.823.415.785.98-.006.106 0 .213 0 .317Zm2.441 1.383c-.74.013-1.164-.123-1.026-.968a2.314 2.314 0 0 0 0-.633c-.079-.7.047-1.083.924-1.095.945-.013.794.535.792 1.086v.381c-.16.396.419 1.209-.69 1.229Zm3.73-1.518c0 1.244-.076 1.56-.693 1.553a4.119 4.119 0 0 1-.52-.048c-.355-.05-.495-.178-.487-.526.012-.528.031-1.059 0-1.585-.063-.9.627-.77 1.144-.856.757-.125.513.463.556.828a5.365 5.365 0 0 1 0 .634Zm2.228 1.494c-.844.032-.823-.377-.8-.95s.014-1.132 0-1.7c-.009-.363.086-.5.5-.6.529-.13.823-.212.989-.107a.259.259 0 0 1 .063.056.321.321 0 0 1 .048.082 4.88 4.88 0 0 1 .1 1.476c0 .123-.007.249-.01.373a2.545 2.545 0 0 0 .015.37c.085.691-.107.972-.9 1Zm3.945-3.491c0 .106.009.211.01.318.005.319-.006.637-.006.957 0 .424-.021.85.006 1.273.035.591-.008.979-.81.988-.829.009-.924-.352-.889-1.02.043-.812.009-1.627.01-2.441 0-.317-.039-.679.346-.807s.808-.49 1.2-.258c.308.184.118.65.136.99Zm2.922.462h-.035c0 .813-.021 1.626.006 2.436.02.574-.311.61-.745.6-.408-.008-.779.02-.771-.576.021-1.413-.017-2.826.019-4.238.02-.8.765-.838 1.3-1.013.294-.1.222.276.225.458.012.775 0 1.552 0 2.33Zm2.024 2.992c-.6.11-.706-.192-.7-.718.03-1.737.013-3.474.026-5.211 0-.555 1-1.437 1.493-1.339.368.075.241.387.245.6.016.991.006 1.984.006 2.977h.038c0 .993-.02 1.986.007 2.977.029.907-.646.627-1.115.714Zm4.434-.5c0 .9-.7.463-1.1.528-.419.068-.839.091-.834-.594.022-2.556-.03-5.112.007-7.667.015-1.132 1.2-1.222 1.927-2.057v9.79Zm2.136.558c-.595.012-.8-.181-.794-.792q.038-5.054 0-10.106c-.008-1.1.773-1.476 1.608-2.012 0 4.149-.013 8.152.013 12.156 0 .656-.284.744-.831.754Zm3.022-.018c-.749-.029-.84-.356-.832-.983q.087-6.54.117-13.082c0-1.127.8-1.8 1.377-2.628v5.057c-.007 3.546-.008 7.091-.036 10.638-.002.41.296 1.037-.626.998Zm2.732.018c-.835-.007-.672-.547-.671-1.014.016-5.866.045-11.732.053-17.6a7.337 7.337 0 0 1 1.05-2.911l.275.067v20.472c0 .5.1.992-.706.985Zm65.623-19.723c.232.18.136.407.136.6.018 6.032.017 12.064.059 18.1 0 .766-.162 1.037-.988 1.047-.9.01-.835-.467-.833-1.065.015-4.649.115-9.3-.028-13.942a7.387 7.387 0 0 1 1.654-4.732Zm-2.992 4.86q0 6.918.007 13.837c0 .589 0 1-.818.988s-.694-.5-.694-.982c0-3.727.044-7.453-.026-11.177-.024-1.253 1.1-1.737 1.531-2.666Zm-3.143 3.164.261.078v6.136c0 1.526-.031 3.053.013 4.578.02.689-.182.919-.893.912-.689-.006-.821-.275-.816-.888.025-2.876.055-5.752-.01-8.626-.026-1.168.95-1.474 1.445-2.19Zm-4.5 4.463c-.014-1.095.859-1.32 1.7-1.935 0 2.99-.018 5.724.013 8.457.008.706-.377.694-.877.711-.538.019-.853-.048-.841-.726.042-2.169.038-4.339.009-6.507Zm-1.423.514c0 2.014-.025 4.028.012 6.041.015.875-.6.563-1.019.642-.49.09-.707-.079-.7-.613.024-1.626.045-3.254 0-4.88-.034-1.185 1.167-.651 1.709-1.19Zm-4.77 6.01c.048-1.133.043-2.27.014-3.4-.03-1.159 1.066-.778 1.477-1.319l.24.155c0 1.524-.028 3.048.013 4.571.02.707-.372.7-.874.7s-.9 0-.87-.7Zm-3.086-.371a11.512 11.512 0 0 0 .017-1.81c0-.323.013-.583.4-.771 1.282-.63 1.27-.653 1.26.834v.746h-.013a6.419 6.419 0 0 1-.013 1.065c-.064.372.3 1.023-.545.981-.674-.032-1.255-.085-1.1-1.045Zm69.785-49.282a17.172 17.172 0 0 1 1.54 1.173c.16.147-.164.35-.325.457-.733.491-1.466.983-2.224 1.433a2.575 2.575 0 0 1-2.231-.783.248.248 0 0 1 .1-.336l.023-.011a23.073 23.073 0 0 0 2.836-1.845 1.256 1.256 0 0 1 .281-.088Zm-1.517-1.185.112.166c.032.231-.14.3-.288.39-.654.413-1.33.8-1.948 1.26a1.771 1.771 0 0 1-2.435-.055c-.538-.423-.789-.636-.026-1.048a21.674 21.674 0 0 0 1.865-1.194 1.674 1.674 0 0 1 2.368-.022 1.693 1.693 0 0 1 .352.5Zm-4.015-3.887c1.6 1.4 1.6 1.5-.176 2.693-.644.432-1.32.818-1.985 1.219-.179.107-.372.19-.594.3-.723-.456-1.465-.872-2.141-1.377-.265-.2.09-.33.245-.431 1.275-.827 2.559-1.641 3.829-2.476a.576.576 0 0 1 .813.059l.009.011Zm-22.16-15.821c.954-.066 1.917-.01 2.876-.01a26.39 26.39 0 0 1 10.938 1.854 1.432 1.432 0 0 1 .982.988 35.939 35.939 0 0 0 5.535 10.722c.479.634.487.955-.215 1.363q-1.977 1.148-3.883 2.413a1.079 1.079 0 0 1-1.338-.006 67.8 67.8 0 0 0-13.25-6.252 34.913 34.913 0 0 0-15.48-1.224c-.678.088-1.62.5-1.971-.007-.3-.435.5-1.136.8-1.729.709-1.43 1.487-2.828 2.18-4.264a2.06 2.06 0 0 1 .993-1.033 30.836 30.836 0 0 1 11.835-2.815Zm-24.536-37.848c.463-.19.946-1.043 1.54-.3 4.134 5.184 8.368 10.318 10.52 16.74 2.682 8 2.621 15.89-1.117 23.6-1.1 2.267-2.289 4.482-3.458 6.711a3.336 3.336 0 0 1-3.352 2 51.407 51.407 0 0 0 6.173-13.034c2-6.718 2.272-13.413-.387-20.045a43.644 43.644 0 0 0-6.086-10.068c-1.224-1.609-2.474-3.2-3.684-4.817-.155-.206-.775-.532-.149-.789Zm-3.073 1.507c.5-.287 1.148-1.072 1.744-.284 3.357 4.43 7.046 8.63 9.409 13.747a26.167 26.167 0 0 1 1.955 15.7c-1.429 8.453-5.559 15.6-10.637 22.334-1.974 2.618-4.631 4.341-7.114 6.32a34.073 34.073 0 0 0-9.448 10.808 19.921 19.921 0 0 0-2.361 9.3q.008 11.411 0 22.818c0 1.032-.582 1.493-1.589 1.3-.578-.11-.338-.551-.34-.843-.021-2.381-.012-4.762-.012-7.143v-6.931h.157c0-3.944.086-7.89-.023-11.83-.137-4.976 2.034-8.877 5.352-12.324 3.25-3.377 6.911-6.3 10.305-9.526 4.406-4.181 8.3-8.748 10.77-14.365 2.93-6.673 4.1-13.575 2.248-20.77a33.555 33.555 0 0 0-5.43-11c-1.538-2.167-3.189-4.254-4.76-6.4-.181-.244-.784-.594-.227-.912Zm-15.82 105.283a1.265 1.265 0 0 1 .02.313c0 .107-.013.214-.013.32v.529a1.1 1.1 0 0 1-1.665 1.122c-.332-.129-.268-.376-.273-.6-.014-.528.039-1.062-.014-1.584-.12-1.169.774-.959 1.406-1.041.848-.112.46.577.539.945ZM148.07 62.347c.433-.221.887-.925 1.455-.175 3.158 4.186 6.5 8.243 8.758 13.042a26.445 26.445 0 0 1 1.882 16.642c-1.62 8.564-6.32 15.292-12.476 21.179-3.613 3.455-7.528 6.58-10.99 10.2a18.754 18.754 0 0 0-5.553 13.482c-.014 8.53-.116 17.062-.106 25.593 0 .638-.028 1.06-.865 1.092-.745.029-.891-.21-.888-.888.023-4.976.013-9.953.013-14.929h.234c0-4.656.023-9.313-.008-13.968-.025-3.651 1.755-6.507 3.94-9.188 3.219-3.949 7.1-7.236 10.761-10.751 3.841-3.693 7.56-7.489 10.286-12.127a28.628 28.628 0 0 0 3.674-16.806c-.418-6.394-3.314-11.813-6.808-16.977-1.033-1.526-2.152-2.994-3.229-4.492-.21-.293-.666-.633-.081-.93Zm-17.651 103.521c1.11-.32 1.255-.149 1.252 1.455-.211.345.441 1.128-.553 1.239-.823.093-1.456-.036-1.165-1.08.148-.54-.5-1.336.465-1.614Zm25.913-79.988a31.83 31.83 0 0 0-4.52 2.585 55.118 55.118 0 0 0-11.63 11.587c-.258.331-.522.659-.89 1.123-.326-1.81-.322-3.228.854-4.646 3.184-3.842 6.508-7.5 10.916-9.976 1.512-.849 3.112-1.547 4.7-2.258.273-.123.792-.628.956-.073.147.507.466 1.247-.386 1.658Zm.363 4.65a27.551 27.551 0 0 1-6.421 14.695 109.388 109.388 0 0 1-10.8 10.986c-.046.043-.129.045-.288.1a10.027 10.027 0 0 1-.161-2.814c.047-3.053.154-6.1.222-9.156a1.842 1.842 0 0 1 .322-1.093 56.593 56.593 0 0 1 13.016-13.6 23.16 23.16 0 0 1 4.213-2.383 18.441 18.441 0 0 1-.098 3.265Zm-1.1-7.708a36.519 36.519 0 0 0-16.268 12.564c-.147.193-.267.427-.567.5a1.939 1.939 0 0 1 .376-2.364 42.367 42.367 0 0 1 10.478-10.17 33.107 33.107 0 0 1 5.973-2.763c.189-.073.368-.2.543.067a1.426 1.426 0 0 1-.535 2.168Zm-.709-3.469a35.868 35.868 0 0 0-5.872 2.723 41.277 41.277 0 0 0-10.112 9.468l-.883 1.1a2.252 2.252 0 0 1 .089-2.988 27.676 27.676 0 0 1 13.29-9.841c1.06-.4 2.1-.851 3.174-1.219.267-.092.669-.5.916 0 .283.578-.281.625-.6.752Zm-21.882-5.437a50.813 50.813 0 0 1 12.846-10.379c.481-.287.657-.115.923.243a68.593 68.593 0 0 1 7.77 12.3c.336.736.252.942-.532 1.244-3.969 1.525-7.983 2.972-11.391 5.652a30.28 30.28 0 0 0-6.054 6.439 16.173 16.173 0 0 0-3.382-4.12 1.011 1.011 0 0 1-.347-.946 34.069 34.069 0 0 0-.361-8.605 2.026 2.026 0 0 1 .528-1.828Zm-9-10.533c.435-.205.756-.975 1.385-.227a24.853 24.853 0 0 1 4.243 7.308 31.6 31.6 0 0 1 1.9 12.544c-.01.246-.057.488-.1.838-1.93-.752-1.912-.752-1.934-2.643-.075-6.232-1.568-12-5.59-16.926-.308-.383-.401-.657.104-.894Zm-2.1 1.675c.558-.5.771-.106 1.066.261a24.232 24.232 0 0 1 5.013 13.129 13.329 13.329 0 0 1 .017 1.385h.062a5.235 5.235 0 0 1 .04 1.062c-.065.4.346 1-.278 1.186-.552.168-1.288-.625-1.287-1.3a23.864 23.864 0 0 0-2.989-11.849 15.691 15.691 0 0 0-1.769-2.651c-.425-.5-.327-.812.136-1.228Zm-1.684 1.887c.422-.106.525.278.7.515a21.852 21.852 0 0 1 4.115 11c.052.529.089 1.06.136 1.619-.183.287.282 1.044-.407.908-.583-.114-1.62.193-1.645-1a21.709 21.709 0 0 0-3.594-11.072 1.592 1.592 0 0 1 .702-1.97Zm-6.02 12.824a32.994 32.994 0 0 1 4.058-10.214 20.266 20.266 0 0 1 3.474 10.223c.02.481-.1.652-.581.582a30.323 30.323 0 0 0-6.382-.046c-.436.027-.7 0-.569-.545Zm-.521 2.837c.054-.461.067-.855.749-.915 5.578-.487 10.88.25 15.778 3.184a14.442 14.442 0 0 1 6.73 9.531c1.32 5.534.892 11.148.724 16.75a48.982 48.982 0 0 0 .086 6.07c.116 1.232-1.123 1.469-1.621 2.206 0-2.721-.04-5.376.009-8.031.095-5.228.091-10.448-1.094-15.58-.827-3.581-2.126-6.929-5.222-9.235-1.691-1.26-3.73-1.7-5.688-2.313a24.959 24.959 0 0 0-9.668-1.141c-.353.03-.861.146-.782-.525Zm-.416 2.876c.063-.69.226-.933.985-.989a29.6 29.6 0 0 1 13.192 2.362c2.534 1 4 3.088 5.031 5.5a31.988 31.988 0 0 1 2.149 10.478 113.849 113.849 0 0 1-.112 13.946 9.159 9.159 0 0 0-.052 2.02c.361 2.044-.658 3.409-2.015 4.535 0-3.031-.029-6.113.007-9.194a96.77 96.77 0 0 0-.614-15.736 25.223 25.223 0 0 0-1.52-5.635c-1.221-3.048-3.837-4.3-6.673-5.3a24.2 24.2 0 0 0-6.6-1.041l-2.87-.178c-.5-.03-.978.033-.905-.775Zm-.223 3.071c.044-.753.273-.959 1.015-.89 2.96.276 5.94.209 8.862 1.028a9.119 9.119 0 0 1 7.06 7.484c1.213 5.827 1.2 11.7 1.058 17.6-.092 3.763-.334 7.524-.239 11.289.022.878-.6 1.376-1.025 2.038-.242-3.35-.672-6.654-1.012-9.964-.26-2.537.283-5.162.267-7.755a50.1 50.1 0 0 0-1.419-13.3c-1.05-3.763-3.778-5.376-7.313-6.057a29.757 29.757 0 0 0-6.258-.446c-.777.017-1.044-.211-1-1.031Zm14.408 77.517c.929-.325 1.166-.05 1.157 1.264-.12.328.236.874-.33 1.135-.74.34-1.285-.01-1.213-.853.044-.523-.423-1.264.386-1.546ZM113.03 92.8c.091-2.317-.368-1.888 1.9-1.83a19.812 19.812 0 0 1 7.923 1.324 5.894 5.894 0 0 1 3.232 3.727 37.4 37.4 0 0 1 1.509 11.143c.045 1.688.007 3.379.007 5.068a69.949 69.949 0 0 0-3.331-6.749 30.3 30.3 0 0 0-9.832-10.151 2.536 2.536 0 0 1-1.408-2.532Zm-5.445.583a30.207 30.207 0 0 1 16.248 14.162 36.245 36.245 0 0 1 4.15 14.856c.586 8.948-.057 17.9.013 26.856.034 4.408-.017 8.815-.038 13.222 0 .458.192 1.01-.668 1-.8-.012-.909-.381-.906-1.057.018-6.468.01-12.939.01-19.407h-.037c0-5.972.141-11.947-.032-17.914-.258-8.808-2.911-16.828-9.226-23.173-6.907-6.94-15.338-9.775-25.09-7.992a32.412 32.412 0 0 0-9.018 3.441c-.663.345-.958.294-1.258-.4-.254-.589-.428-.912.351-1.294A39.429 39.429 0 0 1 94.757 91.5a26.278 26.278 0 0 1 12.828 1.886Zm16.389 73.724c.006-.708-.255-1.594 1.049-1.32.487.1.674.29.638.767a7.672 7.672 0 0 0 0 .959c.028.6.07 1.082-.833 1.08-.871 0-.906-.434-.856-1.059.012-.141 0-.284 0-.427Zm-.678-28.19c-.09-4.929.245-9.872-.406-14.791-.945-7.136-2.714-13.959-7.574-19.549-5.369-6.176-12.35-8.248-20.292-7.625A28.872 28.872 0 0 0 84.7 100.11c-.86.417-1.237.245-1.592-.579-.2-.466-.063-.638.3-.821 4.376-2.2 8.871-4.144 13.879-3.933 10.067.425 17.837 4.924 23.012 13.63a35.191 35.191 0 0 1 4.712 18.23q.013 4.212.009 8.425t0 8.424v9.332q0 4.665-.016 9.33c0 .421.37 1.145-.636 1.1-.824-.04-1.054-.37-1.05-1.189.032-7.711.124-15.427-.017-23.138Zm-.7 28.425c-.013.6.224 1.257-.865 1.257-1.139 0-.763-.73-.824-1.286a.928.928 0 0 1-.006-.106c0-.1.005-.212.005-.32 0-.248-.014-.5 0-.743.027-.387-.16-.942.576-.84.533.074 1.212-.04 1.119.869-.04.386 0 .779-.009 1.169Zm-11.766-62.268a20.079 20.079 0 0 0-18.5-4.425 29.5 29.5 0 0 0-6.2 2.2c-.98.483-1.188-.224-1.476-.759-.391-.725.432-.609.69-.732a28.143 28.143 0 0 1 10.976-3.112c8.549-.34 16.227 3.053 20.771 11.269a39.889 39.889 0 0 1 4.533 16.271c.08.95.15 1.9.226 2.85-.05-.01-.1-.022-.148-.033-.44-1.079-.83-2.181-1.334-3.23a11.37 11.37 0 0 1-.68-3.2c-1.115-6.651-3.586-12.641-8.859-17.1Zm7.111 15.719a28.008 28.008 0 0 0-4.337-4.471 21.935 21.935 0 0 0-14.293-4.6 25.071 25.071 0 0 0-5.811.621.973.973 0 0 1-1.035-.311 56.173 56.173 0 0 1-5.923-7.094c-.208-.287-.445-.585.1-.823 3.835-1.677 7.755-2.98 12.029-2.655a19.374 19.374 0 0 1 13.6 7.025 26.038 26.038 0 0 1 5.67 12.308ZM77.818 85c2.268-1.011 4.51-2.1 7.066-2.138a16.663 16.663 0 0 1 7.9 2.231 59.674 59.674 0 0 0 8.488 3.89c.521.171.823.435.682.992s-.579.273-.879.232a28.835 28.835 0 0 0-14.8 2.066 51.3 51.3 0 0 0-4.839 2.191c-.485.256-.767.268-1.023-.334a60.585 60.585 0 0 1-2.852-8.342c-.09-.342-.141-.612.253-.788Zm-1.791 1c.313.066.262.454.335.721a59.824 59.824 0 0 0 2.9 8.211 61.521 61.521 0 0 0 11.14 16.99c.827.9.761.742-.313 1.231-1.341.611-2 .075-2.787-.922a69.747 69.747 0 0 1-10.82-18.2 36.437 36.437 0 0 1-1.824-6.658A1.379 1.379 0 0 1 76.027 86Zm-2.872 1.508c.271.024.185.389.231.63a38.258 38.258 0 0 0 1.93 6.735 67.734 67.734 0 0 0 10.016 17.075 7.958 7.958 0 0 1 .976 1.254c.15.308.943.552.365.968-.452.325-1.053.64-1.65-.1-1.042-1.3-2.121-2.564-3.1-3.912a62.379 62.379 0 0 1-9.4-19.058c-.222-.747-.415-1.5-.6-2.26a1.238 1.238 0 0 1 1.144-1.326h.09Zm-2.4 9.361a37.007 37.007 0 0 1-1.826-6.659c-.187-1.025.657-.955 1.135-1.207.556-.292.514.312.59.6a63.276 63.276 0 0 0 13.124 25.151 2.594 2.594 0 0 1 .218.362c-1.629.931-1.629.931-2.735-.467a67.872 67.872 0 0 1-10.508-17.781Zm-3.373 18.8c.37-1.928 1.453-2.774 3.241-3.322a28.064 28.064 0 0 0 4.593-2.182c.519-.27.791-.36 1.173.225 1.358 2.072 2.878 4.031 4.525 6.078-5.142 1.944-9.894 4.563-15.573 4.531a31.248 31.248 0 0 0 2.039-5.328Zm-3.453 7.931c.368-.8.685-1.348 1.845-1.259a18.33 18.33 0 0 0 7.287-1.3c3.824-1.3 7.489-3.008 11.257-4.452 5.149-1.974 10.369-3.7 15.984-3.487 8.842.337 15.044 4.672 18.724 12.655a32.92 32.92 0 0 1 2.944 14.485q-.018 1.2-.023 2.4c-.009 2.4.013 4.8.013 7.2 0 2.985.006 5.97 0 8.956q0 1.493-.015 2.985c0 .327.333 1.011-.412.94-.552-.052-1.294.007-1.281-1.01.047-3.587.017-7.178.017-10.767 0-4.585.29-9.19-.064-13.748-.641-8.267-3.83-15.337-11.13-19.91-4.4-2.758-9.283-2.752-14.229-1.8-5.358 1.035-10.4 3.052-15.486 4.93-3.891 1.438-7.744 3-11.877 3.656a13.494 13.494 0 0 1-3.187.124c-.42-.033-.565-.153-.363-.595Zm53.858 43.992c-.01-.388 0-.776 0-1.164h.021a3.569 3.569 0 0 1 .009-.738c.094-.435-.3-1.04.29-1.28.376-.152 1.371.981 1.374 1.473a12.738 12.738 0 0 0 .016 1.692c.12.862-.32.969-1.025 1-.839.036-.67-.514-.682-.982Zm-53.773-42.06c2.955.421 5.781-.4 8.571-1.252 4.852-1.49 9.517-3.507 14.317-5.145a51.889 51.889 0 0 1 10.719-2.675c7.3-.856 12.915 1.917 16.89 7.989A25.374 25.374 0 0 1 118.866 139c-.105 7.249-.02 14.5-.047 21.752 0 .354.39 1.088-.339 1.058-.579-.023-1.335-.157-1.314-1.172.064-2.984.062-5.97.047-8.955-.022-4.727.118-9.464-.158-14.177-.412-7.06-3.293-12.953-9.263-17.018A15.71 15.71 0 0 0 96.3 118.05a57.318 57.318 0 0 0-11.987 3.635c-4.573 1.74-9.1 3.627-13.912 4.633a21.145 21.145 0 0 1-8.271.355 1.449 1.449 0 0 1 1.663-1.2 1.532 1.532 0 0 1 .222.055Zm52.4 42.4c.031.66-.38.657-.831.627-.423-.027-.978.185-.968-.6.018-1.592.005-3.185.005-4.813 1.521.178 1.93.952 1.777 2.226a15.6 15.6 0 0 0 .017 2.557Zm-11.39-45.572a13.843 13.843 0 0 0-9.539-1.13 71.287 71.287 0 0 0-11.656 3.662 99.521 99.521 0 0 1-14.581 4.657 25.3 25.3 0 0 1-8.254.58 3.321 3.321 0 0 1-1.316-.3c.412-.543.82-1.069 1.216-1.6.208-.282.48-.249.768-.2 5.036.9 9.828-.268 14.523-1.874 4.661-1.6 9.246-3.414 13.884-5.078a27.294 27.294 0 0 1 7.864-1.8c6.076-.3 10.666 2.379 14.04 7.286A21.678 21.678 0 0 1 115.778 139q.052 10.289.041 20.576c0 .342.313 1.059-.271 1.006-.556-.048-1.4-.2-1.4-1.149.006-1.776-.006-3.553 0-5.329.028-5.685.292-11.388-.282-17.046-.631-6.206-3.11-11.51-8.847-14.693Zm6.618 39.423c1.413.216 1.765.95 1.649 2.161a37.647 37.647 0 0 0-.045 3.932c.006.48-.1.756-.652.657-.4-.072-.971.22-.962-.586.024-2.047.01-4.089.01-6.164Zm-3.275-2.491a2.689 2.689 0 0 1 1.957 3.017c-.15 1.864-.054 3.75-.025 5.626.008.54-.221.741-.685.614-.427-.116-1.22.44-1.233-.488-.039-2.89-.014-5.78-.014-8.769Zm-3.2 8.276c.028-3.406.022-6.814.027-10.221v-.976c1.11.869 1.849 1.595 1.775 3.047-.136 2.69-.034 5.392.006 8.089.01.7-.051 1.1-.943 1.089-.85 0-.872-.382-.865-1.028Zm-2.881-.024v-14.3a2.756 2.756 0 0 1 1.6 2.771c-.09 3.835-.05 7.675-.065 11.514 0 .512.13 1.034-.761 1.034s-.771-.48-.771-1.019Zm-3.058-19.652a8.766 8.766 0 0 1 1.727 5.452c-.138 4.714-.047 9.435-.043 14.153 0 .571.116 1.1-.81 1.1-.841 0-.886-.382-.884-1.036.017-6.482.01-12.964.01-19.666Zm-5.363 31.954v-15.987c0-9.094.015-18.189-.022-27.283 0-.921.189-1.232 1.155-1.189.843.038 1.222.106 1.22 1.138q-.057 27.283-.028 54.566a1.384 1.384 0 0 1-2.1 1.123c-.4-.232-.219-.639-.221-.967q-.017-5.7-.008-11.4Zm4.435 18.931c0 .41-.069.711-.581.639-2.233-.313-4.082.533-5.957 2.157 0-2.288.008-4.294-.006-6.3 0-.463.254-.509.611-.508 1.771 0 3.543.01 5.315 0 .447 0 .631.147.622.615a107.044 107.044 0 0 0 0 3.4Zm59.06-7.687c0 .7.011 1.217-.95 1.237-.86.018-1.158.669-1.15 1.493.017 1.884-.02 3.768.02 5.651a1.657 1.657 0 0 1-.705 1.524c-2.333 1.8-4.214 1.829-6.548 0a6.86 6.86 0 0 0-9-.012c-2.363 1.841-4.2 1.842-6.533 0a6.88 6.88 0 0 0-9 0c-2.329 1.838-4.181 1.836-6.531 0a6.86 6.86 0 0 0-9 .013c-2.41 1.888-4.642 1.786-6.882-.27a1.215 1.215 0 0 1-.355-1.045c0-1.884-.027-3.768.013-5.651.024-1.067-.337-1.736-1.478-1.759-.552-.01-.625-.311-.624-.759.007-4.869.017-9.738-.01-14.607 0-.775.425-.739.951-.738q6.132.011 12.262 0h37.32q3.519-.006 7.037-.02c.952 0 1.181.26 1.17 1.188-.047 4.586-.028 9.171-.011 13.755Zm-.134-17.562c-.147.3-.588.146-.9.148-2.417.009-4.832 0-7.248 0q-24.567 0-49.134-.011c-.427 0-1.1.273-1.238-.261a4.938 4.938 0 0 1 0-2.1c.073-.387.62-.215.953-.217 3.588-.01 7.176-.006 10.766-.006h17.693q14.068 0 28.137.012c.372 0 .984-.272 1.066.347a3.581 3.581 0 0 1-.1 2.087Zm3.73-38.142c.866.024 1.207.14 1.2 1.147q-.018 3.428-.025 6.854-.021 10.28 0 20.56v20.32q.006 3.386.017 6.773c0 .942-.19 1.274-1.205 1.265-.976-.008-1.156-.318-1.155-1.225q.039-27.254 0-54.507c0-.934.22-1.212 1.17-1.186Zm3.28 66.064a21.089 21.089 0 0 0-2.544-1.578 6.277 6.277 0 0 0-3.1-.475c-.609.078-.933-.013-.9-.737.05-1.061.042-2.127 0-3.189-.023-.581.212-.72.745-.713 1.7.025 3.4.01 5.1.01.364 0 .71-.036.705.519-.02 2-.008 4.007-.008 6.163Zm.371-54.055V147a4.974 4.974 0 0 1 1.285 3.3c-.034 5.752.006 11.5.01 17.257 0 .454.2 1.034-.654 1.02s-.637-.6-.637-1.046q-.013-10.07 0-20.134Z" class="cls-1"/><path d="M212.671 163.77a92.221 92.221 0 1 0-19.694 29.209 92.222 92.222 0 0 0 19.694-29.209Zm-33.942 37.03q-1.1.771-2.232 1.51a88.592 88.592 0 0 1-13.926 7.442q-1.845.783-3.731 1.483-1.173.436-2.359.84-3.384 1.149-6.851 2.02a89.029 89.029 0 0 1-43.241 0q-3.479-.871-6.876-2.026-1.184-.4-2.351-.838-1.886-.7-3.729-1.482a88.642 88.642 0 0 1-13.93-7.444q-1.128-.738-2.228-1.509a89.478 89.478 0 0 1-23.77-24.591q-.791-1.22-1.543-2.463-.807-1.335-1.567-2.7-.773-1.387-1.5-2.8-.593-1.162-1.153-2.344t-1.1-2.4a88.006 88.006 0 0 1-6.47-22.582q-.1-.671-.187-1.345-.249-1.9-.413-3.8-.1-1.125-.168-2.26-.042-.683-.074-1.367-.041-.871-.063-1.746-.033-1.2-.033-2.4 0-.6.008-1.194c.006-.452.017-.905.028-1.355q.023-.769.058-1.533c.021-.447.043-.893.07-1.339q.054-.912.129-1.819.053-.648.115-1.293.156-1.638.376-3.271.15-1.128.33-2.25.381-2.408.9-4.79.157-.733.331-1.464.231-.983.483-1.956.171-.663.355-1.323.258-.935.534-1.863.2-.673.415-1.34.31-.976.642-1.944c.146-.424.294-.847.447-1.268q1.08-3 2.377-5.918c.2-.458.411-.916.622-1.37q.374-.8.763-1.6.848-1.736 1.772-3.432.352-.646.715-1.286 1.193-2.108 2.5-4.149.495-.772 1.006-1.533c.252-.375.5-.75.763-1.122q.84-1.211 1.719-2.395.579-.78 1.174-1.546.426-.55.861-1.092.978-1.221 2-2.406.489-.569.988-1.129 1.261-1.416 2.582-2.777.7-.723 1.417-1.428.513-.5 1.033-1 .722-.69 1.46-1.363.541-.492 1.091-.98.708-.626 1.431-1.239.525-.444 1.056-.878.757-.621 1.527-1.227.575-.45 1.155-.89.675-.51 1.358-1.011.54-.393 1.088-.779.783-.552 1.577-1.089.535-.361 1.079-.715 1.595-1.042 3.236-2.018.678-.4 1.363-.792 1.23-.7 2.485-1.368.631-.334 1.27-.656.954-.486 1.923-.949.678-.324 1.363-.638 1.1-.5 2.221-.98.61-.258 1.225-.508 1.008-.411 2.029-.8.626-.237 1.256-.465.68-.245 1.362-.479.66-.225 1.322-.442.918-.3 1.845-.577.689-.207 1.381-.4.717-.2 1.44-.392 2.475-.655 4.985-1.167.657-.134 1.32-.257 1.347-.252 2.708-.464 2.379-.37 4.774-.61 1.2-.122 2.411-.207.68-.05 1.36-.089 2.052-.117 4.126-.142.51-.006 1.023-.007h.37q1.118 0 2.23.037.707.02 1.409.052 1.1.048 2.187.124c.461.031.921.068 1.38.1q.95.081 1.893.182.707.073 1.408.162.976.119 1.947.26.649.095 1.3.2 1.579.252 3.15.565.931.183 1.856.387.68.148 1.354.311 1.514.356 3.013.77 2.6.714 5.141 1.582.71.243 1.415.5 3.007 1.084 5.93 2.386.679.3 1.353.615.864.4 1.715.82.645.317 1.285.643 1.274.656 2.526 1.348.78.432 1.554.881.644.374 1.281.758.879.53 1.745 1.08.639.405 1.271.819 1.268.838 2.509 1.716 1.4.992 2.76 2.037.8.613 1.586 1.248.533.429 1.056.865.78.648 1.546 1.314 1.314 1.144 2.584 2.337.53.5 1.05 1 2.081 2.022 4.029 4.175c.357.393.708.79 1.057 1.19q.594.68 1.172 1.371.508.608 1.007 1.223c.278.343.553.69.826 1.037q.536.686 1.061 1.38.768 1.022 1.511 2.067.476.671.938 1.352.565.829 1.113 1.674.446.686.879 1.381.5.8.984 1.618.382.645.754 1.3 1.5 2.628 2.822 5.354.318.66.626 1.324.411.89.8 1.787c.187.426.368.854.548 1.283q.358.856.7 1.719.249.633.488 1.272.309.823.6 1.654c.152.428.3.858.444 1.289q.119.354.236.71.221.68.432 1.362.262.847.506 1.7.216.752.418 1.508.337 1.265.639 2.543.444 1.878.806 3.789.216 1.134.4 2.28.144.885.271 1.773.192 1.353.342 2.717.084.761.155 1.528.108 1.157.186 2.322c.032.492.062.984.087 1.478q.059 1.188.088 2.387c.01.468.017.939.02 1.409v.7q0 .842-.017 1.679-.033 1.837-.143 3.67c-.028.462-.058.923-.093 1.382q-.084 1.112-.194 2.217c-.045.44-.092.877-.142 1.314a88.014 88.014 0 0 1-6.819 25.233q-.523 1.2-1.084 2.376-.495 1.042-1.015 2.072-.793 1.567-1.648 3.1-.757 1.361-1.562 2.692-.751 1.245-1.541 2.461a89.506 89.506 0 0 1-23.759 24.614Z" style="fill:#aaa"/><path d="M38.223 173.45a7.54 7.54 0 1 1-5.7.746 7.541 7.541 0 0 1 5.7-.746Zm2.48 8.422a4.483 4.483 0 0 0-3.1-5.529l-.1-.027a4.793 4.793 0 0 0-5.681 3.273 4.482 4.482 0 0 0 3.1 5.529l.1.026a4.792 4.792 0 0 0 5.681-3.272ZM37.6 167.664l-16.456-1.858 11.627-11.794L33.825 157l-2.057 2.026 1.9 5.358 2.873.282 1.058 2.993Zm-6.672-3.558-1.108-3.129-2.771 2.741Zm.858-14.58-14.529 2.416-.493-2.967 7.285-1.212-8.187-4.212-.571-3.438 8.252 4.223 6.173-7.273.615 3.7-5.877 6.937 6.835-1.136Zm-2.147-17.054-14.728.239-.048-3.008 11.74-.19-.095-5.891 2.986-.048.145 8.9Zm-.02-12.362-13.631-9.41 15.821-4.9-.481 3.138-2.769.813-.862 5.618 2.4 1.606Zm-4.2-6.29.5-3.282-3.738 1.105ZM37.31 89.581 26.161 95.81l7.832 2.742-.993 2.839-14.059-4.922 11.148-6.229-7.832-2.74.994-2.839Zm2.6-5.932-12.733-7.406 2.514-4.321a7.421 7.421 0 0 1 4.548-3.57 7.315 7.315 0 0 1 9 5.1l.04.153a7.416 7.416 0 0 1-.854 5.718l-2.514 4.322Zm-.873-3.987 1-1.721a4.29 4.29 0 0 0 .489-3.482 4.878 4.878 0 0 0-5.666-3.3 4.3 4.3 0 0 0-2.786 2.147l-1 1.721Zm15.84-17.738-10.419-10.41 3.827-3.831a4.234 4.234 0 0 1 3.072-1.314 4.082 4.082 0 0 1 3.016 1.239 3.4 3.4 0 0 1 1.072 2.683 3.63 3.63 0 0 1 4.006.923 4.057 4.057 0 0 1 1.255 3.131 4.63 4.63 0 0 1-1.443 3.191Zm-4.023-8.27 1.481-1.483a1.726 1.726 0 0 0 .563-1.225A1.652 1.652 0 0 0 51.24 49.3a1.724 1.724 0 0 0-1.225.55l-1.481 1.482Zm4.2 4.193 2.127-2.128a1.834 1.834 0 0 0 .6-1.276 1.6 1.6 0 0 0-.5-1.2 1.621 1.621 0 0 0-1.218-.513 1.846 1.846 0 0 0-1.276.6l-2.127 2.127Zm11.866-7.134-8.685-11.9 2.429-1.774 6.924 9.483 4.758-3.474 1.762 2.412Zm19.7-13.783a6.005 6.005 0 0 1-11.2.75l-4.008-7.88 2.681-1.363 4.025 7.914a3.133 3.133 0 0 0 1.756 1.668 3.275 3.275 0 0 0 3.883-1.975 3.131 3.131 0 0 0-.313-2.4l-4.025-7.915 2.681-1.361 4.016 7.9a5.891 5.891 0 0 1 .501 4.662Zm8.135-1.7L90.38 21.166l8.6-2.672.881 2.833-5.725 1.78L95 25.88l4.537-1.41.862 2.774-4.537 1.41.888 2.852 5.725-1.78.88 2.832-8.6 2.672ZM129.1 27.4a7.541 7.541 0 1 1 1.975-5.417A7.249 7.249 0 0 1 129.1 27.4Zm-8.614-1.7a4.484 4.484 0 0 0 6.338-.192l.066-.073a4.791 4.791 0 0 0-.271-6.55 4.483 4.483 0 0 0-6.338.193l-.067.072a4.791 4.791 0 0 0 .271 6.55Zm14.042 3.813 9.225-13.755 5.117 15.75-3.143-.437-.852-2.758-5.63-.784-1.572 2.42-3.146-.437Zm6.231-4.285 3.288.458-1.158-3.723Zm12.547 7.472 4.542-14.012 2.861.928-2.277 7.026 7.508-5.33 3.315 1.075-7.545 5.383 3.615 8.827-3.572-1.157-3.448-8.4-2.136 6.591-2.863-.93Zm19.341 7.738a6.5 6.5 0 0 1-2.44-2.045 5.1 5.1 0 0 1-.931-2.766l2.88-.628a4.217 4.217 0 0 0 .55 1.733 2.834 2.834 0 0 0 1.165 1.164q1.535.782 2.117-.365a1.315 1.315 0 0 0 .068-1.095 5.583 5.583 0 0 0-.9-1.426l-.634-.811q-2.364-2.856-.981-5.574a3.764 3.764 0 0 1 2.528-2.042 4.578 4.578 0 0 1 3.3.376 5.886 5.886 0 0 1 1.856 1.409 4.927 4.927 0 0 1 .987 2.108l-2.791 1a4.028 4.028 0 0 0-.488-1.284 2.14 2.14 0 0 0-.844-.72 1.57 1.57 0 0 0-1.033-.164 1.069 1.069 0 0 0-.779.616 1.292 1.292 0 0 0-.05 1.1 6.869 6.869 0 0 0 .986 1.539l.625.784q2.272 2.761.946 5.369a4.027 4.027 0 0 1-2.58 2.19 4.832 4.832 0 0 1-3.557-.465Zm15.76 9.682 9.6-11.167 4.105 3.531a4.232 4.232 0 0 1 1.54 2.965 4.085 4.085 0 0 1-1.01 3.1 3.386 3.386 0 0 1-2.6 1.27 3.633 3.633 0 0 1-.622 4.063 4.059 4.059 0 0 1-3.02 1.488 4.63 4.63 0 0 1-3.29-1.2l-4.7-4.044Zm4.08-.13 2.281 1.961a1.841 1.841 0 0 0 1.318.5 1.6 1.6 0 0 0 1.162-.587 1.618 1.618 0 0 0 .42-1.253 1.843 1.843 0 0 0-.695-1.228l-2.281-1.961-2.205 2.564Zm3.869-4.5 1.589 1.366a1.725 1.725 0 0 0 1.264.471 1.654 1.654 0 0 0 1.514-1.777 1.719 1.719 0 0 0-.641-1.18l-1.589-1.366-2.137 2.496Zm2.753 14.062 16.083-3.952-6.828 15.089-2.029-2.441 1.228-2.612-3.633-4.366-2.793.73-2.028-2.441Zm7.491 1.03 2.122 2.552 1.651-3.53Zm6.05 17.478a6.469 6.469 0 0 1-.967-3.032 5.122 5.122 0 0 1 .693-2.835l2.77 1.01a4.214 4.214 0 0 0-.464 1.759 2.834 2.834 0 0 0 .362 1.606q.879 1.481 1.985.824a1.317 1.317 0 0 0 .643-.888 5.586 5.586 0 0 0 0-1.688l-.1-1.026q-.471-3.678 2.153-5.233a3.762 3.762 0 0 1 3.229-.372 4.577 4.577 0 0 1 2.587 2.084 5.881 5.881 0 0 1 .813 2.182 4.943 4.943 0 0 1-.294 2.31l-2.892-.647a4.085 4.085 0 0 0 .275-1.346 2.141 2.141 0 0 0-.327-1.059 1.589 1.589 0 0 0-.785-.693 1.075 1.075 0 0 0-.987.1 1.289 1.289 0 0 0-.633.906 6.849 6.849 0 0 0 .01 1.826l.11 1q.442 3.549-2.073 5.042a4.037 4.037 0 0 1-3.352.47 4.813 4.813 0 0 1-2.753-2.3Zm5.052 9 13.71-5.386 1.1 2.8-6.875 2.7 8.884 2.416 1.273 3.244-8.949-2.414-4.525 8.4-1.372-3.5 4.3-8-6.45 2.534-1.1-2.8Zm5.7 16.242 14.405-3.067 1.875 8.805-2.9.619-1.248-5.864-2.84.606.989 4.646-2.84.605-.989-4.646-2.921.622 1.248 5.864-2.9.618Zm2.757 17.156 11.741-.709-.222-3.665 2.962-.179.625 10.355-2.962.178-.223-3.685-11.741.708-.18-3Zm.3 12.043 14.662 1.394-.512 5.39a4.226 4.226 0 0 1-1.533 2.97 4.082 4.082 0 0 1-3.113.965 3.383 3.383 0 0 1-2.535-1.387 3.627 3.627 0 0 1-3.675 1.839 4.057 4.057 0 0 1-2.962-1.615 4.626 4.626 0 0 1-.918-3.38l.586-6.175Zm2.462 3.256-.285 2.994a1.837 1.837 0 0 0 .35 1.367 1.6 1.6 0 0 0 1.151.61 1.625 1.625 0 0 0 1.265-.38 1.836 1.836 0 0 0 .6-1.276l.285-2.995-3.366-.321Zm5.906.562-.2 2.086a1.735 1.735 0 0 0 .344 1.3 1.654 1.654 0 0 0 2.325.21 1.723 1.723 0 0 0 .594-1.2l.2-2.086Zm-9.89 10.361 12.5 10.867-16.266 3.114.826-3.065 2.841-.5 1.48-5.489-2.205-1.862.826-3.064Zm3.476 6.716-.864 3.205 3.837-.685Zm-9.063 11.537L232.77 171l-1.237 2.742-10.7-4.829-2.423 5.37-2.723-1.229 3.66-8.112Zm-6.316 12.824 12.405 7.941-1.621 2.534-9.889-6.33-3.177 4.962-2.515-1.61 4.8-7.5Zm-130.8 52.827 5.4-13.216 3.784 9.3 9.193-4-5.4 13.217-2.677-1.085 2.856-7-5.438 2.376-2.2-5.5-2.856 7Zm23.688 8.281 2.213-14.1 5.822 8.18 8.026-6-2.212 14.1-2.848-.447 1.171-7.464-4.745 3.562-3.407-4.842-1.171 7.464-2.849-.446Zm23.227 2.6 4.19-7.331-4.661-6.78 3.336-.178 3.217 4.707 2.72-5.023 3.336-.177-3.916 7.237 4.943 6.846-3.336.177-3.506-4.891-2.987 5.236-3.336.177Zm20.777-1.835 2.718-8-5.867-5.769 3.241-.809 4.055 4.008 1.713-5.448 3.241-.809-2.468 7.85 6.157 5.778-3.241.809-4.372-4.134-1.935 5.709-3.242.81Zm21.114-6.405-5.515-13 2.654-1.126 5.516 12.995Z" style="fill:#ddd"/></svg>