<svg xmlns="http://www.w3.org/2000/svg" id="Layer_1" width="387.35" height="338.41" data-name="Layer 1" viewBox="0 0 387.35 338.41"><defs id="defs10"><clipPath id="clippath"><path id="path4" d="M286.24 859.95s70.16-17.64 110.85-26.13l-23.35-62.07-77.89 13.38-27.93 18 18.32 56.81z" class="cls-1"/></clipPath><clipPath id="clippath-1"><path id="path7" d="M305.08 946.31s34.22-18.06 114.55-24.75l2.12 22.44v78.8l-119.55 16.97h-91.34V980.9Z" class="cls-1"/></clipPath><style id="style2">.cls-1{fill:none}.cls-4{fill:#f2bf03}.cls-7{fill:#4dad4f;stroke-width:3px;stroke:#1835b6;stroke-miterlimit:10}.cls-10{fill:#9f2400}.cls-11{fill:#1835b6}.cls-12{fill:#d5e0e2}</style></defs><g id="g544" transform="translate(-56.65 -194.55)"><path id="path278" d="M415.34 268.68a68.5 68.5 0 0 0-36.67-33.61l-78.66-30.66c-16.78-6.54-34.37-9.86-52.29-9.86s-35.51 3.32-52.29 9.86l-78.66 30.66a68.58 68.58 0 0 0-36.67 33.61c-7.61 15.43-9.17 33.02-4.38 49.55 18.83 64.96 44.51 120.6 76.35 165.38 11.33 15.94 25.83 28.4 43.08 37.01 16.17 8.08 34.35 12.34 52.57 12.34s36.4-4.27 52.57-12.34c17.25-8.61 31.75-21.07 43.08-37.01 31.83-44.78 57.52-100.43 76.35-165.38 4.79-16.52 3.23-34.12-4.38-49.55" class="cls-4"/><path id="path280" d="M324.33 470.07c25.22-35.48 52.1-86.42 72.95-158.35 6.54-22.55-5.22-46.37-27.1-54.9l-78.66-30.66a120.65 120.65 0 0 0-87.62 0l-78.66 30.66c-21.88 8.53-33.63 32.34-27.1 54.9 20.85 71.93 47.73 122.88 72.95 158.35 37.47 52.71 115.75 52.71 153.22 0z" style="stroke:#1835b6;stroke-miterlimit:10;fill:#1835b6;stroke-width:34.78px"/><path id="path282" d="M239.61 513.73c-.13 0-.26 0-.39-.02-.86-.07-1.73-.16-2.57-.25a4.485 4.485 0 0 1-3.95-4.94c.27-2.45 2.49-4.23 4.94-3.95.78.09 1.56.16 2.33.23a4.48 4.48 0 0 1 4.08 4.84 4.47 4.47 0 0 1-4.45 4.09zm24.55-1.08a4.475 4.475 0 0 1-.77-8.88c.77-.14 1.54-.28 2.31-.44a4.469 4.469 0 1 1 1.78 8.76c-.84.17-1.69.33-2.54.48-.26.05-.52.07-.78.07zm-50.89-5.04c-.54 0-1.09-.1-1.63-.31-.8-.31-1.6-.64-2.39-.97a4.467 4.467 0 0 1-2.38-5.86 4.467 4.467 0 0 1 5.86-2.38c.72.3 1.44.6 2.17.88 2.3.9 3.44 3.49 2.54 5.79a4.47 4.47 0 0 1-4.17 2.85m76.58-3.41c-1.64 0-3.22-.91-4-2.48-1.1-2.21-.21-4.9 2-6 .7-.35 1.4-.71 2.09-1.08a4.472 4.472 0 0 1 4.21 7.89c-.76.4-1.53.8-2.3 1.19-.64.32-1.32.47-1.99.47zm-100.05-9.99c-.97 0-1.94-.31-2.76-.95-.67-.53-1.35-1.07-2.01-1.62-1.9-1.58-2.17-4.4-.59-6.3s4.4-2.16 6.3-.59q.9.75 1.83 1.47a4.48 4.48 0 0 1 .76 6.28 4.46 4.46 0 0 1-3.52 1.71zm122.22-5.49c-1.19 0-2.38-.47-3.26-1.4a4.47 4.47 0 0 1 .19-6.32c.57-.54 1.13-1.08 1.69-1.63a4.47 4.47 0 0 1 6.3 6.34c-.61.6-1.23 1.21-1.86 1.8a4.48 4.48 0 0 1-3.07 1.22zm-140.85-14.09c-1.4 0-2.78-.65-3.65-1.88l-.07-.1c-.47-.66-.95-1.34-1.43-2.02a4.473 4.473 0 0 1 7.32-5.14c.47.67.94 1.33 1.41 1.99l.06.08c1.43 2.01.96 4.8-1.05 6.24-.79.56-1.69.83-2.59.83m157.9-6.92c-.86 0-1.74-.25-2.51-.77-2.04-1.39-2.58-4.17-1.19-6.21.45-.67.91-1.34 1.36-2.02a4.473 4.473 0 0 1 6.2-1.23 4.473 4.473 0 0 1 1.23 6.2c-.47.69-.93 1.38-1.39 2.07a4.47 4.47 0 0 1-3.7 1.96m-172.89-15.8c-1.5 0-2.97-.76-3.82-2.14-.43-.7-.86-1.41-1.3-2.13a4.473 4.473 0 0 1 1.51-6.14c2.11-1.28 4.86-.6 6.14 1.51.42.7.85 1.39 1.27 2.08a4.47 4.47 0 0 1-1.48 6.15c-.73.45-1.54.66-2.33.66zm187.36-7.14a4.483 4.483 0 0 1-3.86-6.74c.41-.7.82-1.4 1.23-2.11a4.467 4.467 0 0 1 6.11-1.63 4.467 4.467 0 0 1 1.63 6.11c-.42.72-.84 1.44-1.25 2.15a4.47 4.47 0 0 1-3.86 2.21zm-200.81-16.42c-1.6 0-3.15-.86-3.95-2.37-.39-.73-.78-1.46-1.16-2.2a4.47 4.47 0 0 1 1.88-6.04 4.47 4.47 0 0 1 6.04 1.88l1.14 2.16c1.16 2.18.33 4.89-1.85 6.05-.67.36-1.39.53-2.1.53zm213.83-7.37a4.478 4.478 0 0 1-3.98-6.51c.37-.72.74-1.45 1.1-2.18a4.47 4.47 0 0 1 6.01-1.98 4.47 4.47 0 0 1 1.98 6.01c-.37.74-.75 1.48-1.13 2.22a4.47 4.47 0 0 1-3.99 2.44zm-225.9-16.92c-1.69 0-3.3-.96-4.06-2.59-.35-.75-.69-1.5-1.04-2.26a4.475 4.475 0 0 1 2.2-5.93c2.25-1.03 4.9-.04 5.93 2.2l1.02 2.22c1.04 2.24.07 4.9-2.17 5.94-.61.28-1.25.42-1.88.42m237.57-7.57c-.61 0-1.23-.12-1.82-.39a4.47 4.47 0 0 1-2.27-5.9c.33-.74.66-1.49.99-2.24a4.46 4.46 0 0 1 5.89-2.29 4.46 4.46 0 0 1 2.29 5.89c-.33.76-.67 1.52-1.01 2.27a4.47 4.47 0 0 1-4.09 2.65zm-248.37-17.31c-1.77 0-3.44-1.05-4.15-2.79-.31-.77-.62-1.53-.93-2.31-.92-2.29.2-4.9 2.49-5.81 2.29-.92 4.9.2 5.81 2.49.3.76.61 1.52.91 2.27a4.467 4.467 0 0 1-4.14 6.15zm258.8-7.73c-.54 0-1.09-.1-1.62-.31-2.3-.9-3.44-3.49-2.55-5.79.29-.76.59-1.52.88-2.28a4.466 4.466 0 0 1 5.78-2.57c2.31.89 3.46 3.47 2.57 5.78-.3.78-.6 1.55-.9 2.32a4.47 4.47 0 0 1-4.17 2.85zm-268.42-17.63c-1.84 0-3.57-1.15-4.22-2.98-.28-.78-.55-1.56-.82-2.34-.82-2.33.41-4.88 2.74-5.7a4.48 4.48 0 0 1 5.7 2.74l.81 2.31a4.476 4.476 0 0 1-4.21 5.97m277.69-7.86q-.72 0-1.44-.24a4.46 4.46 0 0 1-2.79-5.67c.26-.77.52-1.54.78-2.32a4.48 4.48 0 0 1 5.66-2.82 4.48 4.48 0 0 1 2.82 5.66c-.26.79-.53 1.57-.79 2.35a4.47 4.47 0 0 1-4.23 3.03zm-286.22-17.89c-1.91 0-3.68-1.23-4.27-3.15-.24-.79-.49-1.58-.73-2.37-.72-2.36.61-4.86 2.97-5.58s4.86.61 5.58 2.97l.72 2.34c.73 2.36-.59 4.86-2.95 5.59-.44.14-.88.2-1.32.2m294.43-7.96c-.42 0-.85-.06-1.27-.19a4.474 4.474 0 0 1-3.02-5.56c.23-.78.46-1.56.69-2.35a4.48 4.48 0 0 1 5.55-3.04c2.37.69 3.73 3.18 3.04 5.55-.23.8-.47 1.59-.7 2.38a4.485 4.485 0 0 1-4.29 3.2zM96.4 301.63h-.19a4.48 4.48 0 0 1-4.28-4.66c.04-.9.1-1.81.19-2.71a4.477 4.477 0 0 1 8.91.87c-.07.73-.12 1.48-.16 2.22-.1 2.4-2.08 4.28-4.46 4.28zm301.53-8.23a4.46 4.46 0 0 1-4.35-3.47c-.17-.72-.35-1.44-.56-2.15a4.48 4.48 0 0 1 3.06-5.54c2.37-.69 4.85.68 5.54 3.06.25.86.48 1.75.68 2.62.55 2.41-.95 4.81-3.35 5.36-.34.08-.68.12-1.01.12zm-292.58-16.95c-.93 0-1.87-.29-2.67-.89a4.48 4.48 0 0 1-.92-6.26c.54-.72 1.1-1.44 1.67-2.13a4.473 4.473 0 1 1 6.88 5.72c-.47.57-.93 1.15-1.37 1.75a4.47 4.47 0 0 1-3.59 1.8zm279.19-6.18a4.44 4.44 0 0 1-3.04-1.19c-.54-.5-1.1-1-1.67-1.47a4.483 4.483 0 0 1-.59-6.3c1.58-1.9 4.4-2.16 6.3-.59.69.57 1.38 1.18 2.04 1.79a4.473 4.473 0 0 1 .24 6.32 4.46 4.46 0 0 1-3.28 1.43zm-257.62-9.62c-1.79 0-3.48-1.08-4.17-2.85-.9-2.3.24-4.89 2.54-5.79l2.3-.9c2.3-.9 4.89.24 5.79 2.54s-.24 4.89-2.54 5.79l-2.3.9c-.53.21-1.08.31-1.62.31m233.86-3.02c-.54 0-1.09-.1-1.62-.31l-2.3-.9a4.47 4.47 0 0 1-2.54-5.79 4.47 4.47 0 0 1 5.79-2.54l2.3.9c2.3.9 3.44 3.49 2.54 5.79a4.47 4.47 0 0 1-4.17 2.85m-208.59-6.83c-1.79 0-3.48-1.08-4.17-2.85-.9-2.3.24-4.89 2.54-5.79l2.3-.9c2.3-.9 4.89.24 5.79 2.54s-.24 4.89-2.54 5.79l-2.3.9c-.53.21-1.08.31-1.62.31m183.31-3.02c-.54 0-1.09-.1-1.62-.31l-2.3-.9a4.47 4.47 0 0 1-2.54-5.79 4.47 4.47 0 0 1 5.79-2.54l2.3.9c2.3.9 3.44 3.49 2.54 5.79a4.47 4.47 0 0 1-4.17 2.85m-158.03-6.84c-1.79 0-3.48-1.08-4.17-2.85-.9-2.3.24-4.89 2.54-5.79l2.3-.9c2.3-.9 4.89.24 5.79 2.54s-.24 4.89-2.54 5.79l-2.3.9c-.53.21-1.08.31-1.62.31m132.75-3.02c-.54 0-1.09-.1-1.62-.31l-2.3-.9a4.47 4.47 0 0 1-2.54-5.79 4.47 4.47 0 0 1 5.79-2.54l2.3.9c2.3.9 3.44 3.49 2.54 5.79a4.47 4.47 0 0 1-4.17 2.85m-107.47-6.83c-1.79 0-3.48-1.08-4.17-2.85-.9-2.3.24-4.89 2.54-5.79l1.16-.45c.39-.15.79-.3 1.18-.45 2.31-.87 4.89.29 5.76 2.6s-.29 4.89-2.6 5.76c-.37.14-.73.28-1.09.42l-1.16.45c-.53.21-1.08.31-1.62.31m82.13-2.82c-.46 0-.92-.07-1.38-.22-.75-.24-1.51-.48-2.27-.71a4.476 4.476 0 0 1-2.99-5.57c.71-2.36 3.21-3.71 5.57-2.99.82.25 1.63.5 2.44.76 2.35.76 3.64 3.28 2.88 5.63a4.47 4.47 0 0 1-4.25 3.09zm-56.04-4.38a4.473 4.473 0 0 1-.69-8.89c.84-.13 1.69-.26 2.53-.37 2.45-.34 4.7 1.37 5.04 3.82s-1.37 4.7-3.82 5.04c-.78.11-1.57.22-2.35.35-.24.04-.47.06-.7.06zm29.51-1.02c-.13 0-.27 0-.4-.02q-1.185-.105-2.37-.18c-2.46-.17-4.33-2.3-4.16-4.76s2.3-4.33 4.76-4.16c.85.06 1.7.12 2.55.2a4.473 4.473 0 0 1-.39 8.93z" class="cls-10"/><path id="path284" d="M124.76 354.58c15.04 39.49 33.11 74.18 53.98 103.54 14.92 20.99 38.25 33.03 64.01 33.03s49.09-12.04 64.01-33.03c20.87-29.36 38.95-64.05 53.98-103.54z" class="cls-4"/><g id="g346"><g id="g300"><path id="path286" d="M104.24 421.63c-1.28-1.56-1.51-2.22-1.51-3.02-.02-5.07-.03-7.6-.04-12.67-.08-9.77-7.83-18.68-17.39-20.43-2.9-.51-4.35-.77-7.24-1.3-4.61-.85-8.96.16-12.25 2.85-3.28 2.68-5.08 6.71-5.08 11.37v12.65c0 .8-.22 1.37-1.5 2.48l-2.58 2.23c.02.02.03.04.05.06-.02.02-.03.02-.05.04.02.02.03.04.05.06-.02.02-.03.02-.05.04.02.02.03.04.05.06-.02.02-.03.02-.05.04.02.02.03.04.05.06-.02.02-.03.02-.05.04.02.02.03.04.05.06-.02.02-.03.02-.05.04.02.02.03.04.05.06-.02.02-.03.02-.05.04.02.02.03.04.05.06-.02.02-.03.02-.05.04.02.02.03.04.05.06-.02.02-.03.02-.05.04.02.02.03.04.05.06-.02.02-.03.02-.05.04.02.02.03.04.05.06-.02.02-.03.02-.05.04.02.02.03.04.05.06-.02.02-.03.02-.05.04.02.02.03.04.05.06-.02.02-.03.02-.05.04.02.02.03.04.05.06-.02.02-.03.02-.05.04.02.02.03.04.05.06-.02.02-.03.02-.05.04.02.02.03.04.05.06-.02.02-.03.02-.05.04.02.02.03.04.05.06-.02.02-.03.02-.05.04.02.02.03.04.05.06-.02.02-.03.02-.05.04.02.02.03.04.05.06-.02.02-.03.02-.05.04.02.02.03.04.05.06-.02.02-.03.02-.05.04.02.02.03.04.05.06-.02.02-.03.02-.05.04.02.02.03.04.05.06-.02.02-.03.02-.05.04.02.02.03.04.05.06-.02.02-.03.02-.05.04.02.02.03.04.05.06-.02.02-.03.02-.05.04.02.02.03.04.05.06-.02.02-.03.02-.05.04.02.02.03.04.05.06-.02.02-.03.02-.05.04.02.02.03.04.05.06-.02.02-.03.02-.05.04.02.02.03.04.05.06-.02.02-.03.02-.05.04.02.02.03.04.05.06-.02.02-.03.02-.05.04.02.02.03.04.05.06-.02.02-.03.02-.05.04.02.02.03.04.05.06-.02.02-.03.02-.05.04.02.02.03.04.05.06-.02.02-.03.02-.05.04.02.02.03.04.05.06-.02.02-.03.02-.05.04.02.02.03.04.05.06-.02.02-.03.02-.05.04.02.02.03.04.05.06-.02.02-.03.02-.05.04.02.02.03.04.05.06-.02.02-.03.02-.05.04.02.02.03.04.05.06-.02.02-.03.02-.05.04.02.02.03.04.05.06-.02.02-.03.02-.05.04.02.02.03.04.05.06-.02.02-.03.02-.05.04.02.02.03.04.05.06-.02.02-.03.02-.05.04.02.02.03.04.05.06-.02.02-.03.02-.05.04.02.02.03.04.05.06-.02.02-.03.02-.05.04.02.02.03.04.05.06-.02.02-.03.02-.05.04.02.02.03.04.05.06-.02.02-.03.02-.05.04.02.02.03.04.05.06-.02.02-.03.02-.05.04.02.02.03.04.05.06-.02.02-.03.02-.05.04.02.02.03.04.05.06-.02.02-.03.02-.05.04.02.02.03.04.05.06-.02.02-.03.02-.05.04.02.02.03.04.05.06-.02.02-.03.02-.05.04.02.02.03.04.05.06-.02.02-.03.02-.05.04.02.02.03.04.05.06-.02.02-.03.02-.05.04.02.02.03.04.05.06-.02.02-.03.02-.05.04.02.02.03.04.05.06-.02.02-.03.02-.05.04.02.02.03.04.05.06-.02.02-.03.02-.05.04.02.02.03.04.05.06-.02.02-.03.02-.05.04.02.02.03.04.05.06-.02.02-.03.02-.05.04.02.02.03.04.05.06-.02.02-.03.02-.05.04.02.02.03.04.05.06-.02.02-.03.02-.05.04.02.02.03.04.05.06-.02.02-.03.02-.05.04.02.02.03.04.05.06-.02.02-.03.02-.05.04.02.02.03.04.05.06-.02.02-.03.02-.05.04.02.02.03.04.05.06-.02.02-.03.02-.05.04.02.02.03.04.05.06-.02.02-.03.02-.05.04.02.02.03.04.05.06-.02.02-.03.02-.05.04.02.02.03.04.05.06-.02.02-.03.02-.05.04.02.02.03.04.05.06-.02.02-.03.02-.05.04.02.02.03.04.05.06-.02.02-.03.02-.05.04.02.02.03.04.05.06-.02.02-.03.02-.05.04.02.02.03.04.05.06-.02.02-.03.02-.05.04.02.02.03.04.05.06-.02.02-.03.02-.05.04.02.02.03.04.05.06-.02.02-.03.02-.05.04.02.02.03.04.05.06-.02.02-.03.02-.05.04.02.02.03.04.05.06-.02.02-.03.02-.05.04.02.02.03.04.05.06-.02.02-.03.02-.05.04.02.02.03.04.05.06-.02.02-.03.02-.05.04.02.02.03.04.05.06-.02.02-.03.02-.05.04.02.02.03.04.05.06-.02.02-.03.02-.05.04.02.02.03.04.05.06-.02.02-.03.02-.05.04.02.02.03.04.05.06-.02.02-.03.02-.05.04.02.02.03.04.05.06-.02.02-.03.02-.05.04.02.02.03.04.05.06-.02.02-.03.02-.05.04.02.02.03.04.05.06-.02.02-.03.02-.05.04.02.02.03.04.05.06-.02.02-.03.02-.05.04.02.02.03.04.05.06-.02.02-.03.02-.05.04.02.02.03.04.05.06-.02.02-.03.02-.05.04.02.02.03.04.05.06-.02.02-.03.02-.05.04.02.02.03.04.05.06-.02.02-.03.02-.05.04.02.02.03.04.05.06-.02.02-.03.02-.05.04.02.02.03.04.05.06-.02.02-.03.02-.05.04.02.02.03.04.05.06-.02.02-.03.02-.05.04.02.02.03.04.05.06-.02.02-.03.02-.05.04.02.02.03.04.05.06-.02.02-.03.02-.05.04.02.02.03.04.05.06-.02.02-.03.02-.05.04.02.02.03.04.05.06-.02.02-.03.02-.05.04.02.02.03.04.05.06-.02.02-.03.02-.05.04.02.02.03.04.05.06-.02.02-.03.02-.05.04.02.02.03.04.05.06-.02.02-.03.02-.05.04.02.02.03.04.05.06-.02.02-.03.02-.05.04.02.02.03.04.05.06-.02.02-.03.02-.05.04.02.02.03.04.05.06-.02.02-.03.02-.05.04.02.02.03.04.05.06-.02.02-.03.02-.05.04.02.02.03.04.05.06-.02.02-.03.02-.05.04 1.03 1.32 1.55 1.97 2.58 3.29 1.27 1.62 1.5 2.24 1.5 3.17v12.56c.09 9.77 7.71 19.01 17.33 20.86 2.9.53 4.34.79 7.24 1.3 9.14 2.09 17.45-5.61 17.39-14.63.02-5.01.03-7.52.04-12.54 0-.98.22-1.52 1.47-2.61 1.07-.94 1.6-1.41 2.67-2.35a.3.3 0 0 1-.05-.06c.02-.02.03-.03.05-.04a.3.3 0 0 1-.05-.06c.02-.02.03-.03.05-.04a.3.3 0 0 1-.05-.06c.02-.02.03-.03.05-.04a.3.3 0 0 1-.05-.06c.02-.02.03-.02.05-.04a.3.3 0 0 1-.05-.06c.02-.02.03-.03.05-.04a.3.3 0 0 1-.05-.06c.02-.02.03-.03.05-.04a.3.3 0 0 1-.05-.06c.02-.02.03-.03.05-.04a.3.3 0 0 1-.05-.06c.02-.02.03-.03.05-.04a.3.3 0 0 1-.05-.06c.02-.02.03-.03.05-.04a.3.3 0 0 1-.05-.06c.02-.02.03-.03.05-.04a.3.3 0 0 1-.05-.06c.02-.02.03-.03.05-.04a.3.3 0 0 1-.05-.06c.02-.02.03-.03.05-.04a.3.3 0 0 1-.05-.06c.02-.02.03-.03.05-.04a.3.3 0 0 1-.05-.06c.02-.02.03-.03.05-.04a.3.3 0 0 1-.05-.06c.02-.02.03-.03.05-.04a.3.3 0 0 1-.05-.06c.02-.02.03-.03.05-.04a.3.3 0 0 1-.05-.06c.02-.02.03-.03.05-.04a.3.3 0 0 1-.05-.06c.02-.02.03-.03.05-.04a.3.3 0 0 1-.05-.06c.02-.02.03-.03.05-.04a.3.3 0 0 1-.05-.06c.02-.02.03-.03.05-.04a.3.3 0 0 1-.05-.06c.02-.02.03-.03.05-.04a.3.3 0 0 1-.05-.06c.02-.02.03-.03.05-.04a.3.3 0 0 1-.05-.06c.02-.02.03-.03.05-.04a.3.3 0 0 1-.05-.06c.02-.02.03-.03.05-.04a.3.3 0 0 1-.05-.06c.02-.02.03-.03.05-.04a.3.3 0 0 1-.05-.06c.02-.02.03-.02.05-.04a.3.3 0 0 1-.05-.06c.02-.02.03-.03.05-.04a.3.3 0 0 1-.05-.06c.02-.02.03-.03.05-.04a.3.3 0 0 1-.05-.06c.02-.02.03-.03.05-.04a.3.3 0 0 1-.05-.06c.02-.02.03-.03.05-.04a.3.3 0 0 1-.05-.06c.02-.02.03-.03.05-.04a.3.3 0 0 1-.05-.06c.02-.02.03-.03.05-.04a.3.3 0 0 1-.05-.06c.02-.02.03-.03.05-.04a.3.3 0 0 1-.05-.06c.02-.02.03-.03.05-.04a.3.3 0 0 1-.05-.06c.02-.02.03-.03.05-.04a.3.3 0 0 1-.05-.06c.02-.02.03-.03.05-.04a.3.3 0 0 1-.05-.06c.02-.02.03-.03.05-.04a.3.3 0 0 1-.05-.06c.02-.02.03-.03.05-.04a.3.3 0 0 1-.05-.06c.02-.02.03-.03.05-.04a.3.3 0 0 1-.05-.06c.02-.02.03-.03.05-.04a.3.3 0 0 1-.05-.06c.02-.02.03-.03.05-.04a.3.3 0 0 1-.05-.06c.02-.02.03-.03.05-.04a.3.3 0 0 1-.05-.06c.02-.02.03-.03.05-.04a.3.3 0 0 1-.05-.06c.02-.02.03-.03.05-.04a.3.3 0 0 1-.05-.06c.02-.02.03-.03.05-.04a.3.3 0 0 1-.05-.06c.02-.02.03-.03.05-.04a.3.3 0 0 1-.05-.06c.02-.02.03-.03.05-.04a.3.3 0 0 1-.05-.06c.02-.02.03-.03.05-.04a.3.3 0 0 1-.05-.06c.02-.02.03-.03.05-.04a.3.3 0 0 1-.05-.06c.02-.02.03-.03.05-.04a.3.3 0 0 1-.05-.06c.02-.02.03-.03.05-.04a.3.3 0 0 1-.05-.06c.02-.02.03-.03.05-.04a.3.3 0 0 1-.05-.06c.02-.02.03-.03.05-.04a.3.3 0 0 1-.05-.06c.02-.02.03-.03.05-.04a.3.3 0 0 1-.05-.06c.02-.02.03-.03.05-.04a.3.3 0 0 1-.05-.06c.02-.02.03-.03.05-.04a.3.3 0 0 1-.05-.06c.02-.02.03-.03.05-.04a.3.3 0 0 1-.05-.06c.02-.02.03-.03.05-.04a.3.3 0 0 1-.05-.06c.02-.02.03-.03.05-.04a.3.3 0 0 1-.05-.06c.02-.02.03-.03.05-.04a.3.3 0 0 1-.05-.06c.02-.02.03-.03.05-.04a.3.3 0 0 1-.05-.06c.02-.02.03-.03.05-.04a.3.3 0 0 1-.05-.06c.02-.02.03-.03.05-.04a.3.3 0 0 1-.05-.06c.02-.02.03-.03.05-.04a.3.3 0 0 1-.05-.06c.02-.02.03-.03.05-.04a.3.3 0 0 1-.05-.06c.02-.02.03-.03.05-.04a.3.3 0 0 1-.05-.06c.02-.02.03-.02.05-.04a.3.3 0 0 1-.05-.06c.02-.02.03-.03.05-.04a.3.3 0 0 1-.05-.06c.02-.02.03-.03.05-.04a.3.3 0 0 1-.05-.06c.02-.02.03-.03.05-.04a.3.3 0 0 1-.05-.06c.02-.02.03-.03.05-.04a.3.3 0 0 1-.05-.06c.02-.02.03-.03.05-.04a.3.3 0 0 1-.05-.06c.02-.02.03-.03.05-.04a.3.3 0 0 1-.05-.06c.02-.02.03-.03.05-.04a.3.3 0 0 1-.05-.06c.02-.02.03-.03.05-.04a.3.3 0 0 1-.05-.06c.02-.02.03-.03.05-.04a.3.3 0 0 1-.05-.06c.02-.02.03-.03.05-.04a.3.3 0 0 1-.05-.06c.02-.02.03-.03.05-.04a.3.3 0 0 1-.05-.06c.02-.02.03-.03.05-.04a.3.3 0 0 1-.05-.06c.02-.02.03-.03.05-.04a.3.3 0 0 1-.05-.06c.02-.02.03-.03.05-.04a.3.3 0 0 1-.05-.06c.02-.02.03-.03.05-.04a.3.3 0 0 1-.05-.06c.02-.02.03-.03.05-.04a.3.3 0 0 1-.05-.06c.02-.02.03-.03.05-.04a.3.3 0 0 1-.05-.06c.02-.02.03-.03.05-.04a.3.3 0 0 1-.05-.06c.02-.02.03-.02.05-.04a.3.3 0 0 1-.05-.06c.02-.02.03-.03.05-.04a.3.3 0 0 1-.05-.06c.02-.02.03-.03.05-.04a.3.3 0 0 1-.05-.06c.02-.02.03-.03.05-.04a.3.3 0 0 1-.05-.06c.02-.02.03-.03.05-.04a.3.3 0 0 1-.05-.06c.02-.02.03-.03.05-.04a.3.3 0 0 1-.05-.06c.02-.02.03-.03.05-.04a.3.3 0 0 1-.05-.06c.02-.02.03-.03.05-.04a.3.3 0 0 1-.05-.06c.02-.02.03-.03.05-.04a.3.3 0 0 1-.05-.06c.02-.02.03-.03.05-.04a.3.3 0 0 1-.05-.06c.02-.02.03-.03.05-.04a.3.3 0 0 1-.05-.06c.02-.02.03-.03.05-.04a.3.3 0 0 1-.05-.06c.02-.02.03-.03.05-.04a.3.3 0 0 1-.05-.06c.02-.02.03-.03.05-.04a.3.3 0 0 1-.05-.06c.02-.02.03-.03.05-.04a.3.3 0 0 1-.05-.06c.02-.02.03-.03.05-.04-1.05-1.28-1.58-1.92-2.63-3.2z" class="cls-11"/><path id="path288" d="m139.33 393.9-2.96-.35c-1.61-.19-2.41-.29-4.01-.49-5.94-.74-11.87-1.53-17.8-2.39-1.6-.23-2.4-.35-4-.58v30.09c1.6.24 2.4.35 4 .58.05 0 .1.02.15.02-.08.63-.41 1.2-1.49 2.19-1.05.97-1.58 1.45-2.64 2.41.02.02.03.03.05.06-.02.02-.03.03-.05.04.02.02.03.03.05.06-.02.02-.03.03-.05.04.02.02.03.03.05.06-.02.02-.03.03-.05.04.02.02.03.03.05.06-.02.02-.03.03-.05.04.02.02.03.03.05.06-.02.02-.03.03-.05.04.02.02.03.03.05.06-.02.02-.03.03-.05.04.02.02.03.03.05.06-.02.02-.03.03-.05.04.02.02.03.03.05.06-.02.02-.03.03-.05.04.02.02.03.03.05.06-.02.02-.03.03-.05.04.02.02.03.03.05.06-.02.02-.03.03-.05.04.02.02.03.03.05.06-.02.02-.03.03-.05.04.02.02.03.03.05.06-.02.02-.03.03-.05.04.02.02.03.03.05.06-.02.02-.03.03-.05.04.02.02.03.03.05.06-.02.02-.03.03-.05.04.02.02.03.03.05.06-.02.02-.03.03-.05.04.02.02.03.03.05.06-.02.02-.03.03-.05.04.02.02.03.03.05.06-.02.02-.03.03-.05.04.02.02.03.03.05.06-.02.02-.03.03-.05.04.02.02.03.03.05.06-.02.02-.03.03-.05.04.02.02.03.03.05.06-.02.02-.03.03-.05.04.02.02.03.03.05.06-.02.02-.03.03-.05.04.02.02.03.03.05.06-.02.02-.03.03-.05.04.02.02.03.03.05.06-.02.02-.03.03-.05.04.02.02.03.03.05.06-.02.02-.03.03-.05.04.02.02.03.03.05.06-.02.02-.03.03-.05.04.02.02.03.03.05.06-.02.02-.03.03-.05.04.02.02.03.03.05.06-.02.02-.03.03-.05.04.02.02.03.03.05.06-.02.02-.03.03-.05.04.02.02.03.03.05.06-.02.02-.03.03-.05.04.02.02.03.03.05.06-.02.02-.03.03-.05.04.02.02.03.03.05.06-.02.02-.03.03-.05.04.02.02.03.03.05.06-.02.02-.03.03-.05.04.02.02.03.03.05.06-.02.02-.03.03-.05.04.02.02.03.03.05.06-.02.02-.03.03-.05.04.02.02.03.03.05.06-.02.02-.03.03-.05.04.02.02.03.03.05.06-.02.02-.03.03-.05.04.02.02.03.03.05.06-.02.02-.03.03-.05.04.02.02.03.03.05.06-.02.02-.03.03-.05.04.02.02.03.03.05.06-.02.02-.03.03-.05.04.02.02.03.03.05.06-.02.02-.03.03-.05.04.02.02.03.03.05.06-.02.02-.03.03-.05.04.02.02.03.03.05.06-.02.02-.03.03-.05.04.02.02.03.03.05.06-.02.02-.03.03-.05.04.02.02.03.03.05.06-.02.02-.03.03-.05.04.02.02.03.03.05.06-.02.02-.03.03-.05.04.02.02.03.03.05.06-.02.02-.03.03-.05.04.02.02.03.03.05.06-.02.02-.03.03-.05.04.02.02.03.03.05.06-.02.02-.03.03-.05.04.02.02.03.03.05.06-.02.02-.03.03-.05.04.02.02.03.03.05.06-.02.02-.03.03-.05.04.02.02.03.03.05.06-.02.02-.03.03-.05.04.02.02.03.03.05.06-.02.02-.03.03-.05.04.02.02.03.03.05.06-.02.02-.03.03-.05.04.02.02.03.03.05.06-.02.02-.03.03-.05.04.02.02.03.03.05.06-.02.02-.03.03-.05.04.02.02.03.03.05.06-.02.02-.03.03-.05.04.02.02.03.03.05.06-.02.02-.03.03-.05.04.02.02.03.03.05.06-.02.02-.03.03-.05.04.02.02.03.03.05.06-.02.02-.03.03-.05.04.02.02.03.03.05.06-.02.02-.03.03-.05.04.02.02.03.03.05.06-.02.02-.03.03-.05.04.02.02.03.03.05.06-.02.02-.03.03-.05.04.02.02.03.03.05.06-.02.02-.03.03-.05.04.02.02.03.03.05.06-.02.02-.03.03-.05.04.02.02.03.03.05.06-.02.02-.03.03-.05.04.02.02.03.03.05.06-.02.02-.03.03-.05.04.02.02.03.03.05.06-.02.02-.03.03-.05.04.02.02.03.03.05.06-.02.02-.03.03-.05.04.02.02.03.03.05.06-.02.02-.03.03-.05.04.02.02.03.03.05.06-.02.02-.03.03-.05.04.02.02.03.03.05.06-.02.02-.03.03-.05.04.02.02.03.03.05.06-.02.02-.03.03-.05.04.02.02.03.03.05.06-.02.02-.03.03-.05.04.02.02.03.03.05.06-.02.02-.03.03-.05.04.02.02.03.03.05.06-.02.02-.03.03-.05.04.02.02.03.03.05.06-.02.02-.03.03-.05.04.02.02.03.03.05.06-.02.02-.03.03-.05.04.02.02.03.03.05.06-.02.02-.03.03-.05.04.02.02.03.03.05.06-.02.02-.03.03-.05.04.02.02.03.03.05.06-.02.02-.03.03-.05.04.02.02.03.03.05.06-.02.02-.03.03-.05.04.02.02.03.03.05.06-.02.02-.03.03-.05.04.02.02.03.03.05.06-.02.02-.03.03-.05.04.02.02.03.03.05.06-.02.02-.03.03-.05.04.02.02.03.03.05.06-.02.02-.03.03-.05.04.02.02.03.03.05.06-.02.02-.03.03-.05.04.02.02.03.03.05.06-.02.02-.03.03-.05.04.02.02.03.03.05.06-.02.02-.03.03-.05.04.02.02.03.03.05.06-.02.02-.03.03-.05.04.02.02.03.03.05.06-.02.02-.03.03-.05.04.02.02.03.03.05.06-.02.02-.03.03-.05.04.02.02.03.03.05.06-.02.02-.03.03-.05.04.02.02.03.03.05.06-.02.02-.03.03-.05.04.02.02.03.03.05.06-.02.02-.03.03-.05.04.02.02.03.03.05.06-.02.02-.03.03-.05.04.02.02.03.03.05.06-.02.02-.03.03-.05.04.02.02.03.03.05.06-.02.02-.03.03-.05.04.02.02.03.03.05.06-.02.02-.03.03-.05.04.02.02.03.03.05.06-.02.02-.03.03-.05.04.02.02.03.03.05.06-.02.02-.03.03-.05.04.02.02.03.03.05.06-.02.02-.03.03-.05.04 1.07 1.26 1.61 1.89 2.68 3.15 1.25 1.47 1.47 2.07 1.47 3.04l.05 12.58c.07 9.69 7.82 18.57 17.45 19.84 2.92.36 4.37.54 7.29.88 9.41 1.13 17.52-6.2 17.49-15.64v-12.56c0-.94.23-1.49 1.51-2.72 1.05-1 1.57-1.5 2.61-2.51l-.05-.05.05-.05-.05-.05.05-.05-.05-.05.05-.05-.05-.05.05-.05-.05-.05.05-.05-.05-.05.05-.05-.05-.05.05-.05-.05-.05.05-.05-.05-.05.05-.05-.05-.05.05-.05-.05-.05.05-.05-.05-.05.05-.05-.05-.05.05-.05-.05-.05.05-.05-.05-.05.05-.05-.05-.05.05-.05-.05-.05.05-.05-.05-.05.05-.05-.05-.05.05-.05-.05-.05.05-.05-.05-.05.05-.05-.05-.05.05-.05-.05-.05.05-.05-.05-.05.05-.05-.05-.05.05-.05-.05-.05.05-.05-.05-.05.05-.05-.05-.05.05-.05-.05-.05.05-.05-.05-.05.05-.05-.05-.05.05-.05-.05-.05.05-.05-.05-.05.05-.05-.05-.05.05-.05-.05-.05.05-.05-.05-.05.05-.05-.05-.05.05-.05-.05-.05.05-.05-.05-.05.05-.05-.05-.05.05-.05-.05-.05.05-.05-.05-.05.05-.05-.05-.05.05-.05-.05-.05.05-.05-.05-.05.05-.05-.05-.05.05-.05-.05-.05.05-.05-.05-.05.05-.05-.05-.05.05-.05-.05-.05.05-.05-.05-.05.05-.05-.05-.05.05-.05-.05-.05.05-.05-.05-.05.05-.05-.05-.05.05-.05-.05-.05.05-.05-.05-.05.05-.05-.05-.05.05-.05-.05-.05.05-.05-.05-.05.05-.05-.05-.05.05-.05-.05-.05.05-.05-.05-.05.05-.05-.05-.05.05-.05-.05-.05.05-.05-.05-.05.05-.05-.05-.05.05-.05-.05-.05.05-.05-.05-.05.05-.05-.05-.05.05-.05-.05-.05.05-.05-.05-.05.05-.05-.05-.05.05-.05-.05-.05.05-.05-.05-.05.05-.05-.05-.05.05-.05-.05-.05.05-.05-.05-.05.05-.05-.05-.05.05-.05-.05-.05.05-.05-.05-.05.05-.05-.05-.05.05-.05-.05-.05.05-.05-.05-.05.05-.05-.05-.05.05-.05-.05-.05.05-.05-.05-.05.05-.05-.05-.05.05-.05-.05-.05.05-.05-.05-.05.05-.05-.05-.05.05-.05-.05-.05.05-.05-.05-.05.05-.05-.05-.05.05-.05-.05-.05.05-.05-.05-.05.05-.05-.05-.05.05-.05-.05-.05.05-.05-.05-.05.05-.05-.05-.05.05-.05-.05-.05.05-.05c-1.04-1.2-1.57-1.8-2.61-3.01-1.08-1.25-1.42-1.9-1.5-2.55.05 0 .1 0 .15.01 1.61.16 2.41.23 4.02.39v-30.09c-1.61-.15-2.41-.23-4.02-.39-5.95-.58-11.9-1.22-17.84-1.92z" class="cls-11"/><path id="path290" d="m204.53 398.78-1.99-.1c-.28.35-.42.53-.71.88q-1.59-.51-3.45-.6c-5.03-.27-10.06-.58-15.09-.94-1.22-.09-2.35-.03-3.39.17l-.68-.96-2.02-.15c-2.15-.17-3.22-.25-5.37-.43-1.61-.13-2.42-.2-4.03-.34v39.09c1.61.14 2.42.21 4.03.34 2.46.2 3.69.3 6.16.49-.02.01-.02.02-.04.04l.05.05-.05.05.05.05-.05.05.05.05-.05.05.05.05-.05.05.05.05-.05.05.05.05-.05.05.05.05-.05.05.05.05-.05.05.05.05-.05.05.05.05-.05.05.05.05-.05.05.05.05-.05.05.05.05-.05.05.05.05-.05.05.05.05-.05.05.05.05-.05.05.05.05-.05.05.05.05-.05.05.05.05-.05.05.05.05-.05.05.05.05-.05.05.05.05-.05.05.05.05-.05.05.05.05-.05.05.05.05-.05.05.05.05-.05.05.05.05-.05.05.05.05-.05.05.05.05-.05.05.05.05-.05.05.05.05-.05.05.05.05-.05.05.05.05-.05.05.05.05-.05.05.05.05-.05.05.05.05-.05.05.05.05-.05.05.05.05-.05.05.05.05-.05.05.05.05-.05.05.05.05-.05.05.05.05-.05.05.05.05-.05.05.05.05-.05.05.05.05-.05.05.05.05-.05.05.05.05-.05.05.05.05-.05.05.05.05-.05.05.05.05-.05.05.05.05-.05.05.05.05-.05.05.05.05-.05.05.05.05-.05.05.05.05-.05.05.05.05-.05.05.05.05-.05.05.05.05-.05.05.05.05-.05.05.05.05-.05.05.05.05-.05.05.05.05-.05.05.05.05-.05.05.05.05-.05.05.05.05-.05.05.05.05-.05.05.05.05-.05.05c1.07 1.19 1.6 1.79 2.66 2.97 1.12 1.24 1.4 1.91 1.48 2.44v.01c-.06 0-.12 0-.19-.01l-4.03-.3v30.09l4.03.3c5.98.43 11.95.8 17.94 1.12 1.61.09 2.42.13 4.03.2V449.7l-4.03-.2c-.07 0-.13 0-.19-.01v-.01c.07-.52.36-1.15 1.48-2.25 1.07-1.06 1.6-1.58 2.67-2.64l-.05-.05.05-.05-.05-.05.05-.05-.05-.05.05-.05-.05-.05.05-.05-.05-.05.05-.05-.05-.05.05-.05-.05-.05.05-.05-.05-.05.05-.05-.05-.05.05-.05-.05-.05.05-.05-.05-.05.05-.05-.05-.05.05-.05-.05-.05.05-.05-.05-.05.05-.05-.05-.05.05-.05-.05-.05.05-.05-.05-.05.05-.05-.05-.05.05-.05-.05-.05.05-.05-.05-.05.05-.05-.05-.05.05-.05-.05-.05.05-.05-.05-.05.05-.05-.05-.05.05-.05-.05-.05.05-.05-.05-.05.05-.05-.05-.05.05-.05-.05-.05.05-.05-.05-.05.05-.05-.05-.05.05-.05-.05-.05.05-.05-.05-.05.05-.05-.05-.05.05-.05-.05-.05.05-.05-.05-.05.05-.05-.05-.05.05-.05-.05-.05.05-.05-.05-.05.05-.05-.05-.05.05-.05-.05-.05.05-.05-.05-.05.05-.05-.05-.05.05-.05-.05-.05.05-.05-.05-.05.05-.05-.05-.05.05-.05-.05-.05.05-.05-.05-.05.05-.05-.05-.05.05-.05-.05-.05.05-.05-.05-.05.05-.05-.05-.05.05-.05-.05-.05.05-.05-.05-.05.05-.05-.05-.05.05-.05-.05-.05.05-.05-.05-.05.05-.05-.05-.05.05-.05-.05-.05.05-.05-.05-.05.05-.05-.05-.05.05-.05-.05-.05.05-.05-.05-.05.05-.05-.05-.05.05-.05-.05-.05.05-.05-.05-.05.05-.05-.05-.05.05-.05-.05-.05.05-.05c-.01-.02-.02-.02-.04-.04 2.47.12 3.7.18 6.17.28 1.61.07 2.42.1 4.03.16V399.2c-1.61-.06-2.42-.09-4.03-.16-2.15-.09-3.23-.14-5.38-.24z" class="cls-11"/><path id="path292" d="M254.73 442h-3.59c-.17 1.42-.25 2.13-.42 3.55-.62 5.23-2.34 5.23-3.73 5.23-1.85 0-2.77-.01-4.62-.03.09-.7.43-1.28 1.45-2.35 1.05-1.1 1.57-1.64 2.62-2.74l-.05-.05.05-.05-.05-.05.05-.05-.05-.05.05-.05-.05-.05.05-.05-.05-.05.05-.05-.05-.05.05-.05-.05-.05.05-.05-.05-.05.05-.05-.05-.05.05-.05-.05-.05.05-.05-.05-.05.05-.05-.05-.05.05-.05-.05-.05.05-.05-.05-.05.05-.05-.05-.05.05-.05-.05-.05.05-.05-.05-.05.05-.05-.05-.05.05-.05-.05-.05.05-.05-.05-.05.05-.05-.05-.05.05-.05-.05-.05.05-.05-.05-.05.05-.05-.05-.05.05-.05-.05-.05.05-.05-.05-.05.05-.05-.05-.05.05-.05-.05-.05.05-.05-.05-.05.05-.05-.05-.05.05-.05-.05-.05.05-.05-.05-.05.05-.05-.05-.05.05-.05-.05-.05.05-.05-.05-.05.05-.05-.05-.05.05-.05-.05-.05.05-.05-.05-.05.05-.05-.05-.05.05-.05-.05-.05.05-.05-.05-.05.05-.05-.05-.05.05-.05-.05-.05.05-.05-.05-.05.05-.05-.05-.05.05-.05-.05-.05.05-.05-.05-.05.05-.05-.05-.05.05-.05-.05-.05.05-.05-.05-.05.05-.05-.05-.05.05-.05-.05-.05.05-.05-.05-.05.05-.05-.05-.05.05-.05-.05-.05.05-.05-.05-.05.05-.05-.05-.05.05-.05-.05-.05.05-.05-.05-.05.05-.05-.05-.05.05-.05-.05-.05.05-.05-.05-.05.05-.05-.05-.05.05-.05-.05-.05.05-.05-.05-.05.05-.05-.05-.05.05-.05-.05-.05.05-.05-.05-.05.05-.05-.05-.05.05-.05-.05-.05.05-.05-.05-.05.05-.05-.05-.05.05-.05-.05-.05.05-.05-.05-.05.05-.05-.05-.05.05-.05-.05-.05.05-.05-.05-.05.05-.05-.05-.05.05-.05-.05-.05.05-.05-.05-.05.05-.05-.05-.05.05-.05-.05-.05.05-.05-.05-.05.05-.05-.05-.05.05-.05-.05-.05.05-.05-.05-.05.05-.05-.05-.05.05-.05-.05-.05.05-.05-.05-.05.05-.05-.05-.05.05-.05-.05-.05.05-.05-.05-.05.05-.05-.05-.05.05-.05-.05-.05.05-.05-.05-.05.05-.05-.05-.05.05-.05-.05-.05.05-.05-.05-.05.05-.05-.05-.05.05-.05-.05-.05.05-.05-.05-.05.05-.05-2.62-2.77c-1.04-1.1-1.37-1.72-1.45-2.37v-.05h.14c1.61.01 2.42.02 4.04.02V400.3c-1.61 0-2.42-.01-4.04-.02-5.97-.05-11.95-.15-17.92-.31-1.61-.04-2.42-.07-4.04-.12v30.09c1.61.05 2.42.07 4.04.12h.19v.04c-.08.51-.37 1.18-1.48 2.3-1.07 1.08-1.6 1.62-2.67 2.7l.05.05-.05.05.05.05-.05.05.05.05-.05.05.05.05-.05.05.05.05-.05.05.05.05-.05.05.05.05-.05.05.05.05-.05.05.05.05-.05.05.05.05-.05.05.05.05-.05.05.05.05-.05.05.05.05-.05.05.05.05-.05.05.05.05-.05.05.05.05-.05.05.05.05-.05.05.05.05-.05.05.05.05-.05.05.05.05-.05.05.05.05-.05.05.05.05-.05.05.05.05-.05.05.05.05-.05.05.05.05-.05.05.05.05-.05.05.05.05-.05.05.05.05-.05.05.05.05-.05.05.05.05-.05.05.05.05-.05.05.05.05-.05.05.05.05-.05.05.05.05-.05.05.05.05-.05.05.05.05-.05.05.05.05-.05.05.05.05-.05.05.05.05-.05.05.05.05-.05.05.05.05-.05.05.05.05-.05.05.05.05-.05.05.05.05-.05.05.05.05-.05.05.05.05-.05.05.05.05-.05.05.05.05-.05.05.05.05-.05.05.05.05-.05.05.05.05-.05.05.05.05-.05.05.05.05-.05.05.05.05-.05.05.05.05-.05.05.05.05-.05.05.05.05-.05.05.05.05-.05.05.05.05-.05.05.05.05-.05.05.05.05-.05.05.05.05-.05.05.05.05-.05.05.05.05-.05.05.05.05-.05.05.05.05-.05.05.05.05-.05.05.05.05-.05.05.05.05-.05.05.05.05-.05.05.05.05-.05.05.05.05-.05.05.05.05-.05.05.05.05-.05.05.05.05-.05.05.05.05-.05.05.05.05-.05.05.05.05-.05.05.05.05-.05.05.05.05-.05.05.05.05-.05.05.05.05-.05.05.05.05-.05.05.05.05-.05.05.05.05-.05.05.05.05-.05.05.05.05-.05.05.05.05-.05.05.05.05-.05.05.05.05-.05.05.05.05-.05.05.05.05-.05.05.05.05-.05.05.05.05-.05.05.05.05-.05.05.05.05-.05.05.05.05-.05.05.05.05-.05.05.05.05-.05.05.05.05-.05.05.05.05-.05.05c1.07 1.14 1.6 1.71 2.67 2.85 1.11 1.19 1.4 1.84 1.48 2.36v.02h-.19c-1.61-.04-2.42-.07-4.04-.12v30.09c1.61.05 2.42.07 4.04.12 11.87.28 23.73.38 35.61.3l4.04-.05V441.9l-4.04.05c-2.19.02-3.29.03-5.47.04z" class="cls-11"/><path id="path294" d="M316.6 448.47c-.09-.09-.39-.46-.74-1.6-.17-.55-.33-1.19-.48-1.88.65-.93.97-1.39 1.61-2.32-.02-.01-.03-.02-.05-.03.02-.03.03-.04.05-.07-.02-.01-.03-.02-.05-.03.02-.03.03-.04.05-.06-.02-.01-.03-.02-.05-.03.02-.03.03-.04.05-.07-.02-.01-.03-.02-.05-.03.02-.03.03-.04.05-.07-.02-.01-.03-.02-.05-.03.02-.03.03-.04.05-.06-.02-.01-.03-.02-.05-.03.02-.03.03-.04.05-.07-.02-.01-.03-.02-.05-.03.02-.03.03-.04.05-.07-.02-.01-.03-.02-.05-.03.02-.03.03-.04.05-.06-.02-.01-.03-.02-.05-.03.02-.03.03-.04.05-.07-.02-.01-.03-.02-.05-.03.02-.03.03-.04.05-.06-.02-.01-.03-.02-.05-.03.02-.03.03-.04.05-.06-.02-.01-.03-.02-.05-.03.02-.03.03-.04.05-.07-.02-.01-.03-.02-.05-.03.02-.03.03-.04.05-.06-.02-.01-.03-.02-.05-.03.02-.03.03-.04.05-.06-.02-.01-.03-.02-.05-.03.02-.03.03-.04.05-.06-.02-.01-.03-.02-.05-.03.02-.03.03-.04.05-.06-.02-.01-.03-.02-.05-.03.02-.03.03-.04.05-.06-.02-.01-.03-.02-.05-.03.02-.03.03-.04.05-.06-.02-.01-.03-.02-.05-.03.02-.03.03-.04.05-.06-.02-.01-.03-.02-.05-.03.02-.03.03-.04.05-.07-.02-.01-.03-.02-.05-.03.02-.03.03-.04.05-.06-.02-.01-.03-.02-.05-.03.02-.03.03-.04.05-.06-.02-.01-.03-.02-.05-.03.02-.03.03-.04.05-.06-.02-.01-.03-.02-.05-.03.02-.03.03-.04.05-.06-.02-.01-.03-.02-.05-.03.02-.03.03-.04.05-.07-.02-.01-.03-.02-.05-.03.02-.03.03-.04.05-.07-.02-.01-.03-.02-.05-.03.02-.03.03-.04.05-.06-.02-.01-.03-.02-.05-.03.02-.03.03-.04.05-.06-.02-.01-.03-.02-.05-.03.02-.03.03-.04.05-.07-.02-.01-.03-.02-.05-.03.02-.03.03-.04.05-.06-.02-.01-.03-.02-.05-.03.02-.03.03-.04.05-.07-.02-.01-.03-.02-.05-.03.02-.03.03-.04.05-.06-.02-.01-.03-.02-.05-.03.02-.03.03-.04.05-.06-.02-.01-.03-.02-.05-.03.02-.03.03-.04.05-.06-.02-.01-.03-.02-.05-.03.02-.03.03-.04.05-.06-.02-.01-.03-.02-.05-.03.02-.03.03-.04.05-.06-.02-.01-.03-.02-.05-.03.02-.03.03-.04.05-.06-.02-.01-.03-.02-.05-.03.02-.03.03-.04.05-.06-.02-.01-.03-.02-.05-.03.02-.03.03-.04.05-.06-.02-.01-.03-.02-.05-.03.02-.03.03-.04.05-.06-.02-.01-.03-.02-.05-.03.02-.03.03-.04.05-.06-.02-.01-.03-.02-.05-.03.02-.03.03-.04.05-.07-.02-.01-.03-.02-.05-.03.02-.03.03-.04.05-.06-.02-.01-.03-.02-.05-.03.02-.03.03-.04.05-.07-.02-.01-.03-.02-.05-.03.02-.03.03-.04.05-.07-.02-.01-.03-.02-.05-.03.02-.03.03-.04.05-.06-.02-.01-.03-.02-.05-.03.02-.03.03-.04.05-.07-.02-.01-.03-.02-.05-.03.02-.03.03-.04.05-.07-.02-.01-.03-.02-.05-.03.02-.03.03-.04.05-.06-.02-.01-.03-.02-.05-.03.02-.03.03-.04.05-.07-.02-.01-.03-.02-.05-.03.02-.03.03-.04.05-.07-.02-.01-.03-.02-.05-.03.02-.03.03-.04.05-.06-.02-.01-.03-.02-.05-.03.02-.03.03-.04.05-.07-.02-.01-.03-.02-.05-.03.02-.03.03-.04.05-.06-.02-.01-.03-.02-.05-.03.02-.03.03-.04.05-.06-.02-.01-.03-.02-.05-.03.02-.03.03-.04.05-.06-.02-.01-.03-.02-.05-.03.02-.03.03-.04.05-.06-.02-.01-.03-.02-.05-.03.02-.03.03-.04.05-.06-.02-.01-.03-.02-.05-.03.02-.03.03-.04.05-.06-.02-.01-.03-.02-.05-.03.02-.03.03-.04.05-.06-.02-.01-.03-.02-.05-.03.02-.03.03-.04.05-.07-.02-.01-.03-.02-.05-.03.02-.03.03-.04.05-.06-.02-.01-.03-.02-.05-.03.02-.03.03-.04.05-.07-.02-.01-.03-.02-.05-.03.02-.03.03-.04.05-.07-.02-.01-.03-.02-.05-.03.02-.03.03-.04.05-.06-.02-.01-.03-.02-.05-.03.02-.03.03-.04.05-.06-.02-.01-.03-.02-.05-.03.02-.03.03-.04.05-.06-.02-.01-.03-.02-.05-.03.02-.03.03-.04.05-.06-.02-.01-.03-.02-.05-.03.02-.03.03-.04.05-.07-.02-.01-.03-.02-.05-.03.02-.03.03-.04.05-.07-.02-.01-.03-.02-.05-.03.02-.03.03-.04.05-.06-.02-.01-.03-.02-.05-.03.02-.03.03-.04.05-.06-.02-.01-.03-.02-.05-.03.02-.03.03-.04.05-.06-.02-.01-.03-.02-.05-.03.02-.03.03-.04.05-.06-.02-.01-.03-.02-.05-.03.02-.03.03-.04.05-.06-.02-.01-.03-.02-.05-.03.02-.03.03-.04.05-.06-.02-.01-.03-.02-.05-.03.02-.03.03-.04.05-.06-.02-.01-.03-.02-.05-.03.02-.03.03-.04.05-.06-.02-.01-.03-.02-.05-.03.02-.03.03-.04.05-.06-.02-.01-.03-.02-.05-.03.02-.03.03-.04.05-.07-.02-.01-.03-.02-.05-.03.02-.03.03-.04.05-.06-.02-.01-.03-.02-.05-.03.02-.03.03-.04.05-.06-.02-.01-.03-.02-.05-.03.02-.03.03-.04.05-.07-.02-.01-.03-.02-.05-.03.02-.03.03-.04.05-.06-.02-.01-.03-.02-.05-.03.02-.03.03-.04.05-.07-.02-.01-.03-.02-.05-.03.02-.03.03-.04.05-.07-.02-.01-.03-.02-.05-.03.02-.03.03-.04.05-.06-.02-.01-.03-.02-.05-.03.02-.03.03-.04.05-.07-.02-.01-.03-.02-.05-.03.02-.03.03-.04.05-.07-.02-.01-.03-.02-.05-.03.02-.03.03-.04.05-.06-.02-.01-.03-.02-.05-.03.02-.03.03-.04.05-.07-.02-.01-.03-.02-.05-.03.02-.03.03-.04.05-.06-.02-.01-.03-.02-.05-.03.02-.03.03-.04.05-.06-.02-.01-.03-.02-.05-.03.02-.03.03-.04.05-.07-.02-.01-.03-.02-.05-.03.02-.03.03-.04.05-.06-.02-.01-.03-.02-.05-.03.02-.03.03-.04.05-.06-.02-.01-.03-.02-.05-.03.02-.03.03-.04.05-.06-.02-.01-.03-.02-.05-.03.02-.03.03-.04.05-.06-.02-.01-.03-.02-.05-.03.02-.03.03-.04.05-.06-.02-.01-.03-.02-.05-.03.02-.03.03-.04.05-.06-.02-.01-.03-.02-.05-.03.02-.03.03-.04.05-.06-1.16-.88-1.73-1.32-2.89-2.21-1.09-.83-1.68-1.45-2.03-1.95l.72-.05v-30.09c-1.61.11-2.42.16-4.03.26-8.59.5-17.17.91-25.77 1.23-1.61.06-2.42.08-4.04.13v30.09c.26 0 .38-.01.64-.02-.42.69-1.03 1.33-1.98 2.17-1.14 1-1.71 1.49-2.84 2.49.02.02.03.04.04.06-.02.02-.03.02-.04.04.02.02.03.04.04.06-.02.02-.03.02-.04.04.02.02.03.04.04.06-.02.02-.03.02-.04.04.02.02.03.04.04.06-.02.02-.03.02-.04.04.02.02.03.04.04.06-.02.02-.03.02-.04.04.02.02.03.04.04.06-.02.02-.03.02-.04.04.02.02.03.04.04.06-.02.02-.03.02-.04.04.02.02.03.04.04.06-.02.02-.03.02-.04.04.02.02.03.04.04.06-.02.02-.03.02-.04.04.02.02.03.04.04.06-.02.02-.03.02-.04.04.02.02.03.04.04.06-.02.02-.03.02-.04.04.02.02.03.04.04.06-.02.02-.03.02-.04.04.02.02.03.04.04.06-.02.02-.03.02-.04.04.02.02.03.04.04.06-.02.02-.03.02-.04.04.02.02.03.04.04.06-.02.02-.03.02-.04.04.02.02.03.04.04.06-.02.02-.03.02-.04.04.02.02.03.04.04.06-.02.02-.03.02-.04.04.02.02.03.04.04.06-.02.02-.03.02-.04.04.02.02.03.04.04.06-.02.02-.03.02-.04.04.02.02.03.04.04.06-.02.02-.03.02-.04.04.02.02.03.04.04.06-.02.02-.03.02-.04.04.02.02.03.04.04.06-.02.02-.03.02-.04.04.02.02.03.04.04.06-.02.02-.03.02-.04.04.02.02.03.04.04.06-.02.02-.03.02-.04.04.02.02.03.04.04.06-.02.02-.03.02-.04.04.02.02.03.04.04.06-.02.02-.03.02-.04.04.02.02.03.04.04.06-.02.02-.03.02-.04.04.02.02.03.04.04.06-.02.02-.03.02-.04.04.02.02.03.04.04.06-.02.02-.03.02-.04.04.02.02.03.04.04.06-.02.02-.03.02-.04.04.02.02.03.04.04.06-.02.02-.03.02-.04.04.02.02.03.04.04.06-.02.02-.03.02-.04.04.02.02.03.04.04.06-.02.02-.03.02-.04.04.02.02.03.04.04.06-.02.02-.03.02-.04.04.02.02.03.04.04.06-.02.02-.03.02-.04.04.02.02.03.04.04.06-.02.02-.03.02-.04.04.02.02.03.04.04.06-.02.02-.03.02-.04.04.02.02.03.04.04.06-.02.02-.03.02-.04.04.02.02.03.04.04.06-.02.02-.03.02-.04.04.02.02.03.04.04.06-.02.02-.03.02-.04.04.02.02.03.04.04.06-.02.02-.03.02-.04.04.02.02.03.04.04.06-.02.02-.03.02-.04.04.02.02.03.04.04.06-.02.02-.03.02-.04.04.02.02.03.04.04.06-.02.02-.03.02-.04.04.02.02.03.04.04.06-.02.02-.03.02-.04.04.02.02.03.04.04.06-.02.02-.03.02-.04.04.02.02.03.04.04.06-.02.02-.03.02-.04.04.02.02.03.04.04.06-.02.02-.03.02-.04.04.02.02.03.04.04.06-.02.02-.03.02-.04.04.02.02.03.04.04.06-.02.02-.03.02-.04.04.02.02.03.04.04.06-.02.02-.03.02-.04.04.02.02.03.04.04.06-.02.02-.03.02-.04.04.02.02.03.04.04.06-.02.02-.03.02-.04.04.02.02.03.04.04.06-.02.02-.03.02-.04.04.02.02.03.04.04.06-.02.02-.03.02-.04.04.02.02.03.04.04.06-.02.02-.03.02-.04.04.02.02.03.04.04.06-.02.02-.03.02-.04.04.02.02.03.04.04.06-.02.02-.03.02-.04.04.02.02.03.04.04.06-.02.02-.03.02-.04.04.02.02.03.04.04.06-.02.02-.03.02-.04.04.02.02.03.04.04.06-.02.02-.03.02-.04.04.02.02.03.04.04.06-.02.02-.03.02-.04.04.02.02.03.04.04.06-.02.02-.03.02-.04.04.02.02.03.04.04.06-.02.02-.03.02-.04.04.02.02.03.04.04.06-.02.02-.03.02-.04.04.02.02.03.04.04.06-.02.02-.03.02-.04.04.02.02.03.04.04.06-.02.02-.03.02-.04.04.02.02.03.04.04.06-.02.02-.03.02-.04.04.02.02.03.04.04.06-.02.02-.03.02-.04.04.02.02.03.04.04.06-.02.02-.03.02-.04.04.02.02.03.04.04.06-.02.02-.03.02-.04.04.02.02.03.04.04.06-.02.02-.03.02-.04.04.02.02.03.04.04.06-.02.02-.03.02-.04.04.02.02.03.04.04.06-.02.02-.03.02-.04.04.02.02.03.04.04.06-.02.02-.03.02-.04.04.02.02.03.04.04.06-.02.02-.03.02-.04.04.02.02.03.04.04.06-.02.02-.03.02-.04.04.02.02.03.04.04.06-.02.02-.03.02-.04.04.02.02.03.04.04.06-.02.02-.03.02-.04.04.02.02.03.04.04.06-.02.02-.03.02-.04.04.02.02.03.04.04.06-.02.02-.03.02-.04.04.02.02.03.04.04.06-.02.02-.03.02-.04.04.02.02.03.04.04.06-.02.02-.03.02-.04.04.02.02.03.04.04.06-.02.02-.03.02-.04.04.02.02.03.04.04.06-.02.02-.03.02-.04.04.02.02.03.04.04.06-.02.02-.03.02-.04.04.02.02.03.04.04.06-.02.02-.03.02-.04.04.02.02.03.04.04.06-.02.02-.03.02-.04.04.02.02.03.04.04.06-.02.02-.03.02-.04.04.02.02.03.04.04.06-.02.02-.03.02-.04.04.02.02.03.04.04.06-.02.02-.03.02-.04.04.02.02.03.04.04.06-.02.02-.03.02-.04.04.02.02.03.04.04.06-.02.02-.03.02-.04.04.02.02.03.04.04.06-.02.02-.03.02-.04.04.02.02.03.04.04.06-.02.02-.03.02-.04.04.02.02.03.04.04.06-.02.02-.03.02-.04.04.02.02.03.04.04.06-.02.02-.03.02-.04.04.02.02.03.04.04.06-.02.02-.03.02-.04.04.02.02.03.04.04.06-.02.02-.03.02-.04.04.02.02.03.04.04.06-.02.02-.03.02-.04.04.02.02.03.04.04.06-.02.02-.03.02-.04.04.63.84.94 1.27 1.57 2.11-.07.34-.14.69-.21 1.06-.05.26-.09.45-.12.61-.26 1.14-.62 1.65-.77 1.82-.13.14-.17.16-.35.17l-4.04.1v30.09c1.61-.03 2.42-.05 4.04-.1a936 936 0 0 0 21.62-.81c1.1-.05 1.65-.08 2.75-.14a931 931 0 0 0 21.56-1.35v-30.08c-1.61.12-2.42.18-4.03.29h-.21z" class="cls-11"/><path id="path296" d="M373.58 392.38c-.18.02-.26.03-.44.06-1.6.21-2.41.31-4.01.51a1441 1441 0 0 1-21.2 2.42c-1.61.17-2.41.25-4.02.4-5.95.59-11.91 1.12-17.87 1.59-1.61.13-2.42.19-4.03.31v30.08c1.61-.12 2.42-.18 4.03-.31.68-.05 1.18.01 1.39.19.09.08.4.41.61 1.53v.08c.04.18.11.61.21 1.17-.79 1.09-1.19 1.63-1.98 2.71.02.01.03.02.05.04-.02.03-.03.04-.05.06.02.01.03.02.05.04-.02.03-.03.04-.05.06.02.01.03.02.05.04-.02.03-.03.04-.05.06.02.01.03.02.05.04-.02.03-.03.04-.05.06.02.01.03.02.05.04-.02.03-.03.04-.05.06.02.01.03.02.05.04-.02.03-.03.04-.05.06.02.01.03.02.05.04-.02.03-.03.04-.05.06.02.01.03.02.05.04-.02.03-.03.04-.05.06.02.01.03.02.05.04-.02.03-.03.04-.05.06.02.01.03.02.05.04-.02.03-.03.04-.05.06.02.01.03.02.05.04-.02.03-.03.04-.05.06.02.01.03.02.05.04-.02.03-.03.04-.05.06.02.01.03.02.05.04-.02.03-.03.04-.05.06.02.01.03.02.05.04-.02.03-.03.04-.05.06.02.01.03.02.05.04-.02.03-.03.04-.05.06.02.01.03.02.05.04-.02.03-.03.04-.05.06.02.01.03.02.05.04-.02.03-.03.04-.05.06.02.01.03.02.05.04-.02.03-.03.04-.05.06.02.01.03.02.05.04-.02.03-.03.04-.05.06.02.01.03.02.05.04-.02.03-.03.04-.05.06.02.01.03.02.05.04-.02.03-.03.04-.05.06.02.01.03.02.05.04-.02.03-.03.04-.05.06.02.01.03.02.05.04-.02.03-.03.04-.05.06.02.01.03.02.05.04-.02.03-.03.04-.05.06.02.01.03.02.05.04-.02.03-.03.04-.05.06.02.01.03.02.05.04-.02.03-.03.04-.05.06.02.01.03.02.05.04-.02.03-.03.04-.05.06.02.01.03.02.05.04-.02.03-.03.04-.05.06.02.01.03.02.05.04-.02.03-.03.04-.05.06.02.01.03.02.05.04-.02.03-.03.04-.05.06.02.01.03.02.05.04-.02.03-.03.04-.05.06.02.01.03.02.05.04-.02.03-.03.04-.05.06.02.01.03.02.05.04-.02.03-.03.04-.05.06.02.01.03.02.05.04-.02.03-.03.04-.05.06.02.01.03.02.05.04-.02.03-.03.04-.05.06.02.01.03.02.05.04-.02.03-.03.04-.05.06.02.01.03.02.05.04-.02.03-.03.04-.05.06.02.01.03.02.05.04-.02.03-.03.04-.05.06.02.01.03.02.05.04-.02.03-.03.04-.05.06.02.01.03.02.05.04-.02.03-.03.04-.05.06.02.01.03.02.05.04-.02.03-.03.04-.05.06.02.01.03.02.05.04-.02.03-.03.04-.05.06.02.01.03.02.05.04-.02.03-.03.04-.05.06.02.01.03.02.05.04-.02.03-.03.04-.05.06.02.01.03.02.05.04-.02.03-.03.04-.05.06.02.01.03.02.05.04-.02.03-.03.04-.05.06.02.01.03.02.05.04-.02.03-.03.04-.05.06.02.01.03.02.05.04-.02.03-.03.04-.05.06.02.01.03.02.05.04-.02.03-.03.04-.05.06.02.01.03.02.05.04-.02.03-.03.04-.05.06.02.01.03.02.05.04-.02.03-.03.04-.05.06.02.01.03.02.05.04-.02.03-.03.04-.05.06.02.01.03.02.05.04-.02.03-.03.04-.05.06.02.01.03.02.05.04-.02.03-.03.04-.05.06.02.01.03.02.05.04-.02.03-.03.04-.05.06.02.01.03.02.05.04-.02.03-.03.04-.05.06.02.01.03.02.05.04-.02.03-.03.04-.05.06.02.01.03.02.05.04-.02.03-.03.04-.05.06.02.01.03.02.05.04-.02.03-.03.04-.05.06.02.01.03.02.05.04-.02.03-.03.04-.05.06.02.01.03.02.05.04-.02.03-.03.04-.05.06.02.01.03.02.05.04-.02.03-.03.04-.05.06.02.01.03.02.05.04-.02.03-.03.04-.05.06.02.01.03.02.05.04-.02.03-.03.04-.05.06.02.01.03.02.05.04-.02.03-.03.04-.05.06.02.01.03.02.05.04-.02.03-.03.04-.05.06.02.01.03.02.05.04-.02.03-.03.04-.05.06.02.01.03.02.05.04-.02.03-.03.04-.05.06.02.01.03.02.05.04-.02.03-.03.04-.05.06.02.01.03.02.05.04-.02.03-.03.04-.05.06.02.01.03.02.05.04-.02.03-.03.04-.05.06.02.01.03.02.05.04-.02.03-.03.04-.05.06.02.01.03.02.05.04-.02.03-.03.04-.05.06.02.01.03.02.05.04-.02.03-.03.04-.05.06.02.01.03.02.05.04-.02.03-.03.04-.05.06.02.01.03.02.05.04-.02.03-.03.04-.05.06.02.01.03.02.05.04-.02.03-.03.04-.05.06.02.01.03.02.05.04-.02.03-.03.04-.05.06.02.01.03.02.05.04-.02.03-.03.04-.05.06.02.01.03.02.05.04-.02.03-.03.04-.05.06.02.01.03.02.05.04-.02.03-.03.04-.05.06.02.01.03.02.05.04-.02.03-.03.04-.05.06.02.01.03.02.05.04-.02.03-.03.04-.05.06.02.01.03.02.05.04-.02.03-.03.04-.05.06.02.01.03.02.05.04-.02.03-.03.04-.05.06.02.01.03.02.05.04-.02.03-.03.04-.05.06.02.01.03.02.05.04-.02.03-.03.04-.05.06.02.01.03.02.05.04-.02.03-.03.04-.05.06.02.01.03.02.05.04-.02.03-.03.04-.05.06.02.01.03.02.05.04-.02.03-.03.04-.05.06.02.01.03.02.05.04-.02.03-.03.04-.05.06.02.01.03.02.05.04-.02.03-.03.04-.05.06.02.01.03.02.05.04-.02.03-.03.04-.05.06.02.01.03.02.05.04-.02.03-.03.04-.05.06.02.01.03.02.05.04-.02.03-.03.04-.05.06.02.01.03.02.05.04-.02.03-.03.04-.05.06.02.01.03.02.05.04-.02.03-.03.04-.05.06.02.01.03.02.05.04-.02.03-.03.04-.05.06.02.01.03.02.05.04-.02.03-.03.04-.05.06.02.01.03.02.05.04-.02.03-.03.04-.05.06.02.01.03.02.05.04-.02.03-.03.04-.05.06 1.13.9 1.7 1.36 2.83 2.26.89.71 1.46 1.31 1.85 1.95l-1.73.15v30.08a949 949 0 0 0 26.62-2.58c1.61-.18 2.41-.27 4.02-.46.72-.08 1.08-.12 1.79-.21 7.52-.89 15.03-1.85 22.53-2.92 1.6-.23 2.4-.34 4.01-.58v-30.09l-1.71.25c.4-.73.98-1.46 1.87-2.37 1.15-1.17 1.72-1.76 2.87-2.94l-.05-.05.05-.05-.05-.05.05-.05-.05-.05.05-.05-.05-.05.05-.05-.05-.05.05-.05-.05-.05.05-.05-.05-.05.05-.05-.05-.05.05-.05-.05-.05.05-.05-.05-.05.05-.05-.05-.05.05-.05-.05-.05.05-.05-.05-.05.05-.05-.05-.05.05-.05-.05-.05.05-.05-.05-.05.05-.05-.05-.05.05-.05-.05-.05.05-.05-.05-.05.05-.05-.05-.05.05-.05-.05-.05.05-.05-.05-.05.05-.05-.05-.05.05-.05-.05-.05.05-.05-.05-.05.05-.05-.05-.05.05-.05-.05-.05.05-.05-.05-.05.05-.05-.05-.05.05-.05-.05-.05.05-.05-.05-.05.05-.05-.05-.05.05-.05-.05-.05.05-.05-.05-.05.05-.05-.05-.05.05-.05-.05-.05.05-.05-.05-.05.05-.05-.05-.05.05-.05-.05-.05.05-.05-.05-.05.05-.05-.05-.05.05-.05-.05-.05.05-.05-.05-.05.05-.05-.05-.05.05-.05-.05-.05.05-.05-.05-.05.05-.05-.05-.05.05-.05-.05-.05.05-.05-.05-.05.05-.05-.05-.05.05-.05-.05-.05.05-.05-.05-.05.05-.05-.05-.05.05-.05-.05-.05.05-.05-.05-.05.05-.05-.05-.05.05-.05-.05-.05.05-.05-.05-.05.05-.05-.05-.05.05-.05-.05-.05.05-.05-.05-.05.05-.05-.05-.05.05-.05-.05-.05.05-.05-.05-.05.05-.05-.05-.05.05-.05-.05-.05.05-.05-.05-.05.05-.05-.05-.05.05-.05-.05-.05.05-.05-.05-.05.05-.05-.05-.05.05-.05-.05-.05.05-.05-.05-.05.05-.05-.05-.05.05-.05-.05-.05.05-.05-.05-.05.05-.05-.05-.05.05-.05-.05-.05.05-.05-.05-.05.05-.05-.05-.05.05-.05-.05-.05.05-.05-.05-.05.05-.05-.05-.05.05-.05-.05-.05.05-.05-.05-.05.05-.05-.05-.05.05-.05-.05-.05.05-.05-.05-.05.05-.05-.05-.05.05-.05-.05-.05.05-.05-.05-.05.05-.05-.05-.05.05-.05-.05-.05.05-.05-.05-.05.05-.05-.05-.05.05-.05-.05-.05.05-.05-.05-.05.05-.05-.05-.05.05-.05-.05-.05.05-.05-.05-.05.05-.05-.05-.05.05-.05c-.81-.91-1.22-1.36-2.03-2.27.08-.54.12-.81.21-1.34v-.02c.11-.72.31-1.29.53-1.53.21-.23.75-.43 1.43-.53 1.6-.24 2.4-.36 4-.61v-30.09c-1.6.25-2.4.37-4 .61q-8.88 1.32-17.79 2.49z" class="cls-11"/><path id="path298" d="M444 428.79c0-3.65-.62-6.66-1.87-9.14v-38.74c-1.59.33-2.39.49-3.98.81-2.12.43-3.18.64-5.31 1.05-.77.15-1.16.23-1.93.37-.26.38-.38.57-.64.94-2.72-.6-5.78-.18-8.32.24-5.88.97-11.69 4.39-15.36 9.12-3.34 4.3-4.39 9.54-4.66 14.54v9.09c0 4.34.13 7.83 1.2 10.73-.48.08-.72.12-1.2.19v39.81l4-.65c2.13-.35 3.2-.53 5.33-.9.76-.13 1.15-.2 1.91-.33.31-.44.47-.66.78-1.11 3.3.75 6.75.28 9.83-.3 5.4-1.01 10.36-3.9 14-8.01 3.89-4.4 6.13-10.13 6.18-16.02.02-1.02.03-1.53.04-2.55v-11.19z" class="cls-11"/></g><g id="g344"><g id="g306"><path id="path302" d="M78.06 453.65c-8.24-1.62-15.55-9.85-15.34-18.45v-12.56c0-1.75-.69-2.94-2.04-4.66l-1.29-1.64c.52-.45.77-.67 1.29-1.12 1.51-1.31 2.04-2.29 2.04-3.75v-12.65c-.44-8.29 7.54-14.12 15.34-12.61 2.9.53 4.34.79 7.24 1.3 8.47 1.26 15.29 9.74 15.39 18.13l.05 12.65c0 1.46.54 2.64 2.05 4.49.53.64.79.96 1.32 1.6-.53.47-.8.7-1.34 1.17-1.52 1.33-2.03 2.31-2.03 3.91l-.05 12.56c.05 7.99-7.3 14.78-15.39 12.93-2.9-.51-4.35-.77-7.24-1.3m-2.03-21.28c0 2.42 1.95 4.75 4.35 5.18 1.06.19 1.58.29 2.64.47 2.4.43 4.36-1.2 4.36-3.62v-7.7c-.1-1.08-.5-2.19-2.03-4.03-.54-.66-.82-.98-1.36-1.64l1.36-1.16c1.53-1.31 1.93-2.3 2.03-3.37v-7.66c0-2.44-1.96-4.77-4.36-5.19-1.06-.19-1.58-.28-2.64-.47-2.4-.43-4.35 1.19-4.35 3.63v7.66c.1 1.1.49 2.24 2.02 4.1.54.66.82.99 1.36 1.65-.54.46-.82.69-1.36 1.15-1.53 1.3-1.93 2.27-2.02 3.31v7.7z" class="cls-4"/><path id="path304" d="M85.3 389.52c7.37 1.1 13.3 8.51 13.39 15.8.02 5.06.03 7.59.04 12.66 0 2.34 1.08 4.09 2.6 5.95-1.61 1.41-2.6 2.78-2.6 5.21-.02 5.02-.03 7.53-.04 12.55.42 7.38-6.64 12.2-13.39 11.25-2.9-.51-4.35-.77-7.24-1.3-7.15-1.41-13.53-8.58-13.35-16.05v-12.56c0-2.43-1.03-4.16-2.59-6.14 1.52-1.32 2.59-2.68 2.59-5.02v-12.65c.23-6.8 6.22-12.74 13.35-11 2.9.53 4.34.79 7.24 1.3m-4.92 50.04c1.06.19 1.58.29 2.64.47 3.49.62 6.35-1.77 6.35-5.28v-7.79c-.13-1.69-.81-3.29-2.6-5.44 1.79-1.53 2.46-2.91 2.6-4.59v-7.74c0-3.56-2.87-6.92-6.35-7.55-1.06-.19-1.58-.28-2.64-.47-3.49-.63-6.35 1.71-6.35 5.27v7.74c.13 1.74.8 3.35 2.59 5.52-1.79 1.51-2.46 2.87-2.59 4.51V432c0 3.51 2.86 6.93 6.35 7.56m4.92-54.05c-2.9-.51-4.35-.77-7.24-1.3-4.61-.85-8.96.16-12.25 2.85-3.28 2.68-5.08 6.71-5.08 11.37v12.65c0 .8-.22 1.37-1.5 2.48l-2.58 2.23c1.03 1.32 1.55 1.97 2.58 3.29 1.27 1.62 1.5 2.24 1.5 3.17v12.56c.09 9.77 7.71 19.01 17.33 20.86 2.9.53 4.34.79 7.24 1.3 9.14 2.09 17.45-5.61 17.39-14.63.02-5.01.03-7.52.04-12.54 0-.98.22-1.52 1.47-2.61 1.07-.94 1.6-1.41 2.67-2.35-1.05-1.28-1.58-1.92-2.63-3.2-1.28-1.56-1.51-2.22-1.51-3.02-.02-5.07-.03-7.6-.04-12.67-.08-9.77-7.83-18.68-17.39-20.43zm-7.28 29.23v-7.57c0-1.34 1.06-2.23 2.36-1.99 1.06.19 1.58.29 2.64.47 1.3.23 2.36 1.5 2.36 2.84v7.57c-.05.46-.21 1.08-1.46 2.15-.89.76-1.33 1.14-2.22 1.9-.89-1.08-1.33-1.61-2.22-2.69-1.25-1.52-1.41-2.2-1.46-2.68m0 10.39c.05-.43.22-1.05 1.46-2.11.89-.75 1.33-1.13 2.22-1.89.89 1.08 1.33 1.61 2.22 2.69 1.24 1.5 1.41 2.19 1.46 2.63v7.61c0 1.29-1.08 2.19-2.36 1.96-1.06-.19-1.58-.28-2.64-.47-1.28-.23-2.36-1.52-2.36-2.81z" class="cls-11"/></g><g id="g312"><path id="path308" d="M132.22 461.99c-8.25-1.12-15.68-9.03-15.45-17.56l-.05-12.56c0-1.6-.51-2.74-2.04-4.52-.54-.63-.8-.94-1.34-1.57.53-.48.79-.73 1.32-1.21 1.52-1.39 2.06-2.41 2.06-3.87l.05-8.51c0-.6 0-2.23-.35-2.8-.18-.29-.86-.53-1.87-.68-.8-.12-1.2-.17-2-.29v-16.03c7.26 1.05 14.53 2.04 21.81 2.92v16.03l-2.01-.25c-.99-.12-1.67-.06-1.84.16-.34.46-.34 2.05-.34 2.73v8.95c.07 1.07.44 2.16 1.99 3.95l1.37 1.57c-.55.49-.82.74-1.37 1.23-1.64 1.48-1.94 2.51-1.99 3.4v7.73c0 2.42 1.95 4.63 4.34 4.92 1.06.13 1.59.19 2.66.32 2.42.29 4.38-1.45 4.38-3.87v-7.7c-.1-1.07-.5-2.16-2.04-3.92-.55-.62-.82-.94-1.37-1.56.55-.5.82-.74 1.37-1.24 1.54-1.4 1.94-2.42 2.04-3.49v-8.92c0-.68 0-2.26-.34-2.81-.17-.27-.87-.5-1.88-.62-.8-.09-1.2-.14-2.01-.24v-16.03c7.28.86 14.56 1.66 21.86 2.35v16.03c-.8-.08-1.21-.12-2.01-.19-1.46-.14-1.79.11-1.85.2-.22.27-.33 1.06-.33 2.35v8.91c0 1.46.54 2.6 2.07 4.36.52.6.78.9 1.3 1.51-.52.5-.78.75-1.31 1.25-1.37 1.31-2.06 2.29-2.06 4.04v12.56c.02 8.03-7.25 15.18-15.48 13.83-2.92-.34-4.38-.52-7.29-.88z" class="cls-4"/><path id="path310" d="M157.17 399.83v12.02c-3.65-.36-4.19 1.16-4.19 4.35v8.91c0 2.34 1.08 4.03 2.61 5.8-1.58 1.51-2.61 2.93-2.61 5.36v12.56c.37 7.39-6.62 12.56-13.47 12.03-2.92-.34-4.38-.52-7.29-.88-7.56-.72-13.09-8.11-13.44-15.28l-.05-12.56c0-2.43-.99-4.1-2.61-5.99 1.53-1.4 2.61-2.83 2.61-5.17l.05-8.5c0-3.47-.45-5.23-4.22-5.77v-12.02c5.93.85 11.86 1.65 17.8 2.39v12.02c-3.78-.47-4.18 1.18-4.18 4.65v9c.09 1.72.76 3.3 2.56 5.37-1.8 1.62-2.47 3.02-2.56 4.67v7.79c0 3.51 2.83 6.76 6.34 7.19 1.06.13 1.59.19 2.66.32 3.51.42 6.39-2.14 6.39-5.65v-7.79c-.14-1.68-.81-3.24-2.61-5.29 1.8-1.64 2.48-3.05 2.61-4.74v-9c0-3.47-.41-5.21-4.23-5.66v-12.02c5.94.7 11.89 1.33 17.84 1.92m4.01-3.66c-1.61-.15-2.41-.23-4.02-.39-5.95-.58-11.9-1.22-17.84-1.92l-2.96-.35c-1.61-.19-2.41-.29-4.01-.49-5.94-.74-11.87-1.53-17.8-2.39-1.6-.23-2.4-.35-4-.58v20.05c1.6.24 2.4.35 4 .58.07 0 .13.02.19.03.02.27.03.65.03 1.15l-.05 8.49v.02c0 .8-.23 1.38-1.51 2.56-1.05.97-1.58 1.45-2.64 2.41 1.07 1.26 1.61 1.89 2.68 3.15 1.25 1.47 1.47 2.07 1.47 3.04l.05 12.58c.07 9.69 7.82 18.57 17.45 19.84 2.92.36 4.37.54 7.29.88 9.41 1.13 17.52-6.2 17.49-15.64v-12.56c0-.94.23-1.49 1.51-2.72 1.05-1 1.57-1.5 2.61-2.51-1.04-1.2-1.57-1.8-2.61-3.01-1.29-1.49-1.52-2.13-1.52-2.93v-8.91c0-.31 0-.56.02-.75.05 0 .1 0 .16.01 1.61.16 2.41.23 4.02.39v-20.05zm-25.87 17.27c1.61.19 2.41.29 4.02.48.07 0 .13.02.19.02.02.28.03.66.03 1.16v8.83c-.05.46-.21 1.1-1.47 2.24-.89.81-1.34 1.22-2.23 2.02-.89-1.02-1.34-1.54-2.23-2.56-1.27-1.46-1.4-2.11-1.42-2.53v-8.89c0-.51.01-.88.03-1.16.05 0 .09.01.14.02 1.18.15 1.78.22 2.96.36zm-3.14 19.94c.03-.38.16-1 1.42-2.14.89-.81 1.34-1.21 2.23-2.02.89 1.02 1.34 1.54 2.23 2.56 1.25 1.43 1.42 2.11 1.47 2.55v7.61c0 1.29-1.09 2.25-2.38 2.1-1.06-.13-1.59-.19-2.66-.32-1.29-.16-2.33-1.35-2.33-2.66v-7.67z" class="cls-11"/></g><g id="g318"><path id="path314" d="M179.87 466.22v-16.03l2.01.15c1.02.07 1.72-.03 1.89-.27.34-.47.34-2.03.34-2.7v-8.42c0-1.32-.34-2.46-2.06-4.38l-1.33-1.48c.53-.52.8-.77 1.33-1.29 1.72-1.67 2.06-2.8 2.06-4.09v-11.53c-1.24.07-2.05.33-2.54.82-.8.78-1.19 2.53-1.19 5.35v2.01c-4.23-.31-6.34-.48-10.57-.84v-25.04c3.36.28 5.04.42 8.4.67l.95 1.35c1.18-.43 2.55-.59 4.13-.48 5.03.36 10.06.67 15.09.94 1.61.09 2.99.42 4.17 1 .39-.49.59-.74.99-1.23 3.36.16 5.03.24 8.39.37v25.04c-4.25-.17-6.38-.27-10.63-.49v-2.01c0-2.79-.38-4.58-1.17-5.47-.5-.56-1.3-.93-2.52-1.16v11.52c0 1.29.35 2.47 2.06 4.35.53.58.8.87 1.33 1.46-.53.53-.8.79-1.33 1.32-1.72 1.7-2.06 2.8-2.06 4.13v8.42c0 .67 0 2.23.34 2.74.17.26.88.45 1.9.5l2.02.1v16.03c-7.33-.37-14.65-.83-21.97-1.37z" class="cls-4"/><path id="path316" d="M209.91 403.03v21.02c-2.64-.11-3.96-.17-6.6-.3.22-5.38-2.16-8.79-7.73-8.96v13.64c0 1.94.63 3.59 2.62 5.77-1.99 1.96-2.62 3.5-2.62 5.48v8.42c0 3.42.41 5.16 4.25 5.37v12.02c-5.98-.32-11.96-.69-17.94-1.12v-12.02c3.84.28 4.25-1.42 4.25-4.84v-8.42c0-1.98-.63-3.6-2.62-5.81 1.99-1.93 2.62-3.51 2.62-5.45v-13.64c-5.34-.99-8.35 2.89-7.77 8-2.62-.2-3.93-.3-6.55-.52v-21.02c2.15.18 3.22.26 5.37.43.58.82.87 1.23 1.44 2.05 1.45-1.11 3.25-1.2 4.65-1.1 5.03.36 10.06.67 15.09.94 1.45.08 3.25.4 4.66 1.68.6-.74.9-1.12 1.49-1.86 2.15.1 3.23.15 5.38.24m4.04-3.85c-1.61-.06-2.42-.09-4.03-.16-2.15-.09-3.23-.14-5.38-.24l-1.99-.1c-.28.35-.42.53-.71.88q-1.59-.51-3.45-.6c-5.03-.27-10.06-.58-15.09-.94-1.22-.09-2.35-.03-3.39.17l-.68-.96-2.02-.15c-2.15-.17-3.22-.25-5.37-.43-1.61-.13-2.42-.2-4.03-.34v29.05c1.61.14 2.42.21 4.03.34 2.62.22 3.93.32 6.55.52 1.5.11 2.24.17 3.74.28v1.07c0 .6 0 1.29-1.5 2.74-1.07 1.03-1.6 1.55-2.66 2.58 1.07 1.19 1.6 1.79 2.66 2.97 1.5 1.67 1.5 2.3 1.5 2.96v8.42c0 .48-.01.84-.03 1.11-.06 0-.12 0-.19-.01l-4.03-.3v20.05l4.03.3c5.98.43 11.95.8 17.94 1.12 1.61.09 2.42.13 4.03.2v-20.05l-4.03-.2c-.07 0-.13 0-.19-.01-.02-.27-.03-.63-.03-1.12v-8.42c0-.66 0-1.28 1.5-2.77 1.07-1.06 1.6-1.58 2.67-2.64-1.07-1.16-1.6-1.74-2.67-2.91-1.5-1.64-1.5-2.33-1.5-2.93v-1.07c1.48.08 2.22.12 3.7.19 2.64.13 3.96.19 6.6.3 1.61.07 2.42.1 4.03.16v-29.06z" class="cls-11"/></g><g id="g324"><path id="path320" d="M222.58 468.42v-16.03c.81.02 1.21.03 2.02.06 1.02.03 1.71-.1 1.89-.36.35-.5.35-2.1.35-2.71v-8.42c0-1.32-.34-2.45-2.06-4.29-.53-.57-.8-.85-1.33-1.42.53-.54.8-.81 1.33-1.35 1.72-1.74 2.06-2.89 2.06-4.19v-8.42c0-.61 0-2.24-.35-2.77-.18-.26-.86-.43-1.88-.46-.81-.02-1.21-.03-2.02-.06v-16.03c7.32.19 14.63.32 21.95.39v16.03c-.81 0-1.21 0-2.02-.01-.99 0-1.68.13-1.85.38-.34.5-.34 2.09-.34 2.77v8.51c0 1.49.53 2.59 2.03 4.18.52.56.79.83 1.31 1.39-.52.55-.79.82-1.31 1.37-1.52 1.58-2.03 2.65-2.03 4.23v11.54c2.67.03 4 .04 6.67.05 2.55 0 5-.84 5.73-7 .08-.71.13-1.06.21-1.77 3.71-.01 5.57-.02 9.29-.07v24.81c-13.22.13-26.43.02-39.64-.33z" class="cls-4"/><path id="path322" d="M242.51 404.35v12.02c-3.8-.03-4.21 1.67-4.21 5.13v8.51c0 2.34 1.04 3.93 2.58 5.57-1.58 1.65-2.58 3.17-2.58 5.6v13.55c3.47.04 5.21.06 8.69.07 5.02.02 7.1-3.42 7.74-8.78 2.19-.01 3.28-.02 5.47-.04v20.8q-17.805.135-35.61-.3v-12.02c3.8.1 4.25-1.61 4.25-5.03v-8.42c0-1.98-.63-3.57-2.62-5.69 1.99-2.02 2.62-3.63 2.62-5.56v-8.42c0-3.47-.45-5.18-4.25-5.28v-12.02c5.97.16 11.94.27 17.92.31m4.04-3.99c-1.61 0-2.42-.01-4.04-.02-5.97-.05-11.95-.15-17.92-.31-1.61-.04-2.42-.07-4.04-.12v20.05c1.61.05 2.42.07 4.04.12h.19c.02.27.03.65.03 1.16v8.42c0 .6 0 1.29-1.5 2.81-1.07 1.08-1.6 1.62-2.67 2.7 1.07 1.14 1.6 1.71 2.67 2.85 1.5 1.61 1.5 2.23 1.5 2.89v8.42c0 .49-.01.85-.03 1.11h-.19c-1.61-.04-2.42-.07-4.04-.12v20.05c1.61.05 2.42.07 4.04.12 11.87.28 23.73.38 35.61.3l4.04-.05V441.9l-4.04.05c-2.19.02-3.29.03-5.47.04h-3.59c-.17 1.42-.25 2.13-.42 3.55-.62 5.23-2.34 5.23-3.73 5.23-1.86 0-2.79-.01-4.65-.03v-9.53c0-.97.22-1.55 1.48-2.86 1.05-1.1 1.57-1.64 2.62-2.74l-2.62-2.77c-1.26-1.33-1.48-1.96-1.48-2.79v-8.51c0-.51.01-.88.03-1.16h.14c1.61.01 2.42.02 4.04.02v-20.06z" class="cls-11"/></g><g id="g330"><path id="path326" d="M297.25 467.67v-16.03l2.02-.1c.89-.05 1.3-.18 1.45-.25 0-.05.01-.14.01-.25 0-.55-.18-1.45-.36-2.25l-.95-4.76c-2.83.15-4.25.21-7.08.34l-.95 4.85c-.18.82-.36 1.74-.36 2.29 0 .12 0 .2.01.25.15.05.56.15 1.45.11.81-.04 1.21-.05 2.02-.09v16.03c-7.21.31-14.42.56-21.63.76v-16.03l2.02-.05c1.9-.05 2.77-2.03 3.09-3.64.03-.13.06-.33.12-.63 1.39-7.02 1.63-8.69 1.64-9.06.01-.59-.14-1.41-1.15-2.77-.44-.59-.66-.88-1.1-1.47.57-.5.85-.75 1.42-1.25 3.06-2.68 3.29-4.15 3.91-8.04.23-1.43.49-3.06.95-5.08l.02-.08c.07-.26.15-.79.15-1.41 0-1.23-.32-1.22-.97-1.2-.81.03-1.21.04-2.02.07V401.9c9.94-.35 19.87-.82 29.8-1.42v16.03c-.81.05-1.21.08-2.02.13-.66.04-.97.06-.97 1.25 0 .56.13 1.24.19 1.61.65 3.32.97 4.98 1.62 8.3.24 1.3.86 2.46 3.2 4.26.58.44.87.67 1.44 1.11-.44.64-.66.95-1.11 1.59-1.01 1.46-1.15 2.28-1.15 2.9 0 .45.04.8.12 1.13 0 .03.01.05.02.08.26 1.23.47 2.42.67 3.57 1.34 7.49 2.2 8.19 3.99 8.06.81-.06 1.21-.08 2.01-.14v16.03c-7.19.49-14.37.93-21.56 1.31zm.06-34c-.58-2.85-.86-4.28-1.44-7.13-.1.5-.2 1.01-.33 1.68-.23 1.16-.54 2.77-1.1 5.59 1.15-.05 1.72-.08 2.86-.14z" class="cls-4"/><path id="path328" d="M308.76 402.6v12.02c-2.44.15-2.98 1.8-2.98 3.37 0 .72.14 1.48.23 1.97.65 3.33.98 4.99 1.63 8.32.36 1.96 1.4 3.47 3.89 5.39-1.08 1.55-1.54 2.8-1.54 4.1 0 .54.05 1.08.18 1.61.63 3.98.82 13.04 6.64 13.11v12.02c-5.84.41-11.69.76-17.53 1.06v-12.02c2.71-.14 3.48-1.04 3.48-2.62 0-.72-.18-1.66-.41-2.68-.51-2.53-.76-3.79-1.27-6.32-4.16.22-6.24.32-10.4.5-.51 2.58-.76 3.87-1.27 6.44-.23 1.04-.41 2-.41 2.72 0 1.58.77 2.4 3.48 2.28v12.02c-5.86.26-11.73.46-17.59.62v-12.02c2.85-.07 4.43-2.42 5.07-5.28 0-.05 1.81-8.93 1.81-10.1 0-1.31-.45-2.51-1.54-3.96 4.39-3.78 4.41-8.95 5.52-14.23.14-.5.23-1.22.23-1.94 0-1.58-.54-3.22-2.99-3.13v-12.02c8.6-.32 17.18-.73 25.77-1.23m-16.77 33.33c3.11-.14 4.67-.21 7.78-.37-1.3-6.42-2.59-12.83-3.89-19.25-1.31 6.54-2.6 13.08-3.89 19.62m20.8-37.61c-1.61.11-2.42.16-4.03.26-8.59.5-17.17.91-25.77 1.23-1.61.06-2.42.08-4.04.13V420c1.17-.04 1.75-.05 2.92-.09 0 .05-.02.08-.02.11s-.01.05-.02.08c0 .03-.01.05-.02.08-.47 2.08-.75 3.81-.97 5.2-.6 3.73-.74 4.62-3.23 6.8-1.14 1-1.71 1.49-2.84 2.49l2.2 2.95c.67.9.75 1.32.76 1.54-.04.45-.3 2.17-1.6 8.72-.05.26-.09.45-.12.61-.26 1.14-.62 1.65-.77 1.82-.13.14-.17.16-.35.17l-4.04.1v20.06c1.61-.03 2.42-.05 4.04-.1a936 936 0 0 0 21.62-.81c1.1-.05 1.65-.08 2.75-.14a931 931 0 0 0 21.56-1.35v-20.06c-1.61.12-2.42.18-4.03.29h-.21c-.09-.09-.39-.46-.74-1.6-.41-1.3-.72-3.06-1.06-4.93-.21-1.16-.42-2.36-.69-3.62 0-.03-.01-.05-.02-.08 0-.03-.01-.05-.02-.08-.04-.16-.06-.37-.06-.64 0-.19 0-.6.76-1.7.89-1.27 1.33-1.91 2.21-3.19-1.16-.88-1.73-1.32-2.89-2.21-2.08-1.59-2.38-2.41-2.51-3.1v-.04c-.65-3.32-.97-4.98-1.62-8.29-.02-.11-.05-.26-.07-.42 1.16-.07 1.74-.11 2.9-.19v-20.06zM294 446.29c1.51-.07 2.26-.1 3.77-.18.25 1.25.37 1.87.62 3.12v.08c.02.09.04.18.06.26-1.29.07-1.93.1-3.22.16-.78.04-1.16.05-1.94.09.02-.09.04-.17.06-.27v-.08c.25-1.27.37-1.91.62-3.18z" class="cls-11"/></g><g id="g336"><path id="path332" d="M359.65 462.55v-16.03c.8-.09 1.21-.14 2.01-.23.09-.01.16-.02.22-.04.01-.08.03-.2.03-.37 0-.62-.17-1.38-.29-1.93-.03-.13-.09-.42-.09-.42l-2.76-15.57c-.93 5.42-1.86 10.84-2.79 16.25-.03.14-.04.21-.07.35-.13.61-.3 1.45-.3 2.09 0 .15 0 .25.02.32.05 0 .13 0 .22-.01.8-.09 1.21-.13 2.01-.23v16.03q-13.29 1.47-26.61 2.64v-16.03c.8-.07 1.21-.1 2.01-.17.58-.05 1.55-.14 1.55-2.18 0-.26-.03-.51-.06-.73-.4-1.88-.58-3.47-.74-4.87-.4-3.51-.6-5.27-3.57-7.63-.57-.45-.85-.67-1.42-1.13.46-.63.69-.95 1.15-1.59 1.1-1.51 1.26-2.43 1.25-3.16-.02-.84-1.2-8.27-1.41-9.25v-.04c-.47-2.53-1.54-3.39-3.98-3.2-.81.06-1.21.1-2.01.16v-16.03c7.3-.57 14.6-1.21 21.89-1.95v16.03l-2.01.2c-.47.05-.62.16-.63.16 0 0-.11.18-.11.74s.1 1.16.19 1.65q.03.195.06.36c.85 5.04 1.71 10.08 2.56 15.12.94-5.26 1.88-10.52 2.82-15.77.09-.45.27-1.29.27-2.04 0-.47-.09-.64-.1-.66-.01 0-.17-.05-.55-.01-.8.08-1.21.12-2.01.21v-16.03c8.25-.86 16.49-1.8 24.73-2.83v16.03l-2.01.25c-.43.05-.59.16-.61.17 0 0-.08.18-.08.66 0 .75.18 1.55.27 1.98.94 5.04 1.87 10.09 2.81 15.13.85-5.24 1.71-10.48 2.56-15.73.01-.09.03-.22.06-.35.08-.52.19-1.16.19-1.69s-.11-.71-.11-.72c0 0-.16-.07-.62 0-.8.1-1.2.16-2.01.26v-16.03c7.28-.94 14.54-1.94 21.8-3.05v16.03l-2 .3c-2.43.36-3.57 1.53-3.95 4.05-.41 2.68-.62 4.01-1.03 6.69l-.15 1.01c-.12.78-.23 1.46-.23 2.02 0 .69.1 1.48 1.28 2.8l1.18 1.33c-.57.59-.86.88-1.43 1.47-3.04 3.11-3.24 4.93-3.63 8.57-.15 1.41-.39 3.05-.7 4.92-.04.22-.06.49-.06.75 0 2.04.97 1.91 1.54 1.83.8-.11 1.2-.17 2-.29v16.03c-8.84 1.24-17.68 2.39-26.54 3.44z" class="cls-4"/><path id="path334" d="M391.37 393.91v12.02c-3.63.54-5.43 2.73-5.93 6.04-.41 2.67-.62 4-1.03 6.67-.18 1.29-.4 2.35-.4 3.34 0 1.31.36 2.47 1.71 3.99-4.28 3.96-4.19 9.42-4.99 14.74-.04.32-.09.69-.09 1.09 0 1.71.63 3.97 3.55 3.56v12.02c-7.5 1.07-15.01 2.03-22.53 2.92v-12.02c1.8-.21 2.25-1.39 2.25-2.65 0-.99-.27-2.04-.4-2.7-1.58-8.89-3.15-17.79-4.73-26.68l-4.77 27.77c-.13.69-.41 1.84-.41 2.83 0 1.26.45 2.29 2.25 2.09v12.02c-7.52.84-15.05 1.58-22.59 2.24v-12.02c2.93-.26 3.56-2.66 3.56-4.37 0-.41-.05-.76-.09-1.07-.79-4.84-.52-10.4-4.96-13.61 1.22-1.68 1.67-3.03 1.67-4.42 0-.9-1.26-8.76-1.44-9.64-.59-3.19-2.3-4.97-5.96-4.68v-12.02c5.96-.47 11.92-1 17.87-1.59v12.02c-2.25.22-2.75 1.66-2.75 3.1 0 .86.18 1.74.27 2.32 1.49 8.78 2.98 17.56 4.46 26.34 1.62-9.09 3.25-18.19 4.87-27.28.14-.64.32-1.56.32-2.46 0-1.4-.5-2.69-2.66-2.47v-12.02c6.91-.73 13.81-1.52 20.71-2.37v12.02c-2.2.28-2.7 1.69-2.7 3.08 0 .9.18 1.78.32 2.39l4.86 26.17c1.48-9.12 2.97-18.24 4.45-27.36.09-.6.27-1.52.27-2.38 0-1.44-.49-2.77-2.74-2.47v-12.02q8.91-1.155 17.79-2.49m3.99-4.61c-1.6.25-2.4.37-4 .61q-8.88 1.32-17.79 2.49c-.18.02-.26.03-.44.06-1.6.21-2.41.31-4.01.51a1441 1441 0 0 1-21.2 2.42c-1.61.17-2.41.25-4.02.4-5.95.59-11.91 1.12-17.87 1.59-1.61.13-2.42.19-4.03.31v20.06c1.61-.12 2.42-.18 4.03-.31.68-.05 1.18.01 1.39.19.09.08.4.41.61 1.53v.08c.18.9 1.27 7.74 1.37 8.95 0 .29-.07.77-.83 1.81-.92 1.27-1.38 1.9-2.3 3.17 1.13.9 1.7 1.36 2.83 2.26 2.39 1.9 2.52 3.04 2.9 6.41.16 1.43.35 3.05.75 4.99.02.16.03.28.03.4v.04l-3.56.3v20.06a949 949 0 0 0 26.62-2.58c1.61-.18 2.41-.27 4.02-.46.72-.08 1.08-.12 1.79-.21 7.52-.89 15.03-1.85 22.53-2.92 1.6-.23 2.4-.34 4.01-.58v-20.06c-1.42.21-2.13.31-3.55.51v-.04c0-.11.01-.24.03-.41.38-1.98.56-3.6.71-5.04.38-3.5.5-4.67 2.96-7.18 1.15-1.17 1.72-1.76 2.87-2.94-.94-1.06-1.42-1.59-2.36-2.65-.84-.95-.84-1.32-.84-1.62 0-.4.09-1 .2-1.7.05-.33.11-.68.16-1.04.41-2.66.62-3.99 1.03-6.65v-.02c.11-.72.31-1.29.53-1.53.21-.23.75-.43 1.43-.53 1.6-.24 2.4-.36 4-.61v-20.05zm-24.76 23.52 1.58-.2c0 .06-.02.11-.03.16-.02.13-.04.26-.06.37-.27 1.63-.4 2.44-.66 4.07-.3-1.59-.44-2.38-.74-3.98 0-.02 0-.04-.01-.06 0-.02 0-.04-.01-.06-.02-.08-.04-.19-.07-.31zm-25.29 2.87c.63-.06.95-.1 1.58-.16-.02.13-.05.24-.07.33 0 .03 0 .04-.01.06 0 .03 0 .04-.01.06-.3 1.66-.44 2.49-.74 4.14a534 534 0 0 1-.72-4.28c0-.05-.02-.11-.03-.16zm12.56 29.03c.02-.12.05-.23.07-.34v-.1c.32-1.86.48-2.79.8-4.64.32 1.78.47 2.67.79 4.45v.05c0 .02 0 .03.01.05.02.1.04.21.07.32l-1.76.2z" class="cls-11"/></g><g id="g342"><path id="path338" d="M423.78 453.44c-4.15.77-7.45 1-10.42-.07-.46.65-.69.98-1.15 1.64-3.31.57-4.97.85-8.28 1.39v-25.76c4.91-.8 7.37-1.22 12.28-2.08v2.01c0 7.05 2.01 7.37 7.3 6.4 2.38-.44 4.31-2.77 4.31-5.19v-1.22c0-2.01-2.14-3.75-5.33-3.17-1.07.2-2.05.56-3.01 1.12l-2.03 1.18c-.25-.8-.37-1.2-.62-2-.52-1.67-1.76-2.2-3.9-3-1.07-.4-2.29-.86-3.42-1.59-5.32-3.45-5.52-9.76-5.57-15.44-.04-4.21 1.57-9.76 4.18-13.17 3.34-4.37 8.43-7.19 13.84-8.16 2.81-.5 6.21-.91 8.89.16.42-.61.62-.92 1.04-1.54 3.31-.64 4.96-.97 8.26-1.64v25.76c-4.89.99-7.34 1.47-12.23 2.4v-2.01c0-7.12-2.3-7.28-4.66-6.84-4.27.79-5.38 1.89-5.38 5.4 0 3.09 1.48 4.39 4.4 3.86.94-.17 1.48-.46 2.67-1.08.93-.48 1.39-.73 2.32-1.21.23.75.35 1.13.59 1.88.44 1.42 1.01 1.93 2.61 2.34 7.2 1.85 12.1 7.72 11.57 15.38l-.05 2.61c-.02 5.31-2.14 10.46-5.54 14.41-2.92 3.4-8.13 6.52-12.65 7.21z" class="cls-4"/><path id="path340" d="M421.95 388.34c3.08-.56 6.92-1.02 9.25.87.66-.97.99-1.46 1.65-2.44 2.12-.41 3.19-.62 5.31-1.05v21.74c-3.3.66-4.95.99-8.25 1.62 0-6.8-2.01-9.33-6.65-8.47-5.41 1-7.38 3.08-7.38 7.76 0 4.19 2.37 6.25 6.39 5.51 1.39-.25 2.19-.72 3.66-1.49.63 2 1.61 2.85 3.71 3.4 6.54 1.66 10.89 6.86 10.39 13.8-.02 1.03-.03 1.54-.04 2.57-.03 9.37-7.05 17.52-16.2 19.25-4.33.8-7.82 1.06-10.87-.62-.66.94-.99 1.41-1.66 2.36l-5.33.9v-21.74c3.31-.55 4.97-.83 8.28-1.41-.23 6.46 3.02 9.55 9.3 8.06 3.49-.64 6.3-4.06 6.3-7.58v-1.22c0-3.24-3.12-5.56-7.32-4.79-1.16.21-2.41.62-3.76 1.4-1.16-3.75-5.01-3.52-7.96-5.45-4.87-2.93-4.91-8.93-4.84-14-.02-9.62 6.49-17.38 16.02-18.99m0-4c-5.99.89-11.69 4.34-15.36 9.12-3.38 4.31-4.12 9.3-4.66 14.54-.1 6.01.32 13.56 6.31 16.89 1.27.83 2.57 1.32 3.72 1.75.46.17.85.32 1.18.46-2.88.5-4.33.74-7.21 1.22l-4 .65v29.78l4-.65c2.13-.35 3.2-.53 5.33-.9.77-.13 1.15-.2 1.91-.33.31-.44.47-.66.78-1.11 3.3.75 6.74.28 9.83-.3 5.41-1.02 10.35-3.9 14-8.01 3.89-4.41 6.13-10.13 6.18-16.02.02-1.02.03-1.53.04-2.55v-.08c0-4.71-1.02-8.36-3.12-11.16-1.76-2.34-4.24-4.05-7.55-5.19l4.82-.95c1.59-.32 2.39-.48 3.98-.81v-29.77c-1.59.33-2.39.49-3.98.81-2.12.43-3.18.64-5.31 1.05-.77.15-1.16.23-1.93.37-.26.38-.38.57-.64.94-2.72-.6-5.74-.23-8.32.24zm.31 25.55c-2.02.37-2.4-.49-2.4-2.21 0-1.55.29-1.99.29-2 0 0 .53-.57 3.1-1.04 1.4-.26 1.65.07 1.79.25.27.34.69 1.2.83 3.33-.48.25-.72.38-1.2.63-.15.08-.22.12-.37.19-1.15.6-1.44.75-2.04.85m-4.03 21.52c.79-.46 1.19-.69 1.98-1.15.73-.43 1.45-.7 2.27-.85 2.07-.38 3.34.63 3.34 1.53v1.22c0 1.31-1.04 2.57-2.31 2.81-.87.16-3.53.64-4.31.1-.21-.14-.83-.81-.97-3.65z" class="cls-11"/></g></g></g><g id="g378"><g id="g352"><path id="path348" d="M390.87 390.82c-.33 0-.66-.07-.98-.22l-38.05-17.74c-.65-.3-1.12-.88-1.28-1.58-.16-.69 0-1.42.45-1.98 18.81-23.39 11.96-37.29 9.15-41.28l-6.22 2.59c-1.96.81-4.02 1.23-6.15 1.23-2.32 0-4.65-.52-6.76-1.5a13.1 13.1 0 0 1-6.81-7.43c-1.2-3.3-1.05-6.88.44-10.07l1.67-3.59c.73-1.58.05-3.46-1.53-4.19l-2.88-1.34c-1.06-.5-1.59-1.7-1.23-2.82.68-2.11.19-2.85-1.01-4.63-.72-1.07-1.61-2.4-2.28-4.23-1.05-2.88-1.2-5.21-1.12-6.76l-15.23-7.1c-1.62-.75-3.05-1.9-4.13-3.32l-.85-1.11a6.54 6.54 0 0 0-2.4-1.93l-45.66-21.29a2.32 2.32 0 0 1-1.12-3.08l5.9-12.64c.26-.56.73-.99 1.31-1.2.26-.09.53-.14.79-.14.34 0 .67.07.98.22l2.28 1.06a5.67 5.67 0 0 1 4.33-2.02c.83 0 1.63.18 2.39.53l4.24 1.98c1.16.54 1.66 1.92 1.12 3.08l-.05.1 55.87 26.05c.98-.34 2.02-.52 3.05-.52 1.16 0 1.96.22 2.1.27.11.03.21.07.31.12l43.14 20.12c1.16.54 1.66 1.92 1.12 3.08l-2.18 4.67 1.71 1.99 9.58.59c1.46.09 2.73.99 3.31 2.34.57 1.35.34 2.88-.61 4-.87 1.02-2.46 2.23-5.16 2.23-.76 0-1.57-.1-2.42-.29-.57-.13-1.1-.2-1.56-.2-.9 0-1.43.26-1.75.58 3.02 3.59 9.66 12.44 10.51 13.58.51.68.61 1.6.25 2.37l-1.72 3.7c12.98 34.37-2.16 65.13-2.81 66.44-.41.81-1.22 1.28-2.07 1.28z" class="cls-11"/><path id="path350" d="M272.49 235.05c.47 0 .95.1 1.41.31l4.24 1.98-1.03 2.2 58.9 27.46c1.18-.58 2.28-.73 3.11-.73.88 0 1.44.17 1.44.17l43.14 20.12-2.81 6.03 3.32 3.87 10.56.66c1.26.08 1.89 1.56 1.08 2.52-.65.76-1.7 1.41-3.39 1.41-.56 0-1.19-.07-1.9-.23-.78-.18-1.47-.26-2.08-.26-3.98 0-4.48 3.32-4.48 3.32 1.91 1.89 11.38 14.55 11.38 14.55l-2.14 4.59c13.39 34.18-2.37 65.48-2.37 65.48l-38.05-17.74c23.83-29.63 8.05-45.55 8.05-45.55l-7.82 3.26a13.67 13.67 0 0 1-11.03-.23c-5.43-2.53-7.78-8.99-5.25-14.42l1.67-3.59c1.28-2.74.09-6-2.65-7.28l-2.88-1.34c1.58-4.88-1.68-5.88-3.32-10.36-1.63-4.49-.77-7.34-.77-7.34l-16.78-7.83c-1.28-.6-2.4-1.5-3.26-2.63l-.85-1.11a8.8 8.8 0 0 0-3.26-2.63l-45.66-21.29 5.9-12.64 4.21 1.96.36-.77a3.35 3.35 0 0 1 3.02-1.93m-.01-4.63c-1.74 0-3.4.57-4.76 1.58l-.87-.41c-.63-.3-1.3-.44-1.96-.44-1.75 0-3.42.99-4.21 2.68l-5.9 12.64a4.643 4.643 0 0 0 2.25 6.17l45.66 21.29c.6.28 1.13.71 1.54 1.24l.85 1.11c1.31 1.72 3.04 3.11 4.99 4.02l13.89 6.48c.07 1.65.4 3.71 1.26 6.07.76 2.09 1.79 3.62 2.53 4.73q1.06 1.58.73 2.62c-.72 2.23.33 4.64 2.46 5.63l2.88 1.34c.26.12.38.32.43.47s.09.38-.03.64l-1.67 3.59c-3.61 7.74-.25 16.98 7.49 20.59 2.41 1.12 5.08 1.72 7.74 1.72 2.43 0 4.8-.47 7.04-1.41l4.38-1.82c2.61 4.96 5.79 17.28-10.01 36.92a4.63 4.63 0 0 0-.9 3.96 4.66 4.66 0 0 0 2.56 3.16l38.05 17.74c.63.3 1.3.44 1.96.44 1.7 0 3.33-.94 4.15-2.55.67-1.33 15.98-32.43 3.25-67.38l1.31-2.82c.72-1.55.53-3.37-.49-4.74-1.39-1.86-4.76-6.34-7.63-10 .34.03.66.04.99.04 2.79 0 5.25-1.08 6.92-3.05a6.14 6.14 0 0 0 .97-6.41 6.16 6.16 0 0 0-5.3-3.75l-8.6-.53-.09-.11 1.55-3.32c.52-1.12.58-2.39.16-3.55a4.62 4.62 0 0 0-2.4-2.62l-43.14-20.12c-.2-.09-.41-.18-.63-.24-.36-.11-1.37-.36-2.77-.36-.96 0-1.93.12-2.87.36l-53.47-24.93a4.65 4.65 0 0 0-2.67-3.93l-4.24-1.98c-1.06-.5-2.2-.75-3.37-.75z" class="cls-4"/></g><path id="path354" d="M370.11 363.91s6.51-11.19 5.72-34.16l7.07-1.24s7.38 21.28.71 41.01" class="cls-10"/><path id="path356" d="M384.88 317.49s-10.99-1.4-18.25 9.18c0 0 2.06-14.4 18.25-9.18" class="cls-12"/><path id="path358" d="m385.18 325.55-6.58-3.07c1.52-.92 3.03-1.61 4.46-2.11l5.08 2.37.28.69c6.33 15.55 5.84 29.98 4.3 39.35-1.67 10.17-4.81 16.61-4.94 16.88l-.82 1.66-22.91-10.71 3.14-2.7 17.92 8.36c2.41-6.01 9.39-27.11.07-50.72" class="cls-12"/><path id="path360" d="M386.86 314.23s-9.18-4.28-18.1.87c0 0 2.52-4.41 10.04-5.56 0 0-5.92-2.29-12.16 4.11l-8.41-3.92s11.34.63 20.01-6.97z" class="cls-12"/><path id="path362" d="m368.66 304.34 7.02-15.05s3.09 4.23.65 9.47c0 0-2.95 5.46-7.67 5.59z" class="cls-12"/><path id="path364" d="M355.22 296.21a3.378 3.378 0 1 0 2.86-6.12l-10.33-4.81 3.92-8.41 20.65 9.63-8.02 17.21-20.65-9.63 1.25-2.68 10.33 4.81z" class="cls-12"/><path id="path366" d="m343.39 279.15 2.35-5.05-4.72-2.2a3.634 3.634 0 0 0-4.83 1.76l-.7 1.51z" class="cls-12"/><path id="path368" d="m341.48 283.25-4.89 10.48-1.63-.76s.89-.66-1.74-3.75c0 0 .03-4.73.24-9.71z" class="cls-12"/><path id="path370" d="M333.28 270.38s-1.71 1.35-2.57 2.86l-64.02-29.85 1.7-3.64 65.04 30.33-.14.3z" class="cls-12"/><path id="path372" d="m329.09 277.47-.56 2.11-16.62-7.75a1.075 1.075 0 1 1 .91-1.95z" class="cls-12"/><circle id="circle374" cx="380.45" cy="352.44" r="4.64" class="cls-12"/><path id="path376" d="M350.93 309.77c-.14.7-.15 1.43-.03 2.14.16.88.61 1.79.2 2.67l-.93 1.99c-1.32 2.82-3.88 2.52-5.1 2.17-.41-.12-.84.09-1.03.48-.21.44-.01.97.43 1.17l1.55.72c3.9.3 6.47-1.44 7.69-2.54.52-.48.93-1.07 1.19-1.72.84-2.09.98-3.78.88-5.01l1.64.76a4.573 4.573 0 0 1 2.21 6.08 6.1 6.1 0 0 1-3.55 3.21l-9.04 3.17c-1.19.42-2.5.35-3.64-.18a5.19 5.19 0 0 1-2.51-6.91l1.98-4.25a7.17 7.17 0 0 1 8.06-3.97z" class="cls-12"/></g><g id="g410"><g id="g384"><path id="path380" d="M104.57 390.82c-.85 0-1.67-.47-2.07-1.28-.66-1.3-15.8-32.06-2.81-66.44l-1.72-3.7c-.36-.78-.27-1.69.25-2.37.85-1.14 7.49-10 10.51-13.59-.32-.31-.86-.57-1.76-.57-.46 0-.98.07-1.56.2-.85.19-1.66.29-2.42.29-2.69 0-4.29-1.21-5.15-2.23a3.84 3.84 0 0 1-.61-4 3.84 3.84 0 0 1 3.31-2.34l9.58-.59 1.7-1.99-2.18-4.67a2.32 2.32 0 0 1 1.12-3.08l43.14-20.12c.1-.05.21-.09.32-.12.15-.04.95-.27 2.1-.27 1.03 0 2.07.18 3.05.52l55.87-26.05-.05-.1a2.32 2.32 0 0 1 1.12-3.08l4.24-1.98c.76-.35 1.56-.53 2.39-.53 1.69 0 3.27.76 4.33 2.02l2.28-1.06c.31-.14.65-.22.98-.22.27 0 .54.05.79.14.58.21 1.05.64 1.31 1.2l5.9 12.64c.54 1.16.04 2.54-1.12 3.08l-45.66 21.29c-.94.44-1.77 1.11-2.4 1.93l-.85 1.11a11.04 11.04 0 0 1-4.13 3.32l-15.23 7.1c.08 1.54-.07 3.88-1.12 6.76-.67 1.83-1.56 3.16-2.28 4.23-1.2 1.78-1.69 2.52-1.01 4.63.36 1.11-.17 2.32-1.23 2.82l-2.88 1.34a3.16 3.16 0 0 0-1.53 4.19l1.67 3.59c3.07 6.58.21 14.43-6.37 17.5-2.1.98-4.44 1.5-6.76 1.5-2.12 0-4.19-.41-6.15-1.23l-6.22-2.59c-2.81 3.98-9.67 17.88 9.15 41.28.45.56.61 1.29.45 1.98s-.63 1.28-1.28 1.58l-38.05 17.74c-.32.15-.65.22-.98.22z" class="cls-11"/><path id="path382" d="M222.95 235.05c1.26 0 2.46.71 3.03 1.93l.36.77 4.21-1.96 5.9 12.64-45.66 21.29c-1.28.6-2.4 1.5-3.26 2.63l-.85 1.11a8.8 8.8 0 0 1-3.26 2.63l-16.78 7.83s.87 2.86-.77 7.34c-1.63 4.49-4.9 5.48-3.32 10.36l-2.88 1.34a5.48 5.48 0 0 0-2.65 7.28l1.67 3.59c2.53 5.43.18 11.89-5.25 14.42a13.67 13.67 0 0 1-11.03.23l-7.82-3.26s-15.78 15.92 8.05 45.55l-38.05 17.74s-15.76-31.3-2.37-65.48l-2.14-4.59s9.47-12.65 11.38-14.55c0 0-.5-3.32-4.48-3.32-.61 0-1.3.08-2.08.26-.71.16-1.34.23-1.9.23-1.69 0-2.74-.65-3.39-1.41-.82-.96-.18-2.44 1.08-2.52l10.56-.66 3.32-3.87-2.81-6.03 43.14-20.12s.56-.17 1.44-.17c.83 0 1.93.15 3.11.73l58.9-27.46-1.03-2.2 4.24-1.98c.46-.21.94-.31 1.41-.31m-.02-4.65c-1.17 0-2.3.25-3.37.75l-4.24 1.98a4.62 4.62 0 0 0-2.4 2.62c-.15.42-.24.87-.27 1.31l-53.48 24.94c-.94-.24-1.9-.36-2.87-.36-1.4 0-2.4.25-2.77.36q-.33.09-.63.24l-43.14 20.12a4.62 4.62 0 0 0-2.4 2.62c-.42 1.16-.37 2.43.16 3.55l1.55 3.32-.09.11-8.6.53a6.14 6.14 0 0 0-5.3 3.75 6.14 6.14 0 0 0 .97 6.41c1.67 1.97 4.13 3.05 6.92 3.05.32 0 .65-.01.99-.04-2.87 3.66-6.24 8.14-7.63 10a4.66 4.66 0 0 0-.49 4.74l1.31 2.82c-12.72 34.94 2.58 66.05 3.25 67.38a4.63 4.63 0 0 0 6.11 2.11l38.05-17.74c1.29-.6 2.24-1.77 2.56-3.16a4.66 4.66 0 0 0-.9-3.96c-15.79-19.64-12.61-31.95-10.01-36.92l4.38 1.82a18.28 18.28 0 0 0 14.78-.31c3.75-1.75 6.6-4.85 8.01-8.74 1.42-3.89 1.23-8.1-.52-11.85l-1.67-3.59a.85.85 0 0 1-.03-.64.8.8 0 0 1 .43-.47l2.88-1.34a4.646 4.646 0 0 0 2.46-5.63q-.34-1.04.73-2.62c.75-1.11 1.77-2.63 2.53-4.73.86-2.37 1.19-4.43 1.26-6.07l13.89-6.48c1.96-.91 3.68-2.3 4.99-4.02l.85-1.11c.4-.53.93-.96 1.54-1.24l45.66-21.29a4.62 4.62 0 0 0 2.4-2.62 4.65 4.65 0 0 0-.15-3.55l-5.9-12.64a4.64 4.64 0 0 0-4.21-2.68c-.66 0-1.32.14-1.96.44l-.87.41a8 8 0 0 0-4.76-1.58" class="cls-4"/></g><path id="path386" d="M125.33 363.91s-6.51-11.19-5.72-34.16l-7.07-1.24s-7.38 21.28-.71 41.01" class="cls-10"/><path id="path388" d="M110.57 317.49s10.99-1.4 18.25 9.18c0 0-2.06-14.4-18.25-9.18" class="cls-12"/><path id="path390" d="m110.26 325.55 6.58-3.07c-1.52-.92-3.03-1.61-4.46-2.11l-5.08 2.37-.28.69c-6.33 15.55-5.84 29.98-4.3 39.35 1.67 10.17 4.81 16.61 4.94 16.88l.82 1.66 22.91-10.71-3.14-2.7-17.92 8.36c-2.41-6.01-9.39-27.11-.07-50.72" class="cls-12"/><path id="path392" d="M108.58 314.23s9.18-4.28 18.1.87c0 0-2.52-4.41-10.04-5.56 0 0 5.92-2.29 12.16 4.11l8.41-3.92s-11.34.63-20.01-6.97z" class="cls-12"/><path id="path394" d="m126.78 304.34-7.02-15.05s-3.09 4.23-.65 9.47c0 0 2.95 5.46 7.67 5.59z" class="cls-12"/><path id="path396" d="M140.22 296.21a3.378 3.378 0 1 1-2.86-6.12l10.33-4.81-3.92-8.41-20.65 9.63 8.02 17.21 20.65-9.63-1.25-2.68-10.33 4.81z" class="cls-12"/><path id="path398" d="m152.05 279.15-2.35-5.05 4.72-2.2c1.82-.85 3.98-.06 4.83 1.76l.7 1.51z" class="cls-12"/><path id="path400" d="m153.96 283.25 4.89 10.48 1.63-.76s-.89-.66 1.74-3.75c0 0-.03-4.73-.24-9.71z" class="cls-12"/><path id="path402" d="M162.17 270.38s1.71 1.35 2.57 2.86l64.02-29.85-1.7-3.64-65.04 30.33.14.3z" class="cls-12"/><path id="path404" d="m166.36 277.47.56 2.11 16.62-7.75a1.075 1.075 0 1 0-.91-1.95z" class="cls-12"/><circle id="circle406" cx="114.99" cy="352.44" r="4.64" class="cls-12"/><path id="path408" d="M144.52 309.77c.14.7.15 1.43.03 2.14-.16.88-.61 1.79-.2 2.67l.93 1.99c1.32 2.82 3.88 2.52 5.1 2.17.41-.12.84.09 1.03.48.21.44.01.97-.43 1.17l-1.55.72c-3.9.3-6.47-1.44-7.69-2.54-.52-.48-.93-1.07-1.19-1.72-.84-2.09-.98-3.78-.88-5.01l-1.64.76a4.573 4.573 0 0 0-2.21 6.08c.7 1.51 1.98 2.67 3.55 3.21l9.04 3.17c1.19.42 2.5.35 3.64-.18 2.6-1.21 3.73-4.3 2.51-6.91l-1.98-4.25a7.17 7.17 0 0 0-8.06-3.97z" class="cls-12"/></g><g id="g422"><path id="path412" d="m191.19 382.12-.02 4.16c0 2.46-2 4.47-4.45 4.47h-2.41c-2.44 0-4.45-2.01-4.45-4.47v-4.16c0-.8-.34-1.31-.86-1.86.51-.54.86-1.06.86-1.83v-4.18c0-2.46 2.01-4.48 4.45-4.48h2.41c2.46 0 4.45 2.03 4.45 4.48l.02 4.18c0 .77.36 1.3.86 1.83-.54.55-.86 1.06-.86 1.86m-3.12-3.53v-2.56c0-1.18-.95-2.13-2.11-2.13h-.88c-1.16 0-2.11.95-2.11 2.13v2.56c.04.57.27 1.06.86 1.67-.6.61-.82 1.1-.86 1.65v2.58c0 1.16.95 2.11 2.11 2.11h.88c1.16 0 2.11-.95 2.11-2.11v-2.58c-.04-.55-.27-1.04-.86-1.65.6-.61.82-1.1.86-1.67" class="cls-10"/><path id="path414" d="M217.97 387.14h-2.19l-2.64-9.96v7.73c0 1.13.13 1.7 1.38 1.7v3.98h-5.9v-3.98c1.27 0 1.4-.57 1.4-1.7v-2.79c0-.66-.21-1.18-.86-1.86.66-.69.86-1.22.86-1.86v-2.78c0-1.15-.13-1.71-1.4-1.71v-3.98h5.64l2.59 10.34 2.59-10.34h5.64v3.98c-1.25 0-1.39.57-1.39 1.71v2.78c0 .64.19 1.18.86 1.86-.67.69-.86 1.21-.86 1.86v2.79c0 1.13.13 1.7 1.39 1.7v3.98h-5.9v-3.98c1.25 0 1.4-.57 1.4-1.7v-7.73l-2.64 9.96z" class="cls-10"/><path id="path416" d="M253.29 373.9c-.8 0-.98.54-.98 1.06 0 .24.04.49.07.66l.54 2.78c.12.66.46 1.18 1.28 1.86-.36.49-.51.89-.51 1.33 0 .18.01.36.06.54.49 2.4.52 4.48 2.19 4.48v3.98h-5.78v-3.98c.89 0 1.15-.28 1.15-.8 0-.24-.06-.55-.13-.89l-.42-2.11h-3.43l-.42 2.11c-.07.34-.13.66-.13.89 0 .52.25.8 1.15.8v3.98h-5.79v-3.98c.94 0 1.46-.76 1.67-1.7 0-.02.6-2.93.6-3.32 0-.43-.15-.83-.51-1.33 1.61-1.37 1.25-2.16 1.82-4.65.04-.16.07-.4.07-.64 0-.52-.18-1.07-.98-1.07v-3.98h8.49v3.98zm-4.25.32c-.86 4.29-.43 2.14-1.28 6.43h2.56z" class="cls-10"/><path id="path418" d="M282.11 379.18v-3.57c0-1.15-.13-1.71-1.4-1.71v-3.98h5.91v3.98c-1.27 0-1.4.57-1.4 1.71v2.81c0 .77.36 1.3.86 1.83-.54.55-.86 1.06-.86 1.86v2.79c0 1.13.13 1.7 1.4 1.7v3.98h-5.91v-3.98c1.27 0 1.4-.57 1.4-1.7v-3.59h-4.63v3.59c0 1.13.13 1.7 1.38 1.7v3.98h-5.9v-3.98c1.25 0 1.4-.57 1.4-1.7v-2.79c0-.66-.21-1.18-.86-1.86.66-.69.86-1.22.86-1.86v-2.78c0-1.15-.15-1.71-1.4-1.71v-3.98h5.9v3.98c-1.25 0-1.38.57-1.38 1.71v3.57z" class="cls-10"/><path id="path420" d="M314.81 373.9c-.8 0-.98.54-.98 1.06 0 .24.04.49.07.66l.54 2.78c.12.66.46 1.18 1.28 1.86-.36.49-.51.89-.51 1.33q0 .27.06.54c.49 2.4.52 4.48 2.19 4.48v3.98h-5.78v-3.98c.89 0 1.15-.28 1.15-.8 0-.24-.06-.55-.13-.89l-.42-2.11h-3.42l-.42 2.11c-.07.34-.13.66-.13.89 0 .52.25.8 1.15.8v3.98h-5.79v-3.98c.94 0 1.46-.76 1.67-1.7 0-.02.6-2.93.6-3.32 0-.43-.15-.83-.51-1.33 1.61-1.37 1.25-2.16 1.82-4.65.04-.16.07-.4.07-.64 0-.52-.18-1.07-.98-1.07v-3.98h8.49v3.98zm-4.24.32c-.86 4.29-.43 2.14-1.28 6.43h2.56z" class="cls-10"/></g><g id="g430"><path id="polygon424" d="m220.89 282.58 9.77 3.71 7.91 69.28h-7.12z" class="cls-4"/><path id="polygon426" d="m274.47 282.58-9.77 3.71-7.91 69.28h7.12z" class="cls-4"/><path id="polygon428" d="m247.68 281.19-.33-.15v.31l-10.56 4.94 8.22 69.28h5.34l8.22-69.28-10.56-4.94v-.31z" class="cls-4"/></g><g id="g486"><g id="g482"><g id="g438"><rect id="rect432" width="7.5" height="5.14" x="179.75" y="307.29" class="cls-4" rx="2.47" ry="2.47"/><rect id="rect434" width="7.5" height="5.14" x="189.25" y="307.29" class="cls-4" rx="2.47" ry="2.47"/><rect id="rect436" width="7.5" height="5.14" x="198.75" y="307.29" class="cls-4" rx="2.47" ry="2.47"/></g><g id="g446"><rect id="rect440" width="5.34" height="5.14" x="181.91" y="299.72" class="cls-4" rx="2.47" ry="2.47"/><rect id="rect442" width="5.34" height="5.14" x="190.33" y="299.72" class="cls-4" rx="2.47" ry="2.47"/><rect id="rect444" width="5.34" height="5.14" x="198.75" y="299.72" class="cls-4" rx="2.47" ry="2.47"/></g><g id="g454"><rect id="rect448" width="8.11" height="5.14" x="178.67" y="321.9" class="cls-4" rx="2.57" ry="2.57"/><rect id="rect450" width="8.11" height="5.14" x="188.94" y="321.9" class="cls-4" rx="2.57" ry="2.57"/><rect id="rect452" width="8.11" height="5.14" x="199.22" y="321.9" class="cls-4" rx="2.57" ry="2.57"/></g><g id="g462"><rect id="rect456" width="8.11" height="5.14" x="178.67" y="314.6" class="cls-4" rx="2.57" ry="2.57"/><rect id="rect458" width="8.11" height="5.14" x="188.94" y="314.6" class="cls-4" rx="2.57" ry="2.57"/><rect id="rect460" width="8.11" height="5.14" x="199.22" y="314.6" class="cls-4" rx="2.57" ry="2.57"/></g><g id="g470"><rect id="rect464" width="8.11" height="5.14" x="178.67" y="329.2" class="cls-4" rx="2.57" ry="2.57"/><rect id="rect466" width="8.11" height="5.14" x="188.94" y="329.2" class="cls-4" rx="2.57" ry="2.57"/><rect id="rect468" width="8.11" height="5.14" x="199.22" y="329.2" class="cls-4" rx="2.57" ry="2.57"/></g><g id="g478"><rect id="rect472" width="8.11" height="5.14" x="178.67" y="336.5" class="cls-4" rx="2.57" ry="2.57"/><rect id="rect474" width="8.11" height="5.14" x="188.94" y="336.5" class="cls-4" rx="2.57" ry="2.57"/><rect id="rect476" width="8.11" height="5.14" x="199.22" y="336.5" class="cls-4" rx="2.57" ry="2.57"/></g><rect id="rect480" width="9.12" height="5.14" x="188.44" y="292.96" class="cls-4" rx="2.47" ry="2.47"/></g><path id="path484" d="M171.13 323.25s16.5 8.38 23.26 24.61c0 0 3.63-6.56 7.98-11.05a9.19 9.19 0 0 1 10.93-1.73c2.52 1.34 5.46 3.47 7.86 6.84 0 0-2.16-1.54-6.37-1.95-2.63-.25-5.1 1.33-6 3.82-.85 2.35-2.08 5.51-3.59 8.68-2.97 6.22-10.82 6.22-15.69 5.41s-8.38-3.25-11.36-12.98c-2.97-9.74.14-10.41-7.03-21.64z" class="cls-7"/></g><g id="g542"><g id="g538"><g id="g494"><rect id="rect488" width="7.5" height="5.14" x="308.19" y="307.29" class="cls-4" rx="2.47" ry="2.47" transform="rotate(180 311.945 309.865)"/><rect id="rect490" width="7.5" height="5.14" x="298.69" y="307.29" class="cls-4" rx="2.47" ry="2.47" transform="rotate(180 302.44 309.865)"/><rect id="rect492" width="7.5" height="5.14" x="289.19" y="307.29" class="cls-4" rx="2.47" ry="2.47" transform="rotate(180 292.94 309.865)"/></g><g id="g502"><rect id="rect496" width="5.34" height="5.14" x="308.19" y="299.72" class="cls-4" rx="2.47" ry="2.47"/><rect id="rect498" width="5.34" height="5.14" x="299.77" y="299.72" class="cls-4" rx="2.47" ry="2.47"/><rect id="rect500" width="5.34" height="5.14" x="291.35" y="299.72" class="cls-4" rx="2.47" ry="2.47"/></g><g id="g510"><rect id="rect504" width="8.11" height="5.14" x="308.66" y="321.9" class="cls-4" rx="2.57" ry="2.57" transform="rotate(180 312.72 324.47)"/><rect id="rect506" width="8.11" height="5.14" x="298.38" y="321.9" class="cls-4" rx="2.57" ry="2.57" transform="rotate(180 302.44 324.47)"/><rect id="rect508" width="8.11" height="5.14" x="288.11" y="321.9" class="cls-4" rx="2.57" ry="2.57" transform="rotate(180 292.165 324.47)"/></g><g id="g518"><rect id="rect512" width="8.11" height="5.14" x="308.66" y="314.6" class="cls-4" rx="2.57" ry="2.57" transform="rotate(180 312.72 317.165)"/><rect id="rect514" width="8.11" height="5.14" x="298.38" y="314.6" class="cls-4" rx="2.57" ry="2.57" transform="rotate(180 302.44 317.165)"/><rect id="rect516" width="8.11" height="5.14" x="288.11" y="314.6" class="cls-4" rx="2.57" ry="2.57" transform="rotate(180 292.165 317.165)"/></g><g id="g526"><rect id="rect520" width="8.11" height="5.14" x="308.66" y="329.2" class="cls-4" rx="2.57" ry="2.57" transform="rotate(180 312.72 331.77)"/><rect id="rect522" width="8.11" height="5.14" x="298.38" y="329.2" class="cls-4" rx="2.57" ry="2.57" transform="rotate(180 302.44 331.77)"/><rect id="rect524" width="8.11" height="5.14" x="288.11" y="329.2" class="cls-4" rx="2.57" ry="2.57" transform="rotate(180 292.165 331.77)"/></g><g id="g534"><rect id="rect528" width="8.11" height="5.14" x="308.66" y="336.5" class="cls-4" rx="2.57" ry="2.57" transform="rotate(180 312.72 339.075)"/><rect id="rect530" width="8.11" height="5.14" x="298.38" y="336.5" class="cls-4" rx="2.57" ry="2.57" transform="rotate(180 302.44 339.075)"/><rect id="rect532" width="8.11" height="5.14" x="288.11" y="336.5" class="cls-4" rx="2.57" ry="2.57" transform="rotate(180 292.165 339.075)"/></g><rect id="rect536" width="9.12" height="5.14" x="297.88" y="292.96" class="cls-4" rx="2.47" ry="2.47" transform="rotate(180 302.44 295.53)"/></g><path id="path540" d="M324.31 323.25s-16.5 8.38-23.26 24.61c0 0-3.63-6.56-7.98-11.05a9.19 9.19 0 0 0-10.93-1.73c-2.52 1.34-5.46 3.47-7.86 6.84 0 0 2.16-1.54 6.37-1.95 2.63-.25 5.1 1.33 6 3.82.85 2.35 2.08 5.51 3.59 8.68 2.97 6.22 10.82 6.22 15.69 5.41s8.38-3.25 11.36-12.98c2.97-9.74-.14-10.41 7.03-21.64z" class="cls-7"/></g></g></svg>