<svg xmlns="http://www.w3.org/2000/svg" id="Layer_1" data-name="Layer 1" version="1.1" width="279.21" height="408.585"><defs id="defs4"><style id="style2">.cls-3{fill:#fff}.cls-11{fill:#dc5000}.cls-6{fill:#a62b00}.cls-8{fill:#f58e5d}.cls-9{fill:#ffc0a6}.cls-10{fill:#0b7648}.cls-12{fill:#e66a30}.cls-14{fill:#bd3c00}</style></defs><path d="M5.745 5.745h267.72v199.36h-.32c.2 3 .32 6 .32 9.11a133.86 133.86 0 0 1-267.72 0c0-3.06.12-6.1.32-9.11h-.32z" id="path170" style="stroke:#f58e5d;stroke-width:11.48999977px;stroke-miterlimit:10"/><circle cx="138.815" cy="214.685" r="89.71" id="circle172" style="fill:#dc5000;stroke:#dc5000;stroke-width:9.43000031px;stroke-miterlimit:10"/><path class="cls-6" d="M106.825 210.445a82.55 82.55 0 0 0-20.45-50.59c-.94.81-1.87 1.65-2.77 2.51a71.78 71.78 0 0 0-22.75 48.08z" id="path174" style="fill:#a62b00"/><path class="cls-6" d="M61.205 223.005a72 72 0 0 0 22.39 44c.91.87 1.83 1.7 2.78 2.52a82.28 82.28 0 0 0 20.14-46.52z" id="path176" style="fill:#a62b00"/><path id="polyline178" style="fill:none;stroke:#0b7648;stroke-width:12.56999969px;stroke-linecap:round;stroke-linejoin:round" transform="translate(-356.795 -168.995)" d="M496.22 294.28v-21.4"/><circle class="cls-8" cx="142.655" cy="385.495" r="23.09" id="circle180" style="fill:#f58e5d"/><path class="cls-8" id="polygon182" style="fill:#f58e5d" transform="translate(-356.795 -168.995)" d="m482.24 539.04 17.22-22.96 17.22 22.96-17.22 17.22z"/><path class="cls-9" d="M142.885 371.835h.25c6.52 0 11.81 5.79 11.81 12.94 0 7.15-5.29 12.93-11.81 12.93h-.25z" id="path184" style="fill:#ffc0a6"/><path class="cls-10" d="M133.205 103.495v-.64c0-16.66 14.8-30.17 33-30.17s33 13.51 33 30.17v.64z" id="path186" style="fill:#0b7648"/><path class="cls-11" d="M241.795 82.105h-.56c-14.58 0-26.4 12.94-26.4 28.91s11.82 28.91 26.4 28.91h.56z" id="path188" style="fill:#dc5000"/><path class="cls-12" d="M241.795 92.225v37.51c-9-.54-16.19-8.73-16.19-18.75s7.17-18.21 16.19-18.76z" id="path190" style="fill:#e66a30"/><path class="cls-11" d="M38.565 82.105h.56c14.58 0 26.4 12.94 26.4 28.91s-11.82 28.91-26.4 28.91h-.56z" id="path192" style="fill:#dc5000"/><path class="cls-12" d="M38.565 92.225v37.51c9-.54 16.19-8.73 16.19-18.75s-7.16-18.21-16.19-18.76z" id="path194" style="fill:#e66a30"/><path class="cls-10" d="M120.515 102.805v-.4c0-10.31-9.16-18.67-20.45-18.67s-20.45 8.36-20.45 18.67v.4z" id="path196" style="fill:#0b7648"/><path d="M185.985 103.105v-.39c0-10.16-9-18.39-20.13-18.39-11.13 0-20.14 8.23-20.14 18.39v.39z" id="path198" style="fill:#228959"/><ellipse class="cls-12" cx="185.375" cy="216.575" rx="25.81" ry="43.44" id="ellipse200" style="fill:#e66a30"/><path class="cls-14" d="M126.925 287.825c6.84-19.08 11-41.17 11.66-64.81h-19.46a96.52 96.52 0 0 1-22.57 53.92 80 80 0 0 0 30.37 10.89z" id="path202" style="fill:#bd3c00"/><path class="cls-14" d="M119.395 210.445h19.19c-.65-25.25-5.33-48.74-13-68.7a79.9 79.9 0 0 0-29 10.68 94.94 94.94 0 0 1 22.81 58.02z" id="path204" style="fill:#bd3c00"/><circle class="cls-8" cx="174.795" cy="172.395" r="4.09" id="circle206" style="fill:#f58e5d"/><circle class="cls-9" cx="195.125" cy="182.405" r="4.09" id="circle208" style="fill:#ffc0a6"/><circle class="cls-8" cx="174.795" cy="195.135" r="4.09" id="circle210" style="fill:#f58e5d"/><circle class="cls-9" cx="195.125" cy="205.145" r="4.09" id="circle212" style="fill:#ffc0a6"/><circle class="cls-8" cx="174.795" cy="217.885" r="4.09" id="circle214" style="fill:#f58e5d"/><circle class="cls-9" cx="195.125" cy="227.895" r="4.09" id="circle216" style="fill:#ffc0a6"/><circle class="cls-8" cx="174.795" cy="240.635" r="4.09" id="circle218" style="fill:#f58e5d"/><circle class="cls-8" cx="174.795" cy="263.605" r="4.09" id="circle220" style="fill:#f58e5d"/><circle class="cls-3" cx="215.465" cy="195.135" r="4.09" id="circle222" style="fill:#fff"/><circle class="cls-3" cx="215.465" cy="217.885" r="4.09" id="circle224" style="fill:#fff"/><circle class="cls-3" cx="215.465" cy="240.635" r="4.09" id="circle226" style="fill:#fff"/><circle class="cls-9" cx="195.125" cy="250.645" r="4.09" id="circle228" style="fill:#ffc0a6"/><path d="M5.745 5.745h267.72v199.36h-.32c.2 3 .32 6 .32 9.11a133.86 133.86 0 0 1-267.72 0c0-3.06.12-6.1.32-9.11h-.32z" id="path230" style="fill:none;stroke:#f58e5d;stroke-width:11.48999977px;stroke-miterlimit:10"/><path class="cls-9" d="M64.205 45.265a16.77 16.77 0 0 1-16.91 16.74c-9.63 0-17.28-7.36-17.28-16.65a16.85 16.85 0 0 1 5.42-12.39 17.37 17.37 0 0 1 12.06-4.5c9.53-.04 16.71 7.17 16.71 16.8zm-26.18 0a9.13 9.13 0 1 0 18.25.15c0-5.52-3.88-9.68-9.05-9.68-5.17 0-9.22 4.01-9.22 9.48z" id="path232" style="fill:#ffc0a6"/><path class="cls-9" d="M76.735 61.335h-7.85v-32.28h10.46c4.26 0 7.36.77 9.48 2.42s3.49 4.64 3.49 8.18c0 4.89-2.08 8.18-6.24 9.82l7.13 11.86h-9.39l-7.06-12.49zm2.47-16.89c3.25 0 5.13-1.65 5.13-4.45a4.31 4.31 0 0 0-4.64-4.51h-3v9z" id="path234" style="fill:#ffc0a6"/><path class="cls-9" d="M116.375 55.005v6.34h-18.35v-32.29h7.85v25.95z" id="path236" style="fill:#ffc0a6"/><path class="cls-9" d="m128.205 56.685-1.4 4.65h-8.38l10.65-32.28h10l10.6 32.28h-8.61l-1.41-4.65zm5.71-18.39-3.71 12.05h7.55z" id="path238" style="fill:#ffc0a6"/><path class="cls-9" d="M160.575 61.335h-7.85v-32.28h7.85l11.76 18.15v-18.15h7.87v32.28h-7.84l-11.76-18.39z" id="path240" style="fill:#ffc0a6"/><path class="cls-9" d="M186.325 29.055h9.44c5.56 0 9 1 12 3.53a15.64 15.64 0 0 1 5.28 12.29 17.19 17.19 0 0 1-5.13 12.73c-2.66 2.42-6.58 3.73-11.23 3.73h-10.36zm7.88 25.84h1.21c5.71 0 9.68-4 9.68-9.77a10.55 10.55 0 0 0-3-7.46 10.08 10.08 0 0 0-6.44-2.32h-1.45z" id="path242" style="fill:#ffc0a6"/><path class="cls-9" d="M250.455 45.265a16.76 16.76 0 0 1-16.89 16.74c-9.63 0-17.28-7.36-17.28-16.65a16.85 16.85 0 0 1 5.42-12.39 17.37 17.37 0 0 1 12.06-4.5c9.53-.04 16.69 7.17 16.69 16.8zm-26.18 0a9.13 9.13 0 1 0 18.25.15c0-5.52-3.87-9.68-9.05-9.68-5.18 0-9.2 4.01-9.2 9.48z" id="path244" style="fill:#ffc0a6"/></svg>