<svg xmlns="http://www.w3.org/2000/svg" id="Layer_1" data-name="Layer 1" version="1.1" width="387.33" height="405.019"><defs id="defs4"><style id="style2">.cls-11,.cls-13,.cls-9{stroke-miterlimit:10}.cls-12{fill:#d50801}.cls-11,.cls-13,.cls-9{stroke:#000}.cls-9{fill:#e29d29;stroke-width:9.96px}.cls-11,.cls-13{fill:none}.cls-11{stroke-width:9.27px}.cls-13{stroke-width:4.9px}</style></defs><path d="M331.65 193.465v-59.54a70.44 70.44 0 0 0-70.36-70.35h-33.22l-22-60.94h-24l-22.29 60.94h-34a70.43 70.43 0 0 0-70.35 70.35v206a32.09 32.09 0 0 0 32.1 32.08h46.62a71.37 71.37 0 0 0 116.92 0h48.51a32.1 32.1 0 0 0 32.07-32.06v-141.21z" id="path170" style="fill:#fff;stroke:#fff;stroke-width:5.26999998px;stroke-miterlimit:10"/><path d="M299.58 355.205H87.53a15.31 15.31 0 0 1-15.31-15.31v-206a53.6 53.6 0 0 1 53.6-53.6h135.47a53.61 53.61 0 0 1 53.61 53.6v206a15.31 15.31 0 0 1-15.32 15.31z" id="path172" style="fill:#d50801;stroke:#000;stroke-width:22.96999931px;stroke-miterlimit:10"/><path id="polyline174" style="fill:#93d4b2" transform="translate(-309 -162.995)" d="M475.08 268.92v-13.91l27.97-76.47 27.6 76.47v13.91"/><path id="polygon176" transform="translate(-309 -162.995)" d="M464.65 268.92h20.86v-12.06l17.48-47.78 17.24 47.76v12.08h20.85v-15.73l-29.7-82.29h-16.63l-30.1 82.26z"/><path id="rect178" style="fill:#e29d29;stroke:#000;stroke-width:20.86000061px;stroke-miterlimit:10" d="M166.08 105.925h55.57v101.78h-55.57z"/><circle cx="193.42" cy="152.015" r="16.18" id="circle180" style="fill:#fff;stroke:#000;stroke-width:9.96000004px;stroke-miterlimit:10"/><path class="cls-9" id="polygon182" style="fill:#e29d29;stroke:#000;stroke-width:9.96000004px;stroke-miterlimit:10" transform="translate(-309 -162.995)" d="m455.56 292.38 9.86-15.32 10.43 15.32v72.47h-20.29z"/><path class="cls-9" id="polygon184" style="fill:#e29d29;stroke:#000;stroke-width:9.96000004px;stroke-miterlimit:10" transform="translate(-309 -162.995)" d="m531.37 292.38 9.86-15.32 10.43 15.32v72.47h-20.29z"/><path d="M72.25 210.215v126.36a15.31 15.31 0 0 0 15.32 15.31h54.58a54.6 54.6 0 0 0 100.92 0h56.54a15.31 15.31 0 0 0 15.32-15.31v-126.36z" id="path186" style="fill:#aaa"/><path id="rect188" style="fill:#fff" d="M73.27 217.765h242.68v65.09H73.27z"/><path d="M192.61 397.125a65.86 65.86 0 0 1-57.61-33.75H87.6a26.84 26.84 0 0 1-26.81-26.8v-137.84h265.62v137.84a26.83 26.83 0 0 1-26.8 26.8h-49.36a65.87 65.87 0 0 1-57.64 33.75zM83.74 221.705v114.87a3.83 3.83 0 0 0 3.83 3.83h62.26l2.93 7.09a43.11 43.11 0 0 0 79.69 0l2.94-7.09h64.22a3.84 3.84 0 0 0 3.83-3.83v-114.87z" id="path190"/><path class="cls-9" id="line192" style="fill:#e29d29;stroke:#000;stroke-width:9.96000004px;stroke-miterlimit:10" d="M146.56 183.815h96.1"/><rect x="175.2" y="276.215" width="38.33" height="58.6" rx="12.12" id="rect194"/><path class="cls-11" d="M158.78 281.455s-5.48-30-35-27.56c-29.52 2.44-27.21 27.56-27.21 27.56v75.42" id="path196" style="fill:none;stroke:#000;stroke-width:9.27000046px;stroke-miterlimit:10"/><path class="cls-11" d="M179.3 301.205c0-15.49 6-36.43-4.27-50.06-8.23-10.91-20.1-15.9-33.71-15.9-16.52 0-30.19 9.27-27.24 43.06v78.11" id="path198" style="fill:none;stroke:#000;stroke-width:9.27000046px;stroke-miterlimit:10"/><path class="cls-11" d="M180.36 311.515s-6.95-20.62-27.23-18.93c-20.28 1.69-21.38 18.93-21.38 18.93v44.9" id="path200" style="fill:none;stroke:#000;stroke-width:9.27000046px;stroke-miterlimit:10"/><path class="cls-11" d="M179.4 325.065v-32.58s-2.15-12.71-13.16-12.71-19.65 6.36-17.68 29.57l.51 47.07" id="path202" style="fill:none;stroke:#000;stroke-width:9.27000046px;stroke-miterlimit:10"/><path class="cls-11" d="M229.6 281.455s4.79-30 34.33-27.56c29.54 2.44 27.22 27.56 27.22 27.56v75.42" id="path204" style="fill:none;stroke:#000;stroke-width:9.27000046px;stroke-miterlimit:10"/><path class="cls-11" d="M209.09 301.205c0-15.49-6-36.43 4.27-50.06 8.22-10.91 20.09-15.9 33.7-15.9 16.52 0 30.2 9.27 27.25 43.06v78.11" id="path206" style="fill:none;stroke:#000;stroke-width:9.27000046px;stroke-miterlimit:10"/><path class="cls-11" d="M208 311.515s6.94-20.62 27.23-18.93c20.29 1.69 21.38 18.93 21.38 18.93v44.9" id="path208" style="fill:none;stroke:#000;stroke-width:9.27000046px;stroke-miterlimit:10"/><path class="cls-11" d="M209 325.065v-32.58s2.15-12.71 13.15-12.71 19.65 6.36 17.69 29.57l-.52 47.07" id="path210" style="fill:none;stroke:#000;stroke-width:9.27000046px;stroke-miterlimit:10"/><ellipse cx="194.36" cy="277.765" rx="9.93" ry="9.46" id="ellipse212"/><ellipse cx="193.11" cy="326.935" rx="29.29" ry="31.1" id="ellipse214"/><ellipse cx="189.8" cy="270.775" rx="5.37" ry="11.04" id="ellipse216"/><ellipse cx="198.56" cy="270.775" rx="5.37" ry="11.04" id="ellipse218"/><path class="cls-12" d="M179.42 307.545a13.7 13.7 0 1 0 27.39 0z" id="path220" style="fill:#d50801"/><path class="cls-12" d="M179.42 344.665a13.7 13.7 0 1 1 27.39 0z" id="path222" style="fill:#d50801"/><path class="cls-13" id="polyline224" style="fill:none;stroke:#000;stroke-width:4.9000001px;stroke-miterlimit:10" transform="translate(-309 -162.995)" d="m381.25 336.73 20.57 11.88 42.45-24.51v-49.02l-42.45-24.51"/><path class="cls-13" id="polygon226" style="fill:none;stroke:#000;stroke-width:4.9000001px;stroke-miterlimit:10" transform="translate(-309 -162.995)" d="m401.82 333.9 29.71-17.16v-34.31l-29.71-17.16-26.56 17.16v34.31z"/><path class="cls-13" id="polygon228" style="fill:none;stroke:#000;stroke-width:4.9000001px;stroke-miterlimit:10" transform="translate(-309 -162.995)" d="m401.82 316.74 14.85-8.57v-17.16l-14.85-8.58-14.86 8.58v17.16z"/><path class="cls-13" id="line230" style="fill:none;stroke:#000;stroke-width:4.9000001px;stroke-miterlimit:10" d="m72.22 124.825 70.71 41.14"/><path class="cls-13" id="line232" style="fill:none;stroke:#000;stroke-width:4.9000001px;stroke-miterlimit:10" d="m71.17 149.095 86.56-49.98"/><path class="cls-13" id="line234" style="fill:none;stroke:#000;stroke-width:4.9000001px;stroke-miterlimit:10" d="M92.82 79.725v124.26"/><path class="cls-13" id="polyline236" style="fill:none;stroke:#000;stroke-width:4.9000001px;stroke-miterlimit:10" transform="translate(-309 -162.995)" d="m623.96 336.73-20.57 11.88-42.45-24.51v-49.02l42.45-24.51"/><path class="cls-13" id="polygon238" style="fill:none;stroke:#000;stroke-width:4.9000001px;stroke-miterlimit:10" transform="translate(-309 -162.995)" d="m603.39 333.9-29.72-17.16v-34.31l29.72-17.16 26.56 17.16v34.31z"/><path class="cls-13" id="polygon240" style="fill:none;stroke:#000;stroke-width:4.9000001px;stroke-miterlimit:10" transform="translate(-309 -162.995)" d="m603.39 316.74-14.86-8.57v-17.16l14.86-8.58 14.86 8.58v17.16z"/><path class="cls-13" id="line242" style="fill:none;stroke:#000;stroke-width:4.9000001px;stroke-miterlimit:10" d="m314.99 124.825-70.71 41.14"/><path class="cls-13" id="line244" style="fill:none;stroke:#000;stroke-width:4.9000001px;stroke-miterlimit:10" d="m316.04 149.095-86.57-49.98"/><path class="cls-13" id="line246" style="fill:none;stroke:#000;stroke-width:4.9000001px;stroke-miterlimit:10" d="M294.39 79.725v124.26"/><path d="M39.67 213.005c0 4.08-.92 6-5.76 6H6.19c-4.83 0-5.76-1.9-5.76-6v-16.78c0-4.08.93-6 5.76-6h27.72c4.84 0 5.76 1.9 5.76 6zm-31.36-16.2c-1.57 0-1.63.33-1.63 1.69v12.28c0 1.36.06 1.69 1.63 1.69h23.48c1.58 0 1.63-.33 1.63-1.69v-12.32c0-1.52-.05-1.69-1.57-1.69z" id="path248"/><path d="M39.67 168.925h-33v10.16H.42v-26.85h6.25v10.17h33z" id="path250"/><path d="m39.61 134.075-33-1.18-.36 10.16-6.25-.23 1-26.82 6.24.22-.36 10.16 33 1.18z" id="path252"/><path d="m50.69 91.235-12.31-5.75-5.94 12.7 12.31 5.75-2.75 5.91-30.33-14.17c-4.38-2.05-4.41-4.16-2.69-7.86l6.4-13.69c1.72-3.69 3.37-5 7.75-3l30.33 14.17zm-28.41-13.23c-1.43-.66-1.62-.39-2.19.84l-4.51 9.65c-.58 1.23-.67 1.55.76 2.22l10.44 4.88 5.94-12.71z" id="path254"/><path d="m81.29 60.005-21.77-20.71 12.11 27.49-7.29 5.12-31-26.2 5.79-4L63 62.225l-12.81-28.39 7.38-5.18L80 50.335l-11.21-29.52 5.74-4 14.09 38.05z" id="path256"/><path d="m125.37 47.495-1.16-13.49-14 1.21 1.17 13.53-6.5.56-2.88-33.4c-.42-4.82 1.4-5.91 5.46-6.26l15.05-1.3c4.06-.35 6 .41 6.45 5.23l2.88 33.36zm-2.69-31.25c-.14-1.57-.47-1.59-1.82-1.48l-10.61.92c-1.36.11-1.68.2-1.54 1.77l1 11.48 14-1.21z" id="path258"/><path class="cls-12" d="M254.8 47.575c-4.07-.12-5.95-1.1-5.81-5.94l.17-5.92 6.52.19-.11 3.8c0 1.58.28 1.64 1.64 1.68l10.59.3c1.36 0 1.69 0 1.74-1.58l.19-6.95c0-1.58-.27-1.64-1.63-1.68l-12.88-.37c-4.08-.12-6-1.1-5.81-5.93l.32-11.25c.14-4.83 2.07-5.7 6.14-5.59l15 .43c4.08.12 6 1.1 5.81 5.94l-.17 5.92-6.52-.19.11-3.8c.05-1.58-.28-1.64-1.63-1.68l-10.6-.3c-1.36 0-1.69 0-1.73 1.58l-.2 7c0 1.57.28 1.64 1.64 1.68l12.87.36c4.08.12 6 1.1 5.82 5.93l-.32 11.2c-.14 4.83-2.07 5.7-6.15 5.59z" id="path260" style="fill:#d50801"/><path class="cls-12" d="m285.73 50.345 16.39-35.65 18.66 8.59c3.71 1.7 5.05 3.33 3 7.73l-5.29 11.5c-2 4.4-4.14 4.44-7.84 2.74l-12.74-5.86-6.29 13.68zM317 30.215c.66-1.43.38-1.62-.85-2.19l-10.72-4.92-4.88 10.61 10.72 4.93c1.38.63 1.55.65 2.19-.73z" id="path262" style="fill:#d50801"/><path class="cls-12" d="m317.17 68.325 26.57-28.89 4.8 4.42L322 72.745z" id="path264" style="fill:#d50801"/><path class="cls-12" d="m330.22 80.465 34.43-18.84 10.57 19.32c2 3.57 2.06 5.69-2.18 8l-24.32 13.3c-4.25 2.33-6 1.1-7.93-2.47zm37.78 3.78c1.39-.75 1.28-1.07.63-2.26l-6.37-11.63-23.46 12.84 6.37 11.63c.73 1.34.85 1.45 2.19.72z" id="path266" style="fill:#d50801"/><path class="cls-12" d="m346.16 115.135 39.1-3.33 2.07 24.37-6.23.53-1.52-17.87-10.18.87 1.22 14.35-6.23.53-1.22-14.35-10.23.87 1.52 17.9-6.23.53z" id="path268" style="fill:#d50801"/><path class="cls-12" d="m347.44 170.925 15.06-8.43v-4.62h-15.06v-6.52h39.24v20.54c0 4.08-.92 6-5.76 6h-12.66c-4.84 0-5.76-1.9-5.76-6v-2.6l-15.06 8.42zm31.36.43c1.58 0 1.63-.33 1.63-1.68v-11.8h-11.68v11.8c0 1.52 0 1.68 1.57 1.68z" id="path270" style="fill:#d50801"/><path class="cls-12" d="M347.44 196.695c0-4.07.93-6 5.76-6h5.93v6.53h-3.81c-1.57 0-1.63.32-1.63 1.68v10.6c0 1.36.06 1.68 1.63 1.68h7c1.58 0 1.63-.32 1.63-1.68v-12.86c0-4.08.92-6 5.76-6h11.25c4.84 0 5.76 1.9 5.76 6v15.05c0 4.08-.92 6-5.76 6H375v-6.52h3.8c1.58 0 1.63-.33 1.63-1.69v-10.61c0-1.36 0-1.69-1.63-1.69h-7c-1.57 0-1.63.33-1.63 1.69v12.88c0 4.07-.92 6-5.76 6H353.2c-4.83 0-5.76-1.91-5.76-6z" id="path272" style="fill:#d50801"/></svg>