<svg xmlns="http://www.w3.org/2000/svg" id="Layer_1" width="437.828" height="518.5" data-name="Layer 1" version="1.1"><defs id="defs4"><style id="style2">.cls-2,.cls-5{fill:#474754}.cls-14,.cls-3{fill:none;stroke:#b18d7f;stroke-linecap:round;stroke-linejoin:round}.cls-3{stroke-width:5.57px}.cls-5{stroke:#474754;stroke-miterlimit:10;stroke-width:.26px}.cls-8{fill:#b26b47}.cls-10{fill:#b18d7f}.cls-13{fill:#4a997c}.cls-14{stroke-width:12.89px}</style></defs><path id="path8" d="M414.21 27.08C398.27 9.6 375.88 0 351.19 0h-192c-20.25 0-38.17 16.48-39.94 36.73L93.27 333.16c-1.77 20.26 13.26 36.73 33.52 36.73h129.4c20.25 0 38.17-16.47 39.94-36.73l6.65-76.05h25.91c24.71 0 48.77-9.62 67.76-27.08 18.99-17.46 30.65-40.69 32.81-65.39l6.31-72.17c2.16-24.7-5.42-47.87-21.36-65.39z" class="cls-2" style="fill:#474754"/><path id="path10" d="m119.35 321.85-1 11.31a10.49 10.49 0 0 0 10.62 11.65h129.41a13 13 0 0 0 12.67-11.65l8.83-101.13h51a75 75 0 0 0 73.29-67.43l6.32-72.17c1.57-18-4-34.92-15.57-47.65-11.57-12.73-27.92-19.74-45.93-19.74h-192a13 13 0 0 0-12.67 11.65L142.2 60.9" class="cls-3" style="fill:none;stroke:#b18d7f;stroke-width:5.57000017px;stroke-linecap:round;stroke-linejoin:round"/><path id="path12" d="M313.44 143.67c-.26-18.87-8.67-33.28-23.71-40.59a47.07 47.07 0 0 0-8.72-3.21 41.39 41.39 0 0 0-17.34-16.86c-6.44-12.81-14.78-18.61-17.35-20.17a101.78 101.78 0 0 0-34.89-13.59 86.62 86.62 0 0 0-39.55 1.68 87.87 87.87 0 0 0-31 16.13 112.39 112.39 0 0 0-25.62 29.79c-.65 1.08-3.28 5.17-5.82 9.13l-5.85 9.12a21.84 21.84 0 0 0-1.42 2.6l-81.77 178a19 19 0 0 0 .79 18 17.6 17.6 0 0 0 15.09 8.15h.43l189.17-4.13a21.36 21.36 0 0 0 14.69-6.56 21 21 0 0 0 6-14.83c0-2.52-1.07-62-6.82-94.72a71.73 71.73 0 0 1-1.12-9.41 95.1 95.1 0 0 0 20.89-1.53 61.16 61.16 0 0 0 10.46-3.07 17.19 17.19 0 0 0 5.67 3.68 18.25 18.25 0 0 0 6.82 1.29 21.34 21.34 0 0 0 15.29-6.72c15.73-16.48 15.87-37.47 15.68-42.18z" class="cls-2" style="fill:#474754"/><path id="path14" d="m37.88 302.46 189.22-4.13s-1-60.16-6.55-91.77 6.26-34.11 18.43-33.79c12.17.32 24.44-.17 34.2-8.57l10.7-20.91-25-17.16-12.19-32c-4.87-10.53-11.55-14.53-11.55-14.53-32.06-19.72-75.75-19.62-103.51 26.15-1.27 2.11-6.6 10.33-11.93 18.68z" style="fill:#6a7877"/><path id="path16" d="M37.38 308.65a5.57 5.57 0 0 1-4.81-2.61 6 6 0 0 1-.26-5.74l81.78-178a7.45 7.45 0 0 1 .45-.83c2-3.15 4-6.29 5.82-9.08 2.84-4.41 5.28-8.22 6-9.46a97.52 97.52 0 0 1 22.17-25.86 72.06 72.06 0 0 1 59.38-14.82 89.7 89.7 0 0 1 30.76 12c1 .63 8.33 5.33 13.71 16.91.05.12.11.24.15.37l11.58 30.36 23.6 16.2a5.86 5.86 0 0 1 1.67 7.61l-10.68 20.9a6.94 6.94 0 0 1-1.66 2.12c-11.68 10.05-26.11 10.55-38.72 10.22-5.75-.15-8.87.55-10.44 2.34-1.57 1.79-4 7.47-1.16 23.69 5.58 31.72 6.59 90.24 6.63 92.71a6.66 6.66 0 0 1-1.93 4.73 6.81 6.81 0 0 1-4.69 2.1L37.52 308.6Zm87.73-181.6-77.65 169 173.31-3.78c-.44-16.48-2-59.5-6.3-84.16-2.95-16.77-1.59-27.74 4.41-34.51 5.73-6.52 13.77-7.21 20.87-7 10.62.28 20.81 0 28.68-6.09l7.59-14.83-20.89-14.34a5.38 5.38 0 0 1-2-2.56L241.02 97c-3.89-8.27-9-11.72-9.37-12a78.54 78.54 0 0 0-26.89-10.55 61.11 61.11 0 0 0-27.88 1.05c-16 4.5-29.4 15.64-40 33.1-.85 1.39-3.1 4.9-6.22 9.76-1.71 2.7-3.63 5.68-5.55 8.69z" class="cls-5" style="fill:#474754;stroke:#474754;stroke-width:.25999999px;stroke-miterlimit:10"/><g id="g20" style="opacity:.5" transform="translate(-79.12 -40.4)"><ellipse id="ellipse18" cx="274.46" cy="157.93" rx="26.64" ry="22.07" style="fill:#fff" transform="rotate(-14.29 274.34 157.875)"/></g><path id="polyline22" d="m352.28 192.33-55.71 1.06 18.72-19.62" class="cls-2" style="fill:#474754" transform="translate(-79.12 -40.4)"/><path id="path24" d="M217.02 157.93a4.44 4.44 0 0 1-4.22-2.85 5.15 5.15 0 0 1 1.2-5.32l18.73-19.62a5 5 0 0 1 7-.5 4.89 4.89 0 0 1-.11 7l-10.74 11.2 44.61-.85a4.45 4.45 0 0 1 4.6 4.84 5.49 5.49 0 0 1-5.28 5l-55.71 1.07z" class="cls-2" style="fill:#474754"/><ellipse id="ellipse26" cx="155.359" cy="172.368" class="cls-5" rx="19.95" ry="17.24" style="fill:#474754;stroke:#474754;stroke-width:.25999999px;stroke-miterlimit:10" transform="rotate(-18.78)"/><path id="path28" d="M200.34 135.93a23.86 23.86 0 0 1-15.79-5.64 19.76 19.76 0 0 1-6.89-15.9 23.82 23.82 0 0 1 8.13-16.64 28.36 28.36 0 0 1 17.65-7.32c13.74-.67 24.53 9 24.05 21.51-.47 12.53-12 23.28-25.78 23.95-.45.03-.91.04-1.37.04zm3.54-35.09h-.84a16.92 16.92 0 0 0-10.57 4.32 12.48 12.48 0 0 0-4.34 8.69 10.33 10.33 0 0 0 3.69 8.31 14.47 14.47 0 0 0 10.28 3.29c8-.39 14.65-6.23 14.91-13 .26-6.54-5.56-11.61-13.13-11.61z" class="cls-5" style="fill:#474754;stroke:#474754;stroke-width:.25999999px;stroke-miterlimit:10"/><path id="path30" d="M212.53 96.74s-22.63-12.4-48.21 16.17c0 0 27.3-18.25 47.88-7.56" class="cls-5" style="fill:#474754;stroke:#474754;stroke-width:.25999999px;stroke-miterlimit:10"/><path id="path32" d="M163.88 117.84a4.49 4.49 0 0 1-3.47-1.56 4.92 4.92 0 0 1 .33-6.47c8-8.92 21-19.75 37.43-20.63 10.09-.53 16.73 3 17 3.19l-4.21 6.89a33.33 33.33 0 0 1 3.79 1.67 4.66 4.66 0 0 1 1.65 6.62 5.25 5.25 0 0 1-6.81 2.22c-17.76-9.22-42.55 7-42.8 7.17a5.24 5.24 0 0 1-2.91.9zm46-16.71z" class="cls-5" style="fill:#474754;stroke:#474754;stroke-width:.25999999px;stroke-miterlimit:10"/><path id="path34" d="M191.13 102.85a17 17 0 0 0-1.29 3.21c-2.37 8.36 2.36 16.46 10.57 18.11 7.69 1.54 15.71-3.14 18.65-10.61-7.49-9.16-20.73-10.64-27.93-10.71z" class="cls-8" style="fill:#b26b47"/><ellipse id="ellipse36" cx="74.935" cy="220.763" class="cls-5" rx="10.19" ry="9.34" style="fill:#474754;stroke:#474754;stroke-width:.25999999px;stroke-miterlimit:10" transform="rotate(-43.75)"/><ellipse id="ellipse38" cx="160.303" cy="162.081" class="cls-2" rx="26.64" ry="22.07" style="fill:#474754" transform="rotate(-14.29)"/><path id="polyline40" d="m352.28 192.33-55.71 1.06 18.72-19.62" class="cls-2" style="fill:#474754" transform="translate(-79.12 -40.4)"/><path id="path42" d="M217.02 157.93a4.44 4.44 0 0 1-4.22-2.85 5.15 5.15 0 0 1 1.2-5.32l18.73-19.62a5 5 0 0 1 7-.5 4.89 4.89 0 0 1-.11 7l-10.74 11.2 44.61-.85a4.45 4.45 0 0 1 4.6 4.84 5.49 5.49 0 0 1-5.28 5l-55.71 1.07z" class="cls-5" style="fill:#474754;stroke:#474754;stroke-width:.25999999px;stroke-miterlimit:10"/><ellipse id="ellipse44" cx="155.359" cy="172.368" class="cls-5" rx="19.95" ry="17.24" style="fill:#474754;stroke:#474754;stroke-width:.25999999px;stroke-miterlimit:10" transform="rotate(-18.78)"/><path id="path46" d="M200.34 135.93a23.86 23.86 0 0 1-15.79-5.64 19.76 19.76 0 0 1-6.89-15.9 23.82 23.82 0 0 1 8.13-16.64 28.36 28.36 0 0 1 17.65-7.32c13.74-.67 24.53 9 24.05 21.51-.47 12.53-12 23.28-25.78 23.95-.45.03-.91.04-1.37.04zm3.54-35.09h-.84a16.92 16.92 0 0 0-10.57 4.32 12.48 12.48 0 0 0-4.34 8.69 10.33 10.33 0 0 0 3.69 8.31 14.47 14.47 0 0 0 10.28 3.29c8-.39 14.65-6.23 14.91-13 .26-6.54-5.56-11.61-13.13-11.61z" class="cls-5" style="fill:#474754;stroke:#474754;stroke-width:.25999999px;stroke-miterlimit:10"/><path id="path48" d="M212.53 96.74s-22.63-12.4-48.21 16.17c0 0 27.3-18.25 47.88-7.56" class="cls-5" style="fill:#474754;stroke:#474754;stroke-width:.25999999px;stroke-miterlimit:10"/><path id="path50" d="M163.88 117.84a4.49 4.49 0 0 1-3.47-1.56 4.92 4.92 0 0 1 .33-6.47c8-8.92 21-19.75 37.43-20.63 10.09-.53 16.73 3 17 3.19l-4.21 6.89a33.33 33.33 0 0 1 3.79 1.67 4.66 4.66 0 0 1 1.65 6.62 5.25 5.25 0 0 1-6.81 2.22c-17.76-9.22-42.55 7-42.8 7.17a5.24 5.24 0 0 1-2.91.9zm46-16.71z" class="cls-5" style="fill:#474754;stroke:#474754;stroke-width:.25999999px;stroke-miterlimit:10"/><path id="path52" d="M191.13 102.85a17 17 0 0 0-1.29 3.21c-2.37 8.36 2.36 16.46 10.57 18.11 7.69 1.54 15.71-3.14 18.65-10.61-7.49-9.16-20.73-10.64-27.93-10.71z" class="cls-8" style="fill:#b26b47"/><path id="path54" d="M191.13 102.85a17 17 0 0 0-1.29 3.21c-2.37 8.36 2.36 16.46 10.57 18.11 7.69 1.54 15.71-3.14 18.65-10.61-7.49-9.16-20.73-10.64-27.93-10.71z" style="fill:#ec5958"/><path id="path56" d="M198.41 103.39a10.34 10.34 0 0 0-1.4 4.77 8.8 8.8 0 0 0 9.42 9.26 10.91 10.91 0 0 0 9.49-7c-5.17-4.31-11.81-6.22-17.51-7.03z" class="cls-5" style="fill:#474754;stroke:#474754;stroke-width:.25999999px;stroke-miterlimit:10"/><path id="path58" d="M207.07 113.42a5.86 5.86 0 0 1-6-6.21 7.08 7.08 0 0 1 2.09-4.71 7.19 7.19 0 0 1 4.71-2.14h.33a5.88 5.88 0 0 1 6 6.22 7.29 7.29 0 0 1-6.81 6.85z" class="cls-5" style="fill:#474754;stroke:#474754;stroke-width:.25999999px;stroke-miterlimit:10"/><path id="path60" d="M246.73 94.16a50.55 50.55 0 0 1 1.69 4.13l.21 6.28c-1 26.55-18.74 30.12-16.41 39.88 2.33 9.76 21.44 5.69 21.44 5.69 33.08-3.88 30.56 23 30.56 23 10.81-11.31 9.76-27.22 9.76-27.22-.23-29.64-27.8-28.28-27.8-28.28-2.57-15.6-17.76-19.34-17.76-19.34" class="cls-10" style="fill:#b18d7f"/><path id="path62" d="M283.63 179.36a5.7 5.7 0 0 1-2.15-.41 5.51 5.51 0 0 1-3.44-5.83c0-.47.4-7.93-4.6-12.7-3.95-3.77-10.45-5.17-19.33-4.17a51.23 51.23 0 0 1-11.07.89c-12.55-.49-16-7-16.87-10.76-1.69-7.08 2.5-12.14 6.2-16.61 4.45-5.37 9.49-11.47 10-24.68l-.17-5.11c-.37-1-.76-1.91-1.19-2.82a6.6 6.6 0 0 1 3.16-8.41 5.85 5.85 0 0 1 8.2 2.42c.31.68.62 1.38.91 2.08 4.83 1.91 14.24 7 17.92 18.41a36.81 36.81 0 0 1 11.86 3.39c7.7 3.74 16.9 12 17.09 30.13.1 2.2.5 19.29-11.65 32a6.9 6.9 0 0 1-4.87 2.18zm-23.19-35.76c9.43 0 16.86 2.58 22.14 7.7a24.26 24.26 0 0 1 4 5.18 35.81 35.81 0 0 0 1.16-9.6v-.36c-.07-9.78-3.61-16.53-10.52-20a25.84 25.84 0 0 0-11.34-2.71 5.5 5.5 0 0 1-5.87-4.67 17.47 17.47 0 0 0-5.56-10.27c-1.66 14.79-8.29 22.8-12.82 28.27-3 3.57-3.59 4.58-3.39 5.39.58 2.44 8.47 2.85 14.61 1.56a5.86 5.86 0 0 1 .58-.1 61.05 61.05 0 0 1 7.01-.39z" class="cls-5" style="fill:#474754;stroke:#474754;stroke-width:.25999999px;stroke-miterlimit:10"/><path id="path64" d="m151.55 293.74 18.21-102.67s4.63-30.88-21.33-30.35c0 0-17.29 1.3-41.68 36.24l-45.09 98.79z" style="opacity:.5;fill:#4a997c"/><path id="polygon66" d="m261.65 252.76-18.45 90.12 43.24-1.02-19.08-87.51z" style="fill:#474754;stroke:#474754;stroke-width:.23px;stroke-miterlimit:10" transform="translate(-79.12 -40.4)"/><path id="path68" d="m119.82 294.45 11.24-62s2.92-19.09-13.86-18.76c0 0-11.18.8-26.87 22.4l-28.21 59.6z" class="cls-13" style="fill:#4a997c"/><path id="path70" d="M269.88 180.2c2 6.2 5.3 12.13 12.54 12.36 5.58.18 11.5-2.74 15.3-6.72 15.73-16.47 15.87-37.46 15.68-42.17-.26-18.87-8.67-33.28-23.71-40.59a47.07 47.07 0 0 0-8.72-3.21 41.39 41.39 0 0 0-17.34-16.86c-6.44-12.81-14.78-18.61-17.35-20.17a101.78 101.78 0 0 0-34.89-13.59 86.62 86.62 0 0 0-39.51 1.68c-5.1 1.44-10.91 4.87-16.1 3.23-4.49-1.42-7.84-5-8.14-9.83-.13-2 .16-4.06 1.81-5.41a12 12 0 0 1 5.81-2.32c2.46-.34 4.59 1 6.46 2.45" class="cls-3" style="fill:none;stroke:#b18d7f;stroke-width:5.57000017px;stroke-linecap:round;stroke-linejoin:round"/><path id="path72" d="m144.32 319.74 81.55-2a21.36 21.36 0 0 0 14.69-6.56 21 21 0 0 0 6-14.83c0-2.52-1.07-62-6.82-94.72a71.73 71.73 0 0 1-1.12-9.41c6.56.12 9.65 1.52 17 0l5.18-1.23" class="cls-3" style="fill:none;stroke:#b18d7f;stroke-width:5.57000017px;stroke-linecap:round;stroke-linejoin:round"/><path id="path74" d="M344.67 66.79a19 19 0 0 0-8.1 12.83 11.56 11.56 0 0 0 3.45 10.28 13.21 13.21 0 0 0 11.74 2.9c5-1 8.91-4.21 10.21-8.4a10 10 0 0 0-.91-8.13 7.36 7.36 0 0 0-5.47-3.51 3.54 3.54 0 0 0-1.52.17h-.5a4.85 4.85 0 0 0-4.21 4.87 4 4 0 0 0 4.52 3.8 4.61 4.61 0 0 0 1.74-.59 3.83 3.83 0 0 1-.06 1.93c-.74 2.37-3.69 3.13-4.58 3.31a7.07 7.07 0 0 1-6.21-1.44 5.39 5.39 0 0 1-1.59-4.92 11.89 11.89 0 0 1 6.42-8.69c8.1-4.45 21.15-2.43 35.8 5.56 8.55 4.67 14.82 12.77 16.36 21.14 1.16 6.35-.31 12.44-4.38 18.11a42 42 0 0 1-4.5 5.23c-9.57 2.76-17.66.61-22.31-5.95-2.35-3.33-2.56-8.53-.49-12.63a9.51 9.51 0 0 1 7.61-5.5 12.89 12.89 0 0 1 3.61 0 6.69 6.69 0 0 0-2.27 5.17 5.59 5.59 0 0 0 6.43 5.34 6.86 6.86 0 0 0 5.94-6.65h.23a10.32 10.32 0 0 0-3-7.75c-2.52-2.39-6.25-3.33-11.09-2.78a17 17 0 0 0-13.38 9.56 20.65 20.65 0 0 0-2.16 10 17.39 17.39 0 0 0 3 9.33 22.68 22.68 0 0 0 18.59 9.67l-3.08 2.31-1.11.83a100.73 100.73 0 0 0-15.18 14c-7.31 8.29-13.72 18-20.76 31.62a34 34 0 0 0-3.92 17 28.2 28.2 0 0 0 4.6 14.59c4.56 6.88 11.85 10.41 19.5 9.45 18.66-2.34 23.13-15.72 22.83-23.25-.3-7.53-5.34-13.85-12-15.11a14.94 14.94 0 0 0-11.56 2.72 14 14 0 0 0-5.7 9.24 3.13 3.13 0 0 0 .12 1.47v.64a5.59 5.59 0 0 0 6.43 5.34 6.86 6.86 0 0 0 5.94-6.89 5.52 5.52 0 0 0-2.89-4.71 8 8 0 0 1 5.88-1.26c4.41.84 6.95 5.47 7.11 9.4.39 10.09-8.59 14.81-16.41 15.79-5.29.67-10.24-1.82-13.57-6.83-3.63-5.48-5.67-14.89-.47-24.91 6.76-13 12.85-22.3 19.74-30.11a92.46 92.46 0 0 1 14-13l1.11-.83c6.62-4.93 13.47-10 18.51-17.06 5.17-7.21 7.12-15.3 5.63-23.4-1.88-10.27-9.11-19.73-19.35-25.31a77.13 77.13 0 0 0-18.41-7.33s-17.09-3.94-25.91 3.34z" class="cls-10" style="fill:#b18d7f"/><path id="line76" d="M301.63 25.08h45.92" class="cls-14" style="fill:none;stroke:#b18d7f;stroke-width:12.89000034px;stroke-linecap:round;stroke-linejoin:round"/><path id="line78" d="M146.19 344.81h24.27" class="cls-14" style="fill:none;stroke:#b18d7f;stroke-width:12.89000034px;stroke-linecap:round;stroke-linejoin:round"/><path id="path80" d="M45.58 444.3h-20.7l-4.21 23.85H0l11-62.45h41.38c11 0 18 9 16.19 19.34-2.97 16.83-18.69 19.26-22.99 19.26zm.5-26.46H29.51l-2.09 11.88h16.39a7.18 7.18 0 0 0 7.11-5.89c.17-.96.27-5.99-4.84-5.99z" class="cls-2" style="fill:#474754"/><path id="path82" d="m108.06 421.48-4.84 27.41h18.3l-3.39 19.26H67.22l3.39-19.26H89l4.88-27.41H75.45l2.78-15.78h51l-2.79 15.78z" class="cls-2" style="fill:#474754"/><path id="path84" d="m174.4 468.23 1.06-6c-4.09 4-13.37 6-16.76 6h-7c-22 0-22.71-13.87-20.5-26.36l1.77-10.06c2.63-14.92 9.45-26 29.39-26h18.13c7.72 0 12.74 5.46 11.41 13l-1.93 10.79h-18.56c1-5.64-1.27-10.5-7.43-10.5-7.37 0-11.77 5.73-13.89 17.78-1.55 8.76-1.13 17.7 7.63 17.7 1.13 0 9.53 1 12.18-6.07h-7.72l1.51-8.59h24.46l-5 28.27z" class="cls-2" style="fill:#474754"/><path id="path86" d="m195.67 468.15 11-62.45h44.21l-2.18 12.32h-23.5l-2 11.62h8.24l-2.57 14.57h-8.24l-1.22 6.94h28.45l-3 17z" class="cls-2" style="fill:#474754"/><path id="path88" d="M296.63 468.15H267.4a10.05 10.05 0 0 1-10-12l6.76-38.34a14.63 14.63 0 0 1 14.28-12.14h29.23c4.94 0 11.71 3.9 10.26 12.14l-6.79 38.51c-1.26 7.14-8.18 11.83-14.51 11.83zm-5.13-44.24c.48-2.69-.66-6.07-4.82-6.07a7.2 7.2 0 0 0-6.77 5.9l-4.31 24.46c-.67 3.82 1.21 5.9 4.68 5.9a6.74 6.74 0 0 0 6.94-5.9z" class="cls-2" style="fill:#474754"/><path id="path90" d="m355.52 468.15-6-40.59-7.15 40.59h-20.85l11-62.45h23.26l8 29.14 5.14-29.14h12.49l-11 62.45z" class="cls-2" style="fill:#474754"/><path id="path92" d="M405.75 469.54c-16.39 0-22.15-9.63-23-13.62l11.3-5.55c1.78 6.16 9.13 7.72 13.85 7 5.17-.78 7.47-3.47 7.81-6.41 1.29-10.76-27.75-8.85-26.07-25.77 1.89-19.08 19.26-21.16 31.35-20.9 9.77.17 17 5.12 15.65 12.58l-1 5.9h-16.61c.73-5.64-4.07-6-6.07-5.9-4.56.26-6.8 2.6-7 4.85-1.22 9.37 34.77 2 31.68 26.46-1.64 13.64-14.76 21.36-31.89 21.36z" class="cls-2" style="fill:#474754"/><path id="path94" d="M119.6 517.94h-9.59l3.87-21.94h-2.3l1.28-7.28h11.9c6.55 0 16.07 4.09 14.19 14.77-1.67 9.39-9.52 14.45-19.35 14.45zm4.28-24.12-3.41 19.34c2.83 0 8.08-3.84 9.11-9.67 1.09-6.35-3.22-9.67-5.7-9.67z" class="cls-13" style="fill:#4a997c"/><path id="path96" d="M151.23 509.07c1 2.15 3.64 3 6.11 3.2a14.31 14.31 0 0 0 7.77-2.75l2.48 3.4a18.69 18.69 0 0 1-13.25 5.58c-8.38 0-14-6.84-12.49-15.21 1.51-8.37 9.47-15.18 17.85-15.18 11.49 0 13.43 12.18 13.43 12.18zm2.27-13.59c-2.54 1.09-4.52 4.29-3.94 6.51l10.84-4.33c-.7-2.67-4.32-3.24-6.9-2.18z" class="cls-13" style="fill:#4a997c"/><path id="path98" d="M211.49 506.73h-9.67l-2 11.12h-9.63l5.13-29.13h19.31a7.44 7.44 0 0 1 7.55 9c-1.3 7.88-8.71 9.01-10.69 9.01zm.23-12.35H204l-1 5.55h7.65a3.35 3.35 0 0 0 3.31-2.75c.1-.45.15-2.8-2.24-2.8z" class="cls-13" style="fill:#4a997c"/><path id="path100" d="m240.65 517.85-1.39-7.72h-8l-4 7.72h-10.12l15.74-29.13h9.67l5 29.13zm-3.41-19-2.64 5.1h3.6z" class="cls-13" style="fill:#4a997c"/><path id="path102" d="M274.22 518.42c-3.17-.4-5.94-3-6-7.53 0-6-2.34-5.58-4.44-5.58h-1.58l-2.21 12.54h-9.63l5.14-29.13h19.1c5.14 0 8.63 3.8 7.86 8.17-.67 3.85-4.26 7.41-8 7.49a4.3 4.3 0 0 1 2.06 3.24c.4 3.23-.06 7.65 4.52 7.16l-.39 2.23a12 12 0 0 1-6.43 1.41zm-2.3-24h-7.76l-.88 5h7.69a3.08 3.08 0 0 0 3.14-2.47 2 2 0 0 0-2.23-2.48z" class="cls-13" style="fill:#4a997c"/><path id="path104" d="m301.46 496.08-2.25 12.79h8.54l-1.59 9h-23.75l1.58-9h8.58l2.31-12.79h-8.58l1.3-7.36h23.79l-1.3 7.36z" class="cls-13" style="fill:#4a997c"/><path id="path106" d="M321.39 518.5c-7.65 0-10.34-4.49-10.74-6.35l5.23-2.55c.83 2.87 4.26 3.6 6.46 3.28 2.42-.37 3.49-1.62 3.65-3 .6-5-12.95-4.12-12.17-12 .89-8.9 9-9.87 14.63-9.75 4.56.08 7.92 2.39 7.3 5.87l-.48 2.75h-7.69c.34-2.63-1.9-2.79-2.83-2.75-2.13.12-3.17 1.21-3.28 2.26-.57 4.38 16.23.94 14.78 12.35-.75 6.29-6.85 9.89-14.86 9.89z" class="cls-13" style="fill:#4a997c"/><circle id="circle108" cx="272.92" cy="178.66" r="5.95" class="cls-10" style="fill:#b18d7f"/><ellipse id="ellipse110" cx="129.952" cy="102.483" class="cls-10" rx="5.18" ry="4.94" style="fill:#b18d7f" transform="rotate(-23.9)"/></svg>