<svg xmlns="http://www.w3.org/2000/svg" id="Layer_1" data-name="Layer 1" version="1.1" width="346.783" height="435.26"><defs id="defs4"><style id="style2">.cls-1{fill:#bee6f6}.cls-2{fill:#ffe67b}.cls-3{fill:#3a3a3a}.cls-4{fill:#ed8222}.cls-7{fill:#f6cf32}.cls-8{fill:#fff}.cls-10{fill:#e1bb78}.cls-12{fill:#752f16}.cls-13{fill:#40a448}.cls-14{fill:#e12e26}.cls-15{fill:#231f20}</style></defs><path class="cls-4" d="M84.38 26.91s34.7-2.46 48.45 7.46h6.87l-29.78 13" id="path126" style="fill:#ed8222"/><path class="cls-4" d="M274.18 26.91s-34.7-2.46-48.45 7.46h-6.87l29.78 13" id="path128" style="fill:#ed8222"/><path class="cls-7" d="M187.88 435.26h-13.83a3.83 3.83 0 0 1-3.4-2.08c-.16-.3-16.2-31.13-54.62-76.43a3.82 3.82 0 1 1 5.82-4.94c33.8 39.85 50.24 68.1 54.48 75.81h9.27c4.23-7.69 20.62-35.82 54.3-75.6a3.82 3.82 0 1 1 5.83 4.94c-38.3 45.23-54.29 75.92-54.45 76.23a3.83 3.83 0 0 1-3.4 2.07z" id="path130" style="fill:#f6cf32"/><path class="cls-7" d="M68.84 218.6a3.82 3.82 0 0 1-3.71-2.93l-20.06-84.16-5.19-23.77-20-23.53a3.83 3.83 0 0 1 .75-5.62C35.78 68.26 59.44 59.8 84.48 50.86c36-12.86 76.85-27.44 92.57-49.27a3.81 3.81 0 0 1 3.1-1.59h1.63a3.81 3.81 0 0 1 3.1 1.59C200.6 23.42 241.43 38 277.45 50.86c25 8.94 48.7 17.38 63.82 27.73a3.83 3.83 0 0 1 .66 5.73l-20.25 22.2-4.78 24.83a.94.94 0 0 1 0 .16l-19 79.76a3.82 3.82 0 1 1-7.43-1.77l19-79.68 5-25.8a3.81 3.81 0 0 1 .92-1.85l17.94-19.66c-14.43-8.77-35.82-16.41-58.37-24.46-37.24-13.3-75.7-27-93.91-49.05-18.22 22-56.68 35.75-93.92 49.05-22.62 8.07-44.08 15.73-58.5 24.54l17.77 20.94a3.81 3.81 0 0 1 .81 1.65l5.38 24.63 20.05 84.09a3.82 3.82 0 0 1-2.83 4.6 3.92 3.92 0 0 1-.97.1z" id="path132" style="fill:#f6cf32"/><path class="cls-1" id="polygon134" style="fill:#bee6f6" transform="translate(-93.62 -213.74)" d="M252.14 591.88V258.81l22.91-13.76 21.38 13.76v333.07l-21.13 27.51z"/><path class="cls-1" d="M241.82 54.05v156h36.65l7.64-26V69.5c-14.56-4.83-32.89-11.35-44.29-15.45z" id="path136" style="fill:#bee6f6"/><path class="cls-1" d="M121.03 54.05v156H84.38l-7.65-25.21V69.5c14.58-4.83 32.91-11.35 44.3-15.45z" id="path138" style="fill:#bee6f6"/><path class="cls-8" d="M76.3 208.69s108.82-56.34 214.48 0l-51.77 112.67-12.63 30.18s-49.66 4-85.58 0-64.5-142.85-64.5-142.85z" id="path140" style="fill:#fff"/><ellipse cx="181.57" cy="329.72" rx="136.26" ry="13.75" id="ellipse142" style="fill:#dbdbda"/><path class="cls-10" d="M248.89 330.73c12.38-1.86 24.87-5.55 34.58-13.46a47.57 47.57 0 0 0 17.17-38.83c-21-6.41-43.39-6.34-65.36-6.21L97.77 273c-8.27.05-16.7.12-24.54 2.76-5.77 1.94-11.52 5.86-12.89 11.79-1.63 7 3.37 13.77 8.41 18.93 8.75 8.95 19 17 31 20.34 7.22 2 14.8 2.3 22.29 2.57l75.06 2.67c17.28.62 34.69 1.2 51.79-1.33z" id="path144" style="fill:#e1bb78"/><path class="cls-2" d="M227.19 309.52c-.33-1.25-.65-2.5-1-3.75a14.9 14.9 0 0 0-12.59 2.14 17.5 17.5 0 0 0-16.73-3.42l-.81-3.49-5.77 2.12a7.58 7.58 0 0 1 2.25 5.58c-2.58-.76-5.31.4-8 .54-2.69.14-6-1.78-5.37-4.39l-20.6-1.48a7 7 0 0 1-3.27-.78 14.24 14.24 0 0 1-2.43-2.59c-3.27-3.45-10.13-1.81-11.48 2.75a4.46 4.46 0 0 1 .8 8.72c-1.82.54-3.78-.12-5.67.06-1.89.18-3.92 2.1-3 3.75-2 1.34-4.81-.61-5.69-2.89-.88-2.28-.74-4.87-1.69-7.12a8.08 8.08 0 0 0-9.39-4.44 26.27 26.27 0 0 0-2.15 8.16l-6.89-6.73a14.89 14.89 0 0 1-3.22-3.92l-5.81-.08c.71.85.11 2.24-.87 2.75a6 6 0 0 1-3.25.32 65.16 65.16 0 0 0-19.74 1.38c-1.76.4-4 2.07-2.84 3.48-9 2-19-5.22-19.88-14.44a3.52 3.52 0 0 1 .21-1.88c.56-1.16 2-1.46 3.32-1.61 48-5.88 96.39-6.36 144.7-6.83l87.4-.86c6.11-.06 12.41-.08 18 2.26 4.28 1.77 8.4 6.15 6.89 10.52-.9 2.59-3.63 4.64-3.33 7.36-3.93 2.5-8.43-6.51-12.28-3.92.19 1.37-1.29 2.48-2.67 2.52a10.3 10.3 0 0 1-3.95-1.15c-7.08-2.8-15.05-.79-22.67-1.08-5-.19-9.91-1.38-14.88-1.11-4.97.27-10.29 2.47-12.36 7a10.91 10.91 0 0 1-12.34 14.6 30.44 30.44 0 0 1 1.94-8.09z" id="path146" style="fill:#ffe67b"/><path d="M197.27 260.82c36.25-.05 72.56-.1 108.64 3.32 3.08.29 6.25.63 9 2.1 5.77 3.12 7.82 11.55 4.14 17-2.63 3.86-7.37 5.84-12 6.38s-9.33-.12-14-.44c-12.53-.85-25.06.82-37.57 2-60.61 5.44-121.71-2.08-182.49 1.12a1 1 0 1 0-1 .09c.22-2.05-2.9-2.32-4.9-1.81-5.45 1.39-11.26 2.15-16.65.54-5.39-1.61-10.22-6.06-10.86-11.65-.71-6.25 4-12.11 9.67-14.8 5.67-2.69 12.2-2.88 18.49-3 31.19-.64 62.4-.69 93.6-.73z" id="path148" style="fill:#a84f25"/><path class="cls-4" d="M217.97 273.83c-5.51.45-9.37 6.71-14.89 6.68-4 0-7.12-3.37-10.59-5.39-3.94-2.28-8.59-2.92-13.1-3.52-7.93-1-17.4-1.5-22.37 4.76a7.42 7.42 0 0 1-1.65 1.79c-1.83 1.18-4.19-.05-6.16-1-6-2.86-12.9-2.9-19.55-2.87l-23.28.08-18 .06a82.49 82.49 0 0 1-15.79-1 13.36 13.36 0 0 1-4.47-1.51c-1.33-.8-2.4-2-3.75-2.71-1.88-1-4.31-1.28-5.58-3-1.86-2.54.15-6 2.18-8.44 2.48-3 5.19-5.93 8.77-7.37 3-1.21 6.27-1.24 9.47-1.26 61.74-.32 123.52.16 185.14-3.56 10.68-.65 21.87-1.33 31.6 3.1 2.18 1 4.52 2.71 4.42 5.09-.07 1.48-1.1 2.85-.88 4.31.22 1.46 1.65 2.44 2.36 3.75a4.22 4.22 0 0 1-6.59 5.09 15.39 15.39 0 0 1-12.95 7c-4.57-.06-9-2.19-13.56-1.74-4.14.41-7.85 2.93-12 3.3-8.74.79-17.4-8-25.36-4.28-1.91.89-3.52 2.43-5.56 2.92-2.56.68-5.23-.49-7.86-.28z" id="path150" style="fill:#ed8222"/><path class="cls-3" d="m199.67 278.62-.26-.08c-6.43-1.88-24.47-6.31-30.76-4.34-8.42 2.63-15.18 3.11-62.3 1.82-46.52-1.28-50.48-10.89-50.8-12.8l3.27-.55a.41.41 0 0 0 0-.13c0 .09 3.48 9 47.65 10.16 46.62 1.28 53.22.83 61.23-1.67 8.01-2.5 29.58 3.44 32.39 4.25 2.19-.12 16.9-1 25.44-2.73 9.45-2 29.84 1.09 31.44 1.33 9.07.6 38.05-5.21 42.93-8.1l1.69 2.86c-5.8 3.42-36 9.17-44.92 8.54h-.14c-.21 0-21.29-3.24-30.33-1.37-9.45 1.95-25.54 2.77-26.22 2.8z" id="path152" style="fill:#3a3a3a"/><path class="cls-2" d="M195.38 265.62c-4.62.4-6-6.93-10.35-8.47-1.86-.66-3.92-.12-5.89-.29-5.41-.47-9.49-6.21-14.91-6-6.46.3-10.7 9-17.11 8.1 1.52 2.84-.69 6.52-3.67 7.74-2.98 1.22-6.36.68-9.53.12-.41-3.4-2.31-7-5.61-7.88-3.3-.88-7.35 2.5-6 5.65a26.54 26.54 0 0 0-16.78-3.7c-3.62.42-7.41 1.57-10.79.22a33.27 33.27 0 0 0-3.7-1.7 10.83 10.83 0 0 0-3.64-.14l-16.11 1.25c-5.51.42-12.69-.24-14.15-5.57-.79-2.86.69-6 2.95-7.88 2.26-1.88 5.2-2.83 8.08-3.54 10.43-2.56 21.27-2.86 32-3 58.09-.56 116.34 4.18 174.18-1.21 6.42-.6 13-1.3 19.22.48 6.22 1.78 12 6.75 12.57 13.17-1.71 1.69-3.73 3.51-6.14 3.37-3-.18-5-3.28-7.9-4-3.82-1-7.23 2.32-10.64 4.29-9.64 5.59-21.63.82-32.69-.54a102.68 102.68 0 0 0-17.71-.12l-19.06 1c-3.53.18-7.35.47-10 2.83-2.18 2.05-3.62 5.56-6.62 5.82z" id="path154" style="fill:#ffe67b"/><path d="M81.75 218.57c29.93-19.42 66.82-21.5 102-22.84a211.39 211.39 0 0 1 23.48 0c17.66 1.29 34.74 6.95 51.62 12.57 9.3 3.09 18.74 6.26 26.8 12 8.06 5.74 14.69 14.63 15.65 24.84a2.54 2.54 0 0 1-.17 1.5 2.45 2.45 0 0 1-2.14.9q-110.43 6-221.08 4.64c-6.36-.08-13.44-.48-17.86-5.29 2.79-6.56 5.65-13.24 10.19-18.62a51.6 51.6 0 0 1 11.51-9.7z" id="path156" style="fill:#d18529"/><path class="cls-12" d="M90.31 287.2a25.61 25.61 0 0 1-11.49-3.12c-7.65-3.82-18.94.44-19.05.49a2.38 2.38 0 0 1-1.72-4.43c.54-.21 13.36-5.07 22.89-.31 8 4 12 2.49 14.72 1.49a2.38 2.38 0 0 1 1.72 4.44 18.68 18.68 0 0 1-7.07 1.44z" id="path158" style="fill:#752f16"/><path class="cls-12" d="M154.38 289.37a11.25 11.25 0 0 1-6.63-1.93c-2.64-1.92-4.09-1-4.24-.86l-1.49-1.86-1.54-1.8c.17-.14 4.26-3.54 10.06.68 1.62 1.18 4.59 1.37 7.4.47 2-.66 3-1.62 3.19-2.07a2.38 2.38 0 0 1 4.51 1.5c-.73 2.19-3 4.05-6.26 5.09a16.69 16.69 0 0 1-5 .78z" id="path160" style="fill:#752f16"/><path class="cls-12" d="M247.38 287.84a16.4 16.4 0 0 1-11.36-4.66 2.374 2.374 0 0 1 3.46-3.25 11.66 11.66 0 0 0 11.8 2.53c9.2-2.93 16.69-3.78 20.54-2.33a2.372 2.372 0 1 1-1.67 4.44c-2.25-.84-8.51-.42-17.43 2.42a17.51 17.51 0 0 1-5.34.85z" id="path162" style="fill:#752f16"/><path class="cls-10" id="polyline164" style="fill:#e1bb78" transform="translate(-93.62 -213.74)" d="M194.75 430 236 446.64l-31.75-24.14"/><path class="cls-10" id="polyline166" style="fill:#e1bb78" transform="translate(-93.62 -213.74)" d="m253.5 416.75 56.87 25.94-40.62-27.94"/><path class="cls-10" id="polyline168" style="fill:#e1bb78" transform="translate(-93.62 -213.74)" d="m319.87 414.2 38.76 32.44-21.36-30.06"/><path class="cls-13" d="M117.14 280.54c-.17-.06-16.56-6-27.59-7.5a32.31 32.31 0 0 1-19.76-10.58l4.94-4a26.36 26.36 0 0 0 15.7 8.27c11.68 1.63 28.17 7.57 28.86 7.82z" id="path170" style="fill:#40a448"/><path class="cls-14" d="M292.08 282.01c-.16-.07-16.11-7.08-27-9.37a32.28 32.28 0 0 1-19-11.92l5.2-3.6a26.33 26.33 0 0 0 15.1 9.32c11.54 2.43 27.58 9.49 28.25 9.79z" id="path172" style="fill:#e12e26"/><path class="cls-14" d="M163.64 281.7c-.13-.05-12.87-5.44-18.51-7.3-5.82-1.92-19.79-7.22-20.38-7.44l2.24-5.92c.15.06 14.44 5.48 20.12 7.35 5.88 1.94 18.47 7.26 19 7.49z" id="path174" style="fill:#e12e26"/><path class="cls-13" d="M223.78 287.36c-.1-.08-10.88-8.22-23.67-7.26a22.8 22.8 0 0 1-22.64-12.39l5.76-2.64a16.51 16.51 0 0 0 16.41 8.72c15.27-1.12 27.5 8.17 28 8.56z" id="path176" style="fill:#40a448"/><path class="cls-8" d="M231.22 213.62s17.66 6.57 26.82-9.72-27.54-11.74-25 2.53" id="path178" style="fill:#fff"/><path class="cls-8" id="polyline180" style="fill:#fff" transform="translate(-93.62 -213.74)" d="M344.4 403.89v-12.22l-11.07 3.82-6.92-4.3-29.35-1.04-2.29-7.64-12.98 8.4-6.11.38-3.51-2.93-7.32 4.95-9.03-3.93 4.59-16.03 1.52-6.11-16.8 14.13 1.53 25.58"/><path class="cls-7" d="M109.61 109.44a36 36 0 0 1 12.24-1.52 26 26 0 0 1 9.74 2.43 20.64 20.64 0 0 1 7 5.47 21.15 21.15 0 0 1 4 7.59 21.72 21.72 0 0 1 .68 8.15 22.85 22.85 0 0 1-2.55 8.34 28.8 28.8 0 0 1-6.09 7.76 37.66 37.66 0 0 1-9.94 6.39q.7 2.94 1.31 5.39l.51 2.09c.17.7.33 1.34.48 1.91l.39 1.5c.1.43.18.72.23.88a39.07 39.07 0 0 1 1 6 37.29 37.29 0 0 1 0 6.34 34.45 34.45 0 0 1-1.12 6.19 22.39 22.39 0 0 1-2.38 5.54 17.42 17.42 0 0 1-3.83 4.37 14.39 14.39 0 0 1-5.32 2.74 10.76 10.76 0 0 1-6.31 0 16.81 16.81 0 0 1-5.8-3.27 31 31 0 0 1-5.14-5.68 59.76 59.76 0 0 1-4.39-7.2 76.06 76.06 0 0 1-3.55-7.87c-1-2.68-1.9-5.25-2.6-7.69a65.15 65.15 0 0 1-2.3-12.46 58.81 58.81 0 0 1 .18-11.9 48.64 48.64 0 0 1 2.56-10.81 37.86 37.86 0 0 1 4.84-9.21 31.56 31.56 0 0 1 7-7.05 28.83 28.83 0 0 1 9.16-4.42zm-11.07 51.75c.31 1.09.73 2.55 1.27 4.39.54 1.84 1.17 3.79 1.9 5.85.73 2.06 1.54 4.12 2.45 6.18a33.16 33.16 0 0 0 2.95 5.46 14.29 14.29 0 0 0 3.36 3.65 4.13 4.13 0 0 0 3.71.73 5 5 0 0 0 3.06-2.4 11.6 11.6 0 0 0 1.35-4.34 26.51 26.51 0 0 0 .06-5.52c-.17-2-.43-4-.79-5.95-.36-1.95-.76-3.82-1.2-5.57-.44-1.75-.84-3.24-1.18-4.46l-.53-1.87c-2.46-.25-4.4-.53-5.85-.83a13.06 13.06 0 0 1-3.39-1.1 4.28 4.28 0 0 1-1.76-1.58 10.09 10.09 0 0 1-.94-2.3c-.13-.47-.25-.95-.36-1.42a5.11 5.11 0 0 1-.13-1.3 2.33 2.33 0 0 1 .27-1 1.29 1.29 0 0 1 .84-.6 1.59 1.59 0 0 1 .78-.05c.25 0 .58.1 1 .19 1 .23 1.92.39 2.72.49.8.1 1.48.18 2 .22a12.69 12.69 0 0 0 1.73 0c-.1-.34-.29-1-.57-2.05-.28-1.05-.53-2.21-.76-3.57a35.66 35.66 0 0 1-.43-4.33 16.37 16.37 0 0 1 .39-4.36 9.36 9.36 0 0 1 1.74-3.7 6.71 6.71 0 0 1 3.61-2.3 7.92 7.92 0 0 1 1.51-.28 4.06 4.06 0 0 1 1.52.13 3.3 3.3 0 0 1 1.32.72 3 3 0 0 1 .88 1.51 2.07 2.07 0 0 1 .09.38 2 2 0 0 0 0 .27l.49 10.91.53 3.25a25.54 25.54 0 0 0 6.18-3.83 17.23 17.23 0 0 0 3.79-4.43 12.16 12.16 0 0 0 1.63-4.72 11.82 11.82 0 0 0-.36-4.67 13.6 13.6 0 0 0-2.15-4.31 11.21 11.21 0 0 0-4.17-3.39 16.84 16.84 0 0 0-6.55-1.54 28.5 28.5 0 0 0-9.26 1.3 17.65 17.65 0 0 0-6.84 3.61 20.31 20.31 0 0 0-4.63 5.81 27.89 27.89 0 0 0-2.67 7.38 43 43 0 0 0-1 8.34 53.78 53.78 0 0 0 .53 8.66 61.2 61.2 0 0 0 1.86 8.34z" id="path182" style="fill:#f6cf32"/><path class="cls-7" d="M152.46 159.16c1-1.32 2-2.75 3.25-4.27a55.61 55.61 0 0 1 3.73-4.27 29.73 29.73 0 0 1 3.8-3.35 7.11 7.11 0 0 1 3.49-1.5 2.87 2.87 0 0 1 .9.07 2.16 2.16 0 0 1 .93.47 2.63 2.63 0 0 1 .71 1.06 4.68 4.68 0 0 1 .22 1.83 16.35 16.35 0 0 1-.84 4.47q-.74 2.2-1.58 4.42-.84 2.22-1.58 4.51a18.69 18.69 0 0 0-.83 4.73 4.52 4.52 0 0 0 .31 2.1 1 1 0 0 0 1 .71 5.58 5.58 0 0 0 1.73-.48 12.91 12.91 0 0 0 1.85-1 20.45 20.45 0 0 0 1.84-1.34c.6-.5 1.17-1 1.71-1.52a47 47 0 0 0 3.8-4.07c.07 3.54.11 5.31.18 8.85l-1.59 1.24c-.63.5-1.34 1-2.11 1.6-.77.6-1.61 1.14-2.51 1.74-.9.6-1.8 1.12-2.7 1.6a23.05 23.05 0 0 1-2.7 1.23 9.14 9.14 0 0 1-2.55.63 4.84 4.84 0 0 1-3.16-.66 6.37 6.37 0 0 1-2.11-2.26 10.52 10.52 0 0 1-1.16-3.17 13.54 13.54 0 0 1-.28-3.36 12 12 0 0 1 .39-2.42c.23-.9.5-1.81.82-2.73.32-.92.67-1.83 1.05-2.71.38-.88.75-1.68 1.08-2.38.33-.7.62-1.27.86-1.72a4.85 4.85 0 0 1 .47-.78h-.7a16 16 0 0 0-2 2.09q-1.42 1.65-3.24 4.15c-1.2 1.67-2.46 3.53-3.76 5.6a71.07 71.07 0 0 0-3.55 6.37c-.54 1.07-1 2-1.32 2.8a18 18 0 0 1-1 2 5.07 5.07 0 0 1-1 1.24 2.89 2.89 0 0 1-1.39.59 2 2 0 0 1-1.7-.34 3 3 0 0 1-.89-1.52 9.58 9.58 0 0 1-.33-2.31v-2.72q.1-2.24.31-5.87c.15-2.42.37-5.11.68-8.08.31-2.97.7-6.11 1.18-9.41s1.1-6.6 1.85-9.88a88.53 88.53 0 0 1 2.71-9.45 44.25 44.25 0 0 1 3.71-8.13 22.25 22.25 0 0 1 4.9-5.87 11.57 11.57 0 0 1 6.24-2.67 6.46 6.46 0 0 1 2.95.22 3.69 3.69 0 0 1 1.78 1.33 5.31 5.31 0 0 1 .85 2.23 15.07 15.07 0 0 1 .13 3 25.15 25.15 0 0 1-.95 5.53 64.35 64.35 0 0 1-2.14 6.42c-.87 2.23-1.84 4.51-2.93 6.83-1.09 2.32-2.18 4.57-3.3 6.77-1.12 2.2-2.22 4.29-3.29 6.26l-2.85 5.22zm3.9-21a92.15 92.15 0 0 0 3.25-8.95 25.46 25.46 0 0 0 1.12-5.28c.08-1.69-.11-2.51-.56-2.46-.45.05-1.48 1.11-2.7 3.14a82.62 82.62 0 0 0-4.39 8.77c-.43 1.27-.84 2.59-1.22 3.95-.38 1.36-.73 2.7-1 4-.27 1.3-.6 2.65-.87 3.94s-.5 2.51-.71 3.67q-.73 4.05-1.22 7.91c.67-1.5 1.39-3.12 2.18-4.87.79-1.75 1.56-3.47 2.32-5.18l2.17-4.83c.65-1.49 1.19-2.77 1.65-3.82z" id="path184" style="fill:#f6cf32"/><path class="cls-7" d="M195.1 170.26a31.66 31.66 0 0 1-3.12 2.32 35.79 35.79 0 0 1-8.31 4.12 14.72 14.72 0 0 1-4.15.82 7.7 7.7 0 0 1-2.92-.36 4.31 4.31 0 0 1-1.88-1.26 4.74 4.74 0 0 1-1-2.06 10.76 10.76 0 0 1-.2-2.73 30.44 30.44 0 0 1 .71-4.92c.41-1.88.89-3.82 1.45-5.84.56-2.02 1.15-4 1.76-6 .61-2 1.16-3.85 1.64-5.54a3.4 3.4 0 0 1 1-1.52 6.88 6.88 0 0 1 1.64-1.06 10 10 0 0 1 3.62-.85 2.53 2.53 0 0 1 1.89.49 1.78 1.78 0 0 1 .44 1.37 9.72 9.72 0 0 1-.43 2.13c-.26.92-.59 2-1 3.15-.41 1.15-.8 2.44-1.24 3.79-.44 1.35-.86 2.71-1.26 4.06-.4 1.35-.74 2.68-1 4a21.34 21.34 0 0 0-.49 3.47 6.71 6.71 0 0 0 .23 2.37 1.22 1.22 0 0 0 1.34.85 5.85 5.85 0 0 0 2.73-.88 27.27 27.27 0 0 0 3.08-2 82.13 82.13 0 0 0 3.07-2.44c1-.83 1.88-1.55 2.65-2.14zm-13.5-34.17a6 6 0 0 1 .42-1.75 5.87 5.87 0 0 1 1.17-1.85 6.77 6.77 0 0 1 2.08-1.49 7.64 7.64 0 0 1 3.17-.64 8.27 8.27 0 0 1 2.21.25 4.93 4.93 0 0 1 1.78.81 3.65 3.65 0 0 1 1.16 1.46 4.49 4.49 0 0 1 .36 2.14 6.72 6.72 0 0 1-.47 2.2 5.54 5.54 0 0 1-1.26 1.9 6.61 6.61 0 0 1-2.09 1.35 8.07 8.07 0 0 1-3 .55 5.77 5.77 0 0 1-4.31-1.29 4.61 4.61 0 0 1-1.22-3.62z" id="path186" style="fill:#f6cf32"/><path class="cls-7" d="M199.89 177.52a4.67 4.67 0 0 1-3.31-1.68 13.47 13.47 0 0 1-2.53-4.3 28.19 28.19 0 0 1-1.54-6.21 39.87 39.87 0 0 1-.32-7.4 54.24 54.24 0 0 1 .72-6.46q.6-3.48 1.6-7.18c.67-2.46 1.45-4.94 2.33-7.41a76.26 76.26 0 0 1 3-7.12 59.69 59.69 0 0 1 3.46-6.32 33.65 33.65 0 0 1 3.83-5.05 16.19 16.19 0 0 1 4.08-3.27 7.49 7.49 0 0 1 4.21-1 4.11 4.11 0 0 1 2.35.85 4.72 4.72 0 0 1 1.4 1.85 8.58 8.58 0 0 1 .65 2.49 18.24 18.24 0 0 1 .09 2.77 28.76 28.76 0 0 1-1 6.33 47.24 47.24 0 0 1-2.23 6.36 70.66 70.66 0 0 1-3.13 6.37q-1.75 3.18-3.64 6.32c-1.26 2.1-2.53 4.16-3.8 6.2s-2.46 4.05-3.58 6a8 8 0 0 0-.39.85c-.14.35-.28.73-.41 1.14-.13.41-.26.84-.39 1.31-.13.47-.24.91-.33 1.36v.46a7.37 7.37 0 0 0 .11 1.7 9.1 9.1 0 0 0 .38 1.48 4.54 4.54 0 0 0 .53 1.06c.19.26.37.4.55.41a5 5 0 0 0 1.48-.21 13.13 13.13 0 0 0 1.77-.63c.63-.26 1.28-.57 1.95-.92.67-.35 1.31-.71 1.93-1.07q2.17-1.26 4.57-2.91l2.43 7.25q-3.08 1.86-6.07 3.33c-.87.4-1.77.81-2.69 1.21-.92.4-1.86.75-2.79 1.06a21.68 21.68 0 0 1-2.78.72 10.8 10.8 0 0 1-2.49.26zm1.23-26.7q1.62-2.61 3.47-5.88t3.52-6.71q1.66-3.45 2.93-6.9a27.47 27.47 0 0 0 1.7-6.46 13.61 13.61 0 0 0 0-1.66c0-.45-.11-.69-.29-.7a2.94 2.94 0 0 0-2.16 1.11 17.11 17.11 0 0 0-2.4 3.26 39.48 39.48 0 0 0-2.37 4.86q-1.14 2.79-2.1 6a64.52 64.52 0 0 0-1.54 6.52 47.81 47.81 0 0 0-.76 6.56z" id="path188" style="fill:#f6cf32"/><path class="cls-7" d="M219.17 178.83a5 5 0 0 1-3.29-1.9 15 15 0 0 1-2.53-4.49 29.66 29.66 0 0 1-1.53-6.33 40.42 40.42 0 0 1-.32-7.44 53.12 53.12 0 0 1 .72-6.43q.6-3.45 1.6-7.1c.67-2.42 1.44-4.85 2.33-7.28a72.62 72.62 0 0 1 2.93-6.94 54.45 54.45 0 0 1 3.45-6.11 30.36 30.36 0 0 1 3.81-4.81 14.62 14.62 0 0 1 4.06-3 7.15 7.15 0 0 1 4.19-.7 4.41 4.41 0 0 1 2.33 1 5.27 5.27 0 0 1 1.39 1.95 9.19 9.19 0 0 1 .64 2.54 18.59 18.59 0 0 1 .09 2.79 28 28 0 0 1-1 6.28 44.19 44.19 0 0 1-2.22 6.23 66.17 66.17 0 0 1-3.11 6.18q-1.74 3.08-3.62 6.1-1.88 3.02-3.78 6-1.89 2.94-3.57 5.78a7.47 7.47 0 0 0-.39.83c-.14.34-.27.72-.4 1.11-.13.39-.26.83-.39 1.29a11.37 11.37 0 0 0-.33 1.34v.47a7.44 7.44 0 0 0 .11 1.7 8.88 8.88 0 0 0 .38 1.52 5.3 5.3 0 0 0 .52 1.09.89.89 0 0 0 .56.45 4.77 4.77 0 0 0 1.46-.11 12.13 12.13 0 0 0 1.77-.51c.63-.23 1.27-.49 1.93-.8.66-.31 1.31-.62 1.92-.94 1.45-.75 3-1.62 4.55-2.61 1 3 1.45 4.45 2.41 7.43-2 1.11-4 2.08-6 2.93-.86.35-1.76.69-2.68 1a28.65 28.65 0 0 1-2.78.92 22.08 22.08 0 0 1-2.71.55 10.78 10.78 0 0 1-2.5.02zm1.21-26.69c1.08-1.68 2.24-3.57 3.46-5.67 1.22-2.1 2.39-4.26 3.5-6.5a70.05 70.05 0 0 0 2.94-6.71 26.31 26.31 0 0 0 1.69-6.37 11.71 11.71 0 0 0 0-1.66c0-.46-.1-.7-.28-.73a2.75 2.75 0 0 0-2.14 1 14.77 14.77 0 0 0-2.39 3.1 35.89 35.89 0 0 0-2.36 4.73 58.25 58.25 0 0 0-2.09 5.83 59.72 59.72 0 0 0-1.57 6.46 47.18 47.18 0 0 0-.76 6.52z" id="path190" style="fill:#f6cf32"/><path class="cls-7" d="M249.06 157.6a4.35 4.35 0 0 1 1-1.83 5.54 5.54 0 0 1 1.62-1.16 5.83 5.83 0 0 1 1.87-.5 5.75 5.75 0 0 1 1.83.15 3.6 3.6 0 0 1 1.69.84 1.92 1.92 0 0 1 .63 1.58 2.69 2.69 0 0 1-.13.68q-.24.82-.6 2.25c-.24 1-.51 2-.8 3.26-.29 1.26-.58 2.5-.88 3.86-.3 1.36-.59 2.72-.88 4.06-.68 3.16-1.42 6.58-2.16 10.24a20.64 20.64 0 0 0 2.21-.92 17.88 17.88 0 0 0 2.66-1.64 37.91 37.91 0 0 0 3.31-2.75 56.84 56.84 0 0 0 4.13-4.29c.49 3.13.74 4.7 1.24 7.83a9.53 9.53 0 0 1-1.62 1.71 22.59 22.59 0 0 1-2.16 1.64c-.78.52-1.6 1-2.45 1.5-.85.5-1.68.92-2.5 1.33q-2.88 1.47-6.2 2.77c-.53 2.29-1.12 4.5-1.8 6.64a44 44 0 0 1-2.31 5.92 30.39 30.39 0 0 1-2.92 4.89 16.38 16.38 0 0 1-3.6 3.6 12.82 12.82 0 0 1-4.39 2 13.75 13.75 0 0 1-5.27.16 15.48 15.48 0 0 1-2.44-.58 7.83 7.83 0 0 1-2.39-1.26 6.3 6.3 0 0 1-1.76-2.24 7.42 7.42 0 0 1-.58-3.56 8.69 8.69 0 0 1 .92-3.29 22.43 22.43 0 0 1 2.28-3.71 39.25 39.25 0 0 1 3.36-3.9q1.93-2 4.18-3.9t4.68-3.67c1.63-1.18 3.26-2.27 4.91-3.28l1-2.94a15.31 15.31 0 0 1-3.85 1.9 8.11 8.11 0 0 1-3.81.33 8.7 8.7 0 0 1-3.08-1.15 9.48 9.48 0 0 1-2.59-2.27 10.33 10.33 0 0 1-1.74-3.23 11.05 11.05 0 0 1-.52-4.05 46.42 46.42 0 0 1 .52-5.3 35 35 0 0 1 1-4.53 30.77 30.77 0 0 1 1.52-4.07 41.07 41.07 0 0 1 2-3.88 4.45 4.45 0 0 1 2.29-1.95 5.41 5.41 0 0 1 2.83-.33 3.93 3.93 0 0 1 2 .93 2.39 2.39 0 0 1 .74 2 4.57 4.57 0 0 1-.11.78 4.65 4.65 0 0 1-.33.89 35.35 35.35 0 0 0-1.34 3.41c-.45 1.33-.85 2.69-1.22 4.1-.37 1.41-.66 2.8-.9 4.17a29.54 29.54 0 0 0-.44 3.66 11.15 11.15 0 0 0 0 1.64 5.27 5.27 0 0 0 .35 1.47 3.29 3.29 0 0 0 .75 1.13 2.27 2.27 0 0 0 1.25.61 2.69 2.69 0 0 0 2.27-.67 8.65 8.65 0 0 0 1.83-2.25 16.33 16.33 0 0 0 1.32-2.88 17.63 17.63 0 0 0 .69-2.56c1.21-3.79 1.79-5.66 2.89-9.39zm-17.77 47.45a4.51 4.51 0 0 0 2.68-.41 8.1 8.1 0 0 0 2.41-1.78 15.77 15.77 0 0 0 2-2.71 31.71 31.71 0 0 0 1.68-3.22c.49-1.11.92-2.21 1.28-3.29s.65-2 .87-2.9a19.58 19.58 0 0 0-2.73 1.59 31.73 31.73 0 0 0-2.74 2.14 34.88 34.88 0 0 0-2.55 2.46 30.26 30.26 0 0 0-2.14 2.51 15.53 15.53 0 0 0-1.48 2.32 4.73 4.73 0 0 0-.59 1.86 1.28 1.28 0 0 0 1.31 1.43z" id="path192" style="fill:#f6cf32"/><path class="cls-3" d="M112.67 112.26a36 36 0 0 1 12.23-1.53 26 26 0 0 1 9.75 2.43 20.6 20.6 0 0 1 7 5.47 20.81 20.81 0 0 1 4 7.6 21.67 21.67 0 0 1 .69 8.14 23.12 23.12 0 0 1-2.55 8.34 28.65 28.65 0 0 1-6.1 7.76 37.76 37.76 0 0 1-9.94 6.4q.71 2.94 1.32 5.38l.51 2.1c.17.69.33 1.33.48 1.9.15.57.27 1.08.38 1.51l.23.88a36.46 36.46 0 0 1 1 6 35.44 35.44 0 0 1 0 6.35 33.49 33.49 0 0 1-1.12 6.18 21.66 21.66 0 0 1-2.38 5.54 17.39 17.39 0 0 1-3.8 4.39 14.45 14.45 0 0 1-5.33 2.75 10.68 10.68 0 0 1-6.31 0 16.86 16.86 0 0 1-5.79-3.27 30.63 30.63 0 0 1-5.14-5.68 59.76 59.76 0 0 1-4.39-7.2 76.14 76.14 0 0 1-3.56-7.87c-1-2.68-1.9-5.25-2.59-7.69a64.39 64.39 0 0 1-2.3-12.46 58.82 58.82 0 0 1 .18-11.9 47.55 47.55 0 0 1 2.56-10.81 37.69 37.69 0 0 1 4.84-9.21 31.31 31.31 0 0 1 7-7.05 28.65 28.65 0 0 1 9.13-4.45zM101.59 164c.31 1.09.74 2.56 1.27 4.39.53 1.83 1.18 3.79 1.91 5.85.73 2.06 1.54 4.12 2.44 6.19a34.81 34.81 0 0 0 3 5.46 14.39 14.39 0 0 0 3.35 3.64 4.15 4.15 0 0 0 3.72.73 5 5 0 0 0 3.06-2.4 11.78 11.78 0 0 0 1.34-4.34 26.51 26.51 0 0 0 .06-5.52c-.16-2-.43-4-.78-6-.35-2-.76-3.82-1.2-5.57-.44-1.75-.84-3.24-1.19-4.46l-.53-1.87a57.36 57.36 0 0 1-5.85-.83 13.06 13.06 0 0 1-3.39-1.1 4.28 4.28 0 0 1-1.76-1.58 10.37 10.37 0 0 1-.93-2.3c-.14-.47-.26-.95-.36-1.42a4.66 4.66 0 0 1-.13-1.3 2.2 2.2 0 0 1 .26-1 1.29 1.29 0 0 1 .84-.6 1.74 1.74 0 0 1 .78-.05c.26 0 .59.11 1 .19 1 .23 1.92.4 2.72.5.8.1 1.49.17 2 .21a12.83 12.83 0 0 0 1.73 0c-.1-.35-.29-1-.56-2.06-.27-1.06-.53-2.21-.76-3.57a35.43 35.43 0 0 1-.44-4.32 16.44 16.44 0 0 1 .39-4.37 9.52 9.52 0 0 1 1.75-3.7 6.72 6.72 0 0 1 3.6-2.3 9 9 0 0 1 1.45-.24 4 4 0 0 1 1.52.13 3.27 3.27 0 0 1 1.33.72 3.07 3.07 0 0 1 .88 1.51q.07.28.09.39a1.05 1.05 0 0 0 0 .26l.48 10.91.54 3.25a26 26 0 0 0 6.18-3.82 17.63 17.63 0 0 0 3.79-4.44 12.26 12.26 0 0 0 1.63-4.72 12 12 0 0 0-.37-4.67 13.71 13.71 0 0 0-2.15-4.31 11.06 11.06 0 0 0-4.17-3.39 16.83 16.83 0 0 0-6.54-1.54 28.51 28.51 0 0 0-9.21 1.32 17.54 17.54 0 0 0-6.85 3.6 20.41 20.41 0 0 0-4.62 5.81 28.26 28.26 0 0 0-2.68 7.38 43.83 43.83 0 0 0-1 8.34 53.78 53.78 0 0 0 .53 8.66 64.37 64.37 0 0 0 1.83 8.34z" id="path194" style="fill:#3a3a3a"/><path class="cls-3" d="M155.52 161.96c1-1.32 2.05-2.74 3.25-4.27 1.2-1.53 2.44-2.94 3.72-4.27a29.12 29.12 0 0 1 3.81-3.35 7.08 7.08 0 0 1 3.49-1.5 3.23 3.23 0 0 1 .9.07 2.18 2.18 0 0 1 .93.48 2.49 2.49 0 0 1 .7 1.06 4.45 4.45 0 0 1 .22 1.83 16.1 16.1 0 0 1-.83 4.47c-.49 1.46-1 2.94-1.59 4.41-.59 1.47-1.09 3-1.57 4.51a18.33 18.33 0 0 0-.83 4.73 4.39 4.39 0 0 0 .31 2.1c.24.51.58.75 1 .71a5.62 5.62 0 0 0 1.73-.47 13.56 13.56 0 0 0 1.85-1 20.32 20.32 0 0 0 1.83-1.34c.61-.49 1.18-1 1.71-1.52a47.08 47.08 0 0 0 3.81-4.07c.07 3.54.1 5.31.17 8.85l-1.58 1.24c-.64.5-1.34 1-2.12 1.6-.78.6-1.61 1.15-2.5 1.74-.89.59-1.8 1.13-2.7 1.6a26.81 26.81 0 0 1-2.7 1.24 9.64 9.64 0 0 1-2.55.62 4.84 4.84 0 0 1-3.16-.66 6.31 6.31 0 0 1-2.12-2.26 11 11 0 0 1-1.16-3.17 14 14 0 0 1-.28-3.35 11.85 11.85 0 0 1 .39-2.42c.23-.91.51-1.82.82-2.74.31-.92.67-1.83 1.06-2.71.39-.88.74-1.68 1.07-2.38.33-.7.62-1.27.86-1.72a5.82 5.82 0 0 1 .47-.78h-.7a15 15 0 0 0-2 2.08c-1 1.1-2 2.49-3.23 4.15-1.23 1.66-2.46 3.54-3.76 5.61a71 71 0 0 0-3.56 6.36c-.53 1.07-1 2-1.32 2.8a15.07 15.07 0 0 1-1 2 4.69 4.69 0 0 1-1 1.24 2.89 2.89 0 0 1-1.38.59 2 2 0 0 1-1.71-.34 3.11 3.11 0 0 1-.89-1.52 9.13 9.13 0 0 1-.32-2.31v-2.72c.06-1.49.17-3.45.31-5.87.14-2.42.37-5.11.68-8.08.31-2.97.7-6.11 1.18-9.41s1.09-6.6 1.84-9.87a92.9 92.9 0 0 1 2.71-9.46 44.25 44.25 0 0 1 3.71-8.13 22.8 22.8 0 0 1 4.9-5.87 11.6 11.6 0 0 1 6.25-2.67 6.55 6.55 0 0 1 2.94.22 3.71 3.71 0 0 1 1.78 1.33 5.18 5.18 0 0 1 .85 2.23 15 15 0 0 1 .14 3 25.94 25.94 0 0 1-.95 5.54c-.56 2-1.28 4.18-2.14 6.41-.86 2.23-1.85 4.51-2.93 6.83-1.08 2.32-2.18 4.58-3.3 6.78-1.12 2.2-2.22 4.28-3.3 6.26l-2.84 5.22zm3.9-21a92.15 92.15 0 0 0 3.25-8.95 26.09 26.09 0 0 0 1.12-5.27c.07-1.69-.11-2.51-.56-2.46-.45.05-1.48 1.11-2.71 3.14a84.55 84.55 0 0 0-4.38 8.76c-.44 1.27-.84 2.59-1.23 3.95-.39 1.36-.72 2.71-1 4s-.6 2.66-.87 3.94c-.27 1.28-.51 2.52-.71 3.67-.49 2.7-.91 5.34-1.22 7.91.66-1.49 1.39-3.11 2.17-4.86.78-1.75 1.57-3.48 2.33-5.19.76-1.71 1.48-3.32 2.16-4.83.68-1.51 1.2-2.77 1.61-3.82z" id="path196" style="fill:#3a3a3a"/><path class="cls-3" d="M198.15 173.09a31.47 31.47 0 0 1-3.11 2.31 36.54 36.54 0 0 1-4 2.31 34.5 34.5 0 0 1-4.33 1.81 14.31 14.31 0 0 1-4.15.82 7.53 7.53 0 0 1-2.92-.36 4.32 4.32 0 0 1-1.87-1.25 4.56 4.56 0 0 1-1-2.07 10.76 10.76 0 0 1-.2-2.73 29.51 29.51 0 0 1 .71-4.92c.4-1.87.89-3.82 1.45-5.84.56-2.02 1.14-4 1.76-6 .62-2 1.16-3.85 1.64-5.54a3.32 3.32 0 0 1 1-1.52 6.69 6.69 0 0 1 1.64-1.06 9.54 9.54 0 0 1 1.87-.62 10.18 10.18 0 0 1 1.74-.23 2.6 2.6 0 0 1 1.9.49 1.83 1.83 0 0 1 .44 1.38 10.3 10.3 0 0 1-.43 2.12c-.27.93-.59 2-1 3.15-.41 1.15-.81 2.44-1.25 3.79-.44 1.35-.86 2.71-1.25 4.07-.39 1.36-.74 2.67-1 4a20.19 20.19 0 0 0-.49 3.46 6.57 6.57 0 0 0 .23 2.38 1.24 1.24 0 0 0 1.34.85 6.1 6.1 0 0 0 2.72-.88 27 27 0 0 0 3.09-2.05c1-.79 2.06-1.6 3.06-2.44 1-.84 1.89-1.55 2.66-2.14zm-13.49-34.18a5.56 5.56 0 0 1 .41-1.74 6 6 0 0 1 1.18-1.86 6.65 6.65 0 0 1 2.08-1.49 7.6 7.6 0 0 1 3.17-.64 8.76 8.76 0 0 1 2.21.25 5.19 5.19 0 0 1 1.78.81 3.73 3.73 0 0 1 1.16 1.46 4.77 4.77 0 0 1 .36 2.14 6.93 6.93 0 0 1-.47 2.2 5.54 5.54 0 0 1-1.26 1.9 6.66 6.66 0 0 1-2.1 1.35 8 8 0 0 1-3 .55c-2 0-3.41-.39-4.31-1.29a4.57 4.57 0 0 1-1.21-3.64z" id="path198" style="fill:#3a3a3a"/><path class="cls-3" d="M202.94 180.33a4.68 4.68 0 0 1-3.3-1.69 13.28 13.28 0 0 1-2.53-4.3 27.64 27.64 0 0 1-1.54-6.21 39.85 39.85 0 0 1-.33-7.4 52 52 0 0 1 .73-6.45c.39-2.33.93-4.72 1.6-7.19.67-2.47 1.45-4.93 2.33-7.41a77.37 77.37 0 0 1 2.94-7.12 61.76 61.76 0 0 1 3.47-6.32 34.15 34.15 0 0 1 3.82-5.05 16.19 16.19 0 0 1 4.08-3.27 7.61 7.61 0 0 1 4.22-1 4.21 4.21 0 0 1 2.35.85 4.79 4.79 0 0 1 1.4 1.85 8.58 8.58 0 0 1 .64 2.49 17 17 0 0 1 .1 2.77 29.27 29.27 0 0 1-1 6.33 47.93 47.93 0 0 1-2.24 6.37q-1.37 3.18-3.12 6.36t-3.66 6.32q-1.89 3.15-3.79 6.21-1.9 3.06-3.59 6a7.43 7.43 0 0 0-.39.86c-.14.35-.27.73-.4 1.13-.13.4-.26.85-.4 1.31-.14.46-.24.92-.33 1.36v.47a7.92 7.92 0 0 0 .11 1.69 9.07 9.07 0 0 0 .39 1.48 4.34 4.34 0 0 0 .53 1.06c.19.26.37.4.55.41a4.9 4.9 0 0 0 1.47-.2 16.75 16.75 0 0 0 1.78-.63c.63-.27 1.28-.58 1.94-.93a63.141 63.141 0 0 0 6.5-3.98c1 2.9 1.46 4.35 2.44 7.25a80.262 80.262 0 0 1-6.07 3.33c-.87.4-1.77.81-2.7 1.21-.93.4-1.85.75-2.79 1.06a21.55 21.55 0 0 1-2.72.72 10.88 10.88 0 0 1-2.49.26zm1.23-26.71q1.63-2.61 3.48-5.87c1.23-2.18 2.4-4.41 3.51-6.72 1.11-2.31 2.09-4.6 2.94-6.9a27.34 27.34 0 0 0 1.7-6.46 13.26 13.26 0 0 0 0-1.65c0-.46-.11-.7-.29-.71a3 3 0 0 0-2.15 1.11 16.3 16.3 0 0 0-2.4 3.26 39.66 39.66 0 0 0-2.37 4.87 60 60 0 0 0-2.1 6 61.19 61.19 0 0 0-1.57 6.54 48 48 0 0 0-.75 6.53z" id="path200" style="fill:#3a3a3a"/><path class="cls-3" d="M222.23 181.64a5 5 0 0 1-3.3-1.91 14.79 14.79 0 0 1-2.55-4.47 29.66 29.66 0 0 1-1.53-6.33 41.3 41.3 0 0 1-.33-7.44 51.51 51.51 0 0 1 .73-6.43c.39-2.3.93-4.67 1.59-7.09s1.45-4.86 2.33-7.29a72.62 72.62 0 0 1 2.93-6.94 57.78 57.78 0 0 1 3.45-6.11 32 32 0 0 1 3.81-4.81 14.8 14.8 0 0 1 4.07-3 7.07 7.07 0 0 1 4.19-.69 4.4 4.4 0 0 1 2.33 1 5.39 5.39 0 0 1 1.43 1.93 9.56 9.56 0 0 1 .64 2.54 18.59 18.59 0 0 1 .09 2.79 29.13 29.13 0 0 1-1 6.28 47.5 47.5 0 0 1-2.22 6.24q-1.37 3.09-3.11 6.17-1.74 3.08-3.63 6.1-1.87 3-3.77 6t-3.57 5.78a7.47 7.47 0 0 0-.39.83c-.14.35-.27.72-.4 1.12-.13.4-.26.82-.4 1.28-.14.46-.24.9-.33 1.34v.47a8 8 0 0 0 .11 1.7 9.6 9.6 0 0 0 .39 1.52 4.63 4.63 0 0 0 .52 1.09c.19.28.37.43.55.45a4.56 4.56 0 0 0 1.47-.11 12.13 12.13 0 0 0 1.77-.51c.62-.22 1.27-.49 1.93-.8a54.753 54.753 0 0 0 6.46-3.55l2.42 7.43q-3.06 1.67-6 2.93c-.87.35-1.76.7-2.68 1-.92.3-1.85.63-2.78.88a23.6 23.6 0 0 1-2.71.54 11.34 11.34 0 0 1-2.51.07zm1.22-26.7c1.09-1.68 2.24-3.57 3.47-5.67s2.39-4.26 3.49-6.49a71.32 71.32 0 0 0 2.92-6.73 26.36 26.36 0 0 0 1.7-6.37 15.54 15.54 0 0 0 0-1.65c0-.47-.11-.71-.29-.73a2.73 2.73 0 0 0-2.14 1 14.6 14.6 0 0 0-2.38 3.11 35.11 35.11 0 0 0-2.36 4.72 57.55 57.55 0 0 0-2.1 5.84 59 59 0 0 0-1.56 6.45 47.23 47.23 0 0 0-.75 6.52z" id="path202" style="fill:#3a3a3a"/><path class="cls-3" d="M252.11 160.4a4.36 4.36 0 0 1 1-1.83 5.17 5.17 0 0 1 1.61-1.15 5.66 5.66 0 0 1 1.87-.51 5.79 5.79 0 0 1 1.83.11 3.7 3.7 0 0 1 1.69.84 1.94 1.94 0 0 1 .62 1.58 2.61 2.61 0 0 1-.13.68c-.15.55-.35 1.3-.6 2.26-.25.96-.5 2-.79 3.25-.29 1.25-.58 2.5-.89 3.86-.31 1.36-.59 2.72-.88 4.07-.67 3.15-1.41 6.58-2.15 10.23a19.72 19.72 0 0 0 2.2-.92 18.45 18.45 0 0 0 2.67-1.64 36.2 36.2 0 0 0 3.3-2.75 56.75 56.75 0 0 0 4.14-4.29c.49 3.13.74 4.7 1.23 7.83a9.84 9.84 0 0 1-1.61 1.72 25.37 25.37 0 0 1-2.16 1.63c-.78.53-1.6 1-2.45 1.5-.85.5-1.68.92-2.5 1.34q-2.88 1.46-6.21 2.76c-.52 2.29-1.12 4.51-1.79 6.64a44 44 0 0 1-2.32 5.92 30.21 30.21 0 0 1-2.92 4.9 16.38 16.38 0 0 1-3.6 3.6 12.82 12.82 0 0 1-4.39 2 13.69 13.69 0 0 1-5.26.17 16.19 16.19 0 0 1-2.44-.59 7.51 7.51 0 0 1-2.39-1.26 6.13 6.13 0 0 1-1.77-2.24 7.31 7.31 0 0 1-.57-3.56 8.51 8.51 0 0 1 .93-3.29 21.15 21.15 0 0 1 2.28-3.71 40.42 40.42 0 0 1 3.36-3.9q1.93-2 4.18-3.9t4.68-3.67c1.62-1.17 3.26-2.27 4.91-3.28l1-2.93a14.89 14.89 0 0 1-3.84 1.89 8 8 0 0 1-3.81.33 8.6 8.6 0 0 1-3.08-1.14 9.69 9.69 0 0 1-2.6-2.27 10.48 10.48 0 0 1-1.73-3.24 10.84 10.84 0 0 1-.52-4.05 44.47 44.47 0 0 1 .52-5.3 36.76 36.76 0 0 1 1-4.53 29.32 29.32 0 0 1 1.53-4.06 42.26 42.26 0 0 1 2-3.89 4.52 4.52 0 0 1 2.3-1.95 5.3 5.3 0 0 1 2.83-.32 3.81 3.81 0 0 1 2 .92 2.37 2.37 0 0 1 .75 2 3.89 3.89 0 0 1-.12.79 5.26 5.26 0 0 1-.32.88 32.3 32.3 0 0 0-1.34 3.42c-.45 1.32-.86 2.69-1.22 4.09s-.67 2.8-.91 4.17a29.36 29.36 0 0 0-.43 3.66 12.74 12.74 0 0 0 0 1.64 5.46 5.46 0 0 0 .36 1.47 3.33 3.33 0 0 0 .75 1.14 2.3 2.3 0 0 0 1.24.6 2.67 2.67 0 0 0 2.27-.67 8.48 8.48 0 0 0 1.84-2.25 15.61 15.61 0 0 0 1.31-2.88 16.84 16.84 0 0 0 .7-2.55c1.19-3.77 1.74-5.64 2.84-9.37zm-17.73 47.46a4.47 4.47 0 0 0 2.69-.42 8.23 8.23 0 0 0 2.31-1.78 15.35 15.35 0 0 0 2-2.71 28.12 28.12 0 0 0 1.68-3.22 34.72 34.72 0 0 0 1.29-3.28c.36-1.08.64-2.05.86-2.91a18.74 18.74 0 0 0-2.73 1.6 31.15 31.15 0 0 0-2.74 2.13q-1.33 1.19-2.55 2.46a32.32 32.32 0 0 0-2.14 2.51 15.53 15.53 0 0 0-1.48 2.32 4.85 4.85 0 0 0-.58 1.87c.04.83.47 1.29 1.39 1.43z" id="path204" style="fill:#3a3a3a"/><path class="cls-8" d="M181.72 98.54a232 232 0 0 1-44.16-4.28c-39.75-7.73-65.58-23-66.66-23.66l8.63-14.42-4.31 7.21 4.3-7.21c.25.14 24.84 14.61 61.87 21.71 49.23 9.43 96 2.09 139.11-21.84l8.16 14.68a218.11 218.11 0 0 1-106.94 27.81z" id="path206" style="fill:#fff"/><path class="cls-2" d="M294.75 56.74c-74.62 45.73-156 45.73-230.67 0l20.3-29.83c62.4 37.28 127.68 37.31 190.12 0z" id="path208" style="fill:#ffe67b"/><path class="cls-15" d="M90.38 42.44c1.2.69 1.81 1 3 1.69-1 4.57-1.43 6.86-2.26 11.48h.05c3.57-3.18 5.32-4.81 8.72-8.11 1.11.55 1.67.82 2.78 1.35-.51 4.71-.72 7.07-1.05 11.83h.05c3.17-3.48 4.71-5.25 7.73-8.83 1.17.5 1.75.74 2.93 1.21-4.22 5-6.4 7.45-10.93 12.25-1.18-.52-1.77-.78-2.95-1.32.35-5 .58-7.55 1.15-12.53h-.05c-3.56 3.52-5.39 5.25-9.14 8.64-1.12-.57-1.68-.87-2.79-1.46.94-6.52 1.49-9.77 2.76-16.2z" id="path210" style="fill:#231f20"/><path class="cls-15" d="M110.38 60.77a8 8 0 0 1 1.91-2.89 7.87 7.87 0 0 1 2.75-1.72 9 9 0 0 1 3.32-.54 12.33 12.33 0 0 1 3.69.68 12.76 12.76 0 0 1 3.39 1.67 8.94 8.94 0 0 1 2.33 2.43 7.74 7.74 0 0 1 1.14 3 8 8 0 0 1-.24 3.44 7.23 7.23 0 0 1-4.28 4.88 9.38 9.38 0 0 1-3.51.67 13 13 0 0 1-7.67-2.55 9.17 9.17 0 0 1-2.38-2.63 7.21 7.21 0 0 1-.45-6.47zm3.23 1.06a5.72 5.72 0 0 0-.38 2.31 5.19 5.19 0 0 0 .58 2.16 6.07 6.07 0 0 0 1.49 1.82 8 8 0 0 0 5 1.69 6.12 6.12 0 0 0 2.3-.54 5.18 5.18 0 0 0 1.76-1.36 5.56 5.56 0 0 0 1.1-2.07 5.4 5.4 0 0 0 .21-2.21 5.52 5.52 0 0 0-.68-2.05 5.93 5.93 0 0 0-1.47-1.71 7.82 7.82 0 0 0-4.72-1.6 6 6 0 0 0-2.21.46 5.48 5.48 0 0 0-1.78 1.22 5.38 5.38 0 0 0-1.18 1.88z" id="path212" style="fill:#231f20"/><path class="cls-15" d="M133.63 60.19c2.33.62 3.5.91 5.85 1.44a15.19 15.19 0 0 1 2.31.73 6.84 6.84 0 0 1 1.88 1.12 4.11 4.11 0 0 1 1.16 1.61 4 4 0 0 1 .13 2.24 4 4 0 0 1-1.6 2.57 4.75 4.75 0 0 1-3.31.73c1.31 3.09 2 4.63 3.45 7.69-1.58-.29-2.37-.45-4-.78-1.16-2.93-1.71-4.4-2.76-7.35-.92-.21-1.38-.32-2.3-.55-.63 2.56-.94 3.84-1.57 6.39-1.3-.32-1.95-.48-3.25-.83 1.63-6 2.42-9 4.01-15.01zm3.84 7.73c.44.1.89.19 1.34.25a4.24 4.24 0 0 0 1.28 0 2 2 0 0 0 1-.43 1.82 1.82 0 0 0 .59-1.09 1.79 1.79 0 0 0-.09-1.14 2 2 0 0 0-.7-.79 4.17 4.17 0 0 0-1.06-.51 12 12 0 0 0-1.19-.34c-1.05-.24-1.57-.37-2.62-.63-.41 1.64-.61 2.46-1 4.09 1 .25 1.48.37 2.45.59z" id="path214" style="fill:#231f20"/><path class="cls-15" d="M148.67 63.48c1.21.21 1.82.31 3 .5-.81 5.15-1.21 7.72-2 12.87 3.11.49 4.67.7 7.8 1.06-.12 1-.17 1.49-.29 2.48-4.49-.51-6.73-.84-11.19-1.61 1.08-6.12 1.62-9.18 2.68-15.3z" id="path216" style="fill:#231f20"/><path class="cls-15" d="M161.2 65.26c2.7.27 4.06.39 6.77.56a12.33 12.33 0 0 1 3.26.65 8.51 8.51 0 0 1 2.75 1.54 7.48 7.48 0 0 1 1.93 2.47 7.62 7.62 0 0 1 .69 3.45 6.44 6.44 0 0 1-.94 3.43 7.55 7.55 0 0 1-2.38 2.36 10.08 10.08 0 0 1-3.23 1.29 12.55 12.55 0 0 1-3.47.28c-2.79-.19-4.18-.3-7-.59.67-6.22.99-9.31 1.62-15.44zm4.4 13.45a12.78 12.78 0 0 0 2.92-.1 7.49 7.49 0 0 0 2.42-.8 4.58 4.58 0 0 0 1.65-1.56 4.7 4.7 0 0 0 .66-2.4 5.4 5.4 0 0 0-.42-2.43 4.34 4.34 0 0 0-1.32-1.69 6.24 6.24 0 0 0-2-1 12 12 0 0 0-2.61-.46c-1.13-.08-1.7-.12-2.83-.22l-.89 10.49c.95.02 1.44.05 2.42.12z" id="path218" style="fill:#231f20"/><path class="cls-15" d="M180.68 66.13h3c-.77 2.33-1.17 3.5-2 5.82H179c.67-2.34 1.02-3.5 1.68-5.82z" id="path220" style="fill:#231f20"/><path class="cls-15" d="M195.55 68.75a2.86 2.86 0 0 0-1.39-.81 5.17 5.17 0 0 0-1.76-.16 4.44 4.44 0 0 0-1 .18 3.08 3.08 0 0 0-.88.4 1.89 1.89 0 0 0-.62.67 1.63 1.63 0 0 0-.2.92 1.34 1.34 0 0 0 .7 1.17 6.2 6.2 0 0 0 1.59.62c.64.16 1.33.31 2.08.44a9.24 9.24 0 0 1 2.11.62 5 5 0 0 1 1.7 1.18 3.65 3.65 0 0 1 .86 2.14 4.3 4.3 0 0 1-.33 2.23 4.58 4.58 0 0 1-1.33 1.68 6.8 6.8 0 0 1-2.09 1.1 10.25 10.25 0 0 1-2.59.5 11.19 11.19 0 0 1-3.38-.29 6.27 6.27 0 0 1-2.83-1.51c1-.84 1.44-1.26 2.39-2.11a4 4 0 0 0 1.63 1.11 5 5 0 0 0 2.1.3 5.58 5.58 0 0 0 1.14-.21 3.93 3.93 0 0 0 1-.48 2.28 2.28 0 0 0 .7-.72 1.58 1.58 0 0 0 .21-1 1.53 1.53 0 0 0-.75-1.25 6 6 0 0 0-1.65-.66c-.64-.17-1.34-.32-2.1-.47a8.59 8.59 0 0 1-2.1-.66 4.65 4.65 0 0 1-1.63-1.24 3.51 3.51 0 0 1-.75-2.18 3.88 3.88 0 0 1 .47-2.1 4.89 4.89 0 0 1 1.38-1.52 7 7 0 0 1 2-1 10 10 0 0 1 2.31-.44 9.85 9.85 0 0 1 2.66.16 6.47 6.47 0 0 1 2.41 1c-.81 1-1.23 1.47-2.06 2.39z" id="path222" style="fill:#231f20"/><path class="cls-15" d="M215.01 62.57c2.64-.54 4-.83 6.58-1.46a9.07 9.07 0 0 1 1.93-.27 5.71 5.71 0 0 1 1.83.23 4 4 0 0 1 1.49.86 3.26 3.26 0 0 1 .93 1.61 2.9 2.9 0 0 1-.26 2.32 4.76 4.76 0 0 1-1.87 1.76v.05a5.18 5.18 0 0 1 1.62 0 4.26 4.26 0 0 1 1.41.47 3.71 3.71 0 0 1 1.09.88 3.45 3.45 0 0 1 .66 1.26 3.57 3.57 0 0 1 0 2.2 4.38 4.38 0 0 1-1.19 1.73 7.62 7.62 0 0 1-2 1.29 15.19 15.19 0 0 1-2.49.84c-2.64.63-4 .92-6.62 1.46-1.26-6.1-1.88-9.14-3.11-15.23zm4.37 5.53c1.14-.25 1.71-.38 2.84-.65a4.27 4.27 0 0 0 2.2-1.09 1.72 1.72 0 0 0-.74-2.82 5.33 5.33 0 0 0-2.64.13c-1 .24-1.5.35-2.51.57zm1.48 6.68c1.19-.26 1.78-.4 3-.68a13.18 13.18 0 0 0 1.3-.38 4.51 4.51 0 0 0 1.22-.62 2.53 2.53 0 0 0 .79-.91 1.78 1.78 0 0 0 .07-1.28 1.76 1.76 0 0 0-1.34-1.42 6.78 6.78 0 0 0-2.94.23c-1.21.29-1.82.43-3 .69z" id="path224" style="fill:#231f20"/><path class="cls-15" d="M230.38 58.74c4.41-1.31 6.6-2 11-3.64.34.94.52 1.4.86 2.34-3.22 1.19-4.84 1.74-8.1 2.77l1.15 3.64c3.15-1 4.72-1.53 7.84-2.67.34.94.51 1.41.86 2.35-3.16 1.16-4.75 1.7-7.95 2.71.51 1.6.76 2.41 1.27 4 3.63-1.15 5.43-1.76 9-3.09l.87 2.34c-4.9 1.82-7.37 2.64-12.35 4.12-1.78-5.94-2.67-8.92-4.45-14.87z" id="path226" style="fill:#231f20"/><path class="cls-15" d="M253.91 53.58a2.9 2.9 0 0 0-1.61-.31 5.42 5.42 0 0 0-1.74.43 5.67 5.67 0 0 0-.94.52 2.93 2.93 0 0 0-.72.68 1.9 1.9 0 0 0-.38.83 1.64 1.64 0 0 0 .11.94 1.33 1.33 0 0 0 1.05.87 6.1 6.1 0 0 0 1.74.06c.66-.06 1.37-.15 2.14-.27a10 10 0 0 1 2.23-.13 5 5 0 0 1 2 .56 3.55 3.55 0 0 1 1.52 1.73 4.16 4.16 0 0 1 .41 2.22 4.51 4.51 0 0 1-.74 2 6.75 6.75 0 0 1-1.65 1.74 10.49 10.49 0 0 1-2.34 1.34 11.41 11.41 0 0 1-3.34.85 6.44 6.44 0 0 1-3.21-.49c.66-1.11 1-1.67 1.61-2.79a4.1 4.1 0 0 0 1.93.51 5.24 5.24 0 0 0 2.12-.42 5 5 0 0 0 1-.58 4.07 4.07 0 0 0 .82-.78 2.34 2.34 0 0 0 .43-.92 1.49 1.49 0 0 0-.11-1 1.51 1.51 0 0 0-1.13-.94 6.43 6.43 0 0 0-1.73.03c-.68.06-1.4.15-2.18.27a9.9 9.9 0 0 1-2.23.07 4.77 4.77 0 0 1-2-.64 3.54 3.54 0 0 1-1.39-1.82 3.87 3.87 0 0 1-.23-2.15 5.11 5.11 0 0 1 .83-1.9 7.07 7.07 0 0 1 1.6-1.58 10.24 10.24 0 0 1 4.69-1.92 6.77 6.77 0 0 1 2.65.14c-.46 1.11-.74 1.69-1.21 2.85z" id="path228" style="fill:#231f20"/><path class="cls-15" d="M262.04 48.76c-2 1-2.94 1.48-4.92 2.42l-1.07-2.26c5-2.39 7.52-3.68 12.41-6.48.49.87.74 1.3 1.24 2.17-1.92 1.1-2.89 1.63-4.83 2.67L271 58.77c-1.21.65-1.82 1-3 1.59z" id="path230" style="fill:#231f20"/><path class="cls-4" d="M.19 383.64h6.39a7.52 7.52 0 0 1 1.83.23 4.6 4.6 0 0 1 1.61.71 4 4 0 0 1 1.15 1.29 3.87 3.87 0 0 1 .44 1.9 3.39 3.39 0 0 1-.79 2.29 4.48 4.48 0 0 1-2.06 1.3 4.51 4.51 0 0 1 1.42.43 3.89 3.89 0 0 1 1.13.86 4.29 4.29 0 0 1 .73 1.2 4.21 4.21 0 0 1 .26 1.47 4.37 4.37 0 0 1-.53 2.24 4.26 4.26 0 0 1-1.4 1.43 5.75 5.75 0 0 1-2 .78 11.63 11.63 0 0 1-2.29.23H.18zm2.92 6.67h2.66a3.54 3.54 0 0 0 2.19-.56 1.8 1.8 0 0 0 .73-1.5 1.78 1.78 0 0 0-.75-1.58 4.35 4.35 0 0 0-2.42-.52H3.11zm0 7.23h2.68a10.24 10.24 0 0 0 1.2-.07 3.75 3.75 0 0 0 1.17-.32 2.48 2.48 0 0 0 .88-.73 2.17 2.17 0 0 0 .34-1.29 1.93 1.93 0 0 0-.84-1.8 5.26 5.26 0 0 0-2.63-.51h-2.8z" id="path232" style="fill:#ed8222"/><path class="cls-4" d="M6.09 400.26H0v-16.81h6.58a8 8 0 0 1 1.88.23 4.78 4.78 0 0 1 1.67.75 4 4 0 0 1 1.2 1.34 4.08 4.08 0 0 1 .47 2 3.5 3.5 0 0 1-.84 2.41 4.39 4.39 0 0 1-1.58 1.15 4.52 4.52 0 0 1 .89.33 3.95 3.95 0 0 1 1.94 2.16 4.17 4.17 0 0 1 .28 1.54 4.24 4.24 0 0 1-2 3.84 6.37 6.37 0 0 1-2.06.8 11.85 11.85 0 0 1-2.34.26zm-5.71-.41h5.71a11.3 11.3 0 0 0 2.25-.23 5.89 5.89 0 0 0 1.93-.75 3.88 3.88 0 0 0 1.33-1.37 4.08 4.08 0 0 0 .51-2.14 3.72 3.72 0 0 0-2-3.36 4.19 4.19 0 0 0-1.37-.41h-.16v-.33l.13-.09a4.18 4.18 0 0 0 2-1.24 3.18 3.18 0 0 0 .74-2.16 3.52 3.52 0 0 0-1.51-3 4.49 4.49 0 0 0-1.54-.69 7.75 7.75 0 0 0-1.79-.21H.38zm5.41-2.12H2.92v-5.1h3a5.39 5.39 0 0 1 2.73.53 2.13 2.13 0 0 1 .93 2 2.3 2.3 0 0 1-.38 1.4 2.51 2.51 0 0 1-1 .79 3.8 3.8 0 0 1-1.23.34 10.7 10.7 0 0 1-1.18.04zm-2.49-.38h2.49a10 10 0 0 0 1.18-.07 3.26 3.26 0 0 0 1.1-.31 2 2 0 0 0 .81-.67 1.91 1.91 0 0 0 .31-1.17 1.73 1.73 0 0 0-.75-1.64 5.09 5.09 0 0 0-2.53-.48H3.3zm2.47-6.84H2.92v-4.55h2.6a4.52 4.52 0 0 1 2.53.55 2 2 0 0 1 .83 1.74 2 2 0 0 1-.8 1.65 3.77 3.77 0 0 1-2.31.61zm-2.47-.39h2.47a3.36 3.36 0 0 0 2.07-.52 1.64 1.64 0 0 0 .66-1.35 1.62 1.62 0 0 0-.67-1.43 4.25 4.25 0 0 0-2.31-.48H3.3z" id="path234" style="fill:#ed8222"/><path class="cls-4" d="M24.51 395.53h-5.72v-2.37h5.72z" id="path236" style="fill:#ed8222"/><path class="cls-4" d="M24.7 395.72h-6.11v-2.75h6.11zm-5.72-.38h5.34v-2h-5.34z" id="path238" style="fill:#ed8222"/><path class="cls-4" d="M31.75 383.64h6.39a7.52 7.52 0 0 1 1.83.23 4.52 4.52 0 0 1 1.61.71 3.71 3.71 0 0 1 1.59 3.19 3.34 3.34 0 0 1-.79 2.29 4.43 4.43 0 0 1-2.06 1.3 4.57 4.57 0 0 1 1.43.43 3.84 3.84 0 0 1 1.12.86 4.06 4.06 0 0 1 .73 1.2 4 4 0 0 1 .27 1.47 4.27 4.27 0 0 1-.54 2.24 4.17 4.17 0 0 1-1.4 1.43 5.75 5.75 0 0 1-2 .78 11.6 11.6 0 0 1-2.28.23h-5.91zm2.92 6.67h2.71a3.5 3.5 0 0 0 2.19-.56 1.8 1.8 0 0 0 .73-1.5 1.78 1.78 0 0 0-.75-1.58 4.33 4.33 0 0 0-2.42-.52h-2.41zm0 7.23h2.71a10.08 10.08 0 0 0 1.19-.07 3.75 3.75 0 0 0 1.17-.32 2.4 2.4 0 0 0 .88-.73 2.17 2.17 0 0 0 .35-1.29 1.92 1.92 0 0 0-.85-1.8 5.24 5.24 0 0 0-2.63-.51h-2.8z" id="path240" style="fill:#ed8222"/><path class="cls-4" d="M37.66 400.26h-6.1v-16.81h6.58a8 8 0 0 1 1.88.23 4.78 4.78 0 0 1 1.67.75 4 4 0 0 1 1.21 1.34 4.08 4.08 0 0 1 .46 2 3.55 3.55 0 0 1-.83 2.41 4.57 4.57 0 0 1-1.58 1.15 4.43 4.43 0 0 1 .88.33 4.1 4.1 0 0 1 1.18.9 4.15 4.15 0 0 1 1.05 2.8 4.22 4.22 0 0 1-2 3.84 6.23 6.23 0 0 1-2.05.8 12 12 0 0 1-2.35.26zm-5.72-.38h5.72a11.2 11.2 0 0 0 2.24-.23 5.89 5.89 0 0 0 1.93-.75 4 4 0 0 0 1.34-1.37 4.18 4.18 0 0 0 .5-2.14 3.78 3.78 0 0 0-.25-1.4 3.74 3.74 0 0 0-.69-1.14 3.67 3.67 0 0 0-1.07-.82 4.21 4.21 0 0 0-1.36-.41h-.17v-.36l.13-.09a4.13 4.13 0 0 0 2-1.24 3.18 3.18 0 0 0 .74-2.16 3.64 3.64 0 0 0-.42-1.81 3.57 3.57 0 0 0-1.09-1.22 4.49 4.49 0 0 0-1.54-.69 7.75 7.75 0 0 0-1.79-.21h-6.2zm5.42-2.12h-2.88v-5.1h3a5.39 5.39 0 0 1 2.73.53 2.13 2.13 0 0 1 .94 2 2.3 2.3 0 0 1-.39 1.4 2.51 2.51 0 0 1-1 .79 3.73 3.73 0 0 1-1.23.34 10.53 10.53 0 0 1-1.15.01zm-2.5-.38h2.52a9.88 9.88 0 0 0 1.17-.07 3.39 3.39 0 0 0 1.11-.31 2.18 2.18 0 0 0 .81-.67 2 2 0 0 0 .31-1.17 1.73 1.73 0 0 0-.76-1.64 5.09 5.09 0 0 0-2.53-.48h-2.61zm2.47-6.84h-2.85v-4.58h2.6a4.52 4.52 0 0 1 2.53.55 2 2 0 0 1 .83 1.74 2 2 0 0 1-.8 1.65 3.75 3.75 0 0 1-2.26.61zm-2.47-.39h2.52a3.39 3.39 0 0 0 2.08-.52 1.79 1.79 0 0 0 0-2.78 4.23 4.23 0 0 0-2.31-.48h-2.22z" id="path242" style="fill:#ed8222"/><path class="cls-4" d="M56.69 383.64h2.53l7.06 16.4h-3.33l-1.57-3.78h-7.11l-1.48 3.75h-3.27zm3.69 10.15-2.52-6.67-2.58 6.67z" id="path244" style="fill:#ed8222"/><path class="cls-4" d="M66.57 400.26h-3.75l-1.53-3.75h-6.85l-1.48 3.75h-3.69l7.3-16.78h2.81zm-3.49-.38h2.91l-6.9-16h-2.27l-7 16h2.85l1.48-3.75h7.37zm-2.4-5.87h-5.65l2.85-7.4zm-5.1-.38h4.54l-2.25-6z" id="path246" style="fill:#ed8222"/><path class="cls-4" d="M72.74 383.64h2.92v13.76h7v2.64h-9.89z" id="path248" style="fill:#ed8222"/><path class="cls-4" d="M82.82 400.26H72.55v-16.81h3.3v13.81h7zm-9.89-.38h9.51v-2.26h-7v-13.78H72.9z" id="path250" style="fill:#ed8222"/><path class="cls-4" d="M89.38 383.64h2.92v13.76h7v2.64h-9.92z" id="path252" style="fill:#ed8222"/><path class="cls-4" d="M99.47 400.26H89.2v-16.81h3.3v13.81h7zm-9.89-.38h9.51v-2.26h-7v-13.78h-2.51z" id="path254" style="fill:#ed8222"/><path class="cls-4" d="M280.32 387.49a5 5 0 0 0-1.75-1.3 4.87 4.87 0 0 0-1.7-.32 5.73 5.73 0 0 0-2.31.45 5.22 5.22 0 0 0-1.77 1.25 5.71 5.71 0 0 0-1.15 1.86 6.43 6.43 0 0 0-.4 2.3 7 7 0 0 0 .4 2.43 5.78 5.78 0 0 0 1.15 1.92 5.14 5.14 0 0 0 1.77 1.27 5.58 5.58 0 0 0 2.31.47 4.21 4.21 0 0 0 1.93-.48 5.28 5.28 0 0 0 1.75-1.51l2.41 1.71a6.61 6.61 0 0 1-2.71 2.22 8.36 8.36 0 0 1-3.41.7 9.53 9.53 0 0 1-3.48-.62 7.73 7.73 0 0 1-4.53-4.43 9.17 9.17 0 0 1-.65-3.5 9.59 9.59 0 0 1 .65-3.58 8.09 8.09 0 0 1 1.79-2.74 7.89 7.89 0 0 1 2.74-1.75 9.53 9.53 0 0 1 3.48-.61 8.06 8.06 0 0 1 3.09.59 7.21 7.21 0 0 1 2.66 2z" id="path256" style="fill:#ed8222"/><path class="cls-4" d="M276.84 400.65a9.7 9.7 0 0 1-3.55-.63 8 8 0 0 1-2.8-1.78 8.15 8.15 0 0 1-1.84-2.76 9.3 9.3 0 0 1-.66-3.57 9.72 9.72 0 0 1 .66-3.65 8.36 8.36 0 0 1 1.84-2.81 8.15 8.15 0 0 1 2.8-1.79 9.91 9.91 0 0 1 3.55-.62 8.28 8.28 0 0 1 3.17.6 7.59 7.59 0 0 1 2.72 2.06l.14.15-2.58 1.89-.11-.12a4.89 4.89 0 0 0-1.68-1.25 4.49 4.49 0 0 0-1.63-.31 5.68 5.68 0 0 0-2.23.43 5.11 5.11 0 0 0-1.71 1.21 5.44 5.44 0 0 0-1.11 1.8 6.3 6.3 0 0 0-.39 2.23 6.91 6.91 0 0 0 .39 2.36 5.58 5.58 0 0 0 1.11 1.86 5.16 5.16 0 0 0 1.71 1.23 5.35 5.35 0 0 0 2.23.45 4 4 0 0 0 1.84-.46 5 5 0 0 0 1.69-1.46l.11-.15 2.71 1.94-.11.15a6.82 6.82 0 0 1-2.79 2.29 8.66 8.66 0 0 1-3.48.71zm0-17.23a9.4 9.4 0 0 0-3.41.6 7.65 7.65 0 0 0-2.67 1.71 7.79 7.79 0 0 0-1.75 2.68 9.32 9.32 0 0 0-.64 3.5 9 9 0 0 0 .64 3.43 7.87 7.87 0 0 0 1.75 2.63 7.77 7.77 0 0 0 2.67 1.7 9.61 9.61 0 0 0 3.41.6 8.33 8.33 0 0 0 3.33-.68 6.4 6.4 0 0 0 2.52-2l-2.11-1.49a5.25 5.25 0 0 1-1.69 1.42 4.44 4.44 0 0 1-2 .5 5.76 5.76 0 0 1-2.39-.48 5.5 5.5 0 0 1-1.83-1.32 5.93 5.93 0 0 1-1.19-2 7.43 7.43 0 0 1-.41-2.49 6.77 6.77 0 0 1 .41-2.36 6 6 0 0 1 1.19-1.93 5.55 5.55 0 0 1 1.83-1.3 6 6 0 0 1 2.39-.46 5 5 0 0 1 1.77.33 5.17 5.17 0 0 1 1.72 1.25l2-1.44a6.82 6.82 0 0 0-2.44-1.79 7.7 7.7 0 0 0-3.1-.61z" id="path258" style="fill:#ed8222"/><path class="cls-4" d="M291.87 383.64h2.92v13.76h7v2.64h-9.89z" id="path260" style="fill:#ed8222"/><path class="cls-4" d="M301.95 400.26h-10.27v-16.81h3.3v13.81h7zm-9.89-.38h9.51v-2.26h-7v-13.78h-2.54z" id="path262" style="fill:#ed8222"/><path class="cls-4" d="M323.97 394.02a6.69 6.69 0 0 1-.51 2.67 6 6 0 0 1-1.39 2 6.18 6.18 0 0 1-2.09 1.29 7.82 7.82 0 0 1-5.23 0 6.28 6.28 0 0 1-2.09-1.29 5.7 5.7 0 0 1-1.39-2 6.69 6.69 0 0 1-.5-2.67v-10.38h2.92v10.29a4.79 4.79 0 0 0 .18 1.26 3.54 3.54 0 0 0 .61 1.21 3.26 3.26 0 0 0 1.14.92 4.43 4.43 0 0 0 3.5 0 3.22 3.22 0 0 0 1.13-.92 3.37 3.37 0 0 0 .61-1.21 4.43 4.43 0 0 0 .19-1.26v-10.29h2.92z" id="path264" style="fill:#ed8222"/><path class="cls-4" d="M317.38 400.65a7.6 7.6 0 0 1-2.69-.47 6.36 6.36 0 0 1-2.15-1.32 5.92 5.92 0 0 1-1.44-2.09 7.13 7.13 0 0 1-.51-2.75v-10.57h3.3v10.48a4.83 4.83 0 0 0 .17 1.21 3.49 3.49 0 0 0 .59 1.15 3.1 3.1 0 0 0 1.07.86 4.22 4.22 0 0 0 3.32 0 3.14 3.14 0 0 0 1.65-2 4.44 4.44 0 0 0 .18-1.21v-10.49h3.3v10.57a7 7 0 0 1-.53 2.75 6.06 6.06 0 0 1-3.58 3.41 7.55 7.55 0 0 1-2.68.47zm-6.41-16.81v10.18a6.73 6.73 0 0 0 .48 2.6 5.45 5.45 0 0 0 1.35 2 5.92 5.92 0 0 0 2 1.25 7.61 7.61 0 0 0 5.1 0 6 6 0 0 0 2-1.25 5.69 5.69 0 0 0 1.34-2 6.55 6.55 0 0 0 .5-2.6v-10.18h-2.54v10.09a4.72 4.72 0 0 1-.19 1.31 3.78 3.78 0 0 1-.65 1.28 3.42 3.42 0 0 1-1.2 1 4 4 0 0 1-1.83.38 4.1 4.1 0 0 1-1.84-.38 3.61 3.61 0 0 1-1.2-1 3.76 3.76 0 0 1-.64-1.28 4.74 4.74 0 0 1-.2-1.31v-10.09z" id="path266" style="fill:#ed8222"/><path class="cls-4" d="M334.5 383.64h6.4a8.17 8.17 0 0 1 1.83.22 4.9 4.9 0 0 1 1.61.72 3.75 3.75 0 0 1 1.14 1.29 3.87 3.87 0 0 1 .44 1.9 3.34 3.34 0 0 1-.79 2.29 4.43 4.43 0 0 1-2.06 1.3 4.32 4.32 0 0 1 1.43.43 3.68 3.68 0 0 1 1.12.86 4.06 4.06 0 0 1 .73 1.2 4 4 0 0 1 .27 1.47 4.27 4.27 0 0 1-.54 2.24 4.17 4.17 0 0 1-1.4 1.43 6 6 0 0 1-2 .78 11.6 11.6 0 0 1-2.28.23h-5.91zm2.92 6.67h2.67a3.49 3.49 0 0 0 2.18-.56 1.8 1.8 0 0 0 .73-1.5 1.78 1.78 0 0 0-.75-1.58 4.33 4.33 0 0 0-2.42-.52h-2.45zm0 7.23h2.69a10.08 10.08 0 0 0 1.19-.07 3.61 3.61 0 0 0 1.17-.32 2.32 2.32 0 0 0 .88-.73 2.17 2.17 0 0 0 .35-1.29 1.94 1.94 0 0 0-.85-1.81 5.36 5.36 0 0 0-2.63-.5h-2.84z" id="path268" style="fill:#ed8222"/><path class="cls-4" d="M340.38 400.26h-6.1v-16.81h6.59a7.85 7.85 0 0 1 1.87.23 4.7 4.7 0 0 1 1.67.75 4 4 0 0 1 1.21 1.34 4.08 4.08 0 0 1 .46 2 3.55 3.55 0 0 1-.83 2.41 4.57 4.57 0 0 1-1.58 1.15 4.43 4.43 0 0 1 .88.33 4 4 0 0 1 1.95 2.16 4.38 4.38 0 0 1 .28 1.54 4.49 4.49 0 0 1-.56 2.33 4.43 4.43 0 0 1-1.47 1.51 6.23 6.23 0 0 1-2 .8 12 12 0 0 1-2.37.26zm-5.72-.38h5.72a11.2 11.2 0 0 0 2.24-.23 5.89 5.89 0 0 0 1.93-.75 3.86 3.86 0 0 0 1.85-3.51 3.79 3.79 0 0 0-.26-1.4 3.91 3.91 0 0 0-.69-1.15 3.64 3.64 0 0 0-1.07-.81 4.21 4.21 0 0 0-1.36-.41h-.17v-.36l.14-.09a4.14 4.14 0 0 0 2-1.24 3.18 3.18 0 0 0 .74-2.16 3.73 3.73 0 0 0-.41-1.81 3.67 3.67 0 0 0-1.09-1.22 4.45 4.45 0 0 0-1.55-.69 7.6 7.6 0 0 0-1.78-.21h-6.21zm5.42-2.12h-2.88v-5.1h3a5.42 5.42 0 0 1 2.73.53 2.13 2.13 0 0 1 .94 2 2.3 2.3 0 0 1-.39 1.4 2.37 2.37 0 0 1-.95.79 3.8 3.8 0 0 1-1.23.34 10.53 10.53 0 0 1-1.19.01zm-2.5-.38h2.5a9.88 9.88 0 0 0 1.17-.07 3.39 3.39 0 0 0 1.11-.31 2.1 2.1 0 0 0 .81-.67 2 2 0 0 0 .31-1.17 1.73 1.73 0 0 0-.76-1.64 5.09 5.09 0 0 0-2.53-.48h-2.61zm2.48-6.85h-2.86v-4.57h2.6a4.52 4.52 0 0 1 2.53.55 2 2 0 0 1 .83 1.74 2 2 0 0 1-.8 1.65 3.73 3.73 0 0 1-2.27.6zm-2.48-.38h2.48a3.38 3.38 0 0 0 2.07-.52 1.79 1.79 0 0 0 0-2.78 4.21 4.21 0 0 0-2.31-.48h-2.22z" id="path270" style="fill:#ed8222"/><path id="polygon272" style="fill:#676767" transform="translate(-93.62 -213.74)" d="m263.61 588.76 5.97-5.82-1.41-8.22 7.38 3.88 7.39-3.88-1.41 8.22 5.97 5.82-8.25 1.2-3.7 7.49-3.69-7.49z"/></svg>