<svg xmlns="http://www.w3.org/2000/svg" id="Layer_1" data-name="Layer 1" version="1.1" width="361.13" height="322.87"><defs id="defs4"><style id="style2">.cls-1{fill:#c09867}.cls-2{fill:#231f20}.cls-3{fill:#fff}.cls-11,.cls-4{fill:#d17d2a}.cls-10{stroke-miterlimit:10}.cls-6{fill:#101016}.cls-7{fill:#e2ba8f}.cls-10,.cls-8{fill:#989282}.cls-9{fill:#bc5a27}.cls-10{stroke:#fff;stroke-width:2.12px}.cls-11{stroke:#d17d2a;stroke-linecap:square;stroke-linejoin:bevel;stroke-width:1.58px}.cls-12{fill:#777266}</style></defs><path class="cls-3" id="rect70" style="fill:#fff" d="M83.1 0h205.55v34.44H83.1z"/><path class="cls-1" id="polygon72" style="fill:#c09867" transform="translate(-70.83 -343.97)" d="M280.38 343.98h-47.6l23.8 25.96z"/><path class="cls-1" d="M288.64 30.45v-19L186.55 26.84l.25.28-1.05-.16-1.06.16.26-.28L82.42 11.4v18.89L0 30.22l24.74 46.23 7.21 76.47h11.84c-3.24 9.84-7.21 27.19-6.86 52.56a100.47 100.47 0 0 0 12.45 48.31 119.46 119.46 0 0 0 32 37.15c26.42 20.59 61.12 31.93 97.71 31.93 36.59 0 71.29-11.34 97.71-31.93a119.46 119.46 0 0 0 32-37.15 100.38 100.38 0 0 0 12.37-48.17h-.16c.22-24.72-3.68-41.68-6.88-51.37h12l8-82.09 27-41.64z" id="path74" style="fill:#c09867"/><path class="cls-1" id="polygon76" style="fill:#c09867" transform="translate(-70.83 -343.97)" d="M210.83 343.98H170.3l85.69 26.6.27-.29z"/><path class="cls-1" id="polygon78" style="fill:#c09867" transform="translate(-70.83 -343.97)" d="m256.26 370.66.33.1.31-.09-.32-.19z"/><path class="cls-1" id="polygon80" style="fill:#c09867" transform="translate(-70.83 -343.97)" d="m257.2 370.84-.26.04.69.21z"/><path class="cls-1" id="polygon82" style="fill:#c09867" transform="translate(-70.83 -343.97)" d="m256.22 370.88-.26-.04-.43.25z"/><path class="cls-1" id="polygon84" style="fill:#c09867" transform="translate(-70.83 -343.97)" d="m257.17 370.58 86.9-26.6h-41.74l-45.43 26.31z"/><path class="cls-2" d="M282.08 37.03V27.1H88.99v9.78l-78-.06 20.18 37.7 6.78 71.83h15.59s-10.59 18.86-10 59.08a93.85 93.85 0 0 0 11.63 45.23 112.74 112.74 0 0 0 30.23 35.1c25.27 19.69 58.54 30.54 93.67 30.54s68.4-10.85 93.67-30.54a112.87 112.87 0 0 0 30.23-35.1 93.91 93.91 0 0 0 11.66-45.06l-.17 1.14c.57-40.22-10-59.07-10-59.07h15.8l7.55-77.76 21.26-32.88z" id="path86" style="fill:#231f20"/><path class="cls-8" d="M259.49 142.1c-21.51-16.76-50.07-26-80.43-26-30.36 0-58.92 9.23-80.43 26-21.66 16.93-33.59 39.37-33.59 63.33s11.93 46.45 33.59 63.33c21.51 16.76 50.07 26 80.43 26 30.36 0 58.92-9.24 80.43-26 21.66-16.88 33.59-39.37 33.59-63.33s-11.91-46.4-33.59-63.33z" id="path88" style="fill:#989282"/><path class="cls-10" id="polygon90" style="fill:#989282;stroke:#fff;stroke-width:2.11999989px;stroke-miterlimit:10" transform="translate(-70.83 -343.97)" d="M115.29 393.25h-9.03l10.86 12.23 10.73 65.96h13.42l12.56-74.51h-10.92l-8.35 49.6-8.36-53.28z"/><path class="cls-10" id="polygon92" style="fill:#989282;stroke:#fff;stroke-width:2.11999989px;stroke-miterlimit:10" transform="translate(-70.83 -343.97)" d="M365.87 402.55h19.33l11.98-10.87h-30.91v.03h-1.26l-8.46 7.57v27.45h-.01v10.88h14.33v20.19h-14.33v13.5h14.33v.14h6.12l3.2-7.57v-37.22h-9.32v.08h-5z"/><path class="cls-10" d="m133.95 69.78-9 .06q-.42 16.45-.85 32.92a111.2 111.2 0 0 0 3 4.36c2.37-.72 3.56-1.06 5.95-1.7v-.09c3.67-1 5.51-1.43 9.21-2.23 0-2 .08-3 .13-4.93-3.69.68-5.53 1.06-9.2 1.9q.35-15.13.76-30.29z" id="path94" style="fill:#989282;stroke:#fff;stroke-width:2.11999989px;stroke-miterlimit:10"/><path class="cls-10" d="M160.27 69.67H145.58v.07h-.41l-.13 4.86h.37v.27c3.51-.13 5.26-.18 8.77-.28q-.28 13.22-.58 26.42c3.69-.56 5.54-.79 9.24-1.17q.21-12.74.41-25.46c3.22-.06 4.82-.08 8-.11v-4.68h-11.1z" id="path96" style="fill:#989282;stroke:#fff;stroke-width:2.11999989px;stroke-miterlimit:10"/><path class="cls-10" d="M114.62 107.2q.41-18.65.8-37.3l-9 .08-.6 38.29c-2.84 1.06-4.26 1.62-7.08 2.78q.19-20.49.4-41l-9 .09v45.27c1.18 2.38 1.76 3.52 2.93 5.75 2.26-1.19 3.39-1.76 5.67-2.87v-.12c2.8-1.36 4.21-2 7.05-3.25v.11c3.51-1.54 5.28-2.27 8.84-3.62v-.18l2.22-.83c-.95-1.25-1.38-1.89-2.23-3.2z" id="path98" style="fill:#989282;stroke:#fff;stroke-width:2.11999989px;stroke-miterlimit:10"/><path class="cls-10" d="M206.51 97.43q-.29-13.87-.56-27.75h-9q.18 12.71.35 25.42c-3-.21-4.48-.29-7.46-.4l-.18-25h-9v25.21c1.27 1.63 1.91 2.44 3.18 4.09 2.44 0 3.66 0 6.1.16v-.13c3 .13 4.49.22 7.49.47v.07c3.7.31 5.56.51 9.25 1v-.13l2.3.32c-1.06-1.36-1.53-2.02-2.47-3.33z" id="path100" style="fill:#989282;stroke:#fff;stroke-width:2.11999989px;stroke-miterlimit:10"/><path class="cls-10" d="M253.91 69.95h-3.1q.36 18.25.73 36.5c1.27 2.78 1.9 4.21 3.16 7.15 2.32 1 3.47 1.47 5.77 2.51V116c4.5 2 9 4.24 13.3 6.64v-7.76c-4.39-2.05-8.88-4-13.38-5.68l-.2-14.47q6.81 1.65 13.57 3.63v-7.75c-4.54-1-9.09-1.87-13.66-2.67l-.15-11.13q6.9.5 13.8 1.1v-7.78q-9.9-.11-19.81-.19z" id="path102" style="fill:#989282;stroke:#fff;stroke-width:2.11999989px;stroke-miterlimit:10"/><path class="cls-10" d="M241.43 94.64v-.1l-.14-5.74-.39-15.57c-1.27-1.4-1.91-2.08-3.19-3.41h-5.93v.09H226v-.08h-9v.13h-2.26l2.34 3.19q.38 14.69.74 29.37c3.67.71 5.51 1.11 9.15 2-.11-4.22-.17-6.33-.29-10.55 3 4.05 5.89 8.25 8.62 12.53 3.72 1.09 5.57 1.68 9.25 3q-4.6-8.24-9.79-16.07c2.65.36 3.99.6 6.67 1.21zm-9.51-19.43c.13 4.89.2 7.33.33 12.22-2.32-.33-3.48-.48-5.8-.77-.13-4.68-.19-7-.32-11.71z" id="path104" style="fill:#989282;stroke:#fff;stroke-width:2.11999989px;stroke-miterlimit:10"/><path class="cls-11" d="M108.01 40.94a19.36 19.36 0 0 1 3.37-.27 5.59 5.59 0 0 1 3.81 1.13 3.66 3.66 0 0 1 1.19 2.85 4 4 0 0 1-1 2.9 5.65 5.65 0 0 1-4.21 1.48 6.08 6.08 0 0 1-1.41-.12v5.45H108zm1.76 6.55a5.87 5.87 0 0 0 1.45.14c2.12 0 3.41-1 3.41-2.9s-1.27-2.67-3.21-2.67a6.71 6.71 0 0 0-1.65.15z" id="path106" style="fill:#d17d2a;stroke:#d17d2a;stroke-width:1.58000004px;stroke-linecap:square;stroke-linejoin:bevel"/><path class="cls-11" d="M132.61 40.77v5.69h6.56v-5.69h1.78v13.6h-1.78v-6.34h-6.57v6.38h-1.76v-13.6z" id="path108" style="fill:#d17d2a;stroke:#d17d2a;stroke-width:1.58000004px;stroke-linecap:square;stroke-linejoin:bevel"/><path class="cls-11" d="M167.73 47.43c0 4.68-2.84 7.16-6.31 7.16-3.47 0-6.12-2.78-6.12-6.9 0-4.31 2.69-7.14 6.32-7.14 3.63 0 6.11 2.85 6.11 6.88zm-10.55.22c0 2.91 1.57 5.51 4.34 5.51 2.77 0 4.35-2.56 4.35-5.65 0-2.7-1.41-5.53-4.33-5.53s-4.37 2.69-4.37 5.67z" id="path110" style="fill:#d17d2a;stroke:#d17d2a;stroke-width:1.58000004px;stroke-linecap:square;stroke-linejoin:bevel"/><path class="cls-11" d="M189.17 48.03h-5.3v4.91h5.89v1.47h-7.59v-13.6h7.34v1.48h-5.64v4.29h5.3z" id="path112" style="fill:#d17d2a;stroke:#d17d2a;stroke-width:1.58000004px;stroke-linecap:square;stroke-linejoin:bevel"/><path class="cls-11" d="M204.17 54.37v-13.6h1.91l4.36 6.88a38.13 38.13 0 0 1 2.44 4.42v0c-.16-1.82-.2-3.47-.2-5.59v-5.69h1.66v13.6h-1.78l-4.32-6.9a44.34 44.34 0 0 1-2.54-4.54h-.06c.1 1.72.14 3.35.14 5.61v5.81z" id="path114" style="fill:#d17d2a;stroke:#d17d2a;stroke-width:1.58000004px;stroke-linecap:square;stroke-linejoin:bevel"/><path class="cls-11" d="M231.28 40.77v13.6h-1.75v-13.6z" id="path116" style="fill:#d17d2a;stroke:#d17d2a;stroke-width:1.58000004px;stroke-linecap:square;stroke-linejoin:bevel"/><path class="cls-11" d="m253.9 54.37-1.73-3c-.71-1.15-1.16-1.89-1.58-2.68v0c-.38.79-.77 1.51-1.47 2.7l-1.64 3h-2l4.15-6.88-4-6.72h2l1.79 3.19c.51.89.89 1.57 1.25 2.3h.06c.39-.81.73-1.43 1.23-2.3l1.86-3.19h2l-4.14 6.62 4.24 7z" id="path118" style="fill:#d17d2a;stroke:#d17d2a;stroke-width:1.58000004px;stroke-linecap:square;stroke-linejoin:bevel"/><path class="cls-2" d="M174.17 40.03c.36-1 .68-1.95 1-2.89l2.29-6.61 1-2.85c.08-.2 0-.28-.16-.39l-6-4.09-4.92-3.34-.22-.17h13.77a.37.37 0 0 0 .43-.31c1-2.84 1.94-5.67 2.92-8.51.42-1.23.86-2.45 1.3-3.72a1.82 1.82 0 0 1 .1.19l2.76 8c.47 1.37 1 2.74 1.42 4.12.07.2.18.21.36.21h13.82l-1.25.85-8.62 5.82c-.46.31-.91.63-1.37.93a.26.26 0 0 0-.13.35l3.36 9.62.95 2.74-11.4-7.79z" id="path120" style="fill:#231f20"/><path class="cls-12" d="m163.95 253.58-39 1.39-3.4-30.25 8.4-2.45-1.14-12.12h-4.5v8.06h-2.55l-2.08-10.41-3.79-.95.35 25.72h-3.57l-1.05-11.54h-4.89l1.11 18.92h8.33l-.16 14.16-31.64 1.22a99.83 99.83 0 0 0 14.22 13.45c21.51 16.76 50.07 26 80.43 26q6.57 0 13-.58z" id="path122" style="fill:#777266"/><path class="cls-12" d="M278.01 249.9h-47.77l22.78 23.53q3.33-2.22 6.47-4.67a96.14 96.14 0 0 0 18.52-18.86z" id="path124" style="fill:#777266"/><path class="cls-6" d="M233.61 158.36a32.69 32.69 0 0 0-10.9-10.6c-15.47-16.15-31.13-19.73-41.54-19.83a45.78 45.78 0 0 0-19.53 3.82l-.34.17-.28.26c-7.64 7.13-14.42 10.28-18.76 11.66a23 23 0 0 1-7.6 1.31l-4.5-.38 3.5 7.58c-22 2.75-38.62 15.14-40.19 30.35a27.26 27.26 0 0 0 0 6.06v.22l4.82 16.53 3.18-2.43a9.07 9.07 0 0 0 .72-.6c6.42-5.59 15.34-8 26.52-7.17h.15l23.26-.92c7 2.12 10.14 3.35 12.06 4.88-2.58 19.08-5.4 33.09-5.45 33.21l-.15.4v.43c-.57 16.56 3.37 29.45 11.69 38.32a37.8 37.8 0 0 0 24.35 11.68 24.15 24.15 0 0 0 2.94.17c8.66 0 17.14-4.52 24.68-13.22a68 68 0 0 0 9.66-14.75l.57-1.26-.7-1.18c-15.25-25.57 4.48-56.82 4.68-57.13l.2-.31.11-.35c2.99-9.96 4.89-24.46-3.15-36.92z" id="path126" style="fill:#101016"/><path class="cls-2" d="M158.58 232.89s-2.41 56.69 33.31 65.14l41-3.15 31.53-14.71 26.27-17.87s-67.26 14.72-63.05-54.64" id="path128" style="fill:#231f20"/><path class="cls-1" d="m174.33 181.13-8.16 5.78 17.07 1s-12.87 32.32-13.4 49.66c0 0-1.05 10.5 8.41 22.33l.26-22.86s4.47 24.43 20.76 33.89c0 0 14.19.53 15-14.19 0 0-11.82-25.22.53-49.91 0 0 17.08-24.7 12.87-42.56l-9.72-10s-14.45-27.32-52-16.81c0 0-12.08 9.19-24.43 12.35a15.93 15.93 0 0 1 2.89 12.35s20.76.52 36 15.76l-6.83.52 4.73 2.37z" id="path130" style="fill:#c09867"/><path class="cls-6" d="M154.1 151.97s-5.25 2.1-.52 5.25l5.52-.52s1 5.25 10.24 3.94c0 0 12.87-2.37 9.2-14.45 0 0-4.47-4.2-11.83-1.05z" id="path132" style="fill:#101016"/><path class="cls-7" d="M178.54 146.19v2.1c-.17 13.66-18.39 10.51-18.39 10.51s4.08 6.56 14.32 3.15c0 0 7-1.6 6.52-8.3a11.31 11.31 0 0 0-2.45-7.46z" id="path134" style="fill:#e2ba8f"/><path class="cls-4" d="M165.86 163.09c13.87-1.91 13.75-9.29 13.75-9.29-3.72 7.09-14.53 7.81-17 7.88a10.71 10.71 0 0 0 3.25 1.41z" id="path136" style="fill:#d17d2a"/><path class="cls-4" d="M218.59 185.03c-2.1-13-9.56-15.72-9.56-15.72l-25.77 18.66s-12.87 32.32-13.4 49.66c0 0-1.05 10.5 8.41 22.33l.26-22.86s4.47 24.43 20.76 33.89c0 0 14.19.53 15-14.19-.03-.01-28.87-18.32 4.3-71.77z" id="path138" style="fill:#d17d2a"/><path class="cls-8" d="m148.83 184.28 21-9.19c-12.61-8.67-30.21-8.41-30.21-8.41l-.52-9.19c-33.35 3.17-39.09 19.85-39.26 30.47l.66 3.67 8.14-5.05c5.09-2.41 11.94-2.73 18.16-2.3z" id="path140" style="fill:#989282"/><path class="cls-6" d="M100.53 191.63s8.67-20.75 55.43-21.8c0 0-40.46 7.88-47.81 23.64" id="path142" style="fill:#101016"/><path class="cls-3" d="M139.17 157.49c-18.92 1.8-29 7.94-34.12 14.86 10-7.38 30.79-8.78 34.45-9z" id="path144" style="fill:#fff"/><path class="cls-6" d="M118.31 159.15s6.13 2.62 7 8.75c0 0 2.8-6.48-2.45-10.51" id="path146" style="fill:#101016"/><path class="cls-6" d="M125.77 156.03s4.78 4.65 3.41 10.69c0 0 4.93-5.05 1.47-10.69" id="path148" style="fill:#101016"/><path class="cls-7" d="m227.66 164.32-9.72-10s-14.45-27.32-52-16.81c0 0 38.21-1.84 45.21 23.38l16.65 4z" id="path150" style="fill:#e2ba8f"/><path class="cls-3" d="M168.22 156.03a8.6 8.6 0 0 0 6.83-8.75l-4.55.17s2.27 5.78-5.26 8.41" id="path152" style="fill:#fff"/><path class="cls-9" d="m177.33 204.03 18.91-10.51a52.75 52.75 0 0 1-20.66 14.72" id="path154" style="fill:#bc5a27"/><path class="cls-9" d="m173.91 217.38 18.92-10.51a52.83 52.83 0 0 1-20.66 14.72" id="path156" style="fill:#bc5a27"/><path class="cls-9" d="M169.9 236.72a52 52 0 0 0 16.36-12.77l-16 8.89a57.18 57.18 0 0 0-.36 3.88z" id="path158" style="fill:#bc5a27"/><path class="cls-1" d="m218.42 180.03-15.5 6.38a53.28 53.28 0 0 1 15.13-8.84" id="path160" style="fill:#c09867"/><path class="cls-1" d="m213.43 196.57-15.51 6.38a53.25 53.25 0 0 1 15.14-8.84" id="path162" style="fill:#c09867"/><path class="cls-1" d="m207.65 212.86-15.48 6.38a53 53 0 0 1 15.14-8.84" id="path164" style="fill:#c09867"/><path class="cls-12" id="polygon196" style="fill:#777266" transform="translate(-70.83 -343.97)" d="m324.87 596.24 2.5-22.34-6.81-1.99.92-9.83h3.66v6.54h2.06l1.69-8.45 3.07-.76-.28 20.85h2.87l.85-9.37h3.97l-.9 15.34h-6.79l.11 10.01z"/></svg>