<svg xmlns="http://www.w3.org/2000/svg" id="Layer_1" width="342.55" height="428.69" data-name="Layer 1"><defs id="defs4"><style id="style2">.cls-1,.cls-5{fill:#fbee28}.cls-7{fill:#fff}.cls-5{stroke-miterlimit:10;stroke-width:2.03px;stroke:#fbee28}</style></defs><path id="rect120" d="M1.055 195.91h340.48v212.11H1.055z" class="cls-1" style="fill:#fbee28"/><path id="polygon134" d="M236.995 21.12v68.06h13.52V51.16s-2.85-10.63 5.7-10.63 13.37 2.35 14 8.11c0 0-.962 2.84-3.234 5.16l3.795.61v53.7h13.51V28.69z" style="fill:#fbee28"/><path id="polygon132" d="m54.905 0-.45 89.18h13.51v-58.3l6.307 1.009-8.107-8.47s-3.16-7.66 8.1-7.66 13.06 3.261 13.51 10.811l.45 7.55v87.51h13.52l.45-117.13z" style="fill:#fbee28"/><path id="polygon146" d="M241.485 113.58V95.35l52.02 15.53v14.85l-16.83-.29zm-183.75 6.08v-18.23l52.02 15.53v14.85l-16.83-.29zm-56.68-4.59h340.48v292.96H1.055z" style="fill:#231f20;stroke:#231f20;stroke-width:2.02999997px;stroke-linecap:round;stroke-linejoin:round"/><path id="path124" d="M341.535 285.27a26.7 26.7 0 0 1-7.39 2.21c-5.26.79-12.93.31-16.16-4.66-1.6-2.46-1.43-6.67.93-8.62 1.07-.89 3.83-2.69 4.87-1.31-8.07-10.76-22.28-3.44-29 5.54a23.46 23.46 0 0 1-15.69 8.84c-5.25.72-12.93.18-16.13-4.75-1.61-2.46-1.44-6.67.93-8.62 1.07-.88 3.83-2.69 4.87-1.31-8.08-10.76-22.28-3.44-29 5.54-5.88 7.84-15.27 9.91-24.48 8-2.85-.58-5.8-1.69-7.46-4.24s-1.43-6.67.94-8.62c1.07-.89 3.82-2.69 4.87-1.31-8.08-10.76-22.28-3.44-29 5.53a23.43 23.43 0 0 1-15.69 8.85c-5.25.72-12.93.18-16.14-4.75-1.6-2.46-1.43-6.67.94-8.62 1.07-.88 3.82-2.69 4.87-1.31-8.08-10.76-22.28-3.44-29 5.54a23.62 23.62 0 0 1-15.67 8.84c-5.27.79-12.94.32-16.17-4.65-1.6-2.47-1.43-6.67.94-8.62 1.07-.89 3.82-2.69 4.86-1.31-8.07-10.77-22.28-3.44-29 5.53a23.4 23.4 0 0 1-15.69 8.84c-5.24.72-12.93.19-16.13-4.74-1.6-2.47-1.43-6.67.93-8.62 1.08-.89 3.83-2.69 4.87-1.31-8.07-10.77-22.28-3.44-29 5.53s-17.49 9-17.49 9h-1v64.71h340.47z" class="cls-5" style="fill:#fbee28;stroke:#fbee28;stroke-width:2.02999997px;stroke-miterlimit:10"/><path id="path126" d="M1.055 366.61h340.48v-61.43c-6.92 0-14.41 5.08-18.76 10.88a23.6 23.6 0 0 1-15.67 8.85c-5.27.79-12.94.32-16.17-4.65-1.6-2.47-1.43-6.67.94-8.63 1.07-.88 3.82-2.68 4.87-1.3-8.08-10.77-22.28-3.44-29 5.53a23.44 23.44 0 0 1-15.7 8.84c-5.24.72-12.93.19-16.13-4.74-1.6-2.47-1.43-6.67.94-8.62 1.07-.89 3.82-2.69 4.86-1.31-8.07-10.77-22.28-3.44-29 5.53-5.89 7.84-15.28 9.92-24.48 8-2.86-.57-5.81-1.69-7.46-4.24s-1.43-6.66.94-8.62c1.07-.88 3.82-2.68 4.86-1.31-8.07-10.76-22.28-3.43-29 5.54a23.4 23.4 0 0 1-15.71 8.88c-5.24.72-12.93.18-16.13-4.74-1.6-2.47-1.43-6.67.93-8.63 1.08-.88 3.83-2.68 4.87-1.3-8.07-10.77-22.28-3.44-29 5.53a23.6 23.6 0 0 1-15.67 8.85c-5.27.79-12.93.31-16.16-4.66-1.61-2.46-1.44-6.67.93-8.62 1.07-.89 3.83-2.69 4.87-1.31-8.07-10.76-22.28-3.44-29 5.53a23.43 23.43 0 0 1-15.69 8.85c-5.25.71-12.93.18-16.14-4.75-1.6-2.46-1.43-6.67.94-8.62 1.07-.89 3.83-2.69 4.87-1.31-5.42-7.22-13.58-6.3-20.41-2.2z" style="fill:#231f20;stroke:#231f20;stroke-width:2.02999997px;stroke-linecap:round;stroke-linejoin:round"/><path id="path128" d="M341.535 363.15a26.3 26.3 0 0 1-7.39 2.21c-5.26.79-12.93.32-16.16-4.65-1.6-2.47-1.43-6.67.93-8.62 1.07-.89 3.83-2.69 4.87-1.31-8.07-10.77-22.28-3.44-29 5.53a23.42 23.42 0 0 1-15.69 8.84c-5.25.72-12.93.19-16.13-4.74-1.61-2.47-1.44-6.67.93-8.62 1.07-.89 3.83-2.69 4.87-1.31-8.08-10.77-22.28-3.44-29 5.53-5.88 7.85-15.27 9.92-24.48 8-2.85-.57-5.8-1.69-7.46-4.23s-1.43-6.67.94-8.62c1.07-.89 3.82-2.69 4.87-1.31-8.08-10.77-22.28-3.44-29 5.53a23.42 23.42 0 0 1-15.69 8.84c-5.25.72-12.93.19-16.14-4.74-1.6-2.47-1.43-6.67.94-8.62 1.07-.89 3.82-2.69 4.87-1.31-8.08-10.77-22.28-3.44-29 5.53a23.63 23.63 0 0 1-15.67 8.85c-5.27.79-12.94.32-16.17-4.66-1.6-2.46-1.43-6.67.94-8.62 1.07-.88 3.82-2.69 4.86-1.31-8.07-10.76-22.28-3.44-29 5.54a23.43 23.43 0 0 1-15.74 8.93c-5.24.72-12.93.18-16.13-4.75-1.6-2.46-1.43-6.66.93-8.62 1.08-.88 3.83-2.69 4.87-1.31-8.07-10.76-22.28-3.43-29 5.54s-17.49 9-17.49 9h-1v44.43h340.52z" class="cls-5" style="fill:#fbee28;stroke:#fbee28;stroke-width:2.02999997px;stroke-miterlimit:10"/><path id="path130" d="M196.88 78.566c-34.813.085-66.594 1.635-92.676 3.534-5.535.403-10.862.833-16.088 1.275v13.564c5.542-.472 11.207-.93 17.109-1.359 42.287-3.087 99.753-5.23 160.656-1.584V80.453c-23.762-1.402-46.989-1.94-69.002-1.887zm73.4 2.16v13.55c20.923 1.345 42.212 3.39 63.404 6.316v-13.65c-21.214-2.88-42.497-4.89-63.404-6.215zM83.717 83.753c-35.513 3.113-62.8 6.859-77.379 9.059v13.668c13.52-2.08 40.954-5.946 77.38-9.165z" clip-path="none" style="fill:#fbee28;stroke-width:1.00089276"/><path id="path136" d="M95.709 28.35C79.033 59.433 32.59 81.188 9.674 90.37v4.742l323.475-3.902c-41.683-6.082-58.736-42.565-58.736-42.565-31.6 33.112-94.056 32.432-94.056 32.432-60.84-.71-84.648-52.728-84.648-52.728z" clip-path="none" style="fill:none;stroke:#fbee28;stroke-width:6.68954802px;stroke-miterlimit:10"/><path id="path138" d="M63.353 22.96S48.128 57.5 9.735 73.796v2.81l100.656-15.501C78.38 44.434 63.353 22.96 63.353 22.96zm47.038 38.144c17.16 8.936 39.19 16.495 66.429 18.617 0 0 49.388-.68 62.735-38.51z" style="fill:none;stroke:#fbee28;stroke-width:6.71917868px;stroke-miterlimit:10"/><path id="polygon148" d="m214.35 431.63-59.62-20.37 1.26-3.85 57.41 18.7z" class="cls-7" style="fill:#fff" transform="translate(-108.355 -297.19)"/><path id="polygon150" d="m402.83 430.96-59.61-20.37 1.25-3.85 57.42 18.69z" class="cls-7" style="fill:#fff" transform="translate(-108.355 -297.19)"/><path id="rect160" d="M44.275 404.67h249.24v22.97H44.275z" style="fill:#fbee28;stroke:#fbee28;stroke-width:2.0999999px;stroke-miterlimit:10"/><path id="path162" d="M73.645 411.15h-2.79v4.51h-2.47v-14h5.54c3.27 0 5.34 1.84 5.34 4.71-.02 3.13-2.55 4.78-5.62 4.78m.08-7.28h-2.87v5.05h2.87c1.86 0 3-1 3-2.53.01-1.66-1.18-2.52-3.02-2.52z"/><path id="path164" d="M92.405 401.62v14h-2.46v-14z"/><path id="path166" d="M110.125 415.66h-2.48v-11.75h-4.46v-2.29h11.4v2.29h-4.46z"/><path id="path168" d="M131.165 415.66h-2.52v-11.75h-4.46v-2.29h11.46v2.29h-4.45z"/><path id="path170" d="M151.365 407.52c3 .72 4.52 1.78 4.52 4.13 0 2.65-2.07 4.21-5 4.21a8.7 8.7 0 0 1-5.86-2.24l1.49-1.77a6.44 6.44 0 0 0 4.43 1.83c1.53 0 2.49-.7 2.49-1.79s-.56-1.56-3.17-2.16c-3-.73-4.67-1.61-4.67-4.22 0-2.45 2-4.09 4.79-4.09a7.8 7.8 0 0 1 5.1 1.76l-1.33 1.87a6.4 6.4 0 0 0-3.81-1.45c-1.44 0-2.29.75-2.29 1.69-.02 1.1.59 1.59 3.31 2.23"/><path id="path172" d="M177.735 405.21a3.33 3.33 0 0 1-2 3.15c1.64.56 2.79 1.51 2.79 3.43 0 2.53-2.07 3.87-5.2 3.87h-6.5v-14h6.3c2.83-.04 4.61 1.34 4.61 3.55m-2.46.4c0-1.14-.89-1.8-2.47-1.8h-3.55v3.73h3.39c1.56 0 2.63-.62 2.63-1.93m.78 5.92c0-1.2-.94-1.91-2.89-1.91h-3.91v3.86h4.09c1.69 0 2.71-.67 2.71-1.95"/><path id="path174" d="M201.145 409.59c0 4.19-2.37 6.3-6 6.3s-6-2.11-6-6.19v-8.08h2.46v8c0 2.61 1.35 4 3.56 4s3.53-1.33 3.53-3.92v-8.08h2.47z"/><path id="path176" d="m221.575 415.66-3.45-4.85h-3.1v4.89h-2.46v-14h6.26c3.23 0 5.21 1.7 5.21 4.45a4.21 4.21 0 0 1-3.35 4.28l3.8 5.31zm-2.93-11.79h-3.6v4.71h3.6c1.76 0 2.89-.92 2.89-2.37s-1.09-2.34-2.89-2.34"/><path id="path178" d="M241.765 415.91a7 7 0 0 1-7.29-7.25 7.16 7.16 0 0 1 7.25-7.28 7.6 7.6 0 0 1 5.39 1.9l-1.56 1.87a5.5 5.5 0 0 0-3.93-1.5 5.001 5.001 0 0 0 .22 10 5.75 5.75 0 0 0 3.39-1.06v-2.63h-3.59v-2.15h6v5.9a9 9 0 0 1-5.88 2.2"/><path id="path180" d="M261.335 409.75v5.91h-2.47v-14h2.47v5.84h6.7v-5.84h2.47v14h-2.47v-5.91z"/><path id="path182" d="M122.095 160.47a13.3 13.3 0 0 1-.55 3.86 20 20 0 0 1-1.86 4.31 28.4 28.4 0 0 1-3.27 4.51 33.3 33.3 0 0 1-4.83 4.44 48 48 0 0 1-6.44 4.1 57 57 0 0 1-8.17 3.53 11.4 11.4 0 0 1 4.68 1.11 10.3 10.3 0 0 1 3.18 2.46 12.6 12.6 0 0 1 2.06 3.34 37 37 0 0 1 1.33 3.68c.37 1.22.71 2.4 1 3.53a15.7 15.7 0 0 0 1.06 2.91 4.5 4.5 0 0 0 1.49 1.81 2.83 2.83 0 0 0 2.35.21 14.2 14.2 0 0 0 2.94-1.19 26.6 26.6 0 0 0 3.27-2 36 36 0 0 0 3.28-2.66 34 34 0 0 0 3-3.09c1.9 2.42 2.85 3.64 4.75 6.09a5 5 0 0 0-.75.63q-.74.68-2.07 1.74c-.89.72-1.94 1.52-3.15 2.42s-2.56 1.79-4 2.67a53 53 0 0 1-4.67 2.47 31 31 0 0 1-5 1.83 7.63 7.63 0 0 1-8.49-2.5 15.9 15.9 0 0 1-2.48-4.25 51 51 0 0 1-1.78-5.16q-.78-2.69-1.45-5.26a35 35 0 0 0-1.46-4.51 8.7 8.7 0 0 0-1.86-2.94 2.48 2.48 0 0 0-2.6-.54l-2.49.75q-.63 8.24-1.68 14.91a61 61 0 0 1-2.92 11.7 25.8 25.8 0 0 1-4.76 8.27 16.2 16.2 0 0 1-7.17 4.66 14.7 14.7 0 0 1-5.81.81 11.6 11.6 0 0 1-4.8-1.41 12.7 12.7 0 0 1-3.79-3.21 19.7 19.7 0 0 1-2.74-4.6 28.7 28.7 0 0 1-1.7-5.55 34 34 0 0 1-.66-6.08 45.6 45.6 0 0 1 1.29-11.55 58.5 58.5 0 0 1 4.16-11.75 69 69 0 0 1 6.74-11.24 70 70 0 0 1 9-10 65 65 0 0 1 11-8.15 55.8 55.8 0 0 1 12.64-5.5 34 34 0 0 1 5.91-1.19 27 27 0 0 1 5.61-.07 19.6 19.6 0 0 1 5 1.11 13 13 0 0 1 4 2.32 10.9 10.9 0 0 1 2.68 3.52 11.5 11.5 0 0 1 .98 4.7m-24.77-2.08a44.3 44.3 0 0 0-11.61 5.22 46 46 0 0 0-8.91 7.39 47 47 0 0 0-6.46 8.81 56.6 56.6 0 0 0-4.26 9.35 52.5 52.5 0 0 0-2.29 9.17 48.4 48.4 0 0 0-.6 8.29 29 29 0 0 0 .67 5.71 14.8 14.8 0 0 0 1.85 4.73 7.07 7.07 0 0 0 3.14 2.8 6.27 6.27 0 0 0 4.56 0 4.9 4.9 0 0 0 2.35-1.73 13.6 13.6 0 0 0 1.77-3.18 30 30 0 0 0 1.3-4.19c.37-1.54.66-3.12.9-4.73s.41-3.23.53-4.83.22-3.1.29-4.49.09-2.61.1-3.67 0-1.88 0-2.44a19.6 19.6 0 0 1-4.74-1 2.28 2.28 0 0 1-1.66-2.16v-.9a4.2 4.2 0 0 1 .24-1 3.2 3.2 0 0 1 .56-.93 2.14 2.14 0 0 1 1-.64q.27-.09 1.11-.27c.55-.12 1.13-.23 1.74-.34l1.69-.33c.51-.1.85-.17 1-.22v-.78c0-.31.05-.95.11-1.65a21 21 0 0 1 .29-2.29 18 18 0 0 1 .64-2.57 11.5 11.5 0 0 1 1.16-2.52 9.4 9.4 0 0 1 1.85-2.19 6.8 6.8 0 0 1 2.54-1.39c1.31-.4 2.2-.4 2.64 0a2.52 2.52 0 0 1 .7 1.89v.33a29.5 29.5 0 0 1-.38 3.8q-.37 2.41-.66 5.5a61 61 0 0 0 10.62-4.32 31 31 0 0 0 6.59-4.59 14.2 14.2 0 0 0 3.37-4.54 9.85 9.85 0 0 0 .91-4 5.66 5.66 0 0 0-1-3.18 6.1 6.1 0 0 0-2.81-2.15 11.8 11.8 0 0 0-4.56-.75 24 24 0 0 0-6.28.98" class="cls-1" style="fill:#fbee28"/><path id="path184" d="M147.125 193.36a46 46 0 0 1-3.48 3.34 53 53 0 0 1-4.52 3.53 51 51 0 0 1-5 3.06 20.3 20.3 0 0 1-4.83 1.9 10.1 10.1 0 0 1-3.48.3 4.5 4.5 0 0 1-2.3-.93 4.1 4.1 0 0 1-1.3-2 10.4 10.4 0 0 1-.44-2.93 32 32 0 0 1 .46-5.51c.34-2.13.77-4.36 1.27-6.68s1.05-4.65 1.63-7 1.08-4.46 1.52-6.41a4.33 4.33 0 0 1 1.07-1.9 9.4 9.4 0 0 1 1.86-1.56 14 14 0 0 1 2.16-1.14 13 13 0 0 1 2-.68 3 3 0 0 1 2.27.05 1.61 1.61 0 0 1 .62 1.38 10.7 10.7 0 0 1-.35 2.42c-.24 1.08-.54 2.3-.91 3.68s-.77 2.85-1.18 4.43-.81 3.16-1.18 4.73-.66 3.09-.9 4.56a22 22 0 0 0-.31 3.89 6.3 6.3 0 0 0 .45 2.53c.27.58.82.78 1.64.59a8.7 8.7 0 0 0 3.15-1.64 38 38 0 0 0 3.47-3c1.17-1.13 2.32-2.29 3.43-3.46s2.1-2.18 3-3zm-18.48-33.71a6.3 6.3 0 0 1 .36-2 7.9 7.9 0 0 1 1.24-2.31 9.9 9.9 0 0 1 2.35-2.14 11 11 0 0 1 3.68-1.51 11.3 11.3 0 0 1 2.62-.3 5.7 5.7 0 0 1 2.16.41 3.33 3.33 0 0 1 1.48 1.28 4.3 4.3 0 0 1 .58 2.23 7.7 7.7 0 0 1-.38 2.52 7.4 7.4 0 0 1-1.35 2.4 9.7 9.7 0 0 1-2.36 2 11.3 11.3 0 0 1-3.45 1.36q-3.48.81-5.18-.31a4.18 4.18 0 0 1-1.75-3.63" class="cls-1" style="fill:#fbee28"/><path id="path186" d="M144.235 189.88c-.12-1.82-.23-3.4-.34-4.74s-.2-2.56-.29-3.64-.16-2.1-.21-3-.07-1.88-.09-2.86a36 36 0 0 1 .25-6c.22-1.46.75-2.34 1.59-2.65 1.9-.69 2.84-1 4.74-1.7l.37-.14a4 4 0 0 1 .38-.09 2.45 2.45 0 0 1 2.09.31 2 2 0 0 1 .8 1.53l-1.05 23.58.55-.15q5-12.54 9.92-25.07a2.9 2.9 0 0 1 .49-1.09 4.6 4.6 0 0 1 1-1 8.2 8.2 0 0 1 1.39-.83 6.4 6.4 0 0 1 1.64-.52 6.35 6.35 0 0 1 3.69.22 2.13 2.13 0 0 1 1.43 2 6.7 6.7 0 0 1-.26 2 17 17 0 0 1-.79 2.15c-.34.79-.74 1.67-1.21 2.63s-1 2.11-1.53 3.42a15 15 0 0 0-.45 1.44c-.12.44-.22.94-.31 1.48a10 10 0 0 0-.1 1.66 5.9 5.9 0 0 0 .27 1.69 3.3 3.3 0 0 0 .86 1.39 3.4 3.4 0 0 0 1.64.8 7.3 7.3 0 0 0 2.66 0 9.5 9.5 0 0 0 2.73-1 28 28 0 0 0 2.91-1.79c1.06-.74 2.16-1.55 3.28-2.44.07 3.47.1 5.21.17 8.68a33.7 33.7 0 0 1-5.33 3.32 19.5 19.5 0 0 1-5.29 1.8 11 11 0 0 1-3.82.05 7.3 7.3 0 0 1-2.88-1.13 6.3 6.3 0 0 1-1.87-2 5.5 5.5 0 0 1-.74-2.56q-1.11 2.43-2.52 5a49 49 0 0 1-2.94 4.77 25 25 0 0 1-3.06 3.68 6 6 0 0 1-2.92 1.79 4.8 4.8 0 0 1-3.58-.36 5 5 0 0 1-1.94-2.34 12.2 12.2 0 0 1-.86-3.43c-.15-1.27-.27-2.49-.38-3.64z" class="cls-1" style="fill:#fbee28"/><path id="path188" d="M193.645 193.22a15.2 15.2 0 0 1-6.51-.35 11.3 11.3 0 0 1-4.7-2.68 11.85 11.85 0 0 1-2.88-4.48 17 17 0 0 1-1.05-5.69 24.4 24.4 0 0 1 .35-4.45 25.6 25.6 0 0 1 1.23-4.73 26.7 26.7 0 0 1 2.14-4.57 21 21 0 0 1 3.06-4 17.3 17.3 0 0 1 4-3 13.9 13.9 0 0 1 4.93-1.6 11.6 11.6 0 0 1 4.1.11 8.8 8.8 0 0 1 3.33 1.45 7.34 7.34 0 0 1 2.24 2.63 8.6 8.6 0 0 1 .86 3.72 10.6 10.6 0 0 1-1.11 4.74 19.2 19.2 0 0 1-3.23 4.73 27.8 27.8 0 0 1-5 4.28 33 33 0 0 1-6.31 3.36 9.5 9.5 0 0 0 1.19 1.5 4.5 4.5 0 0 0 1.18.87 3.5 3.5 0 0 0 1.26.34 6 6 0 0 0 1.4 0 17 17 0 0 0 5-1.54 40 40 0 0 0 5.05-2.84 53 53 0 0 0 4.61-3.45 46 46 0 0 0 3.67-3.39c2.07 1.77 3.1 2.66 5.16 4.45a59.3 59.3 0 0 1-7.22 6.72c-1.11.86-2.3 1.73-3.58 2.59a41 41 0 0 1-4.05 2.39 34 34 0 0 1-4.42 1.88 24 24 0 0 1-4.7 1.01m-5.6-16.63a9.2 9.2 0 0 0 3.08-1.12 17 17 0 0 0 3.08-2.19 15.3 15.3 0 0 0 2.37-2.65 4.5 4.5 0 0 0 .94-2.57 4.84 4.84 0 0 0-.71-2.65 1.62 1.62 0 0 0-1.61-.86 7 7 0 0 0-2.89 1 7.5 7.5 0 0 0-2 1.81 9.5 9.5 0 0 0-1.25 2.33 15 15 0 0 0-.7 2.53 18 18 0 0 0-.29 2.41c-.01.76-.03 1.42-.02 1.96" class="cls-1" style="fill:#fbee28"/><path id="path190" d="M211.135 183.35c0-1.09 0-2.36.12-3.82s.25-3 .44-4.63.42-3.3.69-5 .55-3.32.86-4.86.63-3 .94-4.26a31 31 0 0 1 1-3.22 8.6 8.6 0 0 1 .6-1.36 2.9 2.9 0 0 1 .71-.83 2.54 2.54 0 0 1 1-.48 11 11 0 0 1 1.5-.24 9.4 9.4 0 0 1 1.59-.06 1.16 1.16 0 0 1 .85.36 1.8 1.8 0 0 1 .36 1c.05.44.08 1.05.09 1.81 0 .92 0 2 .07 3.32s.08 2.58.15 3.84h.43l1.7-3.48a23.4 23.4 0 0 1 2.2-3.63 14.2 14.2 0 0 1 2.89-2.94 7 7 0 0 1 3.77-1.39 4.4 4.4 0 0 1 1.45.13 3.6 3.6 0 0 1 1.24.6 2.9 2.9 0 0 1 .86 1 3.2 3.2 0 0 1 .35 1.45 13 13 0 0 1-.16 1.77c-.12.77-.25 1.57-.39 2.41s-.26 1.66-.38 2.45a13 13 0 0 0-.16 2 7.8 7.8 0 0 0 .32 2.21 3.7 3.7 0 0 0 .75 1.39 2.44 2.44 0 0 0 1 .69 3.4 3.4 0 0 0 1.19.15 10.3 10.3 0 0 0 3.62-1 27 27 0 0 0 3.4-1.86 36 36 0 0 0 3.53-2.64c-.17 3.5-.25 5.25-.42 8.74-.66.46-1.42 1-2.27 1.53s-1.75 1.1-2.71 1.61a23 23 0 0 1-3 1.33 12.3 12.3 0 0 1-3.21.67 8.66 8.66 0 0 1-4.75-.82 7.76 7.76 0 0 1-2.91-2.75 13.8 13.8 0 0 1-1.65-4c-.37-1.5-.67-3-.91-4.56l-.63.05c-2.65 7.65-4 11.48-6.64 19.14q-.52 1.5-1 2.49a9.5 9.5 0 0 1-1 1.63 3.24 3.24 0 0 1-1.08.94 3.6 3.6 0 0 1-1.29.37 4.44 4.44 0 0 1-2.6-.39 3.8 3.8 0 0 1-1.55-1.58 7.3 7.3 0 0 1-.75-2.41 22 22 0 0 1-.21-2.87" class="cls-1" style="fill:#fbee28"/><path id="path192" d="M243.565 174.18q2.15-1.9 3.49-3.17c.89-.84 1.65-1.6 2.29-2.29a26 26 0 0 0 1.73-2.07l1.84-2.47 2.58-3.48c1-1.36 2.33-3.07 3.95-5.11a12.4 12.4 0 0 1 1.1-1.34 8.5 8.5 0 0 1 1.35-1.18 7.5 7.5 0 0 1 1.66-.87 6.1 6.1 0 0 1 2-.36 8 8 0 0 1 2.87.33 3.54 3.54 0 0 1 1.49.93 2.27 2.27 0 0 1 .56 1.17 10 10 0 0 1 .1 1.06 3.6 3.6 0 0 1-.7 2 21 21 0 0 1-1.58 2.12c-.59.68-1.14 1.31-1.65 1.88a3.55 3.55 0 0 0-.89 1.26 7.1 7.1 0 0 0 .21 2.11 16 16 0 0 0 .5 1.85c.21.61.42 1.25.64 1.93s.43 1.47.64 2.36a29 29 0 0 1 .53 3.09c.13 1.17.22 2.55.25 4.15a23 23 0 0 1 3-1.67l3.31-1.53c1.15-.53 2.33-1.11 3.54-1.75a28.6 28.6 0 0 0 3.64-2.28c.08 3.35.11 5 .19 8.38a36.4 36.4 0 0 1-5.47 3.34 57 57 0 0 1-6.56 2.8 55 55 0 0 1-7 2 37.6 37.6 0 0 1-6.72.88 22 22 0 0 1-4.28-.25 11.3 11.3 0 0 1-3.51-1.14 6.9 6.9 0 0 1-2.47-2.17 7.25 7.25 0 0 1-1.2-3.36 8 8 0 0 1-1.07.2c-.35 0-.69.08-1 .1h-1.17a1.87 1.87 0 0 1-.94-.23 1.53 1.53 0 0 1-.64-.74 4 4 0 0 1-.26-1.53 3.15 3.15 0 0 1 .43-1.68 7 7 0 0 1 1.07-1.43 11 11 0 0 1 1.23-1.11c.41-.29.71-.54.92-.73m5.08 4.51a1.5 1.5 0 0 1 1 .51q.57.53 1.32 1.17a9.4 9.4 0 0 0 1.74 1.15 4.3 4.3 0 0 0 2.23.48 5.9 5.9 0 0 0 2.49-.57 4.3 4.3 0 0 0 1.55-1.34 4.85 4.85 0 0 0 .78-1.89 10.7 10.7 0 0 0 .19-2.22 14.4 14.4 0 0 0-.18-2.05c-.1-.69-.23-1.35-.38-2s-.32-1.22-.5-1.78-.34-1-.48-1.42c-3.87 3.97-5.84 5.95-9.76 9.96" class="cls-1" style="fill:#fbee28"/><path id="path194" d="M125.885 235.89a3.38 3.38 0 0 1-2.14-6c.58-.47 14.54-11.73 41.55-19.94 24.75-7.51 65.64-13.73 120-.67a3.37 3.37 0 0 1-1.65 6.53c-52.65-12.66-92.17-6.74-116 .45-25.87 7.8-39.48 18.72-39.62 18.83a3.35 3.35 0 0 1-2.14.8" class="cls-1" style="fill:#fbee28"/></svg>