<svg xmlns="http://www.w3.org/2000/svg" id="Layer_1" data-name="Layer 1" version="1.1" width="342.55" height="428.69"><defs id="defs4"><style id="style2">.cls-1,.cls-5{fill:#fbee28}.cls-7{fill:#fff}.cls-5{stroke-miterlimit:10;stroke-width:2.03px;stroke:#fbee28}</style></defs><path class="cls-1" id="rect120" style="fill:#fbee28" d="M1.055 195.91h340.48v212.11H1.055z"/><path style="fill:#fbee28" d="M236.995 21.12v68.06h13.52V51.16s-2.85-10.63 5.7-10.63 13.37 2.35 14 8.11c0 0-.962 2.84-3.234 5.16l3.795.61v53.7h13.51V28.69z" id="polygon134"/><path style="fill:#fbee28" d="m54.905 0-.45 89.18h13.51v-58.3l6.307 1.009-8.107-8.47s-3.16-7.66 8.1-7.66 13.06 3.261 13.51 10.811l.45 7.55v87.51h13.52l.45-117.13z" id="polygon132"/><path id="polygon146" style="fill:#231f20;stroke:#231f20;stroke-width:2.02999997px;stroke-linecap:round;stroke-linejoin:round" d="M241.485 113.58V95.35l52.02 15.53v14.85l-16.83-.29zm-183.75 6.08v-18.23l52.02 15.53v14.85l-16.83-.29zm-56.68-4.59h340.48v292.96H1.055z"/><path class="cls-5" d="M341.535 285.27a26.65 26.65 0 0 1-7.39 2.21c-5.26.79-12.93.31-16.16-4.66-1.6-2.46-1.43-6.67.93-8.62 1.07-.89 3.83-2.69 4.87-1.31-8.07-10.76-22.28-3.44-29 5.54a23.46 23.46 0 0 1-15.69 8.84c-5.25.72-12.93.18-16.13-4.75-1.61-2.46-1.44-6.67.93-8.62 1.07-.88 3.83-2.69 4.87-1.31-8.08-10.76-22.28-3.44-29 5.54-5.88 7.84-15.27 9.91-24.48 8-2.85-.58-5.8-1.69-7.46-4.24-1.66-2.55-1.43-6.67.94-8.62 1.07-.89 3.82-2.69 4.87-1.31-8.08-10.76-22.28-3.44-29 5.53a23.43 23.43 0 0 1-15.69 8.85c-5.25.72-12.93.18-16.14-4.75-1.6-2.46-1.43-6.67.94-8.62 1.07-.88 3.82-2.69 4.87-1.31-8.08-10.76-22.28-3.44-29 5.54a23.62 23.62 0 0 1-15.67 8.84c-5.27.79-12.94.32-16.17-4.65-1.6-2.47-1.43-6.67.94-8.62 1.07-.89 3.82-2.69 4.86-1.31-8.07-10.77-22.28-3.44-29 5.53a23.39 23.39 0 0 1-15.69 8.84c-5.24.72-12.93.19-16.13-4.74-1.6-2.47-1.43-6.67.93-8.62 1.08-.89 3.83-2.69 4.87-1.31-8.07-10.77-22.28-3.44-29 5.53-6.72 8.97-17.49 9-17.49 9h-1v64.71h340.47z" id="path124" style="fill:#fbee28;stroke:#fbee28;stroke-width:2.02999997px;stroke-miterlimit:10"/><path d="M1.055 366.61h340.48v-61.43c-6.92 0-14.41 5.08-18.76 10.88a23.59 23.59 0 0 1-15.67 8.85c-5.27.79-12.94.32-16.17-4.65-1.6-2.47-1.43-6.67.94-8.63 1.07-.88 3.82-2.68 4.87-1.3-8.08-10.77-22.28-3.44-29 5.53a23.44 23.44 0 0 1-15.7 8.84c-5.24.72-12.93.19-16.13-4.74-1.6-2.47-1.43-6.67.94-8.62 1.07-.89 3.82-2.69 4.86-1.31-8.07-10.77-22.28-3.44-29 5.53-5.89 7.84-15.28 9.92-24.48 8-2.86-.57-5.81-1.69-7.46-4.24-1.65-2.55-1.43-6.66.94-8.62 1.07-.88 3.82-2.68 4.86-1.31-8.07-10.76-22.28-3.43-29 5.54a23.39 23.39 0 0 1-15.71 8.88c-5.24.72-12.93.18-16.13-4.74-1.6-2.47-1.43-6.67.93-8.63 1.08-.88 3.83-2.68 4.87-1.3-8.07-10.77-22.28-3.44-29 5.53a23.61 23.61 0 0 1-15.67 8.85c-5.27.79-12.93.31-16.16-4.66-1.61-2.46-1.44-6.67.93-8.62 1.07-.89 3.83-2.69 4.87-1.31-8.07-10.76-22.28-3.44-29 5.53a23.43 23.43 0 0 1-15.69 8.85c-5.25.71-12.93.18-16.14-4.75-1.6-2.46-1.43-6.67.94-8.62 1.07-.89 3.83-2.69 4.87-1.31-5.42-7.22-13.58-6.3-20.41-2.2z" id="path126" style="fill:#231f20;stroke:#231f20;stroke-width:2.02999997px;stroke-linecap:round;stroke-linejoin:round"/><path class="cls-5" d="M341.535 363.15a26.32 26.32 0 0 1-7.39 2.21c-5.26.79-12.93.32-16.16-4.65-1.6-2.47-1.43-6.67.93-8.62 1.07-.89 3.83-2.69 4.87-1.31-8.07-10.77-22.28-3.44-29 5.53a23.42 23.42 0 0 1-15.69 8.84c-5.25.72-12.93.19-16.13-4.74-1.61-2.47-1.44-6.67.93-8.62 1.07-.89 3.83-2.69 4.87-1.31-8.08-10.77-22.28-3.44-29 5.53-5.88 7.85-15.27 9.92-24.48 8-2.85-.57-5.8-1.69-7.46-4.23-1.66-2.54-1.43-6.67.94-8.62 1.07-.89 3.82-2.69 4.87-1.31-8.08-10.77-22.28-3.44-29 5.53a23.42 23.42 0 0 1-15.69 8.84c-5.25.72-12.93.19-16.14-4.74-1.6-2.47-1.43-6.67.94-8.62 1.07-.89 3.82-2.69 4.87-1.31-8.08-10.77-22.28-3.44-29 5.53a23.63 23.63 0 0 1-15.67 8.85c-5.27.79-12.94.32-16.17-4.66-1.6-2.46-1.43-6.67.94-8.62 1.07-.88 3.82-2.69 4.86-1.31-8.07-10.76-22.28-3.44-29 5.54a23.43 23.43 0 0 1-15.74 8.93c-5.24.72-12.93.18-16.13-4.75-1.6-2.46-1.43-6.66.93-8.62 1.08-.88 3.83-2.69 4.87-1.31-8.07-10.76-22.28-3.43-29 5.54-6.72 8.97-17.49 9-17.49 9h-1v44.43h340.52z" id="path128" style="fill:#fbee28;stroke:#fbee28;stroke-width:2.02999997px;stroke-miterlimit:10"/><path style="fill:#fbee28;stroke-width:1.00089276" clip-path="none" d="M196.88 78.566c-34.813.085-66.594 1.635-92.676 3.534-5.535.403-10.862.833-16.088 1.275v13.564c5.542-.472 11.207-.93 17.109-1.359 42.287-3.087 99.753-5.23 160.656-1.584V80.453c-23.762-1.402-46.989-1.94-69.002-1.887zm73.4 2.16v13.55c20.923 1.345 42.212 3.39 63.404 6.316v-13.65c-21.214-2.88-42.497-4.89-63.404-6.215zM83.717 83.753c-35.513 3.113-62.8 6.859-77.379 9.059v13.668c13.52-2.08 40.954-5.946 77.38-9.165z" id="path130"/><path style="fill:none;stroke:#fbee28;stroke-width:6.68954802px;stroke-miterlimit:10" clip-path="none" d="M95.709 28.35C79.033 59.433 32.59 81.188 9.674 90.37v4.742l323.475-3.902c-41.683-6.082-58.736-42.565-58.736-42.565-31.6 33.112-94.056 32.432-94.056 32.432-60.84-.71-84.648-52.728-84.648-52.728z" id="path136"/><path style="fill:none;stroke:#fbee28;stroke-width:6.71917868px;stroke-miterlimit:10" d="M63.353 22.96S48.128 57.5 9.735 73.796v2.81l100.656-15.501C78.38 44.434 63.353 22.96 63.353 22.96zm47.038 38.144c17.16 8.936 39.19 16.495 66.429 18.617 0 0 49.388-.68 62.735-38.51z" id="path138"/><path class="cls-7" id="polygon148" style="fill:#fff" transform="translate(-108.355 -297.19)" d="m214.35 431.63-59.62-20.37 1.26-3.85 57.41 18.7z"/><path class="cls-7" id="polygon150" style="fill:#fff" transform="translate(-108.355 -297.19)" d="m402.83 430.96-59.61-20.37 1.25-3.85 57.42 18.69z"/><path id="rect160" style="fill:#fbee28;stroke:#fbee28;stroke-width:2.0999999px;stroke-miterlimit:10" d="M44.275 404.67h249.24v22.97H44.275z"/><path d="M73.645 411.15h-2.79v4.51h-2.47v-14h5.54c3.27 0 5.34 1.84 5.34 4.71-.02 3.13-2.55 4.78-5.62 4.78zm.08-7.28h-2.87v5.05h2.87c1.86 0 3-1 3-2.53.01-1.66-1.18-2.52-3.02-2.52z" id="path162"/><path d="M92.405 401.62v14h-2.46v-14z" id="path164"/><path d="M110.125 415.66h-2.48v-11.75h-4.46v-2.29h11.4v2.29h-4.46z" id="path166"/><path d="M131.165 415.66h-2.52v-11.75h-4.46v-2.29h11.46v2.29h-4.45z" id="path168"/><path d="M151.365 407.52c3 .72 4.52 1.78 4.52 4.13 0 2.65-2.07 4.21-5 4.21a8.69 8.69 0 0 1-5.86-2.24l1.49-1.77a6.44 6.44 0 0 0 4.43 1.83c1.53 0 2.49-.7 2.49-1.79s-.56-1.56-3.17-2.16c-3-.73-4.67-1.61-4.67-4.22 0-2.45 2-4.09 4.79-4.09a7.81 7.81 0 0 1 5.1 1.76l-1.33 1.87a6.4 6.4 0 0 0-3.81-1.45c-1.44 0-2.29.75-2.29 1.69-.02 1.1.59 1.59 3.31 2.23z" id="path170"/><path d="M177.735 405.21a3.33 3.33 0 0 1-2 3.15c1.64.56 2.79 1.51 2.79 3.43 0 2.53-2.07 3.87-5.2 3.87h-6.5v-14h6.3c2.83-.04 4.61 1.34 4.61 3.55zm-2.46.4c0-1.14-.89-1.8-2.47-1.8h-3.55v3.73h3.39c1.56 0 2.63-.62 2.63-1.93zm.78 5.92c0-1.2-.94-1.91-2.89-1.91h-3.91v3.86h4.09c1.69 0 2.71-.67 2.71-1.95z" id="path172"/><path d="M201.145 409.59c0 4.19-2.37 6.3-6 6.3s-6-2.11-6-6.19v-8.08h2.46v8c0 2.61 1.35 4 3.56 4s3.53-1.33 3.53-3.92v-8.08h2.47z" id="path174"/><path d="m221.575 415.66-3.45-4.85h-3.1v4.89h-2.46v-14h6.26c3.23 0 5.21 1.7 5.21 4.45a4.21 4.21 0 0 1-3.35 4.28l3.8 5.31zm-2.93-11.79h-3.6v4.71h3.6c1.76 0 2.89-.92 2.89-2.37 0-1.45-1.09-2.34-2.89-2.34z" id="path176"/><path d="M241.765 415.91a7 7 0 0 1-7.29-7.25 7.16 7.16 0 0 1 7.25-7.28 7.59 7.59 0 0 1 5.39 1.9l-1.56 1.87a5.51 5.51 0 0 0-3.93-1.5 5.001 5.001 0 0 0 .22 10 5.75 5.75 0 0 0 3.39-1.06v-2.63h-3.59v-2.15h6v5.9a9 9 0 0 1-5.88 2.2z" id="path178"/><path d="M261.335 409.75v5.91h-2.47v-14h2.47v5.84h6.7v-5.84h2.47v14h-2.47v-5.91z" id="path180"/><path class="cls-1" d="M122.095 160.47a13.25 13.25 0 0 1-.55 3.86 20 20 0 0 1-1.86 4.31 28.35 28.35 0 0 1-3.27 4.51 33.27 33.27 0 0 1-4.83 4.44 48.25 48.25 0 0 1-6.44 4.1 57.12 57.12 0 0 1-8.17 3.53 11.36 11.36 0 0 1 4.68 1.11 10.27 10.27 0 0 1 3.18 2.46 12.59 12.59 0 0 1 2.06 3.34 37.09 37.09 0 0 1 1.33 3.68c.37 1.22.71 2.4 1 3.53a15.69 15.69 0 0 0 1.06 2.91 4.49 4.49 0 0 0 1.49 1.81 2.83 2.83 0 0 0 2.35.21 14.16 14.16 0 0 0 2.94-1.19 26.55 26.55 0 0 0 3.27-2 35.73 35.73 0 0 0 3.28-2.66 33.82 33.82 0 0 0 3-3.09c1.9 2.42 2.85 3.64 4.75 6.09a5 5 0 0 0-.75.63q-.74.68-2.07 1.74c-.89.72-1.94 1.52-3.15 2.42-1.21.9-2.56 1.79-4 2.67a52.67 52.67 0 0 1-4.67 2.47 31 31 0 0 1-5 1.83 7.63 7.63 0 0 1-8.49-2.5 15.91 15.91 0 0 1-2.48-4.25 51.32 51.32 0 0 1-1.78-5.16q-.78-2.69-1.45-5.26a34.76 34.76 0 0 0-1.46-4.51 8.7 8.7 0 0 0-1.86-2.94 2.48 2.48 0 0 0-2.6-.54l-2.49.75q-.63 8.24-1.68 14.91a60.9 60.9 0 0 1-2.92 11.7 25.84 25.84 0 0 1-4.76 8.27 16.19 16.19 0 0 1-7.17 4.66 14.69 14.69 0 0 1-5.81.81 11.57 11.57 0 0 1-4.8-1.41 12.7 12.7 0 0 1-3.79-3.21 19.72 19.72 0 0 1-2.74-4.6 28.74 28.74 0 0 1-1.7-5.55 33.78 33.78 0 0 1-.66-6.08 45.63 45.63 0 0 1 1.29-11.55 58.49 58.49 0 0 1 4.16-11.75 68.84 68.84 0 0 1 6.74-11.24 70.08 70.08 0 0 1 9-10 65 65 0 0 1 11-8.15 55.78 55.78 0 0 1 12.64-5.5 33.83 33.83 0 0 1 5.91-1.19 27.12 27.12 0 0 1 5.61-.07 19.58 19.58 0 0 1 5 1.11 13 13 0 0 1 4 2.32 10.87 10.87 0 0 1 2.68 3.52 11.47 11.47 0 0 1 .98 4.7zm-24.77-2.08a44.33 44.33 0 0 0-11.61 5.22 46 46 0 0 0-8.91 7.39 46.94 46.94 0 0 0-6.46 8.81 56.58 56.58 0 0 0-4.26 9.35 52.54 52.54 0 0 0-2.29 9.17 48.36 48.36 0 0 0-.6 8.29 29 29 0 0 0 .67 5.71 14.84 14.84 0 0 0 1.85 4.73 7.07 7.07 0 0 0 3.14 2.8 6.27 6.27 0 0 0 4.56 0 4.92 4.92 0 0 0 2.35-1.73 13.62 13.62 0 0 0 1.77-3.18 29.68 29.68 0 0 0 1.3-4.19c.37-1.54.66-3.12.9-4.73.24-1.61.41-3.23.53-4.83.12-1.6.22-3.1.29-4.49.07-1.39.09-2.61.1-3.67.01-1.06 0-1.88 0-2.44a19.59 19.59 0 0 1-4.74-1 2.28 2.28 0 0 1-1.66-2.16v-.9a4.16 4.16 0 0 1 .24-1 3.2 3.2 0 0 1 .56-.93 2.14 2.14 0 0 1 1-.64q.27-.09 1.11-.27c.55-.12 1.13-.23 1.74-.34l1.69-.33c.51-.1.85-.17 1-.22v-.78c0-.31.05-.95.11-1.65a21.4 21.4 0 0 1 .29-2.29 18.18 18.18 0 0 1 .64-2.57 11.48 11.48 0 0 1 1.16-2.52 9.39 9.39 0 0 1 1.85-2.19 6.77 6.77 0 0 1 2.54-1.39c1.31-.4 2.2-.4 2.64 0a2.52 2.52 0 0 1 .7 1.89v.33a29.46 29.46 0 0 1-.38 3.8q-.37 2.41-.66 5.5a61.22 61.22 0 0 0 10.62-4.32 30.9 30.9 0 0 0 6.59-4.59 14.19 14.19 0 0 0 3.37-4.54 9.85 9.85 0 0 0 .91-4 5.66 5.66 0 0 0-1-3.18 6.08 6.08 0 0 0-2.81-2.15 11.8 11.8 0 0 0-4.56-.75 23.85 23.85 0 0 0-6.28.98z" id="path182" style="fill:#fbee28"/><path class="cls-1" d="M147.125 193.36a46.21 46.21 0 0 1-3.48 3.34 53.16 53.16 0 0 1-4.52 3.53 50.72 50.72 0 0 1-5 3.06 20.26 20.26 0 0 1-4.83 1.9 10.11 10.11 0 0 1-3.48.3 4.49 4.49 0 0 1-2.3-.93 4.12 4.12 0 0 1-1.3-2 10.37 10.37 0 0 1-.44-2.93 31.79 31.79 0 0 1 .46-5.51c.34-2.13.77-4.36 1.27-6.68.5-2.32 1.05-4.65 1.63-7 .58-2.35 1.08-4.46 1.52-6.41a4.33 4.33 0 0 1 1.07-1.9 9.39 9.39 0 0 1 1.86-1.56 13.93 13.93 0 0 1 2.16-1.14 13.14 13.14 0 0 1 2-.68 3 3 0 0 1 2.27.05 1.61 1.61 0 0 1 .62 1.38 10.69 10.69 0 0 1-.35 2.42c-.24 1.08-.54 2.3-.91 3.68-.37 1.38-.77 2.85-1.18 4.43-.41 1.58-.81 3.16-1.18 4.73-.37 1.57-.66 3.09-.9 4.56a21.8 21.8 0 0 0-.31 3.89 6.33 6.33 0 0 0 .45 2.53c.27.58.82.78 1.64.59a8.69 8.69 0 0 0 3.15-1.64 38.2 38.2 0 0 0 3.47-3c1.17-1.13 2.32-2.29 3.43-3.46 1.11-1.17 2.1-2.18 3-3zm-18.48-33.71a6.28 6.28 0 0 1 .36-2 7.92 7.92 0 0 1 1.24-2.31 9.85 9.85 0 0 1 2.35-2.14 11 11 0 0 1 3.68-1.51 11.27 11.27 0 0 1 2.62-.3 5.73 5.73 0 0 1 2.16.41 3.33 3.33 0 0 1 1.48 1.28 4.28 4.28 0 0 1 .58 2.23 7.68 7.68 0 0 1-.38 2.52 7.38 7.38 0 0 1-1.35 2.4 9.65 9.65 0 0 1-2.36 2 11.25 11.25 0 0 1-3.45 1.36q-3.48.81-5.18-.31a4.18 4.18 0 0 1-1.75-3.63z" id="path184" style="fill:#fbee28"/><path class="cls-1" d="M144.235 189.88c-.12-1.82-.23-3.4-.34-4.74-.11-1.34-.2-2.56-.29-3.64-.09-1.08-.16-2.1-.21-3-.05-.9-.07-1.88-.09-2.86a36.15 36.15 0 0 1 .25-6c.22-1.46.75-2.34 1.59-2.65 1.9-.69 2.84-1 4.74-1.7l.37-.14a3.54 3.54 0 0 1 .38-.09 2.45 2.45 0 0 1 2.09.31 2 2 0 0 1 .8 1.53l-1.05 23.58.55-.15q5-12.54 9.92-25.07a2.92 2.92 0 0 1 .49-1.09 4.64 4.64 0 0 1 1-1 8.24 8.24 0 0 1 1.39-.83 6.41 6.41 0 0 1 1.64-.52 6.35 6.35 0 0 1 3.69.22 2.13 2.13 0 0 1 1.43 2 6.74 6.74 0 0 1-.26 2 16.57 16.57 0 0 1-.79 2.15c-.34.79-.74 1.67-1.21 2.63s-1 2.11-1.53 3.42a15 15 0 0 0-.45 1.44c-.12.44-.22.94-.31 1.48a10.21 10.21 0 0 0-.1 1.66 5.86 5.86 0 0 0 .27 1.69 3.3 3.3 0 0 0 .86 1.39 3.42 3.42 0 0 0 1.64.8 7.25 7.25 0 0 0 2.66 0 9.47 9.47 0 0 0 2.73-1 27.91 27.91 0 0 0 2.91-1.79c1.06-.74 2.16-1.55 3.28-2.44.07 3.47.1 5.21.17 8.68a33.66 33.66 0 0 1-5.33 3.32 19.5 19.5 0 0 1-5.29 1.8 11 11 0 0 1-3.82.05 7.31 7.31 0 0 1-2.88-1.13 6.32 6.32 0 0 1-1.87-2 5.52 5.52 0 0 1-.74-2.56q-1.11 2.43-2.52 5a48.68 48.68 0 0 1-2.94 4.77 25.18 25.18 0 0 1-3.06 3.68 6 6 0 0 1-2.92 1.79 4.79 4.79 0 0 1-3.58-.36 5 5 0 0 1-1.94-2.34 12.15 12.15 0 0 1-.86-3.43c-.15-1.27-.27-2.49-.38-3.64z" id="path186" style="fill:#fbee28"/><path class="cls-1" d="M193.645 193.22a15.17 15.17 0 0 1-6.51-.35 11.3 11.3 0 0 1-4.7-2.68 11.85 11.85 0 0 1-2.88-4.48 17 17 0 0 1-1.05-5.69 24.37 24.37 0 0 1 .35-4.45 25.56 25.56 0 0 1 1.23-4.73 26.67 26.67 0 0 1 2.14-4.57 20.88 20.88 0 0 1 3.06-4 17.27 17.27 0 0 1 4-3 13.89 13.89 0 0 1 4.93-1.6 11.63 11.63 0 0 1 4.1.11 8.82 8.82 0 0 1 3.33 1.45 7.34 7.34 0 0 1 2.24 2.63 8.6 8.6 0 0 1 .86 3.72 10.57 10.57 0 0 1-1.11 4.74 19.23 19.23 0 0 1-3.23 4.73 27.78 27.78 0 0 1-5 4.28 33 33 0 0 1-6.31 3.36 9.46 9.46 0 0 0 1.19 1.5 4.46 4.46 0 0 0 1.18.87 3.47 3.47 0 0 0 1.26.34 6.07 6.07 0 0 0 1.4 0 17 17 0 0 0 5-1.54 40.09 40.09 0 0 0 5.05-2.84 52.68 52.68 0 0 0 4.61-3.45 45.93 45.93 0 0 0 3.67-3.39c2.07 1.77 3.1 2.66 5.16 4.45a59.29 59.29 0 0 1-7.22 6.72c-1.11.86-2.3 1.73-3.58 2.59a40.63 40.63 0 0 1-4.05 2.39 33.91 33.91 0 0 1-4.42 1.88 23.83 23.83 0 0 1-4.7 1.01zm-5.6-16.63a9.2 9.2 0 0 0 3.08-1.12 17 17 0 0 0 3.08-2.19 15.25 15.25 0 0 0 2.37-2.65 4.5 4.5 0 0 0 .94-2.57 4.84 4.84 0 0 0-.71-2.65 1.62 1.62 0 0 0-1.61-.86 7 7 0 0 0-2.89 1 7.48 7.48 0 0 0-2 1.81 9.5 9.5 0 0 0-1.25 2.33 15.18 15.18 0 0 0-.7 2.53 17.74 17.74 0 0 0-.29 2.41c-.01.76-.03 1.42-.02 1.96z" id="path188" style="fill:#fbee28"/><path class="cls-1" d="M211.135 183.35c0-1.09 0-2.36.12-3.82s.25-3 .44-4.63.42-3.3.69-5c.27-1.7.55-3.32.86-4.86.31-1.54.63-3 .94-4.26a31.35 31.35 0 0 1 1-3.22 8.62 8.62 0 0 1 .6-1.36 2.91 2.91 0 0 1 .71-.83 2.54 2.54 0 0 1 1-.48 10.74 10.74 0 0 1 1.5-.24 9.35 9.35 0 0 1 1.59-.06 1.16 1.16 0 0 1 .85.36 1.81 1.81 0 0 1 .36 1c.05.44.08 1.05.09 1.81 0 .92 0 2 .07 3.32.07 1.32.08 2.58.15 3.84h.43l1.7-3.48a23.39 23.39 0 0 1 2.2-3.63 14.15 14.15 0 0 1 2.89-2.94 7 7 0 0 1 3.77-1.39 4.41 4.41 0 0 1 1.45.13 3.58 3.58 0 0 1 1.24.6 2.91 2.91 0 0 1 .86 1 3.2 3.2 0 0 1 .35 1.45 13.06 13.06 0 0 1-.16 1.77c-.12.77-.25 1.57-.39 2.41-.14.84-.26 1.66-.38 2.45a13.07 13.07 0 0 0-.16 2 7.79 7.79 0 0 0 .32 2.21 3.73 3.73 0 0 0 .75 1.39 2.44 2.44 0 0 0 1 .69 3.39 3.39 0 0 0 1.19.15 10.3 10.3 0 0 0 3.62-1 27.27 27.27 0 0 0 3.4-1.86 35.6 35.6 0 0 0 3.53-2.64c-.17 3.5-.25 5.25-.42 8.74-.66.46-1.42 1-2.27 1.53-.85.53-1.75 1.1-2.71 1.61a23.25 23.25 0 0 1-3 1.33 12.33 12.33 0 0 1-3.21.67 8.66 8.66 0 0 1-4.75-.82 7.76 7.76 0 0 1-2.91-2.75 13.8 13.8 0 0 1-1.65-4c-.37-1.5-.67-3-.91-4.56l-.63.05c-2.65 7.65-4 11.48-6.64 19.14q-.52 1.5-1 2.49a9.47 9.47 0 0 1-1 1.63 3.24 3.24 0 0 1-1.08.94 3.64 3.64 0 0 1-1.29.37 4.44 4.44 0 0 1-2.6-.39 3.81 3.81 0 0 1-1.55-1.58 7.25 7.25 0 0 1-.75-2.41 21.61 21.61 0 0 1-.21-2.87z" id="path190" style="fill:#fbee28"/><path class="cls-1" d="M243.565 174.18q2.15-1.9 3.49-3.17c.89-.84 1.65-1.6 2.29-2.29a26.35 26.35 0 0 0 1.73-2.07l1.84-2.47 2.58-3.48c1-1.36 2.33-3.07 3.95-5.11a12.4 12.4 0 0 1 1.1-1.34 8.46 8.46 0 0 1 1.35-1.18 7.47 7.47 0 0 1 1.66-.87 6.12 6.12 0 0 1 2-.36 8 8 0 0 1 2.87.33 3.54 3.54 0 0 1 1.49.93 2.27 2.27 0 0 1 .56 1.17 9.52 9.52 0 0 1 .1 1.06 3.58 3.58 0 0 1-.7 2 20.81 20.81 0 0 1-1.58 2.12c-.59.68-1.14 1.31-1.65 1.88a3.55 3.55 0 0 0-.89 1.26 7.11 7.11 0 0 0 .21 2.11 16.25 16.25 0 0 0 .5 1.85c.21.61.42 1.25.64 1.93.22.68.43 1.47.64 2.36a28.93 28.93 0 0 1 .53 3.09c.13 1.17.22 2.55.25 4.15a22.87 22.87 0 0 1 3-1.67l3.31-1.53c1.15-.53 2.33-1.11 3.54-1.75a28.62 28.62 0 0 0 3.64-2.28c.08 3.35.11 5 .19 8.38a36.35 36.35 0 0 1-5.47 3.34 57 57 0 0 1-6.56 2.8 55.35 55.35 0 0 1-7 2 37.6 37.6 0 0 1-6.72.88 21.87 21.87 0 0 1-4.28-.25 11.32 11.32 0 0 1-3.51-1.14 6.9 6.9 0 0 1-2.47-2.17 7.25 7.25 0 0 1-1.2-3.36 8.36 8.36 0 0 1-1.07.2c-.35 0-.69.08-1 .1h-1.17a1.87 1.87 0 0 1-.94-.23 1.53 1.53 0 0 1-.64-.74 4 4 0 0 1-.26-1.53 3.15 3.15 0 0 1 .43-1.68 6.93 6.93 0 0 1 1.07-1.43 11.31 11.31 0 0 1 1.23-1.11c.41-.29.71-.54.92-.73zm5.08 4.51a1.49 1.49 0 0 1 1 .51q.57.53 1.32 1.17a9.38 9.38 0 0 0 1.74 1.15 4.31 4.31 0 0 0 2.23.48 5.87 5.87 0 0 0 2.49-.57 4.33 4.33 0 0 0 1.55-1.34 4.85 4.85 0 0 0 .78-1.89 10.73 10.73 0 0 0 .19-2.22 14.44 14.44 0 0 0-.18-2.05c-.1-.69-.23-1.35-.38-2-.15-.65-.32-1.22-.5-1.78s-.34-1-.48-1.42c-3.87 3.97-5.84 5.95-9.76 9.96z" id="path192" style="fill:#fbee28"/><path class="cls-1" d="M125.885 235.89a3.38 3.38 0 0 1-2.14-6c.58-.47 14.54-11.73 41.55-19.94 24.75-7.51 65.64-13.73 120-.67a3.37 3.37 0 0 1-1.65 6.53c-52.65-12.66-92.17-6.74-116 .45-25.87 7.8-39.48 18.72-39.62 18.83a3.35 3.35 0 0 1-2.14.8z" id="path194" style="fill:#fbee28"/></svg>