<svg xmlns="http://www.w3.org/2000/svg" id="Layer_1" data-name="Layer 1" version="1.1" width="347.81" height="288.99"><defs id="defs4"><style id="style2">.cls-1{fill:#1e1e1e}.cls-14,.cls-15{stroke-miterlimit:10}.cls-3{fill:#e41d34}.cls-15{fill:none}.cls-14{stroke:#56b947;fill:#56b947}.cls-15{stroke:#1e1e1e}.cls-10{fill:#fff}.cls-11{fill:#e7a9cc}.cls-14{stroke-width:6.18px}.cls-15{stroke-width:5.43px}</style></defs><path class="cls-1" id="rect6" style="fill:#1e1e1e" d="M10.87 41.66h325.16v236.4H10.87z"/><ellipse class="cls-1" cx="166.2" cy="43.02" rx="82.87" ry="43.02" id="ellipse8" style="fill:#1e1e1e"/><path class="cls-11" d="M65.64 210.29h-18.8V66.5h30.61q18.79 0 28.6 10.73 9 10.33 9 29.65 0 19.71-9 29.86-9.6 10.92-28.6 10.92H65.64zm0-81.16h11.81q7.8 0 10.6-1.76a16.65 16.65 0 0 0 3.6-2.73q4.4-4.48 4.4-17.76a43.29 43.29 0 0 0-1.2-11.31 15.14 15.14 0 0 0-3.5-6.64 11.44 11.44 0 0 0-5.8-3.12 37.6 37.6 0 0 0-8.1-.78H65.64z" id="path54" style="fill:#e7a9cc"/><path class="cls-11" d="M285.41 139.63a34.28 34.28 0 0 1 8.3 12.1 41.46 41.46 0 0 1 2.91 16v42.53h-19v-42.53q0-18.93-18.8-18.93h-11.83v61.46h-18.8V66.46h30.61q19 0 28.6 10.93 8.8 9.94 8.81 30.05 0 19.89-8.81 30.24c-.26.26-.57.58-.9 1a4.81 4.81 0 0 1-1.09.95zm-26.6-9.37q7.59 0 10.5-1.75a16.22 16.22 0 0 0 3.7-2.73q4.4-5.46 4.4-18.34a45.44 45.44 0 0 0-1.2-11.61 15.93 15.93 0 0 0-3.5-6.83 11.09 11.09 0 0 0-5.8-3.22 37.6 37.6 0 0 0-8.1-.78h-11.82v45.26h11.81z" id="path56" style="fill:#e7a9cc"/><path class="cls-3" d="M134.64 37.67v64.61a32.59 32.59 0 0 0 65.18 0V37.67z" id="path58" style="fill:#e41d34"/><path id="rect60" style="fill:#56b947" d="M162.34 150.98h9.78v80.19h-9.78z"/><path d="M147.3 190.45s-18.1-33.31-62.31-10.86c0 0 15.24 32.59 62.31 10.86z" id="path62" style="fill:#56b947;stroke:#56b947;stroke-width:9.77999973px;stroke-miterlimit:10"/><path class="cls-14" id="polygon64" style="fill:#56b947;stroke:#56b947;stroke-width:6.17999983px;stroke-miterlimit:10" transform="translate(-577.01 -361.01)" d="m760.11 540.61-8.24-5.03v8.23z"/><path class="cls-14" id="polygon66" style="fill:#56b947;stroke:#56b947;stroke-width:6.17999983px;stroke-miterlimit:10" transform="translate(-577.01 -361.01)" d="m730.13 578.84 8.24-5.04v8.24z"/><path class="cls-15" id="line68" style="fill:none;stroke:#1e1e1e;stroke-width:5.42999983px;stroke-miterlimit:10" d="m157.81 194.07-61.92-12.31"/><path class="cls-1" id="polyline70" style="fill:#1e1e1e" transform="translate(-577.01 -361.01)" d="m672.27 545.12-6.25-4.61h7.61"/><path class="cls-15" d="M201.26 54.3h-14.48s-28.25-4.34-28.25 25.35v29s2.18 18.83-19.55 18.83" id="path72" style="fill:none;stroke:#1e1e1e;stroke-width:5.42999983px;stroke-miterlimit:10"/><path class="cls-3" id="polyline74" style="fill:#e41d34" transform="translate(-577.01 -361.01)" d="M767.41 418.94h23.89l-15.93 28.24"/><path class="cls-3" id="polyline76" style="fill:#e41d34" transform="translate(-577.01 -361.01)" d="M714.91 398.68H699.7l18.83 41.98"/><path class="cls-3" id="polyline78" style="fill:#e41d34" transform="translate(-577.01 -361.01)" d="m776.82 412.6 7.6-10.32h-22.81"/><ellipse cx="167.23" cy="33.3" rx="43.81" ry="13.4" id="ellipse80" style="fill:#e41d34;stroke:#1e1e1e;stroke-width:5.42999983px;stroke-miterlimit:10"/><path class="cls-15" d="M193.29 35.74s-35.3-7.55-47.25 1.78c0 0-7.62 3.11 5.43 7.55" id="path82" style="fill:none;stroke:#1e1e1e;stroke-width:5.42999983px;stroke-miterlimit:10"/><path class="cls-1" d="M206.46 196.65s36-4.43 49.23 28.21" id="path84" style="fill:#1e1e1e"/><path d="M186.05 220.07s13.06-24 44.9-7.83c.04 0-10.96 23.49-44.9 7.83z" id="path86" style="fill:#56b947;stroke:#56b947;stroke-width:7.05000019px;stroke-miterlimit:10"/><path class="cls-15" id="line88" style="fill:none;stroke:#1e1e1e;stroke-width:5.42999983px;stroke-miterlimit:10" d="m177.72 222.68 41.28-7.61"/><path class="cls-1" id="polyline90" style="fill:#1e1e1e" transform="translate(-577.01 -361.01)" d="M794.93 573.91h7.24l-6.52 5.07"/><path class="cls-11" id="polyline92" style="fill:#e7a9cc" transform="translate(-577.01 -361.01)" d="m625.01 459.49-15.4 11.77 19.02 10.87"/><path class="cls-11" id="polyline94" style="fill:#e7a9cc" transform="translate(-577.01 -361.01)" d="m625.01 526.57-15.4 11.77 19.02 10.87"/><path class="cls-11" id="polyline96" style="fill:#e7a9cc" transform="translate(-577.01 -361.01)" d="m872.27 459.49 15.39 11.77-19.02 10.87"/><path class="cls-11" id="polyline98" style="fill:#e7a9cc" transform="translate(-577.01 -361.01)" d="m872.27 526.57 15.39 11.77-19.02 10.87"/><path class="cls-10" d="M52.65 244.84a1.5 1.5 0 0 1 .19.23 5.34 5.34 0 0 1 1 3.51 5.19 5.19 0 0 1-1 3.49 4 4 0 0 1-3.27 1.29H46.2v-17h3.37a3.94 3.94 0 0 1 3.27 1.3 5.16 5.16 0 0 1 1 3.48 5.34 5.34 0 0 1-1 3.51zm-4.22-1.08h1.14a2.47 2.47 0 0 0 1.09-.18 1.24 1.24 0 0 0 .45-.33 3.4 3.4 0 0 0 .49-2.13 5.35 5.35 0 0 0-.15-1.42 1.75 1.75 0 0 0-.43-.78 1.24 1.24 0 0 0-.65-.34 5.07 5.07 0 0 0-.8-.07h-1.14zm1.14 7.43a4.11 4.11 0 0 0 .8-.07 1.16 1.16 0 0 0 .65-.33 1.79 1.79 0 0 0 .43-.79 5.3 5.3 0 0 0 .15-1.42 5.09 5.09 0 0 0-.16-1.45 1.89 1.89 0 0 0-.44-.8 1.17 1.17 0 0 0-.64-.33 3.94 3.94 0 0 0-.79-.07h-1.14v5.26z" id="path100" style="fill:#fff"/><path class="cls-10" d="M74.93 253.36h-2.3l4-17h1.77l4.08 17h-2.29l-1.12-4.75h-3zm2.63-11.11-1 4.18h2z" id="path102" style="fill:#fff"/><path class="cls-10" d="M104.67 253.34a3.81 3.81 0 0 1-3.15-1.32 5.32 5.32 0 0 1-1-3.51v-1.08h2.23v1.08a3.37 3.37 0 0 0 .54 2.15 1.49 1.49 0 0 0 .43.34 2.16 2.16 0 0 0 1 .17 1.71 1.71 0 0 0 1-.27 1.77 1.77 0 0 0 .58-.64 2.37 2.37 0 0 0 .26-.83 6.17 6.17 0 0 0 .06-.8 2.41 2.41 0 0 0-.19-1 2.08 2.08 0 0 0-.5-.7 3 3 0 0 0-.68-.49c-.26-.13-.51-.25-.76-.35l-.43-.19-1-.45a4.86 4.86 0 0 1-1.14-.82 4.48 4.48 0 0 1-1.43-3.42 6.23 6.23 0 0 1 .3-2 4.33 4.33 0 0 1 .85-1.54 4.06 4.06 0 0 1 1.33-1 3.94 3.94 0 0 1 1.69-.36 3.83 3.83 0 0 1 3.15 1.34 5.48 5.48 0 0 1 1 3.53v1.09h-2.22v-1.08a4.85 4.85 0 0 0-.2-1.55 1.86 1.86 0 0 0-.51-.79 1.36 1.36 0 0 0-.64-.29 4.4 4.4 0 0 0-.57-.05 1.55 1.55 0 0 0-1.06.33 2 2 0 0 0-.58.77 2.76 2.76 0 0 0-.25.9v.68a2.49 2.49 0 0 0 .19 1 2.54 2.54 0 0 0 .5.74 3.07 3.07 0 0 0 .7.53 6 6 0 0 0 .81.38l.38.16.91.41a4.23 4.23 0 0 1 1.15.79 4.36 4.36 0 0 1 1.47 3.4 5.23 5.23 0 0 1-1 3.26 3.86 3.86 0 0 1-3.22 1.48z" id="path104" style="fill:#fff"/><path class="cls-10" d="m134.58 253.34-4-7-.92 1.4v5.57h-2.23V236.32h2.23v7.44l4.95-7.44h2.68l-5.31 8 5.14 9.05z" id="path106" style="fill:#fff"/><path class="cls-10" d="M157.81 238.51v5.25h5v2.17h-5v5.26h5v2.17h-7.22v-17h7.22v2.17z" id="path108" style="fill:#fff"/><path class="cls-10" d="M191.8 238.51h-3.81v14.83h-2.25v-14.83h-3.81v-2.19h9.88z" id="path110" style="fill:#fff"/><path class="cls-10" d="M216.8 244.84a.83.83 0 0 1 .19.23 5.29 5.29 0 0 1 1 3.51 5.14 5.14 0 0 1-1 3.49 4 4 0 0 1-3.27 1.29h-3.36v-17h3.36a3.92 3.92 0 0 1 3.27 1.3 5.11 5.11 0 0 1 1 3.48 5.29 5.29 0 0 1-1 3.51 1 1 0 0 1-.19.19zm-4.21-1.08h1.13a2.41 2.41 0 0 0 1.09-.18 1.24 1.24 0 0 0 .45-.33 3.39 3.39 0 0 0 .5-2.13 5.35 5.35 0 0 0-.15-1.42 1.85 1.85 0 0 0-.43-.78 1.24 1.24 0 0 0-.65-.34 5.09 5.09 0 0 0-.81-.07h-1.13zm1.13 7.43a4.14 4.14 0 0 0 .81-.07 1.16 1.16 0 0 0 .65-.33 1.9 1.9 0 0 0 .43-.79 5.3 5.3 0 0 0 .15-1.42 5 5 0 0 0-.17-1.45 1.88 1.88 0 0 0-.43-.8 1.2 1.2 0 0 0-.64-.33 4 4 0 0 0-.8-.07h-1.13v5.26z" id="path112" style="fill:#fff"/><path class="cls-10" d="M239.09 253.36h-2.3l4-17h1.78l4.07 17h-2.32l-1.11-4.75h-3zm2.62-11.11-1 4.18h2z" id="path114" style="fill:#fff"/><path class="cls-10" d="M264.66 253.34v-17h2.23v14.85h5.37v2.17z" id="path116" style="fill:#fff"/><path class="cls-10" d="M290.62 253.34v-17h2.22v14.85h5.38v2.17z" id="path118" style="fill:#fff"/><path class="cls-1" id="polyline284" style="fill:#1e1e1e" transform="translate(-577.01 -361.01)" d="m591.5 493.24-14.49 12.68 14.49 11.78"/><path class="cls-1" id="polyline286" style="fill:#1e1e1e" transform="translate(-577.01 -361.01)" d="m910.33 493.24 14.49 12.68-14.49 11.78"/><path class="cls-1" id="polyline288" style="fill:#1e1e1e" transform="translate(-577.01 -361.01)" d="m738 638 12 12 14-13"/></svg>