<svg xmlns="http://www.w3.org/2000/svg" id="Layer_1" width="466.1" height="552.1" data-name="Layer 1" version="1.1"><defs id="defs1095"><style id="style1093">.cls-2{stroke-width:4.05px}.cls-2,.cls-3,.cls-5,.cls-6,.cls-7,.cls-8{stroke-linecap:round;stroke-linejoin:round}.cls-9{fill:#767b8c}.cls-2{fill:#ff0}.cls-2,.cls-3,.cls-5,.cls-6,.cls-7,.cls-8{stroke:#000}.cls-3{fill:#515364}.cls-3,.cls-6,.cls-7,.cls-8{stroke-width:5.67px}.cls-5{stroke-width:3.24px}.cls-5,.cls-8{fill:none}.cls-6{fill:#fff}.cls-7{fill:#303443}.cls-11,.cls-9{stroke-width:0}</style></defs><g id="g1255" transform="translate(-67 -24.2)"><g id="g1141"><g id="g1119"><path id="path1099" fill="#767b8c" stroke-width="0" d="m67.5 150.2 1.2-1 2-3.9 1.3-1 .5-1.5 3-3.7.8-1.8c3.8 0 6 .3 6.6.7l.6.4c.5.3.9.7 1.1 1.2.6 0 1 .2 1.2.3l-.2.4h.8c.2.2.3.4.1.6l.9.1c.2.2.2.4.1.6l.9.1.4.8.2-.4c.3.6.5.9.8 1 .3.3 1.4.7 3.3 1.3.4 1 1 1.6 1.5 2l.3.3h1c-.2.3-.2.5 0 .6l.2-.3c.9 1 1 2.2.1 3.4h.9c-.3.5-.2 1 .5 1.4l-.8.4-.2.3 1.8.8c.5.3.6.7.3 1-.2 0-.4 0-.6.2 1 1 1.1 1.9.5 2.7-.2-.1-.4 0-.5.1.5.4.7 1.3.5 2.7-.3.5-.7.5-1 .2-.3-1.5-.2-2.6.2-3.1l-.4-.2c-.8 1.2-1 3-.3 5.4.9-.6 1.5-.9 1.8-.6-.3 3.3.2 5.3 1.5 6.2l1.5.5 5.7 6.3.4.7c1 0 1.7.2 2 .5l.8 1c.2-.3.4-.3.6-.2-.3.4 0 1 .6 1.9.1-.2.3-.3.6-.1l-.3.3-1 .7c.6 2.4.5 4.3-.3 5.5a3 3 0 0 0-1.2-.4l.2-.3c-1 0-1.8-.3-2.4-.7l-.6-.4-1.7-1.7c-.3-.1-.5 0-.6.2l-2-2-2.3-1.5c-.2-.1-.2-.3-.1-.5l-.9-.1c-.2-.2-.2-.3 0-.5l-1-.2-1.3-.9-.4-.7-.2.3-.4-.7-.4-.2-.8-.2.4-.6-.9-.1.5-.7c-.4-.3-.9-.1-1.3.6l-.3-.3c-.2-.1-.3-.8-.1-2-.6-.4-1.2-.3-1.7.4l-1.4-1.4-.2.3c-.5-.7-.6-1.1-.5-1.3-.2-.2-.4-.1-.6 0a41 41 0 0 1-3.8-4l-.2.4a24 24 0 0 1-3.9-4l-.9-.2c-.2-.5-.5-.8-.7-1l-.3.3a9 9 0 0 1-1.9-2.7l-.4.7-.3-.3-.5-.7-.2.3-.4-.8c-.2-.1-.4 0-.6.1l-.4-.7c-.2-.2-.4-.1-.5 0l-.5-.7-1.8-.8.2-.3a3 3 0 0 1-1.2-.3 3 3 0 0 1-.7-1l-2.2-1-.6-.4c.7-1.1.9-1.8.4-2zm8.9-2 .5 1.3 1 .6c.2.2.4.2.5 0l1.9 2.1c.5 0 1 .3 1.5.6.4 1 .8 1.5 1.2 1.7.1-.2.3-.2.5 0l-.2.3c.2.1.4 0 .5-.1 1.5 1.1 2 1.8 1.9 2.1l.8.2c.2.1.3.3.1.5.4.3 1.5.6 3 1.1l1.9 2.2.2-.3c-.7-4.6-1.4-7-2-7.5l-.2.3c-1.4-1.3-2-2-1.8-2.2h-1l-.6-.5c-.2-.2-.2-.4 0-.6l-1-.1c-1.2-.9-3.2-2.5-6-5l-1.2 1-1 2.2c-.2-.2-.4-.1-.5 0zm21.4-3 .6-1c.5.4.6.7.3 1.2l-.3.3z" class="cls-9"/><path id="path1101" fill="#767b8c" stroke-width="0" d="m106.3 102.4 1.7-1 2.5-2.9 1.4-.8.8-1.2 3.7-3 1-1.5 6.6 2c.9 1.3 1.2 2 1 2.2l.8.3c.2.2.2.4 0 .5l.8.3c.2.2.1.4 0 .6l.8.3v.5l.8.3.2.9.3-.3c.1.5.3.9.5 1 .2.4 1.2 1 2.9 2 .2 1 .5 1.8 1 2.3l.2.3.8.3c-.2.1-.2.3 0 .5l.3-.2c.6 1.1.4 2.2-.7 3.2l.8.3c-.3.3-.3.8.2 1.3l-.8.3-.2.2 1.5 1.2c.4.4.3.8-.3 1.3a50 50 0 0 1 8 4.6l-.3.3 2.9 2-.3.3c1.8.8 3.5 1.8 5 3 .1.6.3 1 .5 1.2 3.3 2.4 7.6 5.3 13 8.7-.5.5-.7 1-.3 1.4l.3-.8.3-.3c.5.5 1.4 1.1 2.6 1.7-.2.2-.2.4 0 .6l.6-.6.2.3c.4.4.3.7 0 1-2-.2-3.3 0-3.8.5l-.3-.8-.2-.3-.3.8-.6.5c-3.3-1.1-5.6-1.4-7-.8-.1-.2-.2-.4 0-.6l-4-1.8c-.9-.6-1.4-.8-1.6-.6l-.3-.9c-1-1-1.8-1.4-2.4-.8l-.7-1.4-2.5-.4v-.5l-.7-.3-.3-.3-.2-.8-.3.2-.3-.8c-.1-.2-.3-.2-.5 0a3 3 0 0 0-.5-1.1c-.3-.3-1-.7-2-1.2l.2-.2c-1.4-.9-2.2-1.2-2.4-1l-.3-.7c-.4-.2-.9-.5-1.3-1l.9-1.2-.3-.3c-.7.7-1.3.8-1.6.4-1.2 1.2-1.3 2.7-.4 4.6l1.3 1a165.3 165.3 0 0 1 4.5 8.2c1 .3 1.6.5 1.9.9.1.5.3.8.5 1 .2-.1.3-.1.5.1-.2.3 0 1 .5 2.2-.5.1-.9.3-1.1.5 0 2.4-.5 4-1.5 5l-1.1-.5.3-.3a5 5 0 0 1-2.2-1.1l-.5-.6-1.3-2h-.5l-1.6-2.2-1.8-2v-.5l-.7-.3c-.2-.2-.2-.4 0-.6l-.8-.2-1-1.1-.3-.9-.3.3-.2-.8-.3-.3-.8-.3.6-.5-.8-.3.6-.6c-.4-.3-.9-.3-1.4.3l-.3-.3c-.2-.2 0-.8.4-1.9-.6-.6-1.1-.6-1.7 0l-1-1.7-.3.2c-.3-.7-.4-1.1-.2-1.3-.1-.2-.3-.2-.5 0a62 62 0 0 1-2.8-4.7l-.3.2c-2-3-3-4.5-2.8-4.7l-.8-.3c-.1-.5-.3-.9-.5-1l-.3.2a10 10 0 0 1-1.2-3l-.5.5-.3-.8c-.2-.2-.4-.2-.5 0l-.3-.9c-.2-.2-.3-.2-.5 0l-.3-.8c-.1-.2-.3-.2-.5 0l-.5-1.7c-.3.4-.7.3-1 0-.2-.2-.2-.4 0-.6a3 3 0 0 1-1-.5c-.3-.2-.4-.6-.6-1.1l-1.8-1.5-.5-.5c.9-.9 1.2-1.5.8-1.9zm9 0c0 .5.5 1.7 1.7 3.7l.8.3.2.8c.5.2 1 .4 1.4.9.2 1 .4 1.6.7 1.9.2-.2.4-.2.5 0l-.2.2c.1.2.3.2.5 0l2.3 3.7 2.4 1.4 1.2 2.5.3-.3c.5-4.3.4-6.8-.2-7.5l-.3.2-1.5-2.7c-.2.2-.4.1-.6 0l.3-.3-.8-.3c-.2-.2-.2-.4 0-.6l-.8-.3-1-1c-.9-1-1.1-1.7-.8-2l-.8-.3-1-1.1-1-1.7-1.4.8-1.4 1.8c-.2-.2-.4-.2-.6 0zm10.9 24.8.2.3c.2-.2.6-.3 1.2-.5l-.6-.6zm10-22.9.9-.7c.3.4.3.7 0 1zm20.6 33c.5 0 .8-.2 1-.4l.3.3-.8.7z" class="cls-9"/><path id="path1103" fill="#767b8c" stroke-width="0" d="M159.5 61.6c3-1.4 4.6-2 4.7-1.8 1-.8 1.5-1.4 1.3-1.6 1.2-.3 2.4-.3 3.5-.2.3-.5.7-.8 1.2-1.1.3.6 1.6.7 3.8.5.1.2.3.2.6 0l2 5.2.9.8c-.2.1-.3.3-.1.5l.3-.1v.8c.2.2.3.3.6.2v.8c.2.3.3.3.5.2l.1.9 1.2 2 .7.5-.4.2.8.5.1.3-.6.4c1.2 1.2 2 1.8 2 2 0 1 .3 2 .9 3l2 3c.4.5.9 2.7 1.4 6.3l.2.3c.9 1.6 1.7 2.2 2.4 1.8l2.3 4v1c.4-.3.9-.3 1.4 0 1.2 4.4 1 7.1-.7 8a38 38 0 0 0-1.4 4.8c-3 1.5-4.6 2-4.7 1.9-1 .8-1.5 1.4-1.3 1.6a11 11 0 0 1-3.5.2 3 3 0 0 1-1.2 1c-.3-.5-1.6-.7-3.8-.4-.1-.2-.3-.3-.5-.1-1.3-3-2-4.6-2-5.1a3 3 0 0 1-1-.9c.2 0 .3-.3.2-.5l-.4.2v-.9c-.2-.2-.3-.3-.5-.1l-.1-.9c-.1-.2-.3-.3-.5-.2v-.8l-1.2-2-.7-.5.3-.2-.7-.5-.2-.4.6-.3-2-2a6.6 6.6 0 0 0-.8-3.1l-2.1-2.9c-.4-.6-.9-2.7-1.4-6.3l-.2-.4c-1-1.5-1.7-2.1-2.3-1.7l-2.4-4.1v-.9c-.4.3-.8.2-1.4 0-1.2-4.5-.9-7.2.8-8.1 1-3 1.4-4.6 1.3-4.8m5.8 5.6.4.7 1.2 2.8.3-.2 2.3 7.2 1 1-.3.1c.1.3.3.4.5.2l1.3 3 1.4 1.6-.4.2.8.6c1.2 2 2.8 5.6 4.8 10.7l.4.8c.2.2.3.3.6.2v.9c.2.3.4.3.6.2l.4 2.3c.1.2.3.3.6.1l.7 2.1.4.8.5-.8.3-.2c.5-.2.9 0 1.1.4.5-1 1-1.6 1.6-2l-.4-.7-1.2-2.8-.3.2a44 44 0 0 1-2-6.8l-.8-.6-.3-.3c-.1-.3 0-.5.2-.6-.2-.3-.4-.4-.6-.2l-1.2-2.8-1.4-1.7.4-.2-.8-.6c-1.2-2-2.7-5.6-4.8-10.7l-.4-.7c-.1-.3-.3-.4-.6-.2v-1c-.2-.2-.4-.3-.6-.2l-.4-2.2c-.1-.3-.3-.4-.6-.2l-.7-2-.4-.8-.5.7-.3.2c-.5.3-.9.2-1.1-.3a4 4 0 0 1-1.6 1.9z" class="cls-9"/><path id="path1105" fill="#767b8c" stroke-width="0" d="m211.8 40-1.8.6v-.4l1.7-.5zm14 1.5-.6-.6-.6-13.5.7-.6 1.4-.4 4.9 6h-.4l.6.7v1.5h.4l.7-.7.5.6c-.3.1-.4 1-.4 2.5-1 .3-1.2 1.4-.6 3.3a379 379 0 0 0 2 17.9l.4-.1c0 1.6-.4 3-1 4.2 0 .3.2.3.4.3.6 4 .6 6 0 6.2.3 1.2.7 1.7 1.2 1.6a7.3 7.3 0 0 0 0 3.9c0 .2.2.3.5.2a17 17 0 0 0-.4 5.2l1.1 4c.5 1.4-.4 2.4-2.5 3l-.4.2c-5.5 1.6-8.4 1.9-8.7.7l-2-6.5a3 3 0 0 0-.8-1.3c.2-.5.1-1 0-1.5a3 3 0 0 1-.7-1l.3-.1-.5-.6c-.1-.3 0-.4.2-.5l-.6-.6-1.4-4.7c0-.2-.2-.3-.4-.2l.2-2a3 3 0 0 1-.8-1.3c-.1-.3 0-.4.2-.5l-.5-.6-1.2-4c-.1-.2-.3-.2-.5-.2l.2-.8-.6-.6.3-.1-.6-.6c0-.3 0-.4.3-.5-.3-.3-1-1.8-2.2-4.8v-1.2a4.4 4.4 0 0 1-1.4-2h.4l-.6-.6-.2-.7.7-.2c-.5-1-.8-1.4-1.1-1.3l.1-.8c0-.2-.2-.3-.4-.2l.1-.9-.3-1c-.1-.3-.3-.4-.5-.3 0-.3-.2-1.9-.2-4.6l.4-.1a39 39 0 0 0 6.8 3.4c1.3 3 2.3 5.1 3 6.1l-.3.1 1.3 2 2.3 7.5 1 .8a3 3 0 0 1-1 .7l.7 2.2c0 .2.2.3.5.2 0 .2 0 .4-.3.5l1 1.6.6 2.2c0 .2 0 .4-.3.5l.6.5.2.8.2 1.9 1.4-.5.2-5.8a4.4 4.4 0 0 1-1.3-1.7c.6-.1.8-.8.6-2-.3 0-.4 0-.5-.3.4-.2.6-.5.5-.9 0-.3-.2-.4-.5-.3.2-.3 0-1-.3-2.2zm-12.6-.7-.8-.2c0 .3 0 .5-.2.5l-.6-.6 1.4-.4zm12-14.3-1.5.4v-.3l1.4-.5v.4zm-.6-.6-.2-.7 1.4-.4v.3z" class="cls-9"/><path id="path1107" fill="#767b8c" stroke-width="0" d="M277.5 24.3h.4c0 .7.5 1 1.3 1l-.1 10.4c0 .3.1.4.4.4-.3 6-.5 9.1-.7 9.7.3.8.6 1.1 1 1.1l-.4.9v.4l.5.7h-.4c0 .3.2.4.4.4 0 2.7 0 4-.4 4 0 .3.2.4.4.4-.4 5.2-.8 8-1.2 8.2l.5.7v.4c0 .3 0 .4-.3.4l.4.8v.8c.1.6 0 1.1-.2 1.6l.5.8c-.1 1.5-.2 2.5-.1 3.2h.4l-.3.8.4.7c-.5.2-.7.5-.7 1l.3 3-2 .7v.4l1.7-.2.2 2c0 .6-.2.9-.8.9 0-.3-.1-.4-.4-.4 0 .3-.1.4-.4.5 0-.6-1.8-2.5-5.3-5.6 0-.2-.6-1-1.8-2.2l.7-14.5-.5-.8.3-.8c0-.3-.1-.4-.4-.4l.2-2a3 3 0 0 0-.5-1.2l.3-1.2h-.4l.3-.8-.4-.7c.6-2.3.8-3.8.8-4.5-.3 0-.4-.1-.5-.4h.4l-.4-.8c0-3.2 0-5 .3-5.2l-.5-.8c.4-1.4.6-2.3.5-2.8l-1-8.7c0-.5.2-.8.7-.9l3.5-.3c.3 0 .5.1.5.4.8-.7 1.4-1 1.6-1 0 .2.2.4.5.3 0-.5.2-.8.7-.8m-4.2 39.6v.9l1.3-.2v-.4c-.4 0-.8 0-1.3-.3m2.7-1v.4c1.3-.8 1.9-1.4 1.9-1.8h-.4c-1 .6-1.6 1-1.5 1.4m3 19.8h.4l.5 1.1h-.8z" class="cls-9"/><path id="path1109" fill="#767b8c" stroke-width="0" d="M320.6 25c2.3.3 4.5.9 6.5 1.9l5-.2c.1.5.3.8.8.8l2.7-.1c0 .3.8 2.1 2.6 5.4l-.2 1.5c0 .6-.2 1.1-.5 1.5.2.6.3 1 .2 1.3-.2 0-.4 0-.4.3h.4l-.5.8c0 .2.1.3.4.4l-.5.7c0 .3 0 .4.3.4l-.4.8-.3 2.3.3.8h-.4l.4.8v.4h-.9l.5 2.7a7.3 7.3 0 0 0-1 5.4l-2.4 15.4c-.2 0-.4.1-.4.4.4 0 .8.3 1 .9-1.7 4.5-3.8 6.6-6 6.4l-3.2 2.8c-3.3-.6-5-1-5-1.3l-2.3.5c0-.2-.1-.4-.4-.4-.3.7-.6 1.1-.9 1l-1-.5c-2 1.7-3.6 2.4-5 2.3 0-.3 0-.7-.3-1.2h.4c-.4-.9-.6-1.7-.5-2.4V76l.7-2.2c0-.3-.1-.5-.4-.5l.7-2.7.3-2.7c0-.2.2-.3.4-.3l-.3-.9c0-.2.2-.3.5-.3l-.4-.8.2-1.5.5-.8h-.4l.5-.8v-.4l-.3-.8.8.1-.3-.8h.7c.1-.4-.3-.8-1-.8v-.4c0-.3.6-.6 1.7-1 0-.8-.3-1.2-1-1.3l.6-1.9h-.4c.3-.8.6-1.1.8-1.1 0-.3 0-.4-.3-.4 0-.4.6-2.1 1.8-5.3h-.4c.9-3.6 1.4-5.4 1.7-5.4l-.3-.8c.3-.5.5-.8.5-1.1h-.4c.5-1.5 1-2.5 1.5-3l-.8-.1v-.4l.6-.7h-.4l.5-.8c0-.3-.1-.4-.4-.4l.5-.7c0-.3-.1-.5-.4-.5.3-.5.5-.8.5-1.1.1-1.3-1-3.7-3.1-7V26c.6 0 2.1-.3 4.4-1.1l1.6.2zm5.7 8.7-1 1.1-.2 2.8a3 3 0 0 1-.6 1.5c.2.4.3 1 .3 1.5-.7.8-1 1.5-1 2 .2 0 .3 0 .3.3h-.4c0 .3.1.4.4.4-.4 1.8-.7 2.7-1 2.7l.2.8c0 .2-.2.4-.4.3 0 .5 0 1.5.4 3.2-.3.8-.6 1.1-.9 1l.3.9c0 .2-.2.4-.4.3l.3.8v.4h-.8l-.4 3 .8.2-.2 1.9-.8-.1-.3 2.7c0 .3.1.4.4.4-.6 1-1 1.8-1 2.3l.2 1.6-1.7 4.5h.4a3 3 0 0 1 1.6-.2l.3.8c1.9-.4 2.9-1 3-1.6l-.4-.8c.3-.5.5-1 .6-1.6h-.4c.4-1.3.7-1.9 1-1.8l-.3-.8c0-.6.4-1.4 1-2.7h-.4c.5-1.5.8-2.3 1-2.3.1-.2 0-.4-.3-.4l.7-2.6-.2-2h.4l-.3-.8c.2-2 1-5.5 2.3-10.4v-.8c0-.2 0-.3-.3-.4l.5-.7c0-.3-.1-.4-.4-.4.6-1 1.2-3 1.8-6.1L329 34l-2.4.2c0-.3 0-.4-.4-.5z" class="cls-9"/><path id="path1111" fill="#767b8c" stroke-width="0" d="M358.9 87.2h.3l-.5 1.6-.3-.1zm21.5-50.3c2 1 3.3 2 3.7 2.6l.3-.8 3 1c.6.2 1 .5 1.4.9.6-.1 1.1 0 1.7.1.8.3 1.4.7 1.8 1l2.3.4.8.3c.6.2.7 1 .5 2.3-.5.9-2.3 2-5.4 3.6l-1.8-1a74 74 0 0 0-3.4-.7c0-.3 0-.4-.3-.5-.2.6-.9 1.4-2 2.3-.2 1 0 1.6.2 1.7l-.6.7.1.9-.4-.2.2 1-.2.3-.7-.3c-.1.3 0 .5.2.6a19 19 0 0 0-2 3.5l-.1 2.9c.7.2 2.2.5 4.3.6l.6.6h1l1 .7-.4.7-1 1.8c.3 0 .4.3.3.5-1.3 1.3-3.5 2-6.6 2 0-.2-.3-.5-1.3-.8-.8.9-1.5 1.2-2 1l-.5 1.5-1 1.8.3.1-1.5 2 .8.3c-.5.7-1 1-1.2.9l.2.9-2 3.5c.4.3.6.6.4 1l-.1.4a6.1 6.1 0 0 0-2.2 2.6l.7.7.7.2c2.6.9 4.2 1 4.9.4l.6.6 1.7.2c.9.5 1.7 1 2.5 1.2l-.2.4c-.2.6-.9 1.4-2 2.3l-.9-1.1c-2 1.6-4.3 2.5-6.8 2.7l-.7-.6c-1.7 0-2.5.1-2.6.4l-.7-.7c-1.5 0-3.7 0-6.5-.5 0-.3-.3-1-1-2l1.3-1.7v-.8l.7-1c0-.3 0-.5-.3-.6l1-1.8c.2-.5.3-1 .2-1.6a55 55 0 0 0 3.7-6l-.3-1.7c1.3-2.2 2.4-3.7 3.2-4.5a3 3 0 0 1 .1-1.6l.4.2c0-.3 0-.5-.3-.6a38 38 0 0 1 2.6-5l-.4-.2.6-.6V57l.4.2-.1-1c.6-1.7 1.6-3.4 3-5.2v-1.3l.7-.6c0-.3 0-.5-.3-.5l1-1.8.4-1.2v-.9c.2.1.3 0 .4-.2-.5-.2-.7-.5-.5-1 0-.3.3-.4.5-.3l-.2-1.7.3.1a17 17 0 0 1 0-3.8l2.8-.8c.5.2.8.2 1 0zm-13 54h.3v1.3l-.7-.2.3-1.2z" class="cls-9"/><path id="path1113" fill="#767b8c" stroke-width="0" d="m448.2 66.7 3 1.8.4.8.3-.4c1.4.9 1.3 2.8-.5 5.7-1.8 2.9-3.3 5-4.7 6.1v1l-2.1 1.7-.7 1.1c-.5-.3-1 0-1.4.7v.9c-.5.3-1 .7-1.3 1.2l1 .1c-.3.5-.4.8-.1 1l-2.2 1.1v1l-1.7 1c-.2.2-.1.4.1.6-2 2.5-3.5 4.2-4.6 5.1 0 .6-.1 1-.3 1.3h-1v.9l-.4.7a4 4 0 0 1-1.3 1.3c-.1.2 0 .4.1.6-3.4 4-5.6 6.8-6.6 8.4-.4-.3-.8-.3-.9-.1-.1.2-.1.4.1.6a10 10 0 0 1-4 3.5l-1 2.4-.2.3-.8-.4-1.9-6.7.8-.5 1-2.4a3 3 0 0 0 1-.9c-.3-.1-.3-.3-.2-.5.5.3 1 .2 1.2-.3l.2-.4.1-1c.2.2.4.2.6 0l-.4-.3.8-.5.2-.3-1-.7.2-.4 1.4-.6a8.2 8.2 0 0 1-.3-3.7l-.4-.2.2-.4.9-.5c-.4-.2 0-1.8 1-4.9l-.4-.2.8-.5 1.4-8c.3 0 .5 0 .6-.2l-.5-.8L422 86a52.4 52.4 0 0 1-5.6 6c.3.3.5.8.4 1.8l-.3-.2-.1 1c-1.2 1.9-2.3 2.6-3.2 2l-.5.7h1.5l-.2.3-4.8 4.6-.2 1.3-.4-.3c0 .7-.2 1.1-.3 1.4l-.8.5-.1 1c-2.8 3.2-4.6 4.6-5.1 4.3-1.2-3-1.5-5-.9-6-.7-.5-1.3-.3-1.7.4l-.7-.4c.1-.3.4-.6 1-1 .2-.2.7-1.7 1.7-4.3 1.9-1.6 3.9-4 6-7.4 0-.6 0-1 .2-1.3h1c.1-.1 0-.3-.2-.5 1.8-2.3 2.7-3.3 3-3.2v-1c.8-.6 1.2-1 1.3-1.2v-1c.6-.2 1-.6 1.3-1.2l-.3-.2c.8-.8 1.3-1.2 1.6-1v-1c.5-.7 1.3-1.5 2.6-2.4v-1c1.3-1 2-1.8 2.5-2.4l-.3-.3c.2.2 1.6-1.6 4.2-5.4-.2-.1-.3-.3-.2-.5.5.3 1 .2 1.2-.3l.1-1 1-.8c-.2-.2-.3-.4-.1-.6l.3.2c.4-2.3.4-4.5 0-6.5l.2-.4c.6.4 2.1.6 4.6.8l.7.4c4.1 2.5 5.6 4.8 4.4 6.7-2 3.7-2.6 6-1.5 6.6l-.8.5a36 36 0 0 1-1.2 7.7c-.5.3-.9.6-1 .9.6.4.4 2.4-.7 6l.3.2.7-1 .7-2.1c.5.3 1 .2 1.2-.3l-.8-.4.3-.4c.1-.2.3-.3.6-.1v-1l.8-.5.8-2c1.6-1.5 2.5-2.5 2.7-2.8l-.4-.3c1.2-1.3 1.8-1.9 2-1.7l.2-1 .2-.3c.1-.3.3-.3.6-.2v-1l2-3.2c.4-.6 1.1-.7 2.2-.2l2.5-3.4zM399.8 108c.3.2.5.8.4 1.7l-.3-.2c-.5-.3-.6-.6-.3-1.1zm11-14.8-.3.4c.4.2 1 0 1.8-.4l-.4-.3c-.5-.2-1 0-1.2.3zm3.8 20.8c.4.4.5.7.3 1.1l-.3.4c-.4-.3-.5-.7-.2-1.1z" class="cls-9"/><path id="path1115" fill="#767b8c" stroke-width="0" d="M489.1 101.8c2.1 2.4 3 3.7 2.9 3.9 1 .7 1.7 1 1.9.8 2.2 5 3.2 7.9 3 8.5l-1.5 1.1-5 5.1c-.6-.5-4-1-10.4-1.7l.3-.2c4.5-4 7-6 7.3-6.4l-.3-.3a3 3 0 0 1-1.3-.8l.2-.8c-2-1-3.1-1.2-3.6-.8l-.2.8a3 3 0 0 0-1.4.9l.3.2c-1.1.8-1.8 1-2 1l-.2.7c-1 .4-2.2 1-3.6 2-.1.5-.3.9-.5 1l-.3-.2c-.2.2-.2.4 0 .5l-2.2 1.7-1 1.7-.3-.3-.3.8a96.1 96.1 0 0 1-8 7l-.5.5c-.2.2-.2.4 0 .6l-.8.3c-.2.2-.2.3 0 .5a23 23 0 0 0-5.3 3.6l.9 1.4 2 1.4c-.3.2-.3.4 0 .6l1.3-.3 2-2a3 3 0 0 1 1.3-.8c.1-.6.4-1 .8-1.4 1-.3 1.6-.5 2-.9-.3-.1-.3-.3 0-.5l.2.3c.9.8 1.2 3.7 1.2 8.8l-.8.2c-.2.2-.2.4 0 .6a21.3 21.3 0 0 1-7.2 3.4 6.8 6.8 0 0 0-4.4-2.2c-.4-.4-.7-.9-.9-1.4l-4.1-3c.3-.3.3-.7 0-1l-2.2-1.7c.2-.3.7-2.2 1.3-5.8l1-1.1a3 3 0 0 1 1.5-.9c.2-.5.3-.9.5-1h.6l-.3-.4.8-.2c.2-.2.2-.4 0-.6l.8-.3c.2-.1.2-.3 0-.5l.9-.3 1.6-1.7.2-.8.3.3.3-.9.3-.2.5.5 1.4-2.5c1-.3 2-.8 3-1.4l2.2-2.8 10.4-9.4.8-.3c-.3-.3-.4-.8-.3-1.4 4.2-2.4 7.2-2.8 8.8-1.2z" class="cls-9"/><path id="path1117" fill="#767b8c" stroke-width="0" d="m476.6 169.9.2.3-1.3 1-.3-.4zm47.9-26.3c1 2.1 1.5 3.6 1.4 4.3l.7-.4 1.7 2.7c.4.5.5 1 .6 1.5.5.3.9.6 1.2 1.1.5.8.7 1.4.8 2l1.6 1.7.4.7c.4.5 0 1.2-1 2-1 .5-3.1.3-6.5-.4l-.8-1.9c0-.2-.8-1-2.2-2.7.2-.1.2-.3 0-.6-.5.4-1.5.6-3 .6-.7.7-1 1.3-.8 1.5l-1 .1-.4.8-.2-.3-.4.8-.4.2-.4-.7c-.2.2-.3.4-.1.6a16 16 0 0 0-3.8 1.5l-1.9 2.2c.4.7 1.5 1.7 3 3.2l.1.9.8.4c0 .6.2 1 .3 1.2l-.6.5-2 .7c.2.2.2.4 0 .6-1.9.2-4-.7-6.5-2.5.2-.1 0-.6-.5-1.4-1.1.2-1.9 0-2.2-.5l-1.3.9-1.9.7.2.4-2.4.6.4.7c-.8.2-1.3.2-1.5 0l-.4.8c-.4.3-1.7.8-3.8 1.5.2.5.2.9-.2 1.1l-.3.2c-1.5 0-2.6.3-3.4.8l.1.9.5.7c1.4 2.2 2.6 3.3 3.6 3.2v1l1.3 1c.3 1 .7 2 1.2 2.6l-.4.2c-.5.3-1.5.5-3 .5v-1.4c-2.6 0-5-.7-7-2l-.2-1c-1.3-1-2-1.4-2.3-1.3l-.1-.9a33 33 0 0 1-4.8-4.4c.2-.2.3-.9.4-2.2l2.1-.5.5-.7c.5-.1 1-.2 1.2-.4.2-.1.3-.3.1-.5l2-.8a3 3 0 0 0 1-1.2c4-1.3 6.1-2.1 6.6-2.4l.9-1.6c2.4-1 4.1-1.4 5.2-1.5a3 3 0 0 1 1.1-1.2l.2.3c.3-.1.3-.3.2-.5 2.9-1.5 4.6-2.3 5.1-2.4l-.2-.4h.9c.2-.6.5-1 .8-1l.2.2.4-.7c1.5-1 3.4-1.8 5.7-2.3l.8-1 .9-.1c.2-.2.2-.4 0-.6l2-.8 1-.6.4-.8c.2.2.4.3.6.1-.3-.4-.2-.8.2-1.1.2-.2.4-.1.6.1l.9-1.5.2.3 2.3-3 2.7 1.1c.3.5.6.6.8.5M481 178l.2.3-.8 1-.4-.6z" class="cls-9"/></g><g id="g1139"><path id="path1121" fill="#767b8c" stroke-width="0" d="M93.8 462c-.8.7-1.1 1.1-1 1.3l-.9.2c-.2.1-.2.3 0 .5a25 25 0 0 0-5.6 3l.7 1.5 1.8 1.6c-.2.1-.2.3 0 .5l1.3-.1 2.1-1.8a3 3 0 0 1 1.5-.6l.3-.8c1.3-.7 2.3-1.4 3-2l.3-.2c.2-.1.2-.3 0-.5l.9-.2c.2-.2.2-.4 0-.6l2-.6c.2-.2.3-.4.1-.6l1.7-1 .6-.4-.7-.4-.3-.3c-.3-.4-.3-.7.1-1l-1.5-.7c.1-.2.2-.4 0-.6l-.3.2c-.4-1-.7-2.2-.8-3.3-.5-.2-1-.5-1.3-1 .6-.5.5-1.8-.1-3.9l.3-.8 2-1.1-.7-.4-.3-.3.3-.2 3.1-.6 1-.7c1.3-1.1 1.8-2 1.3-2.6l3.6-3 .9-.2c-.3-.3-.4-.8-.2-1.4 4.4-2 7.4-2 8.9-.2l4 .1c2 2.8 2.9 4.3 2.7 4.4 1 .9 1.6 1.2 1.8 1a39 39 0 0 1 2.2 8.8l-1.8 1-4 3.3c-.5-.5-2.7-1.8-6.9-3.7v-1.5l3.6-2.2-.2-.3a3.4 3.4 0 0 1-1.3-1l.3-.7c-1.6-1-2.7-1.3-3.2-1l-.3.9a3 3 0 0 0-1.5.7l.2.3c-1.1.6-1.8.8-2 .6l-.3.8c-1 .2-2.3.7-3.8 1.5-.2.6-.4 1-.6 1l1.2 1.6c1.1 2.3 1.7 4 1.8 5.1.5.2 1 .5 1.3 1-.6.4-.5 1.7.1 3.9-.2.1-.2.3 0 .5a26 26 0 0 1-4 2.6c-.1.6-.4 1-.6 1h-.5l.2.3-.8.2c-.2.2-.3.4 0 .6l-1 .2c-.2.1-.2.3 0 .5l-.9.2-1.8 1.5-.3.8-.3-.3-.3.8-.3.2-.5-.6-1.6 2.4a46 46 0 0 1-9.7 2.9 6.7 6.7 0 0 0-4.1-2.7 3 3 0 0 1-.7-1.4l-3.8-3.4c.4-.4.4-.7 0-1.1l-2-2c.3-.1 1-2 2-5.5l1.2-1a3 3 0 0 1 1.4-.7l.7-1c.2.2.4.2.6 0l-.3-.3.9-.1c.2-.2.2-.4 0-.6l.9-.2.3-.8a37 37 0 0 1 6.6 3.2c.2-.1.6 0 1.3.3v1.1z" class="cls-9"/><path id="path1123" fill="#767b8c" stroke-width="0" d="M117 510.9c.4.2.4.7.3 1.6l-.4-.3c-.4-.3-.4-.7 0-1l.2-.4zm48.6-33 3.1 2.4.3.8.3-.4c1.2 1 .9 2.7-1 5.2-2 2.5-3.7 4.2-5 5.1l-.3.9-2 1.4-.7.9c-.5-.4-1-.2-1.4.4l-.2.9a3 3 0 0 0-1.3 1l.9.2c-.3.4-.4.7-.2.8-.2.3-1 .5-2.1.8l-.2 1-1.6.7c-.2.2-.2.4 0 .5a32.1 32.1 0 0 1-4.8 4.2c0 .6-.2 1-.4 1.2l-.8-.2-.2.9-.5.6a3 3 0 0 1-1.3 1c-.2.2-.1.4 0 .6a87.6 87.6 0 0 0-7 7c-.4-.4-.7-.4-.8-.2-.2.2-.2.4 0 .6a67 67 0 0 1-13 12l-1.1 2-.3.4-.6-.5 3.1-12.5.9-.4a509 509 0 0 0 5.2-5.6c.5-.3.9-.5 1-.7-.2-.2-.2-.4 0-.6.4.3.8.3 1-.1l.3-.3c.2-.2.2-.4 0-.6a9.7 9.7 0 0 0 3-2.6l.2-.8a12 12 0 0 0 2.5-2c-.4-.3-.4-.7 0-1.1.3.3.7.2 1-.2l.2-.3c.5-.5.8-1.3 1-2.3l-1-.2-.3-.8c-1.4-.8-2.2-1.1-2.4-.9l-.5-1.4c-.7.1-2 .8-4 2 .3.2.4.7.2 1.6l-.3-.3-.2 1c-1.3 1.6-2.3 2-3.2 1.4l-.5.6 1.5.1-.3.3-4.9 3.7c0 .6-.2 1-.4 1.2l-.3-.3-.4 1.2-.8.4-.2.8c-3 2.7-4.7 3.9-5.2 3.5-1.1-3.2-1.4-5.2-.7-6-.6-.5-1.2-.5-1.7.1l-.6-.4a3 3 0 0 1 1-.7c.3-.3 1-1.6 2.1-4 2-1.1 4-3.1 6.3-6 .1-.6.3-1 .5-1.2l.8.2c.2-.2.1-.4 0-.6 1.8-1.9 2.8-2.7 3-2.6l.2-.8 1.3-1 .1-.9c.5-.2 1-.5 1.3-1l-.3-.2c.8-.7 1.4-1 1.6-.8l.2-.8a9 9 0 0 1 2.6-2l.1-.9a8.6 8.6 0 0 0 2.6-2l-.3-.2c.2.2 1.7-1.3 4.5-4.5-.2-.2-.2-.3 0-.5.4.3.7.3 1-.2l.2-.8a3 3 0 0 0 1-.7c-.1-.2-.2-.4 0-.6l.3.3c.7-2 .9-4 .7-6l.3-.3c.4.4 1.8.8 4 1.2l.6.5c3.6 3 5 5 4.3 5.9l-.4.6a3 3 0 0 1-1.3 1l-.2.9-.8.4v.5a46.4 46.4 0 0 1-5.5 5.2c-.1.2-.1.4.1.5-1.4 1.6-2.3 2.2-2.6 2-.1.2-.1.4.1.5l-1.5 1.3-.3.4c-.9 1.5-1.1 2.5-.7 2.9.7 0 1.9.5 3.5 1.3-.3.4-.4.7-.1.9.4.3 1.8-.1 4-1.4l-.6-.5.2-.3c.2-.2.4-.2.6 0l.2-1 .8-.3.9-1.8a22 22 0 0 0 2.8-2.3l-.3-.2c1.2-1 1.8-1.6 2-1.4l.2-.9.3-.3c.1-.2.3-.2.5 0l.2-.9 2.2-2.8c.4-.5 1-.5 2 0zM125.3 521c.4.4.4.7.1 1.1l-.2.3c-.4-.3-.5-.7-.1-1zm3.5-22.6-.3.3c.7.5 1.4.6 2.3.2l-.3-.2c-.9-.5-1.4-.6-1.7-.3" class="cls-9"/><path id="path1125" fill="#767b8c" stroke-width="0" d="M198.7 500.2c2.9 1.7 4.3 2.7 4.2 2.9 1.3.3 2 .4 2 .1 1 .9 1.7 1.8 2.2 2.8.5 0 1 0 1.6.3-.3.6.3 1.8 1.8 3.5-.1.2 0 .3.2.4a67 67 0 0 1-3 4.6c0 .6 0 1-.2 1.2-.2 0-.4 0-.5.3l.3.1-.6.6c-.1.2 0 .4.1.5l-.6.5c-.1.2 0 .4.1.5l-.6.6-1 2v1l-.4-.2v.9l-.1.3-.7-.3-.5 2.8c-.9.6-1.6 1.4-2 2.4l-1.2 3.4c-.3.6-1.8 2.2-4.5 4.7l-.1.4c-.8 1.6-.8 2.6-.1 3l-2 4.1-.7.6c.4.1.6.5.7 1.2-3 3.4-5.3 4.7-7 4-3 .8-4.6 1.4-4.7 1.6-3-1.7-4.4-2.7-4.3-2.9-1.2-.3-2-.4-2-.2-1-.8-1.6-1.7-2.2-2.7-.5 0-1 0-1.5-.3.3-.6-.3-1.8-1.8-3.5 0-.2 0-.3-.2-.5 1.6-2.7 2.6-4.2 3-4.5 0-.6 0-1 .2-1.2.2 0 .4 0 .5-.3l-.4-.1.7-.6c.1-.2 0-.4-.2-.5l.7-.5c.1-.3 0-.4-.2-.5l.7-.6 1-2v-1l.3.2v-.8l.2-.4.7.4.5-2.8a7 7 0 0 0 2-2.5l1.2-3.4a32 32 0 0 1 4.4-4.7l.2-.4c.7-1.6.8-2.6.1-3l2-4.1.7-.6c-.4-.1-.7-.5-.8-1.2 3-3.4 5.4-4.7 7.1-4 3-.8 4.6-1.4 4.7-1.6m-1.2 8-.4.8-1.7 2.6.4.1-4.6 6c0 .6 0 1-.2 1.3l-.4-.1c0 .2 0 .4.2.5l-1.7 2.6-.5 2.1-.4-.2v1c-1 2-3 5.4-6.1 10l-.4.8c0 .3 0 .5.2.6l-.7.6c-.2.3-.1.4.1.5l-1.6 1.7c-.1.2 0 .4.2.5l-1.3 1.8-.4.8h1.2c.4.4.5.8.3 1.2 1-.2 1.9 0 2.5.2l.4-.8 1.7-2.5-.4-.2c1-1.5 2.5-3.4 4.4-5.5v-1l.2-.4c.1-.2.3-.3.6-.2.1-.3 0-.5-.2-.6l1.7-2.5.5-2.2.4.2v-1c1-2 3-5.4 6.1-10l.4-.7c.1-.3 0-.5-.2-.6l.7-.6c.2-.3.1-.5-.1-.6l1.6-1.6c.1-.3 0-.5-.2-.6l1.3-1.8.4-.7h-.9l-.3-.2c-.5-.2-.6-.6-.4-1a4 4 0 0 1-2.4-.3" class="cls-9"/><path id="path1127" fill="#767b8c" stroke-width="0" d="M242 570.6a19.1 19.1 0 0 1-5.7-2.5l-5.2-.4c.2-.5 0-.8-.5-.9l-2.8-.2c0-.4-.6-2.3-2-5.7l.4-1.5c.2-.6.4-1 .8-1.5-.2-.5-.2-.9-.1-1.2.2 0 .4 0 .4-.3h-.4l.6-.7c0-.3 0-.5-.3-.5l.6-.7c0-.2 0-.4-.3-.5l.5-.6.6-2.3-.3-.9.4.1-.2-.8v-.4l.8.1-.1-2.8c.7-.8 1.2-1.8 1.5-2.9l.4-3.5c.1-.7 1.2-2.6 3.3-5.7v-.4c.5-1.7.3-2.7-.5-2.9l1-4.6.6-.6c-.4-.1-.7-.5-1-1 2.4-4.3 4.7-6.2 7-5.7l3.3-2.5c3.3 1 4.9 1.7 4.8 2 1.4 0 2-.1 2.1-.4 4.5 3.2 6.9 5 7.1 5.7l-.8 1.8-.7 5c-.6-.2-3.3.6-8 2.4l-1-1.5 1.4-4.6h-2l-.2-1c-2 .3-3 .8-3.1 1.4l.2.8a3 3 0 0 0-.8 1.5h.4c-.5 1.3-1 1.8-1.1 1.8l.1.8c-.6.9-1.3 2-2 3.6.2.5.2 1 .2 1.2h-.4c-.1.2 0 .3.3.4l-1 2.6v2h-.5l.2.7a73 73 0 0 1-3.4 10l-.2.9c0 .2 0 .4.3.4l-.6.7c0 .3 0 .4.3.5a23 23 0 0 0-2.6 5.8l1.5.7 2.4.2c0 .2 0 .4.3.4.6-.5 1-.8 1-1l.6-2.6c.1-.6.4-1 .7-1.4a3 3 0 0 1 0-1.6 6 6 0 0 0 1.2-1.8c-.2 0-.3-.2-.3-.4h.4c0-.2 0-.4-.3-.4.6-1.8 1-2.6 1.4-2.5l-.3-.9c.1-.2.3-.3.5-.3.1-.4.1-1.5 0-3.2.4-.7.7-1 1-1l-.1-.2c-1.4-2.3-2-4-1.8-5.3.5-1 1-1.5 1.3-1.4l.6.2c.7.1 1.2.4 1.5.7h2c.6.2.9.4.8.7h1.7l2.5.5v.5l1.5-.6h.7l-.8 1.1.2.1c-.4.6-.7 1-1 1v.1c0 .2 0 .3.3.4l-2.4 5 .4.1c-1.3 3.5-2.1 5.2-2.4 5.1l.2.9c-.4.4-.6.7-.6 1l.4.1a8.8 8.8 0 0 1-1.9 2.8l.8.2-.1.3-.6.7.4.1-.6.7c0 .3 0 .4.3.5l-.5.6c0 .3 0 .4.3.5l-.7 1c0 .6 0 1.3.2 2.3l-4.6 5.6z" class="cls-9"/><path id="path1129" fill="#767b8c" stroke-width="0" d="M302.1 576.3a20 20 0 0 1-6-1.2l-5.1.7c0-.5-.3-.8-.8-.8l-2.7.4c0-.4-1-2-3.1-5.1v-1.6c0-.6.1-1.1.4-1.6-.3-.5-.4-.9-.4-1.1.3 0 .4-.2.4-.4h-.4l.4-.8c0-.3-.1-.4-.4-.4l.4-.8c0-.2 0-.4-.4-.4l.5-.7V560l-.4-.8h.4l-.4-.7v-.4h.7l-.7-2.8c.5-1 .8-2 .8-3.1l-.4-3.5c0-.8.7-2.9 2-6.3v-.4c0-1.8-.3-2.8-1.1-2.8v-4.6l.4-.8c-.4 0-.8-.3-1.1-.8 1.3-4.7 3.1-7 5.5-7l2.8-3.2c3.3.3 5 .6 5 .9 1.4-.3 2-.5 2-.8 5 2.1 7.8 3.5 8.2 4l-.4 2 .3 5c-.6 0-3 1.3-7.2 4.1l-1.3-1.2.3-4.9h-.4c-.4.3-1 .4-1.5.4l-.4-.8c-1.9.7-2.8 1.3-2.8 2l.4.7a3 3 0 0 0-.4 1.6h.4c-.3 1.3-.5 2-.8 2l.4.7c-.5 1-.9 2.3-1.2 4 .2.5.4.8.4 1.1h-.4c0 .3.1.4.4.4l-.4 2.7.3 2h-.4l.4.8c0 2.1-.4 5.6-1.2 10.6v.7c0 .3.1.4.4.5l-.4.7c0 .3.1.4.4.4-.5 1-1 3-1.3 6.3l1.6.4 2.4-.4c0 .3 0 .4.3.4.6-.7.8-1 .8-1.2v-2.7c0-.6.2-1.1.5-1.6-.3-.4-.4-1-.4-1.6.5-.8.8-1.5.8-2-.3 0-.4 0-.4-.3h.4c0-.3-.1-.4-.4-.4.2-1.8.5-2.7.8-2.7l-.4-.8c0-.3.1-.4.4-.4 0-.5-.2-1.5-.7-3.1.2-.8.5-1.2.8-1.2l-.2-.3c-1.8-1.8-2.8-3.4-2.8-4.7.2-1 .5-1.6.9-1.6h.6c.7 0 1.3.1 1.6.4l2-.4c.6 0 1 .1 1 .4l1.6-.4h2.5v.5l1.4-.9h.4l.4-.1-.6 1.2h.2c-.2.8-.5 1.2-.7 1.2v.2c0 .2 0 .2.3.2l-1.2 5.5h.4c-.6 3.7-1 5.5-1.2 5.5l.4.8c-.3.5-.4.9-.4 1.2h.3a8.2 8.2 0 0 1-1.1 3h.7v.5l-.4.8h.4l-.4.7c0 .3.1.4.4.4l-.4.8c0 .3.1.4.4.4-.3.5-.4 1-.4 1.2 0 .5.2 1.2.7 2.1l-3.3 6.5z" class="cls-9"/><path id="path1131" fill="#767b8c" stroke-width="0" d="M342.2 519c3.3-.4 5-.5 5-.3 1.3-.5 1.9-.8 1.8-1.1 1.2.1 2.3.4 3.4.9a3 3 0 0 1 1.4-.7c.2.7 1.3 1.2 3.6 1.6 0 .2.2.3.4.3l.4 5.4c.4.5.6.9.6 1.1-.2 0-.3.2-.3.5h.4l-.2.7c0 .3.2.4.5.4l-.2.8c0 .3.2.4.4.3l-.2.8.5 2.3.5.7h-.4l.6.8v.4l-.7.1 1.3 2.5a6.4 6.4 0 0 0 0 3.2l1 3.4c.2.7 0 2.9-.6 6.5v.4c.5 1.7 1 2.5 1.8 2.4l1 4.5-.2.9c.4-.1.8 0 1.3.5-.3 4.5-1.3 7-3.2 7.4a24 24 0 0 0-2.7 4.2c-3.3.4-5 .5-5.1.3-1.2.5-1.8.9-1.8 1.1-1.1 0-2.3-.4-3.3-.9-.4.4-.9.6-1.5.8-.1-.7-1.3-1.3-3.5-1.7 0-.2-.2-.3-.4-.3a35 35 0 0 1-.4-5.4c-.4-.5-.6-.8-.6-1.1.2 0 .3-.2.2-.5l-.3.1.2-.8c0-.3-.2-.4-.5-.3l.2-.9c0-.2-.2-.3-.4-.3l.2-.8-.5-2.3-.5-.7h.3l-.5-.8v-.3l.7-.2a11 11 0 0 1-1.3-2.5c.3-1 .3-2.1 0-3.2l-1-3.4c-.2-.7 0-2.8.5-6.4v-.4c-.4-1.8-1-2.6-1.7-2.4l-1-4.6.2-.8c-.4 0-.8-.1-1.3-.6.3-4.5 1.3-7 3.2-7.4a22 22 0 0 0 2.7-4.2m3.9 7.1.2.9.2 3h.4v7.4l.7 1.2-.4.1c0 .3.2.4.5.4l.2 3 .8 2-.3.1.5.8c.5 2.2 1 6.1 1.3 11.7l.2.8c0 .3.2.4.5.3l-.2 1c0 .2.2.4.4.3l-.3 2.3c0 .3.2.4.5.3v2.2l.2.9.7-.6h.4c.5 0 .8.1 1 .6.6-.7 1.3-1.2 2-1.3l-.1-.9-.3-3h-.4c-.1-1.8 0-4.2.1-7l-.6-.8v-.4c-.1-.3 0-.5.2-.5 0-.3-.2-.4-.4-.4l-.3-3-.8-2 .4-.1-.6-.8c-.5-2.3-1-6.2-1.3-11.7l-.2-.8c0-.3-.2-.4-.5-.4l.2-.9c0-.3-.2-.4-.4-.3l.3-2.3c0-.3-.2-.4-.5-.4v-2.2l-.2-.8-.7.6h-.4c-.5.2-.8 0-1-.6-.7.7-1.3 1.2-2 1.3" class="cls-9"/><path id="path1133" fill="#767b8c" stroke-width="0" d="m398 499.6.4-.2c.3.7.9 1 1.6.6l1 5.3c-.4.3-.5.7-.2 1.5l-1.8.8-.6.6c-.2-.4-.5-.6-1-.3-1.3.5-1.4 2.1-.5 4.8 0 .3.3.3.5.2a125 125 0 0 1 2.4 9.4c.6.7 1 1 1.2.8v1l.1.3.7.6-.3.1c0 .3.2.3.5.2.9 2.5 1.2 3.9.9 4 .1.2.3.3.5.2a29 29 0 0 1 1.4 8.1l.7.6.2.3c0 .3 0 .4-.2.6l.7.5.3.8c.2.5.3 1 .3 1.6l.6.6 1 3 .3-.1v.9l.7.5c-.5.3-.6.7-.4 1.1l1.2 3-1.6 1 .1.5 1.5-.7.8 1.9c.2.4 0 .8-.4 1-.1-.2-.3-.3-.5-.2 0 .2 0 .4-.2.5-.3-.5-2.5-1.7-6.8-3.5-.2-.3-1-.8-2.5-1.6l-4-14-.6-.5v-.9c-.1-.2-.3-.3-.5-.2l-.5-2c0-.3-.4-.6-.8-1l-.1-1.2-.4.2v-1l-.6-.5a18 18 0 0 0-.7-4.5c-.3.1-.4 0-.5-.2l.3-.2-.7-.5c-1-3-1.5-4.7-1.3-5.1l-.7-.6c-.4-2.1-.6-3.4-.9-3.9l-2 .5-1.4.6c-.3.1-.3.3-.2.5-.9.3-2 0-3.5-1l-.4.2v-1a11 11 0 0 1-2-2.6l-.4-.8c-.1-.5 0-.8.5-1l3.2-1.5c.3 0 .5 0 .6.2.6-.8 1.2-1.4 1.8-1.7l1.5-.6c.2-.1.4 0 .5.2.8-1 1.5-1.6 2.3-1.9h.9c.2 0 .5-.3 1-.8l4-1.4.4-.1 1.7-1.2c.1.3.3.3.5.2-.1-.5 0-.9.4-1m2.3 41.7.4.7 1-.5-.1-.3zm2.3-1.9.1.4c1-1.1 1.3-1.9 1.2-2.2l-.4.1c-.8.8-1.1 1.4-1 1.7zm9.1 17.8.4-.1.8 1-.7.2-.5-1z" class="cls-9"/><path id="path1135" fill="#767b8c" stroke-width="0" d="m435.2 474.3 3.1-2.3.9-.2-.2-.3c1.2-1 2.8-.1 4.7 2.4a24 24 0 0 1 3.5 6.2l.8.4.8 2.4.7.9c-.4.3-.4.8 0 1.4l.8.4c.1.5.3 1 .7 1.5l.4-.8c.3.5.5.6.7.5.2.2.3 1 .3 2.2l.8.4.2 1.8c.2.2.4.2.6 0a39 39 0 0 1 2.8 5.8c.5.3.9.5 1 .7l-.4.8.8.4.5.7c.3.4.5 1 .6 1.5.1.2.3.2.5 0a76 76 0 0 0 5 8.7c-.5.3-.6.6-.5.8.2.2.4.2.6 0a66.4 66.4 0 0 1 8 15.8l1.8 1.7.2.3-.6.5-11.2-6.4-.2-.9-4-6.5c-.1-.6-.2-1-.4-1.2-.2.1-.4.1-.6-.1.5-.3.5-.7.2-1.1l-.2-.3c-.2-.2-.4-.3-.6-.1a9.5 9.5 0 0 0-1.7-3.7l-.7-.3a9.3 9.3 0 0 0-1.3-3c-.4.3-.8.2-1-.2.3-.3.4-.7 0-1.1l-.2-.3c-.4-.6-1-1-2-1.5l-.4.8-.9.2c-1.2 1-1.7 1.8-1.4 2l-1.5.2c-.1.7.1 2.1.8 4.3.2-.2.8-.1 1.6.2l-.3.3.8.4c1.2 1.7 1.4 2.8.6 3.4l.4.7.5-1.3.2.3 2.3 5.7c.5.2.9.5 1 .7l-.3.2c.5.3.9.5 1 .7l.2.9.7.4c1.8 3.6 2.4 5.6 2 6-3.4.2-5.4-.1-6-1-.7.5-.8 1-.3 1.6l-.6.5c-.2-.2-.3-.6-.4-1.2a43 43 0 0 0-3.2-3 26 26 0 0 0-4.2-7.7c-.5-.2-.9-.5-1-.7l.4-.8c-.2-.2-.4-.2-.6 0-1.3-2.3-2-3.5-1.7-3.7l-.8-.4-.6-1.5-.8-.4c0-.5-.3-1-.6-1.5l-.3.2c-.5-1-.6-1.5-.3-1.7l-.8-.4a9 9 0 0 1-1.2-3l-.8-.4a9.3 9.3 0 0 0-1.3-3l-.3.2c.2-.1-.8-2-3-5.5-.3.2-.5.1-.7-.1.5-.3.5-.7.2-1l-.8-.5c0-.6-.2-1-.3-1.2-.3.2-.4.2-.6 0l.3-.3c-1.8-1.2-3.7-2-5.5-2.3l-.3-.3c.5-.3 1.3-1.5 2.2-3.6l.7-.4c3.9-2.7 6.2-3.6 6.8-2.6l.5.6.6 1.5.8.4.2.9c.1.2.3.2.5 0 1.8 3 3 5.3 3.5 6.8.1.2.3.2.5 0 1.1 1.8 1.6 2.8 1.3 3 .1.3.3.3.5.1l.9 1.9.2.3c1.3 1.3 2.2 1.8 2.6 1.5.3-.7 1-1.7 2.2-3.1.4.4.6.6.8.4.5-.4.4-1.8-.2-4.3l-.6.5-.2-.3c-.2-.2-.2-.4 0-.6l-.7-.4-.2-.8-1.5-1.4-1.4-3.3-.4.2c-.7-1.4-1-2.2-.7-2.3l-.8-.5-.2-.3c-.2-.2-.2-.4 0-.5l-.8-.4-2-2.9c-.4-.5-.3-1.1.5-1.9l-2-3.3zm10.1 41 .2.3a2 2 0 0 0 .9-2l-.3.2c-.8.6-1 1.1-.8 1.5m8.8 14.6c.3-.2.8-.2 1.6.2l-.3.3c-.4.3-.8.2-1-.2zm12-5.2c.5-.3.9-.2 1.2.1l.2.3c-.4.3-.8.3-1-.1z" class="cls-9"/><path id="path1137" fill="#767b8c" stroke-width="0" d="M493.1 472.9c.9.7 1.4 1 1.5.8l.3.8h.6a25 25 0 0 0 4 5l1.2-1 1.3-2c.1.2.3.1.5 0l-.4-1.4-2-1.8a3 3 0 0 1-1-1.3l-.8-.2c-.9-1.2-1.7-2-2.4-2.6l-.2-.3c-.2-.2-.4-.1-.6 0l-.3-.7c-.2-.2-.4-.2-.6 0l-1-1.9h-.5l-1.2-1.5-.6-.5-.2.8-.3.3c-.3.4-.7.4-1 0l-.5 1.7c-.1-.1-.3-.1-.5.1l.3.2a10 10 0 0 1-3.2 1.4 3 3 0 0 1-.8 1.4c-.5-.5-1.8-.2-3.8.8l-.8-.2-1.5-1.8-.2.8-.3.3-.3-.2-1-3-.9-.8c-1.3-1.2-2.3-1.5-2.8-.9l-3.5-3-.3-.9c-.3.3-.8.5-1.4.4-2.7-4-3.2-7-1.7-8.7l-.5-4.1c2.4-2.3 3.7-3.4 3.9-3.3.6-1.1.9-1.8.7-2 4.9-2.4 7.6-3.6 8.3-3.6l1.2 1.6 4 3.5c-.5.5-1.3 3-2.5 7.3l-1.5.3-2.8-3.2-.2.3c-.2.5-.4 1-.8 1.4l-.8-.2c-.7 1.8-.8 3-.3 3.4l.8.2c.2.5.5.9 1 1.3l.2-.3c.8 1 1 1.7 1 1.8l.7.3c.4 1 1.2 2 2.2 3.4.6.1 1 .3 1.2.5l1.2-1.5c2.1-1.4 3.7-2.3 4.8-2.5.1-.6.4-1 .7-1.5.6.5 1.8.2 3.8-.8.2.2.4.2.6 0 1.7 1.6 2.8 2.7 3.2 3.4l1.2.4c-.2.2-.2.4 0 .6l.3-.3.3.8c.2.2.4.2.6 0l.3.8c.2.2.4.2.5 0l.3.8 1.8 1.5.8.2-.2.3.8.2.3.3-.5.6c1.6.7 2.5 1 2.6 1.2 1.5 2.1 3 5.2 4.4 9a7.4 7.4 0 0 0-1.9 4.5c-.3.5-.8.8-1.3 1l-2.7 4.3c-.4-.4-.8-.3-1 0l-1.6 2.4a21 21 0 0 0-5.9-1l-1.1-1a3 3 0 0 1-1-1.4l-1-.4c.1-.2 0-.4-.1-.6l-.3.3-.3-.8c-.2-.2-.4-.1-.5 0l-.4-.8-.8-.2c.2-1.6.9-4 2-7-.2-.1-.1-.6.1-1.3l1-.2z" class="cls-9"/></g></g><g id="g1253"><g id="g1147"><path id="path1143" fill="#767b8c" stroke-width="0" d="M486.8 310.9c-1.4-10-4.6-19-8.6-24.8a20 20 0 0 0 1.8-1.3c4.5-3.2 6.5-4.7 5.5-7.2-1-2.3-3.4-2-5.6-1.6-2.7.4-7 1-10.2-.4-9.2-4.4-11.3-12-6.1-23.2 8-17.6 15.8-39.6 4.3-53.7-7.7-9.3-28.3-17-44.3-13.5a29 29 0 0 0-22.7 22.8 179 179 0 0 0-5 27.7c-.3 2.3-.6 4.7-1 5.3-.2.1-1 .3-3 .3-3.7 0-7.6-5.3-12.9-12.6a351.4 351.4 0 0 0-4.4-5.9c1.6-3.3 3-6.5 4.1-9.7 9.7-26 5-52.9-12.8-71.7a37.3 37.3 0 0 0-18.5-11.1 43 43 0 0 0-6.1-1c-4.4-.7-8.6-1.3-11.9-3.7-3.3-2.5-3-5.5-2.4-7 1-3 4.4-6.4 9.7-6.5 4-.1 9-.7 10.2-4 .8-2-.1-4-1.2-5-4.7-4.6-12.4-5.7-19.8-2.7-13 5.2-18.2 18.5-18.6 29.2-.6 15 10 18.6 20.3 22 8 2.6 16 5.3 21.4 13a13.4 13.4 0 0 0-1.9 6.6c0 5.4 3.2 10 7.8 12.2 0 6.5-2.6 11-5.1 13.7-15.3-13-21.5-14.5-35.3-14.5h-29.1c-15.9 0-21.7 2-43 21.3l-4 3.7a54.5 54.5 0 0 1-14-12.6c-10.9-14-13.3-31.5-7.1-52.2 3.2-10.8 9-23.5 18.8-22.8 5.5.4 11.9 5 17.7 12.5a52.7 52.7 0 0 1 10 21.5c.9 5.3 2.2 7.7 4.5 8.3 1.5.4 3-.2 4-1.6 4.5-5.8 5.8-31.3-3.1-47.2-7-12.2-24.7-19.2-42.3-16.6-16.2 2.5-27.8 12.7-31 27.4-3 13.7-6 34.9-3.3 57.7.7 6.2 1.8 12.2 3.2 17.8-5-9.4-13-13.1-19.5-14.6-2.5-.5-5.1-.8-7.8-.8a11.9 11.9 0 0 0-19 3.3 42.5 42.5 0 0 0-17.5 11c-11.5 14.1-3.8 36.1 4.3 53.7 2.7 6 3.4 11 2 15-3.3 2-6.6 4.9-9.7 8.7a23 23 0 0 1-8.6 0c-2.2-.4-4.6-.8-5.6 1.5-1 2.6 1 4 5.5 7.3l2.4 1.5a84 84 0 0 0 0 71.6c5 9.4 12.2 15 20 15.4l3.6.1c16.3 0 24.8-7.4 29.2-15.2a118 118 0 0 1-3.6 15.3l-2 6.9a123.7 123.7 0 0 0-6.7 31.5c-.2 5.6 1.8 9.5 5.4 10.7 3.6 1.2 8.4-.7 11.1-7.5 2-5 3.2-10.4 4.2-15.7 1.4-6.4 2.6-12.6 5.5-17.9a29 29 0 0 1 1.6 11.6c0 6.3-.7 12.8-1.3 19-1 11.6-2.2 23.5-.3 35.2.4 2.5 2 5.8 4.6 7 1.5.8 3.2.7 4.6-.2 1.8-1 2.4-2.8 2.8-3.9l8.4-22.3c-.4 7.3 1 15 4 23.2 6.2 15.8 2 29.3-.2 36.6-1.2 4.2-2 7 .2 8.6h.1l.1.1c.8.5 1.6.6 2.5.5.2 0 .5 0 .7-.2h.2l.4-.2h.3c1.3-.7 3-1.7 4.8-3 12.5-8.5 15.7-19.8 15.7-35a283.8 283.8 0 0 0-1.4-24.8v-.2l-.1-1.1v-.6a9.5 9.5 0 0 0 3.2-5.5l.4-1.8c.2-1.9.5-3.6 1.4-4.2.7-.5 2.4 0 3.3 1 1.1 1.4 1.6 3.4 2 6l.7 6.4c1 9.8 2.1 20 9.4 27.3.8.8 2 1 3 .6a2.8 2.8 0 0 0 1.8-2.6c-.1-11 .9-22.1 3-33 .4-2.3 1.6-4.4 2.5-4.9h.4c.4.2 1 1.1 1.1 1.4 4.6 7.7 5.2 17.3 5.8 26.5l.1 3a261 261 0 0 0 5.3 37.4c.6 2.7 2.2 6.2 5 7.7a5.6 5.6 0 0 0 4.8.2c3.5-1.4 4-5.5 4.3-7a376 376 0 0 0 3.9-45.4c0-2.2.1-4.3.9-5.9.5-1.2 1.7-2.1 2.6-2 1.8.2 2.6 3.8 2.8 6.7l.6 11.6a9 9 0 0 0 2 6.2 6.6 6.6 0 0 0 4.7 2.3c2.5 0 5.5-1 7.6-3 5.3-5.2 6.5-12.9 7.4-18.5l3.2-20.4c2 .2 4.1 2 5.1 4 1.6 3 1.6 6.9 1.7 10.7v.1c.3 13 1.1 26 2.6 38.9.2 2 .5 4.7 2 7 2 3 5.7 4.3 8.7 3 3.6-1.5 4.3-5.7 4.7-7.5l7-39h1c-2 25.5-2.6 42.6 14.7 54.4l.8.6 2.7 1.7h.1l.5.3a5 5 0 0 0 .4.2c1 .4 1.8.7 2.6.7.7 0 1.4-.3 2-.7 2.2-1.7 1.4-4.4.2-8.5-2-6.2-5.1-16.9-2.4-29.6 5-1.7 6.7-8 7.3-10.1l4-14.7c.6-2.4 2-4.4 3-4.8h.3c.3.2.8 1 1.1 1.4l6.3 9.8 1 1c1.1.5 2.4.7 3.7.2 2.5-.8 4-3.6 4.3-4.4 2-4.8 3.7-9.7 4.8-14.8a22 22 0 0 0 14.4 5.5h.7c9.5-.3 21.2-7.4 23.2-26.2 1.3-12.8 1-16.1-2-17.2-3-1-4.9 1.8-7.6 5.8-1.6 2.4-5 7.4-6.7 7.6-1.7.1-3.3.7-4.7 1.1-2.1.7-3.5 1-4.2.5-1.2-.8-3.5-4.5-4.8-20.3l-.7-6.5a97.2 97.2 0 0 0 22.3 0 39.6 39.6 0 0 0 33.7-26.4 71 71 0 0 0 3.1-34.8zm-339.3-85c-1.2-3.1-1-5.5.4-7.2 2.8-3 9.8-3.5 17.6-1.3 5.1 1.5 5 2 4.7 7.9-.4 6-1.1 16 4.8 32.3 2 5.2 3.6 9 5.3 12-7-2.8-16.3-6.3-25.7-6.4 1-9.8-1.4-22.1-7.1-37.3m277.3 31.7.4-1a13.4 13.4 0 0 0 3.8-14c1.3-7.8 1-13.4.7-17.3-.4-5.9-.4-6.4 4.7-7.9 7.7-2.2 14.8-1.6 17.5 1.3 1.5 1.7 1.7 4 .5 7.2a83.9 83.9 0 0 0-7 38.2c-1.8-.2-3.6-.3-5.5-.2-10.5.5-20 6.8-28.2 18.6a3 3 0 0 0-.4.8 11 11 0 0 0-.5 4.6 32 32 0 0 0-6.1-2 21 21 0 0 0-23.1 9.2 14 14 0 0 1-.7-8.1c1-3.8 4-7 8.9-9.5a18 18 0 0 1 14.5-1.1c8.6 2.2 13.4 1 20.6-18.8zm-206.5 37.5-.1-.3h.3zm218.2 29a41 41 0 0 0-19-32.5c2.6-.9 5.9-3.1 10.2-7 7.8-6.8 17.9-3.9 24.2.7 8.5 6 12.9 17.5 11.8 30.5-1.2 13.4-7.8 24.6-17.4 29.4-6.2 3-10.1 2.2-14.8-1.7 3.2-6.2 5-12.7 5-19.4m-273.9 23.3-.6.2c-4.8 1.6-9.4 3-13.2.6-5.1-3.3-8.7-13.4-10.7-30.2-1.6-13.4 1.3-22.9 8.5-28 9.7-6.9 25.4-4.8 37.5.4a41.5 41.5 0 0 0-20.7 33.7c0 6.9 1.9 13.6 5.3 20a20.7 20.7 0 0 1-6 3.3zm51.8-110.2c-2.3 2.6-4.4 4.1-6.4 4.1h-.1c-2 0-2.7-.1-3-.3-.3-.5-.6-3-.8-5.3a169 169 0 0 0-3.9-22.4c3.7 9 8.4 16.9 14.2 23.9" class="cls-9"/><path id="path1145" fill="#767b8c" stroke-width="0" d="M287.7 503.4c-1.8 0-3.6-.5-5.3-1.3-5.6-3-7.4-9.6-7.8-11.5a265 265 0 0 1-5.4-38.3l-.2-3c-.2-2.7-.3-5.5-.6-8.2-.6 6-.9 12-.8 17.8a8.5 8.5 0 0 1-5.2 8 8.5 8.5 0 0 1-9.3-1.9 38 38 0 0 1-9.9-21.5c.4 5.3.7 10.3.7 15 0 24-9.2 33.6-18.2 39.7a34.9 34.9 0 0 1-6.2 3.6l-.8.3-.4.1-1.2.3h-.3a9 9 0 0 1-6.2-1.2l-.1-.1c-.2 0-.3-.2-.5-.3-5.4-4-3.6-10.2-2.2-14.7a47.9 47.9 0 0 0-.7-36l-.8 2c-.5 1.5-1.7 4.8-5.2 6.9-3 1.8-6.7 2-10 .4-4.7-2.2-7.1-7.4-7.7-11.2-1.5-9.3-1.2-18.5-.5-27.5-4.4 7.2-11.3 9-16.4 7.3-6.2-2-9.7-8-9.4-16.3.4-11.7 3.7-22.5 7-33l1-3.6a43.6 43.6 0 0 1-23.2 3.9c-9.8-.7-18.5-7.2-24.7-18.4a89.8 89.8 0 0 1-2-72.2c-4.3-3.2-8.5-7-6-13 2.6-6.5 9.2-5.5 11.7-5 1.3.1 3.1.4 4.8.3 2.3-2.7 5-5 7.7-7a19 19 0 0 0-2.2-9c-8.8-19.1-17.1-43.2-3.5-59.6 3.8-4.7 10.3-9 18-12.1a17.5 17.5 0 0 1 25-4.3 43.7 43.7 0 0 1 16.3 4.4v-.5c-2.8-23.7.3-45.5 3.4-59.6 3.7-17.1 17-29 35.7-31.8 19.8-3 40 5.2 48 19.5a66 66 0 0 1 7.3 30c.1 3.9.1 17.2-4.6 23.3a9.5 9.5 0 0 1-10 3.7c-6.8-1.8-8-9.6-8.5-13a47.5 47.5 0 0 0-9-18.9c-5.6-7.2-10.7-10-13.6-10.2-4.5-.3-9.4 6.7-13 18.7-5.6 18.8-3.5 34.7 6.2 47.1a48 48 0 0 0 9 8.8l.7-.6c22-20 29.4-22.8 46.8-22.8h29.1c13.8 0 21.2 1.8 33.9 11.7l.6-2.2a19.2 19.2 0 0 1-6.6-21A38.8 38.8 0 0 0 326 157c-10.6-3.5-25-8.3-24.3-27.6.5-12.5 6.6-28 22.2-34.2 9.6-3.8 19.5-2.4 25.9 3.9 3 3 4 7.4 2.5 11.2-2.9 7.2-12 7.4-15.4 7.4-3 .1-4.2 2-4.4 2.6v.3s0 .2.4.5c2.1 1.6 5.4 2 9.3 2.5 2 .3 4.3.6 6.6 1.2a43 43 0 0 1 21.3 12.7 73.4 73.4 0 0 1 14 77.6c-.8 2.3-1.8 4.6-2.8 7l2.4 3.3c2.2 3 4.8 6.6 6.7 8.6.6-5.4 1.7-14 5.1-27.4a34.9 34.9 0 0 1 27-27c18.5-4 41.1 5 49.9 15.5 13.5 16.5 5.2 40.5-3.5 59.7-2.7 5.8-4.7 11.9 3.3 15.7 1.6.7 5.2.1 7-.1 2.4-.4 9-1.4 11.6 5 2.3 5.6-1 9.2-5 12.3a71 71 0 0 1 6.7 22.4c2 13.4.7 26.8-3.4 37.6a45 45 0 0 1-38.3 30 102.7 102.7 0 0 1-16.6.7c.6 8 1.5 12.2 2.2 14.4l4-1a53 53 0 0 0 3.8-5.3c2.9-4.2 7.1-10.5 14.3-8 7.8 3 6.8 11.9 5.6 23.2a37 37 0 0 1-10.5 23.5 27.6 27.6 0 0 1-30 5.5c-.8 2.8-1.9 5.5-3 8.2-.8 1.7-3.1 6-7.7 7.5a10 10 0 0 1-8.3-.7 8.4 8.4 0 0 1-3-2.9l-1.8-2.8-2.6 9.6c-.7 2.3-2.4 8.9-7.7 12.4a53.4 53.4 0 0 0 2.7 24.1c1.3 4.5 3.2 10.7-2.3 14.7a9 9 0 0 1-5.3 1.8c-1.5 0-3-.3-4.6-1h-.1l-.5-.3-.4-.2-.6-.3-.1-.1c-.9-.5-2-1.1-3.2-2l-.8-.5a38.7 38.7 0 0 1-14.4-17.2c-.7 3-2.6 7.7-7.6 9.8-5.5 2.4-12 .2-15.6-5.1a20.8 20.8 0 0 1-3-9.5c-1-9.4-1.7-18.8-2.2-28.2a31 31 0 0 1-8.2 16.8c-3.3 3-7.6 4.8-11.8 4.6-3.4-.2-6.5-1.6-8.7-4.1a377 377 0 0 1-2.9 25.8c-.9 5.8-3.5 9.7-7.8 11.4-1.4.6-2.8.9-4.3.9zm-20-88c.8 0 1.6.2 2.4.6a8 8 0 0 1 3.7 3.6 63.4 63.4 0 0 1 6.5 29 251.3 251.3 0 0 0 5.4 39.6c.4 2 1.5 3.5 2 3.8 0 0 .5-.2.9-2.6a350 350 0 0 0 3.8-44.7c0-2.5.2-5.4 1.4-8.1 1.7-3.6 5.3-5.7 8.7-5.2 2.6.3 7 2.4 7.5 12l.6 11.6c0 1 .1 2.3.6 2.8 0 0 .2.3.7.3.9 0 2.3-.5 3.4-1.5 4-3.8 5-10.1 5.8-15.2l4-25.8 5.4.6a13 13 0 0 1 9.5 7c2.2 4.3 2.3 9 2.4 13.2v.2a427 427 0 0 0 2.5 38.3c.2 1.6.3 3.4 1.1 4.5.6 1 1.5 1.1 1.7 1 .6-.2 1-1.3 1.4-3.3l7.8-43.8 5 .1c.4 0 1 0 1.6.2l5.3.7-.5 5.3c-2.2 27-1.7 39.7 12.3 49.3l.6.4a61 61 0 0 1-2.4-32.2l.6-3.2 3-1c1-.3 2.5-1.7 3.8-6.3l4-14.7c.8-3 2.9-7 6.1-8.5a6 6 0 0 1 5.3.2 8 8 0 0 1 3.2 3.4l5 7.8.3-.5a76 76 0 0 0 4.5-13.7l2.1-9.2 7.2 6.2c3.1 2.7 7.1 4.2 11.1 4 2.6 0 15.7-1.5 17.8-21.1l.6-7.4c-4.3 6.4-7 9.5-10.7 9.8a13 13 0 0 0-3.6 1c-2.7.8-6 1.8-9-.2s-5.8-6.3-7.3-24.6l-.7-6.3-1-7.5 7.5 1.2c6 1 12.9.9 20.7-.1 14.2-1.8 24-9.5 29.1-22.7 3.5-9 4.5-20.5 2.8-32a54 54 0 0 0-7.7-22.4l-3.5-5 3.6-2.2c-2 0-4.2-.5-6.3-1.4-7-3.3-17.5-11.7-8.8-30.7 7.3-16 14.6-36 5-47.7-6.5-7.9-24.8-14.7-38.7-11.6-9.6 2.2-15.7 8.4-18.4 18.7-3.4 13.5-4.4 22-5 27-.4 4-.7 6-1.6 7.6l-1 1.5-1.5.7c-1.2.5-2.5.7-5.2.8-6.8 0-11.4-6.3-17.7-15l-4.3-5.8-2-2.7 1.4-3.1 4-9.2c8.9-24 4.5-48.7-11.7-66a31.7 31.7 0 0 0-21.2-10.4c-5-.7-10.1-1.4-14.6-4.7-4.3-3.3-6-8.3-4.4-13.3a16 16 0 0 1 15-10.4c1.8 0 3-.2 3.8-.4-3.1-2-7.7-2.2-12.4-.3-10.5 4.1-14.7 15.2-15 24-.4 10.4 5.3 12.8 16.4 16.4 8.4 2.8 17.9 6 24.3 15.1l2 3-1.8 3.1a7.7 7.7 0 0 0-1 3.9c0 3 1.7 5.7 4.4 7l3.3 1.6v3.6a25 25 0 0 1-6.6 17.4l-3.7 4-4.2-3.5c-14.7-12.4-19.6-13-31.6-13h-29.1c-13.8 0-18.2.7-39.2 19.7l-3.7 3.6-3.2 3.1-3.8-2.3a60 60 0 0 1-15.5-14c-12.1-15.4-14.8-34.7-8.1-57.3 3.8-12.7 11.1-27.7 24.6-26.8 7.2.5 15 5.7 21.8 14.7a58.7 58.7 0 0 1 11.1 23.4 61.5 61.5 0 0 0-5.2-36.1c-5.7-10.2-21.4-16.1-36.4-13.8-13.9 2-23.7 10.6-26.4 23a175 175 0 0 0-3.2 55.8 128 128 0 0 0 3.1 17l3.4 13 .8-.2a84.5 84.5 0 0 0 13.2 22.4l3.2 3.8-3.3 3.6c-2.5 2.8-6 6-10.6 6h-.1a13 13 0 0 1-5.3-.7l-1.6-.7-.9-1.5c-1-1.6-1.2-3.5-1.7-7.7-.5-4.5-1.2-11.2-3.7-21.8l2.2-.7-6-11.4a22.6 22.6 0 0 0-15.8-11.7c-2-.4-4.3-.7-6.7-.7h-2.2l-1.7-1.6a6.2 6.2 0 0 0-4.3-1.8 6.2 6.2 0 0 0-5.6 3.5l-1 2-2.2.9a36 36 0 0 0-15 9.3c-9.6 11.6-2.3 31.6 5 47.7 3.4 7.5 4.2 13.7 2.3 19.2l-.7 2-1.8 1a30 30 0 0 0-8.2 7.4l-1.2 1.5-1.8.5c-1.2.3-2.4.4-3.6.5l3.4 1.8-2.4 5a78.8 78.8 0 0 0-.2 66.3c4.2 7.7 9.6 12.1 15.4 12.5 13.2.8 22.5-3.3 27.5-12.2l5.4-9.6-3.3 2.6a28 28 0 0 1-7.9 4.3l-.6.2c-5.3 1.7-12 3.8-18 0-6.8-4.4-11-15.3-13.2-34.3-1.9-15.7 1.8-27 10.8-33.3 8-5.7 23.5-8.7 43-.2l10 4.4-9.3 5.7c-8.9 5.4-17.9 16.4-17.9 28.8 0 5.8 1.6 11.6 4.6 17.2l2.2 4 9.5-17-4.7 30.8a127.1 127.1 0 0 1-5.8 23c-3 9.8-6.1 20-6.5 30 0 2.8.6 4.9 1.6 5.2.9.3 2.7-.8 4-4.2 2-4.6 3-9.8 4-14.7a66 66 0 0 1 6-19.5l5.6-10.4 4.6 10.8a32 32 0 0 1 2 14c0 6.4-.6 13-1.2 19.4a132 132 0 0 0-.4 33.8c.1.9.6 1.8 1 2.3l.1-.5 21.4-57.4-2 37.3c-.4 6.6.8 13.6 3.6 21a59.4 59.4 0 0 1 0 40l.6-.3c9.6-6.6 13.2-14.9 13.3-30.5a282.5 282.5 0 0 0-1.5-24.3v-1.4l-.3-3.4 2.2-1.8c.7-.6 1.2-1.6 1.4-2.3l.3-1.6c.4-2.6.9-5.9 3.7-7.9 3.6-2.5 8.4-1 10.9 2 2.1 2.5 2.8 5.7 3.3 8.8l.7 6.6c.7 5.9 1.3 11.6 3.1 16.4.4-8.2 1.3-16.4 2.8-24.5.6-3 2.4-7.2 5.6-8.9a6 6 0 0 1 2.8-.7zM162.4 291.3c-4.8 0-9.2 1-12.5 3.3-5.4 3.9-7.5 11.5-6.2 22.8 2.5 21 6.9 25.2 8.2 26 1.5 1 4.8 0 8.3-1.2l.7-.2.5-.2a45.7 45.7 0 0 1-3.6-17.7 45 45 0 0 1 14.4-31.6c-3.3-.8-6.6-1.2-9.8-1.2m277.2 61.4c-4 0-7.8-1.6-11.7-4.9l-3.6-2.9 2.2-4a36.8 36.8 0 0 0 4.3-16.8c0-10.2-6.4-21-16.4-27.8l-2.8-2-3-1.2c-1.7-.7-3.4-1.3-5-1.6-7.4-1.5-13.4.8-17.3 6.8l-6.3 9.3-3.8-10.6c-1.4-4-1.7-7.8-.8-11.4 1.3-5.4 5.3-9.9 11.9-13.1a23.3 23.3 0 0 1 18.4-1.6c4 1 5 .6 5.9-.1 2.3-1.8 5-6.9 8-15.1v-.5l.7-1.8 1-1a7.7 7.7 0 0 0 2.2-8l-.4-1.4.3-1.3c1.2-7.3.9-12.3.7-16-.3-3.6-.5-6.2 1-8.8 1.8-3.2 5-4.1 7.8-4.9 7.8-2.3 18-2.7 23.2 2.9 1.7 1.9 4.2 6 1.6 13a78.5 78.5 0 0 0-6.7 35.6l1 7.3-7.4-1c-1.5-.2-3-.3-4.4-.2-8.5.4-16.4 5.7-23.6 15.8l-.1.5c1.4-.6 3.7-2.1 7.5-5.5 6.4-5.6 18.4-9 31.3.3 10 7.3 15.3 20.6 14 35.5-1.3 15.4-9.1 28.5-20.5 34a20.8 20.8 0 0 1-9.2 2.5m-.9-11.4c1.4.3 2.9-.1 5.1-1.2 7.8-3.9 13.3-13.4 14.2-24.8 1-11-2.6-20.5-9.4-25.4-1-.8-10.2-7-17.1-1a80 80 0 0 1-4.1 3.4c8 7.5 14.7 18.6 14.7 31.8a45 45 0 0 1-3.4 17.2m-8.6-81.6-.1.4c3-1 6.2-1.7 9.4-1.9a102.3 102.3 0 0 1 8.1-35.8c-1.1-.6-5.2-1.3-11.5.5l-.8.2.1 1.8c.3 3.8.7 9.5-.6 17.5a19.1 19.1 0 0 1-4.6 17.3m-210.3 48-6.3-9.7-4.4-6.5 18.2-5.2-3.6 10.7zm-26.7-27-14.9-5.9c-6.4-2.5-15.1-5.9-23.6-6h-6.2l.6-6.1c.8-9-1.4-20.4-6.8-34.8-2.7-7-.1-11.1 1.6-13 5.1-5.6 15.4-5.2 23.2-2.9 2.7.8 6 1.7 7.8 5 1.5 2.5 1.3 5 1 8.7-.3 5.5-1 14.8 4.6 30 1.7 4.8 3.3 8.4 4.8 11zM160.5 258c3.2.4 6.4 1 9.3 2v-.4a76.4 76.4 0 0 1-5.3-34.7l.1-1.8-.7-.2c-6.3-1.8-10.3-1-11.5-.5a103 103 0 0 1 8.1 35.5z" class="cls-9"/></g><path id="path1149" fill="#4f3ad5" stroke="#000" stroke-linecap="round" stroke-linejoin="round" stroke-width="5.7" d="M401.5 349.9a117.4 117.4 0 0 0-30-25.5c-3.6-1.6-7.6-2.2-11.6-3-15-3.2-29-10.5-43.2-16.3-14.3-6-29.8-10.5-45-7.8-8.2 1.4-15.8 4.9-23.7 7.7a267.5 267.5 0 0 1-35.8 9.4l-21.5 29.2a32 32 0 0 1 20.4 17.6l-33.9-25c3.4 12.5.7 25.8-3 38.2-3.6 12.4-8.1 24.7-8.6 37.7-.1 3 .6 7 3.5 7.9 3.4 1 6.3-2.6 7.6-5.9 5-12.4 4.2-27.2 12.3-37.8 4 4.4 4.6 11 4.5 16.9-.3 18-4.6 36-1.7 53.7.4 2.7 2.6 6.2 5 4.8.8-.5 1.2-1.5 1.6-2.4l13.6-36.4 4-10.4c2.9 9.2 8.4 17.7 13.7 25.8.5.8 1 1.5 1.8 2 2.4 1.3 5.1-1.8 5.7-4.6.5-2.7.5-6 2.8-7.7 2.2-1.5 5.4-.5 7.1 1.5 1.7 2 2.3 4.8 2.6 7.4 1.6 11.3 1.3 24 9.4 32.1-.1-11.2.9-22.4 3-33.5.6-3.7 3.4-8.5 6.9-7 1 .5 1.8 1.6 2.4 2.6 5.4 9 5.6 20.1 6.3 30.7.8 12.4 2.6 24.8 5.2 37 .7 3.1 3 7 6 5.9 1.7-.7 2.2-3 2.5-4.8 2.2-15 3.5-30 3.9-45 0-2.4 0-5 1.1-7 1-2.3 3.3-4 5.7-3.7 3.8.5 4.9 5.5 5.1 9.3l.6 11.6c0 1.6.2 3.3 1.2 4.5 2 2.4 6 1.2 8.3-1 4.4-4.2 5.6-10.7 6.6-16.8l3.5-22.5c4-1.3 8.2 1.6 10.1 5.2 1.9 3.7 2 8 2 12.2.3 12.8 1.1 25.7 2.6 38.6.2 2 .5 4 1.6 5.7 1 1.7 3.3 2.8 5.2 2 2-.8 2.6-3.3 3-5.4l7.3-41.1c4.9-1 10.2 1.4 12.7 5.6 1.6 2.7 2 5.9 3.4 8.7 1.3 2.8 4 5.4 7 5 3.8-.4 5.6-4.8 6.6-8.4l4-14.7c1-3.7 4-8.3 7.3-6.6 1 .5 1.6 1.5 2.2 2.4l6.3 9.8c1.6.9 3.2-1.1 4-2.8a85.2 85.2 0 0 0-11.2-85.6"/><path id="path1151" fill="none" stroke="#000" stroke-linecap="round" stroke-linejoin="round" stroke-width="5.7" d="M202.1 369.1a229 229 0 0 0 .3 26.2c.2 1.5.7 3.5 2.2 3.7.8.1 1.6-.4 2.3-1 2.9-2.1 5.4-4.9 8.5-6.7 3.1-1.9 7.2-2.7 10.3-.7 1.4 1 2.4 2.3 3.4 3.5a38.4 38.4 0 0 0 37.2 12.7c3.3-.8 6.6-2 10-2 3.4 0 7.2 1.8 8.2 5 .5 1.7.2 3.4.5 5 .3 1.7 1.3 3.5 3 3.7 1 .2 2-.4 2.8-1 3.8-3.3 3.8-9.9 8.2-12.4 2.4-1.5 5.8-1 8 .8a9.8 9.8 0 0 1 3.4 7.7c0 2.9-.3 7 2.5 7.3 1.2.2 2.3-.5 3.2-1.3 4.6-3.6 8.2-8.4 13-11.8 4.9-3.3 11.7-4.9 16.5-1.5 2.8 2 4.4 5.3 6.7 8a20.4 20.4 0 0 0 20.5 5.7c7.2-2 13.1-7.8 15.8-14.8 1.3-3.4 2.8-7.8 6.5-8 1.3 0 2.5.5 3.6 1.3 3.2 2.4 4.7 6.3 5.7 10.1.1.8.3 1.6.9 2.1 1.1 1.2 3.2.6 4.4-.6 1.3-1 2.2-2.6 3.6-3.4" class="cls-8"/><path id="path1153" fill="#515364" stroke="#000" stroke-linecap="round" stroke-linejoin="round" stroke-width="5.7" d="M346.3 203.3s19.1-9 8-35.1-45.2-13.4-44.2-38.5c1-25 24.2-33.7 33.7-24.5 0 0 3.8 3.8-7.2 4-11 .3-17.3 12.3-8.9 18.6 5.5 4.2 12.7 3.8 19 5.2a34.7 34.7 0 0 1 17.1 10.3 65.4 65.4 0 0 1 12.3 68.9 163 163 0 0 1-6 13.5" class="cls-3"/><path id="path1155" fill="#303443" stroke="#000" stroke-linecap="round" stroke-linejoin="round" stroke-width="5.7" d="M241.5 212.5s-42.4-18.4-27-70.5c15.6-52.1 49-9.2 52.2 11.5 3.2 20.7 12.3-16.7 0-38.6-12.3-21.8-60.9-23-68 10-7.2 33-8.1 81 19.4 112.3" class="cls-7"/><path id="path1157" fill="#303443" stroke="#000" stroke-linecap="round" stroke-linejoin="round" stroke-width="5.7" d="M403.3 347.5s1 27.5 46.3 21.7c45.4-5.8 38.7-67.2 25-83.2-13.9-16-38.8-33-60.6-1.8 0 0-3.9 12.2 11.9-1.7 8.1-7.2 19.4-5.5 27.7.5 20.3 14.7 15.8 53.9-6 64.7-10.7 5.3-16.4 0-23.6-7.5-6.2-6.5-12.3-13-18.3-19.6" class="cls-7"/><path id="path1159" fill="#303443" stroke="#000" stroke-linecap="round" stroke-linejoin="round" stroke-width="5.7" d="M210 270.5s-8 6.3-19.9 5.1c-11.9-1.1-44.3-25.8-63.6 8.9s-6.6 84.6 16 86c22.4 1.5 31.2-11 33.7-23.5 2.6-12.5-2.2-.3-12.7 3.1s-23.5 8.4-28.2-31.7c-4.7-40.2 29.8-40.3 52-29.6a41.4 41.4 0 0 0 45.2-4.3" class="cls-7"/><path id="path1161" fill="#515364" stroke="#000" stroke-linecap="round" stroke-linejoin="round" stroke-width="5.7" d="M381.5 301.2s-12.1-16.6 7-26.2 22 13.8 33.7-18.3c11.6-32.1-3-37.8 11.4-42 14.5-4.1 25.9.5 21.5 12.2-4.4 11.6-9.6 28.5-6 41.7 3.6 13.2 17.9 22.3 29.3 14s-1.6-.6-9.9-4.4c-8.3-4-14.5-11.7-7.5-27s15.5-37.5 4.7-50.6-53.5-25.2-62 8c-8.6 33.4-2 35.4-11.7 35.6-9.6.2-15.5-19.2-36.4-38.2s-26-20.6-41-20.6h-29.2c-15.2 0-20.2 1.6-41.1 20.6-21 19-26.8 38.4-36.5 38.2-9.7-.2-3-2.2-11.6-35.5-8.5-33.3-51.2-21.3-62-8.1-10.9 13.1-2.3 35.4 4.7 50.6 7 15.3.7 23-7.6 27-8.2 3.8-21.2-4-9.8 4.4 11.4 8.3 25.6-.8 29.3-14 3.6-13.2-1.6-30-6-41.7-4.4-11.7 7-16.3 21.5-12.2 14.4 4.2-.3 9.9 11.4 42s14.5 8.8 33.7 18.3c19.1 9.6 7 26.2 7 26.2s-10-5-15.8 0-26.2-6.7-23.5 20.4c2.6 27 12 35.5 35 35.3l51.4 48.2s27.8-55.5 79.9 0l33-48.2s40.7 2.7 41.6-28.2c1-30.9 1.4-36.8-38.6-27.5" class="cls-3"/><path id="path1163" fill="#303443" stroke="#000" stroke-linecap="round" stroke-linejoin="round" stroke-width="5.7" d="M258.7 219.3s23.3-13 28.7 8.6 51.2 61.2 66.9 46.3c17.5-16.7-14.8-87.2-67.3-71.5a63.3 63.3 0 0 0-29.4 17.8" class="cls-7"/><path id="path1165" fill="#767b8c" stroke="#767b8c" stroke-linecap="round" stroke-linejoin="round" stroke-width="4.1" d="m396.6 246.7-.4-3.1c-.9.4-2.2.5-4.2.5-9.7.2-15.5-19.1-36.4-38.1s-26-20.6-41-20.6h-29.3c-15 0-20.1 1.6-41 20.6-21 19-26.8 38.3-36.5 38.1-2.1 0-3.5-.1-4.4-.7.8.6 14.4 10.2 43-21 29.6-32.3 34.4-32 60.2-31.6 25.9.4 35.7 18.5 54.8 39.2 19 20.7 35.2 16.6 35.2 16.6z"/><path id="path1167" fill="none" stroke="#000" stroke-linecap="round" stroke-linejoin="round" stroke-width="5.7" d="M381.5 301.2s-12.1-16.6 7-26.2 22 13.8 33.7-18.3c11.6-32.1-3-37.8 11.4-42 14.5-4.1 25.9.5 21.5 12.2-4.4 11.6-9.6 28.5-6 41.7 3.6 13.2 17.9 22.3 29.3 14s-1.6-.6-9.9-4.4c-8.3-4-14.5-11.7-7.5-27s15.5-37.5 4.7-50.6-53.5-25.2-62 8c-8.6 33.4-2 35.4-11.7 35.6-9.6.2-15.5-19.2-36.4-38.2s-26-20.6-41-20.6h-29.2c-15.2 0-20.2 1.6-41.1 20.6-21 19-26.8 38.4-36.5 38.2-9.7-.2-3-2.2-11.6-35.5-8.5-33.3-51.2-21.3-62-8.1-10.9 13.1-2.3 35.4 4.7 50.6 7 15.3.7 23-7.6 27-8.2 3.8-21.2-4-9.8 4.4 11.4 8.3 25.6-.8 29.3-14 3.6-13.2-1.6-30-6-41.7-4.4-11.7 7-16.3 21.5-12.2 14.4 4.2-.3 9.9 11.4 42s14.5 8.8 33.7 18.3c19.1 9.6 7 26.2 7 26.2s-10-5-15.8 0-26.2-6.7-23.5 20.4c2.6 27 12 35.5 35 35.3l51.4 48.2s27.8-55.5 79.9 0l33-48.2s40.7 2.7 41.6-28.2c1-30.9 1.4-36.8-38.6-27.5" class="cls-8"/><path id="path1169" fill="#515364" stroke="#000" stroke-linecap="round" stroke-linejoin="round" stroke-width="5.7" d="M412.4 343.4s10.6 4 13.2 35.5c2.6 31.5 9 22 16.8 21.2 7.9-.8 16.5-30.5 13.2.7-3.3 31.2-36.9 30.7-41.6 3.8-4.7-27-30.3-40.2-30.3-40.2" class="cls-3"/><path id="path1171" fill="#515364" stroke="#000" stroke-linecap="round" stroke-linejoin="round" stroke-width="5.7" d="M258.3 333.2c-9.5-7.1-20.5 9.9-35.1 12.2-14.7 2.4-26.5 1.2-34.8-16.6-8.3-17.7 8.7-22.9 17-18.1 8.3 4.7-6.6 16.6-6.6 16.6s31.9 2.7 19.6-26.1c-12.2-28.9-52.1-4.4-52.1 22.9 0 27.3 30.4 46.6 49.3 46.6s15.5 17.8 15.5 17.8l5.3 13.2 14.6-2.3 18.3-13.5" class="cls-3"/><path id="path1173" fill="#515364" stroke="#000" stroke-linecap="round" stroke-linejoin="round" stroke-width="5.7" d="M341.6 333.2c9.4-7.1 20.5 9.9 35.1 12.2 14.7 2.4 26.5 1.2 34.8-16.6 8.3-17.7-8.7-22.9-17-18.1-8.3 4.7 6.6 16.6 6.6 16.6s-31.9 2.7-19.6-26.1c12.2-28.9 52.1-4.4 52.1 22.9 0 27.3-30.4 46.6-49.4 46.6s-15.4 17.8-15.4 17.8l1 10-7.6 6.6-14.1-1.5-17.7-30.7" class="cls-3"/><path id="path1175" fill="#515364" stroke="#000" stroke-linecap="round" stroke-linejoin="round" stroke-width="5.7" d="M262.8 351.6c-1 27.9-30.3 42.5-30.3 42.5a44.2 44.2 0 0 0-16.4 56c11.6 30-11.6 52.3 4.8 41.1 16.3-11.1 15.6-27.1 13.2-55.8-2.4-28.7 7.5-12.8 31.5-30.3 23.9-17.6 37.9-52.7 23.9-67-14-14.4-7.6-44-7.6-44s1.5-13.3 14.5-13.6c13-.3 20.3 3.3 21.6 13.7 0 0 6.4 29.5-7.6 43.9-14 14.3 0 49.4 24 67 23.9 17.5 33.8 1.6 31.4 30.3-2.3 28.7-3.1 44.7 13.2 55.8 16.4 11.2-6.8-11.1 4.8-41s-4.8-48.2-16.4-56c0 0-29.3-14.7-30.3-42.6" class="cls-3"/><path id="path1177" fill="#303443" stroke="#000" stroke-linecap="round" stroke-linejoin="round" stroke-width="5.7" d="M310.4 338c14-14.3 7.6-43.8 7.6-43.8-1.3-10.4-8.6-14-21.6-13.7-13 .3-14.5 13.7-14.5 13.7s-6.4 29.5 7.6 43.8c2 2 3.3 4.5 4.2 7.2l1.3 6.4s-2 21.7-10 32.4c0 0 19-6.1 29.1-1.4 0 0-7.5-12.7-9-32.3a20 20 0 0 1 5.3-12.2z" class="cls-7"/><g id="g1199"><circle id="circle1179" cx="255.9" cy="288.2" r="25.3" fill="#fff" stroke="#000" stroke-linecap="round" stroke-linejoin="round" stroke-width="5.7" class="cls-6"/><circle id="circle1181" cx="254" cy="285.6" r="10.9" fill="#ff0" stroke="#000" stroke-linecap="round" stroke-linejoin="round" stroke-width="4.1" class="cls-2"/><path id="path1183" fill="none" stroke="#000" stroke-linecap="round" stroke-linejoin="round" stroke-width="3.2" d="M251.8 288.4a3.9 3.9 0 0 1 5.4-5.5" class="cls-5"/><path id="polyline1185" fill="none" stroke="#000" stroke-linecap="round" stroke-linejoin="round" stroke-width="3.2" d="m260 313.1 1-6.3-1.8-2.8" class="cls-5"/><path id="polyline1187" fill="none" stroke="#000" stroke-linecap="round" stroke-linejoin="round" stroke-width="3.2" d="m241.4 308.6 1.6-5.8h3.2" class="cls-5"/><path id="polyline1189" fill="none" stroke="#000" stroke-linecap="round" stroke-linejoin="round" stroke-width="3.2" d="m281.2 293.4-10.7 3.1-2.3-1.3" class="cls-5"/><path id="line1191" fill="none" stroke="#000" stroke-linecap="round" stroke-linejoin="round" stroke-width="3.2" d="m276 274.7-5 3.7" class="cls-5"/><path id="polyline1193" fill="none" stroke="#000" stroke-linecap="round" stroke-linejoin="round" stroke-width="3.2" d="m253 264.8 1.6 4.3 3 .6" class="cls-5"/><path id="polyline1195" fill="none" stroke="#000" stroke-linecap="round" stroke-linejoin="round" stroke-width="3.2" d="m240.7 271.4.7 4.3-1.7 2.7" class="cls-5"/><path id="line1197" fill="none" stroke="#000" stroke-linecap="round" stroke-linejoin="round" stroke-width="3.2" d="m231.8 295.8 6.5-3.3" class="cls-5"/></g><circle id="circle1201" cx="361.4" cy="293.4" r="10.6" fill="#515364" stroke="#000" stroke-linecap="round" stroke-linejoin="round" stroke-width="5.7" class="cls-3"/><circle id="circle1203" cx="360.6" cy="171.3" r="10.6" fill="#515364" stroke="#000" stroke-linecap="round" stroke-linejoin="round" stroke-width="5.7" class="cls-3"/><circle id="circle1205" cx="416.1" cy="246.7" r="10.6" fill="#515364" stroke="#000" stroke-linecap="round" stroke-linejoin="round" stroke-width="5.7" class="cls-3"/><circle id="circle1207" cx="233.7" cy="355.7" r="9.1" fill="#515364" stroke="#000" stroke-linecap="round" stroke-linejoin="round" stroke-width="5.7" class="cls-3"/><circle id="circle1209" cx="230.6" cy="323.8" r="4.5" stroke-width="0" class="cls-11"/><circle id="circle1211" cx="220" cy="214.3" r="4.5" stroke-width="0" class="cls-11"/><circle id="circle1213" cx="306.6" cy="219.3" r="6.7" stroke-width="0" class="cls-11"/><circle id="circle1215" cx="362.9" cy="321.7" r="6.7" stroke-width="0" class="cls-11"/><circle id="circle1217" cx="260.6" cy="392.6" r="6.7" stroke-width="0" class="cls-11"/><circle id="circle1219" cx="160.2" cy="192.9" r="9.1" fill="#515364" stroke="#000" stroke-linecap="round" stroke-linejoin="round" stroke-width="5.7" class="cls-3"/><circle id="circle1221" cx="336.3" cy="401.7" r="9.1" fill="#515364" stroke="#000" stroke-linecap="round" stroke-linejoin="round" stroke-width="5.7" class="cls-3"/><path id="path1223" fill="#303443" stroke="#000" stroke-linecap="round" stroke-linejoin="round" stroke-width="5.7" d="M375.1 441.7c-1.4-17.4-9-25.4-9-25.4l-3.3 1.2c3 2.2 4 6.6 3 17.9-2.3 28.7-3.1 44.7 13.2 55.8a35 35 0 0 0 4 2.5c-17.5-19.5-6.6-36.3-7.9-52" class="cls-7"/><path id="path1225" fill="#303443" stroke="#000" stroke-linecap="round" stroke-linejoin="round" stroke-width="5.7" d="M234 435.4c-.6-8.5-.3-13 1.2-15.7v0s-15.2 3.8-12.8 21.8c2.4 18 6.8 30.7-7.5 52.2v0c.3 1 1.9.3 6-2.5 16.3-11.2 15.6-27.1 13.2-55.8" class="cls-7"/><path id="path1227" fill="none" stroke="#000" stroke-linecap="round" stroke-linejoin="round" stroke-width="5.7" d="M257.6 220.4c-20.4 22.4-16.9 53.8-16.9 53.8" class="cls-8"/><circle id="circle1229" cx="239.7" cy="246.7" r="9.1" fill="#515364" stroke="#000" stroke-linecap="round" stroke-linejoin="round" stroke-width="5.7" class="cls-3"/><g id="g1251"><circle id="circle1231" cx="347.3" cy="260.9" r="25.3" fill="#fff" stroke="#000" stroke-linecap="round" stroke-linejoin="round" stroke-width="5.7" class="cls-6"/><circle id="circle1233" cx="350.5" cy="260.6" r="10.9" fill="#ff0" stroke="#000" stroke-linecap="round" stroke-linejoin="round" stroke-width="4.1" class="cls-2"/><path id="path1235" fill="none" stroke="#000" stroke-linecap="round" stroke-linejoin="round" stroke-width="3.2" d="M349.3 257.3c1-.3 2-.1 3 .4a3.9 3.9 0 0 1 1.2 5.3c-.5 1-1.4 1.5-2.3 1.7" class="cls-5"/><path id="polyline1237" fill="none" stroke="#000" stroke-linecap="round" stroke-linejoin="round" stroke-width="3.2" d="m323.8 251.5 5 4h3.2" class="cls-5"/><path id="polyline1239" fill="none" stroke="#000" stroke-linecap="round" stroke-linejoin="round" stroke-width="3.2" d="m337.4 238 4.1 4.3-1.6 2.7" class="cls-5"/><path id="polyline1241" fill="none" stroke="#000" stroke-linecap="round" stroke-linejoin="round" stroke-width="3.2" d="m329.8 279.8 2.8-10.8 2.3-1.3" class="cls-5"/><path id="line1243" fill="none" stroke="#000" stroke-linecap="round" stroke-linejoin="round" stroke-width="3.2" d="m348.5 285-.6-6" class="cls-5"/><path id="polyline1245" fill="none" stroke="#000" stroke-linecap="round" stroke-linejoin="round" stroke-width="3.2" d="m368.8 270.5-4.5-.8-2 2.3" class="cls-5"/><path id="polyline1247" fill="none" stroke="#000" stroke-linecap="round" stroke-linejoin="round" stroke-width="3.2" d="m369.5 256.6-4-1.6-1.4-2.9" class="cls-5"/><path id="line1249" fill="none" stroke="#000" stroke-linecap="round" stroke-linejoin="round" stroke-width="3.2" d="m353.3 236.3-.6 7.3" class="cls-5"/></g></g></g></svg>