<svg xmlns="http://www.w3.org/2000/svg" id="Layer_1" data-name="Layer 1" version="1.1" viewBox="0 0 256 256"><defs id="defs4"><style id="style2">.cls-1{fill:#00529f}.cls-2{fill:#eeb212}.cls-4{fill:#fff}</style></defs><path id="path6" d="M252.945 128a125.069 125.069 0 0 1-76.64 115.26q-3.941 1.663-8.018 3.047A124.965 124.965 0 1 1 252.945 128Z" class="cls-1"/><path id="path8" d="M21.094 151.775a.655.655 0 0 1-.287-1.243l14.844-7.222a.655.655 0 0 1 .573 1.177L21.38 151.71a.653.653 0 0 1-.286.066Zm22.685 29.775a31.147 31.147 0 0 1-10.236-1.746 33.81 33.81 0 0 1-11.947-7.114.655.655 0 0 1 .926-.925 33.136 33.136 0 0 0 11.502 6.82c9.447 3.269 18.962 1.813 28.281-4.328a.655.655 0 0 1 .72 1.094c-7.074 4.66-13.65 6.199-19.246 6.199Zm115.48-6.415a.437.437 0 0 1-.432-.38l-2.974-22.692a.436.436 0 0 1 .865-.113l2.974 22.692a.436.436 0 0 1-.376.489.445.445 0 0 1-.057.004Zm5.385-.328a.436.436 0 0 1-.429-.358l-3.777-20.561a.436.436 0 1 1 .858-.158l3.778 20.562a.436.436 0 0 1-.35.508.412.412 0 0 1-.08.007Zm5.22-2.766a.437.437 0 0 1-.423-.331l-3.865-15.616a.436.436 0 1 1 .848-.21l3.864 15.616a.436.436 0 0 1-.319.528.448.448 0 0 1-.105.013Z" class="cls-2"/><path id="path10" d="M157.294 160.142a.436.436 0 0 1-.071-.867l9.244-1.539a.436.436 0 1 1 .143.861l-9.244 1.539a.422.422 0 0 1-.072.006Zm.69 5.261a.436.436 0 0 1-.128-.854l9.518-2.908a.436.436 0 1 1 .255.834l-9.518 2.908a.428.428 0 0 1-.127.02Zm.941 7.177a.436.436 0 0 1-.163-.84l10.071-4.048a.436.436 0 0 1 .326.81l-10.071 4.048a.438.438 0 0 1-.163.03Zm-76.658-63.151a.655.655 0 0 1-.449-1.132l5.23-4.916a.655.655 0 1 1 .896.954l-5.229 4.916a.652.652 0 0 1-.448.178Zm21.223-2.826a.652.652 0 0 1-.304-.075l-5.328-2.799a.655.655 0 0 1 .61-1.159l5.327 2.798a.655.655 0 0 1-.305 1.235ZM77.478 76.866a.873.873 0 0 1-.622-1.486L90.25 61.774A.873.873 0 1 1 91.494 63L78.101 76.605a.87.87 0 0 1-.623.26Zm28.866-9.11a.868.868 0 0 1-.42-.109l-11.923-6.563a.873.873 0 0 1 .842-1.529l11.923 6.563a.873.873 0 0 1-.422 1.638Zm24.543-10.388a.873.873 0 0 1-.473-1.607l13.8-8.879a.873.873 0 0 1 .944 1.469l-13.8 8.879a.868.868 0 0 1-.471.138Zm33.933-6.648a.869.869 0 0 1-.437-.117l-16.978-9.839a.873.873 0 1 1 .875-1.51l16.979 9.838a.873.873 0 0 1-.439 1.629Zm-31.883 44.247a.655.655 0 0 1-.434-1.145l8.117-7.172a.655.655 0 1 1 .867.981l-8.117 7.172a.652.652 0 0 1-.433.164Zm24.112-3.585a.652.652 0 0 1-.265-.057l-5.433-2.405a.655.655 0 0 1 .53-1.197l5.433 2.405a.655.655 0 0 1-.265 1.253Zm27.507 1.441a.873.873 0 0 1-.793-1.236l10.115-22.094a.873.873 0 1 1 1.587.727L185.35 92.314a.873.873 0 0 1-.794.51Zm20.484-15.875a.87.87 0 0 1-.611-.25l-7.357-7.21a.873.873 0 0 1 1.222-1.246l7.357 7.21a.873.873 0 0 1-.611 1.496Zm23.393 67.205-2.2.38s-15.587-8.188-27.52-6.83a19.446 19.446 0 0 0-2.658.484q-.956.262-1.807.59c-12.069 4.63-8.974 18.69-8.974 18.69-27.097-18.56-6.81-57.524-6.42-58.261l.004-.01 32.522-24.708c-4.068 7.333-11.702 25.599-9.131 38.1 4.251 23.635 26.184 31.565 26.184 31.565Z" class="cls-2"/><path id="path12" d="m233.819 139.265-1.087 4.16-5.473 20.946a35.917 35.917 0 0 0-2.807 4.195l-.004.004a50.258 50.258 0 0 0-6.556 32.714s-114.05 34.752-135.015-12.553c-2.719-.834-16.948-5.653-21.575-16.595a542.524 542.524 0 0 1-6.302-1.06v-3.274s24.874 3.876 48.204 5.927l.428-5.164 19.008.843-.218 6.159s34.66-.158 46.777-1.62l4.6-16.132s24.163-.436 29.492-1.899c1.314-.58 1.314-6.713 3.793-7.664 1.873-.716 15.53-3.1 22.112-4.23l-.764-4.905 2.763-4.068ZM216.05 70.94l-4.67 3.548-32.522 24.709-.004.008-4.239 3.217a1.094 1.094 0 0 1-1.33-1.737l21.387-16.573 3.011-2.335L214.4 68.822a1.09 1.09 0 0 1 1.51.166l.319.38a1.098 1.098 0 0 1-.179 1.571Z" class="cls-2"/><path id="path14" d="M197.683 53.76v28.017l-3.011 2.335V53.62a3.708 3.708 0 0 0 1.667.389 3.646 3.646 0 0 0 1.344-.249Z" class="cls-2"/><path id="path16" d="M199.538 51.38a2.638 2.638 0 0 1-1.855 2.38 3.646 3.646 0 0 1-1.344.248 3.708 3.708 0 0 1-1.668-.388 2.56 2.56 0 0 1-1.532-2.24 3.26 3.26 0 0 1 6.4 0Zm-4.866 3.436v10.126c-6.12.567-7.905 6.665-10.921 7.481-5.535 1.196-8.743-3.557-8.743-3.557a7.34 7.34 0 0 0 8.87-2.1s-8.429 1.192-9.31-2.138c-.882-3.335 3.146-3.147 3.146-3.147-2.016 2.265 4.243 5.229 9.433-2.012 5.093-7.106 7.525-4.653 7.525-4.653Zm-45.952 94.898v25.53h-4.854v-25.578a16.65 16.65 0 0 1 4.854.048Zm31.657-61.006c-.026 1.292-1.69 1.567-1.69 1.567l-7.49 1.095-7.358 1.079-8.402 1.231-7.53 1.104-6.197.908-5.072.742-4.828.707-4.849.712-3.147.458c-3.513.371-2.846-2.174-.336-2.575.454-.074 2.986-.459 6.73-1.017l.69-.1 2.038-.306c11.283-1.684 29.724-4.417 39.091-5.81 3.396-.501 5.596-.828 5.836-.868 1.654-.258 2.531.126 2.514 1.073Z" class="cls-2" style="font-variant-east_asian:normal;opacity:1;vector-effect:none;fill:#eeb212;fill-opacity:1;stroke-width:1;stroke-linecap:butt;stroke-linejoin:miter;stroke-miterlimit:4;stroke-dasharray:none;stroke-dashoffset:0;stroke-opacity:1"/><path id="path18" d="M165.559 120.693a54.594 54.594 0 0 0 12.457 37.022l-4.217.1-.445 1.562a207.253 207.253 0 0 0-20.794-8.712 21.44 21.44 0 0 0-3.84-.951 16.65 16.65 0 0 0-4.854-.048c-5.757.83-9.747 4.967-10.135 11.27-.563 9.148 9.384 14.4 9.384 14.4h-3.295c-11.623-8.499-22.767-23.357-24.264-42.095s11.405-35.389 11.405-35.389l4.85-.711 4.827-.707 5.072-.742 6.198-.908 7.529-1.104 8.402-1.231 7.36-1.078 7.49-1.096c-2.371 2.213-12.2 15.853-13.13 30.418ZM50.596 150.849l-6.272-.231-18.55-11.842a1.343 1.343 0 0 1-.62-1.135 1.309 1.309 0 0 1 .213-.724 1.346 1.346 0 0 1 1.834-.42Zm34.171 20.964-8.974-1.104-24.329-15.53-2.056-1.314 3.26.135a1.465 1.465 0 0 0 1.446-.99Z" class="cls-2"/><path id="path20" d="m54.197 152.538-.014.144a1.612 1.612 0 0 1-.07.328 1.465 1.465 0 0 1-1.444.99l-3.26-.135-30.654-1.262-1.327-.057a1.46 1.46 0 0 1 .057-2.92h.056l26.782.991 6.273.232 2.2.083a1.466 1.466 0 0 1 1.4 1.606Z" class="cls-2"/><path id="path22" d="M62.485 174.493c-12.295 3.915-24.224-12.073-33.49-11.48-7.748.708-6.936 9.214-6.936 9.214-6.608-6.826-3.304-19.624-3.304-19.624l30.653 1.262 2.056 1.314s-4.696 3.99-2.636 11.195 12.841 6.526 12.841 6.526Zm55.285-68.021-2.336.363-.004.004-7.434 1.157-8.65 1.344-7.962 1.24-5.87.917-6.369.99-5.036.786-2.597.402a1.316 1.316 0 0 1-1.506-1.13l-.035-.276a1.318 1.318 0 0 1 1.108-1.47l8.752-1.31 2.767-.415 10.07-1.506a6.053 6.053 0 0 0 1.885-.283h.009l16.097-2.41 3.204-.48 3.509-.523a1.472 1.472 0 0 1 .196-.013 1.315 1.315 0 0 1 .201 2.614Z" class="cls-2"/><path id="path24" d="M129.632 175.518h-1.501q-2.783-3.306-5.49-6.106l-.005-.004c-10.48-10.855-19.99-16.132-27.337-16.647a14.303 14.303 0 0 0-5.264.545c-12.44 4.356-1.837 18.633-1.623 18.926 0 0-.293-.03-.297-.035-.371-.253-18.943-12.985-20.602-29.995a46.032 46.032 0 0 1 6.595-28.93l5.037-.785 6.369-.991 5.87-.917 7.962-1.24 8.65-1.344 7.434-1.157c-.297.245-10.598 8.813-8.739 27.193 2.37 20.182 22.247 40.77 22.924 41.47Z" class="cls-2"/><path id="path26" d="m95.714 173.018-5.678-.603v-19.109a14.303 14.303 0 0 1 5.263-.545Zm78.884-122.231-3.055.58-.005.005-10.078 1.916v.005l-5.866 1.117-4.775.908-4.657.886-3.588.685-4.395.838-4.513.86-4.933.939-.004.004-4.042.768a1.434 1.434 0 0 1-.235.022 1.27 1.27 0 0 1-.25-2.514l20.484-4.016 3.156-.616 26.215-5.137a1.268 1.268 0 0 1 1.48.965l.06.257a1.272 1.272 0 0 1-.999 1.528Z" class="cls-2"/><path id="path28" d="M177.863 87.634c-.24.04-2.44.367-5.836.869-1.86-2.759-12.823-12.195-23.81-12.077a16.882 16.882 0 0 0-2.475.192q-.85.15-1.636.34v.004c-14.976 3.632-11.17 17.35-11.17 17.35l-2.038.306-.69.1c-17.734-20.934-1.803-34.91-1.48-35.189l.004-.004 4.933-.939 4.513-.86 4.395-.838 3.588-.685 4.657-.886 4.775-.908 5.866-1.117v-.005l10.078-1.916c-.218.223-7.145 7.368-7.145 17.219.001 10.01 13.47 19.044 13.47 19.044Z" class="cls-2"/><path id="path30" d="M140.946 85.014h11.073s.683 6.806-5.537 6.806-5.536-6.806-5.536-6.806Z" class="cls-2"/><path id="path32" d="M148.218 76.421v8.594h-4.112v-8.052m5.299-52.103a2.451 2.451 0 0 1-1.563 2.117 4.276 4.276 0 0 1-1.855.406 4.46 4.46 0 0 1-1.3-.192 2.648 2.648 0 0 1-2.113-2.33c0-1.389 1.528-2.519 3.413-2.519 1.89 0 3.418 1.13 3.418 2.518Z" class="cls-2"/><path id="path34" d="M147.842 26.977v26.198l-3.156.615V27.191a4.46 4.46 0 0 0 1.301.192 4.276 4.276 0 0 0 1.855-.406Zm-3.156 1.288v6.01a9.72 9.72 0 0 0-5.211.764 6.557 6.557 0 0 0-3.553 4.452 57.457 57.457 0 0 1-2.82-6.098c5.304-9.99 11.584-5.128 11.584-5.128Z" class="cls-2"/><path id="path36" d="M142.91 41.538c-2.309 2.235-4.976 1.009-6.59-1.396a8.057 8.057 0 0 1-.398-.65 6.557 6.557 0 0 1 3.553-4.453s2.291 4.151 3.435 6.5Z" class="cls-2"/><path id="path38" d="M138.41 47.74c-4.976.048-9.458-2.688-12.863-2.505-3.405.18-5.111 5.15 1.388 3.85a4.8 4.8 0 0 1-4.408 2.96c-3.3 0-6.032-3.763-4.417-8.154 1.61-4.395 5.346-5.032 10.021-4.4a70.376 70.376 0 0 0 8.188.65c1.615 2.405 4.282 3.632 6.591 1.397 1.144 2.353.471 6.159-4.5 6.203Zm-39.802 52.692s-.009 5.521-4.046 6.852h-.009l-1.886.284c-5.927 0-5.792-7.136-5.792-7.136Z" class="cls-2"/><path id="path40" d="m113.863 104.395-3.204.48c-5.164-6.944-10.641-10.729-15.787-11.545a13.055 13.055 0 0 0-4.204 0 13.868 13.868 0 0 0-6.486 3.003 12.654 12.654 0 0 0-2.317 2.414c-4.479 6.215.733 10.327.733 10.327l-2.767.414c-14.347-10.55-7.145-29.012-7.145-29.012l4.33-1.362.004-.004 4.146-1.305 4.706-1.48 5.408-1.702 6.988-2.2 6.625-2.087 10.1-3.182a36.618 36.618 0 0 0-8.301 18.856c-1.607 12.824 7.17 18.385 7.17 18.385Z" class="cls-2"/><path id="path42" d="m115.91 66.867-.912.288h-.005l-10.1 3.182-6.625 2.086-6.988 2.2-5.408 1.702-4.705 1.48-4.147 1.305-.004.004-4.33 1.362-.747.236a1.416 1.416 0 0 1-.85-2.702l19.784-6.246 3.549-1.117 20.628-6.513a1.413 1.413 0 0 1 1.785.952l.009.035a1.416 1.416 0 0 1-.934 1.746ZM94.872 93.33v7.101h-4.204V93.33a13.055 13.055 0 0 1 4.204 0Z" class="cls-2"/><path id="path44" d="M94.422 45.934v24.713l-3.549 1.117V45.676a3.69 3.69 0 0 0 2.008.576 3.84 3.84 0 0 0 1.541-.319Zm-3.548 25.835v-.005" class="cls-2"/><path id="path46" d="M96.09 43.664a2.57 2.57 0 0 1-1.668 2.27 3.84 3.84 0 0 1-1.54.319 3.69 3.69 0 0 1-2.009-.577 2.43 2.43 0 0 1-1.195-2.012c0-1.431 1.436-2.588 3.203-2.588 1.772 0 3.208 1.156 3.208 2.588Zm-5.216 4.006v11.052a15.838 15.838 0 0 0-10.367 1.03c-5.159 2.527-10.065 5.609-15.18 3.02-4.997-2.527-7.821.825-7.948.982 1.907-5.05 3.762-5.495 11.279-4.373 6.804 1.017 9.122-3.082 9.122-3.082s-7.333 2.48-11.095 0a11.106 11.106 0 0 0-8.63-1.724c2.467-3.208 6.718-3.945 9.306-2.466 6.473 3.204 8.94 1.231 13.81-3.33a7.653 7.653 0 0 1 9.703-1.108Z" class="cls-2"/><path id="rect1460" d="M194.039 138.438h4.785v17.843h-4.785z" style="opacity:1;vector-effect:none;fill:#eeb212;fill-opacity:1;stroke-width:1;stroke-linecap:butt;stroke-linejoin:miter;stroke-miterlimit:4;stroke-dasharray:none;stroke-dashoffset:0;stroke-opacity:1"/><path id="path48" d="m231.226 133.446-3.71 5.465.687 4.396-.087.015c-3.362-1.409-21.456-9.906-25.226-30.866-2.607-12.677 5.547-31.266 8.996-37.531l4.56-3.465a1.752 1.752 0 0 0 .284-2.513l-.315-.376a1.739 1.739 0 0 0-2.416-.266l-15.661 12.136V54.184a3.202 3.202 0 0 0 1.855-2.802c-.701-4.382-7.007-4.382-7.708 0a3.081 3.081 0 0 0 1.205 2.383 3.135 3.135 0 0 0-.511-.002c-1.934.154-4.142 1.946-6.564 5.325-2.52 3.516-5.332 4.513-7.124 4.272a1.78 1.78 0 0 1-1.48-.813c-.027-.072-.108-.292.193-.63l.912-1.025-1.371-.064a4.462 4.462 0 0 0-3.398 1.241 2.94 2.94 0 0 0-.412 2.727c.744 2.813 5.42 2.963 8.146 2.802a6.5 6.5 0 0 1-6.81.669l-2.065-.9 1.26 1.866c.03.046 2.782 4.032 7.548 4.032a9.009 9.009 0 0 0 1.908-.209c1.366-.37 2.41-1.552 3.617-2.922 1.62-1.836 3.442-3.898 6.478-4.44V83.79l-21.136 16.38c-1.79 1.427.289 4.136 2.13 2.774l2.083-1.583a77.79 77.79 0 0 0-5.985 20.2c-2.169 15.202 1.974 27.29 11.986 35.116-1.836.067-3.539.12-4.971.16-2.164-2.593-12.94-16.548-11.912-36.106.898-14.054 10.136-27.228 12.796-29.856a2.43 2.43 0 0 0 2.023-2.154v-.001a1.63 1.63 0 0 0-.546-1.305 3.073 3.073 0 0 0-2.455-.462c-1.64-1.154-12.982-9.46-12.982-18.362 0-8.93 5.825-15.551 6.821-16.618l2.851-.543h.001a1.926 1.926 0 0 0 1.513-2.322l-.059-.248a1.933 1.933 0 0 0-2.245-1.465l-25.434 4.983V27.366a2.964 2.964 0 0 0 1.563-2.506c0-1.75-1.827-3.173-4.072-3.173-2.243 0-4.068 1.424-4.068 3.173.007.649.245 1.273.673 1.761a6.761 6.761 0 0 0-3.026-.044c-2.687.579-5.057 2.769-7.042 6.51a.655.655 0 0 0-.033.542 58.269 58.269 0 0 0 2.667 5.826 75.205 75.205 0 0 1-6.94-.612c-3.972-.538-8.782-.476-10.723 4.822a7.147 7.147 0 0 0 .65 6.644c2.378 3.603 7.83 3.026 9.403-.994l.413-1.103-1.155.231c-2.613.523-3.336-.089-3.496-.289a.81.81 0 0 1-.019-.846 2.685 2.685 0 0 1 2.29-1.419c1.785.07 3.547.426 5.219 1.053a25.606 25.606 0 0 0 7.616 1.453c2.933-.026 4.313-1.265 4.955-2.3a4.652 4.652 0 0 0 .66-2.206v9.364l-19.953 3.91a1.923 1.923 0 0 0 .732 3.778l2.01-.383a23.46 23.46 0 0 0-4.75 8.636c-1.64 5.578-1.722 14.394 6.897 25.048-3.167.474-5.188.78-5.592.847-1.624.26-2.78 1.342-2.632 2.463.049.363.365 1.448 2.423 1.448.248 0 .496-.015.743-.042l1.627-.238c-2.934 4.274-11.896 18.759-10.632 34.574 1.252 15.676 9.706 30.92 22.744 41.207-2.938.055-5.659.094-7.963.123-2.942-3.13-20.17-22.164-22.342-40.659-1.722-17.025 7.137-25.428 8.374-26.51l2.153-.335c2.396-.377 2.125-3.91-.301-3.916a2.22 2.22 0 0 0-.294.02l-3.251.486c-1.23-.886-8.09-6.38-6.683-17.618a35.75 35.75 0 0 1 8.03-18.369l.736-.232a2.055 2.055 0 0 0 1.372-2.529l-.015-.059a2.068 2.068 0 0 0-2.61-1.393l-19.777 6.242V46.333a3.118 3.118 0 0 0 1.667-2.67c0-1.787-1.733-3.242-3.863-3.242-2.127 0-3.858 1.455-3.858 3.243.015.924.456 1.79 1.196 2.344v.566a8.267 8.267 0 0 0-9.496 1.728c-4.816 4.51-7.012 6.22-13.037 3.24-2.714-1.552-7.367-.986-10.15 2.635l-1.207 1.571 1.907-.543c2.807-.57 5.726.022 8.088 1.642 2.614 1.722 6.687 1.261 9.267.71a9.432 9.432 0 0 1-6.838 1.177c-7.683-1.147-9.903-.706-11.975 4.758a.61.61 0 0 0-.021.055l-1.436 3.802 2.567-3.183c.104-.128 2.585-3.113 7.143-.809 4.87 2.464 9.585.09 14.144-2.208.538-.27 1.077-.543 1.62-.808a15.286 15.286 0 0 1 9.423-1.098v12.043l-19.329 6.1c-2.252.718-1.738 4.04.625 4.046.057 0 .114-.009.171-.013-1.254 4.164-4.48 18.42 6.551 27.649l-7.257 1.083a1.962 1.962 0 0 0-1.658 2.2l.035.278a1.972 1.972 0 0 0 2.255 1.692l1.19-.185a47.99 47.99 0 0 0-5.94 28.13c1.34 13.742 13.397 24.653 18.57 28.744l-.891-.105-29.7-18.218.008-.087a2.095 2.095 0 0 0-.509-1.593 2.136 2.136 0 0 0-1.52-.73l-2.025-.075-23.253-14.264c-2.26-1.413-4.38 1.977-2.12 3.39l16.523 10.547-24.403-.903h-.056a2.122 2.122 0 0 0-2.112 1.992A2.116 2.116 0 0 0 17.4 153.2l.542.023c-.617 2.949-2.26 13.357 3.647 19.459.431.444 1.18.098 1.122-.518-.004-.037-.334-3.775 1.743-6.28a6.463 6.463 0 0 1 4.582-2.218c3.74-.238 8.1 2.473 12.72 5.346 5.149 3.202 10.853 6.748 16.735 6.748a13.813 13.813 0 0 0 3.465-.438c5.74 9.65 18 13.186 20.118 13.734a35.165 35.165 0 0 0 14.151 15.84c10.379 6.392 25.105 9.596 43.972 9.596a227.61 227.61 0 0 0 31.087-2.366 343.464 343.464 0 0 0 46.861-10.01l.723-.22-.114-.746c-3.179-20.799 9.058-36.076 9.182-36.228l.12-.148 6.7-25.654zm-205.418 4.195a.69.69 0 0 1 1.05-.585l21.27 13.046-3.603-.133-18.398-11.744a.69.69 0 0 1-.319-.584zm206.411.706-2.17-.06 1.113-1.639zm-2.763 1.67 3.24.09-.666 2.548-2.106.357zm1.465 6.88c-3.472.623-19.232 3.455-20.563 3.787-.886.222-1.27 1.337-1.802 2.88-.722 2.094-1.71 4.964-4.168 5.824-4.237 1.483-27.24 2.292-27.472 2.3l-.47.017-3.478 11.613c-1.161.07-2.08.114-2.72.142l4.214-14.783a569.1 569.1 0 0 0 10.929-.337l.737-.03c6.869-.293 14.584-.78 17.392-1.55l.124-.044c.934-.414 1.267-1.684 1.729-3.441.422-1.61 1-3.814 2.024-4.205 1.846-.706 16.972-3.347 24.148-4.562zM89.507 197.203a32.08 32.08 0 0 1-5.348-7.809c15.695 4.137 34.96 5.533 53.82 5.533 35.513 0 69.561-4.949 75.5-5.856a69.751 69.751 0 0 0-.801 7.675c-7.228 1.302-88.688 15.483-123.171.457zm124.21-9.494c-6.727 1.045-84.555 12.677-130.263.14a35.937 35.937 0 0 1-2.133-6.965c8.752 2.032 20.09 3.57 34.663 4.767 8.035.703 16.209.996 24.255.996 35.825 0 69.07-5.806 75.708-7.035a47.388 47.388 0 0 0-2.23 8.097zM72.53 169.401c-10.125-1.336-17.262-2.443-17.395-2.464l-1.007-.156v4.241a7.533 7.533 0 0 1-4.67-4.827c-1.2-3.524-.4-7.422 2.092-10.188zm101.851 9.482c1.399.002 2.097 1.693 1.107 2.681s-2.68.287-2.679-1.112a1.568 1.568 0 0 1 1.572-1.57zm-5.783 5.358c-1.24.091-2.491.178-3.756.261v-6.01a475.52 475.52 0 0 0 3.756-.25zm-9.434-4.342c1.398.002 2.097 1.693 1.107 2.68-.989.989-2.679.288-2.679-1.11a1.572 1.572 0 0 1 1.572-1.57zm-5.678 5.186c-1.32.049-2.65.091-3.986.127v-6.054c1.35-.035 2.678-.075 3.986-.12zm-9.552-1.285c-1.4 0-2.102-1.693-1.112-2.684.99-.99 2.684-.289 2.684 1.112 0 .868-.704 1.572-1.572 1.572zm-5.562 1.531c-1.4-.008-2.803-.025-4.21-.052v-5.999c1.377.013 2.737.02 4.082.02h.128zm-9.777-4.508c1.4 0 2.102 1.693 1.112 2.684-.99.99-2.684.289-2.684-1.112 0-.868.704-1.572 1.572-1.572zm-5.225 4.047a265.49 265.49 0 0 1-4.142-.272v-5.694c1.394.058 2.775.109 4.142.152zm-9.764-5.084c1.398.002 2.097 1.693 1.107 2.68-.989.989-2.679.288-2.679-1.11a1.57 1.57 0 0 1 1.572-1.57zm-5.622 3.824c-21.573-2.155-34.884-5.259-42.723-9.97a492.805 492.805 0 0 0 42.723 4.668zm108.545-5.441c-2.447.467-16.966 3.154-36.7 5.102v-5.997a288.541 288.541 0 0 0 41.624-6.985 27.168 27.168 0 0 0-4.924 7.88zm7.378-10.352c-2.341.68-18.762 5.247-45.797 7.873-26.744 2.597-69.62 3.766-122.236-5.35v-1.523c4.895.742 26.775 3.98 47.224 5.779v.003a157.18 157.18 0 0 0 18.423 1.837v.006l.34-.002c.19.002.378.004.564.004v-.006h.004c.347-.002 34.849-.174 46.877-1.623l.11-.014c2.532-.082 29.026-1.123 55.842-9.134-.47.704-.92 1.421-1.351 2.15zM90.69 153.802l.063-.018c.061-.016.123-.03.184-.045.118-.029.237-.056.357-.081l.214-.043c.116-.022.233-.042.35-.062.071-.011.142-.024.214-.034.163-.024.327-.045.493-.063l.249-.023c.12-.01.24-.021.363-.029l.26-.013c.113-.005.225-.009.338-.012l.249-.004a16.039 16.039 0 0 1 .586.006l.047.003.383 18.686c-1.457-.15-2.907-.305-4.35-.463zm31.047 16.441-.171 4.884c-5.85-.223-11.68-.79-17.464-1.696l.331-3.957zm-18.903-2.587-.43 5.126c-2.011-.18-4.035-.375-6.052-.579l-.383-18.724c7.137.795 15.863 6.067 24.805 14.973zm42.464-17.469c.319-.016.638-.023.957-.02h.015c.323.005.646.02.968.043.268.019.537.043.809.075l.018.002v23.968c-1.182.035-2.363.067-3.545.096v-24.107c.257-.026.517-.044.779-.057zm4.076.305c1.01.193 2.003.458 2.974.793a205.56 205.56 0 0 1 20.026 8.346l-3.853 13.517c-4.495.498-11.729.837-19.147 1.068zm-6.163 23.892-.406.01c-2.107-1.31-8.871-6.103-8.42-13.418.344-5.6 3.625-9.484 8.826-10.53zm75.13-8.148c-.409.106-.816.21-1.223.313l4.498-16.642 1.276-.232zm-3.89-11.29 4.786-1.256-.306 1.133-4.796 1.279zm-.714 2.617 4.8-1.28-1.06 3.921-4.83 1.366zm-1.492 5.48 4.833-1.366-.383 1.42-4.796 1.216zm-.741 2.72 4.799-1.216-.64 2.363c-1.605.393-3.196.764-4.774 1.112zm8.127-13.53-4.784 1.254.672-2.466c1.418-.262 3.028-.557 4.671-.856zm-10.185 16.103c-.447.095-.893.189-1.338.281l4.66-17.082c.399-.075.842-.159 1.322-.248zm-6.24-3.762 4.899-.917-.444 1.627-4.827.657zm-.746 2.74 4.826-.657-.615 2.254c-1.66.333-3.293.643-4.9.93zm8.25-13.21-1.009.155.094-.27c.187-.72.483-1.407.88-2.036.22-.05.44-.098.66-.14zm-1.524 1.558 1.147-.175-.364 1.336-1.377.167c.223-.438.418-.884.594-1.327zm-1.468 2.754 1.879-.229-1.11 4.066-4.899.917.647-2.373c.22-.057.417-.115.586-.174a6.09 6.09 0 0 0 2.897-2.206zm-7.372 11.676-1.231.21 2.276-8.982a42.77 42.77 0 0 0 1.404-.22zm-6.1-4.278 4.823-.663-.384 1.516-4.877.648zm-.839 2.875 4.932-.655-.634 2.5c-1.737.281-3.423.537-5.059.767zm6.01-4.908-4.77.655.721-2.477c1.656-.139 3.23-.292 4.627-.46zm-8.192 7.719c-.422.057-.84.113-1.254.167l2.645-9.492c.454-.033.906-.067 1.355-.102zm-5.97-4.646 4.863-.592-.347 1.247-4.879.678zm-.737 2.707 4.87-.677-.826 2.964a262.06 262.06 0 0 1-4.82.56zm5.98-4.664-4.87.592.797-2.924c1.545-.085 3.174-.183 4.805-.293zm-8.153 7.656c-.45.045-.892.089-1.323.13l2.988-9.991 1.037-.053zm-.67-6.624-5.235.358.99-3.307c.86-.032 2.763-.105 5.193-.22zm-5.636 1.698 5.235-.358-.414 1.385-5.285.522zm-.87 2.905 5.285-.522-.838 2.804c-2.005.18-3.773.315-5.254.415zm44.635-4.682.684-2.489 3.453-.89-.674 2.417c-1.157.333-2.311.654-3.463.962zm4.543-4.837-3.459.893.319-1.159 3.517-1.084zm.796-2.85-3.525 1.087 1.004-3.652 3.528-1.044zm1.422-5.098-3.534 1.046.403-1.466 3.578-1.184zm.871-3.123-3.585 1.186.47-1.71c1.231-.224 2.4-.435 3.434-.62zm-32.534-10.709a19.38 19.38 0 0 1 1.317-.412c.607-.156 1.221-.28 1.841-.371v17.362c-.98.094-2.043.181-3.158.262zm11.872 8.205c-1.86.712-2.514 3.199-3.09 5.393a9.899 9.899 0 0 1-.766 2.282c-1.17.262-2.355.45-3.549.564v-17.382c8.915-.769 19.85 3.69 24.407 5.78-6.872 1.206-15.485 2.783-17.002 3.363zM196.34 49.404a2.318 2.318 0 0 1 2.544 1.977 2.005 2.005 0 0 1-1.442 1.77 3.03 3.03 0 0 1-1.252.193 3.084 3.084 0 0 1-1.223-.31l-.007-.003a1.901 1.901 0 0 1-1.165-1.65 2.318 2.318 0 0 1 2.545-1.977zm-9.782 19.863c-1.068 1.211-1.99 2.257-2.944 2.516-2.298.504-4.7-.1-6.487-1.63a8.191 8.191 0 0 0 7.278-2.998l.928-1.255-1.546.218c-2.038.289-7.987.602-8.586-1.657a1.704 1.704 0 0 1 .164-1.568 2.269 2.269 0 0 1 1.317-.668c-.025.263.01.528.102.776a2.958 2.958 0 0 0 2.534 1.656c1.053.144 4.765.212 8.362-4.807 2.82-3.934 4.68-4.681 5.538-4.776.27-.037.546-.004.8.097v2.276a10.17 10.17 0 0 0-1.85-.176c.663.453 1.282.966 1.85 1.534v1.849a6.809 6.809 0 0 0-1.468-.717s.817 1.278 1.468 2.604v1.822c-3.625.555-5.742 2.956-7.46 4.904zm8.77-3.728V54.547l.009.002c.122.028.247.05.373.068l.06.008c.127.017.254.027.383.032l.053.002c.044.001.089.004.133.004.05 0 .1-.005.149-.007a5.72 5.72 0 0 0 .185-.008c.078-.006.154-.015.231-.025.042-.005.084-.007.125-.013v26.846l-.589.457-1.113.862zM174.22 101.9a.438.438 0 0 1-.7-.403.438.438 0 0 1 .164-.294l20.332-15.756v.002l3.078-2.387 17.707-13.722a.435.435 0 0 1 .607.069l.316.377a.443.443 0 0 1-.071.632l-8.233 6.256-14.081 10.698-.005.004-15.131 11.496v.002zm-1.816 19.846a75.985 75.985 0 0 1 6.965-22.114l2.14-1.626c-1.954 5.927-6.64 23.138-.284 36.198.366.83 1.604.227 1.177-.573-7.036-14.457.228-34.982.998-37.062l2.85-2.166c-1.168 4.085-3.253 14.075-.98 28.013a.655.655 0 1 0 1.293-.211c-2.704-16.577.977-27.71 1.505-29.183l4.485-3.408c-1.128 4.229-3.402 14.796-1.468 25.541a.655.655 0 1 0 1.288-.231c-2.267-12.6 1.399-24.97 1.92-26.632l6.415-4.874c-2.303 5.493-7.208 19.75-4.069 35.552.17.857 1.456.6 1.285-.256-3.732-18.782 4.167-35.344 4.968-36.955l6.465-4.912.1-.076c-3.894 7.928-10.248 24.291-7.853 35.933 3.06 17.015 15.294 26.073 22.056 29.867-5.098-2.302-15.985-6.546-25.022-5.519-.93.103-1.85.272-2.757.504-.657.18-1.286.385-1.868.609-10.006 3.84-10.008 13.97-9.606 17.876-10.13-7.584-14.168-19.114-12.003-34.296zm21.188 18.016v16.402c-2.52.166-5.23.3-7.813.409-.43-2.836-1.21-12.724 7.813-16.812zM145.987 22.997c1.498 0 2.763.853 2.763 1.864a1.817 1.817 0 0 1-1.193 1.527 3.809 3.809 0 0 1-2.411.245c-.09-.02-.18-.042-.27-.068-.986-.299-1.648-.984-1.648-1.704 0-1.011 1.264-1.864 2.76-1.864zm-6.164 4.865a5.863 5.863 0 0 1 4.209.753v4.96a10.415 10.415 0 0 0-4.272.626l-.012-.022-.558.27c-.11.053-.217.109-.324.167l-.1.057c-.07.04-.14.079-.207.12l-.11.07a8.022 8.022 0 0 0-.289.191l-.163.118-.104.079c-.053.04-.105.081-.155.123l-.095.078-.15.133-.083.073a5.87 5.87 0 0 0-.16.154l-.058.056a5.83 5.83 0 0 0-.204.214l-.006.007a6.38 6.38 0 0 0-.182.208l-.054.066c-.041.05-.082.1-.12.15l-.06.078a4.57 4.57 0 0 0-.103.14c-.02.026-.038.053-.057.08l-.093.135-.052.08a3.88 3.88 0 0 0-.086.136l-.046.075a7.293 7.293 0 0 0-.083.144l-.036.062a7.135 7.135 0 0 0-.093.173l-.015.028a8.309 8.309 0 0 0-.101.203 60.671 60.671 0 0 1-1.978-4.411c1.758-3.212 3.776-5.087 6-5.575zm2.116 13.633c-.026.018-.052.039-.079.057-.09.06-.181.115-.273.165-.03.016-.06.028-.09.043a3.213 3.213 0 0 1-.191.09l-.117.044a2.61 2.61 0 0 1-.462.124l-.126.02c-.06.007-.12.01-.18.014-.038.002-.075.005-.113.006a2.614 2.614 0 0 1-.504-.044 4.864 4.864 0 0 1-2.941-2.237l-.002-.001a9.184 9.184 0 0 1-.244-.386l.005-.019.024-.086.008-.027c.011-.04.025-.082.04-.126l.012-.037.046-.132.008-.023c.02-.052.04-.107.064-.164l.018-.044c.023-.056.046-.112.071-.167l.008-.019c.028-.061.06-.125.091-.19l.026-.051c.034-.067.068-.133.104-.198l.007-.013a6.35 6.35 0 0 1 .12-.204l.035-.058c.044-.07.09-.142.14-.214l.016-.024c.045-.065.093-.13.143-.197l.046-.06a5.87 5.87 0 0 1 .174-.216l.032-.036c.054-.063.11-.125.169-.187l.057-.06c.068-.07.139-.14.213-.21l.048-.043a6.91 6.91 0 0 1 .2-.173l.066-.055c.083-.067.17-.132.259-.197l.061-.042c.078-.055.158-.108.24-.16l.048-.03c.613 1.122 1.988 3.655 2.883 5.448a3.845 3.845 0 0 1-.16.119zm.318 3.911c-.67 1.083-2.003 1.664-3.853 1.68a24.386 24.386 0 0 1-7.224-1.396 17.65 17.65 0 0 0-5.667-1.108 3.983 3.983 0 0 0-3.415 2.19 2.065 2.065 0 0 0 .189 2.198c.443.557 1.38 1.116 3.37.96a3.958 3.958 0 0 1-3.13 1.46 4.044 4.044 0 0 1-3.308-1.831 5.86 5.86 0 0 1-.494-5.443c1.047-2.856 3.096-4.173 6.672-4.173.886.007 1.77.072 2.647.197 2.63.358 5.278.575 7.931.65l.007.01.069.09c.048.064.096.128.145.19l.086.103c.045.054.09.109.136.161.031.036.063.07.095.105.044.05.088.098.133.146l.101.102.134.133c.035.034.071.066.106.098a6.666 6.666 0 0 0 .495.413l.14.102.114.08c.168.112.342.217.52.312l.149.075c.039.019.077.038.116.055.051.024.102.045.153.066l.115.047a5 5 0 0 0 .158.057l.112.038c.055.018.11.032.166.048l.106.029c.061.015.123.027.184.04l.088.018a3.652 3.652 0 0 0 .664.059l.022.002c.027 0 .054-.004.08-.004.097-.002.193-.007.288-.016l.12-.014c.09-.011.178-.026.266-.043l.125-.027c.087-.02.173-.043.258-.07l.122-.038c.089-.03.177-.064.263-.101.036-.015.073-.029.108-.045.107-.048.212-.1.316-.158l.046-.024c.112-.063.223-.131.332-.205a3.653 3.653 0 0 1-.356 2.782zm1.43-3.71.02-.018-.208-.427-.395-.812-.006.007a207.336 207.336 0 0 0-2.699-5.084 9.318 9.318 0 0 1 3.633-.473v8.444a5.442 5.442 0 0 0-.344-1.636zm1.654 11.299V27.998c.031.004.062.004.094.007.148.016.296.026.444.029.036 0 .072.004.108.004a5.285 5.285 0 0 0 1.173-.134l.027-.005v24.736l-.38.074zm-20.762 6.657a.627.627 0 0 1-.731-.473.614.614 0 0 1 .48-.731l22.684-4.445 1.485-.29 25.685-5.033a.615.615 0 0 1 .718.473l.059.25a.617.617 0 0 1-.484.741l-18.96 3.613-.016.003-4.82.919-.02.003-4.664.89-1.13.214-6.807 1.297-.013.002-9.434 1.797-.092.02zm4.453.484 3.012-.574c-1.196 1.596-2.963 4.292-3.387 6.778a.655.655 0 0 0 1.29.221c.514-3.008 3.39-6.57 4.067-7.374l2.806-.535c-1.153 1.894-3.185 5.494-3.792 8.278-.226.878 1.12 1.172 1.279.279.7-3.21 3.58-7.82 4.269-8.892l2.812-.535a32.69 32.69 0 0 0-3.192 10.76.655.655 0 0 0 1.305.1c.374-4.841 2.878-9.954 3.505-11.168l2.192-.418a35.352 35.352 0 0 0-1.747 10.662c.016.35.304.625.654.625h.03a.655.655 0 0 0 .624-.684c-.186-4.12 1.444-9.47 1.902-10.882l3.196-.609a29.226 29.226 0 0 0-1.104 10.973.655.655 0 0 0 1.302-.143 28.525 28.525 0 0 1 1.262-11.108l1.317-.251 2.064-.393c-.736 3.016-2.544 11.9.333 16.699.443.773 1.597.08 1.123-.674-2.806-4.68-.56-14.255-.035-16.296l4.304-.82c-.882 2.402-2.719 8.175-1.794 12.436.175.87 1.482.586 1.28-.278-.975-4.492 1.431-10.956 2.024-12.446l7.882-1.501c-2.1 2.64-6.076 8.641-6.076 16.225 0 8.443 8.974 16.024 12.437 18.635l-3.852.571c-2.556-3.31-13.239-12.027-23.9-12.027h-.184l-.022-.002c-.01 0-.019.003-.029.003-.857.005-1.713.072-2.56.202-.579.102-1.143.22-1.676.348l-.501.126v.006c-4.54 1.2-7.807 3.454-9.716 6.704a15.7 15.7 0 0 0-1.592 10.611l-1.67.249c-16.229-19.43-3.004-32.458-1.442-33.88zm4.41 33.438a14.549 14.549 0 0 1 1.422-9.754c1.682-2.862 4.568-4.882 8.587-6.01v6.549h-3.097l-.06.589c-.014.143-.329 3.53 1.662 5.732a5.145 5.145 0 0 0 1.935 1.339c-3.769.56-7.355 1.094-10.448 1.556zm14.12-9.215h-2.802V77.48c.359-.08.72-.152 1.081-.217a16.27 16.27 0 0 1 1.721-.167zm1.31 1.31v-.001h2.512a6.45 6.45 0 0 1-1.352 4.138 5.319 5.319 0 0 1-7.1 0 6.45 6.45 0 0 1-1.353-4.138h1.871v.002zm2.136 5.01c1.99-2.2 1.676-5.588 1.662-5.731l-.06-.59h-3.739v-7.267c9.366.234 18.936 7.576 21.934 10.931l-9.851 1.463-10.282 1.526c.116-.106.23-.213.337-.331zm-27.263 6.98c-1.24.13-1.69-.164-1.705-.28-.029-.22.46-.825 1.543-.998.438-.072 2.942-.452 6.72-1.015l2.73-.407c7.747-1.157 18.87-2.807 28.113-4.18l10.976-1.63 1.238-.183 3.05-.452.508-.076.009-.002.01-.001.957-.144.07-.011c.268-.044.54-.068.811-.071.296-.035.596.033.848.192.033.029.102.088.098.292-.015.728-1.13.933-1.13.933zm-7.537 35.53c-1.37-17.15 9.664-32.76 11.115-34.729l3.277-.48c-2.98 5.538-14.68 28.934-7.472 42.5.42.736 1.531.145 1.156-.615-7.29-13.723 6.33-39.206 7.941-42.123l3.29-.482c-1.485 3.178-5.626 12.589-6.929 21.3a.655.655 0 0 0 1.295.193c1.417-9.472 6.277-19.83 7.192-21.721l3.65-.535c-1.4 3.948-6.22 18.075-6.71 26.964-.02.361.257.67.618.69l.037.001a.655.655 0 0 0 .653-.619c.506-9.192 5.95-24.684 6.871-27.25l4.711-.69c-1.59 4.375-7.41 21.758-6.519 39.487a.655.655 0 0 0 .653.622h.034a.655.655 0 0 0 .62-.687c-.937-18.638 5.658-36.914 6.688-39.64l5.812-.85a41.869 41.869 0 0 0-4.814 19.036.655.655 0 0 0 .65.66h.005c.36 0 .652-.29.655-.649a40.737 40.737 0 0 1 5.148-19.288l6.465-.947c-2.784 3.859-9.922 16.27-8.519 40.618.02.346.306.617.653.617l.039-.001a.654.654 0 0 0 .616-.691c-1.558-27.03 7.807-39.28 9.087-40.818l5.539-.812c-3.253 4.577-13.26 20.925-9.462 44.281a.655.655 0 0 0 1.293-.21c-4.146-25.486 8.473-42.406 10-44.339l2.528-.37 2.914-.426c-3.603 4.423-11.262 16.604-12.083 29.465v.008c-.973 18.494 8.373 32.127 11.575 36.222-1.632.042-2.648.061-2.696.062l-.647.012-.399 1.399a206.102 206.102 0 0 0-19.965-8.307 22.461 22.461 0 0 0-3.399-.884v-.013l-.557-.083c-1.67-.263-3.37-.28-5.045-.049l-.56.082v.01c-5.886 1.081-9.75 5.549-10.135 11.786-.412 6.707 4.438 11.34 7.448 13.548l-.782.016c-13.485-10.06-22.27-25.444-23.534-41.27zm7.12 41.497.122-3.468c1.05 1.127 2.08 2.274 3.086 3.44-1.07.011-2.139.02-3.208.028zM91.323 93.9l.07-.007c.45-.05.903-.075 1.356-.077h.05a14.195 14.195 0 0 1 1.357.08l.061.006v5.875h-2.894zm4.203 7.187h2.382c-.148 1.4-.783 4.621-3.494 5.557l-1.32.198-.474.072a4.474 4.474 0 0 1-3.289-1.282 7.614 7.614 0 0 1-1.77-4.545h7.966zm3.737-.654v-.655h-3.737V94.12c4.695 1.014 9.484 4.543 13.941 10.271l-12.179 1.823a9.865 9.865 0 0 0 1.975-5.782zM92.88 41.73c1.408 0 2.554.867 2.554 1.934a1.922 1.922 0 0 1-1.276 1.67 3.278 3.278 0 0 1-2.618-.036 2.59 2.59 0 0 1-.31-.171l-.006-.003a1.777 1.777 0 0 1-.893-1.46c0-1.066 1.144-1.934 2.55-1.934zM80.22 59.164c-.547.268-1.09.542-1.633.815-4.466 2.25-8.683 4.375-12.964 2.21a8.588 8.588 0 0 0-3.89-1.019 6.473 6.473 0 0 0-2.725.592c1.476-2.47 3.544-2.63 9.553-1.734 7.168 1.071 9.685-3.223 9.79-3.406l.841-1.49-1.621.547c-.071.023-7.076 2.347-10.526.073a12.21 12.21 0 0 0-7.195-2.077 6.764 6.764 0 0 1 7.221-.979c6.813 3.372 9.528 1.262 14.548-3.44a6.96 6.96 0 0 1 8.6-1.226v9.873a16.38 16.38 0 0 0-9.999 1.261zm11.31 11.707v-24.17l.055.016a4.34 4.34 0 0 0 .858.167l.163.014.136.004c.046.001.093.005.14.005l.02-.001c.29-.002.58-.031.866-.086v23.345l-1.493.472zm-20.37 9.163a.762.762 0 0 1 .124-1.399l21.382-6.748 2.41-.76 20.171-6.368a.764.764 0 0 1 .587.054.765.765 0 0 1 .263.234.655.655 0 0 0-.115.085c-.023.02-.552.518-1.357 1.453L72.19 79.946l-.446.14a.756.756 0 0 1-.583-.053zm2.03.97 2.555-.803a21.362 21.362 0 0 0-1.332 8.667c.01.354.3.636.654.636h.02a.655.655 0 0 0 .635-.673c-.154-5.462 1.273-8.383 1.724-9.165l2.72-.857a23.038 23.038 0 0 0-.764 9.405.655.655 0 0 0 1.292-.209 22.743 22.743 0 0 1 .986-9.672l3.13-.986a21.84 21.84 0 0 0-.654 8.933.655.655 0 1 0 1.299-.162 19.96 19.96 0 0 1 .905-9.259l3.785-1.192a14.662 14.662 0 0 0-.26 4.864c.029.339.312.6.652.6l.055-.001a.655.655 0 0 0 .599-.707c-.274-3.315.295-4.804.52-5.249l5.448-1.716a29.067 29.067 0 0 0-1.23 12.567.655.655 0 0 0 1.301-.147 27.264 27.264 0 0 1 1.52-12.92l5.067-1.596c-.946 2.74-2.9 9.413-1.967 15.55.145.844 1.407.653 1.295-.196-1.016-6.678 1.664-14.306 2.244-15.85l7.753-2.44a37.052 37.052 0 0 0-7.101 17.504c-1.263 10.08 3.8 15.882 6.232 18.042l-1.326.198c-4.856-6.43-10.17-10.351-15.422-11.386v-.012l-.552-.087c-1.245-.2-2.512-.23-3.765-.089l-.108.011-.024.004c-.172.021-.343.046-.514.074l-.014.003-.535.088v.012a14.646 14.646 0 0 0-6.243 3.037 13.36 13.36 0 0 0-2.437 2.54c-3.495 4.85-1.463 8.574-.087 10.25l-1.244.187c-12.532-9.437-7.62-25.448-6.811-27.797Zm9.205 18.127a12.013 12.013 0 0 1 2.197-2.287 13.44 13.44 0 0 1 5.42-2.715v5.65h-3.78l-.012.642c-.003.156-.047 3.863 2.171 6.124a5.44 5.44 0 0 0 1.078.847l-6.667.995c-.868-.795-4.03-4.228-.407-9.256zM71.41 113.028a.661.661 0 0 1-.756-.566l-.035-.277a.66.66 0 0 1 .556-.74l8.485-1.269.136-.02 12.919-1.933h.002c.116 0 .229-.008.343-.014.054-.003.11-.002.165-.007a7.54 7.54 0 0 0 .516-.057c.043-.007.085-.017.129-.024.124-.022.249-.043.37-.072.067-.015.13-.035.196-.052.086-.023.173-.043.257-.07l22.764-3.406a.679.679 0 0 1 .766.56.666.666 0 0 1-.554.745l-2.289.355-.606.004v.094l-6.84 1.065c-.01 0-.021.003-.032.004zm-3.246 29.111a46.123 46.123 0 0 1 6.33-28.264l3.585-.558c-2.099 5.102-9.914 26.27-.832 38.878.518.658 1.522-.066 1.062-.765-9.113-12.652.03-35.37 1.293-38.35l4.883-.76c-1.683 4.464-7.41 21.562-1.643 33.93.348.846 1.61.257 1.186-.553-5.849-12.547.898-30.906 1.953-33.61l4.404-.686c-1.401 4.036-5.82 18.847-.863 32.905.279.847 1.55.399 1.235-.436-5.168-14.657.174-30.21 1.1-32.698l6.536-1.018c-1.074 3.412-4.296 14.547-3.67 23.504.024.343.309.61.653.61.015 0 .03 0 .046-.002a.655.655 0 0 0 .607-.699c-.649-9.268 3.078-21.365 3.813-23.638l6.704-1.044a32.034 32.034 0 0 0-4.476 10.441.655.655 0 1 0 1.277.29 30.589 30.589 0 0 1 5.003-11.012l5.174-.806c-2.921 3.22-8.955 11.773-7.485 26.31 1.54 13.12 10.429 26.438 16.732 34.434l-.072-.003c-9.563-9.796-19.021-15.582-26.759-16.377v-.012l-.596-.042c-.579-.04-1.16-.051-1.739-.032a14.202 14.202 0 0 0-3.765.605l-.46.143v.028c-2.987 1.15-4.89 2.984-5.658 5.463-1.23 3.974.795 8.69 2.442 11.61-5.07-4.018-16.713-14.583-18-27.786zm16.809 16.562a7.239 7.239 0 0 1 4.407-4.437v17.197l-.77-.086c-1.187-1.743-5.089-7.983-3.637-12.674zM75.586 169.8l-23.77-15.173-.01-.007.837.035.083.001c.025 0 .05-.005.074-.006a1.87 1.87 0 0 0 .168-.013c.048-.006.095-.011.142-.02.057-.01.111-.025.166-.04.226-.061.44-.159.635-.29.02-.013.04-.025.06-.04.079-.057.154-.12.224-.187.013-.012.025-.026.038-.04.035-.035.07-.069.103-.106l27.09 16.617c-2.012-.245-3.966-.49-5.84-.731zM16.89 151.63a.8.8 0 0 1-.209-.587.81.81 0 0 1 .805-.761h.032l26.604.984.813.03 7.834.29a.808.808 0 0 1 .777.889l-.012.133a.813.813 0 0 1-.837.739l-3.26-.135h-.001l-.587-.024-1.837-.076-26.726-1.1-1.503-.062-1.33-.057a.796.796 0 0 1-.563-.263zm25.558 16.271c-4.59-2.854-8.938-5.557-12.956-5.557-.185 0-.37.006-.556.018a7.737 7.737 0 0 0-5.489 2.688 9.827 9.827 0 0 0-2.02 5.395c-4.185-5.872-2.626-14.925-2.153-17.165l21.736.895 8.197.338 1.223.781a11.601 11.601 0 0 0-2.23 11.26c1.891 6.617 10.32 7.038 12.823 7.02.09.19.183.377.278.562-6.432 1.484-12.741-2.435-18.853-6.235zm20.66 5.91c3.858 2.644 9.173 4.818 16.352 6.621a38.8 38.8 0 0 0 1.775 6.557c-3.794-1.203-13.63-5.005-18.127-13.178zm153.812 26.85a345.136 345.136 0 0 1-45.876 9.737c-23.285 3.235-55.008 4.648-73.903-6.987a37.746 37.746 0 0 1-5.179-3.816c10.583 3.88 25.396 5.829 44.27 5.829 8.5 0 17.82-.396 27.957-1.187 26.55-2.075 49.015-6.256 49.239-6.298l.51-.096.023-.518c.622-13.89 4.649-21.403 7.609-25.102a50.62 50.62 0 0 0-4.65 28.438zm9.554-36.733c-.575.178-1.15.353-1.726.524l4.44-15.913 1.37-.246z" style="fill:#7b2c19"/><path id="path50" d="M210.091 222.19a124.335 124.335 0 0 1-14.29 10.773 46.334 46.334 0 0 0-6.082.115c-8 .73-11.274 3.755-12.583 6.464a8.378 8.378 0 0 0-.832 3.717q-3.94 1.662-8.017 3.046a24.62 24.62 0 0 1-7.373-.932c-4.245-1.282-7.903-4.004-13.783-8.84-10.542-8.673-18.368-7.145-29.93 2.378-11.563 9.524-19.212 7.312-30.095-1.53-5.985-4.862-13.202-4.378-18.485-2.957a33.782 33.782 0 0 0-3.922 1.318 124.625 124.625 0 0 1-15.278-10.596 50.559 50.559 0 0 1 2.718-1.807c4.857-2.993 10.386-5.138 15.921-4.662 15.816 1.362 11.226 5.95 21.765 11.22 13.095 6.124 20.065-1.19 28.567-8.842 8.505-7.652 22.449-7.652 31.798 1.702 9.354 9.355 14.797 10.371 23.977 8.333 9.183-2.043 12.073-12.413 23.127-12.754a20.48 20.48 0 0 1 10.027 2.138 19.164 19.164 0 0 1 2.77 1.716Z" class="cls-4"/><path id="path52" d="M233.833 194.445a124.719 124.719 0 0 1-9.62 13.273 72.2 72.2 0 0 0-3.167-1.062c-6.23-1.94-15.283-3.84-22.054-1.413-11.392 4.08-10.2 14.116-28.055 14.116-8.842 0-15.304-6.464-18.704-10.376s-10.885-9.52-23.13-7.48c-14.11 2.552-17.679 16.494-30.264 17.175-11.632.627-13.819-.922-22.81-8.68a23.282 23.282 0 0 0-17.377-5.653 40.425 40.425 0 0 0-19.075 7.467 30.5 30.5 0 0 0-2.422 1.971 124.955 124.955 0 0 1-11.176-13.63 54.22 54.22 0 0 1 2.498-1.855c5.952-4.163 15.954-9.41 27.51-8.359 18.706 1.703 13.944 16.154 35.54 16.154 21.594 0 20.746-20.234 41.318-20.234 20.575 0 23.127 15.813 37.41 19.553 14.285 3.74 22.448-4.08 30.438-11.392 5.834-5.335 21.635-4.966 30.405-1.065a17.597 17.597 0 0 1 2.735 1.49Z" class="cls-4"/><path id="path54" d="M221.046 206.656c-6.231-1.94-15.283-3.84-22.055-1.413-11.392 4.08-10.199 14.116-28.055 14.116-8.842 0-15.303-6.464-18.703-10.376s-10.885-9.52-23.13-7.48c-14.11 2.552-17.68 16.494-30.264 17.175-11.633.627-13.82-.921-22.81-8.68a23.282 23.282 0 0 0-17.378-5.653 40.425 40.425 0 0 0-19.074 7.467l-1.485 1.776 13.21 11.59.838-1.838c4.856-2.993 10.386-5.138 15.92-4.662 15.816 1.362 11.226 5.95 21.766 11.22 13.094 6.124 20.065-1.19 28.567-8.842 8.504-7.652 22.448-7.652 31.798 1.703 9.354 9.354 14.796 10.37 23.976 8.332 9.183-2.043 12.073-12.413 23.128-12.754a20.48 20.48 0 0 1 10.027 2.138l4.631 1.293 12.165-13.18Z" class="cls-1"/><path id="path56" d="M218.509 37.491A127.999 127.999 0 1 0 37.49 218.51 127.999 127.999 0 1 0 218.51 37.49Zm-11.187 182.984a122.05 122.05 0 0 1-30.185 19.067 121.778 121.778 0 0 1-108.516-5.118 121.907 121.907 0 1 1 138.7-13.95Z" class="cls-2"/></svg>