<svg xmlns="http://www.w3.org/2000/svg" id="Layer_1" width="510.02" height="540.38" data-name="Layer 1" version="1.1"><defs id="defs1267"><clipPath id="clippath"><path id="path1264" fill="none" stroke-width="0" d="M448.55 289.48c20.55-17.14 20.41-20.32 20.15-23.53-7.28-90.12-87.16-157.34-178.42-150.15-26.15 2.06-65.37 13.2-107.11 39.59l265.37 134.09z"/></clipPath><style id="style1262">.cls-3{fill:none;stroke-miterlimit:10}.cls-6,.cls-7,.cls-8{stroke-width:0}.cls-6{fill:#3b0000}.cls-7{fill:#e6a35a}.cls-8{fill:red}.cls-3{stroke:#3b0000;stroke-width:20.82px}</style></defs><g id="g1613" transform="translate(-44.98 -30.19)"><g id="g1567"><g id="g1503"><g id="g1275"><path id="path1271" fill="red" stroke-width="0" d="M296.5 473.09c-46.44 0-90.9-17.37-125.21-48.9a184.65 184.65 0 0 1-59.28-121.64c-8.13-101.83 68.11-191.29 169.94-199.42a184.62 184.62 0 0 1 140.14 48.3 184.65 184.65 0 0 1 59.28 121.64c3.94 49.33-11.57 97.24-43.67 134.91s-76.94 60.58-126.27 64.51c-4.96.4-9.98.6-14.93.6" class="cls-8"/><path id="path1273" fill="#3b0000" stroke-width="0" d="M296.89 112.95c90.27 0 166.81 69.42 174.11 160.96 7.68 96.27-64.13 180.53-160.39 188.22-4.73.38-9.44.56-14.1.56-90.27 0-166.81-69.42-174.11-160.96-7.68-96.27 64.13-180.53 160.39-188.22 4.73-.38 9.44-.56 14.1-.56m0-20.82v20.82zc-5.24 0-10.54.21-15.77.63a195.07 195.07 0 0 0-133.37 68.14 195.2 195.2 0 0 0-46.13 142.48 195 195 0 0 0 62.61 128.47 194.99 194.99 0 0 0 148.01 51.01 195.07 195.07 0 0 0 133.37-68.14 195.2 195.2 0 0 0 46.13-142.48 195.02 195.02 0 0 0-62.61-128.47 194.99 194.99 0 0 0-132.25-51.64z" class="cls-6"/></g><ellipse id="ellipse1277" cx="305.23" cy="277.44" fill="#e6a35a" stroke-width="0" class="cls-7" rx="164" ry="164.48"/><path id="path1279" fill="red" stroke-width="0" d="M449.87 285.79a187.38 187.38 0 0 1-17.56 95.55c25.78-31.7 39.91-73 36.41-116.99-7.21-90.55-86.24-158.1-176.52-150.87-2.39.19-4.75.46-7.11.75 86.97 10.15 157.56 80.7 164.79 171.56z" class="cls-8"/><g id="g1493" clip-path="url(#clippath)"><g id="g1385"><g id="g1331"><circle id="circle1281" cx="301.46" cy="98.39" r="3.82" fill="red" stroke-width="0" class="cls-8"/><circle id="circle1283" cx="318.09" cy="107.39" r="3.82" fill="red" stroke-width="0" class="cls-8"/><circle id="circle1285" cx="334.71" cy="116.39" r="3.82" fill="red" stroke-width="0" class="cls-8"/><circle id="circle1287" cx="351.34" cy="125.4" r="3.82" fill="red" stroke-width="0" class="cls-8"/><circle id="circle1289" cx="367.97" cy="134.4" r="3.82" fill="red" stroke-width="0" class="cls-8"/><circle id="circle1291" cx="275.83" cy="106.01" r="3.82" fill="red" stroke-width="0" class="cls-8"/><circle id="circle1293" cx="292.46" cy="115.01" r="3.82" fill="red" stroke-width="0" class="cls-8"/><circle id="circle1295" cx="309.08" cy="124.02" r="3.82" fill="red" stroke-width="0" class="cls-8"/><circle id="circle1297" cx="325.71" cy="133.02" r="3.82" fill="red" stroke-width="0" class="cls-8"/><circle id="circle1299" cx="342.34" cy="142.02" r="3.82" fill="red" stroke-width="0" class="cls-8"/><circle id="circle1301" cx="358.96" cy="151.03" r="3.82" fill="red" stroke-width="0" class="cls-8"/><circle id="circle1303" cx="250.2" cy="113.63" r="3.82" fill="red" stroke-width="0" class="cls-8"/><circle id="circle1305" cx="266.83" cy="122.64" r="3.82" fill="red" stroke-width="0" class="cls-8"/><circle id="circle1307" cx="283.45" cy="131.64" r="3.82" fill="red" stroke-width="0" class="cls-8"/><circle id="circle1309" cx="300.08" cy="140.64" r="3.82" fill="red" stroke-width="0" class="cls-8"/><circle id="circle1311" cx="316.71" cy="149.65" r="3.82" fill="red" stroke-width="0" class="cls-8"/><circle id="circle1313" cx="333.33" cy="158.65" r="3.82" fill="red" stroke-width="0" class="cls-8"/><circle id="circle1315" cx="349.96" cy="167.65" r="3.82" fill="red" stroke-width="0" class="cls-8"/><circle id="circle1317" cx="241.2" cy="130.26" r="3.82" fill="red" stroke-width="0" class="cls-8"/><circle id="circle1319" cx="257.82" cy="139.26" r="3.82" fill="red" stroke-width="0" class="cls-8"/><circle id="circle1321" cx="274.45" cy="148.27" r="3.82" fill="red" stroke-width="0" class="cls-8"/><circle id="circle1323" cx="291.08" cy="157.27" r="3.82" fill="red" stroke-width="0" class="cls-8"/><circle id="circle1325" cx="307.7" cy="166.27" r="3.82" fill="red" stroke-width="0" class="cls-8"/><circle id="circle1327" cx="324.33" cy="175.28" r="3.82" fill="red" stroke-width="0" class="cls-8"/><circle id="circle1329" cx="340.96" cy="184.28" r="3.82" fill="red" stroke-width="0" class="cls-8"/></g><g id="g1383"><circle id="circle1333" cx="384.59" cy="143.4" r="3.82" fill="red" stroke-width="0" class="cls-8"/><circle id="circle1335" cx="401.22" cy="152.41" r="3.82" fill="red" stroke-width="0" class="cls-8"/><circle id="circle1337" cx="417.85" cy="161.41" r="3.82" fill="red" stroke-width="0" class="cls-8"/><circle id="circle1339" cx="434.47" cy="170.41" r="3.82" fill="red" stroke-width="0" class="cls-8"/><circle id="circle1341" cx="451.1" cy="179.42" r="3.82" fill="red" stroke-width="0" class="cls-8"/><circle id="circle1343" cx="375.59" cy="160.03" r="3.82" fill="red" stroke-width="0" class="cls-8"/><circle id="circle1345" cx="392.22" cy="169.03" r="3.82" fill="red" stroke-width="0" class="cls-8"/><circle id="circle1347" cx="408.84" cy="178.04" r="3.82" fill="red" stroke-width="0" class="cls-8"/><circle id="circle1349" cx="425.47" cy="187.04" r="3.82" fill="red" stroke-width="0" class="cls-8"/><circle id="circle1351" cx="442.1" cy="196.04" r="3.82" fill="red" stroke-width="0" class="cls-8"/><circle id="circle1353" cx="458.72" cy="205.05" r="3.82" fill="red" stroke-width="0" class="cls-8"/><circle id="circle1355" cx="366.59" cy="176.66" r="3.82" fill="red" stroke-width="0" class="cls-8"/><circle id="circle1357" cx="383.21" cy="185.66" r="3.82" fill="red" stroke-width="0" class="cls-8"/><circle id="circle1359" cx="399.84" cy="194.66" r="3.82" fill="red" stroke-width="0" class="cls-8"/><circle id="circle1361" cx="416.47" cy="203.67" r="3.82" fill="red" stroke-width="0" class="cls-8"/><circle id="circle1363" cx="433.09" cy="212.67" r="3.82" fill="red" stroke-width="0" class="cls-8"/><circle id="circle1365" cx="449.72" cy="221.67" r="3.82" fill="red" stroke-width="0" class="cls-8"/><circle id="circle1367" cx="466.34" cy="230.68" r="3.82" fill="red" stroke-width="0" class="cls-8"/><circle id="circle1369" cx="357.58" cy="193.28" r="3.82" fill="red" stroke-width="0" class="cls-8"/><circle id="circle1371" cx="374.21" cy="202.29" r="3.82" fill="red" stroke-width="0" class="cls-8"/><circle id="circle1373" cx="390.84" cy="211.29" r="3.82" fill="red" stroke-width="0" class="cls-8"/><circle id="circle1375" cx="407.46" cy="220.29" r="3.82" fill="red" stroke-width="0" class="cls-8"/><circle id="circle1377" cx="424.09" cy="229.3" r="3.82" fill="red" stroke-width="0" class="cls-8"/><circle id="circle1379" cx="440.71" cy="238.3" r="3.82" fill="red" stroke-width="0" class="cls-8"/><circle id="circle1381" cx="457.34" cy="247.3" r="3.82" fill="red" stroke-width="0" class="cls-8"/></g></g><g id="g1491"><g id="g1437"><circle id="circle1387" cx="231.58" cy="147.3" r="3.82" fill="red" stroke-width="0" class="cls-8"/><circle id="circle1389" cx="248.2" cy="156.31" r="3.82" fill="red" stroke-width="0" class="cls-8"/><circle id="circle1391" cx="264.83" cy="165.31" r="3.82" fill="red" stroke-width="0" class="cls-8"/><circle id="circle1393" cx="281.46" cy="174.31" r="3.82" fill="red" stroke-width="0" class="cls-8"/><circle id="circle1395" cx="298.08" cy="183.32" r="3.82" fill="red" stroke-width="0" class="cls-8"/><circle id="circle1397" cx="205.95" cy="154.93" r="3.82" fill="red" stroke-width="0" class="cls-8"/><circle id="circle1399" cx="222.57" cy="163.93" r="3.82" fill="red" stroke-width="0" class="cls-8"/><circle id="circle1401" cx="239.2" cy="172.93" r="3.82" fill="red" stroke-width="0" class="cls-8"/><circle id="circle1403" cx="255.83" cy="181.94" r="3.82" fill="red" stroke-width="0" class="cls-8"/><circle id="circle1405" cx="272.45" cy="190.94" r="3.82" fill="red" stroke-width="0" class="cls-8"/><circle id="circle1407" cx="289.08" cy="199.94" r="3.82" fill="red" stroke-width="0" class="cls-8"/><circle id="circle1409" cx="180.32" cy="162.55" r="3.82" fill="red" stroke-width="0" class="cls-8"/><circle id="circle1411" cx="196.94" cy="171.55" r="3.82" fill="red" stroke-width="0" class="cls-8"/><circle id="circle1413" cx="213.57" cy="180.56" r="3.82" fill="red" stroke-width="0" class="cls-8"/><circle id="circle1415" cx="230.2" cy="189.56" r="3.82" fill="red" stroke-width="0" class="cls-8"/><circle id="circle1417" cx="246.82" cy="198.56" r="3.82" fill="red" stroke-width="0" class="cls-8"/><circle id="circle1419" cx="263.45" cy="207.57" r="3.82" fill="red" stroke-width="0" class="cls-8"/><circle id="circle1421" cx="280.08" cy="216.57" r="3.82" fill="red" stroke-width="0" class="cls-8"/><circle id="circle1423" cx="171.31" cy="179.18" r="3.82" fill="red" stroke-width="0" class="cls-8"/><circle id="circle1425" cx="187.94" cy="188.18" r="3.82" fill="red" stroke-width="0" class="cls-8"/><circle id="circle1427" cx="204.57" cy="197.18" r="3.82" fill="red" stroke-width="0" class="cls-8"/><circle id="circle1429" cx="221.19" cy="206.19" r="3.82" fill="red" stroke-width="0" class="cls-8"/><circle id="circle1431" cx="237.82" cy="215.19" r="3.82" fill="red" stroke-width="0" class="cls-8"/><circle id="circle1433" cx="254.45" cy="224.19" r="3.82" fill="red" stroke-width="0" class="cls-8"/><circle id="circle1435" cx="271.07" cy="233.2" r="3.82" fill="red" stroke-width="0" class="cls-8"/></g><g id="g1489"><circle id="circle1439" cx="314.71" cy="192.32" r="3.82" fill="red" stroke-width="0" class="cls-8"/><circle id="circle1441" cx="331.34" cy="201.32" r="3.82" fill="red" stroke-width="0" class="cls-8"/><circle id="circle1443" cx="347.96" cy="210.33" r="3.82" fill="red" stroke-width="0" class="cls-8"/><circle id="circle1445" cx="364.59" cy="219.33" r="3.82" fill="red" stroke-width="0" class="cls-8"/><circle id="circle1447" cx="381.22" cy="228.33" r="3.82" fill="red" stroke-width="0" class="cls-8"/><circle id="circle1449" cx="305.71" cy="208.95" r="3.82" fill="red" stroke-width="0" class="cls-8"/><circle id="circle1451" cx="322.33" cy="217.95" r="3.82" fill="red" stroke-width="0" class="cls-8"/><circle id="circle1453" cx="338.96" cy="226.95" r="3.82" fill="red" stroke-width="0" class="cls-8"/><circle id="circle1455" cx="355.59" cy="235.96" r="3.82" fill="red" stroke-width="0" class="cls-8"/><circle id="circle1457" cx="372.21" cy="244.96" r="3.82" fill="red" stroke-width="0" class="cls-8"/><circle id="circle1459" cx="388.84" cy="253.96" r="3.82" fill="red" stroke-width="0" class="cls-8"/><circle id="circle1461" cx="296.7" cy="225.57" r="3.82" fill="red" stroke-width="0" class="cls-8"/><circle id="circle1463" cx="313.33" cy="234.58" r="3.82" fill="red" stroke-width="0" class="cls-8"/><circle id="circle1465" cx="329.96" cy="243.58" r="3.82" fill="red" stroke-width="0" class="cls-8"/><circle id="circle1467" cx="346.58" cy="252.58" r="3.82" fill="red" stroke-width="0" class="cls-8"/><circle id="circle1469" cx="363.21" cy="261.59" r="3.82" fill="red" stroke-width="0" class="cls-8"/><circle id="circle1471" cx="379.83" cy="270.59" r="3.82" fill="red" stroke-width="0" class="cls-8"/><circle id="circle1473" cx="396.46" cy="279.59" r="3.82" fill="red" stroke-width="0" class="cls-8"/><circle id="circle1475" cx="287.7" cy="242.2" r="3.82" fill="red" stroke-width="0" class="cls-8"/><circle id="circle1477" cx="304.33" cy="251.2" r="3.82" fill="red" stroke-width="0" class="cls-8"/><circle id="circle1479" cx="320.95" cy="260.21" r="3.82" fill="red" stroke-width="0" class="cls-8"/><circle id="circle1481" cx="337.58" cy="269.21" r="3.82" fill="red" stroke-width="0" class="cls-8"/><circle id="circle1483" cx="354.21" cy="278.21" r="3.82" fill="red" stroke-width="0" class="cls-8"/><circle id="circle1485" cx="370.83" cy="287.22" r="3.82" fill="red" stroke-width="0" class="cls-8"/><circle id="circle1487" cx="387.46" cy="296.22" r="3.82" fill="red" stroke-width="0" class="cls-8"/></g></g></g><path id="path1495" fill="none" stroke="#3b0000" stroke-miterlimit="10" stroke-width="20.82" d="M328.21 471.12s27.43-17.56 26.34-95.6c-.32-23.02-7.12-46.26-7.81-69.58-1.1-37.27 24.23-86.74 62.92-96.22 42.65-10.46 62.3 47.36 72.25 78.55" class="cls-3"/><path id="path1497" fill="none" stroke="#3b0000" stroke-miterlimit="10" stroke-width="20.82" d="M165.06 413.22s75.98-220.7 242.76-274.26" class="cls-3"/><path id="path1499" fill="none" stroke="#3b0000" stroke-miterlimit="10" stroke-width="20.82" d="M126.57 218.53s162.98 13.83 156.21-105.01" class="cls-3"/><path id="path1501" fill="none" stroke="#3b0000" stroke-miterlimit="10" stroke-width="20.82" d="M168.07 154.72s195.51 45.21 264.72 255.15" class="cls-3"/></g><g id="g1565"><path id="path1505" fill="red" stroke-width="0" d="m391.33 224.16 95.52 10.93s22.57 13.74 10.16 46.01l-113.33-30.5Z" class="cls-8"/><path id="path1507" fill="red" stroke-width="0" d="m489.49 251.54-53.7 78.1c-33.87 1.92-107.12 10.83-69 20.69 51.25 13.26 101.7 2.09 101.7 2.09l-1.97-37.81 30.5-33.51c7.77-15.67-7.53-29.56-7.53-29.56" class="cls-8"/><path id="path1509" fill="red" stroke-width="0" d="m73.96 240.14 31.43 19.61s-37.5 46.36-39.63 101.61l131.74-2.66s13.06 51.44 94.98 57.59L163.36 232.14l11.65-10.53-17.94 1.56h-19.11l-49.3 2.25-14.71 14.72z" class="cls-8"/><path id="path1511" fill="#3b0000" stroke-width="0" d="M485.57 280.36c11.81-12.31 3.92-28.81 3.92-28.81l-97.06-10.74s-14.2-32.6-51.24-37.89c0 0 2.7-19.49 21.85-37.14 0 0-36.19 1.74-63.29 20.32 0 0 5.34-27.02 21.79-49.59 0 0-67.01-7.9-109.35 87.91l-3.88 1.11-105.66 15.55 22.14 16.94c-13.9 14.82-34.17 43.71-42.78 92l123.72-4.18s3.61 56.89 86.74 70.45c0 0-18.65-34.33 58.72-68.23L453.76 342l-.2-30.65s10.19-7.83 32-31z" class="cls-6"/><path id="path1513" fill="red" stroke-width="0" d="m390.24 260.67-11.62-.92-4.47-10.89c-.9-1.89-11.31-22.68-35.78-26.17l-23.71-3.39c-18.97-1.11-30.96 3.04-37.55 6.55l-6.45 4.42 9.49-48.05c.12-.58 1.43-7.09 4.58-16.44-17.16 9.6-37.47 28.75-54.25 66.72l-4.04 9.14-53.79 12.46 41.8 19.39-53.68 16.98s9.08 46.11 98.27 29.59c0 0-50.55 44.58 13.95 71.01l.39-1.17c7.9-23.07 31.39-43.3 69.8-60.14l3.27-1.43 87.21-5.15-.08-11.68v-9.87l7.73-6.05c.12-.09 8.91-7.06 27.17-26.24l-78.25-8.66z" class="cls-8"/><path id="path1515" fill="#e6a35a" stroke-width="0" d="m343.18 329.76 3.27-1.43 87.21-5.15-.08-11.68v-9.87l7.73-6.05c.12-.09 8.91-7.06 27.17-26.24l-38.62-4.27-75.57 15.26-48.99 16.48s-61.63 32.02-32.31 94.26l.39-1.17c7.9-23.07 31.39-43.3 69.8-60.14" class="cls-7"/><path id="polyline1517" fill="#3b0000" stroke-width="0" d="m379.64 251.38-83.31-10.31 21.89 21.58-12.18 15.77 107.86-18.67" class="cls-6"/><path id="path1519" fill="#3b0000" stroke-width="0" d="M480.54 264.24s3.79 21.66-16.58 21.66c-20.37 0-14.21-21.66-14.21-21.66z" class="cls-6"/><path id="path1521" fill="#3b0000" stroke-width="0" d="m455.88 283.62-86.48 12.73s-9.33 5-14.29 13.62l85.64-2.99" class="cls-6"/><g id="g1527"><circle id="circle1523" cx="408.34" cy="277.74" r="2.68" fill="#3b0000" stroke-width="0" class="cls-6"/><circle id="circle1525" cx="414.57" cy="283.78" r="2.68" fill="#3b0000" stroke-width="0" class="cls-6"/></g><g id="g1533"><circle id="circle1529" cx="419.93" cy="275.65" r="2.68" fill="#3b0000" stroke-width="0" class="cls-6"/><circle id="circle1531" cx="426.17" cy="281.68" r="2.68" fill="#3b0000" stroke-width="0" class="cls-6"/></g><g id="g1539"><circle id="circle1535" cx="431.52" cy="273.58" r="2.68" fill="#3b0000" stroke-width="0" class="cls-6"/><circle id="circle1537" cx="437.76" cy="279.61" r="2.68" fill="#3b0000" stroke-width="0" class="cls-6"/></g><path id="polyline1541" fill="#3b0000" stroke-width="0" d="m355.11 309.97 71.06 3.21 7.43-11.57" class="cls-6"/><path id="path1543" fill="none" stroke="red" stroke-miterlimit="10" stroke-width="6" d="M332.08 244.5c-.29.9-.48 1.83-.48 2.83a9.37 9.37 0 1 0 18.74 0c0-.2-.05-.38-.06-.58"/><path id="path1545" fill="red" stroke-width="0" d="m274.27 318.27 20.62-1.43c-19.05 17.33-16.51 35.58-15.7 39.49a98.34 98.34 0 0 1 5.46-5.29c-.17-7.25 2.18-22.15 21.41-35.4l9.03-6.22-41.23 2.86.41 5.98z" class="cls-8"/><path id="path1547" fill="red" stroke-width="0" d="M299.75 186.09s30.57-22.4 68.1-15.79l15.83-7.91s-63.32-15.27-83.93 23.7" class="cls-8"/><path id="path1549" fill="red" stroke-width="0" d="M383.68 162.39s-17.6 16.8-19.84 34.69c0 0 32.57 9.18 28.58 43.73 0 0-15.75-32.06-51.24-37.89 0 0 1.4-29.69 24.33-40.12" class="cls-8"/><path id="path1551" fill="red" stroke-width="0" d="m73.96 240.14 14.71-14.72s78.37-3.74 105.21-8.21c0 0 47.34-94.31 127.66-80.7 0 0-69.79-2.16-109.35 87.91l-115 20.09-23.24-4.36z" class="cls-8"/><path id="path1553" fill="red" stroke-width="0" d="M297.03 386.84s24.32-26.51 64.58-28.75c0 0 61.68 2.06 106.88-5.68l-107.74-4.92-9.55.56s-36 4.91-54.17 38.78z" class="cls-8"/><path id="path1555" fill="red" stroke-width="0" d="M461.29 257.46h15.62s7.7 3.44 3.23 14.62l-9.06 4.19s9.39-15.53-9.78-18.8z" class="cls-8"/><path id="path1557" fill="red" stroke-width="0" d="M273.38 389.89s-49.74-8.3-34.43-67.01l24.26-7.27-6.71 24.6-1.8 19.66z" class="cls-8"/><path id="path1559" fill="#3b0000" stroke-width="0" d="M265.83 311.99a71.2 71.2 0 0 1 8.82-8.86c-7.36-.08-12.99-.12-14.55-.07-4.98.17-10.33.69-15.98 1.23-22.7 2.19-48.42 4.67-60.02-14.6l-5.89-10.24-7.75 4.46 5.94 10.31c10.02 16.66 27.36 20.47 45.04 20.47 7.99 0 16.05-.78 23.55-1.5 5.51-.53 10.73-1.03 15.43-1.2.73-.03 2.76-.02 5.41 0" class="cls-6"/><path id="polyline1561" fill="red" stroke-width="0" d="m79.09 332.88 78.39-4.82-71.72-20.66" class="cls-8"/><path id="polyline1563" fill="red" stroke-width="0" d="m110.4 276.97 36.52-4.82-33.41-20.66" class="cls-8"/></g></g><g id="g1611"><g id="g1583"><path id="path1569" fill="#e6a35a" stroke-width="0" d="m148.95 130-14.13-6.65-.6.59 10.28 10.44-6.34 6.23-29.02-29.49 9.42-9.27c4.88-4.8 11.92-3.73 17.65 2.09 4 4.07 5.54 8.71 4.23 12.35l15.7 6.62-7.19 7.08zm-26.25-21.27-1.76 1.73 8.76 8.9 1.67-1.64c1.93-1.89 1.35-4.53-1.3-7.23-2.82-2.87-5.58-3.53-7.37-1.76" class="cls-7"/><path id="path1571" fill="#e6a35a" stroke-width="0" d="m198.51 94.72-6.55-7.5-8.04 4.45 2.92 9.5-8.41 4.65-10.09-41.71 8.51-4.71 29.85 30.78-8.2 4.53zm-16.86-10.64 5.04-2.79-9.09-10.35 4.04 13.14z" class="cls-7"/><path id="path1573" fill="#e6a35a" stroke-width="0" d="m241.92 70.33 10.26-2.56 1.89 7.57-18.88 4.71-10.01-40.14 8.62-2.15z" class="cls-7"/><path id="path1575" fill="#e6a35a" stroke-width="0" d="m294.13 63.91 12.37.2-.13 7.81-21.26-.35.68-41.38 20.84.34-.13 7.81-11.95-.19-.15 9.19 10.57.17-.13 7.99-10.57-.17-.14 8.59z" class="cls-7"/><path id="path1577" fill="#e6a35a" stroke-width="0" d="m338.82 76.3 9.45-40.29 8.65 2.03-9.45 40.29z" class="cls-7"/><path id="path1579" fill="#e6a35a" stroke-width="0" d="m400.29 75.16 15.05 7.77c-7 13.56-16.2 16.98-23.41 13.27-8.43-4.35-9.85-15.63-4.37-26.25 5.48-10.62 15.63-16.13 24.01-11.81 4.06 2.09 7.14 6.73 7.59 11.62l-8.13 1.75c-.07-2.74-1.23-4.96-3.25-6.01-4.06-2.09-8.61 1.23-12.44 8.65-3.33 6.46-3.42 13.04.27 14.94 3.2 1.65 6.91-.42 8.65-3.78L397 81.56l3.31-6.4z" class="cls-7"/><path id="path1581" fill="#e6a35a" stroke-width="0" d="m470.78 101.76 6.46 6.1-28.42 30.08-6.46-6.1 11.38-12.05-5.2-4.91-11.38 12.05-6.46-6.1 28.42-30.08 6.46 6.1-11.55 12.23 5.2 4.91z" class="cls-7"/></g><g id="g1609"><path id="path1585" fill="#3b0000" stroke-width="0" d="M554.65 447.31a18.44 18.44 0 0 0-3.49-8.06l-.07-.09a16.03 16.03 0 0 0-12.61-6.29 84.16 84.16 0 0 0-2.92-5.12 440.66 440.66 0 0 0-3.6-5.75c-.23-.35-.43-.71-.62-1.07l-.05-1.51c-.04-1.17-.07-2.38-.08-3.56 0-.86-.09-1.72-.24-2.57-1.11-6.11-5.57-10.99-11.94-13.05a20.68 20.68 0 0 0-8.45-.85 26.62 26.62 0 0 0-11.87 4.38 26.63 26.63 0 0 0-6.3 5.99 25.43 25.43 0 0 0-4.05 8.01c-.7 2.32-1 4.7-.94 7.11a25.4 25.4 0 0 0-6.27-2.58 23.35 23.35 0 0 0-8.18-.59c-1.42.14-2.86.42-4.3.81a45.68 45.68 0 0 0-18.9 10.4 61.7 61.7 0 0 0-8.86 10.11 21.13 21.13 0 0 0-14.63-1.18c-.94.25-1.86.57-2.76.94a16.68 16.68 0 0 0-4.41-2.07 18.2 18.2 0 0 0-9.27-.37l2.77-12.55c.97-4.38 1.7-7.81 2.18-10.22a35.15 35.15 0 0 0 .47-2.72c.26-2.01.2-4.1-.18-6.2-1.56-8.63-8.53-14.49-16.97-14.28a28.3 28.3 0 0 0-6.57.98 45.2 45.2 0 0 0-5.51 1.92 47.3 47.3 0 0 0-5.84 2.89 33.14 33.14 0 0 0-6.08 4.55 18.99 18.99 0 0 0-6.08 12.72l-.01.27c-.19 4.38-1.04 10.41-2.55 17.91-1.46 7.29-3.08 15.65-4.92 25.44a24.42 24.42 0 0 0-7.41-6.4 18.25 18.25 0 0 0-9.98-2.25c.11-3.9-.15-7.75-.82-11.47a38.13 38.13 0 0 0-3.79-11.2 33.56 33.56 0 0 0-6.47-8.64 26.76 26.76 0 0 0-9.13-5.76 21.57 21.57 0 0 0-9.66-1.27c-1.11.11-2.21.32-3.29.61a21.14 21.14 0 0 0-9.8 6.13c-.93.99-2.14 2.34-3.68 4.1a24.43 24.43 0 0 0-9.27-.75l-.14.01c-2.76.3-5.63 1.02-8.54 2.15a41.45 41.45 0 0 0-7.48 3.82l-.36.24-.2.14-1.86 1.3a21.75 21.75 0 0 0-4.28 3.94 22.43 22.43 0 0 0-2.43 3.62 18.13 18.13 0 0 0-9.87-1.69 21.1 21.1 0 0 0-3.36.63c-1.44.39-2.88.94-4.38 1.66-.81.21-1.74.37-2.76.47-.73.07-1.51.12-2.33.14a71.12 71.12 0 0 0-12.03 1.29c-1.51.2-2.98.5-4.38.88l-1.28.35v-.02c.95-4.26 1.82-8.07 2.6-11.43.84-3.6 1.44-6.35 1.83-8.41.09-.48.16-.96.2-1.44l.08-.76c.26-2 .21-4.05-.16-6.1-1.51-8.38-8.32-14.15-16.55-14.02a26.94 26.94 0 0 0-6.35.93c-1.57.43-3.23 1-5.05 1.75a43.49 43.49 0 0 0-5.3 2.62 29.58 29.58 0 0 0-5.79 4.4 18.51 18.51 0 0 0-5.66 12.15 102.6 102.6 0 0 1-1.8 12.98l-3.24 16.9a44.48 44.48 0 0 0-10.03 6.44c-.92.78-1.81 1.59-2.68 2.43a23.73 23.73 0 0 0-6.02-2.48 22.05 22.05 0 0 0-9.5-.31 36.98 36.98 0 0 0-1.42-7.47 26.94 26.94 0 0 0-2.35-5.51 30.53 30.53 0 0 0-6.09-7.88 25.3 25.3 0 0 0-19.86-6.67c-1.45.15-2.92.42-4.37.82a34.18 34.18 0 0 0-10.4 4.9 51.65 51.65 0 0 0-4.28 3.32 24.37 24.37 0 0 0-8.46-2.22 14.41 14.41 0 0 0-5.46.44 15.55 15.55 0 0 0-5.81 2.96c-.68.52-1.32 1.11-1.91 1.75a117.51 117.51 0 0 1-8.11 8.15 47 47 0 0 1-5.28 4.16 17.42 17.42 0 0 1-3.01 1.66c-1.18.46-2.3.84-3.36 1.13a17.24 17.24 0 0 0-12.44 12.74 22.73 22.73 0 0 0-.17 9.24 28.69 28.69 0 0 0 2.67 8.38 19.44 19.44 0 0 0 6.02 7.08 16.39 16.39 0 0 0 11.03 3.02 87.86 87.86 0 0 1-1.71 6.62c-1 3.34-1.93 6.7-2.73 9.96-.86 3.5-1.52 6.91-1.97 10.15-.59 4.29-.53 8.44.17 12.34 1.73 9.58 8.99 18.69 21.32 17.43a20.5 20.5 0 0 0 14.11-7.75 30.37 30.37 0 0 0 4.72-8.71 108.7 108.7 0 0 0 8.7 10.64 89.4 89.4 0 0 0 14.87 12.82 160.9 160.9 0 0 0 6.79 4.59c1.4.88 2.6 1.52 3.79 2.02 1.17.49 2.35.86 3.52 1.11a19.87 19.87 0 0 0 10.28-.13 19.73 19.73 0 0 0 7.01-3.72c1.19-.9 2.46-1.95 3.87-3.19 1.29-1.14 2.66-2.41 4.07-3.77 1.3-1.27 2.5-2.45 3.58-3.55a49.51 49.51 0 0 0 3.52-3.91c1.31-1.64 5.21-6.54 3.95-13.53-.22-1.22-.57-2.4-1.05-3.52-.39-.98-.89-1.91-1.48-2.79-.44-.65-.88-1.27-1.32-1.85a22.43 22.43 0 0 0 6.42-.43 26.26 26.26 0 0 0 8.27-3.03 46.72 46.72 0 0 0 4.25-2.7c1.74.28 3.56.33 5.43.14 1.35-.14 2.75-.4 4.17-.79a32.75 32.75 0 0 0 11.44-5.82 49.79 49.79 0 0 0 6.1-5.73c.6-.64 1.19-1.31 1.78-1.99l-.08 2.71c-.1 4.28-.25 8.78-.43 13.37a256.1 256.1 0 0 1-.83 12.68 60.71 60.71 0 0 1-.71 4.61 27.26 27.26 0 0 1-1.01 3.62 17.74 17.74 0 0 0-1.08 9.67c.51 2.85 2.68 9.9 11.77 13.04 3 1.03 5.97 1.41 8.85 1.11a18.38 18.38 0 0 0 9.72-3.99 95.24 95.24 0 0 0 7.92-6.75 151.9 151.9 0 0 0 6.79-6.91l.15-.16.44-.49a19.53 19.53 0 0 0 8.71 6.1 19.36 19.36 0 0 0 8.52 1.09c.97-.1 1.94-.28 2.88-.54 3.12-.85 6.12-2.58 9.12-5.29a73.36 73.36 0 0 0 4.71-4.67c1.49-1.61 2.99-3.31 4.44-5.06a238.1 238.1 0 0 1 2.97-3.53c3.26-3.68 6.43-7.49 9.51-11.4a27.53 27.53 0 0 0 7.67 9.73 26.3 26.3 0 0 0 9.44 4.83c2.77.78 5.71 1.02 8.69.72 1.38-.14 2.79-.4 4.18-.78a39.68 39.68 0 0 0 13.1-6.39 56.1 56.1 0 0 0 9.65-9.07c.48-.57.93-1.15 1.39-1.74 4.16 4.06 9.79 5.95 16.02 5.32 1.41-.14 2.87-.42 4.35-.82a32.27 32.27 0 0 0 8.05-3.43 39.88 39.88 0 0 0 6.37-4.72 23.63 23.63 0 0 0 11.1 1.39c1.65-.17 3.36-.49 5.09-.96a39.53 39.53 0 0 0 13.09-6.39 56.49 56.49 0 0 0 9.65-9.07 76.68 76.68 0 0 0 3.3-4.26c.97.77 1.98 1.5 3.06 2.14a28.49 28.49 0 0 0 12.65 3.84c1.93.15 3.96.11 6.04-.1 2.33-.24 4.8-.71 7.35-1.4a41.8 41.8 0 0 0 11.07-4.91 60.73 60.73 0 0 0 8.85-6.73c.32-.29.6-.61.91-.91 1.91.77 3.91 1.34 5.99 1.68a36.98 36.98 0 0 0 9.96.23 49.8 49.8 0 0 0 5.58-.9 83.7 83.7 0 0 0 6.15-1.4 43.07 43.07 0 0 0 15.24-7.85 65.78 65.78 0 0 0 11.09-11.03c3.15-4 5.71-8.12 7.58-12.21 2.72-5.94 3.59-11.31 2.67-16.4z" class="cls-6"/><g id="g1593"><path id="path1587" fill="red" stroke-width="0" d="M64.5 483.68a8.5 8.5 0 0 1-.68.13c-.32.05-.7-.07-1.12-.36a4.97 4.97 0 0 1-1.32-1.75 14.7 14.7 0 0 1-1.18-4.04 7.57 7.57 0 0 1 0-3.08c.21-.88.79-1.45 1.75-1.71 1.59-.43 3.23-.98 4.92-1.65a32 32 0 0 0 5.67-3.03c2.1-1.36 4.46-3.2 7.08-5.52 2.63-2.32 5.7-5.4 9.22-9.23a.55.55 0 0 0 .22-.16.69.69 0 0 1 .32-.19c1.09.11 1.96.27 2.6.48.64.2 1.24.47 1.8.79.56.33.89.75.98 1.27.14.78.07 2.6-.22 5.45-.29 2.85-.6 6.11-.95 9.76-.08.3 0 .41.26.34.06-.02.09-.06.08-.12.32-.43.88-1.25 1.66-2.46.78-1.2 1.75-2.63 2.89-4.28 1.14-1.64 2.43-3.38 3.88-5.21a65.6 65.6 0 0 1 4.62-5.26 36.23 36.23 0 0 1 5.26-4.46c1.87-1.3 3.8-2.22 5.78-2.75 1.98-.54 3.84-.56 5.6-.09 1.68.43 3.17 1.25 4.45 2.44a15.46 15.46 0 0 1 3.15 4.12c.48.83.85 1.67 1.11 2.52.25.86.46 1.71.61 2.56.62 3.46.37 6.88-.76 10.27a34.78 34.78 0 0 1-5.12 9.71 51.35 51.35 0 0 1-8.22 8.66 75.45 75.45 0 0 1-9.96 7.08c-.68.32-1.12.77-1.32 1.33a3.4 3.4 0 0 0-.14 1.73 28.91 28.91 0 0 0 2.69 7.43 63.8 63.8 0 0 0 5.42 8.9 82.82 82.82 0 0 0 7.61 9.12 59.57 59.57 0 0 0 9.31 7.95 48.43 48.43 0 0 0 10.47 5.47 26.08 26.08 0 0 0 11.13 1.65c1.13-.03 1.93.23 2.4.79s.98 1.24 1.52 2.05c.01.06.04.14.09.23.05.09.09.2.11.33.04.2-.26.69-.89 1.48s-1.45 1.69-2.47 2.73a274.38 274.38 0 0 1-3.36 3.33 97.9 97.9 0 0 1-3.53 3.27 58.36 58.36 0 0 1-3.06 2.53 7.39 7.39 0 0 1-1.85 1.17 5 5 0 0 1-2.92-.03 4.51 4.51 0 0 1-1.11-.32c-.4-.17-.92-.45-1.56-.86l-2.44-1.59c-.99-.66-2.25-1.53-3.78-2.62a74.48 74.48 0 0 1-12.47-10.73 91.32 91.32 0 0 1-9.85-12.62 80.62 80.62 0 0 1-7.06-13.59 69.44 69.44 0 0 1-4.02-13.65c-.08-.46-.19-.97-.33-1.55a6.99 6.99 0 0 1-.2-1.64c0-.52.1-1 .29-1.47.18-.46.58-.84 1.2-1.15 1.11-.51 2.29-1.2 3.54-2.09a44.06 44.06 0 0 0 8.37-8.13 36.26 36.26 0 0 0 4.36-5.85 47.27 47.27 0 0 0 2.72-5.21 26.09 26.09 0 0 0 1.93-6.28c.2-.74.23-1.53.07-2.38-.22-1.24-.88-1.99-1.96-2.24a6.37 6.37 0 0 0-3.16.04 16.7 16.7 0 0 0-5.25 2.61 42.48 42.48 0 0 0-5.18 4.39 55.59 55.59 0 0 0-4.75 5.35 65.03 65.03 0 0 0-3.88 5.47 42.86 42.86 0 0 0-2.61 4.72 9.61 9.61 0 0 0-1.01 3.05c-.11 4.21-.43 8.76-.95 13.66s-1.17 9.65-1.95 14.24c-.7 4.3-1.39 8-2.07 11.09a63.17 63.17 0 0 1-2.09 7.61 16.1 16.1 0 0 1-2.34 4.54 5.55 5.55 0 0 1-2.8 2c-3.32.9-5.35-.74-6.1-4.92-.42-2.35-.45-4.89-.07-7.63s.93-5.59 1.67-8.57a194.8 194.8 0 0 1 2.55-9.27c.96-3.2 1.77-6.49 2.44-9.86a82.78 82.78 0 0 0 1.36-10.28c.24-3.49.04-7.03-.61-10.62-.27-1.5-.67-2.69-1.2-3.58-.53-.88-1.24-1.24-2.15-1.06a5.9 5.9 0 0 0-2.19 1.52c-.88.85-1.92 1.8-3.1 2.84a43.52 43.52 0 0 1-3.78 2.98c-1.34.95-2.7 1.61-4.11 1.99z" class="cls-8"/><path id="path1589" fill="red" stroke-width="0" d="M148.86 488.06a16.3 16.3 0 0 0-.22-.97c-.1-.38-.27-.75-.5-1.1a2.21 2.21 0 0 0-.9-.79c-.36-.17-.87-.17-1.5 0a8.49 8.49 0 0 0-4.27 2.75 16.1 16.1 0 0 0-2.86 5.04 27.48 27.48 0 0 0-1.43 6.55c-.24 2.4-.23 4.86.02 7.39.4 2.22 1.22 3.81 2.47 4.78 1.24.96 2.98 1.14 5.21.54 1.4-.38 2.9-1.08 4.49-2.1a35 35 0 0 0 4.8-3.72 58.16 58.16 0 0 0 4.7-4.82 50.7 50.7 0 0 0 4.1-5.38c.39-.45.82-1.03 1.29-1.74.47-.71.96-1.14 1.48-1.27.38-.1.73.06 1.04.49.31.43.51.9.61 1.43.2 1.11.05 2.49-.46 4.13a25.4 25.4 0 0 1-2.37 5.22 50.36 50.36 0 0 1-3.9 5.63 47.04 47.04 0 0 1-5 5.37 39.9 39.9 0 0 1-5.78 4.4 23.32 23.32 0 0 1-6.13 2.75 21.44 21.44 0 0 1-7.21.88 12.09 12.09 0 0 1-5.3-1.54 9.89 9.89 0 0 1-3.48-3.47 14.3 14.3 0 0 1-1.77-4.81c-.66-3.66-.56-7.57.29-11.74a41.1 41.1 0 0 1 12.49-22.04 26.47 26.47 0 0 1 11.04-6.08 7.96 7.96 0 0 1 7.38 1.43 8.48 8.48 0 0 1 2.23 2.63 9.7 9.7 0 0 1 1.07 2.89c.22 1.24.08 2.77-.43 4.58a31.3 31.3 0 0 1-2.24 5.64 56.48 56.48 0 0 1-7.61 11.26 36.35 36.35 0 0 1-4.27 4.14 10.69 10.69 0 0 1-3.73 2.14l-.57.16c-.32.09-.71.13-1.18.12a4.1 4.1 0 0 1-3.17-1.19c-.78-.81-1.22-1.45-1.3-1.91-.08-.46.15-.83.71-1.11a18.13 18.13 0 0 0 4.79-2.94 24.57 24.57 0 0 0 4.08-4.35 21.38 21.38 0 0 0 2.69-4.84c.64-1.64.84-3.12.61-4.43z" class="cls-8"/><path id="path1591" fill="red" stroke-width="0" d="M196.47 423.75c.05-.83.46-1.63 1.23-2.38.76-.76 1.69-1.45 2.78-2.1a27.15 27.15 0 0 1 3.46-1.71c1.21-.5 2.3-.88 3.26-1.14.95-.26 1.83-.4 2.64-.41.8-.01 1.3.54 1.5 1.65.09.52.11 1 .05 1.42a23 23 0 0 0-.15 1.37c-.34 1.81-.91 4.41-1.7 7.81a1368.53 1368.53 0 0 0-5.63 25.26 585.12 585.12 0 0 0-2.83 14.07c-.57 3.17-1.09 6.19-1.58 9.06s-.88 5.5-1.19 7.87c-.31 2.38-.53 4.42-.65 6.13a16.6 16.6 0 0 0 .04 3.84c.22 1.24.81 1.73 1.77 1.47a5.1 5.1 0 0 0 2.01-1.37c.77-.76 1.56-1.67 2.37-2.75s1.65-2.23 2.54-3.46l2.44-3.44a39.06 39.06 0 0 1 2.03-2.66c.61-.71 1.07-1.12 1.39-1.2.89-.24 1.43.16 1.62 1.2.33 1.83 0 3.9-.99 6.23a38.8 38.8 0 0 1-3.78 6.83 53.16 53.16 0 0 1-4.87 6.1 35.98 35.98 0 0 1-4.24 4.03 17.89 17.89 0 0 1-6.24 3.24c-1.47.4-2.66.48-3.57.25a4.06 4.06 0 0 1-2.28-1.54 6.66 6.66 0 0 1-1.29-2.73c-.83.98-1.78 2.02-2.85 3.14a32.86 32.86 0 0 1-3.45 3.1c-1.23.95-2.5 1.79-3.81 2.52s-2.55 1.19-3.72 1.37a7.8 7.8 0 0 1-6.57-1.35 9.02 9.02 0 0 1-2.16-2.24c-.59-.87-1.1-1.76-1.53-2.66-.24-.62-.46-1.23-.63-1.83a16.9 16.9 0 0 1-.4-1.69 24.47 24.47 0 0 1-.24-6.35c.19-2.28.63-4.59 1.31-6.93s1.6-4.68 2.75-7.01a49.39 49.39 0 0 1 3.97-6.68c2.03-2.81 4.33-5.3 6.88-7.47s5.33-3.83 8.33-4.99a8.19 8.19 0 0 1 4.88-.2l1.12-6.05c1.52-7.88 2.85-14.79 3.98-20.76a117.93 117.93 0 0 0 2.04-14.88zm-19.48 78.43c.48.08 1.13-.02 1.95-.27.82-.25 1.66-.64 2.5-1.14.85-.5 1.65-1.05 2.42-1.63a8.49 8.49 0 0 0 1.71-1.65c.02-2.88.15-5.86.4-8.94.25-3.08.63-6.5 1.16-10.28l.35-2.2.35-2.2c-.74 0-1.6.23-2.58.7-.68.32-1.29.64-1.83.96a11.28 11.28 0 0 0-3.24 2.88c-.57.71-1.24 1.57-1.99 2.59-.49.61-1.04 1.64-1.66 3.07a39.35 39.35 0 0 0-1.65 4.76c-.49 1.74-.86 3.5-1.1 5.28-.25 1.78-.22 3.35.09 4.7.13.72.44 1.42.93 2.11a3.09 3.09 0 0 0 2.18 1.25z" class="cls-8"/></g><g id="g1607"><path id="path1595" fill="red" stroke-width="0" d="M245.78 533.74a32.84 32.84 0 0 0 4.82-5.63 82.65 82.65 0 0 0 4.96-8.03A141.02 141.02 0 0 0 264.2 501a104.4 104.4 0 0 0 2.87-9.06 50.99 50.99 0 0 0 1.49-7.44c.57-5.83 1.26-11.6 2.08-17.3a185.9 185.9 0 0 1 3.35-17.29c.27-1.1.57-2.01.9-2.73a6.8 6.8 0 0 1 2.46-3.03c.54-.39 1.2-.84 1.95-1.36a25.42 25.42 0 0 1 4.71-2.4 18.62 18.62 0 0 1 4.69-1.22c1.44-.15 2.66-.07 3.68.24s1.6.88 1.75 1.71a11.2 11.2 0 0 1-.07 4.75c-.18 1.16-.46 2.81-.84 4.96l-1.6 9.07c-.48 2.89-.98 6.77-1.48 11.64a1846.86 1846.86 0 0 0-3.16 33.44c-.51 5.93-1.01 11.38-1.51 16.32-.06.49-.07.89-.02 1.19.11.6.35.85.71.75.22-.06.49-.25.82-.58a111.62 111.62 0 0 0 13.29-18.93 121.63 121.63 0 0 0 9.11-20.28 62.74 62.74 0 0 0 3.28-16.09c.29-5.01.1-9.39-.58-13.15-.42-2.33-1.08-3.88-2-4.66a8.87 8.87 0 0 0-2.9-1.69 17.37 17.37 0 0 1-2.82-1.24c-.86-.48-1.44-1.58-1.75-3.31-.12-.68.09-1.54.63-2.6a23.92 23.92 0 0 1 3.31-4.39c2.04-2.37 3.56-4.08 4.56-5.14a6.48 6.48 0 0 1 2.82-1.95 6.15 6.15 0 0 1 3.8.27 11.9 11.9 0 0 1 3.99 2.58 18.41 18.41 0 0 1 3.52 4.78 22.82 22.82 0 0 1 2.26 6.78c.58 3.23.76 6.58.54 10.03a68.24 68.24 0 0 1-1.56 10.59 89.11 89.11 0 0 1-3.19 10.81 152.8 152.8 0 0 1-4.38 10.65 153.24 153.24 0 0 1-13.35 23.03 236.75 236.75 0 0 1-17.07 21.67 215 215 0 0 0-3.23 3.84c-1.27 1.53-2.56 3-3.88 4.42a62.99 62.99 0 0 1-3.77 3.75c-1.19 1.08-2.19 1.72-3 1.94-.66.18-1.47.11-2.41-.23a4.34 4.34 0 0 1-2.19-1.59c.5-1.95.84-3.87 1.04-5.78.19-1.91.35-3.82.47-5.75a69.42 69.42 0 0 0-.91-16.55 50.96 50.96 0 0 0-1.07-4.67 557.83 557.83 0 0 1-10.48 16.86 129.45 129.45 0 0 1-12.24 16.05c-1.93 2.1-3.97 4.17-6.1 6.21a79.74 79.74 0 0 1-6.86 5.83c-.4.34-.86.59-1.37.73-.81.22-1.79.13-2.94-.27s-1.78-.9-1.89-1.5c-.07-.38.06-.96.38-1.76a41.18 41.18 0 0 0 1.65-5.89c.39-1.92.7-3.93.93-6.05.42-4.53.72-9.07.9-13.61.18-4.54.33-9.08.44-13.6.11-4.52.24-9.05.38-13.59.15-4.53.43-9.06.84-13.59.31-3.4.73-6.72 1.26-9.98.53-3.26 1.14-6.6 1.83-10.02-1.36.13-3 .22-4.92.27-1.77 0-3.56.04-5.35.09-1.8.06-3.51.3-5.12.74-.73.2-1.54.52-2.43.96-.89.44-1.67.99-2.36 1.65a6.98 6.98 0 0 0-1.6 2.33c-.38.89-.47 1.9-.26 3.03.11.6.47 1.19 1.07 1.78.61.58 1.63 1.23 3.07 1.95.51.26.8.57.86.95.06.38-.11.78-.53 1.21-.42.43-.94.85-1.56 1.25-.62.41-1.21.76-1.77 1.07-.56.31-.95.5-1.17.56a4.09 4.09 0 0 1-3.3-.35 8.02 8.02 0 0 1-2.43-2.29 15.47 15.47 0 0 1-1.62-2.93c-.41-.99-.66-1.71-.74-2.17a10.3 10.3 0 0 1 .74-6.47 14.5 14.5 0 0 1 4.07-5.01 27.32 27.32 0 0 1 6.15-3.68 48.87 48.87 0 0 1 7-2.5l2.75-.75a19.7 19.7 0 0 1 2.79-.53 56.89 56.89 0 0 1 9.97-1.11 37.4 37.4 0 0 0 8.91-1.18c.81-.22 1.56-.5 2.27-.85s1.35-.6 1.94-.76c1.25-.34 2.27-.24 3.06.29a4.05 4.05 0 0 1 1.6 2.46c-.21 2.66-.48 5.37-.79 8.14-.31 2.77-.71 5.6-1.19 8.48a442.4 442.4 0 0 1-5.4 29.32 569.84 569.84 0 0 1-6.81 27.93c-.28 1.02-.61 2.18-.99 3.46-.39 1.29-.54 2.16-.45 2.61.09.53.43.71 1.02.55.44-.12.94-.41 1.52-.89a11.9 11.9 0 0 0 1.52-1.48z" class="cls-8"/><path id="path1597" fill="red" stroke-width="0" d="M343.6 467.52c.73-.2 1.49-.09 2.25.33a9.26 9.26 0 0 1 3.79 4.05c.43.91.71 1.7.83 2.37.11.6.07 1.16-.1 1.68-.18.52-.54.94-1.1 1.25a18.44 18.44 0 0 0-6.27 6.26 45.1 45.1 0 0 0-4.48 9.14c-1.18 3.28-2 6.56-2.45 9.83-.45 3.28-.48 6.01-.08 8.18.35 1.95 1.01 3.15 1.98 3.6.97.44 2.18.47 3.65.07 2.57-.7 4.91-2.32 7.04-4.87a29.19 29.19 0 0 0 4.96-8.68 11 11 0 0 1-5.17-3.39 13.12 13.12 0 0 1-2.83-6.39 9.13 9.13 0 0 1 .28-4.22 16.02 16.02 0 0 1 3.67-6.26c1.77-1.94 3.61-3.17 5.52-3.69a6.3 6.3 0 0 1 5.35.85c1.66 1.08 2.81 3.43 3.46 7.04.15.83.25 1.71.3 2.64.05.93.08 1.87.1 2.81 1.09-.37 2.09-.77 3.02-1.18.92-.41 1.77-.84 2.54-1.28a47.47 47.47 0 0 0 5.2-3.78c1.19-1.11 2.04-1.74 2.55-1.88.59-.16.96.21 1.12 1.11a6.65 6.65 0 0 1-.42 3.78 15.78 15.78 0 0 1-2.17 3.67c-.74.99-1.58 1.91-2.51 2.75-.93.84-1.87 1.63-2.81 2.36a37.25 37.25 0 0 1-5.68 3.44 28.35 28.35 0 0 1-4.69 1.87 57.81 57.81 0 0 1-4.17 8.94 54.43 54.43 0 0 1-5.78 8.31 41.26 41.26 0 0 1-7.06 6.65 24.36 24.36 0 0 1-8.12 3.98 9.06 9.06 0 0 1-4.89.09 11.32 11.32 0 0 1-4.07-2.08 12.32 12.32 0 0 1-3-3.5 13.37 13.37 0 0 1-1.58-4.3 43.44 43.44 0 0 1-.43-10.71 62.12 62.12 0 0 1 6.95-24.3 48.3 48.3 0 0 1 7.55-10.69 38.51 38.51 0 0 1 4.11-3.78 11.13 11.13 0 0 1 3.61-2.1zm9.06 18.83a4.46 4.46 0 0 0-.24-.7c-.14-.32-.5-.4-1.08-.24.16.03.33.14.52.33.17.11.34.26.49.46.15.2.26.48.33.86l.06.34a2.52 2.52 0 0 1-.05-.58c.01-.16 0-.31-.02-.47z" class="cls-8"/><path id="path1599" fill="red" stroke-width="0" d="M383.04 418.36c.06-.96.54-1.88 1.47-2.76.92-.88 2.01-1.69 3.26-2.43a32.74 32.74 0 0 1 7.73-3.28c1.03-.28 2.02-.43 2.98-.46.96-.02 1.55.6 1.78 1.88.11.6.13 1.15.07 1.64-.07.49-.16 1.03-.29 1.62-.44 2.25-1.15 5.58-2.13 9.98s-2.07 9.36-3.27 14.85c-1.2 5.49-2.46 11.26-3.76 17.29a442.27 442.27 0 0 0-3.37 17.23 379.74 379.74 0 0 0-2.6 16.32c-.62 4.66-.78 7.86-.47 9.59.26 1.43.94 1.99 2.04 1.69a5.8 5.8 0 0 0 2.32-1.58c.88-.87 1.81-1.93 2.78-3.18.97-1.25 1.96-2.58 2.98-4l2.81-3.96a42.43 42.43 0 0 1 2.34-3.06c.7-.82 1.23-1.28 1.6-1.38 1.03-.28 1.65.18 1.87 1.38.43 2.41-.04 5.12-1.42 8.13a44 44 0 0 1-5.26 8.64 63.81 63.81 0 0 1-6.64 7.37c-2.31 2.17-4.16 3.63-5.56 4.41a16.88 16.88 0 0 1-4.39 1.9c-2.79.76-4.81.48-6.04-.84-1.24-1.32-2.09-3.26-2.55-5.81a47.42 47.42 0 0 1-.66-9.11c.05-3.36.26-6.87.65-10.52.38-3.65.87-7.37 1.46-11.16s1.21-7.47 1.88-11.04c2.08-11.13 3.94-20.84 5.61-29.14 1.66-8.3 2.6-15.04 2.82-20.23z" class="cls-8"/><path id="path1601" fill="red" stroke-width="0" d="M415.51 457.55a84.47 84.47 0 0 0-2.85 10.47c-.69 3.42-1.19 6.61-1.51 9.58a67.68 67.68 0 0 0-.45 7.75c0 2.2.15 3.82.41 4.86.5 1.92 1.19 3.1 2.09 3.57.89.47 2.07.5 3.54.1 2.57-.7 4.91-2.32 7.04-4.87a29.19 29.19 0 0 0 4.96-8.68 10.98 10.98 0 0 1-5.17-3.38 13.06 13.06 0 0 1-2.82-6.39 9.1 9.1 0 0 1 .32-4.29 16.28 16.28 0 0 1 5.29-7.83 10.47 10.47 0 0 1 3.85-2.05 6.3 6.3 0 0 1 5.35.85c1.66 1.08 2.81 3.43 3.46 7.04.15.83.25 1.71.31 2.64.05.93.08 1.87.1 2.81a24.23 24.23 0 0 0 5.14-2.22 34.8 34.8 0 0 0 3.76-2.56 90.83 90.83 0 0 0 2.66-2.2 5.22 5.22 0 0 1 1.76-1.13c.59-.16.96.21 1.13 1.11.36 2.03-.25 4.17-1.85 6.42a27.05 27.05 0 0 1-3.75 4.21 32.1 32.1 0 0 1-6.77 4.74 31.71 31.71 0 0 1-5.9 2.49 57.81 57.81 0 0 1-9.95 17.25 41.26 41.26 0 0 1-7.06 6.65 24.45 24.45 0 0 1-8.12 3.98c-3.52.96-6.28.72-8.27-.71-1.99-1.43-3.51-3.58-4.57-6.44-.35-1.09-.68-2.3-1-3.63a43.53 43.53 0 0 1-.88-8.39c-.04-2.99.06-5.97.29-8.95.34-3.64.81-7.02 1.41-10.14a50.59 50.59 0 0 1 1.73-7.04c.19-.68.84-1.45 1.95-2.3a30.64 30.64 0 0 1 3.72-2.43 38.64 38.64 0 0 1 7.67-3.27 3.8 3.8 0 0 1 2.13-.05c.61.19.96.51 1.04.96.11.21.05.7-.2 1.47zm12.25 8.37a4.46 4.46 0 0 0-.24-.7c-.14-.32-.5-.4-1.08-.24.16.03.33.14.52.33.17.11.33.26.49.46.15.2.26.48.33.86l.06.34a2.52 2.52 0 0 1-.05-.58c.01-.16 0-.31-.02-.46z" class="cls-8"/><path id="path1603" fill="red" stroke-width="0" d="M471.5 453.44c-.06-.3-.14-.67-.26-1.11a4.22 4.22 0 0 0-.58-1.26c-.26-.4-.61-.7-1.03-.9-.42-.2-1-.2-1.73 0a9.77 9.77 0 0 0-4.91 3.17 18.45 18.45 0 0 0-3.29 5.8 31.12 31.12 0 0 0-1.64 7.54c-.27 2.76-.26 5.59.03 8.51.46 2.56 1.41 4.39 2.84 5.5 1.43 1.11 3.43 1.31 6 .61a19.1 19.1 0 0 0 5.17-2.41 42.36 42.36 0 0 0 5.53-4.28 67.92 67.92 0 0 0 5.41-5.55 59.31 59.31 0 0 0 4.72-6.19c.44-.51.94-1.18 1.49-2 .55-.82 1.11-1.31 1.7-1.47.44-.12.84.07 1.2.56.36.49.59 1.04.7 1.64a10.4 10.4 0 0 1-.53 4.76c-.58 1.89-1.49 3.89-2.73 6s-2.73 4.27-4.49 6.49a54.32 54.32 0 0 1-5.76 6.18 44.96 44.96 0 0 1-6.66 5.06 26.52 26.52 0 0 1-7.05 3.16c-3.16.86-5.93 1.2-8.31 1.02a13.83 13.83 0 0 1-6.1-1.77c-1.68-1-3.02-2.33-4.01-3.99a16.5 16.5 0 0 1-2.04-5.54c-.76-4.21-.65-8.71.34-13.51a47.4 47.4 0 0 1 5.15-13.76 46.11 46.11 0 0 1 9.23-11.62 30.62 30.62 0 0 1 12.72-7.01 9.16 9.16 0 0 1 8.5 1.65 9.8 9.8 0 0 1 2.57 3.03 11.4 11.4 0 0 1 1.24 3.33 12.1 12.1 0 0 1-.49 5.28 36.54 36.54 0 0 1-2.58 6.5 64.68 64.68 0 0 1-3.98 6.76 58.67 58.67 0 0 1-4.77 6.21 43.42 43.42 0 0 1-4.92 4.77 12.3 12.3 0 0 1-4.95 2.65c-.37.1-.82.15-1.36.13a4.73 4.73 0 0 1-3.66-1.37c-.9-.94-1.4-1.67-1.49-2.2-.09-.52.18-.95.81-1.28a20.24 20.24 0 0 0 5.51-3.39 28.37 28.37 0 0 0 4.7-5 24.73 24.73 0 0 0 3.1-5.57c.74-1.89.97-3.59.7-5.1z" class="cls-8"/><path id="path1605" fill="red" stroke-width="0" d="M538.21 447.95c.37-.1.7.05 1 .44.3.39.51.93.63 1.6.35 1.95-.16 4.44-1.54 7.46a49.93 49.93 0 0 1-14.27 17.66 28.09 28.09 0 0 1-12.48 5.81c-.89.2-1.78.39-2.67.55-1.78.4-3.52.66-5.23.77-1.71.11-3.34.04-4.89-.21a12.1 12.1 0 0 1-4.26-1.51 8.45 8.45 0 0 1-3.11-3.17c-.08.02-.12-.04-.15-.19-.11-.6.31-1.72 1.24-3.35a41.47 41.47 0 0 1 2.99-4.54 46.53 46.53 0 0 1 2.17-2.72 3.7 3.7 0 0 1 1.79-.96c.44-.12.72-.04.85.24a7.5 7.5 0 0 0 3.57 2.52 6.7 6.7 0 0 0 3.98.28c.73-.2 1.25-.54 1.55-1.01 2.61-3.47 4.26-6.48 4.96-9.04.69-2.55.84-4.92.45-7.1-.27-1.5-.72-2.82-1.35-3.95a40.33 40.33 0 0 0-1.96-3.19l-2.05-3.05a13.23 13.23 0 0 1-1.64-3.64c-1.1 2.9-2.42 6.04-3.97 9.42a188.53 188.53 0 0 1-11.49 21.23 143.47 143.47 0 0 1-7.1 10.27c-.51.61-.94.97-1.31 1.07-.37.1-.64-.03-.82-.37a5.22 5.22 0 0 1-.43-1.42c-.45-2.48-.24-4.74.62-6.79s1.78-3.83 2.73-5.36a135.33 135.33 0 0 0 8.29-15.2c1.42-3.03 2.88-6.36 4.38-10 1.5-3.64 3.09-7.66 4.76-12.06a7.88 7.88 0 0 1-.93-2.59 7.9 7.9 0 0 1 .2-3.72c.36-1.2.91-2.3 1.66-3.29a11.52 11.52 0 0 1 6.18-4.16 6.69 6.69 0 0 1 3.8-.09c1.06.34 1.65.81 1.76 1.41.01 1.34.04 2.69.09 4.06.06 1.37.09 2.75.12 4.17a29.89 29.89 0 0 0 2.91 5.89c1.18 1.85 2.34 3.7 3.48 5.56a72.31 72.31 0 0 1 3.17 5.7 23.41 23.41 0 0 1 2.06 6.3c.23 1.28.36 2.62.38 4.04a19.84 19.84 0 0 1-1.35 6.28 24.08 24.08 0 0 1-3.97 6.52 35.25 35.25 0 0 0 5.79-5.06 60.13 60.13 0 0 0 4.31-5.25 479.7 479.7 0 0 0 3.04-4.26c.83-1.17 1.5-1.83 2.02-1.97z" class="cls-8"/></g></g></g></g></svg>