<svg xmlns="http://www.w3.org/2000/svg" id="Layer_1" width="525.697" height="561.283" data-name="Layer 1" version="1.1"><defs id="defs4"><style id="style2">.cls-2{fill:#f9c922}.cls-3{fill:#40b265}.cls-4{fill:#2d4154}.cls-5{fill:#e28e13}.cls-6{fill:#f6f6f6}.cls-7{fill:#3aa7dd}</style></defs><path id="path8" d="m364.914 78.93-8.93-13.3h-44.73l-46.95-29.53-46.96 29.53h-44l-8.97 13.3c-2.72 4-66.65 100.62-66.65 218.43 0 55.08 26.76 103.38 77.37 139.68 36.16 25.93 72.37 36.71 73.89 37.16l4.15 1.21h23l4.14-1.21c1.53-.45 37.74-11.23 73.9-37.16 50.61-36.3 77.37-84.6 77.37-139.68.03-117.81-63.9-214.38-66.63-218.43z" class="cls-2" style="fill:#f9c922"/><path id="path10" d="M346.834 76.52h-40.77l-41.8-26.26-41.79 26.26h-40s-67.18 100.05-67.18 220.11c0 120.06 141.54 161.49 141.54 161.49h15.72s141.5-41.44 141.5-161.5-67.22-220.1-67.22-220.1z" class="cls-3" style="fill:#40b265"/><path id="path12" d="M269.724 430.63s153.48-29.55 72.23-189.6c0 0 10.67-9.85 13.95-17.23a18.16 18.16 0 0 0 1.57-6.93s1.7-12.67-5.83-29.07c-3.5-7.61-17.3-1.36-25.17 0-11.66 2-24.85.58-35.41-5 0 0-11.49-4.11-19.7-4.11h-14c-8.21 0-19.7 4.11-19.7 4.11-10.56 5.63-23.75 7.09-35.41 5-7.87-1.37-21.67-7.62-25.17 0-7.53 16.4-5.84 29.07-5.84 29.07a18.37 18.37 0 0 0 1.58 6.93c3.28 7.38 13.95 17.23 13.95 17.23-81.27 160.04 72.21 189.6 72.21 189.6z" class="cls-4" style="fill:#2d4154"/><path id="path14" d="M267.724 412.33c79.67-18.71 82-69.94 81.2-105.24-.8-35.3-35.29-95.21-35.29-95.21a56.73 56.73 0 0 0-43.91-19.25h-10.74a56.73 56.73 0 0 0-43.91 19.28s-34.47 59.89-35.24 95.18c-.77 35.29 1.53 86.53 81.2 105.24z" class="cls-5" style="fill:#e28e13"/><path id="path16" d="M267.724 216.88s11-.48 11 3.62-2.82 9.51-5.51 13.38c-2.69 3.87-1.88 10.42 3.87 17.81 5.75 7.39 24.65 40.22 24.65 59.94v35.94s-1.18 11.9-17 11.9h-40.76c-15.82 0-17-11.9-17-11.9v-35.94c0-19.7 18.88-52.53 24.62-59.92 5.74-7.39 6.57-13.95 3.87-17.81-2.7-3.86-5.51-9.27-5.51-13.38 0-4.11 11-3.62 11-3.62" class="cls-2" style="fill:#f9c922"/><path id="path18" d="M226.974 311.63v35.94s1.18 11.9 17 11.9h15l-31.44-54.27a41.09 41.09 0 0 0-.56 6.43z" class="cls-6" style="fill:#f6f6f6"/><path id="path20" d="M301.734 311.63v35.94s-1.18 11.9-17 11.9h-15l31.44-54.27a41.09 41.09 0 0 1 .56 6.43z" class="cls-6" style="fill:#f6f6f6"/><path id="path22" d="M258.984 375.86v-51.43c0-6.05-4.49-8-4.49-8l-8.66-4.8c-5.75 7.38-12.31 4.1-12.31 4.1-10.67-2.46-5.75-14.77-3.95-19.35 1.8-4.58 11.33-7.73 17.9 1.29a23.66 23.66 0 0 0 15.59 9.85h2.54s9-.82 15.59-9.85 16.1-5.86 17.9-1.29c1.8 4.57 6.72 16.89-3.95 19.35 0 0-6.56 3.28-12.31-4.1l-8.64 4.83s-4.49 1.94-4.49 8v51.43" class="cls-4" style="fill:#2d4154"/><path id="path24" d="M227.274 367.56v9.32c.89 3.16 4.29 10.47 16.7 10.47h40.76c15.82 0 17-11.89 17-11.89v-7.9z" class="cls-4" style="fill:#2d4154"/><ellipse id="ellipse26" cx="205.224" cy="241.43" class="cls-4" rx="18.47" ry="13.54" style="fill:#2d4154"/><ellipse id="ellipse28" cx="204.274" cy="238.62" class="cls-7" rx="6.95" ry="9.44" style="fill:#3aa7dd"/><path id="path30" d="m223.414 239.12-2.71-20.94-7.57 11a24.25 24.25 0 0 0-7.91-1.3c-10.08 0-18.26 5.92-18.46 13.27h36.92a10 10 0 0 0-.27-2.03z" class="cls-2" style="fill:#f9c922"/><ellipse id="ellipse32" cx="323.414" cy="241.43" class="cls-4" rx="18.47" ry="13.54" style="fill:#2d4154"/><ellipse id="ellipse34" cx="324.354" cy="238.62" class="cls-7" rx="6.95" ry="9.44" style="fill:#3aa7dd"/><path id="path36" d="m305.214 239.12 2.71-20.94 7.58 11a24.25 24.25 0 0 1 7.91-1.3c10.08 0 18.26 5.92 18.46 13.27h-36.92a10.75 10.75 0 0 1 .26-2.03z" class="cls-2" style="fill:#f9c922"/><path id="polygon38" d="m220.11 137.72 81.42-51.17 81.42 51.17-81.42 51.16z" class="cls-2" style="fill:#f9c922" transform="translate(-37.166 -19.37)"/><circle id="circle40" cx="264.364" cy="118.35" r="32.55" class="cls-7" style="fill:#3aa7dd"/><path id="path42" d="M296.914 118.35a33.86 33.86 0 0 0-.27-4.18h-64.56a31.27 31.27 0 0 0 0 8.35h64.56a33.7 33.7 0 0 0 .27-4.17z" class="cls-6" style="fill:#f6f6f6"/><path id="path44" d="M92.834 25.05c-.85 0-1.23-.37-1.23-1.22V1.76c0-.85.38-1.23 1.23-1.23h11.34c5.11 0 6.71 2.32 6.71 5.69v1.57c0 1.9-.48 3.27-1.91 3.88 2.49.27 4.12 2.08 4.12 4.94v7.22c0 .85-.37 1.22-1.22 1.22h-5.28c-.86 0-1.23-.37-1.23-1.22v-5.2c0-1-.34-1.47-1.29-1.47h-4.77v6.67c0 .85-.38 1.22-1.23 1.22zm6.47-14h2.53c1.2 0 1.5-.68 1.5-1.6V8.26c0-.92-.3-1.6-1.5-1.6h-2.55z" class="cls-3" style="fill:#40b265"/><path id="path46" d="M116.334 32.44v-4.06c0-.85.37-1.22 1.22-1.22h3.38V15.71h-3.38c-.85 0-1.22-.37-1.22-1.22v-4.12c0-.86.37-1.23 1.22-1.23h14.51c.85 0 1.23.37 1.23 1.23v4.12c0 .85-.38 1.22-1.23 1.22h-3.3v11.45h3.3c.85 0 1.23.37 1.23 1.22v4.06c0 .85-.38 1.22-1.23 1.22h-14.51c-.85-.03-1.22-.37-1.22-1.22z" class="cls-3" style="fill:#40b265"/><path id="path48" d="M147.694 25.57c-8.51 0-10.59-2.8-10.59-6.95V7c0-4.15 2.08-7 10.59-7s10.56 2.83 10.56 7v11.63c0 4.14-2.04 6.94-10.56 6.94zm0-6.58c2.49 0 2.86-.68 2.86-1.6V8.23c0-.89-.37-1.57-2.86-1.57-2.49 0-2.86.68-2.86 1.57v9.16c0 .92.41 1.6 2.86 1.6z" class="cls-3" style="fill:#40b265"/><path id="path50" d="M200.154 33.63c-.85 0-1.23-.37-1.23-1.22V10.37c0-.86.38-1.23 1.23-1.23h11.47c5.73 0 8.38 2.21 8.38 7v10.57c0 4.74-2.65 7-8.38 7zm6.5-6.44h4.06c1.09 0 1.6-.51 1.6-1.66v-8.25c0-1.12-.51-1.63-1.6-1.63h-4.06z" class="cls-3" style="fill:#40b265"/><path id="path52" d="M225.554 25.05c-.85 0-1.22-.37-1.22-1.22V1.76c0-.85.37-1.23 1.22-1.23h15.8c.86 0 1.23.38 1.23 1.23v4c0 .86-.37 1.23-1.23 1.23h-9.4v2.64h6.65c.85 0 1.22.38 1.22 1.23v3.64c0 .85-.37 1.23-1.22 1.23h-6.65v2.9h9.4c.86 0 1.23.37 1.23 1.22v4c0 .85-.37 1.22-1.23 1.22z" class="cls-3" style="fill:#40b265"/><path id="path54" d="M291.534 34.17c-7.94 0-9.88-2.79-9.88-6.95v-5.51c0-.89.38-1.23 1.23-1.23h4.95c.85 0 1.22.34 1.22 1.23v4.15c0 .92.31 1.6 2.42 1.6s2.25-.68 2.25-1.6V10.37c0-.86.37-1.23 1.22-1.23h5.35c.85 0 1.23.37 1.23 1.23v16.85c-.01 4.16-1.99 6.95-9.99 6.95z" class="cls-3" style="fill:#40b265"/><path id="path56" d="M311.764 25.05h-5c-.85 0-1.23-.37-1.23-1.22v-9a15.8 15.8 0 0 1 1.3-5.44l3-7.76a1.61 1.61 0 0 1 1.74-1.13h9.16a1.59 1.59 0 0 1 1.69 1.13l3 7.73a15.8 15.8 0 0 1 1.33 5.45v9c0 .85-.38 1.22-1.23 1.22h-5.14c-.92 0-1.33-.37-1.33-1.22v-4.75h-6v4.77c-.07.85-.44 1.22-1.29 1.22zm1.56-12.19h5.35l-1.6-5.17c-.17-.41-.38-.58-.65-.58h-.85c-.27 0-.48.17-.65.58z" class="cls-3" style="fill:#40b265"/><path id="path58" d="M332.124 33.63c-.85 0-1.23-.37-1.23-1.22V10.37c0-.86.38-1.23 1.23-1.23h3.54a2.32 2.32 0 0 1 2 .92l6.62 7.57v-7.26c0-.86.37-1.23 1.22-1.23h5.11c.85 0 1.23.37 1.23 1.23v22.07c0 .85-.38 1.22-1.23 1.22h-5.11c-.85 0-1.22-.37-1.22-1.22v-4.19l-5.83-7v11.19c0 .85-.37 1.22-1.22 1.22z" class="cls-3" style="fill:#40b265"/><path id="path60" d="M357.764 25.05c-.85 0-1.22-.37-1.22-1.22V1.76c0-.85.37-1.23 1.22-1.23h15.8c.86 0 1.23.38 1.23 1.23v4c0 .86-.37 1.23-1.23 1.23h-9.4v2.64h6.67c.85 0 1.22.38 1.22 1.23v3.64c0 .85-.37 1.23-1.22 1.23h-6.65v2.9h9.4c.86 0 1.23.37 1.23 1.22v4c0 .85-.37 1.22-1.23 1.22z" class="cls-3" style="fill:#40b265"/><path id="path62" d="M378.264 32.44v-4.06c0-.85.37-1.22 1.23-1.22h3.34V15.71h-3.37c-.86 0-1.23-.37-1.23-1.22v-4.12c0-.86.37-1.23 1.23-1.23h14.5c.86 0 1.23.37 1.23 1.23v4.12c0 .85-.37 1.22-1.23 1.22h-3.3v11.45h3.3c.86 0 1.23.37 1.23 1.22v4.06c0 .85-.37 1.22-1.23 1.22h-14.5c-.83-.03-1.2-.37-1.2-1.22z" class="cls-3" style="fill:#40b265"/><path id="path64" d="M400.634 25.05c-.85 0-1.22-.37-1.22-1.22V1.76c0-.85.37-1.23 1.22-1.23h11.34c5.11 0 6.71 2.32 6.71 5.69v1.57c0 1.9-.47 3.27-1.9 3.88 2.48.27 4.12 2.08 4.12 4.94v7.22c0 .85-.38 1.22-1.23 1.22h-5.28c-.85 0-1.22-.37-1.22-1.22v-5.2c0-1-.34-1.47-1.3-1.47h-4.77v6.67c0 .85-.37 1.22-1.22 1.22zm6.47-14h2.56c1.19 0 1.5-.68 1.5-1.6V8.26c0-.92-.31-1.6-1.5-1.6h-2.56z" class="cls-3" style="fill:#40b265"/><path id="path66" d="M434.754 34.17c-8.51 0-10.59-2.79-10.59-6.95V15.63c0-4.15 2.08-7 10.59-7s10.56 2.83 10.56 7v11.59c0 4.16-2.04 6.95-10.56 6.95zm0-6.57c2.49 0 2.87-.68 2.87-1.6v-9.16c0-.89-.38-1.57-2.87-1.57s-2.86.68-2.86 1.57V26c0 .92.41 1.63 2.86 1.63z" class="cls-3" style="fill:#40b265"/><circle id="circle68" cx="178.874" cy="19.6" r="9.32" class="cls-2" style="fill:#f9c922"/><circle id="circle70" cx="263.504" cy="15.3" r="9.32" class="cls-2" style="fill:#f9c922"/><path id="path72" d="M8.914 469.87c-10.62-9.93-11.71-18.66-3.49-27.44l18.41-19.67c8.28-8.85 17.06-8.34 27.68 1.59l15.42 14.43c1.58 1.48 1.63 2.83.15 4.41l-7.16 7.65c-1.48 1.58-2.82 1.62-4.4.15l-12.69-11.89c-2.65-2.49-4.8-2.6-6.81-.45l-14.11 15.05c-1.95 2.08-1.64 4.16 1 6.64l12.72 11.89c1.59 1.48 1.63 2.82.15 4.4l-7 7.53c-1.48 1.58-2.82 1.62-4.4.14z" class="cls-3" style="fill:#40b265"/><path id="path74" d="m53.954 504.8-11-6.42c-1.87-1.09-2.21-2.39-1.12-4.26l11.53-19.73c1.75-3 4.83-6.21 9.9-10.26l16.41-13.17c1.61-1.37 3.24-1.42 5.26-.24l20.1 11.75c1.95 1.13 2.71 2.58 2.3 4.65l-3.41 20.76c-1 6.41-2.32 10.67-4.07 13.66l-11.52 19.74c-1.09 1.87-2.4 2.21-4.27 1.12l-11.23-6.6c-2-1.17-2.44-2.52-1.35-4.39l6.12-10.46-13.23-7.73-6.12 10.46c-1.13 1.87-2.42 2.21-4.3 1.12zm19.07-24.75 11.74 6.86 3.12-13.42c.15-1.11-.08-1.75-.68-2.1l-1.87-1.09c-.6-.35-1.26-.24-2.16.44z" class="cls-7" style="fill:#3aa7dd"/><path id="path76" d="M106.384 532.16c-2.05-.71-2.63-1.92-1.92-4l18.45-53c.71-2 1.93-2.63 4-1.92l25 8.72c14.88 5.18 17.05 13.17 13.74 22.66l-3.64 10.46c-3.31 9.48-10 14.4-24.85 9.22l-9.4-3.27-4.74 13.6c-.72 2-1.93 2.62-4 1.91zm26.32-25.84 7.36 2.56c3.19 1.11 4.5-.54 5.24-2.67l1.51-4.33c.74-2.13.74-4.23-2.45-5.35l-7.36-2.56z" class="cls-5" style="fill:#e28e13"/><path id="path78" d="M183.064 554.13c-2.22-.38-2.91-1.46-2.55-3.59l1.84-10.91-10.11-19.7c-2.06-3.95-2.37-5.76-1.48-11l2.77-16.39c.36-2.13 1.45-2.91 3.59-2.55l13.14 2.21c2.14.36 2.92 1.46 2.56 3.59l-2.36 14a6.27 6.27 0 0 0 .16 3.72l2.89 6.81c.43 1.12.87 1.63 1.81 1.79l.85.15c.94.15 1.53-.19 2.3-1.11l5-5.48a6.18 6.18 0 0 0 1.37-3.46l2.36-14c.36-2.13 1.46-2.91 3.59-2.56l12.72 2.15c2.14.36 2.92 1.46 2.56 3.59l-2.77 16.39c-.89 5.29-1.86 6.88-5 9.95l-15.94 15.4-1.83 10.84c-.36 2.14-1.45 2.92-3.59 2.56z" class="cls-3" style="fill:#40b265"/><path id="path80" d="M235.054 560.83c-2.16 0-3.1-1-3.08-3.16l.69-56.09c0-2.16 1-3.1 3.16-3.08l27.61.34c11.34.14 16.57 4.36 16.46 13.45l-.05 4.15c-.06 4.85-1.75 7.86-5.23 9.29 7.44.78 10.85 5.07 10.75 13.55l-.1 8c-.12 9.7-5.46 14.14-17 14zm16.54-14.52 11.26.14c2.25 0 3.3-1.08 3.33-3.42v-3.38c0-2.33-1-3.39-3.25-3.41l-11.25-.14zm.29-23.54 7.36.09c2.25 0 3.3-1.09 3.33-3.42v-2.43c0-2.33-1-3.47-3.25-3.5l-7.35-.09z" class="cls-7" style="fill:#3aa7dd"/><path id="path82" d="m315.534 557.69-12.57 2c-2.14.34-3.22-.45-3.56-2.59l-3.57-22.59c-.54-3.42-.19-7.86 1.17-14.21l4.37-20.58c.37-2.07 1.61-3.15 3.91-3.51l23-3.64c2.23-.35 3.73.29 4.72 2.15l10.51 18.23c3.26 5.62 5 9.73 5.5 13.15l3.57 22.58c.33 2.13-.46 3.22-2.59 3.56l-12.92 2c-2.3.37-3.48-.41-3.82-2.55l-1.89-12-15.13 2.39 1.89 12c.34 2.18-.45 3.27-2.59 3.61zm-.91-31.23 13.43-2.12-6.08-12.37c-.59-1-1.17-1.3-1.85-1.19l-2.14.34c-.68.1-1.13.61-1.39 1.71z" class="cls-5" style="fill:#e28e13"/><path id="path84" d="M373.034 546.49c-2 .71-3.26.12-4-1.92l-18.45-53c-.71-2.05-.13-3.26 1.92-4l27.22-9.48c12.26-4.27 18 0 20.86 8l1.31 3.76c1.59 4.58 1.59 8.25-1.33 10.91 6.19-1.42 11.62 1.55 14 8.41l6 17.33c.71 2 .13 3.26-1.92 4l-12.67 4.41c-2 .71-3.25.13-4-1.92l-4.36-12.5c-.85-2.45-2-3.23-4.33-2.43l-11.45 4 5.59 16c.71 2 .12 3.26-1.92 4zm3.8-39.09 6.13-2.14c2.86-1 3-2.89 2.26-5.09l-1-2.78c-.77-2.21-2.07-3.59-4.93-2.59l-6.13 2.13z" class="cls-3" style="fill:#40b265"/><path id="path86" d="m450.014 514.63-10.93 6.51c-1.86 1.11-3.16.78-4.27-1.08l-11.7-19.63c-1.77-3-3.1-7.22-4.19-13.62l-3.59-20.73c-.43-2.07.32-3.52 2.32-4.72l20-11.92c1.94-1.15 3.57-1.12 5.19.24l16.52 13c5.12 4 8.22 7.19 10 10.16l11.7 19.63c1.1 1.86.77 3.17-1.08 4.28l-11.23 6.69c-2 1.2-3.39.91-4.5-.95l-6.2-10.41-13.16 7.85 6.2 10.41c1.11 1.83.74 3.14-1.08 4.29zm-12.45-28.7 11.68-7-10.23-9.22c-.91-.67-1.58-.77-2.17-.42l-1.86 1.11c-.59.36-.82 1-.66 2.11z" class="cls-7" style="fill:#3aa7dd"/><path id="path88" d="M499.154 481.93c-1.56 1.5-2.9 1.48-4.41-.08l-7-7.29c-1.5-1.56-1.47-2.9.08-4.41l16.77-16.16a2.26 2.26 0 0 0-.13-3.37c-1.38-1.43-2.48-1.45-3.66-.56l-10.61 7.71c-6.7 4.78-12.9 5.95-19.63-1l-6.31-6.54c-6.85-7.11-5.78-15.6 2.32-23.41l17.45-16.83c1.55-1.5 2.9-1.47 4.4.08l7.15 7.42c1.51 1.56 1.48 2.9-.08 4.41l-14.51 14a2.3 2.3 0 0 0 .12 3.49 2.54 2.54 0 0 0 3.6.37l10.49-7.71c6.7-4.77 13-6 19.69 1l6.31 6.55c6.86 7.1 5.72 15.65-2.32 23.4z" class="cls-5" style="fill:#e28e13"/></svg>