<svg xmlns="http://www.w3.org/2000/svg" id="Layer_1" width="516.4" height="473.7" version="1.1"><defs id="defs4971"><style id="style4969">.cls-1{fill:#f9bd53}.cls-2{fill:#f7a706}.cls-3{fill:#900018}.cls-4{fill:#4c0010}</style></defs><g id="g5086" transform="translate(-41.8 -63.2)"><g id="g5043"><g id="g5007"><path id="path4975" fill="#f9bd53" d="M518.4 291.2s-28.6-18.8-6.3-50.4c0 0 27.2 23.4 6.3 50.4z" class="cls-1"/><path id="path4977" fill="#f9bd53" d="M521.5 320.6s-33.6 6.4-39.4-32c0 0 35.7-2 39.4 32z" class="cls-1"/><path id="path4979" fill="#f9bd53" d="M520.7 312s34.2-.2 32.5-39c0 0-35.5 5-32.5 39z" class="cls-1"/><path id="path4981" fill="#f9bd53" d="M519.1 353.7s-34.2.7-33.6-38c0 0 35.6 3.9 33.6 38z" class="cls-1"/><path id="path4983" fill="#f9bd53" d="M519.8 345s33.7 5.5 38.4-33c0 0-35.8-1-38.5 33z" class="cls-1"/><path id="path4985" fill="#f9bd53" d="M511.2 387.5s-34-3.1-29.2-41.6c0 0 35 7.9 29.2 41.6z" class="cls-1"/><path id="path4987" fill="#f9bd53" d="M512.8 379s33 9.2 41.9-28.5c0 0-35.5-5-42 28.5z" class="cls-1"/><path id="path4989" fill="#f9bd53" d="M496 422s-32.5-10.8-19-47.2c0 0 32.3 15.7 19 47.2z" class="cls-1"/><path id="path4991" fill="#f9bd53" d="M499.4 414s30 16.6 47.3-18.1c0 0-33.4-13-47.3 18.2z" class="cls-1"/><path id="path4993" fill="#f9bd53" d="M474.6 449.8S444 434.1 463 400.3c0 0 29.5 20.5 11.6 49.5z" class="cls-1"/><path id="path4995" fill="#f9bd53" d="M479.2 442.6s27.1 20.9 49.5-10.7c0 0-31-18-49.5 10.7z" class="cls-1"/><path id="path4997" fill="#f9bd53" d="M444.2 474.1s-25.2-23.2 2-50.7c0 0 23 27.5-2 50.8z" class="cls-1"/><path id="path4999" fill="#f9bd53" d="M450.6 468.4s20.6 27.4 50.6 2.9c0 0-25.2-25.7-50.6-3z" class="cls-1"/><path id="path5001" fill="#f9bd53" d="M411.7 491.2s-21.3-26.8 9.8-49.8c0 0 18.5 30.8-9.8 49.8z" class="cls-1"/><path id="path5003" fill="#f9bd53" d="M419 486.5s16.1 30.3 49.5 10.7c0 0-21-29.2-49.6-10.7z" class="cls-1"/><path id="path5005" fill="#f9bd53" d="m342.3 536.8-11-1.6a48.3 48.3 0 0 1 25.2-29 70 70 0 0 1 18.5-6.9c73.2-18.6 119-59.6 136.3-121.9 12.9-46.5 4-88 4-88.3l5-1.1c0 .4 2.3 10.9 3 27.4a211 211 0 0 1-7 63.4c-7.9 28-21.7 52.4-41.2 72.3-24.4 24.8-57.6 42.7-98.9 53.2h-.2s-7 1.8-15.7 7a41 41 0 0 0-18 25.5z" class="cls-1"/></g><g id="g5041"><path id="path5009" fill="#f9bd53" d="M81.6 291.2s28.6-18.8 6.3-50.4c0 0-27.2 23.4-6.3 50.4z" class="cls-1"/><path id="path5011" fill="#f9bd53" d="M78.5 320.6s33.6 6.4 39.5-32c0 0-35.8-2-39.5 32z" class="cls-1"/><path id="path5013" fill="#f9bd53" d="M79.3 312s-34.2-.2-32.4-39c0 0 35.4 5 32.4 39z" class="cls-1"/><path id="path5015" fill="#f9bd53" d="M80.9 353.7s34.2.7 33.6-38c0 0-35.6 3.9-33.6 38z" class="cls-1"/><path id="path5017" fill="#f9bd53" d="M80.3 345s-33.8 5.5-38.5-33c0 0 35.8-1 38.5 33z" class="cls-1"/><path id="path5019" fill="#f9bd53" d="M88.8 387.5s34-3.1 29.2-41.6c0 0-35 7.9-29.2 41.6z" class="cls-1"/><path id="path5021" fill="#f9bd53" d="M87.2 379s-33 9.2-41.9-28.5c0 0 35.5-5 42 28.5z" class="cls-1"/><path id="path5023" fill="#f9bd53" d="M104 422s32.5-10.8 19-47.2c0 0-32.2 15.7-19 47.2z" class="cls-1"/><path id="path5025" fill="#f9bd53" d="M100.6 414s-30 16.6-47.3-18.1c0 0 33.4-13 47.3 18.2z" class="cls-1"/><path id="path5027" fill="#f9bd53" d="M125.5 449.8s30.4-15.7 11.5-49.5c0 0-29.5 20.5-11.6 49.5z" class="cls-1"/><path id="path5029" fill="#f9bd53" d="M120.8 442.6s-27.1 20.9-49.5-10.7c0 0 31-18 49.5 10.7z" class="cls-1"/><path id="path5031" fill="#f9bd53" d="M155.8 474.1s25.2-23.2-2-50.7c0 0-23 27.5 2 50.8z" class="cls-1"/><path id="path5033" fill="#f9bd53" d="M149.4 468.4s-20.6 27.4-50.6 2.9c0 0 25.2-25.7 50.6-3z" class="cls-1"/><path id="path5035" fill="#f9bd53" d="M188.3 491.2s21.3-26.8-9.8-49.8c0 0-18.5 30.8 9.8 49.8z" class="cls-1"/><path id="path5037" fill="#f9bd53" d="M181 486.5s-16.1 30.3-49.5 10.7c0 0 21-29.2 49.6-10.7z" class="cls-1"/><path id="path5039" fill="#f9bd53" d="m257.7 536.8 11-1.6a48.3 48.3 0 0 0-25.2-29 70 70 0 0 0-18.5-6.9c-73.2-18.6-119-59.6-136.3-121.9-12.9-46.5-4-88-4-88.3l-5-1.1c0 .4-2.3 10.9-3 27.4a211 211 0 0 0 7 63.4c7.9 28 21.7 52.4 41.2 72.3 24.4 24.8 57.6 42.7 98.9 53.2h.2s7 1.8 15.7 7a41 41 0 0 1 18 25.5z" class="cls-1"/></g></g><g id="g5061"><path id="path5045" fill="#4c0010" d="m486 139.2-1.8-26-26-2c-27.3-1.8-105.3-12-138-35.5l-7.8-5.7-10.7-6.8-10.8 6.8-7.8 5.7c-32.7 23.5-110.6 33.7-137.9 35.6l-26 1.8-1.9 26.1c-.1 2.4-3.7 58.8 14.8 127.8 24.9 93 78 164.9 153.7 208l6.9 4h18l6.9-4c75.7-43.1 128.8-115 153.7-208A430 430 0 0 0 486 139.2z" class="cls-4"/><path id="path5047" fill="#900018" d="m465.1 140.6-.5-7.9-7.9-.5c-1 0-104.4-7.6-148.7-39.6l-2.3-1.7-4-2.7-4 2.7-2.4 1.7c-44.2 32-147.6 39.5-148.7 39.6l-7.8.5-.6 8a407 407 0 0 0 14.1 120.9 349.8 349.8 0 0 0 46.1 104c25.4 38 58.3 68.7 97.7 91.3l2.1 1.2h7l2-1.2a288.5 288.5 0 0 0 97.7-91.3 349.5 349.5 0 0 0 46.1-104 407 407 0 0 0 14.1-121z" class="cls-3"/><path id="path5049" fill="#f7a706" d="M302.7 100h-2c-47 33.9-153.4 41.2-153.4 41.2s-5 73.8 25.3 154h258.1c30.3-80.2 25.4-154 25.4-154S349.6 134 302.7 100z" class="cls-2"/><g id="g5059"><path id="path5051" fill="#4c0010" d="m201.3 171.6-1.3-1c-3.7-2.8-4.4-4-4.4-5.6 0-2.3 1.7-3.6 4.4-3.6 2.3 0 3.4 1 4 1.8.8 1 1 2.1 1 2.3 0 1.7 1.2 1.8 1.5 1.8 1.5 0 1.5-1.8 1.5-2.3l.1-4.6v-.8c0-.5-.1-1.3-1.3-1.6a23 23 0 0 0-6.3-.8c-6.7 0-11.4 4-11.4 9.6 0 4.1 2.1 7.6 7 11.4l2.2 1.7c3.7 2.9 4 4.7 4 6.3 0 1.7-1.4 4.1-5 4.1-2 0-4.6-.6-5.5-3.8l-.4-2c0-1.7-1.2-1.8-1.4-1.8-.7 0-1.5.4-1.6 2.2v.1l-.2 5.8c0 1.2.2 2 1.5 2.5 2 .9 4 1.3 7 1.3s5.5-.7 7.6-2c4.1-2.7 4.7-6.6 4.7-8.7 0-4.7-2-8-7.8-12.3z" class="cls-4"/><path id="path5053" fill="#4c0010" d="M246.2 157.9h-3.5l-3 .1a79.3 79.3 0 0 1-6.5-.1c-1.7 0-2 .7-2 1.4 0 .3 0 1.4 1.7 1.4l1.6.1c.8.2 1 .4 1 1.7.2 1.4.2 2.6.2 9.4v8c0 4 0 7.6-.2 9.4 0 .4-.3 1.5-.6 1.6a6 6 0 0 1-1.4.2c-1.6 0-1.7 1.1-1.7 1.4 0 .2 0 1.4 2 1.4a117.9 117.9 0 0 0 5.6-.1h2l5 .1c1.4 0 1.8-.8 1.8-1.5 0 0 0-1.3-1.7-1.3l-2.2-.2c-.4 0-.7-.2-.8-1.5-.3-2-.3-5.5-.3-9.6v-2.1c.2.4.5.8 1.3 1h1.2c7 0 12-5 12-11.9 0-2.7-1.3-5-2.5-6.1-.7-.7-3-2.8-9-2.8zm-3 18.8V162h1.2c.8 0 2.4.1 3.8 1.4a8 8 0 0 1 2.3 6c0 4-3 6.4-5 6.4-.5 0-2 0-2.2 1z" class="cls-4"/><path id="path5055" fill="#4c0010" d="M403 199.8a2 2 0 0 0-.7.2h-.3c-3.4 1.4-7 1.6-8.4 1.6a41 41 0 0 1-18-5.3l-7.6-3.9c2.5-2 7-6.8 7-14.6 0-10.8-7.8-18-19.3-18-14.3 0-19.5 11-19.5 18.4 0 4.7 1.6 9.3 4.5 12.6 3.4 4.1 8.6 6.3 14.8 6.3 2.3 0 5-.5 7-1.1l6.6 3.9a35 35 0 0 0 19.6 6.3c5 0 10-1.2 14.7-3.5.2-.1 1.1-.5 1.1-1.5 0-.8-.6-1.4-1.4-1.4zM354.7 164c7.9 0 12 7.6 12 15 0 9-3.3 13.8-9.4 13.8-6.1 0-12.7-5-12.7-15.7 0-11.4 6.4-13.1 10.1-13.1z" class="cls-4"/><path id="path5057" fill="#4c0010" d="M427.4 193.6a6 6 0 0 1-1-.2c-.7 0-2.3-.4-4.5-2.7-2.3-2.4-4.9-5.6-8.1-9.8l-1-1.2c3.9-3.3 5.5-6.4 5.5-10.2 0-3.2-1.8-5.9-3.5-7a15 15 0 0 0-8.8-2.1h-3l-3.4.1H398l-4.4-.1c-1.7 0-2 .8-2 1.4 0 .3 0 1.4 1.7 1.4l1.6.1c.8.2 1 .4 1.1 1.7v17.4l-.1 9.4c0 .4-.2 1.5-.5 1.6a6 6 0 0 1-1.4.2c-1.7 0-1.8 1.1-1.8 1.4 0 .2.1 1.4 2 1.4h3.6l1.8-.1h1.5l5.2.1c1.8 0 1.9-1.2 1.9-1.4 0-.7-.5-1.4-1.6-1.4l-2-.2c-.5 0-.8-.2-1-1.6l-.1-9.4h3.2l2.1 2.9 2.3 3.2a22 22 0 0 0 6.5 7c1.4.7 2.7 1 5.3 1h4.3c1.7 0 1.9-1.1 1.9-1.6 0-.6-.5-1.4-1.6-1.4zM411 171.7c0 3.8-1.4 5.4-2.3 6-.5.4-.8.5-2.6.5-1 0-2 0-2.8-.3v-13.3h1.8c2.2 0 5.9 1.5 5.9 7.2z" class="cls-4"/></g></g><g id="xCmZg0"><g id="g5075"><g id="g5067"><path id="path5063" fill="#4c0010" d="M320.3 404.2a5.9 5.9 0 0 1-5.9-6.2l.5-9.5.8-18 .5-12.6c.6-13.9 1.3-28.2 1.7-42.3.2-6.3 3.1-10.5 8.6-12.3l2-1 1.3-.6c4-2 7.9-3.8 8.4-4.8.3-.6.3-2.1.2-4.1h-.2l-20.7 5.7-.4 3.5c-.8 8.2-1.6 16.6-1.9 24.8a37.1 37.1 0 0 1-9 23.9 5.9 5.9 0 0 1-4.6 2h-.3c-1.8 0-3.5-1-4.6-2.5l-.5-.8a34.8 34.8 0 0 1-7.8-19.4c-.3-10.8-1.5-22.2-2.4-31.4l-.2-.2a556.7 556.7 0 0 0-21-5.7c0 1.6 0 3.2.2 4.6 19.3 5.3 21.6 20.3 21.4 32.8-.2 15.1.6 30.3 1.4 46.4.4 6.9.8 14 1 21.4a5.9 5.9 0 0 1-9 5.1l-4.4-2.6a37 37 0 0 1-8.7-6.4c-15-16.5-22-32.5-21.7-50.4v-23.1c.2-2.8-.8-4.7-3.6-7.1a16.8 16.8 0 0 1-5.5-11.2 516 516 0 0 1 0-33.8c.2-3.3 1.9-5.9 3.2-7.9.5-.6.8-1.1 1-1.6l1.3-1.8c1.5-23.7 15-41.4 40-52.7 4.3-1.9 4.6-2.7 4.1-6.8-1.4-12-2.5-24.3-3.5-36.2l-1.3-14.4c-.2-2 .7-4 2.3-5.3 5.8-4.3 12-6.5 18.4-6.5a34 34 0 0 1 19 6.4 5.9 5.9 0 0 1 2.6 5.5l-4.7 42.8v1.1c-.5 4.9-.9 9-.3 10.2.6 1 4.2 3 8.4 5.2l.2.1c22.3 12 33.9 28.4 35.4 50.3 6.3 3.9 5.8 10.7 5.5 14.2l-.1 2.3c.2 8.5.3 18.6-.1 28.9-.2 4-2.3 8.5-5.4 11.2-2.7 2.4-3.6 4.2-3.5 7 .3 7.5.2 15 0 22.3v1.6a73 73 0 0 1-22.7 50.6c-2.2 2.4-5 4-7.8 5.7l-4.4 2.6c-1 .7-2.1 1-3.2 1z" class="cls-4"/><path id="path5065" fill="#f7a706" d="M301.4 141.1c5.3 0 10.5 1.9 15.8 5.4l-4.7 42.8-.1 1.2c-1.2 14.5-1.2 14.4 11.4 21.2 18.6 10 31.2 24.3 32.4 46.4 0 1 .2 2.6.8 2.8 6.7 2.4 4.4 8 4.5 12.6.2 9.4.3 19 0 28.4-.2 2.5-1.6 5.5-3.4 7-3.7 3.3-5.8 6.7-5.6 11.8.3 7.8.2 15.7.1 23.5a67.6 67.6 0 0 1-21 46.7c-2.7 2.7-6.4 4.2-11.3 7.4l1.3-27.4c.7-18.4 1.6-36.7 2.2-55.1.1-3.7 1.3-5.8 4.7-7 1.3-.4 2.6-1.2 3.9-1.8q12.8-6.3 11.2-21.7c-10 2.7-19.9 5.2-29.6 8-1.1.4-2.2 2.8-2.3 4.3-1 9.7-2 19.4-2.3 29-.2 7.7-2.6 14-7.8 20.3-3.6-5.3-7.1-10.2-7.3-17-.3-10.8-1.4-21.5-2.5-32.1-.2-1.8-1.9-4.3-3.4-4.8-9.3-2.8-18.7-5-29.3-7.8 0 5-.3 9.2.1 13.4.2 1.6 2 3.9 3.6 4.2 14.4 3.7 18 13.1 17.8 27.2-.4 22 1.4 44.1 2.4 68.2-4.8-3.2-9-5-12-8.1-11.9-13.1-20.3-28-20.1-46.4 0-7.7-.2-15.3 0-23 .2-5-1.9-8.4-5.5-11.7a11 11 0 0 1-3.6-7c-.3-11-.3-22.3 0-33.4.1-2.3 2.3-4.6 3.6-6.8.6-1.2 1.8-2.3 1.9-3.5 1.1-24.5 15.8-39.2 36.6-48.5 6.6-3 8.2-6.2 7.5-12.8-2-16.8-3.3-33.6-4.9-50.5a25 25 0 0 1 15-5.3m0-11.8c-7.8 0-15.2 2.6-22 7.7-3.3 2.4-5 6.4-4.7 10.5a1355.3 1355.3 0 0 0 4.8 50.8l.1.4-.6.3c-26.7 12-41.3 30.8-43.4 56l-.7 1c0 .2-.4.8-.7 1.2a21 21 0 0 0-4.2 11 514 514 0 0 0 0 34.1c.2 5.5 3 11.5 7.4 15.4 1.7 1.5 1.7 1.9 1.7 2.5-.2 4.9-.1 9.7-.1 14.3v9c-.2 19.2 7.4 37 23.3 54.4 3 3.4 6.6 5.5 10 7.5 1.4.7 2.8 1.5 4 2.4a11.7 11.7 0 0 0 18.3-10.2l-1-21.5c-.4-7.4-.8-14.6-1-21.7 2 2.5 5 4 8.3 4.1h.6c3.4 0 6.6-1.4 8.9-4l-.2 3-.5 12.8-.8 17.6-.4 9.8a11.7 11.7 0 0 0 18.1 10.4l4.1-2.6c3.1-1.8 6.3-3.6 9.2-6.6a78.6 78.6 0 0 0 24.3-54.6v-1.7c.2-7.3.3-14.9 0-22.5 0-.8 0-1 1.5-2.4 4.3-3.7 7.1-9.8 7.4-15.4a470.6 470.6 0 0 0 .2-31 25 25 0 0 0-.8-10 18 18 0 0 0-5-7.7c-2.4-22.4-15.2-40-38.2-52.4h-.2l-5.6-3.2c0-1.6.3-4.2.5-6.6v-1l3.7-33 1-9.8c.5-4.3-1.5-8.6-5.1-11a39.9 39.9 0 0 0-22.3-7.3z" class="cls-2"/></g><g id="g5073"><path id="path5069" fill="#4c0010" d="M320.3 404.2a5.9 5.9 0 0 1-5.9-6.2l.5-9.5.8-18 .5-12.6c.6-13.9 1.3-28.2 1.7-42.3.2-6.3 3.1-10.5 8.6-12.3l2-1 1.3-.6c4-2 7.9-3.8 8.4-4.8.3-.6.3-2.1.2-4.1h-.2l-20.7 5.7-.4 3.5c-.8 8.2-1.6 16.6-1.9 24.8a37.1 37.1 0 0 1-9 23.9 5.9 5.9 0 0 1-4.6 2h-.3c-1.8 0-3.5-1-4.6-2.5l-.5-.8a34.8 34.8 0 0 1-7.8-19.4c-.3-10.8-1.5-22.2-2.4-31.4l-.2-.2a556.7 556.7 0 0 0-21-5.7c0 1.6 0 3.2.2 4.6 19.3 5.3 21.6 20.3 21.4 32.8-.2 15.1.6 30.3 1.4 46.4.4 6.9.8 14 1 21.4a5.9 5.9 0 0 1-9 5.1l-4.4-2.6a37 37 0 0 1-8.7-6.4c-15-16.5-22-32.5-21.7-50.4v-23.1c.2-2.8-.8-4.7-3.6-7.1a16.8 16.8 0 0 1-5.5-11.2 516 516 0 0 1 0-33.8c.2-3.3 1.9-5.9 3.2-7.9.5-.6.8-1.1 1-1.6l1.3-1.8c1.5-23.7 15-41.4 40-52.7 4.3-1.9 4.6-2.7 4.1-6.8-1.4-12-2.5-24.3-3.5-36.2l-1.3-14.4c-.2-2 .7-4 2.3-5.3 5.8-4.3 12-6.5 18.4-6.5a34 34 0 0 1 19 6.4 5.9 5.9 0 0 1 2.6 5.5l-4.7 42.8v1.1c-.5 4.9-.9 9-.3 10.2.6 1 4.2 3 8.4 5.2l.2.1c22.3 12 33.9 28.4 35.4 50.3 6.3 3.9 5.8 10.7 5.5 14.2l-.1 2.3c.2 8.5.3 18.6-.1 28.9-.2 4-2.3 8.5-5.4 11.2-2.7 2.4-3.6 4.2-3.5 7 .3 7.5.2 15 0 22.3v1.6a73 73 0 0 1-22.7 50.6c-2.2 2.4-5 4-7.8 5.7l-4.4 2.6c-1 .7-2.1 1-3.2 1z" class="cls-4"/><path id="path5071" fill="#f7a706" d="M301.4 141.1c5.3 0 10.5 1.9 15.8 5.4l-4.7 42.8-.1 1.2c-1.2 14.5-1.2 14.4 11.4 21.2 18.6 10 31.2 24.3 32.4 46.4 0 1 .2 2.6.8 2.8 6.7 2.4 4.4 8 4.5 12.6.2 9.4.3 19 0 28.4-.2 2.5-1.6 5.5-3.4 7-3.7 3.3-5.8 6.7-5.6 11.8.3 7.8.2 15.7.1 23.5a67.6 67.6 0 0 1-21 46.7c-2.7 2.7-6.4 4.2-11.3 7.4l1.3-27.4c.7-18.4 1.6-36.7 2.2-55.1.1-3.7 1.3-5.8 4.7-7 1.3-.4 2.6-1.2 3.9-1.8q12.8-6.3 11.2-21.7c-10 2.7-19.9 5.2-29.6 8-1.1.4-2.2 2.8-2.3 4.3-1 9.7-2 19.4-2.3 29-.2 7.7-2.6 14-7.8 20.3-3.6-5.3-7.1-10.2-7.3-17-.3-10.8-1.4-21.5-2.5-32.1-.2-1.8-1.9-4.3-3.4-4.8-9.3-2.8-18.7-5-29.3-7.8 0 5-.3 9.2.1 13.4.2 1.6 2 3.9 3.6 4.2 14.4 3.7 18 13.1 17.8 27.2-.4 22 1.4 44.1 2.4 68.2-4.8-3.2-9-5-12-8.1-11.9-13.1-20.3-28-20.1-46.4 0-7.7-.2-15.3 0-23 .2-5-1.9-8.4-5.5-11.7a11 11 0 0 1-3.6-7c-.3-11-.3-22.3 0-33.4.1-2.3 2.3-4.6 3.6-6.8.6-1.2 1.8-2.3 1.9-3.5 1.1-24.5 15.8-39.2 36.6-48.5 6.6-3 8.2-6.2 7.5-12.8-2-16.8-3.3-33.6-4.9-50.5a25 25 0 0 1 15-5.3m0-11.8c-7.8 0-15.2 2.6-22 7.7-3.3 2.4-5 6.4-4.7 10.5a1355.3 1355.3 0 0 0 4.8 50.8l.1.4-.6.3c-26.7 12-41.3 30.8-43.4 56l-.7 1c0 .2-.4.8-.7 1.2a21 21 0 0 0-4.2 11 514 514 0 0 0 0 34.1c.2 5.5 3 11.5 7.4 15.4 1.7 1.5 1.7 1.9 1.7 2.5-.2 4.9-.1 9.7-.1 14.3v9c-.2 19.2 7.4 37 23.3 54.4 3 3.4 6.6 5.5 10 7.5 1.4.7 2.8 1.5 4 2.4a11.7 11.7 0 0 0 18.3-10.2l-1-21.5c-.4-7.4-.8-14.6-1-21.7 2 2.5 5 4 8.3 4.1h.6c3.4 0 6.6-1.4 8.9-4l-.2 3-.5 12.8-.8 17.6-.4 9.8a11.7 11.7 0 0 0 18.1 10.4l4.1-2.6c3.1-1.8 6.3-3.6 9.2-6.6a78.6 78.6 0 0 0 24.3-54.6v-1.7c.2-7.3.3-14.9 0-22.5 0-.8 0-1 1.5-2.4 4.3-3.7 7.1-9.8 7.4-15.4a470.6 470.6 0 0 0 .2-31 25 25 0 0 0-.8-10 18 18 0 0 0-5-7.7c-2.4-22.4-15.2-40-38.2-52.4h-.2l-5.6-3.2c0-1.6.3-4.2.5-6.6v-1l3.7-33 1-9.8c.5-4.3-1.5-8.6-5.1-11a39.9 39.9 0 0 0-22.3-7.3z" class="cls-2"/></g></g></g><path id="path5078" fill="#900018" d="M310.4 223.8s23.6 22.1 13.3 49.3l22.9-3.4s0-44-36.2-46z" class="cls-3"/><path id="path5080" fill="#f7a706" d="M294.5 223.8S271 245.9 281.2 273l-22.9-3.4s0-44 36.2-46z" class="cls-2"/><path id="path5082" fill="#900018" d="M342 320.6s3.5 36.6-8 49l1.1-42.5z" class="cls-3"/><path id="path5084" fill="#f7a706" d="M262.3 320.6s-3.6 36.6 8 49l-1.2-42.5z" class="cls-2"/></g></svg>