<svg xmlns="http://www.w3.org/2000/svg" width="879" height="658" fill="none" viewBox="0 0 879 658"><g clip-path="url(#a)"><path fill="#005430" fill-rule="evenodd" d="M629.292 15.879c9.997-5.222 20.418-4.213 26.666-2.497h.001c2.567.684 6.48 1.875 10.526 3.383 3.726 1.389 9.011 3.569 13.409 6.5 6.874 4.583 9.605 11.54 10.668 14.608 1.348 3.894 2.085 7.957 2.528 11.34.868 6.64.96 13.581.8 18.227v69.231c1.984.213 3.906.562 5.718 1.004 4.53 1.105 11.274 3.352 16.373 8.969 2.863 3.153 5.096 7.273 5.857 12.155.74 4.746-.109 8.921-1.304 12.064-2.176 5.725-6.059 9.571-8.276 11.529-2.322 2.05-4.778 3.713-6.937 4.972l-11.431 7.393v142.752c3.164-3.669 7.021-6.853 11.517-9.471l2.048-1.194q1.012-.583 2.004-1.141l.361-.2q.183-.097.367-.19c3.007-1.534 5.582-3.13 7.78-4.752.761-.602 1.963-1.824 3.361-4.242a20 20 0 0 1 37.314 10.013v44.27a20 20 0 0 1 24.83-1.641c15.329 10.612 27.878 22.61 34.633 36.542l.58 1.214c5.838 12.554 8.285 26.983 8.31 42.486l.203 13.665a19.9 19.9 0 0 1 9.754-2.538H847.2a20 20 0 0 1 15.067 6.846 20 20 0 0 1 4.75 15.853c-1.524 11.186-4.278 21.663-9.065 30.432l-.027.052-.033.062-.042.077-.001-.001c-3.698 6.84-8.388 12.946-14.168 18.065l-.001-.001c-6.291 5.638-13.681 9.506-21.897 11.47l-.123.028c-5.621 1.307-11.307 1.986-17.027 1.986-7.197 0-14.253-1.119-21.015-3.529q-.194-.068-.388-.141c-7.774-2.952-14.437-7.852-19.491-14.598l-.167-.226a55 55 0 0 1-6.166-10.952c-.772 3.246-1.963 6.496-3.73 9.614-2.878 5.076-6.691 9.494-11.395 13.061q-.155.118-.313.234c-3.231 2.352-6.692 4.525-10.346 6.537l-.226.123a58 58 0 0 0-7.117 4.514c-.884.729-2.052 1.981-3.337 4.152a20 20 0 0 1-27.052 7.224v65.094a20 20 0 0 1-29.528 17.584c-11.808-6.398-20.506-15.791-26.888-25.768a39 39 0 0 1-5.459 4.004l-.008.004c-6.017 3.663-12.647 5.309-19.32 5.309-4.796 0-9.583-.823-14.2-2.603a17 17 0 0 1-.595-.24 34 34 0 0 1-1.051-.466q-.434.176-.872.342l-.017.006-.113.043c-4.711 1.744-9.638 2.795-14.721 3.033q-.468.022-.936.022h-.752c-5.94 0-11.776-1.422-17.13-4.397l-.134-.075a31.5 31.5 0 0 1-4.201-2.844 27 27 0 0 1-2.968 2.534 43 43 0 0 1-4.029 2.59 20 20 0 0 1-21.053 6.984 19.97 19.97 0 0 1-9.477-5.798 37.8 37.8 0 0 1-8.342.937c-3.888 0-7.756-.615-11.503-1.889-3.799 1.355-7.673 1.889-11.295 1.889-2.759 0-5.845-.348-8.978-1.305-3.066.931-6.133 1.305-9.001 1.305-4.197 0-8.358-.79-12.323-2.412l-.34-.142a32 32 0 0 1-3.568-1.815c-7.27 4.702-15.415 7.175-23.863 7.909l.001.001-.008.001h-.007l-.104.01-.001-.002c-1.534.136-3.079.21-4.63.21-6.656 0-13.532-1.22-19.969-4.462-5.68-2.861-10.873-7.025-14.73-12.783l-.047-.07c-3.71-5.591-5.831-12.082-5.831-19.091 0-1.372.088-2.722.251-4.048l-.176.094q-.675.362-1.351.717l-.095.049-.044.022c-5.34 2.74-9.695 5.37-13.175 7.85-.653.466-1.002.804-1.159.974a20 20 0 0 1-12.455 12.684 20 20 0 0 1-17.99-2.491c-4.632-3.229-8.86-6.455-12.622-9.683l-.102-.088c-6.109-5.314-11.315-11.527-14.901-18.781l-.001.001c-3.317-6.641-5.373-13.932-5.373-21.676 0-6.834 1.473-13.33 4.405-19.215-7.312 2.751-15.206 3.929-23.256 3.929-7.196 0-14.254-1.119-21.015-3.529q-.194-.068-.387-.141c-4.196-1.593-8.067-3.755-11.537-6.467q.494 3.284 1.119 6.559c.867 4.53 2.325 8.036 4.14 10.825 2.476 3.262 5.414 5.457 9.112 6.886 1.484.521 4.826 1.22 10.91 1.22a20.002 20.002 0 0 1 18.931 26.449c-2.764 9.288-10.162 14.291-14.545 16.636l.001.002-.149.079-.113.062-.001-.001c-8.537 4.585-17.955 6.469-27.547 6.469-10.325 0-20.51-2.451-30.381-6.683-8.175-3.493-15.59-8.229-22.146-14.187a20 20 0 0 1-.859-.829c-9.4-9.627-15.698-21.92-19.665-35.732l-.034-.116c-3.552-12.656-5.662-24.735-6.026-36.108l-.009-.372a189 189 0 0 0-.093-3.91c-2.757 16.357-9.169 31.225-19.591 44.118-14.209 17.578-34.609 29.932-59.35 38.119-9.662 3.355-20.007 4.876-30.81 4.876-16.546 0-32.946-4.318-44.332-17.191l-.001.001-.043-.049-.024-.026.001-.001C16.031 573.829 12 563.643 12 552.368c0-15.265 6.718-28.458 17.067-39.225l.35-.354 10.023-9.921c7.426-7.351 19.258-7.746 27.159-.907 7.008 6.066 8.824 16.01 4.81 24.044a21 21 0 0 0 1.839.799c2.809 1.071 5.536 1.666 8.233 1.861l3.963.093c7.856-.012 12.956-.844 15.987-1.818a25 25 0 0 0 2.548-.997c.151-1.451.307-3.852.35-7.465a21 21 0 0 1-.1-1.96V415.957c.001-6.624 1.127-14.026 4.967-20.799l.559-.958c2.813-4.682 6.47-8.776 10.957-12.083 3.29-2.485 6.815-4.741 10.537-6.79l.228-.123q.353-.19.706-.388a268 268 0 0 0-2.478-1.695c-7.24-4.79-13.954-10.088-20.111-15.905-10.302-9.644-17.864-22.106-17.864-37.198 0-8.964 2.5-17.421 7.3-24.952 3.742-5.873 8.241-11.203 13.416-15.993l.137-.126q6.6-5.997 13.396-11.318l.15-.116a149 149 0 0 0 5.557-4.468c7.604-6.441 18.789-6.301 26.23.328s8.866 17.724 3.343 26.018l-.45.677a20 20 0 0 1-1.455 1.922 57 57 0 0 0-3.95 5.218c.57.689 1.439 1.619 2.73 2.768l.557.488c4.729 4.143 10.74 8.812 18.141 14.013 6.837 4.799 13.935 10.073 21.295 15.812l.045.035c11.394 8.937 21.47 18.36 30.121 28.3a20 20 0 0 1 5.805-15.908l24.774-24.689c7.817-7.79 20.468-7.776 28.268.032l24.662 24.69c7.787 7.796 7.802 20.422.032 28.236l-4.148 4.171a19.97 19.97 0 0 1 2.759 10.137v11.022c3.035-3.471 6.663-6.526 10.789-9.123q.328-.207.664-.4l3.717-2.142.447-.25q.226-.123.455-.239c3.011-1.536 5.589-3.134 7.789-4.758.762-.605 1.959-1.826 3.352-4.235a20.002 20.002 0 0 1 37.314 10.012v11.396c3.079-3.579 6.785-6.722 11.014-9.384q.329-.207.665-.4l3.716-2.142.447-.25q.226-.123.455-.239c3.011-1.536 5.589-3.134 7.789-4.758.762-.605 1.959-1.826 3.352-4.235a20.001 20.001 0 0 1 37.314 10.012v37.698c8.668-8.574 18.733-15.888 30.034-22.02a410 410 0 0 1 16.673-8.695l.298-.145c8.876-4.201 17.175-8.857 24.917-13.955 5.828-3.862 9.255-7.936 11.246-12.041l.377-.795a20 20 0 0 1 37.963 8.792v51.121c6.539-10.44 14.982-19.211 25.186-26.217 8.894-6.126 18.475-11.829 28.715-17.122a507 507 0 0 0 3.847-2.069V236.339a44 44 0 0 1-5.719-1.003c-4.53-1.104-11.274-3.351-16.373-8.968-2.863-3.153-5.096-7.274-5.857-12.156-.74-4.745.109-8.92 1.304-12.063 2.177-5.726 6.059-9.571 8.276-11.529 2.323-2.051 4.78-3.715 6.939-4.974l13.021-8.421c1.892-6.776 5.41-12.742 10.234-17.757V87.636C620.699 80.672 611.2 68.44 611.2 49.106c0-14.354 5.881-26.85 18.092-33.227m-75.873 552.458q2.016-1.436 2.598-3.315a53 53 0 0 1 3.349 2.564q2.086 1.81 3.076 3.828.992 1.982.992 3.862 0 2.837-1.983 4.853-1.948 1.983-5.4 1.983a8.5 8.5 0 0 0-.752-3.521 5 5 0 0 0-2.359-2.563 4.14 4.14 0 0 0-1.982-.513q-.923 0-1.982.513a5.14 5.14 0 0 0-2.393 2.563 8.5 8.5 0 0 0-.752 3.521l-.034 4.956v14.116q0 2.05-.718 3.316a6.9 6.9 0 0 1-1.846 2.119 23 23 0 0 1-2.495 1.572 24 24 0 0 0-3.008 1.914q-1.436 1.128-2.529 2.974v-23.003q0-1.949.205-3.692.615-4.238 2.7-7.075 2.12-2.837 4.922-4.751a55 55 0 0 1 5.64-3.349q2.768-1.436 4.751-2.872m-104.453-32.915q-.684-1.093-2.051-2.836a51 51 0 0 0 1.914 1.538 59 59 0 0 1 3.692 3.144 18 18 0 0 1 3.11 3.657 7.86 7.86 0 0 1 1.265 4.307q0 .957-.274 1.982-.957 3.043-3.931 5.572a59 59 0 0 1-6.254 4.58 81 81 0 0 0-2.598 1.777l-2.769 2.29q-3.35 2.597-5.981 5.264-2.632 2.666-4.341 6.46 3.999-1.367 7.588-1.367 4.648 0 8.306 2.05a15 15 0 0 1 5.776 5.606q2.12 3.554 2.119 8.135 0 2.734-.854 5.742-2.53 8.374-8.99 12.715-6.425 4.34-15.278 5.092a32 32 0 0 1-2.939.137q-6.358 0-10.972-2.324t-7.109-6.05q-2.496-3.76-2.496-8.032 0-2.7 1.128-5.4 1.095-2.735 3.418-5.23-.615 2.222-.615 4.17 0 3.828 2.051 6.494 2.05 2.632 5.469 4.033 3.452 1.367 7.622 1.367 5.606 0 11.655-2.631 4.854-2.325 7.861-6.358 3.008-4.033 3.008-7.759 0-1.88-.923-3.418-.888-1.572-2.837-2.529-2.666-1.196-5.468-1.196-3.487 0-6.836 1.435-3.316 1.436-5.811 3.623-2.461 2.256-3.418 3.965l-.171.24q-1.025-1.095-1.64-2.632-1.06-2.871-1.06-5.742 0-7.076 5.435-14.493 2.392-3.246 5.127-5.776 5.57-4.99 10.664-8.477 3.623-2.529 6.084-4.648 3.246-2.804 3.247-5.4 0-1.641-.923-3.077m168.882 32.129a14.7 14.7 0 0 0 1.538-2.529l.068.137q.957 1.264 1.538 3.076.308 1.094.308 2.393 0 1.127-.308 2.255-1.401 3.829-4.306 5.845a66 66 0 0 0 3.144 1.846q2.05 1.06 4.512 2.768 1.23.82 2.29 1.914 2.46 2.53 2.461 6.836 0 1.47-.274 2.974-.546 3.794-3.486 7.007-1.538 1.641-3.726 2.973-3.93 2.393-8.92 2.393-3.726 0-7.007-1.265-4.204-1.777-6.324-5.263a10 10 0 0 1-.816-1.661q-.859 1.005-1.884 1.9-3.418 2.973-7.759 4.614-4.34 1.606-8.715 1.812h-.752q-4.033 0-7.417-1.88-3.385-1.914-5.332-5.982-1.949-4.443-1.949-9.057v-1.743q0-3.897 1.231-6.7 1.23-2.803 3.213-4.819a25 25 0 0 1 4.341-3.486 70 70 0 0 1 4.648-2.666q2.735-1.435 4.751-2.871t2.598-3.316a61 61 0 0 1 3.178 2.393q4.58 3.965 4.58 9.638l-.068 1.265q-.376 3.452-2.222 5.879-1.81 2.427-4.511 4.238a71 71 0 0 1-5.572 3.35q-3.315 1.812-4.067 2.29l-.889.513q.786 3.657 2.803 5.332 2.016 1.64 4.683 1.674l.888.035q4.444 0 8.477-1.846 3.153-1.471 5.281-4.28a9.2 9.2 0 0 1 1.247-3.821q1.71-2.631 5.025-4.067.888-.376 1.23-.376.171 0 .171.137 0 .136-.205.478t-.376.786q-.342.752-.342 1.88 0 3.213 2.598 5.982 2.153 1.981 5.605 2.529a13 13 0 0 0 1.88.137q2.53 0 4.922-.821 1.538-.547 2.598-1.333 1.093-.786 1.093-1.674-.068-1.026-1.606-2.085-1.948-1.368-8.34-4.444a228 228 0 0 1-4.136-2.051q-3.008-1.572-8.168-4.443l.649-1.094 4.033-7.724a16.6 16.6 0 0 0 6.426-1.846 17.6 17.6 0 0 0 3.144-1.88q1.435-1.059 2.325-2.256m-110.845-17.329q1.47-1.093 2.598-3.042v25.635a74 74 0 0 1 2.905-1.606q2.734-1.436 4.717-2.837 1.982-1.436 2.563-3.316 6.426 4.443 8.477 8.75 2.085 4.273 2.085 10.664l.034 1.709q0 4.17-.889 7.93a17.1 17.1 0 0 1-3.179 6.733q-2.29 2.974-6.494 4.956-3.862 1.71-7.724 1.709-2.906 0-5.537-.991a12.5 12.5 0 0 1-4.58-2.973 11.2 11.2 0 0 1-1.846-2.686l-.103.19q-1.23 2.29-3.008 3.863-2.87 2.597-7.724 2.597-3.59 0-5.64-1.811-2.016-1.812-2.837-4.956-1.366 3.042-3.657 4.922-2.256 1.845-5.845 1.845-2.495 0-4.751-.922-2.221-.957-4.033-2.837-2.016-2.154-3.042-5.059a18.2 18.2 0 0 1-.991-5.913q0-1.812.376-3.589 1.23-5.195 4.512-8.442 3.28-3.247 7.758-5.674a119 119 0 0 1 4.854-2.529 68 68 0 0 0 8.306-4.649q3.93-2.598 5.639-6.289v33.667q0 1.743.274 2.871t1.093 1.675q.855.547 2.461.547 1.641 0 2.769-.957a6.6 6.6 0 0 0 1.743-2.461q.615-1.47.718-3.076h.002l.032-35q.17-3.965 3.589-5.982l1.094-.615a25 25 0 0 0 3.281-2.051m223.08-213.744q4.842-3.72 8.559-10.146v84.665a699 699 0 0 1 9.684-5.411q8.34-4.334 14.603-8.667l.825-.578q6.532-4.735 8.334-10.935 21.17 14.655 28.04 28.86l.423.888q6.446 13.863 6.446 34.286l.226 15.219-.113 20.293.014 1.405q.099 4.809.887 8.064.9 3.721 3.603 5.525l.363.218q2.784 1.585 7.746 1.586 5.404 0 9.121-3.158 3.716-3.268 5.744-8.116a31.3 31.3 0 0 0 2.364-10.146H847.2q-2.027 14.88-6.869 23.674-4.054 7.554-9.91 12.74-5.743 5.185-13.288 6.989l-.788.178q-5.905 1.287-11.712 1.288l-.953-.01q-7.12-.139-13.349-2.358-6.531-2.48-10.586-7.891-7.31-10.048-7.537-26.232l-.008-1.05v-45.997q0-5.601-2.178-10.906l-.299-.706q-2.365-5.637-7.771-8.342-3.153-1.692-6.531-1.692-3.04 0-6.531 1.692-5.406 2.705-7.883 8.342-2.365 5.636-2.365 11.612v62.907l-.009.835q-.14 6.19-2.356 10.1l-.3.516a22.7 22.7 0 0 1-5.781 6.474l-.941.673a79 79 0 0 1-7.279 4.513 78.4 78.4 0 0 0-9.911 6.313q-4.729 3.72-8.333 9.808v-34.236a43.3 43.3 0 0 1-6.532 7.292c-14.239 6.689-18.47-8.412-18.805-16.798q2.814 1.804 8.107 1.804 5.406 0 9.122-3.156 3.716-3.27 5.743-8.118a31.2 31.2 0 0 0 2.317-9.485l.048-.661V364.098q.873-12.123 11.152-18.427l.673-.4a230 230 0 0 1 3.715-2.142q5.969-3.043 10.811-6.651M272.99 381.685l-24.774-24.802 24.774-24.689 24.662 24.689zm56.982 191.539q-3.266-6.538-3.266-12.739 0-9.47 6.419-16.009 6.531-6.538 17.905-6.538 0 6.087 2.366 11.611 2.477 5.638 7.882 8.455l.395.206q2.969 1.486 6.137 1.486 3.04 0 6.531-1.692 5.405-2.817 7.77-8.455a28.05 28.05 0 0 0 2.478-11.611l.225-28.522q-7.658 11.047-19.932 14.317a53.6 53.6 0 0 1-12.388 1.466q-7.657 0-14.302-2.481-6.53-2.48-10.585-7.891-2.998-4.124-4.805-9.282-3.8 6.55-9.046 11.199-9.46 8.454-25.901 8.455l-.954-.01q-7.119-.139-13.347-2.358-6.124-2.326-10.07-7.227l-.516-.664q-7.2-10.048-7.425-26.232l-.008-1.05v-63.133q0-13.077 11.824-20.293l3.717-2.142q5.969-3.043 10.811-6.651 4.842-3.72 8.558-10.146v99.659l.014 1.405q.099 4.809.887 8.064.9 3.721 3.603 5.525l.349.218q2.692 1.586 7.76 1.586 5.405 0 9.008-3.158 3.717-3.268 5.744-8.116a33.3 33.3 0 0 0 2.252-8.176v-57.887q0-12.852 11.825-20.293l3.716-2.142q5.968-3.043 10.81-6.651 4.842-3.72 8.559-10.147v99.659l.014 1.406q.1 4.809.887 8.064l.119.457q.95 3.376 3.485 5.067 2.814 1.803 8.108 1.803 5.404 0 9.009-3.156 3.716-3.27 5.743-8.117a29.6 29.6 0 0 0 2.477-10.147v-55.803q0-12.852 11.825-20.293l3.715-2.142q5.969-3.043 10.811-6.651 4.842-3.72 8.559-10.147v130.436q0 12.852-4.166 22.096-4.055 9.245-10.586 15.784a77.5 77.5 0 0 1-14.302 11.499q-7.77 4.96-15.316 8.906-9.008 4.622-15.653 9.356-6.643 4.736-8.557 11.049-6.307-4.396-11.037-8.455-6.869-5.975-10.135-12.627M123.328 342.678q-11.236-10.484-11.587-21.921l-.012-.739q.001-7.665 4.167-14.204 4.167-6.54 10.135-12.063a219 219 0 0 1 12.275-10.372 167 167 0 0 0 6.306-5.073l-.45.676q-3.378 3.945-6.419 8.681-2.928 4.735-2.928 10.146 0 8.455 10.698 17.7 8.108 7.103 19.82 15.332l2.463 1.743a520 520 0 0 1 18.032 13.476q21.847 17.136 35.586 35.963 14.527 19.955 14.526 39.232 0 29.875-34.346 45.433 5.293 2.367 10.811 6.877 9.009 6.764 13.513 15.896l.279.574q4.279 8.938 5.915 20.733l.22 1.565q.752 5.523 1.244 11.738l.104 1.339a186 186 0 0 0 2.712 19.968l.266 1.315q2.098 9.783 7.165 17.287 7.208 9.808 18.469 14.092 6.757 2.48 17.905 2.48l-.112.226q-.563 2.931-5.067 5.298-7.658 4.172-18.244 4.172-10.698 0-22.522-5.074-9.235-3.946-16.555-10.597-9.796-10.034-14.752-27.283-4.842-17.248-5.293-31.339-.338-25.254-6.081-33.033-3.603-4.847-8.671-6.313-4.954-1.465-10.36-1.465-3.603 0-6.981.225a97 97 0 0 1-6.419.225v17.249l-.005.946q-.519 59.879-66.888 81.802-10.923 3.834-24.436 3.833-20.158 0-29.392-10.484-6.42-7.215-6.419-16.572 0-13.416 11.486-25.365l10.023-9.921q-4.167 5.636-4.166 10.484 0 6.087 4.842 10.598 4.842 4.621 11.936 7.327t14.415 3.157l4.73.112q13.309 0 21.863-2.644l.547-.174q7.433-2.48 11.036-5.975t4.616-8.342q1.014-4.735 1.014-15.22l-.113.113V415.957q.001-6.764 2.366-10.935 2.364-4.171 6.081-6.877 3.716-2.818 8.22-5.299a72 72 0 0 0 9.797-6.313q4.843-3.72 8.447-9.808v87.258q9.46-.113 18.017-1.691 14.415-2.593 21.847-14.092 3.71-5.788 3.825-13.905l.004-.526q0-20.744-22.522-44.418-16.893-17.586-39.415-32.807-9.572-6.312-17.568-13.866M650.805 75.106c-6.433-1.312-19.198-8.18-19.595-25.183l-.01-.817c0-17.6 13.07-18.267 19.605-16.4 3.998 1.066 13.195 4 17.995 7.2s5.393 19.467 5.09 27.2v110c6.576-.64 7.927-6.933 7.78-10-1.067-4.667.08-13.2 13.2-10l.6.152c12.281 3.263 4.781 10.029-.6 13.048l-20.98 13.568v442.432c-26.577-14.4-34.346-53.199-34.91-70.8V408.065l-6.081 3.608q-11.824 6.764-17.793 14.205t-7.882 17.249q-1.915 9.695-1.915 23.787 0 12.852 1.915 20.067l.208.772q3.29 11.798 10.49 13.545 2.702.564 4.954.564 2.928 0 5.856-1.353 3.15-1.642 5.268-4.204c.985 19.849-13.913 27.683-21.484 29.119l-1.025-.012q-7.66-.178-14.628-3.032-7.319-3.156-13.288-9.357-4.693-5.197-7.679-11.742a39 39 0 0 1-1.443 2.836q-4.054 7.553-9.91 12.739-9.46 8.568-25.45 8.568l-.735-.005q-11.301-.182-17.846-5.97-6.644-5.975-9.347-16.347-4.505 10.034-12.05 16.234-7.432 6.088-19.256 6.088l-1.025-.012q-7.66-.178-14.628-3.032-7.32-3.156-13.288-9.357-6.437-6.88-9.809-16.089l-.213-.596q-3.267-9.583-3.267-19.503 0-5.976 1.239-11.837 3.927-16.601 14.195-27.171l.669-.675q10.812-10.71 25.564-18.715a391 391 0 0 1 15.991-8.343q14.527-6.876 27.364-15.332 12.951-8.568 18.581-20.743v111.045q0 5.75.902 9.471l.119.457q.95 3.375 3.484 5.066 2.815 1.804 8.108 1.804 5.405 0 9.122-3.156 3.716-3.27 5.743-8.118a31.2 31.2 0 0 0 2.122-7.761 92 92 0 0 1-.996-13.545q.113-20.067 8.108-33.145 7.658-12.4 19.82-20.744 12.275-8.455 26.689-15.895a568 568 0 0 0 14.527-8.004V195.906c-6.575.64-7.926 6.933-7.78 10 1.067 4.666-.08 13.2-13.2 10s-5.467-10.134 0-13.2l20.98-13.568q0-12.852 11.825-20.293z" clip-rule="evenodd"/><path fill="#005430" d="m506.323 479.878-.01.774a31.1 31.1 0 0 1-2.355 11.177q-2.252 5.75-7.883 8.68-3.603 1.692-6.644 1.692-5.744 0-9.459-4.51-6.982-8.41-7.201-24.331l-.006-1.035q0-20.292 7.769-31.905 5.969-8.906 19.708-16.797l6.081-3.495zm74.132 95.671q1.88 0 3.452 1.675 1.094 1.402 1.094 2.905 0 2.188-1.709 4.239a14.4 14.4 0 0 1-3.896 3.349q-1.334.786-2.291 1.265l-1.777.957v-7.827q0-2.12.752-3.589.751-1.47 1.914-2.222 1.197-.752 2.461-.752m-65.727 0q.99 0 1.948.513 1.64.82 2.392 2.529a8.65 8.65 0 0 1 .752 3.521v2.495q0 6.358-.957 10.117-1.435 5.64-5.503 5.64-1.709 0-2.529-.991-.786-1.025-1.025-2.564a21 21 0 0 1-.24-3.179l.035-11.518q0-1.812.752-3.521.751-1.708 2.392-2.529 1.059-.513 1.983-.513m-35.376 18.15q0 1.88-.718 3.623-.683 1.743-2.393 2.632-1.093.512-2.016.512-1.745 0-2.871-1.367-2.188-2.631-2.188-7.69 0-6.153 2.358-9.673 1.812-2.7 5.982-5.093l1.846-1.059z"/><path fill="#fff" d="M177.561 512.311q.064 1.862.093 3.91.003.187.009.372c.364 11.373 2.474 23.452 6.026 36.108l.034.116c3.967 13.812 10.265 26.105 19.665 35.732q.417.428.859.83c6.556 5.957 13.971 10.693 22.146 14.186 9.562 4.1 19.42 6.527 29.414 6.675l.967.008c9.592 0 19.01-1.884 27.547-6.469l.001.001.113-.062.149-.079-.001-.002c4.383-2.345 11.781-7.348 14.545-16.636a19.998 19.998 0 0 0-18.282-26.438l-.649-.011c-5.704 0-8.998-.614-10.61-1.121l-.3-.099c-3.698-1.429-6.636-3.624-9.112-6.886-1.815-2.789-3.273-6.295-4.14-10.825q-.625-3.275-1.119-6.559c3.47 2.712 7.341 4.874 11.537 6.467q.193.072.387.142c6.339 2.258 12.938 3.382 19.668 3.514l1.347.014c8.05 0 15.944-1.178 23.256-3.929-2.932 5.885-4.405 12.381-4.405 19.215l.006.725c.124 7.474 2.154 14.518 5.367 20.951l.001-.001c3.586 7.254 8.792 13.467 14.901 18.781l.102.088c3.762 3.228 7.99 6.454 12.622 9.684a20 20 0 0 0 17.421 2.677l.569-.187a20 20 0 0 0 12.455-12.684c.157-.17.506-.508 1.159-.973 3.48-2.481 7.835-5.111 13.175-7.851l.139-.071q.763-.402 1.527-.811a33 33 0 0 0-.251 4.048c0 7.009 2.121 13.5 5.831 19.091l.047.07c3.857 5.758 9.05 9.922 14.73 12.783 6.437 3.242 13.313 4.462 19.969 4.462 1.551 0 3.096-.074 4.63-.21l.001.002.104-.01.015-.001-.001-.001c8.448-.733 16.593-3.207 23.863-7.909a32 32 0 0 0 3.908 1.957 32.4 32.4 0 0 0 11.537 2.403l.786.009c2.868 0 5.935-.374 9.001-1.305 2.937.897 5.833 1.26 8.456 1.302l.522.003c3.622 0 7.496-.534 11.295-1.889a35.6 35.6 0 0 0 10.774 1.882l.729.007a37.8 37.8 0 0 0 8.342-.937 19.97 19.97 0 0 0 9.477 5.798 20 20 0 0 0 21.053-6.984 43 43 0 0 0 3.534-2.236l.495-.354.314-.234a27 27 0 0 0 2.654-2.3 31.5 31.5 0 0 0 4.201 2.844l.134.075c5.186 2.882 10.826 4.307 16.573 4.393l.557.004h.752l.468-.006.468-.016c4.765-.223 9.393-1.162 13.835-2.715l.886-.318.13-.049q.438-.166.872-.342.522.242 1.051.466.296.126.595.241c4.328 1.667 8.806 2.495 13.3 2.592l.9.01c6.673 0 13.303-1.646 19.32-5.309l.008-.004a39 39 0 0 0 5.459-4.004c6.382 9.977 15.08 19.37 26.888 25.768a20 20 0 0 0 19.189-.072l.572-.328a20 20 0 0 0 9.756-16.525l.011-.659v-65.093a20 20 0 0 0 26.834-6.865l.218-.36c1.285-2.171 2.453-3.423 3.337-4.152a59 59 0 0 1 6.229-4.03l.888-.484.226-.123a99 99 0 0 0 9.123-5.664l1.223-.873.313-.234c4.704-3.567 8.517-7.985 11.395-13.061 1.767-3.117 2.958-6.368 3.73-9.614a55 55 0 0 0 6.333 11.178c5.054 6.746 11.717 11.646 19.491 14.598l.388.142c6.339 2.258 12.937 3.382 19.667 3.514l1.348.014c5.363 0 10.695-.597 15.972-1.748l1.055-.237.123-.029c8.216-1.964 15.606-5.832 21.897-11.47l.001.001c5.78-5.119 10.471-11.225 14.168-18.065l.001.001.042-.077.06-.113c4.637-8.496 7.367-18.595 8.918-29.387l.147-1.046a20 20 0 0 0-4.401-15.44l-.349-.413a20 20 0 0 0-14.526-6.839l-.541-.007v-12a32 32 0 0 1 31.707 36.318c-1.629 11.964-4.668 23.986-10.383 34.487l.001.001-.012.025-.058.107-.043.079-.012.021-.039.072-.046.078c-4.288 7.893-9.795 15.086-16.678 21.182l-.082.068c-7.751 6.908-16.888 11.675-26.982 14.088l-.19.045-.006.001-.008.001-.006.002h-.003c-6.465 1.501-13.057 2.294-19.727 2.294-8.452 0-16.882-1.317-25.042-4.225-.143-.051-.37-.132-.62-.227-7.723-2.933-14.654-7.428-20.407-13.408a54.4 54.4 0 0 1-9.533 9.024c-3.682 2.681-7.576 5.12-11.621 7.348l-.362.196a46 46 0 0 0-5.109 3.195 9 9 0 0 0-.67.998 32 32 0 0 1-25.379 15.628v50.578a32 32 0 0 1-47.244 28.135c-9.866-5.345-17.781-12.393-24.113-20.019-7.016 3.465-14.483 5.017-21.846 5.017-5.346 0-10.749-.798-16.041-2.527a60.4 60.4 0 0 1-14.966 2.629q-.767.035-1.498.035h-.752c-7.091 0-14.154-1.536-20.749-4.757-7.983 8.625-20.25 12.325-31.938 9.122a32 32 0 0 1-9.914-4.662q-2.333.226-4.733.228c-3.832 0-7.67-.452-11.448-1.382a46.6 46.6 0 0 1-11.35 1.382c-2.751 0-5.797-.256-8.984-.929-3.116.657-6.15.929-8.995.929a44.4 44.4 0 0 1-15.752-2.868c-7.424 3.665-15.306 5.657-23.21 6.354l-.031.004h.011l-.067.005.009-.001-.033.003.013-.001.035-.002-.047.004-.124.011-.205.013c-1.78.151-3.596.238-5.442.238-8.103 0-16.912-1.486-25.368-5.745-7.239-3.646-14.128-9.098-19.301-16.822l-.076-.113a47.7 47.7 0 0 1-4.298-8.042 32 32 0 0 1-15.806 11.996 32 32 0 0 1-28.784-3.985c-4.583-3.195-8.876-6.446-12.795-9.758l-.779-.663-.163-.14c-4.175-3.632-8.093-7.721-11.514-12.317-5.002 9.063-12.797 14.079-17.159 16.436l-.109.063-.193.104-.002.001-.224.12-.092.046c-10.565 5.629-21.949 7.8-33.039 7.8-12.245 0-24.042-2.909-35.11-7.654-9.087-3.884-17.393-9.127-24.775-15.695l-.712-.64q-.708-.642-1.375-1.326c-10.902-11.164-17.961-25.042-22.348-39.898a105 105 0 0 1-5.152 6.938c-16.056 19.862-38.681 33.287-64.911 41.968l-.001-.001c-10.72 3.699-21.983 5.378-33.462 5.48l-1.117.004c-18.335 0-38.644-4.773-53.172-21.075l-.128-.139-.056-.063-.027-.031v.001l.03.032-.008-.009-.045-.05q-.044-.05-.087-.103C5.278 579.727.162 567.027.004 553.038l-.004-.67c0-19.07 8.462-35.104 20.416-47.541l.107-.111.35-.354.102-.102 10.023-9.921c11.882-11.761 30.814-12.394 43.454-1.452 7.19 6.224 10.96 14.991 11.053 23.868l.053.001c2.691-.007 4.896-.123 6.671-.289v-100.51c0-7.889 1.328-17.546 6.528-26.718l.073-.126.559-.958.08-.136c3.068-5.107 6.951-9.71 11.634-13.61a156 156 0 0 1-9.71-8.434c-11.852-11.094-21.663-26.512-21.663-45.957 0-11.276 3.167-21.967 9.18-31.401 4.32-6.782 9.493-12.897 15.385-18.351l.019-.018.137-.126.064-.058a252 252 0 0 1 14.068-11.885l.029-.022.15-.116.06-.047a137 137 0 0 0 5.108-4.105c12.166-10.305 30.063-10.083 41.968.524 11.766 10.482 14.13 27.942 5.653 41.16 3.446 2.76 7.487 5.788 12.175 9.082 7.021 4.928 14.282 10.324 21.78 16.171l.072.055c6.383 5.007 12.403 10.185 18.033 15.542q.952-1.145 2.016-2.207l24.774-24.689c12.508-12.465 32.749-12.441 45.228.051l24.663 24.69c9.512 9.523 11.775 23.549 6.782 35.216q.092-.146.197-.324a32.002 32.002 0 0 1 57.663 4.779l.026-.014.13-.072q.346-.188.726-.383c2.213-1.128 4.05-2.252 5.573-3.332.13-.173.348-.484.633-.978 7.249-12.534 22.011-18.639 35.996-14.887 13.984 3.753 23.706 16.429 23.706 30.907v12.551a156 156 0 0 1 12.232-7.378 423 423 0 0 1 17.161-8.95l.388-.188.09-.043c8.39-3.973 16.198-8.355 23.45-13.131 4.3-2.855 6.134-5.371 7.047-7.25l.334-.705.063-.131c6.473-13.232 21.176-20.367 35.62-17.189 14.673 3.229 25.123 16.23 25.123 31.253v19.77a104 104 0 0 1 6.378-4.748c8.568-5.902 17.702-11.4 27.37-16.517V246.051c-5.423-1.67-12.877-4.898-18.977-11.618-4.262-4.695-7.667-10.924-8.828-18.372-1.127-7.23.178-13.534 1.943-18.177 3.193-8.399 8.763-13.799 11.551-16.26l.569-.494c2.732-2.341 5.516-4.222 7.955-5.665l9.318-6.026a53.3 53.3 0 0 1 8.294-14.477V93.497c-10.666-9.251-19.605-23.752-19.605-44.39 0-17.61 7.392-34.91 24.536-43.865l.638-.327c13.295-6.682 26.688-5.283 34.568-3.155l.11.027c2.909.776 7.19 2.08 11.624 3.733 3.934 1.466 10.283 4.034 15.874 7.76 10.269 6.847 14.079 16.995 15.35 20.665 1.722 4.972 2.593 9.926 3.088 13.713.963 7.362 1.067 14.877.902 19.966v59.337c5.423 1.67 12.877 4.898 18.976 11.617 4.263 4.695 7.667 10.925 8.828 18.373l.099.675c.947 6.947-.332 13.003-2.042 17.501-3.193 8.399-8.763 13.798-11.551 16.26-2.916 2.575-5.924 4.621-8.534 6.163l-5.776 3.737v112.727a43 43 0 0 0 4.415-2.722c.13-.173.349-.485.635-.981 7.249-12.534 22.012-18.638 35.996-14.886s23.706 16.428 23.706 30.907v27.106a32 32 0 0 1 19.66 5.656c15.82 10.952 30.092 24.14 38.219 40.396l.382.776.035.073.579 1.214.048.104c6.661 14.321 9.311 30.284 9.425 46.673h8.21v12h-10.248c-3.533 0-6.862.92-9.754 2.538l-.203-13.665c-.025-15.502-2.472-29.932-8.31-42.486l-.58-1.214c-6.544-13.496-18.526-25.178-33.205-35.542l-1.428-.999a20 20 0 0 0-24.83 1.64v-44.27a20 20 0 0 0-14.409-19.202l-.408-.115a20 20 0 0 0-22.497 9.304l-.26.439c-1.287 2.13-2.387 3.239-3.101 3.803-2.198 1.622-4.773 3.218-7.78 4.752l-.367.191-.361.199q-.991.558-2.004 1.141l-2.048 1.194c-4.496 2.618-8.353 5.802-11.517 9.471V194.757l11.431-7.393c2.024-1.18 4.309-2.716 6.5-4.592l.437-.38c2.148-1.896 5.859-5.565 8.067-10.998l.209-.531c1.157-3.045 1.99-7.058 1.368-11.62l-.064-.444c-.714-4.576-2.721-8.484-5.327-11.552l-.53-.603c-4.781-5.266-11.006-7.57-15.499-8.748l-.874-.221a44 44 0 0 0-5.718-1.003V67.44c.15-4.355.078-10.73-.647-16.98l-.153-1.246c-.415-3.173-1.088-6.942-2.282-10.61l-.246-.731c-1.03-2.971-3.625-9.594-10.036-14.171l-.632-.437c-3.848-2.565-8.375-4.555-11.943-5.942l-1.466-.558c-4.046-1.508-7.959-2.699-10.526-3.383h-.001l-.598-.159c-6.301-1.615-16.384-2.403-26.068 2.656-12.211 6.378-18.092 18.873-18.092 33.227l.007.9c.29 18.814 9.65 30.775 19.598 37.63v71.832c-4.824 5.015-8.342 10.981-10.234 17.757l-13.021 8.421-.823.491c-1.949 1.19-4.084 2.689-6.116 4.483l-.434.388c-2.262 2.057-5.801 5.773-7.842 11.141l-.22.601c-1.075 3.065-1.777 7.013-1.084 11.463.761 4.881 2.994 9.002 5.857 12.155 5.099 5.617 11.843 7.864 16.373 8.969a44 44 0 0 0 5.719 1.002v143.393a507 507 0 0 1-3.847 2.069c-10.24 5.293-19.821 10.996-28.715 17.122l-.951.663c-9.778 6.893-17.901 15.441-24.235 25.554v-51.121a20 20 0 0 0-37.963-8.792l-.377.795-.191.385c-2.016 3.974-5.409 7.915-11.055 11.656l-1.458.95c-7.323 4.728-15.138 9.066-23.459 13.005l-.298.145a410 410 0 0 0-16.673 8.695l-1.056.578c-10.873 6.012-20.581 13.136-28.978 21.442V385.18a20 20 0 0 0-14.409-19.203l-.408-.114a20 20 0 0 0-22.497 9.305l-.259.437c-1.282 2.122-2.379 3.231-3.093 3.798-2.2 1.624-4.778 3.222-7.789 4.758l-.455.239-.447.25-3.716 2.142q-.336.193-.665.4c-4.229 2.662-7.935 5.805-11.014 9.384V385.18a20 20 0 0 0-14.409-19.203l-.408-.114a20 20 0 0 0-22.497 9.305l-.259.437c-1.282 2.122-2.379 3.231-3.093 3.798-2.2 1.624-4.778 3.222-7.789 4.758l-.455.239-.447.25-3.717 2.142q-.335.193-.664.4c-4.126 2.597-7.754 5.652-10.789 9.123v-11.022c0-3.662-.996-7.139-2.759-10.137l4.148-4.171c7.648-7.692 7.754-20.047.327-27.867l-.359-.369-24.662-24.69c-7.8-7.808-20.451-7.822-28.268-.032l-24.774 24.689-.348.356a20 20 0 0 0-5.457 15.552c-8.11-9.319-17.473-18.183-28-26.619l-2.121-1.681-.045-.035q-9.66-7.535-18.719-13.991l-2.576-1.821c-7.401-5.2-13.412-9.87-18.141-14.013l-.557-.488c-1.291-1.149-2.16-2.079-2.73-2.768a58 58 0 0 1 3.453-4.628l.497-.59q.59-.688 1.113-1.426l.342-.496.45-.677c5.437-8.165 4.141-19.044-2.998-25.705l-.345-.313c-7.441-6.629-18.626-6.769-26.23-.327l-1.293 1.08a157 157 0 0 1-4.264 3.387l-.15.117a239 239 0 0 0-13.396 11.317l-.137.126c-5.175 4.79-9.674 10.12-13.417 15.993l-.443.709c-4.51 7.352-6.856 15.559-6.856 24.243l.005.705c.232 14.776 7.717 27 17.859 36.493 6.157 5.817 12.871 11.115 20.111 15.905q1.25.844 2.478 1.695-.353.198-.706.388l-.228.123c-3.722 2.049-7.247 4.305-10.537 6.79l-.832.629c-4.11 3.191-7.488 7.065-10.125 11.454l-.559.958c-3.84 6.773-4.966 14.175-4.967 20.799v100.561l.007.493q.02.74.093 1.467c-.043 3.613-.199 6.014-.35 7.465-.604.281-1.437.623-2.548.997l-.593.181c-3.086.894-8.029 1.626-15.394 1.637l-3.963-.093c-2.697-.195-5.424-.79-8.233-1.861a21 21 0 0 1-1.84-.799c3.952-7.908 2.254-17.668-4.485-23.757l-.324-.287c-7.9-6.839-19.733-6.444-27.16.907l-10.022 9.921-.35.354C18.717 523.91 12 537.103 12 552.368l.012 1.054c.243 10.856 4.25 20.667 11.4 28.736l-.002.001.024.026.043.049v-.001c11.03 12.47 26.767 16.913 42.783 17.179l1.55.012c10.803 0 21.148-1.521 30.81-4.876 24.354-8.059 44.502-20.156 58.679-37.298l.671-.821c10.422-12.893 16.834-27.761 19.591-44.118m254.698 130.692h.009l.002-.001zm-142.19-28.69-.005.003.026-.014zm534.287-59.406.004-.002.009-.002h.002z"/><path fill="#fff" d="M159.139 492.843q0 60.652-66.892 82.749-10.923 3.833-24.436 3.833-20.158 0-29.392-10.485-6.42-7.215-6.419-16.572 0-13.416 11.486-25.366l10.023-9.921q-4.167 5.637-4.167 10.485 0 6.087 4.843 10.597 4.842 4.623 11.936 7.328t14.415 3.157l4.73.112q13.739 0 22.409-2.818 7.433-2.48 11.036-5.975 3.604-3.495 4.618-8.343 1.013-4.734 1.013-15.219l-.113.113V415.957q0-6.764 2.365-10.935t6.081-6.877q3.717-2.819 8.221-5.299a72 72 0 0 0 9.797-6.313q4.843-3.72 8.446-9.808v87.258q9.46-.113 18.018-1.691 14.415-2.593 21.847-14.092 3.828-5.976 3.829-14.431 0-20.744-22.523-44.418-16.892-17.586-39.414-32.806-9.572-6.313-17.567-13.867-11.6-10.822-11.6-22.66 0-7.665 4.167-14.204t10.135-12.063a219 219 0 0 1 12.275-10.372 169 169 0 0 0 6.306-5.073l-.45.676q-3.378 3.946-6.419 8.681-2.928 4.736-2.928 10.146 0 8.455 10.698 17.7 8.109 7.103 19.82 15.332 9.797 6.878 20.495 15.219 21.847 17.136 35.586 35.963 14.526 19.955 14.527 39.233 0 29.875-34.347 45.432 5.293 2.368 10.811 6.877 9.009 6.764 13.513 15.896 4.505 9.132 6.194 21.307.901 6.2 1.464 13.303a186 186 0 0 0 2.815 21.307q2.028 10.598 7.433 18.602 7.207 9.808 18.468 14.092 6.757 2.48 17.905 2.48l-.112.226q-.564 2.931-5.068 5.298-7.658 4.171-18.243 4.171-10.699 0-22.522-5.073-9.236-3.946-16.554-10.597-9.797-10.034-14.753-27.282-4.842-17.249-5.292-31.341-.339-25.253-6.081-33.032-3.604-4.847-8.672-6.313-4.954-1.465-10.36-1.465-3.603 0-6.982.225a97 97 0 0 1-6.419.225z"/><path fill="#fff" d="M287.855 525.198q-7.657 0-14.302-2.367-6.532-2.48-10.585-7.892-7.433-10.371-7.433-27.282v-63.132q0-13.077 11.825-20.293l3.716-2.142q5.968-3.043 10.811-6.651 4.842-3.72 8.558-10.146v99.659q0 5.75.901 9.469.901 3.721 3.604 5.525 2.702 1.803 8.108 1.803 5.404 0 9.009-3.156 3.716-3.27 5.743-8.117a33.5 33.5 0 0 0 2.477-10.147h10.135q-2.026 14.882-6.756 23.675-4.054 7.554-9.91 12.739-9.46 8.455-25.901 8.455M272.99 381.685l-24.775-24.802 24.775-24.689 24.662 24.689z"/><path fill="#fff" d="M351.143 594.306q-6.306-4.397-11.036-8.455-6.869-5.975-10.135-12.627-3.266-6.538-3.266-12.739 0-9.47 6.419-16.009 6.531-6.538 17.905-6.538 0 6.087 2.365 11.611 2.478 5.637 7.883 8.456 3.153 1.69 6.532 1.691 3.04 0 6.531-1.691 5.406-2.819 7.77-8.456a28.05 28.05 0 0 0 2.478-11.611l.225-28.523q-7.658 11.049-19.932 14.318a53.6 53.6 0 0 1-12.388 1.465q-7.658 0-14.301-2.48-6.532-2.48-10.586-7.891-7.545-10.373-7.545-27.282v-63.133q0-12.852 11.824-20.292l3.717-2.142q5.968-3.045 10.81-6.652 4.843-3.72 8.559-10.146v99.659q0 5.749.901 9.47.9 3.72 3.603 5.524 2.816 1.803 8.108 1.804 5.406 0 9.009-3.157 3.716-3.27 5.744-8.117a29.6 29.6 0 0 0 2.477-10.146v-55.805q0-12.852 11.824-20.292l3.717-2.142q5.968-3.045 10.81-6.652 4.843-3.72 8.559-10.146v130.436q0 12.852-4.167 22.096-4.053 9.245-10.585 15.783a77.4 77.4 0 0 1-14.302 11.499q-7.77 4.96-15.315 8.907-9.01 4.622-15.653 9.357-6.645 4.734-8.559 11.048m187.95-68.882q-11.825 0-18.581-5.975-6.644-5.974-9.347-16.347-4.504 10.034-12.049 16.234-7.433 6.088-19.257 6.088-8.221 0-15.653-3.044-7.32-3.156-13.288-9.357-6.645-7.103-10.023-16.685-3.266-9.583-3.266-19.503 0-5.976 1.239-11.838 4.055-17.136 14.865-27.846t25.563-18.714a389 389 0 0 1 15.991-8.342q14.526-6.878 27.365-15.332 12.95-8.568 18.581-20.744v111.045q0 5.75.9 9.47.901 3.72 3.604 5.524 2.816 1.804 8.108 1.804 5.406 0 9.122-3.157 3.716-3.269 5.743-8.117a31.3 31.3 0 0 0 2.365-10.146h10.135q-1.802 14.881-6.757 23.675-4.054 7.553-9.91 12.739-9.459 8.568-25.45 8.568M489.431 502.2q3.04 0 6.644-1.691 5.63-2.93 7.883-8.68a31.1 31.1 0 0 0 2.365-11.951v-59.75l-6.081 3.495q-13.74 7.891-19.707 16.798-7.771 11.612-7.771 31.904 0 16.685 7.207 25.366 3.717 4.509 9.46 4.509m249.211 2.368q0 6.764-2.365 10.935t-6.081 6.99q-3.717 2.706-8.221 5.186a78.4 78.4 0 0 0-9.91 6.313q-4.73 3.72-8.333 9.808V364.098q.901-12.513 11.824-18.827a230 230 0 0 1 3.717-2.142q5.967-3.043 10.81-6.651 4.842-3.72 8.559-10.146v84.665a710 710 0 0 1 9.684-5.412q8.897-4.622 15.428-9.244 6.532-4.735 8.334-10.936 21.171 14.656 28.04 28.861 6.87 14.092 6.869 35.174l.226 15.219-.113 20.293q0 5.75.901 9.469.901 3.721 3.604 5.525 2.814 1.803 8.108 1.803 5.405 0 9.121-3.156 3.717-3.27 5.743-8.117a31.3 31.3 0 0 0 2.365-10.147H847.2q-2.027 14.882-6.869 23.675-4.054 7.554-9.91 12.739-5.743 5.186-13.288 6.99-6.307 1.465-12.5 1.465-7.659 0-14.302-2.367-6.532-2.48-10.586-7.892-7.545-10.371-7.545-27.282v-45.996q0-5.975-2.477-11.612-2.365-5.637-7.77-8.342-3.154-1.692-6.532-1.692-3.04 0-6.531 1.692-5.406 2.705-7.883 8.342-2.365 5.637-2.365 11.612zM694.87 170.306l-20.98 13.568v-6.768c6.576-.64 7.926-6.933 7.78-10-1.067-4.667.08-13.2 13.2-10s5.466 10.133 0 13.2m-55.89 18.832L618 202.706c-5.467 3.067-13.12 10 0 13.2s14.267-5.333 13.2-10c-.147-3.067 1.204-9.36 7.78-10zm11.824-20.292 3.491-1.917q6.08-3.156 10.924-6.764 4.954-3.72 8.671-10.259v-82.8c.303-7.733-.29-24-5.09-27.2s-13.997-6.133-17.996-7.2c-6.534-1.867-19.604-1.2-19.604 16.4s13.07 24.666 19.604 26zm20.946 356.578q-11.824 0-18.581-5.975-6.644-5.974-9.347-16.347-2.093 4.662-4.842 8.497v43.907c.563 17.6 8.333 56.4 34.91 70.8V525.384q-1.055.04-2.14.04"/><path fill="#fff" fill-rule="evenodd" d="M671.75 525.424q-11.824 0-18.581-5.975-6.644-5.974-9.347-16.347-2.093 4.662-4.842 8.497V408.065l-6.081 3.608q-11.825 6.764-17.793 14.205t-7.883 17.248q-1.914 9.696-1.914 23.788 0 12.852 1.914 20.067 3.266 12.514 10.699 14.317 2.702.564 4.954.564 2.928 0 5.856-1.353 3.15-1.642 5.268-4.204c.985 19.849-13.912 27.683-21.484 29.119q-8.22 0-15.653-3.044-7.32-3.156-13.288-9.357-7.433-8.23-10.586-19.842a91.6 91.6 0 0 1-3.153-23.9q.113-20.067 8.108-33.144 7.658-12.401 19.82-20.744 12.274-8.455 26.689-15.896a567 567 0 0 0 14.527-8.004V189.138q0-12.852 11.824-20.292l3.491-1.917q6.08-3.156 10.924-6.764 4.954-3.72 8.671-10.259v375.478q-1.055.04-2.14.04m25.451-8.568q5.855-5.186 9.909-12.739 4.956-8.794 6.757-23.675h-10.135a31.3 31.3 0 0 1-2.365 10.146q-2.027 4.848-5.743 8.117-3.716 3.157-9.122 3.157-5.292 0-8.108-1.804c.336 8.387 4.567 23.487 18.807 16.798" clip-rule="evenodd"/><path fill="#fff" d="M426.476 611.267q-6.358 0-10.972-2.324t-7.109-6.05q-2.496-3.76-2.496-8.032 0-2.7 1.128-5.401 1.095-2.734 3.418-5.229-.615 2.222-.615 4.17 0 3.828 2.051 6.494 2.05 2.632 5.469 4.033 3.452 1.367 7.622 1.367 5.606 0 11.655-2.631 4.854-2.325 7.861-6.358 3.008-4.033 3.008-7.759 0-1.88-.923-3.418-.888-1.572-2.837-2.529-2.666-1.196-5.468-1.196-3.487 0-6.836 1.435-3.316 1.436-5.811 3.623-2.461 2.256-3.418 3.965l-.171.24q-1.025-1.095-1.64-2.632-1.06-2.87-1.06-5.743 0-7.074 5.435-14.492 2.392-3.246 5.127-5.776 5.57-4.99 10.664-8.477 3.623-2.529 6.084-4.648 3.246-2.804 3.247-5.4 0-1.641-.923-3.077-.684-1.093-2.051-2.837a51 51 0 0 0 1.914 1.539 59 59 0 0 1 3.692 3.144 18 18 0 0 1 3.11 3.657 7.86 7.86 0 0 1 1.265 4.307q0 .957-.274 1.982-.957 3.042-3.931 5.572a59 59 0 0 1-6.254 4.58 81 81 0 0 0-2.598 1.777l-2.769 2.29q-3.35 2.597-5.981 5.264-2.632 2.665-4.341 6.46 3.999-1.367 7.588-1.367 4.648 0 8.306 2.05a15 15 0 0 1 5.776 5.606q2.12 3.554 2.119 8.135 0 2.734-.854 5.742-2.53 8.374-8.99 12.715-6.425 4.34-15.278 5.092a32 32 0 0 1-2.939.137m62.822-3.76q-3.59 0-5.64-1.811-2.016-1.812-2.837-4.956-1.366 3.042-3.657 4.922-2.256 1.845-5.845 1.845-2.495 0-4.751-.923-2.221-.957-4.033-2.836-2.016-2.154-3.042-5.059a18.2 18.2 0 0 1-.991-5.913q0-1.812.376-3.589 1.23-5.196 4.512-8.442 3.28-3.247 7.758-5.674a119 119 0 0 1 4.854-2.529 68 68 0 0 0 8.306-4.649q3.93-2.598 5.639-6.289v33.667q0 1.743.274 2.871t1.093 1.675q.855.547 2.461.547 1.641 0 2.769-.957a6.6 6.6 0 0 0 1.743-2.461q.615-1.47.718-3.076h3.076q-.547 4.511-2.051 7.177-1.23 2.29-3.008 3.863-2.87 2.597-7.724 2.597m-15.073-7.041q.923 0 2.016-.512 1.71-.89 2.393-2.632a9.4 9.4 0 0 0 .718-3.623v-18.116l-1.846 1.06q-4.17 2.393-5.982 5.093-2.358 3.52-2.358 9.673 0 5.058 2.188 7.69 1.127 1.368 2.871 1.367"/><path fill="#fff" d="M512.096 607.507q-2.906 0-5.537-.991a12.5 12.5 0 0 1-4.58-2.974q-2.872-3.11-2.974-7.519l.034-37.153q.17-3.965 3.589-5.982l1.094-.615a25 25 0 0 0 3.281-2.051q1.47-1.093 2.598-3.042v25.635a75 75 0 0 1 2.905-1.607q2.734-1.435 4.717-2.836 1.982-1.436 2.563-3.316 6.426 4.443 8.477 8.75 2.085 4.272 2.085 10.664l.034 1.709q0 4.17-.889 7.93a17.1 17.1 0 0 1-3.179 6.733q-2.29 2.974-6.494 4.956-3.862 1.71-7.724 1.709m1.264-7.143q4.068 0 5.503-5.64.957-3.76.957-10.117v-2.495q0-1.812-.752-3.521-.751-1.708-2.392-2.529-.957-.513-1.948-.513-.924 0-1.983.513-1.64.82-2.392 2.529a8.65 8.65 0 0 0-.752 3.521l-.035 11.518q0 1.607.24 3.179.239 1.538 1.025 2.564.82.99 2.529.991m32.437.82q0 2.05-.718 3.316a6.9 6.9 0 0 1-1.846 2.119 23 23 0 0 1-2.495 1.572 24 24 0 0 0-3.008 1.914q-1.436 1.128-2.529 2.974v-23.003q0-1.949.205-3.692.615-4.238 2.7-7.075 2.12-2.837 4.922-4.751a55 55 0 0 1 5.64-3.35q2.768-1.435 4.751-2.871 2.016-1.436 2.598-3.315a53 53 0 0 1 3.349 2.563q2.086 1.812 3.076 3.829.992 1.982.992 3.862 0 2.837-1.983 4.853-1.948 1.983-5.4 1.983a8.5 8.5 0 0 0-.752-3.521 4.98 4.98 0 0 0-2.359-2.563 4.14 4.14 0 0 0-1.982-.513q-.923 0-1.982.513a5.14 5.14 0 0 0-2.393 2.563 8.5 8.5 0 0 0-.752 3.521l-.034 4.956zm29.531-11.245 1.777-.957a39 39 0 0 0 2.291-1.265 14.4 14.4 0 0 0 3.896-3.349q1.709-2.051 1.709-4.239 0-1.503-1.094-2.905-1.572-1.674-3.452-1.675-1.264 0-2.461.752-1.163.752-1.914 2.222-.752 1.47-.752 3.589zm4.854 17.637h-.752q-4.033 0-7.417-1.88-3.385-1.914-5.332-5.982-1.949-4.443-1.949-9.057v-1.743q0-3.897 1.231-6.7 1.23-2.803 3.213-4.819a25 25 0 0 1 4.341-3.486 70 70 0 0 1 4.648-2.666q2.735-1.435 4.751-2.871t2.598-3.316a60 60 0 0 1 3.178 2.393q4.58 3.965 4.58 9.638l-.068 1.265q-.376 3.452-2.222 5.879-1.81 2.427-4.511 4.238a71 71 0 0 1-5.572 3.35q-3.315 1.812-4.067 2.29l-.889.513q.786 3.657 2.803 5.332 2.016 1.64 4.683 1.674l.888.035q4.444 0 8.477-1.846 4.033-1.88 6.392-5.947h2.495a17.56 17.56 0 0 1-5.025 7.28q-3.418 2.973-7.759 4.614-4.34 1.606-8.715 1.812"/><path fill="#fff" d="M612.687 607.439q-3.726 0-7.007-1.265-4.204-1.777-6.324-5.263-1.332-2.188-1.333-4.444.035-2.631 1.299-4.751 1.71-2.631 5.025-4.067.888-.376 1.23-.376.171 0 .171.137 0 .136-.205.478t-.376.786q-.342.752-.342 1.88 0 3.213 2.598 5.982 2.153 1.981 5.605 2.529a13 13 0 0 0 1.88.137q2.53 0 4.922-.821 1.538-.547 2.598-1.333 1.093-.786 1.093-1.674-.068-1.026-1.606-2.085-1.948-1.368-8.34-4.444a228 228 0 0 1-4.136-2.051q-3.008-1.572-8.168-4.443l.649-1.094 4.033-7.724a16.6 16.6 0 0 0 6.426-1.846 17.6 17.6 0 0 0 3.144-1.88q1.435-1.059 2.325-2.256a14.7 14.7 0 0 0 1.538-2.529l.068.137q.957 1.264 1.538 3.076.308 1.094.308 2.392 0 1.128-.308 2.256-1.401 3.829-4.306 5.845a66 66 0 0 0 3.144 1.846q2.05 1.06 4.512 2.768 1.23.82 2.29 1.914 2.46 2.53 2.461 6.836 0 1.47-.274 2.974-.546 3.794-3.486 7.007-1.538 1.641-3.726 2.973-3.93 2.393-8.92 2.393"/></g><defs><clipPath id="a"><path fill="#fff" d="M0 0h879v658H0z"/></clipPath></defs></svg>