<svg xmlns="http://www.w3.org/2000/svg" id="Layer_1" data-name="Layer 1" version="1.1" width="332.28" height="332.28"><defs id="defs4"><style id="style2">.cls-16{fill:#33d9ff}.cls-9{fill:#724925}.cls-15,.cls-8{fill:#b59261}.cls-16,.cls-17{stroke-miterlimit:10}.cls-11,.cls-19{fill:#4c2c11}.cls-10,.cls-11,.cls-15,.cls-18,.cls-19,.cls-8,.cls-9{stroke:#4c2c11;stroke-linecap:round;stroke-linejoin:round}.cls-8,.cls-9{stroke-width:5.34px}.cls-9{opacity:.5}.cls-10,.cls-17{fill:none}.cls-10,.cls-15{stroke-width:4.81px}.cls-11{stroke-width:3.44px}.cls-16,.cls-17{stroke:#4b2d15;stroke-width:6.41px}.cls-18{fill:#875f30;stroke-width:3.16px}.cls-19{stroke-width:3.43px}</style></defs><circle cx="0" cy="234.957" r="166.14" transform="rotate(-45)" id="circle144" style="fill:#33d9ff"/><circle cx="0" cy="234.957" r="158.66" transform="rotate(-45)" id="circle146" style="fill:#4c2c11"/><circle class="cls-8" cx="0" cy="234.957" r="146.91" transform="rotate(-45)" id="circle148" style="fill:#b59261;stroke:#4c2c11;stroke-width:5.34000015px;stroke-linecap:round;stroke-linejoin:round"/><path class="cls-9" d="M166.138 19.235c-81 0-146.92 65.9-146.92 146.91 0 81.01 65.91 146.91 146.92 146.91z" id="path150" style="opacity:.5;fill:#724925;stroke:#4c2c11;stroke-width:5.34000015px;stroke-linecap:round;stroke-linejoin:round"/><circle class="cls-10" cx="0" cy="234.957" r="130.89" transform="rotate(-45)" id="circle152" style="fill:none;stroke:#4c2c11;stroke-width:4.80999994px;stroke-linecap:round;stroke-linejoin:round"/><path class="cls-10" d="M230.308 261.365a114.68 114.68 0 0 1-127.22.76" id="path154" style="fill:none;stroke:#4c2c11;stroke-width:4.80999994px;stroke-linecap:round;stroke-linejoin:round"/><path class="cls-10" d="M101.958 70.925a114.65 114.65 0 0 1 127-.91" id="path156" style="fill:none;stroke:#4c2c11;stroke-width:4.80999994px;stroke-linecap:round;stroke-linejoin:round"/><circle class="cls-10" cx="-123.519" cy="199.847" r="98.84" transform="rotate(-76.72)" id="circle158" style="fill:none;stroke:#4c2c11;stroke-width:4.80999994px;stroke-linecap:round;stroke-linejoin:round"/><path class="cls-11" d="M94.098 245.295a5.93 5.93 0 0 1 .57 2.85h-.44a5.78 5.78 0 0 0-.55-2.66 7.8 7.8 0 0 0-1.8-2.6 6.14 6.14 0 0 0-3.44-1.92 3.18 3.18 0 0 0-2.73 1 2.88 2.88 0 0 0-.9 1.9 4.24 4.24 0 0 0 .42 1.95 22.35 22.35 0 0 0 1.38 2.38 23.64 23.64 0 0 1 1.44 2.57 4.45 4.45 0 0 1 .4 2.13 3.35 3.35 0 0 1-1 2.13 3.77 3.77 0 0 1-1.83 1.06 4 4 0 0 1-2.32-.19 7.28 7.28 0 0 1-2.57-1.71 8.32 8.32 0 0 1-1.55-2.06 7.28 7.28 0 0 1-.79-2.26l.44-.09a6.79 6.79 0 0 0 .79 2.22 7.56 7.56 0 0 0 1.4 1.86 5.69 5.69 0 0 0 3.38 1.83 3.27 3.27 0 0 0 2.74-1 2.91 2.91 0 0 0 .9-1.91 4 4 0 0 0-.42-2 23.26 23.26 0 0 0-1.38-2.43 22.81 22.81 0 0 1-1.42-2.55 4.42 4.42 0 0 1-.42-2.1 3.28 3.28 0 0 1 1-2.09 3.61 3.61 0 0 1 1.85-1 4 4 0 0 1 2.34.22 7.67 7.67 0 0 1 2.6 1.75 8.64 8.64 0 0 1 1.91 2.72z" id="path160" style="fill:#4c2c11;stroke:#4c2c11;stroke-width:3.44000006px;stroke-linecap:round;stroke-linejoin:round"/><path class="cls-11" d="M66.538 234.865a7 7 0 0 1 3.07-4.41l7.54-5.63.27.37-4.28 3.19 7.06 9.45 4.28-3.2.28.38-7.54 5.63a7 7 0 0 1-5.11 1.68 7.08 7.08 0 0 1-5.57-7.46zm6.25-6.21-2.94 2.19a6.61 6.61 0 0 0-2.88 4.09 6.69 6.69 0 0 0 5.2 7 6.59 6.59 0 0 0 4.73-1.61l3-2.2z" id="path162" style="fill:#4c2c11;stroke:#4c2c11;stroke-width:3.44000006px;stroke-linecap:round;stroke-linejoin:round"/><path class="cls-11" d="M55.778 215.905a6.58 6.58 0 0 1 3.61-3.61l8.73-4.35.21.42-8.72 4.34a6.21 6.21 0 0 0-3.38 3.36 5.66 5.66 0 0 0 .52 4.52 5.48 5.48 0 0 0 3.37 3.11 7.07 7.07 0 0 0 5.06-.85l8.3-4.13.2.41-14.51 7.17-.21-.41 3.46-1.72a5.34 5.34 0 0 1-3.57-.59 6.49 6.49 0 0 1-2.54-2.85 6.15 6.15 0 0 1-.53-4.82z" id="path164" style="fill:#4c2c11;stroke:#4c2c11;stroke-width:3.44000006px;stroke-linecap:round;stroke-linejoin:round"/><path class="cls-11" d="M47.078 187.525a7 7 0 0 1 4.62-2.74l9.19-2 .1.45-5.22 1.14 2.51 11.52 5.22-1.14.1.46-9.2 2a7 7 0 0 1-5.34-.57 7.08 7.08 0 0 1-2-9.11zm8.26-3.07-3.59.79a6.56 6.56 0 0 0-4.31 2.52 6.68 6.68 0 0 0 1.85 8.5 6.58 6.58 0 0 0 5 .5l3.59-.78z" id="path166" style="fill:#4c2c11;stroke:#4c2c11;stroke-width:3.44000006px;stroke-linecap:round;stroke-linejoin:round"/><path class="cls-11" d="M45.148 165.795a6.6 6.6 0 0 1 4.77-1.81l9.75-.32v.46l-9.73.32a6.3 6.3 0 0 0-4.48 1.65 5.7 5.7 0 0 0-1.41 4.33 5.51 5.51 0 0 0 1.77 4.23 7.07 7.07 0 0 0 5 1.33l9.27-.3v.46l-16.17.53v-.46l3.86-.13a5.27 5.27 0 0 1-3-2 6.48 6.48 0 0 1-1.12-3.65 6.18 6.18 0 0 1 1.49-4.64z" id="path168" style="fill:#4c2c11;stroke:#4c2c11;stroke-width:3.44000006px;stroke-linecap:round;stroke-linejoin:round"/><path class="cls-11" d="M47.198 145.985a10.33 10.33 0 0 0-1.49 2.63 14.35 14.35 0 0 0-.79 2.92l15.7 1.9v.46l-15.7-1.9a12 12 0 0 0 .06 3 11.32 11.32 0 0 0 .83 2.94l-.4.18a12.57 12.57 0 0 1 1.5-12.39z" id="path170" style="fill:#4c2c11;stroke:#4c2c11;stroke-width:3.44000006px;stroke-linecap:round;stroke-linejoin:round"/><path class="cls-11" d="M61.738 141.295a7.83 7.83 0 0 1-3.63 2.07 8.56 8.56 0 0 1-8-2.27 7.85 7.85 0 0 1-2-3.66 8.92 8.92 0 0 1 2.28-8.14 7.8 7.8 0 0 1 3.62-2.07 8.11 8.11 0 0 1 4.31.09 8 8 0 0 1 3.72 2.18 7.78 7.78 0 0 1 2 3.66 9 9 0 0 1-2.3 8.15zm1.87-8a7.44 7.44 0 0 0-1.91-3.47 8.06 8.06 0 0 0-7.59-2.14 7.44 7.44 0 0 0-3.43 2 8.45 8.45 0 0 0-2.17 7.68 7.46 7.46 0 0 0 1.9 3.47 8.08 8.08 0 0 0 7.59 2.14 7.39 7.39 0 0 0 3.44-2 8.45 8.45 0 0 0 2.17-7.68z" id="path172" style="fill:#4c2c11;stroke:#4c2c11;stroke-width:3.44000006px;stroke-linecap:round;stroke-linejoin:round"/><path class="cls-11" d="M59.838 108.585a6.55 6.55 0 0 1 5.06.65l8.75 4.31-.21.42-8.73-4.31a6.21 6.21 0 0 0-4.73-.65 5.68 5.68 0 0 0-3.28 3.15 5.5 5.5 0 0 0-.43 4.56 7 7 0 0 0 3.74 3.51l8.32 4.1-.21.42-14.51-7.16.2-.41 3.47 1.7a5.3 5.3 0 0 1-1.7-3.19 6.44 6.44 0 0 1 .74-3.75 6.1 6.1 0 0 1 3.52-3.35z" id="path174" style="fill:#4c2c11;stroke:#4c2c11;stroke-width:3.44000006px;stroke-linecap:round;stroke-linejoin:round"/><path class="cls-11" d="m65.508 97.295 12.64 8.62 2-2.94.36.25-4.27 6.26-.37-.24 2-2.95-12.64-8.62-2 2.94-.36-.25 4.27-6.26.37.24z" id="path176" style="fill:#4c2c11;stroke:#4c2c11;stroke-width:3.44000006px;stroke-linecap:round;stroke-linejoin:round"/><path class="cls-11" d="M84.268 96.815a7.82 7.82 0 0 1-4.18.21 8.52 8.52 0 0 1-6.14-5.64 7.81 7.81 0 0 1-.14-4.18 9 9 0 0 1 5.73-6.23 7.89 7.89 0 0 1 4.17-.22 8.59 8.59 0 0 1 6.15 5.65 7.9 7.9 0 0 1 .13 4.18 9 9 0 0 1-5.72 6.23zm5.28-6.31a7.4 7.4 0 0 0-.14-4 8 8 0 0 0-5.8-5.33 7.31 7.31 0 0 0-4 .2 8.4 8.4 0 0 0-5.39 5.87 7.36 7.36 0 0 0 .13 3.95 8.07 8.07 0 0 0 5.81 5.34 7.37 7.37 0 0 0 3.95-.2 8.44 8.44 0 0 0 5.4-5.87z" id="path178" style="fill:#4c2c11;stroke:#4c2c11;stroke-width:3.44000006px;stroke-linecap:round;stroke-linejoin:round"/><circle cx="166.138" cy="166.145" r="82.82" id="circle180" style="fill:#4b2d15;stroke:#4b2d15;stroke-width:5.34000015px;stroke-miterlimit:10"/><circle cx="-123.519" cy="199.847" r="72.14" transform="rotate(-76.72)" id="circle182" style="fill:#33d9ff;stroke:#4b2d15;stroke-width:5.34000015px;stroke-miterlimit:10"/><path class="cls-8" id="polygon184" style="fill:#b59261;stroke:#4c2c11;stroke-width:5.34000015px;stroke-linecap:round;stroke-linejoin:round" transform="translate(-99.612 -260.705)" d="m289.34 295.15-3.9-3.9-12.29 6.33-4.22-13.17h-5.51l-4.22 13.17-12.29-6.33-3.9 3.9 6.33 12.29-13.16 4.22v5.51l13.16 4.21-6.33 12.3 3.9 3.89 12.29-6.32 4.22 13.16h5.51l4.22-13.16 12.29 6.32 3.9-3.89-6.33-12.3 13.17-4.21v-5.51l-13.17-4.22z"/><circle cx="166.568" cy="53.835" r="9.41" id="circle186" style="fill:#724925;stroke:#4c2c11;stroke-width:5.34000015px;stroke-linecap:round;stroke-linejoin:round"/><path class="cls-15" id="polygon188" style="fill:#b59261;stroke:#4c2c11;stroke-width:4.80999994px;stroke-linecap:round;stroke-linejoin:round" transform="translate(-99.612 -260.705)" d="m289.34 520-3.9-3.89-12.29 6.33-4.22-13.17h-5.51l-4.22 13.17-12.29-6.33-3.9 3.89 6.33 12.3-13.16 4.21v5.51l13.16 4.22-6.33 12.29 3.9 3.9 12.29-6.33 4.22 13.17h5.51l4.22-13.17 12.29 6.33 3.9-3.9-6.33-12.29 13.17-4.22v-5.51l-13.17-4.21z"/><path class="cls-9" id="polygon190" style="opacity:.5;fill:#724925;stroke:#4c2c11;stroke-width:5.34000015px;stroke-linecap:round;stroke-linejoin:round" transform="translate(-99.612 -260.705)" d="m289.34 520-3.9-3.89-12.29 6.33-4.22-13.17h-5.51l-4.22 13.17-12.29-6.33-3.9 3.89 6.33 12.3-13.16 4.21v5.51l13.16 4.22-6.33 12.29 3.9 3.9 12.29-6.33 4.22 13.17h5.51l4.22-13.17 12.29 6.33 3.9-3.9-6.33-12.29 13.17-4.22v-5.51l-13.17-4.21z"/><circle class="cls-15" cx="166.568" cy="278.695" r="9.41" id="circle192" style="fill:#b59261;stroke:#4c2c11;stroke-width:4.80999994px;stroke-linecap:round;stroke-linejoin:round"/><path class="cls-16" id="line194" style="fill:#33d9ff;stroke:#4b2d15;stroke-width:6.40999985px;stroke-miterlimit:10" d="M166.228 82.105v168.93"/><path class="cls-16" id="line196" style="fill:#33d9ff;stroke:#4b2d15;stroke-width:6.40999985px;stroke-miterlimit:10" d="M81.768 166.565h168.93"/><path class="cls-17" d="M85.218 148.435h81s48.49 1.45 53.11-45.76" id="path198" style="fill:none;stroke:#4b2d15;stroke-width:6.40999985px;stroke-miterlimit:10"/><path class="cls-17" d="M245.508 183.295h-81s-48.49-1.45-53.1 45.76" id="path200" style="fill:none;stroke:#4b2d15;stroke-width:6.40999985px;stroke-miterlimit:10"/><circle class="cls-18" cx="208.508" cy="68.755" r="1.26" id="circle202" style="fill:#875f30;stroke:#4c2c11;stroke-width:3.16000009px;stroke-linecap:round;stroke-linejoin:round"/><circle class="cls-18" cx="196.028" cy="79.725" r="1.26" id="circle204" style="fill:#875f30;stroke:#4c2c11;stroke-width:3.16000009px;stroke-linecap:round;stroke-linejoin:round"/><circle class="cls-18" cx="137.478" cy="253.025" r="1.26" id="circle206" style="fill:#875f30;stroke:#4c2c11;stroke-width:3.16000009px;stroke-linecap:round;stroke-linejoin:round"/><circle class="cls-18" cx="111.838" cy="277.055" r="1.26" id="circle208" style="fill:#875f30;stroke:#4c2c11;stroke-width:3.16000009px;stroke-linecap:round;stroke-linejoin:round"/><circle class="cls-18" cx="134.048" cy="301.535" r="1.26" id="circle210" style="fill:#875f30;stroke:#4c2c11;stroke-width:3.16000009px;stroke-linecap:round;stroke-linejoin:round"/><circle class="cls-18" cx="177.538" cy="26.565" r="1.26" id="circle212" style="fill:#875f30;stroke:#4c2c11;stroke-width:3.16000009px;stroke-linecap:round;stroke-linejoin:round"/><path class="cls-19" d="M241.888 90.735a7.83 7.83 0 0 1 .05-4.16 8.53 8.53 0 0 1 6-5.75 7.74 7.74 0 0 1 4.16.13 8.44 8.44 0 0 1 3.69 2.34 9.08 9.08 0 0 1 1.74 2.56 6.65 6.65 0 0 1 .57 2.82h-.42a7.25 7.25 0 0 0-2.21-5.1 8 8 0 0 0-3.48-2.17 7.43 7.43 0 0 0-3.94-.11 7.94 7.94 0 0 0-5.64 5.4 7.36 7.36 0 0 0-.06 3.95 7.8 7.8 0 0 0 2 3.57 7.27 7.27 0 0 0 5 2.41v.42a6.58 6.58 0 0 1-2.8-.7 8.67 8.67 0 0 1-2.48-1.82 8.5 8.5 0 0 1-2.18-3.79z" id="path214" style="fill:#4c2c11;stroke:#4c2c11;stroke-width:3.43000007px;stroke-linecap:round;stroke-linejoin:round"/><path class="cls-19" d="m276.208 112.725-14.08 7.85-.22-.41 7-3.88-5.72-10.26-7 3.88-.23-.4 14.09-7.85.22.4-6.74 3.76 5.72 10.26 6.74-3.78z" id="path216" style="fill:#4c2c11;stroke:#4c2c11;stroke-width:3.43000007px;stroke-linecap:round;stroke-linejoin:round"/><path class="cls-19" d="m286.388 142.915-15.64 3.91-.11-.44 3.73-.94a5.34 5.34 0 0 1-3.35-1.32 6.35 6.35 0 0 1-1.84-3.29 6 6 0 0 1 .54-4.79 6.61 6.61 0 0 1 4.25-2.75l9.43-2.35.11.45-9.41 2.35a6.27 6.27 0 0 0-4 2.53 5.61 5.61 0 0 0-.47 4.48 5.41 5.41 0 0 0 2.6 3.71 7 7 0 0 0 5.11.25l9-2.24z" id="path218" style="fill:#4c2c11;stroke:#4c2c11;stroke-width:3.43000007px;stroke-linecap:round;stroke-linejoin:round"/><path class="cls-19" d="m272.388 173.675 5.73-4.05a8.94 8.94 0 0 1-.15-1.89l.05-5-5.53-.05v-.46l16.12.16v5.45a7.09 7.09 0 0 1-1.44 4.64 4.82 4.82 0 0 1-3.92 1.65 5 5 0 0 1-3.23-1.07 5.22 5.22 0 0 1-1.75-2.94l-5.88 4.18zm6-5.89a6.54 6.54 0 0 0 1.22 4.33 5 5 0 0 0 7.19.07 6.55 6.55 0 0 0 1.31-4.3v-5l-9.72-.09z" id="path220" style="fill:#4c2c11;stroke:#4c2c11;stroke-width:3.43000007px;stroke-linecap:round;stroke-linejoin:round"/><path class="cls-19" d="m267.468 199.065 6.54-2.54a9.68 9.68 0 0 1 .31-1.87l1.26-4.84-5.36-1.39.12-.44 15.61 4-1.37 5.31a7.08 7.08 0 0 1-2.51 4.16 4.79 4.79 0 0 1-4.2.65 5.08 5.08 0 0 1-2.88-1.81 5.33 5.33 0 0 1-1-3.28l-6.67 2.61zm7.27-4.26a6.57 6.57 0 0 0 .14 4.5 5 5 0 0 0 7 1.8 6.54 6.54 0 0 0 2.31-3.86l1.26-4.89-9.41-2.43z" id="path222" style="fill:#4c2c11;stroke:#4c2c11;stroke-width:3.43000007px;stroke-linecap:round;stroke-linejoin:round"/><path class="cls-19" d="M261.888 214.965a7.77 7.77 0 0 1 4-1.18 8.51 8.51 0 0 1 7.26 4 7.74 7.74 0 0 1 1.1 4 8.86 8.86 0 0 1-4.1 7.36 7.77 7.77 0 0 1-4 1.18 8.57 8.57 0 0 1-7.27-4 8 8 0 0 1-1.1-4 8.49 8.49 0 0 1 1.13-4.2 8.38 8.38 0 0 1 2.98-3.16zm-3.65 7.33a7.47 7.47 0 0 0 1 3.8 8.06 8.06 0 0 0 6.86 3.82 7.5 7.5 0 0 0 3.79-1.11 8 8 0 0 0 2.8-3 7.9 7.9 0 0 0 1.06-4 7.28 7.28 0 0 0-1.05-3.8 7.6 7.6 0 0 0-2.93-2.8 7.74 7.74 0 0 0-3.93-1 7.43 7.43 0 0 0-3.78 1.11 8.41 8.41 0 0 0-3.87 6.95z" id="path224" style="fill:#4c2c11;stroke:#4c2c11;stroke-width:3.43000007px;stroke-linecap:round;stroke-linejoin:round"/><path class="cls-19" d="M246.318 237.115a5.86 5.86 0 0 1 2.83-.6v.44a5.79 5.79 0 0 0-2.64.58 8 8 0 0 0-2.56 1.83 6 6 0 0 0-1.86 3.45 3.15 3.15 0 0 0 1 2.71 2.85 2.85 0 0 0 1.9.86 4.2 4.2 0 0 0 1.94-.44 22.14 22.14 0 0 0 2.35-1.4 24.83 24.83 0 0 1 2.54-1.47 4.41 4.41 0 0 1 2.11-.44 3.33 3.33 0 0 1 2.14 1 3.8 3.8 0 0 1 1.08 1.81 4 4 0 0 1-.15 2.32 7.35 7.35 0 0 1-1.67 2.57 7.9 7.9 0 0 1-2 1.57 7.46 7.46 0 0 1-2.25.83l-.1-.43a7.3 7.3 0 0 0 2.21-.82 8.17 8.17 0 0 0 1.83-1.43 5.72 5.72 0 0 0 1.77-3.39 3.21 3.21 0 0 0-1-2.71 2.92 2.92 0 0 0-1.91-.88 4.1 4.1 0 0 0-1.95.45 22.4 22.4 0 0 0-2.4 1.41 23.13 23.13 0 0 1-2.52 1.45 4.38 4.38 0 0 1-2.09.44 3.21 3.21 0 0 1-2.1-1 3.63 3.63 0 0 1-1.06-1.82 4.08 4.08 0 0 1 .18-2.34 7.59 7.59 0 0 1 1.71-2.61 8.64 8.64 0 0 1 2.67-1.94z" id="path226" style="fill:#4c2c11;stroke:#4c2c11;stroke-width:3.43000007px;stroke-linecap:round;stroke-linejoin:round"/></svg>