<svg xmlns="http://www.w3.org/2000/svg" id="Layer_1" data-name="Layer 1" version="1.1" width="332.28" height="332.28"><defs id="defs4"><style id="style2">.cls-2{fill:#4b2d15}.cls-3{fill:#33d9ff}.cls-4{fill:#724925}.cls-5{fill:#b59261}.cls-7{fill:#4c2c11}.cls-8{opacity:.5}.cls-9{fill:#875f30}</style></defs><circle class="cls-3" cx="0" cy="234.957" r="166.14" transform="rotate(-45)" id="circle146" style="fill:#33d9ff"/><circle class="cls-7" cx="0" cy="234.957" r="158.66" transform="rotate(-45)" id="circle148" style="fill:#4c2c11"/><circle class="cls-5" cx="0" cy="234.957" r="146.91" transform="rotate(-45)" id="circle150" style="fill:#b59261"/><path class="cls-7" d="M166.138 315.725c-82.48 0-149.59-67.1-149.59-149.58 0-82.48 67.11-149.58 149.59-149.58s149.58 67.1 149.58 149.58c0 82.48-67.1 149.58-149.58 149.58zm0-293.82c-79.54 0-144.25 64.7-144.25 144.24s64.71 144.24 144.25 144.24 144.25-64.71 144.25-144.24c0-79.53-64.72-144.24-144.25-144.24z" id="path152" style="fill:#4c2c11"/><g class="cls-8" id="g158" style="opacity:.5" transform="translate(-99.612 -260.705)"><path class="cls-4" d="M265.75 279.94c-81 0-146.92 65.9-146.92 146.91 0 81.01 65.91 146.91 146.92 146.91z" id="path154" style="fill:#724925"/><path class="cls-7" d="M265.75 576.43c-82.48 0-149.59-67.1-149.59-149.58 0-82.48 67.11-149.58 149.59-149.58a2.67 2.67 0 0 1 2.67 2.67v293.82a2.68 2.68 0 0 1-2.67 2.67zm-2.68-293.8c-78.3 1.43-141.57 65.58-141.57 144.22s63.27 142.78 141.57 144.21z" id="path156" style="fill:#4c2c11"/></g><path class="cls-7" d="M166.138 299.435c-73.5 0-133.3-59.79-133.3-133.29s59.8-133.29 133.3-133.29c73.5 0 133.25 59.79 133.25 133.29s-59.76 133.29-133.25 133.29zm0-261.78a128.49 128.49 0 1 0 128.48 128.49c0-70.85-57.64-128.49-128.48-128.49z" id="path160" style="fill:#4c2c11"/><path class="cls-7" d="M166.138 283.415a116.68 116.68 0 0 1-64.37-19.28 2.41 2.41 0 0 1 2.65-4 112.26 112.26 0 0 0 124.55-.74 2.41 2.41 0 0 1 2.69 4 116.56 116.56 0 0 1-65.52 20.02z" id="path162" style="fill:#4c2c11"/><path class="cls-7" d="M101.958 73.295a2.4 2.4 0 0 1-1.35-4.39 117.06 117.06 0 0 1 129.66-.93 2.4 2.4 0 1 1-2.63 4 112.29 112.29 0 0 0-124.34.89 2.37 2.37 0 0 1-1.34.43z" id="path164" style="fill:#4c2c11"/><path class="cls-7" d="M166.138 267.385a101.25 101.25 0 1 1 101.25-101.24 101.36 101.36 0 0 1-101.25 101.24zm0-197.68a96.44 96.44 0 1 0 96.43 96.44 96.55 96.55 0 0 0-96.43-96.44z" id="path166" style="fill:#4c2c11"/><path class="cls-7" d="M94.098 245.295a5.93 5.93 0 0 1 .57 2.85h-.44a5.78 5.78 0 0 0-.55-2.66 7.8 7.8 0 0 0-1.8-2.6 6.14 6.14 0 0 0-3.44-1.92 3.18 3.18 0 0 0-2.73 1 2.88 2.88 0 0 0-.9 1.9 4.24 4.24 0 0 0 .42 1.95 22.35 22.35 0 0 0 1.38 2.38 23.64 23.64 0 0 1 1.44 2.57 4.45 4.45 0 0 1 .4 2.13 3.35 3.35 0 0 1-1 2.13 3.77 3.77 0 0 1-1.83 1.06 4 4 0 0 1-2.32-.19 7.28 7.28 0 0 1-2.57-1.71 8.32 8.32 0 0 1-1.55-2.06 7.28 7.28 0 0 1-.79-2.26l.44-.09a6.79 6.79 0 0 0 .79 2.22 7.56 7.56 0 0 0 1.4 1.86 5.69 5.69 0 0 0 3.38 1.83 3.27 3.27 0 0 0 2.74-1 2.91 2.91 0 0 0 .9-1.91 4 4 0 0 0-.42-2 23.26 23.26 0 0 0-1.38-2.43 22.81 22.81 0 0 1-1.42-2.55 4.42 4.42 0 0 1-.42-2.1 3.28 3.28 0 0 1 1-2.09 3.61 3.61 0 0 1 1.85-1 4 4 0 0 1 2.34.22 7.67 7.67 0 0 1 2.6 1.75 8.64 8.64 0 0 1 1.91 2.72z" id="path168" style="fill:#4c2c11"/><path class="cls-7" d="M84.778 257.875a6.14 6.14 0 0 1-2.1-.38 9 9 0 0 1-3.18-2.09 9.74 9.74 0 0 1-1.87-2.49 9 9 0 0 1-1-2.79 1.72 1.72 0 0 1 1.35-2l.44-.09a1.76 1.76 0 0 1 1.32.27 1.73 1.73 0 0 1 .72 1.12 5.35 5.35 0 0 0 .6 1.69 6 6 0 0 0 1.1 1.45 4.24 4.24 0 0 0 2.33 1.36 1.56 1.56 0 0 0 1.35-.49c.41-.43.42-.69.42-.77a2.3 2.3 0 0 0-.25-1.16 25.59 25.59 0 0 0-1.29-2.25 25.87 25.87 0 0 1-1.53-2.75 6.14 6.14 0 0 1-.57-2.91 5 5 0 0 1 1.5-3.19 5.35 5.35 0 0 1 2.7-1.53 5.77 5.77 0 0 1 3.33.28 9.32 9.32 0 0 1 3.24 2.14 10.53 10.53 0 0 1 2.32 3.3 7.57 7.57 0 0 1 .68 3.7 1.69 1.69 0 0 1-1.75 1.58h-.44a1.71 1.71 0 0 1-1.23-.56 1.69 1.69 0 0 1-.45-1.27 4.39 4.39 0 0 0-.41-1.88 6.23 6.23 0 0 0-1.42-2 4.61 4.61 0 0 0-2.41-1.44 1.43 1.43 0 0 0-1.32.46 1.21 1.21 0 0 0-.42.75 2.55 2.55 0 0 0 .26 1.16 20.48 20.48 0 0 0 1.27 2.19 24.83 24.83 0 0 1 1.55 2.78 6.09 6.09 0 0 1 .56 2.94 5 5 0 0 1-1.52 3.23 5.54 5.54 0 0 1-2.65 1.54 5 5 0 0 1-1.23.1z" id="path170" style="fill:#4c2c11"/><path class="cls-7" d="M66.538 234.865a7 7 0 0 1 3.07-4.41l7.54-5.63.27.37-4.28 3.19 7.06 9.45 4.28-3.2.28.38-7.54 5.63a7 7 0 0 1-5.11 1.68 7.08 7.08 0 0 1-5.57-7.46zm6.25-6.21-2.94 2.19a6.61 6.61 0 0 0-2.88 4.09 6.69 6.69 0 0 0 5.2 7 6.59 6.59 0 0 0 4.73-1.61l3-2.2z" id="path172" style="fill:#4c2c11"/><path class="cls-7" d="M72.778 244.095a6.54 6.54 0 0 1-.89-.06 8.78 8.78 0 0 1-7.05-9.44 8.67 8.67 0 0 1 3.74-5.52l7.54-5.63a1.71 1.71 0 0 1 2.41.35l.27.37a1.7 1.7 0 0 1 .33 1.27 1.74 1.74 0 0 1-.68 1.14l-2.9 2.16 5 6.69 2.9-2.17a1.73 1.73 0 0 1 2.41.35l.28.37a1.73 1.73 0 0 1 .32 1.28 1.76 1.76 0 0 1-.67 1.14l-7.54 5.63a9.27 9.27 0 0 1-5.47 2.07zm-.34-13-1.56 1.17a5 5 0 0 0-2.21 3 5 5 0 0 0 3.72 5 5 5 0 0 0 3.48-1.28l1.57-1.17z" id="path174" style="fill:#4c2c11"/><path class="cls-7" d="M55.778 215.905a6.58 6.58 0 0 1 3.61-3.61l8.73-4.35.21.42-8.72 4.34a6.21 6.21 0 0 0-3.38 3.36 5.66 5.66 0 0 0 .52 4.52 5.48 5.48 0 0 0 3.37 3.11 7.07 7.07 0 0 0 5.06-.85l8.3-4.13.2.41-14.51 7.17-.21-.41 3.46-1.72a5.34 5.34 0 0 1-3.57-.59 6.49 6.49 0 0 1-2.54-2.85 6.15 6.15 0 0 1-.53-4.82z" id="path176" style="fill:#4c2c11"/><path class="cls-7" d="M59.168 228.045a1.71 1.71 0 0 1-.55-.09 1.73 1.73 0 0 1-1-.87l-.21-.41a1.73 1.73 0 0 1-.09-1.32 1.62 1.62 0 0 1 .27-.5 8.34 8.34 0 0 1-2.83-3.35 7.83 7.83 0 0 1-.62-6.16 8.25 8.25 0 0 1 4.44-4.61l8.73-4.35a1.72 1.72 0 0 1 2.31.78l.21.41a1.73 1.73 0 0 1 .09 1.32 1.7 1.7 0 0 1-.87 1l-8.66 4.33a4.64 4.64 0 0 0-2.53 2.39 4 4 0 0 0 .44 3.18 3.86 3.86 0 0 0 2.3 2.23 5.53 5.53 0 0 0 3.79-.73l8.3-4.13a1.73 1.73 0 0 1 2.31.77l.21.41a1.73 1.73 0 0 1-.78 2.31l-14.49 7.21a1.71 1.71 0 0 1-.77.18z" id="path178" style="fill:#4c2c11"/><path class="cls-7" d="M47.078 187.525a7 7 0 0 1 4.62-2.74l9.19-2 .1.45-5.22 1.14 2.51 11.52 5.22-1.14.1.46-9.2 2a7 7 0 0 1-5.34-.57 7.08 7.08 0 0 1-2-9.11zm8.26-3.07-3.59.79a6.56 6.56 0 0 0-4.31 2.52 6.68 6.68 0 0 0 1.85 8.5 6.58 6.58 0 0 0 5 .5l3.59-.78z" id="path180" style="fill:#4c2c11"/><path class="cls-7" d="M52.218 199.185a7.6 7.6 0 0 1-4.07-1.09 8.79 8.79 0 0 1-2.51-11.51 8.64 8.64 0 0 1 5.69-3.48l9.19-2a1.72 1.72 0 0 1 2.05 1.31l.1.46a1.72 1.72 0 0 1-1.32 2.05l-3.53.77 1.78 8.15 3.53-.77a1.73 1.73 0 0 1 2 1.32l.1.45a1.72 1.72 0 0 1-.23 1.29 1.74 1.74 0 0 1-1.08.76l-9.2 2a11.77 11.77 0 0 1-2.5.29zm1.8-12.68-1.91.42a5 5 0 0 0-3.24 1.8 5 5 0 0 0 1.32 6.07 5 5 0 0 0 3.7.29l1.91-.42z" id="path182" style="fill:#4c2c11"/><path class="cls-7" d="M45.148 165.795a6.6 6.6 0 0 1 4.77-1.81l9.75-.32v.46l-9.73.32a6.3 6.3 0 0 0-4.48 1.65 5.7 5.7 0 0 0-1.41 4.33 5.51 5.51 0 0 0 1.77 4.23 7.07 7.07 0 0 0 5 1.33l9.27-.3v.46l-16.17.53v-.46l3.86-.13a5.27 5.27 0 0 1-3-2 6.48 6.48 0 0 1-1.12-3.65 6.18 6.18 0 0 1 1.49-4.64z" id="path184" style="fill:#4c2c11"/><path class="cls-7" d="M43.908 178.395a1.71 1.71 0 0 1-1.72-1.66v-.46a1.73 1.73 0 0 1 .46-1.24 1.93 1.93 0 0 1 .46-.35 8.34 8.34 0 0 1-1.18-4.21 7.81 7.81 0 0 1 2-5.86 8.23 8.23 0 0 1 5.95-2.35l9.75-.32a1.69 1.69 0 0 1 1.78 1.66v.46a1.74 1.74 0 0 1-.47 1.24 1.7 1.7 0 0 1-1.2.54l-9.73.32a4.64 4.64 0 0 0-3.29 1.13 4 4 0 0 0-.93 3.07 3.88 3.88 0 0 0 1.17 3 5.47 5.47 0 0 0 3.78.92l9.27-.3a1.69 1.69 0 0 1 1.78 1.65v.47a1.72 1.72 0 0 1-1.66 1.78l-16.18.53z" id="path186" style="fill:#4c2c11"/><path class="cls-7" d="M47.198 145.985a10.33 10.33 0 0 0-1.49 2.63 14.35 14.35 0 0 0-.79 2.92l15.7 1.9v.46l-15.7-1.9a12 12 0 0 0 .06 3 11.32 11.32 0 0 0 .83 2.94l-.4.18a12.57 12.57 0 0 1 1.5-12.39z" id="path188" style="fill:#4c2c11"/><path class="cls-7" d="M45.388 159.835a1.66 1.66 0 0 1-.61-.12 1.72 1.72 0 0 1-1-.92 14.28 14.28 0 0 1 1.71-14.12 1.73 1.73 0 0 1 2.46-.3l.34.27a1.73 1.73 0 0 1 .27 2.41 8.41 8.41 0 0 0-1.25 2.18c-.1.27-.2.55-.28.82l13.8 1.67a1.72 1.72 0 0 1 1.5 1.92l-.05.45a1.77 1.77 0 0 1-.65 1.16 1.7 1.7 0 0 1-1.27.35l-13.81-1.67c0 .27 0 .54.08.81a9.56 9.56 0 0 0 .71 2.49 1.73 1.73 0 0 1-.85 2.25l-.4.18a1.7 1.7 0 0 1-.7.17z" id="path190" style="fill:#4c2c11"/><path class="cls-7" d="M61.738 141.295a7.83 7.83 0 0 1-3.63 2.07 8.56 8.56 0 0 1-8-2.27 7.85 7.85 0 0 1-2-3.66 8.92 8.92 0 0 1 2.28-8.14 7.8 7.8 0 0 1 3.62-2.07 8.11 8.11 0 0 1 4.31.09 8 8 0 0 1 3.72 2.18 7.78 7.78 0 0 1 2 3.66 9 9 0 0 1-2.3 8.15zm1.87-8a7.44 7.44 0 0 0-1.91-3.47 8.06 8.06 0 0 0-7.59-2.14 7.44 7.44 0 0 0-3.43 2 8.45 8.45 0 0 0-2.17 7.68 7.46 7.46 0 0 0 1.9 3.47 8.08 8.08 0 0 0 7.59 2.14 7.39 7.39 0 0 0 3.44-2 8.45 8.45 0 0 0 2.17-7.68z" id="path192" style="fill:#4c2c11"/><path class="cls-7" d="M56.158 145.295a10.27 10.27 0 0 1-2.82-.4 9.87 9.87 0 0 1-4.5-2.64 9.6 9.6 0 0 1-2.44-4.46 10.34 10.34 0 0 1 .15-5.23 10.21 10.21 0 0 1 2.61-4.53 9.61 9.61 0 0 1 4.41-2.53 9.93 9.93 0 0 1 5.21.1 9.79 9.79 0 0 1 4.49 2.64 9.61 9.61 0 0 1 2.44 4.46 10.65 10.65 0 0 1-2.75 9.76 9.58 9.58 0 0 1-6.8 2.83zm-.19-16.18a5.84 5.84 0 0 0-1.43.18 5.7 5.7 0 0 0-2.65 1.51 6.7 6.7 0 0 0-1.71 6.06 5.64 5.64 0 0 0 1.47 2.67 5.89 5.89 0 0 0 2.75 1.6 5.8 5.8 0 0 0 3.17.07 5.6 5.6 0 0 0 2.65-1.51 6.19 6.19 0 0 0 1.61-2.81 6.28 6.28 0 0 0 .1-3.24 5.63 5.63 0 0 0-1.47-2.68 5.94 5.94 0 0 0-2.74-1.6 6.38 6.38 0 0 0-1.75-.24z" id="path194" style="fill:#4c2c11"/><path class="cls-7" d="M59.838 108.585a6.55 6.55 0 0 1 5.06.65l8.75 4.31-.21.42-8.73-4.31a6.21 6.21 0 0 0-4.73-.65 5.68 5.68 0 0 0-3.28 3.15 5.5 5.5 0 0 0-.43 4.56 7 7 0 0 0 3.74 3.51l8.32 4.1-.21.42-14.51-7.16.2-.41 3.47 1.7a5.3 5.3 0 0 1-1.7-3.19 6.44 6.44 0 0 1 .74-3.75 6.1 6.1 0 0 1 3.52-3.35z" id="path196" style="fill:#4c2c11"/><path class="cls-7" d="M68.118 126.465a1.76 1.76 0 0 1-.73-.17l-14.51-7.16a1.71 1.71 0 0 1-.78-2.3l.2-.41a1.7 1.7 0 0 1 1-.87 1.52 1.52 0 0 1 .57-.09 8.48 8.48 0 0 1 .94-4.28 7.84 7.84 0 0 1 4.53-4.23 8.25 8.25 0 0 1 6.36.74l8.75 4.32a1.71 1.71 0 0 1 .78 2.3l-.2.41a1.75 1.75 0 0 1-1 .88 1.73 1.73 0 0 1-1.32-.09l-8.73-4.31a4.66 4.66 0 0 0-3.44-.56 4 4 0 0 0-2.26 2.28 3.87 3.87 0 0 0-.38 3.18 5.53 5.53 0 0 0 2.91 2.59l8.31 4.1a1.72 1.72 0 0 1 .78 2.31l-.2.41a1.73 1.73 0 0 1-1.58.95z" id="path198" style="fill:#4c2c11"/><path class="cls-7" d="m65.508 97.295 12.64 8.62 2-2.94.36.25-4.27 6.26-.37-.24 2-2.95-12.64-8.62-2 2.94-.36-.25 4.27-6.26.37.24z" id="path200" style="fill:#4c2c11"/><path class="cls-7" d="M76.248 111.165a1.73 1.73 0 0 1-1-.3l-.36-.25a1.72 1.72 0 0 1-.46-2.4l1-1.51-9.8-6.69-1 1.52a1.73 1.73 0 0 1-2.39.45l-.36-.25a1.67 1.67 0 0 1-.72-1.1 1.69 1.69 0 0 1 .27-1.29l4.27-6.26a1.76 1.76 0 0 1 1.11-.73 1.74 1.74 0 0 1 1.29.28l.36.24a1.74 1.74 0 0 1 .45 2.4l-1 1.51 9.8 6.69 1-1.52a1.67 1.67 0 0 1 1.1-.72 1.69 1.69 0 0 1 1.29.27l.36.25a1.71 1.71 0 0 1 .45 2.39l-4.27 6.26a1.71 1.71 0 0 1-1.39.76z" id="path202" style="fill:#4c2c11"/><path class="cls-7" d="M84.268 96.815a7.82 7.82 0 0 1-4.18.21 8.52 8.52 0 0 1-6.14-5.64 7.81 7.81 0 0 1-.14-4.18 9 9 0 0 1 5.73-6.23 7.89 7.89 0 0 1 4.17-.22 8.59 8.59 0 0 1 6.15 5.65 7.9 7.9 0 0 1 .13 4.18 9 9 0 0 1-5.72 6.23zm5.28-6.31a7.4 7.4 0 0 0-.14-4 8 8 0 0 0-5.8-5.33 7.31 7.31 0 0 0-4 .2 8.4 8.4 0 0 0-5.39 5.87 7.36 7.36 0 0 0 .13 3.95 8.07 8.07 0 0 0 5.81 5.34 7.37 7.37 0 0 0 3.95-.2 8.44 8.44 0 0 0 5.4-5.87z" id="path204" style="fill:#4c2c11"/><path class="cls-7" d="M81.788 98.935a9.62 9.62 0 0 1-2.06-.22 10 10 0 0 1-4.61-2.44 9.81 9.81 0 0 1-2.82-4.39 9.52 9.52 0 0 1-.16-5.08 10.23 10.23 0 0 1 2.48-4.6 10.42 10.42 0 0 1 4.38-2.87 9.64 9.64 0 0 1 5.08-.26 10 10 0 0 1 4.6 2.44 9.83 9.83 0 0 1 2.82 4.38 9.63 9.63 0 0 1 .17 5.08 10.64 10.64 0 0 1-6.87 7.47 9.49 9.49 0 0 1-3.01.49zm.19-16.18a5.88 5.88 0 0 0-1.79.29 6.71 6.71 0 0 0-4.26 4.64 5.61 5.61 0 0 0 .11 3 5.89 5.89 0 0 0 1.72 2.67 6 6 0 0 0 2.8 1.5 5.55 5.55 0 0 0 3.05-.16 6.2 6.2 0 0 0 2.71-1.78 6.36 6.36 0 0 0 1.55-2.85 5.74 5.74 0 0 0-.1-3.05 6.1 6.1 0 0 0-5.79-4.3z" id="path206" style="fill:#4c2c11"/><circle class="cls-2" cx="166.138" cy="166.145" r="82.82" id="circle208" style="fill:#4b2d15"/><path class="cls-2" d="M166.138 251.635a85.49 85.49 0 1 1 85.49-85.49 85.59 85.59 0 0 1-85.49 85.49zm0-165.64a80.15 80.15 0 1 0 80.14 80.15 80.23 80.23 0 0 0-80.14-80.15z" id="path210" style="fill:#4b2d15"/><circle class="cls-3" cx="-123.519" cy="199.847" r="72.14" transform="rotate(-76.72)" id="circle212" style="fill:#33d9ff"/><path class="cls-2" d="M166.138 240.955a74.81 74.81 0 1 1 74.8-74.81 74.9 74.9 0 0 1-74.8 74.81zm0-144.28a69.47 69.47 0 1 0 69.46 69.47 69.54 69.54 0 0 0-69.46-69.47z" id="path214" style="fill:#4b2d15"/><path class="cls-5" id="polygon216" style="fill:#b59261" transform="translate(-99.612 -260.705)" d="m289.34 295.15-3.9-3.9-12.29 6.33-4.22-13.17h-5.51l-4.22 13.17-12.29-6.33-3.9 3.9 6.33 12.29-13.16 4.22v5.51l13.16 4.21-6.33 12.3 3.9 3.89 12.29-6.32 4.22 13.16h5.51l4.22-13.16 12.29 6.32 3.9-3.89-6.33-12.3 13.17-4.21v-5.51l-13.17-4.22z"/><path class="cls-7" d="M169.318 86.375h-5.51a2.67 2.67 0 0 1-2.54-1.85l-3.26-10.17-9.49 4.94a2.67 2.67 0 0 1-3.11-.49l-3.89-3.9a2.67 2.67 0 0 1-.49-3.11l4.89-9.48-10.17-3.26a2.67 2.67 0 0 1-1.85-2.54v-5.51a2.69 2.69 0 0 1 1.85-2.55l10.17-3.25-4.89-9.49a2.67 2.67 0 0 1 .49-3.11l3.89-3.9a2.66 2.66 0 0 1 3.11-.48l9.49 4.88 3.26-10.16a2.66 2.66 0 0 1 2.54-1.86h5.51a2.68 2.68 0 0 1 2.55 1.86l3.25 10.16 9.49-4.88a2.67 2.67 0 0 1 3.11.48l3.9 3.9a2.66 2.66 0 0 1 .48 3.11l-4.88 9.49 10.17 3.2a2.68 2.68 0 0 1 1.86 2.55v5.51a2.66 2.66 0 0 1-1.86 2.54l-10.17 3.29 4.88 9.48a2.67 2.67 0 0 1-.48 3.12l-3.9 3.89a2.67 2.67 0 0 1-3.11.49l-9.49-4.89-3.25 10.17a2.69 2.69 0 0 1-2.55 1.82zm-3.56-5.34h1.63l3.63-11.31a2.67 2.67 0 0 1 3.76-1.56l10.56 5.44 1.14-1.14-5.43-10.56a2.66 2.66 0 0 1 1.56-3.77l11.31-3.62v-1.61l-11.33-3.61a2.65 2.65 0 0 1-1.56-3.76l5.43-10.56-1.14-1.14-10.56 5.46a2.65 2.65 0 0 1-3.76-1.56l-3.61-11.36h-1.61l-3.62 11.31a2.66 2.66 0 0 1-3.77 1.61l-10.56-5.43-1.14 1.14 5.44 10.56a2.67 2.67 0 0 1-1.56 3.76l-11.31 3.63v1.61l11.31 3.62a2.68 2.68 0 0 1 1.56 3.77l-5.44 10.56 1.14 1.14 10.56-5.49a2.68 2.68 0 0 1 3.77 1.56z" id="path218" style="fill:#4c2c11"/><circle class="cls-4" cx="166.568" cy="53.835" r="9.41" id="circle220" style="fill:#724925"/><path class="cls-7" d="M166.568 65.925a12.09 12.09 0 1 1 12.08-12.09 12.1 12.1 0 0 1-12.08 12.09zm0-18.83a6.75 6.75 0 1 0 6.74 6.74 6.75 6.75 0 0 0-6.74-6.74z" id="path222" style="fill:#4c2c11"/><path class="cls-5" id="polygon224" style="fill:#b59261" transform="translate(-99.612 -260.705)" d="m289.34 520-3.9-3.89-12.29 6.33-4.22-13.17h-5.51l-4.22 13.17-12.29-6.33-3.9 3.89 6.33 12.3-13.16 4.21v5.51l13.16 4.22-6.33 12.29 3.9 3.9 12.29-6.33 4.22 13.17h5.51l4.22-13.17 12.29 6.33 3.9-3.9-6.33-12.29 13.17-4.22v-5.51l-13.17-4.21z"/><path class="cls-7" d="M169.318 310.965h-5.51a2.4 2.4 0 0 1-2.29-1.67l-3.35-10.46-9.77 5a2.4 2.4 0 0 1-2.8-.44l-3.89-3.9a2.4 2.4 0 0 1-.44-2.8l5-9.77-10.47-3.35a2.4 2.4 0 0 1-1.67-2.29v-5.51a2.42 2.42 0 0 1 1.67-2.29l10.47-3.35-5-9.77a2.4 2.4 0 0 1 .44-2.8l3.89-3.89a2.4 2.4 0 0 1 2.79-.38l9.77 5 3.35-10.46a2.4 2.4 0 0 1 2.29-1.67h5.51a2.39 2.39 0 0 1 2.29 1.67l3.36 10.46 9.77-5a2.4 2.4 0 0 1 2.8.44l3.9 3.89a2.42 2.42 0 0 1 .44 2.8l-5 9.77 10.46 3.35a2.4 2.4 0 0 1 1.67 2.29v5.46a2.39 2.39 0 0 1-1.67 2.29l-10.46 3.35 5 9.77a2.42 2.42 0 0 1-.44 2.8l-3.9 3.9a2.4 2.4 0 0 1-2.8.44l-9.77-5-3.35 10.45a2.39 2.39 0 0 1-2.29 1.67zm-3.76-4.8h2l3.68-11.5a2.41 2.41 0 0 1 3.39-1.41l10.76 5.53 1.42-1.42-5.53-10.73a2.41 2.41 0 0 1 1.41-3.39l11.49-3.68v-2l-11.49-3.68a2.41 2.41 0 0 1-1.41-3.39l5.53-10.74-1.42-1.41-10.73 5.52a2.38 2.38 0 0 1-2 .09 2.44 2.44 0 0 1-1.37-1.49l-3.68-11.5h-2l-3.68 11.5a2.4 2.4 0 0 1-3.39 1.4l-10.73-5.52-1.42 1.41 5.52 10.74a2.42 2.42 0 0 1 .09 2 2.46 2.46 0 0 1-1.49 1.37l-11.5 3.68v2l11.5 3.68a2.46 2.46 0 0 1 1.49 1.37 2.42 2.42 0 0 1-.09 2l-5.52 10.77 1.41 1.42 10.69-5.49a2.42 2.42 0 0 1 2-.08 2.36 2.36 0 0 1 1.37 1.49z" id="path226" style="fill:#4c2c11"/><g class="cls-8" id="g232" style="opacity:.5" transform="translate(-99.612 -260.705)"><path class="cls-4" id="polygon228" style="fill:#724925" d="m289.34 520-3.9-3.89-12.29 6.33-4.22-13.17h-5.51l-4.22 13.17-12.29-6.33-3.9 3.89 6.33 12.3-13.16 4.21v5.51l13.16 4.22-6.33 12.29 3.9 3.9 12.29-6.33 4.22 13.17h5.51l4.22-13.17 12.29 6.33 3.9-3.9-6.33-12.29 13.17-4.22v-5.51l-13.17-4.21z"/><path class="cls-7" d="M268.93 571.94h-5.51a2.66 2.66 0 0 1-2.54-1.86l-3.26-10.16-9.49 4.88a2.66 2.66 0 0 1-3.11-.48l-3.89-3.9a2.67 2.67 0 0 1-.49-3.11l4.89-9.49-10.17-3.25a2.68 2.68 0 0 1-1.85-2.55v-5.51a2.67 2.67 0 0 1 1.85-2.54l10.17-3.26-4.89-9.48a2.67 2.67 0 0 1 .49-3.11l3.89-3.9a2.67 2.67 0 0 1 3.11-.49l9.49 4.89 3.26-10.17a2.67 2.67 0 0 1 2.54-1.85h5.51a2.69 2.69 0 0 1 2.55 1.85l3.25 10.17 9.49-4.89a2.67 2.67 0 0 1 3.11.49l3.9 3.9a2.65 2.65 0 0 1 .48 3.11l-4.88 9.48L297 534a2.66 2.66 0 0 1 1.86 2.54V542a2.67 2.67 0 0 1-1.86 2.55l-10.16 3.25 4.88 9.49a2.66 2.66 0 0 1-.48 3.11l-3.9 3.9a2.66 2.66 0 0 1-3.11.48l-9.49-4.88-3.25 10.16a2.68 2.68 0 0 1-2.56 1.88zm-3.56-5.34H267l3.63-11.31a2.65 2.65 0 0 1 3.76-1.56l10.56 5.43 1.14-1.14-5.43-10.56a2.65 2.65 0 0 1 1.56-3.76l11.31-3.62v-1.62l-11.31-3.62a2.66 2.66 0 0 1-1.56-3.77l5.43-10.56-1.14-1.14-10.56 5.44a2.67 2.67 0 0 1-3.76-1.56L267 511.94h-1.61l-3.62 11.31a2.68 2.68 0 0 1-3.77 1.56l-10.56-5.44-1.14 1.14 5.44 10.56a2.68 2.68 0 0 1-1.56 3.77l-11.31 3.62v1.62l11.31 3.62a2.67 2.67 0 0 1 1.56 3.76L246.28 558l1.14 1.14 10.58-5.41a2.66 2.66 0 0 1 3.77 1.56z" id="path230" style="fill:#4c2c11"/></g><circle class="cls-5" cx="166.568" cy="278.695" r="9.41" id="circle234" style="fill:#b59261"/><path class="cls-7" d="M166.568 290.515a11.82 11.82 0 1 1 11.82-11.82 11.83 11.83 0 0 1-11.82 11.82zm0-18.83a7 7 0 1 0 7 7 7 7 0 0 0-7-7z" id="path236" style="fill:#4c2c11"/><path class="cls-2" id="rect238" style="fill:#4b2d15" d="M163.028 82.105h6.41v168.93h-6.41z"/><path class="cls-3" id="line240" style="fill:#33d9ff" d="M81.768 166.565h168.93"/><path class="cls-2" id="rect242" style="fill:#4b2d15" d="M81.768 163.365h168.93v6.41H81.768z"/><path class="cls-2" d="M166.478 151.635h-81.26v-6.41h81c2 .06 45.66.74 49.92-42.86l6.37.62c-4.62 47.47-51.52 48.65-56.03 48.65z" id="path244" style="fill:#4b2d15"/><path class="cls-2" d="m114.578 229.395-6.38-.62c4.85-49.62 55.88-48.66 56.39-48.65h80.92v6.41h-81c-1.97-.06-45.67-.74-49.93 42.86z" id="path246" style="fill:#4b2d15"/><circle class="cls-9" cx="208.508" cy="68.755" r="1.26" id="circle248" style="fill:#875f30"/><path class="cls-7" d="M208.508 71.595a2.84 2.84 0 0 1-1.47-.41 2.85 2.85 0 0 1-.95-3.9 2.84 2.84 0 0 1 5.18.8 2.84 2.84 0 0 1-2.09 3.43 2.56 2.56 0 0 1-.67.08zm-.31-2.76a.33.33 0 0 0 .39.24.33.33 0 0 0 .24-.39.37.37 0 0 0-.15-.2.34.34 0 0 0-.24 0 .33.33 0 0 0-.24.39z" id="path250" style="fill:#4c2c11"/><circle class="cls-9" cx="196.028" cy="79.725" r="1.26" id="circle252" style="fill:#875f30"/><path class="cls-7" d="M196.028 82.565a2.83 2.83 0 0 1-2.42-4.31 2.79 2.79 0 0 1 1.76-1.28 2.83 2.83 0 0 1 3.42 2.08 2.84 2.84 0 0 1-2.09 3.42 2.56 2.56 0 0 1-.67.09zm.32-2.91-.63.15a.33.33 0 0 0 .39.24.37.37 0 0 0 .2-.15.4.4 0 0 0 .08-.24zm-.32-.25h-.07a.33.33 0 0 0-.24.39l.63-.15a.31.31 0 0 0-.32-.24z" id="path254" style="fill:#4c2c11"/><circle class="cls-9" cx="137.478" cy="253.025" r="1.26" id="circle256" style="fill:#875f30"/><path class="cls-7" d="M137.468 255.865a2.78 2.78 0 0 1-1.47-.42 2.81 2.81 0 0 1-1.28-1.75 2.84 2.84 0 1 1 5.52-1.34 2.85 2.85 0 0 1-2.09 3.43 3.16 3.16 0 0 1-.68.08zm-.3-2.77a.32.32 0 0 0 .38.24.31.31 0 0 0 .24-.38.3.3 0 0 0-.14-.2.32.32 0 0 0-.25 0 .31.31 0 0 0-.23.34zm0 0z" id="path258" style="fill:#4c2c11"/><circle class="cls-9" cx="111.838" cy="277.055" r="1.26" id="circle260" style="fill:#875f30"/><path class="cls-7" d="M111.838 279.895a2.83 2.83 0 0 1-2.42-4.31 2.79 2.79 0 0 1 1.76-1.28 2.83 2.83 0 0 1 3.42 2.08 2.83 2.83 0 0 1-2.09 3.43 2.56 2.56 0 0 1-.67.08zm.31-2.91-.62.15a.33.33 0 0 0 .39.24.37.37 0 0 0 .2-.15.33.33 0 0 0 0-.24zm-.31-.25h-.07a.3.3 0 0 0-.2.15.29.29 0 0 0 0 .24l.62-.15a.32.32 0 0 0-.14-.2.34.34 0 0 0-.21-.04z" id="path262" style="fill:#4c2c11"/><circle class="cls-9" cx="134.048" cy="301.535" r="1.26" id="circle264" style="fill:#875f30"/><path class="cls-7" d="M134.048 304.375a2.84 2.84 0 1 1 .67-.08 2.61 2.61 0 0 1-.67.08zm0-3.16h-.08a.33.33 0 0 0-.24.39.324.324 0 0 0 .63-.15.33.33 0 0 0-.31-.24z" id="path266" style="fill:#4c2c11"/><circle class="cls-9" cx="177.538" cy="26.565" r="1.26" id="circle268" style="fill:#875f30"/><path class="cls-7" d="M177.528 29.405a2.85 2.85 0 0 1-2.75-2.17 2.84 2.84 0 0 1 5.52-1.34 2.89 2.89 0 0 1-.34 2.15 2.83 2.83 0 0 1-1.76 1.28 3 3 0 0 1-.67.08zm-.31-2.76a.32.32 0 0 0 .39.23.32.32 0 0 0 .24-.38.31.31 0 0 0-.39-.24.35.35 0 0 0-.2.14.36.36 0 0 0 0 .25z" id="path270" style="fill:#4c2c11"/><path class="cls-7" d="M241.888 90.735a7.83 7.83 0 0 1 .05-4.16 8.53 8.53 0 0 1 6-5.75 7.74 7.74 0 0 1 4.16.13 8.44 8.44 0 0 1 3.69 2.34 9.08 9.08 0 0 1 1.74 2.56 6.65 6.65 0 0 1 .57 2.82h-.42a7.25 7.25 0 0 0-2.21-5.1 8 8 0 0 0-3.48-2.17 7.43 7.43 0 0 0-3.94-.11 7.94 7.94 0 0 0-5.64 5.4 7.36 7.36 0 0 0-.06 3.95 7.8 7.8 0 0 0 2 3.57 7.27 7.27 0 0 0 5 2.41v.42a6.58 6.58 0 0 1-2.8-.7 8.67 8.67 0 0 1-2.48-1.82 8.5 8.5 0 0 1-2.18-3.79z" id="path272" style="fill:#4c2c11"/><path class="cls-7" d="M249.328 98.755a8.46 8.46 0 0 1-3.52-.87 10.43 10.43 0 0 1-3-2.19 10.2 10.2 0 0 1-2.58-4.53 9.69 9.69 0 0 1 .06-5.07 10.24 10.24 0 0 1 7.26-6.94 9.46 9.46 0 0 1 5.06.16 10.17 10.17 0 0 1 4.42 2.76 10.74 10.74 0 0 1 2.07 3.06 8.47 8.47 0 0 1 .72 3.54 1.72 1.72 0 0 1-1.62 1.68h-.43a1.65 1.65 0 0 1-1.27-.46 1.75 1.75 0 0 1-.54-1.25 5.52 5.52 0 0 0-1.73-3.91 6.16 6.16 0 0 0-2.73-1.71 5.65 5.65 0 0 0-3.05-.09 6.22 6.22 0 0 0-4.4 4.21 5.74 5.74 0 0 0 0 3.05 6.13 6.13 0 0 0 1.59 2.81 5.51 5.51 0 0 0 3.85 1.87 1.74 1.74 0 0 1 1.22.59 1.69 1.69 0 0 1 .41 1.29v.43a1.72 1.72 0 0 1-1.79 1.57z" id="path274" style="fill:#4c2c11"/><path class="cls-7" d="m276.208 112.725-14.08 7.85-.22-.41 7-3.88-5.72-10.26-7 3.88-.23-.4 14.09-7.85.22.4-6.74 3.76 5.72 10.26 6.74-3.78z" id="path276" style="fill:#4c2c11"/><path class="cls-7" d="M262.128 122.295a1.84 1.84 0 0 1-.47-.06 1.72 1.72 0 0 1-1-.82l-.22-.4a1.71 1.71 0 0 1 .66-2.33l5.46-3.05-4-7.26-5.47 3a1.71 1.71 0 0 1-2.33-.66l-.22-.4a1.7 1.7 0 0 1 .66-2.34l14.08-7.85a1.72 1.72 0 0 1 2.34.67l.22.4a1.72 1.72 0 0 1-.66 2.33l-5.25 2.92 4 7.27 5.24-2.92a1.71 1.71 0 0 1 1.31-.15 1.67 1.67 0 0 1 1 .81l.22.4a1.72 1.72 0 0 1-.66 2.34l-14.08 7.84a1.67 1.67 0 0 1-.83.26z" id="path278" style="fill:#4c2c11"/><path class="cls-7" d="m286.388 142.915-15.64 3.91-.11-.44 3.73-.94a5.34 5.34 0 0 1-3.35-1.32 6.35 6.35 0 0 1-1.84-3.29 6 6 0 0 1 .54-4.79 6.61 6.61 0 0 1 4.25-2.75l9.43-2.35.11.45-9.41 2.35a6.27 6.27 0 0 0-4 2.53 5.61 5.61 0 0 0-.47 4.48 5.41 5.41 0 0 0 2.6 3.71 7 7 0 0 0 5.11.25l9-2.24z" id="path280" style="fill:#4c2c11"/><path class="cls-7" d="M270.778 148.545a1.61 1.61 0 0 1-.88-.25 1.71 1.71 0 0 1-.79-1.05l-.11-.45a1.74 1.74 0 0 1 .56-1.73 8.27 8.27 0 0 1-2-3.81 7.74 7.74 0 0 1 .75-6.11 8.22 8.22 0 0 1 5.29-3.51l9.43-2.36a1.73 1.73 0 0 1 2.08 1.25l.11.45a1.74 1.74 0 0 1-.19 1.3 1.72 1.72 0 0 1-1.06.78l-9.4 2.35a4.76 4.76 0 0 0-3 1.78 4 4 0 0 0-.26 3.15 3.77 3.77 0 0 0 1.75 2.62 5.53 5.53 0 0 0 3.88.09l9-2.24a1.72 1.72 0 0 1 2.08 1.25l.11.45a1.71 1.71 0 0 1-1.24 2.08l-15.7 3.91a1.84 1.84 0 0 1-.41.05z" id="path282" style="fill:#4c2c11"/><path class="cls-7" d="m272.388 173.675 5.73-4.05a8.94 8.94 0 0 1-.15-1.89l.05-5-5.53-.05v-.46l16.12.16v5.45a7.09 7.09 0 0 1-1.44 4.64 4.82 4.82 0 0 1-3.92 1.65 5 5 0 0 1-3.23-1.07 5.22 5.22 0 0 1-1.75-2.94l-5.88 4.18zm6-5.89a6.54 6.54 0 0 0 1.22 4.33 5 5 0 0 0 7.19.07 6.55 6.55 0 0 0 1.31-4.3v-5l-9.72-.09z" id="path284" style="fill:#4c2c11"/><path class="cls-7" d="M272.388 175.965a1.76 1.76 0 0 1-.8-.2 1.7 1.7 0 0 1-.91-1.53v-.58a1.72 1.72 0 0 1 .71-1.36l4.89-3.46a9.76 9.76 0 0 1 0-1.1v-3.28h-3.81a1.72 1.72 0 0 1-1.21-.52 1.67 1.67 0 0 1-.49-1.22v-.46a1.71 1.71 0 0 1 1.72-1.69l16.13.15a1.7 1.7 0 0 1 1.2.52 1.67 1.67 0 0 1 .49 1.21l-.05 5.46a8.75 8.75 0 0 1-1.84 5.73 6.43 6.43 0 0 1-5.25 2.25 6.68 6.68 0 0 1-4.29-1.45 6.43 6.43 0 0 1-1.43-1.64l-4.1 2.9a1.69 1.69 0 0 1-.96.27zm7.74-8.16a5 5 0 0 0 .84 3.22 2.66 2.66 0 0 0 2.27.92 2.7 2.7 0 0 0 2.29-.87 5 5 0 0 0 .89-3.21v-3.33l-6.29-.06z" id="path286" style="fill:#4c2c11"/><path class="cls-7" d="m267.468 199.065 6.54-2.54a9.68 9.68 0 0 1 .31-1.87l1.26-4.84-5.36-1.39.12-.44 15.61 4-1.37 5.31a7.08 7.08 0 0 1-2.51 4.16 4.79 4.79 0 0 1-4.2.65 5.08 5.08 0 0 1-2.88-1.81 5.33 5.33 0 0 1-1-3.28l-6.67 2.61zm7.27-4.26a6.57 6.57 0 0 0 .14 4.5 5 5 0 0 0 7 1.8 6.54 6.54 0 0 0 2.31-3.86l1.26-4.89-9.41-2.43z" id="path288" style="fill:#4c2c11"/><path class="cls-7" d="M279.388 204.035a7.79 7.79 0 0 1-1.94-.26 6.76 6.76 0 0 1-3.82-2.45 6.31 6.31 0 0 1-1-1.93l-4.68 1.83a1.72 1.72 0 0 1-2.28-2l.14-.56a1.74 1.74 0 0 1 1-1.17l5.58-2.2c.06-.34.14-.7.23-1.07l.83-3.18-3.7-1a1.66 1.66 0 0 1-1-.79 1.69 1.69 0 0 1-.19-1.3l.12-.44a1.71 1.71 0 0 1 2.09-1.23l15.61 4a1.71 1.71 0 0 1 1.23 2.09l-1.37 5.29a8.76 8.76 0 0 1-3.17 5.12 6.2 6.2 0 0 1-3.68 1.25zm-3-8.8a5 5 0 0 0 0 3.33 3.34 3.34 0 0 0 4.41 1.14 5 5 0 0 0 1.65-2.89l.83-3.23-6.09-1.57z" id="path290" style="fill:#4c2c11"/><path class="cls-7" d="M261.888 214.965a7.77 7.77 0 0 1 4-1.18 8.51 8.51 0 0 1 7.26 4 7.74 7.74 0 0 1 1.1 4 8.86 8.86 0 0 1-4.1 7.36 7.77 7.77 0 0 1-4 1.18 8.57 8.57 0 0 1-7.27-4 8 8 0 0 1-1.1-4 8.49 8.49 0 0 1 1.13-4.2 8.38 8.38 0 0 1 2.98-3.16zm-3.65 7.33a7.47 7.47 0 0 0 1 3.8 8.06 8.06 0 0 0 6.86 3.82 7.5 7.5 0 0 0 3.79-1.11 8 8 0 0 0 2.8-3 7.9 7.9 0 0 0 1.06-4 7.28 7.28 0 0 0-1.05-3.8 7.6 7.6 0 0 0-2.93-2.8 7.74 7.74 0 0 0-3.93-1 7.43 7.43 0 0 0-3.78 1.11 8.41 8.41 0 0 0-3.87 6.95z" id="path292" style="fill:#4c2c11"/><path class="cls-7" d="M265.998 232.105a10.29 10.29 0 0 1-8.58-4.89 9.43 9.43 0 0 1-1.34-4.88 10.6 10.6 0 0 1 4.92-8.83 9.47 9.47 0 0 1 4.85-1.44 9.89 9.89 0 0 1 5 1.3 9.75 9.75 0 0 1 3.75 3.59 9.57 9.57 0 0 1 1.34 4.88 10.22 10.22 0 0 1-1.35 5 10.1 10.1 0 0 1-3.57 3.79 9.53 9.53 0 0 1-4.86 1.44zm0-16.14h-.12a5.67 5.67 0 0 0-2.91.85 6.67 6.67 0 0 0-3.05 5.48 5.6 5.6 0 0 0 .81 2.93 5.87 5.87 0 0 0 2.29 2.18 5.75 5.75 0 0 0 3.06.8 5.67 5.67 0 0 0 2.92-.85 6.73 6.73 0 0 0 3.05-5.48 5.7 5.7 0 0 0-.81-2.93 6.33 6.33 0 0 0-5.24-3z" id="path294" style="fill:#4c2c11"/><path class="cls-7" d="M246.318 237.115a5.86 5.86 0 0 1 2.83-.6v.44a5.79 5.79 0 0 0-2.64.58 8 8 0 0 0-2.56 1.83 6 6 0 0 0-1.86 3.45 3.15 3.15 0 0 0 1 2.71 2.85 2.85 0 0 0 1.9.86 4.2 4.2 0 0 0 1.94-.44 22.14 22.14 0 0 0 2.35-1.4 24.83 24.83 0 0 1 2.54-1.47 4.41 4.41 0 0 1 2.11-.44 3.33 3.33 0 0 1 2.14 1 3.8 3.8 0 0 1 1.08 1.81 4 4 0 0 1-.15 2.32 7.35 7.35 0 0 1-1.67 2.57 7.9 7.9 0 0 1-2 1.57 7.46 7.46 0 0 1-2.25.83l-.1-.43a7.3 7.3 0 0 0 2.21-.82 8.17 8.17 0 0 0 1.83-1.43 5.72 5.72 0 0 0 1.77-3.39 3.21 3.21 0 0 0-1-2.71 2.92 2.92 0 0 0-1.91-.88 4.1 4.1 0 0 0-1.95.45 22.4 22.4 0 0 0-2.4 1.41 23.13 23.13 0 0 1-2.52 1.45 4.38 4.38 0 0 1-2.09.44 3.21 3.21 0 0 1-2.1-1 3.63 3.63 0 0 1-1.06-1.82 4.08 4.08 0 0 1 .18-2.34 7.59 7.59 0 0 1 1.71-2.61 8.64 8.64 0 0 1 2.67-1.94z" id="path296" style="fill:#4c2c11"/><path class="cls-7" d="M251.058 254.465a1.72 1.72 0 0 1-1.68-1.35l-.09-.44a1.71 1.71 0 0 1 1.35-2.05 5.5 5.5 0 0 0 1.68-.62 6.42 6.42 0 0 0 1.43-1.11 4.28 4.28 0 0 0 1.31-2.34 1.5 1.5 0 0 0-.5-1.34c-.43-.4-.69-.41-.78-.41a2.33 2.33 0 0 0-1.14.26 23.53 23.53 0 0 0-2.23 1.32 24.09 24.09 0 0 1-2.72 1.56 6.19 6.19 0 0 1-2.89.61 4.9 4.9 0 0 1-3.2-1.45 5.38 5.38 0 0 1-1.56-2.67 5.77 5.77 0 0 1 .24-3.31 9.42 9.42 0 0 1 2.07-3.22 10.46 10.46 0 0 1 3.26-2.35 7.57 7.57 0 0 1 3.66-.75 1.71 1.71 0 0 1 1.59 1.72v.44a1.73 1.73 0 0 1-.54 1.24 1.69 1.69 0 0 1-1.26.46 4 4 0 0 0-1.86.44 6.12 6.12 0 0 0-2 1.43 4.7 4.7 0 0 0-1.41 2.43 1.45 1.45 0 0 0 .49 1.31 1.21 1.21 0 0 0 .75.4 2.17 2.17 0 0 0 1.15-.27 22.17 22.17 0 0 0 2.17-1.29 24.57 24.57 0 0 1 2.74-1.59 6.08 6.08 0 0 1 2.93-.6 5 5 0 0 1 3.23 1.47 5.54 5.54 0 0 1 1.57 2.62 5.66 5.66 0 0 1-.19 3.31 8.89 8.89 0 0 1-2 3.2 9.94 9.94 0 0 1-2.45 1.9 9 9 0 0 1-2.77 1z" id="path298" style="fill:#4c2c11"/></svg>