<svg xmlns="http://www.w3.org/2000/svg" id="Layer_1" data-name="Layer 1" version="1.1" width="371.219" height="371.339"><defs id="defs4"><style id="style2">.cls-12,.cls-15{fill:#fff}.cls-4{fill:#142f5e}.cls-13,.cls-5{fill:#4aff4a}.cls-14,.cls-6,.cls-7,.cls-9{fill:none}.cls-12,.cls-15,.cls-7{stroke:#fff}.cls-12,.cls-7,.cls-9{stroke-miterlimit:10}.cls-7{stroke-width:6.31px}.cls-13,.cls-14,.cls-9{stroke:#142f5e}.cls-9{stroke-width:3.82px}.cls-12{stroke-width:6.54px}.cls-13,.cls-14,.cls-15{stroke-linecap:round;stroke-linejoin:round;stroke-width:6.54px}</style></defs><path class="cls-4" d="M352.764 115.197a181.45 181.45 0 1 0 14.25 70.49 180.55 180.55 0 0 0-14.25-70.49zm-101.3 70.49a65.45 65.45 0 1 1-19.17-46.25 65 65 0 0 1 19.17 46.25z" id="path174" style="fill:#142f5e"/><circle class="cls-5" cx="186.024" cy="185.787" r="123.25" id="circle176" style="fill:#4aff4a"/><path class="cls-4" d="M186.024 44.727a140.66 140.66 0 1 1-54.92 11.09 140.2 140.2 0 0 1 54.92-11.09zm0 246.49a105.43 105.43 0 1 0-74.55-30.88 104.77 104.77 0 0 0 74.55 30.88z" id="path178" style="fill:#142f5e"/><path class="cls-5" transform="rotate(-90)" id="rect180" style="fill:#4aff4a" d="M-221.347 23.753h23.96v23.96h-23.96z"/><path class="cls-6" transform="rotate(-90)" id="rect182" style="fill:none" d="M-197.397 23.753h23.96v23.96h-23.96z"/><path class="cls-5" transform="rotate(-90)" id="rect184" style="fill:#4aff4a" d="M-173.437 23.753h23.96v23.96h-23.96z"/><path class="cls-5" transform="rotate(-90)" id="rect186" style="fill:#4aff4a" d="M-197.397 2.583h23.96v21.16h-23.96z"/><path class="cls-5" transform="rotate(-90)" id="rect188" style="fill:#4aff4a" d="M-197.387 47.723h23.96v23.96h-23.96z"/><path class="cls-5" transform="rotate(-90)" id="rect190" style="fill:#4aff4a" d="M-221.357 4.414h23.96v1.52h-23.96z"/><path class="cls-5" transform="rotate(-90)" id="rect192" style="fill:#4aff4a" d="M-221.347 9.034h23.96v1.52h-23.96z"/><path class="cls-5" transform="rotate(-90)" id="rect194" style="fill:#4aff4a" d="M-221.347 13.664h23.96v1.52h-23.96z"/><path class="cls-5" transform="rotate(-90)" id="rect196" style="fill:#4aff4a" d="M-221.347 18.294h23.96v1.52h-23.96z"/><path class="cls-5" transform="rotate(-90)" id="rect198" style="fill:#4aff4a" d="M-173.437 4.494h23.96v1.52h-23.96z"/><path class="cls-5" transform="rotate(-90)" id="rect200" style="fill:#4aff4a" d="M-173.437 9.114h23.96v1.52h-23.96z"/><path class="cls-5" transform="rotate(-90)" id="rect202" style="fill:#4aff4a" d="M-173.437 13.744h23.96v1.52h-23.96z"/><path class="cls-5" transform="rotate(-90)" id="rect204" style="fill:#4aff4a" d="M-173.437 18.374h23.96v1.52h-23.96z"/><path class="cls-5" transform="rotate(-90)" id="rect206" style="fill:#4aff4a" d="M-221.357 51.644h23.96v1.52h-23.96z"/><path class="cls-5" transform="rotate(-90)" id="rect208" style="fill:#4aff4a" d="M-221.357 56.274h23.96v1.52h-23.96z"/><path class="cls-5" transform="rotate(-90)" id="rect210" style="fill:#4aff4a" d="M-221.347 60.894h23.96v1.52h-23.96z"/><path class="cls-5" transform="rotate(-90)" id="rect212" style="fill:#4aff4a" d="M-221.347 65.524h23.96v1.52h-23.96z"/><path class="cls-5" transform="rotate(-90)" id="rect214" style="fill:#4aff4a" d="M-221.357 70.154h23.96v1.52h-23.96z"/><path class="cls-5" transform="rotate(-90)" id="rect216" style="fill:#4aff4a" d="M-173.437 51.724h23.96v1.52h-23.96z"/><path class="cls-5" transform="rotate(-90)" id="rect218" style="fill:#4aff4a" d="M-173.437 56.354h23.96v1.52h-23.96z"/><path class="cls-5" transform="rotate(-90)" id="rect220" style="fill:#4aff4a" d="M-173.437 60.974h23.96v1.52h-23.96z"/><path class="cls-5" transform="rotate(-90)" id="rect222" style="fill:#4aff4a" d="M-173.437 65.604h23.96v1.52h-23.96z"/><path class="cls-5" transform="rotate(-90)" id="rect224" style="fill:#4aff4a" d="M-173.437 70.234h23.96v1.52h-23.96z"/><path class="cls-5" transform="rotate(-90)" id="rect226" style="fill:#4aff4a" d="M-221.057 323.904h23.96v23.96h-23.96z"/><path class="cls-6" transform="rotate(-90)" id="rect228" style="fill:none" d="M-197.107 323.913h23.96v23.96h-23.96z"/><path class="cls-5" transform="rotate(-90)" id="rect230" style="fill:#4aff4a" d="M-173.147 323.904h23.96v23.96h-23.96z"/><path class="cls-5" transform="rotate(-90)" id="rect232" style="fill:#4aff4a" d="M-197.097 299.943h23.96v23.96h-23.96z"/><path class="cls-5" transform="rotate(-90)" id="rect234" style="fill:#4aff4a" d="M-197.097 347.873h23.96v20.77h-23.96z"/><path class="cls-5" transform="rotate(-90)" id="rect236" style="fill:#4aff4a" d="M-221.057 299.944h23.96v1.52h-23.96z"/><path class="cls-5" transform="rotate(-90)" id="rect238" style="fill:#4aff4a" d="M-221.056 304.564h23.96v1.52h-23.96z"/><path class="cls-5" transform="rotate(-90)" id="rect240" style="fill:#4aff4a" d="M-221.057 309.194h23.96v1.52h-23.96z"/><path class="cls-5" transform="rotate(-90)" id="rect242" style="fill:#4aff4a" d="M-221.056 313.823h23.96v1.52h-23.96z"/><path class="cls-5" transform="rotate(-90)" id="rect244" style="fill:#4aff4a" d="M-221.057 318.453h23.96v1.52h-23.96z"/><path class="cls-5" transform="rotate(-90)" id="rect246" style="fill:#4aff4a" d="M-173.147 300.024h23.96v1.52h-23.96z"/><path class="cls-5" transform="rotate(-90)" id="rect248" style="fill:#4aff4a" d="M-173.137 304.643h23.96v1.52h-23.96z"/><path class="cls-5" transform="rotate(-90)" id="rect250" style="fill:#4aff4a" d="M-173.147 309.274h23.96v1.52h-23.96z"/><path class="cls-5" transform="rotate(-90)" id="rect252" style="fill:#4aff4a" d="M-173.147 313.904h23.96v1.52h-23.96z"/><path class="cls-5" transform="rotate(-90)" id="rect254" style="fill:#4aff4a" d="M-173.147 318.534h23.96v1.52h-23.96z"/><path class="cls-5" transform="rotate(-90)" id="rect256" style="fill:#4aff4a" d="M-221.057 351.803h23.96v1.52h-23.96z"/><path class="cls-5" transform="rotate(-90)" id="rect258" style="fill:#4aff4a" d="M-221.057 356.423h23.96v1.52h-23.96z"/><path class="cls-5" transform="rotate(-90)" id="rect260" style="fill:#4aff4a" d="M-221.057 361.053h23.96v1.52h-23.96z"/><path class="cls-5" transform="rotate(-90)" id="rect262" style="fill:#4aff4a" d="M-221.057 365.683h23.96v1.52h-23.96z"/><path class="cls-5" transform="rotate(-90)" id="rect264" style="fill:#4aff4a" d="M-173.147 351.883h23.96v1.52h-23.96z"/><path class="cls-5" transform="rotate(-90)" id="rect266" style="fill:#4aff4a" d="M-173.137 356.504h23.96v1.52h-23.96z"/><path class="cls-5" transform="rotate(-90)" id="rect268" style="fill:#4aff4a" d="M-173.147 361.133h23.96v1.52h-23.96z"/><path class="cls-5" transform="rotate(-90)" id="rect270" style="fill:#4aff4a" d="M-173.147 365.763h23.96v1.52h-23.96z"/><circle class="cls-7" cx="186.003" cy="185.687" r="94.45" id="circle272" style="fill:none;stroke:#fff;stroke-width:6.30999994px;stroke-miterlimit:10"/><circle class="cls-7" cx="-137.975" cy="223.671" r="81.82" transform="rotate(-76.72)" id="circle274" style="fill:none;stroke:#fff;stroke-width:6.30999994px;stroke-miterlimit:10"/><circle class="cls-7" cx="-137.975" cy="223.671" r="69.2" transform="rotate(-76.72)" id="circle276" style="fill:none;stroke:#fff;stroke-width:6.30999994px;stroke-miterlimit:10"/><circle class="cls-7" cx="-137.975" cy="223.671" r="56.58" transform="rotate(-76.72)" id="circle278" style="fill:none;stroke:#fff;stroke-width:6.30999994px;stroke-miterlimit:10"/><path id="rect280" style="fill:#fff;stroke:#fff;stroke-width:6.71999979px;stroke-miterlimit:10" d="M47.364 161.497h275.96v48.97H47.364z"/><path class="cls-9" id="line282" style="fill:none;stroke:#142f5e;stroke-width:3.81999993px;stroke-miterlimit:10" d="M48.614 168.437h274.269"/><path class="cls-9" id="line284" style="fill:none;stroke:#142f5e;stroke-width:3.81999993px;stroke-miterlimit:10" d="M48.614 177.467h274.269"/><path class="cls-9" id="line286" style="fill:none;stroke:#142f5e;stroke-width:3.81999993px;stroke-miterlimit:10" d="M48.614 186.487h274.269"/><path class="cls-9" id="line288" style="fill:none;stroke:#142f5e;stroke-width:3.81999993px;stroke-miterlimit:10" d="M48.614 195.517h274.269"/><path class="cls-9" id="line290" style="fill:none;stroke:#142f5e;stroke-width:3.81999993px;stroke-miterlimit:10" d="M48.614 204.547h274.269"/><path class="cls-5" id="polygon292" style="fill:#4aff4a" transform="translate(-317.236 -179.563)" d="M522.36 322.67h74.51l4.21 14.98h-78.72z"/><path class="cls-5" id="polygon294" style="fill:#4aff4a" transform="translate(-317.236 -179.563)" d="M484.12 407.82h-74.51l-4.2-14.98h78.71z"/><circle cx="186.024" cy="184.917" r="34.74" id="circle296" style="fill:#fff;stroke:#142f5e;stroke-width:8.40999985px;stroke-miterlimit:10"/><path class="cls-9" d="M157.024 167.887a14 14 0 0 1 11.84 4.65 13.47 13.47 0 0 0 11 4.87h11.58c4.89 0 8.42-1.2 11.72-4.91a14 14 0 0 1 11.84-4.65" id="path298" style="fill:none;stroke:#142f5e;stroke-width:3.81999993px;stroke-miterlimit:10"/><path class="cls-9" d="M157.024 205.557a14 14 0 0 0 11.84-4.65 13.47 13.47 0 0 1 11-4.87h11.58c4.89 0 8.42 1.2 11.72 4.91a14 14 0 0 0 11.84 4.65" id="path300" style="fill:none;stroke:#142f5e;stroke-width:3.81999993px;stroke-miterlimit:10"/><path class="cls-9" id="line302" style="fill:none;stroke:#142f5e;stroke-width:3.81999993px;stroke-miterlimit:10" d="M152.584 186.697h68.179"/><path class="cls-9" id="line304" style="fill:none;stroke:#142f5e;stroke-width:3.81999993px;stroke-miterlimit:10" d="M186.024 150.177v21.62"/><path class="cls-9" id="line306" style="fill:none;stroke:#142f5e;stroke-width:3.81999993px;stroke-miterlimit:10" d="M186.024 201.507v20.78"/><path class="cls-5" id="polyline308" style="fill:#4aff4a" transform="translate(-317.236 -179.563)" d="m574.83 325.07 13.67-15.32 7.73 15.32"/><path class="cls-5" id="polyline310" style="fill:#4aff4a" transform="translate(-317.236 -179.563)" d="m431.66 405.43-13.68 15.32-7.73-15.32"/><path d="M352.764 115.197a181.45 181.45 0 1 0 14.25 70.49 180.55 180.55 0 0 0-14.25-70.49z" id="path312" style="fill:none;stroke:#4aff4a;stroke-width:8.40999985px;stroke-miterlimit:10"/><path class="cls-5" d="m45.763 266.307 1.72-7.35 4.95-3.07 3.18 5.12-2.85 1.76-.62 2.62 3 4.85 2.62.62 4.94-3.07.62-2.63-4.39-7.05 1.72-7.36 9.17-5.69 7.36 1.72 5.75 9.25-1.67 7.41-4.94 3-3.19-5.12 2.83-1.76.62-2.62-3-4.85-2.62-.62-4.94 3.07-.62 2.62 4.36 7.08-1.72 7.36-9.17 5.69-7.36-1.72z" id="path314" style="fill:#4aff4a"/><path class="cls-5" d="m74.623 302.857 10.77-11.74-.24-.22-.46-10.54 9.23-10.06 4.44 4.08-7.54 8.23.25 5.68 1.09 1 5.68-.25 7.54-8.23 4.45 4.08-9.22 10.06-10.54.46-.24-.22-10.76 11.74z" id="path316" style="fill:#4aff4a"/><path class="cls-5" d="m118.823 332.797 10.13-20.54-6.76 5.34-1.9-.94.11-8.61-10.12 20.55-5.41-2.67 16.37-33.22 4.93 2.43-.16 12.3 9.65-7.63 4.94 2.43-16.37 33.2z" id="path318" style="fill:#4aff4a"/><path class="cls-5" d="m148.763 343.337 6.2-36.51 16 2.72 4.37 6.16-2.34 13.82-6.16 4.38-10.07-1.71-2 12.15zm20.22-26.19-1.56-2.19-7.51-1.28-2.15 12.68 7.51 1.27 2.2-1.56z" id="path320" style="fill:#4aff4a"/><path class="cls-5" d="m209.874 345.637-1.82-15.44-9.46 1.11 1.83 15.45-6 .7-4.34-36.77 6-.71 1.82 15.46 9.46-1.12-1.82-15.44 6-.71 4.33 36.78z" id="path322" style="fill:#4aff4a"/><path class="cls-5" d="m245.453 336.117-7-2.77-10.51-24.15 2.77-7 10-4.35 7 2.77 10.51 24.15-2.76 7zm-2.28-30.85-2.51-1-5.24 2.28-1 2.51 8.53 19.6 2.51 1 5.23-2.28 1-2.5z" id="path324" style="fill:#4aff4a"/><path class="cls-5" d="m293.943 306.087-12.27-14.49-13.42-1.16 18.42 21.76-4.6 3.9-23.93-28.26 4.61-3.9 13.42 1.12-6.16-7.27 4.61-3.9 23.92 28.27z" id="path326" style="fill:#4aff4a"/><path class="cls-5" d="m319.024 277.607-13.26-8.82-.18.27-10.34 2.08-11.36-7.55 3.33-5 9.3 6.18 5.57-1.12.82-1.23-1.14-5.61-9.3-6.17 3.34-5 11.37 7.56 2.08 10.34-.18.26 13.26 8.82z" id="path328" style="fill:#4aff4a"/><circle class="cls-12" cx="66.283" cy="189.037" r="6.85" id="circle330" style="fill:#fff;stroke:#fff;stroke-width:6.53999996px;stroke-miterlimit:10"/><circle class="cls-12" cx="92.793" cy="198.857" r="6.85" id="circle332" style="fill:#fff;stroke:#fff;stroke-width:6.53999996px;stroke-miterlimit:10"/><path class="cls-12" id="polyline334" style="fill:#fff;stroke:#fff;stroke-width:6.53999996px;stroke-miterlimit:10" transform="translate(-317.236 -179.563)" d="m390.29 366.86-3.15-22.63 25.75 4.8 3.84 27.64"/><circle class="cls-13" cx="61.663" cy="188.197" r="6.85" id="circle336" style="fill:#4aff4a;stroke:#142f5e;stroke-width:6.53999996px;stroke-linecap:round;stroke-linejoin:round"/><circle class="cls-13" cx="88.163" cy="198.017" r="6.85" id="circle338" style="fill:#4aff4a;stroke:#142f5e;stroke-width:6.53999996px;stroke-linecap:round;stroke-linejoin:round"/><path class="cls-14" id="polyline340" style="fill:none;stroke:#142f5e;stroke-width:6.53999996px;stroke-linecap:round;stroke-linejoin:round" transform="translate(-317.236 -179.563)" d="m385.66 366.02-3.14-22.63 25.74 4.8 3.84 27.63"/><circle class="cls-12" cx="281.714" cy="189.507" r="6.85" id="circle342" style="fill:#fff;stroke:#fff;stroke-width:6.53999996px;stroke-miterlimit:10"/><circle class="cls-12" cx="308.214" cy="199.327" r="6.85" id="circle344" style="fill:#fff;stroke:#fff;stroke-width:6.53999996px;stroke-miterlimit:10"/><path class="cls-12" id="polyline346" style="fill:#fff;stroke:#fff;stroke-width:6.53999996px;stroke-miterlimit:10" transform="translate(-317.236 -179.563)" d="m605.71 367.32-3.14-22.63 25.3 4.36 4.28 28.08"/><circle class="cls-13" cx="277.084" cy="188.657" r="6.85" id="circle348" style="fill:#4aff4a;stroke:#142f5e;stroke-width:6.53999996px;stroke-linecap:round;stroke-linejoin:round"/><circle class="cls-13" cx="303.584" cy="198.477" r="6.85" id="circle350" style="fill:#4aff4a;stroke:#142f5e;stroke-width:6.53999996px;stroke-linecap:round;stroke-linejoin:round"/><path class="cls-14" id="polyline352" style="fill:none;stroke:#142f5e;stroke-width:6.53999996px;stroke-linecap:round;stroke-linejoin:round" transform="translate(-317.236 -179.563)" d="m601.08 366.48-3.14-22.63 25.74 4.8 3.84 27.64"/><circle class="cls-15" cx="129.073" cy="190.047" r="6.85" id="circle354" style="fill:#fff;stroke:#fff;stroke-width:6.53999996px;stroke-linecap:round;stroke-linejoin:round"/><path class="cls-15" id="polyline356" style="fill:#fff;stroke:#fff;stroke-width:6.53999996px;stroke-linecap:round;stroke-linejoin:round" transform="translate(-317.236 -179.563)" d="m433.68 389.11 5.75-.45v-18.23"/><circle class="cls-13" cx="125.283" cy="186.257" r="6.85" id="circle358" style="fill:#4aff4a;stroke:#142f5e;stroke-width:6.53999996px;stroke-linecap:round;stroke-linejoin:round"/><path class="cls-14" id="polyline360" style="fill:none;stroke:#142f5e;stroke-width:6.53999996px;stroke-linecap:round;stroke-linejoin:round" transform="translate(-317.236 -179.563)" d="m429.89 395 5.75-.45v-27.91"/><circle class="cls-15" cx="248.354" cy="188.437" r="6.85" id="circle362" style="fill:#fff;stroke:#fff;stroke-width:6.53999996px;stroke-linecap:round;stroke-linejoin:round"/><path id="polyline364" style="fill:none;stroke:#fff;stroke-width:6.53999996px;stroke-linecap:round;stroke-linejoin:round" transform="translate(-317.236 -179.563)" d="m585.03 339.06-12.56.21v27.91"/><path class="cls-15" id="line366" style="fill:#fff;stroke:#fff;stroke-width:6.53999996px;stroke-linecap:round;stroke-linejoin:round" d="M255.534 169.717h7.94"/><circle class="cls-13" cx="244.144" cy="185.487" r="6.85" id="circle368" style="fill:#4aff4a;stroke:#142f5e;stroke-width:6.53999996px;stroke-linecap:round;stroke-linejoin:round"/><path class="cls-14" id="polyline370" style="fill:none;stroke:#142f5e;stroke-width:6.53999996px;stroke-linecap:round;stroke-linejoin:round" transform="translate(-317.236 -179.563)" d="m580.82 336.11-12.56.22v27.91"/><path class="cls-14" id="line372" style="fill:none;stroke:#142f5e;stroke-width:6.53999996px;stroke-linecap:round;stroke-linejoin:round" d="M251.323 168.027h7.94"/><path class="cls-5" d="m86.243 119.497-7.78 1.17-4.88-3.59 3.73-5.06 2.79 2.06 2.77-.42 3.53-4.78-.42-2.78-4.87-3.59-2.77.42-5.14 7-7.77 1.17-9.05-6.66-1.17-7.78 6.73-9.14 7.78-1.17 4.88 3.59-3.73 5.06-2.79-2.06-2.78.42-3.54 4.75.42 2.77 4.88 3.59 2.77-.42 5.13-7 7.78-1.17 9 6.67 1.18 7.77z" id="path374" style="fill:#4aff4a"/><path class="cls-5" d="m109.543 93.277-22.23-31.5 16.56-11.68 3.56 5-11.43 8.06 5.76 8.28 6.93-4.89 3.55 5-6.9 4.89 5.77 8.19 11.43-8.06 3.56 5z" id="path376" style="fill:#4aff4a"/><path class="cls-5" d="m157.763 69.357-3-10.32-9.53 2.72 2.95 10.33-6 1.72-8.29-29 5.76-10.37 5.51-1.58 10.34 5.75 8.29 29zm-7.57-26.52-5.93-3.29-.31.09-3.29 5.92 2.93 10.27 9.53-2.72z" id="path378" style="fill:#4aff4a"/><path class="cls-5" d="m186.363 66.087.93-32.36-8.09-.23.17-6.17 22.46.64-.18 6.17-8.09-.23-.92 32.36z" id="path380" style="fill:#4aff4a"/><path class="cls-5" d="m221.974 71.557 10.52-30.62-7.66-2.63 2-5.83 21.25 7.3-2 5.83-7.66-2.63-10.51 30.62z" id="path382" style="fill:#4aff4a"/><path class="cls-5" d="m250.203 84.497 22.72-31.14 5.07 3.7-19.08 26.16 9.52 6.94-3.63 5z" id="path384" style="fill:#4aff4a"/><path class="cls-5" d="m276.594 107.077 31-22.95 12.04 16.31-5 3.68-8.33-11.24-8.06 6 5.05 6.81-5 3.67-5-6.81-8.06 6 8.33 11.24-5 3.67z" id="path386" style="fill:#4aff4a"/></svg>