<svg xmlns="http://www.w3.org/2000/svg" id="Layer_1" data-name="Layer 1" version="1.1" width="370.395" height="370.4"><defs id="defs4"><style id="style2">.cls-3{fill:#fff}.cls-4{fill:#142f5e}.cls-5{fill:#4aff4a}.cls-6{fill:none}</style></defs><path class="cls-4" d="M351.85 114.67a181.45 181.45 0 1 0 14.25 70.49 180.55 180.55 0 0 0-14.25-70.49zm-101.3 70.49a65.45 65.45 0 1 1-19.17-46.25 65 65 0 0 1 19.17 46.25z" id="path174" style="fill:#142f5e"/><circle class="cls-5" cx="185.109" cy="185.26" r="123.25" id="circle176" style="fill:#4aff4a"/><path class="cls-4" d="M185.11 44.2a140.66 140.66 0 1 1-54.92 11.09 140.2 140.2 0 0 1 54.92-11.09zm0 246.49a105.43 105.43 0 1 0-74.55-30.88 104.77 104.77 0 0 0 74.55 30.88z" id="path178" style="fill:#142f5e"/><path class="cls-5" transform="rotate(-90)" id="rect180" style="fill:#4aff4a" d="M-220.82 22.839h23.96v23.96h-23.96z"/><path class="cls-6" transform="rotate(-90)" id="rect182" style="fill:none" d="M-196.87 22.839h23.96v23.96h-23.96z"/><path class="cls-5" transform="rotate(-90)" id="rect184" style="fill:#4aff4a" d="M-172.91 22.839h23.96v23.96h-23.96z"/><path class="cls-5" transform="rotate(-90)" id="rect186" style="fill:#4aff4a" d="M-196.87 1.669h23.96v21.16h-23.96z"/><path class="cls-5" transform="rotate(-90)" id="rect188" style="fill:#4aff4a" d="M-196.86 46.809h23.96v23.96h-23.96z"/><path class="cls-5" transform="rotate(-90)" id="rect190" style="fill:#4aff4a" d="M-220.83 3.499h23.96v1.52h-23.96z"/><path class="cls-5" transform="rotate(-90)" id="rect192" style="fill:#4aff4a" d="M-220.82 8.119h23.96v1.52h-23.96z"/><path class="cls-5" transform="rotate(-90)" id="rect194" style="fill:#4aff4a" d="M-220.82 12.749h23.96v1.52h-23.96z"/><path class="cls-5" transform="rotate(-90)" id="rect196" style="fill:#4aff4a" d="M-220.82 17.379h23.96v1.52h-23.96z"/><path class="cls-5" transform="rotate(-90)" id="rect198" style="fill:#4aff4a" d="M-172.91 3.579h23.96v1.52h-23.96z"/><path class="cls-5" transform="rotate(-90)" id="rect200" style="fill:#4aff4a" d="M-172.91 8.199h23.96v1.52h-23.96z"/><path class="cls-5" transform="rotate(-90)" id="rect202" style="fill:#4aff4a" d="M-172.91 12.829h23.96v1.52h-23.96z"/><path class="cls-5" transform="rotate(-90)" id="rect204" style="fill:#4aff4a" d="M-172.91 17.459h23.96v1.52h-23.96z"/><path class="cls-5" transform="rotate(-90)" id="rect206" style="fill:#4aff4a" d="M-220.83 50.729h23.96v1.52h-23.96z"/><path class="cls-5" transform="rotate(-90)" id="rect208" style="fill:#4aff4a" d="M-220.83 55.359h23.96v1.52h-23.96z"/><path class="cls-5" transform="rotate(-90)" id="rect210" style="fill:#4aff4a" d="M-220.82 59.979h23.96v1.52h-23.96z"/><path class="cls-5" transform="rotate(-90)" id="rect212" style="fill:#4aff4a" d="M-220.82 64.609h23.96v1.52h-23.96z"/><path class="cls-5" transform="rotate(-90)" id="rect214" style="fill:#4aff4a" d="M-220.83 69.239h23.96v1.52h-23.96z"/><path class="cls-5" transform="rotate(-90)" id="rect216" style="fill:#4aff4a" d="M-172.91 50.809h23.96v1.52h-23.96z"/><path class="cls-5" transform="rotate(-90)" id="rect218" style="fill:#4aff4a" d="M-172.91 55.439h23.96v1.52h-23.96z"/><path class="cls-5" transform="rotate(-90)" id="rect220" style="fill:#4aff4a" d="M-172.91 60.059h23.96v1.52h-23.96z"/><path class="cls-5" transform="rotate(-90)" id="rect222" style="fill:#4aff4a" d="M-172.91 64.689h23.96v1.52h-23.96z"/><path class="cls-5" transform="rotate(-90)" id="rect224" style="fill:#4aff4a" d="M-172.91 69.319h23.96v1.52h-23.96z"/><path class="cls-5" transform="rotate(-90)" id="rect226" style="fill:#4aff4a" d="M-220.53 322.989h23.96v23.96h-23.96z"/><path class="cls-6" transform="rotate(-90)" id="rect228" style="fill:none" d="M-196.58 322.999h23.96v23.96h-23.96z"/><path class="cls-5" transform="rotate(-90)" id="rect230" style="fill:#4aff4a" d="M-172.62 322.989h23.96v23.96h-23.96z"/><path class="cls-5" transform="rotate(-90)" id="rect232" style="fill:#4aff4a" d="M-196.57 299.029h23.96v23.96h-23.96z"/><path class="cls-5" transform="rotate(-90)" id="rect234" style="fill:#4aff4a" d="M-196.57 346.959h23.96v20.77h-23.96z"/><path class="cls-5" transform="rotate(-90)" id="rect236" style="fill:#4aff4a" d="M-220.53 299.029h23.96v1.52h-23.96z"/><path class="cls-5" transform="rotate(-90)" id="rect238" style="fill:#4aff4a" d="M-220.53 303.649h23.96v1.52h-23.96z"/><path class="cls-5" transform="rotate(-90)" id="rect240" style="fill:#4aff4a" d="M-220.53 308.279h23.96v1.52h-23.96z"/><path class="cls-5" transform="rotate(-90)" id="rect242" style="fill:#4aff4a" d="M-220.53 312.909h23.96v1.52h-23.96z"/><path class="cls-5" transform="rotate(-90)" id="rect244" style="fill:#4aff4a" d="M-220.53 317.539h23.96v1.52h-23.96z"/><path class="cls-5" transform="rotate(-90)" id="rect246" style="fill:#4aff4a" d="M-172.62 299.109h23.96v1.52h-23.96z"/><path class="cls-5" transform="rotate(-90)" id="rect248" style="fill:#4aff4a" d="M-172.61 303.729h23.96v1.52h-23.96z"/><path class="cls-5" transform="rotate(-90)" id="rect250" style="fill:#4aff4a" d="M-172.62 308.359h23.96v1.52h-23.96z"/><path class="cls-5" transform="rotate(-90)" id="rect252" style="fill:#4aff4a" d="M-172.62 312.989h23.96v1.52h-23.96z"/><path class="cls-5" transform="rotate(-90)" id="rect254" style="fill:#4aff4a" d="M-172.62 317.619h23.96v1.52h-23.96z"/><path class="cls-5" transform="rotate(-90)" id="rect256" style="fill:#4aff4a" d="M-220.53 350.889h23.96v1.52h-23.96z"/><path class="cls-5" transform="rotate(-90)" id="rect258" style="fill:#4aff4a" d="M-220.53 355.509h23.96v1.52h-23.96z"/><path class="cls-5" transform="rotate(-90)" id="rect260" style="fill:#4aff4a" d="M-220.53 360.139h23.96v1.52h-23.96z"/><path class="cls-5" transform="rotate(-90)" id="rect262" style="fill:#4aff4a" d="M-220.53 364.769h23.96v1.52h-23.96z"/><path class="cls-5" transform="rotate(-90)" id="rect264" style="fill:#4aff4a" d="M-172.62 350.969h23.96v1.52h-23.96z"/><path class="cls-5" transform="rotate(-90)" id="rect266" style="fill:#4aff4a" d="M-172.61 355.589h23.96v1.52h-23.96z"/><path class="cls-5" transform="rotate(-90)" id="rect268" style="fill:#4aff4a" d="M-172.62 360.219h23.96v1.52h-23.96z"/><path class="cls-5" transform="rotate(-90)" id="rect270" style="fill:#4aff4a" d="M-172.62 364.849h23.96v1.52h-23.96z"/><path class="cls-3" d="M185.09 282.76a97.6 97.6 0 1 1 97.6-97.6 97.72 97.72 0 0 1-97.6 97.6zm0-188.89a91.29 91.29 0 1 0 91.29 91.29 91.4 91.4 0 0 0-91.29-91.25z" id="path272" style="fill:#fff"/><path class="cls-3" d="M185.09 270.13a85 85 0 1 1 85-85 85.08 85.08 0 0 1-85 85zm0-163.64a78.67 78.67 0 1 0 78.67 78.67 78.76 78.76 0 0 0-78.67-78.67z" id="path274" style="fill:#fff"/><path class="cls-3" d="M185.09 257.51a72.36 72.36 0 1 1 72.36-72.35 72.44 72.44 0 0 1-72.36 72.35zm0-138.4a66 66 0 1 0 66 66.05 66.12 66.12 0 0 0-66-66.05z" id="path276" style="fill:#fff"/><path class="cls-3" d="M185.09 244.91a59.74 59.74 0 1 1 59.76-59.75 59.8 59.8 0 0 1-59.76 59.75zm0-113.16a53.43 53.43 0 1 0 53.43 53.43 53.49 53.49 0 0 0-53.43-53.45z" id="path278" style="fill:#fff"/><path class="cls-3" id="rect280" style="fill:#fff" d="M46.449 160.97h275.96v48.97H46.449z"/><path class="cls-3" d="M325.78 213.3H43.09v-55.69h282.69zm-276-6.72h269.27v-42.25H49.85z" id="path282" style="fill:#fff"/><path class="cls-4" id="rect284" style="fill:#142f5e" d="M47.699 165.99h274.27v3.82H47.699z"/><path class="cls-4" id="rect286" style="fill:#142f5e" d="M47.699 175.02h274.27v3.82H47.699z"/><path class="cls-4" id="rect288" style="fill:#142f5e" d="M47.699 184.05h274.27v3.82H47.699z"/><path class="cls-4" id="rect290" style="fill:#142f5e" d="M47.699 193.08h274.27v3.82H47.699z"/><path class="cls-4" id="rect292" style="fill:#142f5e" d="M47.699 202.11h274.27v3.82H47.699z"/><path class="cls-5" id="polygon294" style="fill:#4aff4a" transform="translate(-318.15 -180.09)" d="M522.36 322.67h74.51l4.21 14.98h-78.72z"/><path class="cls-5" id="polygon296" style="fill:#4aff4a" transform="translate(-318.15 -180.09)" d="M484.12 407.82h-74.51l-4.2-14.98h78.71z"/><circle class="cls-3" cx="185.109" cy="184.39" r="34.74" id="circle298" style="fill:#fff"/><path class="cls-4" d="M185.11 223.33a38.95 38.95 0 1 1 38.94-38.94 39 39 0 0 1-38.94 38.94zm0-69.47a30.53 30.53 0 1 0 30.53 30.53 30.56 30.56 0 0 0-30.53-30.48z" id="path300" style="fill:#142f5e"/><path class="cls-4" d="M190.66 178.83h-11.67c-5.33 0-9.06-1.67-12.47-5.5a12 12 0 0 0-10.13-4l-.58-3.78a15.86 15.86 0 0 1 13.57 5.27c2.68 3 5.38 4.21 9.6 4.22l11.58.05h.1c4.59 0 7.45-1.2 10.18-4.27a15.84 15.84 0 0 1 13.56-5.27l-.59 3.78a12 12 0 0 0-10.11 4c-3.46 3.84-7.36 5.5-13.04 5.5z" id="path302" style="fill:#142f5e"/><path class="cls-4" d="M212.79 207.02a15.87 15.87 0 0 1-12-5.37c-2.75-3.09-5.6-4.26-10.28-4.27h-11.58c-4.22 0-6.92 1.19-9.6 4.22a15.86 15.86 0 0 1-13.48 5.31l.59-3.78-.29 1.89.28-1.89a12 12 0 0 0 10.13-4 15.28 15.28 0 0 1 12.45-5.51h11.66c5.71 0 9.61 1.66 13.07 5.55a12 12 0 0 0 10.12 4l.58 3.78a10.1 10.1 0 0 1-1.65.07z" id="path304" style="fill:#142f5e"/><path class="cls-4" id="rect306" style="fill:#142f5e" d="M151.669 184.26h68.18v3.82h-68.18z"/><path class="cls-4" id="rect308" style="fill:#142f5e" d="M183.189 149.65h3.82v21.62h-3.82z"/><path class="cls-4" id="rect310" style="fill:#142f5e" d="M183.189 200.98h3.82v20.78h-3.82z"/><path class="cls-5" id="polyline312" style="fill:#4aff4a" transform="translate(-318.15 -180.09)" d="m574.83 325.07 13.67-15.32 7.73 15.32"/><path class="cls-5" id="polyline314" style="fill:#4aff4a" transform="translate(-318.15 -180.09)" d="m431.66 405.43-13.68 15.32-7.73-15.32"/><path class="cls-5" d="M185.09 370.4a185.2 185.2 0 1 1 170.67-257.37A185.21 185.21 0 0 1 185.09 370.4zm0-362.08a176.71 176.71 0 1 0 162.92 108 176.74 176.74 0 0 0-162.92-108z" id="path316" style="fill:#4aff4a"/><path class="cls-5" d="m44.85 265.78 1.72-7.35 4.95-3.07 3.18 5.12-2.85 1.76-.62 2.62 3 4.85 2.62.62 4.94-3.07.62-2.63-4.39-7.05 1.72-7.36 9.17-5.69 7.36 1.72 5.75 9.25-1.67 7.41-4.94 3-3.19-5.12 2.83-1.76.62-2.62-3-4.85-2.62-.62-4.94 3.07-.62 2.62 4.36 7.08-1.72 7.36-9.17 5.69-7.36-1.72z" id="path318" style="fill:#4aff4a"/><path class="cls-5" d="m73.71 302.33 10.77-11.74-.24-.22-.46-10.54 9.23-10.06 4.44 4.08-7.54 8.23.25 5.68 1.09 1 5.68-.25 7.54-8.23 4.45 4.08-9.22 10.06-10.54.46-.24-.22-10.76 11.74z" id="path320" style="fill:#4aff4a"/><path class="cls-5" d="m117.91 332.27 10.13-20.54-6.76 5.34-1.9-.94.11-8.61-10.12 20.55-5.41-2.67 16.37-33.22 4.93 2.43-.16 12.3 9.65-7.63 4.94 2.43-16.37 33.2z" id="path322" style="fill:#4aff4a"/><path class="cls-5" d="m147.85 342.81 6.2-36.51 16 2.72 4.37 6.16-2.34 13.82-6.16 4.38-10.07-1.71-2 12.15zm20.22-26.19-1.56-2.19-7.51-1.28-2.15 12.68 7.51 1.27 2.2-1.56z" id="path324" style="fill:#4aff4a"/><path class="cls-5" d="m208.96 345.11-1.82-15.44-9.46 1.11 1.83 15.45-6 .7-4.34-36.77 6-.71 1.82 15.46 9.46-1.12-1.82-15.44 6-.71 4.33 36.78z" id="path326" style="fill:#4aff4a"/><path class="cls-5" d="m244.54 335.59-7-2.77-10.51-24.15 2.77-7 10-4.35 7 2.77 10.51 24.15-2.76 7zm-2.28-30.85-2.51-1-5.24 2.28-1 2.51 8.53 19.6 2.51 1 5.23-2.28 1-2.5z" id="path328" style="fill:#4aff4a"/><path class="cls-5" d="m293.03 305.56-12.27-14.49-13.42-1.16 18.42 21.76-4.6 3.9-23.93-28.26 4.61-3.9 13.42 1.12-6.16-7.27 4.61-3.9 23.92 28.27z" id="path330" style="fill:#4aff4a"/><path class="cls-5" d="m318.11 277.08-13.26-8.82-.18.27-10.34 2.08-11.36-7.55 3.33-5 9.3 6.18 5.57-1.12.82-1.23-1.14-5.61-9.3-6.17 3.34-5 11.37 7.56 2.08 10.34-.18.26 13.26 8.82z" id="path332" style="fill:#4aff4a"/><circle class="cls-3" cx="65.369" cy="188.51" r="6.85" id="circle334" style="fill:#fff"/><path class="cls-3" d="M65.35 198.63a10.12 10.12 0 1 1 10-11.51 10.12 10.12 0 0 1-8.63 11.41 9.55 9.55 0 0 1-1.37.1zm0-13.7a4.38 4.38 0 0 0-.5 0 3.58 3.58 0 1 0 4 3.05 3.6 3.6 0 0 0-3.54-3.09z" id="path336" style="fill:#fff"/><circle class="cls-3" cx="91.879" cy="198.33" r="6.85" id="circle338" style="fill:#fff"/><path class="cls-3" d="M91.85 208.45a10.12 10.12 0 1 1 10.05-11.54 10.12 10.12 0 0 1-8.63 11.41 9.69 9.69 0 0 1-1.42.13zm0-13.7a4.38 4.38 0 0 0-.5 0 3.58 3.58 0 0 0-1.66 6.4 3.58 3.58 0 0 0 5.7-3.35 3.6 3.6 0 0 0-3.54-3.09z" id="path340" style="fill:#fff"/><path class="cls-3" id="polyline342" style="fill:#fff" transform="translate(-318.15 -180.09)" d="m390.29 366.86-3.15-22.63 25.75 4.8 3.84 27.64"/><path class="cls-3" id="polygon344" style="fill:#fff" transform="translate(-318.15 -180.09)" d="m391.01 348.27 2.52 18.14-6.48.9-3.77-27.13 32.53 6.06 4.16 29.98-6.48.9-3.51-25.31z"/><circle class="cls-5" cx="60.749" cy="187.67" r="6.85" id="circle346" style="fill:#4aff4a"/><path class="cls-4" d="M60.74 197.79a10.12 10.12 0 1 1 10-11.51 10.14 10.14 0 0 1-8.63 11.41 9.51 9.51 0 0 1-1.37.1zm0-13.7a2.81 2.81 0 0 0-.5 0 3.54 3.54 0 1 0 .5 0z" id="path348" style="fill:#142f5e"/><circle class="cls-5" cx="87.249" cy="197.49" r="6.85" id="circle350" style="fill:#4aff4a"/><path class="cls-4" d="M87.24 207.61a10.12 10.12 0 1 1 10-11.51 10.13 10.13 0 0 1-8.63 11.41 9.51 9.51 0 0 1-1.37.1zm0-13.7a2.7 2.7 0 0 0-.49 0 3.53 3.53 0 1 0 .49 0z" id="path352" style="fill:#142f5e"/><path class="cls-4" d="M93.95 199a3.27 3.27 0 0 1-3.24-2.82l-3.51-25.27-19-3.54 2.52 18.14a3.271 3.271 0 0 1-6.48.9l-3.14-22.63a3.26 3.26 0 0 1 1-2.82 3.3 3.3 0 0 1 2.86-.85l25.74 4.8a3.27 3.27 0 0 1 2.64 2.76l3.84 27.64a3.27 3.27 0 0 1-2.79 3.69z" id="path354" style="fill:#142f5e"/><circle class="cls-3" cx="280.799" cy="188.98" r="6.85" id="circle356" style="fill:#fff"/><path class="cls-3" d="M280.77 199.09a10.11 10.11 0 1 1 10.08-11.51 10.12 10.12 0 0 1-8.63 11.42 11.4 11.4 0 0 1-1.45.09zm0-13.69h-.5a3.58 3.58 0 0 0-1.66 6.4 3.54 3.54 0 0 0 2.65.69 3.58 3.58 0 0 0 2.36-1.39 3.54 3.54 0 0 0 .69-2.65 3.58 3.58 0 0 0-3.54-3.08z" id="path358" style="fill:#fff"/><circle class="cls-3" cx="307.299" cy="198.8" r="6.85" id="circle360" style="fill:#fff"/><path class="cls-3" d="M307.28 208.91a10.11 10.11 0 1 1 10-11.51 10.12 10.12 0 0 1-8.63 11.42 11.12 11.12 0 0 1-1.37.09zm0-13.69a4.07 4.07 0 0 0-.5 0 3.54 3.54 0 0 0-2.36 1.39 3.5 3.5 0 0 0-.69 2.65 3.575 3.575 0 0 0 7.08-1 3.56 3.56 0 0 0-3.53-3.08z" id="path362" style="fill:#fff"/><path class="cls-3" id="polyline364" style="fill:#fff" transform="translate(-318.15 -180.09)" d="m605.71 367.32-3.14-22.63 25.3 4.36 4.28 28.08"/><path class="cls-3" id="polygon366" style="fill:#fff" transform="translate(-318.15 -180.09)" d="m606.42 348.67 2.53 18.2-6.48.9-3.76-27.06 32.04 5.52 4.63 30.41-6.46.98-3.93-25.75z"/><circle class="cls-5" cx="276.169" cy="188.13" r="6.85" id="circle368" style="fill:#4aff4a"/><path class="cls-4" d="M276.16 198.25a10.12 10.12 0 1 1 10-11.51 10.14 10.14 0 0 1-8.63 11.42 11.09 11.09 0 0 1-1.37.09zm0-13.69a4 4 0 0 0-.49 0 3.6 3.6 0 1 0 .49 0z" id="path370" style="fill:#142f5e"/><circle class="cls-5" cx="302.669" cy="197.95" r="6.85" id="circle372" style="fill:#4aff4a"/><path class="cls-4" d="M302.67 208.07a10.12 10.12 0 1 1 10-11.51 10.13 10.13 0 0 1-8.63 11.42 10.93 10.93 0 0 1-1.37.09zm0-13.69h-.49a3.6 3.6 0 1 0 .49 0z" id="path374" style="fill:#142f5e"/><path class="cls-4" d="M309.37 199.47a3.26 3.26 0 0 1-3.23-2.82l-3.52-25.31-19-3.53 2.55 18.1a3.271 3.271 0 1 1-6.48.9l-3.14-22.6a3.27 3.27 0 0 1 3.84-3.67l25.74 4.8a3.26 3.26 0 0 1 2.64 2.77l3.84 27.64a3.27 3.27 0 0 1-2.79 3.69 3.4 3.4 0 0 1-.45.03z" id="path376" style="fill:#142f5e"/><circle class="cls-3" cx="128.159" cy="189.52" r="6.85" id="circle378" style="fill:#fff"/><path class="cls-3" d="M128.16 199.64a10.12 10.12 0 1 1 10.12-10.12 10.13 10.13 0 0 1-10.12 10.12zm0-13.7a3.58 3.58 0 1 0 3.58 3.58 3.59 3.59 0 0 0-3.58-3.61z" id="path380" style="fill:#fff"/><path class="cls-3" id="polyline382" style="fill:#fff" transform="translate(-318.15 -180.09)" d="m433.68 389.11 5.75-.45v-18.23"/><path class="cls-3" d="M115.52 212.29a3.27 3.27 0 0 1-.25-6.53l2.74-.22v-15.2a3.27 3.27 0 0 1 6.54 0v18.23a3.28 3.28 0 0 1-3 3.26l-5.76.45z" id="path384" style="fill:#fff"/><circle class="cls-5" cx="124.369" cy="185.73" r="6.85" id="circle386" style="fill:#4aff4a"/><path class="cls-4" d="M124.37 195.85a10.12 10.12 0 1 1 10.12-10.12 10.12 10.12 0 0 1-10.12 10.12zm0-13.69a3.58 3.58 0 1 0 3.58 3.57 3.57 3.57 0 0 0-3.58-3.57z" id="path388" style="fill:#142f5e"/><path class="cls-4" d="M111.74 218.18a3.27 3.27 0 0 1-.26-6.53l2.74-.22v-24.88a3.27 3.27 0 0 1 6.54 0v27.91a3.28 3.28 0 0 1-3 3.26l-5.75.45z" id="path390" style="fill:#142f5e"/><circle class="cls-3" cx="247.439" cy="187.91" r="6.85" id="circle392" style="fill:#fff"/><path class="cls-3" d="M247.44 198.02a10.12 10.12 0 1 1 10.12-10.11 10.12 10.12 0 0 1-10.12 10.11zm0-13.69a3.58 3.58 0 1 0 3.58 3.58 3.59 3.59 0 0 0-3.58-3.58z" id="path394" style="fill:#fff"/><path class="cls-3" d="M254.32 190.36a3.26 3.26 0 0 1-3.27-3.27v-27.9a3.27 3.27 0 0 1 3.21-3.27l12.57-.22a3.27 3.27 0 0 1 .06 6.54l-9.35.16v24.69a3.26 3.26 0 0 1-3.22 3.27z" id="path396" style="fill:#fff"/><path class="cls-3" d="M262.56 172.46h-7.94a3.27 3.27 0 1 1 0-6.54h7.94a3.27 3.27 0 1 1 0 6.54z" id="path398" style="fill:#fff"/><circle class="cls-5" cx="243.229" cy="184.96" r="6.85" id="circle400" style="fill:#4aff4a"/><path class="cls-4" d="M243.23 195.08a10.12 10.12 0 1 1 10.12-10.12 10.13 10.13 0 0 1-10.12 10.12zm0-13.7a3.58 3.58 0 1 0 3.58 3.58 3.59 3.59 0 0 0-3.58-3.58z" id="path402" style="fill:#142f5e"/><path class="cls-4" d="M250.11 187.41a3.27 3.27 0 0 1-3.27-3.26v-27.91a3.27 3.27 0 0 1 3.22-3.27l12.56-.22h.06a3.27 3.27 0 0 1 0 6.54l-9.35.16v24.7a3.26 3.26 0 0 1-3.22 3.26z" id="path404" style="fill:#142f5e"/><path class="cls-4" d="M258.35 170.77h-7.94a3.27 3.27 0 1 1 0-6.53h7.94a3.27 3.27 0 1 1 0 6.53z" id="path406" style="fill:#142f5e"/><path class="cls-5" d="m85.33 118.97-7.78 1.17-4.88-3.59 3.73-5.06 2.79 2.06 2.77-.42 3.53-4.78-.42-2.78-4.87-3.59-2.77.42-5.14 7-7.77 1.17-9.05-6.66-1.17-7.78 6.73-9.14 7.78-1.17 4.88 3.59-3.73 5.06-2.79-2.06-2.78.42-3.54 4.75.42 2.77 4.88 3.59 2.77-.42 5.13-7 7.78-1.17 9 6.67 1.18 7.77z" id="path408" style="fill:#4aff4a"/><path class="cls-5" d="M108.63 92.75 86.4 61.25l16.56-11.68 3.56 5-11.43 8.06 5.76 8.28 6.93-4.89 3.55 5-6.9 4.89 5.77 8.19 11.43-8.06 3.56 5z" id="path410" style="fill:#4aff4a"/><path class="cls-5" d="m156.85 68.83-3-10.32-9.53 2.72 2.95 10.33-6 1.72-8.29-29 5.76-10.37 5.51-1.58 10.34 5.75 8.29 29zm-7.57-26.52-5.93-3.29-.31.09-3.29 5.92 2.93 10.27 9.53-2.72z" id="path412" style="fill:#4aff4a"/><path class="cls-5" d="m185.45 65.56.93-32.36-8.09-.23.17-6.17 22.46.64-.18 6.17-8.09-.23-.92 32.36z" id="path414" style="fill:#4aff4a"/><path class="cls-5" d="m221.06 71.03 10.52-30.62-7.66-2.63 2-5.83 21.25 7.3-2 5.83-7.66-2.63L227 73.07z" id="path416" style="fill:#4aff4a"/><path class="cls-5" d="m249.29 83.97 22.72-31.14 5.07 3.7L258 82.69l9.52 6.94-3.63 5z" id="path418" style="fill:#4aff4a"/><path class="cls-5" d="m275.68 106.55 31-22.95 12.04 16.31-5 3.68-8.33-11.24-8.06 6 5.05 6.81-5 3.67-5-6.81-8.06 6 8.33 11.24-5 3.67z" id="path420" style="fill:#4aff4a"/></svg>