<svg xmlns="http://www.w3.org/2000/svg" id="Layer_1" width="445.9" height="542.342" data-name="Layer 1" version="1.1"><defs id="defs1629"><linearGradient id="linear-gradient" x1="405.36" x2="405.36" y1="474.85" y2="418.15" gradientUnits="userSpaceOnUse"><stop id="stop1622" offset="0" stop-color="#11054f"/><stop id="stop1624" offset=".26" stop-color="#11054f"/><stop id="stop1626" offset="1" stop-color="#11054f" stop-opacity="0"/></linearGradient><style id="style1620">.cls-10,.cls-11,.cls-19,.cls-6,.cls-8,.cls-9{stroke:#11054f;stroke-linecap:round;stroke-linejoin:round}.cls-21{fill:#11054f}.cls-11,.cls-6,.cls-9{stroke-width:4.09px}.cls-21,.cls-24{stroke-width:0}.cls-24,.cls-6{fill:#d4d4f6}.cls-27{stroke:#7575d6;stroke-miterlimit:10;stroke-width:2.53px}.cls-11,.cls-27{fill:none}.cls-8{fill:#c8006b}.cls-10,.cls-8{stroke-width:4.01px}.cls-19,.cls-9{fill:#ffa3fd}.cls-10{fill:#f163ff}.cls-19{stroke-width:11.56px}</style></defs><g id="g1816" transform="translate(-76.71 -29.088)"><path id="path1633" d="M517.72 456.83a48.228 48.228 0 0 0-3.41-5.86c.18-.49.35-.99.51-1.49.74-2.32 1.31-4.73 1.68-7.15.36-2.38.55-4.73.55-7.01 0-2.99-.23-5.94-.67-8.76a49.37 49.37 0 0 0-2.04-8.34c-1.17-3.42-3.3-6.41-6.17-8.64-2.44-1.9-5.33-3.74-8.59-5.46-3.28-1.73-7.03-3.26-11.15-4.55-2.33-.73-4.82-1.38-7.47-1.94 10.39-24.34 15.83-50.74 15.83-77.34 0-56.14-23.8-109.19-65.56-146.65.02-.55.03-1.1.03-1.65v-20.4c0-4.12-.76-8.24-2.22-12.09.07-2.17.11-4.34.11-6.49 0-38.16-11.32-77.11-36.41-83.7C361 13.43 298.8 33.53 257.1 47.02l-.12.04c-4.66 1.51-9.07 2.93-12.98 4.12-22.6 6.87-33.06 3.15-34.59 2.5-6.27-4.07-14.2-4.56-20.98-1.23-7.23 3.56-11.89 11.08-11.87 19.14 0 2.64.41 13.7 6.33 24.45-1.61 1.97-3.21 3.98-4.79 6.01-2.29 2.94-4.56 6.31-6.97 9.88-5 7.42-7.63 10.83-9 12.4a21.313 21.313 0 0 0-12.38 12.16c-2.95 7.5-1.45 15.9 3.92 21.94 1.48 1.66 7.94 8.33 18.75 11.49-19.97 16.95-36.6 37.91-48.45 61.16-14.18 27.82-21.37 57.84-21.37 89.21 0 26.2 5.2 51.95 15.2 75.86h-.35c-7.51 0-14.29 1.14-20.15 3.39-5.86 2.25-10.52 4.94-14.25 8.21a18.634 18.634 0 0 0-6.34 14v76.64c0 6.07 1.54 11.6 4.59 16.46 2.68 4.28 6.26 7.82 10.64 10.54 3.68 2.29 7.86 3.98 12.42 5.03 3.93.91 8.04 1.37 12.2 1.37s7.93-.34 11.54-1c7.87 23.76 30.16 40.64 56.49 40.64h234.42c26 0 48.38-16.51 56.4-40.42 2.93-.56 5.72-1.26 8.37-2.12 7.84-2.53 14.66-6.13 20.27-10.69 5.96-4.84 10.58-10.63 13.75-17.2 3.19-6.63 4.81-13.74 4.81-21.14 0-8.69-1.65-16.44-4.89-23.01z" class="cls-24" style="fill:#d4d4f6;stroke-width:0"/><circle id="circle1635" cx="299.69" cy="320.29" r="178.46" style="fill:#ffa3fd;stroke-width:0"/><path id="path1637" d="m342.62 322.69-66.02 7.15c-140.86 19.2-123.11-111.66-123.07-111.96-20.35 28.99-32.3 64.3-32.3 102.41 0 98.56 79.9 178.46 178.46 178.46s178.46-79.9 178.46-178.46c-32.79-76.32-135.53 2.4-135.53 2.4" class="cls-10" style="fill:#f163ff;stroke:#11054f;stroke-width:4.01000023px;stroke-linecap:round;stroke-linejoin:round"/><circle id="circle1639" cx="299.69" cy="320.29" r="178.46" style="fill:none;stroke:#11054f;stroke-width:11.56000042px;stroke-linecap:round;stroke-linejoin:round"/><rect id="rect1641" width="317.59" height="83.17" x="143.01" y="470.31" rx="32.36" ry="32.36" style="fill:#11054f;stroke:#11054f;stroke-width:10.18999958px;stroke-linecap:round;stroke-linejoin:round"/><path id="path1643" d="M438.3 333.11a8.57 8.57 0 0 0-.97-3.84l-10.44-19.86a26.9 26.9 0 0 0-2.02-3.25c-9.5-17.18-24.23-21.49-30.91-22.57-3.29-2.49-6.96-3.69-10.76-3.53-.63.04-1.27.11-1.9.23l-13.92-2.11a8.423 8.423 0 0 0-2.96-1.41c3.68-2.64 7.53-5.89 11.14-9.81.06.07.13.13.19.19l.38.37c.34.32.7.65 1.08.98l.25.22c.45.38.94.77 1.47 1.15l.47.34c.42.3.85.59 1.41.95.13.09.27.17.39.25.6.37 1.24.74 1.94 1.11l.44.22c.55.28 1.13.55 1.82.86l.58.25c.8.33 1.55.61 2.36.89.04.01.08.03.12.04.76.25 1.6.49 2.56.73a46.052 46.052 0 0 0 3.13.66l.13.02c.17.03.33.06.49.08.96.15 2 .27 3.07.36.2.02.4.03.6.04h.2c.86.07 1.74.1 2.59.11.2.01.4.02.62.02l1.13-.02c.8-.02 1.63-.05 2.44-.11l.45-.03c1.8-.14 3.65-.36 5.48-.66l.51-.08c.91-.16 1.85-.34 2.82-.55l.54-.12c.97-.21 1.96-.45 3.03-.73.01 0 .14-.04.15-.04l.15-.04c.98-.26 1.98-.55 3.12-.9l.25-.08c1.05-.32 2.12-.68 3.21-1.06l.61-.21c1.08-.38 2.18-.79 3.3-1.23l.58-.23c1.17-.47 2.36-.96 3.59-1.5.79-.35 1.52-.81 2.17-1.38a8.476 8.476 0 0 0 2.86-6.85c-.19-3.12-2.13-5.89-4.98-7.17-.19-.09-.39-.18-.6-.25-.1-.04-.21-.08-.31-.11-.2-.07-1.24-.44-2.79-1.23a.3.3 0 0 0-.08-.04c-.17-.09-.35-.18-.58-.31-.01 0-.1-.06-.12-.07-.27-.15-.55-.31-.83-.48-.19-.11-.38-.23-.62-.38l-.24-.15c-.62-.39-1.33-.87-2.1-1.43-12.08-8.22-17.09-29.14-17.09-29.14-1.24-6.61-1.53-13.94-.86-21.85l.09-1.09c7.2-6.48 11.28-15.56 11.28-25.31v-20.4c0-3.38-.8-6.68-2.33-9.67.15-2.97.22-5.96.22-8.91 0-35.28-10.46-70.99-30.47-71.8-24.99-34.22-84.77-14.89-124.74-1.97l-.16.05c-4.73 1.53-9.2 2.97-13.19 4.19-31.05 9.44-44.23 1.69-44.95 1.24a8.475 8.475 0 0 0-8.68-.74c-2.87 1.41-4.71 4.39-4.7 7.58 0 1.83.36 15.73 9.81 25.04-2.98 3.42-6.77 7.94-10.98 13.34-2.01 2.59-4.17 5.78-6.45 9.17-3.09 4.59-10.27 15.23-13.43 16.82a8.38 8.38 0 0 0-6.65 5.26 8.401 8.401 0 0 0 1.55 8.69c.89 1 8.29 8.84 20.94 8.88 3.56 9.49 9.75 29.56 9.86 54.74v.2c0 .99 0 1.9-.01 2.76-.01.85-.03 1.7-.05 2.55-.2 6.39-2.54 14.01-5.02 22.07-1.63 5.29-3.31 10.76-4.46 16.21-.41 1.96-.12 3.97.8 5.7-5.13 2.44-8.7 8.51-10.03 17.29-.18 1.2-.34 2.52-.49 3.93-2.14-5.9-4.51-11.05-7.75-14.38-4.89-5.03-11.58-6.51-17.04-3.78-5.29 2.65-7.92 8.47-6.86 15.21.77 4.89 3.95 13.23 8.04 23.64.23.59.47 1.21.72 1.83-2.28 1.67-4.62 4.31-6.23 8.51-.76 1.38-1.91 3.83-2.41 6.8-2.85 2.62-6.22 6.72-7.37 12.07-1.03 4.81-.05 9.66 2.82 14.01 5.47 8.29 13.46 15.35 17.15 18.39 3.71 8.04 19.77 41.24 41.59 62.94a8.422 8.422 0 0 0 5.97 2.47h227.45c2.25 0 4.45-.92 6.02-2.51 1.58-1.6 23.03-3.81 23.01-6.05l-21.6-90.24zm-232.47 22.3c-.36-.4-.69-.77-.98-1.11.53-.81 1.08-1.69 1.63-2.62zm5.28-30.46c-1.92-4.19-5.39-7.71-10.08-10.15-.41-2.12-.71-5.2-.11-8.55.37-2.05.96-4.44 1.59-6.98 2.15-8.68 4.6-18.52 1.22-26.8-1.01-2.46-2.17-4.37-3.41-5.85.37.43 2.66-.51 3.1-.65 1.74-.55 3.49-1.05 5.24-1.54 1.96-.56 8.09-.74 9.96-.42.33.06-4.58 26.49.22 36.26-3.04 4.22-5.16 9.2-6 14.68l-1.73 9.99zm74.96-48.43c-.21-.01-.44 0-.66 0-.33.01-.66.05-1.02.1-.09.02-.18.03-.28.05-.27.05-.57.11-.81.19l-8.53 2.53-23.2 5.67c-.9.22-1.74.57-2.5 1.05-7.14-.52-14.01 1.23-19.84 4.67 3.43-8.19 7.21-17.21 7.21-17.21.74 0 1.48 0 2.21-.02.13.62.33 1.23.61 1.82 1.38 2.95 4.38 4.86 7.69 4.86 1.53-.01 15.35-.2 30.55-3.93 1.9-.47 3.79-.99 5.63-1.55.98.17 1.97.33 2.95.46l.21 1.31h-.24z" class="cls-21" style="fill:#11054f;stroke-width:0"/><path id="path1645" d="M378.63 284.98s6.35-5.58 9.26-15.84l-15.07-6.4-14.59 12.62v7.69" class="cls-21" style="fill:#11054f;stroke-width:0"/><g id="g1749"><path id="polygon1647" d="m305.28 247.62-11.87 19.73 3.78 23.46-10.62 10.51 4.62 18.6h36.11l21.45-17.51 5.84-13.04-8.27-6.33h0l-2.03-6.83 14.84-9.32 3.22-48.54z" class="cls-6" style="fill:#d4d4f6;stroke:#11054f;stroke-width:4.09000015px;stroke-linecap:round;stroke-linejoin:round"/><path id="path1649" d="M162.75 361.18s16.6 38.32 40.68 62.27l30.5 28.27 15.74-28.27 17.58-105.88c1.65-10.88-5.91-21.14-16.79-22.79-13.97-2.12-27.14 7.58-29.26 21.56l-9.76 56.27c-3.02-2.76-5.77-5.17-7.86-7.28-9.47-9.54-8.94-11.27-8.94-11.27s9.86-12.43 9.73-21.28c-.12-8.84-10.37-11.77-10.37-11.77s-3.02-7.28-1.41-16.25c1.61-8.97 6.45-21.37 3.3-29.08-3.81-9.33-10.41-6.07-12.22 5.87-1.08 7.1-1.42 20.53-3.98 27.1-2.55 6.57-4.7 2.5-7.76-6.25-3.06-8.75-6.5-22.08-10.95-26.66-4.45-4.58-10.58-2.86-9.46 4.22 1.11 7.07 10.76 28.97 10.89 30.97.13 2-6.13-.5-9.03 7.94 0 0-2.43 3.74-1.79 7.37 0 0-12.1 7.69-5.8 17.23s16.97 17.72 16.97 17.72z" class="cls-6" style="fill:#d4d4f6;stroke:#11054f;stroke-width:4.09000015px;stroke-linecap:round;stroke-linejoin:round"/><path id="path1651" d="M323.65 248.26s-12.87 3.73-22.23 6.59l-4.71 9.5-2.07 11.01 2.07-.22s33.22-4.74 34.81-22.59l-1.4-9.85-6.48 5.56z" style="fill:#11054f;stroke:#11054f;stroke-width:3.69000006px;stroke-linecap:round;stroke-linejoin:round"/><path id="path1653" d="M212.11 146.13s2.23 45.92 6.69 61.08c4.46 15.16-5.8 17.39 8.47 27.19 14.27 9.81 37.89 32.99 68.21 32.99 30.32 0 53.5-32.1 66.87-49.04 13.37-16.94 3.12-98.97 3.12-98.97s-15.6-41.02-78.02-36.56c-62.41 4.46-76.74 41.81-75.34 63.31" class="cls-6" style="fill:#d4d4f6;stroke:#11054f;stroke-width:4.09000015px;stroke-linecap:round;stroke-linejoin:round"/><g id="g1667"><path id="path1655" d="m252.55 183.12 2.18-9.42-.72-8.26c-.17-1.91.27-5.87-1.44-7.15-.98-.74-2.24-1.09-3.36-1.56-1.93-.82-3.96-1.44-6.04-1.78-5.7-.95-11.43.36-16.18 3.65-.9.63-1.77 1.31-2.59 2.05 0 0-5.27 11.65 0 21.37 0 0-7.18-5.74-5.05-19.93 2.13-14.18 35.91-16.52 36.98 1.97 0 0 1.14 14.96-3.79 19.06" style="fill:#11054f;stroke:#11054f;stroke-width:3.33999991px;stroke-linecap:round;stroke-linejoin:round"/><g id="g1663"><ellipse id="ellipse1657" cx="243.16" cy="173.7" rx="10.48" ry="16.92" style="fill:#11054f;stroke:#11054f;stroke-width:4.3499999px;stroke-linecap:round;stroke-linejoin:round"/><path id="path1659" d="M233.25 179.2c1.42 6.65 5.31 11.43 9.91 11.43 4.2 0 7.82-4.01 9.49-9.77-1.28-3.53-3.45-5.83-5.98-3.31-3.4 3.4-2.67 3.64-6.56-2.43-2.24-3.5-4.96.26-6.87 4.08z" style="fill:#e6a4ff;stroke:#11054f;stroke-width:3.47000003px;stroke-linecap:round;stroke-linejoin:round"/><ellipse id="ellipse1661" cx="249.18" cy="168.35" class="cls-24" rx="2.39" ry="3.84" style="fill:#d4d4f6;stroke-width:0"/></g><path id="path1665" d="m222.32 164.34-7.5-9.01h6.32l-4.71-8.08 16.82 5.43s-10.82 6.75-10.93 11.67z" style="fill:#11054f;stroke:#11054f;stroke-width:2.8599999px;stroke-linecap:round;stroke-linejoin:round"/></g><path id="path1669" d="M278.25 197.68c-5.58 0-9.92-1.13-15.09-3.13 0 0 8.87-10.39 7.54-19.61" style="fill:none;stroke:#11054f;stroke-width:3.95000005px;stroke-linecap:round;stroke-linejoin:round"/><g id="g1683"><g id="g1677"><ellipse id="ellipse1671" cx="319.92" cy="167.25" rx="12.93" ry="18.63" style="fill:#11054f;stroke:#11054f;stroke-width:5.07000017px;stroke-linecap:round;stroke-linejoin:round"/><path id="path1673" d="M307.7 173.3c1.75 7.31 6.55 12.58 12.22 12.58 5.18 0 9.65-4.41 11.7-10.76-1.58-3.89-4.26-6.41-7.37-3.64-4.19 3.74-3.29 4.01-8.08-2.67-2.76-3.85-6.12.29-8.47 4.49" style="fill:#e6a4ff;stroke:#11054f;stroke-width:4.03999996px;stroke-linecap:round;stroke-linejoin:round"/><ellipse id="ellipse1675" cx="327.4" cy="162.55" class="cls-24" rx="2.9" ry="4.15" style="fill:#d4d4f6;stroke-width:0"/></g><path id="path1679" d="M303.77 150.92s19.31-7.73 32.98-4.36c0 0 5.54 10.92 6.24 19.29 0 0 1.51-13.28.81-22.35 0 0-30.67-4.61-40.03 7.41z" style="fill:#11054f;stroke:#11054f;stroke-width:3.8900001px;stroke-linecap:round;stroke-linejoin:round"/><path id="polyline1681" d="m332.85 141.92 14.24-5.87-3.3 7.45h7.32l-7.13 5.12" style="fill:#11054f;stroke:#11054f;stroke-width:3.32999992px;stroke-linecap:round;stroke-linejoin:round"/></g><path id="path1685" d="M217.72 131.01s27.15-4.89 39.99 11.01" class="cls-11" style="fill:none;stroke:#11054f;stroke-width:4.09000015px;stroke-linecap:round;stroke-linejoin:round"/><path id="path1687" d="M356.58 119.38c-21.7-5.2-55.77 11.02-55.77 11.02l-10.18 16.85" class="cls-11" style="fill:none;stroke:#11054f;stroke-width:4.09000015px;stroke-linecap:round;stroke-linejoin:round"/><path id="path1689" d="M398.64 197.68c.52-6.22 1.07-11.94 1.6-17.32 4.68-11.61 7.63-28.52 7.63-47.35 0-35.01-10.18-63.39-22.74-63.39-1.18 0-2.33.25-3.46.73-21.61-39.36-94.24-10.14-131.48 1.19-37.61 11.44-52.36 0-52.36 0s.05 18.34 14.28 23.41c0 0-7.36 7.51-17.22 20.18-6.97 8.95-17.46 28.4-25.33 29.15 0 0 7.37 8.28 20.04 5.45 0 0 14.09 29.48 12.82 69.55-.38 12.17-6.85 26.48-9.65 39.76 0 0 26.57.16 34.51-24.63 0 0-8.36-5.51-7.33-21.22 0 0-6.12-30.33-7.83-67.05 0 0 26.65-29.48 63.46-39.01v19.36s7.56-7.39 23.76-14.23c6.89-2.91 13.23-7.82 24.65-8.6h20.31s11.16 60.22 9.67 98.32c-1.49 38.11-9.67 76.21-9.67 76.21s20.57-7.25 31.58-25.6l3.15 5.24s11.26 20.93 50.82 3.66c0 0-35.65-10.65-31.2-63.82z" class="cls-10" style="fill:#f163ff;stroke:#11054f;stroke-width:4.01000023px;stroke-linecap:round;stroke-linejoin:round"/><path id="path1691" d="m377.15 224.91-23.06-30.37c0 2.55-.04 5.03-.14 7.43-1.49 38.11-10.05 76.82-10.05 76.82s1.72 6.47 4.93 5.46c10.14-3.18 21.88-18.65 27.03-31.67l3.15 5.24s2.16 4.01 7.91 7.08z" class="cls-10" style="fill:#f163ff;stroke:#11054f;stroke-width:4.01000023px;stroke-linecap:round;stroke-linejoin:round"/><path id="path1693" d="M429.83 261.49s-15.86-4.76-25.1-23.71c-13.74-6.7-21.78-12.88-21.78-12.88l-14.63 33.32c4.01-3.52 4.39-.39 7.55-5.64l3.15 5.24s11.26 20.93 50.82 3.66z" class="cls-10" style="fill:#f163ff;stroke:#11054f;stroke-width:4.01000023px;stroke-linecap:round;stroke-linejoin:round"/><path id="path1695" d="M377.15 251.31c3.2-5.34 5.6-11.62 6.44-18.94v-89.41s.29-16.71-4.67-35.59" style="fill:none;stroke:#11054f;stroke-width:4.01000023px;stroke-linecap:round;stroke-linejoin:round"/><path id="path1697" d="M383.95 138.73h15.98c5.52 0 10 4.48 10 10v28.95c0 11.04-8.96 20-20 20h-5.98c-.55 0-1-.45-1-1v-56.95c0-.55.45-1 1-1" class="cls-6" style="fill:#d4d4f6;stroke:#11054f;stroke-width:4.09000015px;stroke-linecap:round;stroke-linejoin:round"/><path id="path1699" d="M290.97 100.82s10.76-9.04 28.7-10.72l.26 24.29 24.36-10.74 21.19 15.73-18.07-49.76" class="cls-10" style="fill:#f163ff;stroke:#11054f;stroke-width:4.01000023px;stroke-linecap:round;stroke-linejoin:round"/><path id="path1701" d="m212.11 146.13-9.45 9.67s2.57-21.39 12.17-39.27" class="cls-10" style="fill:#f163ff;stroke:#11054f;stroke-width:4.01000023px;stroke-linecap:round;stroke-linejoin:round"/><path id="path1703" d="m383.6 201.88 1.28 39.93c-2.6 38.24-15.55 38.25-15.55 38.25s-9.93-25.97-3.12-43.73c4.12-10.73 1.76-41.2 1.07-52.4-.09-1.55.53-7.83-.55-9l16.22 17.61.64 9.33z" class="cls-10" style="fill:#f163ff;stroke:#11054f;stroke-width:4.01000023px;stroke-linecap:round;stroke-linejoin:round"/><path id="line1705" d="m204.73 90.11 14.24 9.56" class="cls-8" style="fill:#c8006b;stroke:#11054f;stroke-width:4.01000023px;stroke-linecap:round;stroke-linejoin:round"/><path id="path1707" d="M279.45 228.69s24.56 1.81 44.91-18.56l-8.58-1.32" class="cls-11" style="fill:none;stroke:#11054f;stroke-width:4.09000015px;stroke-linecap:round;stroke-linejoin:round"/><path id="path1709" d="M382.95 150.11s20.29-3.38 26.98 6.23" class="cls-6" style="fill:#d4d4f6;stroke:#11054f;stroke-width:4.09000015px;stroke-linecap:round;stroke-linejoin:round"/><path id="path1711" d="M382.95 192.55c.76.3 1.55.47 2.36.47 6.15 0 11.13-9.19 11.13-20.52s-4.98-20.52-11.13-20.52c-.81 0-1.6.17-2.36.47z" class="cls-6" style="fill:#d4d4f6;stroke:#11054f;stroke-width:4.09000015px;stroke-linecap:round;stroke-linejoin:round"/><path id="path1713" d="m250.92 388.85-1.12 86h150.27l-13.36-177.07-4.52-8.79-26.48-4.02-10.59 17.22c-12.01 20.77-37.26 17.92-50.3 15.48-13.03-2.44-12.94-25.45-12.94-25.45l-4.88-4.65-23.42 5.72s-27.77 60.52-15.22 78.04l12.55 17.52z" style="fill:#7575d6;stroke:#11054f;stroke-width:4.09000015px;stroke-linecap:round;stroke-linejoin:round"/><g id="g1719"><path id="path1715" d="M312.74 411.22c.18 3.32-2.29 6.08-5.61 6.26l-19.01 1.04c-5.33.29-8.6-2.25-8.64-8.51l-.04-9.89c-.03-7.87 1.93-14.43 7.55-20.49l3.71-4.04c3.81-4.14 6.03-7.7 5.76-12.62-.26-4.73-1.77-6.56-4.69-6.4-3.22.18-4.22 2.15-3.96 6.88l.04.81c.19 3.42-2.08 6.27-5.5 6.46-3.42.19-6.08-2.39-6.31-6.51l-.03-.6c-.62-11.27 4.47-17.8 15.34-18.4 10.26-.56 16.46 3.94 17.11 15.81.41 7.44-1.39 13.19-6.51 19.32l-6.05 7.39c-3.22 3.81-4.16 6.89-4.11 13.44l.09 5.24 14.58-.8c3.32-.18 6.08 2.29 6.26 5.61z" class="cls-9" style="fill:#ffa3fd;stroke:#11054f;stroke-width:4.09000015px;stroke-linecap:round;stroke-linejoin:round"/><path id="path1717" d="m357.93 387.15.54 9.86c.66 11.97-5.14 18.54-15.5 19.11-11.27.62-17.55-5.49-18.2-17.26l-.05-.91c-.24-4.33 2.25-6.88 5.67-7.07 3.72-.2 5.76 2.11 5.95 5.53l.04.7c.32 5.83 2.34 7.64 5.76 7.45 2.92-.16 4.32-2.15 4.03-7.38l-.36-6.54c-.32-5.94-2.92-9.12-8.05-8.84h-.1c-4.02.23-6.17-2.18-6.37-5.8-.2-3.62 1.57-6.34 5.49-6.56h.1c5.13-.29 7.48-3.44 7.18-8.87l-.05-.91c-.22-3.92-1.85-6.05-4.56-5.9-4.02.22-5.13 2.2-4.94 5.62l.03.6c.2 3.62-1.91 5.55-5.03 5.72-3.42.19-5.96-1.99-6.18-5.92l-.04-.7c-.51-9.35 4.58-15.79 15.34-16.38 10.36-.57 16.3 4.66 16.84 14.61l.03.6c.53 9.66-2.85 14.18-6.91 15.72 5.02 1.34 8.92 6.37 9.32 13.51z" class="cls-9" style="fill:#ffa3fd;stroke:#11054f;stroke-width:4.09000015px;stroke-linecap:round;stroke-linejoin:round"/></g><path id="path1721" d="M189.42 336.98s-8.56-2.2-12.7-10.04c0 0-1.48-4.77 4.4-4.21l11.46 1.11" class="cls-6" style="fill:#d4d4f6;stroke:#11054f;stroke-width:4.09000015px;stroke-linecap:round;stroke-linejoin:round"/><path id="path1723" d="M212.02 372.56c9.87 9.5 20.78 22.47 21.39 40.11" class="cls-6" style="fill:#d4d4f6;stroke:#11054f;stroke-width:4.09000015px;stroke-linecap:round;stroke-linejoin:round"/><path id="path1725" d="M156.18 345.66s14.2 7.38 15.72.38l-14.87-14.09s15.62 18.28 17.25 8.03c1.63-10.25-12.38-17.8-12.38-17.8" class="cls-6" style="fill:#d4d4f6;stroke:#11054f;stroke-width:4.09000015px;stroke-linecap:round;stroke-linejoin:round"/><path id="path1727" d="m277.01 287.57 8.71-2.59s1.78 23.43 11.48 26.34c9.7 2.91 45.68 6.65 51.47-26.34h13.66s-5.44 26.15-26.87 34.63c-21.43 8.48-56.18 16.27-58.45-32.05z" class="cls-9" style="fill:#ffa3fd;stroke:#11054f;stroke-width:4.09000015px;stroke-linecap:round;stroke-linejoin:round"/><ellipse id="ellipse1729" cx="385.73" cy="325.94" class="cls-9" rx="15.45" ry="37.48" style="fill:#ffa3fd;stroke:#11054f;stroke-width:4.09000015px;stroke-linecap:round;stroke-linejoin:round" transform="rotate(-3.14 385.945 326.045)"/><path id="path1731" d="M379.06 332.38s0 0 0 0a25.37 25.37 0 0 0 2.51 7.26l13.87 26.4 7.43 108.8h56.26L429.82 333.2l-10.44-19.86c-.52-.98-1.12-1.89-1.77-2.74h.02c-9.92-18.31-27.22-18.9-27.22-18.9-11.11 7.89-12.05 25.98-11.75 35.14-.07 1.84.05 3.69.38 5.53z" class="cls-6" style="fill:#d4d4f6;stroke:#11054f;stroke-width:4.09000015px;stroke-linecap:round;stroke-linejoin:round"/><path id="path1733" d="M202.49 213.67s4.99-14.93 13.16-27.79" class="cls-8" style="fill:#c8006b;stroke:#11054f;stroke-width:4.01000023px;stroke-linecap:round;stroke-linejoin:round"/><path id="path1735" d="M375.03 349.05s8.47 16.08 1.48 31.83" class="cls-11" style="fill:none;stroke:#11054f;stroke-width:4.09000015px;stroke-linecap:round;stroke-linejoin:round"/><path id="path1737" d="M293.1 394.57s27.78-7.22 48.61-2.02" class="cls-11" style="fill:none;stroke:#11054f;stroke-width:4.09000015px;stroke-linecap:round;stroke-linejoin:round"/><path id="polygon1739" d="m296.34 285.52-10.63-.54 4.23 13 7.25-7.17z" class="cls-6" style="fill:#d4d4f6;stroke:#11054f;stroke-width:4.09000015px;stroke-linecap:round;stroke-linejoin:round"/><path id="line1741" d="m297.19 290.81 2.5 9.06" class="cls-6" style="fill:#d4d4f6;stroke:#11054f;stroke-width:4.09000015px;stroke-linecap:round;stroke-linejoin:round"/><path id="path1743" d="M296.34 285.52c-3.79.21 24.15 17.24 49.98-2.48" class="cls-6" style="fill:#d4d4f6;stroke:#11054f;stroke-width:4.09000015px;stroke-linecap:round;stroke-linejoin:round"/><path id="path1745" d="M227.27 234.4c4.11 2.53 15.85 13.11 27.67 19.82 14.88 8.45 29.86 13.01 29.86 13.01l2.57 11.56-35.98 6.42c-18.02 12.85-20.6 20.24-20.6 20.24-10.32-9.31-8.08-26.66-8.08-26.66 2.16-23.12 1.32-37.1 1.32-37.1l3.23-7.3z" class="cls-10" style="fill:#f163ff;stroke:#11054f;stroke-width:4.01000023px;stroke-linecap:round;stroke-linejoin:round"/><path id="path1747" d="M237.14 244.04c-3.13 27.86 20.47 39.52 20.47 39.52l13.64 8.99s-9.84-23.9-5.86-32.96c0 0-17.45-5.31-24.72-12.97z" class="cls-10" style="fill:#f163ff;stroke:#11054f;stroke-width:4.01000023px;stroke-linecap:round;stroke-linejoin:round"/></g><path id="rect1751" d="M353.76 418.15h103.19v56.7H353.76z" style="fill:url(#linear-gradient);stroke-width:0"/><g id="g1763"><path id="path1753" d="M132.25 418.38c-1.95-1.21-4.22-2.11-6.79-2.71a35.69 35.69 0 0 0-8.01-.89c-5.24 0-9.73.72-13.47 2.15-3.73 1.44-6.62 3.04-8.64 4.82v76.64c0 2.52.58 4.71 1.74 6.57 1.16 1.85 2.72 3.39 4.67 4.6 1.95 1.21 4.22 2.11 6.79 2.71 2.57.59 5.24.89 8.01.89 5.24 0 9.73-.72 13.47-2.15 3.73-1.43 6.61-3.04 8.64-4.82v-76.64c0-2.52-.58-4.71-1.74-6.57-1.16-1.85-2.72-3.39-4.67-4.6" class="cls-19" style="fill:#ffa3fd;stroke:#11054f;stroke-width:11.56000042px;stroke-linecap:round;stroke-linejoin:round"/><path id="path1755" d="M219.09 425.98c-4.7-4.05-10.3-7.05-16.8-8.98-6.5-1.93-13.69-2.89-21.55-2.89-4.45 0-8.85.33-13.21 1-4.35.67-8.26 1.59-11.72 2.78-3.46 1.19-6.27 2.6-8.42 4.23-2.15 1.63-3.23 3.44-3.23 5.42v66.77c0 6.03 1.53 10.47 4.6 13.32 3.07 2.85 7.27 4.27 12.61 4.27h18.77c8.26 0 15.7-1.05 22.33-3.15 6.63-2.1 12.28-5.19 16.95-9.27 4.67-4.08 8.26-9.09 10.76-15.02 2.5-5.94 3.75-12.74 3.75-20.4 0-8.75-1.3-16.27-3.89-22.55-2.6-6.28-6.24-11.45-10.94-15.51zm-30.05 41.1c0 2.37-.05 4.41-.15 6.12-.1 1.71-.27 3.13-.52 4.27-.25 1.04-.58 1.73-1 2.08-.42.35-.9.52-1.45.52-.55 0-.96-.09-1.26-.26-.3-.17-.54-.33-.74-.48.05-.89.12-1.72.22-2.49.1-.77.19-1.63.26-2.6.07-.96.14-2.08.19-3.34.05-1.26.07-2.81.07-4.64v-4.82c0-1.83-.03-3.38-.07-4.64-.05-1.26-.11-2.37-.19-3.34-.07-.96-.16-1.83-.26-2.6s-.17-1.59-.22-2.48c.2-.15.44-.31.74-.48.3-.17.72-.26 1.26-.26s1.03.17 1.45.52c.42.35.75 1.04 1 2.08.25 1.14.42 2.56.52 4.27.1 1.71.15 3.75.15 6.12z" class="cls-19" style="fill:#ffa3fd;stroke:#11054f;stroke-width:11.56000042px;stroke-linecap:round;stroke-linejoin:round"/><path id="path1757" d="M320.96 427.69c-4.15-4.4-9.23-7.83-15.21-10.28-5.98-2.45-12.74-3.67-20.25-3.67-6.33 0-12.4.99-18.21 2.97-5.81 1.98-10.94 5.03-15.39 9.16-4.45 4.13-8.01 9.35-10.68 15.65-2.67 6.31-4.01 13.79-4.01 22.44 0 5.84.62 11.13 1.85 15.88 1.24 4.75 2.97 8.98 5.19 12.69 2.23 3.71 4.86 6.93 7.9 9.64 3.04 2.72 6.37 4.97 9.98 6.75 3.61 1.78 7.44 3.1 11.5 3.97 4.05.86 8.16 1.3 12.32 1.3 6.68 0 12.92-.96 18.73-2.89 5.81-1.93 10.88-4.93 15.21-9.01s7.74-9.29 10.24-15.62 3.75-13.9 3.75-22.7c0-7.42-1.11-14.22-3.34-20.4-2.23-6.18-5.42-11.47-9.57-15.88zm-32.06 39.39c0 2.37-.05 4.41-.15 6.12-.1 1.71-.27 3.13-.52 4.27-.25 1.04-.58 1.73-1 2.08-.42.35-.9.52-1.45.52-.55 0-.96-.09-1.26-.26-.3-.17-.55-.33-.74-.48.05-.89.12-1.72.22-2.49.1-.77.19-1.63.26-2.6.07-.96.14-2.08.19-3.34.05-1.26.07-2.81.07-4.64v-4.82c0-1.83-.03-3.38-.07-4.64-.05-1.26-.11-2.37-.19-3.34-.07-.96-.16-1.83-.26-2.6s-.17-1.59-.22-2.48c.2-.15.44-.31.74-.48.3-.17.72-.26 1.26-.26s1.03.17 1.45.52c.42.35.75 1.04 1 2.08.25 1.14.42 2.56.52 4.27.1 1.71.15 3.75.15 6.12z" class="cls-19" style="fill:#ffa3fd;stroke:#11054f;stroke-width:11.56000042px;stroke-linecap:round;stroke-linejoin:round"/><path id="path1759" d="M413.36 484.48c-.42-1.46-.93-2.89-1.52-4.3-.59-1.41-1.26-2.76-2-4.04h-17.58c-4.65 0-8.75.45-12.32 1.34-3.56.89-6.73 2.5-9.5 4.82-.4-.25-.73-.53-1-.85-.27-.32-.41-.75-.41-1.3 0-.74.41-1.47 1.22-2.19.82-.72 1.83-1.37 3.04-1.97 1.21-.59 2.52-1.09 3.93-1.48 1.41-.4 2.73-.64 3.97-.74v-40.58c0-3.12-.62-5.83-1.86-8.16-1.24-2.33-2.88-4.24-4.93-5.75-2.05-1.51-4.4-2.63-7.05-3.38-2.65-.74-5.35-1.11-8.12-1.11-4.01 0-7.91.61-11.72 1.82-3.81 1.21-7.02 2.93-9.65 5.16v72.56c0 6.03 1.53 10.47 4.6 13.32 3.07 2.85 7.27 4.27 12.61 4.27h53.94c.89-.99 1.68-2.2 2.37-3.64.69-1.43 1.29-2.99 1.78-4.67.49-1.68.88-3.45 1.15-5.3.27-1.85.41-3.67.41-5.45 0-1.24-.12-2.57-.37-4.01-.25-1.43-.58-2.88-1-4.34z" class="cls-19" style="fill:#ffa3fd;stroke:#11054f;stroke-width:11.56000042px;stroke-linecap:round;stroke-linejoin:round"/><path id="path1761" d="M501.01 465.08c-1.98-4.01-4.59-7.23-7.83-9.68-3.24-2.45-6.91-4.2-11.02-5.27a50.014 50.014 0 0 0-12.54-1.59c-1.09 0-2.23.05-3.41.15-1.19.1-2.28.27-3.26.52-.15-.35-.22-.77-.22-1.26 0-.94.61-1.63 1.82-2.08 1.21-.45 3.38-.67 6.49-.67 2.27 0 4.55.2 6.83.59 2.27.4 4.39.88 6.34 1.45 1.95.57 3.7 1.19 5.23 1.85 1.53.67 2.7 1.27 3.49 1.82.94-.89 1.75-1.95 2.45-3.19.69-1.24 1.26-2.55 1.71-3.93.44-1.38.78-2.81 1-4.27.22-1.46.33-2.86.33-4.19 0-2.03-.15-3.98-.45-5.86-.3-1.88-.72-3.61-1.26-5.19-1.58-1.23-3.52-2.46-5.82-3.67-2.3-1.21-4.98-2.3-8.05-3.27-3.07-.96-6.55-1.74-10.46-2.34-3.91-.59-8.26-.89-13.06-.89-5.34 0-10.66.64-15.95 1.93-5.29 1.29-10.05 3.3-14.28 6.05-4.23 2.75-7.65 6.3-10.28 10.65-2.62 4.35-3.93 9.57-3.93 15.65 0 2.18.26 4.3.78 6.38s1.26 4.01 2.23 5.79c.97 1.78 2.14 3.38 3.52 4.79 1.38 1.41 2.94 2.56 4.67 3.45 1.14-.45 2.56-.86 4.27-1.26 1.71-.4 3.75-.59 6.12-.59 4.2 0 7.78.58 10.72 1.74 2.94 1.16 5.32 2.56 7.12 4.19 1.81 1.63 3.12 3.31 3.93 5.04.82 1.73 1.22 3.17 1.22 4.3 0 1.44-.82 2.3-2.45 2.6-.89-2.72-2.03-5.01-3.41-6.86-1.39-1.85-2.97-3.35-4.75-4.49-1.78-1.14-3.76-1.95-5.94-2.45-2.18-.49-4.48-.74-6.9-.74-2.97 0-5.69.5-8.16 1.48-2.47.99-4.6 2.34-6.38 4.04-1.78 1.7-3.18 3.72-4.19 6.05-1.01 2.33-1.52 4.82-1.52 7.49 0 3.41.52 6.45 1.56 9.13 1.04 2.67 2.37 5.19 4.01 7.57a65.08 65.08 0 0 0 8.24 3.67 61.25 61.25 0 0 0 8.68 2.45c3.02.62 6.18 1.06 9.5 1.34 3.31.27 6.87.41 10.68.41 7.42 0 13.96-.91 19.62-2.74s10.41-4.3 14.24-7.42 6.74-6.73 8.72-10.83c1.98-4.1 2.97-8.46 2.97-13.06 0-5.83-.99-10.76-2.97-14.76z" class="cls-19" style="fill:#ffa3fd;stroke:#11054f;stroke-width:11.56000042px;stroke-linecap:round;stroke-linejoin:round"/></g><g id="g1775"><path id="path1765" d="M211.3 535.92c2.2 1.44 4.86 2.66 8.04 2.66 2.2 0 4.31-.49 4.55-2.08.24-1.93-2.75-2.84-3.94-3.09-3.18-.82-5.2-1.47-5.78-1.8-1.9-1.07-2.84-2.57-2.84-4.52 0-4.16 4.43-6.21 8.25-6.21 2.69 0 5.26.7 7.43 2.2v4.28c-1.68-1.44-4.25-2.84-6.63-2.6-1.99.21-3.27.76-3.27 2.32 0 1.56 3.24 2.51 4.34 2.81 4.16 1.22 7.18 2.11 7.03 6.79-.15 4.62-5.17 6.48-8.96 6.48-2.72 0-5.87-.86-8.22-2.32z" class="cls-24" style="fill:#d4d4f6;stroke-width:0"/><path id="path1767" d="M264.55 524.43h-10.12v5.44h8.34v3.03h-8.34v6.91h10.12v3.33h-15.16v-22.22h15.16v3.52z" class="cls-24" style="fill:#d4d4f6;stroke-width:0"/><path id="path1769" d="M292.31 543.17c-2.72 0-6.69-1.53-6.69-6.08v-9.57c0-4 3.33-6.63 7.24-6.63h3.12c4.03 0 6.97 2.63 6.97 6.6v9.69c0 3.61-3.39 5.99-6.11 5.99h-4.52zm2.87-3.67c1.96 0 3.24-1.07 3.24-3.03v-8.65c0-1.56-1.04-2.87-3.21-2.87h-1.71c-2.2 0-3.36 1.38-3.36 2.9v8.62c0 1.68.83 3.03 3.12 3.03h1.93z" class="cls-24" style="fill:#d4d4f6;stroke-width:0"/><path id="path1771" d="M329.36 521.04v14.64c0 1.1.49 2.69 2.57 2.69h3.06c2.05 0 2.72-1.53 2.72-2.87v-14.46h4.92v15.53c0 4.65-3.21 6.6-6.94 6.6h-4.07c-4.43 0-7.46-3-7.21-7.21v-14.92z" class="cls-24" style="fill:#d4d4f6;stroke-width:0"/><path id="path1773" d="M369.25 539.93h10.15v3.27h-15.1v-22.28h4.95z" class="cls-24" style="fill:#d4d4f6;stroke-width:0"/></g><g id="g1789"><path id="line1777" d="M405.53 526.24h9.92" class="cls-27" style="fill:none;stroke:#7575d6;stroke-width:2.52999997px;stroke-miterlimit:10"/><path id="line1779" d="M405.53 532.14h9.92" class="cls-27" style="fill:none;stroke:#7575d6;stroke-width:2.52999997px;stroke-miterlimit:10"/><path id="line1781" d="M405.53 538.04h9.92" class="cls-27" style="fill:none;stroke:#7575d6;stroke-width:2.52999997px;stroke-miterlimit:10"/><path id="line1783" d="M418.39 526.24h9.93" class="cls-27" style="fill:none;stroke:#7575d6;stroke-width:2.52999997px;stroke-miterlimit:10"/><path id="line1785" d="M418.39 532.14h9.93" class="cls-27" style="fill:none;stroke:#7575d6;stroke-width:2.52999997px;stroke-miterlimit:10"/><path id="line1787" d="M418.39 538.04h9.93" class="cls-27" style="fill:none;stroke:#7575d6;stroke-width:2.52999997px;stroke-miterlimit:10"/></g><g id="g1803"><path id="line1791" d="M167.81 526.24h9.93" class="cls-27" style="fill:none;stroke:#7575d6;stroke-width:2.52999997px;stroke-miterlimit:10"/><path id="line1793" d="M167.81 532.14h9.93" class="cls-27" style="fill:none;stroke:#7575d6;stroke-width:2.52999997px;stroke-miterlimit:10"/><path id="line1795" d="M167.81 538.04h9.93" class="cls-27" style="fill:none;stroke:#7575d6;stroke-width:2.52999997px;stroke-miterlimit:10"/><path id="line1797" d="M175.65 526.24h14.96" class="cls-27" style="fill:none;stroke:#7575d6;stroke-width:2.52999997px;stroke-miterlimit:10"/><path id="line1799" d="M180.68 532.14h9.93" class="cls-27" style="fill:none;stroke:#7575d6;stroke-width:2.52999997px;stroke-miterlimit:10"/><path id="line1801" d="M175.09 538.04h15.52" class="cls-27" style="fill:none;stroke:#7575d6;stroke-width:2.52999997px;stroke-miterlimit:10"/></g><g id="g1814"><g id="g1809"><path id="path1805" d="M415.28 308.54h17.91c11.61 0 21.04 9.43 21.04 21.04v17.91c0 22.08-17.92 40-40 40h-17.91c-11.61 0-21.04-9.43-21.04-21.04v-17.91c0-22.08 17.92-40 40-40" style="fill:#f163ff;stroke-width:0"/><path id="path1807" d="M413.42 391.16H391.6c-11.03 0-19.99-8.97-19.99-19.99v-21.82c0-24.53 19.95-44.48 44.48-44.48h21.82c11.03 0 19.99 8.97 19.99 19.99v21.82c0 24.53-19.95 44.48-44.48 44.48m2.66-78.95c-20.48 0-37.13 16.66-37.13 37.13v21.82c0 6.98 5.67 12.65 12.65 12.65h21.82c20.48 0 37.13-16.66 37.13-37.13v-21.82c0-6.98-5.67-12.65-12.65-12.65z" class="cls-21" style="fill:#11054f;stroke-width:0"/></g><g id="JIPMdN"><path id="path1811" d="M438.56 339.7v20.44c0 6.52-4.16 10.94-10.71 11.4-2.86.2-5.56-.22-8.02-1.81-4.75-3.07-5.17-9.07-.81-12.72 3.58-2.99 7.69-4.05 12.24-2.87 1.31.34 1.6.03 1.59-1.25-.05-5.65-.04-11.3 0-16.94 0-1.21-.26-1.83-1.66-1.73-7.63.58-15.13 1.79-22.35 4.47-1.28.47-1.67 1.13-1.66 2.42.04 8.38.02 16.77.02 25.15 0 6.11-2.77 9.58-8.74 11.03-3.25.79-6.34.44-9.29-1.17-5.32-2.9-6-9.08-1.4-13.04 3.37-2.89 7.3-3.72 11.6-2.97 2.12.37 2.12.42 2.12-1.75 0-11.18.04-22.36-.04-33.54-.01-1.82.57-2.68 2.32-3.26 10.57-3.48 21.36-5.65 32.49-6.1 2.31-.09 2.32-.11 2.32 2.23v22.01z" class="cls-21" style="fill:#11054f;stroke-width:0"/></g></g></g></svg>