<svg xmlns="http://www.w3.org/2000/svg" id="Layer_1" data-name="Layer 1" version="1.1" width="548.376" height="368.4"><defs id="defs4"><style id="style2">.cls-3{fill:#fff}.cls-4{fill:#d8d8d8}.cls-5{fill:#f16567}.cls-12,.cls-6{fill:#f3b857}.cls-7{fill:#45dfef}.cls-14,.cls-8{fill:#6c72ef}.cls-10,.cls-11,.cls-16,.cls-9{fill:none}.cls-13,.cls-9{stroke:#000}.cls-11,.cls-12,.cls-13,.cls-14,.cls-16,.cls-9{stroke-linecap:round;stroke-linejoin:round}.cls-9{stroke-width:6px}.cls-10,.cls-11,.cls-14{stroke:#6c72ef}.cls-10{stroke-miterlimit:10;stroke-width:8.42px}.cls-11{stroke-width:4.64px}.cls-12{stroke:#f3b857}.cls-12,.cls-14{stroke-width:3.04px}.cls-13{stroke-width:5.06px}.cls-16{stroke:#45dfef;stroke-width:3.5px}</style></defs><path class="cls-4" d="M448.426 268.3a94 94 0 1 0-118.63 96.77 93.16 93.16 0 0 0 24.75 3.33q3.06 0 6.15-.2a94.09 94.09 0 0 0 87.73-99.9z" id="path184" style="fill:#d8d8d8"/><path d="M439.896 268.82a85.47 85.47 0 1 0-107.84 88 85.52 85.52 0 0 0 107.84-88z" id="path186"/><circle class="cls-5" cx="354.606" cy="276.82" r="62.94" id="circle188" style="fill:#f16567"/><circle class="cls-6" cx="362.696" cy="278.01" r="57.16" id="circle190" style="fill:#f3b857"/><circle class="cls-7" cx="366.716" cy="279.02" r="52.91" id="circle192" style="fill:#45dfef"/><ellipse class="cls-8" cx="129.768" cy="446.392" rx="46.66" ry="48.38" transform="rotate(-36.67)" id="ellipse194" style="fill:#6c72ef"/><path d="M350.376 211.02a65.94 65.94 0 1 1-61.53 70.07 66 66 0 0 1 61.53-70.07zm.39 6a59.94 59.94 0 1 0 63.61 55.92 60 60 0 0 0-63.65-55.93z" id="path196"/><path class="cls-9" d="M336.736 337.19s73.64-3.11 73.45-87.44" id="path198" style="fill:none;stroke:#000;stroke-width:6px;stroke-linecap:round;stroke-linejoin:round"/><path class="cls-9" d="M391.276 327.98c-4.45-8.56-11.53-16.44-22.66-17.33 0 0-56.79 14-73.81-14.94" id="path200" style="fill:none;stroke:#000;stroke-width:6px;stroke-linecap:round;stroke-linejoin:round"/><path class="cls-9" d="M413.036 293.57c-3.84-.62-7.91-3.37-11.12-10.64-8.57-19.36 2.18-50.61-55.31-68.66" id="path202" style="fill:none;stroke:#000;stroke-width:6px;stroke-linecap:round;stroke-linejoin:round"/><path class="cls-9" d="M406.166 312.28s-40-23.86-90.81-84.4" id="path204" style="fill:none;stroke:#000;stroke-width:6px;stroke-linecap:round;stroke-linejoin:round"/><path class="cls-4" d="M538.376 21.44c-5.29-2.5-13.66-3.31-23.43 7-10.4 11-39.1 44.45-40.31 45.86a13.8 13.8 0 0 0-1.13 1.51c-14.6 8.37-20.83 22-22.37 25.88a61.34 61.34 0 0 0-16.34 21.69q-.12.27-.21.54a63 63 0 0 0-15.85 17.46l-21.52 25.56a14.29 14.29 0 0 0-4.36 12.23 14.55 14.55 0 0 0 1 3.75 14.38 14.38 0 0 0 7.19 7.48l1.48.68 63.94 5.45a14.29 14.29 0 0 0 13.14-2.48 69.35 69.35 0 0 0 12.77-13.8c6.32-9.15 9.27-18.68 8.7-27.89a38.28 38.28 0 0 0 13.65-24.88c11.51-10.23 13.56-22 13.54-29.14a33.67 33.67 0 0 0 5.54-21.7l13.16-29.13a14.32 14.32 0 0 0 1.17-4.13c1.24-10.25-2.36-18.46-9.76-21.94z" id="path206" style="fill:#d8d8d8"/><rect class="cls-4" x="216.806" y="0" width="287.11" height="238.52" rx="74.26" id="rect208" style="fill:#d8d8d8"/><rect class="cls-7" x="32.1" y="-473.956" width="172.47" height="223.49" rx="38.99" transform="rotate(90)" id="rect210" style="fill:#45dfef"/><path class="cls-8" id="polygon212" style="fill:#6c72ef" transform="translate(-216.624 -177.18)" d="m674.26 231.22 20.05 5.57v57.57h-20.05z"/><path class="cls-8" id="polygon214" style="fill:#6c72ef" transform="translate(-216.624 -177.18)" d="m464.75 272.56 175.94 8.13v3.72l-175.01 6.32z"/><path class="cls-10" id="polygon216" style="fill:none;stroke:#6c72ef;stroke-width:8.42000008px;stroke-miterlimit:10" transform="translate(-216.624 -177.18)" d="m482.4 240.08 29.52-9.29v79.92l-29.52 9.28z"/><path class="cls-11" d="M420.236 104.72c-29.65-8.43-43.26-40.59-43.26-40.59-45.89 88.24-81.68-9.59-81.68-9.59s-6.55 37.92-47.17 41.76" id="path218" style="fill:none;stroke:#6c72ef;stroke-width:4.63999987px;stroke-linecap:round;stroke-linejoin:round"/><path class="cls-11" d="M347.456 71.71c-45.9 88.23-81.68-9.59-81.68-9.59s-5.23 20.08-24.53 23.23" id="path220" style="fill:none;stroke:#6c72ef;stroke-width:4.63999987px;stroke-linecap:round;stroke-linejoin:round"/><path class="cls-10" id="polygon222" style="fill:none;stroke:#6c72ef;stroke-width:8.42000008px;stroke-miterlimit:10" transform="translate(-216.624 -177.18)" d="m564.08 249.67 29.52-9.29v79.92l-29.52 9.28z"/><path d="M429.646 9.29h-138.58a65.17 65.17 0 0 0-65 65v90a65.17 65.17 0 0 0 65 65h138.58a65.18 65.18 0 0 0 65-65v-90a65.18 65.18 0 0 0-65-65zm44.31 156.29a39 39 0 0 1-39 39h-145.5a39 39 0 0 1-39-39V71.09a39 39 0 0 1 39-39h145.52a39 39 0 0 1 39 39z" id="path224"/><path class="cls-8" d="m473.956 110.82-118.14 22.62-105.35-16.39v1.84l36.66 92.65 174.77-7.6a38.83 38.83 0 0 0 12.06-28.12z" id="path226" style="fill:#6c72ef"/><path d="M429.646 9.29h-138.58a65.17 65.17 0 0 0-65 65v90a65.17 65.17 0 0 0 65 65h138.58a65.18 65.18 0 0 0 65-65v-90a65.18 65.18 0 0 0-65-65zm44.31 156.29a39 39 0 0 1-39 39h-145.5a39 39 0 0 1-39-39V71.09a39 39 0 0 1 39-39h145.52a39 39 0 0 1 39 39z" id="path228"/><path d="m250.466 185.28 66-10c-10.22-60.16-66.8-68.57-66.8-68.57l-17.46 16.51z" id="path230"/><path class="cls-12" id="polygon232" style="fill:#f3b857;stroke:#f3b857;stroke-width:3.03999996px;stroke-linecap:round;stroke-linejoin:round" transform="translate(-216.624 -177.18)" d="m476.06 318.36-2.22-7.01-.96 7.64 1.73 6.42z"/><path class="cls-12" id="polygon234" style="fill:#f3b857;stroke:#f3b857;stroke-width:3.03999996px;stroke-linecap:round;stroke-linejoin:round" transform="translate(-216.624 -177.18)" d="m474.45 316.8-7.01 2.22 7.65.97 6.41-1.73z"/><circle class="cls-5" cx="246.386" cy="123.23" r="2.67" id="circle236" style="fill:#f16567"/><circle class="cls-7" cx="280.536" cy="135.99" r="4.61" id="circle238" style="fill:#45dfef"/><path class="cls-8" id="polygon240" style="fill:#6c72ef" transform="translate(-216.624 -177.18)" d="m624.9 262.13 18.59 1.85v43.85H624.9z"/><path class="cls-8" id="polygon242" style="fill:#6c72ef" transform="translate(-216.624 -177.18)" d="m649.23 252.54 18.59 1.86v43.85h-18.59z"/><path class="cls-8" id="rect244" style="fill:#6c72ef" d="M401.066 113.55h66.57v27.04h-66.57z"/><path class="cls-8" id="rect246" style="fill:#6c72ef" d="M445.446 99.81h22.19v40.78h-22.19z"/><path class="cls-3" d="m430.826 149.27-11.61 9.55 51.47 24s22.4-17.76 14.24-36.9" id="path248" style="fill:#fff"/><path class="cls-6" d="M469.986 146.82c-5 8.69-24.15 21.59-34.49 29.06l35.19 6.94s14.62-11.59 15.93-26.14l-.86-2.58-2.4-4.65 2.41-1.17c-.24-.78-.51-1.57-.84-2.36z" id="path250" style="fill:#f3b857"/><path d="M402.316 179.41a5.25 5.25 0 0 1 1.51-6.06l23.68-28.12a5.232 5.232 0 0 1 6.65 8.08l-18.37 21.18 54 2.11c4.89-4.72 15.36-16.68 10.39-28.54l-.06-.14a5.234 5.234 0 0 1 9.64-4.08l.07.19c9.42 22.48-14.83 42.05-15.87 42.87a5.21 5.21 0 0 1-5.45.64l-63.55-5.41a5.27 5.27 0 0 1-2.64-2.72z" id="path252"/><path class="cls-4" d="M464.376 155.28s-10.92 17.86-25.28 20.12c-14.36 2.26-24.79 0-24.79 0l17.55-21 12.79-3" id="path254" style="fill:#d8d8d8"/><path class="cls-4" d="M448.106 128.9s9.49-23 34.4-25.6c24.91-2.6 30.87-9.29 30.87-9.29s4.4 14.94-12.63 26.09-31.49 2.17-52.64 8.8z" id="path256" style="fill:#d8d8d8"/><path class="cls-6" d="m502.886 118.54 5.37-5.05a23.4 23.4 0 0 0 5.56-13.67l-30.76 8.7a78.87 78.87 0 0 1-3.85 17.65c7.19-.17 14.11-1.21 21.52-6.06.78-.52 1.47-1.05 2.16-1.57z" id="path258" style="fill:#f3b857"/><path d="M443.286 130.92a5.23 5.23 0 0 1 0-4c.43-1.05 11-25.91 38.69-28.8 20.28-2.12 26.76-7 27.55-7.65a4.9 4.9 0 0 1 4.9-1.76 5.26 5.26 0 0 1 4 3.84c.22.76 5.26 18.81-14.79 32-10.91 7.14-21.05 7-30.85 6.92-7.18-.08-14.6-.16-23.06 2.49a5.22 5.22 0 0 1-5.42-1.46 5.06 5.06 0 0 1-1.02-1.58zm64.71-27.87c-5.24 2.09-13.16 4.23-24.94 5.46a36.09 36.09 0 0 0-23.94 12.84 116.81 116.81 0 0 1 13.74-.41c9.36.1 16.76.19 25-5.22 6.36-4.16 9.07-8.85 10.14-12.67z" id="path260"/><path class="cls-4" d="M430.826 149.27s12-22.24 37.45-22.26c25.45-.02 32.15-6.19 32.15-6.19s2.88 15.56-15.5 25.05-32.03-1.05-54.1 3.4z" id="path262" style="fill:#d8d8d8"/><path class="cls-6" d="M484.926 145.9c6.82-3.53 10.7-7.88 12.9-12v-.08l1-9.43 1.75-1.57a15.49 15.49 0 0 0-.15-1.92s-4.87 4.4-21.83 5.76a90.27 90.27 0 0 1-10.52 23.36 36.12 36.12 0 0 0 16.85-4.12z" id="path264" style="fill:#f3b857"/><path d="M426.006 151.29a5.23 5.23 0 0 1 .22-4.5c.55-1 13.8-25 42-25 20.78 0 27.84-4.29 28.69-4.86a4.91 4.91 0 0 1 5.06-1.25 5.26 5.26 0 0 1 3.54 4.23c.15.79 3.34 19.5-18.25 30.64-11.75 6.07-22 4.89-31.85 3.76-7.26-.84-14.75-1.7-23.6.1a5.24 5.24 0 0 1-5.24-2 5.44 5.44 0 0 1-.57-1.12zm68.19-22c-5.5 1.58-13.77 2.93-25.92 2.94a36.92 36.92 0 0 0-25.69 10.64 119.42 119.42 0 0 1 14.07 1c9.47 1.09 16.94 1.95 25.87-2.65 6.98-3.57 10.21-8.12 11.67-11.92z" id="path266"/><path class="cls-6" d="m518.846 74.76 15-33.18s1.77-14-8.42-3.23-39.86 45.35-39.86 45.35" id="path268" style="fill:#f3b857"/><path d="M480.736 85.73a5.24 5.24 0 0 1 .86-5.43c1.21-1.42 29.87-34.79 40-45.54 2-2.1 7.27-7.69 12.87-5.05 5.22 2.47 4.92 9.58 4.55 12.52a5.58 5.58 0 0 1-.42 1.5l-15 33.18a5.23 5.23 0 1 1-9.53-4.3l12.63-28c-11.66 12.73-36.91 42.14-37.18 42.46a5.24 5.24 0 0 1-8.8-1.38z" id="path270"/><path class="cls-4" d="M464.376 107.39s7-19.89 28.34-23.29c21.34-3.4 26.12-9.34 26.12-9.34s4.57 12.41-9.54 22.66-27.01 3.34-44.92 9.97z" id="path272" style="fill:#d8d8d8"/><path class="cls-6" d="M482.866 104.02c9.34-.49 17.66-.23 26.44-6.6 14.11-10.25 9.54-22.66 9.54-22.66s-4.77 5.94-26.12 9.34a159 159 0 0 0-9.86 19.92z" id="path274" style="fill:#f3b857"/><path d="M459.566 109.41a5.24 5.24 0 0 1-.11-3.76c.33-.93 8.31-22.87 32.45-26.71 16.79-2.68 22.18-6.9 22.94-7.57a4.88 4.88 0 0 1 4.74-2 5.24 5.24 0 0 1 4.17 3.6c.24.66 5.74 16.27-11.38 28.7-9.21 6.68-18 7.08-26.61 7.47-6.14.27-12.5.56-19.56 3.17a5.24 5.24 0 0 1-5.49-1.18 5.12 5.12 0 0 1-1.15-1.72zm54-25.43a88.1 88.1 0 0 1-20.06 5.29 30.19 30.19 0 0 0-18.13 10.13c3.52-.45 6.82-.6 9.92-.73 8-.36 14.27-.65 20.93-5.49 4.32-3.13 6.42-6.36 7.39-9.2z" id="path276"/><ellipse class="cls-4" cx="287.126" cy="175.29" rx="29.37" ry="26.04" id="ellipse278" style="fill:#d8d8d8"/><path class="cls-4" d="M519.916 242.49c6.44-6.22 8.53-15.78 9.19-22.25 0-.44.06-.9.12-1.39a45.38 45.38 0 0 0 .13-5.57l.41-.31c1.11-18.27-5.32-16.57-5.32-16.57.36-40.71-38.61-23.26-38.61-23.26h-249.61l.82-34.46-11.54-12.86c-1.74-1.93-3.43-3.69-5.17-5.36-18.17-17.43-40.67-26.27-66.94-26.27h-.59c-.88-.08-3.33-.24-7-.24-10.17 0-30.33 1.34-51.14 10.31-26.73 10.79-47.69 32-60.62 61.32a169.78 169.78 0 0 0-12.2 43.24c-9.14 5.32-16.5 13.74-19.88 23.26-3 8.35-2.53 16.83 1.16 23.53l.83 1.39a23.24 23.24 0 0 0 5 5.57c3.23 2.46 8.32 5 16 5.85h96.09l.58-1.63c21.08 28.13 62.53 8 62.53 8a22.57 22.57 0 0 0 21.57 7h301c10.49-2.64 7.83-14.61 7.83-14.61V247.5z" id="path280" style="fill:#d8d8d8"/><path class="cls-3" d="M160.376 173.46a34.65 34.65 0 0 0-12.81-2.74c-8.54 0-13.34 4.29-12.94 10.43a13.85 13.85 0 0 0-2.19-.18c-6.09 0-8.4 4.62-5.67 10.61-2.72 1-3.53 3.66-1.69 6.77 2.34 4 8.11 7.21 12.88 7.21.34 0 .67 0 1-.05v.05h27.22c-.8-11.65-3.9-24.83-5.8-32.1z" id="path282" style="fill:#fff"/><path class="cls-4" d="M156.546 195.62a9.36 9.36 0 0 0-9.85-2.6s-.2-4.36-8.06-4.91c0 0 6.2-3.63 11.37.7 0 0 4-1.74 6.63.88z" id="path284" style="fill:#d8d8d8"/><path class="cls-8" d="m207.986 139.26-58.74-23.59-75.66 32.72-28.54 82.2h28.9l1.36-34.65s11-58.66 73.87-58.66c0 0 20.54 1.11 35.49 14.7z" id="path286" style="fill:#6c72ef"/><path d="M271.206 231.82q-2.74 2.53-5.88 4.95a41.65 41.65 0 0 1-6.46 4.13 14.41 14.41 0 0 1-6.53 1.7 5 5 0 0 1-3.17-.93 6.39 6.39 0 0 1-1.82-2.37 8.38 8.38 0 0 1-.71-3.19 13.29 13.29 0 0 1 .29-3.41l2.77-25.3a12.74 12.74 0 0 0-.1-4.56c-.3-1.21-.74-1.82-1.32-1.82-2 0-3.62 1.27-4.9 3.8a42.22 42.22 0 0 0-3.26 9.57q-1.33 5.78-2.32 12.7-.99 6.92-2 13.2l-.23 1.43c0 .29-.36.51-1 .66a15.1 15.1 0 0 1-2.17.33c-.82.07-1.59.11-2.32.11h-1.54c-.29 0-.73 0-1.32-.05a16.48 16.48 0 0 1-1.79-.22 4.55 4.55 0 0 1-1.55-.55 1.06 1.06 0 0 1-.57-1.05l2.92-33.33q.19-2.21.45-5.77.26-3.56.75-9.19a3.43 3.43 0 0 1 2.45-2.91 12.46 12.46 0 0 1 4.81-.94 11.36 11.36 0 0 1 4.87 1c1.41.66 2 1.62 1.84 2.86-.09 1-.2 2.07-.33 3.14-.13 1.07-.25 2.18-.35 3.35l1-1.54c.77-1.17 1.54-2.29 2.33-3.35a12.9 12.9 0 0 1 2.77-2.75 12.53 12.53 0 0 1 3.74-1.82 18.82 18.82 0 0 1 5.44-.66 8 8 0 0 1 4 .94 8.2 8.2 0 0 1 2.76 2.47 10.46 10.46 0 0 1 1.62 3.57 13 13 0 0 1 .3 4.12q-.21 2.42-.75 6.71t-1.22 9c-.46 3.11-.87 6.14-1.24 9.07-.37 2.93-.62 5.28-.78 7 0 .37 0 .55.17.55a5.79 5.79 0 0 0 2.41-1.15c1.17-.77 2.44-1.64 3.81-2.59l4-2.8a18 18 0 0 1 3-1.82l2.11 3.63a56.24 56.24 0 0 0-4.98 4.08z" id="path288"/><path d="M295.516 231.82q-2.76 2.53-5.88 4.95a41.27 41.27 0 0 1-6.47 4.13 14.34 14.34 0 0 1-6.52 1.7 4.36 4.36 0 0 1-3.16-1 5.23 5.23 0 0 1-1.42-2.64 13.93 13.93 0 0 1-.3-3.41q0-1.81.18-3.36l.55-6.27c.16-1.83.29-3.56.4-5.17.11-1.61.21-3.26.32-4.95.11-1.69.24-3.59.39-5.72.15-2.13.35-4.58.59-7.37l.87-10c.09-1 .88-1.78 2.35-2.25a15.5 15.5 0 0 1 4.84-.72 16.73 16.73 0 0 1 5.11.72c1.5.47 2.28 1.23 2.33 2.25l-4.88 39.49c0 .22 0 .33.08.33a6.19 6.19 0 0 0 2.47-1.15c1.2-.77 2.5-1.64 3.91-2.59 1.41-.95 2.75-1.89 4-2.8a18 18 0 0 1 3-1.82l2.1 3.63a56.28 56.28 0 0 0-4.86 4.02z" id="path290"/><path d="M338.886 232.04q-2.81 2.53-6 4.95a23.36 23.36 0 0 1-3.35 2.43 33.85 33.85 0 0 1-9.64 4 22.93 22.93 0 0 1-5.34.65c-4.11 0-7.36-.7-9.77-2.09a13.23 13.23 0 0 1-5.39-5.66 22.18 22.18 0 0 1-2.14-8.25 60.3 60.3 0 0 1 .09-9.85l.1-1.1a37 37 0 0 1 2-8.8 31.1 31.1 0 0 1 5-9.07 28.51 28.51 0 0 1 8.49-7.15 25 25 0 0 1 12.52-2.92 13 13 0 0 1 3.15.44 8.33 8.33 0 0 1 3.11 1.54 7.21 7.21 0 0 1 2.16 3 10 10 0 0 1 .52 4.73 6.69 6.69 0 0 1-1.66 3.91 3.62 3.62 0 0 1-2.21 1.37c-.73 0-1.17-.27-1.3-.82a10.69 10.69 0 0 1 0-3 4.32 4.32 0 0 0-1.09-3.24q-1.25-1.49-4.77-1.49a5.82 5.82 0 0 0-4.44 2.37 24.28 24.28 0 0 0-3.55 5.83 42.73 42.73 0 0 0-2.53 7.61 53.34 53.34 0 0 0-1.26 7.5q-.71 8.06 1.62 12.91t9 4.85a9.72 9.72 0 0 0 4.45-1.21 32.9 32.9 0 0 0 4.84-3.08c1.65-1.25 3.32-2.6 5-4.07 1.68-1.47 3.42-2.82 5.14-4.07l2.1 3.63c-1.36 1.07-2.98 2.46-4.85 4.15z" id="path292"/><path d="M388.706 228.36a93.37 93.37 0 0 1-10.28 6.93 69.34 69.34 0 0 1-11 5.17 30.83 30.83 0 0 1-10.52 2 14.83 14.83 0 0 1-7.9-2.14 19.2 19.2 0 0 1-5.83-5.56 23.32 23.32 0 0 1-3.41-7.59 24.49 24.49 0 0 1-.71-8.25 46.72 46.72 0 0 1 1.91-9.24 32.86 32.86 0 0 1 4.87-9.79 27.64 27.64 0 0 1 8.71-7.75q5.38-3.14 13.42-3.14a15.72 15.72 0 0 1 6.42 1.38 14.76 14.76 0 0 1 5.47 4.18 19.13 19.13 0 0 1 3.56 7 27 27 0 0 1 .74 9.84c-.08.81-.2 1.8-.37 3-.17 1.2-.4 2.42-.66 3.74-.26 1.32-.55 2.68-.85 4.07-.3 1.39-.62 2.64-.93 3.74 0 .15 0 .22.09.22a6.31 6.31 0 0 0 2.52-1.21c1.24-.81 2.61-1.7 4.09-2.69s2.88-2 4.21-2.92a18.12 18.12 0 0 1 3-1.87l2.1 3.63q-3.75 3.45-8.65 7.25zm-20.1-7.25c.08-.88.17-2.11.27-3.7.1-1.59.18-3.27.22-5.07a50.14 50.14 0 0 0-.17-5.57 27.91 27.91 0 0 0-.87-5.13 11.07 11.07 0 0 0-1.76-3.75 3.61 3.61 0 0 0-3-1.49 5.89 5.89 0 0 0-4.14 1.49 10.14 10.14 0 0 0-2.53 3.75 23.29 23.29 0 0 0-1.35 4.8c-.3 1.69-.51 3.23-.63 4.63l-.35 4c-.1 1.18-.2 2.94-.29 5.3a39.91 39.91 0 0 0 .32 7 16.94 16.94 0 0 0 1.94 6.12 4.94 4.94 0 0 0 4.66 2.65 4.71 4.71 0 0 0 3.83-1.71 12.72 12.72 0 0 0 2.23-4.08 25.07 25.07 0 0 0 1.15-5c.24-1.72.38-3.14.47-4.24z" id="path294"/><path d="M435.776 215.32a27.69 27.69 0 0 1-3.56 4.18 19.42 19.42 0 0 1-4.58 3.3 11.72 11.72 0 0 1-5.5 1.32 6.38 6.38 0 0 1-4.73-1.87 14.4 14.4 0 0 1-3-4.34 19.64 19.64 0 0 1-1.5-4.9 15.66 15.66 0 0 1-.29-3.52 23.63 23.63 0 0 1 1-5.44 12 12 0 0 1 2.76-4.13c0-.07-.06-.11-.21-.11a7 7 0 0 0-6.19 3.52 30.85 30.85 0 0 0-3.61 9.24 117 117 0 0 0-2.29 13q-.92 7.26-2.12 14.74l-.23 1.43c0 .29-.36.51-1 .66a15.1 15.1 0 0 1-2.17.33c-.81.07-1.59.11-2.32.11h-1.54c-.29 0-.73 0-1.31-.05a14.68 14.68 0 0 1-1.75-.22 4.61 4.61 0 0 1-1.49-.55 1.09 1.09 0 0 1-.57-1.05l2.8-33.35q.19-2.21.45-5.77.26-3.56.75-9.19a3.4 3.4 0 0 1 2.23-2.91 10.94 10.94 0 0 1 4.57-.93 13 13 0 0 1 2.67.28 9.53 9.53 0 0 1 2.33.72 4.79 4.79 0 0 1 1.6 1.21 2.11 2.11 0 0 1 .52 1.59c-.09 1-.2 2.07-.33 3.14-.13 1.07-.25 2.18-.35 3.35l1-1.54c.76-1.17 1.53-2.29 2.32-3.35a12.9 12.9 0 0 1 2.77-2.75 12.65 12.65 0 0 1 3.74-1.82 18.9 18.9 0 0 1 5.45-.66 8 8 0 0 1 4 .94 8.2 8.2 0 0 1 2.76 2.47 10.46 10.46 0 0 1 1.52 3.62 12.41 12.41 0 0 1 .3 4.12 30.6 30.6 0 0 1-1 5.23 18.77 18.77 0 0 1-2.21 5.17 12.66 12.66 0 0 1-3.81 3.9 10.16 10.16 0 0 1-5.74 1.54h-.11a4.6 4.6 0 0 0 .71 1.87 5 5 0 0 0 1.38 1.21 4.81 4.81 0 0 0 2.54.55 10 10 0 0 0 6.06-2 22.85 22.85 0 0 0 4.83-4.84 37 37 0 0 0 3.47-5.72q1.41-2.93 2.22-4.68l-.79 9q-.94 1.74-2.45 3.95z" id="path296"/><path d="M480.966 231.82q-2.75 2.53-5.88 4.95a41.65 41.65 0 0 1-6.46 4.13 14.41 14.41 0 0 1-6.53 1.7 5 5 0 0 1-3.16-.93 6.31 6.31 0 0 1-1.83-2.37 8.38 8.38 0 0 1-.71-3.19 13.29 13.29 0 0 1 .29-3.41l2.77-25.3a12.74 12.74 0 0 0-.08-4.58c-.3-1.21-.74-1.82-1.32-1.82-2 0-3.62 1.27-4.9 3.8a42.22 42.22 0 0 0-3.26 9.57q-1.32 5.78-2.32 12.7-1 6.92-2 13.2l-.2 1.45c0 .29-.36.51-1 .66a15.1 15.1 0 0 1-2.17.33c-.81.07-1.59.11-2.32.11h-1.54c-.29 0-.73 0-1.32-.05a16.48 16.48 0 0 1-1.79-.22 4.55 4.55 0 0 1-1.55-.55 1.06 1.06 0 0 1-.57-1.05l2.92-33.33q.2-2.21.45-5.77.25-3.56.75-9.19a3.43 3.43 0 0 1 2.45-2.91 12.46 12.46 0 0 1 4.81-.94 11.36 11.36 0 0 1 4.87 1c1.41.66 2 1.62 1.84 2.86-.09 1-.2 2.07-.33 3.14-.13 1.07-.25 2.18-.35 3.35l1-1.54c.77-1.17 1.54-2.29 2.33-3.35a12.9 12.9 0 0 1 2.77-2.75 12.65 12.65 0 0 1 3.74-1.82 18.87 18.87 0 0 1 5.44-.66 8 8 0 0 1 4 .94 8.2 8.2 0 0 1 2.76 2.47 10.46 10.46 0 0 1 1.55 3.58 12.68 12.68 0 0 1 .3 4.12q-.21 2.42-.75 6.71t-1.29 8.96c-.46 3.11-.87 6.14-1.24 9.07-.37 2.93-.62 5.28-.78 7 0 .37 0 .55.17.55a5.79 5.79 0 0 0 2.41-1.15c1.17-.77 2.44-1.64 3.81-2.59l4-2.8a18 18 0 0 1 3-1.82l2.11 3.63a56.24 56.24 0 0 0-4.89 4.11z" id="path298"/><path d="m211.376 249.92 8.14-93a3.35 3.35 0 0 0-.38-2.14 2.79 2.79 0 0 0-1.23-1.07 4.9 4.9 0 0 0-1.48-.38c-.5 0-.87-.06-1.12-.06a12.21 12.21 0 0 0-4.9 1.32 37.43 37.43 0 0 0-5.63 3.21 26.56 26.56 0 0 0-4.69 4 6.94 6.94 0 0 0-2.1 3.77l-6.42 73.47a10.42 10.42 0 0 1-1.51 4.21 21.87 21.87 0 0 1-3.27 4.34 24 24 0 0 1-4.27 3.53 12.53 12.53 0 0 1-4.51 1.89 3.57 3.57 0 0 1-2.19-.82 8.11 8.11 0 0 1-1.84-2 9.06 9.06 0 0 1-1.16-2.51 6.35 6.35 0 0 1-.3-2.33l5.44-62.17a27.38 27.38 0 0 0-2.3-14.09 32.41 32.41 0 0 0-8.22-11 38.35 38.35 0 0 0-12.06-7.09 40 40 0 0 0-13.87-2.51 49.85 49.85 0 0 0-20.23 4 50.89 50.89 0 0 0-15.52 10.33A51.09 51.09 0 0 0 91.676 189h9.7a39.09 39.09 0 0 1 2.93-7.17 50.78 50.78 0 0 1 8.87-12.21 49 49 0 0 1 11.72-8.87 26.75 26.75 0 0 1 12.83-3.46 20 20 0 0 1 7.79 1.57 21 21 0 0 1 6.6 4.34 19.15 19.15 0 0 1 4.4 6.61 17.61 17.61 0 0 1 1.16 8.24l-5.79 66.2a21.54 21.54 0 0 0 .72 7.61 25.69 25.69 0 0 0 3.09 7.05 17.38 17.38 0 0 0 5.09 5.22 12 12 0 0 0 6.8 2 17.84 17.84 0 0 0 7.33-1.7 63.26 63.26 0 0 0 7.18-3.77c2.26-1.39 4.22-2.64 5.87-3.78 1.65-1.14 2.77-1.7 3.36-1.7a31.88 31.88 0 0 0-.08 3.84 13.61 13.61 0 0 0 .66 3.9 6.7 6.7 0 0 0 1.94 3 5.21 5.21 0 0 0 3.61 1.2 9.86 9.86 0 0 0 3.74-1.07 32.19 32.19 0 0 0 4.7-2.64 21.25 21.25 0 0 0 4.08-3.53 6.61 6.61 0 0 0 1.9-3.71z" id="path300"/><path class="cls-5" d="M210.196 130.88c-15.75-15.11-35.25-22.77-57.95-22.77H150.606s-2.25-.21-6-.21a117.25 117.25 0 0 0-45.52 9.17c-61.99 24.85-64.55 103.75-64.55 103.75l10.71 7.28 10.42-7.28 10.45-44.17s48-42.67 53.5-58.41a113.18 113.18 0 0 1 24.34-2.69c3.29 0 5.27.17 5.29.17l.74.07h1.63c20.74 0 38.6 7 53 20.85 1 1 1.94 1.93 2.87 2.93l7.21-3.94c-1.32-1.6-2.86-3.18-4.5-4.75z" id="path302" style="fill:#f16567"/><path class="cls-6" d="M207.516 139.52c-.93-1-1.89-2-2.87-2.93-14.43-13.84-32.29-20.86-53-20.86h-1.63l-.74-.07s-2-.17-5.29-.17c-10.49 0-31 1.62-50.38 12.47-23.45 13.11-38 36.18-43.38 68.56l-3.27 37.39 12.35-18.57.78-19.79.21-1.12a96.93 96.93 0 0 1 16.24-36c12-16.61 34.6-36.4 74-36.4h.81c1.3.07 29.35 1.84 47.92 22z" id="path304" style="fill:#f3b857"/><path class="cls-7" d="M150.926 122.04h-.41c-39.41 0-62 19.79-74 36.4a96.93 96.93 0 0 0-16.24 36l-.21 1.12-.59 15-.06.79-.16 4h-.2l-.66 7.63h8.19l1.07-27.23.11-.56a89.24 89.24 0 0 1 14.8-32.66c10.84-15 31.31-32.86 67.26-32.86h.41c1.24.06 25.15 1.59 41.76 18.3l7.23-4c-18.57-20.13-46.62-21.9-47.92-22z" id="path306" style="fill:#45dfef"/><path class="cls-8" d="M235.376 266.25a.92.92 0 0 1 0-.32l4.05-.49v.14c0 .59.21.8.82.8h2.4c.62 0 .82-.21.82-.8v-.41c0-.51-.2-.61-1.28-.77l-3.27-.47c-2.52-.37-3.5-1.29-3.5-3.34v-2.15c0-2.34 1.26-3.58 3.65-3.58h4.77c2.38 0 3.65 1.24 3.65 3.58a1.12 1.12 0 0 1 0 .33l-4.06.49v-.14c0-.59-.2-.8-.82-.8h-2.23c-.63 0-.85.23-.85.8v.34c0 .53.14.62 1.3.78l3.26.47c2.55.36 3.49 1.28 3.49 3.38v2.16c0 2.35-1.27 3.59-3.65 3.59h-4.89c-2.36-.02-3.66-1.24-3.66-3.59z" id="path308" style="fill:#6c72ef"/><path class="cls-8" d="M266.236 266.76h-4.86l-.84 2.88h-4.16l4.45-14.58h6l4.44 14.58h-4.18zm-1-3.46-1.43-5-1.44 5z" id="path310" style="fill:#6c72ef"/><path class="cls-8" d="M293.376 255.06v14.58h-3.9l-4.73-7.82v7.79h-4.08v-14.55h3.93l4.78 7.76v-7.79z" id="path312" style="fill:#6c72ef"/><path class="cls-8" d="M320.066 258.53v2.42h5.47v3.47h-5.47v5.22h-4.07v-14.58h10.38v3.47z" id="path314" style="fill:#6c72ef"/><path class="cls-8" d="M341.556 264.64h-1.41v5h-4.08v-14.58h8.14c2.38 0 3.65 1.24 3.65 3.59v2.4a3.18 3.18 0 0 1-1.8 3.25l3.49 5.34h-4.75zm-1.41-3.46h2.81c.62 0 .82-.21.82-.8v-1.06c0-.59-.2-.79-.82-.79h-2.81z" id="path316" style="fill:#6c72ef"/><path class="cls-8" d="M367.976 266.76h-4.86l-.83 2.88h-4.18l4.44-14.58h6l4.44 14.58h-4.18zm-1-3.46-1.43-5-1.45 5z" id="path318" style="fill:#6c72ef"/><path class="cls-8" d="M395.146 255.06v14.58h-3.94l-4.73-7.82v7.79h-4.1v-14.55h4l4.73 7.79v-7.79z" id="path320" style="fill:#6c72ef"/><path class="cls-8" d="M405.296 266.25v-7.81c0-2.34 1.26-3.58 3.65-3.58h4.83c2.38 0 3.65 1.24 3.65 3.58a1.29 1.29 0 0 1 0 .33l-4.06.49v-.14c0-.59-.2-.8-.81-.8h-2.35c-.61 0-.81.21-.81.8v6.46c0 .59.2.8.81.8h2.35c.61 0 .81-.21.81-.8v-.14l4.06.49a1.24 1.24 0 0 1 0 .32c0 2.35-1.27 3.59-3.65 3.59h-4.83c-2.39-.02-3.65-1.24-3.65-3.59z" id="path322" style="fill:#6c72ef"/><path class="cls-8" d="M427.306 255.06h4.07v14.58h-4.08z" id="path324" style="fill:#6c72ef"/><path class="cls-8" d="M441.476 266.25a.92.92 0 0 1 0-.32l4.06-.49v.14c0 .59.2.8.81.8h2.41c.61 0 .81-.21.81-.8v-.41c0-.51-.2-.61-1.28-.77l-3.26-.47c-2.53-.37-3.51-1.29-3.51-3.34v-2.15c0-2.34 1.26-3.58 3.65-3.58h4.77c2.38 0 3.65 1.24 3.65 3.58a1.12 1.12 0 0 1 0 .33l-4.06.49v-.14c0-.59-.2-.8-.81-.8h-2.25c-.63 0-.85.23-.85.8v.34c0 .53.14.62 1.3.78l3.26.47c2.55.36 3.49 1.28 3.49 3.38v2.16c0 2.35-1.26 3.59-3.65 3.59h-4.89c-2.39-.02-3.65-1.24-3.65-3.59z" id="path326" style="fill:#6c72ef"/><path class="cls-8" d="M463.556 266.25v-7.81c0-2.34 1.26-3.58 3.64-3.58h4.84c2.38 0 3.65 1.24 3.65 3.58a.87.87 0 0 1 0 .33l-4 .49v-.14c0-.59-.21-.8-.82-.8h-2.34c-.61 0-.82.21-.82.8v6.46c0 .59.21.8.82.8h2.34c.61 0 .82-.21.82-.8v-.14l4 .49a.84.84 0 0 1 0 .32c0 2.35-1.27 3.59-3.65 3.59h-4.84c-2.38-.02-3.64-1.24-3.64-3.59z" id="path328" style="fill:#6c72ef"/><path class="cls-8" d="M497.496 258.44v7.81c0 2.35-1.27 3.59-3.65 3.59h-4.83c-2.39 0-3.65-1.24-3.65-3.59v-7.81c0-2.34 1.26-3.58 3.65-3.58h4.83c2.38-.04 3.65 1.24 3.65 3.58zm-4.9-.12h-2.34c-.61 0-.82.21-.82.8v6.46c0 .59.21.8.82.8h2.34c.61 0 .82-.21.82-.8v-6.46c-.04-.59-.21-.8-.82-.8z" id="path330" style="fill:#6c72ef"/><ellipse cx="99.992" cy="526.405" rx="15.57" ry="10.27" transform="rotate(-57.38)" id="ellipse332"/><path d="m516.976 214.89-2.44 4.12q-1.54 2.58-2.88 4.67c-.9 1.39-1.71 2.55-2.45 3.47-.74.92-1.3 1.37-1.66 1.37-.08 0-.09-.26 0-.77l.09-1.1.18-2.09a15.06 15.06 0 0 0-1.42-8.25q-1.83-3.63-4.24-7.48a78 78 0 0 1-4.54-8.41 28.24 28.24 0 0 1-2.34-11.06h-3a22 22 0 0 1-.65 3.08c-.39 1.47-.83 3-1.34 4.68-.51 1.68-1 3.21-1.51 4.67a12.06 12.06 0 0 1-1.24 2.86 25.09 25.09 0 0 0-1 2.48 8.84 8.84 0 0 0-.39 1.92 10 10 0 0 0 .23 2.77 17 17 0 0 0 1.32 3.74l7.48 12.65a8.32 8.32 0 0 1 .58 3.41 7.38 7.38 0 0 1-2 4.51 5 5 0 0 1-3.52 1.87 5.81 5.81 0 0 1-4.11-1.37 9.05 9.05 0 0 1-2.25-3.25 11.31 11.31 0 0 1-.88-3.74 21.2 21.2 0 0 1 0-3c0-.51 0-.77-.15-.77-.67.07-1.46.7-2.36 1.87a10.27 10.27 0 0 0-1.2 8.69 9.86 9.86 0 0 0 1.85 3.36 9.56 9.56 0 0 0 3.14 2.42 9.69 9.69 0 0 0 4.32.93 24.3 24.3 0 0 0 10.94-2.47 35.12 35.12 0 0 0 9.28-6.77 57.17 57.17 0 0 0 7.89-10.08c1.09-1.75 2.16-3.57 3.21-5.43z" id="path334"/><path class="cls-4" d="M237.046 138.68s14 21 18.46 36.16c4.46 15.16-32.13-2.33-32.13-2.33" id="path336" style="fill:#d8d8d8"/><path class="cls-13" id="polygon338" style="stroke:#000;stroke-width:5.05999994px;stroke-linecap:round;stroke-linejoin:round" transform="translate(-216.624 -177.18)" d="m508.19 347.58-6.06-10.64 1.1 12.78 5.06 9.83z"/><path class="cls-13" id="polygon340" style="stroke:#000;stroke-width:5.05999994px;stroke-linecap:round;stroke-linejoin:round" transform="translate(-216.624 -177.18)" d="m505.03 345.6-10.63 6.07 12.78-1.1 9.83-5.06z"/><path class="cls-14" id="polygon342" style="fill:#6c72ef;stroke:#6c72ef;stroke-width:3.03999996px;stroke-linecap:round;stroke-linejoin:round" transform="translate(-216.624 -177.18)" d="m456.9 351.51.98-7.3-4.13 6.52-1.16 6.54z"/><path class="cls-14" id="polygon344" style="fill:#6c72ef;stroke:#6c72ef;stroke-width:3.03999996px;stroke-linecap:round;stroke-linejoin:round" transform="translate(-216.624 -177.18)" d="m456.11 349.41-7.3-.97 6.52 4.13 6.54 1.16z"/><path class="cls-4" d="M31.486 209.2s11.09-6.15 17.72-1.38c0 0 15.86-35.79 55.16-18.13s-72.88 42.63-72.88 42.63" id="path346" style="fill:#d8d8d8"/><path class="cls-3" d="M126.376 229.82c2.54-10.57-2.2-18.72-11.44-18.72a17.44 17.44 0 0 0-3.27.33c-1-10.83-9.47-18.4-22.42-18.4-15.71 0-32.69 11.13-40.34 25.71a15.68 15.68 0 0 0-7.78-1.88c-10.69 0-22.35 8.42-26 18.8-3.58 10.09 1.67 18.32 11.76 18.79h84.78v-.09a12.38 12.38 0 0 0 1.51.09c7.23 0 15.11-5.69 17.61-12.71 1.94-5.48 0-10.15-4.41-11.92z" id="path348" style="fill:#fff"/><path class="cls-4" d="M66.006 236.9s17-25 28.41-11.13c0 0 18.65-10.05 22 6.28 0 0-17.85-6.1-27.32 1.57.02 0 .58-12.04-23.09 3.28z" id="path350" style="fill:#d8d8d8"/><circle cx="232.236" cy="156.85" r="3.17" id="circle352" style="fill:#fff;stroke:#fff;stroke-width:.93000001px;stroke-miterlimit:10"/><path class="cls-16" d="M349.456 146.25s11.91-14.57 22.62 1.68" id="path354" style="fill:none;stroke:#45dfef;stroke-width:3.5px;stroke-linecap:round;stroke-linejoin:round"/><path class="cls-16" id="line356" style="fill:none;stroke:#45dfef;stroke-width:3.5px;stroke-linecap:round;stroke-linejoin:round" d="M342.916 149.27h34.22"/></svg>