<svg xmlns="http://www.w3.org/2000/svg" id="Layer_1" width="318.26" height="318.26" data-name="Layer 1" viewBox="0 0 318.26 318.26"><defs id="defs4"><style id="style2">.cls-1{fill:#009aae}.cls-16,.cls-3{stroke-miterlimit:10;fill:none}.cls-3{stroke-width:3.61px;stroke:#2e0003}.cls-17{fill:#2e0003}.cls-18{fill:#ff5760}.cls-19{fill:#6fe485}.cls-20{fill:#f7f6f4}.cls-16{stroke:#f7f6f4;stroke-width:5.36px}.cls-21{fill:#ff982a}</style></defs><g id="g364" transform="translate(-94.54 -205.01)"><g id="g226"><path id="path222" d="M253.67 518.86c-20.86 0-41.13-4.1-60.25-12.18-18.43-7.8-34.97-18.94-49.16-33.13s-25.34-30.73-33.13-49.16c-8.08-19.11-12.18-39.38-12.18-60.25s4.1-41.13 12.18-60.25c7.8-18.43 18.94-34.97 33.13-49.16s30.73-25.34 49.16-33.13c19.12-8.08 39.38-12.18 60.25-12.18s41.13 4.1 60.25 12.18c18.43 7.8 34.97 18.94 49.16 33.13s25.34 30.73 33.13 49.16c8.08 19.12 12.18 39.38 12.18 60.25s-4.1 41.13-12.18 60.25c-7.8 18.43-18.94 34.97-33.13 49.16s-30.73 25.34-49.16 33.13c-19.12 8.08-39.38 12.18-60.25 12.18" class="cls-17"/><path id="path224" d="M253.67 213.8c20.27 0 39.96 3.98 58.53 11.84 17.91 7.57 33.98 18.41 47.77 32.19 13.79 13.79 24.62 29.86 32.19 47.77 7.85 18.57 11.84 38.26 11.84 58.53s-3.98 39.96-11.84 58.53c-7.57 17.91-18.41 33.98-32.19 47.77-13.79 13.79-29.86 24.62-47.77 32.19-18.57 7.85-38.26 11.84-58.53 11.84s-39.96-3.98-58.53-11.84c-17.91-7.57-33.98-18.41-47.77-32.19-13.79-13.79-24.62-29.86-32.19-47.77-7.85-18.57-11.84-38.26-11.84-58.53s3.98-39.96 11.84-58.53c7.57-17.91 18.41-33.98 32.19-47.77 13.79-13.79 29.86-24.62 47.77-32.19 18.57-7.85 38.26-11.84 58.53-11.84m0-8.79c-21.45 0-42.3 4.22-61.96 12.53-18.96 8.02-35.97 19.48-50.56 34.08-14.59 14.59-26.06 31.6-34.08 50.56-8.32 19.66-12.53 40.51-12.53 61.96s4.22 42.3 12.53 61.96c8.02 18.96 19.48 35.97 34.08 50.56 14.59 14.59 31.6 26.06 50.56 34.08 19.66 8.32 40.51 12.53 61.96 12.53s42.3-4.22 61.96-12.53c18.96-8.02 35.97-19.48 50.56-34.08 14.59-14.59 26.06-31.6 34.08-50.56 8.32-19.66 12.53-40.51 12.53-61.96s-4.22-42.3-12.53-61.96c-8.02-18.96-19.48-35.97-34.08-50.56-14.59-14.59-31.6-26.06-50.56-34.08-19.66-8.32-40.51-12.53-61.96-12.53" class="cls-21"/></g><g id="g244"><path id="path228" d="m156.93 312.42-3.67-2.49 4.46-6.58 2.29 1.55c.66.45 1.21.34 1.66-.33l2.7-3.99c.45-.66.35-1.22-.31-1.67l-3.08-2.09c-.61-.41-1.17-.37-1.7.13l-6.24 5.89q-4.29 4.02-9.06.78l-4.42-3c-1.71-1.16-2.71-2.52-3-4.07s.15-3.2 1.32-4.92l5.54-8.17c1.17-1.73 2.53-2.74 4.09-3.05 1.55-.31 3.18.12 4.89 1.28l3.32 2.25-4.46 6.58-1.93-1.31c-.66-.45-1.21-.34-1.66.33l-2.57 3.79c-.45.66-.35 1.22.31 1.67l2.53 1.71c.61.41 1.17.37 1.7-.13l6.24-5.89q4.29-4.02 9.06-.78l4.97 3.37c1.71 1.16 2.71 2.52 3 4.07q.435 2.34-1.32 4.92l-5.68 8.37c-1.17 1.73-2.53 2.74-4.09 3.05-1.55.31-3.18-.12-4.89-1.28z" class="cls-20"/><path id="path230" d="m193 280.81-5.42-4.5-6.12 5 3.33 6.21-6.34 5.18-13.19-27.72-3.57-1.7 10.19-8.32 27.46 20.68-6.34 5.18zm-14.87-5.72 4.03-3.29-9.9-8.24-.22.18 6.09 11.34z" class="cls-20"/><path id="path232" d="m207.68 235.65 7.39-2.92 12.26 31.06-6.95 2.74-14.41-12.88 6.34 16.06-7.39 2.92-10.95-27.73-2.88-2.71 8.51-3.36 14.41 12.88-6.34-16.06z" class="cls-20"/><path id="path234" d="m231.84 236.02-.55-6.89 22.81-1.81.55 6.89-7.44.59 2.1 26.39-7.92.63-2.1-26.39-7.44.59z" class="cls-20"/><path id="path236" d="m278.29 229.94-4.96 33.02-7.86-1.18 4.43-29.48-1.14-3.79z" class="cls-20"/><path id="path238" d="m298.29 271.15 1.43-6.9-7.29-3.05-3.92 5.86-7.55-3.16 18.27-24.67-.17-3.95 12.13 5.08-5.34 33.96-7.55-3.16zm-1.94-15.81 4.8 2.01 2.62-12.61-.27-.11z" class="cls-20"/><path id="path240" d="M315.58 281.76c-1.6-1.34-2.48-2.79-2.63-4.37-.15-1.57.44-3.16 1.76-4.74l13.15-15.74q1.995-2.385 4.35-2.58c1.58-.13 3.16.47 4.77 1.81l12.94 10.81-7.39 2.84-7.95-6.64c-.62-.51-1.18-.47-1.69.14l-11.01 13.18c-.51.61-.46 1.17.16 1.69l4.44 3.71 8.72-10.43 6.1 5.1-13.15 15.74-12.57-10.5z" class="cls-20"/><path id="path242" d="M336.85 303.79c-1.14-1.75-1.56-3.39-1.24-4.94.31-1.55 1.34-2.89 3.07-4.02l17.56-11.5c1.73-1.13 3.37-1.53 4.91-1.2 1.55.33 2.89 1.37 4.04 3.11l5.41 8.26c1.14 1.75 1.56 3.39 1.24 4.94s-1.34 2.89-3.07 4.02l-17.56 11.5c-1.73 1.13-3.37 1.53-4.91 1.2-1.55-.33-2.89-1.37-4.04-3.11zm7.57-3.24c-.67.44-.78.99-.34 1.66l2.51 3.83c.44.67.99.79 1.66.35l14.76-9.67c.66-.44.78-.99.34-1.66l-2.51-3.83c-.44-.67-.99-.79-1.66-.35z" class="cls-20"/></g><path id="path246" d="M253.67 454.14c-24.1 0-46.76-9.39-63.81-26.43-17.04-17.04-26.43-39.7-26.43-63.81s9.39-46.76 26.43-63.81c17.04-17.04 39.7-26.43 63.81-26.43s46.76 9.39 63.81 26.43c17.04 17.04 26.43 39.7 26.43 63.81s-9.39 46.76-26.43 63.81c-17.04 17.04-39.7 26.43-63.81 26.43" class="cls-1"/><circle id="circle248" cx="253.67" cy="363.9" r="77.45" class="cls-1"/><g id="g278"><path id="rect250" d="M200.5 289.49h6.12v32.93h-6.12z" class="cls-19"/><path id="rect252" d="M225.46 288.63h2.94v32.93h-2.94z" class="cls-21"/><path id="rect254" d="M243.58 273.01h6.12v32.93h-6.12z" class="cls-18"/><path id="rect256" d="M264.6 280.67h2.94v33.71h-2.94z" class="cls-21"/><path id="rect258" d="M303.31 286.5h6.12v51.62h-6.12z" class="cls-17"/><path id="rect260" d="M283.54 276.93h6.12v44.87h-6.12z" class="cls-19"/><path id="rect262" d="M297.18 410.36h6.12v32.93h-6.12z" class="cls-18"/><path id="rect264" d="M328.65 341.41h5.21v36.75h-5.21z" class="cls-21"/><path id="rect266" d="M268.58 410.43h6.12v32.93h-6.12z" class="cls-21"/><path id="rect268" d="M217.39 416.89h6.12v32.93h-6.12z" class="cls-19"/><path id="rect270" d="M191.79 403.45h6.12v32.93h-6.12z" class="cls-18"/><path id="rect272" d="M191.89 361.16h6.09v26.34h-6.09z" class="cls-17"/><path id="rect274" d="M178.9 382.27h4.16v20.88h-4.16z" class="cls-21"/><path id="rect276" d="M186.98 310.95h3.32v18.1h-3.32z" class="cls-21"/></g><g id="g294"><path id="path280" d="M142.71 443.34c-1.28-1.65-1.82-3.26-1.63-4.83s1.11-2.99 2.74-4.25l16.6-12.84c1.63-1.26 3.24-1.79 4.8-1.59 1.57.21 2.99 1.14 4.27 2.79l6.04 7.81c1.28 1.65 1.82 3.26 1.63 4.83s-1.11 2.99-2.74 4.25l-4.9 3.79-4.86-6.29 3.58-2.77q.945-.735.21-1.68l-2.8-3.62c-.49-.64-1.05-.71-1.68-.22l-13.96 10.8q-.945.735-.21 1.68l2.8 3.62c.49.63 1.05.71 1.68.22l4.11-3.18 4.86 6.29-5.43 4.2q-2.46 1.89-4.8 1.59c-1.57-.21-2.99-1.14-4.27-2.79z" class="cls-20"/><path id="path282" d="M170.73 472.26c-1.7-1.21-2.69-2.6-2.95-4.15-.27-1.56.19-3.18 1.39-4.86l12.18-17.09q1.8-2.52 4.14-2.91c1.56-.25 3.19.22 4.89 1.44l8.04 5.73c1.7 1.21 2.68 2.6 2.95 4.15.27 1.56-.2 3.18-1.39 4.86l-12.18 17.09q-1.8 2.52-4.14 2.91c-1.56.25-3.19-.22-4.89-1.44zm5.88-5.77c-.46.65-.37 1.2.29 1.67l3.73 2.66c.65.47 1.21.38 1.67-.27l10.24-14.38c.46-.65.36-1.2-.29-1.67l-3.73-2.66c-.65-.47-1.21-.37-1.67.27z" class="cls-20"/><path id="path284" d="m226.29 463.05 7.57 2.43-10.2 31.8-7.11-2.28-2.98-19.09-5.27 16.44-7.57-2.43 9.1-28.39-.51-3.92 8.72 2.79 2.98 19.09z" class="cls-20"/><path id="path286" d="M259 466.66q3.135.03 4.8 1.71c1.11 1.12 1.66 2.72 1.65 4.78l-.16 20.51c-.02 2.07-.59 3.65-1.72 4.76-1.13 1.1-2.74 1.65-4.83 1.63l-16.38-.13.23-29.81-1.66-3.59 18.06.14zm-1.64 25.27.13-17.17c0-.79-.39-1.2-1.19-1.2l-5.78-.04-.15 19.56 5.78.05c.8 0 1.21-.39 1.21-1.18z" class="cls-20"/><path id="path288" d="M289.32 495.65c-1.99.62-3.69.56-5.09-.17s-2.41-2.09-3.02-4.06l-6.19-20.06c-.61-1.98-.54-3.66.2-5.06.75-1.39 2.12-2.4 4.11-3.02l9.44-2.91c1.99-.62 3.69-.56 5.1.17 1.4.73 2.41 2.09 3.02 4.06l6.19 20.06c.61 1.98.54 3.66-.2 5.06-.75 1.4-2.12 2.4-4.11 3.02l-9.44 2.91zm-1.01-8.17c.23.76.74 1.02 1.5.78l4.37-1.35c.77-.24 1.03-.73.8-1.49l-5.21-16.86c-.23-.76-.74-1.02-1.5-.78l-4.37 1.35c-.77.24-1.03.74-.8 1.49z" class="cls-20"/><path id="path290" d="m340.69 469.3-6.75 4.63-8.83-6.49-2.98 2.04 5.85 8.54-6.55 4.5-16.86-24.59-3.41-2 14.9-10.22q2.58-1.77 4.92-1.35c1.56.28 2.92 1.28 4.09 2.98l5.75 8.38c1.69 2.47 1.88 4.71.58 6.72l9.32 6.86zm-22.48-5.52 4.77-3.27c.66-.45.77-1.01.32-1.66l-3.86-5.63c-.45-.66-1.01-.76-1.67-.3l-4.77 3.27z" class="cls-20"/><path id="path292" d="m348.07 453.87-3.46-2.77 4.97-6.2 2.16 1.73c.62.5 1.18.43 1.68-.19l3.01-3.76c.5-.63.44-1.19-.18-1.69l-2.9-2.33c-.57-.46-1.14-.46-1.7 0l-6.69 5.38q-4.59 3.675-9.09.06l-4.17-3.34c-1.61-1.29-2.5-2.72-2.67-4.3q-.255-2.355 1.71-4.8l6.17-7.71c1.3-1.63 2.74-2.53 4.31-2.72 1.57-.18 3.16.37 4.78 1.67l3.13 2.5-4.97 6.2-1.82-1.46c-.62-.5-1.18-.43-1.68.19l-2.86 3.57c-.5.63-.44 1.19.18 1.69l2.38 1.91c.57.46 1.14.46 1.7 0l6.69-5.38q4.59-3.675 9.09-.06l4.69 3.76c1.61 1.29 2.5 2.73 2.67 4.3q.255 2.355-1.71 4.8l-6.32 7.9c-1.31 1.63-2.74 2.54-4.31 2.72s-3.16-.37-4.78-1.67z" class="cls-20"/></g><path id="polyline296" d="m128.39 398.78 11.45-8.78-10.58-8.11 10.58-8.11-10.58-8.11 10.58-8.11-10.58-8.11 10.58-8.11-10.58-8.11" class="cls-16"/><path id="polyline298" d="M378.95 398.78 367.5 390l10.58-8.11-10.58-8.11 10.58-8.11-10.58-8.11 10.58-8.11-10.58-8.11 10.58-8.11" class="cls-16"/><g id="g362"><path id="path300" d="M286.38 410.56c-2.48-8.62-8.16-15.75-16.01-20.1-4.98-2.75-10.58-4.21-16.21-4.21-3.14 0-6.27.44-9.32 1.32-8.62 2.48-15.75 8.16-20.09 16.01s-5.37 16.91-2.89 25.53 8.16 15.75 16.01 20.09c4.98 2.75 10.58 4.21 16.21 4.21 3.14 0 6.27-.44 9.32-1.32 8.62-2.48 15.75-8.16 20.09-16.01s5.37-16.91 2.89-25.53z" class="cls-21"/><g id="g306"><path id="path302" d="M265.18 422.7c-.23-.3-15.13-19.7-42.34-19.7-3.77 0-7.67.37-11.57 1.11l-2.43.46-2.22-28.55v-.12a13.33 13.33 0 0 0-13.34-13.7c-.36 0-.71.01-1.07.04l-.84.07c-5.83.47-11.07 4.02-13.67 9.26l-2.65 5.34-2.13-1.63c-9.38-7.15-10.74-13.52-10.05-23.5.7-10.03 6.32-19.17 14.66-23.85 11.65-6.54 21.66-7.52 26.59-7.52.4 0 .77 0 1.09.02 1.42-1.91 4.26-5.14 9.13-8.3 6.27-4.06 17.49-8.91 35.3-8.91.65 0 1.3 0 1.97.02 17.32.34 32.19 4.34 41.86 11.26.78.56 19.03 13.71 23.15 23.59l1.74 4.17-14.86-4.02c5.83 5.43 13.63 14.21 19.95 26.74l1.62 3.21h-12.22c4.82 6.91 14.53 23.37 17.19 46.87l.5 4.4-3.82-2.24c-.13-.07-12.88-7.45-28.06-7.45-11.84 0-21.95 4.42-30.07 13.12l-1.81 1.94-1.58-2.13z" class="cls-17"/><path id="path304" d="M249.64 305.43c.63 0 1.28 0 1.92.02 18.33.36 32.12 4.77 40.62 10.85 0 0 18.47 13.23 22.39 22.64l-20.68-5.59s16.3 10.29 27.57 32.62h-11.2l-1.84.03s15.94 18.64 19.41 49.31c0 0-13.18-7.75-29.18-7.75-10.32 0-21.81 3.22-31.69 13.83 0 0-15.31-20.59-44.12-20.59-3.76 0-7.76.35-11.98 1.15l-.41-5.28-1.61-20.69A15.56 15.56 0 0 0 193.27 360c-.42 0-.83.02-1.25.05l-.84.07c-6.64.54-12.51 4.51-15.47 10.48l-1.46 2.94c-8.26-6.3-9.87-11.72-9.18-21.58.65-9.3 5.83-17.75 13.53-22.08 11.29-6.34 20.95-7.23 25.51-7.23.99 0 1.73.04 2.21.08.85-1.33 3.56-5.05 9.22-8.71 6.09-3.95 16.88-8.55 34.1-8.55m0-4.47c-18.35 0-29.98 5.04-36.5 9.26-4.44 2.88-7.31 5.84-9 7.92h-.02c-5.15 0-15.59 1.01-27.68 7.8-8.98 5.04-15.03 14.86-15.78 25.63-.72 10.28.84 17.73 10.91 25.42l4.27 3.25 2.39-4.8 1.46-2.94c2.26-4.55 6.8-7.63 11.86-8.03l.84-.07c.3-.02.6-.04.89-.04 2.87 0 5.59 1.09 7.67 3.06a11.13 11.13 0 0 1 3.47 8.37v.23l.01.23 1.61 20.69.41 5.28.38 4.92 4.85-.91c3.77-.71 7.53-1.07 11.16-1.07 26.11 0 40 18.05 40.58 18.82l3.18 4.22 3.61-3.85c7.68-8.24 17.26-12.42 28.45-12.42 14.53 0 26.81 7.07 26.94 7.14l7.63 4.45-.99-8.77c-2.34-20.64-10.03-36-15.29-44.41h11.71l-3.24-6.42c-4.54-8.99-9.83-16.11-14.66-21.48l2.66.72 8.72 2.36-3.47-8.33c-4.28-10.27-21.9-23.1-23.9-24.53-10.04-7.18-25.35-11.33-43.11-11.68-.68-.01-1.35-.02-2.01-.02z" class="cls-21"/></g><path id="path308" d="M172.3 362.69s.95-14.57 20.06-17.22l46.07-.59s-6.68-4.65-18.01-6.04c0 0 2.38-7.49-3.03-10.66s-12.65 1.77-12.65 1.77-37.52-4.02-32.45 32.73z" class="cls-21"/><path id="path310" d="M221.43 326.18s6.62 2.34 20.93-4.03 27.63-3.43 33.43-2.59c0 0-11.17-11.61-34.13-7.96-22.96 3.64-27.73 12.2-27.73 12.2l7.49 2.38z" class="cls-1"/><path id="path312" d="M216.47 325.95s1.73-6.06 17.68-9.73c0 0-9.99 5.09-12.55 11.26" class="cls-17"/><path id="path314" d="m221.71 350.12-29.72.96s32.39 4.65 46.51 5.29l-3.77-2.48c-3.98-2.62-8.46-3.92-13.02-3.77" class="cls-21"/><path id="path316" d="M251.87 335.17s10.06-1.27 16.58 3.11c0 0-2.39-5.37-7.28-7.05 0 0 8.51-.73 14.84 8 0 0-2.01-13.86-18.34-14.59 0 0 .99 7.59-5.8 10.52z" class="cls-1"/><path id="path318" d="M241.67 311.6c-22.96 3.64-27.73 12.2-27.73 12.2l3.59 1.14c10.2-7.38 29.47-15.68 58.26-5.38 0 0-11.17-11.61-34.13-7.96z" class="cls-20"/><path id="path320" d="M208.87 333.03s1.9-2.58 5.73-5.81c-4.81-.7-9.85 2.73-9.85 2.73s-37.52-4.02-32.45 32.73c0 0-2.78-32.01 36.57-29.66z" class="cls-20"/><path id="path322" d="M208.87 333.03s7.25-5.68 8.35 5.85c0 0-3.03-4.73-6.52-3.13s-1.83-2.71-1.83-2.71z" class="cls-17"/><path id="path324" d="m238.42 329.01 12.43-3.53s-1.79 13.16-12.43 3.53" class="cls-21"/><path id="path326" d="M263.61 344.05c-9.32-7.15-20.29-3.67-30.66-13.61 0 0-3.57 1.37-5.86.35 0 0 3.1 5.8 8.86 7.59s22.79 6.53 20.05 22.01c-4.03-6.78-10.68-9.16-16.06-9.89 5.93 3.77 12.48 11.14 5.23 23.63 0 0 17.47-2.98 17.37-23.28 0 0 4.2 7.63 5.31 15.53 0 0 5.07-15.17-4.26-22.32z" class="cls-1"/><path id="path328" d="M245.18 374.12s15.55-5.22 17.37-23.28c0 0 4.76 24.5-17.37 23.28" class="cls-18"/><path id="path330" d="M214.32 361.29s13.22 6.4 11.09 21.06c0 0 14.14-21.83-11.09-21.06" class="cls-1"/><g id="g336"><path id="polygon332" d="m289.95 339.59.01-.02-.03.01z" class="cls-18"/><path id="path334" d="m302.81 370.8-10.18-11.91 15.85-.27c-8.96-12.79-18.43-18.97-18.55-19.04l6.78 13.66-20.7 1.76s6.96 4.28 11.05 15.75c2.84 7.94-4.35 15.85-12.55 13.88l-11.53-2.77c-19.45-4.29-33.37 9.63-33.37 9.63 42.77-15.35 59.43 9.55 59.43 9.55 3.11-.57 6.32-.86 9.61-.86 7.29 0 14.03 1.41 19.48 3.1-5.15-20.22-15.22-32.35-15.33-32.48z" class="cls-18"/></g><g id="g358"><path id="path338" d="M286.38 410.56s-5.39-18.27-22.27-16.59 14.42 21.81 14.42 21.81" class="cls-21"/><circle id="circle340" cx="254.68" cy="419.84" r="26.92" style="stroke-miterlimit:10;stroke:#2e0003;fill:#2e0003;stroke-width:3.8px"/><circle id="circle342" cx="254.31" cy="418.54" r="25.57" style="stroke-miterlimit:10;stroke:#2e0003;fill:#bf5500;stroke-width:3.26px"/><circle id="circle344" cx="253.11" cy="414.38" r="21.24" class="cls-21"/><ellipse id="ellipse346" cx="248.76" cy="399.68" class="cls-20" rx="10.02" ry="5.91" transform="rotate(-16.04 248.841 399.762)"/><path id="line348" d="m247.24 393.97 14.13 49.15" class="cls-3"/><circle id="circle350" cx="254.31" cy="418.54" r="25.57" class="cls-3"/><path id="path352" d="M261.37 443.12c5.96-1.71 10.81-5.4 14.05-10.15-3.28-7.95-12.08-12.33-20.53-9.9-8.09 2.33-13.14 10.11-12.29 18.21a25.46 25.46 0 0 0 18.77 1.84z" class="cls-3"/><path id="path354" d="M281.18 415.15c-8.46-1.89-18.35-1.62-28.35 1.26-9.33 2.68-17.36 7.23-23.4 12.78 4.84 13.1 19.04 20.45 32.68 16.52 13.37-3.85 21.45-17.15 19.07-30.56z" class="cls-3"/><path id="path356" d="M229.62 411.86c4.96 1.02 13.2.28 22.11-2.28s16.29-6.32 19.94-9.81c-6.35-5.86-15.52-8.36-24.43-5.8s-15.35 9.55-17.62 17.89z" class="cls-3"/></g><path id="path360" d="M311.5 402.63s-7.4-26.09-17.12-29.95c0 0 9.12 14.77 4.46 29.21" class="cls-17"/></g></g></svg>