<svg xmlns="http://www.w3.org/2000/svg" xmlns:xlink="http://www.w3.org/1999/xlink" id="Layer_1" width="539.9" height="569.1" version="1.1"><defs id="defs5133"><linearGradient id="linear-gradient" x1="297.5" x2="297.5" y1="451.9" y2="66.9" gradientUnits="userSpaceOnUse"><stop id="stop5095" offset="0" stop-color="#f2e9d2"/><stop id="stop5097" offset=".1" stop-color="#e7e2cd"/><stop id="stop5099" offset=".2" stop-color="#c9cfc3"/><stop id="stop5101" offset=".3" stop-color="#99b1b1"/><stop id="stop5103" offset=".5" stop-color="#588799"/><stop id="stop5105" offset=".7" stop-color="#236686"/><stop id="stop5107" offset="1" stop-color="#226586"/></linearGradient><linearGradient id="linear-gradient-2" x1="306.6" x2="306.6" y1="288.5" y2="167.4" gradientUnits="userSpaceOnUse"><stop id="stop5113" offset="0" stop-color="#f2e9d2"/><stop id="stop5115" offset=".1" stop-color="#dfddcb"/><stop id="stop5117" offset=".2" stop-color="#a6b8b6"/><stop id="stop5119" offset=".4" stop-color="#769aa5"/><stop id="stop5121" offset=".6" stop-color="#528397"/><stop id="stop5123" offset=".8" stop-color="#37728d"/><stop id="stop5125" offset=".9" stop-color="#276888"/><stop id="stop5127" offset="1" stop-color="#226586"/></linearGradient><linearGradient xlink:href="#linear-gradient-2" id="linear-gradient-3" x1="219.5" x2="219.5" y2="202.1"/><linearGradient xlink:href="#linear-gradient-2" id="linear-gradient-4" x1="377.9" x2="377.9" y2="225.2"/><linearGradient xlink:href="#linear-gradient-2" id="linear-gradient-5" x1="417.5" x2="417.5" y2="191.6"/><linearGradient xlink:href="#linear-gradient-2" id="linearGradient11903" x1="306.6" x2="306.6" y1="288.5" y2="167.4" gradientUnits="userSpaceOnUse"/><clipPath id="clippath"><path id="path5110" fill="none" d="M159.8 285.4v44.3c0 67.2 55 122.2 122.2 122.2h31c67.1 0 122.1-55 122.1-122.2v-44.3z" style="fill:none"/></clipPath><style id="style5093">.cls-2,.cls-3{fill:none}.cls-2{stroke:#f2e9d2}.cls-2,.cls-3{stroke-linecap:round;stroke-linejoin:round}.cls-12{stroke:#04a99b;stroke-width:2.56px}.cls-12,.cls-13{fill:#04a99b}.cls-12{stroke-miterlimit:10}.cls-15{fill:#f2e9d2}.cls-16{fill:#043d5d}.cls-2{stroke-width:11.87px}.cls-3{stroke:#216586;stroke-width:14.84px}</style></defs><g id="g5433" transform="translate(-29 -16)"><g id="g5395"><path id="path5137" fill="#f2e9d2" stroke="#f2e9d2" stroke-miterlimit="10" stroke-width="8.3" d="M458.5 20.1h-322c-8 0-14.6 6.5-14.6 14.5v299.5c0 87.5 71.2 158.7 158.7 158.7h33.8c87.5 0 158.6-71.2 158.6-158.7V34.6c0-8-6.5-14.5-14.5-14.5z" style="stroke-width:8.31px;fill:#f2e9d2;stroke-miterlimit:10;stroke:#f2e9d2"/><path id="path5139" fill="#043d5d" stroke="#043d5d" stroke-linecap="round" stroke-linejoin="round" stroke-width="13.5" d="M75.7 95.4H375c79.6 0 144.1 64.6 144.1 144.1v33.8c0 79.6-64.5 144.2-144 144.2H75.6Z" style="stroke-width:13.51px;stroke:#043d5d;fill:#043d5d;stroke-linecap:round;stroke-linejoin:round" transform="rotate(90 297.5 256.4)"/><rect id="rect5141" width="275.3" height="384.9" x="159.8" y="66.9" fill="url(#linear-gradient)" stroke="#f2e9d2" stroke-linecap="round" stroke-linejoin="round" stroke-width="6.8" rx="122.2" ry="122.2" style="stroke-width:6.79px;stroke-linecap:round;stroke-linejoin:round;stroke:#f2e9d2;fill:url(#linear-gradient)"/><path id="path5143" fill="#04a99b" d="M159.8 285.4v44.3c0 67.2 55 122.2 122.2 122.2h31c67.1 0 122.1-55 122.1-122.2v-44.3z" class="cls-13"/><g id="g5161" clip-path="url(#clippath)" style="clip-path:url(#clippath)"><g id="g5159"><path id="path5145" fill="none" stroke="#216586" stroke-linecap="round" stroke-linejoin="round" stroke-width="14.8" d="M159.8 340.2c18.4 11.2 40 18.4 61.4 20.7 18.8 2 38-.2 55.4-8 25.8-11.6 47.5-37 76-43.3 30.7-6.9 61.5 9.2 82.5 30.6" class="cls-3"/><path id="path5147" fill="none" stroke="#216586" stroke-linecap="round" stroke-linejoin="round" stroke-width="14.8" d="M159.8 310.5c18.4 11.2 40 18.4 61.4 20.7 18.8 2 38-.2 55.4-8 25.8-11.5 47.5-37 76-43.3 30.7-6.9 61.5 9.2 82.5 30.6" class="cls-3"/><path id="path5149" fill="none" stroke="#216586" stroke-linecap="round" stroke-linejoin="round" stroke-width="14.8" d="M159.8 280.9c18.4 11.1 40 18.3 61.4 20.6 18.8 2 38-.2 55.4-8 25.8-11.5 47.5-36.9 76-43.3 30.7-6.9 61.5 9.2 82.5 30.7" class="cls-3"/><path id="path5151" fill="none" stroke="#216586" stroke-linecap="round" stroke-linejoin="round" stroke-width="14.8" d="M159.8 370c18.4 11 40 18.3 61.4 20.6 18.8 2 38-.2 55.4-8 25.8-11.6 47.5-37 76-43.3 30.7-7 61.5 9.2 82.5 30.6" class="cls-3"/><path id="path5153" fill="none" stroke="#216586" stroke-linecap="round" stroke-linejoin="round" stroke-width="14.8" d="M159.8 399.6c18.4 11.1 40 18.4 61.4 20.7 18.8 2 38-.3 55.4-8 25.8-11.6 47.5-37 76-43.3 30.7-7 61.5 9.2 82.5 30.6" class="cls-3"/><path id="path5155" fill="none" stroke="#216586" stroke-linecap="round" stroke-linejoin="round" stroke-width="14.8" d="M159.8 429.3c18.4 11.1 40 18.3 61.4 20.6 18.8 2 38-.2 55.4-8 25.8-11.5 47.5-36.9 76-43.3 30.7-6.9 61.5 9.2 82.5 30.7" class="cls-3"/><path id="path5157" fill="none" stroke="#216586" stroke-linecap="round" stroke-linejoin="round" stroke-width="14.8" d="M159.8 459c18.4 11.1 40 18.3 61.4 20.6 18.8 2 38-.2 55.4-8 25.8-11.5 47.5-36.9 76-43.3 30.7-6.9 61.5 9.2 82.5 30.7" class="cls-3"/></g></g><path id="polygon5163" fill="#043d5d" stroke="#043d5d" stroke-linecap="round" stroke-linejoin="round" stroke-width="7.9" d="M408.8 240.1h-10.6v23.1h-12.5v-43.4h-12.6v-20.6h-15.2v47.7h-15.2V210h-28.4v-47.7l-8.6-12.5H278l-9.3 15.8v64.8h-40.6v-34.1h-21.2v64.8h-16.1v-40.2h-11v-37.6h-20v102.1h275.3V184.1h-26.3z" style="stroke:#043d5d;stroke-width:7.92px;fill:#043d5d;stroke-linecap:round;stroke-linejoin:round"/><path id="line5165" fill="#f2e9d2" stroke="url(#linearGradient11903)" stroke-linecap="round" stroke-linejoin="round" stroke-width="6.8" d="M306.6 170.8v114.3" style="stroke:url(#linear-gradient-2);fill:#f2e9d2;stroke-width:6.79px;stroke-linecap:round;stroke-linejoin:round"/><path id="line5167" fill="#f2e9d2" stroke="url(#linear-gradient-3)" stroke-linecap="round" stroke-linejoin="round" stroke-width="6.8" d="M219.5 205.5v79.6" style="stroke:url(#linear-gradient-3);fill:#f2e9d2;stroke-width:6.79px;stroke-linecap:round;stroke-linejoin:round"/><path id="line5169" fill="#f2e9d2" stroke="url(#linear-gradient-4)" stroke-linecap="round" stroke-linejoin="round" stroke-width="6.8" d="M377.9 228.6v56.5" style="stroke:url(#linear-gradient-4);fill:#f2e9d2;stroke-width:6.79px;stroke-linecap:round;stroke-linejoin:round"/><path id="line5171" fill="#f2e9d2" stroke="url(#linear-gradient-5)" stroke-linecap="round" stroke-linejoin="round" stroke-width="6.8" d="M417.5 194.9v90.2" style="stroke:url(#linear-gradient-5);fill:#f2e9d2;stroke-width:6.79px;stroke-linecap:round;stroke-linejoin:round"/><path id="line5173" fill="none" stroke="#f2e9d2" stroke-linecap="round" stroke-linejoin="round" stroke-width="11.9" d="M159.8 285.4h275.3" class="cls-2"/><rect id="rect5175" width="275.3" height="384.9" x="159.8" y="66.9" fill="none" stroke="#f2e9d2" stroke-linecap="round" stroke-linejoin="round" stroke-width="11.9" class="cls-2" rx="122.2" ry="122.2"/><g id="g5393"><path id="path5177" fill="#043d5d" d="M397.2 311.6v-.1l-.1-1.3-.1-.3-.4-1-.3-.5c-8.5-14.1-20.6-47.7-25.5-62l11-3.8a5.8 5.8 0 0 0 4-6.2 7 7 0 0 0-.8-3.5c-12.7-22.3-12.5-56.6-12.5-57-.2-28.6-9.5-50.6-27.6-65.2a81 81 0 0 0-49.6-17c-30.8 0-41.8 18.7-42.2 19.5l-2.7 4.6-.2.5-.6.3-5.4-2A5.8 5.8 0 0 0 239 127a20.5 20.5 0 0 0-2.7 4.8l-14.4 1.8a19 19 0 0 0-13.3 6c-4.4 4.7-6.3 11.5-5.6 20.1a38 38 0 0 0 1.7 16.4 21 21 0 0 0 14.4 14.1l.4.1 5 5.1a15.6 15.6 0 0 0-4.1 4.4 15 15 0 0 0-.6 14c2.5 5.7 6.3 9.6 11.2 11.5a91 91 0 0 0-2.8 15.8c-4.4-.9-9.9-1.2-15.7.6-8 2.5-26.3 9.4-25.4 20.1a9 9 0 0 0 .4 3.4c.8 2.9 3.2 4.5 5.2 5.8l.9.7c2.8 2.6 6 4.4 9 6.1 2.2 1.3 4.3 2.5 6 4 3 2.4 6 6 9.4 11a74.3 74.3 0 0 1 12.6 43.5c0 9.1-1.1 18.5-2.2 28.6l-1.7 17.4-.5 9.3-.2 5.4v1.4c0 39.4 34.7 71.5 77.3 71.5 42.5 0 77.2-32.1 77.2-71.6V397l-2.5-82 11.8 3.5a5.8 5.8 0 0 0 7.4-6.2v-.6z" class="cls-16"/><g id="g5183"><path id="polyline5179" fill="#f2e9d2" d="m220.6 184.5 9.9 10 2-15.1" class="cls-15"/><path id="path5181" fill="#043d5d" d="M230.5 196c-.3 0-.7-.2-1-.5l-9.9-10c-.5-.5-.5-1.4 0-2 .6-.5 1.5-.5 2 0l7.9 8 1.6-12.3c0-.8.8-1.3 1.5-1.2.8 0 1.4.8 1.3 1.5l-2 15.2a1.4 1.4 0 0 1-1.4 1.3z" class="cls-16"/></g><g id="g5189"><path id="polyline5185" fill="#f2e9d2" d="m237.5 196.6 2.2-13.4 8.1 13.4" class="cls-15"/><path id="path5187" fill="#043d5d" d="M237.5 198h-.2c-.8-.2-1.3-.9-1.2-1.7l2.2-13.3c.1-.6.6-1 1.2-1.2.5-.1 1.1.2 1.4.7l8.1 13.3a1.4 1.4 0 0 1-2.4 1.5l-6.1-10-1.6 9.5c-.1.7-.7 1.2-1.4 1.2z" class="cls-16"/></g><g id="g5195"><path id="path5191" fill="#f2e9d2" d="M222.3 139.3s-15.4-.3-13.5 20.4c0 0-3 20.8 11.8 24.8 0 0 2.5-2 15.9-6.5s30-8.3 30 6.5-23.5 11.7-29 12c-5.5.4-16.8 4.5-12.4 14.8 11.1 25.8 47.7-9.2 57-19.5a118 118 0 0 0 9.6-12.1c21.4-31.1 10.6-51.5 0-57.9a36 36 0 0 0-17.8-4.3 40.5 40.5 0 0 0-18.4 4.6c-5.2 2.5-11 5.7-13.6 11-.2.5-1.5 3.9-1.9 4l-17.7 2.2z" class="cls-15"/><path id="path5193" fill="#043d5d" d="M238 223c-1 0-2-.1-2.8-.3-5.5-.9-9.6-4.4-12.2-10.4-2.2-5-1-8.6.3-10.8 3.2-5.2 10.6-7 14-7.3h3.8c5.7.2 16.3.4 20.8-4a7.5 7.5 0 0 0 2.2-5.6c0-3.2-.8-5.4-2.6-6.7-5.5-4-19.6.8-24.2 2.3-12.4 4.1-15 6.1-15.2 6.2-.6.5-1.3.6-2 .4-13.2-3.6-14.7-19.1-13.7-27.1-.6-7.8 1-13.8 4.7-17.8 4.3-4.6 9.9-5 11-5l16.6-2a41 41 0 0 0 1.1-2.8c3-6 9-9.4 14.6-12.1a43 43 0 0 1 19.5-4.8 38 38 0 0 1 19 4.6c6.3 3.8 11 10.6 12.7 18.8 1.9 8.7 1.3 23.1-12 42.4-3 4.4-6.2 8.5-9.7 12.4-1.2 1.3-27 29.6-46 29.6zm.7-24h-1c-3 .1-8.4 1.6-10.4 5-1.1 1.7-1 3.8 0 6.4 2 4.5 4.8 7 8.6 7.7 13.8 2.3 36.8-19.4 44.5-27.9a123 123 0 0 0 9.4-11.9c12.3-17.9 12.9-31 11.2-38.8a24.3 24.3 0 0 0-10.5-15.7 33.4 33.4 0 0 0-16.7-4 37.8 37.8 0 0 0-17.3 4.4c-4.8 2.4-10.2 5.3-12.5 10 0 0 0 .3-.2.5-1.1 2.9-1.8 4.4-3.5 4.7l-17.7 2.2h-.4s-4.5 0-7.7 3.5c-2.8 3-4 8-3.4 14.4v.6s-.6 5 .4 10.2c1.2 6.1 4.2 10 8.8 11.7 1.8-1 6-3.1 15.5-6.3 9.8-3.2 21.9-6.4 28.5-1.6 3 2.2 4.5 5.7 4.5 10.4 0 3.7-1.2 6.7-3.6 9-5.9 5.8-17.4 5.6-24.2 5.4h-2.3z" class="cls-16"/></g><path id="path5197" fill="#04a99b" d="M257.2 142.3s-6.4-6 .9-13.8l14.6 5.3" class="cls-13"/><path id="line5199" fill="#04a99b" d="m272.7 133.8-12.1 6" class="cls-13"/><g id="g5205"><path id="path5201" fill="#f2e9d2" d="M374.6 398.2c0 36.3-32 65.8-71.4 65.8-39.4 0-71.4-29.5-71.4-65.8l.1-5.2.6-9c2.6-34.2 10.8-64-9.7-94.6-3-4.3-6.5-8.9-10.5-12.2-4.6-3.8-10.4-5.8-14.8-9.9-1.1-1-4.1-2.5-4.5-4-2-6.5 16.6-13.4 21.2-14.8 6.7-2 13.3-.8 19.8 1.5l5.2-34.5 36.4-21 23-44.8-21.5-27-21.7-.6 2.7-4.6s9.4-16.6 37.2-16.6c27.8 0 71 16.3 71.4 76.4 0 0-.4 35.8 13.2 59.8l-17 6s17 50.9 28.5 69.7l-19.6-5.8z" class="cls-15"/><path id="path5203" fill="#043d5d" d="M303.2 466.3c-40.7 0-73.8-30.5-73.8-68l.2-5.4c0-2.9.3-5.8.5-9l1.7-17.4c3-27.5 5.5-51.2-11-75.8a53 53 0 0 0-10-11.7c-2-1.6-4.2-3-6.6-4.3a43.9 43.9 0 0 1-8.3-5.7l-1.3-1c-1.6-1-3.4-2.2-3.9-4-2.7-9.2 18.5-16.4 22.8-17.7 6.6-2.1 13-1 18.6.6l4.8-31.7c0-.7.5-1.3 1.1-1.7l35.8-20.7 22-42.8-19.8-25-20.6-.5a2.4 2.4 0 0 1-2-3.6l2.7-4.6c.3-.7 10.3-17.7 39.2-17.7 8.3 0 29.4 1.5 47.5 16.1 17.2 14 26 35 26.2 62.6 0 .4-.2 35.5 13 58.7a2.4 2.4 0 0 1-1.3 3.4l-14.7 5.1c3.4 10 17.6 51 27.4 67a2.4 2.4 0 0 1-2.7 3.6l-16.4-5 2.7 88v.2c0 37.5-33 68-73.8 68zm-108-203.7c.3.4 1.4 1.2 2 1.6l2 1.4c2 2 4.6 3.5 7.4 5 2.4 1.4 4.9 2.9 7.2 4.7 3.6 3 7.2 7.2 11 12.8 17.4 26 14.6 51.7 11.7 78.9a572 572 0 0 0-2.2 26l-.1 5.3c0 34.9 31 63.3 69 63.3s69-28.4 69-63.3l-2.7-91.3a2.4 2.4 0 0 1 3-2.3l14 4.2a592.1 592.1 0 0 1-25.8-65.1c-.4-1.2.3-2.6 1.5-3l14.3-5c-12.4-24-12.2-57-12.2-58.5-.4-54.6-37.4-74-69-74-26.2 0-35 15.2-35.2 15.4l-.7 1.1 17.8.5a2 2 0 0 1 1.7.9l21.5 27c.5.8.6 1.8.2 2.6l-23 44.8c-.2.4-.5.8-.9 1L241.3 217l-5 33.3c-.1.7-.5 1.3-1.1 1.7-.6.3-1.3.4-2 .2a29.4 29.4 0 0 0-18.3-1.4c-9.7 3-20.3 8.8-19.7 11.8z" class="cls-16"/></g><g id="g5211"><path id="path5207" fill="#04a99b" d="M294.7 309.2a2 2 0 0 1-2-1.5c-.1-.4-2.5-9-11.3-9a2 2 0 1 1 0-4.2c9.6 0 14.2 8 15.3 12.1a2 2 0 0 1-2 2.6z" class="cls-13"/><path id="path5209" fill="#04a99b" d="M295.1 309.2a2 2 0 0 1-2-2.6c1.1-4.2 5.7-12 15.3-12a2 2 0 1 1 0 4c-8.7 0-11.1 8.7-11.2 9a2 2 0 0 1-2 1.6z" class="cls-13"/></g><g id="g5217"><path id="path5213" fill="#04a99b" d="M327.2 299.9a2 2 0 0 1-2-1.6c0-.4-2.5-9-11.2-9a2 2 0 1 1 0-4.2c9.6 0 14.2 8 15.3 12.2a2 2 0 0 1-2 2.6z" class="cls-13"/><path id="path5215" fill="#04a99b" d="M327.7 299.9a2 2 0 0 1-2-2.6c0-.1.7-2.7 2.6-5.4a2 2 0 1 1 3.4 2.4c-1.5 2-2 4-2 4a2 2 0 0 1-2 1.6z" class="cls-13"/></g><g id="g5223"><path id="path5219" fill="#04a99b" d="M253.4 408.6a2 2 0 0 1-2-1.6c-.1-.4-2.5-9-11.3-9a2 2 0 1 1 0-4.1c9.6 0 14.2 7.9 15.3 12a2 2 0 0 1-2 2.7z" class="cls-13"/><path id="path5221" fill="#04a99b" d="M253.8 408.6a2 2 0 0 1-2-2.6c1.1-4.2 5.7-12.1 15.3-12.1a2 2 0 1 1 0 4.1c-8.7 0-11.1 8.7-11.2 9a2 2 0 0 1-2 1.6z" class="cls-13"/></g><g id="g5229"><path id="path5225" fill="#04a99b" d="M356 337a2 2 0 0 1-2.1-1.5c-.1-.4-2.5-9-11.3-9a2 2 0 1 1 0-4.2c9.7 0 14.2 8 15.3 12.1a2 2 0 0 1-2 2.6z" class="cls-13"/><path id="path5227" fill="#04a99b" d="M356.4 337h-.5a2 2 0 0 1-1.5-2.6c1-4.2 5.6-12 15.3-12a2 2 0 1 1 0 4c-8.9 0-11.3 9-11.3 9a2 2 0 0 1-2 1.6z" class="cls-13"/></g><g id="g5235"><path id="path5231" fill="#04a99b" d="M356 363.2a2 2 0 0 1-2.1-1.6c-.1-.3-2.5-9-11.3-9a2 2 0 1 1 0-4.1c9.7 0 14.2 7.9 15.3 12a2 2 0 0 1-2 2.7z" class="cls-13"/><path id="path5233" fill="#04a99b" d="M356.4 363.2h-.5a2 2 0 0 1-1.5-2.6 16 16 0 0 1 15.3-12.1 2 2 0 1 1 0 4.1c-8.9 0-11.3 9-11.3 9a2 2 0 0 1-2 1.6z" class="cls-13"/></g><g id="g5241"><path id="path5237" fill="#04a99b" d="M356 392.1a2 2 0 0 1-2.1-1.6c-.1-.3-2.5-9-11.3-9a2 2 0 1 1 0-4.1c9.7 0 14.2 7.9 15.3 12.1a2 2 0 0 1-2 2.6z" class="cls-13"/><path id="path5239" fill="#04a99b" d="M356.4 392.1h-.5a2 2 0 0 1-1.5-2.6 16 16 0 0 1 15.3-12.1 2 2 0 1 1 0 4.1c-8.9 0-11.3 9-11.3 9a2 2 0 0 1-2 1.6z" class="cls-13"/></g><g id="g5247"><path id="path5243" fill="#04a99b" d="M356 418.3a2 2 0 0 1-2.1-1.6c-.1-.4-2.5-9-11.3-9a2 2 0 1 1 0-4.2c9.7 0 14.2 8 15.3 12.2a2 2 0 0 1-2 2.6z" class="cls-13"/><path id="path5245" fill="#04a99b" d="m356.4 418.3-.5-.1a2 2 0 0 1-1.5-2.5c1-4.2 5.6-12.2 15.3-12.2a2 2 0 1 1 0 4.2c-8.9 0-11.3 8.9-11.3 9a2 2 0 0 1-2 1.6z" class="cls-13"/></g><path id="path5249" fill="#04a99b" d="M351.8 447.2a2 2 0 0 1-2-1.6c-.1-.4-2.5-9-11.3-9a2 2 0 1 1 0-4.2c9.6 0 14.2 8 15.3 12.2a2 2 0 0 1-2 2.6z" class="cls-13"/><g id="g5255"><path id="path5251" fill="#04a99b" d="M327.5 323.7a2 2 0 0 1-2-1.6c-.1-.3-2.5-9-11.3-9a2 2 0 1 1 0-4.1c9.6 0 14.2 7.9 15.3 12a2 2 0 0 1-2 2.7z" class="cls-13"/><path id="path5253" fill="#04a99b" d="M328 323.7a2 2 0 0 1-2-2.6c1-4.2 5.6-12.1 15.2-12.1a2 2 0 1 1 0 4.1c-8.7 0-11.1 8.7-11.2 9a2 2 0 0 1-2 1.6z" class="cls-13"/></g><g id="g5261"><path id="path5257" fill="#04a99b" d="M325 349.4a2 2 0 0 1-2-1.6c-.2-.4-2.6-9-11.3-9a2 2 0 1 1 0-4.1c9.6 0 14.2 7.9 15.3 12a2 2 0 0 1-2 2.7z" class="cls-13"/><path id="path5259" fill="#04a99b" d="M325.4 349.4a2 2 0 0 1-2-2.6c1-4.2 5.7-12.1 15.3-12.1a2 2 0 1 1 0 4.1c-8.8 0-11.2 8.7-11.3 9a2 2 0 0 1-2 1.6z" class="cls-13"/></g><g id="g5267"><path id="path5263" fill="#04a99b" d="M324.7 378.8a2 2 0 0 1-2-1.6c0-.4-2.5-9-11.3-9a2 2 0 1 1 0-4.2c9.7 0 14.3 8 15.3 12.2a2 2 0 0 1-2 2.6z" class="cls-13"/><path id="path5265" fill="#04a99b" d="M325.2 378.7a2 2 0 0 1-2-2.6 16 16 0 0 1 15.3-12 2 2 0 1 1 0 4c-8.8 0-11.2 8.7-11.3 9a2 2 0 0 1-2 1.6z" class="cls-13"/></g><g id="g5273"><path id="path5269" fill="#04a99b" d="M325 404.4a2 2 0 0 1-2-1.5c-.2-.4-2.6-9-11.3-9a2 2 0 1 1 0-4.2c9.6 0 14.2 8 15.3 12.2a2 2 0 0 1-2 2.6z" class="cls-13"/><path id="path5271" fill="#04a99b" d="M325.4 404.4a2 2 0 0 1-2-2.6c1-4.1 5.7-12 15.3-12a2 2 0 1 1 0 4c-8.8 0-11.2 8.7-11.3 9a2 2 0 0 1-2 1.6z" class="cls-13"/></g><g id="g5279"><path id="path5275" fill="#04a99b" d="M324.7 433.8a2 2 0 0 1-2-1.5c0-.4-2.5-9-11.3-9a2 2 0 1 1 0-4.2c9.7 0 14.3 8 15.3 12.1a2 2 0 0 1-2 2.6z" class="cls-13"/><path id="path5277" fill="#04a99b" d="M325.2 433.8a2 2 0 0 1-2-2.6 16 16 0 0 1 15.3-12.1 2 2 0 1 1 0 4.1c-8.8 0-11.2 8.7-11.3 9a2 2 0 0 1-2 1.6z" class="cls-13"/></g><g id="g5285"><path id="path5281" fill="#04a99b" d="M319.4 459.5a2 2 0 0 1-2-1.6c0-.3-2.5-9-11.2-9a2 2 0 1 1 0-4.1c9.6 0 14.2 8 15.3 12.1a2 2 0 0 1-2 2.6z" class="cls-13"/><path id="path5283" fill="#04a99b" d="M320 459.5a2 2 0 0 1-2-2.6c1-4.2 5.6-12.1 15.2-12.1a2 2 0 1 1 0 4.1c-8.8 0-11.2 8.7-11.3 9a2 2 0 0 1-2 1.6z" class="cls-13"/></g><g id="g5291"><path id="path5287" fill="#f2e9d2" d="m249 266.4 16.6 34.8s24.6-.8 26.1 30.3c0 0 25-1.6 20.6 26.3 0 0 12.6 12.2-1.1 22.3 0 0 11 22.3-11.5 25.3 0 0-7.5 14-21.8 3" class="cls-15"/><path id="path5289" fill="#f2e9d2" d="M288.4 420.2c-4 0-9.3-1.3-15.1-5.8a7.6 7.6 0 0 1 9.3-12c1.8 1.4 4.4 3 6.5 2.6 2-.4 3.6-2.5 4-3.3a7.4 7.4 0 0 1 5.6-3.8c2.6-.3 5.9-1.2 7-3.3 1.6-3-.2-8.9-1.3-11.2a7.6 7.6 0 0 1 2.3-9.4c2.1-1.5 3.2-3 3.3-4.4.2-2.5-2.2-5.6-3-6.4a7.6 7.6 0 0 1-2.2-6.6c1-6.4.3-11-2.2-13.8-3-3.3-8.6-3.8-10.5-3.8-4.2.2-7.8-3-8-7.2-.5-10.1-3.8-17-9.8-20.6a18.6 18.6 0 0 0-8.4-2.4c-3 0-5.8-1.6-7.1-4.3l-16.6-34.8a7.6 7.6 0 0 1 13.7-6.5l14.7 30.8c10.4 1.6 24.6 9.3 28 30.5 4.6.8 10.6 3 15.2 8.1a28.9 28.9 0 0 1 6.4 22.9c2.4 3.2 5.4 8.6 4.9 15.1-.2 3.2-1.4 7.4-5 11.6 1.4 5 2.6 12.8-1 19.5-2 3.9-6.3 8.6-15 10.6a21.2 21.2 0 0 1-11.8 7.5 19 19 0 0 1-3.9.4z" class="cls-15"/></g><path id="path5293" fill="#043d5d" d="M243 165.6h-.4l-14.3-4.7c-.8-.3-1.2-1-1-1.8.3-.7 1.1-1.1 1.9-1l14.3 4.7a1.4 1.4 0 0 1-.5 2.8z" class="cls-16"/><path id="path5295" fill="#043d5d" d="M244.6 157h-.1l-15-1a1.4 1.4 0 0 1 .2-3l15 1.1c.8 0 1.4.8 1.3 1.5 0 .8-.7 1.4-1.4 1.4z" class="cls-16"/><path id="path5297" fill="#043d5d" d="M229.6 151.1a1.4 1.4 0 0 1-.2-2.8l12-1.7c.8-.1 1.5.4 1.6 1.2.1.8-.4 1.5-1.2 1.6l-12 1.7h-.2z" class="cls-16"/><path id="path5299" fill="#043d5d" d="M251 147a2.4 2.4 0 0 1-1-4.5l17.5-8.8-11.1-3.9-15-5.5a2.4 2.4 0 0 1 1.5-4.5l15 5.6 16.4 5.7a2.4 2.4 0 0 1 .3 4.3L252 146.8a2 2 0 0 1-1 .3z" class="cls-16"/><path id="path5301" fill="#043d5d" d="M298.3 130.2a2.4 2.4 0 0 1-1.9-3.8c7.6-9.5 1.3-19-1.5-22.4-9.8 6.3-10.9 14.1-11 14.5a2.4 2.4 0 0 1-4.6-.5c0-.5 1.3-11.4 14.8-19.1 1-.5 2.1-.4 2.9.3 5.2 5.2 12.7 18 3.1 30.1-.4.6-1.1 1-1.8 1z" class="cls-16"/><g id="g5307"><path id="path5303" fill="#043d5d" d="M208.1 164.9s7.7-1.3 11.9-9.3-5-8.3-9.8-8" class="cls-16"/><path id="path5305" fill="#043d5d" d="M208.1 166.3c-.7 0-1.3-.5-1.4-1.2-.1-.8.4-1.5 1.2-1.6.3 0 7-1.4 10.9-8.6 1-1.8 1.1-3.1.6-4-1-1.5-4.3-2.2-9.1-1.9-.8 0-1.5-.6-1.5-1.3 0-.8.5-1.5 1.3-1.5 6.2-.4 10 .7 11.7 3.2 1 1.8 1 4-.5 6.8a19.4 19.4 0 0 1-13 10h-.2z" class="cls-16"/></g><path id="path5309" fill="#043d5d" d="m391.4 313.8-.7-.1-61.6-18.4c-1-.3-1.7-1.4-1.6-2.5 0-.8 8-79 3.9-119.6a2.4 2.4 0 0 1 4.7-.5c3.8 37.4-2.5 106.2-3.7 118.6l59.7 17.9c1.2.3 2 1.7 1.6 3-.4 1-1.3 1.6-2.3 1.6z" class="cls-16"/><path id="path5311" fill="#043d5d" d="m391.4 318-.7-.2-61.6-18.4c-1-.3-1.7-1.3-1.6-2.5 0-.7 8-79 3.9-119.6a2.4 2.4 0 0 1 4.7-.4c3.8 37.4-2.5 106.2-3.7 118.6l59.7 17.8c1.2.4 2 1.7 1.6 3-.4 1-1.3 1.6-2.3 1.6z" class="cls-16"/><path id="path5313" fill="#043d5d" d="m391.4 319.3-.7-.1-61.6-18.4c-1-.3-1.7-1.4-1.6-2.5 0-.8 8-79 3.9-119.6a2.4 2.4 0 0 1 4.7-.5c3.8 37.4-2.5 106.2-3.7 118.6l59.7 17.9c1.2.3 2 1.7 1.6 3-.4 1-1.3 1.6-2.3 1.6z" class="cls-16"/><path id="path5315" fill="#043d5d" d="M346.8 250a2.5 2.5 0 0 1-2.3-3c.2-.8 20.4-75-8.5-120.5a2.4 2.4 0 0 1 4-2.5c8.7 13.7 18.5 38.7 16 80.2a263.7 263.7 0 0 1-5.8 39.7l11.9-4.2a2.4 2.4 0 0 1 1.5 4.5l-16 5.6-.8.1z" class="cls-16"/><path id="path5317" fill="#043d5d" d="M346.8 254c-.5 0-1 0-1.4-.3-.6-.5-1-1.2-1-2v-4.1a2.4 2.4 0 0 1 4.8 0v.8l12.9-4.6a2.4 2.4 0 1 1 1.5 4.5l-16 5.6-.8.2z" class="cls-16"/><path id="path5319" fill="#043d5d" d="M346.8 255.5c-.5 0-1-.2-1.4-.5-.6-.4-1-1.1-1-1.9V249a2.4 2.4 0 0 1 4.8 0v.8l12.9-4.6a2.4 2.4 0 0 1 1.5 4.5l-16 5.6-.8.2z" class="cls-16"/><path id="path5321" fill="#043d5d" d="M329.8 260.2h-.6L309 255c-1.2-.3-2-1.5-1.7-2.7.1-1 17.2-93.5 6.8-130.8a2.4 2.4 0 1 1 4.6-1.3c4.4 16.2 4.7 43.5.6 81.2a779 779 0 0 1-7 49.6l18.2 4.6a2.4 2.4 0 0 1-.6 4.6z" class="cls-16"/><path id="path5323" fill="#043d5d" d="M288.4 415c-3.9 0-7.8-1.6-12-4.7-1-.8-1.1-2.3-.3-3.3.7-1 2.2-1.2 3.3-.5 4 3.1 7.6 4.3 10.8 3.6 4.8-1 7.4-5.8 7.4-5.8.4-.7 1-1.1 1.8-1.2 5.5-.8 9.1-2.8 10.9-6 3.4-6.4-1.2-15.9-1.2-16-.5-1-.2-2.2.7-3 3.4-2.4 5.2-5.2 5.4-8.2.4-5.5-4.5-10.4-4.6-10.4-.5-.6-.8-1.4-.7-2.1 1.4-8 .2-14.1-3.4-18.1-5.4-6-14.6-5.5-14.7-5.5-.6 0-1.2-.2-1.7-.6a3 3 0 0 1-.8-1.6c-1.3-28.3-22.7-28-23.6-28-1 0-1.8-.5-2.2-1.4l-16.6-34.7c-.6-1.2 0-2.6 1.1-3.2 1.2-.5 2.6 0 3.1 1.1l16 33.5c5.7.5 24.5 4 26.8 30.2 3.7.2 11 1.4 16 7 4.5 5 6.1 12 4.9 21 1.7 2 5.5 7 5.1 13.2-.3 4-2.2 7.5-5.8 10.5 1.4 3.6 3.9 11.8.3 18.5-2.3 4.4-6.8 7.2-13.3 8.3-1.3 2-4.6 6-9.9 7.1l-2.8.3z" class="cls-16"/><g id="g5329"><circle id="circle5325" cx="278.4" cy="396.7" r="11.5" fill="#043d5d" class="cls-16"/><path id="path5327" fill="#043d5d" d="M278.4 410.3a13.6 13.6 0 1 1 0-27.3 13.6 13.6 0 0 1 0 27.3zm0-23a9.5 9.5 0 1 0 0 18.8 9.5 9.5 0 0 0 0-18.9z" class="cls-16"/></g><path id="path5331" fill="#043d5d" d="M311.2 382.4c-1.1 0-2.1-.8-2.3-2-.2-.6-3.1-14.8-34.6-12.4a2.4 2.4 0 0 1-.4-4.8c36.4-2.7 39.5 15.8 39.6 16.5a2.4 2.4 0 0 1-2.3 2.8z" class="cls-16"/><path id="path5333" fill="#043d5d" d="M312.3 360.1c-.5 0-1-.1-1.4-.4-.2-.1-10.7-7.4-31.7 0a2.4 2.4 0 1 1-1.6-4.5c23.6-8.2 35.6.3 36 .7a2.4 2.4 0 0 1-1.3 4.2z" class="cls-16"/><path id="path5335" fill="#043d5d" d="M276.1 351.4a2.4 2.4 0 0 1-1.8-4L290 330c.9-1 2.4-1 3.4-.2 1 .9 1 2.3.1 3.3L278 350.6c-.5.5-1.1.7-1.8.7z" class="cls-16"/><path id="path5337" fill="#043d5d" d="M265.3 359a2.4 2.4 0 0 1-2.1-3.5c10.4-20.2 4.8-52 4.8-52.3a2.4 2.4 0 0 1 4.6-.9c.3 1.4 6 33.7-5.2 55.4-.4.8-1.3 1.3-2.1 1.3z" class="cls-16"/><path id="path5339" fill="#043d5d" d="m255.8 362.3-.8-.1a2.4 2.4 0 0 1-1.5-3 64.8 64.8 0 0 0 2-37.2 42.7 42.7 0 0 0-5.9-13.7 2.4 2.4 0 0 1 3.8-2.8c.6.9 15.9 21.6 4.6 55.2-.3 1-1.3 1.6-2.3 1.6z" class="cls-16"/><g id="g5345"><path id="path5341" fill="#f2e9d2" d="M238.4 220.6s-15 39.5 8.4 55.8c0 0 3-25.4 19.6-47.8" class="cls-15"/><path id="path5343" fill="#043d5d" d="M246.8 278.7c-.5 0-1-.1-1.3-.4-10.3-7.1-15.2-19.6-14-36 .8-12.2 4.6-22.1 4.7-22.5a2.4 2.4 0 0 1 4.4 1.7c-.1.3-12.7 34.2 4.5 50.5a114 114 0 0 1 19.4-44.8c.8-1 2.2-1.2 3.3-.5 1 .8 1.3 2.3.5 3.3a109.8 109.8 0 0 0-19.1 46.6 2.4 2.4 0 0 1-2.4 2.1z" class="cls-16"/></g><g id="g5351"><path id="path5347" fill="#f2e9d2" d="m288.2 263.8 3.5 26.8-47.1 19.1s-5.8-63.3 39.3-99.7" class="cls-15"/><path id="path5349" fill="#043d5d" d="M244.6 312.1a2.4 2.4 0 0 1-2.4-2.1c0-.7-5.3-65 40.3-101.8a2.4 2.4 0 0 1 3 3.6c-37.9 30.6-39 81.3-38.7 94.5l42.3-17.2-3.2-25c-.2-1.3.7-2.5 2-2.6 1.3-.2 2.5.7 2.7 2l3.4 26.8c.2 1-.4 2.1-1.4 2.5L245.5 312l-.9.1z" class="cls-16"/></g><path id="path5353" fill="#043d5d" d="M244.6 316.2c-.4 0-.9 0-1.2-.3-.7-.4-1-1-1.2-1.8 0-.7-5.3-67.8 40.3-104.6a2.4 2.4 0 0 1 3 3.7c-38 30.7-39.1 83.7-38.7 97.2l42.3-17.2-3.2-25c-.2-1.3.7-2.4 2-2.6 1.3-.2 2.5.7 2.7 2l3.4 26.8c.2 1-.4 2.1-1.4 2.5l-47.1 19.2-.9.1z" class="cls-16"/><path id="path5355" fill="#043d5d" d="M288.2 266.2c-.4 0-.9-.2-1.3-.4a2.4 2.4 0 0 1-1-2.1c0-.4 1.8-33.4 10.7-60.6l.6-1.8c8.4-25.6 11.2-34.3 11.6-45.2a2.4 2.4 0 0 1 4.7.2c-.4 11.6-3.3 20.4-11.9 46.5l-.5 1.7c-6.9 21-9.5 45.6-10.3 55.3l17.6-9.2a2.4 2.4 0 0 1 2.2 4.2l-21.3 11c-.3.3-.7.3-1.1.3z" class="cls-16"/><path id="path5357" fill="#043d5d" d="M329.8 264.3h-.6L309 259c-1.2-.3-2-1.4-1.7-2.7.1-.9 17.2-93.5 6.8-130.8a2.4 2.4 0 1 1 4.6-1.3c4.4 16.2 4.7 43.5.6 81.2a779 779 0 0 1-7 49.6l18.2 4.6a2.4 2.4 0 0 1-.6 4.6z" class="cls-16"/><path id="path5359" fill="#043d5d" d="M288.2 270.3c-.4 0-.9-.1-1.3-.4a2.4 2.4 0 0 1-1-2.1c0-.3 1.8-33.4 10.7-60.6l.6-1.7c8.4-25.7 11.2-34.3 11.6-45.3 0-1.3 1.2-2.3 2.5-2.2 1.3 0 2.3 1.1 2.2 2.4-.4 11.6-3.3 20.4-11.9 46.5l-.5 1.8c-6.9 21-9.5 45.5-10.3 55.2l17.6-9.1a2.4 2.4 0 0 1 2.2 4.1L289.3 270a2 2 0 0 1-1.1.3z" class="cls-16"/><g id="g5365"><path id="path5361" fill="#04a99b" d="M311 279.9a2 2 0 0 1-2-1.6c-.2-.3-2.6-9-11.3-9a2 2 0 1 1 0-4.1c9.6 0 14.2 7.9 15.3 12a2 2 0 0 1-2 2.7z" class="cls-13"/><path id="path5363" fill="#04a99b" d="M311.4 279.9a2 2 0 0 1-2-2.6c1-4.2 5.7-12.1 15.3-12.1a2 2 0 1 1 0 4.1c-8.8 0-11.2 8.7-11.3 9a2 2 0 0 1-2 1.6z" class="cls-13"/></g><g id="g5371"><path id="path5367" fill="#04a99b" d="M288.5 447.2a2 2 0 0 1-2-1.6c-.2-.4-2.6-9-11.3-9a2 2 0 1 1 0-4.2c9.6 0 14.2 8 15.3 12.2a2 2 0 0 1-2 2.6z" class="cls-13"/><path id="path5369" fill="#04a99b" d="m289 447.2-.6-.1a2 2 0 0 1-1.5-2.5c1.1-4.2 5.7-12.2 15.3-12.2a2 2 0 1 1 0 4.2c-8.8 0-11.2 9-11.2 9a2 2 0 0 1-2 1.6z" class="cls-13"/></g><g id="g5377"><path id="path5373" fill="#04a99b" d="M253.1 433.8a2 2 0 0 1-2-1.5c0-.4-2.5-9-11.2-9a2 2 0 1 1 0-4.2c9.6 0 14.2 8 15.3 12.1a2 2 0 0 1-2 2.6z" class="cls-13"/><path id="path5375" fill="#04a99b" d="M253.6 433.8a2 2 0 0 1-2-2.6c1-4.2 5.7-12.1 15.3-12.1a2 2 0 1 1 0 4.1c-8.8 0-11.2 8.7-11.3 9a2 2 0 0 1-2 1.6z" class="cls-13"/></g><g id="g5383"><path id="path5379" fill="#04a99b" d="M249 381.5a2 2 0 0 1-2-1.6c-.1-.3-2.5-9-11.3-9a2 2 0 1 1 0-4.1c9.7 0 14.2 8 15.3 12.1a2 2 0 0 1-2 2.6z" class="cls-13"/><path id="path5381" fill="#04a99b" d="M249.5 381.5a2 2 0 0 1-2-2.6 16 16 0 0 1 15.3-12.1 2 2 0 1 1 0 4.1c-8.8 0-11.2 8.7-11.3 9a2 2 0 0 1-2 1.6z" class="cls-13"/></g><path id="path5385" fill="#04a99b" d="M233.7 289.3a2 2 0 0 1-2-1.2c-10.2-21.3-23.3-23.5-23.5-23.5a2 2 0 0 1-1.4-3.3c3-4.2 14-5.3 16.2-5.5a2 2 0 0 1 2.2 1.9 2 2 0 0 1-1.9 2.2c-3 .3-7.1 1-10 2a48 48 0 0 1 22.2 24.4 2 2 0 0 1-1.8 3z" class="cls-13"/><path id="path5387" fill="#043d5d" d="M303.2 465c-40.7 0-73.8-30.6-73.8-68.1l.2-5.4c0-2.8.3-5.8.5-9l1.7-17.4c3-27.5 5.5-51.2-11-75.7-3.4-5.2-6.7-9-10-11.8-2-1.6-4.2-2.9-6.6-4.3a48.4 48.4 0 0 1-8.3-5.6c-.2-.3-.8-.6-1.3-1-1.6-1.1-3.4-2.3-3.9-4-2.7-9.3 18.5-16.5 22.8-17.8 6.6-2.1 13-1 18.6.6l4.8-31.7c0-.7.5-1.3 1.1-1.7l35.8-20.6 22-43-19.8-25-20.6-.4a2.4 2.4 0 0 1-2-3.5l2.7-4.6c.3-.8 10.3-17.8 39.2-17.8 8.3 0 29.4 1.6 47.5 16.2 17.2 14 26 35 26.2 62.6 0 .3-.2 35.5 13 58.6a2.4 2.4 0 0 1-1.3 3.4l-14.7 5.1c3.4 10 17.6 51 27.4 67.1a2.4 2.4 0 0 1-2.7 3.5l-16.4-4.9 2.7 88c0 37.6-33 68.2-73.8 68.2zm-108-203.8c.3.4 1.4 1.2 2 1.6l2 1.4c2 2 4.6 3.5 7.4 5 2.4 1.5 4.9 2.9 7.2 4.8 3.6 3 7.2 7.2 11 12.8 17.4 26 14.6 51.6 11.7 78.8a572 572 0 0 0-2.2 26.1l-.1 5.2c0 34.9 31 63.3 69 63.3s69-28.4 69-63.3l-2.7-91.2a2.4 2.4 0 0 1 3-2.4l14 4.2a592.1 592.1 0 0 1-25.8-65c-.4-1.3.3-2.6 1.5-3l14.3-5c-12.4-24.2-12.2-57.1-12.2-58.5-.4-54.7-37.4-74-69-74-26.2 0-35 15.2-35.2 15.3l-.6 1.2 17.7.4c.7 0 1.3.4 1.7.9l21.5 27c.5.8.6 1.8.2 2.6l-23 44.9c-.2.4-.5.7-.9 1l-35.4 20.4-5 33.3c-.1.6-.5 1.3-1.1 1.6a2 2 0 0 1-2 .2 29.4 29.4 0 0 0-18.3-1.4c-9.7 3-20.3 8.8-19.7 11.8z" class="cls-16"/><path id="path5389" fill="#043d5d" d="m299.7 407.8-.6-.1c-1.2-.3-2-1.6-1.7-2.9l.4-1.5c1.3-5.1 2.5-10 .8-14.5l-.6-1.2c-2.5-4.9-7.5-8.2-14.6-9.8-1-.2-2.2-.2-3.4-.1h-1.6a2.4 2.4 0 0 1 0-4.7h1.4c1.5-.1 3-.2 4.7.2 8.5 2 14.5 6 17.7 12.2l.8 1.7c2.2 6 .7 12-.6 17.3l-.4 1.6c-.3 1-1.3 1.8-2.3 1.8z" class="cls-16"/><path id="path5391" fill="#043d5d" d="M292.5 415a20 20 0 0 1-11.9-4.7 2.4 2.4 0 0 1 2.9-3.7c4 3 7.6 4.2 10.8 3.5 4.8-1 7.4-5.8 7.4-5.8.4-.7 1-1.1 1.8-1.2 5.5-.8 9.2-2.8 10.9-6 3.4-6.4-1.2-15.9-1.2-16-.5-1-.2-2.2.7-3 3.4-2.4 5.2-5.2 5.4-8.2.4-5.5-4.5-10.4-4.6-10.4-.5-.6-.7-1.4-.6-2.1 1.3-8 .1-14-3.5-18-5.3-6-14.5-5.6-14.6-5.6a2.4 2.4 0 0 1-2.5-2.2c-1.4-28.3-22.8-28-23.7-28-1.3 0-2.4-1-2.4-2.3 0-1.3 1-2.4 2.3-2.5.3 0 25.7-.5 28.3 30.3 3.7.2 11 1.4 16 7 4.5 5 6.1 12 4.9 20.9 1.8 2 5.6 7.2 5.1 13.2-.3 4-2.2 7.5-5.8 10.6 1.4 3.6 3.9 11.8.4 18.5-2.4 4.4-6.9 7.2-13.3 8.3a17 17 0 0 1-10 7.1c-.9.2-1.9.3-2.8.3z" class="cls-16"/></g></g><g id="g5431"><path id="path5397" fill="#04a99b" stroke="#04a99b" stroke-miterlimit="10" stroke-width="2.6" d="M77 315.2v-9.7c0-5.5-1.4-8.3-5-8.3-3 0-4.7 1.8-6.9 4.6l-5.5 7c-3.5 4.5-7.2 8-13.6 8-9.2 0-13.6-6.3-13.6-16.5v-13.6l3.2.5v12.9c0 8.4 3 13.4 10.4 13.4 5.1 0 8.2-3 11.1-6.6l5.5-7c2.8-3.6 5.1-6 9.4-6 6 0 8.2 4.4 8.2 11.4v10.4l-3.2-.5Zm5.2-10c0-8.8-3-13.7-10.3-13.7-5.2 0-8.3 3-11.2 6.7l-5.4 7c-2.8 3.6-5.2 6-9.5 6-6 0-8.2-4-8.2-11.2v-12.4l3.2.6v11.6c0 5.8 1.4 8 5 8 3 0 4.9-1.7 7-4.5l5.4-7c3.5-4.6 7.2-8 13.7-8 9.2 0 13.5 6.5 13.5 16.7v11.7l-3.2-.6z" class="cls-12"/><path id="path5399" fill="#04a99b" stroke="#04a99b" stroke-miterlimit="10" stroke-width="2.6" d="M32.4 329.3h53v3.3h-53Zm53 5.4v3.3h-53v-3.3z" class="cls-12"/><path id="path5401" fill="#04a99b" stroke="#04a99b" stroke-miterlimit="10" stroke-width="2.6" d="m32.9 359.9 46.6-8.8-36.6 49.2-4.8.9 29.1-39-32.7 6.2-.6-3.2 36.3-6.9 2-2.5-38.7 7.3-.6-3.2zm49.8-9.4 4.7-1-29 39 32.7-6.2.6 3.3-36.3 6.8-2 2.5 38.6-7.3.7 3.3-46.8 8.8 36.7-49.2z" class="cls-12"/><path id="path5403" fill="#04a99b" stroke="#04a99b" stroke-miterlimit="10" stroke-width="2.6" d="m85.2 440.6-23.5 11.1L58 444c-6.7-14.4-2-28.6 12.8-35.6 14.5-6.8 28.4-1.4 35.2 13l4.4 9.3-3.2.9-4-8.6c-6-12.8-18.3-17.6-31-11.6-13 6.1-17.2 18.6-11.2 31.5l2.2 4.4 1.8-.8-2-4.3c-5.6-11.8-2-22.9 10.2-28.6 11.8-5.6 22.7-1.3 28.3 10.4l3.7 8-3 1-3.5-7.4c-4.8-10.1-14.1-13.7-24-9-10.4 4.8-13.5 14.3-8.7 24.4l1.9 4.1 13-6-4-8.3 3.2-1 5 10.8zm0-12.1 7 14.8L64 456.6l-1.5-3 25.4-12-5.8-12.2 3.1-1z" class="cls-12"/><path id="path5405" fill="#04a99b" stroke="#04a99b" stroke-miterlimit="10" stroke-width="2.6" d="m122 455-25.3 46.6-2.2-2.8 4.3-8L85.4 474l-8.7 2.3-2.2-2.8 12-3.3 14 17.7 1-1.9-12.9-16.3 25.3-6.8 1.7-2.7L73 471.6l-2.2-2.8 51-13.8zm-18.8 27.8 8.7-16.2-17.6 5zm21.6-28.6 4.5-1.2-29 53.2-2.2-2.8 26.7-49.2z" class="cls-12"/><path id="path5407" fill="#04a99b" stroke="#04a99b" stroke-miterlimit="10" stroke-width="2.6" d="m111.7 516.3 33.8-40.8 2.6 2-33.9 41zm6.7 5.6-2.5-2.1 10.4-12.7 5.6 4.6c7.8 6.5 17.2 5.8 23.8-2.2 6.4-7.7 5.3-17-2.5-23.5l-3-2.5-1.3 1.5 2.9 2.4c6.8 5.7 7.8 13.6 2 20.6-6 7.2-14 7.6-20.8 2l-5.4-4.4 22-26.7 5.8 4.7c9.2 7.7 10.5 18.8 2.9 28-8 9.6-19 10.4-28.3 2.7l-3.2-2.6-8.4 10.2zm13.8-16.7 2.8 2.3c5.4 4.5 11.6 4 16.3-1.6 4.5-5.4 3.7-11.6-1.7-16.1l-2.7-2.3z" class="cls-12"/><path id="path5409" fill="#04a99b" stroke="#04a99b" stroke-miterlimit="10" stroke-width="2.6" d="M160.7 522.2a26.1 26.1 0 0 1 36.3-12.8 26.1 26.1 0 0 1 12.8 36.3 26.6 26.6 0 0 1-36.5 13.1 26.6 26.6 0 0 1-12.6-36.6zm46.1 22.1a23 23 0 0 0-11.2-32 23 23 0 0 0-32 11.4 23.4 23.4 0 0 0 11.1 32.2c12.4 6 26 1.1 32.1-11.6zm-41-19.6a20.8 20.8 0 0 1 28.8-10.3 20.8 20.8 0 0 1 10 28.9c-5.4 11.3-17.3 16.2-28.9 10.6-11.6-5.6-15.3-17.8-9.8-29.2zm35.8 17.1c4.5-9.4 1.4-19.8-8.4-24.5-9.8-4.7-19.8-.6-24.3 8.8-4.7 9.8-1.6 20.2 8.2 24.9 9.8 4.7 19.9.6 24.5-9.2z" class="cls-12"/><path id="path5411" fill="#04a99b" stroke="#04a99b" stroke-miterlimit="10" stroke-width="2.6" d="m217.8 574.6 10.4-52 3.2.7-10.3 52zm22.3 4.5-9.9-22.1-3.9 19.4-3.2-.7 10.4-52 7.7 1.6c11.5 2.2 17.1 10.6 14.9 21.9-1.7 8.6-7.3 13.3-14.6 14l9 20-3.8-.8-10.1-21.7c8.2.9 14.5-3.6 16.3-12.2 1.8-9.3-2.8-16.2-12.5-18.1l-4.3-1-.4 2 4.2.9c7.8 1.6 12.2 7.6 10.6 15.8-1.7 8.1-7.8 12-17.2 10.2h-.1l11 23.6-4-.8zm-9-26.5 3 .6c7.2 1.4 11.9-1.5 13.1-7.8 1.3-6.2-2-10.8-8.1-12l-4-.8-4 20z" class="cls-12"/><path id="path5413" fill="#04a99b" stroke="#04a99b" stroke-miterlimit="10" stroke-width="2.6" d="m268 581.9 1.7-53h3.3l-1.8 53zm25.5-4.4-16.7-.6v2l17 .6.4 3.2-20.9-.7.9-26 19.4.7v3.2l-16.2-.5-.5 14.3 16.1.6.4 3.2zM275 529l20.9.7-.6 3.2-17.1-.5-.1 2 16.7.5-.7 3.2-16.1-.5-.5 13.4 16.2.5-.1 3.2-19.5-.7.9-25z" class="cls-12"/><path id="path5415" fill="#04a99b" stroke="#04a99b" stroke-miterlimit="10" stroke-width="2.6" d="m359 545 9.3 32-3.1.9-10.5-35.5-2.6-1.6 11 37.7-3.1.9-13.5-45.8 27.8 17 1-1.9-29.7-18-1.4-4.7 32.4 19.8 16.5-34.2 1.4 4.7-18.8 38.9-16.8-10.2zm44.7 21.5-3.2 1-9.4-32-10.9 22.5-2.8-1.7 18-37.1 13.4 45.8-3.1 1-11.1-37.7-1.4 2.8 10.5 35.4z" class="cls-12"/><path id="path5417" fill="#04a99b" stroke="#04a99b" stroke-miterlimit="10" stroke-width="2.6" d="m430.7 553.6-27.2-45.5 2.9-1.7 27.1 45.5zm-22.5-48.3 18-10.7 1.2 3-14.7 8.8 1 1.7 14.3-8.6 1.2 3-13.9 8.4 6.9 11.5L436 514l1.6 2.7-16.7 10-12.8-21.5zm41.6 30.8-14.3 8.6 1 1.7 14.7-8.8 2 2.5-18 10.7-13.2-22.3 16.7-10 1.7 2.8-14 8.3 7.4 12.3 14-8.3 2 2.5z" class="cls-12"/><path id="path5419" fill="#04a99b" stroke="#04a99b" stroke-miterlimit="10" stroke-width="2.6" d="m469.8 528-35.5-39.4 2.4-2.3 35.6 39.4zm17-15.3-23.8-5.3 13.3 14.7-2.5 2.2-35.5-39.4 5.9-5.3c8.6-7.8 18.7-7.3 26.4 1.2 6 6.5 6.4 13.8 2.6 20.2l21.4 4.6-3 2.6-23.4-4.9c5.7-6 5.9-13.8 0-20.3-6.4-7-14.7-7.4-22-.9l-3.3 3 1.3 1.5 3.2-2.9c6-5.3 13.4-5.2 19 1s5 13.5-2.1 19.9l25.5 5.3-3 2.8zM460 504l2.3-2c5.5-5 5.9-10.5 1.6-15.2-4.2-4.7-9.9-4.8-14.5-.7l-3 2.8z" class="cls-12"/><path id="path5421" fill="#04a99b" stroke="#04a99b" stroke-miterlimit="10" stroke-width="2.6" d="m505.9 492-42.2-32 2-2.7 42.2 32zm11.2-23.3L507 481.9l1.6 1.2 10.4-13.6 2.8 1.5-12.7 16.7-42.1-32 2-2.7 35.4 27 9.8-12.9 3 1.5z" class="cls-12"/><path id="path5423" fill="#04a99b" stroke="#04a99b" stroke-miterlimit="10" stroke-width="2.6" d="m529 458.6-46.3-25.9 1.6-2.8 46.3 25.9zM485.3 428l1.6-2.8 46.3 25.9-1.6 2.8z" class="cls-12"/><path id="path5425" fill="#04a99b" stroke="#04a99b" stroke-miterlimit="10" stroke-width="2.6" d="M517.2 427a26.1 26.1 0 0 1-17.7-34 26.1 26.1 0 0 1 34.2-17.8 26.6 26.6 0 0 1 18 34.3 26.6 26.6 0 0 1-34.5 17.6zm15.5-48.6a23 23 0 0 0-30.1 15.5 23 23 0 0 0 15.6 30 23.4 23.4 0 0 0 30.4-15.3c4.2-13.1-2.5-26-15.9-30.2zm-13.8 43.2a20.8 20.8 0 0 1-14.2-27 20.8 20.8 0 0 1 27.3-13.9c12 3.8 18.4 15 14.5 27.2-4 12.2-15.6 17.6-27.6 13.7zm12-37.8c-9.9-3.1-19.8 1.4-23 11.7-3.4 10.4 2.1 19.8 12 23 10.3 3.2 20.2-1.3 23.5-11.6 3.3-10.4-2.2-19.8-12.4-23z" class="cls-12"/><path id="path5427" fill="#04a99b" stroke="#04a99b" stroke-miterlimit="10" stroke-width="2.6" d="m511.1 361-4.9-.1 36.9-31.7-33.3-1v-3.4l37 1.2 2.5-2-39.4-1.2.1-3.3 47.6 1.4-46.5 40.2zm50.6 1.6-47.4-1.5 46.4-40h4.8L528.8 353l33.3 1v3.3l-37-1.1-2.6 2 39.4 1.2v3.3z" class="cls-12"/><path id="path5429" fill="#04a99b" stroke="#04a99b" stroke-miterlimit="10" stroke-width="2.6" d="M512.7 290.4c0 8.8 3 13.6 10.3 13.6 5.2 0 8.3-3 11.2-6.7l5.5-7c2.7-3.6 5-6 9.4-6 6 0 8.2 4 8.2 11.3v12.3l-3.2-.5v-11.6c0-5.9-1.4-8.1-5-8.1-3 0-4.9 1.8-7 4.6l-5.4 7c-3.5 4.5-7.2 8-13.7 8-9.2 0-13.5-6.5-13.5-16.8V279l3.2.5zm5.2-10v9.7c0 5.5 1.4 8.3 5 8.3 3 0 4.7-1.9 7-4.6l5.4-7c3.6-4.5 7.2-8 13.6-8 9.3 0 13.6 6.3 13.6 16.5V309l-3.2-.5v-13c0-8.3-3-13.4-10.4-13.4-5 0-8.2 3-11 6.7l-5.6 7c-2.7 3.6-5.1 6-9.4 6-6 0-8.2-4.5-8.2-11.4v-10.5l3.2.6z" class="cls-12"/></g></g></svg>