<svg id="Layer_1" xmlns="http://www.w3.org/2000/svg" xmlns:xlink="http://www.w3.org/1999/xlink" viewBox="0 0 600 600">
  <defs>
    <linearGradient id="linear-gradient" x1="297.46" y1="451.87" x2="297.46" y2="66.94" gradientUnits="userSpaceOnUse">
      <stop offset="0" stop-color="#f2e9d2"/>
      <stop offset=".07" stop-color="#e7e2cd"/>
      <stop offset=".19" stop-color="#c9cfc3"/>
      <stop offset=".35" stop-color="#99b1b1"/>
      <stop offset=".54" stop-color="#588799"/>
      <stop offset=".68" stop-color="#236686"/>
      <stop offset="1" stop-color="#226586"/>
    </linearGradient>
    <linearGradient id="linear-gradient-2" x1="306.58" y1="288.52" x2="306.58" y2="167.45" gradientUnits="userSpaceOnUse">
      <stop offset="0" stop-color="#f2e9d2"/>
      <stop offset=".06" stop-color="#dfddcb"/>
      <stop offset=".24" stop-color="#a6b8b6"/>
      <stop offset=".42" stop-color="#769aa5"/>
      <stop offset=".59" stop-color="#528397"/>
      <stop offset=".75" stop-color="#37728d"/>
      <stop offset=".89" stop-color="#276888"/>
      <stop offset="1" stop-color="#226586"/>
    </linearGradient>
    <linearGradient id="linear-gradient-3" x1="219.51" x2="219.51" y2="202.08" xlink:href="#linear-gradient-2"/>
    <linearGradient id="linear-gradient-4" x1="377.9" x2="377.9" y2="225.19" xlink:href="#linear-gradient-2"/>
    <linearGradient id="linear-gradient-5" x1="417.48" x2="417.48" y2="191.55" xlink:href="#linear-gradient-2"/>
    <clipPath id="clippath">
      <path class="cls-1" d="M159.82 285.42v44.28c0 67.2 54.98 122.18 122.18 122.18h30.93c67.2 0 122.18-54.98 122.18-122.18v-44.28H159.82Z"/>
    </clipPath>
    <style>
      .cls-1,.cls-2,.cls-3{fill:none}.cls-4{fill:url(#linear-gradient)}.cls-2,.cls-4,.cls-5{stroke:#f2e9d2}.cls-10,.cls-11,.cls-2,.cls-3,.cls-4,.cls-6,.cls-7,.cls-8,.cls-9{stroke-linecap:round;stroke-linejoin:round}.cls-10,.cls-4,.cls-7,.cls-8,.cls-9{stroke-width:6.79px}.cls-12{stroke:#04a99b;stroke-width:2.56px}.cls-12,.cls-13{fill:#04a99b}.cls-12,.cls-5{stroke-miterlimit:10}.cls-14{clip-path:url(#clippath)}.cls-10,.cls-15,.cls-5,.cls-7,.cls-8,.cls-9{fill:#f2e9d2}.cls-11,.cls-16,.cls-6{fill:#043d5d}.cls-5{stroke-width:8.31px}.cls-2{stroke-width:11.87px}.cls-6{stroke-width:7.92px}.cls-11,.cls-6{stroke:#043d5d}.cls-7{stroke:url(#linear-gradient-5)}.cls-8{stroke:url(#linear-gradient-2)}.cls-9{stroke:url(#linear-gradient-4)}.cls-10{stroke:url(#linear-gradient-3)}.cls-3{stroke:#216586;stroke-width:14.84px}.cls-11{stroke-width:13.51px}
    </style>
  </defs>
  <path class="cls-5" d="M458.48 20.11H136.44c-8.03 0-14.54 6.51-14.54 14.54V334.1c0 87.49 71.18 158.66 158.66 158.66h33.8c87.49 0 158.66-71.18 158.66-158.66V34.65c0-8.03-6.51-14.54-14.54-14.54Z"/>
  <path class="cls-11" d="M458.47 34.65V334.1c0 79.54-64.58 144.12-144.12 144.12h-33.8c-79.54 0-144.12-64.58-144.12-144.12V34.65h322.04Z"/>
  <rect class="cls-4" x="159.82" y="66.94" width="275.28" height="384.93" rx="122.18" ry="122.18"/>
  <path class="cls-13" d="M159.82 285.42v44.28c0 67.2 54.98 122.18 122.18 122.18h30.93c67.2 0 122.18-54.98 122.18-122.18v-44.28H159.82Z"/>
  <g class="cls-14">
    <path class="cls-3" d="M159.82 340.22c18.4 11.14 40.05 18.38 61.39 20.67 18.82 2.03 38.03-.21 55.39-8 25.76-11.56 47.54-36.92 76-43.3 30.72-6.89 61.53 9.21 82.51 30.63"/>
    <path class="cls-3" d="M159.82 310.54c18.4 11.14 40.05 18.38 61.39 20.67 18.82 2.03 38.03-.21 55.39-8 25.76-11.56 47.54-36.92 76-43.3 30.72-6.89 61.53 9.21 82.51 30.63"/>
    <path class="cls-3" d="M159.82 280.86c18.4 11.14 40.05 18.38 61.39 20.67 18.82 2.03 38.03-.21 55.39-8 25.76-11.56 47.54-36.92 76-43.3 30.72-6.89 61.53 9.21 82.51 30.63m-275.29 89.05c18.4 11.14 40.05 18.38 61.39 20.67 18.82 2.03 38.03-.21 55.39-8 25.76-11.56 47.54-36.92 76-43.3 30.72-6.89 61.53 9.21 82.51 30.63"/>
    <path class="cls-3" d="M159.82 399.59c18.4 11.14 40.05 18.38 61.39 20.67 18.82 2.03 38.03-.21 55.39-8 25.76-11.56 47.54-36.92 76-43.3 30.72-6.89 61.53 9.21 82.51 30.63"/>
    <path class="cls-3" d="M159.82 429.27c18.4 11.14 40.05 18.38 61.39 20.67 18.82 2.03 38.03-.21 55.39-8 25.76-11.56 47.54-36.92 76-43.3 30.72-6.89 61.53 9.21 82.51 30.63"/>
    <path class="cls-3" d="M159.82 458.96c18.4 11.14 40.05 18.38 61.39 20.67 18.82 2.03 38.03-.21 55.39-8 25.76-11.56 47.54-36.92 76-43.3 30.72-6.89 61.53 9.21 82.51 30.63"/>
  </g>
  <path class="cls-6" d="M435.1 184.14h-26.29v55.93h-10.58v23.15h-12.55v-43.4h-12.56v-20.58h-15.2v47.62h-15.2v-36.82h-28.41v-47.71l-8.59-12.56h-27.76l-9.25 15.86v64.76h-40.58v-34.06h-21.18v64.77h-16.19v-40.17h-11.01v-37.68h-19.93v102.17H435.1V184.14z"/>
  <path class="cls-8" d="M306.58 170.84v114.29"/>
  <path class="cls-10" d="M219.51 205.47v79.66"/>
  <path class="cls-9" d="M377.9 228.58v56.55"/>
  <path class="cls-7" d="M417.48 194.94v90.19"/>
  <path class="cls-2" d="M159.82 285.42H435.1"/>
  <rect class="cls-2" x="159.82" y="66.94" width="275.28" height="384.93" rx="122.18" ry="122.18"/>
  <path class="cls-16" d="M397.19 311.61v-.14c0-.41-.04-.83-.13-1.26l-.07-.31c-.09-.34-.21-.66-.36-.97l-.31-.58c-8.54-14.09-20.63-47.7-25.56-61.88l11.11-3.86a5.79 5.79 0 0 0 3.84-6.21 5.82 5.82 0 0 0-.71-3.52c-12.68-22.27-12.53-56.57-12.53-56.96-.18-28.65-9.44-50.6-27.54-65.24-18.89-15.28-41-16.94-49.64-16.94-30.83 0-41.77 18.71-42.21 19.49l-2.64 4.6c-.08.14-.16.29-.23.44-.22.12-.43.23-.63.34l-5.43-2a5.795 5.795 0 0 0-4.44.17 5.774 5.774 0 0 0-3.01 3.26 5.75 5.75 0 0 0 .17 4.44 5.698 5.698 0 0 0 2.16 2.47 20.45 20.45 0 0 0-2.32 3.68c-.07.14-.23.51-.43 1.02-2.46.31-6.79.85-14.42 1.81-2.1.07-8.37.76-13.29 6.06-4.38 4.71-6.26 11.46-5.59 20.08-.66 5.46-.03 11.57 1.69 16.44 2.6 7.34 7.61 12.22 14.47 14.09.1.03.21.05.31.08l5.03 5.09c-1.72 1.27-3.11 2.75-4.12 4.41-2.47 4.02-2.65 8.97-.52 13.92 2.47 5.72 6.27 9.64 11.13 11.52-1.07 3.97-2.3 9.59-2.82 15.83-4.37-.85-9.84-1.2-15.69.63-7.97 2.5-26.22 9.42-25.37 20.13-.08 1.13.03 2.24.36 3.32.86 2.89 3.28 4.54 5.23 5.87.36.24.73.49.91.64 2.83 2.63 5.93 4.41 8.93 6.14 2.23 1.28 4.33 2.49 6.07 3.93 3.02 2.5 6.1 6.11 9.4 11.03 8.61 12.82 12.48 26.25 12.57 43.49-.05 9.16-1.06 18.58-2.14 28.63-.6 5.63-1.23 11.45-1.69 17.39-.25 3.21-.44 6.31-.58 9.29l-.12 5.39c0 .16 0 .32.01.47v.06l-.01.84c0 39.44 34.64 71.52 77.22 71.52s77.22-32.09 77.22-71.52l-.02-.68v-.18c.01-.17.02-.35.02-.52l-2.52-82.02 11.81 3.52c2.31.69 4.76-.11 6.24-2.02.92-1.19 1.33-2.7 1.16-4.18l.03-.29.02-.26Z"/>
  <path class="cls-15" d="m220.64 184.54 9.89 10 1.95-15.17"/>
  <path class="cls-16" d="M230.53 195.95c-.37 0-.74-.15-1.01-.42l-9.89-10c-.55-.56-.54-1.45.01-2a1.41 1.41 0 0 1 2 .01l7.85 7.94 1.58-12.29c.1-.78.8-1.33 1.58-1.22.78.1 1.32.81 1.22 1.58l-1.95 15.17c-.07.54-.44.99-.95 1.16-.15.05-.3.07-.45.07Z"/>
  <path class="cls-15" d="m237.5 196.58 2.24-13.36 8.07 13.36"/>
  <path class="cls-16" d="M237.5 197.99c-.08 0-.16 0-.24-.02-.77-.13-1.29-.86-1.16-1.63l2.24-13.36c.1-.58.55-1.05 1.13-1.16.58-.12 1.17.15 1.48.66l8.07 13.36c.4.67.19 1.54-.48 1.94-.67.41-1.54.19-1.94-.48l-6.1-10.09-1.61 9.59c-.12.69-.72 1.18-1.39 1.18Z"/>
  <path class="cls-15" d="M222.26 139.26s-15.36-.27-13.48 20.48c0 0-2.96 20.75 11.86 24.8 0 0 2.43-2.08 15.86-6.56 13.43-4.48 29.95-8.24 29.95 6.56s-23.48 11.69-28.96 12.04c-5.47.34-16.83 4.38-12.36 14.76 11.11 25.76 47.64-9.19 56.98-19.52 3.46-3.83 6.66-7.88 9.59-12.13 21.42-31.13 10.64-51.47 0-57.88-5.26-3.17-11.78-4.19-17.84-4.3-6.4-.11-12.71 1.78-18.4 4.59-5.13 2.53-10.93 5.73-13.55 11.07-.2.41-1.46 3.8-1.89 3.86l-17.76 2.23Z"/>
  <path class="cls-16" d="M237.97 222.97c-.96 0-1.89-.07-2.81-.22-5.48-.91-9.58-4.43-12.18-10.48-2.15-4.99-1.03-8.61.29-10.76 3.23-5.26 10.63-7.07 14.09-7.28.92-.06 2.16-.03 3.73 0 5.72.12 16.35.34 20.85-4.06 1.46-1.43 2.17-3.27 2.17-5.62 0-3.2-.85-5.37-2.61-6.64-5.47-3.94-19.6.77-24.24 2.32-12.34 4.11-15.02 6.08-15.13 6.16-.59.51-1.34.64-2.09.43-13.16-3.59-14.67-19.15-13.61-27.13-.66-7.79.91-13.78 4.66-17.81 4.27-4.59 9.89-4.95 11.03-4.97l16.55-2.08c.29-.63.65-1.51.79-1.87.16-.4.29-.7.34-.81 2.93-6 9.08-9.42 14.62-12.15 6.73-3.32 13.32-4.91 19.49-4.84 7.74.14 14.13 1.7 19.01 4.64 6.3 3.8 10.93 10.63 12.68 18.76 1.88 8.71 1.34 23.15-11.96 42.47-2.98 4.34-6.27 8.5-9.78 12.38-1.14 1.26-26.97 29.57-45.9 29.58Zm.74-24.06c-.42 0-.78 0-1.06.03-2.92.18-8.32 1.71-10.36 5.04-1.09 1.77-1.08 3.87.02 6.42 1.96 4.54 4.78 7.06 8.62 7.69 13.75 2.31 36.74-19.34 44.44-27.86 3.37-3.72 6.53-7.72 9.39-11.89 12.34-17.93 12.92-31 11.23-38.8-1.46-6.76-5.39-12.64-10.51-15.72-4.16-2.5-9.76-3.84-16.66-3.96-5.45-.1-11.28 1.37-17.32 4.35-4.84 2.39-10.19 5.33-12.47 9.99-.03.07-.11.27-.21.51-1.16 2.86-1.8 4.43-3.5 4.65l-17.76 2.23c-.11.01-.22.01-.32.02-.1 0-4.57.04-7.75 3.51-2.81 3.06-3.94 7.91-3.35 14.4.02.18.01.37-.01.55 0 .05-.67 4.96.37 10.21 1.22 6.12 4.18 10.04 8.8 11.68 1.8-1.04 6.02-3.07 15.46-6.21 9.81-3.27 21.91-6.41 28.49-1.67 3.03 2.18 4.57 5.7 4.57 10.46 0 3.63-1.21 6.66-3.59 8.99-5.92 5.8-17.39 5.55-24.25 5.41-.85-.02-1.63-.03-2.27-.03Z"/>
  <path class="cls-13" d="M257.23 142.27s-6.4-5.88.86-13.73l14.59 5.23m0 .01-12.04 6.03"/>
  <path class="cls-15" d="M374.64 398.23c0 36.3-31.98 65.72-71.42 65.72s-71.42-29.43-71.42-65.72l.12-5.26c.13-2.87.32-5.86.56-8.97 2.64-34.18 10.79-64.04-9.7-94.57-2.94-4.38-6.44-8.89-10.52-12.27-4.57-3.79-10.37-5.78-14.75-9.85-1.13-1.05-4.12-2.54-4.53-3.92-1.98-6.61 16.67-13.46 21.19-14.88 6.71-2.1 13.29-.76 19.8 1.45l5.23-34.42 36.36-21.01 22.96-44.85-21.41-27.06-21.66-.53 2.64-4.6s9.39-16.59 37.2-16.58c27.81 0 71 16.25 71.37 76.41 0 0-.37 35.8 13.29 59.8l-16.98 5.91s16.98 50.94 28.42 69.76l-19.55-5.83 2.8 91.27Z"/>
  <path class="cls-16" d="M303.22 466.31c-40.68 0-73.78-30.54-73.78-68.08l.12-5.32c.13-2.88.31-5.83.57-9.1.46-5.92 1.08-11.73 1.69-17.36 2.95-27.45 5.49-51.16-10.99-75.71-3.48-5.19-6.78-9.04-10.07-11.76-1.96-1.63-4.19-2.91-6.55-4.27-2.83-1.63-5.75-3.31-8.3-5.67-.25-.23-.79-.6-1.31-.96-1.65-1.13-3.36-2.29-3.87-4.02-2.78-9.29 18.46-16.46 22.74-17.8 6.67-2.09 13.03-1.05 18.59.61l4.81-31.68c.11-.71.53-1.33 1.15-1.69l35.76-20.66 21.96-42.88-19.78-25.01-20.55-.5c-.83-.02-1.59-.48-2-1.2-.41-.72-.4-1.61 0-2.33l2.64-4.6c.4-.71 10.39-17.76 39.23-17.76h.02c8.26 0 29.42 1.58 47.46 16.17 17.26 13.96 26.1 35.02 26.27 62.59 0 .39-.2 35.5 12.98 58.65.35.61.4 1.34.16 2s-.77 1.17-1.43 1.4l-14.77 5.14c3.4 9.96 17.62 50.91 27.45 67.08.51.83.45 1.9-.15 2.67s-1.6 1.1-2.54.82l-16.42-4.9 2.7 88v.07c0 37.54-33.1 68.08-73.78 68.08Zm-108.01-203.7c.32.4 1.43 1.16 2.04 1.58.7.48 1.36.93 1.86 1.4 2.15 2 4.72 3.48 7.44 5.04 2.43 1.4 4.94 2.84 7.21 4.72 3.64 3.02 7.23 7.19 10.97 12.77 17.44 25.98 14.68 51.66 11.77 78.85-.6 5.59-1.22 11.37-1.67 17.22-.25 3.21-.43 6.12-.56 8.89l-.12 5.21c0 34.88 30.98 63.31 69.06 63.31s69.04-28.41 69.06-63.33l-2.8-91.23a2.36 2.36 0 0 1 3.03-2.33l13.98 4.17c-11.15-21.38-25.13-63.17-25.77-65.09-.41-1.22.24-2.55 1.46-2.97l14.36-4.99c-12.45-24.12-12.26-57.07-12.25-58.51-.34-54.62-37.38-74.02-69.01-74.03h-.02c-26.12 0-35.04 15.23-35.13 15.38l-.67 1.18 17.7.43c.7.02 1.36.34 1.79.89l21.41 27.06c.57.72.67 1.72.25 2.54l-22.96 44.85c-.21.4-.53.74-.92.97l-35.38 20.44-5.06 33.29c-.1.69-.51 1.3-1.11 1.66-.6.36-1.32.44-1.98.22-5.44-1.84-11.87-3.46-18.34-1.43-9.69 3.04-20.27 8.82-19.66 11.84Z"/>
  <path class="cls-13" d="M294.67 309.24c-.92 0-1.77-.62-2.01-1.56-.11-.4-2.51-9.01-11.28-9.01-1.15 0-2.08-.93-2.08-2.08s.93-2.08 2.08-2.08c9.63 0 14.22 7.93 15.31 12.13.29 1.11-.38 2.24-1.49 2.53-.17.05-.35.07-.52.07Z"/>
  <path class="cls-13" d="M295.14 309.24a2.083 2.083 0 0 1-2.02-2.6c1.08-4.2 5.67-12.13 15.31-12.13 1.15 0 2.08.93 2.08 2.08s-.93 2.08-2.08 2.08c-8.78 0-11.18 8.65-11.28 9.02a2.09 2.09 0 0 1-2.01 1.55Zm32.1-9.37c-.92 0-1.77-.62-2.01-1.56-.11-.4-2.51-9.01-11.28-9.01-1.15 0-2.08-.93-2.08-2.08s.93-2.08 2.08-2.08c9.63 0 14.22 7.93 15.31 12.13.29 1.11-.38 2.24-1.49 2.53-.17.05-.35.07-.52.07Z"/>
  <path class="cls-13" d="M327.71 299.86a2.083 2.083 0 0 1-2.02-2.6c.03-.11.7-2.65 2.56-5.36.65-.95 1.94-1.18 2.89-.53.95.65 1.18 1.95.53 2.89-1.43 2.07-1.96 4.03-1.96 4.05a2.09 2.09 0 0 1-2.01 1.55Zm-74.33 108.71c-.92 0-1.77-.62-2.01-1.55-.1-.39-2.51-9.01-11.28-9.01-1.15 0-2.08-.93-2.08-2.08s.93-2.08 2.08-2.08c9.63 0 14.22 7.93 15.31 12.13.29 1.11-.38 2.24-1.49 2.53-.17.05-.35.07-.52.07Z"/>
  <path class="cls-13" d="M253.85 408.57a2.083 2.083 0 0 1-2.02-2.6c1.08-4.19 5.67-12.12 15.31-12.12 1.15 0 2.08.93 2.08 2.08s-.93 2.08-2.08 2.08c-8.78 0-11.18 8.65-11.28 9.01a2.09 2.09 0 0 1-2.01 1.55Zm102.06-71.53c-.92 0-1.76-.62-2.01-1.55-.1-.37-2.5-9.02-11.28-9.02-1.15 0-2.08-.93-2.08-2.08s.93-2.08 2.08-2.08c9.63 0 14.22 7.93 15.31 12.13.29 1.11-.38 2.24-1.49 2.53-.17.05-.35.07-.52.07Z"/>
  <path class="cls-13" d="M356.38 337.04c-.17 0-.35-.02-.52-.07a2.075 2.075 0 0 1-1.49-2.53c1.08-4.2 5.67-12.13 15.31-12.13 1.15 0 2.08.93 2.08 2.08s-.93 2.08-2.08 2.08c-8.85 0-11.26 8.92-11.28 9.01-.24.94-1.09 1.56-2.01 1.56Zm-.47 26.15c-.92 0-1.76-.62-2.01-1.55-.1-.37-2.5-9.02-11.28-9.02-1.15 0-2.08-.93-2.08-2.08s.93-2.08 2.08-2.08c9.63 0 14.22 7.93 15.31 12.13.29 1.11-.38 2.24-1.49 2.53-.17.05-.35.07-.52.07Z"/>
  <path class="cls-13" d="M356.38 363.19c-.17 0-.35-.02-.52-.07a2.075 2.075 0 0 1-1.49-2.53c1.08-4.2 5.67-12.13 15.31-12.13 1.15 0 2.08.93 2.08 2.08s-.93 2.08-2.08 2.08c-8.85 0-11.26 8.92-11.28 9.01-.24.94-1.09 1.56-2.01 1.56Zm-.47 28.91c-.92 0-1.76-.62-2.01-1.55-.1-.37-2.5-9.02-11.28-9.02-1.15 0-2.08-.93-2.08-2.08s.93-2.08 2.08-2.08c9.63 0 14.22 7.93 15.31 12.13.29 1.11-.38 2.24-1.49 2.53-.17.05-.35.07-.52.07Z"/>
  <path class="cls-13" d="M356.38 392.1c-.17 0-.35-.02-.52-.07a2.075 2.075 0 0 1-1.49-2.53c1.08-4.2 5.67-12.13 15.31-12.13 1.15 0 2.08.93 2.08 2.08s-.93 2.08-2.08 2.08c-8.85 0-11.26 8.92-11.28 9.01-.24.94-1.09 1.56-2.01 1.56Zm-.47 26.15c-.92 0-1.76-.62-2.01-1.55-.1-.37-2.5-9.02-11.28-9.02-1.15 0-2.08-.93-2.08-2.08s.93-2.08 2.08-2.08c9.63 0 14.22 7.93 15.31 12.13.29 1.11-.38 2.24-1.49 2.53-.17.05-.35.07-.52.07Z"/>
  <path class="cls-13" d="M356.38 418.25c-.17 0-.35-.02-.52-.07a2.075 2.075 0 0 1-1.49-2.53c1.08-4.2 5.67-12.13 15.31-12.13 1.15 0 2.08.93 2.08 2.08s-.93 2.08-2.08 2.08c-8.85 0-11.26 8.92-11.28 9.01-.24.94-1.09 1.56-2.01 1.56Zm-4.6 28.91c-.92 0-1.76-.62-2.01-1.55-.1-.37-2.5-9.02-11.28-9.02-1.15 0-2.08-.93-2.08-2.08s.93-2.08 2.08-2.08c9.63 0 14.22 7.93 15.31 12.13.29 1.11-.38 2.24-1.49 2.53-.17.05-.35.07-.52.07Zm-24.31-123.47c-.92 0-1.76-.62-2.01-1.55-.1-.37-2.5-9.01-11.28-9.01-1.15 0-2.08-.93-2.08-2.08s.93-2.08 2.08-2.08c9.63 0 14.22 7.93 15.31 12.12a2.07 2.07 0 0 1-1.49 2.53c-.17.05-.35.07-.52.07Z"/>
  <path class="cls-13" d="M327.94 323.68a2.083 2.083 0 0 1-2.02-2.6c1.08-4.19 5.67-12.13 15.31-12.13 1.15 0 2.08.93 2.08 2.08s-.93 2.08-2.08 2.08c-8.78 0-11.18 8.65-11.28 9.01a2.09 2.09 0 0 1-2.01 1.55Zm-2.99 25.7c-.92 0-1.77-.62-2.01-1.55-.1-.39-2.51-9.01-11.28-9.01-1.15 0-2.08-.93-2.08-2.08s.93-2.08 2.08-2.08c9.63 0 14.22 7.93 15.31 12.13.29 1.11-.38 2.24-1.49 2.53-.17.05-.35.07-.52.07Z"/>
  <path class="cls-13" d="M325.43 349.38a2.083 2.083 0 0 1-2.02-2.6c1.08-4.19 5.67-12.12 15.31-12.12 1.15 0 2.08.93 2.08 2.08s-.93 2.08-2.08 2.08c-8.78 0-11.18 8.65-11.28 9.01a2.09 2.09 0 0 1-2.01 1.55Zm-.71 29.37c-.92 0-1.76-.62-2.01-1.55-.1-.37-2.5-9.01-11.28-9.01-1.15 0-2.08-.93-2.08-2.08s.93-2.08 2.08-2.08c9.63 0 14.22 7.93 15.31 12.12a2.07 2.07 0 0 1-1.49 2.53c-.17.05-.35.07-.52.07Z"/>
  <path class="cls-13" d="M325.19 378.74a2.083 2.083 0 0 1-2.02-2.6c1.08-4.19 5.67-12.13 15.31-12.13 1.15 0 2.08.93 2.08 2.08s-.93 2.08-2.08 2.08c-8.78 0-11.18 8.65-11.28 9.01a2.09 2.09 0 0 1-2.01 1.55Zm-.24 25.7c-.92 0-1.77-.62-2.01-1.55-.1-.39-2.51-9.01-11.28-9.01-1.15 0-2.08-.93-2.08-2.08s.93-2.08 2.08-2.08c9.63 0 14.22 7.93 15.31 12.13.29 1.11-.38 2.24-1.49 2.53-.17.05-.35.07-.52.07Z"/>
  <path class="cls-13" d="M325.43 404.44a2.083 2.083 0 0 1-2.02-2.6c1.08-4.19 5.67-12.12 15.31-12.12 1.15 0 2.08.93 2.08 2.08s-.93 2.08-2.08 2.08c-8.78 0-11.18 8.65-11.28 9.01a2.09 2.09 0 0 1-2.01 1.55Zm-.71 29.37c-.92 0-1.76-.62-2.01-1.55-.1-.37-2.5-9.01-11.28-9.01-1.15 0-2.08-.93-2.08-2.08s.93-2.08 2.08-2.08c9.63 0 14.22 7.93 15.31 12.12a2.07 2.07 0 0 1-1.49 2.53c-.17.05-.35.07-.52.07Z"/>
  <path class="cls-13" d="M325.19 433.8a2.083 2.083 0 0 1-2.02-2.6c1.08-4.19 5.67-12.13 15.31-12.13 1.15 0 2.08.93 2.08 2.08s-.93 2.08-2.08 2.08c-8.78 0-11.18 8.65-11.28 9.01a2.09 2.09 0 0 1-2.01 1.55Zm-5.74 25.7c-.92 0-1.77-.62-2.01-1.55-.1-.39-2.51-9.01-11.28-9.01-1.15 0-2.08-.93-2.08-2.08s.93-2.08 2.08-2.08c9.63 0 14.22 7.93 15.31 12.13.29 1.11-.38 2.24-1.49 2.53-.17.05-.35.07-.52.07Z"/>
  <path class="cls-13" d="M319.92 459.5a2.083 2.083 0 0 1-2.02-2.6c1.08-4.19 5.67-12.12 15.31-12.12 1.15 0 2.08.93 2.08 2.08s-.93 2.08-2.08 2.08c-8.78 0-11.18 8.65-11.28 9.01a2.09 2.09 0 0 1-2.01 1.55Z"/>
  <path class="cls-15" d="m249.02 266.45 16.61 34.75s24.56-.84 26.07 30.25c0 0 25.08-1.5 20.57 26.32 0 0 12.63 12.28-1.08 22.31 0 0 11.04 22.31-11.49 25.32 0 0-7.49 14.04-21.78 3.01"/>
  <path class="cls-15" d="M288.42 420.21c-4.06 0-9.28-1.29-15.12-5.8-3.31-2.55-3.92-7.31-1.37-10.62 2.55-3.31 7.31-3.92 10.62-1.37 1.82 1.41 4.43 3 6.54 2.58 1.95-.39 3.57-2.53 3.99-3.26 1.15-2.15 3.21-3.52 5.63-3.84 2.56-.34 5.85-1.19 6.97-3.27 1.64-3.05-.16-8.88-1.29-11.22-1.58-3.29-.61-7.28 2.33-9.43 2.08-1.52 3.18-3 3.28-4.42.17-2.42-2.18-5.55-3.01-6.35a7.59 7.59 0 0 1-2.2-6.64c1.03-6.34.3-10.96-2.16-13.72-3-3.38-8.63-3.88-10.55-3.83-4.18.22-7.75-3.03-7.95-7.19-.5-10.17-3.81-17.1-9.85-20.61-4.11-2.39-8.23-2.45-8.4-2.45-2.99.08-5.79-1.59-7.09-4.3l-16.61-34.75a7.577 7.577 0 0 1 3.57-10.1c3.77-1.8 8.29-.2 10.1 3.57l14.71 30.79c10.46 1.64 24.61 9.34 28.02 30.48 4.65.89 10.6 3.04 15.24 8.17 5.12 5.66 7.25 13.33 6.37 22.83 2.37 3.23 5.36 8.68 4.91 15.16-.22 3.16-1.35 7.41-5.04 11.61 1.48 5.06 2.6 12.73-1.01 19.51-2.03 3.82-6.25 8.54-14.94 10.57-2.23 2.72-6.11 6.28-11.78 7.5-1.14.24-2.45.41-3.91.41Z"/>
  <path class="cls-16" d="M243.04 165.59c-.14 0-.29-.02-.44-.07l-14.31-4.64a1.417 1.417 0 0 1-.91-1.78c.24-.74 1.04-1.15 1.78-.91l14.31 4.64a1.413 1.413 0 0 1-.44 2.76Zm1.55-8.64h-.1l-14.96-1.03a1.42 1.42 0 0 1-1.32-1.51c.05-.78.74-1.37 1.51-1.32l14.96 1.03c.78.05 1.37.73 1.32 1.51-.05.75-.67 1.32-1.41 1.32Zm-14.96-5.85c-.69 0-1.3-.51-1.4-1.22-.11-.77.43-1.49 1.21-1.6l11.99-1.68c.79-.11 1.49.43 1.6 1.21.11.77-.43 1.49-1.21 1.6l-11.99 1.68c-.07 0-.13.01-.2.01Zm21.38-4.11c-.86 0-1.7-.48-2.11-1.3a2.373 2.373 0 0 1 1.05-3.17l17.56-8.8-11.14-3.9-15.06-5.56a2.364 2.364 0 0 1-1.4-3.03 2.364 2.364 0 0 1 3.03-1.4l15.02 5.55 16.36 5.73c.89.31 1.51 1.13 1.57 2.08.06.95-.45 1.83-1.3 2.26l-22.54 11.29c-.34.17-.7.25-1.06.25Zm47.26-16.78a2.354 2.354 0 0 1-1.84-3.82c7.56-9.54 1.28-19-1.57-22.44-9.8 6.31-10.84 14.18-10.88 14.53a2.358 2.358 0 0 1-4.69-.5c.05-.46 1.33-11.4 14.85-19.11.92-.52 2.06-.38 2.81.36 5.27 5.14 12.73 18.04 3.18 30.09-.47.59-1.15.89-1.85.89Zm-90.15 34.65s7.67-1.3 11.88-9.28c4.22-7.97-5.02-8.26-9.83-8"/>
  <path class="cls-16" d="M208.12 166.28c-.68 0-1.28-.49-1.39-1.18-.13-.77.39-1.5 1.15-1.63.31-.06 7.06-1.34 10.87-8.54.96-1.81 1.16-3.16.61-4.03-.94-1.47-4.25-2.16-9.11-1.9-.78.08-1.45-.56-1.49-1.34-.04-.78.56-1.45 1.34-1.49 6.16-.34 10.08.74 11.65 3.2 1.14 1.79.98 4.1-.49 6.88-4.49 8.49-12.56 9.95-12.9 10.01-.08.01-.16.02-.24.02Zm183.27 147.5c-.22 0-.45-.03-.68-.1l-61.56-18.37a2.356 2.356 0 0 1-1.67-2.5c.08-.79 8.09-79.05 3.91-119.6-.13-1.3.81-2.45 2.11-2.59 1.3-.13 2.45.81 2.59 2.11 3.86 37.42-2.5 106.19-3.72 118.62l59.7 17.82c1.25.37 1.96 1.69 1.59 2.94a2.36 2.36 0 0 1-2.26 1.68Z"/>
  <path class="cls-16" d="M391.39 317.91c-.22 0-.45-.03-.68-.1l-61.56-18.37a2.356 2.356 0 0 1-1.67-2.5c.08-.79 8.09-79.05 3.91-119.6-.13-1.3.81-2.45 2.11-2.59 1.3-.14 2.45.81 2.59 2.11 3.86 37.42-2.5 106.19-3.72 118.62l59.7 17.82c1.25.37 1.96 1.69 1.59 2.94a2.36 2.36 0 0 1-2.26 1.68Z"/>
  <path class="cls-16" d="M391.39 319.28c-.22 0-.45-.03-.68-.1l-61.56-18.37a2.356 2.356 0 0 1-1.67-2.5c.08-.79 8.09-79.05 3.91-119.6-.13-1.3.81-2.45 2.11-2.59 1.3-.13 2.45.81 2.59 2.11 3.86 37.42-2.5 106.19-3.72 118.62l59.7 17.82c1.25.37 1.96 1.69 1.59 2.94a2.36 2.36 0 0 1-2.26 1.68Z"/>
  <path class="cls-16" d="M346.81 249.96c-.59 0-1.17-.22-1.61-.63-.64-.6-.9-1.51-.66-2.36.21-.74 20.33-74.92-8.54-120.45a2.363 2.363 0 0 1 3.99-2.53c8.68 13.69 18.49 38.71 15.94 80.19-1.09 17.78-4.13 32.71-5.77 39.73l11.91-4.2a2.36 2.36 0 0 1 1.57 4.45l-16.04 5.66c-.26.09-.52.13-.79.13Z"/>
  <path class="cls-16" d="M346.81 254.09c-.48 0-.96-.15-1.36-.43-.63-.44-1-1.16-1-1.93v-4.13c0-1.3 1.06-2.36 2.36-2.36s2.36 1.06 2.36 2.36v.79l12.9-4.55c1.23-.44 2.57.21 3.01 1.44a2.36 2.36 0 0 1-1.44 3.01l-16.04 5.66c-.26.09-.52.13-.79.13Z"/>
  <path class="cls-16" d="M346.81 255.47c-.48 0-.96-.15-1.36-.43-.63-.44-1-1.16-1-1.93v-4.13c0-1.3 1.06-2.36 2.36-2.36s2.36 1.06 2.36 2.36v.79l12.9-4.55a2.36 2.36 0 0 1 1.57 4.45l-16.04 5.66c-.26.09-.52.13-.79.13Zm-16.98 4.73c-.19 0-.38-.02-.58-.07l-20.34-5.11a2.349 2.349 0 0 1-1.74-2.72c.17-.93 17.22-93.51 6.85-130.83a2.35 2.35 0 0 1 1.64-2.9 2.35 2.35 0 0 1 2.9 1.64c4.49 16.17 4.71 43.49.66 81.19-2.48 23.04-5.88 43.11-7.03 49.59l18.2 4.57c1.26.32 2.03 1.6 1.71 2.86a2.367 2.367 0 0 1-2.29 1.79Zm-41.47 154.81c-3.82 0-7.8-1.58-11.87-4.72a2.368 2.368 0 0 1-.43-3.31 2.367 2.367 0 0 1 3.31-.43c3.95 3.05 7.61 4.24 10.87 3.54 4.72-1.01 7.36-5.74 7.38-5.79.36-.67 1.01-1.13 1.77-1.23 5.49-.73 9.15-2.75 10.89-5.99 3.41-6.39-1.16-15.85-1.2-15.95-.5-1.03-.2-2.27.72-2.95 3.36-2.46 5.18-5.23 5.4-8.24.4-5.52-4.52-10.44-4.57-10.48-.55-.54-.8-1.31-.68-2.06 1.3-8.02.13-14.11-3.48-18.11-5.39-5.96-14.52-5.5-14.62-5.48a2.45 2.45 0 0 1-1.72-.6c-.47-.42-.75-1.01-.78-1.64-1.38-28.3-22.74-28.03-23.65-28.01-.92.07-1.8-.5-2.2-1.34l-16.61-34.75a2.37 2.37 0 0 1 1.11-3.15c1.17-.56 2.58-.06 3.15 1.11l16 33.48c5.66.46 24.49 3.96 26.76 30.22 3.71.22 10.99 1.41 16.05 7 4.43 4.91 6.05 11.93 4.81 20.88 1.76 2.03 5.56 7.16 5.13 13.25-.28 3.95-2.24 7.5-5.83 10.56 1.4 3.58 3.91 11.83.38 18.47-2.36 4.42-6.83 7.21-13.32 8.3-1.32 1.95-4.61 5.99-9.9 7.12-.95.2-1.91.31-2.88.31Z"/>
  <circle class="cls-16" cx="278.37" cy="396.67" r="11.53"/>
  <path class="cls-16" d="M278.37 410.28c-7.5 0-13.61-6.1-13.61-13.61s6.1-13.61 13.61-13.61 13.61 6.1 13.61 13.61-6.1 13.61-13.61 13.61Zm0-23.06c-5.21 0-9.45 4.24-9.45 9.45s4.24 9.45 9.45 9.45 9.45-4.24 9.45-9.45-4.24-9.45-9.45-9.45Zm32.82-4.77c-1.14 0-2.14-.83-2.33-1.99-.12-.67-3.08-14.88-34.6-12.51-1.31.09-2.43-.88-2.53-2.17s.88-2.43 2.17-2.53c36.35-2.73 39.5 15.7 39.62 16.49a2.36 2.36 0 0 1-1.98 2.68c-.12.02-.24.03-.35.03Zm1.08-22.31c-.48 0-.97-.15-1.39-.46-.19-.13-10.71-7.35-31.73-.03-1.23.43-2.57-.22-3-1.45-.43-1.23.22-2.57 1.45-3 23.65-8.24 35.58.32 36.08.69 1.05.78 1.26 2.25.49 3.3-.46.62-1.17.95-1.9.95Zm-36.17-8.78a2.368 2.368 0 0 1-1.77-3.93l15.59-17.55c.87-.97 2.36-1.06 3.33-.2.97.87 1.06 2.36.2 3.33l-15.59 17.55c-.47.52-1.11.79-1.76.79Zm-10.81 7.61a2.36 2.36 0 0 1-2.1-3.44c10.41-20.26 4.85-52.06 4.79-52.38a2.36 2.36 0 0 1 1.9-2.74c1.3-.24 2.51.62 2.74 1.9.25 1.36 5.91 33.68-5.24 55.37-.42.81-1.24 1.28-2.1 1.28Zm-9.54 3.34a2.36 2.36 0 0 1-2.24-3.11c5.46-16.29 4.11-29.23 2.02-37.23-2.27-8.67-5.89-13.57-5.93-13.62a2.36 2.36 0 0 1 .47-3.3c1.04-.78 2.52-.58 3.3.46.65.86 15.89 21.55 4.61 55.19-.33.99-1.25 1.61-2.24 1.61Z"/>
  <path class="cls-15" d="M238.42 220.61s-15.06 39.5 8.38 55.75c0 0 3.01-25.36 19.56-47.74"/>
  <path class="cls-16" d="M246.81 278.72c-.47 0-.94-.14-1.34-.42-10.31-7.14-15.15-19.62-13.99-36.07.85-12.12 4.59-22.04 4.75-22.46a2.35 2.35 0 0 1 3.04-1.36 2.36 2.36 0 0 1 1.37 3.04c-.14.36-12.74 34.26 4.51 50.53 1.57-8.2 6.39-27.25 19.34-44.76a2.351 2.351 0 0 1 3.3-.49c1.05.77 1.27 2.25.49 3.3-16 21.63-19.09 46.36-19.12 46.61-.1.82-.62 1.53-1.37 1.87-.31.14-.64.21-.97.21Z"/>
  <path class="cls-15" d="m288.21 263.8 3.48 26.8-47.11 19.15s-5.73-63.35 39.37-99.75"/>
  <path class="cls-16" d="M244.59 312.11c-.43 0-.85-.12-1.23-.34a2.339 2.339 0 0 1-1.12-1.8c-.06-.65-5.31-65.03 40.24-101.8 1.01-.82 2.5-.66 3.32.35.82 1.01.66 2.5-.35 3.32-37.83 30.53-39.04 81.26-38.66 94.48l42.35-17.21-3.25-25c-.17-1.29.74-2.47 2.04-2.64 1.3-.16 2.48.74 2.64 2.04l3.48 26.8a2.36 2.36 0 0 1-1.45 2.49l-47.11 19.15c-.29.12-.59.17-.89.17Z"/>
  <path class="cls-16" d="M244.59 316.24a2.367 2.367 0 0 1-2.35-2.16c-.06-.67-5.31-67.78 40.24-104.54 1.01-.82 2.5-.66 3.32.35.82 1.01.66 2.5-.35 3.32-38 30.67-39.06 83.66-38.66 97.23l42.35-17.21-3.25-25c-.17-1.29.74-2.47 2.04-2.64 1.3-.16 2.48.74 2.64 2.04l3.48 26.8a2.36 2.36 0 0 1-1.45 2.49l-47.11 19.15c-.29.12-.59.17-.89.17Z"/>
  <path class="cls-16" d="M288.21 266.16a2.374 2.374 0 0 1-2.36-2.49c.02-.33 1.82-33.39 10.75-60.61l.57-1.73c8.42-25.64 11.25-34.28 11.65-45.23.05-1.3 1.14-2.31 2.45-2.27a2.36 2.36 0 0 1 2.27 2.45c-.43 11.61-3.32 20.41-11.89 46.53l-.57 1.73c-6.88 20.98-9.44 45.58-10.23 55.22l17.53-9.12a2.36 2.36 0 0 1 3.18 1c.6 1.16.15 2.58-1 3.18l-21.27 11.06c-.34.18-.72.27-1.09.27Z"/>
  <path class="cls-16" d="M329.83 264.33c-.19 0-.38-.02-.58-.07l-20.34-5.11a2.349 2.349 0 0 1-1.74-2.72c.17-.93 17.22-93.51 6.85-130.83a2.35 2.35 0 0 1 1.64-2.9 2.35 2.35 0 0 1 2.9 1.64c4.49 16.17 4.71 43.49.66 81.19-2.48 23.04-5.88 43.11-7.03 49.59l18.2 4.57c1.26.32 2.03 1.6 1.71 2.86a2.367 2.367 0 0 1-2.29 1.79Z"/>
  <path class="cls-16" d="M288.21 270.29a2.374 2.374 0 0 1-2.36-2.49c.02-.33 1.82-33.39 10.75-60.61l.57-1.73c8.42-25.64 11.25-34.28 11.65-45.23.05-1.3 1.14-2.33 2.45-2.27a2.36 2.36 0 0 1 2.27 2.45c-.43 11.61-3.32 20.41-11.89 46.53l-.57 1.73c-6.88 20.98-9.44 45.58-10.23 55.22l17.53-9.12a2.36 2.36 0 0 1 3.18 1c.6 1.16.15 2.58-1 3.18l-21.27 11.06c-.34.18-.72.27-1.09.27Z"/>
  <path class="cls-13" d="M310.95 279.89c-.92 0-1.76-.62-2.01-1.55-.1-.37-2.5-9.01-11.28-9.01-1.15 0-2.08-.93-2.08-2.08s.93-2.08 2.08-2.08c9.63 0 14.22 7.93 15.31 12.12a2.07 2.07 0 0 1-1.49 2.53c-.17.05-.35.07-.52.07Z"/>
  <path class="cls-13" d="M311.43 279.89a2.083 2.083 0 0 1-2.02-2.6c1.08-4.19 5.67-12.13 15.31-12.13 1.15 0 2.08.93 2.08 2.08s-.93 2.08-2.08 2.08c-8.78 0-11.18 8.65-11.28 9.01a2.09 2.09 0 0 1-2.01 1.55Zm-22.97 167.27c-.92 0-1.76-.62-2.01-1.55-.1-.37-2.5-9.02-11.28-9.02-1.15 0-2.08-.93-2.08-2.08s.93-2.08 2.08-2.08c9.63 0 14.22 7.93 15.31 12.13.29 1.11-.38 2.24-1.49 2.53-.17.05-.35.07-.52.07Z"/>
  <path class="cls-13" d="M288.93 447.16c-.17 0-.35-.02-.52-.07a2.075 2.075 0 0 1-1.49-2.53c1.08-4.2 5.67-12.13 15.31-12.13 1.15 0 2.08.93 2.08 2.08s-.93 2.08-2.08 2.08c-8.85 0-11.26 8.92-11.28 9.01-.24.94-1.09 1.56-2.01 1.56Zm-35.79-13.35c-.92 0-1.76-.62-2.01-1.55-.1-.37-2.5-9.01-11.28-9.01-1.15 0-2.08-.93-2.08-2.08s.93-2.08 2.08-2.08c9.63 0 14.22 7.93 15.31 12.12a2.07 2.07 0 0 1-1.49 2.53c-.17.05-.35.07-.52.07Z"/>
  <path class="cls-13" d="M253.61 433.8a2.083 2.083 0 0 1-2.02-2.6c1.08-4.19 5.67-12.13 15.31-12.13 1.15 0 2.08.93 2.08 2.08s-.93 2.08-2.08 2.08c-8.78 0-11.18 8.65-11.28 9.01a2.09 2.09 0 0 1-2.01 1.55Zm-4.6-52.3c-.92 0-1.76-.62-2.01-1.55-.1-.37-2.5-9.01-11.28-9.01-1.15 0-2.08-.93-2.08-2.08s.93-2.08 2.08-2.08c9.63 0 14.22 7.93 15.31 12.12a2.07 2.07 0 0 1-1.49 2.53c-.17.05-.35.07-.52.07Z"/>
  <path class="cls-13" d="M249.48 381.49a2.083 2.083 0 0 1-2.02-2.6c1.08-4.19 5.67-12.13 15.31-12.13 1.15 0 2.08.93 2.08 2.08s-.93 2.08-2.08 2.08c-8.78 0-11.18 8.65-11.28 9.01a2.09 2.09 0 0 1-2.01 1.55Zm-15.82-92.19c-.77 0-1.51-.43-1.87-1.17-10.33-21.3-23.44-23.55-23.57-23.57-.72-.11-1.32-.58-1.6-1.25s-.19-1.43.23-2.02c3.04-4.21 13.96-5.33 16.12-5.52 1.16-.1 2.15.75 2.25 1.9s-.75 2.15-1.9 2.25c-2.95.25-7.12.98-10.01 2.02 5.37 2.43 14.6 8.67 22.22 24.38a2.084 2.084 0 0 1-1.87 2.99Z"/>
  <path class="cls-16" d="M303.22 464.94c-40.68 0-73.78-30.54-73.78-68.08l.12-5.32c.13-2.88.31-5.83.57-9.1.46-5.92 1.08-11.73 1.69-17.36 2.95-27.45 5.49-51.16-10.99-75.71-3.48-5.19-6.78-9.04-10.07-11.76-1.96-1.63-4.19-2.91-6.55-4.27-2.83-1.63-5.75-3.31-8.3-5.67-.25-.23-.79-.6-1.31-.96-1.65-1.13-3.36-2.29-3.87-4.02-2.78-9.29 18.46-16.46 22.74-17.8 6.67-2.09 13.03-1.05 18.59.61l4.81-31.68c.11-.71.53-1.33 1.15-1.69l35.76-20.66 21.96-42.88-19.78-25.01-20.55-.5c-.83-.02-1.59-.48-2-1.2-.41-.72-.4-1.61 0-2.33l2.64-4.6c.4-.71 10.39-17.76 39.23-17.76h.02c8.26 0 29.42 1.58 47.46 16.17 17.26 13.96 26.1 35.02 26.27 62.59 0 .39-.2 35.5 12.98 58.65.35.61.4 1.34.16 2s-.77 1.17-1.43 1.4l-14.77 5.14c3.4 9.96 17.62 50.91 27.45 67.08.51.83.45 1.9-.15 2.67s-1.6 1.1-2.54.82l-16.42-4.9 2.7 88v.07c0 37.54-33.1 68.08-73.78 68.08Zm-108.01-203.7c.32.4 1.43 1.16 2.04 1.58.7.48 1.36.93 1.86 1.4 2.15 2 4.72 3.48 7.44 5.04 2.43 1.4 4.94 2.84 7.21 4.72 3.64 3.02 7.23 7.19 10.97 12.77 17.44 25.98 14.68 51.66 11.77 78.85-.6 5.59-1.22 11.37-1.67 17.22-.25 3.21-.43 6.12-.56 8.89l-.12 5.21c0 34.88 30.98 63.31 69.06 63.31s69.04-28.41 69.06-63.33l-2.8-91.23c-.02-.76.32-1.48.92-1.94.6-.46 1.39-.6 2.11-.39l13.98 4.17c-11.15-21.38-25.13-63.17-25.77-65.09-.41-1.22.24-2.55 1.46-2.97l14.36-4.99c-12.45-24.12-12.26-57.07-12.25-58.51-.34-54.62-37.38-74.02-69.01-74.03h-.02c-26.12 0-35.04 15.23-35.13 15.38l-.67 1.18 17.7.43c.7.02 1.36.34 1.79.89l21.41 27.06c.57.72.67 1.72.25 2.54l-22.96 44.85c-.21.4-.53.74-.92.97l-35.38 20.44-5.06 33.29c-.1.69-.51 1.3-1.11 1.66-.6.36-1.32.44-1.98.22-5.44-1.84-11.87-3.46-18.34-1.43-9.69 3.04-20.27 8.82-19.66 11.84Z"/>
  <path class="cls-16" d="M299.7 407.77a2.369 2.369 0 0 1-2.3-2.93l.4-1.58c1.29-5.09 2.51-9.9.8-14.49-.13-.35-.31-.73-.55-1.19-2.58-4.84-7.5-8.13-14.61-9.78-.99-.23-2.19-.18-3.45-.14-.55.02-1.09.04-1.62.04-1.3 0-2.36-1.06-2.36-2.36s1.06-2.36 2.36-2.36c.47 0 .96-.02 1.44-.04 1.45-.05 3.08-.11 4.69.26 8.51 1.97 14.47 6.06 17.71 12.16.34.64.6 1.2.81 1.76 2.22 5.97.7 11.99-.65 17.3l-.39 1.55a2.348 2.348 0 0 1-2.29 1.79Z"/>
  <path class="cls-16" d="M292.48 415.01c-3.82 0-7.8-1.58-11.87-4.72a2.368 2.368 0 0 1-.43-3.31 2.367 2.367 0 0 1 3.31-.43c3.94 3.04 7.58 4.23 10.84 3.55 4.76-1 7.39-5.76 7.42-5.81.36-.66 1.02-1.12 1.76-1.22 5.49-.73 9.15-2.75 10.89-5.99 3.41-6.39-1.16-15.85-1.2-15.95-.5-1.03-.2-2.27.72-2.95 3.36-2.46 5.18-5.23 5.4-8.24.4-5.52-4.52-10.44-4.57-10.48-.55-.54-.8-1.31-.68-2.06 1.3-8 .13-14.09-3.46-18.08-5.35-5.95-14.55-5.5-14.64-5.51-.63.03-1.25-.18-1.71-.6s-.75-1.01-.78-1.64c-1.38-28.3-22.74-28.03-23.65-28.01-1.35.07-2.39-.99-2.43-2.29-.04-1.3.97-2.39 2.27-2.43.3 0 25.7-.51 28.36 30.28 3.71.22 10.99 1.41 16.05 7 4.43 4.91 6.05 11.93 4.81 20.88 1.76 2.03 5.56 7.16 5.13 13.25-.28 3.95-2.24 7.5-5.83 10.56 1.4 3.58 3.91 11.83.38 18.47-2.36 4.42-6.83 7.21-13.32 8.3-1.32 1.95-4.61 5.99-9.9 7.12-.95.2-1.91.31-2.88.31Z"/>
  <path class="cls-12" d="M77 315.19v-9.73c0-5.48-1.39-8.26-4.95-8.26-3.04 0-4.78 1.83-6.95 4.61l-5.48 7.04c-3.56 4.43-7.21 8-13.65 8-9.21 0-13.56-6.35-13.56-16.6v-13.56l3.22.52v12.86c0 8.43 2.95 13.47 10.34 13.47 5.13 0 8.26-2.95 11.13-6.69l5.48-7.04c2.78-3.56 5.13-5.91 9.47-5.91 5.91 0 8.17 4.43 8.17 11.39v10.43L77 315.2Zm5.21-10c0-8.78-3.04-13.65-10.34-13.65-5.13 0-8.26 2.96-11.13 6.69l-5.48 7.04c-2.78 3.56-5.13 5.91-9.47 5.91-5.91 0-8.17-4-8.17-11.21v-12.34l3.22.52v11.65c0 5.82 1.39 8.08 4.95 8.08 3.04 0 4.87-1.83 6.95-4.61l5.48-7.04c3.48-4.52 7.21-8 13.65-8 9.21 0 13.56 6.52 13.56 16.78v11.65l-3.22-.52v-10.95Zm-49.8 24.12h53.02v3.3H32.41v-3.3Zm53.02 5.39v3.3H32.41v-3.3h53.02Zm-52.57 25.19 46.64-8.82-36.61 49.21-4.78.9 29.09-38.94-32.72 6.19-.61-3.25 36.3-6.86 2.09-2.52-38.78 7.33-.61-3.25Zm49.8-9.42 4.78-.9-29.09 38.94 32.71-6.19.61 3.25-36.22 6.85-2.09 2.52 38.69-7.32.61 3.25-46.72 8.83 36.7-49.23Zm2.52 90.15L61.67 451.7l-3.63-7.71c-6.78-14.39-2.13-28.59 12.73-35.59 14.55-6.85 28.46-1.4 35.23 12.99l4.37 9.28-3.13.9-4.04-8.57c-6.04-12.82-18.29-17.61-31.03-11.61-13.05 6.15-17.16 18.65-11.12 31.47l2.11 4.48 1.81-.85-2.04-4.32c-5.52-11.72-1.84-22.87 10.27-28.57 11.79-5.56 22.74-1.3 28.26 10.42l3.78 8.02-3.13.9-3.45-7.31c-4.78-10.14-14.06-13.74-24.05-9.04-10.3 4.85-13.44 14.31-8.66 24.45l1.93 4.09 12.97-6.11-3.89-8.26 3.13-.9 5.07 10.77Zm.05-12.13 6.96 14.78-28.23 13.3-1.41-2.99 25.32-11.93-5.78-12.27 3.13-.9ZM122 455l-25.25 46.6-2.21-2.8 4.28-7.91-13.41-16.99-8.69 2.32-2.21-2.8 12.02-3.28 13.94 17.68 1.03-1.92-12.87-16.31 25.25-6.74 1.69-2.77-42.46 11.57-2.21-2.8 51.09-13.84Zm-18.82 27.8 8.72-16.18-17.6 4.92 8.88 11.26Zm21.63-28.58 4.48-1.2-28.93 53.16-2.21-2.8 26.66-49.15Zm-13.11 62.1 33.83-40.84 2.54 2.11-33.83 40.84-2.54-2.11Zm6.7 5.55-2.54-2.11 10.48-12.65 5.56 4.6c7.83 6.49 17.21 5.79 23.81-2.17 6.43-7.77 5.32-17.04-2.52-23.53l-3.01-2.5-1.27 1.54 2.88 2.38c6.83 5.66 7.82 13.59 2.05 20.55-5.99 7.23-14.1 7.62-20.8 2.08l-5.42-4.49 22.07-26.64 5.69 4.71c9.24 7.65 10.53 18.77 2.88 28.01-7.87 9.51-19.04 10.31-28.27 2.65l-3.15-2.61-8.43 10.18Zm13.81-16.67 2.74 2.27c5.42 4.49 11.62 4.1 16.34-1.59 4.49-5.42 3.73-11.59-1.69-16.08l-2.75-2.27-14.64 17.67Zm28.49 17.03c6.72-14.03 21.55-19.84 36.29-12.78 14.74 7.06 19.51 22.26 12.78 36.29-6.87 14.35-22.33 19.86-36.44 13.1s-19.51-22.26-12.63-36.6Zm46.1 22.08c5.93-12.39 1.74-25.77-11.19-31.96-12.94-6.2-25.99-1.08-31.92 11.31-6.08 12.7-1.34 26.34 11.04 32.28 12.39 5.93 25.99 1.08 32.07-11.62Zm-40.92-19.6c5.29-11.05 17.15-15.88 28.75-10.32 11.6 5.56 15.27 17.82 9.98 28.87-5.44 11.37-17.3 16.19-28.9 10.64-11.6-5.56-15.27-17.82-9.83-29.19Zm35.75 17.12c4.51-9.41 1.41-19.85-8.39-24.55-9.8-4.69-19.88-.56-24.38 8.85-4.66 9.72-1.56 20.17 8.24 24.86 9.8 4.69 19.88.56 24.53-9.16Zm16.19 32.82 10.39-52 3.24.65-10.39 52-3.24-.65Zm22.33 4.46L230.21 557l-3.87 19.35-3.24-.65 10.39-52 7.76 1.55c11.42 2.28 17.1 10.69 14.85 21.94-1.72 8.61-7.28 13.35-14.61 14.1l9.06 19.89-3.84-.77-10.11-21.7c8.25.85 14.54-3.57 16.26-12.18 1.86-9.29-2.78-16.25-12.41-18.17l-4.35-.87-.39 1.96 4.18.83c7.84 1.57 12.22 7.58 10.59 15.77-1.63 8.18-7.82 12.09-17.2 10.22l-.09-.02 10.97 23.64-4.01-.8Zm-9.06-26.54 2.98.6c7.25 1.45 11.92-1.52 13.16-7.74 1.24-6.22-2.1-10.79-8.15-12l-4.01-.8-3.98 19.95Zm36.83 29.28 1.76-53 3.3.11-1.76 53-3.3-.11Zm25.54-4.37-16.68-.55-.07 2 17.12.57.41 3.23-20.94-.7.86-25.98 19.46.65-.11 3.21-16.16-.54-.48 14.34 16.16.54.41 3.23Zm-18.4-48.45 20.94.7-.63 3.2-17.12-.57-.07 2 16.68.55-.63 3.2-16.16-.54-.44 13.38 16.16.54-.11 3.21-19.46-.65.83-25.02Zm83.85 15.96 9.41 31.94-3.17.93-10.45-35.44-2.64-1.58 11.08 37.61-3.17.93-13.49-45.78 27.85 16.99.89-1.89-29.6-18.01-1.38-4.67 32.37 19.73 16.49-34.14 1.38 4.67-18.81 38.9-16.78-10.19Zm44.77 21.52-3.17.93-9.41-31.94-10.86 22.51-2.86-1.7 17.97-37.11 13.49 45.78-3.17.93-11.08-37.61-1.36 2.76 10.45 35.44Zm26.99-12.91-27.14-45.55 2.84-1.69 27.14 45.55-2.84 1.69Zm-22.51-48.31 18-10.72 1.2 3.03-14.71 8.77 1.02 1.72 14.34-8.54 1.2 3.03-13.89 8.28 6.85 11.5 13.89-8.28 1.65 2.76-16.73 9.97-12.81-21.5Zm41.65 30.83-14.34 8.54 1.02 1.72 14.71-8.77 2.09 2.5-18 10.72-13.3-22.33 16.73-9.97 1.65 2.76-13.89 8.28 7.34 12.32 13.89-8.28 2.09 2.5Zm19.99-8.19-35.52-39.37 2.45-2.21 35.52 39.37-2.45 2.21Zm16.91-15.26-23.67-5.22 13.22 14.65-2.45 2.21-35.52-39.37 5.87-5.3c8.65-7.8 18.78-7.34 26.47 1.18 5.88 6.52 6.37 13.81 2.59 20.14l21.37 4.61-2.9 2.62-23.45-4.84c5.61-6.11 5.82-13.8-.06-20.31-6.35-7.04-14.69-7.47-21.99-.89l-3.29 2.97 1.34 1.48 3.16-2.85c5.94-5.36 13.38-5.28 18.97.92 5.59 6.2 5.03 13.49-2.07 19.9l-.06.06 25.52 5.31-3.03 2.74Zm-26.7-8.58 2.26-2.04c5.49-4.95 5.89-10.47 1.64-15.18-4.25-4.71-9.91-4.76-14.49-.62l-3.03 2.74 13.62 15.1Zm45.88-12.07-42.19-32.11 2-2.63 42.19 32.11-2 2.63Zm11.22-23.36L507 481.94l1.59 1.21 10.37-13.63 2.88 1.53-12.69 16.67-42.19-32.11 2-2.63 35.48 27.01 9.79-12.87 2.88 1.53Zm11.88-10.03-46.29-25.88 1.61-2.88 46.29 25.88-1.61 2.88Zm-43.66-30.58 1.61-2.88 46.29 25.88-1.61 2.88-46.29-25.88Zm31.86-.96c-14.83-4.72-22.63-18.61-17.67-34.18 4.96-15.57 19.35-22.39 34.18-17.67 15.16 4.83 22.75 19.38 18 34.28-4.75 14.91-19.35 22.39-34.51 17.56Zm15.51-48.7c-13.09-4.17-25.76 1.83-30.11 15.5-4.35 13.67 2.52 25.89 15.61 30.06 13.42 4.27 26.28-2.31 30.44-15.39 4.17-13.09-2.52-25.89-15.94-30.16Zm-13.77 43.23c-11.68-3.72-18.09-14.79-14.19-27.05 3.9-12.26 15.54-17.58 27.22-13.86 12.01 3.82 18.43 14.9 14.52 27.16-3.9 12.26-15.54 17.58-27.55 13.76Zm12.03-37.77c-9.94-3.16-19.86 1.34-23.15 11.69-3.3 10.35 2.19 19.76 12.13 22.93 10.27 3.27 20.19-1.23 23.48-11.59 3.3-10.35-2.19-19.76-12.46-23.03Zm-19.86-22.8-4.86-.15 36.81-31.74-33.28-1.02.1-3.3 36.84 1.13 2.58-2.01-39.36-1.21.1-3.3 47.52 1.46-46.46 40.14Zm50.65 1.56-47.44-1.46 46.37-40.14 4.87.15-36.81 31.74 33.27 1.02-.1 3.3-36.92-1.14-2.58 2.01 39.44 1.21-.1 3.3Zm-49.05-72.24c0 8.78 3.04 13.65 10.34 13.65 5.13 0 8.26-2.96 11.13-6.69l5.48-7.04c2.78-3.56 5.13-5.91 9.47-5.91 5.91 0 8.17 4 8.17 11.21v12.34l-3.22-.52v-11.65c0-5.82-1.39-8.08-4.95-8.08-3.04 0-4.87 1.83-6.95 4.61l-5.48 7.04c-3.48 4.52-7.21 8-13.65 8-9.21 0-13.56-6.52-13.56-16.78V278.9l3.22.52v10.95Zm5.21-10v9.73c0 5.48 1.39 8.26 4.95 8.26 3.04 0 4.78-1.83 6.95-4.61l5.48-7.04c3.56-4.43 7.21-8 13.65-8 9.21 0 13.56 6.35 13.56 16.6v13.56l-3.22-.52v-12.86c0-8.43-2.95-13.47-10.34-13.47-5.13 0-8.26 2.96-11.13 6.69l-5.48 7.04c-2.78 3.56-5.13 5.91-9.47 5.91-5.91 0-8.17-4.43-8.17-11.39v-10.43l3.22.52Z"/>
</svg>
