<svg xmlns="http://www.w3.org/2000/svg" id="Layer_1" data-name="Layer 1" version="1.1" width="319.575" height="396.678"><defs id="defs7"><clipPath id="clip-path"><path id="rect4" style="fill:none" d="M463.23 489.85h72.87v40.86h-72.87z"/></clipPath><style id="style2">.cls-19{fill:none}.cls-4{fill:#fff}.cls-17,.cls-5{fill:#e7d3ae}.cls-13,.cls-6{fill:#0e442e}.cls-10,.cls-17,.cls-6,.cls-8{stroke:#221f1f;stroke-linecap:round;stroke-linejoin:round;stroke-width:6.35px}.cls-8{fill:#d75f27}.cls-9{fill:#d59829}.cls-10{fill:#36715b}.cls-14{fill:#64a882}.cls-16{fill:#221f1f}.cls-19{stroke-miterlimit:10}.cls-18{fill:#231f20}.cls-19{stroke:#fff;stroke-width:1.91px}</style></defs><path class="cls-5" d="m206.138 295.829 4.87-33a8.57 8.57 0 0 1 9.32-7.29c53.64 5.23 93.77 31.85 95.46 33a8.58 8.58 0 0 1 .5 13.87l-11.9 9.31-2.05 14.28v.13a7.78 7.78 0 0 1-.17.81c0 .07 0 .14-.05.21a8.07 8.07 0 0 1-.33.94c0 .06-.06.11-.08.17-.11.24-.23.48-.36.71l-.15.27c-.13.21-.27.41-.42.61l-.14.21q-.31.39-.66.75a8.62 8.62 0 0 1-.71.63 1.33 1.33 0 0 1-.19.14 7.66 7.66 0 0 1-.66.45l-.21.13a7.29 7.29 0 0 1-.88.45l-.51.19-.33.12c-.6.19-11.17 3.38-26.82 3.38a113.08 113.08 0 0 1-19.62-1.7 8.57 8.57 0 0 1-6.5-11.81l4.54-10.28a172.36 172.36 0 0 0-34.08-6.87 8.59 8.59 0 0 1-7.9-9.81z" id="path197" style="fill:#e7d3ae"/><path class="cls-6" d="M293.838 324.829s-18.26 5.66-42.41 1.43l7.47-16.9" id="path199" style="fill:#0e442e;stroke:#221f1f;stroke-width:6.3499999px;stroke-linecap:round;stroke-linejoin:round"/><path class="cls-6" d="M293.838 324.829s-18.26 5.66-42.41 1.43l7.47-16.9" id="path201" style="fill:#0e442e;stroke:#221f1f;stroke-width:6.3499999px;stroke-linecap:round;stroke-linejoin:round"/><path class="cls-5" d="m113.438 295.829-4.87-33a8.57 8.57 0 0 0-9.32-7.29c-53.64 5.23-93.77 31.85-95.46 33a8.58 8.58 0 0 0-.5 13.87l11.9 9.31 2.05 14.28v.13a7.78 7.78 0 0 0 .17.81c0 .07 0 .14.05.21a8.07 8.07 0 0 0 .33.94c0 .06.06.11.08.17.11.24.23.48.36.71l.15.27c.13.21.27.41.42.61l.14.21q.31.39.66.75a8.62 8.62 0 0 0 .71.63l.19.14a7.66 7.66 0 0 0 .66.45l.21.13a7.29 7.29 0 0 0 .88.45l.51.19.33.12c.6.19 11.17 3.38 26.82 3.38a113.08 113.08 0 0 0 19.62-1.7 8.57 8.57 0 0 0 6.37-11.91l-4.54-10.28a172.36 172.36 0 0 1 34.19-6.77 8.59 8.59 0 0 0 7.9-9.81z" id="path203" style="fill:#e7d3ae"/><path d="M308.138 210.919a329.63 329.63 0 0 0-67.18-37.05q2.79-11.7 5.89-23.36c-2.6-.53-5.19-1-7.79-1.51a26.71 26.71 0 0 0 1.87-6.81c1.06-9.42-2.91-20.28-4.76-28.9 1.42 6.66-4.9 14.33-10.55 21.9 1.23-5.23 1.55-11.44 1-18.89 0-.58-.08-1.18-.12-1.77h1.52v-4.24h-1.81a81.06 81.06 0 0 0-2-14.35c-1.21-4.69-13-20.55-12.13-22.86l-7.16 18.42c2.59-6.76-12.65-17.57-15.71-22.68-7.28-12.16-5.8-28.25-5.8-41.81V8.579c-19.79 21.71-35.94 38.09-43 67.55 1.14-4.76-23.62-13.84-22.53-21.48-2.14 15-3.37 30.15-6.27 45q-.58 3-1.26 6a69.53 69.53 0 0 1-3.49 10.16c-10.39-13.81-20.3-27.57-17.72-39.7-3.78 17.7-11.94 40-9.77 59.37a54.83 54.83 0 0 0 3.49 13.11q-5.07.92-10.13 1.94 3.09 11.61 5.86 23.26a329.87 329.87 0 0 0-67.42 37.15c36.43 45.21 66.54 94.58 92.55 146.42l1.06-.29c.37 6.05.7 20.53 1 26.58a329.93 329.93 0 0 0 108 0c.29-6 .62-20.48 1-26.51l.81.22c26.01-51.86 56.12-101.23 92.55-146.44z" id="path205" style="fill:none;stroke:#e7d3ae;stroke-width:17.15999985px;stroke-linecap:round;stroke-linejoin:round"/><path class="cls-8" d="M111.658 99.669q-.58 3-1.26 6c-2.07 9-8.26 18.44-8.53 27.69-.33 11.22 8.26 22.69 18.2 27 21.48 9.22 47.34 8.28 69.61 2.62 27.65-7 39.08-17 37-46.6-.47-6.61-.73-13.92-2.39-20.36-1.21-4.69-13-20.55-12.13-22.86l-7.16 18.42c2.59-6.76-12.65-17.57-15.71-22.68-7.28-12.16-5.8-28.25-5.8-41.81V8.579c-19.79 21.71-35.94 38.09-43 67.55 1.14-4.76-23.62-13.84-22.53-21.48-2.17 14.99-3.41 30.15-6.3 45.02z" id="path207" style="fill:#d75f27;stroke:#221f1f;stroke-width:6.3499999px;stroke-linecap:round;stroke-linejoin:round"/><path class="cls-9" d="M144.548 139.599c-7.64-6.51-16-13.39-20.15-22.8-4.4-10-2.19-23.4-.18-33.76-.58 3 14.55 7.68 16.5 8.29a9.34 9.34 0 0 0 3.64.62c3.62-.33 5-4.31 6.45-7 6-11.45 11.44-23 18-34.1.69 7 1.41 14.06 2 21.09a26.12 26.12 0 0 0 .55 3.94 25.43 25.43 0 0 0 1.88 4.71c2.38 5 5.85 9.2 9.49 13.32a124.31 124.31 0 0 1 8.55 11.32c4.55 6.51 4.29 14.53 5.17 22.22l1.73 15.06" id="path209" style="fill:#d59829"/><path class="cls-6" d="M215.548 357.339a251.86 251.86 0 0 1-75.28-33.41c21-54.07 37.4-109.51 46.48-166.87a328.65 328.65 0 0 1 121.35 53.86c-36.39 45.21-66.5 94.58-92.55 146.42z" id="path211" style="fill:#0e442e;stroke:#221f1f;stroke-width:6.3499999px;stroke-linecap:round;stroke-linejoin:round"/><path class="cls-10" d="M155.548 313.189c16.85-45.14 31-91.12 40.45-138.4a323.55 323.55 0 0 1 90.63 40.21c-28.7 38.75-53.32 80.07-75.49 122.85a268.38 268.38 0 0 1-55.59-24.66z" id="path213" style="fill:#36715b;stroke:#221f1f;stroke-width:6.3499999px;stroke-linecap:round;stroke-linejoin:round"/><path class="cls-6" d="M103.768 357.339a252 252 0 0 0 75.28-33.41c-21-54.07-37.41-109.51-46.48-166.87a328.65 328.65 0 0 0-121.35 53.86c36.43 45.21 66.54 94.58 92.55 146.42z" id="path215" style="fill:#0e442e;stroke:#221f1f;stroke-width:6.3499999px;stroke-linecap:round;stroke-linejoin:round"/><path class="cls-10" d="M163.848 313.189c-16.85-45.14-31-91.12-40.45-138.4a323.55 323.55 0 0 0-90.67 40.21c28.7 38.75 53.32 80.07 75.49 122.85a268.38 268.38 0 0 0 55.63-24.66z" id="path217" style="fill:#36715b;stroke:#221f1f;stroke-width:6.3499999px;stroke-linecap:round;stroke-linejoin:round"/><path class="cls-6" d="M213.798 383.629a329.93 329.93 0 0 1-108 0c-3.61-76-13.42-159.56-33-233.12a431 431 0 0 1 174.07 0c-19.65 73.56-29.46 157.16-33.07 233.12z" id="path219" style="fill:#0e442e;stroke:#221f1f;stroke-width:6.3499999px;stroke-linecap:round;stroke-linejoin:round"/><path class="cls-10" d="M116.598 372.109c-4.13-68.29-12.28-144.52-27.21-211.33a459.34 459.34 0 0 1 140.84 0c-14.92 66.81-23.08 143-27.21 211.33a380.72 380.72 0 0 1-86.42 0z" id="path221" style="fill:#36715b;stroke:#221f1f;stroke-width:6.3499999px;stroke-linecap:round;stroke-linejoin:round"/><path d="M196.358 246.899c-1 19-8.95 69.59-37.1 69.54-28.15-.05-36.18-50.5-37.18-69.52-1.19-22.35 4.49-70.52 37.06-70.55 32.57-.03 38.41 48.16 37.22 70.53z" id="path223" style="fill:#64a882;stroke:#221f1f;stroke-width:6.3499999px;stroke-linecap:round;stroke-linejoin:round"/><path class="cls-8" d="M219.798 157.489c-10.49-12.49 19.29-30.49 16.37-44.2 1.85 8.62 5.82 19.48 4.76 28.9-1 8.57-10.54 26.79-20.74 15.75z" id="path225" style="fill:#d75f27;stroke:#221f1f;stroke-width:6.3499999px;stroke-linecap:round;stroke-linejoin:round"/><path id="polygon227" style="fill:#221f1f;stroke:#221f1f;stroke-width:3.18000007px;stroke-miterlimit:10" transform="translate(-340.452 -166.001)" d="M471.51 280.3v2.59h2.59v3.53h3.53v3.53h17.65v-3.77h2.12v-2.59h4.94v-3.53h2.59V277h2.59v5.42h2.83v3.53h3.29v4h20.72v-4.24h3.76v-2.59h3.06v-2.82h2.36v-2.83h18.59v3.06h6.36v-4.23h-3.77v-2.83H470.8l-2.12.47v6.36z"/><path class="cls-13" id="rect229" style="fill:#0e442e" d="M154.418 109.969h3.38v3.38h-3.38z"/><path class="cls-13" id="rect231" style="fill:#0e442e" d="M151.178 113.259h3.38v3.38h-3.38z"/><path class="cls-13" id="rect233" style="fill:#0e442e" d="M147.127 109.599h3.38v3.38h-3.38z"/><path class="cls-13" id="rect235" style="fill:#0e442e" d="M143.898 112.889h3.38v3.38h-3.38z"/><path class="cls-13" id="rect237" style="fill:#0e442e" d="M192.397 109.969h3.38v3.38h-3.38z"/><path class="cls-13" id="rect239" style="fill:#0e442e" d="M189.168 113.259h3.38v3.38h-3.38z"/><path class="cls-13" id="rect241" style="fill:#0e442e" d="M185.118 109.599h3.38v3.38h-3.38z"/><path class="cls-13" id="rect243" style="fill:#0e442e" d="M181.878 112.889h3.38v3.38h-3.38z"/><path class="cls-14" d="M86.048 268.049c-9.25-17.18-26.44-39.92-34.24-48.08l-3.26-3.38 26.25-10.59 2.38 5.89-17.63 7.11c7.34 8.53 15.26 20.65 23.59 36.12z" id="path245" style="fill:#64a882"/><path class="cls-14" d="M233.628 268.049c9.25-17.18 26.44-39.92 34.24-48.08l3.24-3.38-26.22-10.59-2.34 5.85 17.62 7.15c-7.34 8.53-15.26 20.65-23.59 36.12z" id="path247" style="fill:#64a882"/><path class="cls-14" d="M205.778 192.229c-4.09 0-7.42-4.08-7.42-9.1 0-2 5-4.82 7.1-6 2.91-1.66 5.21-3 4.67-5.71-.23-1.19-1.1-2.68-3.93-3.06-29.82-4-83.66-1-85.94-.9l-7.12.4 5.07 5a10 10 0 0 1 2.77 7.09c0 5-3.33 9.1-7.41 9.1h-3.28l1 34.62 5.51-28.7c6-1.65 10.51-7.76 10.51-15a17.17 17.17 0 0 0-1.24-6.44c13.36-.6 48.33-1.84 72.44.36-3.32 2.22-6.52 5.19-6.52 9.26 0 7.32 4.56 13.47 10.65 15.06l4.91 25.79 2-.05-.7-31.7z" id="path249" style="fill:#64a882"/><path class="cls-8" d="M122.828 166.889c21.56-25.76-39.63-62.69-33.64-90.8-3.78 17.7-11.94 40-9.77 59.37 2 17.6 21.66 55 42.6 32.35.28-.31.53-.61.81-.92z" id="path251" style="fill:#d75f27;stroke:#221f1f;stroke-width:6.3499999px;stroke-linecap:round;stroke-linejoin:round"/><path class="cls-9" d="M91.768 113.439s-2.48 15.8 11 23.94l.67-7.33s11.7 12.83 12.08 20.76c.38 7.93-2.65 17.74-9.06 13.58-6.41-4.16-11.7-12.07-14-20.75-2.3-8.68-2.91-14.73-.69-30.2z" id="path253" style="fill:#d59829"/><path class="cls-9" d="M224.938 151.349s7.31-3.81 7.31-12.39c0 .04 1.3 17.16-7.31 12.39z" id="path255" style="fill:#d59829"/><path d="M167.878 296.139a21.51 21.51 0 0 1-2.27-.11h-31.56l-6-15.8h38.8l.42.09c.45 0 3.12.19 4.74-1.24 1.23-1.09 2-3.3 2.14-6.31-.34-6.5-3.5-7.81-18.14-8.77-6.92-.45-14.06-.91-20.13-3.85-5.59-2.7-12.26-8.6-12.26-21.32v-2.47c0-10.77 4.22-16.63 7.77-19.65 6.32-5.39 14-5.15 16.6-4.89h22.23l7.91 15.8h-31.38l-.42-.08c-.45 0-3.12-.2-4.74 1.23-1.4 1.24-2.17 3.94-2.17 7.59v2.47c0 6.69 1.62 8.36 17.62 9.41 7 .46 14.32.93 20.52 4 5.27 2.59 11.47 8 12.32 19.27h.1v2.66h-.09c-.63 9.1-4.44 14.24-7.68 17a22.05 22.05 0 0 1-14.33 4.97z" id="path257" style="fill:#64a882;stroke:#221f1f;stroke-width:6.3499999px;stroke-miterlimit:10"/><path class="cls-16" id="polygon259" style="fill:#221f1f" transform="translate(-340.452 -166.001)" d="m491.58 369.25.68 16.73h7.24l-.51-16.6z"/><path class="cls-16" id="polygon261" style="fill:#221f1f" transform="translate(-340.452 -166.001)" d="m492.56 393.49 1.15 28.42 6.89.31-.88-28.8z"/><path class="cls-16" id="polygon263" style="fill:#221f1f" transform="translate(-340.452 -166.001)" d="m494.05 430.16.71 17.67h6.62l-.53-17.5z"/><path class="cls-16" id="polygon265" style="fill:#221f1f" transform="translate(-340.452 -166.001)" d="m502.17 473.59-.6-19.62h-6.56l.8 19.78z"/><path class="cls-14" id="rect267" style="fill:#64a882" d="M167.988 241.819h13.92v31.17h-13.92z"/><path class="cls-16" d="M174.308 274.999c-7.05 0-9.73-6.25-10.17-9.61v-8.27l6.35.84v6.77c.17.93.94 3.92 3.88 3.92h3v-30.8h6.35v37.15h-9.43z" id="path269" style="fill:#221f1f"/><path class="cls-16" id="polyline271" style="fill:#221f1f" transform="translate(-340.452 -166.001)" d="M524.19 403.85h-11.37l5.69 8.44"/><path class="cls-6" d="M25.738 324.829s18.26 5.66 42.41 1.43l-7.47-16.9" id="path273" style="fill:#0e442e;stroke:#221f1f;stroke-width:6.3499999px;stroke-linecap:round;stroke-linejoin:round"/><path class="cls-17" d="M99.868 297.079s-39.19 3-74.13 27.75l-2.55-17.83-14.64-11.4s35-26.48 87.05-31.56z" id="path275" style="fill:#e7d3ae;stroke:#221f1f;stroke-width:6.3499999px;stroke-linecap:round;stroke-linejoin:round"/><path class="cls-6" d="M25.738 324.829s18.26 5.66 42.41 1.43l-7.47-16.9" id="path277" style="fill:#0e442e;stroke:#221f1f;stroke-width:6.3499999px;stroke-linecap:round;stroke-linejoin:round"/><path class="cls-18" d="m56.218 291.909 3.77-12 6.72-2.36-6 18.82-5.26 1.84-16.4-11 6.73-2.35z" id="path279" style="fill:#231f20"/><path class="cls-17" d="M219.708 297.079s39.19 3 74.13 27.75l2.55-17.8 14.61-11.43s-35-26.48-87.05-31.56z" id="path281" style="fill:#e7d3ae;stroke:#221f1f;stroke-width:6.3499999px;stroke-linecap:round;stroke-linejoin:round"/><path class="cls-4" id="polyline283" style="fill:#fff" transform="translate(-340.452 -166.001)" d="m362.8 461.81 10.16-4.66 9.75 3.81-9.32 15.25-1.7-9.53"/><path class="cls-4" id="polyline285" style="fill:#fff" transform="translate(-340.452 -166.001)" d="m636.82 461.81-10.17-4.66-9.74 3.81 9.32 15.25 1.7-9.53"/><path class="cls-19" id="line287" style="fill:none;stroke:#fff;stroke-width:1.90999997px;stroke-miterlimit:10" d="m68.938 278.119 23.94-4.34"/><path class="cls-19" id="line289" style="fill:none;stroke:#fff;stroke-width:1.90999997px;stroke-miterlimit:10" d="m67.038 285.109 26.79-4.66"/><path class="cls-19" id="line291" style="fill:none;stroke:#fff;stroke-width:1.90999997px;stroke-miterlimit:10" d="m64.968 293.849 29.82-6.41"/><path class="cls-19" id="line293" style="fill:none;stroke:#fff;stroke-width:1.90999997px;stroke-miterlimit:10" d="m250.438 278.119-23.94-4.34"/><path class="cls-19" id="line295" style="fill:none;stroke:#fff;stroke-width:1.90999997px;stroke-miterlimit:10" d="m252.337 285.109-26.789-4.66"/><path class="cls-19" id="line297" style="fill:none;stroke:#fff;stroke-width:1.90999997px;stroke-miterlimit:10" d="m254.407 293.849-29.82-6.41"/><path class="cls-5" id="polyline299" style="fill:#e7d3ae" transform="translate(-340.452 -166.001)" d="m405.74 463.5 10.01-24.14-6.99 2.38-5.56 21.76"/><path class="cls-5" d="M254.698 275.899s-20.33 2.12-8.47 19.48c11.86 17.36 17.37-18.21 17.37-18.21" id="path301" style="fill:#e7d3ae"/><path class="cls-18" d="M259.888 294.629a9.68 9.68 0 0 0 7-.36l2.66 3.49a15.27 15.27 0 0 1-10.47.49 16 16 0 0 1-8.31-5.1 7.68 7.68 0 0 1-1.73-7.3c.73-2.52 2.54-4.27 5.45-5.26a15.58 15.58 0 0 1 9.58 0 15.75 15.75 0 0 1 8.86 6l-4.08 1.72a10.32 10.32 0 0 0-11.11-4.13 4.48 4.48 0 0 0-3.22 3.15 4.64 4.64 0 0 0 .9 4.39 8.39 8.39 0 0 0 4.47 2.91z" id="path303" style="fill:#231f20"/><g clip-path="url(#clip-path)" id="g335" transform="translate(-340.452 -166.001)" style="clip-path:url(#clip-path)"><path class="cls-14" d="M521.88 552.56a7.57 7.57 0 0 0-15.14 0 7.42 7.42 0 0 0 1.07 3.85l-11.33 8.88a7.6 7.6 0 0 1-3.88 1.34h-21.71a1.25 1.25 0 0 1-1.25-1.25v-21.19a4 4 0 0 1 1.59-2.89l8.08-5.14a7.56 7.56 0 1 0-2.31-5.46 7.58 7.58 0 0 0 .7 3.17l-7.95 5.06a6.71 6.71 0 0 0-2.89 5.26v21.19a4.06 4.06 0 0 0 4.06 4.06h21.68a10.3 10.3 0 0 0 5.61-1.93l11.46-9a7.56 7.56 0 0 0 12.21-6zM484.54 526a4.76 4.76 0 1 1-4.76 4.75 4.75 4.75 0 0 1 4.76-4.75zm25 26.61a4.76 4.76 0 1 1 4.76 4.76 4.76 4.76 0 0 1-4.75-4.81z" id="path305" style="fill:#64a882"/><path class="cls-14" d="M498 522.11v17.19a4.39 4.39 0 0 1-1.57 3l-6.68 4.77a7.56 7.56 0 1 0 2.33 5.45 7.42 7.42 0 0 0-.7-3.16l6.68-4.77a7.12 7.12 0 0 0 2.75-5.33v-17.15a4.43 4.43 0 0 1 1.57-3.05l6.68-4.76a7.66 7.66 0 1 0-1.63-2.29l-6.68 4.76a7.14 7.14 0 0 0-2.75 5.34zm-13.48 35.21a4.76 4.76 0 1 1 4.75-4.76 4.76 4.76 0 0 1-4.73 4.76zm29.77-53.23a4.76 4.76 0 1 1-3.63 7.82 1.47 1.47 0 0 0-.17-.36 1.48 1.48 0 0 0-.28-.28 4.67 4.67 0 0 1-.68-2.43 4.76 4.76 0 0 1 4.78-4.75z" id="path307" style="fill:#64a882"/><path class="cls-14" d="M532.42 496a4.06 4.06 0 0 0-4.06-4.06h-21.71a10.31 10.31 0 0 0-5.65 1.96l-11.62 9.1a7.54 7.54 0 1 0 1.79 2.17l11.61-9.1a7.53 7.53 0 0 1 3.87-1.33h21.71a1.25 1.25 0 0 1 1.25 1.24v21.2a4 4 0 0 1-1.59 2.89l-8.32 5.29a7.53 7.53 0 1 0 1.57 2.33l8.26-5.25a6.74 6.74 0 0 0 2.89-5.26zm-47.88 17.6a4.76 4.76 0 1 1 4.75-4.76 4.76 4.76 0 0 1-4.75 4.76zm29.77 21.86a4.76 4.76 0 1 1 4.76-4.76 4.76 4.76 0 0 1-4.76 4.76z" id="path309" style="fill:#64a882"/><path class="cls-14" d="M469.64 496a1.25 1.25 0 0 1 1.25-1.24h12.52V492h-12.52a4.06 4.06 0 0 0-4.06 4.06v21.09h2.81z" id="path311" style="fill:#64a882"/><path class="cls-14" d="M532.42 565.38V543h-2.81v22.37a1.25 1.25 0 0 1-1.25 1.25h-12.81v2.81h12.81a4.06 4.06 0 0 0 4.06-4.05z" id="path313" style="fill:#64a882"/><path class="cls-14" id="rect315" style="fill:#64a882" d="M466.83 520.1h2.81v3.17h-2.81z"/><path class="cls-14" id="rect317" style="fill:#64a882" d="M466.83 525.36h2.81v3.17h-2.81z"/><path class="cls-14" id="rect319" style="fill:#64a882" d="M466.83 530.62h2.81v3.17h-2.81z"/><path class="cls-14" id="rect321" style="fill:#64a882" d="M486.96 491.96h3.17v2.81h-3.17z"/><path class="cls-14" id="rect323" style="fill:#64a882" d="M492.22 491.96h3.17v2.81h-3.17z"/><path class="cls-14" id="rect325" style="fill:#64a882" d="M503.95 566.63h3.17v2.81h-3.17z"/><path class="cls-14" id="rect327" style="fill:#64a882" d="M509.21 566.63h3.17v2.81h-3.17z"/><path class="cls-14" id="rect329" style="fill:#64a882" d="M529.61 526.3h2.81v3.17h-2.81z"/><path class="cls-14" id="rect331" style="fill:#64a882" d="M529.61 531.55h2.81v3.17h-2.81z"/><path class="cls-14" id="rect333" style="fill:#64a882" d="M529.61 536.81h2.81v3.17h-2.81z"/></g></svg>