<svg xmlns="http://www.w3.org/2000/svg" id="Layer_1" data-name="Layer 1" version="1.1" width="412.122" height="380.076"><defs id="defs4"><style id="style2">.cls-4{fill:#c0c5ce}.cls-12,.cls-4,.cls-5,.cls-6{stroke:#5685ef}.cls-10,.cls-12,.cls-13,.cls-4,.cls-5,.cls-6{stroke-linecap:round;stroke-linejoin:round}.cls-4{stroke-width:14.5px}.cls-10,.cls-12,.cls-5,.cls-9{fill:#3a3a3a}.cls-5,.cls-6,.cls-9{stroke-width:8.76px}.cls-13,.cls-6{fill:none}.cls-7{fill:#133cd1}.cls-9{stroke:#f71ef7;stroke-miterlimit:10}.cls-10{stroke:#3a3a3a;stroke-width:2.12px}.cls-11{fill:#5685ef}.cls-12,.cls-13{stroke-width:6.05px}.cls-13{stroke:#c0c5ce}</style></defs><path class="cls-4" d="M127.312 227.86h.05c1.81-46.54 7.7-94.69 21.71-139.24 9-28.74 25.95-71.36 61.57-73.39 0 0 78.69-22.8 93.48 212.59h26.37c-.25 0-8.58-53.33-9.33-57-5.78-28.32-13.1-56.52-23.67-83.46-8-20.33-17.84-40.84-32.52-57.25-28.44-31.8-74.48-28.56-104.3-1.94-29.17 26-52.09 105.39-57.56 147.06-2.29 17.45-5.34 35.12-6.75 52.66z" id="path174" style="fill:#c0c5ce;stroke:#5685ef;stroke-width:14.5px;stroke-linecap:round;stroke-linejoin:round"/><path class="cls-5" d="M28.522 63.05h216.76v30.17h-186.6a30.17 30.17 0 0 1-30.17-30.17v0z" id="path176" style="fill:#3a3a3a;stroke:#5685ef;stroke-width:8.76000023px;stroke-linecap:round;stroke-linejoin:round"/><path class="cls-5" d="M56.392 93.22h216.76v30.17h-186.6a30.17 30.17 0 0 1-30.17-30.17v0z" id="path178" style="fill:#3a3a3a;stroke:#5685ef;stroke-width:8.76000023px;stroke-linecap:round;stroke-linejoin:round"/><path class="cls-5" d="M84.262 123.39h196.8v30.17h-166.64a30.17 30.17 0 0 1-30.17-30.17v0z" id="path180" style="fill:#3a3a3a;stroke:#5685ef;stroke-width:8.76000023px;stroke-linecap:round;stroke-linejoin:round"/><path class="cls-5" d="M112.132 153h138.7v30.17h-108.54a30.17 30.17 0 0 1-30.16-30.17z" id="path182" style="fill:#3a3a3a;stroke:#5685ef;stroke-width:8.76000023px;stroke-linecap:round;stroke-linejoin:round"/><circle class="cls-5" cx="249.492" cy="122.8" r="59.28" id="circle184" style="fill:#3a3a3a;stroke:#5685ef;stroke-width:8.76000023px;stroke-linecap:round;stroke-linejoin:round"/><path class="cls-6" id="polyline186" style="fill:none;stroke:#5685ef;stroke-width:8.76000023px;stroke-linecap:round;stroke-linejoin:round" transform="translate(-289.938 -177)" d="M598.71 299.8H480.14h0"/><path class="cls-6" id="line188" style="fill:none;stroke:#5685ef;stroke-width:8.76000023px;stroke-linecap:round;stroke-linejoin:round" d="M249.492 63.52v118.56"/><path class="cls-6" d="M286.462 76.47s-20 19-52.52 17.11h-36.88" id="path190" style="fill:none;stroke:#5685ef;stroke-width:8.76000023px;stroke-linecap:round;stroke-linejoin:round"/><path class="cls-6" d="M286.462 169.14s-20-19.06-52.52-17.11h-36.88" id="path192" style="fill:none;stroke:#5685ef;stroke-width:8.76000023px;stroke-linecap:round;stroke-linejoin:round"/><circle class="cls-7" cx="249.492" cy="122.8" r="59.28" id="circle194" style="fill:#133cd1"/><path class="cls-7" d="M224.812 67.61c-20.26 8.65-34.61 30.1-34.61 55.19 0 25.68 15 47.55 36 55.78 20.26-8.65 34.6-30.1 34.6-55.19.03-25.68-14.99-47.55-35.99-55.78z" id="path196" style="fill:#133cd1"/><path d="M240.062 67.61c-29.19 8.65-49.86 30.1-49.86 55.19 0 25.68 21.64 47.55 51.91 55.78 29.19-8.65 49.85-30.1 49.85-55.19 0-25.68-21.64-47.55-51.9-55.78z" id="path198" style="fill:#3a3a3a"/><path class="cls-6" id="polyline200" style="fill:none;stroke:#5685ef;stroke-width:8.76000023px;stroke-linecap:round;stroke-linejoin:round" transform="translate(-289.938 -177)" d="M598.71 299.8H480.14h0"/><path class="cls-9" id="line202" style="fill:#3a3a3a;stroke:#f71ef7;stroke-width:8.76000023px;stroke-miterlimit:10" d="M161.112 123.39h112.04"/><path class="cls-6" id="line204" style="fill:none;stroke:#5685ef;stroke-width:8.76000023px;stroke-linecap:round;stroke-linejoin:round" d="M249.492 63.52v118.56"/><path class="cls-6" d="M286.462 76.47s-20 19-52.52 17.11h-36.88" id="path206" style="fill:none;stroke:#5685ef;stroke-width:8.76000023px;stroke-linecap:round;stroke-linejoin:round"/><path class="cls-6" d="M286.462 169.14s-20-19.06-52.52-17.11h-36.88" id="path208" style="fill:none;stroke:#5685ef;stroke-width:8.76000023px;stroke-linecap:round;stroke-linejoin:round"/><circle class="cls-6" cx="249.492" cy="122.8" r="59.28" id="circle210" style="fill:none;stroke:#5685ef;stroke-width:8.76000023px;stroke-linecap:round;stroke-linejoin:round"/><path class="cls-9" id="line212" style="fill:#3a3a3a;stroke:#f71ef7;stroke-width:8.76000023px;stroke-miterlimit:10" d="M222.222 93.58H87.352"/><path class="cls-9" id="line214" style="fill:#3a3a3a;stroke:#f71ef7;stroke-width:8.76000023px;stroke-miterlimit:10" d="M132.722 152.99h25.36"/><path class="cls-5" id="line216" style="fill:#3a3a3a;stroke:#5685ef;stroke-width:8.76000023px;stroke-linecap:round;stroke-linejoin:round" d="M28.522 63.05H4.442"/><path class="cls-4" d="M217.132 7.32c-20-.88-40.55 6.67-56.46 20.87-29.17 26-52.09 105.39-57.56 147.06-2.29 17.45-5.34 35.12-6.75 52.66l30.95-.05h.05c1.81-46.54 7.7-94.69 21.71-139.24 9-28.74 25.95-71.36 61.57-73.39a23.34 23.34 0 0 1 6.49-.59z" id="path218" style="fill:#c0c5ce;stroke:#5685ef;stroke-width:14.5px;stroke-linecap:round;stroke-linejoin:round"/><path class="cls-10" d="M116.562 263.06v-.16h-23.77v64.77h8.95V310.9h10.57c7.25 0 11-1.94 11.14-2 7.81-3.81 12.28-11.68 12.28-21.6 0-13.89-7.48-23.3-19.17-24.24zm9.95 23.62c0 6.94-3.81 14.65-12.2 15.18h-12.57v-29.92h13.41c9.91 1.32 11.36 9.79 11.36 14.74z" id="path220" style="fill:#3a3a3a;stroke:#3a3a3a;stroke-width:2.11999989px;stroke-linecap:round;stroke-linejoin:round"/><path class="cls-10" id="rect222" style="fill:#3a3a3a;stroke:#3a3a3a;stroke-width:2.11999989px;stroke-linecap:round;stroke-linejoin:round" d="M157.432 262.99h9.22v64.68h-9.22z"/><path class="cls-10" d="M221.952 308.9c7.81-3.81 12.28-11.69 12.28-21.6 0-13.89-7.47-23.26-19.17-24.24v-.16h-23.77v64.77h8.95V310.9h12l11.82 16.5h11.07l-13.22-18.48zm3.24-22.22c0 9.89-6.41 14.8-12.38 15.18h-12.57v-29.92h13.41c10.41 1.39 11.54 10.76 11.54 14.74z" id="path224" style="fill:#3a3a3a;stroke:#3a3a3a;stroke-width:2.11999989px;stroke-linecap:round;stroke-linejoin:round"/><path class="cls-10" id="rect226" style="fill:#3a3a3a;stroke:#3a3a3a;stroke-width:2.11999989px;stroke-linecap:round;stroke-linejoin:round" d="M255.952 262.99h9.22v64.68h-9.22z"/><path class="cls-10" id="polygon228" style="fill:#3a3a3a;stroke:#3a3a3a;stroke-width:2.11999989px;stroke-linecap:round;stroke-linejoin:round" transform="translate(-289.938 -177)" d="M592.53 504.67h9.21v-56.44h18.73v-8.33H574.6v8.33h17.93z"/><path class="cls-10" d="M43.592 277.47c-7.4-.42-13-2.62-16.31-6.37-2.48-2.84-3.55-6.49-3.2-10.92.22-7.84 8.84-13.32 21-13.32 6.38 0 15.17 4.67 17.62 8.34l.44.66 11.77-3.67-.75-1.17c-5.49-8.57-16.1-14.2-28.4-15.08-10.18-.51-19.72 2.71-26.14 8.82a22.45 22.45 0 0 0-7.35 16.24 24.57 24.57 0 0 0 8.87 19.37c5.27 4.46 12.73 7.24 21 7.85a4 4 0 0 0 1.24.14c11.12 0 19.83 6.5 19.83 14.8 0 7.18-6.94 14.42-22.47 14.42-8.85 0-17.67-6.6-19.63-12.49l-.31-.91-11.51 2.61.37 1.11c3.79 11.51 16.26 19.85 31 20.73.9 0 1.79.08 2.67.08 9.87 0 18.76-3.12 24.67-8.71a22 22 0 0 0 7.13-16.34c.04-14.6-12.65-25.14-31.54-26.19z" id="path230" style="fill:#3a3a3a;stroke:#3a3a3a;stroke-width:2.11999989px;stroke-linecap:round;stroke-linejoin:round"/><path class="cls-10" d="M379.442 277.47c-7.4-.42-13-2.62-16.31-6.37-2.48-2.84-3.55-6.49-3.2-10.92.22-7.84 8.84-13.32 21-13.32 6.38 0 15.17 4.67 17.62 8.34l.44.66 11.77-3.67-.75-1.17c-5.49-8.57-16.1-14.2-28.4-15.08-10.19-.51-19.72 2.71-26.14 8.82a22.45 22.45 0 0 0-7.35 16.24 24.57 24.57 0 0 0 8.87 19.37c5.27 4.46 12.73 7.24 21 7.85a4 4 0 0 0 1.24.14c11.12 0 19.83 6.5 19.83 14.8 0 7.18-6.94 14.42-22.47 14.42-8.85 0-17.67-6.6-19.63-12.49l-.31-.91-11.51 2.61.37 1.11c3.79 11.51 16.26 19.85 31 20.73.9 0 1.79.08 2.67.08 9.87 0 18.76-3.12 24.67-8.71a22 22 0 0 0 7.21-16.31c0-14.63-12.73-25.17-31.62-26.22z" id="path232" style="fill:#3a3a3a;stroke:#3a3a3a;stroke-width:2.11999989px;stroke-linecap:round;stroke-linejoin:round"/><path class="cls-11" d="M113.412 378.41v-7.66c1.55 1.55 3.38 2.83 5.66 2.83a3.52 3.52 0 0 0 3.83-3.55c0-7-14.49-8.33-14.49-19.1 0-7.33 6.11-11.43 12.94-11.43 6 0 12.21 3.83 12.21 10.38a8.4 8.4 0 0 1-5.22 7.77l-4.5-4.17c1.45-.66 2.72-1.6 2.72-3.38 0-2.94-2.49-4.44-5.21-4.44-3 0-6.06 2.05-6.06 5.27 0 6.5 14.38 8.77 14.38 19.1 0 6.33-4.49 10-10.6 10a9.35 9.35 0 0 1-5.66-1.62z" id="path234" style="fill:#5685ef"/><path class="cls-11" d="M139.612 372.14v-7.77h-5.22v-6h5.22v-9.93h6.32v9.93h5.39v6h-5.39v6.88c0 1.66.73 3.22 2.56 3.22a5.72 5.72 0 0 0 2.83-1v5.11a6.61 6.61 0 0 1-4.26 1.42c-5 0-7.45-3.09-7.45-7.86z" id="path236" style="fill:#5685ef"/><path class="cls-11" d="M157.922 375.69a4.36 4.36 0 1 1 4.39 4.33 4.36 4.36 0 0 1-4.39-4.33z" id="path238" style="fill:#5685ef"/><path class="cls-11" d="M207.062 379.52h-21.33v-6.16c3.89 0 6.05-2.17 6.05-5.61V352.1c0-7.39 5.27-12.6 12.66-12.6 7.39 0 12.77 4.44 12.77 12.15 0 3.28-2.39 7.83-5.22 9.5l-5-4.28a5.78 5.78 0 0 0 3.28-5.22 5.56 5.56 0 0 0-5.83-5.66c-3.22 0-5.67 3-5.67 6.11v16a6.88 6.88 0 0 1-2.66 5.39h10.49c4.11 0 6.55-.61 9.72-3.28l3.66 4.67c-3.77 4.2-7.55 4.64-12.92 4.64z" id="path240" style="fill:#5685ef"/><path class="cls-11" d="M244.292 369a11 11 0 1 1-11.05-11.1 11.07 11.07 0 0 1 11.05 11.1zm-5.33 0v-.28a4.31 4.31 0 0 1-6.44-3.77 4 4 0 0 1 .34-1.67 5.71 5.71 0 0 0 .38 11.38 5.69 5.69 0 0 0 5.72-5.66z" id="path242" style="fill:#5685ef"/><path class="cls-11" d="M274.062 373.52v5.11a8.15 8.15 0 0 1-4.78 1.39 6.13 6.13 0 0 1-5.44-3.66 6.41 6.41 0 0 1-6.1 3.71 7.5 7.5 0 0 1-7.39-7.77v-13.88h6.33v13.22c0 1.66.89 3.11 2.72 3.11 2.11 0 3.39-1.73 3.78-3.89v-12.44h6.33v14a2 2 0 0 0 2.22 2 3.68 3.68 0 0 0 2.33-.9z" id="path244" style="fill:#5685ef"/><path class="cls-11" d="M276.762 349.71a4.36 4.36 0 1 1 4.39 4.39 4.4 4.4 0 0 1-4.39-4.39zm7.3 30.29c-3.66 0-6.05-3.33-6.05-6.77v-14.81h6.27v14a2 2 0 0 0 2.22 2 3.47 3.47 0 0 0 2.34-.89v5.11a8.17 8.17 0 0 1-4.78 1.36z" id="path246" style="fill:#5685ef"/><path class="cls-11" d="M291.472 379v-5.88a5.18 5.18 0 0 0 2.94 1.5 1.84 1.84 0 0 0 2-1.89c0-2.22-3.5-4.77-3.5-7.88a7.19 7.19 0 0 1 4.55-7l3.56 4.33a2.85 2.85 0 0 0-1.84 2.67c0 2.05 3.5 4.5 3.5 8.55 0 3.72-2.5 6.66-6.27 6.66a10.67 10.67 0 0 1-4.94-1.06z" id="path248" style="fill:#5685ef"/><path class="cls-12" d="M31.402 355s4.28 4.7 10.33 0a11.76 11.76 0 0 1 4.58-2.35c4.19-.94 6.19 2.4 9.21 4.45 3.02 2.05 6.57 1.3 9.32-.84 0 0 6.5-5.74 11.34 0" id="path250" style="fill:#3a3a3a;stroke:#5685ef;stroke-width:6.05000019px;stroke-linecap:round;stroke-linejoin:round"/><path class="cls-13" d="M55.522 373.17c3 2 6.57 1.3 9.32-.83 0 0 6.5-5.74 11.34 0" id="path252" style="fill:none;stroke:#c0c5ce;stroke-width:6.05000019px;stroke-linecap:round;stroke-linejoin:round"/><path class="cls-12" d="M379.472 355s-4.28 4.7-10.32 0a11.76 11.76 0 0 0-4.58-2.35c-4.2-.94-6.19 2.4-9.22 4.45-3.03 2.05-6.56 1.3-9.31-.84 0 0-6.51-5.74-11.34 0" id="path254" style="fill:#3a3a3a;stroke:#5685ef;stroke-width:6.05000019px;stroke-linecap:round;stroke-linejoin:round"/><path class="cls-13" d="M355.352 373.17c-3 2-6.56 1.3-9.31-.83 0 0-6.51-5.74-11.34 0" id="path256" style="fill:none;stroke:#c0c5ce;stroke-width:6.05000019px;stroke-linecap:round;stroke-linejoin:round"/></svg>