<svg xmlns="http://www.w3.org/2000/svg" id="Layer_1" width="588.3" height="463.7" version="1.1"><defs id="defs5451"><linearGradient id="linear-gradient" x1="295.9" x2="295.9" y1="295.6" y2="121.1" gradientUnits="userSpaceOnUse"><stop id="stop5442" offset="0" stop-color="#fcce00"/><stop id="stop5444" offset=".5" stop-color="#da3000"/><stop id="stop5446" offset=".8" stop-color="#850101"/><stop id="stop5448" offset="1" stop-color="#890900"/></linearGradient><style id="style5440">.cls-2{stroke-miterlimit:10}.cls-2,.cls-3{fill:none;stroke:#817161;stroke-width:7.06px}.cls-5{fill:#f65e00}.cls-7{fill:#ffe468}.cls-9{fill:#b1a092}.cls-10{fill:#d5c6bb}.cls-11{fill:#1d2605}.cls-12{fill:#5a5734}.cls-13{fill:#817e5d}.cls-3{stroke-linecap:round;stroke-linejoin:round}</style></defs><g id="g5661" transform="translate(-5.8 -68.1)"><path id="path5455" fill="#1d2605" d="M415.2 114.5A127 127 0 0 0 324.8 77h-15.3l-15.8-9-15.1 9H267a127 127 0 0 0-90.4 37.5A127 127 0 0 0 139 205v57.8a127 127 0 0 0 37.6 90.4 127 127 0 0 0 90.4 37.6h57.8a127 127 0 0 0 90.4-37.6 127 127 0 0 0 37.5-90.4V205a127 127 0 0 0-37.5-90.4z" class="cls-11"/><g id="g5461"><path id="path5457" fill="#1d2605" d="M267 101.5h57.8c57 0 103.4 46.3 103.4 103.4v57.8c0 57-46.4 103.4-103.4 103.4H267c-57 0-103.4-46.3-103.4-103.4v-57.8c0-57 46.3-103.4 103.4-103.4z" class="cls-11"/><path id="path5459" fill="#ffe468" d="M324.8 104c26.8 0 52.1 10.6 71.2 29.7a100.1 100.1 0 0 1 29.6 71.2v57.8c0 26.9-10.5 52.1-29.6 71.3a100.1 100.1 0 0 1-71.2 29.6H267c-26.9 0-52.1-10.5-71.3-29.6a100.1 100.1 0 0 1-29.6-71.3V205c0-26.8 10.5-52.1 29.6-71.2A100.1 100.1 0 0 1 267 104h57.8m0-5H267a106.2 106.2 0 0 0-106 106v57.7c0 58.3 47.7 106 106 106h57.8c58.2 0 105.9-47.7 105.9-106V205c0-58.2-47.7-105.9-106-105.9z" class="cls-7"/></g><g id="g5545"><path id="rect5463" fill="#1d2605" d="M113.7 324.9h397.6v49.9H113.7z" class="cls-11"/><path id="path5465" fill="#1d2605" d="M435.5 522.5c31.4 0 35.5-29.3 35.5-29.3l1 .2 12.4-75H115.9l12.5 75v.3c.6 3.3 6.1 29 35.5 29h113.8l19.9 9.2 21.6-9.2h112.1a35 35 0 0 1 4.2-.2z" class="cls-11"/><g id="g5543"><path id="path5467" fill="#1d2605" d="m594.1 380.8-17.6-7.8-2-48.6-18.3-1c-14.5-.6-24-1-30.9-1a49.6 49.6 0 0 0-27.8 8.3l-86.1.2v.2c-4-.4-7.7-.6-11.3-.6-7.1 0-13.8 1.5-19.7 4.3l-.2-5.3-20.8 1.5h-6.6l-7.3.1h-13.1l-21.2-1.6v1.6H308v-.2l-58.7.5-1-.2a666.8 666.8 0 0 0-14.8-.2c-11.9 0-13.4.3-14.7.5l-12 1.9-1.8-2.2h-45.7v2.1a45.5 45.5 0 0 0-35.5.7v-7.7L99 324.6a149 149 0 0 0-23.7-2.1 50.1 50.1 0 0 0-43.7 24.9 73.7 73.7 0 0 0-9 22.5L5.9 388.4 22 406.2c2 10.4 6 19.6 11.8 27.6a51.4 51.4 0 0 0 77 7.9l.1-.1 3.2-3.2a45.9 45.9 0 0 0 49.4 4.2l15.5 3.3c2.5.5 2.8.5 16.2.5h3.7c9.4 0 13.3-.4 17.2-2.1l3.8-1.7 2.4 3H259v-24.2l8 24.9h42.1l2.5-7.2v7.3l69-.5v-3a47 47 0 0 0 20.4 4.5c9.4 0 18-2.8 25.8-8.4v4.9l17.8 2c2 .3 3.6.3 4.7.3h23c2.6 0 5-.2 7.5-.8l.2 5.4 17.4 1.8c22.4 2.4 28 2.7 30.7 2.7a51.2 51.2 0 0 0 51.6-50 47 47 0 0 0-.5-7l15-17.5z" class="cls-11"/><path id="path5469" fill="#ffe468" d="m69.2 388.3-8 9.2c.7 4.5 1.8 8.7 3.4 12.5 3.5 8.5 8.5 12.7 15.4 12.7 5 0 9.4-2 13-6.2 3.6-3.8 5.7-8.4 6.7-14l8.2 3.3a32.6 32.6 0 0 1-10.6 21 31.4 31.4 0 0 1-47.2-5 49 49 0 0 1-9-24.5l-8-8.9 8.5-9.2a55.2 55.2 0 0 1 7.3-21.4 29.4 29.4 0 0 1 26.5-15.2c6.3 0 13.4.6 21.4 2l6.9.5V375l-6.7.2c-3-14.8-9-22.2-17.8-22.2-6.4 0-11.4 4.3-14.7 12.8a52 52 0 0 0-3.4 13.5l8 9z" class="cls-7"/><path id="path5471" fill="#ffe468" d="m178 388.4-6.8 7.8c-1 7.2-3.4 13.6-7.2 19.2a26 26 0 0 1-22.2 12.4c-9 0-16-4.1-21.7-12.4-4-5.9-6.5-12.5-7.5-19.8l-6.4-7 6.6-7.4c1-6.8 3.5-13 7.4-18.6a26.2 26.2 0 0 1 22.2-12.5c9 0 16 4.2 21.6 12.5a42.6 42.6 0 0 1 7.1 18.2l6.8 7.6zm-32.7.1 7-7.5c-.4-2.7-.7-5.4-1.3-8.2-1.8-8.7-4.7-13-8.6-13-6.2 0-10 7-11.2 21.2l6.7 7.4-6.8 8c.3 3.7 1.1 7.5 2.1 11.3 2.2 7.8 5.2 11.6 9.2 11.6 6.3 0 9.6-7.7 10.2-23h-.2l-7-7.8z" class="cls-7"/><path id="path5473" fill="#ffe468" d="m238.9 381 6.7 7.4-6.7 7.8v29.3h-7l-31.3-39.3v22.9c0 6.5 2.5 9.6 7.5 9.4v7.3c-.9.4-5.2.6-12.7.5h-12.1v-7.6c3.8-.4 6.5-3.8 6.5-8.2v-14.3l-.2.1-7-7.8 7-7.8.2.2V373c0-3.7-.9-6.6-2.5-9a8.9 8.9 0 0 0-7.9-3.7v-9h16l33.5 41.9v-23.9c0-6.6-2.3-9.8-7-9.8v-8.1c.7-.1 4.6-.2 11.8-.2h11.9v8.5c-3.8 0-6.7 3.1-6.7 7.3v14z" class="cls-7"/><path id="path5475" fill="#ffe468" d="m309.7 381.7 6 6.8-11 8-10 29.6h-13l-9.6-29.7-10.4-7.9 5.7-6.3-3.6-11.3c-2.3-7.2-6-10.7-11.4-10.7v-8.7l35.7-.3.1 8.6c-2 0-3.8.5-5.2 1.4a5 5 0 0 0-2.8 4.7c0 1.5 1.9 7.9 5.7 19.1l7 20.6 11.7-35.6c.5-1.3.7-2.6.7-3.7 0-4-2.2-6.1-6.6-6.6v-8.4H324v8.6h-.6c-4.2 0-7.4 3.4-9.8 10.3l-3.9 11.6z" class="cls-7"/><path id="path5477" fill="#ffe468" d="m354.3 381 6.6 7.4-6.6 7.7v15.2c0 4.8 2 7.4 6.2 8.1v6.5l-28.8.2v-6.7c4-.3 6.4-4.1 6.4-8.6v-14.5l-7-7.8 7-7.7v-11.6c0-7.1-2.5-10.5-7.4-10l.2-8h14.9c8.6 0 13.6 0 15-.2l.3 8.2c-4 .1-6.8 3.2-6.8 7.5V381z" class="cls-7"/><path id="path5479" fill="#ffe468" d="m395 388.4-6.6 7.6c.5 3.8 1.4 7.2 2.7 10.4 3 7 7.1 10.5 12.8 10.5a14 14 0 0 0 10.8-5.2c2.9-3.1 4.7-7 5.5-11.5l6.7 2.7a27 27 0 0 1-8.7 17.3 26 26 0 0 1-39-4.1 39.8 39.8 0 0 1-7.4-20.3l-6.6-7.3 7-7.6a47 47 0 0 1 6-17.7 24.3 24.3 0 0 1 21.9-12.5c5.2 0 11 .5 17.7 1.6l5.7.4v24.7l-5.5.2c-2.5-12.2-7.5-18.3-14.7-18.3-5.4 0-9.5 3.5-12.2 10.5a42.6 42.6 0 0 0-2.8 11.1l6.7 7.5z" class="cls-7"/><path id="path5481" fill="#ffe468" d="m469.2 381.1 6.5 7.3-6.5 7.5v13.5c0 2.3.5 4.4 1.5 6.3 1.3 2 3 2.9 5 2.8l.2 7c-1 .4-2.2.6-3.6.6h-23l-2.3-.1v-6.9a7.7 7.7 0 0 0 6.1-7.8v-15l-7.2-7.8 7.2-7.6v-13c0-4-1.7-6.1-5-6.1-3.5 0-6.2 2.7-8.1 8a42.2 42.2 0 0 0-2.3 12.8l-6.2-3.6v-28l59-.2v27l-6.7 4.2c-.6-6.4-1-10.4-1.4-12-1.3-5.5-3.6-8.3-6.6-8.3a7 7 0 0 0-6.6 6.6v12.8z" class="cls-7"/><path id="path5483" fill="#ffe468" d="m561.3 388.3-4.4 5.2c1.8 3.8 2.7 7.7 2.7 11.9 0 8.7-3.3 15.9-10 21.6-6 5.4-13.2 8.1-21.5 8.1-2.8 0-12.3-.8-28.6-2.5l-1.2-32.4 8-.6c1.3 5 4.2 10.3 8.6 15.6 5 6 9.6 9 13.8 9 6.8 0 12.4-5.5 12.4-12.8 0-6-3.8-10.3-11.4-12.6l-35-10.3 5-5.4A29.7 29.7 0 0 1 497 370c0-8.4 2.8-15.1 8.6-20.1 5.3-4.8 12-7.3 19.7-7.3 7.2 0 17.1.4 29.9 1l1.2 31.4-6.7.6c-3.3-15.6-9.7-23.3-19.5-23.3-3.5 0-6.6 1.5-9 4.4a15.4 15.4 0 0 0-3.7 10.2c0 3.3 2.3 5.8 6.9 7.3l14.4 4.5c3.3 1 6 2 8.3 3.4l14.2 6.2z" class="cls-7"/><g id="g5541"><g id="g5489"><path id="path5485" fill="#f65e00" d="M76.5 432a28 28 0 0 1-23.8-12.2 45 45 0 0 1-8.3-22.9l-.1-1-6-6.7H64l-6.3 7.3.2 1.4a54 54 0 0 0 3.5 13.4C65.5 421 71.8 426 80 426c6 0 11.2-2.5 15.6-7.4A29 29 0 0 0 102 407l2.1 1a29 29 0 0 1-9.2 16.4c-5.6 5-11.6 7.5-18.5 7.5z" class="cls-5"/><path id="path5487" fill="#ffe468" d="m61.6 390.3-4.3 5-.6.8.1 1 .1 1c.6 4.7 1.8 9.3 3.6 13.6 4.2 10.3 10.8 15.5 19.5 15.5 6.3 0 11.8-2.7 16.3-7.7 3-3.2 5-6.8 6.4-11l.3.1a28 28 0 0 1-8.7 15 27 27 0 0 1-40.7-4.4 44 44 0 0 1-8.1-22.4v-.7l-.2-.7-.4-.6-4.1-4.5h20.9m4.4-2.2H36.4l-.3.3 7.1 8 .1.7c.9 9 3.7 17 8.5 23.4a29.1 29.1 0 0 0 44 4.7c5.4-5 8.5-11 9.7-18l-4.2-1.6a27 27 0 0 1-6.6 12.4c-4.1 4.6-9 7-14.7 7-7.7 0-13.6-4.8-17.5-14.2-1.7-4-2.8-8.4-3.4-13l-.1-1 7.3-8.5-.2-.2z" class="cls-7"/></g><g id="g5495"><path id="path5491" fill="#f65e00" d="M141.8 424.5c-7.7 0-14-3.6-19-11-3.7-5.5-6-11.6-6.9-18.3l-.1-1-4.5-5h21.5l-5.2 6 .2 1.5c.4 3.8 1.1 7.8 2.2 11.8 2.6 9.4 6.8 14.1 12.4 14.1 12.5 0 13.2-19.8 13.5-26.3l.2-5.8-3 1.7-2.7-3H173l-4.8 5.6-.1 1c-1 6.6-3.3 12.6-6.8 17.7-5 7.3-11.5 11-19.4 11z" class="cls-5"/><path id="path5493" fill="#ffe468" d="m170.5 390.3-3 3.5-.4.5-.1.7-.1.6c-1 6.5-3.1 12.3-6.6 17.3a22.8 22.8 0 0 1-13.4 10c9.3-4 9.9-20.6 10-26.5l.2-3.9.1-2.2h13.3m-16.3 0-.3.2-.6.3-.4-.5h1.3m-23.8 0-3.3 3.9-.6.7.1 1v.8c.5 4 1.2 8 2.4 12.1 2.2 8.3 5.8 13.1 10.5 14.5-6.3-.7-11.5-4-15.8-10.4A40.4 40.4 0 0 1 117 395l-.1-.6-.1-.7-.5-.5-2.5-2.9h16.6m44.3-2.2h-26l-.4.4 4.6 5 2-1-.1 3.8c-.2 6.2-1 25.2-12.4 25.2-5 0-8.9-4.5-11.3-13.3-1-4-1.8-7.9-2.2-11.7l-.1-.9 6.2-7.2-.3-.3h-25.2l-.3.4 5.5 6.1.1.7a43 43 0 0 0 7.1 18.8c5.3 7.8 11.8 11.5 19.9 11.5 8 0 15.1-3.9 20.4-11.5a42.7 42.7 0 0 0 6.9-18.2v-.6l6-6.8-.4-.4z" class="cls-7"/></g><g id="g5509"><g id="g5501"><path id="polygon5497" fill="#f65e00" d="M232.2 389.2h8.3l-4.9 5.8v27.2h-2l-26.4-33h14.3l10.7 13.4z" class="cls-5"/><path id="path5499" fill="#ffe468" d="M238.1 390.3 235 394l-.5.6V421h-.4l-24.6-30.8H221l8.4 10.5 3.9 5v-15.5h4.8m4.3-2.2H231v11.3l-9-11.3h-17.2l28.1 35.2h3.7v-27.9l6-7-.3-.3z" class="cls-7"/></g><g id="g5507"><path id="path5503" fill="#f65e00" d="M199 423h-12.5v-1.8c4-1.7 6.6-5.8 6.6-10.7v-19.8l-2.8 1.5-2.7-3h9.7v19.9c0 8.9 4.3 11.6 7.5 12.4v1.4l-5.8.1z" class="cls-5"/><path id="path5505" fill="#ffe468" d="M196.2 390.3v18.8c0 8 3.3 11.4 6.5 12.8h-15c4-2 6.5-6.4 6.5-11.4v-20.2h2m-4.8 0-.5.3-.4.2-.4-.5h1.3m7-2.2h-12.6l-.3.4 4.6 5 1.9-1v18c0 4.7-2.7 8.6-6.5 10v3.6a1297 1297 0 0 0 20.4-.2v-3.3c-3.3-.6-7.5-3-7.5-11.5v-21z" class="cls-7"/></g></g><g id="g5515"><path id="polygon5511" fill="#f65e00" d="m293 415.9 8.8-26.7h7.3l-7.1 5.2-9.6 28.4h-8.3l-9.2-28.4-6.8-5.2h15.8z" class="cls-5"/><path id="path5513" fill="#ffe468" d="m305.7 390.3-4 3h-.1l1-3h3.1m-22.6 0 7.8 22.9 1.8 5.1-1.1 3.4h-6.7l-8.8-27.3-.3-.7-.5-.4-4-3h11.8m29.4-2.2H301l-8 24.3-8.4-24.3H265l-.1.1 9 6.9 9.4 28.8h9.9l9.7-28.9 9.6-6.8z" class="cls-7"/></g><g id="g5521"><path id="path5517" fill="#f65e00" d="M335 422c4-1.8 6.4-6 6.4-11.2V395l-5.2-5.8h19.6L351 395v16.4c0 6.5 3.2 9.4 6.2 10.6v.7l-22.2.2v-.8z" class="cls-5"/><path id="path5519" fill="#ffe468" d="m353.4 390.3-3 3.6-.5.6v16.8c0 4.5 1.5 8 4.4 10.2l-16.7.2c3-2.4 5-6.3 5-10.9v-16.2l-.6-.6-3.4-3.7h14.8m4.3-2.2h-23.3l-.4.4 6.3 7v15.3c0 5-2.6 9-6.4 10.4v2.7l24.4-.2v-2.6c-3.2-1-6.2-3.6-6.2-9.8v-16l5.8-6.8-.2-.4z" class="cls-7"/></g><g id="g5527"><path id="path5523" fill="#f65e00" d="M401 424c-8 0-14.3-3.3-19.2-9.9-3.8-5-6-11.4-6.8-18.6v-1l-4.7-5.2h19.6L385 395l.2 1.4a43 43 0 0 0 3 11.2c3.4 8.4 8.7 12.6 15.7 12.6 5.1 0 9.6-2.1 13.3-6.3 2.4-2.6 4.2-5.6 5.3-9.2l.8.3c-1 5-3.4 9.2-7.4 12.8A21.5 21.5 0 0 1 401 424z" class="cls-5"/><path id="path5525" fill="#ffe468" d="m387.5 390.3-3 3.6-.7.7.2 1v1a53 53 0 0 0 3 11.4c2.6 6 7.5 13.3 16.9 13.3 3.2 0 6.1-.8 8.8-2.3a21.6 21.6 0 0 1-30-5.5c-3.7-5-5.9-11-6.6-18v-.8l-.1-.8-.5-.5-2.8-3h14.8m4.3-2.3h-23.3l-.4.4 5.8 6.4v.7c.8 7.5 3.1 13.9 7 19.2a23.7 23.7 0 0 0 35.8 3.8c4.3-4 6.9-8.7 7.8-14.3l-2.7-1.1c-1 3.9-2.9 7.2-5.4 10a16.4 16.4 0 0 1-12.5 5.9c-6.5 0-11.5-4-14.8-12-1.4-3.3-2.4-7-2.8-10.8l-.1-1 5.9-6.9-.3-.3z" class="cls-7"/></g><g id="g5533"><path id="path5529" fill="#f65e00" d="M450.3 422.8v-1.3c3.8-1.9 6.1-5.8 6.1-10.2V395l-5.3-5.6h19.5l-4.7 5.4v14.7c0 2.9.6 5.5 2 7.9a9 9 0 0 0 4.6 4v1.5h-22.2z" class="cls-5"/><path id="path5531" fill="#ffe468" d="m468.2 390.3-2.9 3.3-.5.7v15c0 3.1.7 6 2.1 8.5 1 1.7 2.3 3 3.9 3.9H452c3.4-2.2 5.4-6 5.4-10.4v-16.8l-.6-.7-3.3-3.5h14.6m4.3-2.2h-23.2l-.4.4 6.4 6.8v16c0 4.3-2.4 8-6.1 9.4v3.2h23.1l1.3-.1v-3.3c-2-.5-3.6-1.8-4.8-3.8a14.8 14.8 0 0 1-1.8-7.3V395l5.7-6.7-.2-.3z" class="cls-7"/></g><g id="g5539"><path id="path5535" fill="#f65e00" d="M528.1 431.8a430 430 0 0 1-25.4-2.2l-1-26.4 2.2-.1a48 48 0 0 0 8.5 14.2c5.5 6.7 11 10.1 16.3 10.1 8.8 0 15.7-7 15.7-16 0-5.3-2.4-12.3-13.7-15.8l-21.6-6.4h46l.8.4-3 3.4 1 1.9a24 24 0 0 1 2.4 10.5c0 7.8-2.9 14-8.8 19.2-5.5 4.8-12 7.2-19.4 7.2z" class="cls-5"/><path id="path5537" fill="#ffe468" d="m553.8 390.3-1.2 1.4-1 1 .7 1.4.6 1.2a24 24 0 0 1 2.3 10 23 23 0 0 1-8.4 18.4c-5.3 4.7-11.6 7-18.7 7-2.3 0-10.5-.7-24.4-2.1l-.9-24.3h.4c1.7 4.5 4.5 9.1 8.4 13.7 5.7 7 11.5 10.5 17 10.5 9.5 0 16.9-7.5 16.9-17.1 0-10.8-9.1-15.2-14.5-16.9l-14.2-4.2h37m1.6-2.2h-53.9l28.9 8.5c10.6 3.3 12.9 9.8 12.9 14.7 0 8.4-6.4 15-14.6 15-5 0-10.1-3.3-15.4-9.7a46 46 0 0 1-8.6-14.7l-4.2.3 1.1 28.4c15.3 1.6 24 2.3 26.5 2.3 7.7 0 14.5-2.5 20.1-7.5a25.1 25.1 0 0 0 9.2-20 25 25 0 0 0-2.5-11l-.6-1.3 3.4-4z" class="cls-7"/></g></g></g></g><path id="path5547" fill="url(#linear-gradient)" d="m201 280.8 19.6 14.8a58 58 0 0 1 34.8-11.3h82.3c13 0 24.9 4 34.2 10.8l18.8-14.3 12.4 11.9a83.1 83.1 0 0 0 5.5-30V205c0-22.3-8.7-43.3-24.6-59.2a83.2 83.2 0 0 0-59.2-24.6H267a83.2 83.2 0 0 0-59.2 24.6A83.2 83.2 0 0 0 183 205v57.8a83 83 0 0 0 5.6 30l12.4-11.9z" style="fill:url(#linear-gradient)"/><circle id="circle5549" cx="372.5" cy="272.2" r="26.3" fill="#ffe468" class="cls-7"/><path id="path5551" fill="#1d2605" d="M337.8 284.3h-82.4c-29.5 0-53.5 21-53.5 46.9v5.4a110.6 110.6 0 0 0 58.9 16.6h70c22 0 43-6.2 60.5-17.6v-4.4c0-25.9-24-46.9-53.5-46.9z" class="cls-11"/><path id="polygon5553" fill="#1d2605" d="m223.8 298-22.7-17.2-26.8 17.2 27.6 33.2z" class="cls-11"/><path id="polygon5555" fill="#1d2605" d="m368 298 22.7-17.2 26.7 17.2-27.6 33.2z" class="cls-11"/><g id="g5609"><g id="g5587"><path id="path5557" fill="#1d2605" d="M334.5 247.1s53.4-7.3 62-34c8.4-26.7-43.8-26-43.8-26s-7.9 1.1-11.5-25c-3.7-26-19.4-31-26.1-23-6.7 7.9-11.6 16.4-20 20.6h-2.8c-8.5-4.2-13.3-12.7-20-20.6-6.7-8-22.5-3-26 23-3.7 26.1-11.6 25-11.6 25s-52.2-.7-43.7 26 61.9 34 61.9 34" class="cls-11"/><path id="path5559" fill="#5a5734" d="M233.2 233.5h6c0-6.5-6-13-6-19.6l-17-1.6a65.9 65.9 0 0 1 30.5-8.3c10.7-.5 21.5 1 32 3a48 48 0 0 0-20.5-9.3 97 97 0 0 0-23.1-1.8c-6.7.1-13.4.7-19.9 2.3-5.2 1.3-13.2 3.6-15.1 8.9-1.1 2.8.5 6 2.4 8.4 7 9.2 18.9 14.4 30.7 18z" class="cls-12"/><path id="path5561" fill="#5a5734" d="M247.1 188s12 1.6 19.7 3.2c7.6 1.6 23.4 6.5 35.6 3.4a142 142 0 0 1 26.4-3.4L311.5 177s9-6.7 9-14c0-7.2-3-13.3-3-13.3s-19.9 22.8-37.5 23l12.4-13s-12.5-1.5-21-7c-8.5-5.4-11.5-4.8-14.6 7.3-3 12.2-9.7 28-9.7 28z" class="cls-12"/><path id="path5563" fill="#817e5d" d="m258 189.6 9.1-39.3c-5.4-2.4-7.8-.1-10.3 9.7-3 12.2-9.7 28-9.7 28l10.8 1.6z" class="cls-13"/><g id="g5579"><path id="polygon5565" fill="#817161" d="m335.1 271.4-2.7-36.8 9-22.4-50.8-4.3-46.1 6.5 9.3 31.3 4.2 26.8 34.2 16.9z" style="fill:#817161"/><g id="g5577"><path id="path5567" fill="#1d2605" d="M292.2 255.6c-1.6 0-4 .3-4 .3-1 0-2 0-3-.4l-2.6-1c-.5-.1-1 .6-.5 1l3.5 2.9a5 5 0 0 0 3.2 1h6.7a5 5 0 0 0 3.3-1l3.5-3c.4-.3 0-1-.5-.8l-2.7.9c-1 .3-2 .5-3 .4 0 0-2.4-.4-3.9-.4z" class="cls-11"/><g id="g5575"><path id="path5569" fill="#1d2605" d="m349.2 204.4-1.1-.5a729.9 729.9 0 0 1-111.9 0l-1.1.5c-1.8 4.8 2.7 15.4 3.2 18.3.8 4.5 2.9 10.3 7.6 10.9l.8 23.4c.7 34 16.3 50.9 45.5 51.3 29-.4 44.7-17.2 45.4-51.3 0-5.1.5-12 .8-23.4 4.7-.6 6.8-6.4 7.6-11 .5-2.8 5-13.4 3.2-18.2zm-40.9 58.7c-2.6 6.6-9.4 6.9-11.7.6a3.4 3.4 0 0 0-3.2-2.1H291c-1.4 0-2.7.8-3.2 2.1-2.3 6.3-9.1 6-11.7-.6-2.3-6-1-9.7 1.5-12.3a62 62 0 0 0 14.7 1.4c5.2.1 10.2-.3 14.6-1.3 2.5 2.5 3.8 6.3 1.5 12.2zm-29.1-13.9c6.3-6 9.1-2.6 13-2.4 3.8-.3 6.6-3.5 13 2.4-3-.8-6.5-1.8-7.5-1.8-1.6 0-3.8 1.2-5.5 1.3-1.7 0-4-1.3-5.6-1.3-1 0-4.4 1-7.4 1.8zm45.3-12.1c-2 8.9 3.5 13.8-1.3 25.3a47 47 0 0 0-2-9.4 26 26 0 0 0-21.3-17.2c3.7-.8 5.8-1.9 5-5-.5-2.3-1.3-2.2-1.3 0l-.1 1c-.2.6-1.1.8-1.5.2-.7-1-3.4-2.4-6.3.4-1 1-2.3 1.6-3.6 1.6a5 5 0 0 1-3.5-1.6c-2.9-2.8-5.6-1.5-6.3-.4-.4.6-1.3.4-1.5-.3v-.8c0-2.3-1-2.4-1.4-.2-.8 3.2 1.3 4.3 5 5A26 26 0 0 0 263 253a47 47 0 0 0-2 9.4c-4.8-11.5.7-16.4-1.3-25.3-1.7-7.5-8.5-6.8-10.6-18.5 10.9-3.7 14.7 3.8 26.7.5 1.3-.4 2.4-.9 3.4-1.5 3.3-2 7.4 1 6.6 4.8-.5 2-1.2 2.1-1.9 3.9-.3.8.3 1.7 1.2 1.7 1 0 2.2.3 3.7 1.6-.9-3.8-.7-11 1-17.3l2.2-.1c9.8.1 9.6 5 16.3 6.9 12 3.3 15.8-4.2 26.7-.5-2.1 11.7-9 11-10.6 18.5z" class="cls-11"/><path id="path5571" fill="#1d2605" d="m235.3 203.9-.2.5 1.1-.5z" class="cls-11"/><path id="path5573" fill="#1d2605" d="m349 203.9.2.5-1.1-.5z" class="cls-11"/></g></g></g><ellipse id="ellipse5581" cx="291.4" cy="221.6" fill="#b1a092" class="cls-9" rx="3" ry="9.4"/><path id="polygon5583" fill="#1d2605" d="m259.8 167 6.8 2.5 2-7.1 2.4 6.9 6.7-2.6-3.9 6.4 6.1 3.9-7.2.5 1 7.4-5-5.2-5.1 5.2 1.1-7.3-7.2-.6 6.1-3.9z" class="cls-11"/><path id="path5585" fill="#817e5d" d="M235 195.9c-6.6.1-13.3.7-19.8 2.3-5.2 1.3-13.2 3.6-15.2 8.9-1 2.8.5 6 2.5 8.4a39 39 0 0 0 9.7 8.8S195.8 201 235 195.9z" class="cls-13"/></g><g id="g5593"><path id="path5589" fill="#f65e00" d="M292.8 372.6a5 5 0 0 1-4-2.3l-42-76.3a4.4 4.4 0 0 1 6-6s15.3 7.9 38.6 7.9a115 115 0 0 0 43.1-8.5 4.4 4.4 0 0 1 3.9 6.5l-41.7 76.3a4.4 4.4 0 0 1-3.8 2.3z" class="cls-5"/><path id="path5591" fill="#1d2605" d="m334.4 292-41.7 76-42.1-76s15.8 8.4 40.7 8.4c12.4 0 27-2.1 43.1-8.4m-83.9-8.9a8.8 8.8 0 0 0-7.7 13.1l42.2 76.2a8.8 8.8 0 0 0 15.5 0l41.5-76a8.8 8.8 0 0 0-7.3-13.3h-1.1c-.9.1-1.8.4-2.6.7a108.9 108.9 0 0 1-39.7 7.7 88 88 0 0 1-36.6-7.3 9 9 0 0 0-4.2-1zm83.9 17.7z" class="cls-11"/></g><g id="g5599"><path id="path5595" fill="#f65e00" d="M342.4 292.6c-3 0-5.4-2.5-5.4-5.5v-4.5c0-9.7 8-17.5 17.6-17.5H368c3 0 5.5 2.4 5.5 5.4v4.5c0 9.7-8 17.6-17.6 17.6z" class="cls-5"/><path id="path5597" fill="#1d2605" d="M368.1 270.5v4.5a12 12 0 0 1-12 12.1h-13.7v-4.5c0-6.7 5.5-12.1 12.2-12.1H368m0-10.9h-13.5a23 23 0 0 0-23 23v4.5c0 6 4.9 10.9 10.8 10.9H356a23 23 0 0 0 23-23v-4.5a11 11 0 0 0-10.9-10.9z" class="cls-11"/></g><g id="g5605"><path id="path5601" fill="#f65e00" d="M350.8 312.8c-6.5 0-11.7-5.3-11.7-11.7V298c0-1.9 1.5-3.4 3.3-3.4h9.3c6.5 0 11.7 5.2 11.7 11.7v3c0 2-1.5 3.5-3.4 3.5z" class="cls-5"/><path id="path5603" fill="#1d2605" d="M351.7 298c4.6 0 8.3 3.7 8.3 8.3v3h-9.3a8.3 8.3 0 0 1-8.3-8.2V298h9.3m0-6.8h-9.3c-3.7 0-6.7 3-6.7 6.8v3a15 15 0 0 0 15 15.2h9.3c3.8 0 6.8-3 6.8-6.8v-3.1a15 15 0 0 0-15-15z" class="cls-11"/></g><path id="path5607" fill="#fd9d6b" d="M268.7 298a77.1 77.1 0 0 1-18.1-6l41 74-7.1-27.8 8-17.7-23.8-22.5Z" style="fill:#fd9d6b"/></g><path id="path5611" fill="#1d2605" d="M250.6 292s10 24.3 28.1 28.4l-10 9.7" class="cls-11"/><path id="polyline5613" fill="#1d2605" d="M293 372.5v-24.9l31.2-23.5" class="cls-11"/><path id="path5615" fill="#b1a092" d="M257.5 217.7s13.5 4.7 21.8 0c0 0-9.5 17.7-21.8 0z" class="cls-9"/><path id="path5617" fill="#b1a092" d="M303.9 217.7s13.4 4.7 21.7 0c0 0-9.4 17.7-21.7 0z" class="cls-9"/><path id="path5619" fill="#1d2605" d="M189 262.3c-.6.4-1.8.4-2 1.2-.1 1.4 1.1 2 2.4 1.6.4 0 2-.3 2.4-.2 1.6.5 2 0 2 0s4 4.2 6.9 5.2c1.3.5 2.5.2 3 1.8.3 1.3.2 2.3-.1 3.5-.2.9-.4 1.8.1 2.6 1.2 2 4.7 2.5 3.9 1.4l-.5-.1c.3-.1 0-.6-.4-.6.8-.7-1-1-1.2-1.4-.4-.7.2-5 .7-6.4 2 .6 6.8-1.7 8.7-1.2-.5 4.4 10 12.5 10.7 14a10 10 0 0 1-.2 7.4c-3.2 6.1.4 9.2.6 9 .2 0 .3-.4.2-.7.1 0 .5.3.7 0 .3-.3 0-.9-.3-1.3 1.2-.5.3-2 .2-2.6-.3-2.5 3-8.7 3.3-9.8.3-1.2 0-2.3-.9-3.2a75.5 75.5 0 0 1-3.4-3.7c-1-1.1-3.4-5.3-2-7 1-1.1 5-2 5.8-4.2 3.8 14.1 8.8 29 20.2 26.4-10.3 1-14.8-21.7-15.1-24.2a17 17 0 0 0-15.8-15.2c-10.3-1.4-15.3 8.8-19.6 8.2-1.4-.2-1.4-2.5-2.3-3.5.6-.1 1.6-.8 1.7-1.3.2-.4.8-2.2.6-2.5-1.1-.2-1.9.3-2.8.8-.7.4-1.4.6-2 1.2-.3.4-.5 1-1 1.2-.6.3-1-.1-2 .4-.5.3-1.7 2.8-2.4 3.2z" class="cls-11"/><path id="path5621" fill="#f8c109" d="M234.3 282.1s1.6 8 10.2 12.6c0 0-6-.2-12.3-8" style="fill:#f8c109"/><g id="g5645"><rect id="rect5623" width="33.5" height="14.3" x="170.2" y="483.2" fill="none" stroke="#817161" stroke-linecap="round" stroke-linejoin="round" stroke-width="7.1" class="cls-3" rx="7.2" ry="7.2"/><path id="line5625" fill="none" stroke="#817161" stroke-miterlimit="10" stroke-width="7.1" d="M169.3 490.4h-15.9" class="cls-2"/><rect id="rect5627" width="33.5" height="14.3" x="226.2" y="483.2" fill="none" stroke="#817161" stroke-linecap="round" stroke-linejoin="round" stroke-width="7.1" class="cls-3" rx="7.2" ry="7.2"/><path id="line5629" fill="none" stroke="#817161" stroke-miterlimit="10" stroke-width="7.1" d="M225.4 490.4H205" class="cls-2"/><rect id="rect5631" width="33.5" height="14.3" x="282.7" y="483.2" fill="none" stroke="#817161" stroke-linecap="round" stroke-linejoin="round" stroke-width="7.1" class="cls-3" rx="7.2" ry="7.2"/><path id="line5633" fill="none" stroke="#817161" stroke-miterlimit="10" stroke-width="7.1" d="M281.8 490.4h-20.3" class="cls-2"/><rect id="rect5635" width="33.5" height="14.3" x="338.3" y="483.2" fill="none" stroke="#817161" stroke-linecap="round" stroke-linejoin="round" stroke-width="7.1" class="cls-3" rx="7.2" ry="7.2"/><path id="line5637" fill="none" stroke="#817161" stroke-miterlimit="10" stroke-width="7.1" d="M337.4 490.4h-20.3" class="cls-2"/><rect id="rect5639" width="33.5" height="14.3" x="394.4" y="483.2" fill="none" stroke="#817161" stroke-linecap="round" stroke-linejoin="round" stroke-width="7.1" class="cls-3" rx="7.2" ry="7.2"/><path id="line5641" fill="none" stroke="#817161" stroke-miterlimit="10" stroke-width="7.1" d="M393.5 490.4h-20.4" class="cls-2"/><path id="line5643" fill="none" stroke="#817161" stroke-miterlimit="10" stroke-width="7.1" d="M446.4 490.4h-20.3" class="cls-2"/></g><g id="g5659"><path id="path5647" fill="#d5c6bb" d="M196.6 466.3a7.4 7.4 0 0 1-3 2.8c-1.4.7-3 1-5 1s-3.6-.2-5.1-.9a8.1 8.1 0 0 1-5.2-7.1h5.8c0 1.1.5 2 1.3 2.7.7.8 1.7 1.1 3 1.1 1.1 0 2-.3 2.6-.9a3 3 0 0 0 .9-2.3 3 3 0 0 0-.8-2c-.4-.6-1-1-1.8-1.4l-3-1.1c-1.8-.6-3.1-1.2-4.2-1.7-1-.6-2-1.4-2.7-2.4-.8-1-1.2-2.4-1.2-4.1 0-2.3.9-4.2 2.5-5.5 1.7-1.4 4-2 6.7-2s5.1.7 6.8 2a7.8 7.8 0 0 1 3 5.6h-6a4 4 0 0 0-1.1-2.4c-.7-.7-1.6-1-2.8-1-1 0-1.8.3-2.4.8-.6.5-.9 1.3-.9 2.3 0 .8.3 1.4.7 2 .5.5 1 1 1.8 1.2l3 1.2c1.7.6 3.1 1.1 4.2 1.7a7 7 0 0 1 2.8 2.4 7 7 0 0 1 1.2 4.2 8 8 0 0 1-1 3.8z" class="cls-10"/><path id="path5649" fill="#d5c6bb" d="m242.6 442.9-9.2 17.6v9.4H228v-9.4l-9.2-17.6h6.2l5.8 11.8 5.7-11.8z" class="cls-10"/><path id="path5651" fill="#d5c6bb" d="M286.8 463.4a12 12 0 0 1-4.9 4.8 16 16 0 0 1-7.6 1.7h-9.6v-27h9.6c3 0 5.5.5 7.6 1.6 2.1 1.1 3.8 2.7 4.9 4.7 1.1 2 1.7 4.4 1.7 7.2 0 2.7-.6 5-1.7 7zm-6.2-.6a8.5 8.5 0 0 0 2.4-6.4c0-2.8-.8-5-2.4-6.5a9.4 9.4 0 0 0-6.8-2.3h-3.7V465h3.7c3 0 5.2-.8 6.8-2.3z" class="cls-10"/><path id="path5653" fill="#d5c6bb" d="M334.6 470h-5.4l-12.1-18.5V470h-5.4v-27h5.4l12.1 18.5V443h5.4z" class="cls-10"/><path id="path5655" fill="#d5c6bb" d="M364 447.2v7h9.7v4.1H364v7.3h10.7v4.3h-16.1v-27h16.1v4.3z" class="cls-10"/><path id="path5657" fill="#d5c6bb" d="m419.8 442.9-9.2 17.6v9.4h-5.4v-9.4l-9.2-17.6h6.2l5.7 11.8 5.8-11.8z" class="cls-10"/></g></g></svg>