<svg xmlns="http://www.w3.org/2000/svg" id="Layer_1" width="376.45" height="371.83" data-name="Layer 1" viewBox="0 0 376.45 371.83"><defs id="defs5046"><linearGradient id="linear-gradient" x1="255.78" x2="255.78" y1="554.75" y2="182.92" gradientUnits="userSpaceOnUse"><stop id="stop5002" offset="0" stop-color="#d96e00"/><stop id="stop5004" offset=".02" stop-color="#db7810"/><stop id="stop5006" offset=".06" stop-color="#e29239"/><stop id="stop5008" offset=".11" stop-color="#e8aa5e"/><stop id="stop5010" offset=".17" stop-color="#edbe7f"/><stop id="stop5012" offset=".23" stop-color="#f2d09a"/><stop id="stop5014" offset=".3" stop-color="#f5deb0"/><stop id="stop5016" offset=".38" stop-color="#f8e8c1"/><stop id="stop5018" offset=".47" stop-color="#faf0cd"/><stop id="stop5020" offset=".61" stop-color="#fbf4d4"/><stop id="stop5022" offset="1" stop-color="#fcf6d6"/></linearGradient><linearGradient id="linear-gradient-2" x1="741.44" x2="741.44" y1="1089.58" y2="752" gradientUnits="userSpaceOnUse"><stop id="stop5025" offset="0" stop-color="#d96e00"/><stop id="stop5027" offset=".06" stop-color="#e08a2c"/><stop id="stop5029" offset=".12" stop-color="#e6a353"/><stop id="stop5031" offset=".19" stop-color="#ecb977"/><stop id="stop5033" offset=".27" stop-color="#f1cc94"/><stop id="stop5035" offset=".35" stop-color="#f5dbac"/><stop id="stop5037" offset=".45" stop-color="#f8e7bf"/><stop id="stop5039" offset=".56" stop-color="#faefcc"/><stop id="stop5041" offset=".7" stop-color="#fbf4d3"/><stop id="stop5043" offset="1" stop-color="#fcf6d6"/></linearGradient><style id="style5000">.cls-4{fill:#8c1d1c}.cls-6{stroke:#07002c}.cls-4,.cls-6{stroke-miterlimit:10}.cls-6,.cls-8{fill:#07002c}.cls-4,.cls-6{stroke-width:.8px}.cls-10{fill:#8b181f}.cls-4{stroke:#8c1d1c}.cls-12{fill:#6f7ca5}.cls-13{fill:#fcf6d6}.cls-14{fill:#d96e00}</style></defs><g id="g5342" transform="translate(-67.55 -182.92)"><path id="path5092" d="M428.43 294.69c-9.8-22.26-23.71-42.15-41.36-59.11-35.33-33.96-81.96-52.66-131.3-52.66s-95.97 18.7-131.3 52.66c-17.65 16.96-31.56 36.85-41.35 59.11-10.33 23.48-15.57 48.43-15.57 74.15s5.24 50.66 15.57 74.14c9.8 22.26 23.71 42.15 41.36 59.11 35.33 33.96 81.96 52.66 131.3 52.66s95.97-18.7 131.3-52.66c17.65-16.96 31.56-36.85 41.35-59.11C438.76 419.5 444 394.55 444 368.83s-5.24-50.66-15.57-74.14" class="cls-13"/><path id="path5094" d="M428.43 294.69c-9.8-22.26-23.71-42.15-41.36-59.11-35.33-33.96-81.96-52.66-131.3-52.66s-95.97 18.7-131.3 52.66c-17.65 16.96-31.56 36.85-41.35 59.11-10.33 23.48-15.57 48.43-15.57 74.15s5.24 50.66 15.57 74.14c9.8 22.26 23.71 42.15 41.36 59.11 35.33 33.96 81.96 52.66 131.3 52.66s95.97-18.7 131.3-52.66c17.65-16.96 31.56-36.85 41.35-59.11C438.76 419.5 444 394.55 444 368.83s-5.24-50.66-15.57-74.14" style="fill:url(#linear-gradient)"/><path id="path5096" d="M255.78 538.73c45.18 0 87.87-17.11 120.19-48.19 16.13-15.51 28.84-33.68 37.79-54.02 9.43-21.43 14.21-44.21 14.21-67.69s-4.78-46.26-14.21-67.69c-8.95-20.34-21.66-38.51-37.79-54.01-32.33-31.08-75.01-48.19-120.19-48.19s-87.87 17.11-120.19 48.19c-16.13 15.51-28.84 33.68-37.79 54.02-9.43 21.43-14.21 44.21-14.21 67.69s4.78 46.26 14.21 67.69c8.95 20.34 21.66 38.51 37.79 54.01 32.33 31.08 75.01 48.19 120.19 48.19z" style="stroke-miterlimit:10;fill:none;stroke:#d96e00;stroke-width:6.41px"/><g id="g5138"><g id="g5110"><path id="path5098" d="m140.24 270.9-3.19-5.08 17.68-16.74 4.9 3.47c-1.68-.11-3.11.13-4.28.73q-1.755.9-4.71 3.69l15.77 16.66c4.48 4.73 7.28 7.08 8.39 7.05l-7.06 6.68c-.09-.98-1.81-3.24-5.15-6.77l-17.43-18.42c-2.02 1.91-3.34 3.43-3.96 4.55s-.94 2.52-.94 4.18z" class="cls-4"/><path id="path5100" d="M187.92 269.95c.32-1.05-1.06-4.47-4.15-10.25l-6.95-13c-3.09-5.78-5.16-8.83-6.22-9.15l18.74-10.02 3.4 4.48c-1.49-.35-3.17-.28-5.02.23-1.86.51-4.57 1.71-8.12 3.61l6.11 11.43 8.76-4.68c.51-.27 1 .04 1.48.94.25.47.38.85.39 1.12.01.28-.13.49-.42.65l-8.76 4.68 7.05 13.18c.25-.13.48-.26.71-.38 4.02-2.17 6.86-4 8.5-5.5 1.73-1.59 2.7-3.25 2.91-5l2.22 6.64-20.62 11.02z" class="cls-4"/><path id="path5102" d="M217.42 255.32c.32-.46.38-1.67.19-3.63-.19-1.95-.57-4.42-1.15-7.39l-2.83-14.47c-.58-2.97-1.16-5.4-1.73-7.29s-1.08-2.98-1.53-3.28l9.72-1.9c-.32.46-.38 1.67-.2 3.6.18 1.94.57 4.4 1.15 7.38l.91 4.65 11.9-2.32-.91-4.65c-1.26-6.45-2.33-9.96-3.2-10.54l9.7-1.89c-.32.47-.38 1.67-.2 3.62.19 1.95.57 4.41 1.15 7.4l2.83 14.47c.58 2.97 1.16 5.4 1.73 7.28s1.08 2.98 1.53 3.29l-9.7 1.89c.59-.87.26-4.54-1.01-11.01l-1.35-6.89-11.9 2.32 1.35 6.89c.58 2.97 1.16 5.4 1.73 7.28s1.08 2.98 1.53 3.29l-9.72 1.9z" class="cls-4"/><path id="path5104" d="M256.17 249.41c.83-.72 1.62-4.28 2.36-10.7l1.71-14.85c.74-6.41.78-10.08.14-11 .93-.07 2.52-.03 4.77.09 2.24.13 4.7.35 7.38.65q7.38.855 10.74 4.53c2.12 2.41 3 5.14 2.65 8.18-.26 2.27-1.26 4.23-2.99 5.88s-3.87 2.61-6.42 2.89c.78 2.22 1.97 4.78 3.58 7.67 1.61 2.9 3.08 5.11 4.4 6.65.24.31.54.63.9.97.35.34.78.56 1.28.65-.16.19-.46.42-.88.69s-.88.49-1.37.66c-1.34.42-2.57.56-3.7.43a2.2 2.2 0 0 1-.64-.1c-1.3-.29-2.39-.92-3.27-1.91-.85-.95-1.85-2.52-2.98-4.71q-1.695-3.285-3.42-7.68c-1.15-2.93-1.7-4.63-1.65-5.09.02-.17.12-.25.29-.23l.39.04c.81.09 1.72 0 2.71-.3 1-.29 1.81-.71 2.45-1.24.97-.7 1.71-1.55 2.22-2.54s.85-2.22 1.01-3.69c.16-1.44.07-2.78-.29-4.02q-.54-1.86-1.77-3.18c-1.22-1.28-2.78-2.04-4.7-2.26-.78-.09-1.36-.1-1.75-.05-.21.04-.37.13-.46.25s-.15.32-.19.59l-2.63 22.85c-.74 6.41-.78 10.06-.13 10.95l-9.74-1.12z" class="cls-4"/><path id="path5106" d="M291.95 254.38c1.31-.48 2.58-1.37 3.81-2.68l19.54-21.91q1.35-1.425 1.77-2.34c.16-.36.25-.7.24-1.02 0-.32 0-.6-.02-.83 1.82.49 3.5 1.09 5.04 1.78q1.635.75 2.34 1.41c.47.44.78.94.94 1.49s.2 1.22.12 1.99l-3.45 27.17c-.31 2.54-.45 4.51-.42 5.9s.23 2.42.6 3.07l-10.52-4.83c.7-.23 1.26-.81 1.68-1.73.35-.77.59-2.01.71-3.74l.89-6.1-10.55-4.85-4.08 4.63c-1.44 1.59-2.36 2.82-2.75 3.68-.24.52-.28 1.04-.12 1.57l-5.78-2.66zm14.75-9.5 8.97 4.12 2.5-17.15-11.48 13.02z" class="cls-4"/><path id="path5108" d="M328.56 273.16c.56-.02 1.58-.68 3.04-1.99s3.22-3.07 5.28-5.3l9.99-10.84c2.05-2.23 3.67-4.13 4.86-5.71 1.18-1.58 1.76-2.64 1.74-3.17l4.16 3.84-3.87 28.35 8.45-9.17c2.05-2.23 3.68-4.13 4.88-5.72 1.2-1.58 1.78-2.63 1.75-3.13l4.45 4.1q-.84.03-3.03 1.98c-1.46 1.3-3.22 3.07-5.29 5.31l-9.99 10.84c-2.56 2.77-4.23 4.74-5.02 5.91s-1.12 2.02-.99 2.57c-.36.09-.82.04-1.36-.14s-1.03-.48-1.48-.89c-.55-.51-.91-1.08-1.09-1.72s-.2-1.46-.07-2.44l3.51-27.03-8.86 9.6c-2.05 2.23-3.67 4.12-4.86 5.69-1.18 1.57-1.76 2.63-1.74 3.19l-4.46-4.12z" class="cls-4"/></g><g id="g5136"><path id="path5112" d="M135.43 351.98c.14.96.25 2.54.33 4.73s.07 4.65-.01 7.38c-.16 4.95-1.4 8.68-3.73 11.18-1.24 1.21-2.55 2.08-3.92 2.6s-2.96.75-4.76.7q-2.52-.075-4.71-1.11c-1.47-.69-2.66-1.6-3.58-2.72-1.17-1.45-2-3.11-2.48-5.01a14.8 14.8 0 0 1-.36-5.73q.075-.81.27-1.26c.13-.3.3-.5.53-.6q.345-.15 1.05-.12h.2c.33.02.5.17.51.47v.36c-.07 2 .55 3.65 1.85 4.96 1.74 1.65 4.09 2.53 7.05 2.62 2.92.09 5.33-.63 7.22-2.17 1.49-1.24 2.27-3.12 2.35-5.64l.04-1.28q.015-.705-.57-.72l-23.3-.73c-2.99-.09-5.47-.07-7.43.07s-3.14.39-3.55.76l.31-9.75c.27.29 1.17.55 2.7.8s3.19.4 4.98.46l18.01.57c3.03.1 5.53.07 7.49-.06 1.97-.14 3.15-.39 3.54-.76z" class="cls-6"/><path id="path5114" d="M100.45 397.51c.95.55 4.59-.02 10.93-1.72l14.24-3.82c6.33-1.7 9.77-3.03 10.32-3.98l5.51 20.52-5.13 2.29c.68-1.37.99-3.02.92-4.94s-.63-4.83-1.67-8.73l-12.52 3.36 2.57 9.59c.15.55-.27.96-1.25 1.23-.52.14-.91.18-1.18.13s-.45-.24-.54-.56l-2.57-9.59-14.44 3.87q.105.405.21.78c1.2 4.41 2.35 7.58 3.43 9.52 1.15 2.05 2.56 3.37 4.21 3.97l-6.97.66-6.06-22.59z" class="cls-6"/><path id="path5116" d="M114.44 439c1.08.2 4.36-1.42 9.82-4.86l12.65-7.96q8.19-5.16 8.67-6.78c.64.69 1.61 1.95 2.91 3.77 1.3 1.83 2.67 3.88 4.11 6.16 2.64 4.19 3.7 7.93 3.18 11.21-.55 3.16-2.13 5.56-4.72 7.19q-2.91 1.83-6.45 1.35c-2.37-.32-4.46-1.38-6.27-3.2-1.25 2-2.49 4.53-3.74 7.6s-2.06 5.6-2.43 7.6c-.08.38-.15.82-.2 1.31s.05.96.29 1.4c-.25 0-.61-.09-1.09-.25q-.72-.24-1.38-.66c-1.17-.79-2.05-1.66-2.65-2.61q-.195-.27-.33-.57a6.08 6.08 0 0 1-.56-3.75c.2-1.26.81-3.01 1.81-5.27 1-2.25 2.28-4.75 3.85-7.48q2.34-4.095 2.94-4.47c.15-.09.26-.06.36.08l.21.33c.43.69 1.08 1.33 1.93 1.93.85.59 1.69.97 2.5 1.14 1.16.32 2.28.37 3.37.14 1.09-.22 2.26-.73 3.51-1.52 1.22-.77 2.21-1.68 2.96-2.74s1.2-2.18 1.37-3.37c.24-1.75-.16-3.44-1.18-5.08-.42-.66-.77-1.13-1.06-1.4q-.255-.21-.48-.21c-.15 0-.34.08-.58.22l-19.47 12.26c-5.46 3.44-8.34 5.69-8.62 6.75l-5.22-8.3z" class="cls-6"/><path id="path5118" d="m145.14 476.23 5.03-3.96c-.55 2.41-.62 4.59-.22 6.53.41 1.95 1.29 3.5 2.65 4.66 1.52 1.3 3.1 1.9 4.75 1.8s3.11-.89 4.37-2.37c.71-.83 1.12-1.72 1.25-2.67s.02-2.12-.32-3.49-.93-3.06-1.74-5.04c-.97-2.32-1.57-4.28-1.81-5.87s-.15-3.03.28-4.32 1.19-2.58 2.29-3.86c1.24-1.45 2.71-2.42 4.43-2.91 1.71-.5 3.56-.47 5.54.06 1.98.54 3.83 1.55 5.56 3.03 2.81 2.41 4.94 5.29 6.37 8.64l-4.71 3.55c.13-2.4-.05-4.39-.56-5.96a8.6 8.6 0 0 0-2.63-3.95c-1.16-.99-2.44-1.42-3.83-1.28s-2.59.8-3.59 1.98c-.68.8-1.1 1.63-1.25 2.49s-.07 1.86.23 3.02.98 2.95 2.03 5.39c.96 2.16 1.57 4.1 1.82 5.81s.18 3.24-.21 4.6c-.39 1.35-1.15 2.69-2.27 4-1.38 1.61-3.04 2.72-4.99 3.33s-4.01.65-6.18.13c-2.17-.53-4.27-1.66-6.3-3.4-1.03-.88-1.95-1.87-2.77-2.96s-1.5-2.27-2.07-3.52c-.56-1.25-.94-2.4-1.14-3.46z" class="cls-6"/><path id="path5120" d="M177.49 503.85q1.725-.525 6.18-9.06l6.76-12.92c3.09-5.9 4.45-9.42 4.09-10.56l8.98 4.7c-1.15.35-3.26 3.48-6.35 9.38l-6.76 12.92c-2.98 5.69-4.28 9.1-3.92 10.24z" class="cls-6"/><path id="path5122" d="M203.25 516.32c1.19-.73 2.25-1.86 3.2-3.39l14.73-25.39c.69-1.11 1.11-1.99 1.26-2.65q.135-.585.03-1.05c-.07-.32-.13-.59-.19-.81 1.88.12 3.64.36 5.3.73 1.17.27 2.03.58 2.58.92s.95.76 1.22 1.27c.26.51.44 1.15.52 1.93l2.08 27.31c.21 2.55.47 4.51.78 5.86q.465 2.04 1.2 2.88l-11.27-2.62c.64-.36 1.07-1.04 1.3-2.03.19-.82.17-2.09-.06-3.8l-.35-6.15-11.31-2.63-3.07 5.36c-1.09 1.85-1.74 3.23-1.96 4.16-.13.55-.06 1.07.2 1.56l-6.2-1.44zm12.54-12.27 9.62 2.24-1-17.3z" class="cls-6"/><path id="path5124" d="M254.99 524.78c.37-.43.57-1.62.61-3.58q.06-2.94-.3-7.47l-1.15-14.7c-.24-3.02-.53-5.5-.88-7.44s-.73-3.08-1.14-3.43l5.64-.44 18.15 22.12-.97-12.43q-.36-4.53-.87-7.47c-.34-1.96-.71-3.09-1.1-3.41l6.03-.47c-.37.43-.57 1.62-.61 3.57s.06 4.45.3 7.49l1.15 14.7c.29 3.76.6 6.32.92 7.7.32 1.37.72 2.2 1.21 2.47-.18.32-.53.62-1.03.9-.5.27-1.06.43-1.66.48-.75.06-1.41-.07-2-.37-.59-.31-1.2-.84-1.84-1.6l-17.43-20.96 1.02 13.02c.24 3.02.52 5.5.87 7.43.34 1.93.73 3.08 1.16 3.44l-6.06.47z" class="cls-6"/><path id="path5126" d="M327.26 507.78c.31-1.16-1.16-4.51-4.41-10.04l-7.36-12.53c-3.39-5.77-5.67-8.81-6.83-9.1l8.36-4.91c-.1.93 1.08 3.48 3.52 7.65.08.13.15.26.22.38l12.61 21.47c2.98-1.75 5.07-3.1 6.25-4.06 1.18-.95 2.03-1.9 2.54-2.84s.83-1.99.97-3.17l2.3 6.49z" class="cls-6"/><path id="path5128" d="M360.34 485.22c.05-1.2-2.12-4.14-6.5-8.84l-9.95-10.67c-4.54-4.87-7.41-7.32-8.61-7.36l7.42-6.92c-.05 1.2 2.2 4.23 6.74 9.1l9.95 10.67c4.38 4.69 7.17 7.06 8.37 7.09l-7.42 6.92z" class="cls-6"/><path id="path5130" d="M365.59 454.52c-3.13-1.97-5.59-4.27-7.37-6.9s-2.73-5.39-2.84-8.29c-.11-2.89.71-5.72 2.45-8.49 1.67-2.65 3.79-4.57 6.38-5.77 2.58-1.2 5.48-1.58 8.7-1.16 3.21.42 6.43 1.65 9.65 3.67 3.13 1.97 5.58 4.28 7.36 6.92s2.73 5.41 2.86 8.32-.67 5.74-2.41 8.51c-1.67 2.65-3.79 4.57-6.37 5.75-2.58 1.19-5.48 1.57-8.69 1.15s-6.45-1.66-9.71-3.71zm4.32-6.86c4.75 2.99 8.57 4.64 11.46 4.94s5.04-.66 6.44-2.88c1.41-2.24 1.35-4.59-.18-7.06s-4.66-5.2-9.41-8.19c-4.72-2.97-8.52-4.61-11.4-4.91s-5.02.66-6.43 2.9-1.35 4.59.18 7.06 4.64 5.19 9.34 8.15z" class="cls-6"/><path id="path5132" d="M405.83 418.25c-.29-.48-1.36-1.05-3.22-1.69-1.85-.65-4.25-1.33-7.19-2.04l-14.32-3.48c-2.94-.72-5.39-1.21-7.35-1.48-1.95-.27-3.16-.26-3.62.02l1.34-5.5 26.67-10.37-12.12-2.95c-2.94-.72-5.4-1.21-7.37-1.5-1.97-.28-3.16-.29-3.58-.01l1.43-5.88c.29.48 1.36 1.05 3.2 1.69 1.84.65 4.25 1.33 7.21 2.05l14.32 3.48c3.66.89 6.2 1.4 7.6 1.53s2.31 0 2.72-.38c.25.28.43.69.53 1.26.1.56.08 1.14-.06 1.73-.18.73-.5 1.32-.98 1.79s-1.17.88-2.1 1.25l-25.34 10.04 12.69 3.09c2.94.72 5.39 1.21 7.33 1.49q2.91.42 3.63-.03l-1.43 5.9z" class="cls-6"/><path id="path5134" d="m410.96 372.82-6.34-.91c2.12-1.26 3.75-2.71 4.88-4.35s1.64-3.35 1.55-5.14c-.11-2-.77-3.56-1.97-4.68-1.21-1.13-2.79-1.64-4.73-1.53-1.08.06-2.02.37-2.8.93s-1.55 1.45-2.3 2.64c-.76 1.2-1.57 2.78-2.45 4.74-1.01 2.3-2.01 4.09-3 5.36-.98 1.27-2.09 2.2-3.32 2.78s-2.69.92-4.37 1.01q-2.85.15-5.16-1.2c-1.54-.9-2.8-2.25-3.77-4.05s-1.52-3.84-1.64-6.11c-.2-3.7.42-7.22 1.86-10.57l5.82.96c-1.83 1.56-3.14 3.07-3.92 4.52a8.6 8.6 0 0 0-1.04 4.63c.08 1.53.65 2.75 1.71 3.65 1.06.91 2.36 1.32 3.91 1.24 1.05-.06 1.94-.33 2.66-.81.73-.48 1.4-1.23 2.03-2.25s1.46-2.75 2.5-5.19c.9-2.19 1.88-3.97 2.95-5.33s2.22-2.37 3.47-3.02 2.74-1.02 4.46-1.12c2.12-.11 4.07.32 5.86 1.32 1.79.99 3.24 2.45 4.35 4.39 1.11 1.93 1.74 4.24 1.89 6.91a18.4 18.4 0 0 1-1.35 7.97q-.78 1.905-1.71 3.21z" class="cls-6"/></g></g><path id="path5140" d="m127.79 324.17 9.34-8.7c2.25-2.09 2.25-5.65 0-7.75l-9.34-8.7-9.34 8.7c-2.25 2.09-2.25 5.65 0 7.75z" class="cls-14"/><path id="path5142" d="m383.77 324.17-9.34-8.7c-2.25-2.09-2.25-5.65 0-7.75l9.34-8.7 9.34 8.7c2.25 2.09 2.25 5.65 0 7.75z" class="cls-14"/><g id="g5160"><path id="rect5144" d="M249.3 255.96h12.96v225.76H249.3z" class="cls-14"/><path id="rect5146" d="M249.3 255.96h12.96v225.76H249.3z" class="cls-14" transform="rotate(-90 255.78 368.83)"/><path id="rect5148" d="M249.3 255.96h12.96v225.76H249.3z" class="cls-14" transform="rotate(-45 255.776 368.834)"/><path id="rect5150" d="M249.3 255.96h12.96v225.76H249.3z" class="cls-14" transform="rotate(-135 255.78 368.832)"/><path id="rect5152" d="M249.3 255.96h12.96v225.76H249.3z" class="cls-14" transform="rotate(-67.5 255.783 368.835)"/><path id="rect5154" d="M249.3 255.96h12.96v225.76H249.3z" class="cls-14" transform="rotate(-157.5 255.778 368.832)"/><path id="rect5156" d="M249.3 255.96h12.96v225.76H249.3z" class="cls-14" transform="rotate(-112.5 255.778 368.835)"/><path id="rect5158" d="M249.3 255.96h12.96v225.76H249.3z" class="cls-14" transform="rotate(157.5 255.777 368.834)"/></g><g id="g5178"><path id="rect5162" d="M249.93 266.96h11.7V470.7h-11.7z" class="cls-14" transform="rotate(-11.25 255.795 368.83)"/><path id="rect5164" d="M249.93 266.96h11.7V470.7h-11.7z" class="cls-14" transform="rotate(-101.25 255.776 368.833)"/><path id="rect5166" d="M249.93 266.96h11.7V470.7h-11.7z" class="cls-14" transform="rotate(-56.25 255.775 368.834)"/><path id="rect5168" d="M249.93 266.96h11.7V470.7h-11.7z" class="cls-14" transform="rotate(-146.25 255.78 368.833)"/><path id="rect5170" d="M249.93 266.96h11.7V470.7h-11.7z" class="cls-14" transform="rotate(-78.75 255.777 368.834)"/><path id="rect5172" d="M249.93 266.96h11.7V470.7h-11.7z" class="cls-14" transform="rotate(-168.75 255.78 368.833)"/><path id="rect5174" d="M249.93 266.96h11.7V470.7h-11.7z" class="cls-14" transform="rotate(-123.75 255.78 368.834)"/><path id="rect5176" d="M249.93 266.96h11.7V470.7h-11.7z" class="cls-14" transform="rotate(146.25 255.777 368.83)"/></g><g id="g5340"><path id="path5180" d="M254.58 467.79s-27.02-7.22-33.49-26.32c0 0-28.66-5.86-36.67-28.97 0 0-24.04-27.12-3.39-59.79l-8.37-9.09s14.23-2.31 15.77-16.49 3.39-22.5 12.64-25.89c0 0 4.62-12.94 18.8-15.72 0 0 13.06-18.86 34.73-6.65h1.28c21.67-12.2 34.73 6.65 34.73 6.65 14.18 2.77 18.8 15.72 18.8 15.72 9.25 3.39 11.09 11.71 12.64 25.89 1.54 14.18 15.77 16.49 15.77 16.49l-8.37 9.09c20.65 32.67-3.39 59.79-3.39 59.79-8.01 23.11-36.67 28.97-36.67 28.97-6.47 19.11-33.49 26.32-33.49 26.32h-1.28z" class="cls-8"/><path id="path5182" d="M242.97 455.02s-15.27-15.83-11.11-34.97c0 0-3.82 6.6-3.82 10.56 0 0-3.47-11.55 1.04-22.43 0 0-18.74 29.36 13.88 46.84z" class="cls-12"/><path id="path5184" d="M211.08 430.22s-11.71-17.26 10.79-35.75c0 0-8.63.92-12.94 5.24 0 0 2.47-9.25 12.02-15.1 0 0-8.94 0-15.1 6.47s-13.25 29.58 5.24 39.14z" class="cls-12"/><path id="path5186" d="M195.36 415.42s-5.55-17.87 11.09-34.21c0 0-25.27 8.32-11.09 34.21" class="cls-12"/><path id="path5188" d="M223.73 406.02s-9.26 14.96-4.33 28.52c0 0-13.21-17.58 4.33-28.52" class="cls-12"/><path id="path5190" d="M185.19 402.45s1.39-23.24 19.57-28.17c0 0-5.74-2.31-11.03.69 0 0 3.47-7.88 16.81-9.99 0 0-15-.34-21.48 6.79s-9.56 18.47-3.86 30.67z" class="cls-12"/><path id="path5192" d="M178.72 377.21s10.48-18.05 27.74-18.12c0 0-5.7-1.74-10.09-1.83 0 0 14.42-9.66 18.26-14.43 0 0-7.25 2.94-16.8 4.79s-19.11 13.56-19.11 29.58z" class="cls-12"/><path id="path5194" d="m193.2 344.54 17.33-4.49s4.24-1.67 5.17-6.61l-11.25 2.46s-9.09 2.47-11.25 8.63z" class="cls-13"/><path id="path5196" d="M189.09 342.84s8.42-7.53 9.66-17.55 1.85-15.88 8.32-18.34c0 0-7.85-1.35-10.4 6.57-2.55 7.91-1.53 20.53-7.58 29.32" class="cls-12"/><path id="path5198" d="M252.7 458.72s-8.3-11.86-9.26-23.42c0 0-4.75 13.41 9.26 23.42" class="cls-12"/><path id="path5200" d="m207.69 330.68 4.01-3.39s-5.71-4.28-1.16-9.54 8.87-.94 11.95 4.3l3.7-3.08s-3.39-10.79-13.56-9.55c-10.17 1.23-11.71 15.41-4.93 21.26z" class="cls-14"/><path id="path5202" d="M206.45 303.04s13.56 1.13 26.5 8.53c0 0-9.86-14.29-26.5-8.53" class="cls-12"/><path id="path5204" d="M211.69 296.78s17.06-1.74 28.41 12.54l7.03 1.02-4.18-6.81 11.58 8.66s-1.85-16.64-15.41-21.88-25.27 2.16-27.43 6.47" class="cls-12"/><path id="path5206" d="M253.29 378.75c-1.85-.31-2.77-2.47-4.62-2.16s-4.62 1.54-5.24-1.23 1.04-3.58 1.04-3.58l-1.35-1.35c-1.85 1.23-3.08 3.39-1.85 8.63s6.07 5.55 6.07 5.55l1.66-2.17 3.98 4.95c.62 8.63-4.01 15.72-11.83 17.24s-16.22-4.6-10.9-18.24c5.31-13.64 7.27-23.58 7.27-23.58l-8.96 7.18-2.39-9.95c-5.24 13.32-2.45 19.91-2.45 19.91s-6.8-5.8-5.57-18.44c0 0-2.27 2.89-3.29 6.38 0 0-5.03-20.25 15.93-40.89 0 0-8.01 3.08-10.48 5.55 0 0 .79-9.65 13.03-12.53s15.63 2.98 15.63 2.98l-3.39-5.86s5.86.88 8.94 5.37h1.39c3.08-4.49 8.94-5.37 8.94-5.37l-3.39 5.86s3.39-5.86 15.63-2.98 13.03 12.53 13.03 12.53c-2.47-2.47-10.48-5.55-10.48-5.55 20.96 20.65 15.93 40.89 15.93 40.89-1.02-3.48-3.29-6.38-3.29-6.38 1.23 12.64-5.57 18.44-5.57 18.44s2.79-6.58-2.45-19.91l-2.39 9.95-8.96-7.18s1.96 9.95 7.27 23.58-3.08 19.76-10.9 18.24-12.44-8.61-11.83-17.24l3.98-4.95 1.66 2.17s4.83-.31 6.07-5.55 0-7.4-1.85-8.63l-1.35 1.35s1.66.81 1.04 3.58-3.39 1.54-5.24 1.23-2.77 1.85-4.62 2.16h-3.86z" class="cls-14"/><g id="g5212"><path id="path5208" d="M251.97 395.24h-3.76l-17.07 6.37c2.44 2.73 6.3 3.74 10.02 3.01 5.25-1.02 9.06-4.56 10.81-9.38" class="cls-13"/><path id="path5210" d="m279.83 400.97-17.49-5.73h-3.86c1.75 4.82 5.56 8.36 10.81 9.38 4 .78 8.15-.45 10.54-3.65" class="cls-13"/></g><path id="path5214" d="M234.96 329.64s-1.5-5.03 9.11-6.08c0 0-13.42-6.1-22.2 4.43-1.37 2.49-1.55 4.54-1.55 4.54 2.47-2.47 10.48-5.55 10.48-5.55-3.35 3.3-6.03 6.59-8.18 9.78 4.09-2.9 11.1-6.11 20.66-4.2z" class="cls-10"/><path id="path5216" d="M275.49 329.64s1.5-5.03-9.11-6.08c0 0 13.42-6.1 22.2 4.43 1.37 2.49 1.55 4.54 1.55 4.54-2.47-2.47-10.48-5.55-10.48-5.55 3.35 3.3 6.03 6.59 8.18 9.78-4.09-2.9-11.1-6.11-20.66-4.2z" class="cls-10"/><path id="path5218" d="M222.32 343.47s-1.23-3.7 3.85-4.47 7.76-1.39 15.05 4.93l8.83 5.39-11.39 4.48" class="cls-10"/><path id="path5220" d="M288.12 343.47s1.23-3.7-3.85-4.47-7.76-1.39-15.05 4.93l-8.83 5.39 11.39 4.48" class="cls-10"/><path id="path5222" d="m244.48 371.78 5.58-22.46-6.78 4.14-9.55.18s10.77 5.36 5.39 17.01l4.89-5.25.48 6.38z" class="cls-10"/><path id="path5224" d="m265.97 371.78-5.58-22.46 6.78 4.14 9.55.18s-10.77 5.36-5.39 17.01l-4.89-5.25-.48 6.38z" class="cls-10"/><path id="path5226" d="m232.18 356.1 4.01-3.7-2.31-2.83s-2.62-2.42-6.32-2.42-4.31 2.77-2.16 6.16 6.78 2.77 6.78 2.77z" class="cls-13"/><path id="path5228" d="m278.26 356.1-4.01-3.7 2.31-2.83s2.62-2.42 6.32-2.42 4.31 2.77 2.16 6.16c-2.16 3.39-6.78 2.77-6.78 2.77z" class="cls-13"/><path id="path5230" d="M266 383.61c-1.49.9-2.9 1-2.9 1l-1.66-2.17-3.98 4.95c-.62 8.63 4.01 15.72 11.83 17.24 1.94.38 3.91.28 5.7-.28.62-1.71.96-3.52.96-5.41 0-6.51-3.99-12.2-9.95-15.33" class="cls-13"/><path id="path5232" d="M234.96 398.94c0 1.94.36 3.8 1.01 5.55 1.65.43 3.43.47 5.19.13 7.82-1.52 12.44-8.61 11.83-17.24l-3.98-4.95-1.66 2.17s-1.27-.08-2.68-.87c-5.83 3.15-9.71 8.78-9.71 15.2z" class="cls-13"/><path id="path5234" d="M252.27 394.32c-5.51 8.35-16.08 5.4-16.08 5.4l-1.18.41c-5.25 1.67-4.82 3.13.96 4.36 1.65.43 3.43.47 5.19.13 5.58-1.09 9.53-5.01 11.11-10.3" class="cls-12"/><path id="path5236" d="M258.17 394.32c5.51 8.35 16.08 5.4 16.08 5.4l1.18.41c5.25 1.67 4.82 3.13-.96 4.36-1.65.43-3.43.47-5.19.13-5.58-1.09-9.53-5.01-11.11-10.3" class="cls-12"/><path id="path5238" d="M242.97 364.27s-1.23-6.93-6.47-9.71c0 0-1.54 1.23-4.31 1.54l1.54-2.47s-2.47-.31-6.16-6.47c0 0-3.39-1.85-5.24-3.7 0 0 1.54-3.7 8.63-2.77 7.09.92 8.94 9.86 19.11 8.63l-5.24 4.31s-.62 7.09-1.85 10.63z" class="cls-8"/><path id="path5240" d="M233.26 345.78s.62 2.77 1.85 3.39 3.08-.92 3.08-.92l.92 1.07s-1.23 2.02-2.92 2.02-5.39-.93-4.78-6.17c0 0 .62-.92 1.85.62z" class="cls-14"/><path id="path5242" d="M224.63 337.77s9.86-5.24 21.88 6.16c0 0-2.17-4.13-7.4-8.69s-12.01-3.02-14.48 2.53" class="cls-13"/><path id="path5244" d="M267.48 455.02s15.27-15.83 11.11-34.97c0 0 3.82 6.6 3.82 10.56 0 0 3.47-11.55-1.04-22.43 0 0 18.74 29.36-13.88 46.84z" class="cls-12"/><path id="path5246" d="M299.37 430.22s11.71-17.26-10.79-35.75c0 0 8.63.92 12.94 5.24 0 0-2.47-9.25-12.02-15.1 0 0 8.94 0 15.1 6.47s13.25 29.58-5.24 39.14z" class="cls-12"/><path id="path5248" d="M315.09 415.42s5.55-17.87-11.09-34.21c0 0 25.27 8.32 11.09 34.21" class="cls-12"/><path id="path5250" d="M286.72 406.02s9.26 14.96 4.33 28.52c0 0 13.21-17.58-4.33-28.52" class="cls-12"/><path id="path5252" d="M325.26 402.45s-1.39-23.24-19.57-28.17c0 0 5.74-2.31 11.03.69 0 0-3.47-7.88-16.81-9.99 0 0 15-.34 21.48 6.79s9.56 18.47 3.86 30.67z" class="cls-12"/><path id="path5254" d="M331.73 377.21s-10.48-18.05-27.74-18.12c0 0 5.7-1.74 10.09-1.83 0 0-14.42-9.66-18.26-14.43 0 0 7.25 2.94 16.8 4.79s19.11 13.56 19.11 29.58z" class="cls-12"/><path id="path5256" d="m317.24 344.54-17.33-4.49s-4.24-1.67-5.17-6.61l11.25 2.46s9.09 2.47 11.25 8.63z" class="cls-12"/><path id="path5258" d="M321.36 342.84s-8.42-7.53-9.66-17.55c-1.23-10.02-1.85-15.88-8.32-18.34 0 0 7.85-1.35 10.4 6.57s1.53 20.53 7.58 29.32" class="cls-12"/><path id="path5260" d="M258.64 458.72s8.3-11.86 9.26-23.42c0 0 4.75 13.41-9.26 23.42" class="cls-12"/><path id="path5262" d="m302.76 330.68-4.01-3.39s5.71-4.28 1.16-9.54-8.87-.94-11.95 4.3l-3.7-3.08s3.39-10.79 13.56-9.55c10.17 1.23 11.71 15.41 4.93 21.26z" class="cls-14"/><path id="path5264" d="M303.99 303.04s-13.56 1.13-26.5 8.53c0 0 9.86-14.29 26.5-8.53" class="cls-12"/><path id="path5266" d="M298.75 296.78s-17.06-1.74-28.41 12.54l-7.03 1.02 4.18-6.81-11.58 8.66s1.85-16.64 15.41-21.88 25.27 2.16 27.43 6.47" class="cls-12"/><path id="path5268" d="M255.22 295.43c-9.59-11.23-23.5-11.59-23.5-11.59s12.88-7 23.5 2.32c10.62-9.32 23.5-2.32 23.5-2.32s-13.91.37-23.5 11.59" class="cls-12"/><path id="path5270" d="M267.48 364.27s1.23-6.93 6.47-9.71c0 0 1.54 1.23 4.31 1.54l-1.54-2.47s2.47-.31 6.16-6.47c0 0 3.39-1.85 5.24-3.7 0 0-1.54-3.7-8.63-2.77-7.09.92-8.94 9.86-19.11 8.63l5.24 4.31s.62 7.09 1.85 10.63z" class="cls-8"/><path id="path5272" d="M277.18 345.78s-.62 2.77-1.85 3.39-3.08-.92-3.08-.92l-.92 1.07s1.23 2.02 2.92 2.02 5.39-.93 4.78-6.17c0 0-.62-.92-1.85.62z" class="cls-14"/><path id="path5274" d="M285.81 337.77s-9.86-5.24-21.88 6.16c0 0 2.17-4.13 7.4-8.69s12.01-3.02 14.48 2.53" class="cls-13"/><g id="g5288"><path id="path5276" d="M227.1 389.23s8.94-2.47 13.56-2.47v-1.34l-12.44-.82" class="cls-8"/><path id="path5278" d="M227.41 395.24s10.46-3.2 15.87-3.2v-1.74l-15.87.94" class="cls-8"/><path id="path5280" d="M230.05 403.65s10.65-5.76 16.54-7.13l-.39-1.7-17.05 4.92" class="cls-8"/><path id="path5282" d="M283.35 389.23s-8.94-2.47-13.56-2.47v-1.34l12.44-.82" class="cls-8"/><path id="path5284" d="M283.04 395.24s-10.46-3.2-15.87-3.2v-1.74l15.87.94" class="cls-8"/><path id="path5286" d="M280.4 403.65s-10.65-5.76-16.54-7.13l.39-1.7 17.05 4.92" class="cls-8"/></g><path id="path5290" d="M239.12 290.31c-13.56-5.24-25.27 2.16-27.43 6.47h.04c.8-.2 14.64-7.32 28.93 4.9 0 0-2.31-7.52-8.47-9.98 0 0 10.17-.92 22.34 20.49 0 0-1.85-16.64-15.41-21.88" class="cls-13"/><path id="path5292" d="M255.22 286.16c-10.62-9.32-23.5-2.32-23.5-2.32s15.41-2.92 23.5 6.78c0 0 5.32-8.17 23.5-6.78 0 0-12.88-7-23.5 2.32" class="cls-13"/><path id="path5294" d="M178.72 377.21c3.85-16.8 14.48-22.69 14.48-22.69l21.42-11.68s-7.25 2.94-16.8 4.79-19.11 13.56-19.11 29.58z" class="cls-13"/><path id="path5296" d="M197.31 370.61c2.55-2.19 6.71-4.6 13.22-5.63 0 0-15-.34-21.48 6.79s-9.56 18.47-3.86 30.67c-1.71-23.67 7.33-30.1 12.12-31.84z" class="cls-13"/><path id="path5298" d="M205.84 391.08c-6.15 6.46-13.21 29.47 5.11 39.07-1.15-.65-9.49-5.94-8.27-22.73 1.31-18.03 18.26-22.8 18.26-22.8s-8.94 0-15.1 6.47z" class="cls-13"/><path id="path5300" d="m265.76 327.99-10.84-.86-10.84.86v1.43l4.09.97a7.06 7.06 0 0 1 5.39 6.1l.66 6.06h1.43l.66-6.06a7.05 7.05 0 0 1 5.39-6.1l4.09-.97v-1.43z" class="cls-10"/><path id="polyline5302" d="M250.06 349.32h10.33l1.69 3.7-6.86-2.99-6.89 3.77" class="cls-10"/><path id="path5304" d="M265.39 370.73c-6.88 1.45-13.31 1.45-20.19 0v-2.92c6.88 1.45 13.31 1.45 20.19 0z" class="cls-13"/><path id="path5306" d="M210.53 315.29c-7.79 5.11-1.91 13.99-1.91 13.99l.83-.1 2.24-1.9s-5.71-4.28-1.16-9.54 8.87-.94 11.95 4.3l2.16-1.8s-6.32-10.07-14.11-4.96z" class="cls-10"/><path id="path5308" d="M221.09 311.57c-2.06-1.54-4.81-2.59-8.41-2.16-8.02.97-10.71 9.86-8.23 16.49 0 0-3.05-17.88 16.63-14.33z" class="cls-13"/><path id="path5310" d="m317.24 344.54-17.33-4.49s-4.24-1.67-5.17-6.61l11.25 2.46s9.09 2.47 11.25 8.63z" class="cls-13"/><path id="path5312" d="M271.33 290.31c13.56-5.24 25.27 2.16 27.43 6.47h-.04c-.8-.2-14.64-7.32-28.93 4.9 0 0 2.31-7.52 8.47-9.98 0 0-10.17-.92-22.34 20.49 0 0 1.85-16.64 15.41-21.88" class="cls-13"/><path id="path5314" d="M331.73 377.21c-3.85-16.8-14.48-22.69-14.48-22.69l-21.42-11.68s7.25 2.94 16.8 4.79 19.11 13.56 19.11 29.58z" class="cls-13"/><path id="path5316" d="M313.14 370.61c-2.55-2.19-6.71-4.6-13.22-5.63 0 0 15-.34 21.48 6.79s9.56 18.47 3.86 30.67c1.71-23.67-7.33-30.1-12.12-31.84z" class="cls-13"/><path id="path5318" d="M304.61 391.08c6.15 6.46 13.21 29.47-5.11 39.07 1.15-.65 9.49-5.94 8.27-22.73-1.31-18.03-18.26-22.8-18.26-22.8s8.94 0 15.1 6.47z" class="cls-13"/><path id="path5320" d="M299.92 315.29c7.79 5.11 1.91 13.99 1.91 13.99l-.83-.1-2.24-1.9s5.71-4.28 1.16-9.54-8.87-.94-11.95 4.3l-2.16-1.8s6.32-10.07 14.11-4.96z" class="cls-10"/><path id="path5322" d="M289.36 311.57c2.06-1.54 4.81-2.59 8.41-2.16 8.02.97 10.71 9.86 8.23 16.49 0 0 3.05-17.88-16.63-14.33z" class="cls-13"/><path id="path5324" d="M214.87 367.87c1.02-3.48 3.29-6.38 3.29-6.38-1.23 12.64 5.57 18.44 5.57 18.44s-2.79-6.58 2.45-19.91l2.39 9.95 2.78-12.12s-7.96 3.79-15.64-6.02c-2.47 9.47-.84 16.03-.84 16.03z" class="cls-10"/><path id="path5326" d="M225.41 357.03s-4.31 6.78-4.31 10.79c0 0-1.54-5.81-1.39-12 0 0-2.99 3.94-3.42 4.73s2.97-10 2.97-10" class="cls-14"/><path id="path5328" d="M295.58 367.87c-1.02-3.48-3.29-6.38-3.29-6.38 1.23 12.64-5.57 18.44-5.57 18.44s2.79-6.58-2.45-19.91l-2.39 9.95-2.78-12.12s7.96 3.79 15.64-6.02c2.47 9.47.84 16.03.84 16.03z" class="cls-10"/><path id="path5330" d="M285.04 357.03s4.31 6.78 4.31 10.79c0 0 1.54-5.81 1.39-12 0 0 2.99 3.94 3.42 4.73s-2.97-10-2.97-10" class="cls-14"/><path id="path5332" d="M254.12 431.45s-6.78-5.86-6.47-16.64c0 0-4.01 5.86.62 15.41 0 0-8.01-4.01-5.24-16.64 0 0-3.39 3.08-3.39 10.17 0 0-4.01-4.31-1.23-13.87 0 0 8.94 2.72 16.33-7.42h1.18c7.4 10.14 16.33 7.42 16.33 7.42 2.77 9.55-1.23 13.87-1.23 13.87 0-7.09-3.39-10.17-3.39-10.17 2.77 12.64-5.24 16.64-5.24 16.64 4.62-9.55.62-15.41.62-15.41.31 10.79-7.09 16.64-7.09 16.64z" style="fill:#fcf7d9"/><path id="path5334" d="m255.22 408.18-5.16 17.68c1.84 3.67 4.06 5.59 4.06 5.59h1.8s2.44-1.94 4.46-5.62l-5.15-17.64z" class="cls-12"/><path id="path5336" d="m214.7 336.23-6 1.35c-2.82.63-5.54 1.64-8.09 3.01l-7.41 3.96 17.33-4.49s2.59-1.02 4.17-3.83" class="cls-12"/><path id="path5338" d="m295.75 336.23 6 1.35c2.82.63 5.54 1.64 8.09 3.01l7.41 3.96-17.33-4.49s-2.59-1.02-4.17-3.83" class="cls-12"/></g></g></svg>