<svg xmlns="http://www.w3.org/2000/svg" id="Layer_1" width="357.02" height="298.74" data-name="Layer 1" viewBox="0 0 357.02 298.74"><defs id="defs8199"><clipPath id="clippath"><path id="path8193" d="m387.14 363.88-62.41-9.82c-8.55-1.35-17.19-2.14-25.84-2.38l-71.28-1.78v-19.53h159.53v33.5z" class="cls-1"/></clipPath><clipPath id="clippath-1"><path id="path8196" d="M584.27 854.87v141.58h313.26V854.87Zm175.33 41.34c-3.58-.8-6.64-.97-8.6-.97-1.47 0-2.35.1-2.38.1l-1.2.16h-13.15l-1.15-.16c-.01 0-.88-.09-2.32-.09-1.96 0-5.01.18-8.59.97v-39.83c2.97-.33 5.91-.51 8.76-.51 2.54 0 4.52.13 5.73.24h8.51c1.13-.11 3.11-.24 5.63-.24 2.85 0 5.8.18 8.77.51v39.83z" class="cls-1"/></clipPath><linearGradient id="linear-gradient" x1="307.38" x2="307.38" y1="363.88" y2="330.37" gradientUnits="userSpaceOnUse"><stop id="stop8176" offset="0" stop-color="#008900"/><stop id="stop8178" offset=".07" stop-color="#00901a"/><stop id="stop8180" offset=".25" stop-color="#00a155"/><stop id="stop8182" offset=".42" stop-color="#00af85"/><stop id="stop8184" offset=".58" stop-color="#00b9ab"/><stop id="stop8186" offset=".73" stop-color="#00c1c6"/><stop id="stop8188" offset=".86" stop-color="#00c6d7"/><stop id="stop8190" offset=".96" stop-color="#00c8dd"/></linearGradient><style id="style8174">.cls-1,.cls-4{fill:none}.cls-7{fill:#fff}.cls-4{stroke:#0a3ee4;stroke-miterlimit:10;stroke-width:3.16px}.cls-9{fill:#0a3ee4}</style></defs><g id="g8327" transform="translate(-86.03 -216.68)"><path id="path8201" d="M434.13 288.24c1.8-.9 2.53-3.09 1.64-4.89l-1.44-2.89a16.3 16.3 0 0 0-9.49-8.24c-4.17-1.39-8.62-1.09-12.54.87l-7.76 3.87c-1.61.8-3.04 1.83-4.29 3.08a16.4 16.4 0 0 0-4.29-3.08l-7.76-3.87a16.32 16.32 0 0 0-12.54-.88c-1.72.58-3.3 1.42-4.7 2.48h-49.27v-35.12H256.7v33.02h-27.98v-24.75l-24.25-31.16-24.77 31.08v40.67a16.63 16.63 0 0 0-8.48-11.06c1.8-.9 2.53-3.09 1.64-4.89l-1.44-2.89a16.3 16.3 0 0 0-9.49-8.24c-4.16-1.39-9.73-1.09-13.65.87l-7.76 3.87c-1.61.8-3.04 1.83-4.29 3.08a16.4 16.4 0 0 0-4.29-3.08l-7.76-3.87a16.32 16.32 0 0 0-12.56-.87c-4.18 1.41-7.6 4.49-9.57 8.44l-1.35 2.7a3.64 3.64 0 0 0 1.64 4.89c-5.34 2.79-8.87 8.42-8.87 14.58 0 3.8 3.08 6.88 6.88 6.88h3.43c-1.3 3.44-1.38 7.26-.17 10.77 1.23 3.59 5.15 5.5 8.74 4.27l12.91-4.43-2.3 24.28c-1.84.44-3.68.88-5.48 1.33-8.38 2.09-15.84 7.16-22.19 15.06l-.17.22c-5.95 8.05-9.01 16.46-9.09 25.02v10.7c.04 8.63 3.58 16.12 9.98 21.09 4.4 3.42 9.77 5.35 15.48 5.68-1.77.46-3.54.93-5.29 1.4-9.99 2.6-17.92 12.83-18.05 23.28v.25c.24 10.26 4.09 18.44 11.13 23.65 4.87 3.6 10.71 5.43 17.39 5.43 2.73 0 5.6-.32 8.54-.95l.15-.03c1.99-.48 4.03-.96 6.07-1.42 4.09-.95 8.09-2.48 11.88-4.56l8.23-1.39c28.07-4.74 58.62-7.66 88.34-8.45 31.43-.84 61.09.63 88.13 4.35 17.5 2.41 35.42 5.78 53.25 10.01h.04c6.48 1.5 13.08 2.49 19.62 2.96.54.04 1.09.06 1.63.06 7.37 0 14.01-3.48 17.76-9.31 3.34-5.19 4.29-11.56 2.84-18.93-1.32-6.69-4.56-13.54-9.11-19.3l-1.53-1.94c-.67-6.29-3.41-12.55-7.75-17.68-2.59-3.07-5.67-5.62-9.01-7.51l19.55 5.44-4.96-78.19 13.84 4.75c3.59 1.23 7.51-.68 8.74-4.27 1.22-3.54 1.15-7.31-.16-10.77h3.41c3.8 0 6.88-3.08 6.88-6.88 0-6.16-3.53-11.79-8.87-14.58z" class="cls-7"/><path id="path8203" d="M225.81 355.4c-.23.16-.47.33-.69.5v-.52z" class="cls-7"/><path id="path8205" d="M341.79 424.82q-3.645-.57-7.29-1.11c-5-.68-9.84-3-13.44-6.5-3.68-3.58-6.01-8.67-5.94-13.86v-5.88c.06-7.54 6.57-13.52 14.17-12.35 5.15.71 11.4 2.59 16.54 3.43v9.78c-5.13-.84-11.38-2.72-16.54-3.43-2.33-.45-4.25 1.53-4.33 3.74v5.88c0 5.3 4.67 8.72 9.54 9.41q3.645.54 7.29 1.11c4.13.59 8.15-2.25 8.01-6.67v-20.1c0-6.92-5.59-13.39-12.43-14.43-5.76-.86-11.54-1.64-17.32-2.34-.13-5.32 4.68-9.24 9.83-8.52 2.5.35 5 .71 7.49 1.08 12.26 1.85 22.2 13.65 22.2 26v20.1c.01 9.61-8.41 16.28-17.78 14.66" class="cls-9"/><path id="path8207" d="M235 418.22q-3.675.135-7.35.3c-9.49.46-18.09-6.88-17.96-16.64v-71.25c3.29-.26 6.58-.27 9.87-.48v71.03c.08 4.28 3.7 7.89 8.08 7.56q3.675-.165 7.35-.3c5.18-.07 9.61-4.59 9.61-9.75v-26.7c0-2.28-2.02-4.37-4.36-4.22-5.28.14-10.56.35-15.84.62-.11-5.38 4.6-10.03 9.88-10.22 1.99-.07 3.97-.13 5.96-.18 7.61-.13 14.38 6.17 14.25 13.92v26.7c0 10.65-9.02 19.25-19.5 19.61z" class="cls-9"/><path id="path8209" d="M262.46 418.37v-60.45c9.34.15 18.66.53 27.98 1.12 3.89.29 7.69 2.65 9.4 6.08 1.62 3.24 2.09 6.93.22 10.33-2.35 6.36-4.7 12.71-7.04 19.07l-.23.38c-.61 1-.95 2.16-.96 3.37-.04 6.22 5.14 11.58 11.27 12.13q4.395.39 8.79.84c0 3.26 3.59 6.61 3.59 9.87-2.93-.3-9.44-.68-12.37-.94-11.39-1-21.43-11.09-21.15-22.41.07-2.82.77-5.32 2.06-7.9 2.34-6.39 4.69-12.78 7.04-19.16.09-.14.13-.21.22-.36.19-.3.19-.7 0-1.02-.19-.31-.46-.48-.83-.51-6.03-.38-12.05-.68-18.09-.88v40.88c0 5.28-4.58 9.74-9.89 9.55z" class="cls-9"/><path id="path8211" d="M416.37 440.49c-1.15-5.81-4.05-11.68-7.76-16.36-.24 3.46-.9 7.83-3.91 10.09.76 1.51 1.43 2.99 1.99 4.56.04.11.08.22.11.32.75 2.68.9 5.53-.68 8.05-1.38 2.21-4.18 3.41-6.77 3.21-5.53-.41-11.08-1.2-16.54-2.45-17.4-4.14-34.98-7.49-52.7-9.97-54.21-7.57-115.12-7.03-169.44 1.35a52 52 0 0 1-4.74 6.85l-.05.06-.05.06a55 55 0 0 1-5.47 5.44c56.41-9.52 122.21-11.88 178.55-4.14 18.12 2.49 36.1 5.9 53.89 10.13 6.13 1.41 12.3 2.35 18.56 2.79 5.08.36 10.33-1.77 13.13-6.11 2.69-4.18 2.8-9.16 1.87-13.87z" class="cls-9"/><path id="path8213" d="M402.89 439.54s8.72-3.06 9.57-21.61l-11.57 1.64-6.66 15.53" class="cls-7"/><path id="path8215" d="M180.22 362.73q-3.75.51-7.5 1.05c-5.38.8-9.79 5.87-9.8 11.32 5.75-.94 11.52-1.81 17.3-2.59 6.68-.91 12.5 4.13 12.48 10.89v20.1c.1 4.5-3.77 8.33-8.05 8.96-2.44.31-4.87.63-7.3.97-4.71.41-9.46-1.24-9.53-6.69v-5.88c-.06-2.4 2.03-4.61 4.32-4.97 5.14-.76 11.67-1.67 16.83-2.3v-9.78c-5.16.63-11.68 1.54-16.83 2.3-5.83.79-10.77 5.19-12.94 10.6 1.81 2.17 3.29 4.63 4.44 7.34 1.7 4 2.62 8.46 2.73 13.25v1.58c0 .99-.03 1.98-.11 2.97 3.44 1.54 7.28 1.77 11.08 1.38 2.43-.33 4.87-.66 7.3-.97 9.7-1.11 17.9-9.91 17.9-19.74v-20.1c0-12.05-10.36-21.28-22.34-19.67z" class="cls-9"/><g id="g8243"><path id="path8217" d="M263.76 412.14c-28.48 0-51.64 23.17-51.64 51.64s23.17 51.64 51.64 51.64 51.64-23.17 51.64-51.64-23.17-51.64-51.64-51.64" class="cls-7"/><g id="g8223"><path id="path8219" d="m263.76 450.58 11.77 20.38h-23.54zm0-6.33-2.74 4.74-11.77 20.38-2.74 4.74H281l-2.74-4.74-11.77-20.38-2.74-4.74z" class="cls-9"/><path id="path8221" d="m275.53 457.37-11.77 20.39-11.77-20.39zm5.47-3.16h-34.49l2.74 4.74 11.77 20.39 2.74 4.74 2.74-4.74 11.77-20.39 2.74-4.74z" class="cls-9"/></g><path id="path8225" d="M263.76 510.37c25.69 0 46.59-20.9 46.59-46.59s-20.9-46.59-46.59-46.59-46.59 20.9-46.59 46.59 20.9 46.59 46.59 46.59m-33.42-23.95h24.26a45.9 45.9 0 0 0-17.6 7.56 40.3 40.3 0 0 1-6.65-7.56zm11.91 11.51c6.42-4.06 13.78-6.2 21.5-6.2s15.08 2.14 21.51 6.2a40.13 40.13 0 0 1-21.51 6.23c-7.9 0-15.27-2.29-21.5-6.22zm48.27-3.95c-5.33-3.75-11.29-6.31-17.59-7.56h24.25a40.7 40.7 0 0 1-6.66 7.56m6.82-52.6h-25.72c6.79-1.14 13.2-3.78 18.9-7.8a40.6 40.6 0 0 1 6.82 7.8m-12.07-11.76c-6.42 4.06-13.78 6.2-21.51 6.2s-15.08-2.14-21.51-6.2a40.1 40.1 0 0 1 21.51-6.22c7.9 0 15.28 2.28 21.51 6.22M237 433.58a46.2 46.2 0 0 0 18.93 7.8h-25.76a40.6 40.6 0 0 1 6.82-7.8zm63.74 14.01c2.18 4.96 3.4 10.43 3.4 16.19s-1.26 11.41-3.51 16.43h-73.75a40.1 40.1 0 0 1-3.51-16.43c0-5.85 1.22-11.23 3.4-16.19z" class="cls-9"/><path id="line8227" d="M238.91 445.14v36.5" class="cls-4"/><path id="line8229" d="M234.25 445.14v36.5" class="cls-4"/><path id="line8231" d="M229.59 445.14v36.5" class="cls-4"/><path id="line8233" d="M224.93 445.14v36.5" class="cls-4"/><path id="line8235" d="M288.61 482.42v-36.5" class="cls-4"/><path id="line8237" d="M293.27 482.42v-36.5" class="cls-4"/><path id="line8239" d="M297.93 482.42v-36.5" class="cls-4"/><path id="line8241" d="M302.59 482.42v-36.5" class="cls-4"/></g><g id="g8259"><path id="path8245" d="M109.43 273.28c5.27 0 9.55 4.28 9.55 9.55v8.67c0 5.27-4.28 9.55-9.55 9.55v-27.78z" class="cls-9" transform="rotate(-90 114.2 287.17)"/><path id="path8247" d="M118.05 260.69c5.27 0 9.55 4.28 9.55 9.55v8.67c0 5.27-4.28 9.55-9.55 9.55v-27.78z" class="cls-9" transform="rotate(-63.51 122.819 274.562)"/><path id="path8249" d="M113.41 290.07c4.97 0 9.01 4.04 9.01 9.01v1.65c0 4.97-4.04 9.01-9.01 9.01z" class="cls-9" transform="rotate(-108.96 117.9 299.897)"/><path id="path8251" d="M153.42 273.28c5.27 0 9.55 4.28 9.55 9.55v8.67c0 5.27-4.28 9.55-9.55 9.55v-27.78z" class="cls-9" transform="rotate(-90 158.2 287.17)"/><path id="path8253" d="M144.8 260.69c5.27 0 9.55 4.28 9.55 9.55v8.67c0 5.27-4.28 9.55-9.55 9.55v-27.78z" class="cls-9" transform="rotate(-116.49 149.579 274.574)"/><path id="path8255" d="M149.99 290.07c4.97 0 9.01 4.04 9.01 9.01v1.65c0 4.97-4.04 9.01-9.01 9.01z" class="cls-9" transform="rotate(-71.04 154.507 299.908)"/><path id="polygon8257" d="M133.78 291.88h4.49l5.17 54.69h-14.83z" class="cls-9"/></g><g id="g8275"><path id="path8261" d="M373.46 284.15c5.27 0 9.55 4.28 9.55 9.55v8.67c0 5.27-4.28 9.55-9.55 9.55v-27.78z" class="cls-9" transform="rotate(-90 378.24 298.04)"/><path id="path8263" d="M382.09 271.56c5.27 0 9.55 4.28 9.55 9.55v8.67c0 5.27-4.28 9.55-9.55 9.55v-27.78z" class="cls-9" transform="rotate(-63.51 386.84 285.442)"/><path id="path8265" d="M377.44 300.94c4.97 0 9.01 4.04 9.01 9.01v1.65c0 4.97-4.04 9.01-9.01 9.01z" class="cls-9" transform="rotate(-108.96 381.927 310.78)"/><path id="path8267" d="M417.46 284.15c5.27 0 9.55 4.28 9.55 9.55v8.67c0 5.27-4.28 9.55-9.55 9.55v-27.78z" class="cls-9" transform="rotate(-90 422.23 298.04)"/><path id="path8269" d="M408.83 271.56c5.27 0 9.55 4.28 9.55 9.55v8.67c0 5.27-4.28 9.55-9.55 9.55v-27.78z" class="cls-9" transform="rotate(-116.49 413.62 285.438)"/><path id="path8271" d="M414.02 300.94c4.97 0 9.01 4.04 9.01 9.01v1.65c0 4.97-4.04 9.01-9.01 9.01z" class="cls-9" transform="rotate(-71.04 418.557 310.775)"/><path id="polygon8273" d="M397.82 302.75h4.48l5.48 86.2-15.14-4.22z" class="cls-9"/></g><path id="polygon8277" d="M186.39 299.54h45.88v8.88h-37.01v30.97h-11.09z" class="cls-9"/><path id="path8279" d="M282.74 315.07v-26.74h-58.92l-2.22 13.37h-8.88v-22.24h78.89v21.25c0 6.08-3.44 11.64-8.88 14.36z" class="cls-9"/><path id="path8281" d="m387.14 363.88-62.41-9.82c-8.55-1.35-17.19-2.14-25.84-2.38l-71.28-1.78v-19.53h159.53v33.5z" style="fill:url(#linear-gradient)"/><path id="path8283" d="M348.98 308.41v-17.98h-17.64v15.7h-25.43v-50.82h-33.48l2.22 17.37h-11.09v-26.25h51.23v50.82h7.68v-15.7h35.39v12.49c0 6.08-3.44 11.64-8.88 14.36z" class="cls-9"/><path id="polygon8285" d="m186.56 250.16 17.83-22.37 17.43 22.4v21.95h-8.87v-18.9l-8.64-11.1-8.87 11.13 2.22 39.61h-11.1z" class="cls-9"/><path id="line8287" d="M190.82 256.68h26.57" style="fill:none;stroke-width:8.88px;stroke:#0a3ee4;stroke-miterlimit:10"/><g id="g8299" style="clip-path:url(#clippath)"><g id="g8297"><path id="rect8289" d="M221.62 345.02h167v2.22h-167z" class="cls-7"/><path id="rect8291" d="M223 337.92h165.64v1.11H223z" class="cls-7"/><path id="rect8293" d="M221.62 351.23h167v3.11h-167z" class="cls-7"/><path id="rect8295" d="M223.47 356.55h167v3.77h-167z" class="cls-7"/></g></g><path id="polyline8301" d="m122.83 340.8 20.61-4.58-15.35-2.3" class="cls-7"/><path id="polyline8303" d="m391.3 374.65 16.48 4.5-15.31-12.61" class="cls-7"/><path id="path8305" d="M145.77 459.45s15.28-6.82 22.16-32.56-10.43-40.01-18.53-47.74-3.63 34.84-3.63 34.84" class="cls-7"/><path id="path8307" d="M174.13 354.04c-.73-5.43-3.39-10.75-7.68-14.23-5.33-4.43-12.07-5.52-18.76-4.43-9.58 1.88-19.1 3.99-28.58 6.34-7.54 1.89-13.7 6.73-18.49 12.7-4.52 6.11-7.67 13.26-7.74 20.97v10.63c.07 14.6 12.99 22.58 26.56 19.19 3.47-.86 6.94-1.69 10.42-2.49 11.08-2.55 20.98 5.32 20.97 16.7v1.49c0 11.86-9.57 22.83-20.97 25.44-2.04.47-4.08.95-6.11 1.43-5.29 1.28-11.48.15-14.84-4.48-1.75-2.19-1.11-5.06-.23-7.42 1.23-2.59 3.57-4.76 6.37-5.5 6.88-1.76 13.79-3.4 20.74-4.92v-1.96c.02-4.99-4.46-8.6-9.34-7.3-6.19 1.47-12.35 3.03-18.49 4.69-7.16 1.85-12.83 9.39-12.93 16.72.17 7.09 2.46 13.92 8.35 18.28 5.95 4.41 13.37 4.79 20.38 3.29 2.04-.49 4.07-.96 6.11-1.43 9.03-2.1 16.79-7.3 22.84-14.23 5.67-6.97 9.56-15.49 9.5-24.62v-1.49c-.2-8.15-3.04-16-9.5-21.27-6.51-5.32-14.79-6.41-22.84-4.78-3.59.83-7.17 1.68-10.74 2.57-3.63.91-7.64.56-10.7-1.74-3.02-2.27-4.41-5.97-4.37-9.66v-10.44c.12-4.32 1.89-8.6 4.63-11.93 2.7-3.32 6.42-6.09 10.64-7.09a600 600 0 0 1 28.18-6.25c3.74-.74 7.73-.04 10.77 2.34 2.15 1.62 3.66 4.12 4.3 6.71q5.79-.96 11.58-1.8z" class="cls-9"/><path id="path8309" d="M386.52 436.2c-1.33-.33-2-.49-3.34-.8-9.52-2.27-17.54-11.88-17.6-21.68-.03-4.75 4.36-8.03 8.92-7q5.085 1.125 10.14 2.34c3.7.96 6.92 4.69 6.85 8.62v2.86c-5.36-1.35-10.75-2.64-16.14-3.85.49 4.09 3.72 8.03 7.83 8.93l3.34.8c4.99 1.37 9.63-2.11 9.6-7.29v-.81c-.02-5.49-4.29-10.85-9.6-12.16-1.89-.46-3.79-.91-5.69-1.36-8.76-2.05-16.47-10.61-16.42-19.82.04-8.74 7.58-15.08 16.25-12.92 3.56.83 7.1 1.7 10.64 2.59 5.34 1.37 9.63 6.79 9.64 12.32-6.7-1.81-13.42-3.51-20.18-5.1-3.35-.81-6.61 1.42-6.62 4.94-.02 3.65 2.87 7.4 6.52 8.17 1.96.46 3.91.93 5.87 1.4 10.69 2.62 19.22 13.57 19.23 24.57v.81c.02 10.53-9.21 17.03-19.23 14.44z" class="cls-9"/><g id="g8325"><path id="path8311" d="m247.85 321.15-.3-1.07c-.25-.9-.46-1.56-.65-1.98-.18-.42-.38-.71-.6-.88s-.51-.25-.88-.25h-.97v14.58q0 1.005.15 1.35c.1.22.33.39.7.5l.39.11v1.15h-6.87v-1.15l.39-.11c.37-.11.6-.28.7-.5q.15-.33.15-1.35v-14.58h-.97c-.37 0-.66.08-.88.25s-.42.46-.6.88-.4 1.08-.65 1.98l-.3 1.07h-.92v-5.83h13.01v5.83h-.92z" class="cls-9"/><path id="path8313" d="M262.48 332.95c.42-.21.81-.63 1.17-1.28.35-.64.68-1.6.97-2.87h1.2v5.86h-11.95v-1.15l.32-.11c.31-.11.5-.28.59-.5.08-.22.13-.67.13-1.35v-13.12c0-.67-.04-1.12-.13-1.35s-.28-.39-.59-.5l-.32-.11v-1.15h11.77v5.47h-1.15s0-.04-.01-.06c0-.02-.01-.04-.01-.06-.31-1.03-.65-1.83-1.04-2.41-.38-.58-.8-.98-1.26-1.21-.45-.22-.97-.34-1.56-.34h-2.95l1.64-.73v17.99l-2.72-.73h4.34c.63 0 1.16-.1 1.58-.31zm-.54-6.33c-.25-.34-.51-.57-.78-.7s-.6-.2-.97-.2h-2.38v-1.57h2.42c.4 0 .73-.07.98-.2s.5-.36.73-.69.48-.82.74-1.47h1.13v6.28h-1.13c-.25-.63-.49-1.12-.74-1.46z" class="cls-9"/><path id="path8315" d="M271.38 334.66v-1.15l.32-.11c.31-.11.5-.28.59-.5.08-.22.13-.67.13-1.35v-13.12c0-.67-.04-1.12-.13-1.35s-.28-.39-.59-.5l-.32-.11v-1.15h6.46v1.15l-.32.11c-.31.11-.5.28-.59.5-.08.22-.13.67-.13 1.35v15.56l-3.41-.73h4.75c.55 0 1.05-.15 1.48-.45q.645-.45 1.11-1.56c.31-.74.55-1.74.72-3.01h1.2v6.42h-11.26z" class="cls-9"/><path id="path8317" d="M302.59 334.66v-1.15l.25-.11q.525-.255.96-1.05c.29-.53.55-1.21.8-2.02s.57-1.99.97-3.52l2.95-11.58h2.88l4.38 16.4c.15.6.31 1.01.48 1.25.17.23.42.41.74.52l.32.11v1.15h-7.13v-1.15l.39-.11c.26-.07.43-.17.52-.28.08-.11.12-.27.1-.48s-.08-.54-.21-1.01l-2.98-12.56 1.13-1.68-2.4 9.42c-.03.13-.07.27-.1.41-.04.14-.07.29-.1.43-.35 1.36-.59 2.39-.71 3.08q-.18 1.035 0 1.74c.12.47.44.78.95.92l.39.11v1.15h-4.59zm9.2-6.89.05 1.4h-6.18l.21-1.4h5.93z" class="cls-9"/><path id="path8319" d="M333.96 315.32v1.15l-.25.11c-.35.17-.67.52-.96 1.07-.29.54-.55 1.22-.78 2.05-.24.82-.53 1.99-.89 3.5l-2.72 11.46h-3.09l-4.06-16.31c-.15-.62-.31-1.04-.47-1.26s-.4-.39-.73-.5l-.32-.11v-1.15h7.11v1.15l-.42.11c-.28.08-.47.17-.56.28q-.15.165-.12.48c.02.21.09.54.2 1.01l2.84 11.97-.95 1.93 2.12-9.03a7 7 0 0 1 .23-.95q.465-1.995.63-3.03.18-1.035 0-1.74c-.12-.47-.4-.78-.87-.93l-.37-.11v-1.15z" class="cls-9"/><path id="path8321" d="M338.76 334.66v-1.15l.32-.11c.31-.11.5-.28.59-.5.08-.22.13-.67.13-1.35v-13.12c0-.67-.04-1.12-.13-1.35s-.28-.39-.59-.5l-.32-.11v-1.15h6.46v1.15l-.32.11c-.31.11-.5.28-.59.5-.08.22-.13.67-.13 1.35v13.12c0 .67.04 1.12.13 1.35.08.22.28.39.59.5l.32.11v1.15z" class="cls-9"/><path id="path8323" d="M364.07 315.32v1.15l-.25.11c-.35.17-.67.52-.96 1.07-.29.54-.55 1.22-.78 2.05-.24.82-.53 1.99-.89 3.5l-2.72 11.46h-3.09l-4.06-16.31c-.15-.62-.31-1.04-.47-1.26s-.4-.39-.73-.5l-.32-.11v-1.15h7.11v1.15l-.42.11c-.28.08-.47.17-.56.28q-.15.165-.12.48c.02.21.09.54.2 1.01l2.84 11.97-.95 1.93 2.12-9.03a7 7 0 0 1 .23-.95q.465-1.995.63-3.03.18-1.035 0-1.74c-.12-.47-.4-.78-.87-.93l-.37-.11v-1.15z" class="cls-9"/></g></g></svg>