<svg xmlns="http://www.w3.org/2000/svg" id="Layer_1" data-name="Layer 1" version="1.1" width="491.26" height="511.132"><defs id="defs4"><style id="style2">.cls-2{fill:#fff}.cls-3{fill:#e23122}</style></defs><path class="cls-2" id="polygon8" style="fill:#fff" transform="translate(-54 -38.118)" d="m154.05 277.62-32.14 29.25 64.56-33.23 12.09-27.81-15.78 8.42-44.09 17.99z"/><path class="cls-2" id="polygon10" style="fill:#fff" transform="translate(-54 -38.118)" d="m109.06 272.98 69.25-28.24 41.9-22.36-4.71 87.63-159.38 42.54 77.84-70.84z"/><path class="cls-2" d="M164.11 455.632v75.3h161.32v-75.3H516v-158.27c-283.76-63.75-539.44 0-539.44 0v158.27zm303.48-152.75H25.38c80.62-6.25 251.93-15.35 442.21 0z" id="path12" style="fill:#fff"/><path class="cls-2" id="polyline14" style="fill:#fff" transform="translate(-54 -38.118)" d="m456.28 186.31 30.14 12.76-2.4 59.86-37.48-19.52"/><path d="M220.8 455.362v4.35h19v7.34h-19v3.53h17.06v25.83h-10.94c4.76 6 12.91 7.88 12.91 7.88l-2.85 6.8s-10.13-2.21-16.18-10.53v10.53h-7.34v-10.67c-6 8.5-16.31 10.67-16.31 10.67l-2.86-6.8s8.23-1.9 12.92-7.88H196.4v-25.83h17.06v-3.53h-19.17v-7.34h19.17v-4.35zm-7.34 26v-3.48h-9.72v3.4zm0 7.75v-3.4h-9.72v3.4zm17.06-11.23h-9.72v3.4h9.72zm0 11.15v-3.4h-9.72v3.4z" id="path16"/><path d="M275.11 455.362v5h19.09v7.34h-45.53v-7.34h19.09v-5zm-26.44 50c3.12-2.85 4.35-6.45 4.35-10.74h7.34c0 6.26-1.3 11.22-5.71 15zm15.33-1.61c2.51 0 3.8-1 3.8-4.55v-8h-16.42v-20.07h40.11v20.11h-16.38v8c0 8.43-3.68 11.89-11.15 11.89h-1.63v-7.34zm-5.28-19.87h25.42v-5.43h-25.42zm31.13 10.74c0 4.29 1.16 7.89 4.35 10.74l-6 4.28c-4.41-3.8-5.71-8.76-5.71-15z" id="path18"/><circle class="cls-3" cx="63.823" cy="282.63" r="154.72" transform="rotate(-45)" id="circle20" style="fill:#e23122"/><path class="cls-2" d="M245 7.162a147.56 147.56 0 1 1-147.58 147.56A147.56 147.56 0 0 1 245 7.162m0-14.28a161.89 161.89 0 0 0-114.49 276.31 161.91 161.91 0 0 0 229-228.95A160.88 160.88 0 0 0 245-7.118Z" id="path22" style="fill:#fff"/><path class="cls-3" d="M391.58 137.942c-19.95-14-36.32-18.36-36.32-18.36l13.23-3.7c-18.71-14.71-41-19.21-41-19.21l6-3.7c-35-17.36-68-9.82-68-9.82.06-3.67 3.06-11.26 3.06-11.26-18.22-4.84-32.83 8.88-32.83 8.88-56.23 19.69-69.98 52.11-69.98 52.11-8-3.29-.59-17.64-.59-17.64-16.58 15.46-7 22.63-7 22.63-8.79 7.51-5.52 15.38-5.52 15.38 11.38-11.73 35.89-18.56 35.89-18.56 11.69-47.12 94-20.78 94-20.78-33.76-17.14-64.2-14.47-64.2-14.47 34.74-9.53 72.72 2.06 72.72 2.06l-3.5 4.48c17.39 1.9 34.68 9.9 34.68 9.9-5.28 3.22-9.52 11.17-9.52 11.17 25.41 4.1 42.46 13 42.46 13l-4 6.8 41.27 13.3c.06-1.79.11-3.57.11-5.37a147.55 147.55 0 0 0-.96-16.84z" id="path24" style="fill:#e23122"/><path d="m104.21 430.882-39.9-33.87-1.45 36.87-16.8-1.71 2-49.1-24.58-20.71 12.21-11.81 13.12 11.33 1-25.34 16.81 1.71-1.45 37.41 51.2 43.45zm6.79-82.57-28.32 29.57-11.55-12.34 28.36-29.54z" id="path26"/><path d="M201.75 355.802h-12.08a155.77 155.77 0 0 0 7.88 27.43h13.65l.27 16.94h-6.17a273.29 273.29 0 0 0 14.57 24.81l-15 7.74c-6.43-10.37-12.86-20.74-18.38-32.55h-25.83a238.3 238.3 0 0 1-17.19 27.83l-16-5.52c5-7.35 9.85-14.7 14.18-22.31h-8.95l-.26-16.94h17.85a120.64 120.64 0 0 0 8.53-27.43h-16.67l-.26-16.92h59.6zm-33.34 27.43h11.42a170.25 170.25 0 0 1-5.38-21.13 130.6 130.6 0 0 1-6.04 21.13z" id="path28"/><path d="m243.89 432.202 2.23-66.3a70.52 70.52 0 0 1-11.68 5l-9.44-14.02c14.31-6.44 27.3-14.57 36.76-28.23l9.45 14.05a80.69 80.69 0 0 1-7.62 9.84l-2.89 81.34z" id="path30"/><path d="M313.47 414.612c15.49 0 22.71-14.84 22.71-31.11 0-15.36-3.55-27.44-8.8-40l15.76-6.7c5.91 14.31 10.11 28.62 10.11 46.74 0 24.94-14.05 47.39-39.78 47.39-20.47-.05-33.47-15.53-33.47-32.05h17.07a15.94 15.94 0 0 0 16.4 15.73z" id="path32"/><path d="M421.51 413.302c15.49 0 22.71-14.84 22.71-31.12 0-14.83-3.54-26.51-8.8-38.72l15.76-6.7c5.91 13.92 10.11 27.83 10.11 45.42 0 24.95-14 47.39-39.78 47.39-30.32 0-49.62-28.48-49.62-59.07a71.3 71.3 0 0 1 8.11-33.21l15.49 7.48a55.11 55.11 0 0 0-6.49 25.73c0 21.27 12.42 42.8 32.51 42.8z" id="path34"/><path class="cls-2" d="m396.7 161.462-45.54-14.67 4-6.8s-17.05-8.87-42.46-13c0 0 4.24-7.95 9.52-11.17 0 0-17.29-8-34.67-9.89l3.5-4.48s-38-11.59-72.72-2.06c0 0 30.44-2.67 64.2 14.47 0 0-82.32-26.34-94 20.78 0 0-24.51 6.83-35.89 18.56 0 0-3.27-7.87 5.52-15.38 0 0-9.58-7.17 7-22.63 0 0-7.39 14.35.59 17.64 0 0 13.75-32.4 70.07-52.11 0 0 14.61-13.72 32.83-8.88 0 0-3 7.59-3.06 11.26 0 0 32.95-7.54 68 9.82l-6 3.7s22.25 4.5 41 19.21l-13.23 3.72s18.15 4.81 39.51 20.66l6.41 4-8.76-43.24a39.44 39.44 0 0 1-10.66-6.73l-6.46-24.58s-16.28 5-41.4 2.8l10.05-21s-43.69 5.2-74.5 6.08l9.45-18.35s-12.86 5.5-30.94 12.47c-18.08 6.97-19.5 5.4-30.63 14.93l4.16-11.21s-36.42 17.8-54.57 45.71l-4.85-17.48-23.57 38 1.4 19.64-18.88 22.86-.12 18.37s1.78 5.14 18.81 5.48c0 0 23-22.83 48.35-26.68 0 0 11.69-23.68 46-23.34l20.67-3.7a29.62 29.62 0 0 1 6.69 8.3s.78-7.69-.69-9.72c0 0 24 14.66 24.43 35.72 0 0 4.14-5.81 5.24-9.23 0 0 30.66 52.33 45.64 87.83l34.37-59.67-63.73-51.26 92.92 50z" id="path36" style="fill:#fff"/><path class="cls-2" d="M149.47 185.232s3.56 5.39 4 10.14a38.46 38.46 0 0 0 1.47-14.78s-3.37 2.82-5.47 4.64z" id="path38" style="fill:#fff"/><path class="cls-2" id="polygon40" style="fill:#fff" transform="translate(-54 -38.118)" d="m219.72 212.91-4.93 2.92.24.93 1.79 7.21z"/><path class="cls-2" d="M169.74 174.422v.06l.06.17v.07l.09.25.08.26c.64 2.2 1.3 6.33 1.3 6.33l3.94-9.33-5.61 2c.08.06.11.12.14.19z" id="path42" style="fill:#fff"/><path class="cls-2" d="M179.66 188.012c1-7 4.93-19.14 4.93-19.14l-4.75 1.87-.34 1.27-2.67 9.77z" id="path44" style="fill:#fff"/><path class="cls-2" d="M195 183.312s-6.1 8.61-8.79 10.34a11.4 11.4 0 0 1-3-4.23 26.36 26.36 0 0 0-3.21 11.72v.74s-2.91-2-5.09-9.25c0 0-3.46 10.13-2.24 16.58.02.01 20.47-9.62 22.33-25.9z" id="path46" style="fill:#fff"/><path class="cls-2" d="M126.54 191.682c0 .24 0 .47.07.71a1.11 1.11 0 0 0 0 .17c0 .22.06.44.1.66a.51.51 0 0 1 0 .13 3.4 3.4 0 0 1 .07.34c1.65 7.34 9.42 11.36 9.42 11.36-1.38-3.35-2.33-10.72-2.33-10.72-3.15-1-7.33-2.65-7.33-2.65z" id="path48" style="fill:#fff"/><path class="cls-2" d="M158.51 198.242c-.12.22-.24.44-.35.66l-.09.16-.34.67-.33.65-.06.13c-.11.23-.22.46-.32.69-2 4.27-2.86 8.7.12 12.86 7.55.15 10.7-1.49 10.7-1.49-6.26-4.45-9.33-14.33-9.33-14.33z" id="path50" style="fill:#fff"/><path class="cls-2" d="M155 219.882s41.79-.87 53-57.28c0 0 21.6-22.55 47.09-17.22a105.84 105.84 0 0 1-17.48 53.56s-25.37-4.21-37.46 15.79-26.41 20.92-26.41 20.92l-10.25-1.64z" id="path52" style="fill:#fff"/><path class="cls-2" d="M266.26 150.772s-6.4 32.83-21.53 51.51c0 0-17.31.58-21.45 6.22 0 0 11.35 4.24 12.75 19.75l6.4-9.76s36.67-20.56 36.24-59.79a41.05 41.05 0 0 0-12.11-11.46z" id="path54" style="fill:#fff"/><path class="cls-2" d="M289.69 173.042s-11 35.41-41.93 54c0 0 4.41 7.36 2.54 24.65l49.4-37.9s1.01-26.4-10.01-40.75z" id="path56" style="fill:#fff"/><path d="m420.9 180.422-69.74-33.63 4-6.8s-17.05-8.87-42.46-13c0 0 4.24-7.95 9.52-11.17 0 0-17.29-8-34.67-9.89l3.5-4.48s-38-11.59-72.72-2.06c0 0 30.44-2.67 64.2 14.47 0 0-82.32-26.33-94 20.78 0 0-24.51 6.83-35.89 18.56l44.15-16.1s-3.91-43 106.85-15.64l-3.91 11.31 8.31 4.44-1.28-1 111.54 62.16z" id="path58"/><path class="cls-2" d="M149.47 185.232s3.56 5.39 4 10.14a38.46 38.46 0 0 0 1.47-14.78s-3.37 2.82-5.47 4.64z" id="path60" style="fill:#fff"/><path class="cls-2" id="polygon62" style="fill:#fff" transform="translate(-54 -38.118)" d="m219.72 212.91-4.93 2.92.24.93 1.79 7.21z"/><path class="cls-2" d="M169.74 174.422v.06l.06.17v.07l.09.25.08.26c.64 2.2 1.3 6.33 1.3 6.33l3.94-9.33-5.61 2c.08.06.11.12.14.19z" id="path64" style="fill:#fff"/><path class="cls-2" d="M179.66 188.012c1-7 4.93-19.14 4.93-19.14l-4.75 1.87-.34 1.27-2.67 9.77z" id="path66" style="fill:#fff"/><path class="cls-2" d="M195 183.312s-6.1 8.61-8.79 10.34a11.4 11.4 0 0 1-3-4.23 26.36 26.36 0 0 0-3.21 11.72v.74s-2.91-2-5.09-9.25c0 0-3.46 10.13-2.24 16.58.02.01 20.47-9.62 22.33-25.9z" id="path68" style="fill:#fff"/><path class="cls-2" d="M126.54 191.682c0 .24 0 .47.07.71a1.11 1.11 0 0 0 0 .17c0 .22.06.44.1.66a.51.51 0 0 1 0 .13 3.4 3.4 0 0 1 .07.34c1.65 7.34 9.42 11.36 9.42 11.36-1.38-3.35-2.33-10.72-2.33-10.72-3.15-1-7.33-2.65-7.33-2.65z" id="path70" style="fill:#fff"/><path class="cls-2" d="M158.51 198.242c-.12.22-.24.44-.35.66l-.09.16-.34.67-.33.65-.06.13c-.11.23-.22.46-.32.69-2 4.27-2.86 8.7.12 12.86 7.55.15 10.7-1.49 10.7-1.49-6.26-4.45-9.33-14.33-9.33-14.33z" id="path72" style="fill:#fff"/><path class="cls-2" d="M155 219.882s41.79-.87 53-57.28c0 0 21.6-22.55 47.09-17.22a105.84 105.84 0 0 1-17.48 53.56s-25.37-4.21-37.46 15.79-26.41 20.92-26.41 20.92l-10.25-1.64z" id="path74" style="fill:#fff"/><path class="cls-2" d="M266.26 150.772s-6.4 32.83-21.53 51.51c0 0-17.31.58-21.45 6.22 0 0 11.35 4.24 12.75 19.75l6.4-9.76s36.67-20.56 36.24-59.79a41.05 41.05 0 0 0-12.11-11.46z" id="path76" style="fill:#fff"/><path class="cls-2" d="M289.69 173.042s-11 35.41-41.93 54c0 0 4.41 7.36 2.54 24.65l49.4-37.9s1.01-26.4-10.01-40.75z" id="path78" style="fill:#fff"/><path id="polygon80" transform="translate(-54 -38.118)" d="m154.05 277.62-32.14 29.25 64.56-33.23 12.09-27.81-15.78 8.42-44.09 17.99z"/><path class="cls-2" d="M336.11 247.142s31.13-25.29 34.37-59.67" id="path82" style="fill:#fff"/><path class="cls-2" d="M308.82 209.722a93.86 93.86 0 0 1-10.42 16.28l-33.48 26.8s3.05 7.09-.71 22.29l48.63-27.84s4.08-23.37-4.02-37.53z" id="path84" style="fill:#fff"/><path d="M491.26 320.352c-258.41-29.18-491.26 0-491.26 0v-10s232.85-64.24 491.26 0z" id="path86"/><path class="cls-2" d="M170.05 135.882s10.22-13.86 21.74-22.1l-6.79 17.41z" id="path88" style="fill:#fff"/></svg>