<svg xmlns="http://www.w3.org/2000/svg" width="542.687" height="406pt" version="1.2" viewBox="0 0 407.016 406"><path d="m410.883 341.484-33.266 13.567 11.594 4.062-24.25 22.07 48.707-25.074 9.125-20.98zm0 0" style="fill:#fff;fill-opacity:1;fill-rule:nonzero;stroke:none" transform="translate(-296.047 -173)"/><path d="m315.32 415.648 58.73-53.453-18.788-6.582 52.25-21.312 31.617-16.867-3.555 66.12zm0 0" style="fill:#fff;fill-opacity:1;fill-rule:nonzero;stroke:none" transform="translate(-296.047 -173)"/><path d="M666.52 406.953H332.867c60.863-4.73 190.082-11.601 333.653 0m-228.98 115.23V579h121.714v-56.816h143.808V402.77c-214.101-48.102-407.015 0-407.015 0v119.414zm179.698-231.96 22.742 9.629-1.804 45.164-28.285-14.735" style="fill:#fff;fill-opacity:1;fill-rule:nonzero;stroke:none" transform="translate(-296.047 -173)"/><path d="M487.648 544.852h-7.332v2.562h7.332zm0-5.848h-7.332v2.562h7.332zm-12.87 5.848h-7.337v2.562h7.336zm0-5.848h-7.337v2.562h7.336zm5.538-17.024v3.282h14.36v5.539h-14.36v2.664h12.871v19.488h-8.257c3.59 4.512 9.746 5.95 9.746 5.95l-2.156 5.128s-7.641-1.64-12.204-7.949v7.95h-5.539v-8.052c-4.566 6.41-12.308 8.051-12.308 8.051l-2.157-5.129s6.208-1.437 9.747-5.949h-8.157v-19.488h12.875V530.8h-14.464v-5.54h14.464v-3.28zm52.098 29.641c0 3.23.875 5.95 3.285 8.102l-4.515 3.23c-3.332-2.871-4.305-6.613-4.305-11.332zm-23.484-8.105h19.18v-4.102h-19.18zm3.945 14.976c1.898 0 2.875-.77 2.875-3.437v-6h-12.36v-15.18h30.258v15.18H521.29v6c0 6.36-2.77 8.976-8.414 8.976h-1.227v-5.539zm-11.535 1.23c2.36-2.152 3.281-4.87 3.281-8.1h5.54c0 4.718-.977 8.46-4.31 11.331zm19.95-37.745v3.796h14.41v5.54h-34.36v-5.54h14.41v-3.796zm0 0" style="fill:#000;fill-opacity:1;fill-rule:nonzero;stroke:none" transform="translate(-296.047 -173)"/><path d="M498.559 411.887c-64.372 0-116.739-52.371-116.739-116.742 0-64.368 52.367-116.739 116.739-116.739 64.37 0 116.738 52.371 116.738 116.739 0 64.37-52.367 116.742-116.738 116.742" style="fill:#e13021;fill-opacity:1;fill-rule:nonzero;stroke:none" transform="translate(-296.047 -173)"/><path d="M498.559 173c-32.625 0-63.301 12.703-86.372 35.777-23.07 23.07-35.777 53.743-35.777 86.371 0 32.625 12.707 63.297 35.777 86.368 23.07 23.074 53.747 35.777 86.372 35.777s63.3-12.703 86.37-35.777c23.071-23.07 35.778-53.743 35.778-86.368 0-32.628-12.707-63.3-35.777-86.37C561.86 185.702 531.188 173 498.559 173m0 10.813c61.488 0 111.332 49.847 111.332 111.335 0 61.485-49.844 111.332-111.332 111.332-61.489 0-111.332-49.847-111.332-111.332 0-61.488 49.843-111.336 111.332-111.336" style="fill:#fff;fill-opacity:1;fill-rule:nonzero;stroke:none" transform="translate(-296.047 -173)"/><path d="M609.172 282.488c-15.055-10.574-27.41-13.855-27.41-13.855l9.98-2.805c-14.11-11.098-30.898-14.496-30.898-14.496l4.539-2.793c-26.418-13.098-51.281-7.406-51.281-7.406.043-2.766 2.304-8.496 2.304-8.496-13.742-3.653-24.765 6.699-24.765 6.699-42.496 14.871-52.868 39.316-52.868 39.316-6.023-2.48-.445-13.312-.445-13.312-12.512 11.668-5.281 17.082-5.281 17.082-6.637 5.664-4.168 11.601-4.168 11.601 8.59-8.851 27.078-14.003 27.078-14.003 8.82-35.547 70.93-15.676 70.93-15.676-25.465-12.93-48.438-10.922-48.438-10.922 26.211-7.192 54.871 1.558 54.871 1.558l-2.64 3.375c13.11 1.418 26.16 7.461 26.16 7.461-3.992 2.43-7.188 8.434-7.188 8.434 19.168 3.09 32.035 9.785 32.035 9.785l-3.015 5.125 31.137 10.035c.05-1.343.082-2.691.082-4.047 0-4.285-.25-8.503-.72-12.66" style="fill:#e13021;fill-opacity:1;fill-rule:nonzero;stroke:none" transform="translate(-296.047 -173)"/><path d="M397.5 441.215 376.105 463.5l-8.714-9.309 21.394-22.285zm-5.152 62.3-30.11-25.554-1.09 27.832-12.68-1.29 1.489-37.042-18.523-15.649 9.214-8.914 9.903 8.52.793-19.117 12.68 1.285-1.09 28.23 38.625 32.786zm48.437-35.952h8.617c-1.586-4.856-2.972-10.204-4.062-15.95-1.09 5.45-2.574 10.797-4.555 15.95m25.156-20.704h-9.113c1.387 7.43 3.469 14.266 5.945 20.704h10.301l.2 12.777h-4.657c3.367 6.535 7.031 12.676 10.992 18.719l-11.289 5.843c-4.855-7.824-9.707-15.648-13.867-24.562h-19.512c-3.765 7.23-8.12 14.164-12.976 20.996l-12.082-4.16c3.762-5.547 7.43-11.094 10.695-16.836h-6.734l-.2-12.777h13.473c2.871-6.54 5.149-13.473 6.438-20.704h-12.578l-.2-12.777h44.97zm31.797 57.649 1.684-50.02a53.573 53.573 0 0 1-8.817 3.762l-7.128-10.598c10.796-4.851 20.601-10.996 27.734-21.297l7.129 10.598c-1.781 2.676-3.664 5.152-5.746 7.43l-2.18 61.41zm52.496-13.274c11.688 0 17.133-11.195 17.133-23.472 0-11.59-2.672-20.703-6.637-30.211l11.887-5.055c4.457 10.797 7.63 21.594 7.63 35.266 0 18.816-10.599 35.754-30.013 35.754-15.453 0-25.257-11.688-25.257-24.168h12.875c0 5.941 4.753 11.886 12.382 11.886m81.516-.992c11.688 0 17.137-11.191 17.137-23.472 0-11.192-2.676-20.008-6.637-29.22l11.887-5.05c4.457 10.496 7.625 20.996 7.625 34.27 0 18.82-10.598 35.757-30.012 35.757-22.879 0-37.441-21.496-37.441-44.574 0-8.715 2.082-17.332 6.14-25.058l11.692 5.644c-3.172 5.945-4.953 12.68-4.953 19.414 0 16.047 9.41 32.29 24.562 32.29" style="fill:#000;fill-opacity:1;fill-rule:nonzero;stroke:none" transform="translate(-296.047 -173)"/><path d="m613.035 300.234-34.363-11.074 3.015-5.125s-12.867-6.695-32.035-9.785c0 0 3.196-6.004 7.188-8.434 0 0-13.05-6.043-26.16-7.46l2.64-3.376s-28.66-8.75-54.87-1.558c0 0 22.972-2.012 48.437 10.922 0 0-62.11-19.871-70.93 15.676 0 0-18.488 5.156-27.078 14.003 0 0-2.469-5.933 4.168-11.601 0 0-7.23-5.414 5.281-17.082 0 0-5.582 10.832.445 13.312 0 0 10.372-24.441 52.868-39.316 0 0 11.023-10.352 24.765-6.7 0 0-2.261 5.731-2.304 8.497 0 0 24.863-5.692 51.28 7.406l-4.538 2.793s16.789 3.398 30.898 14.496l-9.98 2.805s13.695 3.633 29.816 15.586l4.836 2.996-6.613-32.621c-2.88-1.25-5.617-2.903-8.04-5.078l-4.878-18.543s-12.285 3.761-31.235 2.109l7.579-15.812s-32.957 3.918-56.204 4.585l7.227-13.875s-9.703 4.149-23.348 9.41c-13.648 5.262-14.707 4.07-23.105 11.262l3.133-8.457s-27.477 13.426-41.172 34.489l-3.66-13.188-17.778 28.637 1.012 14.851-14.254 17.246-.094 13.86s1.344 3.883 14.192 4.137c0 0 17.36-17.223 36.484-20.13 0 0 8.817-17.867 34.711-17.613l15.598-2.793s3.125 2.563 5.047 6.27c0 0 .586-5.805-.52-7.34 0 0 18.13 11.063 18.43 26.957 0 0 3.125-4.39 3.953-6.969 0 0 23.129 39.485 34.434 66.274l25.937-45.024-48.086-38.675 70.106 37.699zm0 0" style="fill:#fff;fill-opacity:1;fill-rule:nonzero;stroke:none" transform="translate(-296.047 -173)"/><path d="M426.496 318.164s2.688 4.066 3.004 7.656c0 0 1.797-5.418 1.105-11.152 0 0-2.527 2.125-4.109 3.496m8.719-4.969 1.355 5.442 2.184-8.348-3.715 2.203zm6.575-3.183c.007.015.01.03.019.047l.046.125c.008.015.012.035.02.05.023.063.043.125.062.192l.012.035c.02.059.04.125.059.191.484 1.66.984 4.774.984 4.774l2.965-7.04-4.23 1.485c.019.043.043.09.062.14m7.481 10.255c.78-5.313 3.726-14.442 3.726-14.442l-3.582 1.406-.266.965-2.007 7.368zm11.554-3.547s-4.601 6.5-6.629 7.797c0 0-1.445-1.141-2.289-3.184 0 0-2.207 3.691-2.351 8.84v.008a25.65 25.65 0 0 0-.008.558s-2.196-1.539-3.84-6.976c0 0-2.613 7.64-1.688 12.504 0 0 15.422-7.262 16.805-19.547m-51.629 6.316c.012.18.028.356.051.531.004.043.008.086.016.133.02.168.047.332.074.496.008.036.016.063.02.094l.054.258.004.004c1.246 5.539 7.106 8.57 7.106 8.57-1.04-2.527-1.758-8.086-1.758-8.086-2.414-.758-5.567-2-5.567-2m24.121 4.949c-.09.168-.18.332-.265.5-.024.04-.043.078-.063.118-.09.168-.18.336-.265.507l-.012.032a57.509 57.509 0 0 0-.293.585c-.082.172-.164.348-.242.52l-.008.016c-1.469 3.222-2.156 6.566.093 9.699 5.692.117 8.07-1.125 8.07-1.125-4.698-3.399-7.015-10.852-7.015-10.852" style="fill:#fff;fill-opacity:1;fill-rule:nonzero;stroke:none" transform="translate(-296.047 -173)"/><path d="M430.64 344.32s31.524-.66 39.997-43.218c0 0 16.293-17.016 35.523-12.993 0 0-.008 20.922-13.18 40.407 0 0-19.144-3.168-28.265 11.918-9.121 15.09-19.934 15.785-19.934 15.785l-7.73-1.239zm0 0" style="fill:#fff;fill-opacity:1;fill-rule:nonzero;stroke:none" transform="translate(-296.047 -173)"/><path d="M514.61 292.172s-4.82 24.762-16.243 38.86c0 0-13.058.433-16.18 4.69 0 0 8.563 3.2 9.614 14.907l4.836-7.367s27.664-15.512 27.34-45.114c0 0-3.48-5.316-9.141-8.644zm17.68 16.801s-8.29 26.715-31.634 40.726c0 0 3.328 5.551 1.918 18.598l37.27-28.594s.758-19.902-7.555-30.73" style="fill:#fff;fill-opacity:1;fill-rule:nonzero;stroke:none" transform="translate(-296.047 -173)"/><path d="m631.293 314.54-52.621-25.38 3.015-5.125s-12.867-6.695-32.035-9.785c0 0 3.196-6.004 7.188-8.434 0 0-13.05-6.043-26.16-7.46l2.64-3.376s-28.66-8.75-54.87-1.558c0 0 22.972-2.008 48.44 10.922 0 0-62.113-19.871-70.933 15.672 0 0-18.488 5.16-27.078 14.007l33.312-12.152s-2.949-32.441 80.618-11.797l-2.946 8.54 6.262 3.343-.96-.773 84.16 46.894zm0 0" style="fill:#000;fill-opacity:1;fill-rule:nonzero;stroke:none" transform="translate(-296.047 -173)"/><path d="M426.496 318.164s2.688 4.066 3.004 7.656c0 0 1.797-5.418 1.105-11.152 0 0-2.527 2.125-4.109 3.496m8.719-4.969 1.355 5.442 2.184-8.348-3.715 2.203zm6.575-3.183c.007.015.01.03.019.047l.046.125c.008.015.012.035.02.05.023.063.043.125.062.192l.012.035c.02.059.04.125.059.191.484 1.66.984 4.774.984 4.774l2.965-7.04-4.23 1.485c.019.043.043.09.062.14m7.481 10.255c.78-5.313 3.726-14.442 3.726-14.442l-3.582 1.406-.266.965-2.007 7.368zm11.554-3.547s-4.601 6.5-6.629 7.797c0 0-1.445-1.141-2.289-3.184 0 0-2.207 3.691-2.351 8.84v.008a25.65 25.65 0 0 0-.008.558s-2.196-1.539-3.84-6.976c0 0-2.613 7.64-1.688 12.504 0 0 15.422-7.262 16.805-19.547m-51.629 6.316c.012.18.028.356.051.531.004.043.008.086.016.133.02.168.047.332.074.496.008.036.016.063.02.094l.054.258.004.004c1.246 5.539 7.106 8.57 7.106 8.57-1.04-2.527-1.758-8.086-1.758-8.086-2.414-.758-5.567-2-5.567-2m24.121 4.949c-.09.168-.18.332-.265.5-.024.04-.043.078-.063.118-.09.168-.18.336-.265.507l-.012.032a57.509 57.509 0 0 0-.293.585c-.082.172-.164.348-.242.52l-.008.016c-1.469 3.222-2.156 6.566.093 9.699 5.692.117 8.07-1.125 8.07-1.125-4.698-3.399-7.015-10.852-7.015-10.852" style="fill:#fff;fill-opacity:1;fill-rule:nonzero;stroke:none" transform="translate(-296.047 -173)"/><path d="M430.64 344.32s31.524-.66 39.997-43.218c0 0 16.293-17.016 35.523-12.993 0 0-.008 20.922-13.18 40.407 0 0-19.144-3.168-28.265 11.918-9.121 15.09-19.934 15.785-19.934 15.785l-7.73-1.239zm0 0" style="fill:#fff;fill-opacity:1;fill-rule:nonzero;stroke:none" transform="translate(-296.047 -173)"/><path d="M514.61 292.172s-4.82 24.762-16.243 38.86c0 0-13.058.433-16.18 4.69 0 0 8.563 3.2 9.614 14.907l4.836-7.367s27.664-15.512 27.34-45.114c0 0-3.48-5.316-9.141-8.644zm17.68 16.801s-8.29 26.715-31.634 40.726c0 0 3.328 5.551 1.918 18.598l37.27-28.594s.758-19.902-7.555-30.73" style="fill:#fff;fill-opacity:1;fill-rule:nonzero;stroke:none" transform="translate(-296.047 -173)"/><path d="m410.883 341.484-33.266 13.567 11.594 4.062-24.25 22.07 48.707-25.074 9.125-20.98zm0 0" style="fill:#000;fill-opacity:1;fill-rule:nonzero;stroke:none" transform="translate(-296.047 -173)"/><path d="M567.313 364.883s23.488-19.086 25.937-45.024m-46.523 16.789s-2.575 5.52-7.86 12.282l-25.265 20.218s2.3 5.352-.532 16.817l36.684-21.004s3.082-17.656-3.027-28.313" style="fill:#fff;fill-opacity:1;fill-rule:nonzero;stroke:none" transform="translate(-296.047 -173)"/><path d="M684.379 420.117c-194.973-22.015-370.656 0-370.656 0v-7.574s175.683-48.473 370.656 0zm0 0" style="fill:#000;fill-opacity:1;fill-rule:nonzero;stroke:none" transform="translate(-296.047 -173)"/><path d="M442.023 280.938s7.711-10.454 16.403-16.672l-5.156 13.129zm0 0" style="fill:#fff;fill-opacity:1;fill-rule:nonzero;stroke:none" transform="translate(-296.047 -173)"/></svg>