<svg xmlns="http://www.w3.org/2000/svg" id="Layer_1" data-name="Layer 1" version="1.1" width="365.086" height="388.013"><defs id="defs4"><style id="style2">.cls-3{fill:#fff}.cls-4{fill:#871324}.cls-11,.cls-12,.cls-13,.cls-14,.cls-15,.cls-17,.cls-8{stroke:#000;stroke-linecap:round;stroke-linejoin:round}.cls-8{stroke-width:8.72px}.cls-11{fill-rule:evenodd}.cls-11,.cls-13{fill:#a0a0a0}.cls-14{fill:#c6c6c6}.cls-11,.cls-13{stroke-width:5.79px}.cls-12{fill:#595959;stroke-width:5.13px}.cls-14{stroke-width:5.2px}.cls-15{fill:#f4ba14;stroke-width:3.76px}.cls-17{stroke-width:7.51px;fill:none}</style></defs><path class="cls-4" d="M352.908 142.47a154.93 154.93 0 0 0-252.37-49.25 157.06 157.06 0 0 0-15.42 18h-8.96l-1.88.05h-.41c-.66 0-1.31.06-2 .1h-.38l-1.67.13h-.4c-.61.05-1.22.12-1.8.19l-.45.05h-.11l-1.42.19h-.5l-1.57.26-.75.14-1.05.21c-.42.08-.84.17-1.25.27l-.78.18-1 .24-.37.1h-.09c-.62.17-1.24.35-1.85.54l-.35.1c-1.13.36-2.24.75-3.29 1.17l-.19.07c-1.08.43-2.14.9-3.14 1.39l-.52.26-.59.3-.88.49-.28.16-.74.44-.52.31-.64.41-.81.54-.72.51-.67.49-.54.42-.57.46-.08.07-.36.3-.24.2c-.38.33-.76.67-1.13 1l-.23.22c-.35.34-.66.64-.94.93l-.33.36-.09.09-.66.73-.59.69-.39.49c-.25.31-.5.62-.74.95l-.16.22a35.59 35.59 0 0 0-6.43 16c-20.7 20.85-28.4 47.77-29.22 50.83v.12a12.06 12.06 0 0 0 .49 7.55c.05.13.11.25.17.39l.22.46.26.49c.07.12.13.23.19.32s.21.33.33.51l.2.3a13 13 0 0 0 1 1.18l.27.27c.17.17.33.32.46.43l.25.22a11.23 11.23 0 0 0 1.27.93l.31.2.24.14.12.06a195.86 195.86 0 0 0-6 55.5 11.87 11.87 0 0 0 9.62 10.94 11.61 11.61 0 0 0 1.65.2c.26 2.4.59 4.77 1 7.11l.1.61c.08.48.17.95.25 1.41.08.46.12.69.19 1l.21 1.1c.1.51.2 1 .31 1.52l.13.63c3.34 15.7 9.32 29.13 17.29 38.83l.21.26c.34.41.68.81 1.05 1.23l.31.36 1 1.06.09.09.27.29c.48.5.91.94 1.34 1.36a11.87 11.87 0 0 0 14.59 1.46c.44-.27.87-.56 1.31-.85l.4-.27.92-.64h.07l.36-.26 1.16-.86.37-.28.12-.1.08-.06a11.87 11.87 0 0 0 18.49-6.26l9.4-32.73a155.52 155.52 0 0 0 67.34 54.9c2.88 1.22 5.81 2.36 8.76 3.4a55.49 55.49 0 0 0 106.33-1.17c1.87-.71 3.73-1.45 5.56-2.23a155.14 155.14 0 0 0 82.46-203.11z" id="path174" style="fill:#871324"/><path class="cls-4" d="M41.528 121.77z" id="path176" style="fill:#871324"/><path class="cls-4" id="rect178" style="fill:#871324" d="M128.748 46.09h22.21v26.63h-22.21z"/><path class="cls-4" id="rect180" style="fill:#871324" d="M128.748 53.31h41.01v19.42h-41.01z"/><path class="cls-4" id="rect182" style="fill:#871324" d="M104.088 67.01h19.4v22.37h-19.4z"/><path class="cls-4" id="polygon184" style="fill:#871324" transform="translate(-286.762 -174)" d="M444.32 238.48h14.42v-36.47l-14.42-3.81z"/><path class="cls-4" id="rect186" style="fill:#871324" d="M244.738 39.34h14.42v36.47h-14.42z"/><path class="cls-4" id="rect188" style="fill:#871324" d="M282.188 54.49h26.17v36.47h-26.17z"/><path class="cls-4" transform="scale(-1)" id="rect190" style="fill:#871324" d="M-324.958-98.58h9.75v16.45h-9.75z"/><path class="cls-4" id="rect192" style="fill:#871324" d="M282.188 49.38h18.36v5.11h-18.36z"/><path class="cls-4" id="polygon194" style="fill:#871324" transform="translate(-286.762 -174)" d="M553.64 198.25v52.19h17.84v-52.19l-8.92-7.62z"/><circle cx="210.118" cy="202.8" r="142.66" id="circle196" style="stroke:#000;stroke-width:9.60000038px;stroke-linecap:round;stroke-linejoin:round"/><path class="cls-3" d="m144.508 276-9.51 9.76 3.93 3.83-5.17 5.3-14-13.63 5.17-5.3 3.93 3.83 9.51-9.76z" id="path198" style="fill:#fff"/><path class="cls-3" d="M124.018 248.78c3.27 6.16 1.94 11.62-4.54 15.06-6.07 3.22-11.88 1.47-15.14-4.69s-1.94-11.62 4.54-15.06c6.06-3.22 11.87-1.46 15.14 4.69zm-10.92 3.13c-1.87 1-3 2.29-2.19 3.83s2.47 1.28 4.28.32 3.08-2.32 2.26-3.87c-.82-1.55-2.53-1.19-4.35-.28z" id="path200" style="fill:#fff"/><path class="cls-3" d="m113.038 217.67-5.13 3.33.17.76 5.5-.95 1.46 8.42-20.73 3.6-2-11.48c-1-5.71 1.31-9 5.82-9.79a6.73 6.73 0 0 1 6.49 2.16l6.81-5.28zm-11 3.54c-.3-1.11-.91-1.48-2.13-1.27-1.22.21-1.52.91-1.28 2.27l.22 1.29 3.52-.61z" id="path202" style="fill:#fff"/><path class="cls-3" d="M113.528 188.55c-1 6.89-5.33 10.5-12.59 9.43-6.79-1-10.42-5.87-9.4-12.76 1.02-6.89 5.33-10.5 12.59-9.43 6.79 1.01 10.43 5.87 9.4 12.76zm-10.64-4c-2.09-.31-3.78.05-4 1.78-.22 1.73 1.23 2.5 3.26 2.8 2.03.3 3.85 0 4.11-1.77.26-1.77-1.34-2.47-3.37-2.77z" id="path204" style="fill:#fff"/><path class="cls-3" d="M123.518 156.94h-6.91a3.55 3.55 0 0 1-1.7-.38l-.15.3 6.8 3.49-3.71 7.22-18.71-9.61 4.26-8.3h6.91a3.51 3.51 0 0 1 1.69.38l.16-.3-7-3.58 3.71-7.22 18.89 9.7z" id="path206" style="fill:#fff"/><path class="cls-3" d="m137.498 136.52-9.67-9.61-3.87 3.9-5.25-5.22 13.75-13.86 5.25 5.22-3.86 3.89 9.68 9.61z" id="path208" style="fill:#fff"/><path class="cls-3" d="M164.898 116.29c-6.18 3.21-11.64 1.84-15-4.67-3.17-6.1-1.36-11.89 4.82-15.1 6.18-3.21 11.64-1.84 15 4.67 3.17 6.1 1.36 11.89-4.82 15.1zm-3-10.94c-1-1.88-2.26-3-3.82-2.23s-1.3 2.46-.35 4.28c.95 1.82 2.29 3.1 3.84 2.29 1.55-.81 1.24-2.52.3-4.34z" id="path210" style="fill:#fff"/><path class="cls-3" d="m257.738 116.91.5-6.1-.69-.34-2.63 4.94-7.55-4 9.87-18.59 10.28 5.47c5.12 2.72 6.31 6.56 4.16 10.6a6.72 6.72 0 0 1-5.68 3.8v8.61zm3.94-10.83c1 .44 1.72.19 2.31-.91.59-1.1.21-1.76-1-2.41l-1.16-.61-1.67 3.15z" id="path212" style="fill:#fff"/><path class="cls-3" d="m280.798 134.51 1-1.53-3.47-3.39-1.51 1.07-6.79-6.66 19.21-10.62 8.48 8.28-10.14 19.51zm7.53-11.14a9.6 9.6 0 0 1 1.2-1.51l-.25-.24a10 10 0 0 1-1.48 1.24l-4.39 2.91 2.12 2.07z" id="path214" style="fill:#fff"/><path class="cls-3" d="M299.518 160.28a23.45 23.45 0 0 1-4.18-5.19c-3.79-6.36-2.85-12.16 3.4-15.88 5.87-3.49 11.9-1.91 15.86 4.74a20.83 20.83 0 0 1 2.41 5.89l-7 2.37a11.85 11.85 0 0 0-1.52-4.07 3.72 3.72 0 1 0-6.39 3.81 11.39 11.39 0 0 0 2.82 3.29z" id="path216" style="fill:#fff"/><path class="cls-3" d="M307.038 182.81a23.83 23.83 0 0 1-2.83-6c-2.17-7.09.12-12.5 7.07-14.63 6.54-2 12 1 14.29 8.37a20.8 20.8 0 0 1 .94 6.3l-7.38.64a11.73 11.73 0 0 0-.51-4.32 3.72 3.72 0 1 0-7.11 2.18 11.19 11.19 0 0 0 2 3.87z" id="path218" style="fill:#fff"/><path class="cls-3" d="M307.678 199.1c-.28-7 3.29-11.32 10.62-11.61 6.86-.27 11.34 3.83 11.61 10.79.27 6.96-3.29 11.32-10.62 11.61-6.86.27-11.34-3.83-11.61-10.79zm11.19 1.9c2.12-.08 3.71-.75 3.64-2.5-.07-1.75-1.67-2.23-3.72-2.14-2.05.09-3.78.75-3.71 2.5.07 1.75 1.74 2.23 3.79 2.14z" id="path220" style="fill:#fff"/><path class="cls-3" d="M304.648 227.19c1.76-6.74 6.43-9.88 13.54-8 6.64 1.73 9.74 6.95 8 13.69-1.74 6.74-6.43 9.88-13.53 8-6.66-1.72-9.76-6.95-8.01-13.69zm10.16 5.08c2.06.53 3.77.35 4.21-1.35.44-1.7-.95-2.61-2.94-3.13s-3.83-.37-4.27 1.33c-.44 1.7 1.02 2.63 3 3.15z" id="path222" style="fill:#fff"/><path class="cls-3" d="m293.458 254.36 6.89.48a3.62 3.62 0 0 1 1.67.49l.22-.33-6.55-3.92 4.17-7 18 10.81-4.79 8-6.89-.48a3.62 3.62 0 0 1-1.67-.49l-.17.29 6.72 4-4.17 7-18.22-10.91z" id="path224" style="fill:#fff"/><path class="cls-3" d="M289.568 274.08a16.87 16.87 0 0 0-6.82 3.77c-.44.41-.55.84-.34 1.06.21.22.62.16 1-.07 4.45-2.85 8.27-4.07 11.38-.8 3.11 3.27 2.32 7.45-1.65 11.24-2.82 2.7-5.61 4.7-8.08 5.53l-4-5.77a17.81 17.81 0 0 0 6.45-3.77c.44-.42.49-.8.31-1-.18-.2-.62-.16-1.05.11-4.89 3.32-8.17 4.07-11.14.95-3.44-3.6-2.44-7.77 2-12 2.24-2.14 5.1-4.26 7.95-5z" id="path226" style="fill:#fff"/><path d="M80.738 122.84c-31.6-.86-39.18 13.35-39.64 26.22-21.51 19.58-29.18 48.48-29.18 48.48a19.65 19.65 0 0 1 11.89-5c-14 33.94-11.76 70.21-11.76 70.21a11.16 11.16 0 0 1 10.35-6.67c-.25 29.05 7.89 54 21.07 66.93 18.32-11.5 33.4-40.69 37.22-76.14 1.78-16.59.3-33.57-2.35-50.38-1-6.2-2.12-12.38-3.31-18.51-.31-1.63-1-5-2-8.63 20.88-18.22 45.65-45.48 7.71-46.51z" id="path228" style="fill:#828282"/><path d="M43.468 327.35a4.37 4.37 0 0 1-3.06-1.25c-13.33-13.06-21.51-36.81-22.31-64.28a7.19 7.19 0 0 0-2.1 2.75 4.36 4.36 0 0 1-8.3-1.59c-.09-1.39-1.8-31.94 8.89-63.6a11.46 11.46 0 0 0-1.67 1.33 4.36 4.36 0 0 1-7.21-4.29c.32-1.21 7.94-29.22 29.14-49.37.68-8.13 3.89-14.71 9.55-19.56 7.47-6.4 19.06-9.43 34.45-9 13.23.36 20.84 3.81 23.26 10.56 2.12 5.91-.33 13.27-7.5 22.49a150.92 150.92 0 0 1-18.69 19.27c.7 2.73 1.15 5.05 1.4 6.32 1.41 7.27 2.47 13.21 3.33 18.67 3.21 20.37 4 36.74 2.37 51.51-3.78 35.69-19.23 66.81-39.24 79.37a4.3 4.3 0 0 1-2.31.67zm-21.07-75.66a4.37 4.37 0 0 1 4.36 4.4c-.22 25.35 6.36 48.32 17.32 61.17 7.31-5.53 14-14.2 19.53-25.31 6.55-13.18 10.95-28.94 12.74-45.58 1.51-14 .77-29.63-2.32-49.23-.84-5.35-1.89-11.19-3.28-18.36-.3-1.54-.92-4.75-1.94-8.24a4.36 4.36 0 0 1 1.32-4.51c27.55-24 26.3-32.56 25.77-34-1-2.81-6.58-4.56-15.28-4.79-13.16-.36-22.77 2-28.54 6.91-4.16 3.57-6.39 8.65-6.62 15.1a4.33 4.33 0 0 1-1.42 3.07c-12.68 11.54-20.39 26.69-24.4 36.48a28.08 28.08 0 0 1 3.78-.59 4.36 4.36 0 0 1 4.42 6c-9.19 22.31-11.16 45.93-11.49 58.71a16.57 16.57 0 0 1 6-1.19z" id="path230"/><path d="M23.378 274.22c2.52 21.1 9.75 38.64 20.09 48.76a55 55 0 0 0 12.77-11.44v0l5.45 8.58 10.89-37.9c-18.18-11.22-37.92-10.07-49.2-8z" id="path232" style="fill-rule:evenodd;stroke:#000;stroke-width:8.72000027px;stroke-linecap:round;stroke-linejoin:round"/><path class="cls-8" d="M81.458 230.77a228.88 228.88 0 0 0-3.12-34.31c-.26-1.61-.52-3.22-.8-4.83a266.09 266.09 0 0 0-61.45-5.73 99.76 99.76 0 0 0-4.17 11.64 19.65 19.65 0 0 1 11.89-5 152.08 152.08 0 0 0-8.57 29.26c18.47-1.8 49-2.56 66.22 8.97z" id="path234" style="stroke:#000;stroke-width:8.72000027px;stroke-linecap:round;stroke-linejoin:round"/><path class="cls-8" d="M88.048 154.87c14.22-15.5 21.36-31.26-7.31-32-24.27-.66-34.37 7.57-38 17.25 12.5.23 30.09 3.08 45.31 14.75z" id="path236" style="stroke:#000;stroke-width:8.72000027px;stroke-linecap:round;stroke-linejoin:round"/><circle class="cls-3" cx="211.548" cy="332.52" r="42.33" id="circle238" style="fill:#fff"/><path d="m248.028 328.55 4.41-7a42 42 0 0 0-7.11-14.55l-6.67-7a42.34 42.34 0 0 0-64.89 13.4l-.67 15.94s41.48-16.11 74.93-.79z" id="path240" style="fill:#a0a0a0"/><path d="M211.548 380.49a48 48 0 1 1 48-48 48 48 0 0 1-48 48zm0-84.67a36.7 36.7 0 1 0 36.7 36.7 36.74 36.74 0 0 0-36.7-36.7z" id="path242"/><path d="m161.968 184.36 6.18 113c0 4.25 19 7.7 42.55 7.7 23.55 0 42.56-3.45 42.56-7.7l6.18-113z" id="path244" style="fill:#c6c6c6;fill-rule:evenodd;stroke:#000;stroke-width:5.78999996px;stroke-linecap:round;stroke-linejoin:round"/><path class="cls-11" d="m161.968 180.5 6.18 113c0 4.26 19 7.7 42.55 7.7 23.55 0 42.56-3.44 42.56-7.7l6.18-113z" id="path246" style="fill:#a0a0a0;fill-rule:evenodd;stroke:#000;stroke-width:5.78999996px;stroke-linecap:round;stroke-linejoin:round"/><rect class="cls-12" x="195.668" y="193.58" width="9.68" height="89.38" rx="3.92" id="rect248" style="fill:#595959;stroke:#000;stroke-width:5.13000011px;stroke-linecap:round;stroke-linejoin:round"/><rect class="cls-12" x="215.128" y="193.58" width="9.68" height="89.38" rx="3.92" id="rect250" style="fill:#595959;stroke:#000;stroke-width:5.13000011px;stroke-linecap:round;stroke-linejoin:round"/><rect class="cls-12" x="176.218" y="193.58" width="9.23" height="85.24" rx="3.73" id="rect252" style="fill:#595959;stroke:#000;stroke-width:5.13000011px;stroke-linecap:round;stroke-linejoin:round"/><rect class="cls-12" x="234.578" y="193.58" width="9.23" height="85.24" rx="3.73" id="rect254" style="fill:#595959;stroke:#000;stroke-width:5.13000011px;stroke-linecap:round;stroke-linejoin:round"/><path class="cls-11" d="M224.788 132.13h-26.37a8.72 8.72 0 0 0-8.69 8.7v7.85a8.72 8.72 0 0 0 8.69 8.7h4.82v-14.16h16.65v14.16h4.86a8.73 8.73 0 0 0 8.7-8.7v-7.85a8.73 8.73 0 0 0-8.66-8.7z" id="path256" style="fill:#a0a0a0;fill-rule:evenodd;stroke:#000;stroke-width:5.78999996px;stroke-linecap:round;stroke-linejoin:round"/><path class="cls-11" d="M144.158 201.21v19.22a9.07 9.07 0 0 0 9 9h13.22a9.07 9.07 0 0 0 9-9v-7h-19.69v-11.07h7.31v-1.15c0-5-1.34-9-6.32-9h-3.44a9.07 9.07 0 0 0-9.08 9z" id="path258" style="fill:#a0a0a0;fill-rule:evenodd;stroke:#000;stroke-width:5.78999996px;stroke-linecap:round;stroke-linejoin:round"/><rect class="cls-13" x="157.938" y="180.97" width="106.85" height="12.35" rx="4.25" id="rect260" style="fill:#a0a0a0;stroke:#000;stroke-width:5.78999996px;stroke-linecap:round;stroke-linejoin:round"/><rect x="163.558" y="218.81" width="5.15" height="5.15" rx="2.58" id="rect262"/><path class="cls-11" d="M277.078 201.21v19.22a9.07 9.07 0 0 1-9 9h-13.26a9.07 9.07 0 0 1-9-9v-7h19.77v-11.07h-7.35v-1.15c0-5 1.34-9 6.32-9h3.48a9.07 9.07 0 0 1 9.04 9z" id="path264" style="fill:#a0a0a0;fill-rule:evenodd;stroke:#000;stroke-width:5.78999996px;stroke-linecap:round;stroke-linejoin:round"/><rect x="-257.678" y="-223.97" width="5.15" height="5.15" rx="2.58" transform="scale(-1)" id="rect266"/><path class="cls-14" id="line268" style="fill:#c6c6c6;stroke:#000;stroke-width:5.19999981px;stroke-linecap:round;stroke-linejoin:round" d="M203.278 143.22h-5.59"/><path class="cls-14" id="line270" style="fill:#c6c6c6;stroke:#000;stroke-width:5.19999981px;stroke-linecap:round;stroke-linejoin:round" d="M219.928 143.22h5.33"/><ellipse class="cls-15" cx="-126.278" cy="221.296" rx="5.34" ry="9.9" transform="rotate(-76.8)" id="ellipse272" style="fill:#f4ba14;stroke:#000;stroke-width:3.75999999px;stroke-linecap:round;stroke-linejoin:round"/><ellipse class="cls-15" cx="188.866" cy="225.186" rx="9.9" ry="5.34" transform="rotate(-13.83)" id="ellipse274" style="fill:#f4ba14;stroke:#000;stroke-width:3.75999999px;stroke-linecap:round;stroke-linejoin:round"/><path class="cls-13" d="M265.808 148.83h-11.85a4.5 4.5 0 0 0-4.49 4.5v.07h-75.46v-.07a4.5 4.5 0 0 0-4.49-4.5h-11.85a4.5 4.5 0 0 0-4.49 4.5v9a4.51 4.51 0 0 0 4.49 4.5h108.14a4.51 4.51 0 0 0 4.49-4.5v-9a4.5 4.5 0 0 0-4.49-4.5z" id="path276" style="fill:#a0a0a0;stroke:#000;stroke-width:5.78999996px;stroke-linecap:round;stroke-linejoin:round"/><path id="line278" style="fill:#f4ba14;stroke:#000;stroke-width:7.51000023px;stroke-linecap:round;stroke-linejoin:round" d="M210.698 307.94v64.32"/><path class="cls-17" d="M196.068 308.38s3.32 40-18.94 48" id="path280" style="fill:none;stroke:#000;stroke-width:7.51000023px;stroke-linecap:round;stroke-linejoin:round"/><path class="cls-17" d="M226.138 308.38s-3.32 40 18.94 48" id="path282" style="fill:none;stroke:#000;stroke-width:7.51000023px;stroke-linecap:round;stroke-linejoin:round"/><path class="cls-17" d="M169.148 331.1s43.19-22.07 84 0" id="path284" style="fill:none;stroke:#000;stroke-width:7.51000023px;stroke-linecap:round;stroke-linejoin:round"/><path d="M178.978 315.62s-4.22 8.62 6.47 5.67l-10.6 4.91-3.49-9.61" id="path286"/><path d="M244.618 315.62s4.22 8.62-6.46 5.67l10.59 4.91 3.5-9.61" id="path288"/><path class="cls-4" d="M209.548 111.31a86.71 86.71 0 0 1 24.41 3.5l4.47-114-29.07-.81-27.55.76 4.43 113.75a86 86 0 0 1 23.31-3.2z" id="path290" style="fill:#871324"/><ellipse class="cls-3" cx="210.588" cy="67.01" rx="15.87" ry="2.97" id="ellipse292" style="fill:#fff"/><ellipse class="cls-3" cx="210.588" cy="57.57" rx="19.95" ry="3.73" id="ellipse294" style="fill:#fff"/><ellipse class="cls-3" cx="210.588" cy="74.51" rx="9.56" ry="1.79" id="ellipse296" style="fill:#fff"/><ellipse class="cls-3" cx="210.588" cy="49.38" rx="9.56" ry="1.79" id="ellipse298" style="fill:#fff"/><ellipse class="cls-3" cx="210.588" cy="33.17" rx="4.07" ry="1.29" id="ellipse300" style="fill:#fff"/><path class="cls-3" id="polygon302" style="fill:#fff" transform="translate(-286.762 -174)" d="M494.96 222.68h4.77l-2.04-39.32h-.68z"/><path class="cls-3" id="polygon304" style="fill:#fff" transform="translate(-286.762 -174)" d="m488.9 296.04 5.56-41.55v41.55z"/><path class="cls-3" id="polygon306" style="fill:#fff" transform="translate(-286.762 -174)" d="m508.18 296.04-5.56-41.55v41.55z"/></svg>