<svg xmlns="http://www.w3.org/2000/svg" id="Layer_1" data-name="Layer 1" version="1.1" width="410.992" height="406.063"><defs id="defs4"><style id="style2">.cls-1,.cls-19{fill:#ed8721}.cls-15,.cls-2{fill:#19ce22}.cls-17{fill:#043d04}.cls-4{fill:#f7e494}.cls-12,.cls-5{fill:#096609}.cls-13,.cls-17,.cls-5{stroke:#043d04}.cls-13,.cls-15,.cls-17,.cls-5{stroke-linecap:round;stroke-linejoin:round}.cls-5{stroke-width:10.7px}.cls-22{stroke-width:5.35px}.cls-11{fill:#fff7d7}.cls-13,.cls-22,.cls-24{fill:none}.cls-13{stroke-width:8.92px}.cls-15{stroke:#19ce22;stroke-width:5.37px}.cls-17{stroke-width:2.28px}.cls-18{fill:#ffb164}.cls-19{stroke:#cc6c15}.cls-19,.cls-22,.cls-24{stroke-miterlimit:10}.cls-19{stroke-width:5.99px}.cls-22{stroke:#f7e494}.cls-24{stroke:#fff;stroke-width:2.99px}</style></defs><path class="cls-4" d="M353.741 89.743c-.67-.33-16.61-8.24-40.19-8.1-21.36.12-53.64 7-86.12 39.1a11.59 11.59 0 0 0 16.29 16.49q4.31-4.24 8.56-7.82l33.18.85a11.57 11.57 0 0 0 21.38 6.48c.61-1 15.08-23.14 42.51-25.09a11.59 11.59 0 0 0 4.39-21.91z" id="path122" style="fill:#f7e494"/><path class="cls-4" d="M74.951 82.293a6.68 6.68 0 0 0-12.62 1.34 83.85 83.85 0 0 0-1.43 19c.85 18.53 8.88 25.94 15.47 28.91a6.81 6.81 0 0 0 2.74.58 6.68 6.68 0 0 0 2.74-12.78l-.38-.2 5.22-13.92 2.44-6.26h.09c-.37-.09-8.48-3.66-14.27-16.67z" id="path124" style="fill:#f7e494"/><path class="cls-2" d="M86.671 105.213s-10.7-4.16-17.83-20.21c0 0-6.86 32.77 10.24 40.46" id="path126" style="fill:#19ce22"/><path class="cls-4" d="M387.921 132.253c-20.75-3-41.84-5.58-62.78-7.57-.44-14.71-7.67-28.53-20.78-40.21a11.31 11.31 0 0 0 5-4.29c5.37-8.26 11.78-25.41 2-37.67a75.72 75.72 0 0 0-9.55-11.9 11.4 11.4 0 0 0-4.78-4.6 96.32 96.32 0 0 0-13.1-9.83c-17.22-10.74-46.85-21.4-90.16-11.13a11.14 11.14 0 0 0-4.69 2.39c-.87.75-20.77 18.12-31.49 49.4a150.41 150.41 0 0 0-41 15.19c-24.56 13.78-38.2 32.73-38.49 53.41-18.5 1.88-37 4.17-55.15 6.82a26.51 26.51 0 0 0-22.15 25.71v79.45a23.07 23.07 0 0 0 26.59 22.87 1231 1231 0 0 1 356 0 22.93 22.93 0 0 0 26.63-22.87v-79.45a26.53 26.53 0 0 0-22.1-25.72z" id="path128" style="fill:#f7e494"/><path class="cls-4" d="M23.941 261.453a23.76 23.76 0 0 1-23.94-24v-79.48a27.43 27.43 0 0 1 22.9-26.6c17.87-2.61 36.17-4.87 54.41-6.73.63-20.7 14.43-39.63 38.93-53.39a151 151 0 0 1 40.71-15.17c10.83-31.21 30.74-48.59 31.59-49.32a12.11 12.11 0 0 1 5.07-2.58c43.61-10.33 73.46.41 90.83 11.25a96.56 96.56 0 0 1 13.14 9.84 12.21 12.21 0 0 1 5 4.8 75.19 75.19 0 0 1 9.55 11.92c10 12.66 3.47 30.27-2 38.68a12.37 12.37 0 0 1-4.22 4c12.5 11.48 19.42 25 20.08 39.17 20.7 2 41.57 4.51 62.05 7.5a27.44 27.44 0 0 1 22.95 26.6v79.48a23.82 23.82 0 0 1-27.66 23.75 1230.24 1230.24 0 0 0-355.74 0 23.59 23.59 0 0 1-3.65.28zm203.7-259.67a145.52 145.52 0 0 0-33.62 4.13 10.29 10.29 0 0 0-4.32 2.21c-.84.71-20.59 18-31.23 49l-.16.47-.49.11a149.56 149.56 0 0 0-40.7 15.09c-24.25 13.61-37.76 32.31-38 52.66v.79l-.79.08c-18.48 1.88-37 4.17-55.11 6.81a25.6 25.6 0 0 0-21.39 24.83v79.46a22 22 0 0 0 22.16 22.25 22.83 22.83 0 0 0 3.41-.26 1232.05 1232.05 0 0 1 356.26 0 22 22 0 0 0 25.61-22v-79.44a25.63 25.63 0 0 0-21.43-24.84c-20.71-3-41.81-5.57-62.74-7.56l-.78-.08v-.79c-.43-14.33-7.52-28-20.49-39.56l-1.05-.94 1.29-.55a10.46 10.46 0 0 0 4.65-3.95c5.21-8 11.52-24.77 2.07-36.64l-.06-.08a74.26 74.26 0 0 0-9.43-11.75l-.13-.18a10.66 10.66 0 0 0-4.41-4.24l-.19-.13a94.36 94.36 0 0 0-13-9.74c-12.24-7.6-30.72-15.16-55.93-15.16z" id="path130" style="fill:#f7e494"/><ellipse class="cls-5" cx="201.661" cy="126.123" rx="112.78" ry="63.3" id="ellipse132" style="fill:#096609;stroke:#043d04;stroke-width:10.69999981px;stroke-linecap:round;stroke-linejoin:round"/><path d="M201.661 162.673c25.25 0 49.54-5.51 66.66-15.12 11.95-6.71 19.38-14.92 19.38-21.43s-7.43-14.73-19.38-21.44c-17.12-9.61-41.41-15.16-66.66-15.16s-49.54 5.51-66.65 15.12c-12 6.71-19.38 14.92-19.38 21.44 0 6.52 7.42 14.72 19.38 21.43 17.11 9.65 41.41 15.16 66.65 15.16z" id="path134" style="fill:#043d04;stroke:#043d04;stroke-width:10.69999981px;stroke-linecap:round;stroke-linejoin:round"/><path d="M302.331 49.003s-29.31-51.25-105.92-33.11c0 0-33.62 28.91-34.41 80.4l47.59 7.14s41.16-2.84 74.65-33.52c10.43-.48 15.82 4.2 15.82 4.2s10.27-15.9 2.27-25.11z" id="path136" style="fill:#19ce22;stroke:#043d04;stroke-width:11.59000015px;stroke-linecap:round;stroke-linejoin:round"/><path id="line138" style="fill:#19ce22;stroke:#043d04;stroke-width:11.97999954px;stroke-linecap:round;stroke-linejoin:round" d="m186.331 38.353 105.62-2.23"/><path d="M218.251 41.463s23.29 27 52.54-.35l6-4.23" id="path140" style="fill:#043d04;stroke:#043d04;stroke-width:5.3499999px;stroke-linecap:round;stroke-linejoin:round"/><path d="M235.841 70.103s15.48 13.88 48.31-1.9" id="path142" style="fill:#19ce22;stroke:#043d04;stroke-width:9.81000042px;stroke-linecap:round;stroke-linejoin:round"/><path class="cls-11" d="m209.841 96.523 27.93-19.47s7 3.86 20.51 3.57c.05.03-16.5 18.01-48.44 15.9z" id="path144" style="fill:#fff7d7"/><ellipse class="cls-12" cx="-58.321" cy="187.928" rx="7.13" ry="4.23" transform="rotate(-83.38)" id="ellipse146" style="fill:#096609"/><ellipse class="cls-12" cx="-49.586" cy="198.669" rx="4.33" ry="2.57" transform="rotate(-83.38)" id="ellipse148" style="fill:#096609"/><ellipse class="cls-12" cx="-41.495" cy="189.925" rx="5.08" ry="3.23" transform="rotate(-83.38)" id="ellipse150" style="fill:#096609"/><path class="cls-12" d="M285.101 47.143s5.35 2.68 9.8 10.48l-14-5.35z" id="path152" style="fill:#096609"/><path class="cls-12" d="M240.741 49.593s15.16-4.9 21.4-11.14l-12-.45-16 11.15" id="path154" style="fill:#096609"/><path class="cls-5" id="line156" style="fill:#096609;stroke:#043d04;stroke-width:10.69999981px;stroke-linecap:round;stroke-linejoin:round" d="m139.701 79.313 6.69 16.94"/><path class="cls-5" id="line158" style="fill:#096609;stroke:#043d04;stroke-width:10.69999981px;stroke-linecap:round;stroke-linejoin:round" d="m118.751 87.783 12.93 18.28"/><path class="cls-5" id="line160" style="fill:#096609;stroke:#043d04;stroke-width:10.69999981px;stroke-linecap:round;stroke-linejoin:round" d="m101.361 102.043 18.73 15.16"/><path class="cls-5" id="line162" style="fill:#096609;stroke:#043d04;stroke-width:10.69999981px;stroke-linecap:round;stroke-linejoin:round" d="m92.901 123.003 26.3 8.47"/><path class="cls-5" id="line164" style="fill:#096609;stroke:#043d04;stroke-width:10.69999981px;stroke-linecap:round;stroke-linejoin:round" d="m99.581 147.963 24.07-5.8"/><path class="cls-5" id="line166" style="fill:#096609;stroke:#043d04;stroke-width:10.69999981px;stroke-linecap:round;stroke-linejoin:round" d="m263.631 79.313-6.69 16.94"/><path class="cls-5" id="line168" style="fill:#096609;stroke:#043d04;stroke-width:10.69999981px;stroke-linecap:round;stroke-linejoin:round" d="m284.581 87.783-12.93 18.28"/><path class="cls-5" id="line170" style="fill:#096609;stroke:#043d04;stroke-width:10.69999981px;stroke-linecap:round;stroke-linejoin:round" d="m301.961 102.043-18.72 15.16"/><path class="cls-5" id="line172" style="fill:#096609;stroke:#043d04;stroke-width:10.69999981px;stroke-linecap:round;stroke-linejoin:round" d="m310.431 123.003-26.3 8.47"/><path class="cls-5" id="line174" style="fill:#096609;stroke:#043d04;stroke-width:10.69999981px;stroke-linecap:round;stroke-linejoin:round" d="m303.741 147.963-24.07-5.8"/><path class="cls-2" d="m157.331 101.223-15.4 24.79 46.06-2.08 34.2-15.41h-20.86z" id="path176" style="fill:#19ce22"/><path class="cls-11" d="m188.011 123.933 34.18-15.41h-20.86l-16.14-2.66-.16.12-12.48 18.28-1 .44z" id="path178" style="fill:#fff7d7"/><path class="cls-13" id="line180" style="fill:none;stroke:#043d04;stroke-width:8.92000008px;stroke-linecap:round;stroke-linejoin:round" d="m151.071 145.003 19.38 17.24"/><path class="cls-13" id="line182" style="fill:none;stroke:#043d04;stroke-width:8.92000008px;stroke-linecap:round;stroke-linejoin:round" d="m260.931 145.003-19.39 17.24"/><path d="M297.041 130.523s17.49-28 51.49-30.46c0 0-55.45-27.93-113 28.9" id="path184" style="fill:#19ce22;stroke:#043d04;stroke-width:11.56999969px;stroke-linecap:round;stroke-linejoin:round"/><ellipse class="cls-12" cx="94.346" cy="282.158" rx="6.18" ry="3.67" transform="rotate(-47.34)" id="ellipse186" style="fill:#096609"/><ellipse class="cls-12" cx="101.911" cy="291.468" rx="3.75" ry="2.23" transform="rotate(-47.34)" id="ellipse188" style="fill:#096609"/><ellipse class="cls-12" cx="108.921" cy="283.89" rx="4.4" ry="2.8" transform="rotate(-47.34)" id="ellipse190" style="fill:#096609"/><path class="cls-11" d="M286.581 130.733s12.4-23.74 39.88-31c0 0-30.38 18.81-25.55 32.79" id="path192" style="fill:#fff7d7"/><path d="M387.121 137.523a1256.05 1256.05 0 0 0-363.29 0 21 21 0 0 0-17.59 20.42v79.48a17.52 17.52 0 0 0 17.7 17.79 18.55 18.55 0 0 0 2.77-.21 1236.05 1236.05 0 0 1 357.56 0 18 18 0 0 0 14.4-4 17.8 17.8 0 0 0 6.09-13.55v-79.48a21.07 21.07 0 0 0-17.64-20.45z" id="path194" style="fill:#043d04"/><path class="cls-15" d="M31.851 202.023c-4 .58-6 .88-10 1.5l-.27-.23v-3.77l.27-.31q12.6-1.89 25.21-3.6l.22.24c-.39 1.56-.58 2.34-1 3.91l-.33.31c-3.85.51-5.77.78-9.62 1.32v31.86l-.27.31-4 .56-.27-.23z" id="path196" style="fill:#19ce22;stroke:#19ce22;stroke-width:5.36999989px;stroke-linecap:round;stroke-linejoin:round"/><path class="cls-15" d="m80.111 192.243.26-.35 4-.95.27.19v23.49c0 6.42 4.15 9 9.55 8.47 5.67-.52 9.56-3.81 9.56-10.24v-22.84l.27-.34 4-.87.27.19v24c.26 8.27-6.28 13.87-14.1 14.44-8.44.62-14.08-3.15-14.08-11.84z" id="path198" style="fill:#19ce22;stroke:#19ce22;stroke-width:5.36999989px;stroke-linecap:round;stroke-linejoin:round"/><path class="cls-15" d="m146.151 186.923.27-.29c3.85-.18 5.78-.27 9.63-.43a14.53 14.53 0 0 1 8 1.59c2.65 1.56 4.49 4.39 4.49 8.71 0 10-10.55 10.9-10.55 10.9l1.19 1.14 6.33 7.39a5.44 5.44 0 0 0 4.33 2.13c.22 0 .38-.06.6-.07l.22.26-.6 3.69-.32.28a8.9 8.9 0 0 1-1.14.15c-3.74.11-6.23-3-7.2-4.25-3.38-4.06-5.07-6.09-8.45-10.13l-.38-.2-1.84.08v14.74l-.27.28-4 .19-.27-.26zm9.85 16.6c4-.16 8-1.81 8-6.83s-4-6.45-8-6.29l-5.31.23v13.12z" id="path200" style="fill:#19ce22;stroke:#19ce22;stroke-width:5.36999989px;stroke-linecap:round;stroke-linejoin:round"/><path class="cls-15" d="M212.051 189.523h-10.07l-.27-.27v-3.73l.27-.27q12.71 0 25.4.19l.22.27-1 3.77-.32.26c-3.88-.07-5.82-.09-9.7-.13v31.81l-.27.27h-4l-.27-.27z" id="path202" style="fill:#19ce22;stroke:#19ce22;stroke-width:5.36999989px;stroke-linecap:round;stroke-linejoin:round"/><path class="cls-15" d="m260.951 187.003.27-.31 4-.35.27.23v32.24c6.23.31 9.35.48 15.58.87l.22.28-1 3.72-.32.25c-7.51-.46-11.26-.66-18.78-1l-.27-.28z" id="path204" style="fill:#19ce22;stroke:#19ce22;stroke-width:5.36999989px;stroke-linecap:round;stroke-linejoin:round"/><path class="cls-15" d="m314.701 190.403.27-.25c7.49.68 11.24 1.05 18.73 1.85l.27.3v3.77l-.27.25c-5.79-.62-8.68-.91-14.47-1.46v10.8c5 .48 7.55.73 12.58 1.26l.21.29c-.38 1.47-.58 2.21-1 3.68l-.32.23c-4.6-.47-6.9-.7-11.5-1.14v12.69c5.81.55 8.72.84 14.52 1.46l.22.29c-.22 1.49-.33 2.24-.54 3.73l-.33.23c-7.25-.77-10.87-1.12-18.13-1.78l-.27-.3z" id="path206" style="fill:#19ce22;stroke:#19ce22;stroke-width:5.36999989px;stroke-linecap:round;stroke-linejoin:round"/><path class="cls-15" d="m367.961 229.623 2.21-2.73h.48a15.45 15.45 0 0 0 7.37 3.41c3.81.55 7.38-1 7-5.18-.73-8.81-15.81-8.43-16.07-19-.15-6.32 5-9.69 10.76-8.85a17.43 17.43 0 0 1 9.24 4.08l.05.39a85.56 85.56 0 0 0-2 2.82h-.43a12.74 12.74 0 0 0-6.61-2.93c-4.3-.62-6.77 2.11-6.34 5 1.17 8 16.07 8 16.06 19.21 0 8.09-6.39 9.61-11.82 8.83a20.85 20.85 0 0 1-9.78-4.61z" id="path208" style="fill:#19ce22;stroke:#19ce22;stroke-width:5.36999989px;stroke-linecap:round;stroke-linejoin:round"/><path d="M385.711 182.893a1244.08 1244.08 0 0 0-360.42 0 7.78 7.78 0 0 1-9.24-7.87v-17.05a11.25 11.25 0 0 1 9.28-10.73 1244.43 1244.43 0 0 1 360.42 0 11.26 11.26 0 0 1 9.24 10.73v17.05a7.78 7.78 0 0 1-9.28 7.87z" id="path210" style="fill:#0ea812"/><path class="cls-17" d="m90.591 152.033-4.27.41-.11-.1v-1.61l.11-.13c4.31-.42 6.46-.62 10.77-1l.09.1-.42 1.65-.13.13-4.11.37v13.54l-.12.13-1.69.16-.12-.11z" id="path212" style="fill:#043d04;stroke:#043d04;stroke-width:2.27999997px;stroke-linecap:round;stroke-linejoin:round"/><path class="cls-17" d="m118.951 148.053.14-.12 1.93-.39.14.08c2.17 6 3.26 9 5.44 15l-.07.12-1.84.12-.13-.1-1.23-3.56-6.41.45c-.49 1.52-.74 2.27-1.24 3.79l-.11.12-1.86.14-.07-.11zm3.77 9.45c-1-2.77-1.44-4.15-2.39-6.91-.09-.39-.14-.58-.23-1-.09.4-.14.6-.23 1-1 2.89-1.43 4.34-2.39 7.24 2.09-.12 3.14-.19 5.24-.31z" id="path214" style="fill:#043d04;stroke:#043d04;stroke-width:2.27999997px;stroke-linecap:round;stroke-linejoin:round"/><path class="cls-17" d="m145.121 146.463.11-.14 1.73-.32.13.09c2.07 3.65 3.11 5.48 5.18 9.15 2-3.75 3-5.62 5-9.35l.11-.14 1.95-.23.11.09v15.42l-.11.12-1.7.06-.07-.11v-12.17l-.58 1.29-3.73 6.81-.13.12-1.66.07-.14-.11-3.72-6.48c-.22-.49-.32-.74-.53-1.23v12.12l-.12.12-1.7.09-.11-.11z" id="path216" style="fill:#043d04;stroke:#043d04;stroke-width:2.27999997px;stroke-linecap:round;stroke-linejoin:round"/><path class="cls-17" d="m179.841 145.113.11-.11 4.06-.08a7.13 7.13 0 0 1 3.63.69 4.07 4.07 0 0 1 1.94 3.83c0 2.69-1.62 5-5.14 5.06-1.26 0-2.37-.3-2.78-1.28l.11.92v6.19l-.11.12h-1.71l-.11-.12zm4.12 7.68c2.05 0 3.61-1 3.61-3.27s-1.72-2.87-3.56-2.84h-2.24v5.71a7.13 7.13 0 0 0 2.19.4z" id="path218" style="fill:#043d04;stroke:#043d04;stroke-width:2.27999997px;stroke-linecap:round;stroke-linejoin:round"/><path class="cls-17" d="m212.211 144.973.14-.11 1.93-.24.14.09 5.45 15.48-.07.11h-1.84l-.14-.12c-.5-1.48-.76-2.22-1.26-3.7h-6.42l-1.25 3.69-.11.11h-1.87l-.07-.12zm3.77 9.74c-.95-2.84-1.43-4.25-2.39-7.09l-.23-1-.23 1-2.4 7z" id="path220" style="fill:#043d04;stroke:#043d04;stroke-width:2.27999997px;stroke-linecap:round;stroke-linejoin:round"/><path class="cls-17" d="m260.241 146.083.12-.11 4.19.2c2.62.12 5 1 5 4.18a3.05 3.05 0 0 1-2.14 3.12 4 4 0 0 1 2.56 3.9c0 3.19-2.44 4.43-5 4.31l-4.6-.22-.12-.12zm4.33 6.42c1.59.08 3.08-.28 3.08-2.14s-1.49-2.35-3.08-2.43l-2.39-.11v4.57zm.14 7.4c1.65.08 3.33-.55 3.33-2.63s-1.65-2.91-3.33-3l-2.53-.12v5.63z" id="path222" style="fill:#043d04;stroke:#043d04;stroke-width:2.27999997px;stroke-linecap:round;stroke-linejoin:round"/><path class="cls-17" d="m293.191 148.133.14-.1 1.93-.11.14.1c2.18 6.33 3.26 9.5 5.44 15.84l-.07.11-1.84-.14-.13-.13-1.27-3.79c-2.56-.2-3.84-.29-6.41-.47-.49 1.44-.74 2.16-1.24 3.6l-.11.11-1.86-.13-.07-.12zm3.77 10c-1-2.9-1.43-4.35-2.39-7.25l-.23-1c-.09.39-.14.58-.23 1-.95 2.76-1.43 4.14-2.39 6.9z" id="path224" style="fill:#043d04;stroke:#043d04;stroke-width:2.27999997px;stroke-linecap:round;stroke-linejoin:round"/><path class="cls-17" d="m322.121 159.053-4.65-8.86.11-.15 1.93-.07.14.1 3.07 6.4.37.93.39-.86c1.16-2.2 1.74-3.29 2.91-5.49l.11-.13 2.09-.06.14.11-4.68 8.27v6.68l-.11.1-1.7-.16-.12-.13z" id="path226" style="fill:#043d04;stroke:#043d04;stroke-width:2.27999997px;stroke-linecap:round;stroke-linejoin:round"/><path class="cls-2" d="M63.621 147.023q-18.87 2.17-37.63 4.9a6.48 6.48 0 0 0-5.22 6.05v17.05a3.29 3.29 0 0 0 .89 2.39 3.1 3.1 0 0 0 2.25.86 4.41 4.41 0 0 0 .7-.06q19.44-2.83 39-5.06z" id="path228" style="fill:#19ce22"/><path class="cls-2" d="M385.021 151.923q-16.87-2.47-33.86-4.47v26.14q17.67 2.06 35.25 4.63a5.29 5.29 0 0 0 .67.05 3 3 0 0 0 3.15-3.25v-17.05a6.48 6.48 0 0 0-5.21-6.05z" id="path230" style="fill:#19ce22"/><path class="cls-18" d="m100.451 277.323-51.36 23.25 54-13.38q-1.55-4.84-2.64-9.87z" id="path232" style="fill:#ffb164"/><path class="cls-18" d="m124.151 324.783-29.91 32.74 36.09-26.17a95.54 95.54 0 0 1-6.18-6.57z" id="path234" style="fill:#ffb164"/><path class="cls-18" d="M312.671 277.683c-.73 3.29-1.62 6.53-2.64 9.71l53.21 13.18z" id="path236" style="fill:#ffb164"/><path class="cls-18" d="M288.631 325.263c-1.94 2.23-4 4.38-6.09 6.45l35.56 25.81z" id="path238" style="fill:#ffb164"/><path class="cls-18" d="m232.331 359.603 15.63 46.46-5.16-49.54a109.41 109.41 0 0 1-10.47 3.08z" id="path240" style="fill:#ffb164"/><path class="cls-18" d="m169.561 356.183-5.16 49.88 15.7-46.66a107 107 0 0 1-10.54-3.22z" id="path242" style="fill:#ffb164"/><path class="cls-19" d="m83.441 250.523 25 9.37a98.13 98.13 0 0 0 195.39-.19l24.5-9.18c-127-19.41-244.89 0-244.89 0z" id="path244" style="fill:#ed8721;stroke:#cc6c15;stroke-width:5.98999977px;stroke-miterlimit:10"/><path class="cls-1" id="polyline246" style="fill:#ed8721" transform="translate(-83.669 -298.477)" d="m203.42 585.46-58.88 52.85L216.18 602"/><path class="cls-1" id="polyline248" style="fill:#ed8721" transform="translate(-83.669 -298.477)" d="m237.76 618.9-36.3 71.42 52.01-59.86"/><path class="cls-1" id="polyline250" style="fill:#ed8721" transform="translate(-83.669 -298.477)" d="m278.49 646.16 12.76 54.95 6.87-60.84"/><path class="cls-1" id="polyline252" style="fill:#ed8721" transform="translate(-83.669 -298.477)" d="m376.25 585.46 58.88 52.85L363.49 602"/><path class="cls-1" id="polyline254" style="fill:#ed8721" transform="translate(-83.669 -298.477)" d="m341.9 618.9 36.31 71.42-52.01-59.86"/><g id="zGdNp5.tif" transform="translate(-83.669 -298.477)"><path d="M265.15 558c1.33 3.75 4.14 4.41 7.84 4.52 10.26.32 20.51 1.11 30.77 1.66 2.3.13 4.51.25 5 3.45 1.48-1.19 1.26-2.32 1.15-3.58-.25-2.54 1.29-3.65 3.71-2.83.09 0 .18.14.27.14 5.36 0 6.6 3.66 7.7 8 2.16 8.66 4.89 17.14 10.59 24.32 1.29 1.62 2.27 3.48 1.26 5.81-.51 1.17 0 2.48.58 3.64l7.41 16v11.35c-.75 3.12-.9 6.41-2.72 9.22a6.23 6.23 0 0 0-1.41 3.76c.23 2.75-1.17 4.26-3.44 5.31H327c-1.31-2.35-3.33-4.2-4.51-6.66-.86-1.8-2.11-3.5-4.28-3.89-3.14-.56-4.5-2.69-5.34-5.47-.57-1.88-1-4-3.6-4.22-.39 0-1.07-.71-1-1 .58-4.74-3.94-6.41-5.93-9.52-4.19-6.55-6.23-13-3.08-20.52a9.78 9.78 0 0 0-.55-8.22c-.37-.76-.73-1.6-1.68-1.74-3.71-.57-5.58-3.67-7.58-6.13-2.39-3-4.66-5.83-8.2-7.4-2.18-1-3.8-.52-5.92 1-4.28 3-9.12 5.11-14.63 4.61a2 2 0 0 1-1.86-1.45c-1.8-5-6-6.75-10.7-8-6-1.64-12-1.44-18-.45-1.66.27-3 .37-2.28-2.18.72-2.55-.88-4.37-3-5.69-.71-3.23.54-3.94 3.79-3.88 12.12.16 24.35.04 36.5.04z" id="path256" style="fill:#fff"/></g><circle cx="215.751" cy="313.733" r="6.64" id="circle259" style="fill:#043d04;stroke:#043d04;stroke-width:3.01999998px;stroke-linecap:round;stroke-linejoin:round"/><path class="cls-22" id="line261" style="fill:none;stroke:#f7e494;stroke-width:5.3499999px;stroke-miterlimit:10" d="m335.711 71.633 19.67-34.83"/><path class="cls-22" id="line263" style="fill:none;stroke:#f7e494;stroke-width:5.3499999px;stroke-miterlimit:10" d="m339.571 88.573 21.16-39.29"/><path class="cls-22" id="line265" style="fill:none;stroke:#f7e494;stroke-width:5.3499999px;stroke-miterlimit:10" d="m351.161 93.023 21.16-39.28"/><path class="cls-22" id="line267" style="fill:none;stroke:#f7e494;stroke-width:5.3499999px;stroke-miterlimit:10" d="m368.251 91.243 19.23-36.61"/><circle cx="373.411" cy="44.673" r="27.22" id="circle269" style="fill:#ed8721;stroke:#fff;stroke-width:5.98999977px;stroke-miterlimit:10"/><circle class="cls-19" cx="374.941" cy="40.133" r="27.22" id="circle271" style="fill:#ed8721;stroke:#cc6c15;stroke-width:5.98999977px;stroke-miterlimit:10"/><path class="cls-24" id="line273" style="fill:none;stroke:#fff;stroke-width:2.99000001px;stroke-miterlimit:10" d="m364.351 71.603 5.52-16.41"/><path class="cls-24" d="M344.251 48.043s33.09-10.76 49.17 16.55" id="path275" style="fill:none;stroke:#fff;stroke-width:2.99000001px;stroke-miterlimit:10"/><path class="cls-24" d="M403.251 31.613s-31.87 11.18-46.92-15.78" id="path277" style="fill:none;stroke:#fff;stroke-width:2.99000001px;stroke-miterlimit:10"/><path class="cls-24" id="line279" style="fill:none;stroke:#fff;stroke-width:2.99000001px;stroke-miterlimit:10" d="m384.261 11.403-4.67 13.9"/></svg>