<svg xmlns="http://www.w3.org/2000/svg" xmlns:xlink="http://www.w3.org/1999/xlink" id="Layer_1" width="380.047" height="380.043" data-name="Layer 1" viewBox="0 0 380.047 380.043"><defs id="defs10509"><linearGradient id="linear-gradient" x1="410.62" x2="410.62" y1="626.69" y2="486.1" gradientTransform="rotate(-7.07 -841.587 1672.147)" gradientUnits="userSpaceOnUse"><stop id="stop10476" offset=".09" stop-color="#795d68" stop-opacity="0"/><stop id="stop10478" offset=".66" stop-color="#795d68"/><stop id="stop10480" offset="1" stop-color="#e46d5c"/></linearGradient><linearGradient id="linear-gradient-2" x1="434.98" x2="434.98" y1="620.17" y2="548.27" gradientTransform="rotate(-7.07 -841.587 1672.147)" gradientUnits="userSpaceOnUse"><stop id="stop10486" offset="0" stop-color="#e46d5c" stop-opacity="0"/><stop id="stop10488" offset=".05" stop-color="#e46d5c" stop-opacity=".11"/><stop id="stop10490" offset=".17" stop-color="#e46d5c" stop-opacity=".34"/><stop id="stop10492" offset=".3" stop-color="#e46d5c" stop-opacity=".54"/><stop id="stop10494" offset=".42" stop-color="#e46d5c" stop-opacity=".71"/><stop id="stop10496" offset=".55" stop-color="#e46d5c" stop-opacity=".84"/><stop id="stop10498" offset=".67" stop-color="#e46d5c" stop-opacity=".93"/><stop id="stop10500" offset=".79" stop-color="#e46d5c" stop-opacity=".98"/><stop id="stop10502" offset=".9" stop-color="#e46d5c"/></linearGradient><linearGradient xlink:href="#linear-gradient-2" id="linear-gradient-3" x1="387.66" x2="387.66" y1="620.17" y2="548.27"/><linearGradient xlink:href="#linear-gradient" id="linear-gradient-4" x1="797.51" x2="1024.01" y1="481.83" y2="481.83" gradientTransform="rotate(-5.03 -356.256 1650.347)"/><linearGradient xlink:href="#linear-gradient-2" id="linear-gradient-5" x1="793.33" x2="793.33" y1="579.34" y2="503.6" gradientTransform="rotate(-5.03 -356.256 1650.347)"/><linearGradient xlink:href="#linear-gradient-2" id="linear-gradient-6" x1="743.49" x2="743.49" y1="579.34" y2="503.6" gradientTransform="rotate(-5.03 -356.256 1650.347)"/><linearGradient xlink:href="#linear-gradient" id="linearGradient11406" x1="410.62" x2="410.62" y1="626.69" y2="486.1" gradientTransform="rotate(-7.07 -841.587 1672.147)" gradientUnits="userSpaceOnUse"/><linearGradient xlink:href="#linear-gradient-2" id="linearGradient11408" x1="434.98" x2="434.98" y1="620.17" y2="548.27" gradientTransform="rotate(-7.07 -841.587 1672.147)" gradientUnits="userSpaceOnUse"/><clipPath id="clippath"><circle id="circle10483" cx="258.88" cy="371.01" r="110.31" style="fill:none"/></clipPath><style id="style10474">.cls-2{fill:none}.cls-4,.cls-6{fill:#e46d5c}.cls-13{fill:#003445}.cls-2{stroke-width:4.46px}.cls-2,.cls-6{stroke-miterlimit:10}.cls-2{stroke:#003445}.cls-16{fill:#d8d6c5}.cls-6{stroke:#007593}.cls-17{fill:#007593}.cls-6{stroke-width:2.39px}</style></defs><g id="g10717" transform="translate(-68.864 -180.994)"><g id="g10515"><path id="path10511" d="M280.32 543.75c-23.29 2.89-46.49 1.12-68.95-5.25-21.66-6.15-41.67-16.3-59.48-30.18s-32.55-30.8-43.81-50.3c-11.67-20.22-19.06-42.28-21.95-65.57s-1.12-46.49 5.25-68.95c6.15-21.66 16.3-41.67 30.18-59.48s30.8-32.55 50.3-43.81c20.22-11.67 42.28-19.06 65.57-21.95s46.49-1.12 68.95 5.25c21.66 6.15 41.67 16.3 59.48 30.18s32.55 30.8 43.81 50.3c11.67 20.22 19.06 42.28 21.95 65.57s1.12 46.49-5.25 68.95c-6.15 21.66-16.3 41.67-30.18 59.48s-30.8 32.55-50.3 43.81c-20.22 11.67-42.28 19.06-65.57 21.95" class="cls-16"/><path id="path10513" d="M282.28 559.57c-25.42 3.15-50.74 1.22-75.26-5.74-23.64-6.71-45.49-17.8-64.92-32.94-19.44-15.14-35.52-33.62-47.81-54.9-12.74-22.07-20.81-46.16-23.96-71.58s-1.22-50.74 5.74-75.26c6.71-23.64 17.8-45.49 32.94-64.92 15.15-19.44 33.62-35.52 54.9-47.81 22.07-12.75 46.16-20.81 71.58-23.96s50.74-1.22 75.26 5.74c23.64 6.71 45.48 17.8 64.92 32.94 19.44 15.15 35.53 33.62 47.81 54.9 12.75 22.07 20.81 46.16 23.96 71.58 3.16 25.42 1.22 50.74-5.74 75.26-6.71 23.64-17.8 45.48-32.94 64.92-15.15 19.44-33.62 35.53-54.9 47.81-22.07 12.75-46.16 20.81-71.58 23.96m-42.87-345.49c-21.16 2.63-41.2 9.33-59.56 19.93-17.71 10.23-33.08 23.62-45.69 39.8s-21.84 34.36-27.42 54.04c-5.79 20.39-7.4 41.46-4.77 62.63 2.63 21.16 9.33 41.2 19.93 59.56 10.23 17.71 23.62 33.09 39.8 45.69 16.18 12.61 34.36 21.84 54.04 27.42 20.39 5.79 41.47 7.4 62.63 4.77s41.2-9.33 59.56-19.93c17.71-10.23 33.08-23.62 45.69-39.8s21.84-34.36 27.42-54.04c5.79-20.39 7.4-41.46 4.77-62.63s-9.33-41.2-19.93-59.56c-10.23-17.71-23.62-33.08-39.8-45.69s-34.36-21.84-54.04-27.42c-20.39-5.79-41.47-7.4-62.63-4.77" class="cls-16"/></g><path id="path10517" d="M280.32 543.75c23.29-2.89 45.35-10.28 65.57-21.95 19.5-11.26 36.42-26 50.3-43.81s24.03-37.82 30.18-59.48c6.38-22.46 8.14-45.65 5.25-68.95-2.89-23.29-10.27-45.35-21.95-65.57-11.26-19.5-26-36.42-43.81-50.3s-37.82-24.03-59.48-30.18c-22.46-6.38-45.65-8.14-68.95-5.25-23.29 2.89-45.35 10.28-65.57 21.95-19.5 11.26-36.42 26-50.3 43.81s-24.03 37.82-30.18 59.48c-6.38 22.46-8.14 45.65-5.25 68.95 2.89 23.29 10.28 45.35 21.95 65.57 11.26 19.5 26 36.42 43.81 50.3s37.82 24.03 59.48 30.18c22.46 6.38 45.65 8.14 68.95 5.25z" style="stroke-miterlimit:10;stroke:#003445;stroke-width:8.93px;fill:#007593"/><g id="g10547"><g id="g10543"><path id="polygon10519" d="m114.02 342.52-3.7-4.9-2.4 5.65z" class="cls-4"/><path id="polygon10521" d="m111.16 369.31 3.7 4.9 2.39-5.65z" class="cls-4"/><path id="polygon10523" d="m99.19 354.48-4.9 3.71 5.66 2.39z" class="cls-4"/><path id="polygon10525" d="m125.99 357.35 4.9-3.71-5.66-2.39z" class="cls-4"/><path id="polygon10527" d="m100.27 361.37-2.39 5.66 6.09-.76z" class="cls-4"/><path id="polygon10529" d="m124.91 350.45 2.39-5.65-6.1.75z" class="cls-4"/><path id="polygon10531" d="m104.65 366.8.75 6.1 4.91-3.71z" class="cls-4"/><path id="polygon10533" d="m120.53 345.03-.76-6.1-4.9 3.7z" class="cls-4"/><path id="polygon10535" d="m118.05 368.23 5.65 2.4-.75-6.1z" class="cls-4"/><path id="polygon10537" d="m107.13 343.59-5.66-2.39.76 6.1z" class="cls-4"/><path id="polygon10539" d="m123.48 363.85 6.09-.75-3.7-4.9z" class="cls-4"/><path id="polygon10541" d="m101.7 347.98-6.1.75 3.71 4.9z" class="cls-4"/></g><circle id="circle10545" cx="112.59" cy="355.91" r="12.33" class="cls-6"/></g><g id="g10577"><g id="g10573"><path id="polygon10549" d="m392.38 307.97 2.4-5.66 3.7 4.9z" class="cls-4"/><path id="polygon10551" d="m401.71 333.25-2.39 5.66-3.71-4.9z" class="cls-4"/><path id="polygon10553" d="m409.69 315.95 5.66 2.39-4.9 3.7z" class="cls-4"/><path id="polygon10555" d="m384.4 325.27-5.65-2.39 4.9-3.7z" class="cls-4"/><path id="polygon10557" d="m410.33 322.89 3.7 4.9-6.1.76z" class="cls-4"/><path id="polygon10559" d="m383.77 318.33-3.71-4.9 6.1-.76z" class="cls-4"/><path id="polygon10561" d="m407.41 329.23.75 6.09-5.65-2.39z" class="cls-4"/><path id="polygon10563" d="m386.69 311.99-.76-6.09 5.66 2.39z" class="cls-4"/><path id="polygon10565" d="m394.76 333.89-4.9 3.7-.75-6.09z" class="cls-4"/><path id="polygon10567" d="m399.33 307.33 4.9-3.7.76 6.09z" class="cls-4"/><path id="polygon10569" d="m388.43 330.97-6.1.76 2.4-5.66z" class="cls-4"/><path id="polygon10571" d="m405.66 310.25 6.1-.76-2.39 5.66z" class="cls-4"/></g><circle id="circle10575" cx="397.05" cy="320.61" r="12.33" class="cls-6"/></g><path id="path10579" d="M243.72 248.89c-67.34 8.36-115.32 69.94-106.97 137.28 8.36 67.34 69.94 115.32 137.28 106.97 67.34-8.36 115.32-69.94 106.97-137.28-8.36-67.34-69.94-115.32-137.28-106.97" class="cls-16"/><circle id="circle10581" cx="258.88" cy="371.01" r="110.31" style="stroke-miterlimit:10;stroke:#003445;stroke-width:8.93px;fill:#d8d6c5"/><path id="path10583" d="M245.77 265.34c-35.8 4.44-62.59 33.5-65.26 67.9-.3 3.91 2.33 7.44 6.13 8.4l.09.02c-1.45-34.83 24.36-65.65 59.82-70.05 35.02-4.35 67.21 18.59 74.86 52.03 3.54-1.95 5.07-6.18 3.7-9.98-11.51-31.83-44.11-52.69-79.33-48.32Z" class="cls-4"/><g id="g10593"><path id="line10585" d="m230.71 361.79-76.27-23.44" class="cls-2"/><path id="line10587" d="m161.99 316.53 67.63 20.98" class="cls-2"/><path id="line10589" d="m174.65 299.54 54.91 16.77" class="cls-2"/><path id="line10591" d="m192.54 283.19 38.23 11.77" class="cls-2"/></g><g id="g10603"><path id="line10595" d="m352.17 313.81-68.23 41.37" class="cls-2"/><path id="line10597" d="m339.52 294.5-60.46 36.87" class="cls-2"/><path id="line10599" d="m323.08 281.12-49.14 29.68" class="cls-2"/><path id="line10601" d="m301.74 269.64-34.19 20.75" class="cls-2"/></g><path id="path10605" d="m270.44 378.57-20.91 2.6-99.66-27.14c-1.54 9.89-1.74 20.15-.45 30.57 7.5 60.46 62.6 103.38 123.05 95.88 60.46-7.5 103.38-62.6 95.88-123.05-1.29-10.42-4-20.32-7.91-29.53l-90.01 50.68z" style="fill:url(#linearGradient11406)"/><g id="g10611"><path id="path10607" d="M182.31 362.86c-12.36 9.27-22.89 20.42-30.9 33.05l.12.51 5.07 3.19c8.48-13.46 19.99-25.17 33.61-34.59l-7.91-2.15z" class="cls-16"/><path id="path10609" d="m331.21 344.35-7.14 4.02c15.47 5.79 29.47 14.28 40.96 25.21l4.15-4.37v-.48c-10.84-10.24-23.74-18.44-37.97-24.38" class="cls-16"/></g><path id="polygon10613" d="m258.68 407.61 36.73 4.48 18.09 56.23-34.49 11.99-49.12-2.71 3.82-57.85z" class="cls-13"/><path id="path10615" d="M324.06 348.37c-.82 33.19-25.88 61.77-59.8 65.98s-65.21-17.37-74.12-49.36l-7.06-1.92c8.31 36.96 43.59 62.37 81.96 57.61 38.36-4.76 66.36-38.02 65.39-75.9z" class="cls-13"/><g id="g10621" style="clip-path:url(#clippath)"><path id="polyline10617" d="m235.18 444.28-9.88-7.53-2-16.1-13.23-5.73 4.42 35.59-6.42 8.55-6.63-53.44-6.28-5.18-8.12 4.21 4.5 36.19-6.25-3.96-3.87-31.16-12.61-6.19-11.38 9.17 8.94 72.09 63.42-7.87" class="cls-13"/><path id="polyline10619" d="m299.77 436.26 7.74-9.71-2-16.1 11.43-8.79 4.42 35.59 8.31 6.72-6.63-53.44 4.83-6.56 8.89 2.1 4.49 36.19 5.09-5.37-3.86-31.16 10.71-9.08 13.28 6.1 8.95 72.1-63.42 7.87" class="cls-13"/></g><circle id="circle10623" cx="258.88" cy="371.01" r="110.31" style="fill:none;stroke-miterlimit:10;stroke:#003445;stroke-width:8.93px"/><path id="path10625" d="m286.21 348.76 6.39-28.18-7.89-.32 4.61-26.06-6.2 1.84-.71-17.66-19.05-5.58-1.49-21.29a6.03 6.03 0 0 0-2.64-4.58l-.91-.62a6.08 6.08 0 0 1-2.61-4.26l-1.83-14.78a8.507 8.507 0 0 0-9.49-7.39l-7.02.87a8.507 8.507 0 0 0-7.39 9.49l1.83 14.78c.21 1.73-.33 3.46-1.49 4.76l-.73.82a6.07 6.07 0 0 0-1.44 5.08l3.76 21.01-17.1 10.06 3.63 17.29-6.46-.27 10.84 24.14-7.57 2.24 13.08 25.76" class="cls-16"/><g id="g10663"><path id="polyline10627" d="m238.78 279.28-1.35-10.85 1.22-2.09-1.27-10.25 3.08-3.59-.83-6.62 4.24-7.29 3.44 4.08 1.61 10.71 4.31 3.4.26 7.6 2.93 2.85-.11 8.89" class="cls-16"/><path id="polygon10629" d="m293.47 472.82 17.02-6.93-21.04-56.27-22.5-127.11-21.34-8.48-20.54 20.44 18.71 121.03-11.04 60.69 32.79 4.92z" class="cls-13"/><path id="polygon10631" d="m268 402 16.16 62.89 30.67 3.76-.46-3.66-16.8-52.52z" style="fill:url(#linearGradient11408)"/><path id="polygon10633" d="m259.01 403.12-.29 64.93-28.82 11.14-.45-3.66 3.45-55.04z" style="fill:url(#linear-gradient-3)"/><g id="g10659"><path id="polygon10635" d="m237.24 419.23-7.41-18.27 6.15-5.61-6.72-17.13 5.08-4.62-6.71-18.22 3.46-3.77-5.28-16.65 5.15-5.14-6.97-15.57 5.97-5.39-9.12-16.98 17.4-9.55 12.54 126.26z" class="cls-17"/><path id="polygon10637" d="m291.65 412.48 2.72-19.53-7.33-3.94 2.33-18.25-6.06-3.24 2.05-19.3-4.27-2.82 1.04-17.43-6.24-3.73 2.95-16.8-7.11-3.77 4.69-18.69-19.2-5 18.7 125.49z" class="cls-17"/><path id="polygon10639" d="m280.3 408.75.29-14.09-3.26-4.44-.41-17.92-2.68-3.65-.6-18.98-1.94-3.1-.87-17.2-2.79-4.15-.05-16.43-3.16-4.26.52-18.18-8.13-6.37 16.21 120.67z" class="cls-4"/><path id="path10641" d="m227.38 401.26 6.55 16.53c.44 1.1 1.56 1.73 2.68 1.59.21-.03.42-.08.63-.16 1.31-.52 1.95-2 1.43-3.31l-5.82-14.69 22.63-16.31 10.09-1.25 25.93 10.28-2.05 15.66c-.18 1.4.8 2.68 2.2 2.86s2.68-.8 2.86-2.2l2.31-17.63c.15-1.16-.5-2.27-1.59-2.7l-5.14-2.04 2.17-16.54c.15-1.16-.5-2.27-1.59-2.7l-3.81-1.51 2.17-16.59c.15-1.16-.5-2.27-1.59-2.7l-4.55-1.81 2.21-16.85c.15-1.16-.5-2.27-1.59-2.7l-3.81-1.51 2.17-16.59c.15-1.16-.5-2.27-1.59-2.7l-4.4-1.74 2.13-16.28c.15-1.16-.5-2.27-1.59-2.7l-17.32-6.87-.11-12.23c0-.88-.53-1.67-1.33-2.02l-2-.89.36-7.96c.04-.97-.55-1.86-1.46-2.2l-3.09-1.13-.99-7.95c-.07-.57-.36-1.09-.8-1.45l-3.6-2.95-1.49-12.04a2.237 2.237 0 0 0-2.49-1.94c-.22.03-.43.1-.62.18a2 2 0 0 0-.65-.02 2.237 2.237 0 0 0-1.94 2.49l1.49 12.04-2.77 3.74c-.34.46-.49 1.03-.42 1.6l.99 7.95-2.72 1.85a2.23 2.23 0 0 0-.88 2.49l2.29 7.63-1.73 1.35c-.69.54-1 1.43-.79 2.28l2.73 11.24-16.23 11.7c-.95.68-1.31 1.92-.88 3.01l6.05 15.26-3.84 2.77c-.95.68-1.31 1.92-.88 3.01l6.16 15.56-3.32 2.39c-.95.68-1.31 1.92-.88 3.01l6.26 15.8-3.97 2.86c-.95.68-1.31 1.92-.88 3.01l6.16 15.56-3.32 2.39c-.95.68-1.31 1.92-.88 3.01l6.14 15.51-4.49 3.24c-.95.68-1.31 1.92-.88 3.01zm27.24-124.93-6.58-2.61c-.81-.32-1.73-.21-2.43.3l-4.63 3.34-1.96-8.08 1.8-1.4a2.23 2.23 0 0 0 .76-2.4l-2.26-7.52 2.5-1.7c.69-.47 1.06-1.29.96-2.12l-1.04-8.42 1.93-2.6 2.5 2.05 1.04 8.42c.1.83.66 1.53 1.45 1.82l2.84 1.03-.36 7.84c-.04.92.48 1.77 1.33 2.14l2.08.92.08 8.97zm16.37 25.69-19.09-7.57c-.4-.16-.83-.21-1.25-.16l-2.53.31c-.43.05-.83.21-1.18.46l-16.66 12.01-4.84-12.22 22.02-15.87 25.24 10.01zm3.82 21.04-19.68-7.81c-.4-.16-.83-.21-1.25-.16l-3.8.47c-.43.05-.83.21-1.18.46l-17.18 12.38-4.96-12.51 22.63-16.31 1.24-.15 25.93 10.28-1.75 13.34zm3.19 21.06-18.94-7.51c-.4-.16-.83-.21-1.25-.16l-6.33.79c-.43.05-.83.21-1.18.46l-16.53 11.91-5.05-12.75 22.63-16.31 2.5-.31 25.93 10.28zm3.97 21.1-19.68-7.81c-.4-.16-.83-.21-1.25-.16l-7.59.94c-.43.05-.83.21-1.18.46l-17.18 12.38-4.96-12.51 22.63-16.31 5.03-.62 25.93 10.28-1.75 13.34zm-28.94 15.18-16.01 11.54-4.94-12.46 22.63-16.31 6.3-.78 25.93 10.28-1.74 13.29-18.35-7.28c-.4-.16-.83-.21-1.25-.16l-11.39 1.41c-.43.05-.83.21-1.18.46z" class="cls-13"/><path id="path10643" d="M313.74 471.35c-.21.03-.41.03-.62 0l-30.66-3.76c-1.04-.13-1.9-.88-2.16-1.9l-16.16-62.89c-.23-.91.05-1.88.75-2.52s1.69-.84 2.57-.52l29.57 10.47c.75.27 1.34.87 1.58 1.63l16.8 52.53c.05.15.08.31.1.46l.45 3.65c.1.78-.17 1.56-.73 2.12-.41.41-.93.66-1.49.73m-28.94-8.61 25.69 3.15-.02-.17-16.34-51.1-23.86-8.45z" class="cls-13"/><path id="path10645" d="M230.22 481.72a2.56 2.56 0 0 1-1.62-.34c-.67-.4-1.12-1.09-1.22-1.87l-.45-3.65c-.02-.16-.02-.32-.01-.47l3.45-55.04c.05-.8.47-1.52 1.13-1.96l26.11-17.38c.78-.52 1.79-.57 2.62-.12s1.35 1.31 1.34 2.26l-.29 64.93c0 1.05-.65 1.99-1.63 2.37l-28.81 11.14c-.2.08-.4.13-.61.15zm1.79-6.26.02.17 24.14-9.34.26-58.4-21.08 14.02-3.35 53.54z" class="cls-13"/><g id="g10651"><ellipse id="ellipse10647" cx="244.54" cy="432.34" class="cls-16" rx="6.62" ry="4.96" transform="rotate(-82.23 244.506 432.329)"/><path id="path10649" d="M244.88 441.09c-.51.06-1.03.06-1.54 0-1.99-.27-3.75-1.55-4.84-3.51-.99-1.78-1.37-3.98-1.06-6.2.3-2.22 1.26-4.24 2.69-5.69 1.57-1.59 3.62-2.35 5.61-2.08s3.76 1.55 4.84 3.51c.99 1.78 1.37 3.98 1.06 6.2-.3 2.22-1.26 4.24-2.69 5.69-1.17 1.18-2.6 1.91-4.07 2.09zm-.16-13.12c-.64.08-1.17.52-1.46.81-.75.76-1.28 1.93-1.46 3.19s.03 2.52.55 3.46c.24.43.76 1.17 1.59 1.28.82.11 1.52-.46 1.87-.81.75-.76 1.28-1.93 1.46-3.19.17-1.26-.03-2.53-.55-3.46-.24-.43-.76-1.17-1.59-1.28-.14-.02-.28-.02-.41 0" class="cls-13"/></g><g id="g10657"><ellipse id="ellipse10653" cx="287.78" cy="426.97" class="cls-16" rx="4.96" ry="6.62" transform="rotate(-21.92 287.85 427.042)"/><path id="path10655" d="M289.59 435.54c-1.47.18-3.03-.17-4.46-1.03-1.74-1.05-3.16-2.78-4-4.86s-1.01-4.31-.48-6.28c.58-2.16 1.98-3.84 3.84-4.59s4.03-.51 5.95.65c1.74 1.05 3.16 2.78 4 4.86s1.01 4.31.48 6.28c-.58 2.16-1.98 3.84-3.84 4.59-.48.19-.98.32-1.49.38m-3.05-12.76c-.13.02-.27.05-.4.1-.77.31-1.1 1.15-1.23 1.63-.28 1.04-.16 2.31.31 3.49.48 1.18 1.28 2.18 2.19 2.74.42.26 1.24.64 2.01.33s1.1-1.15 1.22-1.63c.28-1.04.16-2.31-.31-3.49-.48-1.18-1.28-2.18-2.19-2.74-.35-.21-.97-.51-1.61-.43z" class="cls-13"/></g></g><path id="path10661" d="m244.71 276.39.31-15.86c.02-.93 1.34-1.09 1.58-.2l4.48 16.43" class="cls-13"/></g><path id="path10665" d="M315.24 458.95c-13.7-13.07-30.65-19.1-47.72-16.98-16.9 2.1-31.77 11.94-41.85 27.72l-4.42-2.83c10.94-17.12 27.15-27.8 45.63-30.1 18.66-2.32 37.12 4.22 51.98 18.39z" class="cls-16"/><g id="g10701"><g id="g10671"><circle id="circle10667" cx="274.06" cy="489.59" r="33.47" style="fill:#9b957d"/><path id="path10669" d="M278.85 528.19c-21.28 2.64-40.75-12.53-43.39-33.81s12.53-40.75 33.81-43.39 40.75 12.53 43.39 33.81-12.53 40.75-33.81 43.39m-8.25-66.44c-15.35 1.91-26.29 15.94-24.39 31.3 1.91 15.35 15.94 26.29 31.3 24.39s26.29-15.94 24.39-31.3c-1.91-15.35-15.94-26.29-31.3-24.39" class="cls-13"/></g><g id="g10677"><circle id="circle10673" cx="204.45" cy="498.23" r="33.47" class="cls-16"/><path id="path10675" d="M209.24 536.83c-21.28 2.64-40.75-12.53-43.39-33.81s12.53-40.75 33.81-43.39 40.75 12.53 43.39 33.81-12.53 40.75-33.81 43.39M201 470.39c-15.35 1.91-26.29 15.94-24.39 31.3 1.91 15.35 15.94 26.29 31.3 24.39 15.35-1.91 26.29-15.94 24.39-31.3-1.91-15.35-15.94-26.29-31.3-24.39" class="cls-13"/></g><g id="g10683"><circle id="circle10679" cx="343.66" cy="480.96" r="33.47" class="cls-16"/><path id="path10681" d="M348.45 519.55c-21.28 2.64-40.75-12.53-43.39-33.81s12.53-40.75 33.81-43.39 40.75 12.53 43.39 33.81-12.53 40.75-33.81 43.39m-8.25-66.44c-15.35 1.91-26.29 15.94-24.39 31.3s15.94 26.29 31.3 24.39 26.29-15.94 24.39-31.3-15.94-26.29-31.3-24.39" class="cls-13"/></g><g id="g10691"><path id="rect10685" d="M191.74 481.25h12.75v32.95h-12.75z" class="cls-4" transform="rotate(-7.07 198.269 498.022)"/><path id="rect10687" d="M340.87 462.74h12.75v32.95h-12.75z" class="cls-4" transform="rotate(-7.07 347.524 479.538)"/><path id="polygon10689" d="m277.14 477.68-.11-.09-.09.11-.11-.08-.08.11-.11-.09-.09.11-.11-.08-.08.1-.11-.08-.09.11-.1-.09-.09.11-.11-.08-.08.11-.11-.09-.09.11-.11-.08-.08.11-.11-.09-.09.11-.11-.09-.08.11-.11-.08-.09.11-.11-.09-.08.11-.11-.08-.09.11-.11-.09-.08.11-.11-.08-.09.1-.1-.08-.09.11-.11-.09-.08.11-.11-.08-.09.11-.11-.09-.08.11-.11-.08-.09.11-.11-.09-.08.11-.11-.09-.09.11-.11-.08-.08.11-.11-.09-.09.11-.11-.08-.08.11-.11-.09-.09.11-.11-.08-.08.1-.11-.08-.09.11-.1-.09-.09.11-.11-.08-.08.11-.11-.09-.09.11-.11-.08-.08.11-.11-.09-.09.11-.11-.09-.08.11-.11-.08-.09.11-.11-.09-.08.11-.11-.08-.09.11-.11-.09-.08.11-.11-.09-.09.11-.1-.08-.09.11-.11-.09-.08.11-.11-.08-.09.11-.11-.09-.08.11-.11-.08-.09.11-.11-.09-.08.11-.11-.09-.09.11-.11-.08-.08.11-.11-.09-.09.11-.11-.08-.08.11-.11-.09-9.26 11.88 11.88 9.25.09-.11.11.09.08-.11.11.08.09-.11.11.09.08-.11.11.08.09-.1.1.08.09-.11.11.09.08-.11.11.08.09-.11.11.09.08-.11.11.08.09-.11.11.09.08-.11.11.09.09-.11.11.08.08-.11.11.09.09-.11.11.08.08-.11.11.09.09-.11.11.08.08-.1.11.08.08-.11.11.09.09-.11.11.08.08-.11.11.09.09-.11.11.08.08-.11.11.09.09-.11.11.09.08-.11.11.08.09-.11.11.09.08-.11.11.08.09-.11.11.09.08-.11.11.09.09-.11.1.08.09-.11.11.09.08-.11.11.08.09-.11.11.09.08-.11.11.08.09-.11.11.09.08-.11.11.09.09-.11.11.08.08-.11.11.09.09-.11.11.08.08-.11.11.09.09-.11.11.09.08-.11.11.08.08-.11.11.09.09-.11.11.08.08-.11.11.09.09-.11.11.08.08-.1.11.08.09-.11.11.09.08-.11.11.08.09-.11.11.09.08-.11.11.08.09-.11.11.09 9.25-11.88-11.88-9.25z" class="cls-4"/></g><g id="g10699"><path id="rect10693" d="M196.7 480.64h12.75v32.95H196.7z" class="cls-13" transform="rotate(-7.07 203.261 497.437)"/><path id="rect10695" d="M335.91 463.36h12.75v32.95h-12.75z" class="cls-13" transform="rotate(-7.07 342.531 480.123)"/><path id="rect10697" d="M266.04 481.22h15.06v15.06h-15.06z" class="cls-13" transform="rotate(-52.07 273.562 488.745)"/></g></g><g id="g10715"><path id="path10703" d="M130.25 283.28c.38.21.46.48.27.83l-4.96 9 19.56 10.79c.38.21.44.51.25.86l-3.05 5.54c-.19.35-.46.42-.84.21l-19.56-10.79-4.98 9.04c-.19.35-.48.46-.86.25l-2.7-1.49c-.35-.19-.44-.51-.25-.86l13.59-24.65c.19-.35.49-.41.84-.21l2.7 1.49z" class="cls-16"/><path id="path10705" d="M185.73 257.86c.4.23.69.4.95.7l.36.42c.28.33.25.61-.05.87l-4.61 3.86c-.21.18-.43.16-.73 0l-4.78-2.75-12.85 10.76 1.9 5.16c.09.29.06.57-.15.74l-3.73 3.12c-.3.25-.58.23-.86-.1l-.36-.42c-.25-.3-.37-.62-.52-1.06l-8.87-24.13c-.18-.46.1-1.11.37-1.34l10.33-8.66c.46-.38.91-.4 1.39-.13zm-27.77-3.91c-.18.15-.25.32-.18.46l4.82 13.39 10.67-8.94-12.36-7.12c-.11-.07-.25-.05-.4.08z" class="cls-16"/><path id="path10707" d="M215.03 246.41c.16.41 0 .68-.36.82l-5.87 2.26c-.37.14-.66.04-.82-.36l-9.35-24.32c-.14-.37 0-.68.36-.82l5.87-2.26c.37-.14.68 0 .82.36z" class="cls-16"/><path id="path10709" d="M307.2 223.23c.18.28.24.58.17.92l-1.3 6.07c-.08.39-.26.63-.53.78l-5.87 3.64c-.52.33-1.06.42-1.64.29l-17.24-3.69-1.93 9.01c-.09.42-.33.58-.75.49l-6.07-1.3c-.39-.08-.54-.32-.45-.74l5.34-24.97c.16-.73.59-1.05 1.32-.89l24.94 5.34c.46.1.82.34 1.06.71l2.95 4.35zm-9.03-1.61c-.15-.23-.37-.36-.64-.42l-13.3-2.85c-.42-.09-.71.09-.8.52l-1.8 8.43 13.18 2.82c.39.08.77 0 1.1-.21l2.61-1.62c.28-.18.46-.43.53-.78l.65-3.05c.06-.27 0-.57-.18-.85z" class="cls-16"/><path id="path10711" d="M359.12 251.66c-.23.32-.5.37-.86.13l-14.62-10.13c-.19-.13-.4-.18-.68-.13l-2.48.4c-.27.05-.47.2-.63.43l-2.54 3.67 16.64 11.52c.36.25.41.52.18.85l-1.6 2.31c-.23.32-.5.37-.86.13l-16.64-11.52-2.56 3.7c-.16.23-.21.43-.16.71l.73 3.39c.05.28.17.45.4.61l14.04 9.72c.36.25.41.52.16.88L346 270.7c-.25.36-.52.41-.88.16l-17.51-12.13c-.36-.25-.59-.6-.73-1.03l-1.48-7.03c-.06-.33 0-.62.2-.92l9.16-13.22c.2-.29.46-.45.79-.51l5.19-.83c.44-.08.82 0 1.18.24l18.72 12.96c.36.25.41.52.16.88l-1.67 2.41z" class="cls-16"/><path id="path10713" d="M366.3 294.12c-.35.26-.65.19-.89-.12l-3.81-5c-.24-.31-.23-.62.12-.89l20.72-15.78c.31-.24.65-.19.89.12l3.81 5c.24.31.19.65-.12.89z" class="cls-16"/></g></g></svg>