<svg xmlns="http://www.w3.org/2000/svg" id="Layer_1" data-name="Layer 1" version="1.1" width="402.64" height="344.1"><defs id="defs4"><style id="style2">.cls-3,.cls-5{fill:#fff}.cls-4{fill:#aea57a}.cls-5{stroke:#000;stroke-miterlimit:10;stroke-width:10.52px}</style></defs><circle class="cls-4" cx="201.68" cy="20.56" r="20.56" id="circle178" style="fill:#aea57a"/><circle cx="201.68" cy="18.55" r="9.13" id="circle180"/><path class="cls-4" id="polygon182" style="fill:#aea57a" transform="translate(-301.41 -190.9)" d="m370.72 216.24-22.48 23.34-4.97 4.63v186.3h313.8v-186.3l-4.97-4.63-22.49-23.34z"/><path class="cls-4" id="polygon184" style="fill:#aea57a" transform="translate(-301.41 -190.9)" d="M313.12 453.03v70.18h379.22v-70.18l11.71-11.14v-26.03H301.41v26.03z"/><path id="polygon186" transform="translate(-301.41 -190.9)" d="M397.13 223.26h229.5l21.26 22.07 2.15 1.07V423.49H350.29V246.4l2.15-1.07 21.27-22.07z"/><path class="cls-4" id="polygon188" style="fill:#aea57a" transform="translate(-301.41 -190.9)" d="M499 222.09H372.54l-23.42 24.31v76.73l46.84-43.67 32.78 16.4 31.62-42.15L499 274.68v1.27l1.17-.63 1.17.63v-1.27l38.64-20.97 31.61 42.15 32.79-16.4 46.83 43.67V246.4l-23.41-24.31H501.34z"/><path id="polygon190" transform="translate(-301.41 -190.9)" d="M307.26 421.71v17.67l11.71 11.14v66.83H686.48v-66.83l11.71-11.14v-17.67H320.14z"/><path class="cls-3" id="polygon192" style="fill:#fff" transform="translate(-301.41 -190.9)" d="M359.21 441.54v58.54h-8.55v-58.54h-6.17v58.54h-8.55v-51.89l-4.69-6.53v-5.84h42.69v58.54h3.24v5.72h-11.8v-58.54z"/><path d="M72.35 245.1v58.55h3.24V309H64.16v-58.54h-6.57V309H49.4v-58.54h-6.53V309h-8.19v-51.77l-.07-.1-4.62-6.43v-5.6h42.33m.36-.36H29.65v6.08l4.7 6.52v52h8.91v-58.52h5.81v58.54h8.91v-58.54h5.81v58.54h12.16v-6.08h-3.24v-58.54z" id="path194"/><path class="cls-3" id="polygon196" style="fill:#fff" transform="translate(-301.41 -190.9)" d="M378.49 441.54v-5.72h11.79v45.79h3.24v5.72h-11.79v-45.79z"/><path d="M88.69 245.1v45.79h3.24v5.36H80.5v-45.8h-3.24v-5.35h11.43m.36-.36H76.9v6.08h3.24v45.79H92.3v-6.08h-3.25z" id="path198"/><path class="cls-3" id="polygon200" style="fill:#fff" transform="translate(-301.41 -190.9)" d="M405.95 464.19v17.42h6.31v-23.19H397.4v-22.6h23.41v11.12h-8.55v-5.4h-6.31v11.16h14.86v34.63H397.4v-23.14z"/><path d="M119.22 245.1v10.76h-8.19v-5.41h-6.67v11.54h14.86v34.26H96.17v-22.78h8.19v17.42h6.67v-23.55H96.17V245.1h23.05m.36-.36H95.81v23h14.86v22.83h-5.95V273.1h-8.91v23.5h23.78v-35h-14.87v-10.8h5.95v5.4h8.92v-11.46z" id="path202"/><path class="cls-3" id="polygon204" style="fill:#fff" transform="translate(-301.41 -190.9)" d="M435.4 464.19v17.42h6.31v-23.19h-14.86v-22.6h23.41v11.12h-8.55v-5.4h-6.31v11.16h14.86v34.63h-23.41v-23.14z"/><path d="M148.67 245.1v10.76h-8.19v-5.41h-6.67v11.54h14.86v34.26h-23.08v-22.78h8.19v17.42h6.67v-23.55h-14.86V245.1h23.05m.36-.36h-23.74v23h14.86v22.83h-5.95V273.1h-8.91v23.5h23.77v-35h-14.86v-10.8h5.95v5.4h8.91v-11.46z" id="path206"/><path class="cls-3" id="polygon208" style="fill:#fff" transform="translate(-301.41 -190.9)" d="M454.27 441.54v-5.72h11.79v45.79h3.25v5.72h-11.8v-45.79z"/><path d="M164.47 245.1v45.79h3.25v5.36h-11.44v-45.8h-3.24v-5.35h11.43m.37-.36h-12.16v6.08h3.24v45.79h12.16v-6.08h-3.24z" id="path210"/><path class="cls-3" d="M171.77 296.43v-51.51h23.41v51.51zm8.55-5.72h6.27v-40.07h-6.31z" id="path212" style="fill:#fff"/><path d="M195 245.1v51.15h-23.05V245.1H195m-14.86 45.79h6.67v-40.44h-6.67v40.44m15.22-46.15h-23.77v51.87h23.77zm-14.85 45.79v-39.71h5.94v39.71z" id="path214"/><path class="cls-3" id="polygon216" style="fill:#fff" transform="translate(-301.41 -190.9)" d="M512.4 441.54v45.79h-8.55v-45.79h-3.25v-5.72h26.66v45.79h3.24v5.72h-11.8v-45.79z"/><path d="M225.67 245.1v45.79h3.24v5.36h-11.43v-45.8h-6.67v45.8h-8.22v-45.8h-3.24v-5.35h26.29m.36-.36h-27v6.08h3.24v45.79h8.92v-45.79h5.94v45.79h12.16v-6.08h-3.24v-45.79z" id="path218"/><path class="cls-3" d="M249.44 296.43V279h-6.3v17.43h-8.55V279h-3.25v-5.71h3.25v-22.65h-3.25v-5.72H258v45.79h3.24v5.72zm-6.3-23.14h6.3v-22.65h-6.3z" id="path220" style="fill:#fff"/><path d="M257.81 245.1v45.79h3.25v5.36h-11.47v-17.43h-6.66v17.43h-8.19v-17.43h-3.25v-5.35h3.25v-23h-3.25v-5.37h26.29m-14.85 28.37h6.66v-23h-6.66v23m15.22-28.73h-27v6.08h3.24v22.28h-3.24v6.07h3.24v17.43h8.92v-17.42h5.94v17.43h12.16v-6.08h-3.24v-45.79zm-14.83 28.36v-22.28h5.94v22.28z" id="path222"/><path class="cls-3" d="M280.65 296.43V279h-6.31v17.43h-8.55v-45.79h-3.2v-5.72h26.65v28.27h-3.92v5.91h3.92v11.61h3.24v5.72zm-6.31-23.14h6.31v-22.65h-6.31z" id="path224" style="fill:#fff"/><path d="M289.02 245.1v27.91h-3.92v6.27h3.92v11.61h3.24v5.36h-11.43v-17.43h-6.67v17.43h-8.19v-45.8h-3.24v-5.35h26.29m-14.86 28.37h6.67v-23h-6.67v23m15.22-28.73h-27v6.08h3.21v45.79h8.91v-17.43h6v17.43h12.09v-6.08h-3.24v-11.62h-3.92v-5.53h3.92v-28.64zm-14.86 28.36v-22.28h6v22.28z" id="path226"/><path class="cls-3" id="polygon228" style="fill:#fff" transform="translate(-301.41 -190.9)" d="M595.16 441.54v-5.72h11.8v45.79h3.24v5.72h-11.8v-45.79z"/><path d="M305.37 245.1v45.79h3.22v5.36h-11.41v-45.8h-3.25v-5.35h11.44m.36-.36h-12.14v6.08h3.24v45.79h12.16v-6.08h-3.24v-45.79z" id="path230"/><path class="cls-3" id="polygon232" style="fill:#fff" transform="translate(-301.41 -190.9)" d="M611.64 458.42v-5.72h3.24v-16.88h23.41v11.12h-8.55v-5.4h-6.3v11.16h14.85v5.72h-14.85v23.19h6.3v-17.42h8.55v23.14h-23.41v-28.91z"/><path d="M336.7 245.1v10.76h-8.19v-5.41h-6.66v11.54h14.85v5.35h-14.85v23.55h6.66v-17.42h8.19v22.78h-23v-28.91h-3.25v-5.35h3.25V245.1h23m.37-.36h-23.78v16.88h-3.24v6.08h3.24v28.91h23.78V273.1h-8.92v17.42h-5.94V267.7h14.86v-6.08h-14.86v-10.8h5.94v5.4h8.92z" id="path234"/><path class="cls-3" id="polygon236" style="fill:#fff" transform="translate(-301.41 -190.9)" d="M652.88 464.19v27.96h6.31v-33.73h-14.86v-22.6h23.99l.18.01h4.26v5.55l-4.26 5.56h-8.73v-5.4h-6.89v11.16h14.86v45.17h-23.41v-33.68z"/><path d="M366.73 245.1h4.44v5.31l-4.16 5.44h-8.42v-5.41h-7.3v11.54h14.86v44.79h-23v-33.3h8.19v28h6.67v-34.13H343.1V245.1h23.63m.36-.36h-24.35v23h14.85v33.36h-5.94v-28h-8.92v34h23.77v-45.48h-14.84v-10.8h6.52v5.4h8.91v.12l4.44-5.8v-5.79h-4.44z" id="path238"/><path class="cls-4" id="polygon240" style="fill:#aea57a" transform="translate(-301.41 -190.9)" d="M420.68 502.83h159.75L573.18 535H427.93z"/><path d="M161.65 320.91v9.54a3.85 3.85 0 0 0 .24 1.76 11.39 11.39 0 0 1-8.9 4.18 11.8 11.8 0 0 1-9.17-4.18 3.61 3.61 0 0 0 .27-1.76v-9.52a1.28 1.28 0 0 0-1.35-1.46v-.64h7.85v.64c-1 0-1.35.44-1.35 1.46v8.74c0 1.68 1.86 2.76 3.79 2.76s4.16-.9 4.16-2.81v-8.71c0-1-.44-1.47-1.35-1.47v-.61h7.19v.61c-.94 0-1.38.44-1.38 1.47z" id="path242"/><path d="M193.01 324.02a2 2 0 0 0-2-1.32h-4.6v11.17c0 1 .49 1.45 1.35 1.45v.63h-7.8v-.63c.95 0 1.34-.44 1.34-1.45V322.7h-4.55a2 2 0 0 0-2 1.34l-.66-.27 1.1-5.18a4.51 4.51 0 0 0 1.49.24h14.43a4.34 4.34 0 0 0 1.47-.24l1.1 5.18z" id="path244"/><path d="M214.9 335.95v-.63c.66 0 1-.22 1-.64a1.47 1.47 0 0 0-.18-.68l-.12-.25a15.25 15.25 0 0 1-3.52.49 16.53 16.53 0 0 1-3.67-.49l-.1.32a3.47 3.47 0 0 0-.12.71c0 .41.32.54.91.54v.63h-7.41v-.63c.81 0 1-.3 1.44-1.25l5.36-13a2.71 2.71 0 0 0 .29-.93.58.58 0 0 0-.66-.66v-.64h8.07v.64a.61.61 0 0 0-.7.66 3.43 3.43 0 0 0 .26 1l5.31 13c.42 1 .71 1.23 1.4 1.23v.63zm-3.16-12.25-2.25 6.53a6.72 6.72 0 0 0 2.38.39 6.31 6.31 0 0 0 2.39-.42z" id="path246"/><path d="M246.4 335.95v-.63c.93 0 1.35-.47 1.35-1.45v-4.42h-7.83v4.42c0 1 .39 1.45 1.35 1.45v.63h-7.83v-.63c.93 0 1.34-.47 1.34-1.45v-12.94c0-1-.51-1.46-1.37-1.46v-.64h7.86v.64c-.84 0-1.35.44-1.35 1.46v4.36h7.83v-4.36c0-.95-.47-1.46-1.35-1.46v-.64h7.78v.64a1.29 1.29 0 0 0-1.34 1.46v12.94c0 1 .46 1.45 1.34 1.45v.63z" id="path248"/><path class="cls-4" id="polygon250" style="fill:#aea57a" transform="translate(-301.41 -190.9)" d="m406.14 303.26-2.16 9.35 4.32-1.43v5.75l12.96-13.67-20.16-10.08v10.08z"/><path class="cls-4" id="polygon252" style="fill:#aea57a" transform="translate(-301.41 -190.9)" d="M465.75 277.95v7.64h3.59l-1.8 19.63h8.09v-31.83l-15.27-8.53v13.09z"/><path class="cls-4" id="polyline254" style="fill:#aea57a" transform="translate(-301.41 -190.9)" d="m538.67 266.31-3.68 12.51 5.89 2.2-5.89 7.36 8.09 1.47-2.2 6.62 6.62-2.21 5.26 9.68 10.3-5.88"/><path class="cls-4" id="polygon256" style="fill:#aea57a" transform="translate(-301.41 -190.9)" d="m607.75 306.07-8.06 18.13h11.08l-5.03 18.13 16.11-3.02 19.85 19.78.17-33.42-39.15-34.71-1.01 15.11z"/><path class="cls-5" id="polygon258" style="fill:#fff;stroke:#000;stroke-width:10.52000046px;stroke-miterlimit:10" transform="translate(-301.41 -190.9)" d="M484.36 269.51h37.47l-18.74-52.74z"/><path class="cls-5" id="polygon260" style="fill:#fff;stroke:#000;stroke-width:10.52000046px;stroke-miterlimit:10" transform="translate(-301.41 -190.9)" d="M618.69 372.93H382.67l-7.25 55.25h250.53z"/><path class="cls-5" id="polygon262" style="fill:#fff;stroke:#000;stroke-width:10.52000046px;stroke-miterlimit:10" transform="translate(-301.41 -190.9)" d="M597.87 372.93H403.5l7.25-27.03h179.86z"/><path class="cls-5" id="polygon264" style="fill:#fff;stroke:#000;stroke-width:10.52000046px;stroke-miterlimit:10" transform="translate(-301.41 -190.9)" d="M570.42 322.18H430.94l-7.25 23.72h153.98z"/><path class="cls-5" id="rect266" style="fill:#fff;stroke:#000;stroke-width:10.52000046px;stroke-miterlimit:10" d="M159.37 170.49h79.8v66.34h-79.8z"/><path class="cls-5" id="rect268" style="fill:#fff;stroke:#000;stroke-width:10.52000046px;stroke-miterlimit:10" d="M170.99 119.92h56.56v50.57h-56.56z"/><path class="cls-5" d="M128.5 204.1a13.51 13.51 0 0 0-13.46 13.47v19.69h26.93v-19.67a13.51 13.51 0 0 0-13.47-13.49z" id="path270" style="fill:#fff;stroke:#000;stroke-width:10.52000046px;stroke-miterlimit:10"/><path class="cls-5" d="M270.04 204.1a13.51 13.51 0 0 1 13.46 13.47v19.69h-26.91v-19.67a13.51 13.51 0 0 1 13.45-13.49z" id="path272" style="fill:#fff;stroke:#000;stroke-width:10.52000046px;stroke-miterlimit:10"/><path class="cls-4" d="M199.78 184.1a19.72 19.72 0 0 0-19.66 19.66v28.43h39.32v-28.47a19.72 19.72 0 0 0-19.66-19.62z" id="path274" style="fill:#aea57a"/><path class="cls-4" d="M199.78 141.26a11.59 11.59 0 0 0-11.56 11.56v12.59h23.13v-12.59a11.6 11.6 0 0 0-11.57-11.56z" id="path276" style="fill:#aea57a"/><path class="cls-5" id="rect278" style="fill:#fff;stroke:#000;stroke-width:10.52000046px;stroke-miterlimit:10" d="M182.36 80.37h37.47v39.81h-37.47z"/><path class="cls-4" id="rect280" style="fill:#aea57a" d="M198.03 85.56h5.85v29.93h-5.85z"/><path class="cls-4" transform="rotate(-90)" id="rect282" style="fill:#aea57a" d="M-102.26 187.28h6.5v27.55h-6.5z"/><path class="cls-3" id="polygon284" style="fill:#fff" transform="translate(-301.41 -190.9)" d="m355.27 249.63 127.44-23.47-106.41 2.44z"/><path class="cls-3" id="polygon286" style="fill:#fff" transform="translate(-301.41 -190.9)" d="m647.31 249.63-127.44-23.47 106.41 2.44z"/></svg>