<svg xmlns="http://www.w3.org/2000/svg" id="Layer_1" data-name="Layer 1" version="1.1" width="294.734" height="231.295"><defs id="defs4"><style id="style2">.cls-1{fill:#1fa396}.cls-2{fill:#223166}.cls-7{fill:#fff}.cls-13{stroke-miterlimit:10}.cls-12,.cls-13{fill:none}.cls-12{stroke:#fff;stroke-linecap:round;stroke-linejoin:round;stroke-width:2.49px}.cls-13{stroke:#1fa396;stroke-width:6.64px}</style></defs><path class="cls-2" d="M293.726 199.742c-2.07-6.22-12-12.86-12-12.86 13.66-39.84-31.55-56.84-31.55-56.84l-13.69-8.3 3.32-53.51 2.9-17c1.25-18.67 6.64-24.06 5.81-35.68-.83-11.62-11.62-15.35-11.62-15.35-9.12-2.07-22.4 12.45-22.4 12.45l-62.22 76.74-53.09-15.35-20.33.42c-10.37 3.73-22.81 1.65-53.93 36.08s-19.91 61.82-19.91 61.82a19.45 19.45 0 0 0 2.91 10.37l8.48-3.51 3.72-6.46 5.13 3 3-1.13s5.53-3 8-.55c2.47 2.45.55 5.25-5 4.7l-4.62 1.22-3.07 5.31-4.78-2.76-10 3.94c-9.57 5.37-8.77 26.55-8.77 26.55 11.2 2.49 18.66.42 18.66.42l41.48-14.11c19.09-10.37 32.36-32.35 32.36-32.35l14.52-10.79c133.15-3.73 156.38 23.65 156.38 23.65-11.2 0-17 1.24-16.18 19.49.82 18.25 10.37 26.55 16.6 23.23 6.23-3.32 3.76-19.54 3.76-19.54l6.22-8.3s4.15 7.47 4.15 22.82c0 15.35 10 13.68 10 13.68 10.33-8.69 5.76-31.5 5.76-31.5z" id="path192" style="fill:#223166"/><path class="cls-12" d="M29.016 168.862a19.58 19.58 0 0 0-2.9 1.2l-.46.17m-14.74 20.72 7.41-2.92 6.32 2.68 5.22-6.46 1.81-.48h.9c6.38 0 8.51-3.49 9.13-5a7.46 7.46 0 0 0-2-8.29 8.52 8.52 0 0 0-6.25-2.44 14.68 14.68 0 0 0-4.44.77" id="path194" style="fill:none;stroke:#fff;stroke-width:2.49000001px;stroke-linecap:round;stroke-linejoin:round"/><path class="cls-1" d="M85.076 193.102s14.11-28.62 28.21-29.45h24.47s10-1.24 8.3 9.13l-5 16.59s-1.24 3.32-9.12 3.32z" id="path196" style="fill:#1fa396"/><path class="cls-2" d="m158.496 164.892-5.8 26.15 19.08.41s18.67 0 19.91-12.44c1.24-12.44-15.35-14.11-15.35-14.11z" id="path198" style="fill:#223166"/><path class="cls-7" d="m161.406 93.132 64.71 24.48s-7.05-25.31-26.55-31.53c-19.5-6.22-38.16 7.05-38.16 7.05z" id="path200" style="fill:#fff"/><ellipse class="cls-7" cx="221.346" cy="64.922" rx="6.84" ry="9.13" id="ellipse202" style="fill:#fff"/><ellipse class="cls-1" cx="226.116" cy="32.782" rx="9.13" ry="10.99" id="ellipse204" style="fill:#1fa396"/><path class="cls-7" d="M11.246 160.332s-7.06-36.5 44-65.54l-6.23 50.19s-23.26 9.54-37.77 15.35z" id="path206" style="fill:#fff"/><path class="cls-13" d="M22.356 145.112c2.25-8 7.65-18.67 20.24-29.49l-2.77 22.36z" id="path208" style="fill:none;stroke:#1fa396;stroke-width:6.63999987px;stroke-miterlimit:10"/><ellipse class="cls-7" cx="-67.615" cy="136.19" rx="37.08" ry="29.58" transform="rotate(-62.21)" id="ellipse210" style="fill:#fff"/><path class="cls-13" d="M83.166 149.042a14.51 14.51 0 0 1-6.84-1.64c-4.25-2.25-7.2-6.66-8.3-12.42a32.05 32.05 0 0 1 3.59-20.73c5.2-9.86 14.51-16.49 23.17-16.49a14.51 14.51 0 0 1 6.84 1.64c4.26 2.25 7.2 6.66 8.3 12.42a32.05 32.05 0 0 1-3.59 20.73c-5.2 9.82-14.51 16.49-23.17 16.49z" id="path212" style="fill:none;stroke:#1fa396;stroke-width:6.63999987px;stroke-miterlimit:10"/><path class="cls-2" d="M83.166 139.042a4.64 4.64 0 0 1-2.2-.49c-1.49-.79-2.65-2.79-3.16-5.48a22.06 22.06 0 0 1 2.62-14.22c3.86-7.33 10.15-11.17 14.36-11.17a4.64 4.64 0 0 1 2.2.49c1.5.79 2.65 2.79 3.16 5.47a22.13 22.13 0 0 1-2.61 14.23c-3.87 7.33-10.16 11.17-14.37 11.17z" id="path214" style="fill:#223166"/><path class="cls-7" d="m66.096 168.932-4.57 19.11s16.18-9.54 21.16-19.91" id="path216" style="fill:#fff"/><path class="cls-12" id="line218" style="fill:none;stroke:#fff;stroke-width:2.49000001px;stroke-linecap:round;stroke-linejoin:round" d="m13.406 174.322-3.51 1.1"/></svg>