<svg xmlns="http://www.w3.org/2000/svg" id="Layer_1" data-name="Layer 1" version="1.1" width="365.232" height="347.89"><defs id="defs7"><clipPath id="clip-path"><ellipse cx="498.65" cy="366.22" rx="111.17" ry="136.39" id="ellipse4" style="fill:none"/></clipPath><style id="style2">.cls-17,.cls-20,.cls-25,.cls-34,.cls-36,.cls-37{fill:none}.cls-12,.cls-26,.cls-4{fill:#fff}.cls-24{fill:#efac14}.cls-29{stroke:#cc761f}.cls-12,.cls-13,.cls-14,.cls-15,.cls-17,.cls-19,.cls-20,.cls-25,.cls-26,.cls-27,.cls-29,.cls-34,.cls-36,.cls-37{stroke-miterlimit:10}.cls-29{stroke-width:5.98px}.cls-12,.cls-13,.cls-14,.cls-15,.cls-17,.cls-19,.cls-20,.cls-26,.cls-27,.cls-34{stroke:#594330}.cls-12,.cls-13,.cls-14,.cls-15,.cls-17,.cls-19,.cls-20,.cls-25,.cls-26,.cls-27{stroke-width:3.59px}.cls-13,.cls-21,.cls-27{fill:#594330}.cls-13,.cls-20,.cls-26{opacity:.3}.cls-14{fill:#99927f}.cls-15{fill:#b29e6d}.cls-19{fill:#d3b19b}.cls-23{fill:#9c4732}.cls-25{stroke:#8c705d}.cls-29{fill:#ed9b2f}.cls-36{stroke:#fff}.cls-34{stroke-width:5.08px}.cls-36,.cls-37{stroke-width:5.1px}.cls-37{stroke:#efac14}.cls-38{fill:#cc761f}</style></defs><rect x="-342.25" y="5.64" width="336.61" height="286.17" rx="5.64" transform="rotate(-90)" id="rect193" style="fill:#efac14;stroke:#cc761f;stroke-width:11.27999973px;stroke-miterlimit:10"/><path id="rect195" style="fill:#ea9e42;stroke:#cc761f;stroke-width:5.98000002px;stroke-miterlimit:10" d="M21.6 21.6h254.26v304.69H21.6z"/><ellipse cx="148.73" cy="173.95" rx="127.13" ry="152.35" id="ellipse197" style="fill:#f9b973;stroke:#cc761f;stroke-width:5.98000002px;stroke-miterlimit:10"/><ellipse cx="148.73" cy="173.95" rx="111.17" ry="136.39" id="ellipse199" style="fill:#5da3c1"/><path d="M148.73 310.34c38.73 0 72.89-24.43 92.8-61.38H55.93c19.91 36.95 54.07 61.38 92.8 61.38z" id="path201" style="fill:#f9b973"/><path d="M38.08 161.41h221.4c-5.18-69.35-52.85-123.85-110.7-123.85S43.21 92.06 38.08 161.41z" id="path203" style="fill:#8bbfd1"/><g clip-path="url(#clip-path)" id="g335" transform="translate(-349.92 -192.27)" style="clip-path:url(#clip-path)"><path class="cls-4" d="M549.81 342.45a43.13 43.13 0 0 0-2.55-9.32l.23-.23-2.33-4.2-.51-.89c-.27-.45-.53-.88-.8-1.3l-.1-.15v-.06a8.16 8.16 0 0 0 2.17-4.95c.5-4.7-2-11.55-8.49-15.53a16.83 16.83 0 0 0 3.58-9.64c0-.23-1.26-21.1-11-28.16-1.45-5.09-4.93-14.56-11.63-19-1.5-1-2.91-2.14-4.4-3.33-4.86-3.9-10.31-8.31-19.56-8.1-10.63.26-25.67 8-30.52 14.13-.44.56-.92 1.14-1.41 1.75-3.69 4.5-8.74 10.67-8.74 18.19 0 .46-1.51 1.92-2.23 2.63-2 2-5.29 5.11-5 9.75-.24.3-.53.64-.77.93-2.1 2.47-6.1 7.17-4.88 14l-.07.09-.13.18c-.14.19-.28.38-.39.55l-.25.36c-.13.2-.27.4-.35.54l-.26.4-.43.71-.24.43-.36.66-.13.25a34.41 34.41 0 0 0-1.48 3.3l-.13.34-.27.77-1.91 5.88.43.21c-1 6.85-.46 16.08 4.53 27.63-4.85 1.8-9.44 3.63-13.68 5.47-12.58 5.46-18.1 9.24-18.33 9.4l-.79.54-21.06 26.81-5.86 32.51 9.62 11.19 2.32 22.32 10.85-14.85 31.16-19 22.93 45.85-20.74 42.16 76.11 6 24.52-3.8 18-14.69-18.43-57.28-2.2-25.51 4.84-15.94c3.94-9.52 6.81-15.13 9.51-22.57l8.87-8.56 6.38-15.38z" id="path205" style="fill:#fff"/><path class="cls-4" id="polygon207" style="fill:#fff" d="m391.65 449.48 17.23-7 20.25-12.38 13.33 30.85-21.69 41.49 37.83 3 15.56-68.94-23.86-46.48-63.21 15.66z"/><path class="cls-4" d="m463.18 348.19-7.65 10.21 1.35 1 7.88-10c-.54-.4-1.07-.83-1.58-1.21z" id="path209" style="fill:#fff"/><path class="cls-4" d="m468.12 352.16-8.31 9.69 1.61 1.41 8.52-9.5z" id="path211" style="fill:#fff"/><path class="cls-4" d="m460.35 346.15-1.48-1-.35-.21-6.63 10.89 1.21.8.11.08 7.23-10.52z" id="path213" style="fill:#fff"/><path class="cls-4" d="M461.1 346.68h-.05l-7.33 10.45 1.13.81 7.53-10.3z" id="path215" style="fill:#fff"/><path class="cls-4" d="m465.31 349.83-8 10c.62.49 1.26 1 1.92 1.58l8.23-9.75c-.71-.66-1.46-1.26-2.15-1.83z" id="path217" style="fill:#fff"/><path class="cls-4" d="M550.69 360.19c-2.72 7.36-7.62 19.35-11.33 28.32l-7 16.78-.67 25.52 15 50.22-15.59 12.75-19.61 3-70.49-5.54 15.57-29.77L435 411.54l-31.9 19.51-.53.22-1-9.4-8.28-9.63 4.15-23.43 17.82-22.69a128 128 0 0 1 15.42-7.72c4.58-2 9.6-4 15-5.91.34.14.74.31 1.2.53l.6-1.18.25-.09-.08-.23 2.37-4.6 5-2.93c-9.09-15.6-8.73-26-6.83-31.92l.17-.5.11-.34.1-.25a19.4 19.4 0 0 1 .9-2l.68-1.2 1.56-2.11-4.71-4.24 4.87 4.13-4.61-4.42 4.71 4.31.2-.2 3.58-3.14-2-4.32c-.67-1.44-.79-1.7 1.66-4.58 1.67-2 4.11-4.83 3.93-8.76.32-.33.72-.72 1-1 2.29-2.21 6.12-5.92 6.12-11.79 0-3 3.24-6.92 5.85-10.11.55-.66 1.07-1.31 1.56-1.92 2.27-2.87 13.57-9.11 20.81-9.28 4.35-.11 6.84 1.74 11.27 5.29 1.63 1.32 3.33 2.68 5.3 4 3.11 2.08 6 9.62 7 14.06l.8 3.71 3.5 1c2.2 1.53 4.91 10.54 5.55 15.78l-5.26 4.52.66 3.63 4.26-.76.12.13-4.36.79.09.46a27.06 27.06 0 0 1-.46 5.42l-1 6.06 3.17.67-.38 4.13-.5 6.17 3.3 2.09.57.41.41.34.84.75c.19.18.39.37.59.58l.3.32.5.55.39.45c.18.21.35.43.54.67l.32.42c.24.32.47.65.69 1l.28.44c.19.28.37.58.54.86l.35.62a30.29 30.29 0 0 1 3.58 13l.27 4.65 12.85 3.3z" id="path219" style="fill:#fff"/><path class="cls-4" d="m500.81 390.12 2.16 1.11 5.77-11.38-2.05-1.06z" id="path221" style="fill:#fff"/><path class="cls-4" d="m502.45 376.55-6.08 11.22 2.54 1.36 6-11.28z" id="path223" style="fill:#fff"/><path class="cls-4" d="m497.64 373.87-.15-.09h-.13l-.43-.25-.16-.09-1.31-.76c-1.78-1-3.52-2.09-5.15-3.11l-2.38-1.57-6.93 10.7 2.5 1.6.17.1.11.07.18.11c1.58 1 3.23 2 4.93 3l2.53 1.45 6.39-11.03z" id="path225" style="fill:#fff"/><path class="cls-4" d="M473.14 356.72c-.86-.82-1.69-1.59-2.5-2.33l-8.59 9.44c.73.67 1.48 1.36 2.25 2.09a102.78 102.78 0 0 0 12.9 10.26l7.22-10.52a90.24 90.24 0 0 1-11.28-8.94z" id="path227" style="fill:#fff"/><path class="cls-12" d="M531 322.05s11.88 7.21 12.93 25.48L526.54 354l-12.66-16 5.47-10.65" id="path229" style="fill:#fff;stroke:#594330;stroke-width:3.58999991px;stroke-miterlimit:10"/><path class="cls-13" d="m531 322.05-9.48 4.31 5.12 15.56s7.17.11 12.93-10.13a27.48 27.48 0 0 0-8.57-9.74z" id="path231" style="opacity:.3;fill:#594330;stroke:#594330;stroke-width:3.58999991px;stroke-miterlimit:10"/><path class="cls-14" d="M445.59 345.74c-24.84 8.82-34.59 15.59-34.59 15.59l-19.48 24.79 5.64 54.26 8.88-3.61 26.08-15.95 17.45 40.39-18.63 35.63 80.83 6.4 22.06-3.42L554 483.28 538.08 430l.61-23.29s13.48-31.86 18.38-45.35V350.9L537 345.74s-7.63 31.41-25.29 42.65c0 0-28.51-13.18-43-27.07-14.49-13.89-23.12-15.58-23.12-15.58z" id="path233" style="fill:#99927f;stroke:#594330;stroke-width:3.58999991px;stroke-miterlimit:10"/><path class="cls-15" d="m406 436.77 36.48-22.31s13.46-15.94 3.19-35.06C435.4 360.28 411 361.33 411 361.33l-19.48 24.79-5 28z" id="path235" style="fill:#b29e6d;stroke:#594330;stroke-width:3.58999991px;stroke-miterlimit:10"/><path class="cls-14" d="M468.72 361.32c14.45 13.89 43 27.07 43 27.07 17.62-11.24 25.28-42.65 25.28-42.65l-10.32-3.82h-41.19c-14.41.77-30.09 8.6-30.09 8.6a91.13 91.13 0 0 1 13.32 10.8z" id="path237" style="fill:#99927f;stroke:#594330;stroke-width:3.58999991px;stroke-miterlimit:10"/><path d="m537 345.74-10.32-3.82h-7.56l-14 10.63L515 386c15.3-12.81 22-40.26 22-40.26z" id="path239" style="fill:#827a65;stroke:#594330;stroke-width:3.58999991px;stroke-miterlimit:10"/><path class="cls-12" d="M447.91 300.46s-17.19 14.47 1.61 46.74l5.88 3.32s15-7.15 24.85-7.06l-1.49-39.66" id="path241" style="fill:#fff;stroke:#594330;stroke-width:3.58999991px;stroke-miterlimit:10"/><path class="cls-17" d="M511.68 388.39s3.57 48.23 4.23 58.19c.66 9.96 10.63 52.94 10.63 52.94" id="path243" style="fill:none;stroke:#594330;stroke-width:3.58999991px;stroke-miterlimit:10"/><path d="M447.91 300.46s-2.41 5.4 1.61 7.65c4.02 2.25 17.08 5.89 17.08 5.89s1.58 23.7 10.81 27.95c0 0 13.27 7.4 19.13 9 0 0 10.23.23 15.14 0s17.74-11.7 17.74-11.7l1.8-19.37s5.48 2.25 7.47 2.25c1.99 0 1.31-10.35-9.27-12.6 0 0 .9-5.18.45-7.66l.45 2.48s4.28-4.06 4.28-8.11-3.16-21.84-10.14-23.86c0 0-2.92-13.51-9.68-18s-11-10.58-20.26-10.35c-9.26.23-22.29 7.43-25.67 11.7-3.38 4.27-8.78 9.91-8.78 16s-8.1 8.33-7.2 12.61c.9 4.28-9.01 7.34-4.96 16.12z" id="path245" style="fill:#6b594d;stroke:#594330;stroke-width:3.58999991px;stroke-miterlimit:10"/><path class="cls-19" d="M523.37 276.37s-2.26-16.53-12-19.49c0 0-4.18.87-6.09 2.61-1.91 1.74-12.18.52-16.53.7-4.35.18-9.58-.7-10.1 7.65-.52 8.35-3.53 19.84-4.38 26.28-.85 6.44 5.43 11.49 9.25 11.83 3.82.34 2.27 4.88 2.27 4.88s11.13 1 16 1c4.87 0 15-.7 19.66-2.61s6.93-15 4-25.95c-2.93-10.95-2.08-6.9-2.08-6.9z" id="path247" style="fill:#d3b19b;stroke:#594330;stroke-width:3.58999991px;stroke-miterlimit:10"/><path class="cls-17" d="M500.49 304s-4 2.84-.87 6.25 7.67-1.56 7.67-1.56A4.92 4.92 0 0 0 513 310c3.55-1.42.14-7-.86-11.8-1-4.8-2.41-7.67-1.42-10.23 0 0 5.18-5.82 15.24-2.62" id="path249" style="fill:none;stroke:#594330;stroke-width:3.58999991px;stroke-miterlimit:10"/><ellipse class="cls-17" cx="493.13" cy="292.86" rx="6" ry="3.19" id="ellipse251" style="fill:none;stroke:#594330;stroke-width:3.58999991px;stroke-miterlimit:10"/><ellipse class="cls-17" cx="517.07" cy="292.86" rx="6" ry="3.19" id="ellipse253" style="fill:none;stroke:#594330;stroke-width:3.58999991px;stroke-miterlimit:10"/><path class="cls-17" d="M482 287.89s4.4-5.84 10.45-3.51c6.05 2.33 7.72 4.08 9.74 1.48l1.49-1.49" id="path255" style="fill:none;stroke:#594330;stroke-width:3.58999991px;stroke-miterlimit:10"/><path class="cls-20" d="M488.63 276.31a71.5 71.5 0 0 1 15.37 1.55c6.72 1.68 6.1-1.22 13.31-1.55" id="path257" style="opacity:.3;fill:none;stroke:#594330;stroke-width:3.58999991px;stroke-miterlimit:10"/><path class="cls-20" d="M490.67 269.13a53 53 0 0 1 12.57 1.55c6.72 1.68 3.42-.93 10.64-1.27" id="path259" style="opacity:.3;fill:none;stroke:#594330;stroke-width:3.58999991px;stroke-miterlimit:10"/><path class="cls-19" d="M496.19 319.69s8.12 12.18 20.88-.54" id="path261" style="fill:#d3b19b;stroke:#594330;stroke-width:3.58999991px;stroke-miterlimit:10"/><path class="cls-17" d="M507.49 311.87v6.21a75.66 75.66 0 0 0 11.33 1.08c4.3-.12 12.4.26 12.4.26" id="path263" style="fill:none;stroke:#594330;stroke-width:3.58999991px;stroke-miterlimit:10"/><path class="cls-17" d="M485.79 310.83s-11.05-1.32-13.11 5.82c0 0 10.3 5.75 34.81 1.43" id="path265" style="fill:none;stroke:#594330;stroke-width:3.58999991px;stroke-miterlimit:10"/><circle class="cls-21" cx="490.85" cy="292.96" r="2.36" id="circle267" style="fill:#594330"/><circle class="cls-21" cx="514.71" cy="292.86" r="2.36" id="circle269" style="fill:#594330"/><path id="line271" style="fill:none;stroke:#9c4732;stroke-width:3.58999991px;stroke-miterlimit:10" d="m458.69 393.21 23.68 81.29"/><path class="cls-23" d="M517.39 499.23c-.09-.3-9-30.51-11.53-59.63-2.51-28.84-7.56-55.74-7.61-56l3.93 1.93c.05.26 4.73 24.75 7.25 53.77 2.5 28.75 11.31 58.62 11.4 58.92z" id="path273" style="fill:#9c4732"/><path class="cls-15" d="M546.73 348.24s4.38 23.17-.48 40.15" id="path275" style="fill:#b29e6d;stroke:#594330;stroke-width:3.58999991px;stroke-miterlimit:10"/><path class="cls-23" d="M515.56 500.77c-6.82-7.19-19-13.17-38.74-20.63-15.26-5.77-29.8-10.34-29.94-10.37l4.81-9a289.51 289.51 0 0 1 28.84 9.23c21.58 8.16 34.85 14.86 42.91 23.36l1.54 5.89z" id="path277" style="fill:#9c4732"/><circle class="cls-24" cx="520.63" cy="394.66" r="3.37" id="circle279" style="fill:#efac14"/><circle class="cls-24" cx="521.27" cy="407.17" r="3.37" id="circle281" style="fill:#efac14"/><circle class="cls-24" cx="522.13" cy="420.32" r="3.37" id="circle283" style="fill:#efac14"/><circle class="cls-24" cx="523.04" cy="433.57" r="3.37" id="circle285" style="fill:#efac14"/><circle class="cls-24" cx="524" cy="448.38" r="3.37" id="circle287" style="fill:#efac14"/><circle class="cls-24" cx="527.1" cy="462.06" r="3.37" id="circle289" style="fill:#efac14"/><circle class="cls-24" cx="530.55" cy="476.59" r="3.37" id="circle291" style="fill:#efac14"/><circle class="cls-24" cx="534.88" cy="488.88" r="3.37" id="circle293" style="fill:#efac14"/><path class="cls-17" d="M453.75 297.91s-2.18 5.2 1.65 4.95 7-4.26 8.71.86" id="path295" style="fill:none;stroke:#594330;stroke-width:3.58999991px;stroke-miterlimit:10"/><path class="cls-17" d="M458.69 294.19s11.39.11 8.11-4.52c-3.28-4.63-8.69-7.44-3.76-9.55" id="path297" style="fill:none;stroke:#594330;stroke-width:3.58999991px;stroke-miterlimit:10"/><path class="cls-25" d="M484.25 337.48s-.63-3.64 4.17-6.7 4.43-4.59 4.43-4.59" id="path299" style="fill:none;stroke:#8c705d;stroke-width:3.58999991px;stroke-miterlimit:10"/><path class="cls-25" d="M518.27 341.53s-2.5-2.71-.15-7.89 1.23-6.27 1.23-6.27" id="path301" style="fill:none;stroke:#8c705d;stroke-width:3.58999991px;stroke-miterlimit:10"/><path class="cls-25" d="M491.81 341.78s4 1.58 4.38-4.3c.38-5.88 3.08-7.47 5.57-7.93" id="path303" style="fill:none;stroke:#8c705d;stroke-width:3.58999991px;stroke-miterlimit:10"/><path class="cls-25" d="M508.55 343.81s-4.08-1.81-1.92-4.75 4.84-4.3 2.93-8.37" id="path305" style="fill:none;stroke:#8c705d;stroke-width:3.58999991px;stroke-miterlimit:10"/><path class="cls-17" d="M467.39 276.31s1.79.15 2.23-5.07c.44-5.22 2.4-10.24 6.1-12.42" id="path307" style="fill:none;stroke:#594330;stroke-width:3.58999991px;stroke-miterlimit:10"/><path class="cls-25" d="M497 255.41s1.34-4.4-2.93-3c-4.27 1.4-6.78 3.53-9 1.36 0 0-1.52-1.73 1.42-3.12" id="path309" style="fill:none;stroke:#8c705d;stroke-width:3.58999991px;stroke-miterlimit:10"/><path class="cls-23" id="polygon311" style="fill:#9c4732" d="m393.72 395.83-2.71-2.35 26.45-30.3 4.52 1.05z"/><path class="cls-17" d="M428.18 352.55s33.14 10 30.34 52c0 0-2.55 10.43-14 10.18" id="path313" style="fill:none;stroke:#594330;stroke-width:3.58999991px;stroke-miterlimit:10"/><path class="cls-21" d="m511.68 350.89 5.66 17.43s6.53-.78 16.88-23.25l2.75.67s-5.82 30.47-22 40.21l-9.87-33.4" id="path315" style="fill:#594330"/><path class="cls-15" id="line317" style="fill:#b29e6d;stroke:#594330;stroke-width:3.58999991px;stroke-miterlimit:10" d="m517.34 348.47 8.6 12.85"/><path class="cls-15" id="line319" style="fill:#b29e6d;stroke:#594330;stroke-width:3.58999991px;stroke-miterlimit:10" d="m522.48 345.74 9.54 5.92"/><path class="cls-26" id="line321" style="opacity:.3;fill:#fff;stroke:#594330;stroke-width:3.58999991px;stroke-miterlimit:10" d="m496.54 350.89.25 29.02"/><path class="cls-26" id="line323" style="opacity:.3;fill:#fff;stroke:#594330;stroke-width:3.58999991px;stroke-miterlimit:10" d="m487.13 346.98-6.88 21.34"/><path class="cls-13" d="M479.18 315.14c-1.71-4.27-3.56-8.4-5.19-11.85l-26.08-2.83a22 22 0 0 0-5.78 9.66c7.83 11.13 21.79 28.33 35.28 31.8a9.88 9.88 0 0 0 2.79.35z" id="path325" style="opacity:.3;fill:#594330;stroke:#594330;stroke-width:3.58999991px;stroke-miterlimit:10"/><path class="cls-21" d="M526.38 287.89s-.32 16.9-4.92 21.37c0 0 1.74 4.49 8 .21-.04 0 1.54-19.27-3.08-21.58z" id="path327" style="fill:#594330"/><path class="cls-27" id="polyline329" style="fill:#594330;stroke:#594330;stroke-width:3.58999991px;stroke-miterlimit:10" d="m517.07 318.75 13.56 7.04.38-4.14"/><path class="cls-27" d="M554 483.28 538.08 430l.61-23.29s3.83-9.06 8.15-19.56l-.59-3.46-11.94 19.26L532 430.2l15.33 58.52z" id="path331" style="fill:#594330;stroke:#594330;stroke-width:3.58999991px;stroke-miterlimit:10"/><path class="cls-27" d="M433.94 428.5s12.12-7.28 17.11-15c0 0-6.6.73-6.91-1.41l-4 3.77-8.09 4.95" id="path333" style="fill:#594330;stroke:#594330;stroke-width:3.58999991px;stroke-miterlimit:10"/></g><ellipse cx="148.73" cy="173.95" rx="111.17" ry="136.39" id="ellipse337" style="fill:none;stroke:#cc761f;stroke-width:10.72000027px;stroke-miterlimit:10"/><path class="cls-29" id="line339" style="fill:#ed9b2f;stroke:#cc761f;stroke-width:5.98000002px;stroke-miterlimit:10" d="M5.64 5.65 21.6 21.6"/><path class="cls-29" id="line341" style="fill:#ed9b2f;stroke:#cc761f;stroke-width:5.98000002px;stroke-miterlimit:10" d="M291.82 5.65 275.86 21.6"/><path class="cls-29" id="line343" style="fill:#ed9b2f;stroke:#cc761f;stroke-width:5.98000002px;stroke-miterlimit:10" d="m5.64 342.25 15.96-15.96"/><path class="cls-29" id="line345" style="fill:#ed9b2f;stroke:#cc761f;stroke-width:5.98000002px;stroke-miterlimit:10" d="m291.82 342.25-15.96-15.96"/><path class="cls-29" id="line347" style="fill:#ed9b2f;stroke:#cc761f;stroke-width:5.98000002px;stroke-miterlimit:10" d="M40.35 21.6V5.65"/><path class="cls-29" id="line349" style="fill:#ed9b2f;stroke:#cc761f;stroke-width:5.98000002px;stroke-miterlimit:10" d="M64.29 21.6V5.65"/><path class="cls-29" id="line351" style="fill:#ed9b2f;stroke:#cc761f;stroke-width:5.98000002px;stroke-miterlimit:10" d="M88.22 21.6V5.65"/><path class="cls-29" id="line353" style="fill:#ed9b2f;stroke:#cc761f;stroke-width:5.98000002px;stroke-miterlimit:10" d="M112.16 21.6V5.65"/><path class="cls-29" id="line355" style="fill:#ed9b2f;stroke:#cc761f;stroke-width:5.98000002px;stroke-miterlimit:10" d="M136.09 21.6V5.65"/><path class="cls-29" id="line357" style="fill:#ed9b2f;stroke:#cc761f;stroke-width:5.98000002px;stroke-miterlimit:10" d="M160.03 21.6V5.65"/><path class="cls-29" id="line359" style="fill:#ed9b2f;stroke:#cc761f;stroke-width:5.98000002px;stroke-miterlimit:10" d="M160.03 21.6V5.65"/><path class="cls-29" id="line361" style="fill:#ed9b2f;stroke:#cc761f;stroke-width:5.98000002px;stroke-miterlimit:10" d="M183.96 21.6V5.65"/><path class="cls-29" id="line363" style="fill:#ed9b2f;stroke:#cc761f;stroke-width:5.98000002px;stroke-miterlimit:10" d="M207.9 21.6V5.65"/><path class="cls-29" id="line365" style="fill:#ed9b2f;stroke:#cc761f;stroke-width:5.98000002px;stroke-miterlimit:10" d="M231.84 21.6V5.65"/><path class="cls-29" id="line367" style="fill:#ed9b2f;stroke:#cc761f;stroke-width:5.98000002px;stroke-miterlimit:10" d="M255.77 21.6V5.65"/><path class="cls-29" id="line369" style="fill:#ed9b2f;stroke:#cc761f;stroke-width:5.98000002px;stroke-miterlimit:10" d="M257.11 326.29v15.96"/><path class="cls-29" id="line371" style="fill:#ed9b2f;stroke:#cc761f;stroke-width:5.98000002px;stroke-miterlimit:10" d="M233.17 326.29v15.96"/><path class="cls-29" id="line373" style="fill:#ed9b2f;stroke:#cc761f;stroke-width:5.98000002px;stroke-miterlimit:10" d="M209.24 326.29v15.96"/><path class="cls-29" id="line375" style="fill:#ed9b2f;stroke:#cc761f;stroke-width:5.98000002px;stroke-miterlimit:10" d="M185.3 326.29v15.96"/><path class="cls-29" id="line377" style="fill:#ed9b2f;stroke:#cc761f;stroke-width:5.98000002px;stroke-miterlimit:10" d="M161.37 326.29v15.96"/><path class="cls-29" id="line379" style="fill:#ed9b2f;stroke:#cc761f;stroke-width:5.98000002px;stroke-miterlimit:10" d="M137.43 326.29v15.96"/><path class="cls-29" id="line381" style="fill:#ed9b2f;stroke:#cc761f;stroke-width:5.98000002px;stroke-miterlimit:10" d="M137.43 326.29v15.96"/><path class="cls-29" id="line383" style="fill:#ed9b2f;stroke:#cc761f;stroke-width:5.98000002px;stroke-miterlimit:10" d="M113.49 326.29v15.96"/><path class="cls-29" id="line385" style="fill:#ed9b2f;stroke:#cc761f;stroke-width:5.98000002px;stroke-miterlimit:10" d="M89.56 326.29v15.96"/><path class="cls-29" id="line387" style="fill:#ed9b2f;stroke:#cc761f;stroke-width:5.98000002px;stroke-miterlimit:10" d="M65.62 326.29v15.96"/><path class="cls-29" id="line389" style="fill:#ed9b2f;stroke:#cc761f;stroke-width:5.98000002px;stroke-miterlimit:10" d="M41.69 326.29v15.96"/><path class="cls-29" id="line391" style="fill:#ed9b2f;stroke:#cc761f;stroke-width:5.98000002px;stroke-miterlimit:10" d="M275.86 89.6h15.96"/><path class="cls-29" id="line393" style="fill:#ed9b2f;stroke:#cc761f;stroke-width:5.98000002px;stroke-miterlimit:10" d="M275.86 113.54h15.96"/><path class="cls-29" id="line395" style="fill:#ed9b2f;stroke:#cc761f;stroke-width:5.98000002px;stroke-miterlimit:10" d="M275.86 41.73h15.96"/><path class="cls-29" id="line397" style="fill:#ed9b2f;stroke:#cc761f;stroke-width:5.98000002px;stroke-miterlimit:10" d="M275.86 65.67h15.96"/><path class="cls-29" id="line399" style="fill:#ed9b2f;stroke:#cc761f;stroke-width:5.98000002px;stroke-miterlimit:10" d="M275.86 137.48h15.96"/><path class="cls-29" id="line401" style="fill:#ed9b2f;stroke:#cc761f;stroke-width:5.98000002px;stroke-miterlimit:10" d="M275.86 161.41h15.96"/><path class="cls-29" id="line403" style="fill:#ed9b2f;stroke:#cc761f;stroke-width:5.98000002px;stroke-miterlimit:10" d="M275.86 185.35h15.96"/><path class="cls-29" id="line405" style="fill:#ed9b2f;stroke:#cc761f;stroke-width:5.98000002px;stroke-miterlimit:10" d="M275.86 209.28h15.96"/><path class="cls-29" id="line407" style="fill:#ed9b2f;stroke:#cc761f;stroke-width:5.98000002px;stroke-miterlimit:10" d="M275.86 209.28h15.96"/><path class="cls-29" id="line409" style="fill:#ed9b2f;stroke:#cc761f;stroke-width:5.98000002px;stroke-miterlimit:10" d="M275.86 233.22h15.96"/><path class="cls-29" id="line411" style="fill:#ed9b2f;stroke:#cc761f;stroke-width:5.98000002px;stroke-miterlimit:10" d="M275.86 257.15h15.96"/><path class="cls-29" id="line413" style="fill:#ed9b2f;stroke:#cc761f;stroke-width:5.98000002px;stroke-miterlimit:10" d="M275.86 281.09h15.96"/><path class="cls-29" id="line415" style="fill:#ed9b2f;stroke:#cc761f;stroke-width:5.98000002px;stroke-miterlimit:10" d="M275.86 305.03h15.96"/><path class="cls-29" id="line417" style="fill:#ed9b2f;stroke:#cc761f;stroke-width:5.98000002px;stroke-miterlimit:10" d="M21.6 258.29H5.64"/><path class="cls-29" id="line419" style="fill:#ed9b2f;stroke:#cc761f;stroke-width:5.98000002px;stroke-miterlimit:10" d="M21.6 234.36H5.64"/><path class="cls-29" id="line421" style="fill:#ed9b2f;stroke:#cc761f;stroke-width:5.98000002px;stroke-miterlimit:10" d="M21.6 306.17H5.64"/><path class="cls-29" id="line423" style="fill:#ed9b2f;stroke:#cc761f;stroke-width:5.98000002px;stroke-miterlimit:10" d="M21.6 282.23H5.64"/><path class="cls-29" id="line425" style="fill:#ed9b2f;stroke:#cc761f;stroke-width:5.98000002px;stroke-miterlimit:10" d="M21.6 210.42H5.64"/><path class="cls-29" id="line427" style="fill:#ed9b2f;stroke:#cc761f;stroke-width:5.98000002px;stroke-miterlimit:10" d="M21.6 186.49H5.64"/><path class="cls-29" id="line429" style="fill:#ed9b2f;stroke:#cc761f;stroke-width:5.98000002px;stroke-miterlimit:10" d="M21.6 162.55H5.64"/><path class="cls-29" id="line431" style="fill:#ed9b2f;stroke:#cc761f;stroke-width:5.98000002px;stroke-miterlimit:10" d="M21.6 138.62H5.64"/><path class="cls-29" id="line433" style="fill:#ed9b2f;stroke:#cc761f;stroke-width:5.98000002px;stroke-miterlimit:10" d="M21.6 138.62H5.64"/><path class="cls-29" id="line435" style="fill:#ed9b2f;stroke:#cc761f;stroke-width:5.98000002px;stroke-miterlimit:10" d="M21.6 114.68H5.64"/><path class="cls-29" id="line437" style="fill:#ed9b2f;stroke:#cc761f;stroke-width:5.98000002px;stroke-miterlimit:10" d="M21.6 90.74H5.64"/><path class="cls-29" id="line439" style="fill:#ed9b2f;stroke:#cc761f;stroke-width:5.98000002px;stroke-miterlimit:10" d="M21.6 66.81H5.64"/><path class="cls-29" id="line441" style="fill:#ed9b2f;stroke:#cc761f;stroke-width:5.98000002px;stroke-miterlimit:10" d="M21.6 42.87H5.64"/><path class="cls-4" d="m298.84 236.13 4.61-33.11-4.81-1.46.06-.52c.22-2 .47-3.89.75-5.76a80.21 80.21 0 0 1 1.83-8c.67-2.53 1.35-5.1 1.86-7.82.89-4.75 1.44-9.56 2-14.21l.31-2.69c.91-7.7-.08-12.32-7.9-14.63l-.44-.12a10.83 10.83 0 0 0-13.25 6.4l-.18.44-1.66 7.43a34 34 0 0 1-.92 5l-.13.51h-.53c-8.43-.48-12.92-.6-15.61.06-4.22 1-7 4.4-10.48 19.89l-.15.66-6.49-2-8 32.07 5.83 1.76-7.78 16.52-.68-.82c-1.14-1.56-2.08-2.75-2.78-3.55l-.1-.16c-2.12-4.82-11.09-33.32-20.42-64.88l-.24-13.43-5.46 12.6-18.56 66.91 1.18 6.61 6.22 20.9 13.88 28.17 21.22 8.25 31.06-2.97 27.66-60.45z" id="path443" style="fill:#fff"/><path class="cls-19" d="M259.08 198.87s4.26-23.8 7.4-24.57c3.14-.77 16.39.4 19.3.4a42 42 0 0 0 3.12-12l1.34-5.88s1.44-3.47 4.91-2.43 4.21.95 3.46 7.33c-.63 5.35-1.21 11-2.22 16.44-1.01 5.44-2.89 10.6-3.73 16.08-.84 5.48-1.33 11-1.72 16.6" id="path445" style="fill:#d3b19b;stroke:#594330;stroke-width:3.58999991px;stroke-miterlimit:10"/><path class="cls-19" id="line447" style="fill:#d3b19b;stroke:#594330;stroke-width:3.58999991px;stroke-miterlimit:10" d="m288.21 167.58-3.15 14.95"/><path class="cls-15" d="m233 290.09-17.2-6.68-27-54.86V214.4l5.63-13.46 12.75-31.89s19.16 64.82 21.52 67.18c2.36 2.36 10.17 14.09 10.17 14.09l18.57-39.41 31.24 10.76-30.18 66z" id="path449" style="fill:#b29e6d;stroke:#594330;stroke-width:3.58999991px;stroke-miterlimit:10"/><path class="cls-23" id="polygon451" style="fill:#9c4732" transform="translate(-349.92 -192.27)" d="m600.98 478.82-3.94.4 28.86-63.58 3.27 1.47z"/><path class="cls-23" id="polygon453" style="fill:#9c4732" transform="translate(-349.92 -192.27)" d="m569.23 435.92 16.93 10.87.9 5.62-20.96-14.45-16.23-53.79 2.14-5.34z"/><path class="cls-12" id="polygon455" style="fill:#fff;stroke:#594330;stroke-width:3.58999991px;stroke-miterlimit:10" transform="translate(-349.92 -192.27)" d="m640.4 418.66-42.53-12.84 4.67-18.67 42.54 12.84z"/><path class="cls-19" id="line457" style="fill:#d3b19b;stroke:#594330;stroke-width:3.58999991px;stroke-miterlimit:10" d="m279.3 175.49-1.68 6.06"/><path class="cls-19" id="line459" style="fill:#d3b19b;stroke:#594330;stroke-width:3.58999991px;stroke-miterlimit:10" d="m272.79 174.7-2.4 5.82"/><circle cx="296.61" cy="95.09" r="46.92" id="circle461" style="fill:#fff;stroke:#fff;stroke-width:15.31000042px;stroke-miterlimit:10"/><circle cx="296.61" cy="95.09" r="46.92" id="circle463" style="fill:#dd660e;stroke:#dd660e;stroke-width:3.58999991px;stroke-miterlimit:10"/><ellipse cx="290.6" cy="95.09" rx="40.91" ry="46.92" id="ellipse465" style="fill:#f9a86b"/><ellipse cx="293.93" cy="100.18" rx="37.59" ry="41.83" id="ellipse467" style="fill:#fc7e15"/><path class="cls-34" d="M260.54 65.09s26.33.22 22.67 16.26c-3.66 16.04-14.62 40-.9 58.44" id="path469" style="fill:none;stroke:#594330;stroke-width:5.07999992px;stroke-miterlimit:10"/><path class="cls-34" d="M296.61 47.73s-8.8 14.5 5.13 19.54c13.93 5.04 32.22 7.37 40.69 37.55" id="path471" style="fill:none;stroke:#594330;stroke-width:5.07999992px;stroke-miterlimit:10"/><path class="cls-34" d="M272.79 53.73c28.94 18 35.77 52.73 45.36 82.91" id="path473" style="fill:none;stroke:#594330;stroke-width:5.07999992px;stroke-miterlimit:10"/><path class="cls-34" d="M251.44 108.25s5.95-24.18 26.18-33.38c10.22-4.66 19.32-12 30.38-15.67a65.11 65.11 0 0 1 14.46-3" id="path475" style="fill:none;stroke:#594330;stroke-width:5.07999992px;stroke-miterlimit:10"/><circle cx="296.61" cy="95.09" r="46.92" id="circle477" style="fill:none;stroke:#dd660e;stroke-width:5.07999992px;stroke-miterlimit:10"/><path class="cls-36" d="M233.08 110.15s-.21 16.58 8.49 26.49" id="path479" style="fill:none;stroke:#fff;stroke-width:5.0999999px;stroke-miterlimit:10"/><path class="cls-37" d="M344.89 49.79s13.84 11.85 14.76 26" id="path481" style="fill:none;stroke:#efac14;stroke-width:5.0999999px;stroke-miterlimit:10"/><path class="cls-37" d="M350.43 40.55s8.59 3.34 12.62 10" id="path483" style="fill:none;stroke:#efac14;stroke-width:5.0999999px;stroke-miterlimit:10"/><path class="cls-36" d="M228.43 138.15s2.95 5.58 11.24 10.69" id="path485" style="fill:none;stroke:#fff;stroke-width:5.0999999px;stroke-miterlimit:10"/><path class="cls-27" d="M288.65 205.73s1.51-17.08 6.82-25.24" id="path487" style="fill:#594330;stroke:#594330;stroke-width:3.58999991px;stroke-miterlimit:10"/><path class="cls-27" d="M228.67 236.23s2.9 17.89 7.62 20.92l2.55-6.83" id="path489" style="fill:#594330;stroke:#594330;stroke-width:3.58999991px;stroke-miterlimit:10"/><path class="cls-38" d="m58.79 33.89-3.12 1.89-10.1 24.06h-1.82l-10.8-24.06-2.77-1.89h14.34l-3.12 1.89 6.91 15.89 4.7-15.89-4.18-1.89z" id="path491" style="fill:#cc761f"/><path class="cls-38" d="M57.08 307.59c0 4.14-4.35 6.8-10.73 6.8H32.24v-.56h2.84v-22.79l-3.12-1.9h12.66c6.91 0 11 1.9 11 5.79 0 3-2.24 4.95-7.75 5.93 5.49.35 9.21 2.77 9.21 6.73zm-14.31-17.86v10.94h.63c2.84 0 4.13-1.9 4.13-5.47 0-3-.94-5.47-4.2-5.47zm6.2 18c0-4.35-2.28-6.49-5.22-6.49h-1v12.59h.73c3.91 0 5.49-2.03 5.49-6.1z" id="path493" style="fill:#cc761f"/><path class="cls-29" id="line495" style="fill:#ed9b2f;stroke:#cc761f;stroke-width:5.98000002px;stroke-miterlimit:10" d="M233.76 305.95h26.14"/><path class="cls-29" id="line497" style="fill:#ed9b2f;stroke:#cc761f;stroke-width:5.98000002px;stroke-miterlimit:10" d="M233.76 41.87h26.14"/><path class="cls-4" id="polyline499" style="fill:#fff" transform="translate(-349.92 -192.27)" d="m559.16 474.11-5.05 3.75-9.63-32.77"/></svg>