<svg xmlns="http://www.w3.org/2000/svg" id="Layer_1" data-name="Layer 1" version="1.1" width="381.83" height="360.76"><defs id="defs4"><style id="style2">.cls-8,.cls-9{fill:#223266}.cls-2{fill:#c6af6f}.cls-6,.cls-7{fill:#fff}.cls-10,.cls-7,.cls-8,.cls-9{stroke-miterlimit:10}.cls-4{fill:#dd3636}.cls-5{fill:#9e813b}.cls-10,.cls-7{stroke:#fff}.cls-7{stroke-width:1.58px}.cls-8,.cls-9{stroke:#223266;stroke-width:.53px}.cls-10{fill:none;stroke-width:4.6px}</style></defs><path class="cls-2" d="M318.37 52.824a180.38 180.38 0 1 0 52.84 127.56 179.22 179.22 0 0 0-52.84-127.56z" id="path126" style="fill:#c6af6f"/><circle cx="192.56" cy="181.174" r="114.56" id="circle128" style="fill:#223266"/><path class="cls-6" d="M170.99 294.224a115.63 115.63 0 0 0 41-.13l-11.33-178.49-9-12.49-8 13z" id="path130" style="fill:#fff"/><path class="cls-6" id="line132" style="fill:#fff" d="m221.29 193.594-3.78-107.1"/><path class="cls-7" d="m154.13 199.014-10.19 37.79h-4.56l-9.48-34.77-9.48 34.77h-4.68l-10.18-37.79h-5.39v-3.67h15.46v3.67h-5.57l7.94 32.34 9.83-36h4.14l9.84 36 7.93-32.34h-5.57v-3.67h15.32v3.67z" id="path134" style="fill:#fff;stroke:#fff;stroke-width:1.58000004px;stroke-miterlimit:10"/><path class="cls-7" d="M271.23 166.544h5.92v3.67h-16.66v-3.67h6.64v-31.45l-13.15 29.73h-3.89l-13.15-29.73v31.45h6.63v3.67h-16.58v-3.67h5.92v-34.12h-5.92v-3.68h11.25l13.8 30.92 13.86-30.92h11.25v3.67h-5.92z" id="path136" style="fill:#fff;stroke:#fff;stroke-width:1.58000004px;stroke-miterlimit:10"/><path class="cls-4" id="polygon138" style="fill:#dd3636" transform="translate(-86.51 -291.256)" d="M86.51 443.05h45.82l12.64 27.27-12.64 28.3H86.51z"/><path class="cls-6" id="polygon140" style="fill:#fff" transform="translate(-86.51 -291.256)" d="M139.62 482.29H86.51v8.42h49.35z"/><path class="cls-6" id="polygon142" style="fill:#fff" transform="translate(-86.51 -291.256)" d="m144.97 470.32-1.78-3.83H86.51v8.43h56.41z"/><path class="cls-6" id="polygon144" style="fill:#fff" transform="translate(-86.51 -291.256)" d="M135.87 450.69H86.51v8.43h53.26z"/><path class="cls-4" id="polygon146" style="fill:#dd3636" transform="translate(-86.51 -291.256)" d="M468.34 443.05h-45.82l-12.64 27.27 12.64 28.3h45.82z"/><path class="cls-6" id="polygon148" style="fill:#fff" transform="translate(-86.51 -291.256)" d="M415.22 482.29h53.12v8.42h-49.35z"/><path class="cls-6" id="polygon150" style="fill:#fff" transform="translate(-86.51 -291.256)" d="m409.88 470.32 1.78-3.83h56.68v8.43h-56.41z"/><path class="cls-6" id="polygon152" style="fill:#fff" transform="translate(-86.51 -291.256)" d="M418.98 450.69h49.36v8.43h-53.27z"/><path class="cls-8" d="m59.36 104.144 16.13 13.49-1 2.23-19.1-3.22 14.82 12.46-1.06 2.28-20.72-3.55-1.21 2.62-1.8-.82 3.49-7.54 1.79.83-1.25 2.71 17.56 3.43-15.38-12.92.94-2 19.78 3.33-14-11.17-1.26 2.72-1.79-.83 3.46-7.48 1.79.83z" id="path154" style="fill:#223266;stroke:#223266;stroke-width:.52999997px;stroke-miterlimit:10"/><path class="cls-8" d="m99.4 85.114-5.41 6.35-1.5-1.28 2-2.38-4.56-1.71-6.19 7.27 2.42 4.23 2-2.32 1.5 1.28-5.32 6.25-1.5-1.28 1.86-2.18-9.61-17-1.73 2-1.51-1.28 3.9-4.58 20.29 7.49 1.86-2.18zm-22.7-4 5.94 10.36 5.22-6.14z" id="path156" style="fill:#223266;stroke:#223266;stroke-width:.52999997px;stroke-miterlimit:10"/><path class="cls-8" d="M110.18 53.854c-1-1.35-1.85-1.5-3.2-.55l-4.78 3.44c-1.35.95-1.5 1.84-.54 3.19l1.3 1.84c1 1.38 1.89 1.4 3.36.78l5.87-2.39c2.35-1 4.43-1.66 6.36 1.06l1.59 2.24c1.74 2.46 1.4 4.46-1.07 6.2l-5.29 3.75c-2.47 1.75-4.47 1.41-6.21-1.06l-1.31-1.84 1.87-1.33 1.42 2c.95 1.35 1.84 1.51 3.19.55l5.09-3.6c1.35-1 1.5-1.85.55-3.2l-1.55-2.19c-1-1.37-1.88-1.39-3.36-.78l-5.86 2.4c-2.36 1-4.44 1.66-6.37-1.07l-1.34-1.89c-1.75-2.47-1.41-4.46 1.06-6.21l5-3.53c2.46-1.75 4.46-1.41 6.21 1.06l1.17 1.66-1.85 1.29z" id="path158" style="fill:#223266;stroke:#223266;stroke-width:.52999997px;stroke-miterlimit:10"/><path class="cls-8" d="m152.56 51.144 3-1.13.7 1.84-8.09 3.07-.71-1.84 3-1.13-3.08-8.12-10.4 3.91 3.09 8.12 3-1.13.7 1.85-8.09 3.07-.7-1.85 3-1.13-6.5-17.13-2.99 1.2-.7-1.85 8.09-3.07.7 1.85-3 1.12 2.68 7.05 10.35-3.93-2.68-7.05-3 1.13-.7-1.84 8.09-3.07.7 1.84-3 1.13z" id="path160" style="fill:#223266;stroke:#223266;stroke-width:.52999997px;stroke-miterlimit:10"/><path class="cls-8" d="m176.28 46.174 3.41-.47.27 2-9.08 1.26-.27-1.95 3.4-.48-2.52-18.2-3.4.47-.27-1.95 9.07-1.26.27 1.95-3.4.48z" id="path162" style="fill:#223266;stroke:#223266;stroke-width:.52999997px;stroke-miterlimit:10"/><path class="cls-8" d="m215.89 28.164-1.88 20.22-2.18-.21-10-20.19-1.58 17.14 3.55.33-.19 2-8.81-.81.19-2 3.16.3 1.69-18.25-3.16-.3.18-2 5.7.53 9.7 19.56 1.53-16.54-3.55-.33.18-2 8.62.79-.18 2z" id="path164" style="fill:#223266;stroke:#223266;stroke-width:.52999997px;stroke-miterlimit:10"/><path class="cls-8" d="M250.59 40.284c.57-1.55.19-2.37-1.36-2.93l-6.31-2.31c-1.55-.57-2.37-.19-2.93 1.36l-4.64 12.67c-.57 1.55-.19 2.37 1.36 2.94l6.31 2.31c1.55.56 2.37.19 2.94-1.37l1.69-4.63-5.59-2 .73-2 7.7 2.82-2.39 6.54c-1 2.84-2.88 3.69-5.71 2.65l-6.55-2.39c-2.84-1-3.69-2.88-2.65-5.72l4.59-12.54c1-2.84 2.88-3.69 5.72-2.66l6.54 2.4c2.84 1 3.69 2.87 2.65 5.71l-.72 2-2.15-.78z" id="path166" style="fill:#223266;stroke:#223266;stroke-width:.52999997px;stroke-miterlimit:10"/><path class="cls-8" d="m284.49 61.864-1.79-1.21 2.38-3.53-4.88-3.3-10.19 15.08 3.06 2.07-1.1 1.63-8-5.41 1.11-1.64 3.06 2.07 10.19-15.08-4.84-3.3-2.41 3.5-1.79-1.22 3.56-5.27 15.24 10.3z" id="path168" style="fill:#223266;stroke:#223266;stroke-width:.52999997px;stroke-miterlimit:10"/><path class="cls-8" d="M290.11 88.544c-2-2.24-1.92-4.26.32-6.29l9.92-8.95c2.25-2 4.27-1.93 6.3.32l4.71 5.22c2 2.24 1.92 4.27-.32 6.29l-9.93 9c-2.24 2-4.26 1.92-6.29-.32zm1.81-4.54c-1.23 1.1-1.28 2-.17 3.23l4.54 5c1.11 1.23 2 1.28 3.24.17l10-9c1.23-1.11 1.27-2 .16-3.24l-4.54-5c-1.11-1.23-2-1.27-3.23-.17z" id="path170" style="fill:#223266;stroke:#223266;stroke-width:.52999997px;stroke-miterlimit:10"/><path class="cls-8" d="m333.71 117.244-18 9.3-1-1.95 11.63-19.28-15.29 7.89 1.63 3.17-1.75.9-4.06-7.86 1.76-.9 1.46 2.82 16.28-8.4-1.46-2.83 1.76-.9 2.62 5.09-11.26 18.7 14.76-7.62-1.63-3.17 1.75-.9 4 7.69-1.75.91z" id="path172" style="fill:#223266;stroke:#223266;stroke-width:.52999997px;stroke-miterlimit:10"/><path class="cls-9" d="m52 256.324 1.36 2.88-1.79.84-3.81-8.13 1.78-.84 1.52 3.23 15.3-7.18-17.47.39-.88-1.87 11.48-13.18-15.29 7.18 1.51 3.22-1.78.84-3.79-8.07 1.79-.83 1.35 2.88 16.59-7.79-1.38-2.88 1.79-.84 2.57 5.48-11.89 13.77 18.2-.32 2.57 5.47-1.79.84-1.35-2.88z" id="path174" style="fill:#223266;stroke:#223266;stroke-width:.52999997px;stroke-miterlimit:10"/><path class="cls-9" d="M69.96 284.914c-2-2.23-1.94-4.26.3-6.29l9.89-9c2.24-2 4.26-1.94 6.29.3l4.73 5.2c2 2.24 1.94 4.26-.3 6.3l-9.89 9c-2.24 2-4.26 1.94-6.29-.3zm1.79-4.55c-1.22 1.11-1.27 2-.15 3.23l4.56 5c1.11 1.23 2 1.27 3.24.16l10-9.08c1.23-1.11 1.27-2 .15-3.24l-4.55-5c-1.12-1.23-2-1.27-3.24-.16z" id="path176" style="fill:#223266;stroke:#223266;stroke-width:.52999997px;stroke-miterlimit:10"/><path class="cls-9" d="m124.65 303.374-10.67 17.27-1.87-1.15v-22.53l-9 14.64 3 1.88-1 1.67-7.53-4.65 1-1.68 2.71 1.68 9.63-15.6-2.7-1.67 1-1.68 4.88 3v21.84l8.74-14.13-3-1.88 1-1.68 7.37 4.55-1 1.68z" id="path178" style="fill:#223266;stroke:#223266;stroke-width:.52999997px;stroke-miterlimit:10"/><path class="cls-9" d="m163.12 317.364-4 15.32c-.78 2.92-2.53 3.94-5.45 3.17l-6.46-1.71c-2.92-.77-3.94-2.52-3.17-5.44l4.06-15.32-2.83-.75.5-1.91 8.12 2.15-.5 1.91-3.08-.82-4.12 15.38c-.42 1.6 0 2.38 1.63 2.8l6.22 1.65c1.6.42 2.37 0 2.8-1.63l4.07-15.42-3.08-.82.5-1.9 8.12 2.14-.5 1.91z" id="path180" style="fill:#223266;stroke:#223266;stroke-width:.52999997px;stroke-miterlimit:10"/><path class="cls-9" d="m210.17 337.534 3.18-.17.1 2-9 .49-.1-2 3.56-.19-.88-16.92-6.19 16.34-2.06.11-7.93-15.57.92 16.88 3.56-.2.11 2-8.9.49-.11-2 3.18-.18-1-18.3-3.17.17-.11-2 6-.33 8.3 16.19 6.54-17 6-.33.11 2-3.18.17z" id="path182" style="fill:#223266;stroke:#223266;stroke-width:.52999997px;stroke-miterlimit:10"/><path class="cls-9" d="m245.7 309.354-8.88 3.25 2.7 7.35 8.75-3.21.7 1.91-8.75 3.21 2.87 7.88 8.87-3.25-1.27-3.47 2-.75 2 5.38-16 5.88-.68-1.85 3-1.09-6.31-17.21-3 1.09-.67-1.85 16-5.88 2 5.38-2 .74z" id="path184" style="fill:#223266;stroke:#223266;stroke-width:.52999997px;stroke-miterlimit:10"/><path class="cls-9" d="m281.49 287.684 12.07 16.33-1.77 1.31-20.9-8.42 10.24 13.84 2.87-2.12 1.17 1.59-7.11 5.26-1.18-1.59 2.56-1.89-10.9-14.74-2.56 1.89-1.17-1.59 4.61-3.4 20.26 8.13-9.87-13.36-2.87 2.12-1.17-1.59 7-5.14 1.17 1.58z" id="path186" style="fill:#223266;stroke:#223266;stroke-width:.52999997px;stroke-miterlimit:10"/><path class="cls-9" d="m312.32 259.944-1.31 1.72-3.39-2.59-3.57 4.67 14.49 11 2.23-2.93 1.57 1.19-5.85 7.74-1.57-1.2 2.24-2.93-14.48-11-3.57 4.69 3.39 2.58-1.31 1.72-5.07-3.86 11.14-14.63z" id="path188" style="fill:#223266;stroke:#223266;stroke-width:.52999997px;stroke-miterlimit:10"/><path class="cls-9" d="M325.66 228.684c-1.53-.63-2.36-.28-3 1.25l-2.17 5.42c-.63 1.53-.28 2.36 1.25 3l2.09.85c1.56.64 2.34.17 3.25-1.14l3.67-5.17c1.46-2.08 2.85-3.79 5.94-2.52l2.53 1c2.8 1.14 3.58 3 2.44 5.81l-2.46 6c-1.14 2.8-3 3.58-5.81 2.44l-2.09-.86.87-2.12 2.27.93c1.53.63 2.36.28 3-1.25l2.36-5.77c.63-1.54.28-2.36-1.25-3l-2.47-1c-1.56-.64-2.34-.17-3.25 1.14l-3.67 5.17c-1.47 2.08-2.85 3.78-5.94 2.52l-2.15-.88c-2.8-1.15-3.58-3-2.44-5.81l2.31-5.65c1.15-2.8 3-3.58 5.81-2.44l1.89.77-.87 2.12z" id="path190" style="fill:#223266;stroke:#223266;stroke-width:.52999997px;stroke-miterlimit:10"/><circle class="cls-2" cx="170.13" cy="143.034" r="24.98" id="circle192" style="fill:#c6af6f"/><path class="cls-10" id="line194" style="fill:none;stroke:#fff;stroke-width:4.5999999px;stroke-miterlimit:10" d="M182.49 144.414h-23.74"/><path class="cls-10" id="line196" style="fill:none;stroke:#fff;stroke-width:4.5999999px;stroke-miterlimit:10" d="M170.46 117.884v50.1"/><path class="cls-6" d="M189.8 158.404a25 25 0 0 0 .24-30.45c-9.62 10.51-4.26 23.62-.24 30.45z" id="path198" style="fill:#fff"/><path class="cls-5" d="M187.96 125.554c-3.09 4-12.18 18.13-.06 35a25.1 25.1 0 0 0 3-3.71c-8.7-13.09-2.85-23.76 0-27.66a24.73 24.73 0 0 0-2.94-3.63z" id="path200" style="fill:#9e813b"/><path class="cls-5" d="M152.29 125.554c3.09 4 12.18 18.13.06 35a25.1 25.1 0 0 1-3-3.71c8.7-13.09 2.85-23.76 0-27.66a24.73 24.73 0 0 1 2.94-3.63z" id="path202" style="fill:#9e813b"/><path id="line204" style="fill:none;stroke:#9e813b;stroke-width:4.5999999px;stroke-miterlimit:10" d="M156.29 143.874h-11.14"/><path class="cls-6" d="m263.55 231.574-.76-.56q-2.7-2-5.43-4a.65.65 0 0 1-.28-.88c.75-2.27 1.48-4.56 2.21-6.84l.12-.41c-.17 0-.25.09-.34.15-2 1.45-4 2.89-6 4.35a.47.47 0 0 1-.66 0l-6-4.29-.48-.34c.2.62.36 1.14.52 1.65.63 1.94 1.25 3.89 1.89 5.82a.53.53 0 0 1-.23.71c-2 1.45-4 2.91-5.94 4.37-.11.08-.26.12-.32.34h7.85a.47.47 0 0 1 .54.39q1.13 3.51 2.27 7c.05.14.05.31.24.44.38-1.17.76-2.32 1.13-3.47.44-1.33.88-2.66 1.29-4 .09-.31.25-.38.54-.38h7.43c.11.04.26.12.41-.05z" id="path234" style="fill:#fff"/><path class="cls-6" d="m280.9 198.564-.76.56-5.44 4a.65.65 0 0 0-.28.88c.76 2.27 1.48 4.56 2.21 6.84 0 .13.08.27.13.41-.18 0-.26-.08-.35-.15-2-1.45-4-2.89-6-4.35a.47.47 0 0 0-.66 0c-2 1.44-4 2.86-6 4.29l-.47.34.51-1.65c.63-1.94 1.25-3.88 1.89-5.82a.53.53 0 0 0-.22-.71q-3-2.18-5.95-4.37c-.11-.08-.26-.12-.32-.34h7.83a.46.46 0 0 0 .54-.39c.75-2.34 1.51-4.67 2.27-7 .05-.14.05-.31.24-.43.38 1.16.76 2.31 1.13 3.46.44 1.33.88 2.66 1.29 4a.47.47 0 0 0 .55.38h7.42a.53.53 0 0 1 .44.05z" id="path236" style="fill:#fff"/><path class="cls-6" d="m247.9 198.564-.76.56-5.44 4a.65.65 0 0 0-.28.88c.76 2.27 1.48 4.56 2.21 6.84 0 .13.08.27.13.41-.18 0-.26-.08-.35-.15-2-1.45-4-2.89-6-4.35a.47.47 0 0 0-.66 0c-2 1.44-4 2.86-6 4.29l-.47.34.51-1.65c.63-1.94 1.25-3.88 1.89-5.82a.53.53 0 0 0-.22-.71q-3-2.18-5.95-4.37c-.11-.08-.26-.12-.32-.34h7.83a.46.46 0 0 0 .54-.39c.75-2.34 1.51-4.67 2.27-7 .05-.14.05-.31.24-.43.38 1.16.76 2.31 1.13 3.46.44 1.33.88 2.66 1.29 4a.47.47 0 0 0 .55.38h7.42a.53.53 0 0 1 .44.05z" id="path238" style="fill:#fff"/></svg>