<svg xmlns="http://www.w3.org/2000/svg" id="Layer_1" width="406.57" height="306.13" data-name="Layer 1" viewBox="0 0 406.57 306.13"><defs id="defs4"><style id="style2">.cls-1{fill:#f60a00}.cls-2{fill:#cba45a}.cls-3{fill:#fff}.cls-4{fill:#0e1a31}</style></defs><g id="g204" transform="translate(-55.74 -216.06)"><path id="path6" d="M55.74 267.28s67.46-62.17 174.99-11.51l11.91-5.16s-121.73-61.74-186.9 16.66z" class="cls-3"/><path id="path8" d="M158 236.38h-14.72c-70.43 5.71-87.54 30.9-87.54 30.9l7.08 48.25c6.69 45.57 32.57 87.64 73.11 118.24 7.59 5.73 13.06 9.08 14.51 9.95v.23s.06-.04.19-.12c.13.08.2.12.2.12v-.23c1.45-.87 6.91-4.22 14.51-9.95 40.54-30.61 66.42-72.68 73.11-118.24l7.08-48.25s-17.11-25.19-87.54-30.9z" class="cls-4"/><path id="path10" d="M243.83 265.26c-5.77-6.09-27.53-24.16-85.83-28.89h-14.72c-70.43 5.71-87.54 30.9-87.54 30.9l2.32 15.78c17.46-11.41 78.3-44.7 165.74-21.95 7.8 2.03 14.43 3.38 20.03 4.15z" class="cls-2"/><g id="g38"><g id="g16"><path id="path12" d="M143.49 422.18c-7.39-6.44-15.11-8.36-19.05-8.93a3.57 3.57 0 0 1-2.48-1.58c-.47-.73-.66-1.61-.55-2.47-5.96.67-10.67 4.13-13 6.18-.97.86-2.21 1.33-3.5 1.33-1.09 0-2.13-.33-3.01-.96-2.68-1.89-4.89-4.38-6.26-6.12a5.12 5.12 0 0 1-.31-5.87l1.25-2-.08-.08a6.77 6.77 0 0 1-2-4.45l-.12-2.27-3.29.18h-.23c-1.25 0-2.43-.55-3.24-1.51a4.18 4.18 0 0 1-.93-3.41c.77-4.57 2.82-9.62 4.4-13.05.44-.96.25-2.08-.49-2.85l-3.31-3.46a3.79 3.79 0 0 1-.42-4.75c5.73-8.65 10.87-17.18 13.43-21.49 1.22-2.06 1.97-4.32 2.22-6.71l.75-7.07v-.06c.42-2.38 2.47-4.19 4.88-4.3l2.84-.13c5.07-2.6 9.22-3.11 11.25-3.19l9.89-13.28 12.77 13.35c14.23 3.76 17.91 19.13 20.12 28.36.25 1.04.48 2.01.71 2.88 1.93 7.39 11.04 10.42 11.13 10.45l1.62.52-.3 1.67c-.37 2.05-1.19 3.73-2.01 4.99l9.82 1.98c1.4.28 2.45 1.38 2.68 2.79s-.42 2.78-1.66 3.48c-32.78 18.76-40.32 40.72-40.39 40.94l-.92 2.79-2.21-1.92z" class="cls-4"/><path id="path14" d="m132.31 312.9 11.57 12.09c15.1 3.59 17.73 21.43 19.97 29.98s12.42 11.81 12.42 11.81c-.77 4.23-3.72 6.59-3.72 6.59l13.06 2.64c1.31.26 1.6 2.01.44 2.68-33.94 19.42-41.27 42.02-41.27 42.02-7.88-6.87-16.2-8.83-20.05-9.39-.99-.14-1.6-1.13-1.32-2.09.54-1.9-.89-2.04-1.32-2.04h-.11c-6.85.52-12.23 4.44-14.83 6.73-.63.55-1.42.84-2.22.84-.66 0-1.32-.2-1.89-.6-2.51-1.77-4.59-4.13-5.86-5.74-.83-1.05-.9-2.5-.19-3.63l1.58-2.52c.29-.46.22-1.07-.17-1.45l-.53-.52a4.8 4.8 0 0 1-1.42-3.17l-.22-4.22-5.23.28h-.13c-1.39 0-2.49-1.25-2.26-2.64.76-4.48 2.86-9.53 4.25-12.56.78-1.68.43-3.67-.85-5.01l-3.31-3.46c-.61-.63-.69-1.6-.21-2.33 5.69-8.58 10.77-17 13.48-21.58a18.4 18.4 0 0 0 2.48-7.49l.75-7.01a3.23 3.23 0 0 1 3.04-2.68l3.27-.15c5.56-2.94 10.02-3.18 11.32-3.18h.39l9.09-12.21m-.37-6.01-2.75 3.69-7.97 10.71c-2.34.2-6.19.9-10.73 3.15l-2.42.11c-3.32.15-6.13 2.64-6.7 5.91l-.02.12v.12l-.76 7.01c-.22 2.11-.89 4.1-1.96 5.92-2.55 4.3-7.67 12.8-13.38 21.41a5.73 5.73 0 0 0 .64 7.17l3.31 3.46c.18.19.23.47.12.69-1.63 3.54-3.74 8.76-4.56 13.54-.3 1.78.2 3.6 1.37 4.99 1.18 1.4 2.9 2.2 4.73 2.2h.34l1.34-.07.02.33c.09 1.67.65 3.27 1.62 4.61l-.49.78a7.06 7.06 0 0 0 .43 8.11c1.46 1.85 3.8 4.48 6.67 6.51 1.22.86 2.65 1.31 4.14 1.31 1.76 0 3.47-.64 4.79-1.81 1.89-1.67 5.48-4.34 10.02-5.38a5.51 5.51 0 0 0 4.44 3.72c3.73.54 11.04 2.35 18.05 8.47l4.44 3.87 1.82-5.6s1.84-5.4 7.59-12.95c5.32-6.98 15.17-17.32 31.92-26.9a5.28 5.28 0 0 0 2.61-5.48 5.32 5.32 0 0 0-4.22-4.39l-7.25-1.46c.41-.97.76-2.05.98-3.26l.61-3.36-3.25-1.04c-.07-.02-8.18-2.76-9.84-9.09-.22-.86-.45-1.81-.7-2.84-2.29-9.55-6.08-25.36-20.98-29.64l-10.81-11.3-3.18-3.33z" class="cls-2"/></g><path id="path18" d="M104.57 406.36c-.17-.14-.34-.29-.53-.45a2.325 2.325 0 0 1-.2-3.31l1.49-1.66c.42-.46.4-1.17-.03-1.62l-2.31-2.41c-.45-.47-.17-1.26.48-1.33.81-.09 1.83-.19 2.82-.24.59-.03.78-.81.27-1.11-.73-.42-1.69-.82-2.79-.84-2.43-.05-3.01-1.28-2.37-2.48l1.85-1.17c1.85-1.17.67-3.02.1-4.25-.58-1.23-1.27 2.4-1.27 2.4l-6.94.38a.583.583 0 0 1-.56-.82l5.45-11.8a.995.995 0 0 1 1.57-.32c.6.55 1.38 1.39 2.18 2.6.22.33.6.5.99.47.73-.06 1.91-.19 2.82-.42.37-.1.5-.57.23-.84-.59-.61-.37-1.63.42-1.95l6.93-2.79-2.04-1.78a3.52 3.52 0 0 0-3.45-.68l-9.7 3.33-.85-1.19c-.47-.66-.19-1.58.57-1.86 2.38-.87 7.33-2.43 12.55-2.75 7.29-.44 10.88 2.07 12.03 5.13 1.06 2.84-3.66 7.64-8.78 11.13-.74.5-1.17 1.33-1.16 2.22.02 2.34-.12 7.02-1.51 10.07l5.65-5.41c.14-.13.37.01.3.19l-2.64 7.74a8.33 8.33 0 0 1-3.67 4.5c-1.73 1.01-3.92 2.34-5.39 3.4-.76.55-1.8.51-2.52-.09z" class="cls-3"/><path id="path20" d="M142.55 384.24s2.67 16.45 4.36 21.95l6.27-8.97-10.64-12.99z" class="cls-2"/><path id="path22" d="m152.38 378.99.96 4.23c.71 3.16 2.55 5.95 5.17 7.86l.27.2s4.38-5.97 11.72-8.24l-6.58-4.4s-9.14 1.62-11.54.35" class="cls-2"/><path id="path24" d="M119.75 399.51s2.69-.61 4.82-.9a3.52 3.52 0 0 0 2.74-2.1c2.16-5.01 7.79-18.7 9.51-28.58 0 0-3.58-.9-5.98-2.17 0 0-3.44 18.14-11.08 33.75z" class="cls-3"/><path id="path26" d="M95.96 367.01s13.13-6.59 28.25-3.83l1.27-2.4s-11.22-3.89-24.77-.56c0 0-3.12 4.6-4.75 6.78z" class="cls-2"/><path id="path28" d="M103.13 355.43s14-1.51 23.02 2.34c0 0 1.38-7.25 7.54-11.37l3.86-2.57c1.38-.92 1.83-2.74 1.03-4.18-.63-1.13-1.43-2.33-2.24-2.9 0 0 9.75-1.6 13.81 6.99 0 0 4.17 15.68 6.66 20.39 0 0 1.91 3.47 4.92 4.75 0 0-4.37 2.13-16.67-2.21a1.88 1.88 0 0 0-2.38 1.08l-.5 1.3s15.81 7.03 25.64.57c0 0-6.04-2.56-11.27-13l-3.95-13.44s-2.2-10.37-13.12-10.61l-12.14.88c-.39.03-.77-.15-.99-.47a2.27 2.27 0 0 0-2.5-.86l-10.49 3.13a2.36 2.36 0 0 0-1.66 2.61c.27 1.78.63 4.45.73 6.86.03.65-.77.99-1.22.52l-.55-.58c-.58-.6-1.57-.46-1.96.27l-5.55 10.5z" class="cls-2"/><path id="path30" d="M132.71 362.77s-.47-6.08 5.66-8.98c0 0 1.67 3.36-1.48 10.13 0 0 3.65 1.46 4.99-3.98s-2.21-9.76-2.14-12.8c0 0-3.1 2.97-5.57 4.73-2.47 1.77-6.24 7.75-1.46 10.89z" class="cls-3"/><path id="path32" d="M126.32 332.98a2.27 2.27 0 0 0-2.5-.86l-10.49 3.13a2.36 2.36 0 0 0-1.66 2.61c.27 1.78.63 4.45.73 6.86.03.65-.77.99-1.22.52l-.55-.58c-.58-.6-1.57-.46-1.96.27l-3.57 6.76c4.19-.3 9.76-.24 15.69 1.08 0 0-3.56-10.04 6.52-19.32-.39.03-.77-.15-.99-.47" class="cls-3"/><path id="path34" d="M124.29 372.6c-1.15-3.06-4.73-5.57-12.03-5.13-.84.05-1.68.14-2.49.25l3.19 2.76c.06.05.13.09.18.14l2.04 1.78s4.8-1.77 5.81.13c1 1.9-7.69 7.93-10.1 9.79 0 0 1.35 6.84-.93 14.72 0 0 1.05.49 3.22-1.9 1.07-3.01 1.19-7.07 1.17-9.19 0-.89.43-1.72 1.16-2.22 5.11-3.49 9.84-8.29 8.78-11.13" class="cls-2"/><path id="polygon36" d="M139.31 328.9h-10l3.64-6z" class="cls-2"/></g><g id="g130"><g id="g44"><path id="path40" d="M204.75 409.53c-.08-.08-8.98-8.31-28.6-12.53l-2.82-.6 12.9-19.1c.42-.62.53-1.41.23-2.1s-.89-1.14-1.62-1.25l-11.22-1.74 1.79-2.56c.04-.06 4.95-7.48 2.31-21.99-.39-2.12-1.1-4.6-1.85-7.22-2.41-8.4-5.42-18.86-1.79-29.88 4.15-12.6 15.99-22.88 36.16-31.42.04-3.3 1.02-11.54 8.89-20.41 7.4-8.35 18.9-15.04 34.19-19.88 19.53-6.19 45.25-9.33 76.42-9.33 1.28 0 2.55 0 3.85.02l126.05-11.26-.81 2.74c-.21.72-5.13 17-18.24 26.5l7.29 7.29-.81 1.31c-.3.49-7.35 11.61-24 19.37l5.2 6.1-1.57 1.25c-.61.49-14.12 11.23-25.5 15.31l3.33 5.23-1.56 1.06c-.57.39-13.06 8.81-23.45 11.77l1.73 3.46-1.29.98c-.45.34-10.52 7.9-20.54 10.84l1 2.92-1.39.8c-.4.23-9.38 5.39-20.28 8.63l.44 2.65-1.01.7c-.28.2-6.88 4.69-18.98 7.4-1.11 3.01-5.23 10.06-19.79 12.14-.51 2.25-1.92 6.43-5.77 9.41-.63 1.94-2.83 7.19-8.83 10.58-.46 2.02-2.14 6.02-8.33 8.69-1.4 2.06-6.62 8.35-19.01 9.3-3.15.2-11.98 1.44-15.24 4.77l-.96.98-14.22-6.57a9.4 9.4 0 0 0-3.9-.86c-.28 0-.57.01-.85.04l-4 .37c-.4.04-.81.06-1.21.06-1.35 0-2.68-.21-3.97-.61l-5.9-1.86-.37 1.29 1.14 5.41c.39 1.87-1.86 3.13-3.25 1.81z" class="cls-4"/><path id="path42" d="m460.7 221.54 1.61-5.48-5.69.51-123.11 11c-1.28 0-2.51-.01-3.75-.01h-.02c-31.38 0-57.29 3.17-77.01 9.43-15.62 4.95-27.42 11.83-35.05 20.45-7.37 8.31-9.01 16.22-9.31 20.39-20.04 8.68-31.87 19.2-36.13 32.12-3.82 11.59-.73 22.36 1.76 31.02.74 2.58 1.44 5.01 1.81 7.04 1.3 7.13.68 12.35-.08 15.48-.76 3.16-1.8 4.87-1.93 5.07l-3.8 5.15 6.41.91 8.14 1.26s.1.02.14.1c.04.09.01.13-.02.17l-10.84 15.26 8.77-5.23 5.3-7.85c1.67-2.47.2-5.84-2.75-6.3l-8.14-1.26s5.48-7.82 2.63-23.46c-2.85-15.63-21.15-44.71 32.6-66.9 0 0-5.92-48.96 117.5-48.96 1.3 0 2.6 0 3.93.02l123.3-11.02s-5.25 17.84-19.41 26.76l7.87 7.87s-7.49 12.07-25.52 19.67l5.58 6.56s-15.74 12.59-27.28 15.74l3.67 5.77s-14.69 9.97-25.18 12.07l2.1 4.2s-11.51 8.7-21.89 11.04l1.16 3.39s-9.97 5.77-21.51 8.92l.52 3.15s-6.82 4.72-19.41 7.35c0 0-1.55 9.95-19.92 12.06 0 0-.54 6.31-5.78 9.98 0 0-1.57 6.82-8.92 10.49 0 0 0 5.25-7.87 8.39 0 0-4.2 7.87-17.84 8.92 0 0-11.98.74-16.48 5.36l-12.97-5.99c-1.48-.68-3.09-1.04-4.71-1.04-.34 0-.69.02-1.03.05l-4 .37c-.34.03-.69.05-1.03.05-1.15 0-2.29-.18-3.38-.52l-7.81-2.47-1.05 3.67 1.24 5.88s-8.47-8.08-27.62-12.59l5.08 5.93c18.33 4.06 19.58 9.23 19.87 9.49l1.99 1.94c2.15 2.09 5.7.13 5.08-2.8l-.59-2.76-.77-3.65 3.41 1.08c1.48.47 3.01.7 4.56.7.46 0 .93-.02 1.39-.06l4-.37a7.3 7.3 0 0 1 3.75.65l12.97 5.99 2.5 1.15 1.92-1.97c2.37-2.43 9.58-3.91 13.94-4.19h.06c7.99-.61 13.16-3.41 16.1-5.64 2.01-1.53 3.3-3.02 4.05-4.05 4.33-2 6.54-4.62 7.65-6.55.51-.89.85-1.72 1.07-2.44 5.51-3.39 7.89-8.25 8.79-10.67 3.33-2.77 4.92-6.33 5.68-8.86 7.17-1.21 12.68-3.75 16.42-7.58 1.64-1.68 2.64-3.32 3.24-4.63 11.85-2.81 18.38-7.27 18.67-7.47l2.03-1.41-.37-2.19c10.37-3.31 18.67-8.08 19.06-8.3l2.77-1.6-.88-2.55c9.69-3.37 18.79-10.2 19.23-10.53l2.58-1.95-1.44-2.87c10.17-3.49 21.24-10.96 21.78-11.32l3.13-2.12-2.03-3.19-1.05-1.64c11.15-4.67 23.22-14.27 23.8-14.74l3.13-2.51-2.6-3.06-2.27-2.67c15.54-7.92 22.25-18.5 22.55-18.99l1.63-2.62-2.18-2.18-4.64-4.64c12.3-10 16.95-25.43 17.16-26.14z" class="cls-2"/></g><path id="path46" d="m186.24 390.96 11.02 4.2s7.61-15.9 19.55-29.2c11.93-13.3 16.66-33.24 12.46-62.09-4.2-28.86 13.64-50.37 91.82-56.66l5.25-8.92s-38.3 1.57-56.14 6.82-52.47 8.39-51.94 56.14c.52 47.74-2.62 44.07-32 89.72z" class="cls-2"/><path id="path48" d="M326.32 238.28s-38.3 1.57-56.14 6.82-52.47 8.39-51.94 56.14-2.62 44.07-32 89.72l6.4 2.44c4.66-8.01 12.84-21.67 22.38-35.75 0 0 13.03-11.8 8.78-51.94-4.19-39.59 26.49-60.57 99.49-62.26l3.04-5.16z" class="cls-3"/><path id="path50" d="m251.03 274.75 53.18-10.54c2.91-.58 5.5-2.24 7.24-4.64l1.78-2.45c.45-.63-.1-1.49-.86-1.33l-35.1 7.42s-18.36 3.15-26.23 11.54z" class="cls-2"/><path id="path52" d="m307.2 267.21-59.88 12.66c-2.59 3.33-4.23 6.67-5.22 10.11l53.95-12.52c4.39-1.02 8.26-3.63 10.8-7.35.43-.62.82-1.23 1.15-1.79s-.17-1.24-.8-1.11" class="cls-2"/><path id="path54" d="m300.54 280.44-59.32 13.61c-.4 2.65-.51 5.38-.46 8.23l48.06-10.53c4.41-.97 8.34-3.49 10.99-7.15.64-.89 1.26-1.83 1.78-2.79.39-.72-.26-1.56-1.05-1.37" class="cls-2"/><path id="path56" d="m291.5 295.19-50.65 9.94c.11 2.26.28 4.6.47 7.04l38.25-6.93c3.95-.72 7.55-2.74 10.21-5.74l2.55-2.87c.56-.63 0-1.61-.83-1.45z" class="cls-2"/><path id="path58" d="m284.67 307.76-43.08 8.09c.13 1.87.25 3.8.33 5.79l30.87-4.06c4.23-.56 8.09-2.68 10.82-5.96l1.95-2.35c.56-.68-.03-1.69-.89-1.52z" class="cls-2"/><path id="path60" d="m276.87 320.2-34.89 4.58c-.01 1.81-.11 3.6-.28 5.35l23.8-2.08c3.88-.34 7.52-2.01 10.31-4.72l1.75-1.7c.58-.56.11-1.53-.69-1.43" class="cls-2"/><path id="path62" d="m269.67 331.53-28.38 1.83c-.25 1.66-.56 3.29-.92 4.87h19.82c3.49 0 6.8-1.53 9.06-4.19l1.06-1.24c.44-.52.04-1.32-.64-1.27" class="cls-2"/><path id="path64" d="m264.24 341.87-24.67-.45c-.45 1.65-.95 3.25-1.48 4.77l15.96 1.09c3.77.26 7.47-1.04 10.25-3.59l.46-.42c.53-.49.2-1.38-.53-1.39z" class="cls-2"/><path id="path66" d="m259 351.19-22.11-1.77a77 77 0 0 1-1.9 4.43l13.87 1.98c3.4.49 6.85-.42 9.57-2.51l.98-.75c.56-.43.3-1.33-.41-1.38" class="cls-2"/><path id="path68" d="m252.48 359.89-18.85-3.21a77 77 0 0 1-2.9 5.23l12.82 2.3c2.78.5 5.63-.12 7.95-1.73l1.34-.93c.68-.47.44-1.53-.37-1.66z" class="cls-2"/><path id="path70" d="m246.93 368.77-18.16-3.79c-1.06 1.69-2.14 3.37-3.22 5.03l10.75 2.48c3.4.79 6.97.25 9.99-1.49l.91-.53c.74-.43.56-1.54-.27-1.71z" class="cls-2"/><path id="path72" d="m239.49 376.59-15.9-3.58c-1.2 1.82-2.38 3.59-3.53 5.29l11.46 2.62c2.39.55 4.9.01 6.86-1.46l1.48-1.11c.68-.51.45-1.58-.38-1.77z" class="cls-2"/><path id="path74" d="m231.83 384.53-13.25-4.05c-1.26 1.86-2.46 3.6-3.57 5.19l9.06 2.65c2.29.67 4.75.29 6.73-1.03l1.3-.87c.75-.5.58-1.64-.28-1.9z" class="cls-2"/><path id="path76" d="m224.6 392.13-11.39-3.86c-1.33 1.9-2.45 3.48-3.27 4.64l4.63 1.54c2.88.96 6 .84 8.8-.32l1.28-.54c.67-.28.63-1.24-.05-1.47z" class="cls-2"/><path id="path78" d="M186.24 366.88s8.13-10.81 5.25-29.96 5.68-30.98 18.45-36.09c0 0-1.92-7.2 1.22-11.92 0 0-20.26 7.75-27.45 21.45-7.18 13.7 6.98 27.98 2.52 56.52z" class="cls-2"/><path id="path80" d="M333.32 238.28s-1.47 4.3-2.52 5.87l80.11-3.57-83.8 8.97s-3.15 3.67-7.35 5.25l92.3-5.8c6.22-.39 12.29-2.1 17.75-5.1 6.5-3.57 14.13-8.98 15.87-15.34l-112.36 9.71z" class="cls-2"/><path id="path82" d="m317.67 259.01 98.15-5.06c2.41-.12 4.79-.59 7.06-1.4l5.49-1.94 6.91 5.16s-9.84 11.7-28.93 15.26c-2.11.39-4.26.57-6.41.57H313.4l1.61-4.41 81.89-3.98-81.23.28 2.01-4.48z" class="cls-2"/><path id="path84" d="m239.49 386.5-3.67 4.2 22.89 5.25c2.51.58 5.19.26 7.41-1.06a8.2 8.2 0 0 0 2.25-1.94l-28.88-6.44z" class="cls-3"/><path id="path86" d="m227.95 397 2.78-3.55 19.25 5.53-5.91 1.33c-3.32.75-6.79.46-9.95-.82l-6.17-2.5z" class="cls-3"/><path id="path88" d="m406.22 275.54-54.45.79-39.61-.79-2.3 4.03 64.48 5.1-66.4-1.74-2.08 3.63 76.86 6.05s18.67-1.55 31.76-12.19l-8.27-4.87z" class="cls-2"/><path id="path90" d="M382.73 296.9s-39.11-2.86-78.45-5.56l-3.15 4.03 51.17 6.13-53.14-3.61-2.21 2.82 61.96 8.45c6.49.89 13.11.39 19.35-1.6 4.47-1.43 9.38-3.59 13.2-6.81z" class="cls-2"/><path id="path92" d="m364.63 314.29-70.05-8.58-2.35 3.46 44.85 7.56-46.84-4.63-1.77 2.61 55.09 9.4c4.96.85 10.06.52 14.83-1.09 3.95-1.33 8.29-3.36 10.72-6.28l-4.47-2.44z" class="cls-2"/><path id="path94" d="m345.47 327.74-60.34-8.39-1.88 2.66 38.52 8.12-41.1-4.46-1.84 2.6 46.49 8.29c4.36.78 8.85.46 13.06-.92 3.97-1.3 8.74-2.94 11.24-4.1l-4.15-3.79z" class="cls-2"/><path id="path96" d="m277.29 331.53-2.03 3.31 30.86 7.59-33.01-4.1-1.89 3.09 37.45 6.55c3.4.6 6.9.25 10.13-.97 2.97-1.13 6.71-2.77 9.98-4.91z" class="cls-2"/><path id="path98" d="m269.92 345.05-2.53 3.59 25.16 5.7-26.94-3.17-1.92 2.73 26.34 5.49c5.35 1.12 10.96.42 15.78-2.15 2.25-1.2 4.46-2.72 6.05-4.56l-41.93-7.64z" class="cls-2"/><path id="path100" d="m262.05 357.65-2.02 2.7 18.81 5.05-20.65-2.59-1.18 1.58 23.45 5.07c3.25.7 6.66-.15 9.15-2.37.81-.72 1.7-1.61 2.65-2.7l-30.2-6.74z" class="cls-2"/><path id="path102" d="m246.31 378.11-.93 1.19 18.77 5.63-20.42-3.5-1.09 1.4 24.28 5.59c3.79.87 7.81-.22 10.48-3.05.13-.14.27-.29.4-.44l-31.48-6.82z" class="cls-2"/><path id="path104" d="m254.18 368.14-1.28 1.92 19.39 5.25-20.75-3.22-1.57 2.35 25.44 5.33c2.73.57 5.6-.04 7.81-1.75 1.2-.92 2.46-2.14 3.52-3.71l-32.57-6.17z" class="cls-2"/><path id="path106" d="M183.71 310.37c-3.2 6.11-2.16 12.33-.42 19.87-.94-6.36-.2-22.27 26.08-35.09.08-2.06.53-4.34 1.79-6.23 0 0-20.26 7.75-27.45 21.45" class="cls-3"/><path id="path108" d="M436.53 239.7c4.28-3.12 8.01-6.91 9.16-11.12l-112.36 9.71s-1.47 4.3-2.52 5.87l80.11-3.57-2.89.31z" class="cls-3"/><path id="path110" d="M427.21 262.59c5.35-3.58 8.07-6.81 8.07-6.81l-6.91-5.16-5.49 1.94c-2.27.8-4.65 1.27-7.06 1.4l-98.15 5.06-2.01 4.48 81.23-.28-4.28.21 34.6-.83z" class="cls-3"/><path id="path112" d="M404.32 286.66c3.49-1.62 6.99-3.67 10.17-6.25l-8.27-4.87-54.45.79-39.61-.79-2.3 4.03 64.48 5.1-2.52-.07 32.49 2.06z" class="cls-3"/><path id="path114" d="m391.46 300.76-8.73-3.85s-39.11-2.86-78.45-5.56l-3.15 4.03 83.23 9.82c2.53-1.19 4.98-2.65 7.1-4.44" class="cls-3"/><path id="path116" d="M363.46 320.91c2.22-1.13 4.25-2.51 5.64-4.19l-4.47-2.44-70.05-8.58-2.35 3.46 44.85 7.56-2.99-.3 29.38 4.48z" class="cls-3"/><path id="path118" d="M341.18 334.7c3.23-1.09 6.51-2.27 8.44-3.17l-4.15-3.79-60.34-8.39-1.88 2.66 38.52 8.12-.06-.02z" class="cls-3"/><path id="path120" d="M320.76 346.22c2.56-1.06 5.44-2.44 8.03-4.13l-51.49-10.56-2.03 3.31 30.86 7.59h.03l14.61 3.79z" class="cls-3"/><path id="path122" d="m305.09 357.62.72-.36c2.25-1.2 4.46-2.72 6.05-4.56l-41.93-7.64-2.53 3.59 25.16 5.7-.02.08 12.56 3.19z" class="cls-3"/><path id="path124" d="m260.03 360.34 18.81 5.05-1.86-.23 11.37 2.88c.44-.28.86-.6 1.25-.95.81-.72 1.7-1.61 2.65-2.7l-30.2-6.74-2.02 2.7z" class="cls-3"/><path id="path126" d="m253.06 369.83 10.3 3.06 8.94 2.42-1.66-.26 11.82 3.51c.27-.17.53-.34.78-.54 1.2-.92 2.45-2.14 3.52-3.71l-32.57-6.17-1.12 1.69z" class="cls-3"/><path id="path128" d="M273.28 388.06c1.54-.56 2.96-1.46 4.12-2.69.13-.14.27-.29.4-.44l-31.48-6.82-.93 1.19 18.77 5.63-2.71-.47 11.84 3.6z" class="cls-3"/></g><path id="path132" d="m109.77 409.78 5.36 6.04 17.02 3.32 15.12 9.57s-1.06-10.14 3.75-19.42l-11.34 1.19-19.38-6.26-10.52 4.09" class="cls-4"/><g id="g160"><path id="path134" d="m217.16 465.38-9.18 5.81-15.53-7.49.74-32.06-6.82-5.06 10.26-7.16 7.76 5.87-.74 31.86 10.06 5.06.47-30.58-6.75-5.06 10.33-7.02 7.63 5.87-.47 31.73 9.79 5.06.54-30.58-6.75-5.06 10.4-7.02 7.63 5.87-.68 34.63-16.81 11.14z" class="cls-4"/><path id="path136" d="m246.66 439.19 10.53-5.67 6.08 4.93-.54 23.09 6.21 3.44-10.94 5.94-5.6-4.32.54-23.9zm10.19-8.98-6.45-5.91 7.7-8.51 6.79 6.05-8.04 8.38z" class="cls-4"/><path id="path138" d="m280.95 442.09-.14 19.58 4.93 3.85-9.79 5.4-5.47-4.19.14-22.82-6.21-4.73 10.53-5.67 6.14 5.27 9.52-5.27 8.03 5.13-.41 23.02 6.08 3.31-10.87 5.94-5.54-4.19.41-21.53-7.36-3.11z" class="cls-4"/><path id="path140" d="m304.3 464.57.54-22.21 17.15-9.65 10.67 5.87-.47 20.25 2.23 14.85-16.54 9.86-14.92-9.45 8.78-5.27-7.43-4.25zm10.67-24.1-.34 19.64 7.56 2.63.07-19.31-7.29-2.97zm-.07 29.43 9.25 6.28-2.09-10.4z" class="cls-4"/><path id="path142" d="m354.32 433.32 9.45 7.7-.14 7.09-15.19 4.05-.14 6.82 15.32 6.55-13.64 6.01-12.22-6.55.74-23.29 15.8-8.37zm-5.8 14.38 6.41-2.84-6.35-5-.07 7.83z" class="cls-4"/><path id="path144" d="m378.42 471.53-11.34-6.35.34-21.94 7.9-5.06-13.7-10.94 9.05-5.74 24.17 19.85v22.41l-16.4 7.76zm6.21-7.16.2-18.77-7.43-5.6-.47 20.59z" class="cls-4"/><path id="path146" d="m188.99 499.58-.13 11.2 7.86 3.67-11.79 7.66-7.53-4.93.67-34.38-7.13-5 10.6-7.06 8.13 5.93-.2 15.93h14.59l.13-10.26-7.6-5.2 11.39-6.06 7.6 6.2-.53 34.05 7.13 4.06-10.8 6.8-8-5.33.27-17.26h-14.66z" class="cls-4"/><path id="path148" d="m241.83 513.64.2-20.39-5-3.33 9.73-5.26 5.46 4.46-.2 22.66 5.73 3.93-9.2 5.8-6.86-4.6-9 4.6-8.4-5.2.53-23.06-6.46-3.33 11.06-5.26 5.6 4.46-.53 21.72 7.33 2.8z" class="cls-4"/><path id="path150" d="m258.22 504.18.07-11.73 13.33-8.6 10.46 5-5.8 5.26-8.46-3.86-.07 7.26 12.19 4.06-.13 12.26-13.79 7.73-10.4-5.2 6.86-5.6 7.93 4.2.13-6.73-12.33-4.06z" class="cls-4"/><path id="path152" d="m285.01 504.18.07-11.73 13.33-8.6 10.46 5-5.8 5.26-8.46-3.86-.07 7.26 12.19 4.06-.13 12.26-13.79 7.73-10.4-5.2 6.86-5.6 7.93 4.2.13-6.73-12.33-4.06z" class="cls-4"/><path id="path154" d="m311.26 491.72 15.66-7.66 10.53 5.06-.67 21.79 6.8 5.73-11.46 5.2-4.93-5.93-8.2 5.66-7.86-5.33v-8.33l5.66-2.07-5.53-14.13zm8.26 13.33 7.73-2.6.2-8.46-8.2-2.4zm7.73 1.86-7.26 2.6 7.13 3.73z" class="cls-4"/><path id="path156" d="m356.3 493.05-.27 19.06 6.53 4.46-11.33 5-5.4-4.46.13-23.26-6.13-3.6 10.4-5.6 6.13 5.13 6.26-5.26 8.53 4.8-7 7.8-7.86-4.06z" class="cls-4"/><path id="path158" d="m371.16 504.18.07-11.73 13.33-8.6 10.46 5-5.8 5.26-8.46-3.86-.07 7.26 12.19 4.06-.13 12.26-13.79 7.73-10.4-5.2 6.86-5.6 7.93 4.2.13-6.73-12.33-4.06z" class="cls-4"/></g><path id="polygon162" d="M188.19 413.14h207.8v-6.17H194.67z" class="cls-2"/><path id="polygon164" d="M191.99 382.32h204v-6.16H195.88z" class="cls-2"/><path id="rect166" d="M190.69 381.35h205.3v26.92h-205.3z" class="cls-4"/><g id="g180"><path id="path168" d="m231.82 399.83-2.26 1.43-3.82-1.84.18-7.89-1.68-1.25 2.53-1.76 1.91 1.45-.18 7.84 2.48 1.25.12-7.53-1.66-1.25 2.54-1.73 1.88 1.45-.12 7.81 2.41 1.25.13-7.53-1.66-1.25 2.56-1.73 1.88 1.45-.17 8.52-4.14 2.74-2.92-1.43z" class="cls-2"/><path id="path170" d="m257.13 388.5 4.97 1.55-.13 8.71 1.79.9-2.71 1.69-1.99-1.21.05-3.66h-3.04l-1.4 2.36 2.49.68-2.24 1.88-2.66-1.26 5.88-9.12-3.62-.91 2.61-1.6zm-.34 6.69h2.38l.1-3.81z" class="cls-2"/><path id="path172" d="m284.54 401.31-2.73-5.3-1.36-.37-.03 2.86 1.96 1.08-2.94 1.74-1.88-1.4.13-8.41-1.99-1.28 2.79-1.6 2.01 1.23 2.24-1.35 3.01 1.01-.08 3.44-1.83 1.23 3.46 5.68-2.76 1.41zm-1.66-7.31.03-2.56-2.29-.58-.08 3.62 1.35-.81 1 .33z" class="cls-2"/><path id="path174" d="m300.91 394.73.03-3.09 4.17-3.19 3.37.91-1.84 2.16-2.86-.88-.03 2.03 4.45 1.88-.02 3.84-4.35 2.77-3.61-1.06 2.28-1.94 2.86.95.03-2.48-4.49-1.89z" class="cls-2"/><path id="path176" d="m326.25 388.5 4.97 1.55-.13 8.71 1.79.9-2.71 1.69-1.99-1.21.05-3.66h-3.04l-1.4 2.36 2.49.68-2.24 1.88-2.66-1.26 5.88-9.12-3.62-.91 2.61-1.6zm-.34 6.69h2.38l.1-3.81z" class="cls-2"/><path id="path178" d="m352.86 399.83-2.26 1.43-3.82-1.84.18-7.89-1.68-1.25 2.53-1.76 1.91 1.45-.18 7.84 2.48 1.25.12-7.53-1.66-1.25 2.54-1.73 1.88 1.45-.12 7.81 2.41 1.25.13-7.53-1.66-1.25 2.56-1.73 1.88 1.45-.17 8.52-4.14 2.74-2.92-1.43z" class="cls-2"/></g><path id="polyline182" d="m197.57 386.5-8.03-5.15-17.14 17.31 6.94 7.34h16.1" class="cls-4"/><g id="g188"><path id="rect184" d="M202.04 391.73h11.51v3.54h-11.51z" class="cls-3"/><path id="rect186" d="M202.04 394.68h11.51v3.54h-11.51z" class="cls-1"/></g><g id="g194"><path id="rect190" d="M373.45 391.73h11.51v3.54h-11.51z" class="cls-3"/><path id="rect192" d="M373.45 394.68h11.51v3.54h-11.51z" class="cls-1"/></g><path id="path196" d="M88.2 344.28c-6.16-10.76-13.9-28.6-20.1-56.86 0 0 3.89 40.26 15.66 63.77l4.45-6.91z" class="cls-1"/><path id="path198" d="m93.41 332.98.96-10.22c-5.02-9.18-10.73-22.83-15.46-42.59 0 0 3.54 33.58 14.23 53.19l.26-.37z" class="cls-1"/><path id="path200" d="M98.8 299.35c-2.52-6.36-5.08-14.46-7.33-24.7 0 0 2.49 25.8 10.03 40.87h5.83l-8.54-16.16z" class="cls-1"/><path id="path202" d="M150.84 443.95s26-11.91 46.74-33.48l-9.39 2.67s-23.83 23.86-37.35 30.81" class="cls-2"/></g></svg>