<svg xmlns="http://www.w3.org/2000/svg" viewBox="0 0 357.588 347.967" overflow="visible"><g clip-rule="evenodd" fill-rule="evenodd"><path d="M.732 173.92c0 96.05 79.885 173.92 178.43 173.92s178.43-77.865 178.43-173.92S277.702 0 179.162 0 .732 77.865.732 173.92z" fill="#E3DCDA"/><path d="M91.866 92.212c-.471-.27-2.492-.404-3.974-.673-1.684-.606-3.772-1.347-5.456-1.954-1.886-.673-3.57-1.548-5.322-1.616-1.818-.27-3.771.471-5.32.134-1.684-.472-2.963-2.156-4.647-2.425-1.953-.606-4.513 0-6.399-.27-1.818-.404-3.502-1.011-4.782-1.011-1.348-.134-1.953.809-3.368 1.011-1.684 0-4.512-.741-6.129-.404-1.684.134-2.694.54-4.108 1.212-1.684.404-4.917.943-5.321 1.348-.404.336 1.146.134 2.56.134 1.28-.472 2.829-1.347 4.647-1.616 1.28-.202 2.83-.068 4.647.134 1.954-.067 4.918-.067 6.534 0 1.145-.202.337-.471 1.212-.539.673-.068 1.819.203 3.435.539 1.482.068 4.042 0 6.129.54 2.021.336 3.975 2.155 5.861 2.56 1.616.268 2.828-.607 4.647-.27 1.617.134 3.906 1.481 5.59 1.953 1.482.404 2.896.472 4.243.943 1.212.337 2.426.875 3.369 1.078.807-.203 2.154-.472 1.952-.808zM28.012 94.502c-.067-.135-2.627 2.02-3.772 3.569-1.212.943-2.021 2.156-3.165 3.638-1.416 1.548-3.234 3.839-4.379 5.321-1.078 1.348-2.761 3.099-2.156 2.896.27-.472 3.032-3.234 4.647-4.917 1.55-1.752 2.762-3.435 4.379-5.052 1.347-1.886 4.311-5.186 4.446-5.456zM10.162 131.62c.404-.606 0-6.197-.404-7.679-.269-1.751-1.145-2.29-1.347-2.156-.404.135-.876 1.818-1.146 2.963-.472.876-2.223 1.146-1.616 2.358.472 1.28 3.705 4.78 4.513 4.52zM7.266 140.37c-.067-1.347-.943-4.244-1.347-5.052-.741-1.01-1.415-1.617-1.751-.808-.202.606-.337 2.761.134 4.377.203 1.28 1.011 3.638 1.618 3.975.403-.06 1.279-1.07 1.346-2.49zM4.167 154.85c.134-1.28 0-2.963-.134-3.975-.405-1.212-1.617-2.761-2.089-2.56-.606.136-1.212 1.819-.808 3.503.405 1.617 2.021 5.523 2.762 6.264.269.28.269-2.01.269-3.23zM2.82 168.12c.203-.605-.404-4.31-.741-5.388-.673-1.077-1.212-1.414-1.616-1.01-.404.27-.741 2.358-.27 3.435.203.94 2.291 3.23 2.627 2.96zM2.214 175.8c-.539-.067-1.683 3.435-1.886 4.783-.134 1.009.27 2.087.944 2.154.404 0 1.28-.672 1.548-1.75.136-1.27-.336-5.18-.606-5.18zM2.956 192.64c-.337.136-1.886 2.357-1.819 3.773-.202 1.144.673 3.165 1.078 3.165.202-.336.809-2.425 1.011-3.704.2-1.22-.136-3.51-.27-3.24z" fill="#C03018"/><path d="M85.872 92.481c-1.684 2.626-7.342 10.373-9.7 14.145-2.424 3.502-3.367 6.802-4.108 7.274-.876.337-.876-3.907-1.078-5.187-.472-1.481-2.087-1.684-.943-3.704.943-2.29 4.917-7.208 7.477-9.564 2.492-2.762 5.792-4.109 7.341-4.783 1.212-.741 2.424-.741 1.011 1.818zM59.265 110.06c1.078-1.414 4.513-8.352 6.4-11.451 1.751-2.963 3.435-4.445 4.782-5.994 1.212-1.684 4.176-4.177 3.435-4.109-.943-.202-5.658 2.021-7.947 3.839-2.358 1.819-4.917 4.783-6.13 7.073-1.415 2.021-1.818 3.704-1.752 5.59-.27 1.62-.135 6.06 1.212 5.05zM49.97 107.3c1.011-1.751 3.099-8.554 5.187-12.125 1.819-3.57 5.726-7.814 6.534-9.093.539-1.549-1.01-.472-2.56.674-1.885 1.078-4.849 3.502-6.803 5.725-1.818 2.021-3.435 4.715-3.839 6.803-.673 1.819-.067 3.638.27 4.917.133 1.21-.069 4.58 1.211 3.1zM41.146 106.36c1.077-.674 3.771-7.949 5.456-10.643 1.751-2.897 2.964-5.254 4.176-6.804.943-1.751 1.415-2.829 1.145-2.964-.673-.202-2.357.337-3.974 1.887-1.684 1.684-4.244 4.647-5.59 7.072-1.684 1.819-2.56 3.031-2.896 4.917-.203 1.955.268 7.075 1.683 6.535zM34.343 106.63c.472-1.078.876-4.917 1.482-7.342.539-2.155 1.347-4.378 2.694-6.399 1.28-2.492 4.917-6.668 5.187-7.341.135-.741-2.694 1.549-4.108 2.963-1.684 1.212-3.57 2.762-4.849 4.647-1.348 1.886-2.695 3.974-3.032 5.995-.539 1.683-.27 3.233.27 4.647.269 1.08 1.75 3.57 2.356 2.83zM34.343 89.989c-.337.606-2.829 2.694-3.839 5.186-1.146 2.425-2.021 6.265-2.627 8.892-.741 2.223-.875 5.119-1.212 5.59-.472.472-.741-1.212-1.078-2.492-.538-1.482-1.01-3.772-.673-5.861.27-2.223 2.358-5.186 3.435-6.802 1.078-1.751 2.021-2.694 3.099-3.369.942-.813 3.031-1.891 2.895-1.15zM20.4 117c-.673-1.146-2.087-5.052-1.885-7.342.134-2.559 2.424-6.466 3.233-7.342.673-.875 1.616-.134 1.55 1.482-.27 1.347-1.954 4.311-2.223 6.534-.202 2.021.201 4.58.403 5.86-.269.94-.539 1.82-1.078.81zM14.406 123.13c.067-1.145-1.279-3.975-1.145-6.399.201-2.626 1.886-7.207 1.953-8.016-.202-.943-2.29 1.819-2.896 3.099-.673 1.01-1.549 2.291-1.347 4.108-.135 1.819.538 5.388 1.212 6.803.404 1.22 2.02 1.35 2.223.41zM51.923 85.409c-1.078-.539-1.684-1.684-1.818-3.705-.539-2.021-1.146-5.051 0-8.083 1.145-3.301 5.724-9.901 7.274-10.979 1.348-1.28 1.28 1.482 1.078 3.908-.472 2.289-2.694 7.004-3.032 9.968-.606 2.963 1.348 5.726.674 7.477-.942 1.414-3.03 1.615-4.176 1.414zM62.971 86.217c-.607-1.414-1.078-6.466-1.146-8.891-.336-2.425-.067-4.513.539-6.265.673-2.088 1.819-4.041 3.705-5.59 1.819-1.617 6.332-4.244 6.804-3.435.202.673-4.177 4.445-5.322 7.679-1.348 3.166-1.886 7.881-2.155 10.776-.405 2.425-.202 3.975-.405 4.917-.539 1.011-1.483 1.887-2.02.809z" fill="#C03018"/><path d="M73.006 88.238c-.673-2.021-.809-7.881-.404-11.047.404-3.3 1.145-5.522 2.493-7.745 1.077-2.358 4.176-5.995 4.917-5.726.539.202-.741 2.425-1.01 6.399-.472 3.772-.54 12.731-.943 15.964-.405 2.829-.809 2.021-1.482 2.29-1.011.134-2.898 1.818-3.571-.135zM85.332 91.403c-1.145-2.155-1.077-6.265-.605-10.238.336-3.907 1.684-10.777 3.03-12.798 1.28-2.087 3.908-1.751 4.513 0 .405 1.618-1.549 5.456-1.684 8.959-.27 3.233.067 8.083.269 10.643.068 2.29.674 3.435 0 3.974-1.144.471-4.445 1.144-5.523-.54zM46.467 85.544c.405-.472-.539-1.28-.269-3.705.067-2.627 1.819-9.901 1.617-11.72-.337-2.223-2.291-1.751-3.031-.404-.943 1.145-1.886 5.59-2.021 8.15-.404 2.425-.27 5.388.404 6.803.539 1.279 2.761 1.145 3.3.876zM37.711 87.295c.269-1.078-.876-2.358-.808-4.379-.068-2.425 1.414-7.274 1.077-8.284-.336-.943-2.761 1.212-3.368 2.83-.943 1.481-1.414 4.041-1.414 6.129 0 1.885.336 4.31 1.28 5.186.741.471 2.694-.539 3.233-1.482zM30.504 91.539c.27-1.415-.876-3.436-.809-5.052.068-1.751.673-4.513.27-4.917-.808-.404-3.301 1.212-4.109 2.021-.742.471-1.01.269-.808 1.481-.135 1.077-.135 3.772.27 5.456.404 1.415 1.212 3.435 2.155 3.705.875 0 2.492-1.416 3.031-2.694zM22.758 100.09c.068-.809-1.01-2.357-1.145-4.108-.135-1.617.741-5.052.538-5.591-.472-.673-1.548.673-2.155 1.415-.606.404-1.145.336-1.078 1.616-.202 1.01.067 4.513.808 5.59.472 1.148 2.695 1.418 3.032 1.078zM17.706 105.68c.203-.742-.875-1.55-1.145-2.156-.27-.875.201-2.963-.134-2.896-.473 0-2.156 1.481-2.426 2.626-.54.675-.54 1.482-.27 2.426.067.943.203 2.964.943 3.166.675-.2 2.56-2.22 3.032-3.17zM95.503 94.367c1.684-.068 3.503.067 5.187.135 1.684-.135 3.57 0 4.917.404 1.01.471.809 1.28 2.223 2.155 1.416.606 3.098 1.078 5.792 1.685-.134-.068.404.066 1.616-.136 1.011-.134 4.918-.875 4.984-.673-.066 0-3.502 1.414-4.849 1.616-1.481.068-3.031-.404-4.377-.673-1.55-.404-3.57-.943-4.514-1.348-1.078-.673-.942-1.482-1.953-1.684-1.146-.27-3.908.337-5.187.27-1.55-.201-2.829-.875-3.84-1.751zM140.43 101.24c.337-.27 4.312.876 6.198 1.078 1.616 0 2.29-.404 4.107-.404 1.887-.202 4.177-.808 6.332-.539 1.818.202 2.425 1.348 4.917 1.885 2.492.405 9.025.741 9.497 1.011.135.27-6.197.539-8.352.539-2.224-.404-3.368-1.751-5.254-1.953-2.29-.202-5.726.809-7.948.943-2.29 0-4.042-.134-5.523-.404-1.56-.55-4.53-1.96-3.99-2.16z" fill="#C03018"/><path d="M98.938 94.435c-.673-2.021-.807-7.88-.403-11.046.269-3.301 1.078-5.523 2.424-7.747 1.078-2.357 4.176-5.995 4.917-5.725.471.202-.539 2.424-.943 6.398-.403 3.772-.741 12.731-1.01 15.964-.403 2.828-.808 2.02-1.481 2.289-.88.136-2.905 1.82-3.512-.133zM115.78 98.409c-1.346-1.953-2.021-5.995-2.021-10.037-.269-3.974.203-10.844 1.146-13.067.943-2.357 3.636-2.223 4.445-.673.54 1.28-.539 5.793-.337 9.16.27 3.368 1.146 7.813 1.818 10.441.337 2.223 1.213 3.3.54 3.974-1.09.539-4.26 1.813-5.6.202zM134.1 101.64c-1.684-1.751-3.839-6.87-4.917-9.902-1.01-3.165-1.347-5.523-1.01-8.083.202-2.761 1.28-7.072 2.156-7.206.471-.203.538 2.559 1.75 6.195 1.213 3.503 4.648 11.856 5.659 14.954.807 2.762.066 2.088-.405 2.694-.61.61-2.03 2.7-3.24 1.35zM150.74 102.72c-1.145-.809-.067-2.492-1.211-5.052-1.482-2.829-4.985-8.218-6.063-10.71-1.01-2.762-.876-4.378.134-4.849.674-.674 2.964.066 4.783 1.953 1.886 1.819 4.781 6.87 6.331 9.43 1.28 2.357 1.885 3.974 2.089 5.388.202 1.348-.27 2.357-1.146 3.031-1.14.74-3.9 1.28-4.91.81z" fill="#C03018"/><path d="M85.266 116.53c1.077-1.416 4.512-8.354 6.399-11.451 1.751-2.964 3.435-4.445 4.781-5.995 1.212-1.684 4.176-4.176 3.435-4.108-.943-.202-5.658 2.021-7.947 3.839-2.358 1.819-4.917 4.783-6.13 7.073-1.414 2.02-1.818 3.705-1.751 5.59-.27 1.61-.135 6.06 1.213 5.05zM104.19 120.77c1.079-1.751 3.503-8.555 5.726-12.124 2.155-3.57 6.265-7.814 7.14-9.094.606-1.55-1.211-.472-2.829.674-1.818 1.077-5.523 3.501-7.477 5.724-1.954 2.021-3.705 4.715-4.176 6.804-.539 1.819-.27 3.637.269 4.917 0 1.21.28 4.58 1.35 3.1zM134.3 102.65c-1.684 2.626-7.342 10.373-9.699 14.145-2.291 3.501-3.369 6.802-4.042 7.274-.876.337-.876-3.907-1.079-5.186-.404-1.482-2.222-1.684-1.01-3.705 1.146-2.291 4.782-7.208 7.545-9.564 2.492-2.493 5.792-4.312 7.341-4.715 1.28-.67 2.29-.88.94 1.75zM139.89 124.61c-1.079-.943-1.684-2.829-1.28-5.388.471-2.493 1.751-6.736 3.301-9.093 1.077-2.56 2.762-5.119 4.041-6.13 1.28-1.212 2.56-.942 3.571-.472.808.27 1.954-.539 1.347 2.762-1.011 3.166-4.851 13.202-6.602 16.368-1.89 2.96-3.44 2.49-4.38 1.95zM159.09 122.93c-.808-.472-.606-1.751.336-4.109 1.078-2.559 3.502-7.342 5.456-9.901 1.617-2.626 3.233-4.378 4.581-5.253.404-.674-.067-2.493-1.415-4.917-1.751-2.762-5.726-7.747-7.004-10.307-1.28-2.559-1.146-4.849.134-4.513 1.145.471 4.783 3.031 7.543 6.399 2.695 3.099 7.275 8.958 8.286 11.855.606 2.559-2.223 1.414-3.57 4.108-1.481 2.626-3.098 8.352-4.58 11.72-1.55 3.233-3.234 6.399-4.784 7.409-1.63.73-3.39-.01-5-2.5zM201.79 125.82c-.809-.336-.809-1.684-.271-4.311.606-2.762 2.291-8.285 3.771-11.115 1.349-2.964 2.36-5.052 3.774-6.264.201-.876-.541-2.492-2.226-4.85-2.086-2.492-6.936-7.208-8.552-9.497-1.549-2.627-2.09-4.783-.605-4.648 1.345.136 5.115 2.426 8.484 5.322 3.1 2.694 8.621 8.149 10.104 10.912 1.009 2.56-1.954 1.751-2.897 4.85-1.144 3.031-1.616 9.16-2.693 12.932-1.144 3.57-2.087 7.072-3.57 8.42-1.4 1.07-3.35.4-5.31-1.76zM191.02 105.55c-1.214-.808-.742-2.56-2.223-5.254-1.885-2.762-7.074-8.015-8.556-10.575-1.548-2.694-1.683-4.715-.672-5.322.672-.807 3.031-.471 5.523 1.28 2.222 1.683 6.465 6.534 8.555 9.094 1.952 2.29 2.693 4.041 3.3 5.522.402 1.348.066 2.694-.742 3.503-1.14.87-3.9 2.15-5.18 1.75z" fill="#C03018"/><path d="M179.77 128.11c-1.212-.876-1.751-3.166-1.347-5.792.336-2.896 2.021-6.938 3.504-9.767 1.345-2.896 2.894-5.388 4.378-6.466 1.549-1.146 2.558-1.078 3.771-.54.808.27 2.222-.471 1.414 2.964-1.279 3.435-4.918 14.011-7.005 17.446-2.02 3.11-3.77 2.7-4.71 2.16zM222.74 106.56c.07-.403 2.427-1.145 3.705-1.481 1.349-.539 2.563-1.28 4.379-1.414 1.75-.337 3.771-.337 6.063-.27 2.087 0 3.504.471 6.332.134 2.628-.673 7.006-2.56 9.766-2.828 2.827-.337 5.927 1.279 6.197 1.482-.066.066-4.378-1.28-6.465-.674-2.361.606-4.783 3.099-7.275 3.839-2.628.27-5.727-.606-7.747-.808-2.357-.27-2.493-.741-4.78-.134-2.36.404-6.739 3.03-8.42 3.435-1.95.13-2.02-.81-1.75-1.28z" fill="#C03018"/><path d="M221.26 126.43c-.809-.337-.943-1.685-.406-4.312.541-2.83 1.886-8.419 3.234-11.315 1.078-3.032 2.222-5.052 3.436-6.333-.271-1.077-1.079-2.896-2.427-4.714-1.48-2.088-4.379-4.782-5.793-7.072-1.614-2.358-3.972-6.736-2.894-6.871 1.008-.337 5.993 2.492 9.227 5.119 3.03 2.762 7.747 7.544 8.957 10.44 1.013 2.626-2.021 1.751-2.624 4.917-.811 3.031-1.417 9.295-2.09 13.067-1.009 3.705-1.819 7.073-3.164 8.555-1.5 1.07-3.31.66-5.47-1.49zM245.71 102.85c-1.282-.607-1.213-2.425-3.435-4.647-2.492-2.492-8.489-7.746-10.44-9.768-1.955-2.29-2.427-2.963-1.147-3.031 1.349-.202 4.718.539 8.019 2.492 3.028 1.953 7.878 6.602 9.898 9.026 1.619 2.021 1.619 3.502 1.078 4.445-.68.74-2.7 2.09-3.98 1.48zM242.95 124.74c-.404-.875.606-3.637.673-6.465-.402-3.167-2.287-8.958-2.021-11.114.135-2.088 1.885-2.358 3.168-1.549 1.346.606 3.5 2.492 4.108 5.658.27 2.896-1.214 9.7-2.087 12.057-1.15 2.21-3.31 2.08-3.84 1.4zM259.72 122.39c-.738-1.482 1.483-6.467 1.483-9.768-.135-3.368-2.021-8.352-1.751-10.036.066-1.684 1.686-1.819 2.76-.404 1.013 1.145 2.021 4.311 2.763 7.409.471 2.963 1.348 8.217.541 10.574-.94 2.23-5.12 3.24-5.79 2.23z" fill="#C03018"/><path d="M263.29 103.39c.541-.673 1.754-2.561 1.819-4.379-.135-1.751 1.349-3.771-1.819-6.331-3.501-3.032-14.684-9.295-17.442-10.44-2.763-.943-.405 1.953 1.615 4.243 1.819 2.155 7.879 5.187 10.17 8.016 2.156 2.357 2.087 5.726 3.165 7.274.81 1.42 1.82 1.96 2.49 1.62zM275.48 117.94c-.742-.067-1.147-1.414-1.213-3.772-.136-2.559.336-8.082.873-10.844.472-2.896 1.012-5.119 1.89-6.398-.476-1.146-1.484-2.425-3.033-3.84-1.819-1.616-4.784-3.569-6.534-5.32-1.815-2.021-4.849-5.12-3.907-5.658.943-.472 5.862.942 9.297 2.963 3.231 1.954 8.486 5.321 10.035 7.745 1.414 2.021-1.414 1.955-1.479 4.985-.069 2.897.267 8.42.471 12.125-.135 3.368-.271 6.937-1.213 8.353-1.09 1.35-2.91 1.14-5.2-.34zM278.85 29.638c.406-.405 3.706.202 5.186 1.279 1.013.808 1.82 3.301 1.685 3.84-.471.403-1.685-.674-2.894-1.415-1.29-1.145-4.18-3.233-3.98-3.704zM288.89 36.777c1.546.135 3.3.336 4.51.875 1.282.337 2.561 1.011 3.304 1.751.536.539.672 1.28.134 1.954 1.48-.54 2.625-.27 3.703.539.942.809 1.549 2.358 2.09 4.647.737.203 1.75.675 3.029 1.685 1.214 1.009 3.841 3.3 3.977 3.974-.069.269-2.964-.742-4.246-1.483-1.55-.741-2.693-1.751-4.174-3.03-.472-1.212-1.483-2.089-2.292-2.897-1.144-.808-2.087-1.549-3.57-1.954-.404-1.01-1.144-1.886-1.684-2.357-.673-.539-1.414-.471-2.223-.809-.81-.672-1.76-1.548-2.56-2.895zM301.14 52.741c1.954 0 3.84.269 5.927 1.078 2.091.605 4.583 1.481 6.469 3.166 1.549 1.684 2.828 3.57 3.57 6.466-3.1-1.684-5.862-3.502-8.556-5.186-2.82-1.887-5.05-3.638-7.41-5.524zM318.59 68.705c.941 1.28 1.954 2.694 3.3 4.244 1.146 1.549 2.627 3.166 4.177 5.119.606-1.482.404-3.301-.877-4.715-1.21-1.617-3.5-3.167-6.6-4.648zM316.84 70.186c-.136-2.56-1.078-4.311-3.571-5.995-2.558-1.751-5.927-2.694-10.845-3.569.941 1.212 2.225 2.626 3.57 3.704 1.213 1.146 3.368 2.156 4.647 3.031 1.013.405 1.886.405 2.898.809 1.08.403 2.09 1.078 3.3 2.02zM327.55 84.062c-.541-1.146-3.64-4.917-4.919-6.399-1.55-1.617-4.243-3.436-3.705-2.358.471.943 4.849 6.804 6.398 8.487 1.28 1.28 2.63 1.28 2.23.27zM315.42 76.248c-.471.27-2.763-2.963-5.591-4.512-2.963-1.886-10.506-4.244-11.72-5.254-1.348-1.145 1.48-1.01 3.301-.674 1.75.203 4.915 1.819 6.87 2.492 1.479.606 2.356-.067 3.436 1.348 1.21 1.347 3.84 6.061 3.7 6.6zM326.07 97.87c.672 0-1.415-6.938-2.628-9.632-1.479-2.694-4.107-4.581-5.521-5.927-1.619-1.414-2.357-2.155-3.3-2.223-1.013-.202-1.685 1.819-2.291 1.684-.673-.27-.673-1.886-1.55-3.031-1.144-1.482-2.087-3.637-4.919-4.917-3.095-1.415-11.515-3.435-12.798-3.233-1.413.068 2.697 1.28 5.321 3.369 2.492 1.885 8.354 5.792 10.038 7.813 1.279 1.819-1.549 2.357-1.213 3.705.336 1.078 1.955 2.155 3.57 4.244 1.278 2.223 4.243 6.062 5.255 8.689.808 2.492.336 6.062.672 5.792.136-.674 2.087-4.984 1.214-8.285-1.147-3.3-6.133-8.958-6.87-10.979-.877-2.087.942-2.291 2.356-1.684 1.414 0 3.165 1.415 5.522 3.705 2.15 2.359 6.26 10.576 7.14 10.913z" fill="#C03018"/><path d="M285.25 77.056c.336-.673 5.39-1.078 8.624.607 3.165 1.481 8.552 5.86 10.17 8.218 1.415 1.953-2.291 2.491-1.75 4.512.336 1.953 3.096 4.446 4.106 7.477.742 2.83 1.616 9.632 1.079 9.767-.677-.067-2.829-6.736-4.379-9.094-1.818-2.559-4.177-4.108-4.717-5.658-.537-1.886 3.233-2.828 2.226-4.647-1.214-2.088-6.198-4.849-8.756-6.736-2.76-2.024-6.87-3.842-6.6-4.449zM274.07 80.357c-.068 1.145 12.122 9.565 14.75 12.259 2.156 2.627-.271 1.683 0 3.165.336 1.146.742 1.146 1.75 4.379.877 3.233 2.427 13.74 3.57 14.886 1.078.807 2.427-5.995 2.492-9.229-.336-3.637-3.3-8.419-3.705-10.71-.472-2.356 2.09-1.28 1.483-2.762-.672-1.684-2.087-4.445-5.321-6.465-3.5-2.158-15.08-6.672-15.01-5.526zM49.095 291.86c-.473.202.269 3.233 1.415 4.715.875 1.28 3.301 2.359 3.906 2.492.472-.133.27-2.021-.605-3.097-1.011-1.42-4.312-4.18-4.716-4.11zM62.431 305.19c-.336.068.808 2.289 1.616 3.031.606.672 1.415 1.347 1.887 1.279.404-.403.538-1.414.134-2.222-.875-.81-3.3-2.36-3.637-2.09zM75.97 317.52c-.269-1.011-.337-1.817-.471-2.694-.135-.943-.135-1.684 0-2.491l-3.435-.809c.605 1.752 1.28 3.031 2.021 4.108.672 1.01 1.211 1.54 1.885 1.88zM84.188 322.03c-.27-.943-.337-1.818-.471-2.628-.135-1.01-.135-1.617 0-2.56l-3.502-.74c.605 1.683 1.28 3.031 2.021 4.042s1.143 1.56 1.952 1.89zM94.493 328.5c-.27-1.414-.673-2.627-.673-3.906-.134-1.281-.134-2.627 0-3.772l-3.975-.809c.472 2.29 1.01 4.378 1.886 5.725.674 1.48 1.685 2.22 2.762 2.76zM105.34 332.41a29.773 29.773 0 0 1-.807-4.58 22.982 22.982 0 0 1 0-4.311l-4.649-1.011c.473 2.762 1.213 4.984 2.224 6.67.81 1.61 1.89 2.69 3.24 3.23zM116.18 335.3c-1.415-.201-2.426-.808-3.57-2.357-1.212-1.752-3.232-6.13-2.964-6.669.203-.539 2.493 1.819 3.974 3.436 1.079 1.348 2.83 3.908 3.435 4.851.54.74.54.74 0 0 1.079.605 2.155 1.278 2.964 2.021.673.605 2.357 1.414 2.222 1.887-.27.336-2.356.942-3.367.538-.94-.47-2.01-1.89-2.69-3.71zM130.06 338.6c-1.617-.065-3.167-1.008-4.379-2.828-1.616-1.954-3.569-7.61-3.502-8.149.27-.675 3.167 2.289 4.782 4.243 1.415 1.616 3.301 4.781 4.11 5.859.673.942.673.942 0 0 1.346.875 2.559 1.414 3.637 2.356 1.145.742 2.627 1.686 2.627 2.292-.472.606-2.763 1.01-4.042.672-1.22-.73-2.3-2.21-3.24-4.44zM143.86 338.67c-2.088.675-3.973-.2-6.196-2.625-2.425-2.493-6.87-11.384-6.803-12.126.135-.875 4.984 4.445 7.544 6.87 2.357 2.225 5.254 5.256 6.601 6.535 1.079 1.077 1.079 1.077 0 0 2.021.673 3.503 1.414 5.187 2.223 1.481.673 3.907 1.548 3.907 2.357-.204.74-3.436 2.021-4.985 1.75-1.82-.67-3.57-2.15-5.26-4.98zM150.67 333.21c-3.435-1.144-5.658-2.693-7.207-5.185-1.617-2.695-2.29-8.623-1.751-9.431.404-.81 3.3 2.223 5.052 4.714 1.617 2.425 3.435 5.256 5.186 9.297 7.813 2.693 11.855 4.511 12.865 5.456.741.673-5.456.336-7.679 0-2.222-.271-4.715-.877-5.657-1.55-1.15-.74-1.42-2.01-.81-3.3zM162.93 327.09l1.415-1.886c-1.683-1.077-2.963-2.358-4.377-4.581-1.617-2.223-2.628-7.679-3.773-8.284-1.078-.877-2.425 2.154-2.492 3.906-.27 1.616.201 3.637 1.414 5.793 1.213 2.089 3.1 4.109 5.928 6.33-1.28 1.214-1.617 2.156-.742 3.1.606.74 2.493 1.683 5.659 2.088 2.963.337 7.207.473 12.73.134-4.514-1.011-8.083-1.817-10.71-2.963-2.63-1.15-4.31-2.37-5.05-3.64zM178.15 321.23l1.685-1.819c-1.685-1.212-3.099-2.896-4.244-5.321-1.212-2.559-2.358-8.283-3.165-9.16-1.146-.943-2.762 2.088-3.031 3.908-.539 1.547-.135 3.906.942 6.264 1.01 2.156 2.896 4.579 5.658 7.272-1.55 1.146-2.021 2.225-1.145 3.235.673.808 2.425 2.087 5.792 2.76 3.167.606 7.681 1.079 13.539 1.415-4.849-1.481-8.284-2.896-11.047-4.243-2.83-1.35-4.25-3.04-4.99-4.31zM191.15 314.49l1.414-2.088c-1.75-.875-3.3-2.425-4.918-4.647-1.615-2.291-3.435-8.016-4.443-8.622-1.348-.739-2.426 2.425-2.493 4.311-.27 1.752.336 3.772 1.817 6.063 1.413 2.021 3.569 4.244 6.738 6.398-1.282 1.281-1.684 2.493-.675 3.368.742.809 2.762 1.616 6.062 1.888 3.235.066 7.748.133 13.54-.54-4.784-.674-8.69-1.616-11.449-2.56-2.84-1.01-4.79-2.29-5.6-3.57zM203.81 305.4c.808 1.281 4.313.406 5.05-2.087.541-2.896-.942-9.834-1.614-12.731-.878-2.761-2.965-4.04-3.436-3.3-.606.606-.673 3.839-.471 7.073-.2 2.96-.4 9.43.47 11.05zM206.17 307.75c.136.404 0 .673-.672 1.55-.741.673-2.021 1.615-3.57 2.829 1.213 1.01 3.099 1.952 5.656 2.56 2.292.538 6.535 1.414 9.093 1.078 2.562-.472 4.381-1.349 5.997-3.167-3.1.675-5.793.404-8.621-.269-2.77-.94-5.4-2.29-7.89-4.58zM230.69 295.29c.205.337.676-.067 1.414-.942.676-1.011 1.619-2.764 2.832-4.984.673-.875 1.48-1.415 2.693-1.886 1.144-.607 2.964-.607 4.378-.81 1.145-.404 2.357.202 3.636-.809 1.148-1.077 1.886-4.916 3.772-5.791 1.684-1.146 4.446-.811 6.737-.811 2.423-.2 4.58.068 6.466-.471 1.414-.875 1.549-2.56 2.491-3.771.809-1.482 1.349-2.965 3.165-3.639 1.685-.606 4.514 0 6.94-.269 2.221-.338 4.377-1.213 6.464-2.088-3.771 1.616-6.33 2.896-8.486 3.839-1.954.809-3.098.471-3.976 1.549-1.278.942-.335 3.099-3.164 4.378-3.165 1.213-10.912 1.213-14.146 2.831-3.23 1.278-2.558 4.445-4.984 5.859-2.759 1.144-7.813 1.144-9.969 2.356-2.087 1.011-1.345 3.704-2.152 4.714-.878.877-2.628.675-3.169.945-.67.06-1.08 0-.94-.21z" fill="#C03018"/><path d="M233.99 288.69c.812 1.214 4.313.539 5.054-2.021.537-2.693-.943-9.97-1.614-12.73-.877-2.761-2.968-4.041-3.439-3.3-.604.604-.673 3.839-.471 7.072-.21 3.03-.41 9.3.47 10.98zM236.68 290.92c.337.606.136 1.144-.336 1.885-.54.606-1.618 1.279-2.964 2.021 1.751.54 3.567 1.212 5.724 2.021 2.021.808 4.446 2.357 6.533 2.56 1.82-.202 3.505-1.01 5.054-2.964-.54-.202-1.954-.741-4.245-1.617-2.35-1.01-5.51-2.22-9.76-3.9zM227.05 297.04c.202-.605-3.975-.741-4.983-.134-1.214.472-1.01 1.751-2.222 3.097-1.686 1.146-6.265 3.031-6.735 3.841-.541.54 2.492.875 3.906.269 1.078-.942 2.287-2.964 3.906-4.242 1.66-1.22 5.78-2.43 6.11-2.84z" fill="#C03018"/><path d="M217.82 297.85c.942 1.279 4.177.404 4.985-2.088.471-2.896-.742-9.834-1.55-12.729-.877-2.764-2.964-4.043-3.436-3.302-.606.606-.677 3.84-.472 7.072-.19 2.97-.39 9.44.48 11.05zM220.18 300.21c.136.403 0 .674-.672 1.549-.742.673-2.021 1.618-3.569 2.829 1.208 1.01 3.098 1.953 5.656 2.56 2.291.54 6.534 1.415 9.092 1.078 2.562-.472 4.378-1.347 5.996-3.167-3.233.675-5.86.404-8.689-.269-2.77-.94-5.46-2.29-7.82-4.58zM250.49 279.94c-.873-.741-.942-3.3-.942-6.13 0-2.896-.402-8.081.336-10.103.406-2.155 1.955-3.031 2.832-1.886.738 1.009 1.951 5.859 2.357 8.353.2 2.425.135 4.646-.472 6.397-.89 1.61-3.38 3.7-4.12 3.37zM249.88 282.43c1.213-.067 2.897 1.146 5.324 2.357 2.357.943 7.608 2.763 8.485 3.906.472.943-2.558 3.1-5.186 2.56-2.762-.739-9.497-4.109-10.846-5.658-1.59-1.62.96-3.04 2.24-3.17zM266.99 273.81c-.742-1.55-.942-7.41-.606-10.574.136-3.302 1.685-8.622 2.563-8.958.873-.539 2.422 3.771 2.828 6.734.065 2.964-.406 8.487-1.147 10.845-1.06 2.15-2.89 3.16-3.63 1.95zM263.69 278.99c3.1 1.55 6.197 2.829 9.026 3.57 2.964.809 7.141 1.077 8.149.809.672-.742-1.479-3.1-3.636-4.243-2.292-1.213-5.727-2.156-10.039-2.83-.738 1.011-1.278 1.753-1.885 2.224-.6.34-1.14.67-1.61.47zM279.59 269.23c2.156-2.224 3.637-5.322 4.443-9.297.743-4.311-.672-12.326.136-14.951.676-2.628 3.3-1.82 4.247-.136.807 1.684 1.074 6.331.807 10.035a41.282 41.282 0 0 1-3.3 10.847c3.23 2.086 5.521 4.039 6.87 6.128 1.279 2.021 1.681 4.849.943 5.86-1.079.673-4.447.202-6.739-1.146-2.5-1.48-4.78-3.84-7.41-7.34z" fill="#C03018"/><path d="M290.43 263.5c1.618.472 3.168.136 4.381-1.279 1.144-1.414 1.952-3.368 2.964-6.937.943-3.774 1.48-12.395 2.693-15.226 1.009-2.963 2.763-3.567 3.436-2.086.537 1.348-.069 7.006 0 9.97-.069 2.829-1.013 5.05-.742 6.398.069 1.212.472 1.347 1.213.672-.877.271-1.684 1.146-2.156 1.886-.606.606-1.414 2.156-1.144 3.1.202 1.146 1.48 1.346 2.559 3.166.877 1.481 3.033 4.378 2.828 6.129-.401 1.55-3.636 3.772-5.05 3.302-1.615-.811-3.1-5.727-4.714-7.209-2.02-1.54-3.84-2.08-6.27-1.88z" fill="#C03018"/><path d="M306.13 255.62c.942.337 2.09.269 3.165-.941 1.077-1.279 2.561-2.09 3.64-5.793.808-4.108.471-14.214 1.549-17.042.942-2.627 3.436-1.886 4.108.675.54 2.356-.743 9.969-.943 12.997-.472 2.628-1.686 2.628-1.279 3.37.271.539 2.356 1.076 3.637.604 1.278-.472 2.763-1.817 3.906-3.771.877-2.289 1.147-5.32 1.886-8.823.675-3.838 1.549-11.519 2.357-12.394.606-.674 2.225 5.118 2.225 8.017-.271 2.76-2.762 6.937-2.562 8.62.204 1.55 1.619 1.617 3.977.472-2.092.674-3.169 1.213-3.977 2.358-.606.875-.606 1.75-.267 3.636.066 1.686 1.414 4.649.943 7.074-.542 2.221-1.956 4.175-4.247 6.129.271-3.099.135-5.456-.942-7.072-1.145-1.819-4.174-2.963-5.187-2.695-1.144.202-.404 1.616-.672 3.974-.135 2.224-.541 7.276-.942 9.431-.742 1.886-1.686 2.763-3.1 2.356.606-2.828.742-5.118.136-6.6-.742-1.617-2.292-2.156-3.64-2.695-1.48-.739-3.973-1.211-4.579-1.414-.69-.42-.43-.49.79-.49z" fill="#C03018"/><path d="M332.4 239.86c.873-.404 1.681-1.752 2.693-4.042.741-2.628 2.155-7.206 2.964-10.104.671-3.164 1.213-6.733 1.885-7.341.606-.471 1.75.943 1.615 4.512-.336 3.435-1.55 8.555-3.636 15.898 1.279-.204 2.492-1.012 3.636-2.695a29.256 29.256 0 0 0 3.304-7.071c.603-3.099 1.074-9.902 1.681-11.316.676-1.617 1.82.605 2.356 2.222.406 1.685.473 4.446.206 7.208-.473 2.49-1.414 5.321-2.829 8.217.673 2.356.673 4.85.267 7.206-.537 2.358-2.693 6.534-3.099 6.805-.673-.067.877-4.446.472-6.131-.673-1.75-1.345-3.637-2.558-3.838-1.214-.606-3.166-.136-3.772 1.414-.808 1.616.606 4.781-.135 7.409-.877 2.289-2.356 4.242-4.715 6.13 1.752-2.292 2.358-4.445 2.358-6.737-.337-2.492-2.563-5.456-3.033-6.802-.55-1.3-.35-1.7.33-.96z" fill="#C03018"/></g></svg>