<?xml version="1.0" encoding="UTF-8" standalone="no"?>
<svg
   xmlns:dc="http://purl.org/dc/elements/1.1/"
   xmlns:cc="http://creativecommons.org/ns#"
   xmlns:rdf="http://www.w3.org/1999/02/22-rdf-syntax-ns#"
   xmlns:svg="http://www.w3.org/2000/svg"
   xmlns="http://www.w3.org/2000/svg"
   xmlns:sodipodi="http://sodipodi.sourceforge.net/DTD/sodipodi-0.dtd"
   xmlns:inkscape="http://www.inkscape.org/namespaces/inkscape"
   id="svg3766"
   viewBox="0 0 299.28 299.27999"
   version="1.1"
   sodipodi:docname="icon.svg"
   width="299.28"
   height="299.28"
   inkscape:version="0.92.5 (2060ec1f9f, 2020-04-08)">
  <sodipodi:namedview
     pagecolor="#ffffff"
     bordercolor="#666666"
     borderopacity="1"
     objecttolerance="10"
     gridtolerance="10"
     guidetolerance="10"
     inkscape:pageopacity="0"
     inkscape:pageshadow="2"
     inkscape:window-width="1920"
     inkscape:window-height="997"
     id="namedview17"
     showgrid="false"
     fit-margin-top="0"
     fit-margin-left="0"
     fit-margin-right="0"
     fit-margin-bottom="0"
     inkscape:zoom="1.1460839"
     inkscape:cx="149.65583"
     inkscape:cy="99.974998"
     inkscape:window-x="0"
     inkscape:window-y="28"
     inkscape:window-maximized="1"
     inkscape:current-layer="svg3766" />
  <defs
     id="defs3768">
    <linearGradient
       id="linearGradient4601"
       y2="306.25"
       gradientUnits="userSpaceOnUse"
       x2="346.39001"
       gradientTransform="matrix(1,0,0,0.9748,0,8.9973)"
       y1="306.25"
       x1="145.50999">
      <stop
         id="stop4582"
         offset="0" />
      <stop
         id="stop4586"
         stop-color="#fff"
         stop-opacity=".2028"
         offset=".21087" />
      <stop
         id="stop4584"
         stop-opacity="0"
         offset="1" />
    </linearGradient>
  </defs>
  <g
     id="layer1"
     transform="translate(-144.86416,-126.68499)">
    <g
       id="g4610">
      <path
         id="path3776-8-7"
         d="m 144.88,228.34 v 100 h 0.0312 c 0.59548,27.444 67.321,49.625 149.59,49.625 82.273,0 149.03,-22.181 149.62,-49.625 h 0.0312 v -100 h -299.28 z"
         style="color:#000000;fill:#333333"
         inkscape:connector-curvature="0" />
      <path
         id="path3776-8"
         d="m 363.65,236.16 a 110.11,42.426 0 1 1 -220.21,0 110.11,42.426 0 1 1 220.21,0 z"
         style="color:#000000"
         transform="matrix(1.359,0,0,1.1785,-50.064,-50.305)"
         inkscape:connector-curvature="0" />
      <path
         id="path3776-8-3"
         style="color:#000000;stroke:#393939;stroke-width:5"
         d="m 363.65,236.16 a 110.11,42.426 0 1 1 -220.21,0 110.11,42.426 0 1 1 220.21,0 z"
         transform="matrix(1.063,0,0,0.85411,25,26.306)"
         inkscape:connector-curvature="0" />
      <path
         id="path3776-8-3-1"
         style="color:#000000;stroke:#272d39;stroke-width:5.18389988"
         d="m 363.65,236.16 a 110.11,42.426 0 1 1 -220.21,0 110.11,42.426 0 1 1 220.21,0 z"
         transform="matrix(1.0301,0,0,0.81996,33.34,35.819)"
         inkscape:connector-curvature="0" />
      <path
         id="path4570"
         d="M 272.26,376.64 C 206.33,372.82 157.39,356.82 147.21,335.77 l -1.706,-3.5307 0.0388,-47.664 c 0.0254,-31.133 0.27956,-47.077 0.73293,-45.972 2.6679,6.5016 12.483,14.608 24.728,20.423 53.133,25.233 163.69,28.467 230.06,6.7295 21.084,-6.9052 37.115,-17.229 41.486,-26.715 1.2729,-2.763 1.3028,-1.597 1.1659,45.535 l -0.14053,48.37 -1.925,3.5547 c -9.9196,18.318 -49.199,32.822 -104.2,38.477 -13.645,1.4029 -52.537,2.394 -65.195,1.6614 z"
         style="color:#000000;fill:url(#linearGradient4601)"
         inkscape:connector-curvature="0" />
    </g>
  </g>
  <metadata
     id="metadata14">
    <rdf:RDF>
      <cc:Work>
        <dc:format>image/svg+xml</dc:format>
        <dc:type
           rdf:resource="http://purl.org/dc/dcmitype/StillImage" />
        <cc:license
           rdf:resource="http://creativecommons.org/publicdomain/zero/1.0/" />
        <dc:publisher>
          <cc:Agent
             rdf:about="http://openclipart.org/">
            <dc:title>Openclipart</dc:title>
          </cc:Agent>
        </dc:publisher>
        <dc:title></dc:title>
        <dc:date>2010-03-30T04:28:04</dc:date>
        <dc:description>A hockey puck, drawn in Inkscape.</dc:description>
        <dc:source>http://openclipart.org/detail/35551/hockey-puck-by-j_alves</dc:source>
        <dc:creator>
          <cc:Agent>
            <dc:title>J_Alves</dc:title>
          </cc:Agent>
        </dc:creator>
        <dc:subject>
          <rdf:Bag>
            <rdf:li>clip art</rdf:li>
            <rdf:li>clipart</rdf:li>
            <rdf:li>hockey</rdf:li>
            <rdf:li>ice hockey</rdf:li>
            <rdf:li>puck</rdf:li>
            <rdf:li>sport</rdf:li>
            <rdf:li>sports2010</rdf:li>
          </rdf:Bag>
        </dc:subject>
      </cc:Work>
      <cc:License
         rdf:about="http://creativecommons.org/publicdomain/zero/1.0/">
        <cc:permits
           rdf:resource="http://creativecommons.org/ns#Reproduction" />
        <cc:permits
           rdf:resource="http://creativecommons.org/ns#Distribution" />
        <cc:permits
           rdf:resource="http://creativecommons.org/ns#DerivativeWorks" />
      </cc:License>
    </rdf:RDF>
  </metadata>
</svg>
