<svg xmlns="http://www.w3.org/2000/svg" width="299.28" height="299.28"><defs><linearGradient id="a" y2="306.25" gradientUnits="userSpaceOnUse" x2="346.39" gradientTransform="matrix(1 0 0 .9748 0 8.997)" y1="306.25" x1="145.51"><stop offset="0"/><stop stop-color="#fff" stop-opacity=".203" offset=".211"/><stop stop-opacity="0" offset="1"/></linearGradient></defs><path d="M144.88 228.34v100h.031c.596 27.444 67.321 49.625 149.59 49.625 82.273 0 149.03-22.181 149.62-49.625h.031v-100h-299.28z" style="color:#000;fill:#333" transform="translate(-144.864 -126.685)"/><path d="M363.65 236.16a110.11 42.426 0 1 1-220.21 0 110.11 42.426 0 1 1 220.21 0z" style="color:#000" transform="matrix(1.359 0 0 1.1785 -194.928 -176.99)"/><path style="color:#000;stroke:#393939;stroke-width:5" d="M363.65 236.16a110.11 42.426 0 1 1-220.21 0 110.11 42.426 0 1 1 220.21 0z" transform="matrix(1.063 0 0 .85411 -119.864 -100.379)"/><path style="color:#000;stroke:#272d39;stroke-width:5.18389988" d="M363.65 236.16a110.11 42.426 0 1 1-220.21 0 110.11 42.426 0 1 1 220.21 0z" transform="matrix(1.0301 0 0 .81996 -111.524 -90.866)"/><path d="M272.26 376.64c-65.93-3.82-114.87-19.82-125.05-40.87l-1.706-3.53.039-47.665c.025-31.133.28-47.077.733-45.972 2.668 6.502 12.483 14.608 24.728 20.423 53.133 25.233 163.69 28.467 230.06 6.73 21.084-6.905 37.115-17.23 41.486-26.715 1.273-2.763 1.303-1.597 1.166 45.535l-.14 48.37-1.926 3.554c-9.92 18.318-49.199 32.822-104.2 38.477-13.645 1.403-52.537 2.394-65.195 1.662z" style="color:#000;fill:url(#a)" transform="translate(-144.864 -126.685)"/></svg>