<svg xmlns="http://www.w3.org/2000/svg" id="Layer_1" width="303.187" height="145.038" data-name="Layer 1" version="1.1"><defs id="defs4"><clipPath id="clipPath6378" clipPathUnits="userSpaceOnUse"><path id="path6380" d="M286.947 137.242c-.314 1.334-.668 2.657-1.156 3.94-.615 1.593-1.298 3.162-2.172 4.634-.894 1.497-1.855 2.956-3.006 4.272-1.087 1.228-2.224 2.414-3.502 3.45a45.617 45.617 0 0 1-2.752 2.108c-.349.245-.709.474-1.062.713.436.365.873.73 1.31 1.092.712.592 1.431 1.175 2.153 1.754.702.567 1.416 1.12 2.138 1.66.73.54 1.482 1.048 2.237 1.551a63.78 63.78 0 0 0 2.459 1.531c.855.512 1.731.985 2.613 1.45.976.504 1.961.992 2.945 1.48 1.045.518 2.094 1.028 3.145 1.533 1.08.52 2.171 1.024 3.264 1.52 1.141.515 2.29 1.014 3.439 1.511.727.315 1.458.622 2.188.932v-34.494c-2.384-.112-4.767-.224-7.15-.332-2.364-.107-4.727-.204-7.09-.305zM0 137.748v37.66c.204-.168.413-.33.61-.508a43.703 43.703 0 0 0 2.258-2.213c.368-.39.735-.781 1.095-1.18a152.652 152.652 0 0 0 2.11-2.372c.291-.34.581-.682.86-1.033.272-.346.54-.695.8-1.05.27-.37.538-.74.802-1.114a57.8 57.8 0 0 0 1.422-2.11l.719-1.13.742-1.169c.26-.405.52-.81.785-1.21a75.451 75.451 0 0 1 1.578-2.292c.243-.338.484-.677.729-1.013l.685-.946c.216-.3.43-.6.645-.902.227-.319.455-.636.685-.953.248-.34.497-.678.752-1.012.27-.35.543-.698.828-1.035.273-.318.55-.635.836-.94.182-.191.369-.377.555-.564l1.797-12.758-.197-.002c-6.537-.035-13.073-.09-19.61-.142L0 137.748zm109.78.748c-.385.396-.732.828-1.135 1.205a73.127 73.127 0 0 1-3.024 2.694 141.407 141.407 0 0 1-5.73 4.596 88.69 88.69 0 0 1-3.254 2.359c-1.25.853-2.517 1.684-3.83 2.44-1.472.84-2.967 1.64-4.522 2.32-1.553.672-3.127 1.295-4.742 1.806-1.325.429-2.656.836-3.996 1.213-1.223.347-2.448.69-3.676 1.017a365.264 365.264 0 0 1-7.043 1.799c-1.12.274-2.244.544-3.365.817a1298.45 1298.45 0 0 1-6.772 1.623c-1.097.262-2.194.523-3.293.781-1.078.254-2.158.504-3.238.75-1.074.244-2.149.482-3.226.711-1.018.217-2.036.43-3.055.639a433.78 433.78 0 0 0-5.23 1.1l-2.376.515c-.792.171-1.586.342-2.38.506-.805.165-1.61.327-2.418.476a73.324 73.324 0 0 1-7.066.957c-.617.055-1.234.105-1.85.153a47.755 47.755 0 0 1-4.037.15c-.204-.001-.407-.009-.61-.012-.162.256-.323.511-.486.766a63.207 63.207 0 0 1-1.707 2.531c-.3.425-.602.846-.908 1.266a51.25 51.25 0 0 1-1.041 1.367c-.378.478-.772.944-1.168 1.406-.381.442-.765.88-1.153 1.315-.386.434-.777.866-1.168 1.297-.41.452-.825.897-1.244 1.341a55.337 55.337 0 0 1-2.853 2.8 31.112 31.112 0 0 1-3.672 2.852c-.66.436-1.34.838-2.024 1.233-.633.362-1.273.71-1.914 1.059-.19.103-.383.202-.574.304v55.633h301.188v-59.734c-.976-.398-1.952-.796-2.922-1.205a433.416 433.416 0 0 1-3.729-1.59 250.727 250.727 0 0 1-3.625-1.594c-1.166-.53-2.33-1.067-3.484-1.623a306.374 306.374 0 0 1-3.262-1.59c-1.068-.529-2.137-1.058-3.195-1.607a66.237 66.237 0 0 1-3.149-1.75 74.665 74.665 0 0 1-2.918-1.822 65.735 65.735 0 0 1-2.744-1.909 85.765 85.765 0 0 1-2.433-1.888c-.77-.617-1.533-1.24-2.291-1.87a353.148 353.148 0 0 1-2.176-1.814c-.645-.544-1.29-1.089-1.94-1.627l-.63-.515c-.444.187-.884.384-1.333.558-.811.319-1.625.63-2.445.928a69.46 69.46 0 0 1-2.771.95c-1.017.319-2.04.62-3.073.882a49.289 49.289 0 0 1-3.3.726 56.172 56.172 0 0 1-6.37.801 55.385 55.385 0 0 1-3.27.125 55.54 55.54 0 0 1-3.337-.078 55.88 55.88 0 0 1-3.36-.277c-1.244-.15-2.485-.328-3.712-.588-1.39-.302-2.772-.647-4.117-1.115-1.363-.483-2.711-1.009-4.006-1.655-1.207-.601-2.397-1.235-3.535-1.959-1.14-.725-2.259-1.482-3.315-2.326a43.432 43.432 0 0 1-2.732-2.34 45.8 45.8 0 0 1-2.489-2.48c-1.02-1.13-2.002-2.298-2.843-3.57-.718-1.088-1.407-2.197-1.998-3.36a67.928 67.928 0 0 1-1.164-2.379c-.207-.433-.412-.868-.637-1.293-.22-.423-.46-.837-.703-1.248a43.94 43.94 0 0 0-.961-1.529 117.88 117.88 0 0 0-1.203-1.818c-.056-.083-.116-.164-.172-.246-1.642.095-3.282.21-4.924.3-5.493.303-10.992.458-16.492.57-5.724.098-11.45.077-17.174.012-5.686-.08-11.37-.214-17.055-.365l-16.539-.451c-5.352-.153-10.704-.282-16.056-.397-.608-.013-1.217-.013-1.825-.025z" style="fill:red;fill-opacity:1;fill-rule:nonzero;stroke:none"/></clipPath><style id="style2">.cls-8{fill:#231f20}.cls-10{fill:#7f4d1b}</style></defs><path id="path1641" d="M237.41 120.723q3.018-.493 5.865-.815c15.285-2.433 55.412-10.979 59.94-34.202 0 0-1.734-26.59-90.98-35.704l.428-21.262S210.523 1.85 159.819.981h-14.546c-50.67.869-52.833 27.76-52.833 27.76L92.868 50C3.643 59.116 1.888 85.707 1.888 85.707c5.662 28.766 65.838 35.017 65.838 35.017s106.297 10.519 169.683 0z" class="cls-8" style="fill:#fff;fill-opacity:1;stroke-width:6.2;stroke-miterlimit:4;stroke-dasharray:none"/><path id="path278" d="M301.098 188.76a21.64 21.64 0 0 0-3.8-10.51c-8.4-12.1-23.43-18.29-36.17-22.05a116.44 116.44 0 0 0-10.94-101.6 17.74 17.74 0 0 0-1.38-2.14 116.49 116.49 0 0 0-194.78.23 19.79 19.79 0 0 0-1.1 1.71 116.53 116.53 0 0 0-11.14 101.61c-26.35 8.18-36.37 18.8-40 26.71-2.09 4.48-2 7.57-1.46 9.48 4 19.09 19.78 42.61 72 47.76 2.65.26 44.79 4.32 89.94 4.32 23.5 0 47.82-1.1 67.81-4.41 1.63-.27 3.25-.49 4.83-.66l.48-.07c13.48-2.14 24.81-5.31 34.64-9.69 8-3.54 13.82-7.29 18.43-11.81 10.34-10.15 13.31-21.57 12.64-28.88z" clip-path="url(#clipPath6378)" style="fill:#fff" transform="translate(2 -101.242)"/><path id="path288" d="M230.398 128.638q2.78-.45 5.37-.74c14-2.22 50.67-10 54.82-31.22 0 0-1.58-24.27-83.16-32.59l.4-19.4s-2-24.55-48.31-25.34h-13.35c-46.33.79-48.31 25.34-48.31 25.34l.39 19.4c-81.57 8.32-83.16 32.59-83.16 32.59 5.15 26.25 60.19 32 60.19 32s97.17 9.55 155.12-.04z" style="fill:#f2b316"/><path id="path290" d="M232.098 121.038q2.82-.46 5.48-.76c14.28-2.27 51.77-10.24 56-31.9 0 0-1.62-24.8-85-33.3l.4-19.83s-2-25.08-49.37-25.89h-13.59c-47.34.81-49.36 25.89-49.36 25.89l.4 19.83c-83.36 8.5-85 33.3-85 33.3 5.29 26.83 61.51 32.66 61.51 32.66s99.31 9.81 158.53 0z" class="cls-8" style="fill:#231f20"/><path id="path292" d="M170.328 83.398c29.13.47 25.9-14.21 25.9-14.21l-2.66-34.59c-3.56-12.5-28-15-39.73-15.25-11.73-.25-41.16 3.16-44.6 15.25l-2.7 34.59s-3.23 14.68 25.9 14.21z" class="cls-10" style="fill:#7f4d1b"/><path id="path294" d="M152.838 41.868s-5.72 35.31 17.49 41.53c23.21 6.22 36.52-15.36 36.52-15.36l-7.61-42.87-35.55-8.87" class="cls-8" style="fill:#231f20"/><path id="path296" d="M206.628 76.038s-1.61 16.16-30.75 16.65h-50.76c-29.14-.49-30.76-16.65-30.76-16.65-3.23 26.4 30.21 26.4 30.21 26.4h51.84s33.46 0 30.22-26.4z" style="fill:#494949"/><path id="path298" d="M78.298 73.298s-22.5 37 65.16 39.93a298.77 298.77 0 0 1-40.68-1.83c-18.76-1.92-37.27-6.12-55.83-9.7-6.09-1.17-22.29-5.78-15.87-14.92 2.93-4.18 8.85-6.29 13.44-7.83a95.29 95.29 0 0 1 13.76-3.28c2.78-.49 19.03-.73 20.02-2.37z" class="cls-10" style="fill:#7f4d1b"/><ellipse id="ellipse300" cx="152.708" cy="32.878" class="cls-8" rx="19.83" ry="16.55" style="fill:#231f20"/><path id="path302" d="M222.348 111.038s70.32-13.83 46-31z" style="fill:#ed1d3d"/></svg>