<svg xmlns="http://www.w3.org/2000/svg" id="Layer_1" width="114.18" height="98.156" data-name="Layer 1" version="1.1"><defs id="defs4"><style id="style2">.cls-6{fill:#fff}</style></defs><path id="path10831" d="m25.689 10.23-.87.63c-2.06 1.51-4.11 3-6.18 4.53a.75.75 0 0 0-.33 1c.87 2.59 1.69 5.19 2.52 7.79l.15.46c-.2 0-.29-.09-.4-.17-2.28-1.64-4.57-3.28-6.84-4.94a.54.54 0 0 0-.76 0c-2.27 1.64-4.55 3.26-6.82 4.89l-.54.38.58-1.87c.72-2.21 1.42-4.43 2.15-6.63a.61.61 0 0 0-.26-.81c-2.26-1.64-4.51-3.31-6.76-5-.13-.09-.29-.14-.37-.39h8.98a.51.51 0 0 0 .61-.44c.85-2.66 1.72-5.32 2.59-8a.72.72 0 0 1 .27-.49l1.29 3.94c.49 1.51 1 3 1.46 4.54.11.36.28.43.62.43h8.45c.11.05.28-.01.46.15z" class="cls-6" style="fill:#be2026;fill-opacity:1;stroke:#be2026;stroke-width:1.4;stroke-miterlimit:4;stroke-dasharray:none;stroke-opacity:1"/><path id="path10481" d="m25.689 10.23-.87.63c-2.06 1.51-4.11 3-6.18 4.53a.75.75 0 0 0-.33 1c.87 2.59 1.69 5.19 2.52 7.79l.15.46c-.2 0-.29-.09-.4-.17-2.28-1.64-4.57-3.28-6.84-4.94a.54.54 0 0 0-.76 0c-2.27 1.64-4.55 3.26-6.82 4.89l-.54.38.58-1.87c.72-2.21 1.42-4.43 2.15-6.63a.61.61 0 0 0-.26-.81c-2.26-1.64-4.51-3.31-6.76-5-.13-.09-.29-.14-.37-.39h8.98a.51.51 0 0 0 .61-.44c.85-2.66 1.72-5.32 2.59-8a.72.72 0 0 1 .27-.49l1.29 3.94c.49 1.51 1 3 1.46 4.54.11.36.28.43.62.43h8.45c.11.05.28-.01.46.15z" class="cls-6" style="fill:#000"/><path id="path1916" d="M38.85 4.39v34.881H14.944l-.522 5.364c2.113 1.987 4.33 3.87 6.22 6.08 2.148 2.372 4.383 4.691 6.478 7.097.949 2.504 1.896 5.009 2.847 7.512l8.914 6.947h5.252c1.373-2.732 2.74-5.467 4.111-8.2h3.805c.791 1.265 1.58 2.531 2.373 3.796l2.354.709c1.77 4.177 3.855 8.21 5.964 12.223l3.03 1.3v4.032l5.375 6.263c4.32 1.921 8.638 3.843 12.959 5.762 2.29-1.529 4.579-3.057 6.867-4.588-1.64-3.913-3.051-8.162-2.4-12.459.499-3.818 2.995-7.13 6.195-9.164a21.562 21.562 0 0 1 7.351-3.027c.756-1.745 2.523-2.655 4.087-3.553 2.546-1.39 5.255-2.444 7.976-3.436-.603-1.643-1.314-3.27-1.849-4.924l.513-11.072c-1.222-2.14-2.54-4.249-3.7-6.411-.667-4.875-1.332-9.751-2.003-14.626-2.358.405-4.957 1.053-7.194-.168-1.29-.603-1.98-1.88-2.652-3.058-3.33 1.367-6.834 2.387-10.446 2.576-7.14.424-14.307-1.65-20.41-5.305V2.391H38.85v2z" class="cls-6" style="fill:#2b2e81;fill-opacity:1"/><path id="path202" d="m25.689 10.23-.87.63c-2.06 1.51-4.11 3-6.18 4.53a.75.75 0 0 0-.33 1c.87 2.59 1.69 5.19 2.52 7.79l.15.46c-.2 0-.29-.09-.4-.17-2.28-1.64-4.57-3.28-6.84-4.94a.54.54 0 0 0-.76 0c-2.27 1.64-4.55 3.26-6.82 4.89l-.54.38.58-1.87c.72-2.21 1.42-4.43 2.15-6.63a.61.61 0 0 0-.26-.81c-2.26-1.64-4.51-3.31-6.76-5-.13-.09-.29-.14-.37-.39h8.98a.51.51 0 0 0 .61-.44c.85-2.66 1.72-5.32 2.59-8a.72.72 0 0 1 .27-.49l1.29 3.94c.49 1.51 1 3 1.46 4.54.11.36.28.43.62.43h8.45c.11.05.28-.01.46.15z" class="cls-6" style="fill:#fff;stroke:none;stroke-width:1;stroke-miterlimit:4;stroke-dasharray:none;stroke-opacity:1"/><path id="path210" d="M16.759 41.27h24.09V4.39h23.59v15.64s15.12 10.76 32 4.1c0 0 2.3 4.36 9 3.08l1.79 13.07 3.59 6.15-.51 11 1.28 3.33s-9.23 3.34-10.77 6.41c0 0-21 4.36-12.3 25.63l-4.61 3.08-11.54-5.13-4.6-5.36v-4.61l-3.59-1.54s-4.36-8.2-5.9-12.3l-2.56-.77-2.56-4.1h-6.15l-4.11 8.2h-3.33l-7.93-6.18-2.82-7.44-8.72-9.48-3.59-3.33z" class="cls-6" style="fill:#fff"/><path id="path268" d="M69.639 35.23a62.61 62.61 0 0 1 9.38-.71c6.34 0 10.85 1.47 13.84 4.26s4.82 6.74 4.82 12.27c0 5.53-1.72 10.14-4.92 13.28-3.2 3.14-8.47 4.92-15.11 4.92a72.21 72.21 0 0 1-8-.4zm4.41 30.22a28.28 28.28 0 0 0 4.46.25c9.43 0 14.55-5.27 14.55-14.5.06-8.06-4.51-13.18-13.84-13.18a24.59 24.59 0 0 0-5.17.46z" style="fill:#2b2e81"/></svg>