<svg xmlns="http://www.w3.org/2000/svg" id="Layer_1" width="254.535" height="265.277" data-name="Layer 1"><defs id="defs4"><clipPath id="clipPath1636" clipPathUnits="userSpaceOnUse"><path id="path1638" d="M0 0v285.277h31.957c.294-.152.495-.251.98-.502 1.207-.659 2.4-1.34 3.592-2.027a331 331 0 0 0 6.463-3.853 1150 1150 0 0 0 8.424-5.165 1615 1615 0 0 1 9.69-5.964c.156-.096.315-.188.472-.284l-1.514-.392c.629-2.462 1.706-4.769 3.051-6.914.11-.166.287-.443.385-.596 0-.003.023-.044.11-.201q.3-.555.595-1.113c.22-.42.428-.842.64-1.264q.566-1.114 1.15-2.219c.483-.906.988-1.802 1.503-2.691a100 100 0 0 1 1.549-2.569c.524-.847 1.062-1.686 1.601-2.523q.7-1.083 1.391-2.172.721-1.153 1.44-2.308a781 781 0 0 0 2.664-4.321l-3.479-4.969-3.348-2.828.092-.109q.147-.169.301-.33l.34-.354.224-.232q.122-.125.245-.248l.23-.236q.105-.108.209-.22l.242-.26q.136-.146.268-.292l.29-.322.352-.387.354-.387a117 117 0 0 1 1.25-1.332 55 55 0 0 1 1.992-1.974l.508-.471.5-.46.494-.464q.249-.233.496-.469l.54-.511.528-.5.518-.49q.259-.247.516-.497l.535-.517.543-.522.527-.51.563-.538.523-.504a125 125 0 0 1 1.133-1.084q.292-.277.588-.551.295-.276.594-.55.299-.275.601-.546l.568-.51q.296-.267.594-.53.296-.263.594-.524l.59-.52q.307-.269.615-.535l.191-.164.332-.377q.325-.366.653-.73a37 37 0 0 1 1.492-1.564q.185-.185.373-.366l1.326 1.365c.415-.172.83-.346 1.252-.498a30 30 0 0 1 1.838-.568l.588 2.07a72 72 0 0 1 3.527-2.693c2.272-1.607 4.683-3 7.125-4.327 2.464-1.319 5.01-2.47 7.576-3.572 2.547-1.08 5.144-2.034 7.75-2.957 2.655-.933 5.347-1.754 8.047-2.545 2.665-.776 5.352-1.467 8.045-2.135 2.733-.673 5.489-1.25 8.25-1.794 2.906-.57 5.835-.997 8.774-1.35 3.01-.351 6.037-.502 9.066-.57.966-.019 1.93.014 2.895.037l.047-.041-9.832-1.807-.038.217c-.01.073.019-.112.036-.217h-.002l.015-.086-.013.086h.002c.056-.35.116-.696.18-1.047.206-1.114.513-2.206.835-3.29.344-1.137.755-2.25 1.184-3.356a95 95 0 0 1 1.326-3.178 185 185 0 0 1 1.621-3.586 196 196 0 0 1 2.027-4.244q1.12-2.286 2.287-4.549c.82-1.583 1.663-3.154 2.506-4.725.823-1.53 1.654-3.059 2.48-4.587q1.248-2.303 2.487-4.61c.861-1.605 1.72-3.21 2.586-4.812a600 600 0 0 1 2.693-4.92q1.448-2.64 2.975-5.235a149 149 0 0 1 3.426-5.504c1.317-2.05 2.736-4.029 4.207-5.97 1.572-2.063 3.278-4.018 5.02-5.938 1.742-1.93 3.604-3.746 5.511-5.513.018-.614.043-1.226.055-1.84q.034-1.735.021-3.469a171 171 0 0 0-.218-7.225 61 61 0 0 0-.223-3.07 43 43 0 0 0-.334-2.746 38 38 0 0 0-.49-2.543 70 70 0 0 0-.701-2.941 86 86 0 0 0-.838-2.885 87 87 0 0 0-.94-2.897q-.54-1.584-1.1-3.164c-.382-1.083-.769-2.165-1.152-3.248q-.63-1.773-1.219-3.56a120 120 0 0 1-1.977-6.871c-.208-.814-.41-1.628-.624-2.44a14 14 0 0 0-.315-1.054c-.125-.383-.272-.759-.416-1.135-.708-1.746-1.182-3.565-1.605-5.397-.505-2.307-.624-4.664-.594-7.017.028-.943.103-1.884.176-2.825.024-.298.04-.595.057-.894l-.03-.582c-.086-1.607.016-3.213.192-4.81l.072-.544 43.746 6.135c-.017-.047-.032-.11-.049-.152l.045.115.014.04.752.105.025-.204c.088-.865.15-1.737.106-2.607.048.599.043 1.202.08 1.8a42 42 0 0 1-.069 3.054l-.02.296c.079.227.169.45.243.678.388 1.2.757 2.407 1.07 3.629.226.865.445 1.73.666 2.596.179.693.362 1.386.561 2.074.196.686.395 1.37.613 2.049.275.852.577 1.696.873 2.54l.381 1.073c1.816-3.674 3.611-7.357 5.465-11.012 4.067-8.051 8.58-15.859 13.299-23.543 5.465-8.785 11.602-17.115 17.92-25.298C275.912.767 276.094.556 276.535 0Zm39.592 283.063c-1.807.428-3.577.976-5.348 1.53-.281.089-1.117.378-.84.278-.153.027-.496.174-1.08.406h7.822z" style="fill:red;fill-opacity:1;fill-rule:nonzero;stroke:none"/></clipPath><style id="style2">.cls-24,.cls-25,.cls-26{stroke:#18403f;stroke-linecap:round;stroke-linejoin:round}.cls-24{fill:none}.cls-26{fill:#2a9e8c}.cls-25{fill:#a5d672}.cls-24,.cls-25,.cls-26{stroke-width:11.61px}</style></defs><path id="path1438" d="M150.344 173.457s28.27 39.62-2.54 75.37l-22.79-52.8" class="cls-25" style="fill:#e7e2b1;fill-opacity:1;stroke:#e7e2b1;stroke-width:30.61;stroke-linecap:round;stroke-linejoin:round;stroke-miterlimit:4;stroke-dasharray:none;stroke-opacity:1"/><path id="path1440" d="m153.374 78.667 31.43-14.12s43.64 4.77 53.72 50.73l-53.75-10.79" class="cls-25" style="fill:#e7e2b1;fill-opacity:1;stroke:#e7e2b1;stroke-width:30.61;stroke-linecap:round;stroke-linejoin:round;stroke-miterlimit:4;stroke-dasharray:none;stroke-opacity:1"/><path id="path1442" d="m133.354 62.207-63.78 19.15s-17.27 69.42 34.46 126.73c69.84-32.9 80.71-103.6 80.71-103.6z" class="cls-26" style="fill:#e7e2b1;fill-opacity:1;stroke:#e7e2b1;stroke-width:30.61;stroke-linecap:round;stroke-linejoin:round;stroke-miterlimit:4;stroke-dasharray:none;stroke-opacity:1"/><path id="path298" d="M268.144 126.697a18 18 0 0 0-.89-1.79 111 111 0 0 0-16.29-23.75 77.8 77.8 0 0 0-35.22-42.26 81.7 81.7 0 0 0-29.17-10.12 16 16 0 0 0-8.22 1.3l-7.14 3.21a78 78 0 0 0 .73-8.72c0-.21.1-.41.14-.62a15.8 15.8 0 0 0-.41-7.84 57 57 0 0 0-2.37-12c-4.08-12.8-12.66-21.39-23.53-23.57-14.21-2.86-28.52 5.85-37.61 22.79a15.7 15.7 0 0 0-3.39 7.06c0 .17-.07.35-.1.53a76 76 0 0 0-2.71 8.41l-5.39-5.66a15.8 15.8 0 0 0-7.08-4.37 81.5 81.5 0 0 0-30.85-1.95c-15.88 1.95-38.45 9.44-55.76 34.1a15.86 15.86 0 0 0 9.86 24.67l38.94 7.82a170 170 0 0 0 0 30.68 166 166 0 0 0 4.83 27.8 91 91 0 0 0-13.53 15.11c-14.16 20-17.62 42.87-10 66.17a15.79 15.79 0 0 0 11.24 10.48 16 16 0 0 0 3.84.47 15.8 15.8 0 0 0 11-4.44l12.87-12.41a110.57 110.57 0 0 0 47.46 45.77 16 16 0 0 0 1.75.87 110.4 110.4 0 0 0 91 2 16 16 0 0 0 1.55-.68 110.9 110.9 0 0 0 45.09-36.92 16.4 16.4 0 0 0 1.35-1.94 110.3 110.3 0 0 0 8.06-110.17z" clip-path="url(#clipPath1636)" style="fill:#e7e2b1"/><path id="path310" d="M150.344 173.457s28.27 39.62-2.54 75.37l-22.79-52.8" class="cls-25" style="fill:#a5d672;stroke:#18403f;stroke-width:11.61px;stroke-linecap:round;stroke-linejoin:round"/><path id="path312" d="M74.734 158.267s-41.37 25.64-26.75 70.52l41.41-39.92" class="cls-25" style="fill:#a5d672;stroke:#18403f;stroke-width:11.61px;stroke-linecap:round;stroke-linejoin:round"/><path id="path314" d="M147.374 73.727a56.4 56.4 0 0 0 7.49-19.18c3.83-19.09-1.66-36.28-12.26-38.41s-22.3 11.62-26.13 30.7a56.2 56.2 0 0 0-.5 20.57" class="cls-25" style="fill:#a5d672;stroke:#18403f;stroke-width:11.61px;stroke-linecap:round;stroke-linejoin:round"/><path id="path316" d="m153.374 78.667 31.43-14.12s43.64 4.77 53.72 50.73l-53.75-10.79" class="cls-25" style="fill:#a5d672;stroke:#18403f;stroke-width:11.61px;stroke-linecap:round;stroke-linejoin:round"/><path id="path318" d="m108.574 69.667-23.55-25.16s-42.13-12.48-69.17 26.06l53.72 10.79" class="cls-25" style="fill:#a5d672;stroke:#18403f;stroke-width:11.61px;stroke-linecap:round;stroke-linejoin:round"/><path id="path320" d="m133.354 62.207-63.78 19.15s-17.27 69.42 34.46 126.73c69.84-32.9 80.71-103.6 80.71-103.6z" class="cls-26" style="fill:#2a9e8c;stroke:#18403f;stroke-width:11.61px;stroke-linecap:round;stroke-linejoin:round"/><path id="line322" d="m149.894 39.507 6.58 1.32" class="cls-24" style="fill:none;stroke:#18403f;stroke-width:11.61px;stroke-linecap:round;stroke-linejoin:round"/><path id="line324" d="m126.864 34.877-6.59-1.32" class="cls-24" style="fill:none;stroke:#18403f;stroke-width:11.61px;stroke-linecap:round;stroke-linejoin:round"/><path id="polygon326" d="m707.72 872.49 30.71 6.16 9.96 29.96-20.75 23.79-30.72-6.17-9.96-29.95z" class="cls-24" style="fill:none;stroke:#18403f;stroke-width:11.61px;stroke-linecap:round;stroke-linejoin:round" transform="translate(-597.426 -774.973)"/><path id="polyline328" d="m770.92 913.13-22.53-4.52-9.96-29.96 17.87-20.49" class="cls-24" style="fill:none;stroke:#18403f;stroke-width:11.61px;stroke-linecap:round;stroke-linejoin:round" transform="translate(-597.426 -774.973)"/><path id="polyline330" d="m664.43 891.75 22.53 4.53 20.76-23.79-8.58-25.8" class="cls-24" style="fill:none;stroke:#18403f;stroke-width:11.61px;stroke-linecap:round;stroke-linejoin:round" transform="translate(-597.426 -774.973)"/><path id="polyline332" d="m678.04 947.88 18.88-21.65 30.72 6.17 9.07 27.3" class="cls-24" style="fill:none;stroke:#18403f;stroke-width:11.61px;stroke-linecap:round;stroke-linejoin:round" transform="translate(-597.426 -774.973)"/></svg>