<svg xmlns="http://www.w3.org/2000/svg" id="Layer_1" width="285.67" height="285.67" data-name="Layer 1" version="1.1"><defs id="defs19"><linearGradient id="linear-gradient" x1="251.02" x2="251.02" y1="532.25" y2="520.23" gradientUnits="userSpaceOnUse"><stop id="stop4" offset="0" stop-color="#6e7070" stop-opacity="0"/><stop id="stop6" offset=".06" stop-color="#6e7070" stop-opacity=".11"/><stop id="stop8" offset=".24" stop-color="#6e7070" stop-opacity=".43"/><stop id="stop10" offset=".43" stop-color="#6d7070" stop-opacity=".68"/><stop id="stop12" offset=".62" stop-color="#6d7070" stop-opacity=".86"/><stop id="stop14" offset=".81" stop-color="#6d7070" stop-opacity=".96"/><stop id="stop16" offset="1" stop-color="#6d7070"/></linearGradient><linearGradient id="linear-gradient-1" x1="251.02" x2="251.02" y1="532.25" y2="520.23" gradientTransform="translate(35.762 18.6) scale(.97295)" gradientUnits="userSpaceOnUse"><stop id="stop4-8" offset="0" stop-color="#6e7070" stop-opacity="0"/><stop id="stop6-7" offset=".06" stop-color="#6e7070" stop-opacity=".11"/><stop id="stop8-3" offset=".24" stop-color="#6e7070" stop-opacity=".43"/><stop id="stop10-5" offset=".43" stop-color="#6d7070" stop-opacity=".68"/><stop id="stop12-1" offset=".62" stop-color="#6d7070" stop-opacity=".86"/><stop id="stop14-7" offset=".81" stop-color="#6d7070" stop-opacity=".96"/><stop id="stop16-0" offset="1" stop-color="#6d7070"/></linearGradient><style id="style2">.cls-4{fill:#fff}.cls-5{fill:#8accdc}.cls-17{fill:#55a8b4}</style></defs><path id="path179" d="M197.625 212.095c-1.17.27-2.69.51-3.63 0-3.49-1.92-6.81-4.17-10.61-6.55l12.91-6.78c-.23-.79-.37-1.34-.56-1.87-1.58-4.43-1.58-4.42-6-3.2-5.11 1.4-10.2 2.84-15.32 4.19-.94.25-2.22.56-2.93.14-3.24-1.89-6.43-3.88-9.69-5.92h-33c-3.25 2.09-6.22 4-9.32 5.75a7.82 7.82 0 0 1-5.06.79c-6.38-1.44-12.68-3.25-19.21-5-.78 2.12-1.52 4.1-2.29 6.15l13.15 6.71c-3.43 2.18-6.35 4.25-9.49 5.91a8 8 0 0 1-4.75.68c-3.36-.54-6.66-1.53-10.26-2.4-1.69 6.56-3.29 12.76-4.95 19.24l19.49 4.9c1-3.79 1.91-7.22 2.89-10.64.25-.84.56-2 1.21-2.33 3.6-2.11 7.32-4 11.27-6.17v14.45a14.86 14.86 0 0 1 2.17.43c3 1.06 4.54.38 5.17-3.09 1-5.32 2.47-10.53 3.8-15.78.21-.87.42-2.09 1-2.44 4.8-2.76 9.71-5.35 15.08-8.25 0 4.83-.35 8.91.11 12.9.33 2.95-.61 4.71-2.7 6.53-4.68 4.06-9.19 8.33-14 12.67l4.14 5.17 13-7.54c0 4-.15 7.29.05 10.58a6 6 0 0 1-2.4 5.36c-2.51 2.14-4.84 4.49-7.48 7l14.57 13.88 14.77-13.93c-3-2.69-5.73-5-8.27-7.51a5 5 0 0 1-1.45-3.22c.07-3.75.46-7.5.73-11.27a3.23 3.23 0 0 1 .88.12c2.24 1.42 4.49 2.84 6.71 4.29 5.24 3.42 5.24 3.43 9-2.13-4.63-4.59-9.31-9.22-14-13.88-.71-.72-1.81-1.63-1.78-2.42.18-5.45.61-10.89 1-16.76a95 95 0 0 0 8.91 4.56c4.38 1.7 6.62 4.54 7.37 9.28.84 5.27 2.59 10.4 4 15.66l6.28-1.08v-14.43c3.42 1.8 6.57 3.21 9.42 5.07a8.68 8.68 0 0 1 3.1 4c1.2 3.18 1.94 6.54 2.88 9.88l19.48-5.12-5.22-19.24c-3.71.99-6.88 1.92-10.17 2.66z" class="cls-4" style="fill:#fff"/><path id="rect181" d="M128.275 173.935h33.97v21.16h-33.97z" class="cls-4" style="fill:#fff"/><circle id="circle183" cx="142.835" cy="142.835" r="136.99" style="fill:#36296d"/><circle id="circle185" cx="142.835" cy="142.835" r="136.99" style="fill:none;stroke:#dcdbdb;stroke-width:11.68999958px;stroke-miterlimit:10"/><path id="path187" d="M238.035 145.245v-2.41a95.23 95.23 0 1 0-190.45 0v2.41z" class="cls-4" style="fill:#fff"/><path id="path189" d="M198.675 185.105c-1.25.28-2.89.54-3.89 0-3.75-2.07-7.31-4.48-11.39-7l13.86-7.28c-.25-.85-.4-1.43-.6-2-1.7-4.75-1.7-4.75-6.44-3.44-5.48 1.51-10.95 3-16.45 4.5-1 .27-2.37.6-3.14.15-3.47-2-6.9-4.17-10.4-6.36h-35.43c-3.49 2.25-6.68 4.35-10 6.18a8.43 8.43 0 0 1-5.43.85c-6.85-1.55-13.62-3.49-20.62-5.34-.85 2.27-1.64 4.4-2.46 6.61l14.12 7.2c-3.69 2.33-6.82 4.56-10.19 6.34a8.65 8.65 0 0 1-5.1.73c-3.61-.58-7.15-1.64-11-2.58l-5.31 20.66 20.93 5.26c1.09-4.07 2.05-7.76 3.1-11.42.26-.9.6-2.11 1.29-2.51 3.87-2.27 7.86-4.33 12.11-6.62v15.49a17 17 0 0 1 2.32.46c3.22 1.14 4.88.41 5.55-3.32 1-5.7 2.65-11.3 4.08-16.93.23-.93.45-2.24 1.11-2.62 5.16-3 10.43-5.74 16.19-8.86 0 5.18-.37 9.57.12 13.85.36 3.16-.65 5.06-2.89 7-5 4.37-9.88 8.95-15 13.61l4.44 5.55 13.92-8.09c0 4.26-.16 7.82.06 11.35a6.43 6.43 0 0 1-2.57 5.76c-2.7 2.29-5.21 4.82-8 7.47l15.65 14.91 15.85-15c-3.21-2.88-6.15-5.36-8.87-8.06a5.29 5.29 0 0 1-1.56-3.45c.07-4 .49-8.06.78-12.11a3.42 3.42 0 0 1 .94.14c2.41 1.52 4.82 3 7.21 4.6 5.63 3.68 5.62 3.68 9.61-2.28-5-4.94-10-9.9-15-14.9-.76-.77-1.94-1.75-1.91-2.6.19-5.85.66-11.69 1.06-18 3.63 1.89 6.48 3.7 9.56 4.89 4.71 1.83 7.11 4.87 7.92 10 .9 5.65 2.78 11.16 4.25 16.81l6.74-1.17v-15.52c3.67 1.94 7 3.45 10.11 5.45a9.22 9.22 0 0 1 3.33 4.32c1.29 3.42 2.08 7 3.09 10.61l20.91-5.5c-1.93-7.11-3.75-13.84-5.6-20.65-4.03 1.06-7.47 2.06-10.96 2.86z" class="cls-4" style="fill:#fff"/><path id="rect191" d="M124.225 144.135h36.47v22.72h-36.47z" class="cls-4" style="fill:#fff"/><path id="path209" d="M89.466 110.556v14.057h3.233v12.142H71.455v-12.142h3.216v-29.66h-3.216V82.864h17.308l12.458 20.804 12.458-20.804h17.308v12.09h-3.216v29.66h3.216v12.141h-21.244v-12.142h3.233v-14.057l-11.755 19.504z" class="cls-5" style="fill:#8accdc;stroke-width:.999999"/><path id="path211" d="m202.571 128.135-8.583 8.6h-33.293v-12.118h3.236V94.93h-3.236v-12.1h33.417l8.582 8.6v13.842l-3.517 3.517 3.517 3.518zM186.04 94.982h-7.37v7.809h7.37l1.759-1.759v-4.326zm0 19.91h-7.37v9.725h7.37l1.759-1.759v-6.26z" class="cls-5" style="fill:#8accdc;stroke-width:1"/><path id="polygon213" d="M706.8 472.12h1.83v-6.88h-9.85l-7.09 11.84-7.09-11.84h-9.85v6.88h1.83v7.95h30.22z" class="cls-17" style="fill:#55a8b4;stroke-width:.569112" transform="translate(-1114.163 -734.62) scale(1.75712)"/><path id="path215" d="M160.695 82.829v12.1h3.236v13.982h35.316l-.158-.158 3.517-3.517V91.464l-8.582-8.6zm27.155 18.168-1.758 1.759h-7.37v-7.81h7.37l1.758 1.76z" class="cls-17" style="fill:#55a8b4;stroke-width:1"/><path id="polyline217" d="m676.58 472.12 4.25 9.45h-4.33" class="cls-5" style="fill:#8accdc;stroke-width:.569112" transform="translate(-1114.163 -734.62) scale(1.75712)"/><path id="polyline219" d="m807.92 472.28 4.25 9.46h-4.34" class="cls-5" style="fill:#8accdc;stroke-width:.568581" transform="translate(-1256.869 -735.418) scale(1.75876)"/></svg>