<svg xmlns="http://www.w3.org/2000/svg" width="1032" height="1974" fill="none" viewBox="0 0 1032 1974"><g fill-rule="evenodd" clip-path="url(#a)" clip-rule="evenodd"><path fill="#fff" d="M457.997 1.413c-34.527 6.13-64.803 23.726-84.455 49.087-15.029 19.395-23.928 39.951-28.74 66.389-2.988 16.422-2.985 46.614.008 63.111 6.821 37.593 22.001 67.022 47.865 92.792l8.322 8.293-.008 91.707-.009 91.708-6.106 8.5c-3.359 4.675-9.09 14.593-12.737 22.041l-6.629 13.541-20.585 13.204c-29.923 19.194-43.144 30.923-55.242 49.009-28.598 42.753-23.665 99.227 11.847 135.624 12.446 12.756 32.11 24.969 48.712 30.253l5.743 1.828.007 14.689.007 14.69-8.75 2.663c-20.309 6.182-47.66 17.2-70.75 28.503-71.043 34.774-135.192 87.714-183.524 151.455-59.075 77.91-94.4 171.96-102.035 271.67-2.427 31.69-.398 82.81 4.578 115.33 11.041 72.15 39.067 144.39 79.726 205.5 57.974 87.13 142.023 155.34 237.684 192.9 16.332 6.41 44.635 16.02 51.587 17.51 2.903.62 3.122 1.06 5.833 11.7 6.766 26.55 17.263 54.26 30.27 79.89 16.222 31.97 31.067 52.77 54.32 76.13 26.74 26.86 55.34 45.57 78.267 51.22 10.382 2.55 37.872 2.32 48.326-.42 17.33-4.54 31.803-13.28 45.095-27.24 9.816-10.3 16.142-20.4 20.512-32.75 5.753-16.26 5.858-17.92 5.891-93.3l.031-69.14 11.906-3.84c38.485-12.42 83.109-34.13 119.533-58.17 57.592-38 109.396-89.89 146.746-146.99 55.178-84.35 83.707-180.27 83.737-281.5.03-102.19-30.285-201.27-87.663-286.5-56.581-84.046-139.015-150.872-232.82-188.736-5.5-2.221-16.975-6.454-25.5-9.408l-15.5-5.371-.256-82.348-.255-82.347 18.41-12.09c28.412-18.658 43.858-34.677 54.67-56.7 15.01-30.573 15.536-63.407 1.49-93.123-5.59-11.826-11.15-19.924-20.147-29.341-12.227-12.799-29.933-24.015-47.618-30.166l-6.707-2.333-.357-112.518c-.39-122.647-.261-119.663-6.355-146.94-6.524-29.201-19.797-54.141-37.579-70.609-19.885-18.418-64.097-38.415-105.296-47.625-11.673-2.609-44.147-3.447-55.5-1.432m7.585 35.624c-23.149 3.647-42.735 13.864-58.362 30.444-12.118 12.856-19.612 27.116-24.934 47.445-3.694 14.108-4.378 41.545-1.461 58.574 5.013 29.268 16.647 52.159 36.955 72.718 4.737 4.796 10.989 10.421 13.893 12.5l5.281 3.782.021 107.851.022 107.851-6.035 7.502c-10.619 13.199-18.393 27.153-22.488 40.361l-1.726 5.565-21.625 13.871c-28.312 18.16-33.068 21.537-41.379 29.376-31.96 30.15-35.282 73.986-7.899 104.244 12.717 14.054 32.078 23.735 57.031 28.518l9.121 1.749v86.535l-4.25 1.098c-66.163 17.095-125.79 46.088-177.118 86.122l-11.867 9.257 42.398 42.121c23.319 23.166 46.827 47.264 52.239 53.55 42.124 48.919 72.199 104.109 89.069 163.429 20.045 70.48 20.045 146.52 0 217-19.628 69.02-56.65 131.61-110.081 186.11-5.989 6.11-25.515 24.07-43.39 39.91s-32.653 29.18-32.839 29.66c-.441 1.11 1.4 2.66 19.339 16.24 50.572 38.28 106.642 65.42 168.239 81.44l14.71 3.83 2.762 12.4c19.051 85.59 58.808 150.26 114.516 186.3 17.001 11 30.538 15.31 44.886 14.3 24.664-1.74 44.591-17.26 53.118-41.36l2.769-7.83.288-83.11.287-83.11 8.713-2.27c50.807-13.29 105.546-38.73 149.959-69.71 14.69-10.24 33.489-25.14 33.069-26.2-.174-.44-14.716-13.99-32.316-30.1s-37.122-34.52-43.381-40.9c-122.84-125.2-157.928-297.62-92.05-452.32 18.542-43.55 45.764-85.48 79.983-123.222 5.746-6.337 27.682-27.995 48.747-48.129 32.921-31.466 38.119-36.823 37.02-38.147-2.216-2.67-30.821-23.729-42.959-31.627-42.215-27.466-91.561-49.501-138.11-61.67l-8.75-2.288v-212.58l10.543-6.809c36.169-23.357 41.225-26.942 49-34.74 9.659-9.689 16.666-20.615 20.762-32.374 3.908-11.217 4.841-26.946 2.282-38.448-6.983-31.389-35.077-53.927-75.787-60.802l-6.7-1.132-.374-124.656c-.338-112.894-.54-125.788-2.145-136.656-4.929-33.385-13.789-54.516-29.251-69.766-7.385-7.283-12.106-10.469-25.83-17.426-17.493-8.868-39.956-17.021-61.5-22.32-9.771-2.403-32.815-3.463-42.415-1.951m5.732 60.009c-15.895 3.142-28.304 17.089-31.368 35.258-1.514 8.975-.706 30.061 1.463 38.196.88 3.3 3.662 10.203 6.182 15.34 8.036 16.379 24.277 30.788 41.599 36.905l7.802 2.755.002 140.51.003 140.511-7.125 5.433c-16.304 12.434-25.915 29.382-27.536 48.559l-.601 7.109-36.887 23.812c-38.727 25-44.616 29.712-46.975 37.586-.99 3.302-.88 4.288.792 7.152 3.689 6.315 13.671 10.808 28.911 13.011 13.51 1.954 22.677-1.083 28.131-9.318 2.648-3.998 2.818-4.955 3.333-18.789.593-15.929 1.475-19.18 6.876-25.331 3.404-3.877 10.345-7.745 13.897-7.745h2.184v541.89c0 356.53.345 545.44 1.008 552.25 7.261 74.62 37.055 143.13 77.492 178.19 8.607 7.46 23.188 17.67 25.241 17.67 1.011 0 1.259-130.83 1.259-663.33V551.341l32.604-20.92c17.933-11.507 35.37-22.973 38.75-25.481 10.787-8.004 15.318-17.68 11.1-23.702-4.091-5.841-20.552-11.486-33.954-11.644-10.136-.119-16.202 2.071-20.885 7.543-4.519 5.279-5.93 11.241-5.078 21.461 1.399 16.8-6.192 29.383-19.308 32.006l-3.229.646-.016-175.375c-.018-196.174-.165-201.043-6.706-221.084-3.635-11.139-7.09-14.701-20.641-21.28-11.989-5.821-34.166-13.669-45.274-16.022-7.446-1.578-16.432-1.75-23.046-.443M132.695 972.197C56.505 1073.86 24.066 1196.2 40.035 1321.66c8.922 70.1 34.314 138.81 73.619 199.2 7.332 11.26 26.983 38.14 27.887 38.14.245 0 15.934-12.83 34.865-28.52 23.25-19.26 38.372-32.63 46.603-41.2 95.538-99.43 122.106-232.88 70.444-353.83-15.639-36.61-39.509-72.31-69.452-103.86-6.405-6.74-73.372-69.616-78.179-73.393-1.467-1.154-2.979.458-13.127 14m717.802 16.338c-35.951 29.855-52.229 45.555-69.441 66.975-59.273 73.76-84.466 162.87-71.001 251.13 9.606 62.97 38.897 123.11 84.681 173.86 13.541 15.01 85.004 83.78 86.257 83 1.834-1.13 23.644-30.8 31.349-42.64 62.378-95.87 88.118-208.62 73.618-322.52-8.923-70.1-34.315-138.81-73.62-199.2-8.493-13.048-27.066-38.176-28.143-38.074-.385.037-15.55 12.398-33.7 27.469"/><path fill="#005430" d="M465.582 37.037C442.433 40.684 422.847 50.9 407.22 67.48c-12.118 12.856-19.612 27.116-24.934 47.445-3.694 14.108-4.378 41.545-1.461 58.574 5.013 29.268 16.647 52.159 36.955 72.718 4.737 4.796 10.989 10.421 13.893 12.5l5.281 3.782.021 107.851.022 107.851-6.035 7.502c-10.619 13.199-18.393 27.153-22.488 40.361l-1.726 5.565-21.625 13.871c-28.312 18.16-33.068 21.537-41.379 29.376-31.96 30.15-35.282 73.986-7.899 104.244 12.717 14.054 32.078 23.735 57.031 28.518l9.121 1.749v86.535l-4.25 1.098c-66.163 17.095-125.79 46.088-177.118 86.122l-11.867 9.257 42.398 42.121c23.319 23.166 46.827 47.264 52.239 53.55 42.124 48.919 72.199 104.109 89.069 163.429 20.045 70.48 20.045 146.52 0 217-19.628 69.02-56.65 131.61-110.081 186.11-5.989 6.11-25.515 24.06-43.39 39.9s-32.653 29.19-32.839 29.66c-.441 1.12 1.4 2.67 19.339 16.25 50.572 38.28 106.642 65.42 168.239 81.44l14.71 3.83 2.762 12.4c19.051 85.59 58.808 150.26 114.516 186.3 17.001 11 30.538 15.31 44.886 14.3 24.664-1.74 44.591-17.26 53.118-41.36l2.769-7.83.288-83.11.287-83.11 8.713-2.28c50.807-13.28 105.546-38.72 149.959-69.7 14.69-10.24 33.489-25.14 33.069-26.2-.174-.44-14.716-13.99-32.316-30.1-17.6-16.12-37.122-34.52-43.381-40.9-122.84-125.2-157.928-297.62-92.05-452.32 18.542-43.55 45.764-85.49 79.983-123.222 5.746-6.337 27.682-27.995 48.747-48.129 32.921-31.466 38.119-36.823 37.02-38.147-2.216-2.67-30.821-23.729-42.959-31.627-42.215-27.466-91.561-49.501-138.11-61.67l-8.75-2.288v-212.58l10.543-6.809c36.169-23.357 41.225-26.942 49-34.74 9.659-9.689 16.666-20.615 20.762-32.374 3.908-11.217 4.841-26.946 2.282-38.448-6.983-31.389-35.077-53.927-75.787-60.802l-6.7-1.132-.374-124.656c-.338-112.894-.54-125.788-2.145-136.656-4.929-33.385-13.789-54.516-29.251-69.766-7.385-7.283-12.106-10.47-25.83-17.426-17.493-8.868-39.956-17.021-61.5-22.32-9.771-2.403-32.815-3.463-42.415-1.951m5.732 60.009c-15.895 3.142-28.304 17.089-31.368 35.258-1.514 8.975-.706 30.061 1.463 38.196.88 3.3 3.662 10.203 6.182 15.34 8.036 16.379 24.277 30.788 41.599 36.905l7.802 2.755.002 140.51.003 140.511-7.125 5.433c-16.304 12.434-25.915 29.382-27.536 48.559l-.601 7.109-36.887 23.812c-38.727 25-44.616 29.712-46.975 37.586-.99 3.302-.88 4.288.792 7.152 3.689 6.315 13.671 10.808 28.911 13.011 13.51 1.954 22.677-1.083 28.131-9.318 2.648-3.998 2.818-4.955 3.333-18.789.593-15.929 1.475-19.18 6.876-25.331 3.404-3.877 10.345-7.745 13.897-7.745h2.184v541.89c0 356.53.345 545.44 1.008 552.25 7.261 74.62 37.055 143.13 77.492 178.19 8.607 7.46 23.188 17.67 25.241 17.67 1.011 0 1.259-130.83 1.259-663.33V551.341l32.604-20.92c17.933-11.507 35.37-22.973 38.75-25.481 10.787-8.004 15.318-17.68 11.1-23.702-4.091-5.841-20.552-11.486-33.954-11.644-10.136-.119-16.202 2.071-20.885 7.543-4.519 5.279-5.93 11.241-5.078 21.461 1.399 16.8-6.192 29.383-19.308 32.006l-3.229.646-.016-175.375c-.018-196.174-.165-201.043-6.706-221.084-3.635-11.139-7.09-14.701-20.641-21.28-11.989-5.821-34.166-13.67-45.274-16.022-7.446-1.578-16.432-1.75-23.046-.443M132.695 972.197C56.505 1073.86 24.066 1196.2 40.035 1321.66c8.922 70.1 34.314 138.81 73.619 199.2 7.332 11.26 26.983 38.14 27.887 38.14.245 0 15.934-12.83 34.865-28.52 23.25-19.26 38.372-32.63 46.603-41.2 95.538-99.43 122.106-232.88 70.444-353.83-15.639-36.61-39.509-72.31-69.452-103.86-6.405-6.74-73.372-69.616-78.179-73.393-1.467-1.154-2.979.458-13.127 14m717.802 16.338c-35.951 29.855-52.229 45.555-69.441 66.975-59.273 73.76-84.466 162.87-71.001 251.13 9.606 62.97 38.897 123.11 84.681 173.86 13.541 15.01 85.004 83.78 86.257 83 1.834-1.13 23.644-30.8 31.349-42.64 62.378-95.87 88.118-208.62 73.618-322.52-8.923-70.1-34.315-138.81-73.62-199.2-8.493-13.048-27.066-38.176-28.143-38.074-.385.037-15.55 12.398-33.7 27.469"/></g><defs><clipPath id="a"><path fill="#fff" d="M0 0h1032v1974H0z"/></clipPath></defs></svg>